<svg xmlns="http://www.w3.org/2000/svg" viewBox="0 0 750 750"><path d="M311.85,631.86c.07.9.71,2.3,1.35,2.47a3.65,3.65,0,0,0,2.93-.9,3.75,3.75,0,0,0,.75-2.7,16.28,16.28,0,0,0-.89-3.85c-1.36-4.16-6-6-9.59-3.5a17,17,0,0,0-4.79,5.4,27.86,27.86,0,0,0-3.09,16.71,19.79,19.79,0,0,0,3.62,10.35c3.33,4.42,8.48,4.75,12.3.78a19.38,19.38,0,0,0,4.84-9.84,1.81,1.81,0,0,0-.21-1.28,2.26,2.26,0,0,0-4,.22c-1,2-2.32,4.72-2.61,5.19-1,1.52-1.92,3.3-4,3.18s-2.91-2.13-3.57-3.84a23.58,23.58,0,0,1-.94-13.67,41.06,41.06,0,0,1,3.25-8.41,2.92,2.92,0,0,1,3.51-1.67C312.46,628,311.71,630,311.85,631.86Zm22.65,22c-2,.14-3.92.39-5.86.58V643.37c2,0,3.74.06,5.45,0,1.53-.07,3.06-.44,3.12-2.34s-1.55-2.42-3.13-2.57c-1.76-.17-3.54-.23-5.43-.34-.25-4.1-.49-8-.75-12.42,2.62,0,5.06.11,7.49-.07.73,0,1.88-.83,2-1.42a3.42,3.42,0,0,0-1-2.5,3.32,3.32,0,0,0-2.22-.55c-2.58,0-5.16.22-7.74.33-3.67.14-4.54,1-4.62,4.66a18.73,18.73,0,0,0,.08,2c.48,5.13,1.07,10.25,1.42,15.39.28,4,.25,7.94.41,11.91.05,1.15.28,2.3.45,3.66a24,24,0,0,0,2.94.2c2.58-.13,5.15-.41,7.73-.53,2.8-.12,4.12-.84,4.13-2.41C339,654.61,337.32,653.67,334.5,653.88Zm-58.81,5.45c1.56.26,2.2-.85,2.61-2.16.66-2.13,1.37-4.25,2.08-6.44h8.15c.65,2.15,1.2,4.19,1.9,6.18.46,1.3,1.24,2.55,2.88,2.09s1.64-1.89,1.33-3.27c-.83-3.75-1.68-7.48-2.53-11.22-1.56-6.84-3.12-13.67-4.73-20.49a16,16,0,0,0-1.08-2.58c-2.26-.28-3.32.71-3.81,2.32-.9,3-1.7,6-2.52,9-1.17,4.25-2.32,8.5-3.48,12.76a25.67,25.67,0,0,0-4.75.54,2.77,2.77,0,0,0-1.72,2c0,.67,1,1.59,1.79,1.92a13.71,13.71,0,0,0,3.37.56c-.42,2.06-.87,3.91-1.16,5.78C273.8,657.64,274,659.05,275.69,659.33Zm9-26.71.28,0c.8,4.13,1.59,8.25,2.42,12.58h-5.73C282.7,641,283.7,636.8,284.71,632.62ZM185.6,221.51a2.89,2.89,0,0,0-2-1.83c-.77,0-1.58,1-2.37,1.56l0,1c.83.52,1.62,1.39,2.49,1.46A1.68,1.68,0,0,0,185.6,221.51ZM414,59.1a3.89,3.89,0,0,0,3.4-.5c.64-.55.66-2.15.49-3.22a16,16,0,0,0-1.36-3.49c2.83-.34,5.47-.56,8.07-1a10.67,10.67,0,0,0,3.88-1.39,3.79,3.79,0,0,0,1.61-2.63c0-.77-1.08-1.69-1.88-2.24a6.8,6.8,0,0,0-2.8-1c-3.32-.47-6.66-.81-10-1.2.65-1.65,1.45-3.32,2-5.08.42-1.44.43-3.24-1.15-3.81a4.4,4.4,0,0,0-3.78.52A32.72,32.72,0,0,0,407,40.52C401.77,48.72,407.78,56.43,414,59.1Zm.24-22.55.57.3-2.71,6.31-3.8.87C409.92,40.86,411.65,38.35,414.27,36.55Zm12.45,10.28a29.92,29.92,0,0,1-18.64.23C414.24,45,420.46,45.28,426.72,46.83Zm-11.42,10c-3.23-1.07-5.1-3.38-6.8-6C412.65,50.62,414.54,52.56,415.3,56.86ZM183.12,229.19c-.52.83-1.47,1.69-1.42,2.48a2.85,2.85,0,0,0,1.89,1.93,1.69,1.69,0,0,0,2-2c-.15-.88-1-1.63-1.59-2.44ZM332.69,45.46c1.49.1,2.07-.88,2.62-2.68a8.07,8.07,0,0,0-2.24-1.5c-1.36-.35-2.13.57-2.23,1.85A1.92,1.92,0,0,0,332.69,45.46ZM181.25,122.77c.82.53,1.59,1.42,2.46,1.52a1.7,1.7,0,0,0,1.9-2.13,2.94,2.94,0,0,0-2-1.87c-.78,0-1.61,1-2.41,1.51C181.24,122.12,181.25,122.44,181.25,122.77ZM185.61,152a2.92,2.92,0,0,0-2-1.88c-.78,0-1.61.95-2.42,1.49,0,.32,0,.64,0,1,.81.55,1.58,1.44,2.44,1.54A1.69,1.69,0,0,0,185.61,152ZM344.38,49.75a21.82,21.82,0,0,0,5.5,1.49c2,.33,4,.4,6.08.59a14,14,0,0,0-1.34,3.26,5.72,5.72,0,0,0,.45,3.63c.89,1.32,2.51.9,3.8.25a15.18,15.18,0,0,0,7.89-8.49,11.33,11.33,0,0,0,.52-4.26c-.23-4.75-3-8.16-6.18-11.36a3.2,3.2,0,0,0-1.43-1c-1.16-.24-2.74-.76-3.46-.23A4.43,4.43,0,0,0,355,37a14.56,14.56,0,0,0,1.41,4.08c.21.52.51,1,.87,1.72a27.17,27.17,0,0,0-3.75,0,78.71,78.71,0,0,0-8.92,1.66A3.66,3.66,0,0,0,342.34,47,3.8,3.8,0,0,0,344.38,49.75Zm12.59,7c.32-2.33,1.62-3.88,3-5.43l3.71-.75C363,53.15,360,56,357,56.79Zm1.19-20.26c2.62,1.79,4.34,4.31,5.93,7.47l-3.77-.84-2.73-6.32Zm6.21,10.53a30.36,30.36,0,0,1-18.64-.18A31.75,31.75,0,0,1,364.37,47.06ZM322,45.7H323c.55-.82,1.56-1.66,1.51-2.45s-1.15-1.74-1.94-1.91a1.69,1.69,0,0,0-2,2C320.64,44.21,321.51,44.93,322,45.7ZM185.47,50.12c2,2.66,4.22,5.2,6.25,7.68-1.61.72-3.5,1.45-5.27,2.42-1.2.66-2.24,1.92-1.6,3.26a4.44,4.44,0,0,0,2.79,2.33,18.35,18.35,0,0,0,13.64-3.18c4.86-3.46,4.95-12.36,2.87-16.13-1.28-2.31-3.65-2.39-5-.12a28.79,28.79,0,0,0-1.64,3.89c-2.72-2-5.35-3.94-8.09-5.76a6.93,6.93,0,0,0-3-1c-2.13-.23-3.29,1.2-2.64,3.24A11.17,11.17,0,0,0,185.47,50.12Zm2.79,12.77c-.06-.2-.13-.4-.19-.6l6.49-2.68,3.3,2.08C194.52,62.8,191.47,63.5,188.26,62.89Zm13.6-15.39c1.49,3.17,1.3,6.17.62,9.29C199.49,53.75,199.23,50.76,201.86,47.5Zm-1.58,12.65c-6-3.28-10.38-7.81-14.17-13.44C190.14,47.2,199.24,55.86,200.28,60.15ZM463.13,543a6.72,6.72,0,0,1,3.78,5.72c.28,2.36.69,4.71,1.07,7.06.66,4.07,1.34,8.14,2,12.21a1.46,1.46,0,0,0,.71-1c.93-5.69,2.08-11.35,2.68-17.06.42-4.11,2.54-6.53,6-8.13a31,31,0,0,1,4.44-1.69c2.05-.59,4.15-1,6.22-1.48a5.48,5.48,0,0,0-2.11-.75,27.74,27.74,0,0,1-10.9-4,7.59,7.59,0,0,1-3.44-5.33c-.93-6.15-1.92-12.29-2.89-18.43a11.91,11.91,0,0,0-.64-1.61c-1,6.29-2.33,12-2.82,17.77-.44,5.24-3.22,8.08-7.75,9.65-3,1-6.07,1.78-9.43,2.74a19.75,19.75,0,0,1,2.52.52C456.13,540.32,459.72,541.44,463.13,543ZM185.61,112.25a2.92,2.92,0,0,0-1.93-1.9c-.78,0-1.62.94-2.43,1.48v1c.81.55,1.57,1.45,2.43,1.56A1.69,1.69,0,0,0,185.61,112.25ZM250.34,653a3.14,3.14,0,0,0,4.15-.73,40.11,40.11,0,0,0,5.45-6.71c4.9-8.13-1.46-15.88-7.53-18.22a3.41,3.41,0,0,0-3,.47,4.26,4.26,0,0,0-.63,3.2,17.73,17.73,0,0,0,1.48,3.78,24.14,24.14,0,0,0-2.68.14,72.41,72.41,0,0,0-8.7,1.75,3.79,3.79,0,0,0-2.24,2.79c0,.91,1.38,2.31,2.41,2.61a64,64,0,0,0,8.52,1.61,28.06,28.06,0,0,0,3.9,0c-.78,1.83-1.58,3.36-2.08,5S248.72,651.89,250.34,653Zm2.06-3-.56-.3,2.73-6.3,3.79-.89C256.77,645.62,255.06,648.15,252.4,649.93Zm5.61-14.2c-4.07-.06-5.46-1.35-6.66-5.74C253.54,630,256.72,632.7,258,635.73Zm-18,3.94a29.8,29.8,0,0,1,18.67-.24C252.45,641.55,246.22,641.17,240,639.67ZM378.25,57.18a3.11,3.11,0,0,0,2.45.56c.39-.1.74-1.41.66-2.13-.34-3.2,1.21-5.75,4.56-7.14,3.85,1.05,5.44,3.49,5.07,7.42a2.28,2.28,0,0,0,.68,1.84,2.65,2.65,0,0,0,2-.11A4,4,0,0,0,395,56.45a11.47,11.47,0,0,0-16.7-15.68C373.54,45.27,373.48,53.22,378.25,57.18Zm3.35-14.33c3-2.21,6.19-2.15,9.34.16a6.65,6.65,0,0,1,2.57,7.8c-4.05-7.76-10.82-7.11-14.56,0A6.86,6.86,0,0,1,381.6,42.85ZM262.39,45.7h1c.55-.81,1.54-1.63,1.52-2.41A2.9,2.9,0,0,0,263,41.35a1.67,1.67,0,0,0-2.11,1.9C261,44.11,261.86,44.88,262.39,45.7Zm-19.82,0h1c.53-.82,1.51-1.67,1.46-2.45s-1.13-1.72-1.91-1.9A1.68,1.68,0,0,0,241,43.3C241.13,44.16,242,44.91,242.57,45.71Zm30.67,0c.57-.8,1.58-1.6,1.57-2.38a2.89,2.89,0,0,0-1.83-2,1.68,1.68,0,0,0-2.15,1.86c.08.87.94,1.66,1.45,2.48Zm-82,26.85V316.31l4.28,3.16V76.36c12.22-2.28,18.58-10,21.25-21.59H339c-2.62-2.48-4.62-4.65-8.4-4.33-4.87.41-9.79.1-14.69.1l-101.37,0c-.51,0-1,.1-1.84.19.69,6.18-1.93,11-6.13,15.08A23.27,23.27,0,0,1,191.29,72.57Zm33.86-29.18a2.85,2.85,0,0,0-1.86-2c-.8-.08-1.69.88-2.53,1.39l0,.92c.75.56,1.44,1.42,2.27,1.6A1.7,1.7,0,0,0,225.15,43.39Zm7.39,2.3,1,0c.56-.81,1.58-1.63,1.55-2.42a2.87,2.87,0,0,0-1.9-1.95,1.69,1.69,0,0,0-2.07,2C231.18,44.18,232,44.91,232.54,45.69ZM473.9,441.31c-.49-2.68-.91-5.38-1.36-8.07l-.49,0c-.16.74-.36,1.47-.47,2.21-.32,2-.59,3.93-.88,5.89-.78,5.08-2.52,6.85-7.67,7.77-.59.11-1.18.24-1.76.37a47.75,47.75,0,0,0,4.6,1.66c2.46.92,4.32,2.26,4.57,5.33s1,6.36,1.57,9.55l.41.05c.12-.43.29-.86.37-1.3.49-3,.8-6.05,1.52-9a6.6,6.6,0,0,1,2.25-3.46,16.49,16.49,0,0,1,4.33-1.85c.72-.27,1.49-.43,2.24-.64a1.93,1.93,0,0,0-1.22-.65C476.39,448.19,474.88,446.74,473.9,441.31ZM252.38,45.69l1,0c.58-.8,1.61-1.61,1.6-2.39a2.93,2.93,0,0,0-1.89-2,1.69,1.69,0,0,0-2.09,2C251.05,44.15,251.88,44.9,252.38,45.69Zm17.49,399.54,0-.45a15.27,15.27,0,0,1-1.9-.4c-2.85-1-5.76-1.9-8.51-3.14a5.64,5.64,0,0,1-3.36-4.41q-.76-5.1-1.61-10.2c-.37-2.27-.78-4.53-1.17-6.8a2.91,2.91,0,0,0-.82,1.75c-.67,4.12-1.68,8.22-1.92,12.36-.3,5.37-3.45,7.87-8,9.3-1.57.5-3.2.81-4.8,1.21-.51.13-1,.29-1.53.44a6,6,0,0,0,1.95.76c2.63.87,5.31,1.62,7.84,2.71a7,7,0,0,1,4.25,6c.61,4.86,1.5,9.68,2.29,14.51a19.07,19.07,0,0,0,.57,1.83c.27-1.05.44-1.55.52-2.05.78-4.77,1.7-9.52,2.27-14.32a7.08,7.08,0,0,1,4.26-6,56.38,56.38,0,0,1,6.29-2.35A30.54,30.54,0,0,1,269.87,445.23Zm-9.4,138.35c-2.5-.68-4.27-1.89-4.35-4.86a32.39,32.39,0,0,0-.9-5.11,12.38,12.38,0,0,0-1.18,4.6c-.17,2.87-1.47,4.69-4.33,5.32-.56.13-1.1.35-2,.62.78.28,1.25.48,1.75.61,3.38.94,4.1,1.81,4.52,5.31.19,1.57.5,3.12.76,4.67a13.81,13.81,0,0,0,1.34-5.07c.1-3.14,2-4.39,4.68-4.95a14.18,14.18,0,0,0,1.55-.58C261.46,583.87,261,583.71,260.47,583.58ZM274.7,258.69c1.59-.57,3.21-1,4.95-1.6-2-.7-3.95-1.23-5.76-2a5.24,5.24,0,0,1-3.4-4.71c-.27-2.63-.82-5.23-1.24-7.84l-.33-2h-.53c-.41,2.66-1,5.3-1.2,8-.31,3.76-1.8,6.43-5.67,7.39-1.26.31-2.51.67-4.33,1.16,1.34.35,2.14.57,3,.76,4.84,1.15,6.27,2.7,7,7.53.4,2.72.83,5.43,1.24,8.15h.54c.52-3.08,1.22-6.15,1.49-9.25A6,6,0,0,1,274.7,258.69Zm39.9-215.3a2.85,2.85,0,0,0-1.86-2c-.8-.08-1.69.88-2.53,1.39,0,.31,0,.61,0,.91.76.56,1.45,1.42,2.29,1.61A1.69,1.69,0,0,0,314.6,43.39Zm-32.21,2.33.9,0c.53-.78,1.4-1.52,1.51-2.35a1.8,1.8,0,0,0-2.08-2.08c-1.35.06-2.2.94-2,2.2C280.93,44.3,281.83,45,282.39,45.72ZM183.19,159.6c-.54.81-1.52,1.64-1.49,2.43a2.85,2.85,0,0,0,1.82,2,1.69,1.69,0,0,0,2.1-1.93c-.12-.88-1-1.66-1.5-2.48ZM302.06,45.68l.95,0c.58-.8,1.62-1.6,1.61-2.39a2.89,2.89,0,0,0-1.87-2,1.69,1.69,0,0,0-2.11,1.95C300.73,44.14,301.56,44.89,302.06,45.68Zm-9.7,0,.89,0c.52-.78,1.4-1.53,1.49-2.36a1.79,1.79,0,0,0-2.1-2c-1.34.08-2.2.94-1.93,2.21C290.88,44.32,291.78,45,292.36,45.73ZM588.67,223.67c.87-.06,1.67-.93,2.51-1.44l0-1c-.78-.57-1.58-1.59-2.35-1.58a2.91,2.91,0,0,0-2,1.81A1.69,1.69,0,0,0,588.67,223.67Zm-1.83-71.75a1.69,1.69,0,0,0,1.84,2.18c.86-.06,1.67-.93,2.5-1.44l0-1c-.78-.57-1.58-1.59-2.36-1.58A2.89,2.89,0,0,0,586.84,151.92Zm.67,161c.48.46,2,.63,2.37.26a3.49,3.49,0,0,0,.76-2.72c-.37-1.56-1.76-1.49-3.2-1.15A2.45,2.45,0,0,0,587.51,312.93Zm-.68-101.21a1.69,1.69,0,0,0,2,2c.86-.15,1.59-1.08,2.37-1.66l0-1c-.84-.5-1.72-1.45-2.49-1.38A2.94,2.94,0,0,0,586.83,211.72Zm4.35-10.53c-.83-.5-1.7-1.46-2.48-1.39a2.91,2.91,0,0,0-1.87,2,1.69,1.69,0,0,0,2,2c.86-.14,1.59-1.07,2.38-1.64Zm-2.51-7.33c.87-.07,1.68-.93,2.51-1.44l0-1c-.79-.57-1.58-1.6-2.36-1.59a2.87,2.87,0,0,0-2,1.81A1.69,1.69,0,0,0,588.67,193.86ZM460.78,179.79c.45,3.67,1.14,7.32,1.74,11,.27,1.63.56,3.26.84,4.89a2.06,2.06,0,0,0,.74-1.33c.75-4.57,1.76-9.12,2.17-13.72.36-4,2.51-6.13,5.83-7.52a47.77,47.77,0,0,1,5.28-1.7c1-.3,2.1-.47,3.16-.69a3.42,3.42,0,0,0-1.44-.68c-3.21-1.17-6.47-2.21-9.59-3.6a5.52,5.52,0,0,1-3-4.64q-.45-3.24-1-6.48c-.53-3.3-1.09-6.6-1.64-9.9l-.58,0c-.81,4.95-1.89,9.86-2.35,14.84-.39,4.21-2.71,6.43-6.26,7.84a47.24,47.24,0,0,1-4.73,1.49c-1.1.31-2.24.5-3.36.74a2.66,2.66,0,0,0,1.24.63c3.17,1.1,6.41,2,9.47,3.38C459.5,175.32,460.48,177.34,460.78,179.79Zm126.05-67.58a1.69,1.69,0,0,0,1.9,2.14c.86-.09,1.64-1,2.46-1.51,0-.32,0-.64,0-1-.8-.55-1.62-1.55-2.4-1.52A2.92,2.92,0,0,0,586.83,112.21Zm1.85,8.08a2.92,2.92,0,0,0-1.85,2,1.69,1.69,0,0,0,2,2c.86-.15,1.58-1.09,2.36-1.67l0-1C590.34,121.16,589.46,120.21,588.68,120.29Zm.16-19.87a2.87,2.87,0,0,0-2,1.82,1.69,1.69,0,0,0,1.85,2.17c.86-.07,1.66-1,2.49-1.46l0-1C590.42,101.42,589.62,100.4,588.84,100.42Zm-.12,39.75a2.93,2.93,0,0,0-1.89,1.94,1.69,1.69,0,0,0,2,2c.86-.12,1.6-1,2.4-1.61,0-.32,0-.64,0-1C590.36,141.07,589.5,140.11,588.72,140.17Zm-1.88,41.59a1.69,1.69,0,0,0,1.87,2.16c.86-.08,1.65-1,2.47-1.48l0-1c-.8-.56-1.61-1.57-2.39-1.54A2.86,2.86,0,0,0,586.84,181.76Zm4.35,109c-.81-.53-1.66-1.51-2.44-1.45a2.88,2.88,0,0,0-1.92,1.91,1.69,1.69,0,0,0,1.95,2.08c.86-.12,1.62-1,2.42-1.58Zm-4.36,10.35a1.69,1.69,0,0,0,1.91,2.12c.86-.09,1.64-1,2.45-1.52,0-.32,0-.64,0-1-.8-.54-1.63-1.53-2.41-1.49A2.9,2.9,0,0,0,586.83,301.06Zm4.35-50.19c-.84-.5-1.72-1.45-2.49-1.37a2.92,2.92,0,0,0-1.86,2,1.69,1.69,0,0,0,2,2c.85-.14,1.58-1.08,2.36-1.66ZM588.69,174c.86-.07,1.66-.94,2.49-1.46l0-1c-.79-.57-1.59-1.59-2.37-1.58a2.91,2.91,0,0,0-2,1.83A1.69,1.69,0,0,0,588.69,174Zm.06-9.94c.87-.1,1.63-1,2.44-1.54,0-.32,0-.64,0-1-.81-.54-1.65-1.53-2.42-1.49a2.91,2.91,0,0,0-1.95,1.89A1.68,1.68,0,0,0,588.75,164ZM576.68,371.1a2.42,2.42,0,0,0-2,.73c-.29.52.07,1.45.28,2.16.1.34.51.6.8.87a11.3,11.3,0,0,0,13.09,1.57,11.44,11.44,0,0,0,5.8-12.2,11.56,11.56,0,0,0-10-9.38,10.54,10.54,0,0,0-9.58,3.7,2.71,2.71,0,0,0-.34,2.3c.17.42,1.33.7,2,.63,3.39-.37,5.93,1.17,7.24,4.61C582.86,369.88,580.38,371.49,576.68,371.1Zm5-12c2.25-1.14,5.28-.37,7.37,1.85a7.27,7.27,0,0,1,1,9.12c-2,3.28-4.78,4.5-8.61,3.54C589.73,369.43,588.38,362.39,581.67,359.12Zm6.89-32.8c-.33-1.73-.77-4-3.15-4s-3,2.12-3.43,4c-.64,3.15-1,6.34-1.53,9.62a13.47,13.47,0,0,0-3.31-1.32c-1.12-.16-2.74-.11-3.37.57a3.78,3.78,0,0,0-.36,3.4,14.86,14.86,0,0,0,9.55,8.57c5.52,1.65,12.33-2.95,15.27-6.8.94-1.24,1.71-2.66.71-4.19s-2.75-1.48-4.3-1a48.27,48.27,0,0,0-4.59,1.9C589.57,333.47,589.23,329.87,588.56,326.32ZM575.65,337.5c.15-.23.31-.45.47-.67l4.91,2.9c.33,1.6.58,2.86.91,4.48C579,342.36,576.76,340.43,575.65,337.5Zm10.06,7.2c-2.32-3.05-2.28-15.47.13-19.38A39.83,39.83,0,0,1,585.71,344.7Zm9.82-7,.34.56c-1.67,2.68-4.25,4.28-7.43,6,.32-1.45.55-2.46.84-3.76ZM586.84,92.3a1.69,1.69,0,0,0,1.85,2.17c.86-.07,1.66-.94,2.49-1.46l0-1c-.79-.56-1.59-1.58-2.37-1.57A2.91,2.91,0,0,0,586.84,92.3Zm0,139.19a1.69,1.69,0,0,0,1.91,2.12c.86-.09,1.64-1,2.45-1.51v-1c-.8-.55-1.62-1.55-2.4-1.51A2.91,2.91,0,0,0,586.83,231.49Zm1.89,8.07a2.93,2.93,0,0,0-1.89,1.94,1.69,1.69,0,0,0,2,2.05c.86-.13,1.6-1.05,2.4-1.61l0-1C590.36,240.46,589.49,239.5,588.72,239.56Zm2.47,41.17c-.83-.52-1.69-1.48-2.47-1.42a2.91,2.91,0,0,0-1.89,1.95,1.69,1.69,0,0,0,2,2.05c.86-.13,1.6-1.05,2.4-1.62Zm-2.45-7.36c.86-.1,1.64-1,2.45-1.52,0-.32,0-.64,0-1-.8-.54-1.63-1.54-2.41-1.51a2.94,2.94,0,0,0-2,1.87A1.7,1.7,0,0,0,588.74,273.37Zm.09-13.93a2.9,2.9,0,0,0-2,1.83,1.69,1.69,0,0,0,1.86,2.16c.86-.07,1.66-.95,2.48-1.47l0-1C590.42,260.43,589.61,259.42,588.83,259.44Zm-2-127.32a1.68,1.68,0,0,0,1.92,2.1c.87-.1,1.63-1,2.44-1.54,0-.32,0-.64,0-1-.81-.54-1.65-1.53-2.43-1.49A2.94,2.94,0,0,0,586.83,132.12ZM525.35,494.7c.16,2,.62,4,.95,5.95l.39,0a38.27,38.27,0,0,0,.92-5.36c.09-3,1.9-4.13,4.4-4.79a18.89,18.89,0,0,0,1.91-.75c-1-.22-1.34-.29-1.72-.39-2.6-.7-4.58-1.85-4.62-5a31.37,31.37,0,0,0-.89-5.12,15.74,15.74,0,0,0-1.15,4.57c-.41,3.57-1.15,4.5-4.55,5.54l-1.86.59c1.17.36,1.85.55,2.52.78C523.63,491.31,525.16,492.3,525.35,494.7Zm-3.18,151a78,78,0,0,0,10-2c2.44-.76,2.57-3.14.39-4.51a12.66,12.66,0,0,0-4.41-1.62c-2.56-.48-5.18-.66-7.89-1a14.37,14.37,0,0,0,1.33-3.29c.17-1.14.23-2.83-.42-3.4a4,4,0,0,0-3.56-.45,14.82,14.82,0,0,0-8.49,9.39c-1.7,5.5,2.62,12.12,6.65,15.32,1.27,1,2.74,1.87,4.35.77s1.41-2.91.89-4.5-1.26-3-2-4.73A20.35,20.35,0,0,0,522.17,645.67Zm-2.49-14c-1.21,2.09-2.18,3.78-3.08,5.35l-4.22.85A10.54,10.54,0,0,1,519.68,631.69Zm-2,20.46-5.62-7.07.42-.54,3.37.74,2.77,6.29Zm-5.82-10.67c3-2.1,15.4-2,18.64.12C527.5,643.5,515.37,643.42,511.85,641.48Zm25.7-414.76-1.62-.45c-2.6-.71-4.58-1.86-4.61-5a31.16,31.16,0,0,0-.89-5l-.51,0a40.83,40.83,0,0,0-.72,4.63,5.11,5.11,0,0,1-4.38,5.28c-.54.12-1.05.33-1.88.6.74.27,1.15.46,1.59.58,3.62,1,4.19,1.67,4.65,5.38.19,1.54.5,3.07.76,4.6l.55-.09a54.26,54.26,0,0,0,.94-5.61,4.08,4.08,0,0,1,3.1-3.87ZM555.61,54.89c2.76,11.53,9.07,19.18,21.37,21.49v243l4.19-3.14V72.84c-12.57-2.27-21-8.48-21.86-22.2a14,14,0,0,0-1.4-.13c-38.95,0-77.91.08-116.86-.06-3.59,0-5.12,2.28-7.34,3.95.05.17.1.33.16.49Zm-67.8,570.3c2.52.37,4.36,1.49,5.07,4.07a2.87,2.87,0,0,0,.64,1.42,2.81,2.81,0,0,0,1.84.79c.46,0,1.06-.77,1.22-1.3a6.38,6.38,0,0,0-2.4-7.07c-2.59-1.71-5.37-3.13-8.5-1.31a9.47,9.47,0,0,0-4.18,11.69c1.12,3.18,3.28,5.5,5.79,7.65,3.1,2.65,5,6,4.64,10.26-.23,2.81-1.79,4.26-4.43,4.34-3.17.1-4.35-.84-4.89-3.93a4.44,4.44,0,0,0-.25-1.35c-.4-.7-.85-1.68-1.46-1.84a2.56,2.56,0,0,0-2.2.81,5.88,5.88,0,0,0-1.12,3.06,7.87,7.87,0,0,0,6.51,7.9c7.51,1.09,12.31-3,12.49-10.16a15.64,15.64,0,0,0-6.31-13.47,19.08,19.08,0,0,1-4.15-4.45C484.28,629.49,484.87,627.38,487.81,625.19ZM439.46,45.38c1.27.4,2.1-.65,2.15-1.93s-.49-2.19-2.39-2.6c-.59.77-1.7,1.59-1.63,2.28A3.24,3.24,0,0,0,439.46,45.38Zm37.61,589.69c2.53-7.7-3.3-14.58-11.28-13.22-1.51.26-3,.38-4.83.6-1.15,1.21-2.6,2.62-3.9,4.16a4.17,4.17,0,0,0-1,2.31,6,6,0,0,0,.8,2.17l.8.14.88-1.78.4.27c0,.3.06.6.05.89-.26,7.47-.54,14.94-.78,22.41a34.63,34.63,0,0,0,.19,4.55,2.42,2.42,0,0,0,2.42,2.42,2.49,2.49,0,0,0,2.71-2.35,15.7,15.7,0,0,0,.09-2.57c0-2.17,0-4.35,0-6.47C471.8,645.23,475.39,640.15,477.07,635.07Zm-13.44,8.11V626.55c2.71-1.41,5.55-1.26,7.37.41s2.4,4.36,1.27,7.29C470.69,638.37,467.18,642.11,463.63,643.18Zm123.2-560.7a1.69,1.69,0,0,0,2,2c.86-.13,1.6-1,2.4-1.61l0-1c-.82-.51-1.69-1.48-2.46-1.41A2.91,2.91,0,0,0,586.83,82.48ZM449.34,45.68l.94,0c.57-.79,1.6-1.6,1.58-2.38a2.92,2.92,0,0,0-1.87-2,1.68,1.68,0,0,0-2.1,1.95C448,44.14,448.83,44.89,449.34,45.68ZM415,76.1H355.6v49.76H415Zm-4.12,45.49H359.79V80.4H410.9Zm-99.12,74.25a21.84,21.84,0,0,0,.78,4,18.72,18.72,0,0,0,1.38-5.71c.12-2.24,1.37-3.31,3.25-4l2.6-.92c-.23-.24-.26-.3-.31-.32l-.57-.12c-2.9-.58-5-1.79-5.11-5.24a30.9,30.9,0,0,0-.85-4.81l-.52,0c-.33,1.93-.78,3.85-.95,5.8-.19,2.14-1.5,3.12-3.28,3.74-.79.28-1.62.45-2.65.73.44.27.69.53,1,.57C310.1,190.16,311.74,192.24,311.78,195.84ZM437.54,402.3l3.86,3.36c.85,3.29,3.48,4.43,5.74,2.46s4.56-3.91,6.77-5.81c2.14-.16,4-.85,4.06-3.12a10.84,10.84,0,0,1,3.79-7.88,4.66,4.66,0,0,0,1-2.1c.58-2.07.59-4.5,1.73-6.17,1.66-2.43,2.18-4.91,2.79-7.7,1.86-8.46,4.43-16.77,6.7-25.14.48-1.77.87-3.57,1.28-5.25,4-1.34,5-4.15,3.21-8.89.68-1.22,1.33-2.37,2-3.53a93.07,93.07,0,0,0,11.63-41.47,95.29,95.29,0,0,0-13.59-53.37,88.78,88.78,0,0,0-20.53-23.6,93.47,93.47,0,0,0-54-21.5,94.8,94.8,0,0,0-53,11.89,92.31,92.31,0,0,0-20.3,15.42c-9.32,9.16-15.76,20.14-20.29,32.32a4.2,4.2,0,0,0-.13.79,78.57,78.57,0,0,1,17.33-23l3.38,1.42c1.47,2.23,2.89,4.38,4.35,6.61.11,2.77.21,2.88,3.19,3.37l2.59,2.39-.39.37c.82.89,1.47,2.17,2.48,2.61a59.3,59.3,0,0,0,6.54,2.06c1.56,2.71,2.76,3.73,4,3.1,2.52-1.25,4.77.13,7,.17,3.1,4.37,5.8,4.27,8.4-.22l3.21-.59c3.18,1.58,4,1.34,6.48-2.36,1.83-.45,4.11-1,6.36-1.6a4.43,4.43,0,0,0,1.8-1.08c1.5-1.51,2.91-3.1,4.06-4.35,3.11-.12,3.08-.13,4.09-2.6a4.52,4.52,0,0,1,1.05-1.39,78.57,78.57,0,0,0,16.11-22.26c.36-.74.75-1.47,1.13-2.21l.48.09c0,44.15,1.18,88.23,7,132-2,2.69-1.56,3.52.89,5.83.49,2.91,1,5.91,1.49,8.83-1.82,3.27-1.64,4.22,1.21,6.26.43,2,.88,4.16,1.37,6.41a76.53,76.53,0,0,1-27.41,7.82A94,94,0,0,0,426.89,377c.73,2.55,1.36,4.77,2,6.94-2.94,3.41-1.87,6,2.13,6.29.87,2,1.77,3.94,2.63,5.95a2.47,2.47,0,0,1,0,1C433.46,400.89,434,401.57,437.54,402.3ZM411.8,211a67.28,67.28,0,0,1-16.16,24.27,18.75,18.75,0,0,1-3.12,1.92,4.92,4.92,0,0,0-.95.67c-1.53,1.56-3,3.14-4.42,4.58-2.79-.62-4.31.39-5.19,2.47L378,246.59c-3.69-1.69-4.3-1.51-6.06,1.7l-3.11.54c-3.24-2.34-4.38-2.37-7.42.17l-4.63-.6c-2.13-3.08-2.67-3.26-5.9-1.94-.67-.3-1.46-.63-2.22-1s-1.39-.76-2.24-1.22c-.32-2.19-1.71-2.77-4.06-2.49-.88-1.19-1.87-2.53-2.87-3.86-.23-.32-.46-.73-.78-.86-3-1.26-3.92-4.31-5.39-6,.59-2.51,1.07-4.49,1.75-7.37,22-16.78,47.26-23.08,75.48-17,.27.62.49,1.16.75,1.68s.53.91.86,1.47C412.06,210.16,412,210.61,411.8,211Zm-11.1-10.88a88.57,88.57,0,0,0-27.85,1.13c-.51.09-1,.14-1.91.27,8.22-3.51,28.95-7,50-1.09a87.3,87.3,0,0,1,42.4,25.92c35.19,39,26.3,88.78,6.52,113.51,2.46-5.67,5.83-12.3,8.25-19.26,5.83-16.75,6.24-33.85,2.1-51.08a.65.65,0,0,1,0-.19c.79-6.45-3.81-11.09-5.89-16.52a66.43,66.43,0,0,0-9-15.59,92.47,92.47,0,0,0-44.55-32.69A31.22,31.22,0,0,1,417.6,203a6.43,6.43,0,0,0-1.81-.75C410.77,201.52,405.74,200.8,400.7,200.15Zm15.15,11,2.93-2.12c26,9.18,43.5,27.25,53.89,52.49-2,4.86-2,4.95-.64,8.64-4,8.73-7.17,18.16-17,22.62-2.72-2.3-3.32-2.34-6.21-.22l-7-5.43c-.07-4.3-.38-4.73-4.28-5.67-.63-1.73-1.37-3.79-2.14-5.85a2.58,2.58,0,0,0-.64-1.19c-2.18-1.54-2.62-4-3.46-6.27-1.39-3.77-3.06-7.45-4.35-11.26a322.57,322.57,0,0,1-10.81-43.31C416,212.78,415.94,212,415.85,211.13Zm12,152.56c-.16-1-.43-2-.66-3-.48-2.18-1.1-4.34-1.42-6.54-.27-1.86-.2-3.77-.29-5.65a3,3,0,0,0-.07-1.18c-2.21-4.18-2.08-8.85-2.6-13.32-1.42-12.35-2.74-24.73-3.64-37.14-1-13.73-1.59-27.49-2.2-41.25-.39-8.53-.49-17.08-.72-25.62,0-.45,0-.9,0-1.72,1.71,7,3.18,13.62,5,20.17,1.59,5.73,3.59,11.35,5.38,17a4.14,4.14,0,0,1,.31,2.07c-.49,1.83-.07,3,2.42,3.51.28,1.84.68,3.77.85,5.72a2.78,2.78,0,0,0,2.65,2.66l2.43,4.09c-.43,4.28.24,5.18,4.41,5.23.68,1.24,1.62,2.69,2.29,4.25.79,1.83,1.73,2.23,4.21,1.4l1.78.7c2.31,3.79,4.49,3.91,7.07.34l1.95-.75c2.5,1.18,3.77.95,4.12-1.88,2.71-3.88,5.23-7.06,7.25-10.52s3.54-7.22,5.35-11l2,.51A87.36,87.36,0,0,1,471.52,325c-8.3,20.55-23,35.35-42.59,46.37C428.55,368.57,428.23,366.13,427.86,363.69Zm2.2,12.24a99.42,99.42,0,0,0,23.16-12.37,93.81,93.81,0,0,0,18.66-18l.7.34c-2.51,8.69-5,17.39-7.56,26.07-.55,1.85-1.06,3.68-2.75,5.1-.78.67-.61,2.46-.87,3.74l.5.13-1.9,4.64c-3,1.52-3.19,1.95-2.64,5.41l-2.25,4c-2.73.27-3.52,2.13-3.37,4.84l-3.57,3c-1.83-1.53-3.63-2-5.62-.4l-2.37-2.25c0-4.31-.32-4.85-3.9-6.07C434.29,388.29,432.21,382.2,430.06,375.93ZM370.94,108.21a12.88,12.88,0,0,0,2.8.58c-.81,1.94-1.56,3.69-2.26,5.46-.5,1.24-1.14,2.68.62,3.37,1.57.61,2.22-.68,2.74-1.88,1-2.3,2-4.61,2.92-6.82h13.75c.87,2.49,1.66,4.8,2.46,7.11.4,1.16,1,2.11,2.45,1.71s1.42-1.66,1-2.77q-5.06-13.89-10.21-27.73c-.3-.8-1.15-1.4-2.09-2.5-4.19,6.64-6.53,13.54-9.76,20.23a30.24,30.24,0,0,0-4.25.34c-.62.13-1.11.88-1.67,1.36C370,107.2,370.34,107.92,370.94,108.21Zm14.51-18.35c1.65,5.22,3.2,10.09,4.78,15.07H379.42ZM519.08,45.71l1,0c.51-.82,1.47-1.69,1.4-2.46a2.94,2.94,0,0,0-2-1.88,1.66,1.66,0,0,0-2,2C517.58,44.18,518.51,44.92,519.08,45.71Zm19.71,0,.89,0c.59-.73,1.5-1.39,1.68-2.21.29-1.26-.55-2.15-1.89-2.24a1.8,1.8,0,0,0-2.13,2C537.42,44.13,538.28,44.89,538.79,45.68Zm-8.93,0c.55-.76,1.43-1.46,1.57-2.29a1.69,1.69,0,0,0-2-2.07,2.91,2.91,0,0,0-2,1.87c-.06.79.93,1.65,1.46,2.48Zm40.45,16.18C574,65.62,579,66.35,584.07,66c1.61-.11,3.23-.57,3.6-2.5s-.92-3-2.37-3.72-3.23-1.35-4.54-1.88c2.23-2.84,4.61-5.66,6.72-8.66,1-1.45,2.32-3.38.61-5s-3.68-.64-5.29.41c-2.69,1.77-5.23,3.76-7.9,5.7a13.8,13.8,0,0,0-1.36-3.42c-.67-.9-1.87-2-2.8-2a3.54,3.54,0,0,0-2.61,2.17,26.82,26.82,0,0,0-.77,8.52A11.42,11.42,0,0,0,570.31,61.89Zm14.07.38c-.06.22-.13.43-.19.65-3.16.57-6.2-.14-9.65-1.19l3.32-2.12Zm1.37-16c-.2,3.39-9.28,12.29-14,13.61A37.94,37.94,0,0,1,585.75,46.32Zm-15.16,1.26q3.82,4.29-.64,9.31C569.31,53.61,569.07,50.58,570.59,47.58ZM548.81,45.7l.89,0c.56-.75,1.45-1.43,1.61-2.26.24-1.27-.63-2.13-2-2.18a1.8,1.8,0,0,0-2.07,2.08C547.38,44.19,548.27,44.92,548.81,45.7Zm-78.61,0c.56-.75,1.44-1.45,1.6-2.27a1.7,1.7,0,0,0-2-2.1,2.91,2.91,0,0,0-2,1.85c-.06.79.92,1.66,1.44,2.5Zm-10.88,0,.9,0c.57-.75,1.47-1.42,1.64-2.24.26-1.27-.59-2.14-1.94-2.21a1.79,1.79,0,0,0-2.09,2.06C457.93,44.17,458.8,44.91,459.32,45.69Zm49.7,0,.94,0c.55-.81,1.57-1.64,1.54-2.42a2.94,2.94,0,0,0-1.91-1.95,1.68,1.68,0,0,0-2.07,2C507.62,44.17,508.49,44.91,509,45.69Zm-28.8,0c.53-.77,1.39-1.49,1.52-2.32a1.69,1.69,0,0,0-2-2,2.89,2.89,0,0,0-1.95,1.91c0,.79,1,1.63,1.52,2.45Zm10,0c.5-.84,1.35-1.64,1.41-2.51a1.68,1.68,0,0,0-2.17-1.83,2.89,2.89,0,0,0-1.81,2c0,.79,1,1.58,1.61,2.36Zm9.89,0c.52-.82,1.38-1.61,1.46-2.47a1.68,1.68,0,0,0-2.14-1.87,2.86,2.86,0,0,0-1.83,2c0,.78,1,1.59,1.55,2.38ZM182.71,434.52c-1.46,0-2,1.06-2,2.41a2,2,0,0,0,2.21,2.22,1.84,1.84,0,0,0,2-2.16C184.83,435.59,184.23,434.52,182.71,434.52Zm296.1,268.34a2.84,2.84,0,0,0-1.89,1.93,1.66,1.66,0,0,0,2,2c.87-.18,1.6-1.06,2.4-1.63,0-.31,0-.62,0-.93C480.47,703.72,479.59,702.78,478.81,702.86Zm20.52-.45-.95,0c-.55.82-1.57,1.65-1.53,2.44s1.13,1.75,1.92,1.93a1.69,1.69,0,0,0,2.05-2C500.7,703.91,499.85,703.19,499.33,702.41Zm-60.57.23a2,2,0,0,0-2,2.39c.12.8,1,1.48,1.32,1.86,2.14,0,2.74-.87,2.75-2.11A1.89,1.89,0,0,0,438.76,702.64Zm50.14.16a1.68,1.68,0,0,0-2,2,2.82,2.82,0,0,0,2,1.88c.8,0,1.63-1,2.45-1.53,0-.3,0-.6,0-.91C490.48,703.76,489.74,702.94,488.9,702.8Zm-39.26-.39-.95,0c-.56.81-1.57,1.65-1.54,2.43a2.91,2.91,0,0,0,1.92,1.94,1.7,1.7,0,0,0,2.06-2C451,703.91,450.16,703.19,449.64,702.41Zm9.84,0-1,0c-.53.82-1.5,1.68-1.44,2.46a2.88,2.88,0,0,0,1.92,1.89,1.68,1.68,0,0,0,2.05-2C460.93,703.94,460,703.19,459.48,702.39Zm10.1,0-.95,0c-.58.8-1.62,1.61-1.6,2.4s1.09,1.78,1.87,2a1.69,1.69,0,0,0,2.1-2C470.91,704,470.08,703.21,469.58,702.42Zm69,.39a2.94,2.94,0,0,0-2,1.86c-.08.78.88,1.65,1.39,2.49.32,0,.64,0,.95,0,.58-.8,1.49-1.53,1.64-2.39A1.65,1.65,0,0,0,538.57,702.81Zm10.35-.42-.94,0c-.53.84-1.51,1.71-1.44,2.5a2.9,2.9,0,0,0,2,1.84,1.68,1.68,0,0,0,2-2.09C550.36,703.84,549.48,703.14,548.92,702.39Zm31.45-280.53-4.27-3.09v253c-12.28,2.35-18.63,10-21.31,21.66h-122c2.47,2.92,5,4.57,8.86,4.26,4.68-.36,9.4-.09,14.1-.08l101.37,0a11.55,11.55,0,0,0,1.38-.17c1-13.77,9.38-19.91,21.86-22.15ZM519.2,702.41h-1c-.55.81-1.55,1.63-1.52,2.41s1.08,1.74,1.86,2a1.67,1.67,0,0,0,2.11-1.9C520.6,704,519.72,703.22,519.2,702.41Zm9.07,0c-.59.79-1.62,1.57-1.62,2.36a2.87,2.87,0,0,0,1.8,2,1.68,1.68,0,0,0,2.18-1.82c-.06-.86-.91-1.67-1.4-2.5Zm-19.95,0c-.56.8-1.56,1.61-1.54,2.39a2.88,2.88,0,0,0,1.85,2,1.68,1.68,0,0,0,2.12-1.89c-.09-.86-1-1.64-1.48-2.46ZM393.45,691a2.93,2.93,0,0,0-2.42-.63c-.48.19-.79,1.51-.71,2.28.33,3.34-1.57,6-5.21,7-3.46-1.45-4.83-3.82-4.47-7.34.07-.62-.18-1.64-.6-1.85a2.92,2.92,0,0,0-2.16.13,4.19,4.19,0,0,0-1.43,1.33,11.48,11.48,0,1,0,18.42,13.7C398.1,701,397.5,694.38,393.45,691ZM390,705.21c-3.08,2.2-6.27,2.22-9.17,0a6.87,6.87,0,0,1-2.65-8c3.64,6.94,10.37,7.93,14.57,0A6.64,6.64,0,0,1,390,705.21Zm-32.6-16.29a3.52,3.52,0,0,0-3.07.48,3.85,3.85,0,0,0-.66,3A16.9,16.9,0,0,0,355,696c-3.52.61-7,1.09-10.38,1.84-1.55.34-3.14,1.18-3.22,3.06-.09,2,1.67,2.48,3.15,3.05a7,7,0,0,0,1.72.48c3.27.41,6.55.78,9.91,1.17-.63,1.55-1.44,3.21-2,5-.43,1.42-.44,2.95,1,3.95a3,3,0,0,0,4-.54,41.2,41.2,0,0,0,5.65-6.82C369.83,699,363.4,691.25,357.37,688.92Zm0,22.63-.56-.29,2.71-6.3,3.73-.89A17.22,17.22,0,0,1,357.37,711.55Zm-12.82-9.95c3.21-2.46,15.55-2.63,19.43-.33C357.4,703.11,351.17,702.9,344.55,701.6Zm11.92-10.19.6-.45,6.57,6.18C359,697.78,356.6,694.77,356.47,691.41Zm13-61.88-.42,0c0-.13,0-.26,0-.39-.13-3.6-2.42-7-5.21-7.73s-5.33,1-7.64,4.23c-3.57,5-4,10.63-4,16.31s1.23,10.92,5.19,15.26c2.81,3.08,6.38,3.2,9.05,0a17.66,17.66,0,0,0,2.84-4.95c2.43-6.49,2.6-13.2,1.47-20A11,11,0,0,0,369.48,629.53Zm-4.66,22.08a30.87,30.87,0,0,1-2.83,4.16c-1.11-1.46-2.11-2.3-2.5-3.36a32.75,32.75,0,0,1,.62-24.72,6.32,6.32,0,0,1,.71-1.2c1.49-2.13,2.8-2.16,4.29,0,.79,1.14,1.43,2.37,1.93,3.21,0,1.67-.11,3,0,4.25C367.66,640,367.33,646,364.82,651.61ZM338.15,381.16c3.89-5.72,5.09-12.11,5.19-20a40.66,40.66,0,0,0-4.24-17.6,20.52,20.52,0,0,0-6.91-8.29c-3.46-2.28-7.06-2.5-10.32.05a22.45,22.45,0,0,0-5.74,6.17c-6.21,10.8-7.12,22.26-3.25,34.05a24.64,24.64,0,0,0,3.07,5.74C321,388.84,333,388.77,338.15,381.16Zm-17.44-15.51.33-.25c1.63,2.44,3.25,4.89,5.06,7.63.21-7.61.42-15,.62-22.43l.87,0c.84,7.88.17,15.79-.1,24.2,2-3.55,3.77-6.67,5.52-9.79l.54.3L327,379.9C324.9,375.11,322.81,370.38,320.71,365.65Zm-1.26,11.15A49.16,49.16,0,0,1,316,365.72a34.29,34.29,0,0,1,3.87-22.1c1.63-2.87,3.74-5.29,7.09-6.37a11.23,11.23,0,0,1,6.65,5.64c5.86,10.65,6.36,21.65,1.56,32.82a11.13,11.13,0,0,1-5.12,5.64l-.66-.43c1.67-3.4,3.42-6.76,5-10.22a38.75,38.75,0,0,0,2.4-6.86c.2-.87-.4-2.65-1-2.82-.92-.26-2.16.39-3.2.84-.56.24-1,.85-1.59,1.44-.65-6.09,1-12.49-3.84-18.24-1,1.29-2.25,2.13-2.51,3.19a70.87,70.87,0,0,0-1.45,9c-.2,1.93,0,3.91,0,6.12a25.67,25.67,0,0,0-2.68-2.15c-1.88-1.12-3.47-.33-3.26,1.82a21.44,21.44,0,0,0,1.66,6.23c1.75,4,3.76,8,5.83,12.32A8.27,8.27,0,0,1,319.45,376.8Zm10.59,328c0,1.25.63,2.3,2,2.06a8.44,8.44,0,0,0,2.41-1.29c0-.33.05-.65.07-1-.82-.65-1.56-1.67-2.49-1.87C330.77,702.42,330,703.5,330,704.78ZM447.9,655.63a39.85,39.85,0,0,0,2.22-6.14c1.87-7.3,2-14.79,2-22.27a31.61,31.61,0,0,0-.23-3.37c-.12-1.29-.62-2.4-2.09-2.46s-2.16,1.06-2.31,2.43a31.63,31.63,0,0,0-.25,3.37c-.07,5,0,9.93-.18,14.88-.14,4.19-.58,8.39-3.24,11.87a17.25,17.25,0,0,1-3.15,2.62c-4.26-2-5.44-5.31-5.7-9-.39-5.67-.53-11.36-.86-17a41.44,41.44,0,0,0-.79-6.68,2.71,2.71,0,0,0-2-1.61c-.57,0-1.3,1-1.82,1.7-.24.32-.17.89-.21,1.35a105.16,105.16,0,0,0,.31,22.78,18.2,18.2,0,0,0,3.23,8.83C436,661.12,444.79,662.75,447.9,655.63ZM313.11,459.87a3.2,3.2,0,0,0-3.1,3.4,3.13,3.13,0,0,0,3,3.29,3.36,3.36,0,0,0,3.49-3.28A3.4,3.4,0,0,0,313.11,459.87ZM194.6,671.7V418.81l-4.14,3.1V675.27c12.58,2.3,21,8.45,21.85,22.18a14.86,14.86,0,0,0,1.51.14c38.76,0,77.51-.07,116.27.07,3.66,0,5.59-1.94,8.17-4.35H216C213.32,681.61,206.86,673.92,194.6,671.7ZM423.25,654a2.86,2.86,0,0,0-.55-2.72c-.59-.44-1.95-.19-2.81.15-.66.25-1.06,1.14-1.6,1.72-3.5,3.77-7.52,3.34-10-1.14a20.35,20.35,0,0,1-2.22-13.27c.54-3.65,1.6-7.13,4.16-9.92,2.86-3.12,6.3-3.08,9.07.05a26.74,26.74,0,0,0,2.25,2.76,2.58,2.58,0,0,0,2.2.6c.52-.28.73-1.39.81-2.16a3.72,3.72,0,0,0-.56-1.67c-3.28-7-11.46-8.06-16.8-2a23.81,23.81,0,0,0-5.68,14.83c0,7.38,1.67,12.53,4.82,15.84C412.11,663.11,419.74,660.4,423.25,654ZM321.81,702.79c-1.31-.24-2.15.68-2.13,2s.87,2.24,2.16,2c.84-.16,1.55-1,2.31-1.57v-.86C323.37,703.8,322.65,703,321.81,702.79ZM579.94,690.2c1.31-.52,2.9-1,4.36-1.75s3-1.92,2.54-4c-.45-1.87-2.15-2.4-3.74-2.32a40.57,40.57,0,0,0-8.39,1.06c-8.92,2.38-10,12.08-7.27,18.17a3.68,3.68,0,0,0,2.68,1.84c.83,0,2-1,2.51-1.79a18,18,0,0,0,1.5-3.6c2.62,1.91,5.16,3.91,7.86,5.67,1.59,1.06,3.63,2.06,5.29.45s.36-3.71-.69-5.2C584.52,695.77,582.17,693,579.94,690.2Zm3.4-5c.06.23.13.46.19.68l-6.43,2.61-3.32-2.07C577.15,685.29,580.17,684.64,583.34,685.2Zm-13.48,15.4c-1.64-3.1-1.3-6.13-.72-9.48C572.64,694.8,572,697,569.86,700.6Zm1.49-12.1c4.18,1,12.78,9.27,13.84,13.37A35,35,0,0,1,571.35,688.5ZM391.21,523.81a49,49,0,0,0,5,2.79c5.5,2.28,11.06,4.45,16.61,6.59,1.59.61,2.23,0,2.75-1.81.89-3.09,1.95-6.14,2.94-9.2.39-1.2.83-2.38,1.14-3.59,1.87-7.28.65-13.66-5.51-18.58a20.24,20.24,0,0,1-1.82-1.88c8.58.34,15.37-3.58,21.83-8.05,3.9-2.69,7.41-5.94,11.07-9,2.37-2,2.53-2.93.63-5.31-5.57-7-10.9-14.33-20.18-16.27,1.06-3.73,2.25-7.29,3.05-10.94.86-3.88,1.39-7.82,3.42-11.35.34-.57.05-1.51.05-2.37-1.1-.08-1.75-.15-2.4-.18-5.95-.25-11.91-.47-17.86-.74s-11.35.58-15.89,5c-1.34-1.7-2.68-3.34-3.94-5-1.07-1.44-2.28-2-3.9-.87a10.11,10.11,0,0,1-1.06.55c-.83-3.77-3.14-6.39-5.55-9-3.74-4-8.27-7.29-10.74-12.4-.63-1.29-2-1.16-2.89,0a29.49,29.49,0,0,1-2,2.44c-3.42,3.49-7.15,6.73-10.25,10.49-3.83,4.66-5.63,10.14-4.41,16.31.2,1,.28,2.05.38,2.81l-9.82,1.55a69,69,0,0,1-1.19-8.11c-.26-6.82-.46-13.65-.24-20.46.1-3.23,1.11-6.46,1.94-9.63a4.45,4.45,0,0,1,2-2.24c4.57-2.93,9.2-5.71,12.67-10.08,5.12-6.42,9.1-13.31,10.06-20.54,2.46-2.59,4.92-4.23,6-6.51,4.26-8.93,7.08-18.31,6.15-28.36-.37-4.08-1.3-8.16-5.13-10.88.68-2.33,1.2-4.74,2.09-7,1.46-3.69,3.26-7.24,4.72-10.93,2.16-5.44,2.3-8.19-4.17-11.32a29.63,29.63,0,0,0-5.05-1.77A134.66,134.66,0,0,0,345.88,294c-19.1-1.46-38.13-1-57,2.49-4.75.87-9.52,1.85-13.72,4.43-3.23,2-3.94,3.85-2.95,7.51a23.78,23.78,0,0,0,1.56,4.25,67.83,67.83,0,0,1,6,16.47c-3.77,2.76-4.57,6.84-5.07,10.92-1,8.27,1.59,16,4.06,23.68,1.39,4.34,3.56,8.16,7.88,9.94.49,2.07.78,4,1.39,5.78,3.85,11.4,10.9,20.16,21.55,25.92.66.36,1.51.87,1.71,1.5.89,2.75,2.15,5.55,2.23,8.36.21,7.88.18,15.78-.28,23.64-.39,6.56-2.43,12.65-8,16.87-1.79,1.35-3.74,2.49-5.64,3.7-3.75,2.41-5.32,5.85-4.52,10.2a16.54,16.54,0,0,0,1.82,5c3,5.45,7.86,8.88,13.5,11.21,2.43,1,5,1.69,7.56,2.55a1.17,1.17,0,0,1,0,.3c-6.69,11.08-8.92,23.38-9.7,36,0,.78.81,1.6,1.24,2.4.74-.42,1.77-.66,2.16-1.3a11.79,11.79,0,0,1,10.51-5.73,69.26,69.26,0,0,1,10.24.95c7.95,1.09,16,3.56,23.39-1.94a7.29,7.29,0,0,1,.58.77c3,5.57,6.1,11.14,9.09,16.75,1.19,2.26,1.88,2.45,3.92,1a9.05,9.05,0,0,1,3-1.52C380,534.14,386,529.66,391.21,523.81Zm40.65-58.23c2,1.88,3.93,3.93,5.8,6s3.8,4.4,5.76,6.69c-6.29,6.53-13.39,12.44-22.31,15-6.81,1.95-13.93,1.54-20.13-2.93-3-2.19-6.11-4.36-9.55-6.81l2.91-.94a26.31,26.31,0,0,0,12.73,7.07,24,24,0,0,0,11.79.08,14.51,14.51,0,0,0,7.4-5.08c2.2-2.62,4.6-5.09,7-7.51,1.74-1.74,1.73-2.63-.27-4.07-3.69-2.68-7.34-5.42-11-8.16l2.29-3.23A16.21,16.21,0,0,1,431.86,465.58Zm-14.58,8.8c-6.72-1.07-13.45-2.08-20.87-1.36,2.81-2.49,4.95-4.9,7.57-6.58a11.8,11.8,0,0,1,12.3-.47,64.31,64.31,0,0,1,6.36,4c2.53,1.69,5,3.43,6.68,4.58-2.14,2.58-4.26,5.39-6.65,8a12.58,12.58,0,0,1-12.59,4c-6.17-1.34-11.24-4.88-16.57-7.93a6.93,6.93,0,0,1-1.36-1.43c3.47-2,7.14-1,10.64-1.23s7,.12,10.52.08a26.63,26.63,0,0,0,4-.65ZM398.8,444.63c-.4-1.05-.76-2.11-1.2-3.34,2.15-3.26,5.58-3.86,8.88-4.27a57.32,57.32,0,0,1,8.89-.07c4.15.12,8.3.36,12.73.57-2.32,7.33-4.57,14.62-7,21.87a16.22,16.22,0,0,1-2.29,3.48,38.88,38.88,0,0,0-4.72-1.49c-4.83-.85-9.37-.26-13.12,3.27-1.35,1.27-2.62,2.63-4,3.89a9.91,9.91,0,0,1-6.22,3c1.4-1.84,4.18-2.86,3.05-6.07,3.77-2.9,7.49-5.88,11.34-8.67s7.72-5.3,11.59-7.94l-.45-1c-1.3.33-2.79.36-3.86,1.05-5.43,3.51-10.85,7.07-16.08,10.87-2.61,1.89-4.79,4.36-7.19,6.54-1,.92-2.09,1.77-3.41,2.88.06-3.45,1-6.11,3.16-8.24a37.13,37.13,0,0,1,3.06-2.51c1.35-1.06,2.79-2,4.05-3.19C399.19,452.3,400.37,448.81,398.8,444.63Zm-9.23-8.18c2,3.54,3.95,7.1,5.95,10.64a4.35,4.35,0,0,1-.61,5.34,55.21,55.21,0,0,1-4.25,4.12,56.73,56.73,0,0,0-5.78,5.92l-3,1a61.18,61.18,0,0,1,2-18.68l-.61-.27a8.41,8.41,0,0,0-1.46,2.09c-2,6.81-3.82,13.64-1.65,20.81a25.3,25.3,0,0,1,.57,4.1l-.32.23c-.84-1.55-1.6-3.14-2.55-4.63-1.88-2.95-3.84-5.87-5.82-8.76-3-4.46-2.47-10.13,1.74-13.5a46.63,46.63,0,0,1,7.35-4.63C383.73,438.86,386.53,437.8,389.57,436.45Zm-19.28,54.12q4.62-5.24,9.25-10.48l.25.26c-.73,4.07-1.75,8.12-2.12,12.22s-.08,8.15-.08,12.72a7.66,7.66,0,0,1-2.39.17c-3.81-.75-7.6-1.65-11.05-2.42,1.06-7.49,2.05-15.06,3.26-22.61.59-3.68,1.09-3.9,4.83-4.11,1.77-.1,3.55-.35,5.33-.44a15.6,15.6,0,0,1,2.5.31c-4.5,4.37-8.32,8.5-10.66,13.66ZM361,425.46c2.92-2.58,5.75-5.26,8.48-7.77l15.84,17c-6.19,3.32-13,4.5-16.9,10.27l-.65-.19q.9-6.11,1.79-12.21l-.51-.32a10.42,10.42,0,0,0-1.56,2.12,26.1,26.1,0,0,0-1.65,15.17c.3,1.42.59,2.85.75,4.29a16.29,16.29,0,0,0,3.28,8.18,13.12,13.12,0,0,1,2.18,4c-1-1.32-2-2.61-3-3.95-2.44-3.38-4.7-6.91-7.32-10.14-1.81-2.24-4.1-4.08-6.75-6.65C352.44,437,353.49,432.06,361,425.46Zm-17.32,24.86c4.59-3.12,8.84-2.55,12.66,1.48,2.27,2.39,4.31,5,6.36,7.61,3,3.82,6,7.7,8.9,11.48-7.24.89-14.67-.74-22.19-1.58,2.24,2.48,5.34,2.62,8.16,3.33s5.94,1.14,8.43,1.6c-1.14,3.47-2.31,7-3.58,10.94-4.44,1.51-9.37,2.47-14.4,1.1a12.31,12.31,0,0,1-9.55-11c-.73-5.95-2.38-11.38-6.88-15.86C335.68,456.32,339.53,453.12,343.66,450.32Zm-7.89-12.24c-4.34,3.05-13.39,3-17.49,0-.19-5.18-.44-10.46-.55-15.75-.1-4.82.11-9.67-2.52-14.79,8,3.21,15.46,3.31,23.05.16-.6,2.38-1.45,4.43-1.57,6.52-.44,7.33-.64,14.67-.92,22C335.75,436.91,335.77,437.56,335.77,438.08ZM317.91,399l8.07,1.09c-.11,1.36-.21,2.65-.31,4H321ZM329,404.31v-4.15l7-.88c-.67,1.57-1.26,2.93-2,4.69Zm9-1.8c.46-1.46.84-2.71,1.27-4.08l4.3-1.44C342.92,400.61,341.92,401.62,338,402.51Zm9.08-3.9-.35-.3.63-2.86,6.54-3.64.35.42Zm21.22-30.78c-.67-4.58-1.3-8.86-1.92-13.14l.76-.14,2,9.95.5.18,5.37-18.4C376.34,350.1,371.66,365,368.28,367.83Zm6.12-28.62a2.23,2.23,0,0,1-.28,1.68c-3,3.46-3.4,7.82-4.29,12-.1.51-.22,1-.46,2.12-.47-1.51-.74-2.52-1.11-3.49-.46-1.22-.8-2.82-2.56-2.46s-1.46,2-1.35,3.15c.48,4.93,1.13,9.84,1.73,14.76.05.44.18.88.34,1.58l-2,.34a14.32,14.32,0,0,1-.77-2c-2.27-9.65-2.15-19.14,1.8-28.42A13.52,13.52,0,0,1,371,331.9c.66.7,1.71,1.38,2.1,2.33A25.07,25.07,0,0,1,374.4,339.21Zm-.81-22.94-8,3c.27-1.26.47-2.22.62-2.94l9.67-4.36Zm-95-11.61a50.46,50.46,0,0,1,16.83-4.42c10.21-1.08,20.45-2.49,30.67-2.44,14.68.07,29.41.88,43.72,4.8a44.44,44.44,0,0,1,6.09,2.39,15.77,15.77,0,0,1,2.44,1.82c-2.13,1.05-3.76,2-5.51,2.7-9.16,3.56-18.8,4.82-28.49,6-17.08,2.08-34,.79-50.79-2.42a110.57,110.57,0,0,1-13.31-3.91,34.56,34.56,0,0,1-4.71-2.43A26.15,26.15,0,0,1,278.63,304.66Zm84.69,12.22c-.26,1.25-.47,2.25-.73,3.48l-10.37,2.23c.18-1.29.3-2.18.45-3.24Zm-13.23,2.68c-.29,1.37-.52,2.44-.83,3.88l-9,1.13c.26-1.69.43-2.85.64-4.3Zm-11.5.93c-.29,1.4-.57,2.73-.87,4.15h-9.11V321Zm-12.78.24v3.86h-8.46l-1.44-3.86ZM314.3,324l-8.62-1.05-1.2-3.11,9,.58C313.74,321.52,314,322.6,314.3,324Zm-11.91-1.2-11-2.61L290,316.4l11.3,3C301.65,320.36,301.94,321.3,302.39,322.79Zm-24.53-11.22,9.43,4.32c.23.74.56,1.8,1,3.22C283.73,317.54,279.27,316.68,277.86,311.57Zm7.41,55.56-.64.31a14.09,14.09,0,0,1-1.92-3c-1.43-4.52-2.73-9.08-4-13.65-.45-1.61-.63-3.3-.93-4.95l.73-.18,5.19,18.85.61-.08,2.79-9.88.69.17Q286.53,360.91,285.27,367.13Zm4.3,1.72-1.86-.18c.54-3.42,1.16-6.65,1.53-9.9a52.57,52.57,0,0,0,.28-7.53c0-.76-.93-1.5-1.42-2.25-.71.59-1.65,1.06-2.06,1.81a25.87,25.87,0,0,0-1.45,4.25,59,59,0,0,0-1.37-6.39,44.19,44.19,0,0,0-3.11-7.2c-1.49-2.67.4-8.53,3.25-9.32,4.79,3,6.06,8,7.3,12.95a44.93,44.93,0,0,1-.34,21.83A15.14,15.14,0,0,1,289.57,368.85ZM308,398.91l-5.85-4.9c.09-.11.17-.23.26-.35l5.25,2.57c.23.7.48,1.49.74,2.28Zm-5.22-9c-5.57-3.51-9.92-8.3-12-14.77-.12-.36-.19-.75-.31-1.26,3.21-1,4.36-3.44,4.84-6.44,1.78-11.16,1.21-22.05-3.95-32.35a15.49,15.49,0,0,0-3.09-4.32c-1-1-2.6-1.36-3.82-1.95-.71-2.79-1.44-5.63-2.21-8.6,14.48,5.46,29.47,7.43,44.78,7.42s30.33-1.91,44.86-7.45c-.77,3-1.5,5.8-2.3,8.9-4.06.24-5.76,3.59-7.34,7-4.17,9-5.07,18.41-3.87,28.13.14,1.12.31,2.23.47,3.35.42,2.94,1.63,5.31,4.92,6.33a22.37,22.37,0,0,1-1.25,3.39c-2.77,4.79-5.89,9.26-10.84,12.15-7.78,4.55-15.93,7.93-25.12,7.54A47.78,47.78,0,0,1,302.75,389.94Zm7.73,7.15,5.35,1.47,1.22,4.22C313.18,402.5,311.43,401,310.48,397.09Zm-9.58,67.18c.69,2,1.38,4.11,2.18,6.5l-1.81,1.71C298.14,470.05,297.89,466.24,300.9,464.27Zm6.62,14.37-5.12-3.95,2.22-2.73c.93.71,1.69,1.34,2.51,1.88s1.61.9,2.6,1.44Zm9.12,3.6L310,479.91l1.79-3.53,6.13,1.76C317.46,479.5,317.09,480.74,316.64,482.24Zm-7-10.58c-3-1.62-5.5-3.9-5.11-7.77a4.71,4.71,0,0,1,1.54-3c4.86-3.86,9.11-8.11,10.64-14.4.31-1.27.63-2.53,1-3.84,6.16,3.05,12.33,3,18.78.91l1.56,5.46c-2.9,2.24-5.81,4.5-8.74,6.73-.63.48-1.38.81-2,1.31-1.37,1.15-1.16,2.3.26,3.37s2.67,2.42,4.07,3.71c-1.64,1.69-2.55,3.37-1.37,5.08.61.88,2.06,1.18,3.14,1.75l.55-.55.79,4.28a18.93,18.93,0,0,1-8.87,1.08C320.23,475.26,314.67,474.38,309.64,471.66Zm16.69,7.11c-.14,1-.24,1.71-.35,2.49l-3.07,2.07-3.76-.57c.27-1.41.52-2.69.78-4Zm-13.49,37.05c.17-8.76,3.55-15.87,6.88-23,2.39-5.14,6.52-8.39,11.56-10.62,1.66-.73,3.4-1.64,5.49-.46,3.05,5.33,8.2,7.5,14.35,8.39C335.43,494.05,323,502.8,312.84,515.82Zm7.8.59-4.77,1.44-.41-.37,7.63-8.78.55.37C322.63,511.54,321.63,514,320.64,516.41Zm3-.22c2.73-6.45,4.46-13.29,11.64-16.35-2.31,5.48-4.57,10.82-6.91,16.35Zm7.69.58a48.07,48.07,0,0,1,1.59-6.21c1.39-3.5,3.08-6.87,4.58-10.33,1.11-2.54,3.19-3.72,6-4.43-3.3,7-5.91,14-6.43,21.89Zm8.23,1.32a74.38,74.38,0,0,1,1.64-8.56c1.41-4.45,3.21-8.79,4.84-13.17.83-2.24,2.66-2.88,5-3.19-4.26,7.9-6.33,16.06-4.67,24.92Zm14.4-2.73L348.59,518c0-3.58-.48-6.81.12-9.82a128.23,128.23,0,0,1,3.9-13.28c.85-2.7,3-3.67,5.73-3.81C353.56,498.58,351.79,506.49,353.92,515.36Zm30.67,10.7c-4.46,2.68-8.58,6-13.93,7a7.71,7.71,0,0,0-1.89.8c-3.32-6.07-6.57-12-9.85-18a18.4,18.4,0,0,1-1.67-12.36c.66-3.74,1.63-7.51,4.27-10.49l.63.15c-.62,2.69-1.21,5.39-1.86,8.07-.17.7-.59,1.34-.81,2-.61,1.86-.05,2.7,1.89,3,3.82.68,7.64,1.39,11.66,2.12-1,4.36-3.22,8.05-3.08,12.23l.73.28c1.59-3.88,3.18-7.77,4.73-11.58l3.54-.66a71.74,71.74,0,0,0,3.88,7,76.8,76.8,0,0,0,5.33,6.14C387.78,523.69,386.31,525,384.59,526.06Zm-2.61-23c-1.08-5.77-.58-11.39.48-17.22l1.49,1.57,1.87-.19a35.63,35.63,0,0,0,11.09,17.68l.88-.52a25.2,25.2,0,0,0-1.6-2.88,46,46,0,0,1-7.87-17.42c-.15-.63-.23-1.27-.44-2.47,5.19,7.36,12.66,11,19.2,15.89a65.9,65.9,0,0,1,8,7.41,9.23,9.23,0,0,1,2.11,7.63,41.58,41.58,0,0,1-2,7.86c-.94,2.93-2.1,5.79-3.27,9-6.5-3.09-13.65-5.39-19.76-9.88A25.23,25.23,0,0,1,382,503.1Zm8.32,119.16c-3.12-1.78-9.85-1.8-14.19,0a23.78,23.78,0,0,0-.53,3.63c-.05,9.54,0,19.08,0,28.61a11.71,11.71,0,0,0,.28,2.36,2.11,2.11,0,0,0,2.43,1.83c1.94-.08,2.52-.91,2.51-3.43,0-4.42,0-8.84,0-13.49,1.75,0,3.08.11,4.38,0,1.57-.18,2.64-1.09,2.4-2.8s-1.53-2-3-2c-1.24,0-2.48.13-3.87.21-.22-4-.42-7.79-.63-11.66,3.57-.38,7.05.4,10.22-1.53ZM322.61,464.18a3.24,3.24,0,0,0-3.2,3.33,3.08,3.08,0,0,0,3.21,3.25,3.16,3.16,0,0,0,3.08-3.42A3,3,0,0,0,322.61,464.18ZM427.67,698.6a25.16,25.16,0,0,0-5.86-1.72c-2-.37-4-.4-6.12-.59a15.13,15.13,0,0,0,1.39-3.44c.16-1.13.17-2.83-.5-3.38a4.05,4.05,0,0,0-3.58-.36,14.78,14.78,0,0,0-8.48,9.66c-1.54,5.45,3.05,12.25,6.85,15.11,1.24.94,2.65,1.72,4.19.7s1.46-2.77,1-4.32-1.29-3.15-2.06-5a24.33,24.33,0,0,0,3.74,0,88.24,88.24,0,0,0,9.11-1.77,2.57,2.57,0,0,0,.34-4.9Zm-13.3-7.34c.21,3.36-2.21,5.6-6.8,6.17C409.42,694.62,411.3,692.35,414.37,691.26Zm-6.48,12.91,3.42.75c.91,2.09,1.82,4.17,2.84,6.48C411.73,710.79,408.67,707.11,407.89,704.17Zm-1-3.37a37.52,37.52,0,0,1,19.34.11C423.28,703.17,410.4,703.08,406.92,700.8ZM586,466.85a2.89,2.89,0,0,0,1.89,1.94c.77.07,1.64-.9,2.46-1.41,0-.32,0-.64,0-1-.79-.57-1.53-1.49-2.4-1.62A1.68,1.68,0,0,0,586,466.85Zm0-9.94a2.88,2.88,0,0,0,1.88,1.94c.78.07,1.64-.89,2.47-1.41,0-.32,0-.64,0-1-.79-.57-1.53-1.49-2.39-1.62A1.69,1.69,0,0,0,586,456.91Zm2.09-12a2.73,2.73,0,0,0-2.08,1.52c-.49,1.51.43,2.46,2,2.76,1.45-.27,2.44-1.09,2-2.55A2.77,2.77,0,0,0,588.13,444.91ZM588,514.49a1.69,1.69,0,0,0-2,2,2.92,2.92,0,0,0,1.86,2c.77.07,1.65-.88,2.48-1.38l0-1C589.63,515.56,588.9,514.63,588,514.49Zm-.13,149.09a1.69,1.69,0,0,0-1.87,2.15,2.93,2.93,0,0,0,2,1.84c.78,0,1.59-1,2.38-1.54,0-.33,0-.65,0-1C589.57,664.53,588.78,663.66,587.91,663.58Zm0-159a1.69,1.69,0,0,0-1.91,2.12,2.88,2.88,0,0,0,2,1.86c.77,0,1.6-1,2.41-1.49,0-.33,0-.65,0-1C589.58,505.54,588.81,504.65,588,504.56ZM606.16,48.24a27.94,27.94,0,0,0-.45-5.33A21.87,21.87,0,0,0,583.79,25H187.27c-13.13,0-22.69,9.55-22.69,22.68V374.84q0,163.77,0,327.55a20.91,20.91,0,0,0,.15,3.17c1.76,11.87,10.72,19.44,23,19.44q197.58,0,395.14,0a27.15,27.15,0,0,0,5.33-.45c10.93-2.21,17.91-11.08,17.91-22.76Q606.17,375,606.16,48.24ZM583,720.72H187.6c-9.36,0-16.51-5.45-18.38-14.11a22.59,22.59,0,0,1-.35-4.73q0-163.5,0-327V47.52c0-8.93,5.45-16,13.95-17.86a19,19,0,0,1,4.14-.37H583.89a17.67,17.67,0,0,1,18,17.79c0,1.53,0,3,0,4.57v650C601.89,713.18,594.42,720.72,583,720.72Zm5-63.09c.78,0,1.62-.93,2.44-1.46v-1c-.8-.55-1.56-1.45-2.42-1.56a1.69,1.69,0,0,0-1.94,2.09A2.91,2.91,0,0,0,588,657.63Zm3.3-270.91c-8.08-4.76-15.8,1.78-18,7.69a3.52,3.52,0,0,0,.54,3,3.88,3.88,0,0,0,3,.62,17.81,17.81,0,0,0,3.75-1.44c.34,2.8.53,5.5,1,8.15a12.2,12.2,0,0,0,1.74,4.35c1.23,1.85,3.2,1.63,4.27-.34a9.73,9.73,0,0,0,1.14-3.14c.5-3.37.84-6.76,1.24-10.13,1.5.61,3.15,1.43,4.89,2,1.49.46,3.11.47,4.09-1.09a3.08,3.08,0,0,0-.68-4A43.22,43.22,0,0,0,591.26,386.72Zm-15.33,8.67c.1-2.23,2.13-4.64,5.8-6.77C581.73,393.09,579.58,394.59,575.93,395.39ZM585.59,407c-2.11-3.88-2.18-15.42-.21-18.88C587.34,391.17,587.54,403.18,585.59,407Zm10-12.1-6.31-2.69c-.29-1.26-.53-2.32-.86-3.79,3.15,1.58,5.66,3.3,7.46,5.91ZM586,496.74a2.91,2.91,0,0,0,2,1.87c.78,0,1.61-1,2.41-1.5v-1c-.82-.53-1.59-1.43-2.45-1.52A1.69,1.69,0,0,0,586,496.74Zm2.05-62.21c-1.52,0-2.11,1.11-2.17,2.52s.83,2.25,2,2c.92-.16,1.69-1.13,2.53-1.73C590.11,435.51,589.56,434.5,588.09,434.53ZM586,645.72a2.9,2.9,0,0,0,1.86,2c.77.07,1.65-.88,2.48-1.39,0-.32,0-.64,0-1-.79-.58-1.52-1.51-2.38-1.65A1.68,1.68,0,0,0,586,645.72Zm0-59.65a2.92,2.92,0,0,0,1.85,2c.77.08,1.65-.87,2.49-1.36,0-.32,0-.65,0-1-.78-.58-1.5-1.52-2.36-1.67A1.69,1.69,0,0,0,586,586.07Zm4.34-60.18c-.82-.51-1.62-1.39-2.49-1.46a1.7,1.7,0,0,0-1.85,2.18,2.92,2.92,0,0,0,2,1.82c.78,0,1.58-1,2.37-1.57ZM588,578.12c.78,0,1.6-1,2.4-1.52,0-.32,0-.65,0-1-.81-.53-1.6-1.41-2.46-1.5a1.69,1.69,0,0,0-1.89,2.13A2.92,2.92,0,0,0,588,578.12ZM586,626a2.93,2.93,0,0,0,2,1.85c.78,0,1.59-1,2.39-1.54l0-1c-.82-.52-1.61-1.41-2.47-1.49A1.7,1.7,0,0,0,586,626Zm2-32a1.7,1.7,0,0,0-2,2,2.92,2.92,0,0,0,1.86,2c.77.08,1.65-.87,2.48-1.38l0-1C589.63,595.08,588.9,594.14,588.05,594Zm-2,41.93a3,3,0,0,0,2,1.83c.78,0,1.58-1,2.38-1.57,0-.33,0-.65,0-1-.82-.52-1.62-1.39-2.49-1.46A1.69,1.69,0,0,0,586,635.93Zm1.86-28c.78.07,1.65-.88,2.48-1.39l0-1c-.78-.57-1.51-1.5-2.37-1.64a1.69,1.69,0,0,0-2,2A2.92,2.92,0,0,0,587.9,607.94ZM586,616a2.93,2.93,0,0,0,1.92,1.91c.77,0,1.62-.93,2.44-1.46v-1c-.8-.55-1.56-1.46-2.42-1.57A1.69,1.69,0,0,0,586,616Zm2-57.73c.77,0,1.6-1,2.4-1.5v-1c-.82-.53-1.59-1.43-2.46-1.52a1.68,1.68,0,0,0-1.9,2.12A2.9,2.9,0,0,0,588,558.24Zm0,6a1.68,1.68,0,0,0-2,2.08,2.92,2.92,0,0,0,1.92,1.92c.77,0,1.62-.93,2.44-1.46v-1C589.6,565.21,588.85,564.3,588,564.19Zm0-89.45a1.69,1.69,0,0,0-1.91,2.12,2.88,2.88,0,0,0,2,1.87c.78,0,1.61-1,2.41-1.5v-1C589.58,475.73,588.81,474.83,588,474.74Zm0,63.62c.78.06,1.63-.92,2.45-1.45,0-.32,0-.64,0-1-.81-.56-1.56-1.47-2.42-1.58a1.69,1.69,0,0,0-2,2.08A2.91,2.91,0,0,0,588,538.36Zm1.92-112.88c-1-1-2.16-1.38-3.15-.31a2.43,2.43,0,0,0-.06,3.64C589.54,429.3,590.26,428.57,589.87,425.48ZM588,544.31a1.68,1.68,0,0,0-2,2.06,2.86,2.86,0,0,0,1.89,1.93c.78.07,1.64-.9,2.46-1.41l0-1C589.62,545.36,588.87,544.44,588,544.31Zm-2-57.51a2.93,2.93,0,0,0,2,1.88c.77,0,1.6-1,2.41-1.51,0-.32,0-.65,0-1-.82-.54-1.59-1.43-2.45-1.52A1.69,1.69,0,0,0,586,486.8ZM302.34,702.41l-.89,0c-.56.75-1.45,1.44-1.6,2.27-.23,1.27.63,2.13,2,2.17a1.8,1.8,0,0,0,2.05-2.1C303.77,703.9,302.88,703.18,302.34,702.41ZM179.57,345.87c8.08,4.8,15.81-1.78,18-7.66a3.5,3.5,0,0,0-.51-3,3.88,3.88,0,0,0-3-.64,18.44,18.44,0,0,0-3.77,1.45c-.34-2.79-.51-5.5-1-8.14a12.57,12.57,0,0,0-1.86-4.51c-1.13-1.66-3-1.46-4,.3a9.8,9.8,0,0,0-1.25,3.31c-.52,3.37-.85,6.77-1.26,10.15a49.74,49.74,0,0,0-4.86-1.95c-1.49-.45-3.11-.49-4.1,1.06a3.06,3.06,0,0,0,.66,4A43.21,43.21,0,0,0,179.57,345.87Zm10.26-6.17,4.92-2.87.44.63c-1.05,3-3.3,4.9-6.28,6.74C189.24,342.57,189.5,341.31,189.83,339.7Zm-4.28-14.33a37.93,37.93,0,0,1,.21,19.33C183.47,341.78,183.28,328.91,185.55,325.37Zm-10.32,12.31,6.32,2.71c.29,1.27.53,2.34.85,3.79-3.16-1.59-5.68-3.31-7.46-5.93C175,338.06,175.13,337.87,175.23,337.68Zm19.06,23.86a2.27,2.27,0,0,0,1.84-.7,2.62,2.62,0,0,0-.13-2,4.22,4.22,0,0,0-1.32-1.45,11,11,0,0,0-11.92-1.59c-4.11,1.76-7.15,6.48-6.88,10.78a11.47,11.47,0,0,0,7,10.28c4.33,2,9.91.85,12.7-2.6a3.09,3.09,0,0,0,.54-2.45c-.1-.39-1.42-.72-2.14-.64-3.39.36-6-1.41-7.12-5.09C188.2,362.56,190.54,361.2,194.29,361.54Zm-4.69,12c-3.79,1-6.54-.06-8.5-3a7.53,7.53,0,0,1,8.45-11.53c-3.49,1.37-5.8,3.75-5.91,7.18C183.53,369.84,186.09,372.05,189.6,373.56Zm-4-132a2.92,2.92,0,0,0-1.86-2c-.77-.08-1.65.87-2.48,1.37,0,.32,0,.64,0,1,.78.58,1.51,1.52,2.36,1.66A1.69,1.69,0,0,0,185.61,241.54Zm0-39.77a2.94,2.94,0,0,0-1.86-2c-.78-.07-1.66.88-2.49,1.38l0,1c.79.58,1.52,1.51,2.38,1.65A1.69,1.69,0,0,0,185.61,201.77ZM181.2,398.48a78.15,78.15,0,0,0,2,10c.75,2.43,3.16,2.56,4.51.4a12.81,12.81,0,0,0,1.62-4.41c.48-2.57.66-5.19,1-7.91,1.12.48,2.18,1,3.28,1.39,1.28.47,2.85.81,3.57-.55a5,5,0,0,0,.23-3.66c-1.68-4.55-7.38-8.84-11.65-8.67-6.05.26-10.63,3.34-13.78,8.37-1.37,2.2.15,4.42,2.75,4.13a23.35,23.35,0,0,0,4.85-1.54,17.29,17.29,0,0,0,1.64-.8A21.07,21.07,0,0,0,181.2,398.48Zm13.93-2.5-5.32-3.08c-.33-1.71-.56-2.92-.82-4.23A10.45,10.45,0,0,1,195.13,396Zm-9.79-7.79c2.11,2.65,2.1,15.06-.12,18.8C183.37,403.14,183.5,391.82,185.34,388.19Zm-10,6.74c-.21-.3-.41-.61-.61-.91l7-5.64.57.41-.75,3.37Zm10.29-292.57a2.91,2.91,0,0,0-1.89-2c-.78-.06-1.64.91-2.47,1.42,0,.32,0,.64,0,1,.8.57,1.54,1.49,2.4,1.62A1.69,1.69,0,0,0,185.61,102.36Zm-.78,513.51c-.19-.88-1.09-1.61-1.67-2.4l-.91,0c-.49.85-1.41,1.74-1.34,2.53a2.83,2.83,0,0,0,2,1.86A1.66,1.66,0,0,0,184.83,615.87Zm0,29.94a1.68,1.68,0,0,0-1.92-2.11c-.86.1-1.63,1-2.44,1.54v1c.81.55,1.64,1.54,2.42,1.5A2.9,2.9,0,0,0,184.81,645.81Zm0-39.88c-.19-.88-1.09-1.61-1.67-2.4l-.92.05c-.48.85-1.4,1.74-1.33,2.53a2.86,2.86,0,0,0,2,1.87A1.67,1.67,0,0,0,184.83,605.93Zm-2-61.62c-.86.11-1.61,1-2.42,1.58v1c.82.53,1.67,1.51,2.45,1.46a2.89,2.89,0,0,0,1.91-1.92A1.68,1.68,0,0,0,182.86,544.31Zm-2.4,82.09c.83.52,1.69,1.48,2.47,1.42a2.92,2.92,0,0,0,1.88-2,1.69,1.69,0,0,0-2-2c-.86.13-1.6,1-2.39,1.62ZM183.2,90c-.54.81-1.53,1.64-1.5,2.43a2.85,2.85,0,0,0,1.82,2,1.69,1.69,0,0,0,2.1-1.93c-.12-.88-1-1.66-1.5-2.48ZM311.28,702.41c-.52.77-1.38,1.5-1.5,2.33a1.7,1.7,0,0,0,2.05,2c.8-.18,1.9-1.23,1.93-1.93s-1-1.62-1.53-2.44ZM182.89,637.75a2.89,2.89,0,0,0,1.92-1.9,1.68,1.68,0,0,0-1.94-2.09c-.86.11-1.62,1-2.42,1.57v1C181.27,636.82,182.11,637.81,182.89,637.75Zm2.72-445.94a2.91,2.91,0,0,0-1.89-1.95c-.77-.06-1.64.9-2.46,1.42l0,1c.8.57,1.54,1.49,2.4,1.62A1.69,1.69,0,0,0,185.61,191.81Zm-2,17.94c-.78,0-1.59,1-2.39,1.52v1c.82.53,1.61,1.41,2.47,1.5a1.7,1.7,0,0,0,1.89-2.15A2.9,2.9,0,0,0,183.63,209.75Zm0,53.68a1.69,1.69,0,0,0,2-2.06,2.89,2.89,0,0,0-1.9-1.93c-.78-.06-1.64.91-2.46,1.43,0,.32,0,.64,0,1C182,262.39,182.78,263.31,183.64,263.43Zm0-79.51a1.69,1.69,0,0,0,2-2.06,2.89,2.89,0,0,0-1.9-1.93c-.78-.06-1.64.91-2.46,1.43,0,.32,0,.64,0,1C182,182.88,182.78,183.8,183.64,183.92Zm2-51.73c-.16-.88-1.06-1.61-1.62-2.41l-.93,0c-.5.84-1.44,1.72-1.37,2.5a2.86,2.86,0,0,0,1.92,1.9A1.68,1.68,0,0,0,185.62,132.19Zm-2,41.79a1.69,1.69,0,0,0,2-2.08,2.91,2.91,0,0,0-1.92-1.91c-.77-.06-1.62.92-2.44,1.45v1C182,173,182.8,173.87,183.66,174Zm.06,119.27a1.7,1.7,0,0,0,1.89-2.15,2.9,2.9,0,0,0-2-1.84c-.78,0-1.59,1-2.39,1.52v1C182.07,292.28,182.86,293.16,183.72,293.25Zm1.89-41.84a2.91,2.91,0,0,0-1.92-1.91c-.77-.06-1.62.92-2.44,1.45v1c.8.56,1.56,1.47,2.42,1.58A1.69,1.69,0,0,0,185.61,251.41Zm-1.9-166.88a1.69,1.69,0,0,0,1.9-2.13,2.92,2.92,0,0,0-2-1.86c-.77,0-1.6,1-2.4,1.51v1C182.07,83.55,182.84,84.44,183.71,84.53ZM184.83,313a2.51,2.51,0,0,0,.27-3.64c-1.39-.39-2.77-.58-3.24,1a3.53,3.53,0,0,0,.58,2.78C182.74,313.52,184.32,313.46,184.83,313Zm-1.12-9.84a1.69,1.69,0,0,0,1.9-2.13,2.92,2.92,0,0,0-2-1.86c-.78,0-1.6,1-2.4,1.52v1C182.07,302.21,182.85,303.09,183.71,303.18ZM183.05,269c-.49.84-1.42,1.73-1.34,2.51a2.82,2.82,0,0,0,1.92,1.89,1.69,1.69,0,0,0,2-2.05c-.17-.87-1.07-1.6-1.65-2.39Zm-1.79,12.88c.83.52,1.62,1.39,2.49,1.47a1.7,1.7,0,0,0,1.86-2.17,2.91,2.91,0,0,0-2-1.83c-.78,0-1.58,1-2.38,1.56Zm1,272c-.48.85-1.41,1.74-1.33,2.54a2.83,2.83,0,0,0,2,1.86,1.67,1.67,0,0,0,2-2c-.19-.88-1.09-1.61-1.67-2.4Zm5.2,128.25c-1.55.13-3.08.61-3.46,2.43s.75,2.92,2.16,3.64c1.62.84,3.36,1.45,4.74,2-2.23,2.84-4.63,5.72-6.78,8.77-1,1.4-2.18,3.27-.59,4.88s3.55.74,5.11-.27c2.76-1.78,5.37-3.8,8.16-5.81.31.89.58,1.91,1,2.87.6,1.34,1.27,2.73,3.07,2.66s2.64-1.49,3-3a22.93,22.93,0,0,0,.79-5.46c0-3.25-.78-6.42-3.24-8.69C197.5,682.58,192.6,681.72,187.44,682.13Zm-.17,3.7c.06-.21.13-.42.19-.64,3.17-.58,6.21.14,9.64,1.19l-3.32,2.12Zm-1.45,15.59a31.32,31.32,0,0,1,13.57-13C196.36,694.25,191.61,698.37,185.82,701.42Zm15.18-.74c-2.47-3.54-2.26-6,.66-9.48C202.39,694.44,202.56,697.47,201,700.68Zm19.36,4a2.85,2.85,0,0,0,1.86,2c.79.08,1.68-.89,2.52-1.4l0-.91c-.76-.55-1.45-1.41-2.29-1.6A1.66,1.66,0,0,0,220.36,704.72Zm12.42-2.31-.89,0c-.57.74-1.46,1.43-1.61,2.26-.25,1.27.62,2.13,2,2.18a1.8,1.8,0,0,0,2.06-2.09C234.2,703.91,233.32,703.18,232.78,702.41Zm8.94,0c-.53.81-1.4,1.59-1.5,2.45a1.68,1.68,0,0,0,2.11,1.9,2.92,2.92,0,0,0,1.87-2c0-.79-1-1.61-1.53-2.41ZM183,598a2.9,2.9,0,0,0,1.85-2,1.69,1.69,0,0,0-2-2c-.86.15-1.58,1.08-2.37,1.67,0,.32,0,.64,0,1C181.3,597.13,182.19,598.08,183,598Zm1.85,67.66a1.68,1.68,0,0,0-1.94-2.08c-.87.11-1.62,1-2.43,1.57,0,.33,0,.65,0,1,.82.53,1.67,1.5,2.45,1.45A2.91,2.91,0,0,0,184.81,665.66Zm0-9.87a1.69,1.69,0,0,0-1.87-2.15c-.86.08-1.65,1-2.48,1.48l0,1c.79.56,1.6,1.57,2.38,1.55A2.93,2.93,0,0,0,184.81,655.79Zm106.54,46.62c-.5.83-1.36,1.63-1.44,2.5a1.68,1.68,0,0,0,2.16,1.84,2.86,2.86,0,0,0,1.82-2c0-.78-1-1.58-1.58-2.37Zm-39.63,0c-.55.8-1.44,1.55-1.56,2.41a1.67,1.67,0,0,0,2.06,2,2.86,2.86,0,0,0,1.91-1.9c.05-.78-.93-1.63-1.46-2.45Zm29.79,0c-.54.81-1.43,1.57-1.54,2.43a1.68,1.68,0,0,0,2.08,1.93,2.89,2.89,0,0,0,1.9-1.92c0-.78-.94-1.62-1.48-2.43ZM185.61,142a2.94,2.94,0,0,0-2-1.87c-.78,0-1.6,1-2.41,1.5,0,.32,0,.65,0,1,.81.54,1.59,1.43,2.45,1.52A1.69,1.69,0,0,0,185.61,142Zm75.95,560.37c-.52.83-1.38,1.62-1.46,2.48a1.68,1.68,0,0,0,2.14,1.87,2.88,2.88,0,0,0,1.83-2c0-.79-1-1.59-1.55-2.39Zm10,0c-.54.8-1.43,1.56-1.54,2.42a1.67,1.67,0,0,0,2.07,1.94,2.91,2.91,0,0,0,1.9-1.92c.05-.78-.94-1.62-1.48-2.43ZM183,524.43c-.87.08-1.67,1-2.49,1.46l0,1c.79.57,1.59,1.59,2.37,1.57a2.91,2.91,0,0,0,2-1.83A1.69,1.69,0,0,0,183,524.43Zm0,39.76c-.86.08-1.65,1-2.48,1.48,0,.32,0,.64,0,1,.8.56,1.61,1.57,2.38,1.55a2.9,2.9,0,0,0,2-1.85A1.69,1.69,0,0,0,182.94,564.19Zm-.12-29.82c-.86.13-1.6,1.07-2.38,1.64l0,1c.83.5,1.7,1.46,2.48,1.38a2.93,2.93,0,0,0,1.86-2A1.69,1.69,0,0,0,182.82,534.37Zm.08-29.81c-.87.1-1.64,1-2.45,1.53,0,.32,0,.65,0,1,.81.54,1.65,1.53,2.43,1.49a2.93,2.93,0,0,0,1.94-1.88A1.68,1.68,0,0,0,182.9,504.56Zm-2.44,82.09c.83.52,1.69,1.48,2.47,1.41a2.89,2.89,0,0,0,1.88-1.95,1.68,1.68,0,0,0-2-2c-.86.13-1.6,1-2.39,1.62C180.44,586,180.45,586.33,180.46,586.65Zm2.45-72.16c-.87.1-1.64,1-2.46,1.53v1c.8.54,1.63,1.54,2.41,1.5a2.88,2.88,0,0,0,1.95-1.88A1.68,1.68,0,0,0,182.91,514.49Zm1.92,61.69c-.16-.88-1-1.64-1.59-2.45h-.92c-.52.84-1.47,1.7-1.41,2.49a2.82,2.82,0,0,0,1.88,1.93A1.67,1.67,0,0,0,184.83,576.18Zm0-129.78a2.69,2.69,0,0,0-2.1-1.48,2.74,2.74,0,0,0-1.88,1.75c-.39,1.47.62,2.27,2.05,2.51C184.41,448.86,185.31,447.89,184.79,446.4Zm-4.33,30.92c.83.51,1.69,1.48,2.47,1.41a2.9,2.9,0,0,0,1.88-1.94,1.69,1.69,0,0,0-2-2.05c-.86.12-1.6,1.05-2.39,1.61C180.45,476.67,180.46,477,180.46,477.32Zm0,9.94c.83.52,1.69,1.48,2.47,1.42a2.92,2.92,0,0,0,1.88-1.95,1.68,1.68,0,0,0-2-2.05c-.86.13-1.6,1.05-2.39,1.62Zm2.44,11.35a2.89,2.89,0,0,0,1.91-1.91,1.68,1.68,0,0,0-1.95-2.08c-.86.11-1.61,1-2.42,1.58,0,.32,0,.64,0,1C181.27,497.69,182.12,498.67,182.9,498.61Zm1.21-73.39c-.49-.46-2.06-.6-2.38-.23a3.49,3.49,0,0,0-.71,2.74c.4,1.56,1.78,1.46,3.21,1.1A2.45,2.45,0,0,0,184.11,425.22Zm-3.65,42.15c.82.52,1.69,1.49,2.46,1.42a2.87,2.87,0,0,0,1.89-1.94,1.69,1.69,0,0,0-2-2.05c-.86.13-1.61,1.05-2.4,1.61C180.45,466.73,180.45,467.05,180.46,467.37Zm2.7-12.92-.91,0c-.49.85-1.41,1.74-1.34,2.54a2.83,2.83,0,0,0,2,1.86,1.66,1.66,0,0,0,2-2C184.64,456,183.74,455.24,183.16,454.45Z"/></svg>