<svg xmlns="http://www.w3.org/2000/svg" viewBox="0 0 750 750"><path d="M263.64,659.36c1.56.26,2.2-.85,2.61-2.16.66-2.13,1.37-4.25,2.08-6.44h8.15c.65,2.15,1.2,4.19,1.9,6.18.46,1.3,1.24,2.55,2.88,2.09s1.64-1.89,1.33-3.27c-.83-3.75-1.68-7.48-2.53-11.22-1.56-6.84-3.12-13.67-4.73-20.49a16,16,0,0,0-1.08-2.58c-2.26-.28-3.32.71-3.81,2.32-.9,3-1.7,6-2.52,9-1.17,4.25-2.32,8.5-3.48,12.76a25.67,25.67,0,0,0-4.75.54,2.77,2.77,0,0,0-1.72,2c0,.67,1,1.59,1.79,1.92a13.71,13.71,0,0,0,3.37.56c-.42,2.06-.87,3.91-1.16,5.78C261.75,657.67,261.9,659.08,263.64,659.36Zm9-26.71.28.05c.8,4.13,1.59,8.25,2.42,12.58h-5.73C270.65,641,271.65,636.83,272.66,632.65Zm27.14-.76c.07.9.71,2.3,1.35,2.47a3.65,3.65,0,0,0,2.93-.9,3.75,3.75,0,0,0,.75-2.7,16.28,16.28,0,0,0-.89-3.85c-1.36-4.16-6-6-9.59-3.5a17,17,0,0,0-4.79,5.4,27.86,27.86,0,0,0-3.09,16.71,19.79,19.79,0,0,0,3.62,10.35c3.33,4.42,8.48,4.75,12.3.78a19.38,19.38,0,0,0,4.84-9.84,1.77,1.77,0,0,0-.21-1.27,2.26,2.26,0,0,0-4,.22c-1,2-2.32,4.71-2.61,5.18-.95,1.52-1.92,3.3-4,3.18s-2.91-2.13-3.57-3.84a23.58,23.58,0,0,1-.94-13.67,41.06,41.06,0,0,1,3.25-8.41,2.92,2.92,0,0,1,3.51-1.67C300.41,628.05,299.66,630,299.8,631.89Zm23.54-6.24c.73,0,1.88-.83,2-1.42a3.42,3.42,0,0,0-1-2.5,3.32,3.32,0,0,0-2.22-.55c-2.58,0-5.16.22-7.74.33-3.67.14-4.54,1-4.62,4.66a18.73,18.73,0,0,0,.08,2c.48,5.13,1.07,10.25,1.42,15.39.28,4,.25,7.94.41,11.91,0,1.15.28,2.3.45,3.66a24,24,0,0,0,2.94.2c2.58-.13,5.15-.41,7.73-.53,2.8-.12,4.12-.84,4.13-2.41,0-1.73-1.64-2.67-4.46-2.46-2,.14-3.92.39-5.86.58V643.4c2,0,3.74.06,5.45,0,1.53-.07,3.06-.44,3.12-2.34s-1.55-2.42-3.13-2.57c-1.76-.17-3.54-.23-5.43-.34-.25-4.1-.49-8-.75-12.42C318.47,625.72,320.91,625.83,323.34,625.65ZM242.63,45.72l1,0c.52-.83,1.48-1.69,1.42-2.47s-1.16-1.7-1.95-1.87a1.68,1.68,0,0,0-2,2C241.16,44.19,242.07,44.93,242.63,45.72ZM588.75,233.61c.87-.09,1.64-1,2.46-1.52v-1c-.8-.55-1.63-1.54-2.41-1.5a2.92,2.92,0,0,0-2,1.87A1.69,1.69,0,0,0,588.75,233.61ZM191.27,316.29l4.3,3.17V76.31c12.05-2.63,17-7.67,21.25-21.53H339.05c-2.6-2.5-4.62-4.64-8.38-4.33-4.87.39-9.79.09-14.69.09l-101.37,0a13.91,13.91,0,0,0-1.49.15c-1,13.89-9.48,19.94-21.85,22.2Zm397.52-92.62c.86-.11,1.62-1,2.42-1.57,0-.32,0-.64,0-1-.81-.52-1.66-1.5-2.44-1.45a2.91,2.91,0,0,0-1.92,1.91A1.69,1.69,0,0,0,588.79,223.67ZM222.66,45.7h1c.55-.82,1.55-1.67,1.51-2.45a2.93,2.93,0,0,0-2-1.91,1.69,1.69,0,0,0-2,2C221.27,44.22,222.13,44.93,222.66,45.7Zm29.82,0h1c.55-.82,1.55-1.67,1.51-2.46a2.92,2.92,0,0,0-2-1.9,1.68,1.68,0,0,0-2,2C251.09,44.22,252,44.94,252.48,45.7Zm-19.87,0h.94c.55-.82,1.55-1.67,1.5-2.45a2.9,2.9,0,0,0-1.94-1.91,1.69,1.69,0,0,0-2,2C231.21,44.22,232.07,44.94,232.61,45.7Zm356.1,197.85c.86-.08,1.66-1,2.48-1.46l0-1c-.79-.57-1.6-1.58-2.37-1.56a2.89,2.89,0,0,0-2,1.83A1.69,1.69,0,0,0,588.71,243.55ZM322.13,45.72l.94,0c.52-.84,1.5-1.72,1.43-2.5a2.89,2.89,0,0,0-2-1.85,1.69,1.69,0,0,0-2,2.1C320.68,44.27,321.57,45,322.13,45.72Zm10.8-.26a2,2,0,0,0,2-2.41c-.12-.79-1-1.46-1.34-1.85-2.14,0-2.73.91-2.73,2.16A1.89,1.89,0,0,0,332.93,45.46Zm4.13,150.2c-.42,3.61-1.3,4.72-4.7,5.67-.51.15-1,.26-1.84.44.51.3.71.51.94.54,3.86.61,5.73,2.8,5.68,6.76a19.1,19.1,0,0,0,.8,4,28.75,28.75,0,0,0,1.41-6.3,4,4,0,0,1,2.73-3.54c1.07-.45,2.19-.79,3.29-1.17,0-.13,0-.26,0-.38-.45-.07-.9-.11-1.34-.22-2.69-.69-4.7-1.9-4.78-5.15a36.26,36.26,0,0,0-.94-5.41A16,16,0,0,0,337.06,195.66ZM292.28,45.71h.94c.54-.83,1.53-1.7,1.47-2.49a2.91,2.91,0,0,0-2-1.87,1.69,1.69,0,0,0-2,2.07C290.86,44.25,291.73,45,292.28,45.71Zm-10.09,0,.95,0c.58-.8,1.62-1.6,1.61-2.39a2.9,2.9,0,0,0-1.86-2,1.69,1.69,0,0,0-2.11,1.95C280.87,44.14,281.69,44.89,282.19,45.68ZM555.63,54.9C558.4,66.52,564.8,74.17,577,76.38v243l4.18-3V72.85c-12.57-2.29-21-8.49-21.86-22.22-.5,0-1-.12-1.41-.12-39,0-78,.07-117.06,0-3.5,0-5,2.32-7.13,3.94l.16.49ZM302.25,45.72l.9,0c.54-.77,1.43-1.5,1.54-2.32a1.81,1.81,0,0,0-2.05-2.11c-1.36,0-2.22.91-2,2.18C300.8,44.27,301.69,45,302.25,45.72Zm-39.8,0h.95c.54-.81,1.52-1.65,1.48-2.44s-1.12-1.72-1.9-1.91a1.67,1.67,0,0,0-2.08,1.93C261,44.14,261.91,44.9,262.45,45.71ZM275,411.39a31.88,31.88,0,0,0-1-5.49,22.44,22.44,0,0,0-1.55,6.38c-.18,2.06-1.41,3-3.1,3.68-.91.35-1.88.56-3,.89.3.23.44.42.61.44,4,.64,6,2.91,5.9,7a17.83,17.83,0,0,0,.76,3.75,19,19,0,0,0,1.4-5.93c.1-2.23,1.3-3.35,3.16-4.07,1-.36,1.94-.67,3.46-1.2-1.1-.22-1.59-.29-2.07-.43C277,415.71,275,414.62,275,411.39ZM185.62,132.15a2.91,2.91,0,0,0-1.92-1.91c-.77-.06-1.62.92-2.44,1.44,0,.32,0,.64,0,1,.8.55,1.56,1.46,2.42,1.58A1.69,1.69,0,0,0,185.62,132.15Zm91.94,107.19c-2.34-.65-4.05-1.72-4.07-4.57a28.15,28.15,0,0,0-.84-4.82l-.42,0c-.24,1.54-.57,3.07-.71,4.61-.22,2.53-1.36,4.18-3.92,4.73-.54.12-1.05.36-1.84.63a14.24,14.24,0,0,0,1.34.53c3.55,1,4,1.57,4.43,5.1.18,1.46.49,2.92.74,4.37.76-2.2.58-4.67,1.59-6.47s3.14-2.65,4.62-3.81Zm-91.94,41.8a2.91,2.91,0,0,0-2-1.83c-.78,0-1.58,1-2.38,1.56l0,1c.83.52,1.62,1.39,2.49,1.47A1.7,1.7,0,0,0,185.62,281.14Zm-1.9,8.12c-.78-.06-1.64.91-2.46,1.43,0,.32,0,.64,0,1,.8.56,1.55,1.48,2.41,1.6a1.69,1.69,0,0,0,2-2.07A2.87,2.87,0,0,0,183.72,289.26Zm-2.46-146.61c.82.53,1.59,1.42,2.46,1.51a1.69,1.69,0,0,0,1.9-2.12,2.9,2.9,0,0,0-2-1.87c-.78,0-1.61,1-2.41,1.51C181.25,142,181.26,142.32,181.26,142.65Zm4.36,9.32a2.92,2.92,0,0,0-2-1.86c-.77,0-1.6,1-2.4,1.51,0,.32,0,.64,0,1,.82.54,1.6,1.43,2.46,1.52A1.69,1.69,0,0,0,185.62,152Zm-2.5,7.65c-.51.83-1.46,1.69-1.4,2.48A2.86,2.86,0,0,0,183.6,164a1.69,1.69,0,0,0,2-2c-.15-.87-1-1.62-1.58-2.43Zm163-109.16c3.15.64,6.36,1,9.75,1.56a13.11,13.11,0,0,0-1.29,3.18c-.16,1.13-.22,2.82.44,3.39a4,4,0,0,0,3.56.43,14.86,14.86,0,0,0,8.48-9.39c1.78-5.7-3.13-12.78-7-15.55-1.21-.88-2.58-1.51-4-.52s-1.41,2.5-1,3.94a35,35,0,0,0,1.55,3.84c.18.45.39.89.45,1-3.74.53-7.41.92-11,1.6-1.7.32-3.82.84-3.76,3.13S344.31,50.08,346.13,50.46Zm10.43,6.25c1.19-2,2.18-3.73,3.07-5.27l4.28-.87C362.31,53.85,359.6,56.25,356.56,56.71Zm1.61-20.18c2.63,1.79,4.34,4.32,6,7.53l-3.82-.92c-.88-2-1.8-4.18-2.72-6.3Zm6.23,10.52c-3.21,2-14.75,2-18.85-.13C349.08,44.94,361.15,45.09,364.4,47.05ZM256.92,501.65c2.15-.82,4.43-1.32,6.65-1.95.66-.18,1.33-.29,2-.44a5.54,5.54,0,0,0-1.9-.8c-3.17-1.09-6.42-2-9.47-3.4a6.7,6.7,0,0,1-3.91-5.81c-.34-3.29-1-6.54-1.52-9.81-.44-2.64-.9-5.27-1.36-7.91a3.76,3.76,0,0,0-.83,2.06c-.8,4.9-1.85,9.77-2.31,14.7-.38,4.09-2.58,6.4-6,7.86a52.94,52.94,0,0,1-5.82,1.94c-1.22.36-2.49.56-3.73.83a7.27,7.27,0,0,0,2.12.79c3.17,1.1,6.4,2.07,9.45,3.44,2.36,1.06,3.49,3.19,3.85,5.85.82,5.89,1.85,11.75,2.79,17.62l.44-.06a8.17,8.17,0,0,0,.32-1.1c.83-5.09,1.94-10.17,2.37-15.3C250.44,505.55,253,503.12,256.92,501.65ZM588.57,326.32c-.32-1.74-.77-4-3.15-4s-3,2.12-3.43,4c-.64,3.14-1,6.34-1.53,9.62a13.47,13.47,0,0,0-3.31-1.32c-1.12-.16-2.74-.11-3.37.57a3.78,3.78,0,0,0-.36,3.4,14.85,14.85,0,0,0,9.55,8.56c5.52,1.66,12.33-2.94,15.27-6.79.94-1.24,1.71-2.66.71-4.19s-2.75-1.48-4.3-1-3.15,1.3-4.59,1.91C589.58,333.47,589.24,329.87,588.57,326.32Zm-13.14,10.76c4.39,1,6.28,2.51,6.3,6.91A13.56,13.56,0,0,1,575.43,337.08Zm10.27,7.67c-2.32-3.27-2.24-15.69.21-19.44A40.81,40.81,0,0,1,585.7,344.75Zm9.86-7.08c.2.31.4.62.59.93l-7.06,5.63-.55-.42c.22-1,.45-2.07.74-3.37ZM185.62,251.44a2.91,2.91,0,0,0-1.89-1.94c-.78-.07-1.64.9-2.46,1.42l0,1c.8.56,1.54,1.49,2.4,1.61A1.69,1.69,0,0,0,185.62,251.44ZM238.42,653a3.15,3.15,0,0,0,4.16-.73,40.61,40.61,0,0,0,5.45-6.71c4.92-8.19-1.53-15.9-7.53-18.23a3.44,3.44,0,0,0-3.05.48,4.35,4.35,0,0,0-.63,3.2,15.44,15.44,0,0,0,1.37,3.5c-3.26.51-6.46.9-9.61,1.53-1.88.38-4,1.08-4,3.44s2.25,2.81,4,3.14c3.54.67,7.15,1,10.76,1.49a48.28,48.28,0,0,0-1.91,4.59C237,650.2,236.81,651.89,238.42,653Zm2.47-2.8c-.3-.19-.61-.37-.92-.55l2.61-6.19c.74-.21,1.3-.39,1.87-.53s1-.2,1.52-.31l.52.48Zm-1.2-20.46c3,1,4.88,3.31,6.8,6.27l-4.51-.92c-.91-1.53-1.9-3.22-2.9-4.91Zm-11.64,9.92a30.19,30.19,0,0,1,18.68-.2C240.54,641.5,234.31,641.27,228.05,639.62ZM183.64,263.43a1.68,1.68,0,0,0,2-2.05,2.89,2.89,0,0,0-1.89-1.94c-.77-.07-1.64.9-2.47,1.41,0,.32,0,.64,0,1C182,262.38,182.78,263.3,183.64,263.43Zm.08,5.94c-.78-.06-1.63.92-2.46,1.44v1c.8.56,1.54,1.48,2.4,1.6a1.69,1.69,0,0,0,2-2.07A2.91,2.91,0,0,0,183.72,269.37ZM576.63,371c-1.28-.17-2.23.23-2.13,1.57a3.9,3.9,0,0,0,1.22,2.15,11.17,11.17,0,0,0,12.34,2.1c4.12-1.86,7.22-6.63,7-10.73a12.08,12.08,0,0,0-8.07-10.8c-4.17-1.37-9.32-.07-11.76,3.12a2.7,2.7,0,0,0-.48,2.28c.22.48,1.4.81,2.11.73a6.47,6.47,0,0,1,7.15,4.62C583,369.79,580.48,371.53,576.63,371Zm5-11.91c2.25-1.14,5.28-.38,7.37,1.85a7.27,7.27,0,0,1,1,9.12c-2,3.27-4.78,4.49-8.61,3.54C589.74,369.43,588.39,362.39,581.68,359.12Zm-394.87-307c1.62,2,3.41,3.83,5.11,5.7-1.66.71-3.45,1.34-5.11,2.22-1.33.69-2.36,1.8-2,3.52A2.94,2.94,0,0,0,188,65.9a42,42,0,0,0,9-1c8.92-2.34,9.91-12.13,7.23-18.18a3.51,3.51,0,0,0-2.51-1.81,3.78,3.78,0,0,0-2.59,1.66,21.21,21.21,0,0,0-1.7,4,31.63,31.63,0,0,0-2.59-2.32c-2-1.45-4.08-2.92-6.24-4.17-1.32-.77-3-1.16-4.25.09s-.62,2.74.07,4A24.72,24.72,0,0,0,186.81,52.07Zm1.46,10.81c-.07-.2-.13-.4-.2-.6l6.5-2.67,3.31,2.09C194.52,62.79,191.47,63.51,188.27,62.88Zm13.49-15.15c1.39,2.1,1.58,4.44.75,9C199.39,54.17,199.22,51.26,201.76,47.73Zm-1.5,11.93c-3.46-.4-12.8-9.28-13.64-13C190.44,47.54,198.84,55.52,200.26,59.66Zm-14.64,171.8a2.91,2.91,0,0,0-2-1.84c-.78,0-1.59,1-2.38,1.54l0,1c.82.52,1.61,1.4,2.48,1.48A1.69,1.69,0,0,0,185.62,231.46ZM273.24,45.72c.57-.79,1.59-1.59,1.58-2.38a2.88,2.88,0,0,0-1.82-2,1.68,1.68,0,0,0-2.16,1.85c.08.87.93,1.66,1.44,2.49Zm313.6,36.76a1.69,1.69,0,0,0,2,2c.86-.13,1.6-1,2.4-1.62,0-.32,0-.64,0-1-.83-.51-1.69-1.48-2.47-1.41A2.91,2.91,0,0,0,586.84,82.48Zm0,9.83a1.69,1.69,0,0,0,1.87,2.16c.86-.08,1.65-1,2.48-1.48,0-.32,0-.65,0-1-.8-.56-1.61-1.57-2.39-1.55A2.92,2.92,0,0,0,586.85,92.31Zm-1.31-26.63c2.56-.93,3.1-3.36.93-5a24.23,24.23,0,0,0-4.55-2.29,8.7,8.7,0,0,0-1-.38c2.44-3.32,4.9-6.55,7.21-9.9.79-1.14,1.26-2.63.09-3.86s-2.72-.84-4.07-.26a17.9,17.9,0,0,0-3.43,2c-1.91,1.4-3.72,2.94-5.71,4.54a17,17,0,0,0-1.49-3.67c-.61-.87-1.81-1.95-2.65-1.88a3.93,3.93,0,0,0-2.7,2.11,14.14,14.14,0,0,0,.56,12.79C571.36,64.49,580.38,67.54,585.54,65.68Zm-1.19-3.45-.18.68c-3.17.58-6.22-.12-9.63-1.2l3.33-2.08ZM586,46.84a37.32,37.32,0,0,1-13.62,13.25C572.61,56.58,581.51,47.82,586,46.84Zm-15.34.6c2.46,3.46,2.25,5.92-.64,9.47C569.28,53.67,569.1,50.64,570.65,47.44ZM539.87,45.7c.53-.77,1.39-1.49,1.51-2.32a1.69,1.69,0,0,0-2-2,2.89,2.89,0,0,0-1.94,1.92c0,.78,1,1.62,1.51,2.44Zm47,146.07a1.69,1.69,0,0,0,1.95,2.09c.86-.12,1.62-1,2.42-1.57v-1c-.81-.53-1.66-1.51-2.44-1.46A2.91,2.91,0,0,0,586.84,191.77Zm1.85-51.6a2.92,2.92,0,0,0-1.85,2,1.69,1.69,0,0,0,2,2c.86-.15,1.58-1.09,2.36-1.67l0-1C590.35,141,589.46,140.09,588.69,140.17Zm2.51,31.22c-.83-.51-1.7-1.48-2.48-1.41a2.93,2.93,0,0,0-1.88,2,1.68,1.68,0,0,0,2,2c.86-.13,1.6-1.06,2.39-1.63C591.21,172,591.2,171.71,591.2,171.39ZM588.74,164c.87-.09,1.64-1,2.46-1.51v-1c-.8-.55-1.63-1.55-2.4-1.51a2.88,2.88,0,0,0-2,1.86A1.69,1.69,0,0,0,588.74,164Zm0-13.93a2.91,2.91,0,0,0-1.92,1.91,1.69,1.69,0,0,0,1.95,2.08c.86-.11,1.62-1,2.42-1.57v-1C590.39,151,589.54,150.06,588.76,150.11ZM529.92,45.7c.53-.76,1.4-1.48,1.52-2.31a1.69,1.69,0,0,0-2-2c-.79.17-1.91,1.21-1.95,1.91s1,1.63,1.5,2.45Zm58.77,154.1a2.92,2.92,0,0,0-1.85,2,1.69,1.69,0,0,0,2,2c.86-.15,1.58-1.09,2.36-1.67l0-1C590.35,200.67,589.47,199.72,588.69,199.8Zm-39-154.08c.56-.75,1.45-1.45,1.6-2.27a1.69,1.69,0,0,0-2-2.1,2.91,2.91,0,0,0-2,1.85c-.06.79.92,1.66,1.44,2.5Zm-90.37,0,.9,0c.56-.74,1.46-1.43,1.62-2.25.25-1.26-.61-2.13-2-2.19a1.79,1.79,0,0,0-2.07,2.07C457.94,44.18,458.82,44.92,459.35,45.69ZM549,638.32a4.5,4.5,0,0,0-2.37-3,20,20,0,0,0-5.36-1.35c-1.91-.3-3.85-.37-5.84-.55a19,19,0,0,0,1.5-3.87,3.86,3.86,0,0,0-.67-3c-.64-.6-2-.47-3.09-.53a2.45,2.45,0,0,0-1.27.52c-4.94,3.17-8.81,7.11-7.71,13.54a16.21,16.21,0,0,0,8.34,11.73c2.07,1.16,4.08-.29,3.93-2.71a14.83,14.83,0,0,0-1-3.81,15.31,15.31,0,0,0-1.14-2.27c4.18-.72,8.23-1.27,12.19-2.2C547.53,640.62,549,639.14,549,638.32Zm-14.84-9.91c-.24,3.17-2.13,6.38-6.74,6.1C529,631.78,531,629.56,534.12,628.41Zm-1,20.34a18.68,18.68,0,0,1-5.94-7.47l3.79.85c.9,2.08,1.81,4.2,2.72,6.32Zm-6.22-10.51c3.28-2,14.8-2,18.7,0C543.15,640.33,530.3,640.29,526.93,638.24ZM449.41,45.7l.9,0c.56-.75,1.46-1.43,1.62-2.26.25-1.26-.61-2.13-2-2.18a1.79,1.79,0,0,0-2.07,2.07C448,44.19,448.88,44.92,449.41,45.7Zm20.75,0c.58-.8,1.61-1.61,1.59-2.39a2.92,2.92,0,0,0-1.87-2,1.69,1.69,0,0,0-2.11,1.95c.09.83,1,1.59,1.46,2.38Zm-30.6-.26a1.89,1.89,0,0,0,2.06-2.13c0-1.24-.6-2.16-2.75-2.12-.29.38-1.21,1.06-1.33,1.85A2,2,0,0,0,439.56,45.47Zm50.62.23c.53-.81,1.41-1.59,1.5-2.45a1.67,1.67,0,0,0-2.11-1.9,2.9,2.9,0,0,0-1.87,1.95c0,.78,1,1.6,1.53,2.41Zm98.65,217.73c.86-.13,1.6-1.05,2.39-1.62l0-1c-.83-.52-1.69-1.48-2.47-1.41a2.91,2.91,0,0,0-1.89,1.94A1.7,1.7,0,0,0,588.83,263.43ZM480.22,45.71c.54-.77,1.4-1.49,1.53-2.32a1.69,1.69,0,0,0-2-2,2.92,2.92,0,0,0-2,1.9c0,.79,1,1.64,1.51,2.46Zm19.86,0c.54-.81,1.42-1.56,1.54-2.43a1.67,1.67,0,0,0-2.07-1.93,2.88,2.88,0,0,0-1.9,1.91c0,.78.94,1.62,1.47,2.44Zm19.06,0,1,0c.49-.83,1.44-1.72,1.35-2.49a3,3,0,0,0-2-1.85,1.67,1.67,0,0,0-2,2C517.61,44.21,518.55,44.94,519.14,45.72Zm-9.17,0c.55-.76,1.44-1.45,1.59-2.27a1.69,1.69,0,0,0-2-2.1,2.91,2.91,0,0,0-2,1.85c-.07.78.91,1.66,1.43,2.5Zm81.22,235c-.84-.5-1.72-1.45-2.5-1.37a2.92,2.92,0,0,0-1.85,2,1.69,1.69,0,0,0,2,2c.86-.15,1.58-1.09,2.36-1.67ZM387.27,87.31c-.3-.81-1.12-1.44-2.07-2.61-4.24,6.61-6.55,13.52-9.8,20.25a32.59,32.59,0,0,0-4.37.37,2.42,2.42,0,0,0-1.46,1.49c-.09.33.74,1.14,1.3,1.38a14.17,14.17,0,0,0,2.85.58c-.91,2.26-1.86,4.36-2.54,6.54a2.65,2.65,0,0,0,.73,2.17c.3.3,1.4.1,1.93-.22a3.61,3.61,0,0,0,1.05-1.63c1-2.28,2-4.58,2.91-6.75h13.71c.85,2.46,1.65,4.77,2.44,7.07.43,1.24,1.09,2.27,2.59,1.75s1.27-1.74.87-2.84Q392.4,101.08,387.27,87.31ZM379.42,105c2.07-5.17,4-9.93,6-15.09,1.66,5.2,3.2,10,4.8,15.09Zm208.11,208a2.51,2.51,0,0,0,2.37.25,3.47,3.47,0,0,0,.74-2.73c-.37-1.56-1.76-1.48-3.25-1.12A2.5,2.5,0,0,0,587.53,312.94Zm-.68-101.46a1.7,1.7,0,0,0,1.76,2.25c.87,0,1.71-.87,2.56-1.34l.06-1c-.76-.6-1.52-1.66-2.3-1.67A2.87,2.87,0,0,0,586.85,211.48ZM355.57,125.83h59.51V76.19H355.57ZM359.8,80.4h51.11v41.18H359.8Zm229,212.85c.86-.12,1.62-1,2.43-1.56,0-.32,0-.65,0-1-.81-.53-1.65-1.51-2.43-1.47a3,3,0,0,0-1.93,1.9A1.7,1.7,0,0,0,588.78,293.25Zm-.08-19.88c.86-.08,1.66-.94,2.49-1.46l0-1c-.79-.56-1.59-1.58-2.37-1.57a2.92,2.92,0,0,0-2,1.82A1.7,1.7,0,0,0,588.7,273.37Zm.09-19.88c.87-.12,1.62-1,2.42-1.58v-1c-.82-.53-1.67-1.51-2.45-1.45a2.88,2.88,0,0,0-1.92,1.91A1.69,1.69,0,0,0,588.79,253.49Zm0,49.69c.86-.12,1.61-1,2.41-1.59,0-.33,0-.65,0-1-.82-.52-1.68-1.49-2.45-1.42a2.89,2.89,0,0,0-1.91,1.92A1.68,1.68,0,0,0,588.81,303.18ZM378.48,57.38a2.67,2.67,0,0,0,2.3.32c.43-.17.7-1.33.63-2-.37-3.38,1.19-6,4.62-7.23,3.8,1.16,5.39,3.61,5,7.32a2.37,2.37,0,0,0,.74,2,2.66,2.66,0,0,0,2.14-.31,6.18,6.18,0,0,0,1.66-1.68,11.38,11.38,0,0,0,.27-13A11.25,11.25,0,0,0,383.38,38a11.42,11.42,0,0,0-8.62,10A10.55,10.55,0,0,0,378.48,57.38Zm2.44-14a7.25,7.25,0,0,1,9.12-1c3.29,2,4.51,4.84,3.5,8.57-4.48-7.69-10.15-7.69-14.5-.18C377.92,48.48,378.69,45.48,380.92,43.41Zm207.87,80.88c.87-.12,1.62-1,2.42-1.58,0-.32,0-.64,0-1-.81-.53-1.66-1.51-2.44-1.46a2.92,2.92,0,0,0-1.92,1.92A1.69,1.69,0,0,0,588.79,124.29ZM465.28,168.14c-.3-2.16-.61-4.32-1-6.47-.63-3.91-1.29-7.8-1.94-11.7h-.33a5.47,5.47,0,0,0-.4,1.06c-.85,5.16-1.9,10.3-2.43,15.49a8.88,8.88,0,0,1-5.54,7.78,28.73,28.73,0,0,1-4.07,1.57c-2,.57-4.08,1-6.12,1.47a12.59,12.59,0,0,0,2.28.74c3.22,1.13,6.5,2.16,9.61,3.54,2.26,1,3.32,3.09,3.67,5.56.51,3.67,1.1,7.33,1.68,11,.36,2.26.77,4.51,1.15,6.76a3.11,3.11,0,0,0,.82-1.71c.83-5,1.86-10,2.36-15.09a8.64,8.64,0,0,1,5.53-7.56,49.78,49.78,0,0,1,6-2.09c1.31-.39,2.68-.57,4-.85a6.52,6.52,0,0,0-2.06-.82c-3.17-1.09-6.4-2.06-9.45-3.41A6.46,6.46,0,0,1,465.28,168.14Zm34,489.69a9.94,9.94,0,0,0,10.73.43c3.48-1.85,5.47-4.51,5.25-9,.05-4.57-2.2-8.26-5.88-11.45a44.45,44.45,0,0,1-5.92-6.82c-1.09-1.43-.37-2.9.69-4.15a2.48,2.48,0,0,1,3.58-.33c1.4,1,2.56,2.33,3.88,3.46a25.35,25.35,0,0,0,2.16,1.52c.28-.87.89-1.77.78-2.58-.37-2.67-2.33-4.21-4.5-5.47-3.36-2-6-1.81-8.61.43a8.47,8.47,0,0,0-2.56,9.16,19,19,0,0,0,6.74,9.13,10.19,10.19,0,0,1,4.56,7.15,4.73,4.73,0,0,1-4.58,5.66c-2.51.17-4.05-1.11-4.3-3.56a7.79,7.79,0,0,0-.19-1.37,2.5,2.5,0,0,0-2.75-2.08,2.41,2.41,0,0,0-2.35,2.51C496,653.44,496.81,656.19,499.31,657.83Zm89.44-557.41a2.89,2.89,0,0,0-1.91,1.92,1.7,1.7,0,0,0,2,2.07c.86-.12,1.61-1,2.41-1.6l0-1C590.38,101.33,589.52,100.36,588.75,100.42ZM497.8,412.7c1-.39,2-.67,3.56-1.16l-2-.56c-2.59-.71-4.57-1.85-4.62-5a34.25,34.25,0,0,0-1-5.53,14.87,14.87,0,0,0-1.22,4.62c-.45,4-1.19,4.94-5,6l-1.65.46c.85.33,1.31.54,1.79.67,3.67,1,4.42,1.86,4.85,5.48.2,1.67.51,3.34.76,5h.49c.37-2,.89-4.08,1.06-6.15A4.14,4.14,0,0,1,497.8,412.7ZM482.51,659.15a41.39,41.39,0,0,0,6.32-4.42c9.15-7.93,8.5-24-1-30.22-4.9-3.23-10-3.13-15.12-1-.66.27-.91,1.52-1.34,2.32a10.64,10.64,0,0,0,2.27,1.12,10.25,10.25,0,0,0,2.54-.1c0,.6.07.92.07,1.24-.14,9.06-.31,18.13-.41,27.19C475.8,659.5,478.85,661.3,482.51,659.15Zm-1.58-32.26c3.3.27,5.25,2.34,6.89,4.69,5.08,7.27,1.53,19.14-6.89,22.68Zm39.52-374.68c1.53-.54,3.11-.93,5-1.48-2-.62-3.71-1.07-5.36-1.66-2.64-1-4.27-2.68-4.38-5.71a42.75,42.75,0,0,0-.86-5.48c-.24-1.37-.51-2.73-.76-4.09a51.18,51.18,0,0,0-2.07,10,5.84,5.84,0,0,1-4.16,5.23c-1.7.66-3.47,1.11-5.75,1.82,1.48.35,2.5.54,3.48.83,3.56,1,6.4,2.59,6.61,7a80,80,0,0,0,1.44,9.14,37.72,37.72,0,0,0,2-9.31C515.81,255.09,517.52,253.24,520.45,252.21Zm66.39-139.9a1.69,1.69,0,0,0,2,2c.86-.14,1.6-1.06,2.39-1.63l0-1c-.83-.51-1.7-1.47-2.47-1.4A2.91,2.91,0,0,0,586.84,112.31Zm1.87,21.91c.86-.07,1.66-.95,2.48-1.46l0-1c-.8-.56-1.6-1.57-2.38-1.55a2.9,2.9,0,0,0-2,1.83A1.69,1.69,0,0,0,588.71,134.22ZM414.52,59.33c2.56.65,4.25-.95,3.58-3.51a42.51,42.51,0,0,0-1.64-4.22,17.13,17.13,0,0,0,2.8,0A69,69,0,0,0,428,49.79a3.85,3.85,0,0,0,2.13-2.87c0-.83-1.35-2.16-2.34-2.46a58.59,58.59,0,0,0-8.14-1.61,29.77,29.77,0,0,0-4.34,0c.77-1.81,1.57-3.34,2.07-5s.64-3.24-1-4.32a3.12,3.12,0,0,0-4.16.73,40.53,40.53,0,0,0-5.72,7.26C402.83,48.09,407.19,57.45,414.52,59.33Zm-.25-22.78.58.3c-.9,2.11-1.81,4.22-2.71,6.3l-3.79.88A18.57,18.57,0,0,1,414.27,36.55Zm12.9,10.64a38.55,38.55,0,0,1-19.64.09C411.76,45,423.84,45,427.17,47.19Zm-11.8,9.75c-3.25-1.22-5.18-3.43-6.85-6.08C412.43,50.63,414.37,52.17,415.37,56.94ZM591.2,181.35c-.83-.52-1.69-1.49-2.47-1.42a2.91,2.91,0,0,0-1.89,1.94,1.69,1.69,0,0,0,2,2c.86-.13,1.6-1,2.4-1.61C591.21,182,591.21,181.67,591.2,181.35ZM312,45.69l1,0c.58-.8,1.61-1.6,1.6-2.39a2.92,2.92,0,0,0-1.88-2,1.69,1.69,0,0,0-2.1,2C310.69,44.15,311.52,44.9,312,45.69ZM489.47,702.42l-1,0c-.58.8-1.61,1.61-1.6,2.39a2.9,2.9,0,0,0,1.88,2,1.68,1.68,0,0,0,2.1-2C490.8,704,490,703.21,489.47,702.42Zm-40.3.37a1.7,1.7,0,0,0-2.05,2,2.83,2.83,0,0,0,1.95,1.9c.8,0,1.64-1,2.47-1.51,0-.3,0-.61,0-.92C450.74,703.76,450,702.94,449.17,702.79ZM586.05,616a2.88,2.88,0,0,0,2,1.87c.78,0,1.61-1,2.41-1.5v-1c-.82-.54-1.59-1.43-2.45-1.53A1.69,1.69,0,0,0,586.05,616ZM509.2,702.39l-.95,0c-.53.82-1.5,1.66-1.46,2.44a2.91,2.91,0,0,0,1.92,1.91,1.68,1.68,0,0,0,2.06-2C510.64,704,509.75,703.19,509.2,702.39Zm-39.64,0-.95,0c-.57.81-1.6,1.63-1.57,2.42a2.87,2.87,0,0,0,1.9,2,1.69,1.69,0,0,0,2.08-2C470.91,703.94,470.07,703.2,469.56,702.41Zm-10.52.4a2.92,2.92,0,0,0-2,1.88c-.07.78.9,1.64,1.42,2.47l1,0c.56-.8,1.46-1.55,1.6-2.41A1.64,1.64,0,0,0,459,702.81Zm40.22-.42-.94,0c-.53.83-1.52,1.69-1.46,2.47a2.89,2.89,0,0,0,2,1.87,1.68,1.68,0,0,0,2-2.07C500.69,703.85,499.81,703.15,499.26,702.39Zm81.11-280.55-4.21-3V671.72c-12.28,2.26-18.66,10-21.36,21.6h-122c2.56,3.1,5.24,4.67,9.13,4.33,4.34-.37,8.74-.09,13.11-.09l102,0a13.49,13.49,0,0,0,1.58-.15c.94-13.82,9.4-19.92,21.82-22.16ZM584.85,696c-1.62-2-3.41-3.82-5.11-5.7,1.61-.67,3.34-1.28,5-2.1,1.41-.72,2.54-1.83,2.2-3.63a3,3,0,0,0-3.43-2.41,41.7,41.7,0,0,0-9.15,1.17c-8.72,2.47-9.52,12.52-6.78,18.24,1.14,2.38,3.62,2.42,5,.14a34.45,34.45,0,0,0,1.77-4.21,26.59,26.59,0,0,0,2.43,2.21c2.09,1.5,4.18,3,6.4,4.3,1.32.77,3,1.16,4.25-.11s.6-2.74-.09-4A24.72,24.72,0,0,0,584.85,696Zm-1.45-10.81.2.62-6.53,2.68-3.23-2.11C577.2,685.28,580.23,684.62,583.4,685.21ZM569.78,700.6a13.83,13.83,0,0,1-.6-9.29C572.16,694.4,572.41,697.41,569.78,700.6Zm1.54-12.74a40.86,40.86,0,0,1,14.2,13.5C581.64,701,572.52,692.37,571.32,687.86Zm-22.43,14.52-.9,0c-.53.78-1.4,1.52-1.5,2.35a1.8,1.8,0,0,0,2.08,2.07c1.35-.07,2.21-.93,1.95-2.2C550.35,703.8,549.46,703.13,548.89,702.38Zm-30.59,0c-.57.79-1.59,1.59-1.57,2.37a2.88,2.88,0,0,0,1.82,2,1.67,1.67,0,0,0,2.15-1.84c-.07-.87-.93-1.66-1.43-2.49Zm8.32,2.29a1.68,1.68,0,0,0,1.92,2.09c.88-.13,1.66-1,2.49-1.49v-.93c-.8-.54-1.63-1.53-2.41-1.5A2.84,2.84,0,0,0,526.62,704.68Zm12.46-2.28h-1c-.56.8-1.55,1.62-1.52,2.41s1.08,1.74,1.86,2a1.68,1.68,0,0,0,2.11-1.9C540.48,704,539.61,703.22,539.08,702.4Zm-59.59,0-.94,0c-.57.81-1.6,1.63-1.58,2.42a2.87,2.87,0,0,0,1.9,2,1.7,1.7,0,0,0,2.09-2C480.85,703.93,480,703.19,479.49,702.41ZM457.2,649.57c1,2.5,2.29,4.92,3.51,7.33.94,1.84,3.36,1.83,5,1.52s1.88-1.86,2-3.28a18.8,18.8,0,0,0,.13-2c0-6.3,0-12.59,0-18.88,0-3.57-.22-7.15-.42-10.71-.07-1.24-.8-2.41-2.09-2.11a3.33,3.33,0,0,0-2.08,2.14,38.55,38.55,0,0,0-.5,6.72c-.06,5.89,0,11.78,0,17.67l-.37.12c-.24-.52-.49-1-.7-1.56-2.76-6.74-5.5-13.48-8.29-20.21a48.42,48.42,0,0,0-2.37-5c-.36-.66-1.2-1.63-1.63-1.54a2.69,2.69,0,0,0-1.79,1.65,23,23,0,0,0-.31,5.12c.26,9.73.58,19.46.89,29.19,0,.59-.05,1.34.27,1.73.58.69,1.46,1.65,2.14,1.6a3.61,3.61,0,0,0,2.24-1.75,5.14,5.14,0,0,0,.16-2.53c-.14-4.76-.31-9.53-.46-14.29,0-.87,0-1.73,0-2.6C454.21,641.82,455.62,645.73,457.2,649.57Zm7.49-113.3c-1.73-.72-3.23-1.81-3.54-3.94-.47-3.2-1-6.4-1.52-9.61-.09-.52-.24-1-.36-1.55a2.39,2.39,0,0,0-.67,1.38c-.47,2.8-1.13,5.6-1.34,8.42-.24,3.26-2.18,4.82-4.91,5.78-1.5.53-3.07.89-4.75,1.36.24.2.33.33.44.36l2.32.55c4.9,1.12,6.28,2.56,7.08,7.45.07.46.07.93.15,1.39.41,2.46.84,4.92,1.27,7.38A62.31,62.31,0,0,0,461,544.87a5.2,5.2,0,0,1,3.33-4.55c1.93-.79,4-1.4,6.11-2.16C468.43,537.51,466.5,537,464.69,536.27Zm-110.26,121a16.41,16.41,0,0,0,2.81-4.73c2.57-6.6,2.75-13.45,1.6-20.35a8.81,8.81,0,0,0-1.19-2.44,37.73,37.73,0,0,0-1.95-5.17c-2.28-4.05-6.55-4.49-9.76-1.12-.58.62-1.05,1.36-1.57,2-3.75,4.89-4.13,10.7-4.08,16.46,0,5.56,1.26,10.92,5.22,15.25C348.27,660.24,351.75,660.37,354.43,657.28Zm-6.29-29.5a5.9,5.9,0,0,1,.38-.7c1.73-2.89,3.25-2.92,5.07,0,.6,1,1.12,1.94,1.47,2.56a35.28,35.28,0,0,0,0,4,36.32,36.32,0,0,1-1.51,16.43c-.67,2-1.48,4-3.94,5.24a14.11,14.11,0,0,1-2.1-3A32.91,32.91,0,0,1,348.14,627.78Zm9.26,61.15a3.71,3.71,0,0,0-3.21.59c-.61.56-.67,2.05-.5,3.06a19,19,0,0,0,1.43,3.63c-2.8.33-5.51.49-8.14,1a12.9,12.9,0,0,0-4.66,2c-1.49,1-1.29,2.84.28,3.78a10,10,0,0,0,3.49,1.36c3.36.53,6.76.85,10.14,1.25-.61,1.46-1.42,3.05-1.94,4.72-.46,1.48-.57,3.1.93,4.16a3.09,3.09,0,0,0,4.17-.62,39.88,39.88,0,0,0,5.49-6.7C369.83,699,363.46,691.29,357.4,688.93Zm.33,22.85-.89-.53,2.67-6.29,3.37-.78.47.56Zm-12.8-10.53A30.38,30.38,0,0,1,363.6,701C357.4,703.12,351.18,702.87,344.93,701.25Zm14-4.55-2.92-5,.61-.44c3,1.09,4.93,3.29,6.69,6.25Zm-164.25-25V418.82l-4.14,3.05V675.53a23.44,23.44,0,0,1,15.32,6.77c4.26,4.16,6.79,9,6.2,15.16.84.06,1.3.13,1.76.13q58.64,0,117.26,0c3.4,0,4.79-2.35,6.73-4.37H216C213.34,681.66,206.92,673.93,194.64,671.72Zm172-188.56c.3.78.52,1.4.78,2,1.69,4,2.19,8.51,4.78,12.25,1.3,1.88,2,4.17,2.93,6.2-1.38,3.47-1.33,6.58,4.23,7.89,11.3,15.94,13.42,17.79,24.63,21.47,1.39,2.21,2.89,4.37,6,3.91a5.38,5.38,0,0,0,4.87-5l4.63-2.23c3.37,1.06,6.43-.32,7-5.51,1.16-1.27,2.3-2.57,3.5-3.8,2.39-2.43,3.79-5.76,6.93-7.52.5-.28.78-1.05,1.05-1.65.95-2.14,1.8-4.33,2.8-6.45,3.4-7.25,6.85-14.47,10.51-22.17,3-2,3.44-3.15,1.93-7.65a55.31,55.31,0,0,0,3.06-4.62,10,10,0,0,0,.83-3.3c.08-.47-.42-1.08-.27-1.5,1.08-3,2.28-6,3.39-9a10.54,10.54,0,0,0,.5-2.24,23.84,23.84,0,0,1,.18-2.7c2.42-9.84,4.9-19.66,7.34-29.49.48-1.92.85-3.87,1.28-5.8,0,10.12-.27,20.18-.59,30.24a3.21,3.21,0,0,1-.5,1.67c-2,2.85-2,3.31.09,6.18v5.07c-3,2.9-3,4.48-.33,7.16a32.81,32.81,0,0,1-1.49,12.75,22.94,22.94,0,0,0-.78,6.84,4.28,4.28,0,0,0,3.69,4.07c1.66.11,2.91-1.15,3.42-3.48a4.72,4.72,0,0,0,.16-1.18c-.07-2.11-.08-4.23-.28-6.34-.39-4.25-.89-8.49-1.28-12.22,3-3.63,3-4.4.63-7.29V454.3c2.27-2.93,2.28-3.71.15-6.45V447c.12-14.7.28-29.4.33-44.1a7.33,7.33,0,0,1,1.45-4.55Q498.64,364,494.26,322a105.25,105.25,0,0,0-17.87-48.89c-16-23.47-37.81-38.73-65.45-45.51-4.09-1-8.24-1.7-12.51-2.58A26.36,26.36,0,0,0,402,206.71c-3.2.11-5.89.78-8,2.73s-3.69,4-5.59,6.15c-.21-4.51-.64-9.05-.6-13.59.06-7.41.44-14.81.68-22.21.18-5.39-4-13-11.5-13a5.9,5.9,0,0,1-2-.25c-3.5-1.23-6,1.37-6.19,4.45-.15,2.23.14,4.49,0,6.73-.64,13.38,1.05,26.58,2.67,39.8.31,2.54.47,5.09.71,7.75-9,1-16.61,4.63-23.82,9.3,4-1,7.79-2.42,11.72-3.43s8.08-1.61,12.2-2.41c2.39,23.75,4.73,47,5.15,70.34-5.2,1.43-5.17,1.59-3.41,6.64a87.91,87.91,0,0,1,3.34,11.79c.62,3.09.51,6.33.72,9.5.11,1.55.23,3.11.38,5.2-.48-.64-.65-.82-.76-1-4.94-9.07-9.9-18.13-14.8-27.23-.95-1.75-1.67-3.63-2.5-5.44a144,144,0,0,0-22.28-18.75,3.78,3.78,0,0,0-.29,2.13q3.17,16.58,6.4,33.13a3.22,3.22,0,0,0,.59,1.22c2.35,3.12,4.7,6.24,7.11,9.31q12.33,15.72,24.7,31.39c.3.38.53.81.81,1.25l-8.63-1.3a9.09,9.09,0,0,0-1-2.61,14.64,14.64,0,0,0-3.47-3.55,2.5,2.5,0,0,0-3.65.9c-.81,1.43-.21,2.7.92,3.72.67.61,1.42,1.14,2.39,1.91l-3,.71c-1.07-.69-2-1.35-3-1.9a6.28,6.28,0,0,0-5.9-.54,3.06,3.06,0,0,0-1.7,2.11c0,.62,1.11,1.45,1.9,1.82a13.51,13.51,0,0,0,3.12.68c-5.85,5.7-6.86,10.41-2.62,12.33a4.49,4.49,0,0,0,.05-1.14c-.95-4,.82-6.73,4.07-8.65,7-4.12,14.13-3.81,21.27-.48a2.94,2.94,0,0,1,1.23,2.21c.09,2.44-.14,4.9-.13,7.34a29.13,29.13,0,0,0,.37,6.69c.36,1.45,1.53,3.44,2.74,3.8,5.2,1.52,8.24.85,9.88-4.63a9.16,9.16,0,0,0,.42-2.74q-.14-14.6-.36-29.2c0-1.3-.25-2.6-.38-3.9.6-.28,1-.46,1.43-.67,2.11-1.09,4.3-2.05,6.3-3.33,1.15-.73,2.15-2,1.39-3.55s-2.27-1.53-3.66-1.15a43.48,43.48,0,0,0-4.16,1.62c.41-1.92.79-3.7,1.05-4.89,3.3-1,6.16-1.82,8.93-2.86,1.57-.59,2.74-1.85,2.18-3.73s-2.28-2-3.78-1.74a43.53,43.53,0,0,0-5.36,1.5l3.16-6.37c3.34-.43,6.43-.75,9.5-1.25a2.72,2.72,0,0,0,2.48-2.89c0-1.75-1.23-2.49-2.69-2.64a49.54,49.54,0,0,0-5.17-.05l3.56-4.74c3.43,0,6.94.13,10.43-.08.87-.06,2.32-1.15,2.36-1.83a3.54,3.54,0,0,0-1.67-2.7,23.17,23.17,0,0,0-4.93-1.44l4.24-3.14c.73.26,1.27.5,1.84.65,2.87.74,5.73,1.61,8.65,2.08.9.15,2-.83,3-1.3-.49-1-.73-2.36-1.53-2.89a31.27,31.27,0,0,0-5.08-2.23c2.7-1.25,5.32-2.67,8.73-2.05a39.86,39.86,0,0,0,8.88.23c.8,0,2.14-1.08,2.2-1.76a5.1,5.1,0,0,0-1.26-3c-.42-.54-1.39-.7-2.14-.92-4.31-1.23-7.86.71-11.44,2.69-2,1.09-4.08,2-6.47,3.14,3.86-8.3,3.86-8.3,2-9.91-4.76,2.63-5.65,7.54-6.94,12.17l-7.48,5.26c1.22-3,2.89-5.52,1.42-8.42a2.6,2.6,0,0,0-3.39,1.62c-.87,2.1-2,4.43-1.83,6.55.45,4.85-3,7.26-5.38,10.78-.72-6.85-.72-6.85-2.3-7.88-2.51.77-3.71,3.33-3.08,6.83.42,2.34,1,4.65,1.6,7.42a45.4,45.4,0,0,0-6.45,19.22c-1.13-5.89-2.23-11.68-1.55-17.63.54-4.8,1.1-9.6,1.55-14.41.54-5.73,1-11.47,1.47-17.32l1.09-.59c4.95-2.82,10.1-5.33,14.79-8.52,6.24-4.25,9-10.55,9-18.08,0-2.41-.77-3.12-3.21-2.78a64.94,64.94,0,0,0-7.2,1.41c-7.31,1.87-12.21,6.36-14.54,13.59-.2.61-.44,1.22-.67,1.82a78.7,78.7,0,0,1-.86-9.42c-.27-6.6-1-13.25,2.23-19.47.71-1.36,1.7-3.26.22-4.38-1-.76-2.85-.38-4.66-.55.12-.55.05-1.76.61-2.44,1.94-2.34,4.1-4.5,6.11-6.66a12.89,12.89,0,0,1,1.54,0,88.54,88.54,0,0,1,30.18,8.65c30.23,15.37,48.44,39.78,53.58,73.28,3.65,23.73-1.46,46-14.54,66.22-21.52,33.31-60.8,50-100.39,41.87-29.48-6-51.63-22.8-65.76-49.35-13.59-25.54-15-52.26-5-79.36,6.14-16.62,16.65-30.47,29-43a9.75,9.75,0,0,1,1.51-1.07l-.59-.66c-3.54,2.28-7.25,4.34-10.58,6.89-18.9,14.42-30.22,33.73-35.78,56.57a107.5,107.5,0,0,0-2.13,39,109.32,109.32,0,0,0,26.9,59.4c.4,40.89.8,81.09,1.19,121.46-1.6,1.79-2.28,4-.7,6.19,1.72,2.37,1,4.81,1.28,7.54l-5.29-3-2.42,1.92,2.86,8.23c-1.64,1.89-3.09,3.44-4.38,5.11-1.5,1.94-.79,3.65,1.65,3.86,2,.18,4,0,5.77,0,2.11,2.54,2,6.33,5.81,8.1l4-8.39c2.38-.2,5.22.77,7.73-1.46-.76-3.47-4.45-4.39-6.16-7,1-3.11,3.93-5.52,3.6-9.13-1.78-1.24-3.08-.26-4.42.4l-4.49,2.19V536c3.27-3.2,3-5.49-.87-8.33l-2-107a162.94,162.94,0,0,0,12,32.06c-2,4.49-.81,6.52,4,7l1.39,2.13,1.45,2.19c-1.45,2.89-1.55,4.31-.33,5.94,1.69,2.27,4,2.63,6.57,1.84l4.14,3.79c.25.22.51.42.67.56.14,3.7,1.51,5.69,5.91,4.06A30.28,30.28,0,0,0,366.61,483.16ZM396.42,278.8l-.34-.3c.77-1.13,1.55-2.25,2.42-3.51l2.6,1Zm8.45-5-4.28-1.29,2-2.26,5.47,1.19Zm5.59-5.14-5.94-.55,2.51-2.66,5,.37Zm2.88-9.33.41.29c-.22,1.07-.45,2.14-.69,3.32h-3.6Zm-4.1-.75-15.38,17.66C393.39,270.88,399,260.15,409.24,258.6Zm-14.68-45.51c-.25,1.33-.49,2.65-.74,4C392.63,215.48,392.26,214,394.56,213.09Zm-21.72-34.57c.74.88,1.46,1.79,2.24,2.64,1,1.11,2.17,2,3.83,1.42a3.54,3.54,0,0,0,2.46-3.68,15.8,15.8,0,0,0-.18-3.16c-.44-2.05-1.95-2.85-4.57-2.07l1.39,3.15v1.89c-2.64-1.11-4.49-4.81-3.93-7.69a6.45,6.45,0,0,1,7.57,1.43,10.49,10.49,0,0,1,3.1,8.11c-.27,4.67-.71,9.32-1.07,14-4.62-3.08-7.86-7.55-10.81-12.24C372.29,181.37,372.58,179.89,372.84,178.52Zm.17,19.66.6-.1c3,8.66,5.47,17.39,2.77,26.77Q374.7,211.52,373,198.18Zm4.52,38.09c.53-5.65,1.64-11.25,2.27-16.9a37.7,37.7,0,0,0-4.95-23.66c-1.49-2.55-2.73-5.15-2.12-8.5l1,1.19c1.6,1.84,3.09,3.8,4.84,5.49a18.83,18.83,0,0,1,6,12.87c1,13.48-2.37,26.11-6,38.78a1.22,1.22,0,0,1-.2.32l-.58,0C377.65,242.69,377.23,239.45,377.53,236.27Zm-25.18,57.66,6.41,6.12c-.68,4.22-1.34,8.23-2,12.24l-.26,0q-2.34-9-4.67-18.09Zm-10.48-9.28c2.6,2.42,5.34,4.71,7.72,7.33.81.89.72,2.62,1,4,.55,2.85,1.05,5.7,1.57,8.56l-.15.14L341.55,285Zm.29,7.35.16-.1c3.77,8.13,7.53,16.27,11.5,24.85-1-.22-1.52-.28-2-.44-2-.65-4-1.32-6-2C344.57,306.84,343.37,299.42,342.16,292Zm37,63.5q-14.84-18.93-29.24-37.28c3.15.7,6,1.7,8.27,5.07,5.23,7.89,11.06,15.37,16.63,23,1.39,1.92,2.73,3.88,4.34,6.16Zm-.45-9.35c-2.61-3.48-5.15-7-7.84-10.45-3.64-4.63-7.36-9.2-11.11-13.73a6.85,6.85,0,0,1-1.61-6.39c.86-3.58,1.49-7.22,2.33-11.4.58,1.05.95,1.68,1.28,2.33,5.46,10.52,11,21,16.25,31.6,1.12,2.29.88,5.24,1.28,7.89Zm2.43-26.36c0-5.58-2-10.43-4-15.38-.19-.47-.44-.93-.67-1.41.17-.14.27-.28.37-.29.45,0,.9,0,1.27,0,.16.16.31.24.34.34,2.16,7.06,4.5,14.08,6.38,21.21,1,3.93-.25,8.95-2.66,13.38C381.77,331.39,381.11,325.59,381.15,319.79ZM380.92,285c.86,1.63,1.54,2.92,2.21,4.21,1.46,2.81,2.93,5.61,4.37,8.44a2.89,2.89,0,0,1,.45,1.46c-.52,5-1.1,9.92-1.67,14.88l-.37.07a42.38,42.38,0,0,0-2.22-5.58,23.37,23.37,0,0,1-2.81-13.88C381.14,291.56,380.92,288.52,380.92,285Zm5.85,47.8c3.57,9.85,1.89,19.33-3.59,28A47.38,47.38,0,0,1,386.77,332.77Zm2.71,22.79v11.76c0,2.71.18,5.45-.1,8.13-.41,4.05-1.46,4.67-6.06,3.78a17.13,17.13,0,0,1-.73-3.89c.28-7.16,3.13-13.53,6.16-19.83Zm-.12-113.17a8.78,8.78,0,0,0,1.44-1.74l.48.27c-1.13,2.57-2.11,5.21-3.42,7.7A40.63,40.63,0,0,0,383,268c0,4.25,2.7,7.2,5,10.32a9.49,9.49,0,0,0,.69.76v12.6l-.49.14c-.44-.89-.89-1.78-1.31-2.68-1.9-4.06-4.3-8-5.58-12.22-2.49-8.23-2.37-16.79-1.08-25.2,1.11-7.29,3.05-14.45,4.63-21.67l.63,0c0,2.75,0,5.49,0,8.23a11.84,11.84,0,0,0,.14,3.16,2.82,2.82,0,0,0,1.56,1.75C387.83,243.42,388.74,242.86,389.36,242.39Zm-1.2,31.35c-3.16-2-3.74-10.15-.91-16.83C387.57,262.87,387.87,268.31,388.16,273.74Zm1.11-45.38-.81-.08c.14-1.89.29-3.78.43-5.67l1,.11Zm2.89-.55a43.15,43.15,0,0,1,7.09-15.51A21.85,21.85,0,0,1,392.16,227.81Zm-35.1,212.34a114.23,114.23,0,0,0,40.41,3c-.65,9-20.33,32.38-29.51,34.74ZM465.4,418.91q-3.84,15.51-7.89,31a15.38,15.38,0,0,1-1.71,3c-.36.68-1,1.54-.84,2.13,1,3.57-1.44,6.32-1.89,9.38-3.29,2.1-3.53,2.79-2.27,6.4-.34,1-.72,2-1.08,3-5,1.13-5.56,4.88-3.17,8-.9,2.07-1.74,4.29-2.8,6.41q-4.32,8.6-8.8,17.13a4.58,4.58,0,0,1-1.7,1.82,4.24,4.24,0,0,0-2.4,5c-2.33,2.82-4.76,5.76-7,8.51-4.6.29-5.63,1.08-6.79,5.15l-4,1.9c-2.93-1.6-5.8-2.31-8.52.78-10.36-2.83-16.23-10.75-21.8-19,1-4.94-.08-6.77-4.28-7.67-.35-.68-.77-1.43-1.14-2.2-1-2-1.92-4.06-2.81-5.95.73-3.54.56-4-2.17-5.13L369.8,482c14.18-7.15,22.57-19.42,29.55-33.3,0,4.16,0,8,0,11.77,0,5.3-.19,10.6-.18,15.89,0,1.41-.49,3.57,1.63,3.69,2.35.12,1.76-2.18,1.76-3.5-.08-10.66-.28-21.32-.45-32v-2c26-4.28,47.83-16.29,65.87-35.6C467.12,411,466.38,415,465.4,418.91ZM313.62,544.41c-.7,2.34-2,4.36-1.62,6.05s2.28,3,3.38,4.37c-1.32.55-3,.87-4.11,1.81s-1.8,2.52-2.68,3.83c-1-1.36-1.88-3.3-3.35-4.21s-3.63-.84-5.87-1.27a32.82,32.82,0,0,1,3.21-3.24c1.58-1.23,1.59-2.6.82-4.19L302,544.62l.18-.55C305.84,547.81,309.67,547.33,313.62,544.41ZM287.05,374.24c-16.61-40.74-4.84-83,16.46-107.18-16.33,24.57-21.76,51.28-15.1,80.08,5.35,23.19,17.78,42.07,36.71,56.46A99.67,99.67,0,0,0,451.38,399c34.89-30.53,46.83-86.66,15.92-131.78,6.48,4.32,18.73,29.1,21.92,44.73a106.19,106.19,0,0,1-202.17,62.31Zm51.52,99.14-4.22-3.94c.63-5.85-.72-7.49-6.23-7.58l-3-4.56c.1-3.05.33-4.07-3.26-5.9-6.44-12.38-10.7-25.69-14-39.41A112.63,112.63,0,0,0,355,439.55c1.58,6.82,3,13.48,4.68,20.07s3.6,13,5.47,19.7a25,25,0,0,1-21-2.15C342.71,473.75,342.18,473.39,338.57,473.38ZM393.3,690.81a2.75,2.75,0,0,0-2.29-.47c-.48.22-.8,1.41-.72,2.12.39,3.53-1.46,6.22-5.09,7.14-3.42-1.2-4.91-3.68-4.54-7.34.06-.62-.21-1.63-.63-1.84a3,3,0,0,0-2.16.16,4.33,4.33,0,0,0-1.43,1.34,11.32,11.32,0,0,0-1.28,12.3c2,3.92,6.81,6.74,10.89,6.4a12,12,0,0,0,10.37-8C397.78,698.4,396.47,693.23,393.3,690.81Zm-2.44,13.74c-3,2.63-6.44,3-9.47,1.11a7.25,7.25,0,0,1-3.25-8.55c3.6,7.19,10.59,8,14.51.19A6.44,6.44,0,0,1,390.86,704.55Zm34.58-6.93c-3.16-.62-6.36-1-9.66-1.53.38-.85.86-1.77,1.21-2.74.5-1.39,1-2.86-.36-4.05s-2.91-.73-4.27,0a15.31,15.31,0,0,0-7.12,7.48,12.19,12.19,0,0,0-.87,5c.16,4.75,3,8.22,6.15,11.39a7.41,7.41,0,0,0,2.87,1.68,2.45,2.45,0,0,0,3.35-2.33,11.26,11.26,0,0,0-.66-3.66,29.33,29.33,0,0,0-1.68-3.55,18.34,18.34,0,0,0,2.13,0c3-.34,6.05-.56,9-1.14,1.75-.34,4-.83,3.86-3.25C429.29,698.7,427.27,698,425.44,697.62Zm-10.86-6.48c-.75,3.76-2.12,6.2-6.85,6.26A13.1,13.1,0,0,1,414.58,691.14Zm-6.81,13,3.54.8,2.9,6.6C411.7,710.67,409,707.5,407.77,704.13Zm-.5-3.08a30.48,30.48,0,0,1,18.68.17A31.8,31.8,0,0,1,407.27,701.05Zm33.06-43.51c.24.63,1.5.87,2.29,1.28.37-.75,1.14-1.55,1.06-2.25-1.35-11.55-4.77-22.63-7.92-33.76-.24-.85-1.24-1.49-1.89-2.22-.74.73-1.86,1.33-2.17,2.21-1.21,3.43-2.22,6.92-3.19,10.43s-1.77,7-2.62,10.47c-1.62.85-4.2.28-4.15,2.78,0,.89,1.48,1.75,2.28,2.62l.56-.29c-.22.89-.46,1.76-.67,2.65a15.41,15.41,0,0,0-.88,4,3.18,3.18,0,0,0,1.61,2.47c.71.19,1.86-.73,2.61-1.4.42-.37.43-1.22.62-1.85l1.83-6.16h7.77C438.43,651.69,439.24,654.67,440.33,657.54ZM431,643.34c.89-4.29,1.73-8.38,2.57-12.47H434c.91,3.94,1.82,7.89,2.79,12.12Zm7.76,59.3a2,2,0,0,0-2,2.4c.12.79,1,1.47,1.33,1.85,2.14,0,2.74-.88,2.75-2.12A1.9,1.9,0,0,0,438.76,702.64Zm-28.82-46.37a3.79,3.79,0,0,0,3.83,2.61c1.79-.13,2.21-1.67,2.51-3.14.64-3.12,1.13-6.26,1.89-9.35,1.79-7.33,3.71-14.62,5.52-21.95a17.61,17.61,0,0,0,.21-3.16l-3.4-1.3c-4.63,9.43-5.06,19.94-8.52,30.15-.92-2.18-1.77-3.89-2.36-5.68-.7-2.13-1.05-4.39-1.81-6.5a10.85,10.85,0,0,0-2-2.64,10.36,10.36,0,0,0-2.4,2.25,38.39,38.39,0,0,0-2,5c-.61,1.63-1.2,3.28-1.8,4.92-.87-2.88-1.33-5.69-2-8.45-1.29-5.48-2.6-10.94-4.1-16.36a3.23,3.23,0,0,0-2.31-1.93c-1.49,0-1.72,1.46-1.62,2.68a72.26,72.26,0,0,0,.83,7.5c1.5,8.13,3.11,16.25,4.69,24.38.33,1.74,1.26,3.15,3.15,2.83a3.94,3.94,0,0,0,2.41-2.16c1.53-3.71,2.81-7.53,4.26-11.51C406.7,648.62,408.31,652.45,409.94,656.27ZM332.1,702.64a1.89,1.89,0,0,0-2.05,2.15c0,1.24.61,2.14,2.77,2.09.29-.38,1.19-1.07,1.31-1.86A2,2,0,0,0,332.1,702.64ZM375.64,639c-.2-1.66-1.49-2-2.94-2-1.25,0-2.48.14-3.9.23-.22-4-.43-7.77-.65-11.81,1.05,0,1.83.06,2.6,0,2.1-.2,4.21-.36,6.28-.73,1.49-.27,1.92-1.26,1-2.82-4.4-1.48-8.87-1.09-13.81.12a27.5,27.5,0,0,0-.59,3.9q-.06,14.29,0,28.61A12.31,12.31,0,0,0,364,657c.29,1.34,1.25,1.74,2.54,1.66a2.09,2.09,0,0,0,2.27-2c.07-.85,0-1.72,0-2.58V641.79c1.79,0,3.11.11,4.42,0C374.78,641.6,375.86,640.7,375.64,639ZM586.05,526.58a2.91,2.91,0,0,0,2,1.85c.78,0,1.59-1,2.39-1.54,0-.33,0-.65,0-1-.82-.53-1.61-1.41-2.47-1.49A1.7,1.7,0,0,0,586.05,526.58Zm2,57.48a1.69,1.69,0,0,0-2,2,2.9,2.9,0,0,0,1.87,1.95c.78.08,1.65-.88,2.48-1.39l0-1C589.64,585.12,588.9,584.2,588,584.06Zm-2-47.64a2.88,2.88,0,0,0,1.88,1.94c.78.07,1.64-.89,2.47-1.41,0-.32,0-.64,0-1-.79-.57-1.53-1.49-2.39-1.62A1.68,1.68,0,0,0,586.05,536.42Zm4.34-80.13c-.83-.5-1.64-1.37-2.5-1.43a1.7,1.7,0,0,0-1.84,2.19,2.91,2.91,0,0,0,2,1.8c.78,0,1.57-1,2.36-1.58C590.42,456.94,590.4,456.62,590.39,456.29Zm-2.45,151.65c.77.06,1.63-.9,2.46-1.42l0-1c-.79-.56-1.53-1.48-2.39-1.61a1.69,1.69,0,0,0-2,2A2.89,2.89,0,0,0,587.94,607.94Zm-1.89-61.58a2.89,2.89,0,0,0,1.89,1.94c.77.07,1.64-.9,2.46-1.42,0-.32,0-.64,0-1-.79-.56-1.54-1.49-2.4-1.61A1.68,1.68,0,0,0,586.05,546.36ZM606.18,51.27c0-1.19,0-2.38,0-3.57-.12-13.28-9.64-22.7-22.92-22.7H187.53c-13.44,0-22.94,9.44-22.94,22.82V375q0,163.78,0,327.56a23.13,23.13,0,0,0,.61,5.5c2.62,10.62,11.25,17,22.92,17H583.69c8.2-.19,14.67-3.55,19.15-10.51,2.73-4.22,3.36-9,3.35-13.87Q606.17,375.95,606.18,51.27ZM583.05,720.72H187.5c-9.23,0-16.35-5.43-18.24-14a23.26,23.26,0,0,1-.37-4.94q0-163.49,0-327V47.61c0-9,5.37-16,13.86-17.93a19.7,19.7,0,0,1,4.34-.39H583.81a17.68,17.68,0,0,1,18.09,17.9c0,1.2,0,2.39,0,3.58v651C601.9,713.15,594.4,720.72,583.05,720.72Zm8.25-334c-8.06-4.77-15.76,1.69-18,7.64a3.51,3.51,0,0,0,.5,3.05,3.85,3.85,0,0,0,3,.66,18.21,18.21,0,0,0,3.78-1.46c.34,2.79.5,5.49,1,8.12a13.29,13.29,0,0,0,2,4.66c1,1.48,2.83,1.3,3.78-.25a9.88,9.88,0,0,0,1.37-3.47c.53-3.37.85-6.77,1.26-10.17,1.56.64,3.16,1.45,4.85,2,1.49.45,3.1.48,4.1-1.06a3.06,3.06,0,0,0-.64-4A42.28,42.28,0,0,0,591.3,386.74Zm-15.67,8.69c1-3.28,3.37-5.1,6.12-7C581.77,393.27,579.11,394.8,575.63,395.43Zm9.71,11.75a38.07,38.07,0,0,1-.26-19.34C587.41,390.9,587.57,403.73,585.34,407.18Zm4-15c-.22-.92-.36-1.5-.48-2.07s-.18-.87-.28-1.35c2.57.62,6.1,3.4,7.07,6.1Zm-1.26,52.69a2.76,2.76,0,0,0-2,1.6c-.47,1.43.44,2.33,2,2.69,1.52-.34,2.48-1.19,2-2.64A2.77,2.77,0,0,0,588.06,444.91Zm1.79-17.22a3.43,3.43,0,0,0-.75-2.71,2.31,2.31,0,0,0-2.42,3.89C588.09,429.17,589.49,429.27,589.85,427.69ZM588,558.24c.77,0,1.59-1,2.38-1.54l0-1c-.82-.52-1.61-1.4-2.48-1.48a1.69,1.69,0,0,0-1.87,2.15A2.91,2.91,0,0,0,588,558.24Zm.08-123.71c-1.52,0-2.12,1.08-2.19,2.5s.8,2.26,2,2.06c.92-.15,1.7-1.11,2.54-1.71C590.13,435.53,589.59,434.51,588.12,434.53Zm-.23,229.05a1.7,1.7,0,0,0-1.84,2.18,2.89,2.89,0,0,0,2,1.8c.78,0,1.57-1,2.36-1.58,0-.32,0-.65,0-1C589.56,664.5,588.75,663.64,587.89,663.58Zm0-85.46c.77.07,1.64-.88,2.47-1.39l0-1c-.78-.57-1.51-1.5-2.37-1.63a1.68,1.68,0,0,0-2,2A2.92,2.92,0,0,0,587.92,578.12Zm.11,45.7a1.68,1.68,0,0,0-2,2,2.88,2.88,0,0,0,1.88,1.94c.78.07,1.64-.89,2.47-1.41l0-1C589.63,624.87,588.89,624,588,623.82Zm-2-117.17a2.89,2.89,0,0,0,1.93,1.89c.78,0,1.62-.93,2.43-1.46,0-.33,0-.65,0-1-.81-.55-1.57-1.45-2.44-1.56A1.69,1.69,0,0,0,586.05,506.65Zm4.34,88.79c-.83-.51-1.64-1.37-2.5-1.44a1.71,1.71,0,0,0-1.84,2.19,2.93,2.93,0,0,0,2,1.81c.78,0,1.57-1,2.36-1.58C590.41,596.09,590.4,595.77,590.39,595.44Zm-4.34,60.36a2.91,2.91,0,0,0,2,1.83c.78,0,1.58-1,2.37-1.56l0-1c-.83-.52-1.63-1.39-2.49-1.46A1.69,1.69,0,0,0,586.05,655.8Zm0-9.95a2.88,2.88,0,0,0,2,1.84c.78,0,1.59-1,2.39-1.54,0-.32,0-.64,0-1-.82-.52-1.61-1.4-2.47-1.48A1.69,1.69,0,0,0,586.05,645.85Zm1.89-8.1c.77.07,1.63-.9,2.46-1.42l0-1c-.79-.56-1.53-1.49-2.39-1.61a1.68,1.68,0,0,0-2,2A2.89,2.89,0,0,0,587.94,637.75Zm0-139.14c.77.05,1.62-.93,2.44-1.46,0-.32,0-.64,0-1-.81-.55-1.56-1.46-2.42-1.57a1.68,1.68,0,0,0-2,2.08A2.93,2.93,0,0,0,588,498.61Zm-1.92,18a2.93,2.93,0,0,0,2,1.84c.77,0,1.58-1,2.38-1.54,0-.33,0-.65,0-1-.82-.52-1.61-1.4-2.47-1.48A1.7,1.7,0,0,0,586.05,516.65Zm0-29.87a2.9,2.9,0,0,0,1.94,1.89c.78.05,1.61-.94,2.42-1.48v-1c-.81-.54-1.57-1.44-2.44-1.54A1.68,1.68,0,0,0,586.05,486.78Zm0-10a2.91,2.91,0,0,0,1.92,1.91c.78,0,1.62-.93,2.44-1.46,0-.32,0-.64,0-1-.81-.55-1.57-1.46-2.43-1.57A1.68,1.68,0,0,0,586.05,476.82Zm1.94-12a1.68,1.68,0,0,0-1.94,2.08,2.91,2.91,0,0,0,1.92,1.91c.77.06,1.62-.92,2.44-1.45,0-.32,0-.64,0-1C589.61,465.82,588.86,464.91,588,464.8Zm0,103.38c.78,0,1.6-1,2.41-1.51v-1c-.82-.53-1.6-1.42-2.46-1.51a1.69,1.69,0,0,0-1.9,2.12A2.88,2.88,0,0,0,588,568.18ZM182.55,407.1c.29,1.53,1,3.26,3,3.21s2.65-1.76,3.19-3.34a17.27,17.27,0,0,0,.83-3.46c.29-2.22.45-4.46.69-6.93a16.66,16.66,0,0,0,3.56,1.43c1.06.16,2.66.14,3.22-.5a3.86,3.86,0,0,0,.49-3.39,14.73,14.73,0,0,0-9.47-8.65c-5.73-1.79-12.77,3.12-15.55,7-.88,1.22-1.51,2.58-.52,4s2.51,1.42,3.94,1a34.24,34.24,0,0,0,3.84-1.55c.45-.18.9-.38,1-.42C181.33,399.45,181.82,403.3,182.55,407.1Zm12.66-12-.39.62-5-2.81c-.32-1.56-.57-2.83-.94-4.6C191.9,390.28,194.15,392.18,195.21,395.14Zm-9.77-7a30.24,30.24,0,0,1-.14,18.65A31.78,31.78,0,0,1,185.44,388.17ZM175.11,395c.6-2.42,4.27-5.48,7.23-6.28-.24,1.07-.46,2.08-.75,3.39ZM321.64,702.86a2.84,2.84,0,0,0-1.88,1.95,1.69,1.69,0,0,0,2.09,2c.84-.16,1.55-1,2.31-1.57,0-.3,0-.6,0-.91C323.31,703.77,322.44,702.8,321.64,702.86ZM182.88,524.43c-.86.11-1.62,1-2.42,1.57v1c.82.53,1.67,1.51,2.44,1.46a2.91,2.91,0,0,0,1.92-1.91A1.68,1.68,0,0,0,182.88,524.43Zm.74-304.75c-.78,0-1.58,1-2.38,1.56l0,1c.83.51,1.62,1.39,2.49,1.46a1.69,1.69,0,0,0,1.86-2.16A2.91,2.91,0,0,0,183.62,219.68Zm.49,205.52a2.53,2.53,0,0,0-2.39-.2,3.5,3.5,0,0,0-.67,2.75c.41,1.56,1.8,1.44,3.27,1.05A2.53,2.53,0,0,0,184.11,425.2Zm10.26-63.6c1.18.12,2.1-.31,2-1.53a4,4,0,0,0-1.18-2.17,11.12,11.12,0,0,0-11.95-2.32c-4.31,1.74-7.55,6.3-7.36,10.87A11.38,11.38,0,0,0,183,376.88c4.35,2,10,.79,12.69-2.67a3.32,3.32,0,0,0,.47-2.47c-.07-.35-1.33-.69-2-.62-3.61.41-6.19-1.33-7.24-5.1C188.31,362.48,190.5,361.2,194.37,361.6Zm-5.19,11.87c-2.14,1.13-5.33.37-7.19-1.71-2.79-3.12-3.1-6.81-.83-10,2-2.77,5.27-3.88,8.07-2.72C181.63,363,182,370,189.18,373.47ZM180,346.06c8.11,4.55,15.82-2.41,17.74-8.05.85-2.49-.9-4.25-3.45-3.58A34.23,34.23,0,0,0,190.3,336c-.34-2.8-.51-5.51-1-8.15a12.65,12.65,0,0,0-1.87-4.5c-1.13-1.65-3-1.44-4,.32a9.83,9.83,0,0,0-1.24,3.32c-.52,3.36-.85,6.76-1.25,10.12-1.5-.61-3.15-1.43-4.89-1.95-1.49-.45-3.11-.47-4.09,1.09a3.08,3.08,0,0,0,.68,4A42.46,42.46,0,0,0,180,346.06Zm15.28-8.89c-.95,3.32-3.41,5.05-6.1,7C189.09,339.35,191.74,337.81,195.23,337.17Zm-10.35-11.65c2.45,2.71,2.69,15.11.36,19.44A41.55,41.55,0,0,1,184.88,325.52Zm-9.55,12.16,6.22,2.72c.28,1.22.53,2.28.88,3.76a18.44,18.44,0,0,1-7.47-5.88Zm7.55,156.93c-.87.12-1.62,1-2.42,1.59v1c.82.53,1.67,1.51,2.45,1.45a2.89,2.89,0,0,0,1.91-1.92A1.68,1.68,0,0,0,182.88,494.61Zm2-37.74c-.18-.88-1.07-1.62-1.64-2.42l-.91,0c-.5.84-1.44,1.72-1.37,2.52a2.85,2.85,0,0,0,1.92,1.88A1.67,1.67,0,0,0,184.84,456.87Zm0-10.47a2,2,0,0,0-4,.26c-.39,1.47.62,2.27,2.08,2.53C184.4,448.85,185.33,447.91,184.81,446.4Zm-2-7.26c1.25,0,2.13-.61,2.08-2.58a2.06,2.06,0,0,0-2.11-2c-1.45-.07-2.06.91-2.07,2.29A2,2,0,0,0,182.85,439.14Zm-.43,65c-.55.81-1.53,1.64-1.51,2.43a2.85,2.85,0,0,0,1.82,2,1.67,1.67,0,0,0,2.11-1.9c-.13-.89-1-1.67-1.5-2.51Zm0-29.82c-.56.8-1.55,1.61-1.54,2.41a2.87,2.87,0,0,0,1.78,2,1.66,1.66,0,0,0,2.13-1.86c-.1-.89-.94-1.69-1.46-2.53Zm.51-9.53c-.87.07-1.67.95-2.49,1.46l0,1c.79.56,1.59,1.58,2.37,1.56a2.87,2.87,0,0,0,2-1.82A1.69,1.69,0,0,0,183,464.8Zm0,49.69c-.86.08-1.66,1-2.49,1.46l0,1c.79.57,1.59,1.59,2.37,1.57a2.9,2.9,0,0,0,2-1.82A1.69,1.69,0,0,0,183,514.49Zm2.65-392.26a2.89,2.89,0,0,0-1.89-1.94c-.78-.06-1.64.9-2.46,1.42l0,1c.8.57,1.54,1.49,2.41,1.62A1.69,1.69,0,0,0,185.62,122.23Zm-2,71.63a1.69,1.69,0,0,0,2-2,2.9,2.9,0,0,0-1.86-2c-.78-.08-1.65.88-2.49,1.39l0,1C182,192.79,182.76,193.72,183.61,193.86Zm0,49.69a1.69,1.69,0,0,0,2-2,2.9,2.9,0,0,0-1.86-2c-.78-.08-1.65.88-2.49,1.38l0,1C182,242.48,182.76,243.41,183.62,243.55Zm-2.38-31.43c.8.57,1.54,1.49,2.4,1.62a1.69,1.69,0,0,0,2-2.06,2.9,2.9,0,0,0-1.89-1.93c-.77-.07-1.64.89-2.46,1.41Zm4.38,89a2.91,2.91,0,0,0-1.87-2c-.77-.07-1.65.88-2.48,1.39l0,1c.79.58,1.52,1.51,2.38,1.65A1.69,1.69,0,0,0,185.62,301.16Zm0-99.3c-.11-.88-1-1.66-1.5-2.49h-.92c-.54.81-1.53,1.63-1.5,2.42a2.88,2.88,0,0,0,1.82,2A1.7,1.7,0,0,0,185.63,201.86Zm-1.94-21.94c-.78,0-1.62.94-2.44,1.48v1c.81.55,1.57,1.45,2.44,1.56a1.69,1.69,0,0,0,1.93-2.09A2.92,2.92,0,0,0,183.69,179.92Zm1.93-67.63a2.89,2.89,0,0,0-1.89-1.94c-.77-.06-1.64.9-2.46,1.42,0,.32,0,.64,0,1,.79.57,1.53,1.49,2.39,1.62A1.69,1.69,0,0,0,185.62,112.29ZM183.12,100c-.51.83-1.46,1.7-1.41,2.49a2.87,2.87,0,0,0,1.89,1.93,1.69,1.69,0,0,0,2-2c-.15-.87-1-1.63-1.59-2.43Zm.59-15.45a1.69,1.69,0,0,0,1.91-2.12,2.9,2.9,0,0,0-2-1.87c-.78,0-1.6,1-2.41,1.5v1C182.08,83.54,182.85,84.43,183.71,84.53Zm1.92,7.93c-.15-.87-1-1.62-1.59-2.43l-.92,0c-.51.83-1.46,1.69-1.41,2.48a2.87,2.87,0,0,0,1.89,1.93A1.69,1.69,0,0,0,185.63,92.46Zm-.69,220.47a2.45,2.45,0,0,0,.05-3.63c-1.41-.3-2.81-.4-3.18,1.17a3.53,3.53,0,0,0,.76,2.73A2.49,2.49,0,0,0,184.94,312.93Zm.68-141a2.9,2.9,0,0,0-1.87-2c-.77-.08-1.65.88-2.48,1.39l0,1c.79.57,1.52,1.5,2.38,1.64A1.69,1.69,0,0,0,185.62,172Zm37.32,530.48-.9,0c-.58.72-1.49,1.38-1.68,2.2-.29,1.26.54,2.15,1.89,2.25a1.8,1.8,0,0,0,2.13-2C224.3,704,223.45,703.22,222.94,702.43Zm29.06.37c-1.24-.17-1.93.84-1.88,2s.92,2.21,2.21,1.93c.84-.18,1.52-1.07,2.27-1.64l0-.9A8.24,8.24,0,0,0,252,702.8Zm-9.82.05a2.84,2.84,0,0,0-1.94,1.86,1.68,1.68,0,0,0,1.95,2.06c.88-.14,1.64-1,2.46-1.55v-.9C243.82,703.79,243,702.82,242.18,702.85ZM184.84,546.34c-.17-.88-1.05-1.63-1.62-2.43l-.91,0c-.51.84-1.45,1.71-1.39,2.5a2.84,2.84,0,0,0,1.9,1.91A1.67,1.67,0,0,0,184.84,546.34Zm0,119.39a1.68,1.68,0,0,0-1.87-2.15c-.86.07-1.65.95-2.48,1.48l0,1c.8.56,1.61,1.57,2.38,1.55A2.91,2.91,0,0,0,184.82,665.73Zm2.63,16.4c-1.55.13-3.08.61-3.46,2.43s.76,2.92,2.16,3.64c1.62.83,3.36,1.45,5.14,2.2L190,691.59c-2.84,2.71-5.43,5.62-6.85,9.36-.92,2.46.31,4,2.89,3.58a7.42,7.42,0,0,0,2.92-1.11c2.61-1.78,5.12-3.7,7.83-5.67a22.42,22.42,0,0,0,.76,2.37c.65,1.51,1.22,3.26,3.3,3.19s2.74-1.71,3.13-3.34a21.28,21.28,0,0,0,.69-4.89c0-3.32-.74-6.56-3.25-8.88C197.51,682.57,192.61,681.72,187.45,682.13Zm-.43,3.64c2.3-1.17,6-.85,10,.69l-3.2,2ZM185.64,702c1.12-4.21,9.73-12.49,14.26-13.78A37.74,37.74,0,0,1,185.64,702Zm15.4-1.42c-2.57-3.06-2.32-6.14.68-9.26C202.32,694.46,202.65,697.49,201,700.53Zm31.08,2.27c-1.24-.17-1.94.84-1.88,2s.93,2.21,2.22,1.93c.83-.19,1.51-1.07,2.26-1.64l0-.9A8.24,8.24,0,0,0,232.12,702.8Zm69.3-.4c-.55.76-1.42,1.46-1.56,2.29a1.68,1.68,0,0,0,2,2.06,2.87,2.87,0,0,0,2-1.87c.06-.79-.93-1.65-1.47-2.48Zm-9.92,0c-.55.8-1.45,1.54-1.58,2.41a1.68,1.68,0,0,0,2.05,2c.79-.18,1.88-1.19,1.92-1.89s-.91-1.64-1.44-2.46Zm19.81,0c-.53.77-1.39,1.49-1.52,2.32a1.7,1.7,0,0,0,2,2c.79-.17,1.91-1.21,1.94-1.91s-1-1.63-1.51-2.45Zm-49.62,0c-.56.8-1.46,1.55-1.58,2.41a1.67,1.67,0,0,0,2.05,2,2.9,2.9,0,0,0,1.92-1.89c.05-.79-.92-1.64-1.44-2.46Zm10.24.47a2.82,2.82,0,0,0-1.87,1.92,1.67,1.67,0,0,0,2,2c.87-.17,1.6-1.06,2.4-1.63l0-.9C273.61,703.73,272.73,702.8,271.93,702.86Zm9.59-.46c-.54.81-1.42,1.57-1.53,2.43a1.67,1.67,0,0,0,2.08,1.93,2.89,2.89,0,0,0,1.89-1.92c0-.78-.94-1.62-1.48-2.43Zm-98.29-98.86-.92,0c-.51.84-1.45,1.71-1.39,2.51a2.86,2.86,0,0,0,1.9,1.91,1.68,1.68,0,0,0,2-2C184.67,605.09,183.79,604.34,183.23,603.54Zm-.51,54.13a1.68,1.68,0,0,0,2.12-1.9c-.13-.89-1-1.68-1.49-2.51l-.92,0c-.55.81-1.54,1.63-1.51,2.43A2.85,2.85,0,0,0,182.72,657.67Zm2.12-81.43c-.13-.89-1-1.67-1.51-2.5h-.93c-.54.81-1.52,1.65-1.49,2.44a2.85,2.85,0,0,0,1.83,2A1.67,1.67,0,0,0,184.84,576.24Zm-2.21-87.54a1.77,1.77,0,0,0,2.26-1.81,1.83,1.83,0,0,0-1.91-2.22c-.83,0-1.63.82-2.44,1.27l-.12.9C181.15,487.48,181.79,488.47,182.63,488.7Zm-2.17,68c.8.55,1.63,1.55,2.4,1.51a2.88,2.88,0,0,0,2-1.87,1.68,1.68,0,0,0-1.9-2.12c-.86.09-1.64,1-2.45,1.52C180.46,556.09,180.46,556.41,180.46,556.73Zm0,29.87c.82.53,1.67,1.51,2.45,1.46a2.89,2.89,0,0,0,1.91-1.92,1.69,1.69,0,0,0-1.94-2.08c-.86.12-1.62,1-2.42,1.58Zm2.17-48.21a1.77,1.77,0,0,0,2.26-1.81,1.83,1.83,0,0,0-1.91-2.21c-.83,0-1.63.82-2.44,1.27l-.11.89C181.15,537.18,181.79,538.17,182.63,538.39Zm-2.16,58.19c.83.52,1.69,1.49,2.47,1.42a2.91,2.91,0,0,0,1.89-2,1.69,1.69,0,0,0-2-2c-.86.13-1.6,1-2.4,1.62C180.46,595.94,180.47,596.26,180.47,596.58Zm4.37,49.18c-.16-.89-1-1.65-1.58-2.46h-.92c-.52.83-1.47,1.69-1.42,2.49a2.82,2.82,0,0,0,1.88,1.93A1.67,1.67,0,0,0,184.84,645.76Zm0-29.89c-.19-.88-1.09-1.61-1.67-2.4l-.91,0c-.49.85-1.41,1.74-1.34,2.54a2.83,2.83,0,0,0,2,1.86A1.66,1.66,0,0,0,184.84,615.87ZM183,564.19c-.86.08-1.65.95-2.48,1.48l0,1c.8.57,1.61,1.58,2.38,1.56a2.93,2.93,0,0,0,2-1.85A1.68,1.68,0,0,0,183,564.19Zm-.21,73.6a1.68,1.68,0,0,0,2.1-1.92c-.13-.89-1-1.67-1.52-2.49l-.92,0c-.54.82-1.51,1.65-1.48,2.45A2.85,2.85,0,0,0,182.74,637.79Zm2.1-12c-.18-.88-1.07-1.62-1.64-2.42l-.92,0c-.5.84-1.43,1.72-1.36,2.51a2.82,2.82,0,0,0,1.93,1.89A1.67,1.67,0,0,0,184.84,625.83Z"/></svg>