<svg xmlns="http://www.w3.org/2000/svg" viewBox="0 0 750 750"><path d="M302.26,626.08c.73-.05,1.88-.83,2-1.42a3.38,3.38,0,0,0-1-2.5,3.32,3.32,0,0,0-2.22-.55c-2.58,0-5.15.22-7.74.33-3.66.14-4.54,1-4.62,4.66a18.73,18.73,0,0,0,.08,2c.48,5.13,1.07,10.25,1.42,15.39.28,4,.25,7.94.41,11.91.05,1.15.28,2.3.45,3.66a24,24,0,0,0,2.94.2c2.58-.13,5.16-.41,7.73-.53,2.8-.12,4.12-.84,4.13-2.41,0-1.73-1.64-2.67-4.45-2.46-2,.14-3.93.39-5.87.58V643.83c2,0,3.74.06,5.45,0,1.53-.07,3.06-.44,3.12-2.34.06-2.05-1.55-2.42-3.13-2.57-1.76-.17-3.54-.23-5.43-.34-.25-4.1-.49-8-.75-12.42C297.39,626.15,299.83,626.26,302.26,626.08Zm-23.54,6.24c.07.9.71,2.3,1.35,2.47a3.65,3.65,0,0,0,2.93-.9,3.75,3.75,0,0,0,.75-2.7,16.28,16.28,0,0,0-.89-3.85c-1.36-4.16-6-6-9.59-3.5a17,17,0,0,0-4.79,5.4A27.86,27.86,0,0,0,265.39,646,19.79,19.79,0,0,0,269,656.3c3.33,4.42,8.48,4.75,12.3.78a19.38,19.38,0,0,0,4.84-9.84A1.77,1.77,0,0,0,286,646a2.27,2.27,0,0,0-4,.22c-1,2-2.31,4.71-2.61,5.18-1,1.52-1.92,3.3-4,3.18s-2.91-2.13-3.57-3.84a23.5,23.5,0,0,1-.93-13.67,39.94,39.94,0,0,1,3.25-8.41,2.9,2.9,0,0,1,3.5-1.67C279.33,628.48,278.58,630.47,278.72,632.32Zm-36.16,27.47c1.57.26,2.2-.85,2.61-2.16.66-2.13,1.37-4.25,2.08-6.44h8.15c.65,2.15,1.2,4.19,1.9,6.18.46,1.3,1.24,2.55,2.88,2.09s1.64-1.89,1.33-3.27c-.83-3.75-1.68-7.48-2.53-11.22-1.56-6.84-3.12-13.67-4.73-20.49a16,16,0,0,0-1.08-2.58c-2.26-.28-3.32.71-3.81,2.32-.9,3-1.7,6-2.52,9-1.17,4.25-2.32,8.5-3.48,12.76a25.67,25.67,0,0,0-4.75.54,2.77,2.77,0,0,0-1.72,2c0,.67,1,1.59,1.79,1.92a13.71,13.71,0,0,0,3.37.56c-.42,2.06-.87,3.91-1.16,5.78C240.67,658.1,240.82,659.51,242.56,659.79Zm9-26.71.28,0c.8,4.13,1.59,8.25,2.42,12.58h-5.73C249.57,641.44,250.57,637.26,251.58,633.08ZM387.24,87.26c-.3-.8-1.14-1.41-2.09-2.54-4.2,6.64-6.53,13.54-9.77,20.25a27.2,27.2,0,0,0-4,.31c-.7.16-1.27.89-1.89,1.36a7.56,7.56,0,0,0,1.64,1.61,10.26,10.26,0,0,0,2.63.53c-.85,2-1.65,3.92-2.4,5.81-.47,1.16-.78,2.45.73,3s2.17-.49,2.68-1.68l3-7h13.74c.88,2.54,1.68,4.92,2.52,7.28.42,1.2,1.2,2,2.55,1.5s1.24-1.66.87-2.69Q392.4,101.11,387.24,87.26ZM379.42,105c2-5.08,3.94-9.89,6-15.1,1.66,5.21,3.2,10.06,4.8,15.1ZM586,496.64a2.92,2.92,0,0,0,1.86,2c.77.08,1.65-.88,2.48-1.38l0-1c-.79-.58-1.52-1.51-2.37-1.65A1.68,1.68,0,0,0,586,496.64Zm2,57.61a1.68,1.68,0,0,0-2,2,2.88,2.88,0,0,0,1.85,2c.77.09,1.65-.87,2.49-1.37l0-1C589.63,555.33,588.91,554.39,588.05,554.25Zm-209.7-497a2.72,2.72,0,0,0,2.29.48c.48-.23.81-1.41.73-2.12A6.47,6.47,0,0,1,386,48.5c3.73,1,5.46,3.49,5,7.34-.17,1.28.24,2.2,1.57,2.15a3.6,3.6,0,0,0,2-1.09A11.13,11.13,0,0,0,397,45a11.48,11.48,0,0,0-21.4-.37C373.73,49,374.89,54.61,378.35,57.29Zm3.51-14.64c2.89-2,6-1.88,9,.32A6.86,6.86,0,0,1,393.49,51c-1.53-3.17-3.61-5.84-7.17-5.78s-5.89,2.37-7.36,6C378,47.49,379.08,44.58,381.86,42.65Zm32.55,16.62c2.58.92,4.38-.87,3.66-3.53a36.44,36.44,0,0,0-1.52-3.84c2.76-.34,5.45-.54,8.09-1a12.17,12.17,0,0,0,4.23-1.59c2.08-1.32,1.9-3.38-.28-4.5a10.39,10.39,0,0,0-3.17-1.1c-3.32-.49-6.65-.82-9.94-1.2.61-1.57,1.43-3.29,2-5.1.43-1.44.42-3.24-1.17-3.8a4.36,4.36,0,0,0-3.77.54,34.73,34.73,0,0,0-5.87,7.12C401.81,49.42,408.65,57.2,414.41,59.27Zm-.2-22.71.61.29-2.68,6.31-3.75.85A18.35,18.35,0,0,1,414.21,36.56Zm12.51,10.3c-3,2.06-14.58,2.25-18.61.31C410.61,45.1,423.49,44.89,426.72,46.86Zm-11.41,9.67c-2.23-.08-4.61-2.1-6.77-5.8C413,50.75,414.49,52.82,415.31,56.53ZM588,574.13a1.68,1.68,0,0,0-2,2,2.88,2.88,0,0,0,1.86,2c.77.08,1.65-.88,2.48-1.38,0-.32,0-.65,0-1C589.63,575.2,588.9,574.27,588,574.13Zm-.11-5.94c.77.06,1.64-.91,2.46-1.42,0-.32,0-.65,0-1-.79-.56-1.53-1.48-2.39-1.61a1.69,1.69,0,0,0-2,2A2.91,2.91,0,0,0,587.93,568.19ZM355.48,125.85H415V76.17H355.48Zm4.31-45.45H410.9v41.19H359.79ZM485.85,658c3.82-.07,7.65-.26,11.47-.52.62-.05,1.2-.73,2.21-1.4-4-3.26-8.19-1-11.55-1.75,0-6.57,0-12.91,0-19.24,0-3.1-.25-6.21-.49-9.3a6,6,0,0,0-.87-1.86l-.66-.06a3.32,3.32,0,0,0-.46.87,47.74,47.74,0,0,0-1,6c-.42,8.12-.67,16.25-1.06,24.37C483.36,656.94,484.05,658,485.85,658Zm7.74-431.69a4.69,4.69,0,0,0,1.06.55c4,.56,5.73,3,5.79,6.9a25.24,25.24,0,0,0,.83,4.33,29,29,0,0,0,1.4-6.45,4.47,4.47,0,0,1,3.19-4.09c1.06-.41,2.15-.72,3.57-1.18l-2.47-.67c-2.6-.7-4.28-2.07-4.38-5.06a43.35,43.35,0,0,0-1-5.82l-.38-.06a40.37,40.37,0,0,0-.87,5.3c-.15,3.4-2,5.13-5.1,5.86Zm-18.11-84.15c-.27-2.69-.79-5.36-1.23-8-.17-1.05-.39-2.08-.59-3.12l-.51,0c-.59,3.7-1.3,7.39-1.73,11.11a5.67,5.67,0,0,1-3.69,5c-2.06.85-4.21,1.48-6.76,2.36,1.41.33,2.5.53,3.56.83,3.85,1.07,7.07,2.75,7.07,7.5a14.7,14.7,0,0,0,.32,2.36c.43,2.52.87,5,1.3,7.56l.53-.05c.58-3.57,1.33-7.13,1.67-10.72a6,6,0,0,1,3.9-5.46c1.63-.68,3.37-1.11,5.06-1.66.43-.13.84-.29,1.21-.41-2.4-.89-4.72-1.62-6.94-2.6A5.26,5.26,0,0,1,475.48,142.14Zm112.43,332.6A1.69,1.69,0,0,0,586,476.9a2.9,2.9,0,0,0,2,1.83c.78,0,1.59-1,2.38-1.55l0-1C589.56,475.69,588.77,474.81,587.91,474.74ZM493.65,96.62a39.08,39.08,0,0,0-1-5.82l-.53-.11c-.27,1.73-.59,3.46-.79,5.21-.41,3.56-1.3,4.65-4.74,5.67-.56.16-1.11.34-2.24.69,1.25.35,1.88.51,2.5.7,2.26.69,4.09,1.7,4.29,4.48.16,2.09.65,4.16,1,6.24l.51,0a52.21,52.21,0,0,0,1-6.17c.13-2.3,1.37-3.46,3.32-4.17.94-.35,1.9-.65,3.34-1.13-1.22-.37-1.89-.59-2.56-.77C495.34,100.74,493.73,99.49,493.65,96.62Zm92.39,569a2.92,2.92,0,0,0,1.85,2c.77.08,1.66-.87,2.49-1.37,0-.32,0-.64,0-1-.78-.58-1.51-1.52-2.37-1.66A1.68,1.68,0,0,0,586,665.59ZM475.8,362c6.93,1.67,7.86,2.72,8.85,9.68.38,2.68.88,5.35,1.33,8l.55,0c.59-3.7,1.29-7.39,1.74-11.11a5.64,5.64,0,0,1,3.33-4.79,39,39,0,0,1,4.47-1.61c.8-.27,1.63-.46,2.84-.8-2.19-.61-3.93-1-5.6-1.58-3.08-1.05-4.93-2.94-5.18-6.47s-1.06-6.82-1.63-10.23h-.41a9.71,9.71,0,0,0-.31,1c-.5,3.06-1.22,6.12-1.42,9.21-.26,3.94-2.65,5.68-6,6.72-1.47.46-3,.79-5,1.33Zm-30.86,297.2c1.5.41,2.11-.67,2.46-1.93.28-1,.57-2,.86-3.06.5-1.75,1-3.51,1.53-5.32h6.09c.5,2.6.95,5.19,1.52,7.76.41,1.85,1.07,2.11,3.49,1.24-.07-1.14-.05-2.31-.23-3.45-.41-2.54-1-5.06-1.37-7.61-1-6.8-1.85-13.62-2.82-20.42a21.86,21.86,0,0,0-.84-2.91l-.7-.22c-.5.55-1.22,1-1.48,1.67q-1.29,3.21-2.3,6.53c-1.37,4.55-2.65,9.12-3.88,13.35-1.55,1.14-4.1-.18-4.26,2.2-.05.73,1.78,1.58,2.92,2.51-.56,2-1.22,4.37-1.86,6.73C443.75,657.39,443.25,658.71,444.94,659.16Zm8.94-24.86.37.05c.38,3.36.77,6.71,1.18,10.33H451C452,641.15,452.92,637.72,453.88,634.3Zm24.35-5.42c.13.15.23.4.39.44.59.14,1.19.22,2,.36-.68-4.77-5-7.37-8.82-5.86a11.42,11.42,0,0,0-6.66,7.21,32.94,32.94,0,0,0-.4,20.88c1.06,3.57,4.89,6.46,8.27,6.34,2.83-.1,6.95-3.87,7.54-7.1.12-.66-.34-1.93-.82-2.1a3.53,3.53,0,0,0-2.43.55c-.44.23-.52,1-.9,1.5-1,1.22-2.13,2.39-3.58,4-1.48-1.47-3.16-2.38-3.62-3.72-2.46-7-2.64-14.17.35-21.14C471.57,625.61,474.85,625.16,478.23,628.88Zm109.88-184a2.75,2.75,0,0,0-2.06,1.55c-.49,1.4.37,2.35,1.93,2.74,1.5-.3,2.48-1.13,2-2.59A2.8,2.8,0,0,0,588.11,444.91Zm-2.07,12a2.88,2.88,0,0,0,1.88,1.94c.78.07,1.64-.89,2.47-1.41l0-1c-.79-.57-1.53-1.49-2.39-1.62A1.68,1.68,0,0,0,586,456.91ZM508,558.75a5.75,5.75,0,0,1-3.86-5.28c-.17-2.17-.62-4.32-1-6.47-.24-1.47-.56-2.93-.84-4.4a50.87,50.87,0,0,0-2.09,10.4c-.29,3.55-2.3,5.33-5.35,6.34-1.64.55-3.33,1-5.32,1.53,2.22.66,4.14,1.11,6,1.79,2.64,1,4.36,2.69,4.65,5.79.33,3.59,1.1,7.13,1.68,10.7h.56c.56-3.38,1.38-6.74,1.62-10.15.26-3.71,2.28-5.6,5.51-6.64,1.59-.52,3.22-.92,5.05-1.43C512.22,560.15,510.07,559.57,508,558.75ZM489.67,455.13a28.44,28.44,0,0,1,4.26-1.61c2.38-.66,4.81-1.16,7.21-1.72,0-.11,0-.22,0-.32l-2.06-.37c-4.26-.76-8.4-1.87-12-4.36a7.59,7.59,0,0,1-3.65-5.19c-.79-5.17-1.62-10.33-2.45-15.49-.33-2.07-.72-4.12-1.09-6.18a2.85,2.85,0,0,0-.73,1.52c-1,6.2-2.06,12.4-2.91,18.63a9.16,9.16,0,0,1-4.47,7.08,32.41,32.41,0,0,1-11.56,4c-.71.12-1.41.28-2.11.43a14.27,14.27,0,0,0,2.77.86c3.5,1.16,7.07,2.18,10.44,3.65a8,8,0,0,1,4.82,6.58c.9,6.23,1.93,12.43,2.92,18.64.11.7.31,1.38.47,2.07a2,2,0,0,0,.66-1.17c1-6.07,2.23-12.12,2.85-18.23C483.49,459.43,485.88,456.86,489.67,455.13ZM191.29,316.31l4.29,3.16V76.29c11.88-2.48,16.8-7.48,21.24-21.52H338.94c-2.51-2.67-4.72-4.62-8.5-4.32-4.81.38-9.66.09-14.5.09l-101.37,0a12.44,12.44,0,0,0-1.45.15c-.9,13.75-9.33,19.88-21.83,22.18ZM304.36,486.2a5.09,5.09,0,0,1-3.11-4.48c-.25-2.36-.73-4.7-1.13-7-.24-1.42-.51-2.84-.76-4.25A53,53,0,0,0,297.18,481c-.3,3.71-2.6,5.29-5.61,6.35-1.47.52-3,.82-4.52,1.23a6.38,6.38,0,0,0,2.22.86c6,1.4,7.17,2.73,8.14,8.77.48,3,1,5.91,1.53,8.87h.45c.59-3.56,1.36-7.1,1.72-10.69a6.42,6.42,0,0,1,4.6-5.83c1.81-.66,3.67-1.19,5.47-1.77C308.88,487.9,306.58,487.15,304.36,486.2ZM232.56,45.7l.95,0c.55-.82,1.57-1.65,1.53-2.44s-1.13-1.75-1.92-1.93a1.69,1.69,0,0,0-2.05,2C231.19,44.19,232,44.92,232.56,45.7Zm-9.87,0h.89c.56-.77,1.46-1.48,1.59-2.3a1.82,1.82,0,0,0-2-2.14c-1.36,0-2.23.87-2,2.15C221.27,44.24,222.14,45,222.69,45.71Zm62.7,505.6c-3.61-1.23-7.3-2.31-10.76-3.88-2.63-1.19-4-3.51-4.44-6.59-.86-6.49-2-12.94-3.08-19.41a9.17,9.17,0,0,0-.6-1.5c-.23,1.08-.4,1.72-.5,2.36-.92,5.69-2.13,11.34-2.65,17.06-.46,5.2-3.3,8.08-7.78,9.7-3.4,1.22-6.93,2.07-10.59,3.14l2.13.41c4.26.78,8.39,1.88,12.06,4.32a8.22,8.22,0,0,1,3.87,6c.52,3.73,1.13,7.46,1.73,11.18.52,3.26,1.07,6.52,1.62,9.78a1.7,1.7,0,0,0,.71-1.13c1.06-6.53,2.21-13.05,3.11-19.61.37-2.74,1.55-4.9,3.88-6.1a79.78,79.78,0,0,1,9.13-3.73,33.21,33.21,0,0,1,4.69-1A10.43,10.43,0,0,0,285.39,551.31ZM252.81,261.18a32.37,32.37,0,0,0-1-5.61,17.46,17.46,0,0,0-1.32,5c-.49,3.79-1.35,4.84-5,5.86-.52.15-1.05.26-2,.47.95.31,1.5.53,2.07.68,3.5.93,4.37,1.93,4.87,5.5.26,1.82.59,3.62.88,5.42h.55c.2-1.35.43-2.7.58-4.05.57-4.9,1.23-5.75,5.34-6.9a16.43,16.43,0,0,0,1.65-.67l-2.12-.57C254.75,265.56,252.82,264.38,252.81,261.18ZM240.93,424.81a2.4,2.4,0,0,0,.37.43,1.84,1.84,0,0,0,.55.21c3.91.55,5.67,2.85,5.74,6.75a25.67,25.67,0,0,0,.85,4.52l.34-.05c.36-2.21.84-4.4,1.06-6.61a4.33,4.33,0,0,1,3.13-3.91c1-.38,2.06-.69,3.53-1.19-.69-.24-.9-.33-1.13-.38s-.52-.07-.77-.14c-2.76-.73-4.8-2-4.88-5.31a38.38,38.38,0,0,0-1-5.67,20.52,20.52,0,0,0-1.28,5.16c-.57,4-1.65,5.13-5.65,5.94C241.55,424.62,241.28,424.71,240.93,424.81Zm69.53-88.58c-3.54-.7-4.59-1.78-5.23-5.32-.32-1.78-.65-3.56-1-5.34l-.51,0c-.27,1.63-.61,3.25-.81,4.9-.42,3.53-1.3,4.63-4.73,5.64-.52.15-1.06.22-1.78.37.35.23.49.41.66.44,4.05.67,6.08,2.95,6,7.15a17.87,17.87,0,0,0,.76,3.74,8.34,8.34,0,0,0,1-3,15.47,15.47,0,0,0,.43-2.93c0-2.33,1.34-3.45,3.26-4.2,1-.38,2-.68,3-1A1.78,1.78,0,0,0,310.46,336.23ZM283.85,203.15c-.94-6.49-2-13-3.08-19.42a16.08,16.08,0,0,0-.53-1.77,11.8,11.8,0,0,0-.4,1.2c-1.07,6.66-2.19,13.32-3.17,20-.35,2.39-1.24,4.49-3.34,5.58a90.51,90.51,0,0,1-9.59,4.13,33,33,0,0,1-5,1.08,5.83,5.83,0,0,0,2.14.72,31,31,0,0,1,11.71,4.15,8.09,8.09,0,0,1,4,5.83c.63,4.46,1.36,8.9,2.08,13.34.41,2.57.87,5.14,1.31,7.7l.51,0c.13-.67.27-1.33.38-2,1-6,2.11-12,2.84-18a9.18,9.18,0,0,1,5.19-7.45,24.1,24.1,0,0,1,4.16-1.85c2.77-.83,5.6-1.48,9-2.37l-3-.61A29.16,29.16,0,0,1,287.47,209,8.24,8.24,0,0,1,283.85,203.15ZM586,616.05a2.91,2.91,0,0,0,2,1.83c.77,0,1.58-1,2.37-1.56,0-.32,0-.65,0-1-.83-.52-1.62-1.39-2.49-1.47A1.7,1.7,0,0,0,586,616.05ZM242.61,45.72l1,0c.51-.83,1.48-1.69,1.42-2.47a2.9,2.9,0,0,0-2-1.87,1.67,1.67,0,0,0-2,2C241.15,44.19,242.05,44.92,242.61,45.72Zm59.55,0h.95c.55-.82,1.55-1.67,1.5-2.45a2.9,2.9,0,0,0-1.94-1.91,1.69,1.69,0,0,0-2,2C300.77,44.22,301.63,44.94,302.16,45.7Zm-48.68,0c.53-.78,1.4-1.51,1.5-2.35a1.68,1.68,0,0,0-2.06-2c-.79.2-1.88,1.24-1.91,1.95s1,1.61,1.53,2.42Zm68.55,0H323c.55-.81,1.56-1.65,1.52-2.44s-1.14-1.75-1.93-1.92a1.69,1.69,0,0,0-2,2C320.64,44.21,321.5,44.93,322,45.7Zm22.34,4a21.32,21.32,0,0,0,5.5,1.5c2,.33,4,.4,6.09.59a14.65,14.65,0,0,0-1.4,3.44c-.16,1.13-.16,2.83.51,3.37a4.08,4.08,0,0,0,3.58.35,14.52,14.52,0,0,0,8.25-8.87,10.58,10.58,0,0,0-.76-8.43c-1.56-3-3.35-5.93-6.33-7.71a4.8,4.8,0,0,0-3.65-.41c-1.49.54-1.55,2.22-1.2,3.62a32.33,32.33,0,0,0,1.44,3.88c.21.53.52,1,.88,1.73a13,13,0,0,0-1.56,0c-3.71.52-7.45.91-11.1,1.68a3.59,3.59,0,0,0-2.28,2.5A3.82,3.82,0,0,0,344.37,49.74ZM357,57c.83-3.92,2.33-6.24,6.88-6.23A13,13,0,0,1,357,57Zm1.15-20.41A18.76,18.76,0,0,1,364.1,44l-3.74-.84c-.88-2-1.83-4.12-2.77-6.24Zm6.51,10.18C361.43,49.1,349,49,345.3,46.6A40.79,40.79,0,0,1,364.7,46.73Zm-52.66-1,.95,0c.57-.8,1.59-1.62,1.57-2.41a2.92,2.92,0,0,0-1.9-2,1.69,1.69,0,0,0-2.08,2C310.69,44.17,311.53,44.91,312,45.69ZM588,623.82a1.69,1.69,0,0,0-2,2.08,2.93,2.93,0,0,0,1.91,1.92c.78,0,1.63-.93,2.45-1.45,0-.32,0-.64,0-1C589.61,624.85,588.85,623.94,588,623.82ZM332.75,45.46c1.5.06,2-1,2.55-2.75A8.19,8.19,0,0,0,333,41.27c-1.38-.31-2.1.65-2.18,1.92A1.91,1.91,0,0,0,332.75,45.46Zm-70.25.26.95,0c.51-.83,1.47-1.69,1.41-2.47a2.87,2.87,0,0,0-1.94-1.87,1.67,1.67,0,0,0-2,2C261,44.19,261.93,44.93,262.5,45.72Zm10.69,0c.59-.78,1.62-1.57,1.62-2.35a2.89,2.89,0,0,0-1.8-2,1.69,1.69,0,0,0-2.18,1.83c.06.86.91,1.67,1.41,2.5ZM586,635.84a2.88,2.88,0,0,0,1.92,1.91c.77.06,1.62-.92,2.44-1.46v-1c-.81-.55-1.57-1.46-2.43-1.57A1.68,1.68,0,0,0,586,635.84ZM292.27,45.71h.94c.54-.83,1.53-1.69,1.47-2.47s-1.19-1.72-2-1.88a1.69,1.69,0,0,0-2,2.07C290.85,44.25,291.72,45,292.27,45.71Zm-9.91,0,.94,0c.53-.84,1.5-1.72,1.44-2.5a2.91,2.91,0,0,0-2-1.85,1.69,1.69,0,0,0-2,2.1C280.92,44.27,281.8,45,282.36,45.72ZM586,606.1a2.89,2.89,0,0,0,2,1.84c.77,0,1.58-1,2.38-1.55,0-.32,0-.64,0-1-.82-.52-1.61-1.4-2.48-1.48A1.7,1.7,0,0,0,586,606.1Zm2.77-316.84a2.86,2.86,0,0,0-2,1.85,1.69,1.69,0,0,0,1.88,2.14c.86-.09,1.65-1,2.47-1.5,0-.32,0-.65,0-1C590.4,290.23,589.59,289.23,588.81,289.26Zm0-39.76a2.92,2.92,0,0,0-1.93,1.9,1.69,1.69,0,0,0,1.94,2.09c.86-.11,1.62-1,2.43-1.56v-1C590.38,250.44,589.54,249.45,588.76,249.5Zm-.09-25.83c.87-.06,1.67-.93,2.51-1.44l0-1c-.78-.57-1.58-1.59-2.35-1.58a2.91,2.91,0,0,0-2,1.81A1.69,1.69,0,0,0,588.67,223.67Zm-1.84,77.39a1.69,1.69,0,0,0,1.91,2.12c.86-.09,1.64-1,2.45-1.52,0-.32,0-.64,0-1-.8-.55-1.63-1.54-2.41-1.5A2.9,2.9,0,0,0,586.83,301.06Zm1.91-137c.87-.1,1.64-1,2.45-1.52v-1c-.81-.54-1.63-1.54-2.41-1.5a2.94,2.94,0,0,0-2,1.87A1.69,1.69,0,0,0,588.74,164Zm-.06,19.88c.86-.06,1.67-.93,2.5-1.44l0-1c-.78-.57-1.58-1.59-2.36-1.58a2.9,2.9,0,0,0-2,1.8A1.69,1.69,0,0,0,588.68,183.92Zm0-9.94c.87-.08,1.65-1,2.48-1.48l0-1c-.8-.56-1.61-1.57-2.39-1.55a2.91,2.91,0,0,0-2,1.85A1.69,1.69,0,0,0,588.71,174Zm.11,55.64a2.88,2.88,0,0,0-2,1.84,1.69,1.69,0,0,0,1.87,2.15c.86-.07,1.65-1,2.48-1.48,0-.32,0-.65,0-1C590.41,230.6,589.6,229.59,588.82,229.62Zm2.36,41.17c-.82-.52-1.69-1.48-2.46-1.42a2.93,2.93,0,0,0-1.89,1.95,1.69,1.69,0,0,0,2,2.05c.86-.13,1.6-1.05,2.4-1.62Zm-4.35-9.44a1.69,1.69,0,0,0,1.95,2.08c.86-.11,1.62-1,2.42-1.58v-1c-.81-.53-1.66-1.51-2.44-1.45A2.91,2.91,0,0,0,586.83,261.35Zm.84,51.78c1.08,1,2.18.53,3-.53.39-3-.32-3.73-3.3-3.23A2.56,2.56,0,0,0,587.67,313.13Zm-.83-71.7a1.68,1.68,0,0,0,1.89,2.12c.87-.09,1.64-1,2.46-1.51,0-.32,0-.65,0-1-.8-.55-1.63-1.55-2.4-1.51A2.88,2.88,0,0,0,586.84,241.43Zm1.92,41.88c.86-.11,1.63-1,2.44-1.55v-1c-.81-.54-1.65-1.53-2.42-1.49a2.94,2.94,0,0,0-1.95,1.89A1.7,1.7,0,0,0,588.76,283.31Zm3.17,103.76c-8.14-5.15-15.8.67-18.56,7a3.88,3.88,0,0,0,.46,3.4c.55.65,2.15.7,3.2.54a16.48,16.48,0,0,0,3.54-1.39c.33,2.77.52,5.41,1,8a12.46,12.46,0,0,0,1.55,4.23c1.36,2.18,3.44,2,4.59-.27a10.65,10.65,0,0,0,1.09-3.17c.47-3.29.8-6.61,1.18-9.91a50.33,50.33,0,0,0,4.74,1.94c1.48.45,3.09.57,4.15-.93a3.08,3.08,0,0,0-.61-4.16A39.39,39.39,0,0,0,591.93,387.07Zm-10.88,5.74-4.91,3c-.17-.22-.33-.45-.49-.67,1.1-2.93,3.32-4.86,6.3-6.75C581.63,390,581.38,391.13,581.05,392.81Zm4.58,14a29.92,29.92,0,0,1-.25-18.64A31.83,31.83,0,0,1,585.63,406.82Zm9.85-11.9-6.17-2.73-.89-3.77c3.18,1.58,5.71,3.3,7.5,6ZM588.86,199.8a2.91,2.91,0,0,0-2,1.81,1.68,1.68,0,0,0,1.83,2.18c.87-.06,1.67-.92,2.51-1.43l0-1C590.43,200.82,589.64,199.79,588.86,199.8ZM576.72,371.11a2.44,2.44,0,0,0-2,.69c-.29.51,0,1.45.25,2.16.1.34.5.6.79.87a11.29,11.29,0,0,0,13.08,1.62,11.44,11.44,0,0,0,5.85-12.19,11.57,11.57,0,0,0-10-9.41,10.57,10.57,0,0,0-9.59,3.67,2.72,2.72,0,0,0-.39,2.3c.16.42,1.32.74,2,.67,3.43-.36,5.91,1.12,7.28,4.55C582.9,369.84,580.38,371.51,576.72,371.11Zm4.93-12.1a6.94,6.94,0,0,1,8,2.68c2.2,3,2.13,6.2-.19,9.34a6.6,6.6,0,0,1-7.79,2.55C589.09,369.76,589.08,363,581.65,359Zm7.94-26.48a52.59,52.59,0,0,0-2-8.62c-.77-2.19-3-2.33-4.31-.38a12.24,12.24,0,0,0-1.71,4.37c-.5,2.63-.68,5.32-1,8.06a33.85,33.85,0,0,0-4-1.55c-2.44-.62-4.19,1.11-3.36,3.48a15.82,15.82,0,0,0,2.68,4.56c6.26,7.73,19,5.88,23.11-3.3,1.07-2.4-.19-4.44-2.79-4.15a22.76,22.76,0,0,0-4.85,1.54,16.53,16.53,0,0,0-1.69.81A30.64,30.64,0,0,0,589.59,332.53Zm-13.94,4.92.43-.62,4.93,2.85c.33,1.6.59,2.86.93,4.49C579,342.36,576.72,340.43,575.65,337.45Zm9.51,7.37a38.71,38.71,0,0,1,.05-19.39C587.51,328.4,587.44,341.28,585.16,344.82Zm10.42-7.15.38.63a19.57,19.57,0,0,1-7.53,5.88l.86-3.76ZM588.7,154.1c.86-.07,1.66-.95,2.48-1.47l0-1c-.79-.57-1.6-1.58-2.38-1.56a2.9,2.9,0,0,0-2,1.83A1.68,1.68,0,0,0,588.7,154.1ZM499.66,655c-.1,2.89.88,4,3.7,3.84,2.38-.09,4.76-.32,7.12-.6,1.19-.15,2.59-.47,2.34-2.1s-1.64-1.47-2.85-1.41c-.46,0-.91.2-1.36.26-1.54.2-3.07.38-4.4.54v-12.1a61.08,61.08,0,0,0,6.48-.46c.67-.12,1.41-1.11,1.65-1.84.11-.35-.82-1.24-1.45-1.54a5.94,5.94,0,0,0-2.33-.36c-1.43-.05-2.86,0-4.42,0-.2-4.23-.4-8.44-.62-13.08H512c-.52-2.83-2.32-3.44-7.77-3.06-4.61.32-5.15.58-5.22,2.61l1.23,1v12.94L496,641.84l.12.8a8.38,8.38,0,0,0,1.73,1,10.93,10.93,0,0,0,2.21.18c0,.8,0,1.45,0,2.09C499.93,648.91,499.76,652,499.66,655Zm87.17-522.77a1.69,1.69,0,0,0,2,2c.86-.15,1.58-1.09,2.36-1.67,0-.32,0-.64,0-1-.83-.5-1.72-1.45-2.49-1.37A2.92,2.92,0,0,0,586.83,132.22Zm0,79.47a1.69,1.69,0,0,0,2,2.05c.86-.13,1.6-1.05,2.4-1.62l0-1c-.82-.51-1.69-1.47-2.46-1.41A2.93,2.93,0,0,0,586.83,211.69Zm1.93-67.53c.86-.1,1.63-1,2.44-1.54v-1c-.81-.53-1.65-1.52-2.43-1.48a2.94,2.94,0,0,0-1.94,1.89A1.69,1.69,0,0,0,588.76,144.16Zm-.07-23.87a2.92,2.92,0,0,0-1.86,2,1.69,1.69,0,0,0,2,2c.86-.14,1.59-1.08,2.37-1.66l0-1C590.35,121.17,589.47,120.21,588.69,120.29Zm0,73.57c.86-.08,1.65-1,2.47-1.48l0-1c-.8-.56-1.61-1.57-2.39-1.55a2.88,2.88,0,0,0-2,1.84A1.69,1.69,0,0,0,588.71,193.86ZM606.15,48.24a28,28,0,0,0-.44-5.34A21.89,21.89,0,0,0,583.79,25H187.26c-13.12,0-22.68,9.55-22.68,22.68V374.84q0,163.79,0,327.56a20.91,20.91,0,0,0,.15,3.17C166.51,717.44,175.46,725,187.8,725q197.57,0,395.14,0a27.15,27.15,0,0,0,5.33-.45c10.93-2.22,17.9-11.09,17.9-22.77Q606.17,375,606.15,48.24ZM586.77,720.51a21.26,21.26,0,0,1-3.57.2H187.45c-11,0-18.59-7.56-18.59-18.59V47.57c0-9,5.4-15.95,13.9-17.9a17.85,17.85,0,0,1,3.94-.37q198.66,0,397.34,0a17.66,17.66,0,0,1,17.85,17.53c0,.93,0,1.86,0,2.78V701.77C601.89,711.65,596,719,586.77,720.51ZM449.36,45.68l.94,0c.56-.8,1.59-1.62,1.56-2.4s-1.1-1.76-1.89-2a1.68,1.68,0,0,0-2.08,2C448,44.15,448.84,44.9,449.36,45.68Zm40.88,0c.51-.83,1.36-1.63,1.43-2.5a1.68,1.68,0,0,0-2.16-1.84,2.91,2.91,0,0,0-1.82,2c0,.79,1,1.58,1.59,2.37ZM577,76.4v243l4.13-3.05V72.54A23,23,0,0,1,566,65.93c-4.27-4.14-7-9-6.27-15.38h-4.23q-57.44,0-114.88-.07c-3.41,0-4.74,2.39-6.69,4.37H555.63C558.3,66.47,564.76,74.16,577,76.4Zm-137.53-31c1.27.39,2.09-.68,2.12-2s-.51-2.18-2.43-2.56c-.57.77-1.67,1.6-1.59,2.29A3.22,3.22,0,0,0,439.49,45.38Zm30.71.34c.56-.75,1.44-1.45,1.6-2.27a1.69,1.69,0,0,0-2-2.1,2.91,2.91,0,0,0-2,1.85c-.06.78.92,1.66,1.44,2.5Zm10,0c.53-.77,1.39-1.48,1.52-2.32a1.69,1.69,0,0,0-2-2c-.79.17-1.91,1.21-1.95,1.91s1,1.63,1.51,2.45Zm-20.82,0h.89c.55-.76,1.43-1.46,1.57-2.29.22-1.26-.65-2.11-2-2.15a1.81,1.81,0,0,0-2,2.13C458,44.23,458.85,44.94,459.4,45.7Zm56.14,606.16a6.62,6.62,0,0,0,.63,3.22c1.91,3.85,5.33,3.74,8.91,3.22,3.92-.56,6.47-3.54,5.58-7.39a24,24,0,0,0-3.28-7.95,37.77,37.77,0,0,0-6.47-6.67,7.16,7.16,0,0,1-2.24-7.72,3.76,3.76,0,0,1,2.16-2.19c2.41-.81,4.43.39,5.35,2.76.31.79.77,1.52,1.16,2.28l.8,0a6.54,6.54,0,0,0,.64-1.93,6,6,0,0,0-4.58-5.79c-3.42-.86-6.94.13-8.12,2.57-1.49,3.09-2.13,8.07,1,11.39,1.27,1.35,2.63,2.6,4,3.9,2.89,2.84,5.26,6,5.77,10.15a3.57,3.57,0,0,1-.72,2.67,4.28,4.28,0,0,1-6.79-1.57c.2-1.22.37-2.25.55-3.37C517.13,648.88,515.66,649.79,515.54,651.86Zm71.3-539.77a1.7,1.7,0,0,0,1.76,2.25c.87,0,1.71-.86,2.56-1.34l.06-1c-.76-.61-1.52-1.67-2.3-1.69A2.89,2.89,0,0,0,586.84,112.09ZM586,466.81a2.89,2.89,0,0,0,1.84,2c.78.09,1.66-.86,2.5-1.36,0-.32,0-.64,0-1-.78-.58-1.5-1.53-2.36-1.67A1.68,1.68,0,0,0,586,466.81Zm2-32.28c-1.51.09-2.06,1.19-2.09,2.6s.93,2.2,2.1,2c.91-.19,1.65-1.19,2.46-1.82C590.09,435.41,589.47,434.45,588,434.53Zm1.83-6.83a3.45,3.45,0,0,0-.75-2.72,2.31,2.31,0,0,0-2.42,3.89C588.08,429.17,589.48,429.27,589.84,427.7ZM551.31,642.77a31.4,31.4,0,0,0,5.44-1c1.68-.46,3.64-.82,3.9-3.08.16-1.47-1.34-2.9-4-3.47-3.14-.67-6.35-1-9.66-1.53a12,12,0,0,0,1.26-3.09,5.75,5.75,0,0,0-.46-3.62c-.9-1.32-2.52-.89-3.81-.25a15.23,15.23,0,0,0-7.88,8.51,10.91,10.91,0,0,0-.51,4.26c.27,4.81,3.09,8.29,6.35,11.47a7,7,0,0,0,2.36,1.42c2,.72,3.82-.46,3.64-2.52a25.11,25.11,0,0,0-1.5-5.26,13.92,13.92,0,0,0-.89-1.79C547.64,642.81,549.49,642.94,551.31,642.77Zm-5.83-13.87.61.44c-1,1.69-2,3.38-2.89,4.91l-4.48.92C540.57,632.19,542.49,629.93,545.48,628.9Zm-.84,20.3c-2.57-1.84-4.28-4.37-5.94-7.55l3.77.85c.88,2,1.84,4.17,2.79,6.34Zm-6.58-10.79a37.84,37.84,0,0,1,19.34,0C554.75,640.72,541.88,640.7,538.06,638.41ZM500,45.71c.56-.79,1.45-1.54,1.58-2.4a1.67,1.67,0,0,0-2.05-2,2.88,2.88,0,0,0-1.92,1.89c-.05.78.92,1.63,1.44,2.46Zm49.62,0c.58-.8,1.62-1.6,1.6-2.38a2.93,2.93,0,0,0-1.86-2,1.69,1.69,0,0,0-2.12,1.94c.08.84.94,1.59,1.45,2.39Zm20.59,16.21c3.94,3.52,8.73,4.41,13.82,4,1.61-.11,3.24-.56,3.61-2.5s-.92-3-2.37-3.72-3.23-1.35-5-2.06c.48-.43.92-.82,1.34-1.22a26.1,26.1,0,0,0,6.77-9.19c1-2.65-.32-4.35-3.06-3.66A15.59,15.59,0,0,0,580.63,46c-2,1.34-3.77,3-5.67,4.48a15.12,15.12,0,0,0-1.42-3.56c-.67-.91-1.87-2-2.79-2a3.85,3.85,0,0,0-2.65,2.17,14.53,14.53,0,0,0,.24,12.1A8.41,8.41,0,0,0,570.24,61.94Zm14.11.29-.29,1.1-9.18-1.18-.06-.6,3-1.93Zm1.5-15.52a31.94,31.94,0,0,1-13.58,13A30,30,0,0,1,585.85,46.71Zm-15.23.74c2.46,3.36,2.27,5.86-.6,9.45A13.44,13.44,0,0,1,570.62,47.45Zm18.22,57c.86-.14,1.59-1.07,2.37-1.65l0-1c-.84-.5-1.71-1.45-2.49-1.37a2.9,2.9,0,0,0-1.86,2A1.69,1.69,0,0,0,588.84,104.41Zm-.14-13.94a2.93,2.93,0,0,0-1.87,2,1.69,1.69,0,0,0,2,2c.86-.14,1.59-1.07,2.38-1.64l0-1C590.35,91.36,589.48,90.4,588.7,90.47Zm-1.87-8.06a1.69,1.69,0,0,0,1.91,2.12c.86-.09,1.64-1,2.45-1.52V82c-.8-.54-1.63-1.54-2.41-1.5A2.92,2.92,0,0,0,586.83,82.41ZM586,526.56a2.92,2.92,0,0,0,2,1.87c.77,0,1.6-1,2.4-1.51,0-.32,0-.64,0-1-.81-.53-1.58-1.42-2.45-1.52A1.69,1.69,0,0,0,586,526.56ZM509,45.69l.93,0c.57-.8,1.59-1.63,1.56-2.41a2.92,2.92,0,0,0-1.9-2,1.68,1.68,0,0,0-2.08,2C507.62,44.16,508.49,44.91,509,45.69Zm10.11,0,1,0c.5-.84,1.45-1.72,1.37-2.49a2.92,2.92,0,0,0-2-1.85,1.66,1.66,0,0,0-2,2C517.59,44.21,518.54,44.94,519.12,45.72Zm10.65,0c.58-.79,1.62-1.59,1.6-2.37a2.91,2.91,0,0,0-1.85-2,1.68,1.68,0,0,0-2.12,1.94c.08.83.93,1.59,1.43,2.38Zm10.11,0c.52-.78,1.38-1.5,1.49-2.34a1.69,1.69,0,0,0-2-2c-.79.18-1.89,1.23-1.92,1.93s1,1.62,1.53,2.43ZM297.33,130.53c.21,1.76.54,3.51.81,5.27l.51,0c.36-2.13.88-4.25,1-6.4a4.09,4.09,0,0,1,2.72-3.77c1.18-.51,2.43-.88,4-1.43-.93-.23-1.5-.36-2.07-.52-2.65-.74-4.7-1.9-4.71-5.21a32.92,32.92,0,0,0-1-5.58l-.55,0c-.26,1.68-.63,3.35-.74,5-.21,3-1.54,5-4.57,5.61-.69.15-1.36.38-2.32.66.8.28,1.34.52,1.9.67C296,125.83,296.9,126.9,297.33,130.53ZM241.65,702.42c-.5.83-1.36,1.63-1.43,2.49a1.67,1.67,0,0,0,2.16,1.84,2.86,2.86,0,0,0,1.82-2c0-.79-1-1.58-1.59-2.37ZM580.36,421.86l-4.3-3.17V671.75c-12.21,2.28-18.55,10-21.26,21.6H432.7c2.52,2.65,4.72,4.63,8.51,4.31,4.54-.39,9.13-.1,13.7-.09h102c.57,0,1.14-.08,1.65-.12.9-13.78,9.34-19.9,21.83-22.21ZM252.71,702.42l-.9,0c-.58.74-1.48,1.41-1.65,2.23-.27,1.27.58,2.14,1.93,2.22a1.8,1.8,0,0,0,2.1-2.05C254.09,704,253.23,703.2,252.71,702.42Zm-65.44-20.26c-1.48.13-2.93.65-3.29,2.38s.73,2.92,2.13,3.65c1.63.84,3.37,1.46,5.17,2.22-.45.41-.93.84-1.4,1.29-2.82,2.73-5.42,5.65-6.77,9.41-.82,2.26.39,3.9,2.7,3.41a15.12,15.12,0,0,0,5-2.23c2.06-1.37,3.91-3.06,5.86-4.62a19.56,19.56,0,0,0,1.61,3.82c.56.82,1.73,1.78,2.55,1.71a3.73,3.73,0,0,0,2.62-1.93,17.38,17.38,0,0,0,1.22-5.56c.18-3.53-.55-7-3.21-9.48C197.48,682.52,192.5,681.69,187.27,682.16Zm0,3.68c.06-.22.13-.43.19-.65,3.2-.58,6.25.15,9.66,1.19l-3.33,2.12Zm-1.44,15.58a31.32,31.32,0,0,1,13.57-13C196.36,694.25,191.61,698.37,185.82,701.42Zm15.3-1c-2.54-2.3-2.37-5.58.55-9.33C202.34,694.46,202.58,697.46,201.12,700.45Zm21.78,2-.89,0c-.58.74-1.49,1.4-1.67,2.22-.27,1.27.57,2.15,1.92,2.23a1.8,1.8,0,0,0,2.11-2C224.28,704,223.42,703.21,222.9,702.42Zm38.6,0c-.5.84-1.34,1.65-1.4,2.52a1.69,1.69,0,0,0,2.19,1.82,2.93,2.93,0,0,0,1.79-2c0-.78-1-1.56-1.62-2.35Zm-31.27,2.33c0,1.32.82,2.25,2.13,2,.84-.15,1.56-1,2.33-1.54,0-.28,0-.57,0-.86-.76-.55-1.46-1.4-2.3-1.58C231.08,702.52,230.24,703.43,230.23,704.75Zm71.13-2.34c-.53.77-1.39,1.49-1.51,2.32a1.69,1.69,0,0,0,2,2c.79-.18,1.9-1.22,1.93-1.92s-1-1.63-1.52-2.44Zm-29.78,0c-.54.8-1.43,1.56-1.54,2.42a1.67,1.67,0,0,0,2.07,1.94c.78-.19,1.86-1.21,1.9-1.91s-.94-1.63-1.47-2.44Zm40.73,0-.89,0c-.57.75-1.47,1.43-1.63,2.25-.26,1.27.6,2.13,1.95,2.2a1.8,1.8,0,0,0,2.08-2.07C313.72,703.93,312.84,703.19,312.31,702.41Zm-20.46.45a2.84,2.84,0,0,0-1.93,1.87,1.67,1.67,0,0,0,2,2c.88-.14,1.63-1,2.44-1.56,0-.31,0-.61,0-.91C293.49,703.77,292.64,702.81,291.85,702.86Zm-10.31-.46c-.55.8-1.45,1.55-1.57,2.41a1.68,1.68,0,0,0,2.07,2,2.9,2.9,0,0,0,1.91-1.9c.05-.78-.93-1.63-1.46-2.45ZM180.46,477.33c.83.51,1.7,1.47,2.48,1.4a2.88,2.88,0,0,0,1.87-2,1.69,1.69,0,0,0-2-2c-.86.13-1.59,1.06-2.38,1.63Zm0-9.95c.83.51,1.69,1.48,2.47,1.41a2.9,2.9,0,0,0,1.88-1.94,1.68,1.68,0,0,0-2-2.05c-.86.13-1.6,1.05-2.39,1.62C180.45,466.74,180.45,467.06,180.46,467.38ZM184.82,457c-.11-.89-.94-1.69-1.45-2.53l-.92,0c-.56.81-1.55,1.61-1.54,2.41a2.85,2.85,0,0,0,1.77,2A1.67,1.67,0,0,0,184.82,457ZM183,504.56c-.87.07-1.67.94-2.5,1.45,0,.33,0,.65,0,1,.8.56,1.6,1.58,2.38,1.56a2.9,2.9,0,0,0,2-1.82A1.69,1.69,0,0,0,183,504.56ZM182.33,534c-.52.83-1.47,1.69-1.42,2.48a2.82,2.82,0,0,0,1.88,1.93,1.66,1.66,0,0,0,2-2c-.16-.88-1-1.64-1.59-2.46Zm2.48,131.76a1.69,1.69,0,0,0-1.85-2.17c-.87.07-1.67.94-2.49,1.46,0,.32,0,.64,0,1,.8.56,1.6,1.58,2.38,1.56A2.9,2.9,0,0,0,184.81,665.75Zm-4.35-168.56c.83.52,1.69,1.49,2.46,1.42a2.89,2.89,0,0,0,1.89-1.94,1.68,1.68,0,0,0-2-2.05c-.86.13-1.6,1.05-2.39,1.61Zm0,49.7c.83.52,1.69,1.48,2.47,1.42a2.92,2.92,0,0,0,1.88-1.95,1.68,1.68,0,0,0-2-2.05c-.86.13-1.6,1.05-2.39,1.62C180.45,546.25,180.45,546.57,180.46,546.89Zm3.61-121.71c-.51-.45-2.08-.54-2.39-.16a3.51,3.51,0,0,0-.63,2.76c.43,1.56,1.82,1.4,3.22,1A2.49,2.49,0,0,0,184.07,425.18Zm-1.37,9.34c-1.46,0-2,1.07-2,2.42a2,2,0,0,0,2.22,2.21,1.84,1.84,0,0,0,2-2.17C184.83,435.58,184.22,434.51,182.7,434.52ZM321.63,702.86a2.84,2.84,0,0,0-1.88,1.95,1.68,1.68,0,0,0,2.09,2c.84-.16,1.55-1,2.31-1.57,0-.3,0-.6,0-.9C323.3,703.77,322.43,702.81,321.63,702.86ZM184.8,446.46a2,2,0,0,0-4,.16c-.43,1.46.56,2.28,2.06,2.58C184.43,448.8,185.3,447.86,184.8,446.46Zm0,40.28c-.16-.89-1-1.64-1.58-2.46h-.92c-.52.83-1.47,1.69-1.42,2.49a2.82,2.82,0,0,0,1.88,1.93A1.67,1.67,0,0,0,184.83,486.74ZM426.31,697.86a5,5,0,0,0-1.14-.33c-3.06-.47-6.13-.93-9.38-1.41a17.77,17.77,0,0,0,1.4-3.6c.16-1,.06-2.5-.56-3a3.74,3.74,0,0,0-3.22-.52,16,16,0,0,0-4.49,2.83c-7.3,6.25-5.16,19.13,3.76,22.88.19.07.37.15.56.2a2.56,2.56,0,0,0,3.5-2.41,9.32,9.32,0,0,0-.55-3.29,29.56,29.56,0,0,0-1.54-3.36c3.94-.62,7.85-1.15,11.72-1.89,1.48-.29,3.09-1,3.07-2.89S427.81,698.47,426.31,697.86Zm-11.95-6.6c.24,3.33-2.18,5.59-6.78,6.17C409.41,694.61,411.31,692.36,414.36,691.26Zm-.88,20.3c-2.64-1.78-4.34-4.31-5.94-7.47l3.73.82,2.79,6.34Zm-6.59-10.74a37.66,37.66,0,0,1,19.35.07C423.42,703.15,410.55,703.1,406.89,700.82ZM180.46,527c.83.51,1.69,1.48,2.47,1.41a2.89,2.89,0,0,0,1.88-1.95,1.69,1.69,0,0,0-2-2.05c-.86.13-1.6,1.05-2.39,1.62ZM449.18,702.8a1.69,1.69,0,0,0-2.07,2,2.84,2.84,0,0,0,1.93,1.92c.8,0,1.65-.94,2.48-1.48,0-.31,0-.61,0-.92C450.74,703.78,450,703,449.18,702.8Zm-55.79-11.89a3.18,3.18,0,0,0-2.46-.54c-.39.11-.72,1.42-.64,2.14.37,3.39-1.41,6-5.08,7.13-3.52-1.33-4.89-3.69-4.55-7.43a2.25,2.25,0,0,0-.69-1.83,2.46,2.46,0,0,0-2,.12A4.61,4.61,0,0,0,376.4,692a11,11,0,0,0-1.3,12.12c1.87,4,6.68,6.88,10.8,6.52a11.55,11.55,0,0,0,10.31-7.53C397.92,698.9,396.67,693.54,393.39,690.91Zm-2.91,13.91c-3.2,2.53-6.45,2.73-9.48.59a7,7,0,0,1-2.88-8.09c4.54,8,11.19,6.79,14.56,0A6.5,6.5,0,0,1,390.48,704.82Zm18.25-49.14c-.7-.58-1.31-1.47-2.1-1.66a7.62,7.62,0,0,0-3.13.21c-1.73.33-3.43.8-5.09,1.2V644.61c2.92-.89,6,.09,8.54-2.15-.24-.56-.41-1.49-.68-1.52-2.62-.29-5.26-.44-8-.64-.26-4.3-.54-8.89-.82-13.54,2.8-.2,5.56-.34,8.31-.6,1.28-.12,2.73-.44,2.53-2.13-.17-1.52-1.61-1.64-2.8-1.55-2.84.2-5.68.49-8.5.85a9.68,9.68,0,0,0-2.31.94v34.82a8.43,8.43,0,0,0,2.08.35,21.94,21.94,0,0,0,2.71-.6c2.47-.47,5-.8,7.4-1.42C407.59,657.23,408.11,656.28,408.73,655.68Zm27.66-27.54c-.26,8.65-.53,17.3-.75,26,0,1.54-.31,3.57,2,3.59s2-2,2-3.56c.09-7.8.12-15.61.21-23.41,0-1.29.18-2.57.27-3.77,1.72,0,3.17,0,4.62,0,1.13,0,2.18-.36,2.19-1.75s-1.05-1.79-2.16-1.81c-4.09,0-8.17-.08-12.25,0-.61,0-1.19.93-1.78,1.42.55.56,1,1.4,1.67,1.63a23.23,23.23,0,0,0,4,.61C436.39,627.51,436.4,627.83,436.39,628.14Zm2.33,74.5a2,2,0,0,0-2,2.42c.12.79,1,1.46,1.34,1.85,2.15,0,2.73-.92,2.72-2.16A1.89,1.89,0,0,0,438.72,702.64Zm149.21-194.1c.77.07,1.64-.89,2.46-1.41,0-.32,0-.64,0-1-.79-.57-1.53-1.49-2.39-1.61a1.68,1.68,0,0,0-2,2.05A2.88,2.88,0,0,0,587.93,508.54ZM336,401.66c.11-1-.12-2.43.45-3.31,1.42-2.18,1.31-4.05-.29-5.83-.3-15.54-.59-30.94-.88-46.54a4.39,4.39,0,0,1,.49.54c2.06,4.07,4.33,8.05,6.09,12.25a12.42,12.42,0,0,0,3.89,5.53c3.94,3.15,7.29,7.05,11.29,11.05V398c-2,2.82-2,3.62.24,6.19v2.32c-3.53,2.74-3.28,5.36-.11,7.86.68,3.44-.53,6.31-2.4,9A17,17,0,0,0,353,426c-1.79,4-4.12,8-5.06,12.19-1,4.52-.71,9.34-.9,14a4.48,4.48,0,0,0,.53,2.79c.43.55,1.64.47,2.76.73-2.44,2.73-2.8,6-2.53,9.47.1,1.25,0,2.52,0,3.78a34.11,34.11,0,0,0,.1,4.17c.27,2.12,1.75,2.75,3.56,1.63.32-.2.61-.44,1.34-1a16.84,16.84,0,0,1-.48,3.26c-1,2.66-2.22,5.23-3.22,7.89a52.49,52.49,0,0,0-2.62,8.08c-.43,2.19-.08,4.53-.08,7l1.9.11a29.8,29.8,0,0,1,3.39-3.94c2.87-2.32,5.91-4.45,8.9-6.64a15.13,15.13,0,0,0,5.71-9.25c.4-1.73.69-3.48,1-5.21l1.95.3c5.09-7.13,4.63-14.2,0-20.92.8-1.09,1.71-1.8,1.86-2.64.71-3.75.81-7.52-.83-11.1q-4-8.75-8.07-17.46a16.33,16.33,0,0,1-1.81-9.37c2.62-3.3,2.62-4.83-.08-7.62v-2.5c2.17-2.35,2.16-3-.22-6.23V376.88l.49-.09c.23.71.49,1.41.67,2.13,2.38,9.29,4.48,18.67,7.17,27.87,3.52,12,8.13,23.68,15.4,34.07a4.61,4.61,0,0,1,.58,2.43c.06,4.44.1,8.88,0,13.31a40.74,40.74,0,0,1-.75,4.18,8.53,8.53,0,0,0,.08,2.52c.31,1.7.73,3.38,1,4.8-3.32,3.28-3.29,4.56-.2,7.61v3.42c-4.21,4-4.19,6.41.28,9.7a21.66,21.66,0,0,1-.73,4.86A103,103,0,0,1,379,505.47c-2.34,4.33-4.3,8.53-4.78,13.65a207,207,0,0,0-.85,28.16c.24,5.72,1.55,11.11,5.3,15.71,4.84,5.94,10.65,10.85,16.48,15.75a10.55,10.55,0,0,0,2.56,1.85,25.48,25.48,0,0,0,3.91,1l.27-.7a5.59,5.59,0,0,0-1.06-1.32c-2-1.28-2.44-3.35-2.95-5.4a31.48,31.48,0,0,1-.48-14.35,21.87,21.87,0,0,0,.19-5.49c-.16-2.63-.57-5.25-.8-7.88-.18-2-.25-4-.33-5.2L392,535.11c1.9.26,2.87,2.59,5.13,1.08-.09-2.82.85-5.72-1-7.62.48-2.32.9-4.2,1.26-6.1.53-2.82.64-5.5-.84-8.24-2.07-3.84-3.76-7.89-5.57-11.86-2-4.44-2-9.24-2.58-13.79,3.16-3.86,3.16-5.15.11-9.25v-3.86c2.37-3.18,2.06-4.32-.32-7.26.3-1.79.7-3.9,1-6a7.94,7.94,0,0,0-.24-2.31,15.49,15.49,0,0,1-.56-2c-.13-2.58-.17-5.16-.22-7.75,0-1.15,0-2.3,0-4,4.33,4.26,8.76,7.16,14.39,7.7.12.64.24,1.15.31,1.66a26.53,26.53,0,0,0,9.83,18c1,.77,1.82,1.34,3.28.18a10.54,10.54,0,0,0-.58-2.36c-1.65-3.36-1.38-6,1-8.81,1.23-1.48,2.51-2.92,3.6-4.5a8.57,8.57,0,0,0,.82-2.49c-.53-.43-.73-.6-.94-.75l-.35-.24c3.95-3.43,3-8.15,3.47-11,4.05-7.38,7.45-13.66,10.93-19.89.61-1.11,1.59-2,2.28-3.08a4.76,4.76,0,0,0,1.08-2.43,8.21,8.21,0,0,1,2.57-6.74,4.85,4.85,0,0,0,.93-2.52c.32-1.76.49-3.55.69-5.11,3.85-1.27,5.44-4.17,2.87-9a35.4,35.4,0,0,0,2.12-3.38c.51-1,1.19-2.29,1-3.26a6.36,6.36,0,0,1,1.61-6.31,2.31,2.31,0,0,0,.64-1.78c-.94-3.16.55-6,1.13-8.91,1.18-6,2.47-11.91,3.71-17.81,3-1.87,3.93-4,1.33-8.13.21-.93.09-2.39.76-3,2-2,2.09-4,.77-6.1.63-4.48,1.34-8.8,1.84-13.14,1.37-12.15,2.62-24.31,4-36.46a69.74,69.74,0,0,0-1.9-24.17c-.84-3.5-2-6.92-3.11-10.65,1,.34,1.79.63,2.59.87,2.3.67,3.92,0,4.78-2a4.64,4.64,0,0,0-1.53-5.65c-.46-.29-.95-.55-1.57-.91a14.4,14.4,0,0,0,1.25-1c1.92-1.9,3.95-3.72,5.71-5.76a3.41,3.41,0,0,0,.37-4.26c-1-1.56-2.58-1.42-4.11-1-1.05.25-2.07.61-3,.87,1.08-3.19,2.33-6.26,3.1-9.44.51-2.13.28-4.47-2-5.78-1.42-.83-4,.06-5.55,2.48a95.45,95.45,0,0,0-4.84,9.71,9.7,9.7,0,0,0-.48,1.72,2.69,2.69,0,0,1-.6-1.61c-1-10.82,2.23-20.51,7.77-29.63,2.12-3.5,5.34-5.44,9.08-6.61.88-.28,2,.07,3.44.17-.66.73-.76.92-.91,1-1,.46-2.06,1-1.58,2.33s1.76,1.5,3,1.28a4.12,4.12,0,0,0,3.64-3.2,5.06,5.06,0,0,0-2.21-5.35,7.61,7.61,0,0,0-7.25-.48,21.05,21.05,0,0,0-10.86,9.19A55.71,55.71,0,0,0,450,214.62a9.34,9.34,0,0,1-.49,1.35c-1-6.36-2-12.55-2.92-18.31a83,83,0,0,0,6.13-6.5c2.75-3.61,2.87-7.76,1.41-11.91-.81-2.32-2.28-2.67-4.12-1.1a25.87,25.87,0,0,0-3.87,4c-1.25,1.65-2.21,3.52-3.35,5.38l-5.22-9a8,8,0,0,0,1.54-8.75,29.26,29.26,0,0,0-3.69-6.26c-1-1.38-2.3-3.26-4.3-2.61s-2,2.94-2.21,4.74a46,46,0,0,0,0,5c-2.95-.84-5.63-1.79-8.4-2.35a12.75,12.75,0,0,0-10.28,1.78c-3.05,2.15-4,5.19-3.44,8.72a7.32,7.32,0,0,0,5.39,6.05,3.4,3.4,0,0,0,4.4-1.68,3.27,3.27,0,0,0-1.24-4.37c-1.34-.79-3.06-.93-5-1.45a3.84,3.84,0,0,1,2.23-4.22,13.63,13.63,0,0,1,6-1.35c8.93.53,14.82,5.7,19,13.19.69,1.23,1.27,2.53,2.16,4.31l-2.78-.95a26.5,26.5,0,0,0-12.73-1.2c-2.18.32-2.93,1.58-2.06,3.32,2.53,5,6.39,8.6,12.13,9.14,2.79.26,5.67-.58,9-1,.63,2.75,1.37,6,2.21,9.65a10.88,10.88,0,0,1-1.38-.66c-4-3-8.52-3.43-13.25-2.87-2.45.28-3.19,1.56-2,3.71,2.26,4.17,5.55,7.16,10.51,7.5a41.21,41.21,0,0,0,6.43-.53c.81,6.13,1.63,12.39,2.43,18.53,0,0-.21-.26-.41-.47-4.12-4.29-7.88-9-12.41-12.79-17.8-14.89-38.49-20.53-61.33-17.23-20.17,2.92-36.77,12.65-49.42,28.7-13.76,17.45-19,37.38-16.06,59.34a76.24,76.24,0,0,0,16.15,37.43,4.34,4.34,0,0,1,.89,2.49c0,5.56-.1,11.13-.13,16.69,0,5,0,9.93,0,14.69-3,3.14-2.46,4.44-.21,6.79,0,1.86-.13,3.79.06,5.69.07.64.91,1.21,1.4,1.81.44-.62,1.21-1.22,1.26-1.88.17-2,.06-4,.06-5.84,2.37-2.93,2-4.3-.19-6.79V333l5.27,5c0,.77,0,1.62,0,2.48q-.17,25.25-.37,50.48a20.67,20.67,0,0,1-.67,2.8,11.11,11.11,0,0,0-.17,3.39,43.13,43.13,0,0,0,1.33,4.75c-3.13,3.72-3,5.52-.09,8.24a10.7,10.7,0,0,1-.88,7.11,12.22,12.22,0,0,0-1.32,3.94,18.75,18.75,0,0,0-.2,4.73,3.66,3.66,0,0,0,3.42,3.34c1.85.3,2.53-1.09,3.14-2.46,1.25-2.78.7-5.57,0-8.36s-1.26-5.57-1.83-8.07C339.4,407.14,339.43,404.79,336,401.66Zm96.94-228.38-1.39-5.55.82-.22c.47,1.87,1,3.73,1.42,5.6ZM435.13,197c1.17-2.22,2.44-1.2,3.59-1l0,.61Zm5.17-3.6-7.58-2.64c0-.16.11-.33.17-.49,2.75.33,5.47.75,7.7,2.63Zm3,16.91L437,207.94c.08-.24.17-.48.26-.71l6.38,2.33Zm2.25-19.72-.85-.36,2.56-5.8.75.32ZM356.91,369.14l-.76.5L349,361.58c.34-3.86-.55-5-4.87-5.18L336,341.13l20.93,12.31Zm-12-125.75c.46,4.2,1.65,8.17,5.43,11.39L321.71,259a67.37,67.37,0,0,1,22.66-32.1c1,3.1.65,6,.52,8.82A49.73,49.73,0,0,0,344.94,243.39Zm4.72-12.18c4.82,1.06,9.36,1.92,13.82,3.09,3.3.87,6.28,2.44,8.07,5.85l-5.17,10.5c-1.77-3.53-3.54-7.18-5.45-10.74a6.64,6.64,0,0,0-2.11-2,3.14,3.14,0,0,0-4.21.19,5.31,5.31,0,0,0-1.31,3.66c.25,3.05,2.49,5,4.7,6.82a42.22,42.22,0,0,1,5,4.37l-10,1.5c-3-2.5-3.89-5.82-3.87-9.43,0-2.58.4-5.15.51-7.73C349.73,235.21,349.66,233.17,349.66,231.21Zm13,15.55-5.81-7.55C360.31,240.57,361.38,243.79,362.69,246.76Zm-22.57,44.59a7.7,7.7,0,0,0-2.47,1.22,3.67,3.67,0,0,0-1.66,4.31c.48,1.76,1.92,2.45,3.61,2.61,2.82.26,5.13-1.06,7.33-2.56,1.79-1.22,3.5-2.56,5.65-4.16-.66,3.92-1.23,7.32-1.81,10.72-3,1.93-6.21,1.78-9.28.84-4.48-1.37-8.84-3.08-13.45-4.71,3.11-5,6.06-10.15,9.42-15,1.1-1.58,3.28-2.4,5.12-3.68l7.89,8.72a10,10,0,0,0-1,.1C346.35,290.29,343.22,290.75,340.12,291.35Zm6.65.4-8.6,3.35C340.25,292.22,343.63,292.3,346.77,291.75Zm30.48,46.15a70.3,70.3,0,0,1,4.86,5.75,29,29,0,0,1,2,3.43c-8,1.74-29.91-5.34-36.84-11.89l23.6-12.4C370.58,329.08,373.25,333.75,377.25,337.9Zm6.92,13.71v2.32l-4.79-.29v-2.45c.81,0,1.57-.05,2.32,0S383.25,351.45,384.17,351.61Zm-7.16-.7v2.59l-5.75-1c.27-.91.46-1.58.69-2.36Zm-7.22-1.28c-.05.83-.1,1.57-.16,2.59l-6.2-1.64.7-2.37Zm-14.52-5c-.33.83-.6,1.54-1,2.44l-5.17-2.68,1.42-2.14Zm-6.56-3.52-1.55,2.08-4.08-2.69,1.56-2.05Zm-20.59-51c-1.25,2.39-2.59,4.75-4,7.06a31.1,31.1,0,0,1-2.69,3.26,67.85,67.85,0,0,1-.17-40.1l19.61,19.13C334.46,280.83,330.83,284.91,328.12,290.09Zm-4.9,13.3c2.68.81,5.33,1.73,8,2.4a77.42,77.42,0,0,0,11.18,2.34c2.45.23,5-.67,7.49-1.06.09,4.25-4,25.21-5.35,26.44a66.73,66.73,0,0,1-21.86-29.32Zm19,33.33-1.47,2.06L336,334.86l1.63-2.05Zm14,11.26c.4-.92.67-1.56,1-2.4l4.62,1.81c-.31.8-.55,1.44-.89,2.34Zm1.82,75.42c-.32,4,1.58,7.66-1.19,11.09-2.25,2.79-4.21,5.8-6.29,8.72C349.42,439,352.74,430.68,358.09,423.4Zm-8,26.54v-3.73l.45.24,7.42-6.73C356.92,442.77,353.48,447.41,350.08,449.94Zm.61,21.14c.69-4.56-1.05-9,1.65-13.35,1.57-2.49,2.13-5.61,3.14-8.45l-.31-.31c1-1.21,2-2.43,3.12-3.77C360.52,455.18,358.65,463.84,350.69,471.08Zm-.91,20c.58-1.44,1.12-2.88,1.74-4.3,1.15-2.59,2.49-5.12,3.5-7.77,1.28-3.37,1.16-4.92,0-8.64l4.35-6.26C361.21,470.89,356.71,484.11,349.78,491.11ZM368.89,469A105.12,105.12,0,0,1,362,447.73l.59-.1c2.23,4.47,4.54,8.92,6.66,13.44C370.51,463.74,370.32,466,368.89,469Zm-7.45-39.94c.52,1.4,1,2.83,1.6,4.19a77.45,77.45,0,0,0,3.7,7.61c1.58,2.65,1.84,5.43,1.72,8.51l-1.88.15C362.68,443.52,361.19,438,361.44,429.07Zm1.81,34.23,2.29,5.4c-.72,3.22-1.48,6.23-2,9.27a14.25,14.25,0,0,1-7.45,10.51C362.15,480.85,362.68,472.07,363.25,463.3ZM384.46,434l-.51.13c-10-17-15-35.82-19.75-55.14l7,2.64c1.56,2.32,3.53,2.57,6.31,1.71,2.09-.65,4.54-.13,7-.13Zm.23-54.49-5.65-.36c-2.43-3-4-4.06-7.28-1.52L363,374c-1.32-6.67-2.64-13.25-4.06-20.39a86.36,86.36,0,0,0,25.71,4.7ZM377,330.54a14.53,14.53,0,0,1-3.67-9.05l10.3-5.44c-.55,3.58-1.14,7.18-1.62,10.79a7.53,7.53,0,0,0,.29,2.33,3.67,3.67,0,0,0,3.6,3.13c1.82.12,2.95-1.1,3.61-2.62,1.13-2.63.67-5.32,0-8-.46-1.7-1-3.37-1.71-5.61L397,321c.79,3.74-.74,6.77-2.91,9.52-2.74,3.47-5.61,6.84-8.25,10C383,337.31,379.94,334,377,330.54Zm7.83-10.16v10C382.77,326.86,383.9,323.62,384.86,320.38Zm40.83-22.78a18.26,18.26,0,0,0,4.92,1.36,3.4,3.4,0,0,0,3.75-2.34,3.71,3.71,0,0,0-1.23-4.29c-2.07-1.91-4.73-2.28-7.37-2.51-1.7-.15-3.42,0-4.85,0,2.17-2.4,4.38-4.85,6.67-7.37,3.47.59,5.74,2.87,7.56,5.6,2.46,3.67,4.73,7.47,7,11.08-3.72,1.65-7.42,3.37-11.19,4.93-3.14,1.3-6.39,2.12-10.05,1.12-.63-3.69-1.26-7.37-1.92-11.19C421.34,295.25,423.45,296.58,425.69,297.6Zm-2.93-3.6,9,2.74C428.27,297.5,425.51,295.74,422.76,294Zm4.12-55.28c-.36-3.13-.33-6.31-.39-9.48a11.28,11.28,0,0,1,.55-2.33,68,68,0,0,1,22.62,32l-26.49-3.85a39.67,39.67,0,0,0,2.17-3.39C427.44,247.58,427.39,243.21,426.88,238.72ZM449.73,300c-2.53-1.73-4.05-4.27-5.73-6.72a55.29,55.29,0,0,0-6.57-8.38c-2.05-2-4.81-3.29-7.4-5l19.53-19C454,266.08,454,292.79,449.73,300Zm5.21-3.55,2.58.89c-.55,2-1.06,3.76-1.62,5.74l-2.47-1.12C453.94,300.07,454.41,298.34,454.94,296.42Zm-1.06-36.08,2.67-1c.47,1.79.9,3.39,1.38,5.2l-2.78.57C454.73,263.53,454.34,262.05,453.88,260.34Zm.91,45.77c-.52,1.34-1,2.53-1.57,4L450.8,309l1.57-4Zm-35.86,59.56L413.47,370V353.49c4.49-2.35,9-4.41,13.21-7s8-5.75,12.48-8.47L430,353.85c-2.87.24-4,1.55-4.11,4,0,.73-.78,1.44-1.13,2C420,360,418.72,361.19,418.93,365.67Zm-3.1-20.9,4.07-2.12,1.4,2.15L417,347.06Zm10-10.55-4.39-25.67c2.38.19,4.6.8,6.65.44a73.51,73.51,0,0,0,9.42-2.78c2.95-1,5.84-2.06,8.79-3A12.18,12.18,0,0,1,449,303,67.61,67.61,0,0,1,425.86,334.22Zm8.79,1.23-4.32,3.48L428.71,337l4.26-3.59Zm-8.43,3.31,1.54,2-4.59,3L422,341.5Zm10-5-1.69-1.49,3.06-3.32,1.7,1.83Zm3-6.57,3.38-4.17,2,1.67-3.19,4C440.62,328.22,440,327.77,439.18,327.21Zm5-6.44,2.77-4.35L449.1,318c-1,1.47-1.86,2.87-2.88,4.45Zm3.73-5.91c.64-1.31,1.22-2.53,1.9-3.92l2.3,1.43L450.27,316ZM424.34,335.3a66.45,66.45,0,0,1-36.61,12.12c.84-3,2.89-5,4.54-7.32a63.48,63.48,0,0,0,6.06-9.46c1.13-2.35,1.24-5.19,1.86-8ZM406.2,351.06l-4.38,1.17c-.28-.79-.51-1.44-.83-2.36l4.46-1.24C405.69,349.41,405.89,350.07,406.2,351.06Zm-6.62,1.59-4.68.77c-.06-1-.1-1.68-.15-2.52l3.91-.58Zm-6.81.94-5,.32c-.06-.83-.11-1.52-.18-2.41l5-.5C392.66,352,392.71,352.67,392.77,353.59ZM382.53,506.23c.31,6.09-1.68,11.27-5.4,14.59C375.78,514.81,380.54,511.38,382.53,506.23Zm-5.63,17.29,3.93-3.69c.22,3.7-2,6-3.73,8.44l-.51-.13C376.7,526.57,376.8,525,376.9,523.52Zm3.71,3.17c-.13,3.89-2.36,6.3-4,9v-4.46Zm-2.83,30.41a22.52,22.52,0,0,1-1.11-4.57c-.14-4.28-.05-8.57-.05-12.82l3.83-4.8C381.37,542.46,382.33,549.81,377.78,557.1Zm4.26,5.23-2.67-2.94c1-2.17,1.88-4.06,2.76-5.94l.5.07C382.45,556.25,382.26,559,382,562.33Zm8.22,8.22-6.43-6.07c.29-1.93.54-3.55.8-5.27l6.08,10.89Zm-5.91-28.43,8.1,11.17C388.88,551.26,384.07,544.64,384.35,542.12Zm10.24,30.39c-4.09-7.6-8.18-14.76-9.26-22.89l9.26,8.82Zm-1.08-30.07.58-.24v8.72c-.73-.88-1.31-1.47-1.76-2.15-2.27-3.41-4.56-6.81-6.74-10.28a11.6,11.6,0,0,1-1.74-7.78,66.92,66.92,0,0,1,.75-7c1.59,3.42,3.14,6.86,4.76,10.27C390.7,536.85,392.13,539.64,393.51,542.44Zm-3.18-33.75a31.41,31.41,0,0,0,3.14,5.73c2.65,3.35,2.2,6.85,1.22,10.47l-2.41.77c1,2.4,1.89,4.57,2.79,6.75l-.72.46a25,25,0,0,1-3.67-3.43c-1.4-1.91-2.41-4.11-3.63-6.15-2.37-4-2.59-8.21-1.72-12.66.63-3.22,1-6.48,1.46-9.56C387.9,503.47,389.06,506.11,390.33,508.69Zm13.87-83.05c-.9,2.9-1.76,5.66-2.63,8.43l2.43,1.38c-.34,4.68-.68,9.46-1.06,14.82-2.35-.89-4.54-1.27-6.17-2.43A69.15,69.15,0,0,1,388.9,441a4.2,4.2,0,0,1-.73-2.74q-.35-22.83-.58-45.66c0-3,0-5.94,0-9.12l5.18-.7c3.63,2.52,5.67,2,7.25-1.67l10-4.44v6.44c-1.87,2.75-1.89,3.15-.15,5.78V392c-3.36,3.49-3.4,5,0,8.22a28.86,28.86,0,0,1-1.07,3.77c-1.28,3-2.89,5.82-4,8.84a95.19,95.19,0,0,0-2.83,9.65C401.52,424.11,402,425.51,404.2,425.64ZM408,461.41c-.68-2.42-1.35-4.84-2.09-7.47l2-.62c.2,2.79.39,5.37.58,8Zm-1.89-12.2c.52-1.21,1-2.43,1.55-3.65l.57.16V449l-1.62.59Zm1.14-7.3c-.92-3.36.41-7-1.61-10.07.72-2.78,1.45-5.58,2.17-8.37l-.42-.21,1.77-1.41C408.09,428.58,408.88,435.38,407.23,441.91Zm-1.6-21.06c1.54-3.53,2.87-6.59,4.21-9.65C410.46,415.1,410.41,418.71,405.63,420.85Zm4.95-48.8-11.09,5.19c-3.34-2.75-5.39-2.41-7.53,1.65l-4.56.48q-.31-10.56-.62-20.47l23.8-4.15Zm-2.1-21.61-.91-2.45,6.16-2.25,1.38,2.18Zm3.14,79.41.55-.24c2.32,3.65,4.65,7.3,6.95,11,.07.11-.2.43-.49,1C415.75,437.76,413,434.21,411.62,429.85Zm5.52,13.2-3.05,2.77c-1.62-3.47-2.72-6.76-2.44-10.77Zm-2.42-14.24c-2.42-3.6-2.29-7.43-1.66-11.4,4.26,4.61,5.54,5.9,3.23,11.62Zm-3.53,35.3c0-1.85-.05-3.85,0-5.86s.22-4.07.33-6.15l1.72-.93,3.43,5.43Zm7.55-13L416.38,449l3.07-2.77.45.17C419.54,447.87,419.19,449.29,418.74,451.12Zm37.83-129.33c-.56,4-1.15,8-1.85,12-.2,1.12-1,2.13-1.22,3.24-.35,1.5-.46,3.06-.68,4.59l.61.1c-.15.85-.29,1.69-.43,2.5-4,2.58-5.3,5.74-1.65,8.94-.87,4.12-1.73,8.38-2.65,12.64-.65,3-1.29,5.95-2.09,8.89a31.58,31.58,0,0,1-1.57,3.54,6,6,0,0,0-.59,2.05c-.09,1.65,0,3.32,0,4.73-3.35,2.1-3.68,3.14-2.69,6.17a6.39,6.39,0,0,1,0,2c-4.75,1.36-6.63,6.11-3.21,9.51-.28.84-.58,1.76-.86,2.62-3.12,2.22-3.44,3.05-2.27,6.8-.79,1.15-1.79,2.56-2.73,4a7.5,7.5,0,0,0-.74,1.8,37.46,37.46,0,0,1-1.43,4.84A78.06,78.06,0,0,1,421.46,438l-4.24-5.14c.8-1.35,1.49-2.41,2.07-3.53.27-.52.19-1.22.49-1.71,2-3.27.61-6.22-1.38-8.6-3.41-4.08-4.1-8.93-4.83-13.83a51.86,51.86,0,0,1-.31-5.19c2.71-3.46,2.72-5.41.25-8v-2.9c2.24-2.88,2.24-3.83.07-6.3v-8.39l8.06-6.32c4,0,5.12-1.65,5.07-5.52,1-.77,2.27-1.67,3.45-2.66a5.87,5.87,0,0,0,1.34-1.67c.92-1.65,1.77-3.34,2.63-5,2.91-5.72,6.14-11.3,8.56-17.21a34.83,34.83,0,0,1,4.85-8.42A70.29,70.29,0,0,0,457.22,311a1.18,1.18,0,0,1,.81-.71C457.55,314.13,457.11,318,456.57,321.79Zm1.37-26.64-2.65-.4c.23-1.38.46-2.69.71-4.16l2.73.23C458.45,292.38,458.19,293.75,457.94,295.15Zm1.14-7.14h-2.77c.19-1.86.35-3.59.53-5.4h2.73C459.4,284.44,459.25,286.16,459.08,288Zm.63-7.88h-2.78c-.16-2.15-.32-4.23-.5-6.48h2.81C459.39,275.79,459.55,277.9,459.71,280.13Zm-1.43-13.47c.24,1.48.44,2.76.67,4.27l-2.75.62c-.22-1.56-.42-2.94-.62-4.4ZM463.46,247c-.07,1.11-.11,1.87-.16,2.78a5.61,5.61,0,0,1-4.74-2.64c.1-.22.19-.43.29-.64ZM468,234c-2.45,5.06-6.76,7.49-11.2,10C457.43,239.67,464,233.5,468,234Zm-4.64-14.64c-.23,1.89-.12,3.5-.64,4.87-1.15,3-2.58,5.93-4,8.85-1.18,2.5-2.44,4.95-3.69,7.47C452.81,234.74,457.72,221.21,463.4,219.33Zm-9.67,32.12c.67,1.71,1.33,3.35,2,5.15l-2.74,1c-.64-1.7-1.24-3.28-1.9-5Zm-3.07-6.54,2.14,4.3-2.53,1.39-2.21-4.19Zm-1.21-2.23-2.45,1.8c-.93-1.48-1.72-2.75-2.59-4.15l2.39-1.68Zm-4.12-6.21-2.43,1.73L439.56,234l2.2-2.06Zm-8.65-9.83L440,230l-2.18,2-3.32-3.37Zm-5.52-4.79,3.6,3-2,2.19-3.74-3C429.76,223.34,430.41,222.65,431.16,221.85Zm-7.09-4.9,4.91,3.18-2,2.37-4.65-3Zm-5.92-3.26,4,2.12c-.55.92-1,1.68-1.55,2.58l-3.68-1.82Zm-7.79-3.23,5.28,2c-.37,1-.66,1.89-1,2.9l-5.23-2Zm-7.24-2.2,5.07,1.45c-.28,1-.49,1.86-.79,3l-4.86-1.35C402.72,210.34,402.89,209.47,403.12,208.26ZM396,206.92l4.73.85c-.22,1.14-.37,2-.57,3l-4.6-.79C395.69,208.91,395.82,208,396,206.92Zm-9-.76,6.42.49c-.12,1-.22,1.93-.35,3.12l-6.07-.52Zm37.66,19c-2.35,1-4.16,1.85-6.05,2.49-3.61,1.24-7.33,2.19-10.89,3.57a16.33,16.33,0,0,0-4.8,3.1,40.3,40.3,0,0,0-3.79,4.49l-12.92-26.15C400.32,213.15,412.85,216.93,424.68,225.15ZM415,247.05a15.46,15.46,0,0,0,2.51-3.54,3.88,3.88,0,0,0-.88-5,3.68,3.68,0,0,0-4.91.32,28.89,28.89,0,0,0-4.17,6.12,48.44,48.44,0,0,0-2.25,6.34c-1.76-3.57-3.26-6.62-4.72-9.57a9.42,9.42,0,0,1,6-5.68c4.94-1.62,10-2.91,14.74-4.26.47,4.32,1,8.57,1.39,12.83a14.35,14.35,0,0,1-2.43,10.05L408.61,253C410.88,250.9,413,249.05,415,247.05Zm-4.23,1.65c1.84-2.73,3.5-5.22,5.12-7.63C416.41,242.83,413.88,246.8,410.76,248.7Zm-7.8,8.15,38.65,5.62-27.94,27.25c2.15,12.58,4.31,25.26,6.56,38.47l-34.54-18.13-34.54,18.13,6.57-38.44-28-27.28,38.65-5.62,17.27-35Zm-30.13-19.32c-3.63-6.4-9.37-8.42-15.81-9.52a43.54,43.54,0,0,1-9.35-3.07c11.12-8.06,23.45-11.81,37.47-12.3ZM379,206.58l5.21-.46v3.08l-5.21.52Zm-3.08.36c.16,1.14.27,1.91.42,2.93l-4.31.74c-.2-1-.38-1.83-.62-3Zm-7.44,1.26c.39,1,.72,1.82,1.14,2.89L365,212.34c-.34-1-.61-1.8-1-2.92Zm-7.12,2.07c.37,1.15.64,2,.94,3l-4.65,1.8-.89-2.89ZM354,213.38c.46,1,.86,1.76,1.35,2.74l-3.87,1.93-1.17-2.83Zm-6.13,3.2,1.65,2.58-4,2.57-1.71-2.51Zm-6.45,4.3,1.69,2.54-3.66,3-1.71-2.48Zm-5.64,4.79,1.91,2-3.2,2.67-1.84-1.72Zm-5.16,5.09,2.33,1.92-3.38,4-2.32-1.81Zm-5.14,6.43,2.37,1.78-3.46,5.35-2.42-1.8Zm-4.93,7.9,2.63,1.42-1.7,3.29L319,248.47ZM317.72,251l2.62,1.3c-.6,1.58-1.15,3-1.77,4.71l-2.74-.94C316.5,254.24,317.06,252.72,317.72,251Zm-2.87,8,2.76.83c-.53,2.06-1,4-1.53,6l-2.77-.42C313.83,263.21,314.32,261.17,314.85,259Zm-2,9,2.78.65c-.19,1.36-.35,2.52-.54,3.87l-2.65-.44C312.55,270.75,312.68,269.44,312.82,268Zm-.81,7.34h2.82c-.14,1.65-.27,3.27-.43,5.11l-2.7.14C311.81,278.81,311.91,277.15,312,275.34Zm-.06,8.23h2.72c.14,1.87.28,3.61.45,5.63l-2.74.15C312.23,287.36,312.1,285.52,312,283.57Zm.79,8.55,2.75-.24c.26,1.34.51,2.58.77,3.92l-2.57.76Zm1.49,6.72,2.56-.76c.43,1.44.77,2.62,1.19,4.05l-2.64.55C315,301.38,314.63,300.22,314.23,298.84Zm2.29,7.3,2.54-.84,1.78,4.26-2.49.91Zm3.12,7.17,2.37-1.19,1.5,2.7-2.21,1.36Zm5.57,9.24c-.89-1.34-1.7-2.57-2.59-3.93.67-.61,1.24-1.11,2-1.78l2.73,4.16Zm4.76,6-3-3.59,2-1.82,3.21,4Zm4.81,4.8-2.62-3.09,1.49-1.59,2.21,2.59Zm81.84,300.76q1.94,7.43,3.88,14.85a49.11,49.11,0,0,0,1.93,6.84c.37.88,1.92,1.25,2.93,1.84a9.24,9.24,0,0,0,1.34-2.53c1.46-8.8,1.06-17.68,1.07-26.54,0-1.55-.28-3.11-.46-4.93l-2.59.36c-.29,7.23-.57,14.28-.83,20.74l-8-20.64c-2.17-.33-3.16.28-3.4,1.9a22.34,22.34,0,0,0-.35,3.54q.17,12.3.43,24.6a5.1,5.1,0,0,0,.44,2.31c.29.53,1.13,1.18,1.6,1.09s1.17-.84,1.58-1.43c.21-.32.06-.9.06-1.37V634.32Zm-43.35,21.77c0,1.55-.21,3.23,1.87,3.58,1.41.23,2-1,2-3.62,0-1.32-.05-2.65-.06-4s0-2.48,0-3.72c.7-.2,1.14-.34,1.58-.44,7-1.67,11-6.48,13.06-12.91,1.9-5.85-1.92-11.11-8-11.48a56.24,56.24,0,0,0-6.48.32l-1.82-2c-.61,1.54-1,2.62-1.52,3.81a9.86,9.86,0,0,0-2,1.36,70.11,70.11,0,0,0-5.08,6c-.59.79-.93,2.12.47,2.8,2-2.17,3.9-4.28,5.83-6.38l.94.73c0,.71,0,1.42,0,2.13Q373.61,644,373.27,655.89Zm3.9-28.17a10.16,10.16,0,0,1,7.28-.34c2,.69,3,2.33,3.06,4.83.11,4.81-4.66,11-9.34,12.07a3.76,3.76,0,0,1-.83,0,8.74,8.74,0,0,1-.16-1.18C377.17,638,377.17,633,377.17,627.72Zm-19.91,61.13c-2.58-1-4.41.84-3.69,3.49a37,37,0,0,0,1.53,3.91c-2.5.26-4.93.39-7.31.82a15.4,15.4,0,0,0-4.84,1.64c-2.32,1.35-2.13,3.52.27,4.7a10,10,0,0,0,3,1c3.32.47,6.65.81,10,1.2-.65,1.64-1.45,3.32-2,5.08-.43,1.43-.44,3.23,1.15,3.81a4.36,4.36,0,0,0,3.77-.52,35.66,35.66,0,0,0,5.88-7.11C369.82,698.75,363.08,691,357.26,688.85Zm.13,22.7-.58-.39q1.37-3.12,2.73-6.21l3.76-.86A18.48,18.48,0,0,1,357.39,711.55ZM344.48,701a38.33,38.33,0,0,1,19.64-.14C360,703.06,347.92,703.14,344.48,701Zm11.83-9.35c2.22,0,5.38,2.74,6.64,5.75C358.84,697.33,357.41,695.8,356.31,691.6Zm-6.65-65.79c2.1-.2,4.21-.36,6.28-.73,1.5-.26,1.91-1.26,1.05-2.81-4.48-1.49-9-1.13-13.82.15a24.71,24.71,0,0,0-.58,3.65c0,9.6,0,19.21,0,28.81a12.29,12.29,0,0,0,.33,2.55c.29,1.35,1.26,1.74,2.54,1.67s2.17-.65,2.27-2c.08-.92,0-1.85,0-2.78V642.19c1.79,0,3.12.1,4.42,0,1.58-.16,2.66-1,2.45-2.76s-1.48-2-2.94-2c-1.24,0-2.48.14-3.9.23-.22-4-.43-7.77-.65-11.81C348.11,625.82,348.89,625.88,349.66,625.81Zm169.54,76.6h-1c-.55.81-1.55,1.63-1.52,2.41s1.08,1.74,1.86,2a1.67,1.67,0,0,0,2.11-1.9C520.6,704,519.72,703.22,519.2,702.41ZM336.44,629.9l-.38,0a1.25,1.25,0,0,1,0-.19c-.12-3.74-2.41-7.17-5.26-7.89-2.65-.68-5.3,1.05-7.62,4.27-3.55,5-4,10.64-3.94,16.32s1.27,11,5.36,15.38c2.67,2.84,6.06,3,8.63.07a16.78,16.78,0,0,0,3-5.06c2.51-6.54,2.67-13.32,1.53-20.15A10.77,10.77,0,0,0,336.44,629.9Zm-4.67,22.22a22.8,22.8,0,0,1-2.39,3.47l-.88,0a12.83,12.83,0,0,1-2-2.75,32.66,32.66,0,0,1,.65-24.9,4.7,4.7,0,0,1,.39-.69c1.69-2.66,3.12-2.67,4.86,0,.64,1,1.19,2.05,1.61,2.78,0,1.6-.11,2.9,0,4.18C334.68,640.39,334.34,646.41,331.77,652.12Zm.36,50.52a1.88,1.88,0,0,0-2.09,2.1c0,1.24.56,2.16,2.71,2.16.3-.38,1.23-1,1.36-1.83A2,2,0,0,0,332.13,702.64Zm196.46.21a2.84,2.84,0,0,0-2,1.86,1.68,1.68,0,0,0,1.95,2.06c.88-.14,1.65-1,2.46-1.52v-.93C530.21,703.78,529.37,702.8,528.59,702.85Zm9.57-.46c-.57.8-1.58,1.6-1.57,2.38a2.92,2.92,0,0,0,1.83,2,1.68,1.68,0,0,0,2.15-1.86c-.08-.87-.94-1.66-1.45-2.48ZM194.61,671.71V418.8l-4.08,3.06V675.28c12.5,2.3,20.84,8.42,21.79,22.19.53,0,1.05.12,1.56.12,38.83,0,77.65-.07,116.47.07,3.62,0,5.34-2.13,7.44-4.41H216.05C213.28,681.64,206.89,674,194.61,671.71Zm351.89,33a1.66,1.66,0,0,0,1.91,2.09c.88-.13,1.66-1,2.48-1.49l0-.93c-.81-.54-1.64-1.53-2.42-1.5A2.87,2.87,0,0,0,546.5,704.68Zm-59.64,0a2.87,2.87,0,0,0,1.85,2c.8.08,1.69-.88,2.54-1.39,0-.3,0-.61,0-.91-.75-.56-1.44-1.42-2.27-1.61A1.7,1.7,0,0,0,486.86,704.71Zm-7.56-2.33-.89,0c-.53.78-1.41,1.51-1.51,2.35a1.81,1.81,0,0,0,2.09,2.06c1.35-.07,2.21-.94,1.95-2.2C480.77,703.8,479.87,703.13,479.3,702.38Zm-9.82,0h-.94c-.55.82-1.56,1.66-1.51,2.45a2.89,2.89,0,0,0,2,1.91,1.69,1.69,0,0,0,2-2C470.88,703.89,470,703.17,469.48,702.4Zm-10.81,0c-.57.8-1.59,1.59-1.59,2.38a2.91,2.91,0,0,0,1.82,2,1.69,1.69,0,0,0,2.16-1.85c-.07-.86-.93-1.66-1.43-2.49Zm40.68,0-1,0c-.56.81-1.58,1.63-1.56,2.42a2.92,2.92,0,0,0,1.91,2,1.7,1.7,0,0,0,2.07-2C500.71,703.93,499.87,703.19,499.35,702.41Zm9.3.45a2.86,2.86,0,0,0-1.91,1.9,1.66,1.66,0,0,0,2,2c.88-.17,1.63-1,2.43-1.59l0-.93C510.3,703.74,509.44,702.79,508.65,702.86Zm-76.46-203.2c-2.58-.75-4.59-1.87-4.59-5.09a31,31,0,0,0-.92-5.42l-.51-.09c-.26,1.61-.61,3.21-.79,4.83-.42,3.75-1.16,4.69-4.8,5.79l-2,.63c1.24.32,1.89.44,2.5.64,2.15.73,4,1.66,4.15,4.39a58.47,58.47,0,0,0,1,6.14h.49a56.32,56.32,0,0,0,1-6.15,4.26,4.26,0,0,1,3.05-4c1-.39,2-.67,3.46-1.15ZM183.63,253.49a1.69,1.69,0,0,0,2-2.05,2.91,2.91,0,0,0-1.89-1.94c-.78-.07-1.64.9-2.47,1.42,0,.32,0,.64,0,1C182,252.45,182.77,253.37,183.63,253.49Zm.11,39.76a1.7,1.7,0,0,0,1.87-2.16,2.91,2.91,0,0,0-2-1.83c-.77,0-1.58,1-2.38,1.54l0,1C182.08,292.29,182.87,293.17,183.74,293.25Zm1.87-91.54a2.92,2.92,0,0,0-1.93-1.91c-.77-.05-1.62.93-2.43,1.46v1c.81.55,1.57,1.46,2.43,1.57A1.69,1.69,0,0,0,185.61,201.71Zm-2-7.85a1.69,1.69,0,0,0,2-2,2.93,2.93,0,0,0-1.87-2c-.77-.07-1.65.88-2.48,1.39l0,1C182,192.79,182.75,193.72,183.61,193.86Zm-.42,320.23-.92,0c-.49.85-1.43,1.73-1.36,2.53a2.84,2.84,0,0,0,1.92,1.89,1.67,1.67,0,0,0,2-2C184.65,515.62,183.76,514.89,183.19,514.09Zm2.42-302.47a2.88,2.88,0,0,0-2-1.87c-.78-.05-1.61.94-2.42,1.48,0,.32,0,.65,0,1,.81.54,1.58,1.44,2.44,1.54A1.69,1.69,0,0,0,185.61,211.62Zm0,89.49a2.92,2.92,0,0,0-1.92-1.92c-.77-.05-1.62.92-2.44,1.45v1c.8.55,1.56,1.46,2.42,1.58A1.69,1.69,0,0,0,185.61,301.11Zm0-168.85c-.13-.88-1-1.65-1.53-2.46h-.93c-.53.81-1.5,1.66-1.46,2.44a2.86,2.86,0,0,0,1.85,2A1.69,1.69,0,0,0,185.62,132.26Zm0-10.13a2.93,2.93,0,0,0-2-1.84c-.78,0-1.59,1-2.39,1.55,0,.32,0,.64,0,1,.83.52,1.62,1.4,2.49,1.48A1.7,1.7,0,0,0,185.61,122.13Zm0,19.94a2.9,2.9,0,0,0-1.93-1.9c-.78,0-1.62.94-2.43,1.47v1c.81.54,1.57,1.45,2.43,1.55A1.69,1.69,0,0,0,185.61,142.07ZM184.9,313a2.48,2.48,0,0,0,.1-3.66c-1.37-.29-2.78-.46-3.18,1.12a3.51,3.51,0,0,0,.69,2.74C182.83,313.55,184.4,313.42,184.9,313Zm-1.16-162.86c-.78-.07-1.65.88-2.48,1.39l0,1c.79.58,1.52,1.51,2.38,1.65a1.7,1.7,0,0,0,2-2A2.92,2.92,0,0,0,183.74,150.11Zm0,69.57c-.77-.07-1.64.9-2.47,1.41,0,.32,0,.64,0,1,.8.56,1.54,1.49,2.4,1.62a1.7,1.7,0,0,0,2-2.05A2.91,2.91,0,0,0,183.72,219.68Zm-2.47-37.27c.82.53,1.6,1.42,2.46,1.51a1.69,1.69,0,0,0,1.9-2.13,2.91,2.91,0,0,0-2-1.87c-.78,0-1.6,1-2.4,1.53C181.24,181.77,181.25,182.09,181.25,182.41ZM588,534.37a1.69,1.69,0,0,0-1.94,2.08,2.88,2.88,0,0,0,1.92,1.91c.77.06,1.62-.92,2.44-1.45,0-.32,0-.64,0-1C589.6,535.39,588.84,534.48,588,534.37ZM187.52,53c1.34,1.74,3,3.25,4.41,4.78-1.78.77-3.59,1.43-5.26,2.33a3.12,3.12,0,0,0-1.88,3.59,3,3,0,0,0,3.15,2.25,41,41,0,0,0,8.8-.91c9.09-2.35,10.17-12,7.48-18.23a3.7,3.7,0,0,0-2.68-1.85c-.82,0-2,.94-2.52,1.77a20.62,20.62,0,0,0-1.59,3.81c-1.6-1.34-3.08-2.77-4.76-3.92a25,25,0,0,0-5.37-2.87,3.35,3.35,0,0,0-3,.65,3.47,3.47,0,0,0-.2,3.06A30,30,0,0,0,187.52,53Zm.74,9.94c-.06-.2-.13-.4-.2-.6l6.5-2.68,3.3,2.09C194.51,62.79,191.46,63.5,188.26,62.89Zm13.57-15.3c1.58,3,1.26,6,.72,9.06C199.58,54.58,199.2,50.64,201.83,47.59ZM200.19,59.7a31.59,31.59,0,0,1-13.62-13A30.1,30.1,0,0,1,200.19,59.7ZM586,516.59a2.9,2.9,0,0,0,1.93,1.9c.78,0,1.62-.94,2.43-1.47v-1c-.8-.55-1.57-1.45-2.43-1.56A1.69,1.69,0,0,0,586,516.59ZM588,488.67c.78.06,1.63-.92,2.45-1.45,0-.32,0-.64,0-1-.8-.55-1.56-1.46-2.42-1.57a1.69,1.69,0,0,0-2,2.08A2.87,2.87,0,0,0,588,488.67ZM222.84,653.31a3.08,3.08,0,0,0,4.15-.63,39.38,39.38,0,0,0,5.29-6.34c5.14-8.14-.69-15.8-7-18.55a3.87,3.87,0,0,0-3.39.47c-.64.56-.68,2.15-.52,3.22a15.35,15.35,0,0,0,1.31,3.37c-3.39.55-6.66,1-9.88,1.63-1.75.36-3.64,1.12-3.71,3.28s1.91,2.78,3.56,3.09c3.67.7,7.4,1.13,11.17,1.68a48.46,48.46,0,0,0-1.89,4.64C221.43,650.64,221.33,652.25,222.84,653.31Zm2.18-2.93-.61-.34,2.73-6.31,3.69-.87A18,18,0,0,1,225,650.38Zm5.7-14.43c-3.64.35-5.63-.93-6.89-6C227.15,631.1,229,633.38,230.72,636ZM212.53,640a30.26,30.26,0,0,1,18.68-.2A32,32,0,0,1,212.53,640ZM183.11,278.89c-.52.83-1.47,1.69-1.41,2.48a2.87,2.87,0,0,0,1.89,1.93,1.69,1.69,0,0,0,2-2c-.15-.87-1-1.62-1.59-2.42Zm2.5-47.37a2.92,2.92,0,0,0-1.93-1.9c-.77-.05-1.62.93-2.43,1.46,0,.32,0,.64,0,1,.81.56,1.57,1.46,2.43,1.58A1.7,1.7,0,0,0,185.61,231.52Zm-1.92,8c-.77-.05-1.62.92-2.44,1.45v1c.8.56,1.56,1.47,2.42,1.58a1.69,1.69,0,0,0,2-2.08A2.91,2.91,0,0,0,183.69,239.56Zm1.92,31.7a2.91,2.91,0,0,0-2-1.89c-.77,0-1.61.95-2.42,1.49,0,.33,0,.65,0,1,.81.54,1.58,1.44,2.44,1.54A1.69,1.69,0,0,0,185.61,271.26Zm0-99.35A2.91,2.91,0,0,0,183.7,170c-.78-.06-1.63.91-2.45,1.44v1c.8.56,1.55,1.47,2.41,1.59A1.69,1.69,0,0,0,185.61,171.91Zm-4.37-69.07c.8.55,1.56,1.46,2.43,1.57a1.69,1.69,0,0,0,1.94-2.09,2.92,2.92,0,0,0-1.93-1.91c-.77,0-1.62.94-2.44,1.47ZM184,259l-.92,0c-.49.84-1.42,1.73-1.35,2.52a2.86,2.86,0,0,0,1.93,1.88,1.69,1.69,0,0,0,2-2.05C185.45,260.5,184.55,259.77,184,259Zm-1.16,378.81a1.67,1.67,0,0,0,2-2c-.17-.88-1.06-1.63-1.62-2.43l-.92,0c-.5.84-1.44,1.71-1.38,2.5A2.82,2.82,0,0,0,182.81,637.79Zm-.49-231.42c.33,1.74.81,4,3.21,3.91,2.24-.06,2.95-2.09,3.32-3.9.64-3.16,1-6.37,1.56-9.73a13.86,13.86,0,0,0,3.21,1.3c1.13.16,2.82.2,3.38-.46a4.09,4.09,0,0,0,.4-3.57,14.52,14.52,0,0,0-8.85-8.27,10.74,10.74,0,0,0-3.88-.43c-4.6.21-8,2.86-11.1,5.87-2.11,2.05-2.6,4.07-1.62,5.42s3,1.57,5.67.47c1.17-.48,2.3-1.07,3.17-1.48C181.29,399.21,181.64,402.82,182.32,406.37Zm12.86-11.2-.44.6-4.91-2.88c-.33-1.6-.58-2.86-.91-4.49C191.89,390.27,194.17,392.16,195.18,395.17Zm-10-7.24c2.31,2.95,2.29,15.36-.09,18.88A38,38,0,0,1,185.14,387.93Zm-9.82,7-.61-.91,7-5.64.58.41c-.23,1-.46,2-.75,3.37Zm5.12,261.19c.81.55,1.64,1.55,2.41,1.52a2.91,2.91,0,0,0,2-1.88,1.69,1.69,0,0,0-1.9-2.12c-.86.09-1.64,1-2.46,1.52C180.45,655.48,180.45,655.8,180.44,656.12Zm2.37-8.39a1.67,1.67,0,0,0,2-2c-.17-.88-1.05-1.63-1.62-2.43l-.92,0c-.5.84-1.44,1.71-1.38,2.5A2.8,2.8,0,0,0,182.81,647.73Zm0-19.88a1.67,1.67,0,0,0,2-2c-.18-.88-1.07-1.62-1.64-2.42l-.92,0c-.5.84-1.43,1.72-1.36,2.52A2.83,2.83,0,0,0,182.83,627.85Zm2-12c-.18-.88-1.07-1.62-1.64-2.42l-.92,0c-.49.84-1.43,1.72-1.36,2.52a2.83,2.83,0,0,0,1.92,1.88A1.67,1.67,0,0,0,184.83,615.89ZM183,603.94c-.87.08-1.66,1-2.49,1.47l0,1c.79.56,1.6,1.57,2.38,1.55a2.9,2.9,0,0,0,2-1.83A1.69,1.69,0,0,0,183,603.94Zm1.87-37.59c-.11-.89-.94-1.69-1.45-2.53l-.93,0c-.55.8-1.55,1.61-1.53,2.41a2.81,2.81,0,0,0,1.78,2A1.66,1.66,0,0,0,184.82,566.35Zm-2-12.1c-.86.11-1.61,1-2.41,1.58v1c.81.53,1.66,1.51,2.44,1.45a2.87,2.87,0,0,0,1.91-1.91A1.69,1.69,0,0,0,182.86,554.25Zm0,29.82c-.86.09-1.63,1-2.45,1.52,0,.33,0,.65,0,1,.81.54,1.64,1.54,2.42,1.5a2.9,2.9,0,0,0,1.95-1.88A1.68,1.68,0,0,0,182.9,584.07Zm-.11-5.91a1.67,1.67,0,0,0,2-2c-.16-.88-1-1.64-1.59-2.45h-.92c-.52.84-1.47,1.7-1.41,2.49A2.82,2.82,0,0,0,182.79,578.16Zm.15,15.85c-.86.08-1.65,1-2.48,1.47l0,1c.8.56,1.61,1.57,2.38,1.54a2.89,2.89,0,0,0,2-1.84A1.68,1.68,0,0,0,182.94,594ZM588,548.31c.78,0,1.61-1,2.42-1.51,0-.32,0-.64,0-1-.82-.54-1.59-1.43-2.45-1.53a1.69,1.69,0,0,0-1.91,2.12A2.9,2.9,0,0,0,588,548.31ZM185.62,92.53c-.12-.88-1-1.66-1.5-2.48l-.92,0c-.54.81-1.53,1.64-1.5,2.43a2.85,2.85,0,0,0,1.82,2A1.69,1.69,0,0,0,185.62,92.53ZM183.77,164a1.7,1.7,0,0,0,1.83-2.19,2.88,2.88,0,0,0-2-1.8c-.78,0-1.58,1-2.36,1.58l0,1C182.09,163.11,182.9,164,183.77,164Zm1.84-81.54a2.92,2.92,0,0,0-1.87-2c-.77-.08-1.65.88-2.48,1.38l0,1c.79.57,1.52,1.5,2.38,1.64A1.69,1.69,0,0,0,185.61,82.5ZM587.94,594a1.69,1.69,0,0,0-1.9,2.12,2.92,2.92,0,0,0,2,1.87c.78,0,1.6-1,2.4-1.51,0-.32,0-.65,0-1C589.58,595,588.8,594.1,587.94,594ZM183.22,109.91c-.55.8-1.54,1.62-1.52,2.41a2.86,2.86,0,0,0,1.8,2,1.7,1.7,0,0,0,2.12-1.92c-.11-.88-1-1.66-1.48-2.49Zm11.07,251.63a2.29,2.29,0,0,0,1.84-.7,2.59,2.59,0,0,0-.13-2,4.14,4.14,0,0,0-1.32-1.45,11,11,0,0,0-11.92-1.6c-4.1,1.76-7.15,6.48-6.88,10.78a11.46,11.46,0,0,0,7,10.27c4.33,2,9.92.86,12.71-2.59a3.12,3.12,0,0,0,.54-2.45c-.1-.39-1.42-.72-2.14-.64-3.39.36-6-1.41-7.12-5.08C188.2,362.56,190.54,361.2,194.29,361.54Zm-5.13,11.91c-2.06,1.16-5.3.41-7.17-1.67-2.74-3-3.11-6.68-1-9.8a6.9,6.9,0,0,1,8.2-2.93C181.33,363.2,182.24,370.21,189.16,373.45ZM590.39,645.16c-.83-.51-1.63-1.39-2.49-1.46a1.7,1.7,0,0,0-1.86,2.17,2.91,2.91,0,0,0,2,1.83c.78,0,1.58-1,2.38-1.57Zm-4.56,52.29c-1.9-2.45-4-4.76-6-7.17,1.47-.61,3.16-1.18,4.73-2s2.69-1.86,2.29-3.75-2-2.42-3.47-2.38a61.37,61.37,0,0,0-8.23.84,10,10,0,0,0-6.28,3.81c-3.33,4.4-3.46,9.32-1.55,14.28a3.84,3.84,0,0,0,2.71,2.1c.84.08,2-1,2.65-1.87a17.41,17.41,0,0,0,1.5-3.65c2.08,1.66,4,3.33,6,4.74a13.64,13.64,0,0,0,4.44,2.07c2.66.62,4-1,3-3.55A13.48,13.48,0,0,0,585.83,697.45Zm-2.45-12.24.2.62-6.49,2.67-3.3-2.09C577.18,685.28,580.21,684.63,583.38,685.21Zm-13.59,15.4c-1.5-3.17-1.3-6.17-.63-9.28C572.17,694.33,572.42,697.31,569.79,700.61Zm1.45-12.76a40.67,40.67,0,0,1,14.24,13.44C581.87,701.19,572.72,692.61,571.24,687.85ZM179.92,346.05c8.09,4.55,15.8-2.35,17.76-8,.86-2.49-.88-4.26-3.43-3.61a37.77,37.77,0,0,0-4.1,1.61c-.05-.55-.06-.93-.12-1.31-.53-3.31-.88-6.68-1.73-9.9a4,4,0,0,0-2.91-2.38c-.81-.07-2.28,1.41-2.56,2.43A82.1,82.1,0,0,0,181.2,334a23.44,23.44,0,0,0,0,3.25c-1.84-.78-3.37-1.57-5-2.07s-3.25-.61-4.29,1a3.15,3.15,0,0,0,.77,4.16A41.17,41.17,0,0,0,179.92,346.05Zm9.91-6.36,4.93-2.85c.14.21.29.42.44.62-1.08,3-3.3,4.91-6.29,6.72C189.25,342.56,189.51,341.29,189.83,339.69Zm-5-14.26c2.5,3,2.71,15.36.41,19.45C183.34,338.28,183.67,332.06,184.84,325.43Zm-3.29,15c.28,1.23.53,2.3.78,3.43-2.72-.73-6.21-3.52-7-6.16ZM588,584.07a1.68,1.68,0,0,0-1.93,2.1,2.89,2.89,0,0,0,1.94,1.88c.77.05,1.61-.93,2.42-1.47v-1C589.59,585.07,588.83,584.17,588,584.07ZM586,655.68a2.87,2.87,0,0,0,1.88,2c.78.07,1.64-.9,2.47-1.41l0-1c-.79-.57-1.53-1.49-2.39-1.62A1.68,1.68,0,0,0,586,655.68Z"/></svg>