<svg xmlns="http://www.w3.org/2000/svg" viewBox="0 0 750 750"><path d="M378.43,57.45a2.71,2.71,0,0,0,2.31.4c.46-.17.86-1.3.79-2-.35-3.55,1-5.9,4.45-7.32,3.48,1,5.51,3.68,5.06,6.72-.17,1.12-.45,2.36.84,2.63a4.39,4.39,0,0,0,2.73-1,5.6,5.6,0,0,0,1.51-1.81,11.53,11.53,0,0,0-12.29-17.27,11.57,11.57,0,0,0-9,9.44A10.6,10.6,0,0,0,378.43,57.45Zm3.26-14.52a7.18,7.18,0,0,1,9,0,6.63,6.63,0,0,1,2.82,7.72c-4.33-7.88-11-6.66-14.53,0A6.8,6.8,0,0,1,381.69,42.93ZM183.77,249.39c-1.23-.23-2.12.63-2.17,2s.71,2.31,2,2.17c.88-.09,1.68-1,2.52-1.5,0-.31,0-.63.05-.94C185.36,250.51,184.64,249.56,183.77,249.39Zm-2.52,52.24c.81.56,1.57,1.47,2.44,1.61,1.26.19,2.07-.74,2.09-2.08s-.86-2.25-2.08-2.08c-.88.12-1.64,1-2.45,1.61Zm.35-70c0,1.35.87,2.26,2.13,2,.88-.16,1.61-1.1,2.41-1.69l0-.93c-.83-.55-1.62-1.44-2.5-1.54C182.37,229.37,181.55,230.3,181.6,231.66ZM344.48,49.92a18.05,18.05,0,0,0,5.13,1.41c2,.33,4,.42,6.19.64a13,13,0,0,0-1.26,3.24c-.12,1.21-.15,2.9.56,3.56a4,4,0,0,0,3.57.36,14.47,14.47,0,0,0,8.4-9.23c1.45-4.76-.57-8.71-3.42-12.25a18.37,18.37,0,0,0-4.86-4.23c-1.93-1.14-4,.26-4,2.52a10,10,0,0,0,.66,3.26,36.72,36.72,0,0,0,1.67,3.58,13.86,13.86,0,0,0-1.73,0c-3.58.5-7.19.87-10.71,1.66a3.73,3.73,0,0,0-2.4,2.62C342.27,48,343.48,49.41,344.48,49.92Zm12.57,7c1.46-4.81,2.87-6,6.67-6A12.64,12.64,0,0,1,357.05,56.92Zm6.54-13.09-3.15-.67c-.88-2-1.79-4-2.88-6.49A12.48,12.48,0,0,1,363.59,43.83Zm.82,3C361.56,49,350,49,346,46.79A37.69,37.69,0,0,1,364.41,46.81Zm-62.29-1,.93,0c.61-.79,1.57-1.52,1.72-2.38a1.84,1.84,0,0,0-2-2.16c-1.33,0-2.28.75-2.14,2C300.73,44.17,301.6,45,302.12,45.79Zm10.56-.32c1.33,0,2.23-.9,2-2.13-.15-.88-1.08-1.61-1.66-2.41l-.95,0c-.53.82-1.41,1.6-1.53,2.48C310.4,44.71,311.34,45.5,312.68,45.47Zm20.35.11a2,2,0,0,0,2-2.46c-.15-.83-1.14-1.51-1.76-2.26-1.83.42-2.45,1.29-2.44,2.54A2,2,0,0,0,333,45.58Zm-11,.22H323c.58-.8,1.53-1.55,1.65-2.42a1.83,1.83,0,0,0-2-2.11c-1.34,0-2.27.81-2.09,2.06C320.63,44.22,321.51,45,322.06,45.8ZM482.3,636.74q.26,8.43.79,16.86c.23,3.45,1.85,4.21,4.66,2.49a25.93,25.93,0,0,0,10.36-12.24c2.45-5.69,3.4-11.6.9-17.55a11.19,11.19,0,0,0-17.54-4.55c-.93.73-1.7,1.53-1,2.94l1.81.91C482.27,629.33,482.18,633,482.3,636.74ZM493.71,626c1.68,2.16,2,4.68,2.08,7.3.1,5.4-3,12.15-7.37,15.77-.47-8.5-.94-16.86-1.4-25.2A5.82,5.82,0,0,1,493.71,626Zm-201-580.49c1.34,0,2.26-.85,2.1-2.07-.12-.88-1-1.64-1.59-2.46h-.94c-.56.81-1.47,1.56-1.61,2.44C290.48,44.64,291.4,45.46,292.74,45.47ZM590.89,221.62c0-1.35-.88-2.24-2.12-2-.88.15-1.62,1.07-2.43,1.65,0,.32,0,.63,0,.94.83.55,1.6,1.45,2.49,1.57C590.12,223.92,590.9,223,590.89,221.62Zm-3.54,87.68a2.55,2.55,0,0,0,.18,3.75c.5.45,2.12.54,2.38.18a3.92,3.92,0,0,0,.69-2.9C590.18,308.8,588.77,309,587.35,309.3Zm-1-156.68c.82.55,1.6,1.44,2.49,1.57,1.28.18,2-.79,2-2.13s-.89-2.24-2.12-2c-.88.15-1.62,1.08-2.43,1.66ZM243,45.46c1.34,0,2.29-.77,2.17-2-.09-.88-1-1.67-1.52-2.5l-.94,0c-.59.79-1.52,1.51-1.69,2.39C240.77,44.56,241.63,45.43,243,45.46ZM588.72,193.93c1.24.25,2.1-.62,2.16-2s-.74-2.3-2-2.18c-.88.09-1.69,1-2.53,1.5,0,.31,0,.62,0,.93C587.12,192.81,587.84,193.75,588.72,193.93Zm2.52,106.82c-.8-.58-1.54-1.53-2.4-1.67a1.83,1.83,0,0,0-2.14,2c0,1.34.78,2.29,2,2.14.88-.11,1.66-1,2.48-1.55ZM414.41,59.42c2.61.74,4.41-.89,3.78-3.52a36.88,36.88,0,0,0-1.52-4,22,22,0,0,0,2.73-.14,71.77,71.77,0,0,0,8.67-1.84,3.83,3.83,0,0,0,2.1-2.89c0-.85-1.31-2.19-2.29-2.5A52,52,0,0,0,420,42.85a31.37,31.37,0,0,0-4.56,0c.76-1.77,1.52-3.24,2-4.79s.69-3.36-1-4.49-3.24-.38-4.32.78A37.46,37.46,0,0,0,406.68,41C402.71,47.9,406.76,57.26,414.41,59.42Zm-.53-22.91.86.54-2.68,6.09-3.05.68-.49-.5Zm12.95,10c-2.71,2.4-15.21,2.6-18.9.36C414.33,45.14,420.42,45.43,426.83,46.51ZM415.32,56.89A12.93,12.93,0,0,1,408.76,51C412.37,50.78,414.18,52.22,415.32,56.89Zm87.55,89.27a86.51,86.51,0,0,1,8-3.35,23.63,23.63,0,0,1,3.57-.78c0-.16,0-.32,0-.48a22.21,22.21,0,0,1-2.18-.48c-2.75-.9-5.57-1.68-8.21-2.84a6.83,6.83,0,0,1-4.12-5.87c-.47-4.07-1.24-8.11-1.9-12.15-.25-1.51-.56-3-.92-4.88-.38.57-.54.71-.57.87-.84,5.23-1.8,10.44-2.46,15.68-.39,3.07-1.74,5.34-4.51,6.5s-5.48,1.86-8.24,2.74c-.69.21-1.42.31-2.13.46a4.83,4.83,0,0,0,1.93.82c3.11,1.06,6.27,2,9.28,3.33,2.29,1,3.27,3.11,3.6,5.58.46,3.47,1,6.93,1.6,10.39.32,2,.7,4.06,1.06,6.09l.54,0c.12-.61.26-1.21.36-1.82.83-5.09,1.7-10.18,2.46-15.29C500.34,148.73,501.12,147,502.87,146.16ZM186.14,280.86c-.8-.58-1.54-1.51-2.42-1.66-1.24-.21-2.1.68-2.12,2s.75,2.3,2,2.12c.89-.12,1.67-1,2.5-1.56C186.12,281.49,186.13,281.18,186.14,280.86Zm37-235.4c1.33,0,2.28-.77,2.16-2-.09-.88-1-1.67-1.52-2.5l-.94,0c-.59.79-1.51,1.51-1.68,2.39C220.89,44.56,221.76,45.42,223.12,45.46ZM191.29,316.33l3.8,2.82.58-.25V76.49c12.22-2.32,18.58-10,21.31-21.67H339.1c-2.62-2.75-4.9-4.75-8.77-4.41-4.67.41-9.4.1-14.1.1H214.88c-.64,0-1.27.11-1.8.15-.87,13.87-9.36,19.92-21.79,22.19Zm61.3-270.52h.93c.55-.83,1.46-1.61,1.56-2.48a1.84,1.84,0,0,0-2.11-2c-1.34.06-2.24.88-2,2.13C251.1,44.28,252,45,252.59,45.81Zm336.16,68.63c.87-.12,1.65-1,2.47-1.56,0-.32,0-.63,0-.94-.8-.59-1.54-1.53-2.41-1.66-1.22-.2-2.11.67-2.12,2S587.49,114.6,588.75,114.44ZM184.94,313a2.5,2.5,0,0,0,.23-3.7c-1.34-.41-2.77-.63-3.3,1a3.33,3.33,0,0,0,.53,2.8A2.59,2.59,0,0,0,184.94,313Zm6.72-255.18c-1.49.65-3.28,1.29-4.93,2.18a3.21,3.21,0,0,0-2,3.56A3,3,0,0,0,188,66a41.29,41.29,0,0,0,9-1c9.09-2.37,10-12.34,7.35-18.33-1.15-2.58-3.79-2.64-5.22-.22a32.69,32.69,0,0,0-1.63,3.75c-2.37-1.77-4.66-3.66-7.14-5.27-1.79-1.16-4-2.66-6-.74s-.21,4.06,1,5.71C187.3,52.71,189.58,55.28,191.66,57.86Zm5.72,4.28-8.79,1.17c-.09-.33-.17-.67-.26-1l6.28-2.58,2.79,1.77C197.39,61.71,197.39,61.93,197.38,62.14Zm4.36-14.21c1.43,2,1.67,5.21.64,8.55C199.61,53.79,199.38,50.79,201.74,47.93Zm-1.68,12.12a41.34,41.34,0,0,1-13.83-13.27C190.6,47.66,199.65,56.44,200.06,60.05ZM232.61,45.8h.94c.58-.8,1.53-1.54,1.66-2.41a1.84,1.84,0,0,0-2-2.12c-1.34,0-2.27.79-2.1,2C231.19,44.2,232.07,45,232.61,45.8Zm39.77,0h.92c.59-.8,1.54-1.55,1.66-2.42a1.84,1.84,0,0,0-2-2.11c-1.33,0-2.26.81-2.09,2.06C270.94,44.22,271.83,45,272.38,45.8Zm316.37,94.29a1.84,1.84,0,0,0-2,2.11c0,1.34.87,2.26,2.12,2.05.87-.15,1.61-1.08,2.41-1.66,0-.31,0-.62,0-.93C590.4,141.11,589.62,140.2,588.75,140.09Zm-405,129.17c-1.24-.19-2.11.69-2.12,2.05s.77,2.3,2,2.12c.89-.13,1.66-1,2.49-1.58,0-.31,0-.63,0-.94C185.33,270.33,184.58,269.4,183.71,269.26Zm402.64-136.6c.81.58,1.55,1.5,2.43,1.65,1.26.22,2.08-.7,2.1-2.05s-.8-2.27-2-2.11c-.87.12-1.65,1-2.47,1.57C586.36,132,586.35,132.35,586.35,132.66Zm-304-86.85h.93c.57-.81,1.51-1.57,1.63-2.44a1.84,1.84,0,0,0-2.08-2.08c-1.34,0-2.25.84-2.06,2.09C280.89,44.24,281.79,45,282.34,45.81ZM415.1,76.13H355.49v49.81H415.1Zm-4.22,45.32H360v-41h50.88ZM262.35,45.78l.94,0c.61-.78,1.58-1.5,1.74-2.36a1.85,1.85,0,0,0-2-2.18c-1.34,0-2.3.73-2.16,2C261,44.15,261.83,45,262.35,45.78ZM185.78,291.23c0-1.38-.85-2.26-2.08-2.09-.87.12-1.63,1-2.45,1.61v.93c.81.57,1.56,1.49,2.44,1.62C184.94,293.49,185.76,292.57,185.78,291.23Zm403-166.86c.87-.12,1.64-1,2.45-1.58,0-.31,0-.63,0-.94-.8-.58-1.56-1.51-2.43-1.64a1.84,1.84,0,0,0-2.1,2.06C586.7,123.61,587.51,124.55,588.77,124.37ZM511.93,276.89c-1,2.89-.41,6.71-5.15,7.17,4.74.3,4.14,4.22,5.17,7.06.53-1.55.45-3.23,1.18-4.42s2.27-1.93,3.57-2.95C512.18,283.76,513,279.72,511.93,276.89ZM509.08,45.8H510c.55-.8,1.45-1.56,1.58-2.43.2-1.26-.72-2.06-2.06-2.09a1.84,1.84,0,0,0-2.07,2.08C507.58,44.23,508.51,45,509.08,45.8Zm10,0,.94,0c.52-.83,1.38-1.63,1.48-2.5.14-1.26-.81-2-2.15-2a1.84,1.84,0,0,0-2,2.16C517.54,44.31,518.51,45,519.11,45.82Zm-19.95,0h.94c.54-.81,1.43-1.57,1.56-2.45.18-1.26-.75-2.05-2.08-2.07a1.84,1.84,0,0,0-2.06,2.1C497.64,44.25,498.58,45,499.16,45.81Zm29.8,0h.93c.56-.81,1.45-1.57,1.58-2.44.19-1.26-.74-2.06-2.07-2.08a1.84,1.84,0,0,0-2.07,2.09C527.45,44.24,528.39,45,529,45.81Zm-39.64,0,.93,0c.52-.84,1.38-1.64,1.47-2.52.13-1.25-.82-2-2.16-2a1.85,1.85,0,0,0-2,2.17C487.73,44.32,488.71,45,489.32,45.82ZM579.63,66a17.32,17.32,0,0,0,6-.34c2.41-.61,2.89-3.1,1.06-4.78a12.91,12.91,0,0,0-3.18-2,23.91,23.91,0,0,0-2.86-1c.79-.89,1.61-1.68,2.26-2.58,1.87-2.62,3.8-5.21,5.44-8a3.24,3.24,0,0,0-.27-3c-.57-.64-2-.76-3-.65a6.44,6.44,0,0,0-2.88,1.22c-2.43,1.68-4.77,3.5-7.26,5.35a15.63,15.63,0,0,0-1.47-3.48c-.64-.86-1.82-1.92-2.68-1.85A3.93,3.93,0,0,0,568.08,47a14.25,14.25,0,0,0,.47,12.8C570.9,64.12,575.14,65.46,579.63,66Zm4.47-3.8c-.06.37-.13.73-.19,1.1l-8.75-1.09c0-.21-.09-.42-.14-.63l2.75-1.81Zm1.54-15.42c-.45,3.16-8.95,11.5-13.47,13.08C573.79,55.59,581.56,48.12,585.64,46.77Zm-15.15,1.07c2.37,2.7,2.74,6.27-.51,8.7A13.27,13.27,0,0,1,570.49,47.84ZM586.7,82.51c0,1.34.79,2.28,2,2.12.87-.12,1.65-1,2.47-1.56v-.94c-.8-.58-1.54-1.53-2.41-1.66A1.84,1.84,0,0,0,586.7,82.51Zm2.11,7.89a1.84,1.84,0,0,0-2.11,2.06c0,1.34.8,2.28,2.07,2.1.87-.12,1.64-1,2.46-1.57,0-.32,0-.63,0-.95C590.44,91.46,589.68,90.53,588.81,90.4ZM539,45.82l.93,0c.52-.83,1.37-1.63,1.46-2.51.13-1.25-.82-2-2.15-2a1.84,1.84,0,0,0-2,2.17C537.42,44.32,538.4,45,539,45.82Zm-59.74,0h.93c.55-.81,1.45-1.57,1.58-2.44.19-1.25-.71-2.07-2.06-2.09a1.84,1.84,0,0,0-2.07,2.08C477.76,44.23,478.7,45,479.27,45.8Zm69.63,0,.93,0c.53-.82,1.4-1.61,1.51-2.49.16-1.25-.79-2-2.12-2a1.84,1.84,0,0,0-2,2.14C547.34,44.29,548.31,45,548.9,45.82Zm-99.43,0h.93c.55-.81,1.44-1.57,1.57-2.44.19-1.25-.73-2.06-2.07-2.08a1.83,1.83,0,0,0-2.06,2.09C448,44.24,448.89,45,449.47,45.8Zm99.7,592.42c.2-1.58-1.37-3-4.36-3.62s-6.09-1-9.27-1.43a11.69,11.69,0,0,0,1.25-3.14c.12-1.2.12-2.9-.59-3.55a4,4,0,0,0-3.58-.32c-4.38,2.05-7.58,5.31-8.6,10.21-.89,4.25.89,7.83,3.44,11a20.25,20.25,0,0,0,5.12,4.52c1.89,1.15,3.95-.3,3.93-2.55a10,10,0,0,0-.68-3.26,28.84,28.84,0,0,0-1.49-3.19c3.52-.44,7-.72,10.4-1.36C546.6,641.15,548.84,640.75,549.17,638.22Zm-14.5-9.7-3,5.19-4.07.81C529.39,631.18,531.61,629.22,534.67,628.52Zm-1.9,20.23-5.4-6.69.39-.6,3.12.64c.89,2,1.8,4.08,2.71,6.13ZM527.17,638a35,35,0,0,1,18.43,0C543.15,640.1,531,640.13,527.17,638Zm-16.65,14.54a3.2,3.2,0,0,1-3.16-3c-.16-1.23-.55-2.26-2-2.21s-2,1.15-2.16,2.41c-.47,3.67,2.84,7.48,6.46,7.49,4.44,0,6.82-1.58,8.21-5.76,1.94-5.8.09-10.63-4-14.84a37.26,37.26,0,0,1-5-5.6,9.76,9.76,0,0,1-1-5,2.87,2.87,0,0,1,1.95-2,3.13,3.13,0,0,1,2.45,1.37c.79,1.26,1,2.87,1.73,4.2.4.74,1.31,1.2,2,1.78.47-.79,1.39-1.62,1.31-2.35a15.17,15.17,0,0,0-1.34-5.5c-2.4-4.55-7.74-4.88-11-.88-2.94,3.63-3,7.63.1,12.26,1.77,2.62,4,4.91,6,7.39,1.73,2.16,3.14,4.51,2.5,7.44C513.19,651.28,512.46,652.74,510.52,652.58ZM186.12,211.19c-.83-.54-1.62-1.44-2.5-1.54-1.25-.16-2.06.78-2,2.13s.87,2.26,2.12,2c.88-.17,1.62-1.1,2.42-1.68C186.13,211.82,186.13,211.5,186.12,211.19Zm284,8.19c2.34,1.15,3.57,3.19,4.53,5.54a35.91,35.91,0,0,0,3,6,11.54,11.54,0,0,0,9.64,5.43c.89.93,1.73,2,2.72,2.83s1.17,2.55,3.51,1.9a16,16,0,0,0-.71-3.65c-1.08-2.41-2.38-4.72-3.63-7-3.61-6.76-7.09-13.6-10.94-20.21a16.42,16.42,0,0,0-5.42-5.63c-10.92-6.53-21.39-13.72-31.78-21-8.33-5.85-16.71-11.64-25.06-17.47A26.52,26.52,0,0,0,400,161.38c-8.79.13-17.59.45-26.38.8a5.51,5.51,0,0,0-4.6,2.52c4.35,1.68,8.63,1,13,1.14-.6,1.84-1.14,3.48-1.63,5l-3.54-1c-1,3,.71,4.72,1.95,6.62.85,1.3,1.48,2.73,2.21,4.1-2.23,0-4-1.44-5.84.6,1,3.69,4.5,4.07,7.37,5.53l1.56,2.85c-4.15.57-7.91,1.14-11.69,1.58-1.38.16-2.69.17-3.06,2.51.95.31,2,1.05,3,.91A116.15,116.15,0,0,0,385.66,192c4.22-1.16,8.31-1.55,12.49-.29a4.43,4.43,0,0,1,2.47,1.75,61.55,61.55,0,0,1,2.87,6.29c1.42,3.37,3.3,6.46,6.78,7.87,3.93,1.6,6.36,4.39,8.48,7.93a14.29,14.29,0,0,0,5.56,5.38,7.28,7.28,0,0,1,4.27,5c.44,1.6,1.05,3.15,1.39,4.77.66,3.14,2.49,5.46,4.75,7.61a7,7,0,0,1,2,3.26c.75,3.14,1.13,6.37,1.78,9.54.88,4.31,2.1,4.55,4.87,4.75l2.53,2.52c.36-.69.61-.94.58-1.13-1.46-7.9.78-16.18-3-24.09,2.64,1.41,3.79,3.06,3.67,5.11-.3,5.3,1.28,10.18,3.22,15a31.63,31.63,0,0,1,1.54,5.25c.8,3.74,1.31,7.62,6.24,8.37V271c3.16-1.3,2.27-4.08,3-6.16l3.12,2.5c.11,1.34.22,2.64.32,3.95l.64.13a14,14,0,0,0,1.1-1.21c1.8-2.38,1.81-5.09,1.71-7.94-.17-5.35-.17-10.7-.06-16.05.14-6.47,1.07-13-2.31-19-1.56-2.77-3.07-5.56-4.6-8.35q-1.22-2.22-2.45-4.44c.11-.13.23-.26.34-.4C462.63,215.77,466.37,217.56,470.08,219.38ZM485.58,234a35.15,35.15,0,0,1-4.6-3.62,13,13,0,0,1-2.63-4.39c-1.53-4.56-3.71-8.49-8.53-10.27a10,10,0,0,1,2.66-7.32C475.43,210.29,485.61,229.79,485.58,234Zm-17-28,1.88.94-2.76,7.61-1.61-.75C466.3,210.94,465.9,208,468.57,205.93Zm-8.11,17.5A68.72,68.72,0,0,1,464.8,234c.66,2.46.22,5.24.12,7.87-.19,5.15-.43,10.3-.76,15.45-.13,2-.59,3.9-.93,6.08a11.52,11.52,0,0,1-2.91-6.56c-.54-7.1-1.23-14.2-2.32-21.23-.43-2.77-2.07-5.35-3.15-8-.45-1.12-.87-2.25-1.47-3.79l4.06,1.39c.16-1.5.27-2.52.45-4.15C459,222,460.06,222.57,460.46,223.43Zm-8.91-18.05c1.71,3.87,3.54,7.68,5.34,11.51.3.66.64,1.29,1,2l-2,.41c-.17.94-.32,1.83-.51,2.86l-2-1-1.9.45-6.74-14.1-.75.18a7.42,7.42,0,0,0,.13,2c1.34,3.59,2.62,7.22,4.21,10.7s3.84,6.69,5.24,10.24a50,50,0,0,1,3.05,11.22c.74,5.36.83,10.81,1.18,16.22a4.24,4.24,0,0,1-.05,1.18c-.31,1.49-.66,3-1.05,4.67-1.85-1.77-1.91-4.36-2.52-6.73a35.49,35.49,0,0,0-1.35-4.72c-1.9-4.64-3.39-9.32-3-14.43.26-3.62-2.34-5.66-4.74-7.58a11,11,0,0,1-4.07-5.63c-.88-3-2.11-5.84-3.26-8.73a10,10,0,0,0-1.2-1.81l-.75.14a5.14,5.14,0,0,0-.18,2c2.48,7.39,5,14.75,7.55,22.13a5.89,5.89,0,0,1,.45,2.08c-.2,4.14-.47,8.29-.73,12.71-1.65-1.25-1.79-2.74-1.86-4.34-.13-3-.32-6-.66-9a3.89,3.89,0,0,0-1.27-2.37c-3.48-2.81-5.32-6.61-6.35-10.76a12.91,12.91,0,0,0-6.34-8.64,10.61,10.61,0,0,1-3-3.11,45.53,45.53,0,0,0-11.93-11.8c-3.86-2.53-6-6.13-7.26-10.52a42.92,42.92,0,0,0-3.33-7.74c-.39-.75-1.54-1.11-2.33-1.65l-.44.47c.5,1.19,1,2.39,1.6,3.86H387c-.11-.16-.5-.66-.73-1,1.21-1.79,2.36-3.37,3.34-5,.26-.46,0-1.24-.09-2-2.3-.09-3.45,1.41-4.9,2.92-.23-1.42-.41-2.55-.58-3.59,2.77-2.54,5-5.18,5.26-9.15-2.47-.54-3.57,1.24-5.53,2.58.85-2.56,1.52-4.59,2.12-6.38,6.78,0,13.2-.19,19.61.1a13,13,0,0,1,6.24,2.24c3.73,2.5,7.08,5.55,10.72,8.17,13.09,9.44,25.53,19.86,40.36,26.66.53.24,1,.56,1.34.73-.66,2.74-1.28,5.33-1.94,8.11-3.06-1-6.4-1.67-7.79-5.55-.51-1.42-.95-3.15-3.19-3.77A8.9,8.9,0,0,0,451.55,205.38Zm67,248.37c-3.41-.86-6-2.44-5.92-6.51a17.83,17.83,0,0,0-.48-3.13c-.27-1.48-.56-3-.84-4.44l-.5,0c-.5,2.85-1.2,5.67-1.43,8.54-.24,3.08-2.18,4.32-4.67,5.17-1.18.41-2.4.67-4.08,1.13,1.91.57,3.32.9,4.66,1.43,1.66.66,3.41,1.37,3.8,3.4.47,2.47.79,5,1.22,7.43.15.89.43,1.76.65,2.64a34.64,34.64,0,0,0,1.75-8.22c.2-3,1.87-4.5,4.45-5.36,1.29-.43,2.59-.81,4.39-1.36ZM439.65,45.53c.86-.13,1.59-1.13,3-2.18-1.37-1-2.1-1.86-3-2.06a1.73,1.73,0,0,0-2.23,1.84C437.44,44.5,438.14,45.74,439.65,45.53ZM562.73,69.25a22.4,22.4,0,0,0,14.17,7.11V319.49l4.21-3.09V72.8c-12.6-2.32-21-8.52-21.74-22.19-.58,0-1.1-.12-1.62-.12q-58.72,0-117.44,0c-3.32,0-4.59,2.48-6.5,4.48H555.7A26.06,26.06,0,0,0,562.73,69.25ZM459.82,45.46c1.35,0,2.28-.77,2.09-2-.13-.88-1-1.65-1.56-2.47l-.94,0c-.58.8-1.5,1.55-1.64,2.43C457.58,44.59,458.49,45.44,459.82,45.46Zm131.4,56.42c-.83-.54-1.62-1.44-2.49-1.54a1.84,1.84,0,0,0-2,2.14c0,1.34.9,2.24,2.14,2,.87-.16,1.6-1.09,2.4-1.68C591.23,102.51,591.22,102.19,591.22,101.88ZM469.4,45.81l.93,0c.53-.82,1.41-1.6,1.52-2.48.16-1.26-.79-2-2.12-2a1.84,1.84,0,0,0-2,2.13C467.84,44.28,468.8,45,469.4,45.81ZM591.21,211.17c-.83-.54-1.63-1.43-2.5-1.52a1.84,1.84,0,0,0-2,2.15c.07,1.34.91,2.24,2.16,2,.87-.17,1.59-1.11,2.38-1.71Zm0,59.61c-.83-.53-1.63-1.43-2.5-1.51a1.84,1.84,0,0,0-2,2.16c.07,1.33.92,2.23,2.16,2,.87-.17,1.59-1.11,2.38-1.71Zm-2.4-21.39a1.84,1.84,0,0,0-2.11,2.06c0,1.34.8,2.28,2.07,2.1.87-.12,1.64-1,2.46-1.57,0-.32,0-.63,0-.95C590.44,250.45,589.68,249.52,588.81,249.39Zm2.41,11.48c-.83-.54-1.62-1.44-2.49-1.54a1.84,1.84,0,0,0-2,2.14c0,1.34.9,2.24,2.14,2,.87-.16,1.6-1.09,2.4-1.68C591.23,261.5,591.22,261.19,591.22,260.87Zm-338,128.7c1.33-.47,2.68-.86,4.54-1.44-1.69-.44-2.85-.69-4-1.05-2.78-.9-4.69-2.39-4.84-5.72a68.45,68.45,0,0,0-1.31-8.09,3.33,3.33,0,0,0-1,2c-.4,2.41-.82,4.82-1.12,7.25a4.37,4.37,0,0,1-2.8,3.77c-1.69.71-3.46,1.24-5.46,1.95a4.34,4.34,0,0,0,.89.37c5.2.76,8,3.52,7.94,9a28.76,28.76,0,0,0,1,5.58l.52-.08c.45-2.73,1.12-5.44,1.3-8.18C249.16,392,250.7,390.45,253.21,389.57Zm29,25.86a9.31,9.31,0,0,0-.39-1.93c-1.42,2.78-.23,7-5.51,7.39,5.46.28,4,4.72,5.36,7.46.85-3,.11-6.89,5-7.53C283.16,420.35,282.25,418.25,282.21,415.43Zm89.57-306.89c.55.11,1.12.2,1.83.33-.24.66-.41,1.14-.6,1.62a45.72,45.72,0,0,0-1.93,5c-.17.63.34,2,.81,2.1a3.11,3.11,0,0,0,2.37-.64c.52-.37.72-1.23,1-1.9.86-2,1.7-4,2.56-6h13.63c.88,2.52,1.7,5,2.58,7.37.4,1.1,1.13,1.86,2.42,1.48s1.42-1.49,1.12-2.58c-.42-1.53-1-3-1.51-4.51-2.8-7.64-5.59-15.27-8.48-22.88a14,14,0,0,0-2-2.81l-.83.16c-3.91,6.17-6.22,13.16-9.45,19.67a18.56,18.56,0,0,0-3.46.33c-.89.25-2.21.83-2.35,1.47C369.2,108.21,370.68,108.31,371.78,108.54Zm13.69-18.46c1.63,5.18,3.1,9.83,4.65,14.74H379.59ZM591.22,280.75c-.83-.55-1.62-1.45-2.49-1.55a1.84,1.84,0,0,0-2,2.14c0,1.34.89,2.25,2.14,2,.87-.15,1.6-1.09,2.4-1.68C591.23,281.37,591.22,281.06,591.22,280.75ZM238.38,652.93a3,3,0,0,0,4-.51,41.17,41.17,0,0,0,5.57-6.61c5.34-8.47-1.42-16.36-7.33-18.62a3.7,3.7,0,0,0-3.22.51c-.65.63-.76,2.14-.62,3.21a16.79,16.79,0,0,0,1.4,3.71,19.86,19.86,0,0,0-2.7.14c-3.09.63-6.2,1.19-9.2,2.11a3.21,3.21,0,0,0-1.66,2.56,3.66,3.66,0,0,0,1.93,2.41,15.7,15.7,0,0,0,4.73,1.37c2.65.36,5.33.45,8,.66-.67,1.72-1.43,3.39-2,5.13A3.25,3.25,0,0,0,238.38,652.93Zm2.6-3-.87-.51,2.65-6.12,3.14-.64.41.51Zm-1.21-20.17c2.92.89,4.61,3.18,6.61,6l-4.27-.78-2.88-4.76Zm-11.48,9.83a29.9,29.9,0,0,1,18.24-.23A32.89,32.89,0,0,1,228.29,639.59Zm66.93-414.95c1-2.95.37-6.82,5-7.22-3.78-1.39-3.8-1.42-4.37-5.11-.12-.76-.33-1.52-.49-2.28l-.49,0c-.64,3,.09,6.92-4.9,7.37C295,217.74,294.16,221.79,295.22,224.64Zm5.6-47.71c.26,2.91.94,5.8,1.43,8.69l.56-.05c.45-2.59.95-5.17,1.34-7.76.6-3.95,1.75-5.27,5.68-6.29l2.65-.71a2.34,2.34,0,0,0-1.4-.7c-4.67-.79-6.19-2.3-7-6.87-.42-2.49-.88-5-1.33-7.46a3.36,3.36,0,0,0-1,2,42.5,42.5,0,0,0-.83,5.68c-.09,3.61-2.13,5.35-5.32,6.21-1,.27-2,.56-3.53,1,1.92.6,3.32,1,4.67,1.46C299.07,172.91,300.59,174.24,300.82,176.93Zm290.4,4.44c-.83-.54-1.62-1.44-2.5-1.53a1.84,1.84,0,0,0-2,2.14c.06,1.34.91,2.24,2.15,2,.87-.15,1.6-1.09,2.39-1.68C591.23,182,591.22,181.68,591.22,181.37ZM299.74,631.87c.07.9.71,2.3,1.35,2.47a3.65,3.65,0,0,0,2.93-.9,3.75,3.75,0,0,0,.75-2.7,16.28,16.28,0,0,0-.89-3.85c-1.36-4.16-6-6-9.59-3.5a17,17,0,0,0-4.79,5.4,27.86,27.86,0,0,0-3.09,16.71A19.79,19.79,0,0,0,290,655.85c3.33,4.42,8.48,4.75,12.3.78a19.38,19.38,0,0,0,4.84-9.84,1.83,1.83,0,0,0-.2-1.27,2.27,2.27,0,0,0-4,.22c-1,2-2.32,4.71-2.61,5.18-.95,1.52-1.92,3.3-4,3.18s-2.91-2.13-3.57-3.84a23.58,23.58,0,0,1-.94-13.67,41.06,41.06,0,0,1,3.25-8.41,2.92,2.92,0,0,1,3.51-1.67C300.35,628,299.6,630,299.74,631.87Zm94.62-416.76c2-.23,4.28.26,6.09-1.69-1.41-.88-2.85-1.85-4.33-1.92-8.92-.4-17.84-.72-26.77-.82A26.26,26.26,0,0,0,354,215.21c-3.22,2.2-6.56,4.23-9.75,6.46-7.6,5.29-15.08,10.76-22.74,16S306,248,298.1,253a19.26,19.26,0,0,0-6.94,6.89c-3.6,6.61-7.13,13.27-10.66,19.92-1.3,2.45-2.63,4.9-3.75,7.43a11,11,0,0,0-.38,3.24l.93.47,5.26-5.34a11,11,0,0,0,8.78-4.44c1.5-2.06,2.45-4.52,3.73-6.74.94-1.64,1.65-3.77,3.1-4.67,4-2.5,8.33-4.47,12.53-6.65l.46.53c-1.27,2.2-2.4,4.5-3.83,6.59-5.08,7.48-6.42,15.69-5.69,24.58.47,5.71,0,11.49.07,17.24a19,19,0,0,0,.45,4.9,5.63,5.63,0,0,0,3,3.91c.1-1.7.18-3,.26-4.29l3.14-2.5c.69,2.14-.28,4.94,3.12,6.1-.09-1.58-.15-2.77-.21-3.91,4.22-1.64,5-2.61,6-7.13a26,26,0,0,1,1.3-5.55c2.34-5.19,4.06-10.48,3.77-16.27a5,5,0,0,1,3.6-4.72,27.7,27.7,0,0,0-2.24,12.31c.12,4.07-.38,8.15-.61,12.23l1,.57,1.75-2.65c3.49-.28,4.5-1.21,5.16-4.68.62-3.25,1-6.53,1.81-9.74a6.46,6.46,0,0,1,1.9-3.09,14.71,14.71,0,0,0,4.84-7.78,56.27,56.27,0,0,1,1.63-5.52c.6-1.82,1.52-3.27,3.62-3.83a6.38,6.38,0,0,0,3-1.88,34.61,34.61,0,0,0,4-5.4,12.58,12.58,0,0,1,6.15-5.63,13.3,13.3,0,0,0,4.46-2.87,27.8,27.8,0,0,0,5.84-10.46,4.83,4.83,0,0,1,4-3.55,24.54,24.54,0,0,1,11.93.69,132.84,132.84,0,0,0,13.2,2.46,2.12,2.12,0,0,0,2.73-1.67c-.38-1.59-1.59-1.74-2.92-1.76a35.89,35.89,0,0,1-11.51-2.07l1.43-2.48c5.74-2.15,7.24-3.4,7-5.81-1.66-1.63-3.4-.18-5.36-.14a27,27,0,0,1,2.12-4.31,23.19,23.19,0,0,0,1.91-3.23,13,13,0,0,0,.22-3.45l-3.8,1.26c-.51-1.56-1-3.17-1.61-5A57.93,57.93,0,0,0,394.36,215.11ZM299.55,265c-4.19,2-6.54,5.41-8,9.79-1.56,4.67-3.92,6.86-7.64,8a13.28,13.28,0,0,1,.67-3.31q4.73-9.36,9.65-18.61a27,27,0,0,1,2.71-3.52,10,10,0,0,1,2.92,7.22C299.7,264.75,299.65,264.91,299.55,265Zm2.43-1.21-2.67-7.57c.25-.13.94-.53,1.72-1,2.91,2,2.15,5,2.71,7.76Zm8,34.92a87.73,87.73,0,0,1-.87,9.46c-.29,1.57-1.49,3-2.27,4.47l-.85-.2c-.47-8.93-1.13-17.86-1.33-26.8-.11-4.73,2.3-8.88,4.59-12.91a13.1,13.1,0,0,1,2.49-2.38c.22,1.6.37,2.66.58,4.18l3.69-1.3a7.16,7.16,0,0,1-.51,2.49C310.67,282.64,310.54,290.7,310,298.67Zm75.63-70.31c-.11.85-.27,2-.43,3.19l-4.66-3.1c-1.26,3.82,1.35,5.27,3.05,7.33-.31.46-.65,1-.83,1.25H370l1.67-3.74c-.08-.15-.17-.29-.25-.43-.63.26-1.46.35-1.85.81a16.92,16.92,0,0,0-2.67,3.87,38.27,38.27,0,0,0-1.6,5.31A15.49,15.49,0,0,1,359.1,252a49.32,49.32,0,0,0-13.2,13,9.18,9.18,0,0,1-2.85,2.7,11.35,11.35,0,0,0-5.81,7.85,20.45,20.45,0,0,1-1.77,4.83c-.85,1.7-1.67,3.7-3.1,4.77-3,2.27-3.43,5.33-3.63,8.59-.1,1.57.14,3.16,0,4.71a29,29,0,0,1-1,4l-.71-.1c-.15-1.19-.35-2.38-.44-3.58a70.71,70.71,0,0,1-.35-7.12,18.43,18.43,0,0,1,1-4.91c2.28-7,4.68-14,7-21.08a5.36,5.36,0,0,0-.17-2l-.81-.16a12.89,12.89,0,0,0-1.22,2c-1.25,3.2-2.31,6.49-3.69,9.63a15.39,15.39,0,0,1-2.82,3.89c-1.23,1.37-2.9,2.4-3.92,3.89a8.44,8.44,0,0,0-1.49,4.54,26.89,26.89,0,0,1-1.66,10.32,64.58,64.58,0,0,0-3.63,12.1,15.5,15.5,0,0,1-1.55,3.44c-.16-.09-.32-.18-.47-.28a74.84,74.84,0,0,1-.53-7.89c.16-5,.5-9.91,1-14.85.58-6.35,3.7-11.77,6.5-17.33,2.2-4.36,3.95-8.94,5.84-13.45a10.8,10.8,0,0,0,.43-2.51l-.87-.32c-2.23,4.68-4.47,9.35-6.74,14.12l-1.87-.46-2.05,1.08c-.19-1-.36-1.93-.56-2.95l-2-.32c.73-1.42,1.48-2.78,2.13-4.18,1.47-3.18,2.92-6.37,4.29-9.59a8.41,8.41,0,0,0,.31-2.33l-.63-.31a8.1,8.1,0,0,0-1.35,1.33,11.75,11.75,0,0,0-1.33,2.65c-1.26,3.93-4.71,4.55-7.75,5.58-.64-2.75-1.24-5.29-1.91-8.15,1.52-.79,3.36-1.78,5.21-2.73a150,150,0,0,0,23.05-14.75c7.81-6,15.7-11.91,23.6-17.8a15.08,15.08,0,0,1,9.55-2.74c5.49.09,11,0,16.8,0,.64,1.9,1.31,3.92,2,6.1l-4.69-2.69-.6.65C380.48,223.08,382.86,225.61,385.6,228.36ZM591.24,171.5c-.81-.56-1.58-1.49-2.45-1.61A1.85,1.85,0,0,0,586.7,172c0,1.34.83,2.27,2.09,2.08.88-.13,1.64-1,2.45-1.61ZM588.84,160a1.84,1.84,0,0,0-2.14,2c0,1.34.77,2.29,2,2.14.88-.11,1.66-1,2.48-1.53l0-.94C590.44,161.05,589.71,160.1,588.84,160ZM291.31,531.69c-3.23-1.13-6.51-2.12-9.65-3.47a5.41,5.41,0,0,1-3.23-4.27q-1-6.47-2.06-12.94c-.27-1.63-.57-3.25-.86-4.88a1.56,1.56,0,0,0-.77,1.11c-.77,4.7-1.85,9.38-2.19,14.12-.36,4.94-3.26,7.27-7.37,8.76-1.61.58-3.31.94-5,1.36-.85.22-1.72.36-2.58.54a2.86,2.86,0,0,0,1.43.74c3.34,1.18,6.74,2.23,10,3.63a5.78,5.78,0,0,1,3.17,4.77q1.21,8,2.5,15.88a10.38,10.38,0,0,0,.4,1.31,4.16,4.16,0,0,0,.79-2c.72-4.44,1.73-8.86,2.06-13.33.35-4.83,3.16-7.18,7.22-8.65,1.48-.54,3-.89,4.58-1.3,1-.25,2-.44,3-.66,0-.14,0-.27,0-.41A14.32,14.32,0,0,1,291.31,531.69ZM588.79,293.3c.87-.14,1.63-1.05,2.44-1.61v-.94c-.82-.57-1.58-1.49-2.45-1.61a1.84,1.84,0,0,0-2.08,2.09C586.72,292.56,587.54,293.49,588.79,293.3Zm0-63.78a1.84,1.84,0,0,0-2.12,2c0,1.35.8,2.28,2,2.12.88-.12,1.65-1,2.47-1.56,0-.31,0-.63,0-.94C590.44,230.6,589.69,229.66,588.82,229.52Zm0,9.94a1.83,1.83,0,0,0-2.14,2c0,1.34.78,2.29,2,2.14.88-.11,1.66-1,2.48-1.54l0-.94C590.44,240.55,589.71,239.6,588.84,239.46Zm2.37-38.23c-.83-.54-1.63-1.44-2.5-1.52a1.85,1.85,0,0,0-2,2.16c.07,1.33.92,2.24,2.16,2,.87-.17,1.59-1.11,2.38-1.71ZM263.58,659.34c1.56.26,2.2-.85,2.61-2.16.66-2.13,1.37-4.25,2.08-6.44h8.15c.65,2.15,1.2,4.19,1.9,6.18.46,1.3,1.24,2.55,2.88,2.09s1.64-1.89,1.33-3.27c-.83-3.75-1.68-7.48-2.53-11.22-1.56-6.84-3.12-13.67-4.73-20.49a16,16,0,0,0-1.08-2.58c-2.26-.28-3.32.71-3.81,2.32-.9,3-1.7,6-2.52,9-1.17,4.25-2.32,8.5-3.48,12.76a25.67,25.67,0,0,0-4.75.54,2.77,2.77,0,0,0-1.72,2c0,.67,1,1.59,1.79,1.92a13.71,13.71,0,0,0,3.37.56c-.42,2.06-.87,3.91-1.16,5.78C261.69,657.65,261.84,659.06,263.58,659.34Zm9-26.71.28,0c.8,4.13,1.59,8.25,2.42,12.58h-5.73C270.59,641,271.59,636.81,272.6,632.63Zm-89.79-84.26a1.85,1.85,0,0,0,2.18-2c0-1.33-.74-2.3-2-2.17-.88.1-1.68,1-2.51,1.5l0,.94C181.23,547.25,182,548.21,182.81,548.37Zm306.1,154.25c-1.34,0-2.27.81-2.12,2,.1.88,1,1.66,1.55,2.48h.94c.57-.8,1.49-1.53,1.65-2.41C491.15,703.48,490.27,702.64,488.91,702.62Zm9.78-.37c-.68.72-1.7,1.35-1.94,2.2a1.82,1.82,0,0,0,1.77,2.33c1.32.16,2.35-.53,2.33-1.8,0-.88-.81-1.75-1.25-2.63Zm10.06.37c-1.34,0-2.25.84-2.09,2.06.12.88,1,1.65,1.59,2.46h.94c.56-.81,1.46-1.56,1.61-2.44C511,703.44,510.1,702.62,508.75,702.62Zm9.57-.36c-.6.79-1.57,1.51-1.72,2.38a1.84,1.84,0,0,0,2,2.16c1.34,0,2.29-.74,2.16-2-.1-.88-1-1.67-1.48-2.5Zm-68.66,0-.93,0c-.6.8-1.56,1.54-1.69,2.4a1.84,1.84,0,0,0,2,2.14c1.34,0,2.28-.78,2.12-2C451.07,703.88,450.19,703.1,449.66,702.28Zm19.38.34c-1.34,0-2.27.8-2.13,2,.1.88,1,1.66,1.55,2.48l.94,0c.58-.8,1.49-1.54,1.65-2.41C471.28,703.49,470.4,702.64,469,702.62ZM585.9,476.69a1.84,1.84,0,0,0,2.05,2.12c.87-.1,1.65-1,2.47-1.56,0-.32,0-.63,0-.94-.8-.58-1.54-1.51-2.41-1.66C586.78,474.44,586,475.35,585.9,476.69ZM459.13,702.62a1.86,1.86,0,0,0-2.16,2c.09.88,1,1.67,1.52,2.51l.94,0c.59-.79,1.52-1.52,1.69-2.39C461.36,703.52,460.49,702.66,459.13,702.62ZM580.4,421.8l-4.35-3.19V671.55c-13.38,4-16.06,6.77-21.37,21.68H432.51c2.66,2.63,4.76,4.77,8.6,4.44,4.67-.41,9.39-.1,14.1-.1H556.76c.63,0,1.27-.1,1.82-.14.9-13.81,9.32-19.94,21.82-22.17ZM528.59,702.61c-1.34,0-2.25.89-2.06,2.12.14.87,1.06,1.62,1.64,2.42l.94,0c.55-.82,1.43-1.59,1.56-2.47C530.86,703.39,529.93,702.59,528.59,702.61Zm61.83-236.32c-.81-.55-1.58-1.45-2.46-1.57-1.25-.17-2.06.77-2.06,2.11a1.85,1.85,0,0,0,2.12,2.05c.87-.13,1.62-1.07,2.42-1.65C590.43,466.92,590.43,466.6,590.42,466.29Zm-5.1,230.24c-1.76-2.13-3.61-4.18-5.43-6.26,1.58-.67,3.26-1.27,4.83-2.09,1.4-.73,2.51-1.84,2.2-3.63a3,3,0,0,0-3.37-2.49,39.89,39.89,0,0,0-8.4.83c-9.24,2.27-10.54,11.78-7.86,18.23a3.89,3.89,0,0,0,2.75,2c.86.07,2-1,2.67-1.87a14,14,0,0,0,1.43-3.32c2.9,2,5.64,4.06,8.53,5.87,1.4.88,3.18,1.47,4.61.1s.57-3.08-.18-4.55A15,15,0,0,0,585.32,696.53Zm-11-10.59,8.78-1.17c.09.34.18.67.26,1l-6.27,2.58-2.78-1.78C574.3,686.37,574.3,686.15,574.3,685.94Zm-4.52,14.39c-1.4-2.89-1.21-5.75-.62-8.9C572.4,694.23,572.05,697.05,569.78,700.33ZM571.43,688c5.92,3.26,10.14,7.77,14,13.14C581.81,701,572.63,692.33,571.43,688Zm-32.92,14.65c-1.34,0-2.24.9-2,2.13.14.87,1.07,1.61,1.65,2.41l1,0c.54-.82,1.42-1.6,1.54-2.49C540.79,703.38,539.85,702.58,538.51,702.61Zm10,0c-1.34,0-2.27.82-2.11,2,.11.88,1,1.65,1.57,2.47h.94c.57-.8,1.48-1.55,1.63-2.43C550.76,703.46,549.87,702.62,548.52,702.62Zm-69.58,0c-1.33,0-2.26.84-2.09,2.07.11.87,1,1.64,1.59,2.45h.94c.56-.81,1.46-1.56,1.61-2.44C481.2,703.43,480.28,702.62,478.94,702.62ZM461.16,647.1c0,2.85,0,5.7.24,8.53a3,3,0,0,0,1.45,2.07c1.92,1,3.36-.07,3.51-2.51s.1-5,.12-7.55c0-1.08.3-1.82,1.71-1.57.6,1.36,1.1,2.81,1.82,4.13a53.74,53.74,0,0,0,4,6.54c.62.82,2,1.06,3.06,1.55,1.35-1.75,1.8-2.94.77-4.35a24.7,24.7,0,0,1-1.64-2.71c-1.41-2.6-2.79-5.21-4.15-7.76.79-.86,1.33-1.43,1.85-2a15.8,15.8,0,0,0,4.33-11.61c-.24-4.13-2-7.46-5.93-9.16s-7.8-.67-11.11,2a10.49,10.49,0,0,0-1.73,2.53l1.68,1.82C461.15,633.73,461.13,640.42,461.16,647.1ZM472.62,628c1.42,4-.45,10-3.89,12.51-.56.4-1.22.67-2.16,1.19-.29-6-.57-11.41-.84-16.84C468.71,623.47,471.48,624.75,472.62,628Zm-20.44-5.26c-4.34-1.8-8-.56-10.5,3.44-4.94,7.82-5.4,16.2-2.12,24.72,1.33,3.46,3.69,6.35,7.8,6.46s6.38-2.59,8.18-5.75A26.55,26.55,0,0,0,458.69,639c0-4.49-.5-8.6-2.62-12.22C455.14,625.16,453.77,623.4,452.18,622.74Zm1.45,21.89c-.72,3.23-1.86,6.47-5.52,7.71-7.36-5.43-5.72-12.57-4.53-19.46.65-3.76,3.61-6.68,6.63-7.19C455.51,631.17,455.15,637.85,453.63,644.63Zm-23.33-90.9c5.19.39,3.79,4.8,5.19,7.91,1-3.34-.06-7.32,4.86-7.94-5-.58-3.85-4.63-4.9-8C434.15,548.94,435.4,553.28,430.3,553.73Zm6.33,151.14a1.7,1.7,0,0,0,2.13,1.92c.89-.16,1.64-1,3.05-1.94-1.33-1.11-2-2.14-2.88-2.29C437.42,702.28,436.7,703.49,436.63,704.87ZM347.36,501.33c-.05.32-.09.58-.14.84-1,5.25.62,7.62,5.83,8.79,1.09.24,2,1.21,2.92,1.79-.3,1.22-.51,2-.68,2.75a8.81,8.81,0,0,0,.77,6.73c.66,1.11,1.58,2.17,3.06,1.53s1.43-2,1-3.37a19.63,19.63,0,0,1-.46-3l10.05,6.87c1,1.23,1.95,2.93,3.29,3.33s3-.59,4.7-1a6.38,6.38,0,0,1,.24,1.21c.41,13.17.79,26.34,1.22,39.51a36.2,36.2,0,0,0,.58,7.31c1.22,5,2.78,9.92,4.28,14.85a23.18,23.18,0,0,0,1.85,4.56c.36.66,1.31,1,2.28,1.66a32.32,32.32,0,0,0,1.4-3.07c1.63-5.18,3.19-10.38,4.81-15.55.38-1.24,1.25-2.42,1.3-3.65.51-13.7.91-27.4,1.35-41.1.14-4.23.3-8.46.45-12.52,1.46-1.35,2.75-2.49,4-3.7,6.18-6.13,10.74-13.42,14.81-21a4.93,4.93,0,0,1,1.38-1.86c1.73-1.15,2-2.78,2.48-4.68.59-2.55,1.37-5.55,3.15-7.23,3.92-3.71,4.41-4,2.93-9,.27-.79.57-1.67.88-2.54s.67-1.86,1-2.71c3.79-1.34,4.53-3.64,2.71-7.95,1.73-6.36,3.54-12.65,5.15-19a538.4,538.4,0,0,0,12-66.81,22.36,22.36,0,0,1,1.62-6.06c3.7-8.71,7.56-17.35,11.35-26,.42-.95.79-1.93,1.19-2.9-.1,11.35-.53,22.6-.88,33.84-.49,15.62-.9,31.24-1.42,46.86a21.94,21.94,0,0,1-.94,3.71c-.17.81-.58,1.92-.22,2.44,1.55,2.24.57,4.6.78,6.81-3.75,2.38-3.93,6.26-.14,8.91-.14,2.64-.3,5.38-.44,8l-4.6.77c-.26,1.89-.26,1.89,3.32,3.5-.12,1.12-.25,2.27-.37,3.36l1.92,1.63a25.65,25.65,0,0,1-1.3,4.72c-1.5,3.11-1.59,3.27.87,6.06-.08,1.28-.18,2.72-.28,4.2-2.32,1.48-4.62,2.8-6.75,4.35-2.41,1.74-3.55,5.33-2.18,7.08,1-4,4.23-5.48,7.64-7.55-.43,1.11-.71,1.71-.9,2.33-1.52,4.83-3.57,9.46-4,14.66a82.86,82.86,0,0,0,.12,18c1.21,8.58,3.23,16.9,8.27,24.19a18,18,0,0,0,14.18,8c1.63,1.58,1.71,1.6,3.7.6a23.91,23.91,0,0,0-.61-3c-1.12-3.46-2.47-6.84-3.42-10.34-.37-1.36-.66-2.48-1.95-3.2-2.44-1.36-3.58-3.73-4.63-6.22.69.25,1.22.76,1.85,1,.85.31,2.05.84,2.6.49s.76-1.71.64-2.56c-.73-5.38-1.75-10.72-2.36-16.11-.43-3.8-.63-7.65.94-11.36a3.14,3.14,0,0,0-.36-2.42c-1.84-3.14-3.84-6.18-5.74-9.28-.6-1-1.07-2.08-1.6-3.12l.47-.32a41.56,41.56,0,0,1,4.81,3.45,39.28,39.28,0,0,1,3.64,4.44l.58-.48c-.56-5.58-4.47-8.5-9.65-10.71,4.13-1,6.88.51,9.29,3.29a5.13,5.13,0,0,0-.85-2.58c-2.43-3.32-6.06-3.94-10.38-4,.48-1.8,1-3.25,1.24-4.73.24-1.32.77-3,.22-3.95-1.43-2.52-.49-5-.72-7.18,1.33.34,2.95,1.27,3.65.81,1.87-1.23-.29-2.78-.28-4.34l2.09-1.18v-2.18a10.13,10.13,0,0,0-1.81-.45,10.76,10.76,0,0,0-1.84.23,10.44,10.44,0,0,1-.31-10.45,4.06,4.06,0,0,0-.07-4.32,6.35,6.35,0,0,1-.83-2.94c-.07-3.83.44-7.63.4-11.5-.13-11.85.36-23.7.54-35.55.26-17.22.45-34.44.71-51.66a9.26,9.26,0,0,1,.56-2.89,505,505,0,0,0,16.29-56.85c.87-3.92,1.79-7.83,2.69-11.74l.23.05c-.82,27.32-1.64,54.65-2.45,81.84-2.6,3.21-2.64,4.68-.41,7.32v5.3c-3.46,3-3.53,6-.45,8.89v5.47c-6.24,3.45-6.3,9.46-.31,14.42,0,1.81,0,3.66,0,5.51,0,1.47-.14,3.25,2,3.19s1.91-1.83,1.93-3.29c0-1.78,0-3.56,0-5.13,6.67-3.84,5.66-12.13.64-14.7v-5.53c2.39-2.62,2.83-4.72,1.34-6.7-2.06-2.71-1.45-5.7-.64-8.47a7.23,7.23,0,0,0,.15-4.38,8.52,8.52,0,0,1-.48-2.48q.39-28.11.84-56.22c.18-12.71.3-25.43.5-38.14,0-1.52.46-3,.44-4.53,0-.62-.73-1.22-1.13-1.83a15,15,0,0,0-1.87,1.38c-.24.23-.18.75-.27,1.14-3.23,14.05-6.23,28.17-9.76,42.15a419.2,419.2,0,0,1-23.42,68.29c-.36.8-.74,1.59-1.33,2.87.7-9.78,1.62-19,2-28.13.76-19.85,1.24-33.74,1.82-53.6a20.35,20.35,0,0,0-.2-4.35c-.12-.64-1-1.13-1.55-1.69a11,11,0,0,0-1.52,1.78c-.23.41-.07,1-.08,1.56-.09,9.41-.05,12.85-.31,22.25-.29,10.52-.68,21-1.35,31.55-.7,10.76-1.73,21.5-2.75,32.24-.32,3.33-.27,7.07-1.8,9.84-4.91,8.92-10.14,17.7-15.88,26.11a91.91,91.91,0,0,1-25.67,25.72c-.63.41-1.29.79-2.37,1.44.34-17.69.68-34.91,1-52a7.45,7.45,0,0,1,1-.3,3.49,3.49,0,0,1,.79,0c4.43.4,8.54,1.54,11.94,4.68a3.27,3.27,0,0,0,2.93.53c.6-.28.76-1.73.92-2.69.08-.46-.27-1-.48-1.49A21.78,21.78,0,0,0,406.34,359c-3.41-1.49-7-2.62-10.66-4,2.71-4.39,1.5-8.66-.47-12.64,1.32-3.13,1.83-6-.14-8.82,2.09-2.44,1.56-5,.64-7.59a18.33,18.33,0,0,1-.43-2.11c-.4-1.8-.82-3.59-1.24-5.39l-.52.11c1-4.24-.32-8.08-3.26-9.53a9.49,9.49,0,0,0-11,2.63c-2.45,3.07-2.31,6.51.47,10-3.65,3-4.21,6.64-1.54,10.79-3,2.73-1.86,5.76-.48,8.8h-.57v7.29h-.1v7.41c-10.51,1.43-19.86,4.5-20.87,17.65l1.9.48c3.7-5.22,8.63-6.89,15.12-6.21.67,20.33,1.33,40.47,2,60.92-2.84-.39-5.34-.11-7.57-1.62-.58-.39-1.52-.2-2.23-.46-1.84-.69-4.16-1-5.34-2.34-1.73-1.95-3.27-3.18-6-2.33l-3.67-2.42c.9-5-2.24-7.42-7.9-6.05-.51-.95-1-2-1.64-3-.43-.69-1-1.73-1.58-1.82-1.88-.29-2.84-1.62-3.89-2.87a67.08,67.08,0,0,1-5.37-6.68c-5-7.66-9.79-15.41-14.6-23.17a7.94,7.94,0,0,1-1.12-3.15q-1.92-15.76-3.71-31.54c-.68-5.91-1.3-11.83-2-17.75a9.68,9.68,0,0,0-.53-1.66l-.87.14c-.08,14.4,1.58,28.71,2.63,43.17L301.41,345c2-6.71.38-7.91-3.34-9.28l-1.44-4c1.49-4.08,1.26-4.72-2.48-7.25-.26-.83-.55-1.77-.8-2.61,1.34-2.54.8-3.7-2.37-6.65-.14-1.56-.32-3.48-.5-5.4a9,9,0,0,1-1.78-3.14c-1.38-4.7-2.64-9.44-4-14.14a16.1,16.1,0,0,0-.93-2.14l-.63.16a12.12,12.12,0,0,0,.11,2.18c1,4.45,2.1,8.88,3.05,13.34.28,1.31.1,2.7.31,4a17.44,17.44,0,0,0,.89,2.29c.49,1.65,1.57,3.47,1.22,4.94-.78,3.22-.1,4,2.08,5.26l.86,2.9c-2.86,3.46-1.67,6.09,2.4,7.72.41,1.25.84,2.56,1.23,3.77-2.64,3.69-3.18,7.92,2.88,9.49,4.49,9.95,8.88,19.65,13.25,29.37a7.27,7.27,0,0,1,.5,1.91c.69,4.65,1.3,9.3,2,13.95,3.71,24,8.73,47.78,16.3,71,.42,1.3.23,2.79.45,4.17.14.88.25,2.06.83,2.51,2.68,2.06,2.67,5.32,4,7.77-1.74,4.45-1.22,5.66,3.26,7.75.59,1.25,1.2,2.57,1.82,3.88l1.88,4-.64.47a18.32,18.32,0,0,0-2.05-1.81,15.72,15.72,0,0,0-2.43-1c-.76,4.39,2,6.79,8,7.65Zm112.35,24.94c-3.18-7.91-4.33-16.23-4.68-24.66a82.71,82.71,0,0,1,.4-12.69c.25-2.25,1.59-4.38,2.53-6.78,0,8.57-.21,16.81.05,25a96.48,96.48,0,0,0,4.21,24.38C461.37,529.79,460.43,528.07,459.71,526.27Zm7.12-8c-.73-.12-1.79-.33-2.18,0a2.6,2.6,0,0,0-.58,2.27c1.41,3.63,2.87,7.28,6.19,9.72l.54.41c1,3.51,1.75,6.41,2.56,9.39-7.65-4.68-13.67-21.67-12.61-35.91,3.39,4.78,8.24,8.3,8.29,14.86A14.32,14.32,0,0,0,466.83,518.22Zm-6.35-18.13v-3.75c2.94,4.08,5.59,7.62,6.83,12Zm7.87-8.14c-.59,3.42-1.07,6.25-1.53,9-1.93-2.49-4-5-5.92-7.67a3.76,3.76,0,0,1-.45-2.05c0-3.43,0-6.85,0-10.28l.52,0C463.5,484.7,466.06,488.52,468.35,492Zm-83.12,87.6c-2.81-2.87-2.88-6.49,0-11.27Zm-.06-22.8c-.07,2.53-1.06,5-1.63,7.55l-.73-.12c-.38-12.56-.76-25.12-1.16-38.2l3.6,1.49v6.29C385.25,541.42,385.39,549.09,385.17,556.75Zm.31-37-4,2c-1-29.52-2-59-3-88.7l6.93-.78Zm.29-91.8-7.33.94c-.88-20.28-1.74-40.15-2.61-60l.57-.35a7.48,7.48,0,0,1,1.34,1.79,133.58,133.58,0,0,1,6.84,26.85A192.87,192.87,0,0,1,385.77,427.9Zm1.47-38.61c-2.26-6.12-4.43-12-6.59-17.86l.21-.26,6.08,5.47,5.92-5.89.46.4C391.32,377.13,389.31,383.1,387.24,389.29ZM390.08,579V566C392.56,570.47,392.75,574.66,390.08,579Zm2.3-15a14.81,14.81,0,0,1-2.49-8.43c.13-9.64,0-19.3,0-29v-2.34l3.58-1.91C393.1,536.37,392.75,550,392.38,564.06Zm1.28-46.62-3.81,2.38c-.24-29.78-.48-59.09-.72-88.45l7.3-2.56C395.51,458.47,394.59,487.86,393.66,517.44ZM396.54,424l-7.33,3c-.89-19.67-.12-38.77,7.83-57.15l1.64-.21C398,387.82,397.26,405.76,396.54,424Zm28-17.72a174.41,174.41,0,0,0,18.31-26.6l.52.12c-.75,5-1.43,10.07-2.25,15.08-3.3,20.4-7.43,40.61-13.46,60.4a27.15,27.15,0,0,1-1.78,3.42,12.48,12.48,0,0,0-1,2.73c-.6,2.87-1.11,5.76-1.61,8.41-6,1.37-7.49,5-4.62,10.68-.55,1.27-1.14,2.66-1.71,4a6.27,6.27,0,0,0-3.58,7.35c-4.15,7.87-8.86,15.46-15.81,21.67.79-28.79,1.58-57.58,2.37-86.53C409.6,421.82,417.47,414.51,424.55,406.29Zm-29-46.88a40.48,40.48,0,0,1,12.28,5.46,26.13,26.13,0,0,0-19.09.3c-.17-3.72-.33-7.36-.49-11C389.16,358,392.46,358.6,395.51,359.41Zm-12.81-14c.12-3.5.8-4.4,3.88-5.49,1.65-.59,3.27-1.27,4.91-1.92C392.64,341.71,387.08,345,382.7,345.37Zm9.49,5.87-2.51-4.73,1.1-.62C393.22,347.87,393.46,348.81,392.19,351.24Zm-7.68-38.54c1.43-.56,3.16-1.28,4.32.13a5.7,5.7,0,0,1,1.28,4.09c-.42,2.14-2.74,1.77-4.36,2.29C383.41,317.23,383.08,315.29,384.51,312.7Zm1.54,9.9c1-.24,2.05-.42,3-.61,1.36,2,1.24,3.14-.64,4.4s-3.62,2.13-5.6,3.26C381.15,325.8,382.26,323.48,386.05,322.6Zm4.73,6.33c1.57,2.23,1.19,4.45-1.3,5.86a70.72,70.72,0,0,1-7.58,3.2C382.53,332.08,387.76,331.65,390.78,328.93Zm-8.42,20.14c-.48,1.92-.91,3.67-1.39,5.62C378.92,352.78,379.61,350.31,382.36,349.07Zm-15.63,14.44c1.75-.56,3.48-1.2,5.26-1.65,2.05-.51,4.15-.84,6.22-1.26,3.48-.72,5.32-2.05,7.25-5.34v8.92C377.59,362.4,374.12,362.34,366.73,363.51ZM342.08,480.12a4.2,4.2,0,0,0-1.2-3c-2.92-2.62-3.4-6.27-4.48-9.68-.17-.56,0-1.25-.29-1.74-4.2-7.84-5.94-16.52-8.3-25-5.05-18.06-8.55-36.46-11.55-54.95a2.21,2.21,0,0,1,0-.48l12.78,19.19c0,2.73.1,2.88,2.92,3.11l2.62,3c.16,4.23.91,5,4.68,4.85l1.85,1.7c.82,5.76,3.23,7.69,7.83,6.23l3.36,2.15c.88,5.06,3.77,6.5,7.5,3.53,1.27.77,2.66,1.7,4.13,2.45a7,7,0,0,0,2.58.7c2.78.23,5.58.34,8.58.5.85,29.77,1.7,59.19,2.54,88.68-1.06-.86-1.9-2-3-2.24s-2.18.38-3.29.62c-.05.21-.09.42-.14.62l-7.9-5.38c.09-.14.17-.28.25-.42,1.17.41,2.31.89,3.5,1.19a1.89,1.89,0,0,0,1.59-.24c.33-.44.53-1.51.26-1.77-1.18-1.14-2.41-2.52-3.89-3-1.82-.62-3.91-.44-6.18-.64l-1.27-1.51c3.17-6.5-1.45-12.23-7.36-10.66l-1.09-1.74.55,0c.37-2.08,1.19-4.21,1-6.22-.18-1.64-1.49-3.25-2.56-4.67-.37-.49-1.54-.37-2.85-.63.3,2,.52,3.44.73,4.87C344.49,486.5,341.89,483.92,342.08,480.12Zm-18.8,145.51c.73,0,1.88-.83,2-1.42a3.42,3.42,0,0,0-1-2.5,3.32,3.32,0,0,0-2.22-.55c-2.58,0-5.16.22-7.74.33-3.67.14-4.54,1-4.62,4.66a18.73,18.73,0,0,0,.08,2c.48,5.13,1.07,10.25,1.42,15.39.28,4,.25,7.94.41,11.91,0,1.15.28,2.3.45,3.66a24,24,0,0,0,2.94.2c2.58-.13,5.15-.41,7.73-.53,2.8-.12,4.12-.84,4.13-2.41,0-1.73-1.64-2.67-4.46-2.46-2,.14-3.92.39-5.86.58V643.38c2,0,3.74.06,5.45,0,1.53-.07,3.06-.44,3.12-2.34s-1.55-2.42-3.13-2.57c-1.76-.17-3.54-.23-5.43-.34-.25-4.1-.49-8-.75-12.42C318.41,625.7,320.85,625.81,323.28,625.63Zm31.09,31.75a17.21,17.21,0,0,0,3-5.06c2.52-6.54,2.67-13.32,1.54-20.15a11.27,11.27,0,0,0-1.43-2.89c-.54-4-2.68-7.24-5.54-8s-5.44,1-8,4.65c-3.4,4.88-3.76,10.43-3.72,16s1.27,11.05,5.32,15.4C348.26,660.19,351.76,660.35,354.37,657.38Zm-6-29.88a6.07,6.07,0,0,1,.85-1.34c1.3-1.66,2.4-1.73,3.66-.06a39,39,0,0,1,2.19,3.49c0,1.7-.12,3,0,4.29.65,6.08.25,12-2.25,17.69a28.75,28.75,0,0,1-2.75,4c-1.05-1.35-2-2.13-2.38-3.13A32.48,32.48,0,0,1,348.36,627.5Zm79.4,71a11.67,11.67,0,0,0-4.07-1.42c-2.51-.45-5.06-.66-7.8-1a12.25,12.25,0,0,0,1.23-3.12,6.08,6.08,0,0,0-.45-3.65c-.87-1.32-2.52-1-3.8-.35-4.76,2.51-8.28,6.08-8.68,11.71-.34,4.73,4.37,12.23,8.42,14,2.43,1.06,4.58-.35,4.23-3a25.22,25.22,0,0,0-1.61-4.84c-.16-.45-.38-.89-.66-1.52a31.57,31.57,0,0,0,4.8,0,56.86,56.86,0,0,0,8.09-1.76,3.37,3.37,0,0,0,2-2.37A3.63,3.63,0,0,0,427.76,698.47Zm-13.43-7.19c-.25,3.78-3.15,6.59-6.31,5.55C409.63,694.44,411.46,692.35,414.33,691.28Zm-1.26,20.26-5.34-6.74.41-.54,3.05.63c.89,2,1.83,4,2.76,6.05Zm-5.54-10.7a35.07,35.07,0,0,1,18.44,0C423.47,702.9,411.36,702.93,407.53,700.84Zm-50.19-12.16c-2.7-.8-4.53.89-3.82,3.63a39.58,39.58,0,0,0,1.49,3.88c-.89.06-1.59.06-2.27.15-2.42.35-4.85.62-7.24,1.12-1.89.4-4,1.08-4.1,3.38-.11,2.5,2.22,3,4,3.36,3.48.67,7,1,10.63,1.48-.59,1.51-1.35,3.18-1.89,4.92a3.24,3.24,0,0,0,1.06,3.92,3,3,0,0,0,4-.49,39.26,39.26,0,0,0,5.76-6.95C369,700.25,365,690.94,357.34,688.68Zm.2,22.63L357,711c.9-2,1.79-4,2.69-6l3.5-.8A18.26,18.26,0,0,1,357.54,711.31ZM345.16,701a35.14,35.14,0,0,1,18.47-.3C360.77,702.79,348.62,703,345.16,701Zm11.32-9.7c3,1,4.78,3.19,6.42,5.63C359.45,697.62,357.12,695.33,356.48,691.29Zm51.36-39.58c.61-5.15-.5-9.76-5-13-1.62-1.16-3.31-2.22-4.8-3.53s-2.79-2.9-4.18-4.36a11.32,11.32,0,0,1,.91-1.73c1.12-1.32,2.27-2.75,4.26-2.39s2.91,1.74,3.12,3.79c.07.64,1.06,1.72,1.49,1.66a2.81,2.81,0,0,0,1.92-1.53,5.76,5.76,0,0,0-1.51-6c-2-2.08-4.4-3.23-7.33-2.54-6.84,1.63-9.46,8.79-5,14.13a59.27,59.27,0,0,0,7.27,6.69c1.86,1.6,3.42,3.28,3.73,5.85.38,3.13-.48,4.4-3.54,5.09-2.2.5-3.68-.47-4.81-2.26-.83-1.3-1.94-2-3.51-1.29-1.29.62-1.63,2.21-.89,3.82a9.09,9.09,0,0,0,9.16,5C403.85,658.48,407.38,655.66,407.84,651.71Zm31.1-30.33c-3.51-1.65-4.56-1.2-5.34,2.1-.66,2.84-1.3,5.68-2,8.51-.91,3.9-1.83,7.79-2.87,12.22-.82-2.68-1.42-4.83-2.13-7-.56-1.69-1.83-2.36-3.41-1.47a5.36,5.36,0,0,0-2.15,2.32,62.87,62.87,0,0,0-2.1,6c-1.48-6.74-2.81-13-4.24-19.26a19.89,19.89,0,0,0-1.33-3.25c-3.17.06-3.66.55-3.53,3.23a13.12,13.12,0,0,0,.19,1.77c.7,4.24,1.37,8.49,2.15,12.72,1,5.34,2,10.67,3.14,16,.2.89,1.25,2.14,2,2.21s1.65-1.1,2.37-1.85a4.09,4.09,0,0,0,.55-1.47q1.32-3.82,2.63-7.66h.42c.77,2.73,1.53,5.47,2.33,8.19.44,1.49.61,3.41,2.71,3.38s2.2-2,2.57-3.48q3.38-13.37,6.65-26.75C438.12,625.68,438.5,623.49,438.94,621.38ZM393.65,691c-.67-.58-1.86-.56-2.8-.82a7.75,7.75,0,0,0-.57,2.46c.34,3.18-1.56,5.86-5.12,6.88-3.47-1.47-4.76-3.74-4.41-7.35a2.21,2.21,0,0,0-.67-1.85,2.93,2.93,0,0,0-2.17.11,5,5,0,0,0-1.57,1.47A11.55,11.55,0,1,0,395,705.47C398.17,700.89,397.63,694.5,393.65,691Zm-2.86,13.46c-2.87,2.52-6.18,3-9.12,1.23a7.26,7.26,0,0,1-3.53-8.44c4.53,7.51,10.14,7.52,14.48.19A6.26,6.26,0,0,1,390.79,704.44ZM373.16,641.8c1.82-.27,2.85-1.48,2.58-2.9-.33-1.73-1.64-2.1-3.15-2-1.16,0-2.33.16-3.71.26-.22-4-.43-7.67-.65-11.59,3.55-.32,7,.41,10-1.39.73-1.54.16-2.38-1.27-2.74a24.17,24.17,0,0,0-12.76.53,19.74,19.74,0,0,0-.6,3.43c-.05,9.79,0,19.57,0,29.35a9.8,9.8,0,0,0,.33,2.35,2.16,2.16,0,0,0,2.57,1.65,2.14,2.14,0,0,0,2.33-2,26.51,26.51,0,0,0,0-3V642.05C370.57,642,371.88,642,373.16,641.8Zm214.77-93.43c1.23.23,2.12-.63,2.16-2s-.73-2.31-2-2.16c-.88.11-1.68,1-2.51,1.52,0,.32,0,.63,0,.95C586.33,547.27,587.06,548.22,587.93,548.37Zm0,5.78c-1.25-.17-2.06.77-2.06,2.11a1.84,1.84,0,0,0,2.11,2c.87-.13,1.62-1.07,2.43-1.65v-.94C589.61,555.17,588.84,554.27,588,554.15Zm-2.06-17.82c0,1.37.84,2.26,2.06,2.1.87-.11,1.65-1,2.47-1.58,0-.31,0-.62,0-.93-.81-.58-1.55-1.5-2.42-1.65C586.77,534.07,585.94,535,585.9,536.33Zm2-51.74c-1.26-.12-2,.85-2,2.18a1.84,1.84,0,0,0,2.19,2c.86-.16,1.58-1.12,2.36-1.73,0-.32,0-.63,0-.95C589.57,485.55,588.77,484.68,587.89,484.59Zm0,39.75c-1.25-.13-2,.83-2,2.17a1.84,1.84,0,0,0,2.17,2c.87-.16,1.59-1.12,2.38-1.72,0-.31,0-.63,0-.95C589.58,525.31,588.78,524.43,587.9,524.34Zm-2,41.78a1.85,1.85,0,0,0,2,2.13c.87-.1,1.66-1,2.48-1.56,0-.31,0-.62,0-.94-.79-.58-1.53-1.51-2.4-1.66C586.79,563.86,586,564.78,585.9,566.12Zm2.05,87.4c-1.26-.16-2.06.78-2.05,2.12a1.84,1.84,0,0,0,2.13,2c.87-.14,1.61-1.08,2.41-1.67,0-.31,0-.62,0-.94C589.6,654.53,588.82,653.63,588,653.52Zm0-59.62c-1.26-.15-2.06.8-2,2.14s.93,2.23,2.15,2c.87-.15,1.6-1.1,2.39-1.69l0-1C589.59,594.89,588.8,594,587.93,593.9Zm8.11-259a23.2,23.2,0,0,0-4.68,1.51,17.44,17.44,0,0,0-1.68.81,30.9,30.9,0,0,0,0-4.65,49.29,49.29,0,0,0-1.87-8.46c-.9-2.57-3.38-2.67-4.81-.32a12.2,12.2,0,0,0-1.46,4.06c-.48,2.58-.7,5.2-1,8a35.12,35.12,0,0,0-3.87-1.46c-2.62-.64-4.44,1.25-3.46,3.76a16.65,16.65,0,0,0,2.88,4.68c6.37,7.43,19.13,5.37,23-3.66C600.1,336.68,598.7,334.55,596,334.89Zm-14.63,8.88a12.87,12.87,0,0,1-5.78-6.58C579.92,338,581.61,340,581.41,343.77Zm4,.5a30.56,30.56,0,0,1,.13-18.28A32.57,32.57,0,0,1,585.41,344.27Zm3.38-.41a5.66,5.66,0,0,1,0-1c.14-.71.32-1.41.55-2.39l6-2.73.38.6A18.16,18.16,0,0,1,588.79,343.86ZM576.6,371a2.29,2.29,0,0,0-1.86.63,3.41,3.41,0,0,0,0,2.18c.09.4.55.72.88,1a11.26,11.26,0,0,0,12.9,1.8c4.09-2.1,7-7.13,6.41-11-.91-5.87-4.52-9.94-9.6-10.75A10.62,10.62,0,0,0,575,358.5a2.67,2.67,0,0,0-.38,2.31c.17.45,1.3.83,2,.77,3.52-.36,5.9,1,7.3,4.47C582.76,369.86,580.37,371.4,576.6,371Zm5.2-12a6.85,6.85,0,0,1,7.77,2.73,7.19,7.19,0,0,1,0,9,6.63,6.63,0,0,1-7.71,2.81C589.44,369.42,588.74,362.82,581.8,359Zm24.42,331.41q0-320.76,0-641.52a31.28,31.28,0,0,0-.5-6.12A21.91,21.91,0,0,0,583.88,25H187.4c-13.25,0-22.81,9.53-22.81,22.75V374.88q0,163.76.06,327.51a24.53,24.53,0,0,0,1.39,8.15c3.29,9.23,11.52,14.46,22.2,14.46H580.75c2,0,4-.1,5.94-.28,9.83-.87,18.48-9.38,19.21-19.2C606.28,700.51,606.22,695.46,606.22,690.43ZM601.81,50.15V701.6c0,10-5.8,17.21-15.26,18.79a19.88,19.88,0,0,1-3.37.19q-197.83,0-395.67,0A18.43,18.43,0,0,1,168.92,702Q169.13,538.5,169,375V47.53c0-9,5.44-15.88,14-17.78a17.44,17.44,0,0,1,3.75-.32q198.63,0,397.26,0a17.57,17.57,0,0,1,17.79,17.75C601.82,48.17,601.81,49.16,601.81,50.15Zm-12,377.65a3.93,3.93,0,0,0-.72-2.9c-.27-.35-1.88-.24-2.38.21a2.52,2.52,0,0,0-.14,3.74C588,429.2,589.42,429.32,589.82,427.8Zm1.82-41c-8.41-5.12-16.17,1.55-18.44,7.47a3.8,3.8,0,0,0,.54,3.23c.55.64,2,.78,3,.64a19,19,0,0,0,3.85-1.43c0,1,0,1.77.14,2.52a60.68,60.68,0,0,0,1.61,8.33,4.75,4.75,0,0,0,3,2.71c1.67.4,2.38-1.3,2.9-2.7a9,9,0,0,0,.62-2.08c.42-3.27.79-6.54,1.17-9.84,1.6.62,3.28,1.38,5,1.92a3.21,3.21,0,0,0,3.91-1.1,3,3,0,0,0-.54-4A40.58,40.58,0,0,0,591.64,386.81Zm-10.69,6-4.78,2.84-.42-.56c1-2.82,3.14-4.6,6-6.55Zm4.67,14c-2.07-3.65-2.14-15.32-.2-18.43C587.19,391.56,587.37,402.83,585.62,406.79Zm9.83-12-6.06-2.65-.72-3.12.6-.44L596,394Zm-7.19,39.67c-1.54-.09-2.24.89-2.39,2.33s.63,2.48,2,2.33c.93-.1,1.76-1.07,2.64-1.65C590.16,435.67,589.75,434.54,588.26,434.46Zm-2.36,82.05c0,1.36.88,2.24,2.11,2,.87-.13,1.62-1.06,2.42-1.63,0-.32,0-.63,0-.95-.81-.55-1.58-1.46-2.45-1.58C586.72,514.23,585.9,515.17,585.9,516.51Zm2,71.61c1.23.22,2.12-.64,2.16-2s-.72-2.31-2-2.16c-.89.1-1.68,1-2.52,1.52,0,.31,0,.63,0,.94C586.33,587,587.06,588,587.93,588.12ZM194.77,671.55V418.66l-4.27,3.14V675.26c12.49,2.26,20.93,8.36,21.8,22.22.6,0,1.12.11,1.64.11q58.73,0,117.45,0c3.31,0,4.59-2.47,6.47-4.48H216.14C213.44,681.51,207,673.81,194.77,671.55ZM590.42,456.3c-.83-.53-1.62-1.42-2.5-1.52-1.25-.15-2,.81-2,2.15a1.84,1.84,0,0,0,2.15,2c.87-.15,1.6-1.1,2.39-1.69C590.43,456.93,590.43,456.62,590.42,456.3Zm-4.85,50.78c.83.54,1.62,1.44,2.5,1.54,1.25.15,2.06-.78,2-2.14s-.88-2.25-2.13-2c-.88.17-1.61,1.1-2.41,1.69C585.56,506.46,585.56,506.77,585.57,507.08Zm3-62.67-.91-.05c-.6.79-1.49,1.5-1.71,2.38a1.89,1.89,0,0,0,2,2.4,1.93,1.93,0,0,0,2.21-2.2C590,446,589.13,445.25,588.58,444.41Zm1.85,51.71c-.81-.56-1.58-1.46-2.45-1.59-1.25-.18-2.07.75-2.08,2.09a1.84,1.84,0,0,0,2.1,2.07c.87-.13,1.63-1.06,2.43-1.63ZM585.9,645.66a1.84,1.84,0,0,0,2.08,2.08c.88-.11,1.64-1,2.45-1.61v-.94c-.8-.56-1.56-1.47-2.43-1.61C586.74,643.39,585.92,644.32,585.9,645.66Zm4.53-20.33c-.81-.57-1.56-1.49-2.43-1.62-1.25-.19-2.08.73-2.1,2.07a1.85,1.85,0,0,0,2.08,2.09c.87-.12,1.64-1,2.45-1.61Zm-4.53,40.2c0,1.37.86,2.25,2.08,2.08.88-.12,1.64-1,2.45-1.6v-.94c-.8-.57-1.56-1.48-2.43-1.61C586.74,663.26,585.92,664.19,585.9,665.53ZM588,613.77c-.88.16-1.62,1.08-2.42,1.67,0,.31,0,.62,0,.93.82.55,1.6,1.45,2.48,1.56,1.25.16,2.07-.77,2-2.13S589.23,613.55,588,613.77Zm2.46,21.48c-.81-.57-1.57-1.48-2.45-1.61-1.25-.18-2.07.75-2.08,2.09s.88,2.25,2.09,2.07c.88-.12,1.63-1,2.44-1.62ZM588,578.18c.88-.12,1.63-1,2.44-1.62v-.94c-.81-.56-1.57-1.47-2.45-1.59-1.25-.19-2.07.74-2.08,2.08S586.77,578.36,588,578.18ZM587.75,608c1.2.35,2.16-.43,2.32-1.78s-.5-2.38-1.79-2.34c-.89,0-1.76.84-2.64,1.3l-.12.9C586.25,606.72,586.89,607.73,587.75,608Zm-404-523.34c.87-.17,1.6-1.11,2.4-1.7,0-.31,0-.62,0-.93-.84-.54-1.63-1.43-2.51-1.54-1.25-.14-2.06.8-2,2.16S182.48,84.87,183.74,84.63Zm-2.56,312.5A25.64,25.64,0,0,0,183,408.4c1.17,2.61,3.62,2.82,4.94.31a21.6,21.6,0,0,0,1.77-5.82c.39-2,.44-4,.65-6.17a13,13,0,0,0,3.26,1.28c1.2.11,2.9.13,3.56-.58a4.21,4.21,0,0,0,.34-3.59A13.85,13.85,0,0,0,184,385.19c-3.28.23-5.88,2-8.25,4a17.29,17.29,0,0,0-3.91,4.62c-1.1,2,.3,3.94,2.56,4a9.12,9.12,0,0,0,3.08-.61c1.22-.43,2.37-1.07,3.73-1.71C181.18,396.11,181.19,396.62,181.18,397.13Zm14-2.13-.41.62-4.84-2.82c-.27-1.5-.47-2.65-.76-4.21C192.05,390.43,194.07,392.31,195.17,395Zm-9.81-6.62c2,3.71,1.93,14.48-.18,18.22A35.19,35.19,0,0,1,185.36,388.38Zm-9.91,6.42-.52-.83,6.69-5.39c.2.13.4.26.59.4-.2,1-.4,1.93-.64,3.11Zm9.88,61.56c-.83-.55-1.6-1.46-2.49-1.58-1.27-.18-2.05.78-2,2.11s.88,2.25,2.11,2.05c.88-.14,1.62-1.07,2.43-1.64C185.34,457,185.33,456.67,185.33,456.36Zm9-94.77a2.23,2.23,0,0,0,1.86-.64,3,3,0,0,0-.07-2.17,4.2,4.2,0,0,0-1.32-1.45,11.39,11.39,0,0,0-16.26,1.74,11.5,11.5,0,0,0,2.31,16.65c4.69,3.38,11.55,2.75,14.92-1.49a3.32,3.32,0,0,0,.49-2.48c-.08-.39-1.3-.81-1.95-.74-3.73.4-6.17-1.18-7.3-5C188.4,362.57,190.76,361.21,194.3,361.59Zm-5.23,12a6.63,6.63,0,0,1-7.72-2.82,7.2,7.2,0,0,1,0-9,6.82,6.82,0,0,1,7.78-2.7C182.36,362.66,181.26,369.26,189.07,373.57ZM185.78,261.5a1.85,1.85,0,0,0-2-2.17c-.88.08-1.69,1-2.52,1.49l0,1c.79.6,1.5,1.54,2.37,1.71C184.85,263.74,185.71,262.84,185.78,261.5Zm-5,205.32c0,1.36.87,2.25,2.1,2.06.88-.14,1.63-1.07,2.44-1.64,0-.31,0-.63,0-.94-.82-.56-1.59-1.45-2.47-1.58C181.58,464.53,180.79,465.48,180.8,466.82Zm-1.56-121.06c8.44,5.16,16.21-1.61,18.44-7.45a3.67,3.67,0,0,0-.52-3.22c-.64-.65-2.15-.75-3.22-.61a17.18,17.18,0,0,0-3.68,1.39,22.69,22.69,0,0,0-.14-2.52,62.51,62.51,0,0,0-1.6-8.33,4.79,4.79,0,0,0-3-2.72c-1.67-.41-2.38,1.29-2.91,2.68a9.35,9.35,0,0,0-.58,1.89c-.44,3.33-.82,6.66-1.23,10-1.57-.61-3.25-1.37-5-1.91a3.25,3.25,0,0,0-3.93,1.09,3,3,0,0,0,.53,4A40.64,40.64,0,0,0,179.24,345.76Zm10.7-6,4.78-2.84c.13.18.26.37.4.55-1,2.83-3.11,4.62-6,6.55C189.45,342.38,189.66,341.23,189.94,339.78ZM185.47,326a35,35,0,0,1,.33,18.46C183.7,341.7,183.45,329.64,185.47,326Zm-10,11.82,6.1,2.65c.27,1.28.47,2.21.66,3.15l-.51.41-6.77-5.34C175.11,338.39,175.28,338.1,175.46,337.81ZM183,439.18a1.89,1.89,0,0,0,2-2.18c-.1-1.39-.65-2.5-2.19-2.55s-2.1.95-2.11,2.32A2.1,2.1,0,0,0,183,439.18Zm-.09,95.09c-1.25-.22-2.08.69-2.12,2s.79,2.28,2,2.13c.88-.11,1.67-1,2.49-1.56,0-.31,0-.62,0-.93C184.54,535.36,183.8,534.43,182.92,534.27Zm-2.45-47c.83.54,1.63,1.44,2.51,1.52a1.85,1.85,0,0,0,2-2.15c-.07-1.34-.92-2.24-2.16-2-.87.17-1.59,1.11-2.38,1.7C180.46,486.6,180.46,486.92,180.47,487.23Zm.33,69c0,1.36.82,2.27,2.06,2.1.88-.12,1.65-1,2.47-1.59v-.93c-.81-.58-1.57-1.49-2.45-1.64C181.63,553.94,180.82,554.86,180.8,556.21Zm3-332.47c1.26.13,2-.83,2-2.17a1.84,1.84,0,0,0-2.17-2c-.87.16-1.59,1.12-2.37,1.72l0,.95C182.11,222.77,182.9,223.65,183.78,223.74Zm.65,205.05c.94-1.46.83-2.84-.38-3.77-.54-.41-2.15-.42-2.39,0a4,4,0,0,0-.51,3C181.64,429.42,183.05,429.19,184.43,428.79ZM183,449.14c1.34-.07,2.33-1,2-2.38-.22-.89-1.1-1.6-1.69-2.39l-.92,0c-.55.83-1.44,1.62-1.56,2.51A1.94,1.94,0,0,0,183,449.14Zm.75-324.77c.88-.15,1.62-1.08,2.42-1.66,0-.31,0-.62,0-.93-.82-.55-1.6-1.45-2.48-1.57-1.25-.16-2.07.77-2,2.12S182.45,124.6,183.71,124.37Zm-.79,400c-1.26-.23-2.08.68-2.12,2s.8,2.28,2,2.13c.88-.1,1.66-1,2.48-1.56l0-.93C184.54,525.42,183.8,524.5,182.92,524.34Zm.76-380.09c.88-.15,1.64-1.06,2.45-1.63,0-.32,0-.63,0-.94-.81-.56-1.58-1.47-2.46-1.59-1.24-.18-2.08.73-2.07,2.09S182.42,144.46,183.68,144.25Zm.08,9.94c.88-.18,1.59-1.13,2.38-1.73l0-.93c-.84-.53-1.64-1.42-2.53-1.51-1.24-.12-2,.82-2,2.18S182.51,154.44,183.76,154.19Zm0-19.88c.88-.17,1.6-1.11,2.39-1.71l0-.94c-.84-.53-1.64-1.42-2.52-1.51-1.25-.13-2.05.82-2,2.17S182.5,134.56,183.75,134.31Zm0,55.46c-1.22-.24-2.13.6-2.18,2s.69,2.32,2,2.18c.89-.09,1.7-1,2.54-1.49,0-.31,0-.63.05-.94C185.37,190.89,184.65,189.94,183.78,189.77ZM332.15,702.49a1.89,1.89,0,0,0-2.09,2.27c.14.87,1,1.63,1.55,2.44h.95c.58-.78,1.53-1.5,1.65-2.34A2,2,0,0,0,332.15,702.49ZM183.74,164.12c1.26.17,2-.79,2-2.12a1.84,1.84,0,0,0-2.12-2c-.87.14-1.62,1.08-2.41,1.66v.94C182.08,163.11,182.86,164,183.74,164.12Zm-.16-59.62c.89-.1,1.69-1,2.53-1.52,0-.31,0-.63,0-.94-.8-.6-1.53-1.54-2.4-1.7-1.23-.23-2.12.63-2.17,2S182.32,104.65,183.58,104.5Zm.14,79.5c.88-.17,1.62-1.1,2.42-1.69l0-.93c-.83-.55-1.62-1.45-2.5-1.55-1.24-.15-2.07.78-2,2.15S182.47,184.23,183.72,184Zm-.14-89.44c.88-.09,1.68-1,2.52-1.5,0-.31,0-.63.05-.94-.79-.6-1.51-1.55-2.38-1.72-1.23-.23-2.12.63-2.17,2S182.31,94.7,183.58,94.56Zm2.2,107.31a1.84,1.84,0,0,0-2-2.16c-.87.09-1.67,1-2.5,1.51l0,.94c.79.6,1.51,1.54,2.38,1.71C184.86,204.11,185.72,203.2,185.78,201.87Zm-2-91.6a1.84,1.84,0,0,0-2.22,1.94c-.08,1.33.64,2.33,1.92,2.23.89-.08,1.71-.94,2.57-1.44,0-.32,0-.63.07-.94C185.39,111.44,184.69,110.46,183.82,110.27ZM181.25,242c.81.57,1.56,1.48,2.44,1.62,1.25.19,2.07-.74,2.09-2.08a1.83,1.83,0,0,0-2.08-2.08c-.87.12-1.63,1-2.45,1.6Zm.34-70c0,1.35.87,2.26,2.12,2,.88-.16,1.62-1.09,2.42-1.67,0-.31,0-.62,0-.93-.82-.55-1.61-1.45-2.49-1.56C182.39,169.74,181.56,170.67,181.59,172Zm60.74,530.6c-1.33,0-2.29.74-2.12,2,.13.88,1,1.67,1.54,2.49l.94,0c.59-.79,1.52-1.53,1.67-2.4C244.56,703.52,243.66,702.66,242.33,702.62Zm-10,0c-1.35,0-2.25.84-2,2.09.15.88,1.06,1.62,1.63,2.43h.94c.55-.82,1.46-1.59,1.57-2.47C234.57,703.45,233.66,702.61,232.31,702.62Zm-47.32-37c0-1.34-.75-2.3-2-2.16-.88.09-1.68,1-2.51,1.49,0,.32,0,.64,0,.95.79.6,1.51,1.56,2.38,1.71A1.84,1.84,0,0,0,185,665.62Zm77.14,37c-1.35,0-2.25.84-2,2.1.15.87,1.05,1.62,1.62,2.43h.94c.56-.82,1.47-1.59,1.58-2.46C264.39,703.45,263.47,702.61,262.13,702.61Zm-39.79,0c-1.35,0-2.23.88-2,2.13.17.87,1.09,1.6,1.67,2.4l.94,0c.54-.83,1.44-1.62,1.54-2.5C224.62,703.4,223.68,702.59,222.34,702.62ZM187.26,682c-1.48.24-2.9.7-3.27,2.41s.67,3,2.07,3.69c1.62.85,3.35,1.48,5.19,2.26-.41.37-.72.62-1,.89-2.92,2.73-5.59,5.67-7,9.48a3.65,3.65,0,0,0,.35,3.06,3.17,3.17,0,0,0,2.83.6,17,17,0,0,0,4.59-2.23c1.95-1.32,3.72-2.9,5.67-4.45a14.11,14.11,0,0,0,1.43,3.47c.68.9,1.88,2,2.82,2a3.83,3.83,0,0,0,2.69-2.11,14.74,14.74,0,0,0-.6-13C200.34,682.94,191.77,681.29,187.26,682Zm.09,3.78c2-1.26,6.4-.84,9.33.71l-2.77,1.8Zm-1.54,15.56c1.51-4.06,9.52-11.73,13.48-13C198.59,691.81,190.27,700,185.81,701.36Zm15.26-1c-2.5-3.15-2.25-6.14.65-8.83C202.35,694.54,202.55,697.42,201.07,700.34Zm51.19,2.27c-1.34,0-2.28.77-2.11,2,.12.88,1,1.66,1.54,2.48l.95,0c.58-.79,1.51-1.53,1.65-2.4C254.5,703.52,253.6,702.65,252.26,702.61Zm59.61,0c-1.34,0-2.28.77-2.1,2,.13.88,1,1.65,1.56,2.48l.94,0c.58-.8,1.51-1.55,1.64-2.42C314.11,703.51,313.21,702.64,311.87,702.61Zm10.41-.33-.92,0c-.58.8-1.49,1.54-1.65,2.41-.22,1.25.68,2.07,2,2.13a1.84,1.84,0,0,0,2.12-2C323.75,703.89,322.83,703.11,322.28,702.28Zm-20.36.34c-1.33,0-2.27.77-2.08,2,.13.88,1,1.65,1.56,2.47l1,0c.57-.81,1.49-1.55,1.63-2.43C304.17,703.49,303.26,702.64,301.92,702.62Zm-9.7,0c-1.33-.17-2.36.51-2.3,1.79,0,.9.83,1.76,1.29,2.63l.91.12c.66-.74,1.65-1.38,1.89-2.24C294.36,703.73,293.54,702.8,292.22,702.64ZM182.9,514.4c-1.27-.22-2.07.71-2.1,2.05s.81,2.27,2,2.12c.88-.12,1.65-1,2.48-1.58,0-.32,0-.63,0-.94C184.53,515.47,183.78,514.55,182.9,514.4Zm89.53,187.86-.94,0c-.51.83-1.37,1.63-1.46,2.51-.14,1.26.82,2,2.16,2a1.85,1.85,0,0,0,2-2.17C274,703.76,273,703,272.43,702.26Zm10,0-.93,0c-.54.82-1.42,1.59-1.54,2.47-.16,1.25.78,2,2.11,2a1.83,1.83,0,0,0,2-2.12C284,703.81,283,703.07,282.43,702.27Zm-102-95.81c.83.54,1.62,1.44,2.49,1.53a1.84,1.84,0,0,0,2-2.14c-.06-1.34-.9-2.25-2.15-2-.87.16-1.6,1.1-2.39,1.69C180.46,605.83,180.46,606.15,180.47,606.46ZM185,586c0-1.35-.86-2.26-2.11-2.06-.88.14-1.62,1.06-2.43,1.64,0,.31,0,.62,0,.94.82.55,1.59,1.47,2.47,1.58A1.84,1.84,0,0,0,185,586Zm-4.51,70.16c.83.53,1.64,1.42,2.52,1.5a1.85,1.85,0,0,0,2-2.18c-.08-1.33-.94-2.23-2.18-2-.87.17-1.58,1.12-2.37,1.72C180.45,655.56,180.47,655.87,180.48,656.18ZM185.32,506c-.82-.55-1.59-1.45-2.48-1.58-1.27-.18-2.05.78-2,2.11s.87,2.25,2.11,2.06c.87-.14,1.62-1.07,2.43-1.65C185.33,506.67,185.33,506.36,185.32,506Zm0,139.21c-.8-.59-1.55-1.51-2.42-1.67-1.27-.23-2.09.69-2.12,2s.8,2.28,2,2.13c.88-.11,1.66-1,2.48-1.57C185.33,645.87,185.33,645.56,185.34,645.25Zm0-149.15c-.82-.55-1.6-1.45-2.48-1.57-1.28-.18-2.06.78-2,2.11s.89,2.25,2.12,2.05c.87-.14,1.62-1.07,2.42-1.65C185.33,496.72,185.33,496.41,185.32,496.1Zm-2.35,68c-1.25-.26-2.1.63-2.17,2s.74,2.3,2,2.18c.89-.08,1.69-1,2.53-1.5,0-.31,0-.62,0-.93C184.56,565.21,183.84,564.27,183,564.09Zm2.35,71.11c-.83-.55-1.61-1.44-2.5-1.56-1.27-.17-2,.79-2,2.13s.89,2.24,2.13,2c.87-.15,1.61-1.09,2.41-1.67C185.34,635.83,185.33,635.51,185.32,635.2Zm-2.42-41.31c-1.27-.22-2.07.72-2.1,2.06s.82,2.27,2.06,2.11c.87-.11,1.65-1,2.47-1.58,0-.32,0-.63,0-.94C184.53,595,183.78,594.05,182.9,593.89Zm2.41-117.72c-.84-.53-1.63-1.41-2.51-1.52-1.28-.15-2,.82-2,2.16s.93,2.23,2.16,2c.87-.16,1.6-1.11,2.39-1.7C185.34,476.8,185.32,476.49,185.31,476.17ZM182.92,574c-1.26-.22-2.09.69-2.12,2s.8,2.28,2,2.13c.88-.11,1.66-1,2.48-1.57,0-.31,0-.62,0-.93C184.54,575.11,183.8,574.18,182.92,574Zm-.06,53.85c.88-.12,1.65-1,2.47-1.59v-.94c-.81-.57-1.56-1.49-2.44-1.63-1.26-.22-2.07.71-2.09,2.06S181.62,628,182.86,627.87Zm2.47-12.51c-.82-.56-1.6-1.46-2.48-1.59-1.27-.18-2.06.77-2,2.11s.87,2.25,2.11,2c.87-.13,1.62-1.06,2.43-1.64C185.34,616,185.33,615.67,185.33,615.36Z"/></svg>