<svg xmlns="http://www.w3.org/2000/svg" viewBox="0 0 750 750"><path d="M606.15,48.17a27.16,27.16,0,0,0-.46-5.33,21.86,21.86,0,0,0-22-17.84H187.39c-13.28,0-22.81,9.49-22.81,22.75V374.91q0,163.68,0,327.36a23.7,23.7,0,0,0,.16,3.37c1.79,11.79,10.72,19.35,22.92,19.36q197.67,0,395.34,0a26.32,26.32,0,0,0,5.32-.47c10.94-2.25,17.84-11.1,17.84-22.82Q606.17,374.93,606.15,48.17Zm-4.26,653.55c0,11.52-7.49,19-19,19H187.7c-9.42,0-16.54-5.37-18.45-14a23.26,23.26,0,0,1-.37-4.94q0-163.49,0-327V47.62c0-9,5.36-16,13.85-17.93a18.51,18.51,0,0,1,4.14-.39q198.57,0,397.14,0A17.66,17.66,0,0,1,601.89,47c0,1.13,0,2.26,0,3.38ZM476,424.18c2.51-9.25,4.6-18.62,6.94-28.2,3.49-2.69,3.83-4.48,1.14-7.86.22-1.3.08-2.89.75-4,1.58-2.54,1.31-5.07,1.35-7.9.08-5.45,1.36-10.88,1.93-16.34,1-9.67,1.88-19.35,2.77-28.56,2.62-3,5.34-5.64,7.49-8.69,5.13-7.26,7.48-15.65,8.58-24.32a214.18,214.18,0,0,1,9.68-42.92A91.22,91.22,0,0,0,521.9,231c.16-2.76-.86-4.47-3.55-5.11a13.39,13.39,0,0,0-2.76-.27,96.69,96.69,0,0,0-25.93,3.26c-17.7,4.55-34.2,11.49-48.9,22.58a109.5,109.5,0,0,0-36.45,47.2c-1.4,3.45-2.6,7-3.87,10.43l-3.34-5.95a11.11,11.11,0,0,0,3.16-10.69c-.93-4.28-4.14-6.74-7.95-8.54.9-3.18,1.74-6.17,2.59-9.16a79.89,79.89,0,0,1,13.47-27.48c3.45-4.46,7.37-8.33,13.88-6.86a2,2,0,0,0,1.78-.87,2.94,2.94,0,0,0-.23-2.36,3.4,3.4,0,0,0-2.16-1.17c-3.53-.51-7.06-.14-9.78,2.25a37.39,37.39,0,0,0-7.32,8,109.66,109.66,0,0,0-13.86,34c-.22,1-.56,2-.75,2.66l-8.2.38a4.36,4.36,0,0,1-.28-.68c-.2-.77-.37-1.54-.55-2.31a110,110,0,0,0-14.31-34.51,33.42,33.42,0,0,0-6.94-7.27c-2.84-2.37-6.41-2.7-10-2.12-1.53.25-2.6,1.23-2.28,2.93s1.64,1.6,3,1.35a8.89,8.89,0,0,1,8.29,2.28,62.23,62.23,0,0,1,7,8c6.43,9.05,10,19.36,12.77,30,.32,1.2.62,2.4,1,3.72-3.22,2.08-5.52,4.73-6.13,8.51a9.69,9.69,0,0,0,3.47,9.24l-4.06,6.65c-.13-.38-.26-.75-.38-1.13-5.71-18-14.86-33.9-28.59-47a121.22,121.22,0,0,0-42.27-26.55c-11.59-4.26-23.38-7.8-35.81-8.59-3-.2-6.09-.29-9.13-.21-3.9.12-5.29,2-5.06,5.91.49,8.29,2.71,16.22,5.29,24,3.94,11.86,7.18,23.83,8.69,36.24a96.9,96.9,0,0,0,4.31,20.57c3.65,10.36,10.08,18,20.4,22.56a142.81,142.81,0,0,0,27.3,9c7.54,1.62,15,3.46,22.54,5.2-1.92.5-3.83.7-5.71,1-5.1.95-10.13,2-14.25,5.56a32,32,0,0,0-11.2,18.9c-1.74,9.34-.81,18.58.17,27.89a110.85,110.85,0,0,1,.4,15c-.09,3-.27,3.57,2.51,4.8a31.42,31.42,0,0,0,14.24,3.11c.57,0,1.14,0,1.77,0-.24,7.26-.48,14.32-.72,21.39l-.51-.06c-.2,1.22-1,2.79-.5,3.6,1.44,2.43.7,4.89.92,7.21-2.75,3.28-2.74,5.17.08,8.29a16.13,16.13,0,0,1-.53,1.88c-.62,1.54-1.39,3-1.94,4.57a17.68,17.68,0,0,0-.28,10.36,4.26,4.26,0,0,0,4.3,3.46c2-.06,3.32-1.16,3.75-3.69a26.67,26.67,0,0,0,.46-7.28,90.7,90.7,0,0,0-2-9.46c3.12-2,3.64-6.48-.5-8.86v-4.22c2.54-2.74,2.54-3.89.18-6.67V425.83l16-7.81c0,.47,0,1.2,0,1.92-.08,10.47-.26,20.94-.24,31.4.05,21.27.21,42.54.31,63.8a4.22,4.22,0,0,1-.27,2.31c-1.57,2.15-1.36,4,.46,5.81v6.92c-4.17,4.4-3,6.88.41,9.23,0,2.68-.09,5.66.08,8.63,0,.66,1,1.27,1.53,1.91a11,11,0,0,0,1.76-1.79c.26-.45.09-1.17.09-1.76v-8.1c3-3.64,2.91-5.77-.42-9,.35-2.64.76-5.61,1.09-8.59a6.79,6.79,0,0,0-.27-1.92,18.7,18.7,0,0,1-.6-3.07c-.21-16.89-.31-33.79-.58-50.68-.23-13.57-.67-27.15-1-40.72,0-2.33,0-4.67,0-7,3.25,9.9,6.35,19.86,9.85,29.68a159.87,159.87,0,0,0,14.34,29.71c-1.43,4-1,6.79,4.27,6.36l3.06,4.1c-.24,5.43,1.31,7.13,6.19,7L391,498c.19,3,1.38,4.7,5.08,3.66,18.14,10.72,33.38,5.28,47-8.6,4.2-.28,5-1.2,4.92-5.86l2.95-4c6.08-.28,7.87-4.27,6.39-10.42l3.06-5.75c4.46-1.08,5.87-4.16,3.82-8.23.61-1.43,1.25-3,1.84-4.37,2.72-1.58,3.29-2.88,2.83-5.76a5.32,5.32,0,0,1,.28-2.29C471.37,439,473.92,431.65,476,424.18Zm33.76-160.4A144.63,144.63,0,0,0,503.26,294a73.66,73.66,0,0,1-4.66,19.63c-3.41,8.38-9.53,13.77-17.64,17.64-11.2,5.35-23.13,7.93-35.11,10.46-13.33,2.81-26.73,5.32-40.11,8a9,9,0,0,1-1.21,0c2.67-5.42,5.25-10.63,7.82-15.84l.55.17a8.8,8.8,0,0,0,.44,3,3.91,3.91,0,0,0,2.26,2c.53.1,1.81-1.2,1.92-2,.45-3.31.58-6.67.9-11l6.29-5.83.3.1c-.26.69-.51,1.39-.78,2.07-1.93,4.85-1.63,9.45,1.44,13.77,2.53,3.55,6.6,4.26,9.63,1.69a4.13,4.13,0,0,0,.33-6.43c-1-1-2.2-1.64-3.55-.84a3,3,0,0,0-1.23,3.66,5.85,5.85,0,0,1,.47,1.82,8.16,8.16,0,0,1-2.28-1.36c-1.91-2.27-3.3-4.82-3-7.95a17.15,17.15,0,0,1,3.9-9.53c15.88,16.32,33.43,20,52.91,7.4,7.78-5,12.51-12.7,14.61-21.77a37.63,37.63,0,0,0-2.72-25.49,70.76,70.76,0,0,0,7.3-2.06,4.89,4.89,0,0,0,2.12-2.48c.64-1.36.8-2.91-.78-3.86-1.06-.64-2.32-1-3.23.23-1.12,1.46-.45,2.71.78,3.77-3.6,2.53-8.2,1-11.12-3.91,11.16-2.51,17.4-11.2,24.44-19.08C512.77,254.52,511.28,259.16,509.71,263.78ZM460.19,418.39c-7.54-3.24-14.54-18.92-12.61-28.42a16.6,16.6,0,0,0,14.11-6.32C462.42,395.56,458.31,406.82,460.19,418.39Zm-46-23.81c-6.92-9.73-7.19-22.37-.55-27.51l7.1,6.14C415,379.2,414.15,386.59,414.19,394.58Zm7-36.06,3.9.78c1.73,3.2,2,7.05,5.73,9.16,2-3.13-.37-5.31-1.11-8l4.56,1.95c1.48,3.6,1.66,7.68,5.09,10.5,2.43-3.07.11-5.33-.74-8.17l4.07,2.36c1.11,5.33,3.64,9.91,5.93,10.43,1.65-2.29-.08-4.3-.48-6.37l.46-.37,11.16,10.74c-3.26,3.83-7.11,5.45-11.63,5A25.51,25.51,0,0,1,435.51,381c-3.32-2.51-6.54-5.17-9.64-7.95-6.8-6.13-13.55-12.3-22.43-15.59h13.1c1.43,2.39,2.56,4.32,3.74,6.2.18.29.66.38,1,.54C423.22,363,423.23,362.47,421.18,358.52Zm-17.08,2.59,6.82,3.82-5,8.23C403.58,369.69,401.44,366,404.1,361.11Zm15.95,18.31a42,42,0,0,1,2.56-4.44c2.9,2.47,5.56,4.72,8.23,7-4.7,11.42-5.64,22.7.77,34.1a10.16,10.16,0,0,1-1.35-.94c-3.1-3.17-6.37-6.2-9.19-9.6a13.67,13.67,0,0,1-2.73-6A34,34,0,0,1,420.05,379.42ZM431.27,406c-1.32-7.49-1.16-14.88,1.79-22l10.89,5.3c-1.28,13.05,3.8,23.34,13.82,32-5.81.73-11.38,1.09-16.89-.52a6.47,6.47,0,0,1-2.47-1.54A23.67,23.67,0,0,1,431.27,406Zm29.16-27.24-9.51-9.93,2.35-1.14.15-.81a8.15,8.15,0,0,0-2-1.47,9.56,9.56,0,0,0-2.94-.35c-3.77,0-4.94-.4-8.37-3a22.38,22.38,0,0,0,2.3-.68,22.78,22.78,0,0,0,2.17-1.2c-3.14-3-5.95-.57-9.47-.46L430.86,358l2.72-1.76c-1.64-2.07-3.79-1.88-7.73.18l-17.7-2.52a43.3,43.3,0,0,1,17.2-1.61,177.87,177.87,0,0,1,17.84,2.78c9.16,2,17.55,13,17.44,22.31A7.71,7.71,0,0,1,460.43,378.71Zm-33.87-84.84a34,34,0,1,1,34.21,33.85A34.17,34.17,0,0,1,426.56,293.87ZM515.41,230a22.22,22.22,0,0,1,2.53.16c0,1.15.3,2.31-.05,3.21a71.3,71.3,0,0,1-4.46,10.15A55.3,55.3,0,0,1,496,262.47c-2.54,1.66-5.28,3.07-8.48,3a20,20,0,0,1-2.4-.39,12.76,12.76,0,0,1,1.81-1.67c2.29-1.32,4.63-2.56,6.95-3.83.58-.31,1.34-.49,1.71-1a8.7,8.7,0,0,0,.9-2.16,7.46,7.46,0,0,0-2.08-.58,22.24,22.24,0,0,1-2.31.38c1.59-1.69,3.17-3.39,4.77-5.06a40.69,40.69,0,0,0,3-3.15,2.3,2.3,0,0,0,.31-2.11,2.59,2.59,0,0,0-2.17-.74,7.48,7.48,0,0,0-3.18,1.5c-2.75,2.36-5.35,4.88-8.14,7.46V249c-1.66-.65-2.18.25-2.35,1.28-.39,2.47-.65,5-.94,7.46-.18,1.6-.32,3.21-.47,4.82l-.87.24a10.5,10.5,0,0,1-1.45-2.63,11.88,11.88,0,0,1,1.14-8.09c3.93-8,10.46-13.39,17.95-17.72A34.82,34.82,0,0,1,515.41,230ZM403.63,311a130.9,130.9,0,0,1,10.56-23.29c11.44-20.43,28.52-34.68,49.11-45.15,11.12-5.65,23-9.14,35.08-11.91a6.61,6.61,0,0,1,.95-.08c-11.08,6.87-21.43,14.1-22.48,28.61-4.1-1-7.74-5.33-7.73-9.34a3.45,3.45,0,0,1,2.53-3.74,8.1,8.1,0,0,0-.33,1.63c0,1.34.53,2.4,2,2.42A2.17,2.17,0,0,0,475.7,248a3.72,3.72,0,0,0-2.51-3.86,4.65,4.65,0,0,0-5.28,1.75c-1.92,2.88-1.28,5.81-.1,8.73.27.66.63,1.28,1,2.09-16-2.59-29.36,1.9-38.87,14.95s-9.58,27.17-2.19,41.76c-3.38,1.08-6.46,3.05-10.22,2.23-2.14-.47-2.45-1-2.42-3.61,1,1.48,2.2,2.43,3.62,1.44a4.18,4.18,0,0,0,1.58-2.88c.08-1.45-1.1-2.33-2.56-2.57a5.34,5.34,0,0,0-5.77,3.23c-.82,2.57.32,5.88,2.65,6.78a40.61,40.61,0,0,0,5.86,1.39l-4.72,4.68c-1.59-.08-3.24-.24-4.89-.22a4.83,4.83,0,0,0-2.66.53,3.64,3.64,0,0,0-1.45,2.47c0,.51,1.29,1.26,2.12,1.49a11,11,0,0,0,2.93.06l-8.78,15.23c-.31-3.77-.75-7.87-1-12C401.77,324.74,401.42,317.82,403.63,311Zm-1.72,49.18-1.34,3.89-2.86-4.42Zm-2.31,22.62a18.32,18.32,0,0,1-4,9.62c-1.47,1.88-3.08,3.66-4.4,5.63-1.72,2.57-3.21,5.29-4.48,7.4-2.21-3.24-4.28-7.08-7.08-10.25-6.06-6.86-7.48-14.59-5.24-23.15,1.12-4.32,2.71-8.52,4.19-13.08a28.14,28.14,0,0,1,7.72,10.49l7.58-10.67C398,366.68,400.37,374.43,399.6,382.82Zm-19.37-93.35a11.75,11.75,0,0,1,13.22.18c4.41,3.41,4.1,9-.8,11.71-1.8,1-3.95,1.3-6,1.93-1.94-.58-3.74-1-5.44-1.64C376.44,299.79,375.76,292.52,380.23,289.47Zm-6.1,47.86c.76-6.83.95-13.71,1.56-20.56a51.76,51.76,0,0,1,1.54-8.35,14.13,14.13,0,0,1,2-3.42c7.59,2.59,8.54,2.61,15.11.37.61,1.18,1.61,2.36,1.84,3.67.67,3.76,1.15,7.56,1.5,11.36.63,7.05,1.05,14.11,1.7,21.15a14.43,14.43,0,0,1-3.9,11.28c-2.92,3.31-6,6.51-8.87,9.65-2.69-2.88-5.36-5.9-8.2-8.76C373.8,349.05,373.45,343.44,374.13,337.33Zm1.37,22.3-2.82,4.49c-.48-1.42-.87-2.56-1.34-3.91ZM274.27,230.12c8.21,2.52,16.55,4.69,24.6,7.65a117.8,117.8,0,0,1,42.47,26.94c14.89,14.72,25,32.24,29.62,52.77,1.35,6.07.08,12.25-.25,18.38-.14,2.69-.31,5.38-.47,8-2.9-5-5.86-10.18-8.76-15.23l4.85-.61c.32-2.73-.54-3.87-2.86-4.05-2-.15-4,0-6.33,0l-4.74-4.5a44.77,44.77,0,0,0,5.84-1.21c2.44-.85,3.66-3.64,3.12-6.4-.43-2.21-2.34-3.68-4.95-3.81-1.71-.09-3.23.52-3.44,2.25a4.07,4.07,0,0,0,1.36,3.13c1.39,1.11,2.72.3,3.71-1.37.33,2.11-.34,3.19-2.22,3.63-3.8.88-6.88-1.17-10.38-2.18,7.38-14.47,7.4-28.57-2.09-41.67s-22.8-17.64-38.65-15.13c.58-1.84,1.53-3.66,1.62-5.52a11.38,11.38,0,0,0-1.22-5.42,3.62,3.62,0,0,0-4.68-1.58,5.33,5.33,0,0,0-2.67,2.78c-.3.73.35,2.08.95,2.87a2.25,2.25,0,0,0,2.1.1,9.64,9.64,0,0,0,.93-2.94,1.39,1.39,0,0,0-.12-.57c1.64.39,2.61,1.26,2.43,2.95-.2,1.85-.51,4-1.58,5.36-1.53,2-3.79,3.34-5.95,5.14-.29-.72-.47-.94-.45-1.16.4-7.19-3.42-12.52-7.94-17.37A46.87,46.87,0,0,0,274,230.89ZM352.5,373.23l7-6.08c6.66,4,6.45,17.28-.45,27.58C359.11,386.81,358.29,379.36,352.5,373.23Zm-27.75,4.18c2.07-.23,5-5.49,5.71-10.22l4.09-2.49c-.64,2.79-3.07,5.05-.7,8.24,3.4-2.77,3.64-6.8,5.1-10.51l4.56-2c-.62,2.64-3.08,4.81-1.11,7.92,3.8-1.85,3.91-5.8,5.83-9.05l3.83-.89c-.79,2.09-2.8,3.87-.21,6,2.46-1.55,3.23-4.09,4.5-6.87H370a4.79,4.79,0,0,1-.76.49c-7.31,2.64-13.29,7.28-19,12.4a138.15,138.15,0,0,1-11.68,9.84,49.29,49.29,0,0,1-10.45,5.53,12.49,12.49,0,0,1-14.51-4.4l10.95-10.61.44.39C323.78,376.2,323.78,376.2,324.75,377.41Zm37.59-12.48,6.56-3.71c2.4,2.95,1.89,6.41-1.56,12Zm-49.93-37.22a34,34,0,1,1,34.26-33.77C346.44,312.78,331,328,312.41,327.71ZM255.22,232.9a9.42,9.42,0,0,1,0-2.67,27.64,27.64,0,0,1,15.09,2.58c9.15,4.05,16.66,10.22,21.3,19.38a11.62,11.62,0,0,1,1.07,8.09,10.74,10.74,0,0,1-1.42,2.52l-.83-.18c-.17-1.53-.34-3.06-.52-4.59-.29-2.56-.53-5.12-.92-7.66-.15-1-.6-2-2.33-1.43v5.69l-1.25-1.32c-1.9-1.94-3.74-3.93-5.72-5.77a12.7,12.7,0,0,0-3.16-2c-1.13-.55-2.5-1.07-3.41.27s.17,2.24,1,3.09a89.37,89.37,0,0,1,6.89,7.61,6.75,6.75,0,0,0-2-.62,8.3,8.3,0,0,0-2.2.67c.33.71.46,1.74,1,2.09,2,1.22,4.08,2.17,6.11,3.3,1.35.75,2.64,1.62,4.35,2.68a5.93,5.93,0,0,1-5.32.47,27.21,27.21,0,0,1-11.27-6.85c-5.68-5.68-11.08-11.6-14.2-19.19C256.62,237,255.86,235,255.22,232.9Zm53.22,104.46a96.15,96.15,0,0,1-21.06-8.71c-7.68-4.14-11.58-11.18-14.27-19.09-2.6-7.66-3-15.72-4.24-23.62a151.22,151.22,0,0,0-7.08-27.45,80.33,80.33,0,0,1-2.48-8.2c6.91,7.62,13,16.2,23.87,18.58-1.73,4.68-7,6.6-10.9,4.05.16-.19.42-.36.46-.56.19-1,.66-2.16.35-3a2.62,2.62,0,0,0-2.45-.71,3.58,3.58,0,0,0-1.89,2.34c-.32,2.83,2.66,5.48,6.19,5.72,1.17.08,2.35,0,3.74,0-4.94,10.68-5.44,21.44-.9,32.23a37.67,37.67,0,0,0,16,17.94,38.47,38.47,0,0,0,49.08-9.6c2.57,1.51,4.92,8,4.26,11.74-.61,3.46-2.84,6.3-5.07,6.68a13.17,13.17,0,0,0,.27-3.63c-.38-1.87-2.28-2.45-3.91-1.41a4.26,4.26,0,0,0-.49,7.08c3,2.6,7.12,1.92,9.63-1.63a13.25,13.25,0,0,0,1.74-13c-.36-1-.67-1.94-1-2.91l.27-.13,6.44,6.32c.16,3.56.21,6.59.47,9.61.13,1.41.4,3.2,2.37,3.09s2.21-1.8,2.36-3.37c.05-.52,0-1.05,0-2.09,3.89,5.06,5.67,10.68,8.52,16.21-2.58-.46-4.81-.84-7-1.27C343.85,345.17,326,342,308.44,337.36Zm5.7,32.83c3.55-8.23,9.19-14.08,18.45-15.74,7.37-1.31,14.75-2.58,22.25-2.22a60.83,60.83,0,0,1,10.27,1.71l-17.77,2.5c-2-.95-4.51-2.56-7.38-1l-.28.79,2.67,1.77-4.56,1.81c-3-.37-5.87-2.51-8.62-.29,0,.35-.06.7-.08,1.06l4.25,1.57c-2.73,1.2-4.67,3.47-7.91,2.88a9.72,9.72,0,0,0-3.91.38c-.64.16-1.13.89-2.12,1.72l2.87,1.66-9.48,9.9A15.36,15.36,0,0,1,314.14,370.19Zm-.62,42c-.41-5.74-1.08-11.45-1.56-17.18-.3-3.65-.45-7.31-.66-11,4.13,4.16,8.77,6.14,14.29,5.9,1.83,10.31-3.39,21.79-12.44,28.55A45.76,45.76,0,0,0,313.52,412.2Zm15.75,69.89c-2.11-3.36-.49-6.76-.17-10.15A15.49,15.49,0,0,1,329.27,482.09Zm5.05-62.46a8.15,8.15,0,0,1-3.77,1.58,45.37,45.37,0,0,1-15.38,0,33,33,0,0,0,11.36-14.3c2.47-5.6,3.87-11.38,2.5-17.5l11.41-5.55c.67,3,1.57,5.92,2,8.94a38,38,0,0,1-1.31,16.51A22.54,22.54,0,0,1,334.32,419.63Zm7.61-3.7c6.1-11.24,5.17-22.52.47-34l8.14-6.92c5.24,7,5.52,14.82,4.7,22.85C354.36,406.56,347.17,410.54,341.93,415.93Zm27.32-38.67.53.17c0,.62,0,1.25,0,1.88a24.84,24.84,0,0,0,5.59,16.38c2.82,3.58,6.13,6.91,7.46,11.4,1,3.41,1.52,7,2.32,10.44a19.87,19.87,0,0,0,1.06,2.74h.73a16.12,16.12,0,0,0,1.08-2.16,10.86,10.86,0,0,0,.37-2.35,30.69,30.69,0,0,1,8-18.23,25.78,25.78,0,0,0,7.07-19.43,1.09,1.09,0,0,1,.33-.77c3.3,12.89,8.39,24.83,17.82,34.8l-7.42,11.34c-3-.11-3.94,1.75-4.95,4.09-.71,1.64-2.72,2.72-4.11,4-4.28-1.92-6.09-1-7.4,3.65L394,436.42c-2.31-1.61-4.46-1.12-6.38.66a27.1,27.1,0,0,1-11.4-1.65c-.63-.22-1.12-.85-1.72-1.22a14.67,14.67,0,0,0-2.37-1.28c-1.25-.48-2.69-.6-3.81-1.27C361.8,427.77,355,420.44,350.8,413,360.59,403.1,366.06,390.77,369.25,377.26ZM465,445.88c-2.65,1.08-3.21,3-2.85,5.88.2,1.65-1,3.46-1.44,5-4.84,1.75-5.53,4.67-3.95,7.89-.43.86-.89,1.81-1.37,2.74s-1,1.85-1.52,2.74c-6.91-.14-9.32,5-6.79,10.7-1.38,1.61-2.2,3.74-4.62,4.58-.91.32-1.48,1.71-2.15,2.66a20.3,20.3,0,0,1-1.89,2.92A40.5,40.5,0,0,1,424,500.69c-9,3.36-17.42,2-25.49-3.12-1.32-3.73-2.11-4.3-5.19-3.69l-4-3.59c1-3.21-.53-5.18-3.61-6.54l-2.07.27c-14-18-22.44-38.94-29.48-60.53a51.69,51.69,0,0,0,14.45,12.43c1.35,3.76,2.78,3.9,4.8,2.84l14.39,2.5c2.45,2,3.36,1.84,6.44-1.31l4.92-1.48c4.34,1.31,5.77.61,7-3.46l5.07-3.82c3.37-.47,4.14-1.21,5-4.74a3.5,3.5,0,0,1,.48-1.06c2.35-3.52,4.71-7,7.2-10.72.34.3.86.75,1.37,1.22,10.24,9.23,21.72,12.25,34.85,7a8.3,8.3,0,0,0,2.74-1.55,3.44,3.44,0,0,0,1.09-2.48c-1.32-6.59-.15-13.07.62-19.57,1.05-8.78,1.62-17.56-.6-26.25-3.08-12.1-10.3-20.06-22.92-22.46-2.59-.5-5.21-.85-8-1.3,18.32-5,37.45-6.85,54.18-16.64l.68.36c-1.68,14.46-3.37,28.92-5,42.9-3,2.77-3.27,4.52-1.54,7.57-.22,1.29-.47,2.71-.71,4.05-4.69,1.46-5.84,5.8-1.74,8.91C475.49,413.17,471.23,429.75,465,445.88ZM194.65,671.72V418.82l-4.17,3.05V675.52a23.36,23.36,0,0,1,15.16,6.63c4.28,4.14,7,9,6.31,15.29.88.08,1.34.16,1.79.16,39,0,78-.07,117.07,0,3.47,0,5-2.3,7-4.36H216C213.34,681.68,206.93,674,194.65,671.72ZM580.36,421.86l-4.3-3.17V671.75c-12.21,2.28-18.55,10-21.26,21.6H432.7c2.52,2.65,4.72,4.63,8.51,4.31,4.54-.39,9.13-.1,13.7-.09h102c.58,0,1.15-.08,1.66-.12.9-13.78,9.34-19.9,21.83-22.21ZM577,76.4v243l4.13-3.05V72.57A23.26,23.26,0,0,1,566,65.93c-4.27-4.14-7-9-6.27-15.38h-4.23q-57.44,0-114.88-.07c-3.41,0-4.74,2.39-6.69,4.37H555.63C558.3,66.47,564.76,74.16,577,76.4ZM191.29,316.31l4.29,3.17V76.36c12.21-2.28,18.57-10,21.24-21.54H339.07c-2.67-2.64-4.84-4.7-8.64-4.37-4.53.39-9.13.09-13.7.09l-102.16,0a12.21,12.21,0,0,0-1.45.15c-.9,13.75-9.33,19.88-21.83,22.18ZM441.88,176.13A9.78,9.78,0,0,1,446.1,183c.84,6,1.85,11.91,2.8,17.86.54,3.35,1.11,6.69,1.66,10,.45-.23.59-.44.63-.67,1.44-8.89,3-17.75,4.25-26.66a10.93,10.93,0,0,1,5.14-8.06,37.52,37.52,0,0,1,12.9-5c1.82-.39,3.66-.69,5.62-1-.26-.29-.33-.44-.42-.46-.32-.08-.65-.11-1-.16-5.79-.9-11.43-2.28-16.5-5.38-2.79-1.71-5-3.85-5.56-7.33-1-6.74-2.14-13.46-3.23-20.19-.43-2.7-.91-5.39-1.37-8.08a1.74,1.74,0,0,0-.7,1.22c-1.4,8.69-2.89,17.37-4.15,26.08-.5,3.52-2.1,6.26-5.13,7.8a91.35,91.35,0,0,1-11.3,4.67,54.71,54.71,0,0,1-7.26,1.53c0,.12,0,.25,0,.38,1.17.18,2.35.34,3.51.56C431.69,171.17,437.15,172.69,441.88,176.13ZM308.47,523.69a3.19,3.19,0,0,0-1.56-.62c-6.06-1-12-2.43-17.13-5.93a10.25,10.25,0,0,1-4.73-7.24c-1.36-8.9-2.85-17.78-4.3-26.66a6.16,6.16,0,0,0-.39-1.09c-1.75,8.75-3.35,17.42-4.44,26.14a12.26,12.26,0,0,1-6.67,9.89,45.82,45.82,0,0,1-15.84,4.92c-.52.08-1,.22-1.55.33a14.46,14.46,0,0,0,3.57.92c5.58,1,11,2.53,15.7,5.85a10.08,10.08,0,0,1,4.51,7.14c1.2,8.19,2.57,16.36,3.87,24.54.16,1,.34,2,.51,3l.45,0a2.27,2.27,0,0,0,.22-.54c1.45-8.88,3-17.76,4.29-26.66.48-3.26,1.8-6,4.6-7.49a69.06,69.06,0,0,1,10.28-4.6A70.22,70.22,0,0,1,308.47,523.69ZM415,76.16H355.54v49.69H415Zm-4.15,45.43h-51V80.38h51Zm-57.5,511.78c1.32,5.25,2.65,10.51,3.94,15.77a63.17,63.17,0,0,0,1.83,7.29,4.06,4.06,0,0,0,2.87,2.16c1.51.11,1.38-1.52,1.54-2.71,1.36-9.75,1-19.56,1-29.35a26.31,26.31,0,0,0-.34-4.35,6.23,6.23,0,0,0-1-1.78l-.78.08a8,8,0,0,0-.78,2.18c-.31,6-.55,12-.78,18-.06,1.48,0,3,0,4.44-2-8.46-5.5-16.3-8.5-24.17-2.05,0-2.87.8-3.06,2.28a20.22,20.22,0,0,0-.33,2.55c0,5.83-.07,11.65,0,17.47.07,4.37.29,8.73.54,13.09.06,1.14.46,2.41,1.94,2.29s1.63-1.34,1.61-2.54c-.07-3.77-.17-7.55-.2-11.32,0-4.13,0-8.26,0-12.61A9.14,9.14,0,0,1,353.36,633.37ZM328.5,633c2.18-7.87-3.35-13.77-11.4-12.66-1,.15-2.06.37-3,.53-.55-.71-1-1.33-2-2.51l-1.53,4.3a10.42,10.42,0,0,0-2,1.5,82.9,82.9,0,0,0-5.13,6.69,2.07,2.07,0,0,0,.64,3.22c2.32-2,3.32-5.34,6.61-6.8,0,1,0,1.68,0,2.39-.22,9.07-.46,18.14-.66,27.21a5.61,5.61,0,0,0,.31,2.51,2.38,2.38,0,0,0,1.76,1.2,2.46,2.46,0,0,0,1.57-1.44,7.35,7.35,0,0,0,.17-2.54c0-2.9,0-5.79,0-8.64C322.21,646.13,326.44,640.42,328.5,633ZM315.21,643.7c-.3.1-.62.15-1.24.29V625.18a9.05,9.05,0,0,1,7.1-.47,4.91,4.91,0,0,1,3.15,4.24C325.05,634.32,320.37,642,315.21,643.7ZM394.87,636c-.56-4.2-1-8.41-1.65-12.6-.17-1.12,0-2.63-2.26-3-3.41,7.75-4.53,16.24-7,24.15-1.44,1-4.1-.28-4.15,2.26,0,.84,1.67,1.71,2.91,2.87-.51,2.09-1.19,4.77-1.83,7.45-.3,1.26-1,2.81.93,3.28s2.11-1.14,2.47-2.42c.24-.89.43-1.8.66-2.7l1.65-6.39h6.1c.14.81.28,1.52.4,2.23q.58,3.31,1.15,6.65c.2,1.2.89,2.17,2.1,1.71.65-.25,1.06-1.4,1.36-2.23a4.14,4.14,0,0,0-.13-1.76C396.66,649,395.75,642.49,394.87,636Zm-7.12,8.17q1.46-5.85,2.92-11.66H391c.4,3.83.79,7.65,1.21,11.66Zm-104.47,9.54a3,3,0,0,0,4-.54,40.75,40.75,0,0,0,5.44-6.46c5.16-8.18-.79-15.85-7.07-18.54a3.87,3.87,0,0,0-3.39.5c-.64.55-.66,2.15-.49,3.21a15.06,15.06,0,0,0,1.3,3.36c-3.41.55-6.68,1-9.9,1.63-1.74.37-3.64,1.14-3.69,3.3s1.94,2.76,3.57,3.07c3.68.7,7.4,1.13,11.14,1.67-.59,1.45-1.39,3.11-1.92,4.86C281.84,651.2,281.85,652.73,283.28,653.72Zm1.37-2.82,2.87-6.69c.68-.2,1.11-.36,1.56-.46.61-.14,1.24-.24,1.92-.37A13.48,13.48,0,0,1,284.65,650.9Zm6.53-14.4c-4.41.19-6.22-2.29-6.76-6.1C287.58,631.55,289.54,633.76,291.18,636.5ZM273,640.43a29.89,29.89,0,0,1,18.63-.21A31.88,31.88,0,0,1,273,640.43Zm73.16-590c3.16.64,6.36,1,9.75,1.56a13.27,13.27,0,0,0-1.29,3.18c-.16,1.14-.22,2.83.44,3.4a4.07,4.07,0,0,0,3.57.42,14.86,14.86,0,0,0,8.47-9.4c1.77-5.7-3.15-12.78-7-15.55-1.21-.87-2.58-1.5-4-.51s-1.4,2.51-1,3.95a35,35,0,0,0,1.55,3.84l.44,1c-3.74.53-7.41.92-11,1.61-1.7.32-3.82.84-3.76,3.13S344.31,50.09,346.12,50.46Zm11.19,6.39c-.3-3.28,2.13-5.56,6.77-6.2C362.25,53.49,360.34,55.73,357.31,56.85Zm.85-20.32c2.63,1.79,4.34,4.32,6,7.53l-3.81-.92c-.89-2-1.8-4.18-2.72-6.3Zm6.19,10.53a30,30,0,0,1-18.63-.2A31.88,31.88,0,0,1,364.35,47.06Zm62.16,650.87a5.78,5.78,0,0,0-1.33-.39c-3.07-.48-6.13-.93-9.38-1.42a34.46,34.46,0,0,0,1.48-3.78c.72-2.66-1.11-4.45-3.68-3.46a16.34,16.34,0,0,0-4.67,2.91c-7.32,6.24-5.18,19.11,3.75,22.87a2.39,2.39,0,0,0,.37.15c2,.66,3.74-.43,3.69-2.53a14.91,14.91,0,0,0-.91-4,26.13,26.13,0,0,0-1.52-3.07,58.25,58.25,0,0,0,6.24-.05,37.72,37.72,0,0,0,6-1.28c1.41-.39,2.91-1,2.89-2.82S427.93,698.55,426.51,697.93Zm-11.84-6.78c-1.36,5-2.78,6.14-7,6.2A13.11,13.11,0,0,1,414.67,691.15Zm-1.22,20.41c-2.58-1.76-4.28-4.27-5.91-7.47l3.77.83c.92,2.12,1.83,4.19,2.74,6.27ZM407.25,701c3.37-2,14.9-1.92,18.7.08C423.4,703.15,410.53,703.1,407.25,701Zm-50.11-12.23c-2.49-.85-4.26.91-3.58,3.47a39.75,39.75,0,0,0,1.64,4.23,18.6,18.6,0,0,0-3,0,74.9,74.9,0,0,0-8.68,1.88,3.66,3.66,0,0,0-2,2.78c0,.81,1.23,2,2.17,2.41a16.21,16.21,0,0,0,4.77,1.29c2.58.33,5.19.4,7.81.59a50.81,50.81,0,0,0-2,4.77c-.49,1.55-.64,3.24,1,4.32a3.1,3.1,0,0,0,4.16-.72,40.82,40.82,0,0,0,5.72-7.25C369.75,698.45,362.77,690.73,357.14,688.81Zm-.51,22.87c1.09-2.55,2-4.66,2.9-6.75l3.27-.74C362.62,706.42,359.54,710.39,356.63,711.68Zm-12.21-10c3.54-2.51,15.91-2.64,19.5-.33C357.38,703.15,351.16,702.83,344.42,701.63Zm14.48-4.93-3.16-5.31c3.07.46,5.72,2.8,7.35,6.14ZM172.76,340.48a40.93,40.93,0,0,0,6.78,5.37c8.07,4.79,15.78-1.68,18-7.61A3.69,3.69,0,0,0,197,335c-.56-.61-2.05-.66-3.05-.48a20.14,20.14,0,0,0-3.76,1.48c-.05-.73,0-1.32-.13-1.88-.5-3.06-.89-6.13-1.59-9.14a3.12,3.12,0,0,0-3-2.74c-1.69,0-2.26,1.4-2.76,2.72a9.81,9.81,0,0,0-.62,2.09c-.43,3.32-.8,6.65-1.2,10a43.43,43.43,0,0,0-4.45-1.9c-1.6-.51-3.37-.76-4.49.94S171.6,339.4,172.76,340.48Zm17.07-.79,4.92-2.85.45.62c-1.08,3-3.3,4.91-6.29,6.73C189.25,342.56,189.5,341.29,189.83,339.69Zm-4.61-13.89a30,30,0,0,1,.24,18.67C183.34,338.29,183.67,332.06,185.22,325.8Zm-3.67,14.59c.28,1.25.53,2.32.78,3.45a13.5,13.5,0,0,1-7.55-6.35Zm.78,66c.33,1.74.82,4,3.23,3.88,2.23-.09,2.94-2.11,3.3-3.93.63-3.16,1-6.37,1.55-9.7a15.1,15.1,0,0,0,3.42,1.37c1.06.16,2.66.1,3.2-.55a3.88,3.88,0,0,0,.44-3.4,14.37,14.37,0,0,0-9.51-8.59c-4.19-1.17-7.85.34-11.06,2.85a22.76,22.76,0,0,0-5,5.25c-1.35,2.07.15,4.19,2.66,4.05a13.55,13.55,0,0,0,3.61-.9,22.3,22.3,0,0,0,2.59-1.29C181.28,399.15,181.64,402.8,182.33,406.4Zm12.91-11.28c-.19.22-.38.43-.56.65l-4.85-2.89-.89-4.4A13.44,13.44,0,0,1,195.24,395.12Zm-9.8-7a30.39,30.39,0,0,1-.16,18.65A31.79,31.79,0,0,1,185.44,388.15Zm-10.21,6.79-.5-1,7.1-5.56.48.43c-.24,1.06-.47,2.12-.75,3.4Zm413.29-68.75c-.33-1.73-.81-4-3.24-3.86-2.23.1-2.93,2.12-3.29,3.94-.63,3.16-1,6.36-1.55,9.7a12,12,0,0,0-3.06-1.26,5.76,5.76,0,0,0-3.62.42c-1.33.88-.93,2.51-.29,3.81a15.43,15.43,0,0,0,8.49,7.9,10,10,0,0,0,3.87.6c5-.22,8.6-3,11.88-6.4a6.93,6.93,0,0,0,1.36-2.16c.88-2.14-.32-4.07-2.6-3.88a22.23,22.23,0,0,0-4.89,1.39,9.79,9.79,0,0,0-1.5.77C589.57,333.44,589.21,329.79,588.52,326.19Zm-13.1,10.9c4.39,1,6.28,2.5,6.3,6.91A13.64,13.64,0,0,1,575.42,337.09Zm9.74,7.74a37.77,37.77,0,0,1,.09-19.35C587.51,328.36,587.44,341.23,585.16,344.83Zm10.42-7.16.38.63a19.57,19.57,0,0,1-7.53,5.88l.86-3.76ZM501,639.34c-.06-2.24-2.09-3-3.91-3.32-3.15-.64-6.36-1-9.75-1.56.43-.93.91-1.85,1.27-2.83.51-1.39.93-2.85-.46-4s-2.81-.68-4.1,0a15.29,15.29,0,0,0-7.4,8,12.1,12.1,0,0,0-.7,4.63c.15,4.52,2.8,7.86,5.73,10.95,2.1,2.21,4.18,2.74,5.57,1.74s1.56-3,.36-5.86c-.46-1.1-1-2.16-1.4-3,3.73-.5,7.34-.86,10.88-1.54C498.8,642.22,501,641.75,501,639.34Zm-15-9.55c.23,3.18-2.17,5.42-6.62,6C481.18,632.44,483.42,630.43,485.93,629.79ZM485,649.93c-2.6-1.8-4.32-4.31-5.9-7.47l3.73.85c.89,2,1.83,4.11,2.77,6.24Zm-6.5-10.17c3.23-2.36,15.67-2.3,19.42.12A40.74,40.74,0,0,1,478.51,639.76ZM414,59.08a3.9,3.9,0,0,0,3.41-.44c.65-.54.72-2.14.56-3.2A15.6,15.6,0,0,0,416.59,52c3.26-.5,6.41-.87,9.51-1.49,1.89-.38,4-1,4.09-3.39s-2.32-2.91-4.12-3.25c-3.49-.66-7.05-1-10.58-1.44.63-1.61,1.43-3.35,2-5.16a3.11,3.11,0,0,0-1.09-3.74,2.94,2.94,0,0,0-3.85.5A42,42,0,0,0,407,40.46C401.78,48.64,407.69,56.34,414,59.08Zm.29-22.53.58.3-2.72,6.33-3.77.83A18.54,18.54,0,0,1,414.26,36.55Zm12.46,10.28a29.87,29.87,0,0,1-18.67.23C414.23,45,420.46,45.26,426.72,46.83Zm-11.43,10c-3.21-1.1-5.11-3.38-6.79-6.06C412.73,50.61,414.6,52.72,415.29,56.87Zm183,335.46a41.67,41.67,0,0,0-7-5.64c-8.13-4.75-15.89,2-18,7.78-.94,2.58.85,4.4,3.49,3.69a35.33,35.33,0,0,0,3.88-1.52c.34,2.87.51,5.58,1,8.22a12.38,12.38,0,0,0,1.91,4.48c1.07,1.57,2.93,1.39,3.9-.27a9.9,9.9,0,0,0,1.33-3.49c.52-3.35.83-6.73,1.22-10.07a50.69,50.69,0,0,0,4.78,1.95c1.48.45,3.1.54,4.14-1A3.1,3.1,0,0,0,598.24,392.33Zm-17.21.54-4.9,2.91c-.15-.2-.29-.4-.44-.59,1-3,3.29-4.88,6.27-6.85C581.6,390.07,581.35,391.29,581,392.87ZM586,407.19c-2.46-3.21-2.63-15.59-.32-19.43C587.49,394.33,587.24,400.57,586,407.19Zm9.67-12.27-6.32-2.71c-.28-1.27-.52-2.33-.86-3.8,3.16,1.62,5.7,3.32,7.48,5.95ZM436.45,656.1c-.05,1.58.24,3.64,1.92,3.69a63.86,63.86,0,0,0,10.2-.94c.44-.07,1.08-1.27,1-1.85s-.9-1.26-1.53-1.47a5.69,5.69,0,0,0-2.34.13c-1.62.21-3.22.47-4.77.7V642.71c1.26-.08,2.23-.15,3.2-.2a9.5,9.5,0,0,0,3.14-.22,3.37,3.37,0,0,0,1.85-2.11c.08-.51-1.09-1.43-1.88-1.81a5.87,5.87,0,0,0-2.53-.32c-1.22,0-2.44.13-4.05.23V623.76l8-.39c0-1.9-.83-3.11-2.53-3.16a75.47,75.47,0,0,0-8.89.4,1.6,1.6,0,0,0-1.41,2.38l1.18.93v14.24c-1.62,1.36-3.7,2.27-3.78,3.35-.19,2.24,2.38,1,3.63,1.76,0,.62,0,1.27,0,1.92C436.73,648.83,436.55,652.46,436.45,656.1Zm150,42.33c-2.12-2.77-4.33-5.46-6.51-8.18,1.44-.61,3.19-1.23,4.81-2.07,1.41-.73,2.5-1.87,2.11-3.66a3,3,0,0,0-3.29-2.33,42.55,42.55,0,0,0-9,1.06c-9,2.37-9.83,12.38-7.14,18.24,1.15,2.5,3.69,2.55,5.07.17a30.73,30.73,0,0,0,1.67-4c1.9,1.52,3.7,3.18,5.71,4.52a15.91,15.91,0,0,0,5,2.31c2.42.57,3.67-1,2.87-3.41A9.37,9.37,0,0,0,586.45,698.43ZM584,685.68l-6.9,2.82L574,686.56C577,685.06,581.25,684.6,584,685.68Zm-14.17,14.84c-1.57-3-1.26-6-.72-9.06C572.07,693.53,572.45,697.47,569.81,700.52Zm1.65-12.15c6,2.84,10.25,7.44,13.61,13A29.85,29.85,0,0,1,571.46,688.37ZM186.76,52c1.59,2.07,3.47,3.92,5.14,5.78-1.65.71-3.4,1.33-5,2.18-1.4.73-2.49,1.88-2.08,3.67a3,3,0,0,0,3.31,2.31,43.39,43.39,0,0,0,9-1.07c8.93-2.36,9.8-12.39,7.11-18.24-1.15-2.5-3.69-2.53-5.07-.15a33.29,33.29,0,0,0-1.68,4,68.72,68.72,0,0,0-5.38-4.32,17.81,17.81,0,0,0-5.29-2.54C184.37,43,183,44.71,183.94,47A21.4,21.4,0,0,0,186.76,52Zm.86,10.48,6.94-2.85,3.09,2C194.66,63,190.48,63.5,187.62,62.46Zm13.95-14.68c1.61,1.66,1.94,5.75.73,9C199.53,53.32,199.34,50.89,201.57,47.78ZM200.2,59.69a31.4,31.4,0,0,1-13.62-13A30.38,30.38,0,0,1,200.2,59.69Zm370,2.21c4.07,3.59,9,4.52,14.2,4.05,1.48-.13,2.92-.66,3.28-2.39s-.73-2.92-2.13-3.64c-1.63-.84-3.37-1.46-5.16-2.21l1.25-1.17c2.81-2.65,5.36-5.54,6.76-9.19a3.67,3.67,0,0,0-.29-3.07,3.25,3.25,0,0,0-2.83-.61,15.35,15.35,0,0,0-4.42,2.15c-2,1.41-3.9,3.06-5.88,4.64a16.47,16.47,0,0,0-1.48-3.67c-.61-.87-1.81-1.95-2.65-1.88a3.93,3.93,0,0,0-2.7,2.11,14.51,14.51,0,0,0,.36,12.46A8.11,8.11,0,0,0,570.18,61.9Zm14.2.37c-.06.21-.13.42-.19.63-3.17.6-6.2-.12-9.63-1.16l3.29-2.14Zm1.46-15.57a31.49,31.49,0,0,1-13.58,13A30.27,30.27,0,0,1,585.84,46.7Zm-15.3.77c2.64,3.18,2.4,6.21-.56,9.32A14.23,14.23,0,0,1,570.54,47.47ZM201.39,686.16c-3.94-3.63-8.85-4.45-14-4-1.55.13-3.07.64-3.41,2.48s.82,2.89,2.22,3.61c1.61.83,3.33,1.44,5.1,2.18a11.93,11.93,0,0,0-1.31,1.22c-2.26,3-4.59,5.93-6.65,9a3.2,3.2,0,0,0,.16,3.05c.54.65,2,.76,3,.71a5.23,5.23,0,0,0,2.53-1c2.59-1.8,5.12-3.71,7.69-5.59a18.65,18.65,0,0,0,1.6,3.75,3.76,3.76,0,0,0,2.6,1.64,3.38,3.38,0,0,0,2.48-1.83,19.9,19.9,0,0,0,1.27-6C204.8,692,204,688.59,201.39,686.16Zm-14.08-.28c.06-.23.11-.46.17-.69,3.17-.59,6.22.18,9.69,1.17l-3.38,2.12Zm-1.49,15.53a31.41,31.41,0,0,1,13.57-13C196.35,694.23,191.63,698.36,185.82,701.41Zm15.26-.81c-2.62-3.12-2.37-6.2.6-9.3A13.88,13.88,0,0,1,201.08,700.6Zm255.15-52c-1.33.69-2.52,1-3.15,1.72-1.28,1.49-1.1,3.34-.36,5.07,1.6,3.72,3.61,4.68,8.39,4.12,4.49-.54,7.19-3.64,6.37-8.07a27.93,27.93,0,0,0-3.13-8.87,34.29,34.29,0,0,0-6.14-7.23,9.19,9.19,0,0,1-2.93-8.6c.38-2.54,1.71-3.57,4.25-3.22,2,.27,2.92,1.56,3.48,3.35a26.93,26.93,0,0,0,1.36,2.95,8.55,8.55,0,0,0,1.17-1.7c.74-2.74-1.54-6.48-4.43-7.38-3.66-1.14-7.63.29-8.47,3.44a24.68,24.68,0,0,0-.74,7.42c.13,3.26,2.45,5.47,4.59,7.66,2.9,3,5.51,6.11,6.59,10.23s1.64,6.26-4.37,6.64C454.63,654.75,456.93,651.52,456.23,648.59Zm2.42,7.53c-.1,0-.18,0,0,0ZM378.25,57.19a3.1,3.1,0,0,0,2.46.54c.39-.1.72-1.41.65-2.13-.34-3.19,1.22-5.76,4.57-7.13,3.85,1.06,5.42,3.49,5.05,7.43a2.29,2.29,0,0,0,.7,1.83,2.63,2.63,0,0,0,2-.11A4.16,4.16,0,0,0,395,56.45a11.47,11.47,0,0,0-16.71-15.68C373.53,45.28,373.48,53.23,378.25,57.19Zm3.54-14.48c3-2.11,6.19-2,9.33.45a6.54,6.54,0,0,1,2.36,7.67c-3.41-6.9-10.08-8-14.57,0A7,7,0,0,1,381.79,42.71ZM393.45,691a2.89,2.89,0,0,0-2.43-.61c-.47.18-.78,1.51-.7,2.28.33,3.34-1.57,6-5.1,7-3.42-1.17-5-3.7-4.58-7.32.07-.62-.18-1.64-.6-1.86a3,3,0,0,0-2.16.14,4.35,4.35,0,0,0-1.44,1.34,11.48,11.48,0,1,0,18.43,13.68C398.1,701,397.5,694.37,393.45,691Zm-3.67,14.39a7.26,7.26,0,0,1-9.17-.23,6.76,6.76,0,0,1-2.43-7.83c4,7.67,11,7.18,14.51-.17A6.81,6.81,0,0,1,389.78,705.35ZM576.62,371c-1.29-.17-2.23.24-2.13,1.58a3.87,3.87,0,0,0,1.22,2.14,11.17,11.17,0,0,0,12.34,2.1c4.12-1.86,7.22-6.64,7-10.74a12.08,12.08,0,0,0-8.08-10.79c-4.17-1.37-9.32-.06-11.76,3.12a2.74,2.74,0,0,0-.47,2.28c.23.49,1.41.81,2.12.73a6.47,6.47,0,0,1,7.14,4.63C583,369.8,580.47,371.53,576.62,371Zm5-11.91c2.24-1.14,5.28-.38,7.37,1.85a7.27,7.27,0,0,1,1,9.12c-2,3.28-4.78,4.5-8.61,3.54C589.74,369.43,588.37,362.38,581.67,359.12Zm-387.39,2.42a2.28,2.28,0,0,0,1.84-.69,2.52,2.52,0,0,0-.12-2,4.29,4.29,0,0,0-1.31-1.45,11,11,0,0,0-11.92-1.61c-4.1,1.76-7.15,6.47-6.89,10.78a11.45,11.45,0,0,0,7,10.28c4.33,2,9.91.87,12.72-2.58a3.18,3.18,0,0,0,.55-2.45c-.11-.39-1.42-.73-2.14-.66-3.4.37-6-1.39-7.13-5.06C188.18,362.58,190.55,361.19,194.28,361.54Zm-5.08,12a6.44,6.44,0,0,1-7.38-2c-2.54-3-2.88-6.32-1-9.32a7.21,7.21,0,0,1,8.54-3.22C182.29,362.52,181.29,369.54,189.2,373.52ZM336.66,623.84a48.31,48.31,0,0,0,6.5-.58c.77-.15,1.34-1.33,2-2a26.15,26.15,0,0,0-2.22-1.87c-.27-.18-.78-.06-1.17,0-2.37.24-4.75.43-7.09.8a17.47,17.47,0,0,0-3,1V661c1.5-.3,2.58-.49,3.66-.72,2.78-.58,5.59-1.07,8.31-1.86.77-.22,1.27-1.37,1.89-2.1-.78-.56-1.5-1.46-2.35-1.6a9.71,9.71,0,0,0-3.52.37c-1.51.32-3,.79-4.5,1.2V643.9c1.54-.18,2.92-.26,4.27-.51s2.74-.67,4-1c.29-2.43-.59-3.36-2.85-3.23-1.76.1-3.51.44-5.44.69-.28-5.44-.55-10.62-.84-16C335.11,623.85,335.89,623.89,336.66,623.84ZM412.82,658a43.87,43.87,0,0,0,4.29-5.82c.7-1.1.86-2.57-.63-3.26s-2.25.55-3,1.76c-1,1.64-2.22,3.14-3.27,4.6-2.74-.91-4.08-2.33-4.64-4.6a36.66,36.66,0,0,1-1.06-15,30.84,30.84,0,0,1,3-9.56c1.91-3.53,4.58-3.39,7.07-.29.52.63,1.09,1.21,1.64,1.82l.7-.16a4.56,4.56,0,0,0,.46-1.52c-.31-3.71-5.28-6.65-8.71-5.14a11.54,11.54,0,0,0-6.32,7,40.17,40.17,0,0,0-.56,25c.82,2.91,2.89,4.68,5.53,5.87C409.27,659.68,411.32,659.68,412.82,658ZM329,191.87c-.48-3.83-1.24-7.63-1.89-11.43a3.14,3.14,0,0,0-.85,1.81c-.51,3.07-1.16,6.12-1.44,9.21a6.26,6.26,0,0,1-4.48,5.7c-1.94.72-3.95,1.27-6.11,2,2.25.72,4.38,1.3,6.43,2.1a6,6,0,0,1,4.12,5.31c.34,3.28,1,6.54,1.54,9.8.09.51.28,1,.42,1.5a56.75,56.75,0,0,0,2.05-10.4c.32-3.73,2.31-5.75,5.65-6.78,1.65-.51,3.33-.95,5.13-1.46-2.44-.82-4.71-1.47-6.88-2.35A5.69,5.69,0,0,1,329,191.87Zm172.67,311a85.46,85.46,0,0,0,2.3-11.57,5.52,5.52,0,0,1,3.3-4.6,47.18,47.18,0,0,1,4.84-1.74c.74-.26,1.51-.43,2.49-.7-2.45-.79-4.63-1.36-6.69-2.18a6,6,0,0,1-4-5.21c-.44-3.79-1.21-7.54-1.85-11.31l-.43,0c-.14.56-.32,1.12-.41,1.69-.54,3.26-1.16,6.52-1.55,9.8a5.47,5.47,0,0,1-3.26,4.63,56,56,0,0,1-5.41,1.92,20.08,20.08,0,0,1-2,.44c2.66.93,5,1.63,7.23,2.57a5.42,5.42,0,0,1,3.44,4.71c.39,3.28,1,6.54,1.56,9.8A17.35,17.35,0,0,0,501.71,502.86ZM376.21,657.21a6.62,6.62,0,0,0,.24-2.54c.07-8.8.12-17.61.2-26.41,0-1.36.19-2.72.29-4,1.79,0,3.31.05,4.83,0,1.21,0,2.22-.71,1.9-2a3,3,0,0,0-1.89-1.8,14.93,14.93,0,0,0-4.51-.56c-3.08.08-6.16.37-9.06.56-1.34,2.75-1,3,5,4,0,.5,0,.89,0,1.29q-.37,14.68-.75,29.37a4.36,4.36,0,0,0,.24,2.13c.38.64,1.19,1.41,1.81,1.41S375.9,657.86,376.21,657.21ZM423,659.09c3.63,0,7.27-.29,10.88-.61.73-.07,1.39-.86,2.44-1.55-3.93-3.65-8.3-1-12.08-2.09.18-4.47.5-9,.5-13.44,0-6.08-.25-12.17-.47-18.25a7.82,7.82,0,0,0-.76-2.17h-.77a11.3,11.3,0,0,0-1,2.79c-.32,4-.54,7.92-.71,11.88-.29,6.75-.5,13.49-.78,20.24C420.15,658.12,420.73,659.09,423,659.09Zm98.92-284.87c0,.33,0,.66.07,1,.36,2,.74,4,1.12,6a34.07,34.07,0,0,0,1.74-8,5.64,5.64,0,0,1,4.23-5.35c1.34-.46,2.7-.84,4-1.25a3.18,3.18,0,0,0-1.51-.61c-4.58-.87-6-2.27-6.79-6.84-.44-2.44-.85-4.89-1.27-7.33l-.53,0c-.36,2.26-.88,4.5-1,6.77-.26,3.63-1.74,6.15-5.47,7-1,.23-2,.49-3,.74a4.26,4.26,0,0,0,2,.92C520.06,368.27,521.38,369.71,521.92,374.22Zm-256.63,50.3c.24,2.92,1,5.8,1.47,8.7a38,38,0,0,0,1.84-8.51c.24-2.66,1.77-4,4-4.88,1.34-.52,2.74-.88,4.58-1.45a39.76,39.76,0,0,1-4-1.08c-2-.78-4-1.57-4.4-4.08-.25-1.64-.47-3.27-.74-4.9s-.56-3.1-.85-4.64a49.31,49.31,0,0,0-2,9.17,4.28,4.28,0,0,1-2.66,3.63c-1.7.76-3.5,1.3-5.44,2,1.47.46,2.81.81,4.09,1.3C263.39,420.61,265.07,421.77,265.29,424.52Zm-2-262.33c.49-1.85.37-3.88,1.22-5.36s2.64-2.35,3.92-3.41c-2.82-.2-4.34-2-4.47-5.09a25.44,25.44,0,0,0-.53-3.08,6.43,6.43,0,0,0-.94,3.06c0,3.26-1.68,4.82-5,5.43C263.37,154,262.08,158.9,263.33,162.19Zm163.3,419c1.34-3.7-.2-8.42,5.62-9-5.64-.71-4.35-5.3-5.54-8.91-1.28,3.55,0,8.33-5.77,8.66l4.32,2.06C425.71,576.35,426.12,578.51,426.63,581.18Zm96-382.7c1.06-3.22.27-7.54,5.67-8.14-5.73-.3-4.42-5-5.69-8.07-.94,3.35-.21,7.61-5.63,8.14C522.33,191,521.74,195.11,522.66,198.48ZM588,434.53c-1.52.07-2.08,1.17-2.11,2.58s.9,2.22,2.08,2c.91-.18,1.66-1.17,2.48-1.8C590.1,435.44,589.49,434.46,588,434.53ZM182.9,439.15a1.85,1.85,0,0,0,2-2.11c-.08-1.39-.66-2.48-2.18-2.51s-2,1-2,2.35A2,2,0,0,0,182.9,439.15Zm1.14-14c-.53-.44-2.1-.5-2.4-.11a3.54,3.54,0,0,0-.57,2.78c.46,1.55,1.85,1.36,3.28,1C185.23,427.4,185.14,426.06,184,425.15ZM587.51,312.93a2.48,2.48,0,0,0,2.38.26,3.52,3.52,0,0,0,.75-2.72c-.37-1.57-1.77-1.49-3.2-1.14A2.43,2.43,0,0,0,587.51,312.93ZM184.88,313a2.49,2.49,0,0,0,.18-3.63c-1.41-.37-2.8-.51-3.22,1a3.47,3.47,0,0,0,.65,2.76C182.8,313.54,184.38,313.44,184.88,313Zm405,112.51c-.88-1.05-2-1.41-3-.4a2.48,2.48,0,0,0-.23,3.65C589.5,429.38,590.34,428.53,589.84,425.5Zm-405,21a2.75,2.75,0,0,0-2.05-1.55,2.79,2.79,0,0,0-1.93,1.7c-.43,1.47.56,2.29,2.05,2.58C184.43,448.81,185.3,447.86,184.8,446.46ZM588,444.91a2.78,2.78,0,0,0-2,1.64c-.46,1.44.48,2.31,2,2.65,1.53-.36,2.48-1.23,2-2.67A2.77,2.77,0,0,0,588,444.91ZM438.67,702.65a2,2,0,0,0-1.92,2.46c.15.79,1.09,1.43,1.41,1.82,2.13-.07,2.69-1,2.65-2.24A1.88,1.88,0,0,0,438.67,702.65Zm.79-657.27c1.27.4,2.1-.65,2.15-1.93s-.48-2.18-2.39-2.6c-.59.76-1.7,1.58-1.63,2.28A3.28,3.28,0,0,0,439.46,45.38Zm-106.78.08c1.49.11,2.08-.87,2.63-2.67a8.07,8.07,0,0,0-2.23-1.51c-1.35-.36-2.13.56-2.24,1.84A1.92,1.92,0,0,0,332.68,45.46ZM332,702.65a1.9,1.9,0,0,0-1.95,2.24c.06,1.26.76,2.25,2.14,2a7.08,7.08,0,0,0,2.12-1.28C334,703.64,333.49,702.6,332,702.65ZM222.64,45.7h1c.55-.82,1.56-1.66,1.51-2.44s-1.14-1.75-1.93-1.92a1.69,1.69,0,0,0-2,2C221.25,44.21,222.11,44.93,222.64,45.7ZM489.39,702.41l-.95,0c-.55.81-1.57,1.65-1.54,2.43a2.92,2.92,0,0,0,1.93,1.94,1.69,1.69,0,0,0,2.05-2C490.77,703.91,489.92,703.18,489.39,702.41Zm9.83,0-.89,0c-.54.77-1.43,1.49-1.55,2.32a1.81,1.81,0,0,0,2.06,2.1c1.35,0,2.21-.9,2-2.17C500.67,703.83,499.78,703.14,499.22,702.39ZM252.36,45.68l.95,0c.59-.8,1.63-1.6,1.62-2.39a2.89,2.89,0,0,0-1.87-2A1.69,1.69,0,0,0,251,43.3C251,44.13,251.87,44.89,252.36,45.68Zm10.13,0,.95,0c.52-.82,1.48-1.68,1.42-2.47a2.87,2.87,0,0,0-1.94-1.87,1.67,1.67,0,0,0-2,2C261,44.18,261.93,44.92,262.49,45.72Zm9.84,0h.95c.56-.81,1.56-1.63,1.53-2.41a2.9,2.9,0,0,0-1.87-1.95,1.68,1.68,0,0,0-2.11,1.9C270.93,44.11,271.8,44.89,272.33,45.7Zm9.89,0,.95,0c.57-.81,1.59-1.63,1.57-2.42s-1.11-1.76-1.9-1.95a1.68,1.68,0,0,0-2.07,2C280.87,44.17,281.71,44.91,282.22,45.69ZM508.67,702.86a2.83,2.83,0,0,0-1.93,1.89,1.66,1.66,0,0,0,2,2c.88-.16,1.63-1,2.44-1.58,0-.31,0-.61,0-.92C510.31,703.75,509.45,702.8,508.67,702.86ZM302.16,45.7h.95c.55-.82,1.55-1.67,1.5-2.45a2.9,2.9,0,0,0-1.94-1.91,1.69,1.69,0,0,0-2,2C300.77,44.22,301.63,44.94,302.16,45.7ZM529,702.39l-1,0c-.51.83-1.47,1.7-1.4,2.48a2.91,2.91,0,0,0,2,1.86,1.67,1.67,0,0,0,2-2C530.49,703.91,529.58,703.18,529,702.39Zm10,0h-.95c-.55.81-1.55,1.63-1.51,2.41a2.86,2.86,0,0,0,1.87,2,1.67,1.67,0,0,0,2.1-1.9C540.47,704,539.59,703.22,539.06,702.41ZM450.43,45.7c.52-.78,1.37-1.51,1.49-2.34a1.69,1.69,0,0,0-2.05-2c-.79.18-1.89,1.23-1.92,1.93s1,1.62,1.53,2.43Zm8.94,0,.9,0c.55-.76,1.44-1.45,1.59-2.27.23-1.27-.63-2.13-2-2.18a1.81,1.81,0,0,0-2.05,2.11C457.94,44.21,458.83,44.93,459.37,45.7Zm20.83,0c.54-.77,1.4-1.48,1.54-2.31a1.69,1.69,0,0,0-2-2,2.9,2.9,0,0,0-2,1.89c-.05.79.95,1.64,1.49,2.47Zm10,0c.51-.83,1.36-1.63,1.43-2.5a1.68,1.68,0,0,0-2.16-1.84,2.91,2.91,0,0,0-1.82,2c0,.79,1,1.58,1.59,2.37Zm9.77,0c.56-.8,1.46-1.53,1.6-2.39a1.67,1.67,0,0,0-2-2,2.89,2.89,0,0,0-1.94,1.87c-.06.78.9,1.64,1.42,2.47Zm9.95,0c.56-.76,1.44-1.45,1.59-2.28a1.68,1.68,0,0,0-2-2.09,2.91,2.91,0,0,0-2,1.85c-.07.79.91,1.66,1.44,2.5Zm28.92,0,.9,0c.55-.76,1.44-1.45,1.59-2.27.23-1.27-.63-2.13-2-2.18a1.81,1.81,0,0,0-2,2.11C537.45,44.21,538.34,44.93,538.88,45.7ZM183.52,84.52a1.69,1.69,0,0,0,2.1-1.93c-.12-.88-1-1.66-1.5-2.48l-.93,0c-.54.81-1.52,1.64-1.49,2.43A2.85,2.85,0,0,0,183.52,84.52Zm403.31-2a1.69,1.69,0,0,0,2,2c.86-.13,1.6-1,2.4-1.61,0-.32,0-.64,0-1-.83-.52-1.69-1.48-2.47-1.42A2.91,2.91,0,0,0,586.83,82.48Zm-403.11,12a1.7,1.7,0,0,0,1.89-2.14,2.89,2.89,0,0,0-2-1.85c-.78,0-1.59,1-2.39,1.53,0,.32,0,.64,0,1C182.07,93.5,182.86,94.38,183.72,94.47Zm405,0c.86-.1,1.64-1,2.45-1.52V92c-.8-.55-1.63-1.55-2.41-1.52a2.9,2.9,0,0,0-1.95,1.88A1.68,1.68,0,0,0,588.74,94.47Zm-403.13,7.91a2.93,2.93,0,0,0-1.87-2c-.77-.07-1.65.89-2.48,1.4l0,1c.79.57,1.52,1.5,2.38,1.64A1.69,1.69,0,0,0,185.61,102.38Zm0,9.87a2.92,2.92,0,0,0-1.94-1.9c-.78,0-1.61,1-2.43,1.48v1c.81.54,1.58,1.44,2.44,1.55A1.7,1.7,0,0,0,185.61,112.25Zm401.23-.09a1.69,1.69,0,0,0,1.83,2.19c.87-.07,1.68-.93,2.51-1.44l0-1c-.78-.57-1.58-1.6-2.36-1.59A2.87,2.87,0,0,0,586.84,112.16Zm0,188.94a1.68,1.68,0,0,0,1.95,2.08c.86-.11,1.62-1,2.42-1.57v-1c-.81-.53-1.66-1.51-2.44-1.45A2.91,2.91,0,0,0,586.83,301.1Zm-403.31,2.08a1.7,1.7,0,0,0,2.1-1.93c-.12-.88-1-1.66-1.5-2.49h-.92c-.55.81-1.53,1.63-1.5,2.42A2.88,2.88,0,0,0,183.52,303.18Zm403.31-31.94a1.7,1.7,0,0,0,1.91,2.13c.86-.1,1.64-1,2.45-1.52v-1c-.8-.54-1.63-1.54-2.41-1.51A2.94,2.94,0,0,0,586.83,271.24Zm-401.22,0a2.93,2.93,0,0,0-2-1.84c-.78,0-1.59,1-2.39,1.55l0,1c.82.52,1.61,1.4,2.47,1.48A1.7,1.7,0,0,0,185.61,271.21ZM183.05,259c-.49.84-1.42,1.73-1.35,2.52a2.86,2.86,0,0,0,1.93,1.88,1.69,1.69,0,0,0,2-2.05c-.17-.87-1.07-1.6-1.65-2.39Zm408.13-8.15c-.84-.5-1.72-1.45-2.49-1.37a2.92,2.92,0,0,0-1.86,2,1.69,1.69,0,0,0,2,2c.85-.14,1.58-1.08,2.36-1.66Zm-405.57.52a2.9,2.9,0,0,0-1.94-1.89c-.78-.05-1.61.94-2.43,1.48v1c.81.55,1.58,1.45,2.44,1.55A1.69,1.69,0,0,0,185.61,251.39ZM588,458.85c.78,0,1.59-1,2.38-1.55l0-1c-.83-.52-1.62-1.39-2.48-1.47A1.7,1.7,0,0,0,586,457,2.9,2.9,0,0,0,588,458.85Zm-407.57,8.53c.83.51,1.69,1.48,2.47,1.41a2.88,2.88,0,0,0,1.88-1.94,1.68,1.68,0,0,0-2-2.05c-.86.13-1.6,1.05-2.39,1.62C180.45,466.74,180.45,467.06,180.46,467.38ZM586,466.8a2.89,2.89,0,0,0,1.84,2c.77.09,1.66-.85,2.5-1.35,0-.32,0-.64,0-1-.78-.59-1.5-1.53-2.36-1.68A1.68,1.68,0,0,0,586,466.8Zm2.66-223.25c.87-.08,1.66-1,2.48-1.47l0-1c-.8-.56-1.61-1.58-2.38-1.55a2.89,2.89,0,0,0-2,1.84A1.68,1.68,0,0,0,588.7,243.55Zm-406,235.22a1.67,1.67,0,0,0,2.09-1.93c-.14-.89-1-1.66-1.53-2.49h-.92c-.54.82-1.51,1.66-1.48,2.45A2.89,2.89,0,0,0,182.74,478.77ZM586,476.82a2.88,2.88,0,0,0,1.92,1.91c.77.06,1.62-.93,2.44-1.46,0-.32,0-.64,0-1-.81-.55-1.56-1.46-2.43-1.57A1.68,1.68,0,0,0,586,476.82ZM183.6,243.54a1.69,1.69,0,0,0,2-2c-.15-.87-1-1.62-1.6-2.42l-.92,0c-.51.83-1.46,1.7-1.4,2.49A2.85,2.85,0,0,0,183.6,243.54Zm-.39,240.74-.92,0c-.5.84-1.44,1.71-1.38,2.5a2.8,2.8,0,0,0,1.9,1.91,1.67,1.67,0,0,0,2-2C184.66,485.83,183.78,485.08,183.21,484.28Zm-.32,10.34c-.86.1-1.63,1-2.44,1.54v1c.81.54,1.64,1.54,2.42,1.49a2.9,2.9,0,0,0,1.94-1.89A1.68,1.68,0,0,0,182.89,494.62Zm405,9.94a1.69,1.69,0,0,0-1.87,2.15,2.93,2.93,0,0,0,2,1.84c.78,0,1.59-1,2.38-1.55l0-1C589.57,505.51,588.78,504.64,587.91,504.56ZM180.46,517.08c.83.51,1.69,1.48,2.47,1.41a2.89,2.89,0,0,0,1.88-2,1.69,1.69,0,0,0-2-2c-.86.13-1.6,1.06-2.39,1.62C180.45,516.44,180.45,516.76,180.46,517.08Zm2.5,7.35c-.87.08-1.67,1-2.49,1.46l0,1c.79.57,1.59,1.59,2.37,1.57a2.91,2.91,0,0,0,2-1.83A1.69,1.69,0,0,0,183,524.43ZM586,526.55a2.9,2.9,0,0,0,2,1.88c.78,0,1.61-1,2.41-1.5v-1c-.82-.54-1.59-1.43-2.45-1.53A1.69,1.69,0,0,0,586,526.55ZM232.14,702.8c-1.23-.19-1.95.8-1.91,2s.89,2.23,2.18,2c.84-.17,1.54-1,2.3-1.6l0-.9C233.84,703.76,233.05,702.94,232.14,702.8Zm358.24-167c-.83-.51-1.64-1.38-2.5-1.44a1.7,1.7,0,0,0-1.84,2.19,2.93,2.93,0,0,0,2,1.81c.78,0,1.57-1,2.36-1.59C590.4,536.46,590.39,536.13,590.38,535.81ZM183,548.31a2.93,2.93,0,0,0,1.84-2,1.69,1.69,0,0,0-2-2c-.85.14-1.57,1.08-2.36,1.67,0,.32,0,.64,0,1C181.31,547.44,182.19,548.39,183,548.31Zm407.42-2.52c-.82-.52-1.61-1.4-2.48-1.48a1.7,1.7,0,0,0-1.87,2.16,2.93,2.93,0,0,0,2,1.84c.78,0,1.59-1,2.38-1.55Zm-407.54,8.46c-.86.12-1.61,1-2.41,1.6,0,.32,0,.64,0,1,.82.52,1.68,1.49,2.45,1.43a2.89,2.89,0,0,0,1.9-1.93A1.69,1.69,0,0,0,182.85,554.25Zm405.14,4c.78,0,1.61-1,2.41-1.5v-1c-.82-.53-1.59-1.43-2.45-1.52a1.69,1.69,0,0,0-1.91,2.12A2.9,2.9,0,0,0,588,558.24Zm-403.16,8c-.15-.89-1-1.66-1.55-2.48h-.92c-.53.82-1.5,1.67-1.46,2.46a2.83,2.83,0,0,0,1.86,2A1.67,1.67,0,0,0,184.83,566.28Zm-4.38,10.38c.82.53,1.66,1.51,2.44,1.46a2.88,2.88,0,0,0,1.92-1.91,1.68,1.68,0,0,0-1.94-2.08c-.86.11-1.62,1-2.42,1.57ZM588,584.07a1.69,1.69,0,0,0-1.91,2.12,2.93,2.93,0,0,0,2,1.87c.78,0,1.61-1,2.42-1.5v-1C589.58,585.05,588.81,584.16,588,584.07ZM182.85,594c-.86.13-1.61,1-2.41,1.6l0,1c.82.52,1.68,1.49,2.45,1.43a2.89,2.89,0,0,0,1.9-1.93A1.68,1.68,0,0,0,182.85,594Zm-2.39,12.53c.83.51,1.69,1.48,2.47,1.41a2.89,2.89,0,0,0,1.88-2,1.69,1.69,0,0,0-2-2c-.86.13-1.6,1-2.39,1.62ZM586,606.07a2.92,2.92,0,0,0,2,1.87c.77,0,1.6-1,2.4-1.51,0-.32,0-.64,0-1-.81-.53-1.59-1.42-2.45-1.52A1.69,1.69,0,0,0,586,606.07Zm0,9.83a2.92,2.92,0,0,0,1.85,2c.77.08,1.66-.87,2.49-1.37l0-1c-.79-.58-1.51-1.52-2.37-1.66A1.69,1.69,0,0,0,586,615.9Zm2.68-392.23c.86-.08,1.65-1,2.47-1.49,0-.33,0-.65,0-1-.79-.55-1.61-1.56-2.39-1.53a2.9,2.9,0,0,0-2,1.85A1.68,1.68,0,0,0,588.72,223.67Zm-405.06,0a1.69,1.69,0,0,0,2-2.08,2.92,2.92,0,0,0-1.92-1.92c-.77-.05-1.62.92-2.44,1.45v1C182,222.65,182.8,223.56,183.66,223.68Zm405.06-10c.86-.08,1.65-1,2.47-1.49,0-.32,0-.65,0-1-.8-.55-1.61-1.55-2.39-1.52a2.84,2.84,0,0,0-2,1.85A1.68,1.68,0,0,0,588.72,213.73ZM184.83,625.94c-.14-.89-1-1.67-1.52-2.5l-.92,0c-.54.82-1.52,1.65-1.49,2.44a2.87,2.87,0,0,0,1.83,2A1.67,1.67,0,0,0,184.83,625.94ZM588,627.82c.78,0,1.59-1,2.39-1.54,0-.32,0-.65,0-1-.82-.52-1.61-1.41-2.47-1.49A1.7,1.7,0,0,0,586,626,2.93,2.93,0,0,0,588,627.82Zm.68-434c.87-.08,1.66-1,2.48-1.48l0-1c-.8-.56-1.61-1.57-2.39-1.55a2.88,2.88,0,0,0-2,1.84A1.69,1.69,0,0,0,588.7,193.86ZM185.61,191.7a2.93,2.93,0,0,0-2-1.84c-.78,0-1.59,1-2.39,1.55l0,1c.82.52,1.61,1.4,2.47,1.48A1.7,1.7,0,0,0,185.61,191.7Zm-2.88,446.09a1.67,1.67,0,0,0,2.1-1.92c-.14-.88-1-1.66-1.52-2.49l-.92,0c-.54.81-1.51,1.65-1.48,2.44A2.83,2.83,0,0,0,182.73,637.79Zm405.15-4A1.7,1.7,0,0,0,586,636a2.91,2.91,0,0,0,2,1.81c.78,0,1.57-1,2.36-1.59,0-.33,0-.65,0-1C589.55,634.69,588.74,633.82,587.88,633.76Zm-405.09,14a1.66,1.66,0,0,0,2-2c-.16-.89-1-1.64-1.58-2.46h-.92c-.52.83-1.47,1.69-1.42,2.49A2.82,2.82,0,0,0,182.79,647.73Zm.16,9.9a2.88,2.88,0,0,0,1.86-2,1.68,1.68,0,0,0-2-2c-.86.14-1.59,1.07-2.37,1.64l0,1C181.3,656.75,182.17,657.71,183,657.63Zm2.66-475.76c-.18-.79-1.18-1.89-1.89-1.94s-1.64.9-2.47,1.42l0,1c.8.56,1.54,1.48,2.4,1.61A1.69,1.69,0,0,0,185.61,181.87ZM588.8,170a2.84,2.84,0,0,0-2,1.86,1.68,1.68,0,0,0,1.89,2.13c.86-.09,1.64-1,2.46-1.51,0-.32,0-.64,0-1C590.4,171,589.58,170,588.8,170Zm-403.19,1.83a2.9,2.9,0,0,0-2-1.83c-.78,0-1.59,1-2.39,1.54l0,1c.82.52,1.61,1.4,2.47,1.48A1.7,1.7,0,0,0,185.61,171.82ZM586,665.66a2.91,2.91,0,0,0,1.92,1.91c.78,0,1.62-.93,2.44-1.46,0-.32,0-.64,0-1-.81-.55-1.57-1.46-2.43-1.57A1.68,1.68,0,0,0,586,665.66ZM589,160a1.77,1.77,0,0,0-2.26,1.81,1.84,1.84,0,0,0,1.91,2.22c.83,0,1.63-.82,2.44-1.27l.11-.9C590.51,161.24,589.87,160.24,589,160Zm-407.78,2.5c.81.53,1.59,1.42,2.45,1.52a1.69,1.69,0,0,0,1.91-2.12,2.9,2.9,0,0,0-2-1.87c-.78,0-1.61,1-2.41,1.5C181.24,161.87,181.25,162.2,181.25,162.52Zm407.46-18.36c.86-.08,1.65-1,2.47-1.48l0-1c-.8-.56-1.61-1.56-2.39-1.54a2.9,2.9,0,0,0-2,1.84A1.68,1.68,0,0,0,588.71,144.16Zm2.48,146.51c-.83-.51-1.69-1.48-2.47-1.41s-1.71,1.15-1.89,1.94a1.69,1.69,0,0,0,2,2.05c.86-.13,1.6-1.05,2.4-1.61ZM185.6,142a2.89,2.89,0,0,0-2-1.83c-.77,0-1.58,1-2.37,1.56l0,1c.83.52,1.62,1.39,2.49,1.46A1.68,1.68,0,0,0,185.6,142Zm403.12-11.77a2.93,2.93,0,0,0-1.89,2,1.69,1.69,0,0,0,2,2c.86-.14,1.6-1,2.4-1.62,0-.32,0-.64,0-1C590.36,131.13,589.49,130.17,588.72,130.23ZM222.89,702.42l-.9,0c-.57.74-1.48,1.41-1.65,2.24-.26,1.26.59,2.13,1.94,2.21a1.79,1.79,0,0,0,2.09-2.05C224.28,704,223.41,703.2,222.89,702.42Zm38.67,0c-.52.83-1.38,1.62-1.46,2.48a1.68,1.68,0,0,0,2.14,1.87,2.88,2.88,0,0,0,1.83-2c0-.79-1-1.59-1.56-2.39Zm8.49,2.24a1.67,1.67,0,0,0,1.88,2.12c.88-.11,1.67-.95,2.5-1.47l0-.9c-.8-.56-1.61-1.56-2.41-1.55A2.85,2.85,0,0,0,270.05,704.65Zm21.44-2.26c-.55.8-1.45,1.55-1.58,2.41a1.68,1.68,0,0,0,2,2,2.88,2.88,0,0,0,1.92-1.89c.06-.78-.91-1.64-1.44-2.46Zm10.88,0-.89,0c-.57.74-1.47,1.42-1.63,2.25-.25,1.26.61,2.13,2,2.19a1.79,1.79,0,0,0,2.07-2.07C303.78,703.93,302.9,703.19,302.37,702.41Zm8.85,0c-.5.79-1.34,1.54-1.44,2.37a1.69,1.69,0,0,0,2.1,2,2.9,2.9,0,0,0,1.89-2c0-.79-1-1.6-1.6-2.4Zm137.38,0c-.53.78-1.41,1.52-1.51,2.35a1.68,1.68,0,0,0,2.06,2,3,3,0,0,0,1.92-2c0-.78-1-1.61-1.54-2.42Zm10.88,0-1,0c-.53.82-1.5,1.68-1.44,2.46a2.88,2.88,0,0,0,1.92,1.89,1.68,1.68,0,0,0,2.05-2C460.93,703.94,460,703.19,459.48,702.39ZM232.59,45.7h.95c.55-.82,1.55-1.67,1.5-2.45a2.9,2.9,0,0,0-1.94-1.91,1.69,1.69,0,0,0-2,2C231.2,44.22,232.06,44.94,232.59,45.7Zm9.83,0,1,0c.58-.78,1.61-1.56,1.62-2.35a2.91,2.91,0,0,0-1.8-2A1.69,1.69,0,0,0,241,43.17C241.08,44,241.92,44.85,242.42,45.68Zm49.9,0,.89,0c.54-.78,1.42-1.51,1.53-2.34a1.8,1.8,0,0,0-2.06-2.08c-1.35,0-2.22.91-2,2.18C290.87,44.29,291.75,45,292.32,45.72Zm22.28-2.33a2.85,2.85,0,0,0-1.86-2c-.8-.08-1.69.88-2.53,1.39,0,.31,0,.61,0,.91.76.56,1.45,1.42,2.29,1.61A1.69,1.69,0,0,0,314.6,43.39Zm7.57,2.33.89,0c.53-.79,1.4-1.53,1.49-2.36a1.79,1.79,0,0,0-2.09-2c-1.34.07-2.2.94-1.93,2.21C320.7,44.31,321.6,45,322.17,45.72ZM586,566.21a2.92,2.92,0,0,0,1.86,2c.77.07,1.65-.88,2.48-1.39,0-.32,0-.64,0-1-.79-.57-1.52-1.5-2.38-1.64A1.68,1.68,0,0,0,586,566.21ZM185.62,231.69c-.11-.88-1-1.67-1.48-2.5l-.92,0c-.55.8-1.54,1.62-1.52,2.41a2.85,2.85,0,0,0,1.8,2A1.69,1.69,0,0,0,185.62,231.69Zm402.3,286.8c.77.07,1.64-.89,2.47-1.41l0-1c-.79-.56-1.53-1.49-2.39-1.62a1.69,1.69,0,0,0-2,2A2.92,2.92,0,0,0,587.92,518.49Zm.88-259a2.87,2.87,0,0,0-2,1.85,1.69,1.69,0,0,0,1.89,2.14c.86-.09,1.64-1,2.46-1.51,0-.32,0-.64,0-1C590.4,260.41,589.58,259.41,588.8,259.44ZM183.07,278.89c-.5.84-1.43,1.72-1.36,2.5a2.85,2.85,0,0,0,1.91,1.91,1.69,1.69,0,0,0,2-2c-.16-.88-1.06-1.61-1.62-2.41ZM588.69,154.1c.87-.07,1.66-.94,2.49-1.46l0-1c-.79-.56-1.59-1.58-2.37-1.56a2.9,2.9,0,0,0-2,1.82A1.69,1.69,0,0,0,588.69,154.1ZM185.61,152a2.92,2.92,0,0,0-2-1.88c-.78,0-1.61.95-2.42,1.49,0,.32,0,.64,0,1,.81.55,1.58,1.44,2.44,1.54A1.69,1.69,0,0,0,185.61,152Zm-2.69,352.57c-.86.08-1.64,1-2.46,1.5,0,.32,0,.65,0,1,.8.55,1.62,1.55,2.4,1.52a2.92,2.92,0,0,0,2-1.86A1.68,1.68,0,0,0,182.92,504.56ZM586,496.67a2.89,2.89,0,0,0,1.89,1.94c.77.06,1.63-.9,2.46-1.42,0-.32,0-.64,0-1-.79-.57-1.53-1.48-2.39-1.61A1.68,1.68,0,0,0,586,496.67ZM588,594a1.7,1.7,0,0,0-2,2.06,2.89,2.89,0,0,0,1.89,1.94c.77.06,1.63-.9,2.46-1.41,0-.33,0-.65,0-1C589.62,595.05,588.88,594.13,588,594Zm.8-314.69a2.9,2.9,0,0,0-2,1.84,1.69,1.69,0,0,0,1.87,2.16c.86-.08,1.65-1,2.48-1.49l0-1C590.41,280.3,589.6,279.29,588.82,279.31ZM185.61,291.2a2.91,2.91,0,0,0-1.89-1.94c-.77-.07-1.64.89-2.46,1.4l0,1c.8.57,1.54,1.49,2.4,1.62A1.69,1.69,0,0,0,185.61,291.2ZM519.13,45.72l1,0c.49-.83,1.44-1.72,1.35-2.49a2.93,2.93,0,0,0-2-1.84,1.66,1.66,0,0,0-2,2C517.6,44.22,518.54,44.94,519.13,45.72Zm72.06,76c-.83-.52-1.69-1.48-2.47-1.42a2.91,2.91,0,0,0-1.89,1.94,1.7,1.7,0,0,0,2,2.06c.86-.13,1.6-1.05,2.4-1.62ZM586,576.23a2.92,2.92,0,0,0,1.94,1.89c.77,0,1.61-.94,2.42-1.48v-1c-.81-.54-1.57-1.44-2.43-1.54A1.69,1.69,0,0,0,586,576.23Zm-402.4-446c-.77,0-1.6.95-2.4,1.5,0,.32,0,.65,0,1,.82.53,1.59,1.42,2.46,1.52a1.69,1.69,0,0,0,1.9-2.13A2.9,2.9,0,0,0,183.64,130.24Zm0-6a1.69,1.69,0,0,0,2-2.05,2.92,2.92,0,0,0-1.88-1.95c-.78-.06-1.65.9-2.47,1.41l0,1C182,123.23,182.76,124.16,183.62,124.29Zm403.22-22a1.69,1.69,0,0,0,1.86,2.16c.87-.08,1.66-1,2.48-1.48l0-1c-.8-.57-1.61-1.58-2.38-1.55A2.88,2.88,0,0,0,586.84,102.25ZM549.71,45.72c.56-.75,1.45-1.45,1.6-2.27a1.69,1.69,0,0,0-2-2.1,2.91,2.91,0,0,0-2,1.85c-.06.79.92,1.66,1.44,2.5Zm-19.79,0c.53-.77,1.39-1.49,1.51-2.32a1.69,1.69,0,0,0-2-2,2.89,2.89,0,0,0-1.94,1.92c0,.78,1,1.62,1.52,2.44Zm56.91,185.83a1.68,1.68,0,0,0,1.95,2.08c.86-.11,1.62-1,2.42-1.58v-1c-.82-.53-1.67-1.5-2.45-1.45A2.91,2.91,0,0,0,586.83,231.53ZM182.94,534.37c-.86.08-1.65,1-2.48,1.49,0,.32,0,.64,0,1,.8.56,1.61,1.57,2.38,1.55a2.93,2.93,0,0,0,2-1.84A1.69,1.69,0,0,0,182.94,534.37Zm58.78,168c-.53.81-1.4,1.59-1.5,2.45a1.68,1.68,0,0,0,2.11,1.9,2.92,2.92,0,0,0,1.87-2c0-.79-1-1.61-1.53-2.41Zm9.89,0c-.51.82-1.37,1.61-1.45,2.48a1.68,1.68,0,0,0,2.15,1.86,2.9,2.9,0,0,0,1.82-2c0-.78-1-1.58-1.56-2.38ZM588,484.68A1.69,1.69,0,0,0,586,486.8a2.93,2.93,0,0,0,2,1.88c.77,0,1.6-1,2.41-1.51v-1C589.58,485.66,588.81,484.77,588,484.68ZM184.83,456.91c-.16-.88-1-1.63-1.59-2.45h-.91c-.52.83-1.47,1.7-1.42,2.5a2.8,2.8,0,0,0,1.88,1.92A1.67,1.67,0,0,0,184.83,456.91Zm96.75,245.48c-.57.79-1.47,1.53-1.61,2.39a1.68,1.68,0,0,0,2,2,2.91,2.91,0,0,0,1.94-1.87c.06-.78-.9-1.64-1.42-2.47ZM181.24,212.16c.8.55,1.56,1.46,2.42,1.58a1.69,1.69,0,0,0,2-2.08,2.91,2.91,0,0,0-1.92-1.91c-.78-.06-1.63.92-2.44,1.44C181.24,211.52,181.24,211.84,181.24,212.16ZM588,647.7c.78,0,1.62-.94,2.43-1.48v-1c-.8-.55-1.56-1.45-2.43-1.56a1.69,1.69,0,0,0-1.93,2.1A2.92,2.92,0,0,0,588,647.7ZM321.59,702.8c-1.22-.18-2,.8-1.92,2s.9,2.22,2.19,1.95c.84-.17,1.54-1,2.29-1.6,0-.3,0-.6,0-.9A8.41,8.41,0,0,0,321.59,702.8ZM588.74,179.93a2.89,2.89,0,0,0-1.91,1.92,1.7,1.7,0,0,0,2,2.07c.86-.12,1.61-1,2.41-1.6,0-.32,0-.64,0-1C590.37,180.84,589.51,179.87,588.74,179.93Zm0,23.87c.87-.08,1.66-1,2.48-1.47l0-1c-.79-.57-1.6-1.58-2.38-1.56a2.88,2.88,0,0,0-2,1.83A1.69,1.69,0,0,0,588.7,203.8ZM469,702.8a1.68,1.68,0,0,0-2,2,2.83,2.83,0,0,0,2,1.88c.8,0,1.63-1,2.45-1.53l0-.91C470.59,703.75,469.86,702.93,469,702.8Zm10.53-.37-1,0c-.58.79-1.62,1.57-1.63,2.35a2.89,2.89,0,0,0,1.8,2,1.69,1.69,0,0,0,2.19-1.81C480.88,704.07,480,703.26,479.54,702.43ZM586,655.67a2.92,2.92,0,0,0,1.87,2c.77.07,1.64-.88,2.47-1.39l0-1c-.78-.58-1.52-1.51-2.37-1.64A1.68,1.68,0,0,0,586,655.67Zm-405.59-69c.82.53,1.68,1.5,2.46,1.44a2.91,2.91,0,0,0,1.9-1.93,1.68,1.68,0,0,0-2-2.06c-.86.12-1.61,1-2.41,1.59C180.44,586,180.45,586.3,180.45,586.62ZM183,613.88c-.87.07-1.67,1-2.49,1.46l0,1c.79.57,1.59,1.59,2.37,1.57a2.91,2.91,0,0,0,2-1.83A1.69,1.69,0,0,0,183,613.88Zm336.28,88.54-1,0c-.56.8-1.58,1.6-1.56,2.38a2.9,2.9,0,0,0,1.82,2,1.68,1.68,0,0,0,2.15-1.86C520.62,704,519.76,703.24,519.24,702.42ZM185.62,201.86c-.12-.88-1-1.66-1.5-2.49h-.92c-.54.81-1.53,1.63-1.5,2.42a2.88,2.88,0,0,0,1.82,2A1.69,1.69,0,0,0,185.62,201.86ZM549,702.41l-.95,0c-.56.82-1.57,1.65-1.53,2.44s1.13,1.75,1.93,1.93a1.69,1.69,0,0,0,2-2C550.4,703.91,549.54,703.18,549,702.41ZM469.14,45.66l.94.08c.6-.78,1.66-1.56,1.66-2.34a3,3,0,0,0-1.81-2,1.68,1.68,0,0,0-2.16,1.89C467.83,44.08,468.66,44.86,469.14,45.66ZM184.81,665.74a1.69,1.69,0,0,0-1.87-2.16c-.86.08-1.65.95-2.48,1.47,0,.33,0,.65,0,1,.79.56,1.6,1.57,2.38,1.55A2.9,2.9,0,0,0,184.81,665.74ZM442.37,318.87l11.09-5.67c-.16,5.82,4.75,8.54,6.72,13.41,2.95-4.51,7.12-7.67,7.47-13.36l11,5.71c-.67-4.25-1.29-8.23-2-12.51,5.22,1.9,9.47-1.36,14.49-1.5-3-4.48-4.4-9.77-10.07-12l8.49-8.15c-4.31-1.35-8.38-1.31-12.35-2.44,3.34-4.54,1.1-9.62,2.22-14.69-4.74,2-9.88,1.91-13.42,6.12-1.42-2.92-2.66-5.55-4-8.12a10.59,10.59,0,0,0-1.72-1.91L455,274.5c-3.43-4.93-9-4.76-13.72-6.74,0,2.8-.18,5.23.06,7.63a70.4,70.4,0,0,0,1.4,7.18l-10.6,1.72-.19.54,8.64,7.87-.39.71C434.66,294.6,433,300,429,303.13a62,62,0,0,0,7.44,3.26,57.8,57.8,0,0,0,7.87,1.26C443.74,311,443.08,314.76,442.37,318.87Zm18.25,3.46c-3.56-3-6.58-7.36-4.83-10.34l4.19-2.21c-.16,3.23-2.22,6.29.36,9.5,3.39-2.76.88-6.11,1.54-9.12l3.84,2C466.14,316.84,463.46,319.61,460.62,322.33Zm27.2-18.73c-3,.57-5.79,1.3-8.6,1.55a2.8,2.8,0,0,1-3.32-3,21.67,21.67,0,0,0-.45-2.93c2.57,1.19,5,2.32,7.39,3.36.31.14.83-.23,1.33-.39.41-2.32-1.28-2.67-2.75-3.16s-2.85-.88-4.57-1.4l3.16-3.05C484.48,295.6,485.91,299.4,487.82,303.6ZM477,270.76c.12,2.32.54,4.52.26,6.62-.68,5-2.17,5.46-7.31,3.77,1.07-.93,2.11-1.72,3-2.65a9.34,9.34,0,0,0,1.86-2.53c.26-.59-.06-1.43-.12-2.16-.77.16-1.81.07-2.26.54a21.55,21.55,0,0,0-2.33,3.43c-.34.54-.62,1.12-1.13,2.06-.81-1.67-1.4-2.92-2-4.25C469.27,272,473.05,271.54,477,270.76Zm-33.54.12c3.52.35,6.74,1,9.28,3.5,1.56,1.53,1.36,2.72-.86,5.85-1.12-1.83-2.14-3.64-3.31-5.36s-2-1.69-3.33-.29c.43,3.15,3.3,4.49,5.37,6.66-4.94,1.85-7.25.42-7.43-4.46C443.11,274.89,443.35,273,443.46,270.88ZM437,286.06l16.17-2.23,7.56-15,7.39,15,16,2.33L472.62,298l2.72,16.45-14.74-7.75-14.85,7.66c1-5.84,1.94-11.09,2.89-16.5Zm3.58,19.58a13.65,13.65,0,0,1-7.6-3.41c2.49-3.09,4.07-7.29,9.09-7.08l4,4c-1.43,0-2.37-.07-3.29,0a32.88,32.88,0,0,0-5.05.74c-.52.14-.82,1.13-1.22,1.73.63.37,1.32,1.11,1.89,1a32.69,32.69,0,0,0,4.58-1.24c.72-.21,1.43-.49,2.21-.76C445.39,304.77,444.23,306,440.57,305.64ZM329.88,282.46c3.48-4.62,1.12-9.72,2.29-14.77-4.94,2.05-10.45,1.92-13.88,6.79l-5.47-10.82c-2.85,3.1-3.6,6.89-5.75,10-3.47-4.13-8.62-4.05-13.37-6,1.2,5.19-1.11,10.33,2.24,14.67-4,1.3-8.1.91-11.72,2.48l-.22.75,8.07,7.43c-5.7,2.33-7,7.58-10.05,12,5.11.14,9.36,3.43,14.52,1.47-.67,4.32-1.29,8.28-2,12.51l11-5.69c.43,5.72,4.52,8.93,7.46,13.21,2.15-4.71,6.86-7.6,6.84-13.23l11,5.63c-.72-4.16-1.38-7.94-2.08-12,6.1,1.8,10.39-1.86,15.56-3.75-4.25-3.16-5.78-8.65-11.39-9.71l-.4-.93,8.56-8.21Zm-7-9.75a53.29,53.29,0,0,1,6.83-2.21c.13,2.48.37,4.39.31,6.28-.18,4.87-2.46,6.29-7.47,4.45a35.31,35.31,0,0,0,3.21-2.89,32.08,32.08,0,0,0,2.38-3.31c-1.23-1.77-2.2-1.88-3.27-.48-.91,1.2-1.62,2.56-2.42,3.85-.36.59-.69,1.2-1.09,1.88C318.62,276.44,319,274.59,322.92,272.71Zm-26.7-1.88c3.94.58,7.57,1.19,10.1,4.69-.63,1.32-1.27,2.65-2,4.09-2-2.09-2.25-5.89-5.92-5.7-.3,3.81,2.86,5.06,4.75,7.24-5.06,1.76-6.54,1.12-7.2-3.75C295.69,275.3,296.12,273.1,296.22,270.83ZM291.13,305a42.9,42.9,0,0,1-5.55-1.65c1.69-3.93,3.17-7.66,7.89-8.89.91,1,1.77,2,2.68,3-2.26,1.74-6.23.6-7.5,4.68,4,1.27,6.11-1.85,8.82-3.17C297.74,304.55,296.54,305.85,291.13,305Zm21.92,17.31c-3.56-1.86-6.14-6.7-5.31-10.17l3.6-2c.69,3-1.77,6.33,1.5,9.19,2.6-3.21.66-6.25.38-9.55l4.46,2.3C319,316.82,315.3,319.24,313.05,322.3Zm27.32-20c-2.87,2.15-5.8,3.65-9.36,3.33-2.46-.21-2.94-1-3-4.72,3-.07,5.63,3.15,9.22.87-2.49-4-6.49-1.87-10.05-3l4.25-3.1-.34-.48C336.15,294.83,337.7,299.12,340.37,302.28Zm-15.75-4.37c.91,5.21,1.84,10.56,2.86,16.39l-14.82-7.65-14.75,7.74c.95-5.76,1.81-11,2.68-16.28l-11.73-11.86,8.1-1.19,8.15-1.18,3.6-7.3,3.8-7.79,3.78,7.52c1.21,2.42,2.43,4.84,3.76,7.51l16.17,2.24ZM374.43,119q10.41.34,20.81.66a2.49,2.49,0,0,0,1.54-.27c.73-.63,1.89-1.54,1.79-2.18a3.76,3.76,0,0,0-2-2.22c-.81-.41-1.92-.19-3.05-.26V87.5c1.16,0,2.15,0,3.14,0,1.45,0,2.76-.3,2.9-2s-1.22-2.46-2.7-2.47C389.56,83,382.28,83,375,83c-.63,0-1.25.89-1.88,1.37.53.65.93,1.58,1.61,1.87a16,16,0,0,0,3.48.71c-.28,9.41-.57,18.77-.86,28.3a10.57,10.57,0,0,0-2.88.35c-.86.34-2.06,1-2.2,1.73C372,118.75,373.32,118.94,374.43,119Zm7.25-31.69h7.5v27.5l-7.5.35Z"/></svg>