<svg xmlns="http://www.w3.org/2000/svg" viewBox="0 0 750 750"><path d="M606.15,48.23a27.93,27.93,0,0,0-.44-5.33A21.88,21.88,0,0,0,583.78,25H187.26c-13.13,0-22.68,9.55-22.68,22.69V374.84q0,163.79,0,327.56a22.29,22.29,0,0,0,.15,3.17C166.51,717.44,175.46,725,187.8,725q197.58,0,395.14,0a27.15,27.15,0,0,0,5.33-.45c10.93-2.22,17.9-11.09,17.9-22.77Q606.17,375,606.15,48.23Zm-4.26,653.4c0,11.55-7.47,19.09-18.94,19.09H187.59c-9.35,0-16.5-5.46-18.37-14.11a22.74,22.74,0,0,1-.35-4.74q0-163.5,0-327V47.51c0-8.93,5.46-15.94,13.95-17.85a18.5,18.5,0,0,1,4.14-.37h397a17.67,17.67,0,0,1,18,17.8c0,1.52,0,3.05,0,4.57ZM479.36,476.53a9,9,0,0,0-2.52-.11c-1.71.41-3.37,1.05-5.08,1.6-6.48-7.46-13.92-4.69-21.43-2.31,1.82-3,3.78-5.7,5.67-8.48,3.9-5.74,8-11.37,11.54-17.32,1.51-2.52,1.91-5.71,2.73-8.62a7.89,7.89,0,0,0-.35-2.35l-5.07,6.13c-5.81-1.37-8.66,3-12.46,6.28.11-1.55.13-2.73.29-3.89.33-2.48.8-5,1.09-7.45a2.12,2.12,0,0,0-1.95-2.64c-.74,1.48-1.5,3-2.27,4.59l-.36-.47c-2.06,1.47-4.37,2.7-6.13,4.47-2.53,2.55-3.51,6-4.28,9.46a35.8,35.8,0,0,1-1.37,5.58,22.74,22.74,0,0,1-2.64,4,97.8,97.8,0,0,1,.17-10.21c.16-2.43.52-4.86.64-7.3a30.68,30.68,0,0,0-.17-5.91c-.11-.72-1.2-1.3-1.84-1.95a8.09,8.09,0,0,0-1.56,2,33.84,33.84,0,0,0-.94,4.11c-5,3.15-7.18,7.88-7.83,13.59a9.75,9.75,0,0,1-1.75,4.37c-1.95,2.65-4.19,5.1-6.25,7.56-7.1.84-13.38-2.59-20.21-2.83a17.72,17.72,0,0,1,4.28-2.11c3.36-1.21,6.93-2,10-3.63a41.42,41.42,0,0,0,13.45-11,25,25,0,0,0,4.65-8.52c-2.87-1-4.63,1.64-6.93,1.47-1.91-.43-3.88-1.07-5.78-.9a21.3,21.3,0,0,0-10.41,4.13,9.82,9.82,0,0,1-2.24,1.24,92.46,92.46,0,0,1-9,3,129.74,129.74,0,0,1-15.51,3.2c-5.49.66-10.4,2.2-14.79,5.64a56.33,56.33,0,0,1-9,5.81,13.46,13.46,0,0,1-6.44,1.43c-7.22-.36-13.67-3.37-20-6.28-1.83-5.56-7.51-9.31-15-7.31-2.45-1.22-4.95-2.59-7.57-3.68a3.66,3.66,0,0,0-3.05.07c-10.6,8.52-16.72,19.24-15.95,33.27a2.61,2.61,0,0,0,2.38,2.82c3.36.74,6.67,1.65,10,2.48,1.84,5.43,7,8.13,14.46,3.69l9.6,3.13c5.16,1.67,10.41,3.1,15.45,5.08a45.35,45.35,0,0,0,14.43,3.3c7.21.36,14.41.84,21.62,1.12,5.14.21,10.4.86,15.43.1,7.82-1.19,15.51-3.32,23.21-5.22s15.19-4.15,22.86-5.92c6.52-1.5,13-2.9,19.26-5.41,5.77-2.32,11.78-4,17.57-6.29a28.93,28.93,0,0,0,6.5-4.11C479.14,478.66,479.11,477.41,479.36,476.53Zm-32.61-1.15a2.32,2.32,0,0,1-1.41.95c-2.52.33-5.07.54-7.79.81l8.75-12.36,4.88,3.56C449.77,470.61,448.3,473,446.75,475.38ZM463,447.12c2.29.6,2.9,1.62,1.88,3.41a28.64,28.64,0,0,1-2.78,3.58l-7.45,9.21-1,1.14a5.36,5.36,0,0,1-5.29-3.58C453.06,456.12,456.82,450.3,463,447.12ZM433.73,469.8c4.46-3.29,6.71-7.75,8-13a38.37,38.37,0,0,1,4-9c.6-1.08,2.1-1.66,3.22-2.5,2.07,2.42,1.16,4.47.71,6.27a17.81,17.81,0,0,1-2.59,5.95c-4.45,6.16-9.14,12.15-13.74,18.2l-1.22,1.59-7-.35a7.2,7.2,0,0,1,.79-1C428.53,473.89,431.07,471.76,433.73,469.8Zm-11.6-22.22c-2.09,3.66-4.68,6.82-8.6,8.74C412.06,453.43,417,448.17,422.13,447.58Zm-7.87-.31.37.52c-3.51,2.77-6.72,5.66-4.67,10.85-.08.13-.11.2-.16.23-5.07,3.68-7.05,2.89-8.09-3.28-.16-1-.14-2-.22-3.15ZM398.07,453c.26,3.6.38,7,3.28,9.62l-3.7,1.57c-2.6-2.68-3.42-5.92-3.71-9.45ZM297.92,486.15l-9-2.21c-1.24-8.32,7-24.51,14.68-29l4.69,2.5c-2.28,4.69-4.88,9.09-6.59,13.81S299.2,481,297.92,486.15Zm6,5.27-.72.13a13.5,13.5,0,0,1-.76-3.67,50.23,50.23,0,0,1,1.21-9.59c1.13-4.21,2.87-8.26,4.33-12.38a14.84,14.84,0,0,1,5.59-7.05,9.37,9.37,0,0,1,4-1.3C309.34,467.48,305.25,478.88,304,491.42Zm5.39-.3a9.56,9.56,0,0,1-1.07.37,11,11,0,0,1-1.29.15c1.8-12.32,5.41-23.71,13.31-33.82l2.1,2.28C315.45,469.41,310.72,479.4,309.34,491.12Zm9.58.67c-1.33-.38-2.34-.64-3.34-1a11,11,0,0,1-1.18-.52c-1.6-6,4.08-21.17,9.59-25.36l4.44,1.7C322.87,474.24,319.16,482.27,318.92,491.79Zm83.22,2.1c-.09.52-.23,1-.33,1.55-.47,2.52-1.71,4.14-4.46,4.55a36.45,36.45,0,0,0-6,1.56c-4.39,1.45-8.79.41-13.2.28-9.92-.3-19.85-.48-29.77-.73a8,8,0,0,1-2.36-.24c-6.2-2.09-12.37-4.25-18.76-6.45.81-9.13,2.4-17.77,9.58-24.29a69.17,69.17,0,0,0,7.52,1.42,19.79,19.79,0,0,0,5.38-.63c1-.2,1.94-.92,3-1.12a23.75,23.75,0,0,0,10.82-5.58,22.79,22.79,0,0,1,13.2-5.27c4-.33,8-1.68,12-2.58.5-.12,1-.26,1.71-.45.22,3.58.57,7,2.92,9.34-5.31,4.9-10.48,9.66-15.61,14.47-.13.12.17.7.34,1.3.68-.16,1.45-.11,1.86-.47,3.81-3.4,8.26-3,12.72-2.12,2.85.53,5.64,1.39,8.44,2.1C403.21,485,402.92,489.41,402.14,493.89Zm7.17,3-2.11.61c2.23-5.5,2.72-10.68.54-15.9a4.87,4.87,0,0,1,1-.26,6.53,6.53,0,0,1,1.12.11C412.14,486.59,412.51,491.67,409.31,496.87Zm6.21-1.63-2,.49c1.53-4.85,1.92-9.44-.07-14.17h3.15A18.74,18.74,0,0,1,415.52,495.24Zm1-18.31c-9.08.54-18.16,1-26.83-3.83.64-.58,1.17-1.07,1.89-1.71,1.52.25,3.15.44,4.75.81,4.07.92,8.08,2.13,12.18,2.84,3.8.66,7.53.48,10.33-2.94,1.59-2,3.46-3.65,5.12-5.55a14.76,14.76,0,0,0,3.37-8.31,26,26,0,0,1,2.09-6.49c.28-.68,1.18-1.11,2.2-2,.35,1.18.82,1.9.73,2.55-.66,4.91-1.29,9.84-2.24,14.69a6.21,6.21,0,0,1-2.5,3.44c-3.28,2.22-6.75,4.15-10.15,6.18A2.29,2.29,0,0,1,416.55,476.93Zm43.9,7.05c-1.54,1.59-4.36,2.13-6.7,2.72-5.13,1.3-10.31,2.35-15.48,3.49l-17.63,3.87c-.32.07-.64.09-.68.1-.22-4.21-.43-8.37-.64-12.67,3.61,0,7.68-.48,11.58.15a23.68,23.68,0,0,0,9-.49c5.8-1.24,11.5-2.9,17.26-4.34,3.94-1,7.68-.77,11.32,2.28A16.91,16.91,0,0,0,460.45,484ZM405.17,227.09c-14.2-1-28.43-1.61-42.53-3.78a11.92,11.92,0,0,0-8,1.73c-6.17,3.62-12.43,7.1-17.76,12a4.27,4.27,0,0,1-4.2,1.06,10.32,10.32,0,0,0-6.79.64c-1.58.66-3.24,1.16-4.87,1.7-8.35,2.81-16.76,5.45-25,8.48-2.59.95-4.87,2.85-7.16,4.5-.48.35-.39,1.5-.57,2.28a7,7,0,0,0,2.32.23c1.78-.45,3.5-1.12,5.29-1.72,6.47,7.5,13.91,4.69,21.76,2-.63,1-.93,1.59-1.28,2.1-5.12,7.49-10.2,15-15.37,22.43a21.57,21.57,0,0,0-3.58,9.78,10.83,10.83,0,0,0,.11,2l.56.27,4.74-5.62c5.74,1.46,8.6-3.06,12.46-6.28-.12,1.57-.15,2.75-.32,3.92-.33,2.43-.81,4.83-1.09,7.26a2.18,2.18,0,0,0,2,2.77l1.88-3.87c2.36-1.48,4.45-2.42,6.08-3.87,3-2.66,4.15-6.39,5-10.17.35-1.53.64-3.09,1-4.63l.7.26c.56-1.26,1.12-2.52,1.67-3.78l-.4-.21,1.42-1.32c-.17,3.43-.28,6.65-.48,9.87-.16,2.5-.52,5-.63,7.5a34.59,34.59,0,0,0,.18,6.11c.09.68,1.11,1.23,1.71,1.85.56-.63,1.36-1.16,1.63-1.89a32.31,32.31,0,0,0,1-4.2c4.09-2.71,7-6.35,7.31-11.16.46-6.61,5.41-10.22,8.92-14.83a.88.88,0,0,1,.49-.32c2.74-.4,5.49-1.14,8.21-1.07,4.09.1,6.89,3,10.22,5.59C365,267,358.4,268.73,352.87,273c-3.61,2.76-12.08,13.32-12.39,15.88.22.17.54.56.72.51,1.93-.63,3.83-1.32,6-2.08,3.51,2.1,7.34,1.52,10.87-.19a113.59,113.59,0,0,1,14-5.9c6-2,11.88-4,18.2-4.43a25.84,25.84,0,0,0,14.6-5.54,89.5,89.5,0,0,1,9.13-6c3.73-2.22,7.62-1.49,11.41-.46a37.7,37.7,0,0,0,.27,4.9c.64,3.57,2.8,4.68,6.06,3a61.34,61.34,0,0,0,5.69-3.66,1.86,1.86,0,0,1,.51.12c8.16,3.94,16.34,7.85,24.47,11.88,1.55.77,2.65.87,4.13-.22,6.87-5,10.84-12,13.74-19.78a26.17,26.17,0,0,0,1.6-13.46c-.2-1.26-.57-2.07-1.89-2.4-7.89-2-15.76-4.08-23.64-6.12l-5.59-1.46c-2.14-8.1-7.54-9.89-15.26-4.83a47,47,0,0,1-4.81-1.73,38.49,38.49,0,0,0-16.13-3.69C411.39,227.32,408.27,227.32,405.17,227.09Zm-94.92,28.35a11.9,11.9,0,0,1-11.05-2.21,11.6,11.6,0,0,0,2.19-.84c1.78-1.19,3.5-2.47,5.24-3.71a7.13,7.13,0,0,1,1.56-1.12c6.54-2.35,13.08-4.7,19.66-6.93a24.12,24.12,0,0,1,4.54-.56l-13,12.59C317,253.42,313.63,254.54,310.25,255.44ZM320,286.23l-1.17-6.73c1-3.19,2.35-7.32,3.78-11.78l4.6,3C325.6,276.29,325,282.19,320,286.23Zm22.82-19.5a11.8,11.8,0,0,0-2.5,7.39,10.1,10.1,0,0,1-3,7.28c-.93-5.55-1.74-10.93.12-15.9,1.45-3.87,4.43-7.16,6.56-10.8,1.91-3.25,4.9-5.1,8.66-7.34.36,3.48.67,6.44,1,9.21C348.84,259.13,346,263.07,342.86,266.73Zm14-10.78c-.67-3.26-1.35-6.53-2.08-10.09l1.22-.77C358.45,247.65,358.82,253,356.89,256Zm-9,27.08c3-5.24,7.68-8.61,13.46-11.77l2.25,7.43C360.7,283.7,351,286.48,347.88,283Zm19.46-3.63a11.12,11.12,0,0,0-2.12-9.35l4.66-2c1.12,2.87,2.2,5.61,3.4,8.65Zm23.78-6.16c-3.69.07-7.36,1.38-11,2.21a33.44,33.44,0,0,0-3.53,1.21L373,267.11c3.18-2.52,3.18-2.63-.36-5.81-.79-.71-1.58-1.41-2.42-2.05s-1.62-1.12-2.56-1.76c.26-.14.4-.27.54-.27,3.42,0,6.85,0,10.26.1a6,6,0,0,1,2.84.56c8.24,4.93,16.87,8.19,26.78,6.81C403,268.73,398.28,273.11,391.12,273.24Zm38.4-3.81v-3.57l3.54,1.31Zm19.88-22.65c-.27-1.75.71-3.68,1.19-5.81l28,7.31c1.52,6.74-6.4,24.75-14.39,28.88l-24.29-11.72a42.39,42.39,0,0,0,3.44-3.57,14.33,14.33,0,0,0,1.93-3.52c.28-.69,0-1.6.22-2.34.37-1.26.93-2.47,1.45-3.79C449.54,251.22,449.81,249.39,449.4,246.78Zm-3.47-10.84L440.27,234C443.11,232.55,445.21,233.23,445.93,235.94Zm-24.55-4.64c8.33,2.79,16.65,5.64,25.16,8.53-.3,2.07-.39,4-2.41,5.52a4.59,4.59,0,0,0-1.42,3.75,6.9,6.9,0,0,1-1.11,4.79c-5.34.31-6.38,4.53-3.93,7.64l-1.88,2.54c-.66-.21-1.23-.34-1.77-.55a44.83,44.83,0,0,0-22-3,87.43,87.43,0,0,1-12.85.24c-5.42-.16-10.29-2.49-15-4.78a15.88,15.88,0,0,0-7.7-1.82c-2.7.09-5.41-.23-8.12-.2a20.43,20.43,0,0,0-4.08.61c-1.21.26-2.39.68-4,1.16,1-4.48,1.19-8.59-1.06-12.43,3.47-3.51,8.23-5.46,11.17-9.42-1.25-1.62-2.39-1-3.28-.44-4.57,2.92-9.08,5.91-13.6,8.91a39.06,39.06,0,0,1-3.55,2.54c-4.4,2.28-7.27,6-10.07,9.93-1.57,2.18-3.44,4.13-5.22,6.15-1.48,1.69-3,3.32-4.57,5l-5.18-4.12c1.82-2.14,3.46-4.67,5.67-6.53,7.75-6.51,15.71-12.79,23.57-19.17,1.29-1,2.56-2.1,3.75-3.24a7.9,7.9,0,0,0,1.05-1.73l-.35-.42a11.24,11.24,0,0,0-1.84.8,224.44,224.44,0,0,0-26,19,38.6,38.6,0,0,0-8.62,10.3c-.36.64-1.17,1-1.67,1.56s-1.73,1.65-1.58,2.19c.76,2.65-.43,4.86-1.38,7-2.38,5.39-6.52,9.29-11.31,12.56a2.43,2.43,0,0,1-1.58.35c.25-3.86,2.13-6.71,4.24-9.66,4.88-6.84,9.42-13.93,14-21a28.27,28.27,0,0,1,7.65-7.65c5.73-4,11.2-8.46,16.79-12.69,3-2.27,6-4.6,9.15-6.66a5.74,5.74,0,0,1,3.72-.7c5,.76,10,1.89,15.06,2.62A232.21,232.21,0,0,0,419,231.12,6.87,6.87,0,0,1,421.38,231.3ZM280.06,344.16a27.9,27.9,0,0,1-3.24.81c-2.75.38-5.52.65-8.28,1-4.24.46-5.57,1.93-5.06,6.09a33.54,33.54,0,0,0,1.5,6.56,131.06,131.06,0,0,0,18,34.8,97.89,97.89,0,0,0,11.13,12.85c2.95,2.91,5.28,2.28,7.77-1.07.28-.38.51-.78.8-1.14,2.14-2.67,4.3-5.34,6.41-8,8.84,2.09,21.74-8.22,23-17.7,5.89-5.31,9.73-11.61,9.85-19.55.07-4.26,2-6.73,5.47-8.59,3.6-2,7.16-4,10.78-6,5.18-2.75,10.36-3.4,15.63-.07s9,.15,10.75-3.47a15.69,15.69,0,0,0,1.48-4.9c1.07-9.32-3.21-16.59-9.53-22.72a19.23,19.23,0,0,0-8.13-4.27c-6.59-1.82-10.4,1.13-10.6,7.92-.13,4.31-1.74,7.86-5.16,10.24-4.27,3-8.79,5.66-13.34,8.21a43.19,43.19,0,0,1-6.59,2.49A28.66,28.66,0,0,0,306.83,334a8.86,8.86,0,0,0-7.38-1.24,70.67,70.67,0,0,0-9.59,2.49C285.51,336.86,281.57,339.17,280.06,344.16ZM298,404.86c-2.85-1.23-4.89-3.51-6.81-5.83A128.8,128.8,0,0,1,272,368.09c-2.29-5.29-4.64-10.54-5.36-16.33-.09-.76,0-1.55,0-2.91,1.38.9,2.46,1.45,3.37,2.2,5.63,4.64,9.84,10.49,13.89,16.47a94.78,94.78,0,0,1,14,31.53,51.39,51.39,0,0,1,.72,5.57ZM318,384.34c-.17.09-.06.71-.09,1.32h3.83c-1.08,1-1.92,1.58-2.6,2.33a25.73,25.73,0,0,0-2.71,3.38c-.9,1.42-3.84,2.84-5.43,2.37-.29-.09-.51-.39-1-.81,2-7.05,7.5-10.48,13.63-13.22,1.49-.66,3.13-1.7,5.21-.91C324.89,380.8,321.44,382.54,318,384.34ZM361,315a21.83,21.83,0,0,1,4.06,0,14.82,14.82,0,0,1,8.66,5.64c3.61,4.59,6,9.71,5,15.77-.32,2.07-.67,4.22-3,5.37-4.86-2.69-9.93-4.06-15.51-1.8a16.15,16.15,0,0,0-5.47-10.65C359.4,325.8,360.64,320.81,361,315Zm-8.89,16.71a10.48,10.48,0,0,1,5.2,9.27l-15.78,10.12a18.17,18.17,0,0,0-6.28-11.1Zm-43.18,4.47c7.52-2.31,13.65,1,19.21,6.33,6.29,6,8.38,13.55,8.42,21.95,0,4.78-2.87,8.06-5.62,11.71-2.33-1.87-4.53-.83-6.77.07A31.61,31.61,0,0,0,309.08,388c-1.1,1.64-1.86,3.37-1,5.37l-3.93,3.75a90.29,90.29,0,0,0-27.57-48.91l5.18-1.43c1.32,1.75,3.25,2,5.3,1.9,7.61-.38,14.05-3.56,19.69-8.46C307.73,339.33,308.12,337.7,308.94,336.16Zm-14.62,6.9c3.9-1.34,6.89-4.12,10-6.69l.53.31c-.21.53-.29,1.21-.67,1.57-4.92,4.63-10.66,7.53-17.5,7.81a14.17,14.17,0,0,1-3.49-.73c-.13-1.9,1.61-4.38,3.25-4.64,2.89-.46,5.8-.75,8.66-1.11C294.92,340.52,292.79,341.2,294.32,343.06Zm90.56,39a13.17,13.17,0,0,0-1.69,4c-2.23,10.13,2.32,17.95,9.1,24.67a19.1,19.1,0,0,0,8.11,4.3c6.56,1.86,10.47-1.14,10.65-7.87a12.36,12.36,0,0,1,5.28-10.38c4.17-2.91,8.56-5.51,13-8a49.08,49.08,0,0,1,6.76-2.63,28.75,28.75,0,0,0,26,3.73,8.63,8.63,0,0,0,7.31,1.25,69.71,69.71,0,0,0,9.6-2.48c4.35-1.6,8.29-3.92,9.83-8.89a15.9,15.9,0,0,1,2.23-.62c3.08-.43,6.16-.84,9.25-1.18,4.31-.48,5.64-2,5.11-6.25a33.18,33.18,0,0,0-1.48-6.36,132.08,132.08,0,0,0-18.22-35.14,99.14,99.14,0,0,0-11.05-12.66c-2.79-2.74-5.12-2.14-7.52,1-.32.41-.58.89-.91,1.3-2.18,2.72-4.37,5.43-6.42,8-8.93-1.89-22.39,8.74-23,17.68-6.23,5.57-10,12.24-10,20.54,0,3.59-1.9,5.62-4.63,7.21-3.55,2.06-7.19,4-10.76,6-5.59,3.17-11.09,3.81-16.88.26C390.7,377.11,387.23,378.2,384.88,382Zm97.26,1.19c-2.78.36-5.55.69-8.14,1l1.29-2.91-.71-.53c-3.9,1.28-6.86,4.1-10,6.64l-.52-.21c.16-.51.17-1.2.52-1.53,5-4.7,10.75-7.63,17.67-7.9a14.76,14.76,0,0,1,3.46.73C485.75,380.62,483.78,383,482.14,383.23ZM471,318.75c1.54,1.25,3.38,2.26,4.56,3.77,4.5,5.78,9.11,11.52,13.09,17.65a105,105,0,0,1,12.84,28,51,51,0,0,1,1,6.24l-.74.3a33.53,33.53,0,0,1-2.87-1.94c-5.69-4.68-9.93-10.6-14-16.63a94.93,94.93,0,0,1-13.9-31.37,51.39,51.39,0,0,1-.72-5.57C470.47,319.08,470.72,318.92,471,318.75Zm-25.2,23.64a36.38,36.38,0,0,0,4.23-2.13c.53-.31.8-1,1.19-1.59l-.4-.49H447.1c1.08-.95,1.93-1.57,2.62-2.32a24.85,24.85,0,0,0,2.69-3.37c.91-1.42,3.81-2.84,5.41-2.38.29.09.52.38,1,.78-1.6,6.29-6.37,9.66-11.71,12.43-4.08,2.12-5.59,2.36-7.09,1.29C442.06,343.83,443.94,343.17,445.76,342.39Zm-7.86,5.31c2,1.42,3.78,1.11,5.68.39,6.42-2.41,11.89-6.07,15.88-11.73,1.24-1.77,2.29-3.61,1.36-5.88l3.93-3.74a90.28,90.28,0,0,0,27.56,48.89l-5.17,1.45c-1.31-1.77-3.25-2-5.3-1.9-7.61.37-14,3.56-19.69,8.45-1,.89-1.41,2.53-2.21,4.05-7.45,2.34-13.56-.93-19.09-6.17-6.41-6.08-8.59-13.74-8.55-22.29C432.32,354.51,435.23,351.31,437.9,347.7Zm-26.31,35c2.56-1.56,5.24-3.12,7.85-4.79s5.12-3.42,7.83-5.23a18.7,18.7,0,0,0,6.33,11.22l-16.9,8.28C413.59,390.51,411.19,386.16,411.59,382.7Zm-18.7-.65c4.84,2.5,9.93,4.21,15.7,1.74a15.94,15.94,0,0,0,5.25,10.56c-4.59,5.58-4.52,4.51-6.14,14.46a17.65,17.65,0,0,1-3.78.05,14.7,14.7,0,0,1-8.7-5.57c-3.7-4.63-6.05-9.8-5.13-15.94C390.39,385.4,390.82,383.43,392.89,382.05ZM580.37,675.52V421.86l-4.26-3.09v253c-12.29,2.34-18.64,10-21.31,21.66h-122c2.45,2.93,5,4.56,8.85,4.26,4.67-.36,9.39-.09,14.1-.08l101.37,0a15.46,15.46,0,0,0,1.76-.22c-.66-6.21,2-11,6.19-15.1A23.43,23.43,0,0,1,580.37,675.52Zm-385.72-3.81V418.77l-4.18,3.14V675.53a23.44,23.44,0,0,1,15.31,6.75c4.27,4.16,6.82,9,6.23,15.17.82.07,1.27.14,1.73.14,39,0,78-.06,117.06,0,3.48,0,5-2.3,7-4.35H216C213.37,681.77,207,674.06,194.65,671.71Zm361-616.82c2.75,11.54,9.07,19.18,21.37,21.49v243l4.18-3.15V72.85c-12.57-2.28-21-8.49-21.86-22.21-.49,0-.95-.13-1.4-.13-39,0-78,.07-117.07,0-3.49,0-4.95,2.33-7.13,3.95.05.16.1.32.16.48ZM191.26,316.29l4.28,3.15V76.29c9.88-1,19.22-9.54,21.22-21.49h122.3c-2.59-2.41-4.49-4.62-8.18-4.35-4.94.37-9.93.09-14.89.09l-101.37,0a11.12,11.12,0,0,0-1.52.17c-.95,13.86-9.45,19.92-21.84,22.16Zm164.3-190.46h59.51V76.19H355.56Zm4.28-45.45h51v41.21h-51ZM263.1,573c2.07,1,3,3,3.32,5.32.84,5.88,1.87,11.74,2.82,17.61l.46,0a10.25,10.25,0,0,0,.31-1c.9-5.49,1.9-11,2.62-16.47a7.36,7.36,0,0,1,3.88-5.85,27.31,27.31,0,0,1,4.86-2.22c2.18-.7,4.46-1.12,7.3-1.8-1.15-.25-1.77-.33-2.36-.52-3.18-1.06-6.45-2-9.5-3.3a7.08,7.08,0,0,1-4.19-6.06c-.7-5.51-1.72-11-2.62-16.46a10.44,10.44,0,0,0-.65-1.64c-1.05,6.48-2.1,12.33-2.91,18.22-.35,2.53-1.4,4.59-3.61,5.57-3.28,1.47-6.77,2.49-10.18,3.68a16.63,16.63,0,0,1-1.69.41,14.34,14.34,0,0,0,2.59.84C256.76,570.43,260,571.5,263.1,573ZM533.78,159.32c-3-1-6.18-1.94-9.1-3.26a7,7,0,0,1-4.06-5.93c-.56-4.59-1.41-9.15-2.16-13.71-.22-1.34-.49-2.66-.74-4a2.12,2.12,0,0,0-.66,1.28c-.86,5.22-1.94,10.42-2.49,15.67a8.52,8.52,0,0,1-5.43,7.4,52.85,52.85,0,0,1-6.16,2.16c-1.28.4-2.62.59-3.93.87a7.12,7.12,0,0,0,2.11.79c3.22,1.14,6.5,2.14,9.6,3.54,2.3,1,3.37,3.15,3.69,5.74.49,3.93,1.24,7.84,1.87,11.75q.48,2.93.94,5.85a1.33,1.33,0,0,0,.71-.93c.93-5.75,1.9-11.49,2.74-17.24a6.32,6.32,0,0,1,2.74-4.62,22.18,22.18,0,0,1,4.71-2.5c2.47-.88,5.05-1.44,8.2-2.31A24.48,24.48,0,0,1,533.78,159.32ZM386.23,654.93a38.85,38.85,0,0,0,2.25-6.13c1.87-7.3,2-14.79,2-22.27a13.5,13.5,0,0,0-.42-4.13,2.79,2.79,0,0,0-2-1.7c-.7,0-1.67.91-2,1.66a7.24,7.24,0,0,0-.38,2.93c-.08,4.3,0,8.61-.2,12.9a60.2,60.2,0,0,1-1.14,10.41c-.7,3-2,6.11-5.69,7-3.82-1.84-5-5.08-5.28-8.72-.47-7-.73-14-1.13-21a9.44,9.44,0,0,0-.67-3.27,2.36,2.36,0,0,0-1.77-1.21c-.62,0-1.34.7-1.77,1.27a3.35,3.35,0,0,0-.38,1.71,102.15,102.15,0,0,0,.46,24,16,16,0,0,0,3.25,8C374.65,660.4,383.19,661.79,386.23,654.93ZM402,647.75c6.41-2.56,11.12-6.66,13.38-13.3,1.32-3.87.82-7.37-1.83-10.39s-6.15-3.6-10-2.88c-1.25.24-2.54.27-4.2.43-1.16,1.23-2.69,2.74-4.06,4.38a4,4,0,0,0-.88,2.35c0,.64.55,1.31.86,2l.78.12.88-1.78c.4.5.45.74.44,1-.26,7.27-.55,14.53-.78,21.8a45.48,45.48,0,0,0,.18,5.35,2.42,2.42,0,0,0,2.43,2.42,2.5,2.5,0,0,0,2.7-2.37,15.66,15.66,0,0,0,.09-2.57C402,652.09,402,649.92,402,647.75Zm0-21.94a6.37,6.37,0,0,1,7.21.19c2,1.64,2.58,4.4,1.54,7.23a17,17,0,0,1-8.55,9.41c-.1-.79-.19-1.17-.2-1.55Zm26.63,10.12a19,19,0,0,1-4.23-4.63c-1.73-2.72-1.06-4.84,1.82-6.91,2.54.38,4.36,1.53,5.06,4.11a2.92,2.92,0,0,0,.65,1.42,2.83,2.83,0,0,0,1.85.75c.46,0,1-.79,1.2-1.33a6.66,6.66,0,0,0-2.91-7.42c-4.88-3.09-9.66-1.86-11.88,3.49a12.22,12.22,0,0,0-.42,6.53c.63,3.52,3.08,6,5.79,8.28,3.19,2.67,5.1,6.08,4.76,10.41a4.25,4.25,0,0,1-4.47,4.31c-3.14.09-4.33-.88-4.86-4a4.15,4.15,0,0,0-.25-1.35c-.4-.69-.87-1.67-1.48-1.82a2.61,2.61,0,0,0-2.2.85,6,6,0,0,0-1.09,3.08,7.84,7.84,0,0,0,6.35,7.82c7.42,1.17,12.38-2.67,12.65-10A15.7,15.7,0,0,0,428.62,635.93Zm-66.95,17.16a2.68,2.68,0,0,0-.51-2.57,3.57,3.57,0,0,0-2.83,0c-.71.29-1.15,1.23-1.74,1.86-3.45,3.66-7.63,3.31-9.83-1.19a25.62,25.62,0,0,1-2.46-8.68,18.93,18.93,0,0,1,4.11-14.32c2.91-3.47,6.52-3.37,9.46.06a17.85,17.85,0,0,0,2,2.47c.56.48,1.8,1,2.16.69a3.89,3.89,0,0,0,.89-2.31,3.09,3.09,0,0,0-.51-1.48c-2.92-6.42-10.24-8.08-15.49-3.39s-6.7,10.75-7,16.09c-.05,7.65,1.78,12.94,5.17,16.24C351,662.38,358.46,659.19,361.67,653.09ZM346.21,50.48c3.16.63,6.36,1,9.67,1.53a13.54,13.54,0,0,0-1.33,3.28c-.15,1.13-.13,2.75.55,3.38a3.78,3.78,0,0,0,3.39.39A14.44,14.44,0,0,0,367,49.71c1.27-4.33-.35-8.09-2.95-11.4a21.36,21.36,0,0,0-5-4.71c-2.18-1.42-4.32,0-4.19,2.63a12.59,12.59,0,0,0,.85,3.43,25.78,25.78,0,0,0,1.32,2.72c-3.71.51-7.37.89-11,1.57-1.75.33-4,.83-3.85,3.25C342.37,49.4,344.38,50.12,346.21,50.48Zm11.18,6.35-.64-.47c1-1.69,2-3.38,2.87-4.92l4.47-.91C362.3,53.53,360.31,55.7,357.39,56.83Zm1.11-20.52,5.64,7-.41.58-3.37-.75-2.77-6.26Zm5.82,10.63c-2.57,2.12-15,2.12-18.78-.11C349.33,45,360.66,45.11,364.32,46.94Zm63.42,651.69a11.83,11.83,0,0,0-4.07-1.43c-2.58-.45-5.21-.66-8-1,.46-1.05,1-2,1.34-3.08.49-1.34.83-2.73-.45-3.85s-2.63-.77-3.91-.12a15.25,15.25,0,0,0-7.77,8.39,11.18,11.18,0,0,0-.57,4.27c.21,4.75,3,8.19,6.17,11.39a7.42,7.42,0,0,0,2.31,1.5c2.13.9,4.08-.3,3.89-2.59a21.92,21.92,0,0,0-1.39-4.9,12.88,12.88,0,0,0-1-1.9,22,22,0,0,0,3.38,0c3.25-.52,6.51-1,9.69-1.84a2.54,2.54,0,0,0,.32-4.82Zm-13.36-7.22c.2,3.21-2.22,5.45-6.65,6C409.71,694,411.87,692,414.38,691.41Zm-.9,20.16c-2.62-1.78-4.33-4.31-5.94-7.48l3.77.84,2.74,6.32ZM407.25,701c3.4-2,14.93-1.92,18.7.09C423.38,703.16,410.51,703.09,407.25,701Zm63.9-62.11c-.09-2.22-2.11-2.95-3.93-3.31-3.16-.64-6.36-1-9.7-1.55a14.91,14.91,0,0,0,1.37-3.42c.16-1.06.1-2.66-.55-3.2a3.91,3.91,0,0,0-3.4-.44,14.46,14.46,0,0,0-8.54,9.32c-1.25,4.17.18,7.86,2.69,11.09a23.62,23.62,0,0,0,5.18,5.05c2.17,1.46,4.34,0,4.23-2.57a12.5,12.5,0,0,0-.84-3.42,25.93,25.93,0,0,0-1.34-2.78c3.69-.5,7.34-.87,10.94-1.55C469,641.82,471.24,641.34,471.15,638.93Zm-14.83-9.8c-.64,3.55-2.17,6.27-6.85,6.24A13.07,13.07,0,0,1,456.32,629.13Zm-6.68,13,3.38.76,2.89,6.49C453.47,648.76,450.42,645.09,449.64,642.15Zm-1-3.35a37.63,37.63,0,0,1,19.34.07C465.15,641.14,452.28,641.08,448.63,638.8ZM172.57,340.22a43.59,43.59,0,0,0,7,5.66c8.1,4.79,15.85-1.86,18-7.71a3.5,3.5,0,0,0-.55-3,3.87,3.87,0,0,0-3-.6,18.34,18.34,0,0,0-3.75,1.43c-.33-2.74-.54-5.38-1-8a12.2,12.2,0,0,0-1.43-4.07c-1.42-2.41-3.61-2.25-4.81.24a9.89,9.89,0,0,0-1,2.8c-.48,3.37-.83,6.76-1.23,10.11-1.51-.61-3.16-1.43-4.9-1.95-1.5-.45-3.12-.46-4.09,1.1A3.09,3.09,0,0,0,172.57,340.22Zm17.25-.49,4.9-2.9.44.6c-.94,3-3.31,4.85-6.26,6.85C189.25,342.53,189.5,341.31,189.82,339.73Zm-5-14.39c2.53,3.27,2.7,15.65.39,19.51C183.32,338.28,183.71,332.05,184.83,325.34Zm-9.57,12.38,6.2,2.6c.21.74.38,1.31.52,1.87s.21,1,.32,1.52l-.49.53-7.09-5.61ZM357.34,688.91a3.5,3.5,0,0,0-3.06.51,3.86,3.86,0,0,0-.64,3,18.07,18.07,0,0,0,1.38,3.64c-3.41.55-6.75,1-10,1.67-1.69.35-3.49,1.15-3.56,3.21-.07,2.22,1.91,2.79,3.56,3.11,3.68.7,7.41,1.13,11.15,1.68-.58,1.45-1.39,3.12-1.91,4.86-.43,1.43-.43,3,1,3.95a3,3,0,0,0,4-.58,41.07,41.07,0,0,0,5.63-6.82C369.85,698.94,363.33,691.19,357.34,688.91Zm0,22.64-.56-.29,2.73-6.31,3.76-.88C361.74,707.26,360,709.77,357.36,711.55ZM344.92,701.4c3.87-2.29,15.35-2.33,19.06-.13A36.9,36.9,0,0,1,344.92,701.4Zm11.55-10,.6-.46,6.57,6.19C359,697.78,356.6,694.77,356.47,691.41Zm-175.28-294c.34,3,.56,6,1.14,9,.33,1.74.81,4,3.22,3.89,2.23-.08,2.94-2.1,3.31-3.93.63-3.15,1-6.36,1.55-9.7a15,15,0,0,0,3.41,1.37c1.06.16,2.66.1,3.21-.54a3.91,3.91,0,0,0,.44-3.4,14.39,14.39,0,0,0-9.51-8.6c-4.19-1.17-7.85.34-11.05,2.85a22.51,22.51,0,0,0-5,5.24c-1.36,2.07.13,4.19,2.64,4.06a13.62,13.62,0,0,0,3.62-.9,27.58,27.58,0,0,0,3-1.49A21.33,21.33,0,0,0,181.19,397.38Zm13.9-2.18-.36.57-4.9-2.89c-.32-1.57-.57-2.79-.83-4C191.5,389.52,194.34,392.52,195.09,395.2Zm-9.41-7.44a37.81,37.81,0,0,1-.07,19.36C183.34,404.27,183.4,391.41,185.68,387.76Zm-10.38,7.17c-.19-.31-.39-.62-.59-.93l7.06-5.62.56.4-.75,3.38ZM316.76,651.39a3.06,3.06,0,0,0,4-.66,41.72,41.72,0,0,0,5.67-7c4.79-8.1-1.77-15.8-7.66-18a3.55,3.55,0,0,0-3,.52,3.84,3.84,0,0,0-.64,3,18.44,18.44,0,0,0,1.45,3.77c-2.79.34-5.5.51-8.13,1a12.43,12.43,0,0,0-4.51,1.86c-1.66,1.13-1.46,3,.29,4a9.59,9.59,0,0,0,3.31,1.25c3.37.51,6.77.85,10.16,1.25-.65,1.58-1.46,3.18-2,4.87C315.23,648.79,315.21,650.41,316.76,651.39Zm2.19-3-.71-.36c.9-2.07,1.79-4.15,2.7-6.25l3.74-.9A19.6,19.6,0,0,1,319,648.38Zm5.74-14-4.35-.87-3.09-5.09C319.92,628.39,322.21,630.3,324.69,634.35Zm-18.32,3.84c2.26-2.2,14.67-2.48,18.77-.35C321.47,639.77,310.21,639.93,306.37,638.19ZM589.6,332.75a61,61,0,0,0-1.73-8.29,3.53,3.53,0,0,0-2.49-2c-.8-.08-2,.92-2.52,1.76a12.16,12.16,0,0,0-1.36,4.1c-.42,2.51-.62,5.07-.92,7.72a17,17,0,0,0-3.65-1.43c-1-.15-2.58,0-3.18.64a3.66,3.66,0,0,0-.41,3.23,14.81,14.81,0,0,0,9.44,8.69c5.61,1.77,12.4-2.79,15.46-6.77,1-1.23,1.7-2.66.69-4.19s-2.76-1.46-4.3-1-3.15,1.3-5,2.08A30.57,30.57,0,0,0,589.6,332.75Zm-14,4.71.4-.62,5,2.81.94,4.6C579,342.32,576.72,340.41,575.64,337.46Zm9.77,7a30.32,30.32,0,0,1,.17-18.65A32,32,0,0,1,585.41,344.45Zm10.13-6.78c.13.2.25.4.37.6-1.75,2.59-4.27,4.28-7.47,5.92.33-1.46.55-2.47.84-3.75ZM414.42,59.27c2.58.92,4.38-.88,3.65-3.54a36.29,36.29,0,0,0-1.52-3.83c2.77-.34,5.46-.54,8.1-1a11.94,11.94,0,0,0,4.22-1.6c2.08-1.32,1.89-3.37-.29-4.49a10.13,10.13,0,0,0-3.17-1.1c-3.31-.49-6.65-.82-9.93-1.2.62-1.57,1.43-3.3,2-5.11.43-1.44.41-3.24-1.18-3.8a4.37,4.37,0,0,0-3.77.56,35.27,35.27,0,0,0-5.87,7.11C401.81,49.43,408.67,57.21,414.42,59.27Zm-.13-22.72.56.29c-.92,2.12-1.83,4.25-2.73,6.31l-3.78.9A18.09,18.09,0,0,1,414.29,36.55Zm12.43,10.32a30.71,30.71,0,0,1-18.68.22A31.56,31.56,0,0,1,426.72,46.87Zm-11.41,9.65c-2.2-.06-4.57-2.05-6.77-5.79C412.93,50.76,414.42,52.67,415.31,56.52Zm182.84,335.7a39.58,39.58,0,0,0-7.26-5.69C582.75,382,575,389,573.16,394.61c-.84,2.49.93,4.24,3.48,3.56a37.32,37.32,0,0,0,3.93-1.53c.33,2.75.55,5.38,1,8a10.51,10.51,0,0,0,1.36,3.88,3.62,3.62,0,0,0,2.56,1.7c.85,0,1.8-1.12,2.39-2a6.5,6.5,0,0,0,.93-2.79c.46-3.31.8-6.62,1.18-9.94,1.41.6,2.93,1.39,4.54,1.9s3.22.69,4.34-.87A3.13,3.13,0,0,0,598.15,392.22Zm-17.12.69-4.9,2.86-.44-.58c1-3,3.29-4.88,6.25-6.84Zm4.59,13.91a30,30,0,0,1-.21-18.69C587.5,394.33,587.2,400.56,585.62,406.82Zm10-11.9-6.3-2.71c-.3-1.24-.54-2.26-.91-3.79,3.19,1.57,5.71,3.3,7.5,5.95ZM580,690.24c1.43-.61,3.22-1.24,4.88-2.12,1.33-.7,2.35-1.81,2-3.52a2.92,2.92,0,0,0-3.23-2.39,52.29,52.29,0,0,0-9.91,1.35,9.68,9.68,0,0,0-4.79,3.23c-3.46,4.38-3.54,9.4-1.57,14.43a3.59,3.59,0,0,0,2.58,2c.9,0,2.09-1,2.69-1.83a15.6,15.6,0,0,0,1.47-3.56c2.67,1.94,5.21,3.93,7.9,5.7,1.61,1,3.64,2,5.29.39s.38-3.59-.64-5C584.56,695.86,582.18,693,580,690.24Zm3.38-5,.21.6-6.47,2.71-3.28-2.12C577.16,685.3,580.17,684.63,583.35,685.21Zm-13.58,15.3c-1.48-3-1.27-6-.61-9.31C573,694.77,571.6,698.37,569.77,700.51Zm1.59-12.32c4.39,1.59,12.36,9.24,13.77,13.1C581.82,701.15,572.67,692.55,571.36,688.19ZM185.48,50.12c2,2.67,4.21,5.21,6.27,7.72-1.52.64-3.31,1.28-5,2.16a3.19,3.19,0,0,0-2,3.54c.35,1.73,1.79,2.23,3.26,2.41a20.07,20.07,0,0,0,11.9-2.23,8.43,8.43,0,0,0,2.82-2.39c3.29-4.42,3.48-9.31,1.58-14.28a3.77,3.77,0,0,0-2.67-2.12c-.93,0-2.12,1.09-2.77,2a15.48,15.48,0,0,0-1.46,3.62c-1.37-1.18-2.56-2.33-3.87-3.32a33.89,33.89,0,0,0-4.31-2.81,7.7,7.7,0,0,0-3-.91,2.23,2.23,0,0,0-2.48,3.06A11.2,11.2,0,0,0,185.48,50.12Zm2.76,12.77c-.06-.21-.12-.41-.19-.62l6.52-2.65,3.32,2.1C194.5,62.77,191.45,63.52,188.24,62.89Zm13.6-15.33c1.53,3,1.3,6,.66,9.32C199.13,53.6,199.48,51.07,201.84,47.56Zm-1.77,12.52a40.46,40.46,0,0,1-13.94-13.32C190.13,47.08,199.88,56.48,200.07,60.08ZM570.21,61.9c4,3.59,8.83,4.49,14,4.07,1.54-.12,3.07-.61,3.45-2.43s-.74-2.91-2.15-3.63c-1.62-.84-3.36-1.45-5.15-2.2a9.4,9.4,0,0,0,1.12-1.06c2.23-2.84,4.52-5.65,6.62-8.59.8-1.13,1.38-2.9,0-3.77a5.78,5.78,0,0,0-4-.26,11,11,0,0,0-3.61,2c-1.85,1.37-3.6,2.88-5.54,4.46-.41-1.14-.72-2.22-1.18-3.23-.58-1.29-1.28-2.56-3-2.5s-2.51,1.38-3,2.79A15.5,15.5,0,0,0,568,58.42,9.5,9.5,0,0,0,570.21,61.9Zm14.15.34-.31,1.09-9.17-1.19c0-.19,0-.39,0-.59l3-1.93Zm2.06-15.71a40.73,40.73,0,0,1-14.11,13.62C572.72,56.43,581.68,47.69,586.42,46.53Zm-15.81,1.25c2.27,2.58,2.81,6.08-.58,8.93C569.07,52.93,569.26,50.14,570.61,47.78ZM186,682.47c-2.34.89-3,3.3-1,4.8a39.73,39.73,0,0,0,5.86,3.15,32.43,32.43,0,0,0-2.6,2.93,66,66,0,0,0-5.07,7.74c-1.13,2.19.3,3.81,2.76,3.45a7.09,7.09,0,0,0,2.94-1.07c2.67-1.81,5.23-3.77,7.84-5.68a15.56,15.56,0,0,0,1.4,3.48c.6.88,1.78,2,2.63,1.92a3.89,3.89,0,0,0,2.74-2.05,14.19,14.19,0,0,0-.51-12.8C200.33,683.6,191.11,680.51,186,682.47Zm1.35,3.44.13-.71c3.17-.59,6.22.13,9.64,1.18l-3.32,2.11Zm-1.45,16c.22-3.5,9.33-12.43,14-13.7C196.32,694.26,191.59,698.38,185.89,701.89Zm15-1.52c-2.28-3.45-2.58-5.84.77-9.15C202.51,696.24,202.32,698.36,200.93,700.37ZM378.34,57.27a2.71,2.71,0,0,0,2.28.51c.48-.22.83-1.4.76-2.11A6.47,6.47,0,0,1,386,48.5c3.72.93,5.5,3.5,5,7.31-.17,1.29.22,2.24,1.55,2.17a3.79,3.79,0,0,0,2.15-1.21,11,11,0,0,0,2.26-12,11.45,11.45,0,0,0-10.45-7.33c-4.4-.27-9.06,2.91-10.85,7.09C373.73,49,374.88,54.57,378.34,57.27Zm2.9-14.15a7.28,7.28,0,0,1,9.34-.37,6.89,6.89,0,0,1,2.9,8.27c-1.52-3.18-3.61-5.84-7.18-5.77s-5.88,2.39-7.25,5.73A6.75,6.75,0,0,1,381.24,43.12Zm12.09,647.74a3.34,3.34,0,0,0-2.48-.45c-.34.07-.67,1.32-.6,2,.41,3.58-1.36,6.21-5.12,7.24-3.53-1.46-4.75-3.62-4.44-7.51a2.1,2.1,0,0,0-.63-1.69,2.64,2.64,0,0,0-2,0,4.23,4.23,0,0,0-1.47,1.28,11.29,11.29,0,0,0-1.48,12.45c2,3.92,6.77,6.76,10.86,6.45a12,12,0,0,0,10.46-8.19C397.73,698.31,396.45,693.27,393.33,690.86Zm-3,14.1c-3.16,2.4-6.35,2.55-9.33.44a7,7,0,0,1-2.87-8.09c4.32,7.76,11,7.09,14.57,0A6.57,6.57,0,0,1,390.32,705ZM576.51,371.05a2.12,2.12,0,0,0-1.7.59,3,3,0,0,0,0,2c.12.46.61.84,1,1.2a11.3,11.3,0,0,0,13.09,1.6,11.43,11.43,0,0,0,5.83-12.19,11.57,11.57,0,0,0-10-9.4,10.56,10.56,0,0,0-9.58,3.68,2.69,2.69,0,0,0-.37,2.3c.16.43,1.32.73,2,.66,3.41-.37,5.92,1.14,7.26,4.57C582.87,369.91,580.54,371.39,576.51,371.05Zm5.12-12a6.87,6.87,0,0,1,7.86,2.48c2.29,2.92,2.32,6.2.09,9.33a6.7,6.7,0,0,1-7.91,2.77C589.81,369.25,588.33,362.45,581.63,359Zm-387.3,2.57c1.18.13,2.11-.28,2-1.51a3.89,3.89,0,0,0-1.15-2.17,11.13,11.13,0,0,0-12-2.35c-4.32,1.73-7.56,6.27-7.38,10.86a11.39,11.39,0,0,0,7,10.44c4.34,2,9.94.82,12.69-2.64a3.34,3.34,0,0,0,.5-2.47c-.07-.35-1.32-.71-2-.64-3.64.4-6.19-1.3-7.27-5.09C188.27,362.51,190.52,361.18,194.33,361.6Zm-5.13,12a6.63,6.63,0,0,1-7.8-2.58c-2.32-3.14-2.37-6.37-.17-9.33a6.89,6.89,0,0,1,8-2.65C182.13,362.75,181.41,369.49,189.2,373.59ZM515.13,533.32c.44,3.61,1.1,7.2,1.68,10.79.09.54.27,1.06.41,1.59A68.17,68.17,0,0,0,519.48,534c.29-3.43,2.18-5.29,5.07-6.41,2-.77,4.09-1.28,6.59-2-1.33-.31-2.26-.52-3.19-.75-6.39-1.55-7.71-3-8.72-9.46-.5-3.23-1.06-6.46-1.6-9.69a2.73,2.73,0,0,0-.84,1.65c-.57,3.46-1.26,6.91-1.62,10.4a6.17,6.17,0,0,1-4.12,5.55c-2.31.92-4.72,1.6-6.94,2.34,2.39.86,5,1.66,7.43,2.71A5.8,5.8,0,0,1,515.13,533.32ZM276,160.12c-.39-3.68-1.11-7.33-1.71-11a9.63,9.63,0,0,0-.39-1.26,82.72,82.72,0,0,0-2.3,12,6.67,6.67,0,0,1-4.52,5.93c-1.59.65-3.26,1.06-4.9,1.57-.57.17-1.15.31-2,.53,2.62.86,4.92,1.47,7.1,2.36a6.11,6.11,0,0,1,4.26,5.66,45.77,45.77,0,0,0,.83,5.29c.38,2.27.79,4.53,1.18,6.8l.53,0c.61-3.76,1.47-7.51,1.76-11.3s2.47-5.95,5.89-7.07c1.74-.57,3.52-1,5.53-1.57-2.61-.86-4.91-1.48-7.09-2.38A6.29,6.29,0,0,1,276,160.12Zm214.34,409.4c4,.6,5.68,3.09,5.75,7a17.74,17.74,0,0,0,.71,3.4,11.39,11.39,0,0,0,.94-4c.14-3.4,1.58-5.64,5.14-6.19.32-.05.61-.37,1.13-.71-.61-.1-.94-.12-1.25-.2-2.65-.69-4.81-1.73-4.78-5.09a28.59,28.59,0,0,0-.85-5,22,22,0,0,0-1.47,6,4.15,4.15,0,0,1-3.14,3.67c-.84.3-1.72.48-2.68.74C490.07,569.27,490.19,569.49,490.35,569.52ZM255.05,310.61c.2,0,.38-.23.71-.44l-1.69-.47c-2.53-.66-4.23-1.93-4.32-4.88a33.17,33.17,0,0,0-.9-5.06,12.46,12.46,0,0,0-1.17,4.62c-.16,2.88-1.5,4.67-4.35,5.29-.55.12-1.08.32-1.91.57.69.27,1.1.48,1.53.6,3.67,1,4.28,1.72,4.71,5.34.19,1.54.48,3.07.73,4.61l.5,0a27.76,27.76,0,0,0,.58-3.48C249.61,313.57,251.13,311.11,255.05,310.61ZM442.49,168.92a4.32,4.32,0,0,0,.35-.7c.5-4.47.47-9.26,6.73-10.43-1-.31-1.73-.52-2.45-.77-2-.69-3.42-1.74-3.48-4.21a37.31,37.31,0,0,0-.92-5.58,21.8,21.8,0,0,0-1.39,5.84c-.21,2.3-1.59,3.35-3.55,4-.68.22-1.37.41-2.37.71.44.29.59.46.76.49,3.72.59,5.46,2.74,5.46,6.51A22.87,22.87,0,0,0,442.49,168.92ZM563.83,360.45a2.72,2.72,0,0,0-2.71,3,2.75,2.75,0,0,0,2.74,3,2.78,2.78,0,0,0,2.72-3A2.74,2.74,0,0,0,563.83,360.45ZM273.47,498a2.6,2.6,0,0,0-2.65,2.66,3,3,0,0,0,2.92,2.92,2.8,2.8,0,0,0,2.74-2.82A2.84,2.84,0,0,0,273.47,498Zm209.74-87.46a3,3,0,0,0,2.91-2.91,2.78,2.78,0,1,0-2.91,2.91Zm29.55-174.37A2.76,2.76,0,0,0,510,239a3,3,0,0,0,2.7,2.93,2.82,2.82,0,0,0,2.87-2.7A3,3,0,0,0,512.76,236.19ZM209.89,385.4a2.82,2.82,0,0,0,2.75-2.83,2.92,2.92,0,0,0-2.74-2.86,2.79,2.79,0,0,0-2.8,3A2.72,2.72,0,0,0,209.89,385.4Zm326.3-114.19a2.93,2.93,0,0,0,2.81-2.79,3,3,0,0,0-3-2.86,2.64,2.64,0,0,0-2.66,2.67A2.9,2.9,0,0,0,536.19,271.21ZM426.51,325.66a3,3,0,0,0-3-2.83,2.56,2.56,0,0,0-2.63,2.67,2.81,2.81,0,1,0,5.62.16Zm138.35,62.9a2.79,2.79,0,0,0-2.65-2.87,2.82,2.82,0,0,0-2.86,2.87,2.77,2.77,0,0,0,2.64,2.86A2.82,2.82,0,0,0,564.86,388.56ZM235.76,273.92a2.67,2.67,0,0,0-2.86-2.61,2.85,2.85,0,0,0-2.65,2.91A2.75,2.75,0,0,0,233,277,2.9,2.9,0,0,0,235.76,273.92Zm224.11,10.13a3,3,0,0,0-2.89-2.92,2.76,2.76,0,0,0-2.75,2.76,3,3,0,0,0,2.85,2.92A2.86,2.86,0,0,0,459.87,284.05Zm33.36,102.22a2.86,2.86,0,0,0-2.6-3,2.82,2.82,0,0,0-2.91,2.86,2.73,2.73,0,0,0,2.66,2.88A2.91,2.91,0,0,0,493.23,386.27ZM467.92,292a3,3,0,0,0-3-2.87,2.75,2.75,0,0,0-2.63,2.89,2.88,2.88,0,0,0,2.83,2.77A2.77,2.77,0,0,0,467.92,292Zm92.73,58.87a2.74,2.74,0,1,0,5.48-.06,2.81,2.81,0,0,0-2.68-2.88A2.75,2.75,0,0,0,560.65,350.84ZM209.1,372.89a2.83,2.83,0,0,0-.17-5.65,2.68,2.68,0,0,0-2.68,3A2.63,2.63,0,0,0,209.1,372.89ZM435.73,193.76a2.79,2.79,0,0,0,2.79,3,2.77,2.77,0,1,0-.1-5.53A2.52,2.52,0,0,0,435.73,193.76Zm-36.89-6.84a2.87,2.87,0,0,0,2.94,2.65,2.77,2.77,0,1,0-2.94-2.65ZM339.35,386.31a2.66,2.66,0,0,0-2.59,2.69,3,3,0,0,0,2.9,2.92,2.81,2.81,0,1,0-.31-5.61Zm-84,94.4a2.7,2.7,0,0,0-2.64,2.72,2.93,2.93,0,0,0,2.88,2.94,2.78,2.78,0,0,0,2.76-2.82A3,3,0,0,0,255.31,480.71Zm-15.34-14a2.75,2.75,0,0,0,2.76-2.79,3,3,0,0,0-3-2.85,2.9,2.9,0,0,0-2.67,2.93A3,3,0,0,0,240,466.75ZM465.08,524a2.91,2.91,0,0,0-2.85-2.71,3.07,3.07,0,0,0-2.89,2.93,3,3,0,0,0,2.85,2.74A3.13,3.13,0,0,0,465.08,524ZM361.76,539.88a2.9,2.9,0,0,0,2.86,2.73,2.74,2.74,0,0,0,2.76-2.79,2.81,2.81,0,0,0-5.62.06Zm-32.11-89a2.82,2.82,0,0,0-2.88,2.69,2.94,2.94,0,0,0,2.87,3,2.77,2.77,0,0,0,2.78-2.78A3,3,0,0,0,329.65,450.91ZM250,253.35a2.8,2.8,0,1,0-2.89,3A3,3,0,0,0,250,253.35Zm279,7.51a2.77,2.77,0,0,0,2.86-2.69,3,3,0,0,0-2.91-3,2.81,2.81,0,0,0-2.74,2.62A2.93,2.93,0,0,0,529,260.86ZM214.32,410.06A2.83,2.83,0,0,0,217,407.2a2.94,2.94,0,0,0-3-2.84,2.79,2.79,0,0,0-2.59,3A2.84,2.84,0,0,0,214.32,410.06ZM469,427.28a2.68,2.68,0,0,0,2.71,2.79,2.94,2.94,0,0,0,2.81-3,2.74,2.74,0,0,0-2.85-2.68A2.81,2.81,0,0,0,469,427.28Zm-251.5-5.18a2.88,2.88,0,0,0,3-2.59,3,3,0,0,0-2.72-3.12,2.81,2.81,0,0,0-2.86,2.49A3,3,0,0,0,217.54,422.1ZM307.45,206a2.65,2.65,0,0,0-2.69-2.79,2.87,2.87,0,0,0-2.86,2.9,2.67,2.67,0,0,0,2.82,2.67A2.71,2.71,0,0,0,307.45,206Zm33.07,331.77a2.56,2.56,0,0,0,2.34-2.72,2.62,2.62,0,0,0-2.35-2.72c-1.75-.3-2.68.46-3.4,2.74C337.52,536.82,338.51,538,340.52,537.74ZM301.36,431.11a2.78,2.78,0,0,0,2.74,3,2.54,2.54,0,0,0,2.8-2.46,2.77,2.77,0,0,0-2.63-3.08A2.62,2.62,0,0,0,301.36,431.11ZM484,514.59a2.9,2.9,0,0,0,2.92-2.88,2.65,2.65,0,0,0-2.91-2.58,2.89,2.89,0,0,0-2.85,2.74A2.8,2.8,0,0,0,484,514.59ZM386.38,186A2.71,2.71,0,0,0,389,188.9a2.8,2.8,0,0,0,3-2.71,2.85,2.85,0,0,0-2.76-2.83A2.8,2.8,0,0,0,386.38,186Zm92.09,127.09a2.8,2.8,0,0,0,2.8-2.77,2.87,2.87,0,0,0-2.82-3,2.62,2.62,0,0,0-2.68,2.65A2.92,2.92,0,0,0,478.47,313.11ZM556.75,311a2.72,2.72,0,0,0-2.72,2.81,2.88,2.88,0,0,0,2.83,3,2.89,2.89,0,0,0-.11-5.77Zm-264.68.28a2.79,2.79,0,0,0-2.76,3,2.48,2.48,0,0,0,2.64,2.62,2.9,2.9,0,0,0,2.93-2.86A2.82,2.82,0,0,0,292.07,311.24ZM453.6,529a2.8,2.8,0,0,0-2.89-2.67,2.92,2.92,0,0,0-2.86,2.76,3,3,0,0,0,2.8,2.82A3.05,3.05,0,0,0,453.6,529Zm106-205.76a2.49,2.49,0,0,0-2.52,2.71,2.65,2.65,0,0,0,2.86,2.81,2.77,2.77,0,1,0-.34-5.52Zm-49.45,165a2.75,2.75,0,0,0,2.93,2.61,3.07,3.07,0,0,0,2.74-2.91,3,3,0,0,0-2.86-2.75A3.08,3.08,0,0,0,510.17,488.18ZM207.07,345.25a2.6,2.6,0,0,0,2.87,2.59,2.79,2.79,0,0,0-.17-5.57A2.65,2.65,0,0,0,207.07,345.25Zm138.43,50a2.55,2.55,0,0,0-2.66,2.61,2.89,2.89,0,0,0,2.86,2.91,2.67,2.67,0,0,0,2.73-2.75A2.73,2.73,0,0,0,345.5,395.25Zm-103-131.86a2.61,2.61,0,0,0-2.63-2.68,2.89,2.89,0,0,0-2.92,2.88,2.76,2.76,0,0,0,2.75,2.79A2.9,2.9,0,0,0,242.49,263.39ZM222.14,433.76a2.61,2.61,0,0,0,2.69-2.78,2.78,2.78,0,1,0-2.69,2.78Zm58.69,74.71a2.87,2.87,0,0,0,2.86,2.71,2.73,2.73,0,0,0,2.74-2.78,2.88,2.88,0,0,0-3-2.8A2.68,2.68,0,0,0,280.83,508.47Zm192.46,12.72a3.09,3.09,0,0,0,2.89-2.76,2.8,2.8,0,0,0-2.72-2.84,3,3,0,0,0-3,2.83A3,3,0,0,0,473.29,521.19ZM490.22,397a2.65,2.65,0,0,0-2.82-2.68,2.86,2.86,0,0,0-2.74,2.84,2.78,2.78,0,1,0,5.56-.16Zm-105.9-89.34a2.76,2.76,0,1,0,.15,5.52,2.87,2.87,0,0,0,2.8-2.75A2.83,2.83,0,0,0,384.32,307.66ZM349.83,466.53A2.77,2.77,0,1,0,350,461a2.63,2.63,0,0,0-2.82,2.66A2.86,2.86,0,0,0,349.83,466.53Zm58.55-152.62a2.72,2.72,0,0,0-3-2.69,2.54,2.54,0,0,0-2.57,2.71,2.83,2.83,0,0,0,2.93,2.83A2.7,2.7,0,0,0,408.38,313.91Zm9.69,5a2.87,2.87,0,0,0-2.94-2.83,2.51,2.51,0,0,0-2.65,2.6,2.8,2.8,0,1,0,5.59.23Zm-56.7-131.45a2.8,2.8,0,0,0,5.6.12,2.68,2.68,0,0,0-2.81-2.87A2.77,2.77,0,0,0,361.37,187.49ZM529.25,466.06a3.09,3.09,0,0,0-2.84,2.82,2.81,2.81,0,0,0,2.68,2.89,2.88,2.88,0,0,0,2.9-2.9A2.78,2.78,0,0,0,529.25,466.06ZM518.6,478.81a3,3,0,0,0,2.77,2.82,3.19,3.19,0,0,0,2.92-2.95,3,3,0,0,0-2.79-2.81A3.11,3.11,0,0,0,518.6,478.81Zm-24.45,28.61a3.07,3.07,0,0,0,2.92-2.94,2.85,2.85,0,0,0-2.87-2.72,3,3,0,0,0-2.81,3A2.77,2.77,0,0,0,494.15,507.42ZM398,311.19a2.84,2.84,0,0,0-2.72-2.84,2.73,2.73,0,0,0-2.94,2.57,2.83,2.83,0,0,0,5.66.27Zm38,221.93a2.7,2.7,0,0,0,2.69,2.81,2.75,2.75,0,0,0,3-2.76,2.66,2.66,0,0,0-2.77-2.71A2.8,2.8,0,0,0,436.07,533.12ZM208.78,332.68a2.66,2.66,0,0,0,2.71,2.78,2.78,2.78,0,0,0,2.82-2.72,2.71,2.71,0,0,0-2.64-2.86A2.67,2.67,0,0,0,208.78,332.68Zm46.62-91.6a3,3,0,0,0-2.92,2.89,2.64,2.64,0,0,0,2.59,2.74,2.82,2.82,0,0,0,3-2.77A2.72,2.72,0,0,0,255.4,241.08ZM399.25,540.3a2.66,2.66,0,0,0,2.68,2.79,2.63,2.63,0,0,0,3-2.68,2.85,2.85,0,0,0-2.76-2.8A2.92,2.92,0,0,0,399.25,540.3ZM291.7,409.54a2.74,2.74,0,0,0-2.77,2.73,2.64,2.64,0,0,0,2.6,2.88,2.72,2.72,0,0,0,2.94-2.57A3,3,0,0,0,291.7,409.54Zm68.05,1.57a2.94,2.94,0,0,0,2.8,3,2.85,2.85,0,0,0,2.84-2.73,2.76,2.76,0,0,0-2.72-2.81A2.61,2.61,0,0,0,359.75,411.11ZM266.84,235a2.72,2.72,0,0,0-2.64-2.87,2.93,2.93,0,0,0-2.93,2.66,2.72,2.72,0,0,0,2.55,2.95A2.88,2.88,0,0,0,266.84,235Zm166.49,98.92a2.88,2.88,0,0,0-2.76-2.8,2.77,2.77,0,0,0-2.81,2.72,2.9,2.9,0,0,0,2.88,2.89A2.7,2.7,0,0,0,433.33,333.94ZM562,335.45a2.74,2.74,0,0,0-2.63,2.88,2.7,2.7,0,0,0,2.71,2.8,2.78,2.78,0,0,0,2.79-2.95A2.9,2.9,0,0,0,562,335.45ZM450.36,200.76a2.71,2.71,0,0,0,2.87-2.64,3,3,0,0,0-2.92-2.91,2.82,2.82,0,0,0-2.76,2.81A2.75,2.75,0,0,0,450.36,200.76ZM233.2,456.29a2.84,2.84,0,0,0,2.77-2.78,3,3,0,0,0-2.8-3,2.93,2.93,0,0,0-2.78,2.79A3.06,3.06,0,0,0,233.2,456.29ZM424,536.57a2.59,2.59,0,0,0,2.87,2.59,2.72,2.72,0,0,0,2.8-2.72,2.87,2.87,0,0,0-2.79-2.79A2.9,2.9,0,0,0,424,536.57Zm5.27-346a2.81,2.81,0,0,0-3.06-2.68,2.55,2.55,0,0,0-2.56,2.72,2.83,2.83,0,0,0,2.92,2.85A2.86,2.86,0,0,0,429.27,190.62ZM548,439.39a3,3,0,0,0,3-2.82,2.77,2.77,0,1,0-5.54-.15A2.78,2.78,0,0,0,548,439.39ZM349.43,537.91a2.72,2.72,0,0,0,2.84,2.67,2.63,2.63,0,0,0,2.72-2.75,2.8,2.8,0,0,0-2.93-2.8A2.74,2.74,0,0,0,349.43,537.91Zm123.48-332a2.62,2.62,0,0,0-2.63,2.69,2.81,2.81,0,0,0,5.61.13A2.91,2.91,0,0,0,472.91,205.9ZM354.62,189.47a2.64,2.64,0,0,0-2.76-2.72,2.75,2.75,0,1,0,2.76,2.72Zm57.12,349.25a2.79,2.79,0,0,0,2.56,3,2.9,2.9,0,0,0,3.05-2.73,2.81,2.81,0,0,0-5.61-.25ZM373.87,186.31a2.73,2.73,0,0,0,2.85,2.86,2.67,2.67,0,0,0,2.7-2.79,2.63,2.63,0,0,0-2.72-2.75A2.72,2.72,0,0,0,373.87,186.31Zm-58,17.08a2.93,2.93,0,0,0,3-2.82,2.75,2.75,0,0,0-2.83-2.7,2.78,2.78,0,0,0-2.87,2.89A2.64,2.64,0,0,0,315.88,203.39Zm145.83-3.22a2.76,2.76,0,0,0-2.65,2.72A2.8,2.8,0,0,0,462,205.7a2.74,2.74,0,0,0,2.75-2.77A3,3,0,0,0,461.71,200.17Zm-165.07,12a2.69,2.69,0,0,0-2.72-2.78,2.87,2.87,0,0,0-3,2.82,2.84,2.84,0,0,0,2.84,2.73A3,3,0,0,0,296.64,212.17Zm-20.38,14.46a2.8,2.8,0,0,0-2.76-2.8,2.92,2.92,0,0,0-2.86,2.95,2.58,2.58,0,0,0,2.64,2.66A2.9,2.9,0,0,0,276.26,226.63Zm230.26,4a2.9,2.9,0,0,0-2.81-3,2.59,2.59,0,0,0-2.82,2.45,2.88,2.88,0,0,0,2.67,3.1A2.82,2.82,0,0,0,506.52,230.65ZM307.46,295.07a2.54,2.54,0,0,0-2.87-2.55,2.78,2.78,0,0,0,.09,5.55A2.9,2.9,0,0,0,307.46,295.07Zm-85.55-1.31a2.87,2.87,0,0,0-2.74,2.82,2.67,2.67,0,0,0,2.67,2.81,2.82,2.82,0,0,0,.07-5.63Zm253.17,7.09a2.81,2.81,0,0,0-2.84-2.9,2.65,2.65,0,0,0-2.74,2.74,2.8,2.8,0,0,0,2.75,2.79A2.64,2.64,0,0,0,475.08,300.85ZM211.31,320.57a2.79,2.79,0,1,0,5.58-.25,2.84,2.84,0,0,0-2.77-2.79A3,3,0,0,0,211.31,320.57Zm354.83,55.59a2.75,2.75,0,0,0-2.62-2.9,2.8,2.8,0,0,0-2.86,2.88,2.74,2.74,0,1,0,5.48,0Zm-3.54,24.71A2.74,2.74,0,0,0,560,398a2.91,2.91,0,0,0-2.8,3,2.78,2.78,0,0,0,2.82,2.74A2.7,2.7,0,0,0,562.6,400.87Zm-192.74,14.3a2.78,2.78,0,0,0,2.86,2.68,2.63,2.63,0,0,0,2.73-2.74,2.8,2.8,0,1,0-5.59.06Zm94.64,18a3,3,0,0,0-2.85,2.78,2.79,2.79,0,0,0,2.77,2.79,3,3,0,0,0,3-2.88A2.85,2.85,0,0,0,464.5,433.16ZM227.3,445.23a2.75,2.75,0,0,0,2.7-2.82,2.79,2.79,0,0,0-2.93-2.81,2.54,2.54,0,0,0-2.59,2.68A2.85,2.85,0,0,0,227.3,445.23Zm315.29,5.34a2.81,2.81,0,0,0,2.82-2.91,2.66,2.66,0,0,0-2.82-2.67,2.89,2.89,0,0,0-2.74,2.83A2.71,2.71,0,0,0,542.59,450.57Zm-6.34,10.76a2.77,2.77,0,0,0,2.85-2.87,2.66,2.66,0,0,0-2.83-2.64,2.82,2.82,0,0,0-2.76,2.78A2.63,2.63,0,0,0,536.25,461.33ZM307.8,521.47a2.9,2.9,0,0,0-2.9-2.86,2.79,2.79,0,0,0,.13,5.57A2.65,2.65,0,0,0,307.8,521.47Zm11.41,5.33a3,3,0,0,0-3-2.82,2.69,2.69,0,0,0-2.68,2.65,2.87,2.87,0,0,0,2.87,2.91A2.82,2.82,0,0,0,319.21,526.8ZM548,293.19a2.86,2.86,0,0,0,2.91-2.66,2.93,2.93,0,0,0-2.84-3,2.76,2.76,0,0,0-2.79,2.74A2.93,2.93,0,0,0,548,293.19ZM214.76,308.4a3,3,0,0,0,2.8,2.83,2.81,2.81,0,0,0,2.76-3,2.69,2.69,0,0,0-2.8-2.69A3,3,0,0,0,214.76,308.4ZM380.54,416.72a2.64,2.64,0,0,0,2.71,2.76,2.58,2.58,0,0,0,2.87-2.75,2.71,2.71,0,0,0-2.78-2.72A2.76,2.76,0,0,0,380.54,416.72ZM521.18,245.48a2.74,2.74,0,0,0-2.76,2.75,3,3,0,0,0,3,2.84,2.65,2.65,0,0,0,2.62-2.86A2.81,2.81,0,0,0,521.18,245.48ZM330.89,531.37a2.88,2.88,0,0,0-3-2.81,2.67,2.67,0,0,0-2.69,2.81,3,3,0,0,0,2.85,2.78A2.89,2.89,0,0,0,330.89,531.37Zm155.7-316a2.71,2.71,0,0,0-2.85-2.83A2.4,2.4,0,0,0,481,215a2.75,2.75,0,0,0,2.71,3A2.71,2.71,0,0,0,486.59,215.38ZM309,439.5a3,3,0,0,0,2.8,3,2.68,2.68,0,0,0,2.77-2.72,2.79,2.79,0,0,0-5.57-.29Zm27.83-247.07a2.63,2.63,0,0,0,2.64,2.66,2.77,2.77,0,1,0,.26-5.54A2.86,2.86,0,0,0,336.81,192.43Zm-42.2,229.78A2.86,2.86,0,0,0,297.4,425a2.82,2.82,0,0,0,2.81-2.73,3,3,0,0,0-2.92-2.9A2.8,2.8,0,0,0,294.61,422.21ZM227,287.9a2.8,2.8,0,0,0,2.91-2.83,2.78,2.78,0,0,0-2.81-2.72,2.93,2.93,0,0,0-2.8,3A2.53,2.53,0,0,0,227,287.9Zm20.28,183.42a2.48,2.48,0,0,0-2.7,2.53,2.77,2.77,0,0,0,2.78,2.93,2.62,2.62,0,0,0,2.8-2.66A2.71,2.71,0,0,0,247.26,471.32Zm109-65.79a2.93,2.93,0,0,0-3-2.84,2.74,2.74,0,0,0-2.66,2.67,3,3,0,0,0,2.87,2.95A2.76,2.76,0,0,0,356.24,405.53ZM494.1,225.25a2.72,2.72,0,0,0,2.7-2.79,2.91,2.91,0,0,0-3-2.77,2.61,2.61,0,0,0-2.53,2.9A2.73,2.73,0,0,0,494.1,225.25ZM542.45,282a2.7,2.7,0,0,0,2.79-2.71,2.78,2.78,0,0,0-2.79-3,2.55,2.55,0,0,0-2.67,2.6A2.82,2.82,0,0,0,542.45,282ZM283.26,221.82a2.86,2.86,0,0,0,2.91-2.86,2.78,2.78,0,0,0-2.8-2.74,2.86,2.86,0,0,0-2.78,3A2.58,2.58,0,0,0,283.26,221.82Zm103.51,319.3a2.82,2.82,0,0,0,2.78,2.77,2.88,2.88,0,0,0,2.86-2.91,2.83,2.83,0,0,0-5.64.14ZM555.69,425a2.8,2.8,0,0,0-2.58-2.94,3,3,0,0,0-3,2.86,2.88,2.88,0,0,0,2.74,2.83A2.84,2.84,0,0,0,555.69,425ZM339.42,456.56a2.56,2.56,0,0,0-2.72,2.54,2.84,2.84,0,0,0,2.79,3,2.75,2.75,0,1,0-.07-5.5ZM211.69,397.77a2.72,2.72,0,0,0,2.67-2.83,2.76,2.76,0,0,0-3-2.76,2.62,2.62,0,0,0-2.52,2.92A2.66,2.66,0,0,0,211.69,397.77ZM297.76,307a2.78,2.78,0,1,0,.11-5.55,2.86,2.86,0,0,0-2.76,3A2.44,2.44,0,0,0,297.76,307ZM264.3,495.3a2.74,2.74,0,0,0,2.75-2.77,2.86,2.86,0,0,0-2.92-2.85,2.6,2.6,0,0,0-2.64,2.65A2.94,2.94,0,0,0,264.3,495.3Zm23-173.77a2.87,2.87,0,0,0-2.77,3,2.64,2.64,0,0,0,2.62,2.69,2.76,2.76,0,0,0,2.86-2.88A2.72,2.72,0,0,0,287.32,321.53Zm124-133.26a2.66,2.66,0,0,0,2.75,2.72A2.62,2.62,0,0,0,417,188.4a2.82,2.82,0,0,0-2.67-2.87A2.75,2.75,0,0,0,411.33,188.27ZM506.61,497a2.6,2.6,0,0,0-2.31-3.09,2.94,2.94,0,0,0-3.21,2.53,2.82,2.82,0,0,0,2.47,3A2.89,2.89,0,0,0,506.61,497Zm46.23-197.77a2.67,2.67,0,0,0-2.79,2.68,2.81,2.81,0,0,0,2.84,2.89,2.51,2.51,0,0,0,2.62-2.61A2.61,2.61,0,0,0,552.84,299.18ZM330.46,196a2.62,2.62,0,0,0-2.77-2.67,2.75,2.75,0,0,0-.13,5.49A2.79,2.79,0,0,0,330.46,196ZM480.79,417.67a2.66,2.66,0,0,0-2.75-2.73,2.87,2.87,0,0,0-2.73,3,2.72,2.72,0,0,0,2.87,2.63A2.82,2.82,0,0,0,480.79,417.67ZM317.5,447a3.08,3.08,0,0,0,2.8,3,2.82,2.82,0,0,0,2.81-2.74,2.93,2.93,0,0,0-2.87-2.92A2.9,2.9,0,0,0,317.5,447Zm-26.21,68.22a2.9,2.9,0,0,0,2.72,2.85,2.76,2.76,0,0,0,2.87-2.63,2.93,2.93,0,0,0-2.82-3A2.76,2.76,0,0,0,291.29,515.22ZM206.24,357.65a2.56,2.56,0,0,0,2.76,2.68,2.77,2.77,0,0,0,0-5.54A2.56,2.56,0,0,0,206.24,357.65Zm353.29,55.4a2.58,2.58,0,0,0-2.61-2.83,2.89,2.89,0,0,0-2.84,2.92,2.78,2.78,0,0,0,2.8,2.73A2.67,2.67,0,0,0,559.53,413.05ZM374.3,540.93a2.76,2.76,0,0,0,5.52,0,2.76,2.76,0,1,0-5.52,0ZM182.82,439.14c1.24.05,2.13-.58,2.11-2.37a2.13,2.13,0,0,0-2.09-2.24c-1.46-.08-2.08.88-2.1,2.27A2,2,0,0,0,182.82,439.14ZM588,434.53c-1.52.12-2,1.24-2.05,2.65a1.73,1.73,0,0,0,2.14,1.91c.91-.21,1.63-1.22,2.43-1.88C590.07,435.35,589.42,434.42,588,434.53Zm-403.83-9.28a2.51,2.51,0,0,0-2.38-.28,3.51,3.51,0,0,0-.75,2.72c.36,1.57,1.75,1.5,3.2,1.15A2.43,2.43,0,0,0,184.14,425.25Zm405.73.23c-1-1-2.16-1.38-3.15-.31a2.43,2.43,0,0,0-.06,3.64C589.54,429.3,590.26,428.57,589.87,425.48Zm-2.35-112.54c.49.46,2.05.62,2.38.25a3.48,3.48,0,0,0,.73-2.73c-.38-1.56-1.77-1.48-3.25-1.12A2.51,2.51,0,0,0,587.52,312.94Zm-402.59,0a2.44,2.44,0,0,0,0-3.63c-1.4-.29-2.8-.4-3.17,1.17a3.53,3.53,0,0,0,.76,2.73A2.49,2.49,0,0,0,184.93,312.93Zm-.13,133.52a2,2,0,0,0-4,.17c-.43,1.47.57,2.28,2.05,2.57C184.44,448.8,185.3,447.85,184.8,446.45ZM588,444.91a2.75,2.75,0,0,0-2,1.65c-.46,1.44.49,2.3,2,2.65,1.5-.38,2.45-1.25,2-2.69A2.78,2.78,0,0,0,588,444.91ZM332,702.65a1.9,1.9,0,0,0-1.95,2.23c.06,1.26.75,2.26,2.14,2a7.19,7.19,0,0,0,2.12-1.27C334,703.65,333.5,702.61,332,702.65Zm106.76,0a2,2,0,0,0-2,2.4c.12.79,1,1.47,1.33,1.86,2.14,0,2.74-.89,2.74-2.13A1.89,1.89,0,0,0,438.75,702.64Zm.71-657.26c1.27.4,2.1-.65,2.15-1.93s-.48-2.18-2.39-2.6c-.59.76-1.7,1.58-1.63,2.28A3.28,3.28,0,0,0,439.46,45.38Zm-106.78.08c1.49.11,2.08-.87,2.63-2.66a8,8,0,0,0-2.23-1.52c-1.35-.36-2.13.56-2.24,1.84A1.92,1.92,0,0,0,332.68,45.46Zm-80.17.25h1c.53-.83,1.52-1.69,1.46-2.47a2.9,2.9,0,0,0-2-1.88,1.68,1.68,0,0,0-2,2.07C251.09,44.25,252,45,252.51,45.71Zm12.4-2.31A1.68,1.68,0,0,0,263,41.33c-.88.15-1.65,1-2.47,1.53v.93c.81.53,1.65,1.51,2.44,1.46A2.85,2.85,0,0,0,264.91,43.4Zm7.35,2.29,1,0c.57-.79,1.6-1.58,1.59-2.37s-1-1.77-1.82-2a1.68,1.68,0,0,0-2.16,1.84C270.9,44.06,271.76,44.86,272.26,45.69Zm10.16,0,.89,0c.52-.78,1.39-1.53,1.49-2.36a1.8,1.8,0,0,0-2.1-2c-1.35.07-2.19.95-1.93,2.21C280.94,44.31,281.84,45,282.42,45.73Zm19.86,0,.89,0c.53-.78,1.4-1.51,1.5-2.35a1.79,1.79,0,0,0-2.08-2.06c-1.35.06-2.2.93-1.95,2.2C300.81,44.3,301.71,45,302.28,45.72Zm148.1,0c.54-.77,1.41-1.48,1.54-2.31a1.69,1.69,0,0,0-2-2,2.9,2.9,0,0,0-2,1.89c-.05.79.94,1.64,1.48,2.47Zm8.94,0,.89,0c.58-.74,1.48-1.41,1.65-2.23.26-1.26-.59-2.14-1.94-2.21a1.79,1.79,0,0,0-2.09,2C457.93,44.16,458.79,44.91,459.32,45.69Zm19.89,0,.89,0c.57-.75,1.47-1.43,1.63-2.25.26-1.26-.59-2.14-1.94-2.2a1.8,1.8,0,0,0-2.09,2.06C477.81,44.17,478.68,44.91,479.21,45.69Zm11,0c.52-.82,1.38-1.61,1.46-2.47a1.68,1.68,0,0,0-2.14-1.87,2.92,2.92,0,0,0-1.84,2c0,.78,1,1.59,1.57,2.38Zm9.94,0c.52-.82,1.38-1.61,1.46-2.47a1.68,1.68,0,0,0-2.14-1.87,2.86,2.86,0,0,0-1.83,2c0,.78,1,1.59,1.55,2.38Zm88.63,257.5c.86-.12,1.62-1,2.42-1.58,0-.32,0-.64,0-1-.81-.53-1.66-1.51-2.44-1.45a2.89,2.89,0,0,0-1.92,1.9A1.69,1.69,0,0,0,588.78,303.19Zm-405.07,0a1.69,1.69,0,0,0,1.9-2.12,2.93,2.93,0,0,0-2-1.87c-.77,0-1.6,1-2.4,1.51v1C182.07,302.2,182.84,303.09,183.71,303.18Zm405-9.94c.86-.09,1.64-1,2.45-1.51,0-.32,0-.65,0-1-.8-.54-1.63-1.54-2.41-1.5a2.9,2.9,0,0,0-2,1.86A1.69,1.69,0,0,0,588.74,293.24Zm-1.91-22a1.69,1.69,0,0,0,1.91,2.12c.86-.1,1.64-1,2.45-1.53v-1c-.81-.55-1.63-1.54-2.41-1.51A2.93,2.93,0,0,0,586.83,271.25ZM183.05,269c-.49.84-1.42,1.73-1.34,2.51a2.82,2.82,0,0,0,1.92,1.89,1.69,1.69,0,0,0,2-2.05c-.17-.87-1.07-1.6-1.65-2.39Zm-1.79-7c.82.51,1.62,1.38,2.49,1.46a1.7,1.7,0,0,0,1.86-2.17,2.87,2.87,0,0,0-2-1.82c-.77,0-1.58,1-2.37,1.56ZM589,249.47a1.66,1.66,0,0,0-2.19,1.8,2.93,2.93,0,0,0,1.67,2.15c.76.15,1.73-.72,2.61-1.15,0-.31.07-.63.11-.94C590.51,250.68,589.87,249.7,589,249.47Zm-405.4,4a1.69,1.69,0,0,0,2-2.05,2.91,2.91,0,0,0-1.89-1.94c-.77-.07-1.64.9-2.46,1.41l0,1C182,252.44,182.77,253.36,183.63,253.49Zm405.09-9.94c.86-.09,1.65-1,2.47-1.49v-1c-.8-.55-1.61-1.56-2.39-1.53a2.9,2.9,0,0,0-2,1.85A1.68,1.68,0,0,0,588.72,243.55Zm-.67,211.31a1.68,1.68,0,0,0-2,2,2.88,2.88,0,0,0,1.85,2c.77.09,1.65-.86,2.49-1.36,0-.32,0-.65,0-1C589.63,455.94,588.91,455,588.05,454.86ZM183.63,243.55a1.69,1.69,0,0,0,2-2.05,2.89,2.89,0,0,0-1.89-1.94c-.77-.07-1.64.9-2.46,1.41l0,1C182,242.5,182.77,243.42,183.63,243.55Zm-3.17,223.82c.82.52,1.69,1.49,2.46,1.42a2.87,2.87,0,0,0,1.89-1.94,1.69,1.69,0,0,0-2-2.05c-.86.13-1.61,1.05-2.4,1.61ZM588,468.79c.78,0,1.59-1,2.38-1.54l0-1c-.83-.52-1.62-1.4-2.48-1.48A1.69,1.69,0,0,0,586,467,2.9,2.9,0,0,0,588,468.79Zm.69-249.1a2.91,2.91,0,0,0-1.89,1.94,1.69,1.69,0,0,0,2,2.05c.86-.13,1.6-1.06,2.4-1.62l0-1C590.36,220.58,589.5,219.62,588.72,219.69Zm-407.47,2.47c.82.53,1.59,1.42,2.46,1.51a1.69,1.69,0,0,0,1.9-2.12,2.93,2.93,0,0,0-2-1.87c-.77,0-1.6,1-2.4,1.51Zm3.56,254.69a1.68,1.68,0,0,0-1.92-2.11c-.86.1-1.63,1-2.44,1.54v1c.81.54,1.64,1.53,2.42,1.48A2.91,2.91,0,0,0,184.81,476.85ZM588,474.74a1.68,1.68,0,0,0-2,2,2.91,2.91,0,0,0,1.86,2c.78.08,1.65-.88,2.48-1.39l0-1C589.63,475.8,588.9,474.87,588,474.74Zm.71-265a2.92,2.92,0,0,0-1.92,1.92,1.69,1.69,0,0,0,1.95,2.08c.86-.12,1.62-1,2.42-1.58,0-.32,0-.64,0-1C590.37,210.67,589.53,209.69,588.75,209.74ZM182.94,484.68c-.86.08-1.65,1-2.48,1.48,0,.32,0,.64,0,1,.8.56,1.61,1.57,2.38,1.55a2.93,2.93,0,0,0,2-1.85A1.69,1.69,0,0,0,182.94,484.68Zm.37,9.55h-.92c-.54.81-1.52,1.65-1.49,2.44a2.85,2.85,0,0,0,1.83,2,1.68,1.68,0,0,0,2.1-1.92C184.69,495.84,183.84,495.06,183.31,494.23ZM588.72,193.86c.86-.09,1.65-1,2.47-1.5,0-.32,0-.64,0-1-.8-.56-1.61-1.57-2.39-1.54a2.9,2.9,0,0,0-2,1.85A1.69,1.69,0,0,0,588.72,193.86Zm-403.11-2a2.92,2.92,0,0,0-1.85-2c-.77-.08-1.66.87-2.49,1.37,0,.32,0,.64,0,1,.78.59,1.5,1.52,2.36,1.67A1.69,1.69,0,0,0,185.61,191.85ZM586,506.58a2.88,2.88,0,0,0,1.86,2c.77.08,1.65-.87,2.48-1.37l0-1c-.79-.58-1.51-1.51-2.37-1.66A1.69,1.69,0,0,0,586,506.58Zm2,37.73a1.69,1.69,0,0,0-2,2,2.89,2.89,0,0,0,1.85,2c.77.09,1.66-.86,2.49-1.36l0-1C589.63,545.39,588.91,544.45,588.05,544.31ZM183.77,183.92a1.7,1.7,0,0,0,1.84-2.19,2.91,2.91,0,0,0-2-1.81c-.78,0-1.58,1-2.36,1.59l0,1C182.1,183,182.9,183.85,183.77,183.92ZM182.4,514.09c-.54.81-1.52,1.64-1.49,2.43a2.84,2.84,0,0,0,1.81,2,1.68,1.68,0,0,0,2.11-1.91c-.13-.89-1-1.67-1.5-2.51ZM588.74,174c.86-.1,1.64-1,2.45-1.52v-1c-.8-.55-1.63-1.55-2.41-1.52a2.9,2.9,0,0,0-1.95,1.88A1.68,1.68,0,0,0,588.74,174Zm-405.13-4c-.78,0-1.58,1-2.38,1.56l0,1c.82.52,1.62,1.39,2.48,1.47a1.7,1.7,0,0,0,1.87-2.16A2.89,2.89,0,0,0,183.61,170Zm-3.16,357c.82.53,1.67,1.51,2.44,1.46a2.91,2.91,0,0,0,1.92-1.91,1.69,1.69,0,0,0-1.94-2.09c-.86.11-1.62,1-2.42,1.57ZM588,528.43c.77,0,1.61-.94,2.42-1.48v-1c-.81-.54-1.57-1.44-2.44-1.55a1.69,1.69,0,0,0-1.92,2.11A2.9,2.9,0,0,0,588,528.43ZM586.83,162a1.69,1.69,0,0,0,1.95,2.08c.86-.11,1.62-1,2.42-1.57,0-.32,0-.64,0-1-.81-.53-1.66-1.51-2.44-1.46A2.91,2.91,0,0,0,586.83,162Zm-401.23-.11a2.88,2.88,0,0,0-2-1.8c-.78,0-1.57,1-2.36,1.58l0,1c.84.51,1.64,1.37,2.51,1.44A1.7,1.7,0,0,0,185.6,161.85ZM586,536.42a2.89,2.89,0,0,0,1.89,1.94c.77.07,1.63-.89,2.46-1.41,0-.32,0-.64,0-1-.79-.56-1.54-1.48-2.39-1.61A1.69,1.69,0,0,0,586,536.42Zm2.71-392.26c.87-.1,1.64-1,2.45-1.54v-1c-.81-.54-1.65-1.53-2.42-1.49a2.91,2.91,0,0,0-1.95,1.89A1.69,1.69,0,0,0,588.75,144.16Zm-405.13,0a1.68,1.68,0,0,0,2-2c-.16-.87-1.06-1.61-1.63-2.4l-.92,0c-.5.84-1.44,1.72-1.36,2.5A2.82,2.82,0,0,0,183.62,144.15Zm405.2-9.92c.86-.14,1.6-1.06,2.39-1.63l0-1c-.83-.51-1.7-1.47-2.47-1.4a2.93,2.93,0,0,0-1.88,2A1.69,1.69,0,0,0,588.82,134.23ZM182.27,543.94c-.5.84-1.43,1.72-1.36,2.52a2.83,2.83,0,0,0,1.92,1.88,1.67,1.67,0,0,0,2-2c-.18-.88-1.07-1.62-1.64-2.42Zm-1.81,12.89c.83.51,1.69,1.48,2.47,1.41a2.88,2.88,0,0,0,1.88-1.94,1.69,1.69,0,0,0-2-2c-.85.13-1.6,1-2.39,1.61ZM586,556.36a2.89,2.89,0,0,0,1.94,1.88c.78,0,1.61-.94,2.42-1.48v-1c-.81-.54-1.58-1.44-2.44-1.54A1.68,1.68,0,0,0,586,556.36Zm-401.23,9.95a1.68,1.68,0,0,0-1.9-2.12c-.87.09-1.64,1-2.46,1.52v1c.81.55,1.64,1.54,2.42,1.51A2.92,2.92,0,0,0,184.81,566.31Zm-4.35,10.4c.83.51,1.69,1.48,2.47,1.41a2.88,2.88,0,0,0,1.88-1.94,1.68,1.68,0,0,0-2-2c-.86.13-1.6,1-2.39,1.62C180.45,576.07,180.45,576.39,180.46,576.71ZM586,586.23a2.9,2.9,0,0,0,2,1.83c.78,0,1.59-1,2.38-1.55l0-1c-.83-.52-1.62-1.4-2.48-1.47A1.7,1.7,0,0,0,586,586.23ZM182.91,594c-.86.09-1.64,1-2.45,1.51,0,.33,0,.65,0,1,.8.55,1.63,1.55,2.4,1.51a2.9,2.9,0,0,0,2-1.87A1.68,1.68,0,0,0,182.91,594Zm1.92,12.07c-.13-.89-1-1.68-1.49-2.51l-.92,0c-.55.81-1.54,1.63-1.51,2.42a2.83,2.83,0,0,0,1.8,2A1.67,1.67,0,0,0,184.83,606.08ZM586,606a2.9,2.9,0,0,0,1.86,2c.77.08,1.65-.88,2.48-1.38l0-1c-.78-.58-1.51-1.51-2.37-1.65A1.68,1.68,0,0,0,586,606Zm1.92,7.91A1.69,1.69,0,0,0,586,616a2.9,2.9,0,0,0,1.94,1.89c.78,0,1.61-1,2.42-1.49v-1C589.59,614.88,588.82,614,588,613.88Zm.73-499.53c.87-.08,1.66-.95,2.49-1.46l0-1c-.79-.57-1.59-1.59-2.37-1.57a2.91,2.91,0,0,0-2,1.83A1.69,1.69,0,0,0,588.69,114.35Zm-405.06,0a1.69,1.69,0,0,0,2-2c-.17-.87-1.07-1.6-1.65-2.39l-.92,0c-.49.84-1.42,1.72-1.34,2.51A2.82,2.82,0,0,0,183.63,114.34ZM180.46,626.4c.83.52,1.69,1.48,2.47,1.42a2.89,2.89,0,0,0,1.88-2,1.68,1.68,0,0,0-2-2c-.86.13-1.6,1-2.39,1.62Zm407.47-2.58A1.69,1.69,0,0,0,586,626a2.92,2.92,0,0,0,2,1.86c.78,0,1.6-1,2.4-1.52,0-.32,0-.65,0-1C589.58,624.8,588.8,623.91,587.93,623.82ZM185.61,102.39a2.94,2.94,0,0,0-1.86-2c-.78-.07-1.66.88-2.49,1.39l0,1c.78.58,1.51,1.51,2.37,1.65A1.69,1.69,0,0,0,185.61,102.39Zm403.11-7.92c.86-.09,1.65-1,2.47-1.5,0-.32,0-.64,0-1-.8-.56-1.62-1.56-2.4-1.54a2.92,2.92,0,0,0-2,1.86A1.68,1.68,0,0,0,588.72,94.47ZM182.94,633.76c-.86.08-1.65,1-2.48,1.48l0,1c.8.56,1.6,1.57,2.38,1.54a2.9,2.9,0,0,0,2-1.83A1.69,1.69,0,0,0,182.94,633.76Zm.76-539.29a1.69,1.69,0,0,0,1.91-2.12,2.9,2.9,0,0,0-2-1.87c-.78,0-1.61,1-2.41,1.51,0,.32,0,.64,0,1C182.06,93.49,182.84,94.38,183.7,94.47Zm405-13.93a2.92,2.92,0,0,0-1.86,2,1.69,1.69,0,0,0,2,2c.86-.14,1.58-1.08,2.36-1.66l0-1C590.34,81.41,589.46,80.46,588.69,80.54ZM182.94,643.7c-.86.08-1.65,1-2.48,1.48l0,1c.8.56,1.61,1.57,2.38,1.55a2.91,2.91,0,0,0,2-1.84A1.7,1.7,0,0,0,182.94,643.7Zm.65-559.18a1.69,1.69,0,0,0,2-2c-.15-.87-1-1.62-1.59-2.43l-.92,0c-.51.83-1.46,1.69-1.41,2.48A2.89,2.89,0,0,0,183.59,84.52Zm-.69,569.12c-.87.1-1.64,1-2.45,1.54v1c.81.54,1.64,1.54,2.42,1.49a2.89,2.89,0,0,0,1.94-1.88A1.68,1.68,0,0,0,182.9,653.64Zm405,9.94a1.69,1.69,0,0,0-1.9,2.12,2.9,2.9,0,0,0,2,1.87c.78,0,1.6-1,2.41-1.51,0-.32,0-.65,0-1C589.58,664.56,588.8,663.67,587.94,663.58ZM538.82,45.69l.9,0c.57-.74,1.48-1.41,1.65-2.24.26-1.26-.58-2.14-1.93-2.21a1.8,1.8,0,0,0-2.1,2C537.43,44.16,538.3,44.9,538.82,45.69ZM586,635.83a2.89,2.89,0,0,0,1.91,1.92c.77.06,1.63-.92,2.44-1.44,0-.32,0-.64,0-1-.8-.56-1.55-1.47-2.41-1.59A1.69,1.69,0,0,0,586,635.83ZM510,45.71c.54-.77,1.41-1.48,1.54-2.31a1.68,1.68,0,0,0-2-2,2.9,2.9,0,0,0-2,1.89c-.05.79.94,1.64,1.49,2.47ZM222.94,702.43l-.9,0c-.59.72-1.5,1.37-1.69,2.19-.3,1.26.54,2.15,1.88,2.26a1.8,1.8,0,0,0,2.14-2C224.29,704,223.44,703.23,222.94,702.43Zm8.85,0c-.53.78-1.39,1.5-1.52,2.33a1.7,1.7,0,0,0,2,2,2.91,2.91,0,0,0,1.94-1.92c0-.79-1-1.63-1.52-2.45Zm29.79,0c-.52.82-1.39,1.6-1.48,2.46a1.68,1.68,0,0,0,2.12,1.89,2.89,2.89,0,0,0,1.85-2c0-.79-1-1.6-1.53-2.4Zm10.05,0c-.56.79-1.46,1.53-1.59,2.39a1.67,1.67,0,0,0,2,2,2.88,2.88,0,0,0,1.94-1.88c.06-.78-.91-1.64-1.43-2.47Zm19.74,0c-.51.83-1.37,1.62-1.46,2.48a1.68,1.68,0,0,0,2.14,1.87,2.92,2.92,0,0,0,1.84-2c0-.79-1-1.59-1.56-2.39Zm11,0-.89,0c-.57.74-1.46,1.43-1.62,2.25-.25,1.27.61,2.13,2,2.19a1.8,1.8,0,0,0,2.07-2.08C303.78,703.92,302.9,703.19,302.36,702.41Zm9.93,0-.89,0c-.56.74-1.46,1.43-1.61,2.26-.25,1.27.62,2.13,2,2.18a1.8,1.8,0,0,0,2.06-2.09C313.71,703.91,312.83,703.18,312.29,702.41Zm136.68.45a2.7,2.7,0,0,0-1.81,2,2.67,2.67,0,0,0,1.91,1.87c.8,0,1.64-1,2.46-1.52l0-1C450.65,703.73,449.76,702.78,449,702.86Zm10.09-.05a2.94,2.94,0,0,0-2,1.86c-.08.78.88,1.65,1.39,2.49l.95,0c.58-.8,1.49-1.53,1.64-2.39A1.65,1.65,0,0,0,459.06,702.81Zm30.33-.4-.95,0c-.55.81-1.57,1.65-1.54,2.43a2.94,2.94,0,0,0,1.93,1.94,1.69,1.69,0,0,0,2.05-2C490.77,703.91,489.92,703.18,489.39,702.41Zm9.84,0-.9,0c-.54.77-1.43,1.49-1.55,2.32a1.8,1.8,0,0,0,2.05,2.1c1.35,0,2.22-.9,2-2.17C500.67,703.84,499.78,703.14,499.23,702.39Zm9.44.47a2.83,2.83,0,0,0-1.93,1.89,1.66,1.66,0,0,0,2,2c.88-.16,1.63-1,2.43-1.57,0-.31,0-.62,0-.93C510.31,703.75,509.45,702.8,508.67,702.86Zm20.36-.47-.94,0c-.53.83-1.49,1.69-1.43,2.47a2.88,2.88,0,0,0,1.94,1.88,1.67,1.67,0,0,0,2-2C530.5,703.92,529.59,703.18,529,702.39Zm9.92,0-1,0c-.51.83-1.47,1.7-1.4,2.48a2.91,2.91,0,0,0,2,1.86,1.67,1.67,0,0,0,2-2C540.43,703.91,539.52,703.17,539,702.39ZM222.64,45.7h.94c.56-.81,1.57-1.65,1.52-2.44s-1.14-1.75-1.93-1.92a1.69,1.69,0,0,0-2,2C221.25,44.21,222.11,44.93,222.64,45.7Zm365.27,598a1.69,1.69,0,0,0-1.87,2.15,2.93,2.93,0,0,0,2,1.85c.78,0,1.59-1,2.38-1.55,0-.32,0-.65,0-1C589.57,644.66,588.78,643.78,587.91,643.7ZM589,120.26a1.78,1.78,0,0,0-2.27,1.81,1.84,1.84,0,0,0,1.92,2.22c.83,0,1.63-.82,2.44-1.27,0-.3.08-.6.11-.89C590.51,121.48,589.87,120.49,589,120.26Zm-407.78,32.3c.81.55,1.58,1.44,2.44,1.54a1.69,1.69,0,0,0,1.92-2.11,2.92,2.92,0,0,0-2-1.88c-.78,0-1.61.95-2.42,1.49C181.24,151.92,181.25,152.24,181.25,152.56Zm1.69,302.3c-.87.08-1.66,1-2.48,1.49,0,.32,0,.64,0,1,.8.55,1.61,1.56,2.39,1.53a2.9,2.9,0,0,0,2-1.84A1.69,1.69,0,0,0,182.94,454.86Zm408.25-194c-.81-.53-1.66-1.5-2.44-1.45a2.91,2.91,0,0,0-1.92,1.91,1.69,1.69,0,0,0,1.95,2.08c.86-.11,1.62-1,2.42-1.58C591.2,261.53,591.2,261.21,591.19,260.89Zm-3.31,303.3a1.7,1.7,0,0,0-1.84,2.19,2.91,2.91,0,0,0,2,1.81c.78,0,1.57-1,2.36-1.59l0-1C589.55,565.12,588.74,564.25,587.88,564.19ZM586,516.57a2.91,2.91,0,0,0,1.91,1.92c.77.06,1.62-.92,2.44-1.44l0-1c-.8-.56-1.55-1.47-2.41-1.59A1.7,1.7,0,0,0,586,516.57ZM182.86,538.36a2.86,2.86,0,0,0,1.95-1.87,1.69,1.69,0,0,0-1.91-2.12c-.86.1-1.63,1-2.45,1.53v1C181.25,537.41,182.08,538.4,182.86,538.36ZM588,578.12c.78,0,1.62-.94,2.43-1.47v-1c-.8-.54-1.57-1.44-2.43-1.55a1.68,1.68,0,0,0-1.93,2.09A2.9,2.9,0,0,0,588,578.12Zm0,79.51c.77,0,1.61-.94,2.42-1.48v-1c-.81-.55-1.57-1.45-2.44-1.55a1.69,1.69,0,0,0-1.92,2.1A2.88,2.88,0,0,0,588,657.63Zm-403.17,8.12a1.69,1.69,0,0,0-1.85-2.17c-.87.07-1.67.94-2.49,1.45,0,.33,0,.65,0,1,.8.56,1.6,1.58,2.38,1.56A2.9,2.9,0,0,0,184.81,665.75ZM183,588.06a2.91,2.91,0,0,0,1.84-2,1.68,1.68,0,0,0-2-2c-.86.14-1.58,1.08-2.36,1.67,0,.32,0,.65,0,1C181.31,587.2,182.2,588.14,183,588.06ZM588.74,233.61c.86-.09,1.64-1,2.45-1.51,0-.33,0-.65,0-1-.81-.55-1.64-1.54-2.41-1.51a2.91,2.91,0,0,0-2,1.87A1.69,1.69,0,0,0,588.74,233.61Zm-405,49.7a1.7,1.7,0,0,0,1.88-2.15,3,3,0,0,0-2-1.85c-.77,0-1.59,1-2.38,1.54,0,.32,0,.65,0,1C182.08,282.34,182.87,283.23,183.73,283.31Zm407.45-2.61c-.83-.51-1.71-1.47-2.48-1.39a2.93,2.93,0,0,0-1.87,2,1.69,1.69,0,0,0,2,2c.86-.14,1.59-1.07,2.37-1.65ZM183.72,293.25a1.7,1.7,0,0,0,1.89-2.15,2.9,2.9,0,0,0-2-1.84c-.78,0-1.59,1-2.39,1.52v1C182.07,292.28,182.86,293.16,183.72,293.25ZM549,702.4h-1c-.54.82-1.55,1.67-1.5,2.45s1.16,1.74,2,1.91a1.69,1.69,0,0,0,2-2C550.39,703.89,549.52,703.17,549,702.4Zm42.2-550.87c-.83-.52-1.69-1.49-2.47-1.42a2.91,2.91,0,0,0-1.89,1.94,1.69,1.69,0,0,0,2,2c.86-.12,1.6-1,2.4-1.61C591.2,152.17,591.2,151.85,591.19,151.53ZM519.12,45.72l1,0c.49-.83,1.44-1.72,1.35-2.49a2.91,2.91,0,0,0-2-1.84,1.66,1.66,0,0,0-2,2C517.6,44.21,518.54,44.94,519.12,45.72Zm29.54-.06.94.07c.59-.78,1.65-1.55,1.65-2.33a2.92,2.92,0,0,0-1.82-2,1.68,1.68,0,0,0-2.15,1.89C547.34,44.08,548.17,44.86,548.66,45.66Zm-78.43.05c.55-.76,1.43-1.46,1.57-2.29a1.69,1.69,0,0,0-2-2.07c-.79.16-1.93,1.18-2,1.88s.94,1.64,1.47,2.47ZM322,45.7H323c.55-.82,1.55-1.67,1.5-2.45a2.9,2.9,0,0,0-1.94-1.91,1.7,1.7,0,0,0-2,2C320.65,44.22,321.51,44.94,322,45.7Zm-10,0,.95,0c.55-.82,1.57-1.65,1.54-2.44a2.93,2.93,0,0,0-1.93-1.93,1.69,1.69,0,0,0-2.05,2C310.7,44.19,311.55,44.92,312.07,45.7Zm-19.75,0,.89,0c.54-.78,1.42-1.51,1.53-2.34a1.8,1.8,0,0,0-2.06-2.08c-1.35,0-2.22.91-2,2.18C290.86,44.29,291.75,45,292.32,45.72ZM586,496.67a2.89,2.89,0,0,0,1.89,1.94c.77.06,1.63-.9,2.46-1.42,0-.32,0-.64,0-1-.79-.57-1.53-1.48-2.39-1.61A1.68,1.68,0,0,0,586,496.67Zm-56.1-451c.52-.78,1.38-1.5,1.49-2.34a1.69,1.69,0,0,0-2-2,2.87,2.87,0,0,0-1.92,1.93c0,.79,1,1.62,1.53,2.43Zm58.79,138.22c.86-.09,1.64-1,2.46-1.51,0-.32,0-.64,0-1-.8-.55-1.62-1.55-2.4-1.52a2.87,2.87,0,0,0-2,1.85A1.69,1.69,0,0,0,588.73,183.92ZM588,598c.78,0,1.6-1,2.4-1.51,0-.32,0-.65,0-1-.81-.53-1.59-1.42-2.45-1.51a1.69,1.69,0,0,0-1.9,2.12A2.9,2.9,0,0,0,588,598ZM242.61,45.72l.95,0c.52-.83,1.49-1.68,1.43-2.47a2.87,2.87,0,0,0-1.94-1.87,1.67,1.67,0,0,0-2,2C241.14,44.18,242.05,44.92,242.61,45.72Zm-10,0h.94c.55-.82,1.56-1.66,1.51-2.45a2.9,2.9,0,0,0-1.94-1.91,1.69,1.69,0,0,0-2,2C231.2,44.21,232.06,44.93,232.59,45.7ZM184.83,506.59c-.17-.89-1.05-1.63-1.62-2.44l-.91,0c-.51.84-1.45,1.71-1.39,2.5a2.81,2.81,0,0,0,1.9,1.9A1.66,1.66,0,0,0,184.83,506.59Zm56.88,195.82c-.52.81-1.4,1.59-1.49,2.46a1.68,1.68,0,0,0,2.12,1.89,2.9,2.9,0,0,0,1.86-2c0-.78-1-1.6-1.54-2.4Zm9.84,0c-.49.83-1.33,1.65-1.39,2.51a1.69,1.69,0,0,0,2.19,1.82,2.93,2.93,0,0,0,1.79-2c0-.78-1-1.56-1.63-2.34Zm-68.83-84.52a1.67,1.67,0,0,0,2.11-1.9c-.13-.89-1-1.68-1.5-2.51l-.92,0c-.54.82-1.53,1.64-1.51,2.44A2.82,2.82,0,0,0,182.72,617.91Zm98.75,84.5c-.53.81-1.4,1.59-1.5,2.45a1.68,1.68,0,0,0,2.12,1.9,2.91,2.91,0,0,0,1.86-2c0-.79-1-1.61-1.52-2.41ZM181.23,122.64c.79.58,1.52,1.51,2.38,1.65a1.69,1.69,0,0,0,2-2,3,3,0,0,0-1.86-2c-.78-.07-1.66.88-2.49,1.38Zm4.38,79a2.93,2.93,0,0,0-2-1.87c-.77,0-1.6,1-2.4,1.51,0,.33,0,.65,0,1,.82.53,1.6,1.43,2.46,1.52A1.69,1.69,0,0,0,185.61,201.67ZM588.7,199.8a2.91,2.91,0,0,0-1.87,2,1.69,1.69,0,0,0,2,2c.86-.14,1.59-1.07,2.38-1.64l0-1C590.35,200.68,589.48,199.73,588.7,199.8ZM321.16,702.42c-.51.79-1.34,1.54-1.44,2.38a1.69,1.69,0,0,0,2.11,2,2.86,2.86,0,0,0,1.87-2c0-.78-1-1.59-1.6-2.39ZM183.67,130.24c-.78-.05-1.62.93-2.43,1.47v1c.81.54,1.58,1.44,2.44,1.55a1.69,1.69,0,0,0,1.93-2.11A2.91,2.91,0,0,0,183.67,130.24ZM588,484.68a1.69,1.69,0,0,0-2,2.05,2.92,2.92,0,0,0,1.88,1.95c.78.06,1.64-.9,2.47-1.42,0-.32,0-.64,0-1C589.62,485.73,588.88,484.81,588,484.68ZM468.85,702.37c-.64.73-1.64,1.37-1.86,2.22a1.66,1.66,0,0,0,1.81,2.17,2.93,2.93,0,0,0,2.13-1.68c.15-.77-.72-1.73-1.15-2.6Zm10.69.06-1,0c-.58.79-1.62,1.57-1.63,2.35a2.89,2.89,0,0,0,1.8,2,1.69,1.69,0,0,0,2.19-1.81C480.88,704.07,480,703.26,479.54,702.43Zm109.17-598c.86-.08,1.65-1,2.48-1.49l0-1c-.8-.56-1.61-1.57-2.39-1.54a2.88,2.88,0,0,0-2,1.84A1.69,1.69,0,0,0,588.71,104.41Zm-405,125.21c-.78-.05-1.62.94-2.43,1.47,0,.32,0,.64,0,1,.81.55,1.57,1.46,2.44,1.57a1.7,1.7,0,0,0,1.93-2.1A2.92,2.92,0,0,0,183.68,229.62Zm333,475.06a1.67,1.67,0,0,0,1.91,2.09c.88-.13,1.66-1,2.49-1.5,0-.3,0-.61,0-.92-.81-.54-1.63-1.53-2.42-1.49A2.83,2.83,0,0,0,516.68,704.68ZM183.24,209.29c-.55.8-1.56,1.61-1.54,2.39a2.84,2.84,0,0,0,1.78,2,1.68,1.68,0,0,0,2.14-1.88c-.1-.88-.94-1.68-1.45-2.52Zm123.59,163c7.29-.72,14-3.68,18.88-10.1,2.33-3.08,3-6.49,1-10.05s-5.24-4.8-9.07-4.42c-8.11.79-14.27,4.94-18.78,11.57-1.92,2.82-3.32,6.12-1.53,9.33S302.79,372.26,306.83,372.33Zm-.18-16.8c4.6-3.22,9.57-5.54,15.41-3.41-3.95,1.88-8.84-.49-12.91,3.1l2.75,2.28c-2.7,2.31-7,3.12-8.19,7.6,4.47,1.12,7.35-1.72,10.73-3,.15,1,.3,2.06.45,3.11,2.15,0,3.21-1.13,4.15-2.43,1.68-2.33,3.33-4.69,5.23-6.84-.84,5.82-5.06,8.77-9.75,11.17-6,3.06-11.9,3.1-15.17.22C299.14,361.85,302.57,358.39,306.65,355.53Zm65.71-21.87c-.56.82-1.56,1.64-1.54,2.44a2.81,2.81,0,0,0,1.84,2,1.76,1.76,0,0,0,2.16-1.93c-.11-.87-1-1.65-1.55-2.47Zm-2.25-4c.66.67,1.28,1.84,2,1.88s1.68-.88,2.52-1.38l0-.94c-.76-.52-1.61-1.57-2.24-1.45C371.55,327.89,370.87,329,370.11,329.62Zm-.58-3.81A2.64,2.64,0,0,0,371,324c.06-.51-.73-1.45-1.31-1.62-1.32-.38-2.3.27-2.64,1.82C367.39,325.61,368.28,326.29,369.53,325.81Zm-5.24-3.06c.71.08,1.54-.83,2.32-1.3,0-.31,0-.61,0-.92-.7-.48-1.45-1.4-2.1-1.33s-1.81,1.05-1.83,1.66A2.5,2.5,0,0,0,364.29,322.75Zm86.93,53.35c8.18-.8,14.38-5,18.89-11.72,1.89-2.83,3.25-6.14,1.34-9.33s-5.42-3.46-9.44-3.51c-7.26.69-14,3.65-18.85,10.08-2.32,3.06-3,6.47-1,10S447.37,376.47,451.22,376.1Zm1.42-18.43c5.38-2.79,10.84-4.87,16.91-1.47.07,6-3.46,9.5-7.72,12.36-4.53,3.06-9.36,5.35-15,3.44,0-.21-.09-.42-.13-.64,1.12-.16,2.23-.38,3.35-.47,2.1-.16,4.24-.12,6.32-.43,1.06-.15,2-.87,3.62-1.6l-3-2.5c2.56-2.34,6.91-3.07,8.15-7.63-4.44-1.12-7.37,1.76-10.73,3-.16-1.07-.31-2.09-.52-3.45-5.13,1.68-5.83,6.92-9.2,9.56C443.49,365.27,448.58,359.77,452.64,357.67ZM396.07,389.8c.88-.14,1.63-1.07,2.43-1.64,0-.29,0-.58,0-.87-.76-.54-1.48-1.42-2.31-1.53a1.9,1.9,0,0,0-2.19,2A1.81,1.81,0,0,0,396.07,389.8Zm.24,2.09c-.59.79-1.48,1.51-1.68,2.39a1.56,1.56,0,0,0,1.88,1.89,3.39,3.39,0,0,0,2.11-2c.16-.57-.9-1.49-1.42-2.25Zm1.61,7.81a2.33,2.33,0,0,0,1.37,1.75c1.33.38,2.26-.35,2.68-2.35a6.77,6.77,0,0,0-2.53-1.05C398.9,398.05,398,399.08,397.92,399.7Zm6.56,5c.66.06,1.42-.86,2.69-1.73-1.25-.92-1.91-1.76-2.68-1.88a1.55,1.55,0,0,0-1.84,1.92A2.65,2.65,0,0,0,404.48,404.66ZM396.61,83.72c-1.65-.09-3.3-.2-5-.22-5.75,0-11.51-.09-17.27-.08-1.12,0-2.58.11-2.43,1.6.06.62,1.39,1.33,2.26,1.61a22.13,22.13,0,0,0,3.75.54q-.54,14.46-1.06,28.45c-1.86,1.08-4.57-.16-5.94,3a15.23,15.23,0,0,0,3.63,1c7,0,14-.08,21-.18,1.26,0,2.24-.59,2.28-2s-1-1.92-2.22-2.06c-1-.12-2.06-.12-3-.17V87.82c1.45,0,2.7.06,3.94,0s2.23-.63,2.23-2S397.9,83.79,396.61,83.72Zm-8.84,31.76h-6V87.16l7.28.4C388.59,96.94,388.19,106.08,387.77,115.48Z"/></svg>