<svg xmlns="http://www.w3.org/2000/svg" viewBox="0 0 750 750"><path d="M606.05,51.39c0-1.19,0-2.38,0-3.57-.12-13.28-9.63-22.7-22.92-22.7q-197.33,0-394.67-.12c-13.66,0-24.08,10-24.05,24.13q.34,163,.13,325.91,0,163.75,0,327.5a23.08,23.08,0,0,0,.61,5.5c2.62,10.62,11.25,17,22.92,17H583.55c8.29-.19,14.8-3.62,19.27-10.67,2.65-4.18,3.24-8.85,3.24-13.7Q606,376,606.05,51.39Zm-4.28,650.34c0,11.51-7.5,19-19,19H187.65c-9.42,0-16.54-5.37-18.44-14a22.62,22.62,0,0,1-.38-4.94q0-163.46,0-326.92t0-327.12c0-9,5.36-16,13.85-17.92a19.62,19.62,0,0,1,4.33-.4H583.68a17.67,17.67,0,0,1,18.09,17.89c0,1.2,0,2.39,0,3.58Zm-197-151.61a4,4,0,0,1,1.15-.21l9.74-.47c3.11,3,6.95.64,7.61-4.56l14.28-13.17c2.67,1.5,4.51,3.87,7.85,3.36,1.34-3.29-1.33-6.09-1.27-9.19,2.52-2.07,6.31-2.46,8.05-5.78-2-3-5.32-1.38-7.81-2.77,7.2-13.76,12.63-28.23,17.43-43,2.63,1,4.13.53,4.63-1.3s-.41-2.61-3.29-3.32c2-4.59,2.08-9.84,5.06-14.1a2.19,2.19,0,0,0,.39-1.51c-.69-3,.92-5.67,1.41-8.5a2.76,2.76,0,0,1,.81-1.53,4.14,4.14,0,0,0,1.25-4.84,3,3,0,0,1-.1-1.55c.66-2.9,1.37-5.78,2-8.56,3.4-2.32,4.45-4.5,3.16-7.35-1.59-3.5-.49-6.44,1.23-9.45a7.77,7.77,0,0,0,.68-3.17c.11-1.35-.18-2.73,0-4.06a77,77,0,0,1,1.51-7.79c.3-1.22,1.12-2.29,1.52-3.49a11.72,11.72,0,0,0,.56-3.16c0-1.34-.37-2.73-.17-4,1.3-8.64,2.83-17.24,4.05-25.89,1.79-12.64,3.5-25.3,5-38,1.17-9.72,2.07-19.47,2.94-29.22.81-9.17,1.41-18.35,2.14-27.52.44-5.39-.4-10.3-4.81-14a16.67,16.67,0,0,1-2-2.19c-1.9-2.29-4.38-2.89-6.87-1.25a19.51,19.51,0,0,0-4.14,3.93c-2.57,3.1-5,6.33-7.48,9.52-3.16,4.09-6.53,8-9.4,12.31-7.78,11.6-15.18,23.45-23,35-12.23,18.1-24.68,36.06-37.07,54.05-2,2.94-4.24,5.76-6.35,8.6l4.31-14.8c3.78-.19,6.66-2.3,7.5-5.52.37-1.41.17-2.88-1.15-3.46a4.15,4.15,0,0,0-3,.48,20.2,20.2,0,0,0-3.11,2.37V345c3.66-.2,5.39-2.64,6.66-5.56.81-1.87.49-3.61-.79-4.26-1.73-.89-2.73.34-3.68,1.46s-1.79,2.34-2.89,3.8l-1.26-6.17c4.82-1.9,7.05-4.93,6.69-8.92a2.91,2.91,0,0,0-2.3-2.85c-1.57-.43-2.36.52-3,1.71-.89,1.73-1.72,3.49-2.75,5.59l-2.64-6.67,1.39-1.24a9.6,9.6,0,0,0,3.32-8.16c-.13-2.27-1.31-4.2-2.85-4.28-2.25-.1-2.75,1.79-3.28,3.39s-.79,3.27-1.24,5.24c-.73-1.12-1.24-2-1.8-2.76a8,8,0,0,1-1.89-5.39c.19-3.53-3.92-7.19-7.37-6.87a4.7,4.7,0,0,0-3.22,1.74c-.42.65.07,2.44.76,3.14a74.28,74.28,0,0,0,7.1,6.28c1.81,1.42,2.72,3.3,4.16,5.51-3.29-1.12-5.95-2.82-8.75-.75.71,5.09,5,7.08,11.12,5.32.78,2,1.58,4,2.43,6.21-2.28-.71-4.2-1.41-6.18-1.85a2.79,2.79,0,0,0-2.31.54,2.93,2.93,0,0,0,0,2.35c1.09,3,4.18,4.36,7.69,3.64.61-.13,1.23-.23,2-.39.43,2.45.81,4.63,1.27,7.23a20.44,20.44,0,0,0-2.08-1.16,19.28,19.28,0,0,0-4.08-1.39c-2.08-.29-2.91.91-2.3,3a5.87,5.87,0,0,0,6.29,3.79c.75-.1,1.49-.26,2.26-.39v7.1c-6.6-3.17-6.6-3.17-8.93-2.46.35,1.57.33,3.32,1.11,4.59,1.62,2.63,4.28,3.5,7.54,2.81-.43,2-.79,3.67-1.2,5.57-2.4-2.05-4.63-3.63-8.13-3.1a11.64,11.64,0,0,0,.31,3c1.11,2.83,3.55,3.91,6.57,4.25-.47,1.26-.83,2.31-1.26,3.34s-1,2.27-1.39,3.08c-1.54.08-2.94-.22-3.9.29s-1.66,1.88-2.37,2.74c-.23-1.88-.37-4-.76-6.07-1.18-6.3-2.22-12.65-3.79-18.86a94.44,94.44,0,0,0-4.73-13.64,10.84,10.84,0,0,0-7.67-6.66c-1.4-.32-2.53-.23-3.27,1.06-.84,1.48-.83,3.18.52,4.14.78.55,2.26.2,3.42.13.41,0,.79-.44,1.28-.73,6.4,3.2,6.12,10.12,8.78,15.37a7.75,7.75,0,0,1-1.47-1.38c-2.26-2.35-5.21-3.15-7.74-2.1a3,3,0,0,0-.78,5.18c1.55,1.28,2.59,1.12,5.59-1.12a11.14,11.14,0,0,1,2.39,2.51,49.64,49.64,0,0,1,5.1,20.25,70.58,70.58,0,0,1-.41,7.1l-.52.05c-.6-1.16-1.25-2.3-1.8-3.48a156.39,156.39,0,0,0-16.25-27.26c-5.37-7.14-10.61-14.37-16-21.47a27.64,27.64,0,0,1-5.29-12.47,22.33,22.33,0,0,0-1.45-4.93,2.09,2.09,0,0,0-3.44-.93,20.08,20.08,0,0,0-2.67,2.77,4.7,4.7,0,0,1-1.35-4.91c.65-2.69.91-5.48,1.42-8.22,1.78-9.44-.56-17.84-6.34-25.39-1.21-1.58-2-1.6-3.35-.28-4.44,4.21-5.81,9.46-5.39,15.37,0,.47,0,1,0,1.74-.4-.48-.62-.72-.8-1-5.31-7.52-10.76-14.94-15.88-22.59-2.71-4.05-4.73-8.56-7.25-12.75A14.8,14.8,0,0,0,275,250.78c-.94.48-1.9.93-2.88,1.32-2.87,1.15-4.26,3.56-3.23,6.53a17.88,17.88,0,0,0,3.13,5.67,13.14,13.14,0,0,1,3,8.16c.34,5.81.59,11.64,1.29,17.41,1.07,8.8,2.5,17.56,3.75,26.33a3.29,3.29,0,0,1-.07,1.93c-1.22,2.06-.46,3.51,1.27,4.73.61,3.08,1.22,6.12,1.81,9-2.76,3.53-2.25,5.6,1.75,7.44.64,2.45,1.29,5,2,7.53l-.42.42-4.28-2.7c-1.75,2.95.36,5.05,5.84,6.17.41,1.35.85,2.78,1.25,4.13-3.07,3.66-2.37,9.29,3.51,10.2l1.77,4.4c-2.23,2.2-2.92,4.56-1.78,6.31.33.52,1.15.72,1.89,1.15l.87-4a14.1,14.1,0,0,1,2.26,3.57c.61,1.24,1.23,2.48,1.81,3.64-2,3.9-.93,5.71,4,6.72l3.64,5.05c.1,3.53.68,4.16,4.22,4.58,9.56,9.1,20.09,11.47,31.74,4.18,3.8,1.54,7-.41,6.76-5.1,3.69-5.44,7.14-10.5,10.62-15.64l2,2.91a8.69,8.69,0,0,1-.65.67c-3.53,2.86-3.31,4.81.4,7.35,3.49,2.39,6.76,5.11,10.09,7.71a10,10,0,0,1,1.26,1.47c-.51.83-.89,1.54-1.36,2.17-5.89,8-11.66,16.08-17.73,23.93-5.62,7.28-11.58,14.29-17.36,21.45-4.22,5.21-3.83,8.61,1.26,12.77a5.83,5.83,0,0,0,5.76,1.09,14.29,14.29,0,0,0,6.52-4.7c1.33-1.52,2.65-3.06,4.23-4.87.73,3.4,1.37,6.42,2,9.36-2,3.63-1.71,4.79,1.49,6.32.28,1.18.58,2.45.87,3.65-5,4.41-3.66,9.48,2.62,10.52,2.08,4.83,2.36,10.14,4.6,14.95s3.68,10.07,5.79,15A144.65,144.65,0,0,0,379.23,526c2.63,4.64,5.78,9,8.84,13.71-.53,2.13.37,4,4.31,3.83l6.83,4.62C400.71,551,401.59,551.33,404.75,550.12Zm40.91-29.24c-1.72,1.48-3.82,2.46-4.43,4s.22,3.79.46,6.12c-3.17-2.82-5.95-1.3-9.25.93,1.4-4.84-.39-7.81-4.33-9.75l.3-.42a23.31,23.31,0,0,1,4-.9c2.4-.13,3.17-1.54,3.35-3.62.07-.85.2-1.69.3-2.54l.53-.46C437.46,519.48,441.15,520.79,445.66,520.88Zm30.73-257.44c.15-1.32,1.57-2.5,2.4-3.74l.54.11c0,1.4,0,2.79,0,4.19.07,1.88.54,3.6,2.55,4.29a4.23,4.23,0,0,0,5.1-1.63,22,22,0,0,0,2.39-3.82,2.78,2.78,0,0,0-.08-2.28c-.55-.83-1.51-1.87-2.33-1.91-1.35-.06-1.41,1.27-1.25,2.4a8.41,8.41,0,0,1,0,1l-1.9,2c-1.54-3.17-.31-8.27,2.34-10.33,4.91,1.53,7.44,7,5.22,12.24a30.32,30.32,0,0,1-4.89,7.34c-2.69,3.24-5.7,6.23-8.58,9.32a4.7,4.7,0,0,1-.58.46C475.27,276.58,475.64,270,476.39,263.44Zm-11.78,14.88.6.35c-3.68,10.53-8.27,20.49-17.79,27.37ZM439,318.45c5.13-5.24,10.68-10.06,15.91-15.2a45.43,45.43,0,0,0,13.3-26c.55-3.49,1.41-6.83,4.82-9.66,0,6.63.19,12.79-.1,18.94a12.19,12.19,0,0,1-2.26,5.78,92,92,0,0,1-8.1,10.78,101.31,101.31,0,0,1-11.05,10.48c-5.82,4.75-11.94,9.13-17.93,13.66l-.59-.55C435,323.9,436.63,320.85,439,318.45ZM414.8,353.76c5.16-8.28,11-16.09,18.57-22.35,5.77-4.76,11.71-9.3,17.59-13.93a3.42,3.42,0,0,1,.62-.35l.31.28q-2.79,3.64-5.59,7.28c-.77,1-1.62,1.93-2.36,2.95s-1.12,2.51-.05,3.43c.68.58,2,.57,3,.6a9.86,9.86,0,0,1,2.63-.06,17.6,17.6,0,0,1-1.75,1.09c-3.08,1.52-6.21,2.93-9.26,4.51-6.52,3.38-12.61,7.4-17,13.44a19.54,19.54,0,0,0-2.9,7c-.56,2.48-.37,5.13-.54,8.4l-9.56,11.45-.42-.28C410.18,369.37,410.35,360.92,414.8,353.76Zm18.9-10.11q-6,8.25-12,16.52C421.59,351.69,428.12,348,433.7,343.65Zm-42,44.75a25.73,25.73,0,0,1,7.07-13.81c2.8-2.84,5-6.32,7.4-9.51l.51.15c-.61,2.7-1.27,5.38-1.84,8.08s-1,5.45-1.56,8.17a3.8,3.8,0,0,1-.62,1.82c-4.15,4.43-8.36,8.81-12.55,13.2l-.7-.52c.1-.45.16-.91.3-1.35A53,53,0,0,0,391.69,388.4Zm-6.24,1.41c1.13-3.84,2.41-7.63,3.73-11.75l1.69,1.5c-1.51,4.29-3,8.43-4.41,12.57l-.64,0C385.68,391.37,385.25,390.5,385.45,389.81Zm-28.87-39.22c-8.26-2.53-9.8-10.08-12.36-16.85Zm-31.8-42.14,5.8,8.43a13.3,13.3,0,0,0,2.21,3,3.46,3.46,0,0,0,2.83.59c.67-.22,1.14-1.42,1.4-2.28a13.29,13.29,0,0,0,.25-2.84l.58,0c.25,1.26.5,2.51.74,3.76,1.19,6,2,12.16,3.68,18a48.44,48.44,0,0,0,5.58,11.32c2.54,4.12,7.23,5.09,11.43,6.65.43.15.89.23,1.67.44,2.65,4.2,5.43,8.58,8.2,13l-.38.32c-6.55-4.36-14.32-6.86-19.75-12.9a85.91,85.91,0,0,1-13.23-18.77c-2.3-4.6-4.17-9.42-6.1-14.2-1.7-4.24-3.22-8.55-4.81-12.82A2.21,2.21,0,0,1,324.78,308.45ZM308.24,285.2a73.82,73.82,0,0,0,5.39,7.61c4,5.24,6.14,11.41,8.48,17.43s4.26,12.52,6.35,18.8a2.77,2.77,0,0,1,0,.75,50.45,50.45,0,0,1-9.08-12.91c-2.39-5-4.51-10.16-7-15.14a45.09,45.09,0,0,0-20.52-20.53c-3.3-1.68-6.35-3.55-8-7.43,1.65.62,3.07,1.28,4.57,1.69,2.42.65,4.89,1.14,7.34,1.7C301,278.32,305.44,280.33,308.24,285.2Zm4.64,24.55q-10.71-12.56-21.44-25.1l.49-.42C301,291,309.15,298.47,312.88,309.75Zm-25.77-50a13.89,13.89,0,0,0-3-3.34,3.71,3.71,0,0,0-2.82-.4c-.7.19-1.2,1.16-1.79,1.78.58.53,1.13,1.09,1.75,1.56.23.18.63.13,1.16.22l1.75,3.13c-4.29-.77-7.62-2-9.61-5.75a7.79,7.79,0,0,1,7.07-3.7c4.35.16,7.65,2.41,10,6,1.2,1.81,2.08,3.83,3.14,5.73,1.74,3.11,3.5,6.2,5.23,9.27-6.81-.15-13.14-2.51-19.62-5.39l-2.45-3.71c1.79.52,3.06.9,4.34,1.26,1.88.53,3.68.66,5.05-1.12C288.55,263.64,288.56,261.91,287.11,259.74Zm60.77,132.7c-4.79-.42-6.08.6-6.86,5.3-8.12,6-18.43,4.85-27.13-3.95-.89-3.45-.89-3.45-4-4.34-1.64-2.55-4.29-4.67-4.63-8.18a2.17,2.17,0,0,0-.89-1.47c-2.8-1.7-3.16-4.83-4.53-6.94,1.29,0,2.94.43,3.33-.09,1.05-1.38-.06-2.7-1.25-3.43a26.72,26.72,0,0,0-4.44-1.74c-.42-1-1.06-2.52-1.68-4,3.05-4.53,2-8.29-3.54-9.79-.41-1.27-.86-2.64-1.32-4,2.32-2.44,3.35-5.19,2.09-8.38-.21-.53-1.22-.75-2.23-1.32-.26,2.06-.45,3.53-.64,5l-.64.07c-.35-3-2.36-5.6-1.45-9,.27-1-.36-2.33-.78-3.44s-1.3-1.84-1.48-2.84c-.6-3.36-.87-6.77-1.48-10.13-.42-2.3-1.46-4.5-1.77-6.81q-1.89-13.86-3.45-27.76c-.38-3.37-.39-6.79-.57-10.18l.5-.12c1.28,1.89,2.45,3.89,3.87,5.67,6.25,7.79,12.65,15.47,18.87,23.29q20.5,25.8,40.87,51.73c5.18,6.62,10,13.53,15,20.3.35.48.65,1,1,1.54A46.3,46.3,0,0,1,347.88,392.44Zm9.05-24.89c-.14-.2-.2-.45-.05-1l15.88,9.09,8.56,16.8-13.5-8.85a3.13,3.13,0,0,1-.85-.81Q361.93,375.16,356.93,367.55Zm8.22,20.57c-.42-.29-.89-.51-1.7-1l2.13-1.43c7.75,6,16.08,11.29,22.26,19a19.21,19.21,0,0,1,2.75,5.64,31.91,31.91,0,0,1,1.7,7.66c-.37-.45-.78-.87-1.12-1.34-4.54-6.18-9-12.39-13.6-18.55C374.3,393.76,369.56,391.14,365.15,388.12Zm11,15.59,3.09,4-10.52,7.43-.47-.47ZM361.9,423.64c4.21-4.05,9.5-7,14.32-10.4l.33.41c-4.29,7.65-7.78,15.92-16.77,19.69-2.91,1.22-5.61,2.93-8.76,4.15C354.6,432.83,357.71,427.67,361.9,423.64Zm-14.48,30.87a11.84,11.84,0,0,1-1.11,1.13c-3.44,3.23-5.06,3.08-8.11-.87-.05-2.19,1.3-3.8,2.72-5.38,4.28-4.76,9.85-7.7,15.35-10.72,1.6-.89,3.3-1.6,5-2.39l.2.29Zm52.69,90c-2.33-1.65-5.44-2.45-6.43-5.82-.14-.48-.74-.87-1.19-1.22a18.43,18.43,0,0,1-3.2-2.37,88,88,0,0,1-12.68-21.49c-2.83-6.56-5.35-13.25-7.93-19.71.93-2.1.81-3.57-1.07-4.72-.54-.33-.66-1.39-.9-2.14-.69-2.2-1.34-4.42-2-6.48,2.79-5,2-7.84-2.7-9.84-.4-2-1.66-3.84-.49-6.16.67-1.35,0-2.23-2.05-3.88-.86-3.69-1.73-7.42-2.67-11.48A195.46,195.46,0,0,0,382.45,412a8.85,8.85,0,0,1,1.2,1.1q12.84,18.17,25.61,36.38c1.51,2.16,2.69,4.55,4.06,6.82a15.89,15.89,0,0,0,1.78,2.62c5.29,5.82,7.89,4.42,12.94.24,2.1-1.73,1.73-4.52,1-6.9a22.15,22.15,0,0,0-2.42-5.2c-9.72-15.91-20.51-31-33.47-44.51-.58-.62-1.07-1.32-1.43-1.77,4.62-4.8,8.92-9.47,13.45-13.93a162.29,162.29,0,0,0,21.44-26.24c3.77-5.67,8.05-11,12.1-16.49.26-.35.59-.65,1.14-1.25-.41,10-.81,19.69-1.2,29.34l-.69-.31-3.54,1.91c.75.95,1.5,1.91,2.59,3.28.07,1.22-2,2.94-.49,5l1.93.18v15.66c-4,2.26-4.55,6.86-.34,8.89v4.11c-2.1,2.6-2.66,4-.34,6.55v8.72c0,.73-.27,1.57,0,2.16.39.84,1.08,1.94,1.82,2.11,1.33.3,2-.81,2-2.1.06-2.78,0-5.56.11-8.34.07-1.55.48-3.09.7-4.63a7.89,7.89,0,0,0,.08-1.94c-.23-2.34-.51-4.67-.73-6.61,2.79-3.43,2.79-3.64.68-7.16a2.66,2.66,0,0,1-.39-1.28c0-5.43,0-10.85,0-16.28l.57.31c.94-.55,2.5-.94,2.69-1.69.27-1-.49-2.33-.88-3.75a9.83,9.83,0,0,0,2.1-1.44,11.31,11.31,0,0,0,1.29-2.35,11.66,11.66,0,0,0-2.51-1,10.9,10.9,0,0,0-2.72.25v-33c2-1.21,4.22-2.52,6.41-3.86a31.32,31.32,0,0,0,3-1.92c2.4-1.85,2-4.14-.79-5.26-.61-.24-1.27-.35-2-.56a4.36,4.36,0,0,1,3.82-2.91c4.77-.7,9.57-1.4,14.27-2.48,7.54-1.75,12.66-6.9,17-12.95.94-1.31.18-2.1-1.07-2.79-5.21-2.9-10.51-2.71-15.9-.62l-1.52.55c1.21-3.92,22.41-30.12,27.91-34.4-3.9,39-8.58,77.53-15.6,115.68-2.91,2.1-3.19,3.6-1.25,6.73-.72,3.64-1.45,7.39-2.18,11.08-3.55,2.33-3.9,4.26-1.64,7.77-.32,1.47-.66,3.08-1,4.62-5.19,1.81-6.78,6.48-2.43,10.81-.63,2.62-1.24,5.32-2,8-.16.58-.87,1-1.06,1.6a10.92,10.92,0,0,0-1,4,14,14,0,0,1-2.13,8.61c-.87,1.44-1.66,2.64-1.06,4.36a2.34,2.34,0,0,1,0,1.36c-1.89,6.41-3.81,12.8-5.8,19.42-1.53-1-3-1.76-4.31-.25-.5.59-.87,2-.54,2.44.65.93,1.84,1.48,3.16,2.46a249.57,249.57,0,0,1-14.34,34.48c-1.15-2.33-2.13-4.31-3.15-6.35l-3.17.15c-.76,3-1.52,6-2.33,9.11-1.41.23-2.91.42-4.38.73s-3.39.47-3.79,2.36,1.42,2.49,2.58,3.38,2.29,1.54,3.39,2.28c0,6-2.71,10.43-8.8,14.28-4.25-.93-5.51-.22-7,4.33l-7.31,1.1C405,542.53,403.16,542.09,400.11,544.51Zm-6.86-135.12a11.52,11.52,0,0,1,1.05.84c2.23,2.45,4.37,5,6.69,7.34,3.66,3.7,5.38,8.25,6.27,13.23q.94,5.28,1.9,10.54l-.33.33c-3.56-5.24-7.26-10.4-10.6-15.77-1.15-1.85-1.43-4.24-2.06-6.4C395.21,416.27,394.3,413,393.25,409.39Zm17.58,21.36c1.55,2.34,2.93,4.48,4.37,6.58,2.69,3.92,5.46,7.79,8.1,11.74a18.82,18.82,0,0,1,2.06,4.26c.84,2.52.38,3.35-2.15,4.73-2.08,1.13-3,1.1-4.5-1.1-1.63-2.37-3.36-4.89-4.12-7.6-1.62-5.83-2.65-11.83-3.91-17.77C410.64,431.43,410.74,431.24,410.83,430.75Zm-216.25,241V418.87l-4.14,3.05V675.54a23.43,23.43,0,0,1,15.32,6.76c4.26,4.17,6.79,9,6.19,15.16.85.07,1.31.14,1.77.14q58.62,0,117.24,0c3.4,0,4.78-2.35,6.72-4.36H216C213.28,681.67,206.86,673.94,194.58,671.73ZM580.24,421.91,576,418.74v253c-12.2,2.27-18.55,10-21.25,21.58H432.5c2.63,2.49,4.65,4.64,8.41,4.32,4.6-.39,9.26-.09,13.9-.09l101.94,0c.58,0,1.15-.09,1.67-.12.88-13.79,9.33-19.89,21.82-22.21ZM555.5,55c2.76,11.53,9.07,19.18,21.36,21.49v243l4.2-3.13V73c-12.57-2.27-21-8.48-21.87-22.2a13.83,13.83,0,0,0-1.39-.13c-38.95,0-77.9.07-116.84-.06-3.59,0-5.12,2.27-7.34,3.94l.15.49ZM191.24,316.39l4.2,3V76.49c12.29-2.24,18.66-10,21.37-21.59h122c-2.54-3.12-5.23-4.66-9.13-4.33-4.27.37-8.6.09-12.9.09l-102.14,0c-.57,0-1.14.1-1.58.14-.93,13.83-9.39,19.93-21.81,22.17ZM415,76.29H355.48v49.65H415Zm-4.17,45.4H359.71V80.51h51.11ZM344,659.7c1.91-.05,2.35-1.68,2.67-3.22.62-3.05,1.1-6.13,1.84-9.15,1.79-7.33,3.71-14.62,5.53-22a19.11,19.11,0,0,0,.28-3.23c-1.13-.46-2-.81-3-1.21-1.71,1.33-2.2,3.32-2.68,5.17-1.95,7.63-3.75,15.29-5.61,22.95-.12.46-.28.91-.43,1.36l-.49.07c-.74-1.82-1.6-3.6-2.2-5.46-.74-2.26-1.17-4.63-2-6.87-.28-.8-1.18-1.85-1.87-1.9s-1.67.86-2.13,1.6a21.66,21.66,0,0,0-1.64,3.82c-.8,2.16-1.56,4.33-2.48,6.91-1.62-7.4-3.1-14.33-4.67-21.23a20.85,20.85,0,0,0-1.65-4.66c-.31-.61-1.46-1.35-1.95-1.18a2.8,2.8,0,0,0-1.55,1.93,13.1,13.1,0,0,0,.14,4.14q2.46,13.68,5,27.34c.34,1.83.62,3.85,3.06,4s2.68-2,3.29-3.56c1.26-3.31,2.44-6.65,3.73-10.16,1.74,4.08,3.37,7.88,5,11.7A3.88,3.88,0,0,0,344,659.7Zm53.81-34.82c0-1.33-.49-2.63-2.09-2.67s-2.2,1.26-2.3,2.68c-.17,2.31-.35,4.62-.37,6.94,0,5.67,0,11.35,0,17l-.46.06c-.68-1.78-1.33-3.58-2.06-5.34q-3.53-8.52-7.12-17a43.15,43.15,0,0,0-2.1-4.46c-.37-.64-1.16-1.49-1.72-1.45a2.31,2.31,0,0,0-1.65,1.53,54.61,54.61,0,0,0-.26,7.12c.17,6.22.46,12.43.66,18.65.1,3.11.08,6.22.19,9.33.06,1.53.7,2.81,2.48,2.75s2.33-1.34,2.32-2.89c0-2.11-.16-4.23-.18-6.35,0-4,0-8,0-12,.15.38.35.84.53,1.31,1.41,3.71,2.74,7.46,4.25,11.13a60.64,60.64,0,0,0,3.24,6.57c1.07,1.89,3.07,1.71,4.8,1.48s2-1.76,2.11-3.2c.07-.72.13-1.45.13-2.18,0-5.69.05-11.39,0-17.08C398.1,632.82,398,628.84,397.78,624.88Zm94.28-486.62c-.51-.12-1-.2-1.55-.3A27.57,27.57,0,0,1,479.77,134a7.24,7.24,0,0,1-3.41-5.12c-.55-3.73-1.14-7.46-1.73-11.18-.42-2.6-.88-5.2-1.33-7.79-.49.28-.62.51-.66.75-1,6-2,11.89-2.82,17.85-.33,2.26-1.2,4.21-3.18,5.22a84.56,84.56,0,0,1-8.72,3.67,28.86,28.86,0,0,1-4.26.94,13.16,13.16,0,0,0,2.55.82c3.35,1.19,6.75,2.27,10,3.74a6.32,6.32,0,0,1,3.58,5.17c.52,3.74,1.13,7.46,1.73,11.19.42,2.57.89,5.13,1.33,7.7a2.37,2.37,0,0,0,.8-1.45c.89-5.55,1.86-11.1,2.61-16.67a7.78,7.78,0,0,1,3.88-6.11,22.76,22.76,0,0,1,4.28-2.06c2.61-.84,5.28-1.45,7.95-2.16C492.23,138.44,492.16,138.29,492.06,138.26Zm-179.95,405a40.59,40.59,0,0,1-4.34,1.39c-1.49.39-3,.65-4.52,1V546c.47.12.94.25,1.41.33,4,.73,7.89,1.74,11.28,4.12a7,7,0,0,1,3.17,4.83c.54,3.73,1.13,7.45,1.73,11.17.43,2.64.9,5.27,1.36,7.91a2.35,2.35,0,0,0,.78-1.42c.9-5.55,1.88-11.09,2.62-16.66.38-2.8,1.53-5,4-6.22a74.83,74.83,0,0,1,7.89-3.13,34.31,34.31,0,0,1,4.07-.92,6,6,0,0,0-2.1-.82c-3.4-1.22-6.87-2.3-10.15-3.79-2.29-1-3.35-3.2-3.67-5.76-.48-3.81-1.15-7.59-1.76-11.38-.37-2.31-.79-4.62-1.18-6.93a2.29,2.29,0,0,0-.78,1.44c-.85,5.15-2,10.28-2.42,15.47C319.08,539.14,316.26,541.64,312.11,543.25Zm94.47,84.46V629c-.14,9.13-.31,18.26-.41,27.38,0,3.83,3,5.7,6.34,3.79a39.42,39.42,0,0,0,7-4.89c8.86-8,8-23.71-1.17-29.82-4.95-3.31-10.05-3.25-15.29-1.06a2.55,2.55,0,0,0-1.22,2.13c.09.54,1.24,1.1,2,1.3A10.6,10.6,0,0,0,406.58,627.71Zm4.69,0c3.28.29,5.24,2.34,6.87,4.69,5.08,7.29,1.56,19.11-6.87,22.69ZM366,623.33c-.21-.76-1.28-1.82-1.9-1.79a3,3,0,0,0-2,1.79c-1.21,3.5-2.27,7-3.25,10.62s-1.81,7.16-2.67,10.64c-1.71.69-4.14.27-4.11,2.62,0,.93,1.5,1.84,2.32,2.76.34.17.25.62.14,1.06-.42,1.67-.94,3.31-1.24,5a2.22,2.22,0,0,0,1.74,2.89c1.41.31,2.23-.55,2.68-1.79.2-.56.32-1.15.49-1.72.6-2,1.21-4,1.88-6.22,2.34,0,4.51,0,6.69,0a9.25,9.25,0,0,1,1.28.19c.13.59.23,1.16.39,1.72.69,2.4,1.27,4.84,2.17,7.15.25.66,1.46.94,2.23,1.4.41-.73,1.24-1.51,1.16-2.19C372.67,645.79,369.19,634.59,366,623.33Zm-4.66,20.83c.87-4.28,1.71-8.37,2.54-12.45h.48c.91,4,1.81,7.94,2.75,12.07Zm74.78,11.65c-2.63.3-4.13-1-4.49-4-.24-2-1.37-3.2-2.95-3s-2.56,1.64-2.32,3.74c.57,4.91,3.87,7.76,9.1,7.86a9.9,9.9,0,0,0,10.16-10.13,14,14,0,0,0-5.83-11.42,19.22,19.22,0,0,1-6.13-7.17c-.73-1.58-.14-2.83.86-4s2.19-1,3.43-.42A7.19,7.19,0,0,1,442.1,631c.25.6,1.22.91,1.87,1.36.35-.76,1.07-1.55,1-2.27-.27-2.85-2.28-4.51-4.59-5.84-3.38-1.95-6-1.79-8.6.47a8.46,8.46,0,0,0-2.54,9.16A19.07,19.07,0,0,0,436,643a10.24,10.24,0,0,1,4.61,7.55A4.7,4.7,0,0,1,436.13,655.81ZM346.26,50.63c3.09.61,6.23,1,9.57,1.49-.43.94-.91,1.86-1.27,2.83-.51,1.4-.93,2.86.45,4s2.79.69,4.09,0a15.15,15.15,0,0,0,7.33-7.76,12.28,12.28,0,0,0,.78-4.81c-.17-4.66-2.9-8.1-6-11.22-2-2-3.94-2.44-5.27-1.49s-1.57,2.92-.54,5.48c.5,1.24,1.12,2.42,1.57,3.37-3.66.48-7.2.8-10.68,1.46-1.8.34-4.17.76-4.11,3.26C342.23,49.57,344.37,50.25,346.26,50.63Zm11,6.28-.6-.45,2.88-4.91,4.49-.91C362.17,53.6,360.29,55.89,357.28,56.91Zm6.39-12.85-3.38-.76-2.89-6.5C359.85,37.45,362.9,41.13,363.67,44.06Zm.6,3.1A30.55,30.55,0,0,1,345.64,47,31.24,31.24,0,0,1,364.27,47.16Zm63.38,651.47a12,12,0,0,0-4.08-1.43c-2.58-.45-5.2-.66-7.94-1,.46-1.05.94-2.05,1.33-3.08.5-1.34.83-2.73-.45-3.85s-2.64-.77-3.91-.11a15.41,15.41,0,0,0-7.78,8.39,10,10,0,0,0-.62,3.87c.2,5,3,8.62,6.38,11.91a7,7,0,0,0,2.17,1.37c2.13.89,4.07-.31,3.88-2.6a21.69,21.69,0,0,0-1.39-4.89,12.4,12.4,0,0,0-1-1.9,23.62,23.62,0,0,0,3.39,0c3.24-.53,6.51-1,9.69-1.85a2.54,2.54,0,0,0,.31-4.82Zm-13.19-7.46c-1,4.72-2.83,6.3-6.85,6.1A13.72,13.72,0,0,1,414.46,691.17Zm-1.1,20.39c-2.58-1.76-4.27-4.27-5.91-7.47l3.77.83,2.74,6.27Zm-6.18-10.51a30.49,30.49,0,0,1,18.66.18A31.74,31.74,0,0,1,407.18,701.05Zm-228-355.26c8.18,4.95,15.81-1.3,18.28-7.38a3.62,3.62,0,0,0-.5-3.21c-.63-.64-2.16-.71-3.22-.55a16.69,16.69,0,0,0-3.54,1.39c-.33-2.77-.52-5.41-1-8a12.51,12.51,0,0,0-1.55-4.23c-1.35-2.19-3.44-2-4.6.25a10,10,0,0,0-1.05,3c-.48,3.37-.83,6.75-1.23,10.1-1.52-.62-3.17-1.43-4.91-2-1.5-.45-3.11-.45-4.08,1.12a3.11,3.11,0,0,0,.71,4A41.07,41.07,0,0,0,179.21,345.79Zm16-8.59c-1,3.32-3.36,5.11-6.09,7C189.08,339.66,191,338.18,195.17,337.2Zm-10-11.33a30.53,30.53,0,0,1,.24,18.67C183.3,338.35,183.61,332.12,185.19,325.87Zm-3.69,14.59c.29,1.26.53,2.28.77,3.31-2.39-.31-6.3-3.39-7.45-6.19ZM357.17,688.84c-2.59-.93-4.4.87-3.67,3.52a35.19,35.19,0,0,0,1.52,3.87c-2.64.3-5.21.46-7.71.93a13.88,13.88,0,0,0-4.61,1.68c-2.1,1.31-1.9,3.36.29,4.49a10.13,10.13,0,0,0,3.17,1.1c3.31.49,6.65.81,9.93,1.2-.61,1.56-1.43,3.29-2,5.1-.43,1.43-.43,3.23,1.17,3.8a4.36,4.36,0,0,0,3.77-.54,35.39,35.39,0,0,0,5.87-7.12C369.75,698.72,363,690.94,357.17,688.84Zm.12,22.71-.56-.29,2.71-6.31,3.79-.85C361.63,707.26,359.93,709.78,357.29,711.55Zm-12.45-10.28a30,30,0,0,1,18.63-.23A32,32,0,0,1,344.84,701.27Zm11.4-9.68c2.2,0,4.53,2,6.79,5.77C358.69,697.35,357.24,695.6,356.24,691.59Zm123.18-51.43c-.05-2-1.77-2.64-3.35-3.18a18.05,18.05,0,0,0-3.47-.82c-2.22-.29-4.46-.46-6.93-.7.51-1.16,1-2.16,1.39-3.19.49-1.35.92-3-.55-3.74a5,5,0,0,0-3.84-.1,14.44,14.44,0,0,0-7.69,8.14,11.56,11.56,0,0,0-.63,4.45c.17,4.59,2.85,8,5.86,11.09,2.05,2.11,4.06,2.6,5.42,1.62s1.57-3,.47-5.66c-.48-1.17-1.08-2.3-1.46-3.11,3.89-.58,7.67-1,11.41-1.76C477.64,642.89,479.48,642.26,479.42,640.16Zm-15.07-9.72c.27,3.32-2.16,5.59-6.78,6.19C459.39,633.79,461.3,631.55,464.35,630.44Zm-.9,20.29c-2.63-1.71-4.2-4.32-6-7.49l3.87.87,2.77,6.25Zm-6.18-10.49a30.42,30.42,0,0,1,18.66.17A31.82,31.82,0,0,1,457.27,640.24ZM181.16,396.88c.51,3.7.91,7.44,1.68,11.09a3.55,3.55,0,0,0,2.51,2.26,3.8,3.8,0,0,0,2.74-2,21.48,21.48,0,0,0,1.49-5.51c.33-2,.4-4,.59-6.08a13.63,13.63,0,0,0,3.26,1.35,5.79,5.79,0,0,0,3.63-.45c1.32-.89.9-2.5.25-3.8a15.07,15.07,0,0,0-8.49-7.88,11.62,11.62,0,0,0-4.44-.47c-4.91.27-8.37,3.22-11.54,6.58a6,6,0,0,0-1.12,1.86c-.85,2.13.35,4.06,2.64,3.86a22.18,22.18,0,0,0,4.88-1.4,14.79,14.79,0,0,0,1.91-1A11.85,11.85,0,0,0,181.16,396.88Zm14-1.66-.44.61L189.78,393c-.33-1.61-.58-2.86-.91-4.5C191.84,390.33,194.12,392.21,195.13,395.22Zm-9.73-7a30.29,30.29,0,0,1-.19,18.69A31.83,31.83,0,0,1,185.4,388.18ZM175.28,395l-.62-.91,7.05-5.64.57.4-.75,3.37Zm413.13-68.72c-.33-1.73-.81-4-3.24-3.87-2.23.09-2.93,2.1-3.3,3.92-.63,3.16-1,6.37-1.55,9.72a11.72,11.72,0,0,0-3-1.26,5.79,5.79,0,0,0-3.63.41c-1.33.88-.94,2.5-.3,3.8a15.37,15.37,0,0,0,8.48,7.91,9.82,9.82,0,0,0,3.87.6c5-.23,8.71-3.07,12-6.54a6.44,6.44,0,0,0,1.17-1.82c1-2.31-.21-4.31-2.71-4.08a21.85,21.85,0,0,0-4.69,1.39,9.48,9.48,0,0,0-1.51.78C589.45,333.52,589.09,329.86,588.41,326.27Zm-12.88,11.24.43-.61,4.93,2.85c.33,1.59.6,2.86.93,4.48C578.83,342.43,576.6,340.49,575.53,337.51Zm9.73,7c-2-3.47-1.9-15,.11-18.69C587.4,328.49,587.32,341.37,585.26,344.54Zm10.54-7c-.93,2.56-4.16,5.25-7.42,6.43l.78-3.54ZM414.37,59.39c2.58.9,4.34-.92,3.6-3.59A36.4,36.4,0,0,0,416.45,52c2.81-.34,5.52-.52,8.15-1.05a12.32,12.32,0,0,0,4.52-1.87c1.66-1.13,1.44-3-.32-4a9.88,9.88,0,0,0-3.33-1.24c-3.37-.51-6.76-.84-10.1-1.24.62-1.54,1.43-3.2,1.95-5,.43-1.42.44-3-1-4a3,3,0,0,0-4,.54,41.9,41.9,0,0,0-5.82,7.17C401.72,49.62,408.68,57.41,414.37,59.39Zm-.16-22.71.55.3c-.92,2.13-1.85,4.26-2.75,6.3l-3.76.87C409.83,41,411.54,38.45,414.21,36.68ZM427,46.54c-3,2.52-15.37,2.74-19.5.42C414.15,45.05,420.37,45.44,427,46.54ZM415.2,57c-3.2-1.12-5.12-3.37-6.78-6.08C412.71,50.72,414.58,53,415.2,57ZM598.08,392.33a41.46,41.46,0,0,0-6.89-5.53c-8.05-4.76-15.74,1.65-18,7.62a3.45,3.45,0,0,0,.48,3,4.26,4.26,0,0,0,3.2.63,17.73,17.73,0,0,0,3.78-1.48,18.34,18.34,0,0,0,.11,2.09,81.69,81.69,0,0,0,1.7,9.11,4.15,4.15,0,0,0,2.89,2.41c.81.08,2.3-1.38,2.58-2.41a73.92,73.92,0,0,0,1.63-8.91,25.32,25.32,0,0,0,0-3.49c1.83.78,3.36,1.57,5,2.07s3.23.62,4.29-1A3.13,3.13,0,0,0,598.08,392.33Zm-17.17.64-5.19,3c.27-2.88,2.44-5.4,6.06-7.38Zm4.61,13.9a29.9,29.9,0,0,1-.23-18.68C587.38,394.38,587.06,400.61,585.52,406.87Zm9.91-11.9-6.23-2.71c-.29-1.22-.54-2.28-.88-3.76a18.34,18.34,0,0,1,7.46,5.88C595.67,394.58,595.55,394.78,595.43,395ZM286.31,637.51c-1.65,1.13-1.43,3,.33,4a10.09,10.09,0,0,0,3.33,1.24c3.36.51,6.75.84,10.1,1.24a52.62,52.62,0,0,0-2,5c-.43,1.42-.44,3,1,3.95a3,3,0,0,0,4-.54,42.78,42.78,0,0,0,5.81-7.18c4.79-8.15-2.12-16-7.86-18-2.57-.9-4.34.93-3.6,3.59A36.53,36.53,0,0,0,299,634.6c-2.81.34-5.52.51-8.16,1A12.7,12.7,0,0,0,286.31,637.51ZM301.41,650l-.69-.35c.87-2.08,1.75-4.15,2.61-6.2.59-.18.84-.27,1.09-.33l2.65-.57A19.15,19.15,0,0,1,301.41,650Zm5.61-14-4.29-.87c-.9-1.53-1.9-3.22-3.09-5.22C302.59,630.18,305.15,632.41,307,635.94Zm.4,3.47a31.88,31.88,0,0,1-18.63.25A30.25,30.25,0,0,1,307.42,639.41Zm-122-589.15c2,2.66,4.21,5.2,6.28,7.72-1.37.54-3,1.07-4.52,1.84s-2.89,1.85-2.47,3.85,2.06,2.47,3.65,2.41a31.9,31.9,0,0,0,8.19-1,13.24,13.24,0,0,0,6.07-3.71c3.5-4.23,3.53-9.25,1.62-14.22A3.87,3.87,0,0,0,201.58,45c-.84-.08-2.05,1-2.66,1.85a15.39,15.39,0,0,0-1.44,3.48c-2.81-2-5.5-4-8.3-5.84a6.45,6.45,0,0,0-3-.9,2.23,2.23,0,0,0-2.46,3.08A11.46,11.46,0,0,0,185.45,50.26ZM188.21,63c-.07-.21-.13-.42-.2-.63l6.5-2.67,3.36,2.11C194.41,62.88,191.37,63.61,188.21,63Zm13.6-15.33c1.49,3,1.3,6,.62,9.32C198.76,53.52,199.82,50.26,201.81,47.7Zm-1.68,12.15a31.72,31.72,0,0,1-13.59-13A29.92,29.92,0,0,1,200.13,59.85ZM585.49,697.12c-1.87-2.37-3.9-4.61-5.82-6.86,1.39-.54,3-1,4.43-1.76s3.07-1.86,2.64-4-2.19-2.32-3.86-2.47a20.14,20.14,0,0,0-11,2.15,9.52,9.52,0,0,0-3.26,2.75c-3.19,4.3-3.32,9.09-1.53,13.92a4,4,0,0,0,2.77,2.28c.86.09,2.09-1.11,2.75-2a15,15,0,0,0,1.41-3.49c2.08,1.66,4,3.32,6,4.74a13.85,13.85,0,0,0,4.25,2,3.27,3.27,0,0,0,2.84-.6,3.93,3.93,0,0,0,.27-3.07A11.18,11.18,0,0,0,585.49,697.12ZM583.2,685.2c.08.2.16.41.23.62l-6.44,2.7-3.29-2.09A18.88,18.88,0,0,1,583.2,685.2Zm-13.52,15.35c-1.52-3-1.28-6-.65-9.32C572.44,694.52,572,697.14,569.68,700.55Zm1.49-12.62a36.56,36.56,0,0,1,13.89,13.32C580.88,700.4,572.49,692.35,571.17,687.93ZM579.85,66a16.23,16.23,0,0,0,5.85-.42c2.2-.59,2.64-3,1-4.54a12.54,12.54,0,0,0-3.15-2,25,25,0,0,0-3-1,36.39,36.39,0,0,0,2.62-3A74,74,0,0,0,588.41,47c1-2-.39-3.56-2.63-3.29a7,7,0,0,0-3,1c-2.73,1.83-5.35,3.82-8,5.75A15.39,15.39,0,0,0,573.4,47c-.6-.88-1.77-2-2.63-1.93a3.86,3.86,0,0,0-2.73,2,14.17,14.17,0,0,0,.5,12.79C571,64.27,575.29,65.53,579.85,66Zm4.39-3.67-.18.66c-3.18.58-6.23-.12-9.65-1.2l3.33-2.08Zm2-15.65a39.59,39.59,0,0,1-14.08,13.54C572.77,56.36,581.75,47.66,586.23,46.71Zm-15.76.9c2.62,3.3,2.36,6.32-.63,9.27C569.16,53.78,569,50.77,570.47,47.61ZM191.79,682.2a15.64,15.64,0,0,0-5.29.18,3.6,3.6,0,0,0-2.43,2.15,4.37,4.37,0,0,0,1.36,3.16,10.35,10.35,0,0,0,3.29,1.75c.79.35,1.65.55,2.67.88-.65.58-1.1,1-1.53,1.36-2.79,2.68-5.32,5.55-6.73,9.22-1,2.54.34,4.2,3,3.58a14.17,14.17,0,0,0,4.6-2.17c2.06-1.39,3.93-3.07,5.91-4.65a17.2,17.2,0,0,0,1.46,3.64c.61.87,1.8,2,2.65,1.89a3.88,3.88,0,0,0,2.72-2.07,14.23,14.23,0,0,0-.64-13C200.4,684,196.2,682.76,191.79,682.2Zm-5,3.46c2.84-1,7-.59,10,.88l-3.08,2Zm-1,15.76a31.35,31.35,0,0,1,13.57-13C196.3,694.25,191.55,698.37,185.77,701.42Zm15.34-.94c-2.58-2.32-2.41-5.6.51-9.35C202.33,694.46,202.43,697.46,201.11,700.48ZM378.17,57.3a3.13,3.13,0,0,0,2.45.55c.4-.1.73-1.42.66-2.14-.34-3.19,1.21-5.75,4.57-7.12,3.84,1,5.42,3.48,5,7.42a2.26,2.26,0,0,0,.7,1.84,2.68,2.68,0,0,0,2-.12,4,4,0,0,0,1.32-1.17A11.47,11.47,0,0,0,378.2,40.89C373.45,45.39,373.4,53.35,378.17,57.3Zm3.52-14.47c3-2.12,6.19-2,9.34.43a6.6,6.6,0,0,1,2.38,7.68c-3.71-7.31-10.43-7.6-14.56,0A7,7,0,0,1,381.69,42.83ZM576.56,371.16a2.35,2.35,0,0,0-2,.74c-.28.52.08,1.45.29,2.16.1.34.51.59.79.87a11.32,11.32,0,0,0,13.09,1.56,11.44,11.44,0,0,0,5.8-12.21,11.56,11.56,0,0,0-10-9.37,10.58,10.58,0,0,0-9.58,3.7,2.68,2.68,0,0,0-.33,2.3c.17.43,1.33.7,2,.63,3.38-.37,5.94,1.19,7.23,4.62C582.73,370,580.27,371.54,576.56,371.16Zm4.55-12c3.67-1,6.63.07,8.56,2.85a7.23,7.23,0,0,1-.16,8.86c-2,2.77-4.65,3.76-8.23,2.81,3.19-1.55,5.87-3.62,5.81-7.17S584.77,360.56,581.11,359.13ZM393.21,690.82a2.74,2.74,0,0,0-2.28-.48c-.49.22-.82,1.41-.74,2.11.39,3.54-1.45,6.22-5.07,7.16-3.42-1.19-4.93-3.7-4.56-7.33.07-.62-.2-1.64-.62-1.85a3,3,0,0,0-2.16.15,4.53,4.53,0,0,0-1.43,1.34,11.33,11.33,0,0,0-1.29,12.3c2,3.92,6.81,6.74,10.89,6.4a12,12,0,0,0,10.37-8C397.68,698.41,396.38,693.25,393.21,690.82Zm-3.14,14.26c-3.15,2.33-6.37,2.4-9.33.2a6.91,6.91,0,0,1-2.69-8c4.07,7.46,10.76,7.4,14.57,0A6.58,6.58,0,0,1,390.07,705.08ZM194.28,361.66c1.18.13,2.11-.28,2-1.5a3.88,3.88,0,0,0-1.15-2.18,11.12,11.12,0,0,0-11.95-2.35c-4.31,1.73-7.55,6.27-7.37,10.85a11.36,11.36,0,0,0,7,10.45c4.33,2,9.94.82,12.69-2.64a3.38,3.38,0,0,0,.5-2.47c-.06-.34-1.31-.71-2-.64-3.64.4-6.18-1.29-7.27-5.08C188.22,362.58,190.47,361.24,194.28,361.66Zm-5.12,12a6.62,6.62,0,0,1-7.8-2.55c-2.32-3.15-2.38-6.37-.18-9.34a6.92,6.92,0,0,1,8-2.68C181.66,363.15,181.77,369.84,189.16,373.64ZM455,581.61c.42,3.72,1.16,7.39,1.76,11.09a1.39,1.39,0,0,0,.74-1c.54-3.4,1.16-6.79,1.56-10.2a5.45,5.45,0,0,1,3.12-4.52,34.4,34.4,0,0,1,4.45-1.66c.8-.28,1.64-.46,2.75-.77-2.38-.75-4.43-1.27-6.37-2a5.82,5.82,0,0,1-4-5.39,56.19,56.19,0,0,0-.89-5.89c-.27-1.65-.57-3.3-.85-5l-.5,0c-.59,3.63-1.35,7.24-1.72,10.9a6.13,6.13,0,0,1-4.25,5.43c-1.89.74-3.88,1.21-6,1.87,2.25.73,4.35,1.3,6.36,2.11A5.76,5.76,0,0,1,455,581.61ZM261.84,195.83c-1-.21-1.93-.38-2.88-.62-4.23-1.06-7.35-3-7.47-8.07-.07-3.08-1-6.13-1.53-9.2a51.63,51.63,0,0,0-2.12,10.31c-.32,3.86-2.69,5.52-5.91,6.54-1.4.44-2.85.75-4.85,1.27,1.18.31,1.78.51,2.39.62,5.15.94,8.61,3.3,8.7,9.2.05,2.78.88,5.55,1.36,8.32a52.09,52.09,0,0,0,2.13-10.28c.31-3.4,2.12-5.28,5.15-6.27,1.67-.55,3.37-1,5.06-1.48ZM485.23,509.06c.19,1.76.57,3.5.87,5.25a20.78,20.78,0,0,0,1.51-6.43c.12-2.47,1.47-3.7,3.53-4.47,1-.38,2.11-.68,3.52-1.13-1.06-.28-1.75-.45-2.43-.64-2.67-.77-4.64-2-4.67-5.26a36.28,36.28,0,0,0-1.05-6A25.46,25.46,0,0,0,485,497c-.22,2.52-1.7,3.74-3.88,4.43-.87.28-1.76.52-3.07.9.83.3,1.38.53,1.94.67C483.88,504,484.78,505.06,485.23,509.06ZM320.7,160.77c.69-.13,1.35-.38,2.41-.7-1.05-.28-1.68-.44-2.3-.62-2.76-.76-4.75-2.07-4.82-5.39a37.76,37.76,0,0,0-1-5.91,20.41,20.41,0,0,0-1.36,5.29c-.53,4-1.34,5-5.24,6.14-.5.14-1,.24-1.76.41a4.54,4.54,0,0,0,1.05.51c4.07.64,6.08,2.94,6.08,7.13a23.72,23.72,0,0,0,.85,4.51,13.53,13.53,0,0,0,1.05-4.29C316,164.5,316.78,161.55,320.7,160.77ZM238.08,485a2.62,2.62,0,0,0,.74.3c3.85.54,5.75,2.72,5.85,6.65a34.14,34.14,0,0,0,.88,4.94,29.55,29.55,0,0,0,1.5-6.81,4.53,4.53,0,0,1,3.21-4.08c1.08-.42,2.2-.72,3.7-1.21-1.09-.32-1.77-.54-2.46-.72-2.66-.7-4.42-2.07-4.56-5.14a49.26,49.26,0,0,0-1-6.11,21.06,21.06,0,0,0-1.32,5.13c-.68,4.55-1.33,5.28-5.86,6.44-.31.07-.61.17-1,.28C237.93,484.82,238,484.94,238.08,485Zm71.52-59c-.29-1.55-.57-3.09-.88-4.73-.2.22-.41.35-.44.51-.24,1.29-.5,2.58-.66,3.88-.41,3.32-1.4,4.46-4.64,5.22-.36.08-.73.1-1.56.21.92.34,1.39.55,1.89.69,3.27.93,3.89,1.66,4.31,5,.18,1.47.48,2.93.72,4.39l.48-.06c0-.39.05-.78.11-1.17,1.07-6.06,1.07-6.06,6.33-8.89l-.81-.17C311,430.17,310.27,429.47,309.6,426ZM438.19,216.73c-.32,0-.65-.08-1-.16-2.48-.71-4.52-1.71-4.5-4.87a27.78,27.78,0,0,0-.81-4.81,14.38,14.38,0,0,0-1.09,4.51c-.18,2.71-1.42,4.42-4.13,5-.49.1-.95.29-1.7.52a15.4,15.4,0,0,0,1.5.59c3.33,1,3.88,1.64,4.32,5,.19,1.52.5,3,.76,4.53a5.1,5.1,0,0,0,.78-2.36c.2-3.91,1.08-7.27,6.18-7.46ZM545,331.41c-1.58,0-2.41.85-2.5,1.81-.11,2.25.83,3.51,2.28,3.48a2.38,2.38,0,0,0,2.55-2.45A2.42,2.42,0,0,0,545,331.41ZM366.36,174.31a2.31,2.31,0,0,0-2.38,2.6,2.21,2.21,0,0,0,2.45,2.3,2.24,2.24,0,0,0,2.49-2.18C368.9,175.29,367.77,174.17,366.36,174.31ZM303.73,472.25a2.36,2.36,0,0,0,2.53-2.41,2.55,2.55,0,0,0-2.45-2.59,2.5,2.5,0,1,0-.08,5ZM531,401.93a2.56,2.56,0,0,0,2.47-2.58,2.5,2.5,0,0,0-2.48-2.52,2.45,2.45,0,0,0-2.42,2.59A2.37,2.37,0,0,0,531,401.93ZM449.4,260.5a2.43,2.43,0,0,0-2.47,2.51,2.53,2.53,0,0,0,2.53,2.5,2.42,2.42,0,0,0,2.47-2.51A2.51,2.51,0,0,0,449.4,260.5ZM249.32,412a3.27,3.27,0,0,0-2.36,2c-.44,1.66.78,2.61,2.39,3,1.62-.34,2.86-1.23,2.33-2.95A3.38,3.38,0,0,0,249.32,412Zm292.05-42c1.53-.09,2.39-.94,2.42-1.84,0-2.13-1-3.32-2.38-3.22a2.43,2.43,0,0,0-2.47,2.53A2.39,2.39,0,0,0,541.37,370ZM235.44,386.46a2.54,2.54,0,1,0,0-5.07,2.41,2.41,0,0,0-2.36,2.61A2.48,2.48,0,0,0,235.44,386.46Zm109-202.89a2.5,2.5,0,0,0,2.54-2.42,2.45,2.45,0,0,0-2.44-2.54A2.5,2.5,0,0,0,342,181,2.45,2.45,0,0,0,344.47,183.57Zm46.84-8a2.52,2.52,0,0,0-2.53-2.52,2.48,2.48,0,0,0-2.5,2.54A2.36,2.36,0,0,0,388.7,178,2.42,2.42,0,0,0,391.31,175.6Zm-99.6,29.31a2.35,2.35,0,0,0,2.45,2.54,2.48,2.48,0,0,0,2.51-2.56,2.27,2.27,0,0,0-2.36-2.41A2.39,2.39,0,0,0,291.71,204.91Zm-8.86,7a2.24,2.24,0,0,0,2.44,2.33,2.49,2.49,0,0,0,2.54-2.49,2.44,2.44,0,0,0-2.38-2.5A2.52,2.52,0,0,0,282.85,211.92Zm101.22,77.13c1.76.23,2.68-.73,3.05-2.45-.43-1.78-1.5-2.81-3.14-2.27a3.52,3.52,0,0,0-2,2.29A2.11,2.11,0,0,0,384.07,289.05ZM266.76,441.48a2.59,2.59,0,0,0,2.54,2.44,2.46,2.46,0,0,0,2.46-2.6,2.54,2.54,0,0,0-2.61-2.43A2.45,2.45,0,0,0,266.76,441.48ZM454.08,193a2.38,2.38,0,0,0,2.24-2.47,2.55,2.55,0,0,0-5.09,0C451.4,192.09,452.28,193,454.08,193Zm-80.4,49.05c1.65.49,2.69-.56,3.1-2.36-.41-1.69-1.35-2.64-3.1-2.36a2.1,2.1,0,0,0-2,2.47A3.55,3.55,0,0,0,373.68,242.09ZM345.23,489.73a3.37,3.37,0,0,0,2-2.36c.06-.74-1.05-2-1.89-2.28-1.64-.55-2.72.47-3.14,2.27C342.6,489,343.55,490.23,345.23,489.73Zm154.13-41.84a2.78,2.78,0,0,0,2.63-2.47,2.53,2.53,0,0,0-2.45-2.57,2.56,2.56,0,0,0-2.6,2.47A2.44,2.44,0,0,0,499.36,447.89ZM323.78,482.53a2.49,2.49,0,0,0,2.45-2.44,2.69,2.69,0,0,0-2.72-2.57,2.51,2.51,0,1,0,.27,5ZM522.66,249.18a2.56,2.56,0,0,0-2.41-2.64,2.48,2.48,0,0,0-2.6,2.47,2.57,2.57,0,0,0,2.41,2.57A2.49,2.49,0,0,0,522.66,249.18Zm-267.51-1.91a2.43,2.43,0,0,0,2.46-2.53,2.36,2.36,0,0,0-2.4-2.54,2.49,2.49,0,0,0-2.48,2.25C252.69,246.13,253.82,247.38,255.15,247.27Zm275.52,24a2.51,2.51,0,1,0,.07-5,2.38,2.38,0,0,0-2.41,2.55A2.48,2.48,0,0,0,530.67,271.23ZM416.85,243.3a2.43,2.43,0,0,0-2.6-2.51,2.28,2.28,0,0,0-2.46,2.37,2.53,2.53,0,0,0,5.06.14Zm65.8,219.43a2.65,2.65,0,0,0,2.57-2.54,2.56,2.56,0,0,0-2.53-2.52,2.7,2.7,0,0,0-2.56,2.55A2.55,2.55,0,0,0,482.65,462.73ZM345.26,246a3.62,3.62,0,0,0-2.55,1.89c-.59,1.65.53,2.67,2.28,3.07,1.81-.39,2.95-1.38,2.39-3.18C347.14,247,345.9,245.88,345.26,246Zm5.16,54.28a2.45,2.45,0,0,0-2.37,2.63,2.36,2.36,0,0,0,2.53,2.41A2.54,2.54,0,0,0,353,302.9,2.51,2.51,0,0,0,350.42,300.25Zm-122.86,6.32a2.25,2.25,0,0,0,2.5,2.42,2.42,2.42,0,0,0,2.39-2.61,2.31,2.31,0,0,0-2.65-2.31C228.22,304.16,227.61,305.15,227.56,306.57ZM547,345.34a2.43,2.43,0,1,0-4.86,0c0,1.62,1,2.31,2.44,2.54C546,347.68,547,346.92,547,345.34Zm-221-156.87a2.39,2.39,0,0,0-2.53-2.43,2.45,2.45,0,1,0,2.53,2.43ZM257.83,423.88a2.5,2.5,0,1,0-5,0,2.45,2.45,0,0,0,2.54,2.47A2.34,2.34,0,0,0,257.83,423.88ZM301,198.82a2.48,2.48,0,0,0,2.73,2.44,2.51,2.51,0,0,0,2.33-2.5,2.36,2.36,0,0,0-2.52-2.41A2.44,2.44,0,0,0,301,198.82Zm-59.43,205.6a2.52,2.52,0,0,0,2.52,2.71,2.33,2.33,0,0,0,2.39-2.15,2.51,2.51,0,0,0-2.43-2.83A2.24,2.24,0,0,0,241.56,404.42ZM407,240.78a2.43,2.43,0,0,0-2.53-2.47,2.41,2.41,0,0,0-2.53,2.43,2.52,2.52,0,0,0,2.53,2.51A2.48,2.48,0,0,0,407,240.78ZM537.62,389a2.48,2.48,0,0,0-2.42-2.56,2.6,2.6,0,0,0-2.53,2.55,2.52,2.52,0,0,0,2.47,2.55A2.47,2.47,0,0,0,537.62,389ZM426.37,246.67a2.57,2.57,0,0,0-2.56-2.44,2.51,2.51,0,0,0-2.5,2.56,2.56,2.56,0,0,0,2.61,2.44A2.49,2.49,0,0,0,426.37,246.67Zm-31.91-9.77c-1.55.08-2.55.87-2.56,2.41a2.28,2.28,0,0,0,2.47,2.47,2.25,2.25,0,0,0,2.55-2.37A2.35,2.35,0,0,0,394.46,236.9Zm17.41,59.76a2.41,2.41,0,0,0,2.71-2.27,2.49,2.49,0,0,0-2.4-2.62,2.19,2.19,0,0,0-2.55,2.16A2.35,2.35,0,0,0,411.87,296.66Zm29.66-42.46a2.34,2.34,0,0,0-2.53,2.41,2.49,2.49,0,0,0,2.45,2.57,2.49,2.49,0,1,0,.08-5Zm-113.61,7.34a2.57,2.57,0,0,0,2.43-2.39,2.51,2.51,0,1,0-5,0A2.42,2.42,0,0,0,327.92,261.54Zm-84.49.17a3.5,3.5,0,0,0-2,2.49c-.07.7,1.09,2,1.92,2.2,1.85.53,2.71-.76,3-2.44C246.09,262.29,245.09,261.15,243.43,261.71ZM402.5,176.09a2.44,2.44,0,0,0-2.63-2.38,2.29,2.29,0,0,0-2.41,2.37,2.45,2.45,0,0,0,2.5,2.52A2.49,2.49,0,0,0,402.5,176.09Zm96.82,49.28a2.37,2.37,0,0,0,2.39-2.56,2.44,2.44,0,0,0-2.52-2.48,2.5,2.5,0,0,0-2.41,2.8A2.56,2.56,0,0,0,499.32,225.37ZM279.59,449.43a2.63,2.63,0,0,0-2.46-2.58,2.47,2.47,0,0,0-2.5,2.49,2.5,2.5,0,0,0,2.48,2.56A2.37,2.37,0,0,0,279.59,449.43Zm-40.24-52.55a2.28,2.28,0,0,0,2.5-2.45,2.4,2.4,0,0,0-2.52-2.5,2.28,2.28,0,0,0-2.4,2.38A2.32,2.32,0,0,0,239.35,396.88ZM232.91,284.8a2.49,2.49,0,0,0,2.45,2.55c1.5-.11,2.41-.94,2.46-2.8a2.22,2.22,0,0,0-2.41-2.25A2.42,2.42,0,0,0,232.91,284.8Zm132.87,8.89a2.56,2.56,0,0,0,2.57-2.4,2.44,2.44,0,0,0-2.4-2.59,2.56,2.56,0,0,0-2.66,2.39A2.53,2.53,0,0,0,365.78,293.69Zm-91.3-74.3a2.18,2.18,0,0,0,2.47,2.25,2.45,2.45,0,0,0,2.5-2.53,2.39,2.39,0,0,0-2.43-2.4A2.47,2.47,0,0,0,274.48,219.39Zm10.89,235a2.36,2.36,0,0,0-2.36,2.57,2.49,2.49,0,0,0,2.47,2.38,2.48,2.48,0,1,0-.11-5ZM357.1,298.65c1.76.06,3.09-1.13,3-2.52a2.3,2.3,0,0,0-2.36-2.38,2.51,2.51,0,0,0-2.68,2.52A2.29,2.29,0,0,0,357.1,298.65Zm188.7,57.83a2.44,2.44,0,1,0-4.88,0,2.26,2.26,0,0,0,2.4,2.53C544.87,359,545.66,358,545.8,356.48Zm-317.36-2.83a2.45,2.45,0,0,0,2.5-2.53,2.52,2.52,0,0,0-2.54-2.5,2.4,2.4,0,0,0-2.35,2.64A2.3,2.3,0,0,0,228.44,353.65Zm91.65-85.56a2.43,2.43,0,0,0,2.61-2.38,2.46,2.46,0,0,0-2.44-2.54,2.64,2.64,0,0,0-2.61,2.63A2.27,2.27,0,0,0,320.09,268.09Zm14.11,218.5a2.45,2.45,0,0,0,2.47-2.51,2.54,2.54,0,0,0-2.58-2.46,2.41,2.41,0,0,0-2.46,2.51A2.49,2.49,0,0,0,334.2,486.59Zm-20.77-13.84a2.38,2.38,0,0,0-2.34,2.64,2.42,2.42,0,0,0,2.67,2.32,2.38,2.38,0,0,0,2.3-2.58A2.56,2.56,0,0,0,313.43,472.75Zm162.65-6.06a2.31,2.31,0,0,0-2.5-2.42A2.42,2.42,0,0,0,471,466.7c-.14,1.33,1.11,2.46,2.86,2.45A2.44,2.44,0,0,0,476.08,466.69Zm-243.77-91a2.55,2.55,0,1,0,0-5.09,2.4,2.4,0,0,0-2.35,2.61A2.44,2.44,0,0,0,232.31,375.71ZM507,439.65a2.71,2.71,0,0,0,2.53-2.46,2.53,2.53,0,1,0-5.05-.05A2.51,2.51,0,0,0,507,439.65Zm-113-154.85a2.38,2.38,0,0,0-2.42,2.54,2.46,2.46,0,0,0,2.55,2.39,2.5,2.5,0,0,0,2.5-2.56A2.45,2.45,0,0,0,394.05,284.8Zm-19.18,5.6a2.46,2.46,0,1,0-2.46-2.49A2.4,2.4,0,0,0,374.87,290.4Zm163.63-3.24a2.53,2.53,0,0,0,.15,5.06,2.3,2.3,0,0,0,2.37-2.56A2.43,2.43,0,0,0,538.5,287.16Zm3.59,35.63c0,1.63,1,2.27,2.49,2.48,1.48-.29,2.42-1.07,2.36-2.65a2.31,2.31,0,0,0-2.53-2.43A2.25,2.25,0,0,0,542.09,322.79ZM411.31,179.88a2.23,2.23,0,0,0,2.27-2.48A2.53,2.53,0,0,0,411,175a2.47,2.47,0,0,0-2.37,2.65A2.34,2.34,0,0,0,411.31,179.88Zm102.74,251a2.52,2.52,0,0,0,2.37-2.76,2.34,2.34,0,0,0-2.36-2.29,2.61,2.61,0,0,0-2.58,2.65A2.4,2.4,0,0,0,514.05,430.85ZM456.78,272.62a2.33,2.33,0,0,0,2.36-2.23,2.61,2.61,0,0,0-2.51-2.76,2.25,2.25,0,0,0-2.42,2.34A2.47,2.47,0,0,0,456.78,272.62ZM271.55,227.2a2.41,2.41,0,0,0-2.27-2.53,2.58,2.58,0,0,0-2.65,2.61A2.32,2.32,0,0,0,269,229.7,2.53,2.53,0,0,0,271.55,227.2Zm25.37,236.45c-.07-1.57-1-2.33-2.56-2.57a2.49,2.49,0,0,0,0,5A2.34,2.34,0,0,0,296.92,463.65Zm209.87-230c1.42-.12,2.39-.76,2.46-2.29A2.39,2.39,0,0,0,507,228.6a2.36,2.36,0,0,0-2.61,2.36A2.54,2.54,0,0,0,506.79,233.6Zm-89.65,66.74a2.34,2.34,0,0,0,2.65,2.33,2.27,2.27,0,0,0,2.34-2.21,2.66,2.66,0,0,0-2.6-2.7A2.34,2.34,0,0,0,417.14,300.34Zm111.14-41.51a2.52,2.52,0,0,0-2.55-2.65,2.36,2.36,0,0,0-2.36,2.46,2.47,2.47,0,0,0,2.36,2.59A2.39,2.39,0,0,0,528.28,258.83Zm-215,11.84a2.39,2.39,0,0,0-2.47,2.5,2.28,2.28,0,0,0,2.37,2.4,2.49,2.49,0,0,0,2.56-2.66A2.17,2.17,0,0,0,313.25,270.67Zm-73.84,1.1a2.4,2.4,0,0,0-2.56,2.44,2.23,2.23,0,0,0,2.17,2.56,2.41,2.41,0,0,0,2.68-2.5A2.34,2.34,0,0,0,239.41,271.77Zm185.16-92.2a2.32,2.32,0,0,0-2.61-2.38,2.26,2.26,0,0,0-2.39,2.38,2.6,2.6,0,0,0,2.53,2.55A2.46,2.46,0,0,0,424.57,179.57Zm66.67,276a2.44,2.44,0,0,0,2.53-2.21c.05-1.71-1-2.9-2.38-2.8a2.49,2.49,0,0,0-2.56,2.47A2.4,2.4,0,0,0,491.24,455.6Zm25.09-215.68a2.62,2.62,0,0,0-2.71-2.57,2.25,2.25,0,0,0-2.27,2.5,2.34,2.34,0,0,0,2.37,2.47A2.52,2.52,0,0,0,516.33,239.92ZM446,186.26a2.55,2.55,0,0,0-2.44-2.59A2.46,2.46,0,0,0,441,186a2.39,2.39,0,0,0,2.38,2.61A2.37,2.37,0,0,0,446,186.26Zm45,31.35a2.44,2.44,0,0,0,2.65-2.47,2.5,2.5,0,0,0-2.56-2.47,2.38,2.38,0,0,0-2.47,2.48A2.46,2.46,0,0,0,491,217.61Zm-229.12,20.6c1.55-.13,2.31-1.1,2.5-2.7a2.4,2.4,0,0,0-2.46-2.26,2.33,2.33,0,0,0-2.51,2.49A2.29,2.29,0,0,0,261.88,238.21Zm102.29,5.87a2.39,2.39,0,0,0,2.46-2.52,2.17,2.17,0,0,0-2.48-2.38,2.35,2.35,0,0,0-2.51,2.18A2.55,2.55,0,0,0,364.17,244.08Zm-7.22.33c-.08-1.48-.91-2.27-1.67-2.31-2.31,0-3.33.85-3.32,2.33a2.34,2.34,0,0,0,2.29,2.51A2.5,2.5,0,0,0,357,244.41Zm-20.76,11.28a2.57,2.57,0,0,0,2.54-2.56c-.25-1.38-.91-2.3-2.47-2.3a2.43,2.43,0,1,0-.07,4.86Zm-87.06-4a2.38,2.38,0,0,0-2.37,2.59,2.33,2.33,0,0,0,2.48,2.45,2.43,2.43,0,0,0,2.4-2.2C251.62,252.7,250.52,251.57,249.13,251.69ZM232.29,293a2.61,2.61,0,0,0-2.5,2.58,2.55,2.55,0,0,0,2.51,2.53c1.5-.15,2.36-1,2.48-2.94A2.52,2.52,0,0,0,232.29,293Zm311,16.05a2.25,2.25,0,0,0-2.38,2.54,2.29,2.29,0,0,0,2.46,2.48,2.36,2.36,0,0,0,2.43-2.5A2.41,2.41,0,0,0,543.27,309.06ZM226,317.76a2.19,2.19,0,0,0,2.39,2.33c1.64,0,2.37-1,2.47-2.52s-1.1-2.45-2.86-2.4C226.71,315.25,226,316.2,226,317.76Zm315,60.92c0-1.88-.83-2.77-2.36-2.79a2.51,2.51,0,0,0-.09,5A2.27,2.27,0,0,0,541.06,378.68ZM526,411.91a2.33,2.33,0,0,0,2.4-2.58,2.23,2.23,0,0,0-2.28-2.4,2.62,2.62,0,0,0-2.64,2.51A2.4,2.4,0,0,0,526,411.91ZM358.17,490.52c.05-2.21-1-2.93-2.44-3.08a2.36,2.36,0,0,0-2.46,2.5,2.27,2.27,0,0,0,2.56,2.39C357.3,492.33,358.13,491.5,358.17,490.52Zm183.4-192.38a2.17,2.17,0,0,0-2.65,2.21,2.26,2.26,0,0,0,1.91,2.64c1.81.1,2.94-.9,2.94-2.33A2.23,2.23,0,0,0,541.57,298.14ZM229.78,364.7a2.43,2.43,0,0,0,2.73-2.46,2.36,2.36,0,0,0-2.51-2.5,2.2,2.2,0,0,0-2.37,2.36A2.26,2.26,0,0,0,229.78,364.7Zm128.07-186a2.37,2.37,0,0,0-2.61-2.57,2.32,2.32,0,0,0-2.35,2.43,2.34,2.34,0,0,0,2.52,2.44A2.27,2.27,0,0,0,357.85,178.68Zm-44.54,12.16a2.34,2.34,0,0,0-2.52,2.47,2.31,2.31,0,0,0,2.52,2.43,2.41,2.41,0,0,0,2.42-2.65A2.22,2.22,0,0,0,313.31,190.84ZM227.87,342.42a2.26,2.26,0,0,0,2.26-2.49,2.5,2.5,0,0,0-2.78-2.46,2.29,2.29,0,0,0-2.08,2.63A2.21,2.21,0,0,0,227.87,342.42Zm-2.61-13.52a2.19,2.19,0,0,0,2.37,2.35,2.3,2.3,0,0,0,2.49-2.49c.08-1.41-1.09-2.48-2.81-2.44A2.2,2.2,0,0,0,225.26,328.9ZM470.9,201.56c0,1.62,1,2.31,2.51,2.51,1.42-.21,2.34-.89,2.4-2.41a2.39,2.39,0,0,0-2.65-2.5A2.11,2.11,0,0,0,470.9,201.56Zm49.19,220a2.38,2.38,0,0,0,2.65-2.36,2.3,2.3,0,0,0-2.36-2.57,2.36,2.36,0,0,0-2.53,2.47A2.21,2.21,0,0,0,520.09,421.54ZM430.43,251.2a2.48,2.48,0,0,0,2.72,2.49,2.24,2.24,0,0,0,2.23-2.52c-.06-1.6-1.08-2.31-2.62-2.41A2.32,2.32,0,0,0,430.43,251.2Zm-26.89,41.07a2.33,2.33,0,0,0,2.41-2.38,2.36,2.36,0,0,0-2.49-2.5,2.2,2.2,0,0,0-2.47,2.25A2.41,2.41,0,0,0,403.54,292.27Zm-19.33-50.85a2.25,2.25,0,0,0,2.55-2.38,2.47,2.47,0,1,0-4.94.06A2.19,2.19,0,0,0,384.21,241.42Zm-47.92-56.93a2.31,2.31,0,0,0-2.45-2.49,2.27,2.27,0,0,0-2.49,2.47c0,1.51.9,2.24,2.35,2.47C335.12,186.73,336.19,186.11,336.29,184.49ZM262.18,435.36c1.51-.1,2.19-1,2.3-2.5a2.39,2.39,0,0,0-2.57-2.39,2.2,2.2,0,0,0-2.38,2.34A2.45,2.45,0,0,0,262.18,435.36ZM463.73,193.24a2.37,2.37,0,0,0-2.42,2.54,2.26,2.26,0,0,0,2.59,2.35,2.35,2.35,0,0,0,2.41-2.34A2.63,2.63,0,0,0,463.73,193.24Zm-83.68-17.08c0-1.82-1-2.87-2.47-2.81a2.27,2.27,0,0,0-2.46,2.29,2.34,2.34,0,0,0,2.38,2.58A2.25,2.25,0,0,0,380.05,176.16Zm102.2,29.39a2.26,2.26,0,0,0-2.21,2.53c.06,1.62,1.07,2.29,2.56,2.44a2.35,2.35,0,0,0,2.35-2.45A2.52,2.52,0,0,0,482.25,205.55ZM426,310.16a2.22,2.22,0,0,0,2.21-2.51,2.45,2.45,0,0,0-4.9,0A2.52,2.52,0,0,0,426,310.16Zm109.08-33.55a2.27,2.27,0,0,0-2.47,2.29,2.48,2.48,0,0,0,2.56,2.65,2.3,2.3,0,0,0,2.36-2.35C537.41,277.58,536.64,276.63,535.05,276.61ZM432.94,185a2.43,2.43,0,1,0,0-4.85,2.18,2.18,0,0,0-2.5,2.2A2.4,2.4,0,0,0,432.94,185ZM588,434.57c-1.52,0-2.13,1.05-2.24,2.45a1.84,1.84,0,0,0,2,2.17A2,2,0,0,0,590,437C590,435.65,589.51,434.59,588,434.57Zm-405.24,0c-1.45-.09-2.08.87-2.11,2.26a2,2,0,0,0,2.07,2.35c1.23.05,2.14-.57,2.12-2.3A2.14,2.14,0,0,0,182.8,434.58Zm1.29-9.28c-.49-.47-2-.64-2.37-.28a3.51,3.51,0,0,0-.76,2.72c.37,1.57,1.76,1.5,3.2,1.15A2.42,2.42,0,0,0,184.09,425.3Zm.68-112.2a2.42,2.42,0,0,0,.21-3.66c-1.3-.37-2.69-.57-3.16,1a3.56,3.56,0,0,0,.56,2.79A2.47,2.47,0,0,0,184.77,313.1Zm402.79.1c1.09,1,2.19.53,3-.54.37-3-.34-3.73-3.32-3.21A2.55,2.55,0,0,0,587.56,313.2Zm-1,112a2.43,2.43,0,0,0-.06,3.64c2.89.49,3.6-.24,3.21-3.33C588.74,424.5,587.59,424.15,586.6,425.22ZM588,445a2.75,2.75,0,0,0-2.07,1.53c-.5,1.39.36,2.36,1.92,2.75,1.49-.28,2.49-1.1,2.07-2.57A2.79,2.79,0,0,0,588,445Zm-403.23,1.67a2,2,0,0,0-4-.09c-.52,1.44.41,2.32,2,2.7C184.24,448.92,185.22,448.08,184.77,446.63Zm148-401a2,2,0,0,0,2-2.39c-.11-.79-1-1.47-1.31-1.86-2.15,0-2.75.87-2.76,2.12A1.89,1.89,0,0,0,332.82,45.58ZM332,702.64a1.9,1.9,0,0,0-2.05,2.15c0,1.24.62,2.14,2.77,2.1.29-.39,1.2-1.07,1.31-1.87A2,2,0,0,0,332,702.64ZM439.47,45.58a1.89,1.89,0,0,0,2-2.14c0-1.24-.62-2.15-2.77-2.1-.29.38-1.2,1.07-1.31,1.87A2,2,0,0,0,439.47,45.58Zm-.82,657.06a2,2,0,0,0-2,2.4c.12.79,1,1.47,1.32,1.86,2.15,0,2.74-.89,2.75-2.13A1.89,1.89,0,0,0,438.65,702.64ZM183.72,303.25a1.69,1.69,0,0,0,1.84-2.18,2.93,2.93,0,0,0-2-1.81c-.78,0-1.57,1-2.36,1.58l0,1C182.05,302.32,182.85,303.19,183.72,303.25Zm404.94-9.93c.86-.12,1.62-1,2.42-1.57v-1c-.81-.53-1.66-1.5-2.44-1.45a2.87,2.87,0,0,0-1.91,1.91A1.68,1.68,0,0,0,588.66,293.32ZM312.22,702.41l-.89,0c-.56.75-1.46,1.43-1.61,2.26-.25,1.27.62,2.13,2,2.18a1.8,1.8,0,0,0,2.06-2.09C313.64,703.91,312.76,703.19,312.22,702.41Zm136.65.46a1.92,1.92,0,0,0,.12,3.84c.79,0,1.63-1,2.45-1.53l0-1C450.55,703.73,449.66,702.78,448.87,702.87Zm10.47-.48-.95,0c-.51.83-1.46,1.7-1.4,2.48a2.91,2.91,0,0,0,2,1.86,1.66,1.66,0,0,0,2-2C460.82,703.91,459.91,703.18,459.34,702.39Zm127.38-431a1.69,1.69,0,0,0,1.94,2.09c.86-.12,1.62-1,2.42-1.58,0-.32,0-.64,0-1-.81-.53-1.66-1.51-2.44-1.46A2.89,2.89,0,0,0,586.72,271.36Zm-401.16,0a2.9,2.9,0,0,0-1.93-1.9c-.78-.05-1.62.94-2.43,1.47v1c.8.55,1.56,1.45,2.43,1.56A1.69,1.69,0,0,0,185.56,271.35ZM488.24,702.42c-.53.78-1.4,1.52-1.49,2.36a1.68,1.68,0,0,0,2.07,2,2.94,2.94,0,0,0,1.9-2c0-.77-1-1.6-1.55-2.4ZM183.55,263.51a1.69,1.69,0,0,0,2-2,2.88,2.88,0,0,0-1.86-2c-.78-.08-1.65.87-2.49,1.38l0,1C182,262.44,182.7,263.37,183.55,263.51Zm405.07-9.94c.86-.1,1.64-1,2.45-1.52,0-.32,0-.64,0-1-.8-.55-1.63-1.55-2.41-1.51a2.88,2.88,0,0,0-1.95,1.87A1.68,1.68,0,0,0,588.62,253.57Zm-403.06-2.09a2.89,2.89,0,0,0-1.92-1.9c-.78-.05-1.63.93-2.44,1.46,0,.32,0,.64,0,1,.81.55,1.57,1.45,2.43,1.56A1.69,1.69,0,0,0,185.56,251.48Zm403.1-7.85c.86-.11,1.62-1,2.42-1.57,0-.32,0-.64,0-1-.81-.53-1.66-1.51-2.43-1.46a2.91,2.91,0,0,0-1.92,1.91A1.68,1.68,0,0,0,588.66,243.63ZM183.11,239.2c-.53.82-1.5,1.67-1.45,2.46a2.84,2.84,0,0,0,1.84,2,1.69,1.69,0,0,0,2.07-2c-.13-.87-1-1.64-1.54-2.46Zm405.62,64.06c.86-.14,1.58-1.08,2.36-1.67l0-1c-.84-.5-1.72-1.44-2.49-1.36a2.89,2.89,0,0,0-1.85,2A1.69,1.69,0,0,0,588.73,303.26Zm-90,399.54a1.69,1.69,0,0,0-2,2,2.85,2.85,0,0,0,2,1.88c.79,0,1.63-1,2.45-1.52l0-.92C500.31,703.76,499.57,702.93,498.73,702.8Zm89.86-479c.86-.08,1.65-1,2.48-1.49,0-.32,0-.64,0-1-.8-.56-1.61-1.57-2.39-1.54a2.88,2.88,0,0,0-2,1.84A1.69,1.69,0,0,0,588.59,223.76Zm-404.94-4c-.77-.06-1.63.91-2.45,1.44,0,.32,0,.64,0,1,.8.56,1.55,1.47,2.41,1.59a1.69,1.69,0,0,0,2-2.07A2.89,2.89,0,0,0,183.65,219.77Zm405-6c.86-.13,1.6-1,2.4-1.61,0-.32,0-.64,0-1-.83-.52-1.69-1.48-2.47-1.42a2.91,2.91,0,0,0-1.89,1.95A1.68,1.68,0,0,0,588.69,213.82ZM509.2,702.42l-1,0c-.56.8-1.58,1.6-1.56,2.38a2.88,2.88,0,0,0,1.82,2,1.68,1.68,0,0,0,2.15-1.86C510.57,704,509.71,703.24,509.2,702.42Zm19.85,0-.95,0c-.56.79-1.58,1.6-1.56,2.39a2.9,2.9,0,0,0,1.85,2,1.68,1.68,0,0,0,2.13-1.88C530.43,704,529.57,703.24,529.05,702.42Zm9.9,0h-1c-.55.81-1.54,1.63-1.51,2.42s1.08,1.74,1.87,1.94a1.67,1.67,0,0,0,2.1-1.9C540.36,704,539.48,703.22,539,702.41ZM588.6,190a3,3,0,0,0-1.89,2,1.69,1.69,0,0,0,2,2c.86-.13,1.61-1,2.4-1.62l0-1C590.24,190.85,589.37,189.89,588.6,190Zm-403,2a2.91,2.91,0,0,0-1.89-2c-.77-.06-1.64.9-2.46,1.42l0,1c.79.57,1.53,1.49,2.39,1.62A1.69,1.69,0,0,0,185.56,191.9ZM183.72,184a1.7,1.7,0,0,0,1.84-2.19,2.91,2.91,0,0,0-2-1.8c-.78,0-1.57,1-2.36,1.59l0,1C182.05,183.08,182.85,184,183.72,184Zm403-12.12a1.69,1.69,0,0,0,1.84,2.18c.86-.06,1.67-.93,2.5-1.44,0-.32,0-.64,0-1-.79-.57-1.59-1.59-2.36-1.58A2.91,2.91,0,0,0,586.72,171.89Zm-403.05-1.81c-.77-.07-1.64.9-2.46,1.42l0,1c.8.57,1.54,1.49,2.4,1.62a1.69,1.69,0,0,0,2-2.05A2.91,2.91,0,0,0,183.67,170.08ZM587.84,454.91a1.68,1.68,0,0,0-1.92,2.11,2.92,2.92,0,0,0,2,1.88c.77,0,1.6-.95,2.41-1.49v-1C589.47,455.9,588.7,455,587.84,454.91Zm.76-294.76a2.91,2.91,0,0,0-1.89,1.94,1.69,1.69,0,0,0,2,2c.86-.13,1.6-1,2.4-1.62l0-1C590.24,161.05,589.38,160.08,588.6,160.15Zm-403,1.92a2.89,2.89,0,0,0-1.91-1.92c-.77-.06-1.63.91-2.45,1.44v1c.8.56,1.55,1.47,2.41,1.59A1.69,1.69,0,0,0,185.56,162.07Zm-5.15,305.35c.83.51,1.69,1.48,2.46,1.42a2.89,2.89,0,0,0,1.89-1.94,1.69,1.69,0,0,0-2-2.06c-.86.13-1.6,1.05-2.4,1.62C180.4,466.78,180.41,467.1,180.41,467.42Zm407.51-2.58a1.69,1.69,0,0,0-2,2,2.92,2.92,0,0,0,1.86,2c.78.07,1.65-.88,2.48-1.39,0-.32,0-.64,0-1C589.51,465.91,588.78,465,587.92,464.84Zm.67-320.58c.86-.08,1.65-1,2.47-1.48l0-1c-.8-.55-1.61-1.56-2.38-1.54a2.91,2.91,0,0,0-2,1.84A1.69,1.69,0,0,0,588.59,144.26Zm-404.9,0a1.69,1.69,0,0,0,1.87-2.15,2.91,2.91,0,0,0-2-1.84c-.78,0-1.59,1-2.38,1.54,0,.33,0,.65,0,1C182,143.3,182.82,144.18,183.69,144.26Zm1.09,332.65c-.13-.89-1-1.68-1.5-2.51l-.92,0c-.55.81-1.53,1.64-1.5,2.43a2.82,2.82,0,0,0,1.81,2A1.66,1.66,0,0,0,184.78,476.91Zm403,1.86c.78.07,1.64-.9,2.46-1.42l0-1c-.79-.56-1.54-1.49-2.39-1.61a1.69,1.69,0,0,0-2,2.05C586.1,477.62,587.1,478.72,587.81,478.77Zm-1.09-346.52a1.68,1.68,0,0,0,1.94,2.08c.86-.12,1.62-1,2.42-1.58v-1c-.81-.53-1.66-1.51-2.44-1.45A2.85,2.85,0,0,0,586.72,132.25ZM180.4,527c.82.53,1.67,1.52,2.45,1.46a2.9,2.9,0,0,0,1.92-1.91,1.69,1.69,0,0,0-2-2.09c-.86.12-1.62,1-2.42,1.58Zm2.41-38.25a1.67,1.67,0,0,0,2-2c-.19-.88-1.09-1.61-1.67-2.4l-.91,0c-.49.85-1.41,1.74-1.34,2.53A2.86,2.86,0,0,0,182.81,488.75ZM588.6,110.46a2.91,2.91,0,0,0-1.89,1.94,1.69,1.69,0,0,0,2,2c.86-.13,1.6-1,2.4-1.61,0-.32,0-.64,0-1C590.24,111.36,589.38,110.39,588.6,110.46Zm-403,2a2.88,2.88,0,0,0-1.85-2c-.78-.08-1.66.87-2.49,1.37,0,.32,0,.64,0,1,.79.59,1.51,1.52,2.37,1.66A1.68,1.68,0,0,0,185.56,112.44Zm-2.79,386.21a2.89,2.89,0,0,0,2-1.84,1.69,1.69,0,0,0-1.87-2.15c-.86.08-1.65.95-2.48,1.48l0,1C181.19,497.66,182,498.68,182.77,498.65Zm403.15,8.11a2.93,2.93,0,0,0,2,1.82c.78,0,1.58-1,2.37-1.56l0-1c-.83-.52-1.63-1.38-2.49-1.46A1.7,1.7,0,0,0,585.92,506.76ZM185.56,102.41a2.91,2.91,0,0,0-1.95-1.89c-.77,0-1.61,1-2.42,1.5v1c.81.54,1.58,1.43,2.44,1.54A1.69,1.69,0,0,0,185.56,102.41Zm403-11.83a2.92,2.92,0,0,0-1.87,2,1.68,1.68,0,0,0,2,2c.86-.14,1.6-1.06,2.39-1.63,0-.32,0-.64,0-1C590.24,91.47,589.37,90.51,588.59,90.58Zm-405-5.94a1.69,1.69,0,0,0,1.92-2.11,2.92,2.92,0,0,0-1.95-1.88c-.77,0-1.61.95-2.41,1.48v1C182,83.64,182.78,84.54,183.64,84.64ZM590.27,526c-.81-.53-1.59-1.42-2.45-1.51a1.68,1.68,0,0,0-1.9,2.12,2.9,2.9,0,0,0,2,1.87c.78,0,1.6-1,2.41-1.51C590.28,526.63,590.28,526.3,590.27,526Zm-4.35,10.54a2.91,2.91,0,0,0,2,1.88c.77,0,1.6-1,2.4-1.51v-1c-.82-.54-1.59-1.43-2.45-1.53A1.69,1.69,0,0,0,585.92,536.52Zm-400.36-444a2.93,2.93,0,0,0-1.92-1.91c-.78,0-1.62.93-2.44,1.46v1c.81.55,1.56,1.46,2.43,1.57A1.69,1.69,0,0,0,185.56,92.49Zm-2.67,451.85c-.86.08-1.65,1-2.47,1.48l0,1c.8.57,1.61,1.58,2.38,1.55a2.9,2.9,0,0,0,2-1.83A1.69,1.69,0,0,0,182.89,544.34Zm403,2.16a2.9,2.9,0,0,0,2,1.83c.78,0,1.59-1,2.38-1.54l0-1c-.83-.52-1.62-1.4-2.48-1.48A1.69,1.69,0,0,0,585.92,546.5Zm-403,7.78c-.87.07-1.66.94-2.49,1.46l0,1c.79.56,1.59,1.58,2.37,1.56a2.92,2.92,0,0,0,2-1.82A1.69,1.69,0,0,0,182.91,554.28Zm403,2.1a2.9,2.9,0,0,0,1.94,1.89c.78.05,1.61-.94,2.42-1.48v-1c-.81-.55-1.57-1.45-2.43-1.55A1.69,1.69,0,0,0,585.92,556.38Zm.8-473.88a1.69,1.69,0,0,0,1.88,2.14c.86-.09,1.65-1,2.47-1.49v-1c-.79-.56-1.61-1.56-2.39-1.53A2.9,2.9,0,0,0,586.72,82.5ZM182.79,568.25a1.66,1.66,0,0,0,2-2c-.18-.89-1.07-1.62-1.64-2.42l-.92,0c-.49.85-1.43,1.73-1.36,2.52A2.86,2.86,0,0,0,182.79,568.25Zm0,9.94a1.67,1.67,0,0,0,2-2c-.16-.89-1-1.64-1.58-2.46h-.92c-.52.83-1.47,1.69-1.42,2.49A2.85,2.85,0,0,0,182.74,578.19Zm403.18,8a2.93,2.93,0,0,0,1.91,1.91c.78,0,1.63-.92,2.45-1.45,0-.32,0-.64,0-1-.8-.56-1.56-1.46-2.42-1.58A1.69,1.69,0,0,0,585.92,586.17ZM184.78,596c-.19-.88-1.09-1.6-1.67-2.4l-.92,0c-.48.85-1.4,1.74-1.32,2.53a2.85,2.85,0,0,0,1.94,1.87A1.67,1.67,0,0,0,184.78,596Zm-2.38,7.54c-.56.81-1.55,1.62-1.54,2.41a2.85,2.85,0,0,0,1.78,2,1.67,1.67,0,0,0,2.14-1.87c-.11-.89-.95-1.69-1.46-2.53ZM587.84,608c.78,0,1.62-.93,2.44-1.46v-1c-.8-.55-1.56-1.46-2.42-1.57a1.69,1.69,0,0,0-1.94,2.09A2.91,2.91,0,0,0,587.84,608ZM585.92,616a2.9,2.9,0,0,0,2,1.86c.78,0,1.6-1,2.41-1.51v-1c-.82-.53-1.6-1.42-2.46-1.51A1.69,1.69,0,0,0,585.92,616ZM538.66,45.79l.9.06c.59-.73,1.5-1.38,1.69-2.2.3-1.26-.54-2.15-1.88-2.25a1.79,1.79,0,0,0-2.14,2C537.31,44.24,538.16,45,538.66,45.79ZM182.31,623.45c-.53.82-1.5,1.67-1.45,2.46a2.83,2.83,0,0,0,1.85,2,1.67,1.67,0,0,0,2.07-2c-.14-.88-1-1.65-1.55-2.47Zm405.59,4.38c.78,0,1.59-1,2.39-1.54,0-.32,0-.64,0-1-.82-.53-1.61-1.41-2.47-1.49a1.69,1.69,0,0,0-1.88,2.15A2.9,2.9,0,0,0,587.9,627.83Zm-79-582,.93.06c.58-.8,1.62-1.6,1.6-2.38a2.91,2.91,0,0,0-1.86-2,1.68,1.68,0,0,0-2.11,1.94C507.5,44.24,508.35,45,508.86,45.79Zm-8.82,0c.52-.82,1.38-1.6,1.47-2.47a1.68,1.68,0,0,0-2.13-1.87,2.9,2.9,0,0,0-1.85,2c0,.78,1,1.59,1.55,2.39Zm-9.87,0c.49-.83,1.34-1.65,1.4-2.51a1.69,1.69,0,0,0-2.19-1.82,2.9,2.9,0,0,0-1.79,2c0,.79,1,1.57,1.62,2.35Zm-10.1,0c.55-.76,1.43-1.46,1.57-2.29a1.69,1.69,0,0,0-2-2.07,2.87,2.87,0,0,0-2,1.87c-.06.79.93,1.65,1.46,2.48Zm-19.82,0c.53-.77,1.39-1.49,1.52-2.32a1.69,1.69,0,0,0-2-2,2.9,2.9,0,0,0-1.94,1.91c0,.79,1,1.63,1.52,2.45ZM182.87,633.77c-.86.09-1.64,1-2.46,1.51v1c.8.55,1.62,1.55,2.4,1.52a2.88,2.88,0,0,0,2-1.86A1.69,1.69,0,0,0,182.87,633.77Zm404.93,4c.78.06,1.64-.9,2.47-1.42l0-1c-.79-.57-1.53-1.49-2.39-1.62a1.69,1.69,0,0,0-2,2.05A2.92,2.92,0,0,0,587.8,637.77ZM449.34,45.82h.89c.56-.75,1.44-1.44,1.6-2.27.23-1.27-.64-2.12-2-2.17a1.81,1.81,0,0,0-2,2.1C447.91,44.32,448.8,45.05,449.34,45.82ZM182.78,643.71c-.86.13-1.6,1.06-2.39,1.63l0,1c.82.52,1.69,1.48,2.47,1.41a3,3,0,0,0,1.88-2A1.69,1.69,0,0,0,182.78,643.71Zm2-127.07a1.69,1.69,0,0,0-1.92-2.11c-.86.1-1.63,1-2.44,1.54,0,.32,0,.64,0,1,.81.54,1.64,1.54,2.42,1.5A2.93,2.93,0,0,0,184.77,516.64Zm48,185.77-.9,0c-.56.74-1.46,1.42-1.62,2.25-.25,1.27.62,2.13,2,2.19a1.8,1.8,0,0,0,2.07-2.08C234.15,703.92,233.27,703.19,232.74,702.41Zm355.09-38.82a1.69,1.69,0,0,0-1.91,2.11,2.88,2.88,0,0,0,2,1.87c.77,0,1.6-1,2.41-1.49,0-.32,0-.65,0-1C589.47,664.57,588.69,663.68,587.83,663.59ZM302,45.81l1,0c.57-.81,1.59-1.63,1.57-2.41s-1.11-1.77-1.9-2a1.69,1.69,0,0,0-2.08,2C300.68,44.28,301.52,45,302,45.81Zm-19.88,0,1,0c.57-.81,1.6-1.63,1.58-2.41s-1.11-1.77-1.9-2a1.68,1.68,0,0,0-2.08,2C280.8,44.28,281.64,45,282.15,45.81Zm-9.78,0,.94,0c.52-.83,1.49-1.69,1.43-2.47a2.87,2.87,0,0,0-1.94-1.87,1.66,1.66,0,0,0-2,2C270.9,44.3,271.81,45,272.37,45.84Zm-9.94,0,.95,0c.52-.83,1.48-1.69,1.42-2.47a2.87,2.87,0,0,0-1.94-1.87,1.66,1.66,0,0,0-2,2C261,44.3,261.87,45,262.43,45.83Zm-10,0h.94c.55-.83,1.54-1.68,1.49-2.47s-1.17-1.73-2-1.89a1.68,1.68,0,0,0-2,2.05C251,44.35,251.89,45.06,252.43,45.82Zm-29.81,0h.89c.56-.76,1.47-1.47,1.6-2.29a1.81,1.81,0,0,0-2-2.15c-1.36,0-2.24.86-2,2.13C221.21,44.35,222.08,45.06,222.62,45.82Zm.23,656.61-.9,0c-.58.74-1.48,1.4-1.66,2.22-.27,1.27.57,2.15,1.92,2.23a1.8,1.8,0,0,0,2.11-2C224.22,704,223.36,703.21,222.85,702.43ZM182.9,657.64a2.88,2.88,0,0,0,1.86-2,1.68,1.68,0,0,0-2-2c-.86.14-1.59,1.07-2.38,1.64l0,1C181.25,656.76,182.12,657.72,182.9,657.64ZM262,702.86a2.83,2.83,0,0,0-1.92,1.87,1.67,1.67,0,0,0,2,2c.87-.14,1.63-1,2.43-1.56,0-.3,0-.61,0-.91C263.62,703.77,262.77,702.81,262,702.86Zm8,1.77a1.67,1.67,0,0,0,1.86,2.14c.88-.1,1.68-.93,2.52-1.44l0-.91c-.8-.56-1.6-1.57-2.39-1.57A2.87,2.87,0,0,0,270,704.63Zm21.32-2.21c-.51.82-1.37,1.6-1.46,2.47a1.68,1.68,0,0,0,2.13,1.87,2.88,2.88,0,0,0,1.84-2c0-.79-1-1.6-1.55-2.39Zm10,0c-.53.77-1.39,1.49-1.51,2.32a1.69,1.69,0,0,0,2,2c.8-.17,1.91-1.22,1.94-1.92s-1-1.62-1.51-2.44ZM183.09,288.89c-.53.83-1.49,1.68-1.44,2.47a2.85,2.85,0,0,0,1.87,1.95,1.69,1.69,0,0,0,2-2c-.14-.87-1-1.63-1.56-2.44Zm405.53-5.51c.86-.09,1.64-1,2.45-1.51v-1c-.8-.55-1.62-1.55-2.4-1.51a2.88,2.88,0,0,0-2,1.87A1.68,1.68,0,0,0,588.62,283.38Zm-403.06-2.16a2.91,2.91,0,0,0-2-1.83c-.78,0-1.58,1-2.38,1.56l0,1c.83.52,1.62,1.4,2.49,1.47A1.69,1.69,0,0,0,185.56,281.22Zm403-17.71c.86-.08,1.66-.95,2.48-1.47l0-1c-.79-.56-1.6-1.57-2.38-1.55a2.88,2.88,0,0,0-2,1.82A1.7,1.7,0,0,0,588.58,263.51Zm-403-31.88a2.92,2.92,0,0,0-1.91-1.93c-.77,0-1.63.92-2.45,1.45,0,.32,0,.64,0,1,.8.56,1.55,1.47,2.41,1.59A1.69,1.69,0,0,0,185.56,231.63Zm0-19.82a2.92,2.92,0,0,0-1.85-2c-.78-.08-1.66.87-2.49,1.37,0,.32,0,.64,0,1,.78.58,1.51,1.52,2.37,1.66A1.68,1.68,0,0,0,185.56,211.81Zm403-7.93c.87-.07,1.66-.94,2.49-1.45l0-1c-.79-.57-1.59-1.59-2.37-1.57a2.9,2.9,0,0,0-2,1.82A1.69,1.69,0,0,0,588.57,203.88Zm-404.93,0a1.69,1.69,0,0,0,1.92-2.11,2.94,2.94,0,0,0-1.94-1.89c-.78,0-1.61.94-2.42,1.48v1C182,202.88,182.77,203.78,183.64,203.89ZM313.06,45.81c.52-.79,1.38-1.53,1.48-2.36a1.67,1.67,0,0,0-2.07-2,2.92,2.92,0,0,0-1.9,2c0,.78,1,1.6,1.55,2.41Zm274.85,518.4a1.69,1.69,0,0,0-2,2,2.92,2.92,0,0,0,1.87,2c.78.07,1.65-.89,2.48-1.4l0-1C589.51,565.27,588.77,564.35,587.91,564.21ZM292.23,45.84l.9,0c.54-.77,1.43-1.5,1.54-2.33a1.8,1.8,0,0,0-2.05-2.1c-1.34,0-2.22.9-2,2.17C290.79,44.39,291.68,45.08,292.23,45.84Zm-111,86.87c.79.57,1.53,1.49,2.39,1.62a1.69,1.69,0,0,0,2-2.05,2.9,2.9,0,0,0-1.88-1.94c-.78-.07-1.65.89-2.47,1.4C181.2,132.06,181.19,132.39,181.19,132.71ZM469.11,45.79l.93.06c.58-.8,1.62-1.6,1.6-2.38a2.89,2.89,0,0,0-1.86-2,1.68,1.68,0,0,0-2.11,1.94C467.75,44.24,468.6,45,469.11,45.79Zm80.53,0c.54-.76,1.42-1.47,1.56-2.3a1.69,1.69,0,0,0-2-2.06,2.9,2.9,0,0,0-2,1.88c-.05.78.94,1.64,1.48,2.47ZM182.9,534.4c-.86.08-1.66,1-2.48,1.48l0,1c.8.56,1.6,1.57,2.38,1.55a2.91,2.91,0,0,0,2-1.84A1.69,1.69,0,0,0,182.9,534.4ZM242.39,45.81l1,0c.57-.79,1.59-1.58,1.59-2.37a2.89,2.89,0,0,0-1.83-2A1.68,1.68,0,0,0,241,43.32C241,44.18,241.89,45,242.39,45.81ZM235,43.51a2.87,2.87,0,0,0-1.86-2c-.79-.07-1.68.89-2.53,1.4l0,.91c.75.56,1.44,1.42,2.28,1.6A1.68,1.68,0,0,0,235,43.51Zm293.8,2.31h.9c.56-.75,1.44-1.44,1.59-2.27.24-1.27-.63-2.12-2-2.17a1.8,1.8,0,0,0-2.05,2.11C527.4,44.32,528.29,45.05,528.83,45.82Zm62.24,76c-.83-.51-1.69-1.48-2.47-1.42a2.93,2.93,0,0,0-1.89,2,1.69,1.69,0,0,0,2,2c.86-.13,1.6-1,2.39-1.62ZM185.56,152.19a2.92,2.92,0,0,0-1.85-2c-.77-.09-1.65.86-2.49,1.36l0,1c.78.59,1.5,1.53,2.36,1.67A1.69,1.69,0,0,0,185.56,152.19Zm403,2c.87-.07,1.66-.95,2.49-1.47,0-.32,0-.65,0-1-.79-.56-1.6-1.57-2.38-1.55a2.9,2.9,0,0,0-2,1.83A1.69,1.69,0,0,0,588.58,154.2ZM184.76,457.07a1.69,1.69,0,0,0-1.86-2.16c-.86.07-1.66.95-2.48,1.47l0,1c.8.56,1.6,1.57,2.38,1.55A2.9,2.9,0,0,0,184.76,457.07ZM591.07,181.44c-.83-.52-1.69-1.49-2.47-1.42a2.91,2.91,0,0,0-1.89,1.94,1.69,1.69,0,0,0,2,2c.86-.12,1.61-1,2.4-1.61ZM519,45.84l1,0c.49-.83,1.43-1.72,1.34-2.5a3,3,0,0,0-2-1.84,1.67,1.67,0,0,0-2,2C517.49,44.34,518.44,45.06,519,45.84ZM590.26,516c-.83-.5-1.64-1.37-2.5-1.43a1.71,1.71,0,0,0-1.84,2.19,2.89,2.89,0,0,0,2,1.8c.78,0,1.57-1,2.36-1.58C590.29,516.61,590.27,516.29,590.26,516ZM241.73,702.39c-.55.81-1.45,1.56-1.57,2.42a1.67,1.67,0,0,0,2.06,2,2.89,2.89,0,0,0,1.92-1.9c0-.79-.93-1.63-1.47-2.45Zm10.93,0-.94,0c-.57.8-1.59,1.62-1.57,2.4a3,3,0,0,0,1.89,2,1.68,1.68,0,0,0,2.09-2C254,704,253.17,703.21,252.66,702.43ZM182.78,508.58a2.88,2.88,0,0,0,2-1.84,1.69,1.69,0,0,0-1.87-2.15c-.86.08-1.65,1-2.48,1.49,0,.32,0,.64,0,1C181.19,507.6,182,508.61,182.78,508.58Zm403.14-11.84a2.89,2.89,0,0,0,1.92,1.9c.77.06,1.62-.92,2.44-1.45,0-.32,0-.64,0-1-.81-.55-1.56-1.46-2.42-1.57A1.68,1.68,0,0,0,585.92,496.74ZM281.37,702.42c-.52.82-1.38,1.61-1.46,2.48a1.68,1.68,0,0,0,2.14,1.86,2.92,2.92,0,0,0,1.84-2c0-.79-1-1.59-1.57-2.38ZM585.92,596.19a2.91,2.91,0,0,0,2,1.83c.78,0,1.58-1,2.37-1.55,0-.33,0-.65,0-1-.83-.52-1.62-1.39-2.48-1.46A1.7,1.7,0,0,0,585.92,596.19Zm0,49.55a2.9,2.9,0,0,0,1.86,2c.78.08,1.65-.88,2.49-1.39l0-1c-.79-.58-1.52-1.51-2.37-1.65A1.69,1.69,0,0,0,585.92,645.74Zm0-69.5a2.91,2.91,0,0,0,1.92,1.9c.78.05,1.62-.93,2.44-1.46,0-.32,0-.64,0-1-.81-.55-1.57-1.46-2.43-1.57A1.69,1.69,0,0,0,585.92,576.24ZM321.75,702.82a2.92,2.92,0,0,0-2,1.8c-.08.79.88,1.68,1.39,2.53l.94,0c.57-.74,1.47-1.42,1.64-2.24A1.69,1.69,0,0,0,321.75,702.82ZM585.92,655.7a2.89,2.89,0,0,0,1.89,1.94c.77.06,1.64-.9,2.46-1.42,0-.32,0-.64,0-1-.79-.56-1.53-1.48-2.39-1.61A1.69,1.69,0,0,0,585.92,655.7Zm-405.51-69c.83.51,1.69,1.47,2.47,1.41a2.93,2.93,0,0,0,1.89-1.94,1.69,1.69,0,0,0-2-2c-.86.13-1.6,1-2.4,1.61ZM469.27,702.39l-.9,0c-.53.78-1.4,1.52-1.5,2.35a1.8,1.8,0,0,0,2.09,2.06c1.34-.07,2.2-.93,1.94-2.2C470.73,703.8,469.84,703.13,469.27,702.39Zm9.93,0-.88,0c-.53.77-1.41,1.51-1.52,2.34a1.81,1.81,0,0,0,2.09,2.07c1.35-.07,2.21-.93,1.95-2.2C480.68,703.8,479.78,703.13,479.2,702.38ZM180.42,616.51c.83.5,1.7,1.45,2.48,1.38a2.92,2.92,0,0,0,1.87-2,1.69,1.69,0,0,0-2-2c-.86.13-1.59,1.07-2.38,1.64Zm406.3-514.12a1.68,1.68,0,0,0,1.9,2.12c.86-.09,1.64-1,2.45-1.51v-1c-.8-.54-1.63-1.54-2.4-1.51A2.9,2.9,0,0,0,586.72,102.39ZM322,45.82h.95c.55-.82,1.55-1.66,1.5-2.45a2.88,2.88,0,0,0-1.95-1.9,1.69,1.69,0,0,0-2,2C320.58,44.34,321.44,45.05,322,45.82ZM519.08,702.41h-1c-.55.8-1.54,1.63-1.51,2.41a2.89,2.89,0,0,0,1.87,1.94,1.68,1.68,0,0,0,2.11-1.91C520.49,704,519.61,703.22,519.08,702.41Zm66.84-215.6a2.88,2.88,0,0,0,1.93,1.9c.78.05,1.62-.93,2.43-1.47,0-.32,0-.64,0-1-.81-.54-1.57-1.44-2.44-1.55A1.68,1.68,0,0,0,585.92,486.81ZM185.57,122.38c-.15-.88-1-1.63-1.59-2.43l-.92,0c-.51.83-1.46,1.69-1.4,2.48a2.83,2.83,0,0,0,1.89,1.93A1.68,1.68,0,0,0,185.57,122.38Zm363.24,580-.95,0c-.52.84-1.5,1.71-1.43,2.5a2.91,2.91,0,0,0,2,1.85,1.69,1.69,0,0,0,2-2.1C550.25,703.84,549.36,703.14,548.81,702.39ZM588.69,229.7a2.89,2.89,0,0,0-2,1.86,1.69,1.69,0,0,0,1.88,2.14c.87-.09,1.65-1,2.47-1.5,0-.32,0-.65,0-1C590.29,230.68,589.47,229.68,588.69,229.7Zm-403.91,436c-.13-.89-1-1.68-1.49-2.51l-.92,0c-.55.81-1.53,1.63-1.51,2.43a2.83,2.83,0,0,0,1.8,2A1.67,1.67,0,0,0,184.78,665.72Zm259-181.12a2.58,2.58,0,0,0,2.55-2.53,2.4,2.4,0,0,0-2.36-2.42,2.48,2.48,0,1,0-.19,5Zm-43.57,5.15a2.48,2.48,0,0,0-2.41,2.62,2.26,2.26,0,0,0,2.5,2.26,2.31,2.31,0,0,0,2.53-2.3A2.57,2.57,0,0,0,400.23,489.75Zm22.21,1.35a2.36,2.36,0,0,0,2.52-2.46,2.45,2.45,0,0,0-2.44-2.42,2.5,2.5,0,0,0-2.6,2.65A2.22,2.22,0,0,0,422.44,491.1Zm-33.36-.65a2.21,2.21,0,0,0-2.42,2.3,2.41,2.41,0,0,0,2.42,2.58,2.38,2.38,0,0,0,2.53-2.27C391.75,491.55,390.82,490.53,389.08,490.45Zm22.39,2.9a2.36,2.36,0,0,0,2.44-2.56,2.23,2.23,0,0,0-2.44-2.33,2.32,2.32,0,0,0-2.52,2.42A2.37,2.37,0,0,0,411.47,493.35Zm-33.61-3.17a2.24,2.24,0,0,0-2.37,2.39c0,1.61.86,2.41,2.52,2.48a2.21,2.21,0,0,0,2.4-2.46A2.28,2.28,0,0,0,377.86,490.18Zm55.39-2c1.57-.09,2.38-1,2.5-2.66a2.35,2.35,0,0,0-2.45-2.2,2.43,2.43,0,1,0-.05,4.86ZM373.84,86.77c1,.12,1.91.14,2.6.19V115.1c-.61.11-.87.16-1.12.19-1.34.15-3.18-.11-3.2,1.81s1.85,1.77,3.17,1.86c4.16.26,8.32.51,12.48.61a56.16,56.16,0,0,0,8.1-.29,3.22,3.22,0,0,0,2.2-2c.29-1.27-.87-1.9-2.14-2-.77-.08-1.55-.19-2.29-.29-.22-9.36-.44-18.56-.66-27.81,1.19-.08,2.31-.15,3.43-.24,1.35-.1,2.61-.42,2.59-2.09s-1.29-1.91-2.51-2c-1.92-.13-3.84-.17-5.75-.14q-8.44.15-16.87.42c-1.16,0-2.41.34-2.42,1.8S372.69,86.63,373.84,86.77Zm7.24.47h8.21c-.2,9.21-.41,18.28-.61,27.53h-7.6Z"/></svg>