<svg xmlns="http://www.w3.org/2000/svg" viewBox="0 0 750 750"><path d="M591.15,300.58c-.78-.48-1.63-1.41-2.32-1.3a2.87,2.87,0,0,0-1.91,1.89,1.67,1.67,0,0,0,2.06,2c.8-.15,1.47-1.06,2.21-1.62C591.17,301.2,591.16,300.89,591.15,300.58Zm-4.3-79.07c-.06,1.34.76,2.24,2,2.09.82-.1,1.54-1,2.3-1.48l0-.94c-.76-.52-1.45-1.33-2.27-1.49A1.71,1.71,0,0,0,586.85,221.51Zm1.77,87.74c-.75.13-1.41.86-2.11,1.32l-.06.91c.81.69,1.52,1.78,2.43,2,1.25.27,2-.69,1.94-2.09S590.09,309,588.62,309.25ZM534.55,446.16c8.61-12,5.54-23.21-7.91-29.2-6.65-3-13.71-4-20.89-4.33a142.47,142.47,0,0,0-49.32,6.9c-13.93,4.38-27.21,10.16-38.63,19.45-4.54,3.7-8.54,8-12.79,12.11-1.29-5.6-2.69-11.52-7.06-16.27,4.94-3,6.44-7.48,6-12.82s-3.07-9.41-6.93-12.64c1.25-1.35,2.52-2.52,3.55-3.88a26.32,26.32,0,0,0,4.84-13.08c.59-4.92.63-9.9-2.09-14.27a10.18,10.18,0,0,0-4.39-3.69,2.65,2.65,0,0,0-3.8,3,11.31,11.31,0,0,0,2.38,5.46c6.52,7.05,2.75,16.2-1.07,21.26a6.5,6.5,0,0,1-6.73,2.37,20,20,0,0,0-6.91,0,6.79,6.79,0,0,1-7.16-2.68,28.7,28.7,0,0,1-3.05-6c-2.35-5.6-1.53-10.69,2.59-15.27a9.31,9.31,0,0,0,1.89-3.43c.46-1.5.78-3.24-.88-4.32a3.55,3.55,0,0,0-4.74.56,18.84,18.84,0,0,0-3.68,5.73c-2.56,6.9-.92,21.77,7.73,28.19-4,3.3-6.63,7.35-7.07,12.6s1,9.94,6,13c-4.34,4.78-5.78,10.63-7,16.27-4.31-4.1-8.33-8.44-12.86-12.15-10.27-8.42-22.18-13.92-34.67-18.13-19.88-6.69-40.19-10.06-61.19-7.4-6.84.87-13.36,2.82-18.95,7.09-6.35,4.86-8.28,11.81-5.42,19.29a31.15,31.15,0,0,0,7.27,10.81c8.49,8.57,18.76,14.38,29.81,18.93l2.67,1.11c-1,.83-1.78,1.43-2.5,2.1-3.09,2.84-3.19,6.44-.24,9.38a41,41,0,0,0,3.26,2.91,74.5,74.5,0,0,0,31.21,14.51c9.31,2,18.58,4.21,27.95,5.93a35.66,35.66,0,0,0,20.85-2.16c4.31-1.85,7.51-5.14,11.08-8,.78-.62,1.61-1.17,2.55-1.85.67,3.37,1.22,6.37,1.86,9.34,2.53,11.85,6.23,23.28,12.29,33.84,2.89,5,4.73,5,7.65-.06a110.44,110.44,0,0,0,11.47-30.36c1-4.15,1.78-8.35,2.72-12.86A40.62,40.62,0,0,1,407.5,496c7.05,7,15.54,10.54,25.47,10a96.49,96.49,0,0,0,13.95-1.92c11.46-2.37,23-4.48,33.85-9.1,7.39-3.14,14.28-7,20.05-12.63,3.3-3.24,3.18-6.89-.33-9.92-.66-.58-1.34-1.13-1.73-1.45,6.33-3.32,12.65-6.37,18.69-9.9A54.21,54.21,0,0,0,534.55,446.16ZM356.64,450l2.62,2.79h-4.11Zm-1.94-1.86c-.75,1.54-1.48,3-2.28,4.65h-3.83C349.43,448.77,351.14,447.45,354.7,448.12Zm-33-21.95a131.28,131.28,0,0,1,27.13,16.76c.46.37.89.78,1.33,1.17-.05.21-.1.41-.16.62-3.84-.38-7.72-.59-11.54-1.17a131.66,131.66,0,0,1-33.54-9.37,69.15,69.15,0,0,1-7-3.69,17.9,17.9,0,0,1-3.57-2.81c-1.63-1.66-1.46-2.78.7-3.54a43.61,43.61,0,0,1,6.34-1.49C308.55,421.26,315.17,423.13,321.68,426.17Zm26.42,21.61c-.87,1.54-1.62,3-2.5,4.35a1.67,1.67,0,0,1-1.3.49c-1.11,0-2.21-.22-3.45-.36.92-1.54,1.72-3,2.69-4.41a2.12,2.12,0,0,1,1.55-.47A27.49,27.49,0,0,1,348.1,447.78Zm-56.81-17.15c.45-.16,1.2.28,1.7.61a25.32,25.32,0,0,1,2.31,1.88c-2.93,2.07-5.7,4.06-8.5,6a1.45,1.45,0,0,1-1.24,0c-2.3-1.13-4.57-2.32-7.19-3.67C283,433.74,287.1,432.13,291.29,430.63Zm-15.86,2.59c-2-1.64-4.07-3.32-4.69-6.24l19.13-1.11.61,2.51-10,3.65a6.12,6.12,0,0,1-1.5.49C277.79,432.61,276.85,434.37,275.43,433.22Zm20.86,2a1.9,1.9,0,0,1,2.47-.12c1.15.72,2.42,1.26,3.78,1.95-2.49,1.87-4.84,3.65-7.23,5.39a1.35,1.35,0,0,1-1.08.15c-1.78-.62-3.54-1.31-5.58-2.08C291.43,438.64,293.9,437,296.29,435.26Zm8.26,3.07a1.12,1.12,0,0,1,.92,0c1.91.7,3.8,1.45,5.67,2.17-1.69,1.78-3.24,3.49-4.91,5.08a2.11,2.11,0,0,1-1.73.33c-2.17-.55-4.31-1.24-6.93-2C300.07,441.86,302.29,440.07,304.55,438.33Zm9.18,3.44c.3-.28,1.1-.16,1.62,0,1.09.26,2.14.64,3.55,1.08-1.74,1.73-3.24,3.28-4.82,4.75a1.84,1.84,0,0,1-1.38.4c-1.27-.22-2.52-.59-4.07-1C310.45,445.1,312,443.38,313.73,441.77Zm7.49,2.27c1.16-.64,3.06.08,4.93.21-1.49,1.93-2.65,3.51-3.92,5a1.73,1.73,0,0,1-1.35.38c-1.43-.19-2.84-.51-4.7-.87C318,447,319.37,445.06,321.22,444Zm7.43,1.72c1-.68,2.89-.13,4.75-.13-1.39,2-2.41,3.59-3.58,5.06-.24.31-1.05.26-1.59.21-1.1-.11-2.19-.33-3.53-.55C326.09,448.66,327.09,446.78,328.65,445.76Zm7.19,1.11a2.26,2.26,0,0,1,1.61-.32c1,.07,2,.29,3.11.48L338,452.09l-5.82-.61C333.46,449.8,334.58,448.27,335.84,446.87ZM300,419.44c-6.4,2.86-12.22.16-18.11-.3C287.86,416.09,293.68,418.87,300,419.44Zm-21.68,1.14c4.14.72,8.24,1.63,12.36,2.47l0,.76a13.22,13.22,0,0,1-2,.36c-5.66.12-11.31.21-16.85.3C272.44,422.7,276.12,420.2,278.3,420.58ZM274,479.11c-1.3-1.11-1.06-2.32.22-3.1a41.12,41.12,0,0,1,6.93-3.75c4.28-1.62,8.71-2.86,13.63-4.43-1.09,3.83-1.45,7-5.21,8.66s-7.13,4.25-10.84,6.54C277.16,481.71,275.57,480.43,274,479.11Zm21.05,12.47c-4.21-1.85-8.38-3.77-12.78-5.76,10.12-8.17,20.95-13.74,32.77-18.49-.85,2.49-1.57,4.65-2.31,6.81-.64,1.87-1.24,3.76-2,5.6a3.68,3.68,0,0,1-1.19,1.52q-6.62,5.07-13.29,10A1.51,1.51,0,0,1,295.07,491.58Zm2.29-19.85c.4-3,1-4.09,2.51-4.51C299,468.76,299.73,470.88,297.36,471.73Zm4.39-2.22c.64-1.59.43-3.58,3.1-3.06C305,468.6,303.67,469.17,301.75,469.51Zm6.2-2.27c.29-1.74.67-1.89,4.43-1.68Zm12.62,30.39c-6.51-1.16-13-2.43-19.49-3.68a10.85,10.85,0,0,1-1.6-.63c2.26-1.62,4.42-3,6.39-4.63,2.4-2,4.61-4.16,6.93-6.22a8.53,8.53,0,0,1,2.37-1.73c7.84-3,15.71-6,23.57-9,.36-.14.74-.23,1.53-.46-.38,1.51-.74,2.73-1,4-.63,3-1.19,6.1-1.86,9.13a3.39,3.39,0,0,1-1,1.8C332,489.87,327.48,493.49,323,497A3.36,3.36,0,0,1,320.57,497.63ZM319.46,475c-.38.93-2,1.36-3.06,2l-.48-.54c1.41-3.54,2.74-7.12,4.3-10.59.28-.61,1.56-.77,2.62-1.25C321.63,468.43,320.77,471.79,319.46,475Zm6.11-8.92c.29-.61,1.6-.72,2.44-1.06.08.21.16.43.23.64a64,64,0,0,1-2.74,6.75c-.45.86-1.77,1.26-2.69,1.87l-.4-.42C323.44,471.21,324.35,468.55,325.57,466Zm2.74,5.72a49.72,49.72,0,0,1,1.93-5.24c.27-.55,1.25-.77,2.17-.81C331.22,467.84,332.15,471.18,328.31,471.76Zm5.83-2.05c.23-3.14.8-3.84,2.73-3.21C336.49,468,336.58,469.89,334.14,469.71Zm24.59,8.63a32.82,32.82,0,0,0-1.36,13.74,2.17,2.17,0,0,1-1.22,2.36,30.35,30.35,0,0,1-19.28,4.9c-2.87-.27-5.77-.27-9.09-.41,3.34-3.07,6.59-5.47,9.1-8.49a23,23,0,0,1,9.43-6.5c4.2-1.75,8.19-4,12.33-6.05C358.67,478,358.78,478.21,358.73,478.34Zm-15.17,2c-.06.18-.56.23-1.38.53,1.2-4.41,2.28-8.44,3.42-12.63l1.74.56C346.06,472.72,344.84,476.52,343.56,480.32Zm6-10.44c1.13.06,1.73.26,1.24,1.56-.69,1.84-1.07,3.81-1.82,5.62-.31.77-1.22,1.28-1.86,1.91l-.41-.48C347.66,475.62,348.61,472.76,349.56,469.88Zm2,6.42c.47-1.78.88-3.35,1.45-5.5.55.76,1.18,1.32,1.08,1.55C353.48,473.72,354.52,476.1,351.57,476.3Zm12.57,2.89a73.42,73.42,0,0,0-.4,9.61c0,1.84.28,1.84-1.81,2.45V476.49C363.92,476.87,364.32,477.58,364.14,479.19Zm.63-4.57c-5.09-4.84-11.21-7.93-17.72-10.33a2.13,2.13,0,0,1-1.7-1.79,3.18,3.18,0,0,0-2.05-2c-.7-.17-1.64.68-2.47,1.07-.52.24-1,.68-1.55.66-1.11-.05-2.21-.38-3.33-.5-1.32-.15-2.32-.38-2.95-1.93-.72-1.76-3.88-2-4.88-.36-.89,1.46-1.93,1.28-3.15,1.19s-2.37-.19-3.68-.29c-.41-2.56-1.36-3.5-3.26-3.3s-2.46,1.48-2.23,3.09c-5.63.84-11.24,1.41-16.73,2.56-5.94,1.25-11.77,3.06-17.66,4.57a4.21,4.21,0,0,1-2.45.09c-11.11-4.59-22-9.75-31-17.89a45.62,45.62,0,0,1-8.15-9.65c-4.07-6.57-2.42-12.55,4.11-16.69,5.73-3.63,12.22-4.93,18.83-5.75a1.74,1.74,0,0,1,1.28.52c1.54,1.76,3.34,1.87,4.77,0a2.83,2.83,0,0,1,2.68-1.19c2,0,4.05,0,6.36,0a71.57,71.57,0,0,0-6.95,3.85c-4.09,2.91-4.8,7.15-2,11.31a16.11,16.11,0,0,0,3.74,4.06,63,63,0,0,0,8.57,5.36c10.67,5.37,22.12,8.43,33.78,10.69,15.18,2.93,30.47,4.82,46,4.61a4,4,0,0,1,2.43,1.19,8.66,8.66,0,0,1,2.74,7.65c-.3,3.32-.07,6.69-.07,10.32C365.54,475.27,365.14,475,364.77,474.62ZM366,489V479C367.84,482.53,367.9,487.78,366,489Zm34.17-65.8-4.81-3C399.14,420.31,400.13,420.89,400.14,423.15Zm-5.93-7.27,5.06,1.68-.24.73L394,416.68C394,416.41,394.13,416.15,394.21,415.88Zm-16,0c.11.3.21.59.31.89l-5.12,1.48-.24-.69Zm-1.55,4.48c-1.36.88-2.73,1.75-4.24,2.71C372.16,420.9,372.47,420.69,376.64,420.37ZM372.8,427c3.31-1.45,6.71-3,8.23-6.59,1.42-3.4,2.05-6.9-.76-10,2.18-1.71,9.23-1.78,11.83-.14-4.11,6.5-1.79,11.76,7.54,16.88-1.37,3.51-3.66,5.06-7.15,5-4.28,0-8.57,0-12.85,0C376.34,432.1,373.94,430.35,372.8,427Zm25.33,74.65A134,134,0,0,1,387.44,532c-.31.66-.7,1.27-1.3,2.35-1.63-3.34-3.26-6.31-4.54-9.43a150.33,150.33,0,0,1-10.92-66A56.54,56.54,0,0,1,373.83,443c2.84-7.86,3.31-7.16,11.25-7.37.6,2.77.37,3-2.27,3.07-2.18,0-4.24.46-5.66,2.34-1.26,1.69-.71,3.25,1.37,3.36a52.46,52.46,0,0,0,6.14-.39v3.9c-3.14-.83-6-.54-8.36,1.76-.64.63-1.38,1.74-1.22,2.44s1.35,1.27,2.2,1.55c2.57.85,4.93-.06,7.36-1.4v7.55c-3.64-.79-6.78-.15-9.17,2.84-1.53,1.92-1.05,3.62,1.38,3.72a25.75,25.75,0,0,0,6.12-1,7.47,7.47,0,0,0,1.7-.9v7.4a8.63,8.63,0,0,0-7.22,1.51,9.08,9.08,0,0,0-2.49,2.76c-.46.88-.77,2.47-.3,3.05a3.77,3.77,0,0,0,3.12.95,19.3,19.3,0,0,0,4.55-1.84,22.84,22.84,0,0,0,2.32-1.48v7.44c-5.31,1.62-7.66,4.06-7.89,8.4a3,3,0,0,0,.87,2.36,2.86,2.86,0,0,0,2.47-.44c1.59-1.16,3-2.57,4.77-4.16-.57,4.09.76,8-1,11.93-2.08,4.77-1.16,9.62.74,14.29a2,2,0,0,0,1.69,1,2.8,2.8,0,0,0,2-1.25c1.94-5.09,2.68-10.24.05-15.38A2.12,2.12,0,0,1,388,500c0-3.14,0-6.29,0-9.56,1.72,1.52,3.15,3,4.78,4.15a2.88,2.88,0,0,0,2.49.32c.51-.25.81-1.45.78-2.21-.18-4.32-2.59-6.89-7.87-8.49v-7.41a20.89,20.89,0,0,0,2,1.3,22.74,22.74,0,0,0,4.72,2,3.69,3.69,0,0,0,3.15-.85c.49-.69.24-2.34-.27-3.23a8.49,8.49,0,0,0-7.93-4.37c-.46,0-.92.06-1.38.09a1.79,1.79,0,0,1-.31-.12v-6.86a46.05,46.05,0,0,0,4.93,1.66c2.58.58,4.68,0,4.95-1.34.46-2.19-1.28-3.46-2.74-4.14-2.11-1-4.55-1.26-7.1-1.9V452.3c2.55,1.48,5,2.13,7.74,1.35,2.17-.63,2.56-2,1-3.61-2.41-2.42-5.34-3-8.73-2.12v-3.86a50.83,50.83,0,0,0,6.09.36c2.08-.11,2.63-1.68,1.34-3.36-1.43-1.86-3.48-2.28-5.66-2.34-.59,0-1.18.09-2,.16l-.46-2.87c5-1.24,7.84,0,10,4.31,3,5.93,3.84,12.37,4.26,18.86C402.76,473.5,401.05,487.59,398.13,501.6Zm41.24-55.4c2.7-1.47,3.79-1.27,5.7,1,.8,1,1.64,1.87,2.62,3C443.17,451.56,443.17,451.56,439.37,446.2Zm.69,5.28-5.59.62c-.9-1.74-1.71-3.3-2.51-4.86C435.94,445.82,437.13,446.42,440.06,451.48Zm6.44-7c1.26-.29,2.44-.61,3.65-.83a1.41,1.41,0,0,1,1.07.22c1.63,1.51,3.21,3.06,4.92,4.71C451,450.37,450.34,450.07,446.5,444.49Zm7.26-1.61a2.32,2.32,0,0,1,.28-.23c2.85-1.48,5.28-1.34,7.16,1.64a21.67,21.67,0,0,0,2.48,2.7c-1.52.37-2.92.75-4.35,1a1.34,1.34,0,0,1-1-.43C456.8,446.06,455.31,444.49,453.76,442.88Zm7.5-2.43c1.95-.74,3.78-1.48,5.64-2.12a1.54,1.54,0,0,1,1.25.21c2.13,1.64,4.23,3.35,6.68,5.31-2.71.8-5.07,1.52-7.45,2.15a1.5,1.5,0,0,1-1.18-.41C464.57,444,463,442.27,461.26,440.45Zm8.63-3.35c1.55-.8,3-1.6,4.43-2.23a2,2,0,0,1,1.56.29c2.53,1.67,5,3.42,7.88,5.39-2,.76-3.73,1.44-5.46,2a1.62,1.62,0,0,1-1.26-.15C474.69,440.73,472.38,439,469.89,437.1Zm7.81-3.32c-.21-.14-.39-.31-.69-.54,1-.84,1.83-1.64,2.78-2.32a1.83,1.83,0,0,1,1.42-.28c4.13,1.51,8.23,3.09,12.85,4.84-2.64,1.36-4.85,2.53-7.1,3.61a1.65,1.65,0,0,1-1.39-.06C482.92,437.33,480.31,435.54,477.7,433.78Zm4.26-5.43c.19-.84.35-1.54.57-2.48L501.7,427c-.74,3.11-2.95,4.85-5.18,6.55-.19.14-.63.05-.91-.06C491.1,431.8,486.6,430.1,482,428.35Zm1.87-4.18a12.55,12.55,0,0,1-2.16-.38c0-.24,0-.49,0-.74,4.24-.85,8.44-2,12.71-2.43,2.74-.27,4.75,1.86,6.56,3.87C495.15,424.39,489.49,424.3,483.83,424.17Zm7.25-5.05c-4.39.7-8.26,1.56-12.17,1.84-2,.14-4.08-.74-6.1-1.36C478.73,418.86,484.55,416.13,491.08,419.12Zm-36.21,5.29c6.9-2.93,13.68-2.27,20.6-1,1.3.25,2.44,1.36,3.65,2.07-.84,1.2-1.44,2.7-2.55,3.54-5.19,3.9-11.17,6.25-17.27,8.31a131.49,131.49,0,0,1-34.48,7.09c-.83,0-1.67,0-3.11,0A133.32,133.32,0,0,1,454.87,424.41Zm-23.41,27.68c-4.14,1.08-4.2,1.05-7.13-4.27C428.57,447.07,428.57,447.07,431.46,452.09Zm-7.47.59h-4l-2.25-4.41C421,447.11,421.84,447.68,424,452.68ZM415.75,450l1.6,2.95c-1,0-1.61,0-2.26,0-.5,0-1-.07-1.92-.14Zm-9,39-.56.22c-.39-.55-1.13-1.13-1.1-1.66.16-2.62.52-5.22.83-7.83,0-.21.25-.39.38-.58l.45.08Zm2.28.2a64.72,64.72,0,0,0-.38-9.64c-.21-2.08-.43-2.06,2.05-3.43.23,5.33.44,10.3.66,15.44C409.46,491.34,409,490.83,409.05,489.13Zm7.26,5.26a1.91,1.91,0,0,1-.83-1.36c.27-5,.26-9.89-1.73-15.08,1,.52,1.57.82,2.13,1.09,5,2.41,10,4.8,15,7.21a7.66,7.66,0,0,1,2,1.22c3.68,3.51,7.31,7.07,11,10.61a7.54,7.54,0,0,1,.43.68C434.44,499.89,424.88,500.37,416.31,494.39Zm-3-20.32,2.86-1.5c.19.88.35,1.58.56,2.59Zm6.32-3.54c.63,2.41,1.1,4.22,1.62,6.18-3.15-.31-1.79-3.06-2.72-4.46C418.41,472.08,419,471.41,419.62,470.53Zm6.57,8.63c-1.56-.31-2.27-.88-2.56-2.42a49.34,49.34,0,0,0-2.09-6.48l1.51-.64Zm-.84-10.52,1.75-.51c1.15,4.29,2.29,8.49,3.42,12.69l-.55.33c-.38-.4-1-.73-1.11-1.2C427.67,476.27,426.55,472.57,425.35,468.64Zm44,25.83c-5.45,1-10.92,2-16.37,3a5,5,0,0,1-4.46-.91c-4-3.35-8.09-6.61-12.07-10a4.17,4.17,0,0,1-1.05-2.19c-.78-3.35-1.46-6.72-2.19-10.08-.16-.75-.35-1.51-.67-2.87,5.66,2.18,10.82,4.23,16,6.14,5.85,2.13,11.5,4.32,15.76,9.35,2.17,2.56,5.43,4.19,8.5,6.46A35.17,35.17,0,0,1,469.34,494.47Zm-38.4-26.67.07-.64,2.6-.68c.24.72.45,1.37.81,2.5Zm4.65-1.31c2.12-1,2.12-1,3.27,3.59C435.86,470.35,436.54,467.79,435.59,466.49Zm14.87,7.86c-1.79-.21-3-.65-3.6-2.5-.71-2.25-1.79-4.39-2.82-6.83l2.62-.39Zm-1.06-9.55h2.78L457,477.2c-2.43-.47-3.92-1.19-4.18-3.6a18.06,18.06,0,0,0-1.46-4.52C450.8,467.68,450.11,466.34,449.4,464.8Zm-4.91,7.35c-4-.61-2.86-4.48-5-6.53l2.61-.34C442.87,467.54,443.64,469.74,444.49,472.15Zm42.7,15.09c-3.05,1.43-6.13,2.81-9.24,4.1a2.36,2.36,0,0,1-2-.07c-4-2.88-8.05-5.78-11.91-8.88a9.19,9.19,0,0,1-2.36-3.67c-1.26-3.12-2.31-6.32-3.45-9.5-.12-.35-.2-.73-.4-1.47,11.5,4.73,22.26,10,31.81,17.87A20.35,20.35,0,0,1,487.19,487.24Zm-28.43-21.91c4.53-.29,5.81.17,6.22,2.34Zm9.09,1.11c2.89-.59,2.44,1.87,3.27,3.51C468.81,469.59,467.73,468.55,467.85,466.44Zm5.08.88c1.4.1,2,1.11,2.5,4.48C474.05,471.58,474.05,471.58,472.93,467.32Zm25.12,12.13c-4.21,4-4.21,4-9.06.9-2.51-1.6-5.13-3-7.66-4.57a3.64,3.64,0,0,1-1.39-1.55c-.74-1.83-1.31-3.73-2.15-6.17,7.32,1.92,14.13,3.51,20,7.61C499.71,477,499.7,477.88,498.05,479.45Zm-4.48-12.12a3.14,3.14,0,0,1-2.07.11,134.87,134.87,0,0,0-33.94-7c-.26,0-.52-.08-1-.17.34-1.78-.19-3-2-3.25s-2.94.65-3.46,3.31c-1.6.11-3.24.3-4.88.29a2.21,2.21,0,0,1-1.47-.84c-1.55-2-4.62-1.88-5.54.39a1.91,1.91,0,0,1-2,1.41,22.53,22.53,0,0,0-2.95.42c-1.21.24-2.38.78-3.12-1-.19-.45-1.65-.79-2.25-.54-.78.33-1.32,1.28-1.91,2-.41.49-.62,1.35-1.11,1.53-7,2.57-13.57,6-19,11.25a2.57,2.57,0,0,1-.61.31c0-4.66-.29-9.24.15-13.73.17-1.72,1.91-3.4,3.21-4.84.51-.56,1.81-.52,2.75-.53,23.8-.15,47.12-3.37,69.62-11.35A86.53,86.53,0,0,0,496.77,438a23.94,23.94,0,0,0,6.84-6.47c2.78-3.8,1.92-8.06-1.88-10.84a68.68,68.68,0,0,0-7.08-4c2.58,0,5,0,7.37.05.46,0,1,.53,1.34.93,1.78,2,3.26,2.06,5.05.12a1.74,1.74,0,0,1,1.33-.42c6,.72,11.9,2,17.29,4.87,3.27,1.77,6.06,4.07,7.25,7.8,1,3.18.25,6.17-1.19,9-2.61,5.14-6.66,9-11.11,12.55C513.38,458.41,503.63,463.17,493.57,467.33ZM589,249.56a3,3,0,0,0-2.07,1.74,1.67,1.67,0,0,0,1.9,2.12c.81-.08,1.56-.92,2.33-1.42l0-.94C590.45,250.52,589.68,249.51,589,249.56Zm-.11,13.8c.81-.1,1.53-1,2.29-1.5v-.93c-.76-.52-1.56-1.5-2.26-1.43a2.91,2.91,0,0,0-2,1.8A1.67,1.67,0,0,0,588.88,263.36Zm-.06-19.88c.82-.08,1.56-.92,2.33-1.42,0-.31,0-.63,0-.94-.74-.54-1.52-1.56-2.21-1.51a3,3,0,0,0-2.06,1.75A1.68,1.68,0,0,0,588.82,243.48Zm0,29.82c.82-.1,1.54-1,2.3-1.48l0-.93c-.75-.53-1.55-1.52-2.24-1.45a2.9,2.9,0,0,0-2,1.79A1.66,1.66,0,0,0,588.86,273.3Zm-93,283.52c-4.94-.84-9.68-2.2-13.79-5.21a8.31,8.31,0,0,1-3.58-5.72c-.68-4.71-1.45-9.42-2.2-14.12-.5-3.09-1-6.17-1.57-9.26a2.88,2.88,0,0,0-.7,1.54c-1.09,6.79-2.34,13.57-3.19,20.39a10.34,10.34,0,0,1-5.76,8.44,26.72,26.72,0,0,1-4.71,2.09c-3.08.93-6.23,1.64-9.88,2.58a25.68,25.68,0,0,1,3.52.61c3.75,1.23,7.58,2.32,11.18,3.91a8.92,8.92,0,0,1,5.49,7.28c.61,4.59,1.39,9.16,2.12,13.73.49,3.06,1,6.11,1.52,9.16a1.81,1.81,0,0,0,.67-1.18c1.14-7.13,2.36-14.24,3.38-21.37.41-2.91,1.58-5.25,4.07-6.69a43.35,43.35,0,0,1,7.31-3.49c2.69-.93,5.55-1.38,8.92-2.18C497.31,557.09,496.57,556.94,495.82,556.82ZM591.15,280.7c-.78-.48-1.52-1.26-2.35-1.37a1.71,1.71,0,0,0-2,1.93c0,1.34.89,2.21,2.14,2,.8-.14,1.48-1.05,2.21-1.61C591.18,281.32,591.16,281,591.15,280.7Zm-2.26,12.48c.81-.11,1.52-1,2.28-1.5v-.94c-.76-.51-1.57-1.49-2.26-1.41a2.89,2.89,0,0,0-2,1.81A1.66,1.66,0,0,0,588.89,293.18Zm.05-143a2.91,2.91,0,0,0-2,1.78,1.67,1.67,0,0,0,1.94,2.08c.82-.09,1.54-1,2.31-1.48v-.93C590.43,151.07,589.63,150.08,588.94,150.15Zm-.14-16c.82-.07,1.57-.9,2.35-1.4,0-.31,0-.62,0-.94-.73-.54-1.5-1.55-2.19-1.5a2.9,2.9,0,0,0-2.08,1.71A1.67,1.67,0,0,0,588.8,134.12Zm-1.88,27.79a1.67,1.67,0,0,0,2,2c.81-.11,1.52-1,2.27-1.52v-.93c-.76-.51-1.57-1.49-2.26-1.41A2.92,2.92,0,0,0,586.92,161.91ZM259.38,514.45c-.29-3.2-1-6.36-1.49-9.53l-.37,0c-.14.62-.32,1.23-.43,1.85a49.08,49.08,0,0,0-1,6.65c-.12,4.48-2.8,6.42-6.65,7.43l-3.3.83c1.92.55,3.4.9,4.82,1.41,2.71,1,4.83,2.44,4.9,5.74a24,24,0,0,0,.55,3.53c.35,2,.72,4.06,1.08,6.08,1-3.44,1.36-6.87,2.13-10.2a7.43,7.43,0,0,1,2.37-3.83c1.22-1,3-1.37,4.49-2,.73-.28,1.51-.42,2.52-.69-2.14-.71-3.92-1.21-5.63-1.87A5.87,5.87,0,0,1,259.38,514.45ZM588.86,124.18c.82-.09,1.54-1,2.31-1.47v-.94c-.75-.52-1.55-1.52-2.24-1.45a2.94,2.94,0,0,0-2,1.79A1.66,1.66,0,0,0,588.86,124.18ZM290.23,271.48a5.06,5.06,0,0,0,5.18-4.86,5.94,5.94,0,0,0-6-5.8c-2.75.05-4.45,1.95-4.45,4.95A5.46,5.46,0,0,0,290.23,271.48ZM589,209.8a2.91,2.91,0,0,0-2,1.76,1.66,1.66,0,0,0,1.92,2.09c.82-.09,1.55-.94,2.32-1.45,0-.31,0-.62,0-.93C590.44,210.74,589.65,209.74,589,209.8ZM264,179a2.8,2.8,0,1,0-5.6-.21,2.94,2.94,0,0,0,3,2.87A2.62,2.62,0,0,0,264,179Zm324.84-5.08c.82-.1,1.54-1,2.31-1.47,0-.32,0-.63,0-.94-.75-.53-1.55-1.52-2.24-1.45a2.92,2.92,0,0,0-2,1.79A1.67,1.67,0,0,0,588.86,173.89Zm-1.94,17.86a1.66,1.66,0,0,0,2,2c.81-.12,1.52-1,2.27-1.54,0-.31,0-.62,0-.93-.77-.5-1.59-1.48-2.28-1.39A2.88,2.88,0,0,0,586.92,191.75Zm2,12c.81-.13,1.49-1,2.23-1.6l0-.93c-.78-.48-1.52-1.27-2.34-1.38a1.71,1.71,0,0,0-2,1.92C586.86,203.06,587.71,203.93,589,203.71Zm0,26a2.91,2.91,0,0,0-2.06,1.74,1.67,1.67,0,0,0,1.9,2.12c.82-.08,1.56-.93,2.34-1.43l0-.94C590.45,230.63,589.67,229.63,589,229.68Zm-.12-85.61c.82-.1,1.54-1,2.3-1.48,0-.31,0-.63,0-.94-.75-.52-1.45-1.33-2.27-1.49a1.71,1.71,0,0,0-2.06,1.82C586.79,143.32,587.61,144.22,588.86,144.07Zm.1,39.76c.81-.13,1.49-1,2.23-1.6l0-.93c-.78-.48-1.52-1.26-2.35-1.38a1.71,1.71,0,0,0-2,1.92A1.8,1.8,0,0,0,589,183.83ZM306,454.71c-1.91-.1-3.29,1-3.33,2.56a2.49,2.49,0,0,0,2.7,2.5c1.86.06,3.17-.94,3.22-2.44A2.5,2.5,0,0,0,306,454.71ZM450,45.19c.83-.18,1.52-1,2.28-1.57l0-.89c-.8-.5-1.67-1.46-2.38-1.35a2.92,2.92,0,0,0-1.86,2A1.59,1.59,0,0,0,450,45.19Zm9.85,0c.71.09,1.55-.85,2.33-1.34,0-.29,0-.58,0-.87-.74-.56-1.41-1.43-2.23-1.61a1.62,1.62,0,0,0-2,1.93A2.87,2.87,0,0,0,459.83,45.14Zm-20.32.18a1.75,1.75,0,0,0,2-2.1c-.12-.83-.91-1.56-1.39-2.33l-1,0c-.53.73-1.39,1.41-1.52,2.21A1.85,1.85,0,0,0,439.51,45.32ZM556.17,56.24c1.3,8.93,9.59,17.94,18.29,19.35,2.47.41,2.66,1.36,2.66,3.41q-.07,118.67,0,237.34V319c3-1.3,4.31-2.95,4.21-6.17-.27-8.47-.09-17-.09-25.44V72.88c-12.61-2.37-21-8.54-21.92-22.29H555.4c-38.23,0-76.46,0-114.69-.08-3.34,0-4.68,2.25-6.61,4.22H555.94C556,55.35,556.1,55.8,556.17,56.24Zm-76-10.65c.53-.75,1.4-1.45,1.52-2.26a1.64,1.64,0,0,0-2-2,2.87,2.87,0,0,0-1.84,1.95c-.08.69.88,1.51,1.39,2.28Zm10,0c.5-.77,1.34-1.5,1.43-2.32a1.66,1.66,0,0,0-2.09-1.91,2.91,2.91,0,0,0-1.77,2c0,.7,1,1.48,1.51,2.22ZM269.21,165c-8.09-3.83-17,.41-20.77,6a3.28,3.28,0,0,0,.36,4.49,29.44,29.44,0,0,1,6.59,14,94.25,94.25,0,0,1,2,17.53c.05,11.88,2.84,23.12,7.1,34,2.27,5.83,5.12,11.54,10.27,15.58.2,2.1.41,4.19.58,6.28,0,.1-.3.23-.47.32-5.69,3.24-7.22,8.51-6.93,14.55a4.18,4.18,0,0,0,1.53,3.07c1.27.76,2.59-.06,3.63-1.21a23.54,23.54,0,0,1,3.76-3.51c1.94-1.38,3-1,3.68,1.23.7,2.43,1.74,4,4.73,3.22.4,2.28.59,4.27,1.13,6.17,4.26,15.23,8.35,30.51,13,45.63,4.55,14.86,9,29.78,16.57,43.54,3.57,6.52,7.13,13,12.07,18.62.85,1,1.94,2.67,3.37,1.62.84-.62,1.22-2.45,1.12-3.68-.48-5.93-1-11.87-1.86-17.76-2.18-15.2-5.3-30.23-8.59-45.23a225.84,225.84,0,0,0-11.94-38c-2.21-5.37-4.34-10.77-6.52-16.21,1.65-2,1.7-2.47,1.18-5.2-.12-.62.05-1.71.46-1.94,6.07-3.51,5.94-13.41,3.54-17.54a2.61,2.61,0,0,0-1.75-1.27c-.43,0-1,1-1.29,1.61-1,2.4-2.48,4.27-4.91,4.87l-3.74-6a4.94,4.94,0,0,1,.06-2.15c.11-.85.23-1.71.27-2.56.4-9-2.39-17.21-6.43-24.91-4.67-8.9-10.13-17.38-15.21-26.07-2.76-4.72-5-9.71-5.45-15.2a97.66,97.66,0,0,1,.12-10.68C270.46,167,270.65,165.67,269.21,165Zm-3.08,2.75c-.07.57-.15,1.17-.24,1.9a15.52,15.52,0,0,0-13.76,3.85C252.26,169.66,260.7,166.25,266.13,167.73Zm-7.81,16.7c-1-2.65-2.27-5.21-3.5-8,2.85-3.1,6.69-3.64,10.69-4,.34,3.62.66,7,1,10.78-1.92.71-4,1.54-6.1,2.24C259.46,185.86,258.77,185.59,258.32,184.43Zm67.54,202.08c-.9-1.51-1.82-3-2.72-4.54-9.92-16.7-16.21-34.91-21.76-53.38-3.57-11.9-6.4-24-9.54-36.06-1-4-2-8-3-12l12.62-3.61c.41,1.21.84,2.51,1.29,3.81-5.65,1.25-8,4.44-6.72,10.17,1.72,7.4,3.9,14.71,6.2,22,5.95,18.73,12,37.42,18.14,56.1,1.47,4.53,3.21,9,4.78,13.47.45,1.28.74,2.62,1.1,3.94Zm1.07-11.79-.61.18c-.91-2.67-1.85-5.33-2.72-8-3.82-11.83-7.71-23.63-11.38-35.5Q306,311.11,300,290.73c-1.11-3.79.32-6.26,3.38-7.08C315.89,312.83,321.13,343.85,326.93,374.72Zm-29.85-116.9a2.41,2.41,0,0,0,2.65,1.88,8.83,8.83,0,0,0,6.27-2.82c.44,2.93-.35,5.43-2.4,6.94a5.4,5.4,0,0,0-2.19,6.23c.58,2.36-.41,3.18-2.47,3.66-4.75,1.1-9.46,2.33-14,3.47-4-6.54-4.87-6.69-13-2.64.36-3.65,2-6.58,5.12-8.27,2.19-1.17,2.83-2.51,2.09-4.76a12.72,12.72,0,0,1-.36-2.07L296,254.86C296.24,255.52,296.74,256.65,297.08,257.82Zm-10.65-37.88c4.46,8.34,7.39,17.11,7.25,26.71-.06,4.75,0,4.94-4.49,6.37a75.61,75.61,0,0,1-10.06,2.16,3,3,0,0,1-2.23-.83,23.09,23.09,0,0,1-3-3.69c-5.2-7.83-8.12-16.58-10.36-25.63a75.61,75.61,0,0,1-2.13-17.28c-.08-5.48-.85-10.95-1.31-16.42-.05-.59-.13-1.17-.21-1.93l3-.53q4,13.57,8,27.11l-.59.48a10.57,10.57,0,0,1-1.94-2,12.23,12.23,0,0,1-.88-2.78c-1.75.94-2.15,2.5-1.23,4.48,1,2.23,2.4,4,5.15,4.42,1.43.19,1.5,1.45.93,2.55-2.2,4.22-1.46,6.73,2.63,9a1.91,1.91,0,0,1,.86,1.13c.52,2.14,1.54,4.13-.43,6.38-1.53,1.75-.4,5.15,1.6,6.47a6.06,6.06,0,0,0,1.87.57,22.76,22.76,0,0,1-.81-4.45c0-.66.85-1.53,1.53-1.92,2.2-1.25,3.85,0,5.65,4.51a8.64,8.64,0,0,0,.84-1.59c.67-2.72-1.41-6.15-4.18-6.64-1.14-.21-1.47-.73-1.77-1.72-.59-2-1.27-3.62.6-5.54,1.69-1.73.78-4.66-1.42-6.19a11.66,11.66,0,0,0-2.12-1.06c-1.64-.69-1.89-1.55-.82-3a6.82,6.82,0,0,0-1.51-9.35,4,4,0,0,0-1.05-.34c-.08,2.07,2.26,3.92.26,6-3.06-9.24-6.06-18.32-9.12-27.57l2.59-1.37C272.28,198.67,280.42,208.7,286.43,219.94ZM470.23,45.59c.53-.75,1.39-1.46,1.51-2.27a1.65,1.65,0,0,0-2-2,2.91,2.91,0,0,0-1.84,2c-.07.7.91,1.51,1.42,2.28ZM282.31,446.93a3,3,0,0,0-3,2.78,3.07,3.07,0,0,0,3.28,3,2.69,2.69,0,0,0,3-2.72A3.12,3.12,0,0,0,282.31,446.93Zm-11-5.76a3,3,0,0,0-3,3,2.94,2.94,0,0,0,3,2.85,3.09,3.09,0,0,0,3-3.08A2.69,2.69,0,0,0,271.34,441.17Zm89.78,18.06c-1.33.18-2.47.66-2.56,2.23s1,2.29,2.38,2.3,2.46-.62,2.47-2.24S362.47,459.44,361.12,459.23Zm-99.06-34.29a3.1,3.1,0,0,0-3.12-3.12,3.34,3.34,0,0,0-3.26,3.29,2.84,2.84,0,0,0,3,2.93A3.14,3.14,0,0,0,262.06,424.94Zm-.52,8.28a2.88,2.88,0,0,0-3.07,2.93,3.19,3.19,0,0,0,3.12,3.4,3,3,0,0,0,3.2-3.05A3.22,3.22,0,0,0,261.54,433.22Zm91.59,27.27a2.22,2.22,0,0,0-2.57,2.16,2.06,2.06,0,0,0,2.06,2.41,2.32,2.32,0,0,0,2.59-2.13C355.2,461.48,354.55,460.51,353.13,460.49ZM500,45.59c.54-.75,1.4-1.44,1.53-2.26a1.65,1.65,0,0,0-2-2,2.87,2.87,0,0,0-1.84,1.95c-.08.7.89,1.52,1.39,2.28Zm-205.57,406a2.81,2.81,0,0,0-3,2.71,2.62,2.62,0,0,0,2.75,2.5,2.54,2.54,0,0,0,2.81-2.59A2.4,2.4,0,0,0,294.47,451.57Zm235.22-406c.59-.7,1.5-1.33,1.69-2.14a1.65,1.65,0,0,0-1.85-2.13,2.9,2.9,0,0,0-2,1.81c-.13.69.77,1.58,1.22,2.38ZM419.39,460.43a2.11,2.11,0,0,0-2.16,2.34,2.23,2.23,0,0,0,2.46,2.3,2.08,2.08,0,0,0,2.18-2.31C421.85,461.15,420.73,460.68,419.39,460.43Zm47.29-5.72c-1.76,0-2.88,1-2.87,2.53s1.27,2.56,3.13,2.54a2.54,2.54,0,0,0,2.8-2.43C469.76,455.82,468.48,454.72,466.68,454.71Zm11.39-3.15a2.52,2.52,0,0,0-2.69,2.7,2.58,2.58,0,0,0,2.89,2.52A2.63,2.63,0,0,0,481,454.2,2.83,2.83,0,0,0,478.07,451.56ZM588.86,104.3c.81-.09,1.54-1,2.3-1.47,0-.31,0-.62,0-.93-.75-.53-1.54-1.52-2.24-1.46a2.94,2.94,0,0,0-2,1.79A1.67,1.67,0,0,0,588.86,104.3Zm.14,6.09a2.91,2.91,0,0,0-2.08,1.72,1.67,1.67,0,0,0,1.88,2.13c.82-.07,1.57-.9,2.35-1.4l0-.93C590.46,111.36,589.69,110.34,589,110.39ZM511,433.22a3.25,3.25,0,0,0-3.36,3.17,3,3,0,0,0,3.1,3.17,3.2,3.2,0,0,0,3.23-3.31A2.89,2.89,0,0,0,511,433.22Zm-21,13.7a3.12,3.12,0,0,0-3.13,3,2.66,2.66,0,0,0,2.88,2.82,3.13,3.13,0,0,0,3.39-2.89A3,3,0,0,0,490,446.92ZM501,441.16a2.72,2.72,0,0,0-2.81,2.9,3.05,3.05,0,0,0,3.1,2.95,2.92,2.92,0,0,0,2.85-2.95A3,3,0,0,0,501,441.16Zm48.34-396a1.63,1.63,0,0,0,2-2c-.14-.82-1-1.51-1.57-2.26l-.9,0c-.5.77-1.46,1.61-1.37,2.3A2.9,2.9,0,0,0,549.3,45.18ZM513.46,421.81a3.1,3.1,0,0,0-3.1,3.14,3.14,3.14,0,0,0,3.37,3.09,2.84,2.84,0,0,0,3-3A3.36,3.36,0,0,0,513.46,421.81Zm6.4-376.21c.56-.74,1.45-1.41,1.59-2.22a1.65,1.65,0,0,0-2-2,2.89,2.89,0,0,0-1.9,1.9c-.1.7.86,1.54,1.34,2.32Zm19.63-.47c.71,0,1.49-1,2.24-1.49l0-.87c-.77-.51-1.5-1.33-2.34-1.45a1.63,1.63,0,0,0-1.9,2.07A2.83,2.83,0,0,0,539.49,45.13Zm47.43,37.25a1.67,1.67,0,0,0,2,2c.81-.11,1.52-1,2.27-1.52V82c-.76-.51-1.57-1.49-2.26-1.41A2.92,2.92,0,0,0,586.92,82.38Zm0,9.89a1.67,1.67,0,0,0,1.93,2.09c.82-.09,1.54-1,2.31-1.46,0-.31,0-.62,0-.93-.74-.53-1.53-1.54-2.23-1.47A2.93,2.93,0,0,0,586.92,92.27Zm-2.37-26.46c1.39-.14,2.77-.68,3.09-2.34s-.69-2.82-2-3.51c-1.69-.87-3.5-1.5-5.37-2.29.46-.41.94-.84,1.41-1.29a26,26,0,0,0,6.77-9.19c1-2.57-.29-4.18-3-3.56A13.54,13.54,0,0,0,581,45.74c-2.1,1.45-4,3.16-6.09,4.8-.4-1.12-.72-2.26-1.2-3.33-.58-1.28-1.38-2.84-3-2.34A5.34,5.34,0,0,0,568,47.53a12.63,12.63,0,0,0-.89,4.63c-.17,3.55.47,7,3.1,9.54C574.18,65.48,579.24,66.33,584.55,65.81Zm0-3.3c-3.42,1-6.6.3-9.81-1.24,1.15-.52,2.43-1.65,3.44-1.45A22,22,0,0,1,584.54,62.51Zm1.52-16a31.8,31.8,0,0,1-13.85,13.24A29.54,29.54,0,0,1,586.06,46.52Zm-15.45.84c2,2.48,3.15,6.07-.68,9.66C569.28,53.62,569,50.47,570.61,47.36Zm-61-2.19a1.58,1.58,0,0,0,1.92-1.9c-.13-.84-1-1.56-1.5-2.34h-.93c-.51.78-1.5,1.62-1.41,2.31A3,3,0,0,0,509.59,45.17Zm-98.35,414.1a2.11,2.11,0,0,0-2.23,2.28c0,1.62,1.12,2.1,2.47,2.25,1.31-.18,2.35-.65,2.39-2.17A2.4,2.4,0,0,0,411.24,459.27ZM194.54,671.89V419.14c-2.69,1.49-4.28,2.81-4.21,6.07.26,11.85.1,23.71.1,35.57V675.27c12.61,2.35,21,8.51,21.92,22.28h4.46c38,0,76.06,0,114.09.08,3.34,0,4.69-2.24,6.61-4.23H215.92C213.17,681.73,206.77,674,194.54,671.89Zm196.51,18.46a9,9,0,0,0-.64,2.6c.18,3.18-2.41,6.74-5.12,6.81-2.28,0-4.81-3.17-4.84-6.19a5.54,5.54,0,0,0,.06-1c-.19-.76-.29-1.92-.76-2.12a2.69,2.69,0,0,0-2.26.58A9.84,9.84,0,0,0,374,697.6c0,6.84,3.42,11.16,8.63,12.54a11.22,11.22,0,0,0,12.83-5.47,11.06,11.06,0,0,0-1.66-13.19A8.34,8.34,0,0,0,391.05,690.35Zm-1,15c-3.09,2.22-6.25,2.29-9.17.19a7.25,7.25,0,0,1-2.7-8.66c1.35,3.55,3.74,5.94,7.27,6s5.72-2.56,7.21-6C393.82,700.43,392.85,703.31,390.05,705.33Zm-57.91-2.45c-1.32-.33-2.07.71-2.06,2s.51,2.06,1.88,2.06c1.2,0,2-.46,2.16-2.45C333.67,704.09,333,703.1,332.14,702.88ZM357.19,689c-2.58-1-4.3.89-3.5,3.58a38.53,38.53,0,0,0,1.55,3.81c-2.77.32-5.48.45-8.1,1a13.9,13.9,0,0,0-4.83,2.06c-1.42,1-1.22,2.72.29,3.6a10.89,10.89,0,0,0,3.68,1.39c3.35.51,6.73.81,10.09,1.19-.62,1.43-1.42,3-1.95,4.55s-.78,3.21.8,4.34,3.24.41,4.3-.75a40.78,40.78,0,0,0,5.56-7.12C369.49,698.75,363.05,691.16,357.19,689Zm.47,23.07-.63-.44c.19-4.23,2.4-6.94,6.48-7Zm-13.27-10.3c2.54-2.64,15.92-2.89,19.74-.37C357.41,703.37,351.05,703,344.39,701.78Zm11.86-10.44a11.28,11.28,0,0,1,6.92,6.19C358.82,697.68,356.86,695.47,356.25,691.34Zm153,11.21h-.92c-.52.76-1.51,1.56-1.44,2.26a2.87,2.87,0,0,0,1.81,2,1.65,1.65,0,0,0,2-2C510.6,704,509.75,703.31,509.23,702.55ZM301.91,703a1.62,1.62,0,0,0-2,1.93c.11.82,1,1.54,1.5,2.3h.9c.52-.76,1.51-1.56,1.44-2.26A2.91,2.91,0,0,0,301.91,703Zm19.28-.4c-.5.77-1.34,1.5-1.43,2.31a1.65,1.65,0,0,0,2.08,1.91,2.89,2.89,0,0,0,1.77-2c.05-.7-1-1.48-1.5-2.22Zm-29.31.43a2.87,2.87,0,0,0-1.93,1.86,1.66,1.66,0,0,0,2,2c.82-.16,1.5-1,2.24-1.58l0-.9C293.42,703.85,292.58,702.91,291.88,703Zm18,1.74a1.66,1.66,0,0,0,1.91,2.08c.82-.1,1.55-.92,2.33-1.42l0-.89c-.75-.55-1.52-1.56-2.23-1.51A2.86,2.86,0,0,0,309.84,704.74Zm-28.13-2.22c-.6.71-1.51,1.33-1.7,2.13a1.64,1.64,0,0,0,1.83,2.14,2.82,2.82,0,0,0,2-1.8c.14-.68-.76-1.58-1.2-2.38Zm145.05-4.21A23.58,23.58,0,0,0,421,697c-1.77-.28-3.58-.32-5.48-.48A15.71,15.71,0,0,0,417,693c.16-1.12.18-2.76-.48-3.39a3.77,3.77,0,0,0-3.4-.35,14.82,14.82,0,0,0-8.45,9.44c-1.71,5.65,3.13,12.74,7,15.33a4.84,4.84,0,0,0,3.8.5c1.61-.6,1.49-2.42,1.06-3.83-.53-1.75-1.36-3.41-2.16-5.35a16.5,16.5,0,0,0,2.23,0c3.39-.48,6.79-.93,10.15-1.56,1.31-.25,2.86-1.06,2.52-2.56A4.83,4.83,0,0,0,426.76,698.31Zm-12.39-7.12c.59,3.47-2.49,6.27-6.84,6.33A13.73,13.73,0,0,1,414.37,691.19Zm-6.87,12.63c1.61.64,3.26.77,3.86,1.64a25,25,0,0,1,2.67,6.12C411.54,710.76,408.77,707.4,407.5,703.82Zm-.36-2.84a34.52,34.52,0,0,1,19.3,0C423.72,703.33,410.93,703.35,407.14,701Zm81.77,2a2.87,2.87,0,0,0-2,1.84,1.63,1.63,0,0,0,2,2c.83-.16,1.52-1,2.27-1.56v-.87C490.43,703.89,489.61,702.92,488.91,703Zm9.56-.46c-.56.73-1.59,1.5-1.55,2.19a2.87,2.87,0,0,0,1.74,2.06,1.65,1.65,0,0,0,2.11-1.87c-.08-.82-.9-1.57-1.38-2.34ZM397,113.34c-1.3,0-2.59.1-4,.17V87.76c1-.1,2-.26,2.94-.3,1.35,0,2.69-.21,2.62-1.93-.06-1.54-1.3-1.86-2.59-1.81-3.37.12-6.74.24-10.11.44-3.77.23-7.53.5-11.28.88-.63.07-1.2.79-1.8,1.22.55.46,1,1.2,1.66,1.34a40.11,40.11,0,0,0,4.54.53v26.08a43.73,43.73,0,0,0-5,.62c-.67.16-1.19,1-1.78,1.45.61.46,1.23,1.31,1.84,1.3,7.74-.11,15.48-.34,23.22-.58,1.17,0,2.37-.35,2.33-1.86S398.21,113.34,397,113.34Zm-7.45.23-7,.47V88.2l7-.38Zm89.87,589h-.91c-.52.75-1.52,1.56-1.44,2.26a2.88,2.88,0,0,0,1.82,2,1.66,1.66,0,0,0,2-2C480.78,704,479.92,703.31,479.39,702.55Zm-40.56.27a1.81,1.81,0,0,0-2,2.14c.1.81.89,1.53,1.37,2.29l1,0c.53-.74,1.37-1.43,1.52-2.24A1.76,1.76,0,0,0,438.83,702.82Zm8.36,1.94a1.64,1.64,0,0,0,1.92,2.06c.83-.13,1.56-1,2.33-1.46,0-.3,0-.59,0-.88-.75-.53-1.54-1.53-2.24-1.48A2.86,2.86,0,0,0,447.19,704.76Zm11.52-2.22c-.56.73-1.58,1.49-1.55,2.19a2.87,2.87,0,0,0,1.73,2.06,1.65,1.65,0,0,0,2.12-1.86c-.08-.82-.89-1.57-1.38-2.35ZM338.5,561.35c-2.24-.84-3.8-2.1-3.88-4.86a46.74,46.74,0,0,0-1.11-6.59,20.79,20.79,0,0,0-1.26,5.29c-.54,4.41-1.38,5.44-5.72,6.65-.43.13-.87.23-1.64.43a17.19,17.19,0,0,0,1.69.64c4.27,1.12,5.08,2,5.63,6.24.25,1.88.57,3.74.86,5.62l.48,0c.24-1.5.5-3,.71-4.48.72-5.21,1.57-6.31,5.65-7.33.51-.13,1-.35,1.79-.64C340.39,561.91,339.42,561.7,338.5,561.35ZM185.16,426.65c-.82-.67-1.56-1.74-2.46-1.91-1.27-.24-2,.76-1.9,2.14s.78,2.35,2.24,2.06c.76-.15,1.39-.89,2.08-1.37C185.13,427.27,185.14,427,185.16,426.65Zm-2.33,32.22a1.72,1.72,0,0,0,1.95-1.95,1.8,1.8,0,0,0-2.14-2c-.81.15-1.48,1.06-2.21,1.63l0,.93C181.25,458,182,458.76,182.83,458.87Zm1.87,47.9a1.67,1.67,0,0,0-1.9-2.11c-.82.08-1.56.92-2.33,1.42l0,.94c.74.54,1.52,1.55,2.21,1.5A2.92,2.92,0,0,0,184.7,506.77Zm-1.91-67.67c1.27,0,2.11-.64,2-2.7a2,2,0,0,0-2.23-1.78c-1.36.06-1.84,1.06-1.82,2.34A1.94,1.94,0,0,0,182.79,439.1Zm87.29,265.64a1.65,1.65,0,0,0,1.91,2.08c.82-.11,1.56-.93,2.33-1.43l0-.89c-.74-.54-1.52-1.54-2.23-1.5A2.84,2.84,0,0,0,270.08,704.74ZM180.46,546.92c.77.5,1.49,1.29,2.32,1.42a1.72,1.72,0,0,0,2-1.89c0-1.34-.84-2.23-2.09-2-.81.13-1.51,1-2.25,1.57C180.44,546.3,180.45,546.61,180.46,546.92ZM182.77,449c1.17.18,2-.69,2-2.28a1.9,1.9,0,0,0-2.13-1.86c-1.35.05-2.2,1-1.87,2.2A3.05,3.05,0,0,0,182.77,449Zm1.92,177a1.67,1.67,0,0,0-1.9-2.11c-.81.08-1.55.93-2.33,1.44l0,.93c.74.54,1.52,1.55,2.22,1.49A2.87,2.87,0,0,0,184.69,626.06Zm-1.93-71.7c-.82.1-1.54,1-2.3,1.48,0,.31,0,.63,0,.94.75.52,1.55,1.51,2.24,1.44a2.89,2.89,0,0,0,2-1.78A1.67,1.67,0,0,0,182.76,554.36ZM252.13,703a1.63,1.63,0,0,0-2,2c.14.82,1,1.5,1.59,2.25l.89,0c.5-.77,1.45-1.61,1.36-2.31A2.93,2.93,0,0,0,252.13,703Zm-19.82,0a1.62,1.62,0,0,0-2,1.95c.11.82,1,1.53,1.51,2.29h.9c.52-.76,1.5-1.57,1.42-2.27A2.89,2.89,0,0,0,232.31,703Zm-49.55-65.21a2.89,2.89,0,0,0,1.94-1.86,1.67,1.67,0,0,0-2-2c-.81.13-1.5,1-2.24,1.58l0,.93C181.23,636.89,182.07,637.85,182.76,637.75Zm78.88,64.8c-.54.75-1.4,1.44-1.53,2.26a1.65,1.65,0,0,0,2,2,2.89,2.89,0,0,0,1.84-1.95c.08-.7-.89-1.52-1.39-2.29ZM242.2,703a2.84,2.84,0,0,0-1.95,1.83,1.66,1.66,0,0,0,2,2c.82-.15,1.51-1,2.26-1.55v-.89C243.74,703.88,242.91,702.92,242.2,703Zm-57.42-37.24c0-1.34-.82-2.23-2.07-2-.82.11-1.52,1-2.27,1.54v.93c.76.5,1.48,1.3,2.31,1.44A1.71,1.71,0,0,0,184.78,665.76ZM222.32,703c-.7-.1-1.55.85-2.33,1.34,0,.28,0,.57-.05.86.74.56,1.42,1.44,2.24,1.62a1.62,1.62,0,0,0,2-1.93A2.85,2.85,0,0,0,222.32,703Zm-35.1-20.69c-1.47.12-2.93.64-3.25,2.4s.74,2.8,2.08,3.49c1.68.85,3.48,1.49,4.91,2.09-2.24,2.84-4.66,5.71-6.82,8.76-1,1.38-2.25,3.24-.63,4.86s3.55.72,5.1-.31c2.75-1.8,5.36-3.83,8.1-5.81a31.84,31.84,0,0,0,1.58,3.87c1.37,2.42,3.9,2.38,5-.18a17.28,17.28,0,0,0,1.24-5.56c.22-3.53-.49-7-3.13-9.52C197.45,682.66,192.45,681.86,187.22,682.31Zm-.05,3.27.12-.75,9.82,1.18C194.41,689.09,191.06,688.82,187.17,685.58Zm-2.1,16.09A39.69,39.69,0,0,1,199.44,688C198.8,692.05,189.43,701,185.07,701.67Zm16-.93c-2.63-2.58-2.43-5.92.59-9.64C202.41,694.46,202.63,697.6,201,700.74ZM588.08,508.56c.83-.14,1.53-.94,2.29-1.45,0-.31,0-.62,0-.94-.76-.53-1.47-1.4-2.28-1.51-1.26-.18-2.08.72-2.05,2.06A1.7,1.7,0,0,0,588.08,508.56Zm-2,147.22a2.89,2.89,0,0,0,1.94,1.85c.69.09,1.52-.87,2.29-1.36,0-.31,0-.62,0-.93-.74-.55-1.43-1.44-2.24-1.56A1.66,1.66,0,0,0,586.13,655.78Zm4.22-199.43c-.78-.49-1.53-1.33-2.34-1.4a1.68,1.68,0,0,0-1.88,2.14,2.92,2.92,0,0,0,2.07,1.72c.7,0,1.46-1,2.19-1.52C590.38,457,590.37,456.67,590.35,456.35ZM588,633.89a1.67,1.67,0,0,0-1.9,2.11,2.89,2.89,0,0,0,2,1.75c.69.06,1.47-1,2.21-1.49l0-.93C589.59,634.82,588.85,634,588,633.89Zm.06-26c.69.09,1.52-.88,2.28-1.39,0-.31,0-.62,0-.93-.75-.54-1.45-1.42-2.26-1.54a1.68,1.68,0,0,0-2,2A2.9,2.9,0,0,0,588.09,607.93Zm-2,8.17a2.89,2.89,0,0,0,2,1.77c.69.06,1.48-.93,2.22-1.46,0-.32,0-.63,0-.94-.76-.51-1.49-1.37-2.31-1.46A1.66,1.66,0,0,0,586.13,616.1ZM588.36,445c-.77-.14-1.72.74-2.59,1.18l-.12.93c.73.67,1.37,1.7,2.21,1.9a1.67,1.67,0,0,0,2.15-1.86A2.9,2.9,0,0,0,588.36,445Zm-.31,218.7c-1.26-.14-2.06.78-2,2.11a1.71,1.71,0,0,0,2.09,1.79c.82-.17,1.5-1,2.25-1.51l0-1C589.59,664.65,588.86,663.8,588.05,663.72Zm.09-19.89a1.67,1.67,0,0,0-2,2,2.88,2.88,0,0,0,2,1.86c.69.09,1.52-.87,2.29-1.37l0-.94C589.64,644.85,589,644,588.14,643.83ZM586.05,626a1.71,1.71,0,0,0,2,1.92c.82-.12,1.56-.9,2.34-1.38l0-.93c-.74-.56-1.41-1.47-2.22-1.61C586.93,623.74,586.06,624.6,586.05,626Zm.55-240.55c-5.2-.54-12.31,4.31-13.39,9.37-.52,2.42,1,4,3.35,3.35a41.49,41.49,0,0,0,4.38-1.72,15.2,15.2,0,0,0,0,2.15,90.69,90.69,0,0,0,1.74,9.3,3.88,3.88,0,0,0,2.78,2.27c.78.07,2.19-1.31,2.47-2.28a66,66,0,0,0,1.64-8.52,29.39,29.39,0,0,0,0-4.1c1.85.8,3.43,1.62,5.11,2.15,1.46.47,3.1.63,4.14-.91s.33-3-.69-4.17C595.08,388.75,591.57,385.92,586.6,385.4Zm-10.75,10.1c0-2.29,2.33-5,6-7C581.83,393.27,579.57,394.77,575.85,395.5Zm9.51,12.14a37.56,37.56,0,0,1-.23-19.95C587.53,390.82,587.73,403.57,585.36,407.64Zm10.39-12.56a36.48,36.48,0,0,1-6-2.84c-.86-.59-1-2.25-1.43-3.43l.49-.32a19,19,0,0,1,7.32,5.9Zm-5.39,200.47c-.78-.5-1.52-1.35-2.33-1.42a1.67,1.67,0,0,0-1.9,2.12,2.88,2.88,0,0,0,2.06,1.73c.69.06,1.46-1,2.2-1.49Zm3.71-260.1c-1.47.52-2.86,1.27-4.45,2a17.62,17.62,0,0,0,0-2.07c-.38-3.21-.68-6.44-1.27-9.61-.3-1.56-.87-3.47-3-3.38-2,.09-2.6,1.84-3.11,3.43a19.73,19.73,0,0,0-.8,3.48c-.28,2.22-.44,4.46-.67,6.93-1.2-.54-2.18-1.07-3.22-1.45-1.33-.5-3-1-3.75.49a5,5,0,0,0,0,3.85,14.51,14.51,0,0,0,7.68,7.42,10.35,10.35,0,0,0,4.23.85c5.1-.22,8.91-3,12.19-6.63,1.16-1.28,2.22-2.88.95-4.64S595.72,334.88,594.07,335.45Zm-18.54,1.91c3.37-.62,6.17,2.44,6.31,6.85C579,342.54,576.71,340.51,575.53,337.36Zm9.75,7.23a34.63,34.63,0,0,1,0-19.28C587.62,327.9,587.66,340.7,585.28,344.59Zm3.31-.35c.3-3.82,3.34-6.31,7.67-6.26A18.8,18.8,0,0,1,588.59,344.24Zm17.52,30.86V50.63c0-1.2,0-2.39,0-3.58-.27-12.76-9.76-22-22.52-22H186.53a21.88,21.88,0,0,0-21.94,22q0,328.06,0,656.12a20.8,20.8,0,0,0,.58,4.91c2.61,10.66,11.16,17,22.89,17H582.34c.53,0,1.06,0,1.59,0,8.07-.18,14.4-3.55,18.83-10.35,2.66-4.1,3.36-8.67,3.36-13.47Q606.09,538.14,606.11,375.1ZM587.24,720.58a22.22,22.22,0,0,1-4.16.29H187.63c-11.39,0-18.94-7.54-18.94-18.91V47.84c0-11.13,7.58-18.73,18.7-18.73H583c11.4,0,19,7.53,19,18.89V701.93C602,711.64,596.3,718.87,587.24,720.58Zm-68.86-18.05c-.57.73-1.6,1.48-1.57,2.18a2.86,2.86,0,0,0,1.7,2.08,1.66,1.66,0,0,0,2.15-1.85c-.07-.81-.88-1.57-1.36-2.36Zm72-276.34c-.75-.52-1.48-1.43-2.26-1.47-1.56-.08-2,1.21-2.05,2.58S586.77,429,588,429C589.53,429,590,428,590.36,426.19Zm-2.35,158a1.79,1.79,0,0,0-2,2.15,1.7,1.7,0,0,0,2.12,1.75c.81-.18,1.48-1,2.21-1.56,0-.32,0-.63,0-.94C589.57,585.09,588.82,584.26,588,584.19Zm.25-149.51c-1.48-.24-2.16.91-2.25,2.34s.79,2.23,2,2c.86-.14,1.6-1.05,3-2C589.73,435.9,589.07,434.82,588.26,434.68Zm-10.36-63.4a4.06,4.06,0,0,0-1,0c-.76.18-1.92.25-2.13.72a2.61,2.61,0,0,0,.53,2.25,9.76,9.76,0,0,0,6.78,3.55c9.08,0,14.49-7.36,12.22-14.77-2.5-8.16-12.9-10.94-18.65-4.92a7.5,7.5,0,0,0-1,2.57,8.34,8.34,0,0,0,2.57.69c3-.18,6.61,2.13,6.86,4.61S581,371.22,577.9,371.28Zm3.6-12.18c2.39-1.22,5.6-.42,7.72,1.93a7.4,7.4,0,0,1,.63,9.63c-2.05,3-5.13,4.13-8.35,3C589.24,368.07,589.24,363.57,581.5,359.1ZM580,690.42a39.26,39.26,0,0,0,5.82-3c2-1.51,1.43-3.88-.95-4.77-4.19-1.56-12.92.73-15.79,4.15s-3.78,10.67-1.54,14.66a2.69,2.69,0,0,0,5.06.12,19.3,19.3,0,0,0,1.57-3.78c2.57,1.9,5.06,3.86,7.68,5.62,1.65,1.11,3.72,2.23,5.45.58s.3-3.69-.75-5.17C584.43,695.83,582.07,693.08,580,690.42Zm4-5.13c-3.88,3.29-7,3.61-10.12,1.15A19.3,19.3,0,0,1,584,685.29Zm-13.94,15.29c-1.59-1.76-1.88-4.94-.8-9.43C572.89,695,571.94,697.59,570.05,700.58Zm1.34-12.2c6.13,2.84,10.48,7.53,13.86,13.22A29.76,29.76,0,0,1,571.39,688.38ZM588.18,564.3c-1.25-.22-2.11.65-2.13,2a1.71,1.71,0,0,0,2,1.93c.83-.11,1.57-.89,2.35-1.37l0-.93C589.66,565.35,589,564.45,588.18,564.3Zm2.18-98c-.77-.51-1.51-1.36-2.32-1.45a1.67,1.67,0,0,0-1.91,2.11,2.89,2.89,0,0,0,2,1.75c.7.06,1.48-.94,2.22-1.48Zm-4.23,90.08a2.92,2.92,0,0,0,2,1.81c.69.07,1.49-.92,2.25-1.44v-.93c-.76-.53-1.48-1.4-2.29-1.5A1.66,1.66,0,0,0,586.13,556.42Zm0,19.78a2.89,2.89,0,0,0,1.89,1.9c.69.11,1.55-.83,2.33-1.3,0-.31,0-.62,0-.93-.73-.57-1.4-1.47-2.2-1.62A1.66,1.66,0,0,0,586.13,576.2ZM528.67,703a2.84,2.84,0,0,0-1.95,1.83,1.63,1.63,0,0,0,2,2c.83-.16,1.52-1,2.28-1.55l0-.87C530.2,703.89,529.38,702.92,528.67,703Zm19.88,0a1.62,1.62,0,0,0-1.94,2,2.84,2.84,0,0,0,2,1.79c.71.06,1.51-.94,2.27-1.47,0-.29,0-.58,0-.87C550.09,703.9,549.37,703.08,548.55,703Zm-10.11,0a2.92,2.92,0,0,0-1.74,2c0,.7,1,1.47,1.5,2.22l.9,0c.51-.79,1.34-1.53,1.44-2.36A1.63,1.63,0,0,0,538.44,703Zm41.95-31V424.9c0-3.25-.65-4.16-4.19-5.55V672.06c-11.09,1.55-18.7,9.26-21.16,21.44H432.67c2.67,2.2,4.41,4.44,8,4.15,4.6-.38,9.26-.1,13.89-.1H558.47c1-13.86,9.4-20,21.92-22.27ZM182.72,534.48c-.82.11-1.52,1-2.27,1.54V537c.76.5,1.48,1.31,2.3,1.45a1.72,1.72,0,0,0,2-1.87C184.8,535.19,184,534.3,182.72,534.48Zm405.45-39.76a1.66,1.66,0,0,0-2,2,2.89,2.89,0,0,0,1.91,1.89c.69.1,1.54-.84,2.32-1.32l0-.93C589.66,495.76,589,494.86,588.17,494.72Zm-2-17.79a2.91,2.91,0,0,0,2,1.77c.69.06,1.48-.95,2.23-1.48l0-.93c-.77-.51-1.5-1.37-2.31-1.46A1.67,1.67,0,0,0,586.13,476.93Zm2,37.67c-1.25-.19-2.1.69-2.09,2a1.7,1.7,0,0,0,2,1.88c.83-.13,1.55-.92,2.32-1.41,0-.32,0-.63,0-.94C589.64,515.61,588.94,514.72,588.14,514.6Zm-.1,33.74c.83-.13,1.55-.92,2.33-1.41,0-.31,0-.62,0-.93-.75-.55-1.43-1.45-2.24-1.58-1.25-.2-2.1.68-2.1,2A1.71,1.71,0,0,0,588,548.34Zm0-59.65c.83-.12,1.56-.91,2.33-1.4l0-.93c-.74-.56-1.43-1.45-2.24-1.59-1.26-.2-2.1.68-2.1,2A1.7,1.7,0,0,0,588,488.69Zm.1,39.71c.69.08,1.49-.91,2.25-1.43,0-.31,0-.62,0-.93-.76-.53-1.47-1.4-2.29-1.5a1.66,1.66,0,0,0-2,2.06A2.89,2.89,0,0,0,588.13,528.4Zm-2,8.15a2.89,2.89,0,0,0,2,1.79c.69.07,1.49-.92,2.24-1.45,0-.31,0-.62,0-.93-.77-.52-1.49-1.39-2.3-1.48A1.66,1.66,0,0,0,586.13,536.55ZM469,703a1.62,1.62,0,0,0-1.91,2,2.86,2.86,0,0,0,2,1.76c.71,0,1.49-1,2.24-1.5,0-.29,0-.58,0-.87C470.55,703.89,469.82,703.07,469,703ZM243.31,45.6c.56-.73,1.6-1.48,1.56-2.18a2.9,2.9,0,0,0-1.71-2.08A1.67,1.67,0,0,0,241,43.2c.07.82.89,1.57,1.37,2.36Zm-20.09-.47c.7,0,1.47-1,2.22-1.5l0-.9c-.77-.49-1.51-1.31-2.33-1.41a1.65,1.65,0,0,0-1.91,2.08A2.88,2.88,0,0,0,223.22,45.13Zm9.93.06c.81-.18,1.49-1,2.23-1.57,0-.3,0-.6,0-.9-.77-.49-1.62-1.45-2.31-1.35a2.92,2.92,0,0,0-1.93,1.89A1.63,1.63,0,0,0,233.15,45.19ZM191.23,76.43V313.21c0,3.3.76,4.37,4.17,5.63V76.24c12.29-2.22,18.66-10,21.31-21.55h122c-2.43-2.78-4.72-4.5-8.39-4.2-4.47.37-9,.09-13.49.09H213.14c-.91,13.84-9.4,20-21.91,22.29ZM183,219.32c-.48.78-1.42,1.62-1.32,2.32a2.92,2.92,0,0,0,1.87,1.94,1.67,1.67,0,0,0,1.95-2.07c-.16-.81-1-1.49-1.59-2.23Zm8.63-161.59a38.42,38.42,0,0,0-5.79,3c-2,1.5-1.45,3.88.93,4.77,4.17,1.56,12.91-.72,15.79-4.13s3.79-10.65,1.56-14.66a3.73,3.73,0,0,0-2.5-1.84,3.77,3.77,0,0,0-2.56,1.69,19.12,19.12,0,0,0-1.56,3.76c-2.73-2-5.4-4-8.2-5.86-1.5-1-3.41-1.81-4.95-.34s-.45,3.46.53,4.85C187.05,52.06,189.46,54.94,191.64,57.73Zm-3.81,4.94c3.67-3.11,6.83-3.44,9.76-1.1A14.62,14.62,0,0,1,187.83,62.67Zm13.88-15.16c1.53,2.29,1.77,6.33.56,9.36C199.38,53.28,199.19,50,201.71,47.51Zm-1.48,12.24c-6.11-2.83-10.5-7.49-13.87-13.23A29.75,29.75,0,0,1,200.23,59.75Zm52.6-14.58a3,3,0,0,0,2-1.87c.12-.69-.85-1.56-1.34-2.36l-.92,0c-.55.76-1.42,1.46-1.57,2.29A1.59,1.59,0,0,0,252.83,45.17Zm41.77-1.74a1.63,1.63,0,0,0-1.85-2.11c-.84.1-1.59.91-2.38,1.4,0,.29,0,.58,0,.87.73.55,1.49,1.57,2.2,1.54A2.85,2.85,0,0,0,294.6,43.43Zm-31.69,1.74a2.89,2.89,0,0,0,1.83-2c.08-.7-.89-1.51-1.4-2.28h-.9c-.54.76-1.41,1.46-1.53,2.28A1.62,1.62,0,0,0,262.91,45.17Zm19.93,0c.71,0,1.49-1,2.23-1.49l0-.9c-.77-.5-1.5-1.32-2.32-1.43a1.65,1.65,0,0,0-1.92,2.06A2.89,2.89,0,0,0,282.84,45.14ZM185.57,162a1.7,1.7,0,0,0-2-1.91c-.83.12-1.56.89-2.34,1.38l0,.93c.74.56,1.42,1.46,2.23,1.6C184.71,164.16,185.56,163.28,185.57,162Zm-.08-59.71a2.89,2.89,0,0,0-2-1.8c-.69-.07-1.5.91-2.25,1.43v.94c.76.52,1.48,1.39,2.3,1.49A1.66,1.66,0,0,0,185.49,102.24Zm-2.85,396.35a3,3,0,0,0,2.06-1.76,1.67,1.67,0,0,0-1.9-2.11c-.82.08-1.56.92-2.33,1.42l0,.93C181.17,497.62,182,498.64,182.64,498.59Zm.91-288.84c-.83.14-1.54.93-2.3,1.44,0,.31,0,.62,0,.93.75.54,1.46,1.42,2.27,1.54,1.25.18,2.09-.71,2.06-2A1.7,1.7,0,0,0,183.55,209.75Zm0-69.6c-.82.14-1.54.94-2.3,1.44v.93c.75.55,1.45,1.43,2.26,1.55,1.25.18,2.09-.71,2.07-2A1.71,1.71,0,0,0,183.55,140.15Zm-.09-19.82c-.69-.07-1.48.93-2.23,1.46l0,.94c.76.51,1.5,1.37,2.31,1.46a1.67,1.67,0,0,0,1.92-2.1A2.89,2.89,0,0,0,183.46,120.33Zm-.4,29.38c-.5.78-1.46,1.61-1.37,2.3a2.88,2.88,0,0,0,1.84,2,1.66,1.66,0,0,0,2-2c-.14-.82-1-1.51-1.55-2.26Zm.45-19.49c-.82.15-1.52,1-2.27,1.48,0,.31,0,.62,0,.94.76.52,1.48,1.39,2.29,1.49,1.26.15,2.08-.74,2-2.09A1.71,1.71,0,0,0,183.51,130.22Zm89.25-85a2.91,2.91,0,0,0,1.94-1.86c.11-.7-.83-1.56-1.31-2.35l-.89-.05c-.58.73-1.49,1.39-1.65,2.2A1.62,1.62,0,0,0,272.76,45.17ZM500.34,300.62a38.64,38.64,0,0,0-1.08-6.24,28.74,28.74,0,0,0-1.45,6.78c-.23,2.77-1.89,4.07-4.26,4.82-.83.27-1.69.48-3,.83,1,.32,1.61.55,2.22.7,3.07.75,5,2.39,5.16,5.82a55.25,55.25,0,0,0,1,6.08,27.19,27.19,0,0,0,1.5-6.86c.14-2.44,1.46-3.71,3.49-4.52,1.08-.43,2.21-.74,3.83-1.28-1.17-.26-1.75-.36-2.32-.52C502.55,305.43,500.38,304.15,500.34,300.62Zm.53,79.12a5.08,5.08,0,0,0,1,.56c2.61.41,3.91,1.86,4,4.55a18.91,18.91,0,0,0,.65,3.37c1.13-3.4.11-7.9,5.82-8.33-5.77-.43-4.63-5-5.73-8.81a19.52,19.52,0,0,0-.62,3.14C505.94,377.43,504.55,379.42,500.87,379.74ZM449.63,127q-.54-2.94-1.06-5.9a18.9,18.9,0,0,0-1.3,5.32c-.41,4-1.39,5.23-5.27,6.37-.62.19-1.27.28-2.36.5,1.33.42,2.27.68,3.18,1,2.22.78,4,1.83,4.21,4.61.16,2.31.72,4.6,1.11,6.89h.45c.23-1.39.52-2.78.66-4.18.55-5.24,1.44-6.46,5.65-7.62.61-.17,1.21-.38,2.26-.72l-1.26-.22C451.71,132.4,450.38,131.12,449.63,127Zm55.22,48.17a2.8,2.8,0,1,0-5.6.19,2.62,2.62,0,0,0,2.63,2.67A2.94,2.94,0,0,0,504.85,175.19Zm-157,64.43c-.4,2.27-.35,4.18-1.12,5.65s-2.33,2.41-3.52,3.56c4.91.36,3.44,5,4.73,8.23,1.12-3.42-.2-7.93,5.35-8.53C347.72,247.87,349.08,243.34,347.86,239.62Zm7.72-113.91H415V76.16H355.58Zm4.1-45.45h51.24V121.6H359.68ZM357.13,309a5,5,0,0,1,3.06,4.3c.3,2.76.83,5.49,1.28,8.23.13.83.34,1.65.51,2.48a68.55,68.55,0,0,0,2-10.47,5.35,5.35,0,0,1,3.28-4.61c2-.88,4.06-1.52,6.06-2.25-1.73-.57-3.5-1.09-5.22-1.75a6,6,0,0,1-4.19-5.46c-.33-3.36-1-6.67-1.56-10a57.2,57.2,0,0,0-2.13,10.32,5.77,5.77,0,0,1-4.06,5.11c-1.76.7-3.58,1.22-5.25,1.78C353,307.38,355.08,308.06,357.13,309ZM411,208.38c-.51-3.41-1.06-6.8-1.61-10.2-.41-2.54-.85-5.07-1.28-7.61l-.51.05c-.86,5.26-1.93,10.51-2.5,15.81a8.54,8.54,0,0,1-5.51,7.55,66.23,66.23,0,0,1-6.36,2.19c-1,.3-2,.45-2.94.66a2.13,2.13,0,0,0,1.1.6c3.23,1.11,6.54,2.06,9.66,3.43a6.63,6.63,0,0,1,3.89,5.82c.24,2.3.66,4.59,1,6.87.53,3.28,1.1,6.56,1.65,9.84a1.44,1.44,0,0,0,.68-1c.88-5.35,1.83-10.7,2.58-16.07a6.5,6.5,0,0,1,3.13-5,33.82,33.82,0,0,1,5.53-2.65c1.88-.68,3.9-1,5.85-1.52v-.34a8.36,8.36,0,0,1-1.15-.23c-3.29-1.16-6.63-2.18-9.82-3.58A5.79,5.79,0,0,1,411,208.38Zm62,59.53a5.48,5.48,0,0,0,5.36-5.66c0-3-1.66-4.93-4.4-5a6,6,0,0,0-6.08,5.75A5,5,0,0,0,473,267.91ZM332.85,45.25c.86-.17,1.57-1.13,2.34-1.74-.35-1.74-1.12-2.27-2.34-2.3a1.78,1.78,0,0,0-2,2C330.83,44.44,331.5,45.53,332.85,45.25Zm-10.33-.06c.84-.17,1.55-1,2.32-1.51l0-.93c-.78-.5-1.64-1.48-2.33-1.37a2.9,2.9,0,0,0-1.91,1.94A1.58,1.58,0,0,0,322.52,45.19Zm-10,0a7.9,7.9,0,0,0,2.34-1.42l0-.9c-.75-.54-1.43-1.41-2.25-1.56-1.28-.23-2.11.67-2.1,2S311.32,45.42,312.54,45.2Zm-9.58.4c.56-.73,1.6-1.49,1.56-2.19a2.89,2.89,0,0,0-1.72-2.07,1.66,1.66,0,0,0-2.13,1.87c.07.82.89,1.57,1.37,2.35Zm41.85,4.2a23,23,0,0,0,5.75,1.39c1.78.28,3.61.31,5.54.46a16,16,0,0,0-1.49,3.6c-.16,1.11-.1,2.76.57,3.35a3.9,3.9,0,0,0,3.42.26,14.37,14.37,0,0,0,8-8.35,11.6,11.6,0,0,0,.54-4.44c-.17-4.53-2.86-7.81-5.81-10.89a8,8,0,0,0-2.41-1.69c-2.2-1-4.18.2-3.94,2.6A22.38,22.38,0,0,0,356.47,41a14,14,0,0,0,1,1.85,18.85,18.85,0,0,0-2.4,0c-3.39.47-6.8.83-10.12,1.59-1,.24-2.57,1.7-2.5,2.49A4.36,4.36,0,0,0,344.81,49.8ZM356.91,57c.91-4.35,2.5-6.43,7.18-6.45A13.16,13.16,0,0,1,356.91,57Zm7.2-13.19c-3.85-.22-5.86-2.6-6.39-7.75A18.78,18.78,0,0,1,364.11,43.82Zm.64,2.84c-2.88,2.43-15.26,2.44-19.31,0A37.3,37.3,0,0,1,364.75,46.66Zm13.64,10.51a2.75,2.75,0,0,0,2.29.44c.39-.14.47-1.29.65-2,.44-1.68.51-3.58,1.36-5,1.6-2.68,4.2-2.82,6.48-.67a6.78,6.78,0,0,1,2,5.59c0,.74.23,1.92.71,2.13a2.5,2.5,0,0,0,2.23-.55,11.69,11.69,0,0,0,2.48-3.29,11.14,11.14,0,0,0-1.94-12.53,11,11,0,0,0-12.49-2.88c-4.54,1.77-7.3,5.73-7.37,12.09A9.8,9.8,0,0,0,378.39,57.17Zm3.29-14.55c3-2.14,6.18-2,9.33.3a6.88,6.88,0,0,1,2.46,8.24c-1.51-3.24-3.59-6-7.24-5.91-3.48.11-5.86,2.44-7.25,6.07A7.28,7.28,0,0,1,381.68,42.62Zm53,348.89a25,25,0,0,0,3.12-3.6,122.17,122.17,0,0,0,16.38-30.31,549,549,0,0,0,18.17-57.33c1.95-7.67,3.95-15.34,6-23.19,2.29.55,3.63-.44,4.3-2.9.76-2.78,2-3.13,4.3-1.32a48.15,48.15,0,0,1,3.68,3.61c1.8,1.76,4.38,1.36,4.63-.87.58-5.08.18-10.19-4-13.69-2.43-2-4.1-3.8-3.13-7a6.36,6.36,0,0,1,.93-2.14c1.48-1.85,3.3-3.46,4.59-5.42,6.93-10.46,10-22.33,11.67-34.52,1-7.19,1-14.52,1.7-21.76a35.52,35.52,0,0,1,7.35-19c1.63-2.08,1.7-2.91.21-5.13-3.61-5.4-12.49-8.38-18.6-6.24-3.15,1.1-3.48,1.45-3,4.76,1.45,9.45-1.1,17.95-5.94,25.95-4,6.69-8.29,13.26-12,20.13a113.42,113.42,0,0,0-6.95,15.76c-2.11,5.9-3.08,12.07-1.68,18.37a1.47,1.47,0,0,1-.07,1.08c-1.26,1.79-2.59,3.52-4.05,5.48-2.22-.66-3.72-2.43-4.71-4.81a9,9,0,0,0-1.26-1.75c-.6.45-1.4.77-1.76,1.36-1.74,2.87-1.69,6.09-1.37,9.27a10.87,10.87,0,0,0,4.69,8.16,2,2,0,0,1,.76,1.65c-.58,2.19-.67,4.19,1.15,5.69-5.77,13.61-11.53,27.08-15.41,41.2-2.49,9-4.57,18.23-6.26,27.46-2.53,13.73-4.58,27.54-6.75,41.33a53.54,53.54,0,0,0-.57,8.1c0,1,.78,1.94,1.2,2.91A10.17,10.17,0,0,0,434.68,391.51Zm35.25-96.1c-4.34,20-10.8,39.3-17.86,58.43-3.69,10-9,19.18-14.24,28.36a4.43,4.43,0,0,1-.46.61l-.44-.16c.93-2.95,1.85-5.9,2.8-8.84,2.71-8.44,5.37-16.89,8.17-25.3,3.78-11.37,7.78-22.66,11.48-34.05,2.63-8.12,5-16.34,7.31-24.54a17.21,17.21,0,0,0,.67-5.48c-.24-4.82-2-6.6-6.86-7.21l1.29-3.93,12.6,3.61C472.92,283,471.29,289.17,469.93,295.41Zm41.51-125.36c-4.24-3.5-8.67-5-14-4-.12-.7-.22-1.26-.31-1.79C501.77,162.43,510.06,165.54,511.44,170.05ZM497.75,169c4,.26,7.71.87,10.71,3.88-1.24,2.83-2.39,5.63-3.73,8.34a2.1,2.1,0,0,1-1.86.74c-2.08-.59-4.1-1.43-6.12-2.17C497.1,176,497.42,172.56,497.75,169Zm-21.58,48.82c4.45-8.34,9.76-16.22,14.53-24.39,1.92-3.28,3.44-6.8,5.21-10.34l2.41,1.28c-3.06,9.26-6.06,18.34-9.13,27.66-1.79-2.2.11-4,.41-6a3.75,3.75,0,0,0-1.19.25,6.8,6.8,0,0,0-1.49,9.34c1.06,1.41.81,2.29-.83,3a13.18,13.18,0,0,0-1.62.74c-3,1.78-3.53,4.9-1.28,7.53,1.44,1.7.15,5.68-2,6.23-3.44.87-5.21,5.34-3.34,7.65a23.62,23.62,0,0,1,3.26-4c.53-.45,2.13-.1,2.95.38,1.89,1.09,1.83,3.1.21,6.16a7.55,7.55,0,0,0,2.36-.88,5.2,5.2,0,0,0,.74-7.32c-1.28-1.77-.37-5.68,1.54-6.64a5.66,5.66,0,0,0,2.38-8.24c-1.09-1.79-.73-2.71,1.21-3.16a6.77,6.77,0,0,0,4.9-7,7.75,7.75,0,0,0-1-2c-1.75,1.46-.84,4.57-4.08,4.78,2.71-9.21,5.36-18.24,8-27.38l2.95.48c-.28,2.61-.63,5.15-.82,7.69-.56,7.58-.45,15.28-1.71,22.73C499,226.67,496,236.86,490.1,245.94c-.26.38-.49.79-.73,1.18-3,4.8-3.53,5.09-9,3.91-3-.64-5.85-1.61-8.79-2.37a2.06,2.06,0,0,1-1.69-2.06C468.49,236.22,471.42,226.69,476.17,217.77Zm-18.91,35.46a8.36,8.36,0,0,0,6.48,2.88c3.39-.11,2.1-3.74,3.95-5.1,2.66,1,5.38,2.14,8.22,2.9s5.68,1.05,8.67,1.58c-.23,1.23-.37,2.33-.63,3.41a2.63,2.63,0,0,0,1.6,3.36,10.48,10.48,0,0,1,5.81,8.69c-8.14-4-9.89-3.69-12.57,2.15-5.61-.07-10.87-1.8-16.11-3.64-.45-.15-.86-1-.91-1.6a14.21,14.21,0,0,1,.25-3,4.29,4.29,0,0,0-1.92-4.23A7.63,7.63,0,0,1,457.26,253.23Zm2.61,26.82c3.1.92,4.39,3.31,3.37,7.15-1.85,7-3.67,14-5.88,20.81-4.65,14.42-9.59,28.73-14.3,43.12-2,6.22-3.79,12.52-5.69,18.78a3,3,0,0,1-.83,1.34C442.14,340.28,447.37,309.24,459.87,280.05ZM414.45,59.13C417,60,418.7,58.3,418,55.7a39.65,39.65,0,0,0-1.58-4c2.78-.33,5.49-.5,8.14-1a12.82,12.82,0,0,0,4.54-1.82c1.71-1.14,1.51-3-.29-4a10.16,10.16,0,0,0-3.33-1.23c-3.38-.5-6.79-.82-10.21-1.22a49.75,49.75,0,0,0,2-4.66c.5-1.54.71-3.24-1-4.3a3.13,3.13,0,0,0-4.14.81,40.13,40.13,0,0,0-5.58,7.13C402.09,49.41,408.64,57,414.45,59.13Zm.11-22.61c-.05,4.16-2.46,7.07-6.05,7.29C409.46,40.84,412.4,37.28,414.56,36.52Zm12.69,9.86c-2.71,2.63-16.08,2.86-19.68.36C414.22,44.74,420.59,45.09,427.25,46.38ZM415.41,56.89c-3.42-1-5.33-3.47-7.09-6.23C412.6,50.44,414.66,52.4,415.41,56.89Zm-232,57.35a1.66,1.66,0,0,0,2-2,2.87,2.87,0,0,0-1.91-1.89c-.69-.1-1.54.84-2.32,1.33l0,.93C182,113.2,182.64,114.1,183.45,114.24Zm1.27,531.44c-.18-.83-1.06-1.5-1.63-2.25l-.86,0a7.71,7.71,0,0,0-1.39,2.39c-.21,1.24.72,1.95,1.92,1.94S185,647,184.72,645.68Zm-2.45,7.72a7.85,7.85,0,0,0-1.43,2.36c-.24,1.24.68,2,1.89,2s2.25-.76,2-2.08c-.17-.83-1-1.53-1.59-2.28Zm1.33-370.16a1.67,1.67,0,0,0,1.89-2.12,2.88,2.88,0,0,0-2.06-1.73c-.69-.06-1.47,1-2.2,1.5l0,.93C182,282.32,182.79,283.17,183.6,283.24Zm-1,304.91c1.3.05,2.29-.67,2.08-2-.13-.84-1-1.56-1.49-2.34h-.87a7.87,7.87,0,0,0-1.52,2.29C180.56,587.31,181.42,588.09,182.64,588.15Zm11.27-226.77c.74,0,1.92-.23,2.13-.7a2.58,2.58,0,0,0-.55-2.25,11.33,11.33,0,0,0-3.11-2.39,11.18,11.18,0,0,0-12.71,1.86,11.66,11.66,0,0,0-3,12.54,11.49,11.49,0,0,0,10.61,7.31c3.25,0,6.58-1.35,8.25-3.62a2.88,2.88,0,0,0,.43-2.28c-.13-.4-1.31-.67-2-.62a6.63,6.63,0,0,1-6.37-2.81,3.41,3.41,0,0,1,.24-4.67A7.05,7.05,0,0,1,193.91,361.38Zm-4.38,12.27c-3.74,1.05-6.59,0-8.61-3.08a7.31,7.31,0,0,1,.37-9.16,6.93,6.93,0,0,1,8.07-2.39C181.39,363.19,182.07,370.09,189.53,373.65Zm-5.31-26.42c5.19.54,12.3-4.31,13.39-9.37.52-2.43-.94-4-3.34-3.35a36.18,36.18,0,0,0-4.23,1.65,60.66,60.66,0,0,0-.57-6.21,21.19,21.19,0,0,0-1.8-6c-1.27-2.4-3.53-2.2-4.59.3a20.91,20.91,0,0,0-1.47,5.32c-.35,2.57-.39,5.18-.56,7.78-1.68-.72-3.26-1.54-4.94-2.07-1.46-.46-3.09-.64-4.14.9s-.34,3,.68,4.17C175.74,343.86,179.24,346.7,184.22,347.23Zm11.08-10.06c-1.11,3.34-3.46,5.33-6.31,7C188.81,339.54,191.47,337.59,195.3,337.17Zm-10.5-12c2.55,3.05,2.8,15.54.36,20C183.17,338.26,183.47,331.91,184.8,325.18Zm-2.52,18.69c-2.35-.35-6.17-3.31-7.49-5.93C179,338.11,181.72,340.28,182.28,343.87Zm-1.05,54.84a82.15,82.15,0,0,0,1.65,9.12,3.6,3.6,0,0,0,2.48,2.29,3.75,3.75,0,0,0,2.7-2.08,28.12,28.12,0,0,0,1.52-6.12c.3-1.77.32-3.6.48-5.5a17.66,17.66,0,0,0,3.62,1.5c1.06.18,2.68.17,3.21-.46a3.87,3.87,0,0,0,.42-3.4,14.73,14.73,0,0,0-9-8.38,8.09,8.09,0,0,0-2.91-.49c-5.45.32-9.51,3.2-12.86,7.25-.94,1.14-1.57,2.55-.59,4s2.53,1.41,3.94,1c1.74-.54,3.4-1.36,5.31-2.15A23.08,23.08,0,0,0,181.23,398.71Zm14.23-3.09c-4.54-1-6.46-2.55-6.51-7.16A13.37,13.37,0,0,1,195.46,395.62ZM185.4,388c2.14,3.35,2,15.89-.2,19.1C183.12,403.92,183.25,391.11,185.4,388Zm-10.88,6.68a19.1,19.1,0,0,1,7.64-6.24C182.14,392.13,179.1,394.66,174.52,394.67Zm8.26,179.58c-.82.09-1.55.94-2.32,1.45l0,.93c.74.54,1.53,1.55,2.22,1.48a2.9,2.9,0,0,0,2-1.77A1.67,1.67,0,0,0,182.78,574.25Zm-.13,23.84c1.3.06,2.29-.68,2.07-2-.14-.84-1-1.56-1.5-2.34l-.87,0a8.12,8.12,0,0,0-1.51,2.31C180.56,597.27,181.44,598,182.65,598.09Zm-2.21-120.87c.74.53,1.53,1.53,2.22,1.47a2.89,2.89,0,0,0,2-1.76,1.67,1.67,0,0,0-1.92-2.1c-.82.09-1.55.94-2.32,1.45C180.45,476.6,180.45,476.91,180.44,477.22Zm4.28,39.36c-.12-.84-1-1.57-1.47-2.35l-.87,0a7.89,7.89,0,0,0-1.54,2.29c-.29,1.21.57,2,1.79,2.07S184.92,517.91,184.72,516.58Zm-1.8-47.8a2.85,2.85,0,0,0,1.74-2c0-.72-1-1.49-1.55-2.24l-.86,0c-.5.78-1.29,1.53-1.41,2.37A1.61,1.61,0,0,0,182.92,468.78ZM184.7,616.1a1.67,1.67,0,0,0-1.92-2.09c-.82.09-1.55,1-2.32,1.46,0,.31,0,.62,0,.93.74.53,1.53,1.54,2.22,1.47A2.9,2.9,0,0,0,184.7,616.1Zm-2-131.33c-.81.12-1.52,1-2.27,1.55v.93c.77.5,1.59,1.48,2.28,1.39a2.9,2.9,0,0,0,2-1.84A1.67,1.67,0,0,0,182.71,484.77ZM180.44,527c.75.53,1.55,1.53,2.24,1.46a2.94,2.94,0,0,0,2-1.8,1.67,1.67,0,0,0-1.94-2.07c-.82.1-1.54,1-2.3,1.48C180.45,526.33,180.45,526.64,180.44,527Zm4.28,79c-.17-.83-1.05-1.51-1.61-2.26l-.86,0a8,8,0,0,0-1.41,2.37c-.23,1.25.7,2,1.91,2S185,607.24,184.72,605.93Zm-2.05-41.63c-.81.14-1.49,1-2.23,1.59l0,.93c.78.49,1.51,1.29,2.33,1.4a1.72,1.72,0,0,0,2-1.91C184.77,565,183.92,564.1,182.67,564.3Zm.44-265.47c-.52.76-1.49,1.56-1.42,2.26a2.89,2.89,0,0,0,1.79,2,1.68,1.68,0,0,0,2-2c-.13-.82-1-1.53-1.5-2.29Zm2.38-47.45a2.91,2.91,0,0,0-2-1.82c-.69-.08-1.5.89-2.27,1.4v.94c.75.53,1.46,1.41,2.27,1.52A1.66,1.66,0,0,0,185.49,251.38Zm-1.92-17.84a1.67,1.67,0,0,0,1.92-2.1,2.91,2.91,0,0,0-2-1.77c-.7-.06-1.48,1-2.23,1.48l0,.93C182,232.59,182.76,233.45,183.57,233.54Zm0,35.9c-.69-.09-1.52.87-2.29,1.37l0,.93c.75.55,1.44,1.44,2.25,1.56a1.66,1.66,0,0,0,2-2A2.88,2.88,0,0,0,183.54,269.44Zm2-8.11c-.14-.82-1-1.52-1.53-2.27h-.91c-.5.77-1.47,1.59-1.38,2.29a2.87,2.87,0,0,0,1.82,2A1.66,1.66,0,0,0,185.51,261.33Zm-2-77.52a1.67,1.67,0,0,0,2-2c-.13-.82-1-1.54-1.5-2.3h-.91c-.52.76-1.5,1.57-1.42,2.27A2.85,2.85,0,0,0,183.48,183.81Zm2-12a2.91,2.91,0,0,0-2-1.77c-.69-.06-1.48.94-2.23,1.47,0,.31,0,.62,0,.93.77.51,1.5,1.37,2.32,1.46A1.67,1.67,0,0,0,185.49,171.8Zm0,20a2.92,2.92,0,0,0-1.94-1.88c-.69-.1-1.53.85-2.3,1.34l0,.94c.74.55,1.42,1.45,2.23,1.58A1.67,1.67,0,0,0,185.5,191.79Zm-2.07,121.73c1.61,0,2-1.2,2.24-3.17a5.65,5.65,0,0,0-1.95-1.1c-1.5-.21-2.07.81-2.13,2.19A1.76,1.76,0,0,0,183.43,313.52Zm0-24.24c-.82.17-1.5,1-2.25,1.51l0,.95c.77.51,1.5,1.36,2.31,1.45a1.8,1.8,0,0,0,2-2.12A1.72,1.72,0,0,0,183.48,289.28Zm.11-194.92a1.67,1.67,0,0,0,1.9-2.11,2.9,2.9,0,0,0-2.06-1.75c-.69,0-1.46,1-2.2,1.5l0,.94C182,93.44,182.78,94.28,183.59,94.36Zm2-12a1.7,1.7,0,0,0-2-1.86c-.82.13-1.54.93-2.3,1.43v.93c.75.55,1.45,1.43,2.26,1.55C184.76,84.61,185.58,83.71,185.57,82.37Zm-2,117.43c-.83.13-1.55.93-2.31,1.43v.93c.75.55,1.45,1.44,2.26,1.56,1.25.18,2.09-.7,2.07-2.05A1.71,1.71,0,0,0,183.56,199.8Zm0,39.77c-.83.13-1.55.93-2.31,1.43,0,.31,0,.62,0,.93.75.54,1.45,1.43,2.26,1.55,1.26.19,2.08-.71,2.07-2A1.7,1.7,0,0,0,183.56,239.57Zm150,398.69c-1.4-1-2.92-1.84-4.26-2.9a60.84,60.84,0,0,1-4.88-4.33,2.6,2.6,0,0,1-.67-1.93c.22-1.53,3.21-3.67,4.82-3.65a3.91,3.91,0,0,1,3.91,3.69c.16,1.07.46,2.2,1.7,1.92a3,3,0,0,0,1.85-1.88c.6-2.32-.36-4.29-2.1-5.85-3.66-3.29-8.38-3-12.28.77-3.58,3.43-3.71,6.94-.36,11a14.08,14.08,0,0,0,1.91,2c2.06,1.66,4.12,3.32,6.27,4.86a8.26,8.26,0,0,1,3.85,7,4,4,0,0,1-1.31,2.83c-2.92,2.25-5.87,1.75-8.08-1.17-1-1.32-2.17-2-3.74-1.11-1.3.75-1.42,2.4-.32,4a9.36,9.36,0,0,0,7.31,4.39c6.21,0,10.81-3.2,11.29-7.68C339,645.5,337.78,641.23,333.59,638.26ZM410,654.8a1.91,1.91,0,0,0,2.89.79c1.16-.82.89-2,.3-3-.26-.46-.58-.89-.85-1.35l-5.16-8.86c.74-.65,1.37-1.14,1.91-1.7,3.5-3.61,5.49-7.84,4.76-12.94-1.17-8.13-10.65-11.39-17.62-6.07a4.24,4.24,0,0,0-1.61,2.49c-.06.5,1.21,1.16,2.07,1.91,0,1.34-.05,3,0,4.65q.38,11.5.8,23c.05,1.29.41,2.48,2,2.4s1.76-1.34,1.77-2.61a55.36,55.36,0,0,0,0-5.76c-.19-2.13.52-3.28,2.94-3.34.18.35.33.71.52,1.06C406.44,648.59,408.12,651.74,410,654.8Zm-8.59-13.93c-.31-5.83-.6-11.48-.9-17.14,5.52-2.35,9,1.38,9.08,5.24A12.32,12.32,0,0,1,401.36,640.87Zm16.42-20c-.67.46-1,1.42-1.48,2.14l2.12,1.41c.2,6.63.37,13.44.62,20.25.11,3,.29,6,.65,8.91.25,2.07,1.65,2.8,3.37,2,8.47-3.69,15.43-15.43,14.59-24.61C436.51,618.52,425.29,615.79,417.78,620.88Zm14.82,17a23.53,23.53,0,0,1-8.42,12.86c-.54-9.45-1.07-18.67-1.61-28.07a7.49,7.49,0,0,1,9.48,4.14A15.81,15.81,0,0,1,432.6,637.86Zm14.84,14.51c-2-.23-2-1.87-2.23-3.26s-.42-2.83-2.24-2.55-2.25,1.74-1.92,3.18c.81,3.47,2.6,6.85,7,6.38,5.39.18,8.62-2.9,9.18-9,.44-4.76-2-8.36-5.29-11.47a51.08,51.08,0,0,1-5-5.09,8.08,8.08,0,0,1-1.52-3.77c-.22-1.51.07-3.14,1.8-3.83a3.54,3.54,0,0,1,4.4,1.34,39.32,39.32,0,0,1,2.14,4,10.66,10.66,0,0,0,1.21,1.49c.33-.66,1-1.34.94-2a9.4,9.4,0,0,0-2.79-6.8c-3.37-3.21-9.1-2.21-10.82,2-1.22,3-1.38,6.16.49,9a61.24,61.24,0,0,0,4.84,6c1.21,1.4,2.68,2.59,3.77,4.07a7.58,7.58,0,0,1,.94,7.89C451.54,651.81,449.89,652.66,447.44,652.37Zm-148.28-.26a3,3,0,0,0,4.14-.66A39.63,39.63,0,0,0,309,644.2c4.42-7.91-2.05-15.49-7.91-17.62-2.51-.92-4.24.83-3.53,3.4a34.87,34.87,0,0,0,1.54,3.86c-3.37.52-6.7.92-10,1.59-1.75.35-3.68,1.09-3.71,3.26s2,2.7,3.64,3c3.68.69,7.41,1.1,11.18,1.63A50.09,50.09,0,0,0,298.3,648C297.83,649.41,297.65,651,299.16,652.11Zm2.12-2.73-.7-.36a36.2,36.2,0,0,1,2.82-6c.6-.86,2.26-1,3.43-1.45l.35.47A19,19,0,0,1,301.28,649.38Zm6-14.21c-5.28,0-6.83-3.29-7.17-6.35C303.57,629.84,305.47,632.29,307.32,635.17Zm-19.15,4.07c3.43-2.53,15.91-2.71,20-.27A40.26,40.26,0,0,1,288.17,639.24Zm202.38-.11c0-2.38-2.17-3-4.05-3.39-3.16-.63-6.37-1-9.72-1.5.43-.88.91-1.68,1.23-2.54.52-1.42,1.24-3-.18-4.24s-3.07-.75-4.42.12c-4.86,3.1-8.69,7-7.6,13.36a16.28,16.28,0,0,0,8.13,11.64,2.51,2.51,0,0,0,3.94-2.57,22.41,22.41,0,0,0-1.5-4.87,9.23,9.23,0,0,0-.75-1.46c3.7-.48,7.31-.83,10.86-1.48C488.23,641.88,490.54,641.5,490.55,639.13Zm-14.83-9.93c.19,3.61-2.4,6-7.05,6.36C470.54,632.66,472.47,630.27,475.72,629.2Zm-6.94,13.16c3.7-.06,5.93,2.55,6.29,7.64A19,19,0,0,1,468.78,642.36Zm-.41-3.42a34.61,34.61,0,0,1,19.3,0C485,641.3,472.15,641.32,468.37,638.94Zm-99.21-19.16a3.12,3.12,0,0,0-2.12.92c-.39.33-.43,1.08-.57,1.66q-2.6,10.29-5.16,20.6c-.23.92-.51,1.82-.9,3.21-1-3.24-1.83-6-2.7-8.66-.39-1.22-.84-2.49-2.41-2.53s-2,1.23-2.48,2.44c-1,2.78-2.06,5.55-3.24,8.76-.25-.94-.41-1.43-.51-1.93-1.36-6.47-2.7-13-4.08-19.42a10,10,0,0,0-1-3,2.1,2.1,0,0,0-1.77-.81,2,2,0,0,0-1.19,1.49,11.14,11.14,0,0,0,.19,3.35q2.65,13.93,5.41,27.86c.24,1.25.48,2.58,2.1,2.74s2.22-1.11,2.69-2.39l3.36-9.28.41.05c1,3.28,1.89,6.6,3,9.83a3.79,3.79,0,0,0,2.16,2.19c1.62.39,2.25-1,2.58-2.37q3.7-15.84,7.41-31.7a2.38,2.38,0,0,0,.11-1.35C370.17,620.8,369.68,619.85,369.16,619.78Zm18.76,33.05c5.94-6.58,6.82-20.8,1.64-28a8,8,0,0,0-3.37-2.94c-5.14-1.74-8.95-.23-11.92,4.39a23.12,23.12,0,0,0-3.53,11.33c0,6.5.66,10.71,3.25,14.38C377.75,657.37,383.54,657.7,387.92,652.83ZM377.7,628c1.15-2.06,2.81-4.44,5.18-3.95,1.64.35,3.36,2.55,4.14,4.32,1.19,2.71,1.6,5.77,2.38,8.8-.87,3.23-1.61,6.36-2.59,9.41a9.66,9.66,0,0,1-2,3.16c-2.48,2.9-5.6,2.71-7.36-.69a24,24,0,0,1-2.33-7.28A21,21,0,0,1,377.7,628Z"/></svg>