<svg xmlns="http://www.w3.org/2000/svg" viewBox="0 0 750 750"><path d="M606.18,50.87c0-1.06,0-2.12,0-3.18C606.06,34.42,596.55,25,583.26,25H187.53c-13.44,0-22.93,9.44-22.93,22.83V375q0,163.78,0,327.56a23.08,23.08,0,0,0,.61,5.5c2.62,10.62,11.25,17,22.93,17H583.69c7.95-.18,14.31-3.36,18.83-10,3-4.35,3.68-9.24,3.68-14.37Q606.17,375.75,606.18,50.87Zm-4.27,650.75c0,11.55-7.48,19.1-18.94,19.1H187.61c-9.36,0-16.51-5.46-18.37-14.11a22,22,0,0,1-.35-4.74q0-163.49,0-327V47.52c0-8.93,5.45-16,13.95-17.86a19.1,19.1,0,0,1,4.14-.37H583.9a17.67,17.67,0,0,1,18,17.79c0,1.53,0,3,0,4.57Q601.9,376.63,601.91,701.62ZM519.68,271.75c1.15-2.79,1-5.46-1.28-7.51a24.45,24.45,0,0,0-6.13-4.22c-4.65-2.12-9.59-1.75-14.44-.71-7.54,1.62-14.25,5.25-20.91,9l-2.11,1.2c1.38-2.86,2.78-5.26,3.71-7.83a35,35,0,0,0,1.82-7.67c.27-2.2-1.48-3.29-3.36-2.09a11.62,11.62,0,0,0-3.82,3.85,49.56,49.56,0,0,0-6.56,19.5L458.48,282c-.12-.25-.19-.31-.18-.36a9.79,9.79,0,0,1,.21-1,46.3,46.3,0,0,0,1.09-22,14.45,14.45,0,0,0-.89-3.05c-1.23-2.81-3.45-3.2-5.3-.73a14.79,14.79,0,0,0-2.43,5.15,24,24,0,0,0,0,12c1.17,4.55,2.29,9.11,3.41,13.6l-8.06,9.63c.74-9.47-.68-13.55-3.36-21.58a15.9,15.9,0,0,0-1.92-3.9c-2.45-3.53-6.39-3.21-8,.76a10.3,10.3,0,0,0-.8,5.58,49.42,49.42,0,0,0,3.05,10.21c2.12,4.9,4.72,9.6,7,14.2l-22.63,37c.81-4.33,1.9-9.9,2.89-15.5.83-4.69,1.65-9.39,2.29-14.11.6-4.42-.17-8.45-4.07-11.34a5,5,0,0,1-1.48-1.84c-1.76-3.79-4.13-6.94-8.41-8.22.16-1.7.37-3.27.45-4.85.34-5.94,1.17-11.88-.15-17.81a9.16,9.16,0,0,0-10.95-7.34,56.34,56.34,0,0,0-5.71,1.67,7.64,7.64,0,0,1-.11-.9c-.28-5.88-.66-11.76-.76-17.65-.05-2.85-.81-5.69.43-8.61,1.78-4.19,3.21-8.55,4.58-12.91A74.69,74.69,0,0,0,402,193.11c0-1.11-.66-2.73-1.49-3.12s-2.41.16-3.38.77c-3.12,1.93-5.19,4.86-7,8-.51.88-1,1.79-1.58,2.94-.26-.9-.38-1.48-.6-2-1.94-4.84-3.81-9.72-5.92-14.49a3.58,3.58,0,0,0-2.65-1.82c-.68,0-1.74,1.37-2,2.29-1.22,4.87-2.75,9.75-3.2,14.71-.71,8-.63,16-.94,24a7.64,7.64,0,0,1-.65,3.2c-7.14,13.68-14.17,27.41-20.35,41.55-3.77,8.62-7,17.36-4.64,26.86-3.43,4-6.71,7.88-10.08,11.7-5.86,6.65-7.3,14-3.27,22,3.09,6.16,6.45,12.17,9.63,18.28a109.38,109.38,0,0,1,5.67,11.56,50.62,50.62,0,0,1,3.1,18.72c0,3.35,0,6.7,0,10.61-17.37-21.94-45.2-23.33-63-12.67-18.83,11.3-28,33.13-22.4,54a46.29,46.29,0,0,0,16.74,25.45c15.51,11.82,32.45,13.34,50.68,5.95-3.45,15.33-1.25,29.19,8,41.53s21.8,18.74,37.08,19.42a45.14,45.14,0,0,0,29.81-9.17c16.29-12.29,22.1-28.89,19.08-49.21,12.08,5.28,24.06,6.22,36.19,2.11a47.36,47.36,0,0,0,27.43-23.4,48.06,48.06,0,0,0-8.15-55.77,46.7,46.7,0,0,0-36.49-14.69c-14.26.51-26,6.74-35.72,17.77-.83-8.11-1-15.64.72-22.94a47.23,47.23,0,0,1,13.16-23c8-7.75,16.83-14.07,28.46-15.4,9.05-1,17.89,3,22.41,10.83a9.83,9.83,0,0,1,1,8,12.85,12.85,0,0,0-2.79-1.89c-2-.66-4.92.65-6,2.49a6.11,6.11,0,0,0,.33,6.9,5.2,5.2,0,0,0,6.33,1.32,11,11,0,0,0,3.06-2.14,13.85,13.85,0,0,0,2.2-16.85,25.07,25.07,0,0,0-18.52-12.72c-6.57-1.05-13,.48-19,2.88-8.68,3.42-15.64,9.33-22.06,15.93L419.8,345l-.6-.47c4.33-7.74,8.74-15.43,12.95-23.22,2.1-3.88,5.34-5,9.4-4.87,4.63.17,9.26.35,13.9.41a10.33,10.33,0,0,0,7.33-2.58c3.07-2.8,2.52-6.87-1.2-8.61a13.12,13.12,0,0,0-3.21-1c-5.62-1-10.76.51-15.68,3.09-.58.31-1.17.57-1.76.85,1.2-2.44,2.71-4.45,4-6.58s3.35-2.89,5.66-3.15c.79-.08,1.59,0,2.39,0,5.34-.37,10.69-.65,16-1.17,3-.29,4.86-2.11,4.9-4.32s-1.69-3.91-4.72-4.51a19,19,0,0,0-12.59,1.45c-1,.49-2,.91-3,1.36,2.72-3.43,5.11-7.24,10.07-7.49s10.18-.51,15.27-.8a19.93,19.93,0,0,0,5.09-.59c1.1-.37,2.52-1.5,2.68-2.48a4.89,4.89,0,0,0-1.31-3.81,7.37,7.37,0,0,0-4.26-1.74,18.19,18.19,0,0,0-5.85.73c-2.33.64-4.55,1.65-6.82,2.5a22.33,22.33,0,0,1,3.78-3.11c8-5.31,16.3-9.95,25.7-12.23,4.43-1.07,9-1.44,13.24.58a33.82,33.82,0,0,1,4.27,2.75,24.84,24.84,0,0,0-2.1,3.72c-.72,2.16,0,4.06,1.6,4.58C516.9,274.94,518.8,273.88,519.68,271.75ZM400.11,259.42a6,6,0,0,1,7,4.43,33.65,33.65,0,0,1,.76,7.28c-.07,5.27-.42,10.53-.66,15.73l-3.84,1.44c1.09-3,2.19-5.79,3.12-8.64.63-1.94.38-2.51-1.29-3.85a10.84,10.84,0,0,0-1.35,2.18c-4,12.27-10.06,23.58-16.54,34.69a12.83,12.83,0,0,1-.87,1.06c.26-1.67.47-2.88.63-4.1a6.53,6.53,0,0,0,.08-2c-.3-1.82-.91-3.62-2.76-4.29s-3.3.51-4.47,1.85c-.78.89-1.46,1.87-2.42,3.11a12.68,12.68,0,0,1,0-1.67c.37-2.42.69-4.86,1.22-7.24a4.63,4.63,0,0,1,1.41-2.46c7.27-5.94,11.23-13.39,10.68-23.34a33.54,33.54,0,0,0,3.38-3.23,7.21,7.21,0,0,0,.78-2.64,18,18,0,0,0-2.7-.42,6.85,6.85,0,0,0-1.86.53C392.72,263.92,395.32,260.35,400.11,259.42Zm-27.54,39.43c-5.74-9-5.84-8.39-10.89-10.57,1.3-2.92,4.48-4.81,9.88-5.9,2.22,2.78,4,3.18,7.13,1.11,2.52-1.69,4.81-3.72,7.2-5.6l2.25-1.77C386.5,286.57,380.68,293.41,372.57,298.85Zm3.06,2.11c-.59,2.82-1.18,5.65-1.91,9.12l-3-5,4.46-4.33Zm-5.44.34-1.33,1.64c-1.59-6-6-8.74-11.2-10.76l2-2.14C365.05,291,369.12,297.13,370.19,301.3Zm20.7-40.57c-1.88,3.49-2.76,7.65-6.43,9.94-1.54,1-3.22,1.7-4.93,2.59,0-3.92,8.4-29.14,11.2-33.47.09.82.21,1.35.21,1.88q0,9.44-.05,18.87C390.89,260.6,390.92,260.68,390.89,260.73Zm-14.13-56.52a41.83,41.83,0,0,1,1-8c.25-1.09,1.4-2.67,2.23-2.73s2.43,1.13,2.86,2.14c1.33,3.07,2.26,6.31,3.28,9.3l-9.43,15.84C376.72,215,376.61,209.6,376.76,204.21ZM351,283.63a118.36,118.36,0,0,1,5.68-14.81c6.15-13.12,12.33-26.24,18.94-39.13,4.23-8.23,9.19-16.08,13.94-24a24.5,24.5,0,0,1,4.15-5c.81-.77,2.2-.94,3.52-1.46a14.1,14.1,0,0,1,.5,7.52c-1.12,8.33-3.86,16.21-7,24-3.59,9-7.27,18-11.11,27a50.28,50.28,0,0,0-4.56,18.87,22.35,22.35,0,0,1-4.32,1.66,20.63,20.63,0,0,0-13.14,7.48c-2.46,3-5.25,5.73-7.89,8.59l-.59-.21C349.73,290.53,349.94,287,351,283.63ZM335,455.25a41.24,41.24,0,0,1-21.08,5.53c-21.39,0-40-16-42.72-36.73-2.94-22.26,10.34-42.61,31.45-48.21a43.24,43.24,0,0,1,54.5,42.46,41.11,41.11,0,0,1-2.9,14.74,7.48,7.48,0,0,1-2.19,3,53,53,0,0,0-13.23,15.43A11,11,0,0,1,335,455.25Zm46.52,62a43.24,43.24,0,0,1-.64-86.47c23.88-.12,43.58,19.09,43.7,42.63A43.27,43.27,0,0,1,381.54,517.29ZM441.3,377.92a43.2,43.2,0,1,1,8.26,85.59,42.15,42.15,0,0,1-21.27-5.63,7,7,0,0,1-2.72-3,51.55,51.55,0,0,0-15.31-19.26,6.77,6.77,0,0,1-2.12-3.19A43.05,43.05,0,0,1,441.3,377.92Zm-33-17.85a35.23,35.23,0,0,0-2,12.06c-.13,6.53.4,13.09.75,19.63a25,25,0,0,0,1,4.21,48.52,48.52,0,0,0-6,16.53,56.55,56.55,0,0,0,.3,18.32,51.22,51.22,0,0,0-20.77-4.74,49.89,49.89,0,0,0-20.81,4.61c.11-1,.13-1.62.25-2.21,2.36-11.64,1.1-22.78-4.46-33.38a7.43,7.43,0,0,1-.78-3.57c.18-4.56.62-9.11.81-13.68.49-11.61-2.74-22.16-8.82-32.05-3.71-6-6.9-12.38-10-18.73s-2-11.45,2.71-16.58q6.13-6.63,12.27-13.27c.43-.46.93-.86,1.61-1.47v3.44l4.8-1.11-.47,4.56,4.67-.84c-.14,1.43-.28,2.87-.44,4.43l2,.74c-.83,3.2-1.7,6.37-2.46,9.56s-3.54,5.42-3.86,8.68l.72.51a15.11,15.11,0,0,0,2-1.35c3.5-3.26,4.54-7.62,5.44-12.09a30.41,30.41,0,0,1,1.91-5l.8.08,5,10.76c-.25,3.12-1.06,6.16.55,9.1l1.72.71c2.87,12.45,1.89,24.28-5.11,35.23a39.09,39.09,0,0,0-2.65,4.89,12.7,12.7,0,0,0-.58,2.87l.66.52c.71-.37,1.73-.55,2.08-1.13,4.11-6.87,8.55-13.59,9.91-21.73,1.12-6.69.15-13.19-1.39-19.67-.23-1-.48-1.93-.74-3,1.12-1.56,2.27-3.13,3.55-4.89a23.26,23.26,0,0,1,.26,11.87c-.48,1.91-.8,4,.77,6.08,3.6-.48,5.35-3.33,7.44-5.65,4.56-.32,7.08-3.49,9.27-6.81a59.69,59.69,0,0,1,10.39-12.43c3.31-2.9,4.8-7.06,5.91-11.28a2.69,2.69,0,0,0,0-1,8.39,8.39,0,0,0-.44-1.15,7.07,7.07,0,0,0-1.85,1.15,11.4,11.4,0,0,0-1.25,2.25,36.58,36.58,0,0,1-6.76,9.43c-3.07,3-5.25,6.93-7.83,10.45-1.61,2.19-3.24,4.36-4.87,6.54l-.61-.42a51.07,51.07,0,0,0,2-4.85,12.33,12.33,0,0,0,.65-4.45c-.18-2.28-1.93-3-4.15-2.5-2.89.7-4.46,2.86-6.22,5.48a6.71,6.71,0,0,1,1.16-5.49c3.52-5,6.76-10.26,10-15.51,1.37-2.26,2.33-4.76,3.52-7.12a10.19,10.19,0,0,1,7.67-5.61,5.45,5.45,0,0,1,6.25,2.76c1.8,3.18,3.52,6.34,6.33,8.8a3.78,3.78,0,0,1,.84,2.74A65.16,65.16,0,0,1,420,315C416.78,330.17,414,345.48,408.3,360.07Zm34.28-45.85c0-.18,0-.35-.07-.52l3.61-1.34,1.31,2.11Zm6.88.15c-.22-.74-.46-1.52-.76-2.55l1.88-.34,1.16,2.89Zm5,.09L453,311.05l2.57-.29,1.5,3.3Zm7.72-3.76-2.55,2.72c-.37-1.12-.61-1.83-.91-2.72Zm-1.31-2.29c-3.52.17-6.92.08-10.23.56a95.5,95.5,0,0,0-9.39,2.27C446.22,307,456.68,305.16,460.86,308.41ZM435,270.78h.5l1.12,4.3-2.44-1.58C434.45,272.46,434.7,271.62,435,270.78Zm-.11,6.51c3,1.09,3.41,1.73,3.57,5C435.65,281.61,435.15,279.58,434.84,277.29Zm5.64,13.38-2.58-5.21.6-.32c1.87,1.16,1.48,3.55,2.43,5.21Zm-2.41-20.62.22-.23a8.31,8.31,0,0,1,1.26,1.49,47,47,0,0,1,4.17,18Q440.89,279.67,438.07,270.05Zm22.49,26.46c-.35-.51-.68-1-1.19-1.72l3.68-.61c.43.59.78,1.1,1.3,1.82Zm10.61-2-3.6,1.44-1.3-1.9H471C471.06,294.19,471.12,294.34,471.17,294.5Zm-.85-2.88-13.44.82A15.43,15.43,0,0,1,470.32,291.62Zm-12.92,4.74h-4.56C454.13,295.87,455.46,294.73,457.4,296.36Zm-3-30-.88.12L452.26,262l.67-.31,1.65,1.38C454.53,264.19,454.47,265.29,454.42,266.38Zm3,8.2h-.56V255.68C459,261.92,458.28,268.25,457.38,274.58Zm27,3.58L468.5,280.1C473.65,278,478.58,274.46,484.37,278.16ZM472.3,267.69l5.19-10.49.68.38q-2.57,5.24-5.11,10.48ZM580.38,421.86,576.54,419l-.5.38V671.74c-12.2,2.33-18.56,10-21.2,21.55H432.6c2.7,2.78,5,4.7,8.87,4.37,4.73-.41,9.52-.1,14.29-.1l101.37,0a10.32,10.32,0,0,0,1.4-.17c1-13.76,9.37-19.91,21.85-22.15ZM194.64,671.71V418.81l-4.14,3.06v253.4c12.51,2.29,20.94,8.41,21.83,22.16a13,13,0,0,0,1.46.16q58.83,0,117.66,0c3.22,0,4.43-2.47,6.3-4.35H216C213.35,681.64,206.91,673.93,194.64,671.71ZM577,76.38v243l4.2-3.13V72.84c-12.57-2.26-21-8.48-21.88-22.2-.47,0-.92-.13-1.38-.13-38.95,0-77.91.07-116.86-.06-3.59,0-5.12,2.27-7.2,4.36H555.59C558.4,66.49,564.78,74.16,577,76.38ZM191.3,316.31l4.21,3.11v-243c12.29-2.29,18.65-10,21.33-21.6h122c-3-3.72-4.08-4.23-8.36-4.23H316l-101.37,0a12.62,12.62,0,0,0-1.46.15c-.9,13.75-9.33,19.87-21.83,22.18ZM415,76.16H355.55v49.69H415Zm-4.11,45.42H359.87V80.4h51.05ZM473,190.8a8.19,8.19,0,0,1,4,5.88c.62,4.39,1.35,8.77,2.06,13.14.44,2.69.92,5.37,1.38,8.05a2.35,2.35,0,0,0,.79-1.46c1-6.2,2.18-12.38,2.95-18.61.44-3.52,2-6.16,5.09-7.48,3.62-1.54,7.47-2.55,11.22-3.78.55-.18,1.14-.26,1.71-.39a9.52,9.52,0,0,0-2.74-1c-3.6-1.25-7.27-2.37-10.74-3.93a7.36,7.36,0,0,1-4.32-5.82c-.83-5.43-1.7-10.85-2.57-16.27-.27-1.7-.59-3.38-.89-5.07a1.9,1.9,0,0,0-.77,1.3c-1,6.07-2.25,12.11-2.89,18.22-.49,4.77-3.14,7.46-7.18,9.07a88.9,88.9,0,0,1-8.52,2.56c-.79.22-1.62.3-2.42.45l.06.55,2.13.36A30.89,30.89,0,0,1,473,190.8ZM297,558.19a2.94,2.94,0,0,0,.81-1.65c1-6.21,2.13-12.41,2.94-18.64.42-3.22,1.88-5.66,4.68-6.9,3.53-1.56,7.3-2.63,11-3.87a16.67,16.67,0,0,1,2.34-.45c0-.17,0-.33,0-.5a14.72,14.72,0,0,1-1.87-.37c-3.81-1.26-7.71-2.33-11.38-3.92a7.89,7.89,0,0,1-4.7-6.87c-.42-3.95-1.2-7.85-1.84-11.78-.46-2.86-.94-5.71-1.41-8.57l-.52,0a14.74,14.74,0,0,0-.37,1.49c-1,6.27-2.13,12.54-3,18.84-.44,3.28-1.95,5.77-4.85,7-3.62,1.55-7.46,2.6-11.21,3.84a17,17,0,0,1-2,.41,7.08,7.08,0,0,0,2.45.91c3.63,1.21,7.33,2.25,10.81,3.78,2.87,1.26,4.4,3.73,4.84,7,.81,6.24,1.93,12.44,2.93,18.65C296.71,557.12,296.89,557.65,297,558.19Zm2.5-327.38a8.6,8.6,0,0,1-4.33-6.52c-.63-4.85-1.5-9.68-2.29-14.52-.33-2.07-.71-4.14-1.07-6.21a2.63,2.63,0,0,0-.84,1.58c-1,6.21-2.14,12.4-2.93,18.64-.44,3.45-2.05,6-5.06,7.29-3.55,1.54-7.33,2.55-11,3.75a16.86,16.86,0,0,1-2.25.43,10.13,10.13,0,0,0,2.65.9c3.63,1.2,7.33,2.24,10.81,3.79,2.93,1.3,4.52,3.82,4.87,7.2.41,3.94,1.18,7.85,1.82,11.77.46,2.84,1,5.68,1.45,8.52a2.94,2.94,0,0,0,.83-1.71c1.06-6.53,2.14-13.07,3.13-19.61a7.24,7.24,0,0,1,3.06-5.13,18.39,18.39,0,0,1,4.29-2.46c3.42-1.18,6.93-2.1,10.87-3.26l-2.42-.43A31.56,31.56,0,0,1,299.53,230.81Zm55.78,408.88c1.17,5,2.09,10.11,3.28,15.12a6.86,6.86,0,0,0,1.87,3.34c1.35,1.26,2.8.51,3-1.35,1.38-10.75,1.12-21.54,1.05-32.33a8.5,8.5,0,0,0-.31-2.36,7.68,7.68,0,0,0-1-1.67h-.71a7.14,7.14,0,0,0-.88,2.08c-.32,6.88-.55,13.75-.81,20.63,0,.67,0,1.34,0,2-2-8.46-5.5-16.27-8.46-24.13-1.95-.06-2.86.6-3.07,2.1a26.57,26.57,0,0,0-.37,3.54q.17,14.1.42,28.19a6.8,6.8,0,0,0,.51,2.7,2.23,2.23,0,0,0,1.66,1.05c.45,0,1.07-.68,1.34-1.21a3.87,3.87,0,0,0,.17-1.75q-.15-9.52-.33-19.06c0-1.4,0-2.79,0-4.19A39.21,39.21,0,0,1,355.31,639.69Zm-26.74-6.93c2-7.68-3.5-13.49-11.33-12.41-1.1.15-2.19.38-3.09.53l-2-2.49c-.6,1.78-1,3-1.45,4.26a13.45,13.45,0,0,0-2.54,2,59.86,59.86,0,0,0-4.64,6.34c-.54.87-1,2.27.69,3.14l5.91-6.93.67.45c0,.72,0,1.44,0,2.16q-.35,13.61-.68,27.21a4.66,4.66,0,0,0,.27,2.32,2.78,2.78,0,0,0,1.89,1.3c.5,0,1.27-.85,1.5-1.49a7.41,7.41,0,0,0,.16-2.55c0-2.88,0-5.77,0-8.57C322.35,646,326.6,640.26,328.57,632.76Zm-13.69,11.06a6.86,6.86,0,0,1-.89.07v-18.7a8.88,8.88,0,0,1,7.05-.49,4.85,4.85,0,0,1,3.18,4.21C325.1,634.43,320.24,642.2,314.88,643.82Zm81.22,2.86c-1-7.8-1.89-15.63-2.89-23.43a13.92,13.92,0,0,0-1-2.91h-1a14.29,14.29,0,0,0-1.26,2.5c-1.64,5.79-3.21,11.6-4.79,17.4-.42,1.51-.81,3-1.14,4.26-1.66.9-4.15-.19-4.22,2.24,0,.84,1.64,1.72,2.9,2.94-.53,2.15-1.21,5-1.91,7.76-.3,1.21-.63,2.51,1,2.93s2.06-.77,2.38-2c.27-1,.51-2.05.78-3.08.53-2.1,1.07-4.2,1.64-6.41h6.14c.41,2.46.75,4.88,1.24,7.27.29,1.43,0,3.74,2.37,3.32s1.38-2.53,1.21-4C397.16,652.54,396.48,649.63,396.1,646.68Zm-8.35-2.49c1-3.92,2-7.81,2.94-11.7H391c.4,3.84.79,7.67,1.21,11.69Zm-104.38,9.58c1.46.94,2.82.26,4-.62a19.87,19.87,0,0,0,6.31-8.25c2.85-6.32-1.87-15.49-8.67-17-2.46-.55-4.07,1-3.43,3.5a36.61,36.61,0,0,0,1.59,4.1c-.54,0-.92.07-1.3.13-3.25.51-6.53.9-9.74,1.61a3.08,3.08,0,0,0-2.7,3c0,1.69,1.39,2.44,2.76,2.69,3.35.63,6.75,1,10.13,1.52a15.56,15.56,0,0,0,2,0c-.78,1.89-1.58,3.49-2.1,5.18C281.85,651.16,281.82,652.77,283.37,653.77Zm2.44-2.82-.91-.55,2.67-6.28,3.31-.76.54.51Zm5.47-14.48c-4.37.19-6.18-2-6.87-6.05C287.65,631.47,289.46,633.85,291.28,636.47Zm-18.58,4.32c2.73-2.44,15.14-2.68,19.44-.34A41.41,41.41,0,0,1,272.7,640.79ZM346.23,50.48c3.15.63,6.35,1,9.66,1.53a14,14,0,0,0-1.33,3.28c-.15,1.13-.12,2.75.55,3.38a3.77,3.77,0,0,0,3.4.39A14.51,14.51,0,0,0,367,49.71c1.26-4.34-.35-8.09-3-11.4a21.16,21.16,0,0,0-5-4.71c-2.18-1.42-4.32,0-4.19,2.63a12.25,12.25,0,0,0,.86,3.43,25.86,25.86,0,0,0,1.31,2.72c-3.71.51-7.37.89-11,1.57-1.75.33-4,.83-3.84,3.25C342.38,49.41,344.4,50.12,346.23,50.48Zm11.19,6.36-.65-.47c1-1.69,2-3.38,2.87-4.95l4.41-.85A13.44,13.44,0,0,1,357.42,56.84Zm1.12-20.52q2.81,3.54,5.62,7.07l-.41.54-3.38-.74c-.9-2-1.83-4.17-2.77-6.29Zm6.19,11a37.63,37.63,0,0,1-19.34-.13C348.45,44.93,361.34,45,364.73,47.32Zm62.83,651.19a10.78,10.78,0,0,0-3.91-1.32c-2.58-.44-5.19-.65-7.91-1a14.44,14.44,0,0,0,1.33-3.3c.17-1.13.23-2.83-.43-3.4a4,4,0,0,0-3.57-.43,14.85,14.85,0,0,0-8.52,9.62c-1.66,5.67,3.36,12.9,7.13,15.31a5,5,0,0,0,3.81.51c1.6-.57,1.58-2.37,1.16-3.81-.51-1.75-1.31-3.43-2.09-5.4a22.56,22.56,0,0,0,3.4,0,90.43,90.43,0,0,0,9.31-1.76,3.48,3.48,0,0,0,2.07-2.49C429.42,700.24,428.41,699,427.56,698.51Zm-12.44-7.14-3.08,5.3-4.26.86C409.31,694.3,412,691.88,415.12,691.37Zm-1.66,20.21c-2.58-1.8-4.26-4.34-6-7.5l3.81.84c.9,2.06,1.83,4.18,2.75,6.31Zm-6.16-10.52a30.25,30.25,0,0,1,18.63.16A31.8,31.8,0,0,1,407.3,701.06ZM172.64,340.3a42.67,42.67,0,0,0,7.06,5.63c8.15,4.76,15.94-2.11,18-7.84.92-2.58-.89-4.36-3.54-3.64a34.48,34.48,0,0,0-3.73,1.48c-.49-3.24-.88-6.43-1.5-9.57-.38-1.88-1.07-4-3.42-4s-2.84,2.23-3.17,4c-.67,3.55-1,7.16-1.49,10.76-1.48-.61-3.07-1.41-4.75-1.92-1.48-.45-3.11-.53-4.13,1A3.13,3.13,0,0,0,172.64,340.3Zm17.17-.51,4.87-3c-.09,2.95-2.62,5.75-5.68,7.09C189.25,342.61,189.49,341.4,189.81,339.79Zm-4.58-14a29.94,29.94,0,0,1,.23,18.67C183.33,338.27,183.72,332.05,185.23,325.8Zm-3.67,14.6c.28,1.23.53,2.29.79,3.42-2.66-.67-6.18-3.46-7-6.14ZM357.35,688.91a3.47,3.47,0,0,0-3.05.5,3.9,3.9,0,0,0-.64,3,17.18,17.18,0,0,0,1.37,3.63c-3.4.56-6.74,1-10,1.68-1.68.35-3.49,1.14-3.56,3.21s1.91,2.79,3.56,3.1c3.68.71,7.41,1.14,11.16,1.69a51.88,51.88,0,0,0-1.92,4.86c-.43,1.43-.42,3,1,3.94a3,3,0,0,0,4-.57,40.74,40.74,0,0,0,5.63-6.83C369.86,698.94,363.34,691.19,357.35,688.91Zm0,22.63c-.18-.11-.37-.21-.56-.31l2.75-6.29,3.76-.87C361.73,707.24,360,709.78,357.37,711.54Zm-12.87-9.86c3.13-2.53,15.49-2.72,19.54-.41C357.42,703.16,351.19,702.79,344.5,701.68Zm11.79-10.51c3.26,1.2,5.18,3.42,6.85,6.06C359.24,697.48,357.33,696,356.29,691.17ZM181.21,397c.56,3.76,1,7.55,1.82,11.27a3.21,3.21,0,0,0,2.33,2,3.34,3.34,0,0,0,2.56-1.67,25.47,25.47,0,0,0,1.71-5.84c.37-2,.4-4,.59-6.1a18.48,18.48,0,0,0,3.79,1.48c1,.17,2.49.05,3-.57a3.79,3.79,0,0,0,.5-3.22,13.77,13.77,0,0,0-2.56-4.17c-4.17-4.92-10.11-6.76-16.24-3-2.66,1.64-5.28,3.34-6.76,6.22-1.26,2.44.07,4.55,2.78,4.28a18.93,18.93,0,0,0,4.32-1.29,17.82,17.82,0,0,0,2.12-1.11A13.79,13.79,0,0,0,181.21,397Zm14-1.8-.44.61-4.91-2.87-.92-4.48C191.92,390.24,194.15,392.17,195.2,395.16Zm-9.74-7a30.34,30.34,0,0,1-.18,18.68A31.72,31.72,0,0,1,185.46,388.13Zm-10.14,6.8c-.12-.2-.24-.4-.37-.6,1.74-2.61,4.33-4.22,7.49-6-.33,1.51-.56,2.54-.86,3.87Zm315.2,248.7a67.27,67.27,0,0,0,8.48-1.81,3.37,3.37,0,0,0,1.91-2.39,3.31,3.31,0,0,0-1.6-2.42,12.09,12.09,0,0,0-4.06-1.44c-2.58-.45-5.21-.65-7.94-1a15.9,15.9,0,0,0,1.42-3.62c.16-1.05,0-2.58-.62-3.19a3.58,3.58,0,0,0-3.22-.41,18.05,18.05,0,0,0-5,3.42c-6.56,6.51-4.24,18.33,4.26,22.18a5,5,0,0,0,.73.29,2.56,2.56,0,0,0,3.46-2.45,11.53,11.53,0,0,0-.71-3.64,30.8,30.8,0,0,0-1.64-3.5A31.15,31.15,0,0,0,490.52,643.63Zm-4.74-14,.69.48-2.9,4.9-4.37.89A13.07,13.07,0,0,1,485.78,629.67ZM485,649.94c-2.59-1.77-4.29-4.28-5.9-7.44,1,.2,1.57.3,2.13.43s.89.23,1.62.43c.88,2,1.81,4.1,2.75,6.22Zm-6.16-10.47a30.35,30.35,0,0,1,18.64.09A31.83,31.83,0,0,1,478.87,639.47Zm109.51-313.8c-.3-1.57-.92-3.42-3-3.37s-2.64,1.77-3.18,3.35a18,18,0,0,0-.83,3.46c-.29,2.22-.45,4.46-.69,6.94-1.16-.51-2.16-1-3.19-1.38-1.35-.51-2.73-.81-3.83.49s-.73,2.63-.08,3.91a15.27,15.27,0,0,0,8.2,7.67,11.53,11.53,0,0,0,4.45.64c4.59-.18,8-2.84,11.09-5.86,2.11-2,2.6-4.07,1.64-5.42s-3-1.58-5.67-.48c-1.17.48-2.3,1.08-3.11,1.46C589.56,333.2,589.1,329.41,588.38,325.67ZM575.7,337.1c2.33.23,3.85,1.6,5.41,3,.25,1.25.5,2.47.76,3.73A10.44,10.44,0,0,1,575.7,337.1Zm9.72,7.37a30.56,30.56,0,0,1,.15-18.68A31.64,31.64,0,0,1,585.42,344.47Zm10.12-6.8.34.56c-1.66,2.68-4.25,4.28-7.43,6,.33-1.46.55-2.46.84-3.76ZM414,59.08a3.93,3.93,0,0,0,3.41-.44c.65-.54.71-2.15.55-3.2A15.12,15.12,0,0,0,416.6,52c3.27-.5,6.42-.87,9.52-1.49,1.89-.38,4-1.06,4.09-3.39,0-2.5-2.33-2.91-4.13-3.25-3.49-.66-7.05-1-10.57-1.44.62-1.62,1.43-3.35,2-5.17a3.09,3.09,0,0,0-1.1-3.74,2.94,2.94,0,0,0-3.84.51A40.93,40.93,0,0,0,407,40.47C401.79,48.65,407.71,56.35,414,59.08Zm.27-22.53.59.3c-.9,2.1-1.81,4.21-2.71,6.32l-3.76.84A18.39,18.39,0,0,1,414.26,36.55ZM426.9,46.93C422.73,49,411.19,49,408.08,47,411.4,45.08,423.49,45,426.9,46.93Zm-11.56,9.91c-3.25-1-5.1-3.35-6.93-6.13C413.3,50.69,414.85,53.63,415.34,56.84ZM598.22,392.29a41,41,0,0,0-6.89-5.54c-8.05-4.77-15.74,1.61-18,7.6a3.68,3.68,0,0,0,.6,3.2c.56.62,2.06.67,3.06.5a19.63,19.63,0,0,0,3.78-1.5,18.11,18.11,0,0,0,.12,2.08,90.08,90.08,0,0,0,1.77,9.29,3.76,3.76,0,0,0,2.79,2.25c.91,0,2.31-1.38,2.6-2.4a67,67,0,0,0,1.63-8.72,26.74,26.74,0,0,0,0-3.7c1.82.77,3.35,1.57,5,2.07s3.23.63,4.3-1A3.12,3.12,0,0,0,598.22,392.29Zm-17.16.52-5.07,3.1c-.06-2.66,2.66-5.82,5.89-7.22Zm4.67,14c-2.19-2.46-2.43-14.88-.29-18.78C587.37,391.87,587.48,403.17,585.73,406.8Zm9.9-11.89-6.31-2.7-.87-3.8c3.16,1.61,5.68,3.32,7.47,5.94ZM436.46,656.25c0,1.51.31,3.5,1.87,3.52a67.42,67.42,0,0,0,10.38-1c.39-.06.92-1.3.84-1.92s-.86-1.15-1.45-1.31a6.26,6.26,0,0,0-2.35.1c-1.62.22-3.24.49-4.76.72V642.49c2.07,0,3.78,0,5.48,0,1.31-.06,2.63-.45,2.75-2s-1.15-2.15-2.49-2.22c-1.88-.1-3.77,0-5.79,0-.2-4.87-.4-9.6-.61-14.43l8.5-.42a2.8,2.8,0,0,0-2.82-3.17,68.32,68.32,0,0,0-8.69.4,1.63,1.63,0,0,0-1.49,2.35l1.22,1v14.79c-1.4,1-4.06.49-3.8,2.87.09.75,2.15,1.29,3.64,2.11,0,.11,0,.76,0,1.41C436.75,648.84,436.56,652.54,436.46,656.25Zm143.53,34c1.42-.6,3.21-1.24,4.87-2.11,1.33-.7,2.35-1.81,2-3.52a2.94,2.94,0,0,0-3.23-2.4,46.77,46.77,0,0,0-9.53,1.24,10.5,10.5,0,0,0-5.16,3.35c-3.49,4.36-3.55,9.39-1.58,14.43a3.6,3.6,0,0,0,2.58,2c.9,0,2.09-1,2.69-1.82a15.78,15.78,0,0,0,1.47-3.56c2.67,1.93,5.21,3.93,7.9,5.69,1.6,1,3.64,2,5.29.4s.38-3.6-.63-5C584.57,695.85,582.19,693,580,690.23Zm3.41-5c.06.21.13.42.19.63l-6.49,2.68-3.34-2.11C577.23,685.31,580.25,684.63,583.4,685.19Zm-13.33,15.14c-1.55-1.65-1.81-4.32-.84-9.14C572.12,694.83,572.31,697.26,570.07,700.33Zm1.36-11.92c6,2.75,10.25,7.41,13.66,12.94A30.39,30.39,0,0,1,571.43,688.41ZM185.72,50.52c2,2.46,4,4.87,6.07,7.3-1.52.64-3.26,1.26-4.89,2.11-1.41.73-2.5,1.87-2.1,3.67a3,3,0,0,0,3.3,2.32,44.07,44.07,0,0,0,9-1.06c8.92-2.36,9.82-12.36,7.13-18.24-1.14-2.5-3.69-2.55-5.07-.18a35,35,0,0,0-1.72,4.12,15.9,15.9,0,0,0-1.47-1.31c-2.4-1.74-4.76-3.56-7.26-5.13-1.29-.81-3-1.21-4.27,0s-.64,2.81,0,4.2A11.39,11.39,0,0,0,185.72,50.52Zm2.57,12.37-.15-.69,6.44-2.58,3.28,2.06C194.54,62.81,191.49,63.48,188.29,62.89Zm13.57-15.3c1.53,3,1.28,6,.69,9.07C199.58,54.47,199.21,50.56,201.86,47.59ZM200.2,59.72c-6-2.82-10.27-7.4-13.61-13A29.93,29.93,0,0,1,200.2,59.72Zm370.13,2.17c3.72,3.73,8.67,4.46,13.75,4.1,1.62-.12,3.24-.57,3.6-2.51s-.93-3-2.38-3.72-3.22-1.34-4.59-1.9c2.12-2.61,4.41-5.17,6.37-8,1.15-1.64,2.95-3.77,1-5.69s-4.17-.39-6,.8c-2.47,1.63-4.76,3.53-7.19,5.36a14.36,14.36,0,0,0-1.38-3.48c-.67-.91-1.88-2-2.81-2a3.57,3.57,0,0,0-2.6,2.18,26.82,26.82,0,0,0-.77,8.52A11.37,11.37,0,0,0,570.33,61.89Zm14,.36-.18.66c-3.17.58-6.22-.12-9.6-1.19l3.29-2.12Zm1.35-15.66c0,3-9.07,11.89-13.59,13.27C573.62,55.65,581.36,48.17,585.71,46.59Zm-15,1.14c1.88,2.43,2.94,5.66-.71,9.15C569.13,52.19,569.33,49.84,570.7,47.73ZM187.28,682.15c-1.48.14-2.92.66-3.28,2.38s.72,2.93,2.12,3.66c1.63.84,3.37,1.45,5.17,2.21-.45.42-.93.85-1.39,1.3-2.83,2.73-5.42,5.65-6.78,9.41-.81,2.26.4,3.89,2.7,3.4a14.92,14.92,0,0,0,5-2.23c2.07-1.36,3.91-3,5.87-4.61a19.2,19.2,0,0,0,1.6,3.82c.56.82,1.73,1.78,2.55,1.71a3.72,3.72,0,0,0,2.62-1.94,17.26,17.26,0,0,0,1.22-5.55c.18-3.53-.55-7-3.21-9.49C197.5,682.51,192.51,681.69,187.28,682.15Zm0,3.67c.07-.21.13-.42.2-.63,3.17-.58,6.21.13,9.63,1.19l-3.32,2.12Zm-1.61,15.71c1.33-3.94,9.26-11.61,13.59-13.27C199.17,691.4,190.28,700.17,185.67,701.53Zm15.4-1c-2.35-3.47-2.76-6,.64-9.32C202.37,694.49,202.57,697.51,201.07,700.54Zm255.31-51.2c-1.84-.65-3.11,0-3.45,1.22a8.4,8.4,0,0,0-.14,4.73c1.36,3.86,3.6,4.8,8.47,4.19,4.28-.54,6.93-3.53,6.26-7.8a23.78,23.78,0,0,0-2.72-8.39,42,42,0,0,0-6.68-8.06,9.24,9.24,0,0,1-2.84-8.45c.38-2.62,1.79-3.68,4.4-3.25,1.9.31,2.78,1.57,3.32,3.27.27.87.74,1.68,1.36,3.07a8.9,8.9,0,0,0,1.21-1.9c.65-3-1.73-6.56-4.77-7.35-3.85-1-7.45.72-8.39,4-1.45,5.14-.91,9.84,3.21,13.69a14.62,14.62,0,0,1,2.59,2.75c1.73,2.78,3.77,5.5,4.81,8.55,1.75,5.18.87,6.07-4.66,6.42-2.25-1.42-2.51-2.18-1.9-4.69A7.25,7.25,0,0,0,456.38,649.34Zm-77.95-592a2.73,2.73,0,0,0,2.3.41c.43-.15.77-1.31.7-2-.36-3.45,1.09-5.91,4.53-7.3,3.85,1.08,5.39,3.47,5,7.44a2.27,2.27,0,0,0,.72,1.83,2.69,2.69,0,0,0,2-.13A4.19,4.19,0,0,0,395,56.43a11.32,11.32,0,0,0,1.28-13,11.44,11.44,0,0,0-12.08-5.7c-5.19,1.11-9,5.12-9.43,10A10.58,10.58,0,0,0,378.43,57.33Zm3.18-14.48c3-2.21,6.2-2.15,9.34.16a6.65,6.65,0,0,1,2.57,7.8c-4-7.72-10.78-7.15-14.56,0A6.85,6.85,0,0,1,381.61,42.85ZM576.69,371.1a2.36,2.36,0,0,0-2,.73c-.29.52.07,1.45.28,2.16.1.34.51.6.79.87a11.31,11.31,0,0,0,13.1,1.57,11.54,11.54,0,0,0-4.21-21.58,10.57,10.57,0,0,0-9.58,3.69,2.72,2.72,0,0,0-.34,2.3c.17.43,1.33.71,2,.64,3.39-.37,5.93,1.17,7.24,4.6C582.87,369.88,580.4,371.49,576.69,371.1Zm5-12a6.76,6.76,0,0,1,7.71,2.24,7.31,7.31,0,0,1,.48,9.18,6.94,6.94,0,0,1-8.36,3.09C589.06,369.9,589.1,362.9,581.65,359.07ZM393.42,690.92a3.24,3.24,0,0,0-2.46-.56c-.39.1-.74,1.41-.66,2.13.37,3.41-1.38,6-5.05,7.14-3.52-1.29-4.93-3.69-4.58-7.4.06-.62-.24-1.64-.67-1.83a2.34,2.34,0,0,0-2.13.21,12,12,0,0,0-2.72,3.34,11.35,11.35,0,0,0,6.1,15.75c7.16,2.95,13.59-2.07,15.19-7.16C397.73,698.41,396.54,693.44,393.42,690.92Zm-3.49,14.37c-3,2-6,2.12-8.87.15a7.12,7.12,0,0,1-3-8.09c6.19,7.55,10.13,7.54,14.65-.18C393.9,699.82,392.51,703.59,389.93,705.29ZM192.09,361.51c.57-.11,1.19,0,1.77-.08.82-.15,2.1-.24,2.3-.72a2.89,2.89,0,0,0-.61-2.42,9.77,9.77,0,0,0-7-3.5c-8.35.07-14,6.78-12.45,13.69a11.16,11.16,0,0,0,8.36,8.93,10.49,10.49,0,0,0,10.91-3c.57-.6.59-1.73.86-2.62a7.18,7.18,0,0,0-2.42-.63c-3.09.29-6.55-2-6.92-4.74C186.67,364.46,189.15,362.05,192.09,361.51ZM189.2,373.6a6.68,6.68,0,0,1-7.91-2.75c-2.23-3.14-2.21-6.42.08-9.34a6.86,6.86,0,0,1,7.86-2.48C182.35,362.59,181.23,369.35,189.2,373.6ZM337.77,623.84a29.5,29.5,0,0,0,5.5-.61c.76-.2,1.27-1.38,1.9-2.11a25.37,25.37,0,0,0-2.13-1.75c-.27-.19-.77-.08-1.17,0-2.43.25-4.87.44-7.29.82a16,16,0,0,0-3,1.08V661c4.56-1,8.73-1.9,12.85-3a2.19,2.19,0,0,0,.94-1.9,2.3,2.3,0,0,0-1.57-1.46,10.51,10.51,0,0,0-3.53.16c-1.72.35-3.41.89-5.13,1.35V643.88c1.6-.18,3-.25,4.34-.51s2.71-.7,3.92-1c.14-2.46-.76-3.33-3-3.17-1.76.12-3.5.44-5.33.68-.28-5.36-.56-10.55-.85-16C335.44,623.85,336.61,623.92,337.77,623.84Zm78.08,31a11.93,11.93,0,0,0,1.38-2.85c.48-1.19.64-2.47-.77-3.08s-2.18.45-2.88,1.63c-1,1.67-2.18,3.2-3.26,4.75-3.16-1.18-4.06-2.14-4.71-4.64a36.25,36.25,0,0,1-1.07-15,30.75,30.75,0,0,1,2.74-9.24c2-3.87,4.78-3.82,7.41-.38a13.84,13.84,0,0,1,1.1,2.09l1-.57c.21-.54.63-1.1.59-1.61-.36-3.75-5.3-6.63-8.74-5.1a11.35,11.35,0,0,0-6,6.33A32.91,32.91,0,0,0,400.16,642a60.71,60.71,0,0,0,1.76,11.13,8.16,8.16,0,0,0,7.15,6.09C412.41,659.71,414.13,657.11,415.85,654.85Zm58-146.72c.32,2.89.86,5.76,1.32,8.63.15.94.36,1.87.55,2.8l.53,0c.56-3.35,1.36-6.7,1.61-10.08.27-3.67,2.19-5.65,5.44-6.7,1.6-.52,3.21-1,5.28-1.59-2.07-.58-3.67-1-5.22-1.46-3.2-1.06-5.24-2.95-5.49-6.67-.24-3.39-1.05-6.74-1.6-10.11l-.64.06c-.53,3.31-1.31,6.6-1.53,9.93-.27,4.19-2.78,6-6.35,7.07-1.26.37-2.54.69-4.06,1.1,2.57.95,4.82,1.67,7,2.61A5.13,5.13,0,0,1,473.87,508.13ZM264.3,339.58c-.11-3.1-1-6.18-1.53-9.27a2.25,2.25,0,0,0-.81,1.43,57.34,57.34,0,0,0-1.16,7.64c-.12,5-3,7.17-7.35,8.24l-3.3.83c2.48.87,4.56,1.48,6.54,2.31a5.66,5.66,0,0,1,3.77,5.12c.18,2.37.71,4.71,1.09,7.06.22,1.32.45,2.64.67,4l.56,0a91.19,91.19,0,0,0,1.6-9.93c.23-3.89,2.37-5.84,5.71-7,1.47-.49,3-.85,4.48-1.27v-.36l-3-.73C267.41,346.54,264.48,344.52,264.3,339.58Zm112,317.28a6.5,6.5,0,0,0,.15-2.55c.07-8.74.12-17.48.21-26.22,0-1.29.19-2.58.29-3.87a32.3,32.3,0,0,0,5.16-.09,2.51,2.51,0,0,0,1.54-1.83,2.3,2.3,0,0,0-1.43-1.74,38.62,38.62,0,0,0-14.06.1c-1.33,2.57-.84,2.93,5,3.78,0,.55,0,1,0,1.47l-.75,29.76c0,.4-.1.91.1,1.17.57.7,1.25,1.77,1.92,1.79S376,657.62,376.31,656.86Zm48-33.71a7.51,7.51,0,0,0-.76-2.17h-.77a11.27,11.27,0,0,0-1,2.79c-.33,4-.55,7.91-.72,11.88-.29,6.74-.5,13.49-.77,20.23-.09,2.23.48,3.2,2.75,3.19,3.63,0,7.26-.28,10.88-.6.73-.07,1.39-.85,2.45-1.56-3.92-3.58-8.17-1.07-12.09-2.06.18-4.49.5-9,.5-13.46C424.74,635.32,424.5,629.23,424.28,623.15ZM310.1,329.73l-.54,0c-.35,2.18-.78,4.35-1,6.54-.56,4.61-1.7,6-6.22,7.21-.63.17-1.27.29-1.91.43,0,.15-.07.3-.1.44.67.18,1.35.38,2,.55,4.3,1.05,5.58,2.47,6.15,6.79,0,.4,0,.8.11,1.19.33,1.87.68,3.74,1,5.61l.51-.06c.27-1.62.62-3.23.8-4.86.74-6.61,1.13-7.1,7.48-8.94a5.36,5.36,0,0,0,1.05-.63c-1.11-.29-1.93-.49-2.76-.72-3.15-.84-5.24-2.49-5.41-6.12A62.41,62.41,0,0,0,310.1,329.73Zm193.83-6.62c.05.4,0,.8.11,1.19.35,1.86.72,3.73,1.08,5.59a33.14,33.14,0,0,0,1.74-8.09,5.36,5.36,0,0,1,3.86-5c1.31-.51,2.68-.88,4.44-1.45-1.52-.43-2.59-.7-3.65-1-2.73-.89-4.55-2.37-4.69-5.61a60,60,0,0,0-1.28-7.7l-.41,0c-.16.66-.36,1.32-.48,2a57.41,57.41,0,0,0-.92,6.07c-.19,3-2.07,4.41-4.62,5.27-1.08.36-2.18.64-3.68,1.08,1.05.34,1.66.58,2.29.74C502.32,317.36,503.33,318.48,503.93,323.11Zm-77.1-156.92a57.72,57.72,0,0,0-1.27-7.66h-.49c-.49,2.9-1.1,5.78-1.44,8.69a4.68,4.68,0,0,1-3.11,4c-1.48.63-3,1.08-4.86,1.71a13.07,13.07,0,0,0,1.72.62c4.15.78,6.7,3,6.62,7.48a4.27,4.27,0,0,0,.1.79l1,5.5.49,0a73.67,73.67,0,0,0,1.29-7.89c.18-2.86,1.77-4.28,4.16-5.18,1.16-.43,2.36-.75,3.54-1.12l0-.42c-1-.28-2-.51-3-.85C428.81,170.91,427,169.44,426.83,166.19ZM469.48,573.8a14.53,14.53,0,0,1-1.49-.29c-4.52-1.34-6.54-2.61-6.54-6.7,0-2.37-.76-4.74-1.18-7.11a3.42,3.42,0,0,0-.9,1.94c-.37,2.15-.82,4.29-1,6.46a5,5,0,0,1-3.64,4.47c-1.32.51-2.68.91-4.32,1.45a5.51,5.51,0,0,0,1.07.48c4.83.72,7.37,3.32,7.33,8.4a29,29,0,0,0,1,5.51,35,35,0,0,0,1.76-8.1,5,5,0,0,1,3.24-4.56c1.51-.62,3.09-1.07,4.64-1.6C469.47,574,469.48,573.92,469.48,573.8ZM185,437.07c-.06-1.41-.64-2.5-2.16-2.54s-2,.94-2.4,2.8c.83.62,1.6,1.59,2.51,1.76C184.09,439.3,185,438.49,185,437.07Zm403.2-2.55c-1.51,0-2.13,1.05-2.22,2.47s.76,2.28,2,2.1c.92-.14,1.72-1.09,2.57-1.67C590.14,435.57,589.62,434.53,588.15,434.52ZM181.72,425a3.5,3.5,0,0,0-.67,2.75c.4,1.56,1.79,1.44,3.21,1.07a2.47,2.47,0,0,0-.15-3.62C183.61,424.75,182,424.62,181.72,425Zm407.91-.15c-.88.06-2.13-.22-2.77.28-1.18.92-1.32,2.34-.21,3.71C589.66,429.26,590.48,428.3,589.63,424.85Zm-2.12-111.93a2.49,2.49,0,0,0,2.37.28,3.46,3.46,0,0,0,.77-2.72c-.36-1.57-1.75-1.5-3.19-1.16A2.44,2.44,0,0,0,587.51,312.92Zm-402.65.1c1.07-.92,1.23-2.26.2-3.7-1.33-.27-2.74-.53-3.19,1a3.53,3.53,0,0,0,.59,2.78C182.77,313.53,184.34,313.46,184.86,313ZM588.11,444.91a2.75,2.75,0,0,0-2.05,1.56c-.49,1.4.38,2.34,1.93,2.73,1.51-.31,2.49-1.14,2-2.6A2.77,2.77,0,0,0,588.11,444.91Zm-403.28,1.73a3,3,0,0,0-2.1-1.72c-.61-.05-1.69,1-1.9,1.7-.42,1.47.57,2.28,2,2.56C184.24,448.9,185.28,448.1,184.83,446.64ZM439.57,45.47a1.89,1.89,0,0,0,2.05-2.15c0-1.24-.61-2.15-2.77-2.1-.29.39-1.2,1.07-1.31,1.87A2,2,0,0,0,439.57,45.47Zm-106.74,0a1.94,1.94,0,0,0,2.08-2.31c-.09-.8-1-1.51-1.47-2.26-1.9.26-2.55,1.1-2.6,2.37A1.9,1.9,0,0,0,332.83,45.46Zm-.77,657.18a1.9,1.9,0,0,0-2,2.18c0,1.25.65,2.14,2.81,2,.28-.39,1.17-1.09,1.26-1.89A2,2,0,0,0,332.06,702.64Zm106.71,0a2,2,0,0,0-2,2.39c.11.79,1,1.47,1.31,1.86,2.15,0,2.74-.87,2.76-2.12A1.9,1.9,0,0,0,438.77,702.64Zm-176.46-657,1,0c.58-.78,1.61-1.57,1.61-2.35a2.9,2.9,0,0,0-1.79-2,1.68,1.68,0,0,0-2.18,1.82C261,44,261.81,44.85,262.31,45.68Zm10.1,0h.94c.54-.82,1.52-1.67,1.47-2.45s-1.13-1.72-1.92-1.9a1.67,1.67,0,0,0-2.06,1.95C271,44.16,271.86,44.91,272.41,45.71Zm9.86,0h.94c.56-.81,1.58-1.64,1.54-2.43s-1.13-1.75-1.92-1.93a1.68,1.68,0,0,0-2.05,2C280.89,44.19,281.74,44.92,282.27,45.7ZM185.62,221.51a2.91,2.91,0,0,0-2-1.83c-.78,0-1.58,1-2.38,1.56l0,1c.83.52,1.62,1.39,2.49,1.46A1.69,1.69,0,0,0,185.62,221.51ZM302.29,45.72l.89,0c.53-.78,1.41-1.52,1.51-2.35a1.8,1.8,0,0,0-2.09-2.06c-1.35.06-2.2.94-1.94,2.2C300.82,44.3,301.72,45,302.29,45.72Zm286.44,164a2.93,2.93,0,0,0-1.89,1.95,1.69,1.69,0,0,0,2,2.05c.86-.13,1.6-1.05,2.4-1.62,0-.32,0-.64,0-1C590.37,210.64,589.51,209.68,588.73,209.74Zm-.79,344.51a1.69,1.69,0,0,0-1.89,2.14,2.89,2.89,0,0,0,2,1.85c.78,0,1.59-1,2.39-1.53,0-.32,0-.64,0-1C589.58,555.22,588.8,554.33,587.94,554.25ZM222.74,45.72l.89,0c.54-.77,1.44-1.49,1.55-2.32a1.81,1.81,0,0,0-2.05-2.11c-1.35,0-2.22.91-2,2.17C221.29,44.27,222.18,45,222.74,45.72Zm227.67,0c.53-.77,1.39-1.48,1.52-2.31a1.68,1.68,0,0,0-2-2c-.79.17-1.91,1.2-2,1.91s1,1.63,1.5,2.45Zm9,0h.9c.54-.76,1.42-1.46,1.56-2.29.22-1.27-.65-2.12-2-2.15a1.81,1.81,0,0,0-2,2.13C458,44.23,458.86,44.94,459.41,45.7Zm126.64,461a2.88,2.88,0,0,0,2,1.87c.77,0,1.6-1,2.41-1.49,0-.33,0-.65,0-1-.81-.54-1.59-1.43-2.45-1.53A1.7,1.7,0,0,0,586.05,506.67Zm.8-334.88a1.7,1.7,0,0,0,1.83,2.19c.87-.07,1.68-.93,2.51-1.44l0-1c-.79-.57-1.58-1.6-2.36-1.59A2.93,2.93,0,0,0,586.85,171.79Zm0,129.32a1.69,1.69,0,0,0,1.95,2.07c.86-.11,1.62-1,2.42-1.58,0-.32,0-.64,0-1-.81-.53-1.66-1.5-2.44-1.45A2.94,2.94,0,0,0,586.84,301.11ZM185.63,261.49c-.12-.88-1-1.66-1.5-2.49h-.92c-.55.81-1.53,1.64-1.5,2.43a2.87,2.87,0,0,0,1.82,2A1.69,1.69,0,0,0,185.63,261.49Zm-2.07,41.68a1.69,1.69,0,0,0,2.07-2c-.13-.87-1-1.64-1.54-2.46h-.92c-.53.81-1.5,1.66-1.46,2.45A2.85,2.85,0,0,0,183.56,303.17ZM586.05,625.86a2.9,2.9,0,0,0,1.87,1.95c.78.08,1.65-.88,2.48-1.39l0-1c-.79-.57-1.53-1.5-2.39-1.63A1.69,1.69,0,0,0,586.05,625.86Zm-403.15-2c-.86.1-1.63,1-2.44,1.54v1c.81.55,1.64,1.54,2.42,1.49a2.87,2.87,0,0,0,1.94-1.88A1.69,1.69,0,0,0,182.9,623.82Zm2.73-441.91c-.14-.87-1-1.63-1.58-2.43l-.93,0c-.51.83-1.46,1.69-1.41,2.48a2.87,2.87,0,0,0,1.89,1.93A1.69,1.69,0,0,0,185.63,181.91Zm-2.71,332.58c-.86.1-1.64,1-2.45,1.52,0,.33,0,.65,0,1,.8.55,1.63,1.55,2.41,1.51a2.92,2.92,0,0,0,2-1.87A1.7,1.7,0,0,0,182.92,514.49Zm-1.67-322.2c.81.55,1.57,1.46,2.43,1.57a1.69,1.69,0,0,0,1.94-2.09,2.91,2.91,0,0,0-1.92-1.91c-.78-.05-1.62.93-2.44,1.47Zm1.67,381.84c-.86.09-1.64,1-2.45,1.52,0,.32,0,.64,0,1,.8.55,1.63,1.55,2.41,1.51a2.88,2.88,0,0,0,1.95-1.87A1.68,1.68,0,0,0,182.92,574.13Zm-.64-50.07c-.49.84-1.43,1.72-1.36,2.52a2.88,2.88,0,0,0,1.93,1.89,1.67,1.67,0,0,0,2-2c-.18-.88-1.07-1.62-1.64-2.42Zm406.51-330.2c.86-.12,1.62-1,2.42-1.57v-1c-.81-.53-1.66-1.51-2.44-1.46a2.93,2.93,0,0,0-1.92,1.91A1.7,1.7,0,0,0,588.79,193.86Zm-2.74,412.25a2.91,2.91,0,0,0,2,1.83c.78,0,1.58-1,2.37-1.56,0-.33,0-.65,0-1-.83-.51-1.63-1.38-2.49-1.46A1.7,1.7,0,0,0,586.05,606.11Zm2.8-336.74a2.92,2.92,0,0,0-2,1.82,1.7,1.7,0,0,0,1.85,2.18c.86-.07,1.66-.94,2.49-1.46l0-1C590.43,270.37,589.63,269.36,588.85,269.37Zm-407.6,2.41c.8.56,1.55,1.47,2.41,1.59a1.69,1.69,0,0,0,2-2.07,2.9,2.9,0,0,0-1.91-1.93c-.77-.06-1.63.92-2.45,1.45C181.26,271.14,181.25,271.46,181.25,271.78Zm1.12,331.77c-.53.82-1.49,1.67-1.45,2.46a2.87,2.87,0,0,0,1.85,2,1.68,1.68,0,0,0,2.07-2c-.14-.89-1-1.66-1.55-2.48ZM588,524.43a1.69,1.69,0,0,0-2,2.07,2.91,2.91,0,0,0,1.9,1.93c.78.06,1.63-.92,2.45-1.44l0-1C589.62,525.47,588.87,524.55,588,524.43ZM180.47,596.58c.83.52,1.69,1.49,2.47,1.42a2.91,2.91,0,0,0,1.89-2,1.69,1.69,0,0,0-2-2c-.86.13-1.6,1-2.4,1.62Zm405.58-10.44a2.89,2.89,0,0,0,1.92,1.91c.77.06,1.62-.92,2.44-1.44v-1c-.8-.55-1.56-1.46-2.42-1.58A1.69,1.69,0,0,0,586.05,586.14Zm3-336.67a1.66,1.66,0,0,0-2.19,1.79,3,3,0,0,0,1.67,2.16c.76.15,1.73-.72,2.61-1.15l.12-.94C590.52,250.68,589.88,249.7,589,249.47Zm-405.42,4a1.68,1.68,0,0,0,2-2,2.92,2.92,0,0,0-1.87-2c-.77-.08-1.65.88-2.48,1.39l0,1C182,252.43,182.76,253.36,183.62,253.49Zm-.8,314.73a1.67,1.67,0,0,0,2-2c-.17-.88-1.05-1.63-1.61-2.44l-.92,0c-.51.84-1.45,1.71-1.39,2.5A2.84,2.84,0,0,0,182.82,568.22ZM586.05,456.94a2.91,2.91,0,0,0,1.92,1.91c.77.06,1.62-.92,2.44-1.45,0-.32,0-.64,0-1-.81-.56-1.56-1.47-2.42-1.58A1.69,1.69,0,0,0,586.05,456.94ZM180.48,467.43c.84.5,1.72,1.45,2.5,1.36a2.87,2.87,0,0,0,1.84-2,1.68,1.68,0,0,0-2-2c-.86.14-1.58,1.08-2.36,1.67Zm405.57-.55a2.91,2.91,0,0,0,1.92,1.91c.78.06,1.62-.92,2.44-1.45v-1c-.81-.55-1.56-1.46-2.43-1.57A1.68,1.68,0,0,0,586.05,466.88ZM183,478.73a2.92,2.92,0,0,0,1.86-2,1.69,1.69,0,0,0-2-2c-.85.14-1.58,1.07-2.36,1.65l0,1C181.32,477.86,182.2,478.81,183,478.73Zm403.08-1.92a2.93,2.93,0,0,0,1.91,1.92c.78.06,1.63-.92,2.45-1.45v-1c-.8-.56-1.56-1.47-2.42-1.58A1.68,1.68,0,0,0,586.05,476.81Zm2.65-237.25a2.93,2.93,0,0,0-1.85,2,1.68,1.68,0,0,0,2,2c.86-.14,1.59-1.07,2.37-1.65l0-1C590.35,240.43,589.48,239.48,588.7,239.56Zm-403.08,1.85a2.91,2.91,0,0,0-2-1.85c-.78,0-1.59,1-2.39,1.53,0,.32,0,.64,0,1,.82.53,1.6,1.41,2.46,1.5A1.69,1.69,0,0,0,185.62,241.41ZM586.05,536.48a2.91,2.91,0,0,0,1.94,1.88c.78,0,1.61-.94,2.42-1.48v-1c-.81-.54-1.58-1.44-2.44-1.54A1.68,1.68,0,0,0,586.05,536.48Zm-403.19-51.8c-.86.12-1.61,1-2.41,1.59,0,.32,0,.64,0,1,.82.52,1.68,1.49,2.45,1.43a2.92,2.92,0,0,0,1.91-1.93A1.69,1.69,0,0,0,182.86,484.68Zm-.23,63.65c1.21.33,2.15-.46,2.26-1.81A1.84,1.84,0,0,0,183,544.3c-.83,0-1.63.82-2.44,1.27,0,.3-.08.6-.11.9C181.15,547.12,181.79,548.1,182.63,548.33Zm405.26-4a1.7,1.7,0,0,0-1.84,2.19,2.91,2.91,0,0,0,2,1.8c.78,0,1.57-1,2.36-1.58,0-.32,0-.65,0-1C589.56,545.24,588.76,544.37,587.89,544.31Zm.88-320.64c.86-.1,1.63-1,2.44-1.54v-1c-.81-.53-1.65-1.52-2.42-1.48a2.88,2.88,0,0,0-1.94,1.89A1.68,1.68,0,0,0,588.77,223.67ZM183.63,170c-.77,0-1.59,1-2.38,1.54l0,1c.82.53,1.61,1.41,2.47,1.49a1.69,1.69,0,0,0,1.88-2.15A2.89,2.89,0,0,0,183.63,170Zm405.06-6c.86-.07,1.67-.93,2.5-1.44l0-1c-.78-.57-1.58-1.6-2.35-1.58a2.91,2.91,0,0,0-2,1.8A1.7,1.7,0,0,0,588.69,164Zm-405.06-4c-.77,0-1.58,1-2.38,1.53,0,.33,0,.65,0,1,.82.53,1.61,1.41,2.47,1.49a1.7,1.7,0,0,0,1.88-2.15A2.89,2.89,0,0,0,183.63,160.05Zm1.21,475.84c-.12-.88-1-1.67-1.49-2.51l-.92,0c-.55.81-1.53,1.63-1.51,2.43a2.85,2.85,0,0,0,1.8,2A1.67,1.67,0,0,0,184.84,635.89ZM588,637.75c.78,0,1.59-1,2.38-1.54,0-.33,0-.65,0-1-.82-.52-1.61-1.4-2.48-1.48a1.69,1.69,0,0,0-1.87,2.15A2.91,2.91,0,0,0,588,637.75Zm3.15-496.21c-.84-.5-1.72-1.45-2.49-1.37a3,3,0,0,0-1.86,2,1.69,1.69,0,0,0,2,2c.86-.14,1.58-1.08,2.36-1.66Zm-405.57.55a2.89,2.89,0,0,0-1.91-1.92c-.77-.06-1.63.92-2.45,1.44,0,.32,0,.64,0,1,.8.56,1.55,1.47,2.41,1.59A1.68,1.68,0,0,0,185.62,142.09ZM183,498.61a2.89,2.89,0,0,0,1.88-2,1.69,1.69,0,0,0-2-2c-.86.14-1.6,1.06-2.39,1.64,0,.32,0,.64,0,1C181.3,497.72,182.17,498.68,183,498.61Zm-.07,145.09c-.86.11-1.62,1-2.42,1.57v1c.82.54,1.67,1.52,2.45,1.47a2.92,2.92,0,0,0,1.92-1.92A1.69,1.69,0,0,0,182.88,643.7Zm404-511.62a1.68,1.68,0,0,0,1.88,2.14c.86-.08,1.65-1,2.47-1.49,0-.32,0-.65,0-1-.79-.55-1.61-1.56-2.39-1.53A2.9,2.9,0,0,0,586.85,132.08ZM182.4,653.24c-.54.81-1.52,1.65-1.48,2.44a2.83,2.83,0,0,0,1.82,2,1.67,1.67,0,0,0,2.1-1.92c-.13-.89-1-1.67-1.51-2.5Zm403.65,12.41a2.87,2.87,0,0,0,1.91,1.91c.78.06,1.63-.92,2.45-1.44,0-.32,0-.64,0-1-.8-.55-1.56-1.46-2.42-1.58A1.69,1.69,0,0,0,586.05,665.65Zm2.72-551.3c.86-.11,1.63-1,2.44-1.55v-1c-.81-.54-1.65-1.53-2.43-1.49a2.89,2.89,0,0,0-1.93,1.89A1.69,1.69,0,0,0,588.77,114.35Zm-403.14-2c-.14-.87-1-1.63-1.58-2.43l-.93,0c-.51.82-1.46,1.69-1.4,2.47a2.85,2.85,0,0,0,1.88,1.94A1.69,1.69,0,0,0,185.63,112.34ZM586.05,615.93a2.9,2.9,0,0,0,1.88,1.94c.78.07,1.64-.89,2.47-1.41,0-.32,0-.64,0-1-.79-.57-1.53-1.49-2.39-1.62A1.68,1.68,0,0,0,586.05,615.93ZM183.73,100.41c-.77-.06-1.64.91-2.46,1.42l0,1c.8.57,1.54,1.49,2.4,1.62a1.69,1.69,0,0,0,2-2A2.91,2.91,0,0,0,183.73,100.41Zm405-5.94c.87-.1,1.64-1,2.45-1.54V92c-.81-.55-1.64-1.54-2.42-1.5a2.88,2.88,0,0,0-1.94,1.89A1.68,1.68,0,0,0,588.76,94.47Zm-403.14-2a2.88,2.88,0,0,0-1.86-2c-.77-.08-1.65.87-2.48,1.37,0,.33,0,.65,0,1,.78.58,1.51,1.51,2.37,1.65A1.69,1.69,0,0,0,185.62,92.45Zm403.2,196.81a2.86,2.86,0,0,0-2,1.85,1.68,1.68,0,0,0,1.88,2.13c.86-.08,1.65-1,2.47-1.49,0-.32,0-.65,0-1C590.41,290.23,589.6,289.23,588.82,289.26ZM588.7,80.54a2.93,2.93,0,0,0-1.85,2,1.68,1.68,0,0,0,2,2c.86-.14,1.59-1.07,2.37-1.65l0-1C590.35,81.41,589.48,80.46,588.7,80.54ZM185.62,82.48a2.89,2.89,0,0,0-1.89-1.94c-.77-.07-1.63.89-2.46,1.41l0,1c.79.57,1.53,1.49,2.39,1.62A1.69,1.69,0,0,0,185.62,82.48ZM538.88,45.7l.89,0c.56-.75,1.46-1.44,1.61-2.26.24-1.27-.62-2.13-2-2.19a1.8,1.8,0,0,0-2.06,2.09C537.46,44.19,538.34,44.92,538.88,45.7Zm-28.88,0c.54-.76,1.42-1.46,1.57-2.29a1.69,1.69,0,0,0-2-2.07c-.8.16-1.94,1.17-2,1.87s.93,1.65,1.46,2.48Zm-9.83,0c.51-.82,1.37-1.61,1.45-2.48a1.68,1.68,0,0,0-2.14-1.86,2.86,2.86,0,0,0-1.83,2c0,.78,1,1.59,1.56,2.38Zm-10,0c.52-.81,1.4-1.59,1.5-2.45a1.68,1.68,0,0,0-2.12-1.9,2.9,2.9,0,0,0-1.87,1.95c0,.78,1,1.6,1.53,2.41Zm-10,0c.56-.76,1.45-1.45,1.6-2.27a1.69,1.69,0,0,0-2-2.1,2.89,2.89,0,0,0-2,1.85c-.07.78.91,1.66,1.43,2.5ZM183,554.25c-.86.08-1.65,1-2.47,1.48l0,1c.8.55,1.61,1.56,2.39,1.54a2.88,2.88,0,0,0,2-1.84A1.69,1.69,0,0,0,183,554.25ZM255,43.39a2.85,2.85,0,0,0-1.86-2c-.8-.08-1.69.88-2.53,1.39l0,.92c.75.55,1.44,1.41,2.27,1.6A1.7,1.7,0,0,0,255,43.39Zm-32.1,659-.9,0c-.57.75-1.46,1.43-1.63,2.25-.25,1.27.61,2.13,2,2.2a1.79,1.79,0,0,0,2.07-2.07C224.28,703.93,223.41,703.19,222.88,702.41Zm7.36,2.34c0,1.32.83,2.25,2.13,2,.84-.14,1.56-1,2.33-1.53l0-.86c-.77-.55-1.47-1.4-2.31-1.58C231.09,702.52,230.25,703.43,230.24,704.75Zm31.42-2.35c-.54.8-1.44,1.56-1.55,2.42a1.67,1.67,0,0,0,2.07,1.94,2.89,2.89,0,0,0,1.9-1.92c.05-.78-.93-1.62-1.47-2.44Zm9.94,0c-.55.8-1.43,1.56-1.55,2.42a1.67,1.67,0,0,0,2.07,1.94c.79-.19,1.87-1.22,1.9-1.92s-.94-1.62-1.47-2.44Zm18.34,2.23a1.67,1.67,0,0,0,1.86,2.13c.88-.09,1.68-.93,2.52-1.43l0-.91c-.8-.57-1.6-1.57-2.39-1.57A2.87,2.87,0,0,0,289.94,704.63Zm12.51-2.2-.9,0c-.59.73-1.5,1.38-1.68,2.2-.29,1.27.55,2.15,1.89,2.25a1.8,1.8,0,0,0,2.13-2C303.81,704,303,703.22,302.45,702.43Zm7.3,2.26c-.05,1.32.76,2.27,2.07,2.08.84-.12,1.59-.94,2.38-1.45l0-.87c-.75-.57-1.42-1.44-2.26-1.65C310.67,702.48,309.8,703.37,309.75,704.69ZM449,702.86a1.93,1.93,0,0,0,.11,3.85c.8,0,1.63-1,2.45-1.53l0-1C450.66,703.72,449.76,702.78,449,702.86Zm10.49-.47-1,0c-.52.83-1.48,1.69-1.42,2.47s1.15,1.7,1.94,1.88a1.67,1.67,0,0,0,2-2C460.94,703.92,460,703.18,459.47,702.39Zm29.88,0h-.94c-.54.82-1.54,1.67-1.49,2.46s1.17,1.73,2,1.89a1.69,1.69,0,0,0,2-2C490.76,703.87,489.89,703.16,489.35,702.4Zm9.87,0-.89,0c-.54.77-1.43,1.5-1.53,2.33a1.8,1.8,0,0,0,2.06,2.09c1.35-.05,2.21-.92,2-2.18C500.67,703.82,499.78,703.13,499.22,702.39Zm10,0h-1c-.54.81-1.53,1.64-1.5,2.42a2.93,2.93,0,0,0,1.88,1.94,1.69,1.69,0,0,0,2.1-1.92C510.66,704,509.78,703.21,509.25,702.4Zm19.26.46a2.84,2.84,0,0,0-1.88,1.93,1.67,1.67,0,0,0,2,2c.87-.18,1.6-1.06,2.4-1.63l0-.93C530.18,703.72,529.29,702.78,528.51,702.86Zm10.49-.47-1,0c-.52.82-1.49,1.67-1.44,2.46a2.9,2.9,0,0,0,1.92,1.89,1.67,1.67,0,0,0,2.05-2C540.46,703.93,539.56,703.19,539,702.39ZM185.62,132.15a2.89,2.89,0,0,0-1.91-1.91c-.77-.06-1.63.91-2.45,1.43v1c.8.56,1.55,1.48,2.41,1.6A1.69,1.69,0,0,0,185.62,132.15ZM589,120.26a1.78,1.78,0,0,0-2.26,1.81,1.84,1.84,0,0,0,1.91,2.22c.83,0,1.63-.82,2.44-1.27l.12-.89C590.52,121.48,589.88,120.49,589,120.26Zm-405.33,0c-.77-.05-1.63.92-2.45,1.44,0,.32,0,.64,0,1,.8.56,1.55,1.48,2.41,1.6a1.69,1.69,0,0,0,2-2.08A2.93,2.93,0,0,0,183.71,120.29Zm1.11,545.44a1.68,1.68,0,0,0-1.87-2.15c-.86.08-1.65.95-2.48,1.48,0,.32,0,.64,0,1,.8.56,1.61,1.57,2.39,1.55A2.9,2.9,0,0,0,184.82,665.73Zm403.9-432.12c.86-.07,1.65-1,2.48-1.47,0-.33,0-.65,0-1-.79-.56-1.6-1.57-2.38-1.55a2.9,2.9,0,0,0-2,1.83A1.69,1.69,0,0,0,588.72,233.61Zm-.81,251.07a1.69,1.69,0,0,0-1.86,2.16,2.89,2.89,0,0,0,2,1.83c.78,0,1.58-1,2.38-1.56l0-1C589.57,485.62,588.78,484.75,587.91,484.68ZM185.62,231.46a2.91,2.91,0,0,0-2-1.84c-.77,0-1.59,1-2.38,1.54l0,1c.82.53,1.61,1.41,2.47,1.49A1.7,1.7,0,0,0,185.62,231.46ZM587.94,498.61c.77.06,1.63-.9,2.46-1.42,0-.32,0-.64,0-1-.79-.57-1.53-1.49-2.39-1.61a1.68,1.68,0,0,0-2,2A2.93,2.93,0,0,0,587.94,498.61Zm-405.06,5.94c-.86.12-1.62,1-2.42,1.58v1c.82.53,1.67,1.51,2.45,1.46a2.93,2.93,0,0,0,1.92-1.91A1.7,1.7,0,0,0,182.88,504.55Zm407.51,11.38c-.83-.51-1.63-1.37-2.5-1.44a1.71,1.71,0,0,0-1.84,2.19,2.89,2.89,0,0,0,2,1.8c.78,0,1.57-1,2.36-1.57C590.42,516.58,590.4,516.26,590.39,515.93ZM182.63,538.39c1.21.33,2.15-.46,2.26-1.81a1.84,1.84,0,0,0-1.91-2.22c-.83,0-1.63.83-2.44,1.28l-.11.89C181.15,537.18,181.79,538.17,182.63,538.39Zm.43-329.06c-.49.84-1.42,1.72-1.34,2.51a2.83,2.83,0,0,0,1.93,1.88,1.68,1.68,0,0,0,2-2c-.16-.87-1.07-1.6-1.64-2.39ZM588,568.18c.77.06,1.62-.93,2.43-1.46v-1c-.81-.55-1.57-1.45-2.43-1.56a1.69,1.69,0,0,0-1.94,2.09A2.9,2.9,0,0,0,588,568.18Zm0,9.94c.78,0,1.63-.93,2.45-1.45v-1c-.8-.55-1.56-1.46-2.42-1.57a1.68,1.68,0,0,0-2,2.07A2.93,2.93,0,0,0,588,578.12ZM549.72,45.72c.56-.75,1.45-1.45,1.6-2.27a1.69,1.69,0,0,0-2-2.1,2.91,2.91,0,0,0-2,1.85c-.07.79.91,1.66,1.43,2.5ZM184.84,586.19c-.13-.89-1-1.67-1.5-2.51l-.92,0c-.55.82-1.53,1.64-1.51,2.43a2.87,2.87,0,0,0,1.82,2A1.67,1.67,0,0,0,184.84,586.19ZM529.93,45.7c.53-.77,1.39-1.49,1.52-2.32a1.69,1.69,0,0,0-2-2,2.9,2.9,0,0,0-1.94,1.91c0,.79,1,1.63,1.51,2.45Zm-10,0c.55-.8,1.44-1.55,1.56-2.41a1.68,1.68,0,0,0-2.06-1.95,2.89,2.89,0,0,0-1.92,1.9c0,.78.93,1.63,1.46,2.45ZM586.05,596a2.92,2.92,0,0,0,1.86,2c.77.07,1.65-.88,2.48-1.38l0-1c-.79-.58-1.52-1.51-2.37-1.65A1.69,1.69,0,0,0,586.05,596ZM180.48,616.47c.82.51,1.69,1.47,2.46,1.4a2.93,2.93,0,0,0,1.89-2,1.69,1.69,0,0,0-2-2c-.86.13-1.6,1.06-2.39,1.63Zm410.71-415.3c-.84-.5-1.72-1.45-2.5-1.37a2.92,2.92,0,0,0-1.85,2,1.69,1.69,0,0,0,2,2c.85-.15,1.57-1.09,2.36-1.67Zm-409.93,1.11c.82.53,1.6,1.42,2.46,1.52a1.69,1.69,0,0,0,1.9-2.13,2.92,2.92,0,0,0-2-1.87c-.78,0-1.6,1-2.41,1.51C181.26,201.63,181.26,202,181.26,202.28Zm407.53-18.36c.86-.11,1.62-1,2.42-1.58,0-.32,0-.64,0-1-.81-.53-1.66-1.51-2.44-1.45a2.88,2.88,0,0,0-1.92,1.91A1.69,1.69,0,0,0,588.79,183.92ZM232.64,45.71h.9c.55-.77,1.45-1.48,1.58-2.3a1.81,1.81,0,0,0-2-2.14c-1.35,0-2.23.87-2,2.15C231.22,44.25,232.1,45,232.64,45.71Zm9.88,0h1C244,44.9,245,44.08,245,43.3a2.87,2.87,0,0,0-1.86-1.95,1.67,1.67,0,0,0-2.11,1.9C241.12,44.11,242,44.88,242.52,45.7Zm49.71,0h.95c.55-.82,1.56-1.66,1.51-2.45s-1.15-1.74-1.94-1.91a1.69,1.69,0,0,0-2,2C290.84,44.21,291.7,44.93,292.23,45.7ZM241.8,702.39c-.55.76-1.43,1.46-1.58,2.29a1.7,1.7,0,0,0,2,2.07,2.89,2.89,0,0,0,2-1.87c.06-.78-.93-1.65-1.46-2.48Zm346.89-602a2.87,2.87,0,0,0-1.84,2,1.68,1.68,0,0,0,2,2c.85-.15,1.57-1.09,2.36-1.67,0-.32,0-.64,0-1C590.35,101.28,589.46,100.33,588.69,100.42Zm0,49.69a2.93,2.93,0,0,0-1.89,1.94,1.69,1.69,0,0,0,2,2c.86-.12,1.61-1,2.4-1.61,0-.32,0-.64,0-1C590.37,151,589.51,150,588.73,150.11Zm-405.5-.45c-.55.8-1.54,1.62-1.52,2.41a2.86,2.86,0,0,0,1.8,2,1.69,1.69,0,0,0,2.12-1.91c-.11-.88-1-1.67-1.48-2.5Zm98.19,552.76c-.51.83-1.36,1.63-1.43,2.49a1.67,1.67,0,0,0,2.16,1.84,2.84,2.84,0,0,0,1.81-2c0-.79-1-1.58-1.58-2.37ZM313.14,45.69c.53-.79,1.39-1.53,1.49-2.36a1.68,1.68,0,0,0-2.08-2,2.94,2.94,0,0,0-1.9,2c0,.77,1,1.6,1.56,2.4Zm9,0,.9,0c.52-.79,1.39-1.53,1.48-2.36a1.79,1.79,0,0,0-2.09-2c-1.34.07-2.2.94-1.93,2.21C320.71,44.31,321.61,45,322.18,45.72Zm147,0,.93.06c.59-.79,1.63-1.59,1.61-2.37a2.93,2.93,0,0,0-1.85-2,1.68,1.68,0,0,0-2.12,1.93C467.85,44.12,468.7,44.88,469.21,45.67ZM322.39,702.44l-.93-.07c-.6.78-1.66,1.56-1.67,2.34a2.93,2.93,0,0,0,1.82,2,1.68,1.68,0,0,0,2.16-1.89C323.7,704,322.88,703.25,322.39,702.44ZM183.74,293.25a1.7,1.7,0,0,0,1.88-2.16,2.92,2.92,0,0,0-2-1.83c-.77,0-1.59,1-2.38,1.53,0,.32,0,.65,0,1C182.09,292.28,182.88,293.16,183.74,293.25Zm405-9.94c.86-.1,1.64-1,2.45-1.52,0-.32,0-.64,0-1-.8-.54-1.62-1.54-2.4-1.51a2.88,2.88,0,0,0-2,1.87A1.69,1.69,0,0,0,588.75,283.31ZM469.49,702.4h-.95c-.54.82-1.55,1.67-1.5,2.45a2.88,2.88,0,0,0,1.95,1.9,1.69,1.69,0,0,0,2-2C470.89,703.88,470,703.17,469.49,702.4Zm9.85,0-.95,0c-.51.83-1.48,1.7-1.41,2.48a2.87,2.87,0,0,0,1.94,1.87,1.68,1.68,0,0,0,2-2C480.81,703.91,479.9,703.18,479.34,702.39ZM185.62,281.22a2.91,2.91,0,0,0-1.92-1.91c-.78-.05-1.63.93-2.44,1.46,0,.32,0,.65,0,1,.81.55,1.57,1.46,2.43,1.57A1.69,1.69,0,0,0,185.62,281.22ZM586.05,645.73a2.9,2.9,0,0,0,1.87,2c.78.08,1.65-.89,2.48-1.4l0-1c-.79-.58-1.53-1.5-2.39-1.63A1.68,1.68,0,0,0,586.05,645.73Zm2.7-382.3c.86-.09,1.64-1,2.45-1.53,0-.32,0-.64,0-1-.8-.54-1.63-1.54-2.41-1.5a2.86,2.86,0,0,0-1.95,1.87A1.69,1.69,0,0,0,588.75,263.43ZM516.69,704.66a1.67,1.67,0,0,0,1.89,2.11c.89-.12,1.67-1,2.5-1.48l0-.92c-.8-.55-1.62-1.54-2.4-1.51A2.83,2.83,0,0,0,516.69,704.66ZM183.23,454.46l-.92,0c-.5.84-1.45,1.71-1.39,2.5a2.84,2.84,0,0,0,1.9,1.91,1.67,1.67,0,0,0,2-2C184.67,456,183.79,455.26,183.23,454.46ZM588,657.63c.78,0,1.62-.93,2.44-1.46,0-.33,0-.65,0-1-.81-.55-1.57-1.45-2.43-1.56a1.68,1.68,0,0,0-1.94,2.08A2.91,2.91,0,0,0,588,657.63ZM549,702.4H548c-.54.82-1.54,1.68-1.49,2.47s1.17,1.72,2,1.88a1.69,1.69,0,0,0,2-2C550.39,703.87,549.52,703.16,549,702.4Zm-297,.4c-1.24-.17-1.93.84-1.88,2s.92,2.21,2.21,1.93c.84-.18,1.52-1.07,2.27-1.64l0-.9A8.24,8.24,0,0,0,252,702.8ZM403.72,302.56c-.26-1.34-.51-2.6-.75-3.86h-1a13.23,13.23,0,0,0-.7,7c3.06.82,8-2.08,7.46-4.75ZM398,310.8c-.06-1.38-.13-2.75-.2-4.12l-.68-.11c-.29.23-.78.42-.83.69a51.06,51.06,0,0,0-.93,6.24c-.06,1.16,1,1.54,2,1.1a35,35,0,0,0,4.41-2.22c.5-.3.73-1.05,1.09-1.6l-.36-.71Zm11,161c2.49-2.38,5-4.7,7.46-7.14a7.84,7.84,0,0,0,1-2.42L402.85,460c.67-2.26,1.72-4.41,1.89-6.62.3-4,.08-8,.08-12.12-5.44,2.27-12.11,2.16-16.52,7.56-1.85-3.75-3.56-7.3-5.38-10.8-.35-.66-1.13-1.1-1.93-1.85-2.37,4.72-4.49,8.95-6.79,13.51-4.35-6.26-11.41-6.05-17.73-8.66,1.64,6.52-1.54,13.15,3.11,18.86l-14.82,2.23,11.17,11.57c-3.56.55-5.88,2.53-8,4.75s-4.25,4.83-6.35,7.26c-.06.07,0,.25,0,.61,6.18,2,11.67,7,19.22,4.37-.87,5.13-1.71,10-2.62,15.35l13.58-7a47.86,47.86,0,0,0,2.13,6.14,43.53,43.53,0,0,0,3.37,4.86c1.2,1.76,2.35,3.56,3.66,5.55,3.42-5.48,9.12-9.4,9.22-16.8l14.14,7.36-2.58-15.41a75.13,75.13,0,0,0,7.52-.06c1.74-.18,3.41-1,5.14-1.42s3.67-.68,5.78-1.06c-3.93-5.37-5.46-12.35-12.61-14.91C408.13,472.71,408.55,472.21,409,471.77ZM402.26,445a75.22,75.22,0,0,1,.36,8.16c-.33,5.35-2.56,6.89-7.75,5.74-.51-.11-1-.31-1.84-.57a36.84,36.84,0,0,0,2.82-2.54,30.73,30.73,0,0,0,3.62-4.38c.38-.61-.1-1.76-.18-2.66-1,.19-2.28.06-2.78.64a42,42,0,0,0-3.38,5.09c-.32.5-.57,1-1.08,1.94L389.3,451C392.52,446.5,397.23,445.7,402.26,445Zm-42.5.08c4.33.42,8.46,1.27,11.72,4.47,1.31,1.29,1.77,2.73.66,4.45-.59.93-1,2-1.68,3.33-1.33-2.23-2.43-4.21-3.66-6.11a7.89,7.89,0,0,0-2.07-2.33,2.27,2.27,0,0,0-2.12,0,2.1,2.1,0,0,0-.42,2,22.34,22.34,0,0,0,3,4.13,46.6,46.6,0,0,0,4.08,3.52l-6.48.93C358.39,457,359,451.73,359.76,445.08Zm1.65,42.63c-3.26,3.09-10.08,1.31-15.26-2.72,3.27-3.92,5.22-9.43,11.27-9.12l5.39,5.11a45.33,45.33,0,0,0-4.56,0,33.44,33.44,0,0,0-6,1c-.67.19-1,1.41-1.55,2.16.79.47,1.66,1.41,2.36,1.3a42.53,42.53,0,0,0,5.9-1.59c.93-.29,1.83-.67,3.25-1.19C361.89,484.7,361.64,486.31,361.41,487.71Zm19.76,22.84c-3.94-4.11-8.2-8.75-6.05-13.2l5.82-3.15a43.38,43.38,0,0,0-1.16,4.78,24.54,24.54,0,0,0-.16,5.28c.06.62,1.1,1.7,1.53,1.63a2.93,2.93,0,0,0,1.89-1.6,7.92,7.92,0,0,0,.2-3.12c-.13-2-.37-4.05-.6-6.46l4.93,2.67C389.26,500.87,386,506.71,381.17,510.55Zm26.58-34.9a37.44,37.44,0,0,1,5.59,5.45c1.1,1.39,1.56,3.29,2.48,5.36a87.74,87.74,0,0,1-9.41,2.19c-3.83.46-4.89-.54-5.66-4.22-.25-1.2-.45-2.41-.67-3.62l.44-.34a34.34,34.34,0,0,0,3,2.1,33.58,33.58,0,0,0,5.28,2.6c.68.24,1.7-.49,2.56-.78-.4-.89-.56-2.22-1.23-2.57a41.52,41.52,0,0,0-5.76-2.08c-.73-.24-1.49-.42-2.23-.62l-.39-.62a26.43,26.43,0,0,1,3.48-2.83A2.76,2.76,0,0,1,407.75,475.65Zm-11.08,4.1c1.12,6.69,2.25,13.42,3.46,20.67l-18.77-9.9-18.89,9.79c1.27-7.3,2.45-14.11,3.66-21.08l-14.59-14.85L372,461.46l9.55-19.11c2.05,4.2,3.89,8.07,5.83,11.89,1.24,2.46,2.07,5.64,4.1,7.06s5.31,1.06,8.05,1.49l11.93,1.84ZM342.92,434a93.65,93.65,0,0,0,9.4-2.12c.08,0,.13-.21.28-.48-3.73-5.11-5.31-12-12.4-14.63.67-.72,1.13-1.27,1.65-1.76,2.4-2.28,4.85-4.51,7.19-6.84a8.64,8.64,0,0,0,1.12-2.46l-14.58-2.24c.67-2.46,1.67-4.76,1.86-7.12.31-3.77.09-7.58.09-11.63-5.61,2.26-12.2,2.25-16.66,7.59-1.84-3.77-3.51-7.29-5.29-10.74-.34-.68-1.13-1.12-2-1.9l-6.82,13.59c-4.32-6.34-11.42-6.13-17.71-8.75,1.67,6.53-1.53,13.18,3.13,18.92-3.66.49-6.85.88-10,1.36-1.57.24-3.13.63-5,1l10.73,11.11c-1.73,1-3.78,1.71-5.18,3.08-3,3-5.73,6.28-8.78,9.69,6.42,2.08,11.91,7.08,19.55,4.52-.89,5.21-1.71,10.06-2.6,15.27l13.43-6.91c.9,2.4,1.44,4.83,2.66,6.87,1.94,3.24,4.34,6.21,6.54,9.28,3.81-3.31,8.05-10.52,9.48-16.32L337,449.66c-.89-5.46-1.73-10.56-2.55-15.57A66.8,66.8,0,0,0,342.92,434Zm-8.2-45.52c.27,4,1.32,8-.43,11.89-1,2.22-2.15,2.72-4.61,2.26-1.27-.24-2.56-.42-4.32-.7a41.55,41.55,0,0,0,3.57-3.05,24.66,24.66,0,0,0,3.26-4.17,2.44,2.44,0,0,0-.37-2.36,2.47,2.47,0,0,0-2.42.3,46.59,46.59,0,0,0-3.49,5c-.42.65-.74,1.37-1.27,2.35-1-2-1.84-3.65-2.76-5.48C324.93,390,329.66,389.25,334.72,388.49Zm-42.85,7.3a70.58,70.58,0,0,1,.42-7.25c4.31.46,8.32,1.27,11.54,4.26,1.8,1.67,1.91,2.62.79,4.87-.47.94-.95,1.88-1.6,3.16-1.3-2.2-2.4-4.19-3.62-6.11a8,8,0,0,0-2.08-2.33,2.27,2.27,0,0,0-2.12,0,2.11,2.11,0,0,0-.39,2.05,45.57,45.57,0,0,0,3.88,4.92,32,32,0,0,0,3.17,2.7,38.22,38.22,0,0,1-6.38.7,3.68,3.68,0,0,1-2.41-2A13.88,13.88,0,0,1,291.87,395.79ZM294.09,431c-3.16,3.46-10.74,1.31-15.31-2.61,3.29-3.91,5.25-9.49,11-9.06l5.54,5c-1.2.07-2,.09-2.83.18a68,68,0,0,0-7.42.89c-.73.15-1.23,1.43-1.83,2.19.91.48,1.88,1.46,2.72,1.36a33.34,33.34,0,0,0,5.51-1.56c.93-.29,1.84-.65,3.28-1.17C294.5,428.2,294.27,429.76,294.09,431Zm26.47,12.38a30.17,30.17,0,0,1-2.78,6.5c-1,1.59-2.55,2.82-4,4.41-2.94-4.12-7.66-7.13-6.33-13.29l6-3.25c-.34,1.56-.68,2.65-.81,3.77a40.06,40.06,0,0,0-.4,6.08c0,.64,1.07,1.25,1.65,1.87.63-.59,1.75-1.13,1.81-1.77a49.43,49.43,0,0,0-.09-6.32c0-.91-.19-1.82-.34-3.15a29.2,29.2,0,0,1,4.55,2.52A3,3,0,0,1,320.56,443.42Zm-6.6-9.37-18.8,9.7c.58-3.52,1.06-6.54,1.58-9.56.58-3.31,1.28-6.6,1.72-9.93a3.52,3.52,0,0,0-.95-2.55c-3.63-3.67-7.35-7.24-11.1-10.8a25.17,25.17,0,0,0-2.87-2.1c.18-.31.35-.62.52-.93L304.53,405l9.61-19.1c2.36,4.88,4.49,9.28,6.61,13.69,2.75,5.7,2.75,5.63,9,6.42,4.76.6,9.5,1.38,14.28,2.09L329.27,423c1.15,6.94,2.27,13.67,3.48,21Zm19.51-5.8c-.25-1.34-.5-2.68-.8-4.32,3.89,1.61,6.5,6.14,11.38,4.32.05-2.59-1.38-3.23-2.84-3.72-2.11-.71-4.27-1.31-6.4-2l-.45-.64a28.53,28.53,0,0,1,3.55-2.8,2.58,2.58,0,0,1,2.36,0A41.67,41.67,0,0,1,346,424.7c1.08,1.33,1.5,3.19,2.45,5.35a101.07,101.07,0,0,1-10.5,2.16C335.08,432.52,334,431.25,333.47,428.25Zm76.14,4.19c6.32,2.07,11.81,7.1,19.48,4.5-.87,5.12-1.71,10-2.61,15.26L440,445.25a47.5,47.5,0,0,0,2,5.94,38.5,38.5,0,0,0,3.21,4.72c1.29,1.87,2.56,3.75,4,5.84,3.49-5.36,8.93-9.42,9.23-16.72l14.12,7.34q-1.37-8.33-2.51-15.25a51.52,51.52,0,0,0,6.24-.06,57.89,57.89,0,0,0,5.75-1.38c2-.45,4.06-.82,6.37-1.27-4-5.3-5.48-12.26-12.58-14.88.59-.66,1-1.16,1.45-1.61,2.49-2.38,5-4.7,7.45-7.15.5-.49.56-1.41.91-2.37l-14.82-2.25c.58-1.31,1.48-2.53,1.6-3.83.47-4.87.69-9.76,1-14.86-3.24.94-6.3,1.56-9.15,2.71a87.85,87.85,0,0,0-8.15,4.24c-1.52-3.12-3.16-6.59-4.91-10a10.27,10.27,0,0,0-2-2c-2.43,4.84-4.58,9.12-6.83,13.62-4.28-6.31-11.37-6.16-17.7-8.73,1.64,6.47-1.54,13.12,3,18.76-5,1.13-9.94,1-14.71,2.55l10.51,11c-2,1.23-4.17,2.15-5.75,3.7C414.9,426,412.43,429.19,409.61,432.44Zm39.6,24.46c-2.87-4-7.56-7-6.23-13.12l5.77-3.11c.13,4.05-3.26,8.17.49,11.78,2.21-.88,2.39-2.39,2.29-3.95-.15-2.36-.4-4.71-.65-7.48l4.78,2.54C457.55,446.63,454.24,452.92,449.21,456.9Zm26.65-35a34.31,34.31,0,0,1,5.54,5.22c1.16,1.45,1.68,3.4,2.58,5.35-3.63,1.06-6.9,2.88-10.73,2.55-2.81-.24-3.69-1.07-4.18-3.93-.22-1.29-.47-2.57-.69-3.86,0-.1.09-.22.22-.49,3.24,1.73,5.74,5.07,9.89,4.77.42,0,.81-.58,1.12-.82.17-2.15-1.19-2.86-2.67-3.36A54.15,54.15,0,0,1,470,424.7a25.22,25.22,0,0,1,3.34-2.71A2.77,2.77,0,0,1,475.86,421.88Zm-5.07-30.44c0,2.74.22,5.52-.05,8.25-.53,5.3-2.58,6.6-7.86,5.34-.44-.11-.87-.28-1.69-.55,1.12-1,2.15-1.69,3-2.59a23.79,23.79,0,0,0,3.38-4.08c.41-.68,0-1.87-.1-2.82-1,.24-2.36.16-2.93.8a32.32,32.32,0,0,0-3.16,4.77c-.38.6-.69,1.24-1.21,2.16l-2.62-5.24C459.11,393.67,465.62,391.39,470.79,391.44Zm-43.34,7a71.25,71.25,0,0,1,.44-7.18c3.76.51,7.31,1.08,10.36,3.32s3.24,3.28,1.66,6.47c-.37.74-.79,1.46-1.35,2.5-1.32-2.25-2.44-4.25-3.65-6.19a6,6,0,0,0-1.79-2.06,2.61,2.61,0,0,0-2.29-.17,2.28,2.28,0,0,0-.38,2.2,30.8,30.8,0,0,0,3.48,4.49,39.68,39.68,0,0,0,3.48,3,39.48,39.48,0,0,1-6.44.65,3.65,3.65,0,0,1-2.38-2.06A13.91,13.91,0,0,1,427.45,398.41ZM419,410.67l21.09-3,9.59-19.07c2.07,4.26,3.94,8.1,5.8,11.95.32.65.62,1.31.94,2,2.63,5.47,2.64,5.41,8.74,6.17,4.81.6,9.61,1.37,14.52,2.08l-14.84,15c1.15,6.94,2.26,13.61,3.47,20.86l-18.8-9.87-18.83,9.71c1.25-7.25,2.42-14,3.61-21Zm6.7,11.47,5,4.78c-4.08,1.09-9-1.23-12.11,2.92.89,2.18,2.37,2.16,3.82,1.77,1.84-.5,3.63-1.21,5.44-1.82.72-.25,1.46-.45,2.57-.79-.33,2-.6,3.54-.84,4.91-3.31,3.33-10.74,1.1-15.27-2.76C417.67,427.29,419.57,421.67,425.73,422.14ZM374.87,87.47v28.2a5.9,5.9,0,0,0-1.8.38c-.56.35-1.33.9-1.34,1.39s.78,1,1.31,1.4a2.39,2.39,0,0,0,1.16.17c5.16.14,10.31.32,15.47.4a70.92,70.92,0,0,0,8.12-.28c.69-.07,1.29-1.17,1.93-1.8a21.2,21.2,0,0,0-1.8-1.75,3.67,3.67,0,0,0-1.26-.35c-.23-9.28-.45-18.45-.69-28.07a10.53,10.53,0,0,0,3.08-.07c.78-.25,1.35-1.15,2-1.75A15.84,15.84,0,0,0,399,83.4c-.36-.25-1-.07-1.56-.06-7,.13-13.9.24-20.85.4a15,15,0,0,0-3.53.43,7,7,0,0,0-1.88,1.21l.09.88ZM388,87.36h4.38v27.78H388Zm-9.09.11h5.26c-.27,9.28-.54,18.5-.82,27.89h-4.44Z"/></svg>