<svg xmlns="http://www.w3.org/2000/svg" viewBox="0 0 750 750"><path d="M606.15,48.23a27.93,27.93,0,0,0-.44-5.33A21.88,21.88,0,0,0,583.78,25H187.25c-13.12,0-22.67,9.55-22.67,22.69V374.85q0,163.77,0,327.55a22.29,22.29,0,0,0,.15,3.17c1.77,11.88,10.72,19.43,23.07,19.43q197.57,0,395.13,0a27.15,27.15,0,0,0,5.33-.45c10.93-2.22,17.9-11.09,17.9-22.78Q606.17,375,606.15,48.23Zm-4.26,653.44c0,11.54-7.47,19.05-19,19.05q-197.58,0-395.16.07a18.65,18.65,0,0,1-19-19q.22-163.5.09-327V47.47c0-8.9,5.5-15.94,14-17.83a18.61,18.61,0,0,1,4-.35H583.94a17.67,17.67,0,0,1,17.95,17.64c0,1.33,0,2.65,0,4ZM345.56,529.1c-.27,4.83,3.88,6.75,8.06,4.38,1.18.63,2.95,1,3.63,2,1.55,2.42,3.35,3,6.13,1.82,1.7.84,3.5,1.77,5.34,2.61a5.94,5.94,0,0,0,1.9.37c1.17.09,2.36,0,3.51.18,6.42,1.06,12.87,2,19.36,1.06,5.34-.79,10.62-.2,15.92,0,1.88,2.42,1.87,6.14,5.63,7.9,1.39-2.92,2.68-5.6,4-8.38,2.42-.23,5.19.71,7.58-1.28.35-3.21-3.42-3.51-4.25-5.89l11.31-6.55c4.5.91,6.55-.66,7.51-5.78l3.35-2.83c4.18-.14,4.73-1.65,5-4.92,1.25-1.13,2.49-2.76,4.13-3.57a4.88,4.88,0,0,0,3.06-3.54,3.75,3.75,0,0,1,.79-1.55c13.73-17,23-36.16,28.67-57.11a3,3,0,0,1,2.7-2.46c0,.39.06.65.05.91q-.79,24-1.6,48.06a2.5,2.5,0,0,1-.22,1.34c-1.49,1.88-1.43,3.74.22,5.91-.39,2.44-.84,5.08-1.22,7.73a7.1,7.1,0,0,0,.15,1.94,16.81,16.81,0,0,1,.4,2.69c-.11,3.29-2,6.54-.26,9.89.07.14-.08.38-.12.54-2.7,3.09-2.73,3.79-.34,8.07-3.24,3.92-3.25,5.73.09,8.57,0,.63-.08,1.35-.09,2.07,0,2.85-.13,5.7-.09,8.54,0,1.2.53,2.3,2,2.27s1.86-1.09,2-2.3c.06-.66.05-1.32.05-2,0-2.84,0-5.68,0-8.11,3.63-3.85,3.87-5.51,1.61-8.91,2.7-4,1.72-5.65-1.17-8.5a10.14,10.14,0,0,0,.82-2.19c.19-1.24.6-2.71.13-3.73-1.06-2.36-.73-4.61-.3-6.94a9,9,0,0,0,.36-2.31c-.26-2.66-.64-5.31-.92-7.55,2.5-3.39,1.78-3.61.11-6.35.23-16.85.47-34,.7-51.12a20.81,20.81,0,0,1,11.7-3.11A12,12,0,0,0,514,435.8c.76-1,1.61-1.94,2.44-2.88l9.93-11.05a20.48,20.48,0,0,0,2.21-2.56,6.47,6.47,0,0,0,.45-2.08l-.66-.41-3.88,2c-8.44-.91-13.36,4.54-18.8,9.42,3.93-3.83,2.51-8.32,1.59-12.85,1.16-.3,2.12-.5,3.06-.78,1.22-.37,1.63-1,.63-2.24l-3.54-.38c-1.44-3.08-.64-6.8-2.59-9.69h-1c-.39,1.85-.78,3.71-1.13,5.36L500.11,411c-7.07-.32-13,3.37-19.49,5.72,0-.95,0-1.74,0-2.52-.11-8-.2-16-.35-24a6.34,6.34,0,0,0-.72-2l-.94-.06c-.57,1.59-1.13,3.18-1.74,4.88-3.28,1.59-4.13,4.69-4.23,8.05-.12,4.37.1,8.75-.06,13.11a41.3,41.3,0,0,1-1.06,6l-.67-.1c0-.37-.07-.74-.09-1.11-.26-5.29-.5-10.57-.8-15.86a9.93,9.93,0,0,0-.57-2l-.7,0c-.36.65-.72,1.29-1.07,1.94a8.52,8.52,0,0,1-1.19,2.19c-4.47,4.4-5,9.87-4.36,15.67.09.88.12,1.77.18,2.66a34.18,34.18,0,0,0-24,13.05l-2.59-.4c-7.62-1.23-13.9,1.68-16.17,9.56-1.3,4.51-2.73,9-3.71,13.59-2.25,10.58-5.48,20.73-11.53,29.82-1.17,1.76-.62,3.3,1.16,4.83,5.56,4.76,12.06,5.76,19,4.83a58.34,58.34,0,0,0,7.19-1.34c1.81-.48,2.65-1.74,2.72-3.84.19-5.74.39-11.51,1.14-17.2a65.32,65.32,0,0,1,3.06-11.83,4.23,4.23,0,0,1,2.89-2.33c4.11-.49,8.27-.65,12.41-.8,3.2-.12,6.41-.18,9.18-2a21.13,21.13,0,0,1,9.82-3.48,10.36,10.36,0,0,0,6.83-3.23c.78-.8,1.66-1.5,2.84-2.56-.16.77-.18,1-.24,1.14-6.14,17.79-14.44,34.43-26.12,49.27a34.43,34.43,0,0,1-3.89,3.51,9.07,9.07,0,0,0-1.28,1.48c-1.35,2-2.66,4-3.74,5.59-4.17.6-4.72,1.13-5.42,4.72l-3.17,2.64c-3.37-1.26-6.14-.18-7.49,5.65l-8.35,4.92c.65-2.15,1.17-3.89,1.7-5.63l-.72-.65c-4.06-.13-6.93,3.3-10.37,4.11l-7.59-4.88-2.54,2,3.17,9.11c-1.6,1.12-3.07,2.86-4.83,3.24a70.61,70.61,0,0,1-28.63.07c-1.24-2-2.91-2.14-4.74-1.09l-3.58-1.13c-1.31-3-2.77-3.82-6.6-2.43l-3-1.4c-.59-4-3.53-6-7.74-4.18-.66-.41-1.4-.84-2.11-1.32s-1.49-1.05-2.14-1.51c.18-4.15-.75-4.81-6-4.4-.42-.33-.9-.68-1.35-1.06s-.9-.79-1.29-1.13c-.67-3.23-1-3.48-4.11-3.83-12.81-11-31.64-41.49-34.72-56.22,4,.51,8,.84,11.34,3.17a14,14,0,0,0,7.24,2.47c4.59.29,9.19.59,13.8.69a5.28,5.28,0,0,1,5.31,3.66,25.58,25.58,0,0,1,1.33,4.14,116.1,116.1,0,0,1,2.21,23.67c0,2.37,1.06,3.68,3.09,4.2a57.87,57.87,0,0,0,6.82,1.19c7,.91,13.47-.07,19-4.84,1.84-1.58,2.32-3.1,1.08-5-5.34-8.14-8.57-17.1-10.75-26.55a192.24,192.24,0,0,0-5.25-18.71c-1.8-5.27-6.56-8-12.14-7.76-2,.09-3.93.34-5.86.52a34.15,34.15,0,0,0-24-13c.1-1,.19-1.94.28-2.84.54-5.73,0-11.13-4.39-15.47a11.21,11.21,0,0,1-1.27-2.38c-.37-.63-.83-1.21-1.26-1.81l-1,.24q-.51,9.42-1,18.83a5.54,5.54,0,0,1-1.27-2.93c-.19-5.16-.26-10.32-.38-15.47-.08-3.67-.86-7-4.28-8.71-.63-1.76-1.17-3.29-1.71-4.82l-1,0a8,8,0,0,0-.69,2.14c-.14,8.14-.22,16.28-.32,24.43,0,.61-.06,1.23-.09,1.9-6.5-2.37-12.39-6-19.4-5.69l-2.67-3.31c-.88-1.67.34-4-2.11-5.63-1.76,3.21-1.21,6.81-2.54,9.93-1.33.43-3.22-.44-4.49,1.8l4.61,1.78c-1,4.47-2.15,8.84,1.38,12.82-.6-.19-.73-.69-1-.95a107.93,107.93,0,0,0-9.56-7.31c-1.66-1-4-1-6-1.42-1.1-.23-2.23-.36-3.3-.66a27.51,27.51,0,0,1-2.84-1.13l-.62.72a9.4,9.4,0,0,0,1.4,2.47c5.25,4.81,9.57,10.43,14.09,15.87a3.85,3.85,0,0,1,.27.3A11.25,11.25,0,0,0,268,442.19c6.32-.29,11.79,2.34,16.86,5.86,0,.51.07.9.07,1.29-.05,8.88-.09,17.75-.18,26.63,0,1.16-.51,2.34-.43,3.49.17,2.46.54,4.91-.39,7.31-.05.15.13.37.17.56l.66,3.27c-1.71,1.86-2.16,3.45-.78,5.57a4.33,4.33,0,0,1-.1,3.7c-1.6,2.93-1.72,3.5.31,6.24v2.07c-2.86,3-2.87,4.75-.16,7.84v12.59c-4,.88-5.23,3.66-5.29,7.24,0,1.28-.16,2.7,1.67,3.3,1.32-1.63.39-4.76,3.59-5.27,0,.75.14,1.45.14,2.15,0,3.38,0,6.75,0,10.13,0,2.52,0,5,.1,7.55,0,1.27.48,2.47,2,2.43s1.87-1.24,2-2.52c0-.39,0-.79,0-1.19,0-2.72,0-5.43,0-8.15V533.77c3.34.22,2.52,3.87,4.43,5.09,3.4-3.08,1.16-8.28-4.39-10.51V516.13c2.3-2.66,2.91-4.59-.29-7.95v-2.27c2.41-3.33,1.74-4.2-.37-7.14a29.29,29.29,0,0,0,.93-4,16.64,16.64,0,0,0-.38-3c-.11-1.3-.14-2.61-.16-3.91,0-1,.09-1.89.06-2.83,0-1.25-.16-2.49-.19-3.73,0-.57.19-1.16.13-1.73-.19-1.75-.64-3.48-.67-5.23-.12-5.3-.09-10.6-.1-15.9,0-2.6,0-5.21,0-7.81,2.69,1.94,5,3.66,6.06,6.81a185.6,185.6,0,0,0,7.48,18.6c7,14.78,16,28.22,27.82,39.64.07,2.12,1.09,3,3.21,3.57a6.58,6.58,0,0,1,3.89,3.31c1,2.35,2.4,3.35,4.8,3.11ZM510.9,428.39c2.9-2,5.77-4.1,9.06-6.44.08,2.34-.07,3.81-1.42,5.06-3.35,3.08-6.39,6.56-10,9.26-1.88,1.4-4.73,1.5-7.15,2.19l-.27-.79q1.18-2.48,2.39-4.95C506.74,432.52,508.57,430,510.9,428.39Zm-9.11-6.86c.78-1.39.22-3.49.42-5.25.15-1.39.52-2.76.89-4.61.86.93,1.29,1.41,1.7,1.86.27,2.06.45,4.11.84,6.11a6.64,6.64,0,0,1-1.19,5.16,75.8,75.8,0,0,0-4.76,8.89,10.93,10.93,0,0,1-6.89,6.1c-1.61.5-3.15,1.19-5.18,2,.89-2.41,1.64-4.47,2.4-6.53l.57.4c1.37-1.16,3-2.13,4.05-3.53A94.56,94.56,0,0,0,501.79,421.53ZM480.61,420c6.43-4,15.59-7,18.62-6.17v1.21L480.61,426.4Zm-.69,9.94L499,419l.58.75-7.48,10.56c-2.05-1-3.26-.12-3.93,1.34l-9.24,4.05C479.27,433.74,479.57,432,479.92,430Zm-13.2-20.18,1.85,3.06c-1,6.21.08,12.66,1.58,19.08l-.57.4-5.05-1.88C466.6,423.61,462.94,416.42,466.72,409.8Zm2.13,26.51a3.79,3.79,0,0,1-.2.64c-.14.3-.33.57-.56,1-2.7,0-4.68-1.41-6.55-3.3l.84-1.67Zm-6.08-9a15.09,15.09,0,0,1-1.24,2.89c-2.15,2.84-4.45,5.55-6.59,8.39-2.67,3.56-4.44,4.11-8.46,2.16-1.83-.88-3.56-2-5.65-3.2C447,431.76,453.72,427.85,462.77,427.35ZM431.1,493.64c-8.4,1.24-16.66,2.61-24.49-3.13,1.66-2.46,3.38-5,5.24-7.81a14.54,14.54,0,0,0,1.46,2.9,7.49,7.49,0,0,0,2.14,1.31,11,11,0,0,0,1-2.47c.1-.58-.31-1.25-.58-2.19l1.88.23c.78,1.45,1.43,2.82,2.23,4.09.65,1,1.68,1.78,2.83.94s1-2.05.2-3.16c-.31-.41-.6-.83-1.2-1.66l3,.25a25.53,25.53,0,0,0,2.39,3.9c.5.57,1.64.58,2.49.85a7.64,7.64,0,0,0,.52-2.46c-.1-.8-.72-1.53-.89-2.62l1.72,1.09Zm.4-14.62c-.1.48-.83.84-1.58,1.55.29-1.87.49-3.14.67-4.31-1.9-.82-2.46.15-3.08,1.15a14.11,14.11,0,0,1-2,2.67,2.17,2.17,0,0,1-2,.14c.37-.43.91-.81,1.09-1.31a3.09,3.09,0,0,0,.18-2.11,2,2,0,0,0-1.89-.32c-1.62,1-3.1,2.18-5,3.55h-1.62l-.24-.4,1.84-1.25c1-.66,2.28-1.27,1.69-2.74s-2-1.16-3.26-.82c-.19.05-.38.08-1,.19.52-1.77.95-3.26,1.46-5,5.2,2.16,10.52,1.59,16,1.14C432.37,473.87,432,476.46,431.5,479Zm44.32-27.67a8,8,0,0,1-3.66,1.28,30.21,30.21,0,0,0-11.11,4c-1.9,1.11-4.55,1.06-6.89,1.26-4,.33-8,.42-12,.66a7.17,7.17,0,0,0-6.27,4.23c-.93,1.82-1.76,3.68-2.72,5.69-5.17,1.32-10.32.59-15.67-.92.29-1.48.49-2.9.84-4.28,1.49-5.76,2.82-11.58,4.62-17.24,1.72-5.44,5.27-7.22,10.89-6.47a23.23,23.23,0,0,1,9.46,3.34,20.69,20.69,0,0,0,4.13,1.92,7.84,7.84,0,0,0,8.89-2.16c1.61-1.73,3-3.7,4.27-5.38l6.43,3.92v3.76l.7.25c2.68-2.52,4.07-5.84,5.11-9.33,1.13-3.76-.1-7.32-1.29-11,4.41-6.07,3.88-13.2,4.06-20.2a32.49,32.49,0,0,1,.73-6.38c.57,1.17,1.13,2.35,1.69,3.52l.4-.08q-.43,6.24-.86,12.47a8.42,8.42,0,0,0-.1,2.17c1.3,6.07-.82,11.75-1.78,17.57a34.35,34.35,0,0,0-.22,6.73c0,.76.7,1.5,1.08,2.25l.91,0,1.66-4.13,8-3.59c-.78,2.94-1.44,5.48-2.14,8a1.8,1.8,0,0,1-.56.79C481.56,446.47,478.78,449,475.82,451.35ZM407.87,535c2.12-2.11,2.24-2.67.92-5.31a14.59,14.59,0,0,1-1.05-2.45c3.81,3.41,7.67,2.9,11.54.2-.64,2.21-1.88,4.24-1.53,5.94s2.29,3,3.89,4.92c-4.59-.83-5.84,2.25-7.39,5.75-1.45-4.46-4.25-6.41-8.65-5.77l-.24-.55C406.19,536.86,407,535.91,407.87,535Zm-51-56c2.59,4.32,5.12,8.53,7.64,12.75-7.57,5.6-15.88,4.27-24.35,3V482.47C346.22,483.64,351.67,481.82,356.85,479.07Zm-1-3.27c-3.1,3.92-10.91,6-16.1,4.25l-.22-2.58c5.95,1.45,10.79-.75,15.56-4Zm-25.23-36.87c-3,1.45-5.69,3-8.54,4-1.8.67-3.48-.32-4.69-1.83-2.68-3.34-5.37-6.67-8-10.06a8.9,8.9,0,0,1-.76-2.54C317.53,429.08,324.24,433,330.59,438.93Zm-58.54-24.3a19.94,19.94,0,0,1,4.46.6c4.7,1.77,9.32,3.75,14.09,5.69v6.66l-18.55-11.29Zm19.33,16.89c.3,1.67.6,3.4.91,5.12l-.6.46L286,432.17l-1.36.89c-3.22.76-4.9-.78-6.38-2.83-2.11-2.94-4.3-5.82-6.43-8.74-.12-.16,0-.47-.07-1C279,423.16,285,427.46,291.38,431.52Zm-28.69,6.05c-3.25-2.79-6.27-5.85-9.42-8.76a5.69,5.69,0,0,1-1.91-5.55c3,2.11,5.79,4,8.5,5.92,1.5,1.08,2.85,2.36,4.38,3.39a28,28,0,0,0,3.71,1.74l2.36,4.86C267.51,439.06,264.8,439.39,262.69,437.57Zm21.49,6.08a39.66,39.66,0,0,0-5.93-2.72,11.3,11.3,0,0,1-6.62-5.88c-1.77-3.54-3.82-6.94-5.67-10.44a4.21,4.21,0,0,1-.45-2.23c.22-2.5.59-5,.92-7.59l1.64-1.79c.4,1.5,1.05,2.66.93,3.73-.63,5.6,1.88,9.93,5.3,13.95.81.95,1.7,1.86,2.44,2.86a6.44,6.44,0,0,0,5.61,2.71c3.76,0,5.2,1.31,6.16,4.9.54,2,1,4,1.56,6.27C287.94,446,286.13,444.72,284.18,443.65Zm8.55,5.26c-1-3.07-1.8-6.18-2.85-9.84l2.31.79L293.7,444c2.11-.35,2.32-1.62,2.19-2.79-.52-4.51-1-9.05-1.86-13.51a29.3,29.3,0,0,1-.4-7.42,102.33,102.33,0,0,0-.36-10.49c-.1-2.25-.21-4.49-.29-6.33l2.12-4.23c.2,1.5.5,2.88.57,4.28.19,4.1,0,8.24.54,12.28.49,3.53,1.85,6.94,3.11,11.43a16,16,0,0,0,1.12,14.87c.89,1.53,2,2.94,3,4.41l.8-.27a6.25,6.25,0,0,0,.22-2.11,28.73,28.73,0,0,0-1.86-5.83,11.52,11.52,0,0,1-.83-8.29,46.85,46.85,0,0,0,1-16.06l1.85-3a17.86,17.86,0,0,1,1.78,9.77,68,68,0,0,0-.22,7.13c.08,1.95.22,3.91,2.15,5.28.81.59,1,2,1.59,2.93a71.89,71.89,0,0,0,5,7.59c2.38,2.9,5.66,3.53,9.18,2.26a19.71,19.71,0,0,0,4.29-2.06,22.44,22.44,0,0,1,10.49-3.31c4.35-.41,7.94,1.67,9.32,6.07,2.2,7.06,4,14.24,6,21.49-5.1,3-9.89,5.26-15.27,4.26-1.25-3-2.28-5.82-3.53-8.49a6.88,6.88,0,0,0-6.09-4.15c-4-.26-8-.53-12.05-.62-3.15-.07-6.13-.28-8.82-2.3-3-2.25-6.76-2.55-10.34-3.18A6.42,6.42,0,0,1,292.73,448.91Zm-5.2-161.42c-5.1,3.62-5.18,5.81-.95,10.31,2.37,2.53,4.46,5.32,6.52,7.81-3.86,7.88,3.91,22.83,12.91,25.9,4.75,8.06,11.63,12.92,21.54,14.48a54,54,0,0,1,3.11,6.08c1.45,3.9,2.72,7.88,3.82,11.9a27.87,27.87,0,0,1,.82,6.45c.12,3.62-1.89,6.34-4.1,9-3,3.57-2.67,7,.73,10.14a16.42,16.42,0,0,0,9.51,4.08c6.56.82,12.46-1.41,18-4.4a17.62,17.62,0,0,0,8.26-9.6c1.56-4.27,1.14-9.84-5.68-10.9-.26,0-.5-.17-.76-.22a11.32,11.32,0,0,1-8.75-6.81c-2.38-5.65-4.25-11.52-6.28-17.32a4.94,4.94,0,0,1-.2-2.55,12.46,12.46,0,0,1,1.35-3.54c1.67-2.84,3.79-5.45,5.14-8.41a24.82,24.82,0,0,0,1.82-14.54,8.69,8.69,0,0,0,2.68-6.69,82.37,82.37,0,0,0-.47-9.7c-.7-4.8-2.17-9.32-7-11.92a19.37,19.37,0,0,1-.14-2.31c.19-3.17.37-6.34.66-9.5.36-3.9-.89-5.61-4.79-6a26.85,26.85,0,0,0-5.15,0c-11.36,1.1-22.19,4.37-32.82,8.34C300.42,280.19,293.62,283.17,287.53,287.49Zm18.27,40.59c-1-4.17-.79-8.45-3.24-12-2.05.85-1.39,2.39-1.52,3.65l-6-7.88c0-1-1.12-2.91.73-4.84,5.68,2.45,7.95,7.45,9.74,12.72C307.1,324.3,307.13,326.76,305.8,328.08ZM362.52,372a16.43,16.43,0,0,1-.45,3.4,14.69,14.69,0,0,1-7.54,8.1c-5.46,2.76-11.2,4.11-17.18,1.56-1.61-.69-3.32-1.41-3.88-3.61,3.45-4.21,5.95-8.86,4.71-14.92a16.24,16.24,0,0,0,11.57-3.28C352.36,368.41,356.92,370.63,362.52,372ZM348,360.3c-2.68,2.83-6.1,3.66-10.06,3.4L331,346.06a18.59,18.59,0,0,0,12-4.07C344.73,348.15,346.32,354.12,348,360.3Zm-5.83-25.88c-7.29,5.16-15.25,5.81-23.71,4-4.55-.95-7-4.45-10.06-7.67,2.15-1.88,1.78-4,1.37-6.23-1.22-6.68-3.85-12.63-8.7-17.48-1.39-1.39-2.91-2.56-5.11-2.05L293,300.4a90,90,0,0,0,53.27-17.6c.15,1.85.28,3.53.42,5.32-2.16,1.16-2.67,3.23-3,5.46-.92,7.13.9,13.68,4.28,19.84.74,1.36,2.32,2.28,3.89,3.74C352.66,324.62,348.37,330,342.14,334.42Zm9.67-40.06c-.2,2.79-.41,5.58-.59,8.15l-2.55-1.94-.65.55c.26,4.14,2.71,7.48,4.19,11.59-.46-.23-1.11-.34-1.35-.71-3.71-5.83-5.48-12.13-4.33-19a13.27,13.27,0,0,1,1.38-3.1C349.93,290.13,351.94,292.61,351.81,294.36Zm-13.45-21.78a19.77,19.77,0,0,1,9.15.46,36.65,36.65,0,0,1-2.61,2.7c-5.61,4.68-12.17,7.67-18.81,10.51A95.57,95.57,0,0,1,292.22,294a47.86,47.86,0,0,1-5.46-.38l-.38-.9c1.54-1.27,2.92-2.87,4.67-3.74,6.55-3.29,13.1-6.64,19.87-9.43A112,112,0,0,1,338.36,272.58Zm148.37,16.11a56,56,0,0,0-9.05-5.66,136.1,136.1,0,0,0-39.25-13,59.26,59.26,0,0,0-11.83-.64c-2.79.1-3.74,1.53-3.89,4.32a21.09,21.09,0,0,0,.15,2.37c.23,3.67.45,7.35.67,10.8-7.8,4.24-10.63,21.51-5.14,28.44-.8,8,.66,15.45,6.09,21.54,2.65,3,2.76,6,1.66,9.33-1.16,3.59-2.48,7.13-3.64,10.72-2.08,6.46-5.85,10.91-13,12.16-3.87.69-5.63,3.82-5.08,7.74a16.12,16.12,0,0,0,6,10.22c5.15,4.34,11.33,6.26,17.9,6.68a16.44,16.44,0,0,0,12.35-4c3.65-3.24,3.91-6.64.89-10.42-.37-.47-.72-.95-1.11-1.4a10.66,10.66,0,0,1-2.83-9.56c1.27-5.66,2.95-11.24,4.73-16.77.66-2.07,2.08-3.89,2.95-5.45,11.46-2.83,15.7-5.78,21.62-14.8,3-.32,5.07-2.18,6.73-4.6a74.09,74.09,0,0,0,5-7.65c2.12-4.12,3.55-8.45,1.09-13.64,2.43-2.81,4.88-5.75,7.44-8.58C490.11,293.61,490.2,291.38,486.73,288.69ZM421.2,303a31.47,31.47,0,0,0,.29-3.29,30.56,30.56,0,0,0-.34-4.69,4.84,4.84,0,0,1,3.58-5.13c2.5,2.88,2.06,6.39,1.77,9.76a26.37,26.37,0,0,1-4.29,12,7.19,7.19,0,0,1-1.39,1.22l-.47-.64c1.88-3.51,4-7,4.59-11C422.75,300.13,422.5,302.27,421.2,303Zm18.42,78.76a16.89,16.89,0,0,1-2.18,2.26,14.47,14.47,0,0,1-10.65,2.22c-5.85-.85-11.08-3-14.64-8.12-1.65-2.34-2-4-1.45-6.12,5-1.37,9.77-3.39,12.36-8.7a16.13,16.13,0,0,0,11.55,3.24C433.52,372.52,435.81,377.24,439.62,381.73ZM435,363.65a12,12,0,0,1-10.12-3.3c1.65-6.15,3.26-12.18,4.89-18.31A18.16,18.16,0,0,0,441.81,346C439.49,352,437.25,357.73,435,363.65Zm42.81-51.84c-2.24,3-4.09,5.42-5.81,7.7-.21-.94-.47-2.15-.73-3.35l-.9,0c-2.56,3.41-2.25,7.75-3.27,11.93-3.78-3.51,3.7-18.8,10-20.9C479.09,308.73,477.65,310.75,477.77,311.81Zm-.81-6.9c-2.45-.39-4.17,1.09-5.79,2.82-5,5.32-7.49,11.78-8.35,18.9-.16,1.35.64,2.81,1.08,4.53-3.42,5.77-9.18,8-16.07,8.24-10.06.34-17.84-4-24.09-11.54-2.73-3.31-2.44-7.4-3.05-11.44,3.13-.4,4.14-2.76,5.25-5.15,2.69-5.84,4-11.88,3.06-18.32-.3-1.95-.86-3.75-2.86-4.77.12-1.76.24-3.5.37-5.39a90.11,90.11,0,0,0,53.33,17.61C478.81,302,477.93,303.38,477,304.91Zm9.1-11.16c-2.61.06-5.24.36-7.83.16a95,95,0,0,1-35.1-9.32c-5.18-2.58-10.08-5.75-15.05-8.75a15.63,15.63,0,0,1-2.49-2.4c.06-.2.12-.39.17-.59a13.52,13.52,0,0,1,3.57-.49c5.5.69,11,1.29,16.46,2.39a119.08,119.08,0,0,1,33.49,12.64,51.18,51.18,0,0,1,5.67,4,9.17,9.17,0,0,1,1.34,1.61C486.21,293.23,486.14,293.49,486.06,293.75ZM369.21,270.22c-4.16,2.33-4.86,6-2.44,10.13a17.19,17.19,0,0,0,8.61,7c5.26,2.23,10.78,2,16.23,1.26a18.28,18.28,0,0,0,11.78-6.41c4.08-4.78,3.42-9.14-1.82-12.55-.23-.14-.43-.31-.66-.44a11.06,11.06,0,0,1-6-8.89c-.52-6.18-.52-12.41-.52-18.62,0-1.58.85-3.15,1.26-4.58,8.64-4.41,13.64-11.27,15.62-20.55a8.48,8.48,0,0,0,4.6-5.57,74.13,74.13,0,0,0,2.58-9.35c.8-4.7.84-9.4-2.94-13.39.44-1.44.84-3,1.42-4.57,1.07-2.78,2.27-5.5,3.37-8.25a3.38,3.38,0,0,0-1.72-4.55,23.8,23.8,0,0,0-5.3-2.13c-11.28-2.87-22.8-3.08-34.34-2.71-7.68.24-15.34,1-22.73,3.26-5.57,1.72-6.38,3.93-4,9.16,1.49,3.2,2.64,6.57,3.86,9.65-6.19,6.38-3.52,22.73,4.12,28.68,2,9.24,7.05,16,15.83,20.47a48.11,48.11,0,0,1,1.08,6.48c.17,4,0,8,0,11.93C377.09,262,375,267,369.21,270.22Zm43.15-66.38-1.82-3-.86.3c-1,4.05.19,8.06.75,12.07l-.47.36c-.37-.41-.95-.76-1.06-1.23-1.62-6.63-1.41-13.12,1.83-19.27a15.81,15.81,0,0,1,2.45-2.77c2.37,1.14,2,3.28,2.32,4.32C414.29,198.19,413.28,201.12,412.36,203.84Zm-58.87-29.65a17.3,17.3,0,0,1,3.76-1.81c5.37-1.07,10.74-2.22,16.18-2.85A121.35,121.35,0,0,1,409,171c3,.55,6.08,1.23,8.83,3.26C406.4,182.37,366,182.61,353.49,174.19Zm8,39.29c-.1-4.36,1.62-8.35.15-12.35l-.92-.2L359,204.28c-.25-1.14-.41-2.32-.77-3.43a23.76,23.76,0,0,0-1.72-4.17,4.92,4.92,0,0,1,1.91-6.38,21.77,21.77,0,0,1,2.75,3.59c2.84,5.84,2.94,12,1.5,18.19C362.53,212.61,361.91,213,361.52,213.48Zm8.18,13.74c-3.82-2.34-4.11-3.79-6.95-10.34,2.78-1,2.93-3.51,3.25-6a31.82,31.82,0,0,0-2.79-18.75c-.92-1.84-2.06-3.4-4.25-3.67-.45-1.8-.88-3.5-1.32-5.28a89.87,89.87,0,0,0,56.21,0c-.43,1.68-.86,3.37-1.33,5.23-2.51.36-3.65,2.36-4.64,4.5-3,6.56-3.38,13.43-2,20.39.29,1.39,1.54,2.58,2.49,4.1-1.7,7.55-7.49,11.31-14.8,13.55C385,233.61,377.12,231.77,369.7,227.22Zm22.46,11.14c-.37,6.34-.74,12.57-1.11,18.85-2.73,1.91-7.62,2-10.65,0-.35-6.22-.7-12.46-1.06-18.77A17.93,17.93,0,0,0,392.16,238.36Zm-12.4,21.79a15.68,15.68,0,0,0,12,.54c.89,5.75,4.46,9.24,9.33,12.28a15.11,15.11,0,0,1-1.48,3.22,14.8,14.8,0,0,1-9.72,5.29c-6.06.89-11.92.35-16.79-4-1.32-1.15-2.74-2.37-2.53-4.65C375.25,270,379.08,266.25,379.76,260.15ZM580.37,421.87l-3.78-2.77-.55.3V671.75c-12.21,2.3-18.54,10-21.25,21.62h-122c2.51,2.75,4.84,4.62,8.68,4.29,4.74-.4,9.53-.1,14.3-.09l101.37,0a11.29,11.29,0,0,0,1.42-.17c.93-13.75,9.36-19.88,21.85-22.16ZM194.67,671.71V418.78l-4.2,3.12V675.27c12.57,2.25,21,8.47,21.87,22.2.47,0,.92.12,1.38.12,38.95,0,77.91-.07,116.86.07,3.59,0,5.13-2.27,7.2-4.43H216C213.29,681.69,207,674.06,194.67,671.71ZM555.74,54.89C557.43,65.74,566.1,75.13,577,76.25V319.4l4.19-3.14V72.84c-12.57-2.27-21-8.48-21.86-22.2-.49,0-.95-.13-1.4-.13-39,0-78,.07-117.06,0-3.5,0-5,2.33-7.14,3.94.05.17.1.33.16.49ZM191.29,316.31l4.29,3.17V76.29c11.87-2.47,16.77-7.44,21.24-21.53H338.94c-2.51-2.66-4.72-4.63-8.51-4.31-4.6.38-9.26.09-13.89.09l-102,0a12.21,12.21,0,0,0-1.45.15c-.9,13.75-9.33,19.88-21.83,22.18ZM415,76.1H355.6v49.76H415Zm-4.16,45.49h-51V80.39h51ZM288.39,240a1.39,1.39,0,0,0,.68-1c1.19-7.32,2.48-14.63,3.5-22,.46-3.3,1.86-5.92,4.74-7.35a93.14,93.14,0,0,1,10.28-4.08,39.79,39.79,0,0,1,5.41-1.09c-.31-.3-.39-.44-.49-.46-.52-.11-1-.2-1.57-.28A35.5,35.5,0,0,1,298,199.54c-2.73-1.6-4.81-3.68-5.31-7-.91-6.15-1.89-12.3-2.86-18.45-.28-1.76-.64-3.5-1-5.26a1.31,1.31,0,0,0-.69.93c-1.2,7.45-2.45,14.89-3.55,22.36a9,9,0,0,1-3.68,6.32c-3.89,2.84-8.35,4.22-13,5.1-1.2.22-2.41.42-3.61.62v.44l3,.53A33.36,33.36,0,0,1,280,209.63c2.36,1.52,4.13,3.45,4.55,6.41.64,4.46,1.38,8.9,2.1,13.35C287.2,232.94,287.8,236.49,288.39,240Zm210.9,106a9.47,9.47,0,0,1,4.62,7c.63,4.79,1.45,9.55,2.21,14.32.48,3,1,6,1.52,9a2,2,0,0,0,.77-1.34c1.19-7.38,2.46-14.75,3.52-22.15a8.8,8.8,0,0,1,4.06-6.49,20,20,0,0,1,4.53-2.43c3.75-1.24,7.58-2.24,11.81-3.46l-2.49-.4c-5.07-.85-10-2.2-14.19-5.28a8.74,8.74,0,0,1-3.72-6.27c-.64-4.92-1.51-9.8-2.31-14.7-.48-3-1-5.93-1.51-8.9a2.85,2.85,0,0,0-.75,1.53c-1.12,7-2.41,14-3.29,21a10.68,10.68,0,0,1-5.82,8.63,37,37,0,0,1-12.79,4.08c-.65.1-1.3.26-1.95.39a2.52,2.52,0,0,0,1.41.6C490,342.07,494.91,343.22,499.29,346.07Zm-113,308.8a33.56,33.56,0,0,0,2.11-5.54,87.86,87.86,0,0,0,2-25.05c-.08-1.64,0-3.68-2.31-3.65s-2.23,2.13-2.28,3.73c-.15,4.63-.05,9.27-.28,13.89a58.32,58.32,0,0,1-1.16,10.41c-.71,3-2,6.12-5.69,6.92-3.84-1.89-5-5.15-5.26-8.78-.47-6.93-.73-13.87-1.12-20.8a8.17,8.17,0,0,0-.56-3.1,2.79,2.79,0,0,0-1.95-1.49c-.67,0-1.36,1-1.87,1.67a3.4,3.4,0,0,0-.25,1.54,103.24,103.24,0,0,0,.47,23.57,16.44,16.44,0,0,0,3.19,8C374.51,660.38,383.18,661.86,386.27,654.87ZM402,647.74c6.49-2.57,11.15-6.72,13.4-13.36a9.88,9.88,0,0,0-1.9-10.37c-2.6-2.93-6.05-3.53-9.81-2.85-1.32.24-2.66.31-4.35.49-1.09,1.15-2.54,2.55-3.85,4.08a4.39,4.39,0,0,0-1.05,2.28,7.91,7.91,0,0,0,.8,2.57l2.1-1.85c0,.46,0,.71,0,1-.27,7.6-.56,15.2-.79,22.8a13.61,13.61,0,0,0,.31,4.52,3.4,3.4,0,0,0,2.39,2c.84,0,2-1.06,2.48-1.95s.21-1.93.22-2.92C402,652.08,402,650,402,647.74Zm0-22c3-1.4,5.67-1.22,7.48.48s2.27,4.34,1.18,7.32a17.05,17.05,0,0,1-6.21,7.81,22.8,22.8,0,0,1-2.45,1.33Zm26.59,10.12a18.33,18.33,0,0,1-4.3-4.82c-1.6-2.65-.83-4.77,2-6.64,2.3.33,4.15,1.33,4.93,3.81A4.67,4.67,0,0,0,432,630a2.24,2.24,0,0,0,1.68.71,2.07,2.07,0,0,0,1.28-1.26,6.71,6.71,0,0,0-2.14-7c-4.49-3.59-9.29-2.76-12.29,2.14a8.85,8.85,0,0,0-.87,7.27,16.22,16.22,0,0,0,5.83,8.3,12.17,12.17,0,0,1,4.87,10.17c-.11,2.8-1.7,4.46-4.19,4.61-3.38.19-4.63-.78-5.18-4a4.21,4.21,0,0,0-.26-1.35c-.36-.65-.8-1.6-1.35-1.71a2.65,2.65,0,0,0-2.24.76,6.26,6.26,0,0,0-1.15,3.24,7.73,7.73,0,0,0,6,7.66c7.18,1.31,12.48-2.07,12.93-9.59A15.71,15.71,0,0,0,428.56,635.86ZM234.44,478.27c2.73.94,5.52,1.77,8.15,3a6.22,6.22,0,0,1,3.56,5.36c.43,3.61,1.14,7.18,1.74,10.77.26,1.56.51,3.13.77,4.69l.52,0c.8-4.88,1.83-9.73,2.31-14.64.38-3.78,2.41-5.91,5.62-7.18,2.07-.83,4.28-1.33,6.43-2,.54-.16,1.09-.27,1.64-.4a5.54,5.54,0,0,0-1.9-.8c-2.67-.92-5.41-1.7-8-2.87a6.45,6.45,0,0,1-3.68-5.49c-.61-4.79-1.49-9.55-2.28-14.31a8,8,0,0,0-.64-1.45c-.92,5.58-1.89,10.56-2.51,15.59a7,7,0,0,1-4.06,5.9,53.1,53.1,0,0,1-5.9,2.25,36.51,36.51,0,0,1-3.62.82l0,.39A14.16,14.16,0,0,1,234.44,478.27ZM361.63,653.16a2.81,2.81,0,0,0-.55-2.69,3.54,3.54,0,0,0-3,.3c-1.09.65-1.77,1.94-2.8,2.75-2.74,2.14-5.67,1.71-7.82-1-4.74-6-4.24-18.7,1-24.38,3-3.26,6.47-3.23,9.35.11a24.25,24.25,0,0,0,2.25,2.75,2.44,2.44,0,0,0,2.09.43c.44-.16.76-1.14.81-1.79a4.41,4.41,0,0,0-.53-1.88c-3.05-6.89-11-8.25-16.34-2.72a23.24,23.24,0,0,0-6.21,15.41c0,7.47,1.73,12.68,5,16C350.66,662.29,358.19,659.51,361.63,653.16Zm100.06-10a28.4,28.4,0,0,0,5.26-.92c1.79-.5,4-.75,4.25-3.21.17-1.5-1.4-2.9-4.25-3.5-3.07-.64-6.21-1-9.43-1.46a14.06,14.06,0,0,0,1.33-3.32c.15-1.12.1-2.75-.58-3.37a3.78,3.78,0,0,0-3.4-.36,14.87,14.87,0,0,0-8.52,9.36c-1.81,5.68,3,12.68,6.92,15.57,1.2.89,2.57,1.55,4,.6s1.49-2.62,1-4.11c-.51-1.69-1.31-3.28-2.12-5.24C458.15,643.22,459.93,643.34,461.69,643.18Zm-5.28-14.06c-1.23,4.65-2.66,6.2-7,6.21A13.19,13.19,0,0,1,456.41,629.12Zm-1.21,20.45a19,19,0,0,1-5.9-7.5l3.75.84,2.75,6.32ZM449,639c3.34-2,14.88-1.94,18.69.07C465.19,641.13,452.32,641.08,449,639Zm-21.25,59.6a11.89,11.89,0,0,0-4.08-1.43c-2.58-.45-5.2-.66-8-1,.46-1.05,1-2.05,1.34-3.08.49-1.34.83-2.73-.45-3.85s-2.63-.77-3.91-.11a15.2,15.2,0,0,0-7.77,8.38,11,11,0,0,0-.57,4.27c.21,4.75,3,8.2,6.17,11.39a7.35,7.35,0,0,0,2.32,1.5c2.13.9,4.07-.31,3.88-2.59a21.77,21.77,0,0,0-1.39-4.9,13.93,13.93,0,0,0-1-1.9,22,22,0,0,0,3.38,0c3.25-.52,6.52-1,9.69-1.84a2.54,2.54,0,0,0,.32-4.82Zm-13.4-7.37c.29,3.29-2.14,5.57-6.77,6.19C409.39,694.61,411.31,692.38,414.34,691.26Zm-1.22,20.52-5.62-7.06.41-.55,3.37.75c.9,2,1.84,4.15,2.77,6.27Zm-6.28-11a38.29,38.29,0,0,1,19.37,0C423.6,703.13,410.73,703.12,406.84,700.82ZM344.08,49.59A12.05,12.05,0,0,0,348.17,51c2.52.42,5.08.62,7.74.92a16.76,16.76,0,0,0-1.43,3.64c-.15,1,0,2.58.63,3.18a3.67,3.67,0,0,0,3.23.41,16.46,16.46,0,0,0,4.46-2.86c7.24-6.32,5-19.15-3.88-22.83a5.31,5.31,0,0,0-.56-.2,2.57,2.57,0,0,0-3.46,2.46,9.47,9.47,0,0,0,.56,3.28,36.75,36.75,0,0,0,1.77,3.84,24.38,24.38,0,0,0-3.55,0,88.09,88.09,0,0,0-9.3,1.75,3.53,3.53,0,0,0-2.07,2.48C342.23,47.86,343.24,49.08,344.08,49.59Zm13.3,7.22-.63-.52,2.9-4.85,4.42-.89C362.3,53.52,360.33,55.72,357.38,56.81Zm.79-20.26A18,18,0,0,1,364,43.72c-.34.1-.47.18-.57.16-.9-.2-1.79-.42-3-.72l-2.75-6.31Zm6.21,10.51a30.24,30.24,0,0,1-18.65-.18A31.7,31.7,0,0,1,364.38,47.06ZM172.56,340.21a43.22,43.22,0,0,0,7,5.67c8.09,4.79,15.83-1.83,18-7.69a3.51,3.51,0,0,0-.54-3.05,3.92,3.92,0,0,0-3-.62,19,19,0,0,0-3.75,1.44c-.34-2.8-.53-5.5-1-8.15a12.25,12.25,0,0,0-1.74-4.36c-1.23-1.84-3.19-1.62-4.26.35A9.89,9.89,0,0,0,182.1,327c-.5,3.37-.84,6.76-1.24,10.12-1.5-.61-3.15-1.42-4.89-1.95-1.49-.45-3.11-.47-4.09,1.09A3.08,3.08,0,0,0,172.56,340.21Zm17.26-.49,4.91-2.89.45.61c-1,3-3.32,4.87-6.27,6.8C189.24,342.58,189.5,341.33,189.82,339.72Zm-4.6-13.92a30.14,30.14,0,0,1,.26,18.62A31.93,31.93,0,0,1,185.22,325.8Zm-9.95,11.87,6.25,2.71c.29,1.19.55,2.26.91,3.76a18.42,18.42,0,0,1-7.47-5.81ZM357.33,688.91a3.51,3.51,0,0,0-3.05.51,3.89,3.89,0,0,0-.63,3,17.15,17.15,0,0,0,1.38,3.64c-3.29.52-6.51.91-9.67,1.55-1.82.37-3.86,1.09-3.92,3.33-.06,2.41,2.19,2.88,3.94,3.21,3.55.67,7.17,1,10.78,1.52-.61,1.51-1.41,3.17-1.94,4.92-.42,1.43-.41,3,1,3.94a3,3,0,0,0,4-.58,41.05,41.05,0,0,0,5.63-6.83C369.85,698.92,363.3,691.17,357.33,688.91Zm-.53,22.31,2.71-6.24,3.36-.81A11.08,11.08,0,0,1,356.8,711.22Zm-11.87-9.92c2.82-2.16,15.17-2.33,18.67-.25C360.42,703,348.33,703.18,344.93,701.3Zm14-4.6-2.95-5,.61-.44c3,1.05,4.92,3.28,6.73,6.25ZM181.23,399.28a70.7,70.7,0,0,0,1.68,8.7,3.75,3.75,0,0,0,2.58,2.22c.82.08,2.06-1.05,2.61-2a10.94,10.94,0,0,0,1.26-3.92c.4-2.52.61-5.07.92-7.72,1.12.48,2.18,1,3.27,1.39,1.29.47,2.86.81,3.58-.55a5,5,0,0,0,.23-3.66c-1.67-4.55-7.38-8.84-11.65-8.67-6.05.26-10.63,3.34-13.78,8.37-1.37,2.2.15,4.42,2.75,4.13a23.35,23.35,0,0,0,4.85-1.54,16.8,16.8,0,0,0,1.67-.82A29.65,29.65,0,0,0,181.23,399.28Zm14.18-3.77c-4.26-1-6.28-2.46-6.28-6.9A13.42,13.42,0,0,1,195.41,395.51Zm-9.74-7.74c1.8,6.59,1.5,12.83,0,19.4C183.34,404.27,183.4,391.42,185.67,387.77Zm-10.37,7.16c-.19-.31-.39-.62-.59-.93l7.06-5.62.56.4-.75,3.38ZM314.15,633.29a70.47,70.47,0,0,0-8.71,1.67,4.46,4.46,0,0,0-2.51,2.89c-.34,1.58,1.27,2.25,2.61,2.74a9.25,9.25,0,0,0,2.08.64c3.33.43,6.66.8,10.06,1.2-.61,1.41-1.39,2.87-1.89,4.42s-.76,3.37.93,4.5,3.24.35,4.3-.82a40.4,40.4,0,0,0,5.57-7.11c4.56-8.09-2.23-15.77-7.94-17.8-2.58-.91-4.36.9-3.64,3.55a40.83,40.83,0,0,0,1.63,4.1A16.94,16.94,0,0,0,314.15,633.29Zm5,15.3-.94-.6c.91-2.08,1.81-4.15,2.71-6.23l3.35-.79.49.47ZM318,628.1c3,1,4.9,3.31,6.77,6.27l-4.5-.91-2.88-4.92Zm7,9.74c-6.18,2.09-12.41,1.77-18.66.24A29.77,29.77,0,0,1,325,637.84ZM589.6,332.75a61,61,0,0,0-1.73-8.29,3.53,3.53,0,0,0-2.49-2c-.79-.08-2,.92-2.52,1.76a12.09,12.09,0,0,0-1.36,4.1c-.42,2.51-.62,5.07-.92,7.74a13.2,13.2,0,0,0-3.27-1.32c-1.18-.15-2.9-.17-3.54.52a4,4,0,0,0-.28,3.58c2.37,4.82,6,8.56,11.63,8.63,6,.08,10.63-3.24,13.78-8.28,1.39-2.21-.11-4.42-2.71-4.14a23.09,23.09,0,0,0-4.85,1.53,16.89,16.89,0,0,0-1.7.82A31.67,31.67,0,0,0,589.6,332.75Zm-14.12,4.34c2.54.22,4,1.64,5.6,2.92.27,1.3.52,2.51.84,4.11A13.42,13.42,0,0,1,575.48,337.09Zm10,7.32c-2.11-2.63-2.1-15,.12-18.79C587.48,329.46,587.34,340.8,585.51,344.41Zm10.08-6.74.35.6c-1.79,2.6-4.35,4.26-7.51,6,.33-1.49.56-2.54.85-3.84ZM414,59.08a3.93,3.93,0,0,0,3.41-.44c.65-.54.71-2.15.55-3.2A16.1,16.1,0,0,0,416.59,52c3.27-.5,6.42-.87,9.52-1.49,1.89-.38,4-1.06,4.08-3.39.05-2.5-2.33-2.91-4.13-3.25-3.49-.66-7-1-10.57-1.44.63-1.61,1.44-3.35,2-5.17a3.09,3.09,0,0,0-1.1-3.74,2.94,2.94,0,0,0-3.84.51A40.93,40.93,0,0,0,407,40.47C401.78,48.65,407.7,56.35,414,59.08Zm.31-22.52.56.31c-.93,2.13-1.86,4.25-2.75,6.3l-3.76.86C409.92,40.86,411.63,38.33,414.29,36.56Zm12.42,10.27a29.81,29.81,0,0,1-18.65.23C414.24,45,420.46,45.27,426.71,46.83Zm-11.42,10c-3.24-1-5.05-3.43-6.86-6C412.73,50.61,414.6,52.72,415.29,56.86Zm183,335.54a41.72,41.72,0,0,0-7-5.67c-8.07-4.77-15.78,1.75-18,7.67a3.49,3.49,0,0,0,.52,3.05,3.88,3.88,0,0,0,3,.64,18.72,18.72,0,0,0,3.76-1.45c.34,2.79.51,5.5,1,8.13a12.7,12.7,0,0,0,1.87,4.51c1.12,1.66,3,1.46,4-.3a10,10,0,0,0,1.25-3.31c.51-3.37.84-6.77,1.24-10.14a52.19,52.19,0,0,0,4.88,2c1.49.45,3.1.47,4.09-1.08A3.07,3.07,0,0,0,598.29,392.4Zm-17.24.45L575.7,396a10.53,10.53,0,0,1,6.16-7.32C581.6,390,581.37,391.19,581.05,392.85Zm4.57,14a29.93,29.93,0,0,1-.21-18.69C587.5,394.33,587.2,400.56,585.62,406.82Zm3.71-14.6c-.29-1.21-.54-2.28-.81-3.39a11.21,11.21,0,0,1,7.05,6.09Zm-3.41,305.36c-1.92-2.5-4-4.87-6-7.29,1.52-.65,3.26-1.27,4.89-2.12,1.41-.73,2.5-1.87,2.1-3.66a3,3,0,0,0-3.3-2.32,42.55,42.55,0,0,0-9,1.06c-9,2.38-9.82,12.4-7.12,18.25,1.15,2.5,3.68,2.54,5.06.16a31.43,31.43,0,0,0,1.67-4c2,1.59,3.92,3.32,6,4.73a14.22,14.22,0,0,0,4.84,2.11c2.2.46,3.44-1.12,2.71-3.26A13.23,13.23,0,0,0,585.92,697.58Zm-2.54-12.36.2.61-6.49,2.67-3.3-2.09C577.18,685.28,580.21,684.62,583.38,685.22Zm-13.62,15.27c-1.47-3-1.26-6-.59-9.35C572.11,694.78,572.3,697.91,569.76,700.49ZM571.57,688a40.61,40.61,0,0,1,13.94,13.34C581.52,701,571.78,691.64,571.57,688ZM187.53,53A62,62,0,0,0,192,57.8c-1.6.63-3.18,1.12-4.65,1.85s-3,1.92-2.53,4c.45,1.88,2.14,2.4,3.73,2.33a40.23,40.23,0,0,0,8.21-1c9.08-2.39,10.16-12,7.46-18.24a3.67,3.67,0,0,0-2.68-1.85c-.82,0-1.95,1-2.51,1.78a19.81,19.81,0,0,0-1.61,3.88A25.44,25.44,0,0,0,194.55,48c-2.43-1.56-4.8-3.35-7.46-4.34s-4.21,1-3.07,3.55A29.7,29.7,0,0,0,187.53,53Zm.74,9.95-.14-.7,6.44-2.58,3.28,2.06C194.52,62.81,191.47,63.48,188.27,62.9Zm13.57-15.34c1.53,3,1.3,6,.66,9.32C199.13,53.6,199.48,51.07,201.84,47.56Zm-1.56,12.6c-6-3.28-10.38-7.83-14.17-13.44C190.11,47.18,199.22,55.84,200.28,60.16Zm379.53,5.75a16.87,16.87,0,0,0,5.49-.25,3.33,3.33,0,0,0,2.24-2.09,4.58,4.58,0,0,0-1.23-3,6.49,6.49,0,0,0-2.52-1.5c-1.1-.48-2.26-.81-3.55-1.26.58-.52,1-.86,1.36-1.21,2.86-2.71,5.44-5.63,6.87-9.36,1-2.55-.35-4.2-3-3.58a14.62,14.62,0,0,0-4.6,2.18c-2.06,1.4-3.93,3.07-5.91,4.65a16.78,16.78,0,0,0-1.46-3.64c-.61-.88-1.8-2-2.65-1.9A3.89,3.89,0,0,0,568.14,47a14.2,14.2,0,0,0,.54,12.8C571.08,64.11,575.33,65.36,579.81,65.91Zm4.5-3.7-.16.62c-3.16.79-6.19-.17-9.7-1l3.4-2.18Zm1.55-15.49a32.11,32.11,0,0,1-13.59,13A29.87,29.87,0,0,1,585.86,46.72Zm-15.2,1c2.42,2.35,2.24,5.54-.64,9.17C569.1,52.46,569.3,49.94,570.66,47.74ZM201.36,686.13c-3.83-3.53-8.61-4.32-13.63-4-1.61.09-3.28.49-3.72,2.37-.49,2.08,1,3.19,2.55,4s3.1,1.26,4.29,1.74c-.83,1-1.8,2-2.59,3.14a69.56,69.56,0,0,0-5.07,7.74c-1.13,2.2.29,3.82,2.75,3.46a7.08,7.08,0,0,0,2.94-1.06c2.67-1.81,5.23-3.77,7.88-5.71.29.85.56,1.86,1,2.81.63,1.39,1.31,2.88,3.22,2.74s2.59-1.57,2.95-3.06a23,23,0,0,0,.75-5.47C204.66,691.54,203.83,688.4,201.36,686.13Zm-14.09-.3c.07-.22.13-.43.2-.64,3.16-.57,6.21.14,9.63,1.19l-3.32,2.12Zm-1.45,15.59a31.38,31.38,0,0,1,13.57-13C196.36,694.24,191.62,698.37,185.82,701.42Zm15.24-.71c-2.51-3.46-2.31-6,.57-9.5A14,14,0,0,1,201.06,700.71ZM378.36,57.29a2.66,2.66,0,0,0,2.28.47c.49-.22.81-1.41.73-2.12A6.47,6.47,0,0,1,386,48.5c3.73,1,5.45,3.49,4.95,7.34-.17,1.29.25,2.21,1.58,2.15a3.55,3.55,0,0,0,2-1.1A11.14,11.14,0,0,0,397,45a11.47,11.47,0,0,0-21.4-.35C373.73,49,374.9,54.63,378.36,57.29Zm2.55-13.88a7.24,7.24,0,0,1,9.12-1c3.29,2,4.51,4.83,3.5,8.57C389,43.3,383.37,43.29,379,50.8,377.91,48.49,378.68,45.48,380.91,43.41ZM576.53,371.06a2.26,2.26,0,0,0-1.82.73,3,3,0,0,0,.15,2c.12.4.56.72.89,1a11.3,11.3,0,0,0,13.09,1.62,11.44,11.44,0,0,0,5.85-12.18,11.58,11.58,0,0,0-10-9.42,10.61,10.61,0,0,0-9.6,3.66,2.73,2.73,0,0,0-.39,2.3c.16.43,1.31.75,2,.68,3.43-.36,5.9,1.11,7.28,4.55C582.9,369.89,580.52,371.4,576.53,371.06Zm5.14-11.94c2.26-1.13,5.29-.37,7.37,1.86a7.27,7.27,0,0,1,1,9.12c-2,3.27-4.79,4.49-8.61,3.52C589.68,369.47,588.44,362.43,581.67,359.12ZM393.36,690.88a3.14,3.14,0,0,0-2.46-.49c-.4.12-.68,1.44-.6,2.17.37,3.36-1.47,6-5.14,7.08-3.52-1.4-4.81-3.66-4.49-7.47a2.38,2.38,0,0,0-.74-1.83,2.24,2.24,0,0,0-1.82.08,4.89,4.89,0,0,0-1.49,1.28,11.3,11.3,0,0,0-1.52,12.44c2,3.93,6.73,6.78,10.84,6.49a12,12,0,0,0,10.49-8.15C397.74,698.35,396.48,693.33,393.36,690.88Zm-2.69,13.81c-3.14,2.59-6.43,2.89-9.48.85a7.16,7.16,0,0,1-3-8.42c3.38,6.92,10.42,8.25,14.5.17A6.48,6.48,0,0,1,390.67,704.69ZM194.31,361.54a2.27,2.27,0,0,0,1.83-.71,2.58,2.58,0,0,0-.15-2,4.36,4.36,0,0,0-1.33-1.45,10.88,10.88,0,0,0-11.91-1.56,11.11,11.11,0,0,0-6.82,10.58c0,4.82,2.55,8.42,7,10.46s9.93.84,12.7-2.61a3.15,3.15,0,0,0,.53-2.46c-.12-.39-1.43-.7-2.16-.62-3.38.37-6-1.43-7.1-5.11C188.23,362.54,190.53,361.21,194.31,361.54Zm-4.78,12c-3.62,1-6.36,0-8.3-2.79-2.08-3-2.14-6-.17-8.86a7.24,7.24,0,0,1,8.47-2.87c-3.44,1.41-5.78,3.75-5.89,7.18C183.52,369.84,186.11,372,189.53,373.57ZM454.68,149.21c.25,2.91.92,5.78,1.41,8.68l.53-.07a79.44,79.44,0,0,0,1.31-8.2c.18-2.84,1.71-4.33,4.1-5.24,1.39-.53,2.84-.91,4.63-1.47-1.56-.41-2.72-.66-3.84-1-2.85-.93-4.8-2.46-4.93-5.88a60.3,60.3,0,0,0-1.33-8,44,44,0,0,0-1.93,8.94,4.84,4.84,0,0,1-3.26,4.31c-1.58.66-3.24,1.12-5.13,1.76,1.64.51,3,.88,4.39,1.39C452.87,145.21,454.44,146.52,454.68,149.21Zm-3.52,442a9.4,9.4,0,0,0,.11,1.19c.35,2.08.72,4.16,1.08,6.24l.52,0c.46-2.79,1.08-5.56,1.33-8.37s1.86-4.25,4.28-5.1c1.35-.47,2.74-.87,4.4-1.4-1.46-.39-2.61-.67-3.73-1-2.8-.85-4.75-2.33-5-5.6-.21-2.76-.86-5.48-1.31-8.22h-.52c-.36,2.27-.84,4.52-1.07,6.81-.32,3.25-1.31,5.93-4.81,6.9-1.26.35-2.53.68-4.23,1.13,1.28.37,2.14.66,3,.86C448.76,585.47,451,587.42,451.16,591.25ZM254.94,267c-.19-2.74-.84-5.45-1.29-8.17l-.51,0c-.37,2.32-.88,4.64-1.08,7-.3,3.41-1.55,6-5.12,6.89l-3.93,1c1.86.57,3.33.94,4.73,1.48,2.14.82,3.69,2.06,3.95,4.68.29,3,1,6,1.5,8.93a42.74,42.74,0,0,0,1.85-8.77,5.42,5.42,0,0,1,3.85-4.79c1.46-.57,3-.95,4.94-1.55-1.66-.42-2.83-.66-4-1C257.07,271.84,255.18,270.29,254.94,267ZM182.72,439.09a1.74,1.74,0,0,0,2.21-1.84c.08-1.52-.92-3-2.15-2.68-.87.19-1.59,1.08-3,2.09C181.13,437.81,181.82,438.86,182.72,439.09ZM588,434.53c-1.51.08-2.07,1.18-2.1,2.59s.91,2.21,2.08,2c.91-.18,1.66-1.18,2.48-1.81C590.09,435.43,589.48,434.46,588,434.53ZM181.76,425a3.52,3.52,0,0,0-.75,2.73c.36,1.56,1.75,1.49,3.2,1.14a2.43,2.43,0,0,0-.07-3.59A2.51,2.51,0,0,0,181.76,425Zm408.13.59c-1-1.13-2.13-1.46-3.13-.42a2.47,2.47,0,0,0-.15,3.65C589.49,429.33,590.23,428.61,589.89,425.56Zm-405-112.62a2.44,2.44,0,0,0,.09-3.61c-1.44-.35-2.83-.43-3.2,1.13a3.44,3.44,0,0,0,.74,2.73C182.87,313.56,184.44,313.4,184.92,312.94Zm402.58,0a2.49,2.49,0,0,0,2.37.28,3.49,3.49,0,0,0,.77-2.71c-.35-1.58-1.75-1.51-3.19-1.17A2.43,2.43,0,0,0,587.5,312.92ZM184.81,446.55a2,2,0,0,0-4,0c-.5,1.45.45,2.31,2,2.68C184.32,448.86,185.28,448,184.81,446.55ZM588,444.91a2.78,2.78,0,0,0-2,1.64c-.46,1.44.48,2.31,2,2.65,1.53-.36,2.48-1.23,2-2.67A2.77,2.77,0,0,0,588,444.91ZM438.77,702.64a2,2,0,0,0-2,2.38c.12.79,1,1.48,1.3,1.87,2.15,0,2.76-.85,2.77-2.1A1.89,1.89,0,0,0,438.77,702.64Zm-106.65,0a1.89,1.89,0,0,0-2.08,2.11c0,1.24.57,2.16,2.73,2.15.29-.38,1.22-1,1.34-1.84A2,2,0,0,0,332.12,702.64Zm.63-657.18c1.5.06,2-1,2.55-2.75A8.19,8.19,0,0,0,333,41.27c-1.38-.31-2.1.65-2.18,1.92A1.91,1.91,0,0,0,332.75,45.46Zm106.72-.08c1.28.39,2.1-.66,2.14-1.94s-.5-2.18-2.41-2.59c-.58.77-1.69,1.59-1.61,2.29A3.23,3.23,0,0,0,439.47,45.38Zm-216.7.34.89,0c.53-.78,1.4-1.51,1.5-2.35a1.79,1.79,0,0,0-2.08-2.06c-1.35.06-2.2.93-2,2.2C221.3,44.3,222.2,45,222.77,45.72Zm366,178c.86-.08,1.65-1,2.47-1.49,0-.33,0-.65,0-1-.79-.55-1.61-1.56-2.39-1.53a2.9,2.9,0,0,0-2,1.85A1.68,1.68,0,0,0,588.72,223.67Zm-405.67-4.4c-.49.84-1.42,1.72-1.34,2.51a2.83,2.83,0,0,0,1.93,1.88,1.68,1.68,0,0,0,2-2c-.17-.87-1.07-1.6-1.65-2.4ZM252.42,45.69l1,0c.56-.81,1.58-1.63,1.56-2.42A2.9,2.9,0,0,0,253,41.35a1.69,1.69,0,0,0-2.07,2C251.06,44.18,251.9,44.91,252.42,45.69Zm10,0h1c.55-.81,1.55-1.63,1.52-2.42A2.89,2.89,0,0,0,263,41.35a1.67,1.67,0,0,0-2.11,1.9C261,44.12,261.87,44.89,262.4,45.7Zm9.87,0,1,0c.57-.79,1.59-1.59,1.58-2.38a2.88,2.88,0,0,0-1.82-2,1.68,1.68,0,0,0-2.16,1.85C270.91,44.07,271.76,44.86,272.27,45.69Zm10,0h.94c.54-.83,1.54-1.68,1.49-2.47a2.9,2.9,0,0,0-2-1.89,1.68,1.68,0,0,0-2,2C280.9,44.23,281.77,44.94,282.31,45.71Zm306.41,164a3,3,0,0,0-1.89,1.95,1.69,1.69,0,0,0,2,2.05c.86-.13,1.6-1.05,2.4-1.62l0-1C590.36,210.64,589.49,209.68,588.72,209.74ZM302.16,45.7h.95c.55-.82,1.55-1.67,1.5-2.45a2.9,2.9,0,0,0-1.94-1.91,1.69,1.69,0,0,0-2,2C300.77,44.22,301.63,44.94,302.16,45.7ZM183,514.5c-.87.07-1.66,1-2.49,1.47l0,1c.79.56,1.6,1.57,2.38,1.55a2.9,2.9,0,0,0,2-1.83A1.69,1.69,0,0,0,183,514.5Zm40,187.94-.9-.06c-.59.72-1.51,1.36-1.71,2.17-.31,1.26.52,2.16,1.86,2.28a1.8,1.8,0,0,0,2.16-2C224.29,704,223.46,703.24,223,702.44ZM449.46,45.71h.9c.54-.76,1.42-1.46,1.56-2.29.22-1.27-.66-2.12-2-2.15a1.81,1.81,0,0,0-2,2.13C448,44.23,448.91,44.94,449.46,45.71Zm10.88,0c.53-.76,1.4-1.48,1.52-2.31a1.69,1.69,0,0,0-2-2,2.9,2.9,0,0,0-1.94,1.91c-.05.78,1,1.63,1.5,2.45ZM232.11,702.81c-1.24-.17-1.94.83-1.88,2s.93,2.21,2.22,1.92c.83-.18,1.51-1.07,2.26-1.64l0-.9A8.11,8.11,0,0,0,232.11,702.81Zm247-657.14.89.06c.59-.72,1.51-1.37,1.7-2.19a1.82,1.82,0,0,0-1.88-2.26,1.79,1.79,0,0,0-2.14,2C477.79,44.12,478.63,44.88,479.14,45.67Zm10.91,0c.57-.79,1.48-1.52,1.62-2.38a1.66,1.66,0,0,0-2-2,2.88,2.88,0,0,0-2,1.86c-.07.78.89,1.65,1.4,2.48Zm10,0c.56-.8,1.47-1.53,1.6-2.39a1.67,1.67,0,0,0-2-2,2.87,2.87,0,0,0-1.94,1.87c-.06.78.9,1.65,1.42,2.47Zm9,0,.93,0c.57-.8,1.61-1.61,1.59-2.39a2.93,2.93,0,0,0-1.88-2,1.68,1.68,0,0,0-2.1,1.95C507.61,44.14,508.46,44.89,509,45.68ZM586,586.11a2.92,2.92,0,0,0,1.88,1.95c.78.06,1.64-.9,2.47-1.41,0-.32,0-.65,0-1-.79-.56-1.53-1.48-2.39-1.61A1.68,1.68,0,0,0,586,586.11ZM261.7,702.39c-.56.79-1.47,1.53-1.6,2.39a1.67,1.67,0,0,0,2,2,2.89,2.89,0,0,0,1.94-1.87c.06-.79-.9-1.65-1.42-2.47ZM538.92,45.71h.89c.55-.76,1.42-1.46,1.56-2.29.22-1.27-.66-2.12-2-2.15a1.81,1.81,0,0,0-2,2.14C537.46,44.23,538.36,44.94,538.92,45.71ZM271.62,702.39c-.55.8-1.45,1.54-1.58,2.4a1.67,1.67,0,0,0,2,2,2.9,2.9,0,0,0,1.93-1.88c.06-.79-.91-1.64-1.44-2.47Zm-86-619.87a2.9,2.9,0,0,0-1.86-2c-.77-.08-1.65.87-2.48,1.37l0,1c.78.58,1.51,1.52,2.36,1.66A1.69,1.69,0,0,0,185.61,82.52Zm401.22-.07a1.69,1.69,0,0,0,1.95,2.08c.86-.11,1.62-1,2.42-1.57V82c-.81-.53-1.66-1.51-2.44-1.46A2.91,2.91,0,0,0,586.83,82.45Zm-401.22,10a2.9,2.9,0,0,0-1.87-2c-.77-.08-1.65.88-2.48,1.39l0,1c.79.57,1.52,1.5,2.38,1.64A1.69,1.69,0,0,0,185.61,92.44Zm403.11-2a2.93,2.93,0,0,0-1.89,2,1.69,1.69,0,0,0,2,2c.86-.13,1.61-1,2.4-1.62,0-.32,0-.64,0-1C590.36,91.37,589.5,90.41,588.72,90.47Zm-405,13.94a1.7,1.7,0,0,0,1.87-2.16,2.93,2.93,0,0,0-2-1.84c-.78,0-1.58,1-2.38,1.56l0,1C182.08,103.46,182.88,104.33,183.74,104.41ZM289.93,704.66a1.67,1.67,0,0,0,1.89,2.11c.88-.11,1.67-1,2.49-1.47l0-.92c-.8-.55-1.62-1.54-2.41-1.53A2.85,2.85,0,0,0,289.93,704.66ZM185.61,112.34a2.92,2.92,0,0,0-1.85-2c-.77-.08-1.66.87-2.49,1.37l0,1c.78.58,1.5,1.52,2.36,1.67A1.69,1.69,0,0,0,185.61,112.34Zm403.11-2a2.93,2.93,0,0,0-1.89,2,1.69,1.69,0,0,0,2,2c.86-.13,1.6-1,2.4-1.62l0-1C590.36,111.25,589.49,110.29,588.72,110.35ZM302.44,702.43l-.89,0c-.59.73-1.5,1.38-1.69,2.2-.29,1.26.54,2.15,1.89,2.25a1.8,1.8,0,0,0,2.13-2C303.8,704,303,703.22,302.44,702.43Zm8.8,0c-.51.79-1.35,1.53-1.46,2.36a1.7,1.7,0,0,0,2.09,2,2.88,2.88,0,0,0,1.89-2c0-.78-1-1.6-1.57-2.4Zm138.4,0-.95,0c-.56.81-1.57,1.65-1.54,2.43a2.91,2.91,0,0,0,1.92,1.94,1.7,1.7,0,0,0,2.06-2C451,703.91,450.16,703.19,449.64,702.41Zm139.1-568.19c.86-.09,1.64-1,2.45-1.51,0-.33,0-.65,0-1-.81-.55-1.63-1.54-2.41-1.51a2.94,2.94,0,0,0-2,1.87A1.69,1.69,0,0,0,588.74,134.22Zm-405.15,9.95a1.7,1.7,0,0,0,2-2,2.92,2.92,0,0,0-1.86-2c-.77-.08-1.65.87-2.49,1.37l0,1C182,143.09,182.74,144,183.59,144.17Zm405.11-4a2.91,2.91,0,0,0-1.87,2,1.68,1.68,0,0,0,2,2c.86-.13,1.59-1.06,2.38-1.64l0-1C590.35,141.05,589.47,140.1,588.7,140.17ZM457.05,704.64a1.67,1.67,0,0,0,1.87,2.13c.88-.11,1.68-.94,2.51-1.45,0-.31,0-.61,0-.92-.8-.56-1.6-1.56-2.39-1.55A2.86,2.86,0,0,0,457.05,704.64Zm29.81.09a2.85,2.85,0,0,0,1.87,2c.8.07,1.68-.89,2.53-1.41l0-.92c-.75-.55-1.45-1.4-2.28-1.58A1.7,1.7,0,0,0,486.86,704.73ZM183.21,159.6c-.54.81-1.54,1.63-1.51,2.42a2.85,2.85,0,0,0,1.8,2,1.69,1.69,0,0,0,2.12-1.91c-.11-.88-1-1.67-1.48-2.5Zm405.49.45a3,3,0,0,0-1.87,2,1.69,1.69,0,0,0,2,2c.86-.14,1.58-1.07,2.37-1.64l0-1C590.35,160.93,589.47,160,588.7,160.05ZM183.59,174a1.69,1.69,0,0,0,2-2,2.9,2.9,0,0,0-1.86-2c-.77-.08-1.65.87-2.49,1.37l0,1C182,172.9,182.74,173.84,183.59,174Zm403.25-2.16A1.69,1.69,0,0,0,588.7,174c.86-.08,1.66-.95,2.48-1.47l0-1c-.79-.57-1.6-1.59-2.38-1.56A2.88,2.88,0,0,0,586.84,171.82ZM185.62,182c-.13-.88-1-1.65-1.54-2.46h-.92c-.53.82-1.5,1.66-1.46,2.45a2.85,2.85,0,0,0,1.85,2A1.69,1.69,0,0,0,185.62,182ZM499.25,702.4h-.94c-.53.83-1.52,1.69-1.46,2.47a2.9,2.9,0,0,0,2,1.88,1.69,1.69,0,0,0,2-2.07C500.68,703.86,499.8,703.15,499.25,702.4Zm-318-510.06c.82.54,1.59,1.43,2.46,1.52a1.7,1.7,0,0,0,1.9-2.13,2.94,2.94,0,0,0-2-1.87c-.78,0-1.61,1-2.41,1.52ZM589,189.84c-1.21-.34-2.15.46-2.26,1.8a1.83,1.83,0,0,0,1.9,2.22c.84,0,1.64-.82,2.45-1.27,0-.3.08-.59.11-.89C590.51,191.05,589.87,190.07,589,189.84Zm-80.36,513a2.83,2.83,0,0,0-1.93,1.89,1.66,1.66,0,0,0,2,2c.88-.16,1.63-1,2.44-1.58,0-.31,0-.61,0-.92C510.31,703.75,509.45,702.8,508.67,702.86Zm20.48-.45h-.95c-.56.8-1.57,1.61-1.55,2.4a2.9,2.9,0,0,0,1.86,2,1.68,1.68,0,0,0,2.12-1.89C530.54,704,529.67,703.23,529.15,702.41Zm9.88,0h-.95c-.54.81-1.52,1.65-1.48,2.43s1.11,1.73,1.89,1.92a1.68,1.68,0,0,0,2.08-1.93C540.46,704,539.57,703.21,539,702.4Zm47-245.5a2.88,2.88,0,0,0,1.87,2c.78.08,1.65-.88,2.47-1.39l0-1c-.79-.57-1.52-1.5-2.38-1.63A1.69,1.69,0,0,0,586,456.9ZM182.69,468.82a1.66,1.66,0,0,0,2.13-1.86c-.11-.89-.95-1.69-1.46-2.53l-.91,0c-.56.8-1.56,1.61-1.54,2.41A2.83,2.83,0,0,0,182.69,468.82Zm405.26-4a1.69,1.69,0,0,0-1.91,2.12,2.86,2.86,0,0,0,2,1.87c.78,0,1.61-1,2.42-1.5,0-.32,0-.64,0-1C589.58,465.79,588.81,464.9,588,464.8Zm-407.51,82c.81.54,1.63,1.54,2.41,1.51a2.92,2.92,0,0,0,2-1.87,1.69,1.69,0,0,0-1.9-2.13c-.86.09-1.64,1-2.45,1.52Zm4.39-70c-.16-.89-1-1.64-1.59-2.46h-.92c-.51.83-1.46,1.69-1.41,2.49a2.86,2.86,0,0,0,1.88,1.93A1.67,1.67,0,0,0,184.83,476.8ZM588,478.73c.78.06,1.62-.93,2.44-1.46,0-.32,0-.64,0-1-.81-.55-1.57-1.46-2.43-1.57a1.68,1.68,0,0,0-1.94,2.08A2.88,2.88,0,0,0,588,478.73ZM182.4,484.28c-.54.81-1.52,1.63-1.5,2.43a2.85,2.85,0,0,0,1.82,2,1.67,1.67,0,0,0,2.11-1.9c-.13-.89-1-1.68-1.5-2.51Zm.42,14.33a2.9,2.9,0,0,0,2-1.83,1.69,1.69,0,0,0-1.86-2.16c-.87.08-1.66.95-2.49,1.47l0,1C181.23,497.62,182,498.64,182.82,498.61Zm403.22,8a2.88,2.88,0,0,0,1.89,1.93c.77.07,1.64-.89,2.46-1.41l0-1c-.79-.57-1.53-1.49-2.39-1.61A1.68,1.68,0,0,0,586,506.61ZM183,524.43c-.83,0-1.63.82-2.45,1.27l-.11.89c.73.65,1.37,1.64,2.21,1.87a1.78,1.78,0,0,0,2.26-1.81A1.83,1.83,0,0,0,183,524.43Zm404.93,4c.77.08,1.65-.88,2.48-1.39l0-1c-.78-.58-1.51-1.51-2.37-1.65a1.68,1.68,0,0,0-2,2A2.9,2.9,0,0,0,587.9,528.43Zm0,5.94a1.7,1.7,0,0,0-1.84,2.19,2.93,2.93,0,0,0,2,1.81c.78,0,1.57-1,2.36-1.59,0-.32,0-.65,0-1C589.55,535.3,588.74,534.43,587.88,534.37Zm-405,89.45c-.86.11-1.62,1-2.42,1.58v1c.82.53,1.67,1.51,2.44,1.46a2.92,2.92,0,0,0,1.92-1.92A1.69,1.69,0,0,0,182.87,623.82Zm405.18-79.51a1.69,1.69,0,0,0-2,2,2.88,2.88,0,0,0,1.86,2c.77.08,1.65-.87,2.48-1.37l0-1C589.63,545.38,588.9,544.45,588.05,544.31Zm-405.78,9.57c-.5.84-1.43,1.72-1.36,2.51a2.82,2.82,0,0,0,1.92,1.89,1.67,1.67,0,0,0,2-2c-.18-.88-1.07-1.62-1.65-2.42Zm405.63.37a1.7,1.7,0,0,0-1.86,2.17,2.87,2.87,0,0,0,2,1.82c.78,0,1.58-1,2.37-1.56l0-1C589.56,555.2,588.76,554.32,587.9,554.25ZM183,564.19c-.87.07-1.67.94-2.49,1.45l0,1c.79.57,1.59,1.59,2.37,1.58a2.91,2.91,0,0,0,2-1.83A1.69,1.69,0,0,0,183,564.19Zm0,13.93a2.88,2.88,0,0,0,1.85-2,1.68,1.68,0,0,0-2-2c-.86.14-1.58,1.08-2.37,1.66l0,1C181.3,577.25,182.19,578.2,183,578.12ZM591.18,290.67c-.82-.52-1.69-1.48-2.46-1.41a2.91,2.91,0,0,0-1.89,1.94,1.69,1.69,0,0,0,2,2.05c.86-.13,1.6-1.05,2.4-1.62ZM182.33,593.61c-.52.84-1.47,1.7-1.42,2.49a2.83,2.83,0,0,0,1.88,1.94,1.67,1.67,0,0,0,2-2c-.16-.88-1-1.64-1.58-2.45Zm.29,14.36a1.78,1.78,0,0,0,2.26-1.81,1.84,1.84,0,0,0-1.91-2.22c-.83,0-1.63.82-2.45,1.27,0,.3-.07.6-.11.89C181.14,606.75,181.78,607.74,182.62,608Zm405.35,0c.78,0,1.62-.94,2.43-1.47v-1c-.8-.55-1.57-1.45-2.43-1.56A1.69,1.69,0,0,0,586,606,2.9,2.9,0,0,0,588,607.94Zm0,9.94c.78,0,1.62-.94,2.43-1.48v-1c-.8-.55-1.57-1.45-2.43-1.56A1.69,1.69,0,0,0,586,616,2.92,2.92,0,0,0,588,617.88Zm0,5.94a1.69,1.69,0,0,0-2,2.07,2.91,2.91,0,0,0,1.9,1.93c.78.06,1.63-.92,2.45-1.44,0-.32,0-.64,0-1C589.61,624.86,588.86,623.94,588,623.82Zm-403.17,12c-.16-.89-1-1.64-1.59-2.46l-.92,0c-.51.83-1.46,1.69-1.41,2.48a2.86,2.86,0,0,0,1.88,1.93A1.67,1.67,0,0,0,184.83,635.82Zm401.21,0a2.89,2.89,0,0,0,1.93,1.89c.78,0,1.62-.93,2.43-1.47v-1c-.8-.55-1.57-1.45-2.43-1.56A1.69,1.69,0,0,0,586,635.86Zm2.56-362.5c.87,0,1.71-.86,2.56-1.34l.06-1c-.76-.61-1.52-1.67-2.3-1.69a2.91,2.91,0,0,0-2.08,1.74A1.7,1.7,0,0,0,588.6,273.36Zm-407.35-1.51c.82.53,1.59,1.43,2.45,1.52a1.69,1.69,0,0,0,1.91-2.13,2.94,2.94,0,0,0-2-1.87c-.78,0-1.6,1-2.41,1.51Zm-.79,374.43c.83.52,1.69,1.48,2.47,1.42a2.89,2.89,0,0,0,1.88-2,1.68,1.68,0,0,0-2-2c-.86.13-1.6,1-2.39,1.62Zm4.35,9.53a1.69,1.69,0,0,0-1.85-2.17c-.87.07-1.67.94-2.49,1.46l0,1c.8.56,1.6,1.58,2.38,1.57A2.91,2.91,0,0,0,184.81,655.81ZM588,663.58A1.69,1.69,0,0,0,586,665.7a2.91,2.91,0,0,0,2,1.87c.78,0,1.61-1,2.42-1.5v-1C589.59,664.57,588.81,663.67,588,663.58ZM183.62,263.42a1.68,1.68,0,0,0,2-2c-.16-.87-1.06-1.61-1.63-2.41l-.92,0c-.5.83-1.44,1.71-1.37,2.5A2.88,2.88,0,0,0,183.62,263.42Zm403.21,37.64a1.69,1.69,0,0,0,1.91,2.12c.86-.09,1.64-1,2.45-1.52,0-.32,0-.64,0-1-.8-.54-1.63-1.53-2.41-1.49A2.9,2.9,0,0,0,586.83,301.06Zm2-47.57c.86-.13,1.6-1.05,2.4-1.62l0-1c-.83-.51-1.69-1.48-2.47-1.41a2.91,2.91,0,0,0-1.89,1.94A1.69,1.69,0,0,0,588.81,253.49Zm-403.2-2.15a2.89,2.89,0,0,0-2-1.84c-.78,0-1.59,1-2.39,1.54l0,1c.82.52,1.61,1.4,2.47,1.48A1.7,1.7,0,0,0,185.61,251.34Zm403.09-7.79c.86-.08,1.66-1,2.48-1.47l0-1c-.8-.56-1.6-1.57-2.38-1.55a2.9,2.9,0,0,0-2,1.83A1.69,1.69,0,0,0,588.7,243.55Zm-403.1-2.16a2.88,2.88,0,0,0-2-1.83c-.78,0-1.58,1-2.38,1.55l0,1c.82.52,1.62,1.39,2.48,1.47A1.69,1.69,0,0,0,185.6,241.39Zm-1.86,61.79A1.69,1.69,0,0,0,185.6,301a2.88,2.88,0,0,0-2-1.83c-.78,0-1.58,1-2.38,1.55l0,1C182.08,302.23,182.88,303.11,183.74,303.18ZM232.5,45.68l.95,0c.57-.8,1.61-1.61,1.6-2.4a2.92,2.92,0,0,0-1.88-2,1.69,1.69,0,0,0-2.1,2C231.16,44.14,232,44.9,232.5,45.68Zm10.12,0,.95,0c.52-.83,1.48-1.69,1.42-2.47a2.9,2.9,0,0,0-2-1.87,1.68,1.68,0,0,0-2,2C241.15,44.19,242.05,44.93,242.62,45.72Zm49.73,0,.9,0c.52-.78,1.39-1.53,1.49-2.36a1.8,1.8,0,0,0-2.1-2c-1.34.08-2.2.94-1.93,2.21C290.88,44.31,291.78,45,292.35,45.73Zm19.75,0h.95c.55-.82,1.55-1.67,1.5-2.45a2.9,2.9,0,0,0-1.94-1.91,1.69,1.69,0,0,0-2,2C310.71,44.22,311.57,44.94,312.1,45.7Zm9.89,0,.95,0c.56-.81,1.58-1.64,1.56-2.42a2.9,2.9,0,0,0-1.91-1.95,1.7,1.7,0,0,0-2.07,2C320.63,44.18,321.48,44.92,322,45.69Zm147.17,0,.93.08c.6-.79,1.65-1.57,1.65-2.35a2.93,2.93,0,0,0-1.82-2,1.68,1.68,0,0,0-2.15,1.9C467.83,44.09,468.67,44.86,469.16,45.66Zm50.84,0c.52-.82,1.4-1.6,1.49-2.46a1.68,1.68,0,0,0-2.12-1.89,2.86,2.86,0,0,0-1.86,2c0,.78,1,1.6,1.53,2.4Zm8.83,0,.94,0c.58-.79,1.62-1.59,1.6-2.38a2.93,2.93,0,0,0-1.86-2,1.68,1.68,0,0,0-2.11,1.94C527.48,44.12,528.33,44.88,528.83,45.68Zm20.92,0c.54-.76,1.42-1.46,1.56-2.29a1.69,1.69,0,0,0-2-2.07,2.9,2.9,0,0,0-2,1.88c-.05.78.94,1.64,1.47,2.47Zm39,54.71c-.71,0-1.71,1.15-1.89,1.94a1.69,1.69,0,0,0,2,2c.86-.13,1.6-1,2.4-1.61,0-.32,0-.64,0-1C590.36,101.32,589.5,100.35,588.72,100.42Zm-403.1,22c-.1-.88-.94-1.68-1.45-2.52l-.92,0c-.56.8-1.57,1.61-1.55,2.39a2.84,2.84,0,0,0,1.78,2A1.69,1.69,0,0,0,185.62,122.39Zm401.22-.27a1.69,1.69,0,0,0,1.86,2.16c.86-.07,1.66-.94,2.48-1.46l0-1c-.79-.56-1.6-1.58-2.38-1.56A2.9,2.9,0,0,0,586.84,122.12Zm-405.6,10.55c.81.54,1.57,1.45,2.44,1.56a1.69,1.69,0,0,0,1.93-2.1,2.89,2.89,0,0,0-1.93-1.89c-.78-.05-1.62.93-2.44,1.46Zm4.38,19.38c-.17-.87-1.07-1.61-1.65-2.4l-.91,0c-.5.84-1.43,1.73-1.35,2.51a2.82,2.82,0,0,0,1.92,1.89A1.69,1.69,0,0,0,185.62,152.05Zm403.14-1.94a2.9,2.9,0,0,0-1.93,1.9,1.69,1.69,0,0,0,1.95,2.09c.86-.11,1.62-1,2.42-1.57v-1C590.38,151,589.54,150.06,588.76,150.11Zm-1.92,31.64a1.69,1.69,0,0,0,1.85,2.17c.87-.07,1.66-.95,2.49-1.46l0-1c-.79-.56-1.59-1.58-2.37-1.56A2.87,2.87,0,0,0,586.84,181.75ZM183.07,278.89c-.5.84-1.44,1.72-1.36,2.5a2.85,2.85,0,0,0,1.91,1.91,1.69,1.69,0,0,0,2-2c-.16-.88-1.06-1.61-1.63-2.41Zm-.22,176c-.86.12-1.61,1-2.41,1.6l0,1c.82.52,1.67,1.49,2.45,1.43a2.87,2.87,0,0,0,1.9-1.92A1.69,1.69,0,0,0,182.85,454.86ZM549,702.41l-.94,0c-.57.81-1.59,1.63-1.56,2.42s1.12,1.77,1.91,2a1.69,1.69,0,0,0,2.07-2C550.4,703.93,549.56,703.19,549,702.41ZM588,498.61c.78.05,1.62-.93,2.44-1.46v-1c-.8-.55-1.56-1.45-2.42-1.56A1.68,1.68,0,0,0,586,496.7,2.91,2.91,0,0,0,588,498.61Zm-402.35-287a2.9,2.9,0,0,0-2-1.86c-.78,0-1.6.95-2.41,1.49v1c.81.54,1.59,1.43,2.45,1.53A1.7,1.7,0,0,0,185.61,211.61Zm403.06,22c.87-.06,1.67-.93,2.51-1.43,0-.33,0-.65,0-1-.79-.58-1.58-1.6-2.36-1.59a2.91,2.91,0,0,0-2,1.8A1.69,1.69,0,0,0,588.67,233.61Zm-404.92,0a1.68,1.68,0,0,0,1.85-2.17,2.87,2.87,0,0,0-2-1.82c-.77,0-1.58,1-2.37,1.56l0,1C182.09,232.67,182.89,233.54,183.75,233.61Zm69,468.81-.94,0c-.57.8-1.6,1.62-1.57,2.4a3,3,0,0,0,1.89,2,1.69,1.69,0,0,0,2.09-2C254.1,704,253.23,703.21,252.72,702.42ZM588.05,594a1.7,1.7,0,0,0-2,2,2.92,2.92,0,0,0,1.86,2c.77.08,1.65-.87,2.48-1.38l0-1C589.63,595.08,588.9,594.14,588.05,594Zm0-19.87a1.68,1.68,0,0,0-2,2,2.9,2.9,0,0,0,1.87,2c.78.07,1.65-.89,2.48-1.4l0-1C589.62,575.19,588.89,574.26,588,574.13Zm-405.2,9.94c-.86.12-1.6,1-2.39,1.62l0,1c.83.51,1.69,1.48,2.47,1.41a2.89,2.89,0,0,0,1.88-1.95A1.68,1.68,0,0,0,182.83,584.07Zm59,118.32c-.56.79-1.47,1.53-1.6,2.39a1.67,1.67,0,0,0,2,2,2.88,2.88,0,0,0,1.94-1.88c.06-.78-.9-1.64-1.43-2.46ZM588.75,199.8a2.93,2.93,0,0,0-1.92,1.91,1.7,1.7,0,0,0,1.95,2.09c.86-.12,1.62-1,2.42-1.58,0-.32,0-.64,0-1C590.38,200.73,589.53,199.75,588.75,199.8Zm-405,4a1.7,1.7,0,0,0,1.86-2.17,2.91,2.91,0,0,0-2-1.83c-.78,0-1.59,1-2.38,1.56l0,1C182.09,202.85,182.89,203.73,183.75,203.8ZM586,486.74a2.89,2.89,0,0,0,1.9,1.93c.78.07,1.63-.91,2.45-1.43,0-.32,0-.64,0-1-.8-.56-1.55-1.47-2.41-1.59A1.68,1.68,0,0,0,586,486.74ZM184.82,616c-.11-.89-.94-1.69-1.45-2.53l-.92,0c-.56.81-1.55,1.62-1.54,2.41a2.83,2.83,0,0,0,1.77,2A1.67,1.67,0,0,0,184.82,616Zm-3.57-324.29c.82.53,1.61,1.41,2.47,1.5a1.7,1.7,0,0,0,1.89-2.15,2.9,2.9,0,0,0-2-1.84c-.78,0-1.59,1-2.39,1.52Zm-.79,215.41c.83.51,1.71,1.46,2.48,1.39a2.9,2.9,0,0,0,1.87-2,1.69,1.69,0,0,0-2-2c-.86.14-1.6,1.07-2.39,1.65ZM587.88,643.7a1.7,1.7,0,0,0-1.84,2.19,2.91,2.91,0,0,0,2,1.81c.78,0,1.57-1,2.36-1.59l0-1C589.55,644.63,588.74,643.76,587.88,643.7ZM281.44,702.41c-.52.83-1.38,1.61-1.47,2.48a1.68,1.68,0,0,0,2.14,1.87,2.92,2.92,0,0,0,1.84-2c0-.78-1-1.59-1.55-2.38Zm307.17-439c.86,0,1.7-.86,2.55-1.34l.06-1c-.76-.61-1.52-1.66-2.3-1.68a2.87,2.87,0,0,0-2.08,1.73A1.7,1.7,0,0,0,588.61,263.42ZM184.83,536.49c-.14-.89-1-1.67-1.52-2.5l-.91,0c-.54.81-1.52,1.65-1.5,2.45a2.83,2.83,0,0,0,1.83,2A1.67,1.67,0,0,0,184.83,536.49ZM586,655.66a2.9,2.9,0,0,0,1.86,2c.77.08,1.65-.87,2.48-1.38l0-1c-.79-.58-1.52-1.51-2.37-1.65A1.68,1.68,0,0,0,586,655.66Zm-266.3,49a2.9,2.9,0,0,0,1.86,2c.78.08,1.68-.88,2.52-1.38l0-.91c-.76-.56-1.44-1.43-2.28-1.62A1.67,1.67,0,0,0,319.74,704.7Zm-134.92-39c-.11-.89-.94-1.69-1.46-2.53l-.91,0c-.56.8-1.56,1.61-1.55,2.4a2.87,2.87,0,0,0,1.78,2A1.67,1.67,0,0,0,184.82,665.74Zm284.74,36.68-.95,0c-.58.8-1.61,1.62-1.58,2.4s1.1,1.78,1.89,2a1.69,1.69,0,0,0,2.08-2C470.9,704,470.06,703.2,469.56,702.42Zm7.36,2.29a1.67,1.67,0,0,0,1.94,2.06c.88-.14,1.65-1,2.47-1.53v-.92c-.82-.53-1.66-1.51-2.45-1.47A2.84,2.84,0,0,0,476.92,704.71ZM588,518.49c.78,0,1.63-.92,2.44-1.45,0-.32,0-.65,0-1-.81-.55-1.56-1.46-2.42-1.58a1.7,1.7,0,0,0-2,2.09A2.91,2.91,0,0,0,588,518.49Zm0,49.7c.78,0,1.61-1,2.42-1.49v-1c-.81-.54-1.57-1.44-2.44-1.54A1.69,1.69,0,0,0,586,566.3,2.92,2.92,0,0,0,588,568.19ZM518.56,702.86a2.88,2.88,0,0,0-1.88,1.94,1.65,1.65,0,0,0,2,2c.88-.18,1.61-1.06,2.41-1.63l-.05-.93C520.22,703.72,519.34,702.79,518.56,702.86Zm72.63-422.13c-.83-.52-1.69-1.48-2.47-1.42a2.93,2.93,0,0,0-1.89,1.95,1.69,1.69,0,0,0,2,2.05c.86-.13,1.6-1.05,2.4-1.62Zm-263.8,19.15c-3.92-1.88-7.13-1-8.9,3a39.5,39.5,0,0,0-2,7.05c.48,7.91,2.14,13.93,6.85,18.75,2.61,2.66,5.71,3.77,9.41,2.56s5.54-4.11,6-7.86c.77-5.77-.86-11-3.79-15.91A18.31,18.31,0,0,0,327.39,299.88ZM333.25,327c.08-1.34.09-2.43.22-3.51.26-2.16.72-4.31.83-6.48.06-1.05-.5-2.13-.94-3.82l-3,2.57c-.65-1.72-1.26-3.49-2-5.21s-1.48-3.4-3.78-4.15c-2.3,3.89.41,7.35.77,11h-3.42c.72,5.23,5.77,6.88,7.61,10.73-2.93,0-6.78-4.2-8.49-9.73-1.78-5.79-2.69-11.58,1.79-17,6.92,1.68,9.58,6.75,11.55,12.37S336,324.57,333.25,327Zm4.41,52.44a1.85,1.85,0,0,0,1.92,2.23c1.33,0,2.25-.8,2.08-2.05-.13-.87-1-1.63-1.56-2.44h-.91C338.65,377.93,337.8,378.62,337.66,379.44Zm10.33,1a1.73,1.73,0,0,0-1.86-2.22c-.82.09-1.56,1-2.33,1.47l0,.93c.8.59,1.57,1.55,2.4,1.62C346.76,382.29,347.83,381.19,348,380.45Zm8.13-4.37c.55.15,1.42-.83,2.14-1.3l0-.83c-.69-.51-1.42-1.46-2.07-1.42s-1.36,1-2,1.59C354.82,374.81,355.35,375.87,356.12,376.08Zm-3.89,4.1c.74-.15,1.34-1.07,2.49-2.06-1.23-.88-2-1.86-2.63-1.76a2.75,2.75,0,0,0-1.73,1.88A1.58,1.58,0,0,0,352.23,380.18ZM447.81,330a16.32,16.32,0,0,0,3.72-3.79,29.4,29.4,0,0,0,4.92-14.81,54.85,54.85,0,0,0-1.31-6.78c-1.87-5.8-6.22-7.2-11.29-3.81-6.7,4.48-11.24,15.28-9.75,23.22C435.38,330.84,442.37,333.93,447.81,330Zm-9.42-16c1.91-5.79,4.63-11,11.51-12.6,4.29,4.67,3.78,10,2.39,15.22-1.34,5.09-3.59,9.7-9.33,12.07,2.19-4.33,7.15-6.05,8-11.25h-3.48c.53-3.6,2.87-7.09.92-11.22-4.18,2.2-4.24,6.32-5.92,9.6l-2.92-2.61c-.47,1.67-1.05,2.73-1,3.77.1,2.17.55,4.32.81,6.49a9.66,9.66,0,0,1-.08,3.3C436.38,322.66,437,318.28,438.39,314Zm-5.55,63.21c-.58.79-1.51,1.51-1.66,2.38a2,2,0,1,0,4,0c-.1-.83-.91-1.56-1.41-2.33Zm-6.19,1.08a1.73,1.73,0,0,0-1.8,2.28c.18.73,1.3,1.8,1.87,1.73.84-.1,1.57-1.09,2.35-1.71,0-.31,0-.62-.05-.93C428.23,379.13,427.47,378.29,426.65,378.24Zm-6-1.88c-.62-.06-1.34,1-2.51,1.94,1.21.91,1.86,1.78,2.61,1.88a1.58,1.58,0,0,0,1.74-2.05A2.73,2.73,0,0,0,420.63,376.36Zm-4-3.81c-.61,0-1.59,1.12-1.66,1.81s.85,1.42,1.34,2.13h.89c.48-.79,1.38-1.61,1.32-2.36A2.49,2.49,0,0,0,416.64,372.55ZM393.46,220.31c2-3.35,2.59-7,2.62-11.64-.16-4.62-1.2-9.76-4.67-14.09s-7.62-4.33-11.18-.22c-5.38,6.21-6.44,19.06-2.15,26.07C381.88,226.64,389.76,226.59,393.46,220.31Zm-9.67,1.18c-4.24-3.18-5.09-7.62-5.13-12.14-.05-6.14.93-12,6.92-15.81,5,2.39,6.41,6.87,7,11.57.71,5.92.47,11.77-4.85,16.55.37-4.93,5.14-8.06,3.95-13.48l-3.4,1.45c-.54-3.55.74-7.6-2.5-11.07-3.13,3.4-2.13,7.36-2.64,10.91l-3.25-1.27C378.81,213.58,383.11,216.8,383.79,221.49Zm-.74,56.21c.69.05,1.46-1,2.2-1.6v-.9c-.76-.52-1.48-1.4-2.29-1.5a1.69,1.69,0,0,0-1.9,2.16A2.9,2.9,0,0,0,383.05,277.7Zm-8-4.54c.14.82,1,1.53,1.49,2.3h.92c.56-.81,1.48-1.58,1.59-2.45.17-1.23-.78-2-2.1-2A1.78,1.78,0,0,0,375.09,273.16Zm19.11,1.95c.68-.64,1.73-1.19,1.92-1.95.14-.56-.85-1.4-1.33-2.11l-.85,0c-.5.69-1.46,1.43-1.39,2.06S393.61,274.44,394.2,275.11Zm-5,2.47a3.43,3.43,0,0,0,1.89-2c.13-.41-1-1.73-1.54-1.71-.79,0-1.55.89-2.32,1.39l0,.89C387.85,276.65,388.72,277.73,389.17,277.58ZM369.05,116.77c.58.44,1.1,1.17,1.73,1.28a32.87,32.87,0,0,0,5.33.45c7.21.07,14.42.06,21.63.07,1.24,0,2.72.32,3.06-1.4s-1.14-2-2.32-2.36c-.12,0-.2-.16-.47-.41q-.43-13.35-.88-27.08c1.69-.37,3.21-.88,2.78-2.81s-2.14-1.59-3.58-1.58c-1.72,0-3.45,0-5.17,0-6.34.11-12.69.2-19,.37-1.19,0-2.92-.15-3,1.52,0,.8,1.3,1.63,2.26,2.72.3,8.7.62,17.87.95,27.25a5.27,5.27,0,0,0-1.64.39A13.79,13.79,0,0,0,369.05,116.77Zm18.23-29.49H394c-.28,9.15-.57,18.17-.86,27.32h-5.85Zm-4.66-.16V114.4l-5.57.37c-.38-9.32-.76-18.47-1.15-27.65Z"/></svg>