<svg xmlns="http://www.w3.org/2000/svg" viewBox="0 0 750 750"><path d="M606.11,375.1V50.62c0-1.19,0-2.38,0-3.57-.28-12.76-9.76-22-22.52-22H186.53a21.88,21.88,0,0,0-21.94,22q0,328,0,656.11a20.8,20.8,0,0,0,.58,4.91c2.61,10.66,11.16,17,22.89,17H582.34c.54,0,1.07,0,1.6,0,8.07-.18,14.39-3.55,18.82-10.35,2.66-4.1,3.36-8.67,3.36-13.47Q606.09,538.14,606.11,375.1ZM587.23,720.59a22.92,22.92,0,0,1-4.15.28H187.63c-11.39,0-18.94-7.54-18.94-18.91V47.84c0-11.13,7.59-18.73,18.7-18.73H583c11.4,0,19,7.53,19,18.89V701.93C602,711.64,596.3,718.87,587.23,720.59ZM385.77,574.37a3.2,3.2,0,0,0,2.19-.09,12.84,12.84,0,0,0,2.05-1.19c24.28-13.27,42.8-32.3,56.08-56.46,6.23-11.33,10.27-23.39,10.64-37.6-.16-1.52-.32-4.17-.74-6.78-1.88-11.87-9.47-20.17-20.88-22.86a39.91,39.91,0,0,0-15.4-.39c-11.4,1.77-21.66,6.42-31.3,12.55a2.61,2.61,0,0,1-3.18.05c-4.54-2.58-9.08-5.2-13.83-7.37-8.09-3.68-16.58-6-25.57-5.75-15,.35-25.3,8.78-28.12,23.12-1.57,8-.67,15.84,1.31,23.62,3.83,15,11.38,28,20.68,40.17A140.62,140.62,0,0,0,385.77,574.37Zm-2.67-54.2a13,13,0,0,0,15.13.1c6.67-4.9,7.32-11.45,4.27-19.07,3.09.63,5.87,1.15,8.62,1.8a1.7,1.7,0,0,1,.95,1.23c.62,10.09-3.83,22.83-14.57,28.24-7.85,3.95-16.75,2.42-23.21-4s-8.83-14.58-8.87-23.51a1.78,1.78,0,0,1,.94-1.39c3.86-.87,7.74-1.62,12-2.48C375.08,509,376.43,515.37,383.1,520.17Zm33.43-15.62c8.34,2.5,15.78,6.36,22,12.82-9.42,8.28-20.41,12.75-32.76,15.3C414.21,522.32,415.11,519.94,416.53,504.55Zm25.69,9.59-5.35-4.76,12.05-11.15Zm9.08-42.5c.19,3.32.44,6.65.56,10a15.19,15.19,0,0,1-5.21,12.61c-4.43,4-8.28,8.72-12.52,13.27L428,504.1l22.64-32.55Zm-2.18-5.48a1.82,1.82,0,0,1-.33,1.42c-7.84,11.71-15.7,23.41-23.66,35.24l-5.85-2.27,21.15-44A20.38,20.38,0,0,1,449.12,466.16Zm-23.83-13.05a31.26,31.26,0,0,1,12.38,2.12,5.2,5.2,0,0,1-.26.74q-10.68,21-21.35,41.93c-.57,1.13-1.07,1.6-2.4,1.16-1.56-.51-3.21-.73-5.11-1.14,1.72-5.07,3.39-9.93,5-14.82,3.11-9.35,6.23-18.7,9.26-28.08C423.27,453.67,423.83,453.12,425.29,453.11Zm-18.54,3.82c4.25-1.14,8.46-2.41,12.68-3.62.1.22.19.44.28.67q-5.16,16.15-10.31,32.3c-1,3.22-2.07,6.43-3,9.68-.34,1.25-.87,1.58-2.07,1.37-1.49-.26-3-.38-4.76-.6.42-3,.85-6,1.24-9,1.19-9.24,2.4-18.48,3.51-27.74C404.55,458.35,405.06,457.38,406.75,456.93Zm-17,8.44c4-2.26,8-4.4,12.31-6.77l-5.84,37.73h-6c0-3.16.1-6.19,0-9.21-.26-6.68-.65-13.36-.93-20C389.23,466.5,389.39,465.58,389.77,465.37Zm4.78,35.17c2-.11,3.09.73,4.06,2.38,3.8,6.4.18,14.69-6.82,15.43-6.35.66-11.68-4.51-11.69-11.72a11.35,11.35,0,0,1,.06-1.23c.57-4,1.27-4.66,5.27-4.77C388.47,500.55,391.52,500.71,394.55,500.54Zm-8.74-34a1.64,1.64,0,0,1,.49,1.2c.14,9.39.24,18.79.35,28.18a2.48,2.48,0,0,1-.16.4l-5.86.37c-2.53-12.35-5.05-24.61-7.7-37.51C377.51,461.81,381.68,464.16,385.81,466.57Zm-19.66-9.85a6.75,6.75,0,0,0,.76.25c2.34.57,3.48,1.68,3.9,4.44,1.74,11.32,3.93,22.56,5.95,33.82.1.58.13,1.17.21,1.89a8.34,8.34,0,0,1-2.37.39,2.51,2.51,0,0,1-1.72-1q-10.68-20.64-21.24-41.34c-.29-.57-.59-1.14-1-1.94A59.61,59.61,0,0,1,366.15,456.72Zm-19.94-3.5a2.36,2.36,0,0,1,1.7,1.19q10.13,20.46,20.16,41c.46.94,1,1.87,1.54,3a42.87,42.87,0,0,1-5,1.2c-.54.07-1.34-.66-1.78-1.21q-13.33-17.06-26.63-34.15c-1.62-2.08-3.32-4.1-5.12-6.31A25.62,25.62,0,0,1,346.21,453.22ZM322,475c.78-5.14,2.31-9.91,5.74-13.93.42-.49.78-1,1.19-1.6l30.58,41.66c-2,.77-3.77,1.58-5.64,2.15-.49.15-1.31-.3-1.8-.7q-12.63-10.41-25.22-20.88a15.33,15.33,0,0,0-2.7-2C322.1,478.64,321.63,477.17,322,475Zm3.09,23.56a60,60,0,0,1-3.31-17.37L349,505.51l-6.91,4.23c-2.06-1.32-4-2.6-5.91-3.8-3.22-2-6.48-3.86-9.69-5.85A3.34,3.34,0,0,1,325.06,498.55Zm2,6.06.45-.4,11.86,7.2-6.13,5.83C331.31,513.28,329.18,509,327.06,504.61Zm35,.1c-.77,11.18,2.31,20.74,10.23,28.62-13.09-1.66-24.82-6.76-36.08-13.78C343.47,512.35,352.19,507.85,362.07,504.71Zm-23.38,21.17c-.21-.31-.39-.65-.36-.59,32,18,64.08,19.21,96.58.37a7.39,7.39,0,0,1-.44.89c-11.71,16.72-26.08,30.57-43.8,40.88-2.81,1.63-4.92,1.64-7.73,0C365,557,350.45,542.92,338.69,525.88Zm60.48-249.4c.17-2.64,1.09-3.32,3.63-2.35,1.65.64,3.11,1.8,4.77,2.41a4.63,4.63,0,0,0,3.16-.05,2.64,2.64,0,0,0,1-2.32c-.9-4.73-3.49-11.23-10.54-12.89-1.22-.28-1.38-.94-1.72-2a7.51,7.51,0,0,1,1.09-7.5,11.09,11.09,0,0,0,1.35-3.5c3.55-11.26,3.24-22.8,1.75-34.27-.89-6.86-2.91-13.57-4.39-20.35-1.76-8-2.14-16,.89-23.86,1-2.59.82-3.41-1.32-5.13-5.24-4.22-14.39-4.38-19.76-.34-2.39,1.8-2.63,2.31-1.35,5,4.3,8.89,4.23,18,1.78,27.33-2.08,7.88-4.29,15.74-5.94,23.71-2.41,11.66-3.51,23.36,2.13,34.23a23.66,23.66,0,0,0-1.42,4.07c-.48,3.15-1.14,3.59-3.92,1.94a23,23,0,0,1-2.83-2.43c-.51-.44-1.05-.83-1.59-1.25-.48.64-1.28,1.23-1.4,1.93a14.39,14.39,0,0,0,3.08,11.9,14.79,14.79,0,0,0,4.89,3.52c1.06.53,1.54.94,1.53,2.11,0,1.71.34,3.28,2.05,4.24a1.78,1.78,0,0,1,.53,1.45c-1.75,14.28-3.1,28.6-2.85,43,.15,8.13,1.1,16.25,1.61,24.38a427.43,427.43,0,0,0,5.75,45.09,82.42,82.42,0,0,0,2,8.49c.2.69,1.08,1.67,1.64,1.66a3.22,3.22,0,0,0,2.09-1.39,14.44,14.44,0,0,0,1.6-3.19,116.4,116.4,0,0,0,7.46-34.26,562.4,562.4,0,0,0,.58-71.7c-.25-4.41-.38-8.83-.57-13.27C399,279.79,399,279.79,399.17,276.48Zm-2.71-108.3c-2.33-.4-4.68-1.13-7-1.11s-4.61.81-7.33,1.34l-.7-1.2C386.05,164.2,394.51,164.87,396.46,168.18Zm-1.82,5.27c-.23,2.5-.69,5-.92,7.48-.1,1.1-.57,1.62-1.57,1.57q-3.06-.13-6.11-.47c-.3,0-.71-.57-.78-.92-.61-3.1-1.15-6.21-1.76-9.55,3.45-.89,6.92-1.31,10.35.22A2,2,0,0,1,394.64,173.45ZM375.87,231.5a64.26,64.26,0,0,1,1.68-10.57c1.95-8,4.22-16,6.18-24.05.88-3.64,1.31-7.39,2-11.3l2.68.56c-.26,9.68-.52,19.19-.78,28.75-1-.59-1-.59-1.49-5.6a5.86,5.86,0,0,0,.42,10.06c1.32,1,1.33,1.89,0,3a13.11,13.11,0,0,0-1.48,1.3c-2.26,2.54-1.86,5.57,1,7.46,1.91,1.27,1.87,5.43-.06,6.59a6,6,0,0,0-1.9,7.53,14.07,14.07,0,0,1,.69,1.69c.75-2.5,1-4.2,1.78-5.54.39-.65,1.94-.9,2.91-.82,2.16.2,2.88,2.18,2.5,5.93a8.18,8.18,0,0,0,1.95-1.67,5.11,5.11,0,0,0-1.49-7c-1.73-1.34-1.95-5.31-.37-6.86a5.67,5.67,0,0,0-.21-8.57c-1.53-1.41-1.43-2.35.39-3.4a6.8,6.8,0,0,0,2.62-8,8.87,8.87,0,0,0-1.49-1.7c-1.23,2,.44,4.59-2.49,5.68V186.49l2.68-.41c.51,2.68.91,5.28,1.51,7.82,1.22,5.15,2.81,10.23,3.8,15.42,2.59,13.64,2.64,27.23-1.3,40.69-1,3.33-2.74,5.21-6.42,5.12-3.3-.08-6.6.25-9.9.21a2.82,2.82,0,0,1-2-1.34C375.63,246.89,375.35,239.22,375.87,231.5Zm8.59,103.27c-.5,13.9-1.29,27.78-.68,41.69a52.89,52.89,0,0,1-.37,5.88l-.67.05c-3.23-31-7.23-62.06-3.58-93.51a3.5,3.5,0,0,1,4.16,2.21,13.46,13.46,0,0,1,1.12,4.76C384.55,308.82,384.92,321.81,384.46,334.77Zm8.77,20.57c-.13,12.09-2.74,23.78-5.21,35.51-.2.94-.54,1.85-.82,2.76l-.33-.07c0-3.48-.06-7,0-10.44.1-5.16.29-10.31.44-15.47.41-14.23.94-28.46,1.21-42.7.18-9.79,0-19.59,0-29.39a12.83,12.83,0,0,0-.42-3.14c-1.34-5.33-3.67-7-9-6.56v-4.13h12.86c.23,1.76.62,3.64.72,5.54.49,9.39,1.25,18.78,1.29,28.18C394,328.73,393.38,342,393.23,355.34Zm2.13-78c-5.45.22-10.64.4-15.84.64-1.51.07-2.13-.6-2.26-2a7,7,0,0,0-.68-2.87,6.31,6.31,0,0,0-2.38-2.59c-2.79-1.29-4.6-3.22-5.19-5.86,2.24.07,4.59.53,6.77.12,3.39-.63,1.13-4,2.56-6h17.4c.09.69.26,1.84.37,3a2.61,2.61,0,0,0,2.41,2.63,10,10,0,0,1,7.84,6.15c-2.35,0-4.95-.42-7.34.1C396.08,271.28,395.33,273.93,395.36,277.38Zm43,149.76a29.76,29.76,0,0,0,3.8-4.29,139.31,139.31,0,0,0,18.35-35.53c6.93-19.81,13.34-39.78,18.33-60.18,1.22-5,2.49-10,3.74-15,3.31-.09,3.31-.09,4.3-2.9s2.16-3.28,4.59-1.27c1.27,1.05,2.33,2.35,3.52,3.5,1.73,1.67,4.29,1.31,4.55-.79.65-5.08.28-10.22-3.9-13.72-2.54-2.13-4.19-4-3.23-7.39a5,5,0,0,1,.82-1.81,72.48,72.48,0,0,0,4.84-5.72c6.84-10.35,9.81-22.11,11.53-34.16,1-7.18,1-14.51,1.69-21.76a35.91,35.91,0,0,1,7.28-19c1.75-2.25,1.82-3.14.17-5.45-3.54-4.94-11.51-7.85-17.37-6.33-4.28,1.1-4.58,1.56-4,5.92a34.47,34.47,0,0,1-1.81,16.4c-2.24,6.34-6.29,11.62-9.55,17.37-3.82,6.73-7.9,13.36-11.07,20.39-3.69,8.19-6.24,16.8-4.16,25.39-1.47,2.4-2.69,4.37-3.95,6.41-2.45-.67-3.85-2.48-4.89-4.73a11.62,11.62,0,0,0-1.37-1.89c-.62.53-1.51.94-1.81,1.61a13.48,13.48,0,0,0,3.42,17c.75.69,1.1,1.12.78,2.1-.65,2-.63,3.93,1.26,5.42-.83,1.78-1.66,3.29-2.26,4.9-4.16,11.09-8.79,22-12.24,33.34a328.86,328.86,0,0,0-8,33.57c-2.43,12.6-4.13,25.34-6,38a57.69,57.69,0,0,0-.5,9.29C435.29,428,436.9,428.54,438.39,427.14ZM477.81,316.5c-3.08,12.33-5.81,24.76-9.44,36.92-3.78,12.67-8,25.28-12.88,37.54-3.61,9-8.7,17.38-13.14,26a6.19,6.19,0,0,1-.69.86l-.36-.17c.94-3,1.87-6,2.84-9,2.57-8,5.1-16,7.76-24,3.61-10.8,7.45-21.52,11-32.35,3-9.19,5.62-18.48,8.28-27.77a16,16,0,0,0,.54-5.67c-.37-4.54-2.1-6.14-6.8-6.67.45-1.38.89-2.71,1.3-3.94l12.32,3.52A43.3,43.3,0,0,1,477.81,316.5ZM515.68,205c-4.12-3.53-8.6-5-13.83-4-.14-.59-.28-1.14-.43-1.78C506.4,197.5,514.79,200.74,515.68,205Zm-13.55-1.07c4,.31,7.77.9,10.7,3.92-1.23,2.81-2.37,5.55-3.67,8.21a2.07,2.07,0,0,1-1.79.86c-2.15-.6-4.22-1.44-6.25-2.17C501.46,211.06,501.78,207.66,502.13,203.92Zm-21.46,48.62c4.41-8.21,9.62-16,14.33-24,1.93-3.29,3.47-6.82,5.29-10.45l2.41,1.26-9.12,27.61c-1.88-2.17.19-3.94.36-6.17a9,9,0,0,0-1.52.74,6.81,6.81,0,0,0-1.08,9.12c1,1.3.73,2.23-.76,2.86a17.24,17.24,0,0,0-1.64.71c-3.1,1.76-3.65,5-1.33,7.67,1.37,1.6.09,5.65-1.95,6.14-3.56.85-5.45,5.53-3.39,7.72a21.08,21.08,0,0,1,2.85-4.05c.54-.49,2.12-.24,3,.15,2.07.91,2.13,3.09.5,6.38a8.29,8.29,0,0,0,2.38-.95,5.19,5.19,0,0,0,.67-7.32c-1.27-1.75-.32-5.65,1.61-6.63a5.68,5.68,0,0,0,2.32-8.26c-1.07-1.76-.7-2.66,1.29-3.12,2.87-.67,5.33-4.2,4.85-7.08a8.31,8.31,0,0,0-.89-1.86c-1.94,1.22-.83,4.63-4.16,4.66,2.7-9.19,5.36-18.22,8-27.33l2.91.52c-.29,2.91-.65,5.72-.82,8.54-.31,5.15-.24,10.34-.79,15.46-1.51,13.78-5.36,26.82-13.08,38.53-1.81,2.75-3.94,4-7.3,2.9-3.13-1-6.37-1.73-9.56-2.54a2.19,2.19,0,0,1-1.84-2.17C472.9,271.08,475.85,261.51,480.67,252.54Zm-19.14,36.3a60.29,60.29,0,0,0,5.7,2.18c1.8.5,3-.3,3.49-2.25a15.81,15.81,0,0,1,1-2.5l17.2,4.6c-.15.84-.33,2-.59,3.12a2.57,2.57,0,0,0,1.55,3.21,10.08,10.08,0,0,1,5.78,8.28c-2.25-.72-4.57-1.92-7-2.14-3-.27-4.58,1.92-5.4,5-2.86-.49-5.71-.94-8.54-1.49a29.61,29.61,0,0,1-3.42-1c-1.64-.53-3.79-.65-4.72-1.78-.79-.95-.24-3.08-.16-4.68a3.67,3.67,0,0,0-1.56-3.42A7.76,7.76,0,0,1,461.53,288.84ZM446.26,377c4.43-21.1,9.19-42.13,18.08-61.95,3,.88,4.29,3.29,3.27,7.12-1.85,7-3.67,14-5.88,20.82-4.62,14.34-9.54,28.6-14.23,42.93-2.06,6.28-3.84,12.64-5.76,19a13.34,13.34,0,0,1-.61,1.41l-.47-.13C442.51,396.46,444.22,386.71,446.26,377ZM332,429.14c.92,1.08,1.9,2.85,3.67,2.11s1.32-2.72,1.18-4.24c-.51-5.6-1-11.2-1.76-16.78-2.42-18.39-6.36-36.51-10.68-54.52-3.66-15.28-9.82-29.76-16.08-44.15-.2-.47-.37-1.31-.13-1.54,1.59-1.57,1.22-3.33.86-5.2a2,2,0,0,1,.57-1.73c6.14-3.62,5.87-13.75,3.36-17.72a2.28,2.28,0,0,0-1.67-1.05c-.46,0-1,.89-1.22,1.49a7.49,7.49,0,0,1-5.18,5.06c-.65-1.41-.92-3.17-1.93-3.93-2-1.5-1.88-3.15-1.34-5.13a8.22,8.22,0,0,0,.12-1.58c.42-9.1-2.45-17.46-6.55-25.28-4.51-8.61-9.77-16.83-14.73-25.2-3-5.12-5.44-10.51-5.92-16.49-.27-3.33.22-6.72.17-10.09,0-1-.36-2.61-1.09-3.06-6.19-3.77-17.79-.22-21.08,6.26a3.19,3.19,0,0,0,.53,4,29.53,29.53,0,0,1,6.64,14,97.08,97.08,0,0,1,2,17.72c.06,11.88,2.85,23.12,7.12,34,2.28,5.82,5.13,11.52,10.29,15.58a1.55,1.55,0,0,1,.47,1,38.3,38.3,0,0,1,.19,4.15,1.86,1.86,0,0,1-.67,1.39c-5.66,3.3-7.16,8.57-6.86,14.6a4.27,4.27,0,0,0,1.59,3c1.17.7,2.48,0,3.48-1.14a25.92,25.92,0,0,1,3.73-3.53c2.05-1.49,3.16-1.16,3.82,1.21s1.84,3.94,4.71,3.18c.38,2.15.56,4.14,1.09,6,4.3,15.35,8.42,30.76,13.09,46,4.53,14.79,9,29.64,16.52,43.34C323.79,417.32,327.29,423.62,332,429.14Zm-.69-19.41-.65.19c-1-3.1-2-6.19-3-9.29-3.63-11.26-7.28-22.52-10.87-33.79q-4.35-13.71-8.58-27.45c-1.26-4.11-2.39-8.26-3.49-12.42a13.24,13.24,0,0,1-.48-3.9c.11-2.73.93-3.63,3.55-4.47C320.28,347.9,325.51,378.88,331.31,409.73Zm-60.74-207c-.13.65-.25,1.2-.38,1.82a15.45,15.45,0,0,0-13.74,4C256.84,204.54,265.26,201.2,270.57,202.77Zm-7.88,16.65c-1-2.64-2.27-5.2-3.51-8,2.86-3.09,6.72-3.56,10.71-4,.34,3.67.65,7.07,1,10.83-1.92.71-4,1.54-6.09,2.25C263.84,220.85,263.14,220.59,262.69,219.42Zm9.31,54c-3.58-10.18-6.57-20.5-6.24-31.56.16-5.18-.83-10.4-1.3-15.61,0-.58-.09-1.15-.13-1.82l2.95-.52,8.05,27.36c-3.26-.14-2.32-3.25-3.83-4.53-1.89,1.12-1.48,2.84-1,4.21.88,2.34,2.29,4.33,5.15,4.66,1.25.15,1.66,1.46,1,2.69-2.18,3.89-1.31,6.79,2.6,8.84a2,2,0,0,1,.93,1.07c.58,2.15,1.5,4.14-.38,6.39-1.51,1.81-.5,5.09,1.48,6.51a7.9,7.9,0,0,0,2.05.72c-1.57-3.35-1.55-5.63.55-6.36a4.93,4.93,0,0,1,4,.48c.94.67,1.15,2.34,1.68,3.58,2.12-2.17.64-7-2.6-7.68-1.93-.41-2.32-1.5-2.74-3s-.79-2.53.55-3.9c2.06-2.13,1.32-5.26-1.31-7a14.07,14.07,0,0,0-2-.91c-1.5-.64-1.75-1.58-.78-2.87a6.82,6.82,0,0,0-1.06-9.11,7.58,7.58,0,0,0-1.43-.71c.38,1.89.73,3.44,1,5,0,.28-.35.63-.68,1.19l-9.14-27.67,2.42-1.31c1.71,3.47,3.17,6.93,5.06,10.15,4.77,8.17,10,16.1,14.55,24.38a50,50,0,0,1,6.69,25.44,24,24,0,0,1-.44,4.14,2,2,0,0,1-1.15,1.31c-4.07,1.11-8.18,2.11-12.27,3.15a3.19,3.19,0,0,1-3.48-1.27A50.29,50.29,0,0,1,272,273.38Zm17.28,38.79c-4-6.52-4.86-6.67-13-2.64.36-3.66,2-6.58,5.13-8.26,2.18-1.18,2.83-2.51,2.08-4.77a12.66,12.66,0,0,1-.35-2.06l17.21-4.59c.25.66.75,1.79,1.1,3a2.39,2.39,0,0,0,2.64,1.87,8.3,8.3,0,0,0,6.26-2.92c.46,3-.34,5.52-2.39,7a5.42,5.42,0,0,0-2.19,6.23c.57,2.36-.4,3.18-2.47,3.66C298.56,309.81,293.85,311,289.28,312.17Zm6.9,15.18q-1.47-5.94-2.95-11.87l12.62-3.6c.4,1.19.84,2.48,1.34,3.95-2.27.15-4.36.47-5.57,2.53a9.85,9.85,0,0,0-1.2,7.66c1.91,7.23,3.87,14.45,6.13,21.57,6,18.86,12.11,37.67,18.25,56.48,1.47,4.52,3.21,9,4.78,13.46a10.61,10.61,0,0,1,.66,4c-.88-1.44-1.76-2.87-2.62-4.32-9.47-16-15.35-33.38-21.15-50.86C302.23,353.51,299.41,340.39,296.18,327.35Zm-80.42,366c-2.55-12.18-9.38-19.08-21.29-21.38V419.31c-3,1.25-4.19,3-4.13,6.16.23,11.86.09,23.72.09,35.58q0,106.56,0,213.11a7.36,7.36,0,0,0,.14,1.14c12.57,2.34,20.91,8.55,21.8,22.25h4.53q57.24,0,114.49.05c3.16,0,4.32-2.34,6.3-3.78l-.19-.48Zm364.63-21.65V424.41c0-2.67-1.13-4.07-4.24-5,0,3.91,0,7.74,0,11.57,0,10.46.12,20.92.13,31.38q0,103.37,0,206.74a5,5,0,0,1,0,1.77c-.22.52-.75,1.22-1.22,1.28a20.6,20.6,0,0,0-11.31,5.37,25.69,25.69,0,0,0-8.63,15.93H433c2.39,2.88,4.84,4.45,8.54,4.14,4.4-.36,8.86-.09,13.3-.09H558.47c.92-13.78,9.33-19.92,21.92-22.29ZM191.23,76.45q0,118.1-.09,236.19c0,3.28,1.21,5,4.27,6.37V76.23C207.64,74,214,66.34,216.73,54.65H338.8c-2.6-2.61-4.78-4.52-8.51-4.17-4.46.42-9,.1-13.49.1H213.15c-.94,13.84-9.42,20-21.92,22.28Zm385.84-.2V319c2.87-1.39,4.32-2.94,4.22-6.2-.29-8.54-.1-17.09-.1-25.64V72.57a23.16,23.16,0,0,1-15.26-6.67c-4.28-4.15-6.93-9-6.31-15.31h-4.2c-38.16,0-76.33,0-114.49-.09-3.4,0-4.9,2.11-6.84,4.21H555.7C558.43,66.39,564.84,74.09,577.07,76.25Zm-263,457.54c-.43-3-2.61-4.27-5.26-2.76a7.89,7.89,0,0,0-3.91,5.93c-.31,2-.26,4.12-.38,6.52L296,532c1.2-1.48,2.29-2.65,3.19-4,2.52-3.66,4.3-7.67,4.16-12.18-.11-3.78-3.31-5.34-6.44-3.29a9.69,9.69,0,0,0-4.82,7.8c-.07,1.42,0,2.85,0,4.27l-.47.17-6.84-14.3c2.51-3.75,4.91-6.92,6.82-10.36a16.15,16.15,0,0,0,1.37-5.93,3.89,3.89,0,0,0-2.07-4.19c-1.68-.81-3.24-.18-4.64.84a10.53,10.53,0,0,0-4,6.21,40.87,40.87,0,0,0-.64,4.3l-.57.09c-1.17-5.62-2.45-11.22-3.44-16.86a8.9,8.9,0,0,1,.71-4.33,33,33,0,0,0,2.41-13.78,5.5,5.5,0,0,0-3.92-5.18c-2-.45-4.1.61-5.37,2.9a9.37,9.37,0,0,0-1.16,3.34,22.57,22.57,0,0,0,2.39,13.08,6.67,6.67,0,0,1,.76,1.6c1.29,6.21,2.53,12.42,3.82,18.82a17.8,17.8,0,0,0-12-4.15,3.65,3.65,0,0,0-3.62,2.31,3.4,3.4,0,0,0,.65,4,11.11,11.11,0,0,0,2.83,2.14c5,2.5,9.93,5,15.66,4.6L287,523.52c-2.43,0-4.92-.17-7.38,0-3.08.27-5.14,2-5.4,4.14s1.15,4.09,4.21,5.28a13,13,0,0,0,1.71.54c4.23,1,8.45,1.62,12.56-.41l7.7,10.12c-3.24-.35-6.08-.21-8.62,1.34-2.19,1.33-2.48,3.57-.6,5.28a6.73,6.73,0,0,0,3.09,1.59,18.58,18.58,0,0,0,10.53-1,2.21,2.21,0,0,1,2.88.7c2.47,2.68,5,5.35,7.6,7.85,2.2,2.09,4.6,4,7,5.89a6,6,0,0,0,1.81.64c0-.13,0-.25,0-.37l-15.51-16.89,2.62-3.61A14.37,14.37,0,0,0,314.1,533.79Zm-40-57.92c-1.88-3.74-1.33-9.45,1.14-11.23C274.91,468.42,274.53,472.14,274.15,475.87ZM266,500.42a13.06,13.06,0,0,1,12.16,5.22Zm21.45-6.73.5.23q-1.65,3.54-3.29,7.1A8.74,8.74,0,0,1,287.41,493.69Zm-9.82,34.63c2.82-2.9,9.78-2.05,13,1.58Zm21-13.1c-1.29,3.07-2.5,5.94-3.88,9.19C293.93,520.29,295.3,517.08,298.56,515.22Zm-4.33,32.26a7.57,7.57,0,0,1,7.9-.61ZM307.31,542c-.37-2.91-.07-5.71,2.56-7.75Zm180.58-30.34c6.34-.1,11.81-2.66,16.9-6.12a3.39,3.39,0,0,0,.86-5.22,5.66,5.66,0,0,0-3.73-1.69,16.93,16.93,0,0,0-11.77,4.35c1-4.18,2-7.93,2.78-11.74s1.17-7.81,3.12-11.39a12.79,12.79,0,0,0,1.21-4.59c.35-3.08.82-6.21-.84-9.13-1.38-2.44-3.52-3.64-5.64-3.13s-3.7,2.7-3.85,5.44a31.23,31.23,0,0,0,2.91,14.46,4,4,0,0,1,.34,2.27c-1.17,5.76-2.44,11.5-3.7,17.25-.05.23-.29.41-.65.9a12.67,12.67,0,0,0-2.65-9.09c-1.85-2.37-4.52-3.43-6.35-2.6s-2.58,3.41-2,6.53c1,5.47,4.85,9.26,8.15,13.79-2.23,4.64-4.61,9.57-7,14.51l-.54-.22c0-.78.12-1.57.15-2.36a10.14,10.14,0,0,0-5.19-9.81c-2.87-1.73-5.7-.35-6.1,3a12.7,12.7,0,0,0,.33,4.11,25,25,0,0,0,7.05,12.43L463,545.18c-.14-.53-.18-.59-.18-.65.08-.53.2-1,.23-1.57.25-3.79-.37-7.32-3.51-9.87-2.49-2-5.39-1.2-5.85,1.63-.5,3.12-.47,6.23,1.34,9l4,6.16L443.5,566.8l.39.56a26.92,26.92,0,0,0,3.87-2.64q6.27-6,12.31-12.12a2.15,2.15,0,0,1,2.72-.63A19.89,19.89,0,0,0,473.72,553c2.1-.37,4-2.22,4-3.92,0-2.18-1.58-3.05-3.33-3.69a8.57,8.57,0,0,0-2.11-.52c-1.58-.15-3.17-.2-4.83-.3l7.17-9.39c2.91.28,5.46.83,8,.71,3.29-.17,6.63-.67,9.33-2.9,2.26-1.87,2.26-4.72-.12-6.41a7.72,7.72,0,0,0-3.63-1.42c-2.49-.22-5-.07-7.45-.07,1.89-4.14,3.85-8.48,5.88-12.79A1.73,1.73,0,0,1,487.89,511.62Zm5.63-34c-.4-3.84-.78-7.54-1.18-11.44C494.82,468.14,495.32,473.18,493.52,477.61ZM501.75,502l-12.21,5.25C492.81,503,496.89,501.63,501.75,502Zm-41.4,41.59c-.86-2.59-1.73-5.17-2.59-7.75C460.4,537.81,460.69,540.62,460.35,543.57Zm13,5.48-7.85-.57A7.47,7.47,0,0,1,473.4,549.05Zm-.48-23.21-3.75-8.77C472,517.66,474,522.63,472.92,525.84Zm17.17,4.06-13,1.61C480.08,527.91,487.08,527,490.09,529.9ZM483,502.58c-1.11-2.4-2.22-4.81-3.34-7.21A7.47,7.47,0,0,1,483,502.58ZM415,76.2H355.63v49.54H415Zm-4.08,45.43H359.75V80.23h51.19ZM294.35,192.41l2,.38a30.84,30.84,0,0,1,11.34,4,8.59,8.59,0,0,1,4.13,6.42c.9,6.55,2.06,13.06,3.11,19.59l.33.06a12.73,12.73,0,0,0,.38-1.34c1-6.14,2.11-12.27,2.94-18.43a7.65,7.65,0,0,1,4.06-6.2,66.16,66.16,0,0,1,8.21-3.38,38.93,38.93,0,0,1,4.72-1.07,12.38,12.38,0,0,0-2.61-.85c-3.58-1.31-7.21-2.51-10.66-4.12a6.38,6.38,0,0,1-3.56-5c-1-6.47-2.06-12.94-3.1-19.41a9.53,9.53,0,0,0-.37-1.26c-1.4,6.6-2.55,13.12-3.47,19.67a8,8,0,0,1-3.86,6.13,22.73,22.73,0,0,1-4.6,2.3C300.53,190.85,297.61,191.52,294.35,192.41Zm213.32,219c.88-5.48,2-11,2.57-16.47.45-4.17,2.7-6.61,6.22-8.23a33.67,33.67,0,0,1,4.62-1.79c2.1-.6,4.27-1,6.4-1.51a7.15,7.15,0,0,0-1.87-.64c-3.66-1.27-7.4-2.39-10.94-3.94a6.93,6.93,0,0,1-4.14-5.49c-.56-3.67-1.12-7.33-1.71-11-.51-3.12-1.05-6.23-1.57-9.35-.48.27-.61.5-.65.75-1,6.08-2.05,12.14-2.86,18.24a8.75,8.75,0,0,1-4.55,7,23.09,23.09,0,0,1-4.11,2c-2.82.9-5.71,1.59-9.05,2.49a19.16,19.16,0,0,1,3,.54c3.59,1.28,7.23,2.47,10.68,4.06,2.34,1.07,3.52,3.27,3.88,5.89.5,3.74,1.11,7.46,1.71,11.19.46,2.88,1,5.76,1.46,8.64A5.42,5.42,0,0,0,507.67,411.41ZM369.16,619.78a3.12,3.12,0,0,0-2.12.92c-.39.33-.43,1.08-.57,1.66q-2.6,10.29-5.16,20.6c-.23.91-.51,1.82-.9,3.21-1-3.24-1.83-6-2.7-8.66-.39-1.22-.84-2.49-2.41-2.53s-2,1.23-2.48,2.44c-1,2.78-2.06,5.55-3.24,8.76-.25-.94-.41-1.43-.51-1.93-1.36-6.47-2.7-13-4.08-19.42a10,10,0,0,0-1-3,2.1,2.1,0,0,0-1.77-.81,2,2,0,0,0-1.19,1.49,11.14,11.14,0,0,0,.19,3.35q2.65,13.93,5.41,27.86c.24,1.25.48,2.58,2.1,2.74s2.22-1.11,2.69-2.39l3.36-9.28.41.05c1,3.28,1.89,6.6,3,9.83a3.79,3.79,0,0,0,2.16,2.19c1.62.39,2.25-1,2.58-2.37q3.7-15.84,7.41-31.7a2.38,2.38,0,0,0,.11-1.35C370.17,620.8,369.68,619.85,369.16,619.78Zm40.79,35a1.91,1.91,0,0,0,2.89.79c1.16-.82.89-2,.3-3-.26-.46-.58-.89-.85-1.35l-5.16-8.86c.74-.65,1.37-1.14,1.91-1.7,3.5-3.61,5.49-7.84,4.76-12.94-1.17-8.13-10.65-11.39-17.62-6.07a4.24,4.24,0,0,0-1.61,2.49c-.06.5,1.21,1.16,2.07,1.91,0,1.34-.05,3,0,4.65q.38,11.5.8,23c.05,1.29.41,2.48,2,2.4s1.76-1.34,1.77-2.61a55.36,55.36,0,0,0,0-5.76c-.19-2.13.52-3.28,2.94-3.34.18.35.33.71.52,1.06C406.44,648.59,408.12,651.74,410,654.8Zm-8.59-13.93c-.31-5.83-.6-11.48-.9-17.14,5.52-2.35,9,1.38,9.08,5.24A12.32,12.32,0,0,1,401.36,640.87ZM437.65,631c-1.14-12.51-12.36-15.24-19.87-10.15-.67.46-1,1.42-1.48,2.14l2.12,1.41c.2,6.63.37,13.44.62,20.25.11,3,.3,6,.65,8.91.25,2.07,1.65,2.8,3.37,2C431.53,652,438.49,640.21,437.65,631Zm-5,6.83a23.53,23.53,0,0,1-8.42,12.86c-.54-9.45-1.07-18.67-1.61-28.07a7.49,7.49,0,0,1,9.48,4.14A15.81,15.81,0,0,1,432.6,637.86Zm-99,.4c-1.4-1-2.92-1.84-4.26-2.9a60.84,60.84,0,0,1-4.88-4.33,2.6,2.6,0,0,1-.67-1.93c.22-1.53,3.21-3.67,4.82-3.65a3.91,3.91,0,0,1,3.91,3.69c.16,1.07.46,2.2,1.7,1.92a3,3,0,0,0,1.85-1.88c.6-2.32-.36-4.29-2.1-5.85-3.66-3.29-8.38-3-12.28.77-3.58,3.43-3.71,6.94-.36,11a14.08,14.08,0,0,0,1.91,2c2.06,1.66,4.12,3.32,6.27,4.86a8.26,8.26,0,0,1,3.85,7,4,4,0,0,1-1.31,2.83c-2.92,2.25-5.87,1.75-8.08-1.17-1-1.32-2.17-2-3.74-1.11-1.3.75-1.42,2.4-.32,4a9.36,9.36,0,0,0,7.31,4.39c6.21,0,10.81-3.2,11.29-7.68C339,645.5,337.78,641.23,333.59,638.26Zm54.33,14.57c5.94-6.58,6.82-20.8,1.64-28a8,8,0,0,0-3.37-2.94c-5.14-1.74-8.95-.23-11.92,4.39a23.12,23.12,0,0,0-3.53,11.33c0,6.5.66,10.71,3.25,14.38C377.75,657.37,383.54,657.7,387.92,652.83ZM377.7,628c1.15-2.06,2.81-4.44,5.18-3.95,1.64.35,3.36,2.55,4.14,4.32,1.19,2.71,1.6,5.77,2.38,8.8-.87,3.23-1.61,6.36-2.59,9.41a9.66,9.66,0,0,1-2,3.16c-2.48,2.9-5.6,2.71-7.36-.69a24,24,0,0,1-2.33-7.28A21,21,0,0,1,377.7,628Zm69.74,24.35c-2-.23-2-1.87-2.23-3.26s-.42-2.83-2.24-2.55-2.25,1.74-1.92,3.18c.81,3.46,2.6,6.85,7,6.38,5.39.18,8.62-2.9,9.18-9,.44-4.76-2-8.36-5.29-11.47a51.08,51.08,0,0,1-5-5.09,8.08,8.08,0,0,1-1.52-3.77c-.22-1.51.07-3.14,1.8-3.83a3.54,3.54,0,0,1,4.4,1.34,39.32,39.32,0,0,1,2.14,4,10.66,10.66,0,0,0,1.21,1.49c.33-.66,1-1.34.94-2a9.4,9.4,0,0,0-2.79-6.8c-3.37-3.21-9.1-2.21-10.82,2-1.22,3-1.38,6.16.49,9a61.24,61.24,0,0,0,4.84,6c1.21,1.4,2.68,2.59,3.77,4.07a7.58,7.58,0,0,1,.94,7.89C451.54,651.81,449.89,652.66,447.44,652.37ZM414.56,59.15c2.45.83,4.11-.86,3.44-3.36a39.16,39.16,0,0,0-1.65-4.18c.73,0,1.37,0,2-.12,2.75-.39,5.52-.68,8.23-1.26,1.68-.36,3.51-1.1,3.56-3.19s-1.87-2.67-3.44-3c-3.75-.71-7.55-1.15-11.37-1.71.59-1.38,1.4-3,1.94-4.64.47-1.47.64-3.1-.9-4.15a3.07,3.07,0,0,0-4.15.71,39.39,39.39,0,0,0-5.87,7.63C402.24,49.79,409,57.26,414.56,59.15Zm0-22.76c-.21,4.3-2.35,6.94-5.95,7.5C409,41.47,412,37.7,414.59,36.39ZM427,47a34.55,34.55,0,0,1-19.32.36C410.45,44.93,423.2,44.68,427,47Zm-11.65,9.94c-3.3-1.06-5.21-3.46-7-6.15C412.26,50.22,414.91,52.49,415.33,56.91Zm75.22,582.22c0-2.38-2.17-3-4.05-3.39-3.16-.63-6.37-1-9.72-1.5.43-.88.91-1.68,1.23-2.54.52-1.42,1.24-3-.18-4.24s-3.07-.75-4.42.12c-4.86,3.1-8.69,7-7.6,13.36a16.32,16.32,0,0,0,8.13,11.65,2.52,2.52,0,0,0,3.94-2.58,22.41,22.41,0,0,0-1.5-4.87,9.23,9.23,0,0,0-.75-1.46c3.7-.48,7.31-.83,10.86-1.48C488.23,641.88,490.54,641.5,490.55,639.13Zm-14.83-9.93c.19,3.61-2.4,6-7.05,6.36C470.54,632.66,472.47,630.27,475.72,629.2Zm-6.94,13.16c3.7-.06,5.93,2.55,6.29,7.64A19,19,0,0,1,468.78,642.36Zm-.41-3.42a34.61,34.61,0,0,1,19.3,0C485,641.3,472.15,641.32,468.37,638.94ZM344.09,49.45a12.73,12.73,0,0,0,4.29,1.4c2.51.42,5.06.59,7.7.88-.52,1.16-1.05,2.21-1.45,3.31-.47,1.27-.9,2.85.48,3.58a4.77,4.77,0,0,0,3.65.16,14.49,14.49,0,0,0,7.92-8.43,9.65,9.65,0,0,0,.6-3.68c-.23-4.94-3-8.6-6.36-11.88a6.83,6.83,0,0,0-2.34-1.44c-2-.75-3.8.43-3.59,2.52a23.24,23.24,0,0,0,1.47,5.07,14,14,0,0,0,1,1.88,27.43,27.43,0,0,0-4,0,87.29,87.29,0,0,0-9.09,1.75,3.27,3.27,0,0,0-2,2.3A3.51,3.51,0,0,0,344.09,49.45Zm13.1,7.46a6,6,0,0,1,6.91-6.26C362.39,53.44,360.39,55.76,357.19,56.91Zm6.92-13.09c-3.85-.22-5.86-2.6-6.39-7.75A18.78,18.78,0,0,1,364.11,43.82Zm.41,3.2c-3.42,2.14-15.91,2-19.09-.23C348.71,44.72,361.48,44.88,364.52,47ZM299.16,652.11a3,3,0,0,0,4.14-.66A39.63,39.63,0,0,0,309,644.2c4.42-7.91-2.05-15.49-7.9-17.62-2.52-.92-4.25.83-3.54,3.4a34.87,34.87,0,0,0,1.54,3.86c-3.37.52-6.7.92-10,1.59-1.75.35-3.68,1.09-3.71,3.26s2,2.7,3.64,3c3.68.69,7.41,1.1,11.18,1.63A50.09,50.09,0,0,0,298.3,648C297.83,649.41,297.65,651,299.16,652.11Zm2.12-2.73-.7-.36a36.2,36.2,0,0,1,2.82-6c.6-.86,2.26-1,3.43-1.45l.35.47A19,19,0,0,1,301.28,649.38Zm6-14.21c-5.28,0-6.83-3.29-7.17-6.35C303.57,629.84,305.47,632.29,307.32,635.17Zm-19.15,4.07c3.43-2.53,15.91-2.71,20-.27A40.26,40.26,0,0,1,288.17,639.24ZM591.54,387c-8-4.81-15.53,1.14-18.12,7.34a3.69,3.69,0,0,0,.53,3.21c.54.61,2.06.66,3,.47a20.13,20.13,0,0,0,3.69-1.47c.33,2.79.47,5.44,1,8a13.52,13.52,0,0,0,1.89,4.71c1.12,1.69,3,1.46,4-.36a10.34,10.34,0,0,0,1.21-3.33c.5-3.37.82-6.77,1.21-10.15a50.28,50.28,0,0,0,4.85,2c1.46.46,3.09.58,4.11-1a3.06,3.06,0,0,0-.67-4A40.09,40.09,0,0,0,591.54,387Zm-15.8,8.45c.4-2.45,2.41-4.76,6-6.85C582.22,392.48,579.77,395.07,575.74,395.4Zm10.28,12c-2.52-2.71-2.82-15.25-.44-19.32C587.64,394.35,587.39,400.71,586,407.36Zm2.61-18.94a19.31,19.31,0,0,1,7.69,6.27C591.6,394.55,588.79,392.2,588.63,388.42Zm-407.38,11a61.11,61.11,0,0,0,1.9,9.05c.81,2.46,3.09,2.59,4.46.37a13.19,13.19,0,0,0,1.58-4.43c.46-2.57.64-5.2.95-7.93a13.45,13.45,0,0,0,3.24,1.37,5.55,5.55,0,0,0,3.62-.41c1.31-.91.83-2.53.18-3.81a15.25,15.25,0,0,0-8-7.59,10.78,10.78,0,0,0-4.24-.74c-4.56.16-8,2.69-11.16,5.71-2.13,2.06-2.75,4-1.9,5.39s3,1.68,5.81.48c1.16-.49,2.28-1.08,3.55-1.69A28.08,28.08,0,0,0,181.25,399.39Zm13.89-4.08c-3.3.53-6.08-2.53-6.13-6.75C192.15,390.11,194.49,392.69,195.14,395.31ZM185.55,388a34.73,34.73,0,0,1,0,19.31C183.2,404.65,183.17,391.84,185.55,388Zm-10.69,6.64c.8-2.12,4.07-4.86,7.28-6.1C182.2,392.11,179.26,394.58,174.86,394.68ZM357.13,689c-2.5-.9-4.21.88-3.48,3.46a37.52,37.52,0,0,0,1.53,3.82c-3.28.49-6.49.87-9.64,1.5-1.87.37-4.05,1-4,3.39s2.32,2.75,4.06,3.06c3.55.66,7.16,1,10.76,1.47a50.57,50.57,0,0,0-2,4.73c-.46,1.46-.63,3.09.92,4.13a3.07,3.07,0,0,0,4.14-.71,40.36,40.36,0,0,0,5.69-7.26C369.51,698.67,362.93,691.06,357.13,689Zm0,23c-.2-4.21,2.46-7.47,6.22-7.63A19.13,19.13,0,0,1,357.11,712Zm-12.64-10.68c4.23-2.17,15.83-2.23,19.25-.18C360.86,703.25,348.08,703.43,344.47,701.28Zm11.83-9.82c2.51.35,5.49,3,6.84,6.1C358.45,697.73,356.53,694.64,356.3,691.46ZM589.55,332.71a56,56,0,0,0-2-8.83c-.7-2-2.83-2.19-4-.4a12.65,12.65,0,0,0-1.8,4.55c-.51,2.64-.68,5.34-1,8.15a13.49,13.49,0,0,0-3.24-1.38,5.61,5.61,0,0,0-3.62.43c-1.31.91-.83,2.55-.17,3.82a15.51,15.51,0,0,0,8.05,7.6,9.39,9.39,0,0,0,3.86.75c5.31-.27,9.27-3.14,12.59-7,1-1.18,1.75-2.65.73-4.18s-2.79-1.4-4.32-.9-3.14,1.33-5,2.13A28.39,28.39,0,0,0,589.55,332.71Zm-14.12,4.34c4.32.89,6.37,2.35,6.47,7.16A13.14,13.14,0,0,1,575.43,337.05Zm9.84,7.54a34.9,34.9,0,0,1,0-19.33C587.64,328.09,587.64,340.87,585.27,344.59ZM595.9,338c-.71,2.12-4.25,5.07-7.27,6.05C588.8,340.44,591.69,338,595.9,338ZM425.27,697.77c-3.16-.62-6.37-1-9.65-1.49a16,16,0,0,0,1.42-3.49c.18-1,.11-2.6-.53-3.21a3.61,3.61,0,0,0-3.24-.41,14.76,14.76,0,0,0-8.58,9.33c-1.76,5.62,2.73,12.34,6.79,15.46,1.18.9,2.56,1.59,4,.64s1.43-2.65,1-4.12a48.63,48.63,0,0,0-2-4.78c3.59-.47,7.2-.81,10.76-1.46,1.74-.32,4.05-.71,4.06-3.07S427.15,698.14,425.27,697.77Zm-10.9-6.53c.61,3.39-2.46,6.19-6.85,6.29C409.19,694.7,411.21,692.4,414.37,691.24Zm-6.86,13.06c3.87.3,5.92,2.74,6.37,7.78A19,19,0,0,1,407.51,704.3Zm-.41-3.15c3.2-2.15,15.71-2,19.08.16C423.12,703.39,410.31,703.29,407.1,701.15ZM172.83,340.52a40.21,40.21,0,0,0,6.63,5.24c7.91,4.7,15.44-1.35,17.94-7.42a3.68,3.68,0,0,0-.53-3.22c-.54-.6-2.05-.65-3-.46a20.23,20.23,0,0,0-3.7,1.47c-.33-2.85-.49-5.56-1-8.21a12.46,12.46,0,0,0-1.84-4.51c-1.14-1.69-3-1.46-4,.36a10.29,10.29,0,0,0-1.21,3.32c-.5,3.38-.82,6.78-1.22,10.18-1.35-.59-2.85-1.39-4.45-1.92s-3.36-.85-4.49.87S171.66,339.44,172.83,340.52Zm22.47-3.35c-1.1,3.35-3.47,5.33-6.31,7.05C188.8,339.51,191.56,337.56,195.3,337.17Zm-10.21-11.63c2.25,2.63,2.52,15.12.31,19.2C183.29,341.19,183.15,329.23,185.09,325.54Zm-2.83,18.72c-3.06-1.57-5.7-3.32-7.64-6.24C178.72,337.85,181.88,340.4,182.26,344.26Zm14.59,339.29c-3.45-1.24-7-2-10.7-1-2.56.75-3.08,3.09-1.1,4.85a10.51,10.51,0,0,0,2.69,1.63c1.16.52,2.39.86,3.74,1.33-.61.55-1,.94-1.48,1.34a26.28,26.28,0,0,0-6.79,9.19c-1,2.57.23,4.09,2.94,3.61a7.09,7.09,0,0,0,2.74-1.08c2.65-1.83,5.22-3.78,7.81-5.68a18.63,18.63,0,0,0,1.59,3.8,3.69,3.69,0,0,0,2.57,1.66,3.46,3.46,0,0,0,2.45-1.86,15.59,15.59,0,0,0,1.19-5.17C204.83,690.13,202.44,685.56,196.85,683.55Zm-10,1.77a19.51,19.51,0,0,1,10,1C194.49,689.12,191.21,688.86,186.83,685.32Zm-1.27,16.29a31.48,31.48,0,0,1,13.87-13.22A29.67,29.67,0,0,1,185.56,701.61Zm15.55-1c-2.79-2.17-2.55-6.21.59-9.5C202.37,694.51,202.59,697.61,201.11,700.66ZM584,695.17a60.81,60.81,0,0,0-4.42-4.75c1.77-.74,3.51-1.36,5.15-2.2,1.41-.72,2.52-1.86,2.1-3.65s-1.9-2.2-3.37-2.28c-4.69-.24-9,.44-13.07,3.36-4.81,3.46-4.86,12.54-2.72,16.15,1.26,2.13,3.47,2.19,4.73.07a32,32,0,0,0,1.8-4.24c2,1.61,3.88,3.3,5.94,4.71a14.11,14.11,0,0,0,4.61,2.17c2.59.59,4-1,2.86-3.45A30.72,30.72,0,0,0,584,695.17Zm0-9.85c-4.23,3.37-7.13,3.65-10.13,1.09A19.23,19.23,0,0,1,584,685.32Zm-14.08,15.3c-1.47-2.06-1.68-4.49-.77-9.48C573,694.72,571.79,698.48,569.94,700.62Zm1.46-12.25a31.83,31.83,0,0,1,13.86,13.24A29.56,29.56,0,0,1,571.4,688.37ZM185.45,50c2.07,2.72,4.31,5.31,6.38,7.83-1.59.68-3.45,1.35-5.18,2.26a3.06,3.06,0,0,0-1.88,3.4,2.92,2.92,0,0,0,3.09,2.32,35.75,35.75,0,0,0,7.46-.53c9.57-1.93,11.47-10.37,9.11-17.72a4.77,4.77,0,0,0-2.76-2.65c-1.59-.52-2.4,1-3,2.32-.48,1.07-.8,2.21-1.15,3.2-2.67-1.95-5.26-4-8-5.78A7.79,7.79,0,0,0,186,43.55a2.07,2.07,0,0,0-2.25,2.86A11.12,11.12,0,0,0,185.45,50Zm2.3,12.82c3.4-3.09,6.86-3.48,10.11-1.07C194.46,62.79,191.28,63.57,187.75,62.79ZM201.8,47.28c1.57,3.26,1.41,6.38.67,9.61C199.35,53.84,199.07,50.63,201.8,47.28Zm-1.55,12.45c-6.13-2.79-10.49-7.48-13.9-13.18A29.85,29.85,0,0,1,200.25,59.73Zm384,6.12c1.54-.11,3.1-.57,3.44-2.43s-.84-2.88-2.24-3.58c-1.63-.82-3.37-1.41-5.17-2.15.5-.46,1-.89,1.45-1.34,2.84-2.72,5.43-5.64,6.81-9.4.83-2.28-.34-3.84-2.7-3.35A14.39,14.39,0,0,0,581,45.77c-2.11,1.42-4,3.14-6,4.74a32,32,0,0,0-1.64-4c-1.37-2.42-3.88-2.38-5,.18A16.56,16.56,0,0,0,567.11,52c-.26,3.61.44,7.16,3.12,9.72C574.1,65.44,579,66.24,584.2,65.85Zm.48-3c-3.55.75-6.73,0-9.94-1C577.38,59.11,581,59.44,584.68,62.8Zm1.88-16.35c-3.83,5.82-8.29,10.4-14.25,13.42C573.51,55.41,582.33,47.11,586.56,46.45Zm-15.88,1.07c2.53,2.37,2.35,5.68-.65,9.5C569,52.54,569.22,49.79,570.68,47.52ZM378.29,57.09a2.65,2.65,0,0,0,2.26.57c.46-.19.54-1.36.77-2.11.53-1.78.69-3.81,1.67-5.3,1.52-2.33,3.8-2.37,5.93-.54a6.64,6.64,0,0,1,2.2,5.88c0,.68.19,1.86.6,2a3.15,3.15,0,0,0,2.28-.41,5.69,5.69,0,0,0,1.62-1.72,11.39,11.39,0,0,0-12.81-17.34c-4.82,1.52-8,5.81-8,12.2A9.8,9.8,0,0,0,378.29,57.09Zm3-14.19a7.42,7.42,0,0,1,9.17-.39,7.23,7.23,0,0,1,3,8.59c-3.5-7.34-10.37-8.19-14.62-.14A6.92,6.92,0,0,1,381.31,42.9ZM193.89,361.37c.74,0,1.92-.21,2.14-.67a2.91,2.91,0,0,0-.52-2.27,6.8,6.8,0,0,0-1.9-1.71,11.28,11.28,0,0,0-13,.4,11.78,11.78,0,0,0-4.12,12.75,11.61,11.61,0,0,0,10.82,7.89,10.31,10.31,0,0,0,8.12-3.47,3.19,3.19,0,0,0,.58-2.43c-.08-.36-1.41-.62-2.17-.6a6.71,6.71,0,0,1-6.18-2.82,3.38,3.38,0,0,1,.09-4.52A7.07,7.07,0,0,1,193.89,361.37Zm-4.49,12.08a6.41,6.41,0,0,1-7.35-1.41c-2.79-2.88-3.32-6.65-1.37-9.77a7.32,7.32,0,0,1,9-3.19c-3.64,1.46-6,3.84-6,7.45S186.27,372.1,189.4,373.45Zm388.49-2.17a4.79,4.79,0,0,0-1-.06c-.75.19-1.92.27-2.12.74a2.68,2.68,0,0,0,.55,2.26,9.8,9.8,0,0,0,6.75,3.53c9-.05,14.42-7.22,12.29-14.59C592,355,581.68,352,575.8,357.94c-.65.64-.79,1.79-1.16,2.71a8.64,8.64,0,0,0,2.58.67c3-.17,6.62,2.17,6.84,4.63S581,371.23,577.89,371.28Zm3.52-12.08c2.27-1.32,5.48-.59,7.64,1.65a7.35,7.35,0,0,1,1,9.43c-2,3.31-5,4.51-8.91,3.29,3.45-1.49,6.1-3.63,6-7.22S584.77,360.48,581.41,359.2ZM391,690.37a9.76,9.76,0,0,0-.59,2.63c.16,3.1-2.28,6.52-5,6.74-2.27.19-4.87-3-5-6a5.37,5.37,0,0,0,0-1c-.2-.81-.48-1.6-.73-2.39a6.93,6.93,0,0,0-2.44.88,10.31,10.31,0,0,0-3.34,8,11.47,11.47,0,0,0,21.38,5.61,11,11,0,0,0-1.48-13.21C393.19,690.91,392,690.76,391,690.37Zm-.43,14.55c-3.15,2.51-6.28,2.81-9.3.86a7.38,7.38,0,0,1-3.2-8.77c3.47,7.07,10.42,8.49,14.64.16A6.64,6.64,0,0,1,390.57,704.92ZM444,198.28c.45,2.87.9,5.75,1.37,8.62.15.9.39,1.78.59,2.67a46.51,46.51,0,0,0,1.85-9.46c.25-3.56,2.25-5.34,5.31-6.35,1.44-.48,2.91-.86,4.53-1.33-2.07-.67-3.93-1.15-5.69-1.85a6.05,6.05,0,0,1-4.09-5.54c-.29-3.29-1-6.54-1.53-9.81a68.48,68.48,0,0,0-2.24,10.67,4.74,4.74,0,0,1-2.77,4c-2.07,1-4.25,1.68-6.52,2.55,1.65.5,3.34.86,4.91,1.51C441.68,194.83,443.61,195.81,444,198.28ZM265.31,415c-2-.62-3.8-1-5.49-1.7a6.21,6.21,0,0,1-4.4-5.75c-.26-3.25-1-6.46-1.52-9.68a3.62,3.62,0,0,0-.85,2c-.49,2.94-.81,5.92-1.52,8.8a6,6,0,0,1-2.19,3.49,51.56,51.56,0,0,1-7,3l2.63.63c4.79,1.14,6.26,2.7,7,7.51.16.91.27,1.83.42,2.75.34,2,.7,4.08,1,6.12a43.49,43.49,0,0,0,1.94-9.57c.23-3.41,2.14-5.12,5-6.17C261.92,415.92,263.5,415.55,265.31,415ZM488.72,144.79c.09.75.32,1.48.48,2.22a5.2,5.2,0,0,0,.8-2.41c.2-4.38,1.16-8.13,6.82-8.34a20.33,20.33,0,0,0-2.52-.94c-2.22-.75-3.8-1.89-3.83-4.62a34.24,34.24,0,0,0-.92-5.43l-.46-.07c-.36,2-.85,4.09-1,6.15a4.2,4.2,0,0,1-3.07,3.71c-1,.38-1.94.66-2.91,1C487.73,136.37,488.23,140.57,488.72,144.79ZM253.42,568.35a30.62,30.62,0,0,0-1-5.37,13.45,13.45,0,0,0-1.16,4.7c-.15,3-1.53,4.94-4.54,5.6-.57.12-1.13.34-1.93.58.68.24,1.15.45,1.63.57,3.47.93,4.33,1.89,4.8,5.34.23,1.68.5,3.36.75,5.05l.52,0c.34-2,.82-4,1-6a4.11,4.11,0,0,1,2.78-3.72c1-.44,2.12-.75,3.43-1.2l-2-.62C255.25,572.51,253.45,571.36,253.42,568.35Zm48.44-439a40.31,40.31,0,0,0-1-5.62,4.68,4.68,0,0,0-.71,2.18c-.36,4.19-1.08,8.08-6.33,8.71,0,0-.06.19-.11.36l1.32.4c3.35.92,4.26,2,4.68,5.44.2,1.67.49,3.34.74,5a6.22,6.22,0,0,0,.95-2.86c.24-4.16,1.27-7.66,6.29-8.3-.62-.21-1.23-.44-1.85-.62C303.49,133.4,302,132.14,301.86,129.39Zm125,177.55a34,34,0,0,0-.94-5.51,28.12,28.12,0,0,0-1.43,6.28c-.22,2.1-1.49,3.13-3.26,3.81-.83.31-1.71.52-2.76.83.34.22.53.43.75.47,3.82.57,5.56,2.82,5.63,6.64a23.83,23.83,0,0,0,.79,4.11,14.56,14.56,0,0,0,.91-4.16c.23-3.35,1.46-5.84,5.12-6.45a8.32,8.32,0,0,0,1.42-.58c-.84-.25-1.39-.43-1.94-.58C428.72,311.1,426.93,309.94,426.9,306.94ZM259.1,341.61a23.14,23.14,0,0,0,.78,4.15,15.82,15.82,0,0,0,.92-4.36c.23-3.49,1.62-5.92,5.41-6.38a4.36,4.36,0,0,0,1.18-.58c-.73-.18-1.24-.29-1.74-.44-2.59-.75-4.58-1.9-4.58-5.12a31.06,31.06,0,0,0-.91-5.34,28.25,28.25,0,0,0-1.43,6.28,4.19,4.19,0,0,1-2.94,3.63c-1,.39-2,.68-3.1,1.06a2.45,2.45,0,0,0,.65.36C257.23,335.43,259.05,337.69,259.1,341.61ZM519.8,545.52a52.63,52.63,0,0,0,.84,5.4h.41a21.94,21.94,0,0,0,.55-3.29c.07-4,1.5-6.9,5.91-7.48.23,0,.44-.24.82-.45-.72-.15-1.27-.24-1.81-.4-2.58-.74-4.57-1.88-4.59-5.08a30.78,30.78,0,0,0-.91-5.4,23,23,0,0,0-1.31,5.78c-.25,2.56-1.68,3.89-4,4.51-.68.18-1.35.41-2.41.74.9.26,1.4.42,1.89.55C517.81,541.1,519.64,542.47,519.8,545.52ZM182.64,434.62c-1.34,0-1.91.94-1.9,2.25s.8,2.35,2.15,2.19c.8-.09,1.51-.95,2-1.27C184.75,435.7,184.17,434.61,182.64,434.62Zm405.29,4.49c1.38,0,2.16-.79,2.51-2.67-.75-.62-1.45-1.67-2.27-1.77-1.48-.17-2.11,1-2.16,2.44A1.76,1.76,0,0,0,587.93,439.11Zm2.1-12.29a1.79,1.79,0,0,0-1.78-2.15c-1.59-.06-2.25,1.12-2.15,2.48.06.74.79,1.44,1,1.84C589.33,429.06,589.94,428.22,590,426.82ZM183.44,313.52c1.61,0,2-1.21,2.23-3.18a5.61,5.61,0,0,0-2-1.09c-1.5-.21-2.07.82-2.12,2.2A1.76,1.76,0,0,0,183.44,313.52ZM586.9,311c-.13,1.34.49,2.55,2.08,2.53a1.77,1.77,0,0,0,1.85-2.08c-.06-1.39-.63-2.26-2.84-2.25C587.74,309.58,587,310.25,586.9,311ZM184.72,427.28c.16-1.33-.43-2.56-2-2.6a1.74,1.74,0,0,0-1.91,2c0,1.36.54,2.29,2.75,2.34C183.82,428.66,184.63,428,184.72,427.28Zm401.39,19.6A1.68,1.68,0,0,0,588,449c.86-.07,1.65-1,2.47-1.57v-.93c-.8-.55-1.61-1.56-2.4-1.53S586.34,446.09,586.11,446.88Zm-403.37-2c-1.35,0-2.23.9-1.94,2.14a3.1,3.1,0,0,0,1.91,2c1.16.22,2.06-.63,2.11-2.24A1.93,1.93,0,0,0,182.74,444.89ZM332,702.81a1.81,1.81,0,0,0-2,2c0,1.24.54,2.17,2.71,2.12.28-.41,1.1-1.12,1.2-1.92A1.84,1.84,0,0,0,332,702.81Zm106.71,0a1.83,1.83,0,0,0-1.91,2.22c.12.8,1,1.5,1.46,2.24h1c.5-.77,1.3-1.49,1.43-2.31A1.76,1.76,0,0,0,438.75,702.81Zm.77-657.55c1.34.3,2.05-.77,2-2s-.55-2-1.92-2c-1.21,0-2,.51-2.11,2.49C438,44.08,438.66,45.06,439.52,45.26Zm-106.63.06a1.84,1.84,0,0,0,1.9-2.24c-.13-.8-1-1.48-1.49-2.22l-1,0c-.49.77-1.28,1.49-1.4,2.32A1.75,1.75,0,0,0,332.89,45.32ZM589,233.54c.81-.14,1.49-1,2.23-1.6l0-.93c-.78-.49-1.51-1.27-2.34-1.39a1.72,1.72,0,0,0-2,1.92C586.85,232.88,587.71,233.75,589,233.54ZM183.59,223.6a1.67,1.67,0,0,0,1.9-2.12,2.91,2.91,0,0,0-2.06-1.74c-.69-.06-1.46.95-2.2,1.49l0,.94C182,222.67,182.78,223.52,183.59,223.6Zm-.76,404.27a1.7,1.7,0,0,0,1.94-2c0-1.34-.89-2.2-2.14-2-.81.15-1.47,1.07-2.2,1.64,0,.31,0,.62,0,.93C181.26,627,182,627.76,182.83,627.87Zm405.28-.06c.69.09,1.5-.89,2.27-1.4v-.93c-.76-.54-1.46-1.42-2.28-1.53a1.66,1.66,0,0,0-2,2A2.89,2.89,0,0,0,588.11,627.81Zm.86-424.1c.81-.14,1.48-1,2.22-1.6l0-.93c-.77-.49-1.51-1.27-2.34-1.38a1.71,1.71,0,0,0-2,1.92C586.86,203.07,587.72,203.93,589,203.71Zm-405.82-4.3c-.53.75-1.52,1.55-1.46,2.24a2.93,2.93,0,0,0,1.77,2,1.68,1.68,0,0,0,2.06-2c-.12-.83-1-1.55-1.47-2.32ZM588.09,637.75c.69.09,1.52-.88,2.28-1.38,0-.31,0-.62,0-.93-.75-.55-1.45-1.43-2.26-1.55a1.67,1.67,0,0,0-2,2A2.87,2.87,0,0,0,588.09,637.75ZM184.7,646a1.68,1.68,0,0,0-1.91-2.12c-.81.09-1.55.93-2.33,1.44l0,.93c.74.54,1.52,1.56,2.22,1.5A2.93,2.93,0,0,0,184.7,646ZM588,643.83a1.67,1.67,0,0,0-1.9,2.12,2.9,2.9,0,0,0,2.06,1.75c.69,0,1.46-1,2.2-1.5l0-.94C589.58,644.76,588.84,643.91,588,643.83Zm-403.25,21.9c0-1.34-.85-2.22-2.11-2-.81.13-1.49,1-2.23,1.58l0,.93c.77.49,1.5,1.28,2.33,1.4A1.71,1.71,0,0,0,184.78,665.73ZM588.89,189.91a2.88,2.88,0,0,0-2,1.84,1.66,1.66,0,0,0,2,2c.81-.12,1.52-1,2.27-1.54,0-.31,0-.62,0-.93C590.4,190.8,589.58,189.82,588.89,189.91ZM589,180a2.9,2.9,0,0,0-2,1.77,1.67,1.67,0,0,0,1.93,2.09c.81-.09,1.54-.94,2.31-1.45,0-.31,0-.63,0-.94C590.44,180.91,589.65,179.91,589,180Zm-403.47,1.78a2.89,2.89,0,0,0-2-1.78c-.69-.07-1.49.93-2.24,1.46,0,.31,0,.62,0,.93.76.52,1.49,1.38,2.31,1.47A1.66,1.66,0,0,0,185.49,181.75Zm403.37-31.66a1.72,1.72,0,0,0-2,1.87c0,1.35.83,2.23,2.07,2,.82-.12,1.52-1,2.27-1.54,0-.31,0-.63,0-.94C590.4,151,589.69,150.23,588.86,150.09ZM185.57,82.38a1.7,1.7,0,0,0-2-1.87c-.83.13-1.55.93-2.31,1.43,0,.31,0,.62,0,.93.75.54,1.44,1.43,2.26,1.55C184.75,84.61,185.58,83.72,185.57,82.38Zm-2,12a1.67,1.67,0,0,0,1.9-2.11,2.9,2.9,0,0,0-2.06-1.75c-.69,0-1.46,1-2.2,1.5l0,.94C182,93.44,182.78,94.28,183.59,94.36ZM588.86,90.5a2.89,2.89,0,0,0-1.94,1.86,1.66,1.66,0,0,0,2,2c.81-.13,1.5-1,2.24-1.57,0-.31,0-.62,0-.93C590.39,91.36,589.56,90.4,588.86,90.5ZM183.59,104.28a2.89,2.89,0,0,0,1.87-2c.1-.69-.88-1.53-1.38-2.31l-.91,0c-.53.75-1.37,1.43-1.53,2.26A1.63,1.63,0,0,0,183.59,104.28Zm405.27,0c.81-.09,1.54-1,2.3-1.47,0-.31,0-.62,0-.93-.75-.53-1.54-1.52-2.24-1.46a2.94,2.94,0,0,0-2,1.79A1.67,1.67,0,0,0,588.86,104.3Zm.09,9.94c.81-.13,1.49-1,2.23-1.58,0-.31,0-.62,0-.93-.77-.49-1.5-1.28-2.33-1.4a1.71,1.71,0,0,0-2,1.9C586.85,113.57,587.69,114.45,589,114.24Zm-405.49,10c1.25.21,2.1-.66,2.11-2a1.71,1.71,0,0,0-2-1.92c-.83.12-1.56.9-2.34,1.39l0,.93C182,123.15,182.65,124.05,183.46,124.19Zm405.35-3.92a1.71,1.71,0,0,0-2,1.92c0,1.35.88,2.21,2.13,2,.81-.14,1.48-1,2.22-1.61l0-.93C590.38,121.16,589.64,120.38,588.81,120.27ZM185.49,142a2.89,2.89,0,0,0-2-1.8c-.69-.08-1.5.91-2.25,1.42,0,.32,0,.63,0,.94.76.53,1.47,1.4,2.29,1.5A1.67,1.67,0,0,0,185.49,142Zm-4.23,20.51c.78.5,1.52,1.35,2.33,1.43,1.27.12,2-.81,2-2.14a1.72,1.72,0,0,0-2.11-1.77c-.82.17-1.49,1-2.23,1.55ZM183.6,170c-.83.11-1.56.9-2.34,1.38l0,.94c.74.55,1.42,1.46,2.23,1.59,1.24.21,2.1-.65,2.11-2A1.71,1.71,0,0,0,183.6,170Zm407.56,1.41c-.77-.5-1.6-1.46-2.3-1.36a2.89,2.89,0,0,0-1.94,1.86,1.66,1.66,0,0,0,2,2c.81-.13,1.5-1,2.24-1.57C591.18,172,591.17,171.7,591.16,171.39Zm-3.08,287.48c.82-.14,1.53-.95,2.29-1.46v-.93c-.76-.54-1.46-1.42-2.28-1.53-1.25-.17-2.08.71-2.05,2.06A1.72,1.72,0,0,0,588.08,458.87Zm-405.29,6c-.81.08-1.55.93-2.33,1.44l0,.93c.74.54,1.52,1.55,2.22,1.5a2.91,2.91,0,0,0,2-1.76A1.67,1.67,0,0,0,182.79,464.89Zm403.26,2a1.7,1.7,0,0,0,1.94,1.94c.84-.11,1.58-.88,2.36-1.35,0-.31,0-.62,0-.93-.73-.58-1.39-1.49-2.2-1.64C587,464.67,586.08,465.52,586.05,466.87Zm2.05,11.83c.69.08,1.51-.89,2.27-1.4,0-.31,0-.62,0-.93-.75-.54-1.45-1.42-2.27-1.54a1.66,1.66,0,0,0-2,2A2.92,2.92,0,0,0,588.1,478.7ZM185.57,301.08a1.71,1.71,0,0,0-2-1.87c-.82.14-1.54.94-2.3,1.44v.93c.75.54,1.45,1.43,2.26,1.55C184.75,303.31,185.59,302.42,185.57,301.08Zm-.85,185.68c-.13-.84-1-1.57-1.47-2.35l-.87,0a8.12,8.12,0,0,0-1.54,2.28c-.29,1.22.57,2,1.79,2.08S184.92,488.09,184.72,486.76Zm401.41.13a2.9,2.9,0,0,0,2.06,1.75c.69.05,1.46-1,2.2-1.5l0-.94c-.78-.5-1.52-1.34-2.33-1.42A1.66,1.66,0,0,0,586.13,486.89ZM589,279.38a2.9,2.9,0,0,0-2,1.77,1.67,1.67,0,0,0,1.92,2.09c.82-.09,1.55-.94,2.32-1.45,0-.31,0-.62,0-.93C590.44,280.32,589.65,279.32,589,279.38Zm-407.7,2.43c.78.51,1.52,1.36,2.34,1.43a1.66,1.66,0,0,0,1.89-2.11,2.91,2.91,0,0,0-2.05-1.75c-.7-.05-1.47,1-2.21,1.5Zm1.38,226.71a2.92,2.92,0,0,0,2.06-1.75,1.67,1.67,0,0,0-1.9-2.11c-.82.08-1.56.92-2.33,1.42l0,.94C181.17,507.56,182,508.57,182.64,508.52ZM588.91,273.3c.81-.12,1.51-1,2.27-1.54,0-.31,0-.62,0-.93-.77-.51-1.59-1.48-2.28-1.39a2.88,2.88,0,0,0-2,1.84A1.66,1.66,0,0,0,588.91,273.3ZM182.48,518.48a1.63,1.63,0,0,0,2.22-1.73,3,3,0,0,0-1.74-2.1c-.67-.16-1.61.73-2.43,1.16l-.12.91C181.09,517.33,181.68,518.25,182.48,518.48Zm405.57-3.88a1.67,1.67,0,0,0-1.92,2.09,2.89,2.89,0,0,0,2,1.77c.69.06,1.48-.94,2.22-1.46,0-.32,0-.63,0-1C589.6,515.54,588.86,514.69,588.05,514.6ZM182.79,604.07c-.82.08-1.55.93-2.33,1.44,0,.31,0,.62,0,.93.74.54,1.52,1.55,2.21,1.5a3,3,0,0,0,2-1.76A1.67,1.67,0,0,0,182.79,604.07Zm-.5-79.91a7.85,7.85,0,0,0-1.45,2.35c-.25,1.24.67,2,1.87,2s2.26-.74,2-2.06c-.16-.83-1-1.53-1.57-2.29Zm405.76.38a1.66,1.66,0,0,0-1.92,2.09,2.91,2.91,0,0,0,2,1.77c.69.07,1.48-.94,2.22-1.47,0-.31,0-.62,0-.94C589.59,525.48,588.86,524.63,588.05,524.54Zm3.1-263.72c-.78-.48-1.52-1.26-2.35-1.37a1.71,1.71,0,0,0-2,1.93,1.8,1.8,0,0,0,2.14,2c.8-.14,1.48-1.05,2.21-1.62Zm-409.92,1c.75.54,1.45,1.43,2.26,1.55a1.67,1.67,0,0,0,2-2,2.92,2.92,0,0,0-2-1.85c-.69-.09-1.52.87-2.29,1.38Zm407.6-8.39c.82-.08,1.55-.93,2.33-1.44l0-.93c-.75-.54-1.53-1.55-2.22-1.49a2.93,2.93,0,0,0-2.05,1.75A1.67,1.67,0,0,0,588.83,253.42Zm-.7,284.92c.69.08,1.49-.91,2.25-1.43,0-.31,0-.62,0-.93-.76-.53-1.47-1.4-2.29-1.5a1.66,1.66,0,0,0-2,2.06A2.91,2.91,0,0,0,588.13,538.34Zm-405,5.69-.86,0c-.49.78-1.29,1.52-1.42,2.36a1.61,1.61,0,0,0,2.06,1.9,2.83,2.83,0,0,0,1.76-2C184.7,545.56,183.68,544.78,183.12,544Zm403,2.51a2.92,2.92,0,0,0,2,1.74c.69.06,1.47-.95,2.21-1.49l0-.93c-.78-.51-1.52-1.36-2.33-1.44A1.67,1.67,0,0,0,586.13,546.54ZM181.69,251.36a2.87,2.87,0,0,0,1.77,2,1.67,1.67,0,0,0,2-2c-.11-.82-.95-1.54-1.46-2.31l-.91,0C182.62,249.87,181.63,250.66,181.69,251.36ZM588,558.28c.83-.12,1.57-.9,2.35-1.38l0-.93c-.73-.56-1.41-1.47-2.22-1.61a1.8,1.8,0,0,0-2.12,2A1.71,1.71,0,0,0,588,558.28Zm-405.3,10c1.3,0,2.26-.74,2-2.06-.16-.84-1-1.54-1.57-2.29h-.86a8,8,0,0,0-1.45,2.35C180.59,567.51,181.5,568.25,182.71,568.27Zm405.39-.1c.69.09,1.51-.89,2.27-1.4,0-.31,0-.62,0-.93-.75-.54-1.45-1.42-2.27-1.54a1.66,1.66,0,0,0-2,2A2.88,2.88,0,0,0,588.1,568.17Zm-405.36,16c-.81.1-1.53,1-2.29,1.5,0,.31,0,.62,0,.93.76.52,1.57,1.5,2.26,1.43a2.94,2.94,0,0,0,2-1.81A1.66,1.66,0,0,0,182.74,584.19Zm.06,9.94c-.82.08-1.56.92-2.33,1.42l0,.94c.74.54,1.52,1.56,2.21,1.5a2.9,2.9,0,0,0,2.06-1.75A1.67,1.67,0,0,0,182.8,594.13ZM588.15,598c.69.07,1.48-.92,2.23-1.45v-.94c-.77-.52-1.49-1.38-2.3-1.47a1.67,1.67,0,0,0-1.94,2.08A2.91,2.91,0,0,0,588.15,598ZM183.46,243.46a1.67,1.67,0,0,0,2-2c-.11-.82-.95-1.55-1.46-2.31l-.91,0c-.52.75-1.51,1.55-1.45,2.25A2.91,2.91,0,0,0,183.46,243.46ZM588.09,607.93c.69.09,1.51-.88,2.28-1.38,0-.31,0-.63,0-.94-.75-.54-1.45-1.42-2.26-1.54a1.67,1.67,0,0,0-2,2A2.92,2.92,0,0,0,588.09,607.93Zm0,10c.82-.13,1.54-.93,2.3-1.43,0-.31,0-.63,0-.94-.75-.54-1.45-1.42-2.26-1.54-1.25-.18-2.09.7-2.07,2A1.71,1.71,0,0,0,588.07,617.92ZM222.61,45.58h.92c.53-.75,1.52-1.55,1.46-2.24a2.89,2.89,0,0,0-1.8-2,1.65,1.65,0,0,0-2.05,1.95C221.25,44.1,222.1,44.82,222.61,45.58Zm10.54-.39c.81-.18,1.49-1,2.23-1.57,0-.3,0-.6,0-.9-.77-.49-1.62-1.45-2.31-1.35a2.92,2.92,0,0,0-1.93,1.89A1.63,1.63,0,0,0,233.15,45.19Zm9.34.39h.93c.52-.75,1.52-1.55,1.45-2.25a2.89,2.89,0,0,0-1.8-2,1.66,1.66,0,0,0-2,1.95C241.13,44.1,242,44.82,242.49,45.58Zm346.37,88.55c.81-.1,1.54-1,2.3-1.47,0-.31,0-.63,0-.94-.75-.52-1.54-1.52-2.24-1.45a2.91,2.91,0,0,0-2,1.78A1.67,1.67,0,0,0,588.86,134.13ZM181.23,112.67c.75.55,1.44,1.44,2.25,1.58a1.67,1.67,0,0,0,2-2,2.89,2.89,0,0,0-1.94-1.86c-.69-.09-1.53.87-2.3,1.36C181.25,112.05,181.24,112.36,181.23,112.67Zm91.6-67.53c.71.08,1.53-.89,2.3-1.39v-.9c-.75-.53-1.45-1.39-2.27-1.53a1.66,1.66,0,0,0-2,2A2.89,2.89,0,0,0,272.83,45.14ZM586.92,82.33a1.67,1.67,0,0,0,1.92,2.09c.82-.09,1.55-.94,2.32-1.45,0-.31,0-.62,0-.93-.74-.54-1.53-1.55-2.22-1.48A2.92,2.92,0,0,0,586.92,82.33ZM292.64,45.17a2.91,2.91,0,0,0,1.94-1.86c.11-.7-.83-1.56-1.31-2.35l-.88-.06c-.58.73-1.5,1.4-1.66,2.21A1.63,1.63,0,0,0,292.64,45.17Zm10.08,0c.71.06,1.49-.94,2.24-1.47,0-.3,0-.6,0-.9-.77-.51-1.5-1.33-2.32-1.44a1.65,1.65,0,0,0-1.93,2.06A2.86,2.86,0,0,0,302.72,45.13Zm9.47.47.91,0c.5-.78,1.45-1.62,1.35-2.32a2.86,2.86,0,0,0-1.87-1.91,1.66,1.66,0,0,0-2,2C310.76,44.18,311.64,44.86,312.19,45.6Zm279,245.09c-.77-.5-1.6-1.45-2.29-1.36a2.91,2.91,0,0,0-2,1.85,1.66,1.66,0,0,0,2,2c.81-.12,1.5-1,2.25-1.55C591.17,291.31,591.17,291,591.16,290.69ZM539.48,45.13c.71.06,1.49-.94,2.24-1.47v-.87c-.78-.51-1.51-1.34-2.34-1.47a1.63,1.63,0,0,0-1.93,2A2.86,2.86,0,0,0,539.48,45.13Zm-79.16.45c.52-.75,1.37-1.47,1.48-2.28a1.65,1.65,0,0,0-2-2,2.87,2.87,0,0,0-1.81,2c-.07.7.92,1.5,1.44,2.26Zm128.56,197.9c.81-.11,1.53-1,2.29-1.5v-.93c-.75-.52-1.56-1.51-2.25-1.43a2.91,2.91,0,0,0-2,1.8A1.67,1.67,0,0,0,588.88,243.48Zm-405.27-9.94a1.67,1.67,0,0,0,1.88-2.13,2.9,2.9,0,0,0-2.07-1.74c-.69,0-1.46,1-2.19,1.53,0,.31,0,.62,0,.93C182.05,232.62,182.79,233.47,183.61,233.54ZM529.46,45.17a1.62,1.62,0,0,0,1.93-2c-.15-.81-1.06-1.48-1.63-2.22l-.89,0c-.48.79-1.43,1.64-1.32,2.34A2.87,2.87,0,0,0,529.46,45.17Zm-9.61.43c.56-.73,1.45-1.4,1.6-2.2a1.65,1.65,0,0,0-1.94-2.06,2.89,2.89,0,0,0-1.91,1.89c-.1.69.84,1.54,1.32,2.32ZM222.28,703a2.83,2.83,0,0,0-1.91,1.88,1.66,1.66,0,0,0,2.06,1.94c.81-.17,1.48-1.05,2.22-1.61,0-.29,0-.59,0-.89C223.83,703.84,223,702.9,222.28,703Zm19.38-.44c-.5.77-1.34,1.51-1.43,2.32a1.66,1.66,0,0,0,2.08,1.92,2.94,2.94,0,0,0,1.78-2c0-.7-1-1.48-1.52-2.22Zm345.26-491a1.67,1.67,0,0,0,1.88,2.13c.82-.07,1.57-.9,2.35-1.4,0-.31,0-.62,0-.94-.73-.54-1.5-1.55-2.19-1.5A2.9,2.9,0,0,0,586.92,211.52Zm-315,491.42c-1.24-.19-1.95.74-1.94,1.94s.87,2.2,2.15,1.93c.81-.17,1.47-1.06,2.21-1.62l0-.88A7.92,7.92,0,0,0,271.94,702.94ZM183,269c-.48.78-1.43,1.62-1.34,2.31a2.88,2.88,0,0,0,1.85,2,1.66,1.66,0,0,0,2-2c-.15-.82-1-1.5-1.57-2.25Zm98.58,433.53c-.57.72-1.46,1.39-1.62,2.19a1.66,1.66,0,0,0,1.94,2.07,2.91,2.91,0,0,0,1.91-1.89c.11-.69-.84-1.54-1.31-2.33ZM180.45,576.73c.77.5,1.6,1.47,2.29,1.38a2.9,2.9,0,0,0,2-1.85,1.67,1.67,0,0,0-2-2c-.82.13-1.51,1-2.26,1.56C180.44,576.11,180.45,576.42,180.45,576.73Zm111.09,125.8c-.56.73-1.45,1.4-1.6,2.2a1.65,1.65,0,0,0,1.93,2.07,2.91,2.91,0,0,0,1.91-1.89c.1-.69-.84-1.55-1.32-2.33Zm10.31.47c-.7-.1-1.55.85-2.33,1.34l0,.86c.74.56,1.42,1.44,2.24,1.62a1.63,1.63,0,0,0,2-1.93A2.85,2.85,0,0,0,301.85,703Zm19.31-.43c-.49.78-1.32,1.52-1.4,2.34a1.65,1.65,0,0,0,2.11,1.88,2.89,2.89,0,0,0,1.74-2c0-.7-1-1.46-1.54-2.2Zm169-657c.51-.76,1.36-1.48,1.47-2.3a1.65,1.65,0,0,0-2.05-1.94,2.89,2.89,0,0,0-1.8,2c-.07.7.93,1.49,1.46,2.25ZM182.78,633.89c-.82.09-1.55.94-2.32,1.45,0,.32,0,.63,0,.94.74.53,1.53,1.53,2.22,1.47a3,3,0,0,0,2-1.76A1.67,1.67,0,0,0,182.78,633.89Zm266.9,68.69-.91,0c-.56.73-1.6,1.49-1.55,2.19a2.87,2.87,0,0,0,1.73,2.06,1.66,1.66,0,0,0,2.12-1.87C451,704.1,450.17,703.36,449.68,702.58Zm-267-204a1.64,1.64,0,0,0,2.07-1.93c-.13-.84-1-1.57-1.47-2.35l-.87,0c-.54.76-1.53,1.55-1.48,2.27A2.88,2.88,0,0,0,182.65,498.62Zm296.86,204-.91,0c-.57.73-1.6,1.49-1.57,2.18a2.89,2.89,0,0,0,1.73,2.07,1.65,1.65,0,0,0,2.13-1.86C480.82,704.11,480,703.36,479.51,702.58ZM182.79,474.83c-.82.09-1.56.94-2.33,1.45,0,.31,0,.62,0,.93.74.54,1.52,1.54,2.21,1.48a2.91,2.91,0,0,0,2-1.75A1.67,1.67,0,0,0,182.79,474.83ZM498.68,703a2.93,2.93,0,0,0-1.75,2c0,.7,1,1.47,1.5,2.22l.91,0c.5-.78,1.34-1.52,1.43-2.35A1.62,1.62,0,0,0,498.68,703ZM182.74,534.48c-.81.1-1.53,1-2.29,1.5v.93c.75.52,1.45,1.34,2.27,1.49a1.71,1.71,0,0,0,2.05-1.84C184.82,535.21,184,534.32,182.74,534.48Zm326.6,168.1-.92,0c-.56.73-1.59,1.48-1.55,2.18a2.88,2.88,0,0,0,1.72,2.07,1.65,1.65,0,0,0,2.12-1.86C510.64,704.11,509.82,703.36,509.34,702.58ZM182.72,653.77c-.81.12-1.52,1-2.27,1.53v.93c.76.51,1.57,1.49,2.26,1.41a2.9,2.9,0,0,0,2-1.82A1.68,1.68,0,0,0,182.72,653.77Zm334,51a1.64,1.64,0,0,0,1.92,2.06c.84-.13,1.56-1,2.34-1.47l0-.87c-.75-.53-1.54-1.53-2.25-1.47A2.84,2.84,0,0,0,516.77,704.76Zm12.45-2.18-.92,0c-.56.73-1.59,1.48-1.56,2.18a2.89,2.89,0,0,0,1.73,2.07,1.66,1.66,0,0,0,2.13-1.86C530.52,704.11,529.71,703.36,529.22,702.58Zm-59.77-657,.92,0c.48-.78,1.44-1.64,1.32-2.33a2.92,2.92,0,0,0-1.92-1.89,1.63,1.63,0,0,0-1.93,2C468,44.2,468.89,44.87,469.45,45.6ZM182.71,455c-.81.11-1.51,1-2.26,1.54v.93c.76.51,1.48,1.31,2.3,1.45a1.72,1.72,0,0,0,2-1.87C184.8,455.65,184,454.77,182.71,455ZM182.22,554c-.48.8-1.27,1.55-1.38,2.39a1.61,1.61,0,0,0,2.1,1.86,2.83,2.83,0,0,0,1.72-2.07c0-.72-1-1.48-1.58-2.22ZM591.15,161.41c-.78-.48-1.51-1.26-2.34-1.37a1.71,1.71,0,0,0-2,1.92c0,1.34.88,2.21,2.13,2,.8-.14,1.48-1,2.22-1.6C591.17,162,591.16,161.72,591.15,161.41ZM549.4,45.13c.7.07,1.5-.92,2.26-1.45v-.87c-.77-.52-1.48-1.35-2.32-1.49a1.63,1.63,0,0,0-1.94,2A2.84,2.84,0,0,0,549.4,45.13Zm-365.86,105c-.69-.09-1.52.88-2.29,1.38,0,.31,0,.62,0,.93.74.55,1.44,1.44,2.25,1.56a1.66,1.66,0,0,0,2-2A2.88,2.88,0,0,0,183.54,150.14Zm2,41.62a2.89,2.89,0,0,0-2-1.85c-.69-.09-1.52.87-2.29,1.37,0,.31,0,.62,0,.93.74.55,1.43,1.44,2.25,1.56A1.66,1.66,0,0,0,185.49,191.76Zm-3.21,421.88a7.81,7.81,0,0,0-1.44,2.35c-.24,1.23.66,2,1.88,2s2.25-.76,2-2.07c-.16-.83-1-1.53-1.58-2.28ZM252.94,45.19c.83-.16,1.54-1,2.31-1.51v-.93c-.79-.5-1.65-1.48-2.34-1.37A2.9,2.9,0,0,0,251,43.32,1.58,1.58,0,0,0,252.94,45.19Zm9.94,0c.82-.14,1.54-.95,2.3-1.46v-.9c-.75-.53-1.55-1.53-2.24-1.46a2.89,2.89,0,0,0-2,1.8A1.62,1.62,0,0,0,262.88,45.19Zm19.88,0c.7.08,1.52-.88,2.3-1.38,0-.3,0-.59,0-.89-.74-.54-1.43-1.41-2.25-1.55a1.65,1.65,0,0,0-2,2A2.85,2.85,0,0,0,282.76,45.14Zm167.14.11c1.29,0,2.13-.79,2-2-.12-.84-1-1.57-1.48-2.36h-.94c-.51.78-1.33,1.5-1.47,2.34C447.78,44.45,448.63,45.23,449.9,45.25ZM588.82,223.6c.81-.08,1.55-.92,2.33-1.42l0-.94c-.74-.54-1.51-1.55-2.21-1.49a2.94,2.94,0,0,0-2.06,1.73A1.68,1.68,0,0,0,588.82,223.6ZM311.78,703a1.62,1.62,0,0,0-2,2c.14.81,1,1.5,1.59,2.24l.89,0c.49-.77,1.45-1.61,1.36-2.31A2.93,2.93,0,0,0,311.78,703Zm276.3-198.3c-1.26-.16-2.08.74-2,2.08a1.71,1.71,0,0,0,2.06,1.82c.82-.15,1.52-1,2.27-1.48,0-.31,0-.62,0-.94C589.61,505.62,588.89,504.76,588.08,504.66Zm-404.53-291c1.26.15,2.07-.75,2-2.1a1.71,1.71,0,0,0-2.07-1.81c-.82.16-1.51,1-2.26,1.49,0,.31,0,.63,0,.94C182,212.7,182.74,213.56,183.55,213.66ZM323,45.57c.5-.79,1.3-1.54,1.41-2.38a1.58,1.58,0,0,0-2-1.85,3,3,0,0,0-1.87,2c-.08.69.94,1.5,1.48,2.26ZM185.57,291.22c0-1.26-.76-2.1-1.95-1.94-.83.11-1.57.88-2.35,1.35,0,.31,0,.62,0,.93.73.57,1.4,1.48,2.2,1.63C184.68,293.41,185.54,292.56,185.57,291.22Zm402.61,283a1.66,1.66,0,0,0-2,2,2.89,2.89,0,0,0,1.9,1.9c.69.11,1.54-.83,2.32-1.31,0-.31,0-.62,0-.93C589.66,575.3,589,574.39,588.18,574.25ZM538.55,703a1.62,1.62,0,0,0-1.88,2.08,2.86,2.86,0,0,0,2.05,1.73c.71,0,1.47-1,2.22-1.55l0-.86C540.12,703.86,539.38,703.05,538.55,703Zm10,0a1.62,1.62,0,0,0-1.94,2,2.84,2.84,0,0,0,2,1.79c.71.06,1.51-.94,2.26-1.47,0-.29,0-.58,0-.87C550.09,703.91,549.38,703.08,548.55,703Zm37.58-206.28a2.89,2.89,0,0,0,1.89,1.9c.69.11,1.55-.82,2.33-1.3l0-.93c-.73-.57-1.4-1.47-2.2-1.62A1.67,1.67,0,0,0,586.13,496.67ZM479.78,45.13c.7.08,1.52-.9,2.28-1.41v-.87c-.76-.54-1.46-1.38-2.29-1.53a1.62,1.62,0,0,0-2,2A2.84,2.84,0,0,0,479.78,45.13Zm109,95.09a2.89,2.89,0,0,0-1.9,1.9,1.67,1.67,0,0,0,2.06,1.95c.81-.15,1.48-1.06,2.21-1.63,0-.31,0-.62,0-.93C590.37,141,589.51,140.11,588.82,140.22Zm2.36,160.48c-.76-.52-1.46-1.33-2.28-1.48a1.7,1.7,0,0,0-2,1.82c-.05,1.35.77,2.24,2,2.09.81-.1,1.53-1,2.29-1.49C591.17,301.33,591.17,301,591.18,300.7ZM232.25,703a1.62,1.62,0,0,0-2,2c.14.81,1,1.5,1.59,2.25l.89,0c.49-.77,1.45-1.61,1.36-2.31A2.93,2.93,0,0,0,232.25,703Zm353.88-47.22a2.89,2.89,0,0,0,1.91,1.89c.69.1,1.54-.84,2.32-1.32l0-.93c-.73-.56-1.41-1.46-2.22-1.6A1.66,1.66,0,0,0,586.13,655.74Zm-.08,10a1.7,1.7,0,0,0,2,1.85c.83-.15,1.53-.94,2.29-1.45,0-.31,0-.62,0-.94-.76-.53-1.47-1.4-2.28-1.51C586.84,663.54,586,664.44,586.05,665.77Zm-86.5-620.6a1.62,1.62,0,0,0,2-2c-.12-.82-1-1.53-1.52-2.29h-.9c-.52.76-1.49,1.57-1.42,2.27A2.91,2.91,0,0,0,499.55,45.17ZM252.09,703a2.87,2.87,0,0,0-1.9,1.89,1.65,1.65,0,0,0,2.06,1.92c.82-.16,1.48-1,2.21-1.61l0-.89C253.64,703.83,252.79,702.9,252.09,703Zm8,1.91a2.88,2.88,0,0,0,2,1.85c.69.09,1.52-.88,2.29-1.38l0-.9c-.75-.54-1.44-1.38-2.26-1.54A1.63,1.63,0,0,0,260.13,704.91Zm197-.15a1.63,1.63,0,0,0,1.91,2.06c.84-.13,1.56-1,2.34-1.46,0-.29,0-.58,0-.87-.75-.54-1.53-1.54-2.24-1.49A2.89,2.89,0,0,0,457.13,704.76ZM468.87,703a2.93,2.93,0,0,0-1.76,2c-.05.7.95,1.48,1.49,2.22l.91,0c.5-.78,1.34-1.52,1.44-2.34A1.62,1.62,0,0,0,468.87,703ZM183.56,130.22c-.82.14-1.54.92-2.31,1.42v.93c.75.55,1.44,1.44,2.25,1.56,1.25.19,2.1-.69,2.08-2A1.71,1.71,0,0,0,183.56,130.22ZM489.38,702.56h-.92c-.53.75-1.53,1.54-1.47,2.24a2.91,2.91,0,0,0,1.78,2,1.66,1.66,0,0,0,2.06-1.94C490.73,704.05,489.89,703.33,489.38,702.56Zm20.78-657c.47-.8,1.43-1.69,1.3-2.38a2.76,2.76,0,0,0-2-1.79,2.73,2.73,0,0,0-1.79,2c-.06.7,1,1.48,1.53,2.23Zm77.95,542.53c.82-.15,1.52-1,2.27-1.48,0-.31,0-.62,0-.94-.76-.52-1.48-1.38-2.29-1.48-1.26-.16-2.08.74-2,2.08A1.71,1.71,0,0,0,588.11,588.09ZM387.4,262.78a6,6,0,0,0-5.76,5.88,4.79,4.79,0,0,0,5.19,5,5.31,5.31,0,0,0,5.16-5.41C392,265.16,390,262.78,387.4,262.78Zm2-89.27a3,3,0,0,0-2.92,2.69,2.87,2.87,0,0,0,2.61,3,2.94,2.94,0,0,0,3-2.81A2.79,2.79,0,0,0,389.42,173.51Zm88,129.39a5.49,5.49,0,0,0,5.3-5.72c0-3-1.73-4.91-4.47-4.94a5.93,5.93,0,0,0-6,5.81A5.06,5.06,0,0,0,477.42,302.9Zm31.8-92.74a2.8,2.8,0,1,0-5.59.24,2.63,2.63,0,0,0,2.65,2.65A2.94,2.94,0,0,0,509.22,210.16ZM293.77,295.82c-2.76,0-4.47,1.93-4.47,4.94a5.49,5.49,0,0,0,5.3,5.72,5.06,5.06,0,0,0,5.18-4.85A5.92,5.92,0,0,0,293.77,295.82Zm-25.38-82.1a2.78,2.78,0,0,0-2.84-2.71,2.74,2.74,0,0,0-2.75,2.79,2.92,2.92,0,0,0,3,2.82A2.64,2.64,0,0,0,268.39,213.72ZM369.27,118a7,7,0,0,0,.8,0c9.13.1,18.27.22,27.41.28a9.58,9.58,0,0,0,3.52-.45,2.7,2.7,0,0,0,1.55-1.92c0-.66-.85-1.51-1.54-1.94a6.76,6.76,0,0,0-2.34-.5c-.21-8-.41-15.87-.62-23.89a9.56,9.56,0,0,0,3.16-.34c.87-.41,2-1.42,2-2.16s-1.22-1.55-2-2.16c-.35-.26-1-.12-1.56-.12-8.08,0-16.16.08-24.24.18a41.75,41.75,0,0,0-6.33.46,2.53,2.53,0,0,0-1.67,1.75c0,.56.93,1.41,1.63,1.73a9.48,9.48,0,0,0,2.63.5v24.45c-1,.15-1.7.28-2.41.35-1.25.13-2.6.32-2.57,1.87S368.06,117.88,369.27,118Zm24.87-28.26v23.76h-6.27c-.29-7.88-.58-15.75-.88-23.76ZM376,89.63h7.45v24.1H376Z"/></svg>