<svg xmlns="http://www.w3.org/2000/svg" viewBox="0 0 750 750"><path d="M606.05,48.3a27.16,27.16,0,0,0-.46-5.33,21.85,21.85,0,0,0-22-17.86q-197.73,0-395.47-.11c-13.52,0-23.75,10.15-23.73,23.62q.27,163.15.1,326.31,0,163.76,0,327.51a23.66,23.66,0,0,0,.58,5.51c2.55,10.55,11.22,17,22.66,17q197.54,0,395.07,0a27.16,27.16,0,0,0,5.33-.46c10.93-2.24,17.86-11.09,17.86-22.8Q606.06,375,606.05,48.3Zm-4.26,653.33c0,11.55-7.47,19.09-18.95,19.09H187.55c-9.36,0-16.5-5.46-18.37-14.11a22.64,22.64,0,0,1-.35-4.74q0-163.46,0-326.93V47.62c0-8.93,5.45-15.95,14-17.86a19,19,0,0,1,4.14-.36q198.44,0,396.88,0a17.66,17.66,0,0,1,18,17.79c0,1.52,0,3,0,4.57Q601.79,376.7,601.79,701.63ZM429.65,249.72c-3.74,3.09-5,7.19-5.11,11.81a9.55,9.55,0,0,1-.31,1.33c-4.32-7.33-8.4-14.21-12.4-21.14a3.45,3.45,0,0,1-.09-2.1c.79-4.5,1.55-9,2.47-13.48,2.44-12,5-24,7.45-35.95.3-1.43.07-2.62-1.53-2.89s-2.19.73-2.35,2.08,0,2.53-.24,3.76q-3.84,20.7-7.78,41.38a7.34,7.34,0,0,1-.61,1.32c-1.9-5.14-4.74-8.91-9.87-10.31s-9.3,1.2-13.45,3.89v-1.87q0-24.95.08-49.88a9.71,9.71,0,0,0-.26-3.34c-.29-.76-1.29-1.73-1.95-1.72s-1.64,1-2,1.73a7.33,7.33,0,0,0-.21,2.94c.1,9.47.25,18.95.32,28.42q.5,68.46.94,136.93c0,.63-.07,1.26-.12,1.89h-3.07c-.13-.64-.27-1.21-.38-1.79-1.26-7-2.48-14-3.78-20.92q-5.76-30.94-11.54-61.9a3.71,3.71,0,0,1,.24-2.46c3.74-5.86,7.62-11.63,11.39-17.47a37.68,37.68,0,0,0,3.32-5.81,4.32,4.32,0,0,0-1.34-5.52c-2.28-1.76-4.62-3.54-7.5-1.56a20.38,20.38,0,0,0-4.39,4.21c-1.94,2.47-3.62,5.15-5.62,8-.25-1-.42-1.49-.53-2.05-1-5.07-2-10.13-2.93-15.22-1.9-10.88-3.72-21.78-5.57-32.67-.24-1.43-1-2.45-2.53-2.07s-1.71,1.64-1.31,3c.6,2.09,1.35,4.16,1.76,6.3,2.85,14.83,5.6,29.67,8.45,44.5a5,5,0,0,1-.85,3.87c-2.42,3.95-4.8,7.93-7,12-1.59,2.87-2.94,5.88-4.58,9.2-.66-1.62-1.18-2.81-1.64-4-7.88-20.6-15.83-41.17-23.59-61.81-4.76-12.64-9.24-25.38-13.83-38.08-.66-1.83-1.9-2.7-3.37-2.19s-2,2.1-1.14,4c2.35,5.39,4.83,10.74,7,16.22q14.23,35.81,28.32,71.69c2.28,5.79,4.53,11.58,6.78,17.32-2.27,5.52-5.74,10-9.74,14.38-.37-.53-.66-.89-.89-1.28q-15.33-25.67-30.66-51.35c-3.35-5.63-6.64-11.31-10.06-16.9a4.45,4.45,0,0,0-2.29-1.58c-.38-.13-1.49.54-1.5.89a5.4,5.4,0,0,0,.52,2.94q17.85,29.61,35.8,59.16c2.23,3.67,4.42,7.35,6.65,11.05L320,300.32c-.52-.63-.95-1.21-1.45-1.74q-18.24-19.53-36.5-39.05c-.75-.8-1.61-1.72-2.67-.73s-.21,1.91.54,2.71l32.11,34.17,6.44,6.86-8.13,14.3c-1.08-.73-2-1.33-2.91-2q-26.2-18.36-52.43-36.68c-.69-.48-2.34-.7-2.71-.3-1.07,1.2.18,2,1.1,2.61q22.44,15.93,44.91,31.83l10.42,7.36-7.49,12.08a5,5,0,0,1-.76-.13q-17-7.68-34-15.35a20.41,20.41,0,0,0-2.61-.76c-.87,1.66-.23,2.27.89,2.79q14.61,6.78,29.18,13.59c1.47.69,2.93,1.4,4.67,2.24a35.33,35.33,0,0,0-4.22,3.12,17.24,17.24,0,0,0-2.14,3.27l3.36,2a1.76,1.76,0,0,1,.26.28l.76.76a10.9,10.9,0,0,1-2.46,1.28c-5.68,1.25-11.08,3.24-17.28,1.67-11.74-3-23.67-5.16-35.55-7.58-.75-.15-2.18.28-2.39.81-.55,1.36.74,1.71,1.79,2,.31.09.64.14,1,.21q17.07,3.74,34.15,7.47c.59.13,1.17.33,2,.58-4.08,3.18-7.28,6.59-9.29,11.22,5.33,3.44,10.37,2.35,15.53.1-1.3,2.48-2.7,4.77-4.1,7.06-3.94,6.43-7.52,13.08-12.61,18.75a6.89,6.89,0,0,1-3.94,2.36c-7.58,1.6-15.14,3.28-22.71,4.94-1.06.24-2.33.63-1.8,2,.2.52,1.63.95,2.39.82,3.84-.68,7.65-1.55,11.48-2.35l10.36-2.12a2.51,2.51,0,0,1,.18.4c-.05.25-.1.51-.16.77-1.23,5.36-.32,10,4.47,13.35a12.35,12.35,0,0,1,1.47,1.34c1.89,1.81,4.1,2,6,.23a25,25,0,0,0,3.48-4.53c3.76-5.69,7.44-11.42,11.21-17.21l49.75-10.83,5.81,4.46c-.72.36-1.17.61-1.65.83-9.89,4.49-19.8,8.92-29.66,13.47-16.48,7.59-32.93,15.26-49.39,22.88-1.13.52-1.78,1.17-.93,2.48.23.07.55.28.73.2,28-12.65,55.95-25.32,84.17-38.1l5.55,2.72a8.57,8.57,0,0,0-1.13.5q-19.76,13.71-39.51,27.41a4,4,0,0,1-2.2.72c-7.35-.22-14.69-.55-22-.77a29.14,29.14,0,0,0-5.91.28,4.39,4.39,0,0,0-4,4.05c-.3,2.86-.58,5.78,2.6,7.23a23.47,23.47,0,0,0,5.69,1.54c2,.33,4,.34,6.42.53-.9.69-1.36,1.05-1.83,1.39l-38.56,27.39a4.74,4.74,0,0,0-1.37,1.11c-.26.44-.44,1.31-.2,1.59a2.31,2.31,0,0,0,1.69.52c.46,0,.93-.46,1.36-.76,14.27-10,28.52-20,42.84-29.92a8,8,0,0,1,4.05-1.16c6.21-.23,12.43-.27,18.65-.41,1.42,0,2.85-.2,4.7-.34-.64.77-1,1.23-1.37,1.64l-43.83,46.62c-.27.29-.71.54-.78.88a12.73,12.73,0,0,0-.16,2.15c.76-.08,1.53-.12,2.29-.26.21,0,.37-.36.55-.56,14.06-15.05,28.46-29.81,42-45.3,5.08-5.79,10.57-6.91,17.33-6.18,1.33.14,2.66.34,4.27.55-.62,1.06-1,1.75-1.41,2.42l-55.44,91.4c-.28.45-.78.93-.75,1.37.07.89.19,2.19.75,2.51s1.76-.21,2.6-.54c.35-.14.53-.73.77-1.13q25.82-43.35,51.64-86.73c1.72-2.89,3.41-5.79,5.19-8.8l9.62,1.47c-.24.82-.36,1.32-.55,1.8-1.66,4.26-3.35,8.51-5,12.76-11.63,29.51-23.2,59.05-34.92,88.53-5.52,13.9-11.34,27.69-17,41.52-.74,1.81-.34,3.29,1.13,3.86s2.83-.27,3.41-2.1c.85-2.65,1.54-5.35,2.52-8q9.89-26.31,19.86-52.59Q344,471.76,360,430c.23-.6.53-1.18.83-1.85l8.91,1c-.15,1-.24,1.74-.38,2.5-5,26.35-9.91,52.71-15,79-2.28,11.82-4.88,23.59-7.35,35.37-.29,1.42-.09,2.64,1.51,2.91s2.23-.81,2.4-2.24c.35-2.89.53-5.8,1.07-8.65q9.29-49.1,18.66-98.16c.67-3.49,1.29-7,1.93-10.46h9.76c0,1,0,1.95,0,2.86q-.45,63.69-.88,127.39a4.68,4.68,0,0,0,.25,2.33,3.34,3.34,0,0,0,2.07,1.63c.58.05,1.52-.93,1.82-1.65a7.9,7.9,0,0,0,.27-2.93q0-63.6,0-127.2c0-.84,0-1.69,0-2.72h10.17c.54,3,1.09,5.81,1.58,8.67,6.21,36.48,14.89,72.5,20.15,109.16.2,1.36,1,2.27,2.45,2s1.79-1.46,1.44-2.78c-.3-1.15-.84-2.25-1.07-3.41-1.76-8.62-3.54-17.25-5.18-25.9q-7-36.88-13.89-73.79c-.87-4.61-1.77-9.2-2.67-13.87h9.44c.37.87.6,1.34.79,1.83q7.29,19.13,14.57,38.25c8.44,22.09,17,44.14,25.3,66.26,4.81,12.76,9.33,25.62,14,38.45.66,1.82,1.92,2.69,3.39,2.17s2-2.13,1.11-4-1.77-3.41-2.49-5.19q-9.58-23.88-19.09-47.78-15.22-38.54-30.36-77.09l-4.67-11.91a34,34,0,0,0,4.45,1.8c1.26.31,2.92.73,3.88.18,1.49-.86.7-2.57.24-4,0-.09.09-.23.34-.86a19.92,19.92,0,0,1,1.85,2.25q27.51,46.19,55,92.38c.78,1.32,1.8,2.4,3.35,1.46s.91-2.27.18-3.49L434.65,445c-1.8-3-3.58-5.94-5.37-8.92.1-.17.21-.34.32-.51,5.63,5.35,12.34,6.61,20,6.16l-.68-5.37L461.63,450q12.5,13.37,25,26.7c.74.79,1.58,1.76,2.67.8s.29-1.9-.47-2.7l-.42-.43-41.92-44.6a14.44,14.44,0,0,1-1-1.25c7.63,0,15.1-.08,22.57,0a13.26,13.26,0,0,1,7.47,2.85c12.64,9,25.38,17.8,38.08,26.68.27.19.56.51.83.51a17.32,17.32,0,0,0,2.13-.3,11.15,11.15,0,0,0-.5-1.93c-.14-.31-.6-.49-.93-.72l-35-24.85a18,18,0,0,1-1.4-1.22c3.62-.85,6.85-2.28,8.44-5.26s2.07-6.3,3.12-9.72c4,1.8,8.05,3.67,12.15,5.48a15.27,15.27,0,0,0,2.46.62l.57-.66c-.4-.65-.66-1.52-1.24-1.9a21.39,21.39,0,0,0-3.09-1.35l-73.05-33.73-5.74-2.68,5.53-4.33,55.86,12.15c2,3.72,3.92,7.41,5.93,11.06a44.07,44.07,0,0,0,3.42,5.54,4.7,4.7,0,0,0,4.52,2c4.88-.73,7.21-4.45,5.7-9.16a37.64,37.64,0,0,0-1.5-3.46l-1.06-2.37c1.11.2,1.82.31,2.51.46q12.06,2.52,24.11,5.07c1,.22,2.11.4,2.46-.88s-.68-1.69-1.7-1.95l-1.17-.27c-8.92-1.94-17.86-3.86-26.77-5.89a4.14,4.14,0,0,1-2.38-1.74c-2.1-3.44-3.81-7.15-6.06-10.48-4.27-6.31-8.81-12.42-13.24-18.61l-3.05-4.24c.93-.26,1.43-.42,1.94-.53L498,348.31q14.85-3.21,29.7-6.45c1.07-.23,2.51-.43,2.15-2s-1.67-1.09-2.78-.86q-23.42,5-46.84,9.9c-2.12.45-4.26.85-6.62,1.32l-6.26-14.77c1.14-.57,2.07-1.06,3-1.5l33.68-15.68c1.14-.53,1.73-1.2.75-2.66a7.71,7.71,0,0,0-1.94.36q-17.47,7.89-34.92,15.84c-.51.24-1.07.38-1.59.57l-6.15-12.82c.5-.38.86-.67,1.24-.93L505,287.89c3.62-2.56,7.26-5.1,10.8-7.78.52-.4.51-1.51.74-2.3-.78,0-1.56,0-2.33,0-.17,0-.33.21-.5.32l-49.3,34.56-5.81,4.06-8.88-13.61,1.84-2,37.16-39.54c.77-.82,1.8-1.76.61-2.84s-1.92,0-2.67.79q-14.92,16-29.86,31.93c-2.79,3-5.59,6-8.57,9.14-2.93-5.12-6.53-9.58-6.95-15.6-.17-2.43-.19-4.48,1.2-6.73,12.63-20.62,25.11-41.32,37.64-62,.73-1.2,1.31-2.58-.18-3.48s-2.56.14-3.35,1.46c-9.75,16.4-19.42,32.84-29.31,49.15-3.71,6.11-6.55,12.84-12.17,18a8.12,8.12,0,0,1-.58-3.58c.32-2,1-4,1.46-6,1.39-5.64,1.83-11.25-.66-16.73-.74-1.63-1.54-3.22-2.38-5,.28-.75.59-1.62.93-2.48,5.55-14.11,11-28.26,16.68-42.33,5.55-13.82,11.3-27.56,17-41.33.75-1.83.37-3.29-1.09-3.87s-2.88.28-3.48,2.25c-.68,2.22-1.23,4.48-2,6.64Q446,208.23,431.1,247.4A5.69,5.69,0,0,1,429.65,249.72Zm69.76,146.77a8.73,8.73,0,0,1,.49,1.08c1.53,3.75,1,4.87-3.31,6.23a16.16,16.16,0,0,1-2.44-2.94c-3.17-6.22-3.71-13-3.68-19.83Q494.94,388.76,499.41,396.49Zm-83.7-141.31c8,11.4,11.41,24.43,14.22,38.23a37.75,37.75,0,0,1-6.65-11.15c-1.4-3.56-2.66-7.19-4-10.8a37.07,37.07,0,0,0-16.18-19.64c-2.32-1.4-4.58-2.92-5.53-6.12,1.41.61,2.56,1.17,3.75,1.59,3,1.07,6,2,9,3.12C412.69,251.31,414.26,253.1,415.71,255.18Zm1,100.51c-1.4-1-2.7-1.86-4.23-2.93l35.36-24.58,6.14,10ZM462,352.75l-38.94,8.58-4.16-3.93,32.18-14.52ZM410,351.36l-4.27-2.15,33.36-34.95c2.42,3.84,4.69,7.45,7.1,11.26Zm-6-2.87-3.68-1.33,29.14-47.33L437.65,312Zm41.93,62.84c-5.14.27-10.27.56-15.4.77a2.34,2.34,0,0,1-1.54-.74q-11-11.46-21.92-23a2.4,2.4,0,0,1-.31-.66l4.84-1.66,34.46,24.59C446,410.88,446,411.1,445.94,411.33Zm12.17,2.7c-2.53,3-18.72,4.5-24.71,2.11Zm-31.63-1.85-11.55.59c-4.81-7.77-9.59-15.49-14.49-23.42l4.06-1Zm-14.67.81-7.53.42-9.11-23.1,3-.58Zm-9.54.5-6.39.34c-1.54-7.73-3.05-15.3-4.6-23.06l2.22-.29C396.41,398.11,399.28,405.63,402.27,413.49ZM386,391.1l3-.22c1.39,7.66,2.74,15.18,4.15,23H386Zm-.59-5v-8.44l2.83-.91,3,7.58Zm4.87-10.49,2.1-2,5.36,5.64c-1.2,1.24-2.45,2.51-4,4.12Zm16.86-108.73,10.66,15.57-24.18,63-2.23-.2c5.11-26.19,10.18-52.21,15.25-78.22ZM403,254.93c.16-.12.33-.23.5-.34,6.54,5.89,12.58,12.16,14.75,21.22Zm-8.57,101.44c1.06,1.19,2.13,2.38,3.42,3.84l-2.47-.55L394,356.72Zm-.61,15.43,1.48-3.54,5.57,3.37c-.47,1.55-1,3.18-1.57,5.12Zm6.71-3.13c-.76-.51-1.5-1-2.27-1.51s-1.48-.84-2.27-1.28v-3.73l3.81,1.12c.37,1.66.77,3.41,1.17,5.16Zm-5.25-22.79,23.91-61c2.9,4.22,5.55,8.05,8.23,11.94l-29.2,49.8Zm6.19-115.23a14.66,14.66,0,0,1,3.34,4.12c1.06,1.88,1.67,4,2.59,6s2,3.87,3.07,6c-9.61-1.56-15.76-4.65-16.85-8.43,2.65.42,5.59,3.47,7.71-.67.83-1.62-.81-5.23-2.66-6.37-1.4-.85-2.63-.63-4.08,1l2.19,1.83.29-.26c.32.69.65,1.37,1,2.14a7.48,7.48,0,0,1-6.94-4.76C393.07,228,398,227.87,401.42,230.65Zm-15.51,3c5.62,9.05,11.26,18.24,17,27.35a5.61,5.61,0,0,1,.95,4.41q-7.26,38.85-14.4,77.71c-.11.58-.27,1.14-.45,1.89l-3.1-.25ZM379,355.7a7.54,7.54,0,0,1,8.55-1c3.74,1.93,5.16,5.28,5.16,9.33a10,10,0,0,1-4,8.26c-4.1,3.25-9.68,2-12.3-2.79A11.17,11.17,0,0,1,379,355.7ZM370.35,390l3.11.56c-3.16,8-6.23,15.82-9.32,23.65h-3.08l-1.86-5.08Zm-14.19,18.88a6.86,6.86,0,0,1-3,2.23,36.9,36.9,0,0,1-5.87,1.8c-1.77.41-3.6.55-5.41.8l-.33-.71,22.36-24.28,4.24.91c-2.07,3.34-4,6.42-5.88,9.5C360.23,402.34,358.32,405.67,356.16,408.83Zm-40.67-70.29c1.85-3.43,3.62-6.72,5.55-10.28l34.38,23.9-4.49,3Zm32.93,18.22L344,361l-36.19-8L314,341.24Zm-25.84-31.17c2.22-3.86,4.37-7.61,6.7-11.65l33.14,34.72-4.55,2.12Zm8.17-13.94,7.33-12.18a14.59,14.59,0,0,1,2.27,2.22Q354,323.8,367.67,346a4.29,4.29,0,0,1,.22.72L364.21,348C353.1,335.9,342,323.89,330.75,311.65Zm12.56-11.51c1.75-5.56,2-11.41,5.62-16.89l24.35,62.08-3.06.72C361.21,330.69,352.28,315.45,343.31,300.14Zm31.37,55.67c-.85,1.82-1.69,3.64-2.61,5.63l-3.42,1.07C369.11,360.17,371.87,357.13,374.68,355.81Zm-2.87,8.38c.14,1.35.25,2.52.39,3.82l-5.8,3.83c.18-2.47.32-4.42.46-6.37Zm1.12,6.16,1.95,3.23-5.7,5.08-2.4-4.84Zm3.33,4.75,3.22,1.9c-1.29,2.42-2.5,4.68-3.88,7.28l-4.82-3.45Zm-1.12,15.55,2.24.3-4.6,23.19H366.2C369.22,406.21,372.16,398.49,375.14,390.65Zm4.54.31,2.86.19v23h-7Zm-2.24-5.84,3.68-7.65,2,.39c-.13,2.63-.25,5.19-.39,8.16Zm-.2-40.26-2.3.2c-1-2.59-2-5.1-2.93-7.62q-10.5-27.45-20.95-54.91a3.57,3.57,0,0,1-.12-2.6c3.2-5.77,6.54-11.46,9.83-17.17l.51.13ZM372.57,229l3.29,2.41c.39,2.16-.73,3.59-1.8,5-3.09,4.08-7.3,6.85-11.47,9.66a13.36,13.36,0,0,1-3.53,1.74C363.83,241.78,365.93,233.85,372.57,229Zm-6.18,18a45.93,45.93,0,0,1-17.72,20.46C351,257.67,357.32,251.15,366.39,247ZM341.1,288.82c1.27-4.23,2.66-8.43,4-12.63,1.52-4.59,5.39-7,8.9-9.71l.41.34c-2.74,4.73-5.24,9.61-8.3,14.12s-4.09,9.68-5.13,14.86c-.07.38-.13.76-.2,1.17-.25,0-.47.13-.62.08a8.14,8.14,0,0,1-1-.57C339.85,293.91,340.35,291.33,341.1,288.82Zm-11.73,5.51c2.94-3.49,6.1-7.26,9.26-11l.39.19a64.23,64.23,0,0,0-1.35,6.68,18.68,18.68,0,0,1-4.1,10.24c-2.1,2.6-3.65,5.63-5.91,8.37C328.22,304.08,328.78,299.38,329.37,294.33Zm-13.75,20.36c.72,6.36-3.77,9.68-7.34,13.54l-.46-.27ZM299,344.35a7.72,7.72,0,0,0,1.31-2.2,3.39,3.39,0,0,0-.3-2.51c-.35-.45-1.5-.4-2.29-.37a7.19,7.19,0,0,0-1.83.58l-.27-.45c2.27-1.47,4.45-3.08,6.8-4.37A39.55,39.55,0,0,0,316.82,322c2.16-3.31,1.61-7,1.58-10.61a6,6,0,0,1,.75-3.1c1.83-2.94,3.85-5.76,5.8-8.63l.58.26c-.77,5-1.14,10.12-2.38,15-1.88,7.37-6.08,13.73-11,19.35-5.16,5.91-11.08,11.16-16.67,16.7-.06.05-.23,0-.65,0C296.29,348.65,297.66,346.5,299,344.35Zm-20.13,52.44c0,1-1,1.89-1.71,3.16-1-2.91.27-7-4.41-6.84-1.83.05-4.24,3.17-4.34,5.35-.09,1.74.61,2.61,2.92,3.09.14-1,.27-1.92.48-3.4l1.11-1.38c1.32,3.1.84,6.35-1.07,8.28a6.07,6.07,0,0,1-5.19-4.68,9.66,9.66,0,0,1,1.41-8.16c2.72-3.79,5.7-7.39,8.63-11.15C278.84,386.15,279.06,391.46,278.89,396.79Zm2.9-4.27a3.8,3.8,0,0,1-.3-.77,73.51,73.51,0,0,0-1.17-8.42c-1.47-5.77,1-10.28,3.75-15,5-8.56,12.08-15.15,19.37-21.59,1.61-1.43,3.29-2.78,4.93-4.16-1.73,5.3-5.06,9.4-8.58,13.36-2.72,3.06-5.77,5.87-8.18,9.16a36,36,0,0,0-7.13,20.07C284.36,387.77,284,390.39,281.79,392.52Zm5.75-9.25-.61-.3c2.25-8.27,4.92-16.33,11.83-22.28Zm48.78-9.3-44.87,9.45L305.92,356l36.26,7.56Zm3.81-1.73c8.16-9.39,18.51-14.88,30.57-17.47-4.37,4.47-6.88,9.58-6.74,15.87s3.05,11.19,7.78,15.23C360.18,383.88,349.57,379.86,340.13,372.24Zm16.63,14.06,5.16,1.79c-2.91,3.08-5.61,6-8.33,8.81-4.8,5-9.56,10.11-14.47,15a6.18,6.18,0,0,1-3.76,1.7c-5.46.18-10.93.08-17,.08Zm-69.68,36.64a6.9,6.9,0,0,1-1.18-.19c-3.5-.71-4.19-2-2.87-5.82a11.54,11.54,0,0,1,2.82-.62c7.18.14,13.28,3.4,19.66,6.63ZM301,417.4c9.35-.92,18.21.16,26.51,4.53C317.93,425,309.2,423,301,417.4Zm33.9,3.21c-4,.31-7.37-1.46-10.87-2.81l.06-.68h9.41c3.05,0,6.09-.11,9.13,0,4.66.11,8.76-1.86,13-3.27.38-.13.73-.32,1.1-.45.1,0,.25,0,.46.06a3.28,3.28,0,0,1,.15.72,4.32,4.32,0,0,1-.2.87C349.76,417.17,342.6,420,334.85,420.61Zm25.72,3.83-14.23-2.18,0-.41c2-.71,4.11-1.27,6-2.17a19.71,19.71,0,0,1,11.45-1.95c3.17.44,6.44.09,9.66.09l.18.66Zm24.57,1c2.85-2.66,10.48-2.75,15.64,0ZM419,424.36a7.48,7.48,0,0,0-2.37.05c-.79.28-1.82.83-2,1.5s.48,1.57.92,2.29c.28.47.82.8,1,1.58-2.22-1-4.54-1.94-6.66-3.18a39.2,39.2,0,0,0-19.35-5.75c-3.87-.08-6.66,2.24-9.67,4.15a5.68,5.68,0,0,1-2.86,1c-3.43,0-6.86-.29-10.23-.46a3.34,3.34,0,0,1-.11-.53c4.91-2.08,9.69-4.67,14.79-6.1,7.21-2,14.76-1.67,22.06-.32s14.51,3.54,21.75,5.37c.16,0,.28.22.52.42Zm31.95.35c-13.15.76-25.38-3-37.57-7.09a6.56,6.56,0,0,1-.93-.59c1-.13,1.52-.24,2.1-.29,6.63-.6,13.09.55,19.43,2.2a39.24,39.24,0,0,0,23-1.18,53.48,53.48,0,0,0,5.37-2.53c2-1,4.12-1.76,6.66-1.09-3.14,2.66-6.05,5.23-9.06,7.67C457.32,423.93,454.29,424.51,450.9,424.71Zm34.18-8.57a6.14,6.14,0,0,1-1.28,6.72,9.18,9.18,0,0,1-7.09,3.09c-4.84-.29-9.65-1-14.52-1.53,3.38-5.34,11.64-10.72,15.46-9.89a14.89,14.89,0,0,0-2.82,2.49c-.63,1-1.25,2.36-1,3.31a4,4,0,0,0,2.56,2.31,9.21,9.21,0,0,0,4.63-.2c1.87-.58,2.2-2.08,1.06-4l-2.91,1.29-1.69-.26A7.21,7.21,0,0,1,485.08,416.14Zm-4.76-5.91c0,.1,0,.2,0,.3h-5.19c-7.14,0-14.28.13-21.42.1a6.18,6.18,0,0,1-3.34-.81c-11.73-8.05-23.41-16.2-35.09-24.32-.17-.11-.32-.24-.76-.58l5.25-2.8Zm-86.38-23.64c5.06-3.51,8.59-8,9.79-14.14s-.53-11.59-4.63-16.5c7.8,1.12,21.67,9.91,26.9,17A60.7,60.7,0,0,1,393.94,386.59Zm86.76-2.44-49.82-10.5c-1-2-1.6-3.69-2.5-5.18s-2.11-2.86-3.43-4.62l38.79-8.1,17.37,27.89Zm7.21,4.15c-4.73-5-9.12-15.89-10.36-25.88A31.52,31.52,0,0,1,487.91,388.3Zm-12-19.56c-1.79-2.81-3.45-5.4-5.09-8s-3.4-5.37-5-8.12c-2.32-4-6.11-6.53-9.55-9.39-.4-.33-.85-.61-1.46-1l1.41-.94c.28.08.43.08.52.16,5.5,5.05,11.49,9.58,16,15.69C474.5,359.57,476.21,365.44,475.89,368.74ZM468.48,347l-.27.23a58,58,0,0,0-5.43-4.4,19.15,19.15,0,0,1-7.42-8.71C454,331,452,328.17,450.53,325l12.32,8.42C464.63,337.72,466.55,342.34,468.48,347ZM451.24,312c-6.2-2.44-7.12-8.22-8.55-13.69ZM432.36,283.2c.24.4.42.83.65,1.23.67,1.16,1.31,2.45,2.95,2.2s1.62-1.66,1.72-2.92a3.23,3.23,0,0,1,.24-.7l.53,0c.25,2.6.64,5.2.71,7.81A40.36,40.36,0,0,0,444,309.25c2,3.75,5.74,5.1,9.3,6.7.3.14.62.22,1.25.43l5.71,10.74-.47.37c-4-2.92-8.45-5.47-12.06-8.85-6.95-6.51-11.21-14.89-14.29-23.77-2.06-5.92-3.53-12-5.27-18.05l.4-.2C429.81,278.81,431.09,281,432.36,283.2Zm147.9,138.71L576,418.74V671.82c-11.91,2.5-16.89,7.56-21.24,21.53H432.52c2.62,2.47,4.63,4.65,8.4,4.32,4.6-.41,9.26-.1,13.9-.1l101.94,0c.58,0,1.15-.08,1.67-.12.89-13.78,9.33-19.89,21.83-22.21ZM194.58,671.73V418.86l-4.14,3.06V675.28c12.58,2.29,21,8.49,21.83,22.21.54,0,1,.11,1.45.11q58.62,0,117.25,0c3.4,0,4.78-2.34,6.71-4.36H216C213.28,681.66,206.86,673.94,194.58,671.73ZM576.94,76.5V319.42l4.09-3.06V72.92c-12.54-2.28-20.94-8.44-21.8-22.16a15.05,15.05,0,0,0-1.52-.14c-38.75,0-77.5.07-116.25-.07-3.66,0-5.58,2-8.17,4.35H555.52C558.23,66.6,564.68,74.29,576.94,76.5ZM191.24,316.37l4.29,3.17V76.45c12.21-2.27,18.57-10,21.25-21.59H338.87c-2.51-2.66-4.72-4.63-8.5-4.31-4.54.38-9.13.09-13.7.09l-102.15,0a12.21,12.21,0,0,0-1.45.15c-.9,13.75-9.33,19.88-21.83,22.18ZM414.94,76.19H355.53V126h59.41Zm-4.1,45.42H359.78V80.47h51.06ZM255.78,154.28c2.85,1.23,5.08,3.31,5.58,6.72.66,4.52,1.42,9,2.15,13.53.49,3,1,6.06,1.51,9.09a3.13,3.13,0,0,0,.81-1.74c1.09-6.73,2.26-13.45,3.22-20.2.4-2.86,1.62-5.18,4.1-6.42a94.21,94.21,0,0,1,10.05-4.06,34.93,34.93,0,0,1,4.82-1,4.57,4.57,0,0,0-2.14-.77,32.83,32.83,0,0,1-12.3-4.28c-2.26-1.42-4-3.23-4.42-6-.66-4.45-1.38-8.89-2.09-13.34-.5-3.06-1-6.13-1.55-9.19a2.47,2.47,0,0,0-.81,1.51c-1,6.4-2.34,12.78-3,19.22-.5,4.56-2.95,7.2-6.77,9a33.18,33.18,0,0,1-5,1.9c-2.52.69-5.1,1.18-7.65,1.75v.27a23.6,23.6,0,0,1,3,.56A108.45,108.45,0,0,1,255.78,154.28Zm88.33,505.4c1.8-.12,2.22-1.67,2.52-3.14.64-3.11,1.13-6.25,1.89-9.34,1.77-7.26,3.68-14.49,5.48-21.75a21.82,21.82,0,0,0,.32-3.22c-.69-.32-1.1-.52-1.52-.69s-1-.35-2-.72c-4.58,9.42-5,19.93-8.55,29.66a55.63,55.63,0,0,1-2.73-6.72c-.66-2-1-4.11-1.74-6.1a2.37,2.37,0,0,0-1.64-1.43,3.26,3.26,0,0,0-2,1.22,6.94,6.94,0,0,0-1,2.14c-1.07,2.84-2.11,5.7-3.17,8.55l-.37,0c-.14-.71-.27-1.41-.42-2.11-1.35-6.35-2.66-12.71-4.09-19a19.21,19.21,0,0,0-1.75-4.61,2.32,2.32,0,0,0-1.94-.9,2.15,2.15,0,0,0-1.33,1.47,9.21,9.21,0,0,0-.06,3.35q2.7,15.06,5.53,30.08a2.87,2.87,0,0,0,2.85,2.57c1.56.09,2.22-1,2.68-2.2,1.22-3.36,2.42-6.73,3.65-10.09a10.35,10.35,0,0,1,.64-1.24c1.69,4,3.31,7.79,4.94,11.61A3.77,3.77,0,0,0,344.11,659.68Zm53.69-34.75c-.07-1.39-.5-2.75-2.24-2.72-1.59,0-2.05,1.28-2.16,2.62-.16,2-.35,4.1-.36,6.14-.05,6,0,11.92,0,17.87l-.39.08c-.23-.53-.47-1-.69-1.59-2.76-6.73-5.5-13.48-8.29-20.2a48.58,48.58,0,0,0-2.37-5c-.36-.65-1.11-1.51-1.68-1.51a2.33,2.33,0,0,0-1.68,1.49,24.38,24.38,0,0,0-.36,5.12c.26,9.8.58,19.59.89,29.38,0,.53-.06,1.21.23,1.54.63.72,1.54,1.82,2.21,1.74a3.86,3.86,0,0,0,2.26-2,5.34,5.34,0,0,0,.11-2.54c-.15-5.09-.34-10.19-.49-15.29,0-.45.06-.92.11-1.64C385,643.88,387,649,389.1,654.07a21.77,21.77,0,0,0,2.1,3.81c1.19,1.79,3.12,1.61,4.85,1.33,1.55-.25,1.82-1.74,2-3.1a18.82,18.82,0,0,0,.14-2c0-6.56,0-13.11,0-19.67C398.09,631.28,398,628.11,397.8,624.93Zm125.91-64.8a5.9,5.9,0,0,1-3.34-4.67q-.81-5.3-1.66-10.59c-.48-3-1-5.94-1.49-8.92a2.08,2.08,0,0,0-.74,1.28c-.88,5.48-1.92,10.95-2.57,16.47a8.68,8.68,0,0,1-5,7.32,30.35,30.35,0,0,1-4.76,2c-2.18.67-4.44,1.1-7.21,1.77a25.65,25.65,0,0,1,2.85.59c3.13,1,6.32,1.9,9.33,3.19s4.39,3.75,4.76,7c.43,3.94,1.21,7.84,1.84,11.76.33,2,.67,4.07,1,6.11a2.5,2.5,0,0,0,.78-1.49c.89-5.49,2-11,2.59-16.47.42-3.8,2.5-6,5.66-7.49a29.49,29.49,0,0,1,4.44-1.71c1.95-.57,4-.95,5.94-1.41,0-.13,0-.26,0-.39A14.75,14.75,0,0,1,534,564C530.57,562.79,527.06,561.65,523.71,560.13ZM406.53,627.69c0,.6.06.93.06,1.25-.14,9.12-.31,18.25-.41,27.38,0,3.82,3,5.72,6.32,3.82a39.4,39.4,0,0,0,7.1-5c8.74-8,7.82-23.61-1.27-29.69-4.95-3.31-10.06-3.27-15.29-1.07-.65.27-.9,1.52-1.33,2.31a10.48,10.48,0,0,0,2.28,1.12A10.25,10.25,0,0,0,406.53,627.69Zm4.75,0c3.21.23,5.13,2.25,6.76,4.51,5.23,7.23,1.72,19.28-6.76,22.85Zm-37.64,26.34q-3.67-15.13-7.42-30.25a5.45,5.45,0,0,0-.49-1.29,1.72,1.72,0,0,0-3.15-.18,6.25,6.25,0,0,0-.8,1.81c-1.25,4.32-2.49,8.64-3.68,13-.7,2.54-1.3,5.09-1.91,7.46-1.76.73-4.17.32-4.1,2.72,0,.89,1.47,1.75,2.26,2.62l.58-.29c-.23.88-.46,1.76-.68,2.64a15.16,15.16,0,0,0-.87,4,3.14,3.14,0,0,0,1.61,2.47c.71.19,1.84-.74,2.61-1.39.39-.32.4-1.09.57-1.66.61-2.08,1.22-4.16,1.87-6.36h8.06c.14.69.23,1.27.39,1.83.69,2.4,1.28,4.84,2.19,7.15.25.63,1.49.87,2.28,1.3a7.28,7.28,0,0,0,1.06-2.27A10.44,10.44,0,0,0,373.64,654.05Zm-12.22-9.91c0-.46,0-.73.08-1a113.1,113.1,0,0,1,2.85-11.48c.91,4,1.83,7.93,2.8,12.13Zm73.31,11.57c-2.2-.42-3.05-1.7-3.12-3.89-.06-2-1.36-3.19-2.93-3s-2.5,1.59-2.32,3.57a7.18,7.18,0,0,0,.12.79c1.06,4.92,3.78,7.44,10,7.16,5.28-.23,9.25-4.66,9.14-10.37.08-4.25-1.94-8.16-5.84-11.12a19.19,19.19,0,0,1-6.12-7.17c-.72-1.58-.11-2.84.88-4s2.21-1,3.44-.4a7.26,7.26,0,0,1,4.05,3.6c.3.67,1.29,1,2,1.52.33-.83,1-1.7.94-2.47-.36-2.84-2.43-4.45-4.74-5.74-3.31-1.84-5.87-1.64-8.43.59a8.44,8.44,0,0,0-2.57,9,18.87,18.87,0,0,0,6.67,9.18,10.39,10.39,0,0,1,4.68,7.29A4.84,4.84,0,0,1,434.73,655.71ZM344.31,49.84a21.32,21.32,0,0,0,5.5,1.5c2,.33,4,.4,6.08.59a13.4,13.4,0,0,0-1.34,3.26,5.75,5.75,0,0,0,.44,3.62c.9,1.33,2.52.91,3.81.26a15.17,15.17,0,0,0,7.88-8.49,11.13,11.13,0,0,0,.53-4.26C367,41.57,364.15,38.17,361,35a3.25,3.25,0,0,0-1.43-1c-1.16-.24-2.74-.76-3.46-.23a4.43,4.43,0,0,0-1.21,3.39,14.25,14.25,0,0,0,1.41,4.08c.2.52.51,1,.87,1.72a27.17,27.17,0,0,0-3.75,0,78.13,78.13,0,0,0-8.91,1.66,3.67,3.67,0,0,0-2.28,2.51A3.77,3.77,0,0,0,344.31,49.84Zm13,7.07-.63-.44,2.87-4.95,4.45-.86C362.22,53.62,360.27,55.82,357.31,56.91ZM363.68,44l-3.41-.76-2.86-6.49C359.86,37.43,362.91,41.11,363.68,44Zm.63,3.1c-3.14,2-14.69,2-18.83-.11C348.93,45.05,361,45.19,364.31,47.14Zm61.1,650.51c-3.17-.64-6.38-1-9.72-1.56a13.3,13.3,0,0,0,1.32-3.25c.15-1.13.14-2.75-.53-3.39a3.8,3.8,0,0,0-3.4-.41,14.92,14.92,0,0,0-8.55,9.36c-1.87,5.86,3.27,13.07,7.09,15.72,1.18.81,2.5,1.38,3.88.46s1.45-2.37,1.08-3.75a36.39,36.39,0,0,0-1.57-4.05c-.19-.45-.39-.89-.47-1.07,3.69-.5,7.31-.85,10.86-1.52,1.74-.33,4-.81,3.92-3.22C429.26,698.74,427.24,698,425.41,697.65Zm-11.17-6.39c.36,3.23-2.09,5.53-6.75,6.21C409.29,694.61,411.23,692.41,414.24,691.26Zm-.88,20.33a19.15,19.15,0,0,1-5.88-7.47c1.14.23,1.84.37,2.53.53.32.07.63.17,1.23.35.87,2,1.8,4.09,2.73,6.22Zm-6.57-10.77a38,38,0,0,1,19.35.06C423.43,703.15,410.56,703.11,406.79,700.82Zm-49.55-11.91a3.48,3.48,0,0,0-3.05.53,3.93,3.93,0,0,0-.61,3A17.84,17.84,0,0,0,355,696.1c-3.31.51-6.52.91-9.69,1.55-1.81.37-3.84,1.09-3.9,3.34s2.07,2.82,3.76,3.15c3.62.68,7.3,1.07,11,1.59-.58,1.38-1.38,2.91-1.89,4.53s-.64,3.23,1,4.31a3.13,3.13,0,0,0,4.16-.71,40.65,40.65,0,0,0,5.46-6.72C369.78,698.9,363.19,691.14,357.24,688.91Zm.14,22.63-.65-.32,2.71-6.24,3.75-.9A18.15,18.15,0,0,1,357.38,711.54Zm-12.53-10.26a30.25,30.25,0,0,1,18.63-.27A31.8,31.8,0,0,1,344.85,701.28Zm11.5-9.82c2.49.47,5.27,3,6.54,5.89A5.94,5.94,0,0,1,356.35,691.46ZM172.71,340.53a40.86,40.86,0,0,0,6.95,5.46c8.17,4.75,16-2.15,18-7.86.9-2.58-.91-4.35-3.56-3.61a37.85,37.85,0,0,0-4,1.57A20.46,20.46,0,0,0,190,334a81.69,81.69,0,0,0-1.7-9.11,4.11,4.11,0,0,0-2.88-2.42c-.81-.09-2.29,1.37-2.59,2.39a64.31,64.31,0,0,0-1.61,8.52,26.85,26.85,0,0,0,0,3.92c-1.77-.77-3.23-1.55-4.78-2s-3.37-.76-4.5.93S171.55,339.46,172.71,340.53Zm22.58-3.32a13.45,13.45,0,0,1-6.08,6.84C189,340.17,190.5,338.24,195.29,337.21Zm-10.12-11.34a29.82,29.82,0,0,1,.24,18.63C183.3,338.33,183.65,332.12,185.17,325.87Zm-3.67,14.61c.29,1.22.53,2.24.78,3.27-2.31-.24-6.25-3.32-6.95-6ZM468,644.47a88,88,0,0,0,9.29-1.77,3.53,3.53,0,0,0,2.07-2.48c.08-.79-.93-2-1.78-2.52a11.83,11.83,0,0,0-4.09-1.36c-2.52-.43-5.07-.62-7.74-.93a14.89,14.89,0,0,0,1.38-3.45c.15-1.12.09-2.74-.59-3.36a3.81,3.81,0,0,0-3.4-.36,15,15,0,0,0-8.51,9.37c-1.81,5.73,3.06,12.74,6.92,15.57,1.21.88,2.58,1.55,4,.59s1.49-2.63,1-4.11c-.51-1.69-1.31-3.28-2.09-5.16A23.44,23.44,0,0,0,468,644.47Zm-3.4-14.12c-.68,3.68-2.22,6.24-6.88,6.23A13.14,13.14,0,0,1,464.58,630.35Zm-6.69,13,3.39.76,2.89,6.49C461.74,650,458.67,646.28,457.89,643.35Zm-1-3.37a37.77,37.77,0,0,1,19.35.11C473.28,642.35,460.39,642.27,456.92,640ZM181.16,398.77a72.17,72.17,0,0,0,1.88,9.65c.83,2.63,3.32,2.74,4.74.36a12.94,12.94,0,0,0,1.49-4.26c.45-2.57.65-5.18,1-7.86a16.68,16.68,0,0,0,3.51,1.4c1.06.16,2.65.14,3.21-.5a3.87,3.87,0,0,0,.49-3.39,14.7,14.7,0,0,0-9.47-8.65c-5.5-1.69-12.11,2.62-15.31,6.67-1,1.27-1.85,2.73-.75,4.34s2.79,1.41,4.33.93,3.14-1.29,4.9-2A21.83,21.83,0,0,0,181.16,398.77Zm14.17-3.16a9.92,9.92,0,0,1-5.62-3c-.25-1.25-.5-2.46-.83-4.06A13.32,13.32,0,0,1,195.33,395.61Zm-9.93-7.43c2,3.31,1.94,14.83-.15,18.88C183.28,403.43,183.44,391.37,185.4,388.18ZM175.27,395c-.2-.3-.4-.61-.61-.91l7.05-5.64.57.41-.75,3.37ZM589.48,332.6a52.33,52.33,0,0,0-2-8.62c-.78-2.2-3-2.34-4.31-.4a12.24,12.24,0,0,0-1.71,4.37c-.5,2.63-.69,5.32-1,8.1a14.42,14.42,0,0,0-3.45-1.37c-1.12-.15-2.74-.09-3.36.59a3.83,3.83,0,0,0-.34,3.41c1.92,4.19,5,7.45,9.58,8.49,6.53,1.45,11.07-2.2,15.11-6.62,1.09-1.19,1.88-2.73.81-4.33s-2.89-1.44-4.49-.93-3,1.27-4.79,2A28.43,28.43,0,0,0,589.48,332.6Zm-13.94,4.92.39-.62,5,2.81.94,4.6C578.85,342.38,576.61,340.47,575.54,337.52Zm10.07,7.18c-2.31-2.82-2.31-15.22.07-18.84A37.69,37.69,0,0,1,585.61,344.7Zm10.2-7.12c-.92,2.54-4.14,5.23-7.43,6.43.28-1.25.52-2.27.8-3.53Zm2.34,54.83a40.92,40.92,0,0,0-7-5.66c-8.11-4.75-15.84,1.91-18,7.76a3.48,3.48,0,0,0,.57,3,4,4,0,0,0,3,.58,18.23,18.23,0,0,0,3.71-1.45c.34,2.86.53,5.57,1,8.21a12.24,12.24,0,0,0,1.77,4.34c1.18,1.77,3.11,1.6,4.15-.24a9.86,9.86,0,0,0,1.23-3.33c.51-3.35.83-6.74,1.23-10.08a49.46,49.46,0,0,0,4.75,1.93c1.47.45,3.09.56,4.14-.94A3.06,3.06,0,0,0,598.15,392.41Zm-17.21.49-5.35,3.15a10.54,10.54,0,0,1,6.16-7.32C581.5,390,581.26,391.24,580.94,392.9Zm4.63,14c-2.17-2.77-2.36-15.15-.28-18.68C587.25,391.31,587.43,403.33,585.57,406.86Zm3.63-14.6c-.29-1.27-.53-2.33-.78-3.48a13.48,13.48,0,0,1,7.52,6.37Zm-175-333a3.46,3.46,0,0,0,3.06-.5,3.85,3.85,0,0,0,.66-3,21.62,21.62,0,0,0-1.58-4.09,17.25,17.25,0,0,0,3.16,0,80.3,80.3,0,0,0,8.84-2,3.33,3.33,0,0,0,1.7-2.56c0-.76-1-1.66-1.8-2.3a4.1,4.1,0,0,0-2-.76c-3.58-.54-7.17-1-10.83-1.51.6-1.48,1.41-3.14,1.93-4.89.44-1.42.43-3-1-4a3,3,0,0,0-4,.56A41.07,41.07,0,0,0,406.69,41C401.71,49.26,408.24,57,414.21,59.29ZM415,36.52c-1.1,2.54-2,4.67-2.91,6.75l-3.28.75C409,41.78,412,37.83,415,36.52Zm12,10c-2.87,2.49-15.24,2.72-19.47.39C414.16,45.08,420.38,45.36,427,46.55ZM415.27,57c-3.29-1.16-5.13-3.47-6.89-6.07C412.38,50.73,414.31,52.34,415.27,57ZM299.1,652.92a3.09,3.09,0,0,0,4.16-.63,39.83,39.83,0,0,0,5.39-6.52c5-8.1-1-15.76-7.2-18.38a3.82,3.82,0,0,0-3.38.54c-.64.57-.62,2.17-.45,3.24A15.79,15.79,0,0,0,299,634.6c-2.81.34-5.52.5-8.15,1a13.05,13.05,0,0,0-4.66,2,2.16,2.16,0,0,0,.27,3.79,10.14,10.14,0,0,0,3.49,1.35c3.37.52,6.76.85,10.15,1.25-.61,1.47-1.42,3.05-1.94,4.73C297.7,650.24,297.59,651.86,299.1,652.92Zm2.17-3-.58-.3c.91-2.1,1.81-4.21,2.71-6.3l3.78-.86A18.42,18.42,0,0,1,301.27,649.94Zm-.81-20.25c3,1.07,4.91,3.3,6.7,6.25l-4.45-.86-2.87-5ZM288.53,640c2.7-2.44,15.08-2.68,19.44-.34A41.42,41.42,0,0,1,288.53,640Zm291.3,50.19c1.32-.51,2.91-1,4.37-1.74s3-1.92,2.53-4c-.45-1.88-2.15-2.41-3.73-2.32a40.56,40.56,0,0,0-8.39,1.05c-8.93,2.39-10,12.08-7.27,18.17a3.67,3.67,0,0,0,2.68,1.85c.83,0,2-1,2.51-1.8a18.1,18.1,0,0,0,1.5-3.6c2.62,1.91,5.16,3.91,7.85,5.68,1.6,1,3.64,2,5.29.44s.37-3.7-.68-5.2C584.41,695.78,582.06,693,579.83,690.2Zm3.42-5c0,.22.11.45.16.68L577,688.5l-3.32-2.08C577.06,685.31,580.07,684.63,583.25,685.22Zm-13.53,15.34c-1.57-3-1.27-6-.69-9.31C572.3,694.42,572.2,696.7,569.72,700.56Zm1.62-12.16a31.36,31.36,0,0,1,13.61,13A30.55,30.55,0,0,1,571.34,688.4ZM185.66,50.59c2,2.53,4.1,5,6.09,7.34-1.47.61-3.15,1.18-4.72,2s-2.69,1.87-2.29,3.76A3.11,3.11,0,0,0,188.21,66a58.26,58.26,0,0,0,8.23-.84,10,10,0,0,0,6.28-3.8c3.32-4.4,3.46-9.32,1.55-14.28a3.87,3.87,0,0,0-2.7-2.1c-.85-.08-2,1-2.66,1.87a17.24,17.24,0,0,0-1.5,3.63c-2.12-1.68-4.07-3.37-6.19-4.82a12.94,12.94,0,0,0-4.26-2c-2.65-.61-4,1-3,3.55A12.81,12.81,0,0,0,185.66,50.59Zm2.63,12.82-.25-1,6.44-2.68,3,1.88c0,.22,0,.45,0,.67Zm13.38-15.57c1.4,2,1.59,4.1.81,8.93A5.89,5.89,0,0,1,201.67,47.84Zm-1.39,12.48a40.48,40.48,0,0,1-14.19-13.47C190,47.2,199.09,55.84,200.28,60.32ZM579.69,66a16.54,16.54,0,0,0,5.87-.35c2.4-.61,2.85-3.09,1-4.77a12.49,12.49,0,0,0-3-1.83,23.3,23.3,0,0,0-2.81-1c.82-1,1.71-2,2.46-3.09a72.59,72.59,0,0,0,5.19-7.9c1.13-2.18-.32-3.8-2.8-3.42a7.26,7.26,0,0,0-2.93,1.08c-2.66,1.81-5.22,3.76-7.82,5.66a16,16,0,0,0-1.41-3.49c-.61-.88-1.79-2-2.64-1.9A3.85,3.85,0,0,0,568,47.09a14.18,14.18,0,0,0,.53,12.79C571,64.2,575.21,65.48,579.69,66Zm4.58-3.65-.19.65c-3.19.61-6.24-.15-9.66-1.16l3.32-2.12Zm1.6-15.4a37.37,37.37,0,0,1-13.62,13.24C572.5,56.66,581.42,47.91,585.87,47Zm-15.47.82c2.18,2.25,3.06,6.14-.54,9.1C569.15,53.77,569,50.77,570.4,47.77ZM201.34,686.17c-3.94-3.63-8.85-4.45-14-4-1.55.13-3.07.63-3.4,2.48s.81,2.89,2.21,3.61c1.61.82,3.33,1.43,5.1,2.18a10.26,10.26,0,0,0-1.31,1.22c-2.26,3-4.59,5.92-6.65,9a3.23,3.23,0,0,0,.16,3.05c.54.64,2,.75,3,.71a5.28,5.28,0,0,0,2.53-1c2.59-1.8,5.11-3.7,7.69-5.59a17.65,17.65,0,0,0,1.6,3.76,3.76,3.76,0,0,0,2.59,1.64,3.38,3.38,0,0,0,2.48-1.84,19.84,19.84,0,0,0,1.27-5.94C204.75,692,204,688.59,201.34,686.17Zm-14.12-.33.19-.64c3.17-.59,6.21.14,9.65,1.18l-3.33,2.12Zm-1.48,15.55a31.69,31.69,0,0,1,13.6-13A29.9,29.9,0,0,1,185.74,701.39Zm15.28-.78c-2.62-3.2-2.36-6.25.62-9.3C202.32,694.43,202.49,697.43,201,700.61ZM378.18,57.29a3.08,3.08,0,0,0,2.45.54c.39-.1.73-1.41.65-2.13-.33-3.19,1.22-5.75,4.57-7.13,3.85,1.06,5.43,3.49,5.06,7.42a2.26,2.26,0,0,0,.69,1.84,2.63,2.63,0,0,0,2-.11,4.06,4.06,0,0,0,1.32-1.17,11.47,11.47,0,0,0-16.7-15.68C373.46,45.38,373.4,53.33,378.18,57.29ZM381.52,43c3-2.21,6.2-2.15,9.34.16a6.65,6.65,0,0,1,2.57,7.8c-4.05-7.76-10.82-7.11-14.56,0A6.87,6.87,0,0,1,381.52,43Zm9.27,647.45c-.27,0-.65,1.44-.57,2.17.37,3.37-1.48,6-5.14,7.07-3.52-1.41-4.8-3.65-4.47-7.48a2.12,2.12,0,0,0-.6-1.7,2.63,2.63,0,0,0-2,0,4.35,4.35,0,0,0-1.48,1.28A11.3,11.3,0,0,0,375,704.16c2,3.92,6.75,6.76,10.85,6.47a11.83,11.83,0,0,0,10.46-8.17c1.27-4.34.42-8.29-2.93-11.44A3.65,3.65,0,0,0,390.79,690.4Zm-.2,14.29c-3.14,2.59-6.44,2.89-9.48.85a7.19,7.19,0,0,1-3-8.56c1.37,3.47,3.76,5.78,7.19,5.88,3.6.11,5.76-2.5,7.21-5.7A6.53,6.53,0,0,1,390.59,704.69Zm186-333.53a2.4,2.4,0,0,0-2,.72c-.28.53.08,1.46.29,2.17.1.33.51.59.79.87a11.31,11.31,0,0,0,13.09,1.56,11.44,11.44,0,0,0,5.81-12.2,11.58,11.58,0,0,0-10-9.38,10.58,10.58,0,0,0-9.58,3.7,2.65,2.65,0,0,0-.34,2.3c.17.43,1.33.71,2,.63,3.38-.36,5.93,1.18,7.24,4.61C582.75,369.94,580.28,371.54,576.57,371.16Zm5-12a6.58,6.58,0,0,1,7.54,2.05,7.23,7.23,0,0,1,.75,9.14,7,7,0,0,1-8.46,3.32C589.06,369.17,589.05,363.55,581.55,359.15Zm-387.32,2.44a2.28,2.28,0,0,0,1.84-.68,2.56,2.56,0,0,0-.11-2,4.22,4.22,0,0,0-1.32-1.45,10.86,10.86,0,0,0-11.91-1.6,11.13,11.13,0,0,0-6.84,10.76c0,4.73,2.59,8.26,6.92,10.28s9.9.88,12.72-2.57a3.18,3.18,0,0,0,.55-2.45c-.1-.4-1.41-.74-2.13-.67-3.4.37-6-1.38-7.13-5C188.12,362.64,190.5,361.24,194.23,361.59Zm-5,12a6.53,6.53,0,0,1-7.55-2.2c-2.53-3.18-2.73-6.44-.59-9.48a7.06,7.06,0,0,1,8.29-2.82C182.74,362.2,180.78,369.3,189.18,373.61Zm54.16,143.22c.39,3.66,1.2,7.27,1.83,10.91h.48c.63-3.78,1.33-7.54,1.85-11.33a5.05,5.05,0,0,1,2.75-4.1,37.85,37.85,0,0,1,4.6-1.81c.88-.31,1.81-.47,2.71-.7a3.68,3.68,0,0,0-1.76-.71c-6.19-1.29-7.5-2.6-8.64-8.74-.55-2.92-1-5.86-1.56-8.79a47.46,47.46,0,0,0-2,9.95c-.32,4.07-2.71,5.95-6.25,6.94L233,509.61c2.34.73,4.33,1.22,6.22,2A6,6,0,0,1,243.34,516.83Zm296.91-285c-3.18-1.05-5.06-3-5.31-6.59-.23-3.36-1.05-6.67-1.61-10a2.4,2.4,0,0,0-.78,1.47c-.47,2.87-1.13,5.73-1.32,8.63-.26,4-2.75,5.76-6.15,6.79-1.32.4-2.66.74-4.57,1.27l2.31.58c6.7,1.58,7.68,2.68,8.67,9.4.39,2.69.88,5.36,1.32,8.05l.54,0c.56-3.36,1.37-6.71,1.62-10.1s2.11-5.29,5.08-6.34c1.66-.58,3.4-1,5.52-1.58C543.53,232.75,541.87,232.33,540.25,231.8Zm-26.58-94.92a30.9,30.9,0,0,0-.85-4.81,18.89,18.89,0,0,0-1.42,5.62,3.86,3.86,0,0,1-2.87,3.4c-.79.3-1.6.51-2.78.88a5,5,0,0,0,1,.52c3.36.51,4.85,2.5,4.91,5.83a20.71,20.71,0,0,0,.71,3.69,7.51,7.51,0,0,0,1-3.45c.15-3.39,1.58-5.64,5.15-6.13.2,0,.36-.28.71-.55l-1.53-.42C515.39,140.83,513.74,139.67,513.67,136.88Zm-13.1,23.44a29.56,29.56,0,0,0-.84-4.59l-.52,0c-.23,1.41-.58,2.82-.67,4.24-.17,2.72-1.43,4.43-4.14,5-.5.11-1,.32-1.56.51.25.18.39.37.56.39,3.53.58,5.28,2.57,5.24,6.21a15,15,0,0,0,.72,3.37c.82-2.21.65-4.63,1.65-6.39s3.11-2.59,4.62-3.76c0,0-.46-.18-.89-.29C502.27,164.43,500.64,163.17,500.57,160.32ZM240.11,226.43a27.9,27.9,0,0,0-.85-4.81,16,16,0,0,0-1.17,4.55c-.43,3.19-1.25,4.19-4.35,5.06-.47.13-1,.19-1.84.36.84.3,1.31.5,1.81.64,3.34.93,4,1.68,4.39,5.16.18,1.46.49,2.9.77,4.53.31-.28.39-.32.4-.37a10,10,0,0,0,.43-1.92c.19-4.1,1.16-7.57,6.54-7.66l-.42-.5a12.27,12.27,0,0,1-1.35-.23C242,230.54,240.13,229.46,240.11,226.43ZM519.89,362a26,26,0,0,0-.84-4.73c-.74,2-.94,4.11-1.55,6.08a6.22,6.22,0,0,1-2.13,2.76,12.51,12.51,0,0,1-3.33,1.23,16.06,16.06,0,0,0,1.68.59,4.9,4.9,0,0,1,4.21,5c.1,1.56.49,3.1.74,4.65A18.14,18.14,0,0,0,520,372a4,4,0,0,1,2.82-3.67c.88-.37,1.79-.64,3.22-1.15-.89-.17-1.19-.22-1.48-.29C522,366.25,519.9,365.2,519.89,362ZM261.08,550.05c.2,1.59.52,3.17.78,4.76a1.31,1.31,0,0,0,.51-1c0-.33.07-.65.11-1,.48-4,.82-8,6.42-8.25a10.25,10.25,0,0,0-1.94-.77c-2.31-.63-3.85-1.78-3.89-4.51a31.5,31.5,0,0,0-.86-5l-.36-.06a41.88,41.88,0,0,0-.75,4.55c-.18,2.81-1.48,4.55-4.27,5.14-.5.11-1,.28-1.78.51.74.27,1.21.48,1.7.62C260,546,260.66,546.75,261.08,550.05Zm276.23-54.93.47-.06c.35-2.21.54-4.45,1.08-6.61.66-2.61,3.47-2.52,5.53-3.69-.73-.16-1.18-.24-1.62-.36-2.41-.67-4.19-1.77-4.2-4.71a26.43,26.43,0,0,0-.87-4.85,13.34,13.34,0,0,0-1.11,4.61c-.13,2.81-1.6,4.34-4.23,4.94l-2,.44c.89.31,1.37.5,1.87.64,3.22.9,3.89,1.71,4.32,5C536.78,492.05,537.06,493.58,537.31,495.12ZM182.87,439.19a1.86,1.86,0,0,0,2-2.13c-.12-1.38-.67-2.48-2.2-2.49s-2,1-2,2.37A2,2,0,0,0,182.87,439.19ZM588,434.57c-1.53,0-2.09,1.12-2.18,2.51a1.84,1.84,0,0,0,2,2.11,2,2,0,0,0,2.16-2.27C590,435.56,589.46,434.54,588,434.57Zm-403.91-9.29a2.47,2.47,0,0,0-2.38-.25,3.5,3.5,0,0,0-.73,2.73c.38,1.56,1.77,1.48,3.2,1.12A2.43,2.43,0,0,0,184.08,425.28Zm-2.25-114.91a3.59,3.59,0,0,0,.53,2.81,2.48,2.48,0,0,0,2.39-.07,2.45,2.45,0,0,0,.19-3.74C183.73,309.13,182.32,308.81,181.83,310.37Zm405.82,2.82c.68.45,1.9.08,2.77.08.64-3.62-.38-4.58-3.33-3.68C586.33,310.9,586.35,312.33,587.65,313.19Zm-.84,111.94c-1.24.87-1.36,2.3-.36,3.7,3,.54,3.85-.35,3.15-3.79C588.72,425,587.47,424.66,586.81,425.13Zm-402,21.37a2,2,0,0,0-4,.16c-.43,1.46.57,2.28,2.06,2.58C184.39,448.85,185.26,447.9,184.76,446.5Zm403.1,2.74c1.5-.29,2.49-1.1,2.07-2.57A2.79,2.79,0,0,0,588,445a2.76,2.76,0,0,0-2.07,1.54C585.45,447.88,586.3,448.84,587.86,449.24ZM441.52,43.39c0-1.24-.66-2.29-2.07-2a8.56,8.56,0,0,0-2.38,1.33l-.06,1c.83.64,1.59,1.64,2.51,1.83C440.84,45.76,441.56,44.67,441.52,43.39ZM332.78,45.57a2,2,0,0,0,2.05-2.35c-.1-.8-1-1.5-1.52-2.24-1.89.29-2.52,1.16-2.55,2.41A1.9,1.9,0,0,0,332.78,45.57ZM438.65,702.64a2,2,0,0,0-2,2.42c.13.79,1,1.46,1.34,1.85,2.15,0,2.73-.92,2.73-2.16A1.89,1.89,0,0,0,438.65,702.64Zm-106.59,0a1.88,1.88,0,0,0-2.09,2.1c0,1.24.57,2.16,2.72,2.15.3-.38,1.23-1,1.35-1.84A2,2,0,0,0,332.06,702.65ZM272.24,45.8h1c.56-.79,1.57-1.6,1.55-2.39a2.88,2.88,0,0,0-1.84-2,1.69,1.69,0,0,0-2.14,1.87C270.86,44.19,271.72,45,272.24,45.8Zm10.06,0,.94,0c.52-.84,1.5-1.71,1.44-2.5a2.91,2.91,0,0,0-2-1.85,1.7,1.7,0,0,0-2,2.1C280.85,44.37,281.74,45.07,282.3,45.82Zm19.74,0,.95,0c.57-.81,1.59-1.63,1.56-2.41s-1.11-1.77-1.9-2a1.69,1.69,0,0,0-2.07,2C300.68,44.27,301.53,45,302,45.79Zm148.23,0c.55-.76,1.42-1.46,1.57-2.29a1.7,1.7,0,0,0-2-2.07,2.91,2.91,0,0,0-2,1.88c-.06.78.93,1.65,1.46,2.47Zm10,0c.54-.77,1.4-1.49,1.52-2.32a1.68,1.68,0,0,0-2-2c-.79.17-1.91,1.21-1.95,1.91s1,1.63,1.51,2.45Zm19.89,0c.53-.77,1.39-1.49,1.51-2.32a1.69,1.69,0,0,0-2-2,2.91,2.91,0,0,0-1.94,1.92c0,.79,1,1.63,1.52,2.44Zm9.94,0c.53-.81,1.41-1.59,1.5-2.45a1.68,1.68,0,0,0-2.11-1.9,2.92,2.92,0,0,0-1.87,1.95c0,.79,1,1.61,1.53,2.41Zm9.82,0c.57-.79,1.47-1.52,1.62-2.37a1.67,1.67,0,0,0-2-2,2.88,2.88,0,0,0-2,1.86c-.07.78.89,1.65,1.39,2.48Zm9,0,.94,0c.58-.79,1.62-1.6,1.6-2.37a2.93,2.93,0,0,0-1.86-2,1.68,1.68,0,0,0-2.11,1.94C507.51,44.22,508.36,45,508.86,45.78ZM183.72,84.62a1.69,1.69,0,0,0,1.84-2.18,2.93,2.93,0,0,0-2-1.81c-.78,0-1.57,1-2.36,1.58,0,.33,0,.65,0,1C182.05,83.69,182.85,84.56,183.72,84.62Zm404.87-4a2.88,2.88,0,0,0-1.86,2,1.69,1.69,0,0,0,2,2c.86-.14,1.59-1.07,2.37-1.65l0-1C590.24,81.51,589.36,80.56,588.59,80.64Zm-403,11.92c-.14-.88-1-1.63-1.58-2.44l-.92,0c-.52.83-1.47,1.69-1.41,2.48a2.82,2.82,0,0,0,1.88,1.93A1.68,1.68,0,0,0,185.57,92.56Zm403.07-2a2.89,2.89,0,0,0-1.91,1.92,1.68,1.68,0,0,0,1.95,2.07c.86-.11,1.61-1,2.42-1.58,0-.32,0-.64,0-1C590.27,91.49,589.42,90.51,588.64,90.57ZM185.56,102.38a2.88,2.88,0,0,0-2-1.87c-.78,0-1.6,1-2.41,1.51,0,.32,0,.64,0,1,.82.54,1.59,1.43,2.46,1.52A1.69,1.69,0,0,0,185.56,102.38Zm0,9.94a2.9,2.9,0,0,0-1.95-1.88c-.78,0-1.61,1-2.41,1.51v1c.82.54,1.59,1.43,2.45,1.53A1.69,1.69,0,0,0,185.56,112.32Zm403.09,2.12c.86-.1,1.63-1,2.44-1.54v-1c-.81-.54-1.64-1.53-2.42-1.49a2.9,2.9,0,0,0-1.94,1.89A1.69,1.69,0,0,0,588.65,114.44Zm-.06,15.88a2.9,2.9,0,0,0-1.86,2,1.68,1.68,0,0,0,2,2c.85-.14,1.59-1.06,2.37-1.64,0-.32,0-.64,0-1C590.24,131.2,589.37,130.25,588.59,130.32Zm-403,11.82a2.91,2.91,0,0,0-1.94-1.88c-.78,0-1.61.94-2.42,1.48v1c.81.54,1.58,1.44,2.44,1.54A1.69,1.69,0,0,0,185.56,142.14Zm403.07,2.11c.86-.09,1.64-1,2.45-1.52,0-.32,0-.64,0-1-.81-.55-1.63-1.55-2.41-1.51a2.9,2.9,0,0,0-2,1.86A1.69,1.69,0,0,0,588.63,144.25Zm-50-98.47.9,0c.58-.73,1.5-1.38,1.68-2.2.29-1.26-.54-2.15-1.89-2.25a1.8,1.8,0,0,0-2.13,2C537.32,44.23,538.17,45,538.68,45.78Zm48.05,255.34a1.69,1.69,0,0,0,1.9,2.13c.86-.1,1.64-1,2.45-1.52,0-.33,0-.65,0-1-.8-.54-1.63-1.54-2.4-1.5A2.88,2.88,0,0,0,586.73,301.12Zm2-11.8a2.91,2.91,0,0,0-2,1.83,1.69,1.69,0,0,0,1.86,2.16c.87-.08,1.66-.95,2.49-1.47,0-.32,0-.64,0-1C590.31,290.31,589.5,289.3,588.73,289.32Zm-.82,189.45c.78,0,1.59-1,2.39-1.53,0-.32,0-.65,0-1-.82-.52-1.61-1.41-2.47-1.49a1.68,1.68,0,0,0-1.88,2.14A2.9,2.9,0,0,0,587.91,478.77Zm.76-205.33c.86-.12,1.62-1,2.43-1.58,0-.32,0-.64,0-1-.82-.53-1.67-1.51-2.45-1.46a2.91,2.91,0,0,0-1.91,1.91A1.69,1.69,0,0,0,588.67,273.44ZM183.07,269c-.52.83-1.47,1.69-1.41,2.48a2.85,2.85,0,0,0,1.88,1.94,1.69,1.69,0,0,0,2-2c-.14-.88-1-1.63-1.58-2.43Zm2.49-7.6a2.93,2.93,0,0,0-1.92-1.91c-.78-.05-1.62.94-2.44,1.47v1c.81.55,1.57,1.46,2.43,1.57A1.69,1.69,0,0,0,185.56,261.41Zm403.07-7.85c.87-.1,1.64-1,2.46-1.52v-1c-.81-.55-1.63-1.55-2.41-1.51a2.88,2.88,0,0,0-2,1.87A1.68,1.68,0,0,0,588.63,253.56ZM185.56,301.23a2.89,2.89,0,0,0-1.85-2c-.77-.09-1.66.86-2.49,1.36l0,1c.78.58,1.51,1.51,2.37,1.66A1.69,1.69,0,0,0,185.56,301.23Zm0-49.79a2.88,2.88,0,0,0-1.95-1.87c-.78,0-1.61,1-2.41,1.5v1c.82.53,1.59,1.43,2.45,1.52A1.69,1.69,0,0,0,185.56,251.44Zm403.11-7.82c.86-.11,1.62-1,2.42-1.57,0-.32,0-.64,0-1-.81-.53-1.66-1.51-2.43-1.46a2.91,2.91,0,0,0-1.92,1.91A1.68,1.68,0,0,0,588.67,243.62Zm-2.74,213.3a2.9,2.9,0,0,0,1.86,2c.77.08,1.65-.87,2.48-1.37,0-.32,0-.65,0-1-.78-.58-1.51-1.51-2.37-1.65A1.69,1.69,0,0,0,585.93,456.92ZM180.41,467.37c.81.53,1.66,1.52,2.44,1.46a2.9,2.9,0,0,0,1.92-1.91,1.69,1.69,0,0,0-2-2.08c-.86.11-1.62,1-2.42,1.57Zm405.52-.47a2.91,2.91,0,0,0,1.9,1.93c.78.06,1.64-.91,2.46-1.43,0-.32,0-.64,0-1-.79-.56-1.54-1.48-2.4-1.6A1.69,1.69,0,0,0,585.93,466.9ZM185.56,241.58a2.89,2.89,0,0,0-1.88-2c-.78-.07-1.64.9-2.47,1.41,0,.32,0,.64,0,1,.79.57,1.53,1.49,2.39,1.62A1.68,1.68,0,0,0,185.56,241.58Zm-2.78,237.19a2.9,2.9,0,0,0,2-1.84,1.69,1.69,0,0,0-1.87-2.15c-.86.08-1.65,1-2.47,1.47,0,.33,0,.65,0,1C181.19,477.78,182,478.79,182.78,478.77Zm.07,168.94a2.91,2.91,0,0,0,1.92-1.91,1.69,1.69,0,0,0-2-2.09c-.86.11-1.62,1-2.42,1.57v1C181.22,646.78,182.07,647.76,182.85,647.71Zm0-163c-.86.12-1.62,1-2.42,1.58,0,.32,0,.64,0,1,.81.53,1.66,1.51,2.44,1.46a2.91,2.91,0,0,0,1.92-1.91A1.69,1.69,0,0,0,182.82,484.71Zm.11,9.94c-.84,0-1.64.82-2.45,1.27,0,.29-.08.59-.11.89.73.65,1.36,1.64,2.2,1.87a1.79,1.79,0,0,0,2.27-1.81A1.84,1.84,0,0,0,182.93,494.65Zm403,12a2.93,2.93,0,0,0,1.92,1.91c.78.05,1.62-.92,2.44-1.45v-1c-.8-.56-1.56-1.47-2.42-1.58A1.69,1.69,0,0,0,585.93,506.67ZM183.2,514.13h-.92c-.52.84-1.47,1.7-1.42,2.5a2.87,2.87,0,0,0,1.89,1.93,1.67,1.67,0,0,0,2-2C184.62,515.69,183.75,514.94,183.2,514.13Zm-.41,10.33c-.86.13-1.6,1-2.39,1.62v1c.83.52,1.7,1.49,2.47,1.42a2.93,2.93,0,0,0,1.89-2A1.69,1.69,0,0,0,182.79,524.46Zm405.11,4c.77,0,1.6-1,2.4-1.51,0-.33,0-.65,0-1-.82-.54-1.59-1.43-2.46-1.52a1.69,1.69,0,0,0-1.9,2.13A3,3,0,0,0,587.9,528.46Zm-.13,5.94a1.69,1.69,0,0,0-1.83,2.19,2.9,2.9,0,0,0,2,1.8c.78,0,1.57-1,2.36-1.58l0-1C589.44,535.33,588.64,534.46,587.77,534.4Zm.85-314.64a2.89,2.89,0,0,0-1.89,1.94,1.68,1.68,0,0,0,2,2.05c.86-.13,1.61-1.05,2.4-1.61l0-1C590.26,220.66,589.39,219.69,588.62,219.76ZM184.77,546.51c-.1-.89-.93-1.7-1.44-2.54l-.91,0c-.56.79-1.57,1.6-1.56,2.39a2.88,2.88,0,0,0,1.77,2A1.66,1.66,0,0,0,184.77,546.51Zm403.16,1.82c.77,0,1.58-1,2.38-1.55l0-1c-.82-.52-1.62-1.39-2.48-1.47a1.69,1.69,0,0,0-1.86,2.16A2.88,2.88,0,0,0,587.93,548.33Zm-405.27,10a1.67,1.67,0,0,0,2.12-1.89c-.12-.89-1-1.68-1.49-2.51l-.92,0c-.54.82-1.53,1.64-1.51,2.44A2.85,2.85,0,0,0,182.66,558.3Zm403.27-2a2.91,2.91,0,0,0,1.87,2c.77.07,1.65-.88,2.48-1.39l0-1c-.79-.58-1.52-1.51-2.38-1.65A1.69,1.69,0,0,0,585.93,556.3Zm-403,7.91c-.86.08-1.66,1-2.48,1.47l0,1c.8.57,1.6,1.58,2.38,1.56a2.87,2.87,0,0,0,2-1.84A1.69,1.69,0,0,0,182.9,564.21Zm1.87,12a1.69,1.69,0,0,0-1.94-2.09c-.87.11-1.62,1-2.43,1.57,0,.32,0,.64,0,1,.81.53,1.66,1.52,2.43,1.47A2.94,2.94,0,0,0,184.77,576.24Zm403.07,7.85a1.68,1.68,0,0,0-1.9,2.12,2.91,2.91,0,0,0,1.95,1.87c.78,0,1.6-1,2.41-1.5,0-.32,0-.65,0-1C589.48,585.08,588.71,584.19,587.84,584.09ZM182.78,594c-.86.14-1.6,1.06-2.39,1.63l0,1c.83.51,1.7,1.47,2.47,1.4a2.89,2.89,0,0,0,1.88-2A1.69,1.69,0,0,0,182.78,594Zm2,11.93c-.19-.88-1.09-1.61-1.66-2.4l-.92,0c-.49.85-1.41,1.75-1.33,2.54a2.81,2.81,0,0,0,1.94,1.86A1.66,1.66,0,0,0,184.78,606Zm401.15.08a2.94,2.94,0,0,0,1.91,1.93c.78,0,1.63-.92,2.45-1.45,0-.32,0-.64,0-1-.8-.56-1.55-1.47-2.41-1.59A1.69,1.69,0,0,0,585.93,606Zm0,10a2.92,2.92,0,0,0,2,1.86c.77,0,1.6-1,2.4-1.51v-1c-.82-.53-1.6-1.42-2.46-1.51A1.69,1.69,0,0,0,585.93,616ZM183,219.34c-.5.84-1.43,1.71-1.36,2.5a2.82,2.82,0,0,0,1.92,1.9,1.68,1.68,0,0,0,2-2c-.16-.88-1.06-1.61-1.63-2.41Zm405.64-9.52a2.9,2.9,0,0,0-1.93,1.9,1.68,1.68,0,0,0,1.93,2.09c.86-.11,1.62-1,2.43-1.55v-1C590.27,210.76,589.43,209.77,588.66,209.82Zm-405.74,418a2.92,2.92,0,0,0,1.85-2,1.69,1.69,0,0,0-2-2c-.86.15-1.58,1.09-2.36,1.67,0,.32,0,.64,0,1C181.26,627,182.15,627.91,182.92,627.83Zm403-1.84a2.88,2.88,0,0,0,2,1.84c.78,0,1.59-1,2.39-1.54l0-1c-.82-.52-1.61-1.4-2.47-1.48A1.69,1.69,0,0,0,585.94,626Zm2.76-432c.86-.13,1.61-1.05,2.4-1.61,0-.32,0-.64,0-1-.82-.51-1.69-1.48-2.46-1.42a2.89,2.89,0,0,0-1.89,1.94A1.69,1.69,0,0,0,588.7,193.94Zm-403.14-2.17a2.91,2.91,0,0,0-2-1.83c-.78,0-1.58,1-2.37,1.56l0,1c.83.52,1.63,1.39,2.49,1.47A1.7,1.7,0,0,0,185.56,191.77Zm-2.67,446a2.93,2.93,0,0,0,1.88-2,1.69,1.69,0,0,0-2-2c-.86.13-1.6,1.06-2.39,1.63l0,1C181.25,636.88,182.12,637.84,182.89,637.77Zm403.05-1.83a2.9,2.9,0,0,0,2,1.83c.78,0,1.58-1,2.38-1.56l0-1c-.83-.52-1.62-1.39-2.48-1.47A1.69,1.69,0,0,0,585.94,635.94ZM182.57,657.67a1.78,1.78,0,0,0,2.27-1.81,1.85,1.85,0,0,0-1.91-2.22c-.84,0-1.64.83-2.45,1.28,0,.29-.08.59-.11.89C181.1,656.46,181.73,657.45,182.57,657.67Zm405.24,5.92a1.69,1.69,0,0,0-1.87,2.15,2.89,2.89,0,0,0,2,1.83c.78,0,1.59-1,2.39-1.53,0-.32,0-.65,0-1C589.46,664.55,588.68,663.67,587.81,663.59ZM183.65,180c-.78-.06-1.63.92-2.45,1.45,0,.32,0,.64,0,1,.8.56,1.56,1.46,2.42,1.58a1.68,1.68,0,0,0,1.95-2.08A2.87,2.87,0,0,0,183.65,180Zm407.43-8.54c-.83-.51-1.7-1.47-2.48-1.4a2.9,2.9,0,0,0-1.87,2,1.68,1.68,0,0,0,2,2c.86-.13,1.59-1.06,2.38-1.63Zm-407.49,2.59a1.68,1.68,0,0,0,2-2.05,2.89,2.89,0,0,0-1.89-1.94c-.77-.07-1.64.9-2.46,1.42,0,.32,0,.64,0,1C182,173,182.73,173.94,183.59,174.06ZM586.73,162a1.69,1.69,0,0,0,1.87,2.15c.86-.08,1.65-1,2.48-1.47,0-.32,0-.65,0-1-.79-.56-1.6-1.57-2.38-1.55A2.91,2.91,0,0,0,586.73,162Zm-401.17.08a2.91,2.91,0,0,0-1.91-1.92c-.77,0-1.63.92-2.44,1.44,0,.32,0,.64,0,1,.8.55,1.55,1.46,2.41,1.58A1.68,1.68,0,0,0,185.56,162.05Zm37-116.25h.95c.55-.81,1.56-1.65,1.52-2.44s-1.14-1.75-1.93-1.92a1.69,1.69,0,0,0-2,2C221.2,44.31,222.06,45,222.58,45.8Zm29.91,0,.89,0c.54-.77,1.43-1.49,1.55-2.32a1.8,1.8,0,0,0-2.05-2.1c-1.35,0-2.22.9-2,2.16C251,44.37,251.93,45.06,252.49,45.82ZM222.78,702.41l-.9,0c-.55.76-1.44,1.45-1.59,2.27-.24,1.27.63,2.13,2,2.18a1.81,1.81,0,0,0,2-2.1C224.21,703.91,223.32,703.18,222.78,702.41Zm9,0c-.55.76-1.43,1.46-1.57,2.29a1.69,1.69,0,0,0,2,2.07,2.9,2.9,0,0,0,2-1.87c.06-.79-.93-1.65-1.46-2.48Zm29.68,0c-.5.83-1.36,1.63-1.43,2.49a1.69,1.69,0,0,0,2.16,1.85,2.89,2.89,0,0,0,1.82-2c0-.78-1-1.58-1.59-2.37Zm9.9,0c-.49.84-1.33,1.65-1.39,2.51a1.68,1.68,0,0,0,2.18,1.82,2.9,2.9,0,0,0,1.8-2c0-.78-1-1.56-1.63-2.34Zm20.06,0c-.55.79-1.45,1.54-1.58,2.4a1.67,1.67,0,0,0,2,2,2.86,2.86,0,0,0,1.92-1.89c.05-.78-.92-1.63-1.44-2.45Zm10.21.47a2.83,2.83,0,0,0-1.83,2,1.68,1.68,0,0,0,2.14,1.9c.84-.18,1.52-1.06,2.27-1.63l0-.9C303.34,703.74,302.44,702.79,301.64,702.87Zm9.65-.47c-.55.76-1.43,1.46-1.57,2.29a1.69,1.69,0,0,0,2,2.07,2.9,2.9,0,0,0,2-1.87c.06-.79-.93-1.65-1.47-2.48Zm137.82.4a1.7,1.7,0,0,0-2.09,2,2.87,2.87,0,0,0,1.92,1.94c.8,0,1.66-.94,2.49-1.47v-.92C450.66,703.8,450,703,449.11,702.8Zm10.36-.39h-1c-.55.81-1.54,1.63-1.51,2.42a2.89,2.89,0,0,0,1.87,1.94,1.67,1.67,0,0,0,2.1-1.9C460.87,704,460,703.22,459.47,702.41Zm27.3,2.3a2.87,2.87,0,0,0,1.85,2c.8.08,1.69-.88,2.54-1.38l0-.92c-.76-.56-1.44-1.42-2.27-1.61A1.7,1.7,0,0,0,486.77,704.71Zm12.52-2.28-.94,0c-.58.8-1.62,1.61-1.6,2.39s1.09,1.78,1.88,2a1.69,1.69,0,0,0,2.1-2C500.63,704,499.8,703.21,499.29,702.43Zm9.31.43a2.82,2.82,0,0,0-2,1.86,1.67,1.67,0,0,0,2,2.06c.88-.15,1.64-1,2.45-1.55v-.92C510.23,703.78,509.38,702.81,508.6,702.86Zm20.5-.44-1,0c-.58.8-1.6,1.59-1.59,2.38a2.89,2.89,0,0,0,1.83,2,1.67,1.67,0,0,0,2.15-1.85C530.46,704,529.6,703.25,529.1,702.42Zm9.91,0-1,0c-.57.8-1.58,1.61-1.56,2.39a2.88,2.88,0,0,0,1.83,2,1.68,1.68,0,0,0,2.14-1.86C540.39,704,539.53,703.24,539,702.42ZM262.24,45.78l1,0c.58-.79,1.61-1.57,1.61-2.36a2.9,2.9,0,0,0-1.79-2,1.68,1.68,0,0,0-2.18,1.83C260.9,44.14,261.74,45,262.24,45.78Zm323.69,600a2.93,2.93,0,0,0,1.89,2c.78.06,1.64-.9,2.47-1.42,0-.32,0-.64,0-1-.8-.56-1.54-1.48-2.4-1.61A1.69,1.69,0,0,0,585.93,645.76Zm1.91-151.11a1.69,1.69,0,0,0-1.91,2.12,2.92,2.92,0,0,0,2,1.87c.77,0,1.6-.95,2.41-1.5,0-.32,0-.64,0-1C589.48,495.64,588.7,494.75,587.84,494.65Zm0,163c.77.05,1.62-.92,2.44-1.45,0-.32,0-.64,0-1-.8-.55-1.56-1.46-2.42-1.57a1.69,1.69,0,0,0-2,2.08A2.91,2.91,0,0,0,587.85,657.64Zm-403.08,8a1.69,1.69,0,0,0-1.94-2.08c-.86.11-1.62,1-2.43,1.56v1c.82.53,1.66,1.51,2.44,1.46A2.92,2.92,0,0,0,184.77,665.67Zm-2-161.08c-.85.15-1.57,1.09-2.35,1.67,0,.32,0,.65,0,1,.83.49,1.72,1.43,2.5,1.35a2.93,2.93,0,0,0,1.84-2A1.68,1.68,0,0,0,182.74,504.59Zm-2.31,111.94c.83.5,1.72,1.44,2.49,1.36a2.92,2.92,0,0,0,1.85-2,1.69,1.69,0,0,0-2-2c-.86.14-1.58,1.08-2.36,1.67C180.4,615.89,180.41,616.21,180.43,616.53Zm5.13-385a2.91,2.91,0,0,0-2-1.83c-.78,0-1.58,1-2.37,1.56l0,1c.82.52,1.62,1.39,2.48,1.47A1.7,1.7,0,0,0,185.56,231.52Zm363-185.76.93.08c.6-.78,1.66-1.56,1.66-2.34a3,3,0,0,0-1.81-2,1.68,1.68,0,0,0-2.16,1.89C547.24,44.18,548.07,45,548.56,45.76Zm-19.74,0,.89,0c.57-.74,1.46-1.43,1.62-2.25.25-1.27-.61-2.13-2-2.19a1.8,1.8,0,0,0-2.07,2.08C527.41,44.29,528.28,45,528.82,45.8Zm-9,0c.57-.79,1.47-1.53,1.6-2.39a1.67,1.67,0,0,0-2-2,2.87,2.87,0,0,0-1.94,1.87c-.06.78.9,1.64,1.42,2.47Zm-49.68,0c.56-.75,1.45-1.44,1.6-2.27a1.69,1.69,0,0,0-2-2.1,2.91,2.91,0,0,0-2,1.85c-.07.79.91,1.66,1.43,2.5ZM182.89,534.4c-.86.08-1.65,1-2.47,1.48l0,1c.8.56,1.61,1.57,2.39,1.54a2.88,2.88,0,0,0,2-1.84A1.69,1.69,0,0,0,182.89,534.4Zm405,29.81a1.69,1.69,0,0,0-1.93,2.11,2.94,2.94,0,0,0,1.94,1.89c.78,0,1.62-1,2.43-1.49v-1C589.49,565.21,588.72,564.32,587.86,564.21Zm-406.67-352c.81.56,1.56,1.47,2.42,1.58a1.68,1.68,0,0,0,1.95-2.08,2.93,2.93,0,0,0-1.91-1.91c-.78,0-1.63.92-2.45,1.45C181.2,211.59,181.2,211.91,181.19,212.23ZM322,45.81h.95c.54-.82,1.54-1.67,1.5-2.45s-1.16-1.74-1.95-1.91a1.7,1.7,0,0,0-2,2C320.58,44.32,321.45,45,322,45.81Zm-10,0,.95,0c.55-.82,1.57-1.65,1.53-2.44s-1.14-1.75-1.92-1.93a1.68,1.68,0,0,0-2.05,2C310.63,44.3,311.49,45,312,45.8Zm-19.81,0h.94c.54-.82,1.53-1.68,1.48-2.47s-1.19-1.72-2-1.88a1.69,1.69,0,0,0-2,2.07C290.78,44.35,291.66,45.05,292.2,45.81Zm-49.67,0h1c.52-.83,1.5-1.68,1.44-2.46s-1.13-1.71-1.92-1.89a1.67,1.67,0,0,0-2,2C241.08,44.27,242,45,242.53,45.81Zm346,104.38a2.93,2.93,0,0,0-1.84,2,1.68,1.68,0,0,0,2,2c.86-.15,1.58-1.09,2.36-1.67,0-.32,0-.64,0-1C590.23,151.06,589.35,150.11,588.57,150.19Zm-407.35,2.56c.83.51,1.64,1.37,2.5,1.44a1.7,1.7,0,0,0,1.84-2.19,2.91,2.91,0,0,0-2-1.81c-.78,0-1.57,1-2.36,1.59Zm51.25-107,.95,0c.57-.8,1.6-1.62,1.57-2.4a2.88,2.88,0,0,0-1.89-2,1.69,1.69,0,0,0-2.08,2C231.12,44.26,232,45,232.47,45.79ZM588.59,203.87c.87-.07,1.66-1,2.49-1.46,0-.33,0-.65,0-1-.79-.57-1.59-1.58-2.37-1.56a2.91,2.91,0,0,0-2,1.83A1.69,1.69,0,0,0,588.59,203.87Zm-403-1.92c-.1-.88-1-1.67-1.47-2.49l-.93,0c-.55.81-1.54,1.63-1.52,2.42a2.86,2.86,0,0,0,1.81,2A1.68,1.68,0,0,0,185.57,202Zm405.51,78.83c-.83-.51-1.7-1.47-2.48-1.4a2.88,2.88,0,0,0-1.87,2,1.68,1.68,0,0,0,2,2c.86-.13,1.59-1.06,2.38-1.63Zm0-49.72c-.84-.5-1.72-1.45-2.49-1.37a2.92,2.92,0,0,0-1.85,2,1.69,1.69,0,0,0,2,2c.85-.15,1.58-1.08,2.36-1.67C591.1,231.7,591.08,231.38,591.07,231.06ZM184.78,457c-.13-.89-1-1.68-1.5-2.51l-.91,0c-.55.82-1.53,1.64-1.51,2.44a2.83,2.83,0,0,0,1.81,2A1.67,1.67,0,0,0,184.78,457Zm57.27,245.83a2.82,2.82,0,0,0-1.87,1.92,1.66,1.66,0,0,0,2,2c.88-.16,1.61-1.06,2.41-1.63l0-.89C243.73,703.74,242.85,702.8,242.05,702.86Zm9.57-.45c-.53.77-1.39,1.48-1.52,2.31a1.69,1.69,0,0,0,2,2,2.9,2.9,0,0,0,1.94-1.91c.05-.78-1-1.63-1.5-2.45ZM180.41,586.67c.83.51,1.7,1.48,2.47,1.41a2.93,2.93,0,0,0,1.89-2,1.68,1.68,0,0,0-2-2c-.86.13-1.6,1-2.4,1.62C180.4,586,180.41,586.35,180.41,586.67Zm407.5-102a1.69,1.69,0,0,0-2,2.05,2.91,2.91,0,0,0,1.89,1.95c.78.07,1.64-.9,2.46-1.42l0-1C589.51,485.76,588.77,484.84,587.91,484.71ZM281.5,702.4c-.56.79-1.46,1.54-1.59,2.4a1.68,1.68,0,0,0,2,2,2.86,2.86,0,0,0,1.93-1.88c.05-.79-.92-1.64-1.44-2.46ZM588.63,184c.86-.09,1.64-1,2.45-1.52,0-.32,0-.64,0-1-.81-.55-1.63-1.55-2.41-1.51a2.88,2.88,0,0,0-2,1.86A1.69,1.69,0,0,0,588.63,184Zm2.44,76.87c-.84-.5-1.72-1.44-2.49-1.36a2.88,2.88,0,0,0-1.85,2,1.68,1.68,0,0,0,2,2c.85-.14,1.58-1.08,2.36-1.67ZM181.22,281.94c.83.5,1.64,1.37,2.51,1.43a1.7,1.7,0,0,0,1.83-2.19,2.91,2.91,0,0,0-2-1.8c-.78,0-1.57,1-2.36,1.59ZM321.61,702.82c-.78.19-1.88,1.25-1.89,1.95s1,1.61,1.56,2.42l.93,0c.52-.79,1.38-1.53,1.48-2.36A1.69,1.69,0,0,0,321.61,702.82Zm-138-409.51a1.68,1.68,0,0,0,1.91-2.11,2.92,2.92,0,0,0-1.95-1.88c-.77,0-1.61.95-2.41,1.49v1C182,292.31,182.78,293.21,183.65,293.31ZM587.91,514.53a1.68,1.68,0,0,0-2,2,2.93,2.93,0,0,0,1.89,1.95c.77.07,1.64-.9,2.46-1.41l0-1C589.51,515.57,588.77,514.65,587.91,514.53Zm-121,190.21a2.85,2.85,0,0,0,1.87,2c.8.07,1.68-.89,2.52-1.41,0-.3,0-.61,0-.92-.75-.55-1.45-1.4-2.28-1.58A1.7,1.7,0,0,0,466.9,704.74Zm12.5-2.32-1,0c-.57.79-1.59,1.59-1.57,2.37a2.89,2.89,0,0,0,1.83,2,1.69,1.69,0,0,0,2.15-1.86C480.77,704,479.91,703.24,479.4,702.42ZM587.89,594a1.7,1.7,0,0,0-2,2.08,3,3,0,0,0,1.91,1.92c.78.05,1.63-.92,2.45-1.44v-1C589.5,595.05,588.75,594.14,587.89,594ZM183.73,134.31a1.69,1.69,0,0,0,1.83-2.19,2.91,2.91,0,0,0-2-1.8c-.78,0-1.57,1-2.36,1.59l0,1C182.05,133.38,182.86,134.25,183.73,134.31ZM516.58,704.66a1.68,1.68,0,0,0,1.89,2.12c.89-.13,1.68-1,2.51-1.48l0-.93c-.8-.54-1.62-1.54-2.4-1.51A2.87,2.87,0,0,0,516.58,704.66Zm72-584.28a2.89,2.89,0,0,0-1.89,1.94,1.69,1.69,0,0,0,2,2.06c.86-.13,1.6-1,2.39-1.62l0-1C590.26,121.28,589.39,120.32,588.62,120.38Zm-405,0c-.77-.06-1.64.9-2.46,1.42l0,1c.79.57,1.54,1.49,2.4,1.62a1.69,1.69,0,0,0,2-2.06A2.89,2.89,0,0,0,183.67,120.38ZM548.32,702.86a2.85,2.85,0,0,0-1.92,1.9,1.67,1.67,0,0,0,2,2c.88-.17,1.62-1,2.43-1.58,0-.31,0-.62,0-.93C550,703.76,549.1,702.8,548.32,702.86Zm40.3-602.35a2.89,2.89,0,0,0-1.89,1.94,1.69,1.69,0,0,0,2,2c.85-.12,1.6-1,2.39-1.61,0-.32,0-.64,0-1C590.26,101.41,589.39,100.45,588.62,100.51Zm-.71,473.64a1.69,1.69,0,0,0-2,2.05,2.91,2.91,0,0,0,1.89,1.94c.77.07,1.64-.9,2.46-1.41l0-1C589.51,575.2,588.77,574.28,587.91,574.15ZM373.68,118.57c7.28.05,14.57,0,21.86,0a8.17,8.17,0,0,0,2.93-.36c.67-.27,1.65-1.17,1.57-1.62-.13-.7-1-1.37-1.65-1.83a5.66,5.66,0,0,0-1.9-.41c-.3-9.16-.6-18.2-.91-27.58a23.4,23.4,0,0,0,4.24-.07c.65-.13,1.66-1,1.62-1.54-.06-.69-.87-1.4-1.5-1.94-.28-.24-.89-.13-1.35-.13l-24.24,0a12.92,12.92,0,0,0-1.39.05c-1.28.14-2.71.31-2.76,2s1.38,1.88,2.66,2c.7.09,1.41.11,2,.16V115c-1.95.69-4.4-.38-5.6,2.09C370.49,118.62,372.15,118.56,373.68,118.57ZM387.31,87h5.22v27.55l-5.22.29Zm-8.4.32H384V114.8h-5.12Z"/></svg>