<svg xmlns="http://www.w3.org/2000/svg" viewBox="0 0 750 750"><path d="M606,51.4c0-1.19,0-2.38,0-3.58-.12-13.27-9.63-22.69-22.92-22.69q-197.23,0-394.46-.13c-13.86,0-24.29,10-24.26,24.34q.38,162.85.13,325.71,0,163.74,0,327.49a23.08,23.08,0,0,0,.61,5.5c2.62,10.62,11.24,17,22.92,17H583.55c8.28-.19,14.79-3.62,19.26-10.67,2.65-4.18,3.24-8.85,3.24-13.7Q606,376,606,51.4Zm-4.28,650.27c0,11.54-7.47,19.05-19,19.05q-197.53,0-395.08.07a18.65,18.65,0,0,1-19-19q.22-163.35.09-326.71V47.6c0-8.9,5.49-15.93,14-17.83a18.46,18.46,0,0,1,3.94-.35H583.81a17.66,17.66,0,0,1,18,17.83c0,1.33,0,2.65,0,4ZM357.28,300.34c5.91,7.31,11.86,14.59,17.53,22.09,6.06,8,11.79,16.29,17.75,24.39a27.26,27.26,0,0,0,4.68,5,4.41,4.41,0,0,0,3.68.78c5.1-2.13,7.45-4.22,5.28-10.13a11.07,11.07,0,0,0-1.28-2.46c-7.89-11.61-15.71-23.28-25.81-33.18a84.42,84.42,0,0,1-15.21-20.22c-4.56-8.43-9.78-16.5-14.74-24.71-.57-.94-1.27-1.8-1.92-2.7.59-.85,1.05-1.57,1.57-2.26,4.27-5.75,8.5-11.51,15.44-14.47a4.31,4.31,0,0,0,2.36-3c.05-1.71-1.72-2.28-3.28-2.59-.1,0-.18-.16-.69-.65,1.28-.7,2.34-1.61,3.54-1.86a65.75,65.75,0,0,1,7.29-1c8.43-.85,15-4.9,19.89-11.71,1-1.34.78-2.16-.69-3a15.29,15.29,0,0,0-12.67-1c-.77.25-1.55.48-2.77.86,3.09-4.09,5.88-7.77,8.65-11.46a185.06,185.06,0,0,1,15.33-17.42c5.2-5.4,4.86-13-.32-18.31q-.83-.85-1.59-1.77c-1.95-2.36-4.31-2.77-6.78-.93a18.26,18.26,0,0,0-3.06,3.09c-2.16,2.59-4.26,5.24-6.36,7.88-3,3.84-6.28,7.55-9,11.58-12.17,17.75-24.2,35.59-36.29,53.4-.35.51-.75,1-1.26,1.65-1.67-2.19-3.06-4.21-4.64-6.07a24.53,24.53,0,0,1-5.49-11.72,14.19,14.19,0,0,0-1.09-3.4c-.82-1.79-2.15-2.08-3.65-.77a22.58,22.58,0,0,0-2.24,2.79c-.39-1.82-.95-3.11-.88-4.37a71.84,71.84,0,0,1,1-7.28,26.88,26.88,0,0,0-6.23-22.22A10.19,10.19,0,0,0,311.6,192c-2.38,2.17-4.38,4.31-4.89,7.32-.47,2.79-.62,5.65-.9,8.4-2.14-2.76-4.43-5.67-6.67-8.6s-4.61-5.83-6.67-8.91c-2.86-4.28-5.4-8.78-8.24-13.08a12.86,12.86,0,0,0-17.39-4.22c-.75.42-1.51.83-2.29,1.18-2.8,1.25-3.8,3.41-2.67,6.29a18.84,18.84,0,0,0,2.19,3.75c2.06,2.92,4.18,5.8,6.32,8.66,2.89,3.87,5.63,7.88,8.76,11.54q23,26.88,46.14,53.6c.54.63,1,1.33,1.53,2l-13.53,17.78-1-.6c-3-1.94-4.67-1.23-5.75,2.11s-2.47,6.85-3.77,10.24a10,10,0,0,1-1.32,2.21c-4.64,6.29-9.16,12.66-14,18.81-7.35,9.37-14.95,18.54-22.36,27.87a25.42,25.42,0,0,0-3.32,5.56,4.81,4.81,0,0,0,.1,3.44,6.92,6.92,0,0,0,10.43,3.27,12.22,12.22,0,0,0,2.73-2.28c8.81-10.15,17.75-20.22,24.52-31.93,4.67-8.06,9.89-15.6,16.91-21.9,5.51-4.94,10.57-10.39,15.76-15.68,1.74-1.78,3.28-3.76,5.1-5.85l9.56,12.34a5.89,5.89,0,0,0-1,.6c-2.65,2.35-2.4,4.17.61,6.06,2.35,1.48,4.61,3.11,6.82,4.79A22.8,22.8,0,0,1,357.28,300.34Zm30.06-119.1c.15-1.14,1.33-2.15,2-3.22l.54.23a15.28,15.28,0,0,0,.09,4.12,5.74,5.74,0,0,0,2.13,3,3,3,0,0,0,3.8-.73c1.44-1.46,3-2.89,2.83-5.22-.17-2-1.47-2.77-3.2-1.76-.05.33-.12.72-.15,1.1s0,.79,0,1.61l-1.52,1.52a7.93,7.93,0,0,1,2-9c4.21,1.29,6.25,5.79,4.53,10.45a14.6,14.6,0,0,1-2.8,4.73c-3.14,3.44-6.5,6.67-9.77,10C386.23,192.52,386.6,186.87,387.34,181.24Zm2.93,144.41c.7,1,1.38,2,2.11,3,2.83,3.83,5.69,7.64,8.51,11.47a22.59,22.59,0,0,1,1.59,2.51c2.09,3.82,1.64,5.06-3.07,7.06a33.93,33.93,0,0,1-3.4-4c-3.26-5.27-4.48-11.24-5.64-17.22A7.52,7.52,0,0,1,390.27,325.65Zm-3.84-2.24c.82,3.73,1.65,7.46,2.5,11.24-7.38-7.67-12.53-16.48-14.39-27.27C379,312.45,384.85,316.3,386.43,323.41Zm-41.72-67.13-1.39-1.58,5.14-4.23.42.38Zm32.07-62.13.59.35c-3.35,8.81-7.26,17.25-15.46,22.92ZM353.67,229a142.78,142.78,0,0,1,11.53-10.89,40.88,40.88,0,0,0,14.93-25.64c.48-2.88,1.37-5.61,3.68-7.36.18,4.17.4,8.39.55,12.6.14,3.79-1.3,6.87-3.46,10-8.16,12-19.65,20-31.82,27.58C350.59,233.24,351.87,230.88,353.67,229Zm11.15-1.42.41.36-5.29,6.61a10,10,0,0,0-1.77,2.36,3.05,3.05,0,0,0,.11,2.54c.4.54,1.56.63,2.4.68.68,0,1.38-.28,2.18-.18-7,4.23-15.05,6.65-21.1,12.82l-2.42-2.93C346.17,240.41,356.19,234.81,364.82,227.61ZM341,257.76c-7.58-2.43-9.16-8.88-11.52-14.66Zm-71.17-72.5c1.7.43,3,.79,4.35,1.1a3.29,3.29,0,0,0,3.73-1.18,3.44,3.44,0,0,0,.1-4.26,15.41,15.41,0,0,0-2.82-3.25,3.61,3.61,0,0,0-2.6-.46c-.6.12-1.06,1-1.59,1.49.51.5,1,1,1.53,1.48.22.17.62.12,1,.19l1.36,2.18a8.21,8.21,0,0,1-8.13-4.35c2.43-3.79,7.38-4.56,11.44-1.61a15,15,0,0,1,3.69,3.81c2.54,4,4.85,8.13,7.26,12.21l-.17.56-16.47-4.07ZM282.26,202l.46-.41c8,5.57,15.24,11.86,19.1,21.84Zm33.12,37.73a42.15,42.15,0,0,1-8.18-10.91c-1.9-3.64-3.69-7.33-5.49-11a39.75,39.75,0,0,0-19.64-19.12c-2.8-1.29-5.39-2.84-6.63-5.67l10.66,2.24a18.61,18.61,0,0,1,10.81,6.7c9.27,11,14,24,18.57,37.26C315.52,239.35,315.44,239.49,315.38,239.77Zm-43,106.43a4.26,4.26,0,0,1-.58.54c-3,2.72-4.77,2.44-7-1.23.63-3.39,3.23-5.58,5.81-7.35,4.49-3.08,9.36-5.62,14.07-8.39l.52.6Q278.82,338.29,272.39,346.2Zm4.16-15.15c5.45-8.9,12.31-15.94,21.82-20.32C295.07,320,288.66,326,276.55,331.05Zm15.6-19.69-.38-.39c3.51-4.77,6.78-9.76,10.6-14.27s5.54-10,7.2-15.48c.1-.32.17-.64.26-1a2.58,2.58,0,0,1,.3-.35l1.49,1.06c-3,7.89-5.32,15.93-9.92,23C299.36,307.54,295.53,309.16,292.15,311.36Zm29.67-26.95-11.71,11.26c1.4-4.8,2.67-9.16,4-13.51a3.08,3.08,0,0,1,.63-1q4.79-5.84,9.6-11.64c.2-.25.44-.47.66-.71l.43.12C324.24,274,323.08,279,321.82,284.41Zm5.34-5.17-.43-.25L330,264.32h.58l4.53,5.78Zm4.47-19.84c-9.06-9.81-14-21.85-18.74-34A9.67,9.67,0,0,1,312,222c1.43,1.88,2.87,3.75,4.28,5.64a20.22,20.22,0,0,0,2.48,3.32,3.53,3.53,0,0,0,2.78.7c.53-.13.89-1.4,1.13-2.21a8.25,8.25,0,0,0,.13-2.06l.6,0c.57,2.76,1.32,5.51,1.69,8.3a42.38,42.38,0,0,0,7.62,19.77c2.53,3.48,6.49,4.35,10.24,5.61.44.15.9.22,1.6.39,2.4,3.51,4.89,7.16,7.37,10.81a3.76,3.76,0,0,1-.25.31c-.42-.19-.85-.36-1.26-.57l-7.76-4A39,39,0,0,1,331.63,259.4Zm10,12.91a1.47,1.47,0,0,1-.23-1.17l14,7.39,7.93,14.34c-4.19-2.54-8-4.86-11.84-7.2a3.32,3.32,0,0,1-1-.94Q346,278.54,341.6,272.31Zm6.09,16.52,2.06-1.53c5.87,4.67,11.77,9.3,17.61,14,4.25,3.45,5.07,8.58,6.19,13.57-2.29-2.86-4.6-5.72-6.88-8.6-2.05-2.59-4.09-5.18-6.09-7.81-3-4-7.32-6.18-11.36-8.79C348.79,289.4,348.32,289.18,347.69,288.83Zm65.39,226.26c6.19-5.87,12.17-12,18.17-18.05,1.75-1.76,3.28-3.74,5.08-5.83l9.47,12.24c-.46.33-.74.5-1,.72-2.56,2.29-2.35,4.14.52,6,2.39,1.53,4.72,3.17,7,4.88a22.36,22.36,0,0,1,3.95,3.56c6,7.36,12,14.68,17.66,22.23,6,7.91,11.64,16.08,17.51,24.08a28.31,28.31,0,0,0,4.63,5.08,5.19,5.19,0,0,0,3.69.93c4.77-.74,7.21-4.93,5.68-9.48a12.64,12.64,0,0,0-1.46-3c-7.58-11.1-15-22.27-24.5-31.95-4.67-4.77-9.61-9.34-12.93-15.26-3.78-6.75-7.41-13.6-11.34-20.27-2.72-4.6-5.84-9-8.94-13.68,1.86-2.43,3.91-4.93,5.77-7.56a23.89,23.89,0,0,1,9.33-7.82,17.4,17.4,0,0,0,3.19-2c1.68-1.32,1.58-2.85-.24-4a15.36,15.36,0,0,0-2.33-1,3.67,3.67,0,0,1,3.36-2.39c2.44-.23,4.86-.61,7.3-.87A27,27,0,0,0,492.34,440c.72-1,1.11-2.1-.21-2.65-2.22-.91-4.55-2-6.88-2.12-2.87-.12-5.78.71-8.67,1.13,2.74-3.62,5.58-7.34,8.38-11.09a193.76,193.76,0,0,1,15.45-17.57c4.91-5.17,4.52-12.75-.37-17.87-.69-.71-1.34-1.46-2-2.21-1.64-1.91-3.72-2.42-5.84-1.07a18.39,18.39,0,0,0-3.63,3.32c-1.35,1.53-2.5,3.25-3.78,4.85-3.8,4.76-7.92,9.29-11.38,14.29-10.77,15.57-21.29,31.31-31.92,47-1.91,2.83-3.87,5.62-6,8.64-1.65-2.16-3-4.12-4.54-5.92a24.92,24.92,0,0,1-5.68-12.07,12.86,12.86,0,0,0-1-3.2c-.86-1.88-2.26-2.16-3.79-.76a15,15,0,0,0-1.62,2.12,4,4,0,0,1-1.4-4.3c.43-2.34.68-4.72,1-7.07a26.7,26.7,0,0,0-6.23-21.84,11.29,11.29,0,0,0-1.6-1.33c-5.3,4.26-6.26,9.75-5.42,16.25-.53-.63-.79-.9-1-1.2-4.8-6.33-9.71-12.57-14.34-19-2.49-3.48-4.37-7.4-6.74-11a12.84,12.84,0,0,0-17.24-4.19c-.75.42-1.5.85-2.29,1.2-3,1.34-4,3.54-2.68,6.59a19.19,19.19,0,0,0,2.15,3.55c2,2.81,4,5.58,6.09,8.34,2.85,3.82,5.52,7.8,8.61,11.41,12.92,15.08,26,30.05,39,45.08,3.07,3.54,6.05,7.16,9.13,10.82l-13.6,17.87c-.5-.29-.78-.45-1-.62-3-1.89-4.63-1.16-5.72,2.21s-2.48,6.85-3.78,10.24a9.06,9.06,0,0,1-1.21,2.05c-4.91,6.66-9.69,13.41-14.8,19.92-7.23,9.21-14.74,18.2-22,27.36a19.31,19.31,0,0,0-3,5.3,4.76,4.76,0,0,0,.36,3.58c2.71,4.77,7.34,5.49,11.55,1.95a19.91,19.91,0,0,0,2.13-2.08c9.7-11.23,19.24-22.58,26.51-35.62A63,63,0,0,1,413.08,515.09Zm73.23-115.63c.16-1.14,1.34-2.15,2-3.22l.51.15c0,1.28,0,2.56,0,3.84a3.37,3.37,0,0,0,2.21,3.43,3.62,3.62,0,0,0,4.14-1.09c1.35-1.46,2.81-2.89,2.49-5.15-.26-1.91-1.51-2.53-3.28-1.47v2.58L492.78,400a7.94,7.94,0,0,1,2.09-8.83c4.12,1.23,6.2,5.64,4.59,10.26a15.79,15.79,0,0,1-2.75,4.77c-1.51,1.81-3.44,3.28-5.08,5s-3.12,3.51-4.74,5.36C485.23,410.74,485.56,405.09,486.31,399.46Zm3,144.62q5.58,7.57,11.15,15.18a13.54,13.54,0,0,1,1.11,1.87c1.9,3.64,1.32,5-3.24,6.71A30.84,30.84,0,0,1,495,564c-3.25-5.19-4.45-11.11-5.63-17-.2-1-.32-1.94-.49-3C489.12,544,489.29,544,489.34,544.08Zm-3.83-2.1c.76,3.61,1.56,7.21,2.4,11.06-7.74-8.41-13.28-18.9-14.54-27.55C478.06,530.73,484,534.71,485.51,542Zm-18.93-22.19c4.11,3.38,4.84,8.42,5.94,13.29-2.31-2.87-4.63-5.73-6.91-8.62-2.1-2.65-4.15-5.32-6.22-8-3-3.87-7.3-6.05-11.29-8.62-.38-.25-.8-.43-1.47-.79l2.14-1.54C454.73,510.28,460.72,515,466.58,519.79Zm-12-22.56c2.51,4.49,5,9,7.63,13.84-4.21-2.56-8.09-4.91-12-7.28a3,3,0,0,1-.84-.82q-4.5-6.29-9-12.59a11.78,11.78,0,0,1-.61-1.21c1.15.54,1.89.86,2.61,1.23,3.64,1.87,7.28,3.74,10.89,5.65A3.13,3.13,0,0,1,454.6,497.23Zm-11-22.77-1.37-1.58,5.19-4.19.39.47Zm32.23-62.3c0,4.54-8,20.09-15.15,23.73Zm-22.22,34c4.32-4.28,9-8.19,13.42-12.38A39.34,39.34,0,0,0,479,411.38c.54-3.09,1.31-6.06,3.8-8.05.18,4.16.41,8.36.55,12.56.14,3.77-1.25,6.88-3.41,10.06-8.11,11.93-19.58,19.94-31.23,27.81-.08.06-.23,0-1,.11C449.84,451,451.47,448.31,453.66,446.13Zm10.17-.32.38.35L459,452.73a10.84,10.84,0,0,0-1.87,2.52,3.09,3.09,0,0,0,.2,2.53c.34.5,1.46.6,2.24.62a10,10,0,0,0,2.24-.44l.2.48c-7.14,4-15.2,6.41-21.27,12.58l-2.4-2.95C445.18,458.63,455.17,453,463.83,445.81Zm-24.21,29.76c-4.52.08-8.87-6.58-11.5-14.61Zm-70.86-72.08c1.7.43,3,.76,4.28,1.07a3.32,3.32,0,0,0,3.75-1.1,3.52,3.52,0,0,0,.21-4.26c-1-1.62-1.93-3.37-4-3.84-1.85-.41-2.9.4-2.9,2.47l2.57,1,1.43,2.35c-3.71-.47-6.61-1.49-8.4-4.52,2.19-3.92,7.35-4.8,11.44-1.87a15.06,15.06,0,0,1,3.82,3.94c2.52,3.94,4.78,8,7.15,12.06l-.06.64-17-4.22c0-.14,0-.28.05-.42C370.4,405.8,369.71,404.84,368.76,403.49Zm12.51,16.82.43-.47c8,5.57,15.2,11.82,19.08,21.81ZM414.4,458a41.56,41.56,0,0,1-8.19-10.87c-2.17-4.16-4.11-8.44-6.31-12.58A39.28,39.28,0,0,0,381.17,417c-2.86-1.31-5.51-2.86-6.83-5.87,4.84,1.17,9.71,2.28,14.53,3.54,2.58.67,4.35,2.47,6.12,4.47,9.79,11.1,14.79,24.59,19.45,38.27A2.19,2.19,0,0,1,414.4,458Zm.46-7.12c-1.29-3.53-2.83-7-4.26-10.44l.36-.34c1.83,2.5,3.65,5,5.49,7.5a6.85,6.85,0,0,0,1.63,2,3,3,0,0,0,2.35.37c.6-.26,1-1.25,1.21-2a8.82,8.82,0,0,0,0-2.3l.54-.12c.21.76.45,1.52.62,2.28,1.17,5.15,2,10.42,3.59,15.42a49.73,49.73,0,0,0,5.15,10.22c2.2,3.62,6.24,4.47,9.93,5.71.57.18,1.15.3,2,.52l7.38,10.79-.25.32c-.42-.19-.84-.36-1.25-.57-2.59-1.32-5.17-2.68-7.77-4-5.2-2.6-9.24-6.48-12.92-10.93A82.71,82.71,0,0,1,414.86,450.9ZM429,482.56l.59,0,4.52,5.76-7.92,9.16-.42-.35Q427.33,489.84,429,482.56ZM383.86,549q-5.5,6.9-11,13.78a19.73,19.73,0,0,1-2,2.15c-3,2.73-4.78,2.43-7.18-1.6a31.34,31.34,0,0,1,3-4.19c4.87-5,11.11-7.94,17.73-11.07A5,5,0,0,1,383.86,549Zm5.19-7.5c-4.07,3.05-8.71,5.33-13.11,8,5-9.15,11.92-16.14,21.46-20.39C394.76,533.33,393.18,538.43,389.05,541.53Zm12-19.93c-2.43,3.91-6.37,5.67-9.95,8l-.36-.37c2.12-2.9,4.22-5.82,6.36-8.7,1.93-2.6,3.9-5.16,5.88-7.73,3-3.93,4.05-8.69,5.54-13.26.14-.42.25-.84.45-1.57l1.59,1.32C407.61,506.93,405.35,514.68,401.06,521.6Zm12-21.18a3.06,3.06,0,0,1,.61-1q4.85-5.9,9.71-11.77a13.72,13.72,0,0,1,1.13-1.07c-1.28,5.55-2.42,10.53-3.69,16l-11.7,11.25C410.52,509,411.77,504.7,413,500.42Zm69.19-148.34a3.58,3.58,0,0,0,3.35,3.2c1.76.11,3.65-.15,4.4-2,1.74-4.35,3.29-8.78,4.9-13.18.18-.5.28-1,.36-1.32a64.43,64.43,0,0,0,4.41,7.44c2.45,3.16,5.72,2.45,6.74-1.4a18.89,18.89,0,0,0,.51-6.27,74.72,74.72,0,0,0-1.42-7.71c1.78,1.47,3.4,2.91,5.14,4.21s3.59,1.79,5.51.42,1.66-3.34,1.19-5.24A18.23,18.23,0,0,0,510.44,320c-4.37-3.35-8.79-6.64-14.31-7.94a6.38,6.38,0,0,1-1.24-.54q-3.06-12-5.88-22.92l8.36,4.89c.85,3,2.71,4.43,5,3.64a4.3,4.3,0,0,0,2.29-5.63c-1-2.35-3.42-2.9-6.4-1.45-6.89-2.58-12.05-6.87-14.73-14a100.47,100.47,0,0,0-4.59-9.24c-.29-.56-.56-1.13-1.05-2.12l2.11,1.16a33.85,33.85,0,0,0,15.11,4.5,17.27,17.27,0,0,0,6.57-1c2.55-.92,3-3.32,1.43-5.52a11.87,11.87,0,0,0-2.05-2.14A26.82,26.82,0,0,0,489.82,256c-6.31-1.4-12.66-2.63-19.56-4.05l-5.84-7.86c2.79.82,5.16,1.64,7.59,2.2,5.73,1.33,11.41,1.54,16.86-1.27,4.55-2.34,5.08-6.65,1.1-9.82a8.59,8.59,0,0,0-3-1.52,42.74,42.74,0,0,0-24.67.36c-1.76.56-3.48,1.23-5.25,1.87A10.88,10.88,0,0,1,456,235c-10.4-11.27-23-19.22-37.18-24.86a40,40,0,0,0-3.88-1.52,6.78,6.78,0,0,0-2.18.12c-.07.29-.14.57-.2.85,14.51,8.22,29.82,15.31,40.72,28.41-2.84,4.84-5.72,9.52-8.38,14.32a23.75,23.75,0,0,0-3,16.08c.33,1.88,1,3.65,3,4.33a5,5,0,0,0,5.47-1.46,19.29,19.29,0,0,0,3.49-5.23,37.66,37.66,0,0,0,3.35-19.16c-.18-1.58-.2-3.19-.3-4.78l.53-.21,9.86,12.16c-1.73,6.23-3.34,12-4.92,17.71a34.27,34.27,0,0,0-.72,14.18,4.38,4.38,0,0,0,3.06,3.82,4.58,4.58,0,0,0,4.88-1.42,11.19,11.19,0,0,0,1.45-1.88c3-4.59,3.65-9.72,3.36-15.05-.09-1.61-.21-3.22-.31-4.83a122.8,122.8,0,0,1,17,45.76c-1,.35-1.86.58-2.63.91-6.89,2.9-13.85,5.64-20.6,8.83a13.28,13.28,0,0,0-5.09,4.79c-1.9,3,.16,6.05,3.67,5.79a30.61,30.61,0,0,0,5.23-1.1c1.11-.28,2.19-.68,3.79-1.18a28.23,28.23,0,0,0-1.7,2.36,35.07,35.07,0,0,0-3.06,6c-1.15,3.61,1.55,6.16,5.23,5.24,3-.76,5.24-2.74,7.31-4.93l1.5-1.58c-.62,3.2-1.68,6.13-2.36,9.15A15,15,0,0,0,482.23,352.08Zm32.12-18.36c-7.05-3.51-9.91-10.32-14.15-15.89C508,321,516,327.85,514.35,333.72Zm-17.51-14.48a12.85,12.85,0,0,1,1.36,2.22c2,5.37,4.09,10.72,5.81,16.18a9.65,9.65,0,0,1-.77,8.16,9.77,9.77,0,0,1-4.25-5.86,65.26,65.26,0,0,1-1.92-9.48c-.46-3.65-.52-7.34-.76-11Zm-46.12-69.82c-.29,1.43.21,3.32-2.2,3.4Zm-5.24,19-.6,0c-.06-1.27-.12-2.54-.19-4l2.11-.19C446.31,265.76,445.9,267.11,445.48,268.45Zm-.45-7.2c.52-1.77.93-3.22,1.39-4.8H449l-1.13,4.26Zm3.15,8.08,6.48-19.13C455.34,256,451.33,267.5,448.18,269.33Zm36.69-33,4,1.79-.3.8h-6.73Zm-9.62-1,5.77.46-3.12,2.8-5.28-.24Zm-14.71,3.12-.18-.79,9.73-2.16.2.73C467.65,239.81,463.88,238.1,460.54,238.41ZM488,241.88c-3.73,4.48-18,2.72-26-2.08Zm-22.51,44.76c-1.46-2.8-1-6.14.91-7C466.11,282,465.84,284.12,465.51,286.64Zm-.69-8.82c.43-1.83.76-3.21,1.08-4.6l.82.23C467,275,467.24,276.59,464.82,277.82Zm3.27,7.84c.87-7,1.7-13.79,2.54-20.55C471.49,272.14,472.44,279.17,468.09,285.66Zm26.84-22.4,1.92-.81,3.43,2.38c-.08.19-.17.38-.26.57l-5.13-1.63C494.9,263.6,494.92,263.43,494.93,263.26Zm-6.21-4,4.92,1.61-3,1.53L486.23,261ZM478.05,257l7.25,1.46c0,.16.08.32.11.49l-1.43,1-6-2.49C478,257.28,478,257.14,478.05,257Zm-3.74,1.07,24.19,9.77C492.32,269.67,478.9,264.25,474.31,258.07Zm-9.55,71.17a7.71,7.71,0,0,1,1.19-2.11,13.8,13.8,0,0,1,3.44-2.3c6-2.56,12.11-5,18.18-7.46A12.06,12.06,0,0,1,489,317C485.72,322.65,469.93,330.78,464.76,329.24Zm9.56,12.41-1-.6a8.61,8.61,0,0,1,.82-2.6,79.47,79.47,0,0,1,6.28-8.15c2.56-2.74,5.51-5.09,8.3-7.61l.48.5C485.24,330.18,482.34,338.08,474.32,341.65Zm10.32,5.71c2.22-6.94,4.54-13.84,6.83-20.75a4.09,4.09,0,0,1,.44-.69c1.59,5.4-.9,20.08-4.61,27.44-1.94.22-3-.42-3.1-2.29A10.12,10.12,0,0,1,484.64,347.36ZM314.92,508.08c9.25,8.92,20.29,15,32.06,19.87a37.79,37.79,0,0,0,4.06,1.57,5.73,5.73,0,0,0,2.1-.22c0-.27.09-.54.13-.81-14.57-8.14-29.83-15.31-40.74-28.37,2.84-4.82,5.7-9.51,8.38-14.3a23.84,23.84,0,0,0,3-16.06c-.33-1.87-1-3.65-3-4.35a5.1,5.1,0,0,0-5.47,1.41,15.46,15.46,0,0,0-3.09,4.32c-2.92,6.42-4.52,13.13-3.75,20.26.17,1.58.2,3.18.3,4.77l-.48.18-10-12.29c1.63-5.82,3.09-11.11,4.6-16.39a36.4,36.4,0,0,0,1.17-14.93c-.29-2.24-1.25-4-3.57-4.48s-3.85.6-5.13,2.28a17.65,17.65,0,0,0-3.82,9.66c-.23,3.82-.05,7.65-.05,11.48a124.66,124.66,0,0,1-17-46c1.28-.39,2.33-.6,3.29-1,6.81-2.89,13.64-5.75,20.38-8.8a9.38,9.38,0,0,0,5-5.16c1.06-2.74-.56-5.3-3.49-5.18a31.64,31.64,0,0,0-5.81,1.1c-1.16.27-2.28.72-3.89,1.24a36.41,36.41,0,0,0,2.19-3,52.29,52.29,0,0,0,2.65-5.09,4.07,4.07,0,0,0-.74-4.63,3.69,3.69,0,0,0-4.57-.84,63.66,63.66,0,0,0-6.72,4.41,15.56,15.56,0,0,0-2.07,2.14c.6-2.88,1.57-5.56,2.25-8.31a20.41,20.41,0,0,0,.63-5.66,4.22,4.22,0,0,0-3.48-4,4.32,4.32,0,0,0-4.87,2.87c-1.84,4.62-3.58,9.28-5.26,13.67a8,8,0,0,0-.6-1.59,38.28,38.28,0,0,0-3.78-6.23c-2.25-2.63-5.26-2-6.2,1.36a20.65,20.65,0,0,0-.64,6.83,61.24,61.24,0,0,0,1.47,7.69,59,59,0,0,0-5.24-4.27,6.58,6.58,0,0,0-3.85-1.1c-2.62.24-3.66,2.46-2.88,5.66a18.3,18.3,0,0,0,6.94,10.37c4.37,3.33,8.77,6.66,14.31,7.91a5.34,5.34,0,0,1,1.23.55c2.07,8.05,4.06,15.76,5.93,23l-8.44-5c-.71-2.89-2.6-4.39-4.94-3.65a4.3,4.3,0,0,0-2.33,5.6c1,2.36,3.44,2.92,6.41,1.46,6.86,2.58,12.13,6.81,14.69,14a42.7,42.7,0,0,0,2.31,4.83c1.07,2.1,2.19,4.18,3.52,6.71-1-.56-1.55-.88-2.11-1.18-6-3.21-12.29-5.25-19.21-4.49-2,.22-4,.86-4.75,3s.78,3.77,2.31,5.1a26.9,26.9,0,0,0,10.73,5.84c6.58,1.77,13.17,3.52,20,3.57l6.24,8.37c-3.82-.89-7.57-1.95-11.39-2.6a19.94,19.94,0,0,0-13.63,2.31c-3.46,2-4.13,5.71-1.34,8.44a10.47,10.47,0,0,0,4.35,2.56,40.42,40.42,0,0,0,20.43.53c3.12-.75,6.17-1.82,9.47-2.81C311,504.12,312.92,506.16,314.92,508.08ZM300.27,451.9h.67v5.91l-1.59,1.09C299.69,456.28,300,454.09,300.27,451.9Zm.54,8.53c-.11,1.77-.13,3.32-1.49,4.43C299,463.15,298.48,461.37,300.81,460.43Zm-49.75-55.72a6.87,6.87,0,0,1,2.25.65,22.1,22.1,0,0,1,4.16,3.65c2.67,3.37,5.13,6.9,7.66,10.38a10.38,10.38,0,0,1,.67,1.31C257,416.46,250.72,410.91,251.06,404.71Zm17.69,14.39a83,83,0,0,1-3.55-7.9,134.4,134.4,0,0,1-3.72-13.33c-.36-1.66.3-3.53.49-5.31l.88-.22c.81.87,2,1.62,2.37,2.65a48.47,48.47,0,0,1,3,9.35c.8,4.79,1,9.68,1.47,14.52Zm31.69-10.83.55.52a6.73,6.73,0,0,1-.84,1.95,7.14,7.14,0,0,1-2.3,1.84c-7,3.05-14,6-21.06,9-.1-.2-.2-.41-.29-.62A41.25,41.25,0,0,1,300.44,408.27ZM292.57,397a9.14,9.14,0,0,1-.87,2.69,81.9,81.9,0,0,1-6.39,8.29c-2.55,2.74-5.51,5.09-8.69,8C279.07,406.94,287.66,396.65,292.57,397Zm-14.12-12.26c1.6-.53,2.6.24,3.06,1.77a4.32,4.32,0,0,1,.13,2.33c-2.49,7.92-5.06,15.82-7.79,24.28C272.38,402.75,275.29,393.76,278.45,384.71Zm-7.55,90.15-1.93.86-3.63-2.5.25-.57,5.34,1.72Zm6.15,4.07-4.68-1.48c2.35-2.35,4.57-1.3,7.22-.17Zm10.52,2.27L280,479.55l1.81-1.37,6,2.49Zm-20.38-10.91c9.67-.42,17.84,2.82,24.9,10Zm28,3c-1.57-5.79-1.12-17.77,2.49-20.45C296.87,459.6,296,466.53,295.19,473.33Zm8.76,25-26.42-2C281.64,491.65,296.34,493.68,304,498.34Zm-22.71,3.77-4.49-2.23c.08-.22.17-.43.25-.65h6.91Zm9.26.79-5.74-.46,3.1-2.84,5.39.26Zm4.92-.14c2.47-4.61,6.56-2.52,10-3.09.07.28.13.57.2.86Zm19.77-14.12-.43-.15,1-3.29,1.93-.41Zm5.19-19.14.54.07v4.15l-2,.42C319.47,472.37,319.93,470.94,320.38,469.5Zm.44,7.46c-.53,1.76-1,3.22-1.44,4.76h-2.64c.41-1.51.77-2.87,1.18-4.37Zm-3.11-8.3-6.5,19.21C310.22,482.86,314.47,470.6,317.71,468.66ZM194.54,671.71V418.87l-4.08,3.06V675.28c12.53,2.3,20.94,8.45,21.8,22.17a14.3,14.3,0,0,0,1.51.15c38.74,0,77.49-.08,116.24.06,3.66,0,5.59-1.93,8.17-4.35H216C213.26,681.61,206.8,673.93,194.54,671.71Zm385.7,3.83V421.92l-4.3-3.18v253c-12.22,2.28-18.55,10-21.26,21.59H432.53c2.62,2.6,4.79,4.64,8.58,4.31,4.54-.39,9.13-.09,13.7-.09l101.94,0c.58,0,1.15-.09,2-.16-.74-6.23,1.94-11,6.12-15.12A23.3,23.3,0,0,1,580.24,675.54Zm-3.34-599V319.45l4.08-3.06V73c-12.48-2.3-20.84-8.41-21.77-22.19-.54,0-1.05-.12-1.57-.12-38.82,0-77.63.08-116.45-.07-3.63,0-5.34,2.13-7.44,4.4H555.47C558.24,66.57,564.61,74.26,576.9,76.52ZM191.24,316.4l4.19,3V76.5c12.29-2.24,18.66-10,21.37-21.58h122c-2.5-3.17-5.23-4.65-9.1-4.33-4.27.35-8.6.08-12.9.08l-102.15,0c-.56,0-1.13.11-1.57.15-.93,13.84-9.4,19.92-21.81,22.17ZM414.92,76.22h-59.4V126h59.4Zm-4.1,45.41H359.71V80.52h51.11ZM346.64,656.44c.62-3.05,1.1-6.13,1.84-9.15,1.79-7.33,3.72-14.63,5.53-21.95a19,19,0,0,0,.26-3.21l-3.12-1.24a11.24,11.24,0,0,0-1.37,2.1,55.07,55.07,0,0,0-2.06,6.21c-1.65,6.68-3.17,13.4-4.76,20.1a12.45,12.45,0,0,1-.51,1.31c-2.48-3.52-3-7.45-4.09-11.17-.4-1.36-.44-3.17-2.33-3.28s-2.18,1.7-2.7,3c-1.21,3-2.29,6-3.54,9.35-1.61-7.36-3.08-14.28-4.66-21.18a21.83,21.83,0,0,0-1.76-4.83,2.25,2.25,0,0,0-1.9-1A2.29,2.29,0,0,0,320,623.1a13.75,13.75,0,0,0,0,4.15q1.68,10.18,3.52,20.35c.54,3,1.26,6,1.94,8.93a2.88,2.88,0,0,0,2.74,2.46c1.55.12,2.27-.84,2.73-2.12s.95-2.61,1.43-3.92c.92-2.5,1.83-5,2.81-7.68,1.73,4,3.37,7.77,4.92,11.54.73,1.77,1.94,3,3.84,2.88S346.33,658,346.64,656.44ZM397.79,625c0-1.38-.43-2.79-2.15-2.82s-2.18,1.31-2.26,2.72c-.18,2.84-.35,5.69-.39,8.53-.06,5.13,0,10.27,0,15.4l-.34.08c-.25-.57-.52-1.13-.75-1.7-2.51-6.2-5-12.4-7.54-18.58-1-2.38-2.05-4.72-3.22-7a2.1,2.1,0,0,0-1.63-1.06,2.3,2.3,0,0,0-1.57,1.42,41.66,41.66,0,0,0-.34,6.51c.2,7.47.5,15,.75,22.42.06,1.72.05,3.45.09,5.17a14,14,0,0,0,.09,1.58c.22,1.41.94,2.39,2.48,2.31a2.25,2.25,0,0,0,2.24-2.53c-.05-3.71-.23-7.41-.31-11.12-.05-2.53,0-5.07,0-8.07.41,1.07.66,1.72.92,2.38,1.78,4.56,3.51,9.14,5.36,13.67a18.67,18.67,0,0,0,2.18,3.77c1.15,1.59,3,1.32,4.56,1.13s2-1.66,2-3c.11-2.05.17-4.1.15-6.15Q398,637.54,397.79,625Zm8.76,2.69c0,.63,0,1.07,0,1.52-.13,9.06-.3,18.12-.38,27.18,0,3.69,3,5.59,6.22,3.76a39.33,39.33,0,0,0,7.13-5c8.84-8,7.84-23.65-1.13-29.7-4.94-3.34-10-3.32-15.28-1.18-.68.28-1,1.49-1.44,2.27a12.28,12.28,0,0,0,2.4,1.21A9.61,9.61,0,0,0,406.55,627.72Zm4.71-.08c3.93.64,6.26,3.11,7.74,6.31a16.12,16.12,0,0,1-7,20.9,4.36,4.36,0,0,1-.77.22Zm-118.11-56.2a58.62,58.62,0,0,1,5.88-1.77c.83-.24,1.69-.38,2.54-.57a3.76,3.76,0,0,0-1.49-.68c-3.34-1.2-6.73-2.28-10-3.71a5.64,5.64,0,0,1-3.07-4.62c-.5-3.47-1-6.94-1.6-10.4-.37-2.32-.79-4.63-1.19-6.94l-.37,0c-.11.43-.26.85-.33,1.29-.85,5.23-1.77,10.45-2.5,15.69a6.14,6.14,0,0,1-3.13,5,71.45,71.45,0,0,1-7.85,3.22,27.11,27.11,0,0,1-3.7.82,3,3,0,0,0,1.38.62c3.3,1.14,6.65,2.14,9.84,3.51a5.69,5.69,0,0,1,3.37,4.63c.38,2.69.81,5.37,1.24,8.05.51,3.15,1.05,6.29,1.58,9.44a2.92,2.92,0,0,0,.81-1.68c.76-4.64,1.77-9.25,2.18-13.92C287.13,575.15,289.54,572.87,293.15,571.44ZM462.42,172.86c.73,5.5,1.73,11,2.62,16.43h.44a8.76,8.76,0,0,0,.33-1.07c.8-4.89,1.82-9.77,2.31-14.69.38-3.83,2.38-6,5.63-7.44a54.71,54.71,0,0,1,5.63-1.89c1.11-.33,2.28-.5,3.43-.74a5.81,5.81,0,0,0-2-.83c-3.08-1.12-6.23-2.11-9.21-3.46a5.87,5.87,0,0,1-3.25-4.73q-1.21-7.83-2.47-15.67c-.09-.54-.25-1.07-.38-1.61a130.4,130.4,0,0,0-3,16,8.16,8.16,0,0,1-5.42,7.16c-2.37,1-4.89,1.57-7.35,2.31-.65.2-1.34.31-2,.46a6.8,6.8,0,0,0,2.1.79c2.86,1,5.8,1.8,8.55,3C460.82,168,462.06,170.09,462.42,172.86ZM373.63,654.1c-2.46-10.15-4.94-20.3-7.51-30.43-.22-.86-1.22-1.52-1.86-2.27-.76.71-1.9,1.29-2.21,2.16-1.21,3.43-2.23,6.92-3.19,10.43s-1.8,7.15-2.65,10.56c-1.74.76-4.16.32-4.13,2.69,0,.9,1.43,1.77,2.2,2.65l.57-.16c-.07.32-.12.64-.2.95a34.71,34.71,0,0,0-1.28,5.59,3,3,0,0,0,1.56,2.49c.7.21,1.88-.69,2.64-1.34.42-.36.43-1.21.62-1.85.61-2.07,1.23-4.14,1.85-6.24h8c.15.68.24,1.26.4,1.82.69,2.39,1.27,4.83,2.17,7.15.25.64,1.48.91,2.26,1.35a7,7,0,0,0,1.11-2.23A9.9,9.9,0,0,0,373.63,654.1Zm-12.29-10,2.53-12.39.47-.08c.91,4,1.82,7.92,2.78,12.13Zm74.78,11.66c-2.62.3-4.13-1-4.48-4-.25-2-1.38-3.2-2.95-3.05s-2.57,1.64-2.33,3.74c.57,4.91,3.87,7.76,9.1,7.86a9.9,9.9,0,0,0,10.16-10.13,14,14,0,0,0-5.82-11.42,19.17,19.17,0,0,1-6.14-7.17c-.72-1.57-.14-2.83.86-4s2.19-1,3.43-.43a7.19,7.19,0,0,1,4.14,3.78c.25.6,1.22.91,1.86,1.36.36-.76,1.08-1.55,1-2.26-.27-2.86-2.28-4.52-4.58-5.85-3.39-1.95-6-1.79-8.61.47a8.44,8.44,0,0,0-2.53,9.16A19,19,0,0,0,436,643a10.26,10.26,0,0,1,4.61,7.55A4.7,4.7,0,0,1,436.12,655.81ZM344,49.72a13.37,13.37,0,0,0,4.29,1.41c2.45.41,4.94.58,7.55.87a14.74,14.74,0,0,0-1.39,3.46c-.15,1.12-.09,2.74.59,3.36a3.8,3.8,0,0,0,3.41.35A14.86,14.86,0,0,0,367,49.8c1.76-5.57-2.76-12.38-6.77-15.45-1.24-1-2.65-1.71-4.18-.69s-1.47,2.76-1,4.3a53.38,53.38,0,0,0,2.08,5,24,24,0,0,0-3.51,0,88.46,88.46,0,0,0-9.29,1.77,3.5,3.5,0,0,0-2.06,2.48C342.15,48,343.16,49.23,344,49.72Zm13.27,7.2-.6-.45,2.88-4.91,4.5-.91C362.16,53.61,360.28,55.9,357.27,56.92Zm.8-20.26c2.63,1.79,4.34,4.32,6,7.53l-3.82-.92c-.88-2.06-1.8-4.18-2.71-6.3Zm6.35,10.54c-4.09,2-15.67,1.86-18.78-.2C348.64,45.1,360.69,45.18,364.42,47.2Zm60.93,650.43c-3.16-.62-6.36-1-9.69-1.54.44-1,.91-1.93,1.28-2.91.49-1.33.86-2.73-.4-3.86s-2.77-.79-4.09-.09a15.27,15.27,0,0,0-7.54,8.1,11.94,11.94,0,0,0-.66,4.45c.16,4.6,2.83,8,5.85,11.12,2,2.12,4.06,2.62,5.43,1.66s1.58-3,.48-5.68c-.48-1.17-1.07-2.29-1.48-3.17,3.73-.5,7.34-.85,10.89-1.53,1.75-.34,4-.83,3.88-3.25C429.2,698.71,427.18,698,425.35,697.63Zm-10.83-6.48c-1,4.38-2.49,6.19-6.89,6.23A13,13,0,0,1,414.52,691.15Zm-1.14,20.42c-2.62-1.78-4.33-4.31-5.93-7.48,1.25.28,2,.44,2.78.62.25,0,.5.15,1,.32l2.71,6.22Zm-6.55-10.76a38.44,38.44,0,0,1,19.38.06C423.19,703.17,410.32,703.08,406.83,700.81ZM172.71,340.54a41,41,0,0,0,6.77,5.38c8.07,4.79,15.77-1.67,18-7.6a3.71,3.71,0,0,0-.61-3.2c-.56-.61-2-.67-3-.49a19.56,19.56,0,0,0-3.78,1.49A20.7,20.7,0,0,0,190,334c-.46-2.93-.84-5.88-1.5-8.76-.34-1.47-1.24-2.92-3.06-2.92s-2.49,1.49-2.81,2.9c-.61,2.69-1,5.43-1.41,8.16a30.14,30.14,0,0,0,0,3.93c-1.77-.77-3.23-1.56-4.78-2.05s-3.37-.76-4.49.93S171.55,339.47,172.71,340.54Zm22.57-3.31a13.45,13.45,0,0,1-6.08,6.84C189,340.16,190.53,338.23,195.28,337.23Zm-10.13-11.35a29.81,29.81,0,0,1,.25,18.65C183.26,338.35,183.68,332.13,185.15,325.88Zm-3.66,14.6c.29,1.22.53,2.29.79,3.41-2.65-.66-6.17-3.46-7-6.14ZM357,688.75c-2.45-.59-4.12,1-3.51,3.43a36.94,36.94,0,0,0,1.59,4.15,18.77,18.77,0,0,0-2,.16,87.49,87.49,0,0,0-9.29,1.77,3.8,3.8,0,0,0-2.26,2.78c0,.9,1.36,2.3,2.39,2.61a58,58,0,0,0,8.32,1.61,27.3,27.3,0,0,0,4.05,0c-.77,1.93-1.57,3.59-2.09,5.34-.43,1.42-.41,3,1,3.93a3,3,0,0,0,4-.59,42,42,0,0,0,6.06-7.7C368.73,699.86,364.13,690.47,357,688.75Zm.32,22.8-.56-.29c.91-2.12,1.83-4.24,2.72-6.3l3.74-.89A17.42,17.42,0,0,1,357.28,711.55Zm-12.44-10.3a30.19,30.19,0,0,1,18.68-.2C357.33,703.13,351.1,702.89,344.84,701.25Zm14-4.55-2.94-5,.61-.44c3,1.05,4.91,3.29,6.73,6.26ZM181.15,397c.56,3.77,1,7.55,1.81,11.27a3.24,3.24,0,0,0,2.33,2,3.33,3.33,0,0,0,2.56-1.66,25.55,25.55,0,0,0,1.71-5.85c.37-2,.41-4,.6-6.17,1,.47,1.79.92,2.64,1.23,1.49.54,3.09,1.22,4.39-.32s.56-3-.18-4.44c-2.76-5.35-7.91-8.55-13.74-7.6a16,16,0,0,0-11.42,8.13c-1.25,2.17.14,4.22,2.64,4.11a11.78,11.78,0,0,0,3.43-.83,35.23,35.23,0,0,0,3.22-1.55A13.09,13.09,0,0,0,181.15,397Zm8-8.34a13.28,13.28,0,0,1,6,6.52l-.48.64L189.8,393c-.32-1.51-.57-2.66-.81-3.83C189,389,189.07,388.91,189.17,388.67Zm-3.81-.44a30,30,0,0,1-.14,18.65A32.37,32.37,0,0,1,185.36,388.23ZM175.27,395l-.62-.91,7-5.63.57.4c-.22,1-.45,2-.74,3.37ZM479.44,640.27c.17-1.46-1.33-2.88-4-3.45-3.14-.67-6.35-1-9.68-1.54.44-1,.93-1.92,1.29-2.9.48-1.33.87-2.72-.39-3.86s-2.75-.81-4.07-.12a15.21,15.21,0,0,0-7.54,8.07,11.84,11.84,0,0,0-.66,4.62c.23,4.82,3.1,8.29,6.34,11.47a6.83,6.83,0,0,0,2.36,1.42c1.95.73,3.81-.45,3.65-2.52a24,24,0,0,0-1.4-5.08,8.45,8.45,0,0,0-.77-1.49c3.68-.49,7.28-.83,10.82-1.49C477.11,643.08,479.16,642.63,479.44,640.27Zm-14.95-9.84c-.72,4.19-2.6,6.26-6.8,6.06C459.37,633.8,461.28,631.53,464.49,630.43Zm-6.72,12.89,3.52.79c.9,2.07,1.83,4.19,2.91,6.68C461.6,649.77,458.87,646.47,457.77,643.32Zm-.53-3.09a30.22,30.22,0,0,1,18.69.21C469.67,642.07,463.43,642.32,457.24,640.23Zm131-314.49c-.31-1.58-.93-3.43-3-3.36s-2.64,1.77-3.17,3.35a17.9,17.9,0,0,0-.83,3.47c-.29,2.22-.45,4.45-.69,6.92-1.17-.51-2.17-1-3.2-1.38-1.35-.51-3-.92-3.74.54a5,5,0,0,0-.09,3.84,14.45,14.45,0,0,0,8.14,7.7,11.53,11.53,0,0,0,4.45.63c4.59-.18,8-2.85,11.09-5.87,2.11-2.05,2.59-4.07,1.62-5.42s-3-1.56-5.67-.46c-1.17.48-2.29,1.07-3.1,1.45C589.42,333.26,589,329.47,588.24,325.74Zm-12.73,11.79.4-.62,5,2.82c.31,1.56.57,2.83.93,4.59C578.83,342.39,576.59,340.48,575.51,337.53ZM585,344.9a37.88,37.88,0,0,1,.09-19.35C587.38,328.45,587.31,341.33,585,344.9Zm10.45-7.16.31.57c-1.79,2.63-4.3,4.36-7.48,5.94.33-1.46.57-2.52.86-3.78ZM414.17,59.3a3.69,3.69,0,0,0,3.2-.6c.62-.55.67-2.05.5-3.05A18.16,18.16,0,0,0,416.44,52c2.79-.34,5.5-.52,8.13-1a12.65,12.65,0,0,0,4.52-1.86c1.67-1.13,1.47-3-.28-4a10.12,10.12,0,0,0-3.33-1.25c-3.36-.51-6.76-.84-10.15-1.25.61-1.46,1.42-3.05,1.94-4.72.46-1.48.57-3.1-.93-4.16a3.08,3.08,0,0,0-4.16.63A39.33,39.33,0,0,0,406.69,41C401.72,49.25,408.15,57,414.17,59.3Zm.76-22.71c-1.1,2.52-2,4.64-2.91,6.7l-3.3.76C409,41.67,412.1,37.77,414.93,36.59Zm12.23,10.7a38.63,38.63,0,0,1-19.36.22C410.41,45.24,423.27,45,427.16,47.29Zm-11.83,9.77c-3.32-1.16-5.2-3.42-6.89-6C412.09,50.73,414.1,52,415.33,57.06Zm182.83,335.4a41.72,41.72,0,0,0-7-5.67c-8.08-4.77-15.79,1.76-18,7.68a3.46,3.46,0,0,0,.53,3,3.86,3.86,0,0,0,3,.64,19,19,0,0,0,3.76-1.45c.33,2.79.51,5.5,1,8.14a12.63,12.63,0,0,0,1.86,4.5c1.13,1.66,3,1.45,4-.3a10.06,10.06,0,0,0,1.25-3.32c.51-3.37.84-6.76,1.24-10.13,1.5.61,3.15,1.43,4.88,2,1.49.45,3.11.47,4.09-1.09A3.06,3.06,0,0,0,598.16,392.46Zm-22.56,3c.68-2.67,2.66-4.89,5.87-6.7C581.72,392.51,580.25,394.45,575.6,395.48Zm9.59,11.83A37.9,37.9,0,0,1,585,388C587.26,390.88,587.44,403.7,585.19,407.31ZM595.43,395l-6.24-2.71c-.28-1.21-.54-2.27-.79-3.34l.48-.49L596,394ZM299.13,653a3,3,0,0,0,4-.59,40.75,40.75,0,0,0,5.53-6.66c5-8.12-1.11-15.79-7.28-18.35a3.65,3.65,0,0,0-3.23.47c-.65.62-.75,2.15-.59,3.21a15.51,15.51,0,0,0,1.32,3.41c-3.47.58-6.87,1-10.22,1.76-1.62.34-3.31,1.17-3.37,3.15s1.82,2.51,3.36,3.09a6.21,6.21,0,0,0,1.34.38c3.33.41,6.67.8,10.06,1.2-.64,1.57-1.44,3.24-2,5C297.67,650.44,297.68,652,299.13,653Zm2.14-3-.6-.39c.92-2.07,1.83-4.15,2.74-6.21l3.75-.85A18.34,18.34,0,0,1,301.27,649.94Zm-.82-20.25c3,1.08,4.92,3.29,6.7,6.28l-4.41-.89-2.91-5Zm-11.66,10c2.67-2.17,15-2.37,18.67-.3C304.42,641.38,292.37,641.58,288.79,639.72Zm297,57.86c-1.92-2.5-4-4.87-6-7.29,1.52-.64,3.27-1.26,4.9-2.11,1.4-.73,2.49-1.88,2.09-3.67a3,3,0,0,0-3.3-2.32,43.22,43.22,0,0,0-9,1.07c-9,2.38-9.81,12.4-7.12,18.24,1.15,2.5,3.69,2.54,5.07.16a34.67,34.67,0,0,0,1.67-4c2,1.59,3.91,3.32,6,4.73a14.26,14.26,0,0,0,4.83,2.11c2.2.46,3.44-1.12,2.71-3.26A13.23,13.23,0,0,0,585.79,697.58Zm-1.9-11.93-6.95,2.87-3-1.94A13.6,13.6,0,0,1,583.89,685.65Zm-14.15,15c-1.65-3.09-1.3-6.12-.73-9.47C572.51,694.81,571.87,697,569.74,700.6Zm1.54-12.17c3.58.54,12.89,9.42,13.61,13C581,700.49,572.58,692.47,571.28,688.43ZM187.33,52.9a62,62,0,0,0,4.55,5c-1.7.73-3.44,1.35-5.07,2.2-1.4.73-2.48,1.88-2.07,3.67a3,3,0,0,0,3.31,2.3A43.22,43.22,0,0,0,197,65c8.93-2.37,9.8-12.41,7.1-18.25-1.15-2.49-3.69-2.51-5.07-.13a32.63,32.63,0,0,0-1.66,3.95c-2-1.59-3.92-3.32-6-4.73a14.48,14.48,0,0,0-4.83-2.12c-2.19-.45-3.56,1.22-2.68,3.26A29.68,29.68,0,0,0,187.33,52.9Zm1,10.57c-.1-.35-.19-.7-.29-1l6.44-2.69,3,1.86,0,.64Zm13.45-15.85c1.54,3.16,1.29,6.17.67,9.28C199.41,54,199.14,51,201.78,47.62Zm-1.61,12.63c-6-3.25-10.3-7.82-14.19-13.47C190.3,47.49,199.33,56.16,200.17,60.25ZM570.06,62c4.07,3.59,9,4.51,14.2,4,1.47-.13,2.92-.66,3.27-2.39s-.73-2.92-2.13-3.64c-1.63-.84-3.37-1.46-5.15-2.21a9.68,9.68,0,0,0,1.09-1c2.23-2.85,4.52-5.66,6.62-8.59.8-1.13,1.39-2.89,0-3.77a5.86,5.86,0,0,0-4-.28,9.79,9.79,0,0,0-3.45,1.9c-1.9,1.4-3.71,2.94-5.7,4.54a16.86,16.86,0,0,0-1.49-3.68C572.74,46,571.54,45,570.7,45a4,4,0,0,0-2.7,2.11,14.51,14.51,0,0,0,.37,12.46A7.93,7.93,0,0,0,570.06,62Zm14.4.41c-2.17,1.19-5.76.89-9.94-.64l3.2-2.07Zm1.27-15.6a32.29,32.29,0,0,1-13.58,13A29.87,29.87,0,0,1,585.73,46.84Zm-15.34.95c2.55,2.26,2.39,5.51-.53,9.32C569.17,53.78,569,50.77,570.39,47.79ZM201.31,686.14c-3.83-3.53-8.62-4.33-13.63-4-1.61.1-3.28.49-3.72,2.37-.49,2.09,1,3.2,2.55,4s3.09,1.27,4.46,1.81a33.42,33.42,0,0,0-2.75,3.08,64.72,64.72,0,0,0-5.08,7.73c-1.13,2.2.28,3.82,2.75,3.46a7.08,7.08,0,0,0,2.94-1.06c2.66-1.81,5.23-3.77,7.88-5.7a29.58,29.58,0,0,0,1,2.8c.63,1.39,1.31,2.88,3.21,2.74s2.59-1.57,2.95-3.06a23.56,23.56,0,0,0,.76-5.46C204.6,691.54,203.77,688.4,201.31,686.14Zm-14.08-.21c1.53-1.39,5.56-1.1,9.7.55l-3.18,2Zm-2,15.58A39.44,39.44,0,0,1,199.32,688C198.72,691.85,189.72,700.57,185.24,701.51Zm15.77-1c-2.09-2.82-3-5.86.6-9.3C202.33,694.44,202.5,697.47,201,700.53Zm177.34-643a2.71,2.71,0,0,0,2.31.37c.42-.16.73-1.32.66-2-.37-3.41,1.13-5.92,4.57-7.26,3.79,1.1,5.44,3.62,5.05,7.28a2.4,2.4,0,0,0,.7,2c.51.3,1.47,0,2.14-.27a4.22,4.22,0,0,0,1.29-1.21A11.45,11.45,0,0,0,383.89,38a11.53,11.53,0,0,0-9.21,9.94A10.61,10.61,0,0,0,378.35,57.48ZM381.52,43c3-2.2,6.19-2.14,9.33.17a6.64,6.64,0,0,1,2.56,7.8c-3.92-7.58-10.66-7.3-14.56,0A6.89,6.89,0,0,1,381.52,43ZM393.28,690.9a3.12,3.12,0,0,0-2.45-.51c-.4.11-.71,1.42-.63,2.14.37,3.38-1.43,6-5.1,7.11-3.53-1.36-4.86-3.67-4.52-7.44a2.27,2.27,0,0,0-.72-1.83,2.06,2.06,0,0,0-2,.15A13.15,13.15,0,0,0,375,694a11.27,11.27,0,0,0,6.15,15.71,11.44,11.44,0,0,0,15.15-7.19C397.65,698.39,396.4,693.38,393.28,690.9Zm-3,14.05c-3.16,2.41-6.35,2.56-9.33.45a7,7,0,0,1-2.87-8.08c4.38,7.83,11,7,14.57,0A6.53,6.53,0,0,1,390.23,705ZM576.49,371.1c-1.59-.19-2.58.79-2.07,2.15a4.79,4.79,0,0,0,1.16,1.58,11.23,11.23,0,0,0,12.34,2.08c4.12-1.85,7.22-6.64,7-10.73a12.07,12.07,0,0,0-8.08-10.79c-4.17-1.37-9.32-.06-11.75,3.12a2.7,2.7,0,0,0-.48,2.28c.23.49,1.41.81,2.12.73a6.46,6.46,0,0,1,7.14,4.63C582.87,369.87,580.35,371.57,576.49,371.1Zm5.07-11.88c2.11-1.19,5.23-.43,7.32,1.79a7.33,7.33,0,0,1,.77,9.62c-2,3-5.11,4.15-8.14,3C590,369.26,587.85,362.14,581.56,359.22Zm-387.29,2.39a2.21,2.21,0,0,0,1.82-.73,2.6,2.6,0,0,0-.16-2,4.36,4.36,0,0,0-1.33-1.45,10.89,10.89,0,0,0-11.92-1.55,11.12,11.12,0,0,0-6.8,10.59c0,4.82,2.56,8.41,7,10.45s9.93.83,12.7-2.63a3.15,3.15,0,0,0,.51-2.45c-.12-.39-1.43-.69-2.16-.61-3.37.36-6-1.45-7.09-5.12C188.19,362.59,190.47,361.29,194.27,361.61Zm-4.94,12a6.9,6.9,0,0,1-8.36-3.08,7.29,7.29,0,0,1,.48-9.17,6.74,6.74,0,0,1,7.71-2.24C181.6,363.05,181.86,370.05,189.33,373.63Zm326.6,121.19a79.53,79.53,0,0,0,1.37,8.73h.54c.52-3.18,1.2-6.35,1.5-9.56a5.91,5.91,0,0,1,4.22-5.41c1.64-.62,3.34-1.09,5.2-1.69-2-.62-3.73-1.08-5.42-1.75a5.69,5.69,0,0,1-4-5.15c-.32-3.24-1-6.45-1.53-9.67a4.13,4.13,0,0,0-1,2.18c-.43,2.54-1,5.07-1.21,7.63-.21,2.94-2,4.32-4.4,5.23-1.55.58-3.16,1-5.27,1.61,1.42.34,2.31.54,3.19.77C512.89,488.71,515.72,490.34,515.93,494.82ZM259,269.11a17.37,17.37,0,0,0,.4,2.75c.38,2.17.78,4.34,1.16,6.51l.5,0c.51-3.11,1.23-6.21,1.47-9.33s2-4.77,4.66-5.74c1.49-.53,3-.95,4.71-1.48-2.1-.72-4-1.25-5.8-2a5.42,5.42,0,0,1-3.5-4.85c-.34-3.27-1-6.51-1.53-9.77l-.51-.05c-.57,3.29-1.31,6.57-1.65,9.89a5.62,5.62,0,0,1-4.06,5c-1.68.63-3.42,1.11-5.35,1.74,1.57.46,2.9.83,4.22,1.24C256.76,264,259,265.58,259,269.11Zm178.17,297c1.2-3.27.1-7.72,5.72-8.15-5.56-.56-4.53-5-5.6-8.81-1.2,3.63,0,8.26-5.47,8.79,3.82.44,4.63,2.93,4.84,5.94A13.55,13.55,0,0,0,437.21,566.11Zm.44-202.8c-1.07,3.22-.17,7.68-5.6,8.27,5.67.31,4.35,5,5.7,8.67.92-3.83,0-8.18,5.37-8.73C437.7,370.93,438.73,366.56,437.65,363.31Zm71.47-146.54a21.39,21.39,0,0,0,.54,2.44c1.2-3.64,0-8.16,5.53-8.63-5.48-.52-4.33-5.07-5.57-8.74-1.06,3.7,0,8.21-5.49,8.72C508.22,211,508.87,213.69,509.12,216.77Zm-264,294.73c-.75-1.33-.62-3.15-.88-4.76-1.8,5.84-1.8,5.84-5.63,8.06,5.19.3,4.33,4.54,5.39,7.65,1.06-3.09.07-7.38,4.81-7.61C247.44,513.7,245.82,512.85,245.07,511.5Zm-62.36-76.92c-1.46,0-2,1-2,2.35a2,2,0,0,0,2.16,2.27,1.83,1.83,0,0,0,2-2.1C184.8,435.7,184.23,434.61,182.71,434.58Zm405.25,0c-1.52,0-2.11,1.11-2.17,2.52s.83,2.25,2,2c.92-.16,1.69-1.12,2.53-1.73C590,435.56,589.43,434.55,588,434.58ZM184,425.23c-.51-.44-2.08-.54-2.39-.16a3.51,3.51,0,0,0-.63,2.76c.43,1.56,1.82,1.41,3.22,1A2.49,2.49,0,0,0,184,425.23ZM587.58,313.16c.66.47,1.91.09,2.9.09.44-3.65-.47-4.48-3.33-3.69A2.4,2.4,0,0,0,587.58,313.16Zm-402.8-.06a2.51,2.51,0,0,0,.27-3.64c-1.39-.39-2.78-.58-3.24,1a3.54,3.54,0,0,0,.57,2.78A2.49,2.49,0,0,0,184.78,313.1ZM589.49,424.9c-.88.07-2.13-.22-2.77.28-1.18.93-1.32,2.35-.21,3.72C589.52,429.31,590.34,428.35,589.49,424.9ZM184.76,446.57a2,2,0,0,0-4,0c-.47,1.45.49,2.3,2,2.64C184.31,448.89,185.23,448,184.76,446.57ZM588,445a2.71,2.71,0,0,0-2.1,1.48c-.51,1.5.38,2.47,1.93,2.79,1.44-.25,2.44-1.05,2.06-2.52A2.77,2.77,0,0,0,588,445ZM438.63,702.64a2,2,0,0,0-2,2.42c.13.79,1.05,1.46,1.35,1.84,2.14,0,2.72-.91,2.72-2.15A1.89,1.89,0,0,0,438.63,702.64Zm-106.72,0a1.9,1.9,0,0,0-2,2.23c.06,1.26.75,2.26,2.14,2a7.19,7.19,0,0,0,2.12-1.27C333.93,703.65,333.42,702.61,331.91,702.65Zm1-657.06a2,2,0,0,0,1.92-2.47c-.15-.79-1.09-1.43-1.41-1.82-2.14.08-2.7,1-2.66,2.25A1.89,1.89,0,0,0,332.9,45.59Zm106.46-.09c1.26.41,2.1-.64,2.15-1.92S441,41.4,439.13,41c-.59.76-1.71,1.57-1.64,2.27A3.19,3.19,0,0,0,439.36,45.5Zm-216.65.35.9,0c.52-.78,1.39-1.52,1.49-2.36A1.79,1.79,0,0,0,223,41.4c-1.35.07-2.2,1-1.94,2.21C221.24,44.43,222.14,45.11,222.71,45.85Zm10,656.56-.9,0c-.56.75-1.45,1.44-1.6,2.27-.23,1.27.64,2.12,2,2.17a1.8,1.8,0,0,0,2.05-2.1C234.14,703.9,233.25,703.18,232.71,702.41Zm353.2-36.74a2.91,2.91,0,0,0,1.92,1.9c.77.06,1.62-.92,2.44-1.44v-1c-.8-.55-1.56-1.46-2.42-1.57A1.69,1.69,0,0,0,585.91,665.67ZM252.35,45.82l1,0c.57-.8,1.59-1.63,1.56-2.41a2.88,2.88,0,0,0-1.91-2,1.69,1.69,0,0,0-2.07,2C251,44.3,251.84,45,252.35,45.82Zm10,0,1,0c.55-.81,1.55-1.62,1.53-2.41a2.87,2.87,0,0,0-1.86-2,1.66,1.66,0,0,0-2.11,1.89C260.92,44.23,261.79,45,262.31,45.82Zm9.85,0,1,0c.59-.78,1.62-1.56,1.62-2.35a2.87,2.87,0,0,0-1.79-2,1.69,1.69,0,0,0-2.19,1.82C270.82,44.16,271.67,45,272.16,45.81Zm10.15,0,.89,0c.54-.77,1.42-1.5,1.53-2.33a1.8,1.8,0,0,0-2.06-2.09c-1.36.05-2.21.92-2,2.18C280.85,44.41,281.74,45.1,282.31,45.85ZM588.58,223.77c.86-.08,1.65-1,2.47-1.48l0-1c-.8-.56-1.61-1.57-2.38-1.54a2.86,2.86,0,0,0-2,1.83A1.69,1.69,0,0,0,588.58,223.77ZM302.07,45.83H303c.55-.82,1.56-1.66,1.52-2.44a2.89,2.89,0,0,0-1.94-1.92,1.68,1.68,0,0,0-2,2C300.69,44.33,301.54,45.06,302.07,45.83ZM183.57,223.76a1.7,1.7,0,0,0,2-2c-.16-.87-1.06-1.6-1.63-2.4l-.93,0c-.49.83-1.43,1.71-1.36,2.5A2.9,2.9,0,0,0,183.57,223.76Zm405.11-9.93c.86-.13,1.6-1.05,2.4-1.61l0-1c-.83-.52-1.69-1.49-2.47-1.42a2.91,2.91,0,0,0-1.89,1.94A1.69,1.69,0,0,0,588.68,213.83Zm-139.33-168h.9c.55-.76,1.42-1.46,1.57-2.29.22-1.27-.66-2.12-2-2.15a1.8,1.8,0,0,0-2,2.12C447.91,44.35,448.8,45.07,449.35,45.83Zm9.82,0,.9.05c.58-.72,1.49-1.38,1.68-2.2.28-1.26-.55-2.15-1.9-2.25a1.8,1.8,0,0,0-2.12,2C457.81,44.26,458.66,45,459.17,45.8Zm128.7,429a1.69,1.69,0,0,0-2,2.07,2.91,2.91,0,0,0,1.9,1.93c.78.06,1.63-.92,2.45-1.44,0-.32,0-.64,0-1C589.48,475.82,588.73,474.9,587.87,474.78ZM479.1,45.82l.89,0c.57-.74,1.47-1.42,1.64-2.24.25-1.27-.6-2.14-1.95-2.21a1.8,1.8,0,0,0-2.08,2.07C477.7,44.3,478.57,45,479.1,45.82Zm11,0c.52-.82,1.39-1.61,1.47-2.47a1.67,1.67,0,0,0-2.13-1.87,2.9,2.9,0,0,0-1.85,2c0,.78,1,1.59,1.56,2.39Zm9.81,0c.56-.79,1.46-1.53,1.6-2.39a1.66,1.66,0,0,0-2-2,2.87,2.87,0,0,0-1.94,1.87c-.06.78.9,1.64,1.42,2.47Zm9.94,0c.56-.75,1.45-1.44,1.6-2.27a1.69,1.69,0,0,0-2-2.09,2.89,2.89,0,0,0-2,1.85c-.07.78.91,1.66,1.43,2.49Zm-327,428.94c-.86.1-1.63,1-2.45,1.52v1c.8.55,1.63,1.54,2.4,1.51a2.92,2.92,0,0,0,2-1.87A1.7,1.7,0,0,0,182.85,474.78ZM588.7,170.09a2.89,2.89,0,0,0-2,1.84,1.69,1.69,0,0,0,1.87,2.15c.86-.08,1.65-1,2.48-1.48,0-.32,0-.64,0-1C590.28,171.08,589.47,170.06,588.7,170.09ZM539.76,45.82c.53-.77,1.38-1.5,1.49-2.33a1.68,1.68,0,0,0-2-2,2.87,2.87,0,0,0-1.92,1.93c0,.79,1,1.62,1.54,2.43Zm48.82,227.63c.86-.08,1.65-1,2.48-1.48l0-1c-.8-.56-1.61-1.57-2.39-1.54a2.88,2.88,0,0,0-2,1.84A1.69,1.69,0,0,0,588.58,273.45ZM183.69,84.65a1.69,1.69,0,0,0,1.86-2.16,2.9,2.9,0,0,0-2-1.83c-.78,0-1.58,1-2.38,1.55,0,.32,0,.64,0,1C182,83.69,182.82,84.57,183.69,84.65Zm403-2.26a1.7,1.7,0,0,0,1.77,2.25c.86,0,1.7-.86,2.55-1.34l.06-1c-.76-.61-1.52-1.67-2.29-1.69A2.94,2.94,0,0,0,586.71,82.39Zm-403.14,8.2c-.78,0-1.59,1-2.39,1.54l0,1c.82.52,1.61,1.4,2.48,1.49a1.69,1.69,0,0,0,1.87-2.15A2.91,2.91,0,0,0,183.57,90.59Zm403.14,1.85a1.69,1.69,0,0,0,1.87,2.15c.87-.09,1.65-1,2.48-1.49l0-1c-.8-.56-1.61-1.57-2.39-1.55A2.89,2.89,0,0,0,586.71,92.44Zm-403,12.08a1.68,1.68,0,0,0,1.87-2.15,2.89,2.89,0,0,0-2-1.84c-.77,0-1.58,1-2.38,1.55,0,.32,0,.64,0,1C182,103.57,182.82,104.44,183.68,104.52Zm405,89.44c.86-.12,1.62-1,2.42-1.57v-1c-.81-.53-1.66-1.51-2.44-1.46a2.93,2.93,0,0,0-1.92,1.91A1.7,1.7,0,0,0,588.65,194ZM185.56,112.44a2.91,2.91,0,0,0-1.87-2c-.77-.08-1.65.87-2.48,1.38l0,1c.78.58,1.51,1.51,2.37,1.65A1.69,1.69,0,0,0,185.56,112.44Zm403.12,2c.86-.13,1.6-1,2.4-1.61,0-.33,0-.65,0-1-.83-.51-1.69-1.48-2.47-1.41a2.91,2.91,0,0,0-1.89,1.94A1.69,1.69,0,0,0,588.68,114.46ZM185.56,191.94a2.92,2.92,0,0,0-1.86-2c-.78-.08-1.65.88-2.49,1.38l0,1c.78.58,1.51,1.52,2.37,1.66A1.69,1.69,0,0,0,185.56,191.94Zm37.22,510.47-.89,0c-.56.75-1.46,1.44-1.61,2.26-.24,1.27.62,2.13,2,2.18a1.8,1.8,0,0,0,2.06-2.09C224.2,703.91,223.32,703.19,222.78,702.41ZM590.26,555.77c-.82-.53-1.61-1.41-2.47-1.49a1.69,1.69,0,0,0-1.88,2.15,2.92,2.92,0,0,0,2,1.84c.78,0,1.59-1,2.39-1.54C590.27,556.41,590.27,556.09,590.26,555.77Zm-1.71-425.43a2.93,2.93,0,0,0-1.84,2,1.69,1.69,0,0,0,2,2c.86-.15,1.58-1.08,2.36-1.66,0-.33,0-.65,0-1C590.21,131.21,589.33,130.26,588.55,130.34Zm-404.93,9.94c-.78-.05-1.62.94-2.43,1.48v1c.81.55,1.58,1.45,2.44,1.55a1.68,1.68,0,0,0,1.92-2.1A2.87,2.87,0,0,0,183.62,140.28Zm405,4c.86-.08,1.65-1,2.47-1.48l0-1c-.8-.55-1.61-1.56-2.38-1.54a2.89,2.89,0,0,0-2,1.84A1.69,1.69,0,0,0,588.58,144.27ZM261.53,702.41c-.53.81-1.4,1.59-1.5,2.45a1.68,1.68,0,0,0,2.11,1.9,2.87,2.87,0,0,0,1.86-2c0-.78-1-1.6-1.52-2.41Zm10.37.45a2.85,2.85,0,0,0-1.92,1.87,1.67,1.67,0,0,0,2,2c.87-.14,1.63-1,2.44-1.57,0-.3,0-.6,0-.9C273.55,703.78,272.7,702.82,271.9,702.86ZM185.55,162a2.91,2.91,0,0,0-2-1.87c-.78,0-1.61,1-2.41,1.5v1c.81.54,1.58,1.43,2.45,1.52A1.68,1.68,0,0,0,185.55,162ZM586.71,162a1.68,1.68,0,0,0,1.83,2.18c.87-.06,1.67-.92,2.51-1.43l0-1c-.78-.57-1.57-1.6-2.35-1.59A2.91,2.91,0,0,0,586.71,162Zm-403.07,8.13c-.78-.06-1.62.92-2.44,1.45v1c.8.56,1.55,1.47,2.41,1.58a1.69,1.69,0,0,0,2-2.07A2.92,2.92,0,0,0,183.64,170.09ZM291.33,702.41c-.52.81-1.39,1.59-1.49,2.45a1.67,1.67,0,0,0,2.11,1.9,2.87,2.87,0,0,0,1.86-2c0-.79-1-1.6-1.52-2.41ZM183.69,184a1.69,1.69,0,0,0,1.86-2.16,2.88,2.88,0,0,0-2-1.83c-.78,0-1.59,1-2.38,1.56,0,.32,0,.64,0,1C182,183.07,182.83,183.94,183.69,184ZM302.4,702.44l-.9-.06c-.6.72-1.52,1.36-1.72,2.18-.3,1.26.53,2.15,1.87,2.27a1.79,1.79,0,0,0,2.15-2C303.73,704,302.89,703.24,302.4,702.44ZM588.56,303.26c.86-.07,1.66-.94,2.49-1.46l0-1c-.79-.57-1.59-1.59-2.37-1.57a2.9,2.9,0,0,0-2,1.82A1.69,1.69,0,0,0,588.56,303.26Zm-404.89,0a1.69,1.69,0,0,0,1.88-2.14,2.9,2.9,0,0,0-2-1.85c-.78,0-1.6,1-2.4,1.53,0,.32,0,.64,0,1C182,302.29,182.81,303.18,183.67,303.26Zm404.91-9.94c.86-.08,1.65-.95,2.47-1.47l0-1c-.8-.56-1.61-1.57-2.39-1.54a2.86,2.86,0,0,0-2,1.83A1.68,1.68,0,0,0,588.58,293.32Zm-277,409.48c-1.23-.21-2,.76-2,2s.85,2.24,2.14,2c.85-.16,1.56-1,2.33-1.55v-.91A8.19,8.19,0,0,0,311.62,702.8Zm137.22.07a1.92,1.92,0,0,0,.16,3.84c.79,0,1.62-1,2.43-1.55l0-1C450.53,703.71,449.63,702.77,448.84,702.87Zm10.53-.48-.95,0c-.52.83-1.49,1.68-1.44,2.47s1.15,1.7,1.93,1.88a1.68,1.68,0,0,0,2-2C460.83,703.93,459.92,703.19,459.37,702.39Zm29.46.41a1.68,1.68,0,0,0-2.07,2,2.84,2.84,0,0,0,1.92,1.92c.8,0,1.66-.94,2.48-1.48v-.92C490.38,703.79,489.67,703,488.83,702.8Zm7.86,1.93a2.85,2.85,0,0,0,1.87,2c.79.07,1.68-.89,2.52-1.4l0-.92c-.76-.55-1.45-1.41-2.28-1.59A1.7,1.7,0,0,0,496.69,704.73Zm12.37-2.34-.95,0c-.52.82-1.49,1.68-1.44,2.46a2.9,2.9,0,0,0,1.92,1.89,1.67,1.67,0,0,0,2.05-2C510.51,703.94,509.62,703.19,509.06,702.39Zm78.72-247.48a1.69,1.69,0,0,0-1.87,2.15,2.91,2.91,0,0,0,2,1.84c.77,0,1.59-1,2.38-1.54,0-.32,0-.65,0-1C589.44,455.87,588.65,455,587.78,454.91Zm-58.7,247.51-1,0c-.57.79-1.6,1.59-1.59,2.37a2.89,2.89,0,0,0,1.83,2,1.67,1.67,0,0,0,2.15-1.85C530.44,704,529.58,703.25,529.08,702.42Zm9.81,0h-.95c-.53.82-1.51,1.66-1.46,2.45a2.86,2.86,0,0,0,1.91,1.9,1.67,1.67,0,0,0,2.06-2C540.33,704,539.44,703.2,538.89,702.4ZM182.8,468.84a2.92,2.92,0,0,0,2-1.87,1.69,1.69,0,0,0-1.9-2.12c-.87.09-1.64,1-2.46,1.52,0,.32,0,.64,0,1C181.2,467.88,182,468.88,182.8,468.84Zm405-4a1.69,1.69,0,0,0-1.91,2.12,2.9,2.9,0,0,0,2,1.87c.78,0,1.61-.95,2.42-1.5v-1C589.46,465.84,588.68,464.94,587.82,464.85ZM183.57,273.45a1.69,1.69,0,0,0,2-2.05,2.91,2.91,0,0,0-1.89-1.94c-.77-.07-1.64.9-2.47,1.41,0,.32,0,.64,0,1C182,272.4,182.71,273.32,183.57,273.45Zm404.3,235.13c.77,0,1.6-.95,2.41-1.49,0-.33,0-.65,0-1-.81-.54-1.59-1.43-2.45-1.52a1.69,1.69,0,0,0-1.91,2.11A2.88,2.88,0,0,0,587.87,508.58Zm-405.11-9.92a2.93,2.93,0,0,0,2-1.84,1.7,1.7,0,0,0-1.87-2.16c-.86.08-1.65.95-2.48,1.47l0,1C181.18,497.66,182,498.68,182.76,498.66Zm-.49,15.48c-.51.83-1.47,1.7-1.41,2.49a2.8,2.8,0,0,0,1.88,1.93,1.66,1.66,0,0,0,2-2c-.15-.88-1-1.63-1.58-2.45ZM180.39,527c.81.55,1.64,1.54,2.41,1.51a2.91,2.91,0,0,0,2-1.88,1.69,1.69,0,0,0-1.91-2.12c-.86.09-1.63,1-2.45,1.52C180.4,526.31,180.4,526.64,180.39,527Zm407.43,1.5c.77.06,1.63-.91,2.44-1.44,0-.32,0-.64,0-1-.8-.56-1.55-1.47-2.41-1.59a1.69,1.69,0,0,0-2,2.07A2.89,2.89,0,0,0,587.82,528.46Zm0,9.94c.78.06,1.63-.91,2.45-1.44,0-.32,0-.64,0-1-.8-.56-1.55-1.48-2.41-1.6a1.69,1.69,0,0,0-2,2.07A2.91,2.91,0,0,0,587.81,538.4ZM185.56,241.7c-.11-.87-1-1.66-1.49-2.48h-.93c-.54.8-1.52,1.63-1.49,2.42a2.85,2.85,0,0,0,1.81,2A1.69,1.69,0,0,0,185.56,241.7Zm403.14,7.88a2.89,2.89,0,0,0-2,1.84,1.69,1.69,0,0,0,1.87,2.16c.86-.08,1.65-1,2.48-1.48l0-1C590.28,250.57,589.48,249.56,588.7,249.58ZM182.87,548.34a2.91,2.91,0,0,0,1.89-2,1.69,1.69,0,0,0-2-2c-.86.13-1.6,1-2.39,1.62,0,.32,0,.64,0,1C181.23,547.44,182.1,548.4,182.87,548.34Zm403-2a2.91,2.91,0,0,0,1.87,2c.77.07,1.64-.88,2.48-1.39l0-1c-.79-.58-1.52-1.51-2.38-1.65A1.69,1.69,0,0,0,585.91,546.37ZM181.19,252c.8.55,1.56,1.46,2.42,1.57a1.69,1.69,0,0,0,1.95-2.09,2.92,2.92,0,0,0-1.93-1.91c-.78-.05-1.62.94-2.43,1.47C181.19,251.37,181.19,251.69,181.19,252Zm3.58,304.25c-.18-.87-1.08-1.6-1.66-2.39l-.92,0c-.49.85-1.41,1.74-1.33,2.54a2.83,2.83,0,0,0,1.94,1.86A1.67,1.67,0,0,0,184.77,556.26Zm-4.36,10.54c.83.51,1.69,1.48,2.47,1.41a2.9,2.9,0,0,0,1.88-1.94,1.68,1.68,0,0,0-2-2c-.86.13-1.6,1-2.39,1.61Zm2.5,7.35c-.87.08-1.67,1-2.5,1.46l0,1c.79.57,1.59,1.59,2.37,1.57a2.91,2.91,0,0,0,2-1.82A1.7,1.7,0,0,0,182.91,574.15Zm403,12a2.9,2.9,0,0,0,1.85,2c.77.08,1.66-.87,2.49-1.36l0-1c-.78-.58-1.51-1.52-2.36-1.66A1.69,1.69,0,0,0,585.91,586.1Zm-402.75,7.52-.92,0c-.5.84-1.44,1.71-1.38,2.5a2.84,2.84,0,0,0,1.9,1.91,1.66,1.66,0,0,0,2-2C184.61,595.18,183.73,594.43,183.16,593.62Zm-.92,10c-.5.83-1.44,1.7-1.38,2.5a2.84,2.84,0,0,0,1.9,1.91,1.67,1.67,0,0,0,2-2c-.16-.88-1.05-1.62-1.61-2.43Zm405.57.37a1.69,1.69,0,0,0-1.9,2.13,2.94,2.94,0,0,0,2,1.87c.78,0,1.6-1,2.41-1.51,0-.32,0-.64,0-1C589.45,605,588.68,604.06,587.81,604Zm-1.9,12a2.88,2.88,0,0,0,1.88,1.94c.78.07,1.64-.89,2.47-1.41,0-.32,0-.64,0-1-.79-.57-1.53-1.49-2.39-1.62A1.69,1.69,0,0,0,585.91,616Zm.8-374.48a1.69,1.69,0,0,0,1.85,2.17c.87-.07,1.66-.94,2.49-1.46l0-1c-.79-.56-1.59-1.58-2.37-1.56A2.9,2.9,0,0,0,586.71,241.47ZM182.84,623.84c-.86.1-1.63,1-2.44,1.54v1c.81.54,1.64,1.54,2.42,1.49a2.91,2.91,0,0,0,1.94-1.88A1.69,1.69,0,0,0,182.84,623.84Zm405,4c.78,0,1.62-1,2.42-1.49v-1c-.81-.54-1.58-1.44-2.44-1.54a1.69,1.69,0,0,0-1.92,2.11A2.93,2.93,0,0,0,587.85,627.83ZM182.34,484.32c-.54.81-1.52,1.65-1.49,2.44a2.86,2.86,0,0,0,1.83,2,1.67,1.67,0,0,0,2.09-1.92c-.13-.89-1-1.67-1.51-2.5Zm.57,153.45a2.88,2.88,0,0,0,1.85-2,1.69,1.69,0,0,0-2-2c-.86.15-1.58,1.08-2.37,1.66l0,1C181.25,636.9,182.13,637.85,182.91,637.77Zm407.35-2.52c-.83-.52-1.62-1.4-2.48-1.48a1.7,1.7,0,0,0-1.87,2.17,2.91,2.91,0,0,0,2,1.83c.77,0,1.58-1,2.37-1.56ZM183.62,263.52a1.7,1.7,0,0,0,1.94-2.1,2.92,2.92,0,0,0-1.94-1.9c-.77,0-1.62.94-2.43,1.48v1C182,262.51,182.76,263.41,183.62,263.52Zm1.15,382.32c-.12-.89-1-1.67-1.49-2.51l-.93,0c-.54.81-1.52,1.64-1.5,2.43a2.85,2.85,0,0,0,1.81,2A1.66,1.66,0,0,0,184.77,645.84Zm-2.38,7.4c-.55.8-1.55,1.61-1.54,2.41a2.89,2.89,0,0,0,1.78,2,1.67,1.67,0,0,0,2.14-1.87c-.11-.89-.94-1.69-1.46-2.53ZM232.53,45.83h.94C234,45,235,44.18,235,43.39A2.9,2.9,0,0,0,233,41.48a1.68,1.68,0,0,0-2,2C231.13,44.34,232,45.06,232.53,45.83Zm10,0,.95,0c.53-.82,1.5-1.67,1.45-2.45a2.89,2.89,0,0,0-1.93-1.9,1.68,1.68,0,0,0-2.05,2C241.07,44.3,242,45,242.53,45.84Zm49.74,0,.89,0c.53-.78,1.41-1.52,1.51-2.35a1.81,1.81,0,0,0-2.09-2.07c-1.34.07-2.2.93-1.95,2.2C290.8,44.43,291.7,45.11,292.27,45.85Zm19.76,0h1c.54-.82,1.54-1.66,1.5-2.45a2.9,2.9,0,0,0-2-1.9,1.69,1.69,0,0,0-2,2C310.63,44.35,311.5,45.06,312,45.83Zm10,0h.94c.54-.82,1.54-1.68,1.48-2.46s-1.17-1.73-2-1.89a1.69,1.69,0,0,0-2,2.05C320.58,44.36,321.45,45.07,322,45.83Zm147.11,0,.94.05c.57-.79,1.61-1.59,1.59-2.37a2.89,2.89,0,0,0-1.86-2,1.68,1.68,0,0,0-2.11,1.94C467.74,44.25,468.59,45,469.1,45.8Zm50.68.05c.56-.8,1.46-1.54,1.59-2.4a1.68,1.68,0,0,0-2-2c-.79.18-1.89,1.18-1.94,1.88s.91,1.64,1.43,2.47Zm29.81,0c.56-.75,1.44-1.44,1.6-2.27a1.69,1.69,0,0,0-2-2.09,2.89,2.89,0,0,0-2,1.85c-.06.78.92,1.66,1.44,2.49Zm39,58.68c.86-.1,1.63-1,2.44-1.54v-1c-.81-.53-1.65-1.52-2.43-1.48a2.89,2.89,0,0,0-1.93,1.89A1.68,1.68,0,0,0,588.63,104.52ZM185.56,122.29a2.91,2.91,0,0,0-1.94-1.88c-.78,0-1.62.94-2.43,1.47v1c.81.54,1.58,1.44,2.44,1.55A1.69,1.69,0,0,0,185.56,122.29Zm405.49-.52c-.84-.5-1.73-1.45-2.5-1.37a2.89,2.89,0,0,0-1.84,2,1.69,1.69,0,0,0,2,2c.85-.15,1.57-1.09,2.35-1.67ZM183.58,134.34a1.69,1.69,0,0,0,2-2.05,2.91,2.91,0,0,0-1.89-1.94c-.78-.07-1.64.89-2.47,1.4,0,.33,0,.65,0,1C182,133.29,182.72,134.21,183.58,134.34Zm2,17.81a2.91,2.91,0,0,0-1.9-1.93c-.77-.07-1.63.9-2.46,1.41l0,1c.8.57,1.54,1.49,2.4,1.62A1.7,1.7,0,0,0,185.56,152.15Zm403.34-2a1.77,1.77,0,0,0-2.26,1.8,1.83,1.83,0,0,0,1.91,2.22c.83,0,1.63-.82,2.44-1.27l.12-.89C590.38,151.4,589.74,150.42,588.9,150.19ZM529.82,45.82c.52-.77,1.38-1.5,1.5-2.33a1.69,1.69,0,0,0-2.05-2,2.9,2.9,0,0,0-1.93,1.92c0,.79,1,1.63,1.53,2.44Zm61.24,135.62c-.83-.52-1.7-1.48-2.47-1.41A2.91,2.91,0,0,0,586.7,182a1.69,1.69,0,0,0,2,2c.86-.13,1.6-1.05,2.39-1.62C591.07,182.08,591.07,181.76,591.06,181.44ZM185.56,291.28a2.91,2.91,0,0,0-1.89-1.94c-.78-.07-1.64.89-2.47,1.41,0,.32,0,.64,0,1,.8.57,1.54,1.49,2.4,1.62A1.69,1.69,0,0,0,185.56,291.28ZM585.91,645.84a2.92,2.92,0,0,0,2,1.87c.78,0,1.6-1,2.41-1.51v-1c-.82-.54-1.59-1.42-2.46-1.52A1.69,1.69,0,0,0,585.91,645.84Zm.79-364.53a1.69,1.69,0,0,0,1.95,2.08c.86-.12,1.62-1,2.42-1.58,0-.32,0-.64,0-1-.81-.53-1.66-1.51-2.44-1.46A2.92,2.92,0,0,0,586.7,281.31Zm-403.14,2.08a1.69,1.69,0,0,0,2-2,2.92,2.92,0,0,0-1.87-2c-.78-.08-1.65.88-2.48,1.38l0,1C182,282.32,182.7,283.25,183.56,283.39Zm285.74,419-.94,0c-.52.84-1.5,1.71-1.44,2.5a2.91,2.91,0,0,0,2,1.85,1.69,1.69,0,0,0,2-2.09C470.75,703.84,469.86,703.15,469.3,702.39ZM184.76,457a1.69,1.69,0,0,0-1.91-2.12c-.86.09-1.63,1-2.45,1.53v1c.8.55,1.63,1.54,2.4,1.5A2.9,2.9,0,0,0,184.76,457Zm294.6,245.38h-.95c-.57.79-1.58,1.6-1.56,2.39a2.88,2.88,0,0,0,1.84,2,1.69,1.69,0,0,0,2.14-1.88C480.74,704,479.88,703.24,479.36,702.41Zm108.41-48.76a1.7,1.7,0,0,0-1.86,2.17,2.93,2.93,0,0,0,2,1.82c.77,0,1.57-1,2.37-1.56l0-1C589.43,654.59,588.63,653.72,587.77,653.65Zm-1.86-87.33a2.9,2.9,0,0,0,1.94,1.89c.77,0,1.61-.94,2.42-1.48v-1c-.8-.54-1.57-1.44-2.43-1.54A1.68,1.68,0,0,0,585.91,566.32Zm0-49.64a2.9,2.9,0,0,0,2,1.84c.78,0,1.59-1,2.39-1.53,0-.32,0-.65,0-1-.82-.53-1.61-1.41-2.47-1.49A1.7,1.7,0,0,0,585.91,516.68ZM519,702.39l-1,0c-.51.83-1.48,1.69-1.41,2.47a2.87,2.87,0,0,0,1.94,1.87,1.68,1.68,0,0,0,2-2C520.45,703.92,519.54,703.19,519,702.39ZM587.81,594a1.69,1.69,0,0,0-1.9,2.12,2.92,2.92,0,0,0,2,1.87c.78,0,1.6-1,2.4-1.5v-1C589.45,595,588.67,594.12,587.81,594ZM181.21,212.37c.82.51,1.62,1.39,2.49,1.46a1.69,1.69,0,0,0,1.85-2.17,2.9,2.9,0,0,0-2-1.82c-.78,0-1.58,1-2.37,1.56Zm407.39-8.48c.86-.09,1.64-1,2.46-1.5v-1c-.8-.55-1.62-1.55-2.39-1.52a2.9,2.9,0,0,0-2,1.86A1.69,1.69,0,0,0,588.6,203.89Zm-403-1.93c-.12-.88-1-1.66-1.5-2.49h-.92c-.55.81-1.53,1.63-1.5,2.42a2.85,2.85,0,0,0,1.81,2A1.69,1.69,0,0,0,185.57,202Zm-2.68,332.45c-.87.08-1.66,1-2.48,1.48l0,1c.8.56,1.61,1.56,2.38,1.54a2.93,2.93,0,0,0,2-1.84A1.69,1.69,0,0,0,182.89,534.41Zm366,168h-1c-.55.82-1.56,1.66-1.51,2.45s1.15,1.74,1.94,1.91a1.68,1.68,0,0,0,2-2C550.27,703.9,549.41,703.18,548.88,702.41Zm39.83-472.7a2.9,2.9,0,0,0-2,1.82,1.69,1.69,0,0,0,1.85,2.17c.87-.07,1.66-.94,2.49-1.45l0-1C590.29,230.71,589.49,229.69,588.71,229.71Zm-403.16,2a2.91,2.91,0,0,0-1.84-2c-.77-.08-1.66.86-2.49,1.36,0,.32,0,.64-.05,1,.78.58,1.5,1.53,2.36,1.68A1.69,1.69,0,0,0,185.55,231.7ZM585.91,486.82a2.92,2.92,0,0,0,1.93,1.9c.78,0,1.62-.94,2.43-1.48v-1c-.81-.55-1.57-1.45-2.44-1.56A1.69,1.69,0,0,0,585.91,486.82Zm1.86,7.84a1.7,1.7,0,0,0-1.86,2.17,2.93,2.93,0,0,0,2,1.82c.77,0,1.57-1,2.36-1.56,0-.33,0-.65,0-1C589.43,495.6,588.63,494.73,587.77,494.66Zm-404.52,9.55-.92,0c-.54.82-1.51,1.66-1.48,2.46a2.83,2.83,0,0,0,1.84,2,1.66,1.66,0,0,0,2.08-1.92C184.64,505.81,183.78,505,183.25,504.21Zm405.36-240.7c.86-.09,1.64-1,2.45-1.51,0-.32,0-.64,0-1-.8-.54-1.63-1.54-2.4-1.51a2.92,2.92,0,0,0-2,1.87A1.68,1.68,0,0,0,588.61,263.51Zm-.67,314.63c.78,0,1.57-1,2.35-1.59,0-.32,0-.64,0-1-.83-.5-1.64-1.36-2.51-1.42a1.7,1.7,0,0,0-1.83,2.19A2.91,2.91,0,0,0,587.94,578.14ZM241.76,702.39c-.56.79-1.47,1.53-1.61,2.39a1.68,1.68,0,0,0,2,2,2.87,2.87,0,0,0,1.94-1.87c.06-.78-.9-1.65-1.42-2.47Zm10.22.47a2.84,2.84,0,0,0-1.87,1.92,1.66,1.66,0,0,0,2,2c.87-.16,1.61-1.06,2.4-1.62l0-.91C253.65,703.74,252.78,702.8,252,702.86Zm-69.13-89c-.86.1-1.63,1-2.45,1.53v1c.8.55,1.63,1.54,2.4,1.5a2.88,2.88,0,0,0,2-1.87A1.69,1.69,0,0,0,182.85,613.9Zm97.07,90.75a1.67,1.67,0,0,0,1.88,2.12c.88-.1,1.67-.95,2.5-1.46l0-.91c-.81-.56-1.61-1.55-2.41-1.54A2.82,2.82,0,0,0,279.92,704.65Zm-95.16-38.91a1.69,1.69,0,0,0-1.88-2.15c-.86.08-1.65,1-2.47,1.48l0,1c.79.56,1.61,1.56,2.38,1.54A2.93,2.93,0,0,0,184.76,665.74Zm-2-81.65c-.86.13-1.6,1.06-2.39,1.63l0,1c.83.51,1.7,1.46,2.48,1.39a2.92,2.92,0,0,0,1.87-2A1.69,1.69,0,0,0,182.77,584.09Zm138.4,118.32c-.54.77-1.4,1.49-1.53,2.32a1.7,1.7,0,0,0,2,2,2.9,2.9,0,0,0,1.94-1.91c0-.79-1-1.63-1.51-2.45ZM369,86.87a18.73,18.73,0,0,0,3.85.59v28.07c-1.67.61-4-.32-5.46,2a7.53,7.53,0,0,0,1.84,1,18.37,18.37,0,0,0,3.55.38q11.22.06,22.43,0a11.32,11.32,0,0,0,3.31-.56,7.81,7.81,0,0,0,1.83-1.29c-1.81-2.57-4.4-1.42-6.76-2.25,1.93-9.18,3.85-18.33,5.8-27.64a6.74,6.74,0,0,0,2-.45c.56-.31,1.26-1,1.27-1.47s-.68-1.16-1.21-1.54a3,3,0,0,0-1.54-.28q-13.49-.31-27-.58a11.57,11.57,0,0,0-3.73.3,3.11,3.11,0,0,0-1.84,1.88C367.29,85.56,368.33,86.59,369,86.87Zm27.19.69q-2.57,10.05-5.11,20.09l-.39,0C389,101,387.22,94.39,385.4,87.56Zm-14.47.09c2.12,9.21,4.22,18.33,6.34,27.56H377.83c-.45-9.19-.9-18.29-1.36-27.56Z"/></svg>