<svg xmlns="http://www.w3.org/2000/svg" viewBox="0 0 750 750"><path d="M606.18,51.27c0-1.19,0-2.38,0-3.57-.12-13.28-9.64-22.7-22.92-22.7H187.53c-13.44,0-22.94,9.44-22.94,22.82V375q0,163.78,0,327.56a23.13,23.13,0,0,0,.61,5.5c2.62,10.62,11.25,17,22.92,17H583.69c8.2-.19,14.67-3.55,19.15-10.51,2.73-4.22,3.36-9,3.35-13.87Q606.17,375.95,606.18,51.27ZM601.9,701.63c0,11.55-7.47,19.09-18.94,19.09H187.6c-9.35,0-16.5-5.46-18.37-14.11a22.73,22.73,0,0,1-.34-4.74q0-163.5,0-327V47.52c0-8.94,5.46-16,13.95-17.86a18.5,18.5,0,0,1,4.14-.37H583.91a17.67,17.67,0,0,1,18,17.8c0,1.59,0,3.18,0,4.77ZM417.81,432.22a44.72,44.72,0,0,0-5.86,5,138.84,138.84,0,0,0-22.39,31,89.75,89.75,0,0,0-6,14c-1.59,4.72,0,6.82,4.92,7.5.33.05.66.05,1,.13l9.6,2.22c2,8.63,16.86,15.64,25.89,12.65,10.08,3.41,14.71,3.18,25.87-1.51a44.07,44.07,0,0,1,6,2.75c3.58,2.27,7,4.77,10.41,7.3,4.4,3.28,7.09,7.47,6.49,13.25a12.83,12.83,0,0,0,0,1.39c0,3.45,1.59,5.79,5,6.47a18.59,18.59,0,0,0,6.27.05c9.18-1.32,18.35-14.76,18.43-22.88,0-3-.24-6-1.77-8.64-2.06-3.63-5.26-4.74-9.08-3.16-.92.38-1.82.81-2.75,1.16-4.13,1.59-10.41.44-13-2.45.82-.35,1.61-.67,2.39-1,3.58-1.64,6.64-3.88,8.41-7.52,1.87-3.85,1-7-2.57-9.26l-2-1.28a10.31,10.31,0,0,1-4.76-5.91c-2.13-7.79-2-15.69-.68-23.58a5,5,0,0,1,2.32-2.92c7.43-4.43,11.94-10.86,13.83-19.52,3-1.35,4.31-4.21,5.24-7.32a54.56,54.56,0,0,0,1.88-7.29c.74-4.77.9-9.52-2.76-13.53a5.08,5.08,0,0,1,.19-1.1c1.24-3.2,2.4-6.44,3.78-9.59,1.71-3.92,1-5.89-2.77-7.65a8.25,8.25,0,0,1-2.44-1.62c-3.21-3.35-6.15-7-9.56-10.09-3.79-3.48-5-8.11-6.66-12.63-.05-.15.07-.37.11-.5,2.57-.54,5.1-1,7.6-1.62a13,13,0,0,0,9-6.86,34.21,34.21,0,0,0,1.58-5.43c-8.31-1.76-15-.27-20.83,5.95-.57-3.85-1.08-7.26-1.64-11,4.81.4,8.77-1,12.57-3a16.37,16.37,0,0,0,7.84-8.64c.66-1.61.09-2.73-1.47-3-5.94-1.1-11.77-1.35-16.74,3-.57.5-1.19.94-2.24,1.76.39-4.47.73-8.38,1.08-12.41a13.3,13.3,0,0,0,2.06.22,68.4,68.4,0,0,0,9.41-.83c4.22-.89,7.21-3.79,9.6-7.27,1.05-1.54.78-2.68-.74-3.16-4.15-1.3-8.38-2.16-12.7-.92a55.13,55.13,0,0,0-5.75,2.4l5.76-12.62,3.11,1.48A15.7,15.7,0,0,0,505,292.77c3-2.13,2.8-4.2-.54-5.74a16.81,16.81,0,0,0-13.51-.44c-.5.19-1,.34-1.52.52l-.34-.47,6.36-6.92c1.52,0,2.65,0,3.77,0,5.93-.16,10.68-2.79,14.59-7.09,2.17-2.38,1.9-3.46-1-4.64a22.36,22.36,0,0,0-3-1.09c-4.45-1-8.87-1.07-12.11,2.66-1.78,2.05-2.78,4.76-4.24,7.1-.92,1.48-2.05,2.84-3.08,4.25-1.12-7.87-3.94-13.1-7.4-13.26-6.73,6.59-6.89,14.35-.43,24.11l-5,10.11c-2-5.08-6.18-7.17-10.93-8.49-1.41-.4-2.66-.25-2.9,1.39-.43,2.87-.76,5.72.55,8.57,2.22,4.85,5.19,8.91,10.26,11-.39,4.9-.77,9.64-1.13,14.14l-11.33-6.72c-.44,0-.65-.46-.76-.9-2-8.36-4.22-16.66-5-25.29-1.74-18.53-.06-36.59,6.36-54.17a52.46,52.46,0,0,1,14.46-21.78c4.63-4.1,9.77-7.62,16.12-8.51,6.53-.91,8.49,1.25,7.56,7.82a13.87,13.87,0,0,0,.11,4.31,3.58,3.58,0,0,0,3.81,3.08,3.72,3.72,0,0,0,3.1-3.41c.32-5.92-2-12.38-9.14-14.3-4.26-1.14-8.34,0-12.14,1.8a48,48,0,0,0-19,15.87c-4.89,7-7.57,14.81-10,22.81-.24.76-.5,1.51-.76,2.26l-.22-.12c-.21-4.68-.42-9.37-.59-13.23,1.51-3,2.76-5.24,3.79-7.59a2.59,2.59,0,0,0-1.17-3.59c-1.58-.81-2.44.37-3.22,1.49-.32.46-.6.95-.89,1.43H454a20.67,20.67,0,0,1-.59-4.51c.13-1.68.93-3.3,1.21-5a10.93,10.93,0,0,0,0-4.11,2.86,2.86,0,0,0-1.89-1.89c-.69-.06-1.7.84-2.16,1.58a11.25,11.25,0,0,0-.78,3.07A27.25,27.25,0,0,1,448,216c-.58-1.33-.94-2.75-1.46-4.11-1.11-2.92-3.29-4.05-5.58-2.94-1.53,4.13.62,7.71,5.73,9.36l2.85,4.72c-1.22-.39-1.95-.66-2.7-.86-2.55-.67-4.51,0-4.83,1.7s1.26,3,3.94,3.19c1.77.13,3.54.22,5.44.34.45,1.74.89,3.43,1.37,5.26-5.14-1.78-6.68-1.61-7.92,1,1.7,3.55,5.77,3.37,8.74,5.14.13,2.12.27,4.26.43,6.8a12.63,12.63,0,0,0-2-1.62,13.76,13.76,0,0,0-4-1.51,2.74,2.74,0,0,0-2.31,1.31,3.81,3.81,0,0,0,.8,2.75,6.15,6.15,0,0,0,2.14,1.39c1.79,1,3.6,1.92,5.68,3-.45,8.25-1.25,16.51-1.26,24.77,0,9.45.39,18.92,1.22,28.34.51,5.89,2.14,11.7,3.29,17.66-2.91,1.25-3.32,1.89-2,4.7a28.52,28.52,0,0,0,3.57,4.92c.52.68,1.47,1.11,1.77,1.84,1.43,3.39,2.7,6.85,4.09,10.45-4.37.48-8.93-.53-12.34,2.78,3.65,9.34,10.78,11.73,19.67,10.93,4.55,8.3,10.95,14.86,18.22,21.14a15.68,15.68,0,0,1-1.71,0,140,140,0,0,0-34.28-.71,108.14,108.14,0,0,0-17.08,3.36c-3.91,1.06-4.63,3.6-2.93,7.3.28.6.63,1.17.87,1.78,1.2,3.07,2.37,6.14,3.49,9.05-6.11,5.82-3.54,21.95,4.07,28.47,2.06,9.13,7,15.84,15.52,20.17,2.62,7.34,1.09,14.87,1,22.92l-6.19-8.41c.54-2.64-.79-5.16-2.59-7.43a58.19,58.19,0,0,0-5.74-6.58c-3.44-3.2-7.23-5.88-12.52-5.06a16.72,16.72,0,0,1-1.51-1.68c-1.72-2.51-3.45-5-5-7.6C423.67,430.29,421.38,429.65,417.81,432.22Zm74.53-105.64c-2.8,4.93-7.69,6.24-12.49,7.71l-.26-.44Zm-5.23-1.06L478,331A11.48,11.48,0,0,1,487.11,325.52Zm-5.56-12.43-.21-.66,9.66-2.87.17.56A18.34,18.34,0,0,1,481.55,313.09ZM492,305.73l-12.32,4.2C481.6,306.4,486.51,304.61,492,305.73Zm9.08-18.05.06.65h-9.57A13.89,13.89,0,0,1,501.07,287.68Zm-.81,3.64c-1.68,1.9-6.76,2.18-10.24,0ZM510,271.81c-2.73,2.69-5.86,4.56-9.84,4.64C503.12,274.22,506.18,272.21,510,271.81Zm-4.52-2.12-8.07,4.56C498.85,271,501.66,269.43,505.48,269.69Zm-18.79,12.59-1.28-8.69A9.53,9.53,0,0,1,486.69,282.28Zm-2.81-9.81c0,3.74,0,7.47,0,11.2a15.69,15.69,0,0,1-.21,1.79C480.52,282.44,480.5,278.24,483.88,272.47Zm-9.62,39.16c-3.89-1.79-8.28-8.92-7.34-12.85l7.89,12.49Zm-.72,26q.57,4.39,1.12,8.83c-4-1.1-6.4-4.35-7.62-10.26l6.26.59A6.33,6.33,0,0,1,473.54,337.65Zm-1.07-6-.31.52-10.05-6.29A16.44,16.44,0,0,1,472.47,331.62Zm-12.61-3.3.31-.59,10.67,6C466.16,333.78,462.92,331.22,459.86,328.32Zm-2.51,20.87L474,354.43C467.42,355.23,459.74,354.1,457.35,349.19Zm4.42-2c5-1.24,12.19.72,14,5.1Zm14-39.32-6.33-10.2C473.31,298.32,476.44,303.2,475.74,307.86Zm18.1,39c-2.08,4-5.88,5.07-9.73,6-.09-.19-.17-.39-.26-.58Zm-1.74-2.5-12.74,7.7C480.83,347.89,486.94,344.18,492.1,344.35ZM386.22,486.61a20.37,20.37,0,0,1,.58-4.08A124.5,124.5,0,0,1,391.58,471a128,128,0,0,1,22.14-31.09,58.54,58.54,0,0,1,5.37-4.69,18.46,18.46,0,0,1,2.69-1.51c.19.13.38.26.58.38a32.37,32.37,0,0,1-.5,3.44c-2.95,11-8.44,20.68-15.18,29.67-4.89,6.51-10.12,12.77-16.91,17.47C388.84,485.33,387.77,485.78,386.22,486.61Zm27,8.07c-.79,1.19-.79,1.19.41,3.87a26.84,26.84,0,0,0-2.9-1.14,28.08,28.08,0,0,0-4.41-.91,5,5,0,0,1-4.09-5.1,24,24,0,0,1,4.44-.2c6.31.87,11.3,4.22,15.63,8.7a2.91,2.91,0,0,1,.61,1.89C419.55,499.47,417,496.2,413.19,494.68Zm65,8.49c5.3,2.66,10.4,1.74,15.77-.62a11.69,11.69,0,0,1,.66,13.82c-1.94,3.91-4.33,7.68-8.35,9.8a27.47,27.47,0,0,1-6.52,2.11c-.84.2-1.83-.32-2.61-.48-.39-2.9-.38-5.56-1.16-7.95s-2.32-4.52-3.65-7A15.25,15.25,0,0,0,478.18,503.17Zm5.46-19.76a13,13,0,0,1-1.43,3.07c-3.29,3.89-7.65,5.37-12.65,5.56a7.14,7.14,0,0,1-6.5-3,6.09,6.09,0,0,1-1.37-4.56,18.65,18.65,0,0,0-.27-6.29c-.7-2.61.53-4.61,1.09-7a14.9,14.9,0,0,0,11.74-.53C475,476.52,478.58,480.27,483.64,483.41ZM462,449.05a17.18,17.18,0,0,0,12.71,0c-.35,6.25-.7,12.41-1.05,18.59-2.59,1.89-7.51,2-10.56.08C462.76,461.61,462.4,455.45,462,449.05Zm32.74-34.35c-.81-.81-.34-3-2.78-2.48-.75,4,.32,8,.92,12.18-4.74-2.66-2.31-19.53,3-22.89,2.25.9,1.52,3.19,2,4.12C496.66,409.2,495.7,412,494.76,414.7Zm-58.07-29,0-.65a21.64,21.64,0,0,1,4.23-1.81c5.18-1,10.38-2.06,15.62-2.63a121.58,121.58,0,0,1,33.8,1.27,63.4,63.4,0,0,1,7.81,2.19,13.06,13.06,0,0,1,2.37,1.44,36.65,36.65,0,0,1-3.51,1.72c-10.85,3.8-22.09,4.71-33.46,4.16-8-.4-16.11-1.18-23.74-4.15C438.71,386.82,437.72,386.22,436.69,385.7Zm8,38.65-.65-.23c.29-4,1.66-7.94.66-12-2.35-.36-1.84,1.81-2.53,2.46-1.06-2.57-2.18-5.18-3.23-7.82-.6-1.51.4-4.21,2.17-5.42a14,14,0,0,1,2.39,2.59c3.31,6.05,3.4,12.49,2,19.05A4.83,4.83,0,0,1,444.67,424.35ZM452.55,438c-3.94-2.31-5.12-6.37-7.08-10.34,2.55-.93,3-3.05,3.28-5.28.83-6.63.41-13.09-2.66-19.18-.91-1.82-1.95-3.51-4.21-3.69l-1.35-5.27a89.15,89.15,0,0,0,55.75,0c-.47,1.8-.9,3.45-1.37,5.2-2.34.35-3.43,2.13-4.39,4.09-3.23,6.6-3.42,13.54-2.16,20.57.25,1.4,1.56,2.61,2.49,4.09-1.64,7.5-7.36,11.21-14.51,13.4C467.84,444.22,460,442.42,452.55,438Zm8,52.57,14.75,11.32c.1,3.24-2.62,7.32-5.85,8.73l-16-9.57A17.6,17.6,0,0,0,460.53,490.61Zm-22.06-43c1.57,2.31,3,4.69,4.56,7-.89.26-2.45-1.21-3.31,1.21,1.61,1,3.24,2.21,5,3.19a56.18,56.18,0,0,1,5.16,2.89c-2.24.63-4-.66-5.73-1.67-5.35-3.17-10.09-6.92-11.32-13.68C434.74,445.75,437.65,446.35,438.47,447.57Zm-7.77-1.79c-1.11,5.27,2.24,8.71,5.47,11.79,2.92,2.78,6.53,4.89,10,7,2.57,1.6,3.05,1.45,6,.52,2.11,3.4,4.72,6.59,4.51,11-.62,12.85-6.52,21.47-18.26,26.73-3.94,1.76-7.77.48-12-.17.46-2.65-1-4.18-2.61-5.64-4.79-4.25-10.13-7.42-16.55-8.48-3.13-.52-4.06-.33-6.44,1.22l-5-1.8A88,88,0,0,0,427.23,442ZM314.22,290.31l-5.75,7.87c-.1-.2-.29-.41-.3-.63-.11-5.76-.36-11.52-.24-17.27a6.79,6.79,0,0,1,3.85-6.21,23.64,23.64,0,0,0,6-4.84,26.23,26.23,0,0,0,6.88-13.92,9,9,0,0,0,4.83-6,65,65,0,0,0,2.44-9.2c.67-4.55.75-9.15-3.22-13.19,1.41-3.39,2.83-7,4.39-10.56,1.68-3.83.94-6.06-3-7.5a52.68,52.68,0,0,0-7.84-2.1c-9.75-1.91-19.63-1.95-29.5-1.68-7.69.21-15.34.93-22.74,3.23-5.57,1.73-6.37,3.94-3.91,9.18,1.48,3.15,2.6,6.47,3.79,9.51-6.1,6.35-3.52,22.3,3.79,28.27,1,2.77,1.68,5.13,2.72,7.32a25.31,25.31,0,0,0,11,11.91,5.91,5.91,0,0,1,3.12,4.5,18.75,18.75,0,0,1,.37,3.74c0,3.52-.17,7-.11,10.54.13,6.83-2.09,12.27-8.5,15.57-2.5,1.29-3.38,3.61-2.95,6.4.62,3.92,3.15,6.48,6.29,8.5,1.65,1.06,3.49,1.84,5.48,2.86-.73.44-1.31.85-1.93,1.16a14.32,14.32,0,0,1-13.35.22c-4.8-2.28-8.64-.52-10.53,4.48a18.61,18.61,0,0,0-.41,10.76c1,4.85,4,8.69,7,12.34A169.77,169.77,0,0,0,285,369.88c3.75,3.61,5.19,8.18,6.8,12.79.05.15-.07.36-.11.52-2.56.54-5.09,1-7.59,1.62a13,13,0,0,0-9.13,7,27.31,27.31,0,0,0-1.35,4.91c4,1.85,7.56,1.14,11.11.39a16.25,16.25,0,0,0,9.54-6.22c.61,4.09,1.11,7.5,1.66,11.2a23.19,23.19,0,0,0-12.56,3.06,16.44,16.44,0,0,0-7.84,8.64c-.65,1.61-.09,2.72,1.48,3,6,1.12,11.9,1.3,16.9-3.15.51-.46,1.06-.87,2.07-1.7-.39,4.54-.73,8.45-1.07,12.37-2.15-.12-4-.36-5.83-.3A18,18,0,0,0,274,432.16c-1.13,1.67-.95,2.84.62,3.34,4.15,1.31,8.38,2.16,12.69.92A54.3,54.3,0,0,0,293,434l-5.64,12.36a5.07,5.07,0,0,1-.92-.11c-.72-.33-1.43-.68-2.15-1-5.9-2.82-11.6-2.41-16.9,1.36-3,2.14-2.79,4.17.57,5.74a16.76,16.76,0,0,0,13.51.42c.49-.19,1-.34,1.51-.52l.33.48-6.3,6.86H275.4a20.53,20.53,0,0,0-17.15,7.61c-1.65,1.95-1.34,3,1,4,1.1.46,2.22.88,3.35,1.25a11.59,11.59,0,0,0,13.57-4.56c1.13-1.68,1.81-3.66,2.87-5.39a47.44,47.44,0,0,1,3-4.06l.58.28a14.65,14.65,0,0,0,4.56,12.07c1.46,1.44,2.38,1.38,3.36-.44s2.08-3.84,3-5.81a11.64,11.64,0,0,0,.1-10.37c-1-2.27-2.4-4.4-3.73-6.79l4.87-9.92c2,5.17,6.29,7.22,11.1,8.55,1.38.38,2.51.09,2.73-1.42.4-2.8.79-5.59-.46-8.38-2.2-4.94-5.2-9.07-10.35-11.25.39-4.89.77-9.63,1.13-14.15l11.31,6.72c.43,0,.62.32.71.7,2.06,8.35,4.29,16.65,5.07,25.28,1.58,17.41.38,34.46-5.22,51.18-3.17,9.46-7.73,17.89-15.11,24.58-4.74,4.3-10,8-16.56,8.91s-8.5-1.24-7.57-7.79a13.85,13.85,0,0,0-.11-4.31,3.61,3.61,0,0,0-3.81-3.1,3.7,3.7,0,0,0-3.1,3.4c-.33,5.9,2,12.38,9.12,14.3,4.33,1.17,8.46,0,12.32-1.88a47.82,47.82,0,0,0,18.82-15.77c4.88-7,7.58-14.81,10-22.8.23-.77.5-1.52.75-2.28l.22.11c.21,4.69.42,9.37.63,14a6.28,6.28,0,0,0-.83,1,41.33,41.33,0,0,0-3,6.21,3.83,3.83,0,0,0,1.24,3.15c1.14.95,2.2-.08,2.94-1.1.41-.57.75-1.18,1.32-2.09.49,1.63.88,2.92,1.14,3.76-.62,2.58-1.29,4.68-1.59,6.82a8.58,8.58,0,0,0,.4,4.06c.67,1.78,2.6,1.86,3.48.16a21.48,21.48,0,0,0,1.14-4.27c1.11,2.7,2.15,5.17,3.13,7.66,1.15,2.9,3.25,4.07,5.58,3,1.63-4-.65-7.9-5.67-9.36l-2.71-4.51a32.72,32.72,0,0,0,4.62.84,2.4,2.4,0,0,0,2.75-2.06c.2-1.46-.77-2.19-2-2.62a8.67,8.67,0,0,0-2.32-.45c-1.64-.15-3.28-.22-5.11-.33-.44-1.71-.88-3.42-1.38-5.39,4.47,2,6.59,1.76,7.92-.77-.22-.41-.37-1.16-.8-1.39-2.53-1.38-5.12-2.65-7.94-4.08-.11-1.87-.24-4-.35-6a30.79,30.79,0,0,0,5.46,2.48,3.26,3.26,0,0,0,2.79-1.42c.32-.61-.51-1.95-1.06-2.82-.32-.5-1.09-.72-1.67-1-1.85-1-3.72-2-5.2-2.8,0-5.51-.31-10.76.06-15.95,1.1-15.72,1.1-31.36-2.36-46.84-.63-2.81-1.16-5.64-1.73-8.41,2.89-1.08,3.25-1.67,2.21-4.21a9.54,9.54,0,0,0-2.46-4c-2.93-2.26-4.05-5.44-5.21-8.68-.59-1.63-1.25-3.24-2-5.11a23.28,23.28,0,0,0,2.94,0c2.54-.35,5.09-.71,7.6-1.23,1.18-.25,2.2-1.16,1.49-2.48-2.51-4.68-5.61-8.78-11.42-9.47-2.62-.32-5.25-.44-8.08-.67-3.95-7.18-9.45-13.22-15.8-18.83a6.51,6.51,0,0,1,.89-.18c6.74,0,9.19-2.22,8.88-8.83-.25-5.4,2.12-9.34,6.18-12.43,3.68-2.8,7.47-5.49,11.38-8a33.76,33.76,0,0,1,5.71-2.4,28.62,28.62,0,0,0,25.77,1.46,9.2,9.2,0,0,0,7.67.54,67.61,67.61,0,0,0,9.15-3.25c4.14-1.95,7.73-4.63,9-10,3.46-.73,7.11-1.6,10.81-2.25,4.44-.77,5.82-2.65,4.77-7a36.34,36.34,0,0,0-1.58-4.9c-4.07-10.32-10-19.6-16.7-28.33a137.34,137.34,0,0,0-14.36-15.85c-5-4.71-7.3-4-10.78,1.89-1.68,2.8-3.72,5.39-5.45,7.88C326.73,269.89,314.88,281.13,314.22,290.31ZM280.16,412.77c2.76-5,7.7-6.2,12.48-7.73l.25.44Zm5.16,1.07,9.19-5.44A11.72,11.72,0,0,1,285.32,413.84ZM291,426.3l.19.61-10,3A14.6,14.6,0,0,1,291,426.3Zm-10.52,7.37,12.35-4.25C290.92,432.93,286,434.73,280.43,433.67Zm-9.09,17.46,9.15-.41v.54A11.21,11.21,0,0,1,271.34,451.13Zm.45-3.18a10.79,10.79,0,0,1,10.69,0Zm-9.32,19.57c2.76-2.68,5.9-4.53,9.85-4.63C269.37,465.12,266.31,467.14,262.47,467.52Zm4.26,2.28,8.49-4.75C273.25,468.53,270.56,469.81,266.73,469.8Zm19.81-4a11.69,11.69,0,0,1-.77-8.7q.64,4.32,1.28,8.66Zm2.12,1.33V453.83C292,456.71,291.92,462.4,288.66,467.12ZM306,440.25l-.52.3-7.83-12.49C301.75,429.06,306.31,436.26,306,440.25Zm-8.25-47.43c5.56,1.21,5.86,6.23,8,10.31l-6.64-.57C298.63,399.18,298.2,396,297.77,392.82ZM300,407.75l.34-.52,10,6.29A16.47,16.47,0,0,1,300,407.75Zm12.62,3.36-.3.53-10.7-6.05C306.32,405.6,309.61,408.12,312.62,411.11Zm2.26-21.7-.26.61-15.88-5C304.6,384.9,310.69,384,314.88,389.41Zm-4.19,2.77c-5,1.25-12.21-.74-14-5.1Zm-14,39.32,6.39,10.33A9.42,9.42,0,0,1,296.73,431.5Zm-18.13-39c2.11-4,5.86-5.14,9.77-6,.07.18.15.37.23.55Zm1.69,2.53L293,387.35C292,391.23,285.85,395,280.29,395.06ZM323,286.84c1.73-1,3.36-2.15,5-3.24-.08-.34-.15-.67-.22-1l-3.39-.41c.27-.33.63-.72.93-1.15,1.17-1.66,2.42-3.26,3.46-5a5,5,0,0,1,6-1.61,15.38,15.38,0,0,1-1,3.59c-3.14,5.88-8.25,9.5-14.27,12a5.54,5.54,0,0,1-1.74.11c-.06-.21-.11-.41-.17-.61C319.48,288.6,321.31,287.82,323,286.84Zm5.74-52.24c-.54,1.34-1.39,2.56-1.88,3.91a39.45,39.45,0,0,0-1,4.3c-1-1-.52-3.15-2.85-2.79-1,4,.37,8,.24,12.08-1.68-2.18-1.8-4.83-1.85-7.38-.09-5.69.55-11.2,5.09-15.49C328.33,230.36,329.4,233.05,328.77,234.6ZM267.2,213.43c3.13-2.41,6.23-3,9.25-3.52,16.4-2.83,32.78-2.93,49.07.81a44.44,44.44,0,0,1,5.47,2c0,.25,0,.5,0,.74a29.08,29.08,0,0,1-3,1.57c-6,2.32-12.25,3.19-18.59,3.81-12.91,1.24-25.63.43-38.05-3.5A37.76,37.76,0,0,1,267.2,213.43Zm7.85,38.64c.36-4,.72-7.9,1.08-11.88-2.78-.66-2.45,1.52-3.18,2.41-1-2.8-1.94-5.58-3.17-9.1.39-1-.12-3.12,2.23-4.28,4.61,4.1,5.22,9.54,5.17,15.15C277.12,249.82,276.62,251.33,275.05,252.07ZM283.66,266c-3.4-2-5.49-5.15-7.08-10.46,2.5-1.11,2.84-3.31,3.11-5.62.78-6.44.34-12.69-2.58-18.61-.93-1.89-2-3.61-4.32-3.95L271.37,222a87.85,87.85,0,0,0,55.81,0c-.48,1.89-.89,3.53-1.34,5.31-2.32.32-3.43,2.09-4.38,4-3.28,6.73-3.52,13.79-2.07,21,.26,1.27,1.5,2.35,2.4,3.68-1.66,7.55-7.38,11.26-14.52,13.45C298.85,272.06,291,270.38,283.66,266Zm22,10.93c-.38,6.36-.75,12.53-1.12,18.83-3.51,1.74-7,1.49-10.53.07-.35-6.31-.7-12.48-1.06-18.9A17.28,17.28,0,0,0,305.68,276.91Zm-19.11,38.63c-1.21-1.1-2.49-2.27-2.14-4.43,4.45-2.94,8.32-6.55,8.93-12.65a15.09,15.09,0,0,0,11.73.67c.81,2.38,1.77,4.49,1.16,7.13A24.09,24.09,0,0,0,306,313c.16,3.15-3.14,6.73-6.27,6.89C294.77,320.1,290.3,318.93,286.57,315.54Zm4.32,40.06a14.53,14.53,0,0,1-3.19.55,13.53,13.53,0,0,1-9.15-4.29c-4.46-4.59-7.74-9.79-6.94-16.6.21-1.75.4-3.61,2.53-4.63,4.89,2,10,3.14,15.34.37a16,16,0,0,0,6.3,10.1C291.57,345,290.72,349.94,290.89,355.6Zm7.44-17.1c-3.09-1.16-5.87-5.18-6-8.69l14.8-11.3a17.68,17.68,0,0,0,7.11,10.43Zm64.21-14.34c-2.76.7-5.57,1.18-8.17,1.71.26-.81.59-1.86.92-2.91l-.69-.4c-3.9,1.38-6.43,4.76-9.74,7.48,0-5.66,15.47-13.06,20.55-10.29C365.59,321.31,364.15,323.76,362.54,324.16Zm-14-61.08c3.16,2.9,6.42,5.73,9.27,8.92a127.25,127.25,0,0,1,20.77,32,55,55,0,0,1,2.35,6.52,19.53,19.53,0,0,1,.45,3.26c-.21.13-.41.27-.61.41a26.54,26.54,0,0,1-3.15-1.85c-10.25-8-18.08-17.93-24.32-29.23-3.14-5.69-6.05-11.47-7.53-17.85-.24-1.07-.3-2.17-.54-3.93A16.57,16.57,0,0,1,348.56,263.08Zm-11.73,10.77,3.53-3.94a89.77,89.77,0,0,0,31.28,46l-5,1.86c-1.51-1.75-3.57-1.68-5.64-1.38-7.47,1.05-13.54,4.78-18.68,10.1-.91.95-1.12,2.56-1.72,4-7.09,2.89-13.28.28-19-4.23-7.18-5.64-10.17-13.29-10.64-22.17-.23-4.4,2.39-7.56,4.53-11.27,2.71,1.78,5,.33,7.25-.89,5.54-2.95,10.22-6.83,13.34-12.39C337.11,277.74,337.74,275.92,336.83,273.85Zm243.54,148-4.3-3.18V671.75c-12.21,2.28-18.55,10-21.26,21.6H432.71c2.52,2.65,4.73,4.63,8.51,4.31,4.54-.39,9.13-.1,13.7-.1l102,0c.57,0,1.14-.08,1.65-.12.9-13.79,9.34-19.9,21.83-22.21ZM194.63,671.7V418.81l-4.12,3.06V675.56a23,23,0,0,1,15.18,6.62c4.27,4.14,7,9,6.29,15.22.8.08,1.31.19,1.82.19q58.83,0,117.66,0c3.22,0,4.43-2.46,6.28-4.35H216.05C213.33,681.64,206.9,673.93,194.63,671.7ZM577,76.39v243c1.63-1.21,2.89-2.13,4.15-3.05V72.58a23.44,23.44,0,0,1-15.31-6.77c-4.27-4.16-6.82-9-6.2-15.16-.86-.07-1.31-.14-1.77-.14q-58.64,0-117.26,0c-3.41,0-4.78,2.38-6.74,4.36H555.62C558.32,66.44,564.74,74.16,577,76.39ZM191.3,316.3l4.29,3.18V76.36c12.21-2.28,18.57-10,21.25-21.6H339c-2.62-2.58-4.78-4.64-8.58-4.31-4.54.39-9.13.09-13.7.09l-102.17,0a12.44,12.44,0,0,0-1.45.15c-.9,13.75-9.33,19.88-21.83,22.18ZM415,76.16H355.55v49.69H415Zm-4.14,45.42h-51V80.38h51ZM384.59,555c2.29,1,3.39,3.21,3.73,5.75.5,3.67,1.11,7.33,1.7,11,.45,2.83,1,5.66,1.43,8.49l.47,0c.15-.75.32-1.49.44-2.25.89-5.48,2-11,2.58-16.47a9.06,9.06,0,0,1,5.56-7.58,29.8,29.8,0,0,1,4.79-1.89c2.14-.63,4.34-1,6.52-1.56a7.29,7.29,0,0,0-2-.74c-3.44-1.14-7-2.11-10.25-3.57a7.52,7.52,0,0,1-4.5-6.53c-.39-3.81-1.16-7.59-1.78-11.38-.43-2.59-.89-5.17-1.33-7.76-.5.29-.63.52-.67.76-1,6-2,12-2.84,18-.4,3-1.62,5.38-4.29,6.71a66.45,66.45,0,0,1-7.89,3.14,38.35,38.35,0,0,1-4.78,1,10.81,10.81,0,0,0,2.43.84C377.48,552.27,381.13,553.43,384.59,555ZM382.5,212.82A7.29,7.29,0,0,1,386,217.9c.63,4.25,1.31,8.5,2,12.74.4,2.47.85,4.93,1.27,7.4a1.38,1.38,0,0,0,.68-1c1-6.07,2-12.13,2.88-18.22.37-2.71,1.46-4.93,3.84-6.12a84.72,84.72,0,0,1,8.78-3.54,32,32,0,0,1,4.07-.91,6,6,0,0,0-2.34-.84,28.2,28.2,0,0,1-10.71-4,7.58,7.58,0,0,1-3.53-5.28q-.81-5.38-1.67-10.78c-.49-3.09-1-6.17-1.53-9.26a2.58,2.58,0,0,0-.78,1.54c-.95,5.81-2,11.6-2.75,17.44a8.43,8.43,0,0,1-4.62,6.92,31.33,31.33,0,0,1-5.27,2.26c-2.32.73-4.72,1.18-7.6,1.87,1.16.25,1.85.41,2.54.53A28.51,28.51,0,0,1,382.5,212.82ZM386.19,655a41,41,0,0,0,2.36-6.49c1.84-7.25,2-14.67,2-22.09a13.14,13.14,0,0,0-.44-4.12,2.91,2.91,0,0,0-2.07-1.62c-.62-.05-1.62.86-1.91,1.56a9.65,9.65,0,0,0-.42,3.33c-.09,5.22-.05,10.45-.22,15.68-.14,4.12-.55,8.26-3.12,11.71a19,19,0,0,1-3.22,2.81c-4.3-2-5.49-5.31-5.75-9-.39-5.67-.53-11.36-.86-17a42.58,42.58,0,0,0-.78-6.68,2.74,2.74,0,0,0-2-1.63c-.58,0-1.31,1-1.83,1.68-.25.32-.18.89-.22,1.35a105.11,105.11,0,0,0,.34,23,17,17,0,0,0,3.44,9C374.76,660.42,383.19,661.71,386.19,655Zm29.26-20.74c2.54-7.73-3.27-14.58-11.27-13.21-1.51.26-3.05.37-4.83.59-1.16,1.22-2.61,2.63-3.91,4.17a4.21,4.21,0,0,0-1,2.31,6,6,0,0,0,.82,2.16l.8.13c.3-.59.59-1.18.88-1.77.4.49.46.73.45,1-.26,7.27-.55,14.54-.78,21.81a45.48,45.48,0,0,0,.18,5.35,2.4,2.4,0,0,0,2.42,2.42,2.48,2.48,0,0,0,2.71-2.35,15.66,15.66,0,0,0,.09-2.57c0-2.17,0-4.34,0-6.52l1.16-.52C409.14,644.68,413.38,640.54,415.45,634.27ZM402,625.77c2.64-1.43,5.52-1.29,7.36.38s2.38,4.32,1.36,7.1c-1.53,4.17-4.34,7.14-8.72,9.47Zm26.54,10.09a18.2,18.2,0,0,1-4.29-4.84c-1.6-2.64-.82-4.78,1.88-6.54,2.75.27,4.15,1.31,5,3.74A5.18,5.18,0,0,0,432,630a2.28,2.28,0,0,0,1.68.7,2.14,2.14,0,0,0,1.28-1.27,6.54,6.54,0,0,0-2.49-7.22c-5.36-3.56-9.8-2.54-12.63,4a10,10,0,0,0-.12,5.6c.71,3.52,3,6,5.77,8.31,3.25,2.72,5.21,6.17,4.82,10.58a4.24,4.24,0,0,1-4.56,4.21c-3,.06-4.22-.91-4.74-3.87a4.16,4.16,0,0,0-.25-1.36c-.45-.73-1-1.8-1.59-1.92a2.85,2.85,0,0,0-2.3,1.09,5.41,5.41,0,0,0-.91,3,7.8,7.8,0,0,0,6.08,7.65c7.18,1.3,12.47-2.09,12.91-9.6A15.7,15.7,0,0,0,428.56,635.86Zm-66.88,17.22a2.66,2.66,0,0,0-.51-2.56,3.57,3.57,0,0,0-2.83,0c-.71.29-1.15,1.23-1.74,1.86-3.45,3.65-7.63,3.3-9.83-1.2a25.57,25.57,0,0,1-2.46-8.67,18.92,18.92,0,0,1,4.12-14.33c2.9-3.46,6.51-3.36,9.45.07a18.63,18.63,0,0,0,2,2.47c.57.47,1.8,1,2.16.69a3.82,3.82,0,0,0,.89-2.31,3.09,3.09,0,0,0-.51-1.48c-2.92-6.42-10.24-8.08-15.49-3.39s-6.7,10.75-7.07,17.07c.18,5.82,1.05,11.14,5.23,15.25C351,662.4,358.47,659.19,361.68,653.08ZM346.2,50.48c3.16.63,6.36,1,9.69,1.54a13.22,13.22,0,0,0-1.32,3.25c-.15,1.13-.15,2.83.52,3.37a4.07,4.07,0,0,0,3.58.35,14.55,14.55,0,0,0,8.24-8.88,10.55,10.55,0,0,0-.76-8.42c-1.56-3-3.35-5.93-6.33-7.71a4.86,4.86,0,0,0-3.65-.41c-1.5.54-1.55,2.22-1.19,3.62a29.24,29.24,0,0,0,1.44,3.88,13,13,0,0,0,.66,1.31c-3.71.51-7.36.88-11,1.56-1.75.33-4,.83-3.87,3.24C342.36,49.39,344.38,50.11,346.2,50.48ZM357.07,57c.74-3.77,2.26-6.26,6.86-6.24A13,13,0,0,1,357.07,57Zm6.85-13-3.58-.8-2.86-6.55C359.9,37.37,362.54,40.48,363.92,44Zm.74,2.79c-3.21,2.32-15.66,2.25-19.41-.2A40.56,40.56,0,0,1,364.66,46.77Zm106.5,592.14c-.11-2.22-2.12-2.94-4-3.3-3.16-.63-6.36-1-9.69-1.54a13.22,13.22,0,0,0,1.32-3.25c.16-1.13.16-2.83-.51-3.38a4.15,4.15,0,0,0-3.58-.35A14.56,14.56,0,0,0,446.5,636a10.58,10.58,0,0,0,.76,8.43c1.56,3,3.35,5.93,6.33,7.71a4.81,4.81,0,0,0,3.65.4c1.5-.53,1.55-2.21,1.2-3.61A32.33,32.33,0,0,0,457,645c-.22-.53-.52-1-.67-1.32,3.71-.5,7.36-.87,11-1.56C469,641.81,471.27,641.32,471.16,638.91Zm-14.75-9.78c-1.16,4.52-2.6,6.19-6.94,6.21A13,13,0,0,1,456.41,629.13Zm-1.52,20.64-5.63-7.06c.14-.18.27-.37.41-.56l3.37.75c.89,2,1.83,4.15,2.77,6.27Zm-5.81-10.63c2.62-2.12,15-2.11,18.78.12C464,641.1,452.7,641,449.08,639.14ZM428,698.8a13,13,0,0,0-4.42-1.61c-2.57-.48-5.19-.66-7.87-1a16.5,16.5,0,0,0,1.4-3.53c.16-1.06.12-2.66-.53-3.21a3.88,3.88,0,0,0-3.4-.46,14.81,14.81,0,0,0-8.58,9.33c-1.85,5.71,2.89,12.67,6.87,15.62,1.2.89,2.57,1.57,4,.63s1.51-2.63,1.06-4.11c-.51-1.69-1.31-3.3-2.09-5.18a22.27,22.27,0,0,0,3.48,0,70.78,70.78,0,0,0,9.65-1.95C430.09,702.55,430.22,700.16,428,698.8Zm-13.75-7.51.62.44c-1,1.69-2,3.38-2.88,5l-4.45.86C409.36,694.58,411.32,692.38,414.29,691.29Zm-.81,20.28c-2.6-1.79-4.32-4.31-5.92-7.48l3.75.83c.9,2.07,1.83,4.19,2.75,6.32Zm-6.7-10.77a38.61,38.61,0,0,1,19.37.06C423.77,703.11,410.92,703.13,406.78,700.8Zm-49.49-11.95c-2.58-1-4.42.82-3.71,3.47a38.4,38.4,0,0,0,1.58,4,14.22,14.22,0,0,0-1.42.1c-3.31.55-6.67.93-9.91,1.78a4.25,4.25,0,0,0-2.34,2.81c-.33,1.5,1.14,2.35,2.45,2.65,2.89.64,5.82,1.13,8.75,1.56a24.91,24.91,0,0,0,3.67,0c-.78,1.9-1.59,3.5-2.1,5.19-.45,1.49-.49,3.1,1.06,4.11a3.06,3.06,0,0,0,4-.66,42.35,42.35,0,0,0,5.68-7C369.82,698.77,363.14,691,357.29,688.85Zm.08,22.7-.55-.29c.91-2.12,1.82-4.25,2.71-6.31l3.75-.88A17.43,17.43,0,0,1,357.37,711.55ZM344.5,701a37.64,37.64,0,0,1,19.6-.21C360.2,703,348.09,703.15,344.5,701Zm11.85-9.43c2.25.11,4.64,2.13,6.76,5.8C358.61,697.38,357.12,695.15,356.35,691.57ZM172.62,340.27a41.84,41.84,0,0,0,7,5.64c8.13,4.77,15.9-2,18-7.78.94-2.59-.85-4.4-3.49-3.69A37.3,37.3,0,0,0,190.3,336c-.35-2.86-.52-5.58-1.05-8.22a12.51,12.51,0,0,0-1.91-4.49c-1.08-1.56-2.94-1.38-3.91.28A10.1,10.1,0,0,0,182.1,327c-.51,3.35-.83,6.74-1.22,10.07-1.51-.63-3.1-1.43-4.78-1.95-1.47-.44-3.09-.55-4.13,1A3.09,3.09,0,0,0,172.62,340.27Zm17.21-.54,5.2-3.08c-.28,2.91-2.44,5.41-6.07,7.38C189.25,342.59,189.5,341.34,189.83,339.73ZM185.2,325.8c2.17,2.78,2.34,15.16.26,18.67C183.5,341.31,183.33,329.25,185.2,325.8Zm-9.93,11.87,6.29,2.74c.3,1.26.53,2.28.88,3.78-3.17-1.59-5.71-3.29-7.48-5.95Zm7.07,68.72c.33,1.74.82,4,3.23,3.89,2.23-.08,2.94-2.11,3.3-3.93.64-3.16,1-6.36,1.55-9.7a14.91,14.91,0,0,0,3.42,1.37c1.06.16,2.66.1,3.2-.55a3.87,3.87,0,0,0,.44-3.4,14.37,14.37,0,0,0-9.51-8.59c-4.19-1.17-7.85.34-11.06,2.85a22.67,22.67,0,0,0-5,5.24c-1.36,2.08.14,4.19,2.64,4.06a13.62,13.62,0,0,0,3.62-.9,22.3,22.3,0,0,0,2.59-1.29C181.29,399.15,181.66,402.8,182.34,406.39Zm12.88-11.26-.4.63-5-2.81c-.34-1.69-.59-2.9-.91-4.47C192,390.19,194.09,392.19,195.22,395.13Zm-9.54-7.42a38.78,38.78,0,0,1,0,19.38C183.38,404.54,183.38,391.68,185.68,387.71ZM175.11,395c.59-2.41,4.26-5.47,7.23-6.27-.23,1.07-.46,2.08-.76,3.41ZM316.66,651.31a3.06,3.06,0,0,0,4.16-.62,40.79,40.79,0,0,0,5.65-7c4.77-8.14-1.94-15.87-7.75-18a3.45,3.45,0,0,0-3,.57,3.94,3.94,0,0,0-.59,3,18.85,18.85,0,0,0,1.45,3.73c-2.79.33-5.42.52-8,1a12.4,12.4,0,0,0-4.23,1.56c-2.18,1.35-2,3.44.28,4.59a10.35,10.35,0,0,0,3.17,1.08c3.3.48,6.61.8,9.9,1.18-.62,1.49-1.42,3.08-1.94,4.76C315.27,648.64,315.16,650.26,316.66,651.31Zm2.14-3-.55-.29c.91-2.13,1.83-4.25,2.71-6.31l3.79-.9C323.19,644,321.46,646.55,318.8,648.35ZM324.61,634c-3.9.25-5.81-1.2-6.89-6C321,629.13,322.87,631.42,324.61,634Zm-18.24,4a30.34,30.34,0,0,1,18.68-.25C318.86,639.94,312.63,639.61,306.37,638.06ZM589.67,335c-.51-3.45-.91-6.92-1.7-10.3a3.55,3.55,0,0,0-2.52-2.25,3.81,3.81,0,0,0-2.74,2,21.77,21.77,0,0,0-1.48,5.51c-.33,2-.4,4-.58,6a37.12,37.12,0,0,0-4-1.58c-2.53-.66-4.31,1.13-3.4,3.59a16.55,16.55,0,0,0,2.86,4.69c6.24,7.45,19.2,5.35,23-3.66.05-.12.11-.24.15-.37.65-2-.45-3.83-2.53-3.66a23.48,23.48,0,0,0-5.09,1.39,13.83,13.83,0,0,0-1.88,1A18.82,18.82,0,0,0,589.67,335Zm-14,2.46c.15-.2.29-.41.43-.61l4.93,2.86c.33,1.6.6,2.86.93,4.49C579,342.36,576.72,340.43,575.66,337.44Zm9.78,7a30.27,30.27,0,0,1,.14-18.66A32.15,32.15,0,0,1,585.44,344.46Zm10.15-6.79c.12.2.23.4.35.59-1.77,2.62-4.34,4.26-7.52,6,.36-1.56.59-2.58.88-3.84ZM414,59.08a3.91,3.91,0,0,0,3.41-.44c.64-.54.71-2.14.55-3.2A15.6,15.6,0,0,0,416.6,52c3.27-.5,6.42-.87,9.52-1.49,1.88-.38,4-1,4.08-3.39.05-2.5-2.32-2.91-4.12-3.25-3.49-.66-7.05-1-10.57-1.44.62-1.61,1.43-3.35,2-5.17a3.08,3.08,0,0,0-1.09-3.73,2.94,2.94,0,0,0-3.85.5A41.47,41.47,0,0,0,407,40.47C401.79,48.65,407.71,56.35,414,59.08Zm.21-22.51.67.3C414,39,413.06,41,412.15,43.13l-3.74.9A18.09,18.09,0,0,1,414.2,36.57Zm12.53,10.3a30.19,30.19,0,0,1-18.68.19A31.88,31.88,0,0,1,426.73,46.87Zm-11.41,9.65c-2.21-.06-4.58-2.06-6.77-5.79C413,50.76,414.44,52.7,415.32,56.52ZM598.25,392.33a41.18,41.18,0,0,0-7-5.64c-8.13-4.75-15.89,2-18,7.78-.94,2.58.85,4.4,3.49,3.69a35.33,35.33,0,0,0,3.88-1.52c.34,2.86.51,5.58,1,8.22a12.46,12.46,0,0,0,1.91,4.48c1.07,1.57,2.93,1.39,3.9-.27a9.9,9.9,0,0,0,1.33-3.49c.52-3.35.83-6.73,1.22-10.07a50.69,50.69,0,0,0,4.78,1.95c1.48.45,3.1.54,4.14-1A3.1,3.1,0,0,0,598.25,392.33Zm-22.47,2.93-.45-.6,6.18-6.58C582.14,392.7,579.15,395.13,575.78,395.26Zm9.46,11.85a37.88,37.88,0,0,1,0-19.35C587.48,391.51,587.51,404.36,585.24,407.11Zm10.36-12.23-6.19-2.6c-.21-.75-.39-1.31-.53-1.87s-.21-1-.31-1.52c.17-.17.33-.35.49-.52l7.08,5.61ZM580,690.2c1.32-.52,2.9-1,4.36-1.75s3-1.92,2.54-4c-.45-1.87-2.15-2.41-3.74-2.32a39.9,39.9,0,0,0-8.39,1.06c-8.92,2.38-10,12.07-7.27,18.17a3.7,3.7,0,0,0,2.68,1.84c.83,0,2-1,2.52-1.79a18.38,18.38,0,0,0,1.49-3.61c2.62,1.92,5.16,3.91,7.86,5.68,1.6,1,3.63,2.06,5.29.44s.36-3.7-.69-5.2C584.53,695.77,582.18,693,580,690.2Zm3.45-5c.07.21.13.42.2.64l-6.51,2.67-3.33-2.12C577.24,685.31,580.26,684.63,583.4,685.19ZM569.89,700.6c-1.67-3.1-1.31-6.13-.74-9.48C572.56,694.77,572.11,696.72,569.89,700.6Zm1.22-12.15c3.56.25,13,9.13,14.11,13.49A38,38,0,0,1,571.11,688.45ZM186.81,52.07c1.62,2,3.41,3.83,5.12,5.71-1.61.67-3.34,1.28-5,2.11-1.4.71-2.54,1.81-2.2,3.61s1.88,2.37,3.43,2.46c4.76.3,9.17-.41,13.23-3.43,4.82-3.56,4.81-12.81,2.52-16.35-1.27-2-3.43-2-4.66,0a33.52,33.52,0,0,0-1.92,4.35,29.83,29.83,0,0,0-2.56-2.3c-2-1.45-4.07-2.92-6.24-4.17-1.32-.77-3-1.16-4.25.09s-.62,2.74.07,4A24.72,24.72,0,0,0,186.81,52.07Zm1.44,10.81c-.06-.2-.12-.4-.19-.6l6.52-2.67,3.32,2.11C194.51,62.76,191.46,63.52,188.25,62.88Zm13.54-15.37c1.65,3.09,1.34,6.12.69,9.44C199,53.3,199.66,51.1,201.79,47.51Zm-1.45,12.71a40.6,40.6,0,0,1-14.2-13.47C190,47.1,199.15,55.74,200.34,60.22Zm370,1.67c3.72,3.73,8.66,4.46,13.75,4.1,1.62-.12,3.24-.57,3.6-2.51s-.93-3-2.38-3.72-3.22-1.34-4.58-1.89c2.15-2.68,4.46-5.29,6.46-8.14,1.12-1.59,2.79-3.67.9-5.52s-4-.46-5.79.7c-2.52,1.67-4.87,3.59-7.36,5.45a14.45,14.45,0,0,0-1.38-3.47c-.67-.91-1.88-2-2.81-2a3.56,3.56,0,0,0-2.6,2.17,26.91,26.91,0,0,0-.77,8.53A11.37,11.37,0,0,0,570.33,61.89Zm14.06.38c-.06.21-.12.41-.19.62-3.2.63-6.25-.12-9.64-1.17l3.31-2.11Zm1.46-15.57a31.49,31.49,0,0,1-13.58,13A30.27,30.27,0,0,1,585.85,46.7Zm-15.22.75c2.46,3.36,2.27,5.86-.6,9.45A13.44,13.44,0,0,1,570.63,47.45ZM201.4,686.17c-3.93-3.63-8.84-4.46-14-4-1.55.13-3.07.63-3.42,2.47s.81,2.9,2.21,3.62c1.62.82,3.34,1.43,5.12,2.18L190,691.62a26.07,26.07,0,0,0-6.76,9.19c-1,2.64.29,4.21,3.08,3.69a7.41,7.41,0,0,0,2.73-1.1c2.6-1.8,5.11-3.71,7.7-5.6a18.15,18.15,0,0,0,1.59,3.76,3.79,3.79,0,0,0,2.6,1.64,3.4,3.4,0,0,0,2.48-1.83,19.9,19.9,0,0,0,1.27-5.94C204.81,692,204,688.59,201.4,686.17Zm-14.13-.34c.07-.21.13-.42.19-.63,3.17-.6,6.21.13,9.65,1.17l-3.31,2.13Zm-2,15.69A39.55,39.55,0,0,1,199.37,688C198.84,691.78,189.85,700.51,185.3,701.52Zm15.74-.87c-2.47-3.34-2.27-5.86.6-9.46A13.58,13.58,0,0,1,201,700.65ZM378.26,57.19a3.14,3.14,0,0,0,2.46.55c.39-.11.73-1.42.65-2.14-.34-3.19,1.22-5.75,4.57-7.13,3.85,1.06,5.42,3.49,5.05,7.42a2.3,2.3,0,0,0,.7,1.84,2.63,2.63,0,0,0,2-.11A4.16,4.16,0,0,0,395,56.45a11.47,11.47,0,0,0-16.7-15.68C373.55,45.27,373.49,53.23,378.26,57.19Zm2.83-13.93a7.29,7.29,0,0,1,9.31-.64A7,7,0,0,1,393.52,51c-3.77-7.73-10.8-7.49-14.5-.19A6.56,6.56,0,0,1,381.09,43.26Zm195.47,327.8a2.3,2.3,0,0,0-1.83.71,3,3,0,0,0,.13,2c.12.4.56.72.89,1a11.33,11.33,0,0,0,12.38,2c4.1-1.88,7.2-6.73,6.89-10.78a12.07,12.07,0,0,0-8.15-10.74c-4.17-1.34-9.37,0-11.73,3.19a2.86,2.86,0,0,0-.41,2.31c.16.43,1.31.76,2,.69,3.45-.35,5.91,1.1,7.3,4.54C582.92,369.87,580.52,371.41,576.56,371.06ZM581.67,359a7,7,0,0,1,8.1,2.88c2.11,3,2,6.2-.45,9.33a6.54,6.54,0,0,1-7.67,2.36C588.61,370.09,589.57,363.41,581.67,359ZM393.33,690.84a2.75,2.75,0,0,0-2.28-.52c-.49.21-.85,1.4-.77,2.1.38,3.56-1.4,6.21-5.15,7.21-3.46-1.44-4.85-3.83-4.48-7.33.06-.62-.17-1.64-.59-1.86a3,3,0,0,0-2.16.12,4.31,4.31,0,0,0-1.44,1.33A11.49,11.49,0,1,0,395,705.44C398.15,700.82,397.42,694.06,393.33,690.84ZM390,705.22c-3.13,2.23-6.41,2.2-9.33-.09a6.82,6.82,0,0,1-2.47-7.85c3.42,6.68,10.2,8.18,14.57,0A6.67,6.67,0,0,1,390,705.22ZM194.25,361.53c.62.06,1.64-.22,1.85-.65a2.31,2.31,0,0,0-.18-2.12,13.38,13.38,0,0,0-3.7-2.9,11.49,11.49,0,0,0-11.28,19.91c4.58,3.21,11.24,2.59,14.62-1.47a3.19,3.19,0,0,0,.6-2.45c-.1-.39-1.41-.78-2.12-.7-3.53.39-6.22-1.46-7.14-5.09C188.13,362.62,190.58,361.16,194.25,361.53Zm-5.07,11.94c-2.14,1.13-5.33.37-7.19-1.71-2.79-3.12-3.1-6.81-.83-10a6.83,6.83,0,0,1,8.07-2.73C181.63,363,182,370,189.18,373.47ZM362.9,396.4c-.54-3.09-1-6.19-1.55-9.29a2.53,2.53,0,0,0-.83,1.6c-.56,3.4-1.28,6.79-1.59,10.21a6.67,6.67,0,0,1-4.69,6c-2.14.82-4.37,1.4-6.52,2.07,2.43.85,5,1.59,7.37,2.6a5.93,5.93,0,0,1,3.76,5.18c.35,3.22,1,6.41,1.48,9.62.15.94.34,1.87.51,2.8l.5,0c.63-3.88,1.51-7.75,1.84-11.67.32-3.6,2.34-5.48,5.39-6.6,1.93-.71,3.95-1.2,6.43-1.95l-2.14-.44C365.69,405.08,364.18,403.55,362.9,396.4ZM454,141.32c-.48-4.06-1.25-8.08-1.9-12.12l-.59,0c-.63,3.83-1.51,7.65-1.82,11.5-.29,3.62-2.29,5.49-5.35,6.62-1.49.55-3.05.89-4.57,1.33l-1.25.38c2.7,1,5.39,1.94,8,3.1a5.25,5.25,0,0,1,3,4.57c.22,2,.6,4.06.93,6.08s.73,4.32,1.09,6.47l.54,0c.61-3.77,1.49-7.53,1.76-11.32.29-4,2.54-5.93,5.89-7.1,1.76-.62,3.59-1,5.47-1.56-2.6-.91-5.1-1.67-7.51-2.67A5.93,5.93,0,0,1,454,141.32Zm-9.11,432.59c-2.9-.74-5-2.11-5.13-5.57a48.27,48.27,0,0,0-1-6.13,21.78,21.78,0,0,0-1.42,5.69c-.55,3.89-1.54,5.06-5.32,6.06-.49.13-1,.23-1.47.34-.15.23-.31.46-.46.7,6.57-.25,7.13,4.22,7.68,8.72.13,1,.39,2.08.59,3.11a21.7,21.7,0,0,0,1.42-6.31c.16-3.28,2.16-4.58,4.92-5.32.62-.16,1.22-.38,1.83-.58A3.93,3.93,0,0,0,444.91,573.91ZM536,460.13a47.68,47.68,0,0,0-1-6.11,23,23,0,0,0-1.43,5.72c-.58,3.95-1.8,5.27-5.76,6.12-.34.08-.7.13-1.05.19a9.48,9.48,0,0,0,2.87,1.31c2.11.67,3.52,1.84,3.74,4.28s.77,4.63,1.17,6.95l.48,0a51.11,51.11,0,0,0,1-6.23c.14-3.18,2-4.52,4.73-5.28.69-.19,1.36-.45,2.48-.83l-2.46-.65C537.93,464.86,536.14,463.35,536,460.13Zm-275.79-164a25.93,25.93,0,0,0,.89,4.7,29.54,29.54,0,0,0,1.47-6.87,4.81,4.81,0,0,1,3.61-4.44c1.06-.38,2.13-.71,3.56-1.18-1.19-.31-1.95-.5-2.71-.71-2.64-.75-4.4-2.13-4.54-5.2a51.66,51.66,0,0,0-1-6.36L261,276c-.32,1.91-.69,3.81-.95,5.73-.55,4-1.4,5-5.28,6.1-.56.16-1.14.26-2,.45a5.72,5.72,0,0,0,1.25.56C258.27,289.47,260.18,291.91,260.21,296.14Zm57.41-131c0,.33,0,.67.06,1,.3,1.59.62,3.17.94,4.75a14.42,14.42,0,0,0,1.09-4.38c.6-5.21,1.25-6,5.72-7.29.47-.13.91-.36,1.75-.69-1.13-.31-1.86-.53-2.59-.72-2.69-.71-4.43-2.09-4.53-5.18a52.47,52.47,0,0,0-1.08-6.52,4.88,4.88,0,0,0-.59,1c-.26,1.56-.57,3.12-.74,4.69-.42,3.89-1.41,5.12-5.19,6.2-.53.16-1.09.26-1.63.39a3.64,3.64,0,0,0,1.72.92C316.2,160.32,317.18,161.43,317.62,165.16Zm-77.9,244-1.11-6.05a19.37,19.37,0,0,0-1.32,5.44c-.43,3.91-1.23,5-5,6.14-.64.2-1.31.32-2.24.55a4.19,4.19,0,0,0,.94.5c4.32.65,6.48,3,6.42,7.52a21.19,21.19,0,0,0,.84,4.37,12.93,12.93,0,0,0,1.1-4.31c.31-3.39,1-6.46,5.07-7.2.69-.13,1.36-.39,2-.59v-.43c-.32-.05-.65-.08-1-.14C241.59,414.21,240.44,413.05,239.72,409.17Zm-57,25.35c-1.46,0-2,1.07-2,2.42a2,2,0,0,0,2.22,2.2,1.84,1.84,0,0,0,2-2.16C184.84,435.58,184.23,434.51,182.71,434.52Zm405.27,0c-1.51.12-2,1.24-2.05,2.64a1.73,1.73,0,0,0,2.14,1.92c.91-.21,1.63-1.22,2.43-1.88C590.1,435.34,589.41,434.43,588,434.53Zm-403.84-9.29c-.5-.47-2-.63-2.37-.26a3.46,3.46,0,0,0-.75,2.72c.38,1.56,1.77,1.49,3.26,1.12A2.48,2.48,0,0,0,184.14,425.24Zm405.74.28c-1-1.1-2.15-1.42-3.14-.36a2.45,2.45,0,0,0-.08,3.65C589.54,429.31,590.27,428.58,589.88,425.52Zm-2.35-112.58a2.5,2.5,0,0,0,2.38.24,3.44,3.44,0,0,0,.73-2.72c-.38-1.56-1.77-1.48-3.25-1.12A2.51,2.51,0,0,0,587.53,312.94Zm-402.59,0a2.45,2.45,0,0,0,.05-3.63c-1.41-.3-2.81-.4-3.18,1.17a3.53,3.53,0,0,0,.76,2.73A2.49,2.49,0,0,0,184.94,312.93Zm403.11,132a2.76,2.76,0,0,0-2,1.61c-.47,1.43.45,2.32,2,2.68,1.48-.36,2.46-1.19,2-2.65A2.75,2.75,0,0,0,588.05,444.91Zm-403.23,1.64a2.74,2.74,0,0,0-2-1.64,2.78,2.78,0,0,0-2,1.61c-.5,1.45.45,2.31,2,2.69C184.32,448.84,185.29,448,184.82,446.55ZM439.57,45.47a1.89,1.89,0,0,0,2.05-2.15c0-1.24-.61-2.15-2.77-2.1-.29.39-1.2,1.07-1.31,1.87A2,2,0,0,0,439.57,45.47Zm-.92,657.18a2,2,0,0,0-1.89,2.49c.16.79,1.12,1.42,1.47,1.82,2.09-.14,2.65-1.07,2.59-2.31A1.87,1.87,0,0,0,438.65,702.65Zm-106.43,0a1.87,1.87,0,0,0-2.17,2c0,1.23.49,2.19,2.63,2.27.32-.38,1.28-1,1.43-1.79A2,2,0,0,0,332.22,702.65Zm.71-657.19a2,2,0,0,0,2-2.41c-.12-.79-1-1.46-1.6-2.19-1.87.36-2.48,1.25-2.47,2.5A1.89,1.89,0,0,0,332.93,45.46ZM586.05,626a2.9,2.9,0,0,0,2,1.83c.78,0,1.59-1,2.38-1.54,0-.32,0-.64,0-1-.82-.52-1.61-1.4-2.48-1.48A1.69,1.69,0,0,0,586.05,626Zm2.78-406.3a2.9,2.9,0,0,0-2,1.84,1.68,1.68,0,0,0,1.87,2.15c.86-.08,1.65-1,2.47-1.48l0-1C590.42,220.67,589.61,219.66,588.83,219.68Zm-336.4-174,.95,0c.56-.81,1.59-1.63,1.56-2.42A2.9,2.9,0,0,0,253,41.35a1.69,1.69,0,0,0-2.07,2C251.07,44.18,251.91,44.91,252.43,45.69Zm9.87,0,1,0c.59-.78,1.62-1.56,1.62-2.34a2.87,2.87,0,0,0-1.79-2,1.69,1.69,0,0,0-2.19,1.82C261,44,261.81,44.84,262.3,45.68Zm10.08,0h.94c.55-.81,1.54-1.64,1.5-2.43s-1.11-1.73-1.89-1.92a1.67,1.67,0,0,0-2.09,1.92C271,44.14,271.84,44.9,272.38,45.71Zm9.86,0,.94,0c.57-.81,1.6-1.63,1.57-2.42s-1.11-1.76-1.9-1.95a1.69,1.69,0,0,0-2.07,2C280.88,44.17,281.72,44.91,282.24,45.69ZM183,484.68c-.86.08-1.65,1-2.48,1.48,0,.32,0,.64,0,1,.8.56,1.61,1.57,2.39,1.54a2.9,2.9,0,0,0,2-1.84A1.68,1.68,0,0,0,183,484.68Zm119.27-439h.89c.56-.76,1.46-1.47,1.58-2.3a1.81,1.81,0,0,0-2-2.13c-1.35,0-2.22.88-2,2.15C300.79,44.25,301.67,45,302.22,45.71ZM183,633.76c-.87.07-1.66,1-2.48,1.47l0,1c.79.56,1.6,1.57,2.38,1.55a2.9,2.9,0,0,0,2-1.83A1.69,1.69,0,0,0,183,633.76Zm407.43,1.44c-.83-.51-1.64-1.38-2.5-1.44a1.69,1.69,0,0,0-1.84,2.18,2.91,2.91,0,0,0,2,1.81c.78,0,1.57-1,2.36-1.58C590.42,635.84,590.4,635.52,590.39,635.2Zm-141-589.51.89,0c.57-.74,1.47-1.43,1.63-2.25.25-1.27-.61-2.13-2-2.19a1.79,1.79,0,0,0-2.07,2.07C448,44.18,448.88,44.92,449.41,45.69Zm10,0,.89,0c.56-.75,1.46-1.44,1.61-2.26.24-1.27-.62-2.13-2-2.19a1.8,1.8,0,0,0-2.06,2.09C458,44.19,458.83,44.92,459.37,45.7ZM185.63,221.77c-.1-.88-.94-1.67-1.45-2.51l-.93,0c-.55.8-1.56,1.61-1.54,2.39a2.84,2.84,0,0,0,1.78,2A1.69,1.69,0,0,0,185.63,221.77Zm294.51-176c.56-.75,1.45-1.44,1.61-2.26a1.69,1.69,0,0,0-2-2.11,2.88,2.88,0,0,0-2,1.84c-.08.78.9,1.66,1.42,2.5Zm10,0c.55-.8,1.44-1.55,1.56-2.41a1.67,1.67,0,0,0-2.06-1.95c-.78.18-1.87,1.2-1.91,1.9s.93,1.63,1.46,2.45Zm10.06,0c.51-.83,1.36-1.62,1.44-2.49a1.68,1.68,0,0,0-2.15-1.85,2.88,2.88,0,0,0-1.82,2c0,.79,1,1.59,1.57,2.38Zm8.88,0,.89,0c.56-.75,1.45-1.44,1.61-2.26.25-1.27-.61-2.13-2-2.18a1.8,1.8,0,0,0-2.07,2.08C507.64,44.19,508.52,44.92,509.06,45.7Zm79.76,168c.86-.12,1.6-1,2.4-1.6,0-.33,0-.65,0-1-.83-.52-1.69-1.48-2.47-1.42a2.91,2.91,0,0,0-1.89,1.94A1.69,1.69,0,0,0,588.82,213.73Zm-404,432c-.16-.89-1-1.65-1.58-2.46h-.92c-.52.83-1.47,1.69-1.42,2.49a2.82,2.82,0,0,0,1.88,1.93A1.67,1.67,0,0,0,184.84,645.76Zm37.87-600h.9c.55-.76,1.45-1.47,1.57-2.3a1.81,1.81,0,0,0-2-2.13c-1.35,0-2.22.88-2,2.15C221.28,44.25,222.16,45,222.71,45.71Zm-39,38.82a1.7,1.7,0,0,0,1.87-2.16,2.91,2.91,0,0,0-2-1.83c-.77,0-1.58,1-2.37,1.55l0,1C182.09,83.57,182.89,84.45,183.75,84.53Zm403.1-2.1a1.68,1.68,0,0,0,1.92,2.1c.86-.1,1.63-1,2.44-1.54V82c-.81-.54-1.65-1.53-2.42-1.48A2.88,2.88,0,0,0,586.85,82.43Zm-403.15,8c-.78-.06-1.62.92-2.44,1.46v1c.81.55,1.56,1.46,2.42,1.57a1.69,1.69,0,0,0,2-2.08A2.88,2.88,0,0,0,183.7,90.48Zm405,0a3,3,0,0,0-1.86,2,1.69,1.69,0,0,0,2,2c.85-.14,1.58-1.08,2.36-1.66l0-1C590.35,91.35,589.47,90.39,588.7,90.47ZM185.62,102.39a2.9,2.9,0,0,0-1.86-2c-.78-.07-1.66.88-2.49,1.39l0,1c.79.58,1.52,1.51,2.37,1.65A1.69,1.69,0,0,0,185.62,102.39Zm-2.78,555.28a1.67,1.67,0,0,0,2-2c-.18-.88-1.07-1.62-1.64-2.42l-.92,0c-.5.85-1.43,1.73-1.36,2.52A2.84,2.84,0,0,0,182.84,657.67Zm2.79-545.22c-.1-.88-.94-1.68-1.45-2.52l-.92,0c-.56.8-1.56,1.61-1.55,2.4a2.85,2.85,0,0,0,1.78,2A1.68,1.68,0,0,0,185.63,112.45Zm403.15,1.9c.86-.11,1.62-1,2.43-1.56v-1c-.82-.54-1.66-1.53-2.44-1.48a2.94,2.94,0,0,0-1.93,1.9A1.7,1.7,0,0,0,588.78,114.35Zm-.89,549.23a1.7,1.7,0,0,0-1.84,2.18,2.89,2.89,0,0,0,2,1.8c.78,0,1.57-1,2.36-1.58,0-.32,0-.65,0-1C589.56,664.5,588.75,663.64,587.89,663.58Zm-1.84-186.82a2.9,2.9,0,0,0,1.86,2c.77.08,1.65-.88,2.48-1.38l0-1c-.79-.57-1.52-1.51-2.38-1.65A1.69,1.69,0,0,0,586.05,476.76Zm-403.42,2a1.77,1.77,0,0,0,2.26-1.81,1.84,1.84,0,0,0-1.91-2.22c-.83,0-1.63.82-2.44,1.27l-.11.9C181.15,477.54,181.79,478.53,182.63,478.76ZM588.76,134.22c.86-.1,1.63-1,2.44-1.53v-1c-.81-.54-1.64-1.53-2.42-1.49a2.92,2.92,0,0,0-1.95,1.88A1.69,1.69,0,0,0,588.76,134.22Zm-407.52,8.33c.8.56,1.54,1.48,2.4,1.61a1.68,1.68,0,0,0,2-2,2.89,2.89,0,0,0-1.89-1.94c-.77-.07-1.64.9-2.46,1.41Zm407.55,1.61c.86-.11,1.62-1,2.42-1.57v-1c-.81-.52-1.66-1.5-2.44-1.45a2.91,2.91,0,0,0-1.92,1.91A1.69,1.69,0,0,0,588.79,144.16Zm.25,45.68c-1.21-.34-2.15.46-2.26,1.8a1.83,1.83,0,0,0,1.9,2.22c.84,0,1.64-.82,2.45-1.27l.11-.89C590.52,191.05,589.88,190.07,589,189.84Zm-403.42,2a2.92,2.92,0,0,0-1.85-2c-.78-.08-1.66.87-2.49,1.37,0,.33,0,.65,0,1,.78.58,1.51,1.52,2.37,1.66A1.69,1.69,0,0,0,185.62,191.84Zm-1.84-7.92a1.7,1.7,0,0,0,1.84-2.19,2.93,2.93,0,0,0-2-1.81c-.78,0-1.57,1-2.36,1.59l0,1C182.1,183,182.91,183.85,183.78,183.92Zm405-9.94c.87-.1,1.64-1,2.45-1.54v-1c-.81-.54-1.64-1.54-2.42-1.5a2.88,2.88,0,0,0-1.94,1.89A1.68,1.68,0,0,0,588.76,174ZM539.84,45.71c.54-.77,1.41-1.48,1.54-2.31a1.69,1.69,0,0,0-2-2,2.9,2.9,0,0,0-2,1.89c0,.79.94,1.64,1.49,2.47ZM185.62,171.9a2.91,2.91,0,0,0-1.91-1.91c-.78-.06-1.63.92-2.45,1.45,0,.32,0,.64,0,1,.8.56,1.56,1.47,2.42,1.58A1.69,1.69,0,0,0,185.62,171.9Zm405.57-10.48c-.84-.5-1.72-1.45-2.49-1.37a2.92,2.92,0,0,0-1.86,2,1.69,1.69,0,0,0,2,2c.86-.14,1.58-1.08,2.36-1.66ZM185.62,162a2.93,2.93,0,0,0-1.91-1.91c-.78-.06-1.63.92-2.45,1.44v1c.8.55,1.56,1.46,2.42,1.58A1.69,1.69,0,0,0,185.62,162Zm-2.71,336.65a2.89,2.89,0,0,0,1.91-1.92,1.68,1.68,0,0,0-1.94-2.08c-.87.12-1.62,1-2.42,1.59v1C181.28,497.69,182.13,498.67,182.91,498.61Zm39.34,204.25a2.84,2.84,0,0,0-1.88,1.95,1.69,1.69,0,0,0,2.1,2c.84-.16,1.54-1,2.3-1.58v-.9C223.92,703.77,223.05,702.8,222.25,702.86Zm10.58-.44-.89,0c-.58.74-1.48,1.41-1.65,2.23-.26,1.27.59,2.14,1.94,2.22a1.8,1.8,0,0,0,2.09-2.06C234.22,703.94,233.36,703.2,232.83,702.42Zm-49.3-399.25a1.69,1.69,0,0,0,2.1-1.92c-.12-.88-1-1.66-1.5-2.49h-.92c-.54.81-1.53,1.63-1.5,2.42A2.85,2.85,0,0,0,183.53,303.17Zm405.3-13.91a2.86,2.86,0,0,0-2,1.83,1.68,1.68,0,0,0,1.87,2.15c.86-.08,1.65-.95,2.47-1.48l0-1C590.42,290.24,589.61,289.23,588.83,289.26ZM261.66,702.4c-.55.8-1.44,1.56-1.55,2.42a1.67,1.67,0,0,0,2.07,1.94,2.91,2.91,0,0,0,1.9-1.92c.05-.78-.93-1.62-1.47-2.44Zm9.84,0c-.51.83-1.37,1.61-1.45,2.48a1.67,1.67,0,0,0,2.14,1.86,2.88,2.88,0,0,0,1.84-2c0-.79-1-1.59-1.57-2.39ZM586.85,301.06a1.68,1.68,0,0,0,1.9,2.12c.86-.09,1.64-1,2.45-1.52v-1c-.8-.55-1.63-1.54-2.41-1.51A2.91,2.91,0,0,0,586.85,301.06ZM291.34,702.42c-.5.83-1.35,1.64-1.41,2.5a1.67,1.67,0,0,0,2.17,1.83,2.88,2.88,0,0,0,1.8-2c0-.78-1-1.57-1.6-2.35ZM586.05,456.88a2.88,2.88,0,0,0,1.86,2c.77.08,1.65-.87,2.48-1.38l0-1c-.79-.57-1.52-1.5-2.38-1.64A1.68,1.68,0,0,0,586.05,456.88ZM301.4,702.4c-.54.76-1.41,1.47-1.54,2.3a1.68,1.68,0,0,0,2,2c.79-.16,1.92-1.19,2-1.89s-.94-1.64-1.48-2.46ZM182.83,468.79a2.91,2.91,0,0,0,2-1.84A1.69,1.69,0,0,0,183,464.8c-.86.08-1.65,1-2.48,1.48l0,1C181.25,467.81,182.06,468.82,182.83,468.79Zm405.2,0c.77,0,1.59-1,2.39-1.53l0-1c-.82-.53-1.6-1.42-2.47-1.5a1.69,1.69,0,0,0-1.88,2.14A2.89,2.89,0,0,0,588,468.79ZM311.26,702.41c-.51.78-1.36,1.52-1.46,2.35a1.68,1.68,0,0,0,2.07,2,2.9,2.9,0,0,0,1.91-2c0-.79-1-1.61-1.57-2.41ZM590.39,555.69c-.83-.51-1.64-1.38-2.5-1.44a1.7,1.7,0,0,0-1.84,2.19,2.91,2.91,0,0,0,2,1.8c.78,0,1.57-1,2.36-1.59Zm-1.61-282.32c.86-.11,1.62-1,2.43-1.56,0-.32,0-.64,0-1-.81-.54-1.65-1.52-2.43-1.48a3,3,0,0,0-1.93,1.9A1.7,1.7,0,0,0,588.78,273.37Zm-403.16-2a2.9,2.9,0,0,0-1.86-2c-.78-.08-1.65.88-2.49,1.39l0,1c.79.58,1.52,1.51,2.37,1.65A1.69,1.69,0,0,0,185.62,271.34Zm263.62,431.4c-1.36,0-2.27.75-2.14,2,.09.83.93,1.59,1.44,2.38l.93.05c.58-.8,1.49-1.53,1.66-2.41C451.36,703.63,450.52,702.79,449.24,702.74ZM588,504.55a1.69,1.69,0,0,0-2,2.05,2.9,2.9,0,0,0,1.88,1.94c.78.07,1.64-.89,2.47-1.4,0-.33,0-.65,0-1C589.63,505.6,588.89,504.68,588,504.55ZM459.57,702.4h-.95c-.56.8-1.55,1.62-1.52,2.41s1.08,1.74,1.86,2a1.68,1.68,0,0,0,2.11-1.9C461,704,460.1,703.22,459.57,702.4Zm28.78,0c-.53.79-1.4,1.53-1.49,2.36a1.67,1.67,0,0,0,2.07,2,2.9,2.9,0,0,0,1.9-2c0-.78-1-1.6-1.55-2.41ZM182.92,514.49c-.86.1-1.64,1-2.45,1.52,0,.33,0,.65,0,1,.8.55,1.63,1.55,2.41,1.51a2.88,2.88,0,0,0,1.95-1.87A1.69,1.69,0,0,0,182.92,514.49ZM499.37,702.41l-.95,0c-.57.8-1.59,1.63-1.57,2.41a2.9,2.9,0,0,0,1.91,2,1.69,1.69,0,0,0,2.07-2C500.72,703.93,499.88,703.19,499.37,702.41Zm9.86,0h-1c-.54.81-1.53,1.65-1.49,2.43a2.91,2.91,0,0,0,1.89,1.93,1.68,1.68,0,0,0,2.09-1.93C510.65,704,509.77,703.21,509.23,702.4ZM185.62,261.34a2.92,2.92,0,0,0-1.93-1.91c-.78,0-1.62.94-2.44,1.48v1c.81.55,1.57,1.45,2.44,1.56A1.68,1.68,0,0,0,185.62,261.34ZM529.16,702.41l-.95,0c-.56.81-1.57,1.62-1.55,2.4a2.88,2.88,0,0,0,1.86,2,1.67,1.67,0,0,0,2.12-1.88C530.55,704,529.68,703.23,529.16,702.41Zm-346.25-178c-.86.1-1.63,1-2.45,1.54v1c.81.54,1.64,1.53,2.42,1.49a2.9,2.9,0,0,0,1.94-1.89A1.68,1.68,0,0,0,182.91,524.43Zm403.14,2.09a2.91,2.91,0,0,0,1.92,1.91c.78.05,1.62-.93,2.44-1.47v-1c-.8-.55-1.56-1.46-2.42-1.57A1.68,1.68,0,0,0,586.05,526.52Zm-46.9,175.9-1,0c-.57.79-1.59,1.59-1.59,2.37a2.89,2.89,0,0,0,1.82,2,1.68,1.68,0,0,0,2.16-1.84C540.51,704.05,539.65,703.25,539.15,702.42Zm46.9-165.89a2.9,2.9,0,0,0,2,1.83c.78,0,1.59-1,2.38-1.54,0-.33,0-.65,0-1-.83-.52-1.62-1.4-2.48-1.48A1.69,1.69,0,0,0,586.05,536.53ZM182.82,548.3a2.87,2.87,0,0,0,2-1.82,1.69,1.69,0,0,0-1.85-2.17c-.87.07-1.67,1-2.49,1.46l0,1C181.24,547.3,182,548.32,182.82,548.3Zm403.23-1.85a2.87,2.87,0,0,0,2,1.85c.77,0,1.59-1,2.39-1.53l0-1c-.82-.53-1.6-1.42-2.47-1.5A1.69,1.69,0,0,0,586.05,546.45Zm-403.13,7.8c-.86.09-1.64,1-2.45,1.52v1c.8.54,1.63,1.54,2.41,1.5a2.88,2.88,0,0,0,1.95-1.87A1.68,1.68,0,0,0,182.92,554.25ZM589,249.47a1.66,1.66,0,0,0-2.19,1.79,2.93,2.93,0,0,0,1.67,2.16c.76.15,1.73-.72,2.61-1.15,0-.31.07-.63.11-.94C590.52,250.68,589.88,249.7,589,249.47ZM183,564.19c-.86.06-1.67.93-2.5,1.44,0,.32,0,.64,0,1,.79.57,1.59,1.6,2.36,1.59a2.93,2.93,0,0,0,2-1.81A1.7,1.7,0,0,0,183,564.19Zm1.86,12.07c-.13-.89-1-1.68-1.49-2.51l-.92,0c-.55.81-1.54,1.63-1.51,2.43a2.85,2.85,0,0,0,1.8,2A1.68,1.68,0,0,0,184.84,576.26Zm405.56,9.29c-.82-.52-1.61-1.4-2.47-1.48a1.69,1.69,0,0,0-1.88,2.14,2.88,2.88,0,0,0,2,1.84c.78,0,1.59-1,2.39-1.53C590.42,586.2,590.41,585.87,590.4,585.55ZM182.92,594c-.86.1-1.64,1-2.45,1.52v1c.8.55,1.63,1.55,2.41,1.51a2.88,2.88,0,0,0,1.95-1.87A1.69,1.69,0,0,0,182.92,594Zm0,9.94c-.86.1-1.63,1-2.45,1.54v1c.81.54,1.64,1.53,2.42,1.49a2.9,2.9,0,0,0,1.94-1.89A1.68,1.68,0,0,0,182.91,603.94Zm403.14,2.17a2.91,2.91,0,0,0,2,1.83c.78,0,1.58-1,2.37-1.56l0-1c-.82-.51-1.62-1.38-2.48-1.46A1.7,1.7,0,0,0,586.05,606.11Zm2,11.76c.77,0,1.58-1,2.38-1.54,0-.32,0-.65,0-1-.82-.52-1.61-1.4-2.48-1.48a1.69,1.69,0,0,0-1.87,2.15A2.91,2.91,0,0,0,588,617.87Zm-406.79-366c.8.56,1.56,1.47,2.42,1.58a1.69,1.69,0,0,0,2-2.08,2.91,2.91,0,0,0-1.91-1.91c-.78-.06-1.63.92-2.45,1.45C181.26,251.27,181.25,251.59,181.25,251.91Zm407.5-8.36c.87-.1,1.64-1,2.45-1.52v-1c-.81-.54-1.63-1.54-2.41-1.5a2.91,2.91,0,0,0-1.95,1.87A1.68,1.68,0,0,0,588.75,243.55Zm-403.12-1.92c-.11-.88-1-1.67-1.48-2.5l-.92,0c-.55.81-1.54,1.63-1.52,2.42a2.84,2.84,0,0,0,1.81,2A1.69,1.69,0,0,0,185.63,241.63Zm-2.88,386.22a1.67,1.67,0,0,0,2.09-1.93c-.14-.88-1-1.66-1.53-2.49h-.92c-.54.82-1.51,1.66-1.48,2.45A2.87,2.87,0,0,0,182.75,627.85ZM232.61,45.7h.94c.55-.82,1.55-1.67,1.5-2.45a2.9,2.9,0,0,0-1.94-1.91,1.69,1.69,0,0,0-2,2C231.21,44.22,232.07,44.94,232.61,45.7ZM245,43.4a1.67,1.67,0,0,0-1.94-2.07c-.88.15-1.65,1-2.47,1.54v.92c.82.53,1.66,1.51,2.44,1.46A2.83,2.83,0,0,0,245,43.4Zm47.17,2.3h.94c.56-.81,1.58-1.64,1.54-2.43a2.87,2.87,0,0,0-1.93-1.93,1.69,1.69,0,0,0-2.05,2C290.83,44.2,291.69,44.92,292.21,45.7Zm19.88,0,.94,0c.56-.82,1.57-1.65,1.54-2.44a2.91,2.91,0,0,0-1.93-1.93,1.69,1.69,0,0,0-2.05,2C310.71,44.2,311.56,44.92,312.09,45.7Zm10.06,0,.9,0c.53-.78,1.41-1.51,1.51-2.35a1.79,1.79,0,0,0-2.06-2.07c-1.35.06-2.21.92-2,2.19C320.69,44.29,321.59,45,322.15,45.72Zm148.06,0c.56-.75,1.45-1.45,1.6-2.28a1.69,1.69,0,0,0-2-2.09,2.91,2.91,0,0,0-2,1.85c-.06.79.92,1.66,1.44,2.5Zm48.93,0,1,0c.49-.83,1.44-1.72,1.35-2.49a2.91,2.91,0,0,0-2-1.84,1.67,1.67,0,0,0-2,2C517.61,44.21,518.55,44.94,519.14,45.72Zm9.76,0,.94,0c.56-.8,1.58-1.63,1.54-2.41a2.92,2.92,0,0,0-1.9-2,1.68,1.68,0,0,0-2.07,2C527.51,44.17,528.38,44.91,528.9,45.69Zm59.81,54.73a2.9,2.9,0,0,0-1.87,2,1.69,1.69,0,0,0,2,2c.86-.14,1.59-1.07,2.38-1.64l0-1C590.36,101.3,589.49,100.34,588.71,100.42Zm-405.2,23.85a1.69,1.69,0,0,0,2.12-1.91c-.11-.87-1-1.66-1.48-2.49l-.92,0c-.55.8-1.54,1.62-1.52,2.41A2.83,2.83,0,0,0,183.51,124.27Zm405.25-4a2.93,2.93,0,0,0-1.92,1.91,1.7,1.7,0,0,0,1.95,2.09c.86-.12,1.62-1,2.42-1.58v-1C590.39,121.22,589.54,120.24,588.76,120.29Zm-405.7,9.53c-.49.84-1.42,1.72-1.34,2.51a2.83,2.83,0,0,0,1.93,1.88,1.68,1.68,0,0,0,2-2c-.17-.87-1.07-1.6-1.64-2.39Zm138.64,573c-.84.15-1.57,1-2.35,1.5l0,.91c.83.55,1.67,1.55,2.47,1.51a2.85,2.85,0,0,0,1.95-1.9A1.7,1.7,0,0,0,321.7,702.79ZM184.84,616c-.13-.89-1-1.67-1.51-2.5l-.92,0c-.54.82-1.52,1.66-1.49,2.45a2.81,2.81,0,0,0,1.82,2A1.67,1.67,0,0,0,184.84,616ZM549.72,45.72c.56-.75,1.45-1.45,1.6-2.27a1.69,1.69,0,0,0-2-2.1,2.91,2.91,0,0,0-2,1.85c-.06.79.92,1.66,1.44,2.5ZM469.45,702.39h-.95c-.53.83-1.52,1.7-1.46,2.48a2.89,2.89,0,0,0,2,1.87,1.68,1.68,0,0,0,2-2.07C470.87,703.85,470,703.15,469.45,702.39Zm10.08,0-.95,0c-.58.8-1.62,1.6-1.61,2.39a2.88,2.88,0,0,0,1.88,2,1.7,1.7,0,0,0,2.11-2C480.86,704,480,703.21,479.53,702.42ZM588,578.12c.77,0,1.62-.93,2.44-1.46,0-.32,0-.64,0-1-.81-.55-1.56-1.46-2.42-1.57a1.68,1.68,0,0,0-2,2.08A2.93,2.93,0,0,0,588,578.12Zm.86-394.2c.86-.13,1.6-1,2.39-1.62l0-1c-.83-.52-1.7-1.48-2.48-1.41a2.92,2.92,0,0,0-1.88,1.95A1.69,1.69,0,0,0,588.83,183.92Zm-.06,49.69c.86-.1,1.63-1,2.44-1.54v-1c-.81-.54-1.65-1.53-2.43-1.48a2.9,2.9,0,0,0-1.94,1.89A1.69,1.69,0,0,0,588.77,233.61ZM519.17,702.4h-.95c-.54.81-1.53,1.65-1.49,2.43s1.11,1.73,1.89,1.93a1.67,1.67,0,0,0,2.08-1.93C520.6,704,519.71,703.21,519.17,702.4ZM181.72,291.33a2.85,2.85,0,0,0,1.91,1.91,1.69,1.69,0,0,0,2-2c-.16-.88-1.06-1.61-1.62-2.41l-.93,0C182.58,289.67,181.64,290.55,181.72,291.33Zm3.1,165.61a1.68,1.68,0,0,0-1.94-2.08c-.86.11-1.62,1-2.42,1.58v1c.81.53,1.66,1.51,2.44,1.45A2.87,2.87,0,0,0,184.82,456.94ZM182.31,534c-.51.84-1.45,1.71-1.39,2.51a2.83,2.83,0,0,0,1.9,1.9,1.67,1.67,0,0,0,2-2c-.17-.88-1.05-1.63-1.61-2.43ZM588,488.67c.78.05,1.62-.94,2.43-1.47v-1c-.8-.54-1.56-1.45-2.43-1.55a1.68,1.68,0,0,0-1.93,2.09A2.88,2.88,0,0,0,588,488.67ZM182.87,508.55a2.9,2.9,0,0,0,1.95-1.88,1.69,1.69,0,0,0-1.91-2.12c-.86.1-1.63,1-2.45,1.53,0,.32,0,.65,0,1C181.26,507.59,182.09,508.58,182.87,508.55ZM591.2,260.86c-.83-.52-1.69-1.49-2.47-1.42a2.91,2.91,0,0,0-1.89,1.94,1.69,1.69,0,0,0,2,2.05c.86-.13,1.6-1.05,2.4-1.61ZM590.4,516c-.82-.53-1.6-1.41-2.46-1.5a1.7,1.7,0,0,0-1.89,2.15,2.88,2.88,0,0,0,2,1.84c.77,0,1.59-1,2.39-1.52C590.41,516.64,590.41,516.31,590.4,516ZM549,702.4h-1c-.55.81-1.54,1.64-1.51,2.42a2.92,2.92,0,0,0,1.89,1.94,1.68,1.68,0,0,0,2.09-1.92C550.41,704,549.53,703.21,549,702.4Zm-296.23,0-.94,0c-.58.79-1.62,1.59-1.61,2.37a2.93,2.93,0,0,0,1.86,2,1.68,1.68,0,0,0,2.12-1.93C254.12,704,253.27,703.23,252.77,702.43ZM590.4,565.64c-.83-.51-1.63-1.38-2.49-1.45a1.69,1.69,0,0,0-1.86,2.17,2.89,2.89,0,0,0,2,1.82c.77,0,1.58-1,2.37-1.57ZM185.63,281.29c-.15-.87-1-1.62-1.59-2.42l-.92,0c-.51.83-1.46,1.69-1.4,2.48a2.85,2.85,0,0,0,1.89,1.93A1.69,1.69,0,0,0,185.63,281.29Zm403.12,2c.86-.1,1.64-1,2.45-1.52v-1c-.8-.54-1.63-1.54-2.4-1.51a2.88,2.88,0,0,0-2,1.87A1.69,1.69,0,0,0,588.75,283.31ZM185.62,231.5a2.9,2.9,0,0,0-2-1.88c-.78,0-1.61.95-2.42,1.49,0,.32,0,.64,0,1,.81.55,1.58,1.44,2.44,1.54A1.69,1.69,0,0,0,185.62,231.5ZM590.4,645.18c-.82-.52-1.61-1.4-2.48-1.48a1.69,1.69,0,0,0-1.87,2.15,2.91,2.91,0,0,0,2,1.84c.78,0,1.59-1,2.38-1.54ZM588.79,154.1c.86-.11,1.62-1,2.42-1.57v-1c-.82-.53-1.67-1.5-2.45-1.45a2.91,2.91,0,0,0-1.92,1.91A1.69,1.69,0,0,0,588.79,154.1Zm-403.17-2.16a2.89,2.89,0,0,0-2-1.83c-.78,0-1.58,1-2.38,1.56l0,1c.83.52,1.62,1.4,2.49,1.47A1.69,1.69,0,0,0,185.62,151.94Zm-2,61.8a1.69,1.69,0,0,0,2-2,2.9,2.9,0,0,0-1.86-2c-.78-.08-1.65.87-2.49,1.37l0,1C182,212.66,182.76,213.6,183.62,213.74ZM586.05,596.05a2.91,2.91,0,0,0,1.89,2c.77.06,1.63-.9,2.46-1.42,0-.32,0-.64,0-1-.79-.57-1.53-1.49-2.39-1.62A1.69,1.69,0,0,0,586.05,596.05Zm0,59.64a2.89,2.89,0,0,0,1.89,1.94c.77.06,1.63-.9,2.46-1.42l0-1c-.79-.57-1.53-1.49-2.39-1.61A1.68,1.68,0,0,0,586.05,655.69ZM241.7,702.41c-.52.82-1.38,1.61-1.47,2.47a1.68,1.68,0,0,0,2.14,1.87,2.86,2.86,0,0,0,1.84-2c0-.78-1-1.59-1.56-2.39ZM586.05,496.77a2.93,2.93,0,0,0,2,1.84c.77,0,1.58-1,2.38-1.54,0-.33,0-.65,0-1-.82-.53-1.61-1.4-2.48-1.48A1.69,1.69,0,0,0,586.05,496.77ZM184.82,665.58a1.69,1.69,0,0,0-2-2c-.86.15-1.58,1.09-2.36,1.68,0,.32,0,.64,0,1,.84.5,1.73,1.44,2.5,1.36A2.91,2.91,0,0,0,184.82,665.58Zm-4.36-79c.8.54,1.63,1.53,2.41,1.5a2.91,2.91,0,0,0,1.95-1.87,1.69,1.69,0,0,0-1.9-2.13c-.87.1-1.64,1-2.46,1.53ZM281.39,702.42c-.5.84-1.34,1.65-1.4,2.52a1.68,1.68,0,0,0,2.18,1.81,2.85,2.85,0,0,0,1.79-2c0-.78-1-1.56-1.61-2.35ZM588.84,199.8a2.9,2.9,0,0,0-2,1.83,1.69,1.69,0,0,0,1.86,2.16c.86-.07,1.66-.94,2.48-1.46l0-1C590.43,200.8,589.62,199.78,588.84,199.8Zm-405.61-.45c-.55.81-1.54,1.63-1.52,2.42a2.86,2.86,0,0,0,1.8,2,1.7,1.7,0,0,0,2.12-1.92c-.11-.87-1-1.66-1.48-2.49ZM476.67,429.87c3.28-8.1,2.79-16.12-2.05-23.51-3.64-5.57-8.78-5.42-12.59.08-2.86,4.12-3.82,8.81-3.88,13.74,0,4.59.84,8.1,2.54,10.89a8.69,8.69,0,0,0,5.22,4.31C470.54,436.6,474.7,434.73,476.67,429.87Zm-6.2,2c.51-4.31,4.79-7.49,3.88-12.78l-3.41,1.25c-.68-3.43.86-7.57-2.58-10.73-3.25,3.11-2,7.14-2.57,10.67l-2.9-1.09-.7.4a17.58,17.58,0,0,0,.63,4c.8,2,2,3.89,2.92,5.85a17.9,17.9,0,0,1,.75,2.34c-3-1.12-5.14-6.2-5.16-11.92,0-7.55,2.72-13.47,7.26-15.18,5.17,2.67,6.21,7.73,6.77,12.9C476,423.51,473.84,430.61,470.47,431.86Zm-34.06,60.05c3.75.84,7.13-.14,9.46-3.47s2-6.95-.09-10.24a25.16,25.16,0,0,0-18.91-11.61c-8.23,0-11.36,4.15-8.75,10.41C421.53,485.13,427.89,490,436.41,491.91Zm-12-22.4c8.27.13,14.46,4.06,18.72,11.07a15.66,15.66,0,0,1,1.12,3.49c-3.62-2.65-3.89-7.84-8.71-10l-.95,3.44c-3.24-1.34-5.77-4.9-10.3-3.79.8,4.46,4.88,5.64,7.45,8.12l-2.54,1.69a3.9,3.9,0,0,0,3.5,2.65c1.95.33,3.94.47,5.9.76.94.15,1.85.48,2.77.72v.59a20.11,20.11,0,0,1-2.76.38c-7,0-16.11-6.75-18.16-13.43C419.25,471.35,420.42,469.45,424.4,469.51Zm66,40.52c.83-.15,1.53-1,2.29-1.58,0-.3,0-.61,0-.92-.85-.52-1.73-1.47-2.55-1.42s-1.71,1.18-1.83,2A1.71,1.71,0,0,0,490.36,510Zm-.65,6.67c.5-.78,1.35-1.54,1.43-2.36a1.77,1.77,0,0,0-2.21-1.89c-.72.14-1.81,1.26-1.76,1.85.09.85,1.05,1.62,1.64,2.43Zm-3.88,4.63c.67-.14,1.7-1.21,1.62-1.71-.14-.81-1.05-1.48-2-2.66-.9,1.18-1.76,1.81-1.82,2.5A1.71,1.71,0,0,0,485.83,521.33ZM481,524.5c.53-.7,1.52-1.44,1.47-2.1s-1.09-1.35-1.7-2c-.65.62-1.71,1.17-1.85,1.88s.78,1.47,1.24,2.22Zm-3.91-39c.82-.14,1.51-1,2.82-2-1.32-1-2-1.89-2.83-2-1.27-.21-2.1.68-2.11,2S475.84,485.68,477.1,485.47Zm-6.1-1.35a1.57,1.57,0,0,0-1.76,2,3,3,0,0,0,1.95,1.9c.68.09,1.5-.93,2.25-1.45v-.93C472.63,485.13,471.87,484.25,471,484.12ZM463.11,486a3.36,3.36,0,0,0,1.91,2c.41.15,1.27-.87,2.45-1.76-1.19-.94-1.9-1.91-2.67-2C464.23,484.21,463,485.53,463.11,486ZM307,258.9c2-3.29,2.47-6.94,2.51-12.2A22.07,22.07,0,0,0,305,233.48c-3.53-4.48-8.05-4.41-11.57.1a20.5,20.5,0,0,0-4,9.43c-.9,5.39-.79,10.74,2,15.65C295.16,265.28,303.12,265.35,307,258.9Zm-5.23,1c0-4.65,4.56-7.66,3.36-12.91l-3,1c-.48-2.95-1-6-1.52-9-.1-.5-.7-.9-1.26-1.58-3.47,3.15-2,7.26-2.61,10.83L293.85,247c-1.42,2-.54,3.6.15,5.13,1.09,2.46,2.31,4.88,3.57,7.5-2.92-.92-5.22-5.52-5.28-10.85-.07-6.33.68-12.44,7.12-16.61,1.28,1.16,2.8,2,3.6,3.33,4.22,6.89,4.52,14.09,1.12,21.39A16.65,16.65,0,0,1,301.79,259.93Zm20.12,46.14c-2.09,3.21-2.47,6.68-.19,10.07s5.72,4.47,9.57,3.63c8.33-1.81,14.54-6.58,18.07-14.36,3-6.57-.08-11-8.54-11A25.13,25.13,0,0,0,321.91,306.07Zm10.94-5.8c4.47-2.55,9.24-4.35,14.89-1.53-.22,1.6-.07,3.34-.7,4.73A21.45,21.45,0,0,1,330,316.41a17.33,17.33,0,0,1-3.64-.22c0-.24-.05-.47-.07-.71,1-.25,2.07-.57,3.12-.73,1.9-.3,3.84-.34,5.69-.8a16.92,16.92,0,0,0,3.49-1.73l0-.77L336,309.68c2.39-2.53,6.6-3.6,7.37-8.15-4.46-1.09-7,2.4-10.29,3.84l-.79-3.05c-2.49.1-3.31,1.79-4.23,3.27-1.34,2.18-2.59,4.43-3.87,6.64l-.65-.32C324.39,306.29,328.26,302.88,332.85,300.27Zm-53,36c0-.31,0-.62,0-.93-.77-.51-1.51-1.35-2.33-1.44a1.73,1.73,0,0,0-2.06,2,2.84,2.84,0,0,0,2,1.88C278.22,337.86,279.05,336.85,279.87,336.29Zm-.64,3.64-.89-.05c-.62.79-1.67,1.55-1.72,2.37a2.66,2.66,0,0,0,1.86,1.87,2.82,2.82,0,0,0,2-1.81C280.66,341.64,279.7,340.73,279.23,339.93Zm2.83,5.8a2.64,2.64,0,0,0-1.81,1.8c-.1.59.9,1.36,1.41,2.05h.87c.53-.77,1.48-1.54,1.47-2.31C284,346.7,282.7,345.68,282.06,345.73Zm3,4.36c.62.65,1.16,1.71,1.86,1.84s1.47-.78,2.21-1.23l0-.83c-.7-.54-1.44-1.56-2.1-1.51S285.75,349.47,285.08,350.09Zm3.69-38.89c.15.82,1.07,2,1.75,2.07s1.67-.88,2.5-1.38l0-1c-.8-.57-1.53-1.45-2.41-1.64A1.57,1.57,0,0,0,288.77,311.2Zm8,.78c-.83,0-1.61.84-2.41,1.3,0,.29-.07.59-.1.88.69.62,1.38,1.73,2.06,1.73a3,3,0,0,0,2.15-1.65A1.63,1.63,0,0,0,296.73,312Zm6.06,3.81c.79-.07,1.49-1,2.68-2-1.16-.86-2-1.88-2.44-1.73a3.22,3.22,0,0,0-1.89,1.95C301,314.51,302.26,315.85,302.79,315.79ZM371.57,86.22a5.46,5.46,0,0,0,2,.24v29.37a4.58,4.58,0,0,0-1.43.36,16.41,16.41,0,0,0-1.74,1.6,9,9,0,0,0,2.05,1.44,6.62,6.62,0,0,0,2.36.1q10.32-.21,20.63-.45c1.38,0,2.87-.24,2.89-2,0-1.92-1.55-2-3-2-.91,0-1.81,0-3.07,0,1-5,2-9.63,2.86-14.29s1.69-9.36,2.56-14.19c.41-.11.82-.1,1-.3.63-.63,1.18-1.34,1.76-2a11.19,11.19,0,0,0-2-1.54,4.53,4.53,0,0,0-2-.2c-6.88.12-13.76.24-20.63.4a23.13,23.13,0,0,0-4.34.4c-.61.14-1.57,1.07-1.49,1.45A3.15,3.15,0,0,0,371.57,86.22Zm23.06.42c-1.5,6.24-3,12.55-4.55,18.86l-.26,0c-.46-3.14-.84-6.29-1.41-9.4s-1.32-6.17-2.06-9.5Zm-11.42,0c1.32,9.46,2.62,18.77,4,28.34l-10,.56c-.29-9.72-.57-19.26-.86-28.9Z"/></svg>