<svg xmlns="http://www.w3.org/2000/svg" viewBox="0 0 750 750"><path d="M606.15,48.21a27.15,27.15,0,0,0-.45-5.33A21.87,21.87,0,0,0,583.76,25H187.24c-13.11,0-22.66,9.56-22.66,22.71V375.07q0,163.67,0,327.35a23.65,23.65,0,0,0,.57,5.51c2.54,10.55,11.23,17.07,22.64,17.07Q385.4,725,583,725a27.16,27.16,0,0,0,5.33-.46c10.93-2.22,17.88-11.09,17.88-22.78Q606.17,375,606.15,48.21Zm-4.26,653.41c0,11.56-7.47,19.1-18.93,19.1H187.6c-9.36,0-16.51-5.45-18.38-14.1a22.74,22.74,0,0,1-.35-4.74q0-163.49,0-327V47.53c0-8.94,5.45-16,13.94-17.87a18,18,0,0,1,3.95-.37H584.09a17.65,17.65,0,0,1,17.8,17.58c0,1.59,0,3.18,0,4.77ZM452.8,481.84c.42-2.94.63-5.91.95-9,18.15-6.52,30.69-18.73,35.44-37.64s.06-35.66-13.12-50.18l18.39-21.93c-10.15-12.32-20.14-24.42-30.13-36.53l.3-.59h30l-11.3-13.83c1.82-1.29,3.28-2.4,4.81-3.4a36.43,36.43,0,0,0,11.47-11.93c1.05-1.76,1.78-3.73.4-5.59s-3.46-2.07-5.58-1.69a13.14,13.14,0,0,0-7.79,4.81c-1,1.18-1.92,2.46-3.16,4.05.08-1,.14-1.48.16-2,.13-3.56.38-7.12.32-10.68,0-1.68-.75-3.34-2.83-3.53a3.42,3.42,0,0,0-3.77,2.88,62.89,62.89,0,0,0-1.19,8.77,24.94,24.94,0,0,0,.41,4.53,2.12,2.12,0,0,1-.95-.89c-6.11-9.91-9.17-20.79-10.14-32.3-.58-6.74-.28-13.37,2.7-19.65,2.35-4.94,6.71-7.75,11.64-7.33,5.44.46,9.35,3.83,10.69,9.39a12.51,12.51,0,0,1-.13,7.51c-.63-1.72-1.71-2.61-3.51-2.44a3.6,3.6,0,0,0-3.28,2.5,4.54,4.54,0,0,0,4.59,6,6.69,6.69,0,0,0,5.68-4.09c1.32-2.67,1.32-5.51,1.16-8.37-.36-6-4.42-11.64-9.49-13.35-8.32-2.81-16.73.59-20.14,8.67a43.91,43.91,0,0,0-3.16,12.23c-.82,7.55.18,15.07,1.9,22.47.74,3.19,1.64,6.35,2.47,9.52a12.7,12.7,0,0,1-2.07-2.86,131.51,131.51,0,0,1-14-37.26c-2.86-13.25-3.35-26.57.67-39.71,2.8-9.16,7-17.63,14.24-24.19,4.78-4.33,10.34-6.92,17-6.47,10,.68,13,9.16,11.63,16.33a7.23,7.23,0,0,1-6.24,5.88,8.78,8.78,0,0,1-2.57-.63c0-.19.07-.38.1-.57.56-.12,1.14-.21,1.69-.36a3.36,3.36,0,0,0,2.58-3.9c-.32-2.24-1.61-3.39-3.69-3.31a5,5,0,0,0-5,5.17c-.15,3.5,2.15,6.84,5,7.16a10.1,10.1,0,0,0,8.56-2.82c6.22-6,4.77-19.49-2.63-24.05-.17-.1-.34-.2-.52-.29a20.77,20.77,0,0,0-13.11-2.12c-8.36,1.39-14.82,5.94-19.81,12.55a63.4,63.4,0,0,0-11.35,24.74c-.57,2.55-1,5.14-1.58,8.22-1.05-6.19-1.89-11.86-3-17.48-.9-4.47-2-8.92-3.28-13.29a9.2,9.2,0,0,0-6.52-6.43c-3.58-1-8,.78-8.83,3.81a6,6,0,0,0,.58,3.86,2.68,2.68,0,0,0,2.56.62,9.65,9.65,0,0,0,2.24-3.21,6.58,6.58,0,0,0,.17-2.2c1.05.18,2.19,0,2.76.54,1.43,1.28,3.17,2.66,3.79,4.36,1.78,4.88,3.07,9.94,4.55,14.94l-.47.18c-.67-1.1-1.29-2.24-2-3.3a9.86,9.86,0,0,0-6.47-4.58c-2.56-.46-4.17.82-3.73,3.38a12.17,12.17,0,0,0,2.11,5c2.57,3.44,5.45,6.65,8.17,10,.83,1,1.53,2.12,2.28,3.18a7.33,7.33,0,0,1-2.54-1.43,14.44,14.44,0,0,0-8.73-2.83c-2.29,0-3.37,1.09-3.47,3.4a7.58,7.58,0,0,0,2.48,6.26,28.5,28.5,0,0,0,5.58,3.71c3.71,1.89,7.53,3.56,11.58,5.46,1.2,17.23,6.32,33.46,13.74,49.19-.25-.34-.5-.7-.77-1q-18.4-22.29-36.84-44.58c-4.6-5.55-8.81-11.55-14.1-16.36C392,207,374.05,202.8,354.41,209.49c-20.06,6.84-31.9,21.3-35.59,42.25-.48,2.71-.57,5.49-.84,8.27-16.5,5.84-28.29,16.56-34.07,33.07s-3.59,32.36,5.76,47.3l-18.19,21.69c10.2,12.36,20.22,24.53,30.25,36.69l-.3.53H271.38l5.6,6.83c1.8,2.18,3.59,4.37,5.57,6.78-1.73,1.2-3.22,2.27-4.74,3.29a34.93,34.93,0,0,0-11.57,12.35c-2.16,4-.07,7.17,4.42,6.84a8.93,8.93,0,0,0,4.47-1.39,63,63,0,0,0,6-5.66,13.6,13.6,0,0,0,1.14-1.46,5,5,0,0,1,.11,1.9c-.07,3.69-.29,7.39-.05,11.06.06,1,1.37,2.27,2.41,2.69,1.5.6,2.89-.39,3.54-1.83a14.69,14.69,0,0,0,1.44-4.7c.22-3.19.06-6.4.06-9.59.15.21.38.51.58.83,7.43,12.09,10.47,25.36,10.43,39.43a31,31,0,0,1-3.28,13.4,10.84,10.84,0,0,1-7.59,6.18c-4.35,1-8.28.15-11.43-3.27-3.3-3.58-4.3-10.59-2.76-13.23,1.52,2.82,4.08,3.35,6,1.21,1.32-1.49,1.19-3.18.44-4.84a4,4,0,0,0-4.18-2.45,6.58,6.58,0,0,0-5.73,4,14.61,14.61,0,0,0-1.17,8.55c.7,5.79,3.15,10.65,8.8,13a15.6,15.6,0,0,0,20.74-8.31,41.61,41.61,0,0,0,3.22-12.61c.86-10.68-1-21.11-4.45-31.25a10.18,10.18,0,0,1-.28-1.12,18.69,18.69,0,0,1,2.29,3.31,132.24,132.24,0,0,1,11.69,28C317,480,318.73,493.08,317,506.45a59.71,59.71,0,0,1-12.65,30.24c-4.9,6.12-11.09,10.34-19.28,10.37-10.28,0-14.39-7.23-13.1-16.1a7,7,0,0,1,6-6.06,7.88,7.88,0,0,1,2.71.52l-.11.63c-.62.16-1.25.27-1.85.47a3.29,3.29,0,0,0-2.31,3.88c.36,2.19,1.52,3.22,3.58,3.18,3-.07,5-2.11,5.05-5.24.1-3.66-2.25-6.77-5.33-7.05-5.14-.48-9.77,2.71-11.5,7.92a16.26,16.26,0,0,0,14.92,21.58c10,.29,17.72-4.47,23.77-12a61.76,61.76,0,0,0,12-25.31c.62-2.66,1-5.36,1.55-8a2.77,2.77,0,0,1,.5,1.38c1.51,8.33,2.88,16.7,4.64,25a20.21,20.21,0,0,0,3.38,7.5,7.91,7.91,0,0,0,10.51,2.2,5.13,5.13,0,0,0,3-4.95,2.62,2.62,0,0,0-2.13-2.75,2.47,2.47,0,0,0-3.06,1.6,25.75,25.75,0,0,0-.78,3.66,4.94,4.94,0,0,1-5.87-3.32c-2-5.31-3.54-10.79-5.26-16.21l.58-.19c.76,1.23,1.47,2.5,2.3,3.68a9.53,9.53,0,0,0,5.67,4.08c3.19.74,5.06-1,4.17-4.1a15.43,15.43,0,0,0-2.61-5.08c-2.5-3.25-5.26-6.3-7.88-9.46-.72-.87-1.32-1.85-2-2.77a3.25,3.25,0,0,1,1.89.88,14.74,14.74,0,0,0,8.15,3.34c3.47.41,5.14-1.11,4.59-4.56a9.18,9.18,0,0,0-2.15-4.75,22.7,22.7,0,0,0-5.79-4.06c-3.74-1.95-7.63-3.63-11.61-5.49-1.2-17-6.18-32.84-13.53-48.07a10.48,10.48,0,0,1,1.31,1.36c6.16,7.46,12.36,14.88,18.47,22.38,10.49,12.9,20.91,25.85,31.39,38.75a53.89,53.89,0,0,0,5.57,6.2c13.48,12.11,29.15,16.71,47,13.41C432.07,521.23,449.76,503,452.8,481.84Zm42.74-189.26-11.21,12C485.07,299.55,490.9,293.19,495.54,292.58Zm-64.61-92.82c5.32,1.86,6.42,6.3,7.91,10.46Zm1.22,18.64c4.11.57,6.46,3.48,8.71,6.56ZM270.66,432.07l11.15-11.94C279.67,425.57,277.07,430.58,270.66,432.07Zm64.06,92.42c-3,.56-6.55-5.47-7.67-10.19C329.71,517.84,332.21,521.17,334.72,524.49ZM334,506.43c-4.09-.53-6.43-3.45-8.66-6.52Zm150.88-92c4.28,28-15.87,48-31.21,51.83-1.64-5.49-3.27-11-5-16.75l14.51,7.57c-1-5.9-1.9-11.53-2.84-17.21a28.82,28.82,0,0,0,5.19.43,64.9,64.9,0,0,0,7.16-1.34c2.5-.53,5-1.13,7.81-1.77-4.13-5.74-5.86-13.44-13.88-16.42l10.94-10.36c-.1-.52-.2-1.07-.33-1.78l-15.59-2.46c.72-2.7,1.53-5.31,2.09-8a21.14,21.14,0,0,0,.09-4.14c0-2.74,0-5.48,0-8.58-6.06,2.65-13.42,2.41-18.34,8.47-2-4.14-3.89-8.05-5.87-11.9a12.2,12.2,0,0,0-2.08-2.23c-2.67,5.29-5.05,10-7.57,15.06-4.75-6.9-12.59-6.66-19.3-9.49.16,2.41.38,4.48.42,6.55s-.4,4.13-.09,6.11a77.14,77.14,0,0,0,2.07,8.1l-15.31,2.35L409,420.26H390.31a44.55,44.55,0,0,1,6.44-22.66,46.46,46.46,0,0,1,30.37-22.28A47.41,47.41,0,0,1,484.85,414.41Zm-68.2-18.3a26.62,26.62,0,0,0,3.34,4.6,50.35,50.35,0,0,0,4.39,3.81c-2.09.34-3.87.65-5.66.93a3.4,3.4,0,0,1-4-2.24,14.94,14.94,0,0,1-1.26-4.94c-.1-2.82.24-5.64.41-8.61,4.68.58,9.06,1.43,12.59,4.57,2.07,1.83,2.23,3,1,5.56-.51,1-1,2.11-1.68,3.51-1.53-2.58-2.8-4.86-4.22-7.06a7.32,7.32,0,0,0-2.28-2.38,2.54,2.54,0,0,0-2.3.18A2.12,2.12,0,0,0,416.65,396.11Zm10.79,11.7,10.5-21c1.32,2.6,2.53,4.93,3.69,7.28,2,4.1,3.93,8.25,6.06,12.28a3.93,3.93,0,0,0,2.51,1.75c6.87,1.1,13.78,2,21.34,3.14l-16.89,16.42c1.28,7.61,2.54,15.07,3.87,23-2.1-1-3.84-1.9-5.57-2.78a45.48,45.48,0,0,1-5.06-2.73,22.58,22.58,0,0,1-5.1-4.24,53.85,53.85,0,0,0-25.5-18.21,4.43,4.43,0,0,1-1.6-.73c-3.7-3.4-7.35-6.84-11-10.27l.18-.74ZM458,393.89c-2.32-.86-3.5.17-4.4,1.57-1.33,2-2.55,4.17-4.07,6.69l-3-5.88c3.53-5,8.76-5.75,14.23-6.67.05,4,1.16,7.86,0,11.75-1,3.44-2.44,4.34-6.09,3.74-1.26-.21-2.52-.36-4-.57C453.42,401,458.71,399.4,458,393.89ZM469.18,430c-1.94-.8-4-1.38-6-2-.8-.26-1.63-.45-3.24-.89a42.62,42.62,0,0,1,4.38-3.73,3.29,3.29,0,0,1,2.6.11c3,1.3,4.92,3.74,6.45,6.48.9,1.59,1.51,3.34,2.43,5.44-3.56.89-6.69,2.05-9.92,2.41-4.78.54-5.82-.44-6.86-5.06-.28-1.24-.37-2.53-.63-4.37,1.58,1.13,2.68,2,3.9,2.76a46.16,46.16,0,0,0,5.4,2.82c1.17.49,2.65.59,3.2-1S470.38,430.46,469.18,430Zm11.12-143.9c-.31,3.31-.63,6.63-1,10.5C478.56,292.6,478.75,289.27,480.3,286.06Zm-57.66-12.81a56,56,0,0,0,.68-24.41c-.07-.38-.12-.76-.19-1.13l.51-.35C443.83,271.81,464,296.25,484.5,321a13.3,13.3,0,0,1-1.52.23H460l-8.1-9.79q-14.2-17.24-28.45-34.45A3.77,3.77,0,0,1,422.64,273.25Zm-58.23-60.94a47.37,47.37,0,0,1,54.1,41.31c3.28,26.67-15.72,46.26-31.38,50.35-1.69-5.62-3.35-11.1-5.06-16.8l14.54,7.6c-1-6-2-11.66-3-17.52,5.14,1.63,9.88.57,14.58-1.27a15.4,15.4,0,0,1,3.5-.53l2.54-.27c-3.8-4.86-5.26-10.75-10-14.36-1.15-.87-2.45-1.55-4-2.49L411,248.1c-.12-.59-.22-1.08-.37-1.84L395,243.89c.73-2.53,1.64-5.1,2.19-7.75a23.2,23.2,0,0,0,.07-4.72v-8.21c-6.07,2.55-13.29,2.49-18.32,8.38l-6.49-13.19-1.77-.3-7.28,14.53c-4.72-7-12.61-6.62-19.28-9.6.19,2.43.44,4.44.48,6.44,0,2.17-.4,4.39-.09,6.51a68.83,68.83,0,0,0,2.08,7.89l-15.4,2.29L342.4,258H324C323.07,241.79,336,216.57,364.41,212.31Zm-14.16,21.83a33.3,33.3,0,0,0,3.89,4.91,42.71,42.71,0,0,0,3.79,3.26l-7.54,1.06c-5.32-4.59-3.09-10.36-3.1-16,5.25.6,10.14,1.56,13.71,5.76a3,3,0,0,1,.35,3.67c-.7,1.25-1.31,2.54-2,3.9-3.18-3-3.17-8.65-9.12-9.75C350.21,232.31,349.83,233.47,350.25,234.14Zm10.64,11.38,10.56-21.06,6.83,14a20.53,20.53,0,0,1,1.07,2.34c1.22,3.59,3.41,5.35,7.48,5.62,5.89.39,11.72,1.61,18.13,2.56L388.11,265.4c1.28,7.63,2.52,15.06,3.76,22.49l-.45.34c-5.51-3.65-12.15-5.2-16.51-11-6.05-8.07-14.34-13.44-23.93-16.7a4.88,4.88,0,0,1-1.63-.68c-3.8-3.47-7.55-7-11.31-10.49l.19-.61ZM391,231.66a3.41,3.41,0,0,0-3.1.64,35.79,35.79,0,0,0-3.52,5.24c-.45.72-.81,1.49-1.35,2.49l-2.86-5.74c1.22-3.93,8.73-6.74,14.17-6.74a103,103,0,0,1-.09,11c-.4,3.78-2.41,4.93-6.12,4.3-1.26-.22-2.53-.36-4.33-.61,1.54-1.31,2.76-2.19,3.78-3.26a39.23,39.23,0,0,0,3.65-4.38C391.9,233.65,392.31,232.19,391,231.66Zm12.35,36.58a60.63,60.63,0,0,0-6.61-2.56c-.85-.3-1.75-.47-3.18-.85a31.09,31.09,0,0,0,3-2.81c1.38-1.72,3-1.76,4.5-.53A32.89,32.89,0,0,1,406.4,267c1.22,1.65,1.83,3.75,2.81,5.86-4,1.13-7.51,3.07-11.61,2.81-3.24-.2-4.28-1.15-4.85-4.45a18.08,18.08,0,0,1-.4-4.82,33.24,33.24,0,0,0,3.46,2.49,39,39,0,0,0,6,2.84,2.57,2.57,0,0,0,2.37-1A2.63,2.63,0,0,0,403.36,268.24Zm-117.1,42.19A47.66,47.66,0,1,1,334,358.13,47.79,47.79,0,0,1,286.26,310.43Zm-.48,128.23c.31-3.24.63-6.47.94-9.71A13.78,13.78,0,0,1,285.78,438.66Zm62.74,45.79-.48.27L281.33,404h24.72q21.75,26.36,43.7,53A56.74,56.74,0,0,0,348.52,484.45ZM277.61,362.1c5-5.94,9.89-11.74,14.84-17.63,16.61,17.68,36.41,24.4,59.35,16.13s34-25.78,35.44-50.14c15-5.08,26.09-14.91,33-29.89C443,308.18,465.6,335.51,488.33,363l-15.65,18.61c-17.68-13.58-36.84-17.16-57-7.8s-30.1,26.09-31.11,48.51A54.87,54.87,0,0,0,365,433.55a55.48,55.48,0,0,0-13.27,18.26Zm75.18,110.68a47.66,47.66,0,1,1,47.58,47.61A47.84,47.84,0,0,1,352.79,472.78ZM194.62,671.71V418.82l-4.13,3.05v253.4c12.51,2.29,20.94,8.41,21.83,22.16a12.54,12.54,0,0,0,1.46.16q58.83,0,117.66,0c3.22,0,4.43-2.47,6.3-4.34H216C213.32,681.66,206.9,673.93,194.62,671.71ZM580.36,421.86l-4.29-3.17V671.75c-12.22,2.28-18.56,10-21.27,21.6H432.7c2.52,2.65,4.72,4.63,8.51,4.31,4.53-.39,9.13-.1,13.7-.09h102c.58,0,1.15-.08,1.66-.12.89-13.78,9.34-19.89,21.83-22.21Zm-24.75-367c2.76,11.53,9.07,19.17,21.37,21.49v243l4.19-3.13V72.84c-12.57-2.26-21-8.48-21.87-22.2a13.56,13.56,0,0,0-1.39-.13c-38.95,0-77.91.08-116.86-.06-3.59,0-5.12,2.27-7.34,3.95l.15.49ZM191.28,72.57V316.3l4.3,3.18V76.36c12.22-2.28,18.57-10,21.26-21.6H339c-2.63-2.58-4.79-4.64-8.59-4.31-4.6.39-9.27.09-13.9.09l-102,0c-.5,0-1,.11-1.82.2.69,6.18-1.94,11-6.14,15.09A23.31,23.31,0,0,1,191.28,72.57ZM415,76.17H355.48v49.68H415Zm-4.11,45.41H359.8V80.41h51.1Zm-116,53a9,9,0,0,1,4.82,6.87c.57,4.33,1.3,8.64,2,12.95.44,2.75.92,5.49,1.39,8.23a1.58,1.58,0,0,0,.71-1.08c1.05-6.54,2.24-13,3.08-19.62.44-3.44,2-6,5-7.32,3.74-1.6,7.71-2.66,11.59-3.92a13.36,13.36,0,0,1,1.78-.36,12.36,12.36,0,0,0-3-1c-3.61-1.23-7.27-2.37-10.74-3.93a7.65,7.65,0,0,1-4.46-6.18c-1-6.68-2.08-13.34-3.14-20-.09-.54-.26-1.07-.38-1.6a3.68,3.68,0,0,0-.75,1.87c-.95,5.88-2.21,11.74-2.75,17.65-.49,5.36-3.42,8.32-8,10-3.46,1.24-7.06,2.09-11,3.22l2.1.36A33.35,33.35,0,0,1,294.85,174.57Zm207,359.27c-4.33-.79-8.52-2-12.2-4.49a8.21,8.21,0,0,1-3.75-5.82c-.54-3.93-1.17-7.85-1.8-11.78-.51-3.21-1.07-6.43-1.61-9.64h-.4a4.53,4.53,0,0,0-.32.84c-1.06,6.53-2.28,13.05-3.09,19.61a9.45,9.45,0,0,1-5.24,7.65,21.8,21.8,0,0,1-4,1.8c-3.06.92-6.18,1.67-9.59,2.57,1.06.21,1.82.37,2.59.51,4.33.78,8.52,1.94,12.22,4.45a8,8,0,0,1,3.77,5.57c.66,4.45,1.38,8.89,2.09,13.33.46,2.82.95,5.63,1.43,8.44a2,2,0,0,0,.74-1.3c1.05-6.47,2.19-12.92,3.07-19.41.41-3,1.61-5.44,4.25-6.75a91.36,91.36,0,0,1,9.53-3.8,34.24,34.24,0,0,1,4.43-1A5,5,0,0,0,501.9,533.84ZM355.31,639.76c1.17,5,2.12,10.09,3.26,15.12a6.78,6.78,0,0,0,1.46,3,2.56,2.56,0,0,0,2.24.7,2.8,2.8,0,0,0,1.2-2c1.41-10.34,1.11-20.74,1.09-31.13a14,14,0,0,0-.32-3.16,8.24,8.24,0,0,0-1-1.94c-2.06,1.16-1.73,2.88-1.79,4.26-.27,6.35-.39,12.7-.57,19.05,0,.5-.07,1-.11,1.59-1.29-4.19-2.44-8.26-3.82-12.25s-3-8-4.54-12c-2.45.39-2.72.57-3.05,2.25a17.17,17.17,0,0,0-.37,3.34q.17,14.19.42,28.39a7.17,7.17,0,0,0,.53,2.69,2,2,0,0,0,1.5,1,2.22,2.22,0,0,0,1.43-1.1,3.51,3.51,0,0,0,.22-1.73q-.19-10.53-.42-21c0-.79,0-1.57,0-2.36A34.25,34.25,0,0,1,355.31,639.76Zm-26.77-6.91c2.08-7.77-3.46-13.58-11.42-12.48-1,.15-2.07.37-3,.53L312.61,619l-.66,0c-.43,1.21-.85,2.42-1.3,3.7a10.18,10.18,0,0,0-2,1.5,82.22,82.22,0,0,0-5.13,6.68,2.09,2.09,0,0,0,.63,3.25l5.9-6.94.71.38c0,.71,0,1.42,0,2.13-.22,9.07-.46,18.14-.66,27.21a5.48,5.48,0,0,0,.31,2.51,2.39,2.39,0,0,0,1.74,1.21,2.43,2.43,0,0,0,1.58-1.42,7.17,7.17,0,0,0,.18-2.55c0-2.89,0-5.79,0-8.64C322.26,646.09,326.54,640.34,328.54,632.85Zm-14.58,11V625.21a8,8,0,0,1,6.9-.49,6.09,6.09,0,0,1,3,2.92C326.09,633.07,319.88,643.68,314,643.83Zm82.11,2.58c-1-7.68-1.87-15.37-2.86-23a15.84,15.84,0,0,0-1-3l-.75-.11a8.68,8.68,0,0,0-1.29,1.91c-.83,2.37-1.59,4.77-2.25,7.19-1.37,5.1-2.66,10.21-3.92,15.09-1.58,1-4.24-.22-4.24,2.36,0,.84,1.72,1.68,2.92,2.76-.48,2-1.13,4.48-1.68,7-.3,1.37-1.48,3.25.82,3.78s2.19-1.66,2.57-3c.77-2.78,1.42-5.6,2.13-8.48h6.08c.13.53.24.91.31,1.3.45,2.61.79,5.24,1.41,7.81.16.65,1.22,1.07,1.86,1.6.51-.65,1.26-1.25,1.46-2a6.74,6.74,0,0,0-.2-2.54C397,652.15,396.44,649.29,396.07,646.41Zm-8.32-2.24q1.47-5.86,2.95-11.73l.32,0c.4,3.83.79,7.66,1.21,11.69Zm-117.14-6c-1.84,1.24-1.61,3.21.38,4.26a10.63,10.63,0,0,0,3.35,1.18c3.29.48,6.62.8,9.89,1.18-.63,1.59-1.45,3.32-2,5.12-.43,1.44-.41,3.23,1.18,3.79a4.39,4.39,0,0,0,3.76-.55,33.63,33.63,0,0,0,5.7-6.74c4.94-8.14-1.22-15.77-7.37-18.29a3.64,3.64,0,0,0-3.22.5c-.64.63-.7,2.15-.54,3.21a16.21,16.21,0,0,0,1.37,3.54c-2.82.34-5.53.53-8.18,1A12.1,12.1,0,0,0,270.61,638.18Zm14.81,12.55-.57-.3,2.71-6.31,3.79-.87C289.76,646.44,288,649,285.42,650.73ZM291,636.5c-4.11-.22-5.93-1.77-6.69-5.68C286.42,630.66,289.5,633.27,291,636.5Zm.58,3.72c-6.16,2.09-12.38,1.77-18.63.24A29.82,29.82,0,0,1,291.6,640.22Zm135.94,58.29a10.19,10.19,0,0,0-3.9-1.32c-2.58-.43-5.2-.65-7.91-1a14.7,14.7,0,0,0,1.33-3.31c.17-1.13.23-2.83-.43-3.4a4,4,0,0,0-3.57-.42,14.8,14.8,0,0,0-8.52,9.62c-1.62,5.55,3.19,12.51,6.93,15.25,1.21.88,2.57,1.58,4,.66s1.54-2.61,1.09-4.1c-.5-1.69-1.31-3.3-2.09-5.21a23.19,23.19,0,0,0,3.45,0c3.12-.49,6.26-1,9.31-1.75a3.24,3.24,0,0,0,2-2.29A4,4,0,0,0,427.54,698.51Zm-12.91-7.36c-1.15,4.59-2.59,6.17-6.91,6.22A13,13,0,0,1,414.63,691.15Zm-1.19,20.46a20,20,0,0,1-5.93-7.56l3.81.9,2.73,6.31Zm-6.19-10.56a30.48,30.48,0,0,1,18.68.18C419.67,702.87,413.44,703.15,407.25,701.05ZM346.12,50.46c3.15.64,6.36,1,9.75,1.56a13.27,13.27,0,0,0-1.29,3.18c-.16,1.13-.22,2.83.44,3.4a4,4,0,0,0,3.56.42,14.88,14.88,0,0,0,8.48-9.4c1.77-5.7-3.14-12.78-7-15.54-1.22-.88-2.59-1.51-4-.52s-1.41,2.51-1,3.94a33.49,33.49,0,0,0,1.55,3.84c.19.45.38.9.44,1-3.74.53-7.41.92-11,1.6-1.69.32-3.81.85-3.76,3.14S344.31,50.08,346.12,50.46Zm11.17,6.39c-.24-3.33,2.17-5.58,6.78-6.18C362.24,53.49,360.34,55.75,357.29,56.85Zm1.23-20.53,5.62,7.06c-.13.19-.27.37-.41.55l-3.37-.74c-.9-2-1.83-4.16-2.77-6.28Zm5.88,10.74a30.12,30.12,0,0,1-18.68-.2A32,32,0,0,1,364.4,47.06ZM179.12,345.65c8.12,5,15.7-.94,18.37-7.16a3.92,3.92,0,0,0-.49-3.4c-.56-.64-2.16-.66-3.22-.49a15.36,15.36,0,0,0-3.36,1.3c-.54-3.4-1-6.67-1.63-9.89-.36-1.75-1.12-3.64-3.29-3.7s-2.77,1.94-3.08,3.57c-.7,3.68-1.13,7.4-1.67,11.16a48.45,48.45,0,0,0-4.66-1.89c-1.47-.45-3.1-.56-4.14,1a3.11,3.11,0,0,0,.66,4.16A39.28,39.28,0,0,0,179.12,345.65Zm16.1-8.52c-1,3.33-3.36,5.11-6.09,7C189.13,339.6,191.05,338.11,195.22,337.13Zm-10-11.33a30,30,0,0,1,.24,18.64C183.35,338.28,183.69,332.06,185.22,325.8Zm-10,11.88,6.29,2.73c.3,1.26.53,2.28.88,3.78-3.17-1.6-5.71-3.29-7.48-5.95ZM357.64,689a3.87,3.87,0,0,0-3.41.47c-.64.55-.67,2.15-.51,3.21a16.71,16.71,0,0,0,1.36,3.53c-2.75.32-5.32.51-7.86.95a11.61,11.61,0,0,0-4.08,1.43,3.68,3.68,0,0,0-1.61,2.62c0,.77,1.07,1.7,1.88,2.24a6.63,6.63,0,0,0,2.79,1c3.32.46,6.66.81,10,1.19-.65,1.64-1.45,3.31-2,5.07-.42,1.44-.37,3,1.11,3.91a3,3,0,0,0,3.84-.54,42,42,0,0,0,5.48-6.45C369.85,699.44,363.94,691.73,357.64,689Zm-.27,22.53-.56-.3,2.71-6.29,3.73-.89A17.22,17.22,0,0,1,357.37,711.55Zm-12.46-10.34a30.36,30.36,0,0,1,18.64-.16A31.43,31.43,0,0,1,344.91,701.21Zm14-4.5-3.11-5c2.57-.18,5.57,2.36,7.25,5.85ZM182.54,407.1c.29,1.53,1,3.26,3,3.21s2.66-1.76,3.2-3.34a17.11,17.11,0,0,0,.83-3.46c.29-2.22.45-4.46.69-6.93a16.66,16.66,0,0,0,3.56,1.43c1.06.16,2.66.14,3.22-.5a3.88,3.88,0,0,0,.49-3.38,14.74,14.74,0,0,0-9.47-8.66c-5.73-1.79-12.77,3.12-15.55,7-.88,1.22-1.51,2.58-.52,4s2.5,1.42,3.94,1a34.24,34.24,0,0,0,3.84-1.55c.45-.18.89-.38,1-.42C181.31,399.45,181.8,403.3,182.54,407.1Zm12.67-12-.49.66-4.89-2.9c-.33-1.58-.57-2.79-.9-4.38C191.93,390.18,194.06,392.18,195.21,395.11Zm-9.51-7.34a37.85,37.85,0,0,1-.1,19.37C183.33,404.18,183.41,391.31,185.7,387.77Zm-10.41,7.16-.39-.63a19.48,19.48,0,0,1,7.51-5.87c-.33,1.46-.56,2.48-.85,3.74ZM488.05,643.69c3-.34,6-.57,9-1.14,1.74-.34,4-.8,3.9-3.21-.06-2.24-2.09-3-3.91-3.32-3.16-.64-6.36-1-9.71-1.55a15.46,15.46,0,0,0,1.36-3.41c.16-1.06.11-2.66-.54-3.21a3.94,3.94,0,0,0-3.4-.45,14.5,14.5,0,0,0-8.55,9.32c-1.23,4.08.12,7.74,2.58,10.92a24.12,24.12,0,0,0,5.47,5.3c2.06,1.39,4.19-.12,4.05-2.63a12.75,12.75,0,0,0-.9-3.61,25.35,25.35,0,0,0-1.5-3A21.33,21.33,0,0,0,488.05,643.69Zm-2.22-14,.62.44-2.85,4.94-4.46.89C480.9,633,482.88,630.78,485.83,629.67ZM485,650c-2.61-1.79-4.34-4.31-6-7.52l3.8.91c.89,2.06,1.81,4.18,2.72,6.3Zm-6.52-10.24c3.35-2.32,15.79-2.23,19.43.22A40.9,40.9,0,0,1,478.52,639.71ZM589.66,335c-.47-3.32-.88-6.65-1.52-9.94-.26-1.35-1-2.71-2.71-2.74s-2.56,1.34-3,2.72a29.66,29.66,0,0,0-1.22,5.19c-.3,1.9-.37,3.84-.55,5.85a15,15,0,0,0-3.48-1.41c-1.13-.14-2.75-.12-3.37.55a3.78,3.78,0,0,0-.39,3.4,14.87,14.87,0,0,0,9.35,8.53c5.73,1.82,12.67-3,15.59-6.89.88-1.19,1.55-2.57.61-4s-2.61-1.51-4.1-1.06c-1.68.5-3.28,1.31-5.18,2.08A16.78,16.78,0,0,0,589.66,335Zm-14,2.47.44-.6,4.92,2.88.92,4.49C579,342.34,576.69,340.43,575.66,337.43Zm9.75,7a30.53,30.53,0,0,1,.15-18.67A31.69,31.69,0,0,1,585.41,344.47Zm10.18-6.8.37.63a19.51,19.51,0,0,1-7.51,5.87c.31-1.41.54-2.46.83-3.76ZM414.4,59.26c2.58.94,4.39-.85,3.67-3.51a34.28,34.28,0,0,0-1.52-3.86c2.69-.32,5.31-.52,7.89-1a12.54,12.54,0,0,0,4.26-1.51c2.3-1.38,2.12-3.53-.27-4.71a10.22,10.22,0,0,0-3-1c-3.32-.48-6.65-.82-9.95-1.2.61-1.56,1.42-3.28,2-5.09.43-1.44.43-3.23-1.16-3.81a4.36,4.36,0,0,0-3.77.53,35.32,35.32,0,0,0-5.88,7.11C401.82,49.4,408.62,57.18,414.4,59.26Zm-.5-22.93.91.54-2.64,6.25-3.36.81-.53-.52Zm12.82,10.52a30.56,30.56,0,0,1-18.68.24C414.23,45,420.46,45.25,426.72,46.85Zm-11.43,10c-3.25-1-5-3.41-7-6.23C413.06,51.37,415,53.13,415.29,56.84Zm183,335.57a42.69,42.69,0,0,0-7-5.68c-8.08-4.77-15.79,1.74-18,7.67a3.49,3.49,0,0,0,.52,3.05,3.85,3.85,0,0,0,3,.64,18.8,18.8,0,0,0,3.77-1.45c.34,2.79.51,5.5,1,8.13a12.78,12.78,0,0,0,1.87,4.51c1.12,1.66,3,1.46,4-.3a9.74,9.74,0,0,0,1.26-3.31c.51-3.37.84-6.76,1.24-10.14a52.19,52.19,0,0,0,4.88,2c1.49.45,3.1.47,4.09-1.08A3.06,3.06,0,0,0,598.3,392.41Zm-17.27.46-4.9,2.9-.48-.66c1.1-2.93,3.32-4.85,6.3-6.75C581.61,390,581.36,391.26,581,392.87Zm4.58,13.95a30.21,30.21,0,0,1-.23-18.64A31.92,31.92,0,0,1,585.61,406.82Zm10-11.91-6.32-2.7c-.27-1.19-.47-2-.66-2.85a6.33,6.33,0,0,1,0-.83,18.91,18.91,0,0,1,7.34,5.77ZM436.45,656.22c-.05,2.84,1.05,3.9,3.81,3.8,2.05-.08,4.11-.25,6.14-.51,2.49-.32,3.66-1.29,3.21-2.63-.67-2-2.36-1.45-3.84-1.25-1.66.23-3.32.49-4.88.72V643a5,5,0,0,1,1-.36c1.26-.05,2.51-.08,3.77-.1,2.36,0,3.73-.84,3.6-2.22-.21-2.12-2-2.06-3.46-2.18s-3.12,0-5.1,0V623.76l8.15-.4c0-1.85-.92-2.9-2-2.93a90.29,90.29,0,0,0-10,.41c-.49,0-.88,1.22-1.33,1.89.86.65,1.31,1,1.59,1.2v14.85c-1.4,1-4,.45-3.89,2.82.13,2.12,2.4.93,3.72,1.65,0,.57,0,1.22,0,1.86C436.74,648.81,436.52,652.52,436.45,656.22ZM189.77,55.51c.65.85,1.43,1.6,2.06,2.3-1.59.67-3.28,1.26-4.85,2.07-1.4.72-2.54,1.81-2.21,3.61s1.87,2.37,3.41,2.47c4.76.3,9.17-.41,13.24-3.42C206.25,59,206.24,49.73,204,46.2c-1.26-2-3.42-2-4.66,0a35.42,35.42,0,0,0-1.93,4.37,12.84,12.84,0,0,0-1.06-1,96.8,96.8,0,0,0-8.12-5.6,4.38,4.38,0,0,0-3.81.25c-1.38.88-.83,2.6-.06,3.76C186,50.57,187.91,53,189.77,55.51Zm-2,6.89,6.79-2.78,3,1.84C195.36,63,190.39,63.56,187.73,62.4Zm14.1-14.83c1.58,3,1.28,6.08.67,9.27C199.49,53.65,199.25,50.64,201.83,47.57Zm-1.65,12.16a31.66,31.66,0,0,1-13.59-13A30,30,0,0,1,200.18,59.73ZM580,690.19c1.29-.51,2.88-1,4.34-1.74s3-1.91,2.54-4c-.45-1.88-2.15-2.41-3.73-2.33a40,40,0,0,0-8.4,1.06c-8.92,2.38-10,12.07-7.27,18.17a3.66,3.66,0,0,0,2.68,1.84c.82,0,2-1,2.51-1.79a17.62,17.62,0,0,0,1.49-3.57c2.74,2,5.41,4,8.21,5.83,1.51,1,3.42,1.74,4.95.27s.5-3.46-.49-4.87C584.65,696,582.25,693.13,580,690.19Zm3.42-5c.06.22.12.44.19.67l-6.5,2.64-3.28-2.1C577.2,685.29,580.23,684.64,583.38,685.19Zm-13.6,15.33c-1.5-3-1.27-6-.67-9.09A5.93,5.93,0,0,1,569.78,700.52Zm1.66-12.13c6,2.8,10.26,7.38,13.62,13A30,30,0,0,1,571.44,688.39Zm3.95-623.51a58.8,58.8,0,0,0,8.78,1.06,3.09,3.09,0,0,0,3.48-2.36c.42-1.89-.82-3-2.27-3.76a32,32,0,0,0-3.46-1.46c-.5-.2-1-.36-1.69-.6.59-.52,1-.85,1.37-1.21a25.3,25.3,0,0,0,6.77-9.18,3.67,3.67,0,0,0-.27-3.07,3.22,3.22,0,0,0-2.83-.63,15.14,15.14,0,0,0-4.41,2.14c-2,1.41-3.92,3.06-5.9,4.64a16.39,16.39,0,0,0-1.47-3.65c-.61-.87-1.8-1.95-2.65-1.89a4,4,0,0,0-2.71,2.1,14.38,14.38,0,0,0,.44,12.63A9.87,9.87,0,0,0,575.39,64.88Zm9-2.65-.18.68c-3.17.58-6.22-.12-9.63-1.2l3.33-2.08Zm1.39-15.64c-.17,3.11-9.26,12-13.63,13.24C573.71,55.54,581.46,48.09,585.73,46.59Zm-15.14,1q3.82,4.31-.65,9.31C569.31,53.61,569.07,50.58,570.59,47.58ZM185.94,682.48c-2.32.92-2.91,3.33-.9,4.82a42.36,42.36,0,0,0,6.13,3.26c-.35.31-.75.65-1.13,1-2.82,2.65-5.37,5.53-6.76,9.18a3.67,3.67,0,0,0,.27,3.07,3.17,3.17,0,0,0,2.83.62,16.94,16.94,0,0,0,4.58-2.24c2-1.37,3.8-3,5.72-4.55a16.47,16.47,0,0,0,1.48,3.67c.6.88,1.8,2,2.65,1.88a3.92,3.92,0,0,0,2.71-2.09c1.75-4.37,1.78-8.81-.66-13C200.16,683.54,190.91,680.53,185.94,682.48Zm1.35,3.39.3-1.09,9.19,1.19c0,.19,0,.38,0,.58l-3,1.94Zm-2,15.68a41,41,0,0,1,14.1-13.62C198.88,691.73,189.91,700.47,185.25,701.55Zm15.84-1c-2.25-3.18-2.9-6,.58-9.35A13.94,13.94,0,0,1,201.09,700.58Zm255.26-51.23c-1.86-.67-3.11,0-3.44,1.24a8.39,8.39,0,0,0-.12,4.73c1.35,3.79,3.55,4.73,8.29,4.18,4.5-.53,7.2-3.61,6.41-8a26.48,26.48,0,0,0-3-8.7,38.65,38.65,0,0,0-6.52-7.68c-2.65-2.57-3.14-5.52-2.58-8.9a3,3,0,0,1,3.13-2.7,3.93,3.93,0,0,1,4.34,3c.34.95.75,1.88,1.12,2.81l.79,0a4.8,4.8,0,0,0,.81-1.36c.62-3-1.76-6.55-4.8-7.32-3.86-1-7.43.73-8.37,4.07-1.44,5.15-.89,9.84,3.24,13.69a13.91,13.91,0,0,1,2.58,2.74c1.73,2.78,3.76,5.51,4.8,8.56,1.7,5,1,5.68-4.1,6.43a5.06,5.06,0,0,1-.56,0c-2.27-1.48-2.5-2.18-1.9-4.73A6.63,6.63,0,0,0,456.35,649.35ZM378.26,57.19a3.08,3.08,0,0,0,2.45.54c.39-.1.72-1.41.65-2.14-.34-3.18,1.22-5.75,4.58-7.12,3.84,1.07,5.41,3.48,5,7.43a2.3,2.3,0,0,0,.71,1.84,2.68,2.68,0,0,0,2-.12A4.19,4.19,0,0,0,395,56.44a11.47,11.47,0,0,0-16.72-15.66C373.53,45.28,373.48,53.24,378.26,57.19Zm3.34-14.34c3-2.21,6.19-2.15,9.34.16a6.65,6.65,0,0,1,2.57,7.8c-4-7.72-10.78-7.15-14.57,0A6.87,6.87,0,0,1,381.6,42.85Zm11.72,648a2.73,2.73,0,0,0-2.29-.51c-.48.21-.84,1.39-.76,2.09.38,3.57-1.4,6.21-5.15,7.21-3.46-1.44-4.85-3.82-4.48-7.33.06-.62-.17-1.64-.59-1.86a3,3,0,0,0-2.16.12,4.42,4.42,0,0,0-1.44,1.33A11.49,11.49,0,1,0,395,705.44C398.13,700.82,397.41,694.06,393.32,690.84Zm-2.82,14c-3.15,2.49-6.32,2.74-9.33.72a7.18,7.18,0,0,1-3-8.55c1.36,3.47,3.76,5.78,7.19,5.88,3.59.1,5.8-2.47,7.2-5.76A6.54,6.54,0,0,1,390.5,704.81ZM576.67,371.1a2.37,2.37,0,0,0-2,.74c-.28.52.08,1.45.3,2.16.1.34.51.6.79.87a11.33,11.33,0,0,0,13.1,1.56,11.54,11.54,0,0,0-4.23-21.58,10.58,10.58,0,0,0-9.58,3.7,2.67,2.67,0,0,0-.32,2.3c.17.43,1.33.7,2,.63,3.38-.37,5.94,1.19,7.23,4.62C582.84,369.89,580.39,371.48,576.67,371.1Zm5-12c2.24-1.14,5.28-.38,7.37,1.85a7.27,7.27,0,0,1,1,9.12c-2,3.28-4.78,4.5-8.61,3.54C589.74,369.43,588.37,362.38,581.67,359.12ZM194.3,361.54a2.24,2.24,0,0,0,1.83-.71,2.55,2.55,0,0,0-.14-2,4.22,4.22,0,0,0-1.32-1.45,10.88,10.88,0,0,0-11.91-1.58,11.11,11.11,0,0,0-6.83,10.58c-.05,4.82,2.54,8.42,6.95,10.47s9.92.85,12.71-2.61a3.12,3.12,0,0,0,.53-2.45c-.11-.39-1.42-.71-2.15-.63-3.38.37-6-1.42-7.11-5.1C188.21,362.55,190.53,361.2,194.3,361.54Zm-4.76,12c-3.66,1-6.38,0-8.32-2.8a7.53,7.53,0,0,1,8.32-11.71c-3.47,1.38-5.78,3.76-5.9,7.18C183.52,369.85,186.12,372,189.54,373.57ZM337.48,623.84a34.62,34.62,0,0,0,5.69-.58c.79-.19,1.34-1.34,2-2a20.45,20.45,0,0,0-2.24-1.84c-.33-.21-.91-.06-1.37,0-2.17.22-4.35.38-6.5.73a24.37,24.37,0,0,0-3.48,1.08v39.65c1.12-.12,1.77-.12,2.4-.25,2.91-.61,5.82-1.25,8.72-1.89,1.36-.31,3-.51,2.76-2.42s-1.92-1.78-3.3-1.63a33.67,33.67,0,0,0-4.07.81c-1,.23-2,.53-2.95.8V644c2.88-.75,5.93,0,8.27-1.9.24-2.16-.73-3.08-3.1-2.9-1.74.14-3.47.44-5.23.68-.28-5.45-.55-10.62-.83-16C335.39,623.85,336.44,623.91,337.48,623.84Zm78.08,31.43a11.18,11.18,0,0,0,1.48-2.8c.56-1.32,1.09-2.84-.68-3.57s-2.2.74-2.92,1.92c-.95,1.59-2.15,3-3.23,4.52-2.73-1-4.06-2.38-4.61-4.57a38,38,0,0,1-1.07-15.17,31.37,31.37,0,0,1,2.56-8.9c2-4.06,4.91-4.09,7.67-.56a25.51,25.51,0,0,0,1.94,1.91c.32-1,.7-1.63.63-2.15a6.62,6.62,0,0,0-9.16-4.8,11.85,11.85,0,0,0-5.82,6.76,38.94,38.94,0,0,0-1.94,18.59,34.53,34.53,0,0,0,1.56,7,8.56,8.56,0,0,0,7,5.81C412.15,659.77,413.84,657.35,415.56,655.27ZM272.25,226.64c-.16-3.31-1.06-6.59-1.62-9.88a1.87,1.87,0,0,0-.71,1.21,88.14,88.14,0,0,0-1.41,9.22c-.22,4.13-2.78,5.9-6.19,7-1.4.46-2.84.77-4.45,1.2,2.42.85,4.63,1.51,6.74,2.4a5.83,5.83,0,0,1,3.75,5.16c.35,3.42,1,6.81,1.59,10.2a5.5,5.5,0,0,0,.4,1.09,107.31,107.31,0,0,0,2.18-11.6,5.41,5.41,0,0,1,3.26-4.63c2.23-1,4.56-1.72,7.14-2.67-1.3-.32-2.57-.59-3.82-.94C275.14,233.32,272.47,231.27,272.25,226.64Zm235.48,236c.29,3.36,1,6.67,1.56,10a10.27,10.27,0,0,0,.62,1.6c.68-4,1.51-7.47,1.76-10.94.27-3.8,2.38-5.72,5.65-6.81,1.6-.54,3.26-.91,4.89-1.35-2.51-1-5-1.79-7.35-2.83a4.83,4.83,0,0,1-2.92-4.19c-.25-2.23-.68-4.45-1.06-6.67-.29-1.68-.62-3.37-.93-5.05l-.5,0c-.61,3.77-1.33,7.52-1.78,11.3a5.64,5.64,0,0,1-3.52,4.88c-2.17.94-4.45,1.63-6.84,2.49,2,.59,3.92,1,5.74,1.75C505.65,457.9,507.46,459.55,507.73,462.68ZM376.22,657.17a6.59,6.59,0,0,0,.23-2.53c.07-8.74.12-17.48.2-26.22,0-1.37.16-2.74.25-4.15a29.1,29.1,0,0,0,4.89-.08,2.86,2.86,0,0,0,1.88-1.77c.3-1.25-.71-1.86-1.91-2a30.59,30.59,0,0,0-4.14-.43c-3.21.07-6.41.3-9.42.46-1.26,2.77-1,2.95,5,4,0,.45,0,.78,0,1.11q-.37,14.68-.76,29.37a5,5,0,0,0,.25,2.32c.36.64,1.21,1.4,1.83,1.38S375.92,657.83,376.22,657.17Zm48-34a7.68,7.68,0,0,0-.75-2.17h-.77a10.88,10.88,0,0,0-1,2.78c-.32,4-.54,7.92-.71,11.89-.29,6.74-.5,13.49-.78,20.23-.09,2.23.49,3.2,2.75,3.2,3.63,0,7.27-.29,10.89-.61.72-.07,1.38-.85,2.45-1.54-3.94-3.66-8.3-1-12.09-2.09.18-4.47.5-9,.5-13.44C424.73,635.32,424.49,629.24,424.27,623.16ZM232,505.42a29.88,29.88,0,0,0-.89-5.08h-.5c-.35,2-.81,4-1,6a4,4,0,0,1-3,3.53c-.86.32-1.77.51-3,.85a5.15,5.15,0,0,0,1.17.56c3.36.56,5.06,2.45,5.13,5.93a25.73,25.73,0,0,0,.79,4.28,19.17,19.17,0,0,0,1.4-5.85,4,4,0,0,1,2.81-3.68c1-.4,1.94-.7,3.36-1.2l-1.93-.5C233.88,509.57,232.05,508.44,232,505.42ZM527.33,348.67c.33-.05.62-.36,1.1-.65-.74-.16-1.26-.24-1.76-.38-2.43-.69-4.34-1.74-4.34-4.79a31.8,31.8,0,0,0-.91-5.36c-.21.2-.37.28-.39.38a56.36,56.36,0,0,0-1,5.61c-.2,2.21-1.53,3.25-3.39,3.88-.79.27-1.61.44-2.75.74.74.31,1.19.54,1.66.68,3.63,1.07,4.24,1.82,4.71,5.62.2,1.52.53,3,.8,4.55l.46-.14c.2-1.36.49-2.72.56-4.08C522.23,351.29,523.84,349.2,527.33,348.67ZM392,173.11a31.61,31.61,0,0,0-.91-5.3,24.22,24.22,0,0,0-1.44,6.11,4,4,0,0,1-3,3.56c-.84.32-1.73.55-2.81.88.36.28.5.47.67.5,3.7.6,5.5,2.7,5.48,6.51a18.33,18.33,0,0,0,.78,3.87,12,12,0,0,0,.91-4c.2-3.43,1.56-5.81,5.25-6.32a5.08,5.08,0,0,0,1.2-.62l-2-.51C393.69,177.18,392,176,392,173.11ZM588,434.53c-1.51.09-2.06,1.19-2.09,2.6s.92,2.2,2.09,2c.91-.19,1.66-1.18,2.47-1.82C590.09,435.42,589.47,434.45,588,434.53Zm-405.14,4.62a1.84,1.84,0,0,0,2.07-2.08c-.07-1.4-.64-2.5-2.16-2.54s-2,1-2,2.33A2,2,0,0,0,182.87,439.15Zm1.18-14a2.52,2.52,0,0,0-2.4-.13,3.53,3.53,0,0,0-.59,2.78c.45,1.55,1.84,1.37,3.24,1A2.5,2.5,0,0,0,184.05,425.16ZM184.92,313a2.47,2.47,0,0,0,.07-3.65c-1.39-.29-2.8-.42-3.18,1.15a3.49,3.49,0,0,0,.73,2.74C182.86,313.56,184.43,313.41,184.92,313Zm402.75.17c1.08,1,2.18.54,3-.52.39-3-.32-3.73-3.3-3.23A2.55,2.55,0,0,0,587.67,313.12Zm2.17,114.58a3.45,3.45,0,0,0-.75-2.72,2.48,2.48,0,0,0-2.38.26,2.43,2.43,0,0,0-.06,3.6C588.09,429.19,589.48,429.26,589.84,427.7Zm-1.75,17.21a2.75,2.75,0,0,0-2,1.56c-.49,1.41.39,2.35,1.93,2.73,1.51-.31,2.49-1.14,2-2.6A2.77,2.77,0,0,0,588.09,444.91Zm-405.23,4.27c1.55-.32,2.45-1.29,1.93-2.78a2.69,2.69,0,0,0-2.1-1.48,2.74,2.74,0,0,0-1.88,1.75C180.42,448.14,181.43,448.94,182.86,449.18Zm255.9,253.46a2,2,0,0,0-2,2.39c.12.8,1,1.48,1.32,1.86,2.14,0,2.74-.87,2.75-2.11A1.89,1.89,0,0,0,438.76,702.64Zm-106.77,0a1.9,1.9,0,0,0-1.95,2.24c.06,1.26.76,2.25,2.14,2a7.08,7.08,0,0,0,2.12-1.28C334,703.64,333.49,702.6,332,702.65Zm.83-657.19a1.94,1.94,0,0,0,2.08-2.31c-.09-.8-.95-1.51-1.47-2.26-1.9.26-2.55,1.1-2.6,2.37A1.9,1.9,0,0,0,332.82,45.46Zm106.66-.08c1.28.39,2.09-.68,2.13-2s-.51-2.18-2.42-2.58c-.58.78-1.68,1.61-1.6,2.3A3.23,3.23,0,0,0,439.48,45.38Zm-216.83.32h.95c.55-.82,1.55-1.67,1.5-2.45a2.9,2.9,0,0,0-1.94-1.91,1.69,1.69,0,0,0-2,2C221.26,44.22,222.12,44.94,222.65,45.7Zm-37,136.12a2.9,2.9,0,0,0-1.94-1.89c-.78-.05-1.62.94-2.43,1.48v1c.81.54,1.58,1.44,2.44,1.55A1.69,1.69,0,0,0,185.61,181.82ZM588,548.31c.77,0,1.59-1,2.38-1.55,0-.32,0-.64,0-1-.82-.52-1.61-1.4-2.48-1.48a1.7,1.7,0,0,0-1.87,2.16A2.93,2.93,0,0,0,588,548.31ZM252.51,45.71h.94c.54-.82,1.53-1.68,1.47-2.47a2.91,2.91,0,0,0-2-1.88,1.68,1.68,0,0,0-2,2.06C251.09,44.24,252,45,252.51,45.71Zm10,0,1,0c.51-.83,1.47-1.69,1.41-2.47a2.87,2.87,0,0,0-1.94-1.87,1.67,1.67,0,0,0-2,2C261,44.19,261.93,44.92,262.49,45.72Zm9.77,0,1,0c.57-.79,1.6-1.58,1.59-2.37s-1-1.77-1.82-2a1.68,1.68,0,0,0-2.16,1.84C270.9,44.06,271.76,44.86,272.26,45.69Zm10.1,0,.94,0c.53-.84,1.5-1.71,1.44-2.5a2.91,2.91,0,0,0-2-1.85,1.68,1.68,0,0,0-2,2.09C280.91,44.27,281.8,45,282.36,45.72ZM588.73,174c.87-.09,1.65-1,2.46-1.52,0-.32,0-.64,0-1-.8-.55-1.63-1.55-2.4-1.51a2.88,2.88,0,0,0-2,1.86A1.68,1.68,0,0,0,588.73,174ZM302.16,45.7h.95c.54-.82,1.55-1.66,1.5-2.45a2.9,2.9,0,0,0-1.94-1.91,1.69,1.69,0,0,0-2,2C300.77,44.21,301.63,44.93,302.16,45.7ZM183.65,170c-.78,0-1.6.95-2.41,1.5,0,.32,0,.64,0,1,.81.53,1.59,1.43,2.45,1.52a1.69,1.69,0,0,0,1.91-2.12A2.92,2.92,0,0,0,183.65,170Zm38.26,532.4c-.55.76-1.43,1.46-1.57,2.29a1.68,1.68,0,0,0,2,2.07,2.9,2.9,0,0,0,2-1.86c.06-.79-.93-1.65-1.46-2.48ZM449.43,45.7l.89,0c.56-.76,1.45-1.45,1.6-2.27.23-1.27-.63-2.13-2-2.17a1.79,1.79,0,0,0-2.05,2.09C448,44.2,448.89,44.93,449.43,45.7Zm9.93,0,.89,0c.56-.75,1.45-1.44,1.61-2.26.24-1.27-.62-2.13-2-2.18a1.79,1.79,0,0,0-2.06,2.08C457.93,44.19,458.82,44.92,459.36,45.7ZM231.79,702.4c-.53.78-1.39,1.5-1.52,2.33a1.7,1.7,0,0,0,2,2,2.91,2.91,0,0,0,1.94-1.92c0-.79-1-1.63-1.52-2.45ZM479.19,45.69l.9,0c.57-.74,1.47-1.42,1.64-2.24.26-1.26-.58-2.14-1.93-2.21a1.8,1.8,0,0,0-2.1,2C477.8,44.16,478.67,44.9,479.19,45.69Zm10.9,0c.56-.8,1.46-1.55,1.58-2.41a1.67,1.67,0,0,0-2.05-2c-.78.18-1.88,1.19-1.92,1.89s.92,1.63,1.44,2.46Zm10,0c.52-.82,1.39-1.6,1.48-2.47a1.67,1.67,0,0,0-2.12-1.88,2.89,2.89,0,0,0-1.85,2c0,.79,1,1.6,1.53,2.4Zm9.9,0c.53-.76,1.4-1.48,1.52-2.31a1.68,1.68,0,0,0-2-2c-.79.17-1.91,1.2-1.95,1.91s1,1.63,1.5,2.45ZM261.6,702.41c-.53.81-1.41,1.59-1.5,2.45a1.67,1.67,0,0,0,2.11,1.9c.78-.21,1.84-1.25,1.86-2s-1-1.61-1.52-2.41Zm9.93,0c-.53.82-1.4,1.59-1.49,2.46a1.67,1.67,0,0,0,2.11,1.89,2.92,2.92,0,0,0,1.87-2c0-.78-1-1.6-1.54-2.4ZM539.88,45.7c.52-.78,1.38-1.5,1.49-2.34a1.69,1.69,0,0,0-2-2c-.79.18-1.89,1.23-1.92,1.93s1,1.62,1.53,2.43ZM291.51,702.39c-.56.79-1.46,1.53-1.6,2.39a1.67,1.67,0,0,0,2,2,2.87,2.87,0,0,0,1.94-1.87c.06-.78-.9-1.65-1.41-2.47ZM185.61,82.48a2.89,2.89,0,0,0-1.89-1.94c-.77-.07-1.64.89-2.46,1.41l0,1c.8.57,1.54,1.49,2.4,1.62A1.69,1.69,0,0,0,185.61,82.48Zm401.23-.12a1.69,1.69,0,0,0,1.85,2.17c.87-.07,1.66-.94,2.49-1.46l0-1c-.79-.56-1.59-1.58-2.37-1.56A2.87,2.87,0,0,0,586.84,82.36ZM183.69,90.48c-.78-.06-1.63.92-2.44,1.46,0,.32,0,.64,0,1,.8.55,1.56,1.46,2.42,1.57a1.69,1.69,0,0,0,2-2.08A2.88,2.88,0,0,0,183.69,90.48Zm405.05,4c.86-.1,1.64-1,2.45-1.52,0-.32,0-.65,0-1-.8-.54-1.63-1.54-2.41-1.51a2.9,2.9,0,0,0-1.95,1.88A1.68,1.68,0,0,0,588.74,94.47Zm-405,9.94a1.7,1.7,0,0,0,1.88-2.15,3,3,0,0,0-2-1.85c-.78,0-1.59,1-2.39,1.55,0,.32,0,.64,0,1C182.08,103.45,182.86,104.32,183.73,104.41Zm118.66,598-.89,0c-.58.74-1.48,1.41-1.65,2.24-.26,1.26.59,2.14,1.94,2.21a1.79,1.79,0,0,0,2.09-2.05C303.79,704,302.92,703.2,302.39,702.42ZM185.62,112.34c-.15-.87-1-1.63-1.59-2.43l-.92,0c-.51.83-1.46,1.69-1.41,2.47a2.89,2.89,0,0,0,1.89,1.94A1.69,1.69,0,0,0,185.62,112.34Zm403.14,2c.86-.11,1.63-1,2.44-1.55v-1c-.81-.54-1.65-1.53-2.43-1.49a2.92,2.92,0,0,0-1.94,1.89A1.7,1.7,0,0,0,588.76,114.35ZM312.33,702.42l-.89,0c-.58.74-1.48,1.41-1.65,2.24-.26,1.26.59,2.13,1.94,2.21a1.79,1.79,0,0,0,2.09-2.05C313.72,703.94,312.86,703.2,312.33,702.42Zm137.46,0-.93-.08c-.62.78-1.7,1.54-1.72,2.33a2.88,2.88,0,0,0,1.81,2,1.7,1.7,0,0,0,2.18-1.87C451.06,704,450.26,703.26,449.79,702.45Zm9.83,0-1,0c-.57.79-1.59,1.59-1.58,2.37a2.92,2.92,0,0,0,1.82,2,1.68,1.68,0,0,0,2.16-1.85C461,704,460.13,703.24,459.62,702.42ZM591.18,131.65c-.82-.52-1.68-1.48-2.46-1.42a2.91,2.91,0,0,0-1.89,1.94,1.7,1.7,0,0,0,2,2.06c.86-.13,1.6-1,2.4-1.61ZM185.61,142.08a2.92,2.92,0,0,0-1.93-1.91c-.77,0-1.62.93-2.43,1.46,0,.32,0,.64,0,1,.81.55,1.56,1.45,2.43,1.56A1.68,1.68,0,0,0,185.61,142.08Zm401.22,0a1.68,1.68,0,0,0,1.94,2.08c.87-.11,1.63-1,2.43-1.57,0-.32,0-.64,0-1-.81-.53-1.66-1.51-2.43-1.46A2.92,2.92,0,0,0,586.83,142.08ZM489.29,702.39h-.9c-.54.78-1.43,1.5-1.54,2.33a1.8,1.8,0,0,0,2,2.1c1.35,0,2.22-.9,2-2.17C490.73,703.84,489.85,703.14,489.29,702.39Zm10,0h-.94c-.54.83-1.53,1.69-1.47,2.48a2.87,2.87,0,0,0,2,1.87,1.68,1.68,0,0,0,2-2.06C500.68,703.86,499.8,703.16,499.26,702.4ZM185.61,162.14c-.09-.88-.93-1.68-1.44-2.51l-.93,0c-.55.8-1.56,1.6-1.54,2.39a2.86,2.86,0,0,0,1.78,2A1.68,1.68,0,0,0,185.61,162.14Zm403.2,1.9c.86-.13,1.6-1,2.4-1.61l0-1c-.82-.52-1.68-1.48-2.45-1.42a2.91,2.91,0,0,0-1.9,1.94A1.68,1.68,0,0,0,588.81,164Zm-404,312.86c-.11-.89-.95-1.69-1.46-2.53l-.92,0c-.55.8-1.54,1.61-1.53,2.41a2.83,2.83,0,0,0,1.78,2A1.66,1.66,0,0,0,184.82,476.9ZM588,478.73c.78,0,1.6-1,2.41-1.51,0-.32,0-.64,0-1-.82-.53-1.6-1.42-2.46-1.51a1.69,1.69,0,0,0-1.9,2.13A2.9,2.9,0,0,0,588,478.73Zm-407.55,8.49c.82.53,1.67,1.51,2.44,1.46a2.92,2.92,0,0,0,1.92-1.92,1.68,1.68,0,0,0-1.94-2.08c-.86.11-1.62,1-2.42,1.57ZM509.36,702.43l-1,0c-.59.78-1.62,1.56-1.62,2.34a2.85,2.85,0,0,0,1.79,2,1.68,1.68,0,0,0,2.18-1.81C510.69,704.07,509.85,703.26,509.36,702.43ZM182.83,498.61a2.88,2.88,0,0,0,2-1.84,1.69,1.69,0,0,0-1.87-2.15c-.87.08-1.66,1-2.48,1.48,0,.32,0,.65,0,1C181.24,497.63,182.05,498.64,182.83,498.61ZM529.11,702.4h-1c-.55.81-1.54,1.64-1.51,2.42a2.92,2.92,0,0,0,1.89,1.94,1.67,1.67,0,0,0,2.09-1.92C530.52,704,529.65,703.21,529.11,702.4Zm10,0h-1c-.56.8-1.56,1.61-1.54,2.4a2.92,2.92,0,0,0,1.86,2,1.68,1.68,0,0,0,2.12-1.89C540.48,704,539.61,703.23,539.09,702.41ZM182.92,464.8c-.86.09-1.64,1-2.46,1.51l0,1c.81.55,1.63,1.56,2.4,1.52a2.87,2.87,0,0,0,2-1.86A1.69,1.69,0,0,0,182.92,464.8ZM588.76,293.25c.86-.11,1.63-1,2.44-1.55v-1c-.81-.54-1.65-1.53-2.43-1.48a2.91,2.91,0,0,0-1.94,1.88A1.69,1.69,0,0,0,588.76,293.25ZM586,506.66a2.89,2.89,0,0,0,1.94,1.88c.77,0,1.61-.93,2.42-1.47v-1c-.81-.54-1.57-1.44-2.43-1.54A1.68,1.68,0,0,0,586,506.66ZM183,514.5c-.86.06-1.67.92-2.5,1.43,0,.33,0,.65,0,1,.79.57,1.58,1.59,2.36,1.58a2.91,2.91,0,0,0,2-1.81A1.68,1.68,0,0,0,183,514.5Zm-.64,9.54c-.52.83-1.47,1.69-1.42,2.49a2.85,2.85,0,0,0,1.88,1.94,1.68,1.68,0,0,0,2-2c-.16-.88-1-1.64-1.59-2.46ZM586,526.59a2.93,2.93,0,0,0,2,1.84c.77,0,1.58-1,2.38-1.55l0-1c-.82-.52-1.61-1.4-2.48-1.48A1.7,1.7,0,0,0,586,526.59Zm2,7.78a1.68,1.68,0,0,0-2,2,2.88,2.88,0,0,0,1.86,2c.77.08,1.65-.87,2.48-1.38l0-1C589.63,535.44,588.9,534.51,588,534.37Zm-403.21,12c-.14-.88-1-1.66-1.52-2.49l-.92,0c-.54.82-1.52,1.65-1.49,2.44a2.85,2.85,0,0,0,1.83,2A1.67,1.67,0,0,0,184.83,546.42Zm-4.37,10.41c.83.52,1.69,1.48,2.47,1.41a2.88,2.88,0,0,0,1.88-1.94,1.68,1.68,0,0,0-2-2c-.86.13-1.6,1-2.39,1.62ZM586,556.26a2.88,2.88,0,0,0,1.85,2c.77.08,1.66-.87,2.49-1.37,0-.32,0-.64,0-1-.79-.58-1.51-1.52-2.37-1.66A1.68,1.68,0,0,0,586,556.26Zm-403.17,7.93c-.86.11-1.62,1-2.42,1.57v1c.82.54,1.67,1.52,2.44,1.47a2.92,2.92,0,0,0,1.92-1.92A1.68,1.68,0,0,0,182.87,564.19Zm2,12c-.14-.89-1-1.66-1.53-2.49h-.92c-.54.82-1.51,1.66-1.48,2.45a2.83,2.83,0,0,0,1.84,2A1.68,1.68,0,0,0,184.83,576.23ZM588,588.06c.78.05,1.63-.92,2.45-1.45,0-.32,0-.64,0-1-.8-.56-1.56-1.47-2.42-1.58a1.68,1.68,0,0,0-2,2.07A2.91,2.91,0,0,0,588,588.06Zm-403.12,8c-.16-.88-1-1.64-1.58-2.45h-.92c-.52.84-1.47,1.7-1.42,2.49a2.83,2.83,0,0,0,1.88,1.94A1.67,1.67,0,0,0,184.83,596.06ZM586,635.87a2.89,2.89,0,0,0,1.94,1.88c.78,0,1.61-.94,2.42-1.48v-1c-.81-.54-1.58-1.44-2.44-1.54A1.68,1.68,0,0,0,586,635.87ZM184.83,606c-.15-.89-1-1.66-1.55-2.48h-.92c-.53.82-1.5,1.67-1.45,2.46a2.85,2.85,0,0,0,1.85,2A1.68,1.68,0,0,0,184.83,606ZM588,607.94c.77,0,1.62-.93,2.44-1.46v-1c-.8-.55-1.56-1.46-2.42-1.57A1.69,1.69,0,0,0,586,606,2.91,2.91,0,0,0,588,607.94ZM586,616a2.93,2.93,0,0,0,2,1.85c.78,0,1.59-1,2.39-1.54,0-.33,0-.65,0-1-.82-.53-1.61-1.41-2.48-1.49A1.69,1.69,0,0,0,586,616Zm0-159.12a2.89,2.89,0,0,0,1.89,1.94c.77.07,1.63-.9,2.46-1.41,0-.33,0-.65,0-1-.79-.56-1.54-1.48-2.4-1.61A1.68,1.68,0,0,0,586,456.91ZM182.89,627.82a2.93,2.93,0,0,0,1.92-1.91,1.69,1.69,0,0,0-1.94-2.09c-.86.11-1.62,1-2.42,1.57v1C181.27,626.89,182.11,627.87,182.89,627.82ZM586,626a2.91,2.91,0,0,0,2,1.83c.78,0,1.58-1,2.37-1.56,0-.32,0-.65,0-1-.83-.52-1.63-1.39-2.49-1.47A1.7,1.7,0,0,0,586,626Zm3-356.64c-1.21-.34-2.15.46-2.26,1.8a1.83,1.83,0,0,0,1.9,2.22c.84,0,1.64-.82,2.45-1.27,0-.29.08-.59.11-.89C590.51,270.56,589.87,269.58,589,269.35Zm-407.8,2.4c.8.57,1.54,1.49,2.4,1.62a1.69,1.69,0,0,0,2-2.05,2.91,2.91,0,0,0-1.89-1.95c-.77-.06-1.64.9-2.46,1.42Zm2.4-8.33a1.69,1.69,0,0,0,2-2.05c-.17-.87-1.07-1.6-1.65-2.39l-.92,0c-.49.84-1.42,1.73-1.35,2.52A2.86,2.86,0,0,0,183.63,263.42Zm405.11-9.93c.86-.1,1.64-1,2.45-1.52v-1c-.8-.55-1.63-1.55-2.41-1.51a2.86,2.86,0,0,0-1.95,1.87A1.68,1.68,0,0,0,588.74,253.49Zm-405.13,0a1.69,1.69,0,0,0,2-2,2.92,2.92,0,0,0-1.87-2c-.77-.08-1.65.88-2.48,1.39l0,1C182,252.43,182.75,253.36,183.61,253.49ZM183,637.76a2.92,2.92,0,0,0,1.85-2,1.68,1.68,0,0,0-2-2c-.86.14-1.58,1.08-2.37,1.66,0,.32,0,.64,0,1C181.31,636.89,182.19,637.84,183,637.76ZM588.74,243.55c.86-.09,1.64-1,2.45-1.52,0-.32,0-.64,0-1-.8-.55-1.63-1.55-2.41-1.51a2.91,2.91,0,0,0-1.95,1.87A1.68,1.68,0,0,0,588.74,243.55Zm-403.13-2.07a2.89,2.89,0,0,0-1.91-1.92c-.78-.06-1.63.92-2.45,1.44,0,.32,0,.64,0,1,.8.56,1.55,1.47,2.41,1.59A1.69,1.69,0,0,0,185.61,241.48ZM586,466.85a2.87,2.87,0,0,0,1.89,1.94c.77.07,1.64-.9,2.46-1.41l0-1c-.79-.56-1.54-1.48-2.4-1.61A1.68,1.68,0,0,0,586,466.85Zm-401.21,179c-.13-.89-1-1.68-1.5-2.51l-.93,0c-.54.81-1.52,1.64-1.5,2.43a2.85,2.85,0,0,0,1.82,2A1.67,1.67,0,0,0,184.83,645.83Zm-2.39,7.4c-.55.8-1.55,1.61-1.53,2.41a2.82,2.82,0,0,0,1.77,2,1.66,1.66,0,0,0,2.14-1.86c-.11-.89-.94-1.69-1.45-2.53ZM588.67,223.67c.87-.06,1.67-.93,2.51-1.44l0-1c-.78-.57-1.58-1.59-2.35-1.58a2.91,2.91,0,0,0-2,1.81A1.69,1.69,0,0,0,588.67,223.67Zm-.79,439.91a1.69,1.69,0,0,0-1.84,2.18,2.93,2.93,0,0,0,2,1.81c.78,0,1.57-1,2.36-1.58l0-1C589.55,664.51,588.75,663.64,587.88,663.58Zm.81-364.38a2.92,2.92,0,0,0-1.86,2,1.69,1.69,0,0,0,2,2c.85-.15,1.58-1.08,2.36-1.66l0-1C590.34,300.06,589.46,299.11,588.69,299.2ZM185.61,221.58a2.9,2.9,0,0,0-1.93-1.9c-.78-.05-1.62.94-2.44,1.47v1c.81.54,1.57,1.45,2.43,1.55A1.69,1.69,0,0,0,185.61,221.58Zm403.2-7.84c.86-.13,1.6-1.05,2.4-1.62l0-1c-.83-.52-1.69-1.48-2.47-1.41s-1.71,1.15-1.89,1.94A1.69,1.69,0,0,0,588.81,213.74Zm-403.2,87.4a2.93,2.93,0,0,0-1.89-1.95c-.77-.06-1.64.9-2.46,1.41l0,1c.8.56,1.54,1.49,2.4,1.62A1.7,1.7,0,0,0,185.61,301.14ZM588.84,193.86c.86-.14,1.59-1.07,2.37-1.65l0-1c-.84-.5-1.71-1.45-2.49-1.38a2.92,2.92,0,0,0-1.86,2A1.69,1.69,0,0,0,588.84,193.86Zm-405.21,0a1.69,1.69,0,0,0,2-2.05,2.91,2.91,0,0,0-1.89-1.95c-.77-.06-1.64.9-2.46,1.42l0,1C182,192.81,182.77,193.73,183.63,193.86Zm50-148.17c.52-.78,1.38-1.53,1.48-2.36a1.67,1.67,0,0,0-2.07-2,2.92,2.92,0,0,0-1.9,2c0,.78,1,1.61,1.55,2.41Zm9.75,0c.59-.78,1.53-1.5,1.67-2.36a1.66,1.66,0,0,0-2-2,2.93,2.93,0,0,0-2,1.84c-.09.77.86,1.66,1.35,2.49Zm49,0,.89,0c.53-.78,1.4-1.52,1.5-2.35a1.8,1.8,0,0,0-2.09-2.06c-1.34.07-2.21.93-1.94,2.2C290.88,44.31,291.78,45,292.35,45.72Zm19.75,0h.95c.55-.82,1.55-1.66,1.5-2.45a2.9,2.9,0,0,0-1.94-1.91,1.69,1.69,0,0,0-2,2C310.71,44.22,311.57,44.93,312.1,45.7Zm9.85,0,.95,0c.58-.79,1.61-1.6,1.6-2.39s-1.09-1.78-1.88-2a1.7,1.7,0,0,0-2.1,2C320.61,44.15,321.45,44.9,322,45.69Zm148.28,0c.55-.76,1.42-1.46,1.57-2.29a1.69,1.69,0,0,0-2-2.07,2.88,2.88,0,0,0-2,1.87c-.06.79.93,1.65,1.47,2.48Zm49.73,0c.54-.81,1.42-1.58,1.53-2.44a1.67,1.67,0,0,0-2.09-1.92,2.87,2.87,0,0,0-1.89,1.93c0,.78,1,1.61,1.5,2.42Zm8.87,0,.94,0c.58-.79,1.62-1.59,1.6-2.37a2.93,2.93,0,0,0-1.85-2,1.68,1.68,0,0,0-2.12,1.94C527.48,44.12,528.33,44.88,528.83,45.68Zm19.93,0,.89,0c.58-.74,1.48-1.41,1.65-2.24.27-1.27-.58-2.13-1.93-2.21a1.8,1.8,0,0,0-2.1,2C547.37,44.16,548.24,44.9,548.76,45.69Zm39.94,54.73a2.9,2.9,0,0,0-1.87,2,1.69,1.69,0,0,0,2,2c.86-.14,1.59-1.07,2.38-1.64l0-1C590.35,101.3,589.48,100.34,588.7,100.42ZM181.24,122.71c.8.55,1.56,1.46,2.42,1.58a1.69,1.69,0,0,0,2-2.08,2.92,2.92,0,0,0-1.92-1.92c-.78-.05-1.62.93-2.44,1.45Zm407.44-2.42a2.92,2.92,0,0,0-1.85,2,1.69,1.69,0,0,0,2,2c.86-.15,1.58-1.09,2.36-1.67l0-1C590.34,121.16,589.46,120.21,588.68,120.29ZM183.77,134.22A1.68,1.68,0,0,0,185.6,132a2.86,2.86,0,0,0-2-1.8c-.78,0-1.58,1-2.36,1.57l0,1C182.1,133.29,182.9,134.16,183.77,134.22Zm-.16,19.89a1.7,1.7,0,0,0,2-2,2.92,2.92,0,0,0-1.87-2c-.77-.07-1.65.88-2.48,1.39l0,1C182,153,182.75,154,183.61,154.11Zm405.12,0c.86-.08,1.64-1,2.46-1.5,0-.33,0-.65,0-1-.81-.55-1.63-1.55-2.41-1.52a2.89,2.89,0,0,0-2,1.86A1.69,1.69,0,0,0,588.73,154.1Zm-.68,330.58a1.68,1.68,0,0,0-2,2,2.92,2.92,0,0,0,1.85,2c.78.08,1.66-.88,2.49-1.38,0-.32,0-.64,0-1C589.63,485.75,588.91,484.82,588.05,484.68Zm0,9.94a1.68,1.68,0,0,0-2,2,2.92,2.92,0,0,0,1.88,1.95c.78.07,1.64-.9,2.47-1.41l0-1C589.62,495.67,588.88,494.75,588,494.62ZM549,702.4H548c-.55.83-1.54,1.68-1.49,2.47s1.17,1.73,2,1.89a1.7,1.7,0,0,0,2-2.06C550.38,703.87,549.51,703.16,549,702.4ZM182.62,458.89a1.78,1.78,0,0,0,2.26-1.81,1.83,1.83,0,0,0-1.91-2.22c-.83,0-1.63.82-2.44,1.27l-.12.89C181.14,457.67,181.78,458.66,182.62,458.89ZM590.39,645.15c-.83-.51-1.63-1.38-2.49-1.45a1.7,1.7,0,0,0-1.86,2.17,2.92,2.92,0,0,0,2,1.83c.77,0,1.58-1,2.37-1.57Zm-1.65-461.23c.86-.09,1.64-1,2.45-1.52v-1c-.8-.55-1.63-1.55-2.4-1.51a2.92,2.92,0,0,0-2,1.86A1.7,1.7,0,0,0,588.74,183.92Zm-1.9,47.5a1.69,1.69,0,0,0,1.83,2.19c.87-.06,1.67-.93,2.51-1.43,0-.33,0-.65,0-1-.79-.58-1.58-1.6-2.36-1.59A2.91,2.91,0,0,0,586.84,231.42ZM183.72,293.25a1.7,1.7,0,0,0,1.89-2.14,2.89,2.89,0,0,0-2-1.85c-.78,0-1.59,1-2.39,1.52v1C182.07,292.28,182.86,293.16,183.72,293.25ZM586,655.69a2.89,2.89,0,0,0,1.89,1.94c.77.06,1.63-.9,2.46-1.42,0-.32,0-.64,0-1-.79-.56-1.53-1.48-2.39-1.61A1.68,1.68,0,0,0,586,655.69ZM183.68,229.62c-.77-.05-1.62.93-2.43,1.46,0,.32,0,.64,0,1,.81.56,1.57,1.46,2.43,1.58a1.7,1.7,0,0,0,1.94-2.1A2.92,2.92,0,0,0,183.68,229.62ZM586,516.63a2.92,2.92,0,0,0,2,1.86c.77,0,1.59-1,2.4-1.52,0-.32,0-.65,0-1-.81-.53-1.6-1.42-2.46-1.5A1.69,1.69,0,0,0,586,516.63ZM182.9,504.56c-.86.09-1.63,1-2.45,1.52,0,.32,0,.65,0,1,.81.54,1.64,1.54,2.42,1.5a2.91,2.91,0,0,0,1.95-1.87A1.68,1.68,0,0,0,182.9,504.56ZM586,566.29a2.92,2.92,0,0,0,1.94,1.9c.77,0,1.61-1,2.42-1.49v-1c-.81-.55-1.57-1.45-2.43-1.55A1.69,1.69,0,0,0,586,566.29ZM241.74,702.4c-.54.77-1.4,1.49-1.53,2.32a1.7,1.7,0,0,0,2,2c.79-.17,1.91-1.21,1.95-1.91s-1-1.63-1.51-2.45Zm11,0-.94,0c-.57.8-1.6,1.62-1.57,2.4a3,3,0,0,0,1.89,2,1.69,1.69,0,0,0,2.09-2C254.1,704,253.23,703.21,252.72,702.42Zm-67.91-36.79a1.68,1.68,0,0,0-2-2c-.86.12-1.61,1-2.4,1.61l0,1c.82.52,1.69,1.48,2.46,1.42A2.89,2.89,0,0,0,184.81,665.63Zm405.57-70.19c-.83-.51-1.64-1.37-2.5-1.43A1.7,1.7,0,0,0,586,596.2a2.91,2.91,0,0,0,2,1.8c.78,0,1.57-1,2.36-1.58C590.41,596.09,590.39,595.77,590.38,595.44ZM280,704.65a1.67,1.67,0,0,0,1.88,2.12c.88-.11,1.67-.95,2.5-1.46l0-.91c-.8-.56-1.61-1.55-2.41-1.54A2.82,2.82,0,0,0,280,704.65ZM183.63,283.31a1.69,1.69,0,0,0,2-2.05,2.9,2.9,0,0,0-1.88-1.94c-.78-.07-1.65.89-2.47,1.4l0,1C182,282.25,182.77,283.18,183.63,283.31Zm405.2,0c.85-.14,1.59-1.06,2.38-1.63l0-1c-.83-.51-1.7-1.47-2.47-1.4a2.93,2.93,0,0,0-1.88,2A1.7,1.7,0,0,0,588.83,283.31Zm-2-22a1.69,1.69,0,0,0,1.93,2.1c.86-.1,1.63-1,2.44-1.55v-1c-.81-.54-1.65-1.53-2.43-1.48A2.92,2.92,0,0,0,586.83,261.33ZM321.2,702.41c-.52.78-1.37,1.52-1.48,2.35a1.7,1.7,0,0,0,2.07,2,2.92,2.92,0,0,0,1.91-2c0-.79-1-1.61-1.56-2.42ZM183,538.36a2.91,2.91,0,0,0,1.84-2,1.68,1.68,0,0,0-2-2c-.85.14-1.58,1.09-2.36,1.67,0,.33,0,.65,0,1C181.31,537.5,182.19,538.45,183,538.36ZM586,576.18a2.89,2.89,0,0,0,1.89,1.94c.77.06,1.63-.9,2.46-1.42,0-.32,0-.64,0-1-.79-.56-1.53-1.48-2.39-1.61A1.68,1.68,0,0,0,586,576.18ZM469.6,702.43l-1,0c-.58.78-1.61,1.56-1.62,2.34a2.93,2.93,0,0,0,1.79,2,1.69,1.69,0,0,0,2.19-1.82C470.94,704.08,470.1,703.26,469.6,702.43Zm7.32,2.28a1.67,1.67,0,0,0,1.94,2.06c.88-.14,1.65-1,2.47-1.53,0-.31,0-.61,0-.92-.82-.53-1.66-1.51-2.45-1.47A2.84,2.84,0,0,0,476.92,704.71Zm-291.31-493a2.91,2.91,0,0,0-1.91-1.92c-.78-.06-1.63.91-2.45,1.43v1c.8.55,1.55,1.47,2.41,1.59A1.69,1.69,0,0,0,185.61,211.67Zm-3.16,401.8c-.56.81-1.55,1.62-1.54,2.41a2.83,2.83,0,0,0,1.77,2,1.67,1.67,0,0,0,2.14-1.87c-.11-.89-.94-1.69-1.45-2.53Zm-2-26.82c.83.51,1.69,1.48,2.47,1.41a2.89,2.89,0,0,0,1.88-1.95,1.68,1.68,0,0,0-2-2c-.86.12-1.6,1-2.39,1.62C180.44,586,180.45,586.33,180.46,586.65ZM518.61,702.86a2.85,2.85,0,0,0-1.93,1.89,1.66,1.66,0,0,0,2,2c.88-.16,1.63-1,2.44-1.58l0-.93C520.25,703.75,519.39,702.8,518.61,702.86ZM588.68,199.8a2.92,2.92,0,0,0-1.85,2,1.69,1.69,0,0,0,2,2c.85-.15,1.57-1.09,2.35-1.67l0-1C590.34,200.67,589.45,199.72,588.68,199.8Zm-405.61-.42c-.5.84-1.44,1.72-1.36,2.5a2.85,2.85,0,0,0,1.91,1.91,1.69,1.69,0,0,0,2-2c-.16-.88-1.06-1.61-1.62-2.41ZM295.25,317.81c-1.8,1.88-3.46,3.88-5.38,6,7,2.35,13.13,7.84,21.48,5-1,5.74-1.91,11.09-2.91,16.88l15.13-7.83c.54,2,.64,4,1.55,5.51,2.59,4.3,5.5,8.41,8.42,12.82,3.67-5.94,9.89-10.27,10.12-18.51l15.63,8.16c-1-6.1-2-11.7-2.89-16.91a47.28,47.28,0,0,0,7.25-.06c4.21-.67,8.36-1.73,12.53-2.64.09,0,.14-.2.32-.5-4.13-5.62-5.85-13.28-14.24-16.37a24.53,24.53,0,0,0,2.38-1.71c2.72-2.52,5.44-5,8.05-7.67a7.92,7.92,0,0,0,1.06-2.56l-16.67-2.51c2.95-4.36,3.29-9,2.72-13.85a25.07,25.07,0,0,1,.27-4.72c.05-.62.17-1.23.28-2.05a104.68,104.68,0,0,0-10.12,3,94.93,94.93,0,0,0-9,4.71l-6.09-12.5-1.81-.27L326,283.68c-4.87-6.91-12.63-6.75-19-9.32v8a26.12,26.12,0,0,0,.08,4.93c.5,2.59,1.37,5.11,2.11,7.76a70.88,70.88,0,0,0-7.74,1.05c-2.55.61-5.43,0-7.62,1.57l11.4,12.26c-1.29.58-2.81.92-3.87,1.82A80.29,80.29,0,0,0,295.25,317.81Zm46,21.23a14,14,0,0,1-3.87,8.09c-1.17,1.25-2.35,2.48-3.88,4.1a111.9,111.9,0,0,1-6.29-9.29c-1.86-3.41-1-5.4,2.39-7.18l3.89-2a50.66,50.66,0,0,0-1.2,5,26.36,26.36,0,0,0-.28,5.88c.07.76,1.22,1.42,1.88,2.13.7-.7,1.9-1.34,2-2.11a39.28,39.28,0,0,0-.09-6.32c-.06-1.18-.27-2.34-.48-4,2,1,3.67,1.58,4.92,2.65A4.08,4.08,0,0,1,341.21,339Zm21.43-27a20.73,20.73,0,0,1,5,4.07c1.73,2.26,2.9,4.95,4.54,7.88-3.79,1-6.93,2.16-10.17,2.53-4.77.54-5.87-.49-6.86-5.08-.26-1.21-.35-2.45-.58-4.16.84.52,1.35.81,1.85,1.13,1.88,1.23,3.72,2.53,5.65,3.67a4.35,4.35,0,0,0,2.45.68c.85-.07,2.18-.49,2.36-1.06a2.7,2.7,0,0,0-.93-2.47,53.3,53.3,0,0,0-6.45-2.47c-.86-.31-1.76-.49-2.64-.72l-.45-.64a45.44,45.44,0,0,1,4-3.35A2.43,2.43,0,0,1,362.64,312.09ZM357,278.49c0,3.82.31,7.45-.08,11-.43,3.92-2.31,5-6.25,4.36-.65-.1-1.33-.05-2-.17a17.76,17.76,0,0,1-2-.62,37.18,37.18,0,0,0,4-3.42,33.75,33.75,0,0,0,3.53-4.93,2,2,0,0,0-.43-1.9,2.35,2.35,0,0,0-2.12-.26,7.61,7.61,0,0,0-2.35,2.31c-1.27,1.91-2.38,3.94-3.71,6.17l-2.93-6C346.19,280.07,351.42,279.26,357,278.49Zm-47,.36c4.17-.87,11.85,2.28,13.9,5.74a3.3,3.3,0,0,1,.46,2.39,46.44,46.44,0,0,1-2.34,4.95c-2.7-3.13-3.31-7.44-6.93-9.5-.4-.24-1-.1-1.37-.13a2,2,0,0,0-.71,3.21,70.86,70.86,0,0,0,4.79,5.46,35.46,35.46,0,0,0,2.81,2.38c-2.58.35-4.65.92-6.68.79a4.33,4.33,0,0,1-3-2.13,13.21,13.21,0,0,1-1.4-5.3A76.36,76.36,0,0,1,310,278.85Zm-6.44,24.25c-.9-.86-1.91-1.61-2.87-2.41l.33-.86,22.59-3.26c3.51-7,6.95-13.87,10.53-21,2.34,4.82,4.54,9.37,6.76,13.91a65.22,65.22,0,0,0,3,5.83,4,4,0,0,0,2.39,1.62c6.93,1.13,13.89,2.11,21.39,3.22l-16.86,16.35c1.27,7.6,2.52,15.08,3.86,23.08l-20.7-10.93-20.8,10.78c.9-5.24,1.71-10,2.55-14.7.41-2.34,1-4.65,1.23-7a3.59,3.59,0,0,0-1-2.56C311.83,311.07,307.67,307.08,303.52,303.1Zm4,9.37L313.3,318l-2.39.18c-2.82.23-5.65.33-8.44.76-1.26.19-2.73.95-2.29,2.66s2,1.81,3.42,1.47c2-.48,3.91-1.21,5.85-1.85,1-.33,2-.71,3.53-1.27-.43,2.31-.76,4.08-1.06,5.67-4.11,3.6-12.11.78-16.79-3.13C298.76,318.2,300.9,312.07,307.54,312.47ZM443.1,488.37c-1.86-3.19-3.7-6.29-5.47-9.42a17.84,17.84,0,0,0-8.27-7.21l10.9-10.35-.57-1.79-15.78-2.34c.66-1.65,1.68-3.17,1.84-4.78.5-5.2.68-10.43,1-16.05-6.5,2.68-13.79,2.68-18.68,8.53L401.6,431.7l-1.79-.13-7.23,14.37c-4.83-6.88-12.63-6.72-19.35-9.48.2,2.28.66,4.25.47,6.16-.52,5.09-.47,10,2.62,14.55-5.39,1.08-10.79,1.18-15.95,2.54,4.1,4.35,7.92,8.39,11.7,12.41-1.57.73-3.21,1.13-4.36,2.11a75,75,0,0,0-6,6c-1.74,1.85-3.38,3.78-5.29,5.93,7,2.34,13.14,7.87,21.52,4.94C377,496.7,376,502.13,375,508l15.25-7.9c.82,5.51,2,7.84,5.5,12.07,1.56,1.88,2.79,4.05,4.17,6.09a38.31,38.31,0,0,0,10.49-18.15l15.38,8.05c-1-6-1.91-11.67-2.84-17.33,1.65.21,3.11.7,4.49.52,3-.37,5.94-1.07,8.91-1.64Zm-19.93-47.56c1,5.94,1.82,13-3.05,15.88l-6.9-1.11c2.92-3.15,6.94-5,7.76-9.28-.91-2.09-2.55-2.41-4.05-.57a50.93,50.93,0,0,0-3.43,5.33c-.37.6-.67,1.24-1.28,2.38l-3-6.11C412.74,442.46,417.86,441.46,423.17,440.81Zm-47,5.37c0-1.71.3-3.41.48-5.39,4.33.5,8.44,1.25,11.9,4,2.66,2.13,3,3.35,1.45,6.43-.45.92-.93,1.83-1.57,3.08-1.47-2.49-2.73-4.71-4.08-6.86a7.3,7.3,0,0,0-2.06-2.34,2.74,2.74,0,0,0-2.47-.1,2.42,2.42,0,0,0-.42,2.36,64.72,64.72,0,0,0,4.75,5.73,23,23,0,0,0,2.4,2.06c-4.95,3.29-9.07,1.72-10.11-3.88A24.93,24.93,0,0,1,376.15,446.18ZM378.44,488c-4.23,3.59-12.14.65-16.89-3.3,2.15-2.55,4.2-5.19,6.48-7.63,1.77-1.89,4.13-2.55,7.2-2.12l4.09,4.35a6.22,6.22,0,0,1,.56,1c-1,.08-1.7.17-2.44.21-2.43.14-4.88.2-7.31.4a3.49,3.49,0,0,0-2,.76c-.64.61-1.49,1.66-1.32,2.26a2.68,2.68,0,0,0,2.18,1.47,59.83,59.83,0,0,0,6.87-1.79c1-.3,2.07-.72,3.58-1.26C379,484.54,378.72,486.31,378.44,488Zm29.33,12.93a21.83,21.83,0,0,1-2.28,6.26c-1.35,2.2-3.31,4-5.45,6.57-2.42-3.64-4.86-6.74-6.63-10.19-1.53-3-.54-4.77,2.46-6.35,1.25-.66,2.49-1.34,4.16-2.23a42.1,42.1,0,0,0-1.23,5,35.42,35.42,0,0,0-.18,6.26c0,.61,1.06,1.65,1.57,1.62a2.77,2.77,0,0,0,2-1.45,7.48,7.48,0,0,0,.38-3.28c-.13-2.4-.42-4.8-.68-7.57a37,37,0,0,1,4.95,2.75A3,3,0,0,1,407.77,500.88Zm-7.31-10-20.67,10.73c.3-2.12.5-3.82.79-5.51.92-5.24,1.93-10.47,2.73-15.74a3.91,3.91,0,0,0-.87-2.92c-4.47-4.52-9.07-8.91-13.62-13.34-.5-.5-1-1-1.79-1.92l23.1-3.35,10.46-20.93c1.34,2.63,2.53,4.89,3.66,7.19,1.72,3.51,3.62,6.95,5,10.58,1.08,2.78,2.94,3.61,5.64,3.95,6.26.77,12.49,1.78,19.24,2.76l-16.84,16.37c1.28,7.64,2.54,15.1,3.88,23.08Zm21.24-7a12.27,12.27,0,0,1-.24-4.19,38,38,0,0,0,3.39,2.42,51.58,51.58,0,0,0,5.8,2.92c1,.44,2.36.42,2.87-.94a2.21,2.21,0,0,0-1.44-2.9c-2-.85-4.11-1.46-6.18-2.14-.8-.26-1.62-.44-2.91-.79a36,36,0,0,1,4-3.9,3.13,3.13,0,0,1,2.58.12A14.34,14.34,0,0,1,436,481c.88,1.59,1.5,3.33,2.42,5.42-3.59.9-6.73,2.07-10,2.43C423.77,489.37,422.77,488.42,421.7,483.88Zm-52.61-368.6a1.81,1.81,0,0,0-.95,1.29c-.05.37.43.93.82,1.19a3.06,3.06,0,0,0,1.51.39q13.57.45,27.16.83c1.21,0,2.34-.32,2.35-1.81s-1.14-2-2.43-2-2.5,0-4.2,0c2.33-9.61,4.55-18.77,6.76-27.92.56-.09.94-.16,1.33-.2,1.37-.14,2.88-.34,2.72-2.15s-1.64-1.85-3-1.92c-.59,0-1.19,0-1.79,0-4.16.08-8.32.23-12.49.23-5,0-10.05-.13-15.08-.15-1.2,0-2.57-.13-3.21,1.38.83,2.24,3.22,1.43,4.37,2.17v27.91A31.77,31.77,0,0,0,369.09,115.28Zm26.76-27.61-5.4,19.92c-1.61-6.85-3.12-13.31-4.67-19.92ZM378.31,100.9c.09-4.49,0-9,0-13.58h3.46c1.95,9.24,3.84,18.23,5.75,27.33h-9.78C378,110,378.21,105.44,378.31,100.9Z"/></svg>