<svg xmlns="http://www.w3.org/2000/svg" viewBox="0 0 750 750"><path d="M606.11,375.1V50.63c0-1.2,0-2.39,0-3.58-.27-12.76-9.76-22-22.52-22H186.53a21.88,21.88,0,0,0-21.94,22q0,328.06,0,656.12a20.8,20.8,0,0,0,.58,4.91c2.61,10.66,11.16,17,22.89,17H582.34c.53,0,1.06,0,1.59,0,8.07-.18,14.4-3.55,18.83-10.35,2.66-4.1,3.36-8.67,3.36-13.47Q606.09,538.14,606.11,375.1Zm-4.11,0V701.77c0,11.52-7.52,19.11-19,19.11H187.58c-9.32,0-16.38-5.28-18.4-13.83a18.59,18.59,0,0,1-.47-4.33q0-327.77,0-655.52a17.73,17.73,0,0,1,18.13-18.08q198.53,0,397,0A17.79,17.79,0,0,1,602,46.85c0,1.46,0,2.92,0,4.38ZM309.79,231.25c-1-1.74-.74-4.11-1.28-6.14a40.22,40.22,0,0,0-9.4-16.63c-6.17-6.81-12.82-13.19-19.49-19.51-5-4.73-9.86-9.51-12.37-16a76,76,0,0,1-2.42-9.39c-.28-1.19-.52-2.3-2-2.6-6.81-1.36-15.51,4.06-17.28,10.75a3.16,3.16,0,0,0,1.4,3.92,28.49,28.49,0,0,1,9.81,11.5,86.84,86.84,0,0,1,5.95,14.7c2.75,9.87,7.56,18.64,13.31,26.92,4,5.77,8.59,11.13,15.24,14.16a1.61,1.61,0,0,1,.74.84,35.72,35.72,0,0,1,1.26,3.74,1.68,1.68,0,0,1-.28,1.39c-4.32,4.42-4.34,9.58-2.55,15,.32,1,1.44,2.33,2.18,2.32,1,0,2.13-1,2.85-1.9,1-1.26,1.63-2.89,2.65-4.17,1.44-1.8,2.44-1.77,3.7.2s2.61,3.19,5.08,1.7c.92,1.9,1.62,3.69,2.6,5.3,7.66,12.62,15.2,25.31,23.11,37.76,9,14.08,18,28.15,30.27,39.69,4,3.79,8.54,7.07,12.91,10.49a2.46,2.46,0,0,0,2.3.19,4,4,0,0,0,.58-2.46,4.33,4.33,0,0,0-.46-1.71c-2-5-3.94-10.11-6.06-15.1-6.53-15.44-14.47-30.2-22.46-44.9-7.33-13.47-17-25.41-26.47-37.38-.4-.5-.95-1.37-.77-1.75a4.46,4.46,0,0,0-.57-4.68,1.55,1.55,0,0,1,.24-2.23c4.44-4.91,1.58-13.77-1.7-16.7a2.09,2.09,0,0,0-1.73-.47c-.4.17-.65,1-.71,1.61a7.37,7.37,0,0,1-3.27,5.9,2.13,2.13,0,0,1-.34-.14C312.79,234.05,310.75,233,309.79,231.25Zm-60.36-58.1c-.22-4.1,6.32-9,11.36-8.85.08.51.16,1,.25,1.69A15,15,0,0,0,249.43,173.15Zm8.63,8.25a62.76,62.76,0,0,1-4.56-5.48,2.12,2.12,0,0,1-.06-2c1.92-2.8,4.87-4.07,8-5.21,1.23,3,2.34,5.71,3.37,8.42a1.52,1.52,0,0,1-.17,1.35,41.12,41.12,0,0,1-4.63,3.37A2.13,2.13,0,0,1,258.06,181.4Zm33,57.95c-3.54-3.47-7.49-6.66-10.39-10.61-6.16-8.38-11.57-17.2-14.17-27.53-1.22-4.85-3.47-9.43-5.25-14.13-.18-.49-.38-1-.6-1.54l2.58-1.27c4.75,7.6,9.46,15.13,14.31,22.87-2,.38-2.72-.7-3.43-1.86a5.38,5.38,0,0,0-1.4-1.1,5.37,5.37,0,0,0-.48,1.79c.31,2.6,3.38,5.09,6.07,5,2.06,0,2.54.56,2.05,2.56a5.34,5.34,0,0,0,4.22,6.89c2.1.48,3.83,3.67,3.12,5.74a4.81,4.81,0,0,0,2.18,6.16,5.12,5.12,0,0,0,2.61.34c-2.22-2.79-2.66-4.86-.9-5.9a4.73,4.73,0,0,1,3.63-.4c1,.38,1.58,1.77,2.36,2.74,1.38-2.62-1.3-6.35-4.53-6.36a4.06,4.06,0,0,1-3.52-5.39c1.33-3.08-.38-5.86-4-6.45-2.91-.47-2.91-.47-2.16-3.27a6.59,6.59,0,0,0-3.59-7.24,5.67,5.67,0,0,0-1.44-.15c.59,1.84,2.81,2.87,1.79,5.39l-15.33-22.79,1.81-1.56c3.41,3.51,6.72,7.09,10.21,10.48,5.7,5.53,11.81,10.68,17.21,16.48,6.24,6.7,11,14.38,12.41,23.75a2.31,2.31,0,0,1-1.26,2.75q-4.41,2.46-8.74,5C294.54,241,292.69,240.93,291.08,239.35Zm33.05,20.74c18.77,23.3,31.39,50.14,44.51,76.69-.24.15-.49.29-.74.43-3.19-5.16-6.23-10.43-9.6-15.47-6.28-9.41-12.91-18.58-19.11-28-5.61-8.57-10.9-17.36-16.21-26.13C321.07,264.42,321.58,262,324.13,260.09Zm-1.3-2.5c-5.06,2.74-6.14,6.79-3,12.16,3.48,5.93,7.14,11.77,10.92,17.52q15.21,23.14,30.6,46.18c2.49,3.74,5.2,7.34,7.78,11,.63.9,1.14,1.89,1.91,3.18-3.68-3.53-7.08-6.65-10.34-9.93-10.89-11-19.07-24.05-27.41-36.93-5.89-9.09-11.07-18.66-16.5-28.05-2.11-3.66-4-7.43-6.05-11.15a6.11,6.11,0,0,1-.31-.8l10.22-6.29Zm-6.78-18.82a28.27,28.27,0,0,0,3.81-3.19,6,6,0,0,1-.5,6.36c-1.84,2.31-1.52,4.42-.36,6.61.9,1.71.42,2.63-1.1,3.48-4.14,2.31-8.24,4.68-12.24,7-4.79-4.94-6.77-4.77-12.39.86-.63-3.19-.12-6.13,2-8.13,2.44-2.3,2.3-4.28.63-6.69a2.38,2.38,0,0,1-.24-.65l14.44-8.52c.33.42.88,1.06,1.36,1.74C313,239.74,313.82,240.08,316.05,238.77Zm62.66,136.91a2.45,2.45,0,0,0-.63-2.07c-.37-.33-1.39-.21-2,0a14.61,14.61,0,0,0-2.91,1.69,110.64,110.64,0,0,0-23.78,24.09,537.85,537.85,0,0,0-36.54,56.71c-2,3.57-4.05,7.09-6.18,10.8-2.26-1.35-3.63-.18-4.89,1.82s-2.33,2-3.83.06c-1-1.36-1.66-3-2.69-4.38a4.47,4.47,0,0,0-2.49-1.61,2.41,2.41,0,0,0-2,1.26c-1.77,4.66-2.7,9.47.5,13.83,1.54,2.11,2.26,3.77,1,6.27a4.71,4.71,0,0,1-2.14,2.49,26.42,26.42,0,0,0-5.05,3.46c-9,7.77-14.75,17.81-19.41,28.48-2.75,6.29-4.58,13-7.07,19.38a33.56,33.56,0,0,1-11.38,15.22c-2.1,1.56-2.39,2.26-1.59,4.69,1.9,5.74,9.09,10.68,15.12,10.39,3.31-.17,3.76-.46,4.16-3.76,1.07-8.79,5.47-15.75,11.75-21.71,5.67-5.38,11.53-10.56,17-16.17a97.62,97.62,0,0,0,9.82-12.18c3.22-4.64,5.61-9.76,5.93-15.59a1.94,1.94,0,0,1,.41-1.25c1.58-1.33,3.23-2.58,5-4,1.92,1.13,2.74,3.19,3.09,5.57a10.62,10.62,0,0,0,.68,1.88c.7-.28,1.62-.36,2-.86a13.87,13.87,0,0,0,3.47-11.58c-.28-1.74-1.48-3.31-2.16-5a2.61,2.61,0,0,1-.18-1.86c.81-1.58,1.55-3.07.57-4.87a1.43,1.43,0,0,1,.25-1.2c2.4-3.08,4.84-6.13,7.26-9.19A231.75,231.75,0,0,0,353,431.67c8.22-15.51,16.13-31.13,22.76-47.39C376.85,381.47,377.82,378.58,378.71,375.68Zm-119,189.11c-4.82-.6-8.16-3.35-10.42-7.54-.12-.24,0-.6,0-1.56,3,4.49,6.74,6.88,11.62,7.35l.4.65C260.77,564.07,260.19,564.85,259.71,564.79Zm5.15-13.08c-1.07,2.77-2.21,5.51-3.46,8.57-3.11-1.08-6-2.41-8-5.19a2.14,2.14,0,0,1,.05-2,66.18,66.18,0,0,1,4.57-5.47,2.15,2.15,0,0,1,1.92-.49,43.4,43.4,0,0,1,4.63,3.37A1.3,1.3,0,0,1,264.86,551.71ZM306.51,497c-.8,6.65-4,12.26-7.53,17.75s-8.79,9.85-13.47,14.53c-6.2,6.21-13.59,11.25-18.51,18.94l-2.14-2,15.32-22.78c1.06,2.47-1.11,3.51-1.73,5.09l.32.49a15.42,15.42,0,0,0,2.83-1.54,6.53,6.53,0,0,0,1.58-6.75c-.59-1.59-.18-2.23,1.56-2.5a10.44,10.44,0,0,0,2.31-.5,4.28,4.28,0,0,0,2.43-6.16c-1-2.15,1.13-5.26,3.52-5.26,3.24,0,5.89-3.57,4.77-6.06a23.34,23.34,0,0,1-3.79,2.85c-.57.28-1.82-.33-2.5-.86-1.6-1.26-1.15-3.26,1.06-5.53-1.91-1-4.72.79-5.12,3.4a3.2,3.2,0,0,0,.08,1.95c1.43,2.35-.22,4-1.26,5.71a2.37,2.37,0,0,1-1.41.8c-3.66.85-5.3,3.45-4.4,7.09.44,1.8-.12,2.46-2.06,2.42a6.48,6.48,0,0,0-6.07,4.78,9.16,9.16,0,0,0,.23,2.4c2-.91,2-3.9,5-3.33l-14.29,22.87-2.35-1.13c2-5.81,4-11.54,6.11-17.24a96.93,96.93,0,0,1,4.58-11.59c4.53-8.73,9.82-17,17.4-23.47.26-.22.5-.44.74-.67,2.36-2.21,4.78-3,7.77-.94,2.49,1.73,5.2,3.13,7.84,4.63A2.26,2.26,0,0,1,306.51,497ZM320,493.23c-1.88-1.22-3.52-2.73-5.46-3.44-3-1.09-2.89,2.71-4.88,3.55-2.21-1.56-4.37-3.31-6.74-4.71s-4.84-2.39-7.46-3.64c.44-.95.79-1.86,1.27-2.7a2.71,2.71,0,0,0-.58-3.84,9.63,9.63,0,0,1-3-8.75c2,1.27,3.85,2.93,6,3.7,2.57.91,4.55-.68,5.92-3,5.2,1.51,9.57,4.46,13.9,7.47a2,2,0,0,1,.36,1.67c-.25,1.09-1,2.1-1.06,3.18a5.55,5.55,0,0,0,.54,3.29C320.32,488.41,320.91,490.83,320,493.23Zm4.16-24.35c-2.6-1.52-3.15-4.11-1.19-7.43,3.42-5.81,6.82-11.65,10.54-17.27,7.81-11.8,15.87-23.44,23.73-35.2,3.64-5.44,7.06-11,10.58-16.53a.71.71,0,0,1,.6-.32C355.57,418.79,342.93,445.58,324.19,468.88ZM367,387.81q-8.22,12.4-16.44,24.81-14.94,22.61-29.85,45.24a16.55,16.55,0,0,0-2.1,4.68c-1.21,4.58-.12,6.76,4.26,8.86l-2.15,3.16c-3.48-2.13-6.78-4.17-10.29-6.33a46.31,46.31,0,0,1,1.94-4.33c5.64-10,10.92-20.16,17.14-29.75,8.1-12.48,16.72-24.64,25.61-36.57,4.05-5.43,9.28-10,14-14.91.43-.45.95-.82,1.42-1.23l.43.34Zm141.27,172.7c.42,1.73.51,3.55,1,5.24.28.88,1,2,1.8,2.25,6.64,1.75,15.88-4.14,17.45-10.9a3,3,0,0,0-1.36-3.58,30,30,0,0,1-10.33-12.33,82.9,82.9,0,0,1-5.5-13.82c-2.69-9.81-7.47-18.52-13.16-26.78-4-5.84-8.64-11.25-15.3-14.39a2.25,2.25,0,0,1-.91-1.15,19.81,19.81,0,0,1-1.07-3.18,2.23,2.23,0,0,1,.19-1.73c4.18-4.31,4.26-9.35,2.61-14.63a4.36,4.36,0,0,0-2.2-2.66c-1.48-.47-2.47.75-3.14,2.13a21.36,21.36,0,0,1-2.23,3.74c-1.61,2.07-2.69,2.06-4.08-.17-1.21-1.94-2.56-2.82-4.92-1.47-.95-2-1.66-3.76-2.64-5.38-7.66-12.62-15.18-25.32-23.11-37.76-8.58-13.44-17.24-26.86-28.7-38.17-4.43-4.38-8.86-8.75-14.31-11.88a2.89,2.89,0,0,0-2.49-.21c-.51.39-.49,1.61-.52,2.47a4.54,4.54,0,0,0,.48,1.71c2.06,5.16,4.06,10.34,6.22,15.46,6.47,15.32,14.38,29.94,22.31,44.52,7.33,13.48,16.95,25.41,26.47,37.38.4.49.9,1.37.72,1.76-.84,1.76-.19,3.17.55,4.71a2.25,2.25,0,0,1-.16,2c-4.45,4.94-1.68,13.75,1.54,16.75a2.46,2.46,0,0,0,1.91.53c.32-.07.58-1,.64-1.63.29-2.47,1.16-4.54,3.41-5.88,1.08,1.18,1.85,2.72,3.06,3.21,1.88.77,2.15,2,2.23,3.66a12,12,0,0,0,.32,1.95c1.45,7,5.14,13,9.76,18.18,6.12,6.85,12.77,13.24,19.48,19.53C500.52,545.82,506.18,551.91,508.24,560.51Zm16.33-4.61c.21,4.11-6.3,9-11.41,8.86,0-.56-.09-1.14-.14-1.72A15,15,0,0,0,524.57,555.9Zm-6.11-5.28c.42.51.83,1,1.25,1.54,1.78,2.12,1.92,2.5-.24,4.23a66.57,66.57,0,0,1-6.72,4.26c-1.37-3.38-2.51-6.12-3.58-8.88a2,2,0,0,1,.18-1.22c.08-.21.39-.34.59-.51C514.53,546,514.66,546,518.46,550.62Zm-68.6-81.69c-18.77-23.29-31.36-50.08-44.46-76.59l.6-.37c1.72,2.61,3.41,5.24,5.14,7.85,6,9.09,12.09,18.16,18.07,27.27q7.68,11.7,15.21,23.47c2.07,3.23,4.09,6.5,6,9.83a14.77,14.77,0,0,1,1.6,4.22A3.55,3.55,0,0,1,449.86,468.93Zm1.66,3c1.47-1.65,3.24-2.9,3.93-4.59,1.09-2.69.06-5.46-1.19-8a5.43,5.43,0,0,0-.32-.51q-11.56-17.81-23.15-35.61-8.54-13-17.17-26c-2.82-4.23-5.8-8.37-8.7-12.56-.63-.92-1.17-1.9-1.75-2.86l.37-.38c.95.88,1.91,1.74,2.85,2.63,12.77,12.14,22.95,26.35,32.31,41.13,6.69,10.55,12.79,21.48,19.12,32.26,2.07,3.52,4,7.1,6,10.64l-10.52,6.48C452.64,473.58,451.94,472.56,451.52,472Zm12.41,21.19A20,20,0,0,1,462.3,491c-.87-1.5-2.14-1.86-3.51-1.05-1.66,1-3.15,2.21-4.74,3.35a6.07,6.07,0,0,1,.64-6.29c1.74-2.23,1.52-4.3.36-6.42-1-1.79-.46-2.74,1.14-3.64,4.14-2.29,8.24-4.66,12.27-6.94,4.23,5,5.87,4.84,12.3-.72a9,9,0,0,1-2.47,8.59c-1.8,1.74-2,3.24-.68,5.18a11.3,11.3,0,0,1,.77,1.59Zm10.35,20.43c-3.26-5.19-6.1-10.53-6.81-16.78a2.14,2.14,0,0,1,1.15-2.42c3-1.71,6-3.41,8.9-5.18,2-1.17,3.84-1.08,5.42.5,3.9,3.94,8.13,7.66,11.46,12.05A86.79,86.79,0,0,1,508.91,532c1,3.87,2.78,7.56,4.28,11.57l-2.41,1.25-14.2-22.69.52-.59a13.19,13.19,0,0,1,2.25,1.42,12.21,12.21,0,0,1,1.46,2.16l.72-.15a8.06,8.06,0,0,0,.13-2.28,6.43,6.43,0,0,0-6.18-4.62c-1.76.05-2.33-.67-1.92-2.39.89-3.68-.71-6.3-4.35-7.11-1.82-.4-3.62-3.73-3-5.52.95-2.7.25-5-2.13-6.34a4.89,4.89,0,0,0-2.6-.32c2.18,2.66,2.68,4.66,1,5.76a4.64,4.64,0,0,1-3.61.62c-1.05-.4-1.7-1.83-2.53-2.8-1.35,2.61,1.32,6.31,4.55,6.32a4.06,4.06,0,0,1,3.51,5.39c-1.32,3.07.4,5.88,4,6.45,2.88.46,2.88.46,2.14,3.27a6.61,6.61,0,0,0,3.6,7.25,6.31,6.31,0,0,0,1.44.13c-.62-1.83-2.82-2.87-1.79-5.37l15.32,22.78-2.1,2c-5.32-8.12-13.18-13.52-19.82-20.14C482.62,523.47,477.77,519.16,474.28,513.59ZM396,350.82a11.92,11.92,0,0,0-.76,2.87c-.21,1.7.9,2.53,2.45,1.84a18,18,0,0,0,3.25-1.91,110.74,110.74,0,0,0,23.64-24,500.57,500.57,0,0,0,30.68-46.6l12.12-20.92c2.19,1.33,3.57.17,4.84-1.83s2.34-2,3.82-.09a51.56,51.56,0,0,1,2.75,4.59c1.19,2,3.63,2.13,4.4.16,1.82-4.64,2.69-9.48-.5-13.84-1.54-2.11-2.26-3.77-1-6.27a4.69,4.69,0,0,1,2.15-2.49,26.42,26.42,0,0,0,5.05-3.46c9-7.78,14.75-17.83,19.42-28.5,2.72-6.23,4.57-12.84,7-19.2a33.89,33.89,0,0,1,11.3-15.29c2.3-1.73,2.61-2.51,1.57-5.19a16.25,16.25,0,0,0-16.39-9.85,2.51,2.51,0,0,0-2.52,2.3c-.23,1.3-.37,2.62-.64,3.92-1.67,8.21-6.31,14.59-12.37,20.11-3.43,3.12-6.86,6.24-10.19,9.47-5.19,5-10.45,10-14.43,16.08-3.49,5.38-6.63,10.86-7.06,17.47a1.85,1.85,0,0,1-.46,1.22c-1.57,1.34-3.21,2.6-4.94,4-1.91-1.14-2.71-3.16-3.12-5.46a11,11,0,0,0-.75-2,6.53,6.53,0,0,0-2,.93,13.08,13.08,0,0,0-.52,17.38c-1,2-2.41,3.82-1,6.15.12.21-.28.81-.54,1.14-4.84,6.22-9.82,12.32-14.52,18.65-7.56,10.18-13.5,21.33-19.46,32.49A412.64,412.64,0,0,0,396,350.82Zm118.46-186.6c4.73.73,8,3.42,10.26,7.53a1.21,1.21,0,0,1,.11.57c0,.11-.09.23-.2.5-5.78-5.58-6.4-5.95-11.55-6.87C513,164.93,512.83,164,514.44,164.22Zm-5.34,13.2c1.11-2.82,2.27-5.61,3.5-8.63,3.19,1.06,6.18,2.47,8.15,5.42a1.81,1.81,0,0,1-.17,1.65c-1.49,1.94-3,3.83-4.69,5.63a2,2,0,0,1-1.78.43,54.13,54.13,0,0,1-4.8-3.47A1.16,1.16,0,0,1,509.1,177.42Zm-41.54,54.89c.7-7.46,4.13-13.87,8.7-19.5a190.47,190.47,0,0,1,13.94-14.63c5.68-5.63,12.29-10.31,16.89-17.45l2,2.16c-5.09,7.57-10.12,15.05-15.28,22.74-1.06-2.44,1.05-3.5,1.86-5.4a7,7,0,0,0-1.63.24,6.49,6.49,0,0,0-3.27,7.86c.6,1.6.21,2.26-1.5,2.51-.53.08-1.07.1-1.58.23-3.19.81-4.48,3.54-3.12,6.59.84,1.89-1.33,5.18-3.37,5.12-3.37-.09-6.1,3.39-5,6.07A20.29,20.29,0,0,1,480,226c.61-.29,1.95.37,2.65,1,1.51,1.3,1,3.25-1.12,5.87a8.1,8.1,0,0,0,2.51-.43c2.38-1.28,3.15-3.67,2.23-6.3-.68-1.94,1.09-5.19,3.06-5.63,3.49-.79,5.14-3.5,4.27-7-.45-1.85.08-2.51,2-2.46a6.44,6.44,0,0,0,6.09-4.74,9.43,9.43,0,0,0-.18-2.42c-2.08.83-2,3.88-5.05,3.3l14.28-22.85,2.36,1.11c-2.05,5.8-4,11.54-6.11,17.24a97.6,97.6,0,0,1-4.58,11.59c-4.54,8.72-9.8,17-17.4,23.47-.25.21-.49.44-.73.67-2.36,2.19-4.77,3-7.77.95-2.54-1.76-5.37-3.1-8-4.8A2.84,2.84,0,0,1,467.56,232.31ZM454,235.84c1.75,1.14,3.43,2.68,5.41,3.41,3,1.1,2.9-2.7,4.5-3.38l14.43,8.52a2.45,2.45,0,0,1-.23.59c-1.61,2.39-2,4.39.57,6.7,2.16,2,2.6,4.92,2.17,7.67-2-1.27-3.84-2.94-6-3.7-2.56-.91-4.55.66-5.92,3-5.19-1.52-9.58-4.45-13.89-7.47a2,2,0,0,1-.37-1.67c.25-1.09,1-2.1,1.06-3.18a5.81,5.81,0,0,0-.54-3.29C453.55,240.27,453.19,238.55,454,235.84Zm-.74,18.62,10.32,6.35a40.29,40.29,0,0,1-1.79,4.07c-6,10.52-11.66,21.27-18.18,31.46-7.38,11.53-15.26,22.77-23.5,33.71-4.47,5.93-10.14,11-15.28,16.41a16.42,16.42,0,0,1-1.34,1.14l-.41-.34c1.47-2.26,2.92-4.53,4.41-6.77,4.6-7,9.15-13.94,13.82-20.85,6.27-9.26,12.71-18.41,18.9-27.73,4.55-6.83,8.85-13.83,13.15-20.82a17.4,17.4,0,0,0,2.16-5.28c.95-4.28-.17-6.24-4.35-8.11Zm-3.47,5.72c2.23,1.27,2.9,2.53,2,5.19a24.74,24.74,0,0,1-2.73,5.47q-9.76,15.41-19.67,30.75c-6.36,9.82-12.84,19.57-19.28,29.33-1.38,2.1-2.85,4.13-4.28,6.19l-.53-.33C418.47,310.27,431.07,283.46,449.81,260.18ZM194.48,671.88V419.21c-2.66,1.38-4.21,2.75-4.14,6,.24,11.92.09,23.85.09,35.78V675.57a23.12,23.12,0,0,1,15.25,6.66c4.28,4.15,6.95,9,6.32,15.32h4.78c38,0,75.93,0,113.9.09,3.39,0,4.92-2.09,7.46-4.22H215.94C213.17,681.77,206.79,674,194.48,671.88Zm385.91.11q0-123.25.09-246.5c0-3.21-1.16-4.89-4.28-6.29V671.89c-12.31,2.32-18.64,10-21.29,21.61H432.85c2.44,2.3,4.25,4.42,7.79,4.14,4.6-.35,9.26-.09,13.89-.09H558.47c1-13.86,9.4-20,21.92-22.27ZM191.23,76.38q0,118.29-.1,236.59c0,3.32,1.59,4.64,4.31,6.16V76.06c10.45-.84,19.51-10.3,21.12-21.43H338.78c-2.5-2.37-4.4-4.45-8-4.14-4.6.38-9.26.09-13.89.09l-102.59,0a6.37,6.37,0,0,0-1.13.18c-1,13.74-9.42,19.9-21.92,22.14Zm385.84-.13V319c2.9-1.34,4.32-2.92,4.21-6.17-.27-8.54-.09-17.09-.09-25.64V72.59a23.46,23.46,0,0,1-15.26-6.68c-4.28-4.16-6.93-9-6.32-15.32h-4.19c-38.16,0-76.32,0-114.49-.09-3.39,0-4.91,2.1-7.46,4.21H555.69C558.43,66.38,564.84,74.09,577.07,76.25ZM415,76.19H355.54v49.56H415Zm-4,45.45H359.74V80.23H411ZM369.06,619.75c-.76,0-1.59,1-2.3,1.59-.25.22-.23.74-.32,1.13q-1.79,7.13-3.56,14.25c-.75,3-1.53,6-2.43,9.53-.37-1.17-.56-1.78-.76-2.39-.76-2.39-1.41-4.84-2.36-7.16a3,3,0,0,0-2.14-1.62c-.64-.05-1.58.83-2,1.53a20.52,20.52,0,0,0-1.37,3.5c-.7,1.87-1.39,3.75-2.25,6.06-.25-.87-.38-1.24-.46-1.62-1.36-6.48-2.69-13-4.06-19.43a8.93,8.93,0,0,0-.85-2.84,2.63,2.63,0,0,0-1.89-1.24c-.51.05-1.15,1.09-1.3,1.78a7.6,7.6,0,0,0,.14,2.76q1.56,8.59,3.21,17.17c.72,3.77,1.52,7.52,2.32,11.28.25,1.2.63,2.37,2.15,2.46s2.05-1,2.49-2.14c.24-.62.45-1.24.68-1.87l3-8.25c1.15,3.78,2.13,7,3.1,10.19.4,1.32.9,2.61,2.58,2.53s2.05-1.4,2.36-2.75q2.75-11.79,5.52-23.58c.65-2.77,1.33-5.53,1.92-8.32C370.73,621.11,370.47,619.78,369.06,619.75Zm41.39,35.49a2.56,2.56,0,0,0,2.41.22c.47-.26.6-1.47.54-2.24,0-.59-.6-1.15-.93-1.72l-4.89-8.35c2.1-3.38,4.24-6,5.52-9.07a10.81,10.81,0,0,0-3.46-13.17c-3.87-2.73-9.66-2.39-13.67.91a3.8,3.8,0,0,0-1.4,2.4c0,.51,1.15,1.08,2.06,1.85,0,1.41-.05,3.26,0,5.11q.39,11.42.83,22.82c0,1.18.53,2.14,1.85,2.14s1.86-1,1.88-2.3q.06-3.18.09-6.35c0-2.66,0-2.68,2.86-3,1.15,2.25,2.24,4.52,3.47,6.7A20.07,20.07,0,0,0,410.45,655.24Zm-9.08-14.37c-.31-5.76-.61-11.45-.92-17.26,5.44-1.88,9.34,1,9.07,6.55A12.25,12.25,0,0,1,401.37,640.87Zm36.3-9.34c-.77-12.61-11.85-15.83-19.64-10.81a8.72,8.72,0,0,0-1.74,2.2l2,1.45.7-.23c0,6.75-.06,13.5,0,20.24a87.55,87.55,0,0,0,.68,9.3c.25,2.05,1.68,2.72,3.43,1.92C431.55,651.73,438.23,640.74,437.67,631.53ZM433.18,635a23.79,23.79,0,0,1-7.41,14.38c-.46.42-1,.8-1.68,1.39-.09-.92-.16-1.49-.19-2.06-.5-8.33-1-16.66-1.43-25a1.8,1.8,0,0,1,1-1.39,7.6,7.6,0,0,1,8.53,4.33A14.12,14.12,0,0,1,433.18,635Zm-100.25,2.74c-1.39-.91-2.84-1.73-4.12-2.76a38.56,38.56,0,0,1-4.48-4.18,2.6,2.6,0,0,1-.27-2.28c.78-1.8,3.41-3.27,5-3,2.08.3,2.87,1.29,3.6,4,.16.62.91,1.45,1.44,1.49a2.25,2.25,0,0,0,1.77-1.15,5.26,5.26,0,0,0,.23-2.89c-.72-3.4-3.17-5.11-6.36-5.74-4.1-.81-7,1.38-9.34,4.37-1.88,2.38-2.24,5.2-.34,7.54a82.15,82.15,0,0,0,7.56,7.48c1.3,1.22,3.1,2,4.05,3.46,2.64,3.94,3,7.94-2.52,9-2.4.46-4-.67-5.32-2.61-.88-1.32-2.18-1.82-3.6-.89s-1.26,2.21-.59,3.52c1.9,3.74,6.49,5.6,11.09,4.5,5.37-1.29,7.95-4.2,7.91-8.93S336.9,640.33,332.93,637.76ZM387,653.7c4.55-4.4,5.76-10.1,5.89-16.15a26.12,26.12,0,0,0-2.25-11c-2.91-6.75-12.07-6.79-15.72-1.31a23.93,23.93,0,0,0-3.86,9.89c-.66,4.45-.67,8.89,1,13.12a17.75,17.75,0,0,0,2.89,4.92C378.41,657.16,383.23,657.36,387,653.7ZM377.74,628c1.16-2.05,2.82-4.39,5.22-3.89,1.6.34,3.25,2.49,4,4.22,1.19,2.65,1.64,5.63,2.39,8.47l-.48.12a21.66,21.66,0,0,1-2.43,10.51,13.06,13.06,0,0,1-2.08,2.87c-2.19,2.21-5,2.12-6.49-.6a25,25,0,0,1-2.71-7.75A20.75,20.75,0,0,1,377.74,628ZM271.31,375.3c-2.68-.92-5.43-1.66-8-2.8a6.48,6.48,0,0,1-3.78-5.65c-.46-3.94-1.22-7.85-1.87-11.77-.15-.9-.34-1.79-.51-2.69a93.68,93.68,0,0,0-2.61,13.93,7.81,7.81,0,0,1-5.33,7c-2.06.85-4.28,1.34-6.42,2l-1.2.35c2.87,1,5.84,1.93,8.68,3.15a6.89,6.89,0,0,1,4.2,6c.57,4.78,1.49,9.51,2.26,14.27l.53-.05c.75-4.63,1.72-9.23,2.18-13.88a7.79,7.79,0,0,1,5.37-6.94c2.5-1,5.12-1.66,7.79-2.52C272.14,375.55,271.72,375.44,271.31,375.3Zm244.81-64a3,3,0,0,0-1.27-.62c-2.73-1-5.52-1.8-8.15-3a6.06,6.06,0,0,1-3.43-5.22c-.44-3.74-1.14-7.45-1.75-11.17-.19-1.16-.45-2.3-.68-3.45a87.66,87.66,0,0,0-2.58,13.73c-.35,3.78-2.35,5.94-5.59,7.2-2.43.95-5,1.6-7.78,2.48,1.35.29,2.48.51,3.6.78,7.21,1.71,9,3.7,10.07,11,.56,3.83,1.24,7.65,1.87,11.48l.51,0c.79-4.82,1.69-9.63,2.3-14.47a6.56,6.56,0,0,1,3.66-5.52,55,55,0,0,1,6.25-2.44A26.72,26.72,0,0,1,516.12,311.34ZM463.88,171.69c2.44-.93,5-1.6,7.68-2.45-.62-.15-1.11-.22-1.57-.38-2.78-1-5.62-1.88-8.31-3.1a5.79,5.79,0,0,1-3.22-4.93c-.36-3-.88-5.89-1.35-8.83-.33-2-.7-4-1.05-6.06a83.13,83.13,0,0,0-2.62,13.74c-.35,4.07-2.62,6.2-6.05,7.51-1.9.72-3.92,1.14-5.89,1.7-.38.11-.74.27-1.43.52,1.79.43,3.21.75,4.61,1.11,5.4,1.36,8.84,4.2,9.07,10.34.15,4,1.22,7.9,1.87,11.84a2,2,0,0,0,.71-1.27c.68-4.18,1.57-8.34,1.95-12.55C458.62,175.11,460.63,172.94,463.88,171.69ZM421.57,562.51c2.61.91,5.28,1.67,7.79,2.81,2.24,1,3.31,3,3.64,5.52.62,4.88,1.53,9.73,2.33,14.59a1.72,1.72,0,0,0,.68-1.1c.74-4.64,1.51-9.27,2.17-13.92a5.89,5.89,0,0,1,2.78-4.58,33.12,33.12,0,0,1,5.18-2.45c1.58-.58,3.28-.85,5.52-1.41-1.21-.27-1.84-.36-2.44-.56a78.89,78.89,0,0,1-7.41-2.71,6.44,6.44,0,0,1-3.69-5.5c-.57-4.52-1.38-9-2.11-13.53a10.87,10.87,0,0,0-.61-1.55c-.85,5.12-1.86,9.73-2.29,14.39-.36,3.91-2.53,6-5.82,7.23-2.33.89-4.77,1.5-7.55,2.35A17.42,17.42,0,0,1,421.57,562.51Zm25.91,89.86c-2.06-.24-2.08-2-2.28-3.42s-.51-2.63-2.2-2.4-2.06,1.55-2,3a6.85,6.85,0,0,0,7,6.6c4.93,0,7.49-1.91,8.82-6.66,1.38-5-.32-9.13-3.75-12.69-1.79-1.86-3.86-3.46-5.51-5.43a10.45,10.45,0,0,1-2.12-4.36c-.35-1.53-.06-3.28,1.74-4a3.58,3.58,0,0,1,4.54,1.45,39.3,39.3,0,0,1,2.09,4,8.3,8.3,0,0,0,1.12,1.34c.34-.58,1-1.17,1-1.76a9.16,9.16,0,0,0-3.37-7.51A6.68,6.68,0,0,0,442.3,623c-1.23,3-1.4,6.15.46,9a61.36,61.36,0,0,0,4.84,6c1.24,1.45,2.77,2.69,3.88,4.22a7.49,7.49,0,0,1,.93,7.54C451.57,651.78,450,652.66,447.48,652.37Zm30.83-9.09a88.46,88.46,0,0,0,10.46-1.94c2.48-.73,2.6-3.1.37-4.46a12.8,12.8,0,0,0-4.44-1.57c-2.58-.46-5.2-.64-7.92-.95.51-1.14,1-2.19,1.45-3.29.47-1.27.91-2.85-.48-3.58a4.7,4.7,0,0,0-3.66-.16,14.53,14.53,0,0,0-7.86,8.27,10,10,0,0,0-.65,3.87c.21,4.8,2.86,8.41,6.11,11.63,1.93,1.9,3.85,2.34,5.12,1.44s1.55-2.81.55-5.3c-.53-1.31-1.2-2.56-1.86-3.94A19.88,19.88,0,0,0,478.31,643.28Zm-2.63-14.08c.35,3.44-2.24,5.85-7,6.4C470.5,632.66,472.47,630.31,475.68,629.2Zm-6.93,13.1c3.78.16,6.14,3,6.27,7.65A18.75,18.75,0,0,1,468.75,642.3Zm-.83-3.43a36.41,36.41,0,0,1,19.86.13C484.5,641.34,471.71,641.27,467.92,638.87ZM414.43,59.12c2.54.92,4.26-.81,3.55-3.4a39.47,39.47,0,0,0-1.64-4.11c.71,0,1.3,0,1.88-.13a85.49,85.49,0,0,0,9.33-1.67A4.43,4.43,0,0,0,430.07,47c.35-1.5-1.23-2.14-2.51-2.6a11,11,0,0,0-2.27-.69c-3.33-.42-6.67-.78-10-1.16.65-1.5,1.45-3,2-4.65s.71-3.24-.93-4.31a3.13,3.13,0,0,0-4.15.79,40.9,40.9,0,0,0-5.58,7.12C402.1,49.38,408.6,57,414.43,59.12Zm.19-23c-.31,4.72-2.38,7.24-6.33,7.8A18.5,18.5,0,0,1,414.62,36.12Zm12.92,11a37.56,37.56,0,0,1-20,.24C410.67,44.91,423.46,44.7,427.54,47.07ZM415.4,57a13.42,13.42,0,0,1-7.07-6.35C412.72,50.45,414.74,52.58,415.4,57Zm-69.26-6.66c3.22.65,6.5,1,9.88,1.54a15.39,15.39,0,0,0-1.43,3.44c-.18,1.06-.15,2.68.48,3.21a3.87,3.87,0,0,0,3.4.4A14.77,14.77,0,0,0,367,49.53c1.73-5.59-2.92-12.45-6.87-15.4-1.2-.89-2.57-1.54-4-.56s-1.35,2.53-1,4a28.08,28.08,0,0,0,1.49,3.66c.22.51.5,1,.61,1.22-3.75.51-7.41.89-11,1.55-1.69.31-3.86.75-3.87,3S344.34,50,346.14,50.32Zm11.1,6.58c-.56-3.44,2.5-6.22,6.86-6.29C362.42,53.44,360.4,55.74,357.24,56.9Zm6.65-13.08c-3.64-.27-5.7-2.72-6.11-7.27C359.84,37.07,363,40.79,363.89,43.82Zm.63,3.2c-3.42,2.14-15.91,2-19.09-.23C348.71,44.72,361.48,44.88,364.52,47ZM586.7,385.43c-5.27-.53-12,3.95-13.42,9.05-.74,2.68.88,4.35,3.56,3.58a40.88,40.88,0,0,0,3.85-1.56c.31,2.66.48,5.28.94,7.85a13.15,13.15,0,0,0,1.56,4.43c1.36,2.24,3.38,2.05,4.53-.29a10.12,10.12,0,0,0,1-3c.47-3.38.81-6.77,1.19-10.11,1.57.64,3.28,1.49,5.08,2,1.41.43,3.22.53,3.81-1.08a4.59,4.59,0,0,0-.52-3.78C595.34,388.84,591.75,385.94,586.7,385.43Zm-10.91,10c.23-2.4,2.79-5.33,6-6.89C582,392.91,579.73,394.89,575.79,395.45Zm10.26,11.95c-2.55-2.8-2.84-15.33-.47-19.36C587.65,394.35,587.36,400.71,586.05,407.4Zm2.54-19a18.86,18.86,0,0,1,7.65,6.27C591.91,394.68,588.91,392.23,588.59,388.38ZM301.81,652.31a6.54,6.54,0,0,0,2.6-1.75,41.08,41.08,0,0,0,4.73-6.55c4.14-7.88-2.25-15.35-8.07-17.44-2.51-.9-4.21.86-3.49,3.44a36,36,0,0,0,1.52,3.83c-3.38.52-6.71.92-10,1.6-1.74.35-3.68,1.1-3.68,3.28s2,2.68,3.67,3c3.68.68,7.41,1.09,10.92,1.58a43,43,0,0,0-1.89,6.47C297.82,651.92,299.78,653.17,301.81,652.31Zm-.57-2.93-.68-.36a36.91,36.91,0,0,1,2.87-6c.59-.85,2.27-1,3.46-1.39l.27.51A18.63,18.63,0,0,1,301.24,649.38Zm5.95-14.23c-4.81,0-6.44-2.57-7-6C302.42,629.13,305,631.35,307.19,635.15Zm-18.8,3.72c4.11-2.18,15.7-2.26,19.23-.23C305,640.79,292.17,641,288.39,638.87ZM181.21,397.62c.56,3.57,1.06,7.15,1.85,10.67a3.07,3.07,0,0,0,2.2,1.86,3.29,3.29,0,0,0,2.46-1.52,12.76,12.76,0,0,0,1.47-4.26c.45-2.58.64-5.2.95-7.9a15.07,15.07,0,0,0,3.45,1.42c1.12.17,2.75.16,3.37-.51a3.85,3.85,0,0,0,.31-3.41,14.68,14.68,0,0,0-8.68-8.19,8.46,8.46,0,0,0-3.29-.57c-5.23.27-9.14,3.08-12.46,6.83-1.07,1.2-2,2.71-.94,4.32,1.16,1.81,3,1.45,4.66.88s3-1.3,4.64-2A17.63,17.63,0,0,0,181.21,397.62Zm14.08-2.24c-3.59.2-6-2.41-6.36-7.06C191.83,390.2,194.23,392.13,195.29,395.38ZM185.4,388c2.14,3.37,2,15.91-.2,19.1C183.12,403.91,183.26,391.1,185.4,388Zm-10.49,6.73-.47-.61L182,388C182.38,392,179.62,394.4,174.91,394.72ZM594.56,335.3c-1.61.53-3.14,1.33-4.95,2.12a29.27,29.27,0,0,0,0-4.31,73.3,73.3,0,0,0-1.78-8.7,2.49,2.49,0,0,0-4.77-.3,12.5,12.5,0,0,0-1.38,4.1c-.43,2.59-.64,5.22-.95,8a13,13,0,0,0-3.25-1.37,5.55,5.55,0,0,0-3.62.41c-1.31.92-.83,2.55-.17,3.82a15.38,15.38,0,0,0,8,7.6,9.41,9.41,0,0,0,3.86.77c5.31-.27,9.27-3.14,12.59-7,1-1.18,1.76-2.64.74-4.17S596.1,334.8,594.56,335.3Zm-19,2.06c3.37-.62,6.18,2.44,6.31,6.85C579,342.54,576.71,340.51,575.53,337.36Zm9.94,7.25c-2.16-3-2.09-15.56.11-19.07C587.67,328.48,587.6,341.28,585.47,344.61Zm3.27-.45c-.26-3.61,2.26-5.79,7.64-6.31A19.12,19.12,0,0,1,588.74,344.16ZM357.13,689c-2.5-.9-4.21.88-3.48,3.46a37.52,37.52,0,0,0,1.53,3.82c-3.28.49-6.49.87-9.64,1.5-1.87.37-4.05,1-4,3.39s2.32,2.75,4.06,3.07c3.56.65,7.16,1,10.76,1.46a50.57,50.57,0,0,0-2,4.73c-.46,1.47-.63,3.09.92,4.13a3.07,3.07,0,0,0,4.14-.71,40.36,40.36,0,0,0,5.69-7.26C369.51,698.66,362.93,691.06,357.13,689ZM357,711.8c.29-4.56,2.44-7.15,6.07-7.5A14.16,14.16,0,0,1,357,711.8Zm-12.76-10.07c3.17-2.56,15.66-2.8,20-.35C357.35,703.34,351,703.07,344.24,701.73Zm11.95-10.56c3.41,1.15,5.37,3.52,7.1,6.28C359.23,697.68,356.57,695.43,356.19,691.17ZM172.62,340.25a41.7,41.7,0,0,0,7.25,5.71c7.87,4.45,15.47-2,17.64-7.85,1-2.61-.85-4.32-3.55-3.53a37.81,37.81,0,0,0-3.82,1.56c-.32-2.75-.46-5.45-1-8.07a14,14,0,0,0-2-4.85c-.95-1.42-2.71-1.23-3.6.26a9.72,9.72,0,0,0-1.36,3.48c-.53,3.42-.85,6.88-1.25,10.29-1.52-.64-3.16-1.48-4.9-2-1.47-.46-3.11-.56-4.09,1A3.07,3.07,0,0,0,172.62,340.25ZM195,337.13c0,2.26-2.18,4.85-6,7C189,339.49,190.86,338,195,337.13ZM184.8,325.18c2.55,3.05,2.8,15.54.36,20C183.17,338.26,183.47,331.91,184.8,325.18Zm-2.54,19.08c-3.06-1.57-5.7-3.32-7.65-6.24C178.72,337.85,181.88,340.4,182.26,344.26ZM428.08,699.05a12.43,12.43,0,0,0-4.4-1.67c-2.64-.49-5.33-.67-8.11-1a16.75,16.75,0,0,0,1.48-3.65c.17-1,.07-2.6-.58-3.19a3.63,3.63,0,0,0-3.24-.37,14.83,14.83,0,0,0-8.55,9.37c-1.8,5.74,3.1,12.75,7,15.55,1.16.83,2.48,1.4,3.87.48s1.37-2.4,1-3.76A29,29,0,0,0,415,707c-.22-.52-.49-1-.82-1.64a25.38,25.38,0,0,0,4,0,68.34,68.34,0,0,0,9.45-2C429.94,702.57,430.08,700.34,428.08,699.05Zm-13.7-7.81c.58,3.41-2.49,6.21-6.86,6.29C409.21,694.7,411.21,692.39,414.38,691.24Zm-6.82,13.2c3.6-.23,6,2.61,6.26,7.61A19.14,19.14,0,0,1,407.56,704.44Zm-.46-3.32c3.44-2.15,15.95-2,19.08.23C422.9,703.42,410.09,703.26,407.1,701.12ZM186.77,682.45a4.29,4.29,0,0,0-2.71,2.17c-.65,1.35.33,2.62,1.55,3.28,1.79,1,3.7,1.7,5.73,2.61a10.46,10.46,0,0,0-1.29,1.19c-2.25,2.92-4.58,5.78-6.62,8.84a3.34,3.34,0,0,0,0,3.21,3.86,3.86,0,0,0,3.37.58,20.26,20.26,0,0,0,5-2.8c1.68-1.19,3.2-2.62,4.84-4A14.27,14.27,0,0,0,198,701c.71,1,1.89,2.22,2.84,2.19s2.25-1.3,2.7-2.33a14.12,14.12,0,0,0,1-5c.17-3.47-.48-6.9-3.05-9.36C197.39,682.59,192.21,681.68,186.77,682.45Zm.4,3.13.12-.75,9.82,1.18C194.41,689.09,191.06,688.82,187.17,685.58Zm-1.75,16.14c1.53-4.22,9.7-12.06,13.89-13.46C199.17,691.6,189.92,700.66,185.42,701.72Zm15.54-.79c-2.42-4.16-2.76-6.09.63-9.8A13.41,13.41,0,0,1,201,700.93Zm378.87-10.76a24.85,24.85,0,0,0,2.91-.95,12.44,12.44,0,0,0,3-1.8c1.92-1.69,1.43-3.92-.94-4.81-4.17-1.57-12.91.71-15.79,4.12s-3.81,10.65-1.57,14.66a2.69,2.69,0,0,0,5.06.15,17.93,17.93,0,0,0,1.55-3.73c2.79,2,5.52,4.06,8.39,5.93,1.45,1,3.3,1.64,4.77.25,1.63-1.53.51-3.34-.44-4.69C584.63,696.19,582.2,693.24,579.83,690.17Zm4-4.85c-3.33,3.16-7,3.56-10,1.09C577.14,685.3,580.32,684.61,583.86,685.32Zm-14.05,15.45c-1.63-3.11-1.33-6.25-.67-9.65C573,694.74,571.78,698.51,569.81,700.77ZM571,688.44c3.66.18,13.23,9.21,14.39,13.65A36.45,36.45,0,0,1,571,688.44ZM186.86,52.05c1.63,2,3.43,3.82,5.25,5.82a11,11,0,0,0-1.8.54,22.28,22.28,0,0,0-4.51,2.38c-2,1.58-1.36,3.89,1,4.76,4.23,1.53,13.07-.71,15.74-4.21,3.4-4.46,3.52-9.44,1.58-14.47a3.69,3.69,0,0,0-2.6-2c-.8-.08-2,.91-2.52,1.73a21.26,21.26,0,0,0-1.66,4,30,30,0,0,0-2.44-2.22c-2.09-1.51-4.18-3-6.39-4.33-1.31-.78-3-1.18-4.25.06s-.54,2.75.13,4A22.53,22.53,0,0,0,186.86,52.05Zm1,10.62c3.67-3.11,6.83-3.44,9.76-1.1A14.62,14.62,0,0,1,187.83,62.67Zm13.7-15.11c1.62,1.67,1.92,4.66.86,9.46C199.4,53.27,199.2,50.64,201.53,47.56Zm-1.28,12.62a36.23,36.23,0,0,1-14-13.55C191,47.78,199.56,56.18,200.25,60.18Zm384.3,5.63c1.39-.14,2.77-.68,3.09-2.34s-.69-2.82-2-3.5c-1.69-.87-3.5-1.51-5.37-2.3.45-.41.94-.84,1.41-1.28,2.89-2.77,5.53-5.73,6.89-9.58.74-2.09-.33-3.48-2.51-3.26a7.2,7.2,0,0,0-3.14,1.06c-2.73,1.83-5.33,3.83-8,5.79-.35-1-.67-2.12-1.15-3.19-.58-1.28-1.38-2.84-3-2.34A5.25,5.25,0,0,0,568,47.53a12.4,12.4,0,0,0-.9,4.63c-.17,3.54.47,7,3.1,9.53C574.18,65.48,579.24,66.33,584.55,65.81Zm0-3.3c-3.42,1-6.6.3-9.83-1.22,1.15-.54,2.42-1.67,3.43-1.48A22.46,22.46,0,0,1,584.55,62.51Zm1.62-15.88a37.24,37.24,0,0,1-13.83,13.52C572.33,56.67,581.5,47.63,586.17,46.63Zm-15.63.8c2.66,2.33,2.49,5.68-.55,9.67C569.22,53.65,569,50.53,570.54,47.43ZM378.32,57.11a2.63,2.63,0,0,0,2.26.54c.47-.21.53-1.38.72-2.14a3.64,3.64,0,0,0-.06-.79c-.05-2.67,1.84-5.52,4.12-6.22,1.3-.4,3.75.67,4.6,2.42a24.46,24.46,0,0,1,1.17,4.51c.21.8.5,1.58.76,2.38a7.17,7.17,0,0,0,2.43-.9,10.28,10.28,0,0,0,3.33-8A11.45,11.45,0,0,0,375,46.67,10.53,10.53,0,0,0,378.32,57.11Zm3-14.21a7.41,7.41,0,0,1,9.17-.38,7.19,7.19,0,0,1,3,8.58c-3.41-7.22-10.28-8.29-14.62-.14A6.93,6.93,0,0,1,381.31,42.9ZM192.76,361.36a7.8,7.8,0,0,0,1.17.05c.76-.18,1.93-.29,2.12-.75a2.65,2.65,0,0,0-.57-2.26,9.8,9.8,0,0,0-6.78-3.53c-6.61.05-10.93,3.43-12.31,8.62a11.22,11.22,0,0,0,5.46,12.84A11.06,11.06,0,0,0,195,374.68c.64-.66.77-1.8,1.14-2.72a8.88,8.88,0,0,0-2.59-.65c-3.11.18-6.5-2.19-6.79-4.91C186.56,364.14,189.66,361.51,192.76,361.36Zm-3.23,12.19a6.74,6.74,0,0,1-7.93-2.08c-2.55-3.2-2.8-6.43-.74-9.48s5-4.05,8.92-2.94c-3.64,1.36-6,3.75-6.13,7.22C183.52,370,186.28,372.07,189.53,373.55Zm391.78-3.34a24,24,0,0,1-4.35,1c-.76.17-2.08.31-2.15.66a3.2,3.2,0,0,0,.62,2.43,10.23,10.23,0,0,0,8.13,3.43,11.58,11.58,0,0,0,11.34-10.64,11.7,11.7,0,0,0-9.18-12,10.52,10.52,0,0,0-10.3,3.23,3.14,3.14,0,0,0-.6,2.43c.07.35,1.39.48,2.15.64a4.74,4.74,0,0,0,1,0c2.66.08,5.35,1.95,6,4.16C584.35,366.86,583.12,369.39,581.31,370.21Zm.17-11.13a6.73,6.73,0,0,1,7.88,2.12,7.39,7.39,0,0,1,.36,9.64,6.81,6.81,0,0,1-8.24,2.79C590.08,369.19,588,362.2,581.48,359.08ZM393.23,691a2.77,2.77,0,0,0-2.28-.45c-.4.13-.68,1.31-.63,2a6.57,6.57,0,0,1-2.64,6.26c-1.85,1.35-3.28,1.3-5-.25a7.06,7.06,0,0,1-2.23-5.9c0-.73-.22-1.92-.69-2.13s-1.59.15-2.26.53A5.47,5.47,0,0,0,376,692.6a11.31,11.31,0,0,0,.07,13.18,11.74,11.74,0,0,0,12.67,4.31c4.74-1.48,8-5.89,8.08-12.41A9.75,9.75,0,0,0,393.23,691Zm-2.67,14c-3.22,2.55-6.43,2.8-9.47.73s-4-5.06-2.93-8.88c1.37,3.61,3.74,6,7.23,6.1,3.69.12,5.78-2.65,7.27-5.9A6.77,6.77,0,0,1,390.56,704.93Zm-63.28-541.1c-2.25-.7-3.8-1.86-3.86-4.56a39.13,39.13,0,0,0-1-5.84c-.28.43-.42.56-.45.72a14.1,14.1,0,0,0-.26,1.56c-.36,4.17-1,8.12-6.3,8.71-.05,0-.08.2-.14.38.44.13.88.28,1.32.4,3.4,1,4.24,2,4.68,5.44.21,1.66.51,3.3.77,5h.39A17.49,17.49,0,0,0,323,173c.23-4.19,1.15-7.81,6.49-8.2A11.26,11.26,0,0,0,327.28,163.83ZM508.89,409.35c-2.5-.71-4.19-2-4.28-4.92a37.13,37.13,0,0,0-1-5.47,16.82,16.82,0,0,0-1.11,4.62c-.4,3.82-1.06,4.69-4.71,5.87-.47.15-.94.34-1.68.6.73.25,1.16.41,1.6.53,3.53,1,4.37,2,4.78,5.57.18,1.62.5,3.23.76,4.84a3.59,3.59,0,0,0,.77-2c.21-4.41,1.38-8.12,6.66-9.06C510,409.72,509.45,409.51,508.89,409.35ZM301.24,572.65a25.13,25.13,0,0,0,.77,4.16,12.9,12.9,0,0,0,.91-4.06c.2-3.55,1.52-6.1,5.4-6.64a6,6,0,0,0,1.36-.56c-1-.25-1.84-.4-2.63-.69-1.7-.62-3.35-1.34-3.67-3.45q-.51-3.4-1-6.81a25.88,25.88,0,0,0-1.48,6.24,4.39,4.39,0,0,1-3.22,3.85c-.94.35-1.94.58-2.92.87a2.16,2.16,0,0,0,.31.24,1.86,1.86,0,0,0,.54.24C299.45,566.58,301.18,568.83,301.24,572.65Zm94-400.51c-1.14,3.83-.09,8.48-5.62,9.2,3.36.53,4.76,2.32,4.82,5.36a16.74,16.74,0,0,0,.65,3.16,7.16,7.16,0,0,0,.76-2.91c.09-3,1.36-5.06,4.8-5.65C395.05,180.56,396.27,176,395.21,172.14Zm-153.8,68.49a8.39,8.39,0,0,0,.85.27,4.44,4.44,0,0,1,3.77,4.41c.09,1.16.38,2.31.57,3.47,1.25-3.29.33-7.69,5.75-8.3-3.57-.62-4.88-2.66-4.95-5.78a17.61,17.61,0,0,0-.41-2.57C245.81,235.52,246.59,239.87,241.41,240.63Zm291.68-2.95c-5-.11-4.1-4.7-5.22-8-.8,3.53-.4,7.68-5.78,8.37,5.7.33,4.77,4.84,5.82,8.14.5-1.79.38-3.82,1.24-5.27S531.82,238.66,533.09,237.68ZM249.51,493.09a22.09,22.09,0,0,0,.51,3.07c1.31-3.29.27-7.83,5.94-8.36-5.73-.52-4.61-5.17-5.81-9-.93,3.91,0,8.38-5.75,8.76a5.9,5.9,0,0,0,1,.56C248.14,488.65,249.43,490.31,249.51,493.09Zm272.1-.68a15.45,15.45,0,0,0,.53,3c1.28-3.2.24-7.77,5.25-7.9-1.32-1.09-3.06-1.94-3.84-3.32s-.71-3.41-1-5.14l-.5-.09c-.56,3.51-.18,7.6-5.39,8.28C519.79,487.8,521.62,489.22,521.61,492.41Zm-121,105.31c1.16-3.69.13-8.26,5.68-8.81-5.6-.54-4.5-5.13-5.7-9-.87,4-.15,8.3-5.51,9C400.53,589.54,399.58,593.93,400.56,597.72ZM545,363.24c-1.61.05-2.35,1-2.34,2.59a2.24,2.24,0,0,0,2.41,2.53c1.55,0,2.34-1,2.38-2.87A2.25,2.25,0,0,0,545,363.24ZM373.38,462.72a2.39,2.39,0,1,0,.14-4.78,2.32,2.32,0,0,0-2.54,2.2A2.42,2.42,0,0,0,373.38,462.72Zm95.36-147a2.25,2.25,0,0,0-2.43,2.29,2.4,2.4,0,0,0,2.41,2.61,2.18,2.18,0,0,0,2.4-2.31A2.33,2.33,0,0,0,468.74,315.75ZM416.13,457.21a2.32,2.32,0,0,0-2.35-2.41,2.48,2.48,0,0,0-2.62,2.38,2.3,2.3,0,0,0,2.08,2.4C414.92,459.62,416.21,458.53,416.13,457.21ZM320.74,295a2.64,2.64,0,0,0-3,2.24,2.16,2.16,0,0,0,1.94,2.51,2.44,2.44,0,0,0,2.95-2.17A2.38,2.38,0,0,0,320.74,295Zm-28.6,45.65a2.19,2.19,0,0,0,2.38,2.33c1.54,0,2.31-1.05,2.41-2.55a2.33,2.33,0,0,0-2.42-2.36A2.37,2.37,0,0,0,292.14,340.62ZM514.08,462.55c1.5,0,2.36-1,2.42-2.75a2.24,2.24,0,0,0-2.42-2.13,2.37,2.37,0,0,0-2.4,2.58A2.16,2.16,0,0,0,514.08,462.55Zm-57.71-34.36a2.54,2.54,0,0,0-2.61,2.41A2.27,2.27,0,0,0,456,433a2.39,2.39,0,0,0,2.63-2.38A2.27,2.27,0,0,0,456.37,428.19Zm87.51-28.91a2.38,2.38,0,0,0-2.24-2.5,2.52,2.52,0,0,0-2.52,2.5,2.38,2.38,0,1,0,4.76,0Zm-75.61,17.57a2.41,2.41,0,0,0,2.44-2.54,2.16,2.16,0,0,0-2.31-2.38,2.32,2.32,0,0,0-2.46,2.5C465.9,415.92,466.85,416.65,468.27,416.85Zm-191,66.78a2.24,2.24,0,0,0,2.28-2.44,2.48,2.48,0,0,0-2.52-2.47,2.34,2.34,0,0,0-2.31,2.45A2.52,2.52,0,0,0,277.26,483.63Zm-44.78-76.24a2.32,2.32,0,0,0,2.34-2.41,2.46,2.46,0,0,0-2.48-2.52,2.29,2.29,0,0,0-2.31,2.43A2.38,2.38,0,0,0,232.48,407.39Zm81,97.24a2.4,2.4,0,0,0,.14,4.8,2.18,2.18,0,0,0,2.42-2.05A2.58,2.58,0,0,0,313.47,504.63ZM233,316.53a2.38,2.38,0,0,0,2.32,2.47c1.35.16,2.45-1,2.47-2.82,0-1.15-.82-2-2.25-2.12A2.5,2.5,0,0,0,233,316.53Zm154.1,1.78c-.16-1.38-.95-2.28-2-2.31-1.85,0-3.11,1.1-3,2.43a2.35,2.35,0,0,0,2.45,2.33A2.44,2.44,0,0,0,387.07,318.31ZM499.65,474.7a2.58,2.58,0,0,0-2.53,2.51,2.37,2.37,0,0,0,2.57,2.4,2.54,2.54,0,0,0,2.34-2.5A2.39,2.39,0,0,0,499.65,474.7Zm-127.11-155a2.19,2.19,0,0,0,2.34,2.37c1.55,0,2.41-.82,2.58-2.47a2.46,2.46,0,0,0-4.92.1Zm58.16,37.43a2.52,2.52,0,0,0,2.41,2.6,2.42,2.42,0,0,0,2.42-2.29,2.48,2.48,0,0,0-2.41-2.68A2.39,2.39,0,0,0,430.7,357.11ZM255.26,453.22a2.25,2.25,0,0,0-2.32,2.41,2.28,2.28,0,0,0,2.5,2.43,2.22,2.22,0,0,0,2.35-2.28A2.56,2.56,0,0,0,255.26,453.22Zm13.95,17.51a2.36,2.36,0,0,0-2.36,2.41,2.53,2.53,0,0,0,2.51,2.5,2.4,2.4,0,0,0,2.38-2.4A2.62,2.62,0,0,0,269.21,470.73Zm187.44,38.73a2.38,2.38,0,0,0-2.39-2.41,2.57,2.57,0,0,0-2.59,2.46A2.53,2.53,0,0,0,454,512,2.66,2.66,0,0,0,456.65,509.46ZM340.87,382.27a2.28,2.28,0,0,0,2.24-2.49,2.4,2.4,0,0,0-2.51-2.46,2.34,2.34,0,0,0-2.28,2.48A2.49,2.49,0,0,0,340.87,382.27Zm.05-28.59a2.56,2.56,0,0,0,2.52-2.69,2.37,2.37,0,0,0-2.32-2.26,2.43,2.43,0,0,0-2.48,2.5A2.27,2.27,0,0,0,340.92,353.68ZM257.6,276.4a2.22,2.22,0,0,0-2.4-2.39,2.34,2.34,0,0,0-2.4,2.58,2.18,2.18,0,0,0,2.39,2.31A2.36,2.36,0,0,0,257.6,276.4Zm-27.74,51a2.35,2.35,0,0,0,2.46,2.32c1.53-.05,2.34-1,2.37-2.9a2.48,2.48,0,0,0-2.41-2.07A2.66,2.66,0,0,0,229.86,327.44Zm70.26,3.39a2.4,2.4,0,0,0-2.29-2.47,2.52,2.52,0,0,0-2.49,2.53,2.33,2.33,0,0,0,2.31,2.45A2.42,2.42,0,0,0,300.12,330.83Zm23.41-113A2.44,2.44,0,0,0,321,220.2a2.25,2.25,0,0,0,2.08,2.37c1.67,0,3-1.1,2.87-2.4A2.3,2.3,0,0,0,323.53,217.79Zm90.08-8.53a2.45,2.45,0,0,0-2.56-2.51,2.27,2.27,0,0,0-2.33,2.4,2.24,2.24,0,0,0,2.55,2.36A2.19,2.19,0,0,0,413.61,209.26ZM366,458.54a2.45,2.45,0,0,0-2.48-2.51,2.31,2.31,0,0,0-2.46,2.29,2.38,2.38,0,0,0,2.47,2.48A2.31,2.31,0,0,0,366,458.54Zm-42.3,50.88a2.39,2.39,0,0,0-2.41,2.38,2.51,2.51,0,0,0,2.56,2.46,2.48,2.48,0,0,0,2.43-2.37A2.58,2.58,0,0,0,323.65,509.42Zm139-89c-1.52.05-2.34,1-2.38,2.63a2.2,2.2,0,0,0,2.42,2.22,2.33,2.33,0,0,0,2.37-2.58A2.15,2.15,0,0,0,462.69,420.42ZM342.38,519.08c-.21,1.24,1.14,2.5,2.8,2.53,1.2,0,2-.88,2.2-2.27a2.42,2.42,0,0,0-2.47-2.51A2.35,2.35,0,0,0,342.38,519.08Zm2.07-127.92a2.3,2.3,0,0,0,2.44-2.29,2.36,2.36,0,0,0-2.39-2.54,2.16,2.16,0,0,0-2.43,2.23A2.48,2.48,0,0,0,344.45,391.16Zm90.89-15.48c-.08-1.54-.8-2.43-2.29-2.46a2.22,2.22,0,0,0-2.49,2.4,2.16,2.16,0,0,0,2.28,2.4A2.26,2.26,0,0,0,435.34,375.68Zm-189-79.93a2.14,2.14,0,0,0-2-2.38,2.62,2.62,0,0,0-2.9,2.45,2.24,2.24,0,0,0,2.36,2.37A2.29,2.29,0,0,0,246.31,295.75ZM481.82,385.8a2.34,2.34,0,0,0-2.41-2.15,2.38,2.38,0,0,0-2.38,2.58,2.29,2.29,0,0,0,2.39,2.36A2.52,2.52,0,0,0,481.82,385.8Zm20-131.2a2.34,2.34,0,0,0-2.44-2.48,2.22,2.22,0,0,0-2.39,2.32A2.53,2.53,0,0,0,499.4,257,2.29,2.29,0,0,0,501.78,254.6ZM489,484.92a2.32,2.32,0,0,0,2.32,2.43,2.47,2.47,0,0,0,2.51-2.48,2.25,2.25,0,0,0-2.3-2.42A2.52,2.52,0,0,0,489,484.92ZM394.53,268.69a2.31,2.31,0,0,0-2.52,2.22c-.17,1.34,1,2.5,2.88,2.55,1,0,1.87-.81,2.05-2.23A2.36,2.36,0,0,0,394.53,268.69ZM541.14,410.11a2.15,2.15,0,0,0-2.27-2.39,2.42,2.42,0,0,0-2.5,2.48,2.39,2.39,0,1,0,4.77-.09ZM538.61,319a2.3,2.3,0,0,0-2.3,2.46,2.46,2.46,0,0,0,2.5,2.5,2.24,2.24,0,0,0,2.28-2.1C541.08,320,540,318.81,538.61,319Zm8.44,58.21a2.39,2.39,0,1,0-4.77-.11,2.26,2.26,0,0,0,2.22,2.5A2.35,2.35,0,0,0,547.05,377.17ZM544.55,352a2.25,2.25,0,0,0-2.28,2.44,2.38,2.38,0,1,0,4.76,0A2.39,2.39,0,0,0,544.55,352ZM251.63,285.77a2.41,2.41,0,0,0-4.81.22,2.16,2.16,0,0,0,2.33,2.37C250.64,288.35,251.51,287.39,251.63,285.77ZM393.47,415.41c1.53-.08,2.14-1.06,2.3-2.41a2.47,2.47,0,0,0-4.94.15A2.25,2.25,0,0,0,393.47,415.41ZM493.69,246.88c0-1.49-1-2.33-2.58-2.49a2.43,2.43,0,0,0,.24,4.85A2.17,2.17,0,0,0,493.69,246.88Zm-37.05,52.54a2.19,2.19,0,0,0-2.27,2.46,2.25,2.25,0,0,0,2.4,2.37,2.23,2.23,0,0,0,2.42-2.12A2.57,2.57,0,0,0,456.64,299.42Zm74.56,3.48a2.34,2.34,0,0,0,2.18-2.37,2.45,2.45,0,0,0-2.47-2.51,2.25,2.25,0,0,0-2.38,2.34A2.55,2.55,0,0,0,531.2,302.9ZM366.51,210.83c1.46-.07,2.32-.83,2.4-2,0-1.72-.93-2.77-2.31-2.74a2.38,2.38,0,1,0-.09,4.75Zm-59.32,99.63a2.44,2.44,0,0,0-2.38,2.63,2.12,2.12,0,0,0,2.29,2.21,2.47,2.47,0,0,0,2.52-2.69A2.32,2.32,0,0,0,307.19,310.46Zm-2.78,11.1a2.38,2.38,0,0,0-4.76,0,2.06,2.06,0,0,0,2,2.43A2.47,2.47,0,0,0,304.41,321.56Zm236.86,8.36a2.11,2.11,0,0,0-2.17,2.3,2.29,2.29,0,0,0,2.46,2.47,2.2,2.2,0,0,0,2.31-2.14C543.82,330.78,542.78,329.82,541.27,329.92Zm-193.9,12.36a2.41,2.41,0,0,0-4.81.07,2.19,2.19,0,0,0,2.28,2.45A2.51,2.51,0,0,0,347.37,342.28Zm196-1.44a2.28,2.28,0,0,0-2.3,2.44,2.35,2.35,0,0,0,2.44,2.5,2.3,2.3,0,0,0,2.33-2.16A2.51,2.51,0,0,0,543.37,340.84Zm-121,182a2.34,2.34,0,0,0,2.61-2.27,2.45,2.45,0,1,0-4.9-.1A2.14,2.14,0,0,0,422.38,522.86ZM334,513.54c-1.5.05-2.19,1-2.25,2.44a2.47,2.47,0,0,0,2.63,2.36,2.41,2.41,0,1,0-.38-4.8Zm46.06-306c0-1.56-.89-2.24-2.32-2.45-1.42.14-2.4.74-2.5,2.29a2.28,2.28,0,0,0,2.43,2.5A2.21,2.21,0,0,0,380.06,207.5ZM507.12,466.42a2.58,2.58,0,0,0-2.44,2.61,2.55,2.55,0,0,0,2.45,2.38,2.72,2.72,0,0,0,2.45-2.64A2.42,2.42,0,0,0,507.12,466.42Zm-235.6-207.8a2.22,2.22,0,0,0-2.35-2.17A2.49,2.49,0,0,0,266.7,259a2.26,2.26,0,0,0,2.25,2.32A2.53,2.53,0,0,0,271.52,258.62ZM373.89,409.55a2.28,2.28,0,0,0-2.22,2.55,2.21,2.21,0,0,0,2.52,2.22,2.12,2.12,0,0,0,2.33-2.15A2.5,2.5,0,0,0,373.89,409.55Zm-2.16-138c.1,1.41.9,2.28,1.85,2.34,1.95.05,3.26-1.07,3.14-2.37a2.36,2.36,0,0,0-2.41-2.38A2.41,2.41,0,0,0,371.73,271.5ZM294.34,393.14a2.37,2.37,0,0,0,2.38-2.33,2.44,2.44,0,0,0-2.44-2.6,2.33,2.33,0,0,0-2.39,2.37A2.49,2.49,0,0,0,294.34,393.14Zm67.44-119.89a2.29,2.29,0,0,0,2.26,2.48,2.36,2.36,0,0,0,2.58-2.35c0-1.5-.69-2.38-2.22-2.41A2.27,2.27,0,0,0,361.78,273.25Zm52.52-.67a2.26,2.26,0,0,0-2.39,2.34,2.56,2.56,0,0,0,2.58,2.45,2.47,2.47,0,0,0,2.4-2.41A2.39,2.39,0,0,0,414.3,272.58Zm-62.22,3.66a2.23,2.23,0,0,0,2.34,2.34,2.31,2.31,0,0,0,2.52-2.42,2.12,2.12,0,0,0-2.34-2.31A2.23,2.23,0,0,0,352.08,276.24Zm174,16.65a2.28,2.28,0,0,0,2.28-2.46,2.43,2.43,0,0,0-2.52-2.46,2.2,2.2,0,0,0-2.27,2.14C523.6,291.82,524.77,293,526.07,292.89ZM249.26,443.74a2.38,2.38,0,0,0-2.34,2.46,2.55,2.55,0,0,0,2.52,2.52,2.34,2.34,0,0,0,2.31-2.45A2.5,2.5,0,0,0,249.26,443.74Zm281.8-10.09a2.51,2.51,0,0,0,0-5c-1.46.29-2.39,1-2.38,2.64A2.25,2.25,0,0,0,531.06,433.65ZM239.5,428.59a2.14,2.14,0,0,0,2.29-2.22,2.43,2.43,0,0,0-2.59-2.59,2.25,2.25,0,0,0-2.22,2.34A2.37,2.37,0,0,0,239.5,428.59Zm51.6-55.49a2.54,2.54,0,0,0,2.54-2.37,2.51,2.51,0,0,0-2.5-2.56,2.48,2.48,0,0,0,0,4.93Zm134.13,22.59a2.57,2.57,0,0,0,2.52-2.73,2.2,2.2,0,0,0-2.32-2.14,2.28,2.28,0,0,0-2.47,2.46A2.17,2.17,0,0,0,425.23,395.69Zm120.63-7.51a2.26,2.26,0,0,0-2.34-2.39c-1.33-.11-2.45,1.14-2.42,2.88a2.26,2.26,0,0,0,2.35,2.05A2.37,2.37,0,0,0,545.86,388.18ZM355.55,212.61a2.2,2.2,0,0,0,2.3-2.2c-.05-1.65-1.05-2.65-2.44-2.56a2.38,2.38,0,1,0,.14,4.76ZM336.62,360.84a2.16,2.16,0,0,0,2.51,2.2c1.55-.07,2.14-1.08,2.27-2.5a2.4,2.4,0,1,0-4.78.3ZM463,307.28a2.19,2.19,0,0,0-2.19,2.54,2.24,2.24,0,0,0,2.48,2.27,2.14,2.14,0,0,0,2.31-2.13A2.49,2.49,0,0,0,463,307.28ZM402.68,413a2.22,2.22,0,0,0,2.4-2.49c0-1.48-1-2.17-2.43-2.32-1.45.27-2.47,1-2.39,2.58A2.11,2.11,0,0,0,402.68,413Zm-19.09,45.7c-1.47.11-2.4.83-2.43,2.34a2.22,2.22,0,0,0,2.31,2.44,2.39,2.39,0,1,0,.12-4.78Zm-64-27.14a2.2,2.2,0,0,0-2.32,2.22,2.53,2.53,0,0,0,2.43,2.62,2.2,2.2,0,0,0,2.38-2.07C322.06,432.61,321,431.53,319.55,431.6Zm-40.16-181a2.27,2.27,0,0,0-2.41-2.13,2.41,2.41,0,0,0-2.41,2.59,2.15,2.15,0,0,0,2.28,2.23A2.49,2.49,0,0,0,279.39,250.6Zm240.78,27.71a2.32,2.32,0,0,0-2.31,2.45,2.52,2.52,0,0,0,2.53,2.48,2.41,2.41,0,0,0,2.34-2.45A2.58,2.58,0,0,0,520.17,278.31ZM235.59,418.16a2.45,2.45,0,0,0,0-4.9,2.2,2.2,0,0,0-2.42,2.2A2.47,2.47,0,0,0,235.59,418.16ZM453.81,219.82a2.45,2.45,0,0,0-2.4,2.43,2.5,2.5,0,0,0,2.75,2.41,2.27,2.27,0,0,0,2.21-2.35A2.62,2.62,0,0,0,453.81,219.82ZM399.7,205.45a2.24,2.24,0,0,0-2.12,2.31,2.4,2.4,0,0,0,2.5,2.46,2.28,2.28,0,0,0,2.4-2.34C402.56,206.48,401.45,205.43,399.7,205.45ZM292.34,383.19c1.45-.14,2.22-1,2.23-1.95,0-2-1.05-3-2.5-2.92a2.27,2.27,0,0,0-2.27,2.46A2.4,2.4,0,0,0,292.34,383.19ZM388.82,209.6a2.22,2.22,0,0,0,2.48-2.25,2.31,2.31,0,0,0-2.31-2.49,2.36,2.36,0,0,0-2.58,2.39A2.24,2.24,0,0,0,388.82,209.6ZM227.63,374.13a2.3,2.3,0,0,0,2.46-2.14,2.47,2.47,0,0,0-2.25-2.71,2.23,2.23,0,0,0-2.51,2.23A2.25,2.25,0,0,0,227.63,374.13Zm195.49,82a2.48,2.48,0,0,0,2.59-2.43,2.4,2.4,0,0,0-2.41-2.39,2.57,2.57,0,0,0-2.6,2.46A2.37,2.37,0,0,0,423.12,456.16Zm18.05-238.31a2.21,2.21,0,0,0,2.52,2.36,2.14,2.14,0,0,0,2.33-2.34c0-1.55-1.07-2.26-2.53-2.46A2.33,2.33,0,0,0,441.17,217.85ZM315.69,304.66a2.13,2.13,0,0,0-2.48-2.21,2.41,2.41,0,0,0-.2,4.81A2.54,2.54,0,0,0,315.69,304.66ZM443.83,516.35a2.6,2.6,0,0,0,2.56-2.49,2.29,2.29,0,0,0-2.44-2.31,2.4,2.4,0,1,0-.12,4.8Zm-131-92.21a2.07,2.07,0,0,0-2.37,2.24,2.24,2.24,0,0,0,2.37,2.53c1.47,0,2.25-.84,2.45-2.29C315.09,425.15,314.42,424.16,312.8,424.14Zm43.39,31.68a2.44,2.44,0,0,0-2.56-2.7,2.14,2.14,0,0,0-2.27,2.23,2.36,2.36,0,0,0,2.44,2.54A2.23,2.23,0,0,0,356.19,455.82ZM432.86,520c1.73.07,2.91-1,2.88-2.38a2.19,2.19,0,0,0-2.16-2.37,2.36,2.36,0,0,0-2.69,2.27A2.22,2.22,0,0,0,432.86,520ZM225.32,360.48a2.21,2.21,0,0,0,2.11,2.48,2.29,2.29,0,0,0,2.62-2.28,2.19,2.19,0,0,0-2.17-2.55A2.24,2.24,0,0,0,225.32,360.48ZM355.76,524.07c1.5,0,2.34-.74,2.42-1.84,0-1.87-1-3.05-2.47-2.92a2.24,2.24,0,0,0-2.33,2.43A2.18,2.18,0,0,0,355.76,524.07Zm77-307.46a2.31,2.31,0,0,0,2.56-2.17,2.2,2.2,0,0,0-2.13-2.58,2.18,2.18,0,0,0-2.66,2A2.39,2.39,0,0,0,432.8,216.61Zm-88.33-1.44a2.45,2.45,0,0,0,2.54-2.43,2.34,2.34,0,0,0-2.39-2.37,2.43,2.43,0,0,0-2.53,2.45A2.27,2.27,0,0,0,344.47,215.17Zm135.22,129a2.23,2.23,0,0,0-2.53,2.21,2.42,2.42,0,0,0,2.36,2.65,2.23,2.23,0,0,0,2.4-2.21C481.9,345.17,481.2,344.22,479.69,344.14ZM422.19,209a2.16,2.16,0,0,0-2.46,2.12,2.45,2.45,0,0,0,2.51,2.65,2.28,2.28,0,0,0,2.35-2.43A2.2,2.2,0,0,0,422.19,209Zm-.75,69.46a2.55,2.55,0,0,0,2.57,2.45,2.42,2.42,0,0,0,2.39-2.46,2.48,2.48,0,0,0-2.58-2.37A2.33,2.33,0,0,0,421.44,278.42ZM393.68,463.25a2.3,2.3,0,0,0,2.49-2.43,2.37,2.37,0,0,0-2.33-2.35,2.5,2.5,0,0,0-2.6,2.49A2.28,2.28,0,0,0,393.68,463.25Zm-4.5,63.87a2.44,2.44,0,0,0,2.45-2.52,2.15,2.15,0,0,0-2.4-2.27,2.2,2.2,0,0,0-2.45,2.21A2.47,2.47,0,0,0,389.18,527.12ZM228.41,385.33a2.39,2.39,0,0,0,2.5-2.32c-.13-1.41-.78-2.46-2.27-2.55a2.2,2.2,0,0,0-2.52,2.21A2.31,2.31,0,0,0,228.41,385.33Zm300,55.88a2.15,2.15,0,0,0-2.16-2.42,2.5,2.5,0,0,0-2.62,2.54,2.39,2.39,0,0,0,4.78-.12ZM479.1,395.73a2.15,2.15,0,0,0-2.3-2.22,2.37,2.37,0,0,0-2.47,2.51,2.22,2.22,0,0,0,2.15,2.33A2.42,2.42,0,0,0,479.1,395.73Zm-2.21-61.43a2.16,2.16,0,0,0-2.26,2.45,2.18,2.18,0,0,0,2.24,2.37,2.27,2.27,0,0,0,2.53-2.35A2.36,2.36,0,0,0,476.89,334.3Zm-179.4,68.43a2.13,2.13,0,0,0,2.33-2.34,2.27,2.27,0,0,0-2.35-2.51,2.24,2.24,0,0,0-2.42,2.36A2.28,2.28,0,0,0,297.49,402.73Zm-8.58-42.29a2.18,2.18,0,0,0,2.22,2.49,2.36,2.36,0,0,0,2.52-2.47,2.32,2.32,0,0,0-2.45-2.39A2.17,2.17,0,0,0,288.91,360.44Zm112.21-39.09a2.34,2.34,0,0,0,2.38,2.59,2.17,2.17,0,0,0,2.42-2.09,2.41,2.41,0,0,0-2.49-2.7A2.17,2.17,0,0,0,401.12,321.35ZM473,407.82a2.43,2.43,0,0,0,2.44-2.57,2.22,2.22,0,0,0-2.29-2.29,2.41,2.41,0,0,0-2.49,2.66A2.21,2.21,0,0,0,473,407.82ZM301.51,412c1.59,0,2.5-.81,2.53-2.25a2.31,2.31,0,0,0-2.36-2.58,2.13,2.13,0,0,0-2.39,2.27A2.22,2.22,0,0,0,301.51,412Zm92.71-95.36a2.38,2.38,0,0,0-.13,4.75,2.39,2.39,0,0,0,2.62-2.36A2.43,2.43,0,0,0,394.22,316.6Zm12.79-44a2.43,2.43,0,0,0-2.5-2.52,2.2,2.2,0,0,0-2.38,2.25,2.26,2.26,0,0,0,2.4,2.53A2.29,2.29,0,0,0,407,272.61Zm23.11,114.63a2.3,2.3,0,0,0,2.33-2.58,2.15,2.15,0,0,0-2.44-2.25A2.23,2.23,0,0,0,427.7,385,2.13,2.13,0,0,0,430.12,387.24ZM283,243.46a2.21,2.21,0,0,0,2.3,2.44,2.57,2.57,0,0,0,2.53-2.74,2.22,2.22,0,0,0-2.44-2.1A2.28,2.28,0,0,0,283,243.46Zm-21.44,26.4a2.56,2.56,0,0,0,2.79-2.24,2.35,2.35,0,0,0-2.18-2.59,2.27,2.27,0,0,0-2.61,2.13A2.22,2.22,0,0,0,261.51,269.86Zm122.93-1.52a2.18,2.18,0,0,0-2.47,2.21c-.09,1.57.71,2.44,1.89,2.52,1.88.06,3-.94,2.93-2.35A2.25,2.25,0,0,0,384.44,268.34Zm131.94,3.21a2.51,2.51,0,0,0-2.62-2.43,2.24,2.24,0,0,0-2.23,2.33,2.48,2.48,0,0,0,2.78,2.5A2.23,2.23,0,0,0,516.38,271.55Zm-33,104.66a2.32,2.32,0,0,0-2.13-2.57,2.29,2.29,0,0,0-2.61,2.23,2.17,2.17,0,0,0,2.07,2.62A2.31,2.31,0,0,0,483.41,376.21Zm-1.89-12.62a2.23,2.23,0,0,0-2.38,2.37,2.42,2.42,0,0,0,2.53,2.48,2.32,2.32,0,0,0,2.23-2.61A2.12,2.12,0,0,0,481.52,363.59ZM436.33,366c-.17-1.41-.8-2.36-2.37-2.37a2.19,2.19,0,0,0-2.42,2.31,2.4,2.4,0,1,0,4.79.06ZM229.94,396.41a2.31,2.31,0,0,0,2.52-2.31,2.38,2.38,0,0,0-2.45-2.55A2.18,2.18,0,0,0,227.7,394,2.22,2.22,0,0,0,229.94,396.41Zm153.83,14.68a2.34,2.34,0,0,0-2.58,2.14c0,1.52.67,2.47,2.2,2.6a2.18,2.18,0,0,0,2.64-2.05A2.32,2.32,0,0,0,383.77,411.09Zm-76.94,9.64a2.31,2.31,0,0,0,2.39-2.32,2.56,2.56,0,0,0-2.47-2.55,2.21,2.21,0,0,0-2.35,2.35A2.27,2.27,0,0,0,306.83,420.73Zm228.45,2.54c1.31.11,2.39-1.14,2.37-2.8a2.23,2.23,0,0,0-2.33-2.17,2.56,2.56,0,0,0-2.46,2.58A2.42,2.42,0,0,0,535.28,423.27Zm-126.2,99.27a2.35,2.35,0,0,0,2.41,2.57,2.37,2.37,0,0,0,2.46-2.36,2.2,2.2,0,0,0-2.32-2.4A2.24,2.24,0,0,0,409.08,522.54ZM244.21,438.86a2.26,2.26,0,0,0,2.2-2.56,2.24,2.24,0,0,0-2.47-2.29,2.16,2.16,0,0,0-2.33,2.19A2.54,2.54,0,0,0,244.21,438.86ZM518,451a2.16,2.16,0,0,0,2.27,2.24,2.45,2.45,0,0,0,2.54-2.69,2.2,2.2,0,0,0-2.37-2.11A2.41,2.41,0,0,0,518,451ZM259.6,464.57a2.42,2.42,0,0,0,2.47,2.53,2.15,2.15,0,0,0,2.34-2.1,2.41,2.41,0,0,0-2.55-2.69A2.16,2.16,0,0,0,259.6,464.57ZM478.66,356.39c.14,1.41.65,2.47,2.23,2.57a2.17,2.17,0,0,0,2.56-2.14,2.29,2.29,0,0,0-2.26-2.65C479.62,354.1,479,355,478.66,356.39Zm-188.74-5.93a2.37,2.37,0,0,0,2.36,2.42,2.41,2.41,0,0,0,2.42-2.53,2.34,2.34,0,0,0-2.32-2.44A2.49,2.49,0,0,0,289.92,350.46Zm-63.81-1.37a2.37,2.37,0,1,0,4.71.44,2.1,2.1,0,0,0-1.7-2.52C227.2,346.86,226.24,347.65,226.11,349.09ZM366.83,526c1.36-.18,2.34-.8,2.46-2.3a2.28,2.28,0,0,0-2.37-2.51,2.12,2.12,0,0,0-2.46,2.19C364.37,525,365.34,525.69,366.83,526ZM398,524a2.19,2.19,0,0,0,2.33,2.35,2.23,2.23,0,0,0,2.56-2.16,2.51,2.51,0,0,0-2.34-2.62A2.46,2.46,0,0,0,398,524Zm-20.27,2.75c1.67,0,2.61-.6,2.74-2.11a2.28,2.28,0,0,0-2.27-2.64,2.31,2.31,0,0,0-2.54,2.37A2.13,2.13,0,0,0,377.68,526.79Zm-150-188.5a2.08,2.08,0,0,0,2,2.39,2.5,2.5,0,0,0,2.77-2.35,2.34,2.34,0,0,0-2.49-2.47A2.15,2.15,0,0,0,227.65,338.29Zm245.57-13.5A2.2,2.2,0,0,0,471,327.3c.07,1.44.86,2.32,2.95,2.31,1,0,1.77-.93,1.85-2.36A2.47,2.47,0,0,0,473.22,324.79ZM239.3,303.61a2.23,2.23,0,0,0-2.39,2.51,2.27,2.27,0,0,0,2.32,2.37,2.38,2.38,0,0,0,2.42-2.57A2.13,2.13,0,0,0,239.3,303.61Zm296,4.79a2.22,2.22,0,0,0-2.51,2.22,2.41,2.41,0,0,0,2.4,2.6,2.23,2.23,0,0,0,2.4-2.27C537.5,309.4,536.79,308.47,535.28,308.4ZM336.3,216a2.29,2.29,0,0,0-2.47-2.27,2.39,2.39,0,0,0-.05,4.78A2.46,2.46,0,0,0,336.3,216Zm-22.87,6.54a2.44,2.44,0,0,0-2.55,2.46,2.21,2.21,0,0,0,2.19,2.35,2.35,2.35,0,0,0,2.62-2.33A2.3,2.3,0,0,0,313.43,222.56ZM507,265.2a2.13,2.13,0,0,0,2.31-2.17,2.48,2.48,0,0,0-2.58-2.67,2.28,2.28,0,0,0-2.23,2.34A2.45,2.45,0,0,0,507,265.2Zm-103.3,192a2.4,2.4,0,0,0,0,4.79,2.42,2.42,0,0,0,2.51-2.35A2.35,2.35,0,0,0,403.72,457.19ZM425.5,337a2.21,2.21,0,0,0-2.07,2.41,2.47,2.47,0,0,0,2.6,2.42,2.19,2.19,0,0,0,2.19-2.33A2.42,2.42,0,0,0,425.5,337ZM339,372.8a2.38,2.38,0,0,0,2.33-2.34,2.47,2.47,0,0,0-2.46-2.63,2.3,2.3,0,0,0-2.3,2.44A2.39,2.39,0,0,0,339,372.8Zm91.35-27.32a2.43,2.43,0,0,0,.14,4.86,2.27,2.27,0,0,0,2.39-2.35A2.48,2.48,0,0,0,430.31,345.48ZM586,437.14a1.74,1.74,0,0,0,1.94,2c1.39,0,2.15-.81,2.48-2.69-.75-.61-1.46-1.65-2.28-1.73C586.66,434.52,586.05,435.72,586,437.14Zm-403.35-2.52c-1.34,0-1.92.91-1.92,2.23s.77,2.35,2.12,2.21c.81-.08,1.53-.93,2-1.25C184.76,435.73,184.19,434.63,182.66,434.62Zm407.71-8.37c-.74-.54-1.45-1.47-2.22-1.53-1.56-.12-2.07,1.16-2.1,2.53s.66,1.77,1.87,1.76C589.47,429,590,428.07,590.37,426.25ZM589,313.47c.77-.1,1.44-1.06,2.15-1.63-.45-1.83-1-2.68-2.55-2.66-1.25,0-1.84.67-1.78,1.85C586.91,312.4,587.46,313.66,589,313.47ZM182.68,424.67a1.76,1.76,0,0,0-1.88,2c0,1.36.56,2.43,2.08,2.24a6.1,6.1,0,0,0,2-1.08C184.65,425.94,184.29,424.68,182.68,424.67Zm.76-111.15c1.61,0,2-1.21,2.23-3.17a5.67,5.67,0,0,0-1.95-1.1c-1.5-.21-2.07.82-2.13,2.2A1.76,1.76,0,0,0,183.44,313.52ZM588.16,444.89a1.89,1.89,0,0,0-2.14,1.87c0,1.56.84,2.45,2,2.27a3.09,3.09,0,0,0,2-1.93C590.36,445.87,589.5,444.94,588.16,444.89Zm-403.37,1.59a1.91,1.91,0,0,0-2.16-1.59c-1.35.09-2.18,1-1.82,2.24a3.09,3.09,0,0,0,2,1.9C184,449.18,184.86,448.29,184.79,446.48ZM441.54,43.2c0-1.14-.58-2-1.94-2s-2,.53-2.39,2.27c.77.62,1.47,1.59,2.33,1.78C440.89,45.55,441.57,44.46,441.54,43.2Zm-2.79,659.61a1.83,1.83,0,0,0-1.91,2.22c.12.8,1,1.5,1.46,2.24h1c.5-.77,1.3-1.49,1.43-2.31A1.76,1.76,0,0,0,438.75,702.81Zm-106.63.07c-1.33-.31-2.06.73-2,2s.54,2,1.9,2c1.21,0,2-.48,2.13-2.47C333.66,704.07,333,703.08,332.12,702.88Zm.74-657.62c.86-.18,1.56-1.15,2.34-1.76-.38-1.73-1.13-2.27-2.37-2.3a1.79,1.79,0,0,0-1.95,2C330.84,44.45,331.52,45.53,332.86,45.26ZM185.57,92.39a1.7,1.7,0,0,0-1.94-1.94c-.83.1-1.58.88-2.36,1.35,0,.31,0,.62-.05.93.73.57,1.4,1.48,2.21,1.63C184.67,94.59,185.54,93.73,185.57,92.39ZM588.1,598c.69.08,1.51-.89,2.27-1.39,0-.32,0-.63,0-.94-.75-.54-1.46-1.42-2.27-1.53a1.66,1.66,0,0,0-2,2A2.91,2.91,0,0,0,588.1,598Zm-.05-143a1.66,1.66,0,0,0-1.92,2.09,2.89,2.89,0,0,0,2,1.77c.69.07,1.48-.93,2.22-1.46l0-.94C589.6,455.9,588.87,455,588.05,455Zm.86-191.59c.81-.11,1.52-1,2.27-1.54,0-.31,0-.62,0-.93-.77-.5-1.59-1.47-2.28-1.39a2.88,2.88,0,0,0-2,1.84A1.67,1.67,0,0,0,588.91,263.36Zm-403.4-2c-.14-.82-1-1.52-1.53-2.27h-.91c-.5.77-1.47,1.59-1.38,2.29a2.87,2.87,0,0,0,1.82,2A1.66,1.66,0,0,0,185.51,261.33ZM589,253.42c.81-.14,1.49-1,2.23-1.6l0-.92c-.78-.49-1.51-1.28-2.34-1.4a1.72,1.72,0,0,0-2,1.92C586.85,252.76,587.7,253.64,589,253.42Zm-405.48,0a1.67,1.67,0,0,0,2-2c-.13-.83-1-1.54-1.5-2.3h-.91c-.51.76-1.49,1.57-1.42,2.26A2.87,2.87,0,0,0,183.48,253.4Zm-.76,350.67c-.82.11-1.52,1-2.27,1.53v.93c.76.51,1.58,1.49,2.27,1.41a2.94,2.94,0,0,0,2-1.84A1.66,1.66,0,0,0,182.72,604.07Zm.85-300.94a1.67,1.67,0,0,0,1.92-2.09,2.89,2.89,0,0,0-2-1.77c-.69-.07-1.48.93-2.23,1.46l0,.94C182,302.18,182.75,303,183.57,303.13Zm-.93,165.62a2.87,2.87,0,0,0,2.05-1.74,1.67,1.67,0,0,0-1.89-2.12c-.81.08-1.56.92-2.33,1.42,0,.32,0,.63,0,.94C181.17,467.79,181.94,468.81,182.64,468.75ZM588,464.89a1.67,1.67,0,0,0-1.91,2.11,2.89,2.89,0,0,0,2,1.75c.7.06,1.48-.94,2.22-1.48l0-.93C589.59,465.83,588.85,465,588,464.89ZM588,608c.83-.11,1.58-.88,2.36-1.35,0-.32,0-.63,0-.94-.72-.57-1.39-1.48-2.2-1.63-1.24-.23-2.11.62-2.14,2A1.72,1.72,0,0,0,588,608ZM183.56,239.57c-.83.13-1.55.93-2.31,1.43,0,.31,0,.62,0,.93.75.54,1.45,1.43,2.26,1.55,1.26.19,2.08-.71,2.07-2A1.7,1.7,0,0,0,183.56,239.57Zm404.63,378.3c.69,0,1.46-1,2.2-1.5l0-.93c-.78-.51-1.52-1.35-2.34-1.43a1.67,1.67,0,0,0-1.89,2.12A2.91,2.91,0,0,0,588.19,617.87ZM185.57,82.39a1.7,1.7,0,0,0-2-1.88c-.83.13-1.55.92-2.32,1.42,0,.31,0,.62,0,.93.74.55,1.44,1.43,2.25,1.56C184.75,84.62,185.58,83.72,185.57,82.39ZM182.71,624c-.81.12-1.52,1-2.27,1.54v.93c.77.51,1.48,1.31,2.31,1.45a1.71,1.71,0,0,0,2-1.87C184.8,624.66,184,623.77,182.71,624ZM589,189.92a2.91,2.91,0,0,0-2.08,1.72,1.67,1.67,0,0,0,1.88,2.13c.82-.07,1.57-.9,2.35-1.4,0-.31,0-.62,0-.93C590.46,190.89,589.69,189.87,589,189.92Zm-.91,288.78c.69.08,1.51-.88,2.28-1.39v-.93c-.75-.54-1.45-1.43-2.26-1.55a1.66,1.66,0,0,0-2,2A2.9,2.9,0,0,0,588.09,478.7Zm0,149.17c.83-.13,1.55-.93,2.32-1.43,0-.31,0-.62,0-.93-.74-.54-1.44-1.44-2.25-1.56-1.25-.19-2.09.69-2.08,2A1.71,1.71,0,0,0,588.05,627.87ZM183.43,223.6c1.25.23,2.11-.64,2.14-2a1.71,1.71,0,0,0-1.94-1.95c-.84.11-1.58.88-2.36,1.35,0,.31,0,.62,0,.94C182,222.54,182.62,223.45,183.43,223.6ZM588.16,637.75c.69.07,1.48-.94,2.23-1.47l0-.93c-.77-.52-1.5-1.37-2.31-1.46a1.67,1.67,0,0,0-1.92,2.1A2.89,2.89,0,0,0,588.16,637.75Zm-405.56-149c1.3.09,2.3-.61,2.12-1.94-.11-.84-.93-1.59-1.44-2.38l-.87,0c-.54.75-1.36,1.43-1.57,2.26C180.54,487.84,181.37,488.65,182.6,488.73Zm403.53-1.89a2.89,2.89,0,0,0,2,1.8c.69.07,1.5-.91,2.25-1.43v-.94c-.76-.53-1.47-1.39-2.29-1.5A1.67,1.67,0,0,0,586.13,486.84ZM180.46,646.32c.76.5,1.59,1.47,2.28,1.38a2.92,2.92,0,0,0,2-1.85,1.67,1.67,0,0,0-2-2c-.81.13-1.5,1-2.25,1.56C180.45,645.7,180.45,646,180.46,646.32Zm407.67,1.38c.69.07,1.49-.91,2.25-1.43,0-.31,0-.63,0-.94-.75-.52-1.47-1.39-2.28-1.5a1.67,1.67,0,0,0-2,2.06A2.88,2.88,0,0,0,588.13,647.7ZM180.44,507.05c.74.53,1.53,1.53,2.22,1.47a2.9,2.9,0,0,0,2-1.77,1.67,1.67,0,0,0-1.92-2.09c-.82.09-1.55.94-2.32,1.45C180.45,506.43,180.44,506.74,180.44,507.05Zm4.26,158.78a1.67,1.67,0,0,0-1.9-2.11c-.82.08-1.56.92-2.33,1.42l0,.94c.74.54,1.52,1.55,2.21,1.49A2.91,2.91,0,0,0,184.7,665.83ZM589,229.68a2.93,2.93,0,0,0-2.05,1.75,1.68,1.68,0,0,0,1.91,2.11c.82-.08,1.56-.93,2.33-1.44l0-.94C590.44,230.63,589.66,229.62,589,229.68Zm0-26c.8-.14,1.48-1.05,2.21-1.61,0-.31,0-.62,0-.93-.78-.48-1.52-1.26-2.35-1.37a1.71,1.71,0,0,0-2,1.93C586.87,203.07,587.73,203.94,589,203.71Zm-405.8-4.31c-.54.75-1.54,1.53-1.48,2.23a2.86,2.86,0,0,0,1.74,2.06,1.67,1.67,0,0,0,2.08-1.93c-.11-.83-.93-1.56-1.44-2.33Zm405.76,80a2.94,2.94,0,0,0-2,1.79,1.66,1.66,0,0,0,1.94,2.07c.82-.09,1.54-.95,2.31-1.47v-.94C590.43,280.31,589.63,279.31,588.94,279.38Zm-.85,288.79c.69.09,1.52-.88,2.28-1.38,0-.32,0-.63,0-.94-.75-.54-1.44-1.42-2.26-1.55a1.66,1.66,0,0,0-2,2A2.9,2.9,0,0,0,588.09,568.17ZM184.72,516.48c-.17-.83-1-1.52-1.59-2.28l-.87,0a7.78,7.78,0,0,0-1.42,2.36c-.23,1.24.69,2,1.89,2S185,517.79,184.72,516.48Zm403.31,2c.83-.12,1.56-.9,2.33-1.39l0-.93c-.74-.56-1.42-1.46-2.23-1.59-1.25-.2-2.11.66-2.11,2A1.7,1.7,0,0,0,588,518.51Zm-1.11-336.77a1.67,1.67,0,0,0,1.93,2.09c.81-.09,1.54-.94,2.31-1.46,0-.31,0-.62,0-.93-.75-.53-1.54-1.53-2.23-1.47A2.93,2.93,0,0,0,586.92,181.74Zm-403.46,2.09c1.26.22,2.11-.67,2.11-2a1.71,1.71,0,0,0-2-1.91c-.83.12-1.56.91-2.34,1.4,0,.31,0,.62,0,.93C182,182.8,182.65,183.7,183.46,183.83ZM589,170a2.92,2.92,0,0,0-2,1.77,1.67,1.67,0,0,0,1.92,2.09c.82-.09,1.55-.94,2.32-1.45l0-.94C590.44,171,589.65,170,589,170Zm-405.5,3.86c1.24.21,2.1-.65,2.11-2a1.71,1.71,0,0,0-2-1.91c-.83.11-1.56.9-2.34,1.38l0,.94C182,172.85,182.65,173.76,183.46,173.89Zm.14,109.35a1.67,1.67,0,0,0,1.89-2.12,2.88,2.88,0,0,0-2.06-1.73c-.69-.06-1.47,1-2.2,1.5l0,.93C182,282.32,182.79,283.17,183.6,283.24Zm-2.35-120.79c.76.52,1.47,1.39,2.28,1.5,1.26.16,2.08-.74,2-2.08a1.71,1.71,0,0,0-2-1.83c-.82.14-1.52,1-2.28,1.47ZM588.88,273.3c.81-.1,1.53-1,2.29-1.49v-.94c-.75-.52-1.55-1.5-2.25-1.43a2.91,2.91,0,0,0-2,1.8A1.67,1.67,0,0,0,588.88,273.3Zm0-119.29c.82-.12,1.52-1,2.27-1.54,0-.31,0-.63,0-.94-.77-.5-1.48-1.3-2.31-1.44a1.72,1.72,0,0,0-2,1.87C586.82,153.31,587.67,154.19,588.91,154ZM184.72,526.44c-.16-.83-1-1.53-1.57-2.29h-.86a7.85,7.85,0,0,0-1.45,2.35c-.25,1.24.67,2,1.87,2S185,527.76,184.72,526.44ZM590.36,526c-.78-.5-1.52-1.34-2.33-1.42a1.67,1.67,0,0,0-1.9,2.12,2.92,2.92,0,0,0,2,1.74c.7.06,1.47-1,2.21-1.5Zm-2.22,8.52c-1.25-.2-2.1.68-2.09,2a1.72,1.72,0,0,0,2,1.9c.82-.13,1.55-.92,2.32-1.42,0-.31,0-.62,0-.93C589.64,535.5,589,534.6,588.14,534.48ZM182.42,544a7.86,7.86,0,0,0-1.58,2.26c-.3,1.2.53,2,1.76,2.1s2.29-.62,2.12-2c-.11-.84-.94-1.58-1.44-2.37Zm405.71,4.26c.69.08,1.5-.91,2.25-1.43,0-.31,0-.62,0-.93-.76-.53-1.48-1.4-2.29-1.5a1.67,1.67,0,0,0-2,2.06A2.91,2.91,0,0,0,588.13,548.28ZM181.26,142.64c.78.5,1.52,1.35,2.33,1.43a1.67,1.67,0,0,0,1.9-2.12,2.91,2.91,0,0,0-2.06-1.74c-.69-.06-1.46.95-2.2,1.49ZM589,120.32a3,3,0,0,0-2.07,1.74,1.67,1.67,0,0,0,1.9,2.12c.81-.07,1.56-.91,2.33-1.41,0-.32,0-.63,0-.94C590.45,121.28,589.68,120.27,589,120.32Zm-405.42,3.85a2.9,2.9,0,0,0,1.89-2c.1-.69-.86-1.54-1.35-2.32l-.91,0c-.55.74-1.39,1.42-1.56,2.24A1.64,1.64,0,0,0,183.57,124.17Zm405.33-9.93c.81-.11,1.52-1,2.27-1.52v-.93c-.76-.51-1.58-1.49-2.27-1.41a2.9,2.9,0,0,0-2,1.83A1.66,1.66,0,0,0,588.9,114.24Zm-.79,444c.69.08,1.5-.9,2.26-1.41v-.93c-.76-.54-1.46-1.42-2.28-1.53a1.66,1.66,0,0,0-2,2A2.92,2.92,0,0,0,588.11,558.23Zm3-456.47c-.78-.48-1.52-1.26-2.35-1.37a1.71,1.71,0,0,0-2,1.93,1.8,1.8,0,0,0,2.14,2c.8-.14,1.48-1,2.21-1.61ZM184.72,566.18c-.17-.83-1-1.52-1.59-2.27l-.87,0a7.58,7.58,0,0,0-1.42,2.36c-.23,1.23.68,2,1.89,2S185,567.5,184.72,566.18Zm-1.16-461.9a1.66,1.66,0,0,0,1.95-2.06c-.16-.82-1-1.49-1.59-2.23l-.91,0c-.48.78-1.42,1.63-1.32,2.32A2.84,2.84,0,0,0,183.56,104.28ZM591.15,91.8c-.79-.48-1.53-1.25-2.36-1.36a1.73,1.73,0,0,0-1.95,2c0,1.33.9,2.2,2.15,2,.81-.15,1.47-1.06,2.2-1.63Zm-408.8,492a7.94,7.94,0,0,0-1.51,2.3c-.27,1.22.59,2,1.81,2s2.29-.67,2.07-2c-.14-.83-1-1.56-1.5-2.33Zm.32,10.33c-.81.13-1.49,1-2.23,1.58,0,.31,0,.62,0,.93.77.49,1.5,1.29,2.33,1.41a1.72,1.72,0,0,0,2-1.91C184.78,594.8,183.93,593.92,182.67,594.13ZM183.21,269c-.55.74-1.39,1.41-1.57,2.23a1.63,1.63,0,0,0,1.92,2.06,2.88,2.88,0,0,0,1.9-1.94c.1-.69-.86-1.54-1.35-2.32ZM281.7,702.52c-.59.71-1.5,1.33-1.69,2.13a1.65,1.65,0,0,0,1.84,2.14,2.83,2.83,0,0,0,2-1.8c.14-.68-.76-1.58-1.2-2.38ZM586.92,241.38a1.67,1.67,0,0,0,1.92,2.1c.82-.09,1.55-.94,2.32-1.45,0-.31,0-.62,0-.93-.74-.54-1.53-1.55-2.22-1.49A3,3,0,0,0,586.92,241.38Zm2-107.25c.81-.11,1.52-1,2.28-1.51v-.94c-.76-.51-1.57-1.49-2.26-1.41a2.89,2.89,0,0,0-2,1.81A1.67,1.67,0,0,0,588.89,134.13ZM183.61,229.62c-.83.11-1.57.89-2.35,1.37l0,.93c.73.57,1.4,1.48,2.21,1.62,1.25.22,2.11-.65,2.13-2A1.71,1.71,0,0,0,183.61,229.62Zm-1,249.17c1.32.06,2.28-.67,2.08-2-.13-.83-1-1.56-1.49-2.34l-.86,0a7.82,7.82,0,0,0-1.53,2.3C180.57,477.94,181.41,478.73,182.64,478.79ZM291.53,702.54c-.55.73-1.44,1.4-1.59,2.2a1.66,1.66,0,0,0,1.94,2.06,2.91,2.91,0,0,0,1.9-1.9c.1-.69-.84-1.54-1.33-2.32Zm8.37,2.24a1.65,1.65,0,0,0,2,2c.82-.12,1.54-1,2.3-1.47,0-.3,0-.6,0-.9-.75-.52-1.55-1.51-2.25-1.45A2.86,2.86,0,0,0,299.9,704.78ZM183.17,494.33h-.87a7.72,7.72,0,0,0-1.46,2.34c-.25,1.23.66,2,1.86,2s2.27-.73,2-2.05C184.56,495.79,183.71,495.09,183.17,494.33ZM489.71,45.14c.71.07,1.53-.9,2.29-1.41l0-.87c-.76-.54-1.46-1.39-2.29-1.54a1.62,1.62,0,0,0-2,2A2.85,2.85,0,0,0,489.71,45.14Zm99.13,168.51c.81-.08,1.55-.93,2.32-1.44l0-.94c-.74-.53-1.53-1.53-2.22-1.47a2.93,2.93,0,0,0-2,1.76A1.67,1.67,0,0,0,588.84,213.65ZM321.33,702.54c-.55.74-1.43,1.42-1.57,2.23a1.66,1.66,0,0,0,2,2,2.89,2.89,0,0,0,1.87-1.93c.1-.69-.87-1.53-1.36-2.3ZM184.78,457c0-1.34-.81-2.23-2.06-2.06-.81.11-1.52,1-2.27,1.53v.93c.76.51,1.47,1.32,2.29,1.46A1.72,1.72,0,0,0,184.78,457Zm-1.57-267.55c-.54.73-1.39,1.41-1.57,2.22a1.64,1.64,0,0,0,1.92,2.08,2.88,2.88,0,0,0,1.9-1.94c.11-.69-.85-1.55-1.35-2.33ZM588.91,164c.81-.12,1.51-1,2.26-1.53v-.94c-.77-.5-1.48-1.31-2.3-1.45a1.72,1.72,0,0,0-2,1.87C586.82,163.24,587.65,164.13,588.91,164ZM183.46,154a1.67,1.67,0,0,0,2-2c-.11-.82-.95-1.55-1.46-2.31l-.9,0c-.53.75-1.52,1.55-1.46,2.25A2.89,2.89,0,0,0,183.46,154ZM588.87,289.33a2.89,2.89,0,0,0-2,1.85,1.66,1.66,0,0,0,2,2c.81-.12,1.5-1,2.25-1.55,0-.31,0-.62,0-.94C590.4,290.2,589.57,289.24,588.87,289.33ZM449.66,702.57l-.92,0c-.55.74-1.57,1.51-1.52,2.21a2.85,2.85,0,0,0,1.75,2,1.65,1.65,0,0,0,2.1-1.89C451,704.08,450.15,703.35,449.66,702.57ZM479,703a2.87,2.87,0,0,0-2,1.78,1.64,1.64,0,0,0,1.95,2c.84-.14,1.55-1,2.32-1.5,0-.29,0-.58,0-.87C480.52,703.92,479.72,702.94,479,703Zm20.37-.42-.92,0c-.56.73-1.59,1.5-1.55,2.19a2.87,2.87,0,0,0,1.74,2.06,1.65,1.65,0,0,0,2.11-1.87C500.69,704.1,499.87,703.35,499.39,702.58Zm-316.46-64.8a2.85,2.85,0,0,0,1.73-2.06c0-.72-1-1.48-1.57-2.23l-.86,0c-.49.79-1.27,1.54-1.39,2.38A1.61,1.61,0,0,0,182.93,637.78Zm326.41,64.8-.92,0c-.56.73-1.59,1.48-1.55,2.18a2.84,2.84,0,0,0,1.71,2.07,1.65,1.65,0,0,0,2.13-1.86C510.64,704.11,509.83,703.36,509.34,702.58ZM181.23,112.68c.75.55,1.44,1.44,2.25,1.57a1.67,1.67,0,0,0,2-2,2.88,2.88,0,0,0-2-1.86c-.69-.09-1.52.87-2.29,1.37C181.25,112.06,181.24,112.37,181.23,112.68ZM470.16,45.6c.55-.74,1.43-1.41,1.58-2.22a1.65,1.65,0,0,0-1.95-2,2.85,2.85,0,0,0-1.89,1.9c-.1.7.85,1.54,1.34,2.32Zm-10.27-.47c.7.08,1.52-.89,2.29-1.4,0-.29,0-.58,0-.86-.76-.54-1.46-1.39-2.29-1.55a1.62,1.62,0,0,0-2,2A2.84,2.84,0,0,0,459.89,45.13Zm59.38,657.45-.92,0c-.56.73-1.59,1.5-1.55,2.19a2.89,2.89,0,0,0,1.74,2.06,1.65,1.65,0,0,0,2.12-1.87C520.58,704.1,519.76,703.35,519.27,702.58Zm-336.88-89a7.86,7.86,0,0,0-1.55,2.29c-.29,1.22.58,2,1.79,2.07s2.29-.65,2.09-2c-.13-.84-1-1.57-1.47-2.35Zm367.32-568c.54-.74,1.42-1.43,1.56-2.24a1.65,1.65,0,0,0-2-2,2.87,2.87,0,0,0-1.87,1.92c-.1.7.87,1.53,1.36,2.31Zm-367,612.14c1.3,0,2.26-.75,2-2.07-.16-.84-1-1.53-1.57-2.29l-.87,0a7.73,7.73,0,0,0-1.44,2.35C180.6,657,181.51,657.73,182.72,657.74Zm110-612.55c.82-.16,1.51-1,2.26-1.53,0-.3,0-.59,0-.89-.77-.51-1.59-1.49-2.29-1.4a2.87,2.87,0,0,0-2,1.86A1.62,1.62,0,0,0,292.76,45.19Zm246.73-.06c.7,0,1.49-1,2.23-1.48v-.87c-.78-.51-1.51-1.34-2.34-1.46a1.63,1.63,0,0,0-1.91,2.06A2.84,2.84,0,0,0,539.49,45.13Zm-10.3,657.44-.92,0c-.55.74-1.58,1.52-1.53,2.21a2.91,2.91,0,0,0,1.76,2,1.65,1.65,0,0,0,2.1-1.89C530.51,704.08,529.68,703.34,529.19,702.57ZM182.81,558.28a1.72,1.72,0,0,0,2-1.92c0-1.35-.88-2.21-2.12-2-.81.14-1.49,1-2.23,1.61,0,.31,0,.62,0,.93C181.24,557.38,182,558.16,182.81,558.28ZM519.7,45.62c.6-.7,1.52-1.3,1.73-2.1a1.65,1.65,0,0,0-1.79-2.18,2.88,2.88,0,0,0-2,1.77c-.15.68.74,1.59,1.17,2.4Zm-337,528.62c-.81.12-1.52,1-2.27,1.53v.93c.76.51,1.57,1.49,2.26,1.41a2.88,2.88,0,0,0,2-1.82A1.68,1.68,0,0,0,182.72,574.24ZM586.92,82.31a1.67,1.67,0,0,0,1.91,2.11c.81-.08,1.55-.93,2.32-1.43l0-.93c-.74-.55-1.52-1.56-2.21-1.51A2.94,2.94,0,0,0,586.92,82.31ZM312.54,45.17a2.89,2.89,0,0,0,1.92-1.88c.1-.69-.84-1.55-1.32-2.34l-.89,0c-.57.73-1.48,1.4-1.64,2.22A1.63,1.63,0,0,0,312.54,45.17Zm-10.13.07c1.32.1,2.28-.61,2.16-1.91-.08-.82-.88-1.58-1.36-2.37l-.89-.05c-.57.73-1.46,1.39-1.65,2.21A1.71,1.71,0,0,0,302.41,45.24Zm-69.3-.07a2.89,2.89,0,0,0,1.81-2c.08-.7-.9-1.51-1.42-2.27h-.9c-.53.76-1.4,1.48-1.52,2.3A1.63,1.63,0,0,0,233.11,45.17Zm-48.39,491.3c-.12-.84-.95-1.57-1.46-2.36l-.86,0a7.93,7.93,0,0,0-1.56,2.28c-.29,1.21.56,2,1.77,2.08S184.91,537.8,184.72,536.47ZM272.87,45.14c.7.07,1.51-.92,2.26-1.44v-.89c-.76-.52-1.48-1.37-2.3-1.49a1.65,1.65,0,0,0-2,2A2.89,2.89,0,0,0,272.87,45.14Zm256.67,0c.7.06,1.49-.94,2.24-1.48v-.87c-.78-.51-1.5-1.33-2.34-1.46a1.63,1.63,0,0,0-1.92,2A2.86,2.86,0,0,0,529.54,45.13Zm-287.06.45h.92c.53-.75,1.54-1.55,1.47-2.25a2.87,2.87,0,0,0-1.79-2A1.65,1.65,0,0,0,241,43.28C241.13,44.09,242,44.81,242.48,45.58Zm-19.37-.44c.7.08,1.53-.87,2.3-1.37,0-.3,0-.6,0-.9-.74-.54-1.43-1.4-2.25-1.55a1.65,1.65,0,0,0-2,2A2.87,2.87,0,0,0,223.11,45.14Zm-2.74,659.62a1.65,1.65,0,0,0,1.93,2.06c.82-.11,1.55-.94,2.32-1.44l0-.9c-.75-.54-1.54-1.53-2.24-1.48A2.86,2.86,0,0,0,220.37,704.76Zm19.88,0a1.66,1.66,0,0,0,2,2c.82-.12,1.54-1,2.3-1.48,0-.3,0-.6,0-.89-.76-.53-1.56-1.51-2.27-1.45A2.84,2.84,0,0,0,240.25,704.78Zm31.38-2.24c-.55.74-1.43,1.41-1.58,2.22a1.66,1.66,0,0,0,2,2,2.91,2.91,0,0,0,1.88-1.92c.1-.69-.86-1.53-1.36-2.31Zm319.52-402c-.79-.47-1.65-1.4-2.34-1.28a2.92,2.92,0,0,0-1.89,1.9,1.66,1.66,0,0,0,2.07,1.94c.8-.15,1.47-1.06,2.2-1.63Zm-2.28-77c.81-.1,1.53-1,2.29-1.49,0-.31,0-.62,0-.93-.75-.52-1.45-1.33-2.27-1.49a1.71,1.71,0,0,0-2.06,1.82A1.79,1.79,0,0,0,588.87,223.6ZM181.23,212.07c.74.56,1.43,1.45,2.24,1.59,1.24.2,2.1-.66,2.1-2a1.7,1.7,0,0,0-2-1.9,7.27,7.27,0,0,0-2.33,1.39ZM588,508.56c.83-.12,1.56-.9,2.33-1.38l0-.94c-.74-.55-1.43-1.45-2.24-1.58-1.25-.21-2.1.66-2.1,2A1.7,1.7,0,0,0,588,508.56ZM183.51,289.28c-.82.16-1.52,1-2.27,1.48v.95c.76.52,1.49,1.38,2.3,1.48,1.25.15,2.07-.75,2-2.09A1.71,1.71,0,0,0,183.51,289.28Zm326-244.11a1.59,1.59,0,0,0,2-1.84c-.11-.84-.93-1.6-1.43-2.39l-.94,0c-.53.77-1.54,1.58-1.47,2.28A3,3,0,0,0,509.53,45.17Zm-10,0a1.63,1.63,0,0,0,2-1.94c-.12-.82-1-1.54-1.51-2.3h-.91c-.51.76-1.49,1.57-1.42,2.26A2.89,2.89,0,0,0,499.54,45.17Zm86.59,451.58a2.89,2.89,0,0,0,2,1.82c.69.08,1.5-.89,2.26-1.4,0-.31,0-.62,0-.94-.76-.53-1.46-1.4-2.28-1.51A1.66,1.66,0,0,0,586.13,496.75ZM480.33,45.55c.48-.78,1.29-1.54,1.35-2.36a1.65,1.65,0,0,0-2.13-1.85,2.86,2.86,0,0,0-1.7,2.08c0,.7,1,1.45,1.56,2.18ZM588.17,578.1c.69.06,1.48-.94,2.22-1.47l0-1c-.77-.5-1.51-1.35-2.32-1.43a1.66,1.66,0,0,0-1.91,2.1A2.92,2.92,0,0,0,588.17,578.1ZM449.36,45.56l.95,0c.54-.76,1.57-1.57,1.5-2.26a3,3,0,0,0-1.86-2,1.58,1.58,0,0,0-2,1.84C448.08,44,448.88,44.77,449.36,45.56ZM586.05,665.69a1.7,1.7,0,0,0,2,1.93c.83-.11,1.57-.87,2.35-1.35,0-.31,0-.62,0-.93-.73-.57-1.39-1.47-2.2-1.62C586.94,663.49,586.08,664.35,586.05,665.69ZM183.54,130.22c-.82.14-1.53.94-2.29,1.44v.94c.75.53,1.46,1.41,2.27,1.53,1.25.18,2.09-.71,2.06-2A1.71,1.71,0,0,0,183.54,130.22Zm139-85c1.27,0,2.12-.8,1.93-2-.13-.84-.95-1.56-1.47-2.34l-.93,0c-.52.77-1.36,1.51-1.48,2.34C320.39,44.45,321.21,45.27,322.51,45.25ZM252.14,702.94a1.63,1.63,0,0,0-1.95,2,2.88,2.88,0,0,0,2,1.8c.7.07,1.5-.93,2.25-1.46,0-.3,0-.6,0-.9C253.68,703.89,253,703.08,252.14,702.94Zm9.94,0c-.83.11-1.56.93-2.34,1.43,0,.28,0,.57,0,.86.74.55,1.52,1.56,2.23,1.52a2.86,2.86,0,0,0,2-1.75A1.62,1.62,0,0,0,262.08,703Zm195.06,1.79a1.63,1.63,0,0,0,1.89,2.08c.83-.12,1.57-.94,2.35-1.44l0-.87c-.74-.54-1.52-1.55-2.22-1.51A2.86,2.86,0,0,0,457.14,704.74Zm9.94,0a1.63,1.63,0,0,0,1.9,2.07c.83-.13,1.56-.94,2.34-1.45,0-.29,0-.58,0-.87-.75-.54-1.52-1.54-2.23-1.49A2.85,2.85,0,0,0,467.08,704.75ZM588.86,144.07c.82-.1,1.54-1,2.3-1.48,0-.31,0-.63,0-.94-.75-.52-1.45-1.33-2.27-1.49a1.71,1.71,0,0,0-2.06,1.82C586.79,143.32,587.61,144.22,588.86,144.07Zm-2.81,442.08c0,1.26.75,2.1,1.94,1.94a7.32,7.32,0,0,0,2.36-1.34l0-.93c-.73-.57-1.4-1.48-2.21-1.63C587,584,586.08,584.81,586.05,586.15Zm2,71.48c.69.1,1.54-.84,2.32-1.32l0-.93c-.73-.56-1.41-1.46-2.22-1.6a1.66,1.66,0,0,0-2,2A2.89,2.89,0,0,0,588,657.63ZM262.94,45.17a2.89,2.89,0,0,0,1.8-2c.07-.7-.91-1.5-1.43-2.26l-.91,0c-.52.76-1.38,1.48-1.49,2.3A1.62,1.62,0,0,0,262.94,45.17Zm-10.13,0a7.6,7.6,0,0,0,2.41-1.36c0-.3,0-.61,0-.92-.75-.55-1.54-1.59-2.24-1.53a2.92,2.92,0,0,0-2,1.81A1.59,1.59,0,0,0,252.81,45.19ZM311.4,702.54c-.55.73-1.44,1.41-1.58,2.22a1.66,1.66,0,0,0,1.95,2,2.87,2.87,0,0,0,1.88-1.91c.1-.69-.85-1.54-1.34-2.32Zm227.13.42a2.88,2.88,0,0,0-1.83,2c-.08.69.89,1.51,1.4,2.28h.9c.54-.76,1.41-1.46,1.54-2.28A1.63,1.63,0,0,0,538.53,703Zm8.08,1.79a1.63,1.63,0,0,0,1.9,2.07c.83-.13,1.56-.94,2.34-1.45l0-.87c-.74-.54-1.52-1.54-2.23-1.49A2.87,2.87,0,0,0,546.61,704.75ZM232.3,703a1.62,1.62,0,0,0-2,2c.12.82,1,1.53,1.53,2.29h.89c.52-.77,1.49-1.58,1.41-2.28A2.89,2.89,0,0,0,232.3,703Zm50-657.37.92,0c.51-.76,1.49-1.57,1.41-2.27a2.89,2.89,0,0,0-1.83-2,1.65,1.65,0,0,0-2,2C280.91,44.13,281.77,44.84,282.3,45.59Zm207.09,657h-.92c-.54.74-1.54,1.53-1.48,2.23a2.89,2.89,0,0,0,1.77,2,1.66,1.66,0,0,0,2.07-1.93C490.74,704.06,489.9,703.33,489.39,702.56ZM302.54,247a5.51,5.51,0,0,0,5.28,5.6,5.09,5.09,0,0,0,5-4.7,5.47,5.47,0,0,0-5.52-5.14C304.47,242.76,302.55,244.47,302.54,247Zm-43.48-74.08a2.47,2.47,0,0,0-2.52,2.54,2.6,2.6,0,0,0,2.79,2.69,2.46,2.46,0,0,0,2.54-2.31A2.75,2.75,0,0,0,259.06,172.92Zm48.86,303.52a5.51,5.51,0,0,0-5.37,5.52c-.06,2.52,1.82,4.28,4.63,4.32a5.5,5.5,0,0,0,5.63-5C312.88,478.86,310.45,476.48,307.92,476.44ZM259.48,550.9a2.71,2.71,0,0,0-3,2.51,2.59,2.59,0,0,0,2.54,2.72,2.64,2.64,0,0,0,2.78-2.73A2.39,2.39,0,0,0,259.48,550.9Zm206.64-74.45a5.12,5.12,0,0,0-4.92,4.76,5.48,5.48,0,0,0,5.59,5.07c2.82,0,4.69-1.75,4.67-4.29A5.51,5.51,0,0,0,466.12,476.45Zm48.77,79.68a2.57,2.57,0,0,0,2.59-2.69,2.64,2.64,0,0,0-2.76-2.54,2.51,2.51,0,0,0-2.57,2.66A2.61,2.61,0,0,0,514.89,556.13ZM466.07,252.61a5.52,5.52,0,0,0,5.39-5.5c.07-2.53-1.81-4.3-4.62-4.35a5.51,5.51,0,0,0-5.64,5C461.12,250.16,463.54,252.55,466.07,252.61Zm48.73-74.46a2.62,2.62,0,0,0,2.67-2.62,2.53,2.53,0,0,0-2.65-2.6,2.59,2.59,0,0,0-2.67,2.64A2.52,2.52,0,0,0,514.8,178.15ZM371,118.93c4.57.21,9.13.48,13.69.55,4.24.07,8.48,0,12.71-.14,1.52,0,2.59-.78,2.53-2.44s-1.11-2.15-2.54-2.24l-2.9-.15c.1-.84.14-1.3.22-1.75,1.41-7.68,2.85-15.36,4.19-23.06.25-1.39.68-2.08,2.23-2.1a2.12,2.12,0,0,0,2.34-2.38,2.18,2.18,0,0,0-2.45-2.1q-14.49,0-29,0a2,2,0,0,0-2.28,2,1.82,1.82,0,0,0,2,1.94c1.83,0,2.07.93,2.05,2.52-.13,7.54-.17,15.09-.17,22.64,0,2.67.08,2.66-2.56,2.91-1.29.13-2.7.3-2.69,2S369.74,118.87,371,118.93Zm24.76-31.09c-1.37,7.26-2.72,14.39-4.06,21.51l-.43-.06c-1.44-7.08-2.88-14.17-4.35-21.45ZM377.93,90c0-2.55-.05-2.55,2.59-2.51a4.14,4.14,0,0,1,1.58.06c.55.25,1.31.73,1.4,1.21,1.57,8.46,3.06,16.92,4.66,25.94-3.23,0-6.2.06-9.16-.07-.4,0-1.06-1-1.08-1.58-.06-3.11.07-6.23.07-9.34C378,99.1,378,94.53,377.93,90Z"/></svg>