<svg xmlns="http://www.w3.org/2000/svg" viewBox="0 0 750 750"><path d="M606.18,375.05V50.87c0-1.19,0-2.38,0-3.57-.27-13-9.77-22.3-22.72-22.3H186.73A21.94,21.94,0,0,0,164.6,46.83q0,328.16,0,656.31a20.29,20.29,0,0,0,.6,4.9c2.64,10.62,11.25,17,22.93,17H583.68c7.88-.18,14.2-3.29,18.73-9.84,2.9-4.2,3.78-8.94,3.78-13.94Q606.17,538.13,606.18,375.05ZM601.9,701.77c0,9.88-5.86,17.17-15.12,18.74a21.26,21.26,0,0,1-3.57.2H187.46c-11,0-18.59-7.56-18.59-18.58V47.58c0-9,5.4-16,13.89-17.91a18,18,0,0,1,3.94-.38H584a17.66,17.66,0,0,1,17.85,17.54c0,.93,0,1.85,0,2.78ZM346.84,479.4c.56-.72,1.16-1.47,2-2.48.77,2.64,1.43,4.91,1.95,6.66-.28,1.5-.46,2.51-.64,3.47l2.06,1,1.1,3.35c-2,2.69-1.39,4.41,1.89,5.11l1,2.48c-2.13,2.39-1.25,5.08,2.28,5.39l2.48,5.15h-.61c-.19,2-.48,3.95-.53,5.93,0,1.36.28,2.82,2,2.88s1.88-1.36,2.08-2.64c0-.06.19-.1.4-.2.66,1,1.32,2.08,2,3.12a31.05,31.05,0,0,0-.38,8.13c.08.83,1.26,1.56,1.94,2.33a10.56,10.56,0,0,0,2.13-2.27c.4-.81.23-1.89.34-3.16l3.36,3.13c0,3.3-.06,6.14,0,9,.07,2.49,1.25,4.11,2.71,4s2.27-1.49,2.14-4.11c-.1-2-.45-4-.69-5.91l6.79,2c-.2.68-.33,1.25-.53,1.8a36.65,36.65,0,0,0-2.1,14.45,12.55,12.55,0,0,0,1,4.21,3.16,3.16,0,0,0,5.5.86A6.09,6.09,0,0,0,390,549.8a59.48,59.48,0,0,0-.23-9.9,62.06,62.06,0,0,0-2.1-8.2l6.69-2.13a15.91,15.91,0,0,0-.35,1.72,30.6,30.6,0,0,0-.33,5.71,3.23,3.23,0,0,0,2,2.25c.56.16,1.72-.93,2.22-1.72a5.37,5.37,0,0,0,.53-2.68c.06-2.7,0-5.41,0-8.43l3.5-3.29a20.86,20.86,0,0,0,0,2.7c.2,1.34.57,2.79,2.23,2.83s2.07-1.5,2.13-2.82c.12-2.61,0-5.23,0-7.85l-.53-.07,2.26-3.46c.12.65.17.84.18,1,.08,1.3.43,2.47,2,2.47s1.93-1.21,2.05-2.46c.22-2.25.43-4.52-1.29-6.4.69-1.45,1.34-2.82,2-4.19.17-.36.36-.7.54-1,3.7-.34,4.47-2.22,2.22-5.48.33-.81.67-1.66,1-2.51l.34.38c.86-.54,2.27-.94,2.45-1.65.3-1.14-.22-2.49-.39-3.75l-.59,0c.36-1.13.73-2.25,1.07-3.3l2.37-.88-.93-3.74c.44-1.52,1.06-3.63,1.78-6.12l2.1,2.76c-.66,3.65.37,5.76,5,5.42l7.69,4.07c1.16,2.78,2.68,4,5.15,3.88,3-.14,3.84-2.38,4.37-4.78l4.81-2.85c4,1.17,7.05-1.57,6.49-6.75q2.48-3.76,4.9-7.49c3.52-1.19,4-2.19,3.12-6.16l3.1-7c3.43-1.49,2.91-2.75,1.83-5.67,1.07-2.12,2.33-4.55,3.51-7a7.76,7.76,0,0,0,.53-2.08c.17-1.16.14-2.36.42-3.48,1.28-5,2.71-10,3.94-15s2.29-10.19,3.4-15.19c2.71-1.84,2.57-3.14,1.22-5.79,1.2-8,2.36-15.89,3.58-23.73.44-2.79.64-5.71,1.63-8.32a115.66,115.66,0,0,0,7.44-31.41c.1-1.09.22-2.19.33-3.36,5.22,1.16,10.25,3.35,15.24-.73l5.86,2c2.55.88,3.69.34,4.48-2.26a20.42,20.42,0,0,0,.66-3.31,73.47,73.47,0,0,0-.32-20.2,72.49,72.49,0,0,0-2.58-11c-1-3.14-2.42-3.45-5.3-1.92-1.74.93-3.56,1.71-5.13,2.46-5.9-3.18-10.75-.43-15.87,1.9a112.86,112.86,0,0,0-13.38-32.21c5.27-3.35,11.52-5.51,12.55-13.14,1.82-.83,3.81-1.87,5.89-2.66,5.55-2.09,6.15-3.66,3-8.78A32.48,32.48,0,0,0,499,242c-4.85-5.33-9.59-10.81-14.86-15.7a79,79,0,0,0-12.52-9c-3.75-2.32-5.45-1.36-7,2.79-.91,2.46-2.06,4.82-3,6.94-6.91,1-9.23,6.36-12.22,11.27a113.84,113.84,0,0,0-36.29-16.53c.83-4.46,1.28-8.67-1.85-12.43.33-1,.58-2.14,1-3.16.77-1.83,1.65-3.61,2.47-5.42,1.49-3.27,1-4.93-2.37-6.3a36.53,36.53,0,0,0-6.85-2,106.54,106.54,0,0,0-29.87-1.56,86.5,86.5,0,0,0-13.45,2.38c-3.07.77-3.73,2.75-2.62,5.7.33.87.81,1.68,1.11,2.55.77,2.16,1.48,4.35,2.16,6.4-3.64,4.1-3,8.7-2.45,13.35A112.75,112.75,0,0,0,322.62,238c-3-5-5.29-10.43-12.19-11.4-.87-2.05-1.93-4.26-2.75-6.54-1.72-4.75-3.34-5.41-7.84-3a6.59,6.59,0,0,0-.86.49c-5,3.91-10.2,7.59-14.94,11.79a74.35,74.35,0,0,0-15.12,18.06c-2.36,4-1.7,5.69,2.59,7.41,2.43,1,4.79,2.14,7,3.13a10,10,0,0,0,4.45,8.09c2.47,1.86,5.16,3.41,8,5.23a110.33,110.33,0,0,0-13.59,32.07c-5.18-2.5-10.08-5.19-16-2.07-1.58-.77-3.32-1.56-5-2.47-2.89-1.57-4.09-1.21-5.41,1.8a9.52,9.52,0,0,0-.75,2.05c-.82,4.55-2.06,9.09-2.29,13.68a130.8,130.8,0,0,0,.51,17.81c.32,3.72,1.88,4.29,5.35,3,1.77-.65,3.62-1.11,5.22-1.59,5.1,4,10.14,1.75,15.26.72.09.83.19,1.54.25,2.25a113.35,113.35,0,0,0,7.66,33.17,27.81,27.81,0,0,1,1.29,6c.4,2.54.55,5.13.94,7.68,2.86,18.93,6.47,37.71,12,56.08.39,1.31.26,2.79.74,4.05,1.05,2.68,2.33,5.28,3.36,7.55-1,3.22-.8,3.74,1.82,5.3l3.2,7.16c-.72,3.75-.22,4.71,3.06,6l5.08,7.64c-.56,4.49,2,7.85,6.62,6.57l4.66,2.64c.49,2.45,1.18,4.82,4.21,5,3.29.19,4.9-1.81,5.51-4.64,1.31-.61,2.48-1.08,3.58-1.68s2.24-1.38,3.29-2C345,486.29,348.41,484.66,346.84,479.4Zm171-179.07a9.86,9.86,0,0,1,1.35,2.27c.91,3.72,2.16,7.43,2.43,11.2.45,6,.31,12.12.23,18.18,0,1.55-.73,3.09-1.18,4.89C515.69,331.62,513.59,309,517.82,300.33Zm-266.7,35.81a17,17,0,0,1-1-2.8,62.28,62.28,0,0,1-.16-19.93c.51-3.52,1.38-7,2.21-10.46a18.42,18.42,0,0,1,1.49-3.29C257.65,304.88,256.82,328.57,251.12,336.14ZM350.35,468c-1.29-5.23-2.51-9.89-3.56-14.58-1.44-6.39-2.71-12.83-4.14-19.22a4.65,4.65,0,0,0-1.45-2.42q-29-23.43-27.71-60.66a67.53,67.53,0,0,1,12.25-36.86c13.68-19.65,32.6-30.32,56.58-31.85a7.87,7.87,0,0,1,1.19,0,2.56,2.56,0,0,1,.65.23c0,14.39-6.64,70.29-10.74,89.91-2.07,1.49-2.6,3.44-1.12,5.89-.39,2-.8,4.07-1.19,6.05-3.79,2.63-4.92,5.56-2.08,9.07-.06.39-.09.86-.2,1.3-.37,1.61-.77,3.22-1.15,4.78-2.93,1.47-4.07,2.85-1.75,6.9-1.06,2.55-.72,5.76-3.14,8-.37.34-.42,1.09-.51,1.66-.25,1.66-.11,3.45-.7,5-3.21,8.2-6.59,16.32-9.92,24.46C351.39,466.28,351,466.87,350.35,468ZM296.06,326.08c4.56.18,8.58.83,10.74,5.47a3.59,3.59,0,0,0,5.49,1.69,11.11,11.11,0,0,0,4-3.7,15.48,15.48,0,0,0,.76-14.48,9.5,9.5,0,0,0-2.54-3.24c-2.48-2.11-4.7-1.84-6.56.83-2.26,3.25-5.36,4-9,3.58.56-7.9,13.56-30.9,21.52-38,2.86,3,6.11,5.59,7.95,9.46a10.44,10.44,0,0,1,.38,7.18c-1,4.11.56,6.71,4.72,7.23a14.59,14.59,0,0,0,7-.66A20.56,20.56,0,0,0,353,288.24a10.06,10.06,0,0,0-.38-7.76c-1.13-2.26-3-3.47-5.34-2.78-5.69,1.69-9.93-.44-13.66-4.48-1.2-1.31-2.54-2.5-4.05-4a89.26,89.26,0,0,1,48.7-20.41,23.5,23.5,0,0,1,.68,4c0,3.9-.09,7.82-.4,11.71a11.58,11.58,0,0,1-6.12,9.84c-4.11,2.29-4.85,5.84-1.95,9.56a14.35,14.35,0,0,0,4.77,4.08,22.11,22.11,0,0,0,20.43.11,13.52,13.52,0,0,0,4.09-3.37c2.56-3,3.25-7.23-1.43-9.85-4-2.23-5.54-5.92-5.59-10.31,0-3.64,0-7.29.15-10.92a33.38,33.38,0,0,1,1-4.9,89,89,0,0,1,48.54,20.47c-3.47,3.23-6.11,7.28-10.73,8.7a13.72,13.72,0,0,1-6,.06c-4.15-.67-6.54.76-7.25,4.92a13.4,13.4,0,0,0,3.06,11,34.7,34.7,0,0,0,6.27,6,13,13,0,0,0,11.12,2.33c3.6-.87,5.14-3.24,4.15-6.79-1.28-4.59,0-8.36,3.2-11.63,1.75-1.8,3.62-3.48,5.63-5.4a97.6,97.6,0,0,1,20.83,37.9,7.73,7.73,0,0,1-8.43-2.64c-3-3.81-5.92-3.66-8.87.25-3.4,4.49-2.52,14.54,1.51,18.12,3.46,3.08,6.16,2.83,8.47-1.09,1.84-3.14,5.11-4.59,9.83-4.21a101.34,101.34,0,0,1,.41,34.83,97.88,97.88,0,0,1-22.45,48.82c9.26-18.67,11.37-38,5.24-58s-18.73-35-37.11-44.9c-29-15.65-65.62-10-89.06,13.27a76.27,76.27,0,0,0-9.59,96.35c-6-2.18-20.4-26.36-24.81-41.95A102.25,102.25,0,0,1,296.06,326.08Zm-6.57-1.82c.18-2.42.35-4.79.53-7.16l10.36,1.25v5.91Zm12.83,0v-6.21c3.24-.2,5.46-2.22,7.36-4.71,3.3,1.34,4.62,4.59,4.26,9.8-.26,3.57-2.46,6.74-4.91,7.36Zm27.47-39.18c2.1-2.18,4.08-4.23,6.34-6.59,3,2.38,6.95,2.42,11,1.61,2.1,2.88.78,8.44-2.54,11.69-5.1,5-10.15,6.63-13.56,4.09C331.79,292.18,332.12,288.31,329.79,285.12Zm-1.82-2.8-10-9.14,6.75-6.54,8.87,10.08A8.08,8.08,0,0,1,328,282.32Zm78.26-52.62c-3.12-4.67-1-16,3.11-18.28a3.68,3.68,0,0,1,1.45,4.21c-.81,1.85-1.64,3.69-2.48,5.57l-1.77-1.9C404.94,222.87,406.42,226.1,406.23,229.7Zm2.56-20.61c-3.84,1.65-5,5.25-5.65,8.78a42.64,42.64,0,0,0-.53,9.85c.07,1.7,1.05,3.37,1.9,5.88-1.78,7-8.9,10.52-18,10.57-7.57,0-16.35-3.39-18.24-12.34,4.89-6.12,3.32-20.27-2.78-23.72-.23-1-.49-2.19-.86-3.84a74.25,74.25,0,0,0,22.48,4.09,67.38,67.38,0,0,0,22.73-3.1C409.37,206.9,409.09,208,408.79,209.09Zm-18.88,55.66c-2.89,1.33-5.58,1-8.7-.25V250h9.88C390.7,254.87,390.3,259.78,389.91,264.75Zm7.59,12.81c-.82,4.66-6.87,7.36-14.35,6.71-5-.43-9.74-3.85-9.81-7.33,3.55-2.28,6.81-5,7.35-9.35l9.83.74C391.1,272.26,393.91,275.23,397.5,277.56Zm43.26,18.49c-2.38,2.31-8.09,1.29-11.42-1.88-5.38-5.11-7.28-10.63-4.57-13.81,3.86.73,7.77.82,11-1.59L442,285.4C439.88,288.45,439.79,292.26,440.76,296.05ZM438,277.21,447.19,267l6.72,6.55-10.14,9.17C441,281.86,439.37,279.81,438,277.21Zm43.58,40.4c.16,2.31.33,4.63.5,7.11H471.3c-.14-1.9-.28-3.77-.43-5.85Zm-12.33.93v6.23l-6.72,6.1c-2-.09-4.46-3.23-4.85-6.83-.58-5.32,1-9.21,4.28-10.13C463.88,316.22,466.05,318.33,469.29,318.54ZM419.67,473.6c-3.72,12.87-7.76,25.64-14.63,37.24a70.8,70.8,0,0,1-9,11.79c-3.19,3.46-7.34,5.41-12.34,4.52a16.48,16.48,0,0,1-8.24-4.53c-4.41-4-7.55-9-10.32-14.25-5.82-11-9.71-22.76-13.13-34.67a3.55,3.55,0,0,1,.33-2.43c5.48-9.67,9.33-20,12.65-30.59,1.06-3.38,2-6.8,3-10.2.49-1.68.71-3.43,2.29-4.68a3,3,0,0,0,.64-2.56c-.9-3.19.72-5.94,1.14-8.9,4.48-2.19,5.27-5.82,2.08-9.35.35-1.76.71-3.63,1.06-5.41,2.92-2.46,3.1-3.94,1.73-5.91,3.14-24.69,6.22-48.9,9-70.87,1.37,12.55,3,27.4,4.63,42.36-2.45,3.38-1.86,6,1.12,7.24,1.24,7.34,2.39,14.72,3.77,22.06,1.28,6.9,2.84,13.74,4.2,20.62a7.27,7.27,0,0,1-.15,3c-.49,2,0,3.39,2.34,4.36.46,3.38.94,6.88,1.44,10.38a2.93,2.93,0,0,0,.39,1.5c3.18,3.47,2.85,8.29,4.92,12-2.43,3.47-2.19,6.71,2.31,7.86,2.9,5.88,5.74,11.56,8.5,17.28A3.15,3.15,0,0,1,419.67,473.6Zm1.83-6.18-.64.14-6.64-14.4c1.49-4.89.14-6.59-2.86-7.92l-3.19-9.93c1.49-3.36,1.39-4.93-1.87-6.63-.55-2.13-1.19-4.35-1.69-6.61-.13-.58.3-1.28.23-1.89a13.13,13.13,0,0,0-.66-3.12c-.37-1-1.26-1.86-1.46-2.87q-4-20.46-7.79-40.95a20.48,20.48,0,0,1,.05-3.91,4.22,4.22,0,0,0-.11-1.93c-2.08-3.6-1.89-7.67-2.35-11.55-1.46-12.35-2.72-24.73-3.95-37.11-.53-5.32-.8-10.67-1.19-16.14,22.75-.49,51.27,13.61,64.33,42a72.64,72.64,0,0,1-22.38,88.11c-1.21,5.73-2.38,11.57-3.69,17.38S422.89,461.63,421.5,467.42Zm60.62-64.48c-2.79,2.22-3,3.16-1.23,6.5-2.66,10.05-5.43,20.53-8.18,30.9-2.31,1.32-2.27,3.08-2.36,5.31-.1,2.47-1.74,4.88-2.75,7.3-.25.6-.74,1.1-1,1.7-1,2.76-1.93,5.57-3,8.32-.24.63-.91,1.08-1.33,1.65s-1.44,1.45-1.49,2.23c-.27,3.9-3.24,6.22-4.81,9.24-4.53-.63-6.46,1.82-6.34,6.39l-3.1,1.94c-4-3.49-5.58-3.37-8.77.84l-5.26-2.81c-.39-4.07-1.49-5.41-5.14-5.29-.87-1.17-1.9-2.38-2.71-3.72a3.44,3.44,0,0,1-.39-2.22c2.54-12.92,5.13-25.82,7.85-39.39a113.09,113.09,0,0,0,31-21.11,114.24,114.24,0,0,0,22.65-30.64l.52.24C484.93,387.91,483.51,395.5,482.12,402.94Zm-20.54,4.19c16.62-24.44,22.92-51.26,18.54-81.19,1.47.5,2.94.54,3.42,1.25A19.35,19.35,0,0,0,494,334.77C492.42,363.12,481.56,387.13,461.58,407.13ZM504,335.26c.26-.68.44-1.16.81-2.11-1.35.09-2.42.1-3.46.24s-2.17.43-3.41.69c2.51-2.56,10.76-1.76,12.78,1.2C508.42,337.68,506.39,335,504,335.26Zm-2-31.05c2.22-.16,3.89-3,6.62-1-1.72,3.23-8.68,4.91-12.8,2.95h7.05Zm-6.7,4.27a17.12,17.12,0,0,0,13.14-2.33,13.64,13.64,0,0,0,2.14-2.43l2.18-.68a52.89,52.89,0,0,0,2.2,31.78l-2.46-.29c-3.48-4.27-13.31-5.08-17.1-1.37a9.73,9.73,0,0,1-6.53-4.22c-3.59-5.68-3.77-11.4-.7-17.31C489.71,308.64,492,307.8,495.28,308.48Zm-4-2.76a3.91,3.91,0,0,1-.06.67,18.91,18.91,0,0,0-8.31,8.24c-.91,1.74-2.91,1.79-4.93,1.65a102.7,102.7,0,0,0-22.48-41.38,10,10,0,0,1,2.49-.13,21.59,21.59,0,0,0,18.23-3.12,7.62,7.62,0,0,1,1.5,1.38A105.85,105.85,0,0,1,491.25,305.72ZM490,262.11l-6.26,2.94c.08-.76.15-1.44.27-2.53-3.58,1.18-4.44,4.61-6.81,6.62.34-4.83,9.62-11.52,14.14-10C490.84,260.33,490.32,261.46,490,262.11ZM468.21,218.4a51.4,51.4,0,0,1,5.52,2.86,86.09,86.09,0,0,1,18.79,16.68c2.81,3.42,5.4,7,8,10.62a16.87,16.87,0,0,1,1.45,3.36l-.4.47a20.92,20.92,0,0,1-2.64-.87,62.84,62.84,0,0,1-19.66-15.22c-3.85-4.41-7-9.43-10.38-14.23a15,15,0,0,1-1.26-3Zm-13.39,22.14c1.11-1,2.1-2.11,3.14-3.18l-.47-.66-2.12.15,2.77-6.21,2.86-1.42c1.81,4.35-5,14.12-10.13,14.36C452.4,242.42,453.67,241.55,454.82,240.54Zm-4.81,6c7.13-.83,15.14-11.58,13.17-17.82l1.9-3.1A68.68,68.68,0,0,0,495,255.11l-3.2,2c0-.18-.07-.36-.1-.54a23.72,23.72,0,0,0-4.89.66c-5.15,1.76-8.91,5.36-11.84,9.83-.6.92-.63,2.21-1,3.52-6.63,4.2-14.26,1.11-19.57-4.07S445.72,253.64,450,246.57Zm-37.86-21.3c13.22,3.1,25.05,8.89,36.06,16.48.18,1.24.3,2.15.42,3-3.48,5.62-4.59,11.54-2.79,17.93a4.36,4.36,0,0,1-.25,2.4,106.7,106.7,0,0,0-21.47-13,93.35,93.35,0,0,0-24.28-7c3.7-3.81,6.42-7.73,7.32-12.77C410.21,231.1,411,228.16,412.15,225.27Zm-50.59-28.52a12.4,12.4,0,0,1,2.84-1.35c4.42-.75,8.85-1.59,13.31-2a95.78,95.78,0,0,1,28.6,1.91,69.2,69.2,0,0,1,7.16,2.4C404.45,204.16,371.84,203.83,361.56,196.75Zm3.22,13.33a10.38,10.38,0,0,1,1.86,2.07c2.52,5,2.58,10.28,1.1,15.61-.06.23-.29.42-.75,1.05-.24-3.65,1.66-6.84.17-10.55L365.3,220c-.79-2-1.61-3.88-2.32-5.83C362.54,213,363.28,211.25,364.78,210.08Zm-40.93,31.44a105.71,105.71,0,0,1,37.41-16.71c.68,1.46.94,3.2,1.95,4,2.61,2,2.77,5.1,4.11,7.65a86.74,86.74,0,0,0,4.94,7.61c.24.36.53.69,1,1.29a96,96,0,0,0-45.89,20.95,4.2,4.2,0,0,1-1.2-4.54c1.55-6.53.76-11.37-2.78-17.27C323.53,243.54,323.68,242.63,323.85,241.52ZM311,229.06a3.74,3.74,0,0,1,3.62,2.15c.83,1.69,1.4,3.51,2.1,5.31l-2.57-.2c1.51,3.4,4.6,4.58,6.75,6.82C316.33,243.25,309.4,233.31,311,229.06ZM270,251.68a11.4,11.4,0,0,1,1-2.8c2.75-3.86,5.46-7.78,8.47-11.44A84.81,84.81,0,0,1,298.18,221a53.05,53.05,0,0,1,5.81-3l.35.65C301.93,229.37,280.29,250.05,270,251.68Zm7,2.88a68.47,68.47,0,0,0,30.09-29.43l1.83,3.19c-1.79,6.44,6.21,17.35,13,17.86,4.05,6.68,1.5,13.81-4.25,19.73-4.85,5-12.71,8.61-20.15,4,.46-6.32-11.26-15.43-17.39-13.44Zm11.1,7.36v2.55L282,261.63c-.3-.6-.88-1.73-1.45-2.84,3.88-2.15,13.37,4.55,14.28,10.19C292.43,266.52,291.38,263.38,288.09,261.92Zm7.24,9.58c3,1.15,5.68,2.39,8.45,3.14a17.18,17.18,0,0,0,9.61-.17c1.59-.49,2.81,0,4.13,1.17a105.26,105.26,0,0,0-22.78,40.16c-3.86.42-5-.45-7-3.3-1.85-2.57-4.32-4.69-7-7.47C281.27,297.58,292.23,272.56,295.33,271.5Zm-25.08,31.95-1.72,2c1.48.14,2.51.28,3.56.33s2.16,0,3.4,0c-3.88,1.78-10.9-.05-12.28-3.17C265.84,300.26,267.55,303.67,270.25,303.45Zm-2.74,30.95-4.5,1.39-2.33-1c2.11-3.12,9-3.84,13.29-1.43l-7.23-1C267.14,333.45,267.33,334,267.51,334.4Zm-8.23-.63-2,.37c1-5.29,2.4-10.45,2.78-15.7s-.26-10.48-.46-15.85l1.75.5c2.84,4.69,12.16,6.82,16.61,3.84,5.54,1.26,7.62,7,7.68,12.9a13,13,0,0,1-9.34,12.72C271.88,329,262.24,329.58,259.28,333.77Zm18.75.44a39.41,39.41,0,0,0,4.92-2.55,16.32,16.32,0,0,0,4-3.77c1.3-1.85,2.9-2.3,5.28-2.13a106.67,106.67,0,0,0,13.62,76.73C290.63,388.59,275.49,351.19,278,334.21Zm61.54,147.9-5.48,3.08c-3.34-3.66-4.46-3.72-8.54-.55l-3.05-1.74c-.13-4.28-1.64-7.2-6.39-6.31-1.71-2.9-4.69-5.17-4.83-9.12a3.6,3.6,0,0,0-1.22-2.17c-2.92-2.59-4.15-5.93-4.58-9.67A4.59,4.59,0,0,0,305,454c-1.31-2.39-2.68-4.75-3.76-6.65.92-3.56,1.17-4.6-1.69-6.39-3.65-8.8-14.25-55.07-13.91-61.26,12.51,23.8,30.4,41.35,54.47,52.79.82,5.14,1.56,10.51,2.56,15.83,1.31,7,2.66,13.91,4.31,20.79.63,2.61.41,4.62-1.45,6.5a19.19,19.19,0,0,0-1.43,1.8C341.31,477.52,339.72,479,339.57,482.11Zm240.79-60.27-4.2-3V671.92A21.61,21.61,0,0,0,561.94,679a25.75,25.75,0,0,0-7,14.28H432.77c2.56,3.11,5.24,4.67,9.14,4.33,4.34-.37,8.73-.09,13.1-.09l102,0a13.12,13.12,0,0,0,1.56-.15c1-13.83,9.41-19.92,21.82-22.16ZM194.63,671.71V418.81l-4.13,3.06v253.4c12.51,2.29,20.94,8.41,21.82,22.16a13.49,13.49,0,0,0,1.47.16q58.83,0,117.66,0c3.22,0,4.43-2.46,6.3-4.35H216C213.34,681.63,206.9,673.93,194.63,671.71Zm361-616.83c2.76,11.53,9.07,19.18,21.37,21.5v243l4.19-3.13V72.84c-12.57-2.26-21-8.48-21.87-22.2a13.56,13.56,0,0,0-1.39-.13c-38.95,0-77.91.07-116.86-.06-3.59,0-5.12,2.27-7.34,3.95l.15.48ZM191.3,72.57V316.3l4.29,3.18V76.36c12.21-2.28,18.57-10,21.25-21.6H339c-2.62-2.58-4.78-4.65-8.58-4.31-4.53.39-9.13.09-13.7.09l-102.16,0a17.1,17.1,0,0,0-1.83.21c.69,6.18-1.94,11-6.14,15.08A23.28,23.28,0,0,1,191.3,72.57Zm164.27,53.26h59.51V76.19H355.57Zm4.29-45.5h51v41.19h-51Zm-79.71,45.29c-.41-5.84-1.78-11.61-2.72-17.42H277a3.61,3.61,0,0,0-.26.69c-1.06,6.54-2.2,13.06-3.11,19.62a8.41,8.41,0,0,1-3.82,6.18A30.15,30.15,0,0,1,257.74,139c-.68.12-1.35.26-2,.39a8.38,8.38,0,0,0,2.91.89,28.15,28.15,0,0,1,11.42,4.34,7.36,7.36,0,0,1,3.39,4.93c.69,4.38,1.37,8.76,2.08,13.14.44,2.75.92,5.49,1.38,8.23l.5,0c.15-.83.33-1.65.46-2.48.89-5.56,2-11.09,2.58-16.68.46-4.8,3.24-7.32,7.22-9.06a28.69,28.69,0,0,1,4.11-1.46c2.2-.58,4.44-1,6.66-1.51a3.69,3.69,0,0,0-1.62-.67c-2.44-.61-4.9-1.12-7.3-1.86C283.87,135.41,280.59,132,280.15,125.62Zm170,441a29.12,29.12,0,0,1,11.1-4.1l3-.51c-.45-.37-.53-.51-.64-.53-.52-.1-1.05-.17-1.57-.26-4.27-.73-8.41-1.87-12-4.37a7.4,7.4,0,0,1-3.5-4.86c-.66-4.11-1.31-8.23-2-12.35-.5-3.1-1-6.21-1.52-9.31l-.37,0a11,11,0,0,0-.42,1.49c-1,6.14-2.07,12.27-2.89,18.44a9.05,9.05,0,0,1-4.51,7,32.07,32.07,0,0,1-11.39,3.91c-.67.12-1.33.26-2,.39a8,8,0,0,0,2.88.91,29.27,29.27,0,0,1,11.09,4.12,8.26,8.26,0,0,1,3.83,6c.79,5.44,1.67,10.86,2.54,16.28.23,1.42.52,2.83.78,4.24a1.75,1.75,0,0,0,.71-1.16c1-6.41,2.15-12.8,3-19.22A8.37,8.37,0,0,1,450.14,566.57ZM386.3,654.83a33.27,33.27,0,0,0,2.06-5.36,87.79,87.79,0,0,0,2-25c-.14-2.9-.86-4-2.37-3.84-2.32.28-2.19,2.22-2.24,3.82-.14,4.89-.05,9.8-.27,14.68a49,49,0,0,1-1.17,9.62c-.74,3-1.95,6-5.58,6.86-3.46-1.76-5-4.07-5.35-8.62-.42-5.67-.54-11.37-.87-17a51.17,51.17,0,0,0-.79-6.89c-.14-.67-1.27-1.68-1.83-1.61-.74.09-1.45,1-2,1.71-.25.3-.18.89-.22,1.35a104.49,104.49,0,0,0,.35,23,17.85,17.85,0,0,0,3.2,8.64C374.38,660.35,383.18,661.92,386.3,654.83Zm29.13-20.53c2.59-7.81-3.32-14.69-11.41-13.21-1.44.26-2.92.35-4.64.55-1.16,1.21-2.61,2.61-3.92,4.15a4.2,4.2,0,0,0-1,2.3,7.65,7.65,0,0,0,.87,2.45l1.92-1.68c-.21,7.33-.44,14.53-.61,21.73-.05,2,0,4,.13,5.94.1,1.57.92,2.68,2.62,2.66s2.44-1.16,2.6-2.7a29.41,29.41,0,0,0,0-3v-5.74c.44-.2.79-.38,1.15-.53C409.1,644.7,413.35,640.57,415.43,634.3ZM402,625.78a6.36,6.36,0,0,1,7.34.35c1.9,1.7,2.39,4.33,1.38,7.1-1.53,4.18-4.34,7.16-8.72,9.49Zm26.52,10.07a18.49,18.49,0,0,1-4.29-4.83c-1.6-2.65-.81-4.79,1.9-6.54,2.75.28,4.13,1.32,5,3.74A5,5,0,0,0,432,630a2.2,2.2,0,0,0,1.68.69,2.11,2.11,0,0,0,1.28-1.27,6.54,6.54,0,0,0-2.5-7.22c-5.37-3.56-9.81-2.52-12.62,4a10.06,10.06,0,0,0-.12,5.61c.71,3.51,3,6,5.77,8.31,3.25,2.72,5.21,6.17,4.81,10.57-.24,2.73-1.89,4.15-4.56,4.21-3,.06-4.21-.91-4.74-3.88a4.5,4.5,0,0,0-.24-1.36c-.39-.7-.89-1.83-1.4-1.86a3.3,3.3,0,0,0-2.5,1.06,5.11,5.11,0,0,0-.9,2.94,7.81,7.81,0,0,0,6.08,7.65c7.19,1.29,12.47-2.11,12.91-9.62A15.74,15.74,0,0,0,428.55,635.85Zm-66.87,17.24a2.68,2.68,0,0,0-.5-2.57,3.57,3.57,0,0,0-2.83,0c-.72.28-1.16,1.22-1.74,1.85-3.45,3.66-7.42,3.21-9.92-1.14A20.42,20.42,0,0,1,344.16,641c0-.66,0-1.33.13-2,.52-4.13,1.52-8.1,4.53-11.21,2.8-2.9,6.09-2.79,8.78.2a18.06,18.06,0,0,0,2,2.45,10.07,10.07,0,0,0,2.66,1c.19-.9.74-1.89.52-2.67a9.48,9.48,0,0,0-15.08-5.12,17.84,17.84,0,0,0-4.06,4.55A25.38,25.38,0,0,0,340,644.58c.44,4.58,1.71,8.86,5.18,12.14C351.13,662.34,358.49,659.14,361.68,653.09Zm100.19-9.92a32.49,32.49,0,0,0,5.45-1c1.68-.46,3.64-.82,3.89-3.09.16-1.46-1.37-2.91-4-3.47-3.15-.66-6.35-1-9.66-1.53a12.46,12.46,0,0,0,1.27-3.09,5.75,5.75,0,0,0-.47-3.62c-.91-1.32-2.53-.88-3.81-.24a15.27,15.27,0,0,0-7.88,8.51,10.76,10.76,0,0,0-.55,4.07c.21,4.73,3,8.19,6.09,11.4a7.7,7.7,0,0,0,2.11,1.45c2.36,1.15,4.46-.11,4.2-2.7A22.53,22.53,0,0,0,457,645a17.13,17.13,0,0,0-.89-1.79C458.21,643.2,460.05,643.33,461.87,643.17Zm-5.45-14c-1.23,4.65-2.66,6.19-7,6.21A13.15,13.15,0,0,1,456.42,629.12Zm-1.22,20.43c-2.59-1.82-4.31-4.33-5.91-7.49l3.74.84c.89,2,1.83,4.12,2.78,6.24Zm-6.15-10.5a30.47,30.47,0,0,1,18.63.12A31.32,31.32,0,0,1,449.05,639.05Zm-22.11,59.14a21.48,21.48,0,0,0-5.56-1.38c-1.84-.3-3.72-.35-5.69-.52a14.61,14.61,0,0,0,1.41-3.48c.15-1.13.13-2.75-.55-3.38a3.76,3.76,0,0,0-3.41-.38,14.81,14.81,0,0,0-8.52,9.38c-1.72,5.5,2.56,12.11,6.63,15.35,1.27,1,2.75,1.87,4.35.76s1.4-2.91.89-4.52a43.37,43.37,0,0,0-1.77-4.16c4.09-.71,8.14-1.25,12.1-2.18,1-.24,2.52-1.71,2.47-2.53A4.42,4.42,0,0,0,426.94,698.19Zm-12.66-6.9.62.43c-1,1.69-1.95,3.39-2.87,5l-4.44.85C409.35,694.58,411.32,692.38,414.28,691.29Zm-.82,20.26a18.25,18.25,0,0,1-5.87-7.45l3.69.82c.89,2,1.84,4.12,2.78,6.24Zm-6.17-10.49a30.43,30.43,0,0,1,18.64.15A31.75,31.75,0,0,1,407.29,701.06ZM346.22,50.48c3.16.63,6.35,1,9.66,1.53a13.5,13.5,0,0,0-1.32,3.28c-.15,1.13-.13,2.75.54,3.38a3.81,3.81,0,0,0,3.4.39A14.46,14.46,0,0,0,367,49.71c1.27-4.34-.35-8.09-2.95-11.4a21.16,21.16,0,0,0-5-4.71c-2.18-1.42-4.33,0-4.19,2.63a12.59,12.59,0,0,0,.85,3.43,25.78,25.78,0,0,0,1.32,2.72c-3.72.51-7.37.88-11,1.57-1.75.33-4,.83-3.85,3.25C342.38,49.4,344.39,50.12,346.22,50.48ZM357,56.8c.32-2.34,1.62-3.89,3-5.44l3.71-.75C363,53.13,360,56,357,56.8Zm1.22-20.27A18.73,18.73,0,0,1,364.1,44l-3.74-.85L357.6,36.9Zm6.15,10.53a30.07,30.07,0,0,1-18.62-.18A31.52,31.52,0,0,1,364.35,47.06ZM172.59,340.23a42,42,0,0,0,7.38,5.84c8.13,4.54,15.85-2.48,17.73-8.09.83-2.49-.93-4.22-3.49-3.55a37.32,37.32,0,0,0-3.93,1.53c-.32-2.75-.53-5.39-1-8a12.06,12.06,0,0,0-1.44-4.07c-1.42-2.4-3.6-2.24-4.81.26a9.46,9.46,0,0,0-1,2.8c-.48,3.37-.83,6.75-1.23,10.1-1.52-.62-3.18-1.43-4.92-1.95-1.49-.45-3.11-.46-4.07,1.11A3.07,3.07,0,0,0,172.59,340.23Zm22.55-3c-.69,2.68-2.63,4.85-5.87,6.7C189,340.13,190.52,338.2,195.14,337.19Zm-9.84-11.4c2,3.25,2.19,14.84.23,18.64C183.46,341.68,183.3,328.82,185.3,325.79ZM175.25,337.7l6.31,2.67c.31,1.34.53,2.35.76,3.37l-.46.48-7.15-5.59ZM357.37,688.91a3.54,3.54,0,0,0-3.06.49,3.89,3.89,0,0,0-.67,3A17.46,17.46,0,0,0,355,696c-3.52.6-7,1.09-10.38,1.83-1.55.34-3.14,1.19-3.22,3.07-.1,2,1.67,2.48,3.15,3.05a6.88,6.88,0,0,0,1.72.48c3.27.41,6.55.78,9.91,1.17-.63,1.55-1.44,3.21-2,5-.43,1.42-.44,3,1,4a3,3,0,0,0,4-.54,40.64,40.64,0,0,0,5.64-6.82C369.84,699,363.4,691.25,357.37,688.91Zm-.72,22.71,2.89-6.67,3.3-.77C362.52,706.58,359.45,710.49,356.65,711.62Zm-12-10c2.85-2.45,15.22-2.68,19.45-.35C357.42,703.11,351.19,702.88,344.62,701.62ZM359,696.71l-3.11-5c2.57-.18,5.57,2.36,7.25,5.85ZM181.25,399.84a59.37,59.37,0,0,0,1.74,8.3,3.57,3.57,0,0,0,2.48,2.07c.8.08,1.84-1,2.55-1.77a4.37,4.37,0,0,0,.88-2.17c.55-3.17,1-6.35,1.51-9.61a15.26,15.26,0,0,0,3.51,1.38c1.05.16,2.58,0,3.19-.63a3.74,3.74,0,0,0,.4-3.23,15.61,15.61,0,0,0-2.73-4.32c-6.25-7.37-19.28-5.23-23,3.74a4.18,4.18,0,0,0-.2.56,2.58,2.58,0,0,0,2.46,3.46,9.47,9.47,0,0,0,3.28-.56,41.42,41.42,0,0,0,3.86-1.77A32.58,32.58,0,0,0,181.25,399.84Zm14-4.7-.39.62-5-2.8c-.32-1.57-.59-2.84-1-4.61C191.91,390.28,194.15,392.18,195.21,395.14Zm-9.74-7a30,30,0,0,1-.24,18.68C183.68,400.55,183.34,394.32,185.47,388.13Zm-10.23,6.8-.3-.56c1.78-2.64,4.31-4.36,7.51-6l-.91,3.81ZM314.16,633.29a68.82,68.82,0,0,0-8.72,1.67,4.45,4.45,0,0,0-2.5,2.89c-.34,1.58,1.27,2.25,2.61,2.74a9.25,9.25,0,0,0,2.08.64c3.33.43,6.66.8,10.06,1.19a47.94,47.94,0,0,0-1.89,4.43c-.51,1.61-.76,3.37.93,4.5s3.24.35,4.3-.82a40.77,40.77,0,0,0,5.57-7.11c4.56-8.09-2.23-15.78-7.94-17.8-2.58-.91-4.37.9-3.64,3.55a40.83,40.83,0,0,0,1.63,4.1A16.92,16.92,0,0,0,314.16,633.29Zm4.64,15.06-.55-.29c.91-2.13,1.83-4.25,2.71-6.31l3.79-.9C323.18,644,321.45,646.55,318.8,648.35Zm6-14.18c-4.89,0-6.42-2.71-7-6.1C321.06,629,322.8,631.48,324.76,634.17Zm.28,3.64c-6.19,2.13-12.42,1.8-18.68.25A30.34,30.34,0,0,1,325,637.81ZM588.57,326.32c-.33-1.73-.77-4-3.15-4s-3.06,2.12-3.44,4c-.63,3.14-1,6.34-1.52,9.62a13.79,13.79,0,0,0-3.31-1.32c-1.12-.16-2.74-.11-3.37.56a3.83,3.83,0,0,0-.37,3.41,14.89,14.89,0,0,0,9.55,8.56c5.65,1.7,12.64-3.17,15.39-7,.88-1.2,1.55-2.58.6-4s-2.62-1.5-4.11-1.05c-1.68.51-3.28,1.31-4.79,1.93C589.57,333.47,589.24,329.87,588.57,326.32Zm-12.92,11.14.39-.62,5,2.81.94,4.6C579,342.32,576.72,340.41,575.65,337.46Zm9.76,7a30.41,30.41,0,0,1,.18-18.68A31.8,31.8,0,0,1,585.41,344.47Zm10.21-6.79.3.57c-1.79,2.62-4.3,4.35-7.47,5.93.31-1.41.54-2.41.83-3.74ZM414.26,59.17a3.73,3.73,0,0,0,3.21-.58c.62-.56.68-2.06.51-3.06a17.93,17.93,0,0,0-1.44-3.63c2.79-.34,5.49-.53,8.13-1a12.51,12.51,0,0,0,4.38-1.73c1.86-1.23,1.67-3.22-.3-4.28a10.55,10.55,0,0,0-3.35-1.18c-3.3-.5-6.64-.82-10-1.21a49,49,0,0,0,1.91-4.53c.48-1.53.69-3.23-.89-4.35s-3.22-.42-4.31.73a39.36,39.36,0,0,0-5.34,6.57C401.83,49.11,408.22,56.83,414.26,59.17Zm.57-22.32-2.68,6.31-3.39.77A11.4,11.4,0,0,1,414.83,36.85ZM427,46.41c-2.48,2.5-14.86,2.78-19.47.44C414.28,45,420.48,45.29,427,46.41ZM415.22,56.87c-3.11-1.15-5.08-3.34-6.71-6.13C412.89,51.14,415.22,53.25,415.22,56.87ZM598.17,392.23a40.54,40.54,0,0,0-6.91-5.52c-8.09-4.75-15.81,1.81-18,7.71a3.5,3.5,0,0,0,.54,3,3.89,3.89,0,0,0,3,.62,18.6,18.6,0,0,0,3.75-1.44c.33,2.74.51,5.38,1,8a12.72,12.72,0,0,0,1.67,4.39c1.31,2.06,3.35,1.83,4.47-.37a10.65,10.65,0,0,0,1.09-3.17c.48-3.3.81-6.63,1.19-10,1.4.6,2.92,1.39,4.52,1.9s3.22.71,4.35-.86S599.32,393.31,598.17,392.23Zm-22.44,3.18c.71-2.71,2.73-5,5.89-6.69C581.85,392.52,580.28,394.44,575.73,395.41Zm9.92,11.4a29.8,29.8,0,0,1-.24-18.67C587.52,394.33,587.17,400.55,585.65,406.81Zm10-11.91-6.26-2.65c-.22-.8-.35-1.24-.45-1.68s-.22-1.14-.33-1.71l.43-.48,7.15,5.59Zm-9.78,302.58c-1.9-2.51-4-4.86-6-7.2,1.5-.63,3.24-1.24,4.86-2.07,1.4-.73,2.53-1.84,2.17-3.64a3.06,3.06,0,0,0-3.44-2.4,43,43,0,0,0-9.16,1.18c-8.71,2.49-9.49,12.57-6.74,18.26,1.15,2.37,3.62,2.39,5,.1a30.52,30.52,0,0,0,1.63-3.88c2.73,2,5.35,4,8.09,5.77a7,7,0,0,0,3.17,1,2.2,2.2,0,0,0,2.47-3.05A13.4,13.4,0,0,0,585.84,697.48Zm-2.46-12.27c0,.23.09.46.13.7l-6.42,2.58-3.29-2.07C577.18,685.28,580.2,684.63,583.38,685.21Zm-13.46,15.26c-1.44-2.43-1.62-5.16-.7-9.07C572.2,694.29,572.46,697.22,569.92,700.47Zm1.55-12.1c6,2.84,10.25,7.44,13.61,13A29.8,29.8,0,0,1,571.47,688.37ZM186.65,51.82c1.63,2.12,3.54,4,5.25,6-1.64.7-3.39,1.32-5,2.17-1.4.73-2.49,1.88-2.08,3.67a3,3,0,0,0,3.31,2.31,43.21,43.21,0,0,0,9-1.07c8.93-2.36,9.81-12.39,7.12-18.24-1.15-2.5-3.69-2.53-5.07-.16a34.14,34.14,0,0,0-1.68,4,64.24,64.24,0,0,0-5.21-4.2,18.65,18.65,0,0,0-5.46-2.65C184.39,43,183,44.71,184,47A19.61,19.61,0,0,0,186.65,51.82Zm1.61,11.06c-.06-.2-.13-.4-.19-.6l6.5-2.67,3.31,2.09C194.52,62.78,191.47,63.51,188.26,62.88Zm13.33-15.1c1.55,1.63,1.82,4.31.85,9.13C199.54,53.3,199.35,50.85,201.59,47.78Zm-1.4,11.95a31.74,31.74,0,0,1-13.6-13A30,30,0,0,1,200.19,59.73Zm385.49,5.9c2.34-.92,3-3.31,1-4.81a39.58,39.58,0,0,0-5.81-3.11,31.2,31.2,0,0,0,2.44-2.82,68.84,68.84,0,0,0,5.2-7.89c1.13-2.19-.31-3.8-2.78-3.44a7.12,7.12,0,0,0-2.94,1.09c-2.66,1.8-5.22,3.76-7.83,5.66a15.56,15.56,0,0,0-1.4-3.48c-.61-.88-1.79-2-2.64-1.92A3.9,3.9,0,0,0,568.15,47a14.14,14.14,0,0,0,.63,13C571.47,64.56,580.7,67.58,585.68,65.63Zm-1.34-3.41-.17.68c-3.17.6-6.21-.12-9.59-1.18l3.27-2.12Zm1.42-15.9c-.2,3.39-9.29,12.3-14,13.61A37.94,37.94,0,0,1,585.76,46.32Zm-15,1.42c2.4,2.68,2.18,5.79-.79,9.16C569.15,51.75,569.34,49.71,570.74,47.74ZM186,682.46c-2.34.9-3,3.3-1,4.8a38,38,0,0,0,5.73,3.09c-.7.85-1.67,1.86-2.46,3a69.56,69.56,0,0,0-5.07,7.74c-1.13,2.2.29,3.81,2.75,3.46a7.09,7.09,0,0,0,2.94-1.07c2.67-1.81,5.23-3.76,7.85-5.68a15.63,15.63,0,0,0,1.39,3.47c.61.88,1.78,2,2.63,1.93a3.87,3.87,0,0,0,2.74-2,14.16,14.16,0,0,0-.5-12.8C200.35,683.6,191.14,680.51,186,682.46Zm1.32,3.42c.05-.23.11-.46.17-.69,3.17-.59,6.21.18,9.69,1.17l-3.38,2.11Zm-1.52,15.51a31.57,31.57,0,0,1,13.6-13A30,30,0,0,1,185.8,701.39Zm15.32-.81c-2.6-2.88-2.38-6,.56-9.34A14.09,14.09,0,0,1,201.12,700.58ZM378.37,57.29a2.71,2.71,0,0,0,2.29.47c.48-.23.79-1.41.72-2.12A6.47,6.47,0,0,1,386,48.5c3.73,1,5.44,3.48,4.94,7.35-.16,1.29.26,2.2,1.59,2.14a3.61,3.61,0,0,0,2-1.1A11.11,11.11,0,0,0,397,45a11.47,11.47,0,0,0-21.4-.35C373.74,49,374.91,54.63,378.37,57.29Zm2.55-13.88a7.26,7.26,0,0,1,9.29-.9c3.18,2,4.33,4.79,3.33,8.47-4.48-7.69-10.16-7.69-14.5-.18C377.92,48.48,378.69,45.47,380.92,43.41ZM576.62,371c-1.59-.19-2.58.79-2.07,2.15a4.79,4.79,0,0,0,1.16,1.57,11.23,11.23,0,0,0,12.35,2.09c4.12-1.86,7.22-6.65,7-10.74a12.1,12.1,0,0,0-8.09-10.79c-4.16-1.37-9.32-.06-11.75,3.12a2.67,2.67,0,0,0-.47,2.28c.23.49,1.41.81,2.12.73a6.48,6.48,0,0,1,7.14,4.63C583,369.8,580.49,371.5,576.62,371Zm5-12a6.76,6.76,0,0,1,7.72,2.26,7.3,7.3,0,0,1,.36,9.33,6.86,6.86,0,0,1-8.24,2.92C589,370,589.18,363,581.64,359.06ZM390.87,690.4c-.27,0-.64,1.44-.56,2.17.37,3.36-1.48,6-5.15,7.06-3.53-1.42-4.8-3.64-4.47-7.48a2.12,2.12,0,0,0-.6-1.7,2.68,2.68,0,0,0-2,0,4.35,4.35,0,0,0-1.48,1.28,11.3,11.3,0,0,0-1.51,12.44c2,3.93,6.75,6.77,10.86,6.48a11.85,11.85,0,0,0,10.46-8.17c1.26-4.35.41-8.29-2.94-11.45A3.69,3.69,0,0,0,390.87,690.4Zm.16,14c-2.85,2.67-6.41,3.19-9.45,1.38a7.33,7.33,0,0,1-3.46-8.67c3.84,7.51,10.83,7.7,14.5.2A6.36,6.36,0,0,1,391,704.4ZM194.3,361.54a2.29,2.29,0,0,0,1.84-.7,2.62,2.62,0,0,0-.13-2,4.22,4.22,0,0,0-1.32-1.45,11,11,0,0,0-11.92-1.59c-4.11,1.76-7.15,6.48-6.88,10.78a11.46,11.46,0,0,0,7,10.27c4.33,2,9.92.86,12.71-2.59a3.13,3.13,0,0,0,.54-2.45c-.1-.39-1.42-.72-2.14-.65-3.39.37-6-1.4-7.12-5.08C188.21,362.56,190.55,361.2,194.3,361.54Zm-5.08,12a6.47,6.47,0,0,1-7.4-2c-2.58-3.1-2.88-6.44-.85-9.48a7.14,7.14,0,0,1,8.42-3C182.43,362.42,181.17,369.46,189.22,373.53Zm65.11,108.3c.36,2.62.87,5.22,1.31,7.83l.5,0c.54-3.3,1.28-6.59,1.58-9.91s2-4.91,4.79-5.88c1.61-.56,3.28-1,4.92-1.43l0-.36c-.68-.14-1.37-.26-2-.44-5-1.3-7.76-2.64-7.9-8.06-.07-2.91-.93-5.8-1.43-8.69a45.08,45.08,0,0,0-2.05,9.9c-.27,3.52-2.38,5.11-5.28,6.16-1.11.39-2.3.58-3.45.88-.38.1-.74.27-1.48.54,1.12.29,1.81.48,2.51.65C252.49,474.51,253.46,475.62,254.33,481.83ZM447.65,164c-.28-3.27-1-6.49-1.58-9.73a3.31,3.31,0,0,0-.84,1.79c-.51,2.93-1.15,5.85-1.43,8.81a5.39,5.39,0,0,1-3.68,4.71c-1.87.79-3.85,1.31-6.17,2.08,1.32.33,2.28.55,3.22.8,3.85,1,6.89,2.77,6.9,7.4a13.57,13.57,0,0,0,.33,2.35c.41,2.25.83,4.49,1.24,6.74a45.11,45.11,0,0,0,2-9.62,6.46,6.46,0,0,1,4.73-6.15c1.66-.59,3.36-1,5.22-1.6-1.95-.61-3.71-1.11-5.44-1.71A6.2,6.2,0,0,1,447.65,164ZM237.82,248.36a30.37,30.37,0,0,0-.75-4.36,6.07,6.07,0,0,0-1,3.2c0,3.62-1.81,5.46-5.23,6,0,0-.06.19-.09.29,5.81,2.22,4.39,1.66,5.52,7.16.14.71.26,1.43.39,2.14,1.37-3.84.43-8.93,6.41-9.54-.43-.13-.86-.29-1.31-.39C239.35,252.28,237.88,251,237.82,248.36Zm255.66-128.8c-2.32-.66-4.05-1.75-4.07-4.58a24.89,24.89,0,0,0-.75-4.39,17.69,17.69,0,0,0-1.34,5.28,3.7,3.7,0,0,1-2.74,3.27c-.73.27-1.49.48-2.57.82.52.29.73.49,1,.52,3.1.48,4.53,2.29,4.59,5.41a21,21,0,0,0,.7,3.62c.78-2,.61-4.32,1.54-6s2.93-2.6,4.38-3.79Zm-1.76,388.6a28.77,28.77,0,0,0-.87-4.81,12.6,12.6,0,0,0-1.06,4.23c-.19,2.54-1.28,4.23-3.88,4.78a17.5,17.5,0,0,0-1.74.62,15.76,15.76,0,0,0,1.57.54c2.67.51,3.89,2.16,4.05,4.82a40.14,40.14,0,0,0,.74,4.34,5.19,5.19,0,0,0,.8-2.35c.19-3.71,1-6.92,5.76-7.24a7.71,7.71,0,0,0-1.83-.8C493.19,511.67,491.77,510.63,491.72,508.16ZM280,515.81a22.79,22.79,0,0,0,.69,3.69c.78-2.1.64-4.44,1.61-6.15s3-2.49,4.48-3.64c-.12,0-.44-.06-.75-.14-2.4-.67-4.2-1.78-4.2-4.7a23.85,23.85,0,0,0-.76-4.29,4.14,4.14,0,0,0-.77,2.09c-.45,3.44-.8,6.95-5.58,7.39a2.9,2.9,0,0,0,.82.42C278.6,511,279.91,512.79,280,515.81ZM487.75,187.56a26.26,26.26,0,0,0-.81-4.6l-.39,0c-.24,1.46-.58,2.92-.71,4.39-.21,2.46-1.29,4.09-3.8,4.64a13.49,13.49,0,0,0-1.68.61,12.12,12.12,0,0,0,1.5.56,4.54,4.54,0,0,1,4,4.67,44.22,44.22,0,0,0,.7,4.4,3.6,3.6,0,0,0,.76-1.91c.31-3.73.78-7.31,5.92-7.56a5.92,5.92,0,0,0-1.55-.71C489.4,191.39,487.77,190.31,487.75,187.56Zm100.35,247c-1.52,0-2.11,1.1-2.17,2.51s.82,2.25,2,2c.92-.16,1.7-1.12,2.53-1.73C590.12,435.51,589.57,434.5,588.1,434.53ZM184.94,437c-.07-1.42-.68-2.49-2.19-2.5s-2,1-2.35,2.85c.84.6,1.62,1.56,2.54,1.71C184.13,439.29,185,438.45,184.94,437Zm-3.21-12a3.53,3.53,0,0,0-.7,2.74c.4,1.56,1.79,1.46,3.27,1.08a2.51,2.51,0,0,0-.18-3.6C183.61,424.76,182.06,424.62,181.73,425Zm405,.24a2.45,2.45,0,0,0-.06,3.63c1.4.3,2.8.41,3.18-1.16a3.46,3.46,0,0,0-.75-2.72C588.77,424.61,587.22,424.77,586.73,425.23ZM184.87,313a2.5,2.5,0,0,0,.21-3.64c-1.41-.37-2.79-.53-3.23,1a3.52,3.52,0,0,0,.63,2.77C182.8,313.54,184.37,313.44,184.87,313Zm402.89.12c.68.45,1.9.08,2.77.08.64-3.61-.37-4.58-3.33-3.67C586.44,310.84,586.46,312.27,587.76,313.12ZM586,446.79c-.1,1.46.76,2.41,2.06,2.28.86-.08,1.64-1,3.06-2-1.36-1-2.07-2-2.94-2.16C586.91,444.6,586,445.43,586,446.79Zm-401.14-.24a2,2,0,0,0-4,0c-.5,1.44.45,2.31,2,2.68C184.33,448.86,185.28,448,184.82,446.55ZM332.13,702.64a1.88,1.88,0,0,0-2.08,2.1c0,1.25.57,2.17,2.72,2.16.3-.38,1.22-1,1.35-1.84A2,2,0,0,0,332.13,702.64ZM439.57,45.47a1.9,1.9,0,0,0,2.05-2.15c0-1.23-.61-2.15-2.77-2.1-.29.38-1.2,1.07-1.31,1.86A2,2,0,0,0,439.57,45.47ZM332.8,45.39c.92-.16,1.7-1.15,2.54-1.76l0-1A8.32,8.32,0,0,0,333,41.27c-1.38-.28-2.07.71-2.12,2S331.48,45.63,332.8,45.39ZM438.74,702.64a2,2,0,0,0-2,2.41c.13.8,1.05,1.47,1.35,1.85,2.14,0,2.72-.91,2.72-2.15A1.89,1.89,0,0,0,438.74,702.64Zm-216-656.92.89,0c.53-.78,1.4-1.52,1.5-2.35a1.8,1.8,0,0,0-2.08-2.07c-1.35.07-2.2.94-2,2.21C221.31,44.3,222.21,45,222.78,45.72Zm-38,610.09a1.69,1.69,0,0,0-1.86-2.17c-.86.07-1.66.94-2.49,1.46l0,1c.79.57,1.6,1.59,2.38,1.57A2.87,2.87,0,0,0,184.82,655.81Zm403.07,7.77a1.69,1.69,0,0,0-1.84,2.18,2.89,2.89,0,0,0,2,1.8c.77,0,1.57-1,2.36-1.57l0-1C589.56,664.51,588.75,663.64,587.89,663.58ZM252.53,45.71h.94c.53-.83,1.52-1.69,1.46-2.48a2.89,2.89,0,0,0-2-1.87,1.68,1.68,0,0,0-2,2.07C251.1,44.25,252,45,252.53,45.71Zm9.87,0h1c.55-.81,1.55-1.63,1.52-2.41A2.87,2.87,0,0,0,263,41.35a1.67,1.67,0,0,0-2.11,1.89C261,44.11,261.87,44.88,262.4,45.7Zm10,0,.95,0c.52-.83,1.49-1.69,1.42-2.47a2.87,2.87,0,0,0-1.94-1.87,1.67,1.67,0,0,0-2,2C271,44.19,271.88,44.93,272.44,45.72Zm9.93,0,.94,0c.53-.84,1.5-1.72,1.44-2.5a2.91,2.91,0,0,0-2-1.85,1.69,1.69,0,0,0-2,2.1C280.92,44.27,281.81,45,282.37,45.72Zm-96.75,136.1a2.94,2.94,0,0,0-1.94-1.9c-.77,0-1.61.94-2.43,1.48v1c.81.55,1.57,1.45,2.43,1.56A1.69,1.69,0,0,0,185.62,181.82ZM302.16,45.7h.94c.56-.82,1.56-1.66,1.52-2.44s-1.14-1.75-1.93-1.92a1.69,1.69,0,0,0-2,2C300.77,44.2,301.63,44.93,302.16,45.7Zm289,125.74c-.81-.53-1.66-1.51-2.44-1.46a2.92,2.92,0,0,0-1.92,1.92,1.69,1.69,0,0,0,1.95,2.08c.86-.12,1.62-1,2.42-1.58C591.21,172.08,591.21,171.76,591.2,171.44ZM185.62,172a2.91,2.91,0,0,0-1.87-2c-.77-.08-1.65.87-2.48,1.38l0,1c.78.58,1.51,1.51,2.37,1.65A1.69,1.69,0,0,0,185.62,172ZM449.47,45.7h.89c.55-.76,1.43-1.46,1.57-2.29.22-1.27-.66-2.12-2-2.15a1.8,1.8,0,0,0-2,2.13C448,44.23,448.92,44.94,449.47,45.7Zm9.88,0,.89,0c.57-.74,1.47-1.43,1.63-2.25.24-1.26-.61-2.13-2-2.2a1.81,1.81,0,0,0-2.08,2.08C457.94,44.18,458.82,44.92,459.35,45.69ZM588.79,164c.86-.11,1.61-1,2.42-1.57,0-.32,0-.64,0-1-.82-.53-1.66-1.51-2.44-1.46a2.91,2.91,0,0,0-1.92,1.91A1.69,1.69,0,0,0,588.79,164ZM480.19,45.71c.54-.76,1.42-1.47,1.56-2.3a1.69,1.69,0,0,0-2-2.06,2.9,2.9,0,0,0-2,1.88c0,.78.94,1.64,1.47,2.47Zm10.05,0c.51-.83,1.36-1.62,1.44-2.49a1.68,1.68,0,0,0-2.16-1.85,2.9,2.9,0,0,0-1.82,2c0,.79,1,1.58,1.58,2.38Zm9.88,0c.53-.82,1.4-1.59,1.5-2.46a1.67,1.67,0,0,0-2.11-1.89,2.9,2.9,0,0,0-1.87,1.95c0,.78,1,1.6,1.53,2.41Zm9.87,0c.55-.76,1.43-1.46,1.57-2.29a1.69,1.69,0,0,0-2-2.07,2.89,2.89,0,0,0-2,1.87c-.06.79.93,1.65,1.46,2.48ZM183.73,164a1.69,1.69,0,0,0,1.88-2.14,2.9,2.9,0,0,0-2-1.85c-.78,0-1.6,1-2.39,1.53,0,.32,0,.64,0,1C182.08,163.07,182.87,164,183.73,164Zm405.06-19.88c.86-.11,1.62-1,2.42-1.57,0-.32,0-.65,0-1-.82-.52-1.66-1.5-2.44-1.45a2.91,2.91,0,0,0-1.92,1.91A1.69,1.69,0,0,0,588.79,144.16ZM538.86,45.69l.9,0c.56-.75,1.46-1.43,1.62-2.25.24-1.27-.61-2.14-2-2.2a1.8,1.8,0,0,0-2.07,2.08C537.45,44.19,538.33,44.92,538.86,45.69ZM183.12,139.74c-.51.83-1.47,1.69-1.41,2.48a2.84,2.84,0,0,0,1.88,1.93,1.69,1.69,0,0,0,2-2c-.15-.88-1-1.63-1.59-2.44Zm2.5-57.26a2.91,2.91,0,0,0-1.89-1.94c-.77-.07-1.64.89-2.46,1.41l0,1c.8.57,1.54,1.49,2.39,1.62A1.69,1.69,0,0,0,185.62,82.48Zm401.22,0a1.68,1.68,0,0,0,2,2c.86-.13,1.6-1,2.39-1.61l0-1c-.82-.51-1.69-1.48-2.46-1.41A2.89,2.89,0,0,0,586.84,82.48Zm-403.13,8c-.77-.06-1.63.92-2.45,1.44,0,.32,0,.64,0,1,.8.56,1.55,1.48,2.41,1.6a1.7,1.7,0,0,0,2-2.07A2.92,2.92,0,0,0,183.71,90.47Zm405.07,4c.86-.11,1.62-1,2.43-1.56V92c-.82-.54-1.66-1.52-2.44-1.48a2.92,2.92,0,0,0-1.93,1.91A1.69,1.69,0,0,0,588.78,94.47ZM185.63,102.4c-.15-.87-1-1.63-1.59-2.43h-.92c-.51.83-1.47,1.69-1.41,2.49a2.86,2.86,0,0,0,1.88,1.93A1.69,1.69,0,0,0,185.63,102.4Zm403.22,31.82c.85-.14,1.58-1.06,2.37-1.64,0-.32,0-.64,0-1-.83-.5-1.7-1.45-2.48-1.38a2.92,2.92,0,0,0-1.86,2A1.68,1.68,0,0,0,588.85,134.22ZM181.25,112.8c.81.54,1.58,1.44,2.44,1.55a1.7,1.7,0,0,0,1.93-2.11,2.92,2.92,0,0,0-1.94-1.89c-.78,0-1.62.94-2.43,1.48Zm407.48-2.45a2.91,2.91,0,0,0-1.89,1.94,1.69,1.69,0,0,0,2,2.06c.86-.13,1.6-1,2.4-1.61l0-1C590.37,111.25,589.51,110.29,588.73,110.35ZM220.37,704.72a2.87,2.87,0,0,0,1.86,2c.79.07,1.68-.89,2.52-1.4l0-.91c-.76-.55-1.45-1.41-2.29-1.6A1.66,1.66,0,0,0,220.37,704.72Zm12.46-2.3-.89,0c-.58.74-1.48,1.41-1.65,2.23-.27,1.27.59,2.14,1.93,2.22a1.8,1.8,0,0,0,2.1-2.06C234.22,703.94,233.35,703.2,232.83,702.42Zm28.81,0c-.54.8-1.42,1.57-1.53,2.43a1.67,1.67,0,0,0,2.08,1.93,2.93,2.93,0,0,0,1.89-1.93c0-.78-.95-1.62-1.49-2.43Zm10,0c-.56.8-1.46,1.54-1.59,2.4a1.68,1.68,0,0,0,2,2,2.9,2.9,0,0,0,1.93-1.89c.05-.78-.92-1.64-1.45-2.46Zm19.73,0c-.51.83-1.36,1.63-1.44,2.49a1.68,1.68,0,0,0,2.16,1.85,2.9,2.9,0,0,0,1.82-2c0-.78-1-1.58-1.58-2.37ZM588.71,303.18c.87-.08,1.66-1,2.48-1.48l0-1c-.79-.56-1.6-1.57-2.38-1.55a2.93,2.93,0,0,0-2,1.84A1.69,1.69,0,0,0,588.71,303.18Zm-405,0a1.69,1.69,0,0,0,1.86-2.16,2.88,2.88,0,0,0-2-1.83c-.78,0-1.59,1-2.38,1.55l0,1C182.09,302.23,182.88,303.11,183.75,303.18ZM299.88,704.72a2.87,2.87,0,0,0,1.86,2c.79.07,1.68-.89,2.52-1.4l0-.91c-.76-.55-1.45-1.41-2.29-1.6A1.66,1.66,0,0,0,299.88,704.72Zm11.35-2.3c-.51.78-1.34,1.53-1.44,2.37a1.69,1.69,0,0,0,2.1,2c.79-.19,1.87-1.27,1.88-2s-1-1.6-1.59-2.4Zm137.82.39a1.7,1.7,0,0,0-1.95,2.12c.16.82,1.06,1.51,1.63,2.25l.94,0c.51-.84,1.48-1.73,1.4-2.52A2.89,2.89,0,0,0,449.05,702.81Zm10.57-.4-1,0c-.57.79-1.58,1.6-1.57,2.38a2.86,2.86,0,0,0,1.83,2,1.68,1.68,0,0,0,2.15-1.85C461,704,460.13,703.24,459.62,702.41Zm27.25,2.32a2.86,2.86,0,0,0,1.88,2c.79.07,1.68-.9,2.52-1.42,0-.3,0-.61,0-.91-.76-.55-1.45-1.41-2.29-1.58A1.69,1.69,0,0,0,486.87,704.73Zm9.94,0a2.86,2.86,0,0,0,1.89,2c.8.06,1.67-.91,2.51-1.44v-.92c-.76-.54-1.46-1.39-2.3-1.55A1.69,1.69,0,0,0,496.81,704.75Zm12.42-2.35h-1c-.54.81-1.53,1.65-1.49,2.43a2.91,2.91,0,0,0,1.89,1.93,1.67,1.67,0,0,0,2.08-1.93C510.65,704,509.77,703.21,509.23,702.4Zm17.4,2.24a1.67,1.67,0,0,0,1.87,2.13c.88-.12,1.68-.94,2.51-1.45l0-.93c-.8-.55-1.61-1.56-2.39-1.54A2.85,2.85,0,0,0,526.63,704.64Zm12.5-2.23-1,0c-.57.79-1.58,1.59-1.57,2.38a2.86,2.86,0,0,0,1.83,2,1.68,1.68,0,0,0,2.15-1.85C540.5,704,539.64,703.24,539.13,702.41Zm49.64-409.17c.87-.11,1.63-1,2.44-1.55,0-.32,0-.65,0-1-.81-.53-1.65-1.51-2.43-1.47a2.92,2.92,0,0,0-1.93,1.9A1.68,1.68,0,0,0,588.77,293.24Zm-403.14-51.7c-.15-.87-1-1.62-1.59-2.43l-.92,0c-.51.83-1.47,1.69-1.41,2.48a2.89,2.89,0,0,0,1.89,1.93A1.69,1.69,0,0,0,185.63,241.54Zm403,31.83c.87-.07,1.67-.93,2.51-1.44l0-1c-.79-.57-1.58-1.6-2.36-1.59a2.91,2.91,0,0,0-2,1.81A1.7,1.7,0,0,0,588.68,273.37Zm-405-4c-.78,0-1.6,1-2.4,1.52v1c.82.53,1.6,1.42,2.46,1.51a1.7,1.7,0,0,0,1.9-2.14A2.92,2.92,0,0,0,183.65,269.37Zm0-9.94c-.78,0-1.6,1-2.4,1.52,0,.32,0,.64,0,1,.81.54,1.59,1.42,2.46,1.52a1.69,1.69,0,0,0,1.9-2.13A3,3,0,0,0,183.65,259.43Zm407.55-8.52c-.83-.52-1.7-1.48-2.47-1.42a2.93,2.93,0,0,0-1.89,1.95,1.69,1.69,0,0,0,2,2.05c.86-.13,1.6-1.05,2.4-1.62C591.21,251.55,591.2,251.23,591.2,250.91Zm-405.59.44a2.88,2.88,0,0,0-2-1.85c-.78,0-1.6,1-2.4,1.53l0,1c.82.53,1.61,1.41,2.47,1.5A1.69,1.69,0,0,0,185.61,251.35Zm403.1-7.8c.86-.08,1.65-1,2.48-1.47,0-.32,0-.64,0-1-.79-.56-1.59-1.58-2.37-1.55a2.91,2.91,0,0,0-2,1.83A1.7,1.7,0,0,0,588.71,243.55Zm-.8,211.31a1.7,1.7,0,0,0-1.86,2.17,2.9,2.9,0,0,0,2,1.82c.78,0,1.58-1,2.37-1.56l0-1C589.57,455.81,588.77,454.93,587.91,454.86Zm-405,9.94c-.86.09-1.63,1-2.45,1.53v1c.81.55,1.64,1.54,2.42,1.5a2.9,2.9,0,0,0,1.95-1.87A1.69,1.69,0,0,0,182.91,464.8Zm405.15,0a1.68,1.68,0,0,0-2,2,2.88,2.88,0,0,0,1.85,2c.77.08,1.65-.87,2.49-1.37l0-1C589.64,465.88,588.92,464.94,588.06,464.8Zm-405.14,9.94c-.86.09-1.64,1-2.46,1.52v1c.8.55,1.63,1.55,2.4,1.51a2.9,2.9,0,0,0,2-1.87A1.68,1.68,0,0,0,182.92,474.74Zm403.13,2.08a2.91,2.91,0,0,0,1.91,1.91c.78,0,1.63-.93,2.44-1.46v-1c-.8-.55-1.56-1.46-2.42-1.57A1.68,1.68,0,0,0,586.05,476.82Zm2,77.43a1.67,1.67,0,0,0-2,2,2.91,2.91,0,0,0,1.85,2c.78.08,1.66-.87,2.49-1.38l0-1C589.64,555.32,588.91,554.39,588.05,554.25ZM182.9,484.68c-.86.1-1.63,1-2.44,1.54v1c.81.54,1.64,1.54,2.42,1.49a2.89,2.89,0,0,0,1.94-1.88A1.68,1.68,0,0,0,182.9,484.68Zm-.08,13.93a2.87,2.87,0,0,0,2-1.82,1.69,1.69,0,0,0-1.86-2.17c-.86.07-1.66.94-2.49,1.46l0,1C181.23,497.61,182,498.63,182.82,498.61ZM588,504.55a1.68,1.68,0,0,0-2,2.05,2.9,2.9,0,0,0,1.88,1.94c.78.07,1.64-.89,2.47-1.41,0-.32,0-.64,0-1C589.63,505.6,588.88,504.68,588,504.55ZM183,514.49c-.86.08-1.65,1-2.48,1.48,0,.32,0,.65,0,1,.79.56,1.6,1.57,2.38,1.55a2.91,2.91,0,0,0,2-1.84A1.69,1.69,0,0,0,183,514.49Zm0,9.94c-.86.07-1.66,1-2.48,1.46l0,1c.79.57,1.59,1.59,2.37,1.57a2.91,2.91,0,0,0,2-1.83A1.7,1.7,0,0,0,183,524.43Zm403.09,2.08a2.89,2.89,0,0,0,1.91,1.92c.78.05,1.63-.93,2.44-1.46v-1c-.8-.56-1.55-1.47-2.41-1.58A1.69,1.69,0,0,0,586.05,526.51Zm0,10a2.89,2.89,0,0,0,1.92,1.9c.77,0,1.62-.93,2.43-1.46,0-.32,0-.64,0-1-.8-.55-1.56-1.46-2.42-1.57A1.68,1.68,0,0,0,586.05,536.46ZM182.83,548.3a2.91,2.91,0,0,0,2-1.84,1.69,1.69,0,0,0-1.87-2.15c-.87.08-1.66,1-2.48,1.48,0,.32,0,.64,0,1C181.24,547.32,182.05,548.33,182.83,548.3Zm403.22-1.87a2.88,2.88,0,0,0,2,1.87c.77,0,1.6-1,2.4-1.5v-1c-.82-.53-1.6-1.43-2.46-1.52A1.68,1.68,0,0,0,586.05,546.43Zm-403.11,7.82c-.86.08-1.65,1-2.47,1.48,0,.32,0,.65,0,1,.8.56,1.61,1.57,2.38,1.54a2.89,2.89,0,0,0,2-1.84A1.69,1.69,0,0,0,182.94,554.25Zm1.89,12c-.13-.89-1-1.67-1.51-2.5l-.92,0c-.54.82-1.52,1.65-1.49,2.45a2.83,2.83,0,0,0,1.83,2A1.67,1.67,0,0,0,184.83,566.3Zm-1.91,7.83c-.87.09-1.64,1-2.46,1.52,0,.32,0,.64,0,1,.81.55,1.64,1.55,2.41,1.51a2.9,2.9,0,0,0,2-1.87A1.68,1.68,0,0,0,182.92,574.13Zm405,9.94a1.69,1.69,0,0,0-1.84,2.18,2.89,2.89,0,0,0,2,1.8c.78,0,1.57-1,2.36-1.58,0-.32,0-.65,0-1C589.56,585,588.75,584.13,587.89,584.07Zm-405,9.93c-.86.13-1.61,1-2.4,1.61l0,1c.82.52,1.69,1.48,2.46,1.42a2.89,2.89,0,0,0,1.89-1.94A1.68,1.68,0,0,0,182.85,594Zm2,12.13a1.7,1.7,0,0,0-1.84-2.19c-.86.07-1.67.93-2.5,1.44l0,1c.79.58,1.58,1.6,2.36,1.59A2.91,2.91,0,0,0,184.82,606.13ZM586.05,606a2.91,2.91,0,0,0,1.84,2c.77.08,1.66-.87,2.5-1.37l0-1c-.78-.59-1.5-1.53-2.35-1.67A1.68,1.68,0,0,0,586.05,606Zm1.9,7.93a1.68,1.68,0,0,0-1.9,2.12,2.88,2.88,0,0,0,2,1.87c.78,0,1.61-1,2.41-1.5v-1C589.59,614.87,588.82,614,588,613.88Zm3.24-392.82c-.83-.5-1.71-1.45-2.49-1.38a2.94,2.94,0,0,0-1.86,2,1.68,1.68,0,0,0,2,2c.86-.13,1.59-1.07,2.38-1.64Zm-409.93,1.13c.83.52,1.61,1.4,2.48,1.48a1.69,1.69,0,0,0,1.87-2.15,2.9,2.9,0,0,0-2-1.84c-.78,0-1.59,1-2.39,1.54C181.25,221.54,181.26,221.86,181.26,222.19Zm407.42-8.46c.87-.06,1.67-.93,2.5-1.43,0-.33,0-.65,0-1-.79-.57-1.58-1.59-2.36-1.57a2.89,2.89,0,0,0-2,1.8A1.69,1.69,0,0,0,588.68,213.73ZM184.82,625.93a1.69,1.69,0,0,0-1.92-2.11c-.86.1-1.63,1-2.44,1.54v1c.81.54,1.64,1.54,2.42,1.49A2.91,2.91,0,0,0,184.82,625.93Zm401.23,0a2.89,2.89,0,0,0,1.93,1.89c.78.05,1.62-.93,2.43-1.47v-1c-.81-.55-1.57-1.45-2.43-1.56A1.69,1.69,0,0,0,586.05,625.92ZM182.9,633.76c-.86.1-1.63,1-2.44,1.54v1c.81.54,1.64,1.53,2.42,1.49a2.91,2.91,0,0,0,1.94-1.88A1.68,1.68,0,0,0,182.9,633.76Zm405.17,0a1.68,1.68,0,0,0-2,2,2.91,2.91,0,0,0,1.84,2c.78.09,1.66-.86,2.5-1.36,0-.32,0-.64,0-1C589.64,634.84,588.92,633.9,588.07,633.76Zm.69-439.9c.87-.11,1.63-1,2.44-1.55v-1c-.81-.54-1.64-1.53-2.42-1.49a2.92,2.92,0,0,0-1.94,1.89A1.69,1.69,0,0,0,588.76,193.86Zm-405.15,0a1.69,1.69,0,0,0,2-2,2.92,2.92,0,0,0-1.86-2c-.77-.08-1.65.88-2.49,1.38l0,1C182,192.78,182.75,193.72,183.61,193.86Zm-.77,449.84c-.86.13-1.6,1-2.39,1.61,0,.33,0,.65,0,1,.83.51,1.69,1.48,2.47,1.42a2.94,2.94,0,0,0,1.88-2A1.68,1.68,0,0,0,182.84,643.7ZM235.09,43.39a2.84,2.84,0,0,0-1.85-2c-.8-.08-1.69.88-2.54,1.39l0,.91c.76.56,1.45,1.42,2.28,1.61A1.69,1.69,0,0,0,235.09,43.39Zm7.48,2.32h1c.53-.82,1.51-1.66,1.47-2.44a2.87,2.87,0,0,0-1.91-1.91A1.67,1.67,0,0,0,241,43.29C241.14,44.15,242,44.91,242.57,45.71Zm49.66,0h.94c.55-.82,1.56-1.66,1.52-2.45a2.9,2.9,0,0,0-1.94-1.91,1.69,1.69,0,0,0-2,2C290.84,44.21,291.7,44.93,292.23,45.7Zm20,0,.89,0c.54-.77,1.43-1.5,1.54-2.33a1.8,1.8,0,0,0-2.05-2.1c-1.35,0-2.22.91-2,2.18C310.74,44.27,311.63,45,312.19,45.72Zm9.81,0,.95,0c.56-.81,1.58-1.64,1.55-2.43s-1.12-1.76-1.9-1.94a1.7,1.7,0,0,0-2.07,2C320.64,44.18,321.48,44.91,322,45.69Zm147.28,0,.89,0c.57-.74,1.46-1.42,1.63-2.24.26-1.27-.6-2.13-1.94-2.2a1.8,1.8,0,0,0-2.09,2.06C467.87,44.17,468.75,44.91,469.28,45.69Zm49.86,0,1,0c.49-.83,1.44-1.72,1.35-2.49a3,3,0,0,0-2-1.85,1.67,1.67,0,0,0-2,2C517.61,44.22,518.56,44.94,519.14,45.72Zm9.75,0,.94,0c.56-.8,1.58-1.63,1.55-2.4a2.91,2.91,0,0,0-1.9-2,1.67,1.67,0,0,0-2.07,2C527.5,44.16,528.37,44.9,528.89,45.69Zm19.9,0,.89,0c.57-.74,1.47-1.42,1.63-2.25.26-1.27-.6-2.13-1.95-2.19a1.8,1.8,0,0,0-2.08,2.07C547.38,44.18,548.26,44.91,548.79,45.69Zm40,58.72c.87-.09,1.64-1,2.46-1.52v-1c-.8-.55-1.63-1.55-2.41-1.51a2.9,2.9,0,0,0-2,1.86A1.69,1.69,0,0,0,588.74,104.41ZM181.26,122.8c.83.52,1.62,1.41,2.48,1.48a1.69,1.69,0,0,0,1.88-2.15,2.93,2.93,0,0,0-2-1.84c-.78,0-1.59,1-2.39,1.54C181.25,122.15,181.26,122.48,181.26,122.8ZM586.84,261.27a1.7,1.7,0,0,0,1.87,2.16c.87-.08,1.66-1,2.48-1.48l0-1c-.8-.57-1.61-1.58-2.39-1.55A2.9,2.9,0,0,0,586.84,261.27ZM281.48,702.41c-.53.81-1.4,1.59-1.5,2.45a1.68,1.68,0,0,0,2.11,1.9,2.9,2.9,0,0,0,1.87-2c0-.79-1-1.61-1.52-2.41ZM586.05,576.22a2.9,2.9,0,0,0,1.93,1.9c.77,0,1.61-.94,2.43-1.47v-1c-.81-.54-1.57-1.45-2.43-1.55A1.68,1.68,0,0,0,586.05,576.22ZM322.28,702.42l-.89,0c-.58.74-1.48,1.41-1.65,2.23-.27,1.26.58,2.14,1.93,2.22a1.8,1.8,0,0,0,2.1-2.05C323.67,703.94,322.8,703.2,322.28,702.42ZM184.82,536.49a1.69,1.69,0,0,0-1.91-2.12c-.86.09-1.63,1-2.45,1.53v1c.8.55,1.63,1.54,2.41,1.5A2.88,2.88,0,0,0,184.82,536.49ZM469.49,702.4h-.95c-.55.82-1.55,1.66-1.51,2.45a2.88,2.88,0,0,0,2,1.9,1.68,1.68,0,0,0,2-2C470.88,703.89,470,703.17,469.49,702.4Zm9.94,0h-.95c-.55.82-1.55,1.67-1.51,2.46a2.88,2.88,0,0,0,1.95,1.9,1.69,1.69,0,0,0,2-2C480.83,703.89,480,703.17,479.43,702.4ZM588,647.69c.78,0,1.61-1,2.41-1.5v-1c-.82-.54-1.59-1.43-2.46-1.52a1.68,1.68,0,0,0-1.9,2.12A2.88,2.88,0,0,0,588,647.69ZM588,594a1.7,1.7,0,0,0-1.9,2.13,2.92,2.92,0,0,0,2,1.87c.77,0,1.6-1,2.4-1.51,0-.32,0-.65,0-1C589.59,595,588.81,594.09,588,594ZM185.62,281.18a2.94,2.94,0,0,0-2-1.87c-.78,0-1.61,1-2.41,1.51,0,.32,0,.64,0,1,.81.53,1.59,1.42,2.46,1.52A1.7,1.7,0,0,0,185.62,281.18ZM518.55,702.37c-.64.73-1.64,1.37-1.86,2.21a1.66,1.66,0,0,0,1.81,2.17,2.91,2.91,0,0,0,2.13-1.68c.15-.76-.72-1.72-1.15-2.59Zm72.65-521c-.82-.53-1.66-1.51-2.44-1.45a2.88,2.88,0,0,0-1.92,1.91,1.69,1.69,0,0,0,1.95,2.08c.86-.11,1.62-1,2.42-1.58C591.21,182,591.2,181.7,591.2,181.38ZM183,508.54a2.88,2.88,0,0,0,1.87-2,1.69,1.69,0,0,0-2-2c-.86.14-1.6,1.06-2.39,1.64l0,1C181.3,507.66,182.17,508.62,183,508.54ZM588,657.63c.78,0,1.63-.93,2.44-1.45,0-.32,0-.64,0-1-.8-.55-1.55-1.46-2.41-1.57a1.68,1.68,0,0,0-2,2.07A2.89,2.89,0,0,0,588,657.63Zm-403.14,8a1.69,1.69,0,0,0-2-2.07c-.86.13-1.61,1-2.41,1.6v1c.82.52,1.68,1.49,2.46,1.44A2.91,2.91,0,0,0,184.82,665.64ZM586.05,486.76a2.89,2.89,0,0,0,1.91,1.91c.78.06,1.63-.92,2.45-1.45v-1c-.8-.55-1.55-1.46-2.42-1.57A1.68,1.68,0,0,0,586.05,486.76ZM182.91,613.88c-.87.1-1.64,1-2.45,1.54v1c.81.55,1.64,1.54,2.41,1.49a2.9,2.9,0,0,0,1.95-1.88A1.69,1.69,0,0,0,182.91,613.88ZM586.05,496.69a2.94,2.94,0,0,0,1.9,1.92c.78.05,1.63-.92,2.45-1.44l0-1c-.8-.55-1.56-1.47-2.42-1.58A1.68,1.68,0,0,0,586.05,496.69Zm2.74-213.38c.86-.12,1.62-1,2.42-1.58,0-.32,0-.64,0-1-.82-.53-1.66-1.51-2.44-1.46a2.92,2.92,0,0,0-1.92,1.92A1.69,1.69,0,0,0,588.79,283.31Zm-39.72,419.1-1,0c-.57.81-1.6,1.63-1.58,2.42a2.91,2.91,0,0,0,1.9,2,1.68,1.68,0,0,0,2.08-2C550.42,703.94,549.58,703.2,549.07,702.41Zm37-185.84a2.87,2.87,0,0,0,1.91,1.91c.78.06,1.63-.91,2.44-1.44,0-.32,0-.65,0-1-.8-.55-1.55-1.47-2.41-1.58A1.69,1.69,0,0,0,586.05,516.57ZM182.84,454.86c-.86.13-1.6,1.05-2.39,1.62l0,1c.83.52,1.69,1.48,2.47,1.41a2.88,2.88,0,0,0,1.88-1.94A1.68,1.68,0,0,0,182.84,454.86ZM591.2,231c-.83-.51-1.7-1.48-2.47-1.41a2.89,2.89,0,0,0-1.89,1.94,1.68,1.68,0,0,0,2,2.05c.86-.12,1.6-1.05,2.4-1.62Zm-2.49-76.93c.86-.07,1.66-.95,2.48-1.47l0-1c-.79-.56-1.6-1.57-2.38-1.55a2.91,2.91,0,0,0-2,1.83A1.7,1.7,0,0,0,588.71,154.1Zm-405,0a1.69,1.69,0,0,0,1.87-2.15,2.88,2.88,0,0,0-2-1.84c-.78,0-1.59,1-2.39,1.54l0,1C182.09,153.14,182.88,154,183.74,154.1ZM590.4,565.67c-.82-.53-1.61-1.4-2.48-1.48a1.69,1.69,0,0,0-1.87,2.15,2.89,2.89,0,0,0,2,1.84c.77,0,1.58-1,2.38-1.54ZM185.61,231.45a2.9,2.9,0,0,0-2-1.83c-.78,0-1.58,1-2.38,1.55l0,1c.82.52,1.62,1.4,2.48,1.47A1.69,1.69,0,0,0,185.61,231.45Zm0-19.8a2.89,2.89,0,0,0-1.92-1.9c-.78-.06-1.63.92-2.44,1.44,0,.32,0,.65,0,1,.8.55,1.56,1.46,2.42,1.58A1.69,1.69,0,0,0,185.62,211.65Zm0-79.43c-.15-.88-1-1.63-1.58-2.43h-.93c-.51.83-1.47,1.69-1.41,2.48a2.82,2.82,0,0,0,1.88,1.93A1.69,1.69,0,0,0,185.63,132.22Zm403.06-11.93a2.92,2.92,0,0,0-1.85,2,1.69,1.69,0,0,0,2,2c.86-.15,1.58-1.09,2.36-1.67l0-1C590.35,121.15,589.46,120.21,588.69,120.29Zm-405.05,173a1.69,1.69,0,0,0,2-2.05,2.91,2.91,0,0,0-1.89-1.94c-.78-.07-1.64.89-2.47,1.4,0,.33,0,.65,0,1C182,292.2,182.78,293.12,183.64,293.25Zm1.2,292.82c-.18-.88-1.07-1.61-1.64-2.41l-.92,0c-.5.85-1.43,1.73-1.36,2.52a2.83,2.83,0,0,0,1.92,1.88A1.67,1.67,0,0,0,184.84,586.07ZM588.78,203.8c.86-.11,1.62-1,2.43-1.56,0-.32,0-.65,0-1-.81-.53-1.65-1.52-2.43-1.47a2.88,2.88,0,0,0-1.93,1.9A1.7,1.7,0,0,0,588.78,203.8Zm-405,0a1.68,1.68,0,0,0,1.85-2.16,2.91,2.91,0,0,0-2-1.83c-.77,0-1.58,1-2.37,1.56l0,1C182.1,202.85,182.89,203.72,183.76,203.79Zm57.9,498.63c-.5.83-1.36,1.62-1.43,2.49a1.68,1.68,0,0,0,2.16,1.84,2.88,2.88,0,0,0,1.82-2c0-.79-1-1.58-1.59-2.37Zm10.07,0c-.55.81-1.44,1.56-1.56,2.42a1.67,1.67,0,0,0,2.06,2c.78-.18,1.87-1.2,1.91-1.9s-.93-1.63-1.46-2.45ZM382.18,214c-4.34,5.7-4.93,12.13-2.86,18.86a10,10,0,0,0,1.49,2.78,6.89,6.89,0,0,0,11.11.37c2.43-2.9,3-6.4,3.19-10.72a18.87,18.87,0,0,0-3.29-11C388.93,210.24,385.19,210,382.18,214Zm6,20.7c1.14-2.21,2.29-4.42,3.48-6.71C392.1,230.43,390.56,233.77,388.17,234.65Zm4-8.86-3.3-.5c-.6-2.44.64-5.56-1.94-7.93-3,2.06-1.68,5.39-2.62,8.09L382,225c-1.36,3.75,2.15,6.23,2.32,9.43-2.11-.85-3.59-4.88-3.28-9.6s1.36-9,5.64-11.54C390.56,214.82,392.89,220.41,392.19,225.79Zm-90,35.34a11.48,11.48,0,0,0,7.19,3,6.42,6.42,0,0,0,6.5-7.09c-.72-6.77-9-14.15-15.81-14.18-3.54,0-5.56,2.06-5.25,5.65C295.25,253.82,298.13,257.85,302.16,261.13Zm-4.69-15.68c3.28-1.12,6.06,0,8.59,1.8,3.83,2.69,6.83,6,7,11-2.23-2.18-1.43-6.19-4.75-8.06L307,252.35a38,38,0,0,0-3.1-2.76,33.82,33.82,0,0,0-3.65-2c-.5,3.92,2.49,5.26,3.87,7.58l-2.15,1.1c1.89,3.46,5.84,2.79,8.2,4.91-4.51.08-7.59-2.49-10.13-5.8C297.87,252.56,296.15,249.44,297.47,245.45Zm167.21,18.79c6.07-1.42,12.46-9.37,12.57-15.62.07-3.66-2.2-5.68-6-5.34-6.09.55-13.13,6.38-14.83,12.27C454.82,261.22,459,265.59,464.68,264.24Zm-1.55-14.3c3.15-3.12,7.88-5.51,11.37-3.95,1.42,3.19,0,6.06-1.75,8.7-2.61,3.86-5.9,6.86-11,7,2.22-2.27,6.36-1.41,8.16-4.91l-2.08-1.14c1.33-2.25,4.29-3.62,4-7.08-3.31-.05-4.69,2.7-6.9,4.13-.39-.61-.75-1.2-1.23-2-3.38,1.76-2.54,5.72-4.54,8C458.4,256.49,459.88,253.15,463.13,249.94ZM278.85,315.13c-3.86-2.47-10.58-2.36-14.36.25-2.8,1.93-3,4.47-.5,6.75s5.74,3.13,9.18,3.44a40.14,40.14,0,0,0,4.8-1,4.87,4.87,0,0,0,3.58-4.3A5.08,5.08,0,0,0,278.85,315.13ZM263.76,319c1.27-2.78,4.77-4.13,8.82-3.55-.09.74-.17,1.47-.25,2.15-1.66.19-3.28.36-4.9.59-.25,0-.46.41-.68.61.77,1.14.77,1.14,5.2,2.15.08.77.17,1.51.26,2.25C268.69,323.16,265.62,322.25,263.76,319Zm8.52,4.21,6.41-2A6.91,6.91,0,0,1,272.28,323.24Zm6.4-4.83-4.46-2.54.2-.43,4.64,2.23Zm214.44,6.49c4.14,2.11,11.39,1,14.7-2.27,2.25-2.21,2.2-4.9-.55-6.45-2.29-1.29-5-1.88-7.57-2.82-2.59.91-5.13,1.38-7.2,2.63C488.78,318.25,489.24,322.93,493.12,324.9Zm14.79-5.34c-1.72,3.34-4.89,3.88-8.24,4.44,0-.86-.07-1.59-.11-2.4,1.71-.74,4,0,5.4-2-1.59-1.91-3.75-.88-5.64-1.33-.06-.66-.11-1.35-.17-2C502.45,315.38,506.32,316.75,507.91,319.56Zm-10.64,4.49-4.55-1.62.38-.82,4.35,1.95Zm-1-7.74.33.58-3.75,2.16-.34-.61Zm-118-40.84c-.53.56-1.45,1.11-1.47,1.69s.75,1.35,1.56,2.62c.82-1.26,1.68-2,1.59-2.59S378.82,276,378.23,275.47Zm4.93,5.6c.47.11,1.17-.83,2.2-1.64-1.05-.75-1.72-1.6-2.28-1.53s-1.13,1-1.68,1.52C382,280,382.48,280.92,383.16,281.07Zm9.28-2c.46.09,1.08-.76,2.08-1.55-1.06-.65-1.69-1.36-2.22-1.29s-1,.89-1.51,1.38C391.33,278.16,391.82,279,392.44,279.1Zm-4.34,2c.65-.06,1.22-.83,2.3-1.67-1.07-.68-1.74-1.43-2.21-1.33a2.17,2.17,0,0,0-1.38,1.52C386.78,280.14,387.69,281.16,388.1,281.12Zm41.38,2.58c0-.51-.8-1.45-1.18-1.41a6.14,6.14,0,0,0-2.11,1.08c0,.32,0,.65,0,1a6,6,0,0,0,2.19.86C428.79,285.2,429.49,284.23,429.48,283.7Zm-.26,3.26c-.38,0-1,1-.94,1.42s.88,1.43,1.25,1.37a6.08,6.08,0,0,0,2.05-1.19c0-.34-.07-.68-.11-1A6.63,6.63,0,0,0,429.22,287Zm7.54,4.32a6.8,6.8,0,0,0-.88,2c0,.3.77.94,1.23,1s1.32-.54,1.32-.83a7.12,7.12,0,0,0-.68-2.11Zm-3.51-1c-.6.15-1,.91-1.55,1.41.46.44.94,1.24,1.39,1.23.6,0,1.18-.68,2.23-1.37C434.3,290.92,433.67,290.21,433.25,290.32Zm-89.91-5.4a5.79,5.79,0,0,0,2.24-.74c0-.3.09-.6.13-.9a9.07,9.07,0,0,0-2.22-1.24c-.29-.07-1.15.83-1.15,1.28S342.94,284.89,343.34,284.92Zm.13,3.15a2.42,2.42,0,0,0-1.61-1.44c-.35-.07-1.34,1-1.3,1.44.06.64.84,1.21,1.67,2.27C342.87,289.24,343.6,288.53,343.47,288.07ZM340,291.41a2.42,2.42,0,0,0-1.54-1.32c-.31-.07-1.25.91-1.19,1.31.09.59.81,1.09,1.6,2.05C339.42,292.45,340.1,291.78,340,291.41Zm-4,1.41a8.35,8.35,0,0,0-1.35-2.12l-2,2.33a7.66,7.66,0,0,0,2.31,1C335.26,294,336,293.13,335.92,292.82Zm-26.07,25.25a4.66,4.66,0,0,0,.87-1.55l-.63-.67a6.4,6.4,0,0,0-1.67.7c-.18.14-.12,1,.12,1.19S309.64,318.25,309.85,318.07Zm.57,1.45c-.47.29-.72.93-1.06,1.43.13.21.27.42.41.63a7.15,7.15,0,0,0,1.83-.35,1.28,1.28,0,0,0,.11-1.2C311.43,319.7,310.67,319.36,310.42,319.52Zm-1.23,4.86c1,1.08,1.81,1.27,2.51-.45C310.68,322.82,309.92,322.84,309.19,324.38Zm152.21-8-.45.52a5.29,5.29,0,0,0,.81,1.61c.2.18,1.07,0,1.31-.29s.29-1.2.08-1.35A5.09,5.09,0,0,0,461.4,316.34Zm.41,5.62.5-.76-1.42-1.4-1.35,1.47.38.59Zm-1.92,2.48c.81,1.47,1.56,1.6,2.49.27C461.73,323.29,461,323.12,459.89,324.44ZM395.13,82.61l-1,0c-4.69,0-9.38,0-14.08.1a60.26,60.26,0,0,0-7.69.73,2.41,2.41,0,0,0-1.53,1.66c-.08.46.75,1.35,1.36,1.6a14.68,14.68,0,0,0,3.1.65c2.33,9.12,4.62,18.12,7,27.45-1.6,0-3.1-.08-4.59,0-1.22.09-2.52.4-2.44,2s1.27,1.7,2.47,1.7l14.69,0c1.41,0,2.57-.52,2.54-2.14s-1.25-2-2.65-2h-4.5c2.34-9.22,4.61-18.17,6.87-27.06a6.74,6.74,0,0,1,.71-.17c1.6-.17,3.51-.2,3.37-2.43S396.73,82.65,395.13,82.61Zm-9.47,26.14-.4,0c-1.76-7-3.52-14.07-5.32-21.22H390.8Z"/></svg>