<svg xmlns="http://www.w3.org/2000/svg" viewBox="0 0 750 750"><path d="M606.11,374.86V50.78c0-1.19,0-2.38,0-3.57C605.9,34.35,596.4,25,583.54,25h-397a21.87,21.87,0,0,0-21.9,21.85q0,328.16,0,656.31a20.81,20.81,0,0,0,.59,4.91c2.63,10.65,11.17,16.93,22.92,16.93H583.78c8.15-.14,14.54-3.52,19-10.4,2.7-4.16,3.35-8.81,3.35-13.67Q606.1,537.9,606.11,374.86ZM602,701.77c0,11.51-7.52,19.11-19,19.11H187.59c-9.33,0-16.38-5.28-18.41-13.83a19,19,0,0,1-.46-4.33q0-327.75,0-655.51a17.74,17.74,0,0,1,18.13-18.09q198.53,0,397,0A17.78,17.78,0,0,1,602,46.85c0,1.46,0,2.91,0,4.37V701.77ZM372.11,525.54c-.48,2,.23,3.17,2.18,3.75a3.2,3.2,0,0,1,1.66.87c3.36,4.66,6.65,9.38,9.71,13.73-.52.67-1.63,1.48-1.55,2.14.2,1.52,1.66,1.41,2.87,1.31.39,0,.78-.21,1.17-.21a2.19,2.19,0,0,1,1.3.2c1.86,1.51,3.67,3.1,5.5,4.66a9.22,9.22,0,0,1-2.78.17c-.47,0-1.28.27-1.31.5a1.78,1.78,0,0,0,.47,1.5c1.88,1.08,3.83,2.54,6.1,1.56s4.24-.47,6.21.55a3.07,3.07,0,0,1,1.43,1.57,7.2,7.2,0,0,0,6.08,5.32,5.54,5.54,0,0,0,6.05-3.63c1-2.53,2.79-3.54,5.07-4.4a3.73,3.73,0,0,1,3.15.07c2.18,1,4.5,1.28,6.55-.45,1.26-1,1-2.27-.49-2.88-.63-.25-1.28-.44-2.38-.82,3-1.77,4.36-5.46,8.33-4.44a1,1,0,0,0,.75-.18c.35-.35.86-.79.85-1.19s-.57-.75-1-1a4.87,4.87,0,0,0-1.23-.38c6.37-7.26,11-15.37,15.06-23.8.19-.4.61-.7.81-1.1.59-1.18,1.19-2.35,1.66-3.58,1.1-2.9,1.43-6.15,4.32-8.17,2.55-1.78,3-3.68,2-6.74-.45-1.38.8-4.8,2.14-5.79a4.38,4.38,0,0,0,1.68-4.74,6.4,6.4,0,0,1,0-2.65c3-12.14,6.12-24.26,9.1-36.41.94-3.82,1.6-7.71,2.38-11.56a1.59,1.59,0,0,1,.62,1.09c.82,5.44,1.56,10.89,2.46,16.31.59,3.52,1.37,7,2.21,10.48a2.34,2.34,0,0,0,1.53,1.52,2.47,2.47,0,0,0,1.78-1.21,22.23,22.23,0,0,0,1.94-4.13A122.53,122.53,0,0,0,493,429.3a555.43,555.43,0,0,0-.45-69.12c0-.47.32-1.34.62-1.4,2.2-.43,2.28-2,2.36-3.75.1-2.29,1-2.88,3.09-2.08,1.48.56,2.78,1.58,4.26,2.1a4.65,4.65,0,0,0,3-.07,2.27,2.27,0,0,0,.77-2c-1-4.52-2.68-8.81-7.4-10.59-2.37-.89-3.87-2-3.85-4.57a8,8,0,0,1,.36-2.71c.59-1.6,1.55-3.08,2.08-4.7,3.28-10.07,3-20.42,1.67-30.71-.79-6.08-2.61-12-3.91-18-1.59-7.38-2-14.71,1.11-21.85.74-1.72-.23-2.78-1.39-3.75-4.49-3.75-12.86-4-17.53-.45-2.12,1.58-2.35,2.15-1.24,4.5,3.76,7.89,3.72,15.95,1.54,24.24-2.12,8.07-4.28,16.15-5.87,24.33-1.53,7.85-1.84,15.82,1,23.55.75,2,2.37,3.93.36,6.11-.11.12-.07.38-.1.58-.43,3.2-1.28,3.59-4.06,1.73a19.64,19.64,0,0,1-2-1.89c-.41-.37-1-1-1.33-.89a2.32,2.32,0,0,0-1.23,1.32c-1.58,4.87,2.06,12.24,6.93,13.92,1.09.38,1.3.94,1.5,2a18.44,18.44,0,0,0,1.37,3.35,5.56,5.56,0,0,1,.78,2.15c-.71,9.5-1.52,19-2.27,28.51-.84,10.63.79,21.17,1.34,31.74a46.54,46.54,0,0,1-.55,11.59c-3.42,17.63-7.17,35.17-12.54,52.32a35.68,35.68,0,0,1-2.23,4.29,10.65,10.65,0,0,0-.83,2.58c-.32,1.65-.44,3.34-.83,5a2,2,0,0,1-1.31,1.15,5.66,5.66,0,0,0-3.73,8.61c1.06,1.74-.17,5.68-2,6.49s-2.42,1.94-2,4a3.87,3.87,0,0,1-.11,2.22,105.61,105.61,0,0,1-13.45,21.29,9,9,0,0,1-1,.88c-.29-.61-.53-1.1-.77-1.59l-.75-.09c-.27,1-.56,2.08-.8,3.12-.12.49,0,1.18-.27,1.45-1.56,1.48-3.21,2.86-5.18,4.58-.28-1.36-.41-2.18-.64-3-.12-.4-.36-1-.64-1.06a1.29,1.29,0,0,0-1.1.59,17.47,17.47,0,0,0-1.6,4.58c-.21,1.78-1.52,1.89-2.61,2.23a2.29,2.29,0,0,1-1.82-.8c-3.13-3.62-8.34-3.59-11.16.17-.55.74-1,1.44-2,.9s-2.17-.5-2.31-2.23a15.11,15.11,0,0,0-1.61-5.24c-.3-.63-1.58-.77-2.42-1.14a16.26,16.26,0,0,0-.54,2.62,8.92,8.92,0,0,0,.38,2.14l-.5.21c-2.22-2-5.94-2.81-5.23-7.09a.83.83,0,0,0-.11-.58c-.21-.31-.52-.81-.75-.79a1.78,1.78,0,0,0-1,.69,4.28,4.28,0,0,0-.51,1.19,83.58,83.58,0,0,1-11-14.58,2.29,2.29,0,0,1-.27-1.32,3.42,3.42,0,0,0-2.07-3.5,4.33,4.33,0,0,1-1.76-5.34c1.16-2.77,0-5.22-3-6.26-2.51-.88-3.67-3.26-3.34-5.94.14-1.09-.27-2.93-1-3.3-2.14-1.11-2.56-3.07-3.3-4.92-1.16-2.93-1.16-3,1.65-4.31,1.16-.56,2.12-1.68,3.81-.92a3.79,3.79,0,0,0,5.56-3.36A4,4,0,0,1,377,485a20.56,20.56,0,0,0,2.4-2.08,4.1,4.1,0,0,1,3.26-1.45,3.29,3.29,0,0,0,3.42-3.6,5,5,0,0,1,1.53-3.68c.85-.93,1.52-2,2.39-2.92a4.3,4.3,0,0,1,1.9-1.18,3.49,3.49,0,0,0,2.87-3.91c-.08-3.12,1.89-5.41,3.9-7.2a6.72,6.72,0,0,0,2.51-4.18,8.65,8.65,0,0,1,.64-2.46c9.3-18.14,15.11-37.42,18.79-57.39.94-5.13,1.68-10.3,2.52-15.46a12.65,12.65,0,0,1,.73,3.08c.68,4.79,1.23,9.6,2,14.36.75,4.5,1.7,9,2.71,13.43a2.77,2.77,0,0,0,1.74,1.79c.49.11,1.49-.79,1.82-1.46a46.82,46.82,0,0,0,2.5-6c1.06-3.24,1.94-6.54,3-10.11,0,.58.08.84.07,1.11-.36,12.91-.71,25.82-1.13,38.73a3.39,3.39,0,0,1-1,1.79c-1.2,1.4-1.52,3.12-.28,4.06,1.5,1.13,1.24,2.51,1.1,3.91-.11,1.12-.45,2.2-.67,3.31-.3,1.54-.81,2.79-2.79,2.62-.39,0-.84.62-1.26,1a9.58,9.58,0,0,0,1.05,1,2.84,2.84,0,0,0,.8.32v4.11l2.39-.6c0,2,0,4.2,0,6.38a36.13,36.13,0,0,0-.1,4.76c.08.66,1.05,1.22,1.61,1.82.51-.58,1.31-1.1,1.46-1.76a14.53,14.53,0,0,0,.09-3.37v-7.89l2.78.32v-4l1.41-2.09-3.4-1.51c-.45-2.56-1.33-5.53.52-8.61.51-.85.14-2.31,0-3.46-.14-1-.85-1.91-.85-2.86.06-13.85.19-27.7.31-41.55,0-3.45,0-6.89.14-10.34.48-14.43,1.29-28.86,1.39-43.3.08-11.91-.65-23.82-1-36,2.11-.19,2.81-1.56,2.78-3.78s1-3,3.21-2.07c1.47.57,2.81,1.48,4.23,2.17,2,1,4-.14,3.62-2.17-1-4.62-2.74-8.9-7.55-10.7-2.23-.83-3.43-1.84-3.74-4.27a4.49,4.49,0,0,1,.54-3.29,21.55,21.55,0,0,0,2-4.52c3.22-10,2.95-20.3,1.61-30.52-.79-6.08-2.59-12-3.91-18-1.55-7.1-2-14.2.84-21.09.85-2.08.34-3.37-1.26-4.64-4.64-3.67-12.84-3.73-17.57-.25-1.72,1.27-2,2.58-1.11,4.42,3.82,7.85,3.75,15.94,1.58,24.23-2.11,8.07-4.28,16.14-5.86,24.32-1.52,7.85-1.86,15.82,1,23.55.75,2.05,2.27,3.94.37,6.12-.11.13-.07.39-.1.58-.46,3.2-1.33,3.59-4.08,1.73a20.78,20.78,0,0,1-2-1.9c-.41-.36-1-1-1.33-.87a2.32,2.32,0,0,0-1.22,1.33c-1.56,4.94,2,12.21,6.93,13.92,1.08.38,1.3.94,1.5,2a17.89,17.89,0,0,0,1.36,3.34,5.34,5.34,0,0,1,.77,2.14c-.69,8.91-1.77,17.8-2.14,26.73-.32,7.66.27,15.35.21,23a233.52,233.52,0,0,1-3.16,35c-3.36,21.06-9.14,41.37-18.69,60.51-.49,1-1.59,1.66-2.21,2.6a26.57,26.57,0,0,0-1.9,3.72c-.22.51,0,1.29-.25,1.7-1.6,2.23-3.32,4.36-4.95,6.55-.51.68-.83,1.48-1.31,2.18-1.58,2.32-3.18,4.64-4.83,6.92-.17.24-.71.25-1.09.3-2.54.32-3.7,1.55-4.1,4a5.07,5.07,0,0,1-1.15,2.33,30.42,30.42,0,0,1-2.64,2.42,3.24,3.24,0,0,1-3,1,3.35,3.35,0,0,0-3.93,2.37c-.81,3.19-3.56,3.51-6,4.89-.41-1.14-.76-2.05-1.08-3a453.86,453.86,0,0,1-12.75-44.28c-5.12-21.56-8.64-43.4-11.61-65.34a96.74,96.74,0,0,1-1-15c.16-7.14,1.24-14.27,1.4-21.41a275.39,275.39,0,0,0-2.46-39.44,3.67,3.67,0,0,1,.49-1.71c.55-1.2,1.13-2.39,1.76-3.55.36-.66.71-1.59,1.29-1.83,4.94-2,8.43-8.53,7.14-13.71a6.31,6.31,0,0,0-1.13-1.72c-.55.38-1.09.77-1.65,1.14a45.21,45.21,0,0,1-4.09,2.64c-.31.16-1.5-.44-1.55-.8-.44-3-2.39-6.07.19-9a.53.53,0,0,0,.06-.19c2.49-7.31,2.28-14.83.87-22.21-1.66-8.64-4-17.15-6.14-25.7-1.74-7-2.06-13.87.51-20.71a26.86,26.86,0,0,0,1.52-3.88,3.28,3.28,0,0,0-.6-2.61c-4.52-4.5-14.17-4.49-18.87-.15a3,3,0,0,0-.89,3.89A26.64,26.64,0,0,1,315,216a96.67,96.67,0,0,1-2.87,15.21,84.11,84.11,0,0,0-2.47,30.92c.44,4.86,1.4,9.73,3.91,14.08.68,1.18.69,5.28-.12,6.31a1.93,1.93,0,0,1-1,.55c-5.53,1.4-8,5.51-9.3,10.6-.21.88,0,2.51.54,2.79a4.92,4.92,0,0,0,3.28,0,25,25,0,0,0,3.16-1.64c2.83-1.26,3.81-.69,3.9,2.34,0,1.56.43,2.66,2.12,3.12.41.12.85,1,.84,1.59,0,1.38-.44,2.75-.46,4.14-.26,13.9-.62,27.81-.62,41.72,0,9.21.36,18.43.94,27.61.28,4.48.72,8.89.22,13.4a98.28,98.28,0,0,0-.21,11.52q.15,38.86.34,77.74v2.27l-.51.18c-1.63-1.79-3.35-3.51-4.85-5.4a5.15,5.15,0,0,1-.95-2.81c-.11-2.24-1.38-4.44-3.44-4.79a3.79,3.79,0,0,1-2.81-2.18c-.67-1.14-1.43-2.24-2-3.41a2.94,2.94,0,0,1-.34-1.84c.49-2-.42-3.11-2-4.08a5.93,5.93,0,0,1-1.84-1.89,30.91,30.91,0,0,1-1.82-3.75c-.65-1.48-1.47-2.86-1-4.7.19-.72-.72-1.8-1.25-2.63s-1.45-1.38-1.72-2.21c-2.37-7.24-4.53-14.54-6.94-21.77-2.06-6.16-3.12-12.36-1.78-18.83a10.52,10.52,0,0,0,.11-2.18,313.35,313.35,0,0,0-2.5-39.44c-.07-.57.05-1.48.41-1.72,1.42-.92,1.63-2.27,1.88-3.75a2.66,2.66,0,0,1,1.33-1.77c4.86-1.93,8.38-8.65,7-13.76a2.8,2.8,0,0,0-1.22-1.59c-.24-.14-1,.61-1.46,1a41.24,41.24,0,0,1-4,2.72,1.93,1.93,0,0,1-1.7-.83c-.7-3.06-2.16-6.21.27-9.2,0,0,0-.12.06-.18,2.44-7.54,2.15-15.24.65-22.81-1.65-8.31-3.9-16.5-6-24.72-1.71-6.83-2.11-13.61.32-20.35a33.5,33.5,0,0,0,1.64-4.25,3.5,3.5,0,0,0-.62-2.78c-4.55-4.43-14-4.43-18.73-.17a3.1,3.1,0,0,0-.93,4,26,26,0,0,1,2,13.62,85.16,85.16,0,0,1-2.79,15.22c-2.88,9.77-3.4,19.7-2.78,29.72.35,5.55,1.4,11,4.23,16,.57,1,.45,5.29-.29,6.15a1.79,1.79,0,0,1-.85.45c-5.53,1.35-8.11,5.4-9.4,10.5-.24.93,0,2.59.57,3a4.57,4.57,0,0,0,3.27-.08c1.49-.49,2.81-1.49,4.3-2,1.78-.6,2.64,0,2.65,1.78,0,2.29.39,4.11,3,4.25-.27,5.54-.54,10.83-.78,16.11-.84,18.35-.53,36.71.43,55a119,119,0,0,0,6.45,33.26,21.23,21.23,0,0,0,1.83,4c.39.65,1.36,1.54,1.83,1.42.7-.18,1.34-1.09,1.74-1.83a8.61,8.61,0,0,0,.69-2.48,376.78,376.78,0,0,0,6-43.48c0-.54.12-1.07.24-2.15.3.93.44,1.29.54,1.67q3.34,12.35,6.68,24.72a3,3,0,0,1,.12,1.54,3,3,0,0,0,1.3,3.61,4.58,4.58,0,0,1,1.14,1.53c.72,1.49,1.3,3,2,4.53s1.5,3.16.93,5.09c-.37,1.29.51,2.15,1.68,2.82a9.11,9.11,0,0,1,2.55,2.16c.79,1,1.28,2.16,2,3.19a4.45,4.45,0,0,1,.9,3.67c-.48,2.52,1.11,4.29,3.65,4.72a4.52,4.52,0,0,1,2.29,1.21c2.49,2.47,4.93,5,7.26,7.61a4.93,4.93,0,0,1,1.31,2.85q.22,13.23.19,26.44a4.72,4.72,0,0,1-.94,2.61,4.69,4.69,0,0,0,.05,6,5.53,5.53,0,0,1,1,2.59,29.59,29.59,0,0,1,.06,3.77,6.42,6.42,0,0,1-1.09,4.47c-1,1.35-.78,3,.35,4.41a4.22,4.22,0,0,1,.77,2.1,19.39,19.39,0,0,1,.06,4.17,6.33,6.33,0,0,1-1.07,2.92,4.72,4.72,0,0,0,.7,6.83,3,3,0,0,1,1,1.93c.15,2.38.11,4.77.13,7.16,0,1.2.5,2.31,1.78,2.06a2.81,2.81,0,0,0,1.51-2.06c.19-2.24-.07-4.51.11-6.75a5.53,5.53,0,0,1,1.24-3.07c2.31-2.64,2.21-5.32-.48-7.27-.16-.12-.42-.27-.41-.39.17-2.58,0-5.26.7-7.7.48-1.7,1.52-3.31.2-4.76A4.37,4.37,0,0,1,321.9,530a32.32,32.32,0,0,1-.08-4.17,8.81,8.81,0,0,1,1.07-3.38,4.52,4.52,0,0,0-.2-5.17,5.48,5.48,0,0,1-1-2.81c-.21-7-.31-14.05-.44-21.07,0-1.29,0-2.59,0-4.17,1.84,1.11,3.48,2.05,5.07,3.08a2.41,2.41,0,0,1,.68,1.15c1.24,3.08,3.88,4.22,6.91,3,2-.81,5.65.21,6.83,1.89,2.32,3.3,6.77,3.65,8.65.51a3.6,3.6,0,0,1,3.12-1.92,23.61,23.61,0,0,0,2.35-.42c1.59-.31,3.6-1.34,4.66-.73s1.4,2.85,1.95,4.41a4.37,4.37,0,0,1,.41,2.41c-.87,2.9-.69,3.56,1.86,4.91a5.33,5.33,0,0,1,2,5.91,4.55,4.55,0,0,0,3,6.42A5.08,5.08,0,0,1,372.11,525.54ZM482.29,410.78c-.1,10-.33,20-.48,30,0,2.48,0,5,0,7.46l-.85,0c-.33-2.88-.73-5.75-1-8.64-.83-9.23-1.37-18.49-2.46-27.68-1.75-14.76-.87-29.48-.06-44.22a3.4,3.4,0,0,1,.52-1.5c.93.17,2.25.22,2.66.83a9.12,9.12,0,0,1,1.79,4.49C482.49,384.57,482.41,397.67,482.29,410.78Zm2.94,47.42-.56.06a9.68,9.68,0,0,1-.22-1.58c.42-15.55.95-31.1,1.26-46.65.26-12.77.26-25.55.36-38.33a9.26,9.26,0,0,0-.16-1.38c-.85-5.2-3-7.09-8.2-7.08a4.77,4.77,0,0,1-.15-.92c0-.79.09-1.57.15-2.58h11.54C491.22,392.64,493.31,425.62,485.23,458.2Zm-4.61-200.55c2.91-2.11,9.89-1.39,12.19,1-2.69-.12-5.52-.34-8.36-.32-1,0-2,.65-3,.88-.39.08-.86-.19-1.29-.3C480.3,258.48,480.32,257.87,480.62,257.65Zm10.57,8.3a29.49,29.49,0,0,0-.45,3.72c0,1.66-.79,2.25-2.31,2.18h-.79c-4.21-.17-4.19-.17-4.9-4.25a25.07,25.07,0,0,0-.91-3.85c-.5-1.41,0-2,1.35-2.09l3.15-.3v.06c.33,0,.66,0,1,0C491.21,261.59,491.68,262.14,491.19,266Zm-16.43,53.71a92.18,92.18,0,0,1,1.82-14.54c1.49-7,3.61-13.84,5.3-20.79.76-3.13,1.13-6.35,1.68-9.54,2.58-.18,2.59,0,2.48,2.46-.28,6.88-.43,13.77-.63,20.66,0,.77,0,1.55,0,2.32l-.71.21a12.25,12.25,0,0,1-.71-2.06,16.28,16.28,0,0,1,0-2.53c-2.59,1.57-2.64,5.88-.24,8.12,1.9,1.78,1.9,1.85,0,3.56-2.67,2.4-2.59,5.25.22,7.33,1.68,1.24,1.57,4.7-.18,5.88-2.57,1.72-2.95,5.45-.57,7.27.45-3.84,1.48-5.15,3.66-4.83,1.89.27,2.57,1.84,2.12,4.87,2-.19,3.18-2.88,2.23-5.18a3.2,3.2,0,0,0-1.11-1.6,3.54,3.54,0,0,1-1.75-4,5.13,5.13,0,0,1,.94-2.57c2.15-2.45,2.13-5.26-.23-7.58-1.33-1.31-1.25-2.05.3-3a6,6,0,0,0,2.49-6.57,9.64,9.64,0,0,0-1.24-1.92c-1.45,1.52.23,3.92-2.24,4.73a12,12,0,0,1-.22-1.53c-.06-7.36-.07-14.71-.19-22.06,0-2,1.3-1.51,2.6-1.67.44,2.37.81,4.7,1.33,7,1.45,6.52,3.49,13,4.31,19.56,1.11,8.94,1.18,18-1.28,26.84-.27.95-.51,1.92-.75,2.88-.74,3-2.25,4.95-5.72,4.84-2.83-.08-5.67.12-8.51.24a2.09,2.09,0,0,1-2.26-1.46A32.1,32.1,0,0,1,474.76,319.66Zm-2.58,29.39a5.36,5.36,0,0,1-3.31-4.53,41.57,41.57,0,0,0,4.88.45c1.83,0,2.85-1,2.82-3,0-2.51.1-2.4,2.71-2.41,3.69,0,7.38-.22,11.07-.36.64,0,1.27-.13,2.32-.25-.9,4.19,1.56,5.45,4.78,6.38,2.25.64,3.61,2.52,4.66,5.06-1.18-.31-2-.56-2.92-.75-3.76-.83-6.3.9-7.05,4.66-.1.49-.71,1.2-1.12,1.24-4.41.36-8.82.66-13.24.81-.52,0-1.45-.92-1.54-1.52C475.83,352.16,475,350.1,472.18,349.05ZM429.35,363.7c-.35,6.93-.09,13.89-.1,20.84,0,2.39,0,4.79,0,7.18l-.79,0c-.13-.82-.3-1.63-.37-2.46-1-11.93-1.73-23.9-3.15-35.79a162,162,0,0,1-1-23c.15-6.55.61-13.1.89-19.64,0-1.16.56-1.66,1.6-1.26.76.28,1.75.72,2,1.36a14.11,14.11,0,0,1,1.41,4.86C430.51,331.81,430.16,347.75,429.35,363.7Zm8.87-6.7c-.53,8.38-.87,16.8-1.77,25.15-.6,5.57-2,11.06-3.1,16.59-.21,1.07-.6,2.1-.9,3.15l-.48,0c0-.82-.14-1.64-.11-2.45.55-18.93,1.2-37.85,1.63-56.78.21-9.13,0-18.27,0-27.41,0-.26,0-.52-.05-.79-.57-5.4-3-7.65-8.3-7.67v-3.51h11.31a35.42,35.42,0,0,1,.65,4.33C437.59,324,439.25,340.49,438.22,357ZM428.06,201.15c2.93-2.1,9.91-1.38,12.16,1-2.67-.12-5.51-.33-8.35-.31-1,0-2,.65-3,.88-.39.08-.86-.2-1.29-.31C427.73,202,427.75,201.37,428.06,201.15Zm10.81,6.24c-.16,2.17-.51,4.32-.78,6.48,0,.2,0,.54-.1.56-1,.34-2,1-3,.85-1.49-.19-3.69.62-4.31-1.35a69.44,69.44,0,0,1-1.64-8.31c3-.89,6.05-1.18,9,.08A2.05,2.05,0,0,1,438.87,207.39ZM422.51,256.5c.61-5,2.09-9.83,3.16-14.74,1.71-7.81,4.88-15.29,5-23.38,2.71-.37,2.85-.13,2.76,2.28-.28,7-.43,13.9-.64,20.85,0,.76-.07,1.53-.13,2.75-1.9-1.56-1.05-3.31-1.24-4.79l-.59-.26a10.78,10.78,0,0,0-1.41,3,5.62,5.62,0,0,0,2.17,5.64c1.39,1,1.14,1.85,0,2.85-3.34,2.9-3.31,5.15.06,7.89,1.27,1,1.08,4.63-.3,5.56a4.78,4.78,0,0,0-2.23,5.44,13.8,13.8,0,0,0,1.28,2.5c.86-4.48,1.83-5.7,3.86-5.39s2.6,1.94,2.05,4.89c2-.15,3.23-2.82,2.32-5.14a3.07,3.07,0,0,0-1.09-1.6c-2.21-1.14-1.85-3.15-1.83-5a2.86,2.86,0,0,1,.87-1.62c2.23-2.39,2.22-5.29-.08-7.56-1.4-1.39-1.33-2.06.36-3.14a6.09,6.09,0,0,0,2.29-6.82,6.41,6.41,0,0,0-1.23-1.46l-.52.21a13.23,13.23,0,0,1-.15,2.45,10.14,10.14,0,0,1-1,2l-.55-.19a12.19,12.19,0,0,1-.17-1.48c-.07-7.35-.07-14.7-.19-22,0-2,1.3-1.52,2.62-1.64.39,2.14.69,4.28,1.18,6.38,1.38,5.93,3.31,11.77,4.17,17.77,1.53,10.68,1.49,21.39-1.67,31.88-1.24,4.12-1.7,4.65-5.95,5a75.45,75.45,0,0,1-8.51.21,2.81,2.81,0,0,1-2-1.36C421.82,271.47,421.58,264,422.51,256.5Zm-1.88,36.72c-2.5-1.37-3.7-2.6-4.3-5.22a38.66,38.66,0,0,0,4.79.48c1.79,0,2.88-.9,2.86-3,0-2.57.11-2.49,2.67-2.45a106.35,106.35,0,0,0,13-.45c.1.08.28.17.28.26-.06,3,.85,5,4.28,5.66a7.06,7.06,0,0,1,5.1,4.84c-2.26,0-4.54-.39-6.6.1-2.39.57-3.19,2.77-3.14,5.51-2.56.33-5.08.69-7.61,1-1.11.12-2.24,0-3.37,0-4.33,0-4.22,0-5.53-4A5.56,5.56,0,0,0,420.63,293.22Zm-144.17-37.5a1.26,1.26,0,0,1,.41,1.1c-.09.28-.77.65-1,.55a14.69,14.69,0,0,0-11.87-.2C266.38,254.31,273.68,253.57,276.46,255.72Zm-1.88,8.35c-.18.77-.23,1.57-.44,2.33-.3,1-.53,2.75-1.07,2.86a26.48,26.48,0,0,1-6.05.3c-.24,0-.58-.92-.66-1.45-.31-1.88-.4-3.81-.8-5.67-.32-1.51.18-2.29,1.6-2.56,1.22-.23,2.46-.39,3.69-.59C275.62,259.53,275.62,259.52,274.58,264.07Zm-14.42,47.45a91.76,91.76,0,0,1,4-27.21c1-3.6,1.6-7.34,2.37-11C269,273,269,273,269,275.51q-.06,10.44-.13,20.87c0,.62-.07,1.25-.11,2-2.55-.85-1-3.17-2.23-4.84a8.54,8.54,0,0,0-1.36,1.84,6,6,0,0,0,2.54,6.72c1.43.89,1.52,1.71.33,2.91-2.45,2.46-2.53,5.28-.24,7.68a4.65,4.65,0,0,1-.36,6.08c-2,1.64-2.56,3.82-1.4,6a8.8,8.8,0,0,0,1.6,1.7,27.07,27.07,0,0,1,.9-4.3c.19-.5,1.16-.9,1.82-1,2-.23,2.78.89,3.53,5a4.69,4.69,0,0,0-.66-7.41c-1.75-1.17-1.86-4.64-.19-5.87,2.84-2.1,2.94-4.91.27-7.32-2-1.79-2-1.83-.08-3.55,2.41-2.2,2.43-6.32-.05-8.18-.19,1.55-.37,3.06-.55,4.58l-.81,0a13.79,13.79,0,0,1-.22-1.57c-.26-7.54-.49-15.09-.75-22.63-.07-2.12,1.58-1.17,2.43-1.58.19.2.35.29.36.39.66,9.81,4.21,19,6.5,28.41,1.79,7.37,2.79,14.74,1.74,22.24-.44,3.11-1.65,6.11-2.51,9.15a2,2,0,0,1-2.34,1.63c-2.9-.15-5.81-.36-8.71-.28-3.2.08-4.65-1.69-5.39-4.45A74.94,74.94,0,0,1,260.16,311.52ZM271,369.72c0,13.1.19,26.21.38,39.31.08,5.16.44,10.32.57,15.48.25,9.66.42,19.32.61,29,0,1,0,1.91,0,2.86l-.66.07c-.42-1.69-.85-3.37-1.26-5.06-3.68-15.1-4.53-30.51-4.53-45.95,0-12.3.65-24.61,1.06-36.91.11-3.61.36-7.22.55-10.77,3.75,0,7.11,0,10.46.06.41,0,1,.65,1.15,1.11a9.2,9.2,0,0,1,.05,2.29C273.68,361.5,271,364,271,369.72Zm5.9,69c-.26,2.43-.59,4.85-.9,7.28,0,.09-.18.16-.52.44a41.65,41.65,0,0,1-.33-5.21c.85-14.38-.56-28.71-.86-43.07-.2-9.52.05-19.06.31-28.59a10.23,10.23,0,0,1,1.87-4.66c.35-.56,1.62-.67,2.49-.71.18,0,.57,1.17.6,1.82.35,6.28.81,12.56.91,18.85C280.76,402.91,278.83,420.81,276.92,438.72Zm.94-84.22c-3.88-.34-7.77-.53-11.64-.92a2.16,2.16,0,0,1-1.37-1.42c-.63-3.42-3.11-5.22-6.59-4.6-1,.17-1.9.43-3.16.73a7.29,7.29,0,0,1,5.49-5.4c3-.61,4-2.17,3.82-4.92a5.37,5.37,0,0,1,.24-1c2.72.32,5.26.77,7.82.86s5-.22,7.69-.36a12.61,12.61,0,0,1,.32,2.56c-.14,2.1,1,3,2.85,3a38.58,38.58,0,0,0,4.76-.43,5.68,5.68,0,0,1-3.75,4.79,4.68,4.68,0,0,0-3.28,4.47C280.93,354,279.89,354.68,277.86,354.5Zm39.22-154.75c3.62-1.92,7.38-2.45,11.25-.84.5.2.78,1,1.16,1.46-.6.07-1.27.36-1.77.17a13.67,13.67,0,0,0-9.31-.33c-.49.16-1,.33-1.5.46-.09,0-.22-.1-.45-.21C316.68,200.2,316.83,199.88,317.08,199.75ZM328,203.6c-.56,3-.77,5.88-1.76,8.47-.33.84-2.67,1.1-4.13,1.24-1,.1-2.81-.29-2.93-.78a55.27,55.27,0,0,1-1.1-7.83c0-.32.57-.88,1-1C322,202.49,325,202.86,328,203.6Zm-15.21,52.63a88.93,88.93,0,0,1,3.82-28,96,96,0,0,0,2.09-10.31c.18-.93.45-1.41,1.52-1.29s1.43.34,1.42,1.42c-.08,7.62-.11,15.24-.17,22.86a6.39,6.39,0,0,1-.21,1c-2.4-.84-1-3.11-2.15-4.86a9.59,9.59,0,0,0-1.37,2,6,6,0,0,0,2.57,6.54c1.46.89,1.56,1.69.37,2.89-2.55,2.57-2.6,5.23-.14,7.81,1.27,1.33,1,4.75-.47,6-2,1.65-2.58,3.79-1.42,6A9.14,9.14,0,0,0,320.2,270a27.45,27.45,0,0,1,.92-4.32c.19-.49,1.17-.89,1.83-1,2.15-.23,2.95.94,3.43,4.79,2.26-1.27,2.17-5.28-.15-7s-2.42-4.62,0-6.52c2.21-1.76,2.18-4.52-.07-6.71-2.07-2-2.07-2-.12-3.93,2.26-2.25,2.14-6.44-.24-7.91-.2,1.51-.41,3-.61,4.55l-.81-.05c-.06-.74-.14-1.48-.17-2.22q-.36-10.94-.71-21.85c-.05-1.5,0-1.58,2.65-1.66,1.17,11.92,5.78,22.94,7.86,34.53,1.55,8.59,1.59,17.13-1.9,25.39a2.41,2.41,0,0,1-2.65,1.81c-3.09-.19-6.19-.35-9.3-.38-2.4,0-3.61-1.34-4.25-3.42A65.33,65.33,0,0,1,312.76,256.23Zm4.67,39.54c-.81-3.78-3.29-5.46-7.09-4.61-.82.18-1.64.4-2.74.68a7.94,7.94,0,0,1,6-5.61c2.44-.53,3.38-1.71,3.31-4.05a4.87,4.87,0,0,1,.22-1.21h15.58a12.68,12.68,0,0,1,.34,2.51c-.13,2.07,1,3,2.81,3a42.81,42.81,0,0,0,4.77-.4,5.43,5.43,0,0,1-3.59,4.69,5,5,0,0,0-3.45,4.8c-.14,1.88-1,2.53-2.82,2.39-3.95-.31-7.91-.51-11.86-.89A2.12,2.12,0,0,1,317.43,295.77Zm10.31,87.76c-.18-10.72-.44-21.43-.53-32.15q-.16-19.26,0-38.52c0-1.51,1-3.12,1.87-4.45.37-.57,1.63-.67,2.5-.7.19,0,.57,1.18.61,1.83.33,5.88.77,11.76.88,17.65.34,19-1.7,37.8-3.73,56.63-.21,1.9-.46,3.81-.71,5.71,0,.11-.14.2-.22.3h-.66C327.74,387.73,327.77,385.63,327.74,383.53ZM318.79,357a436.93,436.93,0,0,1,.95-45.06c.23-3.61.38-7.22.57-10.63h11.53c.07,1.1.14,2.23.2,3.35-5.78.29-8.46,2.81-8.47,8.53,0,13.11.19,26.21.39,39.31.09,5.89.45,11.78.6,17.67.23,8.8.39,17.6.57,26.4,0,1.1,0,2.19,0,3.29l-.58.11c-.33-1.2-.71-2.4-1-3.62C320.48,383.46,319.29,370.31,318.79,357Zm31.5,136.38c-.41.07-1-.33-1.35-.64a5.22,5.22,0,0,0-6.75-.39,5.4,5.4,0,0,1-7-1.62c-1.25-2.1-2.84-2.67-5.21-2.25a4.94,4.94,0,0,1-3.09-.41c-6-3.38-5.9-3.42-6-10.26-.41-23.31-.91-46.62-1.33-69.93-.09-5.09,0-10.18,0-14.73,1,3.34,2.11,7.21,3.33,11.05a19.35,19.35,0,0,0,1.81,4.17,9.55,9.55,0,0,0,2.23,1.93,8.85,8.85,0,0,0,1.72-2.44,67,67,0,0,0,1.61-7.57c1-6.67,2-13.36,3-20a8.46,8.46,0,0,1,.56-2.14c5,38.44,11.85,76.47,24.56,113.7C355.55,492.42,352.93,493,350.29,493.42Zm39.38-236.26c2-.45,2.26-1.87,2.3-3.6.07-2.4.95-3,3.18-2.16,1.47.56,2.81,1.46,4.24,2.16,2,1,4.07-.1,3.65-2.11-.94-4.54-2.62-8.87-7.33-10.64-2.49-.93-3.87-2.16-3.95-4.75a6.78,6.78,0,0,1,.37-2.54c.66-1.72,1.65-3.33,2.21-5.08,3.17-10,2.92-20.17,1.57-30.33-.83-6.21-2.65-12.28-4-18.43-1.5-7-1.86-14,.91-20.71a3.49,3.49,0,0,0-1.24-4.64c-4.26-3.38-12.12-3.79-16.73-.83-2.94,1.88-3.09,2.43-1.67,5.66,2.17,4.94,3.54,10.1,2.57,15.47-1.13,6.24-2.75,12.39-4.15,18.58-1.71,7.55-3.91,15-4,22.86-.06,5.2.05,10.37,2.23,15.21.81,1.78,1.76,3.38.17,5.19-.19.21-.16.63-.2,1-.4,3-1.21,3.39-3.82,1.72a19.39,19.39,0,0,1-2.18-2c-.42-.37-1-1-1.32-.92a2.32,2.32,0,0,0-1.23,1.32c-1.62,4.83,2,12.26,6.87,14,1.07.37,1.3.92,1.54,1.93a20,20,0,0,0,1.68,3.58,3.33,3.33,0,0,1,.52,1.53c-.6,6.39-1.59,12.77-1.84,19.18-.37,9-.42,18-.2,27,.19,7.78,1.26,15.49.9,23.36C370,345,369.8,362,369.38,379c0,.75-.08,1.49-.12,2.24l-.66.27-2.73-3.64c-1.13,1.79-1,3.63.93,4.59,2.65,1.29,2.61,3.28,2.35,5.53a12.28,12.28,0,0,1-.74,3c-.81,2.1-1.88,4.1-2.58,6.24-.84,2.57-.2,3.78,1.9,5.23a2.92,2.92,0,0,1,1.11,2c.11,2.05,0,4.11-.07,6.16,0,1.07.24,2.08,1.56,2.11s1.56-1,1.59-2.06c.07-2.18.07-4.37.2-6.55a2.62,2.62,0,0,1,.73-1.67c2.34-2,2.78-3.32,1.43-6.22a19.72,19.72,0,0,1-1.92-11,5.14,5.14,0,0,1,1.27-2.14c.94-1.23,2-2.35,2.87-3.65.23-.34-.23-1.13-.37-1.72a6.67,6.67,0,0,0-1.64,1,22.19,22.19,0,0,0-1.77,2.54V341.5l.44.05c.73,4.37,1.43,8.75,2.21,13.11.62,3.45,1.27,6.9,2.09,10.31.2.84,1.09,1.51,1.67,2.25a8.44,8.44,0,0,0,2.11-1.79,22.51,22.51,0,0,0,1.93-4.34,130.31,130.31,0,0,0,6.41-35.87c.89-22.26,1.13-44.5-.62-66.73C388.93,258.05,389.34,257.23,389.67,257.16ZM377.3,155.93c4.09-1.86,8.07-1.33,11.91.82a.64.64,0,0,1,.25.29,2.77,2.77,0,0,1,.06.66c-4.2-1.7-8.33-1.86-12.37.25l-.7-.38C376.73,157,376.86,156.13,377.3,155.93Zm10.36,8.12c-.18,1.44-.44,2.88-.49,4.33s-.81,1.88-2,1.83a25.91,25.91,0,0,1-4.32-.42,2.11,2.11,0,0,1-1.22-1.39c-.54-2.11-.81-4.29-1.4-6.37-.39-1.39.1-1.82,1.32-1.95l3.14-.36v.08c.46,0,.93,0,1.39,0C387.6,160.05,388.08,160.62,387.66,164.05Zm-16.48,52.34a85.72,85.72,0,0,1,1.9-13.34c1.52-6.78,3.54-13.45,5.19-20.21.77-3.19,1.17-6.47,1.74-9.73,2.64,0,2.56,0,2.46,2.55-.27,7-.43,13.9-.64,20.86,0,.74-.07,1.49-.11,2.23l-.87.07c-.19-1.5-.38-3-.58-4.49-2.46,1.36-2.54,5.75-.14,8,1.93,1.82,1.93,1.82-.09,3.68-2.63,2.42-2.47,5.18.42,7.29,1.54,1.12,1.44,4.72-.15,5.75a4.66,4.66,0,0,0-.53,7.64c-.22-2.95.13-5.49,3.73-5,1.72.22,2.22,1.65,2,4.81,2-.37,3.08-2.92,2.2-5.13a3.06,3.06,0,0,0-1.09-1.61c-2.29-1.19-1.77-3.3-1.84-5.2a2.21,2.21,0,0,1,.71-1.28c2.47-2.59,2.47-5.34,0-7.84-1.3-1.29-1.2-2,.42-3a6,6,0,0,0,2.41-6.6,9.63,9.63,0,0,0-1.44-2c-.5,2-.86,3.49-1.23,5l-.9-.14v-25l2.21-.28c.83,3.9,1.38,7.7,2.45,11.36a91.54,91.54,0,0,1,3.92,27.42A74.93,74.93,0,0,1,390.53,230c-.78,3-2.42,4.66-5.74,4.56-2.7-.09-5.41.11-8.11.28-1.52.1-2.22-.6-2.8-1.91A34.92,34.92,0,0,1,371.18,216.39Zm7.41,94c-.09,9.93-.23,19.86-.33,29.79,0,2.2,0,4.4,0,6.6l-.82,0c-.18-1.33-.4-2.67-.53-4-1.3-14-2.91-28.06-3.75-42.13-.52-8.63.11-17.34.28-26,.05-2.71.21-5.42.41-8.13a10.48,10.48,0,0,1,.61-2.13c.91.31,2.21.35,2.63,1a8.4,8.4,0,0,1,1.73,4.3C378.85,283.27,378.71,296.84,378.59,310.41Zm8.65,3.68c-.62,13.21-1.72,26.3-4.79,39.18-.29,1.21-.64,2.4-1,3.6l-.54,0c0-1.88,0-3.77,0-5.66.18-9.07.34-18.13.57-27.2.37-15,.82-29.93,1.17-44.9.07-3-.1-6.09-.22-9.13a10.88,10.88,0,0,0-.42-2.54c-1.26-4.56-3.2-6-7.91-5.74v-3.5h11.31a32.83,32.83,0,0,1,.62,4.09C386.69,279.53,388,296.77,387.24,314.09Zm1.34-61.27a1.87,1.87,0,0,1-1.27,1.12c-4.34.35-8.69.65-13,.79-.54,0-1.27-.86-1.63-1.48a6.31,6.31,0,0,1-.46-2.12,3.94,3.94,0,0,0-2.64-3.17,6.28,6.28,0,0,1-4.21-4.85c2.06,0,4.13.35,6-.08,2.77-.61.9-3.52,2.17-5.25h15.24c.34,1.25.35,3.17,1.3,4.26s2.84,1.19,4.28,1.83c2,.87,3.14,2.5,4.22,4.85l-2.3-.56C391.92,247.06,389.67,248.46,388.58,252.82ZM215.76,693.36c-1.4-10-9.56-20.16-21.27-21.36V419.21c-2.75,1.41-4.22,2.82-4.16,6.05.26,12,.1,24,.1,36v214c12.67,2.35,21,8.55,21.92,22.27h4.51q57.15,0,114.29.06c3.25,0,4.51-2.28,6.52-3.77l-.18-.48Zm364.63-21.67V424.4c0-2.66-1.13-4.07-4.24-4.94,0,3.91,0,7.74,0,11.57,0,10.46.13,20.92.13,31.38q0,103.37,0,206.74a5,5,0,0,1,0,1.77c-.21.52-.75,1.22-1.22,1.28a20.53,20.53,0,0,0-11.16,5.24,25.74,25.74,0,0,0-8.77,16H432.94c2.43,3,4.9,4.52,8.59,4.22,4.41-.35,8.87-.09,13.3-.09H558.47c.94-13.84,9.42-20,21.92-22.29ZM191.23,76.25q0,118.2-.09,236.4c0,3.27,1.21,5,4.28,6.36V76.23C207.64,74,214,66.34,216.73,54.65H338.65c-2.41-2.88-4.85-4.46-8.56-4.15-4.34.36-8.73.08-13.1.08H213.16c-.95,13.84-9.43,20-21.93,22.28Zm385.85,0V318.83c3.5-1.41,4.11-2.28,4.11-5.53V72.85c-12.61-2.27-21-8.5-21.94-22.26h-3.93c-38,0-75.93,0-113.89-.1-3.51,0-5.35,1.84-7.88,4.22h122.3C558.33,66.87,564.74,73.34,577.08,76.21ZM415,76.16H355.58v49.55H415Zm-4.09,45.47H359.75V80.23h51.19ZM369.07,619.7c-1.88-.42-2.24,1.17-2.59,2.55q-1.58,6.36-3.17,12.72c-.9,3.58-1.8,7.15-2.83,11.22-.36-1-.56-1.58-.73-2.12-.76-2.4-1.39-4.84-2.34-7.16a3.32,3.32,0,0,0-2.2-1.82c-.65-.06-1.56,1-2.1,1.68a9.84,9.84,0,0,0-.94,2.39l-2.57,7c-.25-.75-.39-1-.46-1.37-.95-4.73-1.86-9.48-2.87-14.2-.59-2.78-1.24-5.56-2.07-8.27a2.35,2.35,0,0,0-1.88-1.25c-.5,0-1.17,1.08-1.3,1.76a8.25,8.25,0,0,0,.17,3q1.69,9.27,3.48,18.53c.65,3.38,1.29,6.77,2.16,10.09a3,3,0,0,0,2,2c.73.06,1.65-.94,2.3-1.65a5.57,5.57,0,0,0,.73-1.83c1-2.69,2-5.39,3.13-8.64,1.15,3.77,2.12,7,3.1,10.17.4,1.32.89,2.62,2.57,2.56s2-1.39,2.37-2.74q2.75-11.79,5.52-23.58c.59-2.51,1.17-5,1.75-7.54C370.63,621.69,371,620.12,369.07,619.7ZM245,538.43c-.37,4.19-2.58,6.53-6.15,7.94-2,.79-4.15,1.29-6.24,1.9-.61.18-1.25.29-1.88.44a56.63,56.63,0,0,0,5.44,1.58c5.27,1.5,9.09,4.3,9,10.45a3.06,3.06,0,0,0,.07.59c.69,4.26,1.4,8.52,2.1,12.78a1.12,1.12,0,0,0,.63-.83c.8-4.83,1.78-9.64,2.3-14.5a8,8,0,0,1,5.07-7,49.37,49.37,0,0,1,5.58-2c1.17-.37,2.39-.55,3.59-.81a8.35,8.35,0,0,0-2.12-.76c-2.62-.89-5.29-1.65-7.81-2.78s-3.89-3.27-4.26-6.22c-.65-5.22-1.64-10.41-2.48-15.62l-.51,0C246.55,528.54,245.45,533.46,245,538.43ZM487.88,150.7a21.73,21.73,0,0,0-.41-2.75l-2-12.49a1.89,1.89,0,0,0-.74,1.22c-.79,4.77-1.74,9.52-2.26,14.32a7.79,7.79,0,0,1-4.89,6.67,51.38,51.38,0,0,1-5.77,2.08c-1.11.35-2.27.52-3.41.77,0,.11,0,.22,0,.33a14.16,14.16,0,0,1,1.85.41c3,1.09,6,2.06,8.84,3.38a5.63,5.63,0,0,1,3.18,4.54c.37,2.62.79,5.24,1.21,7.85.48,3,1,5.95,1.49,8.92a3.1,3.1,0,0,0,.79-1.66c.68-4.25,1.66-8.48,1.95-12.76.32-4.8,3-7.3,7.11-8.74,2.36-.83,4.81-1.39,7.55-2.17-.83-.2-1.38-.31-1.93-.47-2.27-.68-4.61-1.21-6.8-2.1C490.36,156.73,488,154.58,487.88,150.7ZM410.26,655.08a7.3,7.3,0,0,0,2.64.5,13.19,13.19,0,0,0,.37-2.69c0-.52-.6-1-.9-1.52-1.72-3-3.44-5.93-4.78-8.22,2.1-3.41,4.29-6.13,5.57-9.22a10.79,10.79,0,0,0-3.65-13.12c-3.89-2.65-9.8-2.22-13.67,1.12a3.84,3.84,0,0,0-1.25,2.45c0,.44,1.16.94,2.06,1.61,0,.54,0,1.46,0,2.38q.41,12.79.82,25.6c0,1.26.63,2.43,2,2.09a3.07,3.07,0,0,0,1.67-2.2,52.29,52.29,0,0,0,.16-6.14c0-2.85,0-2.85,2.78-3.23,1.52,2.83,3,5.63,4.53,8.4A5.77,5.77,0,0,0,410.26,655.08Zm-8.9-14.24c-.3-5.74-.6-11.43-.91-17.24,5.58-1.86,9.43,1.1,9.06,6.78A12.13,12.13,0,0,1,401.36,640.84Zm36.31-9.45c-.88-12.61-12-15.68-19.76-10.59-.71.47-1.07,1.49-1.6,2.26l2.11,1.34c.2,6.63.36,13.38.62,20.12.11,3,.3,6.09.66,9.1.25,2.06,1.67,2.77,3.39,2C431.48,651.89,438.3,640.6,437.67,631.39Zm-4.44,3.16a23.63,23.63,0,0,1-8.29,15.59,6.08,6.08,0,0,1-.77.47c-.54-9.43-1.06-18.6-1.59-27.86,2.77-1.41,6.8-.2,8.8,2.83A13.09,13.09,0,0,1,433.23,634.55Zm-99.6,3.74c-1.29-.93-2.7-1.69-3.94-2.68a61,61,0,0,1-5.2-4.56,2.71,2.71,0,0,1-.55-2.26c.54-1.76,3.42-3.51,5-3.31,2.1.26,3,1.34,3.66,4,.16.62.91,1.56,1.37,1.54a2.54,2.54,0,0,0,1.89-1.25,4.79,4.79,0,0,0,.22-2.69c-.6-3.46-4.6-6.43-8.27-6a10.19,10.19,0,0,0-8.39,6.2c-1.51,3.27.07,6,2.27,8.25,1.93,2,4.18,3.64,6.3,5.43,1.21,1,2.73,1.83,3.59,3.08,2.51,3.64,3.27,8-2.4,9.05a4.85,4.85,0,0,1-5.24-2.36c-1.14-1.64-2.69-2-3.86-1.07-1.42,1.19-1.1,2.59-.22,3.91a9.32,9.32,0,0,0,7.3,4.43c6.1,0,10.72-3.09,11.27-7.45C339.07,645.66,337.86,641.33,333.63,638.29Zm54.28,14.56c5.95-6.58,6.84-20.79,1.66-28a7.94,7.94,0,0,0-3.36-2.94c-5.12-1.77-8.95-.25-11.92,4.36a23.09,23.09,0,0,0-3.55,11.39c0,6.44.66,10.65,3.24,14.33C377.74,657.36,383.52,657.7,387.91,652.85Zm-10.38-24.53c1.17-2.2,2.85-4.74,5.39-4.24,1.67.33,3.36,2.69,4.2,4.53,1.15,2.51,1.5,5.4,2.27,8.43-.84,3.16-1.56,6.43-2.61,9.59a10.1,10.1,0,0,1-2.39,3.58c-2.16,2.27-5,2.18-6.48-.53a25,25,0,0,1-2.73-7.74A20.72,20.72,0,0,1,377.53,628.32Zm69.9,24c-2-.24-2-1.88-2.22-3.27s-.43-2.82-2.25-2.54a2.39,2.39,0,0,0-1.9,3.19c.84,3.56,2.64,6.83,7,6.37,5.44.18,8.63-3,9.17-9,.43-4.76-2-8.35-5.3-11.47a46.88,46.88,0,0,1-5.1-5.26,8.4,8.4,0,0,1-1.41-4,3,3,0,0,1,1.81-3.43,3.4,3.4,0,0,1,4.13,1.08,38.76,38.76,0,0,1,2.4,4.29,11.36,11.36,0,0,0,1.23,1.48c.32-.67.95-1.35.93-2A9.38,9.38,0,0,0,453.1,621c-3.37-3.21-9.1-2.2-10.81,2-1.22,3-1.38,6.16.49,9a66.1,66.1,0,0,0,4.85,6c1.21,1.4,2.68,2.59,3.77,4.07a7.6,7.6,0,0,1,.93,7.89C451.53,651.82,449.87,652.67,447.43,652.37Zm-33-593.21c2.61.7,4.27-.84,3.56-3.43a38.37,38.37,0,0,0-1.66-4.14c.8,0,1.46,0,2.09-.11,3-.47,6-.87,9-1.54,1.4-.32,2.78-1.21,2.77-3s-1.42-2.4-2.78-2.67c-3-.62-6.11-1.06-9.18-1.48a21.84,21.84,0,0,0-3,0c.79-1.92,1.61-3.59,2.15-5.34.44-1.41.56-3.23-1-3.83a4.54,4.54,0,0,0-3.79.5c-3.76,2.95-6.64,6.56-7.17,11.61C404.78,51,409.32,57.79,414.42,59.16Zm.18-22.77c-.24,4.34-2.36,7-6,7.5C409.06,41.44,412,37.68,414.6,36.39ZM427,46.57c-3.45,2.47-15.93,2.56-19.41.17C414.22,44.74,420.58,45.09,427,46.57ZM415.33,56.93c-3.3-1.15-5.32-3.46-7-6.34C413.11,50.42,415.05,53.35,415.33,56.93Zm75.18,582c-.11-2.66-2.85-3.07-4.94-3.48-2.84-.56-5.75-.77-8.76-1.15a16.36,16.36,0,0,0,1.46-3.55c.17-1.06.14-2.68-.5-3.2a4,4,0,0,0-3.42-.38,14.61,14.61,0,0,0-8.08,8.31,10.41,10.41,0,0,0-.67,4.06c.19,4.66,2.79,8.16,5.89,11.32a8.51,8.51,0,0,0,2.78,1.85c2,.8,3.81-.41,3.61-2.5a24.7,24.7,0,0,0-1.48-5.08,10.42,10.42,0,0,0-.8-1.54c3.45-.4,6.82-.59,10.1-1.22C487.7,642,490.64,641.86,490.51,639Zm-14.86-9.6c.54,3.27-2.55,6.07-6.74,6.12C470.43,632.37,473,630,475.65,629.36Zm-6.73,13c3.53-.15,5.72,2.4,6.15,7.31C472.74,648.64,470.16,645.53,468.92,642.38Zm-1.13-3.52a37.42,37.42,0,0,1,19.9.1C484.89,641.31,472.09,641.31,467.79,638.86ZM346.15,50.32c3.22.65,6.49,1,9.87,1.54a15.87,15.87,0,0,0-1.43,3.44c-.17,1.06-.15,2.68.48,3.21a3.88,3.88,0,0,0,3.4.4A14.74,14.74,0,0,0,367,49.53c1.73-5.59-2.92-12.45-6.87-15.4-1.19-.89-2.56-1.54-4-.56s-1.35,2.53-1,4a28.08,28.08,0,0,0,1.49,3.66c.22.51.5,1,.61,1.22-3.74.51-7.41.89-11,1.55-1.69.31-3.86.75-3.87,3S344.34,50,346.15,50.32ZM357,57c.71-3.9,2.21-6.41,7.14-6.45A13.17,13.17,0,0,1,357,57Zm7.15-13.16c-3.85-.26-5.9-2.69-6.38-7.76A18.72,18.72,0,0,1,364.11,43.83Zm.59,2.81c-2.65,2.43-15,2.49-19.25,0A36.45,36.45,0,0,1,364.7,46.64ZM285.43,638.72c0,2.19,2,2.68,3.67,3,3.68.68,7.41,1.09,10.92,1.58a43,43,0,0,0-1.89,6.47c-.31,2.17,1.65,3.42,3.69,2.56a6.58,6.58,0,0,0,2.59-1.75,41.08,41.08,0,0,0,4.73-6.55c4.14-7.88-2.24-15.35-8.06-17.44-2.52-.9-4.22.86-3.5,3.44a36.81,36.81,0,0,0,1.53,3.83c-3.38.52-6.72.92-10,1.6C287.37,635.79,285.43,636.54,285.43,638.72Zm15.63,10.87c-.18-4.2,2.37-7.36,6.19-7.75A19.74,19.74,0,0,1,301.06,649.59ZM307.11,635c-3.89.29-6.58-2-7-6C302.79,629.47,305.13,631.53,307.11,635Zm.65,3.68c-3.39,2.11-15.35,2.28-19.19.36C291.06,636.77,303.56,636.47,307.76,638.68ZM597.52,391.51a34.4,34.4,0,0,0-5.93-4.56c-8-4.75-15.5,1.06-18.16,7.3a3.7,3.7,0,0,0,.5,3.23c.53.61,2.05.68,3,.5a18.29,18.29,0,0,0,3.53-1.39c.62,3.58,1,7.13,1.93,10.55a4.89,4.89,0,0,0,2.9,3c1.81.47,2.36-1.46,2.91-2.87a8,8,0,0,0,.54-1.91c.41-3.32.77-6.65,1.16-10.08,1.25.59,2.52,1.29,3.86,1.81,2.41.93,4.29.7,5.07-.66C600,394.41,598.85,392.76,597.52,391.51Zm-21.68,4c.08-2.31,2.4-5,6.06-7C581.85,393.34,579.38,394.85,575.84,395.49Zm10.19,12c-2.56-3.11-2.8-15.63-.35-20C587.63,394.38,587.37,400.73,586,407.46Zm9.72-12.38a37.17,37.17,0,0,1-6-2.83c-.86-.6-1-2.26-1.44-3.44l.49-.32a19,19,0,0,1,7.32,5.89ZM182.89,407.84a3.53,3.53,0,0,0,2.48,2.28,3.73,3.73,0,0,0,2.69-2.09,28,28,0,0,0,1.52-6.12c.3-1.77.33-3.59.48-5.49a17.57,17.57,0,0,0,3.63,1.51c1.06.17,2.68.16,3.21-.47a3.9,3.9,0,0,0,.41-3.4,14.76,14.76,0,0,0-9-8.38,8.15,8.15,0,0,0-2.92-.49c-5.37.31-9.39,3.15-12.73,7.09-1,1.18-1.74,2.64-.7,4.17s2.66,1.39,4.13.92a48.18,48.18,0,0,0,4.56-1.9C181.36,399.59,182,403.76,182.89,407.84ZM189,388.43c2.88,1.68,5.2,3.7,6.33,7C192.13,395.3,188.75,393.35,189,388.43Zm-3.32-.94a38,38,0,0,1-.13,19.94C183.17,404.35,183.21,391.53,185.66,387.49Zm-11.17,7.23a19.44,19.44,0,0,1,7.81-6.36C181.8,392.31,179.1,394.52,174.49,394.72ZM357,688.91c-2.42-.52-4,1-3.37,3.34a40.62,40.62,0,0,0,1.73,4.4,15.2,15.2,0,0,0-2.15,0c-3,.47-6,.86-8.95,1.54-1.4.32-2.78,1.21-2.77,3s1.43,2.38,2.78,2.67c2.83.61,5.69,1.07,8.56,1.47a24.25,24.25,0,0,0,3.4,0,49.17,49.17,0,0,0-2,6.86c-.31,2.16,1.64,3.37,3.7,2.58a5.23,5.23,0,0,0,1.69-1c3.39-3.14,6.23-6.56,6.74-11.46C366.88,697.14,362,690,357,688.91Zm.37,23-.72-.36a38.82,38.82,0,0,1,2.9-6.14c.59-.84,2.28-.92,4-1.53A19.83,19.83,0,0,1,357.34,711.86Zm-12.71-10.5c3.09-2.22,15.57-2.39,19.1-.26C360.8,703.26,348,703.43,344.63,701.36Zm11.54-10.18c3.43,1.13,5.37,3.52,7.11,6.24C359.33,697.74,356.63,695.47,356.17,691.18Zm233.4-357.92a58.66,58.66,0,0,0-1.9-9.07c-.82-2.47-3.09-2.6-4.46-.36a12.8,12.8,0,0,0-1.57,4.44c-.46,2.57-.64,5.2-.95,7.93-1.09-.5-2.07-1-3.1-1.41-1.33-.48-3-1-3.77.44a5,5,0,0,0-.09,3.84,14.42,14.42,0,0,0,7.84,7.51,10.65,10.65,0,0,0,4.24.79c4.8-.17,8.4-2.86,11.62-6.11,1.91-1.92,2.34-3.84,1.44-5.11s-2.81-1.54-5.31-.54c-1.3.52-2.55,1.19-3.95,1.86A26.48,26.48,0,0,0,589.57,333.26Zm-13.89,4c3.33-.49,6.11,2.57,6.13,6.77C578.63,342.47,576.33,339.92,575.68,337.3Zm9.8,7.31c-2.16-3-2.1-15.48.09-19.07C587.67,328.41,587.61,341.2,585.48,344.61ZM596.32,338a19.57,19.57,0,0,1-7.7,6.27C588.81,340.44,591.72,338,596.32,338ZM184.13,347.2c5.24.54,12-4,13.41-9.06.74-2.69-.86-4.34-3.56-3.56a37.7,37.7,0,0,0-3.84,1.56c-.32-2.74-.5-5.42-1-8.06a12.21,12.21,0,0,0-1.64-4.39c-1.28-2-3.21-1.84-4.31.28a10,10,0,0,0-1.11,3.16c-.48,3.37-.81,6.76-1.19,10.09-1.57-.64-3.28-1.48-5.08-2-1.41-.43-3.23-.53-3.82,1.08a4.59,4.59,0,0,0,.53,3.78C175.49,343.79,179.08,346.68,184.13,347.2ZM195,337.15c-.06,2.3-2.35,5-6,7C189,339.28,191.45,337.78,195,337.15Zm-9.78-11.79c2.19,3.88,2.31,15.54.28,19.22C183.33,342.08,183.07,329.34,185.2,325.36Zm-2.94,18.9A19,19,0,0,1,174.6,338C178.77,337.87,181.89,340.4,182.26,344.26ZM425.49,697.82c-3.23-.64-6.5-1-9.88-1.55a15.62,15.62,0,0,0,1.42-3.45c.18-1.06.14-2.69-.5-3.21a4,4,0,0,0-3.41-.38,14.46,14.46,0,0,0-8,8.13,10.44,10.44,0,0,0-.75,4.24c.17,4.66,2.78,8.16,5.88,11.32a8.41,8.41,0,0,0,2.78,1.85c2,.8,3.81-.4,3.61-2.5a24,24,0,0,0-1.48-5.07,8.36,8.36,0,0,0-.76-1.46c3.8-.52,7.53-.9,11.21-1.59,1.67-.32,3.85-.81,3.71-3.15C429.2,698.87,427.25,698.17,425.49,697.82Zm-10.88-6.66c-.73,4.53-2.71,6.51-7.08,6.35C409.21,694.7,411.22,692.39,414.61,691.16Zm-7.16,13.06c4,.54,6.24,3.33,6.34,7.79A19.31,19.31,0,0,1,407.45,704.22Zm-.36-3.09c3.36-2.15,15.87-2,19.09.2C423,703.41,410.19,703.27,407.09,701.13ZM186.77,682.45a4.29,4.29,0,0,0-2.71,2.17c-.65,1.35.34,2.62,1.55,3.28,1.79,1,3.7,1.7,5.73,2.61a11.31,11.31,0,0,0-1.29,1.2c-2.25,2.91-4.58,5.77-6.62,8.83a3.34,3.34,0,0,0,0,3.21,3.88,3.88,0,0,0,3.38.58,20.38,20.38,0,0,0,5-2.8c1.69-1.19,3.2-2.62,4.84-4A14.69,14.69,0,0,0,198,701c.71,1,1.9,2.22,2.84,2.2s2.25-1.31,2.7-2.34a14.07,14.07,0,0,0,1-5c.17-3.47-.48-6.9-3.05-9.36C197.39,682.59,192.21,681.69,186.77,682.45Zm.41,3.16c1.82-1,5.42-.72,9.76.81C193.9,689,191,688.67,187.18,685.61Zm-1.51,16.46c.29-3.63,9.68-12.8,14.29-13.86A37.84,37.84,0,0,1,185.67,702.07Zm15.42-1.31c-2.68-2.48-2.49-5.86.55-9.71C202.41,694.5,202.54,697.62,201.09,700.76Zm384.18-3.93c-1.75-2.29-3.77-4.38-5.49-6.34a41,41,0,0,0,6-3.07c2.13-1.56,1.5-4-1-4.85-4.23-1.48-12.7.76-15.62,4.12s-3.85,10.61-1.61,14.65a3.9,3.9,0,0,0,2.66,1.89c.81,0,1.94-1,2.49-1.8a18.61,18.61,0,0,0,1.49-3.67c2.59,1.89,5.13,3.89,7.81,5.66a8.08,8.08,0,0,0,3.5,1.17,2.12,2.12,0,0,0,2.35-3.07A18.26,18.26,0,0,0,585.27,696.83ZM574,686l9.54-1.14.29,1.1a39.78,39.78,0,0,1-6.55,2.41c-1,.2-2.24-1-3.37-1.57Zm-4,14.65c-1.47-2-1.68-4.31-.81-9.47C572.82,694.59,572.05,697.89,570,700.62Zm1.36-12.69a36.31,36.31,0,0,1,14,13.57C580.83,700.49,572.2,692.13,571.32,687.93ZM186.86,52.06c1.62,2,3.43,3.81,5.18,5.72-1.52.59-3.15,1.09-4.66,1.84s-3.08,1.87-2.57,4c.46,1.88,2.18,2.31,3.77,2.28a38,38,0,0,0,7.06-.71c9.49-2,11.2-10.95,8.67-17.93a4,4,0,0,0-2.75-2.3c-.85-.08-2.07,1.14-2.72,2.06a16.54,16.54,0,0,0-1.41,3.71,29,29,0,0,0-2.65-2.39,44.86,44.86,0,0,0-6.44-4.22,4.82,4.82,0,0,0-4,.17c-1.4.86-.64,2.53,0,3.76A25.29,25.29,0,0,0,186.86,52.06Zm.92,10.83c3.05-3.21,7.11-3.65,9.92-1.16A19.59,19.59,0,0,1,187.78,62.89Zm14-15.61c1.55,3.27,1.4,6.39.65,9.62C199.36,53.81,199.08,50.58,201.81,47.28ZM200.26,60c-4.5-1.6-12.63-9.46-14-13.37C189.94,46.88,199.35,55.79,200.26,60Zm384,5.9c1.53-.11,3.09-.58,3.43-2.44s-.86-2.88-2.26-3.58c-1.63-.81-3.36-1.41-4.71-2,2.27-2.92,4.71-5.86,6.9-9,.95-1.34,2.1-3.14.54-4.69s-3.44-.74-4.94.24c-2.81,1.83-5.48,3.88-8.28,5.89a18.07,18.07,0,0,0-1.51-3.68c-.55-.83-1.71-1.82-2.52-1.76a3.73,3.73,0,0,0-2.59,2,16.36,16.36,0,0,0-1.18,5.37c-.21,3.53.5,7,3.14,9.51C574.12,65.44,579.06,66.24,584.22,65.85Zm.55-3c-3.62.73-6.78,0-10.13-1C577.7,59.19,580.68,59.48,584.77,62.8ZM586,46.49a31.77,31.77,0,0,1-13.82,13.28A29.93,29.93,0,0,1,586,46.49Zm-15.48.82c2.14,2.59,3.18,6.14-.58,9.67C569.21,53.67,569.05,50.53,570.56,47.31ZM378.41,57.2a2.85,2.85,0,0,0,2.29.39c.4-.14.44-1.3.63-2,.48-1.73.59-3.69,1.51-5.16,1.57-2.51,4-2.6,6.2-.6a6.54,6.54,0,0,1,2,5.93c-.07.61.19,1.66.6,1.84a2.35,2.35,0,0,0,2.12-.25,13.37,13.37,0,0,0,2.76-3.56,11.1,11.1,0,0,0-2-12.52,11,11,0,0,0-12.5-2.85A11.16,11.16,0,0,0,374.78,49C374.75,52.17,376.16,55.57,378.41,57.2Zm2.35-13.82a7.32,7.32,0,0,1,9.42-1c3.31,2.05,4.52,5.09,3.28,8.89-1.49-3.45-3.62-6.09-7.22-6s-5.86,2.42-7.15,5.77C377.78,48.72,378.51,45.51,380.76,43.38Zm10.33,647a8.32,8.32,0,0,0-.68,2.57c.2,3.19-2.35,6.74-5.07,6.85-2.28.1-4.83-3.11-4.89-6.14a5.5,5.5,0,0,0,.05-1c-.18-.76-.25-1.93-.72-2.14a2.61,2.61,0,0,0-2.25.53,9.8,9.8,0,0,0-3.55,6.67c0,6.71,3.39,11,8.58,12.44a11.22,11.22,0,0,0,12.85-5.42,11.08,11.08,0,0,0-1.6-13.2A8.72,8.72,0,0,0,391.09,690.33Zm-.46,14.56c-3.31,2.66-6.69,2.87-9.8.59a7,7,0,0,1-2.72-8.29c4.3,8.07,11.15,7.15,14.55,0A6.54,6.54,0,0,1,390.63,704.89ZM192.22,361.42c.58-.08,1.2.09,1.77,0s1.87-.23,2-.63a2.63,2.63,0,0,0-.44-2.26,12.21,12.21,0,0,0-3.43-2.6,11.12,11.12,0,0,0-12.52,2,11.67,11.67,0,0,0-2.87,12.56c1.78,4.38,5.95,7.21,11.77,7.23a9.87,9.87,0,0,0,7.12-3.68,2.46,2.46,0,0,0,.43-2.11c-.22-.47-1.25-.58-1.95-.78-.23-.07-.51.09-.78.1-3,.17-6.32-2.31-6.54-4.94C186.62,364.27,189.29,361.82,192.22,361.42Zm-2.88,12.13a6.56,6.56,0,0,1-7.58-1.85c-2.69-3.18-3-6.7-.83-9.8a7,7,0,0,1,8.42-2.9C181.06,363.46,182.43,370.3,189.34,373.55Zm391.95-3.33a24.6,24.6,0,0,1-4.35,1c-.76.18-2.07.34-2.13.69a3.22,3.22,0,0,0,.64,2.43,9.68,9.68,0,0,0,6.6,3.41c7.24,0,12.08-4.36,12.8-10.26a11.61,11.61,0,0,0-8.77-12.31,10.51,10.51,0,0,0-10.8,3.3,2.73,2.73,0,0,0-.46,2.28c.13.4,1.28.5,2,.68a3.63,3.63,0,0,0,.78-.1c2.72-.1,5.73,1.87,6.39,4.19C584.35,366.88,583.1,369.42,581.29,370.22Zm.1-11.05c2.45-1.3,5.69-.5,7.82,1.85a7.35,7.35,0,0,1,.75,9.46,7,7,0,0,1-8.77,3.07c3.38-1.46,6-3.52,6-7S584.77,360.53,581.39,359.17ZM297.51,164.38c.42,3.85,1.25,7.66,2,12.08a15.43,15.43,0,0,0,.52-1.64c.57-3.53,1.22-7,1.62-10.6a5.61,5.61,0,0,1,3.35-4.8c1.91-.87,4-1.4,6-2.08l1.5-.55-1.26-.26c-7.47-1.51-8.74-2.8-10-10.23-.11-.58-.18-1.18-.27-1.76-.36-2.2-.72-4.38-1.08-6.57h-.42c-.65,3.82-1.47,7.62-1.88,11.46a6.08,6.08,0,0,1-4.1,5.34c-2,.84-4.18,1.43-6.33,2.15,2,.63,4.06,1.15,6,1.91A6.31,6.31,0,0,1,297.51,164.38ZM516,491.16a59.45,59.45,0,0,0-1-6.47c-.25-1.52-.52-3-.78-4.56l-.46,0c-.57,3.49-1.39,7-1.64,10.48-.29,4.06-2.65,6-6.12,7.08-1.48.48-3,.81-4.38,1.18,2.48,1,5,1.86,7.44,3a4.85,4.85,0,0,1,2.76,4.07c.56,4,1.29,8.05,2.05,12.65a11.44,11.44,0,0,0,.54-1.38c.56-3.53,1.24-7,1.61-10.59a5.88,5.88,0,0,1,3.69-5.2c2.16-.93,4.42-1.63,6.64-2.43-1.92-.61-4-1.12-5.88-1.89C517.82,496,516.13,494.24,516,491.16Zm8.7-256.69a6.18,6.18,0,0,1-4-5.43c-.4-3.74-1.16-7.44-1.76-11.15l-.46-.06c-.6,3.58-1.44,7.14-1.74,10.75-.32,3.83-2.66,5.56-5.84,6.68-1.51.53-3.1.88-4.66,1.31,2.26.8,4.47,1.48,6.59,2.37a5.85,5.85,0,0,1,3.76,5.14c.45,3.83,1.26,7.61,1.91,11.41a67.25,67.25,0,0,0,2.18-11.14,6.27,6.27,0,0,1,4.14-5.55c2-.84,4.15-1.47,6.15-2.16C528.87,235.94,526.7,235.35,524.66,234.47Zm-113,338.4c-2.85.06-5.05,2.61-5,5.82,0,3.42,2.79,6.41,5.83,6.34,2.67-.07,5.07-3.21,5-6.63S415.3,572.8,411.68,572.87Zm77.13-19c-2.77-.77-4.7-2.11-4.76-5.43a42.26,42.26,0,0,0-1.09-6.34,31.5,31.5,0,0,0-1.49,7c-.23,2.59-1.78,3.85-4,4.62-.91.32-1.86.52-3.22.89,1,.32,1.68.55,2.35.74,2.86.78,4.81,2.24,5,5.54a57.94,57.94,0,0,0,1,6.36,31.42,31.42,0,0,0,1.51-7A4.49,4.49,0,0,1,487,556c1.26-.54,2.58-.95,4.24-1.55C490.2,554.2,489.5,554,488.81,553.83Zm-207-345.06a48.22,48.22,0,0,0-1-6l-.43-.07c-.3,1.71-.7,3.42-.89,5.15-.46,4.33-1.58,5.69-5.79,6.79-.37.1-.75.18-1.36.31.44.26.6.42.78.45,4.27.67,6.48,3,6.45,7.49a22.92,22.92,0,0,0,.89,4.54,20.67,20.67,0,0,0,1.31-6c.1-3.62,2.28-5.08,5.36-5.84.53-.13,1-.37,1.85-.67-1-.28-1.65-.47-2.28-.63C283.81,213.6,281.94,212.08,281.82,208.77ZM394,571.36a3.69,3.69,0,0,0,3.7,3.58c2,0,3.34-1.68,3.34-4.08,0-2-1.05-3.16-3-3.15C395.73,567.73,394,569.26,394,571.36Zm27.73-.72a3.72,3.72,0,0,0,3.6,3.52,3.58,3.58,0,0,0,3.27-3.79,2.82,2.82,0,0,0-2.92-3C423.34,567.37,421.71,568.74,421.73,570.64Zm-60.48-92.29a2,2,0,0,0,2.14,2.32,2.87,2.87,0,0,0,2.94-2.85,2.28,2.28,0,0,0-2.22-2.34A2.72,2.72,0,0,0,361.25,478.35Zm26.47,83.71a2.29,2.29,0,0,0,2.16,2.64,2.21,2.21,0,0,0,2.44-2.25c.13-1.71-1-2.37-2.42-2.59C388.29,559.61,387.82,560.79,387.72,562.06Zm-205-127.38c-.81.05-1.56,1.05-2.34,1.63.27,1.9,1,2.76,2.39,2.79a1.75,1.75,0,0,0,2-1.88C184.81,435.8,184.24,434.58,182.75,434.68ZM588,439.1c1.39,0,2.15-.81,2.48-2.7-.75-.6-1.47-1.64-2.28-1.72-1.49-.16-2.1,1-2.14,2.46A1.75,1.75,0,0,0,588,439.1Zm2.42-12.91c-.76-.52-1.49-1.43-2.26-1.47-1.57-.08-2.05,1.21-2.06,2.58S586.78,429,588,429C589.53,429,590,428,590.37,426.19Zm-405.21.47c-.82-.68-1.55-1.75-2.46-1.92-1.26-.24-2,.76-1.9,2.14s.78,2.35,2.24,2.06c.76-.14,1.39-.89,2.08-1.37C185.13,427.27,185.15,427,185.16,426.66Zm-3.57-115.27a1.78,1.78,0,0,0,1.8,2.13c1.6.05,2.23-1.14,2.13-2.49-.06-.74-.81-1.43-1.05-1.83C182.28,309.15,181.67,310,181.59,311.39Zm405.32-.51a2.07,2.07,0,0,0,2,2.64,1.75,1.75,0,0,0,2-2c0-1.36-.51-2.3-2.72-2.4C587.83,309.52,587,310.15,586.91,310.88Zm-.8,136a1.69,1.69,0,0,0,1.83,2.2c.86-.05,1.66-1,2.49-1.52,0-.31,0-.62,0-.93-.79-.57-1.58-1.59-2.37-1.58S586.36,446.06,586.11,446.84ZM182.54,449a2.87,2.87,0,0,0,2.16-1.64,1.73,1.73,0,0,0-1.79-2.39c-.83,0-1.63.81-2.44,1.25,0,.29-.07.59-.11.89C181.08,447.76,181.75,448.88,182.54,449ZM371.9,472c-1,.19-1.84,1-3.27,1.84,1.06,1.05,1.56,2,2.22,2.12a1.91,1.91,0,0,0,2.43-1.92C373.28,473.34,372.24,472,371.9,472Zm66.83,230.79a1.84,1.84,0,0,0-1.89,2.25c.13.79,1,1.48,1.49,2.21l1,0c.49-.77,1.28-1.5,1.4-2.32A1.75,1.75,0,0,0,438.73,702.81Zm2.81-659.63c-.05-1.14-.6-2-2-2s-2,.55-2.36,2.29c.77.62,1.48,1.58,2.34,1.76C440.91,45.53,441.59,44.44,441.54,43.18ZM332.91,45.32a1.84,1.84,0,0,0,1.88-2.25c-.13-.8-1-1.48-1.5-2.21l-1,0c-.48.77-1.27,1.5-1.39,2.33A1.75,1.75,0,0,0,332.91,45.32ZM330.09,705a1.78,1.78,0,0,0,2,1.92c1.23-.06,2-.61,2.29-2.37-.78-.58-1.51-1.52-2.38-1.68C330.65,702.64,330,703.75,330.09,705ZM589,249.56a2.91,2.91,0,0,0-2.06,1.74,1.67,1.67,0,0,0,1.89,2.12c.82-.08,1.56-.92,2.34-1.42l0-.94C590.45,250.52,589.68,249.51,589,249.56ZM185.5,251.39a2.9,2.9,0,0,0-2-1.83c-.69-.09-1.51.89-2.27,1.4,0,.31,0,.62,0,.93.76.54,1.46,1.42,2.27,1.53A1.67,1.67,0,0,0,185.5,251.39Zm-2.66,376.48a1.71,1.71,0,0,0,1.94-2c0-1.34-.9-2.2-2.15-2-.81.15-1.47,1.07-2.2,1.64,0,.31,0,.62,0,.93C181.26,627,182,627.76,182.84,627.87Zm.71-388.3c-.82.13-1.54.93-2.3,1.43,0,.31,0,.63,0,.94.75.54,1.45,1.42,2.26,1.54,1.26.18,2.09-.71,2.07-2A1.69,1.69,0,0,0,183.55,239.57ZM590.36,625.39c-.77-.51-1.51-1.36-2.33-1.44a1.67,1.67,0,0,0-1.9,2.12,2.91,2.91,0,0,0,2.06,1.74c.69.06,1.46-.95,2.2-1.49ZM589,233.54c.81-.14,1.49-1,2.23-1.6l0-.93c-.78-.49-1.51-1.27-2.34-1.39a1.72,1.72,0,0,0-2,1.92A1.8,1.8,0,0,0,589,233.54Zm-.86,404.22c.69.08,1.51-.89,2.27-1.4,0-.31,0-.62,0-.93-.75-.54-1.45-1.42-2.26-1.54a1.67,1.67,0,0,0-2,2A2.92,2.92,0,0,0,588.1,637.76Zm-405.74,5.68a8,8,0,0,0-1.52,2.3c-.28,1.22.59,2,1.81,2.06s2.29-.67,2.07-2c-.13-.84-1-1.56-1.49-2.34Zm403.77,2.47a2.9,2.9,0,0,0,2,1.79c.69.07,1.49-.93,2.24-1.46,0-.31,0-.62,0-.93-.76-.52-1.49-1.38-2.3-1.48A1.67,1.67,0,0,0,586.13,645.91ZM184.78,665.76c0-1.34-.81-2.23-2.07-2-.81.11-1.51,1-2.27,1.54,0,.31,0,.62,0,.93.76.5,1.48,1.3,2.31,1.44A1.71,1.71,0,0,0,184.78,665.76Zm-1.34-446c-.7-.06-1.47.95-2.21,1.49l0,.94c.78.5,1.52,1.35,2.34,1.43a1.67,1.67,0,0,0,1.89-2.12A2.92,2.92,0,0,0,183.44,219.74Zm2.13-137.29c0-1.27-.77-2.1-1.94-1.94-.83.1-1.58.87-2.36,1.35l0,.93c.73.57,1.39,1.48,2.2,1.63C184.68,84.65,185.54,83.78,185.57,82.45Zm0,9.94a1.7,1.7,0,0,0-1.94-1.94c-.83.1-1.58.88-2.36,1.35,0,.31,0,.62,0,.93.73.57,1.39,1.48,2.2,1.63C184.68,94.59,185.54,93.73,185.57,92.39Zm401.36-.14a1.66,1.66,0,0,0,1.89,2.11c.82-.08,1.56-.92,2.34-1.42l0-.94c-.74-.54-1.51-1.55-2.21-1.5A2.91,2.91,0,0,0,586.93,92.25Zm-401.43,10a2.92,2.92,0,0,0-2-1.83c-.69-.08-1.51.89-2.28,1.4v.94c.75.53,1.46,1.41,2.27,1.52A1.66,1.66,0,0,0,185.5,102.27Zm403.31-1.88a1.7,1.7,0,0,0-2,1.92c0,1.35.88,2.21,2.12,2,.81-.13,1.48-1,2.22-1.6l0-.93C590.38,101.28,589.64,100.5,588.81,100.39Zm2.34,11.29c-.78-.47-1.53-1.25-2.36-1.35a1.7,1.7,0,0,0-1.94,1.94c0,1.34.89,2.2,2.14,2,.8-.15,1.47-1.06,2.2-1.62Zm-407.67,8.65c-.7-.07-1.49.92-2.24,1.44,0,.31,0,.62,0,.94.77.52,1.49,1.38,2.31,1.48a1.68,1.68,0,0,0,1.94-2.08A2.91,2.91,0,0,0,183.48,120.33Zm405.5,0a2.91,2.91,0,0,0-2.05,1.75,1.66,1.66,0,0,0,1.89,2.11c.82-.08,1.56-.92,2.34-1.42l0-.94C590.45,121.28,589.68,120.27,589,120.32ZM183.55,140.15c-.82.14-1.54.94-2.3,1.44v.94c.75.54,1.45,1.42,2.26,1.54,1.26.18,2.09-.71,2.07-2A1.71,1.71,0,0,0,183.55,140.15Zm405.6,10a1.62,1.62,0,0,0-2.22,1.72,2.93,2.93,0,0,0,1.74,2.1c.67.17,1.61-.72,2.43-1.15l.12-.91C590.53,151.28,589.94,150.36,589.15,150.13ZM183.57,160c-.83.13-1.55.92-2.32,1.42,0,.31,0,.62,0,.93.74.55,1.44,1.43,2.25,1.56,1.26.19,2.09-.7,2.08-2A1.7,1.7,0,0,0,183.57,160Zm-.1,10c-.69-.07-1.48.93-2.23,1.45v.94c.77.52,1.49,1.38,2.31,1.47a1.66,1.66,0,0,0,1.93-2.08A2.87,2.87,0,0,0,183.47,170Zm405.46,3.86c.82-.13,1.51-1,2.26-1.56l0-.93c-.77-.5-1.6-1.47-2.29-1.37a2.9,2.9,0,0,0-2,1.86A1.67,1.67,0,0,0,588.93,173.89ZM185.5,181.8a2.9,2.9,0,0,0-2-1.83c-.69-.08-1.5.9-2.27,1.41v.93c.76.53,1.46,1.41,2.28,1.52A1.66,1.66,0,0,0,185.5,181.8Zm403.41,2c.81-.11,1.51-1,2.27-1.53,0-.31,0-.62,0-.93-.76-.51-1.58-1.48-2.27-1.4a2.92,2.92,0,0,0-2,1.83A1.67,1.67,0,0,0,588.91,183.83Zm0,9.94c.81-.1,1.53-1,2.29-1.49,0-.31,0-.62,0-.94-.76-.52-1.56-1.5-2.25-1.43a2.9,2.9,0,0,0-2,1.8A1.67,1.67,0,0,0,588.88,193.77Zm-405.44,6.09c-.69-.06-1.47.95-2.21,1.49l0,.93c.78.51,1.52,1.36,2.34,1.43a1.66,1.66,0,0,0,1.89-2.11A2.86,2.86,0,0,0,183.44,199.86Zm405.54,0a2.91,2.91,0,0,0-2.05,1.75,1.66,1.66,0,0,0,1.89,2.11c.82-.08,1.56-.92,2.34-1.42l0-.94C590.45,200.81,589.68,199.8,589,199.85ZM183.56,299.21c-.83.14-1.54.93-2.31,1.43,0,.32,0,.63,0,.94.75.54,1.45,1.43,2.26,1.55,1.25.18,2.09-.7,2.07-2A1.71,1.71,0,0,0,183.56,299.21Zm-.85,205.45c-.81.12-1.51,1-2.27,1.54v.93c.77.5,1.48,1.31,2.31,1.44a1.71,1.71,0,0,0,2-1.87C184.79,505.36,184,504.47,182.71,504.66ZM586.05,457a1.71,1.71,0,0,0,2,1.87c.82-.14,1.54-.94,2.3-1.44v-.94c-.75-.54-1.45-1.42-2.26-1.54C586.87,454.77,586,455.65,586.05,457Zm-403.4,11.86c1.31.05,2.29-.69,2.07-2-.13-.84-1-1.56-1.5-2.33l-.86,0a7.82,7.82,0,0,0-1.52,2.31C180.57,468,181.44,468.8,182.65,468.86Zm405.46-.1c.69.08,1.51-.9,2.27-1.41v-.93c-.75-.53-1.46-1.42-2.27-1.53a1.67,1.67,0,0,0-2,2A2.92,2.92,0,0,0,588.11,468.76Zm-.08,6.07a1.67,1.67,0,0,0-1.9,2.12,2.9,2.9,0,0,0,2.06,1.75c.69.05,1.46-1,2.2-1.51l0-.93C589.59,475.76,588.84,474.91,588,474.83Zm-405.67,9.55a7.82,7.82,0,0,0-1.52,2.31c-.27,1.22.6,2,1.81,2.05s2.29-.67,2.07-2c-.13-.84-1-1.56-1.49-2.34Zm405.68.4a1.67,1.67,0,0,0-1.91,2.1,2.9,2.9,0,0,0,2,1.76c.69.06,1.47-.95,2.21-1.49l0-.94C589.59,485.7,588.85,484.86,588,484.78ZM182.73,607.94a2.92,2.92,0,0,0,2-1.85,1.67,1.67,0,0,0-2-2c-.81.11-1.51,1-2.26,1.54,0,.31,0,.62,0,.93C181.22,607.05,182,608,182.73,607.94Zm2-91.44c-.16-.83-1-1.53-1.56-2.29h-.87a7.85,7.85,0,0,0-1.45,2.35c-.24,1.24.67,2,1.87,2S185,517.82,184.72,516.5Zm403.35-1.9a1.67,1.67,0,0,0-1.94,2.07,2.9,2.9,0,0,0,2,1.79c.69.07,1.48-.92,2.23-1.44v-.94C589.61,515.56,588.88,514.69,588.07,514.6Zm-1.22-233.37c0,1.34.85,2.22,2.1,2,.81-.13,1.49-1,2.24-1.58l0-.93c-.77-.49-1.5-1.28-2.33-1.4A1.71,1.71,0,0,0,586.85,281.23ZM182.33,524.15a7.92,7.92,0,0,0-1.49,2.33c-.26,1.24.64,2,1.84,2s2.28-.72,2-2c-.15-.84-1-1.55-1.53-2.31Zm403.8,2.39a2.88,2.88,0,0,0,2,1.86c.68.1,1.52-.86,2.29-1.36l0-.93c-.75-.55-1.44-1.44-2.25-1.57A1.66,1.66,0,0,0,586.13,526.54Zm0,10a2.91,2.91,0,0,0,2,1.77c.69.07,1.48-.93,2.23-1.46,0-.32,0-.63,0-.94-.77-.51-1.5-1.37-2.32-1.46A1.67,1.67,0,0,0,586.13,536.57ZM183.6,283.24a1.66,1.66,0,0,0,1.89-2.11,2.89,2.89,0,0,0-2.05-1.75c-.69-.05-1.47,1-2.21,1.5l0,.93C182,282.32,182.78,283.16,183.6,283.24Zm-.93,261.18c-.81.13-1.49,1-2.23,1.59,0,.31,0,.62,0,.93.78.49,1.51,1.28,2.33,1.4a1.72,1.72,0,0,0,2-1.91C184.77,545.09,183.93,544.21,182.67,544.42Zm407.69,1.44c-.77-.51-1.51-1.36-2.33-1.44a1.67,1.67,0,0,0-1.9,2.12,2.91,2.91,0,0,0,2.06,1.74c.69.06,1.46-.95,2.2-1.49Zm-2.21,12.37c.69.06,1.49-.93,2.24-1.46l0-.93c-.77-.52-1.49-1.38-2.3-1.48a1.67,1.67,0,0,0-1.94,2.08A2.94,2.94,0,0,0,588.15,558.23Zm-407.67,8.64c.78.47,1.52,1.25,2.35,1.36a1.73,1.73,0,0,0,1.95-2c0-1.34-.9-2.2-2.15-2-.8.15-1.47,1.06-2.2,1.63Zm405.65-.47a2.91,2.91,0,0,0,2,1.77c.7.06,1.48-.94,2.23-1.47l0-.94c-.77-.51-1.5-1.36-2.32-1.45A1.66,1.66,0,0,0,586.13,566.4Zm2.85-297a2.91,2.91,0,0,0-2.05,1.75,1.66,1.66,0,0,0,1.89,2.11c.82-.08,1.56-.92,2.34-1.42l0-.94C590.45,270.4,589.67,269.39,589,269.44ZM182.36,583.79a8,8,0,0,0-1.52,2.31c-.27,1.21.59,2,1.81,2s2.29-.67,2.07-2c-.13-.84-1-1.56-1.5-2.34Zm.27,10.34c-.8.15-1.47,1.06-2.2,1.63l0,.93c.78.48,1.53,1.25,2.36,1.36a1.72,1.72,0,0,0,1.94-2A1.79,1.79,0,0,0,182.63,594.13ZM588.15,598c.69.07,1.48-.92,2.23-1.45,0-.31,0-.63,0-.94-.77-.52-1.49-1.38-2.3-1.47a1.67,1.67,0,0,0-1.94,2.08A2.91,2.91,0,0,0,588.15,598Zm-.1,9.94c.69.11,1.53-.84,2.31-1.33l0-.93c-.74-.56-1.41-1.46-2.22-1.6a1.66,1.66,0,0,0-2,2A2.88,2.88,0,0,0,588.05,607.93Zm0,10c.83-.12,1.57-.89,2.35-1.37l0-.93c-.73-.57-1.4-1.48-2.21-1.62-1.24-.22-2.11.64-2.13,2A1.71,1.71,0,0,0,588,617.93Zm.91-354.57c.81-.11,1.51-1,2.26-1.54,0-.31,0-.62,0-.93-.77-.51-1.59-1.47-2.28-1.39a2.94,2.94,0,0,0-2,1.84A1.67,1.67,0,0,0,588.92,263.36Zm-403.42-2a2.92,2.92,0,0,0-2-1.84c-.69-.09-1.52.88-2.28,1.39,0,.31,0,.62,0,.93.75.54,1.45,1.42,2.26,1.54A1.67,1.67,0,0,0,185.5,261.34ZM223.22,45.13c.7,0,1.48-1,2.22-1.5l0-.9c-.78-.49-1.52-1.31-2.34-1.41a1.65,1.65,0,0,0-1.9,2.08A2.84,2.84,0,0,0,223.22,45.13Zm9.34.45h.92c.52-.75,1.52-1.55,1.45-2.24a2.87,2.87,0,0,0-1.8-2,1.66,1.66,0,0,0-2,1.95C231.19,44.1,232,44.82,232.56,45.58Zm9.84,0,.93,0c.56-.73,1.59-1.49,1.55-2.19a2.93,2.93,0,0,0-1.73-2.07A1.66,1.66,0,0,0,241,43.21C241.1,44,241.92,44.78,242.4,45.56ZM586.85,82.39c0,1.34.82,2.22,2.08,2,.81-.12,1.5-1,2.25-1.55,0-.32,0-.63,0-.94-.77-.5-1.49-1.3-2.32-1.43A1.71,1.71,0,0,0,586.85,82.39Zm-37.57-37.2c.83-.1,1.57-.9,2.35-1.39,0-.29,0-.58,0-.87-.74-.56-1.51-1.59-2.22-1.55a2.84,2.84,0,0,0-2.05,1.72A1.62,1.62,0,0,0,549.28,45.19Zm-276.38,0c.7,0,1.49-.94,2.24-1.48,0-.29,0-.59,0-.89-.77-.51-1.49-1.34-2.32-1.45a1.65,1.65,0,0,0-1.93,2.06A2.86,2.86,0,0,0,272.9,45.14Zm257,.44c.51-.76,1.36-1.48,1.46-2.3a1.65,1.65,0,0,0-2-1.94,2.89,2.89,0,0,0-1.79,2c-.07.69.93,1.49,1.45,2.24ZM292.8,45.17a2.93,2.93,0,0,0,1.78-2c.05-.7-.95-1.49-1.48-2.24l-.9,0c-.51.77-1.36,1.5-1.47,2.33A1.63,1.63,0,0,0,292.8,45.17Zm9.94,0a2.91,2.91,0,0,0,1.77-2c.06-.7-.94-1.49-1.47-2.24l-.9,0c-.52.77-1.37,1.5-1.47,2.33A1.63,1.63,0,0,0,302.74,45.17Zm9.89,0a2.93,2.93,0,0,0,1.83-2c.07-.7-.9-1.51-1.41-2.28h-.9c-.54.76-1.41,1.46-1.53,2.28A1.62,1.62,0,0,0,312.63,45.17ZM180.47,497.24c.77.49,1.51,1.28,2.33,1.4a1.72,1.72,0,0,0,2-1.92c0-1.34-.86-2.22-2.12-2-.81.13-1.49,1-2.22,1.59ZM519.84,45.6c.56-.73,1.46-1.39,1.61-2.2a1.65,1.65,0,0,0-1.93-2.06,2.85,2.85,0,0,0-1.91,1.88c-.11.69.83,1.55,1.31,2.33Zm-339.37,571c.78.48,1.52,1.25,2.35,1.37,1.18.16,2-.68,2-1.94s-.89-2.2-2.13-2c-.81.14-1.48,1-2.21,1.62Zm309.64-571c.54-.75,1.4-1.45,1.52-2.27a1.65,1.65,0,0,0-2-2,2.86,2.86,0,0,0-1.84,2c-.08.7.9,1.51,1.42,2.28ZM180.44,477.25c.75.52,1.55,1.51,2.24,1.44a2.87,2.87,0,0,0,2-1.78,1.67,1.67,0,0,0-1.94-2.08c-.82.1-1.54,1-2.3,1.48C180.45,476.62,180.45,476.94,180.44,477.25ZM242.22,703a2.85,2.85,0,0,0-2,1.82,1.66,1.66,0,0,0,2,2c.82-.14,1.52-1,2.27-1.54v-.88C243.74,703.89,242.92,702.92,242.22,703ZM272,703a1.62,1.62,0,0,0-1.93,2c.15.82,1.05,1.49,1.62,2.22l.89,0c.49-.79,1.44-1.64,1.34-2.34A2.92,2.92,0,0,0,272,703Zm9.73-.44c-.6.71-1.52,1.33-1.71,2.13a1.64,1.64,0,0,0,1.83,2.14,2.88,2.88,0,0,0,2-1.79c.14-.68-.76-1.58-1.2-2.39ZM292,703a2.84,2.84,0,0,0-2,1.78,1.65,1.65,0,0,0,2,2c.82-.12,1.53-1,2.29-1.48,0-.3,0-.6,0-.89C293.47,703.92,292.67,702.94,292,703ZM180.47,537c.78.48,1.51,1.26,2.34,1.38a1.72,1.72,0,0,0,2-1.93,1.8,1.8,0,0,0-2.12-2c-.81.14-1.49,1-2.22,1.61ZM301.85,703a2.85,2.85,0,0,0-2,1.84,1.65,1.65,0,0,0,2,2c.82-.15,1.51-1,2.26-1.55,0-.3,0-.59,0-.89C303.38,703.88,302.55,702.92,301.85,703Zm287-459.52c.81-.11,1.52-1,2.27-1.52V241c-.76-.51-1.57-1.49-2.26-1.4a2.9,2.9,0,0,0-2,1.82A1.67,1.67,0,0,0,588.9,243.48Zm-.15,49.7c.82-.05,1.59-.86,2.38-1.33,0-.32,0-.63.07-.94-.72-.56-1.45-1.59-2.15-1.56a2.88,2.88,0,0,0-2.12,1.65A1.67,1.67,0,0,0,588.75,293.18ZM321.75,703a2.85,2.85,0,0,0-2,1.82,1.66,1.66,0,0,0,2,2c.82-.14,1.52-1,2.28-1.52,0-.3,0-.6,0-.89C323.27,703.89,322.46,702.92,321.75,703Zm-139-128.75c-.82.11-1.53,1-2.28,1.52v.93c.76.51,1.57,1.49,2.26,1.41a2.88,2.88,0,0,0,2-1.82A1.66,1.66,0,0,0,182.73,574.25Zm287-529.06c.83-.11,1.56-.93,2.33-1.43l0-.87c-.75-.55-1.53-1.56-2.24-1.52a2.89,2.89,0,0,0-2,1.76A1.62,1.62,0,0,0,469.78,45.19ZM183.61,233.54a1.67,1.67,0,0,0,1.88-2.13,2.88,2.88,0,0,0-2.07-1.74c-.69,0-1.46,1-2.19,1.53,0,.31,0,.62,0,.93C182.05,232.62,182.79,233.47,183.61,233.54Zm265.94,469h-.91c-.51.76-1.5,1.58-1.42,2.27a2.88,2.88,0,0,0,1.84,2,1.65,1.65,0,0,0,2-2C450.94,704,450.08,703.3,449.55,702.55Zm29.82,0h-.91c-.51.76-1.5,1.58-1.42,2.27a2.88,2.88,0,0,0,1.84,2,1.65,1.65,0,0,0,2-2C480.77,704,479.91,703.3,479.37,702.55Zm-296.1-69-.86,0a7.63,7.63,0,0,0-1.56,2.27c-.29,1.2.52,2,1.76,2.09s2.29-.64,2.11-2C184.61,635.06,183.78,634.31,183.27,633.53Zm316.1,69-.92,0c-.55.74-1.57,1.52-1.53,2.21a2.9,2.9,0,0,0,1.76,2,1.65,1.65,0,0,0,2.09-1.9C500.69,704.08,499.86,703.35,499.37,702.57ZM182.76,458.91c1.31,0,2.24-.8,2-2.11-.18-.82-1.06-1.5-1.62-2.25l-.86,0a7.71,7.71,0,0,0-1.4,2.38C180.63,458.21,181.55,458.92,182.76,458.91Zm.78-189.47c-.69-.09-1.52.87-2.29,1.37,0,.31,0,.62,0,.93.74.55,1.44,1.44,2.25,1.56a1.67,1.67,0,0,0,2-2A2.92,2.92,0,0,0,183.54,269.44Zm-.09-79.53c-.69,0-1.47,1-2.22,1.48l0,.94c.77.51,1.51,1.36,2.32,1.44a1.66,1.66,0,0,0,1.91-2.1A2.91,2.91,0,0,0,183.45,189.91Zm403.48-28.07a1.67,1.67,0,0,0,1.9,2.11c.81-.08,1.55-.93,2.33-1.43l0-.93c-.74-.55-1.52-1.56-2.21-1.51A2.92,2.92,0,0,0,586.93,161.84ZM509.24,702.56h-.92c-.53.76-1.52,1.56-1.45,2.26a2.88,2.88,0,0,0,1.81,2,1.66,1.66,0,0,0,2-2C510.6,704,509.75,703.31,509.24,702.56Zm7.55,2.15a1.62,1.62,0,0,0,1.85,2.11c.84-.1,1.59-.91,2.38-1.41,0-.28,0-.57,0-.86-.74-.56-1.49-1.58-2.2-1.54A2.83,2.83,0,0,0,516.79,704.71ZM180.45,656.23c.76.51,1.58,1.49,2.27,1.41a2.9,2.9,0,0,0,2-1.83,1.67,1.67,0,0,0-2-2c-.81.12-1.52,1-2.27,1.53Zm348.78,46.35-.92,0c-.57.73-1.6,1.48-1.56,2.18a2.88,2.88,0,0,0,1.72,2.07,1.66,1.66,0,0,0,2.13-1.86C530.52,704.11,529.71,703.36,529.23,702.58ZM182.33,554a7.83,7.83,0,0,0-1.49,2.31c-.26,1.22.61,2,1.83,2s2.27-.7,2.05-2c-.14-.83-1-1.55-1.52-2.32ZM459.88,45.13c.7.09,1.52-.88,2.3-1.38,0-.29,0-.58,0-.87-.75-.54-1.44-1.4-2.27-1.56a1.63,1.63,0,0,0-2,2A2.81,2.81,0,0,0,459.88,45.13ZM220.37,704.78a1.66,1.66,0,0,0,2,2c.82-.12,1.53-1,2.3-1.48v-.89c-.76-.53-1.56-1.51-2.27-1.45A2.86,2.86,0,0,0,220.37,704.78ZM539.3,45.17a1.62,1.62,0,0,0,2-1.94c-.11-.82-1-1.53-1.5-2.3h-.9c-.52.76-1.5,1.57-1.44,2.27A2.93,2.93,0,0,0,539.3,45.17ZM183.11,149.71c-.51.76-1.49,1.57-1.42,2.26a2.9,2.9,0,0,0,1.8,2,1.67,1.67,0,0,0,2-2c-.13-.82-1-1.53-1.51-2.29Zm405.77-15.58c.82-.11,1.53-1,2.29-1.5v-.94c-.75-.52-1.56-1.5-2.25-1.42a2.91,2.91,0,0,0-2,1.8A1.68,1.68,0,0,0,588.88,134.13ZM183.49,114.25a1.68,1.68,0,0,0,2-2,2.92,2.92,0,0,0-2-1.85c-.69-.09-1.52.87-2.29,1.37,0,.31,0,.63,0,.94C182,113.23,182.68,114.12,183.49,114.25Zm405.44,99.41c.81-.13,1.5-1,2.25-1.56v-.93c-.77-.5-1.6-1.46-2.29-1.37a2.9,2.9,0,0,0-2,1.85A1.67,1.67,0,0,0,588.93,213.66ZM252.87,45.17a3,3,0,0,0,1.93-1.91c.1-.7-.88-1.54-1.38-2.33h-.93c-.53.77-1.39,1.49-1.52,2.32A1.58,1.58,0,0,0,252.87,45.17Zm10,0c.83-.14,1.54-.95,2.3-1.47v-.9c-.75-.52-1.55-1.52-2.25-1.45a2.88,2.88,0,0,0-2,1.81A1.62,1.62,0,0,0,262.88,45.19Zm20,0a2.9,2.9,0,0,0,1.74-2c.05-.7-.95-1.47-1.49-2.22l-.9,0c-.51.77-1.34,1.51-1.44,2.34A1.63,1.63,0,0,0,282.88,45.17ZM250.19,704.92a2.88,2.88,0,0,0,2,1.84c.69.09,1.51-.88,2.28-1.39l0-.9c-.76-.53-1.45-1.37-2.27-1.53A1.63,1.63,0,0,0,250.19,704.92Zm338-206.35c.69.07,1.49-.92,2.24-1.43,0-.32,0-.63,0-.95-.76-.51-1.48-1.37-2.3-1.47a1.66,1.66,0,0,0-1.94,2.06A2.91,2.91,0,0,0,588.14,498.57ZM262.12,703a2.88,2.88,0,0,0-2,1.8,1.66,1.66,0,0,0,2,2c.82-.13,1.52-1,2.28-1.5v-.9C263.63,703.9,262.82,702.93,262.12,703ZM589,144.07c.81-.15,1.48-1.06,2.21-1.62,0-.31,0-.62,0-.93-.78-.48-1.63-1.41-2.32-1.3a2.91,2.91,0,0,0-1.91,1.89A1.68,1.68,0,0,0,589,144.07Zm-405.55-9.94a1.67,1.67,0,0,0,2.07-1.95,2.91,2.91,0,0,0-1.9-1.9c-.69-.12-1.55.81-2.33,1.28,0,.31,0,.62,0,.93C182,133.06,182.62,134,183.43,134.13ZM538.61,703a1.62,1.62,0,0,0-1.94,2,2.85,2.85,0,0,0,2,1.79c.72.06,1.51-.94,2.27-1.47,0-.29,0-.58,0-.87C540.15,703.9,539.43,703.08,538.61,703ZM322.47,45.19a7.65,7.65,0,0,0,2.36-1.44v-.93c-.77-.53-1.6-1.53-2.3-1.44a2.92,2.92,0,0,0-2,1.89A1.58,1.58,0,0,0,322.47,45.19ZM590.36,506.07c-.78-.5-1.53-1.34-2.34-1.41-1.26-.12-2,.81-2,2.15a1.7,1.7,0,0,0,2.11,1.75c.82-.18,1.49-1,2.23-1.55Zm-2.31,72c.69.1,1.53-.84,2.31-1.32l0-.94c-.74-.55-1.41-1.45-2.22-1.59a1.66,1.66,0,0,0-2,2A2.91,2.91,0,0,0,588.05,578.1ZM549.11,702.58l-.92,0c-.56.73-1.59,1.49-1.55,2.19a2.86,2.86,0,0,0,1.72,2.06,1.65,1.65,0,0,0,2.12-1.86C550.4,704.11,549.59,703.36,549.11,702.58ZM509.61,45.13c.71.07,1.52-.93,2.29-1.46,0-.3,0-.6,0-.9-.79-.51-1.64-1.49-2.35-1.39s-1.34,1.23-2,1.91C508.23,44,508.87,45.05,509.61,45.13ZM450,45.25a1.72,1.72,0,0,0,1.88-2c-.15-.83-1-1.53-1.57-2.29l-.93,0c-.49.79-1.28,1.55-1.39,2.39C447.83,44.54,448.71,45.28,450,45.25ZM586.06,586.34a1.7,1.7,0,0,0,2.12,1.75c.81-.18,1.48-1,2.22-1.56,0-.32,0-.63,0-.94-.78-.5-1.53-1.33-2.35-1.4A1.79,1.79,0,0,0,586.06,586.34ZM499.58,45.19c.83-.1,1.57-.91,2.35-1.4l0-.87c-.74-.55-1.5-1.58-2.21-1.54a2.84,2.84,0,0,0-2.05,1.72A1.62,1.62,0,0,0,499.58,45.19Zm86.55,610.67a2.91,2.91,0,0,0,2,1.77c.69.06,1.48-.93,2.23-1.46l0-.94c-.76-.51-1.49-1.36-2.31-1.45A1.66,1.66,0,0,0,586.13,655.86Zm-.08,9.82c0,1.26.76,2.1,1.94,1.94a7.32,7.32,0,0,0,2.36-1.34l0-.93c-.73-.57-1.4-1.48-2.2-1.63C587,663.48,586.09,664.34,586.05,665.68Zm2.78-442.08c.82-.09,1.56-.94,2.33-1.44l0-.94c-.75-.53-1.53-1.53-2.22-1.47a2.86,2.86,0,0,0-2,1.75A1.66,1.66,0,0,0,588.83,223.6ZM311.78,703a1.63,1.63,0,0,0-2,2c.14.81,1,1.5,1.59,2.25l.89,0c.49-.77,1.45-1.61,1.36-2.31A2.93,2.93,0,0,0,311.78,703ZM185.57,211.56a1.71,1.71,0,0,0-2.07-1.81c-.82.16-1.51,1-2.26,1.49v.94c.77.52,1.49,1.38,2.3,1.48C184.81,213.81,185.63,212.91,185.57,211.56ZM479.82,45.13c.71.06,1.5-.93,2.25-1.45,0-.3,0-.59,0-.88-.76-.52-1.48-1.35-2.31-1.48a1.62,1.62,0,0,0-1.93,2A2.85,2.85,0,0,0,479.82,45.13ZM183.55,293.19c1.26.15,2.08-.75,2-2.1a1.71,1.71,0,0,0-2.07-1.81c-.82.16-1.51,1-2.26,1.49v.94C182,292.23,182.74,293.09,183.55,293.19Zm46.76,411.56a1.66,1.66,0,0,0,1.93,2.07c.82-.11,1.55-.94,2.32-1.44,0-.3,0-.6,0-.9-.74-.53-1.53-1.53-2.23-1.48A2.86,2.86,0,0,0,230.31,704.75Zm229.26-2.19h-.93c-.53.75-1.53,1.53-1.47,2.23a2.89,2.89,0,0,0,1.77,2,1.66,1.66,0,0,0,2.07-1.93C460.91,704.06,460.08,703.33,459.57,702.56Zm7.51,2.19a1.63,1.63,0,0,0,1.9,2.07c.84-.13,1.56-.94,2.34-1.45l0-.86c-.75-.55-1.53-1.55-2.24-1.5A2.87,2.87,0,0,0,467.08,704.75Zm124.09-404.1c-.76-.5-1.48-1.29-2.31-1.43a1.7,1.7,0,0,0-2,1.87c0,1.34.82,2.22,2.06,2,.82-.12,1.52-1,2.27-1.54C591.17,301.28,591.17,301,591.17,300.65ZM488.8,703a2.91,2.91,0,0,0-1.8,2c-.07.7.91,1.51,1.43,2.26h.9c.53-.76,1.39-1.48,1.5-2.3A1.62,1.62,0,0,0,488.8,703ZM434.91,559.62c-.43.7-1.24,1.42-1.19,2.07s1,1.25,1.5,1.87c.56-.6,1.49-1.15,1.57-1.8s-.71-1.41-1.12-2.12Zm-51.66-7.16c-.54.55-1.35,1-1.52,1.67-.13.47.59,1.16,1.24,2.28.87-1.08,1.74-1.68,1.71-2.25S383.76,553,383.25,552.46Zm60.36-.25c-.92-.81-1.54-1.71-1.93-1.61a2.32,2.32,0,0,0-1.5,1.5c-.08.42.76,1.37,1.29,1.46S442.6,552.89,443.61,552.21Zm-66.45-83.54a2.83,2.83,0,0,0,1.43,1.51c.17.1.83-.7,1.56-1.34l-1.84-1.66C377.89,467.68,377.07,468.27,377.16,468.67Zm-62.59-3.53c-.85-.59-1.49-1.32-1.78-1.2-.61.26-1,1-1.53,1.48.5.4,1,1.12,1.5,1.12S313.76,465.8,314.57,465.14Zm134,75.36c-.8-.61-1.43-1.34-1.68-1.22a2.46,2.46,0,0,0-1.28,1.44c-.08.29.78,1.22,1.08,1.16C447.27,541.78,447.74,541.16,448.58,540.5Zm3.54-8c-.83-.6-1.34-1.26-1.76-1.21a1.74,1.74,0,0,0-1.09,1.25c-.06.32.67,1.07,1.05,1.08S451.28,533,452.12,532.45ZM383.8,463.91c.29.37.68,1.1.86,1a10.13,10.13,0,0,0,2.12-1.17c-.81-.52-1.28-1-1.55-.93A5.59,5.59,0,0,0,383.8,463.91ZM344.17,485a4.58,4.58,0,0,0,4.15-4.29,2.93,2.93,0,0,0-3.15-3c-2.31,0-4.43,1.91-4.42,3.95A3.44,3.44,0,0,0,344.17,485Zm-14.68-6.06a2.36,2.36,0,0,0,2.21,2.56,3,3,0,0,0,3.05-3,2.33,2.33,0,0,0-2.42-2.56A2.94,2.94,0,0,0,329.49,478.93ZM323,475.61a3,3,0,0,0,1.46,1.72c.4.16,1.15-.6,2.31-1.28-1.15-.84-1.72-1.54-2.38-1.63C323.92,474.36,322.88,475.38,323,475.61Zm2.25-181.53a4.19,4.19,0,0,0,4.38-4.37,5.19,5.19,0,0,0-5.15-5.2c-2.26.05-4,2.14-4,4.8A4.72,4.72,0,0,0,325.21,294.08Zm106.58,2a4.68,4.68,0,0,0,4.77-4.57c.12-2.73-1.66-5-4-5a5.18,5.18,0,0,0-5.15,5A4.21,4.21,0,0,0,431.79,296ZM271.93,341c-2.27,0-4,2.09-4.05,4.76a4.69,4.69,0,0,0,4.72,4.81,4.2,4.2,0,0,0,4.43-4.32A5.22,5.22,0,0,0,271.93,341Zm212.45,11.53a4.68,4.68,0,0,0,4.75-4.79c0-2.66-1.74-4.73-4-4.77a5.2,5.2,0,0,0-5.13,5.21A4.23,4.23,0,0,0,484.38,352.53Zm-164-144.87a2.38,2.38,0,0,0,2.34,2.64,2.43,2.43,0,0,0,2.57-2.61,2.36,2.36,0,0,0-2.45-2.3A2.23,2.23,0,0,0,320.36,207.66Zm-50.28,54.21a2.32,2.32,0,0,0-2.29,2.5,2.48,2.48,0,0,0,2.62,2.42,2.33,2.33,0,0,0,2.3-2.34A2.54,2.54,0,0,0,270.08,261.87Zm214.24,4.57a2.33,2.33,0,0,0,2.34,2.33,2.56,2.56,0,0,0,2.57-2.62,2.31,2.31,0,0,0-2.48-2.31A2.46,2.46,0,0,0,484.32,266.44Zm-49.85-59.11a2.53,2.53,0,0,0-2.72,2.46,2.3,2.3,0,0,0,2.32,2.47,2.46,2.46,0,0,0,2.58-2.45A2.34,2.34,0,0,0,434.47,207.33Zm-53,34a5.25,5.25,0,0,0-5.1,5.29,4.2,4.2,0,0,0,4.44,4.32,4.72,4.72,0,0,0,4.73-4.83C385.57,243.45,383.76,241.33,381.52,241.32Zm-.75-76.56a2.28,2.28,0,0,0,2.33,2.42,2.53,2.53,0,0,0,2.56-2.65,2.43,2.43,0,0,0-2.43-2.35C381.75,162.44,380.72,163.17,380.77,164.76Zm-9.94-77.68a10.65,10.65,0,0,0,2.47.47c2.18,9.17,4.3,18.09,6.44,27.07-2.93.52-6.21-.63-8.79,2.07a7.24,7.24,0,0,0,3.32,1.31c5.94.19,11.88.25,17.82.31,1.3,0,2.49-.4,2.52-1.92s-1.05-2-2.4-2.06c-2,0-3.94,0-6.11,0,.3-1.07.51-1.89.77-2.7,2.31-7,4.66-14,6.91-21.09.45-1.42.57-2.81,2.61-2.8a2.12,2.12,0,0,0,1.42-1.53,2.59,2.59,0,0,0-1.21-1.94,6.49,6.49,0,0,0-2.89-.5q-9.24,0-18.47.12a21.64,21.64,0,0,0-4.33.44c-.57.12-1,.88-1.49,1.35C369.88,86.16,370.26,86.85,370.83,87.08Zm20.68.9c-2.69,7.17-5.32,14.18-7.94,21.19l-.42,0-6-21.16Z"/></svg>