<svg xmlns="http://www.w3.org/2000/svg" viewBox="0 0 750 750"><path d="M606.05,51.39c0-1.19,0-2.38,0-3.58-.12-13.27-9.63-22.69-22.92-22.69q-197.33,0-394.67-.12c-13.66,0-24.08,10-24.05,24.13q.34,163,.13,325.91,0,163.75,0,327.5a23.08,23.08,0,0,0,.61,5.5c2.62,10.62,11.25,17,22.92,17H583.55c8.29-.19,14.8-3.62,19.27-10.67,2.65-4.18,3.24-8.85,3.24-13.7Q606,376,606.05,51.39Zm-4.28,650.24c0,11.55-7.47,19.09-18.94,19.09H187.54c-9.35,0-16.5-5.46-18.36-14.11a22.74,22.74,0,0,1-.35-4.74q0-163.46,0-326.92,0-163.67,0-327.32c0-8.93,5.45-15.94,14-17.85a18.44,18.44,0,0,1,4.14-.37H583.78a17.67,17.67,0,0,1,18,17.8c0,1.52,0,3,0,4.57ZM367.67,543.55c5.78-.84,10.4-3.69,14.36-7.5,3.51.29,6-1.57,5.43-6.23l2-2.79c3.49-.93,4.16-2.08,3.52-6l1.34-2.63c2.29-.43,2.73-2,2.43-4a2.72,2.72,0,0,1,.12-1.36c1.85-4.74,3.73-9.47,5.62-14.26,2.79-1.57,3.17-2.76,1.81-6,1-3.62,1.94-7.28,3.07-10.88a5.52,5.52,0,0,1,1.83-2.62,63.81,63.81,0,0,0,14.65-14.73c.32-.47.72-.89,1.29-1.58,0,.56.05.79.05,1-.26,9.73-.45,19.46-.81,29.19-.1,2.72-.74,5.42-1.09,8.14a5.75,5.75,0,0,0,.13,1.75c.25,1.25.56,2.49.81,3.6-1.8,1.8-2.1,3.43-.38,5-.05.92-.09,1.78-.12,2.51-2.93,2.69-2.11,3.94,0,6.29a25.32,25.32,0,0,1-1,2.57,14.58,14.58,0,0,0-1.43,9.06,3.4,3.4,0,0,0,3.33,3.12c1.08,0,2.26-1.26,3.16-2.18a3.76,3.76,0,0,0,.67-2.23,14.75,14.75,0,0,0-1.27-8.14,11.11,11.11,0,0,1-.69-2.23c2.82-2.7,2.74-4.36,0-6.7.16-.73.08-1.78.57-2.33,1.57-1.79,1.22-3.34-.45-5.13.29-1.13.66-2.36.9-3.62a7.1,7.1,0,0,0,0-2.11,22,22,0,0,1-.55-3.05q.24-16,.59-32a14.67,14.67,0,0,1,.26-1.81c2.49,7.08,5.29,13.43,9.34,19.16a2.56,2.56,0,0,1,.4,1.09c.46,3,.78,3.39,3.76,4l2.37,2.25c-.66,3.42,2.51,5.52,5.9,3.59l2.5.95c.63,1.81,1.67,3.09,3.65,3.27,2.22.21,3.09-1.4,3.94-3.21,1.37-.22,2.82-.8,4.16-.6,2.55.37,4-.15,4.78-2.54.65-2.09,2.18-3.15,3.92-4.19a7.65,7.65,0,0,0,2-2.23c.36-.52.35-1.31.71-1.82,4.57-6.43,7.74-13.55,10.51-20.88a6.18,6.18,0,0,1,1.7-2.36c10.73-9.32,16.2-21,16.15-35.27-.1-30.12-30.54-51.94-59-42-17.09,6-27.34,18.14-30.3,36.06-.92,5.59-.58,11.39-1.5,17-2.27,13.64-4.92,27.21-7.48,40.79a3.36,3.36,0,0,1-1.35,2,69.52,69.52,0,0,1-16.88,7.51c-2-1-3.71-.7-4.74,1.3l-3.2.6c-3.6-2.74-5.06-1.49-7.36,1l-2.65.13c-2.72-2.43-3.9-2.44-6.73-.07-14.73-.35-39-10.89-43.84-19,.66-.17,1.28-.35,1.92-.48,18.1-3.66,32.32-17.88,35.48-35.48,3.37-18.82-4.33-36.89-20.4-46.71-6.08-3.71-10.83-8.56-15.36-13.89-3.64-4.28-5.42-9.17-6.49-14.49a14.21,14.21,0,0,1,1.48-10.56,4.51,4.51,0,0,1,5.17-2.07,12.16,12.16,0,0,0-1,1.23,3.48,3.48,0,0,0,1,4.44c1.61,1,2.8,0,3.77-1.15,1.22-1.49.89-3.15.11-4.68-.92-1.79-2.32-3.21-4.48-3.1-3.31.17-6,1.53-7.51,4.68A17.66,17.66,0,0,0,310.75,358c.08.72.14,1.44.21,2.16-6.07-10.79-9.81-22.15-9.1-34.54a19.52,19.52,0,0,1,7.55-14.77,5.37,5.37,0,0,1,4.66-1.43,15.72,15.72,0,0,0-.35,2.19c0,1.64.19,3.44,1.83,4.08a4.78,4.78,0,0,0,3.64-.37c1.53-.87,1.64-2.58,1.22-4.25a6,6,0,0,0-5.51-4.94,9.23,9.23,0,0,0-7.25,2A22.13,22.13,0,0,0,299,325c-.66,14,2.85,27,9.77,39.16a11.81,11.81,0,0,1,.49,1.32L299,358.91c.84-5.91-.29-8.65-4.08-9.29-2,2.64.2,5.1.76,7.89l-4.84-2a20.38,20.38,0,0,0-.4-2.44,31.41,31.41,0,0,0-1.66-5c-.54-1.12-1.78-2.27-3-1.31-.63.48-.76,2.14-.53,3.12a27.75,27.75,0,0,0,2,4.63l-5.78-1.35c-.17-.89-.3-1.6-.44-2.31a9.33,9.33,0,0,0-4.53-6.25,2.55,2.55,0,0,0-2.3,0c-.4.26-.44,1.43-.28,2.1A6.63,6.63,0,0,0,275.1,349c.86,1.14,1.83,2.2,2.93,3.51l-6.73-.44a13.17,13.17,0,0,0-5.74-6.94c-1.08-.59-2.47-1.13-3.16.15-.35.67.13,2.16.72,2.88a40.38,40.38,0,0,0,4.1,3.87l-4.62.72c-2.58-1.64-4.69-3.11-6.92-4.34-1.18-.65-2.57-.84-3.53.85.46,2.88,3.3,3.36,5.26,4.82a28.47,28.47,0,0,1-3.1,1.9,25.83,25.83,0,0,1-3.55,1.16c-3.15.92-5.48,3.28-5.65,5.74-.18,2.62,1.39,3.77,3.75,2.6a10.55,10.55,0,0,0,3.12-2.4c1.44-1.6,2.67-3.4,4.28-5.48.33-.1,1.14-.37,2-.59a4.39,4.39,0,0,1,.92,0c-.63,1-1.2,1.8-1.66,2.66-1.12,2.08-.89,4.06.51,4.8,1.24.66,2.85-.12,3.86-2.25.91-1.95,1.48-4.07,2.31-6.42l5.06-.37c-.78,1.09-1.25,1.72-1.68,2.37a21.23,21.23,0,0,0-1.23,2c-1.16,2.28-.86,4.42.69,5.1,1.39.62,2.95-.42,4-2.71a14,14,0,0,0,.82-2.24c.33-1.4.56-2.82.87-4.41L278,356a12.58,12.58,0,0,0-1.39,1.94,32.06,32.06,0,0,0-2,5.3,2.49,2.49,0,0,0,1.23,2.12,3.22,3.22,0,0,0,2.43-.68,4.43,4.43,0,0,0,1.32-1.95c.81-1.92,1.52-3.88,2.33-6l4.46,1.06a50.91,50.91,0,0,0-3.54,5.18,2.56,2.56,0,0,0,1.07,3.76c1.56.77,2.56-.35,3.22-1.53,1.07-2,2-4,3-6.23l4.95,1.91a10.86,10.86,0,0,0-1.89,1.44,26.24,26.24,0,0,0-2.73,4.09c-.56,1.13-.71,2.57.74,3.3s2.42-.05,3.22-1.17a17.62,17.62,0,0,0,1.26-2c.72-1.38,1.4-2.8,2.15-4.31l3.59,2.09a58.07,58.07,0,0,0-4,5.81,2.83,2.83,0,0,0,.87,2.64,3.22,3.22,0,0,0,2.77-.61,10.66,10.66,0,0,0,2.09-2.86c.59-.92,1.08-1.91,1.68-3l3.77,2.5c-1.51,1.59-3,2.95-4.25,4.53a2.34,2.34,0,0,0,.24,3.42c1.18.95,2.36.25,3.18-.62,1.45-1.52,2.72-3.19,4.36-5.15l10,9.78-.3.53c-13.81-3-27.63-3.67-41.44-.24-2.7-4.31-5.23-8.57-10.61-9.44-4.87-.8-9.63-.74-14,2.45,3.5,6.79,9.48,8.74,16.13,10-2.82,1.29-5.67,2.17-8.48,3.19-2,.73-4.27,1.25-5.88,2.55-4.64,3.72-6.61,8.8-6.32,14.74a12.6,12.6,0,0,0,.51,2.11,19,19,0,0,0,8.1-3.25c5.39-3.48,8.57-8.34,9.08-14.69,5.71-4,22.43-7.37,28.48-6-24.17,8.35-33.5,32.3-29.89,51.18a44.31,44.31,0,0,0,12.74,23.8c9.17,9,20.43,12.94,32.89,13l9,25.25c-1.66,4.42-.63,6.08,3.08,7L337,524.3c-.14,2.48.16,2.87,3.35,3.6l2.4,2.92c-.32,3.88,1.08,5.28,5.11,4.93.48.7,1,1.6,1.63,2.37a5.2,5.2,0,0,0,1.74,1.47,42.57,42.57,0,0,0,4,1.46c3,1,5.93,2,8.95,3.05a13.59,13.59,0,0,0-1.35,10.39,3.14,3.14,0,0,0,1.33,1.76c1.8,1,3.16.26,3.83-2A18.78,18.78,0,0,0,367.67,543.55Zm57.08-10.75c-1.64-2.08-1.51-6,.29-8.83C426.71,526.74,426.56,531.26,424.75,532.8ZM475.51,477c-2.49,3.76-5.64,7.08-8.45,10.53-2.63-.25-4.63.18-5.13,2.8-1.65.77-3.06,1.26-4.84.46-.93-.42-2.25.05-3.4.12-.09.24-.19.48-.28.71-1.3-.9-2.57-1.83-3.89-2.69-1.62-1.06-3.37-2-4.91-3.13a9.26,9.26,0,0,1-1.7-2.36c-.22-.32-.31-.8-.61-1-3.78-2.51-5.37-6.62-7.39-10.34s-3.76-7.85-5.62-11.79c16.73,12.06,34,13.56,52.26,4.2l.47.38C479.87,469,478,473.22,475.51,477Zm-17.06-92.09c22.27-.1,40.6,18,40.66,40.07a40.36,40.36,0,1,1-40.66-40.07Zm-42.62,54.39a47.15,47.15,0,0,0,9.92,16.82,12.18,12.18,0,0,1-.85,2.43c-4,6.6-9.53,11.78-15.67,16.71C411.44,463.23,413.59,451.53,415.83,439.33ZM254.38,402.81c-1.06-4.86,3.73-12.6,8.72-13.52-2.38,2.4-4.49,4.52-5.12,7.51l.55.45,6.36-6.28C265.3,396.42,258.53,402,254.38,402.81Zm5-27.89c4.59-2.55,12.95-2.38,15.66,2.77-.66-.23-1.09-.36-1.51-.52-2.28-.85-4.54-1.78-6.86-2.52a9.71,9.71,0,0,0-2.7,0c-.09.41-.19.81-.29,1.21a22.92,22.92,0,0,0,2.72,1.35c3,1.06,6.09,2,9.49,3.16C271.23,382.8,260.89,379,259.38,374.92Zm52.39,90.73a40.36,40.36,0,1,1,40.4-40.1A40.42,40.42,0,0,1,311.77,465.65Zm43.29,71.62c-.31-2.1-1.41-3.35-3.87-3.07-.51.06-1.1-.55-1.55-.8-.3-4.12-1-4.79-5.13-4.84-.68-1.28-1.46-2.81-2.28-4.32a3.3,3.3,0,0,0-.87-1.27c-2.74-1.69-4.12-4.27-5.14-7.2-.35-1-1.52-1.62-2.05-2.57-2.16-3.87-4.21-7.8-6.21-11.53,1.31-4.2.72-5.56-3.18-7-2.84-7.19-5.77-14.63-8.71-22.06l.26-.23a5,5,0,0,1,.62.49c10.46,11.39,23.68,17.27,38.76,19.45,1.57.22,3.18.21,4.73.49a11.47,11.47,0,0,1,3.29,1.09c2,1,3,.95,5.1-.85l3.36-.24c3.87,2.54,5.08,2.39,7.82-1.34,1.32,0,3,0,4.66,0a4.16,4.16,0,0,0,1.52-.3c2.27-1,4.52-2.05,6.78-3.08l10.85-5c-.87,3.1-1.69,6-2.53,9-2.36,1.26-2.91,3.21-1.77,5.88-1.79,4.41-3.61,8.95-5.49,13.47a11,11,0,0,1-1.18,1.53,9.79,9.79,0,0,0-1.14,2c-.6,1.64-1.08,3.33-1.58,4.92-2.81.77-4,2.34-3.38,5l-2.05,2.93c-3.84.35-4.83,1.46-5,5.5C372.49,541.08,363.19,542.29,355.06,537.27ZM525.15,277.19c-1-1-3-.84-4.66.78-2,2-3.83,4.29-5.72,6.46l.32.37-3.57,1a21.9,21.9,0,0,0,1.28-2,7.38,7.38,0,0,0,1.11-2.91,3.68,3.68,0,0,0-1.25-2.77c-.54-.34-2.16.22-2.66.87a17.73,17.73,0,0,0-2.24,4.35,24.58,24.58,0,0,0-.79,3.37l-5.35.39a15.2,15.2,0,0,0,1.4-1.95,25.73,25.73,0,0,0,2.11-5.05,3,3,0,0,0-1.43-2.45,2.92,2.92,0,0,0-2.55.79,8.62,8.62,0,0,0-1.79,3.25c-.55,1.66-.82,3.42-1.24,5.26l-5.34-.51a10.14,10.14,0,0,0,1.31-1.7,36.88,36.88,0,0,0,2.16-5.46,2.54,2.54,0,0,0-1.21-2.15,3.1,3.1,0,0,0-2.44.63,4.93,4.93,0,0,0-1.43,2.11c-.76,1.87-1.4,3.79-2.16,5.89l-4.53-1.08a45.29,45.29,0,0,0,3.49-5.18,2.61,2.61,0,0,0-1.07-3.78c-1.56-.75-2.56.4-3.21,1.57-1.06,1.95-1.92,4-3,6.22l-4.28-1.64c1.35-2,2.75-3.7,3.82-5.63.65-1.15.86-2.7-.67-3.48s-2.58.16-3.32,1.38c-1.15,1.92-2.18,3.91-3.37,6l-3.79-2.14a40.94,40.94,0,0,0,3.85-4.36c1.1-1.65.78-3.54-.4-4.07-1.71-.75-2.78.31-3.63,1.58-1,1.54-1.93,3.14-3,4.94l-3.8-2.45a52.39,52.39,0,0,0,4.14-4.2c.83-1.05,1.25-2.52,0-3.62s-2.57-.28-3.48.67c-1.38,1.46-2.56,3.12-4.1,5l-10.15-9.91.34-.51c13.81,3.11,27.65,3.66,41.45.32,2.72,4.29,5.26,8.55,10.63,9.42,4.88.79,9.64.73,14-2.43-3.44-6.91-9.51-8.7-16.1-9.87,2.3-1.18,4.54-2.78,6.88-3,5.37-.41,8.88-3.23,11.45-7.5a17.06,17.06,0,0,0,2.07-12c-2.61-.29-4.63.9-6.58,2-6.25,3.44-10.28,8.46-10.77,15.75-8.07,4.9-23.16,7.25-34.61,6.05,1-.29,1.5-.44,2-.57,20.55-5.43,34-22.85,34-44,0-32.68-34.69-54.47-64.15-40.35a45,45,0,0,0-7.89,76.59c2.1,1.61,4.44,2.9,6.54,4.5a74.51,74.51,0,0,1,14.45,15c3.87,5.21,5.23,11.24,5.1,17.6a13.32,13.32,0,0,1-1.49,4.88c-1,2.19-2.83,3-5.42,2.6a11.85,11.85,0,0,0,1.07-1.4,3.47,3.47,0,0,0-1-4.28c-1.47-1-2.64-.21-3.66.85-1.42,1.48-1.13,3.16-.37,4.81a5.06,5.06,0,0,0,4.81,3.21c3.4-.36,6.26-1.74,7.33-5.17a52.45,52.45,0,0,0,1.61-8.28,16.49,16.49,0,0,0-.34-3.7c.39.36.57.46.65.62,5.54,10.62,9.08,21.77,8.48,33.89A19.63,19.63,0,0,1,461,332c-1.22.92-2.53,1.68-4.09,1a22.87,22.87,0,0,0,.14-3.25c-.22-2.26-1.7-3.58-3.61-3.39a3.71,3.71,0,0,0-3.17,4.29,6.1,6.1,0,0,0,5.45,5.69,9.1,9.1,0,0,0,7.14-1.7,21.91,21.91,0,0,0,8.94-16.81,64.13,64.13,0,0,0-4.19-27.48c-1.76-4.53-3.85-8.93-5.72-13.23l10.14,6.54c-1.32,4.93.06,8.39,3.84,9.23,2.33-2.67-.35-5.17-.6-7.91l4.75,2c.16.89.25,1.68.45,2.44a28.12,28.12,0,0,0,1.43,4.7c.59,1.25,1.68,2.55,3.3,1.71s.92-2.31.42-3.54-1.24-2.6-2-4.27l5.87,1.31c.19,1,.35,1.82.53,2.66a8.9,8.9,0,0,0,4.36,5.89,2.67,2.67,0,0,0,2.31,0c.4-.24.48-1.45.28-2.09a9.69,9.69,0,0,0-1.52-2.76c-.72-1-1.6-1.86-2.63-3l6.67.41c1.31,2.85,2.94,5.53,5.9,6.93.86.4,2.06,0,3.11,0a9.42,9.42,0,0,0-.67-3,11.67,11.67,0,0,0-2.41-2.34c-.54-.48-1.11-.93-1.88-1.59l4.65-.69c2.75,1.69,4.92,3.17,7.24,4.39,1.21.65,2.6.69,3.3-1.09-.63-2.73-3.33-3.25-5.65-4.93,2.67-1.05,5-1.82,7.25-2.91a16.06,16.06,0,0,0,4.46-3.12C526.18,280.66,526.15,278.19,525.15,277.19Zm-8.6-37.48c.48,5.63-3.65,12.33-8.46,13.51,1.75-2.54,4.46-4.36,4.7-8.17l-6.29,6.86-.62-.64C505.5,246.45,511.86,240.77,516.55,239.71Zm-5.09,27.86c-4.48,2.62-13.12,2.48-15.8-2.95,9,3.86,9.49,4,11.32,2.66-.07-1.49-1.33-1.55-2.35-1.89l-9.69-3.21C499.55,259.75,509.91,263.5,511.46,267.57ZM418,215.4a40.36,40.36,0,1,1,40.28,40.42A40.43,40.43,0,0,1,418,215.4ZM580.25,421.91l-4.3-3.17v253c-12.21,2.28-18.55,10-21.26,21.59H432.61c2.52,2.65,4.72,4.63,8.51,4.31,4.53-.39,9.13-.09,13.69-.09l101.95,0c.58,0,1.15-.09,1.66-.13.89-13.78,9.33-19.89,21.83-22.2ZM194.58,671.73V418.87l-4.14,3.05V675.54a23.39,23.39,0,0,1,15.32,6.77c4.25,4.16,6.81,9,6.18,15.15.87.07,1.32.14,1.78.14q58.62,0,117.24,0c3.4,0,4.78-2.35,6.71-4.37H216C213.26,681.67,206.86,673.93,194.58,671.73ZM555.63,55c1.75,11.06,10.53,20.28,21.23,21.36v243.1l4.2-3.13V72.69A23.35,23.35,0,0,1,565.76,66c-4.26-4.16-6.85-9-6.22-15.16-.83-.08-1.28-.16-1.74-.16-38.94,0-77.89.07-116.84-.06-3.58,0-5.12,2.27-7.34,3.94l.15.49ZM191.23,316.37l4.26,3.1V76.25a21.26,21.26,0,0,0,14.14-7,25.78,25.78,0,0,0,7-14.38H338.77c-2.47-2.91-5-4.57-8.86-4.26-4.61.37-9.27.09-13.9.09l-101.55,0a10.05,10.05,0,0,0-1.39.18c-1,13.76-9.36,19.9-21.84,22.14ZM266.5,215.73c-.18,22.46,17.41,44.91,45,45a44.51,44.51,0,0,0,44.91-45,44.94,44.94,0,1,0-89.88,0Zm45.2-40.63a40.37,40.37,0,0,1-.28,80.73c-22.32-.12-40.46-18.29-40.33-40.4A40.48,40.48,0,0,1,311.7,175.1Zm74.07,187.79A44.49,44.49,0,0,0,430.56,318a45,45,0,1,0-89.9.06C340.62,340.91,358.56,362.94,385.77,362.89ZM345.3,317.41a40.36,40.36,0,1,1,80.71,1.1c-.37,21.85-18.95,39.94-40.62,39.54C362.92,357.64,345,339.44,345.3,317.41ZM415,76.3h-59.5v49.63H415Zm-4.2,45.39h-51V80.49h51ZM263.75,538c-2.3-1-3.39-3.15-3.72-5.73-.49-3.86-1.21-7.7-1.83-11.55-.31-1.93-.64-3.86-.95-5.79a3.36,3.36,0,0,0-.82,1.87c-.78,4.76-1.82,9.51-2.23,14.31-.38,4.61-3,7-6.9,8.48-2.09.78-4.3,1.26-6.46,1.86-.69.19-1.4.31-2.1.46a7.93,7.93,0,0,0,2.16.79c3.16,1.12,6.38,2.11,9.42,3.49,2.31,1,3.32,3.16,3.68,5.74.79,5.75,1.8,11.47,2.73,17.21h.46c.13-.56.28-1.12.38-1.69.78-4.76,1.88-9.5,2.25-14.29s3.24-7.3,7.34-8.8c2-.72,4.06-1.15,6.1-1.7.61-.16,1.22-.28,1.83-.42a6.74,6.74,0,0,0-2.1-.84C269.89,540.32,266.73,539.35,263.75,538Zm88.51,83c-2.05.06-2.87.82-3.05,2.3a22.24,22.24,0,0,0-.33,2.55c0,5.82-.06,11.65,0,17.47.07,4.36.29,8.73.53,13.09.07,1.13.48,2.4,2,2.27s1.61-1.36,1.59-2.55c-.07-3.84-.18-7.68-.21-11.52,0-4.06,0-8.12,0-12.18A90,90,0,0,1,356,642.93c.95,4,1.59,8,2.51,12a7.28,7.28,0,0,0,1.65,3,2.31,2.31,0,0,0,2.09.5,2.62,2.62,0,0,0,1.12-1.86c1.42-10.54,1.13-21.13,1.09-31.72a10.15,10.15,0,0,0-.32-2.75,7.24,7.24,0,0,0-1-1.78l-.73.09a7.25,7.25,0,0,0-.79,2c-.29,3.89-.56,7.78-.68,11.68-.11,3.66,0,7.32,0,11l-.52.07C358.77,636.73,355.28,628.93,352.26,621ZM328.42,633c2.18-7.86-3.34-13.77-11.38-12.65-1,.14-2.07.36-3,.53L312.54,619l-.67,0c-.42,1.22-.85,2.44-1.29,3.7a10.33,10.33,0,0,0-2,1.51,78.55,78.55,0,0,0-5.13,6.69,2.07,2.07,0,0,0,.63,3.23l5.9-6.94.71.39c0,.71,0,1.42,0,2.13-.22,9.07-.46,18.14-.66,27.21a5.49,5.49,0,0,0,.31,2.51,1.71,1.71,0,0,0,3.32-.23,7.17,7.17,0,0,0,.18-2.55c0-2.89,0-5.78,0-8.64C322.13,646.14,326.37,640.44,328.42,633Zm-13.28,10.67c-.3.1-.62.15-1.24.29V625.19a9,9,0,0,1,7.1-.46,4.87,4.87,0,0,1,3.14,4.24C325,634.33,320.3,642,315.14,643.71Zm82.2,11.17c-.62-4.31-1.29-8.62-1.86-13-.82-6.23-1.53-12.47-2.37-18.7a14,14,0,0,0-1.07-2.89l-1.15,0c-3.43,7.75-4.54,16.25-7,24.14-1.45,1-4.12-.27-4.17,2.28,0,.83,1.68,1.7,2.92,2.86-.51,2.09-1.19,4.77-1.83,7.45-.3,1.26-1,2.81.93,3.28s2.11-1.14,2.46-2.42c.25-.9.44-1.8.67-2.7.53-2.1,1.08-4.19,1.64-6.39h6.1c.15.81.29,1.52.41,2.23q.56,3.23,1.1,6.45c.21,1.25.72,2.22,2.18,2s1.4-1.4,1.34-2.48C397.57,656.32,397.45,655.6,397.34,654.88Zm-9.69-10.66c1-4,2-7.85,3-11.73h.34c.4,3.85.79,7.7,1.19,11.72ZM271,637.84c-2.4,1.44-2.22,3.61.29,4.81a10.73,10.73,0,0,0,3,1c3.3.46,6.62.79,9.93,1.17a49,49,0,0,0-1.91,4.55c-.48,1.54-.69,3.22.89,4.34s3.21.43,4.31-.72a38.83,38.83,0,0,0,5.33-6.56c4.93-8.16-1.27-15.79-7.39-18.28a3.59,3.59,0,0,0-3.21.52c-.64.63-.7,2.15-.53,3.21a16.62,16.62,0,0,0,1.37,3.54c-2.78.33-5.41.53-8,1A12.36,12.36,0,0,0,271,637.84Zm14.37,12.9-.58-.3q1.35-3.15,2.71-6.32l3.78-.84A18.64,18.64,0,0,1,285.37,650.74Zm5.55-14.2c-4.08,0-5.47-1.44-6.63-5.74C286.48,630.77,289.7,633.56,290.92,636.54Zm.66,3.69a31.83,31.83,0,0,1-18.69.19A30.37,30.37,0,0,1,291.58,640.23Zm133.78,57.4c-3.16-.62-6.36-1-9.7-1.54.44-1,.92-1.92,1.28-2.91.5-1.33.87-2.73-.39-3.86s-2.77-.79-4.09-.09a15.27,15.27,0,0,0-7.54,8.1,11.5,11.5,0,0,0-.66,4.44c.15,4.61,2.82,8,5.84,11.13,2,2.12,4.07,2.62,5.43,1.66s1.59-3,.49-5.68c-.48-1.16-1.07-2.29-1.49-3.17,3.73-.5,7.35-.85,10.9-1.53,1.74-.34,4-.83,3.88-3.25C429.21,698.71,427.19,698,425.36,697.63Zm-10.83-6.46c-.71,4.24-2.56,5.84-6.92,6.19A13.08,13.08,0,0,1,414.53,691.17Zm-1.16,20.41c-2.59-1.8-4.31-4.31-5.91-7.49l3.75.83,2.75,6.31Zm-6.2-10.53a30.26,30.26,0,0,1,18.68.19C419.59,702.89,413.36,703.14,407.17,701.05ZM346.05,50.57c3.16.65,6.36,1,9.75,1.57-.42,1-.91,2-1.29,3-.5,1.35-.93,3,.53,3.74a5,5,0,0,0,3.84.11,14.36,14.36,0,0,0,7.7-8.14,11.65,11.65,0,0,0,.64-4.43c-.19-4.67-2.91-8.11-6-11.23-2-2-3.94-2.45-5.27-1.51s-1.58,2.93-.55,5.48c.5,1.24,1.12,2.43,1.55,3.34-3.76.53-7.42.92-11,1.6-1.7.32-3.82.85-3.75,3.14S344.24,50.2,346.05,50.57Zm11,6.55c.35-3.93,2.3-5.69,6.8-6.34A13.53,13.53,0,0,1,357.05,57.12Zm6.78-13-3.53-.79-2.82-6.23C359.47,37.06,362.33,40.29,363.83,44.09Zm.46,3.09A30.25,30.25,0,0,1,345.66,47,31.72,31.72,0,0,1,364.29,47.18Zm-7.23,641.63c-2.49-.85-4.25.91-3.58,3.47a39.75,39.75,0,0,0,1.64,4.23,17.31,17.31,0,0,0-3,0,72.42,72.42,0,0,0-8.68,1.87,3.67,3.67,0,0,0-2,2.78c0,.81,1.23,2,2.17,2.41a16.21,16.21,0,0,0,4.77,1.29c2.58.33,5.19.4,7.81.59a50.81,50.81,0,0,0-2,4.77c-.48,1.54-.64,3.23,1,4.32a3.11,3.11,0,0,0,4.16-.71,41.82,41.82,0,0,0,5.72-7.26C369.67,698.46,362.7,690.74,357.06,688.81Zm-.5,22.81,2.89-6.67,3.3-.77C362.43,706.59,359.36,710.49,356.56,711.62Zm-12-10c2.93-2.45,15.29-2.66,19.45-.33A41.16,41.16,0,0,1,344.53,701.61Zm11.71-10c2.21,0,4.54,2,6.79,5.78C358.67,697.35,357.22,695.56,356.24,691.59ZM172.52,340.27a42.39,42.39,0,0,0,7.37,5.85c8.11,4.55,15.82-2.4,17.74-8,.85-2.5-.9-4.25-3.45-3.59a36.29,36.29,0,0,0-3.94,1.54c-.34-2.8-.51-5.51-1-8.15a12.65,12.65,0,0,0-1.87-4.5c-1.13-1.65-3-1.44-4,.32a9.83,9.83,0,0,0-1.24,3.32c-.52,3.36-.85,6.75-1.25,10.11-1.5-.6-3.15-1.42-4.89-1.94-1.48-.45-3.1-.47-4.08,1.09A3,3,0,0,0,172.52,340.27Zm17.23-.41,4.86-3,.47.57c-.89,3.09-3.27,4.91-6.19,6.8C189.2,342.68,189.43,341.47,189.75,339.86Zm-4.56-14a30.25,30.25,0,0,1,.24,18.63A31.72,31.72,0,0,1,185.19,325.86Zm-9.9,11.88,6.21,2.73c.28,1.23.53,2.3.86,3.75a18.28,18.28,0,0,1-7.46-5.89Zm7,68.76c.32,1.69.81,3.64,3.08,3.88,1.46.16,2.89-1.36,3.45-4,.66-3.14,1-6.35,1.53-9.63a17.51,17.51,0,0,0,3.67,1.43,3.88,3.88,0,0,0,3-.66,3.43,3.43,0,0,0,.48-3,17.31,17.31,0,0,0-2.91-4.65c-6.28-7.25-19.12-5.06-22.83,3.83a3.78,3.78,0,0,0-.21.56,2.56,2.56,0,0,0,2.42,3.48,12.74,12.74,0,0,0,3.83-.78,21.48,21.48,0,0,0,2.9-1.36C181.24,399.24,181.62,402.9,182.29,406.5Zm12.85-11.29-.44.61L189.76,393c-.33-1.71-.57-2.92-.86-4.45C191.85,390.29,194.08,392.23,195.14,395.21Zm-9.76-7a30.21,30.21,0,0,1-.14,18.64A31.75,31.75,0,0,1,185.38,388.23ZM175.22,395l-.36-.62a19.26,19.26,0,0,1,7.5-5.88c-.32,1.4-.55,2.45-.84,3.76Zm414.27-62.18a66.29,66.29,0,0,0-1.73-8.29,3.28,3.28,0,0,0-2.29-2,3.89,3.89,0,0,0-2.72,1.76,11.31,11.31,0,0,0-1.37,4.09c-.42,2.52-.62,5.07-.92,7.73a14.28,14.28,0,0,0-3.46-1.38c-1.12-.15-2.74-.09-3.36.59a3.83,3.83,0,0,0-.34,3.41,14.9,14.9,0,0,0,9.56,8.55c5.53,1.63,12.35-3,15.26-6.82.94-1.24,1.7-2.67.69-4.19s-2.77-1.46-4.31-1-3.14,1.29-5,2.07A32.09,32.09,0,0,0,589.49,332.81Zm-13.85,4.62.38-.54,4.88,2.87.84,4.11A10.38,10.38,0,0,1,575.64,337.43Zm9.76,7c-2.11-2.58-2.11-15,.1-18.79C587.35,329.48,587.23,340.82,585.4,344.47Zm10.09-6.73.31.56c-1.78,2.63-4.3,4.36-7.52,6,.37-1.54.62-2.56.91-3.8Zm-94.63,301.6c-.08-2.23-2.11-2.94-3.92-3.31-3.16-.64-6.37-1-9.72-1.55a12.24,12.24,0,0,0,1.26-3,5.83,5.83,0,0,0-.42-3.64c-.88-1.33-2.51-.93-3.8-.29a15.2,15.2,0,0,0-8,8.67,11.07,11.07,0,0,0-.42,4.26c.3,4.89,3.21,8.37,6.58,11.55a6.11,6.11,0,0,0,1.85,1.12c2.13.87,4.08-.32,3.89-2.6a22.38,22.38,0,0,0-1.39-4.89,9.9,9.9,0,0,0-.79-1.51c3.71-.5,7.36-.87,11-1.55C498.71,642.23,500.94,641.75,500.86,639.34Zm-14.74-9.87c-1.09,4.44-2.58,6.28-6.94,6.28A13.59,13.59,0,0,1,486.12,629.47Zm-1.6,20.69-5.57-7.1.44-.48,3.39.75,2.74,6.33Zm-6.18-10.94a37.84,37.84,0,0,1,19.34,0C495,641.54,482.08,641.5,478.34,639.22ZM598.09,392.34a41,41,0,0,0-6.89-5.53c-8-4.77-15.74,1.61-18,7.6a3.75,3.75,0,0,0,.6,3.2c.56.61,2.06.67,3.06.49a18.77,18.77,0,0,0,3.74-1.47c.06.58.08,1,.15,1.46.48,3.12.84,6.27,1.51,9.35.32,1.47,1.23,2.93,3.06,2.93s2.32-1.51,2.84-2.89a8,8,0,0,0,.56-1.9c.42-3.32.79-6.65,1.19-10,1.49.63,3,1.43,4.63,1.93s3.23.63,4.31-1A3.13,3.13,0,0,0,598.09,392.34Zm-17.17.61L576,395.82l-.43-.61c1.07-3,3.29-4.92,6.25-6.7C581.49,390,581.25,391.24,580.92,393Zm4.6,13.92a30.1,30.1,0,0,1-.27-18.63A31.88,31.88,0,0,1,585.52,406.87Zm9.89-11.9-6.22-2.72c-.28-1.22-.53-2.29-.86-3.75a18.44,18.44,0,0,1,7.46,5.89ZM414.32,59.38c2.58.93,4.38-.87,3.66-3.52A33.41,33.41,0,0,0,416.46,52c2.69-.32,5.32-.52,7.89-1a12.9,12.9,0,0,0,4.26-1.51c2.3-1.39,2.12-3.54-.28-4.71a10.54,10.54,0,0,0-3-1c-3.31-.47-6.65-.81-9.94-1.19.61-1.56,1.43-3.29,2-5.1.43-1.44.42-3.24-1.16-3.8a4.38,4.38,0,0,0-3.78.54,35.33,35.33,0,0,0-5.87,7.11C401.73,49.53,408.55,57.31,414.32,59.38Zm-.11-22.72.56.3c-.92,2.12-1.84,4.25-2.74,6.31l-3.78.89C409.82,41,411.55,38.46,414.21,36.66ZM427,46.56c-2.86,2.49-15.24,2.72-19.47.4C414.15,45.1,420.37,45.38,427,46.56ZM415.2,57c-3.21-1.1-5.11-3.37-6.79-6.06C412.64,50.73,414.52,52.85,415.2,57Zm21.15,599.13c0,1.58.24,3.64,1.93,3.69a62.61,62.61,0,0,0,10.19-.95c.45-.06,1.09-1.26,1-1.84s-.9-1.26-1.53-1.47a5.74,5.74,0,0,0-2.35.13c-1.61.21-3.22.47-4.76.7V642.72l3.2-.19a10.07,10.07,0,0,0,3.14-.22,3.35,3.35,0,0,0,1.84-2.12c.08-.51-1.09-1.43-1.87-1.81a5.92,5.92,0,0,0-2.54-.32c-1.22,0-2.44.13-4.07.23V623.77l8.06-.39c0-1.89-.84-3.11-2.54-3.15a71.33,71.33,0,0,0-8.88.4,1.6,1.6,0,0,0-1.42,2.37l1.19.94v14.24c-1.62,1.35-3.7,2.27-3.79,3.34-.18,2.24,2.39,1,3.64,1.77,0,.61,0,1.26,0,1.91C436.64,648.84,436.46,652.48,436.35,656.11ZM585.81,697.6c-1.94-2.49-4-4.87-6.07-7.33,1.45-.59,3.14-1.17,4.71-2s2.7-1.86,2.29-3.75a3.09,3.09,0,0,0-3.47-2.37,42.86,42.86,0,0,0-8.78,1.07c-8.94,2.39-9.82,12.35-7.12,18.22a3.47,3.47,0,0,0,2.55,1.75,3.87,3.87,0,0,0,2.56-1.73,20,20,0,0,0,1.6-3.81c1.95,1.56,3.81,3.24,5.86,4.63a14.5,14.5,0,0,0,4.6,2.18c2.65.63,4-1,3-3.56A12.23,12.23,0,0,0,585.81,697.6Zm-1.92-11.93L577,688.49c-1-.64-1.88-1.16-2.71-1.69-.09-.06-.11-.21-.17-.32C576.82,685.08,581.09,684.6,583.89,685.67Zm-14.23,14.84c-1.48-3-1.27-6-.66-9.09A5.89,5.89,0,0,1,569.66,700.51Zm1.64-12.1c6,2.78,10.29,7.37,13.64,13A30.58,30.58,0,0,1,571.3,688.41ZM187.46,53.05c1.35,1.75,3,3.26,4.43,4.81-1.71.73-3.46,1.35-5.08,2.2-1.41.74-2.48,1.9-2.07,3.68a3,3,0,0,0,3.33,2.3A44,44,0,0,0,197,65c8.93-2.38,9.78-12.44,7.08-18.26-1.16-2.48-3.69-2.5-5.07-.11a34.14,34.14,0,0,0-1.68,4c-1.58-1.32-3.06-2.76-4.74-3.9a24.75,24.75,0,0,0-5.36-2.88,3.35,3.35,0,0,0-3,.64,3.41,3.41,0,0,0-.22,3A29.47,29.47,0,0,0,187.46,53.05Zm.88,10.4c-.09-.35-.18-.7-.28-1.05l6.39-2.68,3,1.84.05.69Zm13.36-15.6c1.38,2.1,1.58,4.43.75,8.94C199.32,54.29,199.15,51.37,201.7,47.85Zm-1.56,12a32,32,0,0,1-13.62-13A29.94,29.94,0,0,1,200.14,59.84ZM579.86,66a16.49,16.49,0,0,0,5.86-.42c2.19-.6,2.62-3,.95-4.55a12.5,12.5,0,0,0-3.15-2,23.66,23.66,0,0,0-3-1,38.21,38.21,0,0,0,2.62-3,68.93,68.93,0,0,0,5.21-7.89c1.13-2.19-.31-3.8-2.78-3.44a7.25,7.25,0,0,0-2.94,1.08c-2.66,1.81-5.22,3.76-7.83,5.67A15.56,15.56,0,0,0,573.4,47c-.61-.88-1.79-2-2.64-1.92A3.88,3.88,0,0,0,568,47.09a14.2,14.2,0,0,0,.52,12.8C571,64.27,575.31,65.54,579.86,66Zm4.37-3.69c-.1.37-.19.74-.29,1.1l-9.18-1.18-.06-.59,3-1.93Zm1.49-15.53a31.86,31.86,0,0,1-13.56,13A30.29,30.29,0,0,1,585.72,46.81Zm-15.25.87c2.27,3.28,2.82,6-.63,9.32C569.18,53.73,569,50.71,570.47,47.68ZM201.35,686.17c-3.94-3.5-8.72-4.42-13.81-4-1.62.12-3.24.56-3.61,2.5s.92,3,2.37,3.72,3.23,1.35,5,2.06c-.48.43-.91.82-1.33,1.22a26.22,26.22,0,0,0-6.77,9.19c-1,2.64.29,4.22,3.08,3.69a7.2,7.2,0,0,0,2.72-1.1c2.6-1.79,5.12-3.7,7.73-5.61a14.11,14.11,0,0,0,1.36,3.43c.67.9,1.88,2,2.8,2A3.86,3.86,0,0,0,203.5,701a14.57,14.57,0,0,0-.25-12.1A8.26,8.26,0,0,0,201.35,686.17Zm-14.13-.32.19-.65c3.19-.57,6.24.12,9.62,1.19l-3.3,2.11Zm-1.46,15.55a31.61,31.61,0,0,1,13.57-13A30.08,30.08,0,0,1,185.76,701.4Zm15.25-.69c-2.51-3.46-2.31-6,.57-9.5A14,14,0,0,1,201,700.71Zm255.25-51.34c-1.85-.69-3.11,0-3.44,1.22a8.4,8.4,0,0,0-.13,4.73c1.35,3.8,3.54,4.74,8.28,4.19,4.51-.53,7.21-3.6,6.42-8a26.23,26.23,0,0,0-3-8.7,38.65,38.65,0,0,0-6.52-7.68c-2.65-2.57-3.14-5.51-2.59-8.9a3,3,0,0,1,3.13-2.7,3.92,3.92,0,0,1,4.34,3c.34.95.74,1.88,1.12,2.81l.78,0a4.84,4.84,0,0,0,.82-1.36c.63-3-1.75-6.55-4.79-7.32-3.85-1-7.43.72-8.37,4.05-1.45,5.15-.9,9.84,3.23,13.69a14.81,14.81,0,0,1,2.58,2.74c1.73,2.79,3.76,5.51,4.8,8.56,1.7,5,1,5.68-4.09,6.44a4.48,4.48,0,0,1-.52,0c-2.31-1.49-2.55-2.2-1.94-4.74A6.61,6.61,0,0,0,456.26,649.37Zm-78-591.95a2.69,2.69,0,0,0,2.28.45c.49-.23.79-1.41.71-2.13a6.46,6.46,0,0,1,4.65-7.12c3.73,1,5.36,3.47,5,7.36-.06.62.23,1.63.66,1.84a2.35,2.35,0,0,0,2.12-.19,12.36,12.36,0,0,0,2.73-3.35,11.45,11.45,0,0,0-6-15.81,11.7,11.7,0,0,0-15.23,7.19C373.8,49.83,375.12,55,378.29,57.42Zm2.71-14a7.27,7.27,0,0,1,9.31-.64,7,7,0,0,1,3.11,8.37c-3.74-7.7-10.78-7.51-14.5-.18A6.58,6.58,0,0,1,381,43.38Zm12.21,647.44a2.73,2.73,0,0,0-2.28-.48c-.49.22-.82,1.41-.74,2.11.39,3.54-1.45,6.22-5.07,7.16-3.42-1.19-4.93-3.7-4.56-7.33.07-.62-.19-1.64-.62-1.85a3,3,0,0,0-2.16.15,4.53,4.53,0,0,0-1.43,1.34,11.33,11.33,0,0,0-1.29,12.3c2,3.92,6.81,6.74,10.89,6.4a12,12,0,0,0,10.37-8C397.68,698.42,396.38,693.25,393.21,690.82Zm-3.14,14.27c-3.16,2.32-6.38,2.39-9.34.19a6.91,6.91,0,0,1-2.67-8c4,7.38,10.69,7.47,14.56,0A6.6,6.6,0,0,1,390.07,705.09ZM576.55,371.16a2.35,2.35,0,0,0-2,.74c-.28.53.08,1.45.29,2.16.11.34.51.6.8.87a11.31,11.31,0,0,0,13.09,1.56,11.54,11.54,0,0,0-4.23-21.58,10.55,10.55,0,0,0-9.57,3.71,2.67,2.67,0,0,0-.33,2.3c.18.42,1.33.69,2,.62,3.37-.37,5.94,1.19,7.22,4.62C582.72,370,580.27,371.54,576.55,371.16Zm4.64-12a7.53,7.53,0,0,1,8.45,11.53c-1.95,2.89-4.66,3.94-8.36,3,3.16-1.58,5.86-3.62,5.81-7.17S584.76,360.6,581.19,359.13Zm-387,2.45c.62.07,1.64-.18,1.86-.61a3,3,0,0,0-.14-2.15,4.42,4.42,0,0,0-1.33-1.44,11.49,11.49,0,1,0-13.7,18.43c4.64,3.27,11.48,2.59,14.76-1.57a2.71,2.71,0,0,0,.51-2.28c-.22-.48-1.4-.83-2.1-.76-3.57.39-6.21-1.4-7.17-5C188,362.74,190.54,361.2,194.16,361.58Zm-5,12a6.44,6.44,0,0,1-7.38-2c-2.59-3.1-2.89-6.44-.86-9.48a7.18,7.18,0,0,1,8.43-3.05C182.29,362.55,181.19,369.57,189.15,373.58ZM338,623.86a29,29,0,0,0,5.29-.62,2.74,2.74,0,0,0,1.69-2c0-.66-1.15-1.33-1.89-1.85-.31-.22-.9-.1-1.36-.06-2.37.24-4.75.42-7.09.81a15,15,0,0,0-3.05,1.11V661c4.54-1,8.66-1.85,12.73-2.88a2.21,2.21,0,0,0,1-1.85,2.24,2.24,0,0,0-1.46-1.54,11.09,11.09,0,0,0-3.72.16c-1.72.33-3.39.87-5.1,1.33V644.09l8.2-1.48c.33-2.61-.55-3.55-2.8-3.42-1.77.1-3.52.44-5.45.69-.29-5.43-.56-10.61-.84-16C335.49,623.87,336.73,623.94,338,623.86ZM412.72,658a43,43,0,0,0,4.29-5.82c.7-1.1.88-2.57-.61-3.26s-2.26.53-3,1.74c-1,1.65-2.21,3.14-3.26,4.61-2.74-.9-4.08-2.32-4.65-4.59a40.24,40.24,0,0,1-1.1-15c.46-3.6.92-7.29,3.4-10.21,2.23-2.64,4.16-2.57,6.41,0l1.86,2.15.72-.17a4.34,4.34,0,0,0,.48-1.51c-.29-3.71-5.27-6.66-8.7-5.16a11.51,11.51,0,0,0-6.32,7,40.14,40.14,0,0,0-.57,25c.85,3,3,4.78,5.71,6C409.31,659.69,411.29,659.63,412.72,658ZM456,565.34c1.71-.57,3.45-1,5.4-1.59-2.38-.77-4.52-1.35-6.58-2.16a6.11,6.11,0,0,1-4.07-5.57c-.33-3.49-1-6.93-1.61-10.39,0-.24-.28-.45-.64-1-.65,4-1.44,7.67-1.77,11.34-.29,3.2-2.06,4.9-4.77,5.92-1.48.56-3,.91-4.55,1.36-.38.11-.75.27-1.22.44,2.39.8,4.61,1.43,6.73,2.31a5.67,5.67,0,0,1,3.71,5c.46,3.85,1.19,7.67,1.81,11.51l.59,0c.57-3.5,1.38-7,1.64-10.51S452.82,566.4,456,565.34ZM457,139.05c.28,3,.86,5.89,1.33,8.83.14.84.35,1.67.53,2.51a55,55,0,0,0,2.18-10.8c.3-3.35,2.08-5.18,5-6.21,1.77-.63,3.61-1.09,5.59-1.68-2.47-.85-4.74-1.54-6.93-2.43a5.45,5.45,0,0,1-3.51-4.87c-.22-2.17-.62-4.32-1-6.48-.29-1.67-.64-3.32-1-5a50.23,50.23,0,0,0-2.11,10.61c-.26,3.66-2.34,5.44-5.43,6.51-1.3.46-2.67.75-4,1.13-.37.1-.73.26-1.21.43,2.4.81,4.63,1.43,6.75,2.3A5.74,5.74,0,0,1,457,139.05ZM251.33,299c.44-.15.89-.29,1.23-.39-2.5-1-5-1.83-7.38-2.91a4.79,4.79,0,0,1-2.76-4.08c-.32-2.49-.78-5-1.19-7.44-.24-1.43-.52-2.85-.78-4.27a69.24,69.24,0,0,0-2.34,11.32,5.62,5.62,0,0,1-3.53,4.87c-2.17.92-4.44,1.61-6.92,2.49,1.74.47,3.28.81,4.77,1.3,3.24,1.05,5.69,2.79,5.8,6.64a26.63,26.63,0,0,0,.59,3.72c.4,2.31.79,4.63,1.19,6.95a82.25,82.25,0,0,0,2.37-11.7,5.23,5.23,0,0,1,3-4.37A60.93,60.93,0,0,1,251.33,299ZM376.07,657.45a5.8,5.8,0,0,0,.29-2.33c0-3.84-.1-7.68-.05-11.52.08-6.41.25-12.81.39-19.36a35.31,35.31,0,0,0,5.33-.09,2.53,2.53,0,0,0,1.54-1.83,2.32,2.32,0,0,0-1.44-1.74,39.29,39.29,0,0,0-14.41.16c0,.71-.31,1.86-.08,2,1.7.82,3.51,1.44,5.46,2.19,0,0,0,.43,0,.83q-.39,14.78-.75,29.56a4.4,4.4,0,0,0,.37,2.3,2.54,2.54,0,0,0,1.83,1.1C375.07,658.7,375.81,658,376.07,657.45Zm48.11-34.35a7.22,7.22,0,0,0-.81-2.11l-.76,0a11.83,11.83,0,0,0-1,2.82c-.31,3.82-.53,7.65-.7,11.49-.29,6.87-.5,13.75-.78,20.62-.08,2.19.52,3.14,2.83,3.13,3.63,0,7.26-.31,10.88-.62.69-.06,1.33-.77,1.92-1.14-.61-2.07-1.93-2.38-3.39-2.4-2.69,0-5.39,0-8.23,0,.18-4.67.5-9.23.49-13.79C424.64,635.13,424.39,629.12,424.18,623.1Zm85.5-259.53c.14,2.28.69,4.54,1.05,6.81l.55,0c.24-1.54.54-3.08.7-4.62.58-5.34,1.62-6.79,5.7-7.84.68-.18,1.35-.41,2.5-.76l-2.66-.68c-3-.79-5.09-2.22-5.18-5.78a46.94,46.94,0,0,0-1.12-6.69,40.06,40.06,0,0,0-1.75,8,4.38,4.38,0,0,1-2.89,3.7c-1.36.58-2.79,1-4.51,1.56,1,.3,1.7.51,2.39.7C507.34,358.78,509.48,360.15,509.68,363.57Zm2.72,129.08a22,22,0,0,0,.8,4.26,11.14,11.14,0,0,0,1.11-4.25c.24-3.56,1.4-6.3,5.41-6.84a7.57,7.57,0,0,0,1.56-.65c-1.11-.34-2-.58-2.86-.87-2.24-.76-3.72-2-3.78-4.68a40.36,40.36,0,0,0-1-6l-.51-.09c-.28,1.67-.63,3.33-.81,5-.42,3.92-1.24,5-5,6.11-.55.16-1.12.29-1.88.49a4.19,4.19,0,0,0,1,.51C510.51,486.25,512.41,488.56,512.4,492.65ZM314.1,145.37a19.79,19.79,0,0,0,.82,4.22,11.45,11.45,0,0,0,1.07-4.1c.28-3.28,1.05-6.16,4.9-6.9.69-.13,1.36-.39,2.05-.59v-.37c-.38,0-.78,0-1.15-.12-3.61-.71-4.81-1.94-5.41-5.43-.32-1.91-.68-3.81-1-5.71l-.5,0c-.29,1.64-.65,3.27-.83,4.91-.44,4-1.71,5.43-5.57,6.25l-1.42.3a6.72,6.72,0,0,0,1,.46C312,139,314.21,141.09,314.1,145.37Zm-70.8,306c-.34-1.87-.67-3.75-1-5.62a22.33,22.33,0,0,0-1.36,5.39c-.58,3.84-1.76,5.13-5.51,5.91l-1.48.28a4.77,4.77,0,0,0,1,.46c4.24.6,6.11,3.11,6.19,7.3a24.19,24.19,0,0,0,.81,4.24,14.44,14.44,0,0,0,1-4.36c.27-3.43,1.3-6.23,5.21-6.9a21.63,21.63,0,0,0,2.26-.74l-1.28-.25C245.19,456.45,244,455.31,243.3,451.41ZM388.06,185.57c-.34-1.88-.66-3.76-1-5.64l-.45-.12c-.29,1.73-.63,3.45-.87,5.19-.58,4.2-1.88,5.54-6.08,6.21-.24,0-.48.11-1.08.25.87.33,1.4.57,2,.72,3.93,1.09,4.61,1.88,5.19,5.94.25,1.79.6,3.58.9,5.36a21.44,21.44,0,0,0,1.43-6.22c.13-3.06,2.06-4.21,4.55-5l2-.64a1.34,1.34,0,0,0-.87-.44C389.89,190.5,388.75,189.37,388.06,185.57ZM454,512.11a1.82,1.82,0,0,0,3.32-.05c.86-1.61.15-5.63-1.22-6.94C454,506.2,452.76,510.26,454,512.11Zm-269.07-75c0-1.41-.6-2.5-2.11-2.57s-2.07.91-2.44,2.77c.82.62,1.57,1.61,2.48,1.79C184,439.37,184.92,438.58,184.88,437.15ZM588,434.58a2,2,0,0,0-2.13,1.94c-.07,2,.79,2.69,2,2.67A2,2,0,0,0,590,436.9C590,435.54,589.42,434.53,588,434.58Zm-406.3-9.52a3.53,3.53,0,0,0-.66,2.75c.42,1.56,1.81,1.43,3.28,1a2.54,2.54,0,0,0-.23-3.61C183.53,424.79,182,424.68,181.65,425.06Zm405.17.06c-1.26.86-1.37,2.28-.4,3.7,3,.57,3.84-.3,3.18-3.79C588.72,425,587.48,424.66,586.82,425.12ZM587.43,313c.63.53,1.88.33,2.9.46.77-3.75-.21-4.74-3.14-3.95A2.38,2.38,0,0,0,587.43,313Zm-402.65.07c1.09-.91,1.24-2.25.27-3.65-1.38-.39-2.77-.58-3.23,1a3.49,3.49,0,0,0,.57,2.78C182.69,313.59,184.26,313.53,184.78,313.1Zm0,133.47a2,2,0,0,0-4,0c-.48,1.45.48,2.3,2,2.65C184.29,448.87,185.25,448,184.76,446.57ZM587.9,445a2.76,2.76,0,0,0-2,1.64c-.46,1.43.49,2.31,2,2.65,1.54-.36,2.48-1.23,2-2.68A2.74,2.74,0,0,0,587.9,445ZM438.66,702.64a2,2,0,0,0-2,2.39c.12.8,1,1.48,1.31,1.86,2.15,0,2.75-.87,2.76-2.11A1.89,1.89,0,0,0,438.66,702.64Zm2.86-659.2c0-1.13-.5-2.07-1.86-2.11s-2.19.43-2.37,2.55c.53.42,1.27,1.43,2.19,1.64C440.79,45.8,441.53,44.72,441.52,43.44Zm-109,2.12c1.48.18,2.12-.76,2.5-2.72a6.26,6.26,0,0,0-1.93-1.43c-1.31-.4-2.16.43-2.32,1.74A1.93,1.93,0,0,0,332.52,45.56ZM332,702.65a1.89,1.89,0,0,0-2,2.19c.05,1.26.68,2.13,2.84,2,.27-.38,1.14-1.09,1.24-1.89A2,2,0,0,0,332,702.65ZM222.53,45.81l.95,0c.57-.81,1.6-1.63,1.57-2.42a2.87,2.87,0,0,0-1.9-2,1.68,1.68,0,0,0-2.07,2C221.18,44.29,222,45,222.53,45.81Zm79.64,0h.9c.54-.77,1.43-1.5,1.54-2.33a1.8,1.8,0,0,0-2.05-2.1c-1.36,0-2.22.91-2,2.17C300.72,44.39,301.61,45.08,302.17,45.83Zm-20,0,.94,0c.58-.8,1.61-1.62,1.59-2.41s-1.11-1.77-1.89-2a1.68,1.68,0,0,0-2.09,2C280.8,44.28,281.64,45,282.15,45.81Zm-29.7,0h.94c.54-.83,1.53-1.69,1.47-2.48a2.91,2.91,0,0,0-2-1.87,1.68,1.68,0,0,0-2,2.06C251,44.36,251.9,45.07,252.45,45.83Zm10,0,.95,0c.51-.84,1.47-1.71,1.4-2.49a2.87,2.87,0,0,0-2-1.85,1.66,1.66,0,0,0-2,2C261,44.32,261.88,45.05,262.45,45.84ZM185.56,301.17a2.87,2.87,0,0,0-1.92-1.9c-.78-.06-1.63.92-2.44,1.45v1c.81.55,1.57,1.46,2.43,1.57A1.69,1.69,0,0,0,185.56,301.17Zm405.51-10.42c-.83-.52-1.69-1.49-2.47-1.42a2.91,2.91,0,0,0-1.89,1.94,1.69,1.69,0,0,0,2,2.05c.86-.13,1.6-1.05,2.4-1.61ZM272.26,45.82h.95c.56-.8,1.56-1.62,1.54-2.41a2.88,2.88,0,0,0-1.87-2,1.67,1.67,0,0,0-2.11,1.89C270.86,44.22,271.73,45,272.26,45.82ZM221.84,702.4c-.54.76-1.42,1.46-1.56,2.29a1.7,1.7,0,0,0,2,2.07,2.91,2.91,0,0,0,2-1.88c.06-.78-.93-1.65-1.46-2.47Zm10,0c-.56.75-1.45,1.44-1.6,2.27a1.69,1.69,0,0,0,2,2.09,2.88,2.88,0,0,0,2-1.84c.07-.79-.91-1.66-1.43-2.5ZM588.66,273.45c.86-.12,1.62-1,2.42-1.58,0-.32,0-.64,0-1-.81-.53-1.66-1.51-2.44-1.46a2.93,2.93,0,0,0-1.92,1.91A1.7,1.7,0,0,0,588.66,273.45Zm-327.19,429c-.51.83-1.36,1.63-1.43,2.49a1.68,1.68,0,0,0,2.16,1.85,2.92,2.92,0,0,0,1.81-2c0-.78-1-1.58-1.58-2.37ZM183.72,263.51a1.7,1.7,0,0,0,1.84-2.19,3,3,0,0,0-2-1.81c-.78,0-1.57,1-2.36,1.59l0,1C182.05,262.58,182.85,263.44,183.72,263.51Zm405-13.93a2.88,2.88,0,0,0-2,1.86,1.68,1.68,0,0,0,1.89,2.13c.86-.09,1.64-1,2.46-1.51l0-1C590.29,250.55,589.46,249.54,588.68,249.58Zm-403.12,1.91a2.91,2.91,0,0,0-1.92-1.91c-.78-.05-1.62.93-2.44,1.46v1c.81.55,1.56,1.46,2.43,1.57A1.69,1.69,0,0,0,185.56,251.49Zm402.93-7.86c.86,0,1.7-.87,2.55-1.34l.06-1c-.76-.6-1.52-1.66-2.29-1.68a2.92,2.92,0,0,0-2.09,1.74A1.71,1.71,0,0,0,588.49,243.63Zm-402.93-2.07a2.91,2.91,0,0,0-1.91-1.92c-.78,0-1.63.92-2.45,1.45v1c.8.56,1.56,1.47,2.42,1.58A1.68,1.68,0,0,0,185.56,241.56ZM587.92,604a1.69,1.69,0,0,0-2,2,2.92,2.92,0,0,0,1.86,2c.77.07,1.65-.88,2.48-1.39,0-.32,0-.64,0-1C589.51,605,588.78,604.1,587.92,604ZM289.86,704.63a1.68,1.68,0,0,0,1.86,2.14c.88-.1,1.68-.93,2.52-1.43l0-.92c-.8-.56-1.6-1.57-2.39-1.56A2.83,2.83,0,0,0,289.86,704.63ZM586.72,221.68a1.68,1.68,0,0,0,1.94,2.08c.86-.11,1.62-1,2.42-1.58v-1c-.81-.53-1.66-1.5-2.44-1.45A2.87,2.87,0,0,0,586.72,221.68ZM183,219.35c-.49.84-1.42,1.73-1.34,2.51a2.84,2.84,0,0,0,1.93,1.89,1.68,1.68,0,0,0,2-2.05c-.17-.87-1.07-1.6-1.65-2.39Zm408.07-8.08c-.82-.53-1.68-1.5-2.45-1.44a2.92,2.92,0,0,0-1.91,1.93,1.69,1.69,0,0,0,2,2.06c.86-.12,1.61-1,2.4-1.59ZM299.8,704.72a2.86,2.86,0,0,0,1.87,2c.78.08,1.67-.88,2.51-1.39l0-.91c-.76-.56-1.45-1.42-2.29-1.6A1.66,1.66,0,0,0,299.8,704.72Zm9.87,0c0,1.32.79,2.26,2.1,2.06.84-.14,1.57-1,2.35-1.5l0-.86c-.76-.56-1.44-1.42-2.28-1.62C310.56,702.5,309.7,703.4,309.67,704.72Zm139.2-1.85a2.69,2.69,0,0,0-1.8,2,2.64,2.64,0,0,0,1.91,1.86c.8,0,1.64-1,2.45-1.52l0-1C450.55,703.73,449.66,702.78,448.87,702.87Zm140-512.94a1.77,1.77,0,0,0-2.26,1.8,1.83,1.83,0,0,0,1.9,2.22c.84,0,1.64-.82,2.45-1.27,0-.29.08-.59.11-.89C590.39,191.14,589.75,190.16,588.91,189.93Zm-405.24,4a1.69,1.69,0,0,0,1.89-2.14,2.92,2.92,0,0,0-2-1.86c-.78,0-1.6,1-2.4,1.53l0,1C182,193,182.8,193.86,183.67,194ZM459.4,702.4h-.95c-.53.82-1.51,1.66-1.46,2.45s1.13,1.72,1.91,1.9a1.67,1.67,0,0,0,2.06-2C460.84,704,460,703.2,459.4,702.4ZM587.76,454.91a1.69,1.69,0,0,0-1.84,2.18,2.91,2.91,0,0,0,2,1.81c.78,0,1.57-1,2.36-1.59,0-.32,0-.64,0-1C589.43,455.83,588.62,455,587.76,454.91ZM489.14,702.38l-.9,0c-.52.78-1.4,1.52-1.49,2.35a1.8,1.8,0,0,0,2.09,2.06c1.34-.07,2.2-.94,1.94-2.21C490.61,703.8,489.71,703.12,489.14,702.38Zm-308.74-235c.8.55,1.63,1.55,2.41,1.51a2.9,2.9,0,0,0,1.95-1.88,1.69,1.69,0,0,0-1.9-2.12c-.87.1-1.64,1-2.45,1.53Zm407.36-2.48a1.69,1.69,0,0,0-1.84,2.18,2.91,2.91,0,0,0,2,1.81c.78,0,1.57-1,2.36-1.58,0-.33,0-.65,0-1C589.43,465.78,588.63,464.91,587.76,464.85ZM185.56,181.94a2.93,2.93,0,0,0-1.91-1.92c-.78-.06-1.63.92-2.45,1.45v1c.8.56,1.56,1.47,2.42,1.58A1.68,1.68,0,0,0,185.56,181.94Zm-5.15,295.42c.83.51,1.69,1.48,2.47,1.41a2.91,2.91,0,0,0,1.89-1.94,1.69,1.69,0,0,0-2-2.05c-.86.13-1.6,1.05-2.4,1.61Zm407.4,1.41c.77.07,1.64-.9,2.46-1.42l0-1c-.79-.56-1.53-1.48-2.39-1.61a1.69,1.69,0,0,0-2,2.05A2.91,2.91,0,0,0,587.81,478.77Zm3.25-307.31c-.83-.51-1.72-1.46-2.49-1.38a2.88,2.88,0,0,0-1.85,2,1.68,1.68,0,0,0,2,2c.86-.15,1.58-1.08,2.37-1.66ZM182.27,484.33c-.51.84-1.47,1.7-1.41,2.49a2.82,2.82,0,0,0,1.88,1.93,1.67,1.67,0,0,0,2-2c-.16-.88-1-1.64-1.59-2.45Zm316.8,218.06-.89,0c-.53.78-1.4,1.52-1.5,2.35a1.8,1.8,0,0,0,2.09,2.06c1.35-.07,2.2-.94,1.94-2.21C500.54,703.8,499.65,703.13,499.07,702.39ZM185.56,171.92a2.91,2.91,0,0,0-2-1.84c-.78,0-1.59,1-2.38,1.55l0,1c.82.52,1.61,1.4,2.48,1.47A1.69,1.69,0,0,0,185.56,171.92Zm-2.79,326.73a2.89,2.89,0,0,0,2-1.84,1.69,1.69,0,0,0-1.87-2.15c-.86.08-1.65.95-2.48,1.48l0,1C181.19,497.66,182,498.68,182.77,498.65Zm326.4,203.76h-1c-.55.8-1.56,1.61-1.53,2.4a2.89,2.89,0,0,0,1.85,2,1.68,1.68,0,0,0,2.12-1.89C510.56,704,509.69,703.23,509.17,702.41Zm19.86,0h-1c-.55.81-1.55,1.63-1.52,2.41a2.87,2.87,0,0,0,1.86,2,1.67,1.67,0,0,0,2.11-1.9C530.42,704,529.55,703.22,529,702.41Zm9.83,0-1,0c-.52.83-1.48,1.69-1.42,2.48a2.87,2.87,0,0,0,1.94,1.87,1.68,1.68,0,0,0,2-2C540.33,703.92,539.42,703.18,538.86,702.39ZM590.27,506c-.84-.51-1.64-1.37-2.51-1.44a1.7,1.7,0,0,0-1.84,2.19,2.91,2.91,0,0,0,2,1.8c.78,0,1.57-1,2.36-1.58Zm-1.69-345.88a2.9,2.9,0,0,0-1.86,2,1.68,1.68,0,0,0,2,2c.86-.14,1.59-1.07,2.37-1.65l0-1C590.22,161,589.35,160.07,588.58,160.15ZM182.79,514.53c-.86.13-1.6,1.05-2.4,1.62l0,1c.83.52,1.7,1.48,2.47,1.42a3,3,0,0,0,1.89-1.95A1.68,1.68,0,0,0,182.79,514.53Zm-1.6-351.95c.81.55,1.57,1.45,2.44,1.56a1.69,1.69,0,0,0,1.93-2.1,2.89,2.89,0,0,0-1.93-1.89c-.78-.05-1.62.93-2.43,1.46ZM586.72,301.16a1.69,1.69,0,0,0,1.93,2.1c.86-.11,1.62-1,2.43-1.56v-1c-.82-.53-1.66-1.51-2.43-1.46A2.89,2.89,0,0,0,586.72,301.16Zm-402,225.37a1.69,1.69,0,0,0-2-2.07c-.86.13-1.61,1-2.4,1.6v1c.82.52,1.68,1.49,2.45,1.43A2.92,2.92,0,0,0,184.77,526.53Zm405.49-.63c-.83-.5-1.64-1.37-2.5-1.43a1.69,1.69,0,0,0-1.84,2.18,2.91,2.91,0,0,0,2,1.81c.78,0,1.57-1,2.36-1.58Zm0,9.94c-.83-.51-1.63-1.37-2.5-1.44a1.7,1.7,0,0,0-1.84,2.19,2.93,2.93,0,0,0,2,1.81c.78,0,1.57-1,2.36-1.59C590.29,536.49,590.28,536.16,590.26,535.84ZM182.84,548.33a2.87,2.87,0,0,0,1.92-1.91,1.68,1.68,0,0,0-1.94-2.08c-.86.11-1.62,1-2.42,1.57v1C181.22,547.4,182.07,548.39,182.84,548.33Zm407.43-2.53c-.83-.52-1.63-1.39-2.5-1.46a1.7,1.7,0,0,0-1.85,2.17,2.91,2.91,0,0,0,2,1.82c.78,0,1.58-1,2.37-1.56Zm-407.36,8.48c-.87.07-1.66.94-2.49,1.46l0,1c.79.56,1.59,1.58,2.37,1.56a2.92,2.92,0,0,0,2-1.82A1.69,1.69,0,0,0,182.91,554.28Zm403,2.17a2.94,2.94,0,0,0,2,1.82c.78,0,1.58-1,2.37-1.56l0-1c-.83-.52-1.63-1.39-2.49-1.46A1.69,1.69,0,0,0,585.92,556.45Zm-401.16,9.89a1.68,1.68,0,0,0-1.9-2.12c-.86.09-1.64,1-2.45,1.52v1c.8.55,1.63,1.55,2.41,1.51A2.88,2.88,0,0,0,184.76,566.34Zm-1.95,11.81a2.9,2.9,0,0,0,1.95-1.88,1.68,1.68,0,0,0-1.9-2.12c-.87.1-1.64,1-2.45,1.53v1C181.2,577.19,182,578.19,182.81,578.15Zm403.11,8.09a2.91,2.91,0,0,0,2,1.84c.78,0,1.59-1,2.38-1.54,0-.33,0-.65,0-1-.82-.52-1.61-1.4-2.48-1.48A1.69,1.69,0,0,0,585.92,586.24ZM180.41,596.6c.83.52,1.69,1.49,2.47,1.42a2.91,2.91,0,0,0,1.89-1.94,1.68,1.68,0,0,0-2-2.05c-.86.12-1.6,1-2.4,1.61Zm2.48,7.36c-.86.08-1.65,1-2.47,1.48l0,1c.8.56,1.61,1.58,2.39,1.55a2.88,2.88,0,0,0,2-1.84A1.69,1.69,0,0,0,182.89,604Zm.83-509.38a1.7,1.7,0,0,0,1.84-2.19,2.93,2.93,0,0,0-2-1.81c-.78,0-1.57,1-2.36,1.59l0,1C182.05,93.65,182.85,94.51,183.72,94.58ZM585.92,616a2.89,2.89,0,0,0,1.91,1.91c.78.06,1.63-.92,2.45-1.45v-1c-.81-.56-1.56-1.47-2.42-1.58A1.68,1.68,0,0,0,585.92,616Zm2.74-471.72c.86-.11,1.62-1,2.42-1.57v-1c-.81-.53-1.66-1.51-2.43-1.46a2.91,2.91,0,0,0-1.92,1.91A1.68,1.68,0,0,0,588.66,144.26Zm-407.45-1.48c.82.53,1.61,1.4,2.48,1.48a1.69,1.69,0,0,0,1.87-2.15,2.91,2.91,0,0,0-2-1.84c-.78,0-1.59,1-2.38,1.54Zm407.41-8.46c.86-.09,1.64-1,2.45-1.51,0-.32,0-.65,0-1-.8-.54-1.63-1.54-2.41-1.5a2.89,2.89,0,0,0-1.95,1.86A1.68,1.68,0,0,0,588.62,134.32ZM184.76,625.92a1.68,1.68,0,0,0-1.94-2.08c-.86.11-1.62,1-2.42,1.57v1c.82.53,1.66,1.51,2.44,1.46A2.91,2.91,0,0,0,184.76,625.92Zm401.16,0a2.89,2.89,0,0,0,1.9,1.93c.78.06,1.63-.91,2.46-1.43,0-.32,0-.64,0-1-.8-.56-1.55-1.48-2.41-1.6A1.68,1.68,0,0,0,585.92,625.9Zm2.71-511.45c.87-.1,1.64-1,2.45-1.53v-1c-.81-.54-1.64-1.53-2.42-1.49a2.89,2.89,0,0,0-1.94,1.88A1.68,1.68,0,0,0,588.63,114.45Zm-403.07-2.16a2.89,2.89,0,0,0-2-1.83c-.77,0-1.58,1-2.37,1.55l0,1c.83.52,1.62,1.4,2.48,1.47A1.7,1.7,0,0,0,185.56,112.29Zm0-9.8a2.9,2.9,0,0,0-1.86-2c-.78-.07-1.65.88-2.49,1.39l0,1c.79.58,1.52,1.51,2.37,1.65A1.69,1.69,0,0,0,185.56,102.49Zm401.16-10.1a1.7,1.7,0,0,0,1.83,2.19c.87-.07,1.68-.93,2.51-1.44,0-.32,0-.65,0-1-.79-.57-1.58-1.6-2.36-1.59A2.91,2.91,0,0,0,586.72,92.39Zm-406.3,544c.82.52,1.69,1.48,2.46,1.42a2.93,2.93,0,0,0,1.89-1.95,1.7,1.7,0,0,0-2-2.05c-.85.13-1.59,1.05-2.39,1.62Zm405.5-.53a2.92,2.92,0,0,0,1.88,1.95c.78.06,1.64-.9,2.47-1.42,0-.32,0-.64,0-1-.79-.57-1.53-1.49-2.39-1.62A1.69,1.69,0,0,0,585.92,635.82Zm.8-553.33a1.69,1.69,0,0,0,1.87,2.15c.86-.08,1.65-1,2.47-1.48l0-1c-.8-.56-1.61-1.58-2.38-1.55A2.89,2.89,0,0,0,586.72,82.49ZM182.81,647.74a1.66,1.66,0,0,0,2-2c-.19-.88-1.09-1.61-1.67-2.4l-.91.05c-.49.84-1.41,1.74-1.34,2.53A2.85,2.85,0,0,0,182.81,647.74Zm.78-563.11a1.69,1.69,0,0,0,2-2c-.17-.87-1.07-1.6-1.65-2.39l-.92,0c-.49.84-1.42,1.73-1.34,2.51A2.84,2.84,0,0,0,183.59,84.63Zm-.71,573a2.91,2.91,0,0,0,1.89-1.94,1.69,1.69,0,0,0-2-2.05c-.86.13-1.6,1.05-2.4,1.61l0,1C181.24,656.74,182.1,657.71,182.88,657.64ZM538.68,45.79l.89.05c.59-.72,1.5-1.38,1.68-2.2.29-1.26-.55-2.15-1.89-2.24a1.8,1.8,0,0,0-2.13,2C537.31,44.25,538.17,45,538.68,45.79Zm47.24,619.8a2.88,2.88,0,0,0,1.85,2c.77.09,1.65-.86,2.49-1.35,0-.33,0-.65,0-1-.78-.58-1.5-1.52-2.36-1.67A1.69,1.69,0,0,0,585.92,665.59ZM509.85,45.83c.56-.75,1.45-1.44,1.6-2.27a1.69,1.69,0,0,0-2-2.09,2.89,2.89,0,0,0-2,1.85c-.07.78.91,1.66,1.43,2.5Zm-9.9,0c.54-.8,1.43-1.56,1.56-2.42a1.67,1.67,0,0,0-2.06-1.94,2.86,2.86,0,0,0-1.91,1.9c-.05.78.92,1.63,1.45,2.44Zm-9.89,0c.53-.81,1.41-1.59,1.51-2.45a1.67,1.67,0,0,0-2.1-1.9,2.88,2.88,0,0,0-1.88,1.94c0,.78,1,1.61,1.52,2.41Zm-9.93,0c.53-.77,1.38-1.49,1.51-2.32a1.68,1.68,0,0,0-2-2,2.89,2.89,0,0,0-1.95,1.91c0,.79,1,1.63,1.52,2.45ZM185.56,271.4a2.91,2.91,0,0,0-1.89-1.95c-.77-.07-1.64.9-2.46,1.42l0,1c.79.57,1.53,1.49,2.39,1.62A1.69,1.69,0,0,0,185.56,271.4Zm85.89,431c-.52.82-1.38,1.6-1.48,2.47a1.68,1.68,0,0,0,2.13,1.88,2.89,2.89,0,0,0,1.85-2c0-.79-1-1.6-1.54-2.4ZM459.23,45.81l.89,0c.57-.74,1.47-1.41,1.64-2.24.26-1.26-.59-2.13-1.94-2.21a1.8,1.8,0,0,0-2.09,2.06C457.83,44.29,458.7,45,459.23,45.81Zm-9.94,0,.89,0c.57-.74,1.47-1.41,1.64-2.24.26-1.26-.59-2.14-1.94-2.21a1.79,1.79,0,0,0-2.08,2.06C447.9,44.28,448.76,45,449.29,45.81Zm-216.8,0,.94,0C234,45,235,44.2,235,43.41a2.89,2.89,0,0,0-1.91-1.94,1.69,1.69,0,0,0-2.07,2C231.12,44.3,232,45,232.49,45.81Zm10,0h1c.55-.8,1.54-1.63,1.51-2.41s-1.09-1.74-1.87-1.94a1.67,1.67,0,0,0-2.1,1.9C241.06,44.23,241.93,45,242.46,45.82Zm-58.8,247.5a1.69,1.69,0,0,0,1.9-2.13,2.9,2.9,0,0,0-2-1.86c-.78,0-1.61,1-2.41,1.51v1C182,292.34,182.8,293.23,183.66,293.32Zm405-13.93a2.88,2.88,0,0,0-2,1.84,1.69,1.69,0,0,0,1.87,2.15c.87-.08,1.65-1,2.48-1.48,0-.32,0-.65,0-1C590.29,280.37,589.48,279.36,588.7,279.39Zm-405.15,4a1.68,1.68,0,0,0,2-2,2.88,2.88,0,0,0-1.85-2c-.78-.08-1.66.87-2.49,1.37,0,.32,0,.64,0,1C182,282.3,182.69,283.24,183.55,283.38Zm405.1-19.87c.86-.11,1.62-1,2.43-1.56v-1c-.82-.54-1.66-1.52-2.43-1.47a2.89,2.89,0,0,0-1.93,1.89A1.69,1.69,0,0,0,588.65,263.51Zm0-29.81c.86-.09,1.64-1,2.45-1.52l0-1c-.81-.54-1.63-1.54-2.41-1.51a2.92,2.92,0,0,0-2,1.87A1.69,1.69,0,0,0,588.62,233.7Zm-403.06-2.17a2.93,2.93,0,0,0-2-1.83c-.78,0-1.58,1-2.38,1.57l0,1c.83.52,1.63,1.4,2.49,1.47A1.7,1.7,0,0,0,185.56,231.53Zm0-19.82a2.92,2.92,0,0,0-1.95-1.88c-.77,0-1.61.95-2.42,1.49v1c.81.54,1.58,1.43,2.44,1.53A1.68,1.68,0,0,0,185.56,211.71Zm401.16-10a1.69,1.69,0,0,0,1.9,2.13c.87-.1,1.64-1,2.45-1.53,0-.32,0-.64,0-1-.8-.55-1.63-1.55-2.41-1.51A2.91,2.91,0,0,0,586.72,201.76Zm-401.16,0a2.92,2.92,0,0,0-2-1.83c-.78,0-1.59,1-2.38,1.55l0,1c.83.52,1.62,1.4,2.48,1.48A1.7,1.7,0,0,0,185.56,201.72ZM184.78,457c-.13-.89-1-1.68-1.49-2.51l-.91,0c-.55.82-1.54,1.64-1.52,2.44a2.82,2.82,0,0,0,1.8,2A1.67,1.67,0,0,0,184.78,457ZM588.66,184c.86-.11,1.62-1,2.42-1.56v-1c-.82-.53-1.66-1.51-2.44-1.46a2.91,2.91,0,0,0-1.92,1.9A1.68,1.68,0,0,0,588.66,184ZM585.92,486.8a2.88,2.88,0,0,0,1.92,1.91c.77.06,1.62-.92,2.44-1.45v-1c-.8-.55-1.56-1.46-2.42-1.57A1.69,1.69,0,0,0,585.92,486.8Zm0,9.94a2.89,2.89,0,0,0,1.92,1.9c.78.06,1.62-.92,2.44-1.46v-1c-.81-.55-1.57-1.45-2.43-1.56A1.68,1.68,0,0,0,585.92,496.74ZM469.11,45.79l.93.06c.58-.8,1.62-1.6,1.6-2.38a2.89,2.89,0,0,0-1.86-2,1.68,1.68,0,0,0-2.11,1.94C467.75,44.24,468.6,45,469.11,45.79ZM182.92,508.58a2.89,2.89,0,0,0,1.84-2,1.68,1.68,0,0,0-2-2c-.86.15-1.58,1.09-2.36,1.68l0,1C181.26,507.73,182.15,508.67,182.92,508.58Zm404.92,9.94c.77.06,1.62-.92,2.44-1.45,0-.32,0-.64,0-1-.8-.56-1.56-1.47-2.42-1.58a1.69,1.69,0,0,0-2,2.08A2.91,2.91,0,0,0,587.84,518.52ZM548.66,45.81l.89,0c.57-.74,1.47-1.41,1.64-2.24.27-1.27-.59-2.13-1.94-2.21a1.81,1.81,0,0,0-2.09,2.06C547.26,44.28,548.13,45,548.66,45.81Zm-256.43,0h.9c.54-.77,1.43-1.5,1.54-2.33a1.8,1.8,0,0,0-2.05-2.1c-1.34,0-2.22.9-2,2.17C290.79,44.39,291.68,45.08,292.23,45.83ZM182.91,617.89a2.91,2.91,0,0,0,1.85-2,1.69,1.69,0,0,0-2-2c-.85.14-1.58,1.08-2.36,1.66l0,1C181.26,617,182.14,618,182.91,617.89ZM528.79,45.81l.93,0c.56-.81,1.58-1.64,1.55-2.42a2.94,2.94,0,0,0-1.92-2,1.68,1.68,0,0,0-2.06,2C527.39,44.29,528.26,45,528.79,45.81Zm59.84,104.4a2.91,2.91,0,0,0-1.92,1.91,1.69,1.69,0,0,0,1.95,2.08c.86-.11,1.62-1,2.42-1.58v-1C590.26,151.13,589.41,150.15,588.63,150.21ZM184.78,536.41c-.18-.88-1.07-1.61-1.64-2.42l-.91,0c-.5.84-1.43,1.72-1.37,2.52a2.83,2.83,0,0,0,1.93,1.88A1.66,1.66,0,0,0,184.78,536.41Zm0,129.31c-.13-.89-1-1.68-1.49-2.51l-.92,0c-.55.81-1.53,1.63-1.51,2.43a2.83,2.83,0,0,0,1.8,2A1.67,1.67,0,0,0,184.78,665.72Zm-1.21-511.53a1.69,1.69,0,0,0,2-2c-.16-.87-1.06-1.61-1.63-2.41l-.91,0c-.5.84-1.44,1.72-1.37,2.51A2.84,2.84,0,0,0,183.57,154.19Zm58.09,548.22c-.53.81-1.4,1.59-1.5,2.45a1.68,1.68,0,0,0,2.11,1.9,2.86,2.86,0,0,0,1.87-2c0-.79-1-1.6-1.53-2.41Zm10,0c-.54.76-1.42,1.46-1.56,2.29a1.7,1.7,0,0,0,2,2.07,2.9,2.9,0,0,0,2-1.88c.06-.78-.93-1.64-1.47-2.47ZM519.79,45.84c.56-.8,1.46-1.54,1.59-2.4a1.67,1.67,0,0,0-2-2,2.87,2.87,0,0,0-1.94,1.87c-.06.78.9,1.64,1.42,2.47Zm68.87,58.68c.86-.12,1.62-1,2.42-1.58v-1c-.81-.53-1.66-1.51-2.44-1.46a2.89,2.89,0,0,0-1.91,1.92A1.69,1.69,0,0,0,588.66,104.52ZM279.92,704.66a1.68,1.68,0,0,0,1.9,2.11c.88-.11,1.66-1,2.49-1.47l0-.92c-.81-.55-1.62-1.54-2.41-1.52A2.83,2.83,0,0,0,279.92,704.66Zm310.34-109.2c-.83-.5-1.63-1.37-2.5-1.43a1.7,1.7,0,0,0-1.84,2.18,2.93,2.93,0,0,0,2,1.81c.78,0,1.57-1,2.36-1.58C590.29,596.11,590.27,595.79,590.26,595.46ZM182.31,583.7c-.53.82-1.5,1.67-1.46,2.46a2.87,2.87,0,0,0,1.86,2,1.67,1.67,0,0,0,2.07-2c-.15-.88-1-1.65-1.55-2.47Zm1.27-449.37a1.69,1.69,0,0,0,2-2.06,2.9,2.9,0,0,0-1.89-1.93c-.78-.07-1.64.89-2.46,1.41l0,1C182,133.28,182.72,134.2,183.58,134.33ZM321.17,702.41c-.53.77-1.39,1.49-1.52,2.32a1.69,1.69,0,0,0,2,2,2.89,2.89,0,0,0,1.95-1.91c0-.79-1-1.63-1.52-2.45Zm269.1-57.22c-.82-.52-1.61-1.4-2.47-1.48a1.69,1.69,0,0,0-1.88,2.15,2.9,2.9,0,0,0,2,1.85c.78,0,1.59-1,2.38-1.55ZM183.6,120.4c-.77,0-1.6.95-2.41,1.5v1c.82.54,1.59,1.43,2.45,1.53a1.69,1.69,0,0,0,1.91-2.12A2.9,2.9,0,0,0,183.6,120.4ZM468.77,702.86a2.86,2.86,0,0,0-1.88,1.94,1.66,1.66,0,0,0,2,2c.88-.18,1.61-1.06,2.4-1.63l0-.92C470.43,703.72,469.55,702.79,468.77,702.86Zm10.48-.47-.89,0c-.55.77-1.45,1.49-1.56,2.32a1.81,1.81,0,0,0,2.06,2.1c1.34,0,2.22-.9,2-2.17C480.69,703.84,479.8,703.14,479.25,702.39Zm109.37-578c.86-.1,1.64-1,2.45-1.52v-1c-.8-.55-1.62-1.55-2.4-1.52a2.92,2.92,0,0,0-2,1.87A1.69,1.69,0,0,0,588.62,124.39Zm-2.7,531.34a2.91,2.91,0,0,0,1.92,1.91c.77.05,1.62-.93,2.44-1.45,0-.32,0-.65,0-1-.81-.55-1.56-1.46-2.42-1.57A1.69,1.69,0,0,0,585.92,655.73Zm1.92-77.59c.77.06,1.62-.92,2.44-1.45v-1c-.8-.55-1.56-1.46-2.42-1.58a1.69,1.69,0,0,0-2,2.08A2.91,2.91,0,0,0,587.84,578.14ZM519.05,702.4h-1c-.53.81-1.52,1.65-1.48,2.43a2.89,2.89,0,0,0,1.9,1.92,1.68,1.68,0,0,0,2.08-1.93C520.48,704,519.59,703.21,519.05,702.4Zm71.22-136.73c-.83-.51-1.63-1.38-2.49-1.45a1.69,1.69,0,0,0-1.86,2.17,2.91,2.91,0,0,0,2,1.82c.78,0,1.58-1,2.37-1.57ZM322,45.82h.95c.55-.82,1.55-1.66,1.5-2.45a2.88,2.88,0,0,0-1.95-1.9,1.69,1.69,0,0,0-2,2C320.58,44.34,321.44,45.05,322,45.82ZM548.78,702.39l-.9,0c-.53.78-1.41,1.52-1.51,2.35a1.79,1.79,0,0,0,2.07,2.07c1.35-.06,2.21-.92,2-2.19C550.24,703.81,549.34,703.13,548.78,702.39ZM312,45.81l.95,0c.57-.81,1.59-1.63,1.57-2.42a2.89,2.89,0,0,0-1.9-2,1.69,1.69,0,0,0-2.08,2C310.62,44.29,311.46,45,312,45.81ZM455.85,502.87c.64.07,1.4-.84,2.1-1.31l0-.9c-.7-.47-1.35-1.24-2.1-1.36a1.56,1.56,0,0,0-1.89,1.88A2.7,2.7,0,0,0,455.85,502.87Zm-107.78-64.4c-3.68-5-5.12-11.46-11.69-13.89.52-.58.83-1,1.2-1.35,2.3-2.2,4.65-4.35,6.88-6.6a8.64,8.64,0,0,0,1.13-2.32l-13.47-2.15a67.68,67.68,0,0,0,1.75-8c.31-3,.07-6.14.07-9.57-5.32,2.27-11.54,2.13-15.64,7.18-1.76-3.56-3.36-6.88-5.07-10.15-.31-.6-1.05-1-1.76-1.6-2.24,4.46-4.25,8.45-6.34,12.59-4-5.89-10.68-5.64-16.59-8.18,1.65,6.2-1.38,12.41,2.87,17.59-4.72,1-9.27,1.07-13.85,2.45l9.88,10.09c-1.88,1.21-3.93,2.14-5.43,3.62-2.6,2.57-4.86,5.49-7.47,8.49,5.94,1.91,11,6.62,18.18,4.2l-2.51,14.29,13-6.7a16.74,16.74,0,0,0,4.67,10.32,31.21,31.21,0,0,1,2.6,3.94l.94,1.45c3.27-5.24,8.52-8.91,8.64-15.77l13.24,6.91c-.87-5.18-1.66-9.93-2.41-14.37,2.23,0,4.46.17,6.65-.05a39.59,39.59,0,0,0,4.78-1.25C344.15,439.2,346,438.88,348.07,438.47Zm-16.86-40.11c0,3.31.31,6.65-.1,9.9-.3,2.41-2.07,4-4.94,3a15.7,15.7,0,0,0-2.84-.48c2-2.57,3.91-5.07,5.76-7.65.19-.27-.28-1-.49-1.76-4.52.44-4.52,4.88-7,7.25L319.36,404C320.69,400.73,326,398.47,331.21,398.36Zm-39.83-.12c4.22.37,8,1.14,11,4,1.33,1.24,1.93,2.63.82,4.38-.55.88-.94,1.85-1.59,3.14-1.34-2.33-2.42-4.29-3.6-6.2s-2.74-2.66-3.64-1.8c-1.51,1.42-.26,2.75.55,3.83,1.37,1.85,3,3.52,4.41,5.18-3.5,2.38-7.23,1-7.86-3.71C291.07,404.21,291.38,401.29,291.38,398.24Zm1.84,39.84c-3.38,3-10,.89-14.13-2.55,3.37-5,5.7-9,10.77-8.46l4.59,4.43c-4,.89-8.6-1.06-11.51,2.7.89,2,2.2,2.07,3.54,1.69,1.71-.49,3.37-1.14,5.06-1.72.67-.22,1.35-.42,2.44-.76C293.67,435.28,293.43,436.79,293.22,438.08Zm18.35,21.3c-5.55-5.84-6.8-8.48-5.7-12.3l5.25-2.77c-.05,3.81-2.91,7.57.6,11.3,3.61-3.42.88-7.21,1.6-10.83l4.36,2.29C318.71,450.94,316.35,455.64,311.57,459.38Zm.25-18.72-17.6,9.1c1.18-6.85,2.27-13.17,3.32-19.28l-13.77-14.2L303,413.54c3-5.91,5.84-11.62,8.9-17.73,1.08,2.09,2,3.82,2.85,5.57,1.75,3.56,3.49,7.13,5.18,10.72a2.88,2.88,0,0,0,2.54,1.81c5.8.76,11.57,1.67,17.29,2.52l-13.63,14.13c1,6.14,2,12.47,3.16,19.33Zm23.38-1.74c-3.53.45-4.62-.57-5.34-4.09-.22-1.08-.34-2.18-.48-3.05,3.15,1.38,6.15,2.74,9.2,4,.3.12.87-.42,1.24-.61.38-2.11-1-2.8-2.36-3.28-2-.72-4.13-1.29-6.75-2.08a26,26,0,0,1,3.32-2.94,2.55,2.55,0,0,1,2.32-.12,25,25,0,0,1,4.78,4.33c1.22,1.58,1.88,3.58,3,5.76A88.09,88.09,0,0,1,335.2,438.92Zm86.3-2.27c5.85,2,11,6.53,18.13,4.24-.83,4.88-1.6,9.38-2.43,14.23L450,448.53c.49,1.73.63,3.49,1.43,4.85,2.13,3.58,4.55,7,7,10.69,3.29-5.1,8.45-8.87,8.66-15.69l13.1,6.87q-1.18-7.54-2.26-14.33a63.31,63.31,0,0,0,6.63-.05,46.56,46.56,0,0,0,5-1.32c1.75-.41,3.52-.69,5.52-1.07-3.66-5-5.13-11.47-11.72-13.93.61-.65,1-1.14,1.5-1.58,2.25-2.15,4.55-4.26,6.74-6.46a7.53,7.53,0,0,0,.94-2.22l-13.81-2.2c.55-1.39,1.38-2.64,1.5-3.95.43-4.41.61-8.85.9-13.64-5.45,2.33-11.62,2.23-15.79,7.18-.38-.7-.67-1.2-.93-1.71-1.36-2.79-2.66-5.61-4.1-8.36-.32-.62-1.07-1-1.81-1.67l-6.36,12.61c-4.16-5.81-10.67-5.66-16.56-8.11,1.52,6.2-1.45,12.4,2.9,17.6l-13.67,2.11,9.76,10.26c-2.11,1.42-4.25,2.45-5.84,4C426.13,430.91,424,433.75,421.5,436.65Zm43.42,12.51a23.25,23.25,0,0,1-2.28,5.84c-1,1.7-2.65,3-4.11,4.66-2.82-4-7.31-6.85-5.8-12.56l5.37-2.84c-.14,3.8-3,7.6.35,11.12,2.57-1.25,2.21-3.19,2.07-5s-.34-3.53-.56-5.71a29.06,29.06,0,0,1,4.21,2.25A2.58,2.58,0,0,1,464.92,449.16Zm25.73-12.24a74.62,74.62,0,0,1-8.39,2c-3.61.46-4.63-.48-5.41-4-.25-1.13-.41-2.28-.66-3.67,3.63,1.41,6.07,5.75,10.74,4-.12-2.77-1.92-3.19-3.62-3.72s-3.38-1-5.31-1.6l3.56-3.52C485,426.11,489.38,431.51,490.65,436.92Zm-12.17-38.73a74.44,74.44,0,0,1-.06,8.35c-.49,4.25-1.76,5.1-5.94,4.62-.83-.09-1.66-.28-2.85-.48,2.45-2.64,5.81-4.17,6.47-7.83-.91-1.72-2.2-1.94-3.47-.38a43.14,43.14,0,0,0-2.8,4.32c-.34.55-.61,1.15-1.1,2.07l-2.6-5C469.08,399.63,473.42,398.78,478.48,398.19Zm-40.37,5.37a40.48,40.48,0,0,1,.45-5.29c4.15.36,8.06,1.19,11.11,4.34a2.85,2.85,0,0,1,.48,3.92,32.57,32.57,0,0,0-1.52,2.9c-2.61-2.55-2.79-7.18-6.94-8.18-1.58,1.44-1.11,2.6-.43,3.45,1.23,1.54,2.67,2.9,4.05,4.32.49.5,1.06.94,2.06,1.81-2.31.26-4.14.75-5.89.55a3.71,3.71,0,0,1-2.44-2.21A20,20,0,0,1,438.11,403.56Zm-7.45,12.73,19.3-2.75,8.93-17.85c2,4.06,4.15,7.78,5.62,11.76,1.71,4.66,4.33,7.14,9.58,7.21,4.18,0,8.34,1.16,12.51,1.81,0,0,.07.1.07.1l-13.62,14c1,6.18,2.08,12.53,3.2,19.3l-17.5-9.25-17.63,9.13,3.36-19.22Zm6,10.72,4.58,4.19c0,.2-.09.4-.13.6-2.06,0-4.14-.16-6.18,0s-4.19.2-4.92,2.78c1.15,1.83,2.6,1.58,4,1.13,2.19-.7,4.34-1.48,6.91-2.36l-.87,4.68c-2.89,2.85-9.25,1.25-14.15-2.57C428.92,431.78,430.79,426.66,436.63,427Zm43.16-181.6c-.8-5-1.55-9.81-2.35-14.9,6.16,2.55,11.25-1.74,17.31-1.66-3.75-5.22-5.24-11.63-11.82-14.13.6-.65,1-1.16,1.47-1.6,2.2-2.1,4.46-4.14,6.61-6.3a9,9,0,0,0,1.14-2.36l-13.64-2.18c.6-2.1,1.53-4.08,1.67-6.11.27-3.7.08-7.43.08-11.37-5.06,2.24-11.27,2.09-15.43,7.09-1.73-3.54-3.26-6.76-4.9-9.92a9.79,9.79,0,0,0-1.85-1.91l-6.39,12.64c-4.14-5.79-10.68-5.62-16.55-8.11,1.54,6.18-1.46,12.38,2.86,17.58l-13.64,2.15,9.87,10.62c-1.15.52-2.45.76-3.26,1.53-3.39,3.24-6.63,6.63-10.19,10.23,6.25,2.07,11.34,6.66,18.5,4.35-.84,4.84-1.61,9.36-2.45,14.25l12.59-6.52c.75,2.11,1.18,4.3,2.26,6.1,1.87,3.13,4.15,6,6.4,9.23,3.19-5,8.42-8.68,8.55-15.58ZM490.33,227a69,69,0,0,1-8.16,2c-3.83.51-4.87-.4-5.72-4.07-.25-1.11-.4-2.25-.68-3.89,1.41,1,2.36,1.78,3.42,2.38a25.19,25.19,0,0,0,4.75,2.33c.68.22,1.66-.53,2.5-.84-.43-.81-.66-2-1.33-2.35a35.4,35.4,0,0,0-5.21-1.86c-.66-.23-1.36-.38-2.4-.67l3.79-3.54C484.47,216.27,488.78,221.29,490.33,227Zm-12.45-38.64a79.34,79.34,0,0,1-.09,9.53c-.39,3.18-1.94,4-5.13,3.5l-3.32-.5c2.3-3,6.77-4.42,6-9.44-4.65.59-4.82,4.74-7.14,7.34L465.78,194C468.77,189.74,473.13,189,477.88,188.39Zm-40.17,6.35a52,52,0,0,1,.45-6.29c4.13.36,8,1.13,11,4.2a3,3,0,0,1,.56,4.09c-.56.88-1,1.85-1.59,3.06-1.25-2.1-2.33-4-3.45-5.82-1.28-2.12-2.93-3-3.85-2.07-1.52,1.63-.11,3,.85,4.15,1.46,1.67,3.2,3.1,5.2,5a34.94,34.94,0,0,1-5.79.52,3.37,3.37,0,0,1-2.27-1.88A15.13,15.13,0,0,1,437.71,194.74Zm2.06,33.31c-2.66,3.1-9.29,1.5-14.25-2.4,3.08-3.76,5-8.85,10.78-8.48l4.87,4.49c-4.15.88-8.71-1-11.7,2.75,1.13,2.21,2.64,2,4.14,1.5,2.19-.68,4.34-1.47,6.89-2.34C440.21,225.36,440,226.82,439.77,228.05Zm1,11.9c1.19-6.81,2.31-13.16,3.42-19.49l-13.78-14,19.21-2.77c3-6,5.89-11.75,8.93-17.83,2,4.12,4.17,7.86,5.67,11.86,1.7,4.58,4.3,7,9.46,7.09,4.11.06,8.22,1.14,12.32,1.78.11,0,.21.13.62.41l-14,13.51L475.88,240l-17.51-9.22Zm23,2.52c-1.18,2.68-3.38,4.92-5.32,7.64-3-4.24-7.49-7.1-6-12.83l5.47-2.87c-.44,3.88-2.82,7.58.41,10.93,3.62-3,1.06-6.74,1.52-10.09C464.62,236.93,465.93,237.43,463.71,242.47ZM292.34,231c-.82,4.76-1.61,9.31-2.48,14.31l12.58-6.47c.89,2.34,1.43,4.64,2.59,6.57,1.78,3,4,5.66,6.17,8.67,3.16-4.91,8.34-8.64,8.54-15.52L333,245.46l-2.42-14.32a36.62,36.62,0,0,0,6.12-.06c3.59-.63,7.11-1.64,10.9-2.54-3.43-5-5.06-11.28-11.65-13.91,2.93-2.79,5.6-5.26,8.17-7.82a9,9,0,0,0,1.18-2.35l-13.83-2.21c.61-1.67,1.53-3.18,1.66-4.75.35-4.15.37-8.33.52-12.8-5.42,2.34-11.64,2.23-15.69,7.19-1.75-3.53-3.33-6.79-5-10a9.6,9.6,0,0,0-1.75-1.82l-6.41,12.69c-4-5.85-10.63-5.6-16.56-8.21,1.65,6.16-1.4,12.36,2.87,17.64L277,204.4,287.42,215c-4.22,1.23-7,3.95-9.28,7.32a26.62,26.62,0,0,1-3,3.15c-.33.35-.65.72-1.17,1.3C280.21,228.75,285.35,233.54,292.34,231Zm18.86,18.77c-2.77-3.93-7.23-6.78-5.82-12.45l5.58-2.94c-.35,1.54-.68,2.64-.82,3.77a24.29,24.29,0,0,0-.37,5.09c.05.72,1.09,1.36,1.68,2,.59-.7,1.61-1.36,1.69-2.11a34.07,34.07,0,0,0-.19-5.33c-.05-.88-.13-1.76-.22-3l4.78,2.49C318.26,242.87,314.78,246.15,311.2,249.76ZM336,216.92a24.09,24.09,0,0,1,4.76,4.35c1.22,1.57,1.87,3.58,3,5.76-3.21.76-6,1.68-9,2.06-3.47.44-4.6-.6-5.23-4-.21-1.12-.36-2.26-.59-3.72,3.6,1.73,6.1,5.49,10.43,4.26.43-2.41-.88-3.11-2.29-3.59-2.05-.71-4.13-1.29-6.66-2.07a26.51,26.51,0,0,1,3.25-3A2.57,2.57,0,0,1,336,216.92Zm-4.93-28.39a69.62,69.62,0,0,1-.08,8.79c-.47,3.76-1.82,4.53-5.63,4.05-.95-.12-1.89-.31-3.19-.52,1.53-1.33,2.85-2.32,4-3.5a11.88,11.88,0,0,0,2.28-3.18,1.62,1.62,0,0,0-2.59-1.94,38.73,38.73,0,0,0-3.16,4.51c-.42.63-.76,1.32-1.31,2.29L319,194.19C320.21,190.79,326,188.61,331.09,188.53Zm-40.23,4.58a41.4,41.4,0,0,1,.37-4.66c4.11.35,7.92,1.14,10.94,4.08a3.09,3.09,0,0,1,.64,4.26,32.36,32.36,0,0,0-1.46,2.89c-2.63-2.62-2.68-7.36-7.64-8.32,0,1.27-.34,2.37.06,3a36,36,0,0,0,3.69,4.33,10.66,10.66,0,0,1,2.08,2.41c-1.8.2-3.66.75-5.39.46a4.23,4.23,0,0,1-2.59-2.59A22.67,22.67,0,0,1,290.86,193.11Zm-7.48,13.36,19.3-2.78L311.56,186c1.12,2.17,2.07,4,3,5.76q2.55,5.17,5,10.37a3,3,0,0,0,2.65,1.95c5.75.75,11.47,1.69,17.21,2.56l-13.68,13.76c1.08,6.53,2.12,12.81,3.26,19.68l-17.53-9.24-17.58,9.1c1.17-6.82,2.25-13.13,3.31-19.29C292.58,215.92,288.12,211.33,283.38,206.47Zm6.27,10.78,4.58,4.72c-2.49,0-4.56-.15-6.6,0s-4.14.27-5,2.58c.85,1.88,2.23,1.83,3.63,1.43,1.65-.48,3.25-1.12,4.88-1.67.67-.23,1.35-.41,2.51-.75-.35,1.91-.6,3.31-.83,4.56-3.06,3.22-10.26.91-14.16-2.52C283.08,218.77,285.33,217.05,289.65,217.25ZM348.16,329c6.13,1.94,11.19,6.63,18.39,4.25-.84,4.86-1.62,9.39-2.47,14.28l12.7-6.57c.58,1.86.81,3.79,1.72,5.32,2,3.41,4.42,6.61,6.81,10.11,3.26-5,8.45-8.77,8.61-15.63l13.14,6.89c-.8-5.07-1.56-9.83-2.36-14.91,6.15,2.52,11.24-1.74,17.29-1.67-3.71-5.28-5.28-11.65-11.91-14.21,2.94-2.79,5.61-5.25,8.19-7.81a9,9,0,0,0,1.18-2.39l-13.87-2.19c.55-1.44,1.38-2.76,1.5-4.13.41-4.35.55-8.73.81-13.43-5.41,2.28-11.54,2.25-15.79,7.22-1.72-3.52-3.28-6.8-5-10-.33-.65-1.11-1.07-1.85-1.75L379,294.9c-4.15-5.78-10.67-5.66-16.54-8.1,1.52,6.15-1.45,12.35,2.89,17.65-2.63.34-4.91.58-7.18.94s-4.34.78-6.8,1.23L361.56,317c-1.51.79-3.09,1.23-4.12,2.23C354.31,322.26,351.39,325.53,348.16,329Zm43.67,12.41a23.3,23.3,0,0,1-2.21,5.85c-1,1.71-2.63,3.08-4.16,4.82-2.89-4-7.24-6.87-5.86-12.53l5.59-3c-.42,1.76-.85,3.07-1,4.42a20.67,20.67,0,0,0-.18,4.71c.07.65,1,1.21,1.48,1.81.64-.57,1.74-1.1,1.81-1.73a35.12,35.12,0,0,0-.08-5.52c-.05-1-.22-1.9-.38-3.2a29.45,29.45,0,0,1,4.13,2.17A2.64,2.64,0,0,1,391.83,341.37Zm18.56-22.17a25.54,25.54,0,0,1,4.81,4.59c1.13,1.47,1.72,3.35,2.7,5.36a75.54,75.54,0,0,1-8.48,2.12c-3.81.51-4.87-.42-5.71-4.1-.26-1.11-.4-2.25-.68-3.89,1.41,1,2.36,1.8,3.41,2.4A26.16,26.16,0,0,0,411.2,328c.68.22,1.66-.52,2.51-.83-.43-.81-.67-2-1.34-2.35a32.82,32.82,0,0,0-5-1.81c-.73-.25-1.49-.42-2.55-.72a18.67,18.67,0,0,1,2.93-3A3,3,0,0,1,410.39,319.2Zm-5.13-28.66a76.76,76.76,0,0,1-.07,9c-.44,3.69-1.8,4.51-5.47,4.07-1-.12-1.91-.29-3.13-.48,2.27-3,6.78-4.41,6.13-9.12-2.64-.56-3.49,1-4.4,2.48s-1.72,2.92-2.76,4.69l-2.5-5C396,291.93,400.4,291.2,405.26,290.54ZM365,297.78c-.09-2.35.26-4.72.42-7.22,3.7.51,7.22,1,10.12,3.4,2.35,1.93,2.55,2.85,1.18,5.57-.35.7-.72,1.39-1.16,2.24-2.63-2.53-2.75-7.21-6.86-8.1-1.59,1.1-1.31,2.28-.61,3.18,1.25,1.59,2.72,3,4.13,4.49.49.51,1.09.93,1.66,1.42C369.13,305.75,365.2,303.57,365,297.78Zm-7.31,10.89,19.23-2.83,8.89-17.74c1.05,2.1,2,3.91,2.86,5.73,1.74,3.56,3.4,7.17,5.26,10.67a3.74,3.74,0,0,0,2.37,1.62c5.19.89,10.41,1.62,15.62,2.41.57.09,1.13.28,1.72.43l-13.65,14,3.19,19.31L385.65,333,368,342.14c1.2-6.8,2.31-13.13,3.4-19.33Zm5.52,10.65,5,4.61c-3.74.64-7.67-.74-10.8,1.86-.29.25-.29.83-.42,1.22,1,1.73,2.42,1.57,3.87,1.11,2.19-.69,4.36-1.46,6.58-2.22.18,4.44-.38,6.05-4.92,6-3.63-.06-6.67-1.82-9.57-3.84C355.94,323.21,358.72,318.83,363.18,319.32ZM374.11,89.08q4.22,12.33,8.46,24.8c-3,.58-6-.47-8.43,1.5l-.08.86a7.78,7.78,0,0,0,2.19.84c5.55.28,11.1.47,16.65.66a2.08,2.08,0,0,0,1.32-.31c.46-.39,1-1,1-1.49a2.05,2.05,0,0,0-1-1.5,4.79,4.79,0,0,0-2.12-.36c-1.62,0-3.24,0-5.23,0l9.7-25.1c.64,0,1.27.07,1.65-.17A19,19,0,0,0,400.44,87a9.26,9.26,0,0,0-2.18-1.82,6.18,6.18,0,0,0-2.55-.09q-11.9.39-23.8.81c-1.28,0-2.24.41-1.78,2.33Zm18.71,0-7.24,19.52c-2.36-6.71-4.59-13-6.86-19.52Z"/></svg>