<svg xmlns="http://www.w3.org/2000/svg" viewBox="0 0 750 750"><path d="M606.15,48.21a27.15,27.15,0,0,0-.45-5.33A21.87,21.87,0,0,0,583.76,25H187.24c-13.11,0-22.66,9.56-22.66,22.71V375.06q0,163.68,0,327.36a22.29,22.29,0,0,0,.15,3.17c1.78,11.87,10.73,19.41,23.08,19.41q197.57,0,395.14,0a26.41,26.41,0,0,0,5.33-.46c10.93-2.22,17.88-11.09,17.88-22.78Q606.17,375,606.15,48.21Zm-4.26,653.53c0,11.41-7.5,19-18.85,19H187.49c-9.23,0-16.34-5.45-18.25-14a18,18,0,0,1-.36-3.94q0-327.78,0-655.55a17.56,17.56,0,0,1,18-17.93H583.81c10.41,0,18.07,7.73,18.07,18.3q0,41.65,0,83.29V701.74ZM404.19,540.18a120.59,120.59,0,0,0,2.62-21.64c.1-2.85.4-5.7.61-8.53,2.43,2.34,4.6,4.52,6.87,6.6,3.33,3,7,2.46,9.27-1.45a35.36,35.36,0,0,0,2.2-4.66c.69-1.76,1.2-3.58,1.79-5.37,3,1,5.33.8,6.91-1.06,3.66-4.3,4.36-9.27,3.26-14.72a31.48,31.48,0,0,1-.47-7.39c.11-2.56.79-5.08,1-7.64.38-5.55.85-11,2.53-16.41,3-9.55,1.66-18.55-4.79-26.59-2.46-3.07-4.52-6.46-6.73-9.67,2.54-3.61,4.89-6.89,7.17-10.22a48.73,48.73,0,0,1,9.28-10,177.06,177.06,0,0,0,14-12.33c5.39-5.54,10.28-11.57,15.33-17.44,3.93-4.57,7.6-9.43,13.69-11.38a.75.75,0,0,0,.34-.19c.58-.75,1.54-1.48,1.57-2.26,0-.63-1-1.32-1.65-2a8.91,8.91,0,0,0-1.36-.8,14,14,0,0,1,2.93-1.24c1.9-.26,3.83-.35,5.75-.43a21.77,21.77,0,0,0,16.33-7.85,19.63,19.63,0,0,0,1.32-2c-3.94-3.73-8.37-3.45-13.33-2.16.61-.82.91-1.31,1.29-1.73,6-6.78,11.65-13.92,18.71-19.72a11.19,11.19,0,0,0,3.81-6.78c1-5.09-2.07-8.25-5.23-11.3-.6-.57-2.18-.53-3.15-.23a7.32,7.32,0,0,0-2.9,2c-3.64,3.85-7.41,7.6-10.72,11.72-8.25,10.28-16.19,20.8-24.4,31.1-9.2,11.56-18.55,23-27.86,34.46-1.4,1.73-2.95,3.35-4.4,5-3.64-2.17-4.25-1.89-5.84,1.81a54.42,54.42,0,0,1-4.19,8.53,98.77,98.77,0,0,1-7,8.66c-1.49,1.79-3.09,3.48-4.81,5.4-5.23-10.68-11.46-20.22-20-28.38,3.28-4.62,6.14-9,9.34-13.1,2.63-3.38,5.94-6.25,8.44-9.72a118,118,0,0,1,20.34-21.37,5.81,5.81,0,0,0,1-1.76l-.44-.52a13.1,13.1,0,0,0-2.2.32,21.14,21.14,0,0,0-4.64,1.74c-3.51,2.16-7,.33-10.93.67.57-.94.9-1.48,1.22-2,4.12-7,8.53-13.89,12.25-21.12,2.87-5.57,4.85-11.6,7.27-17.4,2.27-5.43,4.2-11,9.23-14.8a3.61,3.61,0,0,0,1.38-2.95c-.22-.74-1.84-1.06-2.84-1.58a5.8,5.8,0,0,1-.65-.58,12.5,12.5,0,0,1,2.31-1.85c1.85-.88,3.79-1.58,5.71-2.3a21.6,21.6,0,0,0,12.69-12.42A17.34,17.34,0,0,0,474,259c-4.94-2.28-9.12-.74-13.19,2,0-.39-.07-.6,0-.76,3.64-7.78,7.32-15.55,10.95-23.34,1-2.2,2.38-4.38,2.83-6.71a11.13,11.13,0,0,0-8.4-12.48,4.89,4.89,0,0,0-3.5,1.18,9.61,9.61,0,0,0-2.1,3.31c-1.24,2.56-2.38,5.17-3.55,7.77-1.55,3.44-3.36,6.8-4.59,10.35C443.91,265.1,435,289.76,424.87,314c-.88,2.11-1.83,4.2-2.72,6.24-4.15-1-4.65-.49-5,3.57a45.82,45.82,0,0,1-2.66,12.94c-1.76,4.43-3.72,8.56-7,12a6.07,6.07,0,0,1-1.7,1.29c-3.82,1.87-7.63,3.7-10.47,7a14,14,0,0,1-2.4,1.87,6.63,6.63,0,0,1-.37-.88A158.28,158.28,0,0,1,390,326c.15-5.22-.18-10.45-.32-15.67a28.77,28.77,0,0,1-.23-4.52c1.07-8,2.35-16,3.4-24,1.2-9.26,0-18.52-.26-27.78-.18-5.88-.79-11.79,2.18-17.31.48-.9.59-2.62.05-3.27s-2.12-.27-3.24-.36a4.66,4.66,0,0,1-.73-.35,10.4,10.4,0,0,1,1.18-2.44c1.32-1.57,2.78-3,4.22-4.48a21.56,21.56,0,0,0,6.39-16.36,19.87,19.87,0,0,0-.36-2.41c-5.38-.2-8.42,3-11.23,6.84-.32-4.14-.62-8.15-.54-12.16.11-5.81.55-11.62.75-17.44.21-6.2-3.5-10.49-9.6-11.28-.79-.1-1.57-.25-2.36-.35-2-.25-3.4.46-4,2.4a13.77,13.77,0,0,0-.58,3.89c-.06,2.78,0,5.56.05,8.34,0,4.18-.08,8.36.23,12.51.65,8.85,1.68,17.68,2.3,26.53,1.16,16.45,2.07,32.92,3.22,49.37.32,4.66-1.78,8.47-3.45,12.43-1.31-4.91-2.58-9.78-3.92-14.63-.31-1.1-.62-2.74-2.12-2.35-.87.23-1.66,1.55-2.05,2.54-.61,1.52-.62,3.3-1.29,4.78-2,4.43-2.68,9.12-3.14,13.87-.39,4-.18,8.15-1.07,12.05a123.64,123.64,0,0,0-3,25c0,2.31-.4,4.61-.6,6.82-2.17-2.08-4.2-3.95-6.12-5.92a6.17,6.17,0,0,1-1.69-2.55,26.87,26.87,0,0,1-.57-4.92c-.22-3.78-.82-4.26-4.49-3.49-.11,0-.25-.08-.54-.19-.39-.84-.87-1.77-1.27-2.75-3-7.35-6.19-14.64-9-22.07-5.2-13.68-10.48-27.35-15.2-41.2a321.89,321.89,0,0,0-13-31.79c-1.49-3.18-4.19-5.31-7.67-2.2a9.26,9.26,0,0,1-1.35.84,9.81,9.81,0,0,0-4.4,10.82,29.34,29.34,0,0,0,2.14,5.1c3.68,7.76,7.4,15.51,11.09,23.28a7.73,7.73,0,0,1,.29,1.45c-4.2-2.65-8.25-4.25-12.72-2a2.8,2.8,0,0,0-.17.64,2.18,2.18,0,0,0,.12.77c1.88,4.57,4.39,8.7,8.91,11.06,3.1,1.62,6.42,2.82,9.59,4.32a9.77,9.77,0,0,1,2.09,1.71c-1.39,1-3.1,1.62-3.2,2.44-.11,1,1.09,2.18,1.78,3.25.25.38.69.62,1,1,1.4,1.66,3.21,3.13,4.1,5,2.56,5.45,4.93,11,7.05,16.65a110.38,110.38,0,0,0,10.58,21.09c1.68,2.61,3.25,5.28,4.78,7.76l-2.2,6.87c-2.61-1.2-5.09-1-6.88,1-3.73,4.24-4.5,9.27-3.24,14.69a14.05,14.05,0,0,1,.69,4.05c-.39,5-1,10-1.49,14.95-.26,2.54-.46,5.09-.63,7.06l-5.41,1.18c-.46-.51-1.2-1.25-1.88-2.05-5.35-6.32-10.81-12.54-16-19-8.71-10.85-17.23-21.84-25.82-32.78-4.5-5.73-8.88-11.55-13.5-17.18-2.8-3.43-5.94-6.58-9-9.82a11.51,11.51,0,0,0-2.44-2c-2-1.19-3.62-.83-5.07.94-.71.87-1.42,1.75-2.15,2.61a8.82,8.82,0,0,0-1.95,6.86c.35,4,2.84,6.5,5.5,9.1,4.36,4.24,8.55,8.66,12.73,13.08,1.79,1.89,3.36,4,5,6-4.66-.76-9-.9-12.59,2.49a3.52,3.52,0,0,0,.07.73,3.29,3.29,0,0,0,.38.69c3.35,3.92,7.19,7.12,12.47,7.91,3.27.49,6.59.59,9.87,1a10.21,10.21,0,0,1,2.61,1.11l-3.29,3.36a22.32,22.32,0,0,0,3.67,2.42c4,1.56,7,4.3,9.77,7.56,5.67,6.73,11.26,13.56,17.37,19.88,4.77,4.94,10.28,9.15,15.43,13.73a4.11,4.11,0,0,1,1.44,2c.85,4.71,3.38,8.52,6,12.4a122.94,122.94,0,0,1,9.21,15.26c5.87,12.31,12.18,24.23,22.51,33.55-1.18,2-2.27,4-3.57,5.94-1.75,2.57-3.54,5.11-5.52,7.5-2.87,3.45-6.2,6.55-8.83,10.17a119.91,119.91,0,0,1-20,20.92,6.23,6.23,0,0,0-1.06,1.86l.45.46a7.53,7.53,0,0,0,1.86-.19c2.07-.71,4.07-1.61,6.16-2.26a8.52,8.52,0,0,1,3.77-.53c9.92,1.72,17.13-2.68,23.17-9.94a6.9,6.9,0,0,1,2.1-1.7c3.65-1.88,7.4-3.58,10.14-6.83a16.87,16.87,0,0,1,2.53-2,5.12,5.12,0,0,1,.38.91,165.07,165.07,0,0,1,2.55,32c-.12,6.2.42,12.41.74,18.61.11,2.18.7,4.35.64,6.52-.23,7.53,1.76,14.52,4.87,21.26a16.1,16.1,0,0,0,1.59,2.21c3-3.31,2.94-7.67,5.12-10.61,1.3,4.86,2.54,9.75,4,14.6.27.9,1.31,1.57,2,2.35a9.81,9.81,0,0,0,2-2.4,39,39,0,0,0,1.35-5.18c1.06-4.49,2.35-8.94,3.08-13.48S403.19,544.73,404.19,540.18ZM313.71,242.24l6.67,20.19c-5.16-5.71-6.22-12.84-7.19-20Zm-15.93-11.93a6.12,6.12,0,0,1,5.06-8.41c1.65,1.83,1.74,4.5-.25,7.08-.16-1.25-.33-2.51-.5-3.83-1.48-.75-2.19.14-2.61,1.36-.63,1.86,1.11,5.22,2.91,5.74,2.11.61,3-.35,4.32-4.67l.67-.14a15.51,15.51,0,0,1,.48,3.65,29.71,29.71,0,0,1-3.7,12.06C301.91,238.73,299.37,234.69,297.78,230.31Zm10,21.46a13.5,13.5,0,0,1-.51-8.89c.87-2.9,1.84-5.78,2.82-8.82,1.53,1.92,1.45,4.05,1.3,6.15a32.4,32.4,0,0,0,6.29,22.42c3.35,4.53,6.6,9.14,8.47,14.53a3.7,3.7,0,0,1,.21,2.09c-1.48-1.63-3-3.22-4.43-4.89C316.07,267.53,310.9,260.33,307.75,251.77ZM329.3,304l-5.07-12.28C328.28,295.08,330.71,300.86,329.3,304Zm6.38,13.35-.65.18c-1.32-2.91-2.67-5.81-3.92-8.76a2.82,2.82,0,0,1,.21-1.73c1.72-5.47.29-10.32-3.37-14.37-3.22-3.56-6.91-6.68-10.4-10a5.79,5.79,0,0,1-1.56-2l1.93.76c2-.56,2.37-1.3,1.55-3.14-1.08-2.45-2.25-4.86-3.24-7.35,8,8.91,15.4,18.22,18.69,30,.89,3.17.84,6.64,1,10A62.74,62.74,0,0,1,335.68,317.33Zm-67.27,4.12L280.53,338l-.39.35c-6.05-4.08-9.19-10.29-12.19-16.59Zm-9,2.82c-.14,0-.32.1-.38.05-2.79-2.54-5.68-5-8.31-7.65-3-3-3.44-7.25-1.32-9.93a16,16,0,0,1,1.93-1.78,5.13,5.13,0,0,1,2.12,6.73l-1.49-3.1c-1.49-.29-2.19.26-2.19,1.86,0,1.75,2.35,4.39,4.11,4.6a2.65,2.65,0,0,0,3.09-2.37,9.61,9.61,0,0,0,.06-1.78c0-.52,0-1-.06-1.55l.72-.28a14.47,14.47,0,0,1,1.46,3.19C260,316.24,260.41,320.25,259.45,324.27Zm4.67,5.83a13.29,13.29,0,0,1-1.79-6.16,48.52,48.52,0,0,1,.24-9.42,19.11,19.11,0,0,1,2,3.19c1.34,3.37,2.27,6.91,3.79,10.19a28.41,28.41,0,0,0,9.68,11.36c4.77,3.35,9.42,6.89,12.92,11.67.3.41.57.85.86,1.28C281,346.71,271.17,340.08,264.12,330.1Zm29.46,35.07c4.56,1.74,8.53,6.38,8.41,10Zm11.12,11.31a12.8,12.8,0,0,0-6.15-10.76,120.74,120.74,0,0,0-10.75-5.81c-1.87-1-3.86-1.67-5.71-2.45,1.2-.49,2.72-.63,3.22-1.41.94-1.5-.68-2.45-1.56-3.45a37.75,37.75,0,0,1-3.89-4.82,12.79,12.79,0,0,1,1.27.68c6.28,4.39,13.25,7.9,18.35,13.79a72.49,72.49,0,0,1,8.82,11.87c2,3.55,2.74,7.78,3.73,11.9C309.26,383.05,304.87,381.36,304.7,376.48Zm20,20.79c-2.66-2.24-5.32-4.47-8-6.72a1.41,1.41,0,0,1-.42-.66q-1.53-5.31-3-10.64c0-.16.08-.35.21-.84.85,1,1.55,1.82,2.29,2.62,1.7,1.84,3.34,3.74,5.14,5.48,3,2.92,3.25,6.85,4.36,10.46Zm96.12,117.27c-1.08,1.75-2.69,1.82-4,.45a34.53,34.53,0,0,1-4.35-4.88,63.17,63.17,0,0,1-3.42-6.77l1.11-2.63c.84,2.61,1.55,4.83,2.29,7.05,0,.11.34.14,1,.39a12.36,12.36,0,0,0,.34-2.76c-.35-3.09-.92-6.15-1.25-9.24q-1-9-1.77-18a23.29,23.29,0,0,1,.29-4h.56c.44,1.69.85,3.37,1.31,5.05a4.68,4.68,0,0,0,.78,2c.68.7,1.64,1.56,2.47,1.54s1.47-1.11,2-1.88a10.3,10.3,0,0,0,.74-2.63c2.05,7.59,4.12,14.57,5.77,21.64C425.91,505.34,423.58,510.09,420.83,514.54Zm12.22-12.9c-1.33,2-3.28,2-5.32.45A250.09,250.09,0,0,0,420,474.27a10,10,0,0,1-.05-3.2l.5,0c.45,1.51.81,3.06,1.37,4.54a6.86,6.86,0,0,0,1.5,2.51c1.59,1.52,3.56.85,4.05-1.28a19,19,0,0,0,.22-2.06c.63,1.12,1.12,1.86,1.48,2.66,1.88,4.09,3.92,8.12,5.54,12.31A12.53,12.53,0,0,1,433.05,501.64Zm34.14-125.43-.49-.27c.78-5.07,5-7.21,8.85-9.6Zm45.09-66.33c.44,2.34-1.08,5.88,3.23,5.85,1.83,0,4.25-2.92,4.13-4.72-.09-1.24-.53-2.2-2.13-1.95L516,312.43l-.69-.29c-.21-2.45.19-4.7,2.17-6.44a5.14,5.14,0,0,1,3.85,4.77,8.69,8.69,0,0,1-2.76,7.17c-2.71,2.59-5.56,5.05-8.34,7.56C508.39,321.54,509.65,311.68,512.28,309.88Zm-11.37,12.31.46.33c-3,6.39-6.19,12.63-12.26,16.81l-.46-.35Zm-12.81,20.3c6.35-4.31,11.43-9.6,14.34-16.77a38.72,38.72,0,0,0,1.45-4.74c.58-2.19,1.15-4.36,3.32-5.94,0,.53.08.93.07,1.33-.09,3.23-.15,6.47-.31,9.7-.13,2.54-1.39,4.54-2.93,6.56-7,9.21-16.48,15.17-26.25,20.82-.2.12-.44.19-1,.44A38.93,38.93,0,0,1,488.1,342.49Zm-24.19,27.25a72.48,72.48,0,0,1,19.76-17.3c2-1.21,3.92-2.63,5.88-3.95l.29.31c-1.53,1.68-3.07,3.36-4.58,5.05a8.91,8.91,0,0,0-1.48,1.85,1.71,1.71,0,0,0,1.73,2.52,3.34,3.34,0,0,1,1.9.2c-2.06.87-4.08,1.84-6.18,2.59a35.78,35.78,0,0,0-13.84,8.66c-2.23,2.29-2.92,5.16-3.08,8.18a6.72,6.72,0,0,1-2,4.57,63.25,63.25,0,0,1-5.32,5.29C458.45,381.3,459.7,375,463.91,369.74ZM446,390.13a1.92,1.92,0,0,1,.35-.7c3.06-3.25,6.14-6.48,9.62-10.14-.5,1.76-.83,3-1.22,4.24a22,22,0,0,0-1.36,4.34c-.28,3.24-2.17,5.18-4.59,7-2.05,1.51-3.92,3.28-5.87,4.93l-.25-.31Zm-18.17,20.35c3.21-3.79,6.7-7.38,9.55-11.42,2.13-3,3.44-6.65,5.11-10a7.89,7.89,0,0,0,.37-1.1l.73-.1c.05.57.33,1.26.12,1.71-2.3,4.91-4.63,9.8-7,14.66-1.92,3.86-5.38,5.89-9.74,7.78A15.51,15.51,0,0,1,427.83,410.48Zm3.75,1.48.4.36-4.2,6.18L426.17,415Zm7.89-107.32c-1.58-3,.58-8.28,5.27-12.74C442.88,296.39,441.19,300.47,439.47,304.64Zm22.4-77.25c1.38,2,.84,5.82,5,4.74,1.8-.46,3.35-4.11,2.63-5.88-.46-1.12-1.17-2-2.79-1.07.07.69.14,1.45.24,2.45l-1.07,1.76c-1.08-2.84-1.55-5.22.05-7.71a5.7,5.7,0,0,1,5.09,3.69,8.47,8.47,0,0,1-.4,7.32c-1.84,3.43-3.85,6.76-6,10.53C462.51,237.9,460,233,461.87,227.39Zm-6.7,15,.53.17c-1,7.2-2,14.38-7.25,20.2ZM444.33,273.7c2.25-3.81,4.58-7.59,7.16-11.18a32.93,32.93,0,0,0,6.1-21.69c-.13-2.34-.41-4.72,1.33-6.81,1.07,3.54,2.16,6.92,3.1,10.34.69,2.51.13,4.86-.75,7.33-3.76,10.54-10.6,19-17.95,27.09a2,2,0,0,1-1.39.68A41.82,41.82,0,0,1,444.33,273.7Zm-8.79,22.64a76.85,76.85,0,0,1,12.1-19.25,59.06,59.06,0,0,1,5.16-5.77c-1.13,2.43-2.29,4.84-3.39,7.28-.84,1.87-.52,2.56,1.51,3.3.34-.17.73-.39,1.15-.58a1.57,1.57,0,0,1,1.34-.06c-1.75,1.5-3.45,3.08-5.27,4.49A37.13,37.13,0,0,0,438,297.56c-1.7,3.16-1.21,6.37-.71,9.68a8.93,8.93,0,0,1-.46,4.35c-.92,2.35-2.24,4.55-3.39,6.81C432.33,310.77,432.39,303.49,435.54,296.34Zm-12.07,34.05a21.16,21.16,0,0,1,3.06-12.66,50.42,50.42,0,0,0,2.87-6.44l.55.07v12.86c-1.85,3-4.08,6.56-6.31,10.15l-.4-.05A34.66,34.66,0,0,0,423.47,330.39Zm-3.15-7.65c.36.4,1.05.84,1,1.2-.49,5-1.08,10.07-1.63,15l-3.42,1.81A41.85,41.85,0,0,0,420.32,322.74ZM407,353.39a27.06,27.06,0,0,0,3.22-3.29c.44-.49.61-1.22,1.08-1.65,5-4.57,10.23-8.45,17.89-7.11-3,3.18-6.54,5.88-5.25,11.25l-11.47,12.79-9.42-9.76A29.26,29.26,0,0,0,407,353.39Zm2.73,13.89c-.39,0-.91.17-1.17,0a21,21,0,0,1-7.88-10.64C403.87,360.39,406.71,363.72,409.73,367.28Zm-20.31-82.35c-.31,2.55-.69,5.1-1,7.45-1.39-3.82-3-7.65-4.15-11.6-.66-2.29-.62-4.78-.9-7.19l.62-.2a15.8,15.8,0,0,1,.94,1.51c1.43,2.83,2.85,5.66,4.23,8.52A2.83,2.83,0,0,1,389.42,284.93Zm-.05-47.33c1.44.55,1.93-.73,2.66-1.53a3.81,3.81,0,0,1,.84-.41C391.82,238,391,240.1,390,242a37.32,37.32,0,0,0-4.34,14.53c-.36,3.87,1.37,6.87,3.51,9.84a7.34,7.34,0,0,1,1.25,3.57,42.48,42.48,0,0,1-.29,8.11c-3-5.31-6.29-10.32-6.88-16.49A68.91,68.91,0,0,1,386,234.11c.66-2.12,1.05-4.33,1.56-6.5l.53,0c0,2.25,0,4.49,0,6.73C388,235.64,387.84,237,389.37,237.6Zm.24,12v13.3C387.27,260.5,387.07,254.19,389.61,249.59Zm-4.88-64.25c1.35-1.43.84-5.37-.63-6.39-1-.68-1.94-.89-2.52.39l1.25,3.83a5.86,5.86,0,0,1-3.43-6.45,5.21,5.21,0,0,1,6,1.05,8.26,8.26,0,0,1,2.67,6.41c-.21,4-.64,8-1,12.43-4.15-3.84-8.12-7.3-9-12.92C380.21,184.88,381.63,188.64,384.73,185.34Zm-6.71,5.3c2.52,2.84,4.89,5.41,7.13,8.08,1.67,2,2.18,4.35,2.41,7,1,11.28-1.69,21.94-5.09,32.5-.1.3-.23.59-.35.89h-.53a58.15,58.15,0,0,1-.14-7.1c.4-4.08,1-8.15,1.75-12.17A32.48,32.48,0,0,0,379.45,197C378.39,195.13,377.47,193.17,378,190.64Zm.14,9.45.59-.07c2.22,6.85,4,13.76,1.82,21.14Q379.37,210.63,378.16,200.09ZM364.37,317.88c.5-3.66,1.48-7.25,1.9-10.92.55-4.84.63-9.74,1.17-14.59a101.94,101.94,0,0,1,1.83-10.52,11.33,11.33,0,0,1,1.62-3L372,279c.42,2.14,1,4.28,1.22,6.44.6,4.85,1.33,9.7,1.53,14.57.23,5.74.06,11.5-.16,17.24A21.91,21.91,0,0,1,373,324c.39.84.77,1.68,1.2,2.59-3.58,1.7-6.82.93-10.38-.08C364,323.64,364,320.74,364.37,317.88Zm9,13.91c-.6,1-3.09,1.31-6.12.62-3.35-.76-3.36-.77-3.46-1.86ZM348,321.94l.56.24c.08,1.78.17,3.57.26,5.36-1.84-1-1.18-2.69-1.5-4.07C347.2,323,347.74,322.46,348,321.94Zm-1.56,9.86c.41-.67,1.3-1.05,2.31-1.83,4.24,3.83,8.18,7.46,9.22,13.57a4.52,4.52,0,0,1-.24.74,10.63,10.63,0,0,1-.66,1.16c-1.28-2.37-.67-5.26-2.47-7.19l-.75,0a10.73,10.73,0,0,0-.33,2.61c.34,3.09.9,6.15,1.24,9.24q1,9,1.77,18a24.48,24.48,0,0,1-.27,4h-.58c-.41-1.61-.8-3.23-1.24-4.84a4.88,4.88,0,0,0-.74-2c-.71-.76-1.69-1.72-2.56-1.73-.69,0-1.49,1.23-2.06,2a5.83,5.83,0,0,0-.52,1.91c-.11-.07-.25-.11-.27-.18-1.92-7-4-14-5.68-21.06C341.37,340.9,343.74,336.22,346.42,331.8Zm-7.88-8.7a1.12,1.12,0,0,1-.14-.57c0-3.87,0-7.74,0-11.62l.9-.11a76.9,76.9,0,0,0,3.59,7.88,13.51,13.51,0,0,1,2.09,8.84,29.13,29.13,0,0,1-.85,3.4h-.67Zm-4.23,21.44c1.31-1.84,3.2-1.83,4.9-.59,2.75,9.95,5.34,19.28,7.93,28.62l.54-.1c-.14.94-.27,1.87-.4,2.8l-.39,0c-.37-1.3-.71-2.6-1.13-3.88a5,5,0,0,0-1-2.31,5.18,5.18,0,0,0-3.1-1.47c-.62,0-1.2,1.57-1.73,2.47-.15.25-.07.64-.41,1.12-.58-1.14-1.21-2.26-1.74-3.42C336,364,334,360.2,332.59,356.23A12.39,12.39,0,0,1,334.31,344.54Zm25,110.87c-6.27-7.32-10.77-15.72-14.39-24.59C342,423.72,338.64,417,333.7,411s-6.75-13.18-4.2-20.69c2.11-6.17,2.37-12.42,2.52-18.78,0-2.05.42-4.1.65-6.21,2.9,4.49,5.24,8.82,8.3,12.56,1.91,2.34,4.9,3.81,7.43,5.63.11.08.45-.16.89-.35l-1.59-3.63,2.5-4.68c1.75,2.34,2.79,5.6,6.9,5.89-.32-1.86-.59-3.44-.87-5,2.69-2,3.21-4.7,2.94-7.75-.53-6.19-1.06-12.39-1.59-18.66,4.52-4,5-9.73,5.88-15.2l9.72,1.9a11.39,11.39,0,0,1-4.07,10.5c-4.13,3.65-4.7,8.53-5.83,13.31,0,.09.11.23.32.63a7.87,7.87,0,0,0,3.61-4.63,18.6,18.6,0,0,1,5.28-8.22,14.32,14.32,0,0,0,4.29-10.32c.21-8.66,1-17.31,1.32-26,.19-4.76-.23-9.56.12-14.3A65.43,65.43,0,0,1,380.28,287a9.41,9.41,0,0,1,1.49-2.28c.51,1,.87,1.59,1.11,2.22,1.87,5.06,1.8,10.4,2.27,15.66a47.79,47.79,0,0,0,.69,6.11c1.34,6.09.69,12.27,1,18.41.41,7.73.87,15.45,1.54,23.16a75.45,75.45,0,0,0,1.73,8.56c.13.63.23,1.28.43,2.36a39.64,39.64,0,0,1-5.47,1.61,24.9,24.9,0,0,0-13.5,6.25c-3.23,2.95-6.49,5.87-9.51,9a29.85,29.85,0,0,1-14.9,8.26,12.42,12.42,0,0,0-2.4,1.18c0,.29,0,.57.05.86a11.09,11.09,0,0,0,2.73.91,20.41,20.41,0,0,0,15.89-6c3.47-3.37,6.79-6.88,10.21-10.3a21.41,21.41,0,0,1,12.22-6.56c4.15-.59,7.27-3,10.41-5.48.67-.53,1.34-1,2.22-1.72a21.88,21.88,0,0,0,9.22,11.06c-3.74,5.17-7.17,10.36-11.09,15.15-3.34,4.09-7.28,7.7-10.91,11.55-3.11,3.29-5.83,6.79-7.35,11.19a13.46,13.46,0,0,0,.29,10.43,43.45,43.45,0,0,0,4.95,9c3.26,4.11,2.65,8,.22,11.91a40.89,40.89,0,0,1-4.52,6c-4.6,5-9.35,9.92-14.3,15.13A63.31,63.31,0,0,1,359.3,455.41Zm2.77,36.47a15,15,0,0,0-5.69,5.18c-3.46,4.72-11,9.63-18.2,7.83,2.8-3.07,6.4-5.75,5.15-11.15l11.11-12.44c4.07,2.63,6.7,6,9.46,9.47C363.17,491.21,362.65,491.61,362.07,491.88Zm-4.36-12.66c2-.93,8.25,6.35,8.47,10Zm31.46,57c-.25,5.55-.16,11.12-.5,16.66a27.56,27.56,0,0,1-1.63,6.33,12.23,12.23,0,0,1-1.57,2.42,11.11,11.11,0,0,1-1.09-2.36q-1.17-7.53-2.21-15.08c-.25-1.83-.12-3.74-.55-5.53-1.4-5.87-1.13-11.85-1.16-17.79C380.4,509.44,380,498,377,486.84c-.1-.38-.08-.78-.19-1.76a44,44,0,0,1,5.51-1.56,24.71,24.71,0,0,0,13.32-6.17c3.23-2.94,6.5-5.86,9.52-9A29.76,29.76,0,0,1,420.2,460a13.15,13.15,0,0,0,2.28-1.08V458a11.48,11.48,0,0,0-2.86-.92,20.56,20.56,0,0,0-16,6.16c-3.12,3.06-6.17,6.2-9.2,9.35a25.57,25.57,0,0,1-14.06,7.65c-2.25.43-4.38,1.77-6.41,3a55.27,55.27,0,0,0-5.18,3.9,21.54,21.54,0,0,0-9.06-11c5-7.3,9.61-14.52,15.81-20.62a104.6,104.6,0,0,0,10.66-12c4.06-5.48,5-11.6,1.55-17.9-1.31-2.37-2.4-4.94-4.1-7-3.22-3.9-2.62-7.69-.34-11.56a34.07,34.07,0,0,1,4.08-5.61c4.82-5.27,9.79-10.41,15-15.89a70.54,70.54,0,0,1,5.72,5.45c6.28,7.39,10.8,15.86,14.43,24.8a72.72,72.72,0,0,0,11,19.42c5.55,6.71,6.76,14.4,3.73,22.58-2,5.5-1.74,11.2-2,16.87a26.26,26.26,0,0,1-1.06,6.35c-3.09-8.09-8.11-14.29-15.54-18.36L418,463c.54,1.32,1.07,2.65,1.52,3.78-.85,1.61-1.62,3-2.49,4.67-1.72-2.39-2.74-5.58-6.8-5.93.26,1.79.49,3.36.75,5.06-2.79,2-3.18,5-2.87,8.23.57,6.06,1,12.12,1.55,18.17-4.51,4.11-5.05,9.8-5.85,15.19l-9.77-1.89a11.65,11.65,0,0,1,4.16-10.57c4.09-3.59,4.6-8.44,5.77-13.14,0-.14-.15-.34-.4-.89a11.21,11.21,0,0,0-3.8,5.43,14.23,14.23,0,0,1-4.26,6.79,15.36,15.36,0,0,0-5.06,11.41C390.32,518.3,389.57,527.28,389.17,536.27Zm14.26-20.49-9.5-1.3c.31-.83,2.52-1.27,5.37-.77C402.69,514.31,403.43,514.73,403.43,515.78Zm-3.6,38.07A85.76,85.76,0,0,1,398,564.38a12.39,12.39,0,0,1-1.6,3l-.72,0a9.59,9.59,0,0,1-1-2.34c-.44-3.27-.75-6.56-1.1-9.84-.26-2.3-.67-4.59-.73-6.89-.17-6.39-.32-12.79-.22-19.19,0-2.33.8-4.65,1.23-7l.37.05-1.19-2.44c3.53-1.75,6.78-1,10.38,0-.17,2.69-.25,5.44-.53,8.16a38.29,38.29,0,0,1-1.12,7.44C400,541.45,400.33,547.68,399.83,553.85ZM194.61,671.71V418.8l-4.08,3.06V675.28c12.5,2.3,20.84,8.42,21.79,22.19.53,0,1.05.12,1.56.12,38.83,0,77.65-.07,116.47.07,3.62,0,5.34-2.13,7.44-4.41H216C213.29,681.63,206.89,674,194.61,671.71ZM580.36,421.85l-4.21-3V671.73c-12.28,2.25-18.66,10-21.36,21.59h-122c2.56,3.11,5.24,4.67,9.14,4.33,4.34-.37,8.73-.09,13.1-.08l102,0c.56,0,1.13-.11,1.57-.15.94-13.84,9.4-19.93,21.82-22.17ZM577,76.4v243l4.13-3.05V72.54A23,23,0,0,1,566,65.94c-4.28-4.15-7-9-6.27-15.39h-4.23q-57.45,0-114.88-.07c-3.41,0-4.75,2.38-6.7,4.37H555.6C558.33,66.44,564.74,74.17,577,76.4ZM191.31,316.33l4.23,3.1V76.29c10-1,19.24-9.65,21.22-21.49h122.3c-2.59-2.41-4.49-4.62-8.18-4.35-4.94.37-9.93.09-14.89.09l-101.37,0a13.45,13.45,0,0,0-1.52.16c-.95,13.87-9.45,19.93-21.79,22.16ZM355.54,125.86H415V76.16H355.54Zm4.31-45.48h51.07v41.14H359.85Zm-15.76,579.3c1.91-.06,2.32-1.71,2.63-3.25.62-3,1.1-6.13,1.84-9.15,1.79-7.33,3.72-14.62,5.53-21.95a19.08,19.08,0,0,0,.27-3.22l-3.08-1.22a12.31,12.31,0,0,0-1.33,1.89,24.22,24.22,0,0,0-1.43,3.92c-1.85,7.45-3.63,14.92-5.44,22.38-.1.45-.28.89-.5,1.56-2.54-3.55-3-7.49-4.14-11.21-.4-1.35-.43-3.17-2.32-3.28s-2.19,1.69-2.71,3c-1.2,3-2.29,6-3.54,9.36-1.6-7.35-3.09-14.28-4.64-21.19a14.24,14.24,0,0,0-1.33-3.93c-.48-.83-1.55-1.33-2.36-2a10.13,10.13,0,0,0-1.51,2.68,9,9,0,0,0,.15,3.35c1.12,6.66,2.24,13.32,3.45,20,.56,3.06,1.29,6.09,2,9.12a2.89,2.89,0,0,0,2.74,2.47c1.54.12,2.26-.83,2.73-2.11l1.77-4.86c.8-2.19,1.6-4.39,2.47-6.75,1.72,4,3.37,7.76,4.92,11.53C341,658.56,342.18,659.74,344.09,659.68Zm53.7-35.31c-.08-1.23-.8-2.41-2.09-2.11a3.33,3.33,0,0,0-2.08,2.14,38.55,38.55,0,0,0-.51,6.72c-.06,5.89,0,11.78,0,17.67l-.37.13c-.26-.58-.52-1.16-.76-1.75-2.74-6.67-5.45-13.35-8.21-20a53,53,0,0,0-2.38-5c-.36-.66-1.2-1.64-1.63-1.55a2.7,2.7,0,0,0-1.79,1.64,23,23,0,0,0-.31,5.12q.39,14.6.89,29.19a3.08,3.08,0,0,0,.27,1.73c.57.69,1.45,1.66,2.13,1.6a3.55,3.55,0,0,0,2.24-1.73,5,5,0,0,0,.17-2.53c-.15-5.1-.33-10.2-.49-15.3,0-.53,0-1.07,0-1.61,2.26,5.12,4.24,10.23,6.32,15.3a21.19,21.19,0,0,0,2.22,4c1.16,1.68,3.05,1.47,4.7,1.22s1.86-1.7,2-3.07a18.84,18.84,0,0,0,.15-2c0-6.62,0-13.24-.05-19.87C398.16,631,398,627.68,397.79,624.37ZM317.2,473.79l0-.37a14.77,14.77,0,0,1-2.1-.44c-3.51-1.28-7.09-2.44-10.49-4a6.25,6.25,0,0,1-3.43-5.07c-.56-3.79-1.16-7.58-1.77-11.37-.42-2.62-.88-5.23-1.32-7.84-.51.23-.65.44-.69.67-.95,5.88-2,11.75-2.79,17.64-.38,2.79-1.49,5-4,6.25a75.33,75.33,0,0,1-8.25,3.28,33.32,33.32,0,0,1-4.24.93,9.62,9.62,0,0,0,2.35.8c3.13,1,6.33,1.89,9.33,3.21s4.43,3.67,4.81,7c.58,5,1.52,9.94,2.33,14.9.17,1.07.42,2.12.64,3.18a1.94,1.94,0,0,0,.71-1.22c.9-5.48,2-10.95,2.6-16.46a9.06,9.06,0,0,1,5.55-7.8,32,32,0,0,1,4.61-1.81C313.08,474.68,315.15,474.28,317.2,473.79Zm89.41,153.88c0,.61.06.93.06,1.25-.14,9.13-.32,18.26-.41,27.39,0,3.82,3,5.72,6.32,3.82a39.76,39.76,0,0,0,7.1-5c8.74-8,7.83-23.61-1.27-29.69-5-3.31-10.05-3.27-15.29-1.08-.65.28-.9,1.52-1.33,2.32a10.14,10.14,0,0,0,2.27,1.11A9.45,9.45,0,0,0,406.61,627.67Zm4.67.16c1.9-.24,3.29.74,4.58,1.87,6.25,5.47,6.27,16.24,0,22.2-1.27,1.21-2.74,2.22-4.12,3.32l-.48-.35ZM291.6,152.88a6.61,6.61,0,0,1-4.14-5.22c-.5-3.53-1.08-7.06-1.65-10.59-.38-2.37-.8-4.73-1.21-7.1a1.53,1.53,0,0,0-.73,1.06c-.8,4.83-1.89,9.64-2.28,14.5-.36,4.53-2.8,6.95-6.65,8.46-1.59.62-3.25,1.1-4.9,1.56-1.17.33-2.38.51-3.57.75a4.06,4.06,0,0,0,1.65.74c3.28,1.17,6.62,2.2,9.8,3.61,2.11.93,3.1,2.94,3.43,5.27.5,3.6,1.08,7.2,1.65,10.79.34,2.14.74,4.26,1.12,6.39l.51,0c.9-5.54,2-11.06,2.65-16.63a7.91,7.91,0,0,1,4.72-6.58,33.31,33.31,0,0,1,4.78-1.91c1.74-.54,3.55-.86,5.32-1.27v-.41a17.91,17.91,0,0,1-2.11-.43C297.18,154.89,294.3,154.09,291.6,152.88ZM485.71,453.13c.5,4.53,1.37,9,2.1,13.53.15,1,.41,1.9.62,2.85,1.4-5.86,2.39-11.65,3.25-17.46a5.74,5.74,0,0,1,2.78-4.57,73.76,73.76,0,0,1,8-3.44,27.53,27.53,0,0,1,4-.93,4.72,4.72,0,0,0-1.75-.73c-3.22-1.15-6.5-2.16-9.61-3.55a5.81,5.81,0,0,1-3.34-4.65c-.83-5.5-1.75-11-2.64-16.46-.08-.48-.24-.94-.43-1.67a4.1,4.1,0,0,0-.44.74c-.7,4.38-1.81,8.74-2,13.13-.3,6.79-4,10.14-10.11,11.61-1.35.33-2.71.6-4.06.91-.51.12-1,.28-1.33.37,3.31,1.1,6.68,2,9.9,3.35A7.87,7.87,0,0,1,485.71,453.13ZM366.16,623.5c-.23-.81-1.17-1.41-1.78-2.11-.77.7-1.93,1.26-2.23,2.12-1.22,3.43-2.23,6.93-3.2,10.43s-1.8,7.16-2.65,10.59c-1.7.78-4.16.31-4.12,2.67,0,.93,1.5,1.84,2.32,2.76.34.18.25.62.14,1.06-.42,1.67-.94,3.32-1.24,5a2.24,2.24,0,0,0,1.74,2.9c1.42.3,2.23-.56,2.68-1.8.2-.56.32-1.15.49-1.72.6-2,1.21-4,1.88-6.22,2.34,0,4.52,0,6.69,0a9.36,9.36,0,0,1,1.29.19c.13.59.22,1.16.38,1.72.69,2.4,1.27,4.84,2.17,7.16.25.65,1.47.94,2.24,1.39.4-.73,1.23-1.52,1.15-2.19C372.76,645.84,369.3,634.7,366.16,623.5Zm-4.73,20.65c.87-4.28,1.71-8.37,2.54-12.46l.46,0c.91,4,1.82,8,2.77,12.11Zm74.11,16.24a9.9,9.9,0,0,0,10.18-10.31,14.19,14.19,0,0,0-6.12-11.49,18.24,18.24,0,0,1-5.83-6.91c-.74-1.57-.15-2.83.84-4s2.19-1,3.43-.44a7.54,7.54,0,0,1,4.08,3.57c.32.69,1.38,1,2.11,1.52.28-.86.88-1.77.77-2.58-.38-2.66-2.34-4.21-4.51-5.47-3.39-1.95-6-1.8-8.61.45a8.47,8.47,0,0,0-2.55,9.16,19.06,19.06,0,0,0,6.74,9.13,10.25,10.25,0,0,1,4.62,7.54,4.7,4.7,0,0,1-4.45,5.24c-2.62.31-4.16-1-4.5-3.95-.24-2-1.37-3.21-2.94-3.06s-2.58,1.63-2.34,3.72C427,657.42,430.31,660.28,435.54,660.39ZM346.11,50.45c3.15.65,6.36,1,9.75,1.57a13.42,13.42,0,0,0-1.28,3.17c-.16,1.14-.22,2.83.43,3.4a4,4,0,0,0,3.57.43,14.87,14.87,0,0,0,8.48-9.39c1.78-5.7-3.13-12.77-7-15.55-1.21-.87-2.58-1.51-4-.52s-1.42,2.5-1,3.93a32.52,32.52,0,0,0,1.54,3.85c.19.45.4.89.46,1-3.74.53-7.41.92-11,1.6-1.7.32-3.82.84-3.77,3.13S344.3,50.08,346.11,50.45Zm11.12,6.2a5.92,5.92,0,0,1,6.53-5.89C362.54,53.61,359.7,56.17,357.23,56.65Zm.95-20.1c2.62,1.8,4.34,4.31,5.92,7.47l-3.73-.84L357.59,37Zm6.62,10.74a38.21,38.21,0,0,1-19.35,0C348.06,45,360.94,45,364.8,47.29Zm62.33,651a21.43,21.43,0,0,0-5.54-1.45c-1.91-.32-3.86-.38-5.9-.56a15,15,0,0,0,1.4-3.45c.15-1.13.14-2.75-.53-3.39a3.78,3.78,0,0,0-3.4-.4,14.83,14.83,0,0,0-8.55,9.37c-1.77,5.61,2.77,12.42,6.78,15.48,1.23,1,2.66,1.71,4.19.67s1.44-2.78,1-4.32a43.36,43.36,0,0,0-1.81-4.37c4.12-.71,8.23-1.3,12.25-2.24,1-.22,2.34-1.64,2.31-2.46A4.11,4.11,0,0,0,427.13,698.29Zm-12.53-7.14c-1,4.23-2.42,6.2-6.88,6.23A13,13,0,0,1,414.6,691.15Zm-1.15,20.4a18.34,18.34,0,0,1-5.87-7.45l3.7.82c.89,2,1.83,4.12,2.78,6.24ZM407,701.35c3.11-2.33,15.53-2.27,19.37.15A39.91,39.91,0,0,1,407,701.35ZM172.62,340.28a41.74,41.74,0,0,0,7,5.64c8.15,4.77,15.93-2.06,18-7.81.92-2.58-.87-4.38-3.52-3.66a40,40,0,0,0-4,1.57c0-.75,0-1.39-.12-2-.38-2.68-.67-5.38-1.24-8-.37-1.75-1.13-3.65-3.29-3.69s-2.76,1.95-3.07,3.59c-.7,3.68-1.13,7.4-1.67,11.14a49.94,49.94,0,0,0-4.68-1.9c-1.47-.45-3.1-.54-4.13,1A3.1,3.1,0,0,0,172.62,340.28Zm22.71-3.12a13.45,13.45,0,0,1-6.08,6.84C189,340.08,190.59,338.16,195.33,337.16ZM185.28,325.8a30.42,30.42,0,0,1,.16,18.66A31.74,31.74,0,0,1,185.28,325.8Zm-10,11.88,6.23,2.71c.29,1.21.54,2.27.89,3.77a18.6,18.6,0,0,1-7.47-5.85Zm182,351.16c-2.58-.94-4.4.86-3.68,3.51a37.05,37.05,0,0,0,1.56,3.95c-.55.07-1,.1-1.43.17-3.13.48-6.28.85-9.37,1.52-1.47.32-2.93,1.24-2.92,3.08s1.5,2.52,2.92,2.78c3.36.62,6.77,1,10.17,1.45a13.67,13.67,0,0,0,1.81,0c-.78,2-1.58,3.65-2.1,5.41-.43,1.44-.43,3.23,1.16,3.8a4.33,4.33,0,0,0,3.77-.53,35,35,0,0,0,5.87-7.11C369.82,698.73,363.05,691,357.25,688.84Zm.12,22.71-.56-.29,2.71-6.32,3.79-.84C361.71,707.25,360,709.78,357.37,711.55Zm-12.45-10.26a29.83,29.83,0,0,1,18.68-.24C357.41,703.17,351.18,702.79,344.92,701.29Zm11.39-9.69c2.2,0,5.36,2.71,6.64,5.75C358.88,697.32,357.45,695.89,356.31,691.6Zm111.76-47.14a90.59,90.59,0,0,0,9.29-1.77,3.53,3.53,0,0,0,2.07-2.48c.08-.79-.93-2-1.78-2.52a12.05,12.05,0,0,0-4.09-1.37c-2.52-.42-5.07-.62-7.73-.92a16.22,16.22,0,0,0,1.42-3.64c.16-1,0-2.58-.63-3.18a3.7,3.7,0,0,0-3.23-.41,15.41,15.41,0,0,0-4.31,2.73c-7.38,6.26-5.24,19.25,3.74,23a3.73,3.73,0,0,0,.56.2,2.57,2.57,0,0,0,3.46-2.45,9.77,9.77,0,0,0-.56-3.29,39.92,39.92,0,0,0-1.76-3.83A24.41,24.41,0,0,0,468.07,644.46Zm-3.33-14.14c-1.2,4.68-2.67,6.18-6.93,6.21A13,13,0,0,1,464.74,630.32Zm-1.17,20.42c-2.63-1.79-4.34-4.32-5.95-7.48l3.75.83c.88,2,1.83,4.18,2.78,6.34ZM457,640a37.88,37.88,0,0,1,19.35,0C473.65,642.31,460.77,642.29,457,640ZM181.2,398.24a94,94,0,0,0,1.64,9.51,3.8,3.8,0,0,0,2.59,2.42c1,0,2.34-1.21,2.82-2.23a21.88,21.88,0,0,0,1.41-5.54c.31-1.9.38-3.84.56-5.83A14.61,14.61,0,0,0,193.7,398c1.13.14,2.75.11,3.37-.57a3.77,3.77,0,0,0,.38-3.4,14.81,14.81,0,0,0-9.55-8.57c-5.63-1.7-12.62,3.15-15.39,6.95-.88,1.21-1.55,2.57-.6,4s2.61,1.51,4.1,1.06c1.68-.52,3.28-1.31,5.17-2.09A19.21,19.21,0,0,0,181.2,398.24Zm13.88-3-.37.53-4.88-2.87-.84-4.12A10.36,10.36,0,0,1,195.08,395.25Zm-9.86-7.66c2.25,4.3,2.12,15.89-.21,19.71A40.23,40.23,0,0,1,185.22,387.59Zm-10,7.34-.3-.58a17.53,17.53,0,0,1,7.48-5.87c-.33,1.43-.56,2.39-.86,3.69Zm413.32-68.6c-.32-1.74-.77-4-3.14-4s-3.06,2.12-3.44,4c-.64,3.14-1,6.34-1.53,9.62a12.52,12.52,0,0,0-3.12-1.26c-1.19-.14-2.91-.18-3.55.51a4,4,0,0,0-.3,3.58c2.37,4.81,6,8.56,11.63,8.64,6,.09,10.52-3.3,13.83-8.23a2.65,2.65,0,0,0,.29-.74c.49-1.84-.55-3.57-2.43-3.43a25.29,25.29,0,0,0-5.28,1.4,7.8,7.8,0,0,0-1.46.75C589.57,333.47,589.23,329.87,588.56,326.33Zm-12.91,11.12.42-.62,5,2.86c.34,1.71.58,2.91.88,4.46C579,342.37,576.72,340.42,575.65,337.45Zm9.82,7c-2.1-3-2-15.39.11-18.65C587.48,328.81,587.41,340.88,585.47,344.44ZM596,337.49c-1.18,2.72-4.55,5.46-7.55,6.41.29-1.24.54-2.26.83-3.5ZM414.51,59.33c2.56.65,4.25-.95,3.58-3.51a41.32,41.32,0,0,0-1.65-4.22,17.25,17.25,0,0,0,2.81,0,68.45,68.45,0,0,0,8.7-1.79,3.82,3.82,0,0,0,2.14-2.87c0-.83-1.35-2.16-2.34-2.46a58.59,58.59,0,0,0-8.14-1.61,29.77,29.77,0,0,0-4.34,0c.77-1.81,1.57-3.34,2.07-5s.63-3.24-1-4.32a3.12,3.12,0,0,0-4.16.73,40.09,40.09,0,0,0-5.72,7.26C402.82,48.09,407.18,57.45,414.51,59.33Zm-.29-22.77.6.29-2.68,6.31-3.75.85A18.29,18.29,0,0,1,414.22,36.56Zm12.9,10c-3.37,2.44-15.76,2.58-19.4.28A40.29,40.29,0,0,1,427.12,46.54Zm-11.81,10c-2.2-.05-4.57-2.05-6.77-5.79C412.93,50.76,414.42,52.67,415.31,56.52Zm183,335.88a42.39,42.39,0,0,0-7.37-5.85c-8.11-4.55-15.81,2.37-17.75,8-.86,2.49.9,4.26,3.44,3.6a35.21,35.21,0,0,0,3.95-1.54c.34,2.79.51,5.5,1,8.14a12.65,12.65,0,0,0,1.87,4.5c1.13,1.66,3,1.46,4-.3a10,10,0,0,0,1.25-3.32c.51-3.36.84-6.76,1.24-10.13,1.5.61,3.15,1.43,4.88,2,1.49.45,3.11.47,4.09-1.08A3.05,3.05,0,0,0,598.29,392.4Zm-22.33,3c0-2.19,2.74-5.39,5.75-6.65C581.68,392.86,580.18,394.3,576,395.42Zm9.66,11.4a29.93,29.93,0,0,1-.21-18.69C587.5,394.33,587.2,400.56,585.62,406.82Zm10-11.9-6.25-2.7-.91-3.75a18.33,18.33,0,0,1,7.47,5.81ZM299.24,653a3,3,0,0,0,4-.62,40.65,40.65,0,0,0,5.22-6.15c5.32-8.13-.3-15.79-6.67-18.71a4.09,4.09,0,0,0-3.58.38c-.67.55-.65,2.25-.49,3.38a13.2,13.2,0,0,0,1.28,3.23c-3.34.52-6.56.92-9.72,1.56-1.82.37-3.84,1.1-3.9,3.35s2.07,2.81,3.77,3.13c3.62.68,7.29,1.08,11,1.6a50,50,0,0,0-1.92,4.73C297.75,650.33,297.7,652,299.24,653Zm2.13-3-.62-.36q1.35-3.1,2.72-6.22l3.75-.88A18.26,18.26,0,0,1,301.37,649.92Zm-.91-20.13c2.55.7,4.82,2.75,6.64,6.14l-4.3-.88c-.9-1.52-1.9-3.21-2.91-4.9Zm-11.59,9.94c2.52-2.18,14.89-2.41,18.66-.34C304.61,641.36,292.57,641.58,288.87,639.73Zm297,57.7c-1.9-2.44-4-4.75-6-7.15,1.47-.61,3.16-1.19,4.74-2s2.69-1.87,2.28-3.76a3.1,3.1,0,0,0-3.48-2.36,42.26,42.26,0,0,0-8.78,1.07c-8.94,2.39-9.82,12.36-7.11,18.22a3.5,3.5,0,0,0,2.55,1.75,3.83,3.83,0,0,0,2.55-1.73,19.61,19.61,0,0,0,1.6-3.81c2,1.56,3.82,3.23,5.87,4.63a14.5,14.5,0,0,0,4.6,2.18c2.65.63,4-1,3-3.56A13.89,13.89,0,0,0,585.82,697.43Zm-2.43-12.23.19.64-6.5,2.66-3.29-2.1C577.2,685.29,580.23,684.63,583.39,685.2Zm-13.57,15.34c-1.6-3-1.27-6.09-.68-9.26C572.15,694.42,572.39,697.43,569.82,700.54ZM571.39,688a36.29,36.29,0,0,1,13.76,13.33C580.58,700.07,572.3,692,571.39,688ZM191.63,57.86c-1.48.64-3.28,1.29-4.95,2.2a3.13,3.13,0,0,0-1.89,3.58,3,3,0,0,0,3.14,2.26,41,41,0,0,0,8.8-.91c9.09-2.34,10.18-12,7.49-18.22a3.67,3.67,0,0,0-2.67-1.86c-.83,0-2,.94-2.52,1.77a17.64,17.64,0,0,0-1.51,3.59c-2.71-1.94-5.38-4-8.19-5.82-1.5-1-3.41-1.76-5-.3s-.53,3.46.46,4.86C187,52.07,189.38,55,191.63,57.86Zm-4,4.6,6.94-2.85,3.08,2C194.68,63,190.49,63.5,187.62,62.46Zm14.24-14.87c1.53,3,1.24,6,.69,9.13C199.37,54.17,199.21,51.26,201.86,47.59Zm-1.63,12.55a39.61,39.61,0,0,1-14.14-13.48C190.34,47.36,199.38,56,200.23,60.14Zm384.29,5.79c1.41-.13,2.77-.69,3.14-2.31a3.13,3.13,0,0,0-1.91-3.57c-1.68-.9-3.48-1.55-5-2.22a36.33,36.33,0,0,0,2.54-2.93,69.73,69.73,0,0,0,5.2-7.89c1.14-2.2-.3-3.81-2.78-3.45a7.26,7.26,0,0,0-2.93,1.08c-2.67,1.81-5.23,3.77-7.82,5.66a18.28,18.28,0,0,0-1.52-3.64c-.56-.83-1.71-1.81-2.53-1.76a3.7,3.7,0,0,0-2.65,1.9A16,16,0,0,0,567,52.15c-.23,3.6.47,7.14,3.16,9.69C574.16,65.64,579.22,66.44,584.52,65.93Zm-.14-3.66c-.06.21-.12.41-.19.62-3.2.62-6.25-.11-9.64-1.17l3.31-2.11ZM586,46.86a37.2,37.2,0,0,1-13.65,13.23C572.67,56.49,581.62,47.74,586,46.86Zm-15.48.81c2.56,2.2,2.4,5.47-.5,9.31C569.27,53.66,569.09,50.66,570.5,47.67Zm-369,638.55c-4-3.7-8.95-4.53-14.19-4.06-1.47.13-2.92.65-3.28,2.38s.73,2.92,2.13,3.65c1.63.84,3.37,1.46,5.17,2.22l-1.4,1.29c-2.82,2.74-5.42,5.65-6.77,9.42-.82,2.25.4,3.89,2.7,3.4a14.94,14.94,0,0,0,5-2.24c2.06-1.36,3.91-3,5.86-4.61a19.56,19.56,0,0,0,1.61,3.82c.56.82,1.73,1.78,2.55,1.71a3.7,3.7,0,0,0,2.62-1.94,18.24,18.24,0,0,0,1.22-5.75C204.81,692.05,204.06,688.66,201.45,686.22Zm-14.17-.36c.07-.23.13-.46.19-.68,3.18-.54,6.23.13,9.64,1.22l-3.33,2.08Zm-1.49,15.54a32.05,32.05,0,0,1,13.58-13A30,30,0,0,1,185.79,701.4Zm15.28-.79c-2.62-3.2-2.37-6.26.62-9.3C202.37,694.43,202.54,697.43,201.07,700.61ZM378.46,57.36a2.68,2.68,0,0,0,2.3.36c.42-.17.71-1.33.64-2-.36-3.4,1.16-5.93,4.59-7.25,3.86,1.15,5.31,3.44,5,7.49a2.39,2.39,0,0,0,.77,1.82c.39.29,1.26.12,1.82-.09a4.28,4.28,0,0,0,1.34-1.15,11.28,11.28,0,0,0,1.36-13.11,11.42,11.42,0,0,0-12.1-5.65c-5.18,1.13-9,5.16-9.39,10A10.58,10.58,0,0,0,378.46,57.36Zm3.21-14.56a7.18,7.18,0,0,1,8.85-.08c2.91,2,4,4.69,3,8.33-1.57-3.16-3.61-5.85-7.16-5.8s-5.92,2.31-7.36,6A7.2,7.2,0,0,1,381.67,42.8ZM576.6,371.08c-.61-.07-1.63.22-1.83.64a3.44,3.44,0,0,0,.16,2.17c.11.4.58.71.91,1a11.32,11.32,0,0,0,12.4,1.84c4-1.9,7-6.64,6.77-10.66a12.07,12.07,0,0,0-8.09-10.78c-4.17-1.37-9.33-.05-11.75,3.13a2.7,2.7,0,0,0-.47,2.28c.23.49,1.41.8,2.13.72a6.47,6.47,0,0,1,7.13,4.64C583,369.81,580.48,371.46,576.6,371.08Zm4.87-12a7.14,7.14,0,0,1,8.41,3c2,3,1.78,6.2-.71,9.33a6.49,6.49,0,0,1-7.53,2.18C590,369.26,588.09,362.16,581.47,359ZM393.27,690.8a2.71,2.71,0,0,0-2.29-.45c-.48.23-.78,1.42-.7,2.13a6.28,6.28,0,0,1-5.11,7.13c-3.44-1.25-4.87-3.67-4.52-7.37.06-.61-.22-1.63-.65-1.83a2.34,2.34,0,0,0-2.13.19,12.32,12.32,0,0,0-2.73,3.34,11.35,11.35,0,0,0,6.08,15.76c7.17,3,13.6-2.05,15.2-7.14C397.74,698.37,396.44,693.19,393.27,690.8Zm-3.49,14.55a7.24,7.24,0,0,1-9.16-.23,6.74,6.74,0,0,1-2.44-7.83c4,7.69,11,7.16,14.51-.17A6.82,6.82,0,0,1,389.78,705.35ZM194.24,361.53c.62.06,1.64-.22,1.85-.64a2.36,2.36,0,0,0-.18-2.13,13.57,13.57,0,0,0-3.7-2.9,11.49,11.49,0,0,0-11.28,19.91c4.51,3.17,11,2.63,14.49-1.32.55-.63.57-1.74.84-2.62a7.18,7.18,0,0,0-2.42-.63c-3.33.33-6.05-1.61-7-5.14C188.11,362.63,190.57,361.16,194.24,361.53Zm-5.07,11.94c-2.14,1.13-5.33.37-7.19-1.71-2.8-3.12-3.1-6.81-.84-10,2-2.78,5.28-3.89,8.07-2.73C181.62,363,181.94,370,189.17,373.47ZM448.29,167.76c-.45-3.14-1-6.27-1.46-9.4a15.14,15.14,0,0,0-.51-1.7,19.06,19.06,0,0,0-.57,2c-.45,2.73-1,5.46-1.28,8.22a5.45,5.45,0,0,1-3.69,4.93c-1.79.71-3.65,1.23-5.8,1.94.71.22,1.12.35,1.54.46,7,1.82,7.37,2.29,8.39,9.52.31,2.21.8,4.4,1.2,6.6a53.29,53.29,0,0,0,2-9.76,5.33,5.33,0,0,1,3.32-4.76c1.88-.78,3.83-1.37,5.87-2.09-2.1-.76-4.15-1.41-6.12-2.24A4.56,4.56,0,0,1,448.29,167.76ZM271.56,547.92c.89.23,1.32.39,1.77.46,5.43.81,8.26,3.78,8.32,9.44a44.65,44.65,0,0,0,1.09,6.71,1.13,1.13,0,0,0,.71-.83c.46-2.87,1.08-5.73,1.3-8.62.24-3.11,2-4.79,4.66-5.73,1.53-.53,3.1-.93,4.77-1.42-2.23-.81-4.34-1.47-6.36-2.33a4.64,4.64,0,0,1-2.89-4c-.4-3.14-.95-6.27-1.46-9.4a5.82,5.82,0,0,0-.4-1.1,36.62,36.62,0,0,0-1.58,8.05c-.26,4.08-2.12,6.68-6.14,7.64-.77.19-1.54.34-2.31.54C272.66,547.47,272.31,547.64,271.56,547.92Zm235.9-285.24a27.35,27.35,0,0,0-.85-4.76l-.49,0c-.32,1.82-.75,3.64-.93,5.48A4.06,4.06,0,0,1,502,267c-.76.27-1.54.45-2.38.69a2.6,2.6,0,0,0,.39.33,1.71,1.71,0,0,0,.53.25c3.26.48,4.78,2.38,4.86,5.66a23.15,23.15,0,0,0,.72,3.91l.5,0c.35-2.17.55-4.39,1.1-6.52.67-2.63,3.51-2.46,5.59-3.67-.76-.13-1.22-.17-1.66-.29C509.32,266.67,507.47,265.63,507.46,262.68Zm-78.54,304.9.45,0c.36-2.2.21-4.69,1.23-6.52s3.15-2.69,4.69-3.91l-1-.29c-2.35-.65-4-1.77-4.08-4.6a28.86,28.86,0,0,0-.86-4.82,12.37,12.37,0,0,0-1.15,4.53,4.77,4.77,0,0,1-4.07,4.87c-.49.12-1,.3-1.85.57A12.85,12.85,0,0,0,424,558c2.71.56,4,2.22,4.18,5A45.26,45.26,0,0,0,428.92,567.58ZM282.68,396a27.11,27.11,0,0,0-.84-4.67,13.77,13.77,0,0,0-1.16,4.63c-.22,2.53-1.37,4.19-3.94,4.75-.56.12-1.1.36-1.94.64.74.26,1.21.45,1.69.59,3.08.89,3.77,1.72,4.19,4.94.2,1.52.49,3,.74,4.55l.4,0a13.71,13.71,0,0,0,.47-2.09c.22-4,1-7.47,6.16-7.81a5.73,5.73,0,0,0-1.45-.64C284.5,400.13,282.73,398.92,282.68,396ZM588.1,434.53c-1.52,0-2.12,1.1-2.18,2.51s.82,2.26,2,2c.91-.16,1.69-1.12,2.53-1.73C590.12,435.52,589.56,434.5,588.1,434.53Zm-405.21,4.62a1.85,1.85,0,0,0,2.05-2.11c-.08-1.39-.66-2.48-2.18-2.51s-2,1-2,2.35A2,2,0,0,0,182.89,439.15Zm1.15-14c-.52-.43-2.09-.5-2.39-.12a3.5,3.5,0,0,0-.58,2.78c.45,1.56,1.84,1.37,3.23,1A2.5,2.5,0,0,0,184,425.15ZM587.69,313.07c.65.49,1.89.17,2.89.21.49-3.73-.39-4.56-3.28-3.82A2.4,2.4,0,0,0,587.69,313.07ZM184.89,313a2.48,2.48,0,0,0,.15-3.63c-1.41-.37-2.8-.49-3.21,1.06a3.51,3.51,0,0,0,.67,2.76C182.82,313.55,184.39,313.43,184.89,313Zm405,114.72a3.45,3.45,0,0,0-.75-2.72c-.33-.37-1.89-.21-2.37.26a2.43,2.43,0,0,0-.07,3.6C588.08,429.19,589.47,429.26,589.84,427.7Zm-405,18.7a2,2,0,0,0-4,.27c-.39,1.47.62,2.26,2.08,2.52C184.38,448.85,185.32,447.91,184.8,446.4Zm403.26-1.49a2.76,2.76,0,0,0-2,1.6c-.47,1.42.44,2.33,2,2.7,1.48-.36,2.46-1.19,2-2.65A2.8,2.8,0,0,0,588.06,444.91ZM332.12,702.64a1.89,1.89,0,0,0-2.08,2.12c0,1.24.58,2.15,2.73,2.14.3-.38,1.22-1.06,1.34-1.85A2,2,0,0,0,332.12,702.64ZM333,45.46A2,2,0,0,0,334.89,43c-.15-.79-1.1-1.42-1.43-1.8-2.12.1-2.67,1-2.63,2.27A1.88,1.88,0,0,0,333,45.46Zm106.49-.08c1.27.39,2.09-.68,2.12-2s-.51-2.18-2.43-2.56c-.57.77-1.67,1.6-1.59,2.29A3.22,3.22,0,0,0,439.49,45.38Zm-.84,657.27a2,2,0,0,0-1.9,2.48c.15.79,1.11,1.42,1.45,1.82,2.1-.11,2.66-1,2.61-2.28A1.88,1.88,0,0,0,438.65,702.65Zm-253-600.37a3,3,0,0,0-2-1.87c-.77,0-1.6,1-2.4,1.52v1c.81.54,1.59,1.42,2.46,1.52A1.69,1.69,0,0,0,185.61,102.28Zm401.23-10a1.69,1.69,0,0,0,1.83,2.19c.87-.07,1.67-.93,2.51-1.44l0-1c-.78-.57-1.58-1.6-2.35-1.59A2.93,2.93,0,0,0,586.84,92.28ZM252.55,45.72l.89,0c.54-.77,1.43-1.5,1.54-2.33a1.79,1.79,0,0,0-2-2.09c-1.35,0-2.22.9-2,2.17C251.1,44.27,252,45,252.55,45.72Zm9.89,0h.95c.54-.81,1.52-1.65,1.47-2.44A2.88,2.88,0,0,0,263,41.35a1.67,1.67,0,0,0-2.08,1.93C261,44.15,261.89,44.9,262.44,45.71Zm9.94,0h.95c.54-.81,1.52-1.65,1.48-2.44s-1.12-1.72-1.91-1.91a1.67,1.67,0,0,0-2.07,1.94C270.94,44.15,271.84,44.91,272.38,45.71Zm9.91,0h.94c.55-.82,1.55-1.67,1.51-2.45s-1.16-1.74-1.95-1.91a1.68,1.68,0,0,0-2,2C280.89,44.22,281.75,44.94,282.29,45.7ZM185.61,92.4a2.89,2.89,0,0,0-1.91-1.92c-.78-.06-1.63.91-2.45,1.44,0,.32,0,.64,0,1,.8.56,1.55,1.47,2.41,1.59A1.69,1.69,0,0,0,185.61,92.4ZM302.27,45.72l.9,0c.53-.77,1.4-1.51,1.51-2.34a1.8,1.8,0,0,0-2.08-2.07c-1.35.06-2.21.93-2,2.19C300.81,44.3,301.7,45,302.27,45.72ZM184.81,476.82a1.69,1.69,0,0,0-1.94-2.08c-.86.11-1.62,1-2.42,1.57v1c.82.53,1.67,1.52,2.44,1.46A2.91,2.91,0,0,0,184.81,476.82Zm402-394.46a1.69,1.69,0,0,0,1.85,2.17c.87-.07,1.66-.94,2.49-1.46l0-1c-.79-.56-1.59-1.58-2.37-1.56A2.87,2.87,0,0,0,586.84,82.36ZM449.37,45.69l.94,0c.56-.8,1.58-1.63,1.55-2.41a2.9,2.9,0,0,0-1.9-2,1.68,1.68,0,0,0-2.07,2C448,44.16,448.85,44.91,449.37,45.69Zm9.9,0,.89,0c.59-.73,1.51-1.38,1.69-2.2.29-1.26-.54-2.15-1.89-2.25a1.79,1.79,0,0,0-2.13,2C457.91,44.13,458.76,44.88,459.27,45.68ZM183.59,84.52a1.69,1.69,0,0,0,2-2c-.15-.87-1-1.62-1.59-2.43l-.92,0c-.51.83-1.46,1.69-1.41,2.48A2.89,2.89,0,0,0,183.59,84.52ZM538.84,45.69l.89,0c.57-.74,1.47-1.41,1.64-2.24.25-1.26-.6-2.14-2-2.2a1.79,1.79,0,0,0-2.08,2.06C537.44,44.17,538.31,44.91,538.84,45.69Zm-29.82,0,.94,0c.55-.81,1.57-1.64,1.54-2.42a2.94,2.94,0,0,0-1.91-1.95,1.68,1.68,0,0,0-2.07,2C507.62,44.17,508.49,44.91,509,45.69Zm79.7,253.51a2.91,2.91,0,0,0-1.89,1.94,1.69,1.69,0,0,0,2,2.05c.86-.13,1.6-1.06,2.4-1.62l0-1C590.36,300.09,589.5,299.13,588.72,299.2Zm-405,4a1.7,1.7,0,0,0,1.91-2.13,2.94,2.94,0,0,0-2-1.87c-.78,0-1.6,1-2.41,1.5,0,.33,0,.65,0,1C182.06,302.2,182.84,303.09,183.7,303.19Zm407.47-12.57c-.83-.5-1.72-1.45-2.49-1.37a2.92,2.92,0,0,0-1.85,2,1.69,1.69,0,0,0,2,2c.86-.15,1.58-1.08,2.36-1.67C591.2,291.26,591.19,290.94,591.17,290.62Zm-91-244.93c.5-.83,1.35-1.63,1.43-2.49a1.68,1.68,0,0,0-2.16-1.85,2.89,2.89,0,0,0-1.82,2c0,.78,1,1.58,1.59,2.37Zm-10,0c.51-.83,1.37-1.62,1.45-2.49a1.68,1.68,0,0,0-2.14-1.86,2.89,2.89,0,0,0-1.84,2c0,.78,1,1.58,1.57,2.38Zm96.61,225.56a1.69,1.69,0,0,0,1.92,2.11c.86-.1,1.63-1,2.45-1.54v-1c-.81-.55-1.64-1.54-2.42-1.5A2.91,2.91,0,0,0,586.83,271.26ZM183.1,269c-.51.83-1.46,1.7-1.4,2.49a2.87,2.87,0,0,0,1.9,1.92,1.69,1.69,0,0,0,2-2c-.15-.87-1-1.62-1.6-2.42Zm296-223.27.9,0c.59-.73,1.5-1.38,1.69-2.2.29-1.26-.54-2.15-1.89-2.25a1.79,1.79,0,0,0-2.13,2C477.79,44.12,478.64,44.88,479.14,45.68ZM183.63,263.43a1.69,1.69,0,0,0,2-2.05,2.89,2.89,0,0,0-1.89-1.94c-.78-.07-1.64.9-2.47,1.41l0,1C182,262.38,182.77,263.3,183.63,263.43Zm405.11-9.94c.87-.1,1.64-1,2.46-1.53v-1c-.8-.55-1.63-1.54-2.41-1.5a2.88,2.88,0,0,0-1.95,1.87A1.68,1.68,0,0,0,588.74,253.49ZM222.17,702.87a2.83,2.83,0,0,0-1.81,2,1.69,1.69,0,0,0,2.17,1.88c.84-.2,1.51-1.09,2.25-1.67,0-.3,0-.6,0-.9C223.88,703.71,223,702.78,222.17,702.87ZM181.26,252c.82.52,1.62,1.39,2.48,1.47a1.7,1.7,0,0,0,1.87-2.16,2.91,2.91,0,0,0-2-1.83c-.78,0-1.58,1-2.38,1.55Zm407.48-8.47c.87-.1,1.64-1,2.45-1.52v-1c-.81-.54-1.63-1.54-2.41-1.5a2.91,2.91,0,0,0-1.95,1.87A1.68,1.68,0,0,0,588.74,243.55Zm-405.11,0a1.69,1.69,0,0,0,2-2.05,2.89,2.89,0,0,0-1.89-1.94c-.77-.07-1.64.9-2.46,1.41l0,1C182,242.5,182.77,243.42,183.63,243.55Zm46.6,461.18c0,1.32.8,2.26,2.11,2,.84-.14,1.57-1,2.35-1.51l0-.87c-.76-.55-1.45-1.41-2.3-1.6C231.1,702.51,230.25,703.41,230.23,704.73Zm-7.67-659,.95,0c.58-.8,1.61-1.61,1.6-2.4a2.92,2.92,0,0,0-1.88-2,1.69,1.69,0,0,0-2.1,2C221.23,44.15,222.06,44.9,222.56,45.69Zm48.93,656.73c-.51.82-1.37,1.61-1.45,2.47a1.68,1.68,0,0,0,2.14,1.87,2.92,2.92,0,0,0,1.84-2c0-.79-1-1.59-1.57-2.39Zm18.44,2.23a1.67,1.67,0,0,0,1.88,2.12c.88-.11,1.67-.95,2.5-1.46,0-.31,0-.61,0-.92-.8-.55-1.61-1.55-2.4-1.54A2.87,2.87,0,0,0,289.93,704.65Zm298-249.79A1.69,1.69,0,0,0,586,457a2.87,2.87,0,0,0,2,1.85c.77,0,1.59-1,2.39-1.53l0-1C589.57,455.83,588.79,455,587.92,454.86Zm-405,9.94c-.87.09-1.64,1-2.46,1.52v1c.8.54,1.63,1.54,2.4,1.51a2.91,2.91,0,0,0,2-1.88A1.68,1.68,0,0,0,182.91,464.8Zm405.05,4c.77.06,1.62-.92,2.44-1.45v-1c-.81-.56-1.57-1.47-2.43-1.58a1.69,1.69,0,0,0-1.94,2.08A2.88,2.88,0,0,0,588,468.79ZM301.75,702.86a2.86,2.86,0,0,0-1.88,1.95,1.69,1.69,0,0,0,2.1,2c.84-.16,1.54-1,2.3-1.57v-.91C303.42,703.77,302.55,702.81,301.75,702.86ZM588.84,223.68c.85-.14,1.58-1.07,2.37-1.65l0-1c-.83-.5-1.71-1.45-2.48-1.37a2.92,2.92,0,0,0-1.87,2A1.7,1.7,0,0,0,588.84,223.68ZM586,476.79a2.9,2.9,0,0,0,1.88,1.94c.78.07,1.64-.9,2.47-1.41,0-.32,0-.64,0-1-.79-.57-1.53-1.49-2.39-1.62A1.68,1.68,0,0,0,586,476.79ZM183.77,223.67a1.68,1.68,0,0,0,1.83-2.18,2.87,2.87,0,0,0-2-1.81c-.78,0-1.58,1-2.36,1.58l0,1C182.1,222.74,182.9,223.61,183.77,223.67Zm405-9.94c.86-.09,1.64-1,2.45-1.51,0-.33,0-.65,0-1-.81-.55-1.63-1.54-2.41-1.5a2.9,2.9,0,0,0-2,1.86A1.69,1.69,0,0,0,588.74,213.73ZM180.45,487.21c.82.53,1.66,1.52,2.44,1.47a2.93,2.93,0,0,0,1.92-1.91,1.69,1.69,0,0,0-1.94-2.09c-.86.11-1.62,1-2.42,1.57ZM311.32,702.4c-.54.77-1.41,1.48-1.54,2.31a1.7,1.7,0,0,0,2,2c.79-.17,1.91-1.2,1.95-1.91s-.95-1.63-1.5-2.45ZM182.83,498.61a2.88,2.88,0,0,0,2-1.84,1.69,1.69,0,0,0-1.87-2.15c-.87.08-1.66,1-2.48,1.48,0,.32,0,.65,0,1C181.24,497.63,182.05,498.64,182.83,498.61ZM449.69,702.42l-.94,0c-.58.8-1.62,1.61-1.6,2.4s1.09,1.78,1.88,2a1.69,1.69,0,0,0,2.1-2C451,704,450.2,703.21,449.69,702.42Zm9.75,0-.95,0c-.51.83-1.47,1.7-1.4,2.48a2.91,2.91,0,0,0,2,1.86,1.67,1.67,0,0,0,2-2C460.92,703.9,460,703.17,459.44,702.39ZM588,508.54c.78.06,1.63-.92,2.45-1.44v-1c-.8-.55-1.56-1.46-2.42-1.57a1.68,1.68,0,0,0-2,2.07A2.89,2.89,0,0,0,588,508.54ZM486.86,704.71a2.87,2.87,0,0,0,1.85,2c.8.08,1.69-.88,2.54-1.39l0-.91c-.75-.56-1.44-1.42-2.27-1.61A1.7,1.7,0,0,0,486.86,704.71ZM183,514.5c-.87.07-1.66.94-2.49,1.45l0,1c.79.57,1.59,1.59,2.37,1.57a2.87,2.87,0,0,0,2-1.82A1.68,1.68,0,0,0,183,514.5ZM499.33,702.41l-.95,0c-.55.82-1.57,1.65-1.53,2.44s1.13,1.75,1.92,1.93a1.69,1.69,0,0,0,2.05-2C500.7,703.91,499.85,703.19,499.33,702.41Zm9.84,0-.9,0c-.54.77-1.43,1.49-1.55,2.32a1.8,1.8,0,0,0,2,2.1c1.35-.05,2.22-.89,2-2.17C510.61,703.84,509.72,703.14,509.17,702.39Zm20,0h-1c-.55.81-1.55,1.63-1.52,2.41a2.9,2.9,0,0,0,1.88,2,1.67,1.67,0,0,0,2.1-1.9C530.53,704,529.66,703.22,529.13,702.41Zm9.36.4a2.94,2.94,0,0,0-1.9,1.93c-.05.78.94,1.62,1.47,2.43h1c.54-.81,1.43-1.57,1.55-2.44A1.65,1.65,0,0,0,538.49,702.81ZM183,528.43a2.88,2.88,0,0,0,1.86-2,1.68,1.68,0,0,0-2-2c-.85.14-1.58,1.07-2.37,1.64l0,1C181.3,527.55,182.17,528.51,183,528.43Zm405.05-4a1.69,1.69,0,0,0-2,2.07,2.91,2.91,0,0,0,1.9,1.93c.78.06,1.63-.91,2.45-1.44l0-1C589.61,525.47,588.86,524.55,588,524.43Zm0,13.93c.77,0,1.61-.94,2.42-1.47v-1c-.81-.55-1.57-1.45-2.44-1.55a1.69,1.69,0,0,0-1.92,2.1A2.9,2.9,0,0,0,588,538.36Zm-405,5.95c-.87.08-1.66,1-2.49,1.47,0,.33,0,.65,0,1,.79.56,1.6,1.58,2.38,1.56a2.91,2.91,0,0,0,2-1.84A1.69,1.69,0,0,0,183,544.31Zm403.09,2a2.91,2.91,0,0,0,1.86,2c.78.08,1.65-.87,2.48-1.38l0-1c-.79-.58-1.52-1.51-2.38-1.65A1.68,1.68,0,0,0,586,546.34Zm2.7-352.48c.86-.1,1.64-1,2.45-1.53v-1c-.81-.55-1.63-1.54-2.41-1.51a2.93,2.93,0,0,0-2,1.88A1.69,1.69,0,0,0,588.74,193.86ZM182.94,554.25c-.86.08-1.65,1-2.48,1.48,0,.32,0,.64,0,1,.8.56,1.61,1.57,2.38,1.54a2.92,2.92,0,0,0,2-1.83A1.69,1.69,0,0,0,182.94,554.25Zm405.06,0a1.68,1.68,0,0,0-2,2.06,2.89,2.89,0,0,0,1.9,1.93c.78.06,1.63-.91,2.45-1.43,0-.32,0-.64,0-1C589.61,555.29,588.86,554.37,588,554.25ZM184.83,566.33c-.13-.89-1-1.68-1.49-2.52l-.92,0c-.55.81-1.54,1.64-1.51,2.43a2.85,2.85,0,0,0,1.8,2A1.67,1.67,0,0,0,184.83,566.33Zm76.74,136.08c-.52.82-1.39,1.61-1.47,2.47a1.68,1.68,0,0,0,2.13,1.88c.78-.22,1.83-1.27,1.84-2s-1-1.6-1.55-2.4ZM180.45,576.62c.8.55,1.63,1.54,2.41,1.5a2.88,2.88,0,0,0,1.95-1.87,1.69,1.69,0,0,0-1.91-2.12c-.86.1-1.63,1-2.45,1.52ZM588,584.07a1.68,1.68,0,0,0-2,2,2.92,2.92,0,0,0,1.86,2c.77.07,1.65-.88,2.48-1.38,0-.32,0-.65,0-1C589.63,585.13,588.9,584.21,588,584.07Zm-403.21,12c-.14-.89-1-1.67-1.53-2.49h-.93c-.53.82-1.5,1.66-1.47,2.45a2.87,2.87,0,0,0,1.84,2A1.67,1.67,0,0,0,184.83,596.11Zm-1.17-406.25c-.77,0-1.61.95-2.42,1.49,0,.33,0,.65,0,1,.81.54,1.58,1.44,2.44,1.54a1.69,1.69,0,0,0,1.92-2.11A2.91,2.91,0,0,0,183.66,189.86Zm-3.19,416.71c.84.5,1.72,1.45,2.49,1.37a2.9,2.9,0,0,0,1.85-2,1.68,1.68,0,0,0-2-2c-.86.14-1.58,1.08-2.36,1.66Zm409.92-1.13c-.82-.53-1.6-1.41-2.47-1.5a1.7,1.7,0,0,0-1.88,2.15,2.9,2.9,0,0,0,2,1.85c.77,0,1.59-1,2.39-1.53C590.4,606.09,590.4,605.76,590.39,605.44ZM586,616a2.92,2.92,0,0,0,1.93,1.9c.78,0,1.62-.94,2.43-1.48v-1c-.8-.55-1.57-1.45-2.43-1.56A1.69,1.69,0,0,0,586,616ZM185.61,181.87a2.89,2.89,0,0,0-1.89-1.94c-.78-.07-1.64.9-2.47,1.41,0,.32,0,.64,0,1,.8.57,1.54,1.49,2.4,1.62A1.69,1.69,0,0,0,185.61,181.87Zm405.57-10.5c-.83-.5-1.71-1.46-2.48-1.39a3,3,0,0,0-1.87,2,1.68,1.68,0,0,0,2,2c.86-.14,1.59-1.07,2.37-1.65Zm-409.95,1c.8.57,1.54,1.49,2.4,1.62a1.69,1.69,0,0,0,2-2,2.91,2.91,0,0,0-1.89-1.94c-.77-.07-1.64.89-2.46,1.41ZM588.74,164c.86-.09,1.64-1,2.45-1.52,0-.32,0-.64,0-1-.8-.55-1.63-1.55-2.41-1.51a2.88,2.88,0,0,0-1.95,1.87A1.68,1.68,0,0,0,588.74,164ZM183.24,623.42h-.92c-.51.84-1.47,1.7-1.41,2.5a2.8,2.8,0,0,0,1.88,1.92,1.67,1.67,0,0,0,2-2C184.67,625,183.79,624.23,183.24,623.42ZM586,625.83a2.93,2.93,0,0,0,1.84,2c.78.08,1.66-.87,2.5-1.36,0-.33,0-.65,0-1-.78-.58-1.5-1.52-2.36-1.67A1.68,1.68,0,0,0,586,625.83ZM185.62,162c-.15-.87-1-1.62-1.59-2.43l-.92,0c-.51.83-1.46,1.69-1.41,2.48a2.87,2.87,0,0,0,1.89,1.93A1.69,1.69,0,0,0,185.62,162Zm405.56-20.49c-.84-.5-1.72-1.45-2.5-1.36a2.93,2.93,0,0,0-1.85,2,1.7,1.7,0,0,0,2,2c.86-.15,1.58-1.09,2.36-1.67ZM183.7,140.17c-.78-.06-1.63.92-2.45,1.44,0,.32,0,.64,0,1,.8.56,1.55,1.48,2.41,1.59a1.68,1.68,0,0,0,2-2.07A2.91,2.91,0,0,0,183.7,140.17Zm405-9.94a2.94,2.94,0,0,0-1.86,2,1.69,1.69,0,0,0,2,2c.86-.15,1.59-1.08,2.37-1.66l0-1C590.34,131.1,589.46,130.15,588.69,130.23ZM183,637.75a2.86,2.86,0,0,0,1.86-2,1.68,1.68,0,0,0-2-2c-.86.14-1.59,1.07-2.37,1.64l0,1C181.3,636.87,182.17,637.83,183,637.75Zm405-4a1.69,1.69,0,0,0-1.92,2.11,2.88,2.88,0,0,0,1.94,1.88c.78,0,1.61-1,2.42-1.49v-1C589.59,634.76,588.82,633.86,588,633.76Zm-405,13.94a2.89,2.89,0,0,0,1.88-2,1.68,1.68,0,0,0-2-2c-.86.13-1.6,1-2.39,1.62l0,1C181.29,646.8,182.15,647.76,182.93,647.7Zm0,9.93a2.88,2.88,0,0,0,1.85-2,1.68,1.68,0,0,0-2-2c-.86.14-1.58,1.08-2.37,1.66,0,.32,0,.64,0,1C181.3,656.76,182.19,657.71,183,657.63Zm403.08,8a2.9,2.9,0,0,0,1.93,1.9c.78,0,1.62-.94,2.43-1.47,0-.32,0-.64,0-1-.81-.54-1.57-1.44-2.44-1.55A1.68,1.68,0,0,0,586,665.67Zm2.74-551.32c.86-.12,1.62-1,2.42-1.58v-1c-.82-.53-1.67-1.51-2.44-1.46a2.92,2.92,0,0,0-1.92,1.92A1.69,1.69,0,0,0,588.78,114.35Zm-403.17-2.07a2.9,2.9,0,0,0-1.91-1.93c-.78-.06-1.63.92-2.45,1.45,0,.32,0,.64,0,1,.8.56,1.55,1.47,2.41,1.59A1.69,1.69,0,0,0,185.61,112.28ZM232.56,45.7l.95,0c.55-.82,1.57-1.65,1.53-2.44s-1.13-1.75-1.92-1.93a1.69,1.69,0,0,0-2.05,2C231.19,44.19,232,44.92,232.56,45.7Zm9.87,0,1,0c.58-.78,1.61-1.57,1.6-2.36a2.87,2.87,0,0,0-1.8-2A1.69,1.69,0,0,0,241,43.18C241.08,44.05,241.93,44.85,242.43,45.69Zm49.84,0h.94c.53-.83,1.53-1.7,1.47-2.49s-1.19-1.71-2-1.87a1.69,1.69,0,0,0-2,2.07C290.85,44.25,291.72,45,292.27,45.71Zm19.77,0,.95,0c.57-.81,1.59-1.63,1.57-2.42a2.92,2.92,0,0,0-1.91-1.95,1.69,1.69,0,0,0-2.07,2C310.69,44.17,311.53,44.91,312,45.69Zm10.08,0,.94,0c.52-.84,1.5-1.71,1.43-2.5a2.89,2.89,0,0,0-2-1.85,1.69,1.69,0,0,0-2,2.1C320.67,44.27,321.56,45,322.12,45.72Zm147-.06.94.08c.59-.79,1.65-1.57,1.65-2.35a2.93,2.93,0,0,0-1.82-2,1.68,1.68,0,0,0-2.15,1.9C467.83,44.08,468.66,44.86,469.15,45.66Zm119.59,188c.86-.09,1.64-1,2.45-1.51v-1c-.8-.55-1.63-1.55-2.4-1.51a2.91,2.91,0,0,0-2,1.87A1.69,1.69,0,0,0,588.74,233.61ZM519.12,702.4h-1c-.52.82-1.49,1.68-1.44,2.46a2.9,2.9,0,0,0,1.92,1.89,1.68,1.68,0,0,0,2.05-2C520.57,703.94,519.67,703.19,519.12,702.4ZM185.61,291.17a2.91,2.91,0,0,0-1.92-1.91c-.78-.06-1.62.92-2.44,1.44,0,.33,0,.65,0,1,.8.55,1.56,1.46,2.42,1.58A1.69,1.69,0,0,0,185.61,291.17Zm-1.86-7.86a1.7,1.7,0,0,0,1.86-2.17,2.91,2.91,0,0,0-2-1.83c-.78,0-1.59,1-2.38,1.56l0,1C182.09,282.36,182.89,283.24,183.75,283.31Zm407.43-22.47c-.82-.51-1.7-1.47-2.47-1.4a2.89,2.89,0,0,0-1.88,1.95,1.69,1.69,0,0,0,2,2c.85-.13,1.59-1.06,2.38-1.63ZM528.89,45.69l.94,0c.56-.8,1.58-1.63,1.54-2.41a2.92,2.92,0,0,0-1.9-2,1.68,1.68,0,0,0-2.07,2C527.5,44.17,528.37,44.91,528.89,45.69Zm-9,0c.56-.79,1.46-1.54,1.58-2.4a1.67,1.67,0,0,0-2-2,2.9,2.9,0,0,0-1.93,1.89c0,.78.92,1.63,1.45,2.45ZM185.61,231.52a2.92,2.92,0,0,0-1.93-1.9c-.78-.05-1.62.94-2.43,1.47,0,.32,0,.64,0,1,.81.55,1.57,1.46,2.44,1.57A1.7,1.7,0,0,0,185.61,231.52Zm-2.76,223.34c-.86.12-1.61,1-2.41,1.6,0,.32,0,.64,0,1,.82.52,1.67,1.49,2.45,1.43a2.87,2.87,0,0,0,1.9-1.92A1.69,1.69,0,0,0,182.85,454.86ZM588.73,283.31c.86-.09,1.64-1,2.46-1.51v-1c-.8-.55-1.62-1.55-2.4-1.52a2.88,2.88,0,0,0-2,1.86A1.69,1.69,0,0,0,588.73,283.31ZM588,488.68c.78,0,1.61-1,2.42-1.51v-1c-.81-.53-1.59-1.42-2.45-1.52A1.69,1.69,0,0,0,586,486.8,2.92,2.92,0,0,0,588,488.68Zm-2,8a2.92,2.92,0,0,0,1.87,2c.78.07,1.65-.89,2.48-1.4,0-.32,0-.64,0-1-.79-.57-1.52-1.5-2.38-1.63A1.68,1.68,0,0,0,586,496.65Zm-403.13,7.91c-.87.09-1.64,1-2.46,1.52v1c.81.54,1.64,1.54,2.42,1.5a2.91,2.91,0,0,0,1.95-1.87A1.68,1.68,0,0,0,182.91,504.56ZM548.52,702.8a1.68,1.68,0,0,0-2,2,2.83,2.83,0,0,0,2,1.88c.8,0,1.63-1,2.45-1.53l0-.91C550.1,703.75,549.37,702.93,548.52,702.8ZM586,516.66a2.91,2.91,0,0,0,2,1.83c.78,0,1.58-1,2.37-1.56l0-1c-.82-.52-1.62-1.39-2.48-1.46A1.7,1.7,0,0,0,586,516.66ZM183.61,209.75c-.77,0-1.58,1-2.38,1.54l0,1c.82.52,1.61,1.4,2.48,1.48a1.7,1.7,0,0,0,1.87-2.16A2.91,2.91,0,0,0,183.61,209.75Zm405.12-5.95c.86-.09,1.64-1,2.46-1.51v-1c-.8-.55-1.62-1.55-2.4-1.52a2.88,2.88,0,0,0-2,1.86A1.69,1.69,0,0,0,588.73,203.8ZM588,598c.77,0,1.59-1,2.4-1.52l0-1c-.81-.53-1.6-1.42-2.46-1.5a1.69,1.69,0,0,0-1.89,2.13A2.92,2.92,0,0,0,588,598Zm.8-414.08c.86-.13,1.6-1,2.4-1.62l0-1c-.83-.51-1.69-1.48-2.47-1.41a2.91,2.91,0,0,0-1.89,1.94A1.69,1.69,0,0,0,588.81,183.92ZM586,655.65a2.9,2.9,0,0,0,1.85,2c.77.08,1.66-.87,2.49-1.37,0-.32,0-.64,0-1-.79-.58-1.51-1.51-2.37-1.65A1.68,1.68,0,0,0,586,655.65ZM184.81,665.7a1.68,1.68,0,0,0-1.9-2.12c-.87.09-1.64,1-2.46,1.52v1c.81.54,1.64,1.54,2.42,1.5A2.91,2.91,0,0,0,184.81,665.7ZM588,578.12c.78,0,1.58-1,2.37-1.56,0-.32,0-.64,0-1-.83-.51-1.62-1.39-2.49-1.46a1.69,1.69,0,0,0-1.86,2.16A2.91,2.91,0,0,0,588,578.12ZM185.61,201.64a2.93,2.93,0,0,0-2-1.84c-.78,0-1.59,1-2.39,1.55l0,1c.82.52,1.62,1.4,2.48,1.48A1.7,1.7,0,0,0,185.61,201.64Zm-5.14,414.87c.84.5,1.72,1.45,2.5,1.36a2.89,2.89,0,0,0,1.84-2,1.68,1.68,0,0,0-2-2c-.85.14-1.57,1.09-2.36,1.67C180.45,615.87,180.46,616.19,180.47,616.51Zm2.47-32.44c-.86.07-1.65.95-2.48,1.47l0,1c.79.56,1.6,1.57,2.38,1.55a2.91,2.91,0,0,0,2-1.84A1.69,1.69,0,0,0,182.94,584.07Zm58.78,118.34c-.53.81-1.4,1.59-1.5,2.45a1.68,1.68,0,0,0,2.11,1.9,2.9,2.9,0,0,0,1.87-2c0-.79-1-1.61-1.53-2.41Zm10,0c-.56.79-1.47,1.53-1.6,2.39a1.67,1.67,0,0,0,2,2,2.87,2.87,0,0,0,1.94-1.87c.06-.78-.9-1.65-1.42-2.47ZM586,566.27a2.91,2.91,0,0,0,1.91,1.92c.78,0,1.63-.93,2.45-1.46,0-.32,0-.64,0-1-.8-.55-1.56-1.46-2.42-1.57A1.69,1.69,0,0,0,586,566.27Zm2.77-461.86c.86-.13,1.6-1,2.4-1.62l0-1c-.83-.51-1.69-1.48-2.47-1.41a2.91,2.91,0,0,0-1.89,1.94A1.69,1.69,0,0,0,588.81,104.41Zm-307.29,598c-.54.8-1.43,1.56-1.55,2.42a1.68,1.68,0,0,0,2.08,1.94c.78-.19,1.86-1.21,1.9-1.91s-.94-1.63-1.47-2.44ZM588.81,154.1c.86-.12,1.61-1,2.4-1.61,0-.32,0-.65,0-1-.83-.51-1.69-1.48-2.47-1.41a2.91,2.91,0,0,0-1.89,1.94A1.68,1.68,0,0,0,588.81,154.1Zm-403.2-21.9a2.88,2.88,0,0,0-1.87-2c-.77-.08-1.65.87-2.48,1.38l0,1c.79.58,1.52,1.51,2.38,1.65A1.69,1.69,0,0,0,185.61,132.2Zm403.08-7.92c.87-.07,1.66-.94,2.49-1.45l0-1c-.79-.57-1.59-1.59-2.37-1.57a2.91,2.91,0,0,0-2,1.83A1.68,1.68,0,0,0,588.69,124.28ZM322.42,702.46l-.93-.09c-.62.77-1.69,1.53-1.71,2.3a2.91,2.91,0,0,0,1.78,2.08,1.68,1.68,0,0,0,2.19-1.85C323.7,704.06,322.89,703.27,322.42,702.46ZM185.61,122.27a2.88,2.88,0,0,0-1.86-2c-.77-.08-1.65.87-2.49,1.37l0,1c.79.58,1.51,1.52,2.37,1.66A1.69,1.69,0,0,0,185.61,122.27ZM183,534.37c-.87.07-1.67,1-2.49,1.46l0,1c.79.57,1.59,1.58,2.37,1.57a2.91,2.91,0,0,0,2-1.83A1.69,1.69,0,0,0,183,534.37ZM468.87,702.86A2.82,2.82,0,0,0,467,704.8a1.65,1.65,0,0,0,2,2c.88-.18,1.61-1.06,2.4-1.63,0-.31,0-.62,0-.93C470.53,703.72,469.65,702.79,468.87,702.86Zm10.67-.43-1,0c-.58.79-1.62,1.56-1.63,2.35a2.89,2.89,0,0,0,1.8,2,1.69,1.69,0,0,0,2.19-1.81C480.88,704.07,480,703.26,479.54,702.43ZM183.6,154.11a1.69,1.69,0,0,0,2-2,2.9,2.9,0,0,0-1.86-2c-.77-.08-1.65.87-2.48,1.37,0,.32,0,.64,0,1C182,153,182.74,154,183.6,154.11ZM548.72,45.68l.93,0c.58-.8,1.62-1.6,1.6-2.38a2.93,2.93,0,0,0-1.86-2,1.69,1.69,0,0,0-2.12,1.94C547.35,44.13,548.21,44.88,548.72,45.68ZM586,645.78A2.91,2.91,0,0,0,588,647.7c.78,0,1.63-.93,2.45-1.46,0-.32,0-.64,0-1-.8-.56-1.56-1.47-2.42-1.58A1.69,1.69,0,0,0,586,645.78Zm-189-125a2.36,2.36,0,0,0-1.44,1.56c-.07.38.92,1.35,1.41,1.33s1.2-.79,2.28-1.59C398.15,521.42,397.46,520.67,397,520.8Zm4.34.66c-.49.48-1.25.9-1.4,1.48-.1.42.59,1,1.24,2.09.72-1,1.39-1.6,1.41-2.17S401.79,521.92,401.34,521.46ZM372.57,324.24c-1-.84-1.61-1.69-2.07-1.62a2.48,2.48,0,0,0-1.63,1.4c-.12.33.75,1.41,1.25,1.47S371.39,324.88,372.57,324.24ZM366,322c-.46.53-1.18,1-1.3,1.61-.08.41.69,1,1.46,2,.6-1.09,1.21-1.71,1.17-2.28S366.46,322.4,366,322ZM397.73,83.63a3.19,3.19,0,0,0-1.9-.4c-7.21,0-14.41,0-21.62.1-1.32,0-2.91.08-3,1.89s1.52,1.71,2.73,2h0c2.66,9.26,5.25,18.26,7.83,27.27-2.78,1-6.11-.14-8.71,2.1a3.45,3.45,0,0,0,3.68,2.6c5.82.07,11.64,0,17.46-.1,1.46,0,2.91-.55,2.87-2.36s-1.53-2.3-3.09-2.34-3.39,0-5.43,0L395,87.68a8,8,0,0,0,2.48-.44,2.62,2.62,0,0,0,1.31-1.73A2.64,2.64,0,0,0,397.73,83.63ZM374,87.22c.11,0,.18.12,0,0ZM385,108c-2.29-7-4.45-13.55-6.68-20.31h13.18C389.38,94.43,387.28,101,385,108Z"/></svg>