<svg xmlns="http://www.w3.org/2000/svg" viewBox="0 0 750 750"><path d="M606.15,48.23a27.93,27.93,0,0,0-.44-5.33A21.88,21.88,0,0,0,583.78,25H187.25c-13.12,0-22.67,9.55-22.67,22.69V375.05q0,163.68,0,327.36a22.22,22.22,0,0,0,.15,3.16c1.77,11.88,10.72,19.43,23.07,19.43q197.57,0,395.13,0a27.09,27.09,0,0,0,5.33-.45c10.93-2.22,17.9-11.09,17.9-22.78Q606.17,375,606.15,48.23Zm-4.26,653.39c0,11.55-7.46,19.1-18.93,19.1H187.6c-9.36,0-16.5-5.45-18.38-14.1a22.74,22.74,0,0,1-.35-4.74q0-163.49,0-327V47.53c0-8.94,5.45-16,13.94-17.87a18.59,18.59,0,0,1,3.94-.37H584.09a17.65,17.65,0,0,1,17.8,17.58c0,1.59,0,3.18,0,4.77Zm-21.53-26.11V421.85l-4.2-3V671.92A21.66,21.66,0,0,0,561.94,679a25.79,25.79,0,0,0-7,14.29H432.76c2.56,3.1,5.23,4.67,9.13,4.33,4.34-.37,8.73-.09,13.1-.08l102,0c.57,0,1.13-.11,1.94-.19-.68-6.27,2-11,6.2-15.15A23.51,23.51,0,0,1,580.36,675.51Zm-385.69-3.65V418.78l-4.2,3.12V675.53a23.42,23.42,0,0,1,15.3,6.74c4.27,4.16,6.84,9,6.24,15.17.8.07,1.26.15,1.71.15,38.95,0,77.91-.07,116.86.07,3.6,0,5.12-2.28,7.2-4.44H215.91C214.19,682.27,205.45,673,194.67,671.86ZM577,76.4v243l4.15-3.05V72.85c-12.58-2.32-21-8.5-21.84-22.3h-4q-57.33,0-114.67-.07c-3.41,0-4.77,2.37-6.72,4.36H555.62C558.3,66.45,564.74,74.16,577,76.4ZM191.29,316.31l4.29,3.17V76.36c12.21-2.28,18.57-10,21.25-21.6H339c-2.63-2.58-4.79-4.64-8.59-4.31-4.6.39-9.26.09-13.9.09l-102,0a12.21,12.21,0,0,0-1.45.15c-.91,13.75-9.33,19.88-21.83,22.18Zm258,55.8.21-.7c-1.14-.78-2.29-1.55-3.42-2.34-.91-.64-2.26-1.12-2.61-2-1.68-4.24-5-6.37-9.09-7.6-1.83-.55-3.05-1.84-4.25-3.65,1-.06,1.67-.16,2.31-.13,4.29.24,8.57.52,12.86.75,1.19.06,2.39,0,3.58,0l.39-.89c-3-2.14-4.8-5.74-8.36-7a88.77,88.77,0,0,0-11.36-2.77c-3.34-.71-5.9-2.74-8.9-4.59l11.59-2.33L441.7,341l.46-.66-2.67-4.09L443,333.3,433.47,330c-4-4-8.71-8.19-11.89-13.76-2.18-3.82-5-7.22-9-9.28a3.13,3.13,0,0,1-1.8-3.59c.32-1.95.92-3.84,1.47-6.06L411,294.62c1-4.54,2.23-9.42,3.22-14.34a5.11,5.11,0,0,0-.44-3.54,30.74,30.74,0,0,0-12.34-10.34,9.65,9.65,0,0,0-7.71-.36c-2,7.15-.76,14.61-1.88,21.85-1.61.26-3.06.38-4.46.72-4.38,1.07-4.91,2.32-2.59,6.11-.36.34-.75.68-1.12,1-1.75,1.7-1.83,2.79-.39,4.79a8.51,8.51,0,0,1,.57,1c.62,1.27,1.52,1.41,2.8.94a27.62,27.62,0,0,1,3.95-.77c-.39,2.36-.54,4.14-1,5.84-1.37,5.1-.17,10,1.23,14.81q2.19,7.53,4.24,15.09c1.55,5.77,3.39,11.34,6.91,16.34,5.67,8.06,11.11,16.29,16.48,24.55a52.94,52.94,0,0,0,9.67,11.76,9.31,9.31,0,0,0,2.37,1.07l.53-.58-2.27-6.11c2.56-3,2.12-6.06.78-9.11-1.19-2.73-2.58-5.37-3.87-8.05a11.49,11.49,0,0,1-.44-1.14c5.3,1.73,10.48,3.51,15.73,5.09a50.08,50.08,0,0,0,6.81,1.24C448.24,372.62,448.77,372.27,449.27,372.11Zm-58.49-71.58a13.38,13.38,0,0,1-2.58-.48c-1.2-.51-2.33-1.21-3.55-1.86.53-1.28,3.12-2,6.55-1.3C391.07,298,390.94,299.12,390.78,300.53Zm.62-6.73-5.34-1.45c0-.32,0-.63,0-.94l5.55-1.19C391.53,291.62,391.48,292.43,391.4,293.8ZM420.66,344a22.67,22.67,0,0,0,11.44,4.55c2.29.24,4.55.8,6.82,1.22a5.76,5.76,0,0,1,4.29,3.21c-8.76.58-17.1.77-25-2.85a2.27,2.27,0,0,1-1.07-.81c-1.41-2.57-2.49-5.24-2-8.6A58.13,58.13,0,0,1,420.66,344Zm-5.4-6.23c.3-1.57.54-2.83.74-3.92a68.75,68.75,0,0,1,8.66.11c1.37.17,2.6,1.46,3.8,2.54C424.14,337.89,419.94,339.08,415.26,337.72Zm1.9-8.81,5.52,2.08-.22.63C418.71,332.1,416.69,331.2,417.16,328.91Zm-22-61.92c2,.68,3.67,1.08,5.18,1.77,4,1.83,7.08,4.82,9.91,8.11a4.48,4.48,0,0,1,1,4.22c-.77,3.42-1.34,6.89-2,10.33-.11.56-.29,1.1-.46,1.71-2.47-.47-3.2-4-6.29-2.81-.95-2.47-2.52-2.78-4.7-1.88-.74.3-1.78-.14-2.65-.24Zm-.32,23.92c.26-.14.39-.28.48-.25,2.47.81,4.95,1.61,7.41,2.48a40.2,40.2,0,0,1,4,1.61,10.56,10.56,0,0,1,1.75,1.34l-.27.41-13.34-2.85ZM399,339.82c-1-6.35-3.22-12.52-5.09-18.71-1.32-4.39-2.71-8.61-1.26-13.34,1-3.39,1.29-7,2-10.86a37.38,37.38,0,0,1,13.57,3.33c.08,1.34.16,2.56.25,4L404.77,303l-.59.55a8.57,8.57,0,0,0,1.61,2.48,35.93,35.93,0,0,0,5.1,3,20.65,20.65,0,0,1,7.09,6.22c4.1,5.34,8.45,10.49,12.77,15.78l.76,4.4c-3.16-2.54-6.22-5.72-9.91-7.75s-8.06-3-12.14-4.4c.08,1.45.08,1.45,4.45,4.91-.13,1-.25,2.19-.43,3.35-.4,2.62-.9,5.22-1.23,7.84A17.42,17.42,0,0,0,414,349.64c.38.76.63,1.58,1.17,2.95l-7.33,3.2C404.11,350.61,400,346.39,399,339.82Zm10.14,17.71,6.87-3,.67,1.13C414.2,357.79,410.82,358.65,409.09,357.53Zm19,24.25c-1.39-2.21-3-3.85-5.9-3.54-2.73-5.27-7.35-9.15-8.58-15.16l-2.22-1.44,6.73-3.1v3l2,.88C422.42,368.8,428.43,373.87,428.12,381.78Zm5-16.12c-2.54-.93-5-2.07-7.59-2.89a6.08,6.08,0,0,1-4.09-3.92c-.71-1.82-1.61-3.55-2.58-5.64a22.76,22.76,0,0,1,10.5,5.46c1.56,1.35,3.53,2.21,5.23,3.41s3.56,2.62,5.26,4c.43.36.56,1.07,1.11,2.17C437.92,367.28,435.49,366.52,433.09,365.66Zm-95.66-30.49c.75,2,1.49,4,2.29,6.11-2.13,2.25-2.25,4.89-1.35,7.62a39.22,39.22,0,0,0,1.85,4.39c1,2.13,2.07,4.22,3.35,6.81a50.63,50.63,0,0,0-5.5-2.3c-5.65-1.58-11.34-3-17-4.48a4.87,4.87,0,0,0-1.83.3c-.06.22-.11.45-.17.68.75.58,1.47,1.18,2.24,1.72,1.24.86,3.16,1.42,3.64,2.58,1.84,4.46,5.37,6.46,9.59,7.95,1.44.51,2.57,1.92,3.84,2.91L338,370c-.65,0-1.31.12-2,.09-4.23-.24-8.45-.52-12.67-.75-1.25-.06-2.5,0-3.76,0-.12.3-.25.6-.37.91,3,2.1,4.81,5.73,8.39,7a99.39,99.39,0,0,0,11.56,2.81c3.23.72,5.71,2.69,8.6,4.54l-11.51,2.32-9.48-2.13-.47.65,2.66,4.08-3.46,3,9.52,3.34c4,3.95,8.66,8.14,11.84,13.71,2.18,3.81,5,7.25,9,9.28a3.33,3.33,0,0,1,1.81,4c-.32,1.88-1,3.71-1.5,5.67.34.7.71,1.46,1.27,2.63-1,4.59-2.23,9.48-3.22,14.4a5.12,5.12,0,0,0,.44,3.54A30.42,30.42,0,0,0,367,459.37a9.36,9.36,0,0,0,7.74.3c1.91-7.1.78-14.54,1.82-21.77,1.64-.26,3.09-.39,4.49-.74,4.43-1.11,4.93-2.31,2.58-6.09a17.88,17.88,0,0,0,1.54-1.48c.95-1.12,1.56-2.33.53-3.76a14.46,14.46,0,0,1-1.09-1.63c-.65-1.24-1.52-1.42-2.81-.95a27,27,0,0,1-3.95.72c.38-2.27.53-4.05,1-5.74,1.38-5.18.16-10.08-1.29-15s-2.83-9.79-4.14-14.71c-1.54-5.78-3.3-11.38-6.82-16.38-5.66-8.07-11.11-16.29-16.49-24.56-2.79-4.3-5.72-8.44-9.62-11.81a11.14,11.14,0,0,0-2.5-1.21Zm40.22,90.33h2.4c0,.14-.09.28-.13.41l3.93,1.51c-.6,1.48-3.44,2.27-6.59,1.4C377.4,427.7,377.52,426.67,377.65,425.5ZM377,432l5.43,1.48-.06,1L377,435.5Zm-43.32-68.31c-3.08-1.49-5.14-3.37-5.59-5.86a12.77,12.77,0,0,1,1.73.37c4.77,1.75,9.57,3.48,14.29,5.36a5.29,5.29,0,0,1,2.33,2.19c1.17,2.1,2.09,4.33,3.27,6.83a22.5,22.5,0,0,1-10.27-5.22A27.07,27.07,0,0,0,333.64,363.68Zm13.5,17.71a20.14,20.14,0,0,0-9.42-3.86c-2.75-.32-5.46-1-8.19-1.47a5.72,5.72,0,0,1-4.26-3.21c8.79-.58,17.13-.75,25,2.86a2,2,0,0,1,.95.66c1.45,2.62,2.57,5.34,2,8.78C351.12,383.84,349,382.73,347.14,381.39Zm6.08,6.57-.75,4a69.1,69.1,0,0,1-8.68-.11c-1.37-.18-2.6-1.48-3.8-2.53C344.27,387.82,348.45,386.82,353.22,388Zm-1.92,8.92-5.52-2.09c.07-.22.15-.43.22-.65C349.92,393.72,351.81,394.57,351.3,396.88Zm22,61.87a54.36,54.36,0,0,1-5.21-1.75c-4-1.82-7.06-4.82-9.89-8.1a4.44,4.44,0,0,1-1-4.22c.76-3.35,1.31-6.74,2-10.12.12-.62.3-1.23.56-2.32l3.8,3.25,2.5.21c.88,2.18,2.44,2.51,4.62,1.65.78-.31,1.87.17,2.65.27Zm.32-23.88c-.26.14-.4.28-.48.25-2.48-.81-5-1.62-7.41-2.49a38.06,38.06,0,0,1-4-1.61,10.42,10.42,0,0,1-1.73-1.34l.29-.4,13.31,2.83Zm-4-48.2c.86,6.21,3.27,12.22,5.07,18.29,1.27,4.24,2.6,8.35,1.19,13-1.06,3.44-1.33,7.13-2,11a39.38,39.38,0,0,1-13.58-3.47c-.07-1.32-.12-2.54-.18-3.89l3.61,1.17c.19-.21.37-.43.55-.64a9.36,9.36,0,0,0-1.74-2.47,30.33,30.33,0,0,0-4.76-2.83,21.23,21.23,0,0,1-7.39-6.43c-3.45-4.51-7.22-8.77-10.92-13.08a14.78,14.78,0,0,0-2.52-1.94l.77-.49-.8-4.77c1.58,1.35,3.15,2.72,4.75,4a32.64,32.64,0,0,0,5.14,4c1.9,1,4.16,1.3,6.2,2.06s3.91,1.67,6,2.29c-.37-2.58-2.65-3.34-4.49-4.82.13-1.08.23-2.25.41-3.4.4-2.48.91-4.95,1.23-7.44A18,18,0,0,0,354.37,376c-.36-.7-.58-1.47-.94-2.4a13.34,13.34,0,0,1,7.37-3.26C364.66,375.36,368.7,379.89,369.64,386.67Zm-10.29-18.42-6.86,3-.7-1.23C354.62,367.88,357.78,367.12,359.35,368.25Zm-19-24.21c1.47,2,2.91,3.93,5.51,3.49,3.71,3.9,8.37,11.87,8.87,15.12l2.4,1.49-6.76,3.05v-2.86l-2.12-1C346,356.91,340,351.91,340.33,344Zm171.38-99.27c3.39-7.17,6.54-14.47,10.26-21.47,2.51-4.72,2.13-11.48-3.74-14.74-3.6-2-6-.82-7.36,2.42-1,2.19-1.94,4.36-2.87,6.55-1.78,4.21-3.7,8.36-5.28,12.64-2.61,7.08-4.89,14.29-7.52,21.37-5.32,14.35-10.77,28.64-16.19,43-.79,2.09-1.73,4.12-2.57,6.1-4.1-.46-4.22-.27-4.6,3.74-.28,2.89-.35,5.93-1.36,8.59-5.24,13.81-10.57,27.58-17.4,40.72a9.39,9.39,0,0,0-.7,1.85c-.75,2.8-.17,4.39,2,5.57,2.92,1.59,4.72,1.38,6.72-.89a11.7,11.7,0,0,0,1.65-2.47c4.5-9.23,8.9-18.48,11.77-28.41a73.56,73.56,0,0,1,5.11-13.09c2.82-5.46,6.65-10.41,9.33-15.93,3.63-7.5,6.65-15.3,9.8-23,1.62-4,3.54-7.67,7-10.44a14,14,0,0,0,2.06-2.95L504,262a11.31,11.31,0,0,1,2-1.71c1.49-.72,3.07-1.25,4.61-1.86,4.22-1.69,7.89-4.13,10.26-8.1a54.79,54.79,0,0,0,2.5-5.34c-4.53-2.22-8.21-.74-11.79,1.3-.1-.38-.19-.51-.16-.62A5.18,5.18,0,0,1,511.71,244.77Zm-54,115.06-2.7-1.41c-.61-2.1.48-3.6,1.42-5.08a34.64,34.64,0,0,1,9.23-9.19C462.94,349.33,462.22,355.5,457.67,359.83Zm3.15-15.1c.58-4.71,6.09-13.5,10.9-17.27A22.21,22.21,0,0,1,460.82,344.73ZM473,321.52c-.43,2.31-3.14,5.31-5.41,6.61,1.49-3.85,2.65-7.58,4.36-11,1.91-3.88,2.38-7.93,2.54-12.11a2.71,2.71,0,0,1,.54-1.7c.21.41.65.85.59,1.22C474.8,310.19,474,315.88,473,321.52Zm39-105c1.13,1.9,1.07,5.45,4.75,3.88,1.61-.69,2.63-4,1.93-5.41-.51-1-1-1.19-2.35-.65-.1,1-.2,2-.32,3.21a4.64,4.64,0,0,1-.37-6.27c3.31.22,5.46,3.08,4.91,6.78a14.87,14.87,0,0,1-1.38,4.11c-.65,1.36-1.62,2.57-2.37,3.9s-1.38,2.69-2.17,4.25C511.65,225.63,510.37,218.94,512,216.53ZM505.55,231l.6.21c-.77,5.94-1.77,11.81-5.52,16.79l-.5-.16Q502.85,239.45,505.55,231Zm-22.08,73c-1.42,3.23-3.58,6.14-5.43,9.19l-.6-.11c.29-3.45.1-7,1-10.32s2.91-6.38,4.43-9.55l.54.07v3.07c0,.66,0,1.32,0,2C483.45,300.27,484.16,302.46,483.47,304Zm8.63-17.86c-1.33-2.4.69-7.5,4.29-10.61C494.88,279.31,493.51,282.69,492.1,286.17Zm7.8-16.92c-2.81,3-5.7,5.86-8.2,9.07a10.29,10.29,0,0,0-1.68,10,6.36,6.36,0,0,1-.65,5.3c-.91,1.72-1.78,3.46-2.85,5.13-.57-5.77-1.13-11.4.94-17a64.17,64.17,0,0,1,11.62-20c1.41-1.63,2.68-3.38,4-5.08l.41.23c-.86,1.9-1.74,3.79-2.57,5.7-.73,1.67-.6,2.09.89,3.22l1.79-.4.28.3C502.55,266.88,501.12,268,499.9,269.25Zm-4.63-6.19a7.58,7.58,0,0,1-1,.75c.95-4.24,3-7.53,5.1-10.81,1-1.51,2-3,3.05-4.41,4.51-6.08,6.11-12.93,5.64-20.41a37,37,0,0,1,.43-5.53h.88c1,3.42,2.05,6.8,2.83,10.25a8.08,8.08,0,0,1-.32,4.07C508.66,247.13,502.29,255.31,495.27,263.06ZM246.62,502.35c-3.22,6.4-2.1,10.68,3.67,14.79,3.57,2.55,5.93.73,7.23-2.16.91-2.06,1.81-4.13,2.68-6.2,2.06-4.95,4.22-9.86,6.1-14.87,2.46-6.58,4.58-13.28,7-19.86,5.31-14.27,10.72-28.51,16.12-42.75.79-2.09,1.73-4.12,2.57-6.11,3.54.36,4.43,0,4.5-2.16a41.11,41.11,0,0,1,3.41-15.39C305,396.07,310,384.46,315,372.85a14.12,14.12,0,0,0,1.28-4.13,3.89,3.89,0,0,0-.94-3c-3.08-2.43-5.48-3.2-8.48.55a16.49,16.49,0,0,0-1.71,2.9A179.16,179.16,0,0,0,293,399.72,57,57,0,0,1,288,410.94c-2.18,4.08-5.13,7.77-7.13,11.93-3.62,7.57-6.79,15.36-10.15,23.06-2,4.53-3.48,9.26-7.57,12.62-3.1,2.54-2.75,3.65,1.42,5.17a13.72,13.72,0,0,1-2.33,1.81c-1.73.81-3.55,1.44-5.33,2.18A19.2,19.2,0,0,0,245.86,479c-.22.58-.31,1.21-.61,2.44,2.24.12,4.2.54,6.06.24s3.77-1.3,5.84-2.06a11.6,11.6,0,0,1-.41,1.42C253.39,488.15,250.16,495.33,246.62,502.35Zm64-136.45,3.26,1.64c-1.18,6.78-6.44,10.17-11,14.09C305.5,376.46,306.39,370.39,310.61,365.9ZM307.78,381a34,34,0,0,1-11,17.37C297.55,390.76,301.22,385.09,307.78,381Zm-14.94,40.4c.88-5.86,1.49-11.79,2.88-17.53.56-2.32,2.85-4.22,4.35-6.32l.73.43c-1.59,4-3.43,7.93-4.7,12s-1.88,8.21-2.81,12.45C293.16,422.13,292.79,421.71,292.84,421.35Zm-36.36,88c-1.11-2-1.14-5.64-4.85-3.89-1.77.84-2.7,4.29-1.62,5.58.41.49,1.32.57,2.13.89.12-1.56.2-2.53.31-3.9a4.92,4.92,0,0,1,.42,6.44c-3.22-.14-5.41-2.88-5-6.52a13,13,0,0,1,1.4-4.31c1.4-2.68,3-5.25,4.62-8C256.73,499.85,258.09,506.76,256.48,509.34Zm6.43-14.56-.61-.22c.79-5.93,1.81-11.79,5.5-16.78l.52.17Q265.62,486.37,262.91,494.78ZM285,421.49c1.8-3,3.62-5.95,5.44-8.92l.59.11c-.28,3.45-.09,7-1,10.31s-2.92,6.4-4.44,9.59l-.35-.13c-.17-3.34-.34-6.68-.49-10A1.68,1.68,0,0,1,285,421.49Zm-8.55,17.95c1.08,2.86-1.09,8.18-4.24,10.46C273.67,446.27,275,443,276.44,439.44Zm-12.06,20.78c1.43-1.25,2.81-2.57,4.31-3.73a31.83,31.83,0,0,0,9.39-11.37,10.75,10.75,0,0,0,.3-7.94,5.79,5.79,0,0,1,.52-4.56c1-1.85,1.88-3.73,3-5.88,2.55,12-1.67,22-7.87,31.27-2.52,3.78-5.55,7.21-8.34,10.81l-.51-.26c.8-1.78,1.61-3.57,2.39-5.36.58-1.33.8-2.58-1-3.27l-1.83.59Zm9,2.3c.12-.13.31-.2.86-.12a40.48,40.48,0,0,1-2.2,5.3c-2,3.42-4.13,6.79-6.41,10a29.71,29.71,0,0,0-5.21,19.55c.12,2,.32,4.09-1.19,6.22-1.07-3.71-2.17-7-2.91-10.3a9,9,0,0,1,.29-4.46C259.86,478.52,266.29,470.3,273.39,462.52ZM456.71,326.28a16.94,16.94,0,0,0,.83-3.26,175.61,175.61,0,0,0,3.39-33.15,39.86,39.86,0,0,1,1.68-11.73,166.64,166.64,0,0,0,7.06-38.59c.31-5.22.91-10.46,4.3-14.84a3.41,3.41,0,0,0,.51-1.07c.51-1.54-.1-2.46-1.72-2.56a20.29,20.29,0,0,0-2.13.1,11.43,11.43,0,0,1,1.54-2.43c1.49-1.31,3.1-2.48,4.68-3.68a19.19,19.19,0,0,0,7.63-13.65,21.6,21.6,0,0,0,0-2.28c-4.78-.71-7.89,1.57-11,5.06a17,17,0,0,1,0-1.83c1.15-7.78,1.35-15.71,3.81-23.28,1.8-5.52-.85-12.16-7.64-13.56-3.63-.75-5.62.67-6.12,4-.71,4.65-1.66,9.28-2,14-.94,11.54-1.51,23.12-2.43,34.67-1.2,15-2.59,30.08-3.91,45.12-.07.78-.25,1.54-.37,2.25-4,.71-4.09.88-3.37,4.81a39.24,39.24,0,0,1,1.11,8.43c-.17,4.89-.76,9.77-1.41,14.62-1.31,9.77-2.81,19.52-4.16,29.29a13.56,13.56,0,0,0,.14,4.31,3.31,3.31,0,0,0,1.56,2.14C452.35,330.59,454.88,330.66,456.71,326.28Zm9.3-78.84h-.55c-1.82-4.1.09-7.78,1.78-11.49Zm5.44-69.86c1.4-1.11,1.81-4.51.68-5.84-.81-1-1.67-1.17-2.54-.24.2,1.18.37,2.17.53,3.16l-.68.13c-1.32-1.71-2.22-3.54-1.53-5.81,3.17-.87,5.95,1,6.67,4.55a13.33,13.33,0,0,1,0,4.5c-.24,1.62-.89,3.18-1.27,4.78s-.61,3.06-1,5c-3.36-4-6.42-7.71-6.45-12.83C468.8,178.28,469.88,178.83,471.45,177.58Zm-7.62,12.64.56,0c1,6.2,1.55,12.39-1.19,18.49Zm-1.5,29.47c.95-3.78,2-7.56,3.27-11.22a30.28,30.28,0,0,0-.19-21.34,32.11,32.11,0,0,1-1-5.41l.85-.13c1.84,3,3.82,5.86,5.45,8.93a8.92,8.92,0,0,1,.83,4.38c-.38,10.55-4.21,20.1-8.81,29.4-.11.22-.29.4-.88.52A32.31,32.31,0,0,1,462.33,219.69Zm.88,9.36c1.48-4.45,3.46-8.73,5.22-13.09l.5.07c-.26,1.89-.63,3.77-.74,5.66a4.75,4.75,0,0,0,.67,3c.31.37,1.79-.22,3-.41-1,1.5-2.13,3-3,4.72a111.21,111.21,0,0,0-5.17,10.22,11.06,11.06,0,0,0,1,10.83,6.34,6.34,0,0,1,.81,5.11c-.39,1.87-.74,3.75-1.18,6a6.34,6.34,0,0,1-.74-.92C458.75,249.88,459.76,239.44,463.21,229.05Zm-3.73,27.29c.6,2.07.91,4.28,1.86,6.18,1.56,3.1,1.26,6,.11,9.09-.7,1.88-1.1,3.87-1.64,5.87C456.13,270.48,457.69,263.47,459.48,256.34ZM454,269.76a1.91,1.91,0,0,1,.09-1.41c.36.37,1,.71,1,1.13.78,5.1,1.53,10.2,2.16,15.32.46,3.71-1.33,6.76-3.49,9.71.4-4,.56-8.05,1.27-12C455.88,278.1,455.09,274,454,269.76Zm3.66,22.82c1.36,7.64-.77,14.11-5.9,19.89A34.3,34.3,0,0,1,457.68,292.58Zm-8.15,31.08c1-5.11,3.74-9.38,7-13.44-1.31,5.7-.31,11.88-3.3,17.38L449.5,327A18,18,0,0,1,449.53,323.66ZM321.46,403.35a17.56,17.56,0,0,0,.24-2.17c.05-3.19-1-4.57-3.75-5.13-3.16-.65-4.93.26-6.11,3.23a15.85,15.85,0,0,0-.79,2.87c-1.92,10.56-3.69,21.15-3.39,32a47.19,47.19,0,0,1-2.22,15.46c-1.14,3.67-2.06,7.4-3.11,11.1-2.33,8.22-2.51,16.74-3.46,25.15-.6,5.26-.84,10.59-4.24,15.1a3.55,3.55,0,0,0-.4,3c.26.53,1.84.43,2.83.62a4.28,4.28,0,0,1,.65.37,10.32,10.32,0,0,1-1.46,2.12c-1.5,1.31-3.1,2.49-4.68,3.69a18.24,18.24,0,0,0-7.6,15.83c4.8.88,7.93-1.63,10.92-4.79a5.09,5.09,0,0,1,.13,1c-1.2,7.64-2,15.37-3.76,22.88-1.59,6.81.6,13.51,7.88,14.64,3.16.5,5.1-.07,5.61-3.37,1.09-7.06,2.15-14.14,2.81-21.26.72-7.84.87-15.73,1.45-23.59q1.46-19.81,3.15-39.62c.34-4.07.93-8.13,1.42-12.22,3.49-.42,4.27-1.12,3.76-3.35a40.37,40.37,0,0,1-1-14.94C318.21,429.09,319.78,416.21,321.46,403.35Zm-7.2-3c.44-2.17,1.62-2.38,4.34-1.35,1.07,2,.29,3.83-.3,5.6a40.3,40.3,0,0,1-6.08,11.15l-.52-.15C312.53,410.47,313.23,405.36,314.26,400.31Zm-11.79,77.88c2,2.21,1.27,8.69-1.19,11.23C301.68,485.6,302.07,482,302.47,478.19Zm-5.7,70.29c-1.39,1.12-1.47,4.53-.32,5.69.79.79,1.64,1.15,2.43,0-.2-1.08-.39-2.09-.67-3.58,2.34,1.88,3,4.11,2.19,6.26-3,.74-5.72-1-6.47-4.49a13.73,13.73,0,0,1,0-4.7,47.28,47.28,0,0,1,1.22-4.6c.36-1.53.61-3.07,1-5.18,3.33,4.18,6.42,7.79,6.5,13C300.84,549.47,300,545.89,296.77,548.48Zm7.87-12.89-.56,0c-1-6.21-1.6-12.4,1.19-18.48Zm1.47-29.37c-1,3.77-2,7.55-3.29,11.22a30.17,30.17,0,0,0,.21,21.14,14.85,14.85,0,0,1,.67,5.56c-2.93-5-7.62-8.73-6.68-15.71,1.31-9.85,4.75-18.75,9-27.49l.62.08A34.47,34.47,0,0,1,306.11,506.22Zm-5.91,3c0,.09-.21.11-.6.31.24-1.84.56-3.51.63-5.18a6,6,0,0,0-.58-3.26c-.23-.35-1.86.2-3,.35,1-1.52,2-3.19,3.11-4.75A34.32,34.32,0,0,0,305.33,485a11.33,11.33,0,0,0-1.51-9.32,6.24,6.24,0,0,1-.78-4.91c.41-2,.79-4,1.17-5.94,2.19,4.87,4.2,9.66,4.09,15C308.1,490.29,304.47,499.86,300.2,509.24ZM309.26,470c-.56-1.68-.95-2.82-1.31-4a11.64,11.64,0,0,0-.7-2.48c-3.17-5.44.66-10.09,1.36-15.39C312.27,455.36,310.86,462.35,309.26,470Zm5.14-12.47c-.43-.47-1-.82-1.1-1.25-.77-5.15-1.52-10.31-2.15-15.48-.45-3.71,1.48-6.7,3.52-9.62-.41,4.07-.59,8.17-1.3,12.18-.78,4.39,0,8.53,1.08,12.7.08.32.16.63.23.95C314.69,457,314.62,457.1,314.4,457.51Zm-3.6-24.35c-1.41-7.55.74-14,5.88-19.85A34,34,0,0,1,310.8,433.16ZM339,526.42c-2.11,4.28-1.87,8.79-.5,13.5,5-.71,7.23-4.16,9.23-8.29.23,1,.38,1.51.47,2,1.33,8,3.11,15.82,3.55,23.94.37,6.87,4.1,9.81,10.94,9.72,4.11,0,5.48-1.59,4.85-5.64-.72-4.71-1.26-9.47-2.33-14.1-2.5-10.84-5.37-21.59-7.89-32.42-3.48-15-6.77-30-10.14-44.95-.2-.88-.28-1.78-.41-2.61,3.6-1.6,3.67-2,1.86-5.4-1.38-2.56-3.15-5.11-3.7-7.87-2.84-14.48-5.35-29-8-43.53a15,15,0,0,0-.53-2.32c-.92-2.65-2.24-3.57-4.66-3.35-3.3.31-4.59,1.37-5,4.27a11,11,0,0,0-.06,3c1.35,10.58,2.74,21.15,6.26,31.3a47.17,47.17,0,0,1,2.78,15.17c0,4.3.3,8.6.43,12.9.27,8.41,2.76,16.44,4.33,24.62,1,5.4,2.33,10.77.42,16.25a3.11,3.11,0,0,0-.12,1.18c.06,1.45.87,2,2.24,1.73a10,10,0,0,0,1.62-.63l.55.25a13.6,13.6,0,0,1-.92,2.65C342.51,520.68,340.45,523.41,339,526.42Zm19,35.18c.75,1,1.43,1.19,3.19.59-.49-1.15-1-2.29-1.6-3.72a5.42,5.42,0,0,1,3.94,5.21c-2.66,1.74-6,.71-7.82-2.46a7.43,7.43,0,0,1-1-2.78c-.36-3.61-.56-7.23-.82-10.88,4.2,1.32,9.74,6.89,9.79,10-1.93-.78-3.45-3.83-5.89-1.2C356.81,557.32,357,560.29,358,561.6Zm-2-37.49q2.61,9.33,5.2,18.65C357.77,537,355,531.08,356,524.11ZM350.84,516c.31-2.62.69-5.24,1-7.86l.75,0c.4,3.05,1,6.08,1.16,9.14.24,4.62-.14,9.29.34,13.88a27,27,0,0,0,6,14.05c1.33,1.66,2.57,3.36,2.54,6.11-3.22-2.88-6.24-5.47-9.1-8.22a6.11,6.11,0,0,1-1.33-2.82A63.27,63.27,0,0,1,350.84,516Zm-19-90c-2.29-6.72-3.12-15.86-1.63-18.21l3.08-.36a18.92,18.92,0,0,1,1,3.39C334.77,416,333.48,420.82,331.8,426.07Zm4,16.54c-3.51-7-3.62-13.13-.46-20.4C337.5,425.89,337.8,437.18,335.78,442.61Zm2.91-2.91c2.57,8.32,2.26,17.55,8.38,24.68l-.57.44c-.45-.3-1.1-.49-1.31-.9q-3.36-6.74-6.59-13.54C336.93,446.85,337.72,443.29,338.69,439.7Zm.11,29c0-3.67,0-7.34,0-10.65,5.07,5.29,6,12.47,6.75,20.15-2.34-3.17-4.41-6-6.47-8.78A1.3,1.3,0,0,1,338.8,468.68Zm2.77,19.59.55-.12c3.06,3.35,2.2,7.47,1.8,11.5Q342.75,494,341.57,488.27Zm3,22.55-1.26,1.6-.31-.14c.45-1.77,1-3.51,1.35-5.3.72-3.74,1.54-7.48,1.93-11.26A11.38,11.38,0,0,0,342,485.18a5.69,5.69,0,0,1-2.06-4.1c-.25-2.19-.54-4.37-.82-6.65,7.69,7.49,10.38,16.82,10.65,26.9.15,5.73-.53,11.48-.86,17.22,0,.16-.16.32-.48.88-.43-2.51-.78-4.63-1.16-6.74C347,511.27,346.33,510.33,344.6,510.82ZM420.83,194.1a13.67,13.67,0,0,1-.45-1.49c-1.14-7.78-2.57-15.54-3.31-23.36-.63-6.59-4.74-11.7-11.79-10.92-3.41.37-4.85,2.32-4.39,5.12,1.11,6.86,2,13.79,3.68,20.51,5.89,23.31,12,46.57,16.44,70.21.26,1.35.51,2.7.75,4-3.67,1.71-3.71,2.06-1.91,5.41,1.4,2.62,3.19,5.24,3.74,8.07,2.86,14.54,5.38,29.15,8,43.74a11.83,11.83,0,0,0,.4,1.74c.87,2.69,2.21,3.74,4.52,3.56,3.5-.26,4.86-1.38,5.27-4.47a11.36,11.36,0,0,0,0-3c-1.36-10.58-2.77-21.14-6.29-31.3a46.83,46.83,0,0,1-2.7-14.38,161.84,161.84,0,0,0-1-18c-1-7.6-2.76-15.1-4.29-22.62-.91-4.46-1.5-8.88,0-13.33a4.88,4.88,0,0,0,.2-1.37c0-1.61-.92-2.31-2.46-1.87a12.36,12.36,0,0,0-1.41.59l-.57-.3a12,12,0,0,1,1.07-2.79c3.54-4.95,7-9.93,6.72-16.39a49,49,0,0,0-.87-5.6C425.05,186.54,422.81,189.86,420.83,194.1Zm-11.11-30.65c-1-.62-1.49-.49-2.32.6.51,1.1.93,2,1.36,2.92l-.55.28a6.36,6.36,0,0,1-3.38-5c2.74-1.92,6.35-.83,8,2.44a12.66,12.66,0,0,1,1.17,4c.23,1.56.09,3.17.19,4.75s.32,3.13.49,4.73c-3.75-.7-9.9-6.86-9.8-9.89,2,1,3.76,4.11,6.09.81C412,167.63,411.08,164.29,409.72,163.45Zm2.77,38.24-5.19-18.63C410.72,188.8,413.42,194.75,412.49,201.69Zm5.16,7.86c-.33,2.69-.7,5.37-1.06,8.06l-.76.06c-.4-3.11-1-6.21-1.16-9.33-.24-4.56.14-9.16-.33-13.68a27.07,27.07,0,0,0-6-14.07c-1.32-1.66-2.63-3.33-2.53-6.15,3.29,3,6.36,5.72,9.3,8.57a5.5,5.5,0,0,1,1.11,2.5A63.23,63.23,0,0,1,417.65,209.55Zm19,90.69c1.76,3.09,3,15.53,1.68,17.6-.42.08-.92.22-1.44.28a13,13,0,0,1-1.4,0C433.19,314.92,433.81,306.44,436.67,300.24Zm-4.07-17.06c3.72,6.73,3.61,13.51.4,20.55A34.56,34.56,0,0,1,432.6,283.18Zm-3.09,2.95c-.83-4-1.9-7.93-2.43-11.95-.59-4.43-2.63-8.12-4.87-11.79a2,2,0,0,1-.34-1.39c.45.23,1.15.34,1.32.71,2.49,5.24,5.07,10.45,7.28,15.8C431.64,280.34,430.45,283.27,429.51,286.13Zm.34-18.19c-5.29-5.46-6.1-12.67-6.62-20l6.62,9.34Zm-3-30.36c-3.63-3.22-2.75-7.36-2.34-11.42Zm-3-22.62,1.09-1.54.43.13c-.51,1.88-.95,3.79-1.56,5.65a33.29,33.29,0,0,0-1.58,14.08,10.85,10.85,0,0,0,4.14,7.22,6.15,6.15,0,0,1,2.16,4.27c.23,2.1.52,4.19.83,6.62-6.2-6.26-9.18-13.54-10.31-21.77-1.06-7.64.07-15.19.55-22.77,0-.1.15-.19.43-.52.41,2.42.76,4.61,1.15,6.8C421.5,214.55,422.16,215.48,423.91,215ZM415,76.1H355.6v49.76H415Zm-4.11,45.48h-51V80.41h51Zm-66.74,538.1c1.8-.12,2.23-1.67,2.53-3.14.64-3.11,1.13-6.26,1.88-9.34,1.78-7.27,3.69-14.5,5.49-21.76a21,21,0,0,0,.29-3.35l-3.46-1.32c-4.6,9.45-5,20-8.61,29.71a74.52,74.52,0,0,1-3-7.68c-.55-1.7-.83-3.49-1.48-5.15A2.72,2.72,0,0,0,336,636.2a2.39,2.39,0,0,0-1.79,1.23,50.21,50.21,0,0,0-2.17,5.11c-.72,1.89-1.36,3.8-2,5.7a5,5,0,0,1-.75-2c-1.34-6.29-2.65-12.57-4-18.85a29.51,29.51,0,0,0-1.26-4c-.43-1.13-1-2.35-2.53-2s-1.52,1.68-1.49,2.9a19.72,19.72,0,0,0,.22,3.17q2.6,14.16,5.26,28.31c.32,1.7,1,3.06,3,3.16s2.37-1.36,2.88-2.76c1.3-3.6,2.62-7.19,4-11,1.78,4.18,3.4,8,5,11.82A3.77,3.77,0,0,0,344.17,659.68Zm53.65-35.13c-.07-1.28-.66-2.39-2.16-2.36s-2,1.11-2.15,2.4c-.18,2-.37,4-.39,5.94-.05,6.09,0,12.18,0,18.27l-.38.11c-.23-.52-.48-1-.7-1.56-2.76-6.74-5.49-13.48-8.28-20.21a50.67,50.67,0,0,0-2.38-5c-.36-.66-1.2-1.63-1.63-1.54a2.67,2.67,0,0,0-1.78,1.65,23.14,23.14,0,0,0-.31,5.13q.39,14.6.89,29.18a3.08,3.08,0,0,0,.27,1.73c.58.69,1.47,1.65,2.14,1.59a3.58,3.58,0,0,0,2.24-1.75,5.14,5.14,0,0,0,.16-2.53c-.15-5.1-.33-10.19-.5-15.29,0-.53,0-1.07,0-1.6,2.26,5.13,4.24,10.24,6.32,15.31a21.24,21.24,0,0,0,2.23,4c1.17,1.68,3.05,1.47,4.71,1.21s1.84-1.72,2-3.08a18.84,18.84,0,0,0,.15-2c0-6.63,0-13.25-.05-19.87C398.16,631,398,627.79,397.82,624.55ZM299.62,268.7c.88,3.44,1.19,7,1.76,10.56.44,2.7.91,5.41,1.37,8.11l.56-.05c.94-5.74,2-11.45,2.74-17.21a8.21,8.21,0,0,1,4.55-6.74,24.5,24.5,0,0,1,4.17-1.82c2.32-.7,4.7-1.21,7.59-1.94a23.12,23.12,0,0,1-2.33-.5c-3.41-1.19-6.89-2.24-10.2-3.68a6.35,6.35,0,0,1-3.62-5.15c-.68-4.58-1.41-9.16-2.14-13.73-.25-1.57-.56-3.13-.84-4.69-.46.25-.6.48-.64.71-.93,5.75-1.93,11.49-2.73,17.25-.34,2.44-1.35,4.41-3.45,5.47a75.28,75.28,0,0,1-8.22,3.35,30.17,30.17,0,0,1-4.14.89,15.43,15.43,0,0,0,2.73.85,74.18,74.18,0,0,1,9.86,3.93A7.43,7.43,0,0,1,299.62,268.7ZM428.76,479.06c-.51-4.06-1.28-8.1-1.94-12.15l-1-5.78a1.68,1.68,0,0,0-.71,1.1c-.87,5.36-1.9,10.69-2.52,16.08a8.46,8.46,0,0,1-5.07,7.24,38.2,38.2,0,0,1-5.35,2.08c-1.75.54-3.57.81-5.37,1.19l0,.39,1.53.28a27.52,27.52,0,0,1,10.76,3.86,7.43,7.43,0,0,1,3.38,5.35c.67,4.58,1.41,9.15,2.13,13.73.24,1.45.52,2.9.79,4.35a1.68,1.68,0,0,0,.7-1.1c.73-4.5,1.85-9,2.06-13.53.32-6.69,4-10,10-11.56,1.6-.42,3.22-.75,4.83-1.12l1.38-.32a4.34,4.34,0,0,0-1.67-.69c-3.41-1.19-6.9-2.22-10.19-3.68C430.21,483.76,429.08,481.67,428.76,479.06ZM406.67,627.7V629c-.14,9.13-.32,18.26-.41,27.39,0,3.82,3,5.69,6.35,3.78a40.72,40.72,0,0,0,7-4.89c8.85-8,8-23.71-1.19-29.83-4.95-3.3-10.05-3.25-15.29-1a2.57,2.57,0,0,0-1.22,2.13c.1.54,1.25,1.09,2,1.29A10.13,10.13,0,0,0,406.67,627.7Zm4.61.13c1.91-.24,3.3.74,4.59,1.88,6.24,5.47,6.25,16.23,0,22.2a35.48,35.48,0,0,1-3.08,2.51,12.77,12.77,0,0,1-1.52.8Zm-45.11-4.28c-.24-.84-1.27-1.45-1.93-2.17-.72.69-1.79,1.25-2.08,2.08-1.2,3.43-2.23,6.92-3.2,10.43s-1.79,7.16-2.65,10.62c-1.69.82-4.26.31-4.15,2.83,0,.89,1.52,1.72,2.34,2.58.33.17.26.61.15,1.05-.43,1.73-1,3.45-1.26,5.2a2.17,2.17,0,0,0,1.69,2.74c1.42.32,2.25-.5,2.72-1.74.21-.56.33-1.15.5-1.72.6-2,1.21-4,1.84-6.12h7.75c1,3.14,1.75,6.06,2.81,8.88.25.66,1.44,1,2.21,1.45.41-.78,1.26-1.62,1.17-2.35C372.75,645.76,369.3,634.69,366.17,623.55Zm-4.75,20.59c.88-4.28,1.71-8.34,2.54-12.41l.45-.06c.92,4,1.84,7.91,2.81,12.13Zm78.85,15c3.57-1.83,5.66-4.5,5.43-9.09.06-4.51-2-8.39-5.93-11.33a18.85,18.85,0,0,1-6-7,3.12,3.12,0,0,1,.72-3.81,3.34,3.34,0,0,1,2.57-.9,6.93,6.93,0,0,1,5,3.81c.33.69,1.39,1,2.11,1.54.28-.86.9-1.76.79-2.57-.35-2.59-2.22-4.12-4.32-5.37-3.47-2.07-6.12-2-8.78.31a8.48,8.48,0,0,0-2.51,9.35,19,19,0,0,0,6.67,8.94,10.32,10.32,0,0,1,4.63,7.54,4.7,4.7,0,0,1-4.43,5.26c-2.62.32-4.19-1-4.52-3.93a6.67,6.67,0,0,0-.12-.78c-.36-1.47-1.24-2.41-2.8-2.28a2.46,2.46,0,0,0-2.38,2.69c0,2.76.79,5.41,3.12,7A9.89,9.89,0,0,0,440.27,659.15ZM343.61,49.3A13.07,13.07,0,0,0,348,50.92c2.57.47,5.19.65,7.94,1-.44,1-.91,1.81-1.24,2.72-.52,1.44-1.1,3,.33,4.21s2.93.73,4.26,0c4.43-2.58,8-6.08,8-11.47,0-6-3.25-10.48-8.14-13.67-2.36-1.53-4.65,0-4.3,2.87a22.48,22.48,0,0,0,1.55,4.65,13.5,13.5,0,0,0,.8,1.64,21.43,21.43,0,0,0-3.23,0,78.33,78.33,0,0,0-10,2C341.57,45.53,341.44,47.94,343.61,49.3Zm13.52,7.64c.36-3.88,2.31-5.64,6.83-6.28A13.11,13.11,0,0,1,357.13,56.94Zm1.07-20.42A19,19,0,0,1,364.08,44l-3.76-.83c-.93-2.16-1.83-4.23-2.73-6.31Zm6.54,10.23c-3.45,2.36-15.88,2.26-19.41-.17A40.84,40.84,0,0,1,364.74,46.75ZM427.15,698.3a20.68,20.68,0,0,0-5.53-1.45c-1.92-.32-3.87-.38-5.94-.56a14.32,14.32,0,0,0,1.4-3.44c.16-1.13.17-2.83-.5-3.38a4.05,4.05,0,0,0-3.58-.36,14.78,14.78,0,0,0-8.48,9.66c-1.54,5.45,3.06,12.25,6.85,15.11,1.24.94,2.65,1.72,4.19.69s1.46-2.76,1-4.31a53.16,53.16,0,0,0-2.06-5,25.82,25.82,0,0,0,3.54,0,79,79,0,0,0,8.94-1.64c1-.26,2.35-1.63,2.33-2.45A4.12,4.12,0,0,0,427.15,698.3Zm-12.54-7.15c-1,4.37-2.48,6.19-6.89,6.23A13.06,13.06,0,0,1,414.61,691.15Zm-1.17,20.46a20,20,0,0,1-5.93-7.56l3.81.9,2.73,6.31Zm-6.14-10.53a30.06,30.06,0,0,1,18.64.13A31.92,31.92,0,0,1,407.3,701.08ZM357.64,689a3.87,3.87,0,0,0-3.41.47c-.64.55-.67,2.15-.51,3.21a16.71,16.71,0,0,0,1.36,3.53c-2.75.32-5.32.51-7.86.95a11.61,11.61,0,0,0-4.08,1.43,3.68,3.68,0,0,0-1.61,2.62c0,.77,1.07,1.7,1.88,2.24a6.63,6.63,0,0,0,2.79,1c3.32.46,6.66.81,10,1.19-.65,1.64-1.45,3.31-2,5.07-.42,1.44-.37,3,1.11,3.91a3,3,0,0,0,3.84-.54,42,42,0,0,0,5.48-6.45C369.85,699.44,363.94,691.73,357.64,689Zm.08,22.77-.89-.54L359.5,705l3.36-.79.48.56Zm-12.8-10.52a29.89,29.89,0,0,1,18.63-.23A32,32,0,0,1,344.92,701.27Zm11.26-10.13a13,13,0,0,1,6.95,6.21C358.9,697.31,357.48,696,356.18,691.14ZM172.7,340.4a41,41,0,0,0,6.74,5.41c8.05,4.81,15.69-1.45,18.11-7.47a3.64,3.64,0,0,0-.52-3.22c-.63-.64-2.16-.7-3.22-.53a16.57,16.57,0,0,0-3.53,1.38c-.33-2.77-.52-5.41-1-8a12.17,12.17,0,0,0-1.55-4.23c-1.36-2.19-3.44-2-4.6.27a10,10,0,0,0-1,3c-.49,3.36-.83,6.74-1.23,10.12a47.65,47.65,0,0,0-4.54-1.91c-1.53-.48-3.23-.69-4.34.89S171.55,339.31,172.7,340.4Zm22.51-3.29c-.93,3.35-3.36,5.12-6.07,7C189.16,339.72,190.75,338.25,195.21,337.11Zm-10-11.31a29.94,29.94,0,0,1,.23,18.67C183.32,338.28,183.71,332.05,185.22,325.8Zm-10,11.92,6.21,2.61c.2.74.37,1.3.51,1.87s.21,1,.31,1.52l-.49.52-7.08-5.61Zm6,62.12a59.65,59.65,0,0,0,1.73,8.3,3.57,3.57,0,0,0,2.48,2.07c.79.08,1.84-1,2.55-1.77a4.37,4.37,0,0,0,.88-2.17c.55-3.16,1-6.34,1.51-9.61a15.26,15.26,0,0,0,3.51,1.38c1.05.16,2.58,0,3.19-.63a3.73,3.73,0,0,0,.4-3.23,15.61,15.61,0,0,0-2.72-4.31c-6.26-7.38-19.28-5.24-23,3.73a5.31,5.31,0,0,0-.2.56,2.58,2.58,0,0,0,2.46,3.47,9.72,9.72,0,0,0,3.28-.57,39,39,0,0,0,3.86-1.77A31,31,0,0,0,181.25,399.84Zm14.09-4.35c-4.07-.9-6.22-2.4-6.22-6.89A12.93,12.93,0,0,1,195.34,395.49Zm-10.19-7.57c2.31,3,2.27,15.46-.13,18.88A38.56,38.56,0,0,1,185.15,387.92Zm-9.88,7-.37-.62a19.39,19.39,0,0,1,7.51-5.88c-.33,1.47-.56,2.49-.85,3.75ZM479.53,640.15c0-1.9-1.66-2.59-3.17-3.11a18.44,18.44,0,0,0-3.66-.89c-2.22-.3-4.45-.46-6.93-.7.51-1.16,1-2.16,1.38-3.19.5-1.35.93-3-.54-3.75a5,5,0,0,0-3.84-.09,14.41,14.41,0,0,0-7.69,8.14,11.68,11.68,0,0,0-.64,4.44c.17,4.6,2.85,8,5.86,11.1,2.05,2.11,4.06,2.6,5.42,1.63s1.58-3,.48-5.67c-.48-1.17-1.08-2.3-1.46-3.1,3.95-.6,7.79-1.09,11.6-1.83C477.87,642.84,479.58,642.16,479.53,640.15Zm-14.94-9.74c-.71,4.2-2.59,6.27-6.8,6.06C459.48,633.78,461.38,631.51,464.59,630.41Zm-1.44,20.53q-2.79-3.56-5.57-7.1l.43-.48,3.4.76,2.74,6.32Zm-5.75-10.7a30.24,30.24,0,0,1,18.65.14A31.46,31.46,0,0,1,457.4,640.24ZM588.52,326.18c-.34-1.74-.83-4-3.26-3.85-2.22.12-2.92,2.14-3.28,4-.62,3.15-1,6.35-1.53,9.63a32.73,32.73,0,0,0-3.84-1.49c-2.54-.67-4.34,1.12-3.41,3.57a16.69,16.69,0,0,0,3,4.84c6.25,7.27,19.12,5.09,22.84-3.79.05-.12.1-.24.14-.37.66-2-.44-3.83-2.52-3.67a23.4,23.4,0,0,0-5.08,1.39,8.69,8.69,0,0,0-1.48.76C589.57,333.43,589.2,329.77,588.52,326.18Zm-12.87,11.26.44-.61L581,339.7c.33,1.6.59,2.87.92,4.49C579,342.36,576.71,340.43,575.65,337.44Zm9.52,7.41a37.88,37.88,0,0,1,.07-19.35C587.5,328.28,587.45,341.15,585.17,344.85Zm10.43-7.18.34.59a18.84,18.84,0,0,1-7.5,5.92l.85-3.76ZM414.4,59.26c2.58.94,4.39-.85,3.67-3.51a34.28,34.28,0,0,0-1.52-3.86c2.69-.32,5.31-.52,7.89-1a12.54,12.54,0,0,0,4.26-1.51c2.3-1.38,2.12-3.53-.28-4.71a10.06,10.06,0,0,0-3-1c-3.32-.48-6.65-.81-9.95-1.2.61-1.56,1.42-3.28,2-5.09.43-1.44.42-3.24-1.16-3.81a4.4,4.4,0,0,0-3.77.53,35.1,35.1,0,0,0-5.88,7.12C401.82,49.4,408.62,57.18,414.4,59.26Zm-.14-22.71.58.3-2.72,6.33-3.78.83A18.66,18.66,0,0,1,414.26,36.55Zm12.88,9.88c-3.09,2.52-15.46,2.72-19.52.41C414.23,44.94,420.46,45.32,427.14,46.43ZM415.35,56.94a13.55,13.55,0,0,1-6.84-6.09C412.47,50.63,414.39,52.24,415.35,56.94ZM598.28,392.39a42.09,42.09,0,0,0-7.38-5.85c-8.11-4.54-15.82,2.42-17.74,8.06-.84,2.48.92,4.24,3.47,3.58a35.37,35.37,0,0,0,3.93-1.54c.34,2.8.53,5.51,1,8.15a12.19,12.19,0,0,0,1.75,4.36c1.22,1.84,3.19,1.62,4.26-.35a9.78,9.78,0,0,0,1.14-3.15c.5-3.37.84-6.76,1.24-10.12,1.51.61,3.16,1.43,4.9,2,1.49.45,3.11.45,4.08-1.11A3.06,3.06,0,0,0,598.28,392.39Zm-17.27.52-4.92,2.86-.43-.61c1.07-3,3.28-4.93,6.28-6.73C581.61,390,581.35,391.3,581,392.91Zm4.34,14.34a37.72,37.72,0,0,1-.2-19.62C587.4,391.6,587.5,403.64,585.35,407.25Zm10.27-12.32-6.31-2.72c-.29-1.25-.53-2.27-.89-3.79,3.18,1.58,5.71,3.3,7.5,6ZM299.26,653a3.07,3.07,0,0,0,4-.65,41.68,41.68,0,0,0,5.32-6.34c5.23-8.17-.72-15.89-7-18.59a3.88,3.88,0,0,0-3.41.47c-.64.55-.68,2.15-.52,3.21a18.76,18.76,0,0,0,1.49,3.8,19,19,0,0,0-2.85,0,61.2,61.2,0,0,0-8.34,1.65,4.48,4.48,0,0,0-2.52,2.88c-.36,1.59,1.26,2.26,2.6,2.76a10.27,10.27,0,0,0,2.09.63c3.33.43,6.66.8,10,1.19-.64,1.57-1.45,3.17-1.95,4.86C297.75,650.35,297.71,652,299.26,653Zm2.14-3.06-.66-.33c.9-2.07,1.81-4.14,2.72-6.24l3.73-.89A18,18,0,0,1,301.4,649.92Zm-.94-20.13c2.55.7,4.82,2.75,6.64,6.14l-4.3-.88c-.9-1.52-1.9-3.21-2.91-4.9Zm-12,10.18c3.21-2.45,15.55-2.62,19.42-.32C301.34,641.5,295.11,641.28,288.49,640ZM186.8,52.08c1.62,2,3.42,3.82,5.07,5.65-1.75.79-3.64,1.52-5.41,2.48-1.2.66-2.25,1.91-1.61,3.26a4.46,4.46,0,0,0,2.77,2.34,18.47,18.47,0,0,0,13.65-3.17c4.88-3.46,4.94-12.38,2.89-16.13-1.28-2.32-3.65-2.4-5-.14a33.37,33.37,0,0,0-1.78,4.2,31.37,31.37,0,0,0-2.58-2.32c-2-1.46-4.08-2.93-6.25-4.18-1.32-.76-3-1.15-4.25.11s-.61,2.74.08,4A24.35,24.35,0,0,0,186.8,52.08Zm1.45,10.83-.18-.63,6.46-2.67,3.39,2.1C194.5,62.77,191.44,63.5,188.25,62.91ZM201.86,47.6c1.5,3,1.29,6,.67,9.08A5.91,5.91,0,0,1,201.86,47.6Zm-1.67,12.1a31.53,31.53,0,0,1-13.62-13A30.1,30.1,0,0,1,200.19,59.7ZM584.84,696c-1.62-2-3.42-3.82-5.08-5.66,1.7-.75,3.55-1.43,5.26-2.35a3.11,3.11,0,0,0,1.86-3.42,2.87,2.87,0,0,0-3-2.36,32.21,32.21,0,0,0-8.4.8,15.36,15.36,0,0,0-6.37,3.63c-3.27,3.22-3.94,10.74-1.63,14.74a2.75,2.75,0,0,0,5.11.14,21.22,21.22,0,0,0,1.71-4,29.86,29.86,0,0,0,2.43,2.21c2.1,1.49,4.18,3,6.4,4.3,1.32.76,3,1.16,4.25-.12s.6-2.74-.09-4A24.35,24.35,0,0,0,584.84,696Zm-1.52-10.83.23.63-6.45,2.7-3.28-2.1A19,19,0,0,1,583.32,685.19Zm-13.5,15.37c-1.57-3-1.27-6.06-.69-9.32C572.4,694.41,572.31,696.7,569.82,700.56ZM571.41,688a39.58,39.58,0,0,1,14.14,13.47C581.33,700.77,572.29,692.11,571.41,688ZM570.24,62c4,3.51,8.73,4.4,13.82,4,1.62-.11,3.24-.57,3.61-2.5s-.92-3-2.37-3.72-3.23-1.35-5-2.06c.48-.43.92-.82,1.34-1.22a26.1,26.1,0,0,0,6.77-9.19c1-2.65-.32-4.35-3.07-3.66A15.7,15.7,0,0,0,580.62,46c-2,1.34-3.76,3-5.66,4.48a15,15,0,0,0-1.42-3.56c-.67-.91-1.87-2-2.79-2a3.88,3.88,0,0,0-2.65,2.17,14.53,14.53,0,0,0,.24,12.1A8.56,8.56,0,0,0,570.24,62Zm14.11.28-.29,1.1-9.18-1.18-.06-.59,3-1.94Zm1.5-15.51a31.69,31.69,0,0,1-13.59,13A30,30,0,0,1,585.85,46.72Zm-15.25.75c2.47,3.22,2.29,5.75-.56,9.44A13.35,13.35,0,0,1,570.6,47.47ZM201.41,686.17c-4-3.53-8.84-4.46-14-4-1.55.13-3.07.62-3.42,2.46s.78,2.9,2.19,3.62c1.61.83,3.34,1.43,5.13,2.18-.46.42-.89.81-1.31,1.21a26.16,26.16,0,0,0-6.78,9.19c-1.05,2.64.27,4.22,3.06,3.7a7.22,7.22,0,0,0,2.73-1.09c2.6-1.79,5.12-3.7,7.74-5.62a13.89,13.89,0,0,0,1.36,3.41c.66.91,1.86,2,2.79,2a3.88,3.88,0,0,0,2.66-2.15,14.57,14.57,0,0,0-.24-12.1A8.2,8.2,0,0,0,201.41,686.17Zm-14.12-.31.18-.68c3.18-.55,6.23.13,9.6,1.21l-3.29,2.12Zm-1.38,15.65c.2-3.12,9.31-12,13.63-13.22C197.91,692.61,190.18,700,185.91,701.51Zm15.12-1c-2.56-3-2.31-6.11.68-9.27C202.31,694.45,202.63,697.49,201,700.53ZM378.33,57.27a2.74,2.74,0,0,0,2.28.51c.49-.21.85-1.39.77-2.1-.35-3.36,1.24-6,4.66-7.21,3.8,1.18,5.43,3.62,4.92,7.34-.18,1.28.2,2.24,1.53,2.17a3.83,3.83,0,0,0,2.15-1.2,11,11,0,0,0,2.28-12,11.49,11.49,0,0,0-10.45-7.33c-4.39-.27-9.06,2.9-10.86,7.08C373.73,49,374.87,54.55,378.33,57.27Zm3.46-14.56c3-2.15,6.3-2,9.49.57a6.53,6.53,0,0,1,2.2,7.55c-3.37-6.84-10.05-8.06-14.57,0A7,7,0,0,1,381.79,42.71ZM576.65,371c-1.28-.18-2.24.19-2.16,1.54a3.83,3.83,0,0,0,1.2,2.15A11.16,11.16,0,0,0,588,376.86c4.13-1.84,7.23-6.59,7-10.72a12,12,0,0,0-8.24-10.86c-4.13-1.29-9.15,0-11.58,3.14a2.74,2.74,0,0,0-.51,2.28c.22.48,1.4.84,2.11.76a6.48,6.48,0,0,1,7.17,4.59C583,369.76,580.46,371.55,576.65,371Zm4.82-11.92a6.83,6.83,0,0,1,7.88,2.2,7.29,7.29,0,0,1,.36,9.34,6.86,6.86,0,0,1-8.26,2.9c3.18-1.52,5.84-3.62,5.76-7.19S584.81,360.49,581.47,359.12ZM393.39,690.91a3.18,3.18,0,0,0-2.46-.54c-.39.11-.72,1.42-.64,2.14.37,3.39-1.4,6-5.08,7.13-3.52-1.33-4.89-3.69-4.55-7.43a2.25,2.25,0,0,0-.69-1.83,2.46,2.46,0,0,0-2,.12A4.61,4.61,0,0,0,376.4,692a11,11,0,0,0-1.3,12.12c1.87,4,6.68,6.88,10.8,6.52a11.56,11.56,0,0,0,10.31-7.53C397.92,698.9,396.66,693.54,393.39,690.91ZM391,704.41c-2.85,2.67-6.41,3.19-9.45,1.37a7.33,7.33,0,0,1-3.46-8.67c3.83,7.48,10.81,7.73,14.5.21A6.36,6.36,0,0,1,391,704.41ZM194.3,361.54a2.24,2.24,0,0,0,1.83-.71,2.59,2.59,0,0,0-.13-2,4.36,4.36,0,0,0-1.33-1.45,11,11,0,0,0-11.92-1.59c-4.1,1.77-7.14,6.48-6.87,10.78a11.46,11.46,0,0,0,7,10.28c4.33,2,9.92.85,12.71-2.6a3.15,3.15,0,0,0,.53-2.46c-.11-.39-1.42-.71-2.14-.63-3.39.37-6-1.42-7.12-5.09C188.21,362.55,190.53,361.2,194.3,361.54Zm-5.11,12a6.41,6.41,0,0,1-7.24-1.77c-2.63-3-3-6.43-1.12-9.47a7.26,7.26,0,0,1,8.56-3.26C182,362.73,181.55,369.72,189.19,373.5Zm271.42,61c.22,2.74.89,5.44,1.37,8.16a34.12,34.12,0,0,0,1.73-8c.23-2.64,1.71-4,4-4.85,1.27-.45,2.57-.82,3.86-1.23A3.43,3.43,0,0,0,470,428c-4.38-.91-5.66-2.21-6.4-6.52-.41-2.37-.81-4.74-1.22-7.12H462c-.39,2.32-.89,4.64-1.15,7-.52,4.81-2,5.25-6.51,6.67a13.37,13.37,0,0,1-1.43.27,20.17,20.17,0,0,0,3.66,1.5C458.77,430.53,460.38,431.75,460.61,434.47Zm17.66,130.17c-3.16-.81-5.29-2.38-5.44-6.06a56.6,56.6,0,0,0-1.19-7.24,44,44,0,0,0-1.87,8.57,4.41,4.41,0,0,1-2.79,3.77c-1.57.67-3.2,1.16-5,1.8a6.17,6.17,0,0,0,.77.27c5,.8,7.7,3.54,7.6,8.84a25,25,0,0,0,.91,5,39.32,39.32,0,0,0,1.76-8.2,4.7,4.7,0,0,1,3.09-4.22c1.53-.63,3.12-1.12,5-1.77C479.91,565.08,479.1,564.84,478.27,564.64ZM359,215.08a58.54,58.54,0,0,0-1.24-7.59,21.5,21.5,0,0,0-1.49,5.86c-.6,5.3-1.56,6.45-6.78,7.72l-1.85.47c1.24.37,1.92.6,2.62.78,4.18,1.07,5.36,2.37,5.93,6.54,0,.32,0,.66.06,1q.53,3,1.07,5.91a35.43,35.43,0,0,0,1.73-8,4.79,4.79,0,0,1,3.09-4.42c1.53-.64,3.12-1.14,5-1.81-1.39-.37-2.48-.6-3.53-1C360.93,219.65,359.08,218.27,359,215.08ZM252.2,403.55c.8,1.43.68,3.39,1,5.4l5.43-8.52c-3.72-1-4-1.32-4.55-5.18-.13-.91-.34-1.81-.52-2.72-1.31,3.07-.08,7.61-5.24,7.77C249.68,401.38,251.43,402.19,252.2,403.55Zm260.68-75.39c-1.2,3.6-.14,8-5.52,8.55,5.36.51,4.32,4.93,5.53,8,1-3.19.05-7.49,5.43-8C512.87,336.19,514,331.8,512.88,328.16ZM184.93,437c-.08-1.42-.71-2.47-2.22-2.46s-2,1-2.32,2.89c.85.59,1.65,1.53,2.57,1.67C184.17,439.27,185,438.4,184.93,437ZM588,434.53c-1.52.08-2.07,1.18-2.1,2.59s.91,2.21,2.09,2c.91-.19,1.65-1.18,2.47-1.81C590.09,435.42,589.48,434.45,588,434.53ZM181.7,425a3.49,3.49,0,0,0-.66,2.75c.42,1.56,1.81,1.43,3.28,1a2.54,2.54,0,0,0-.23-3.61C183.58,424.74,182,424.63,181.7,425Zm408.19.55c-1-1.13-2.13-1.46-3.13-.43a2.47,2.47,0,0,0-.15,3.65C589.49,429.34,590.23,428.62,589.89,425.56Zm-2.38-112.63c.48.46,2,.63,2.37.26a3.49,3.49,0,0,0,.76-2.72c-.37-1.56-1.76-1.49-3.2-1.14A2.43,2.43,0,0,0,587.51,312.93ZM184.88,313a2.49,2.49,0,0,0,.13-3.67c-1.36-.28-2.77-.47-3.18,1.1a3.52,3.52,0,0,0,.67,2.76A2.5,2.5,0,0,0,184.88,313Zm-.08,133.47a2,2,0,0,0-4,.17c-.43,1.47.57,2.28,2.05,2.57C184.44,448.8,185.3,447.85,184.8,446.45ZM588,444.91a2.78,2.78,0,0,0-2,1.64c-.46,1.44.48,2.31,2,2.65,1.53-.36,2.48-1.23,2-2.67A2.77,2.77,0,0,0,588,444.91ZM332.1,702.64a1.89,1.89,0,0,0-2.06,2.13c0,1.25.6,2.15,2.75,2.12.29-.38,1.21-1.06,1.32-1.86A2,2,0,0,0,332.1,702.64Zm.59-657.18c1.49.1,2.07-.88,2.62-2.68a8.07,8.07,0,0,0-2.24-1.5c-1.36-.35-2.13.58-2.23,1.85A1.92,1.92,0,0,0,332.69,45.46Zm106.77-.08c1.27.4,2.1-.65,2.15-1.93s-.48-2.18-2.39-2.6c-.59.76-1.7,1.58-1.63,2.28A3.28,3.28,0,0,0,439.46,45.38Zm-.64,657.26a2,2,0,0,0-2.07,2.33c.09.8,1,1.5,1.23,1.89,2.15.11,2.79-.76,2.83-2A1.9,1.9,0,0,0,438.82,702.64ZM222.66,45.7h.94c.55-.82,1.55-1.67,1.5-2.46s-1.15-1.73-1.95-1.9a1.69,1.69,0,0,0-2,2C221.26,44.22,222.12,44.94,222.66,45.7Zm267.46,0c.55-.8,1.44-1.56,1.55-2.42a1.67,1.67,0,0,0-2.07-1.94c-.79.19-1.87,1.21-1.91,1.91s.95,1.63,1.48,2.44Zm-10.91,0,.9,0c.56-.74,1.46-1.42,1.62-2.25.25-1.26-.59-2.13-2-2.19a1.8,1.8,0,0,0-2.08,2.07C477.81,44.18,478.68,44.91,479.21,45.69Zm-225.75,0c.54-.78,1.42-1.51,1.52-2.35a1.68,1.68,0,0,0-2-2A2.93,2.93,0,0,0,251,43.29c0,.78,1,1.62,1.52,2.43Zm8.89,0,1,0c.56-.8,1.57-1.6,1.56-2.39a2.92,2.92,0,0,0-1.84-2,1.68,1.68,0,0,0-2.14,1.86C261,44.08,261.83,44.87,262.35,45.69Zm10,0h.95c.56-.8,1.56-1.62,1.54-2.4a2.9,2.9,0,0,0-1.86-2,1.68,1.68,0,0,0-2.12,1.89C270.92,44.1,271.8,44.88,272.32,45.7Zm10,0,.94,0c.53-.84,1.5-1.71,1.44-2.5a2.91,2.91,0,0,0-2-1.85,1.68,1.68,0,0,0-2,2.09C280.91,44.27,281.8,45,282.36,45.72Zm177.05,0h.89c.55-.76,1.42-1.46,1.56-2.29.21-1.27-.66-2.12-2-2.15a1.82,1.82,0,0,0-2,2.14C458,44.23,458.85,44.94,459.41,45.71Zm-157.34,0,.95,0c.58-.79,1.61-1.6,1.6-2.39s-1.09-1.78-1.88-2a1.69,1.69,0,0,0-2.1,2C300.74,44.15,301.57,44.9,302.07,45.68Zm147.3,0,.94,0c.56-.8,1.58-1.63,1.55-2.4a2.91,2.91,0,0,0-1.9-2,1.68,1.68,0,0,0-2.07,2C448,44.16,448.85,44.9,449.37,45.69ZM221.9,702.4c-.55.76-1.42,1.46-1.56,2.29a1.68,1.68,0,0,0,2,2.06,2.87,2.87,0,0,0,2-1.87c.05-.79-.94-1.65-1.47-2.47Zm10.26.4c-1.23-.2-2,.78-1.93,2s.87,2.23,2.17,2c.84-.16,1.54-1,2.3-1.58v-.9A8.28,8.28,0,0,0,232.16,702.8ZM183.52,84.52a1.69,1.69,0,0,0,2.1-1.93c-.12-.87-1-1.66-1.5-2.48l-.92,0c-.55.81-1.53,1.64-1.5,2.43A2.85,2.85,0,0,0,183.52,84.52ZM261.63,702.4c-.54.81-1.42,1.57-1.53,2.43a1.67,1.67,0,0,0,2.08,1.93c.78-.19,1.86-1.22,1.89-1.92s-.94-1.62-1.48-2.44ZM586.84,301a1.68,1.68,0,0,0,1.87,2.15c.86-.08,1.65-1,2.47-1.48l0-1c-.8-.55-1.61-1.56-2.39-1.53A2.86,2.86,0,0,0,586.84,301Zm-401.23.11a2.93,2.93,0,0,0-1.89-1.95c-.77-.06-1.64.9-2.46,1.41l0,1c.8.56,1.54,1.49,2.4,1.62A1.69,1.69,0,0,0,185.61,301.14Zm85.92,401.27c-.52.81-1.4,1.59-1.49,2.45a1.67,1.67,0,0,0,2.11,1.9c.78-.21,1.84-1.25,1.86-2s-1-1.61-1.52-2.41Zm19.8,0c-.5.84-1.35,1.64-1.42,2.51a1.68,1.68,0,0,0,2.18,1.82,2.86,2.86,0,0,0,1.8-2c0-.78-1-1.57-1.6-2.35Zm10.41.44a2.85,2.85,0,0,0-1.87,2,1.69,1.69,0,0,0,2.11,1.94c.84-.17,1.54-1,2.3-1.59,0-.3,0-.6,0-.9C303.42,703.76,302.54,702.8,301.74,702.86Zm10.59-.44-.89,0c-.58.74-1.48,1.41-1.65,2.23-.27,1.27.59,2.14,1.93,2.22a1.8,1.8,0,0,0,2.1-2.05C313.72,703.94,312.86,703.2,312.33,702.42Zm136.81.32c-1.35,0-2.24.84-2.05,2.1.13.84,1,1.56,1.54,2.33h.93c.55-.82,1.42-1.6,1.56-2.48C451.31,703.53,450.41,702.73,449.14,702.74ZM588.73,273.37c.86-.09,1.64-1,2.46-1.51,0-.32,0-.64,0-1-.8-.56-1.62-1.56-2.4-1.53a2.88,2.88,0,0,0-2,1.86A1.69,1.69,0,0,0,588.73,273.37Zm-405.08-4c-.78,0-1.61,1-2.41,1.51,0,.33,0,.65,0,1,.82.53,1.59,1.43,2.45,1.52a1.69,1.69,0,0,0,1.91-2.13A2.94,2.94,0,0,0,183.65,269.37Zm275.89,433h-1c-.54.81-1.53,1.64-1.49,2.43a2.87,2.87,0,0,0,1.88,1.93,1.68,1.68,0,0,0,2.09-1.92C461,704,460.07,703.21,459.54,702.4ZM185.61,261.31a2.9,2.9,0,0,0-2-1.87c-.78,0-1.61,1-2.41,1.51,0,.32,0,.64,0,1,.81.54,1.59,1.43,2.45,1.52A1.69,1.69,0,0,0,185.61,261.31Zm405.57-10.43c-.83-.51-1.71-1.46-2.49-1.38a2.92,2.92,0,0,0-1.86,2,1.69,1.69,0,0,0,2,2c.86-.14,1.59-1.07,2.37-1.65ZM181.25,252c.83.52,1.62,1.4,2.48,1.48a1.69,1.69,0,0,0,1.88-2.15,2.91,2.91,0,0,0-2-1.84c-.78,0-1.59,1-2.39,1.54Zm407.46-8.46c.86-.08,1.65-1,2.47-1.48l0-1c-.8-.56-1.61-1.58-2.38-1.55a2.87,2.87,0,0,0-2,1.84A1.68,1.68,0,0,0,588.71,243.55Zm-405-4c-.77-.05-1.62.93-2.43,1.46,0,.32,0,.64,0,1,.81.55,1.56,1.46,2.43,1.57a1.69,1.69,0,0,0,1.94-2.09A2.92,2.92,0,0,0,183.68,239.56ZM488.34,702.42c-.53.78-1.4,1.52-1.49,2.36a1.68,1.68,0,0,0,2.07,2,2.94,2.94,0,0,0,1.9-2c0-.78-1-1.6-1.55-2.4Zm11,0-.95,0c-.56.82-1.57,1.65-1.53,2.44s1.13,1.75,1.92,1.93a1.69,1.69,0,0,0,2.05-2C500.7,703.91,499.85,703.19,499.33,702.41Zm9.88,0h-1c-.53.81-1.51,1.65-1.47,2.43a2.89,2.89,0,0,0,1.9,1.92,1.67,1.67,0,0,0,2.07-1.94C510.64,704,509.75,703.2,509.21,702.4Zm19.33.46a2.83,2.83,0,0,0-1.93,1.89,1.67,1.67,0,0,0,2,2c.88-.16,1.63-1,2.43-1.58l0-.93C530.19,703.75,529.32,702.79,528.54,702.86Zm10.6-.44-1,0c-.57.79-1.59,1.58-1.59,2.37a2.91,2.91,0,0,0,1.82,2,1.69,1.69,0,0,0,2.16-1.85C540.5,704.05,539.64,703.25,539.14,702.42Zm48.8-247.56A1.69,1.69,0,0,0,586,457a2.88,2.88,0,0,0,2,1.87c.77,0,1.6-1,2.4-1.5v-1C589.58,455.85,588.81,455,587.94,454.86Zm-1.1-233.44a1.7,1.7,0,0,0,1.76,2.25c.87,0,1.71-.87,2.56-1.35l.06-1c-.76-.6-1.52-1.66-2.3-1.68A2.93,2.93,0,0,0,586.84,221.42Zm-405.59.73c.81.54,1.59,1.43,2.45,1.52a1.69,1.69,0,0,0,1.91-2.12,2.94,2.94,0,0,0-2-1.87c-.78,0-1.61,1-2.41,1.51Zm405.58-10.53a1.68,1.68,0,0,0,1.91,2.11c.87-.09,1.64-1,2.45-1.52,0-.32,0-.64,0-1-.81-.54-1.64-1.53-2.41-1.49A2.92,2.92,0,0,0,586.83,211.62ZM182.94,464.8c-.86.08-1.65,1-2.48,1.48l0,1c.8.56,1.6,1.57,2.38,1.55a2.93,2.93,0,0,0,2-1.84A1.7,1.7,0,0,0,182.94,464.8Zm407.45,1.5c-.82-.53-1.6-1.41-2.47-1.5A1.69,1.69,0,0,0,586,467a2.88,2.88,0,0,0,2,1.84c.77,0,1.59-1,2.39-1.53C590.4,466.94,590.4,466.62,590.39,466.3Zm-407.48,8.44c-.87.09-1.64,1-2.45,1.52,0,.32,0,.64,0,1,.8.54,1.63,1.54,2.4,1.5a2.88,2.88,0,0,0,2-1.87A1.68,1.68,0,0,0,182.91,474.74ZM586,476.86a2.9,2.9,0,0,0,2,1.87c.77,0,1.6-1,2.4-1.5v-1c-.82-.53-1.59-1.43-2.46-1.52A1.68,1.68,0,0,0,586,476.86ZM182.62,488.7a1.77,1.77,0,0,0,2.26-1.8,1.84,1.84,0,0,0-1.91-2.23c-.83,0-1.63.82-2.45,1.27,0,.3-.07.6-.11.9C181.14,487.49,181.78,488.47,182.62,488.7Zm.34,9.91a2.88,2.88,0,0,0,1.85-2,1.68,1.68,0,0,0-2-2c-.86.14-1.58,1.08-2.37,1.66,0,.32,0,.64,0,1C181.3,497.74,182.19,498.69,183,498.61ZM591.18,191.28c-.82-.52-1.69-1.48-2.46-1.42a2.93,2.93,0,0,0-1.89,1.95,1.69,1.69,0,0,0,2,2.05c.86-.13,1.6-1.05,2.4-1.62Zm-405.57.45a2.94,2.94,0,0,0-2-1.87c-.78,0-1.61,1-2.41,1.51,0,.32,0,.65,0,1,.82.53,1.59,1.43,2.45,1.52A1.69,1.69,0,0,0,185.61,191.73ZM588,504.56a1.68,1.68,0,0,0-2,2.05,2.88,2.88,0,0,0,1.89,1.93c.77.07,1.64-.89,2.46-1.4,0-.33,0-.65,0-1C589.62,505.6,588.88,504.68,588,504.56ZM185.61,181.9a2.9,2.9,0,0,0-1.86-2c-.77-.08-1.65.87-2.49,1.37l0,1c.78.58,1.51,1.52,2.36,1.66A1.69,1.69,0,0,0,185.61,181.9Zm401.23-10.11a1.69,1.69,0,0,0,1.83,2.19c.87-.07,1.68-.93,2.51-1.44l0-1c-.78-.57-1.58-1.6-2.35-1.59A3,3,0,0,0,586.84,171.79ZM183.19,514.09l-.92,0c-.49.85-1.43,1.73-1.36,2.53a2.84,2.84,0,0,0,1.92,1.89,1.67,1.67,0,0,0,2-2C184.65,515.62,183.76,514.89,183.19,514.09Zm0-344.55c-.55.81-1.55,1.63-1.52,2.42a2.85,2.85,0,0,0,1.8,2,1.7,1.7,0,0,0,2.12-1.91c-.11-.88-1-1.67-1.49-2.5ZM588.81,164c.86-.13,1.6-1,2.4-1.61l0-1c-.82-.51-1.69-1.47-2.46-1.41a2.91,2.91,0,0,0-1.89,1.94A1.69,1.69,0,0,0,588.81,164Zm-404,362.38c-.19-.88-1.09-1.61-1.67-2.4l-.92.05c-.48.85-1.4,1.74-1.33,2.53a2.88,2.88,0,0,0,2,1.87A1.67,1.67,0,0,0,184.83,526.42Zm403.17,2c.77,0,1.6-1,2.4-1.51,0-.32,0-.64,0-1-.81-.53-1.58-1.42-2.45-1.52a1.69,1.69,0,0,0-1.9,2.13A2.92,2.92,0,0,0,588,528.43Zm-.06,9.93c.78.07,1.63-.91,2.45-1.43,0-.32,0-.64,0-1-.8-.56-1.55-1.48-2.41-1.6a1.69,1.69,0,0,0-2,2.07A2.87,2.87,0,0,0,587.94,538.36Zm-405.1,5.95c-.86.13-1.61,1.05-2.4,1.61l0,1c.82.52,1.69,1.49,2.46,1.43a2.89,2.89,0,0,0,1.89-1.95A1.69,1.69,0,0,0,182.84,544.31ZM586,546.47a2.93,2.93,0,0,0,2,1.84c.78,0,1.59-1,2.38-1.55l0-1c-.82-.52-1.61-1.4-2.48-1.48A1.69,1.69,0,0,0,586,546.47ZM185.61,161.91a2.89,2.89,0,0,0-2-1.86c-.78,0-1.6,1-2.4,1.52,0,.32,0,.64,0,1,.82.53,1.6,1.42,2.46,1.51A1.69,1.69,0,0,0,185.61,161.91Zm-5.14,395c.83.5,1.7,1.46,2.48,1.38a2.88,2.88,0,0,0,1.86-2,1.68,1.68,0,0,0-2-2c-.86.13-1.59,1.06-2.37,1.64Zm407.41-2.61a1.7,1.7,0,0,0-1.84,2.19,2.87,2.87,0,0,0,2,1.8c.78,0,1.57-1,2.36-1.59l0-1C589.55,555.18,588.74,554.31,587.88,554.25ZM180.47,566.8c.83.5,1.7,1.46,2.48,1.39a2.9,2.9,0,0,0,1.86-2,1.68,1.68,0,0,0-2-2c-.86.14-1.59,1.07-2.37,1.64Zm2.39,7.33c-.86.11-1.61,1-2.42,1.58,0,.32,0,.64,0,1,.82.53,1.67,1.51,2.45,1.45a2.87,2.87,0,0,0,1.91-1.91A1.68,1.68,0,0,0,182.86,574.13Zm405.07,9.94a1.69,1.69,0,0,0-1.89,2.14,2.91,2.91,0,0,0,2,1.85c.77,0,1.59-1,2.39-1.53l0-1C589.57,585,588.79,584.15,587.93,584.07Zm-405,9.94c-.86.08-1.65,1-2.48,1.47l0,1c.8.56,1.61,1.57,2.38,1.54a2.91,2.91,0,0,0,2-1.84A1.68,1.68,0,0,0,182.94,594Zm-.1,9.93c-.86.13-1.6,1-2.4,1.61,0,.33,0,.65,0,1,.83.52,1.69,1.49,2.46,1.42a2.89,2.89,0,0,0,1.89-1.94A1.69,1.69,0,0,0,182.84,603.94Zm405.18,0a1.69,1.69,0,0,0-2,2.06,2.89,2.89,0,0,0,1.89,1.94c.77.07,1.63-.9,2.46-1.42l0-1C589.62,605,588.87,604.07,588,603.94Zm0,13.94c.78,0,1.61-1,2.42-1.49v-1c-.81-.54-1.58-1.44-2.44-1.54A1.69,1.69,0,0,0,586,616,2.92,2.92,0,0,0,588,617.88Zm3.21-476.29c-.83-.52-1.69-1.48-2.47-1.41a2.9,2.9,0,0,0-1.89,1.93,1.69,1.69,0,0,0,2,2c.86-.12,1.6-1,2.4-1.61Zm-407.14-1.86h-.92c-.52.82-1.48,1.68-1.43,2.46a2.85,2.85,0,0,0,1.87,2,1.69,1.69,0,0,0,2.05-2C185.48,141.3,184.6,140.54,184.05,139.73Zm407.12-8.13c-.83-.5-1.71-1.45-2.49-1.37a2.94,2.94,0,0,0-1.85,2,1.69,1.69,0,0,0,2,2c.86-.15,1.58-1.08,2.36-1.66C591.2,132.25,591.19,131.92,591.17,131.6ZM184.81,626a1.7,1.7,0,0,0-1.84-2.19c-.86.07-1.67.93-2.5,1.44,0,.32,0,.65,0,1,.79.57,1.58,1.6,2.36,1.59A2.91,2.91,0,0,0,184.81,626ZM588,627.82c.78,0,1.63-.93,2.45-1.45,0-.32,0-.64,0-1-.8-.56-1.56-1.47-2.42-1.59a1.69,1.69,0,0,0-2,2.08A2.91,2.91,0,0,0,588,627.82Zm.82-513.47c.87-.11,1.63-1,2.43-1.57,0-.32,0-.64,0-1-.81-.54-1.66-1.52-2.44-1.47a2.93,2.93,0,0,0-1.92,1.91A1.69,1.69,0,0,0,588.77,114.35Zm-403.15-2c-.15-.87-1-1.62-1.6-2.43l-.92,0c-.51.83-1.46,1.7-1.4,2.48a2.87,2.87,0,0,0,1.9,1.93A1.69,1.69,0,0,0,185.62,112.33Zm0-10a2.91,2.91,0,0,0-1.89-2c-.78-.06-1.64.91-2.47,1.42l0,1c.8.57,1.54,1.49,2.4,1.62A1.69,1.69,0,0,0,185.61,102.36ZM588.84,90.47a2.91,2.91,0,0,0-2,1.83,1.69,1.69,0,0,0,1.85,2.17c.87-.08,1.66-1,2.49-1.46l0-1C590.42,91.47,589.62,90.46,588.84,90.47Zm-406,543.29c-.86.12-1.61,1-2.4,1.61,0,.32,0,.64,0,1,.83.52,1.69,1.49,2.46,1.42a2.89,2.89,0,0,0,1.89-1.94A1.68,1.68,0,0,0,182.84,633.76Zm403.2,2a2.88,2.88,0,0,0,1.87,2c.78.08,1.65-.89,2.48-1.4l0-1c-.79-.57-1.52-1.5-2.38-1.63A1.69,1.69,0,0,0,586,635.8ZM183.52,94.46a1.69,1.69,0,0,0,2.1-1.93c-.12-.88-1-1.66-1.5-2.48l-.92,0c-.55.81-1.53,1.64-1.5,2.43A2.87,2.87,0,0,0,183.52,94.46ZM586.84,82.34a1.69,1.69,0,0,0,1.84,2.19c.86-.07,1.66-.93,2.5-1.44l0-1c-.78-.57-1.58-1.6-2.35-1.58A2.9,2.9,0,0,0,586.84,82.34Zm-404.46,561c-.54.82-1.51,1.66-1.48,2.45a2.87,2.87,0,0,0,1.84,2,1.67,1.67,0,0,0,2.09-1.93c-.14-.88-1-1.66-1.53-2.49Zm.55,14.33a2.88,2.88,0,0,0,1.88-1.94,1.68,1.68,0,0,0-2-2.05c-.86.13-1.6,1.05-2.39,1.62,0,.32,0,.64,0,1C181.29,656.73,182.15,657.7,182.93,657.63Zm403.11,8a2.91,2.91,0,0,0,1.92,1.91c.78,0,1.62-.93,2.44-1.46,0-.32,0-.64,0-1-.81-.55-1.57-1.46-2.43-1.57A1.68,1.68,0,0,0,586,665.66Zm2.78-376.4a2.86,2.86,0,0,0-2,1.83,1.69,1.69,0,0,0,1.86,2.16c.87-.08,1.66-1,2.48-1.48l0-1C590.41,290.24,589.6,289.23,588.82,289.26ZM538.91,45.7h.9c.54-.76,1.42-1.46,1.56-2.29.22-1.27-.65-2.12-2-2.15a1.81,1.81,0,0,0-2,2.13C537.46,44.23,538.36,44.94,538.91,45.7Zm-28.9,0c.54-.77,1.41-1.48,1.54-2.31a1.68,1.68,0,0,0-2-2,2.9,2.9,0,0,0-2,1.89c-.05.79.94,1.64,1.49,2.47Zm-9.89,0c.52-.82,1.39-1.59,1.49-2.46a1.67,1.67,0,0,0-2.11-1.89,2.87,2.87,0,0,0-1.86,1.95c0,.78,1,1.6,1.52,2.41Zm-267.45,0,.89,0c.54-.77,1.43-1.49,1.55-2.32a1.8,1.8,0,0,0-2.05-2.1c-1.35,0-2.22.9-2,2.17C231.22,44.27,232.11,45,232.67,45.72Zm9.8,0,1,0c.56-.79,1.58-1.59,1.56-2.38a2.88,2.88,0,0,0-1.83-2A1.69,1.69,0,0,0,241,43.21C241.09,44.08,242,44.87,242.47,45.69Zm49.65,0,.95,0c.58-.8,1.63-1.6,1.61-2.39s-1.08-1.79-1.87-2a1.69,1.69,0,0,0-2.11,1.95C290.8,44.14,291.62,44.89,292.12,45.68Zm20,0h1c.55-.81,1.56-1.65,1.51-2.44s-1.14-1.75-1.93-1.92a1.69,1.69,0,0,0-2,2C310.7,44.21,311.56,44.93,312.09,45.7ZM183.31,504.17h-.92c-.54.81-1.52,1.64-1.49,2.44a2.83,2.83,0,0,0,1.83,2,1.66,1.66,0,0,0,2.1-1.91C184.69,505.78,183.84,505,183.31,504.17ZM588.83,104.41c.85-.13,1.59-1.06,2.38-1.63l0-1c-.83-.51-1.7-1.47-2.47-1.4a2.89,2.89,0,0,0-1.88,2A1.69,1.69,0,0,0,588.83,104.41Zm-405.2,178.9a1.69,1.69,0,0,0,2-2.05,2.91,2.91,0,0,0-1.89-1.94c-.78-.07-1.64.89-2.47,1.41,0,.32,0,.64,0,1C182,282.26,182.77,283.18,183.63,283.31ZM519.24,702.42l-1,0c-.57.8-1.58,1.6-1.56,2.38a2.88,2.88,0,0,0,1.83,2,1.68,1.68,0,0,0,2.14-1.86C520.61,704,519.75,703.24,519.24,702.42ZM529.9,45.7c.54-.76,1.4-1.48,1.53-2.31a1.69,1.69,0,0,0-2-2c-.79.17-1.91,1.2-1.95,1.9s.95,1.64,1.5,2.46Zm-10,0c.56-.79,1.46-1.54,1.58-2.4a1.67,1.67,0,0,0-2-2,2.9,2.9,0,0,0-1.93,1.89c0,.78.92,1.63,1.45,2.45ZM183.63,293.25a1.69,1.69,0,0,0,2-2.05,2.91,2.91,0,0,0-1.89-1.94c-.77-.07-1.64.89-2.46,1.4l0,1C182,292.2,182.77,293.12,183.63,293.25Zm405.08-9.94c.86-.08,1.65-1,2.47-1.48l0-1c-.8-.56-1.61-1.57-2.38-1.55a2.89,2.89,0,0,0-2,1.84A1.69,1.69,0,0,0,588.71,283.31ZM549,702.41l-.94,0c-.57.81-1.59,1.63-1.56,2.42s1.12,1.77,1.91,2a1.68,1.68,0,0,0,2.06-2C550.4,703.93,549.56,703.19,549,702.41Zm39.7-439c.87-.09,1.64-1,2.45-1.53,0-.32,0-.64,0-1-.81-.55-1.63-1.54-2.41-1.5a2.92,2.92,0,0,0-2,1.87A1.69,1.69,0,0,0,588.74,263.43Zm-405.12-49.7a1.69,1.69,0,0,0,2-2c-.16-.88-1.06-1.61-1.62-2.41l-.93,0c-.5.84-1.44,1.72-1.37,2.5A2.89,2.89,0,0,0,183.62,213.73Zm405.16,19.88c.86-.11,1.62-1,2.42-1.57v-1c-.82-.53-1.67-1.5-2.45-1.45a2.93,2.93,0,0,0-1.92,1.91A1.68,1.68,0,0,0,588.78,233.61Zm-405.12,0a1.7,1.7,0,0,0,2-2.09,2.91,2.91,0,0,0-1.92-1.91c-.78-.05-1.62.92-2.44,1.45,0,.32,0,.64,0,1C182,232.59,182.8,233.5,183.66,233.62Zm59.2,468.82-.94-.07c-.59.78-1.65,1.57-1.65,2.34a2.93,2.93,0,0,0,1.83,2,1.68,1.68,0,0,0,2.15-1.9C244.18,704,243.35,703.25,242.86,702.44ZM182.94,454.86c-.86.08-1.65,1-2.48,1.48,0,.32,0,.65,0,1,.79.56,1.6,1.57,2.38,1.55a2.93,2.93,0,0,0,2-1.84A1.69,1.69,0,0,0,182.94,454.86ZM588.74,154.1c.86-.09,1.64-1,2.45-1.51v-1c-.8-.55-1.63-1.55-2.4-1.51a2.91,2.91,0,0,0-2,1.87A1.69,1.69,0,0,0,588.74,154.1ZM588,568.19c.78,0,1.59-1,2.38-1.55,0-.32,0-.65,0-1-.82-.52-1.61-1.4-2.48-1.48a1.69,1.69,0,0,0-1.87,2.15A3,3,0,0,0,588,568.19ZM588,594a1.69,1.69,0,0,0-2,2,2.9,2.9,0,0,0,1.87,2c.77.07,1.64-.88,2.47-1.39l0-1C589.63,595.07,588.9,594.14,588,594ZM185.61,132.21a2.9,2.9,0,0,0-1.86-2c-.77-.08-1.65.87-2.49,1.37l0,1c.78.58,1.51,1.52,2.37,1.66A1.69,1.69,0,0,0,185.61,132.21ZM469.14,45.66l.94.08c.6-.78,1.66-1.56,1.66-2.34a3,3,0,0,0-1.81-2,1.68,1.68,0,0,0-2.16,1.89C467.83,44.08,468.66,44.86,469.14,45.66Zm119.61,74.63a2.93,2.93,0,0,0-1.92,1.91,1.7,1.7,0,0,0,1.95,2.09c.86-.12,1.62-1,2.42-1.58v-1C590.38,121.22,589.53,120.24,588.75,120.29ZM183.11,149.68c-.51.83-1.46,1.7-1.4,2.48a2.82,2.82,0,0,0,1.88,1.93,1.68,1.68,0,0,0,2-2c-.15-.88-1-1.62-1.6-2.43ZM587.93,494.62a1.69,1.69,0,0,0-1.89,2.13,2.92,2.92,0,0,0,2,1.86c.78,0,1.6-1,2.4-1.52l0-1C589.58,495.59,588.79,494.71,587.93,494.62Zm0-9.94a1.7,1.7,0,0,0-1.84,2.19,2.91,2.91,0,0,0,2,1.81c.78,0,1.57-1,2.36-1.6,0-.32,0-.64,0-1C589.55,485.61,588.74,484.74,587.88,484.68ZM322,45.69l.95,0c.57-.81,1.59-1.63,1.57-2.42a2.93,2.93,0,0,0-1.9-1.95,1.7,1.7,0,0,0-2.08,2C320.63,44.17,321.47,44.91,322,45.69ZM185.62,201.9c-.1-.88-.94-1.68-1.45-2.52l-.92,0c-.56.8-1.57,1.61-1.55,2.39a2.84,2.84,0,0,0,1.78,2A1.69,1.69,0,0,0,185.62,201.9Zm403.2-2.1a2.88,2.88,0,0,0-2,1.84,1.69,1.69,0,0,0,1.87,2.16c.86-.08,1.65-1,2.47-1.48l0-1C590.41,200.79,589.6,199.78,588.82,199.8ZM180.46,537c.83.51,1.7,1.47,2.47,1.4a2.87,2.87,0,0,0,1.88-2,1.68,1.68,0,0,0-2-2c-.86.13-1.6,1.06-2.39,1.63C180.45,536.32,180.46,536.64,180.46,537ZM588,514.49a1.7,1.7,0,0,0-2,2.06,2.91,2.91,0,0,0,1.89,1.94c.77.06,1.63-.9,2.46-1.41,0-.33,0-.65,0-1C589.62,515.54,588.88,514.62,588,514.49Zm-2,61.67a2.92,2.92,0,0,0,1.87,2c.77.07,1.64-.88,2.47-1.39l0-1c-.78-.58-1.52-1.51-2.37-1.64A1.68,1.68,0,0,0,586,576.16ZM252,702.8c-1.24-.17-1.94.84-1.89,2.05s.93,2.21,2.22,1.92c.84-.18,1.52-1.06,2.27-1.63l0-.9A8.39,8.39,0,0,0,252,702.8Zm334-56.95a2.93,2.93,0,0,0,2,1.85c.78,0,1.59-1,2.38-1.55,0-.32,0-.65,0-1-.82-.52-1.61-1.4-2.48-1.48A1.69,1.69,0,0,0,586,645.85ZM181.71,122.39a2.84,2.84,0,0,0,1.93,1.89,1.69,1.69,0,0,0,2-2c-.17-.87-1.07-1.6-1.64-2.39l-.93,0C182.56,120.72,181.63,121.6,181.71,122.39Zm99.85,580c-.55.8-1.46,1.54-1.59,2.4a1.68,1.68,0,0,0,2,2c.78-.18,1.88-1.18,1.93-1.88s-.91-1.64-1.43-2.46ZM586,655.67a2.9,2.9,0,0,0,1.87,2c.78.07,1.65-.89,2.47-1.4l0-1c-.79-.57-1.52-1.5-2.38-1.63A1.68,1.68,0,0,0,586,655.67Zm-401.21,10c-.14-.89-1-1.67-1.52-2.5h-.92c-.54.81-1.52,1.65-1.49,2.44a2.85,2.85,0,0,0,1.83,2A1.67,1.67,0,0,0,184.83,665.69Zm-2.43-52.21c-.54.81-1.52,1.65-1.5,2.45a2.86,2.86,0,0,0,1.83,2,1.68,1.68,0,0,0,2.1-1.92c-.14-.89-1-1.67-1.52-2.5Zm139.84,88.93-.89,0c-.56.74-1.46,1.42-1.63,2.25-.24,1.26.62,2.13,2,2.19a1.8,1.8,0,0,0,2.07-2.08C323.65,703.92,322.77,703.19,322.24,702.41Zm266.6-522.48a2.87,2.87,0,0,0-2,1.82,1.69,1.69,0,0,0,1.85,2.17c.87-.07,1.66-.95,2.49-1.46l0-1C590.42,180.93,589.62,179.91,588.84,179.93ZM548.65,45.66l.94.08c.6-.78,1.66-1.56,1.66-2.34a3,3,0,0,0-1.81-2,1.68,1.68,0,0,0-2.16,1.89C547.34,44.08,548.17,44.86,548.65,45.66ZM469.39,702.39l-.94,0c-.52.84-1.49,1.72-1.42,2.51a2.86,2.86,0,0,0,2,1.83,1.68,1.68,0,0,0,1.95-2.1C470.84,703.82,470,703.14,469.39,702.39Zm10.08,0-1,0c-.56.8-1.57,1.61-1.55,2.39a2.88,2.88,0,0,0,1.84,2,1.69,1.69,0,0,0,2.14-1.88C480.85,704,480,703.23,479.47,702.41ZM184.81,586.22a1.68,1.68,0,0,0-1.87-2.15c-.86.08-1.66,1-2.48,1.48,0,.32,0,.64,0,1,.79.55,1.6,1.56,2.38,1.54A2.91,2.91,0,0,0,184.81,586.22ZM416.5,361.59a7.36,7.36,0,0,0-1.76.61l0,.92a4.84,4.84,0,0,0,1.69.52c.31,0,.74-.7.81-1.12S416.72,361.57,416.5,361.59Zm-62.76,2,0-1c-.57-.2-1.29-.7-1.67-.51s-.71,1-1,1.59l.57.65Zm22.84-249.1c-2.2,1-5.47-.42-7.25,3.16a12.65,12.65,0,0,0,2.92.82q10.13.15,20.25.13a28.55,28.55,0,0,0,5.92-.54c.78-.17,1.9-1.27,1.9-1.94s-1.12-1.48-1.87-2.06c-.35-.27-1-.15-1.66-.23-.22-8.89-.45-17.69-.67-26.52.66-.09,1.11-.16,1.57-.2,1.65-.15,3.73,0,3.66-2.35s-2.22-2.12-3.83-2.1c-5.16.08-10.32.19-15.48.45-3.89.2-7.78.58-11.65,1-.82.09-1.57.83-2.36,1.27l0,.93,3.91,1.81C373.44,96.83,375,105.67,376.58,114.52Zm16.19-26.95v26.82H382.53c2.06-8.82,4.13-17.71,6.26-26.82Zm-7.89.32c-1.58,6.43-3.15,12.79-4.74,19.26-1.32-6.39-2.63-12.69-4-19.26Z"/></svg>