<svg xmlns="http://www.w3.org/2000/svg" viewBox="0 0 750 750"><path d="M606.15,48.24a27.14,27.14,0,0,0-.44-5.33A21.87,21.87,0,0,0,583.79,25H187.27c-13.13,0-22.69,9.55-22.69,22.68V374.84q0,163.77,0,327.55a20.91,20.91,0,0,0,.15,3.17C166.5,717.43,175.46,725,187.8,725q197.57,0,395.13,0a27.15,27.15,0,0,0,5.33-.45c10.93-2.21,17.91-11.08,17.91-22.76Q606.17,375,606.15,48.24Zm-4.26,653.54c0,9.83-5.74,17-14.94,18.68a21.3,21.3,0,0,1-3.75.25H187.45c-11,0-18.59-7.57-18.59-18.6V47.57c0-9,5.41-16,13.9-17.9a18,18,0,0,1,3.94-.37q198.68,0,397.35,0a17.65,17.65,0,0,1,17.84,17.54c0,.93,0,1.85,0,2.78ZM393.13,524.1a20.44,20.44,0,0,0,7.11-4.84c3.84-4,3.21-8.11-1.55-11-4.33-2.6-6.14-6.44-6.36-11.2-.19-4-.29-7.95-.16-11.92a36,36,0,0,1,1-5.75,25.21,25.21,0,0,0,14-18.22c6.71-4.61,9-18.95,3.86-25.43.49-1.54.92-3.21,1.53-4.8.81-2.1,1.89-4.1,2.61-6.22s.25-3.63-1.9-4.57a31.84,31.84,0,0,0-7.14-2.31,125.52,125.52,0,0,0-41.34-.37,40.52,40.52,0,0,0-8.2,2.25c-3.05,1.16-3.61,2.77-2.53,5.83.26.75.7,1.43,1,2.17,1.07,2.69,2.11,5.39,3.08,7.89-2.88,3.5-3.68,7.28-2.82,12.11,1.1,6.19-.17,12.11-2.08,17.95a4.78,4.78,0,0,1-.94,1.51c-3.51,4.2-8.14,5.19-13.27,4.42-5.35-.8-10.66-1.2-16,.15a8.84,8.84,0,0,0-2,1.09l.18.71c.58.11,1.16.26,1.74.34,3.4.43,6.88.51,10.17,1.34,5.68,1.45,11,1.47,16-2a4.83,4.83,0,0,1,.94-.37c-2.11,4.77-4.92,8.27-10.2,9a28.2,28.2,0,0,1-12-1.13c-5.07-1.55-10.21-1.13-15.35-.52-.55.06-1,.63-1.87,1.18.79.35,1.08.61,1.35.59,4.81-.48,9.31.85,13.84,2.16,5.06,1.45,10.14,1.95,15.17-.25a7.88,7.88,0,0,1,1.43-.25c-2.64,3.41-5.51,5.93-9.63,6.62-1.24.21-2.48.4-3.72.58a24.58,24.58,0,0,1-14.66-2.17c-3-1.46-6.56-1.9-9.89-2.67-.66-.15-1.46.3-2.19.47a2.24,2.24,0,0,0,1.12,1.27c3.74,1.67,7.56,3.16,11.19,5a19.31,19.31,0,0,0,8.92,2.38c1.77,0,3.55-.2,5.32-.31a43,43,0,0,1-5.93,3.66,6,6,0,0,1-2.6.85c-7.25,0-14-1.3-19.7-6.45-1.72-1.57-4.29-2.22-6.5-3.22-.36-.16-.89.07-1.71.17a9.19,9.19,0,0,0,1,1.38,76.18,76.18,0,0,1,6,5.14,20.83,20.83,0,0,0,11.62,6c.45.09.9.2,1.68.38-2.14.71-3.95,1.15-5.63,1.89-1.89.84-3.61.11-5.41-.17a5.26,5.26,0,0,0-1.58.07c-2.81.43-5.62.91-8.43,1.31-5.83.81-11.66,1.94-17.49,0a3.55,3.55,0,0,0-1.13,0c-.06.16-.13.31-.2.47a31.66,31.66,0,0,0,3.81,1.73,45.52,45.52,0,0,0,18.49,1.45c3.36-.34,6.64-1.54,10-2.37s6.7-1.71,10.33-2.64a34.39,34.39,0,0,0-2.4,3.47,25.47,25.47,0,0,1-10.8,10.78,7.42,7.42,0,0,0-1.45,1.41l.37.61a12.71,12.71,0,0,0,1.78-.27,23.87,23.87,0,0,0,15.43-13.93c2.34-5.49,7.51-6.73,11.65-9.48-.75,2.8-1.68,5.42-2.12,8.12-.83,5.1-2.44,9.75-6.24,13.44a5.12,5.12,0,0,0-.74,1.39l.47.46a15.49,15.49,0,0,0,1.79-1.13c5.84-4.87,8.88-11.28,10-18.65.75-4.78,3.58-8.09,7.52-11.24-1,5,0,9.48,1.52,13.88a3.36,3.36,0,0,1,.21,1.56c-.5,3.18-1.06,6.35-1.61,9.52-.11.62-.23,1.24-.35,1.86l.58.19c.38-.64.8-1.27,1.13-1.94,3.19-6.52,3.58-13.31,2.2-20.35-.91-4.66-.27-9,3-12.87a44.14,44.14,0,0,0,8.07-15c.18-.56.42-1.1.64-1.66a5.54,5.54,0,0,1,.25,2.08,190.39,190.39,0,0,1-5.74,37.83,100.85,100.85,0,0,1-8.59,22.61c-2.23,4.13-5.87,6.41-10.36,7.69v-3.69c-2,.19-3.14.85-3.07,2.6a2.41,2.41,0,0,0,2.88,2.54,48,48,0,0,0,5.32-1.1c-4.31,6.79-14.22,13.23-20,10.25.44-.77.9-1.52,1.3-2.3.8-1.52-.11-3-1.75-2.67a4.72,4.72,0,0,0-2.9,2,4,4,0,0,0,.35,3.27,5.31,5.31,0,0,0,5,2.77,59.25,59.25,0,0,0,7.52-1.42,9.84,9.84,0,0,0,1.81-.77,45.23,45.23,0,0,1-19.64,14.51,28,28,0,0,1-4.59.85c-.3-1.2-.45-1.9-.65-2.6a2.43,2.43,0,0,0-2.82-1.92,3.94,3.94,0,0,0-3.64,3.12c-.22,1.59.8,2.85,3,3.39a18.1,18.1,0,0,0,12.19-1.4,52.83,52.83,0,0,0,17.59-13,103.57,103.57,0,0,0,25.44-52.39c1.65-9.57,2.42-19.29,3.52-28.95.31-2.79.36-5.6.55-8.59l2.78,2c1.34,7.56,5.5,13.08,14,18.29a35.84,35.84,0,0,1,1,5.22c.15,3.38-.09,6.76,0,10.14.17,6.2-1.86,11.06-7.61,14.15-2.69,1.43-3.44,4-2.35,6.84a13.85,13.85,0,0,0,2.46,4C374.65,526,386,526.85,393.13,524.1ZM411,442.59c-.9,2.22-1.88,4.41-2.81,6.57l-1.57-2.07-.75.2c-1,3.6.25,7.21.64,10.87-1.37-.5-1.72-1-2-5.06-.36-5.58,0-11.06,4.5-15.43C410.59,438.89,411.48,441.29,411,442.59Zm-55.12-19.41c2-.78,3.72-1.77,5.52-2,6.19-.95,12.41-2,18.66-2.37a95.4,95.4,0,0,1,27.77,2.33,45.94,45.94,0,0,1,5.52,2.08C402.83,430.66,366.65,430.75,355.83,423.18Zm6.85,35.26c.35-3.93,1.76-7.53.66-11.15l-.77-.25L361,449.26c-.91-2.18-1.94-4.46-2.82-6.8A4.45,4.45,0,0,1,360,437.9C364.7,441,366.85,455.39,362.68,458.44Zm1.57,2.82c2.49-1,2.56-3.31,2.86-5.56a26.8,26.8,0,0,0-2.51-16.21c-.77-1.47-2.18-2.61-3.3-3.9l-.51.19c-.37-1.39-.73-2.79-1.15-4.37a80.74,80.74,0,0,0,49.79,0c-.35,1.49-.68,2.93-1.05,4.5-2.12.41-3.17,2-4.06,3.88-2.81,5.86-3,12-1.86,18.24.23,1.22,1.33,2.28,2.22,3.74-1.93,8.1-8.78,12.47-19.72,13C376.82,475.15,366.93,471.7,364.25,461.26Zm25.94,19.27c-.3,5.58-.6,11-.91,16.67-3,1.71-6.14,1.45-9.39.13-.32-5.61-.63-11.11-1-16.85A16.68,16.68,0,0,0,390.19,480.53Zm-11,20h10.71c.89,4.71,3.86,7.94,8.26,10.56a11.62,11.62,0,0,1-1.12,2.7,12.75,12.75,0,0,1-8.22,4.78c-5.44.91-10.74.63-15.19-3.17a28.73,28.73,0,0,1-3.19-3.95C375.34,508.5,378.53,505.11,379.22,500.51Zm45.41-243c2.54-.41,5.25.13,7.87.32,4.56.34,9.12.73,13.61-.52a11.81,11.81,0,0,0,1.95-1l0-.64a7.76,7.76,0,0,0-1.57-.56c-3.65-.5-7.37-.67-10.94-1.49-5.48-1.25-10.63-1.2-15.4,2.15a4.28,4.28,0,0,1-.92.34c2.3-5.78,6.19-9.19,12.39-9A39.54,39.54,0,0,1,441,248.3c5.19,1.42,10.35,1.15,15.56.56.57-.06,1.09-.64,2-1.21-.86-.37-1.1-.58-1.32-.56-4.87.46-9.44-.9-14-2.19s-9.48-2-14.23,0c-.64.26-1.33.39-2.39.69,2.72-3.49,5.54-6.08,9.66-6.77q2.16-.36,4.32-.66a24.49,24.49,0,0,1,14.25,2.28c3,1.45,6.57,1.87,9.9,2.63.63.14,1.38-.29,2.57-.59a11.11,11.11,0,0,0-1.49-1.13c-3.62-1.6-7.38-2.94-10.85-4.82a20.71,20.71,0,0,0-10.64-2.64c-1.36,0-2.71.28-4.07.43,3.49-2.13,6.47-4.86,11.2-4.57,6.5.4,12.09,2.26,17.09,6.46,1.8,1.51,4.3,2.2,6.51,3.2.33.14.82-.07,1.53-.16a5.94,5.94,0,0,0-.78-1.33c-2.69-2.35-5.31-4.79-8.15-6.94a28.15,28.15,0,0,0-5.85-3.21,38.7,38.7,0,0,0-5.38-1.5l2.82-.87c2.55-.82,5-2.13,7.83-.85a4,4,0,0,0,2,0c2.82-.42,5.62-.92,8.44-1.31,5.82-.81,11.66-1.93,17.48,0a3.21,3.21,0,0,0,.93,0c.08-.17.15-.34.22-.51a26.09,26.09,0,0,0-3.38-1.61c-6.16-2-12.52-2.11-18.87-1.55a52.54,52.54,0,0,0-8.72,1.8c-3.74,1-7.42,2.18-11.13,3.29a44.8,44.8,0,0,1,6.09-9c2.39-2.54,5.42-4.47,8.17-6.67-.09-.2-.18-.39-.26-.58a9.11,9.11,0,0,0-1.75.19c-6.84,2.09-12.14,6.34-14.89,12.82-2.49,5.87-7.56,7.89-12.32,10.58.69-2.49,1.57-4.9,2-7.39.91-5.25,2.3-10.21,6.31-14.05a6.32,6.32,0,0,0,.85-1.67c-.55-.07-.76-.17-.92-.11a2.75,2.75,0,0,0-.85.48c-4.07,3.7-7.63,7.76-9.08,13.24-.58,2.18-1.21,4.35-1.6,6.57-.81,4.54-3.69,7.56-6.73,10-.39-3.3-.28-6.9-1.33-10.13a20.85,20.85,0,0,1,.51-14.16c.23-.63.33-1.3.5-2l-.56-.24a16.18,16.18,0,0,0-1.1,1.64c-3.29,6.55-3.77,13.4-2.37,20.51.94,4.82.38,9.37-3.12,13.2a14.61,14.61,0,0,0-2.19,3.06c-2.28,4.33-4.47,8.7-6.6,12.87,0-.61,0-1.22,0-1.82A189.33,189.33,0,0,1,419,222.71a96.61,96.61,0,0,1,8.24-21c2.21-4,5.81-6.29,10.43-7.47-.41,1.47-1.35,2.7.47,3.72,1.31-.35,2.52-.89,2.4-2.69a2.43,2.43,0,0,0-2.92-2.5,52.37,52.37,0,0,0-5.36,1.14c1.53-2.6,6.15-7.27,9.54-8.83a39.52,39.52,0,0,1,7.73-2.26c.79-.18,1.71.22,3,.42a18.76,18.76,0,0,0-1.41,2.58c-.22.63-.43,1.59-.11,2a2.32,2.32,0,0,0,2,.75c1-.4,2.34-1.09,2.67-2a4.16,4.16,0,0,0-.52-3.43c-2.45-3.24-5.94-3.06-9.42-2.2a48.94,48.94,0,0,0-4.81,1.75c0-.2,0-.35.05-.43a48.45,48.45,0,0,1,19.7-14,24.56,24.56,0,0,1,4.51-.77c.26.91.43,1.34.51,1.79.28,1.61,1,2.74,2.84,2.68a3.91,3.91,0,0,0,3.8-3.18,2.81,2.81,0,0,0-2.62-3.2,23.68,23.68,0,0,0-6.86-.38c-6.1.84-11.14,4.14-15.85,7.82-9.3,7.28-16,16.77-21.62,27-9.16,16.5-12.56,34.6-14.16,53.15-.38,4.44-.68,8.89-1,13.53l-2.92-2.14c-2-8.42-4.5-11.75-14.19-18.58a49.85,49.85,0,0,1-.89-6c-.13-3.24.08-6.49.09-9.73,0-5.78,1.93-10.37,7.31-13.32,3.37-1.85,4.05-5.18,2-8.52a16.32,16.32,0,0,0-3.63-4.14c-5.45-4.41-11.9-4.33-18.37-3.6a16.43,16.43,0,0,0-10.11,5.06c-4.41,4.58-3.91,8.87,1.49,12.15,2.91,1.76,5,4.23,5.29,7.52.46,5.92.46,11.88.44,17.82A4.86,4.86,0,0,1,374,247.4c-6.67,3.78-10.49,9.69-12.07,17.12-6.69,4.38-8.94,18.87-3.71,25.53-.9,2.36-1.86,4.88-2.84,7.4-.48,1.23-1,2.44-1.47,3.68a3.14,3.14,0,0,0,1.63,4.2,21.73,21.73,0,0,0,5,1.91c10.93,2.61,22,2.95,33.18,2.14a107.69,107.69,0,0,0,16.44-2.57c5.86-1.36,6.52-3.45,4-8.88-1.24-2.67-2.15-5.49-3.13-8,2.93-3,3.36-6.37,3-9.78a38,38,0,0,1,.34-10.86C415.57,261.89,418.25,258.49,424.63,257.46Zm-53.8-43a16,16,0,0,1,1.38-2.75,13.15,13.15,0,0,1,8.7-4.74c5.6-.84,11-.25,15.32,4a17.78,17.78,0,0,1,2.09,3.2c-7.07,5.48-6.58,5.91-8.6,11.14a13.79,13.79,0,0,0-10.34.56C378.51,220.68,375.45,217.2,370.83,214.49Zm19.37,30.76a15.2,15.2,0,0,0-11.31.06c.34-5.63.67-11.17,1-17a11.14,11.14,0,0,1,9.38,0C389.59,234.14,389.89,239.57,390.2,245.25Zm-20.05,10.07c10-6.06,19.06-6,29,.07,3.33,2,4.24,5.59,6,8.95-2.18.94-2.68,2.67-2.92,4.59-.72,5.81-.47,11.49,2.15,16.88.89,1.85,1.88,3.52,4,3.87.38,1.54.73,2.94,1.13,4.57a80.12,80.12,0,0,0-49.8,0c.37-1.51.72-2.95,1.08-4.4,4.51-1.89,5.32-6.2,6-10.21.59-3.59.23-7.35.17-11a4.22,4.22,0,0,0-2.77-4.2C365.67,261,366.71,257.41,370.15,255.32Zm-11.84,27.49c.93-2.16,1.82-4.33,2.71-6.46l1.65,2.55c1.63-2.1,1.05-4,.85-5.81a31,31,0,0,1-.42-5.67c.32.42.83.79.94,1.25,1.28,5.5,1.15,10.92-1.29,16.09a18.87,18.87,0,0,1-2.39,3.16A4.45,4.45,0,0,1,358.31,282.81Zm54.78,19.48c-3,2.07-6.24,2.73-9.48,3.23a119.55,119.55,0,0,1-39.72-.32,17.53,17.53,0,0,1-7.73-2.88C365.71,295.13,402.33,294.86,413.09,302.29Zm-4-14.25a14.7,14.7,0,0,1-2.42-2.78,23.66,23.66,0,0,1-1.48-16.77,1.89,1.89,0,0,1,.9-1c.2,3.63-1.36,7.23-.23,10.8l.74.34,1.55-2.17a55.18,55.18,0,0,1,2.8,6.83A4.28,4.28,0,0,1,409.08,288Zm3.65-24c.06.12,0,.07,0,0ZM194.67,671.71V418.78l-4.2,3.12V675.27c12.57,2.25,21,8.47,21.87,22.2.47,0,.92.12,1.38.12,38.95,0,77.91-.07,116.86.07,3.59,0,5.12-2.27,7.2-4.44H216C213.28,681.68,207,674.06,194.67,671.71Zm385.7-249.85-4.26-3.09v253c-12.28,2.34-18.64,10-21.3,21.66H432.75c2.52,2.73,4.87,4.6,8.71,4.27,4.73-.4,9.52-.1,14.29-.09l101.37,0a10.32,10.32,0,0,0,1.4-.17c1-13.76,9.37-19.91,21.85-22.15ZM577,76.4v243l4.13-3.05V72.85c-12.5-2.31-20.94-8.43-21.83-22.3h-3.85q-57.54,0-115.08-.06c-3.32,0-4.57,2.44-6.49,4.36H555.64C558.3,66.48,564.76,74.16,577,76.4ZM191.31,316.33l4.23,3.1v-243c12.2-2.28,18.59-9.94,21.28-21.57H339.06c-2.58-2.42-4.48-4.63-8.18-4.36-4.94.37-9.92.09-14.89.09l-101.37,0a13.71,13.71,0,0,0-1.52.16c-.95,13.87-9.45,19.93-21.79,22.16ZM526.24,438.22a12,12,0,0,0-2.4-9.19c-2-2.51-4.29-3.14-7.21-1.93a19.86,19.86,0,0,0-2,.93c-2.93,1.59-6.13,2-9,.5-5.26-2.75-10.34-5.86-15.38-9-1.68-1-2.28-2.84-2.25-5a26.17,26.17,0,0,0-.84-7.05A23.33,23.33,0,0,0,480,395.71c-.82-8.62-11-17.43-19.57-16.94a23.45,23.45,0,0,1-1.94-2.11c-1.5-2-2.9-4.11-4.36-6.16-2-2.88-3.86-3.31-6.68-1.32a30.85,30.85,0,0,0-4.48,3.91A114.09,114.09,0,0,0,428,393.35c-3.91,6.56-7.5,13.29-9.62,20.66-1.67,5.81-.47,7.36,5.48,8.13,2.87.37,5.69,1.07,8.29,1.57,3.11,8,16,13.46,23.74,10.4,6.91,2.41,13.67,2.61,20.13-.88,2.9-1.57,5.34-.94,7.81.53,2.85,1.69,5.57,3.58,8.41,5.29,5.26,3.17,8.44,7.37,8.11,13.92-.18,3.69,2.18,6,5.92,6A15.16,15.16,0,0,0,513,457.7C520.94,453.71,525.09,446.88,526.24,438.22ZM466,382.69a62,62,0,0,1,4.08,5.69l-3.05.5c2.73,3.52,6.68,4,9.59,6.16a16.32,16.32,0,0,1-9.3-4.08c-3-2.43-6-4.95-6.17-9.44A4.3,4.3,0,0,1,466,382.69Zm-45.25,36.05a12.21,12.21,0,0,1,.24-2.91,101.4,101.4,0,0,1,3.65-10.06A109.08,109.08,0,0,1,446.11,374a46.16,46.16,0,0,1,4.54-3.56C453.07,380.58,430.68,416.37,420.74,418.74Zm23.44,6.74,1,2.95a58.27,58.27,0,0,1-7.26-1.3c-1.47-.44-2.62-1.71-2.93-3.95a15.08,15.08,0,0,1,3.75-.58c5.85.56,10.64,3.32,14.71,7.44a5.14,5.14,0,0,1,.66,1.2C450.71,429.66,448.56,426.39,444.18,425.48ZM467.81,432c-3.4,1.69-6.86.64-10.47.29.13-3.91-3-5.29-5.43-7.07a24.15,24.15,0,0,0-13-5,24.85,24.85,0,0,0-5.08.75l0,.61-4.32-1.45a80.81,80.81,0,0,0,26.29-42l3,3.33c-.74,4.22,2.28,7,4.94,9.75a26.6,26.6,0,0,0,10.48,6.67c1.33.48,2.89.33,5,.52,1.65,2.3,4,5.06,4,8.89C483.19,419,478.4,426.74,467.81,432ZM496,437.91l-14.65-8.09a16.67,16.67,0,0,0,5.91-9.47L501,429.92A10.6,10.6,0,0,1,496,437.91Zm7.12,14.51c-.11-4.49-.94-8.93-4.35-11.9l5.38-9.35c4.23,1.91,8.78.82,13.47-1.45a15.44,15.44,0,0,1,1.53,2.57,13,13,0,0,1-.45,9.51c-2.17,5.14-5.34,9.45-11.05,11.1C506.2,453.32,504.67,453.76,503.11,452.42ZM262,266.62a13.6,13.6,0,0,0-5.54,1.29c-8.23,4.27-12.58,11.25-13.36,20.41a18.85,18.85,0,0,0,.84,5.45,7.07,7.07,0,0,0,1.14,2.3c2.15,3.2,4.77,4,8.21,2.19,3.75-2,7.63-2.78,11.41-.78,4.9,2.58,9.59,5.58,14.26,8.58a5.2,5.2,0,0,1,2.36,5.12,21.61,21.61,0,0,0,3.42,13.06,77.1,77.1,0,0,0,4.66,6.26c.64,8,11.2,17.08,19.81,16.35,1.64,2.21,3.41,4.59,5.16,7,.51.69.92,1.46,1.48,2.11,1.76,2.06,3.3,2.4,5.54.88a31.33,31.33,0,0,0,5-4.22,113.44,113.44,0,0,0,18-25.62,104,104,0,0,0,6.6-15.49c1.87-5.63.47-7.19-5.41-7.95-2.92-.37-5.79-1.08-8.41-1.59-2.7-7.85-15.76-13.35-23.68-10.42-6.94-2.35-13.81-2.58-20.39,1.05-2.75,1.52-5.12.76-7.45-.6-3-1.78-5.94-3.74-8.89-5.64a26.25,26.25,0,0,1-2.59-1.83A13,13,0,0,1,269,273.43C269.13,268.8,266.6,266.43,262,266.62Zm40.74,75.43a57.05,57.05,0,0,0-3.63-4.75l2.54-.32c.09-.23.17-.47.26-.71-2.32-3-6.2-3.52-9.37-5.29,1.3-.82,3.83-.11,7.3,2.21,4,2.65,7.73,5.52,8.45,10.89C305.59,344.76,303.85,343.89,302.7,342.05Zm45.87-35.16a13.07,13.07,0,0,1-.27,3.1,101.57,101.57,0,0,1-3.74,10.23,114.59,114.59,0,0,1-19.48,29.57,43.36,43.36,0,0,1-4.25,3.87,12.53,12.53,0,0,1-2.21,1.19C315.83,345.85,338.27,309.76,348.57,306.89Zm-32.9-12.8c2.85,2.08,5.19,5,8.66,6.08l.58-.36c-.22-.86-.43-1.71-.62-2.48a41.25,41.25,0,0,1,7,1.2c1.3.44,2.23,2,3.32,3-.09.28-.17.56-.26.84a11.66,11.66,0,0,1-3.24.74c-6.18-.42-11.18-3.34-15.43-7.69a2.87,2.87,0,0,1-.41-1Zm-3.63-.4c-.28,2.49,1.48,3.82,3.21,5.21a28.9,28.9,0,0,0,14.48,6.53c2.11.28,4.09.18,5.75-1.34l4.32,1.4a81.1,81.1,0,0,0-26.38,42.19l-3.08-3.21c.83-4.29-1.83-7.09-4.45-9.48a51,51,0,0,0-9.4-6.49c-2.9-1.64-3-1.39-6-.72-6.49-6.72-5.84-15.48-.59-24C294.88,295.58,302.76,290.56,312,293.69Zm-38.6-5.85,14.57,8a16.6,16.6,0,0,0-6,9.44l-13.41-9.39C268.31,293,270.46,289.38,273.44,287.84Zm-2.83-2.67-5.48,9.29c-4.16-1.73-8.73-.95-13.63,1.68a27,27,0,0,1-1.63-3.82c-1.91-7.69,4.73-18.18,12.34-19.67a21.53,21.53,0,0,1,4,0C266.31,277.69,267.07,282.16,270.61,285.17Zm-1.23,166.52a11,11,0,0,1,4.14-9.27c3.32-2.6,6.91-4.87,10.47-7.17a16.92,16.92,0,0,1,4.79-2.3,7.85,7.85,0,0,1,3.94.33c2.53.73,4.94,2,7.49,2.49a22.8,22.8,0,0,0,13.48-1.34c7.76,3.12,20.57-2.36,23.74-10.17,1.2-.33,2.52-.78,3.87-1,2-.39,4.05-.66,6.08-1,3.85-.55,5.07-2.14,4.31-6a31.81,31.81,0,0,0-1.53-5.33,121.31,121.31,0,0,0-18.93-32.27,67.65,67.65,0,0,0-8.9-9c-2.71-2.31-4.74-1.73-6.8,1.22-.95,1.36-1.76,2.82-2.76,4.13-1.15,1.51-2.44,2.9-3.55,4.21-7.9-1.15-18.63,8.22-19.56,16.73-5.11,5.06-8.26,11.05-8,18.37.11,3.26-1.37,5.25-3.84,6.82-2.91,1.85-5.9,3.56-8.8,5.43-5.12,3.3-10.25,4.23-15.86,1-2.8-1.62-5.34-.74-7.36,1.83a11.94,11.94,0,0,0-2.42,7.43c-.07,8,3.87,14.06,9.62,19a17,17,0,0,0,7.09,3.34C266.09,460.57,269.43,457.8,269.38,451.69Zm62.06-24.05c-2.31.41-4.63.76-7,1.14.27-.69.57-1.5.88-2.31l-.52-.54c-3.63.85-5.92,4-9,6.19.43-5.08,14.15-11,18.61-8.33A4.32,4.32,0,0,1,331.44,427.64ZM318.8,371a13.29,13.29,0,0,1,2.73,1.6,104.14,104.14,0,0,1,7.3,7.56,114.91,114.91,0,0,1,18.39,31,18.36,18.36,0,0,1,1.67,8.1C336.83,413.81,318.23,383.67,318.8,371Zm-16.61,18.82-.12-.72-2.63-.44a28.34,28.34,0,0,0,3.48-4.5,4.78,4.78,0,0,1,3.91-2.6,4.68,4.68,0,0,1,1.44.19c.71,5.25-10.45,15-15.53,13.41C295.94,393.24,299.82,392.75,302.19,389.86Zm-11.48,8.21c2.71,1.55,5,.13,7.29-1a26.43,26.43,0,0,0,11.59-10.25c.85-1.44,1.08-3.24,1.59-4.88l-.52-.42,3.18-2.89a80.75,80.75,0,0,0,26.25,41.84L336,421.91c-3.71-2.66-7.51-1.22-11.18,0a27.49,27.49,0,0,0-10.46,6.35c-1.06,1-1.65,2.53-2.84,4.43-2.69.41-6.19,1.4-9.63-.3-10.6-5.21-15.47-13-15.51-24.88C286.37,403.77,288.77,401.13,290.71,398.07Zm-15.09,27.42c2.2-1.55,4.36-3.15,6.73-4.86a16.8,16.8,0,0,0,6.08,9.57c-2.73,1.46-5.18,2.72-7.59,4.05s-4.7,2.69-7.11,4.08a10.91,10.91,0,0,1-5.06-8.1C271.05,428.61,273.35,427.08,275.62,425.49Zm-12.91,27.92a12.75,12.75,0,0,1-7.4-4.34c-3.68-4.2-6.19-8.93-5.19-14.78a26.52,26.52,0,0,1,1.52-4.24c4.91,2,9.5,3.56,13.92,1.46l5.29,9.38c-3.21,2.91-4.3,7.24-4.24,12.56A23.66,23.66,0,0,1,262.71,453.41ZM517.3,270.06a16.7,16.7,0,0,0-6.62-3.4c-6.3-1.85-10.06,1-10.07,7.56,0,3.23-.79,6.31-3.31,8.19-4.85,3.62-10,6.87-15.14,10.08-1.58,1-3.4.82-5.28-.13a26.6,26.6,0,0,0-7.07-2.45,23.58,23.58,0,0,0-13.49,1.32c-7.72-3.1-20.67,2.45-23.74,10.2-1.19.33-2.5.79-3.85,1-2.21.41-4.46.62-6.67,1-3.25.59-4.35,2-3.82,5.28a30.32,30.32,0,0,0,1.61,5.92,116.5,116.5,0,0,0,17.46,30.37A90.33,90.33,0,0,0,447.65,356c2.68,2.42,4.67,1.82,6.8-1.12.38-.54.67-1.15,1.06-1.68,1.73-2.32,3.48-4.62,5.09-6.75,8.06,1.17,19.14-8.4,19.73-16.69,5.11-5.1,8.29-11,8-18.27-.14-3.45,1.5-5.45,4.08-7.08,3-1.88,6-3.64,9-5.51,4.9-3.09,9.83-3.88,15.17-.92,3.25,1.81,6.06,1,8-2.23a13.48,13.48,0,0,0,1.84-5C527.63,282.05,523.23,275.6,517.3,270.06Zm-78.91,28.09a57,57,0,0,1,7-1.23c-.2.69-.46,1.55-.79,2.66,2.47.2,3.69-1.39,5.13-2.39s2.81-2.31,4.21-3.47c-1.15,5.34-14.06,10.76-18.6,8.08A4.1,4.1,0,0,1,438.39,298.15ZM451,354.56a14.8,14.8,0,0,1-2.86-1.78,100,100,0,0,1-7.11-7.46,115,115,0,0,1-18.16-30.63,41.16,41.16,0,0,1-1.64-5.72,13.55,13.55,0,0,1,0-2.78,16.79,16.79,0,0,1,3.1,1.95c3.9,4,8,7.94,11.5,12.29a80.82,80.82,0,0,1,15.06,29.51,41.8,41.8,0,0,1,.7,4.2Zm16.38-18.2,3.37.66c-.52.55-1,1-1.47,1.59a32.62,32.62,0,0,0-2.45,3.32,4.3,4.3,0,0,1-5.14,1.84c-.44-5.3,10.54-14.84,15.69-13.31C474.07,332.4,470.17,333,467.38,336.36Zm11.82-8.93-.32-.55a23,23,0,0,0-18.26,11.57c-1.12,1.7-2,3.46-1.21,5.47l-3.22,3.23a80.9,80.9,0,0,0-26.34-42l2.17-.68,2.17-.72c2.07,2,4.6,1.57,7.09,1.12a28.75,28.75,0,0,0,14.88-7.9c.92-.88,1.26-2.35,2-3.82,8.65-2.93,16.52,2,21.6,10.24C485,311.79,485.75,320.61,479.2,327.43Zm8.45-22.49a16.85,16.85,0,0,0-6-9.41l14.64-8.1c3,1.76,4.41,4.5,5.05,7.94ZM520,291.05c-.21,1.62-.52,3.26-2.2,4.41-4.41-2.06-8.95-3.24-13.27-1.31l-5.38-9.36c3.38-2.93,4.27-7.34,4.35-12.43a16.71,16.71,0,0,1,3.3-.2,12.71,12.71,0,0,1,7.82,4.34C518.28,280.6,520.73,285.27,520,291.05ZM415,76.17H355.48v49.68H415Zm-4.1,45.41H359.79V80.41h51.12Zm-114,87.78c1,6.61,2.09,13.2,3.15,19.8a11.32,11.32,0,0,0,.59,1.54c.22-.95.35-1.39.42-1.83,1-6.34,2.12-12.66,3-19,.37-2.56,1.45-4.66,3.65-5.81a71.8,71.8,0,0,1,8.71-3.7,38.13,38.13,0,0,1,5.13-1.15,10.36,10.36,0,0,0-2.6-.91c-3.54-1.22-7.15-2.31-10.56-3.83a7.13,7.13,0,0,1-4.24-5.65c-.61-4.19-1.29-8.37-2-12.55-.45-2.84-.94-5.67-1.42-8.51l-.55,0c-1.09,6.72-2.28,13.42-3.22,20.16-.4,2.89-1.65,5.12-4.13,6.37a74.41,74.41,0,0,1-8.79,3.55,34.79,34.79,0,0,1-4.81,1,4.09,4.09,0,0,0,1.94.71c4.13.75,8.15,1.81,11.71,4.14A8,8,0,0,1,296.92,209.36ZM478.16,507c0-.14,0-.28,0-.41l-2.12-.35A29.21,29.21,0,0,1,464.36,502a7.54,7.54,0,0,1-3.65-5.19c-.61-4.13-1.29-8.24-1.95-12.36-.49-3-1-5.95-1.49-8.93a2.42,2.42,0,0,0-.78,1.43c-1,6.14-2.06,12.27-2.89,18.44a9,9,0,0,1-4.53,7,32.11,32.11,0,0,1-11.59,3.92c-.58.09-1.16.25-1.74.37a17.4,17.4,0,0,0,3,.92c3.66,1.29,7.36,2.5,10.88,4.1,2.42,1.1,3.57,3.39,3.94,6.08.52,3.86,1.15,7.72,1.77,11.57.47,2.93,1,5.86,1.5,8.78a1.68,1.68,0,0,0,.72-1.13c1-5.95,2.22-11.86,2.8-17.84.44-4.6,2.83-7.24,6.71-9a31.05,31.05,0,0,1,4.46-1.66C473.68,507.94,475.93,507.52,478.16,507Zm-91.9,147.88a33.37,33.37,0,0,0,2.12-5.55,88.13,88.13,0,0,0,2-25c-.07-1.64.05-3.69-2.3-3.67s-2.24,2.11-2.29,3.72c-.15,4.62-.05,9.26-.28,13.89a58.42,58.42,0,0,1-1.16,10.41c-.7,3-2,6.11-5.69,6.93-3.83-1.88-5-5.13-5.26-8.76-.47-6.93-.73-13.87-1.11-20.81a8.21,8.21,0,0,0-.57-3.1,2.75,2.75,0,0,0-1.94-1.5c-.66,0-1.37,1-1.87,1.65-.28.37-.21,1-.26,1.55a103.72,103.72,0,0,0,.46,23.56,16.61,16.61,0,0,0,3.19,8C374.5,660.38,383.18,661.86,386.26,654.89Zm29.14-20.46c1.31-3.87.8-7.37-1.86-10.38s-6.16-3.59-10-2.86c-1.25.23-2.54.26-4.2.43-1.23,1.34-2.82,3-4.28,4.72a3.05,3.05,0,0,0-.65,2,6.15,6.15,0,0,0,.9,2l.79.12c.29-.59.57-1.19.86-1.78a1.48,1.48,0,0,1,.42,1c-.27,7.47-.56,14.93-.78,22.4a18.84,18.84,0,0,0,.28,4.93,3.28,3.28,0,0,0,2,2.07,3,3,0,0,0,2.49-1,5.24,5.24,0,0,0,.64-2.81c.08-2.44,0-4.88,0-7.5C408.45,645.19,413.14,641.07,415.4,634.43Zm-13.32-8.81c4.67-1.8,8.32-.36,9.05,3.84a9.72,9.72,0,0,1-.92,4.93c-1.48,3.69-4.23,6.26-8.13,8.29Zm26.54,10.3a18.47,18.47,0,0,1-4.23-4.63c-1.73-2.71-1.06-4.84,1.82-6.9,2.54.38,4.36,1.53,5.07,4.11a2.74,2.74,0,0,0,.64,1.42,2.83,2.83,0,0,0,1.85.75,1.91,1.91,0,0,0,1.19-1.33c.49-2.69.07-5.16-2.25-7-4.55-3.53-9.31-2.64-12.26,2.3a9,9,0,0,0-.78,7.29c1,3.46,3.17,6,5.88,8.26,3.19,2.68,5.1,6.09,4.76,10.41a4.25,4.25,0,0,1-4.47,4.31c-3.14.09-4.33-.88-4.86-4a4.21,4.21,0,0,0-.25-1.36c-.41-.68-.87-1.66-1.48-1.81a2.6,2.6,0,0,0-2.21.86,6,6,0,0,0-1.08,3.07,7.84,7.84,0,0,0,6.35,7.82c7.42,1.17,12.38-2.68,12.65-10A15.73,15.73,0,0,0,428.62,635.92Zm-70.87-7.76a33.79,33.79,0,0,0,2.39,2.9,2.12,2.12,0,0,0,1.92.39,2.37,2.37,0,0,0,.9-1.74,4,4,0,0,0-.5-1.89c-3.14-7.28-11.57-8.37-17-2.15a23.83,23.83,0,0,0-5.59,14.73c0,7.26,1.59,12.33,4.64,15.64,5.73,6.24,13.43,3.74,17.08-2.8a2.85,2.85,0,0,0-.46-2.72,3.87,3.87,0,0,0-3,.19c-.71.29-1.12,1.25-1.72,1.86-3.39,3.45-7.46,3.11-9.59-1.19a25.94,25.94,0,0,1-2.55-8.85,18.82,18.82,0,0,1,4.13-14.32C351.29,624.81,354.87,624.87,357.75,628.16ZM346.42,50.53c3.08.65,6.22,1,9.48,1.48-.45,1-.92,1.93-1.29,2.91-.49,1.34-.86,2.73.39,3.87s2.76.79,4.08.1a15.25,15.25,0,0,0,7.54-8.07,11.52,11.52,0,0,0,.69-4.44c-.19-4.73-3-8.19-6.09-11.4a7.52,7.52,0,0,0-2.11-1.44c-2.36-1.15-4.46.11-4.19,2.7a22.53,22.53,0,0,0,1.51,4.86,11.09,11.09,0,0,0,.65,1.33c-3.61.46-7.15.77-10.62,1.41-1.8.34-4,.73-4.27,3.19C342,48.52,343.58,49.93,346.42,50.53Zm10.82,6.34c0-3.6,2.32-5.72,6.71-6.13A13,13,0,0,1,357.24,56.87ZM363.79,44l-3.43-.76-3-6.8A13.54,13.54,0,0,1,363.79,44Zm.86,2.82c-3.21,2.32-15.65,2.25-19.4-.2A40.65,40.65,0,0,1,364.65,46.77Zm62.7,651.64a22.9,22.9,0,0,0-5.7-1.56c-1.92-.33-3.88-.37-5.95-.55a17,17,0,0,0,1.44-3.6c.16-1.07.12-2.67-.53-3.22a3.88,3.88,0,0,0-3.4-.46,14.81,14.81,0,0,0-8.58,9.33c-1.85,5.72,2.89,12.67,6.87,15.62,1.2.9,2.57,1.57,4,.63s1.5-2.62,1.06-4.11c-.51-1.69-1.31-3.29-2.09-5.19a12.28,12.28,0,0,0,1.49,0c3.72-.53,7.46-.94,11.12-1.71a3.36,3.36,0,0,0,2.18-2.37A3.86,3.86,0,0,0,427.35,698.41Zm-13.06-7.09.61.44L412,696.68l-4.5.9C409.4,694.63,411.28,692.32,414.29,691.32Zm-.81,20.24c-2.63-1.78-4.34-4.31-5.94-7.47l3.74.82c.88,2,1.83,4.18,2.78,6.34Zm-6.54-10.78a37.74,37.74,0,0,1,19.34.14C423.18,703.17,410.3,703.07,406.94,700.78Zm52.41-57.5a78.15,78.15,0,0,0,10-2c2.43-.75,2.56-3.16.39-4.52a12.85,12.85,0,0,0-4.41-1.61c-2.56-.48-5.18-.66-7.94-1,.44-.94.91-1.8,1.24-2.71.52-1.43,1.1-3-.33-4.21s-2.93-.73-4.26.05c-4.43,2.58-8,6.08-8.05,11.46,0,6,3.26,10.49,8.15,13.67,2.36,1.54,4.64,0,4.29-2.86a21.86,21.86,0,0,0-1.54-4.65,14.25,14.25,0,0,0-.8-1.64A21.3,21.3,0,0,0,459.35,643.28Zm-3.33-14,.61.44-2.86,4.92-4.48.91C451.1,632.58,453,630.35,456,629.29Zm-6.54,12.82,3.55.81,2.9,6.54C453.5,648.71,450.86,645.61,449.48,642.11Zm-.88-3.31a35.05,35.05,0,0,1,19.07.22C464.32,641.15,452.24,641,448.6,638.8Zm-276-298.59a42.74,42.74,0,0,0,7,5.66c8.09,4.8,15.82-1.82,18-7.68a3.49,3.49,0,0,0-.53-3.05,3.92,3.92,0,0,0-3-.62,19,19,0,0,0-3.75,1.44c-.34-2.8-.51-5.51-1-8.14a12.62,12.62,0,0,0-1.87-4.51c-1.13-1.65-3-1.44-4,.32A10.06,10.06,0,0,0,182.1,327c-.51,3.37-.84,6.76-1.24,10.12-1.5-.61-3.15-1.42-4.89-1.95-1.49-.45-3.11-.47-4.09,1.09A3.08,3.08,0,0,0,172.56,340.21Zm17.26-.49,4.91-2.89.45.61c-1,3-3.32,4.87-6.27,6.8C189.24,342.58,189.5,341.33,189.82,339.72Zm-4.49-14.09c2.08,4.18,2.08,15.74.09,18.82C183.47,341.1,183.34,329,185.33,325.63Zm-10.09,12.06,6.3,2.69c.29,1.26.53,2.32.87,3.78a18.31,18.31,0,0,1-7.47-5.89Zm182.05,351.2a3.52,3.52,0,0,0-3.05.56,4,4,0,0,0-.58,3,19.53,19.53,0,0,0,1.5,3.88c-.69,0-1.16,0-1.61.1a94.48,94.48,0,0,0-9.53,1.7,4.46,4.46,0,0,0-2.53,2.87c-.36,1.6,1.24,2.43,2.61,2.73,2.83.63,5.7,1.09,8.57,1.5a26.49,26.49,0,0,0,3.68,0c-.78,1.88-1.58,3.48-2.1,5.17-.45,1.49-.5,3.11,1.05,4.12a3,3,0,0,0,4-.64,42.4,42.4,0,0,0,5.7-7C369.8,698.81,363.16,691.05,357.29,688.89Zm.13,22.65-.62-.36,2.73-6.22,3.75-.88A18.15,18.15,0,0,1,357.42,711.54ZM344.5,701a37.93,37.93,0,0,1,19.33-.21C360.9,703,348,703.22,344.5,701Zm11.9-9.72a12.88,12.88,0,0,1,6.73,6.1C358.5,697.59,356.64,694.37,356.4,691.23ZM181.26,400.05a53.49,53.49,0,0,0,2,8.63c.77,2.19,2.95,2.29,4.34.42a6.76,6.76,0,0,0,1.26-2.65c.6-3.22,1-6.47,1.56-9.74a32.5,32.5,0,0,0,4.1,1.52c2.26.52,3.77-1.07,3.28-3.33a6,6,0,0,0-.79-2c-3.15-4.85-7.08-8.62-13.41-7.54a16.29,16.29,0,0,0-11.73,8.29c-1.18,2.07.23,4.11,2.62,4a15.29,15.29,0,0,0,4-1,25.1,25.1,0,0,0,2.76-1.37A30.5,30.5,0,0,0,181.26,400.05Zm13.55-4.3c-1.69-.94-3.37-1.89-5-2.79-.32-1.56-.58-2.83-.91-4.41C192.42,390.47,194.43,392.71,194.81,395.75Zm-9.11-8a38,38,0,0,1-.1,19.37C183.33,404.18,183.41,391.31,185.7,387.77Zm-10.46,7.16-.3-.57a17.92,17.92,0,0,1,7.16-5.79c.1.33.19.46.16.56-.19.9-.41,1.79-.71,3ZM304,635.79c-1.84,1.23-1.63,3.2.35,4.26a10.66,10.66,0,0,0,3.34,1.18c3.3.49,6.63.8,10,1.19-.6,1.4-1.39,2.92-1.9,4.52s-.7,3.22.86,4.35,3.23.46,4.31-.69a40.48,40.48,0,0,0,5.51-6.91c4.77-8.12-1.85-15.83-7.71-18a3.47,3.47,0,0,0-3,.54,3.88,3.88,0,0,0-.62,3,18.7,18.7,0,0,0,1.43,3.75c-2.79.34-5.5.53-8.14,1A11.9,11.9,0,0,0,304,635.79Zm14.81,12.55-.58-.37c.9-2.07,1.81-4.15,2.72-6.22l3.75-.87A18.43,18.43,0,0,1,318.83,648.34ZM318,628.1c3,1,4.89,3.31,6.77,6.27l-4.49-.91c-.91-1.53-1.9-3.22-2.89-4.92Zm7,9.73c-6.18,2.12-12.41,1.74-18.66.26A29.77,29.77,0,0,1,325,637.83ZM589.59,332.54a52.47,52.47,0,0,0-2-8.63c-.77-2.19-3-2.33-4.31-.38a12.35,12.35,0,0,0-1.71,4.37c-.5,2.63-.68,5.32-1,8.06a36.25,36.25,0,0,0-4-1.55c-2.44-.62-4.2,1.11-3.37,3.48a15.77,15.77,0,0,0,2.68,4.55c6.25,7.74,19,5.89,23.11-3.28,1.07-2.41-.18-4.45-2.78-4.16a23.59,23.59,0,0,0-4.86,1.53c-.52.19-1,.49-1.69.82A30.5,30.5,0,0,0,589.59,332.54Zm-13.94,4.9c.15-.2.29-.4.43-.61l4.93,2.86c.33,1.6.6,2.87.93,4.49C579,342.36,576.71,340.43,575.65,337.44Zm10.05,7.28c-2.32-3.14-2.26-15.56.15-19.38A39.83,39.83,0,0,1,585.7,344.72Zm9.89-7.05.37.63a19.55,19.55,0,0,1-7.53,5.88l.86-3.76ZM414,59.1a3.89,3.89,0,0,0,3.4-.49c.64-.56.67-2.16.5-3.22a16.27,16.27,0,0,0-1.35-3.49c2.87-.35,5.59-.54,8.24-1.06a12,12,0,0,0,4.34-1.79c1.74-1.2,1.52-3.14-.36-4.16a10.38,10.38,0,0,0-3.34-1.2c-3.32-.5-6.66-.82-10-1.21.65-1.64,1.45-3.31,2-5.07.42-1.44.44-3.24-1.15-3.82a4.38,4.38,0,0,0-3.77.52,32,32,0,0,0-5.51,6.4C401.78,48.71,407.77,56.42,414,59.1Zm.25-22.55.57.3c-.91,2.11-1.82,4.23-2.69,6.27-.79.2-1.36.36-1.93.49s-1,.19-1.86.36A18.52,18.52,0,0,1,414.27,36.55ZM426.71,46.8c-2.8,2.17-15.16,2.34-18.66.26C411.21,45.1,423.29,44.93,426.71,46.8Zm-11.4,9.72c-2.2-.06-4.57-2.05-6.77-5.79C412.93,50.76,414.42,52.67,415.31,56.52Zm176,330.22c-8.06-4.77-15.76,1.68-18,7.64a3.51,3.51,0,0,0,.5,3.05,3.85,3.85,0,0,0,3,.66,18.59,18.59,0,0,0,3.8-1.46c.33,2.78.49,5.49,1,8.11a13.38,13.38,0,0,0,2,4.66c1,1.49,2.83,1.32,3.79-.23a9.65,9.65,0,0,0,1.36-3.48c.54-3.37.86-6.77,1.27-10.17,1.56.64,3.15,1.45,4.84,2,1.49.45,3.1.48,4.11-1.06a3,3,0,0,0-.64-4A42.17,42.17,0,0,0,591.3,386.74Zm-15.77,8.71c1.19-3.27,3.44-5.17,6.07-6.87C581.84,392.51,580.29,394.43,575.53,395.45Zm9.77,11.89a38.59,38.59,0,0,1-.22-19.38C587.36,390.64,587.59,403.46,585.3,407.34Zm10.29-12.46-6.25-2.63c-.29-1.22-.55-2.29-.81-3.35l.53-.53,7.07,5.61Zm-9.75,302.6c-1.91-2.51-4-4.86-6-7.2,1.51-.63,3.24-1.24,4.86-2.07,1.41-.72,2.53-1.84,2.17-3.64a3.06,3.06,0,0,0-3.44-2.4,42.41,42.41,0,0,0-9.16,1.19c-8.71,2.48-9.49,12.57-6.74,18.25,1.15,2.38,3.62,2.39,5,.1a31,31,0,0,0,1.63-3.87c2.73,2,5.35,4,8.1,5.76a6.93,6.93,0,0,0,3.16,1,2.2,2.2,0,0,0,2.47-3.05A13.61,13.61,0,0,0,585.84,697.48Zm-2.29-11.67-6.45,2.71-3-1.89A11.59,11.59,0,0,1,583.55,685.81Zm-13.74,14.74c-1.55-3-1.27-6-.67-9.31C572.46,694.45,572.24,696.86,569.81,700.55Zm1.63-12.16c6,2.78,10.23,7.43,13.64,13A29.9,29.9,0,0,1,571.44,688.39ZM186.8,52.08c1.62,2,3.42,3.82,5.11,5.69-1.67.71-3.46,1.34-5.12,2.22-1.33.7-2.35,1.81-2,3.52A2.94,2.94,0,0,0,188,65.9a42,42,0,0,0,9-1c8.91-2.34,9.9-12.15,7.22-18.18a3.53,3.53,0,0,0-2.52-1.81,3.78,3.78,0,0,0-2.58,1.67,20.68,20.68,0,0,0-1.71,4,28.28,28.28,0,0,0-2.58-2.33c-2-1.46-4.08-2.93-6.25-4.18-1.32-.76-3-1.15-4.25.11s-.61,2.74.08,4A24.35,24.35,0,0,0,186.8,52.08Zm1.59,11.27c-.09-.36-.19-.71-.28-1.06l6.42-2.69,3,1.86c0,.21,0,.42,0,.64Zm13.44-15.86c1.55,3.16,1.29,6.17.68,9.28C199.47,53.87,199.2,50.92,201.83,47.49Zm-1.6,12.65a39.61,39.61,0,0,1-14.14-13.48C190.34,47.36,199.38,56,200.23,60.14Zm384.26,5.73a4.64,4.64,0,0,0,3.07-2.28c.75-1.51-.46-2.81-1.8-3.53-1.67-.9-3.47-1.56-5.06-2.25a32.81,32.81,0,0,0,2.55-2.9,75.55,75.55,0,0,0,5.28-8.07c1-2-.38-3.56-2.63-3.3a7,7,0,0,0-3,1c-2.73,1.83-5.35,3.82-8.06,5.78-.31-.89-.62-2-1.07-3-.6-1.36-1.32-2.7-3.12-2.58s-2.54,1.46-2.89,2.88a23.58,23.58,0,0,0-.82,5.65c0,3.19.79,6.3,3.16,8.53C574.16,65.61,579.21,66.51,584.49,65.87Zm-.11-3.6-.19.62c-3.2.62-6.25-.12-9.64-1.17l3.31-2.11ZM586,46.61c-1.45,4-9.42,11.69-13.63,13.23C572.63,56.53,581.56,47.78,586,46.61Zm-15.41.86c2.48,3.2,2.3,5.75-.54,9.42A13.3,13.3,0,0,1,570.59,47.47ZM187.18,682.17c-1.48.14-2.9.7-3.21,2.46s.72,2.8,2.05,3.5c1.62.86,3.37,1.49,5.26,2.3a10,10,0,0,0-1.16,1.08c-2.22,2.84-4.5,5.66-6.6,8.6-.8,1.14-1.32,2.88,0,3.76a4.52,4.52,0,0,0,3.83.24,56.45,56.45,0,0,0,6.93-4.53,23.88,23.88,0,0,0,2.27-2,20.51,20.51,0,0,0,1.72,4,3.76,3.76,0,0,0,2.6,1.63,3.46,3.46,0,0,0,2.48-1.84,17.17,17.17,0,0,0,1.24-5.35c.25-3.6-.44-7.14-3.12-9.71C197.54,682.48,192.48,681.68,187.18,682.17Zm.08,3.66c.07-.21.13-.42.2-.63,3.16-.59,6.21.13,9.64,1.18l-3.32,2.12Zm-2,15.73A39.68,39.68,0,0,1,199.33,688C198.91,691.7,189.94,700.44,185.28,701.56Zm15.79-1c-2.07-2.77-3-5.85.62-9.32C202.38,694.49,202.55,697.51,201.07,700.53ZM378.42,57.33a2.72,2.72,0,0,0,2.3.41c.42-.15.76-1.31.7-2-.36-3.45,1.09-5.91,4.52-7.3,3.86,1.08,5.4,3.47,5,7.44a2.3,2.3,0,0,0,.71,1.83,2.66,2.66,0,0,0,2-.13A4.05,4.05,0,0,0,395,56.43a11.3,11.3,0,0,0,1.28-13,11.43,11.43,0,0,0-12.07-5.7c-5.19,1.11-9,5.12-9.44,10A10.61,10.61,0,0,0,378.42,57.33Zm2.49-13.92a7.24,7.24,0,0,1,9.12-1c3.29,2,4.51,4.84,3.5,8.57-4.48-7.69-10.16-7.69-14.5-.18C377.91,48.48,378.68,45.48,380.91,43.41ZM393.26,690.8a2.65,2.65,0,0,0-2.28-.45c-.48.24-.78,1.42-.7,2.14.39,3.5-1.51,6.23-5.12,7.12-3.43-1.26-4.86-3.67-4.5-7.37.06-.62-.24-1.64-.66-1.84a2.36,2.36,0,0,0-2.14.21,12.14,12.14,0,0,0-2.72,3.34,11.34,11.34,0,0,0,6.09,15.75c7.17,3,13.59-2.06,15.19-7.15C397.74,698.36,396.44,693.18,393.26,690.8ZM390,705.22c-3.08,2.19-6.27,2.21-9.17,0a6.85,6.85,0,0,1-2.64-8c3.58,6.88,10.32,8,14.57,0A6.67,6.67,0,0,1,390,705.22ZM576.56,371.06a2.27,2.27,0,0,0-1.83.71,3,3,0,0,0,.11,2c.12.4.56.72.89,1a11.29,11.29,0,0,0,13.08,1.66,11.49,11.49,0,0,0,5.93-12c-1.06-5.28-5.09-9.17-10-9.63a10.55,10.55,0,0,0-9.6,3.63,2.74,2.74,0,0,0-.42,2.3c.15.43,1.3.78,2,.71,3.46-.35,5.9,1.07,7.31,4.52C582.93,369.86,580.51,371.43,576.56,371.06Zm5.1-11.95c2.3-1.12,5.31-.36,7.39,1.87a7.27,7.27,0,0,1,1,9.12c-2,3.28-4.81,4.5-8.6,3.52C589.59,369.52,588.54,362.51,581.66,359.11Zm-387.4,2.43a2.32,2.32,0,0,0,1.85-.68,2.53,2.53,0,0,0-.1-2,4.62,4.62,0,0,0-1.31-1.46,11.49,11.49,0,1,0-13.92,18.26c4.59,3.33,11.37,2.74,14.79-1.39a3.21,3.21,0,0,0,.57-2.45c-.1-.39-1.42-.75-2.13-.67-3.42.37-6-1.36-7.15-5C188.15,362.6,190.56,361.18,194.26,361.54Zm-5,12a6.54,6.54,0,0,1-7.67-2.36c-2.41-3.14-2.57-6.34-.46-9.33a7.06,7.06,0,0,1,8.29-2.81C182.87,362.09,180.75,369.18,189.22,373.56ZM498.41,551.64c-.32-3.41-1-6.78-1.58-10.17l-.32-.05a5.8,5.8,0,0,0-.41,1.12c-.51,3-1.2,6-1.43,9-.28,3.54-2.51,5.05-5.43,6-1.39.47-2.84.77-4.76,1.27,2.19.64,3.92,1,5.54,1.66,2,.82,4,1.83,4.41,4.39.42,2.81.85,5.62,1.31,8.43.17,1,.44,2,.66,3a78,78,0,0,0,2.1-10.83,4.84,4.84,0,0,1,2.58-4,40.37,40.37,0,0,1,4.57-1.84c.81-.3,1.68-.45,2.89-.77-2.36-.74-4.29-1.21-6.11-1.94A5.9,5.9,0,0,1,498.41,551.64ZM451.33,131.3c.26,3.29,1,6.55,1.54,9.82a2.18,2.18,0,0,0,.81-1.47c.47-2.87,1.08-5.73,1.33-8.63.27-3.21,2.15-4.83,4.91-5.79,1.56-.54,3.15-1,4.95-1.53-2.1-.67-3.94-1.17-5.71-1.83a5.88,5.88,0,0,1-4.12-5.3c-.36-3.46-1.07-6.88-1.63-10.32l-.55,0c-.43,2.73-.94,5.46-1.28,8.2-.71,5.71-2.47,7.62-8.2,8.71-.58.11-1.15.26-2.28.52,2.07.63,3.53,1,5,1.51C449.08,126.11,451.05,127.81,451.33,131.3Zm-199,482.27a18.6,18.6,0,0,0,.44,2.95c.4,2.25.82,4.49,1.23,6.74.44-.24.55-.42.58-.6a89.79,89.79,0,0,0,1.44-9c.22-3.28,2-5.06,4.8-6.08,1.57-.56,3.18-1,4.77-1.51a4.4,4.4,0,0,0-1.87-.7c-5.23-1-6.85-2.71-7.75-7.94-.5-2.91-1-5.82-1.55-8.72A53.05,53.05,0,0,0,252.26,599a5.74,5.74,0,0,1-4,5.13c-1.81.71-3.71,1.23-5.76,1.9,1.67.5,3.16.93,4.65,1.4C250.16,608.37,252.27,610.08,252.34,613.57ZM246.12,496.7c1.1-.42,2.24-.74,3.73-1.23-1.19-.31-1.95-.5-2.71-.72-2.64-.74-4.41-2.11-4.55-5.19a51.16,51.16,0,0,0-1-6.35l-.48-.07c-.31,1.91-.67,3.81-.93,5.73-.53,4-1.41,5-5.3,6.1-.56.15-1.13.26-2.08.48.95.33,1.53.57,2.14.73,3.79,1,4.69,2,5.22,5.9.27,1.94.63,3.86.94,5.8h.5c.38-2.27.9-4.53,1.09-6.81A4.76,4.76,0,0,1,246.12,496.7ZM489,371.16c.27,1.93.56,3.86.85,5.79l.61-.06c.21-1.41.46-2.81.62-4.23.59-5.16,1.31-6.09,5.69-7.3.49-.14.95-.4,1.69-.71-1-.26-1.62-.42-2.25-.6-2.75-.78-4.74-2.07-4.8-5.4a43,43,0,0,0-1.1-6.49,5,5,0,0,0-.53,1.06c-.27,1.56-.58,3.12-.74,4.69-.42,4-1.29,5.06-5.15,6.21-.62.18-1.26.32-2.27.57,1,.32,1.57.55,2.19.72C487.4,366.36,488.44,367.51,489,371.16ZM347.18,246.22a61.87,61.87,0,0,0,1,6.17,20.13,20.13,0,0,0,1.52-6.42c.1-3.05,1.92-4.28,4.43-5.08.79-.25,1.59-.53,2.38-.79a1.33,1.33,0,0,0-.88-.44c-4-.69-5.23-1.94-5.94-5.87-.36-2-.71-4-1.07-6a27.09,27.09,0,0,0-1.59,6.92c-.21,2.38-1.63,3.51-3.58,4.27-1,.37-2,.59-3.64,1.05,1.19.36,1.86.59,2.54.76C345.17,241.52,347,243,347.18,246.22ZM182.73,434.52c-1.47,0-2,1-2,2.39a2,2,0,0,0,2.19,2.24,1.85,1.85,0,0,0,2-2.15C184.82,435.63,184.26,434.53,182.73,434.52Zm405.28,0c-1.51.09-2.06,1.19-2.09,2.6s.92,2.2,2.09,2c.91-.19,1.66-1.18,2.47-1.82C590.09,435.42,589.47,434.45,588,434.53ZM184.09,425.2a2.51,2.51,0,0,0-2.38-.2,3.5,3.5,0,0,0-.67,2.75c.4,1.56,1.79,1.44,3.27,1.05A2.52,2.52,0,0,0,184.09,425.2ZM587.51,312.93c.49.46,2,.63,2.37.26a3.49,3.49,0,0,0,.76-2.72c-.37-1.56-1.76-1.49-3.25-1.13A2.49,2.49,0,0,0,587.51,312.93ZM184.9,313a2.46,2.46,0,0,0,.13-3.62c-1.43-.36-2.82-.46-3.21,1.1a3.49,3.49,0,0,0,.7,2.74A2.49,2.49,0,0,0,184.9,313ZM589.82,425.45c-.88-1-2-1.37-3-.34a2.48,2.48,0,0,0-.21,3.65C589.51,429.38,590.35,428.52,589.82,425.45Zm-405,21.09a2,2,0,0,0-4,0c-.49,1.45.46,2.31,2,2.68C184.32,448.84,185.28,448,184.81,446.54Zm403.32-1.63a2.73,2.73,0,0,0-2.08,1.52c-.49,1.51.43,2.46,2,2.76,1.44-.27,2.44-1.09,2-2.55A2.77,2.77,0,0,0,588.13,444.91ZM441.61,43.29c0-1.25-.68-2.29-2.09-2a8.44,8.44,0,0,0-2.37,1.34l-.06,1c.84.63,1.6,1.63,2.53,1.82C440.93,45.66,441.65,44.56,441.61,43.29ZM332.1,702.64a1.89,1.89,0,0,0-2.06,2.13c0,1.25.6,2.15,2.75,2.12.29-.38,1.21-1.06,1.32-1.86A2,2,0,0,0,332.1,702.64Zm106.7,0a1.94,1.94,0,0,0-2.05,2.34c.1.8,1,1.5,1.25,1.89,2.15.08,2.78-.79,2.81-2A1.9,1.9,0,0,0,438.8,702.64ZM332.59,45.45c1.48.17,2.13-.76,2.5-2.73a6.37,6.37,0,0,0-1.92-1.43c-1.31-.39-2.17.44-2.32,1.74A1.94,1.94,0,0,0,332.59,45.45Zm-109.86.27.89,0c.54-.77,1.43-1.49,1.55-2.32a1.81,1.81,0,0,0-2-2.11c-1.36,0-2.22.91-2,2.18C221.28,44.27,222.17,45,222.73,45.72ZM588.69,174c.87-.08,1.66-.95,2.49-1.46l0-1c-.79-.57-1.59-1.58-2.37-1.56a2.87,2.87,0,0,0-2,1.82A1.69,1.69,0,0,0,588.69,174Zm-407.43-1.47c.82.52,1.62,1.39,2.48,1.47a1.7,1.7,0,0,0,1.87-2.16,2.89,2.89,0,0,0-2-1.83c-.78,0-1.58,1-2.38,1.56Zm71.25-126.8h.94c.54-.82,1.53-1.68,1.47-2.47a2.91,2.91,0,0,0-2-1.88,1.68,1.68,0,0,0-2,2.06C251.09,44.24,252,45,252.51,45.71Zm9.77,0,1,0c.59-.79,1.62-1.56,1.63-2.35a2.91,2.91,0,0,0-1.79-2,1.68,1.68,0,0,0-2.19,1.81C261,44,261.79,44.84,262.28,45.68Zm10,0,1,0c.57-.79,1.6-1.58,1.59-2.37s-1-1.77-1.82-2a1.68,1.68,0,0,0-2.16,1.84C270.9,44.06,271.76,44.86,272.26,45.69Zm10.14,0,.89,0c.53-.78,1.41-1.51,1.51-2.35a1.79,1.79,0,0,0-2.08-2.06c-1.36.06-2.2.93-2,2.2C280.93,44.3,281.83,45,282.4,45.72ZM184.81,625.94a1.69,1.69,0,0,0-1.91-2.12c-.86.1-1.63,1-2.45,1.53v1c.8.55,1.63,1.54,2.41,1.51A2.9,2.9,0,0,0,184.81,625.94ZM302.2,45.71h.9c.55-.76,1.46-1.47,1.58-2.3a1.81,1.81,0,0,0-2-2.13c-1.35,0-2.22.88-2,2.15C300.78,44.25,301.66,45,302.2,45.71ZM586,625.86a2.92,2.92,0,0,0,1.87,2c.78.07,1.65-.89,2.48-1.4l0-1c-.8-.57-1.53-1.5-2.39-1.63A1.69,1.69,0,0,0,586,625.86ZM588.74,164c.86-.09,1.64-1,2.45-1.52v-1c-.8-.55-1.63-1.55-2.41-1.51a2.88,2.88,0,0,0-1.95,1.87A1.68,1.68,0,0,0,588.74,164ZM450.4,45.7c.53-.77,1.39-1.48,1.52-2.32a1.69,1.69,0,0,0-2-2A2.9,2.9,0,0,0,448,43.26c0,.78,1,1.63,1.5,2.45Zm9.94,0c.53-.76,1.4-1.48,1.52-2.31a1.68,1.68,0,0,0-2-2,2.89,2.89,0,0,0-1.95,1.91c-.05.78,1,1.63,1.5,2.45ZM183.19,159.6c-.54.81-1.52,1.64-1.49,2.43a2.85,2.85,0,0,0,1.82,2,1.69,1.69,0,0,0,2.1-1.93c-.12-.88-1-1.66-1.5-2.48Zm297-113.88c.56-.76,1.45-1.45,1.6-2.28a1.69,1.69,0,0,0-2-2.09c-.8.15-1.95,1.15-2,1.85s.91,1.66,1.43,2.5ZM183.74,303.18A1.69,1.69,0,0,0,185.6,301a2.88,2.88,0,0,0-2-1.83c-.78,0-1.58,1-2.38,1.55l0,1C182.08,302.23,182.88,303.11,183.74,303.18Zm405-9.93c.87-.12,1.62-1,2.43-1.57v-1c-.82-.53-1.67-1.51-2.44-1.46a2.88,2.88,0,0,0-1.93,1.9A1.69,1.69,0,0,0,588.77,293.25Zm-.08-153.08a2.94,2.94,0,0,0-1.86,2,1.69,1.69,0,0,0,2,2c.85-.14,1.58-1.07,2.36-1.66l0-1C590.34,141,589.46,140.09,588.69,140.17ZM182.81,637.75a2.9,2.9,0,0,0,2-1.82,1.7,1.7,0,0,0-1.86-2.17c-.86.07-1.66.94-2.48,1.46l0,1C181.23,636.76,182,637.77,182.81,637.75ZM588.74,223.67c.86-.09,1.64-1,2.45-1.52v-1c-.81-.54-1.63-1.53-2.41-1.5a2.93,2.93,0,0,0-2,1.88A1.69,1.69,0,0,0,588.74,223.67Zm-.84,414.08c.77.08,1.65-.88,2.48-1.38,0-.32,0-.64,0-1-.79-.58-1.52-1.51-2.38-1.65a1.68,1.68,0,0,0-2,2A2.9,2.9,0,0,0,587.9,637.75ZM183.63,144.17a1.7,1.7,0,0,0,2-2,2.89,2.89,0,0,0-1.89-2c-.77-.07-1.64.9-2.46,1.41l0,1C182,143.11,182.77,144,183.63,144.17ZM586.84,132.1a1.68,1.68,0,0,0,1.89,2.12c.87-.09,1.64-1,2.46-1.51v-1c-.8-.54-1.63-1.54-2.4-1.51A2.92,2.92,0,0,0,586.84,132.1ZM182.62,647.72a1.77,1.77,0,0,0,2.26-1.8,1.84,1.84,0,0,0-1.91-2.23c-.83,0-1.63.83-2.45,1.28,0,.29-.07.59-.11.89C181.14,646.51,181.78,647.5,182.62,647.72Zm-.2,5.51c-.55.81-1.54,1.64-1.52,2.43a2.87,2.87,0,0,0,1.81,2,1.67,1.67,0,0,0,2.12-1.89c-.13-.89-1-1.69-1.49-2.52Zm405.46,10.35a1.69,1.69,0,0,0-1.84,2.18,2.93,2.93,0,0,0,2,1.81c.78,0,1.57-1,2.36-1.58l0-1C589.55,664.51,588.75,663.64,587.88,663.58ZM183,564.18c-.83,0-1.63.83-2.45,1.27,0,.3-.07.6-.11.9.73.65,1.37,1.64,2.21,1.86a1.77,1.77,0,0,0,2.26-1.8A1.84,1.84,0,0,0,183,564.18ZM588.82,269.37a2.88,2.88,0,0,0-2,1.84,1.69,1.69,0,0,0,1.87,2.16c.86-.08,1.65-1,2.47-1.48l0-1C590.41,270.36,589.6,269.35,588.82,269.37ZM185.61,271.3a2.92,2.92,0,0,0-1.91-1.93c-.78-.05-1.63.92-2.45,1.45v1c.8.56,1.55,1.47,2.41,1.59A1.69,1.69,0,0,0,185.61,271.3ZM591.18,111.77c-.82-.52-1.69-1.48-2.46-1.42a2.93,2.93,0,0,0-1.89,2,1.69,1.69,0,0,0,2,2c.86-.13,1.6-1,2.4-1.62ZM183.77,263.43a1.7,1.7,0,0,0,1.84-2.19,2.91,2.91,0,0,0-2-1.8c-.78,0-1.58,1-2.36,1.58l0,1C182.09,262.5,182.9,263.36,183.77,263.43Zm407.42-12.52c-.83-.51-1.69-1.48-2.47-1.41a2.91,2.91,0,0,0-1.89,1.94,1.69,1.69,0,0,0,2,2.05c.86-.13,1.61-1.05,2.4-1.62C591.2,251.55,591.2,251.23,591.19,250.91Zm-407.42,2.58a1.69,1.69,0,0,0,1.83-2.19,2.88,2.88,0,0,0-2-1.8c-.78,0-1.58,1-2.36,1.58l0,1C182.09,252.56,182.9,253.43,183.77,253.49Zm403.07-12.07a1.68,1.68,0,0,0,1.89,2.13c.86-.09,1.64-1,2.46-1.5v-1c-.8-.55-1.62-1.55-2.39-1.52A2.88,2.88,0,0,0,586.84,241.42Zm-401.23.05a2.91,2.91,0,0,0-1.92-1.91c-.77-.05-1.62.92-2.44,1.45,0,.32,0,.64,0,1,.8.56,1.56,1.47,2.42,1.58A1.69,1.69,0,0,0,185.61,241.47Zm0-129.22a2.92,2.92,0,0,0-1.94-1.9c-.78,0-1.61,1-2.43,1.48v1c.81.54,1.58,1.44,2.44,1.55A1.7,1.7,0,0,0,185.61,112.25Zm0-9.86a2.92,2.92,0,0,0-1.86-2c-.78-.07-1.66.88-2.49,1.39l0,1c.78.58,1.51,1.51,2.37,1.65A1.68,1.68,0,0,0,185.61,102.39Zm403.12-7.92c.86-.09,1.64-1,2.46-1.51,0-.32,0-.64,0-1-.81-.55-1.63-1.56-2.41-1.53a2.88,2.88,0,0,0-2,1.87A1.68,1.68,0,0,0,588.73,94.47Zm-403.12-2a2.9,2.9,0,0,0-1.86-2c-.77-.09-1.65.87-2.49,1.37l0,1c.78.58,1.51,1.52,2.36,1.66A1.69,1.69,0,0,0,185.61,92.46ZM588.7,80.54a2.91,2.91,0,0,0-1.87,2,1.69,1.69,0,0,0,2,2c.86-.14,1.58-1.07,2.37-1.64l0-1C590.35,81.42,589.47,80.46,588.7,80.54ZM185.62,221.74c-.12-.88-1-1.66-1.5-2.49h-.92c-.55.81-1.53,1.63-1.5,2.42a2.85,2.85,0,0,0,1.82,2A1.69,1.69,0,0,0,185.62,221.74Zm0-139.26a2.89,2.89,0,0,0-1.89-1.94c-.77-.07-1.64.9-2.46,1.41l0,1c.8.57,1.54,1.49,2.4,1.62A1.69,1.69,0,0,0,185.61,82.48ZM538.86,45.7l.89,0c.57-.75,1.46-1.43,1.62-2.25.24-1.27-.61-2.14-2-2.19a1.79,1.79,0,0,0-2.07,2.08C537.44,44.19,538.32,44.92,538.86,45.7Zm-28.85,0c.54-.77,1.41-1.48,1.54-2.31a1.68,1.68,0,0,0-2-2,2.9,2.9,0,0,0-2,1.89c-.05.79.95,1.64,1.49,2.47Zm-10,0c.55-.8,1.46-1.54,1.59-2.4a1.66,1.66,0,0,0-2-2,2.87,2.87,0,0,0-1.94,1.87c-.06.79.9,1.65,1.42,2.47Zm-9.88,0c.54-.81,1.42-1.57,1.53-2.43a1.67,1.67,0,0,0-2.08-1.93,2.89,2.89,0,0,0-1.9,1.92c0,.79.95,1.62,1.5,2.43Zm-267.3,656.7-.89,0c-.56.75-1.46,1.43-1.61,2.26-.24,1.27.62,2.13,2,2.18a1.8,1.8,0,0,0,2.06-2.09C224.26,703.91,223.38,703.18,222.84,702.41Zm9,0c-.56.75-1.44,1.44-1.6,2.27a1.69,1.69,0,0,0,2,2.09,2.88,2.88,0,0,0,2-1.84c.07-.79-.91-1.66-1.43-2.5Zm29.67,0c-.51.82-1.37,1.62-1.44,2.49a1.68,1.68,0,0,0,2.15,1.85,2.87,2.87,0,0,0,1.82-2c0-.78-1-1.58-1.57-2.37Zm9.89,0c-.49.83-1.33,1.64-1.39,2.51a1.68,1.68,0,0,0,2.18,1.81,2.89,2.89,0,0,0,1.8-2c0-.78-1-1.56-1.63-2.35Zm19.92,0c-.5.83-1.36,1.63-1.44,2.5a1.69,1.69,0,0,0,2.16,1.85,2.89,2.89,0,0,0,1.82-2c0-.78-1-1.58-1.58-2.37Zm10,0c-.53.77-1.4,1.49-1.52,2.32a1.69,1.69,0,0,0,2,2,2.89,2.89,0,0,0,1.95-1.91c.05-.78-1-1.63-1.5-2.45ZM586,456.94a2.88,2.88,0,0,0,1.92,1.91c.77.06,1.62-.92,2.44-1.45v-1c-.8-.55-1.56-1.46-2.42-1.57A1.69,1.69,0,0,0,586,456.94ZM180.47,467.42c.83.5,1.72,1.46,2.49,1.37a2.88,2.88,0,0,0,1.85-2,1.68,1.68,0,0,0-2-2c-.86.14-1.58,1.08-2.37,1.66Zm407.44-2.62A1.69,1.69,0,0,0,586,467a2.9,2.9,0,0,0,2,1.83c.78,0,1.59-1,2.38-1.54,0-.32,0-.64,0-1C589.57,465.76,588.78,464.88,587.91,464.8Zm-405,13.93a2.88,2.88,0,0,0,1.88-1.94,1.69,1.69,0,0,0-2-2.05c-.86.12-1.6,1.05-2.39,1.61,0,.32,0,.65,0,1C181.29,477.83,182.15,478.8,182.93,478.73Zm407.45-2.55c-.83-.51-1.64-1.38-2.5-1.44a1.7,1.7,0,0,0-1.84,2.19,2.91,2.91,0,0,0,2,1.8c.78,0,1.57-1,2.36-1.58C590.41,476.82,590.39,476.5,590.38,476.18Zm.8-265c-.82-.52-1.69-1.48-2.46-1.42a3,3,0,0,0-1.89,1.95,1.69,1.69,0,0,0,2,2.05c.86-.13,1.6-1.05,2.4-1.62ZM312.34,702.42l-.9,0c-.57.74-1.48,1.41-1.65,2.23-.27,1.27.59,2.14,1.93,2.22a1.8,1.8,0,0,0,2.1-2.05C313.73,704,312.86,703.2,312.34,702.42Zm134.77,2.28a2.83,2.83,0,0,0,1.85,2c.79.08,1.69-.87,2.54-1.38l0-.91c-.75-.57-1.43-1.43-2.26-1.62A1.7,1.7,0,0,0,447.11,704.7ZM180.46,487.27c.83.51,1.7,1.48,2.48,1.41a2.92,2.92,0,0,0,1.87-2,1.69,1.69,0,0,0-2-2c-.86.13-1.59,1.06-2.38,1.63C180.45,486.63,180.45,487,180.46,487.27ZM459.52,702.4h-.95c-.54.82-1.52,1.65-1.48,2.44s1.1,1.73,1.89,1.92a1.67,1.67,0,0,0,2.08-1.93C461,704,460.06,703.21,459.52,702.4ZM182.39,494.22c-.54.81-1.52,1.65-1.49,2.44a2.85,2.85,0,0,0,1.83,2,1.68,1.68,0,0,0,2.1-1.92c-.14-.89-1-1.67-1.51-2.5Zm306.9,208.17h-.9c-.54.78-1.43,1.5-1.54,2.33a1.8,1.8,0,0,0,2,2.1c1.35,0,2.22-.9,2-2.17C490.73,703.84,489.85,703.14,489.29,702.39Zm7.51,2.34a2.85,2.85,0,0,0,1.87,2c.79.07,1.68-.89,2.53-1.4l0-.92c-.75-.55-1.45-1.41-2.28-1.59A1.7,1.7,0,0,0,496.8,704.73Zm12.37-2.34-.9,0c-.54.77-1.43,1.49-1.55,2.32a1.8,1.8,0,0,0,2,2.1c1.35-.05,2.22-.89,2-2.17C510.61,703.84,509.72,703.14,509.17,702.39ZM588,508.55c.77,0,1.59-1,2.39-1.53l0-1c-.82-.53-1.6-1.41-2.46-1.49A1.69,1.69,0,0,0,586,506.7,2.91,2.91,0,0,0,588,508.55ZM529.07,702.4h-1c-.53.82-1.51,1.66-1.46,2.45a2.86,2.86,0,0,0,1.91,1.9,1.67,1.67,0,0,0,2.06-2C530.51,704,529.62,703.2,529.07,702.4Zm9.88,0-1,0c-.51.83-1.47,1.7-1.4,2.48a2.88,2.88,0,0,0,2,1.86,1.68,1.68,0,0,0,2-2C540.43,703.91,539.52,703.18,539,702.39Zm49.83-399.2c.86-.12,1.62-1,2.42-1.58,0-.32,0-.64,0-1-.81-.53-1.66-1.51-2.44-1.45a2.89,2.89,0,0,0-1.92,1.9A1.69,1.69,0,0,0,588.78,303.19ZM182.92,518.49a2.89,2.89,0,0,0,1.89-1.94,1.68,1.68,0,0,0-2-2.06c-.86.13-1.61,1-2.4,1.62l0,1C181.28,517.59,182.15,518.56,182.92,518.49Zm0,5.94c-.87.08-1.66,1-2.49,1.47,0,.33,0,.65,0,1,.79.56,1.6,1.57,2.38,1.55a2.89,2.89,0,0,0,2-1.84A1.69,1.69,0,0,0,183,524.43ZM586,526.59a2.91,2.91,0,0,0,2,1.84c.77,0,1.58-1,2.38-1.55l0-1c-.83-.52-1.62-1.4-2.48-1.48A1.7,1.7,0,0,0,586,526.59Zm1.89,11.77c.77.07,1.63-.9,2.46-1.41l0-1c-.79-.56-1.54-1.48-2.39-1.61a1.69,1.69,0,0,0-2,2A2.89,2.89,0,0,0,587.93,538.36Zm.9-348.5a2.89,2.89,0,0,0-2,1.84,1.69,1.69,0,0,0,1.86,2.16c.86-.08,1.66-1,2.48-1.47l0-1C590.41,190.86,589.61,189.84,588.83,189.86ZM182.92,548.31a2.89,2.89,0,0,0,1.89-1.95,1.69,1.69,0,0,0-2-2.05c-.86.13-1.61,1.05-2.4,1.61,0,.32,0,.64,0,1C181.28,547.4,182.15,548.37,182.92,548.31Zm405,0c.78.06,1.64-.9,2.47-1.41,0-.33,0-.65,0-1-.79-.57-1.53-1.49-2.39-1.62a1.69,1.69,0,0,0-2,2.05A2.92,2.92,0,0,0,587.92,548.31Zm-403.11,8.06a1.68,1.68,0,0,0-1.9-2.12c-.86.09-1.64,1-2.45,1.52,0,.32,0,.64,0,1,.8.54,1.63,1.54,2.4,1.5A2.88,2.88,0,0,0,184.81,556.37Zm403.24-2.12a1.69,1.69,0,0,0-2,2,2.88,2.88,0,0,0,1.86,2c.77.08,1.65-.87,2.48-1.38l0-1C589.63,555.32,588.9,554.39,588.05,554.25ZM181.26,192.38c.82.52,1.61,1.4,2.47,1.48a1.7,1.7,0,0,0,1.88-2.16,2.93,2.93,0,0,0-2-1.84c-.78,0-1.59,1-2.39,1.55Zm1.67,385.74a2.87,2.87,0,0,0,1.88-2,1.68,1.68,0,0,0-2-2c-.86.13-1.6,1-2.39,1.62,0,.32,0,.64,0,1C181.29,577.22,182.15,578.19,182.93,578.12ZM586,586.19a2.91,2.91,0,0,0,2,1.87c.78,0,1.61-1,2.42-1.5,0-.32,0-.65,0-1-.81-.54-1.59-1.43-2.45-1.52A1.69,1.69,0,0,0,586,586.19ZM182.9,594c-.86.09-1.63,1-2.45,1.52v1c.8.54,1.63,1.54,2.41,1.5a2.88,2.88,0,0,0,1.95-1.88A1.68,1.68,0,0,0,182.9,594Zm-.28,14a1.78,1.78,0,0,0,2.26-1.81,1.83,1.83,0,0,0-1.91-2.22c-.83,0-1.63.82-2.45,1.27l-.11.89C181.14,606.75,181.78,607.74,182.62,608ZM586,606a2.89,2.89,0,0,0,1.91,1.92c.78,0,1.63-.93,2.45-1.45v-1c-.8-.55-1.55-1.46-2.41-1.58A1.69,1.69,0,0,0,586,606Zm2,11.86c.78,0,1.6-1,2.41-1.52l0-1c-.81-.54-1.59-1.43-2.45-1.52A1.69,1.69,0,0,0,586,616,2.94,2.94,0,0,0,588,617.88ZM185.62,182c-.12-.88-1-1.66-1.5-2.49h-.93c-.54.81-1.52,1.64-1.49,2.43a2.82,2.82,0,0,0,1.82,2A1.69,1.69,0,0,0,185.62,182Zm47-136.28h.94c.55-.82,1.55-1.67,1.5-2.45s-1.15-1.74-1.95-1.91a1.69,1.69,0,0,0-2,2C231.2,44.22,232.06,44.94,232.6,45.7Zm9.93,0h1c.54-.81,1.54-1.64,1.5-2.43a2.87,2.87,0,0,0-1.88-1.93,1.68,1.68,0,0,0-2.1,1.92C241.12,44.13,242,44.9,242.53,45.7Zm49.82,0,.89,0c.53-.78,1.4-1.52,1.5-2.35a1.8,1.8,0,0,0-2.09-2.06c-1.34.07-2.21.93-1.94,2.2C290.88,44.31,291.78,45,292.35,45.72Zm19.66,0,.95,0c.58-.79,1.61-1.6,1.6-2.39a2.92,2.92,0,0,0-1.88-2,1.69,1.69,0,0,0-2.1,2C310.68,44.15,311.51,44.9,312,45.69Zm10.15,0,.9,0c.52-.78,1.39-1.52,1.49-2.35a1.79,1.79,0,0,0-2.08-2.06c-1.35.07-2.2.94-2,2.2C320.69,44.31,321.59,45,322.16,45.72Zm148.07,0c.55-.76,1.43-1.46,1.57-2.29a1.69,1.69,0,0,0-2-2.07c-.79.16-1.93,1.18-2,1.88s.94,1.64,1.47,2.47ZM182.94,584.07c-.86.08-1.66,1-2.48,1.48l0,1c.79.55,1.6,1.56,2.38,1.54a2.91,2.91,0,0,0,2-1.84A1.68,1.68,0,0,0,182.94,584.07Zm.81-290.82a1.69,1.69,0,0,0,1.85-2.17,2.86,2.86,0,0,0-2-1.82c-.77,0-1.58,1-2.37,1.55l0,1C182.09,292.3,182.88,293.17,183.75,293.25Zm405-63.63a2.92,2.92,0,0,0-2,1.86,1.69,1.69,0,0,0,1.9,2.13c.86-.08,1.64-1,2.46-1.5,0-.33,0-.65,0-1C590.4,230.59,589.58,229.59,588.8,229.62Zm2.39,51.15c-.81-.53-1.66-1.51-2.44-1.46a2.92,2.92,0,0,0-1.92,1.92,1.69,1.69,0,0,0,1.95,2.08c.86-.12,1.62-1,2.42-1.58Zm-407.6,2.54a1.69,1.69,0,0,0,2-2,2.9,2.9,0,0,0-1.85-2c-.77-.09-1.66.86-2.49,1.35,0,.32,0,.64,0,1C182,282.22,182.73,283.16,183.59,283.31Zm97.79,419.11c-.5.84-1.34,1.65-1.4,2.52a1.68,1.68,0,0,0,2.18,1.82,2.89,2.89,0,0,0,1.79-2c0-.78-1-1.56-1.61-2.34Zm309-136.74c-.82-.52-1.6-1.4-2.46-1.49a1.69,1.69,0,0,0-1.89,2.14,2.93,2.93,0,0,0,2,1.86c.77,0,1.59-1,2.39-1.54C590.4,566.33,590.4,566,590.39,565.68Zm-1.68-461.27c.86-.08,1.65-1,2.48-1.49,0-.32,0-.64,0-1-.8-.56-1.61-1.57-2.39-1.54a2.88,2.88,0,0,0-2,1.84A1.69,1.69,0,0,0,588.71,104.41ZM322.42,702.46l-.93-.09c-.62.77-1.69,1.53-1.71,2.3a2.91,2.91,0,0,0,1.78,2.08,1.68,1.68,0,0,0,2.19-1.85C323.7,704.06,322.89,703.27,322.42,702.46Zm266.4-443a2.86,2.86,0,0,0-2,1.84,1.69,1.69,0,0,0,1.87,2.15c.86-.08,1.65-1,2.47-1.48l0-1C590.41,260.42,589.6,259.41,588.82,259.44ZM183,613.88c-.83,0-1.63.82-2.44,1.27l-.12.89c.73.65,1.37,1.64,2.21,1.87a1.78,1.78,0,0,0,2.26-1.81A1.83,1.83,0,0,0,183,613.88ZM181.24,232c.79.56,1.53,1.49,2.39,1.62a1.69,1.69,0,0,0,2-2.06,2.91,2.91,0,0,0-1.89-1.94c-.78-.07-1.64.9-2.46,1.42Zm407.45-48.08c.86-.07,1.66-.94,2.49-1.46l0-1c-.79-.56-1.59-1.58-2.37-1.56a2.87,2.87,0,0,0-2,1.82A1.69,1.69,0,0,0,588.69,183.92ZM469.48,702.4h-1c-.54.82-1.55,1.67-1.5,2.45a2.89,2.89,0,0,0,2,1.91,1.69,1.69,0,0,0,2-2C470.88,703.89,470,703.17,469.48,702.4Zm9.85,0-.95,0c-.51.83-1.48,1.69-1.42,2.47a2.9,2.9,0,0,0,2,1.87,1.68,1.68,0,0,0,2-2C480.8,703.92,479.89,703.18,479.33,702.39Zm-296.39-168c-.87.08-1.66,1-2.48,1.49,0,.32,0,.64,0,1,.8.55,1.61,1.56,2.39,1.54a2.93,2.93,0,0,0,2-1.85A1.69,1.69,0,0,0,182.94,534.37Zm.26-404.58c-.55.81-1.53,1.64-1.5,2.42a2.86,2.86,0,0,0,1.82,2,1.69,1.69,0,0,0,2.1-1.93c-.12-.88-1-1.66-1.5-2.49ZM588,578.12c.78,0,1.62-.93,2.44-1.46v-1c-.8-.55-1.56-1.45-2.42-1.56a1.69,1.69,0,0,0-1.94,2.09A2.91,2.91,0,0,0,588,578.12Zm-68.71,124.3-1,0c-.57.79-1.59,1.59-1.57,2.37a2.87,2.87,0,0,0,1.82,2,1.68,1.68,0,0,0,2.15-1.85C520.62,704,519.76,703.25,519.25,702.42ZM548.72,45.68l.93,0c.58-.79,1.62-1.6,1.6-2.38a2.93,2.93,0,0,0-1.86-2,1.69,1.69,0,0,0-2.12,1.94C547.35,44.13,548.21,44.88,548.72,45.68Zm37.32,600a2.94,2.94,0,0,0,1.85,2c.77.08,1.65-.87,2.49-1.37,0-.32,0-.64,0-1-.78-.58-1.5-1.51-2.36-1.66A1.68,1.68,0,0,0,586,645.71Zm0-148.94a2.92,2.92,0,0,0,2,1.84c.78,0,1.59-1,2.39-1.54,0-.32,0-.65,0-1-.82-.52-1.61-1.4-2.47-1.48A1.69,1.69,0,0,0,586,496.77Zm-37.52,206a1.68,1.68,0,0,0-2,2,2.83,2.83,0,0,0,2,1.88c.8,0,1.63-1,2.45-1.53l0-.91C550.1,703.75,549.37,702.93,548.52,702.8ZM528.9,45.69l.93,0c.56-.81,1.58-1.64,1.54-2.42s-1.11-1.75-1.91-1.95a1.68,1.68,0,0,0-2.06,2C527.5,44.17,528.37,44.91,528.9,45.69ZM242.11,702.86a2.87,2.87,0,0,0-1.88,2,1.7,1.7,0,0,0,2.12,1.95c.84-.17,1.54-1,2.3-1.59,0-.3,0-.6,0-.9C243.79,703.76,242.91,702.8,242.11,702.86Zm-59.21-248c-.87.1-1.64,1-2.45,1.54v1c.81.54,1.64,1.53,2.42,1.48a2.89,2.89,0,0,0,1.94-1.88A1.69,1.69,0,0,0,182.9,454.86Zm2.7-243.29a2.88,2.88,0,0,0-2-1.82c-.78,0-1.59,1-2.38,1.55l0,1c.82.51,1.62,1.39,2.49,1.47A1.69,1.69,0,0,0,185.6,211.57Zm403.14-7.77c.86-.1,1.64-1,2.45-1.53v-1c-.8-.55-1.63-1.55-2.41-1.51a2.94,2.94,0,0,0-2,1.87A1.7,1.7,0,0,0,588.74,203.8ZM586,486.73a2.91,2.91,0,0,0,1.89,1.95c.77.06,1.64-.91,2.46-1.43l0-1c-.79-.57-1.53-1.48-2.39-1.61A1.68,1.68,0,0,0,586,486.73Zm2.66-336.62a2.91,2.91,0,0,0-1.87,2,1.69,1.69,0,0,0,2,2c.86-.13,1.59-1.07,2.37-1.64l0-1C590.35,151,589.47,150,588.7,150.11ZM183.59,203.8a1.69,1.69,0,0,0,2-2,2.92,2.92,0,0,0-1.85-2c-.77-.08-1.66.86-2.49,1.36,0,.32,0,.64,0,1C182,202.71,182.73,203.65,183.59,203.8Zm-.68,300.76c-.87.09-1.64,1-2.46,1.52,0,.32,0,.65,0,1,.81.54,1.64,1.54,2.42,1.5a2.91,2.91,0,0,0,1.95-1.87A1.68,1.68,0,0,0,182.91,504.56ZM520,45.7c.53-.81,1.4-1.59,1.5-2.45a1.68,1.68,0,0,0-2.11-1.9,2.88,2.88,0,0,0-1.87,1.95c0,.78,1,1.6,1.53,2.41Zm68.8,74.59a2.91,2.91,0,0,0-2,1.88,1.7,1.7,0,0,0,1.91,2.12c.87-.1,1.64-1,2.45-1.53,0-.32,0-.64,0-1C590.4,121.25,589.57,120.25,588.79,120.29Zm-.86,537.34c.77.06,1.64-.9,2.46-1.42,0-.32,0-.64,0-1-.79-.57-1.54-1.48-2.4-1.61a1.68,1.68,0,0,0-2,2.05A2.89,2.89,0,0,0,587.93,657.63Zm0-139.14c.77.06,1.63-.9,2.46-1.41,0-.33,0-.65,0-1-.79-.57-1.53-1.49-2.39-1.62a1.7,1.7,0,0,0-2,2.06A2.91,2.91,0,0,0,587.93,518.49Zm-405,149.08a2.89,2.89,0,0,0,1.89-1.94,1.68,1.68,0,0,0-2-2c-.86.12-1.61,1-2.4,1.61,0,.32,0,.64,0,1C181.28,666.67,182.15,667.63,182.92,667.57ZM185.61,152a2.89,2.89,0,0,0-2-1.86c-.78,0-1.6,1-2.4,1.52,0,.32,0,.64,0,1,.82.54,1.6,1.43,2.47,1.51A1.69,1.69,0,0,0,185.61,152Zm-4.35-29.17c.82.52,1.61,1.41,2.47,1.49a1.7,1.7,0,0,0,1.88-2.16,2.93,2.93,0,0,0-2-1.84c-.78,0-1.59,1-2.39,1.54Zm70.42,579.6c-.54.77-1.4,1.49-1.53,2.32a1.69,1.69,0,0,0,2,2c.79-.17,1.91-1.21,1.95-1.91s-1-1.63-1.51-2.45ZM586,596.17a2.91,2.91,0,0,0,2,1.83c.77,0,1.58-1,2.37-1.55,0-.33,0-.65,0-1-.83-.52-1.62-1.39-2.49-1.46A1.69,1.69,0,0,0,586,596.17ZM391.47,464.32a17,17,0,0,0,2.26-8.15c0-6.74-1.51-11.7-4.23-14.91-3-3.52-6.79-3.55-9.77-.07-4.77,5.54-5.79,16.8-2.1,23.06C381,470,388,470,391.47,464.32Zm-13.18-10.79c.2-5.08,1.17-10,6.19-13,4.48,2.32,5.7,6.35,6.17,10.61.55,5.05.22,10-3.93,13.69.2-3.85,4.08-6.53,3.16-11.14l-2.94.89c-.66-3,.61-6.64-2.41-9.49-2.81,2.93-1.78,6.43-2.29,9.54l-2.86-1c-1,4.58,2.77,7.38,3.07,11.21C378.92,461.92,378.12,457.81,378.29,453.53ZM376.94,513c.67,0,1.4-.93,2.65-1.86-1.31-.84-2.1-1.76-2.77-1.67a1.77,1.77,0,0,0,.12,3.53Zm5.57,2.79c.44-.74,1.25-1.51,1.21-2.23s-1-1.21-1.58-1.81c-.6.65-1.56,1.24-1.69,2s.79,1.35,1.24,2Zm9.8-2.83c.51.1,1.21-.81,2.24-1.59-1-.77-1.7-1.67-2.22-1.58s-1.22,1-1.82,1.55C391.1,511.88,391.63,512.79,392.31,512.92Zm-4.57,2.43c.56-.63,1.41-1.19,1.56-1.9.12-.53-.69-1.25-1.42-2.42-.84,1.19-1.7,1.88-1.66,2.52S387.2,514.75,387.74,515.35Zm-7.33-230.17c2.74,2.63,5.42,2.65,8.22.1a12.14,12.14,0,0,0,1.88-2.28c2.43-3.66,3.17-7.78,3.27-12.84a41.15,41.15,0,0,0-.65-4.54,15.69,15.69,0,0,0-1.67-4.21c-3.46-5.81-10.61-5.73-13.89.19-2.53,4.55-2.54,9.49-1.63,14.47A16.17,16.17,0,0,0,380.41,285.18Zm2.37-24.95c-.5,4.25-4.45,7.15-3.4,11.83l2.86-1c.48,3.12-.43,6.54,2.28,9.59,3-2.81,1.85-6.39,2.39-9.6l3.19,1.18a16.8,16.8,0,0,0-.44-3.93c-.69-1.78-1.73-3.42-2.55-5.15a6.11,6.11,0,0,1-.57-2.45c4.32,3.64,4.52,8.58,4.16,13.64-.37,5.26-2.8,9.32-6.37,10.62-4.58-2.48-5.62-7-6-11.67S378.63,263.94,382.78,260.23Zm-6.42-47.9c-.43.76-1.24,1.54-1.18,2.26s1.21,1.72,1.63,1.62a2.7,2.7,0,0,0,1.81-1.77c.06-.65-.92-1.41-1.45-2.12Zm6.12,1.9c.45-.67,1.34-1.41,1.24-2-.13-.74-1.05-1.34-1.63-2-.58.59-1.59,1.14-1.64,1.77s.76,1.47,1.2,2.22Zm5.41-.41c.32.15,1.15-.8,2.15-1.54-1-.86-1.6-1.72-2.29-1.81-.47-.07-1.63,1.1-1.53,1.43A3.5,3.5,0,0,0,387.89,213.82Zm5.9.6c-.15-.68-1-1.2-1.62-1.79-.55.62-1.42,1.18-1.55,1.88-.09.48.84,1.15,1.64,2.15C393,215.62,393.9,214.91,393.79,214.42Zm59.27,185.77c-4.16.82-5.93,3.63-4.85,7.71,1.92,7.29,11.36,14.48,18.93,14.44,6.46,0,10-5.9,7.11-11.64C470.76,403.88,460.4,398.75,453.06,400.19Zm11.19,6.17-.75,2.81c-3-1-5.38-4-9.08-2.83,0,2.21,1.4,3.2,2.7,4.19s2.56,1.79,3.87,2.71l-2.21,2.06c3.17,3.44,7.65,1.35,10.92,3.28-5.29,1.48-9.57-.86-13.51-3.94-3.38-2.65-6.13-5.82-5.69-10.72,4.23-2.42,8.22-1.39,12.05.44,4.56,2.18,8.49,5.06,9.89,10.93C469,412.67,468.66,407.83,464.25,406.36Zm50.15,30.17c.66.08,1.44-.84,2.17-1.32v-.81c-.73-.49-1.5-1.4-2.17-1.34s-1.26,1.11-1.88,1.73C513.14,435.41,513.71,436.45,514.4,436.53Zm1,4c0-.71-.92-1.4-1.82-2.62-.86,1.23-1.82,2-1.68,2.53a3,3,0,0,0,1.89,1.74C514.21,442.28,515.38,441.12,515.38,440.53Zm-10.58,7.22a2.55,2.55,0,0,0,1.57,1.72c.51.13,1.26-.72,2.41-1.46-1.11-.85-1.75-1.72-2.41-1.74S504.73,447.3,504.8,447.75Zm4.05-2.49c.64.53,1.22,1.38,1.93,1.5.54.09,1.24-.74,2.44-1.54-1.31-.76-2-1.52-2.74-1.49S509.39,444.71,508.85,445.26ZM296.29,316.81a22.08,22.08,0,0,0,16.11,8.92c8.14.08,10.92-4.34,7.66-10.57a20.66,20.66,0,0,0-3.08-4.35c-3.68-4-8.13-6.8-13.65-7.43-5.16-.6-9.42,2.71-9.21,7.43A11.34,11.34,0,0,0,296.29,316.81Zm8.64,2.49c.37-1.05.65-1.81,1-2.71,2.9.86,5.23,3.88,9.15,2.69-.78-3.9-4.49-4.73-6.7-6.92l2.44-2.08a13.43,13.43,0,0,0-3.06-1.65c-1.8-.38-3.67-.41-5.51-.64a5.78,5.78,0,0,1-2.49-.82c4.89-1.44,8.95.56,12.69,3.33s6.73,6,6.44,11c-6.66,5.09-21.81-3.87-21.64-10.84C300.34,313,300.63,317.79,304.93,319.3ZM255,289.14c-.66-.11-1.48.79-2.84,1.61,1.27.94,2,1.89,2.66,1.86s1.31-1,2-1.61C256.2,290.34,255.69,289.26,255,289.14ZM253.8,285c.6.66,1.1,1.67,1.83,1.88.55.16,1.4-.69,2.75-1.44-1.25-1-1.92-1.87-2.65-1.91S254.45,284.47,253.8,285Zm3.1-4.7c.58.57,1.09,1.45,1.78,1.63s1.3-.59,2.56-1.25c-1.16-.89-1.8-1.78-2.43-1.77S257.53,279.8,256.9,280.3Zm6-4.06a2.15,2.15,0,0,0-1.57,1.46c0,.67.77,1.36,1.58,2.6.8-1.24,1.6-1.93,1.58-2.59A2.16,2.16,0,0,0,262.94,276.24Zm39.37,146.45a11.54,11.54,0,0,0,2.56-.2,22.42,22.42,0,0,0,15.64-11.82c3.15-6.05.38-10.34-7.56-10.39-6.85.73-13.57,3.71-17.57,11C292.37,416.68,296.08,422.6,302.31,422.69Zm3.38-17.29c4.23-2.19,8.6-3.81,13.47-1.16.43,5-2.32,8.13-5.72,10.77-3.94,3.06-8.21,5.44-13.52,3.9,3.31-1.83,7.73.09,11-3.19l-2-1.88c2-1.9,4.1-3.79,6.1-5.73.22-.21.14-.73.25-1.42-3.74-1.09-6.16,1.8-9.15,2.86-.2-.82-.37-1.57-.54-2.3-1.67-.52-2.53.46-3.25,1.47-1.15,1.62-2.15,3.34-3.24,5-.39.59-.86,1.12-1.4,1.81C297.42,412.18,300.66,408,305.69,405.4ZM257,435.21c.13-.63-.75-1.45-1.54-2.79-1,1.25-2,1.95-2,2.62a2.47,2.47,0,0,0,1.67,1.81A2.5,2.5,0,0,0,257,435.21Zm-.9,4a2.82,2.82,0,0,0-1.86,1.73c-.13.51.84,1.31,1.7,2.5.89-1.2,1.78-1.9,1.82-2.64C257.8,440.24,256.6,439.11,256.12,439.2Zm5.61,9.1a2.14,2.14,0,0,0,1.54,1.51c.66,0,1.33-.81,2.55-1.67-1.28-.78-2-1.57-2.67-1.51A2.19,2.19,0,0,0,261.73,448.3Zm-2.59-4.2a2.75,2.75,0,0,0-1.78,1.6c-.14.41.8,1.17,1.6,2.23.84-1.08,1.69-1.71,1.73-2.38C260.72,445.06,259.59,444,259.14,444.1Zm206.65-141a22.12,22.12,0,0,0-16.17,11.67c-3.39,6.2-.39,10.82,7.64,10.62a22.65,22.65,0,0,0,16.59-9.5c2.08-2.89,2.6-6.08.58-9.31S469.3,302.49,465.79,303.1Zm-1.31,17.1c-4.3,2.25-8.71,3.82-13.61,1.27-.48-5,2.34-8.14,5.7-10.81,3.87-3.08,8.14-5.24,13.31-3.91-3.29,1.72-7.51.07-10.8,3.2.86.8,1.48,1.39,2.2,2.05-2.11,2.2-5.81,2.95-6.64,6.91,3.82,1.24,6.22-1.71,9.18-2.77.24.85.45,1.63.78,2.81,4.42-1.45,4.73-6.22,7.67-8.52C473.25,313,468.67,318,464.48,320.2Zm50.23-31.4c-.62,0-1.63,1.08-1.72,1.78s.85,1.4,1.33,2.11l.83,0c.49-.73,1.43-1.51,1.35-2.16A2.5,2.5,0,0,0,514.71,288.8Zm-.69-5.64c-.74.19-1.27,1.18-1.89,1.82.62.55,1.25,1.55,1.86,1.54s1.44-.9,2.72-1.8C515.39,283.91,514.57,283,514,283.16Zm-2.93-4.62c-.74.23-1.27,1.12-1.88,1.73.59.48,1.21,1.35,1.78,1.32s1.35-.82,2.55-1.65C512.34,279.22,511.57,278.4,511.09,278.54Zm-4.27-2.67c-.67.13-1.21,1-1.8,1.58.53.56,1.05,1.56,1.6,1.58s1.35-.78,2.51-1.56C508,276.66,507.34,275.78,506.82,275.87ZM366.89,87.06a14,14,0,0,0,2.8.59c1.76,8.83,3.51,17.63,5.3,26.58a47.2,47.2,0,0,0-5.43.39c-.8.14-1.48,1-2.22,1.52a8.81,8.81,0,0,0,2.17,1.56,11.59,11.59,0,0,0,3.34.41c8.66.15,17.33.26,26,.38.47,0,1.08.12,1.36-.12.68-.59,1.67-1.37,1.65-2.05s-1.05-1.46-1.82-1.86a6.46,6.46,0,0,0-2.36-.22V87.8c.32,0,.83-.17,1.34-.21,1.57-.11,3.63.16,3.55-2.11s-2.21-2.09-3.83-2.08q-14.21.16-28.41.42a12.5,12.5,0,0,0-3.34.44c-.57.17-1.33.87-1.36,1.36S366.34,86.81,366.89,87.06Zm26.94.82V114.1H381.09c2.54-8.69,5.08-17.35,7.68-26.22Zm-9-.15c-2.32,7.5-4.56,14.71-6.95,22.4-1.6-7.76-3.09-15-4.61-22.4Z"/></svg>