<svg xmlns="http://www.w3.org/2000/svg" viewBox="0 0 750 750"><path d="M606.15,48.23a27.93,27.93,0,0,0-.44-5.33A21.88,21.88,0,0,0,583.78,25H187.25c-13.12,0-22.67,9.55-22.67,22.69V374.85q0,163.77,0,327.55a22.29,22.29,0,0,0,.15,3.17c1.77,11.88,10.72,19.43,23.07,19.43q197.57,0,395.13,0a27.15,27.15,0,0,0,5.33-.45c10.93-2.22,17.9-11.09,17.9-22.78Q606.17,375,606.15,48.23Zm-4.26,653.55c0,9.83-5.74,17-14.94,18.68a21.3,21.3,0,0,1-3.75.25H187.45c-11,0-18.59-7.57-18.59-18.6V47.57c0-9,5.41-16,13.9-17.9a18,18,0,0,1,3.94-.37q198.68,0,397.35,0a17.65,17.65,0,0,1,17.84,17.54c0,.93,0,1.85,0,2.78ZM307.8,300.08c-2.43,16.8,5.81,34.3,21.1,41.8,22.28,10.93,40.7,4.73,55.44-14.36,12.42,17.61,29,24.46,49.85,17.64,16.25-5.32,27.37-20.66,27.14-37.23-.37-26.4-15.42-39.7-40.7-43.41a40.87,40.87,0,0,0,5-29.29,39.43,39.43,0,0,0-15.9-25.09c-15.24-11.19-35-10.83-49.94.45-12.59,9.48-22.61,31.2-10.51,53.71-10.53.23-19.75,3.41-27.56,10.18A40.52,40.52,0,0,0,307.8,300.08ZM431.54,271a37,37,0,0,1-9,72.12c-14.95.82-26.29-5.63-34.35-18.17-1.65-2.56-1-4.69.39-7.14,4.46,1.61,8.65,4.72,14.08,2.65-.75,4.46-1.45,8.62-2.22,13.16l12.05-6.22c-.32,6.29,5.17,9.31,7.27,14.73,3-4.9,7.83-8.26,8.06-14.7l12.13,6.33c-.78-4.67-1.5-9-2.28-13.73,5.63,2.33,10.29-1.54,16-1.38-3.46-4.91-4.87-10.8-11.05-13.14l9.07-8.64a17.21,17.21,0,0,0-2.95-1.16c-3.41-.59-6.83-1.07-9.82-1.53.54-2.71,1.28-5.29,1.55-7.93s.06-5.23.06-8.15c-4.84,1.88-10.47,1.9-14.38,6.48-1.55-3.14-3-6.14-4.51-9.09a11.34,11.34,0,0,0-1.66-1.87l-5.91,11.73c-3.68-5.32-9.75-5.22-14.92-7.3,0,3.16-.22,6,.06,8.79a60.2,60.2,0,0,0,1.64,7.31L389,295.87a29,29,0,0,1-1.68-5.13,5.6,5.6,0,0,1,.9-3.3A37,37,0,0,1,431.54,271Zm-27.76,15.38a24.5,24.5,0,0,0,2.79,3.77,33.5,33.5,0,0,0,3.2,2.74c-1.9.29-3.5.83-5,.66a3.73,3.73,0,0,1-2.56-2,18.38,18.38,0,0,1-.95-5.39,39,39,0,0,1,.53-5.29,71.86,71.86,0,0,1,8.28,3.1c3,1.56,3.29,3.09,1.7,6.15-.24.46-.52.9-1,1.67-1-1.8-2-3.43-3-5a7,7,0,0,0-1.78-2.07,2.18,2.18,0,0,0-1.93-.05A1.75,1.75,0,0,0,403.78,286.33Zm8.36,9.05,8.15-16.29c1,1.94,1.85,3.59,2.68,5.26,1.54,3.15,3.09,6.3,4.58,9.47a3,3,0,0,0,2.67,1.95c5.21.65,10.4,1.5,15.74,2.29l-12.67,12.69c1,6,1.95,11.77,3,18l-16.08-8.46-16.15,8.34,3-17.7-12.86-13Zm23.41-10.77a2.22,2.22,0,0,0-2.08.19,39,39,0,0,0-3,4.17c-.38.56-.71,1.15-1.24,2-.88-1.79-1.57-3.18-2.28-4.61,2.84-3.71,6.7-4.62,11.06-5a55.8,55.8,0,0,1,.31,7c-.34,4.6-2.19,5.83-6.63,4.8-.44-.1-.87-.26-1.62-.48A33.39,33.39,0,0,0,433,290.2a23.75,23.75,0,0,0,2.86-3.72A2,2,0,0,0,435.55,284.61Zm2.31,25.6,3.34-2.53-.11-.57c5.12.87,6.59,5.24,8.6,9.44-3.09,1-5.87,2.51-9.15,2.23-2.38-.2-3.14-.87-3.61-3.3-.22-1.2-.48-2.4-.67-3.34,3,1.27,5.8,2.51,8.68,3.64.24.09.78-.55,1.35-1C444.61,311.11,440.7,311.9,437.86,310.21ZM418.65,331.7c.06.66.91,1.24,1.4,1.86.58-.62,1.58-1.19,1.66-1.86a29.23,29.23,0,0,0-.14-4.94c0-.83-.13-1.67-.22-2.79l4.11,2.16c1.53,2.75-1.24,8.07-5.59,11.42-2.4-3.44-6.55-6-5.21-11.3l4.4-2.38a2.9,2.9,0,0,1,.64-.12c-.3,1.27-.66,2.44-.82,3.63A19,19,0,0,0,418.65,331.7Zm-21.19-15.94c2-.62,4-1.33,6.45-2.16-.36,1.82-.63,3.2-.9,4.58-5,2.52-8.88-.07-12.85-2.3,2.46-4.54,5.65-8.78,9.56-8.14,1.54,1.48,2.84,2.73,4.28,4.13-3.47.94-7.69-1.09-10.28,2.61C394.72,316.42,396.1,316.19,397.46,315.76Zm-.4-10-7.38,5.6V297.3Zm-13.54-37.44c.14.77,1,1.41,1.59,2.11.57-.72,1.54-1.4,1.62-2.17a29.39,29.39,0,0,0-.26-4.94c-.05-.71-.14-1.42-.25-2.58,1.74,1,3,1.69,4.29,2.36.92,3.53-1.09,7.54-5.67,11.32-2.47-3.4-6.46-6-5.3-11.27l5.23-2.79c-.44,1.71-.86,2.95-1.06,4.23A11.49,11.49,0,0,0,383.52,268.33Zm1.6-11.16L369,265.52c1.07-6.21,2.07-11.95,3.09-17.82l-12.87-12.91,17.89-2.53,8.18-16.33,8.08,16.4,17.67,2.6-12.76,12.85,3,17.85Zm-23.31-4.39c1.54-.38,3-1,4.51-1.49l2.4-.77c-.26,1.69-.47,3-.65,4.23-3.52,2.33-8.81,1.36-13-2.25,3.23-5.83,6.13-8.06,9.51-7.83l4.37,3.74c0,.21-.09.42-.13.63-1.85,0-3.7-.12-5.53,0s-3.74.22-4.6,2.25C359.26,253.1,360.57,253.08,361.81,252.78Zm6.92-29.48a23,23,0,0,0,2.84,3.75,32.67,32.67,0,0,0,3.07,2.62l-5.7.94c-4.13-3.55-2.41-8-2.4-13,3.11,1.15,5.95,1.84,8.44,3.2,2.87,1.56,3.55,3,1.77,5.95-.3.51-.54,1.06-1,1.91-1-1.73-1.9-3.3-2.86-4.81a8.64,8.64,0,0,0-1.86-2.28,2.08,2.08,0,0,0-1.94-.16A1.93,1.93,0,0,0,368.73,223.3ZM398,222a38.26,38.26,0,0,0-2.59,4c-.34.53-.64,1.09-1.12,1.9l-2.34-4.53c2.71-3.9,6.77-4.57,11-5.14.16,4.3,1.75,8.69-2.29,12.37l-5.59-.87c2.23-2.45,5.33-3.84,6-7.19C400.24,220.83,399.15,220.58,398,222Zm3.14,26.44c3.35,1.57,5.64,5.32,9.86,3.75-.12-2.64-1.9-2.93-3.43-3.44s-3-.9-4.84-1.43c.46-.5.72-.8,1-1.07,2.79-2.78,4.13-2.87,6.72.18,1.72,2,2.94,4.46,4.73,7.25-3.46.76-6.29,1.62-9.19,2-2.62.29-3.6-.76-4.1-3.35C401.65,251.07,401.41,249.88,401.12,248.42Zm-53.07-5.3c-.09-19.72,15.33-35.85,35.47-37.1,18.87-1.17,36.05,13.38,38.35,32.5a36.9,36.9,0,0,1-5.74,24.85,4.89,4.89,0,0,1-3.39,2.42c-2.71.55-5.35,1.36-8.25,2.12-.64-3.59-1.28-7.11-2-11.08,5.63,2.31,10.34-1.42,16-1.42-3.37-4.8-4.78-10.66-10.74-13,2.45-3.43,6.36-5.36,8.75-9.4l-13.42-2.12c3.93-4.83,1.15-10.53,2.66-16.18-5.29,2.21-11,2.12-14.62,6.63-1.88-3.53-3.66-6.9-5.49-10.24-.07-.14-.49-.1-1-.18L379,222.12c-3.75-5.25-9.74-5.17-14.9-7.25,0,3.16-.21,6.06.06,8.91a57.2,57.2,0,0,0,1.6,7.18l-12,1.84,9.81,9.91c-6.73,1-8.29,7.27-13.08,10.63,5.81,1.92,10.48,6.2,17,4-.73,4.38-1.43,8.61-2.18,13.1l12-6.19c-.18,6.23,5.18,9.33,7.36,14.58,3.07-4.8,7.85-8.21,8-14.61l9.06,4.8c-3,2.15-5.86,4.14-8.66,6.22a12.45,12.45,0,0,0-2.73,2.59c-1.37,1.89-3.17,2.32-5.36,2.31A37.2,37.2,0,0,1,348.05,243.12Zm25.27,69a29.43,29.43,0,0,0-4.63-1.7c-.67-.23-1.37-.36-2.28-.6l3.46-3.22c3.15,0,6.95,4.24,8.15,9.59A67.44,67.44,0,0,1,370.4,318c-3.49.43-4.57-.56-5.21-4-.16-.89-.21-1.81-.36-3.24,1.66,1.16,2.84,2.1,4.13,2.86A10.77,10.77,0,0,0,372.2,315c.68.13,1.49-.43,2.24-.68C374.08,313.6,373.92,312.47,373.32,312.14Zm-11.45-1.71c.94,5.61,1.89,11.37,2.94,17.66l-16.09-8.47L332.58,328l3.07-17.85-12.56-12.93,17.59-2.49c2.79-5.59,5.44-10.89,8.17-16.34l8.06,16.41,17.68,2.63ZM349,333.09c2.81-2.92.5-6.34,1.08-9.65l3.91,2c1.14,3.44-1.17,8.07-5.61,11.39-2.38-3.44-6.53-6-5.22-11.27l5.08-2.75a53.42,53.42,0,0,0-1.15,5.71C347,330.21,346.47,332.19,349,333.09Zm-24.07-17.84a29,29,0,0,0,4.73-1.4c.79-.25,1.58-.53,2.59-.86-.36,4.88-1.14,6.31-6.46,5.31-2.51-.47-4.84-1.88-7.58-3,3.13-3.83,4.84-8.53,10-8.23l4.51,4.39c-1.37,0-2.46-.08-3.54,0a25.61,25.61,0,0,0-5.05.71c-.71.2-1.14,1.32-1.69,2C323.29,314.58,324.17,315.35,324.94,315.25Zm13.13-23.09-5.56.86c-4.18-3.56-2.44-8-2.45-12.16,4.86-.16,10.77,2.5,11.38,6l-2.06,4.22c-1.38-2.25-2.53-4.31-3.86-6.24-1.21-1.76-2.39-1.72-3.49-.06C332.62,288.19,335.67,289.64,338.07,292.16ZM364,293l-5.42-.9c1.35-1.14,2.42-1.9,3.32-2.84a13.19,13.19,0,0,0,2.38-3.11c.3-.59-.11-1.53-.19-2.31-.79.15-1.88,0-2.29.5a36.86,36.86,0,0,0-2.9,4.24c-.31.47-.57,1-1.05,1.8l-2.24-4.56c2.57-3.94,6.65-4.47,10.67-5.13C367.45,285.85,367.31,291.39,364,293ZM345.3,268.65c.66,0,1.32-.12,2-.19,3.11-.3,5.64.3,7.81,3.05,1.89,2.39,4.64,4.11,7,6.1.48.41,1,.74,1.72,1.22a44.91,44.91,0,0,0-5.05,1.86,40.49,40.49,0,0,0-4.24,2.89c-1.41-2.86-2.83-5.81-4.33-8.72a12.26,12.26,0,0,0-1.72-1.95l-5.92,11.73c-3.68-5.35-9.72-5.2-15.06-7.4.28,4.41.46,8.52.86,12.61a14.16,14.16,0,0,0,1.38,3.56l-12.17,1.76,9.37,9.3c-.09.25-.18.49-.28.74-6.15,1.08-7.81,7.15-12.51,10.58,5.7,2,10.39,6.11,17,4-.77,4.4-1.49,8.56-2.28,13.1L341,326.67c-.4,6.31,5.17,9.29,7.22,14.74,3.14-5,7.88-8.35,8.09-14.68L368.44,333c-.77-4.63-1.48-8.95-2.27-13.71,5.57,2.3,10.29-1.47,16-1.45-3.5-4.81-4.84-10.71-10.82-13,2.41-3.47,6.4-5.32,8.72-9.45l-13.28-2.07c2.53-3.62,2.35-7.64,2-11.74,3.38.88,6.6,1.61,9.71,2.63.79.25,1.4,1.35,1.9,2.18,11.55,18.77,3.49,44.22-16.74,52.94A37,37,0,0,1,311.67,306C311.19,287,326.31,270.2,345.3,268.65ZM461.53,438.43c3.13-17.85-4.36-35.22-20.3-43.42-22.33-11.5-41-5.2-55.93,14.05-12.13-17.27-28.38-24.26-48.93-18-16.55,5.06-28,20-28,37,0,26.69,15.1,40.21,40.65,44a40.8,40.8,0,0,0-5,29.11,39.69,39.69,0,0,0,15.78,25.17c14.83,11.13,34.59,11.06,49.61-.07A39.46,39.46,0,0,0,424,505.51c3.43-11.39,2.17-22.38-3.8-33.24,10.35-.18,19.3-3.2,27-9.55A39.65,39.65,0,0,0,461.53,438.43ZM337.91,465.56a37,37,0,0,1,3-71.22,37.41,37.41,0,0,1,40.65,17.36c1.54,2.63.91,4.7-.43,7.13-4.49-1.67-8.67-4.73-14.1-2.64.77-4.49,1.47-8.65,2.24-13.18l-12.07,6.22c.37-6.33-5.19-9.3-7.25-14.71-3.07,4.87-7.85,8.25-8.05,14.69l-12.14-6.34c.78,4.67,1.5,9,2.28,13.74-5.63-2.35-10.3,1.49-16,1.42,3.42,4.87,4.83,10.75,11,13.09L318,439.76a17.69,17.69,0,0,0,3,1.16c3.4.59,6.82,1.07,10.54,1.64-3.94,4.88-1.14,10.57-2.66,16.07,5.17-1.95,10.77-2.05,14.7-6.56,1.55,3.14,3,6.14,4.52,9.1a10.57,10.57,0,0,0,1.66,1.82l5.9-11.72c3.66,5.38,9.77,5.17,14.9,7.34,0-3.18.22-6.13-.07-9a52.93,52.93,0,0,0-1.65-7.09l11.84-1.76a30.68,30.68,0,0,1,1.68,5.13,5.7,5.7,0,0,1-.92,3.3A37,37,0,0,1,337.91,465.56Zm28-15.31a18.36,18.36,0,0,0-2.5-3.51,40,40,0,0,0-3.49-3c1.78-.29,3.19-.55,4.61-.75a2.53,2.53,0,0,1,2.91,1.89,24.57,24.57,0,0,1,1,5.58,28.05,28.05,0,0,1-.46,4.72c-3.85-.22-7.39-1.11-10.19-4a2.85,2.85,0,0,1-.29-3.81c.43-.73.79-1.51,1.38-2.62,1,1.8,1.92,3.37,2.89,4.88a8.12,8.12,0,0,0,1.89,2.25,2.12,2.12,0,0,0,1.93,0A1.78,1.78,0,0,0,365.88,450.25Zm-8.37-9.05c-2.77,5.55-5.37,10.75-8.14,16.28-1-1.87-1.8-3.45-2.59-5.06-1.61-3.27-3.21-6.54-4.75-9.83a2.86,2.86,0,0,0-2.57-1.77c-5.22-.68-10.41-1.51-15.76-2.3l12.68-12.67c-1-6-2-11.78-3-18l16.09,8.46L365.6,408c-1.06,6.2-2,11.91-3,17.71l12.84,13Zm-23.34,10.93c.77-.17,1.84-.08,2.26-.56a34.93,34.93,0,0,0,2.77-4.09c.32-.49.62-1,1.16-1.87l2.3,4.59c-2.81,3.76-6.73,4.57-11.32,5.06a57.37,57.37,0,0,1,.06-7.67c.56-4,1.65-4.74,5.61-4.28.76.08,1.5.31,2.59.54-1.25,1.07-2.37,1.88-3.3,2.86a12.94,12.94,0,0,0-2.37,3.12C333.64,450.42,334.06,451.36,334.17,452.13ZM325.27,424a24.68,24.68,0,0,0,4.48,1.55c.61.19,1.23.35,2.27.64l-3.56,2.7c0,.19.07.39.1.59-5.11-.88-6.58-5.25-8.58-9.45,3.19-1,6.11-2.65,9.54-2.18,1.79.24,3.11.93,3.22,3a37.77,37.77,0,0,0,.83,4.41c-1.38-1-2.27-1.73-3.25-2.3a19,19,0,0,0-4-2c-.73-.21-1.7.4-2.57.64C324.22,422.44,324.54,423.6,325.27,424ZM351,404.8c-.12-.66-1-1.19-1.48-1.78-.55.58-1.48,1.11-1.56,1.75a27.85,27.85,0,0,0,.08,4.74c0,.91.18,1.82.3,3.08L344,410.35c-.88-5.11,2.51-8.08,5.72-11.5,2.56,3.68,6.72,6.29,5.3,11.5l-5.11,2.73c.43-1.76.86-3.13,1.06-4.54A12,12,0,0,0,351,404.8Zm24.6,17c-.17-1.41-1.61-1.41-2.71-1.11-1.84.5-3.63,1.21-5.44,1.82-.43.14-.87.2-1.64.38l.8-4.41c5-2.59,8.92,0,13.13,2.43-2.88,3.55-4.59,8.24-10,8l-4.52-4.19,2.54-.2a45.24,45.24,0,0,0,6.07-.64C374.57,423.64,375.68,422.4,375.6,421.76ZM372.36,431l7.59-5.73v14.21ZM386,467.59a1.92,1.92,0,0,0-1.35-1.35,1.94,1.94,0,0,0-1.5,1.19,27.39,27.39,0,0,0-.13,4.71c0,1.1.24,2.19.41,3.67l-4.53-2.46c-.57-5.06,2.59-8.07,5.84-11.29,2.56,3.52,6.55,6.15,5.36,11.35l-5.21,2.82a35.14,35.14,0,0,0,.95-3.93A24,24,0,0,0,386,467.59Zm-1.48,11.83,16.16-8.36c-1.07,6.17-2.06,11.89-3.08,17.74l12.89,13-17.93,2.57c-2.75,5.5-5.35,10.68-8.17,16.31l-8.08-16.4-17.6-2.59L371.44,489l-3-18Zm23.25,4.39c-1.47.36-2.88.94-4.32,1.41l-2.54.83c.28-1.73.49-3.06.68-4.27,3.58-2.28,9.16-1.21,12.94,2.36-3.7,6.12-5.88,7.82-9.42,7.81L400.77,488c0-.17,0-.34.05-.5,1.85,0,3.73.13,5.57,0s3.74-.21,4.54-2.28C410.34,483.45,409,483.52,407.79,483.81Zm-6.86,29.45a24,24,0,0,0-2.85-3.74,34.34,34.34,0,0,0-3.07-2.61l5.72-.94c4.11,3.56,2.41,8,2.38,12.34-3.8-.29-7.26-1.06-10-3.71a2.82,2.82,0,0,1-.6-3.91c.48-.78.82-1.66,1.39-2.84,1.05,1.78,1.93,3.35,2.89,4.86a8.64,8.64,0,0,0,1.86,2.28,2.1,2.1,0,0,0,1.94.14A2,2,0,0,0,400.93,513.26Zm-29,1c1.19-1.64,2.18-3.44,3.43-5.45.84,1.57,1.59,3,2.27,4.22-1.32,3.17-6.62,5.19-11,5.16a49.56,49.56,0,0,1-.36-6.66c.33-4.81,2.36-6.11,7-4.84.31.08.61.2,1.15.38a43.45,43.45,0,0,0-3.56,3.21,32.33,32.33,0,0,0-2.49,3.49C369.53,515.88,370.7,516,372,514.27Zm-3.42-26.13c-3.32-1.54-5.64-5.22-10.2-3.72,1.68,4.31,5.78,3.33,8.38,4.94-3.2,4-4.76,4.17-8,.26-1.52-1.84-2.55-4.1-4.12-6.7a86.27,86.27,0,0,1,8.83-1.94c2.86-.33,3.81.65,4.38,3.49C368.05,485.61,368.27,486.74,368.54,488.14Zm52.78,1c2.43,22.38-14.94,41.9-37.22,41.37-14.57-.35-25.72-7.1-32.42-20.09-6.55-12.7-5.54-25.34,2.05-37.4a6.1,6.1,0,0,1,3.09-2.12c2.67-.88,5.44-1.48,8.36-2.24.64,3.63,1.27,7.15,2,11.09-5.66-2.32-10.36,1.46-16.06,1.38,3.44,4.84,4.82,10.75,10.79,13-2.42,3.46-6.39,5.33-8.69,9.42l13.31,2.12c-3.81,4.86-1.16,10.54-2.59,16.17,5.21-2.2,10.93-2.08,14.58-6.62,1.89,3.54,3.68,6.91,5.52,10.25.09.15.61.06,1,.09l5.63-11.16c3.73,5.31,9.74,5.19,14.9,7.28,0-3.06.2-5.82-.06-8.54A72.19,72.19,0,0,0,404,505.6L416,503.75l-9.94-9.87c6.69-1.09,8.28-7.27,13-10.64-5.79-1.93-10.47-6.19-17-4,.73-4.38,1.43-8.6,2.18-13.09l-12,6.19c.17-6.25-5.19-9.33-7.36-14.61-3.08,4.87-7.92,8.24-8,14.67l-9.1-4.84c3-2.12,5.79-4.08,8.55-6.12a10.34,10.34,0,0,0,2.46-2.29c1.7-2.47,4.05-2.81,6.79-2.67C404.35,457.43,419.37,471.16,421.32,489.15Zm-18.08-62.3-2.87,3.06c-3.53.18-6.77-3.26-8.89-9.59a86.82,86.82,0,0,1,8.82-1.81c2.5-.27,3.54.92,4,3.53.18,1.08.35,2.16.57,3.52-3.33-1.43-5.56-5.08-9.72-3.72C395.34,424,395.34,424,403.24,426.85Zm4.57-.51c-.94-5.67-1.9-11.44-3-17.84L420.94,417l16.15-8.34-3,17.7,12.59,13.06L429,441.88l-8.17,16.34c-2.48-5.05-4.9-9.92-7.25-14.83a2.85,2.85,0,0,0-2.51-1.83c-5.29-.69-10.55-1.56-15.74-2.36ZM421,403.16c-3.11,3.26-.81,6.68-1.39,10l-3.93-2.06c-1.12-3.45,1.26-8.17,5.64-11.37,2.4,3.43,6.51,6,5.21,11.26l-5,2.68C421.69,410.12,424.21,406.63,421,403.16Zm21.53,18.68c-1.62.51-3.21,1.13-4.87,1.71,0-4.16.42-5.69,4.82-5.53,3.27.12,6,1.7,8.73,3.65-2.91,3.42-4.56,8.15-9.81,7.84L437,425.36c3.53-.91,7.79,1.08,10.52-2.71C445.87,420.46,444.13,421.34,442.49,421.84ZM431.58,444.4l5.59-.83c4.14,3.58,2.44,8,2.41,12.44-4.61-.82-9.07-1.32-11.51-6.06l2.21-4.49c1.39,2.26,2.53,4.33,3.87,6.27,1.2,1.73,2.41,1.67,3.48,0C437,448.37,434,446.93,431.58,444.4Zm-26.26-.82,4.9.76c-1.38,1.62-2.82,3.16-4.1,4.83-.77,1-1.95,2.38-.56,3.46s2.53-.31,3.3-1.46c1-1.48,1.85-3,3-4.92l2.24,4.57c-2.67,3.91-6.71,4.46-11,5.15C403.05,451.66,401.38,447.3,405.32,443.58Zm14.85,24.57a6.18,6.18,0,0,1-4.65-2.08c-2.52-2.6-5.41-4.85-8.15-7.22-.43-.37-.91-.68-1.16-.86l9.07-4.65c1.25,2.51,2.67,5.47,4.17,8.38a12.11,12.11,0,0,0,1.71,1.95c2.12-4.18,4-7.87,5.93-11.74,3.66,5.36,9.71,5.21,15.17,7.46-1.37-5.55,1.27-11.22-2.63-16.17l12.79-1.89-9.88-9.88c6.58-1.13,8.25-7.19,12.94-10.68-5.68-1.92-10.34-6.1-17-4,.76-4.4,1.49-8.56,2.28-13.13l-12.12,6.26c.4-6.33-5.17-9.32-7.12-14.37-5.25,6.45-7.63,8.45-8.28,14.26l-12-6.24c.76,4.63,1.47,9,2.25,13.72-5.55-2.28-10.26,1.42-15.94,1.48,3.4,4.77,4.77,10.67,10.72,12.93-2.34,3.53-6.51,5.22-8.53,9.48l13.16,2c-2.63,3.65-2.35,7.69-2.08,11.75-3.38-.88-6.54-1.58-9.6-2.59-.84-.28-1.52-1.41-2-2.29a37.05,37.05,0,0,1,16.47-52.74c14.43-6.48,30.58-3.4,41.92,8,10.48,10.52,13.37,27.21,7.12,41.11A37.41,37.41,0,0,1,420.17,468.15ZM194.62,671.71V418.82l-4.13,3.05v253.4c12.51,2.29,20.94,8.41,21.83,22.16a12.54,12.54,0,0,0,1.46.16q58.83,0,117.66,0c3.22,0,4.43-2.46,6.3-4.35H216C213.33,681.64,206.89,673.93,194.62,671.71Zm385.77,3.8V421.87l-4.23-3.05v252.9c-12.28,2.25-18.67,10-21.38,21.69H432.84c2.47,3,5.16,4.56,9,4.24,4.34-.36,8.74-.09,13.11-.08l102,0c.57,0,1.14-.11,1.95-.19-.67-6.27,2-11,6.2-15.15A23.52,23.52,0,0,1,580.39,675.51ZM577,76.4v243l4.13-3.05V72.85c-12.5-2.31-20.93-8.43-21.83-22.3h-3.85q-57.44,0-114.87-.07c-3.42,0-4.75,2.38-6.7,4.37H555.63C558.3,66.47,564.76,74.16,577,76.4ZM191.29,316.31l4.29,3.17V76.29c11.86-2.46,16.76-7.44,21.22-21.47H339c-2.56-2.72-4.77-4.69-8.56-4.37-4.6.38-9.26.09-13.9.09l-102,0a12.21,12.21,0,0,0-1.45.15c-.91,13.75-9.33,19.88-21.83,22.18ZM415.07,76.19H355.56v49.64h59.51Zm-4.2,45.39h-51V80.38h51Zm-80.79,38c-.51-.11-1-.21-1.55-.29a34.77,34.77,0,0,1-13.64-4.6c-2.41-1.52-4.37-3.38-4.82-6.44-.72-5-1.54-9.94-2.34-14.91-.52-3.21-1.09-6.42-1.64-9.63a2.09,2.09,0,0,0-.74,1.3c-1.18,7.24-2.53,14.47-3.45,21.76a10.46,10.46,0,0,1-5.66,8.29,36.94,36.94,0,0,1-13.14,4.25c-.67.1-1.34.24-2,.37a2.25,2.25,0,0,0,1.33.6c5.32.9,10.53,2.09,15.08,5.2a8.77,8.77,0,0,1,4.16,6c.77,5.17,1.6,10.33,2.43,15.5.49,3,1,6,1.52,8.93h.49c.11-.51.24-1,.33-1.53,1.19-7.38,2.47-14.75,3.53-22.15.42-2.93,1.66-5.33,4.18-6.59a107,107,0,0,1,11.14-4.54,35.41,35.41,0,0,1,5.2-1.07C330.25,159.75,330.18,159.59,330.08,159.57Zm166,12.54a7.27,7.27,0,0,1-3.45-5.1q-.57-4-1.22-8c-.59-3.69-1.22-7.38-1.83-11.07h-.55c-.91,5.61-2.15,11.18-2.65,16.82-.44,5.08-3.22,7.74-7.57,9.35-1.61.59-3.27,1.07-4.93,1.51-1.38.36-2.79.59-4.19.87a13.1,13.1,0,0,0,2.69.83c3.19,1.07,6.42,2,9.48,3.39a7,7,0,0,1,4.17,5.68c.66,4.58,1.41,9.15,2.14,13.73.28,1.77.6,3.53.9,5.3a1.27,1.27,0,0,0,.68-.89c.93-5.75,2-11.48,2.72-17.26a8.39,8.39,0,0,1,4.71-6.85,20.45,20.45,0,0,1,3.61-1.62c2.6-.8,5.25-1.43,8.45-2.28l-2.42-.45A27.71,27.71,0,0,1,496.1,172.11ZM303.65,554.5v-.38a16.09,16.09,0,0,1-2.11-.43c-3.4-1.22-6.86-2.3-10.15-3.78a6,6,0,0,1-3.53-4.76q-.58-3.93-1.23-7.84c-.63-3.9-1.29-7.8-1.94-11.69a2.34,2.34,0,0,0-.78,1.42c-.9,5.55-1.92,11.08-2.62,16.66a8.31,8.31,0,0,1-4.72,6.84,30.65,30.65,0,0,1-4.92,2.06c-2.19.68-4.45,1.12-7.2,1.79a23.61,23.61,0,0,1,2.8.59c3.47,1.23,7,2.32,10.34,3.84,2.19,1,3.28,3.07,3.6,5.59.5,4,1.21,8,1.86,12,.36,2.23.78,4.46,1.17,6.69a3.69,3.69,0,0,0,.82-1.92c.87-5.28,1.93-10.55,2.5-15.87.42-4,2.58-6.22,5.9-7.75a29.58,29.58,0,0,1,4.26-1.61C299.66,555.35,301.66,555,303.65,554.5Zm52.44,88.42c1,4,1.59,8.05,2.51,12a7.28,7.28,0,0,0,1.65,3,2.27,2.27,0,0,0,2.1.49,2.62,2.62,0,0,0,1.11-1.86c1.42-10.53,1.13-21.13,1.09-31.72a10.22,10.22,0,0,0-.32-2.76,7.51,7.51,0,0,0-1.05-1.77l-.78.09a8.52,8.52,0,0,0-.76,2.19c-.31,6.15-.55,12.3-.78,18.45-.06,1.34,0,2.68,0,4-2-8.42-5.48-16.24-8.49-24.11-2.29.2-2.68.45-3,2.05a13.9,13.9,0,0,0-.38,3.14q.15,14.38.41,28.78a4,4,0,0,0,.3,1.94,10,10,0,0,0,1.81,1.75,21.35,21.35,0,0,0,1.56-2c.17-.29,0-.78,0-1.17V632C354.13,635.84,355.24,639.35,356.09,642.92Zm-27.45-10.14c1.67-7.78-3.59-13.5-11.42-12.42-1.1.15-2.19.37-3.12.53-.54-.72-1-1.32-1.4-1.91l-.72-.05c-.44,1.2-.87,2.39-1.38,3.76a13.05,13.05,0,0,0-2.5,1.92,58.41,58.41,0,0,0-4.63,6.34c-.55.88-1,2.27.69,3.13l5.91-6.93.67.34c0,.69,0,1.39,0,2.08-.22,9.14-.46,18.28-.67,27.42a4.51,4.51,0,0,0,.28,2.31,2.76,2.76,0,0,0,1.89,1.3c.5,0,1.28-.87,1.49-1.5a9,9,0,0,0,.15-2.75c0-2.82,0-5.64,0-8.35A20.37,20.37,0,0,0,328.64,632.78ZM315.21,643.7c-.31.1-.63.14-1.24.28V625.21a8.93,8.93,0,0,1,6.92-.56,4.9,4.9,0,0,1,3.33,4.31C325.05,634.33,320.36,642,315.21,643.7Zm80.42-1c-.86-6.56-1.6-13.13-2.47-19.69a11.87,11.87,0,0,0-1.08-2.67l-1.1,0c-3.44,7.76-4.55,16.25-7.05,24.13-1.45,1-4.13-.26-4.15,2.3,0,.84,1.69,1.7,2.91,2.82-.47,1.94-1.11,4.42-1.66,6.93-.3,1.37-1.5,3.24.79,3.8s2.2-1.62,2.59-3c.77-2.78,1.41-5.6,2.13-8.49h6.13l.41,2.25c.41,2.34.71,4.71,1.3,7a2.29,2.29,0,0,0,1.79,1.32c.55,0,1.33-1,1.46-1.65a8.69,8.69,0,0,0-.21-2.94C396.83,650.8,396.16,646.76,395.63,642.69Zm-7.88,1.49q1.46-5.85,2.92-11.66H391c.4,3.83.79,7.65,1.21,11.66Zm-104.32,9.53a4.37,4.37,0,0,0,3.77-.55,33.58,33.58,0,0,0,5.69-6.74c4.94-8.14-1.23-15.78-7.38-18.29a3.62,3.62,0,0,0-3.21.5c-.64.63-.7,2.16-.54,3.21a16.49,16.49,0,0,0,1.37,3.55c-2.76.33-5.4.54-8,1a12.2,12.2,0,0,0-4.07,1.43c-2.4,1.44-2.23,3.62.27,4.81a10.47,10.47,0,0,0,3,1c3.3.47,6.62.8,9.89,1.18-.63,1.6-1.45,3.32-2,5.12C281.82,651.36,281.84,653.16,283.43,653.71Zm2-3-.56-.3,2.73-6.3,3.77-.89A17.9,17.9,0,0,1,285.4,650.73Zm6-14.16c-5,0-6.54-3-7-6.13C287.64,631.43,289.41,633.85,291.36,636.57ZM273,640.41a30.25,30.25,0,0,1,18.63-.19A31.72,31.72,0,0,1,273,640.41Zm73.2-589.94c3.16.64,6.36,1,9.73,1.55a11.81,11.81,0,0,0-1.26,3,5.83,5.83,0,0,0,.41,3.64c.87,1.34,2.51,1,3.79.3,4.15-2.17,7.29-5.25,8.35-10,.86-3.84-.48-7.23-2.76-10.16a24.55,24.55,0,0,0-5.47-5.3c-2.05-1.38-4.17.13-4.06,2.64a12.15,12.15,0,0,0,.84,3.42,32.47,32.47,0,0,0,1.54,3.19,21,21,0,0,0-2.12,0c-3,.34-6,.57-9,1.14-1.75.33-4,.8-3.9,3.21C342.32,49.38,344.34,50.1,346.16,50.47ZM357.3,56.7c-.3-3.11,2.13-5.4,6.59-6C362.09,54,359.83,56,357.3,56.7Zm1.22-20.38,5.62,7.06-.41.55-3.37-.74c-.9-2-1.83-4.16-2.77-6.28Zm6.24,11a37.73,37.73,0,0,1-19.34-.07C348.2,45,361.07,45,364.76,47.29ZM426.93,698.2a21.12,21.12,0,0,0-5.55-1.39c-1.85-.29-3.73-.35-5.69-.52a15.31,15.31,0,0,0,1.41-3.48c.14-1.13.12-2.75-.56-3.38a3.78,3.78,0,0,0-3.4-.38,14.82,14.82,0,0,0-8.53,9.38c-1.72,5.5,2.56,12.11,6.64,15.35,1.27,1,2.74,1.88,4.35.76s1.39-2.91.88-4.51a43.64,43.64,0,0,0-1.77-4.17c4.09-.7,8.14-1.25,12.1-2.17,1-.25,2.53-1.72,2.47-2.54A4.4,4.4,0,0,0,426.93,698.2Zm-12.57-6.94c.24,3.34-2.18,5.59-6.79,6.18C409.41,694.61,411.31,692.36,414.36,691.26Zm-.88,20.3c-2.63-1.78-4.34-4.31-5.94-7.47l3.74.82,2.77,6.34ZM407,701.33c3.36-2.33,15.78-2.23,19.44.23A41.2,41.2,0,0,1,407,701.33Zm-49.71-12.49c-2.58-.93-4.39.85-3.68,3.5a37.88,37.88,0,0,0,1.55,4c-2.19.2-4.19.24-6.13.59a22.83,22.83,0,0,0-5.66,1.62,3.62,3.62,0,0,0-1.79,2.7c0,.79,1.12,1.91,2,2.31a17.86,17.86,0,0,0,4.94,1.37c2.58.34,5.19.4,7.77.58-.7,1.74-1.51,3.4-2,5.14-.43,1.42-.43,3,1,3.94a3,3,0,0,0,4-.55,43,43,0,0,0,5.8-7.16C369.8,698.72,363.05,691,357.25,688.84Zm.15,22.71-.58-.3,2.7-6.32,3.76-.83A18.21,18.21,0,0,1,357.4,711.55Zm-12.64-10.4c4.18-2,14.94-2.06,18.78-.21C361,703,348.14,703.23,344.76,701.15Zm14.11-4.47c-.87-1.48-1.89-3.21-2.92-4.94l.62-.44c3,1.08,4.94,3.28,6.71,6.28ZM172.76,340.47a41.76,41.76,0,0,0,6.94,5.47c8.17,4.75,16-2.15,18-7.86.91-2.58-.9-4.36-3.56-3.62a35.37,35.37,0,0,0-3.71,1.47c-.5-3.25-.88-6.44-1.51-9.59-.38-1.88-1.08-4-3.43-4s-2.83,2.25-3.16,4c-.66,3.55-1,7.16-1.49,10.79a44.35,44.35,0,0,0-4.38-1.87c-1.6-.51-3.36-.76-4.49.93S171.59,339.4,172.76,340.47Zm17.06-.73,5-3c.17,2.54-2.41,5.59-5.87,7.24C189.24,342.57,189.5,341.3,189.82,339.74Zm-4.95-14.22c2.45,2.74,2.69,15.14.35,19.44A41.55,41.55,0,0,1,184.87,325.52Zm-3.33,14.87c.28,1.22.53,2.29.79,3.41-2.55-.58-6.09-3.36-7-6.12Zm-.34,58.11a78.36,78.36,0,0,0,2,10c.75,2.42,3.17,2.55,4.51.37a13.07,13.07,0,0,0,1.62-4.41c.47-2.56.65-5.18,1-7.88a16.2,16.2,0,0,0,3.48,1.39c1.07.17,2.66.16,3.23-.48a3.85,3.85,0,0,0,.5-3.38,14.68,14.68,0,0,0-9.46-8.66c-5.49-1.7-12.06,2.56-15.32,6.64-1,1.27-1.86,2.74-.76,4.35s2.9,1.41,4.5.9,3-1.27,4.72-2A20.38,20.38,0,0,0,181.2,398.5Zm14-3.4-.49.67-4.89-2.89c-.32-1.58-.57-2.8-.9-4.38A13.08,13.08,0,0,1,195.21,395.1Zm-9.78-6.93a30.35,30.35,0,0,1-.13,18.66A31.5,31.5,0,0,1,185.43,388.17Zm-10.19,6.76-.3-.57c1.78-2.63,4.3-4.35,7.47-5.94-.31,1.4-.53,2.4-.83,3.74ZM501,639.31c-.1-2.23-2.12-2.93-3.94-3.3-3.16-.63-6.36-1-9.69-1.54a13.86,13.86,0,0,0,1.32-3.26c.15-1.13.14-2.74-.53-3.38a3.78,3.78,0,0,0-3.39-.42,14.49,14.49,0,0,0-8.52,9.34,10.51,10.51,0,0,0,1.66,9.41,40.49,40.49,0,0,0,5.56,6.34,4.27,4.27,0,0,0,3.62.41c1.5-.54,1.55-2.22,1.19-3.61a30.71,30.71,0,0,0-1.44-3.88c-.22-.53-.52-1-.67-1.32,3.71-.51,7.37-.87,11-1.56C498.83,642.21,501.07,641.73,501,639.31Zm-14.74-9.79c-1.16,4.53-2.64,6.21-7,6.21A13.16,13.16,0,0,1,486.22,629.52ZM485,650a20.21,20.21,0,0,1-5.91-7.53l3.76.84,2.78,6.33Zm-6.16-10.15c1.89-2.43,15.26-2.47,19.08,0A40.48,40.48,0,0,1,478.83,639.84ZM589.66,335c-.53-3.51-1-7-1.77-10.49a3.39,3.39,0,0,0-2.43-2.09,3.58,3.58,0,0,0-2.65,1.86,23.47,23.47,0,0,0-1.58,5.68c-.35,2-.41,4-.6,6.09a13.75,13.75,0,0,0-3.25-1.34,5.79,5.79,0,0,0-3.63.43c-1.32.88-.92,2.51-.27,3.8a15.39,15.39,0,0,0,8.49,7.91,10,10,0,0,0,3.87.59c4.95-.22,8.59-3,11.87-6.41a6.82,6.82,0,0,0,1.36-2.16c.88-2.14-.33-4.06-2.61-3.87a22.26,22.26,0,0,0-4.89,1.4,12.88,12.88,0,0,0-1.9,1A18.54,18.54,0,0,0,589.66,335Zm-14,2.44.44-.61,4.95,2.88c.34,1.72.58,2.92.88,4.47C579,342.36,576.71,340.43,575.65,337.44Zm9.78,7a30.43,30.43,0,0,1,.12-18.64A31.75,31.75,0,0,1,585.43,344.45Zm10.35-6.89c-.66,2.46-4.36,5.53-7.25,6.26.23-1.07.46-2.07.75-3.38ZM414.29,59.19a3.49,3.49,0,0,0,3.06-.49,3.89,3.89,0,0,0,.66-3,21.62,21.62,0,0,0-1.58-4.09,18.28,18.28,0,0,0,3.16,0,82.69,82.69,0,0,0,8.84-2A3.18,3.18,0,0,0,430.12,47c0-.85-1.15-1.74-2-2.41a4.14,4.14,0,0,0-2-.73c-3.52-.51-7.05-1-10.65-1.44.6-1.49,1.41-3.15,1.94-4.9.43-1.42.43-3-1-3.95a3,3,0,0,0-4,.55,40.71,40.71,0,0,0-5.64,6.83C401.79,49.16,408.32,56.91,414.29,59.19Zm-.39-22.86.91.54-2.64,6.25-3.36.81-.53-.52Zm12.82,10.51a30,30,0,0,1-18.68.23C414.23,45,420.46,45.25,426.72,46.84Zm-11.39,10c-3.25-1-5.1-3.35-6.94-6.13C413.29,50.69,414.84,53.63,415.33,56.84Zm176.6,330.23c-8.15-5.15-15.81.68-18.56,7a3.88,3.88,0,0,0,.46,3.4c.55.65,2.15.7,3.21.53a19.28,19.28,0,0,0,3.83-1.5,17,17,0,0,0,0,3.22c.61,3,1,6.15,2.17,8.95,1.06,2.52,3.54,2.24,4.75-.26a10.18,10.18,0,0,0,.95-2.8c.47-3.33.81-6.66,1.22-10.1,1.48.61,3.06,1.42,4.74,1.93,1.47.45,3.09.57,4.15-.94a3.07,3.07,0,0,0-.62-4.15A38.88,38.88,0,0,0,591.93,387.07Zm-16.21,8.34c.71-2.7,2.73-5,5.89-6.69C581.84,392.52,580.27,394.44,575.72,395.41Zm10.07,11.41c-2.32-3.76-2.38-15.29-.17-19.09A37.57,37.57,0,0,1,585.79,406.82Zm9.77-11.9-6.24-2.71c-.28-1.21-.54-2.27-.79-3.34l.48-.49,7.15,5.6ZM436.45,656.18c0,1.58.27,3.6,2,3.64a61.5,61.5,0,0,0,10-.92c.48-.07,1.12-1.32,1.08-2,0-.51-.94-1.2-1.59-1.38a6.06,6.06,0,0,0-2.34.15c-1.6.2-3.2.44-4.66.65V642.48c2.1,0,3.87.07,5.64,0,1.32-.08,2.6-.53,2.63-2.14s-1.16-2-2.43-2.08c-1.89-.09-3.79,0-6.11,0V623.75l8.06-.38c-.24-2.94-1.57-3.48-7.24-3.34-4.52.11-5.65.66-5.72,2.86l1.22,1v14.28c-1.62,1.3-3.66,2.15-3.76,3.18-.24,2.43,2.46,1,3.63,1.9,0,.67,0,1.32,0,2C436.73,648.91,436.54,652.55,436.45,656.18Zm147.81,39.15a62.11,62.11,0,0,0-4.55-5c1.7-.72,3.44-1.34,5.07-2.19,1.4-.74,2.48-1.89,2.08-3.68a3,3,0,0,0-3.32-2.3,42.64,42.64,0,0,0-9,1.07c-9,2.38-9.79,12.44-7.1,18.25,1.16,2.49,3.7,2.52,5.07.13a29.72,29.72,0,0,0,1.66-3.95c2,1.59,3.93,3.33,6.06,4.74a14.24,14.24,0,0,0,4.83,2.1c2.2.45,3.56-1.2,2.67-3.26A29.34,29.34,0,0,0,584.26,695.33Zm-.87-10.13.19.64-6.5,2.66-3.29-2.1C577.2,685.29,580.23,684.63,583.39,685.2Zm-13.62,15.32c-1.47-3-1.28-6-.61-9.31C572.92,694.73,571.66,698.24,569.77,700.52ZM571.36,688c6,3.28,10.38,7.82,14.17,13.44C581.52,700.92,572.43,692.27,571.36,688ZM185.48,50.13c2,2.66,4.22,5.2,6.27,7.71-1.52.64-3.32,1.28-5,2.16a3.19,3.19,0,0,0-2,3.54c.35,1.74,1.79,2.23,3.26,2.41a20.13,20.13,0,0,0,11.9-2.23,8.55,8.55,0,0,0,2.82-2.39c3.29-4.42,3.48-9.31,1.58-14.28a3.77,3.77,0,0,0-2.67-2.12c-.93,0-2.12,1.09-2.78,2a15.91,15.91,0,0,0-1.45,3.62c-1.37-1.18-2.56-2.34-3.87-3.32a35.86,35.86,0,0,0-4.31-2.82,7.86,7.86,0,0,0-3-.9,2.23,2.23,0,0,0-2.48,3.07A11.3,11.3,0,0,0,185.48,50.13Zm2.25,12.27,6.79-2.78,3,1.84C195.36,63,190.39,63.56,187.73,62.4Zm14-14.89c1.69,3.09,1.34,6.12.73,9.46C199.11,53.34,199.52,51.44,201.76,47.51Zm-1.47,12.65a36.5,36.5,0,0,1-13.81-13.33C190.9,47.91,199.25,56,200.29,60.16Zm370,1.8c3.83,3.53,8.61,4.35,13.62,4.05,1.62-.09,3.29-.49,3.74-2.36.51-2.08-1-3.2-2.53-4s-3.11-1.27-4.34-1.76c2.24-2.87,4.62-5.69,6.73-8.69,1-1.45,2.3-3.37.59-5s-3.57-.67-5.12.35c-2.75,1.81-5.36,3.82-8.06,5.77a12.17,12.17,0,0,0-1.29-3.25c-.71-.95-2-2.16-2.89-2.11A3.92,3.92,0,0,0,568,47.3a21,21,0,0,0-1,6.39A10.74,10.74,0,0,0,570.27,62Zm14.05.25c-.06.21-.11.42-.16.62-3.17.78-6.2-.16-9.69-1l3.38-2.18Zm2.08-15.66a40.68,40.68,0,0,1-14.1,13.61C572.77,56.38,581.74,47.64,586.4,46.55Zm-15.83,1c2.62,3.14,2.37,6.18-.6,9.29A13.76,13.76,0,0,1,570.57,47.51ZM201.39,686.17c-3.86-3.59-8.71-4.42-13.81-4-1.61.12-3.24.56-3.6,2.5s.92,3,2.37,3.72,3.22,1.35,5,2.06a8,8,0,0,0-1,1c-2.33,3-4.77,6-6.87,9.13a3.57,3.57,0,0,0,.21,3.37c.53.65,2.28.82,3.23.48a22,22,0,0,0,5-2.77c1.69-1.19,3.2-2.62,4.8-3.94a20.28,20.28,0,0,0,1.67,3.93,3.75,3.75,0,0,0,2.6,1.64,3.41,3.41,0,0,0,2.48-1.82,18.7,18.7,0,0,0,1.26-5.75C204.83,692.1,204.07,688.65,201.39,686.17Zm-14-.26.15-.62c3.17-.82,6.19.18,9.74,1l-3.45,2.18Zm-1.55,15.49a32.06,32.06,0,0,1,13.58-13A29.92,29.92,0,0,1,185.79,701.4Zm15.24-.87c-2.56-3-2.32-6.12.68-9.26C202.31,694.45,202.64,697.49,201,700.53Zm254.75-51.75a9.49,9.49,0,0,0-2.74,1.57c-1.21,1.43-1.05,3.22-.37,4.89,1.52,3.78,3.68,4.83,8.49,4.25,4.4-.53,7.07-3.57,6.34-7.92a25.33,25.33,0,0,0-2.86-8.55,38.34,38.34,0,0,0-6.47-7.72,9.24,9.24,0,0,1-2.88-8.63c.37-2.45,1.63-3.45,4.09-3.18a4,4,0,0,1,3.58,3.23,26.25,26.25,0,0,0,1.46,3.12,8.84,8.84,0,0,0,1.13-1.79c.7-2.88-1.66-6.58-4.68-7.4-3.74-1-7.43.56-8.38,3.74-1.52,5.08-1.18,9.83,2.93,13.76.86.82,1.69,1.68,2.48,2.57a21.45,21.45,0,0,1,5.2,8.81c1.35,5.27.89,6-4.47,6.58a4.32,4.32,0,0,1-.9-.17c-.45-.72-1.44-1.68-1.64-2.78s.34-2.43.55-3.66ZM378.33,57.27a2.75,2.75,0,0,0,2.28.51c.49-.22.84-1.4.77-2.1-.35-3.35,1.25-6,4.67-7.21,3.79,1.18,5.41,3.61,4.9,7.34-.17,1.28.21,2.24,1.54,2.17a3.83,3.83,0,0,0,2.15-1.2,11,11,0,0,0,2.27-12,11.47,11.47,0,0,0-10.45-7.33c-4.39-.27-9,2.91-10.85,7.08C373.73,49,374.88,54.56,378.33,57.27Zm2.75-14a7.28,7.28,0,0,1,9.31-.63A6.94,6.94,0,0,1,393.5,51c-3.74-7.7-10.77-7.51-14.49-.18A6.58,6.58,0,0,1,381.08,43.26Zm196.29,328a10.86,10.86,0,0,0-2.79.62c.42,1,.59,2.3,1.31,3a11.06,11.06,0,0,0,12.36,1.88c4-1.91,7-6.66,6.76-10.67a12.1,12.1,0,0,0-8.1-10.78c-4.17-1.36-9.34,0-11.75,3.15a2.68,2.68,0,0,0-.45,2.28c.23.48,1.41.78,2.13.71,3.2-.34,5.73,1.18,7.15,4.54C583.07,369.47,580.51,371.39,577.37,371.24Zm4.1-12.2a7.12,7.12,0,0,1,8.41,3c2,3,1.78,6.2-.71,9.32a6.48,6.48,0,0,1-7.53,2.18C590,369.29,588.13,362.19,581.47,359ZM393.27,690.8a2.68,2.68,0,0,0-2.28-.45c-.49.23-.79,1.42-.71,2.13.39,3.5-1.5,6.23-5.11,7.13-3.43-1.25-4.88-3.68-4.52-7.36.06-.62-.22-1.64-.65-1.84a2.34,2.34,0,0,0-2.13.19,12.1,12.1,0,0,0-2.72,3.34,11.33,11.33,0,0,0,6.07,15.76c7.17,3,13.6-2.05,15.2-7.14C397.74,698.37,396.44,693.19,393.27,690.8Zm-3.38,14.47a7.2,7.2,0,0,1-9,.05c-2.67-2-3.69-4.85-2.7-8.37,1.39,3.48,3.76,5.8,7.18,5.91,3.6.11,5.81-2.44,7.32-6C393.67,700.62,392.68,703.31,389.89,705.27ZM194.25,361.53c.61.06,1.63-.22,1.84-.65a2.31,2.31,0,0,0-.19-2.12,13.33,13.33,0,0,0-3.69-2.9,11.49,11.49,0,0,0-11.28,19.91c4.58,3.21,11.24,2.59,14.62-1.47a3.15,3.15,0,0,0,.59-2.45c-.09-.4-1.4-.77-2.11-.7-3.52.39-6.22-1.48-7.14-5.09C188.12,362.62,190.57,361.17,194.25,361.53Zm-5.06,12.07a6.66,6.66,0,0,1-7.91-2.75c-2.2-3.09-2.21-6.27,0-9.18a6.87,6.87,0,0,1,8-2.64C182.31,362.61,181.24,369.37,189.19,373.6ZM343.74,658.34c.73-.21,1.19-1.31,1.77-2-.7-.57-1.32-1.48-2.11-1.65a8.39,8.39,0,0,0-3.32.26c-1.66.35-3.28.85-4.9,1.29V644c2.93-.75,6,0,8.28-2,.08-2.14-.81-3-3.08-2.82-1.75.12-3.49.44-5.3.69-.29-5.39-.56-10.58-.85-16,1.22,0,2.39,0,3.56,0a28.19,28.19,0,0,0,5.3-.56,3.13,3.13,0,0,0,2-2c.24-1.39-1.07-1.77-2.24-1.94a5.81,5.81,0,0,0-1.38,0c-2.11.22-4.22.38-6.31.71a27.82,27.82,0,0,0-3.52,1V661l4.59-1C338.72,659.49,341.28,659.07,343.74,658.34Zm67.34.79c2.55-.82,6.27-5.42,6.36-8.14,0-.7-.55-1.89-1.06-2a3.22,3.22,0,0,0-2.33.81c-.52.41-.58,1.34-1,1.9-1,1.27-2,2.46-3,3.56-3-1.22-3.82-2.1-4.49-4.65a35.51,35.51,0,0,1-1.05-14.77,31.48,31.48,0,0,1,2.89-9.58c1.93-3.63,4.65-3.5,7.21-.3.49.63,1.09,1.18,2,2.16.36-1.09.76-1.66.69-2.18-.49-4-5.53-6.67-9.13-4.85a11.59,11.59,0,0,0-5.61,6.2,33,33,0,0,0-2.44,14.77,61.45,61.45,0,0,0,1.77,11.13C403,657.18,407.91,660.14,411.08,659.13Zm91.62-63.72c.61-3.7,1.45-7.38,1.74-11.1s2.22-5.68,5.42-6.79c1.83-.64,3.72-1.12,5.56-1.65-2.5-.9-5-1.68-7.42-2.7a5.43,5.43,0,0,1-3.37-4.77c-.23-2.24-.64-4.46-1-6.68-.3-1.85-.64-3.7-1-5.55h-.49c-.6,3.62-1.45,7.21-1.73,10.85-.33,4.4-2.91,6.41-6.71,7.5-1.43.41-2.87.75-4.74,1.23,2.3.67,4.16,1.12,5.95,1.76,3,1.08,5.21,2.83,5.32,6.39a27.78,27.78,0,0,0,.62,3.92c.44,2.54.89,5.07,1.33,7.61ZM267.22,212.22c.37-.11.73-.29,1-.38-2.55-1-5.11-1.83-7.56-2.93a5,5,0,0,1-3-3.95c-.51-3.46-1.08-6.92-1.64-10.38-.14-.83-.32-1.65-.47-2.48l-.52.07c-.63,4-1.36,7.94-1.85,11.93a5.78,5.78,0,0,1-3.4,5,56.46,56.46,0,0,1-5.36,2c-.69.24-1.43.34-2.62.61,2.5.74,4.48,1.22,6.39,1.92,2.94,1.06,4.79,2.93,5.08,6.35.33,3.79,1.16,7.54,1.76,11.31l.55,0c.66-3.9,1.48-7.78,1.9-11.7a6.49,6.49,0,0,1,4.45-5.75C263.63,213.16,265.45,212.76,267.22,212.22Zm238,116.14c-.45-4-1.26-7.9-1.92-11.84l-.43,0c-.14.62-.31,1.22-.41,1.84a85.4,85.4,0,0,0-1.41,9.21c-.21,4-2.61,5.87-6,7-1.67.56-3.4.93-5.4,1.47,2.32.7,4.36,1.19,6.31,1.93,2.82,1.09,4.83,2.86,5,6.25a46.18,46.18,0,0,0,.88,5.68q.46,2.88.95,5.77a3.21,3.21,0,0,0,.85-1.84c.57-3.52,1-7.08,1.77-10.56a6.75,6.75,0,0,1,2.34-3.86c1.81-1.22,4-1.81,6.13-2.62a22.84,22.84,0,0,1,2.47-.61c-2.65-.87-5-1.48-7.12-2.39A6.18,6.18,0,0,1,505.19,328.36ZM376.25,657.05a6.44,6.44,0,0,0,.2-2.54c.07-8.74.12-17.48.2-26.22,0-1.36.19-2.72.28-4a29.13,29.13,0,0,0,5-.08,2.7,2.7,0,0,0,1.71-1.88c.08-.53-1-1.71-1.61-1.75-4.58-.27-9.18-.33-14.19-.46-.08,1.36-.34,2.51-.11,2.62,1.71.82,3.51,1.43,5.46,2.18,0,0,0,.45,0,.84q-.39,14.78-.76,29.56a3.31,3.31,0,0,0,.16,1.75c.46.69,1.21,1.6,1.86,1.62S375.92,657.75,376.25,657.05Zm44-1.67c-.14,2.82.38,3.77,3.2,3.76,3.43,0,6.87-.31,10.29-.63.76-.07,1.45-.8,2.58-1.47-3.9-3.86-8.38-1-12.21-2.22.12-1.8.34-3.58.33-5.36q0-13.1-.18-26.19a8.39,8.39,0,0,0-.69-2.26h-.91a12.09,12.09,0,0,0-1,2.84c-.32,4-.54,8-.71,12.08C420.74,642.42,420.59,648.91,420.28,655.38Zm55.9-112.55c.21,1.75.57,3.48.87,5.22a22.9,22.9,0,0,0,1.51-6.47,4.41,4.41,0,0,1,3.32-4.18c1-.37,2.06-.71,3.5-1.2l-2.48-.68c-2.59-.68-4.32-2-4.4-5a41.76,41.76,0,0,0-1-6,26.91,26.91,0,0,0-1.53,6.68c-.22,2.4-1.72,3.45-3.67,4.16-.86.32-1.77.48-3.24.86,1.09.36,1.63.56,2.18.72C475,538,475.72,538.93,476.18,542.83Zm-201.06-92-1.6.4a6.58,6.58,0,0,0,1.3.57c3.94.53,5.67,2.85,5.77,6.73a29,29,0,0,0,.83,4.56,28.1,28.1,0,0,0,1.49-6.63,4.34,4.34,0,0,1,2.92-3.88c1.13-.47,2.33-.79,3.84-1.3-1-.29-1.71-.5-2.4-.68-2.58-.71-4.34-2-4.46-5a45.08,45.08,0,0,0-1-5.93,18.26,18.26,0,0,0-1.28,4.95C280,448.85,279.24,449.73,275.12,450.87Zm149.2-272.09a37.91,37.91,0,0,0-1-5.81,25,25,0,0,0-1.5,6.5c-.2,2.45-1.68,3.62-3.73,4.34-.93.32-1.9.5-3.12.82a7.05,7.05,0,0,0,1.19.5c4,.6,5.95,2.91,6,7a23.41,23.41,0,0,0,.85,4.4,29.56,29.56,0,0,0,1.46-6.68,4.27,4.27,0,0,1,2.93-3.85c1.16-.48,2.37-.85,4.1-1.45-1.06-.16-1.52-.17-2-.29C426.72,183.47,424.38,182.36,424.32,178.78ZM531.28,432a2.51,2.51,0,1,0-.08-5,2.44,2.44,0,0,0-2.44,2.57A2.37,2.37,0,0,0,531.28,432ZM423.64,522.88c1.69.51,2.64-.7,3-2.32-.29-1.68-1.24-2.87-2.94-2.39a2.38,2.38,0,0,0-.07,4.71Zm60.21-29.35a2.55,2.55,0,0,0,2.64-2.38,2.45,2.45,0,0,0-2.38-2.61,2.59,2.59,0,0,0-2.67,2.57A2.38,2.38,0,0,0,483.85,493.53ZM443.28,217.64a2.3,2.3,0,0,0-2.47-2.3,2.25,2.25,0,0,0-2.56,2.36c-.05,1.58,1,2.37,2.46,2.52A2.43,2.43,0,0,0,443.28,217.64Zm77.47,61.65a2.54,2.54,0,0,0-2.56-2.26,2.34,2.34,0,0,0-2.38,2.57,2.43,2.43,0,0,0,2.52,2.5A2.53,2.53,0,0,0,520.75,279.29ZM437.33,517.36A2.29,2.29,0,0,0,435,515a2.7,2.7,0,0,0-2.8,2.34,2.55,2.55,0,1,0,5.1,0Zm91.88-220.8a2.42,2.42,0,0,0-2.5,2.48,2.47,2.47,0,0,0,2.6,2.53,2.29,2.29,0,0,0,2.4-2.26A2.63,2.63,0,0,0,529.21,296.56Zm-24.52-32.31a2.49,2.49,0,0,0,2.49-2.71,2.54,2.54,0,0,0-2.53-2.32,2.4,2.4,0,0,0-2.48,2.51A2.5,2.5,0,0,0,504.69,264.25ZM520.91,452c1.69-.45,2.88-1.4,2.4-3.09a3.43,3.43,0,0,0-2.28-2,2.26,2.26,0,0,0-2.56,2.19C518.23,450.8,519.27,451.61,520.91,452ZM445.48,516a2.48,2.48,0,1,0-2.65-2.52A2.46,2.46,0,0,0,445.48,516Zm88.14-209.18a2.53,2.53,0,0,0-.06,5.06,2.33,2.33,0,0,0,2.46-2.47A2.49,2.49,0,0,0,533.62,306.86ZM475,500.15a2.5,2.5,0,0,0,2.49-2.38,2.54,2.54,0,1,0-5.07,0A2.38,2.38,0,0,0,475,500.15ZM331.15,362.86a2.33,2.33,0,0,0,2.24,2.69c1.54,0,2.56-.7,2.63-2.31a2.31,2.31,0,0,0-2.25-2.69A2.27,2.27,0,0,0,331.15,362.86Zm103.41-1.92a2.29,2.29,0,0,0-2.51,2.43,2.21,2.21,0,0,0,2.35,2.55c1.58.05,2.38-.88,2.57-2.43C436.83,362,436.16,361,434.56,360.94Zm19.07-139a2.45,2.45,0,0,0-2.62-2.42,2.36,2.36,0,0,0-2.47,2.33,2.63,2.63,0,0,0,2.64,2.64A2.45,2.45,0,0,0,453.63,222Zm14.64,10.48a2.54,2.54,0,0,0,2.17,2.73,2.5,2.5,0,1,0,.54-5A2.38,2.38,0,0,0,468.27,232.46Zm-12.78,274a2.46,2.46,0,0,0-2.39,2.61,2.3,2.3,0,0,0,2.58,2.33c1.49-.16,2.4-1,2.39-2.3A2.48,2.48,0,0,0,455.49,506.48Zm85.62-98a2.45,2.45,0,0,0-2.36-2.63,2.55,2.55,0,0,0-2.57,2.46,2.47,2.47,0,1,0,4.93.17ZM300.73,504.82a2.39,2.39,0,0,0,2.43-2.34,2.51,2.51,0,0,0-2.38-2.64,2.45,2.45,0,0,0-2.64,2.33A2.6,2.6,0,0,0,300.73,504.82ZM291.08,235a2.46,2.46,0,0,0-2.49,2.52,2.37,2.37,0,0,0,2.48,2.47,2.5,2.5,0,0,0,0-5Zm191.43,4a2.49,2.49,0,0,0-2.59-2.45,2.4,2.4,0,0,0-2.45,2.53,2.56,2.56,0,0,0,2.47,2.47A2.5,2.5,0,0,0,482.51,239ZM302.58,316.85a2.47,2.47,0,0,0-2.51,2.51,2.39,2.39,0,0,0,2.4,2.57,2.45,2.45,0,0,0,2.5-2.21C305,318,303.92,316.75,302.58,316.85Zm234.73.63a2.32,2.32,0,0,0-2.43,2.49,2.4,2.4,0,0,0,2.35,2.58A2.57,2.57,0,0,0,539.8,320,2.51,2.51,0,0,0,537.31,317.48ZM232.23,419a2.53,2.53,0,0,0,2.65-2.51,2.5,2.5,0,0,0-2.47-2.56,2.41,2.41,0,0,0-2.48,2.5A2.51,2.51,0,0,0,232.23,419Zm47.49-174.75a2.38,2.38,0,0,0,2.47,2.53,2.57,2.57,0,0,0,2.53-2.54,2.46,2.46,0,0,0-2.41-2.47A2.57,2.57,0,0,0,279.72,244.25Zm209.2,4.25a2.3,2.3,0,0,0,2.3-2.33,2.63,2.63,0,0,0-2.5-2.67,2.48,2.48,0,0,0-2.51,2.48A2.59,2.59,0,0,0,488.92,248.5ZM246.28,449.61c1.55-.37,2.81-1.23,2.27-3a3.36,3.36,0,0,0-2.35-2.07,3.28,3.28,0,0,0-2.36,2C243.4,448.27,244.62,449.22,246.28,449.61ZM421.8,211.52c0-1.58-1-2.32-2.42-2.53-1.57.1-2.52.85-2.54,2.44a2.48,2.48,0,0,0,5,.09Zm-85.05,173a2.32,2.32,0,0,0,2.34-2.44,2.48,2.48,0,1,0-4.95-.2A2.57,2.57,0,0,0,336.75,384.57ZM429,382.62a2.3,2.3,0,0,0,2.42,2.35,2.62,2.62,0,0,0,2.53-2.74,2.48,2.48,0,1,0-4.95.39ZM478.67,387c.06-1.57-.88-2.36-2.38-2.62a2.46,2.46,0,0,0-2.49,2.51,2.27,2.27,0,0,0,2.36,2.58A2.33,2.33,0,0,0,478.67,387Zm56.66,34.71a2.49,2.49,0,0,0,2.44-2.6,2.41,2.41,0,0,0-2.49-2.49,2.55,2.55,0,0,0,.05,5.09Zm-69.67-105.2a2.32,2.32,0,0,0-2.56,2.19,2.56,2.56,0,0,0,2.33,2.88,2.33,2.33,0,0,0,2.53-1.91A2.64,2.64,0,0,0,465.66,316.46ZM341.32,216.06a2.48,2.48,0,0,0,2.59-2.19,2.55,2.55,0,0,0-2.46-2.75,2.52,2.52,0,0,0-2.6,2.43A2.39,2.39,0,0,0,341.32,216.06ZM224.44,339a2.19,2.19,0,0,0,2.24,2.48,2.42,2.42,0,0,0,2.65-2.55c-.12-1.39-.84-2.35-2.11-2.38C225.28,336.57,224.47,337.49,224.44,339ZM517.25,458.81a2.47,2.47,0,0,0-2.57-2.6,2.44,2.44,0,0,0-2.43,2.58,2.32,2.32,0,0,0,2.53,2.39A2.51,2.51,0,0,0,517.25,458.81ZM310.53,510.25a2.2,2.2,0,0,0,2.39-2.07,2.7,2.7,0,0,0-2.47-2.89,2.42,2.42,0,0,0-2.47,2.53A2.3,2.3,0,0,0,310.53,510.25Zm194.92-42.64c-.08,1.42,1,2.45,2.79,2.42a2.31,2.31,0,0,0,2.16-2.5,2.22,2.22,0,0,0-2.48-2.42A2.36,2.36,0,0,0,505.45,467.61ZM334.24,375.23a2.55,2.55,0,0,0-.18-5.09,2.55,2.55,0,0,0,.18,5.09ZM465.4,501.17a2.42,2.42,0,0,0-2.43,2.57,2.34,2.34,0,0,0,2.54,2.4A2.44,2.44,0,0,0,468,503.8,2.48,2.48,0,0,0,465.4,501.17Zm80.05-114.68a2.43,2.43,0,0,0-2.56-2.54,2.37,2.37,0,0,0-2.36,2.61,2.46,2.46,0,0,0,4.92-.07ZM436.38,373a2.46,2.46,0,1,0-2.39,2.62A2.43,2.43,0,0,0,436.38,373ZM320.58,515.08a2.53,2.53,0,0,0,2.54-2.57,2.58,2.58,0,0,0-2.65-2.41,2.48,2.48,0,0,0-2.44,2.57A2.57,2.57,0,0,0,320.58,515.08Zm21.53,7.21a3.37,3.37,0,0,0,2-2.34c.07-.73-1-2-1.87-2.3-1.63-.56-2.73.44-3.17,2.29C339.49,521.56,340.42,522.78,342.11,522.29Zm150.27-41a2.41,2.41,0,0,0-2.34,2.64,2.33,2.33,0,0,0,2.56,2.37,2.51,2.51,0,0,0-.22-5ZM291.87,389.82a2.32,2.32,0,0,0,2.42-2.56,2.45,2.45,0,1,0-4.9.05A2.36,2.36,0,0,0,291.87,389.82Zm208.68,83.62a2.52,2.52,0,0,0-2.57,2.48,2.35,2.35,0,0,0,2.44,2.52,2.53,2.53,0,0,0,2.57-2.32A2.46,2.46,0,0,0,500.55,473.44Zm-234.39,3a2.47,2.47,0,0,0,2.5-2.51,2.57,2.57,0,0,0-2.53-2.53,2.44,2.44,0,0,0-2.49,2.5A2.6,2.6,0,0,0,266.16,476.48Zm248-206.18a2.33,2.33,0,0,0-2.58-2.39,2.26,2.26,0,0,0-2.33,2.41A2.64,2.64,0,0,0,511.9,273,2.37,2.37,0,0,0,514.18,270.3Zm-262,9.49a2.44,2.44,0,0,0,2.36-2.63,2.35,2.35,0,0,0-2.5-2.44,2.54,2.54,0,0,0,.14,5.07ZM462.69,415.12a2.35,2.35,0,0,0,2.4,2.54,2.42,2.42,0,0,0,2.5-2.49,2.44,2.44,0,0,0-2.58-2.56A2.51,2.51,0,0,0,462.69,415.12Zm63.79-126a2.29,2.29,0,0,0-2.43-2.51,2.34,2.34,0,0,0-2.49,2.5,2.57,2.57,0,0,0,2.5,2.52A2.32,2.32,0,0,0,526.48,289.14ZM229.79,317.32a2.48,2.48,0,0,0,2.45,2.55,2.54,2.54,0,0,0,0-5.07A2.51,2.51,0,0,0,229.79,317.32Zm52.53,169.57a2.36,2.36,0,0,0-2.43,2.51,2.47,2.47,0,0,0,2.58,2.43,2.43,2.43,0,0,0,2.44-2.61A2.5,2.5,0,0,0,282.32,486.89Zm-42.11-188c1.81.57,2.75-.65,3.1-2.44-.39-1.68-1.37-2.78-2.93-2.25a3.55,3.55,0,0,0-2,2.43C238.28,297.35,239.39,298.66,240.21,298.91Zm82.59-77.82a2.54,2.54,0,0,0-5.08-.18,2.38,2.38,0,0,0,2.43,2.53A2.45,2.45,0,0,0,322.8,221.09Zm-51.3,260.7a2.63,2.63,0,0,0,2.58,2.67,2.34,2.34,0,0,0,2.39-2.44,2.49,2.49,0,0,0-2.35-2.6A2.46,2.46,0,0,0,271.5,481.79Zm-35.1-52.37a2.3,2.3,0,0,0,2.36-2.4c-.2-1.5-.88-2.51-2.52-2.53a2.47,2.47,0,1,0,.16,4.93ZM541.14,353a2.36,2.36,0,0,0,2.63,2.37,2.21,2.21,0,0,0,2.26-2.48c0-1.6-.83-2.45-2.17-2.45C542.11,350.51,541,351.64,541.14,353Zm-1-24.75a2.45,2.45,0,0,0-2.43,2.55,2.48,2.48,0,1,0,4.95,0A2.5,2.5,0,0,0,540.14,328.28Zm-107,28.14a2.27,2.27,0,0,0,2.34-2.59,2.37,2.37,0,0,0-2.32-2.48,2.5,2.5,0,0,0-2.57,2.6C430.76,355.43,431.57,356.47,433.14,356.42Zm-127.74,59A2.51,2.51,0,0,0,303,413a2.36,2.36,0,0,0-2.55,2.38,2.47,2.47,0,1,0,4.92.06Zm173.06-51.21a2.52,2.52,0,1,0-.11,5,2.52,2.52,0,0,0,.11-5ZM240.93,439.68a2.33,2.33,0,0,0,2.42-2.13,2.5,2.5,0,0,0-2.4-2.85,2.24,2.24,0,0,0-2.51,2.23A2.51,2.51,0,0,0,240.93,439.68Zm-11.69-31.45a2.47,2.47,0,0,0,2.52-2.47,2.69,2.69,0,0,0-2.46-2.61,2.47,2.47,0,0,0-2.48,2.51A2.41,2.41,0,0,0,229.24,408.23Zm44.75-159a2.36,2.36,0,0,0-2.63,2.37,2.29,2.29,0,0,0,2.38,2.57,2.5,2.5,0,0,0,2.59-2.44A2.34,2.34,0,0,0,274,249.24Zm15.68,120.44a2.51,2.51,0,1,0,0-5,2.51,2.51,0,0,0,0,5Zm186.69-24.83a2.29,2.29,0,0,0-2.46,2.33,2.5,2.5,0,0,0,2.57,2.66,2.29,2.29,0,0,0,2.33-2.33C478.75,345.81,477.94,344.86,476.36,344.85ZM288.83,496.07a2.49,2.49,0,1,0,5,.07c-.11-1.57-1.1-2.3-2.63-2.5A2.36,2.36,0,0,0,288.83,496.07ZM542.74,339.36c-1.91,0-3,1.11-2.89,2.53a2.45,2.45,0,0,0,4.9-.06C544.7,340.28,543.91,339.37,542.74,339.36Zm-72.23-8.89a2.25,2.25,0,0,0,2.16-2.35,2.53,2.53,0,0,0-2.66-2.59,2.25,2.25,0,0,0-2.29,2.48C467.76,329.51,468.58,330.48,470.51,330.47ZM295.4,328.61a2.32,2.32,0,0,0,2.53,2.26,2.29,2.29,0,0,0,2.42-2.56,2.25,2.25,0,0,0-2.38-2.39A2.55,2.55,0,0,0,295.4,328.61ZM331,519.15a2.44,2.44,0,0,0,2.58-2.4,2.38,2.38,0,0,0-2.46-2.52c-1.56-.09-2.42.8-2.58,2.44A2.51,2.51,0,0,0,331,519.15ZM236.2,304.33a2.49,2.49,0,0,0,0,5,2.43,2.43,0,0,0,2.42-2.58A2.29,2.29,0,0,0,236.2,304.33Zm-11,81.85a2.51,2.51,0,1,0,.2-5,2.25,2.25,0,0,0-2.46,2.3A2.31,2.31,0,0,0,225.2,386.18Zm112.28-32.74a2.49,2.49,0,0,0-2.66-2.48,2.38,2.38,0,0,0-2.23,2.59,2.25,2.25,0,0,0,2.46,2.47A2.42,2.42,0,0,0,337.48,353.44Zm206.15,43.9A2.3,2.3,0,0,0,541.2,395a2.46,2.46,0,0,0-2.5,2.53,2.41,2.41,0,0,0,2.56,2.44C542.89,399.9,543.56,398.9,543.63,397.34Zm2.75-21.84c0-1.72-1-2.79-2.48-2.71a2.49,2.49,0,0,0,0,5A2.21,2.21,0,0,0,546.38,375.5Zm-76.52,33.15a2.51,2.51,0,0,0,2.48-2.54,2.33,2.33,0,0,0-2.41-2.43,2.49,2.49,0,0,0-.07,5Zm-171.49.44a2.52,2.52,0,0,0-.19-5,2.31,2.31,0,0,0-2.41,2.54A2.51,2.51,0,0,0,298.37,409.09Zm2-180.23a2.45,2.45,0,0,0-2.53,2.48,2.49,2.49,0,0,0,2.73,2.44,2.52,2.52,0,0,0,2.33-2.51A2.35,2.35,0,0,0,300.41,228.86Zm-8.54,116.38a2.5,2.5,0,0,0-.24,5c1.6,0,2.32-1,2.57-2.47A2.44,2.44,0,0,0,291.87,345.24ZM252.32,458.89a2.34,2.34,0,0,0,2.39-2.52,2.5,2.5,0,1,0-5,.12A2.44,2.44,0,0,0,252.32,458.89Zm-25.7-130.7c.36,1.54,1.18,2.58,2.84,2.4a2.17,2.17,0,0,0,2.09-2.59,3.62,3.62,0,0,0-2.11-2.36C227.72,325.26,226.94,326.64,226.62,328.19Zm201-114a2.34,2.34,0,0,0,2.49,2.48,2.23,2.23,0,0,0,2.52-2.4,2.4,2.4,0,0,0-2.32-2.52A2.47,2.47,0,0,0,427.63,214.2Zm-161.8,48a2.54,2.54,0,0,0,2.6-2.45A2.36,2.36,0,0,0,266,257.2a2.51,2.51,0,0,0-2.54,2.45A2.42,2.42,0,0,0,265.83,262.22Zm-19.74,27a2.45,2.45,0,0,0,2.43-2.21c0-1.78-1.09-2.93-2.48-2.83a2.38,2.38,0,0,0-2.41,2.56A2.33,2.33,0,0,0,246.09,289.25Zm-23.18,60.9a2.21,2.21,0,0,0,2.26,2.47,2.46,2.46,0,1,0,.19-4.92A2.21,2.21,0,0,0,222.91,350.15ZM546.65,364a2.25,2.25,0,0,0-2.37-2.39,2.47,2.47,0,1,0,0,4.94A2.33,2.33,0,0,0,546.65,364Zm-20.28,78.1a2.37,2.37,0,0,0,2.49-2.53,2.26,2.26,0,0,0-2.29-2.47,2.43,2.43,0,0,0-2.61,2.43A2.37,2.37,0,0,0,526.37,442.13Zm-29.25-186a2.24,2.24,0,0,0,2.34-2.22,2.57,2.57,0,0,0-2.52-2.74,2.27,2.27,0,0,0-2.43,2.34A2.49,2.49,0,0,0,497.12,256.09ZM287.73,357.72a2.31,2.31,0,0,0,2.45,2.48,2.25,2.25,0,0,0,2.42-2.32,2.32,2.32,0,0,0-2.34-2.58A2.35,2.35,0,0,0,287.73,357.72Zm187.73-.29a2.25,2.25,0,0,0,2.38,2.37,2.29,2.29,0,0,0,2.49-2.42c-.05-1.56-.86-2.43-2-2.48C476.42,354.92,475.35,356,475.46,357.43Zm-248.64,39.8a2.34,2.34,0,0,0,2.56-2.4,2.46,2.46,0,0,0-2.45-2.59,2.5,2.5,0,0,0-.11,5ZM224.55,375a2.39,2.39,0,0,0,2.47-2.51,2.53,2.53,0,0,0-2.78-2.46,2.29,2.29,0,0,0-2.09,2.64A2.2,2.2,0,0,0,224.55,375Zm65.65,4.77a2.5,2.5,0,0,0,.28-5,2.46,2.46,0,0,0-2.68,2.6A2.29,2.29,0,0,0,290.2,379.74Zm19.92-151.5a2.31,2.31,0,0,0,2.48-2.49,2.23,2.23,0,0,0-2.11-2.42,2.56,2.56,0,0,0-2.82,2.41A2.33,2.33,0,0,0,310.12,228.24ZM480.28,377a2.43,2.43,0,0,0-2.56-2.64,2.28,2.28,0,0,0-2.3,2.65,2.18,2.18,0,0,0,2.42,2.3A2.28,2.28,0,0,0,480.28,377ZM259,467.91a2.19,2.19,0,0,0,2.32-2.4,2.34,2.34,0,0,0-2.39-2.52,2.31,2.31,0,0,0-2.53,2.32A2.47,2.47,0,0,0,259,467.91ZM461.09,224.55a2.24,2.24,0,0,0-2.43,2.32,2.44,2.44,0,0,0,2.61,2.59,2.24,2.24,0,0,0,2.34-2.17A2.51,2.51,0,0,0,461.09,224.55ZM352.42,213.48a2.27,2.27,0,0,0,2.3-2.64,2.18,2.18,0,0,0-2.25-2.24,2.51,2.51,0,0,0-2.69,2.56A2.36,2.36,0,0,0,352.42,213.48ZM291.78,338a2.38,2.38,0,0,0,2.62,2.35,2.25,2.25,0,0,0,2.28-2.65,2.13,2.13,0,0,0-2.12-2.28A2.59,2.59,0,0,0,291.78,338Zm181.94-3A2.46,2.46,0,1,0,474,340c1.56-.06,2.13-1.08,2.34-2.42C476,336.06,475.38,335,473.72,335Zm.07,64.15a2.26,2.26,0,0,0,2.17-2.52,2.16,2.16,0,0,0-2.28-2.43,2.34,2.34,0,0,0-2.59,2.4C471,398,472.08,399.17,473.79,399.18ZM297,397.2a2.41,2.41,0,0,0-2.61-2.57,2.17,2.17,0,0,0-2.26,2.45,2.44,2.44,0,1,0,4.87.12ZM258.79,270.71a2.53,2.53,0,0,0,2.46-2.59,2.49,2.49,0,1,0-5,.36A2.2,2.2,0,0,0,258.79,270.71ZM222.14,361.3a2.18,2.18,0,0,0,2.24,2.48,2.32,2.32,0,0,0,2.62-2.35,2.46,2.46,0,0,0-2.66-2.59A2.19,2.19,0,0,0,222.14,361.3ZM330.76,214.52a2.26,2.26,0,0,0-2.52,2.42,2.32,2.32,0,0,0,2.49,2.46,2.51,2.51,0,0,0,2.49-2.63A2.3,2.3,0,0,0,330.76,214.52ZM182.82,439.14c1.23.05,2.13-.58,2.11-2.35a2.13,2.13,0,0,0-2.09-2.26c-1.45-.08-2.08.88-2.1,2.27A2,2,0,0,0,182.82,439.14Zm405.29-4.61c-1.52,0-2.12,1.08-2.19,2.5s.8,2.26,2,2.06c.92-.15,1.7-1.11,2.54-1.71C590.12,435.54,589.58,434.51,588.11,434.53Zm-404-9.29a2.51,2.51,0,0,0-2.37-.27,3.48,3.48,0,0,0-.75,2.73c.37,1.56,1.75,1.49,3.2,1.14A2.43,2.43,0,0,0,184.13,425.24Zm405.71,2.46a3.45,3.45,0,0,0-.75-2.72c-.33-.37-1.89-.21-2.37.26a2.43,2.43,0,0,0-.07,3.6C588.08,429.19,589.47,429.26,589.84,427.7ZM184.84,313c1.08-.92,1.24-2.26.21-3.7-1.33-.27-2.74-.53-3.19,1a3.53,3.53,0,0,0,.59,2.78C182.75,313.53,184.33,313.46,184.84,313Zm402.84.05c.66.49,1.9.17,2.89.21.5-3.73-.38-4.56-3.26-3.82A2.4,2.4,0,0,0,587.68,313.07Zm.45,131.84a2.73,2.73,0,0,0-2.08,1.53c-.49,1.51.44,2.45,2,2.75,1.44-.28,2.43-1.09,2-2.56A2.79,2.79,0,0,0,588.13,444.91Zm-403.32,1.64a2,2,0,0,0-4,0c-.5,1.44.46,2.31,2,2.67C184.33,448.85,185.28,448,184.81,446.55Zm253.86,256.1a2,2,0,0,0-1.92,2.46c.14.79,1.09,1.43,1.4,1.82,2.14-.07,2.69-1,2.66-2.24A1.88,1.88,0,0,0,438.67,702.65Zm.81-657.27c1.28.39,2.09-.68,2.13-2s-.51-2.18-2.42-2.58c-.58.78-1.68,1.61-1.6,2.3A3.23,3.23,0,0,0,439.48,45.38ZM332.11,702.64a1.89,1.89,0,0,0-2.07,2.13c0,1.24.59,2.15,2.75,2.12.29-.38,1.21-1.06,1.32-1.85A2,2,0,0,0,332.11,702.64Zm.77-657.17a2,2,0,0,0,2-2.38c-.11-.8-1-1.48-1.3-1.87-2.14,0-2.75.85-2.77,2.1A1.9,1.9,0,0,0,332.88,45.47Zm254,195.82a1.71,1.71,0,0,0,1.76,2.26c.87,0,1.71-.87,2.56-1.34l.06-1c-.76-.61-1.52-1.67-2.29-1.68A2.89,2.89,0,0,0,586.84,241.29Zm-403.09,2.26a1.69,1.69,0,0,0,1.85-2.17,2.9,2.9,0,0,0-2-1.82c-.77,0-1.58,1-2.37,1.56l0,1C182.09,242.6,182.88,243.48,183.75,243.55Zm1.86,17.74a2.89,2.89,0,0,0-2-1.85c-.78,0-1.6,1-2.4,1.53l0,1c.82.53,1.61,1.41,2.47,1.5A1.69,1.69,0,0,0,185.61,261.29ZM588.75,249.5a2.88,2.88,0,0,0-1.92,1.91,1.69,1.69,0,0,0,1.95,2.08c.87-.12,1.62-1,2.42-1.58v-1C590.38,250.42,589.53,249.44,588.75,249.5Zm-403.14,2a2.9,2.9,0,0,0-1.86-2c-.77-.08-1.65.87-2.49,1.37l0,1c.78.59,1.51,1.52,2.36,1.66A1.69,1.69,0,0,0,185.61,251.48ZM588,454.86A1.69,1.69,0,0,0,586,457a2.86,2.86,0,0,0,1.94,1.88c.78,0,1.61-.94,2.42-1.49v-1C589.59,455.86,588.82,455,588,454.86ZM183.77,94.47a1.7,1.7,0,0,0,1.83-2.19,2.9,2.9,0,0,0-2-1.81c-.78,0-1.58,1-2.36,1.59l0,1C182.1,93.54,182.9,94.4,183.77,94.47ZM591.19,221.09c-.83-.51-1.7-1.47-2.47-1.4a2.91,2.91,0,0,0-1.89,1.94,1.69,1.69,0,0,0,2,2.05c.86-.13,1.6-1.06,2.4-1.63C591.2,221.73,591.19,221.41,591.19,221.09Zm-405.57.69c-.1-.89-1-1.68-1.45-2.52l-.93,0c-.56.8-1.56,1.61-1.54,2.4a2.85,2.85,0,0,0,1.78,2A1.69,1.69,0,0,0,185.62,221.78Zm403.22-12a2.88,2.88,0,0,0-2,1.81,1.69,1.69,0,0,0,1.85,2.17c.86-.07,1.66-.94,2.49-1.45l0-1C590.42,210.74,589.62,209.73,588.84,209.75Zm-404,257.15c-.14-.88-1-1.66-1.53-2.49h-.92c-.54.82-1.51,1.66-1.48,2.45a2.83,2.83,0,0,0,1.84,2A1.67,1.67,0,0,0,184.83,466.9Zm403.1-2.1a1.69,1.69,0,0,0-1.89,2.14,2.9,2.9,0,0,0,2,1.85c.78,0,1.6-1,2.4-1.51,0-.33,0-.65,0-1C589.58,465.78,588.8,464.89,587.93,464.8ZM222.19,702.87a2.81,2.81,0,0,0-1.83,2,1.69,1.69,0,0,0,2.15,1.91c.83-.18,1.51-1.07,2.26-1.64l0-.9C223.89,703.73,223,702.79,222.19,702.87Zm9.6-.47c-.53.77-1.39,1.5-1.52,2.33a1.69,1.69,0,0,0,2,2,2.91,2.91,0,0,0,1.94-1.92c0-.78-1-1.63-1.51-2.44Zm29.81,0c-.53.82-1.41,1.6-1.5,2.46a1.67,1.67,0,0,0,2.11,1.9c.78-.21,1.84-1.25,1.86-2s-1-1.61-1.52-2.41ZM588.67,193.86c.87-.07,1.67-.93,2.51-1.44l0-1c-.78-.57-1.58-1.6-2.36-1.59a2.87,2.87,0,0,0-2,1.81A1.69,1.69,0,0,0,588.67,193.86ZM180.47,477.33c.82.51,1.69,1.47,2.47,1.4a2.88,2.88,0,0,0,1.87-2,1.69,1.69,0,0,0-2-2c-.86.13-1.59,1.06-2.38,1.63ZM586,476.77a2.91,2.91,0,0,0,1.86,2c.78.08,1.65-.88,2.48-1.39l0-1c-.78-.58-1.51-1.51-2.37-1.64A1.68,1.68,0,0,0,586,476.77Zm-400.43-285a2.92,2.92,0,0,0-1.93-1.9c-.78-.05-1.62.94-2.43,1.48v1c.81.55,1.57,1.45,2.43,1.56A1.69,1.69,0,0,0,185.61,191.76Zm86,510.63c-.56.8-1.46,1.55-1.58,2.41a1.67,1.67,0,0,0,2,2,2.9,2.9,0,0,0,1.93-1.89c.05-.78-.92-1.64-1.45-2.46Zm-88-518.48a1.68,1.68,0,0,0,2-2c-.16-.88-1.06-1.61-1.63-2.41l-.92,0c-.5.84-1.44,1.72-1.37,2.51A2.88,2.88,0,0,0,183.62,183.91Zm407.56-12.54c-.83-.51-1.71-1.46-2.49-1.38a2.92,2.92,0,0,0-1.86,2,1.69,1.69,0,0,0,2,2c.86-.14,1.59-1.07,2.37-1.65ZM182.38,484.28c-.54.82-1.51,1.66-1.48,2.45a2.85,2.85,0,0,0,1.84,2,1.67,1.67,0,0,0,2.09-1.93c-.14-.88-1-1.66-1.53-2.49ZM291.51,702.39c-.56.79-1.46,1.53-1.6,2.39a1.68,1.68,0,0,0,2,2,2.88,2.88,0,0,0,1.93-1.88c.06-.78-.9-1.64-1.42-2.46ZM185.62,172c-.12-.88-1-1.66-1.5-2.48l-.92,0c-.54.81-1.53,1.64-1.5,2.43a2.85,2.85,0,0,0,1.82,2A1.69,1.69,0,0,0,185.62,172Zm403.14-8c.86-.1,1.62-1,2.43-1.54,0-.32,0-.64,0-1-.81-.54-1.65-1.53-2.42-1.49a2.91,2.91,0,0,0-1.95,1.89A1.69,1.69,0,0,0,588.76,164ZM185.61,162a2.89,2.89,0,0,0-1.91-1.92c-.78-.06-1.63.91-2.45,1.44,0,.32,0,.64,0,1,.8.56,1.55,1.47,2.41,1.59A1.69,1.69,0,0,0,185.61,162ZM302.37,702.42l-.89,0c-.57.74-1.47,1.42-1.63,2.24-.25,1.27.6,2.14,1.95,2.2a1.79,1.79,0,0,0,2.08-2.07C303.78,703.93,302.9,703.19,302.37,702.42ZM182.91,498.61a2.89,2.89,0,0,0,1.9-1.93,1.68,1.68,0,0,0-2-2.06c-.86.12-1.61,1-2.41,1.59l0,1C181.28,497.7,182.13,498.67,182.91,498.61ZM311.38,702.39c-.55.75-1.44,1.44-1.6,2.27a1.69,1.69,0,0,0,2,2.09,2.88,2.88,0,0,0,2-1.84c.07-.79-.91-1.66-1.43-2.5Zm137.81.35c-1.36,0-2.26.79-2.1,2.06.11.84,1,1.58,1.49,2.36l.93,0c.56-.81,1.45-1.56,1.61-2.44C451.33,703.58,450.46,702.76,449.19,702.74ZM588.71,144.16c.86-.08,1.65-1,2.47-1.48l0-1c-.8-.56-1.61-1.56-2.39-1.54a2.9,2.9,0,0,0-2,1.84A1.68,1.68,0,0,0,588.71,144.16ZM185.61,142a2.94,2.94,0,0,0-2-1.87c-.78,0-1.61,1-2.41,1.51,0,.32,0,.64,0,1,.81.54,1.59,1.43,2.45,1.52A1.69,1.69,0,0,0,185.61,142Zm274,560.37h-1c-.56.8-1.56,1.61-1.54,2.4a2.92,2.92,0,0,0,1.86,2,1.68,1.68,0,0,0,2.12-1.89C461,704,460.1,703.23,459.58,702.41ZM586,506.61a2.88,2.88,0,0,0,1.89,1.93c.77.07,1.64-.89,2.46-1.41,0-.32,0-.64,0-1-.79-.57-1.53-1.49-2.39-1.61A1.68,1.68,0,0,0,586,506.61Zm2.77-372.38c.86-.14,1.6-1,2.4-1.62,0-.32,0-.64,0-1-.83-.52-1.7-1.48-2.47-1.42a2.93,2.93,0,0,0-1.89,2A1.69,1.69,0,0,0,588.81,134.23Zm-99.5,568.16h-.94c-.53.83-1.52,1.7-1.46,2.48a2.87,2.87,0,0,0,2,1.87,1.68,1.68,0,0,0,2-2.07C490.74,703.85,489.86,703.15,489.31,702.39Zm7.49,2.32a2.85,2.85,0,0,0,1.85,2c.79.08,1.69-.88,2.54-1.38l0-.91c-.75-.56-1.44-1.43-2.27-1.62A1.7,1.7,0,0,0,496.8,704.71Zm12.32-2.33-.89,0c-.53.78-1.4,1.52-1.5,2.35a1.79,1.79,0,0,0,2.08,2.07c1.34-.07,2.21-.93,1.95-2.2C510.59,703.8,509.69,703.13,509.12,702.38Zm79.59-592a2.93,2.93,0,0,0-1.88,2,1.69,1.69,0,0,0,2,2c.86-.14,1.6-1.06,2.39-1.63l0-1C590.35,111.24,589.48,110.28,588.71,110.35Zm-405.1,4a1.69,1.69,0,0,0,2-2,2.91,2.91,0,0,0-1.87-2c-.77-.07-1.65.88-2.48,1.39l0,1C182,113.28,182.75,114.21,183.61,114.35ZM528.54,702.86a2.8,2.8,0,0,0-1.92,1.89,1.66,1.66,0,0,0,2,2c.88-.16,1.63-1,2.43-1.58,0-.31,0-.62,0-.93C530.19,703.75,529.32,702.79,528.54,702.86ZM184.83,516.61c-.13-.89-1-1.67-1.52-2.5l-.92,0c-.54.81-1.51,1.65-1.48,2.45a2.85,2.85,0,0,0,1.82,2A1.68,1.68,0,0,0,184.83,516.61Zm.78-414.36a2.91,2.91,0,0,0-2-1.84c-.78,0-1.59,1-2.39,1.56,0,.32,0,.64,0,1,.83.52,1.62,1.4,2.49,1.48A1.7,1.7,0,0,0,185.61,102.25ZM588.69,90.47a2.93,2.93,0,0,0-1.86,2,1.69,1.69,0,0,0,2,2c.86-.14,1.58-1.08,2.36-1.66l0-1C590.34,91.35,589.46,90.39,588.69,90.47Zm-1.86-8a1.69,1.69,0,0,0,2,2.06c.86-.12,1.61-1,2.4-1.59,0-.32,0-.65,0-1-.82-.52-1.68-1.49-2.45-1.43A2.92,2.92,0,0,0,586.83,82.47Zm-403.21,2a1.69,1.69,0,0,0,2-2c-.16-.87-1.06-1.61-1.63-2.41l-.92,0c-.5.84-1.44,1.71-1.36,2.5A2.82,2.82,0,0,0,183.62,84.52ZM539.07,702.41h-1c-.55.8-1.55,1.62-1.52,2.41s1.08,1.74,1.86,2a1.68,1.68,0,0,0,2.11-1.9C540.48,704,539.6,703.22,539.07,702.41ZM180.46,527c.83.51,1.69,1.48,2.47,1.41a2.89,2.89,0,0,0,1.88-1.95,1.69,1.69,0,0,0-2-2.05c-.86.13-1.6,1.05-2.39,1.62Zm407.6-2.59a1.68,1.68,0,0,0-2,2,2.93,2.93,0,0,0,1.84,2c.78.08,1.66-.87,2.5-1.37,0-.32,0-.64,0-1C589.64,525.51,588.91,524.58,588.06,524.43ZM538.88,45.7l.89,0c.56-.75,1.45-1.45,1.6-2.27.23-1.27-.63-2.13-2-2.18a1.81,1.81,0,0,0-2,2.11C537.45,44.2,538.34,44.93,538.88,45.7ZM588,538.36c.78,0,1.62-.93,2.43-1.47v-1c-.8-.55-1.57-1.45-2.43-1.56a1.69,1.69,0,0,0-1.93,2.1A2.89,2.89,0,0,0,588,538.36Zm-403.15,8.13c-.1-.9-.93-1.7-1.44-2.55l-.92,0c-.56.8-1.56,1.6-1.55,2.39a2.83,2.83,0,0,0,1.76,2A1.66,1.66,0,0,0,184.82,546.49Zm401.22,0a3,3,0,0,0,2,1.82c.77,0,1.57-1,2.37-1.57l0-1c-.83-.52-1.63-1.39-2.5-1.46A1.69,1.69,0,0,0,586,546.49ZM180.46,556.83c.83.52,1.69,1.48,2.47,1.41a2.88,2.88,0,0,0,1.88-1.94,1.69,1.69,0,0,0-2-2c-.86.13-1.6,1-2.39,1.62ZM588,554.25a1.68,1.68,0,0,0-2,2.08,2.89,2.89,0,0,0,1.91,1.91c.78.06,1.63-.92,2.45-1.45,0-.32,0-.64,0-1C589.61,555.27,588.85,554.36,588,554.25Zm-405.14,9.94c-.86.12-1.61,1-2.41,1.6,0,.32,0,.64,0,1,.82.52,1.67,1.5,2.45,1.44a2.91,2.91,0,0,0,1.9-1.94A1.68,1.68,0,0,0,182.85,564.19Zm2,12c-.16-.88-1-1.64-1.59-2.45h-.92c-.52.84-1.47,1.7-1.41,2.49a2.8,2.8,0,0,0,1.88,1.93A1.67,1.67,0,0,0,184.83,576.18Zm0,19.81c-.19-.88-1.09-1.6-1.67-2.4l-.92,0c-.48.85-1.41,1.74-1.33,2.53a2.84,2.84,0,0,0,2,1.87A1.67,1.67,0,0,0,184.83,596Zm-1.9,12a2.87,2.87,0,0,0,1.88-2,1.68,1.68,0,0,0-2-2c-.86.13-1.61,1-2.4,1.62,0,.32,0,.64,0,1C181.29,607,182.15,608,182.93,607.94ZM586,606.09a2.89,2.89,0,0,0,2,1.85c.78,0,1.59-1,2.39-1.54,0-.32,0-.65,0-1-.82-.52-1.61-1.4-2.47-1.49A1.7,1.7,0,0,0,586,606.09Zm2,11.79c.77,0,1.58-1,2.37-1.56,0-.32,0-.65,0-1-.83-.52-1.62-1.39-2.49-1.47a1.7,1.7,0,0,0-1.86,2.17A2.91,2.91,0,0,0,588,617.88ZM510,45.71c.55-.76,1.42-1.46,1.56-2.29a1.68,1.68,0,0,0-2-2.07,2.9,2.9,0,0,0-2,1.88c-.06.78.93,1.65,1.47,2.47Zm-10,0c.56-.8,1.46-1.53,1.6-2.39a1.67,1.67,0,0,0-2-2,2.89,2.89,0,0,0-1.94,1.87c-.06.78.9,1.64,1.42,2.47Zm-9.94,0c.56-.79,1.47-1.53,1.6-2.39a1.67,1.67,0,0,0-2-2,2.87,2.87,0,0,0-1.94,1.87c-.06.78.9,1.64,1.42,2.47Zm-9.87,0c.54-.77,1.4-1.48,1.54-2.31a1.69,1.69,0,0,0-2-2,2.9,2.9,0,0,0-2,1.89c-.05.79.95,1.64,1.49,2.47ZM180.46,626.41c.83.51,1.7,1.48,2.48,1.41a2.94,2.94,0,0,0,1.87-2,1.69,1.69,0,0,0-2-2c-.86.13-1.59,1.06-2.38,1.63C180.45,625.77,180.45,626.09,180.46,626.41ZM586,625.83a2.92,2.92,0,0,0,1.85,2c.77.08,1.66-.87,2.49-1.37,0-.32,0-.64,0-1-.78-.59-1.51-1.53-2.37-1.67A1.68,1.68,0,0,0,586,625.83ZM459.28,45.68l.89,0c.59-.73,1.5-1.39,1.68-2.21.29-1.26-.55-2.15-1.89-2.24a1.8,1.8,0,0,0-2.13,2C457.91,44.13,458.77,44.89,459.28,45.68Zm-9.89,0,.9,0c.57-.74,1.46-1.42,1.63-2.25.25-1.26-.6-2.13-1.95-2.19a1.8,1.8,0,0,0-2.08,2.07C448,44.18,448.87,44.91,449.39,45.69ZM183,633.76c-.86.07-1.66.94-2.48,1.46l0,1c.79.57,1.59,1.58,2.37,1.56a2.9,2.9,0,0,0,2-1.82A1.7,1.7,0,0,0,183,633.76ZM586,635.85a2.87,2.87,0,0,0,1.92,1.9c.78.06,1.62-.93,2.44-1.46v-1c-.8-.55-1.56-1.46-2.42-1.57A1.68,1.68,0,0,0,586,635.85ZM302.18,45.71h.9c.56-.76,1.47-1.46,1.6-2.29a1.81,1.81,0,0,0-2-2.15c-1.35,0-2.23.86-2,2.13C300.77,44.23,301.64,44.94,302.18,45.71Zm-19.93,0h.95c.56-.81,1.57-1.64,1.54-2.43s-1.13-1.75-1.92-1.93a1.68,1.68,0,0,0-2.05,2C280.88,44.19,281.73,44.92,282.25,45.7Zm-9.87,0h.95c.54-.81,1.52-1.65,1.48-2.44s-1.12-1.72-1.91-1.91a1.67,1.67,0,0,0-2.07,1.94C270.94,44.15,271.84,44.91,272.38,45.71Zm-89.46,598c-.86.09-1.65,1-2.46,1.51,0,.32,0,.64,0,1,.81.56,1.63,1.56,2.4,1.53a2.92,2.92,0,0,0,2-1.86A1.69,1.69,0,0,0,182.92,643.7Zm79.59-598,.95,0c.51-.83,1.47-1.7,1.4-2.48a2.87,2.87,0,0,0-1.95-1.86,1.67,1.67,0,0,0-2,2C261,44.2,261.94,44.93,262.51,45.72ZM182.62,657.66a1.77,1.77,0,0,0,2.26-1.81,1.84,1.84,0,0,0-1.91-2.22c-.83,0-1.63.82-2.45,1.27,0,.3-.07.6-.11.9C181.14,656.45,181.78,657.44,182.62,657.66Zm69.82-612,.95,0c.55-.82,1.57-1.65,1.54-2.44A2.93,2.93,0,0,0,253,41.35a1.69,1.69,0,0,0-2.05,2C251.07,44.19,251.92,44.92,252.44,45.7Zm333.6,620a2.91,2.91,0,0,0,1.92,1.91c.78,0,1.62-.93,2.44-1.46,0-.32,0-.64,0-1-.81-.55-1.57-1.46-2.43-1.57A1.68,1.68,0,0,0,586,665.66ZM222.67,45.71h.9c.56-.76,1.47-1.46,1.6-2.29a1.81,1.81,0,0,0-2-2.15c-1.35,0-2.23.86-2,2.13C221.26,44.23,222.13,44.94,222.67,45.71ZM589,299.17a1.78,1.78,0,0,0-2.27,1.8,1.85,1.85,0,0,0,1.91,2.22c.84,0,1.64-.82,2.45-1.27,0-.3.08-.6.11-.89C590.51,300.38,589.87,299.39,589,299.17Zm-407.77,2.58c.84.5,1.64,1.37,2.51,1.43A1.68,1.68,0,0,0,185.6,301a2.87,2.87,0,0,0-2-1.81c-.77,0-1.57,1-2.35,1.58ZM590.39,585.54c-.82-.52-1.61-1.39-2.48-1.47a1.69,1.69,0,0,0-1.87,2.15,2.93,2.93,0,0,0,2,1.84c.78,0,1.59-1,2.38-1.55C590.41,586.19,590.4,585.87,590.39,585.54Zm-1.67-296.28a2.91,2.91,0,0,0-1.89,1.94,1.69,1.69,0,0,0,2,2.05c.86-.13,1.6-1.05,2.4-1.62l0-1C590.36,290.15,589.49,289.19,588.72,289.26Zm.06-15.89c.86-.11,1.62-1,2.42-1.57v-1c-.81-.53-1.66-1.51-2.44-1.46a2.93,2.93,0,0,0-1.92,1.91A1.69,1.69,0,0,0,588.78,273.37Zm-407.52-1.44c.84.51,1.64,1.37,2.51,1.44a1.7,1.7,0,0,0,1.84-2.19,3,3,0,0,0-2-1.81c-.78,0-1.57,1-2.36,1.59Zm405.57-40.45a1.69,1.69,0,0,0,1.9,2.13c.86-.08,1.64-1,2.46-1.5,0-.33,0-.65,0-1-.81-.55-1.63-1.55-2.41-1.52A2.92,2.92,0,0,0,586.83,231.48ZM183.59,233.6a1.68,1.68,0,0,0,2-2c-.15-.87-1-1.62-1.6-2.43l-.91,0c-.51.83-1.46,1.7-1.4,2.48A2.82,2.82,0,0,0,183.59,233.6Zm-.76,221.26c-.86.13-1.6,1.06-2.39,1.63,0,.32,0,.64,0,1,.83.51,1.7,1.47,2.47,1.4a2.87,2.87,0,0,0,1.88-2A1.68,1.68,0,0,0,182.83,454.86Zm2.78-243.2a2.91,2.91,0,0,0-1.92-1.91c-.78-.06-1.62.92-2.44,1.44,0,.32,0,.65,0,1,.8.55,1.56,1.46,2.42,1.58A1.69,1.69,0,0,0,185.61,211.66ZM588.7,203.8c.87-.08,1.66-1,2.48-1.47l0-1c-.79-.57-1.6-1.58-2.38-1.56a2.88,2.88,0,0,0-2,1.83A1.69,1.69,0,0,0,588.7,203.8Zm-403.08-1.9c-.1-.88-.94-1.68-1.45-2.52l-.92,0c-.56.8-1.57,1.61-1.55,2.39a2.84,2.84,0,0,0,1.78,2A1.69,1.69,0,0,0,185.62,201.9Zm403.1-22a2.91,2.91,0,0,0-1.89,1.94,1.69,1.69,0,0,0,2,2c.86-.13,1.6-1,2.4-1.61,0-.32,0-.64,0-1C590.36,180.83,589.5,179.86,588.72,179.93ZM588,488.68c.78,0,1.6-1,2.41-1.52,0-.32,0-.64,0-1-.82-.53-1.6-1.42-2.46-1.51a1.69,1.69,0,0,0-1.9,2.13A2.92,2.92,0,0,0,588,488.68Zm3.18-337.19c-.83-.51-1.71-1.46-2.49-1.38a2.92,2.92,0,0,0-1.86,2,1.69,1.69,0,0,0,2,2c.86-.13,1.59-1.07,2.37-1.65ZM586,496.78a2.9,2.9,0,0,0,2,1.83c.78,0,1.59-1,2.38-1.55l0-1c-.83-.52-1.62-1.39-2.48-1.47A1.69,1.69,0,0,0,586,496.78ZM183.61,154.11a1.69,1.69,0,0,0,2-2,2.91,2.91,0,0,0-1.87-2c-.77-.08-1.65.88-2.48,1.38l0,1C182,153,182.75,154,183.61,154.11ZM183,504.56c-.87.07-1.67.94-2.5,1.45l0,1c.8.56,1.6,1.58,2.38,1.56a2.9,2.9,0,0,0,2-1.82A1.69,1.69,0,0,0,183,504.56Zm2.65-372.47a2.9,2.9,0,0,0-2-1.85c-.78,0-1.6,1-2.4,1.51v1c.82.53,1.6,1.42,2.47,1.51A1.69,1.69,0,0,0,185.61,132.09Zm403.08-11.8a2.92,2.92,0,0,0-1.86,2,1.69,1.69,0,0,0,2,2c.86-.14,1.59-1.08,2.37-1.66l0-1C590.35,121.17,589.47,120.21,588.69,120.29Zm-403.08,1.84a2.93,2.93,0,0,0-2-1.84c-.78,0-1.59,1-2.39,1.54l0,1c.82.52,1.61,1.41,2.47,1.49A1.7,1.7,0,0,0,185.61,122.13Zm401.23-19.91a1.69,1.69,0,0,0,1.84,2.19c.86-.06,1.67-.93,2.5-1.44l0-1c-.78-.57-1.58-1.6-2.36-1.58A2.9,2.9,0,0,0,586.84,102.22ZM549.75,45.71c.54-.76,1.42-1.46,1.56-2.29a1.69,1.69,0,0,0-2-2.07c-.79.16-1.93,1.18-2,1.88s.94,1.65,1.48,2.47Zm38.94,213.73a2.92,2.92,0,0,0-1.86,2,1.69,1.69,0,0,0,2,2c.86-.14,1.59-1.07,2.37-1.65l0-1C590.34,260.31,589.47,259.36,588.69,259.44ZM242.41,45.68l1,0c.59-.78,1.62-1.56,1.63-2.34a2.93,2.93,0,0,0-1.79-2,1.69,1.69,0,0,0-2.2,1.82C241.07,44,241.92,44.85,242.41,45.68Zm-8.79,0c.52-.78,1.39-1.53,1.48-2.36a1.67,1.67,0,0,0-2.07-2,2.91,2.91,0,0,0-1.9,2c0,.78,1,1.6,1.55,2.4ZM184.81,665.58a1.68,1.68,0,0,0-2-2c-.86.14-1.58,1.08-2.36,1.67,0,.32,0,.64,0,1,.84.49,1.73,1.43,2.5,1.35A2.89,2.89,0,0,0,184.81,665.58ZM586,566.27a2.91,2.91,0,0,0,1.91,1.92c.78,0,1.63-.93,2.45-1.46,0-.32,0-.64,0-1-.8-.56-1.56-1.47-2.42-1.58A1.69,1.69,0,0,0,586,566.27ZM528.9,45.69l.93,0c.56-.81,1.58-1.64,1.54-2.42s-1.11-1.75-1.91-1.95a1.68,1.68,0,0,0-2.06,2C527.5,44.17,528.37,44.91,528.9,45.69Zm-206.84,0H323c.54-.82,1.53-1.67,1.48-2.46s-1.17-1.73-2-1.89a1.69,1.69,0,0,0-2,2C320.65,44.23,321.52,44.94,322.06,45.71Zm-9.92,0h.9c.55-.77,1.45-1.48,1.58-2.3a1.81,1.81,0,0,0-2-2.14c-1.35,0-2.24.87-2,2.15C310.72,44.25,311.6,45,312.14,45.71ZM241.82,702.39c-.56.79-1.47,1.53-1.6,2.39a1.67,1.67,0,0,0,2,2,2.87,2.87,0,0,0,1.94-1.87c.06-.79-.9-1.65-1.42-2.47Zm9.82,0c-.52.78-1.37,1.51-1.49,2.34a1.7,1.7,0,0,0,2.06,2c.79-.18,1.89-1.23,1.92-1.93s-1-1.62-1.54-2.44ZM469.27,45.69l.89,0c.57-.75,1.47-1.42,1.63-2.25.27-1.27-.6-2.13-1.94-2.2a1.8,1.8,0,0,0-2.09,2.06C467.86,44.17,468.74,44.91,469.27,45.69ZM586,645.72a2.92,2.92,0,0,0,1.86,2c.77.08,1.65-.88,2.48-1.38,0-.33,0-.65,0-1-.79-.58-1.51-1.51-2.37-1.65A1.68,1.68,0,0,0,586,645.72ZM281.53,702.4c-.55.8-1.44,1.56-1.56,2.42a1.68,1.68,0,0,0,2.07,1.94c.79-.19,1.87-1.21,1.91-1.91s-.94-1.62-1.47-2.44ZM180.46,616.46c.83.52,1.69,1.48,2.46,1.41a2.87,2.87,0,0,0,1.89-1.94,1.68,1.68,0,0,0-2-2c-.86.13-1.61,1-2.4,1.62C180.45,615.82,180.45,616.14,180.46,616.46ZM520,45.71c.54-.81,1.43-1.57,1.54-2.43a1.67,1.67,0,0,0-2.08-1.93,2.89,2.89,0,0,0-1.9,1.92c0,.78,1,1.62,1.49,2.43ZM588,598c.77,0,1.6-1,2.4-1.5v-1c-.82-.54-1.59-1.43-2.45-1.52a1.69,1.69,0,0,0-1.91,2.12A2.9,2.9,0,0,0,588,598ZM321.68,702.82c-.79.19-1.88,1.25-1.9,1.94s1,1.62,1.57,2.43l.93,0c.52-.79,1.37-1.53,1.48-2.36A1.69,1.69,0,0,0,321.68,702.82Zm-138.48-414c-.55.81-1.53,1.64-1.5,2.42a2.86,2.86,0,0,0,1.82,2,1.69,1.69,0,0,0,2.1-1.93c-.12-.88-1-1.66-1.49-2.48Zm-.41,299.28a1.66,1.66,0,0,0,2-2c-.16-.89-1-1.64-1.59-2.45h-.92c-.52.84-1.47,1.7-1.42,2.49A2.84,2.84,0,0,0,182.79,588.09ZM469.46,702.4h-.95c-.54.83-1.53,1.68-1.48,2.47s1.17,1.73,2,1.89a1.69,1.69,0,0,0,2-2.06C470.87,703.87,470,703.16,469.46,702.4Zm9.38.46a2.83,2.83,0,0,0-1.92,1.9,1.67,1.67,0,0,0,2,2c.88-.17,1.62-1,2.42-1.59,0-.31,0-.62,0-.93C480.49,703.74,479.62,702.79,478.84,702.86ZM588.05,574.13a1.68,1.68,0,0,0-2,2,2.9,2.9,0,0,0,1.86,2c.77.08,1.65-.87,2.48-1.38l0-1C589.63,575.2,588.9,574.27,588.05,574.13Zm.69-290.82c.86-.1,1.64-1,2.45-1.52v-1c-.8-.55-1.63-1.55-2.4-1.52a2.93,2.93,0,0,0-2,1.87A1.7,1.7,0,0,0,588.74,283.31Zm-403.13-2.1a2.89,2.89,0,0,0-1.93-1.89c-.78-.05-1.62.93-2.43,1.46,0,.33,0,.65,0,1,.81.55,1.57,1.45,2.44,1.56A1.69,1.69,0,0,0,185.61,281.21ZM519.24,702.42l-1,0c-.57.8-1.58,1.6-1.56,2.38a2.88,2.88,0,0,0,1.83,2,1.68,1.68,0,0,0,2.14-1.86C520.61,704,519.75,703.24,519.24,702.42Zm68.64-48.78a1.7,1.7,0,0,0-1.84,2.19,2.91,2.91,0,0,0,2,1.8c.78,0,1.57-1,2.36-1.59,0-.32,0-.64,0-1C589.55,654.57,588.74,653.7,587.88,653.64ZM292.34,45.72l.89,0c.53-.78,1.41-1.51,1.51-2.34a1.8,1.8,0,0,0-2.08-2.07c-1.34.06-2.21.92-2,2.19C290.87,44.3,291.77,45,292.34,45.72Zm256,656.65c-.64.73-1.64,1.37-1.86,2.22a1.66,1.66,0,0,0,1.81,2.17,2.93,2.93,0,0,0,2.13-1.68c.15-.77-.72-1.73-1.15-2.6Zm-365.54-164a2.93,2.93,0,0,0,2-1.84,1.69,1.69,0,0,0-1.87-2.16c-.86.08-1.65,1-2.48,1.49,0,.32,0,.64,0,1C181.24,537.38,182.05,538.39,182.82,538.37ZM586,516.66a2.91,2.91,0,0,0,2,1.83c.78,0,1.58-1,2.37-1.56l0-1c-.82-.52-1.62-1.39-2.48-1.46A1.7,1.7,0,0,0,586,516.66ZM376.17,114.82c-2.06.84-4.85-.45-6.39,2,.46,1.82,1.82,1.77,3.05,1.78q12.1,0,24.21,0c1.51,0,3.34.22,3.68-1.8.37-2.18-1.64-2.14-3.23-2.64V87.31c.55-.06,1.13-.14,1.71-.16,1.41-.05,2.59-.52,2.55-2.13s-1.29-2-2.67-2c-9.79.23-19.58.46-29.37.76a8.86,8.86,0,0,0-2.5.9l-.06.82,2.93,1.72ZM393.9,87.25v27.14H382l6.65-26.76Zm-9.67.5c-1.73,6.89-3.39,13.52-5.2,20.71l-5.44-20.71Z"/></svg>