<svg xmlns="http://www.w3.org/2000/svg" viewBox="0 0 750 750"><path d="M606.11,374.86V50.78c0-1.19,0-2.38,0-3.57C605.9,34.35,596.4,25,583.54,25h-397a21.87,21.87,0,0,0-21.9,21.85q0,328.16,0,656.31a20.81,20.81,0,0,0,.59,4.91c2.63,10.65,11.17,16.93,22.92,16.93H583.78c8.15-.14,14.54-3.52,19-10.4,2.7-4.16,3.35-8.81,3.35-13.67Q606.1,537.9,606.11,374.86ZM602,701.77c0,11.52-7.52,19.11-19,19.11H187.59c-9.33,0-16.38-5.28-18.41-13.83a19.61,19.61,0,0,1-.47-4.33q0-327.75,0-655.51a17.74,17.74,0,0,1,18.13-18.09q198.53,0,397,0A17.78,17.78,0,0,1,602,46.85c0,1.46,0,2.92,0,4.37V701.77ZM522.37,466.29c.79-5.37-4.06-12.05-9.38-13.15a2.85,2.85,0,0,0-3.37,1.37,33.25,33.25,0,0,1-3.34,4.16c-4.68,5.13-11,7.66-17.23,10a77.22,77.22,0,0,0-21.35,12.45c-4.27,3.39-8.07,7.28-10.25,12.46-.68,1.62-4.17,2.54-5.55,1.53-3.75-2.75-7.71-2.38-11.69-.73-.73.3-1.7,1.28-1.65,1.86a3.87,3.87,0,0,0,1.63,2.2c.88.66,2,1,3,1.55,2.08,1.32,2.13,2.2.2,3.73-1,.81-1.63,1.62-1.21,3a1.83,1.83,0,0,1-.73,1.52c-2.17,1.51-4.48,2.83-6.64,4.35-10.83,7.63-21.68,15.24-32.4,23a32.25,32.25,0,0,1-8.27,4.54c-9.29,3.32-18.07,2.75-26.26-3.13a2.84,2.84,0,0,1-1.49-2.7c.09-2.58-1.8-4.9-4.07-4.74s-3.24-.94-4.26-2.46a27.59,27.59,0,0,1-2.1-3.13,6,6,0,0,1-.5-2.86c.11-1.72,0-3.64-1.76-4-2.32-.46-2.82-2.08-3.53-3.72-.9-2.07-2.31-4-1.51-6.53a2.26,2.26,0,0,0-.93-2c-1.44-.74-1.82-2-2.21-3.34-1.06-3.62-2.15-7.23-3.1-10.88-.84-3.18-1.51-6.4-2.25-9.61a11.91,11.91,0,0,1,3.21,1.82c2.68,1.93,5.25,4.07,8.08,5.77,10.46,6.25,20.94,12.48,31.55,18.46,5.19,2.92,10.67,5.32,16.08,7.82.82.38,2,.06,3,.06-.14-.93,0-2.06-.46-2.76a123.92,123.92,0,0,0-7.36-10.09c-3-3.52-6.28-6.75-9.72-10.38.95.08,1.51.1,2.07.18a27.15,27.15,0,0,0,13.32-1.12c6.4-2.24,11.4-6.38,15.65-11.51a2.48,2.48,0,0,1,2.83-1.1,6.44,6.44,0,0,0,5.83-1.87c1-.89,2.66-2,1.54-3.33s-2.32.2-3.42.85-2,1.05-3,1.57a114.34,114.34,0,0,1,5.48-10.67c.25-.43,1-.57,1.59-.78a30.84,30.84,0,0,0,4.18-1.6c.45-.24.44-1.33.64-2a6.59,6.59,0,0,0-2-.17,18.21,18.21,0,0,0-2.85,1.22c.84-2.14,1.52-3.78,2.12-5.44.66-1.85,1.13-3.66,3.48-4.32.8-.22,1.22-1.76,1.81-2.7l-2.55-1.19c.07-.27.26-.84.39-1.42,1.37-6.27,2.94-12.5,4-18.83a7.86,7.86,0,0,1,2.87-5.29c3.07-2.53,6-5.17,9-7.83,1.07-1,1.89-2.23,3.69-1.45a2.11,2.11,0,0,0,1.67-.42,2.56,2.56,0,0,1,3.34,0c3.51,2.21,10.3.72,12.69-2.61a1.77,1.77,0,0,0,.34-1.41c-.14-.33-.82-.48-1.29-.61a21.7,21.7,0,0,1-3.39-1c-1.67-.83-1.63-1.44-.31-2.79.59-.6,1-1.38,1.54-2,.36-.41.8-1,1.26-1,6.32-.93,11.49-4.25,15.88-8.51,5-4.82,9.45-10.18,14.08-15.36,2-2.22,3.7-4.68,5.72-6.86a27.69,27.69,0,0,1,15.62-8.89c1.17-.21,2.33-.45,2.56-2,.81-5.4-4.32-12.47-9.7-13.35a2.77,2.77,0,0,0-3,1.31,42.78,42.78,0,0,1-3.61,4.45c-4.66,5.05-10.92,7.53-17.1,9.8a76.89,76.89,0,0,0-21,12.23c-4.39,3.45-8.3,7.41-10.54,12.72-.6,1.41-4.15,2.51-5.25,1.67-3.82-3-7.9-2.63-12-.91a2.82,2.82,0,0,0-1.6,1.92c0,.7.83,1.57,1.51,2.07.95.69,2.17,1,3.17,1.64,2,1.26,2.05,2.17.24,3.61-1.08.85-1.77,1.69-1.3,3.2.12.38-.37,1.18-.8,1.48-2.18,1.5-4.49,2.82-6.64,4.35C421.58,413.87,410,422,398.55,430.41a30,30,0,0,1-10.63,5.09,25.3,25.3,0,0,1-20.87-3.26c.55-3.49-.3-4.09-4.49-2.51a41.86,41.86,0,0,0-3.24-3.88,3.3,3.3,0,0,1-.85-4.35c1-2.24.75-2.91-1.6-3.7-4.62-1.55-7.21-4.84-8.57-9.44,1.29-.77,3.09-1.75,2.07-3.38-.6-1-2.58-1.05-4.51-1.74-3.63-8.72-6.14-18.55-8.15-28.53,6,3.9,11.73,7.64,17.46,11.43a319.19,319.19,0,0,0,35.4,20.11c2.67,1.32,5.42,2.49,8.17,3.61a2.19,2.19,0,0,0,2-.26,2.24,2.24,0,0,0,0-2,13.58,13.58,0,0,0-2-3.44c-4.44-5.25-9-10.44-13.46-15.64l-1.47-1.68a30.88,30.88,0,0,0,13.31-.62,9.21,9.21,0,0,1,3.23-.22c1.5.1,2.35-.61,3.33-1.68a66.74,66.74,0,0,1,5.79-5.21c.2-.17.76,0,1.12.11a4.72,4.72,0,0,0,6-5.42c-.63-2.42.52-3.77,1.64-5.29a3.08,3.08,0,0,1,2.15-1.13,5.55,5.55,0,0,0,5.65-6.2,16.4,16.4,0,0,0-.91-3.65c-.64-1.78.67-5.14,2.43-5.92a4.41,4.41,0,0,0,2.21-5.83,5.27,5.27,0,0,1-.29-2.91c1.44-6.72,3.24-13.38,4.37-20.16a9,9,0,0,1,3.32-5.9c3.44-2.91,6.58-6.21,10.21-8.83,1.64-1.18,4.18-1.1,6.32-1.56.14,0,.32.22.49.32,4.07,2.42,10.06,1.57,13.11-1.93a2.55,2.55,0,0,0,.57-1.73c0-.23-1-.4-1.48-.59a35.66,35.66,0,0,1-3.82-1.43,1.7,1.7,0,0,1-.32-1.58c1.8-1.81,2.9-4.68,6.2-4.39a2,2,0,0,0,.76-.24c6.33-2.12,11.45-6.14,15.92-10.89,4.62-4.91,9-10.12,13.16-15.4,5.08-6.39,11.05-11.17,19.31-12.67a2.94,2.94,0,0,0,1.89-1.87c.94-5.3-4.11-12.25-9.46-13.27a2.91,2.91,0,0,0-3.33,1.48,34.75,34.75,0,0,1-3.36,4.14c-3.75,4.16-8.71,6.49-13.77,8.45-8.21,3.18-16,7-23,12.45-4.92,3.89-9.49,8.06-12.06,14-.62,1.41-4.16,2.46-5.27,1.61-3.83-2.94-7.91-2.59-12-.88-.69.29-1.64,1.22-1.57,1.74a3.93,3.93,0,0,0,1.55,2.25c.93.71,2.16,1,3.16,1.65,2,1.26,1.93,2.06.23,3.66-.64.61-1.5,1.7-1.33,2.34.4,1.58-.27,2.17-1.48,2.7a11.42,11.42,0,0,0-2.07,1.18l-38.06,27.08a28,28,0,0,1-23.89,4.69c-.82-.2-1.43-1.15-2.22-1.62a6.2,6.2,0,0,0-2.68-1.16c-1.64,0-5.26-1.71-5.6-3.24a3.65,3.65,0,0,0-3.07-2.93,5,5,0,0,1-3.3-4.74,3.24,3.24,0,0,0-2.33-3.52,6.66,6.66,0,0,1-4.26-6.22,4,4,0,0,0-1.32-2.66,8.66,8.66,0,0,1-3.3-7.47,3.68,3.68,0,0,0-.86-2.64,6.18,6.18,0,0,1-2.28-6.59c.11-.51,0-1.44-.37-1.63-1.85-1.05-1.85-3-2.28-4.62-1-3.69-1.77-7.42-2.74-11.55.81.47,1.21.67,1.57.92,5.81,3.93,11.59,7.91,17.42,11.8a316.52,316.52,0,0,0,35.82,20.19,70.39,70.39,0,0,0,6.56,2.82,2.57,2.57,0,0,0,2.15-.3c.32-.26.18-1.37-.06-2a12,12,0,0,0-1.75-3.11c-3.52-4.3-7.07-8.57-10.7-12.77-1.76-2-3.71-3.88-5.78-6a10.3,10.3,0,0,1,1.27,0,28.23,28.23,0,0,0,22-5.09,3.85,3.85,0,0,1,2.19-.48c2.83.08,5.61-1.87,5.42-4.35-.16-2.06.8-3.31,1.86-4.74,1.59-2.15,3.06-4.39,4.76-6.85a7.27,7.27,0,0,0,.4,2,11,11,0,0,0,1.43,1.72c.57-.55,1.4-1,1.66-1.66a9.1,9.1,0,0,0,.35-2.93c0-1.05.3-1.71,1.54-1.83a6.16,6.16,0,0,0,1.94-1c-.52-.68-.91-1.6-1.6-2-.92-.53-1.25-1-.95-2,.91-3.16,1.74-6.34,2.71-9.48.16-.52.82-1,1.34-1.28a4.37,4.37,0,0,0,1.69-6.11,2.89,2.89,0,0,1-.27-1.81c1.08-5.32,2.17-10.64,3.39-15.92a6.43,6.43,0,0,1,1.68-3.17c4-3.71,8.05-7.29,12.13-10.87a3.18,3.18,0,0,1,1.41-.46c1.17-.24,2.35-.49,3.54-.64a3.24,3.24,0,0,1,1.92.14c3.95,2.33,10.21,1.39,13.12-2.11a2,2,0,0,0,.53-1.55c-.11-.35-.91-.52-1.42-.69A26,26,0,0,1,463,196c-1.18-.57-1.44-1.45-.23-2.44.6-.49,1-1.24,1.55-1.77a7.65,7.65,0,0,1,2.18-1.61c2.15-.83,4.53-1.18,6.53-2.26a54.15,54.15,0,0,0,16.14-13.65c3.73-4.57,7.43-9.16,11.29-13.61,4.46-5.14,9.89-8.78,16.74-10,1.2-.21,2.27-.56,2.45-2.13.61-5.42-4.13-12.05-9.47-13.16a2.89,2.89,0,0,0-3.37,1.38,35.84,35.84,0,0,1-3.49,4.3c-4.71,5.09-11,7.59-17.27,9.89a76.12,76.12,0,0,0-22.38,13.41c-3.75,3.14-7.14,6.72-9,11.43-.66,1.62-4.16,2.52-5.54,1.51-3.76-2.74-7.72-2.37-11.7-.72-.73.3-1.7,1.28-1.65,1.87a3.85,3.85,0,0,0,1.63,2.19c.89.67,2.05.95,3,1.55,2.08,1.31,2,2.09.24,3.78-.64.6-1.43,1.73-1.25,2.38.42,1.53-.31,2-1.41,2.55a15.45,15.45,0,0,0-2.24,1.28c-10,7-20.1,13.81-29.93,21-9.56,7-19.28,13.9-27.11,22.93-3.81,4.39-7.21,9.12-10.69,13.78-.46.61-.29,1.7-.41,2.57.93,0,2,.39,2.76.07,3-1.27,6.06-2.68,9-4.17,17.22-8.71,33.95-18.26,49.43-29.86.48-.36,1-.68,1.49-1l.45.32c-1.26,4.85-2.51,9.71-3.8,14.55a1.47,1.47,0,0,1-.72.86c-2.42,1.1-2.27,3.13-2,5.25a5.36,5.36,0,0,1-.1,2.26,22.06,22.06,0,0,1-2.08,5.14,13.91,13.91,0,0,1-3.84,3.88c-.59.4-1.94-.33-2.95-.54a2.84,2.84,0,0,0-1.16-.18,2.41,2.41,0,0,0-1.25.74c-.1.13.3.8.6,1.09.62.58,1.33,1.06,2.15,1.7a29,29,0,0,0-3.07,3,2.27,2.27,0,0,0-.19,2.09c.27.4,1.33.36,2,.33a4.08,4.08,0,0,0,1.31-.55l.42.45c-1.86,2.44-3.7,4.9-5.61,7.3-.22.28-.82.34-1.25.35-3.1.13-4.25,1.12-4.88,4.12a3.75,3.75,0,0,1-.93,2c-8.21,6.86-22.86,7-31.34.35a476.68,476.68,0,0,0-42.21-29.77c-.42-.26-1-1-.87-1.29.71-1.8-.28-2.72-1.54-3.64s-1.31-2.12.06-3,2.57-1.35,3.84-2.06c1.81-1,2-2.88.28-3.68-3.67-1.7-7.58-2.63-11.17-.13a4.26,4.26,0,0,1-5.34.2,5.27,5.27,0,0,1-1.45-1.45c-1.12-1.71-2-3.6-3.25-5.19-5.8-7.33-13.44-12.37-21.61-16.56-5-2.56-10.34-4.45-15.45-6.8a26.55,26.55,0,0,1-11.83-10.26c-.92-1.5-2.14-1.59-3.6-1.21-4.91,1.27-9.13,6.88-9.2,12,0,2,.69,2.91,2.61,3.25,7.51,1.34,13.12,5.62,17.85,11.39s9.23,11.3,14.19,16.62c4.31,4.61,9.28,8.56,15.42,10.57,2.53.83,5,1.23,6.57,3.9,1.07,1.8,1.41,2.26-.55,3.17a19.24,19.24,0,0,1-2.85.75c-.53.15-1.46.35-1.48.59a2.6,2.6,0,0,0,.58,1.72c3.06,3.5,9.05,4.35,13.12,1.94.36-.21,1-.51,1.22-.36,1.47.85,2.91,1.58,4.68.9.19-.08.59.23.83.44,4.25,3.79,8.51,7.57,12.72,11.41a3.51,3.51,0,0,1,1,1.83c.84,4.55,1.65,9.11,2.38,13.68.29,1.84.28,3.74.55,5.59a5,5,0,0,0,.94,1.84c1.21,1.84,2.12,3.73,1.49,6-.46,1.69-.31,3.1,1.61,3.91,1.29.54,2.85,4.82,2.39,6.05-.93,2.45-.18,4,2.35,4.88,1.59.56,3.32,4,2.83,5.64-.7,2.35.33,4.44,2.6,4.65,3.21.3,4.24,2.44,5.14,5.05a3.77,3.77,0,0,0,2.17,2.2,14.71,14.71,0,0,1,7.81,5.15,4.34,4.34,0,0,0,2.38,1c1,.18,2,0,3,.13a61.33,61.33,0,0,0,6.28.82c2.63,0,5.27-.31,8.19-.51-.69.63-1.26,1.08-1.76,1.59-5.5,5.56-11.16,11-15.46,17.59a23.09,23.09,0,0,0-2,3.65c-.61,1.49.16,2.37,1.75,2a14.72,14.72,0,0,0,3.34-1.23c6-3,12.13-6,18.05-9.21,13.38-7.3,26.54-15,38.65-24.31.56-.43,1.16-.8,1.79-1.23.11.31.21.45.18.55-1.69,6.6-3.38,13.2-5.13,19.78a2,2,0,0,1-1.05,1c-2.86,1.33-3.61,3.36-2.28,6.28.73,1.57-1,4.78-2.69,5a6.75,6.75,0,0,0-5.15,9c.84,1.92-1.3,5.55-3.46,5.85s-3.85,1.47-4,3.73c-.16,2.9-2.49,3.67-4.21,5.08-.22.18-.74.11-1.08,0-2.51-.71-3.24-.35-4.38,1.94a3.14,3.14,0,0,1-1.5,1.62c-8,2.35-15.7,2.09-22.57-3.33a476.56,476.56,0,0,0-43.91-31.14c-.45-.28-1-1.11-.9-1.45.62-1.72-.34-2.55-1.5-3.48-1.49-1.18-1.48-2,.09-3.12,1.19-.81,2.59-1.32,3.84-2.05,1.78-1,1.87-2.87.08-3.68-3.84-1.74-7.83-2.48-11.53.17-1.57,1.12-2.7,1-4.28.28a4.42,4.42,0,0,1-2.38-2.39,23.55,23.55,0,0,0-2.86-4.51c-5.91-7.41-13.63-12.54-22-16.75-4.9-2.48-10.1-4.34-15.09-6.63a26.81,26.81,0,0,1-12-10.39c-.94-1.52-2.23-1.47-3.65-1.08-4.86,1.34-9,6.85-9.08,11.9,0,2.06.74,3,2.73,3.36,7.36,1.31,12.89,5.52,17.56,11.14s9.31,11.41,14.31,16.78c4.4,4.71,9.48,8.74,15.78,10.74,2.34.74,4.57,1.09,6.07,3.6,1.27,2.11,1.55,2.64-.83,3.58-.73.28-1.55.31-2.31.53-.57.17-1.31.32-1.6.74-.18.27.23,1.11.58,1.52,2.53,3,8.35,4.31,11.9,2.71.66-.3,1.3-1.15,1.85-1.06,2.11.32,4.63.32,6.16,1.51,4.54,3.53,8.7,7.55,13,11.42a3.5,3.5,0,0,1,1.12,1.74c1,5.59,1.73,11.25,3,16.77s3.11,10.65,4.51,15.34c-.83,1.52-2.17,2.83-1.95,3.8.49,2.18,2.59,1,3.92,1.08,2.53,3.32,3.31,6.78,1.41,10.59a7.23,7.23,0,0,0-.41,1.32,2.27,2.27,0,0,0,1.28,3c1.91.9,3.74,2.17,5.76,2.62,3.09.69,5.21,2.51,7.27,4.65.81.84,1.58,1.43,1,2.81a2,2,0,0,0,.68,1.84c.45.28,1.33,0,2-.18a3.37,3.37,0,0,0,1-.72c8.23,4.45,10.17,4.79,22.4,3.86l-.86.95c-3.48,3.64-7.11,7.15-10.38,11a89.65,89.65,0,0,0-6.52,9.23c-.43.66-.27,1.71-.39,2.58a13,13,0,0,0,2.78,0,9.63,9.63,0,0,0,2.56-1.06c6.44-3.27,12.95-6.39,19.27-9.88,12.23-6.76,24.32-13.78,35.48-22.27,1.24-.94,2.52-1.83,3.78-2.75l.51.3-5.68,21.68a16.27,16.27,0,0,0-1.91-1.17,8.43,8.43,0,0,0-1.51-.31,4.15,4.15,0,0,0,.06,1.66,11.72,11.72,0,0,0,1.38,1.65c.26.34.67.85.58,1.11-1,2.65-2.09,5.26-3.16,7.88a2.83,2.83,0,0,1-.77-1.25,15.49,15.49,0,0,0-1-1.41c-.33.44-.95.9-.93,1.33a18.45,18.45,0,0,0,.64,3.16c.12.46.6,1.07.44,1.34-1.92,3.42-3.92,6.79-5.91,10.17l-1-.26c0-1.58,0-3.15,0-4.73a13.09,13.09,0,0,0-.27-1.74c-.52.42-1.28.73-1.51,1.28a7.15,7.15,0,0,0,.07,6.51,1.81,1.81,0,0,1-.28,2.45c-3.49,3.89-7.38,7.31-12.25,9.3-9.36,3.81-18.33,2.95-26.41-3.28-13.75-10.6-27.78-20.81-42.54-30-.45-.28-1-1.1-.88-1.45.55-1.61-.25-2.45-1.38-3.35-1.67-1.32-1.65-2.19.12-3.36,1.15-.77,2.49-1.24,3.69-1.93,1.7-1,1.86-2.81.22-3.58-3.67-1.72-7.57-2.64-11.18-.19-1.95,1.32-3.53,1.41-5.33.25a5.54,5.54,0,0,1-1.55-1.61c-.9-1.38-1.52-3-2.54-4.24-7.33-9.09-16.77-15.24-27.5-19.64a86.62,86.62,0,0,1-13.59-6.51c-3.15-2-5.7-5.06-8.18-7.95-1.24-1.44-2.29-2-4-1.5-4.76,1.35-9,6.78-9,11.73,0,2.59.24,3,2.74,3.5,7.28,1.38,12.79,5.49,17.43,11s9.37,11.52,14.43,16.93C289,446,294.24,450.06,300.7,452c2.16.66,4.19.92,5.57,3.33s1.58,3-1.13,3.86c-.68.22-1.43.21-2.14.37-.47.12-1.26.29-1.31.56a2.22,2.22,0,0,0,.41,1.58c2.44,3.18,8.87,4.53,12.41,2.66.52-.28,1.06-1,1.49-.91,2.09.38,4.62.35,6.14,1.56,5,3.94,9.6,8.34,14.31,12.6a2.85,2.85,0,0,1,.93,1.64,122.76,122.76,0,0,0,5.21,23.82,3.28,3.28,0,0,1-.28,3.13,2.08,2.08,0,0,0,1,3.3c1.68.57,2.09,1.8,2.62,3.14s1.36,2.89,1.85,4.39a4.52,4.52,0,0,1,.07,2.55c-.76,2.51.22,4.23,2.84,4.86a2.91,2.91,0,0,1,1.54,1q2,2.73,3.8,5.59a2.12,2.12,0,0,1,.19,1.73,5,5,0,0,0,.71,5.75,4.69,4.69,0,0,0,5.46,1.29,3.07,3.07,0,0,1,3.2.65,27.29,27.29,0,0,0,17.68,5.45c2.16-.12,4.3-.48,6.66-.75-.39.44-.67.77-1,1.09-3.91,4.05-8,8-11.68,12.19a81,81,0,0,0-6.52,9.22c-.44.66-.28,1.71-.39,2.59a13.73,13.73,0,0,0,2.79,0,10.16,10.16,0,0,0,2.56-1.07c6.49-3.3,13.11-6.38,19.43-10,9.5-5.41,19-10.9,28.12-16.87,9.61-6.27,18.07-14.06,26.56-21.77a4.82,4.82,0,0,1,2-.83,24.42,24.42,0,0,1,3.18-.6,3.65,3.65,0,0,1,2.08,0c3.94,2.32,10.22,1.38,13.12-2.11a2.05,2.05,0,0,0,.54-1.56c-.11-.34-.91-.51-1.43-.68a26,26,0,0,1-3.54-1.12c-1.17-.57-1.42-1.42-.23-2.45a24.37,24.37,0,0,0,1.8-2.3,2.71,2.71,0,0,1,1.33-1c5.6-.82,10.08-3.83,14.39-7.22C489.19,496,494,490,498.7,483.93c5.84-7.47,12.09-14.12,22.06-15.75A2.72,2.72,0,0,0,522.37,466.29Zm-5.6-319.84c0,.35-.38.7-.58,1.06-.29-.2-.8-.35-.85-.6a13,13,0,0,0-5.6-8.14C513.06,139.27,516.72,143.38,516.77,146.45Zm-14.24-.18q2.34-2.27,4.75-4.46a1.21,1.21,0,0,1,.91-.13c1.42.33,4.82,4.71,4.74,6.39a5.34,5.34,0,0,1-1,.7c-1.32.62-2.64,1.22-4,1.74-.8.3-2.1.89-2.43.58a29.79,29.79,0,0,1-3.24-4.13C502.2,146.85,502.36,146.43,502.53,146.27ZM458,174.92a60,60,0,0,1,11.24-11.17A74.56,74.56,0,0,1,489.3,153c3.48-1.18,6.77-2.93,10.22-4.45.65.84,1.55,1.56.13,2.57-5.29,3.75-10.55,7.55-15.83,11.32a6.7,6.7,0,0,1-.8.39c-.78-2.06,1.66-2.16,2.08-4.07-1.15.25-2.21.2-2.89.68a4.74,4.74,0,0,0-2.39,4.51c.18,1.68-.56,2.07-2.11,1.85-2.92-.41-4.57.85-5.26,3.81a4.11,4.11,0,0,1-4.47,2.82c-3.1-.66-5.45,1.15-5,4,1.48-1.18,3-2.64,4.77-.72,1.22,1.31.8,2.54-1.41,4.76,2,.77,4.47-1.12,4.59-3.54.13-2.68,1.94-4,4.51-3.42a3.54,3.54,0,0,0,4.67-3.47c.15-2.05.75-2.58,2.84-2.13a4.41,4.41,0,0,0,5.31-4.11l-3.23,1.73-.39-.6c.52-.44,1-.9,1.56-1.32,4.8-3.75,9.65-7.45,14.4-11.26,1.52-1.22,2-.21,2.47.45-6.84,8.08-13.37,16.15-20.31,23.85a36.65,36.65,0,0,1-17.4,11c-1.85.52-3.15.32-4.17-1.42a60.6,60.6,0,0,0-3.59-5.47C456,178.71,456.48,176.82,458,174.92Zm-16.92,3.88a7,7,0,0,1,7.12,1.51c1.43,1.26,2.62,1.31,4,.25,1.08-.81,1.68-.64,2.44.6,1.84,3,3.86,5.82,5.92,8.64.58.81.66,1.27-.06,2-2.54,2.55-2.43,3.91.42,6.26l1,.85a4.94,4.94,0,0,1-5.37-.06,4.08,4.08,0,0,0-4.8,0c-1.59,1-2.64.59-3.55-.93-1.71-2.82-3.52-5.58-5.18-8.43a2.07,2.07,0,0,1,.2-1.85c2.22-2.66,2.09-5.06-.54-7.38Zm-64.3,65.3c-.78.59-1.59,1.14-2.39,1.72l-.44-.4c.83-1,1.64-2,2.5-3a170.49,170.49,0,0,1,21.67-20.37A361.77,361.77,0,0,1,432,198.19c3-1.83,5.85-3.78,8.81-5.7l5.79,8.17-2.31,1.77c-2.85-3.89-6.1-4.4-10.35-1.52-4.44,3-8.83,6.11-13.09,9.35-8.84,6.74-17.57,13.63-26.39,20.41C388.63,235.19,382.69,239.63,376.78,244.1Zm48.28-26.6c-10.91,7.23-22.13,14-33.26,20.93-2.73,1.7-5.61,3.16-8.42,4.74l-.36-.52c1.12-.9,2.21-1.82,3.36-2.69,9.74-7.41,19.44-14.89,29.27-22.18,6.69-5,13.53-9.76,20.43-14.45,1.18-.8,3-.83,4.49-1,.46,0,1.16.68,1.41,1.21.13.27-.4,1-.8,1.34C435.84,209.15,430.73,213.74,425.06,217.5Zm-171.93-19a1.13,1.13,0,0,1-.82.62c-.24,0-.61-.46-.65-.76-.38-2.83,4-7.77,6.64-7.92-1.34,1.71-2.87,3.54-4.24,5.48A14.57,14.57,0,0,0,253.13,198.5Zm7.56,3.87a24.42,24.42,0,0,0-4.14-1.85c-1.07-.4-1.31-1-.78-2a27,27,0,0,1,1.42-2.37c2.35-3.37,3.12-3.44,6.09-.7.73.67,1.47,1.33,2.18,2a14,14,0,0,1,1,1.22c-.84,1.07-1.68,2.06-2.42,3.12C263.06,203.23,262.07,203.21,260.69,202.37Zm42.83,37.18a29.84,29.84,0,0,1-12.15-6.14,81.62,81.62,0,0,1-9-8.67c-3.91-4.4-7.48-9.11-11.27-13.62-1.83-2.16-3.85-4.16-5.91-6.37.54-.75.93-1.95,2.51-.7,4.88,3.87,9.82,7.66,14.72,11.49.45.35.85.75,1.28,1.13-.12.19-.23.38-.34.57l-3.16-1.64c-.27,2.3,2.39,4.64,5.13,4.05,2.21-.47,2.78.11,2.94,2.23.21,2.74,2.28,4,4.94,3.27a3.39,3.39,0,0,1,4.23,3.23,3.85,3.85,0,0,0,4.58,3.92c-2.17-2.49-2.56-3.74-1.33-4.93,1.75-1.7,3.22-.5,4.59.81.67-2.37-1.43-4.47-4-4.2-3.39.35-4.44-.32-5.54-3.54a4.11,4.11,0,0,0-4.78-2.95c-1.89.33-2.52-.21-2.39-2.15s-1.13-3.5-2.82-4.45a6.37,6.37,0,0,0-2.23-.35l-.05.63c.79,1,1.57,1.91,2.36,2.87l-.52.51c-.54-.33-1.1-.63-1.61-1-4.9-3.51-9.79-7-14.7-10.54-.77-.55-1.52-1.15-.62-2a2.23,2.23,0,0,1,1.92-.18c4.47,1.83,8.89,3.78,13.34,5.66a64.68,64.68,0,0,1,26.94,20.37c1.42,1.85,1.65,3.62.22,5.6s-2.7,3.92-3.94,5.94C306.05,239.8,305,239.89,303.52,239.55Zm16,10.86a2.28,2.28,0,0,1-2.15.34,5.52,5.52,0,0,0-5.94-.05c-1.25.72-3.07.42-5,.6,1.37-1.9,2.59-3.15,3.27-4.64,1-2.25-1.91-2.51-2.38-4l7.45-11c1.19.45,2.51,1.4,3.71,1.27s2.26-1.55,3.52-2a33.29,33.29,0,0,1,4.82-1l.32.75c-.54.49-1.09,1-1.63,1.47-2.38,2.19-2.46,4.68-.39,7.12a2.06,2.06,0,0,1,.3,1.82C323.54,244.24,321.58,247.38,319.49,250.41Zm4.67,3.78-2.36-1.81,5.75-8.17c24.12,15.27,48.12,30.6,66.84,52.66l-.31.51a14.78,14.78,0,0,1-1.48-.88c-12.8-9.86-25.55-19.79-38.41-29.58-6.43-4.89-13.05-9.53-19.62-14.24a10.41,10.41,0,0,0-2.85-1.37C328.08,250.13,326.38,250.76,324.16,254.19Zm3.19,2.48c-.42-.34-1-1.12-.93-1.31.35-.56,1.05-1.37,1.54-1.32,1.53.13,3.32.21,4.49,1q13.21,9.35,26.2,19c7.39,5.47,14.68,11.08,22,16.63l5,3.75-.32.5c-.79-.41-1.61-.77-2.37-1.23-8.41-5-16.71-10.25-25.25-15C346.69,272.52,337.08,264.53,327.35,256.67Zm189.4-4.91c0,.36-.34.73-.52,1.09-.32-.25-.78-.44-.94-.77-.72-1.47-1.22-3.06-2-4.46a32,32,0,0,0-2.62-3.47C513,244.55,516.67,248.68,516.75,251.76Zm-11.95-2.25,1-.94c2.13-2,2.73-2,4.63.3a49.08,49.08,0,0,1,2.86,4.32,12.57,12.57,0,0,1-1.52,1c-1.6.77-3.2,1.57-4.86,2.18-.53.2-1.26-.12-1.89-.23-.1,0-.18-.18-.27-.28C501.56,252.69,501.56,252.52,504.8,249.51ZM458,280.43c3.27-3.53,6.41-7.29,10.14-10.29,5.77-4.66,12-8.63,19.25-10.93,3.76-1.2,7.25-3.22,10.91-4.77.48-.21,1.19.11,1.8.18-.11.61,0,1.52-.35,1.78-5.28,3.88-10.63,7.68-16,11.49a3,3,0,0,1-.69.27l-.51-.52,2.49-2.88-.19-.59a8,8,0,0,0-2.68.7,4.75,4.75,0,0,0-2.34,4.53c.17,1.53-.45,2-2,1.83-3.14-.39-4.69.75-5.43,3.83a4.07,4.07,0,0,1-4.49,2.76c-3.07-.65-5.5,1.27-4.9,3.87,2.61-1.64,3.83-1.77,4.79-.53s.75,2.44-1.44,4.79c2.13.65,4.5-1.23,4.59-3.65a3.36,3.36,0,0,1,4.37-3.41c2.61.67,4.59-.65,4.82-3.48.15-1.88.6-2.59,2.68-2.09a4.68,4.68,0,0,0,5.58-4.14l-3.36,1.76-.37-.62c.53-.44,1-.9,1.59-1.33,4.8-3.74,9.65-7.44,14.4-11.25,1.44-1.16,1.92-.14,2.61.67-.05.21,0,.37-.11.46-5.86,6.74-11.75,13.45-17.58,20.2-5.42,6.27-11.63,11.37-19.7,13.9-2.07.65-3.66.64-4.85-1.49a53,53,0,0,0-3.55-5.49C456,283.94,456.46,282.05,458,280.43Zm-16.88,3.75a7,7,0,0,1,7.11,1.5c1.44,1.26,2.61,1.32,4,.26,1-.79,1.67-.7,2.44.58,2,3.33,4.21,6.52,6.43,9.91-.33,1.39-3.34,1.6-2.38,3.82a27.17,27.17,0,0,0,2.89,4.23,4.77,4.77,0,0,1-5-.25,4.05,4.05,0,0,0-4.8,0c-1.6,1-2.63.6-3.55-.92-1.71-2.82-3.53-5.58-5.18-8.43a2,2,0,0,1,.19-1.84c2.22-2.68,2.09-5.09-.53-7.39C442.24,285.21,441.77,284.8,441.08,284.18Zm-66.7,67-.42-.38c.8-1,1.57-2,2.39-2.92,8.51-10,18.5-18.38,29.07-26,9-6.52,18.32-12.6,27.51-18.84,2.6-1.77,5.27-3.45,7.92-5.18L446.6,306l-2.12,1.82c-3.81-4.07-6.6-4.42-11.19-1-11.05,8.19-22,16.53-33,24.81-2.43,1.84-4.83,3.71-7.26,5.55q-8.2,6.25-16.44,12.49C375.87,350.17,375.12,350.69,374.38,351.22Zm8.9-2.53-.37-.57c1.12-.91,2.22-1.84,3.37-2.71,9.64-7.33,19.23-14.71,29-21.92,6.8-5.05,13.74-9.9,20.69-14.74,2.71-1.89,4.75-1.63,6.23.46C424.55,325.42,403.77,336.83,383.28,348.69Zm-131-44.14c-.19-.36-.56-.72-.55-1.07.06-3.05,3.71-7.14,7-7.63a13.16,13.16,0,0,0-5.59,8.1C253.05,304.2,252.54,304.36,252.24,304.55Zm8.21,3.05c-1.3-.65-2.7-1.09-4-1.8-.44-.25-1-1.3-.78-1.55a52.29,52.29,0,0,1,3.92-5.1,1.72,1.72,0,0,1,1.69-.1c1.57,1.3,3,2.75,4.49,4.16a4.72,4.72,0,0,1,.57,1c-.85,1.07-1.77,2.09-2.55,3.2C262.72,309,261.64,308.19,260.45,307.6Zm42.73,37.23a37.09,37.09,0,0,1-17.85-11.39c-5.28-5.84-10.13-12.07-15.18-18.11-1.52-1.82-3.1-3.58-4.79-5.52.55-1.06,1.3-1.27,2.77-.06,4.52,3.68,9.18,7.18,13.78,10.75l1.82,1.43-.34.62L280.13,321a4.49,4.49,0,0,0,5.54,4c2-.46,2.44.16,2.59,2,.23,3,2.19,4.26,5.09,3.51a3.42,3.42,0,0,1,4.13,3.17,4.1,4.1,0,0,0,4.89,4.1c-1.71-1.42-3.55-2.91-1.61-5,1.63-1.77,3.2-.47,4.58.83.62-2.52-1.59-4.58-4.24-4.19-2.94.44-4.38-.49-5.26-3.39a4.15,4.15,0,0,0-4.84-3.12c-1.9.32-2.52-.21-2.39-2.16s-1.12-3.49-2.81-4.45a9.24,9.24,0,0,0-2.8-.42l2.87,3.6-.53.51c-.59-.38-1.2-.73-1.76-1.13q-7.27-5.22-14.53-10.43c-.77-.54-1.54-1.13-.63-2a2.21,2.21,0,0,1,1.91-.2c4.53,1.86,9,3.81,13.52,5.72A65.13,65.13,0,0,1,310.48,332c1.51,1.94,1.86,3.82.29,5.93a67.32,67.32,0,0,0-3.71,5.62C306.08,345.23,304.81,345.28,303.18,344.83Zm16.18,11.11a2.16,2.16,0,0,1-2,.19,5.5,5.5,0,0,0-5.94-.05c-1.25.71-3.07.41-4.83.58,1.37-2,2.91-3.34,3.06-4.81.14-1.25-1.32-2.67-2.1-4.08l7.4-10.91c2.49,2.73,4.65,1,7.1-.5,1.33-.8,3.17-.75,4.78-1.08l.33.75-1.62,1.47c-2.38,2.2-2.48,4.69-.39,7.12a1.9,1.9,0,0,1,.39,1.65C323.55,349.54,321.52,352.78,319.36,355.94Zm4.78,3.62-2.33-1.82,5.74-8.14c24.22,15.23,48.13,30.77,67,52.76l-.46.6L390.18,400c-7.53-5.73-15.05-11.49-22.6-17.2q-16.15-12.21-32.38-24.34a12,12,0,0,0-3.14-1.68C328.32,355.45,326.49,356.08,324.14,359.56Zm6.13,4.8c-.89-.8-1.91-1.43-2.8-2.22-.45-.4-1.13-1.29-1-1.43.45-.59,1.22-1.41,1.76-1.34a11.35,11.35,0,0,1,4.63,1.32q6.75,4.38,13.2,9.2c6.56,4.93,13,10.08,19.49,15,5.17,3.92,10.46,7.68,15.69,11.52,1.42,1.05,2.81,2.14,4.21,3.21l-.33.58c-3.27-1.82-6.6-3.53-9.8-5.47C359.78,385.38,343.91,376.52,330.27,364.36ZM518,357.18c0,.35-.37.7-.58,1.05-.29-.2-.79-.36-.84-.62a13,13,0,0,0-5.59-8.08C514.28,350.06,517.93,354.17,518,357.18Zm-14.35,0c1.67-1.59,3.35-3.16,5-4.73.09-.08.25-.07.48-.14a3.62,3.62,0,0,1,1.11.63c1.24,1.51,2.47,3,3.6,4.63.72,1,.25,1.66-.86,2.07-1.29.48-2.52,1.13-3.81,1.62-.81.3-2.1.9-2.43.58a29.92,29.92,0,0,1-3.25-4.12C503.4,357.62,503.49,357.3,503.6,357.18Zm-44.47,28.59a58,58,0,0,1,11.37-11.31,72.15,72.15,0,0,1,19.34-10.41c3.31-1.11,6.39-2.88,9.62-4.25.48-.2,1.19.13,1.8.21-.11.61,0,1.51-.37,1.78-5.28,3.88-10.63,7.68-16,11.49a2.58,2.58,0,0,1-.71.24l-.49-.5,2.5-2.92c-2.21-1-4.92,1-5.22,3.76s-.28,2.66-3,2.6a4,4,0,0,0-4.07,2.91c-1.36,3.46-2.12,4-5.65,3.65a3.7,3.7,0,0,0-4.12,4.2c1.56-1.11,3.21-2.77,4.89-.58s.06,3.49-1.85,4.66a4,4,0,0,0,5-3.43c.21-2.93,1.81-4.1,4.78-3.49,2.33.48,4.24-.95,4.42-3.61.14-1.92.65-2.55,2.7-2.07,2.68.62,5.18-1.34,5.57-4.4a18.53,18.53,0,0,1-1.83,1.34,9.36,9.36,0,0,1-1.67.56l-.22-.46c.41-.38.81-.79,1.25-1.13,4.91-3.83,9.86-7.6,14.72-11.49,1.44-1.15,1.93-.19,2.61.7,0,.18,0,.34-.11.43-6.6,7.58-13.1,15.25-19.87,22.68a38,38,0,0,1-18,11.57c-1.74.49-3,.38-4-1.33a64.14,64.14,0,0,0-3.69-5.63C457.28,389.46,457.66,387.62,459.13,385.77Zm-16.86,3.79a7,7,0,0,1,7.12,1.5c1.44,1.27,2.62,1.31,4,.25,1.08-.81,1.69-.64,2.44.6,2,3.32,4.2,6.51,6.43,9.91-.33,1.39-3.35,1.59-2.39,3.8a25.63,25.63,0,0,0,2.89,4.23,4.74,4.74,0,0,1-5-.26,4.06,4.06,0,0,0-4.8,0c-1.61,1-2.63.57-3.55-.95-1.7-2.82-3.52-5.57-5.17-8.42a2,2,0,0,1,.19-1.85c2.22-2.68,2.09-5.07-.54-7.38Zm-66.69,67-.51-.52c2.41-2.62,4.76-5.28,7.22-7.84,12.6-13.11,27.22-23.7,42.3-33.71q6.87-4.56,13.78-9c1.2-.78,2.51-1.39,3.78-2.09l5.65,8-2.12,1.82c-3.82-4.06-6.62-4.43-11.19-1C423,420.66,411.65,429.33,400.25,438c-1.48,1.11-2.94,2.26-4.41,3.38l-18,13.66C377.07,455.54,376.32,456.06,375.58,456.59Zm47.89-26.2c-3.78,2.77-7.9,5.08-11.91,7.51-8.33,5-16.7,10-25.05,15-.62.36-1.29.65-1.93,1l-.38-.42c1.11-.9,2.19-1.83,3.32-2.69,9.79-7.45,19.54-15,29.42-22.31,6.64-4.93,13.43-9.67,20.27-14.32,1.19-.81,3-.89,4.49-1,.49,0,1.18.78,1.53,1.35.1.18-.54.95-1,1.29C436,420.66,429.86,425.68,423.47,430.39ZM254.41,408.91a4.78,4.78,0,0,1-.95,1c-.19-.42-.58-.85-.55-1.25.25-3.13,3.68-6.93,6.68-7.6-1.41,1.79-2.91,3.57-4.26,5.45A16.09,16.09,0,0,0,254.41,408.91Zm7.45,4.2c-1.28-.79-2.81-1.16-4.11-1.91-.47-.27-1-1.4-.79-1.7a45.92,45.92,0,0,1,3.63-4.84c.69-.8,1.51-.82,2.35.08,1.12,1.2,2.39,2.26,3.58,3.41.36.34.66.75,1.15,1.32-.88,1.11-1.72,2.1-2.47,3.16C264.23,414,263.22,413.94,261.86,413.11Zm42.52,37.11a36.18,36.18,0,0,1-17-10.55c-4.63-4.91-8.72-10.31-13.11-15.44-2.52-3-5.19-5.78-7.85-8.74.7-1.38,1.47-1.55,2.93-.36,4.41,3.61,9,7,13.46,10.52l2.15,1.64-.34.65-3.28-1.6a4.5,4.5,0,0,0,5.56,4c2-.47,2.42.22,2.57,2,.25,3,2.18,4.24,5.11,3.48a3.42,3.42,0,0,1,4.11,3.2,4,4,0,0,0,4.87,4c-1.79-1.39-3.56-2.92-1.52-5,1.59-1.63,3.13-.5,4.41.84.86-2.28-1.43-4.69-4-4.09a3.87,3.87,0,0,1-4-.93,4.41,4.41,0,0,1-1.22-1.85c-.77-2.9-2.37-4.15-5.34-3.74-1.59.21-2.24-.27-2.07-1.91a4.8,4.8,0,0,0-2.41-4.5,7.35,7.35,0,0,0-2.57-.63l-.18.51,2.42,3.05-.47.45a9.56,9.56,0,0,1-1.3-.71c-5.07-3.61-10.11-7.28-15.2-10.86-1.51-1.05-.66-1.78,0-2.69,3.45,1.53,6.69,3.24,10.11,4.43A75.31,75.31,0,0,1,300,425.87a61.74,61.74,0,0,1,11.58,11.37c1.57,1.95,2.09,3.88.42,6.1a61.89,61.89,0,0,0-3.7,5.62C307.29,450.6,306,450.66,304.38,450.22Zm16.13,11.13c-.25.36-1.5.42-2,.14-1.94-1-3.68-1.37-5.73,0a4.74,4.74,0,0,1-4.76.13,26.9,26.9,0,0,0,2.93-4.21c1-2.24-2-2.46-2.39-3.95l7.61-11.18c2.43,2.61,4.56,1,7-.44,1.37-.83,3.26-.79,4.93-1.15l.3.8-1.51,1.35c-2.49,2.22-2.61,4.69-.46,7.24a1.88,1.88,0,0,1,.33,1.66C324.71,455,322.67,458.2,320.51,461.35Zm4.76,3.52L323,463.14l5.76-8.18c24.12,15.28,48.14,30.62,66.87,52.71l-.36.53c-.61-.4-1.25-.77-1.83-1.21q-22.6-17.34-45.21-34.68c-4.05-3.09-8.29-5.94-12.44-8.9l-.5-.32C331.12,460.61,328.28,461.08,325.27,464.87Zm12.09,9.73c-3-2.25-5.87-4.73-8.78-7.13-.42-.36-1.08-1.1-1-1.3.33-.58,1-1.4,1.5-1.36,1.53.12,3.33.16,4.49,1Q347,475.25,360.1,485c7.17,5.32,14.24,10.78,21.37,16.16,1.77,1.34,3.56,2.66,5.35,4l-.47.61c-5.94-3.44-11.92-6.83-17.83-10.34-5.18-3.07-10.38-6.11-15.38-9.46C347.76,482.36,342.56,478.48,337.36,474.6Zm106.5,48.12c-6.14,4.83-12.19,9.77-18.48,14.39-3.83,2.82-8,5.19-12.06,7.65q-12.66,7.65-25.39,15.18c-.65.39-1.35.68-2,1-.09-.14-.18-.28-.26-.43,1.15-.93,2.29-1.91,3.48-2.81,9.69-7.36,19.33-14.79,29.11-22.05,6.75-5,13.63-9.84,20.57-14.57,1.19-.81,3-.89,4.49-1,.49,0,1.19.77,1.53,1.35C444.93,521.61,444.29,522.38,443.86,522.72Zm3.26-2.57c-2.89-3.89-6.11-4.39-10.36-1.52s-8.3,5.72-12.32,8.75q-18.72,14.11-37.35,28.36c-2.63,2-5.15,4.17-7.74,6.24-.66.53-1.37,1-2.05,1.49l-.48-.41c.78-.94,1.55-1.89,2.34-2.82,8.15-9.62,17.7-17.73,27.84-25.11,9.31-6.78,19-13.1,28.48-19.59,2.66-1.82,5.39-3.54,8.15-5.34l5.79,8.17Zm12.32-3.54a4.18,4.18,0,0,0-5,0c-1.52,1-2.52.53-3.39-.9-1.72-2.81-3.54-5.57-5.21-8.41a2.06,2.06,0,0,1,.1-1.87c2.36-2.93,2.2-5.13-.71-7.64-.38-.33-.74-.7-1.36-1.29a6.71,6.71,0,0,1,6.68,1.26c1.73,1.55,3.14,1.61,4.87.3a3.55,3.55,0,0,1,1-.37l7.29,10.76c-.73,1.3-2.21,2.75-2.11,4.07s1.69,2.79,2.78,4.39A5,5,0,0,1,459.44,516.61Zm35.95-33.68c-3.17,3.73-6.15,7.65-9.5,11.21-5,5.27-10.75,9.41-17.89,11.36-1.66.46-2.89.34-3.86-1.29a63.31,63.31,0,0,0-3.7-5.62c-1.59-2.13-1.19-4,.34-5.93A60.66,60.66,0,0,1,472,481.48a74.67,74.67,0,0,1,20.24-10.79c3.42-1.17,6.66-2.89,10.05-4.4.61.84,1.58,1.55.14,2.57-5.29,3.76-10.55,7.55-15.83,11.33a7.26,7.26,0,0,1-.82.39c-.73-2.05,1.61-2.19,2.2-4.08-1.22.25-2.27.19-3,.66a4.76,4.76,0,0,0-2.43,4.49c.16,1.61-.44,2.14-2.06,1.91-3-.42-4.6.81-5.31,3.75a4.07,4.07,0,0,1-4.61,2.83c-2.94-.61-5.23,1.21-4.85,4.05,2.34-1.78,3.78-2,4.8-.76,1.17,1.41.81,2.65-1.4,4.78,2,.83,4.47-1.08,4.59-3.49.13-2.69,1.94-4.08,4.5-3.45s4.46-.71,4.67-3.45c.16-2,.71-2.61,2.83-2.14a4.42,4.42,0,0,0,5.33-4.13l-3.22,1.76-.39-.61c.51-.44,1-.9,1.53-1.31,4.81-3.75,9.65-7.44,14.4-11.26,1.53-1.22,2-.23,2.53.51C502.35,474.82,498.85,478.86,495.39,482.93Zm19.37-16.45c-1.67.79-3.33,1.62-5.06,2.26a3.54,3.54,0,0,1-1.88-.26c-.22-.05-.37-.36-.55-.55-2.89-3-2.89-3.09.18-6l1.17-1.07c2.14-2,2.61-2.07,4.5.19a51.52,51.52,0,0,1,3,4.43A10.51,10.51,0,0,1,514.76,466.48Zm4.29-1.36a1,1,0,0,1-.9-.45,42.51,42.51,0,0,0-2.1-4.65,28.16,28.16,0,0,0-3.17-3.59c2.77.33,6.79,4.82,6.68,7.81A1.15,1.15,0,0,1,519.05,465.12ZM194.48,671.88V419.2c-2.64,1.41-4.21,2.75-4.14,6,.24,11.92.09,23.85.09,35.78V675.26c12.59,2.37,21,8.51,21.92,22.29h4.45c38,0,75.93,0,113.89.09,3.4,0,4.9-2.12,6.83-4.23H215.92C213.18,681.75,206.78,674,194.48,671.88Zm385.91.13V424.92c0-3.3-.55-4.08-4.17-5.6V671.89c-12.31,2.3-18.64,10-21.31,21.59H432.67c2.62,2.15,4.26,4.42,7.75,4.16,4.74-.34,9.52-.09,14.29-.09H558.47c1-13.84,9.39-20,21.92-22.28ZM191.23,76.43V313.21c0,3.3.76,4.36,4.17,5.64V76.24c12.29-2.22,18.66-10,21.31-21.55h122c-2.43-2.78-4.72-4.5-8.39-4.2-4.47.37-9,.09-13.5.09H213.15c-.91,13.84-9.41,20-21.92,22.29Zm385.86-.35V319c2.54-1.38,4.29-2.54,4.19-5.74-.26-8.73-.09-17.49-.09-26.23V72.86c-12.62-2.29-21-8.53-22-22.27H555.3c-38,0-75.93,0-113.89-.1-3.51,0-5.33,1.85-7.87,4.24H555.88C557.36,65.31,566.1,75.13,577.09,76.08ZM415,76.16H355.58v49.55H415Zm-4,45.46H359.76V80.31H411Zm-68.55,62.47,1.59.32a28.54,28.54,0,0,1,10.75,3.87,7.64,7.64,0,0,1,3.66,5.83c.26,2.37.67,4.72,1.05,7.07.61,3.75,1.26,7.51,1.89,11.26a3,3,0,0,0,.7-1.51c.93-5.75,1.91-11.49,2.74-17.25.31-2.13,1.17-4,3-4.89a95,95,0,0,1,9-3.87,23.68,23.68,0,0,1,3.7-.84,10.9,10.9,0,0,0-2.36-.79c-3.28-1.19-6.6-2.27-9.76-3.72a6.1,6.1,0,0,1-3.51-4.78q-.59-3.82-1.2-7.65-1-5.83-1.94-11.68a2.3,2.3,0,0,0-.68,1.33c-.84,5.15-2,10.29-2.41,15.48-.39,4.71-2.84,7.42-6.93,8.94C348.81,182.3,345.74,183.08,342.43,184.09ZM275,547.07a6.3,6.3,0,0,1,3.67,4.91q1.2,7.65,2.42,15.3c.21,1.28.47,2.56.7,3.84,1.44-6.14,2.48-12.21,3.35-18.29a7.32,7.32,0,0,1,3.42-5.54,24.18,24.18,0,0,1,4.77-2.39c2.53-.86,5.15-1.43,7.79-2.13-2.57-.68-5.15-1.23-7.63-2.06-4.81-1.6-8.64-4.16-8.62-10a10.52,10.52,0,0,0-.24-1.56q-1.2-7.33-2.39-14.68l-.42.08a3.88,3.88,0,0,0-.26.72c-.94,5.82-1.95,11.63-2.76,17.46-.34,2.44-1.34,4.43-3.43,5.5a81.15,81.15,0,0,1-8.56,3.55,27.65,27.65,0,0,1-4,.87,13.13,13.13,0,0,0,2.37.75C268.47,544.57,271.81,545.63,275,547.07Zm93.18,72.7a3.59,3.59,0,0,0-1.54,2.1c-.92,3.24-1.67,6.54-2.48,9.81-1.17,4.67-2.35,9.34-3.64,14.52-.37-1.05-.57-1.58-.74-2.12-.71-2.27-1.27-4.61-2.19-6.79a3.82,3.82,0,0,0-2.35-2.17c-.64-.1-1.61,1.19-2.23,2a8.56,8.56,0,0,0-.87,2.2c-.79,2.14-1.58,4.27-2.51,6.76a11.33,11.33,0,0,1-.45-1.33c-1-4.73-1.88-9.47-2.88-14.2-.57-2.72-1.19-5.43-2-8.08-.21-.66-1.27-1-1.95-1.57A7.49,7.49,0,0,0,341,623a7.21,7.21,0,0,0,.18,2.76q1.69,9.27,3.48,18.53c.65,3.38,1.29,6.77,2.16,10.09a3,3,0,0,0,2,2c.73.06,1.65-.93,2.3-1.64a5.17,5.17,0,0,0,.73-1.83c1-2.7,2-5.4,3.14-8.64,1.15,3.76,2.12,7,3.09,10.15.4,1.32.88,2.62,2.57,2.57s2.06-1.38,2.38-2.73q2.34-10.05,4.71-20.1c.9-3.8,1.81-7.6,2.66-11.41C370.88,620.61,369.68,619,368.15,619.77Zm42.57,35.7a2.4,2.4,0,0,0,2.14,0,2.3,2.3,0,0,0,.64-1.87,5.28,5.28,0,0,0-.91-1.94c-1.79-3.07-3.6-6.14-5-8.52,2.12-3.44,4.31-6.16,5.58-9.25a10.79,10.79,0,0,0-3.66-13.12c-3.89-2.64-9.8-2.2-13.68,1.13a3.39,3.39,0,0,0-1.26,2.25c0,.59,1.14,1.11,2.08,1.93,0,1.29-.05,3.07,0,4.85q.38,11.5.82,23c0,1.26.64,2.42,2,2.07a3,3,0,0,0,1.66-2.19,55.93,55.93,0,0,0,.16-6.35c0-2.65,0-2.65,2.79-3,1.54,2.88,3,5.76,4.63,8.57A7.56,7.56,0,0,0,410.72,655.47Zm-9.36-14.62c-.31-5.82-.6-11.47-.9-17.13,5.61-2.33,9,1.45,9.09,5.26A12.29,12.29,0,0,1,401.36,640.85Zm36.29-9.63c-.41-5-2.26-9.37-7.08-11.62-4.41-2.06-8.79-1.41-12.8,1.3-.67.44-1,1.41-1.46,2.14l2.11,1.38c.2,6.59.36,13.34.62,20.08.11,3,.3,6.08.66,9.1.24,2.07,1.65,2.79,3.37,2C431.5,651.93,438.4,640.41,437.65,631.22ZM433.18,635a23.77,23.77,0,0,1-7.41,14.37c-.46.42-1,.8-1.68,1.39-.09-.92-.16-1.49-.19-2.06-.5-8.33-1-16.66-1.43-25a1.78,1.78,0,0,1,1-1.39,7.59,7.59,0,0,1,8.53,4.33A14.16,14.16,0,0,1,433.18,635Zm-99.62,3.2c-1.25-.88-2.6-1.61-3.78-2.56a58.27,58.27,0,0,1-5.34-4.7,2.76,2.76,0,0,1-.37-2.44c.77-1.81,3.42-3.31,5-3a4,4,0,0,1,3.6,4.06,2.11,2.11,0,0,0,1.44,1.47,2.21,2.21,0,0,0,1.75-1.16,5.17,5.17,0,0,0,.23-2.89c-.75-3.49-3.3-5.22-6.57-5.78-4.08-.69-7,1.54-9.25,4.59a5.91,5.91,0,0,0,.1,7.89,80.18,80.18,0,0,0,7.41,7.09c1.27,1.16,3,2,3.89,3.34,2.65,4,3,7.94-2.54,9-2.3.43-3.95-.56-5.2-2.46-.91-1.38-2.22-2-3.71-1s-1.25,2.52-.38,3.86a9.37,9.37,0,0,0,7.42,4.53c6.25,0,10.81-3.25,11.27-7.74C339,645.45,337.75,641.19,333.56,638.23ZM387,653.71c4.56-4.39,5.77-10.09,5.89-14.81,0-6-.94-9.34-2.32-12.51-2.85-6.51-11.92-6.57-15.51-1.32a23.66,23.66,0,0,0-4,10c-.66,4.44-.67,8.88,1,13.12a17.86,17.86,0,0,0,2.88,4.92C378.4,657.16,383.22,657.37,387,653.71Zm-9.65-25.12c1.18-2.27,2.85-5,5.44-4.48,1.75.33,3.52,2.83,4.43,4.76,1.14,2.44,1.4,5.29,2.05,8a27.86,27.86,0,0,1-2.86,10.59,12.86,12.86,0,0,1-2.1,2.86c-2.14,2.15-4.92,2.11-6.35-.52a27.16,27.16,0,0,1-2.89-8.5A20.33,20.33,0,0,1,377.37,628.59ZM448,656.12c4.85,0,7.41-1.87,8.75-6.49,1.46-5-.24-9.26-3.72-12.88-1.79-1.85-3.88-3.45-5.51-5.43a11,11,0,0,1-2.12-4.56,3.12,3.12,0,0,1,1.77-3.82,3.53,3.53,0,0,1,4.41,1.33,36.29,36.29,0,0,1,2.13,4,12.31,12.31,0,0,0,1.22,1.5c.33-.66,1-1.33,1-2a9.46,9.46,0,0,0-2.79-6.8c-3.37-3.22-9.1-2.23-10.82,2-1.23,3-1.39,6.15.47,9a63,63,0,0,0,4.85,6c1.2,1.4,2.67,2.59,3.77,4.06a7.62,7.62,0,0,1,.95,7.89c-.8,1.9-2.43,2.74-4.89,2.46-2-.22-2-1.87-2.23-3.25s-.41-2.83-2.24-2.56a2.38,2.38,0,0,0-1.93,3.17C441.83,653.12,443.61,656.6,448,656.12Zm-33.55-597c2.53.9,4.22-.85,3.49-3.45a37.58,37.58,0,0,0-1.57-3.94c2.8-.32,5.53-.48,8.17-1a13.16,13.16,0,0,0,4.68-2c1.5-1,1.28-2.82-.31-3.73a10.33,10.33,0,0,0-3.51-1.32c-3.37-.51-6.77-.82-10.22-1.22.56-1.2,1.28-2.53,1.81-3.93.91-2.39.64-4.31-.75-5.05-2-1-3.61,0-4.78,1.34a36.63,36.63,0,0,0-5.05,6.81C402.22,49.57,408.72,57.09,414.48,59.13Zm.08-23c-.06,4.52-2.46,7.42-6.27,7.64A18.78,18.78,0,0,1,414.56,36.18Zm12.73,10.21c-2.81,2.55-15.3,2.84-19.94.41C414.24,44.76,420.6,45.07,427.29,46.39Zm-12,10.27c-2.45-.3-5.46-3-6.83-6.07C413,50.42,415,53.17,415.32,56.66ZM480.1,643.23a54.81,54.81,0,0,0,8.67-1.87c2.46-.84,2.6-3.12.38-4.48a13.3,13.3,0,0,0-4.44-1.57c-2.58-.46-5.2-.64-7.92-.95.5-1.13,1-2.18,1.44-3.28.47-1.27.91-2.85-.48-3.59a4.72,4.72,0,0,0-3.65-.16,14.6,14.6,0,0,0-7.94,8.44,8.79,8.79,0,0,0-.6,3.5c.29,5.22,3.1,9.15,6.9,12.45,1.22,1.06,2.72,1.9,4.33.8s1.36-2.8.86-4.33-1.32-3.13-2.1-4.92A29.76,29.76,0,0,0,480.1,643.23Zm-4.18-14.12c-.79,4.16-2.4,6.41-7.15,6.44A13.1,13.1,0,0,1,475.92,629.11Zm-7,13.29c3.51-.22,5.68,2.28,6.16,7.28C472.78,648.68,470.21,645.6,468.92,642.4Zm-.55-3.29a29.53,29.53,0,0,1,19.05.22C481.05,641,474.7,641.32,468.37,639.11ZM343.51,49.1a6.67,6.67,0,0,0,2.66,1.23c3.23.59,6.49,1,9.84,1.53a16,16,0,0,0-1.42,3.47c-.18,1.05-.14,2.67.5,3.2a4,4,0,0,0,3.41.37,14.48,14.48,0,0,0,8.07-8.28,10,10,0,0,0,.69-4c-.2-4.79-2.87-8.38-6.12-11.58-1.94-1.91-3.83-2.33-5.11-1.41s-1.53,2.81-.53,5.3c.53,1.3,1.2,2.55,1.87,3.94a24.91,24.91,0,0,0-4,0,68.18,68.18,0,0,0-9.44,2C341.69,45.56,341.59,47.68,343.51,49.1Zm13.61,7.82c0-2.84,1.91-6.58,7-6.34C362.42,53.47,360.38,55.76,357.12,56.92Zm6.88-13c-3.79-.47-6-3.18-6.17-7.38C359.91,37.21,362.64,40.43,364,43.88Zm.52,3.1c-3.18,2.16-15.68,2.06-19.08-.15C348.5,44.75,361.27,44.85,364.52,47Zm-66.4,602.79c-.21,2.19,1.66,3.36,3.72,2.55a5.65,5.65,0,0,0,1.86-1.11c3.28-3.14,6.07-6.51,6.57-11.35.53-5.17-4.34-12.33-9.39-13.38-2.44-.51-4,1-3.34,3.36a36.51,36.51,0,0,0,1.66,4.21,57.77,57.77,0,0,0-6.24.58,22,22,0,0,0-6.16,1.93c-2.19,1.19-2,3.36.31,4.37a21,21,0,0,0,5.49,1.55c2.56.37,5.17.4,7.92.58a12.29,12.29,0,0,0-1,1.83A22.24,22.24,0,0,0,298.12,649.77Zm3.14-.39-.69-.36a36.62,36.62,0,0,1,2.85-6c.59-.86,2.27-1,3.45-1.42l.3.5A18.81,18.81,0,0,1,301.26,649.38Zm5.84-14.27c-4.51.17-6.47-2.46-6.88-6.06C302.66,629.32,305.59,631.91,307.1,635.11Zm-19,3.51a37.39,37.39,0,0,1,19.94-.2C304.54,640.84,291.76,641,288.13,638.62ZM586.7,385.43c-5.27-.53-12,3.95-13.41,9.05-.75,2.68.87,4.35,3.55,3.58a40,40,0,0,0,3.86-1.56c.3,2.66.48,5.28.94,7.85a12.94,12.94,0,0,0,1.56,4.43c1.36,2.24,3.37,2.05,4.52-.29a10.12,10.12,0,0,0,1-3c.47-3.38.81-6.77,1.19-10.11,1.57.64,3.28,1.49,5.08,2,1.41.43,3.23.53,3.81-1.08a4.55,4.55,0,0,0-.52-3.78C595.34,388.84,591.75,385.94,586.7,385.43Zm-11.17,10c1.06-3.26,3.47-5.18,6.36-7.07C581.53,393,579.19,395.54,575.53,395.39ZM586,407.46c-2.55-3.1-2.8-15.62-.35-20C587.63,394.37,587.37,400.73,586,407.46Zm2.54-19a19.83,19.83,0,0,1,7.75,6.19C592.11,394.77,589,392.23,588.57,388.41ZM182.39,406.52c.32,1.67.81,3.84,3.14,3.7,2.12-.12,2.83-2.06,3.18-3.81.63-3.23,1-6.5,1.56-9.93,1,.46,2,1,3,1.37,1.32.49,3,1,3.74-.47a5,5,0,0,0,.06-3.84,14.17,14.17,0,0,0-7.84-7.48,12.31,12.31,0,0,0-4.8-.66c-4.61.16-7.92,2.93-11,6a7.67,7.67,0,0,0-1.63,2.45c-.86,2.05.33,4,2.52,3.74a24.17,24.17,0,0,0,5.06-1.5,9.3,9.3,0,0,0,1.41-.73C181.31,399.11,181.7,402.84,182.39,406.52Zm12.91-11c-3.91-.47-6.48-2.42-6.31-7.05C191.83,390.13,194.2,392.11,195.3,395.47Zm-10-7.44c2.17,2.8,2.15,15.29-.13,19.23C183.15,403.44,183.3,391.44,185.32,388Zm-10.83,6.68a19.5,19.5,0,0,1,7.81-6.35C181.8,392.32,179.08,394.52,174.49,394.71ZM357.06,689c-2.43-.83-4.1.88-3.44,3.36a37.63,37.63,0,0,0,1.6,4.07c-2.65.29-5.26.47-7.83.92a13.28,13.28,0,0,0-4.44,1.56c-2.24,1.35-2.05,3.38.28,4.53a10.09,10.09,0,0,0,3,1c3.37.48,6.76.81,10.15,1.2-.62,1.43-1.44,3-2,4.67s-.7,3.24.94,4.29a3.12,3.12,0,0,0,4.14-.79c2.12-2.41,4.39-4.83,5.84-7.64C369.36,698.31,362.66,690.88,357.06,689ZM357,712.07c.33-4.85,2.46-7.42,6.36-7.79A19.29,19.29,0,0,1,357,712.07Zm-12.35-10.71c3.13-2.23,15.61-2.39,19.11-.25C360.75,703.26,348,703.43,344.63,701.36Zm11.57-10c2.67.51,5,2.56,7,6.05C359.27,697.71,356.6,695.47,356.2,691.39ZM594.49,335.32c-1.61.54-3.13,1.33-4.29,1.84-.74-4.21-1.35-8.38-2.28-12.47-.21-.91-1.57-2.21-2.36-2.18a3.85,3.85,0,0,0-2.76,2,25.14,25.14,0,0,0-1.53,5.92c-.31,1.85-.33,3.76-.5,5.79-1.19-.54-2.17-1.07-3.21-1.45-1.33-.49-3-1-3.76.46a5,5,0,0,0-.06,3.84,14.57,14.57,0,0,0,7.85,7.51,10,10,0,0,0,4,.8c5.24-.27,9.15-3.12,12.44-6.93,1.06-1.22,1.88-2.72.76-4.33S596,334.82,594.49,335.32Zm-19,1.72c4.47,1,6.35,2.42,6.45,7.17A13.16,13.16,0,0,1,575.44,337Zm10,7.58c-2.13-3.48-2-16,.26-19.08C587.72,328.88,587.55,341.69,585.4,344.62Zm3.25-.41c.06-3.74,2.81-6.06,7.69-6.29A19.35,19.35,0,0,1,588.65,344.21Zm-415-2.79a33.05,33.05,0,0,0,6.73,4.81c7.88,4,15.28-2.61,17.21-8.25.86-2.52-.91-4.16-3.52-3.41a37.58,37.58,0,0,0-3.89,1.56c-.33-2.85-.49-5.56-1-8.2a12.34,12.34,0,0,0-1.84-4.52c-1.13-1.69-3-1.46-4,.35a10.13,10.13,0,0,0-1.22,3.33c-.5,3.38-.82,6.78-1.22,10.24-1-.48-2.13-1.11-3.32-1.61-2.72-1.13-4.7-.93-5.64.48S171.48,339.56,173.6,341.42Zm21.78-4.29A13.49,13.49,0,0,1,189,344.2C188.83,339.71,191.13,337.73,195.38,337.13Zm-10.2-11.77c2.2,3.79,2.33,15.46.32,19.22C183.34,342.16,183.06,329.44,185.18,325.36Zm-2.94,18.89a19.22,19.22,0,0,1-7.68-6.27C178.93,337.94,181.94,340.41,182.24,344.25ZM425.29,697.78c-3.16-.63-6.38-1-9.68-1.5a16.74,16.74,0,0,0,1.43-3.47c.17-1.06.13-2.69-.51-3.21a4,4,0,0,0-3.42-.35,14,14,0,0,0-4.4,3c-2.8,2.75-4.76,5.86-4.22,10.17.63,5,3.45,8.45,7,11.57a4.64,4.64,0,0,0,1.56.85c2,.7,3.79-.44,3.61-2.54a22.47,22.47,0,0,0-1.39-4.9,9.92,9.92,0,0,0-.88-1.65c3.7-.48,7.31-.81,10.86-1.46,1.75-.32,4-.71,4.08-3.07S427.17,698.15,425.29,697.78Zm-10.72-6.55c-.54,4.09-2.47,6.44-7.05,6.31C409.24,694.7,411.21,692.33,414.57,691.23Zm-7.06,13.07c3.87.29,5.91,2.72,6.38,7.78A19,19,0,0,1,407.51,704.3Zm-.92-3.43a37.7,37.7,0,0,1,19.92.14C423.44,703.36,410.63,703.32,406.59,700.87ZM200,685.32a16.34,16.34,0,0,0-14.12-2.61c-2.21.57-2.64,2.95-1,4.54a11.56,11.56,0,0,0,3,1.87,27,27,0,0,0,3.13,1.09c-2.32,3-4.74,5.84-6.89,8.89-1,1.39-2.25,3.27-.57,4.86s3.57.64,5.12-.38c2.74-1.82,5.35-3.84,8.13-5.86a22,22,0,0,0,.74,2.4c.65,1.5,1.17,3.3,3.27,3.22s2.73-1.75,3.09-3.38C205.15,694.41,205.11,689.05,200,685.32Zm-13.14,0a19,19,0,0,1,10.12,1.06C194,689,191.17,688.73,186.81,685.34Zm-1.22,16.29a31.74,31.74,0,0,1,13.82-13.27A29.87,29.87,0,0,1,185.59,701.63Zm15.44-.79c-2.72-3.12-2.46-6.4.64-9.64C202.42,694.46,202.57,697.56,201,700.84Zm385.15-2.66c-2.06-2.72-4.3-5.31-6.32-7.77a46.38,46.38,0,0,0,5.68-2.85,3.36,3.36,0,0,0,1.2-2.83,3.46,3.46,0,0,0-2.2-2.12,15.57,15.57,0,0,0-5.1-.3c-3.94.37-7.82,1.34-10.4,4.55-3.45,4.3-3.51,9.29-1.63,14.26a3.83,3.83,0,0,0,2.69,2.1c.84.07,2-1.05,2.61-1.93a15.91,15.91,0,0,0,1.4-3.49c2.81,2,5.49,4.05,8.3,5.89a6.78,6.78,0,0,0,3.18.9,2.09,2.09,0,0,0,2.28-2.85A11.23,11.23,0,0,0,586.18,698.18Zm-2.53-12.87.2.63a38.59,38.59,0,0,1-6.48,2.38c-1,.2-2.29-.94-3.44-1.47C577.16,685.35,580.33,684.56,583.65,685.31Zm-13.72,15.4c-1.52-2.5-1.72-5.49-.7-9.4C572.26,694.33,572.54,697.57,569.93,700.71Zm1.48-12.34a31.75,31.75,0,0,1,13.84,13.25A29.68,29.68,0,0,1,571.41,688.37ZM185.45,50c2.07,2.72,4.31,5.3,6.39,7.83-1.53.65-3.34,1.28-5,2.15-1.33.69-2.38,1.79-2,3.51a3,3,0,0,0,3.28,2.34,38,38,0,0,0,7.46-.62c9.53-1.93,11.3-10.75,8.84-17.84a4.67,4.67,0,0,0-2.69-2.48c-1.51-.49-2.33.94-2.89,2.15s-.87,2.33-1.25,3.37c-2.66-1.94-5.25-4-8-5.77A7.71,7.71,0,0,0,186,43.55a2.08,2.08,0,0,0-2.25,2.87A11.44,11.44,0,0,0,185.45,50ZM188,62.86l-.21-.66a39.48,39.48,0,0,1,6.48-2.38c1-.2,2.28.93,4,1.7C194.5,62.87,191.32,63.5,188,62.86Zm13.83-15.47c1.63,3.09,1.33,6.23.66,9.7C199.37,53.32,199.17,50.11,201.81,47.39Zm-1.59,12.37c-6.12-2.83-10.45-7.55-13.87-13.22A29.45,29.45,0,0,1,200.22,59.76Zm384.47,6a4.41,4.41,0,0,0,2.86-2.25c.69-1.45-.46-2.71-1.73-3.38-1.74-.92-3.6-1.6-5.13-2.27,2.24-2.84,4.63-5.65,6.74-8.66,1-1.44,2.37-3.36.62-5-1.6-1.51-3.58-.6-5.13.43-2.74,1.82-5.34,3.84-8,5.78a19.5,19.5,0,0,0-1.58-3.78,3.71,3.71,0,0,0-2.56-1.68,3.43,3.43,0,0,0-2.46,1.86,17.21,17.21,0,0,0-1.22,5.36c-.23,3.53.44,7,3.06,9.54C574.2,65.51,579.33,66.43,584.69,65.73Zm-.05-2.91c-3.52.73-6.69,0-9.94-1C577.47,59.18,581.28,59.56,584.64,62.82Zm1.43-16.3A31.85,31.85,0,0,1,572.2,59.76,29.58,29.58,0,0,1,586.07,46.52Zm-15.45.84c2,2.48,3.14,6.07-.68,9.66C569.28,53.62,569,50.47,570.62,47.36ZM378.49,57.27a2.43,2.43,0,0,0,2.12.38,2.42,2.42,0,0,0,.7-2,6.92,6.92,0,0,1,2.52-6.34,3.31,3.31,0,0,1,4.35-.18,6.6,6.6,0,0,1,2.93,6.5c-.05.67.22,1.73.69,2a2.31,2.31,0,0,0,2.1-.36,11.71,11.71,0,0,0,2.46-3.06,11.16,11.16,0,0,0-1.56-12.75,11,11,0,0,0-12.42-3.17,11.24,11.24,0,0,0-7.61,10.57A10.41,10.41,0,0,0,378.49,57.27Zm2.26-13.88a7.32,7.32,0,0,1,9.42-1c3.32,2,4.52,5.07,3.29,8.91-1.49-3.45-3.61-6.09-7.21-6s-5.87,2.41-7.15,5.76C377.77,48.75,378.51,45.53,380.75,43.39ZM576.82,371.17c-1.35-.21-2.36.07-2.23,1.59a3.66,3.66,0,0,0,1.2,2,11.33,11.33,0,0,0,18.64-11.26c-1.37-5.16-5.73-8.56-12.33-8.58a9.78,9.78,0,0,0-6.77,3.54,2.64,2.64,0,0,0-.54,2.26c.21.47,1.38.52,2.13.74,1.73.5,3.68.64,5.14,1.56,2.43,1.54,2.53,3.9.64,6.07A6.18,6.18,0,0,1,576.82,371.17ZM581.3,359a7.31,7.31,0,0,1,8.65,3c2,3,1.84,6.19-.58,9.33a6.73,6.73,0,0,1-7.88,2.34C590.32,369,587.77,362,581.3,359Zm-389.09,2.42c.58-.08,1.2.09,1.77,0,.72-.12,1.87-.22,2-.62a2.61,2.61,0,0,0-.42-2.27,12.11,12.11,0,0,0-3.44-2.6,11.13,11.13,0,0,0-12.51,2,11.67,11.67,0,0,0-2.88,12.56c1.77,4.39,5.94,7.22,11.81,7.24a9.78,9.78,0,0,0,6.94-3.53,2.67,2.67,0,0,0,.56-2.25c-.2-.47-1.37-.54-2.12-.75-.17-.05-.39,0-.58.06-3,.17-6.33-2.3-6.56-4.93C186.61,364.28,189.28,361.82,192.21,361.42Zm-2.75,12a6.48,6.48,0,0,1-7.55-1.56c-2.75-3-3.16-6.68-1.11-9.79a7.26,7.26,0,0,1,8.89-3c-3.63,1.38-6,3.78-6,7.25S186.18,372.11,189.46,373.44ZM393.29,691a2.63,2.63,0,0,0-2.26-.53c-.46.22-.7,1.4-.68,2.14a6.66,6.66,0,0,1-2.92,6.32,3.3,3.3,0,0,1-4.36-.13,6.9,6.9,0,0,1-2.56-6.31c.05-.68-.24-1.86-.64-2a2.74,2.74,0,0,0-2.27.46,11,11,0,0,0-.79,15.66,11.41,11.41,0,0,0,20-7.35A10.27,10.27,0,0,0,393.29,691Zm-2.15,13.45c-2.87,2.79-6.64,3.33-9.76,1.39a7.36,7.36,0,0,1-3.19-9c1.39,3.64,3.77,6,7.25,6.06s5.73-2.56,7.11-5.75A6.38,6.38,0,0,1,391.14,704.47Zm103-155.5c.43,2.83.87,5.65,1.3,8.48l.49,0c.49-3,1.21-6,1.42-9.08.25-3.52,2.14-5.4,5.22-6.43,1.4-.47,2.83-.84,4.42-1.3-2-.62-3.69-1.06-5.35-1.7a5.89,5.89,0,0,1-4.15-5.25c-.35-3.33-1-6.63-1.56-9.93l-.45,0c-.54,3.26-1.27,6.49-1.55,9.77-.29,3.45-2.46,4.93-5.29,5.92-1.29.45-2.64.74-4.55,1.27l3.08.75C492,542.57,493.4,544.09,494.15,549Zm-188-406.2c.25,3.17,1,6.31,1.5,9.46a48.38,48.38,0,0,0,2-9.54,5.71,5.71,0,0,1,3.65-5.2c1.81-.75,3.71-1.3,5.64-2-2-.71-4-1.29-5.82-2.07a5.42,5.42,0,0,1-3.44-4.91c-.21-2.3-.74-4.56-1.12-6.85-.17-1-.32-1.92-.48-2.88a55.44,55.44,0,0,0-2,9.81,5.6,5.6,0,0,1-3.68,5c-1.79.74-3.66,1.27-5.76,2,1.7.5,3.21.85,4.66,1.38C304,137.93,305.91,139.53,306.16,142.77ZM292.7,291.58a20.74,20.74,0,0,0,.78,4.22,11,11,0,0,0,1-3.93c.27-3.14,1-5.89,4.7-6.64.61-.12,1.2-.35,1.8-.53l-.05-.34c-.22,0-.44-.07-.66-.13-3-.73-5.52-1.77-5.52-5.59a29.11,29.11,0,0,0-.93-5.24,25.52,25.52,0,0,0-1.5,6.42c-.18,2.05-1.4,3-3.09,3.69-1,.38-2,.64-3.08,1a3.53,3.53,0,0,0,.88.48C290.77,285.62,292.74,287.65,292.7,291.58ZM435.12,582.16a35.82,35.82,0,0,0-1-5.64,14.2,14.2,0,0,0-1.17,4.86c-.17,3.07-1.5,5.1-4.61,5.79-.6.14-1.19.37-1.9.6a2.67,2.67,0,0,0,.65.35c4,.62,6,2.86,5.92,7a19.39,19.39,0,0,0,.76,4,6.16,6.16,0,0,0,.87-2.75c.22-4.39,1.31-8.05,6.58-8.64l-1.88-.58C436.9,586.37,435.17,585.13,435.12,582.16Zm104-292.79a34.52,34.52,0,0,0-.91-5.44,30.59,30.59,0,0,0-1.48,6.66,4,4,0,0,1-2.79,3.49c-1.08.46-2.22.75-3.66,1.22l2,.58c3.42,1,4.36,2.13,4.78,5.67.21,1.73.53,3.45.79,5.18a26.51,26.51,0,0,0,1.46-6.4,4.18,4.18,0,0,1,2.76-3.76c1.13-.48,2.3-.86,3.84-1.42-.89-.15-1.35-.18-1.77-.3C541.37,294.05,539.21,292.8,539.16,289.37ZM257.58,475.08a53.75,53.75,0,0,0-1.05-6.37c-.28,1.18-.52,1.85-.6,2.53-.52,4.41-.69,9-7.27,9.25.69.44.84.6,1,.62,4.09.58,5.86,3,5.91,7.05a22.58,22.58,0,0,0,.79,4.16,22.36,22.36,0,0,0,1.19-5.73c.11-3.31,2.13-4.59,4.93-5.26a12.54,12.54,0,0,0,1.53-.6c-.95-.3-1.57-.52-2.2-.69C259.27,479.35,257.68,478,257.58,475.08ZM448,124.2c.22,1.73.54,3.45.81,5.18a28.06,28.06,0,0,0,1.41-6.41,4.48,4.48,0,0,1,3.24-4c1-.38,2-.68,3.33-1.12l-2.11-.54c-2.67-.7-4.45-2.05-4.57-5.14a41.72,41.72,0,0,0-.94-5.62,30.9,30.9,0,0,0-1.47,6.66,4.08,4.08,0,0,1-2.79,3.5c-1.08.46-2.23.75-3.57,1.2.6.21,1.08.42,1.58.55C446.6,119.39,447.51,120.44,448,124.2Zm78.86,285.06c-.92-.18-1.44-.25-2-.39-2.73-.77-4.8-2-4.86-5.35a40.07,40.07,0,0,0-1-5.78,4.13,4.13,0,0,0-.47.9c-.23,1.43-.47,2.86-.65,4.29-.46,3.77-1.57,5.09-5.16,6-.46.11-.93.16-1.62.27a3.63,3.63,0,0,0,.75.38c4.14.66,6.21,3,6.17,7.29a19.45,19.45,0,0,0,.75,3.93,30.54,30.54,0,0,0,1.31-6.32,4.45,4.45,0,0,1,3-4C524.25,410.06,525.38,409.75,526.83,409.26ZM180.74,436.89a2,2,0,0,0,2,2.21c1.25,0,2.15-.56,2.09-2.41a2,2,0,0,0-2.19-2.07C181.28,434.63,180.73,435.59,180.74,436.89Zm405.27.32a1.75,1.75,0,0,0,2,1.89c1.4,0,2.12-.89,2.4-2.79-.78-.57-1.52-1.57-2.33-1.63C586.59,434.57,586,435.8,586,437.21Zm4-10.45a1.77,1.77,0,0,0-1.84-2.09,2.06,2.06,0,0,0-2.09,2.54c.08.74.85,1.41,1.1,1.8C589.41,429,590,428.14,590,426.76Zm-404.87-.09c-.81-.68-1.55-1.76-2.45-1.93-1.27-.24-2,.75-1.91,2.13s.77,2.36,2.24,2.07c.75-.14,1.39-.88,2.08-1.36ZM588.9,313.52a1.76,1.76,0,0,0,1.93-2c0-1.36-.53-2.29-2.75-2.36-.27.38-1.08,1-1.17,1.74C586.73,312.23,587.31,313.47,588.9,313.52Zm-407.31-2.13a1.78,1.78,0,0,0,1.8,2.13c1.6.05,2.23-1.14,2.13-2.49-.06-.74-.81-1.43-1.05-1.83C182.28,309.15,181.67,310,181.59,311.39ZM182.54,449a2.87,2.87,0,0,0,2.16-1.64,1.73,1.73,0,0,0-1.79-2.39c-.83,0-1.63.81-2.44,1.25,0,.29-.07.59-.11.89C181.08,447.76,181.75,448.88,182.54,449Zm405.63-4.09a1.89,1.89,0,0,0-2.15,1.84c0,1.58.84,2.48,2,2.3a3.09,3.09,0,0,0,2-1.92C590.36,445.88,589.52,445,588.17,444.89ZM332,702.81a1.81,1.81,0,0,0-1.94,2c0,1.24.57,2.15,2.74,2.08.27-.41,1.08-1.13,1.17-1.93A1.83,1.83,0,0,0,332,702.81ZM439.49,45.32a1.75,1.75,0,0,0,2-2.08c-.11-.82-.88-1.56-1.36-2.34l-1,0c-.54.72-1.41,1.39-1.55,2.18A1.86,1.86,0,0,0,439.49,45.32Zm-106.64-.07c.87-.17,1.57-1.13,2.35-1.74-.36-1.74-1.13-2.27-2.35-2.3a1.78,1.78,0,0,0-2,2C330.83,44.44,331.51,45.53,332.85,45.25ZM438.72,702.81a1.84,1.84,0,0,0-1.88,2.26c.13.8,1,1.47,1.5,2.21l1,0c.49-.78,1.28-1.51,1.39-2.33A1.75,1.75,0,0,0,438.72,702.81ZM183.6,263.36a1.66,1.66,0,0,0,1.89-2.11,2.89,2.89,0,0,0-2.05-1.75c-.7-.05-1.47,1-2.21,1.5l0,.94C182,262.44,182.78,263.28,183.6,263.36Zm407.57-12.43c-.77-.5-1.6-1.47-2.3-1.37a2.9,2.9,0,0,0-2,1.86,1.67,1.67,0,0,0,2,2c.82-.13,1.51-1,2.26-1.56C591.18,251.55,591.17,251.24,591.17,250.93Zm-407.64-1.37c-.69-.09-1.52.88-2.28,1.38,0,.31,0,.63,0,.94.75.54,1.45,1.42,2.26,1.54a1.67,1.67,0,0,0,2-2A2.92,2.92,0,0,0,183.53,249.56Zm0-10c-.82.13-1.54.93-2.3,1.43v.94c.75.54,1.45,1.42,2.26,1.54,1.26.18,2.09-.71,2.07-2A1.69,1.69,0,0,0,183.55,239.57Zm405.41-6c.81-.14,1.49-1,2.23-1.6l0-.93c-.78-.49-1.51-1.27-2.34-1.39a1.72,1.72,0,0,0-2,1.92A1.8,1.8,0,0,0,589,233.54ZM182.76,624c-.81.1-1.54,1-2.3,1.48l0,.93c.75.53,1.55,1.52,2.24,1.45a2.91,2.91,0,0,0,2-1.78A1.67,1.67,0,0,0,182.76,624Zm405.43,3.86c.69.06,1.47-1,2.2-1.5l0-.93c-.78-.5-1.52-1.35-2.34-1.43a1.67,1.67,0,0,0-1.89,2.12A2.89,2.89,0,0,0,588.19,627.81Zm-2.06,8.11a2.92,2.92,0,0,0,2,1.84c.69.08,1.51-.89,2.27-1.4,0-.31,0-.61,0-.92-.75-.55-1.45-1.43-2.26-1.55A1.67,1.67,0,0,0,586.13,635.92ZM183.43,223.6c1.25.23,2.11-.64,2.14-2a1.71,1.71,0,0,0-1.94-1.95c-.83.11-1.58.88-2.36,1.35,0,.31,0,.63,0,.94C182,222.54,182.62,223.45,183.43,223.6Zm-.68,424.1a2.88,2.88,0,0,0,1.95-1.86,1.67,1.67,0,0,0-2-2c-.81.13-1.5,1-2.25,1.57,0,.31,0,.62,0,.93C181.23,646.83,182.06,647.79,182.75,647.7Zm407.61-2.45c-.77-.5-1.52-1.34-2.33-1.42a1.67,1.67,0,0,0-1.9,2.12,2.9,2.9,0,0,0,2.06,1.75c.69,0,1.47-1,2.2-1.51ZM184.7,665.81a1.67,1.67,0,0,0-1.92-2.09c-.82.09-1.55.94-2.32,1.45,0,.31,0,.62,0,.94.74.53,1.53,1.53,2.22,1.47A2.9,2.9,0,0,0,184.7,665.81ZM586.93,201.59a1.67,1.67,0,0,0,1.89,2.12c.82-.07,1.56-.92,2.34-1.41l0-.94c-.74-.55-1.51-1.56-2.2-1.51A2.91,2.91,0,0,0,586.93,201.59Zm-405.66.7c.77.5,1.52,1.35,2.34,1.42a1.66,1.66,0,0,0,1.88-2.12,2.88,2.88,0,0,0-2.06-1.73c-.69-.06-1.46,1-2.2,1.5C181.24,201.67,181.25,202,181.27,202.29Zm405.65-10.61a1.67,1.67,0,0,0,1.93,2.09c.82-.09,1.55-.94,2.31-1.46,0-.31,0-.62,0-.93-.74-.53-1.53-1.53-2.23-1.47A2.93,2.93,0,0,0,586.92,191.68ZM589.15,180a1.62,1.62,0,0,0-2.22,1.73,3,3,0,0,0,1.74,2.1c.67.16,1.61-.73,2.43-1.16l.11-.9C590.53,181.11,589.94,180.19,589.15,180Zm-405.7,3.88c1.26.22,2.11-.65,2.12-2a1.7,1.7,0,0,0-2-1.92c-.83.11-1.56.9-2.34,1.38l0,.93C182,182.79,182.64,183.69,183.45,183.83Zm406.91,362c-.77-.5-1.52-1.35-2.33-1.43a1.67,1.67,0,0,0-1.9,2.12,2.87,2.87,0,0,0,2.06,1.74c.69.06,1.47-.95,2.2-1.49Zm-1.42-372c.81-.13,1.5-1,2.25-1.57,0-.31,0-.62,0-.93-.78-.5-1.61-1.46-2.3-1.36a2.9,2.9,0,0,0-2,1.86A1.67,1.67,0,0,0,588.94,173.89ZM183.46,170c-.69-.06-1.48.94-2.23,1.47l0,.94c.77.51,1.5,1.36,2.31,1.45a1.66,1.66,0,0,0,1.92-2.09A2.89,2.89,0,0,0,183.46,170Zm.11-10c-.83.13-1.55.92-2.32,1.42,0,.31,0,.62,0,.93.74.55,1.44,1.43,2.25,1.56,1.26.19,2.09-.7,2.08-2A1.7,1.7,0,0,0,183.57,160Zm405.35-6c.81-.12,1.51-1,2.26-1.54v-.94c-.76-.5-1.48-1.3-2.31-1.44a1.71,1.71,0,0,0-2,1.87C586.82,153.31,587.67,154.19,588.92,154ZM183.41,84.39a1.66,1.66,0,0,0,2.1-1.9c-.09-.82-.9-1.57-1.39-2.35l-.91,0c-.55.74-1.56,1.51-1.51,2.21A2.87,2.87,0,0,0,183.41,84.39Zm2.09,8a2.92,2.92,0,0,0-2-1.84c-.69-.09-1.52.88-2.28,1.39v.93c.75.54,1.45,1.42,2.26,1.54A1.67,1.67,0,0,0,185.5,92.34Zm405.67-.44c-.76-.51-1.58-1.49-2.27-1.4a2.92,2.92,0,0,0-2,1.83,1.67,1.67,0,0,0,2,2c.81-.11,1.51-1,2.27-1.53ZM183.53,104.28a1.66,1.66,0,0,0,2-2c-.15-.82-1-1.51-1.55-2.26h-.91c-.5.77-1.46,1.6-1.37,2.3A2.88,2.88,0,0,0,183.53,104.28Zm405.37-3.84a2.89,2.89,0,0,0-2,1.84,1.67,1.67,0,0,0,2,2c.81-.11,1.52-1,2.27-1.53,0-.31,0-.62,0-.93C590.41,101.33,589.59,100.36,588.9,100.44Zm-2,11.68a1.67,1.67,0,0,0,1.89,2.12c.81-.07,1.56-.91,2.33-1.41l0-.94c-.74-.54-1.51-1.56-2.2-1.51A2.91,2.91,0,0,0,586.93,112.12ZM185.57,122.21a1.7,1.7,0,0,0-1.94-1.94c-.83.11-1.58.88-2.36,1.35,0,.31,0,.62,0,.93.73.57,1.4,1.49,2.2,1.63C184.68,124.41,185.55,123.55,185.57,122.21Zm403.37-1.89a2.94,2.94,0,0,0-2,1.79,1.67,1.67,0,0,0,1.94,2.07c.82-.09,1.54-1,2.31-1.47v-.94C590.43,121.25,589.63,120.25,588.94,120.32Zm-407.7,22.22c.76.54,1.46,1.42,2.28,1.53,1.25.17,2.08-.72,2-2.06a1.71,1.71,0,0,0-2-1.86c-.82.15-1.53.95-2.29,1.46C181.24,141.92,181.24,142.23,181.24,142.54ZM588.19,455c-1.24-.23-2.11.63-2.14,2a1.71,1.71,0,0,0,2,1.95c.83-.11,1.57-.88,2.35-1.35,0-.32,0-.63,0-.94C589.67,456,589,455.1,588.19,455Zm-405.47,9.94c-.82.12-1.52,1-2.27,1.53v.94c.76.5,1.48,1.31,2.3,1.45a1.72,1.72,0,0,0,2-1.86C184.8,465.61,184,464.71,182.72,464.89Zm407.64,1.43c-.77-.5-1.52-1.35-2.33-1.43a1.67,1.67,0,0,0-1.9,2.12,2.87,2.87,0,0,0,2.06,1.74c.69.06,1.47-.95,2.2-1.49Zm-2.25,12.38c.69.08,1.51-.9,2.27-1.41v-.93c-.75-.54-1.46-1.42-2.27-1.53a1.67,1.67,0,0,0-2,2A2.92,2.92,0,0,0,588.11,478.7Zm-407.66,8.54c.77.51,1.59,1.49,2.28,1.4a2.91,2.91,0,0,0,2-1.83,1.66,1.66,0,0,0-2-2c-.81.11-1.51,1-2.26,1.53Zm405.68-.39a2.9,2.9,0,0,0,2,1.79c.69.07,1.49-.93,2.24-1.45,0-.32,0-.63,0-.94-.76-.52-1.49-1.38-2.3-1.47A1.66,1.66,0,0,0,586.13,486.85ZM185.52,301.12c-.13-.82-1-1.53-1.5-2.29h-.91c-.51.76-1.49,1.56-1.42,2.26a2.89,2.89,0,0,0,1.79,2A1.68,1.68,0,0,0,185.52,301.12Zm-2.82,207.4a2.92,2.92,0,0,0,2-1.81,1.66,1.66,0,0,0-2-2c-.81.1-1.53,1-2.29,1.5v.93C181.2,507.61,182,508.59,182.7,508.52ZM586.92,261.29a1.67,1.67,0,0,0,1.94,2.07c.82-.09,1.54-1,2.31-1.47,0-.32,0-.63,0-.94-.75-.52-1.55-1.52-2.24-1.45A2.94,2.94,0,0,0,586.92,261.29ZM182.72,514.6c-.82.11-1.52,1-2.27,1.53v.93c.77.51,1.59,1.49,2.28,1.4a2.89,2.89,0,0,0,2-1.83A1.66,1.66,0,0,0,182.72,514.6Zm407.65,1.47c-.77-.52-1.49-1.38-2.3-1.47a1.67,1.67,0,0,0-1.94,2.08,2.91,2.91,0,0,0,2,1.78c.69.07,1.48-.92,2.23-1.45C590.38,516.7,590.37,516.39,590.37,516.07Zm-1.5-236.74a1.71,1.71,0,0,0-2,1.87c0,1.34.81,2.23,2.07,2,.81-.12,1.51-1,2.26-1.54v-.93C590.41,280.26,589.69,279.46,588.87,279.33ZM182.68,528.41a2.92,2.92,0,0,0,2-1.79,1.67,1.67,0,0,0-1.94-2.08c-.81.09-1.54,1-2.3,1.48l0,.93C181.19,527.48,182,528.48,182.68,528.41Zm403.45-1.85a2.86,2.86,0,0,0,2,1.84c.68.09,1.51-.88,2.27-1.38,0-.32,0-.63,0-.94-.75-.54-1.45-1.42-2.26-1.54A1.67,1.67,0,0,0,586.13,526.56Zm0,10a2.9,2.9,0,0,0,2,1.77c.69.06,1.47-.94,2.22-1.47l0-.93c-.77-.52-1.5-1.37-2.32-1.46A1.66,1.66,0,0,0,586.13,536.57Zm-403.41,7.85c-.81.11-1.52,1-2.27,1.53v.93c.76.51,1.47,1.32,2.29,1.46a1.72,1.72,0,0,0,2-1.86C184.81,545.14,184,544.25,182.72,544.42Zm-2.25,62.17c.77.49,1.61,1.45,2.3,1.35a2.9,2.9,0,0,0,1.93-1.88,1.67,1.67,0,0,0-2-2c-.81.13-1.49,1-2.23,1.58ZM588,558.28c.83-.12,1.55-.92,2.33-1.41,0-.31,0-.62,0-.93-.74-.55-1.43-1.45-2.24-1.58-1.25-.2-2.1.68-2.1,2A1.71,1.71,0,0,0,588,558.28Zm-405.28,9.89a2.88,2.88,0,0,0,1.94-1.87,1.67,1.67,0,0,0-2-2c-.81.13-1.5,1-2.24,1.58,0,.31,0,.62,0,.93C181.23,567.31,182.07,568.27,182.76,568.17Zm403.29-1.89a1.71,1.71,0,0,0,2,1.94c.83-.1,1.57-.88,2.35-1.35,0-.31,0-.63,0-.94-.73-.56-1.4-1.47-2.21-1.62C586.94,564.07,586.09,564.94,586.05,566.28ZM183.6,279.33c-.83.12-1.56.9-2.34,1.38l0,.93c.74.56,1.42,1.47,2.23,1.61,1.25.2,2.1-.66,2.11-2A1.7,1.7,0,0,0,183.6,279.33Zm1.1,307a1.67,1.67,0,0,0-1.89-2.12c-.82.07-1.56.92-2.34,1.42,0,.31,0,.62,0,.93.74.55,1.51,1.56,2.21,1.5A2.9,2.9,0,0,0,184.7,586.31Zm0,9.67c-.18-.83-1.06-1.51-1.63-2.25l-.86,0a7.71,7.71,0,0,0-1.39,2.39c-.21,1.24.72,2,1.93,1.94S185,597.28,184.72,596Zm401.33.18a1.7,1.7,0,0,0,2,1.88c.83-.13,1.55-.92,2.32-1.41,0-.32,0-.63,0-.94-.75-.55-1.44-1.44-2.25-1.56C586.89,593.94,586,594.82,586.05,596.16Zm3-326.71a2.86,2.86,0,0,0-2.07,1.72,1.67,1.67,0,0,0,1.87,2.13c.82-.07,1.57-.91,2.35-1.4l0-.93C590.46,270.42,589.69,269.4,589,269.45Zm1.37,336.07c-.77-.51-1.5-1.36-2.32-1.45a1.66,1.66,0,0,0-1.92,2.09,2.91,2.91,0,0,0,2,1.77c.69.07,1.48-.94,2.23-1.47C590.38,606.15,590.37,605.84,590.37,605.52Zm-4.24,10.57a2.91,2.91,0,0,0,2,1.78c.69.07,1.49-.92,2.23-1.45,0-.31,0-.62,0-.94-.77-.51-1.49-1.38-2.3-1.47A1.67,1.67,0,0,0,586.13,616.09ZM222.63,45.58h.92c.52-.76,1.51-1.56,1.44-2.26a2.89,2.89,0,0,0-1.82-2,1.65,1.65,0,0,0-2,2C221.26,44.12,222.11,44.83,222.63,45.58ZM233,45.2a8,8,0,0,0,2.34-1.42l0-.9c-.75-.54-1.43-1.41-2.25-1.56-1.28-.23-2.11.68-2.09,2S231.79,45.42,233,45.2Zm10.28.4c.57-.72,1.47-1.39,1.62-2.19a1.64,1.64,0,0,0-1.9-2.08,3,3,0,0,0-2,1.89c-.11.68.83,1.55,1.31,2.34Zm48.17,656.95c-.54.74-1.4,1.44-1.53,2.25a1.65,1.65,0,0,0,2,2,2.89,2.89,0,0,0,1.84-1.95c.08-.7-.89-1.52-1.4-2.29Zm10.46.42a1.62,1.62,0,0,0-2.05,1.91c.11.82,1,1.55,1.48,2.32l.9,0c.53-.76,1.52-1.55,1.46-2.25A2.93,2.93,0,0,0,301.93,703ZM272.81,45.18a2.94,2.94,0,0,0,1.89-1.92c.09-.7-.86-1.54-1.36-2.32l-.89,0c-.56.75-1.46,1.43-1.6,2.25A1.63,1.63,0,0,0,272.81,45.18Zm48.42,657.38c-.52.76-1.37,1.48-1.47,2.3a1.66,1.66,0,0,0,2.05,1.94,2.9,2.9,0,0,0,1.8-2c.06-.69-.94-1.49-1.47-2.24ZM292.67,45.14c.71.09,1.55-.85,2.33-1.34l0-.89c-.74-.55-1.42-1.43-2.23-1.59a1.65,1.65,0,0,0-2.05,2A2.87,2.87,0,0,0,292.67,45.14Zm10,0a2.91,2.91,0,0,0,1.89-1.91c.09-.7-.86-1.54-1.36-2.32l-.89,0c-.56.74-1.45,1.42-1.6,2.24A1.62,1.62,0,0,0,302.63,45.17Zm10,0c.82-.17,1.5-1,2.24-1.56l0-.9c-.78-.49-1.62-1.46-2.31-1.36a2.88,2.88,0,0,0-1.93,1.88A1.62,1.62,0,0,0,312.67,45.19ZM588.9,130.27a2.9,2.9,0,0,0-2,1.83,1.67,1.67,0,0,0,2,2c.81-.12,1.51-1,2.27-1.53,0-.32,0-.63,0-.94C590.41,131.16,589.59,130.19,588.9,130.27ZM449.15,703a2.85,2.85,0,0,0-2,1.83,1.63,1.63,0,0,0,2,2c.83-.16,1.53-1,2.28-1.55,0-.29,0-.58,0-.87C450.67,703.89,449.85,702.92,449.15,703ZM460.34,45.58c.51-.76,1.36-1.48,1.47-2.29a1.66,1.66,0,0,0-2.05-1.95,2.89,2.89,0,0,0-1.8,2c-.07.69.93,1.49,1.46,2.24Zm9.44-.39c.83-.11,1.56-.93,2.33-1.43l0-.87c-.75-.55-1.53-1.56-2.24-1.52a2.89,2.89,0,0,0-2,1.76A1.62,1.62,0,0,0,469.78,45.19ZM478.9,703A2.9,2.9,0,0,0,477,704.9c-.08.7.89,1.53,1.39,2.3h.9c.54-.75,1.43-1.44,1.56-2.26A1.63,1.63,0,0,0,478.9,703ZM490.16,45.58c.52-.76,1.36-1.48,1.47-2.3a1.65,1.65,0,0,0-2.05-1.94,2.89,2.89,0,0,0-1.8,2c-.07.7.93,1.49,1.46,2.25ZM272,703a1.63,1.63,0,0,0-1.92,2c.15.81,1.06,1.48,1.63,2.21l.89,0c.49-.78,1.43-1.64,1.33-2.34A3,3,0,0,0,272,703ZM519.86,45.6c.55-.73,1.44-1.4,1.59-2.21a1.66,1.66,0,0,0-1.94-2,2.87,2.87,0,0,0-1.9,1.9c-.11.69.84,1.54,1.33,2.32Zm9.72-.47c.71,0,1.47-1,2.21-1.53l0-.87c-.79-.49-1.53-1.3-2.37-1.41a1.63,1.63,0,0,0-1.87,2.1A2.87,2.87,0,0,0,529.58,45.13Zm9.79,0c.7.09,1.54-.86,2.33-1.35l0-.86c-.75-.56-1.42-1.43-2.24-1.61a1.63,1.63,0,0,0-2,1.94A2.85,2.85,0,0,0,539.37,45.14Zm9.93,0a1.63,1.63,0,0,0,2-2c-.13-.82-1-1.51-1.57-2.26l-.89,0c-.51.77-1.47,1.61-1.38,2.3A2.92,2.92,0,0,0,549.3,45.18ZM182.66,578.12a2.92,2.92,0,0,0,2-1.78,1.67,1.67,0,0,0-1.92-2.09c-.82.09-1.55.94-2.32,1.45l0,.93C181.18,577.17,182,578.18,182.66,578.12ZM499.39,702.58l-.92,0c-.56.73-1.59,1.5-1.55,2.19a2.89,2.89,0,0,0,1.74,2.06,1.65,1.65,0,0,0,2.11-1.87C500.7,704.1,499.88,703.36,499.39,702.58Zm9.28.39a2.88,2.88,0,0,0-1.79,2c-.07.7.91,1.5,1.44,2.25h.9c.52-.77,1.38-1.49,1.49-2.31A1.62,1.62,0,0,0,508.67,703ZM183.14,494.32l-.87,0a7.81,7.81,0,0,0-1.43,2.36c-.23,1.23.68,2,1.89,2s2.26-.76,2-2.08C184.55,495.77,183.69,495.08,183.14,494.32Zm-.91-19.85c-.49.79-1.27,1.54-1.39,2.39a1.62,1.62,0,0,0,2.1,1.87,2.85,2.85,0,0,0,1.72-2.07c0-.72-1-1.48-1.57-2.23ZM588.87,289.33a2.91,2.91,0,0,0-2,1.85,1.66,1.66,0,0,0,2,2c.81-.12,1.5-1,2.25-1.55l0-.94C590.4,290.2,589.56,289.24,588.87,289.33Zm0-45.85c.81-.11,1.52-1,2.27-1.52V241c-.76-.51-1.57-1.49-2.26-1.41a2.9,2.9,0,0,0-2,1.82A1.67,1.67,0,0,0,588.9,243.48ZM182.79,657.7a1.73,1.73,0,0,0,2-1.92c0-1.33-.85-2.21-2.11-2-.81.14-1.49,1-2.23,1.59,0,.31,0,.62,0,.93C181.24,656.78,182,657.58,182.79,657.7Zm2.71-465.91a2.92,2.92,0,0,0-1.94-1.88c-.69-.1-1.53.85-2.3,1.34l0,.94c.74.55,1.43,1.45,2.24,1.58A1.67,1.67,0,0,0,185.5,191.79ZM182.7,614c-.81.12-1.51,1-2.26,1.56l0,.93c.76.5,1.48,1.3,2.31,1.43a1.72,1.72,0,0,0,2-1.88C184.79,614.7,184,613.82,182.7,614Zm336,89a2.88,2.88,0,0,0-2,1.83,1.63,1.63,0,0,0,2,2c.83-.16,1.52-1,2.28-1.55l0-.87C520.26,703.89,519.44,702.93,518.73,703Zm70.41-493.22a1.62,1.62,0,0,0-2.21,1.73,2.94,2.94,0,0,0,1.74,2.09c.67.16,1.61-.73,2.43-1.16,0-.3.08-.61.11-.91C590.53,210.92,589.93,210,589.14,209.78Zm-60,492.79-.92,0c-.54.74-1.56,1.52-1.5,2.22a2.86,2.86,0,0,0,1.77,2,1.66,1.66,0,0,0,2.08-1.92C530.5,704.07,529.67,703.34,529.17,702.57ZM182.66,554.36c-.81.14-1.49,1-2.22,1.61l0,.93c.78.48,1.51,1.26,2.34,1.38a1.71,1.71,0,0,0,2-1.92C184.77,555,183.9,554.15,182.66,554.36Zm.88-440.13a1.68,1.68,0,0,0,2-2c-.16-.82-1-1.5-1.58-2.25l-.9,0c-.49.77-1.44,1.61-1.35,2.31A2.92,2.92,0,0,0,183.54,114.23Zm0,155.21c-.69-.09-1.53.87-2.3,1.36v.94c.74.55,1.43,1.44,2.24,1.56a1.67,1.67,0,0,0,2-2A2.9,2.9,0,0,0,183.55,269.44Zm403.3-187c0,1.34.88,2.2,2.13,2,.8-.14,1.48-1,2.21-1.61l0-.93c-.78-.48-1.52-1.26-2.35-1.37A1.71,1.71,0,0,0,586.85,82.44ZM182.77,637.75a2.89,2.89,0,0,0,1.93-1.87,1.67,1.67,0,0,0-2-2c-.81.13-1.49,1-2.23,1.59l0,.93C181.24,636.9,182.08,637.85,182.77,637.75Zm-.3-99.39a1.63,1.63,0,0,0,2.23-1.72,2.93,2.93,0,0,0-1.74-2.1c-.67-.17-1.61.73-2.43,1.15l-.12.9C181.09,537.21,181.68,538.13,182.47,538.36Zm3-306.83a2.91,2.91,0,0,0-2-1.86c-.69-.09-1.52.88-2.29,1.38V232c.75.55,1.44,1.44,2.25,1.56A1.67,1.67,0,0,0,185.5,231.53ZM182.66,455c-.81.14-1.49,1.05-2.22,1.61l0,.93c.78.48,1.51,1.26,2.34,1.38a1.72,1.72,0,0,0,2-1.93A1.8,1.8,0,0,0,182.66,455ZM588.9,164c.81-.11,1.52-1,2.27-1.52v-.93c-.76-.51-1.57-1.49-2.26-1.41a2.92,2.92,0,0,0-2,1.82A1.67,1.67,0,0,0,588.9,164ZM183.46,154c1.25.21,2.1-.66,2.11-2a1.71,1.71,0,0,0-2-1.92c-.83.11-1.56.9-2.34,1.39l0,.93C182,153,182.65,153.87,183.46,154Zm38.32,548.56c-.5.77-1.34,1.5-1.43,2.31a1.66,1.66,0,0,0,2.08,1.92,2.89,2.89,0,0,0,1.77-2c.05-.7-1-1.48-1.5-2.22Zm20.41.39a1.63,1.63,0,0,0-2,2c.15.82,1.05,1.5,1.61,2.24l.89,0c.49-.78,1.45-1.62,1.35-2.32A2.91,2.91,0,0,0,242.19,703Zm39.53-.44c-.59.7-1.51,1.32-1.71,2.12a1.65,1.65,0,0,0,1.82,2.15,2.85,2.85,0,0,0,2-1.78c.15-.69-.75-1.59-1.19-2.39ZM252.94,45.19c.84-.16,1.55-1,2.31-1.51v-.93c-.79-.5-1.64-1.48-2.34-1.37A2.92,2.92,0,0,0,251,43.32,1.58,1.58,0,0,0,252.94,45.19Zm9.94,0c.83-.14,1.54-.95,2.3-1.47v-.9c-.75-.52-1.55-1.52-2.25-1.45a2.88,2.88,0,0,0-2,1.81A1.62,1.62,0,0,0,262.88,45.19Zm20,0a2.9,2.9,0,0,0,1.74-2c.05-.7-.95-1.47-1.49-2.22l-.9,0c-.51.77-1.34,1.51-1.44,2.34A1.63,1.63,0,0,0,282.88,45.17Zm39.65,0c.83-.17,1.54-1,2.31-1.51,0-.31,0-.62,0-.93-.78-.5-1.64-1.48-2.33-1.37a2.9,2.9,0,0,0-1.91,1.94A1.58,1.58,0,0,0,322.53,45.19Zm127.47,0c.83-.19,1.52-1,2.26-1.59l0-.89c-.81-.49-1.69-1.45-2.4-1.33a2.9,2.9,0,0,0-1.84,2A1.59,1.59,0,0,0,450,45.19Zm29.74,0a1.62,1.62,0,0,0,1.94-2c-.14-.82-1-1.49-1.6-2.23l-.89,0c-.49.78-1.44,1.63-1.34,2.33A2.91,2.91,0,0,0,479.74,45.17Zm19.84,0c.83-.1,1.57-.91,2.35-1.4l.05-.86c-.75-.56-1.51-1.58-2.23-1.55a2.85,2.85,0,0,0-2,1.72A1.62,1.62,0,0,0,499.58,45.19Zm86.48,541.14a1.71,1.71,0,0,0,2.11,1.76c.81-.17,1.49-1,2.22-1.55l0-.93c-.77-.5-1.52-1.34-2.34-1.42C586.76,584.07,586,585,586.06,586.33ZM183.55,213.66c1.26.15,2.08-.75,2-2.1a1.71,1.71,0,0,0-2.07-1.81c-.82.16-1.51,1-2.26,1.49v.94C182,212.7,182.74,213.56,183.55,213.66ZM588,663.72c-1.26-.12-2,.81-2,2.15a1.7,1.7,0,0,0,2.11,1.75c.82-.18,1.49-1,2.23-1.56l0-.94C589.58,664.63,588.83,663.79,588,663.72Zm.16-85.62c.69.06,1.47-.94,2.21-1.48l0-.94c-.77-.5-1.51-1.35-2.32-1.43a1.67,1.67,0,0,0-1.91,2.1A2.93,2.93,0,0,0,588.18,578.1Zm3-277.53c-.78-.47-1.64-1.4-2.33-1.29a2.91,2.91,0,0,0-1.9,1.9,1.67,1.67,0,0,0,2.06,1.95c.81-.15,1.48-1.06,2.21-1.63C591.18,301.19,591.16,300.88,591.15,300.57ZM183.56,289.28c-.82.14-1.54.92-2.31,1.42v.93c.75.55,1.44,1.44,2.26,1.56,1.25.19,2.09-.7,2.07-2A1.7,1.7,0,0,0,183.56,289.28Zm0-155.17a2.91,2.91,0,0,0,1.9-1.93c.11-.69-.84-1.54-1.33-2.32l-.91,0c-.55.73-1.4,1.4-1.58,2.22A1.64,1.64,0,0,0,183.56,134.11ZM232.25,703a2.85,2.85,0,0,0-1.94,1.85,1.66,1.66,0,0,0,2,2c.82-.15,1.5-1,2.25-1.57l0-.89C233.78,703.86,233,702.91,232.25,703ZM586.13,496.8a2.91,2.91,0,0,0,2,1.77c.69.06,1.48-.93,2.23-1.46l0-.94c-.76-.51-1.49-1.36-2.31-1.45A1.66,1.66,0,0,0,586.13,496.8ZM459.56,702.56h-.93c-.53.75-1.52,1.54-1.46,2.24a2.87,2.87,0,0,0,1.78,2,1.66,1.66,0,0,0,2.06-1.93C460.91,704.05,460.07,703.33,459.56,702.56ZM469,703a1.62,1.62,0,0,0-1.92,2,2.86,2.86,0,0,0,2,1.76c.71,0,1.49-1,2.24-1.5,0-.29,0-.58,0-.87C470.55,703.89,469.82,703.07,469,703Zm-216.82,0a1.63,1.63,0,0,0-2,2c.13.81,1,1.52,1.53,2.28h.9c.51-.77,1.49-1.58,1.41-2.28A2.92,2.92,0,0,0,252.18,703Zm9.52-.42c-.55.73-1.44,1.41-1.59,2.22a1.66,1.66,0,0,0,2,2,2.87,2.87,0,0,0,1.88-1.91c.1-.69-.85-1.54-1.34-2.31Zm248-657.41c.71.06,1.5-1,2.26-1.51,0-.29,0-.59,0-.89-.81-.49-1.68-1.46-2.39-1.35s-1.31,1.26-2,2C508.24,44,508.9,45.06,509.65,45.13Zm79.22,98.94c.82-.1,1.54-1,2.3-1.49v-.94c-.76-.52-1.45-1.32-2.28-1.48a1.71,1.71,0,0,0-2,1.83C586.8,143.33,587.62,144.22,588.87,144.07Zm-2.74,511.68a2.91,2.91,0,0,0,1.92,1.88c.69.1,1.53-.84,2.31-1.32l0-.94c-.73-.55-1.41-1.45-2.22-1.59A1.66,1.66,0,0,0,586.13,655.75Zm2.79-432.15c.82-.12,1.51-1,2.26-1.56,0-.31,0-.62,0-.93-.76-.5-1.48-1.28-2.31-1.42a1.7,1.7,0,0,0-2,1.88C586.83,222.91,587.68,223.79,588.92,223.6ZM538.61,703a1.62,1.62,0,0,0-1.94,2,2.85,2.85,0,0,0,2,1.79c.71.06,1.51-.94,2.27-1.47,0-.29,0-.58,0-.87C540.15,703.91,539.44,703.08,538.61,703Zm10.43-.39h-.93c-.53.75-1.53,1.53-1.47,2.23a2.89,2.89,0,0,0,1.77,2,1.66,1.66,0,0,0,2.07-1.93C550.38,704.06,549.55,703.33,549,702.56Zm-239.2,2.18a1.66,1.66,0,0,0,1.91,2.08c.82-.1,1.56-.92,2.33-1.42l0-.89c-.74-.55-1.52-1.55-2.22-1.51A2.86,2.86,0,0,0,309.84,704.74ZM588,508.56c.83-.12,1.56-.9,2.33-1.39l0-.93c-.74-.56-1.42-1.45-2.23-1.58-1.25-.21-2.1.67-2.11,2A1.7,1.7,0,0,0,588,508.56Zm-98.78,194-.92,0c-.48.78-1.43,1.63-1.33,2.32a2.87,2.87,0,0,0,1.88,1.91,1.66,1.66,0,0,0,1.95-2C490.69,704,489.8,703.27,489.25,702.54ZM317.71,448c-2-.05-3.46,1.4-3.56,3.67a4.42,4.42,0,0,0,4,4.63,4.11,4.11,0,0,0,4-3.87A4.4,4.4,0,0,0,317.71,448Zm134.77-43.39a4.41,4.41,0,0,0,4.21-4.4c0-2.24-1.33-3.84-3.33-3.91a4.44,4.44,0,0,0-4.63,4.19A4.14,4.14,0,0,0,452.48,404.65Zm-1-105.37a4.44,4.44,0,0,0,4-4.56c0-2.26-1.43-3.75-3.48-3.75a4.4,4.4,0,0,0-4.47,4.34A4.1,4.1,0,0,0,451.45,299.28Zm-135.09-62c-2,0-3.41,1.59-3.42,3.83a4.46,4.46,0,0,0,4.13,4.49,4.14,4.14,0,0,0,3.84-4A4.43,4.43,0,0,0,316.36,237.28Zm.13,105.38c-2.06,0-3.46,1.43-3.54,3.7a4.45,4.45,0,0,0,4,4.61,4.1,4.1,0,0,0,4-3.92A4.37,4.37,0,0,0,316.49,342.66ZM451.29,193.9a4.39,4.39,0,0,0,4.2-4.4c0-2.34-1.41-3.94-3.52-3.91a4.42,4.42,0,0,0-4.44,4.18A4.16,4.16,0,0,0,451.29,193.9Zm3.65,309.4a4.46,4.46,0,0,0-4.62,4.21,4.14,4.14,0,0,0,3.77,4.11,4.43,4.43,0,0,0,4.19-4.41C458.3,505,456.94,503.37,454.94,503.3Zm-194.26-307c-.83.17-1.51,1-2.26,1.6,0,.31,0,.61,0,.91.83.55,1.61,1.45,2.51,1.57,1.32.19,2-.86,2-2.17A1.81,1.81,0,0,0,260.68,196.32ZM508.79,359.45c.88-.18,1.62-1.09,2.43-1.68,0-.3,0-.61,0-.92-.78-.51-1.5-1.34-2.34-1.48-1.3-.22-2.13.69-2.14,2S507.46,359.72,508.79,359.45Zm-.47,104.74c-.11,1.3.57,2.37,1.89,2.24.9-.09,1.71-1,2.56-1.48,0-.31,0-.61.05-.92-.72-.58-1.37-1.49-2.2-1.69A1.83,1.83,0,0,0,508.32,464.19ZM262.16,407.12c-.78-.08-1.67.87-2.51,1.37,0,.32,0,.64,0,1,.8.59,1.53,1.51,2.41,1.69a1.66,1.66,0,0,0,2-2A3,3,0,0,0,262.16,407.12ZM507.3,254.06c.9,0,1.76-.84,2.65-1.3,0-.32.06-.64.1-1-.75-.62-1.49-1.71-2.27-1.74a2.91,2.91,0,0,0-2.16,1.68A1.67,1.67,0,0,0,507.3,254.06ZM260.92,301.75c-.78-.07-1.65.91-2.48,1.43,0,.32,0,.64,0,1,.81.57,1.57,1.48,2.45,1.64a1.67,1.67,0,0,0,2-2.08A2.93,2.93,0,0,0,260.92,301.75Zm246.58-153c.89-.13,1.68-1,2.51-1.57v-1c-.81-.54-1.66-1.55-2.44-1.5a2.94,2.94,0,0,0-2,1.89A1.67,1.67,0,0,0,507.5,148.71ZM367.13,87c1.65,6.27,3.23,12.55,4.8,18.84.79,3.13,1.5,6.27,2.26,9.48-1.95.22-3.73.31-5.46.66-.64.13-1.15.88-1.72,1.35.52.5,1,1.27,1.58,1.45a12.68,12.68,0,0,0,3.53.4q15,0,30,0c1.52,0,3.33.15,3.67-1.84s-1.5-2.12-2.89-2.45c-.42-9.64-.84-19.2-1.25-28.83a9.16,9.16,0,0,1,1.05-.19c1.3-.08,2.94.19,2.9-1.78s-1.63-1.6-2.84-1.6q-17.37,0-34.75.06a3.85,3.85,0,0,0-1.74.28c-.52.28-1.18.82-1.23,1.31s.56,1,.93,1.53S367,86.52,367.13,87Zm26.91-1h4.48V115H394Zm-4,.1v28.94H379.26c2.05-9.58,4.1-19.16,6.2-28.94Zm-7.92.09c-1.81,7.25-3.56,14.28-5.36,21.5l-6.13-21.5Z"/></svg>