<svg xmlns="http://www.w3.org/2000/svg" viewBox="0 0 750 750"><path d="M606.26,48.78c0-14.91-11.35-23.8-23.81-23.78q-197.43.27-394.87.11c-13.42,0-22.91,9.45-22.91,22.84V374.86q0,163.84,0,327.7a23.08,23.08,0,0,0,.61,5.5c2.63,10.62,11.24,16.94,22.94,16.94H583.71c8-.18,14.44-3.43,18.94-10.18,2.79-4.19,3.55-8.89,3.55-13.82q0-236.08,0-472.17C606.19,168.81,606.09,108.79,606.26,48.78Zm-4.35,652.9c0,11.53-7.48,19-19,19H187.83c-9.44,0-16.55-5.33-18.48-14a23.12,23.12,0,0,1-.39-4.93q0-163.46,0-326.92V47.58c0-8.91,5.5-15.94,14-17.83a19.13,19.13,0,0,1,3.94-.35H584A17.66,17.66,0,0,1,601.9,47c0,1.32,0,2.65,0,4Zm-407.2-30V418.86l-4.13,3.06V675.28c12.5,2.29,20.93,8.41,21.82,22.16a12.57,12.57,0,0,0,1.47.15q58.82,0,117.64,0c3.21,0,4.42-2.47,6.29-4.35H216.12C213.4,681.66,207,673.94,194.71,671.71Zm385.68-249.8-4.26-3.09V672A21.48,21.48,0,0,0,562,679a25.8,25.8,0,0,0-7,14.38H432.85c2.46,2.93,5,4.57,8.85,4.27,4.67-.37,9.4-.09,14.1-.09l101.35,0a10.16,10.16,0,0,0,1.39-.17c1-13.76,9.37-19.9,21.85-22.14ZM577,76.51V319.2c.57-.31.88-.42,1.13-.6,1-.74,2-1.5,3-2.24V73c-12.5-2.3-20.93-8.42-21.84-22.3h-3.83q-57.43,0-114.86-.07c-3.41,0-4.77,2.38-6.71,4.37H555.65C558.33,66.56,564.77,74.26,577,76.51ZM191.36,316.37l4.26,3.12v-243c12.28-2.34,18.64-10,21.29-21.65h122c-2.5-2.74-4.85-4.6-8.69-4.28-4.67.4-9.39.1-14.09.1l-101.56,0a10.36,10.36,0,0,0-1.39.17c-1,13.76-9.36,19.91-21.85,22.15Zm55.29-49.76a17.32,17.32,0,0,0,3.22,6c2.72,3.57,5.8,6.86,8.57,10.4,2.31,2.95,4.38,6.08,6.56,9.13l-.25.45c-4-1.28-7.85-1.84-11.6,1.35.85,1.4,1.4,2.9,2.44,3.91a22.37,22.37,0,0,0,12.74,6.37c1.71.23,3.42.46,5.1.83a11,11,0,0,1,2.33,1.2l-1.28.83c-2,1.23-2,2.38-.12,3.78a9.59,9.59,0,0,0,1.5,1,18.55,18.55,0,0,1,7.25,6.62c1.05,1.6,2.31,3.07,3.33,4.7a159.84,159.84,0,0,0,23.92,29.31A44.46,44.46,0,0,1,318,362.77c5.09,9.36,11.38,17.85,18,26.12a21.8,21.8,0,0,0,3.32,3.4c2.06,1.64,4,1.63,5.81.25,3-2.25,3.43-4.3,1.26-7.45-1.11-1.63-2.6-3-3.78-4.59-5.92-8.05-11.94-16-17.64-24.25-3.26-4.69-6.9-9.27-8.16-15.09a18.38,18.38,0,0,0-.74-2.47c-.65-1.75-1.66-2.19-3.42-1.57-.42.15-.85.28-1.82.6l-26.38-39.41c1.16-3.3.86-3.75-2.45-4.18-1.64-2.51-3.46-5.05-5-7.74a226.94,226.94,0,0,0-19.05-28.06,7,7,0,0,0-2.4-2.3c-1.11-.45-2.73-.76-3.68-.26A9.78,9.78,0,0,0,246.65,266.61ZM345,388.9c-1.53,2.25-2.86,2.68-4.41.88-3.2-3.73-6.12-7.71-9.4-11.89C336.58,378.81,344.47,385.3,345,388.9ZM335.8,377c-7-2.59-12.22-7.77-13.54-13.53C326.19,364.32,335.25,373.37,335.8,377Zm-22.74-36.91.69-.21c1,9.12,7.62,15.13,12,22.42-1.71-.24-5.35-2.53-6.24-4.57-2.37-5.43-4.46-11-6.62-16.49C312.75,341,313,340.51,313.06,340.12ZM292.63,327l-5.6-8.18C289.82,319.5,293.12,324.12,292.63,327Zm19.8,22.35c-2.27-2.07-5.12-4.18-7.29-6.85-1.06-1.3-.87-3.63-1.25-5.5a32,32,0,0,1-.72-4.64C307.9,337.41,312.21,342.59,312.43,349.39Zm-15.85-26.91a42.36,42.36,0,0,1,3.41,8.84,24,24,0,0,1,.73,6.3c-2.23-2.57-5.56-4.43-5.39-8.45a12.51,12.51,0,0,0-5.05-10.91c-2.8-2.18-5.88-4-8.88-5.91-1.44-.92-3-1.67-4.41-2.45.92-.46,2.16-.69,2.33-1.25a3.87,3.87,0,0,0-.6-2.68,50,50,0,0,0-3-4.07l.4-.37c1.26,1,2.49,2.06,3.79,3A57.8,57.8,0,0,1,296.58,322.48Zm-29.17-45.85q4.38,7.32,8.75,14.64l-.52.3c-4.55-3.92-6.71-9.24-8.72-14.65Zm-5.7-7.67c2.12,1.6,2.08,3.52,2.57,5.22.88,3.1,1.67,6.24,2.84,9.24a24.49,24.49,0,0,0,6.69,9c2.92,2.67,5.73,5.48,8.46,8.36a36.27,36.27,0,0,1,3.1,4.31l-.56.63c-3.7-2.94-7.38-5.92-11.11-8.82-4.73-3.69-8-8.63-11.29-13.48a5.27,5.27,0,0,1-1-2.74C261.38,277,261.58,273.22,261.71,269Zm-12.25-5a5.21,5.21,0,0,1,3.7-4.68,6,6,0,0,1,1.6,5.59l-.63.24c-.38-.91-.77-1.82-1.16-2.74-1.52-.32-1.95.59-2.06,1.74-.17,1.71,1.87,4.39,3.54,4.5,3.35.23,2.75-2.67,3.35-4.59,2.05,1.36,2.34,8.83.51,13.24a9.66,9.66,0,0,1-1-.81c-1.45-1.54-2.86-3.11-4.31-4.64C250.91,269.57,249.1,267.24,249.46,263.94Zm165.6,123.88c-1.47,2.55-1.29,4.25.61,6.05,2.27,2.14,4.12,2.4,6.58.77a11.26,11.26,0,0,0,2.38-2.08c7-8.07,13.87-16.19,19.26-25.48a54.42,54.42,0,0,1,7.17-9.7c4.46-4.79,9.67-8.91,13.94-13.85,5.44-6.3,10.33-13.09,15.34-19.75A25.09,25.09,0,0,1,489.2,316c3.24-1.62,3.19-2.93,0-4.9,1-1.94,2.79-1.54,4.24-1.67,5.67-.51,11-1.83,15.3-5.8a28.41,28.41,0,0,0,3.17-4.16c-2.33-2.47-3.2-2.61-11.75-2.14A11.51,11.51,0,0,1,501,296c5.07-6,10-12.19,15.3-18,3.66-4,5-10.62.17-15.21-2.88-2.75-5.43-2.42-7.62.28q-5.39,6.62-10.73,13.29c-1.18,1.46-2.33,3-3.49,4.44l-.14-.14-1.05,2.81-.43-.67c-1,.15-2.46-.08-3,.51-1.22,1.35,0,2.35,1.44,3.34-13.08,18.13-25,37-39.08,54.25-3.91-1.37-4-1.28-5.47,2.65-1,2.71-1.86,5.65-3.52,7.95-8.68,12-17.4,24-27.41,35A7.39,7.39,0,0,0,415.06,387.82Zm56.38-57c-.83-2.32,1.88-6.14,5.89-7.95ZM508.31,269c.64,2-.23,5.08,3.15,4.92,2-.1,3-1.76,3.66-3.48.42-1.14.16-2.22-1.57-3l-1.62,3.29a4.62,4.62,0,0,1,1.14-5.83,4.53,4.53,0,0,1,3.61,4.08,7.67,7.67,0,0,1-2.1,6.4c-2.3,2.4-4.8,4.61-7.2,6.89C505.75,278.81,506.17,271,508.31,269Zm-9.82,12.21.46.31c-2.27,5.55-4.71,11-9.62,14.85l-.43-.28ZM483.9,303.77a96.69,96.69,0,0,1,7.22-6.5,29.78,29.78,0,0,0,10.44-18,14.11,14.11,0,0,1,2.15-5c0,5.4,2.17,10.67-1.72,15.9-6.11,8.22-13.88,14.24-22.3,19.66l-.55-.44C480.71,307.55,482.16,305.51,483.9,303.77Zm-14.3,19.45c5.35-7.05,12.22-12.17,19.61-16.93-1,1.25-2.06,2.45-2.91,3.78a5.12,5.12,0,0,0-1,2.95c.06.53,1.53.89,2.45,1.38-1.49.74-3.09,1.63-4.77,2.34a33.26,33.26,0,0,0-11.07,7.56,9.92,9.92,0,0,0-3.13,7.48,8.35,8.35,0,0,1-2.71,6.54c-1.07,1.07-2,2.21-3.07,3.32A33.58,33.58,0,0,1,469.6,323.22ZM460.77,336c-.11.66-.19,1.34-.34,2-.52,2.38-1.07,4.76-1.61,7.14a2.18,2.18,0,0,1-.31.92c-2.51,2.48-5,4.93-7.8,7.63C451.13,345.78,455.82,340.85,460.77,336Zm-11,7.18.8.25a3.63,3.63,0,0,1,0,1.32c-2.2,5.15-4.31,10.35-6.71,15.41-1.26,2.65-3.94,3.88-6.57,5C441.66,357.91,448.39,352.1,449.78,343.13ZM440.65,366c-2.53,7.06-7.44,11.28-14.64,13.46C429.68,373.49,434.23,368.89,440.65,366ZM418,388.35c3.36-3.91,7.86-6.07,12.65-7.88-3.87,4.2-6.21,9.79-11.47,12.94l-2.68-2.28A14.54,14.54,0,0,1,418,388.35Zm35.66,123.34c-.3-1.45-.24-2.92-.88-4-2-3.28-4.11-6.54-7.66-8.42-2.51-1.34-5.09-2.55-7.58-3.92a11.77,11.77,0,0,1-2-2c4-.87,4.5-2.11,2.05-4.55a24.58,24.58,0,0,1-6.21-10.68c-.66-2.22-1.59-4.36-2.24-6.58a118.62,118.62,0,0,0-10.25-25.36c-3.27-5.74-6.69-11.47-7.91-18.13-1.88-10.29-5.55-20-9.48-29.65a31.23,31.23,0,0,0-2.55-5.15c-1.5-2.31-3.4-2.91-5.6-2.12-3.62,1.3-4.6,3.24-3.32,6.94.65,1.87,1.68,3.61,2.36,5.47,3.42,9.39,6.9,18.77,10.12,28.23,2.1,6.19,4.1,12.45,3.55,19.18-.15,1.91.92,2.57,3,2.49a5.79,5.79,0,0,1,1.67.46c-.07.17-.14.34-.22.51l-2.37-.55a10.13,10.13,0,0,0-.91,2.72c0,.52.85,1.57,1.18,1.52a17.79,17.79,0,0,0,3.41-1.23l8.35,25.36c-2.68,3.11-2.21,4.72,1.35,5.41,2.25,7.44,4.49,14.78,6.69,22.14,2.53,8.49,4.95,17,7.58,25.5,1.08,3.47,2.52,6.83,3.89,10.2,1,2.45,2.76,3.89,4.39,3.23,3.56-1.43,7.09-3,8.14-7.38.88-3.66-.57-6.67-1.9-9.89-2.93-7.08-5.57-14.28-8.32-21.44,0-.07.1-.2.22-.41C445.59,511.9,449.18,513.73,453.66,511.69Zm-61.26-117c2.11-1.64,3.46-1.73,4.37.27,2.09,4.57,3.83,9.3,5.89,14.4C397.39,406.58,391.7,398.14,392.4,394.66Zm5,13.68c6.42,4.54,9.63,10.36,9.83,17.64C401.91,421.22,399.11,415.3,397.36,408.34Zm12,42.14h-.78c1.54-9-3.11-16.69-5-25,1.94,1.74,4.12,3.56,4.5,6.15.87,5.94,1.25,11.95,1.79,17.93C409.83,449.84,409.5,450.17,409.33,450.48ZM417,459a8.72,8.72,0,0,1-.43,2.1c-3-6.34-5.91-12.67-3.89-20.37,1.78,3.43,4,6.47,4.89,9.85C418.28,453.17,417.29,456.19,417,459Zm8.05,9.47c1.25,3.77,2.35,7,3.51,10.54C425.85,477,423.91,471.55,425.08,468.48Zm-5.22,2.94a24.71,24.71,0,0,1-.68-6.29c.08-3,.55-6,.85-9l.66-.17c1,2.56,2,5.11,3,7.7a2.42,2.42,0,0,1-.18,1.53c-2.35,5.83-.41,10.81,3.23,15.28,2.28,2.81,5,5.29,7.46,7.92l1.64,1.74c-.64-.11-.9-.13-1.15-.2-1.84-.51-2.85.44-2.28,2.3s1.37,3.83,2.08,5.78c-.33.05-.51.12-.55.07C427.74,490,422.25,481.49,419.86,471.42Zm15.39,53.13Q433,516,430.83,507.44l.55-.1c3.4,5.21,4,11.11,4.42,17.07Zm14.15,14c.13,3.7-2,6.26-5.28,6.32-1.3-1.81-1.21-4,.64-6.4.09,1.43.15,2.38.22,3.45,1,.88,1.73.43,2.33-.53.85-1.35-.05-4.54-1.52-5.53a2.5,2.5,0,0,0-3.63.77,27.11,27.11,0,0,0-1.24,2.61l-.66-.2c-.61-4.72,1.43-8.77,3.9-12.9C445.48,530.49,449.24,533.72,449.4,538.53Zm-7.52-15.16c-.87,3.23-2.19,6.34-3.32,9.49l-.91,0a32.64,32.64,0,0,1-.11-5.13A30.31,30.31,0,0,0,433.28,507c-2.09-3.37-3.94-6.89-5.73-10.43a35.67,35.67,0,0,1-1.67-5l.45-.21,2,2.4c6,7.44,11,15.43,13.43,24.77A9.75,9.75,0,0,1,441.88,523.37ZM301.72,241.93c.33,1.54.34,3.14,1,4.4a22.15,22.15,0,0,0,10.18,10c1.56.73,3.11,1.47,4.61,2.32a15.65,15.65,0,0,1,2.08,1.79c-4.25,1.43-4.44,2.19-1.89,5.21.39.45.78.91,1.19,1.33a15.47,15.47,0,0,1,3.91,7.64c-1.54,3.29-.64,3.54,1.63,4.7.35,1,.82,2.16,1.09,3.31,2.63,11,7.38,21.21,12.58,31.24a47.55,47.55,0,0,1,4.47,12,167.1,167.1,0,0,0,8.18,27.78,71.36,71.36,0,0,0,3.1,7.3c1.65,3.09,3.79,3.67,7,2.31,2.6-1.11,3.41-3,2.43-6.24-.56-1.83-1.54-3.52-2.16-5.33-3.3-9.65-6.71-19.26-9.75-29-1.67-5.33-3.71-10.66-3.14-16.46a16.13,16.13,0,0,0,0-2.78c-.12-1.64-.94-2.57-2.72-2.39-.44.05-.89.06-1.28.09-2.3-3.54-18.09-58.13-19.08-65.86l1.23-1.33c.49-2.15-1.13-2.32-1.94-2.59-2.58-7.48-5-14.62-7.51-21.73a7.91,7.91,0,0,0-1.8-3.24,4.58,4.58,0,0,0-3.31-1.16,9.67,9.67,0,0,0-8.2,9,17.07,17.07,0,0,0,1.32,6.49c2.62,7.28,5.43,14.49,8.14,21.73a9.78,9.78,0,0,1,.24,1.81C309.63,241.84,306.17,240.19,301.72,241.93Zm59,118.22c-2.11,1.68-3.56,1.72-4.48-.42-1.95-4.5-3.54-9.15-5.39-14.06C355.35,347.51,361.34,356.6,360.76,360.15Zm-4.94-14.35c-4.6-1.56-9.09-9.78-9.27-17.18C351.66,333.48,354.36,339.25,355.82,345.8ZM344.9,304c.58,4.36.85,8.53,1.75,12.57s2.42,8.07,3.72,12.25a9.44,9.44,0,0,1-4.7-6.34c-.59-5.71-.89-11.44-1.27-17.17C344.38,304.9,344.71,304.49,344.9,304Zm-15-19.07-.63.21-2.91-9.42.53-.17C328.54,278.47,330.73,281.22,329.94,284.92Zm7.11,13.81a27.18,27.18,0,0,0,.52-5.22c3.21,6.31,5.85,12.61,3.75,20.13-.81-1.58-1.42-3-2.21-4.27C337.09,306.07,335.91,302.69,337.05,298.73Zm-2.14-5.6c-.31,1.66-.46,3.35-.94,5.06-1.37-3.36-4.16-6.31-2.58-10.41,1.44-3.74.7-7.23-1.14-10.68-2.28-4.28-5.59-7.66-9-11-.61-.58-1.13-1.25-1.61-1.79,1-.16,2.43-.05,2.64-.51a5.11,5.11,0,0,0,0-3.12c-.4-1.64-1.06-3.21-1.62-4.81l.44-.21c1.11,1.67,2.17,3.39,3.35,5a61.34,61.34,0,0,1,9.75,20.07A27,27,0,0,1,334.91,293.13ZM320.39,229.5l4.08,17.13-.52.1c-3.37-5.24-3.77-11.16-4.12-17.1Zm-3.14-8.38h.86a23.11,23.11,0,0,1,.13,4.54,31.75,31.75,0,0,0,4.51,22.79c2.33,3.8,3.9,8.06,5.77,12.14a10.28,10.28,0,0,1,.47,2l-.48.25c-2.19-3.11-4.37-6.22-6.57-9.31-4.05-5.69-6.49-12.1-8.28-18.77a7.64,7.64,0,0,1,0-4.08C314.72,227.46,316.05,224.31,317.25,221.12Zm-5.86,6.54c-1.54-3.41-3.28-6.68-4.5-10.14a6.4,6.4,0,0,1,2.7-8,11.47,11.47,0,0,1,2.26-.69,4.86,4.86,0,0,1-.64,6.35c-.1-1.31-.17-2.27-.25-3.31-1.2-.91-1.92-.21-2.44.84-.75,1.53.33,4.62,1.85,5.44,1.68.92,2.59.27,4.79-3.53C316.63,217.08,314.34,224.91,311.39,227.66Zm123.53,35.22c-4.55,13.52-9.1,27-13.6,40.38-4-.08-4.81.31-4.68,2.68.37,7.16-1.95,13.73-4.38,20.22-3.93,10.53-8.17,20.95-12.27,31.43a11.45,11.45,0,0,0-.58,1.89c-.53,2.54.08,4.06,2,5.07,3,1.61,4.64,1.5,6.6-.6a9.63,9.63,0,0,0,1.77-2.61c4.19-9.59,8.44-19.16,10.61-29.47a54.85,54.85,0,0,1,6.46-16.78c5.2-8.8,9.89-17.84,12.52-27.81.45-1.71,1.23-3.33,1.86-5,1.79-.17,3.16-.67,2.82-2.83l-1.21-1.34a19,19,0,0,1,5.44-9.21c3-2.95,2.75-3.78-1.46-5.35a12.67,12.67,0,0,1,1.89-1.69,23.12,23.12,0,0,1,3.42-1.59,22.41,22.41,0,0,0,11.65-9.75c.84-1.43,1.05-3.24,1.54-4.86-4.65-1.89-8.2-.24-11.73,2,0-.49-.11-.7,0-.86,2.87-7,5.68-14.1,8.68-21.08,1.13-2.63,2.51-5.12,2.19-8.11a10.3,10.3,0,0,0-8.07-9,4.44,4.44,0,0,0-3.18,1.06,7.76,7.76,0,0,0-1.85,3,233.86,233.86,0,0,0-10.5,30.59c-1.09,4.11-1.59,8.6-4.82,11.75.08,1.15.15,2.2.22,3.24l-.68-.36c-.91.67-2.36,1.19-2.59,2s.78,2,1.24,3.05ZM407,360.78c-1.18,2.66-2.46,2.8-5.43.64a33.13,33.13,0,0,1,2-4.86,36.15,36.15,0,0,1,8.27-9.22c.19.2.35.32.33.37C410.48,352.08,408.89,356.5,407,360.78Zm.38-12.68c1.67-6.86,4.67-12.65,10-17.43C417,338.3,413.52,343.79,407.36,348.1Zm6-16.39c2.37-8.78,7.24-16.4,5.76-25.53l.76,0a4.47,4.47,0,0,1,.49,1.53C419.59,315.94,421.18,324.86,413.34,331.71Zm9.79-15.37c-1.82-7.9,1-14.26,4.48-20.57.08,1.29.15,2.58.22,3.87a12.58,12.58,0,0,0,.15,2.76C429.62,308.16,424.73,311.39,423.13,316.34Zm12.88-28c-1.23-2.8.65-8,3.68-10.47C438.42,281.43,437.27,284.71,436,288.3Zm16.73-70.49c2.34,4.08,3.22,4.72,4.92,3.67s2.58-4.28,1.65-5.64c-.63-.93-1.42-1.42-2.26-.46-.09,1.11-.17,2.06-.29,3.51-1.74-2.42-1.85-4.34-.72-6.34,3.4-.75,5.68,3.37,5.38,6.25a12.22,12.22,0,0,1-1.1,4c-1.32,2.79-2.84,5.48-4.28,8.22C453.36,228.51,451.25,220.37,452.74,217.81Zm-5.66,14.55.54.14c-.52,6-1.2,11.88-4.63,17.06l-.6-.18Zm-8.34,28.42c1.92-3.62,3.86-7.24,6.06-10.69a30.38,30.38,0,0,0,4.6-20.46,37.91,37.91,0,0,1,.12-5.32l1-.05c1.1,5.23,4.78,9.66,2.57,15.9-3.27,9.26-8.58,17.08-14.65,24.54a5.19,5.19,0,0,1-.71.61l-.43-.21A28.53,28.53,0,0,1,438.74,260.78Zm6.14-1.3a1.72,1.72,0,0,1,.47-.3l.37.24c-.66,1.64-1.32,3.28-2,4.93-.49,1.29-.6,2.48,1.12,3.14l1.78-.53.35.34c-1.31,1.21-2.57,2.49-3.94,3.62a33.29,33.29,0,0,0-8.39,10.44,10.64,10.64,0,0,0-.72,8.84,7.47,7.47,0,0,1-.56,6.09,44.22,44.22,0,0,1-2.37,4.58c-.81-5.23-1.64-10.38-.23-15.62C433.42,275.52,438.81,267.32,444.88,259.48ZM356.61,448.4a36.94,36.94,0,0,1,2-12.85c4.66-12.46,9.08-25,13.56-37.53a10.64,10.64,0,0,0,.8-3.64,4.23,4.23,0,0,0-1.1-3c-3.29-2.32-5.76-2.79-8.44,1a14.73,14.73,0,0,0-1.45,2.82c-4.08,9.86-7.86,19.8-10.13,30.29a63.78,63.78,0,0,1-4.62,12.82c-2.69,5.9-6.18,11.45-8.65,17.43-2.82,6.84-5,14-7.26,21-1.34,4.1-3.06,7.89-6.32,10.84a5.42,5.42,0,0,0-1,1.25c-.82,1.39-.41,2.42,1.14,2.89.48.15,1,.22,1.48.33l.3.56a13.53,13.53,0,0,1-2.45,1.8c-5.51,2.44-10.82,5.16-13.85,10.74a37.12,37.12,0,0,0-1.94,5.26c4.81,2.1,8.38.13,12.18-2.22-.24.84-.32,1.22-.45,1.59-2.83,7.62-5.1,15.46-9,22.69a13.42,13.42,0,0,0-1.12,6.5c.15,4,2.95,6.07,6.28,7.74,2.77,1.39,4.58,1,6-1.73a23.78,23.78,0,0,0,1.12-2.76c2.34-6.25,4.68-12.51,6.78-18.15,1.22-1.06,2.49-1.65,2.71-2.51s-.64-2-1-3l-.67.08c6.76-22.21,12.54-44.72,20.69-66.55C356.17,452.45,356.57,452,356.61,448.4Zm-19.16,19.13c1.36,2.57-.3,7.52-3.49,10.54ZM322,537.75a39.13,39.13,0,0,0-3.13-3.45c-.31-.27-1.3,0-1.85.28-1.47.74-2.51,3.78-1.86,5.26.47,1.08,1.16,1.79,2.52.94,0-1.12.1-2.08.17-3.48,1.78,2.18,1.94,4.2.85,6.23A4.45,4.45,0,0,1,314,541a7.82,7.82,0,0,1-.14-6.93c1.37-3,3-6,4.47-9C321.28,527.81,323.43,535.94,322,537.75Zm5.41-14.44-.59-.09c.45-5.84.93-11.68,4.29-16.77l.59.15Zm7.05-26.65c-1.67,3.29-3.51,6.51-5.43,9.67a29.59,29.59,0,0,0-3.94,20c.25,1.86.57,3.79-.91,5.84-1.28-3.77-2.57-7.2-3.58-10.72a7,7,0,0,1,.15-3.7c2-6.62,4.56-13,8.73-18.55,2.23-3,4.43-6.05,6.65-9.08l.71.33A59.4,59.4,0,0,1,334.44,496.66Zm7.07-22.25c-2.61,7-8.87,18.38-13.33,22.39.59-1.63,1.28-3.23,1.74-4.89a3.91,3.91,0,0,0,0-2.76c-.36-.54-1.65-.45-2.76-.69,1.16-1.16,2.33-2.46,3.64-3.6A33.81,33.81,0,0,0,339,474.23a10.89,10.89,0,0,0,.48-8.86,6.92,6.92,0,0,1,.33-5.55c.78-1.65,1.48-3.35,2.22-5C343.65,461.49,343.92,467.92,341.51,474.41Zm4.41-14.21c-.14-1-.27-1.63-.32-2.31a22.24,22.24,0,0,0-.32-4.35c-1.69-5.73,2.84-9.18,4.59-14.14C351.44,444.7,349.49,454.62,345.92,460.2Zm19.81-66.36a2.29,2.29,0,0,1,3.44-1.19c1.65.8,1.48,2.05,1,3.34-2,4.95-5.61,8.56-9.4,12l-.59-.34C362,403.06,363.78,398.42,365.73,393.84Zm-.63,13.43c-.78,5.67-5.37,14-9.63,17.45C355.63,417.22,359,411.65,365.1,407.27Zm-11.74,42.05c-.2-.43-.59-.87-.55-1.28.45-5.6.85-11.2,1.52-16.77.3-2.48,2.72-5.56,5-7.1-2.07,8.4-6.84,16.05-5.23,25.08ZM393.07,245.5c.45-.08,1.15-1.69.93-2a10.52,10.52,0,0,0-2.67-1.8c.09-.24.42-1,.72-1.82,1.17-3.13.5-4-2.84-3.59-.1,0-.21-.13-.63-.42a10.13,10.13,0,0,1,1.12-2,44.6,44.6,0,0,1,3.22-3.23,22.73,22.73,0,0,0,7-13.1c.25-1.45-.28-3-.45-4.6-4.95-.23-7.66,2.72-10.34,6.1a5.82,5.82,0,0,1-.23-1.13c.25-7.79.14-15.62.88-23.37.65-6.75-2.63-12.58-9.36-13.1-3.22-.24-5.48.93-5.54,4.55-.1,7-.09,13.9-.13,20.84,0,.46.12,1-.1,1.36a2.7,2.7,0,0,0,.13,3.77c-.75,1.06-1.89,2-1.8,2.75s1.38,1.45,2.15,2.17l.59-.31c.83,22,3.06,43.92,2.57,65.9-3.36,1.18-4,1.83-3.21,3.83a41.28,41.28,0,0,1,2.9,15.09c-.1,11.78.08,23.56.11,35.34,0,1.85-.37,3.71-.24,5.54.19,2.86,1.5,4.22,3.86,4.47,3.45.36,5.05-.54,6-3.48a11.07,11.07,0,0,0,.51-2.72c.63-11,.91-21.94-.54-32.92a64.59,64.59,0,0,1,0-13.62c.67-8.31,2.05-16.57,2.48-24.88.36-7-.23-14-.34-21a25.09,25.09,0,0,1,.32-3.31C391.32,245.11,392.26,245.65,393.07,245.5Zm-15-54.12c1.68,1.17,2.83,4.11,5.52,1.87,1.06-.88,1.32-3.89.52-5.25a2,2,0,0,0-3-.95c.28,1.14.55,2.28.92,3.77-2.44-1.55-3.27-3.44-2.81-5.72,2.83-1.63,6.21,1,7.09,3.74a13.83,13.83,0,0,1,.53,4.3c-.05,1.57-.49,3.13-.67,4.7s-.23,3.13-.36,4.93C381.36,200,377.36,194,378.09,191.38Zm-.25,6.33c2.51,3.16,4.9,6,7.08,9a6.56,6.56,0,0,1,1,3.36c.38,6.9.07,13.74-1.95,20.42-1.09,3.59-2.14,7.2-3.21,10.79l-.57-.08c-.78-3.81-.08-7.58.49-11.35.27-1.76.67-3.51,1.07-5.25a29.63,29.63,0,0,0-2.92-21.31C378,201.73,377.11,200.06,377.84,197.71Zm-.1,9,.54-.06c1.66,5.92,3.18,11.85,1.63,18.08l-.54,0Q378.56,215.73,377.74,206.69Zm-.21,79.16.8-.4c.3.4.76.76.88,1.21,1.44,5.35,2.94,10.69,4.18,16.09.7,3.05-.88,5.72-2.11,8.42C380.2,302.68,382.11,293.84,377.53,285.85Zm7.14,23.69c2,7.27.89,14.08-3.23,19.34C379.85,325,382,312.35,384.67,309.54Zm-.82,34.74-2.57-.19c-2-3.28.54-13.16,4.15-17.07C386.56,331.3,385.65,342.32,383.85,344.28Zm2.43-61.21c-.49,3.44-1,6.87-1.52,10.48-3-3.41-4.56-13.55-3.25-20.85,1.7,3.48,3.2,6.53,4.68,9.6A1.54,1.54,0,0,1,386.28,283.07Zm1.33-38.72a33.53,33.53,0,0,0-4.13,12.13c-.49,3.22-.07,6.27,2.11,8.78,1.87,2.16,2.11,4.59,1.81,7.22-.16,1.42-.25,2.84-.4,4.47-6.92-9.83-7-20.36-5.08-31.08.83-4.66,2.32-9.2,3.52-13.8l.5,0c0,2,0,3.93,0,5.89,0,1.38.26,2.54,2.1,2.56l1.48-1.15.36.15C389.14,241.16,388.5,242.82,387.61,244.35Zm-.52,18.28a1.62,1.62,0,0,1-.21.51c-2-2.14-2-8.21.22-11.23C387.1,255.81,387.11,259.22,387.09,262.63Zm69.05,179.14a15.68,15.68,0,0,0,4.3-3.58,26,26,0,0,0,2.51-4.37c.65,1.82,1.21,3.36,1.57,4.35-1.83,2.76-3.59,5.06-4.92,7.6a6.72,6.72,0,0,0-.38,4.17c.44,2.05,2.48,2.59,4,1.07a10.16,10.16,0,0,0,2-3.54,48.44,48.44,0,0,0,1.29-5.16c.94,1.55,1.66,2.77,2.26,3.76a24.14,24.14,0,0,0-1.81,4.7,35.87,35.87,0,0,0-.36,7.25c.06,1.33.67,2.93,2.42,2.93s2.28-1.52,2.49-2.89a49.49,49.49,0,0,0,.37-5.72,10.91,10.91,0,0,0-.27-1.94l.65-.25c.87,1.42,1.82,2.79,2.61,4.25,1.93,3.56,4.28,6.71,8.14,8.37,1.35.58,3,.86,3.79-.49a4.68,4.68,0,0,0,.11-3.81,13.84,13.84,0,0,0-8.15-7.18,8.25,8.25,0,0,1-4.8-3.51c-2.33-3.83-4.46-7.78-6.59-11.73a7.55,7.55,0,0,1-.53-2.21l12.27-6.27c1.09,2.54,2.59,5.06,5.5,6.39a12,12,0,0,0,8.89,1,10,10,0,0,0-3.31-7.62c-2-1.71-4.55-2.86-6.87-4.27l3.82-4.46a3.2,3.2,0,0,1,.65.35c3.87,4.39,8.58,4.38,13.65,2.68,1.3-.44,1.92-1.16,1.46-2.52-1.31-3.85-6.37-7-10.25-6.39-.55.09-1.09.2-1.95.36,1.07-2.05,2-3.78,2.89-5.53,7.13.87,12.67-2,17.38-6.82a13.66,13.66,0,0,0,1.54-2.73c-5.95-2-11-1.52-15.93,1.81.86-3.83,1.65-7.35,2.44-10.89.72-.29,1.4-.54,2.06-.83a15.53,15.53,0,0,0,9.49-14.74c0-2.84-1.3-3.67-3.55-1.94-2.73,2.09-5.14,4.61-7.64,6.89,0-1.59-.61-3.81.11-5.45,2.9-6.64,2.11-13.06-2.76-18.21-2-2.17-3.81-1.79-4.93.94-3,7.31-.15,13.23,4.53,19.15v3.93c-1.15-1.36-2.06-2.58-3.11-3.67a9.2,9.2,0,0,0-7.47-3c-2.44.16-3,.93-2.63,3.29a14.08,14.08,0,0,0,5.85,9.13c2.16,1.61,4.44,3.05,6.89,4.73-.76,3.15-1.57,6.47-2.38,9.79a1.72,1.72,0,0,1-.64-1c-1.14-4.76-4.33-7.62-8.75-9.24-2.38-.88-3.56,0-3.48,2.57.1,3.57,1.13,6.75,4,9.17,2.05,1.75,4,3.63,6.16,5.61-1.2,2.23-2.42,4.52-3.83,7.15-2-5.42-5.26-8.74-10.5-9.75-2.88,4.39-.71,8.84,6.83,14.75-4.56,5.55-9.87,10-16.73,12.66-2-7.29.35-14,1.82-20.84-3.69,2.15-4.34,6.12-6,9.4a30.8,30.8,0,0,0-4.75,2.06,21.75,21.75,0,0,0-5,4.11c-.56.65-.38,2.43.1,3.37.62,1.25,2.05,1.09,3.15.38,1.38-.89,2.7-1.89,4-2.91a24,24,0,0,0,2.06-2.13c.19,2,.32,3.53.46,5.1-4.17.91-6.81,3.53-8.72,6.91a6.8,6.8,0,0,0-.72,3.6A2.15,2.15,0,0,0,456.14,441.77Zm51-67.57c.43,3.52-2.93,8.8-6.51,10A15.64,15.64,0,0,1,507.13,374.2Zm.3,25.51c-3.37,2.57-6.74,4.39-10.89,4.59C497.13,401.28,503,398.82,507.43,399.71Zm-12.28-42.82c3.38,3.17,4.6,9.53,2.11,14.11C494.6,366.41,492.5,362,495.15,356.89Zm-8.78,17.8c4.39-.16,9.09,5.24,9.13,10.29C490.86,383.11,487,378.84,486.37,374.69Zm4.38,26.83c-4.16-1.66-7.24-6.16-7.11-10.38C487.69,391.82,491.14,396.87,490.75,401.52Zm8.46,17.22a7.51,7.51,0,0,1-9.44-2.22C493.28,414.19,497.32,415.14,499.21,418.74Zm-20.66-12.21a12.55,12.55,0,0,1,6.21,8.39C480.94,413.88,478.12,410.05,478.55,406.53ZM490.13,432a8.31,8.31,0,0,1-8.36-5.94C485.24,425.68,488.73,428.11,490.13,432ZM285.28,448.93c.2,2.54.3,5.11.74,7.61a2.58,2.58,0,0,0,2,1.56c.67,0,1.6-.84,2-1.55a8.1,8.1,0,0,0,.75-3,17.17,17.17,0,0,0-2.55-10.09l2.38-4a22.91,22.91,0,0,0,.55,2.51,39,39,0,0,0,2.34,5.83,3.06,3.06,0,0,0,2.69,1,3.18,3.18,0,0,0,1.82-2.22,6.38,6.38,0,0,0-.56-3.79c-1.4-2.5-3.14-4.8-4.9-7.43l1.61-4.34a31.86,31.86,0,0,0,2.69,4.65,12.6,12.6,0,0,0,3.87,3.22c1.88.94,3.5-.16,3.51-2.28a7.32,7.32,0,0,0-.92-3.56,13.29,13.29,0,0,0-8.56-6.66c.14-1.63.28-3.11.41-4.56,2.09,1.57,4,3.11,6.05,4.53,1.06.74,2.5.93,3.15-.32a4.29,4.29,0,0,0,.16-3.4,7.53,7.53,0,0,0-2.9-2.89c-2.21-1.31-4.59-2.32-7-3.51-3.61-8.53-4-9.13-6.3-8.92,2,6.66,4.12,13.31,2.26,20.63a40.85,40.85,0,0,1-16.8-12.79c7.29-4.82,10-10.54,6.85-14.58-5.33.87-8.43,4.4-10.52,9.65l-3.75-7.15c2.24-2.05,4.19-3.93,6.25-5.69,2.66-2.28,3.65-5.28,3.86-8.62.2-3.11-1.08-4-4-2.84a14.14,14.14,0,0,0-8.91,10.15l-2.26-9.69c3.23-2.42,6.08-4.35,8.68-6.57a12.2,12.2,0,0,0,4-7.78c.29-2-.27-2.71-2.23-2.92a9.34,9.34,0,0,0-8.17,3.25c-1,1-1.83,2.19-3.08,3.7l.23-4.45c5.71-6.66,7.14-12.59,4.47-19-1.05-2.51-2.84-3-4.7-1-4.57,4.89-6.12,10.61-3.48,16.83,1.11,2.62.66,4.93.57,7-2.35-2.19-4.76-4.58-7.35-6.75a3.38,3.38,0,0,0-2.85-.6c-.55.22-.92,1.68-.87,2.56.32,6.64,2.9,11.89,9.39,14.58l2.12.87c.81,3.63,1.59,7.14,2.43,10.88a16.32,16.32,0,0,0-15.33-2c-.44,4.75,8.83,9.58,18.44,9.86.85,1.67,1.72,3.4,2.66,5.24-6.84-.63-13.17,3.74-11.83,8.16,5.6,2.32,11,2.72,15.36-2.7l4.32,5.12c-6.88,2-11.3,6.93-10.19,11.49a9,9,0,0,0,5.71.05,11.07,11.07,0,0,0,8.32-7.44L290.19,431a2.5,2.5,0,0,1-.08.86,39.63,39.63,0,0,1-9,15.29,3.38,3.38,0,0,1-1.52.83c-4.08,1.07-7,3.68-9.24,7.08-.9,1.35-1.54,3-.25,4.4s2.91,1,4.4.27c3.67-1.83,6-4.91,7.78-8.48a41.33,41.33,0,0,1,2.6-4l.49.29A6.37,6.37,0,0,0,285.28,448.93Zm-14.7-77c-.27,3.82-3.48,7.53-9.06,10.37C261.73,376.93,266.43,371.63,270.58,371.94Zm-20.84-.34a14.6,14.6,0,0,1,6.74,10.06C251.88,379.55,250.61,375.71,249.74,371.6Zm10.17-3.52c-2.56-3.32-1.66-10.69,2-14C264.61,359.25,262.37,363.63,259.91,368.08ZM249.5,396.89c4.84-.75,9.41,1.17,11.15,4.6C256.37,401.39,253,399.44,249.5,396.89Zm23.86-8.62c.33,4.07-2.5,8.33-7.12,10.56C266.15,393.79,269.16,389.4,273.36,388.27ZM257.88,416.1c1.24-3.51,5.28-4.59,9.49-2.44C264.74,416.7,261.78,417.43,257.88,416.1Zm20.69-12.44c.2,3.78-2.27,7.12-6.28,8.6A12.73,12.73,0,0,1,278.57,403.66Zm-11.51,25.58a7.94,7.94,0,0,1,8.21-5.93A8.24,8.24,0,0,1,267.06,429.24ZM415.12,76.29h-59.5v49.64h59.5Zm-4.19,45.36H359.88V80.47h51.05Zm83.86,441.09c.48,3.87,1.16,7.71,1.78,11.57.49,3,1,6.08,1.53,9.12h.37c.14-.5.31-1,.4-1.5,1-6.27,2.13-12.52,3-18.82.41-3.1,1.73-5.49,4.45-6.82a80.67,80.67,0,0,1,8.81-3.49,36.39,36.39,0,0,1,4.57-1,8.73,8.73,0,0,0-2.29-.86c-3.72-1.28-7.53-2.4-11.12-4-2.66-1.19-4.09-3.58-4.39-6.64-.28-2.89-.84-5.76-1.31-8.63q-1-5.94-2-11.88a2.71,2.71,0,0,0-.76,1.48c-1,6.27-2.1,12.53-2.94,18.82a8.8,8.8,0,0,1-4.58,7,24.9,24.9,0,0,1-4.65,2.18c-2.89.91-5.85,1.58-9.17,2.45,1,.21,1.73.37,2.42.5a31.43,31.43,0,0,1,11.72,4.13A8.47,8.47,0,0,1,494.79,562.74ZM325.5,148.56a7.84,7.84,0,0,1-3.64-5.44c-.42-2.81-.85-5.63-1.3-8.43-.68-4.29-1.39-8.57-2.09-12.85a1.48,1.48,0,0,0-.73,1c-1,6.27-2.23,12.52-3,18.82a9.52,9.52,0,0,1-5.69,8,36.86,36.86,0,0,1-5.52,2.19c-2.32.68-4.72,1.1-7.08,1.63v.33a20,20,0,0,1,2.92.5c3.44,1.12,7,2.11,10.25,3.56,3,1.33,4.65,3.81,5.05,7.28.66,5.52,1.69,11,2.59,16.47.2,1.22.49,2.42.74,3.62A147.51,147.51,0,0,0,321.52,166c.48-4.89,3.21-7.46,7.25-9.26a29.42,29.42,0,0,1,4.1-1.47c2.23-.6,4.49-1.05,6.87-1.6-.27-.24-.35-.38-.46-.41-.52-.11-1-.18-1.56-.27C333.38,152.25,329.19,151.09,325.5,148.56Zm18.69,511.13c1.8-.09,2.26-1.62,2.56-3.09.64-3.12,1.13-6.26,1.88-9.35,1.79-7.32,3.72-14.62,5.53-21.94a17.94,17.94,0,0,0,.24-3.2L351.55,621c-.37.25-.75.38-.88.63-4.42,9.09-4.81,19.31-8.21,29.32-.92-2.21-1.79-4-2.39-5.8-.73-2.2-1.1-4.52-1.89-6.69a3.71,3.71,0,0,0-2.08-2.2c-.54-.14-1.68,1-2.13,1.85a31.76,31.76,0,0,0-1.9,4.58c-.69,1.84-1.32,3.69-2,5.54l-.35-.06c-.14-.62-.28-1.23-.41-1.86-1.35-6.34-2.65-12.7-4.07-19a19.74,19.74,0,0,0-1.68-4.65,2.44,2.44,0,0,0-2-1.11,2.54,2.54,0,0,0-1.45,1.81,14.39,14.39,0,0,0,.12,4.14c.87,5.56,1.77,11.12,2.79,16.66.71,3.9,1.64,7.77,2.45,11.66.35,1.68,1,3.06,3,3.19s2.4-1.29,2.9-2.7q1.68-4.68,3.4-9.34c.19-.51.44-1,.7-1.55L340.4,657A3.82,3.82,0,0,0,344.19,659.69ZM397.72,624c-.45-.75-1.33-1.72-2-1.71a2.84,2.84,0,0,0-2,1.73,15.17,15.17,0,0,0-.5,4.32c-.07,6.22-.07,12.45-.1,18.67v1.85a3.28,3.28,0,0,1-1.06-1.52c-2.76-6.74-5.5-13.48-8.29-20.2a49.59,49.59,0,0,0-2.37-5c-.36-.65-1.21-1.63-1.63-1.54a2.74,2.74,0,0,0-1.79,1.65,23.75,23.75,0,0,0-.31,5.13c.26,9.73.58,19.45.89,29.18,0,.52-.07,1.21.22,1.54.62.73,1.52,1.84,2.19,1.77a3.71,3.71,0,0,0,2.27-1.93c.39-.73.13-1.81.13-2.73,0-5.49,0-11,0-15.81,1.76,4.44,3.74,9.55,5.83,14.62a20.65,20.65,0,0,0,2.22,4c1.17,1.67,3.05,1.47,4.71,1.21s1.84-1.71,2-3.08a18.84,18.84,0,0,0,.15-2q-.1-13.9-.26-27.81A4.92,4.92,0,0,0,397.72,624Zm9,3.7v1.52c-.14,9.06-.31,18.12-.39,27.19,0,3.69,3,5.58,6.23,3.75a39.53,39.53,0,0,0,7.13-5c8.83-8,7.84-23.65-1.14-29.7-4.94-3.34-10-3.31-15.28-1.17-.68.28-1,1.5-1.44,2.28a12.54,12.54,0,0,0,2.41,1.19A9.14,9.14,0,0,0,406.7,627.72Zm4.65-.37a26.93,26.93,0,0,1,4.2,2.1c5.88,4.34,6,13.76,3.4,18.48a19.22,19.22,0,0,1-7.6,7.4Zm-45.13-3.79c-.23-.83-1.27-1.45-1.93-2.16-.71.68-1.78,1.24-2.07,2.08-1.2,3.43-2.24,6.92-3.2,10.42s-1.8,7.17-2.66,10.63c-3.72,1.19-4.57,1.68-4.18,2.8.35,1,1.46,1.67,2.23,2.49l.57-.16c-.09.44-.16.88-.27,1.32-.43,1.73-1,3.45-1.27,5.2a2.19,2.19,0,0,0,1.71,2.74c1.41.32,2.24-.51,2.71-1.75.21-.55.33-1.14.5-1.71.6-2,1.2-4,1.83-6.09H368c1,3.11,1.74,6,2.8,8.85.26.66,1.45,1,2.21,1.45.42-.79,1.26-1.62,1.18-2.35C372.8,645.77,369.35,634.7,366.22,623.56Zm-4.74,20.61c.88-4.28,1.71-8.36,2.54-12.45l.46,0c.91,4,1.83,8,2.78,12.11Zm74.93,11.62c-2.69.41-4.25-.94-4.63-4-.26-2-1.42-3.18-3-3s-2.47,1.6-2.28,3.59c.48,5,3.88,7.93,9.17,8a9.91,9.91,0,0,0,10.11-10.19c-.12-4.78-2.26-8.37-5.82-11.47A46,46,0,0,1,434,632c-1.16-1.49-.44-3,.7-4.31a2.5,2.5,0,0,1,3.6-.23c1.39,1,2.54,2.36,3.83,3.51a25,25,0,0,0,2,1.47c.32-.84,1-1.73.9-2.51-.37-2.83-2.45-4.43-4.77-5.71-3.3-1.84-5.86-1.62-8.42.62a8.44,8.44,0,0,0-2.53,9A18.82,18.82,0,0,0,436,643a10.38,10.38,0,0,1,4.7,7.5C441,653.25,439.41,655.34,436.41,655.79ZM343.67,49.4A12.66,12.66,0,0,0,348.08,51c2.56.48,5.18.66,7.94,1-.44,1-.92,1.81-1.24,2.71-.53,1.44-1.1,3,.33,4.22s2.93.72,4.26,0c4.42-2.58,8-6.08,8-11.47,0-6-3.25-10.49-8.15-13.67-2.35-1.53-4.64,0-4.29,2.87a23,23,0,0,0,1.54,4.65c.19.52.49,1,.8,1.63a21.2,21.2,0,0,0-3.22,0,78.33,78.33,0,0,0-10,2C341.63,45.64,341.5,48.05,343.67,49.4Zm13.76,7.51-.62-.44c1-1.69,2-3.38,2.86-4.92l4.48-.92C362.35,53.63,360.39,55.83,357.43,56.91Zm.83-20.28a19.06,19.06,0,0,1,5.89,7.5l-3.75-.85L357.65,37Zm6.19,10.53a29.77,29.77,0,0,1-18.66-.22C352,45.35,358.26,45.1,364.45,47.16Zm62.73,651.13a21,21,0,0,0-5.53-1.44c-1.91-.32-3.87-.38-5.92-.56a15,15,0,0,0,1.41-3.45c.15-1.13.14-2.75-.53-3.39a3.8,3.8,0,0,0-3.4-.41,14.87,14.87,0,0,0-8.55,9.36c-1.77,5.61,2.76,12.41,6.77,15.49,1.24.94,2.66,1.71,4.19.67s1.45-2.77,1-4.31a43.36,43.36,0,0,0-1.81-4.37c4.11-.72,8.22-1.31,12.24-2.24,1-.23,2.35-1.64,2.32-2.47A4.15,4.15,0,0,0,427.18,698.29Zm-12.7-7c-.21,3.12-2.05,6.34-6.72,6.1A12.93,12.93,0,0,1,414.48,691.24Zm-1,20.34c-2.59-1.8-4.32-4.31-5.91-7.49l3.75.83c.9,2.06,1.82,4.19,2.75,6.31Zm-6.46-10.23c3.2-2.33,15.62-2.26,19.38.17A40.44,40.44,0,0,1,407.05,701.35ZM357.4,688.91a3.53,3.53,0,0,0-3.06.51,3.88,3.88,0,0,0-.64,3,17.49,17.49,0,0,0,1.38,3.64c-3.41.55-6.75,1-10,1.67-1.69.36-3.49,1.15-3.56,3.22s1.91,2.78,3.56,3.1c3.68.7,7.41,1.13,11.15,1.68-.58,1.45-1.39,3.12-1.92,4.87-.42,1.42-.42,3,1,3.94a3,3,0,0,0,4-.58,40.58,40.58,0,0,0,5.63-6.82C369.9,698.94,363.38,691.19,357.4,688.91Zm.05,22.64-.59-.39c.92-2.07,1.83-4.15,2.74-6.21l3.76-.86A18.48,18.48,0,0,1,357.45,711.55ZM345,701.24a30.26,30.26,0,0,1,18.68-.19A31.88,31.88,0,0,1,345,701.24Zm11.34-10.06c3.28,1.18,5.18,3.43,6.87,6.05C359.33,697.49,357.4,696,356.32,691.18ZM172.66,340.28a42.74,42.74,0,0,0,7,5.66c8.1,4.79,15.84-1.86,18-7.71a3.5,3.5,0,0,0-.54-3,3.9,3.9,0,0,0-3-.6,18.94,18.94,0,0,0-3.75,1.43c-.32-2.74-.53-5.37-1-8A12.42,12.42,0,0,0,188,324c-1.42-2.4-3.61-2.25-4.82.24a9.52,9.52,0,0,0-.95,2.81c-.48,3.36-.84,6.75-1.23,10.1-1.52-.61-3.17-1.43-4.91-1.95-1.49-.45-3.11-.46-4.08,1.1A3.08,3.08,0,0,0,172.66,340.28Zm22.65-3.07c-1,3.31-3.37,5.11-6.1,7C189.19,339.54,191.46,338,195.31,337.21Zm-9.68-11.78a37.82,37.82,0,0,1,.21,19.33C183.55,341.84,183.37,329,185.63,325.43Zm-10.3,12.32,6.3,2.69c.29,1.26.53,2.32.86,3.78a18.34,18.34,0,0,1-7.46-5.89ZM479.57,640.18c0-1.9-1.64-2.59-3.16-3.12a18.2,18.2,0,0,0-3.65-.9c-2.22-.3-4.45-.46-6.91-.7a17.57,17.57,0,0,0,1.41-3.55c.16-1.07.14-2.66-.5-3.22a3.81,3.81,0,0,0-3.38-.49,14.78,14.78,0,0,0-8.65,9.47c-1.8,5.74,3.18,12.82,7,15.55,1.21.87,2.58,1.51,4,.52s1.41-2.51,1-4a35,35,0,0,0-1.55-3.84l-.42-1c3.92-.6,7.76-1.09,11.57-1.82C477.89,642.85,479.6,642.18,479.57,640.18Zm-15-9.52c-.4,3.37-2.28,6.08-6.56,5.86C459.38,633.53,462.13,631.08,464.57,630.66ZM458,643.35l3.38.76,2.89,6.49C461.85,650,458.78,646.26,458,643.35Zm-.59-3.09a30.13,30.13,0,0,1,18.64.14A31.91,31.91,0,0,1,457.44,640.26Zm-275-233.78c.34,1.74.84,4,3.26,3.85,2.21-.12,2.91-2.14,3.28-4,.62-3.15,1-6.35,1.53-9.67a12.4,12.4,0,0,0,3.08,1.27,5.79,5.79,0,0,0,3.63-.46c1.31-.89.89-2.5.24-3.8a15.15,15.15,0,0,0-8.49-7.89,11.33,11.33,0,0,0-4.26-.52c-4.74.23-8.15,3.06-11.36,6.18a3.17,3.17,0,0,0-1,1.44c-.24,1.16-.76,2.74-.23,3.45a4.37,4.37,0,0,0,3.4,1.21,14.93,14.93,0,0,0,4.07-1.41,14.08,14.08,0,0,0,1.3-.65C181.37,399.22,181.74,402.88,182.42,406.48Zm13-10.93c-4.22-1-6.22-2.46-6.22-6.9A13,13,0,0,1,195.43,395.55Zm-9.9-7.37a30.29,30.29,0,0,1-.18,18.69A31.92,31.92,0,0,1,185.53,388.18ZM175.4,395l-.38-.61c1.77-2.56,4.28-4.26,7.48-5.91-.32,1.41-.54,2.44-.84,3.78Zm414.21-62.37a53.49,53.49,0,0,0-2-8.63c-.78-2.19-3-2.34-4.32-.39a12.34,12.34,0,0,0-1.7,4.37c-.5,2.62-.69,5.31-1,8.1a14.46,14.46,0,0,0-3.45-1.38c-1.12-.15-2.75-.09-3.36.6a3.78,3.78,0,0,0-.34,3.4c1.91,4.19,4.94,7.46,9.58,8.49,6.53,1.45,11.07-2.2,15.11-6.62,1.09-1.19,1.88-2.72.81-4.33s-2.89-1.44-4.49-.93-3,1.27-4.8,2A29.49,29.49,0,0,0,589.61,332.61Zm-13.83,4.08,5.26,3.08.88,4.27C578.57,342.39,576.21,339.72,575.78,336.69Zm9.65,7.8a30.43,30.43,0,0,1,.15-18.64A31.43,31.43,0,0,1,585.43,344.49Zm10.18-6.76.36.61a19.39,19.39,0,0,1-7.5,5.91c.31-1.43.54-2.48.83-3.77ZM414,59.18a3.75,3.75,0,0,0,3.4-.43c.66-.64.66-2.26.5-3.39a13.43,13.43,0,0,0-1.28-3.24c3.32-.52,6.54-.91,9.7-1.55,1.82-.37,3.86-1.09,3.91-3.33.05-2.41-2.19-2.88-3.94-3.21-3.55-.67-7.16-1-10.75-1.51.58-1.51,1.4-3.29,1.95-5.15a3.09,3.09,0,0,0-1.1-3.74,2.94,2.94,0,0,0-3.84.51,41.32,41.32,0,0,0-5.49,6.43C401.83,48.75,407.74,56.45,414,59.18Zm.32-22.51.56.31c-.93,2.13-1.86,4.25-2.75,6.3l-3.76.86C410,41,411.68,38.44,414.34,36.67Zm12.42,10.26a29.8,29.8,0,0,1-18.67.24C414.28,45,420.51,45.43,426.76,46.93ZM415.41,57.05A13.55,13.55,0,0,1,408.56,51C412.47,50.74,414.41,52.28,415.41,57.05ZM591.92,387.1c-8.16-5.14-15.82.75-18.54,7.06a3.89,3.89,0,0,0,.5,3.4c.55.64,2.15.67,3.21.5a19.06,19.06,0,0,0,3.79-1.49,18.8,18.8,0,0,0,0,3,63.54,63.54,0,0,0,1.79,8.48,3.8,3.8,0,0,0,2.86,2.12c.83,0,1.77-1.41,2.51-2.33a3.76,3.76,0,0,0,.64-1.86c.48-3.45.89-6.91,1.33-10.42,1.53.62,3.19,1.42,4.93,1.95,1.42.43,3,.43,3.95-1a3,3,0,0,0-.54-4A39.86,39.86,0,0,0,591.92,387.1ZM576,395.47c0-2.19,2.74-5.38,5.75-6.65C581.7,392.91,580.21,394.36,576,395.47Zm9.68,11.39a29.91,29.91,0,0,1-.24-18.66C587.53,394.38,587.18,400.61,585.66,406.86Zm10-11.89-6.32-2.71c-.28-1.25-.52-2.32-.86-3.79,3.16,1.6,5.68,3.31,7.47,5.93ZM299.22,652.91a3.09,3.09,0,0,0,4.17-.62,40.34,40.34,0,0,0,5.39-6.52c5-8.1-1-15.76-7.19-18.38a3.87,3.87,0,0,0-3.39.53c-.63.58-.62,2.17-.45,3.24a16.07,16.07,0,0,0,1.38,3.44c-2.8.34-5.51.5-8.14,1a13.34,13.34,0,0,0-4.67,2,2.16,2.16,0,0,0,.27,3.79,9.89,9.89,0,0,0,3.49,1.36c3.36.52,6.76.85,10.15,1.25-.61,1.46-1.42,3.05-1.94,4.73C297.84,650.23,297.72,651.85,299.22,652.91Zm2.55-2.75-.92-.54,2.64-6.24,3.34-.81.54.52Q304.57,646.63,301.77,650.16Zm5.51-14.37c-4.83,0-6.33-2.63-7-6.13C303.59,630.67,305.41,633,307.28,635.79Zm-18.36,3.83a30.31,30.31,0,0,1,18.67-.18A31.85,31.85,0,0,1,288.92,639.62Zm-102.45-588c1.76,2.13,3.63,4.17,5.48,6.27-1.61.68-3.36,1.3-5,2.15-1.41.73-2.49,1.87-2.1,3.67A3,3,0,0,0,188.18,66a42.54,42.54,0,0,0,9-1.06c8.93-2.36,9.82-12.37,7.13-18.24-1.15-2.49-3.69-2.54-5.07-.16a35.11,35.11,0,0,0-1.71,4.06c-1.36-1.17-2.64-2.39-4.06-3.44a36.5,36.5,0,0,0-4.49-2.89c-1.42-.75-3.08-1.32-4.46-.07s-.59,3,.12,4.37A15.45,15.45,0,0,0,186.47,51.62ZM188.35,63c-.07-.21-.13-.41-.2-.61l6.49-2.67,3.3,2.08C194.6,62.91,191.55,63.6,188.35,63ZM202,47.69c1.48,3,1.29,6,.62,9.32C198.87,53.5,200,50.16,202,47.69Zm-1.67,12.13c-6-2.78-10.22-7.43-13.63-13A29.81,29.81,0,0,1,200.28,59.82ZM585.85,697.46c-1.93-2.49-4-4.85-6-7.21,1.31-.51,2.83-1,4.23-1.66,1.65-.79,3.27-1.84,2.82-4s-2.33-2.54-4-2.46a40.08,40.08,0,0,0-8.19,1.12c-8.93,2.42-9.85,12.3-7.15,18.22a3.46,3.46,0,0,0,2.53,1.77,3.8,3.8,0,0,0,2.57-1.71,19.4,19.4,0,0,0,1.61-3.83c2.07,1.65,3.94,3.35,6,4.72a14.06,14.06,0,0,0,4.82,2.13c2.3.49,3.52-1.14,2.71-3.39A13.78,13.78,0,0,0,585.85,697.46Zm-2.48-12.25.21.61-6.47,2.7-3.28-2.11C577.18,685.3,580.2,684.64,583.37,685.21Zm-13.46,15.16c-1.37-2.1-1.57-4.45-.74-8.94C572.31,693.94,572.46,696.87,569.91,700.37Zm1.38-12.43a36.5,36.5,0,0,1,13.91,13.3C581.07,700.44,572.67,692.4,571.29,687.94ZM570.2,62c4.07,3.6,9,4.52,14.2,4.06,1.47-.13,2.92-.66,3.28-2.38S587,60.75,585.56,60c-1.63-.85-3.37-1.46-5.22-2.24.51-.45.91-.78,1.3-1.14,2.81-2.65,5.35-5.54,6.75-9.19a3.65,3.65,0,0,0-.27-3.06,3.25,3.25,0,0,0-2.84-.62,15.66,15.66,0,0,0-4.41,2.14c-2,1.41-3.91,3.07-5.86,4.63a19.22,19.22,0,0,0-1.61-3.82c-.56-.82-1.73-1.79-2.55-1.72a3.74,3.74,0,0,0-2.63,1.93,14.62,14.62,0,0,0,.38,12.82A7.5,7.5,0,0,0,570.2,62Zm14.16.33c-.06.21-.12.42-.17.63-3.18.72-6.21-.15-9.71-1.1l3.39-2.12Zm2-15.64a39.75,39.75,0,0,1-14.07,13.55C572.85,56.42,581.83,47.69,586.38,46.69Zm-15.74,1.19c2.33,2.75,2.74,6.13-.59,8.93C569.1,53,569.28,50.22,570.64,47.88ZM201.49,686.17c-3.94-3.5-8.72-4.42-13.81-4-1.62.12-3.24.56-3.62,2.49s.91,3,2.36,3.72,3.24,1.36,5,2.07c-.47.43-.9.82-1.32,1.22a26.07,26.07,0,0,0-6.77,9.18c-1.05,2.64.27,4.22,3.06,3.7a7.39,7.39,0,0,0,2.73-1.09c2.6-1.79,5.12-3.7,7.73-5.62a14.2,14.2,0,0,0,1.36,3.42c.67.91,1.87,2,2.8,2a3.87,3.87,0,0,0,2.65-2.15,14.57,14.57,0,0,0-.24-12.1A8.2,8.2,0,0,0,201.49,686.17Zm-14.06-.26c0-.23.1-.46.16-.69,3.15-.62,6.19.13,9.6,1.17l-3.33,2.1Zm-1.55,15.49a31.91,31.91,0,0,1,13.58-13A30,30,0,0,1,185.88,701.4Zm15.3-.74c-2.66-3.34-2.4-6.37.59-9.32A14.3,14.3,0,0,1,201.18,700.66ZM378.29,57.28a3.16,3.16,0,0,0,2.46.57c.39-.1.74-1.41.67-2.13-.34-3.2,1.19-5.75,4.55-7.14,3.84,1,5.45,3.49,5.07,7.41-.06.61.24,1.63.67,1.83a2.37,2.37,0,0,0,2.13-.21,12.44,12.44,0,0,0,2.72-3.34,11.46,11.46,0,0,0-5.69-15.67,11.68,11.68,0,0,0-15.23,6.14C373.81,49.07,374.9,54.51,378.29,57.28ZM382,42.69c3-2,6.2-1.78,9.32.71a6.49,6.49,0,0,1,2.18,7.54c-4.23-8.31-11.35-6.52-14.5.16A7.11,7.11,0,0,1,382,42.69ZM576.56,371.11a2.24,2.24,0,0,0-1.82.73c-.29.48,0,1.35.14,2,.12.4.56.72.89,1a11.29,11.29,0,0,0,13.08,1.63,11.43,11.43,0,0,0,5.86-12.18,11.57,11.57,0,0,0-10-9.42,10.54,10.54,0,0,0-9.59,3.66,2.68,2.68,0,0,0-.4,2.29c.16.43,1.31.76,2,.69,3.43-.36,5.9,1.1,7.28,4.54C582.92,369.94,580.54,371.46,576.56,371.11Zm5.12-11.94c2.3-1.12,5.31-.36,7.39,1.87a7.27,7.27,0,0,1,1,9.12c-2,3.27-4.8,4.5-8.6,3.51C589.62,369.57,588.55,362.56,581.68,359.17ZM393.4,690.88a3.09,3.09,0,0,0-2.46-.48c-.39.12-.67,1.44-.59,2.17.37,3.36-1.47,6-5.14,7.07-3.52-1.41-4.81-3.65-4.47-7.48a2.15,2.15,0,0,0-.6-1.7,2.58,2.58,0,0,0-2,0,4.43,4.43,0,0,0-1.48,1.27,11.3,11.3,0,0,0-1.51,12.44c2,3.93,6.74,6.77,10.85,6.48a12,12,0,0,0,10.48-8.16C397.79,698.35,396.52,693.32,393.4,690.88Zm-2.5,13.67c-3,2.63-6.43,3-9.47,1.11a7.23,7.23,0,0,1-3.24-8.54c3.59,7.18,10.59,8,14.5.18A6.43,6.43,0,0,1,390.9,704.55ZM194.47,361.62a2,2,0,0,0,1.68-.63,2.66,2.66,0,0,0,0-2,4.47,4.47,0,0,0-1.29-1.47A11.48,11.48,0,1,0,181,375.79c4.63,3.28,11.47,2.61,14.76-1.54a2.76,2.76,0,0,0,.53-2.28c-.21-.48-1.39-.85-2.09-.77-3.58.38-6.21-1.39-7.22-5.14C188.41,362.52,190.54,361.32,194.47,361.62Zm-5.19,12a6.66,6.66,0,0,1-7.91-2.74c-2.2-3.09-2.22-6.26-.05-9.18a6.89,6.89,0,0,1,8-2.65C182.28,362.75,181.44,369.51,189.28,373.65Zm69.87-163.14c.35,3.75,1.18,7.46,1.81,11.19h.5c.58-3.56,1.42-7.11,1.67-10.69.26-3.81,2.37-5.71,5.62-6.82,1.6-.54,3.25-.92,5-1.41-2.45-.89-4.75-1.61-7-2.55a5.65,5.65,0,0,1-3.53-5.09c-.24-2.69-.8-5.36-1.23-8-.18-1.14-.38-2.27-.58-3.4l-.51,0c-.64,3.81-1.45,7.6-1.86,11.44a6,6,0,0,1-4.07,5.35c-2.06.84-4.2,1.44-6.49,2.2,1.95.57,3.79,1,5.56,1.66C256.94,205.41,258.84,207.14,259.15,210.51ZM518.23,474.72A6,6,0,0,1,514,469.3c-.18-2.3-.7-4.57-1.08-6.85-.26-1.49-.54-3-.81-4.46l-.49,0c-.6,3.56-1.43,7.11-1.73,10.7-.32,3.83-2.64,5.55-5.85,6.61-1.53.51-3.11.86-5,1.37,2.18.67,4,1.15,5.77,1.79,2.86,1,4.94,2.74,5,6.14a32.38,32.38,0,0,0,.66,4.1l1.17,6.95a61.53,61.53,0,0,0,2.26-11.11,6.61,6.61,0,0,1,4.76-5.94c1.87-.7,3.82-1.23,5.93-1.89C522.31,476,520.22,475.49,518.23,474.72ZM258.94,519.05c-.4-2.28-.78-4.57-1.16-6.85a41.25,41.25,0,0,0-1.88,8.58,4.59,4.59,0,0,1-3.1,4c-1.47.62-3,1-4.57,1.55.11.13.17.29.26.32.57.17,1.15.33,1.73.46,4.1.95,5.2,2.12,5.9,6.27.4,2.4.79,4.79,1.18,7.19l.52-.09c.43-2.58,1-5.16,1.24-7.77.23-2.8,1.76-4.28,4.24-5.09,1.19-.39,2.39-.76,4.14-1.31-.87-.22-1.11-.31-1.35-.35C261.16,525.15,259.77,523.82,258.94,519.05ZM499.22,228.71a11.92,11.92,0,0,0,.17,1.58c.33,2,.69,3.94,1,5.92l.47-.06c.44-2.6,1.07-5.18,1.25-7.79a5.2,5.2,0,0,1,3.66-4.89c1.35-.52,2.75-.91,4.54-1.5-1.54-.41-2.64-.64-3.69-1-2.62-.9-4.42-2.33-4.54-5.5a57,57,0,0,0-1.23-7.49l-.49,0c-.35,2.12-.83,4.23-1,6.36-.28,3.22-1.33,5.77-4.77,6.68-1.07.28-2.13.58-3.69,1,1.14.36,1.79.6,2.47.76C496.57,223.53,499.05,225,499.22,228.71Zm-78.48,361.7a5.13,5.13,0,0,0,4.85-5.25,4.5,4.5,0,0,0-4.86-4.83,5,5,0,0,0-4.81,4.65C415.9,587.64,418.32,590.37,420.74,590.41Zm-26.89-42a3.46,3.46,0,0,0-3.58-3.83,4.23,4.23,0,0,0-4.15,4.18,4,4,0,0,0,4,3.89C392.22,552.63,393.8,550.85,393.85,548.37Zm-48.44,20.1a3.84,3.84,0,0,0,3.88-3.49,3.77,3.77,0,0,0-3.39-4c-1.8-.17-3.13,1.18-3.33,3.39S343.52,568.3,345.41,568.47ZM374,483.17a3.34,3.34,0,0,0-3.24-3.52,3.5,3.5,0,0,0-3.33,3.51,3.43,3.43,0,0,0,3.29,3.51A3.37,3.37,0,0,0,374,483.17Zm-8.8-5.24a3.21,3.21,0,0,0,3.14-3.37,3.4,3.4,0,0,0-3.26-3.53c-1.67,0-3,1.54-3,3.53A3.09,3.09,0,0,0,365.2,477.93Zm31.28,59.89c0-2.26-1-3.42-2.93-3.44a3.14,3.14,0,0,0-3.11,3.2,3.39,3.39,0,0,0,3.22,3.39C395.32,541,396.47,539.72,396.48,537.82Zm-7.14,20a3.09,3.09,0,0,0-3-3.27,3.37,3.37,0,0,0-3.16,3.59,2.91,2.91,0,0,0,3,3A3.24,3.24,0,0,0,389.34,557.81Zm19.21-287.07c0,2,1.12,3.19,2.79,3.15a3.58,3.58,0,0,0,3.18-3.68,2.91,2.91,0,0,0-3-3A3.26,3.26,0,0,0,408.55,270.74Zm-46-34.22a3.27,3.27,0,0,0-3.29,3.25,2.71,2.71,0,0,0,2.82,2.9,3.24,3.24,0,0,0,3.24-3.1A3,3,0,0,0,362.55,236.52ZM341.91,559.28a3.06,3.06,0,0,0,2.87-3.18,2.75,2.75,0,0,0-2.9-2.83,3,3,0,0,0-3.14,3.08A3.17,3.17,0,0,0,341.91,559.28ZM353,244.79a2.43,2.43,0,0,0,2.32,2.83,3.45,3.45,0,0,0,3.29-3.08,2.58,2.58,0,0,0-2.42-2.81A3.08,3.08,0,0,0,353,244.79Zm107.86,54a2.83,2.83,0,0,0-2.69-3.06,2.63,2.63,0,0,0-2.95,2.5,2.93,2.93,0,0,0,2.56,3.19A2.76,2.76,0,0,0,460.83,298.82Zm-58.5-32a2.71,2.71,0,0,0,2.58,2.75,3.2,3.2,0,0,0,3.06-3.06,2.53,2.53,0,0,0-2.58-2.66A3,3,0,0,0,402.33,266.83Zm18.23,310.88a3,3,0,0,0,2.85-3,2.82,2.82,0,0,0-2.75-2.82,2.75,2.75,0,0,0-2.81,2.93A2.82,2.82,0,0,0,420.56,577.71ZM379.36,490a2.88,2.88,0,0,0-2.83-2.72,2.42,2.42,0,0,0-2.47,2.69,2.82,2.82,0,0,0,2.76,3A2.74,2.74,0,0,0,379.36,490Zm-9.54-256.89a2.54,2.54,0,0,0-2.59-2.65,2.76,2.76,0,0,0-2.63,2.9,2.21,2.21,0,0,0,2.21,2.51A2.9,2.9,0,0,0,369.82,233.15Zm33.52,245c-.07,1.74.82,2.87,2.25,2.94s2.56-1.12,2.58-2.88a2.49,2.49,0,0,0-2.49-2.74C404.08,475.63,403.4,476.68,403.34,478.19ZM351,574.52a2.9,2.9,0,0,0,2.8-2.77,2.35,2.35,0,0,0-2.66-2.28,2.47,2.47,0,0,0-2.52,2.68A2.29,2.29,0,0,0,351,574.52Zm68.07-300.7a2.74,2.74,0,0,0,2.69-2.79,2.29,2.29,0,0,0-2.26-2.36,2.66,2.66,0,0,0-2.76,2.74A2.23,2.23,0,0,0,419.07,273.82Zm-22.8,251.63a2.71,2.71,0,0,0-2.44,3c0,1.55.78,2.6,2.37,2.56a2.26,2.26,0,0,0,2.34-2.4C398.56,526.79,397.52,525.44,396.27,525.45Zm-57.42,25.21a2.47,2.47,0,0,0,2.6-2.62,2.4,2.4,0,0,0-2.63-2.37,2.53,2.53,0,0,0-2.47,2.77A2.2,2.2,0,0,0,338.85,550.66Zm68.23-63a2.33,2.33,0,0,0-2.33-2.65c-1.6-.07-2.39,1-2.47,2.49a2.37,2.37,0,0,0,2.28,2.7A2.51,2.51,0,0,0,407.08,487.7Zm13,53.76a2.64,2.64,0,0,0,2.56-2.72,2.5,2.5,0,0,0-2.55-2.48,2.39,2.39,0,0,0-2.27,2.72A2.23,2.23,0,0,0,420.11,541.46Zm-15.83-71.37a2.18,2.18,0,0,0,2.3,2.22,2.71,2.71,0,0,0,2.54-2.95,2.26,2.26,0,0,0-2.39-2.33A2.84,2.84,0,0,0,404.28,470.09Zm-23.92,25.43a2.4,2.4,0,0,0,2.42,2.77,2.93,2.93,0,0,0,2.8-2.57c-.06-1.59-1.19-2.07-2.46-2.25C381.49,493.44,380.42,494.26,380.36,495.52ZM360.78,468.6c1.51-.08,2.21-1,2.28-2.52-.15-1.37-.53-2.65-2.25-2.68s-2.32,1.08-2.4,2.57A2.4,2.4,0,0,0,360.78,468.6ZM399,516.25a2.66,2.66,0,0,0-2.74,2.71,2.14,2.14,0,0,0,2.13,2.55,2.61,2.61,0,0,0,2.59-2.69C401,517.41,400.43,516.38,399,516.25Zm-62.21-271a2.51,2.51,0,0,0,2.61,2.43,2.29,2.29,0,0,0,2.4-2.38,2.23,2.23,0,0,0-2.08-2.44A2.78,2.78,0,0,0,336.8,245.25ZM408.59,503c1.37.05,2.45-1.23,2.42-3.57a6.39,6.39,0,0,0-2.18-1.57c-1.3-.34-2.49,1.18-2.37,2.75C406.55,501.91,407.08,502.94,408.59,503Zm57.49-202.55a2.57,2.57,0,0,0,2.45-2.83,2.12,2.12,0,0,0-2.2-2.28,2.63,2.63,0,0,0-2.52,2.93A2.16,2.16,0,0,0,466.08,300.45Zm-15.45-2.62a2.63,2.63,0,0,0,2.55-2.93c-.06-1.34-.65-2.3-2.15-2.32a2.72,2.72,0,0,0-2.47,3C448.66,296.73,449.13,297.75,450.63,297.83ZM347.32,249a2.41,2.41,0,0,0,2.59-2.36,2.46,2.46,0,0,0-2.51-2.48,2.37,2.37,0,0,0-2.33,2.63C345.06,248.25,346,248.94,347.32,249Zm52,14.34a2.4,2.4,0,0,0,2.51-2.48,2.06,2.06,0,0,0-2.14-2.32,2.54,2.54,0,0,0-2.64,2.59A2.07,2.07,0,0,0,399.32,263.37ZM418.39,567c.43.32,1.12,1.18,1.92,1.3,1.38.22,2.82-1.38,2.75-2.76a2,2,0,0,0-2.34-2.07C419,563.59,418.48,564.84,418.39,567Zm-111-267.27a2,2,0,0,0,2.08,2.33c1.55,0,2.34-1,2.54-2.54-.13-1.26-.68-2.21-2.14-2.26C308.23,297.24,307.53,298.32,307.42,299.76ZM422.68,547.68c0-1.43-.72-2.45-2.22-2.49s-2,1.21-2.11,2.58c0,1.32.57,2.35,2.06,2.32A2.14,2.14,0,0,0,422.68,547.68Zm-4.44,10.14a1.88,1.88,0,0,0,2.11,2c1.57-.07,2.29-1.06,2.5-3.23a7.5,7.5,0,0,0-2.22-1.62C419.51,554.7,418.19,556.39,418.24,557.82ZM313.77,294.62c.11,1.28.8,2.16,2.18,2s2.29-1.15,2.38-3.35a6.53,6.53,0,0,0-2.15-1.41C314.86,291.59,313.63,293.13,313.77,294.62Zm91.34,200.47c-.42-.29-1.11-1.13-1.93-1.28-1.37-.25-2.52,1.18-2.46,2.7a1.89,1.89,0,0,0,1.93,2.06C404,498.64,405.14,497.32,405.11,495.09ZM300,302.55c0,1.4.89,2.14,2.53,2.16a2.22,2.22,0,0,0,2.08-2.43c-.07-1.52-1.17-2.17-2.57-2.13A2,2,0,0,0,300,302.55ZM482.14,291.2c-.46-.33-1.21-1.31-2-1.39-1.63-.16-2.21,1.19-2.32,2.6a1.75,1.75,0,0,0,1.89,2C481,294.51,482.13,293.32,482.14,291.2ZM322,287.77a1.84,1.84,0,0,0-2.13-2c-1.52.11-2.11,1.16-2.34,3.19.61.38,1.4,1.26,2.27,1.33C321.35,290.38,322,289.14,322,287.77ZM182.92,439.19c1.24,0,2.13-.6,2.09-2.5a2.09,2.09,0,0,0-2.1-2.12c-1.46-.06-2.07.91-2.09,2.29A2,2,0,0,0,182.92,439.19Zm405.18-4.62c-1.52,0-2.1,1.12-2.16,2.53s.84,2.25,2,2c.92-.16,1.69-1.13,2.52-1.74C590.13,435.54,589.57,434.54,588.1,434.57Zm-169.7,87c0,1.23.59,2.4,1.89,2.22.91-.13,1.69-1.12,2.54-1.73v-.94c-.83-.62-1.6-1.63-2.51-1.76C419,519.18,418.41,520.35,418.4,521.58Zm-17.48-13.21a2,2,0,0,0-2.25,2.37c.09.87,1,1.65,1.5,2.46l1,0a9.05,9.05,0,0,0,1.63-2.61A1.78,1.78,0,0,0,400.92,508.37ZM297.68,302.66c-.06-.86-.91-1.66-1.41-2.49l-1,0c-.61.84-1.55,1.61-1.76,2.54a1.78,1.78,0,0,0,1.9,2.19A2,2,0,0,0,297.68,302.66ZM425.88,271c.93-.22,1.69-1.21,2.53-1.86,0-.31,0-.63-.05-.94-.83-.51-1.62-1.37-2.49-1.47-1.42-.16-2.1.95-2.12,2.3S424.65,271.31,425.88,271ZM386.35,500.51c.56.48,1.23,1.47,2.08,1.67,1.39.33,2.18-.73,2.3-2.05a2.09,2.09,0,0,0-2-2.43C387.15,497.54,386.79,498.75,386.35,500.51Zm59.92-211.88c-1.38-.18-2.14.9-2.17,2.23s.86,2.26,2.09,2c.94-.19,1.72-1.16,2.57-1.78l0-.91C447.92,289.64,447.14,288.75,446.27,288.63ZM184.15,425.22c-.51-.44-2.07-.54-2.39-.15a3.54,3.54,0,0,0-.62,2.76c.43,1.56,1.82,1.4,3.27,1A2.54,2.54,0,0,0,184.15,425.22ZM420.94,526.77a2.51,2.51,0,0,0-2.2,3c.06.62,1,1.68,1.47,1.62a3.17,3.17,0,0,0,2.25-1.4C423.16,528.64,422.3,527.57,420.94,526.77ZM185,313.05a2.48,2.48,0,0,0,.18-3.63c-1.41-.37-2.79-.51-3.22,1.05a3.56,3.56,0,0,0,.65,2.76A2.49,2.49,0,0,0,185,313.05Zm402.75.09c.65.48,1.89.16,2.89.21.49-3.73-.39-4.57-3.28-3.82A2.41,2.41,0,0,0,587.71,313.14Zm2,111.8c-.88,0-2.13-.28-2.78.2-1.22.9-1.34,2.32-.3,3.71C589.63,429.35,590.45,428.44,589.69,424.94ZM473.81,297.69c.88-.19,1.59-1.16,2.38-1.79l0-.86c-.83-.54-1.62-1.42-2.5-1.52-1.27-.13-2,.91-2,2.19S472.55,298,473.81,297.69ZM184.9,446.57a2,2,0,0,0-4,0c-.48,1.45.48,2.3,2,2.66C184.42,448.87,185.38,448,184.9,446.57ZM588.18,445a2.7,2.7,0,0,0-2.1,1.49c-.51,1.49.38,2.46,2,2.79,1.36-.28,2.4-1.05,2-2.53A2.74,2.74,0,0,0,588.18,445ZM384.75,564.77c0-1.23-.77-2.17-2-1.89-.87.2-1.58,1.09-2.37,1.67v.9c.77.61,1.5,1.63,2.33,1.72C384.12,567.31,384.75,566.07,384.75,564.77Zm-52.7,137.88a1.9,1.9,0,0,0-1.95,2.24c.06,1.26.76,2.25,2.15,2a7,7,0,0,0,2.11-1.28C334.06,703.64,333.55,702.6,332.05,702.65Zm106.64,0a2,2,0,0,0-1.89,2.49c.15.79,1.11,1.42,1.45,1.82,2.09-.13,2.66-1.05,2.61-2.29A1.89,1.89,0,0,0,438.69,702.65ZM332.81,45.57c1.5.06,2-1,2.55-2.75a8.19,8.19,0,0,0-2.29-1.44c-1.37-.31-2.1.65-2.17,1.92A1.91,1.91,0,0,0,332.81,45.57Zm106.77-.06a1.66,1.66,0,0,0,2-2,3.12,3.12,0,0,0-1.78-2.08c-1.16-.36-2.17.3-2.39,2.42C437.94,44.26,438.66,45.28,439.58,45.51Zm-44,211.8,1,0c.61-.86,1.53-1.65,1.74-2.59.24-1.15-.58-2-1.89-2s-2.36.87-2.24,2.21C394.2,255.79,395.05,256.54,395.55,257.31ZM328.46,240.1c.86-.12,1.61-1,2.41-1.58l0-.92c-.77-.58-1.48-1.54-2.33-1.68-1.24-.2-2.07.77-2.1,2.05S327.18,240.28,328.46,240.1Zm115.08,43.22c-.51-.19-1.49.91-2.87,1.84,1.33,1.11,2,2.07,2.89,2.29a1.53,1.53,0,0,0,1.91-1.86A3.59,3.59,0,0,0,443.54,283.32ZM379.22,573.75a1.82,1.82,0,0,0,1.95-2.17c-.12-.81-1-1.52-1.89-2.85-1,1.29-2,1.95-2.13,2.73A1.92,1.92,0,0,0,379.22,573.75Zm28.52-109.51c.82-.09,1.55-1,2.92-2-1.31-1-2-1.86-2.81-2-1.18-.24-2,.59-2.06,1.86S406.46,464.39,407.74,464.24ZM509,45.8l.94,0c.56-.8,1.58-1.63,1.55-2.41a2.92,2.92,0,0,0-1.9-2,1.69,1.69,0,0,0-2.08,2C507.65,44.27,508.52,45,509,45.8Zm77.81,255.37a1.69,1.69,0,0,0,1.95,2.08c.86-.11,1.62-1,2.42-1.58v-1c-.81-.52-1.66-1.5-2.44-1.45A2.91,2.91,0,0,0,586.85,301.17Zm-403.17,2.07a1.69,1.69,0,0,0,2-2c-.16-.87-1-1.62-1.6-2.42l-.93,0c-.5.84-1.45,1.7-1.39,2.49A2.84,2.84,0,0,0,183.68,303.24ZM183,643.71c-.86.1-1.63,1-2.45,1.52v1c.81.55,1.63,1.54,2.41,1.51a2.94,2.94,0,0,0,2-1.87A1.69,1.69,0,0,0,183,643.71Zm0,9.94c-.86.11-1.62,1-2.43,1.57v1c.81.53,1.66,1.51,2.44,1.46a2.9,2.9,0,0,0,1.92-1.91A1.68,1.68,0,0,0,183,653.65ZM591.21,290.74c-.83-.52-1.69-1.48-2.47-1.42a2.91,2.91,0,0,0-1.89,1.94,1.69,1.69,0,0,0,2,2.05c.86-.12,1.6-1,2.4-1.61Zm-5.15,375a2.89,2.89,0,0,0,1.94,1.88c.77,0,1.61-.94,2.42-1.47v-1c-.8-.54-1.57-1.44-2.43-1.54A1.68,1.68,0,0,0,586.06,665.69Zm-86-619.87c.56-.79,1.46-1.53,1.6-2.39a1.67,1.67,0,0,0-2-2,2.87,2.87,0,0,0-1.93,1.87c-.06.78.9,1.64,1.42,2.47Zm-9.89,0c.54-.81,1.43-1.56,1.55-2.43a1.67,1.67,0,0,0-2.07-1.93c-.79.19-1.87,1.21-1.91,1.91s.94,1.62,1.48,2.44Zm-10.92,0,.9,0c.57-.74,1.47-1.42,1.63-2.24.26-1.26-.59-2.14-1.94-2.21a1.81,1.81,0,0,0-2.09,2.07C477.84,44.28,478.72,45,479.24,45.8Zm-19.83,0,.9,0c.56-.76,1.44-1.45,1.59-2.28.23-1.26-.63-2.12-2-2.17a1.81,1.81,0,0,0-2.05,2.11C458,44.32,458.87,45,459.41,45.81Zm-9,0c.54-.76,1.41-1.47,1.54-2.3a1.68,1.68,0,0,0-2-2c-.79.16-1.91,1.19-1.95,1.89s.94,1.64,1.48,2.46ZM588.71,269.45a2.92,2.92,0,0,0-1.86,2,1.69,1.69,0,0,0,2,2c.85-.14,1.58-1.08,2.36-1.66l0-1C590.36,270.32,589.48,269.37,588.71,269.45Zm-404.88,4a1.69,1.69,0,0,0,1.86-2.17,2.87,2.87,0,0,0-2-1.82c-.78,0-1.58,1-2.37,1.56l0,1C182.17,272.49,183,273.37,183.83,273.44ZM302.26,45.82h.9c.56-.76,1.46-1.47,1.58-2.29a1.8,1.8,0,0,0-2-2.14c-1.36,0-2.23.87-2,2.14C300.85,44.35,301.72,45.06,302.26,45.82Zm-19.9,0h.94c.55-.82,1.55-1.67,1.51-2.46s-1.16-1.73-1.95-1.9a1.68,1.68,0,0,0-2,2C281,44.33,281.82,45,282.36,45.81Zm-9.92,0h.95c.54-.81,1.53-1.65,1.49-2.43a2.89,2.89,0,0,0-1.9-1.92,1.67,1.67,0,0,0-2.08,1.92C271,44.25,271.9,45,272.44,45.82ZM183.71,263.5a1.68,1.68,0,0,0,2-2,2.87,2.87,0,0,0-1.88-1.95c-.78-.07-1.64.9-2.47,1.42l0,1C182.11,262.45,182.85,263.37,183.71,263.5ZM262.49,45.81h.95c.54-.81,1.53-1.64,1.5-2.42a2.87,2.87,0,0,0-1.88-1.93A1.67,1.67,0,0,0,261,43.37C261.08,44.24,262,45,262.49,45.81Zm323.57,411.1a2.88,2.88,0,0,0,1.85,2c.77.09,1.65-.86,2.49-1.36,0-.32,0-.64,0-1-.79-.58-1.51-1.52-2.37-1.66A1.68,1.68,0,0,0,586.06,456.91ZM252.62,45.83l.9,0c.54-.77,1.43-1.5,1.54-2.33a1.81,1.81,0,0,0-2.05-2.1c-1.36,0-2.22.91-2,2.18C251.18,44.38,252.06,45.07,252.62,45.83ZM588.77,249.57a2.92,2.92,0,0,0-1.92,1.92,1.69,1.69,0,0,0,1.95,2.08c.87-.12,1.62-1,2.42-1.58v-1C590.4,250.5,589.55,249.52,588.77,249.57ZM183.06,464.84c-.87.06-1.67.93-2.5,1.44l0,1c.79.57,1.58,1.6,2.36,1.58a2.9,2.9,0,0,0,2-1.8A1.69,1.69,0,0,0,183.06,464.84Zm407.34,1.44c-.83-.51-1.64-1.37-2.5-1.44a1.7,1.7,0,0,0-1.84,2.19,2.89,2.89,0,0,0,2,1.8c.78,0,1.57-1,2.36-1.58C590.43,466.93,590.41,466.6,590.4,466.28ZM181.33,252.05c.82.53,1.6,1.42,2.46,1.51a1.68,1.68,0,0,0,1.9-2.12,2.9,2.9,0,0,0-2-1.87c-.77,0-1.6,1-2.4,1.51Zm39.11,452.67a2.85,2.85,0,0,0,1.86,2c.79.08,1.68-.89,2.52-1.4l0-.9c-.76-.56-1.45-1.42-2.29-1.61A1.66,1.66,0,0,0,220.44,704.72ZM182.93,474.78c-.86.12-1.6,1-2.4,1.59l0,1c.82.52,1.67,1.49,2.45,1.43a2.91,2.91,0,0,0,1.9-1.93A1.68,1.68,0,0,0,182.93,474.78Zm405.07,4c.78,0,1.61-.95,2.42-1.49v-1c-.81-.55-1.58-1.44-2.44-1.54a1.68,1.68,0,0,0-1.92,2.11A2.93,2.93,0,0,0,588,478.77ZM231.85,702.41c-.53.77-1.38,1.5-1.5,2.33a1.7,1.7,0,0,0,2.05,2c.79-.18,1.9-1.23,1.93-1.93s-1-1.62-1.53-2.44ZM588.74,243.63c.86-.09,1.65-1,2.47-1.5v-1c-.8-.56-1.61-1.56-2.39-1.53a2.88,2.88,0,0,0-2,1.85A1.69,1.69,0,0,0,588.74,243.63ZM182.5,484.31c-.54.81-1.53,1.63-1.51,2.43a2.84,2.84,0,0,0,1.8,2,1.67,1.67,0,0,0,2.12-1.89c-.12-.89-1-1.68-1.48-2.51ZM261.71,702.4c-.54.81-1.43,1.57-1.54,2.43a1.68,1.68,0,0,0,2.08,1.93c.78-.19,1.86-1.22,1.89-1.92s-.94-1.62-1.47-2.43Zm-76-460.71c-.11-.88-1-1.66-1.5-2.48l-.92,0c-.54.81-1.52,1.64-1.49,2.43a2.85,2.85,0,0,0,1.82,2A1.69,1.69,0,0,0,185.7,241.69ZM586.79,82.42a1.83,1.83,0,0,0,1.91,2.22c.83,0,1.63-.82,2.44-1.27,0-.3.08-.6.11-.89-.72-.65-1.36-1.64-2.2-1.87A1.77,1.77,0,0,0,586.79,82.42Zm-315.1,620c-.56.8-1.45,1.55-1.58,2.41a1.67,1.67,0,0,0,2.05,2c.78-.18,1.88-1.19,1.92-1.89s-.92-1.63-1.44-2.46Zm20.21.47a2.86,2.86,0,0,0-1.91,1.89,1.67,1.67,0,0,0,2,2c.87-.15,1.62-1,2.42-1.58l0-.91C293.55,703.76,292.69,702.81,291.9,702.86Zm9.52-.45c-.53.77-1.38,1.49-1.51,2.32a1.7,1.7,0,0,0,2,2,2.91,2.91,0,0,0,1.94-1.92c0-.79-1-1.63-1.52-2.44Zm11,0-.9,0c-.57.74-1.47,1.41-1.64,2.24-.27,1.26.59,2.13,1.93,2.21a1.8,1.8,0,0,0,2.1-2.05C313.79,704,312.92,703.2,312.4,702.42ZM588.8,223.75c.86-.11,1.62-1,2.42-1.58v-1c-.82-.53-1.66-1.5-2.44-1.44a2.91,2.91,0,0,0-1.92,1.91A1.68,1.68,0,0,0,588.8,223.75Zm-141.65,481a2.84,2.84,0,0,0,1.89,2c.8.07,1.67-.91,2.51-1.43v-.92c-.76-.54-1.46-1.39-2.3-1.56A1.69,1.69,0,0,0,447.15,704.75Zm12.39-2.35h-1c-.53.82-1.51,1.66-1.46,2.45s1.13,1.72,1.91,1.9a1.67,1.67,0,0,0,2.06-2C461,704,460.09,703.2,459.54,702.4Zm-279-205.17c.82.52,1.69,1.48,2.46,1.42a2.91,2.91,0,0,0,1.89-1.95,1.69,1.69,0,0,0-2-2.05c-.86.13-1.6,1.05-2.39,1.62ZM488.37,702.42c-.52.78-1.39,1.53-1.49,2.36a1.69,1.69,0,0,0,2.08,2,2.94,2.94,0,0,0,1.9-2c0-.78-1-1.6-1.55-2.4ZM183.72,219.76c-.77,0-1.59,1-2.4,1.52l0,1c.82.53,1.6,1.41,2.46,1.5a1.69,1.69,0,0,0,1.89-2.13A2.92,2.92,0,0,0,183.72,219.76ZM499.23,702.39l-.9,0c-.53.77-1.41,1.51-1.51,2.34a1.8,1.8,0,0,0,2.08,2.07c1.35-.06,2.2-.93,2-2.19C500.69,703.81,499.79,703.13,499.23,702.39Zm7.54,2.29a1.67,1.67,0,0,0,1.91,2.09c.89-.13,1.67-1,2.49-1.49v-.93c-.8-.54-1.63-1.53-2.41-1.5A2.86,2.86,0,0,0,506.77,704.68Zm22.39-2.27h-.95c-.55.81-1.55,1.63-1.53,2.41a2.9,2.9,0,0,0,1.87,2,1.67,1.67,0,0,0,2.11-1.9C530.56,704,529.69,703.22,529.16,702.41Zm9.94,0h-1c-.55.8-1.55,1.62-1.53,2.41a2.9,2.9,0,0,0,1.87,2,1.67,1.67,0,0,0,2.11-1.89C540.5,704,539.63,703.22,539.1,702.41Zm47-195.75a2.91,2.91,0,0,0,1.91,1.92c.77.06,1.63-.92,2.45-1.44,0-.32,0-.64,0-1-.8-.56-1.55-1.47-2.41-1.59A1.69,1.69,0,0,0,586.06,506.66Zm2.74-342.53c.86-.11,1.62-1,2.42-1.57v-1c-.81-.53-1.66-1.51-2.43-1.46a2.92,2.92,0,0,0-1.93,1.91A1.69,1.69,0,0,0,588.8,164.13ZM184.91,546.5c-.11-.89-.95-1.69-1.46-2.53l-.92,0c-.55.8-1.55,1.61-1.54,2.41a2.85,2.85,0,0,0,1.78,2A1.67,1.67,0,0,0,184.91,546.5ZM591.2,211.21c-.83-.5-1.71-1.46-2.48-1.38a2.9,2.9,0,0,0-1.87,2,1.69,1.69,0,0,0,2,2c.86-.14,1.59-1.07,2.38-1.64ZM180.55,517.13c.83.51,1.71,1.47,2.48,1.39a2.91,2.91,0,0,0,1.87-2,1.68,1.68,0,0,0-2-2c-.86.13-1.59,1.06-2.38,1.64ZM183,528.46a2.91,2.91,0,0,0,1.88-2,1.69,1.69,0,0,0-2-2c-.86.13-1.59,1.06-2.38,1.63l0,1C181.38,527.57,182.25,528.53,183,528.46Zm405.05-4a1.69,1.69,0,0,0-2,2,2.9,2.9,0,0,0,1.86,2c.77.08,1.65-.88,2.48-1.38l0-1C589.65,525.54,588.92,524.6,588.07,524.46Zm-1.22-332.63a1.69,1.69,0,0,0,1.92,2.11c.86-.1,1.63-1,2.45-1.53v-1c-.81-.54-1.64-1.53-2.42-1.49A2.92,2.92,0,0,0,586.85,191.83Zm-401.16,0a2.87,2.87,0,0,0-1.91-1.91c-.78-.06-1.63.92-2.44,1.45v1c.8.56,1.55,1.47,2.41,1.58A1.68,1.68,0,0,0,185.69,191.86ZM586.06,536.42a2.9,2.9,0,0,0,1.86,2c.77.08,1.65-.87,2.48-1.38l0-1c-.78-.57-1.51-1.5-2.37-1.64A1.68,1.68,0,0,0,586.06,536.42ZM183.2,179.58c-.52.83-1.47,1.69-1.41,2.48a2.82,2.82,0,0,0,1.88,1.93,1.68,1.68,0,0,0,2-2c-.15-.88-1-1.63-1.59-2.44Zm408-8.1c-.83-.52-1.7-1.48-2.48-1.41a2.93,2.93,0,0,0-1.88,2,1.69,1.69,0,0,0,2,2c.86-.14,1.6-1.06,2.39-1.63C591.22,172.12,591.21,171.8,591.21,171.48Zm-405.5.57c-.16-.87-1.05-1.62-1.6-2.42l-.92,0c-.51.83-1.46,1.7-1.4,2.49a2.84,2.84,0,0,0,1.89,1.92A1.69,1.69,0,0,0,185.71,172.05Zm37-126.24,1,0c.55-.82,1.57-1.65,1.53-2.44s-1.13-1.75-1.92-1.93a1.69,1.69,0,0,0-2,2C221.33,44.3,222.18,45,222.7,45.81ZM588.06,544.34a1.68,1.68,0,0,0-2,2,2.9,2.9,0,0,0,1.86,2c.78.08,1.65-.88,2.48-1.38l0-1C589.65,545.41,588.92,544.47,588.06,544.34ZM185.69,162.05a2.87,2.87,0,0,0-1.91-1.91c-.78-.06-1.63.92-2.44,1.45v1c.8.56,1.55,1.46,2.41,1.58A1.68,1.68,0,0,0,185.69,162.05Zm-5.14,394.8c.82.52,1.69,1.49,2.46,1.42a2.91,2.91,0,0,0,1.89-1.95,1.69,1.69,0,0,0-2-2.05c-.86.13-1.6,1.05-2.39,1.62Zm409.86-1.09c-.82-.52-1.61-1.4-2.47-1.49a1.7,1.7,0,0,0-1.88,2.16,2.9,2.9,0,0,0,2,1.84c.78,0,1.59-1,2.39-1.54Zm-1.67-415.49a2.9,2.9,0,0,0-1.89,1.93,1.7,1.7,0,0,0,2,2.06c.86-.13,1.6-1,2.4-1.62l0-1C590.38,141.17,589.52,140.2,588.74,140.27Zm-405,0c-.78,0-1.63.92-2.45,1.44l0,1c.8.55,1.56,1.47,2.42,1.59a1.68,1.68,0,0,0,1.95-2.07A2.93,2.93,0,0,0,183.79,140.26Zm-.78,428a2.91,2.91,0,0,0,1.89-2,1.69,1.69,0,0,0-2-2c-.86.13-1.6,1-2.39,1.62l0,1C181.37,567.31,182.24,568.28,183,568.21ZM588.78,130.33a2.9,2.9,0,0,0-1.93,1.9,1.69,1.69,0,0,0,1.94,2.09c.86-.11,1.62-1,2.43-1.56,0-.32,0-.64,0-1C590.4,131.26,589.56,130.28,588.78,130.33ZM182.9,578.18a1.67,1.67,0,0,0,2-2c-.17-.88-1-1.63-1.61-2.43l-.92,0c-.5.84-1.45,1.71-1.39,2.5A2.84,2.84,0,0,0,182.9,578.18Zm193-1.06c.07-1.25-.61-2.19-1.85-2a8,8,0,0,0-2.48,1.47l0,.92c.74.57,1.41,1.48,2.22,1.64C375.09,579.39,375.86,578.43,375.92,577.12Zm210.14,9a2.92,2.92,0,0,0,1.85,2c.78.08,1.66-.87,2.49-1.37l0-1c-.79-.58-1.51-1.51-2.37-1.65A1.68,1.68,0,0,0,586.06,586.1ZM183,594c-.86.08-1.65,1-2.47,1.48l0,1c.79.56,1.61,1.57,2.38,1.54a2.91,2.91,0,0,0,2-1.84A1.69,1.69,0,0,0,183,594Zm1.89,12.07c-.12-.89-1-1.68-1.49-2.52l-.92,0c-.54.81-1.53,1.63-1.51,2.42a2.87,2.87,0,0,0,1.8,2A1.67,1.67,0,0,0,184.91,606.1Zm403-2.14a1.7,1.7,0,0,0-1.84,2.19,2.91,2.91,0,0,0,2,1.81c.78,0,1.57-1,2.36-1.59,0-.33,0-.65,0-1C589.57,604.89,588.76,604,587.9,604Zm0,9.94a1.69,1.69,0,0,0-1.85,2.17,2.93,2.93,0,0,0,2,1.82c.77,0,1.57-1,2.36-1.56l0-1C589.58,614.84,588.78,614,587.91,613.9Zm.92-499.45c.86-.13,1.6-1,2.4-1.62l0-1c-.82-.51-1.69-1.48-2.46-1.41a2.93,2.93,0,0,0-1.89,2A1.7,1.7,0,0,0,588.83,114.45Zm-405.1-4c-.77,0-1.6,1-2.4,1.51v1c.81.53,1.59,1.42,2.45,1.52a1.69,1.69,0,0,0,1.9-2.13A2.9,2.9,0,0,0,183.73,110.45Zm.09-5.94a1.7,1.7,0,0,0,1.87-2.16,2.89,2.89,0,0,0-2-1.84c-.78,0-1.59,1-2.38,1.55l0,1C182.16,103.55,183,104.43,183.82,104.51ZM183,623.84c-.87.07-1.66.95-2.48,1.48l0,1c.79.56,1.6,1.57,2.38,1.55a2.88,2.88,0,0,0,2-1.84A1.68,1.68,0,0,0,183,623.84Zm404.93,4c.78.06,1.63-.91,2.45-1.43,0-.32,0-.64,0-1-.8-.57-1.55-1.48-2.41-1.6a1.68,1.68,0,0,0-2,2.06A2.91,2.91,0,0,0,588,627.83Zm-1.1-535.41a1.68,1.68,0,0,0,1.87,2.15c.86-.08,1.65-1,2.48-1.48l0-1c-.8-.56-1.61-1.57-2.38-1.54A2.87,2.87,0,0,0,586.86,92.42Zm-401.17.1a2.89,2.89,0,0,0-1.89-1.94c-.77-.07-1.63.9-2.46,1.42l0,1c.79.56,1.54,1.48,2.4,1.61A1.68,1.68,0,0,0,185.69,92.52Zm-1.87-7.89a1.69,1.69,0,0,0,1.87-2.15,2.9,2.9,0,0,0-2-1.84c-.78,0-1.59,1-2.39,1.54l0,1C182.16,83.67,183,84.55,183.82,84.63Zm355-38.85.89.06c.59-.73,1.5-1.38,1.69-2.2.29-1.26-.54-2.15-1.89-2.25a1.79,1.79,0,0,0-2.13,2C537.45,44.23,538.3,45,538.81,45.78ZM183,637.77a2.93,2.93,0,0,0,1.89-1.95,1.69,1.69,0,0,0-2-2.05c-.86.13-1.6,1.05-2.39,1.62l0,1C181.37,636.87,182.24,637.83,183,637.77Zm403-1.89a2.9,2.9,0,0,0,1.94,1.89c.78,0,1.61-.95,2.42-1.49v-1c-.81-.54-1.58-1.44-2.44-1.54A1.69,1.69,0,0,0,586.06,635.88ZM232.62,45.8l.95,0c.56-.81,1.58-1.64,1.55-2.42s-1.12-1.77-1.9-1.95a1.69,1.69,0,0,0-2.07,2C231.26,44.29,232.1,45,232.62,45.8Zm19.07,656.62c-.51.82-1.37,1.61-1.46,2.48a1.68,1.68,0,0,0,2.15,1.86,2.9,2.9,0,0,0,1.83-2c0-.79-1-1.59-1.56-2.38Zm-66-411.15a2.88,2.88,0,0,0-1.88-1.94c-.78-.07-1.64.89-2.47,1.4l0,1c.79.57,1.54,1.49,2.4,1.62A1.68,1.68,0,0,0,185.69,291.27ZM548.79,45.8l.89,0c.57-.74,1.47-1.41,1.65-2.24.27-1.27-.59-2.13-1.93-2.21a1.8,1.8,0,0,0-2.1,2C547.39,44.27,548.26,45,548.79,45.8Zm39.92,74.59a2.92,2.92,0,0,0-1.86,2,1.69,1.69,0,0,0,2,2c.86-.14,1.59-1.07,2.37-1.65l0-1C590.37,121.26,589.49,120.31,588.71,120.39Zm2.49,160.36c-.84-.5-1.73-1.45-2.5-1.37a2.92,2.92,0,0,0-1.85,2,1.69,1.69,0,0,0,2,2c.85-.15,1.57-1.09,2.35-1.67Zm-407.9-1.81c-.55.8-1.54,1.62-1.51,2.41a2.84,2.84,0,0,0,1.8,2,1.69,1.69,0,0,0,2.11-1.91c-.1-.88-.95-1.67-1.47-2.5ZM282,702.86a2.83,2.83,0,0,0-1.89,1.91,1.67,1.67,0,0,0,2,2c.87-.16,1.61-1,2.41-1.61l0-.91C283.61,703.75,282.74,702.81,282,702.86ZM588.8,233.69c.86-.11,1.62-1,2.42-1.58v-1c-.82-.53-1.67-1.51-2.45-1.45a2.91,2.91,0,0,0-1.92,1.91A1.69,1.69,0,0,0,588.8,233.69Zm0,29.81c.86-.09,1.64-1,2.45-1.52v-1c-.81-.54-1.63-1.54-2.41-1.5a2.91,2.91,0,0,0-1.95,1.87A1.68,1.68,0,0,0,588.76,263.5ZM529.92,45.82c.54-.77,1.41-1.48,1.54-2.31a1.68,1.68,0,0,0-2-2,2.9,2.9,0,0,0-2,1.89c0,.79,1,1.64,1.49,2.46Zm-347,413.11a1.66,1.66,0,0,0,2-2c-.18-.88-1.08-1.61-1.66-2.4l-.92.05c-.48.85-1.41,1.74-1.33,2.53A2.83,2.83,0,0,0,182.94,458.93ZM180.55,537c.83.51,1.7,1.46,2.48,1.39a2.92,2.92,0,0,0,1.87-1.95,1.69,1.69,0,0,0-2-2c-.86.13-1.6,1.06-2.39,1.63ZM322.46,702.45l-.94-.08c-.6.78-1.67,1.55-1.67,2.33a2.92,2.92,0,0,0,1.8,2.06,1.69,1.69,0,0,0,2.17-1.88C323.76,704,322.94,703.26,322.46,702.45ZM520,45.81c.53-.82,1.4-1.6,1.49-2.46a1.68,1.68,0,0,0-2.12-1.89,2.89,2.89,0,0,0-1.86,1.95c0,.79,1,1.6,1.54,2.41Zm66,441a2.9,2.9,0,0,0,2,1.88c.78,0,1.61-1,2.42-1.5,0-.33,0-.65,0-1-.81-.54-1.59-1.43-2.45-1.53A1.69,1.69,0,0,0,586.06,486.83ZM469.53,702.41h-.95c-.55.82-1.56,1.66-1.51,2.45s1.15,1.74,1.94,1.91a1.68,1.68,0,0,0,2-2C470.92,703.9,470.06,703.18,469.53,702.41ZM183.77,203.88a1.68,1.68,0,0,0,1.92-2.1,2.87,2.87,0,0,0-1.93-1.89c-.78,0-1.62.94-2.43,1.48v1C182.14,202.87,182.91,203.78,183.77,203.88Zm1.92,27.67a2.9,2.9,0,0,0-2-1.85c-.77,0-1.59,1-2.39,1.52v1c.82.53,1.6,1.42,2.46,1.51A1.69,1.69,0,0,0,185.69,231.55ZM586.06,596.19a2.91,2.91,0,0,0,2,1.83c.77,0,1.58-1,2.37-1.56,0-.32,0-.65,0-1-.83-.52-1.62-1.39-2.49-1.46A1.69,1.69,0,0,0,586.06,596.19Zm-66.94,106.2-1,0c-.52.83-1.48,1.69-1.42,2.47a2.9,2.9,0,0,0,2,1.87,1.68,1.68,0,0,0,2-2C520.59,703.92,519.68,703.18,519.12,702.39Zm66.94-56.56a2.91,2.91,0,0,0,2,1.88c.77,0,1.6-1,2.41-1.51v-1c-.82-.53-1.59-1.42-2.45-1.52A1.69,1.69,0,0,0,586.06,645.83Zm0-149.13a2.89,2.89,0,0,0,1.89,1.94c.77.07,1.64-.9,2.46-1.41l0-1c-.79-.56-1.54-1.48-2.39-1.61A1.69,1.69,0,0,0,586.06,496.7Zm5.15-345.1c-.83-.51-1.7-1.47-2.48-1.4a2.89,2.89,0,0,0-1.88,2,1.69,1.69,0,0,0,2,2c.85-.13,1.59-1.06,2.38-1.63ZM548.94,702.39l-.94,0c-.52.84-1.5,1.71-1.43,2.5s1.2,1.7,2,1.85a1.69,1.69,0,0,0,2-2.1C550.39,703.84,549.5,703.14,548.94,702.39ZM183.73,209.83c-.78,0-1.6,1-2.4,1.5v1c.81.53,1.59,1.42,2.45,1.52a1.69,1.69,0,0,0,1.9-2.13A2.88,2.88,0,0,0,183.73,209.83ZM182.44,504.2c-.52.82-1.49,1.67-1.45,2.46a2.87,2.87,0,0,0,1.86,2,1.67,1.67,0,0,0,2.06-1.95c-.14-.88-1-1.65-1.55-2.47ZM588.77,199.88a2.92,2.92,0,0,0-1.92,1.92,1.69,1.69,0,0,0,1.95,2.08c.86-.11,1.62-1,2.42-1.58,0-.32,0-.64,0-1C590.4,200.81,589.55,199.83,588.77,199.88ZM184.9,665.59a1.69,1.69,0,0,0-2-2c-.86.15-1.58,1.09-2.36,1.67l0,1c.83.49,1.72,1.44,2.49,1.35A2.88,2.88,0,0,0,184.9,665.59ZM588,568.21c.78,0,1.63-.93,2.44-1.47v-1c-.81-.55-1.57-1.46-2.43-1.57a1.69,1.69,0,0,0-1.94,2.09A2.91,2.91,0,0,0,588,568.21ZM180.55,616.48c.82.51,1.69,1.47,2.46,1.41A2.91,2.91,0,0,0,184.9,616a1.69,1.69,0,0,0-2-2.05c-.86.12-1.6,1.05-2.39,1.61C180.53,615.83,180.54,616.16,180.55,616.48Zm3.23-466.28c-.78,0-1.63.93-2.44,1.45v1c.8.56,1.56,1.47,2.42,1.59a1.69,1.69,0,0,0,1.94-2.09A2.87,2.87,0,0,0,183.78,150.2Zm-.06-25.82a1.69,1.69,0,0,0,2-2,2.91,2.91,0,0,0-1.89-1.94c-.78-.07-1.64.9-2.47,1.41l0,1C182.11,123.33,182.86,124.26,183.72,124.38ZM470.3,45.82c.54-.77,1.4-1.48,1.54-2.31a1.69,1.69,0,0,0-2-2,2.9,2.9,0,0,0-2,1.89c-.05.79.95,1.64,1.49,2.46ZM586.06,655.7a2.89,2.89,0,0,0,1.89,1.94c.77.06,1.63-.9,2.46-1.41l0-1c-.79-.56-1.53-1.48-2.39-1.61A1.68,1.68,0,0,0,586.06,655.7ZM185.69,132.29a2.9,2.9,0,0,0-1.86-2c-.78-.07-1.65.88-2.48,1.38l0,1c.78.57,1.52,1.5,2.38,1.64A1.68,1.68,0,0,0,185.69,132.29ZM479.44,702.4h-.95c-.54.81-1.53,1.65-1.49,2.43s1.11,1.73,1.89,1.92a1.68,1.68,0,0,0,2.09-1.93C480.87,704,480,703.21,479.44,702.4ZM586.06,516.69a2.89,2.89,0,0,0,2,1.83c.77,0,1.58-1,2.37-1.55l0-1c-.83-.52-1.62-1.4-2.48-1.47A1.69,1.69,0,0,0,586.06,516.69ZM322.23,45.83l.89,0c.53-.78,1.4-1.52,1.5-2.35a1.8,1.8,0,0,0-2.09-2.06c-1.34.07-2.2.94-1.94,2.2C320.76,44.42,321.66,45.09,322.23,45.83Zm-10,0h.9c.55-.76,1.45-1.47,1.57-2.3a1.81,1.81,0,0,0-2-2.13c-1.35,0-2.23.87-2,2.15C310.79,44.36,311.66,45.06,312.21,45.82Zm276.5,54.7a2.9,2.9,0,0,0-1.86,2,1.69,1.69,0,0,0,2,2c.86-.14,1.59-1.08,2.37-1.66l0-1C590.36,101.39,589.49,100.44,588.71,100.52ZM292.2,45.79l.95,0c.58-.8,1.62-1.6,1.6-2.39s-1.09-1.78-1.88-2a1.69,1.69,0,0,0-2.1,2C290.87,44.25,291.7,45,292.2,45.79ZM588.77,184c.86-.1,1.63-1,2.44-1.54v-1c-.81-.54-1.64-1.53-2.42-1.49a2.89,2.89,0,0,0-1.94,1.88A1.69,1.69,0,0,0,588.77,184ZM586.06,576.3a2.9,2.9,0,0,0,2,1.84c.78,0,1.59-1,2.39-1.54l0-1c-.82-.52-1.61-1.4-2.47-1.48A1.7,1.7,0,0,0,586.06,576.3ZM242.54,45.8l1,0c.57-.8,1.58-1.6,1.57-2.39a2.88,2.88,0,0,0-1.83-2,1.68,1.68,0,0,0-2.15,1.86C241.17,44.18,242,45,242.54,45.8ZM183,584.09c-.86.07-1.66.94-2.49,1.45l0,1c.79.56,1.59,1.58,2.37,1.56a2.93,2.93,0,0,0,2-1.82A1.7,1.7,0,0,0,183,584.09Zm59.85,118.34-.89,0c-.59.72-1.51,1.37-1.7,2.19-.3,1.26.55,2.15,1.88,2.26a1.81,1.81,0,0,0,2.15-2C244.25,704,243.4,703.23,242.89,702.43ZM372.14,226.51a1.55,1.55,0,0,0-2-1.78,3.09,3.09,0,0,0-1.83,2.05c-.09.68.88,1.51,1.38,2.27l1,0A7.94,7.94,0,0,0,372.14,226.51ZM400,503.22c.13.78.93,1.45,1.43,2.17h.9c.51-.85,1.39-1.71,1.39-2.56,0-.63-1.09-1.7-1.8-1.79A1.74,1.74,0,0,0,400,503.22ZM429,265c.12.73,1.19,1.92,1.64,1.84.87-.16,1.61-1.07,3-2.1-1.28-.93-1.94-1.79-2.68-1.88A1.74,1.74,0,0,0,429,265Zm-14.47,228.4c-.82.14-1.51,1-2.25,1.6v.89c.69.5,1.51,1.52,2,1.39a3.22,3.22,0,0,0,2-1.9A1.53,1.53,0,0,0,414.49,493.42ZM291.75,300.54a1.55,1.55,0,0,0-1.8-2c-.81.14-1.49,1-2.78,2,1.26,1,2.06,2,2.61,1.89A3.09,3.09,0,0,0,291.75,300.54Zm30.86-16.44a2.76,2.76,0,0,0,1.71-2c0-.74-.9-1.53-1.41-2.29l-1,.06a7.51,7.51,0,0,0-1.2,2.26C320.59,283.38,321.38,284.39,322.61,284.1Zm96.06,230.18c.14.72,1.16,1.77,1.77,1.76s1.51-.95,2.86-1.91c-1.29-1-1.93-1.86-2.67-2A1.7,1.7,0,0,0,418.67,514.28Zm-44.11-293v-.94c-.7-.48-1.36-1.27-2.11-1.38a1.58,1.58,0,0,0-1.92,1.89c.14.73,1.1,1.79,1.72,1.81S373.79,221.76,374.56,221.26Zm-40.89,22.87c.72.07,1.55-.79,2.33-1.25l0-.95c-.73-.54-1.4-1.42-2.21-1.56a1.55,1.55,0,0,0-1.85,1.91A2.72,2.72,0,0,0,333.67,244.13Zm86.87,260.69a1.53,1.53,0,0,0-1.76,2,2.66,2.66,0,0,0,2,1.58c.68,0,1.4-.93,2.1-1.46l0-.84C422.06,505.65,421.34,504.92,420.54,504.82ZM395,504.29a1.52,1.52,0,0,0,1.81-1.92c-.15-.79-.92-1.45-1.41-2.16h-.83c-.45.73-1.34,1.51-1.25,2.18A2.69,2.69,0,0,0,395,504.29Zm-58.74,37.59c.44.12,1.49-.63,1.67-1.19.45-1.42-.38-2.32-2.31-3-.39.81-1.13,1.69-1.1,2.55C334.52,540.87,335.54,541.69,336.25,541.88ZM420.49,499c-.74,0-1.51.9-2.26,1.41v.92c.7.47,1.54,1.46,2.07,1.31a3.18,3.18,0,0,0,1.89-1.94C422.32,500.29,421.12,499,420.49,499ZM488.1,288.5l0-.83c-.75-.45-1.6-1.36-2.21-1.23a2.66,2.66,0,0,0-1.55,2c-.05.51,1.11,1.59,1.7,1.56S487.41,289,488.1,288.5ZM367.14,582c.79-.07,1.51-.93,2.78-1.81-1.18-.95-1.76-1.8-2.44-1.88a1.72,1.72,0,0,0-2,2.06C365.59,581,366.62,582,367.14,582Zm49.72-92.78a3.16,3.16,0,0,0,.4,2.47,2.25,2.25,0,0,0,2-.06,10.65,10.65,0,0,0,.73-2.9C418.35,487.79,417.27,488,416.86,489.17Zm-57-29.31c-.13-.68-1.18-1.18-1.83-1.76-.54.63-1.5,1.26-1.51,1.9s.84,1.43,1.32,2.14l.9,0C359.16,461.35,360,460.51,359.87,459.86Zm-4.53,118.3c.68.05,1.43-.79,2.68-1.58-1.13-1-1.85-2-2.33-1.9a2.71,2.71,0,0,0-1.79,1.73C353.79,576.91,354.78,578.12,355.34,578.16Zm-20.55-43.29c.63-.06,1.73-1.18,1.63-1.61a2.93,2.93,0,0,0-1.76-1.83c-.44-.13-1.22.87-2.32,1.73C333.5,534,334.19,534.93,334.79,534.87Zm-.09-7.81c-.08-.66-1-1.22-1.57-1.82-.54.62-1.44,1.18-1.52,1.86s.73,1.32,1.15,2h.78C334,528.41,334.78,527.68,334.7,527.06Zm59.89-276.14c.39-.69,1.14-1.41,1.08-2.07s-1-1.09-1.52-1.62c-.58.58-1.54,1.12-1.62,1.77s.81,1.3,1.27,2ZM418.92,495.2c.11.62,1,1.1,1.56,1.64.47-.6,1.3-1.18,1.33-1.8s-.76-1.24-1.57-2.42C419.55,493.88,418.82,494.61,418.92,495.2Zm-57.73,86.09c.55-1.34.83-2,1.34-3.26-1.14-.1-2-.41-2.67-.14a1.93,1.93,0,0,0-.67,1.79C359.42,580.26,360.28,580.6,361.19,581.29ZM354.9,455.56c.12.61,1,1.08,1.49,1.62.48-.53,1.28-1,1.33-1.59s-.68-1.16-1.38-2.2C355.61,454.43,354.8,455.08,354.9,455.56ZM367.25,86l-.41.08c2,9.62,4.07,19.25,6.13,29a51.43,51.43,0,0,0-5.59,1,2.31,2.31,0,0,0-1.38,1.78c0,.55,1.06,1.06,1.71,1.5.24.16.65.07,1,.08,8.13.21,16.26.5,24.4.58a88.74,88.74,0,0,0,10.68-.65c.75-.09,1.93-1.29,1.91-1.95s-1.14-1.5-1.93-2c-.42-.3-1.14-.17-2-.26-.42-9.55-.84-19.08-1.27-28.7a9.79,9.79,0,0,0,2.78-.28,2.89,2.89,0,0,0,1.52-1.67c.09-.35-.91-1-1.48-1.44-.23-.17-.65-.1-1-.11-9.32-.18-18.64-.37-28-.5a67.11,67.11,0,0,0-6.94.29,9.25,9.25,0,0,0-2.43,1v.7Zm24.72.4h4.82v29.1H392Zm-3.86-.28c-.28,9.65-.57,19.32-.85,29.11h-9c2.44-9.88,4.81-19.44,7.21-29.11Zm-6.17,0-5.75,22.37h-.59c-1.52-7.42-3-14.85-4.57-22.36Z"/></svg>