<svg xmlns="http://www.w3.org/2000/svg" viewBox="0 0 750 750"><path d="M606.15,48.21a27.15,27.15,0,0,0-.45-5.33A21.87,21.87,0,0,0,583.76,25H187.23c-13.1,0-22.65,9.56-22.65,22.71V375.07q0,163.68,0,327.35a23.65,23.65,0,0,0,.57,5.51c2.54,10.55,11.23,17.07,22.65,17.07Q385.4,725,583,725a27.16,27.16,0,0,0,5.33-.46c10.93-2.23,17.88-11.09,17.88-22.79Q606.17,375,606.15,48.21Zm-4.26,653.47c0,11.54-7.48,19-19,19H187.74c-9.44,0-16.55-5.33-18.48-14a23.17,23.17,0,0,1-.38-4.93q0-163.49,0-327V47.47c0-8.91,5.51-15.94,14-17.83a18.61,18.61,0,0,1,3.95-.35H584a17.67,17.67,0,0,1,17.94,17.65c0,1.26,0,2.52,0,3.78Zm-183-180.9c5.85-.34,11.59-1.38,16.62-4.73a11.19,11.19,0,0,0,5.15-11.26c-.52-4.65-3.84-6.9-7.9-7.82a43.82,43.82,0,0,0-10.41-1c-3.23,0-6.44.84-9.66,1.3a52.57,52.57,0,0,0,3.92-4.33,37.86,37.86,0,0,0,4-6.33c2.66-5.75,3.08-11.89,2.38-18.1a7.53,7.53,0,0,0-6.74-7.06c-7.79-.86-15.06.39-20.77,6.44-.44.46-.78,1-1.41,1.84-.26-2.88-.31-5.19-.72-7.44s-1.2-4.59-1.84-7c.83-1.06,1.74-2.19,2.54-3.21,1.19-.59,2.24-1.14,3.32-1.63,4.81-2.19,9.71-4.2,14.42-6.6a19.81,19.81,0,0,0,5.1-4.29,4.12,4.12,0,0,0,.83-5.13c-1.06-1.8-2.92-1.87-4.74-1.85a16.69,16.69,0,0,0-11.28,4.74L400,438.87a44,44,0,0,0,1.12-4.61,9.08,9.08,0,0,1,2.52-5.22c2.88-3.11,5.68-6.3,8.33-9.6a22.14,22.14,0,0,0,2.81-4.95,3.39,3.39,0,0,0-.92-4.17,3.13,3.13,0,0,0-4.21.32,61.73,61.73,0,0,0-5.52,6.12,14.85,14.85,0,0,0-1.44,2.74,84.57,84.57,0,0,1-.41-11.88,8,8,0,0,1,.89-3.27c1.81-3.59,3.93-7,5.57-10.71.89-2,0-4.27-1.37-4.7-2-.63-3.28.71-4.28,2.13a39,39,0,0,0-2.23,4.11c-.66-3.19-1.55-6-.16-9.12a21.17,21.17,0,0,0,1.53-6.7c.1-1.07-.82-2.22-1.28-3.37-3.15,1.11-2.56,3.79-3.8,5.64A29.47,29.47,0,0,1,396,376c-.32-2.68-.42-5.4-.92-8.05-.2-1-1.23-1.89-2-3.07-2.22,2.34-1,4.67-1.53,6.83a25.19,25.19,0,0,1-3-4.58c-1-2.07-1.68-4.29-2.66-6.38a8.55,8.55,0,0,0-1.78-1.89l-.84.16c-.19,1.32-.38,2.63-.56,3.84-2.23-.15-4.53-.5-6.82-.45-8.18.18-12.91,8-9.5,15.45a8,8,0,0,0,7.13,5.16c4,.31,6.47-2.29,5.74-6.24a3.84,3.84,0,0,0-3.39-3.15,3.22,3.22,0,0,0-3.44,2.69,19.7,19.7,0,0,0-.34,3.27c-2.22-.37-3.94-2.59-4-5.5,0-3.37.47-6.87,4-8.22,4.08-1.58,8.72-2.24,12.19,1.13a41.62,41.62,0,0,1,9.34,12.75,69.81,69.81,0,0,1,5.09,19.54c.46,3.55.7,7.12,1.05,10.68l-.51.08-.46-.83c-.15-.29-.28-.6-.45-.88-3.11-5.1-7.46-8.39-13.53-9-3.36-.32-5.89,1.26-6.52,4.5a20.29,20.29,0,0,0,0,7.61,6.65,6.65,0,0,0,7.27,5.17,4.52,4.52,0,0,0,4.11-4.58,3.91,3.91,0,0,0-3.43-4,2.32,2.32,0,0,0-2.75,3.14c.18.6.39,1.19.67,2-2.33-.58-3-2.16-3.19-3.89-.3-2.3-.69-4.88,1.45-6.44,2-1.44,4.25-.48,6.25.4,5,2.21,8,6.19,9.24,11.47,3.2,13.22.69,25.47-6.34,36.93a11.71,11.71,0,0,1-1,1.3c-1.75-1.88-3.3-3.77-5.09-5.41a10.63,10.63,0,0,0-13.52-.31,22.68,22.68,0,0,0-7.42,11c-1.75,5.89-1.24,11.8-.55,17.73.3,2.62.91,5.2,1.37,7.8l-.49.3c-.64-.75-1.25-1.52-1.9-2.25a28.44,28.44,0,0,0-13.75-8.33,12,12,0,0,0-8.52.55c-3.75,1.66-4.93,3.64-4.08,7.72,1.09,5.19,3.95,9.49,7.25,13.51,1.84,2.23,3.75,4.4,5.62,6.59a3.23,3.23,0,0,0-1.74-.62c-4.32-.7-8.45,3.29-7.56,7.43a13.18,13.18,0,0,0,4.45,7.76c2.94,2.41,6.06,4.26,9.88,4.76a16.85,16.85,0,0,1,2,.49l0,.58c-1.9.4-3.8.83-5.71,1.2-4.21.82-8.46,1.47-12.62,2.48a8.5,8.5,0,0,0-3.72,2.46,2.92,2.92,0,0,0-.52,2.65,3.55,3.55,0,0,0,2.46,1.5,17.83,17.83,0,0,0,3.93-.23l-3.17,3.38c-.9.15-1.88.29-2.85.49-3.68.76-7.27,1.8-9.84,4.74-.63.73-1.07,2.43-.65,3.1a4.47,4.47,0,0,0,3.09,1.46,5.52,5.52,0,0,0,2.73-1c1-.55,1.93-1.26,3.32-2.19-.79,2-1.42,3.39-1.95,4.86-3.52,9.7,2.54,16.86,9.8,19.06A9.42,9.42,0,0,0,352,562.13c1.18-2,1.23-4.12.06-5.6a4.78,4.78,0,0,0-5.2-1.6,4.15,4.15,0,0,0-3.46,4.06,28.13,28.13,0,0,0,.28,4.07c-3.63.42-8.89-3.68-10-7.87-1.31-4.87.84-8.94,2.77-13.09a11.42,11.42,0,0,1,1.08-1.47c0,1.51-.08,2.57,0,3.62a5.28,5.28,0,0,0,4.44,4.7,5.92,5.92,0,0,0,5.43-2.61c.87-1.73.39-3.51-1.1-4.05a2.81,2.81,0,0,0-3.65,2.12c-.15.49-.24,1-.39,1.6-2.12-.91-2-2.63-1.73-4.25a11.9,11.9,0,0,1,3.73-7.09c3-2.76,6.2-5.37,9.33-8a9.78,9.78,0,0,1,1.36-.74c-.4,1-.66,1.55-.89,2.15a14.13,14.13,0,0,0-.86,8.56c.4,1.65,1.22,2.95,3,3.31a3.6,3.6,0,0,0,4.13-2,12.24,12.24,0,0,0,1.43-3.46c.54-3,.78-6,1.34-9,.22-1.15.72-2.79,1.56-3.17a74.44,74.44,0,0,1,8.4-2.69,6.5,6.5,0,0,0,1,7.92c1.41,1.65,3,3.18,4.26,4.92,3,4.09,7.07,6.63,12.07,5.87a33.48,33.48,0,0,0,10.88-4c5.31-2.94,8.69-7.3,7.14-13.73C411.91,520.62,415.42,521,418.89,520.78Zm-8.68-107.25-5.88,9.16C405.57,419.17,406.85,415.69,410.21,413.53Zm-4.69-21.84.49.18q-1.62,4.61-3.23,9.22l-.51-.18A15.68,15.68,0,0,1,405.52,391.69Zm-5.85-7.82-.58-.11c.29-1.66.59-3.32.88-5l.77.15C400.38,380.58,400,382.23,399.67,383.87Zm11.57,52L398.94,445C400,441.27,406.34,436.51,411.24,435.91ZM335.67,530c1.12-1.94,5.34-3.54,9.41-3.24Zm58.79-54.7c3.79-8,11.59-12.13,20-10.53,3.17.61,4.78,2.22,5.25,5.37a29.75,29.75,0,0,1-1.82,16,19.27,19.27,0,0,1-8.31,9.6,69.8,69.8,0,0,0-20,16.35,5.88,5.88,0,0,1-.67.49c2.15-9.63,9.14-25.8,16.16-34.1-4.25,3.63-7.29,8.18-10.12,12.94s-6,9.19-6.85,14.82l-.78-.23c.52-3.16,1.17-6.3,1.55-9.48C389.74,489.12,391.27,482,394.46,475.26Zm-26.71-16.1a21.39,21.39,0,0,1,6.07-9.39,6.51,6.51,0,0,1,8.83,0c5.47,4.67,7.08,11,7.57,17.75a36.26,36.26,0,0,1-1.89,14.2c-1.86,5.72-2.55,11.83-3.57,16.88-1.92-9.17-2.79-19.63-6.71-29.42,2.88,12.22,3.06,24.7,3.77,37.2-.23-.43-.44-.87-.7-1.28-2-3.05-3.62-6.37-6-9.1-5.25-6.14-7.31-13.38-8.12-21.13C366.5,469.64,366.12,464.37,367.75,459.16Zm-11.7,77c-1.79-3-.1-9,3.38-11.94C358.3,528.19,357.17,532.2,356.05,536.14Zm-10.71-22.06a15.57,15.57,0,0,1-2.9-5.07c-.33-.75.09-1.83.17-2.76,4.25,9,12.53,10.61,20.29,12.7C355.32,520.37,350.55,519.2,345.34,514.08Zm.1-9.88c.81-.16,1.53-.54,2.12-.39a61.47,61.47,0,0,1,7.93,2.4,51.23,51.23,0,0,1,8.19,4.49l-6.24-.38-.14.9c2.69.57,5.41,1,8.06,1.73s5.36,1.7,8.49,2.71C364.28,519.07,348.16,512.53,345.44,504.2Zm24.81,6.36a82.94,82.94,0,0,1-10.39-5.72c-8-5.67-16.07-11.39-19.87-21-2.08-5.27-.76-6.86,5.09-7.91a5.09,5.09,0,0,1,2,.16,27.88,27.88,0,0,1,13.06,7.16,105.6,105.6,0,0,1,13.49,15c2.37,3.32,4.27,7,6.34,10.48a8.81,8.81,0,0,1,.58,1.8,88.71,88.71,0,0,0-27.4-24A129,129,0,0,1,379.67,515C376.53,513.52,373.34,512.14,370.25,510.56Zm6.88,13.63c-.73-.24-1.28-1-2.12-1.68,2.74-4.14,6.47-4.93,10.62-5l5.13,5.43c.62-2.39-1-3.9-1.47-5.85a17.84,17.84,0,0,1,11.4,1c1.31.51,1.81,3.38,1.22,5.05-1.35,3.83-4.55,4.89-8.1,5.38a6.35,6.35,0,0,1-2.57,0C386.52,527.18,381.81,525.73,377.13,524.19Zm25.63,5.57a23.42,23.42,0,0,1-12.54,5.55c-4.07.63-8.45-2.53-10.41-7.22,1.78.46,3.48.5,4.71,1.28,7.53,4.78,17,2.11,21.19-7.49A8.23,8.23,0,0,1,402.76,529.76Zm-7.3-15.84-.1-.59c9.83-4.44,19.87-8.11,30.91-8.23a48.27,48.27,0,0,0-15.18.89c-4.95,1.14-9.86,2.43-15.06,3.72a24.36,24.36,0,0,1,3.18-2.72c7.72-4.55,15.72-8.34,25-8a36.9,36.9,0,0,1,7.8,1.26c2.62.68,4.63,2.2,5,5.26s-1.1,5.14-3.27,6.8a25.32,25.32,0,0,1-18.94,4.92C408.28,516.48,401.89,515.06,395.46,513.92Zm184.91,161.6V421.86l-4.26-3.09v253c-12.28,2.34-18.64,10-21.3,21.66H432.75c2.52,2.73,4.87,4.6,8.71,4.27,4.73-.4,9.52-.1,14.29-.09l101.37,0a15.33,15.33,0,0,0,1.77-.22c-.66-6.21,2-11,6.19-15.1A23.41,23.41,0,0,1,580.37,675.52ZM194.6,671.7V418.81l-4.09,3.06V675.28c12.53,2.29,20.94,8.44,21.8,22.17a14.86,14.86,0,0,0,1.51.14c38.76,0,77.51-.07,116.27.07,3.66,0,5.59-1.94,8.17-4.35H216C213.32,681.6,206.86,673.92,194.6,671.7ZM577,76.4v243l4.08-3.06V72.53a22.87,22.87,0,0,1-15.2-6.67C561.68,61.75,559,57,559.7,50.67c-.91-.08-1.42-.15-1.94-.15-38.82,0-77.65.07-116.47-.07-3.63,0-5.34,2.13-7.44,4.4H555.6C558.37,66.45,564.74,74.14,577,76.4ZM191.26,316.29l4.28,3.15V76.37c12.21-2.27,18.59-9.94,21.28-21.57H339.06c-2.59-2.41-4.49-4.62-8.18-4.35-4.94.37-9.93.09-14.89.09l-101.37,0a13.45,13.45,0,0,0-1.52.16c-.95,13.87-9.45,19.93-21.84,22.17ZM536.51,437.6c.7-2.3.25-3.55-1.93-4.53a25.94,25.94,0,0,0-5.63-1.84,104.63,104.63,0,0,0-31-1.33,86,86,0,0,0-13.43,2.47c-4.34,1.18-4.85,3.08-3,7.16,1.2,2.62,2.16,5.35,3.15,7.84-4.87,5.57-2.8,18.93,3.31,23.21,1.51,6.52,4.67,11.82,10.46,15.15a6.22,6.22,0,0,1,3.3,5.84c0,4.1.1,8.22-.15,12.31s-1.84,7.29-5.52,9.31a14,14,0,0,0-1.65,1.11c-2.1,1.58-3,3.58-1.79,5.9a14.28,14.28,0,0,0,4.28,5.5c6.9,4.62,14.31,4.46,21.73,1.21a12.5,12.5,0,0,0,3.53-2.53c4.3-4.17,4-8.12-1.06-11.28-2.84-1.79-4.74-4.26-5-7.5-.39-5.06-.41-10.16-.35-15.24a5.12,5.12,0,0,1,2.85-4.44,23.73,23.73,0,0,0,5.19-4.24,20.5,20.5,0,0,0,5.41-10.95c6.22-4.6,8.11-16.79,3.54-23.54.8-2.11,1.65-4.39,2.54-6.67C535.67,439.54,536.2,438.61,536.51,437.6Zm-47.39,19.71-2,2.42-2.22-6.34-.59,0,1.4-4.09c4.74,2.21,6.82,14.57,3.15,18.86C489,464.45,490.22,461.25,489.12,457.31Zm27,54.6c1.22,1.59,3,2.77,4.93,4.5a16.46,16.46,0,0,1-2,3.11c-4.88,4.85-16,4.83-20.78-.11a20,20,0,0,1-2.13-3.22c4.17-2.62,7.11-5.63,7.73-9.79l9.58.43A30.67,30.67,0,0,0,516.11,511.91Zm-12.53-23.75a14.32,14.32,0,0,0,10.19-.07c-.28,5.12-.56,10.08-.84,15.13a8.66,8.66,0,0,1-8.51,0C504.15,498.36,503.87,493.38,503.58,488.16Zm5.61-5.12c-8.15.85-16.28-4.56-19-12.2,3-2,2.54-5.27,2.71-8.2a21.68,21.68,0,0,0-2.39-11.72,23.67,23.67,0,0,0-3-3.66l-.48.34L486,443.51a73.62,73.62,0,0,0,45.25,0c-.37,1.6-.66,2.81-.92,3.91-4,1.8-4.86,5.48-5.39,9a49.42,49.42,0,0,0-.12,10.25c.09,1.42,1.05,2.78,1.86,4.07C525.35,478,519.67,482,509.19,483Zm23.4-29.45a53.7,53.7,0,0,1-2.49,6l-1.74-2.16c-1.53,3.74.1,7,0,10.36-3.54-3.29-1.48-16.15,2.92-18.39A3.76,3.76,0,0,1,532.59,453.59Zm1.78-17.08a27.48,27.48,0,0,1-3.26,1.52,70.91,70.91,0,0,1-28.67,2.88c-5.57-.57-11.06-1.91-16.56-3a13.12,13.12,0,0,1-2.91-1.39v-.65a19.54,19.54,0,0,1,4.11-1.63c5.95-.89,11.91-1.88,17.91-2.29a87.68,87.68,0,0,1,23.89,1.93,48.08,48.08,0,0,1,5.5,1.86C534.38,436,534.37,436.25,534.37,436.51ZM291,431.27a70.52,70.52,0,0,0-10.88-2.16,106.19,106.19,0,0,0-33.42,1.09,30.7,30.7,0,0,0-6.34,2.19,2.76,2.76,0,0,0-1.5,3.68c.38,1.12.88,2.2,1.31,3.31.9,2.33,1.78,4.67,2.63,6.91-4.8,5.95-2.77,18.34,3.42,23.39,1.46,6.46,4.64,11.74,10.45,15.06,2.51,1.44,3.19,3.58,3.26,6.11.08,2.78-.07,5.56,0,8.35.14,5.94-1.34,10.92-7.11,14-2.52,1.32-3.1,3.75-1.95,6.37a11.8,11.8,0,0,0,2.77,4c6,5.35,13.18,5.42,20.38,3.43a16.78,16.78,0,0,0,6.79-4.25c3.86-3.78,3.23-7.76-1.36-10.56-2.92-1.77-4.92-4.26-5.18-7.59-.4-5-.42-10-.37-15.06a5.32,5.32,0,0,1,2.86-4.65,26.58,26.58,0,0,0,5.58-4.68,19.57,19.57,0,0,0,5.05-10.49c6.32-4.87,8.19-16.79,3.53-23.6,1-2.42,1.95-5.09,3.12-7.67C295.84,434.45,295.21,432.47,291,431.27ZM247.68,457l-.79-.19-1.61,1.9c-.79-2.2-1.58-4.35-2.59-7.14l1.2-3.28c4.75,2.32,6.85,14.9,3.08,18.76.27-2,.57-3.67.69-5.31S247.68,458.53,247.68,457Zm31.57,58.13a13.72,13.72,0,0,1-1.3,2.57,11.17,11.17,0,0,1-6.92,4c-5.31,1-10.47.68-14.68-3.31a16.75,16.75,0,0,1-2-3c5.39-4.51,5.39-4.51,7.77-10h9.59C272.44,509.71,275.33,512.61,279.25,515.08Zm-17.55-28a13.86,13.86,0,0,0,10.27,0c-.32,5.14-.63,10.18-1,15.33a9.72,9.72,0,0,1-8.41,0C262.31,497.28,262,492.29,261.7,487.05Zm5.12-5.14c-7.38.07-15.81-2.67-18.35-11.94,4.9-5.76,2.84-21-3.28-23.44-.3-1.25-.62-2.56-1-4.06a73,73,0,0,0,45.22,0c-.32,1.41-.6,2.61-.9,3.91-3.78,1.48-4.79,5-5.27,8.42a63,63,0,0,0-.11,11.82c.06,1.13,1.2,2.2,2,3.56C282.8,478.9,274.94,481.83,266.82,481.91Zm23.94-29.27c-.65,2.11-1.67,4.1-2.48,6l-1.42-1.9-.62.18c-1.08,3.19.27,6.43.39,9.81-3.68-2.85-1.71-15.73,2.73-18.42A3.82,3.82,0,0,1,290.76,452.64Zm-49.68-17.4c6.11-5.71,44.94-5.78,51.33-.15C285.43,441.38,251.48,442.2,241.08,435.24Zm203-24.42c-2.59,1.41-3.11,3.9-1.66,6.5a11.9,11.9,0,0,0,2.86,3.48c5.28,4.16,11.34,4.19,17.36,2.45a15.44,15.44,0,0,0,6.49-4.28c3-3.21,2.42-6.46-1.35-8.7a9.75,9.75,0,0,1-5-8.07,88.28,88.28,0,0,1-.14-11.5c.08-1.47.89-3.49,2-4.2a21.59,21.59,0,0,0,10.05-14c5.49-4.66,7-14.65,3.23-20.8a12.41,12.41,0,0,1,.45-1.85q1.13-2.86,2.36-5.68c1.26-2.9.64-4.43-2.31-5.59a8.18,8.18,0,0,0-1.7-.54c-4.91-.72-9.79-1.73-14.72-2-9-.53-18-.34-26.78,2.26-4.06,1.21-4.65,2.8-2.91,6.64,1,2.27,1.84,4.63,2.66,6.71-4.17,5.74-2.5,15.93,3.09,20.94,1.7,6.34,4.2,10.22,9.09,13.15a5.92,5.92,0,0,1,3,5.57c0,2.71-.07,5.43,0,8.14C450.2,404.34,448.7,408.29,444.07,410.82Zm33.35-53.45a42.88,42.88,0,0,1-2,4.73l-1.77-1.28c-1.19,3.12.13,5.88.1,8.75-2.89-3.25-1.23-13.56,2.54-16A3.32,3.32,0,0,1,477.42,357.37Zm-43.64-15.49c4.83-5,40.19-5,45-.11C472.92,347.32,442.15,347.94,433.78,341.88Zm5.1,19-1.59,1.43a28,28,0,0,1-2-4.89c-.26-1.18.25-2.54.44-4,4.22,1.71,6,11.12,3.29,16.44C438.81,366.66,440.19,363.89,438.88,360.87Zm1.26,11.82c4.23-5.05,2.44-18.09-3-20.94-.21-.91-.45-1.93-.79-3.35a66.72,66.72,0,0,0,19.86,3.07,62.28,62.28,0,0,0,20.13-3.19c-.34,1.37-.61,2.4-.87,3.44l-.52-.11a23.6,23.6,0,0,0-2.68,3.46c-2.35,4.54-2.49,9.42-1.63,14.33.21,1.14,1.05,2.18,1.74,3.55-1.34,6.46-7.34,9.6-15.7,10.37C449.37,384,442.21,379.18,440.14,372.69Zm20.62,15.74c-.21,4.13-.44,8.45-.66,12.81a7.76,7.76,0,0,1-7.56,0c-.21-4.23-.43-8.56-.64-12.77ZM452,404.15h8.63c.58,3.67,3.22,6.27,6.37,8.35-.12,3.07-4.39,6-8.85,6.3-6.6.38-11.82-2.1-12.53-6.21C448.62,410.43,451.38,408.07,452,404.15ZM298.64,411a3.92,3.92,0,0,0-1.83,5.31,12.56,12.56,0,0,0,2.66,4.09c5.17,5.25,18.19,5.26,23.47-.18l.15-.14c3.74-3.68,3.43-7.26-1-10-2.39-1.5-4.12-3.55-4.33-6.32-.35-4.61-.42-9.24-.33-13.86a4.48,4.48,0,0,1,1.79-3.28,21.14,21.14,0,0,0,10.14-14c5.54-4.63,7.19-14.88,3.1-21,.8-2,1.59-4.33,2.6-6.54,1.82-3.93,1.27-5.78-3-6.69A105.09,105.09,0,0,0,316.24,336c-8.88-.53-17.77-.3-26.39,2.3-3.92,1.18-4.53,2.82-2.84,6.53,1,2.27,1.86,4.63,2.68,6.71-4,5.87-2.4,16.38,3,20.93,1.36,5.64,4.08,10.32,9.13,13.25a5.84,5.84,0,0,1,3,5.38c.07,2.58-.05,5.16,0,7.74C305,404,303.64,408.32,298.64,411Zm33.16-52.76a28.24,28.24,0,0,0-1.61,4.48l-1.5-1.9c-1.67,3.13.07,6.07-.22,9-3-3.75-1.27-14.18,2.73-16.27C332.28,355,332.82,356.35,331.8,358.19Zm-43.49-16.13c5.39-5.17,40.26-5.15,45.51,0a23.22,23.22,0,0,1-2.79,1.33,62.87,62.87,0,0,1-25.7,2.55c-4.84-.51-9.62-1.68-14.4-2.64A12.57,12.57,0,0,1,288.31,342.06Zm5.47,18.75c-.81.62-1.31,1-2.08,1.59.16-3.1-3.7-5.59-.68-8.84,3.78,2.07,5.48,11.57,2.78,15.95C293.67,366.74,295,363.9,293.78,360.81ZM295,372.73c4.16-5.62,2.44-18.12-3-20.94-.26-1-.55-2.05-.92-3.4a66.2,66.2,0,0,0,40,0c-.32,1.32-.55,2.33-.79,3.31-5.41,3.16-7.37,16.73-3,20.82-1.47,7.1-7.79,10.39-15.94,10.75C305.18,383.5,296.73,380.71,295,372.73Zm20.56,15.69c-.22,4.13-.44,8.46-.68,13a8.6,8.6,0,0,1-7.51-.05c-.23-4.4-.46-8.73-.68-12.91Zm-8.76,15.74h8.59c.74,3.92,3.49,6.36,6.46,8.45-.5,3.23-4.74,6-9.09,6.2-6.6.25-11.51-2.09-12.45-6.18C303.36,410.52,306.25,408,306.75,404.16Zm37-153.9a91.91,91.91,0,0,0-16.48,2.12c-3.83.79-4.23,2.43-2.61,6,.89,2,1.57,4,2.26,5.8-3.6,5.12-2.08,14.43,2.77,18.53,1.32,5.34,3.69,9.09,7.71,11.43a5.72,5.72,0,0,1,3,5.38c0,2.45-.06,4.9-.08,7.35,0,4.11-1.33,7.43-5.18,9.57-2.4,1.33-2.95,3.57-1.55,6A10.06,10.06,0,0,0,337,326c5.82,3.46,11.81,3.42,17.72.15a9.75,9.75,0,0,0,2.65-2.36c2.3-2.81,1.85-5.85-1.25-7.68a8.83,8.83,0,0,1-4.55-7.47,74.64,74.64,0,0,1,0-9.92,5.22,5.22,0,0,1,1.78-3.68,19.22,19.22,0,0,0,8.86-12.35c4.86-4.27,6.18-12.69,2.69-18.71l2.6-6.32c1.1-2.68.61-3.94-2-5a14.23,14.23,0,0,0-3.62-1C355.78,251,349.78,250.15,343.79,250.26Zm-13.39,22.3-1.41.92c-.58-1.48-1.17-3-2-5,.16-.52.48-1.54.86-2.74,3.63,2.14,5.05,10.14,2.72,14.35.17-2.63.32-5,.48-7.37ZM351.77,315a28.47,28.47,0,0,0,3.56,3.3c-.67,3.07-4.36,5.28-8.65,5.27-5.94,0-9.46-1.8-10.24-5.36,2.63-2,5.23-4.15,5.69-7.6l7.35.33A28.4,28.4,0,0,0,351.77,315ZM342,296.75h7.75c-.1,1.82-.22,3.72-.32,5.62s-.18,3.81-.26,5.59a6.3,6.3,0,0,1-6.66,0C342.37,304.26,342.19,300.45,342,296.75Zm4-4.66c-5.5.12-12.63-2.13-14.45-9.31,3.82-4.37,2.2-15.78-2.66-18.52-.19-.79-.39-1.67-.67-2.85a59.59,59.59,0,0,0,35.25-.06c-.26,1.06-.48,2-.7,2.84-4.93,3.2-6.45,13.83-2.71,18.59C358.79,289.22,352.54,291.94,346.05,292.09Zm17.05-18.56-1.91-1.15c-1.15,2.64,0,5.11.15,8.12-2.54-4.66-1-13,2.34-14.51C366.21,268.69,363,270.81,363.1,273.53Zm3-17.74a40.73,40.73,0,0,1-4.46,1.68,60.91,60.91,0,0,1-24.19,1.34c-3.12-.49-6.2-1.26-9.29-2a13,13,0,0,1-2.27-1.08C330.41,251.19,360.73,251.06,366.07,255.79Zm74.25-3.42a15.14,15.14,0,0,0-3.07-.82c-4.2-.5-8.41-1.16-12.63-1.33-7.3-.28-14.59,0-21.67,2.07-3.78,1.1-4.25,2.47-2.67,6,.87,2,1.58,4,2.26,5.78-3.56,5.34-2.12,14.29,2.67,18.5,1.7,5.85,3.8,9.12,8,11.61a5.5,5.5,0,0,1,2.86,5.24c0,2.65,0,5.29-.08,7.94-.07,3.85-1.46,6.89-5,8.88-2.49,1.41-3.11,3.59-1.72,6.08a10.2,10.2,0,0,0,3.11,3.51c5.11,3.37,10.65,3.3,16.15,1.16a11.67,11.67,0,0,0,4.35-3.31c2.58-3,2.07-5.68-1.32-7.73-2.32-1.4-3.94-3.32-4.15-6a114.79,114.79,0,0,1-.29-11.88,4.35,4.35,0,0,1,1.7-3.14,18.52,18.52,0,0,0,8.88-12.32c4.87-4.26,6.27-13.17,2.73-18.61.72-1.84,1.43-3.91,2.33-5.88C444.3,254.87,443.82,253.58,440.32,252.37Zm-34.25,20.18-1.44.81c-1.23-.65-1.88-6.06-.79-7.41,3.29,2.05,4.66,9.89,2.29,14.57.22-2.93.41-5.36.59-7.78Zm24.87,45.52c-.63,3.18-4.28,5.44-8.45,5.45-6.09,0-9.68-1.76-10.45-5.36,2.55-2,5.17-4,5.64-7.53h7.56C425.8,313.91,428.21,316.23,430.94,318.07Zm-13.36-21.34h7.81c-.17,3.64-.34,7.42-.51,11.15-1.84,1.29-4.11,1.4-6.62.24C418,304.4,417.81,300.55,417.58,296.73Zm4.32-4.59a14.33,14.33,0,0,1-14.66-9.21c3.65-5.42,2.24-15.75-2.65-18.69l-.76-2.86a60.16,60.16,0,0,0,35.3,0c-.28,1.18-.46,1.95-.62,2.67-5,3.56-6.53,14.17-2.8,18.64C434.48,288.89,428.85,291.58,421.9,292.14Zm16.54-18.71-2.06-1.2c.14,2.85.25,5.2.36,7.56-2.35-3.58-.79-12.19,2.74-13.87l.92,2.5C439.66,270.31,439.06,271.83,438.44,273.43Zm-37.19-18.14c1.67-.6,3-1.39,4.4-1.53,6.51-.61,13-1.33,19.55-1.42,4.13-.06,8.29.85,12.41,1.47a25.5,25.5,0,0,1,4.23,1.5C433.51,260.72,408.6,260.5,401.25,255.29Zm-45.7-129.42H415V76.18H355.55Zm4.29-45.49h51v41.2h-51Zm30.52,137A16.68,16.68,0,0,0,398,206.6c4.25-3.72,5.4-11,2.47-16.58.62-1.53,1.29-3.32,2.06-5.06,1.22-2.79.78-3.92-2.11-5a8,8,0,0,0-2.09-.62c-5.73-.48-11.47-1.28-17.2-1.23a69.48,69.48,0,0,0-13.73,1.82c-3.35.72-3.71,2.14-2.31,5.27.75,1.68,1.37,3.42,2,4.91-3,5.3-1.83,12.71,2.46,16.5.84,3.68,2.39,7.22,5.68,9.19s4,4.42,3.77,7.77c-.11,1.32-.08,2.65-.08,4,0,3.76-1.1,6.83-4.64,8.79a3.19,3.19,0,0,0-1.37,4.77,9.63,9.63,0,0,0,3.17,3.66,14.52,14.52,0,0,0,14.6.49,9.85,9.85,0,0,0,3.3-2.76c2-2.52,1.53-4.86-1.19-6.51a7.91,7.91,0,0,1-4-6.69,65.78,65.78,0,0,1,0-8.54A4.78,4.78,0,0,1,390.36,217.4Zm8.58-19-2.2-.94c.16,2.38.29,4.38.44,6.66-1.85-4.14-.68-10.49,2.16-12.17C401.74,194.28,398.78,196.13,398.94,198.43ZM366.3,182.65c4.72-3.87,30.14-3.88,35.06.06C394.41,187.47,371,186.88,366.3,182.65Zm3.86,15-1.42.84c-.05-2.28-2.64-4.09-.68-6.49,3,1.22,4.38,8.43,2.27,12.13l.49-6.26Zm21.73,40.57c-.36,2.06-3.15,4-6.54,4.22-5.25.35-8.77-1.24-9.74-4.14l5.63-7.08h5.06ZM380.43,219h6.73c-.15,3.15-.32,6.48-.48,9.89a5.66,5.66,0,0,1-5.76,0C380.75,225.56,380.59,222.27,380.43,219Zm3.73-4.11c-4.61.18-11.67-2-12.84-8.11,3.15-4.57,1.89-13.64-2.44-16.45-.17-.74-.32-1.43-.53-2.42a51.89,51.89,0,0,0,30.79,0l-.41,2.28c-4.39,3.16-5.72,12.32-2.49,16.41C395.38,212.11,389.64,214.65,384.16,214.86Zm90-64.35a8.38,8.38,0,0,1-3.87-6c-1-6.68-2.08-13.35-3.15-20a19.14,19.14,0,0,0-.56-1.9c-.24.88-.37,1.23-.43,1.6-1,6.47-2.18,12.93-3.06,19.43-.44,3.3-1.84,5.84-4.78,7.29a64.14,64.14,0,0,1-8.08,3.22,53.09,53.09,0,0,1-5.68,1.25,9.85,9.85,0,0,0,2.75.81,31.59,31.59,0,0,1,11.34,4,8.87,8.87,0,0,1,4.39,6.71c.57,4.33,1.3,8.64,2,13,.43,2.68.9,5.35,1.36,8a1.58,1.58,0,0,0,.71-1.09c1.07-6.67,2.2-13.33,3.16-20a7.92,7.92,0,0,1,3.82-6.18,41.82,41.82,0,0,1,7-3.22c2.38-.83,4.92-1.22,7.38-1.81a5.05,5.05,0,0,0-2.06-.7C482.11,154.15,477.91,153,474.21,150.51ZM386.26,654.88a33.37,33.37,0,0,0,2.12-5.55,88.13,88.13,0,0,0,2-25c-.08-1.65,0-3.69-2.31-3.66s-2.23,2.12-2.28,3.73c-.15,4.62-.05,9.26-.28,13.89a58.42,58.42,0,0,1-1.16,10.41c-.71,3-2,6.11-5.69,6.92-3.83-1.89-5-5.14-5.26-8.77-.47-6.93-.73-13.88-1.11-20.81a8.37,8.37,0,0,0-.57-3.1,2.79,2.79,0,0,0-1.95-1.49c-.66,0-1.36,1-1.87,1.66a3.44,3.44,0,0,0-.25,1.55,103.14,103.14,0,0,0,.47,23.56,16.52,16.52,0,0,0,3.18,8C374.51,660.38,383.18,661.86,386.26,654.88ZM402,647.75c6.53-2.61,11.2-6.74,13.43-13.39a9.9,9.9,0,0,0-1.79-10.22c-2.56-3-6-3.65-9.76-3-1.39.23-2.8.33-4.53.54-1.1,1.15-2.55,2.55-3.86,4.08a4.31,4.31,0,0,0-1,2.29,7.52,7.52,0,0,0,.82,2.52l2-1.74c-.21,7.26-.44,14.39-.61,21.52-.05,2.12,0,4.24.14,6.35a2.45,2.45,0,0,0,2.55,2.51,2.51,2.51,0,0,0,2.62-2.46,22.62,22.62,0,0,0,.05-3Zm.09-22.13c4.67-1.8,8.32-.36,9.05,3.84a9.72,9.72,0,0,1-.92,4.93c-1.48,3.69-4.23,6.26-8.13,8.29Zm26.56,10.32a19.06,19.06,0,0,1-4.24-4.63c-1.74-2.71-1.08-4.82,1.8-6.91,2.53.36,4.36,1.51,5.07,4.08a2.44,2.44,0,0,0,2.48,2.2c.46,0,1.05-.78,1.21-1.32a6.63,6.63,0,0,0-2.72-7.32c-4.86-3.24-9.79-2-12.05,3.36a12.28,12.28,0,0,0-.44,6.52c.63,3.52,3.07,6,5.78,8.29,3.2,2.67,5.11,6.08,4.78,10.4a4.25,4.25,0,0,1-4.45,4.33c-3.15.1-4.34-.87-4.88-4a4,4,0,0,0-.25-1.36c-.4-.69-.85-1.67-1.46-1.82a2.56,2.56,0,0,0-2.21.83,5.89,5.89,0,0,0-1.1,3.07,7.85,7.85,0,0,0,6.33,7.84c7.41,1.17,12.39-2.64,12.67-9.94A15.7,15.7,0,0,0,428.64,635.94ZM269.72,290.43c-2,.7-4.07,1.12-6.11,1.68-.39.11-.76.26-.89.31,3.15,1.14,6.42,2.15,9.54,3.52a6.2,6.2,0,0,1,3.76,5.45c.22,2.37.71,4.71,1.1,7.06q.69,4.16,1.4,8.29H279c.13-.6.29-1.21.39-1.82.68-4.11,1.61-8.21,1.93-12.36.33-4.33,2.8-6.54,6.48-7.85,2-.71,4.06-1.14,6.1-1.71.38-.1.75-.25,1-.33-3.05-1.07-6.15-2-9.11-3.24a6.43,6.43,0,0,1-4.17-5.18c-.41-2.88-.86-5.76-1.32-8.63-.39-2.42-.81-4.84-1.22-7.26a1.56,1.56,0,0,0-.75,1.1c-.7,4.31-1.67,8.6-2,13S273.5,289.11,269.72,290.43ZM481.57,568.91c-.74-.21-1.23-.31-1.69-.47-2.81-.94-5.69-1.72-8.39-2.89a6.34,6.34,0,0,1-3.78-5.43c-.62-4.72-1.46-9.41-2.23-14.11a8.13,8.13,0,0,0-.43-1.32,92.13,92.13,0,0,0-2.59,14.11c-.35,4.31-2.69,6.59-6.37,7.93-1.91.7-3.92,1.15-5.89,1.7-.53.14-1.07.25-2,.47,2.57.68,4.7,1.14,6.76,1.8,4.27,1.35,7.53,3.63,7.52,8.72a10.71,10.71,0,0,0,.27,1.76q1,6,1.94,11.9l.49,0c.13-.5.29-1,.37-1.49.69-4.18,1.64-8.34,2-12.54.34-4.52,3-6.73,6.78-8.06C476.53,570.17,478.91,569.65,481.57,568.91Zm-120,84.33a2.85,2.85,0,0,0-.46-2.72,3.87,3.87,0,0,0-3,.19c-.71.29-1.12,1.25-1.73,1.87-3.38,3.44-7.45,3.1-9.58-1.21a25.87,25.87,0,0,1-2.55-8.85,18.8,18.8,0,0,1,4.13-14.31c2.87-3.41,6.44-3.35,9.32,0,.83.94,1.48,2.06,2.39,2.9a2.14,2.14,0,0,0,1.93.38,2.39,2.39,0,0,0,.89-1.74,4,4,0,0,0-.5-1.89c-3.15-7.28-11.57-8.37-17-2.14-4,4.56-5.37,10.07-5.63,15.83.16,5.4,1,10.46,4.7,14.53C350.24,662.3,358,659.78,361.6,653.24Zm100.09-10.06a28.4,28.4,0,0,0,5.26-.92c1.78-.5,4-.75,4.25-3.21.17-1.5-1.4-2.9-4.25-3.5-3.07-.64-6.21-1-9.42-1.46a15.73,15.73,0,0,0,1.38-3.51c.15-1.05,0-2.58-.63-3.19a3.67,3.67,0,0,0-3.23-.41,16.23,16.23,0,0,0-4.46,2.86c-7.24,6.31-5,19.13,3.87,22.83l.56.2a2.58,2.58,0,0,0,3.47-2.45,9.47,9.47,0,0,0-.56-3.28,39.64,39.64,0,0,0-1.8-3.92C458.14,643.22,459.93,643.34,461.69,643.18Zm-5.54-14c0,3.59-2.31,5.71-6.71,6.14A13,13,0,0,1,456.15,629.22Zm-.95,20.33c-2.58-1.78-4.3-4.28-5.91-7.48l3.75.85c.89,2,1.82,4.14,2.76,6.26ZM449,639a30.46,30.46,0,0,1,18.65.17A31.62,31.62,0,0,1,449,639ZM425.5,697.65c-3.16-.64-6.37-1-9.73-1.56a13.19,13.19,0,0,0,1.31-3.24c.16-1.13.17-2.83-.5-3.38a4.08,4.08,0,0,0-3.58-.36,14.27,14.27,0,0,0-8.35,9.29c-1.48,5.25,2.83,13.9,7.9,16.2,2.4,1.09,4.38-.15,4.2-2.78a15.11,15.11,0,0,0-1-3.79,17.89,17.89,0,0,0-1.15-2.32c3.72-.5,7.33-.85,10.89-1.52,1.74-.33,4-.8,3.93-3.21C429.35,698.74,427.33,698,425.5,697.65Zm-10.91-6.5c-.82,4-2.3,6.22-6.87,6.24A13,13,0,0,1,414.59,691.15Zm-1.12,20.42c-2.61-1.78-4.32-4.31-5.93-7.48l3.76.83c.9,2.07,1.83,4.2,2.75,6.33Zm-6.55-10.77a37.52,37.52,0,0,1,19.34.11C423.28,703.17,410.4,703.08,406.92,700.8ZM344.09,49.59A13,13,0,0,0,348.38,51c2.45.41,4.94.58,7.56.87-.47,1.07-.95,2.06-1.34,3.09-.49,1.33-.83,2.72.43,3.85s2.63.82,3.9.13c4.66-2.51,8.35-6.07,8.41-11.61.07-6-3.26-10.62-8.28-13.78-2.2-1.38-4.42.12-4.14,2.72a23.55,23.55,0,0,0,1.52,4.86,17.1,17.1,0,0,0,.83,1.67,25.14,25.14,0,0,0-3.61,0,88.42,88.42,0,0,0-9.29,1.76,3.52,3.52,0,0,0-2.06,2.48C342.23,47.87,343.24,49.1,344.09,49.59ZM357,56.79c.32-2.33,1.62-3.88,3-5.43l3.71-.75C363,53.15,360,56,357,56.79Zm1.22-20.24A18.76,18.76,0,0,1,364.1,44l-3.74-.84c-.88-2-1.83-4.12-2.77-6.24Zm6.55,10.75a37.63,37.63,0,0,1-19.34-.09C348.33,44.94,361.2,45,364.74,47.3ZM357.67,689a3.94,3.94,0,0,0-3.41.43c-.65.54-.71,2.14-.55,3.2a15.78,15.78,0,0,0,1.33,3.43c-3.33.52-6.54.91-9.7,1.56-1.82.37-3.84,1.09-3.9,3.35s2.07,2.81,3.77,3.13c3.62.69,7.29,1.08,11,1.6a48.27,48.27,0,0,0-1.9,4.53c-.48,1.54-.63,3.24,1,4.31s3.09.37,4.16-.72a39.65,39.65,0,0,0,5.17-6.2C369.83,699.49,364,691.79,357.67,689Zm-.3,22.52-.56-.29,2.71-6.32,3.79-.84C361.71,707.25,360,709.78,357.37,711.55Zm-12.71-9.92c2.66-2.45,15-2.7,19.44-.36A41.42,41.42,0,0,1,344.66,701.63Zm11.67-10c2.23.08,4.59,2.06,6.77,5.79C358.67,697.36,357.2,695.35,356.33,691.58ZM172.71,340.4a40.18,40.18,0,0,0,6.74,5.41c8,4.81,15.69-1.45,18.1-7.48a3.62,3.62,0,0,0-.52-3.21c-.63-.64-2.16-.7-3.22-.53a16.57,16.57,0,0,0-3.53,1.38c-.33-2.78-.51-5.42-1-8a12.72,12.72,0,0,0-1.67-4.39c-1.27-2-3.28-1.8-4.38.26a9.78,9.78,0,0,0-1.14,3.15c-.49,3.36-.83,6.75-1.23,10.12a47.65,47.65,0,0,0-4.54-1.91c-1.54-.48-3.23-.69-4.34.89S171.55,339.31,172.71,340.4Zm17.09-.61,4.86-3,.47.57c-.89,3.1-3.27,4.92-6.2,6.81C189.24,342.61,189.48,341.4,189.8,339.79Zm-4.25-14.42a37.93,37.93,0,0,1,.21,19.33C183.47,341.78,183.28,328.91,185.55,325.37Zm-10.31,12.31,6.3,2.71c.3,1.26.54,2.27.9,3.8-3.19-1.58-5.71-3.3-7.5-6ZM316.66,651.33a3,3,0,0,0,4-.53,40.3,40.3,0,0,0,5.45-6.45c5.16-8.18-.76-15.84-7-18.55a3.89,3.89,0,0,0-3.4.48c-.64.55-.68,2.15-.52,3.21a19.52,19.52,0,0,0,1.5,3.81,20,20,0,0,0-3,0,65.27,65.27,0,0,0-8.49,1.78A3.85,3.85,0,0,0,303,638c0,.82,1.41,1.77,2.32,2.51a3.76,3.76,0,0,0,1.86.64c3.45.48,6.91.9,10.44,1.34-.62,1.52-1.42,3.17-1.95,4.92C315.24,648.79,315.23,650.33,316.66,651.33Zm1.58-3.32,2.71-6.24,3.38-.81A11.18,11.18,0,0,1,318.24,648ZM318,628.12c3,1,4.88,3.3,6.81,6.26l-4.51-.91-2.9-4.91ZM306.17,638c3.82-2.11,15.37-2.19,18.86-.22C322,639.78,310,640,306.17,638ZM182.54,407.1c.29,1.53,1,3.26,3,3.21s2.65-1.76,3.2-3.33a17.36,17.36,0,0,0,.83-3.47c.29-2.22.45-4.46.69-6.93a16.66,16.66,0,0,0,3.56,1.43c1.06.16,2.66.14,3.21-.5a3.85,3.85,0,0,0,.5-3.38,14.77,14.77,0,0,0-9.47-8.66c-5.73-1.79-12.77,3.12-15.55,7-.88,1.21-1.51,2.58-.52,4s2.5,1.42,3.94,1a37.05,37.05,0,0,0,3.84-1.54l1-.43C181.31,399.45,181.8,403.3,182.54,407.1Zm12.28-11.23-5-3-.87-4.22C192.42,390.29,195,393.34,194.82,395.87Zm-9.69-8.07c2.35,3.35,2.27,15.78-.14,19.43A40.66,40.66,0,0,1,185.13,387.8Zm-9.83,7.13-.59-.93,7.06-5.62c.19.13.37.27.55.41-.23,1-.46,2.07-.74,3.37Zm413.22-68.75c-.34-1.74-.83-4-3.26-3.85-2.22.12-2.92,2.13-3.28,4-.62,3.15-1,6.35-1.54,9.69-1-.43-1.9-.91-2.88-1.27-1.33-.5-2.72-.88-3.86.35s-.84,2.74-.14,4.07a15.37,15.37,0,0,0,8.05,7.57,10.59,10.59,0,0,0,4.24.73c4.95-.2,8.59-3,11.87-6.4a6.77,6.77,0,0,0,1.35-2.17c.88-2.13-.33-4.06-2.62-3.86a22.26,22.26,0,0,0-4.89,1.4,10,10,0,0,0-1.48.76C589.57,333.43,589.21,329.77,588.52,326.18Zm-12.89,11.29.51-.65L581,339.7c.31,1.51.57,2.78.9,4.42C578.92,342.41,576.78,340.41,575.63,337.47Zm9.8,7a30.32,30.32,0,0,1,.12-18.63A31.72,31.72,0,0,1,585.43,344.44Zm10.11-6.77c.13.2.25.4.37.6-1.75,2.59-4.27,4.28-7.47,5.92.33-1.46.55-2.46.84-3.75ZM414.39,59.26c2.58.94,4.4-.85,3.69-3.5a41.15,41.15,0,0,0-1.6-4c.66,0,1.06,0,1.44-.07,3.32-.55,6.68-.93,9.91-1.79A4.19,4.19,0,0,0,430.16,47c.33-1.5-1.13-2.36-2.45-2.64-3-.65-6.09-1.13-9.15-1.59a23.44,23.44,0,0,0-3.25,0c.78-1.9,1.58-3.5,2.09-5.19.45-1.49.47-3.11-1.08-4.1a3.06,3.06,0,0,0-4,.68,41.91,41.91,0,0,0-5.69,7C401.83,49.39,408.6,57.16,414.39,59.26ZM415,36.48l-2.91,6.68-3.3.77C409.15,41.51,412.22,37.62,415,36.48Zm11.7,10.38a30.14,30.14,0,0,1-18.62.21A31.76,31.76,0,0,1,426.72,46.86Zm-11.35,10c-3.3-1.14-5.14-3.45-6.9-6C412.38,50.63,414.33,52.11,415.37,56.91ZM598.11,392.15a41,41,0,0,0-6.94-5.48c-8.14-4.73-15.9,2.05-18,7.83-.92,2.57.88,4.38,3.53,3.65a37.63,37.63,0,0,0,4-1.57c0,.75,0,1.4.12,2,.38,2.68.66,5.38,1.24,8,.38,1.74,1.13,3.65,3.3,3.68s2.76-2,3.07-3.59c.69-3.68,1.12-7.41,1.66-11.16a46.33,46.33,0,0,0,4.3,1.83c1.6.51,3.36.77,4.51-.91S599.27,393.23,598.11,392.15Zm-17.07.7c-1.49.89-3.22,1.9-4.95,2.92-.15-.21-.3-.41-.44-.62,1.09-3,3.29-4.93,6.25-6.69C581.61,390,581.37,391.2,581,392.85Zm4.88,14.37c-2.45-3.41-2.58-15.82-.27-19.41C587.48,394.35,587.26,400.58,585.92,407.22Zm9.68-12.29-6.3-2.74c-.29-1.25-.52-2.27-.87-3.77,3.17,1.59,5.71,3.29,7.48,6Zm-9.69,302.65c-1.92-2.5-4-4.87-6-7.29,1.52-.65,3.27-1.27,4.89-2.12,1.41-.73,2.5-1.87,2.1-3.66a3,3,0,0,0-3.3-2.32,42.55,42.55,0,0,0-9,1.06c-9,2.38-9.82,12.41-7.12,18.25,1.15,2.5,3.69,2.53,5.06.16a31.43,31.43,0,0,0,1.67-4c2,1.59,3.92,3.32,6,4.73a14.39,14.39,0,0,0,4.84,2.11c2.2.46,3.44-1.13,2.71-3.26A12.86,12.86,0,0,0,585.91,697.58ZM584,685.64l-6.95,2.87-3-1.94A13.69,13.69,0,0,1,584,685.64Zm-14.17,15c-1.61-3.1-1.32-6.12-.67-9.44C572.74,694.88,571.87,697.34,569.85,700.59ZM571.38,688c6,3.27,10.36,7.81,14.16,13.45C581.46,700.87,572.38,692.22,571.38,688ZM189.78,55.51a25.88,25.88,0,0,0,2.16,2.26c-1.71.71-3.39,1.3-5,2.11-1.4.72-2.54,1.81-2.2,3.62s1.87,2.36,3.42,2.46c4.76.3,9.16-.41,13.23-3.42,4.83-3.56,4.82-12.81,2.53-16.35-1.27-2-3.42-2-4.66,0a32,32,0,0,0-1.92,4.36,11,11,0,0,0-.93-.84c-2.73-1.95-5.37-4.06-8.26-5.73a4.48,4.48,0,0,0-3.82.25c-1.31.79-.87,2.48-.13,3.59C186,50.46,187.88,53,189.78,55.51Zm-1.4,7.82-.27-1,6.39-2.68,1.69,1,1.33.82c0,.23,0,.45,0,.68Zm13.46-15.84c1.54,3.16,1.29,6.17.67,9.29C199.46,53.83,199.2,50.89,201.84,47.49Zm-1.58,12.15c-3.34-.27-12.71-9.14-13.72-13.11C191.09,48.16,198.8,55.6,200.26,59.64ZM580,65.91a16.26,16.26,0,0,0,5.86-.41c2.19-.6,2.63-3,1-4.55a12.46,12.46,0,0,0-3.15-2,24.84,24.84,0,0,0-3-1.05,38.52,38.52,0,0,0,2.63-3,70.19,70.19,0,0,0,5.2-7.89c1.14-2.19-.3-3.81-2.77-3.45a7.31,7.31,0,0,0-2.94,1.08c-2.66,1.81-5.23,3.77-7.84,5.67a15.16,15.16,0,0,0-1.39-3.47c-.61-.88-1.78-2-2.64-1.93A3.9,3.9,0,0,0,568.15,47a14.23,14.23,0,0,0,.51,12.8C571.09,64.15,575.42,65.42,580,65.91Zm4.58-3.61c-2.08,1.22-5.58.94-9.93-.63l3.24-2.05Zm1.16-16c-.07,3.27-9.11,12.18-14,13.64A38,38,0,0,1,585.71,46.33Zm-15.18,1.14c2.65,3.17,2.41,6.21-.55,9.32A14.29,14.29,0,0,1,570.53,47.47ZM201.42,686.2c-3.93-3.62-8.83-4.48-14-4.06-1.55.12-3.08.6-3.45,2.43s.76,2.91,2.16,3.64c1.62.83,3.36,1.44,5.15,2.19L190,691.59c-2.85,2.71-5.44,5.63-6.85,9.37-.92,2.46.35,4.12,2.88,3.53a15.72,15.72,0,0,0,5-2.34c2-1.33,3.78-3,5.75-4.56a25.56,25.56,0,0,0,.89,2.72c.64,1.45,1.25,3.08,3.24,3s2.69-1.6,3.07-3.16a22.55,22.55,0,0,0,.73-5.28C204.66,691.63,203.88,688.46,201.42,686.2Zm-14.11-.31.17-.7c3.17-.59,6.22.19,9.69,1.17l-3.37,2.12Zm-1.51,15.52c.82-3.51,9.38-11.8,13.52-13.1C198.79,691.83,189.8,700.55,185.8,701.41Zm15.31-.83c-2.6-2.89-2.38-6,.56-9.33A14.06,14.06,0,0,1,201.11,700.58ZM378.33,57.27a2.75,2.75,0,0,0,2.28.51c.49-.21.85-1.4.77-2.1-.35-3.36,1.24-6,4.66-7.21,3.8,1.18,5.43,3.62,4.92,7.34-.18,1.28.2,2.24,1.53,2.17a3.83,3.83,0,0,0,2.15-1.2,11,11,0,0,0,2.27-12,11.46,11.46,0,0,0-10.45-7.33c-4.39-.27-9,2.9-10.85,7.08C373.73,49,374.87,54.56,378.33,57.27ZM381.41,43a7.23,7.23,0,0,1,9.17-.23,6.83,6.83,0,0,1,2.9,8.23C390,43.63,383,43.15,379,50.83A6.74,6.74,0,0,1,381.41,43Zm12,648a3,3,0,0,0-2.43-.63c-.47.18-.79,1.51-.71,2.28.33,3.34-1.56,6-5.2,7-3.47-1.45-4.85-3.82-4.48-7.33.06-.62-.18-1.64-.6-1.86a2.94,2.94,0,0,0-2.15.12,4.45,4.45,0,0,0-1.44,1.34,11.48,11.48,0,1,0,18.42,13.7C398.1,701,397.5,694.38,393.46,691Zm-3.14,14c-3.15,2.41-6.34,2.56-9.33.46a7,7,0,0,1-2.87-8.09c4.45,7.93,11.12,6.89,14.57,0A6.55,6.55,0,0,1,390.32,705ZM576.57,371.07a2.29,2.29,0,0,0-1.84.69,3,3,0,0,0,.11,2c.11.4.56.72.89,1a11.46,11.46,0,0,0,16.09-16.29c-4.47-4.88-12.54-5-16.55-.18a3.12,3.12,0,0,0-.54,2.45c.1.4,1.41.74,2.13.66,3.19-.33,5.74,1.21,7.13,4.57C582.94,369.85,580.5,371.43,576.57,371.07Zm5.07-12a6.7,6.7,0,0,1,7.7,2.23,7.28,7.28,0,0,1,.5,9.16,7,7,0,0,1-8.37,3.12C589.19,369.8,589,362.81,581.64,359.08Zm-387.42,2.44c.62.07,1.64-.19,1.85-.62a2.93,2.93,0,0,0-.15-2.16,4.49,4.49,0,0,0-1.33-1.43,11.49,11.49,0,1,0-13.68,18.45c4.57,3.22,11.22,2.61,14.63-1.44a2.94,2.94,0,0,0,.61-2.43c-.2-.48-1.52-.77-2.29-.7-3.34.34-6.05-1.58-7-5.11C188.08,362.66,190.59,361.15,194.22,361.52Zm-5.05,12c-2.11,1.09-5.2.41-7.07-1.57-2.68-2.82-3.2-6.41-1.39-9.45A7.36,7.36,0,0,1,189.4,359C181.71,362.94,181.85,369.94,189.17,373.47ZM484.76,262.08c-.58,3.69-1.32,6.93-1.53,10.21-.28,4.24-2.76,6.18-6.46,7.19l-4.24,1.14c2.15.63,3.82,1,5.43,1.59,2.88,1,5,2.64,5.08,6.06a19.5,19.5,0,0,0,.44,2.94q.63,3.82,1.28,7.63l.53,0c.58-3.64,1.3-7.25,1.69-10.91a5.79,5.79,0,0,1,3.77-5.12c2-.84,4.11-1.4,6.44-2.17-2.14-.66-4.1-1.16-6-1.89a6.1,6.1,0,0,1-4.28-5.61c-.28-3.35-1-6.67-1.54-10C485.36,262.87,485.13,262.67,484.76,262.08Zm-200.11-101c.42,3.66,1.12,7.29,1.71,10.93h.58c.57-3.57,1.3-7.13,1.66-10.72a5.86,5.86,0,0,1,3.85-5.28c2-.82,4.07-1.42,6.41-2.21-1.86-.51-3.52-.86-5.09-1.43-3-1.08-5.06-2.82-5.24-6.42a79.73,79.73,0,0,0-1.42-9,7.78,7.78,0,0,0-.38-1.12,64.77,64.77,0,0,0-2,10.57,6.24,6.24,0,0,1-4.31,5.61c-1.47.59-3,.92-4.55,1.37l-1.48.44c2.34.78,4.44,1.38,6.45,2.19A5.75,5.75,0,0,1,284.65,161.09ZM518.42,384.86c.19,1.18.42,2.34.62,3.52s.42,2.58.63,3.88l.5,0c.47-2.91,1-5.81,1.36-8.73a4.76,4.76,0,0,1,2.86-4.19c1.73-.77,3.57-1.3,5.8-2.09-.81-.18-1.18-.29-1.55-.35-4.89-.81-6.44-2.31-7.26-7.06q-.61-3.65-1.25-7.3a40,40,0,0,0-2,8.85c-.23,2.45-1.65,3.65-3.63,4.45-1.43.58-2.95,1-4.78,1.54,1,.32,1.65.56,2.32.72C516.62,379.15,517.67,380.27,518.42,384.86Zm-258.48,7.63a24,24,0,0,0-.78-4.38,18.09,18.09,0,0,0-1.25,5.16,4,4,0,0,1-3.16,3.63l-1.85.59-.3.53c4.6.07,5.41,3.12,5.73,6.57.08.84.31,1.67.47,2.5.76-2,.6-4.33,1.54-6s3-2.54,4.42-3.71a4.86,4.86,0,0,0-.62-.2C261.71,396.55,259.94,395.42,259.94,392.49ZM399.36,564.94l-.48,0c-.3,1.7-.73,3.39-.87,5.1-.17,2-1.35,2.92-3,3.51-.72.27-1.48.44-2.23.66.1.12.17.26.27.31a4,4,0,0,0,.92.35,4.74,4.74,0,0,1,4.25,4.88,39.39,39.39,0,0,0,.66,4.13l.49,0c.33-2.06.17-4.4,1.14-6.09s3.05-2.59,4.46-3.69c-3.7-.77-4.37-1.46-5-5.5C399.74,567.35,399.55,566.15,399.36,564.94Zm29.42-347.81c3.36.51,4.88,2.47,4.89,5.84a15.33,15.33,0,0,0,.68,3.21,5.55,5.55,0,0,0,.87-2.77c0-3.52,1.47-5.78,5.09-6.38.08,0,.12-.19.24-.37-.39-.14-.74-.3-1.12-.4-2.3-.62-3.9-1.75-3.95-4.47a28.57,28.57,0,0,0-.76-4.53,3,3,0,0,0-.76,1.81c-.43,3.64-.81,7.3-6.12,7.45C428.46,216.93,428.61,217.11,428.78,217.13Zm159.36,217.4c-1.51,0-2.13,1.05-2.22,2.46s.76,2.28,2,2.1c.92-.14,1.72-1.08,2.57-1.67C590.13,435.58,589.61,434.53,588.14,434.53Zm-405.31,4.61c1.24,0,2.13-.59,2.1-2.45a2.11,2.11,0,0,0-2.1-2.16c-1.46-.07-2.07.9-2.09,2.28A2,2,0,0,0,182.83,439.14Zm1.45-13.74c-.44-.52-2-.85-2.33-.52a3.45,3.45,0,0,0-1,2.61c.21,1.6,1.56,1.72,3.19,1.39A2.35,2.35,0,0,0,184.28,425.4ZM587.73,313.11c.67.45,1.91.08,2.78.08.67-3.5-.16-4.36-3.18-3.79C586.37,310.82,586.47,312.24,587.73,313.11ZM184.89,313a2.49,2.49,0,0,0,.16-3.63c-1.42-.37-2.81-.49-3.22,1.06a3.52,3.52,0,0,0,.67,2.76C182.82,313.55,184.39,313.43,184.89,313ZM589.67,424.89c-.88,0-2.13-.28-2.78.21-1.22.9-1.34,2.31-.3,3.71C589.61,429.3,590.43,428.39,589.67,424.89ZM184.81,446.54a2,2,0,0,0-4,0c-.49,1.45.46,2.31,2,2.68C184.32,448.84,185.29,448,184.81,446.54ZM588,444.91a2.75,2.75,0,0,0-2,1.65c-.46,1.43.49,2.3,2,2.65,1.51-.38,2.46-1.25,2-2.69A2.78,2.78,0,0,0,588,444.91ZM332.1,702.64a1.89,1.89,0,0,0-2.06,2.13c0,1.25.6,2.15,2.75,2.12.29-.38,1.21-1.06,1.32-1.86A2,2,0,0,0,332.1,702.64ZM441.61,43.19c-.08-1.25-.79-2.24-2.17-1.92a8.52,8.52,0,0,0-2.31,1.44c0,.33,0,.65,0,1,.85.6,1.66,1.56,2.58,1.7C441,45.6,441.69,44.46,441.61,43.19ZM332.88,45.47a2,2,0,0,0,2-2.39c-.11-.79-1-1.48-1.3-1.86-2.15,0-2.76.85-2.77,2.11A1.9,1.9,0,0,0,332.88,45.47ZM438.77,702.64a2,2,0,0,0-2,2.37c.12.8,1,1.49,1.3,1.87,2.14,0,2.75-.84,2.77-2.09A1.89,1.89,0,0,0,438.77,702.64ZM460.33,45.7c.54-.76,1.4-1.48,1.53-2.31a1.69,1.69,0,0,0-2-2c-.79.17-1.91,1.2-1.95,1.9s.95,1.64,1.5,2.46ZM588,524.43a1.69,1.69,0,0,0-2,2.07,2.91,2.91,0,0,0,1.9,1.93c.78.06,1.63-.91,2.45-1.44l0-1C589.61,525.47,588.86,524.55,588,524.43ZM480.12,45.72c.57-.75,1.46-1.43,1.62-2.26a1.69,1.69,0,0,0-2-2.11,2.89,2.89,0,0,0-2,1.83c-.08.79.89,1.67,1.41,2.51Zm10.16,0c.49-.84,1.33-1.66,1.39-2.53a1.68,1.68,0,0,0-2.19-1.81,2.91,2.91,0,0,0-1.79,2c0,.78,1,1.56,1.63,2.34Zm9.92,0c.5-.83,1.34-1.64,1.41-2.5a1.68,1.68,0,0,0-2.18-1.83,2.91,2.91,0,0,0-1.8,2c0,.78,1,1.57,1.61,2.35Zm8.75,0,.94.06c.58-.79,1.62-1.59,1.61-2.37a3,3,0,0,0-1.86-2,1.68,1.68,0,0,0-2.12,1.93C507.6,44.12,508.45,44.88,509,45.67Zm-326.14,453a1.67,1.67,0,0,0,2-2c-.17-.88-1.05-1.63-1.61-2.44l-.93,0c-.5.84-1.44,1.71-1.38,2.5A2.82,2.82,0,0,0,182.81,498.65Zm404-277.23a1.7,1.7,0,0,0,1.76,2.25c.87,0,1.71-.87,2.56-1.35l.06-1c-.76-.6-1.52-1.66-2.3-1.68A2.93,2.93,0,0,0,586.84,221.42Zm-47-175.72c.52-.78,1.38-1.51,1.49-2.34a1.69,1.69,0,0,0-2-2c-.79.18-1.89,1.23-1.92,1.93s1,1.62,1.53,2.43ZM183.5,84.52a1.69,1.69,0,0,0,2.12-1.91c-.11-.88-1-1.67-1.48-2.5l-.93,0c-.55.81-1.54,1.63-1.51,2.41A2.85,2.85,0,0,0,183.5,84.52Zm403.34-2.16a1.69,1.69,0,0,0,1.85,2.17c.86-.07,1.66-.94,2.49-1.45l0-1c-.79-.57-1.59-1.59-2.37-1.57A2.87,2.87,0,0,0,586.84,82.36ZM185.61,92.44a2.9,2.9,0,0,0-1.87-2c-.77-.08-1.65.88-2.48,1.39l0,1c.79.57,1.52,1.5,2.38,1.64A1.69,1.69,0,0,0,185.61,92.44ZM588.74,174c.86-.1,1.64-1,2.45-1.52v-1c-.8-.55-1.63-1.55-2.41-1.52a2.9,2.9,0,0,0-1.95,1.88A1.68,1.68,0,0,0,588.74,174Zm-405.11,9.94a1.69,1.69,0,0,0,2-2,2.89,2.89,0,0,0-1.89-1.94c-.78-.07-1.64.9-2.47,1.41l0,1C182,182.87,182.77,183.79,183.63,183.92ZM588,627.82c.78,0,1.63-.93,2.45-1.45,0-.32,0-.64,0-1-.8-.56-1.56-1.47-2.42-1.59a1.69,1.69,0,0,0-2,2.08A2.91,2.91,0,0,0,588,627.82Zm-403.14-1.88a1.68,1.68,0,0,0-1.9-2.12c-.87.09-1.64,1-2.46,1.52v1c.8.55,1.63,1.54,2.4,1.51A2.91,2.91,0,0,0,184.81,625.94Zm-1.18-436.08c-.78,0-1.59,1-2.39,1.53,0,.33,0,.65,0,1,.82.53,1.61,1.41,2.47,1.5a1.69,1.69,0,0,0,1.89-2.14A2.91,2.91,0,0,0,183.63,189.86Zm405.08,4c.86-.08,1.65-1,2.48-1.48l0-1c-.8-.56-1.61-1.57-2.39-1.55a2.88,2.88,0,0,0-2,1.84A1.69,1.69,0,0,0,588.71,193.86Zm-.73,424c.78,0,1.61-1,2.42-1.49v-1c-.81-.54-1.58-1.44-2.44-1.54A1.69,1.69,0,0,0,586,616,2.9,2.9,0,0,0,588,617.88ZM184.81,606a1.69,1.69,0,0,0-1.95-2.08c-.86.12-1.61,1-2.41,1.58v1c.82.53,1.67,1.51,2.45,1.45A2.89,2.89,0,0,0,184.81,606ZM183,594c-.86.06-1.67.92-2.5,1.43l0,1c.79.57,1.58,1.59,2.36,1.58a2.91,2.91,0,0,0,2-1.81A1.69,1.69,0,0,0,183,594Zm404.94-9.94a1.69,1.69,0,0,0-1.87,2.15,2.93,2.93,0,0,0,2,1.84c.78,0,1.59-1,2.38-1.55l0-1C589.57,585,588.78,584.15,587.91,584.07Zm-405-9.94c-.86.08-1.65,1-2.48,1.48,0,.32,0,.64,0,1,.79.56,1.6,1.57,2.38,1.55a3,3,0,0,0,2-1.85A1.69,1.69,0,0,0,182.94,574.13Zm.25-10.35-.92,0c-.5.84-1.43,1.72-1.36,2.51a2.82,2.82,0,0,0,1.92,1.89,1.67,1.67,0,0,0,2-2C184.65,565.32,183.76,564.58,183.19,563.78ZM588,558.24c.78.06,1.63-.92,2.45-1.45v-1c-.8-.56-1.56-1.47-2.42-1.58a1.68,1.68,0,0,0-2,2.08A2.89,2.89,0,0,0,588,558.24Zm-405.26,0a1.66,1.66,0,0,0,2.13-1.86c-.11-.89-.95-1.69-1.46-2.53l-.92,0c-.55.8-1.54,1.61-1.53,2.41A2.83,2.83,0,0,0,182.69,558.27ZM588,548.3c.78.06,1.63-.92,2.45-1.45,0-.32,0-.64,0-1-.81-.55-1.56-1.47-2.42-1.58a1.69,1.69,0,0,0-2,2.08C586.23,547.18,587.25,548.26,588,548.3ZM586,606.07a2.92,2.92,0,0,0,2,1.87c.77,0,1.6-1,2.4-1.51v-1c-.82-.54-1.59-1.43-2.46-1.53A1.69,1.69,0,0,0,586,606.07Zm2.74-302.89c.86-.11,1.62-1,2.42-1.57v-1c-.81-.53-1.66-1.51-2.44-1.45a2.91,2.91,0,0,0-1.92,1.9A1.68,1.68,0,0,0,588.78,303.18Zm-403.17-2.05a2.91,2.91,0,0,0-1.89-1.94c-.78-.06-1.64.9-2.47,1.42l0,1c.8.57,1.54,1.49,2.4,1.62A1.69,1.69,0,0,0,185.61,301.13Zm-5.16,225.8c.8.54,1.63,1.54,2.41,1.5a2.88,2.88,0,0,0,1.95-1.88,1.68,1.68,0,0,0-1.91-2.12c-.86.1-1.63,1-2.45,1.53ZM222.62,45.7l.95,0c.56-.82,1.57-1.65,1.53-2.44s-1.13-1.75-1.92-1.93a1.69,1.69,0,0,0-2.05,2C221.25,44.2,222.1,44.92,222.62,45.7ZM588,478.73c.77,0,1.6-1,2.4-1.5v-1c-.82-.53-1.59-1.43-2.46-1.52a1.68,1.68,0,0,0-1.9,2.12A2.9,2.9,0,0,0,588,478.73ZM182.8,544.31c-.86.14-1.58,1.08-2.37,1.66l0,1c.83.51,1.72,1.46,2.49,1.38a2.92,2.92,0,0,0,1.85-2A1.68,1.68,0,0,0,182.8,544.31ZM588,538.36c.78,0,1.61-1,2.41-1.5v-1c-.82-.54-1.59-1.43-2.45-1.53a1.69,1.69,0,0,0-1.91,2.12A2.86,2.86,0,0,0,588,538.36Zm.78-294.81c.86-.11,1.62-1,2.43-1.55,0-.33,0-.65,0-1-.81-.53-1.65-1.52-2.42-1.47a2.94,2.94,0,0,0-1.94,1.9A1.69,1.69,0,0,0,588.77,243.55ZM252.4,45.69l.94,0c.58-.8,1.61-1.62,1.59-2.4a2.9,2.9,0,0,0-1.9-2,1.69,1.69,0,0,0-2.08,2C251.05,44.16,251.89,44.9,252.4,45.69ZM588.83,213.74c.86-.14,1.59-1.07,2.38-1.64l0-1c-.83-.5-1.71-1.46-2.48-1.39a2.91,2.91,0,0,0-1.87,2A1.69,1.69,0,0,0,588.83,213.74Zm0,79.51c.86-.15,1.58-1.08,2.36-1.67,0-.32,0-.64,0-1-.83-.5-1.72-1.45-2.49-1.37a2.92,2.92,0,0,0-1.85,2A1.69,1.69,0,0,0,588.85,293.25Zm-2-22.06a1.7,1.7,0,0,0,1.85,2.18c.86-.07,1.66-.94,2.49-1.46l0-1c-.79-.56-1.59-1.58-2.37-1.57A2.92,2.92,0,0,0,586.84,271.19ZM590.39,506c-.82-.52-1.61-1.39-2.48-1.47a1.69,1.69,0,0,0-1.87,2.15,2.93,2.93,0,0,0,2,1.84c.78,0,1.59-1,2.38-1.54C590.41,506.68,590.4,506.36,590.39,506ZM586,456.91a2.88,2.88,0,0,0,1.88,1.94c.78.07,1.64-.89,2.47-1.41,0-.32,0-.64,0-1-.79-.57-1.53-1.49-2.39-1.62A1.68,1.68,0,0,0,586,456.91Zm-402.82-188c-.55.8-1.54,1.62-1.52,2.41a2.86,2.86,0,0,0,1.8,2,1.69,1.69,0,0,0,2.12-1.91c-.11-.88-1-1.67-1.48-2.5Zm2.4-47.2c-.12-.87-1-1.65-1.5-2.48h-.93c-.54.81-1.52,1.64-1.49,2.42a2.88,2.88,0,0,0,1.82,2A1.7,1.7,0,0,0,185.62,221.73Zm0,39.65a2.89,2.89,0,0,0-1.89-1.94c-.78-.07-1.64.9-2.47,1.41l0,1c.8.56,1.54,1.48,2.4,1.61A1.69,1.69,0,0,0,185.61,261.38Zm403.17-7.89c.87-.12,1.62-1,2.42-1.58v-1c-.82-.53-1.67-1.51-2.45-1.45a2.88,2.88,0,0,0-1.92,1.91A1.69,1.69,0,0,0,588.78,253.49Zm-403.17-2.08a2.91,2.91,0,0,0-1.92-1.91c-.78-.06-1.62.92-2.44,1.45,0,.32,0,.64,0,1,.8.56,1.56,1.47,2.42,1.58A1.69,1.69,0,0,0,185.61,251.41ZM183,464.8c-.87.07-1.67.94-2.49,1.46l0,1c.79.56,1.59,1.58,2.36,1.57a2.94,2.94,0,0,0,2-1.83A1.69,1.69,0,0,0,183,464.8Zm405,0a1.69,1.69,0,0,0-1.89,2.14,2.9,2.9,0,0,0,2,1.85c.77,0,1.6-1,2.4-1.51,0-.33,0-.65,0-1C589.58,465.78,588.8,464.89,587.93,464.8ZM183,478.73a2.88,2.88,0,0,0,1.86-2,1.68,1.68,0,0,0-2-2c-.86.13-1.59,1.06-2.37,1.64l0,1C181.3,477.85,182.17,478.81,183,478.73Zm0,155c-.86.09-1.64,1-2.45,1.52v1c.8.54,1.63,1.54,2.4,1.5a2.88,2.88,0,0,0,2-1.87A1.68,1.68,0,0,0,182.91,633.76ZM586,635.92a2.93,2.93,0,0,0,2,1.84c.78,0,1.59-1,2.38-1.55l0-1c-.82-.52-1.61-1.4-2.48-1.48A1.7,1.7,0,0,0,586,635.92ZM181.25,172.47c.82.53,1.59,1.42,2.46,1.51a1.69,1.69,0,0,0,1.9-2.13,2.92,2.92,0,0,0-2-1.86c-.77,0-1.6,1-2.4,1.51C181.24,171.82,181.25,172.14,181.25,172.47ZM588.78,164c.86-.11,1.62-1,2.42-1.57,0-.32,0-.64,0-1-.81-.52-1.66-1.5-2.44-1.45a2.91,2.91,0,0,0-1.92,1.91A1.69,1.69,0,0,0,588.78,164ZM262.35,45.69l1,0c.56-.79,1.57-1.6,1.56-2.38a2.9,2.9,0,0,0-1.84-2,1.68,1.68,0,0,0-2.14,1.86C261,44.08,261.83,44.87,262.35,45.69Zm10,0h.95c.55-.81,1.54-1.64,1.51-2.43s-1.1-1.73-1.89-1.93a1.67,1.67,0,0,0-2.09,1.91C270.93,44.13,271.82,44.9,272.35,45.71Zm-90,597.58c-.54.82-1.52,1.66-1.49,2.45a2.85,2.85,0,0,0,1.83,2,1.67,1.67,0,0,0,2.1-1.91c-.14-.89-1-1.67-1.52-2.5Zm.81-483.69c-.55.81-1.53,1.64-1.5,2.43a2.85,2.85,0,0,0,1.82,2,1.69,1.69,0,0,0,2.1-1.93c-.12-.87-1-1.66-1.5-2.48Zm99-113.92.95,0c.58-.8,1.62-1.6,1.61-2.39a2.89,2.89,0,0,0-1.87-2,1.68,1.68,0,0,0-2.1,1.95C280.86,44.14,281.68,44.89,282.18,45.68Zm305.74,617.9a1.69,1.69,0,0,0-1.88,2.15,2.9,2.9,0,0,0,2,1.84c.78,0,1.59-1,2.39-1.54,0-.32,0-.64,0-1C589.57,664.54,588.78,663.66,587.92,663.58ZM183,484.68c-.87.08-1.66.95-2.49,1.47l0,1c.79.56,1.6,1.58,2.38,1.56a2.91,2.91,0,0,0,2-1.84A1.69,1.69,0,0,0,183,484.68Zm119.33-439,.89,0c.53-.78,1.4-1.51,1.5-2.35a1.79,1.79,0,0,0-2.08-2.06c-1.35.06-2.2.93-1.95,2.2C300.81,44.3,301.71,45,302.28,45.72Zm286.41,94.45a2.94,2.94,0,0,0-1.86,2,1.69,1.69,0,0,0,2,2c.85-.14,1.58-1.07,2.36-1.66l0-1C590.34,141,589.46,140.09,588.69,140.17Zm-403.08,2a2.92,2.92,0,0,0-1.86-2c-.77-.08-1.65.87-2.49,1.38l0,1c.78.58,1.51,1.51,2.37,1.66A1.69,1.69,0,0,0,185.61,142.14Zm403.11-11.91a2.91,2.91,0,0,0-1.89,1.94,1.7,1.7,0,0,0,2,2.06c.86-.13,1.6-1,2.4-1.61l0-1C590.36,131.14,589.5,130.17,588.72,130.23Zm0-15.88c.86-.11,1.63-1,2.44-1.55v-1c-.81-.54-1.65-1.53-2.43-1.49a2.92,2.92,0,0,0-1.94,1.89A1.7,1.7,0,0,0,588.76,114.35ZM184.82,516.66c-.11-.89-.94-1.7-1.45-2.54l-.92,0c-.56.8-1.55,1.61-1.54,2.41a2.83,2.83,0,0,0,1.78,2A1.66,1.66,0,0,0,184.82,516.66ZM181.24,242c.8.56,1.56,1.46,2.42,1.58a1.69,1.69,0,0,0,2-2.08,2.93,2.93,0,0,0-1.92-1.91c-.77-.06-1.62.92-2.44,1.45C181.25,241.33,181.24,241.65,181.24,242Zm2.45-131.62c-.77,0-1.62.93-2.44,1.45v1c.8.55,1.56,1.46,2.42,1.58a1.69,1.69,0,0,0,2-2.08A2.92,2.92,0,0,0,183.69,110.35Zm1.92-8.11a2.91,2.91,0,0,0-2-1.83c-.77,0-1.58,1-2.37,1.57l0,1c.82.51,1.62,1.38,2.49,1.46A1.7,1.7,0,0,0,185.61,102.24Zm401.23-9.93a1.69,1.69,0,0,0,1.86,2.16c.86-.08,1.66-1,2.48-1.47l0-1c-.79-.56-1.6-1.58-2.38-1.56A2.91,2.91,0,0,0,586.84,92.31ZM449.43,45.7l.89,0c.56-.75,1.45-1.45,1.6-2.28.23-1.26-.63-2.12-2-2.16a1.8,1.8,0,0,0-2.05,2.1C448,44.21,448.89,44.93,449.43,45.7ZM183,657.63a2.88,2.88,0,0,0,1.85-2,1.68,1.68,0,0,0-2-2c-.86.14-1.58,1.08-2.37,1.66,0,.32,0,.64,0,1C181.3,656.76,182.19,657.71,183,657.63Zm48.78,44.78c-.52.78-1.36,1.52-1.47,2.36a1.7,1.7,0,0,0,2.08,2c.79-.19,1.88-1.25,1.9-2s-1-1.61-1.56-2.41Zm29.86,0c-.53.81-1.41,1.59-1.5,2.45a1.67,1.67,0,0,0,2.11,1.9c.78-.21,1.84-1.25,1.86-2s-1-1.61-1.52-2.41Zm9.93,0c-.52.81-1.39,1.59-1.49,2.45a1.67,1.67,0,0,0,2.11,1.9c.78-.21,1.84-1.25,1.86-2s-1-1.61-1.52-2.41Zm18.39,2.26a1.68,1.68,0,0,0,1.92,2.1c.87-.12,1.65-1,2.48-1.49,0-.3,0-.61,0-.91-.81-.55-1.63-1.54-2.42-1.51A2.85,2.85,0,0,0,289.92,704.67Zm12.44-2.26-.89,0c-.57.74-1.46,1.43-1.62,2.25-.25,1.27.61,2.13,2,2.19a1.8,1.8,0,0,0,2.07-2.08C303.78,703.92,302.9,703.19,302.36,702.41Zm9.23.4c-1.23-.16-1.92.86-1.85,2.06s1,2.2,2.24,1.9c.83-.2,1.5-1.09,2.25-1.67,0-.3,0-.6,0-.9A8.14,8.14,0,0,0,311.59,702.81Zm137.38.05a2.7,2.7,0,0,0-1.81,2,2.67,2.67,0,0,0,1.91,1.87c.8,0,1.64-1,2.46-1.52l0-1C450.65,703.73,449.76,702.78,449,702.86Zm10.49-.47-.95,0c-.52.83-1.48,1.69-1.42,2.48a2.89,2.89,0,0,0,1.94,1.87,1.68,1.68,0,0,0,2-2C460.93,703.92,460,703.18,459.46,702.39Zm29.86,0h-.95c-.53.83-1.52,1.69-1.46,2.48a2.87,2.87,0,0,0,2,1.87,1.68,1.68,0,0,0,2-2.06C490.74,703.86,489.87,703.15,489.32,702.39Zm9.86,0-.9,0c-.52.78-1.4,1.52-1.49,2.35a1.79,1.79,0,0,0,2.08,2.06c1.35-.07,2.2-.94,1.95-2.21C500.65,703.8,499.75,703.13,499.18,702.38Zm10.11,0h-1c-.56.79-1.57,1.6-1.55,2.39a2.88,2.88,0,0,0,1.84,2,1.68,1.68,0,0,0,2.13-1.88C510.67,704,509.8,703.23,509.29,702.41Zm19.91,0-1,0c-.57.79-1.6,1.58-1.59,2.37a2.91,2.91,0,0,0,1.82,2,1.68,1.68,0,0,0,2.16-1.85C530.56,704.05,529.71,703.25,529.2,702.42Zm9.24.44a2.82,2.82,0,0,0-1.88,1.94,1.65,1.65,0,0,0,2,2c.88-.18,1.61-1.06,2.4-1.63l0-.92C540.1,703.72,539.22,702.78,538.44,702.86Zm-318.08,1.93a1.68,1.68,0,0,0,2.07,2c.84-.15,1.56-1,2.33-1.54v-.91c-.84-.53-1.7-1.51-2.49-1.46A2.83,2.83,0,0,0,220.36,704.79ZM183.68,289.26c-.78-.05-1.62.93-2.44,1.46v1c.81.55,1.57,1.45,2.44,1.56a1.69,1.69,0,0,0,1.93-2.1A2.91,2.91,0,0,0,183.68,289.26ZM588,657.63c.77,0,1.58-1,2.38-1.54l0-1c-.82-.52-1.61-1.4-2.48-1.48a1.69,1.69,0,0,0-1.87,2.15A2.91,2.91,0,0,0,588,657.63Zm-403.2,8c-.18-.88-1.07-1.62-1.64-2.42l-.92,0c-.5.84-1.43,1.72-1.36,2.51a2.81,2.81,0,0,0,1.92,1.88A1.66,1.66,0,0,0,184.83,665.59ZM589,279.28a1.77,1.77,0,0,0-2.26,1.81,1.83,1.83,0,0,0,1.91,2.22c.83,0,1.63-.82,2.44-1.27,0-.3.08-.59.11-.89C590.51,280.5,589.87,279.51,589,279.28ZM588.7,154.1c.86-.07,1.66-.95,2.48-1.47l0-1c-.79-.56-1.6-1.57-2.38-1.55a2.9,2.9,0,0,0-2,1.83A1.69,1.69,0,0,0,588.7,154.1Zm-405-4c-.78-.05-1.62.92-2.44,1.45v1c.8.56,1.56,1.47,2.42,1.58a1.68,1.68,0,0,0,2-2.08A2.91,2.91,0,0,0,183.69,150.11Zm.08,133.2a1.7,1.7,0,0,0,1.84-2.19,2.93,2.93,0,0,0-2-1.81c-.78,0-1.57,1-2.36,1.59l0,1C182.1,282.38,182.9,283.24,183.77,283.31ZM183,458.85a2.89,2.89,0,0,0,1.85-2,1.69,1.69,0,0,0-2-2c-.86.14-1.58,1.08-2.37,1.66,0,.32,0,.64,0,1C181.3,458,182.19,458.93,183,458.85ZM588.68,263.43c.86-.06,1.67-.93,2.5-1.44l0-1c-.78-.57-1.58-1.59-2.36-1.58a2.9,2.9,0,0,0-2,1.8A1.69,1.69,0,0,0,588.68,263.43Zm1.71,222.74c-.82-.52-1.6-1.41-2.46-1.49a1.69,1.69,0,0,0-1.89,2.14,2.93,2.93,0,0,0,2,1.86c.77,0,1.59-1,2.39-1.54C590.4,486.82,590.4,486.5,590.39,486.17ZM586,496.74a2.92,2.92,0,0,0,2,1.87c.78,0,1.6-1,2.41-1.51v-1c-.82-.53-1.6-1.42-2.46-1.51A1.68,1.68,0,0,0,586,496.74ZM183.62,134.21a1.68,1.68,0,0,0,2-2c-.16-.88-1.06-1.61-1.62-2.41l-.93,0c-.5.84-1.44,1.72-1.37,2.5A2.86,2.86,0,0,0,183.62,134.21Zm407.57-12.5c-.83-.52-1.69-1.48-2.47-1.42a2.91,2.91,0,0,0-1.89,1.94,1.7,1.7,0,0,0,2,2.06c.86-.13,1.6-1.05,2.4-1.62Zm-405.58.55a2.91,2.91,0,0,0-1.87-2c-.77-.07-1.65.89-2.48,1.39l0,1c.79.58,1.52,1.51,2.38,1.65A1.69,1.69,0,0,0,185.61,122.26Zm-2.69,382.3c-.86.08-1.64,1-2.46,1.5,0,.32,0,.65,0,1,.8.55,1.62,1.55,2.4,1.52a2.92,2.92,0,0,0,2-1.86A1.68,1.68,0,0,0,182.92,504.56ZM588.76,229.62a2.92,2.92,0,0,0-1.93,1.91,1.69,1.69,0,0,0,1.95,2.08c.86-.1,1.62-1,2.42-1.56v-1C590.38,230.55,589.54,229.57,588.76,229.62Zm-405.28,4a1.69,1.69,0,0,0,2.14-1.88c-.1-.88-.94-1.68-1.45-2.52l-.92,0c-.56.8-1.56,1.6-1.55,2.39A2.86,2.86,0,0,0,183.48,233.6ZM549.71,45.72c.56-.75,1.45-1.45,1.6-2.27a1.69,1.69,0,0,0-2-2.1,2.91,2.91,0,0,0-2,1.85c-.06.79.92,1.66,1.44,2.5Zm39.12,58.69c.85-.13,1.59-1.06,2.38-1.63l0-1c-.83-.52-1.7-1.47-2.47-1.4a2.89,2.89,0,0,0-1.88,2A1.7,1.7,0,0,0,588.83,104.41ZM590.39,516c-.83-.52-1.62-1.4-2.48-1.47a1.69,1.69,0,0,0-1.87,2.15,2.93,2.93,0,0,0,2,1.84c.78,0,1.59-1,2.38-1.55ZM185.61,211.66a2.91,2.91,0,0,0-1.92-1.91c-.78-.06-1.62.92-2.44,1.44,0,.32,0,.65,0,1,.8.55,1.56,1.46,2.42,1.58A1.69,1.69,0,0,0,185.61,211.66ZM586,576.23a2.92,2.92,0,0,0,1.94,1.89c.77,0,1.61-.94,2.42-1.48v-1c-.81-.54-1.57-1.44-2.43-1.54A1.69,1.69,0,0,0,586,576.23Zm2.73-372.43c.87-.11,1.63-1,2.43-1.57v-1c-.82-.54-1.66-1.52-2.44-1.47a2.92,2.92,0,0,0-1.93,1.91A1.69,1.69,0,0,0,588.77,203.8Zm1.62,361.87c-.82-.52-1.61-1.4-2.47-1.48a1.69,1.69,0,0,0-1.88,2.15,3,3,0,0,0,2,1.85c.77,0,1.59-1,2.38-1.55ZM181.26,202.36c.84.51,1.65,1.38,2.51,1.44a1.7,1.7,0,0,0,1.84-2.19,2.9,2.9,0,0,0-2-1.81c-.77,0-1.57,1-2.35,1.59Zm61.51,500.06-.89,0c-.58.74-1.49,1.4-1.66,2.23-.27,1.26.58,2.13,1.92,2.22a1.8,1.8,0,0,0,2.11-2C244.16,704,243.29,703.21,242.77,702.42Zm9.94,0-.93,0c-.57.81-1.6,1.63-1.57,2.4a3,3,0,0,0,1.89,2,1.68,1.68,0,0,0,2.09-2C254.09,704,253.23,703.21,252.71,702.42ZM182.94,584.07c-.86.07-1.65.95-2.48,1.47,0,.33,0,.65,0,1,.79.56,1.6,1.57,2.38,1.55a2.91,2.91,0,0,0,2-1.84A1.69,1.69,0,0,0,182.94,584.07ZM588,598c.77,0,1.61-.94,2.42-1.48v-1c-.81-.55-1.58-1.45-2.44-1.54a1.68,1.68,0,0,0-1.92,2.1A2.9,2.9,0,0,0,588,598ZM280,704.7a1.67,1.67,0,0,0,1.93,2.07c.88-.13,1.65-1,2.46-1.52,0-.3,0-.61,0-.91-.82-.54-1.65-1.51-2.44-1.48A2.82,2.82,0,0,0,280,704.7Zm-99.54-88.27c.82.52,1.67,1.5,2.45,1.44a2.89,2.89,0,0,0,1.91-1.91,1.68,1.68,0,0,0-1.94-2.08c-.87.11-1.62,1-2.43,1.58C180.45,615.78,180.45,616.1,180.45,616.43ZM588.7,183.92c.87-.08,1.66-1,2.48-1.48l0-1c-.8-.56-1.61-1.58-2.38-1.55a2.88,2.88,0,0,0-2,1.83A1.69,1.69,0,0,0,588.7,183.92ZM232.5,45.69l.95,0c.58-.79,1.61-1.6,1.6-2.39a2.92,2.92,0,0,0-1.88-2,1.69,1.69,0,0,0-2.1,2C231.17,44.15,232,44.9,232.5,45.69Zm89.33,657.13a2.86,2.86,0,0,0-2,1.8c-.09.78.87,1.68,1.37,2.53l.94,0c.58-.74,1.48-1.42,1.65-2.24A1.68,1.68,0,0,0,321.83,702.82ZM242.55,45.71h.95c.54-.81,1.53-1.65,1.49-2.43s-1.11-1.73-1.89-1.92A1.68,1.68,0,0,0,241,43.28C241.12,44.14,242,44.9,242.55,45.71Zm49.57,0,.95,0c.58-.8,1.63-1.6,1.61-2.39s-1.08-1.79-1.87-2a1.69,1.69,0,0,0-2.11,1.95C290.8,44.14,291.62,44.89,292.12,45.68ZM469.41,702.39l-.94,0c-.53.84-1.51,1.71-1.44,2.5a2.9,2.9,0,0,0,2,1.84,1.68,1.68,0,0,0,2-2.09C470.85,703.84,470,703.14,469.41,702.39Zm10,0h-1c-.54.81-1.53,1.64-1.5,2.42a2.91,2.91,0,0,0,1.88,1.94,1.68,1.68,0,0,0,2.1-1.92C480.83,704,480,703.21,479.41,702.4ZM312.07,45.7H313c.56-.81,1.57-1.64,1.53-2.43a2.87,2.87,0,0,0-1.92-1.93,1.69,1.69,0,0,0-2.05,2C310.7,44.2,311.55,44.92,312.07,45.7Zm9.87,0,.95,0c.58-.8,1.62-1.6,1.61-2.39a2.89,2.89,0,0,0-1.87-2,1.69,1.69,0,0,0-2.11,1.95C320.61,44.14,321.44,44.89,321.94,45.68Zm148.26,0c.56-.75,1.45-1.45,1.6-2.28a1.69,1.69,0,0,0-2-2.09,2.91,2.91,0,0,0-2,1.85c-.06.79.92,1.66,1.44,2.5Zm46.48,659a1.66,1.66,0,0,0,1.94,2.06c.88-.14,1.65-1,2.47-1.53v-.93c-.82-.52-1.66-1.5-2.44-1.45A2.83,2.83,0,0,0,516.68,704.71Zm3.23-659c.56-.79,1.46-1.54,1.58-2.4a1.67,1.67,0,0,0-2-2,2.9,2.9,0,0,0-1.93,1.89c0,.78.92,1.63,1.45,2.45Zm68,598a1.69,1.69,0,0,0-1.87,2.15,2.93,2.93,0,0,0,2,1.85c.78,0,1.59-1,2.38-1.55,0-.32,0-.65,0-1C589.57,644.66,588.78,643.78,587.91,643.7Zm-41.41,61a1.66,1.66,0,0,0,1.91,2.09c.88-.13,1.66-1,2.48-1.49,0-.31,0-.62,0-.93-.81-.54-1.64-1.53-2.42-1.5A2.87,2.87,0,0,0,546.5,704.68Zm-16.58-659c.53-.77,1.39-1.49,1.51-2.32a1.69,1.69,0,0,0-2-2,2.9,2.9,0,0,0-1.94,1.91c0,.79,1,1.63,1.51,2.45ZM184.81,536.56a1.7,1.7,0,0,0-1.83-2.19c-.87.06-1.68.93-2.51,1.44,0,.32,0,.65,0,1,.79.57,1.58,1.6,2.36,1.59A2.91,2.91,0,0,0,184.81,536.56Zm319.05-83.71c-2.64,3.48-3.42,7.52-3.56,11.75l-.51.17c.86,2.88,1.29,6,2.66,8.58,2.84,5.37,9.64,5.19,12.62-.1,3.24-5.74,2.46-15.39-1.66-20.51C510.41,449,506.74,449.05,503.86,452.85Zm6.91,20.87c.06-3.42,3.72-5.87,2.62-10l-2.47.68c-.76-2.72.47-6-2.24-8.39-2.72,2.34-1.52,5.55-2.28,8.35l-2.45-.6c-1.06,4,2.41,6.5,2.83,9.87-2.51-1.21-4.13-5.41-3.79-10.57.29-4.42,1.17-8.67,5.61-11.22,4.25,2.18,5.21,6.09,5.67,10.14C514.76,466.35,514.1,470.47,510.77,473.72Zm-9,40.65c-.57.57-1.46,1.07-1.61,1.73s.67,1.25,1.42,2.47c.84-1.2,1.66-1.86,1.65-2.51S502.26,514.94,501.74,514.37Zm3.16,3.83c.05.62.92,1.17,1.43,1.76.57-.6,1.48-1.12,1.62-1.81.11-.51-.76-1.23-1.54-2.34C505.65,516.94,504.86,517.6,504.9,518.2Zm6.76-1.58c-.54.54-1.37,1-1.54,1.66-.12.47.61,1.17,1.29,2.33.78-1.16,1.5-1.78,1.53-2.42S512.12,517.14,511.66,516.62Zm5.41-.4c-.17-.62-1-1-1.58-1.55-.47.53-1.27,1.05-1.3,1.6s.74,1.11,1.5,2.12C516.4,517.35,517.2,516.65,517.07,516.22ZM271.65,451.83c-3-3.86-6.85-4-9.64.06-4.35,6.32-4.82,13.18-1.65,20.15a6.65,6.65,0,0,0,6.47,4.12,6.51,6.51,0,0,0,6.42-4.16,74.19,74.19,0,0,0,2.43-8.27l-.48-.14C275.21,459.2,273.82,454.61,271.65,451.83Zm-2.81,20.93c.07-3.46,3.87-5.93,2.63-10.05l-2.45.75c-.68-2.73.53-6.06-2.2-8.52-2.66,2.46-1.61,5.67-2.25,8.5l-2.53-.81c-1,4.1,2.43,6.62,2.66,10.07-3.34-3.16-3.9-7.31-3.47-11.65.41-4.08,1.41-7.95,5.54-10.2,4.25,2.2,5.2,6.11,5.65,10.16C272.89,465.37,272.27,469.52,268.84,472.76ZM258.26,515a2.47,2.47,0,0,0,1.64,1.61c.5.1,1.18-.81,2.26-1.63-1.14-.79-1.82-1.62-2.47-1.59S258.19,514.53,258.26,515Zm6.32.47c-.54.61-1.41,1.17-1.54,1.86-.09.49.81,1.17,1.64,2.26.72-1.17,1.49-1.86,1.41-2.44S265.12,516,264.58,515.49Zm3.72,1.69c0,.51.81,1.06,1.26,1.59.53-.54,1.35-1,1.52-1.63s-.56-1.18-1.2-2.37C269.06,515.94,268.33,516.54,268.3,517.18Zm5.56-.59c.43.11,1.09-.72,2.1-1.46-1-.72-1.64-1.48-2.16-1.42s-1,.87-1.55,1.36C272.78,515.61,273.24,516.44,273.86,516.59ZM462.1,374.43a62.73,62.73,0,0,0,2.08-7c-.27-4.41-1.68-8.83-4-11.41s-5.28-2.7-7.69,0c-4,4.38-4.88,13.63-1.83,18.73a6.24,6.24,0,0,0,5.83,3.43A5.85,5.85,0,0,0,462.1,374.43Zm-7.76-7.74-2-.33c-1.42,3.47,2.14,5.59,2.39,9.06-3.1-2.86-3.48-6.2-3.36-9.53.15-3.95.93-7.78,4.92-10.16,3.64,1.81,4.57,5.16,4.95,8.7.41,3.83.06,7.55-2.86,10.48.08-2.94,3.12-5.12,2.26-8.55l-2.33.39c-.47-2.49.23-5.17-1.87-7.48C454,361.4,454.86,364.18,454.34,366.69ZM458.25,416c.55,0,1.15-.65,2.23-1.35-1.06-.77-1.67-1.55-2.17-1.48a2.12,2.12,0,0,0-1.33,1.48C456.93,415,457.77,415.92,458.25,416Zm4.34-1.92c.56,0,1.11-.74,2.16-1.54-1.14-.67-1.82-1.39-2.3-1.27a2.13,2.13,0,0,0-1.24,1.59C461.18,413.21,462.11,414.05,462.59,414Zm-7.59.42c-.12-.53-.88-.92-1.36-1.37-.39.51-1.1,1-1.1,1.52s.69,1,1.42,2C454.51,415.57,455.11,414.93,455,414.46Zm-4.86-.46c.47.07,1.06-.62,2.05-1.27-1-.65-1.53-1.27-2.06-1.26s-1.27.82-1.21,1.14A2,2,0,0,0,450.14,414Zm-133-40.18a17.61,17.61,0,0,0-1.7-17.05c-2.5-3.71-6.08-3.66-8.79,0-2.28,3-3,6.57-3.4,10.37a56,56,0,0,0,1.78,6.85,6.08,6.08,0,0,0,6.08,4.24C314.26,378.16,316.14,376.43,317.17,373.82ZM309,366.67l-2.15-.3c-1.17,3.44,2.3,5.58,2.39,8.92-3.23-3.17-3.33-6.94-3.05-10.67.27-3.56,1.26-6.91,4.87-8.89,3.64,1.91,4.54,5.3,4.87,8.82.35,3.76.06,7.48-2.85,10.39-.21-3,3.44-5.11,2.08-8.55l-2.09.28c-.54-2.41.35-5.15-1.94-7.28C308.71,361.4,309.68,364.23,309,366.67Zm-4.08,47.46c.47-.53,1.26-1,1.3-1.59s-.73-1.1-1.5-2.16c-.65,1.13-1.33,1.79-1.24,2.31S304.42,413.66,304.93,414.13Zm4.12,1.82c.58,0,1.14-.7,2.2-1.44-1.06-.71-1.71-1.46-2.19-1.37a2.12,2.12,0,0,0-1.29,1.54C307.71,415.06,308.6,416,309.05,416Zm4.47-.09c.61-.13,1.12-.73,2.13-1.47-1-.64-1.67-1.32-2.07-1.2a2.05,2.05,0,0,0-1.15,1.47C312.37,415,313.22,415.91,313.52,415.86Zm3.77-1.86c.3.07,1.14-.75,1.16-1.19s-.58-1.08-1.19-2.09c-.69,1-1.4,1.55-1.33,2A2.06,2.06,0,0,0,317.29,414Zm24.48-145a20.13,20.13,0,0,0-2.91,8.78,69.9,69.9,0,0,0,2,6.74,5,5,0,0,0,5.05,3.18,5.27,5.27,0,0,0,5.05-3.25,15.28,15.28,0,0,0-1.2-15.68C347.5,265.29,344.1,265.49,341.77,269Zm1.82,15.68q-1-2-1.93-4.08l.67-.32,2,4.05Zm4.13-.13c.09-2.49,2.79-4.28,2-7.26l-2.06.16c-.46-2.14.28-4.51-1.71-6.36-2.18,1.65-1.32,4.08-1.92,6.16l-2.22.14c-.76-3.61,1-7.78,4.08-9.42,3.14,1.31,3.89,4.26,4.24,7.19C350.52,278.5,350.4,281.9,347.72,284.53Zm-8.5,33.56a1.65,1.65,0,0,0,1.07,1.26c.52,0,1.08-.57,2.11-1.19-1-.67-1.54-1.29-2.06-1.28A1.62,1.62,0,0,0,339.22,318.09Zm4.74.44c-.36.47-1,.94-1,1.42s.65.91,1.26,1.67c.54-.83,1.22-1.43,1.11-1.8S344.44,319,344,318.53Zm3.08,1.32c0,.42.75.8,1.16,1.19.37-.45.95-.87,1-1.38.07-.35-.53-.82-1.07-1.57C347.62,318.89,347,319.39,347,319.85Zm5.42-1.57a1.91,1.91,0,0,0-1.18-1.16c-.25-.08-1,.67-1,1s.58.94,1.12,1.72C351.92,319.11,352.55,318.6,352.46,318.28Zm65.41-49.91c-2.2,2.69-2.8,5.92-3.1,10.49a29.79,29.79,0,0,0,2,6c2.1,3.92,7.23,3.84,9.59.07,2.82-4.48,2.28-12.45-1.1-16.53C422.91,265.6,420.16,265.57,417.87,268.37Zm-.38,11.09,2.76,5.19C418.35,283.87,417.42,282,417.49,279.46Zm6.41,5.21-.8-.35,2.07-4.31.6.26Zm1.8-7.39h-2.15c-.42-1.88-.78-3.67-1.22-5.44-.07-.24-.48-.4-.87-.72-2,1.74-1.15,4.22-1.76,6.3l-2-.13c-.1.72-.18,1.37-.27,2-1.26-4.24.72-9.81,4-11.27C424.42,269.24,426.15,273,425.7,277.28Zm-3.61,42.45c.12.54.82.94,1.27,1.4.4-.44,1.07-.87,1.1-1.33s-.6-1-1.17-1.77C422.71,318.81,422,319.36,422.09,319.73Zm6.09-1.45c-.08-.54-.73-1-1.13-1.48-.44.39-1.2.75-1.24,1.18s.52,1.09,1,2C427.54,319.17,428.23,318.67,428.18,318.28Zm-10,1.36a2.88,2.88,0,0,0,1.26,1.34c.2.1.78-.58,1.45-1.13-.72-.56-1.16-1.13-1.66-1.2C418.92,318.61,418.12,319.48,418.19,319.64Zm-1.95-2.53a1.94,1.94,0,0,0-1.28,1.05c-.1.24.57,1.11.93,1.14s1-.47,1.84-.93C417,317.73,416.58,317.06,416.24,317.11Zm-13.06-201c-.32,0-.64-.11-.85-.14-.51-9.51-1-18.93-1.54-28.52l1.16-.13c1.23-.12,2.55-.27,2.45-1.92-.09-1.49-1.3-1.66-2.49-1.67-11.66-.11-23.31-.23-35-.29a9,9,0,0,0-2.49.71c0,.27,0,.55,0,.82l2.44,1.25c2.26,9.9,4.51,19.72,6.75,29.54-1.92.67-4.3-.53-6.63,1.65a14.46,14.46,0,0,0,3.2,1c10.92.45,21.83.86,32.75,1.14a2.94,2.94,0,0,0,2.34-1.49C405.67,116.68,404.4,116.27,403.18,116.14ZM370,86.29l11.13.53c-1.66,7.16-3.25,14-4.93,21.2C374.12,100.6,372.12,93.59,370,86.29Zm18.5,29.53H378.39c2.11-9.6,4.2-19.11,6.3-28.69h3.85Zm9.38.05h-5.61c-.32-9.46-.63-18.82-.95-28.34h6.56Zm-17.54,78.37c-1.79,2.37-2.37,5.12-2.72,8.12a50.64,50.64,0,0,0,1.61,5.64,4.53,4.53,0,0,0,4.5,3,4.93,4.93,0,0,0,4.57-2.92c2.11-3.78,1.53-10.52-1.22-13.94C385,191.48,382.43,191.52,380.38,194.24Zm7.1,7.75-1.94-.16-1.15-5.35h-1.14c-.39,1.69-.79,3.38-1.23,5.27l-1.82.15c-.52-3.63,1-7,3.58-8.15C386.4,194.92,387.89,198.22,387.48,202Zm-9.55,35.83a1.5,1.5,0,0,0,1.1,1c.4,0,.83-.59,1.55-1.16-.78-.49-1.27-1-1.66-1A1.51,1.51,0,0,0,377.93,237.82Zm3.65,2.57,1.13.13c.13-.65.27-1.3.4-2l-1.53-.17Zm3.22-.35,1.15.47.79-1.71-1.32-.52C385.22,238.87,385,239.45,384.8,240Z"/></svg>