<svg xmlns="http://www.w3.org/2000/svg" viewBox="0 0 750 750"><path d="M355.78,532.81c0,1.58,1,2.34,2.48,2.61,1.44-.22,2.46-.88,2.5-2.5s-.91-2.38-2.44-2.47A2.25,2.25,0,0,0,355.78,532.81Zm-4.12-64.76a2.42,2.42,0,0,0,2.52-2.65,2.45,2.45,0,0,0-2.51-2.29,2.47,2.47,0,1,0,0,4.94Zm-12.58,59.69a2.42,2.42,0,0,0-2.64-2.37,2.35,2.35,0,0,0-2.5,2.47,2.52,2.52,0,0,0,2.45,2.44A2.59,2.59,0,0,0,339.08,527.74Zm10.7,2.66a2.3,2.3,0,0,0-2.54-2.19,2.28,2.28,0,0,0-2.46,2.49c0,1.6,1.07,2.34,2.56,2.43S349.8,532.1,349.78,530.4Zm14-61.44a2.44,2.44,0,0,0-2.52-2.52,2.41,2.41,0,0,0-2.56,2.44,2.54,2.54,0,0,0,5.08.08Zm-35.31,55.33a2.53,2.53,0,0,0-2.25-2.7,2.46,2.46,0,0,0-2.8,2.28,2.53,2.53,0,0,0,5.05.42Zm-10.28-4.63a2.7,2.7,0,0,0-2.57-2.51,2.44,2.44,0,0,0-2.5,2.49,2.38,2.38,0,0,0,2.53,2.46A2.41,2.41,0,0,0,318.2,519.66ZM305.45,517a2.34,2.34,0,0,0,2.71-2.2A2.56,2.56,0,0,0,305.7,512a2.27,2.27,0,0,0-2.48,2.16A2.4,2.4,0,0,0,305.45,517Zm23.1,115.91c2.09-7.77-3.45-13.59-11.41-12.49-1,.14-2.07.36-3,.53L312.63,619H312c-.42,1.21-.85,2.42-1.32,3.75-3,1.89-5.62,4.27-7,7.74-.45,1.12-1.09,2.33.4,3.74l6.06-7,.65.38c0,.71,0,1.41,0,2.12q-.35,13.61-.67,27.22a4.92,4.92,0,0,0,.23,2.32c.35.64,1.21,1.42,1.81,1.39s1.36-.91,1.63-1.59a7.66,7.66,0,0,0,.14-2.55c0-2.83,0-5.65,0-8.45C322.26,646.1,326.54,640.34,328.55,632.86ZM314,624.72a36.82,36.82,0,0,1,5.81-.31c2.65.26,4.1,2.06,4.44,4.82.59,4.92-3.46,12.06-8,14.07-.65.28-1.34.46-2.25.77Zm67.41-154.86c-1.54,0-2.57.74-2.68,2.31a2.5,2.5,0,0,0,5,.36C383.85,470.94,382.89,470.14,381.42,469.86Zm55,186.18c0,1.64.21,3.74,2.06,3.79a59.2,59.2,0,0,0,10-1c.47-.07,1.08-1.35,1-2s-1-1.14-1.64-1.35a5.24,5.24,0,0,0-2.14.13c-1.63.23-3.25.48-4.78.72V642.49c2.07,0,3.78,0,5.48,0,1.32-.06,2.63-.44,2.76-2s-1.14-2.16-2.48-2.23c-1.88-.1-3.77,0-5.8,0-.2-4.87-.4-9.59-.61-14.43l8.5-.42a2.8,2.8,0,0,0-2.81-3.17,68.32,68.32,0,0,0-8.69.4,1.64,1.64,0,0,0-1.5,2.35l1.3,1.08c0,4.86,0,9.57,0,14.27a1.72,1.72,0,0,1-.18.54c-1.29.95-4,.41-3.7,2.78.09.76,2.14,1.3,3.64,2.13,0,.1,0,.74,0,1.39C436.75,648.77,436.56,652.4,436.46,656ZM381.51,353.18c-3.8-5.52-10-5.35-15.65-7.67,1.6,5.71-1.28,11.57,2.77,16.6l-13.11,1.95,9.33,9.77c-2,1.34-4.08,2.39-5.68,3.95-2.28,2.24-4.18,4.86-6.43,7.53,5.5,1.79,10.28,6.18,17.07,4-.8,4.58-1.54,8.84-2.34,13.47,4.35-2.27,8.25-4.29,11.86-6.16.84,2.18,1.38,4.47,2.53,6.4,1.63,2.74,3.7,5.22,5.73,8,2.89-4.69,7.9-8.12,8-14.66l12.51,6.48c-.83-4.91-1.57-9.36-2.25-13.37a75.26,75.26,0,0,0,8.06-.52,77.73,77.73,0,0,0,7.93-2.09c-3.25-4.55-4.65-10.66-11-13,2.72-2.59,5.28-5,7.76-7.45a8.85,8.85,0,0,0,1.14-2.24l-13.07-2c.58-1.64,1.47-3.11,1.55-4.61.22-3.89.07-7.8.07-11.78-4.65,2-10.47,1.86-14.37,6.62-1.58-3.26-3-6.29-4.53-9.26-.34-.66-1.09-1.12-1.86-1.89ZM368.63,349c4.07.52,7.9,1.19,10.77,4.32a2.82,2.82,0,0,1,.26,3.65c-.49.83-.9,1.71-1.31,2.48-1.85-2.46-3.61-4.87-5.48-7.2-.22-.27-1-.1-1.37-.13-1.38,1.24-.73,2.41,0,3.28,1.56,1.85,3.3,3.54,5.16,5.49l-5.46.87C366.84,358.17,368.71,353.55,368.63,349ZM365.58,388c-3.29-.23-6-1.75-8.77-3.69,2.91-3.57,4.66-8.34,10.1-8.09l4.64,4.18c-3.83,1.06-8.19-1.09-10.93,2.71,1,2.08,2.45,1.82,3.89,1.37,2.05-.64,4.08-1.37,6.16-2.08C371,386.69,369.51,388.24,365.58,388Zm21.88,18.75c-2.56-3.41-6.51-6.13-5.42-11.45l5.33-2.9c-.41,1.79-.81,3-1,4.28a19.88,19.88,0,0,0-.12,4.49c.06.57,1,1.48,1.45,1.46a2.13,2.13,0,0,0,1.57-1.39,47.17,47.17,0,0,0-.08-5.7c0-.77-.19-1.53-.35-2.75l4.49,2.44C394.23,399,391.69,403.85,387.46,406.71Zm30.4-21.08a81.55,81.55,0,0,1-8.56,1.84c-2.86.31-3.81-.7-4.33-3.55-.21-1.14-.42-2.28-.69-3.77,3.46,1.61,5.74,5.41,10.33,3.75-1.52-4.47-5.86-3.32-8.48-5l3.11-3.14C412.62,375.62,416.69,380.06,417.86,385.63ZM406.07,349c.73,6.38,1.18,9.94-2.46,12.73l-5.5-.92c2.33-2.73,6.28-4.16,5.77-8.79-4.45.36-4.47,4.42-6.8,6.77l-2.3-4.49C397.62,350.34,401.82,349.68,406.07,349Zm-16.94.08c2.07,4.22,4.15,8.43,6.17,12.68a3.13,3.13,0,0,0,2.79,2c5.4.69,10.78,1.61,16.1,2.43l-12.9,13.23c1,5.9,2,11.8,3,18.27l-16.53-8.69-16.57,8.57c1.09-6.34,2.12-12.29,3.15-18.23l-13-13.31,18.14-2.63,8.32-16.63C388.41,347.8,388.81,348.44,389.13,349.11Zm32.24,114.83a2.6,2.6,0,0,0-2.81,2.44,2.37,2.37,0,0,0,2.21,2.49,2.63,2.63,0,0,0,2.92-2.42A2.45,2.45,0,0,0,421.37,463.94Zm2.12,195.2c3.43,0,6.87-.31,10.29-.63.75-.08,1.45-.8,2.65-1.51-4-3.74-8.43-1-12.28-2.17.12-1.81.34-3.59.33-5.37q0-13.1-.18-26.19a8.39,8.39,0,0,0-.69-2.26h-.91a11.93,11.93,0,0,0-1,2.84c-.31,4-.53,8-.7,12.08-.28,6.48-.42,13-.74,19.44C420.15,658.19,420.67,659.14,423.49,659.14ZM425,531.81a2.4,2.4,0,0,0,2.48-2.35,2.54,2.54,0,1,0-5.08-.05A2.4,2.4,0,0,0,425,531.81Zm43.47-20.06a2.38,2.38,0,0,0-2.48-2.49,2.49,2.49,0,0,0-2.61,2.43,2.4,2.4,0,0,0,2.49,2.49A2.54,2.54,0,0,0,468.43,511.75ZM430,233c2.23-13.26-1-25.2-10-35.29a42.22,42.22,0,0,0-60.23-3.4,40.06,40.06,0,0,0-13.79,28c-1.15,18,6.71,31.48,22,41-13.9,8.64-21.63,20.74-21.73,37s7.56,28.38,21.28,37.24c-11.17,6.42-18.11,15.76-21.66,27.83-.72-2-1.44-3.93-2.18-5.92.4-.58.76-1.05,1.07-1.54a13.92,13.92,0,0,0,2-9.89c-.19-1.32-.81-2.72-2.27-2.54a5,5,0,0,0-2.89,1.9,8,8,0,0,0-.92,3c-.15.6-.19,1.24-.35,2.3-1.71-2.63-3.26-4.51-2.48-7.73.67-2.71.24-5.77-.13-8.63-.32-2.43-2-3.85-3.56-3.6s-2.53,2.07-2.42,4.5c.06,1.4.28,2.79.48,4.74-2.82-3-6.08-4.85-6.53-9a11.54,11.54,0,0,0-1.36-4.33,23.31,23.31,0,0,0-3.68-4.82,2.71,2.71,0,0,0-2.62-.3,3.07,3.07,0,0,0-.91,2.54,19.17,19.17,0,0,0,1.3,3.92c.16.44.35.87.55,1.38-3.1-1-5.95-2.09-8.89-2.81a12.67,12.67,0,0,0-9.76,1.57,6.33,6.33,0,0,0-2.67,7.95,5.6,5.6,0,0,0,6.5,3.7,3.69,3.69,0,0,0,3.33-3.8,3.91,3.91,0,0,0-3.68-3.54c-.57,0-1.14.05-1.75.08a4.46,4.46,0,0,1,4.11-2.9c4.68-.37,8.54,2,12.55,3.67a56.44,56.44,0,0,0-5.4,2.23,2.24,2.24,0,0,0-.85,2,3.17,3.17,0,0,0,1.69,1.65,4.49,4.49,0,0,0,2.14.1c3.09-.26,6.19-.56,9.27-.84l4.66,4.48a15.69,15.69,0,0,0-3.12-.13,21.16,21.16,0,0,0-5.48,1.36c-2.12,1-2,3.29.13,4.23a9,9,0,0,0,4.22.45c2.81-.24,5.6-.74,8.6-1.17,1.41,2.4,2.74,4.64,4.07,6.89a26.57,26.57,0,0,1-3.38-.8,20.38,20.38,0,0,0-5.82-.23,3.5,3.5,0,0,0-2.27,2.51c-.05.87,1.14,2.06,2.07,2.67a7.37,7.37,0,0,0,3.24.83c2.82.29,5.65.44,8.9.68.65,1.74,1.41,3.76,2.35,6.29a19.18,19.18,0,0,0-3.17-1.31,46.58,46.58,0,0,0-6.42-.91c-1.29-.07-2.73.67-2.63,2.13a4.23,4.23,0,0,0,1.78,2.94,12.38,12.38,0,0,0,4.54,1.22c2.22.28,4.47.32,6.67.46.95,5.41,1.88,10.71,2.83,16.14-14.14-3.5-26.91-.93-37.47,9.38s-13.44,23.12-10.15,37.68c-12-3-22.92-1.47-32.73,5.53s-15.13,16.65-16,28.68c-1.43,19.7,13.44,37.62,33.21,39.94,10,1.17,19.35-1,27.34-7.28,13.39-10.49,17.62-24.36,14-40.92,14.51,3.33,27.19.65,37.65-9.87s13-23.19,9.64-37.69a43.59,43.59,0,0,0,30.63-.24c-3.87,14.76-1.45,27.62,9,38.4s23.36,13.54,38.05,10.21c-2.93,12.22-1.25,23.43,6.31,33.33s17.67,15,30.14,15.11c20.44.2,37.14-15.79,38-36.59a35.65,35.65,0,0,0-8.86-25.69c-10.61-12.19-24.1-15.78-39.91-12.21,3.36-14.7.38-27.5-10.39-37.83s-23.81-12.76-38-8.91c1-5.35,2-10.58,3-16a41.74,41.74,0,0,0,4.75-.28,30.19,30.19,0,0,0,6.49-1.51,3.26,3.26,0,0,0,1.49-2.81,3.22,3.22,0,0,0-2.41-2,45.17,45.17,0,0,0-7.17,1.08,10.49,10.49,0,0,0-2,.83l-.34-.4c.77-2,1.55-4,2.3-5.9.65,0,1,0,1.3,0,3.48-.35,7-.53,10.41-1.17a4,4,0,0,0,2.42-2.65c.32-1.55-1.11-2.66-2.54-2.74a30.52,30.52,0,0,0-6,.5,13.34,13.34,0,0,0-2.67,1l-.33-.38,4.19-6.83c3.13.46,5.93,1,8.75,1.21a8.69,8.69,0,0,0,4.35-.71,2,2,0,0,0,.07-3.79,21.79,21.79,0,0,0-5.41-1.58,18.34,18.34,0,0,0-3.28,0l4.24-4.27c.7,0,1.16,0,1.61.08,2.9.27,5.8.59,8.71.8,1.3.09,2.81-.14,2.93-1.67a3.39,3.39,0,0,0-1.51-2.59,26.81,26.81,0,0,0-4.89-1.66c3.86-1.77,7.48-3.72,11.64-3.81,1.47,0,3,.86,4.43,1.45.42.18.65.81,1.2,1.53a21.67,21.67,0,0,0-2.21-.12,3.83,3.83,0,0,0-3.57,3.19,3.46,3.46,0,0,0,2.18,3.85,5.88,5.88,0,0,0,7.29-2.73c2-3.91.1-8-4.36-9.64s-8.48-.79-12.58.83c-1.31.52-2.62,1-3.94,1.53a60.34,60.34,0,0,0,1.77-5.85,2.56,2.56,0,0,0-1-2.15,3.18,3.18,0,0,0-2.35.14,5.39,5.39,0,0,0-1.67,1.37c-2.49,2.48-3.17,5.79-3.87,9-.79,3.64-3.8,5.17-6,7.65a39.78,39.78,0,0,0-.1-6.43A3.44,3.44,0,0,0,441,334c-.85-.13-2,1-2.79,1.69a2.75,2.75,0,0,0-.75,1.8c-.13,3-.71,6.05,0,8.83.76,3.17-.95,4.89-2.48,7.45-.17-.95-.23-1.45-.35-1.95a23.69,23.69,0,0,0-.88-3.23,2.76,2.76,0,0,0-3-2.05c-1.5.22-2.07,1.38-2.2,2.7a11.33,11.33,0,0,0,0,3.94c.68,2.57,1.69,5.06,2.57,7.58a12,12,0,0,1-1,4,4.91,4.91,0,0,1-.65.85,43.71,43.71,0,0,0-20.41-27.7c14.13-8.78,22-20.95,22-37.5s-8-28.67-22.17-37.47C420.36,256,427.73,246.22,430,233ZM309.35,499.86a34,34,0,1,1-9.59-59.24,5.32,5.32,0,0,1,3.14,2.76c1.25,2.31,2.78,4.48,4.09,6.55l-9.78,3.24c-1-3.17-2.22-6.87-3.55-11-2.44,3.44-4.64,6.56-7,9.94-2.92-5.51-8.53-5.92-13.55-8.29.51,5.2-2,10.1,1.13,15h-12l-.43.47,6.85,9.28c-5.63.72-7.6,6.07-12.09,8.81,4.87,2.11,8.68,6,14.61,5.1l-3.66,11.25a9.2,9.2,0,0,0,2.44,0c2.82-.89,5.6-1.89,8.65-2.93-.51,5.5,3.23,9.07,5.15,13.83,2.73-4.54,8.17-6.45,8.82-12.19l9.92,7.24a13.3,13.3,0,0,0,.57-2.41c.05-3,0-5.94,0-9.2,5.28,2.17,10-.55,14.92-1.5a72.13,72.13,0,0,0-3.63-6.26c-1.35-1.9-3.05-3.56-4.76-5.51,1.3-.93,2.92-2.08,4.54-3.25l5.25-3.81-11.21-3.53c1.1-3.29,2.14-6.42,3.25-9.75.21.13.67.41,1.13.71,2,1.31,4,2.54,5.92,4a6.92,6.92,0,0,1,2.43,2.88A33.78,33.78,0,0,1,309.35,499.86Zm-6.5-20.16a20.46,20.46,0,0,1,3.62-2.59,3.28,3.28,0,0,1,2.87.26,27.13,27.13,0,0,1,3.71,4.54,18.73,18.73,0,0,1,1.42,3c-3.63,2.53-8.78,2.91-11.46.74v-3.89c2.84.48,4.86,4,8.62,2.1C309.79,479.94,305.93,480.89,302.85,479.7Zm-2.43-1.48V494.9l-13.32-9.8-15.81,5.42c1.81-5.5,3.49-10.57,5.24-15.87l-9.87-13.18h16.51l9.65-13.67c1.77,5.52,3.42,10.67,5.08,15.87l15.91,4.9Zm-15.55,19.14c2.88-2.71,1.56-5.87,1.76-8.7,3.85.56,5.34,3.36,3.16,6.39a58.11,58.11,0,0,1-5.39,5.72c-2.48-3.26-4.63-6.28-4-10.6l4.1-1.41C284.78,491.65,282,494.42,284.87,497.36Zm-17.74-19.68c1.92-.39,3.81-.94,5.74-1.43,0,3.9-1.61,5.47-5.08,4.46-2.53-.73-4.87-2.15-7.75-3.48,2.17-2.18,3.7-4.23,5.7-5.61,3.65-2.53,5-1.4,7,2.94-2.79.16-5.72-.95-8.23.9C264.33,477.37,265.16,478.08,267.13,477.68Zm10-25.08a23.39,23.39,0,0,0,3.17,4,8.24,8.24,0,0,0,2,1.22l-.6.83h-5.07c-3.67-3.22-1.87-7.32-1.38-11.25,4.37-.2,9.05,2.84,10,6.64l-2.18,3c-2.17-2.28-1.87-6.22-6-7.41C277,450.92,276.72,452,277.1,452.6Zm26.66,10.25c-.72-.3-1.49-.47-2.64-.82,1.71-1.46,3.22-2.67,4.62-4s1.41-2.22,0-3.45c-3.32.69-4,4-6.06,6.49-.55-1.79-1-3.33-1.51-4.91,2.55-4.07,6.69-3.39,10.63-3.86.42,3.57.13,6.81-1.92,9.73A2.34,2.34,0,0,1,303.76,462.85Zm53.43-10.36a34,34,0,1,1-9.87-58.92,7.66,7.66,0,0,1,4.5,3.61c1.13,2,2.6,3.79,4.2,6.06-4.16.26-7.93.62-11.11,3.56-1.26-3.89-2.46-7.59-3.81-11.73-2.43,3.47-4.61,6.56-6.56,9.33a57.35,57.35,0,0,0-6.35-4.62,63,63,0,0,0-7.67-3c.65,5.09-2.09,10,1.19,14.92H309c1.35,1.94,2.36,3.46,3.44,4.92s2.33,3,3.73,4.83c-5.63.81-7.68,6.05-12.16,8.85,4.86,2.11,8.66,6,14.62,5.07-1.22,3.76-2.36,7.3-3.65,11.27a9.66,9.66,0,0,0,2.5,0c2.77-.88,5.5-1.87,8.52-2.92-.41,5.39,3.19,9,5.21,13.77,2.77-4.4,8-6.4,8.84-12.1l10,7.25a13.35,13.35,0,0,0,.59-2.5c.05-3,0-5.93,0-9.17,5.22,2.24,9.92-.61,15.25-1.5-3.52-3.72-4.22-9.12-9.31-11.37,3.48-2.51,6.72-4.83,10.33-7.42l-12-3.8c3-3.07,3.27-6.9,3.61-10.92,3.05,2.18,5.82,4.07,8.47,6.11a5,5,0,0,1,1.22,2.22A33.91,33.91,0,0,1,357.19,452.49Zm-1.76-18.73a48.42,48.42,0,0,0-5.28-1c1.56-1.13,2.7-2.41,4.08-2.79a4.72,4.72,0,0,1,3.48,1.05,11.49,11.49,0,0,1,2.51,3.26c.68,1.11,1.15,2.36,1.72,3.54-3.31,2.63-9.15,3-11.5.65v-3.8c2.81.64,4.82,3.77,8.21,2.51C358.9,434.52,356.93,434.24,355.43,433.76Zm-7.58-2.61v16.64L334.55,438l-15.81,5.43c1.84-5.56,3.49-10.57,5.25-15.87l-9.89-13.22h16.56l9.62-13.64c1.75,5.48,3.38,10.56,5.08,15.85l15.91,4.93Zm-15.53,19c3-2.61,1.58-5.78,1.75-9.18l4.14,2.94c.29,5-3.74,6.82-6.5,9.61-2.29-3.14-4.51-6.16-3.9-10.49l4.17-1.43C332.36,444.44,329.33,447.26,332.32,450.19Zm-12-20.94c0,3.89-1.53,5.38-5.19,4.35-2.51-.72-4.82-2.16-7.51-3.42,3.13-3.14,4.88-7.18,10-6.8.9,1.22,1.84,2.51,3,4.07-3.31.23-6.62-1.21-9.41,1.95C314.66,432,317.47,429.26,320.35,429.25Zm9.09-17.64h-5.31c-3.74-3.25-1.83-7.4-1.44-11.38,4.84.21,8.89,2.83,10,6.58-.61.92-1.32,2-2.27,3.44-.89-1.76-1.6-3.2-2.34-4.62s-1.25-3-3.84-2.47C323.88,407.23,327.56,408.74,329.44,411.61Zm23.33,4.61-4.2-1.26c1.74-1.5,3.27-2.72,4.68-4.07s1.37-2.23-.08-3.41c-3.28.77-4,4.11-6,6.54-.54-1.79-1-3.28-1.39-4.62,1.13-3.6,5.61-4,10.46-4.06C357.2,409.28,355.75,414.12,352.77,416.22Zm130.86,23.59a34,34,0,1,1-28.52,23,7,7,0,0,1,2.42-2.88c1.78-1.37,3.74-2.49,5.61-3.74.53-.34,1-.74,1.41-1,1.13,3.38,2.15,6.47,3.27,9.83l-11.21,3.53,10.31,7.44c-5.07,2.21-5.69,7.66-9.36,11.31,5.35,1,10,3.82,15.35,1.5.63,3.83-.54,7.58.49,11.78l10-7.29c.73,5.64,6.06,7.63,8.83,12.14,2-4.71,5.62-8.32,5.19-13.72,3.69.8,6.92,2.89,11.15,3.16l-3.72-11.44c5.71.76,9.61-3,14.2-5a67.91,67.91,0,0,0-5.16-5.38,63.05,63.05,0,0,0-6.2-4.16c.89-1.16,2-2.62,3.16-4.12s2.19-3.05,3.59-5H501.72c3.25-5,.68-9.85,1.27-15.08-5,2.27-10.61,2.68-13.58,8.26l-7-9.95c-1.33,4.09-2.54,7.8-3.58,11L469,450.69c.72-1,1.94-2.18,2.43-3.59C473.46,441.16,478.51,440.39,483.63,439.81ZM498.57,451c-.62-.24-2.07.67-2.58,1.43a51.43,51.43,0,0,0-2.87,5.63c-.9-1.26-1.64-2.28-2.29-3.18.8-3.77,5-6.59,9.93-6.78.51,3.94,2.3,8-1.39,11.38h-5l-.37-.68c.95-.81,2-1.56,2.84-2.45a11.64,11.64,0,0,0,1.92-2.5C499.29,452.92,500,451.56,498.57,451Zm-5.77,11.17h16.65l-9.94,13.25,5.25,15.88L489,485.89l-13.26,9.76V479.07l-13.44-9.69,15.88-4.92c1.65-5.14,3.31-10.29,5.09-15.87Zm10.66,13.19c.47-3.62,3.32-5.19,6.28-3.39a17.52,17.52,0,0,1,3.15,2.69c.91.93,1.69,2,2.84,3.37a55.3,55.3,0,0,1-7,3.34c-3.76,1.2-5.31-.07-5.69-4.38,2.11.53,4,1.09,5.94,1.48s2.6-.29,2.62-2.15C509.14,474.37,506.22,475.48,503.46,475.38ZM491.09,498.1c3.1-2.9.11-5.63.47-8.53l4,1.31c.82,4.29-1.47,7.29-3.79,10.58-1.71-1.57-3.62-2.86-4.89-4.61-3-4-2.11-5.47,2.48-7.61C489.62,492.25,488.3,495.41,491.09,498.1ZM473,482.51v3.93c-2.41,2.14-7.15,1.88-11.66-.78a61,61,0,0,1,3.93-6.29c1.9-2.38,3.12-2.38,5.54-.67.74.52,1.45,1.08,2.33,1.75-2.93,1.32-6.88.2-8.72,4.27C468.17,486.42,470.18,483.2,473,482.51Zm3.33-20.39a41.92,41.92,0,0,0-2.2-3.57,13.61,13.61,0,0,0-2.58-2.67,1.38,1.38,0,0,0-2,1.91,35,35,0,0,0,3.36,3.31c.56.51,1.17,1,1.84,1.51-4.15,2.13-5.71,1.62-6.95-2.51a46.25,46.25,0,0,1-1-6.52c4.33-1.14,9.18.42,11,3.49C477.36,458.58,476.92,460.08,476.32,462.12Zm-9.95-56.78a33.89,33.89,0,0,1,1.8,39.9C456,463.41,430.45,466,415.46,450.17c-9.89-10.41-12.14-22.76-7.13-36.25a10.85,10.85,0,0,1,3.18-3.84c1.7-1.52,3.62-2.79,5.68-4.34.92,4.18.46,8.55,4,11.89l-12,3.81,10.36,7.44c-5.17,2.25-5.79,7.68-9.39,11.32,5.33.95,10,3.72,15.34,1.53.79,3.8-.78,7.56.51,11.71l10-7.29c.73,5.69,6.06,7.66,8.82,12.11,2-4.7,5.62-8.33,5.22-13.66,3.72.75,6.9,3,11.07,3l-3.7-11.42c5.89.94,9.71-3,14.63-5-4.43-2.7-6.38-8-12.13-8.82,2.39-3.22,4.63-6.26,7.19-9.72h-12.8c3.34-4.89.51-9.86,1.37-15.17-5.09,2.42-10.75,2.82-13.73,8.37l-7-9.93c-1.33,4.1-2.54,7.79-3.82,11.73-3.35-3.23-7.56-3.23-11.76-3.94,2.81-2.93,3.79-7.19,8.1-8.85A34.19,34.19,0,0,1,466.37,405.34Zm-14.58-1.71c-4.6.56-4,5-6.35,7.12l-2.06-3c.78-3.72,4.6-6.31,10-6.8.4,4,2.31,8.11-1.46,11.46h-5.29C448.5,409.58,452.09,408,451.79,403.63ZM445.29,415H462c-3.49,4.66-6.73,9-10,13.32,1.72,5.23,3.39,10.29,5.23,15.86l-15.82-5.4-13.2,9.72V432l-13.5-9.72,15.91-4.91c1.67-5.22,3.32-10.35,5.09-15.87Zm10.19,13.28,2.9-4.15c5.17-.34,6.9,3.7,9.93,6.72a52.5,52.5,0,0,1-6.71,3.36c-3.92,1.33-5.5.12-6-4.2,2.93-.1,5.82,2.79,9.29.12C462.13,427.11,458.86,428.39,455.48,428.32ZM443.73,451c3-2.87,0-5.68.34-8.53l3.95,1.36c.8,3.18-.43,6.58-3.72,10.5-2.72-2.7-6.68-4.47-6.49-9.49l4.09-3C442.26,445,440.64,448.34,443.73,451Zm-26.32-13.08c3.33,1.38,5.34-1.76,8.15-2.46v3.8c-2.09,2.3-6.25,2.18-11.75-.57A69.37,69.37,0,0,1,418,432.1c1.73-2.15,2.94-2.11,5.22-.53l2.28,1.63c-2.62.92-5.11,1.77-7.59,2.69-.25.09-.44.5-.52.8A4.57,4.57,0,0,0,417.41,437.88Zm12.28-25.66c-.21.75-.46,1.49-.8,2.6-2.07-2.51-2.77-5.71-5.95-6.54-1.52,1.08-1.62,2-.21,3.34s3,2.59,4.73,4.11l-4,1.24c-3-1.53-4.53-6.18-3.63-11.13a59.36,59.36,0,0,1,7.28,1.32C430.05,408.06,430.53,409.31,429.69,412.22Zm-3.85-37.51a38,38,0,1,1-38-38.16A38,38,0,0,1,425.84,374.71Zm-60.67-64.58c2.07-.64,4.11-1.38,6.63-2.24-.34,1.84-.6,3.23-.82,4.41-2.68,2.64-9.28,1.08-13.28-2.51,2.84-3.45,4.59-8.27,9.61-8l5.05,4.22c-3.88,1-8.23-1.11-10.95,2.74C362.41,310.72,363.79,310.57,365.17,310.13Zm10-5.14-12.91-13.24,18.07-2.6,8.39-16.74L397,289.22l17.93,2.67L402,304.83c1,6.16,2,12.12,3.09,18.6l-16.53-8.7L372,323.31C373.12,317,374.15,311,375.18,305Zm-2.95-24c1.57,1.86,3.32,3.55,5.27,5.6l-5.46.87c-4.44-3.59-2.54-8.27-2.6-12.78,3.88.53,7.54,1.16,10.41,3.95a2.92,2.92,0,0,1,.67,3.92c-.5.85-.91,1.76-1.41,2.76-2.57-2.31-2.52-6.91-6.61-7.61C370.91,278.9,371.49,280.11,372.23,281Zm32.49-3.3c-4.49.41-4.53,4.46-6.84,6.79l-2.23-4.35c1.92-3.17,6-5.07,11.11-5.36.8,5,1.47,10-2.43,12.68l-5.41-1C401.27,283.77,405.17,282.32,404.72,277.69ZM414,307.12a34.2,34.2,0,0,0-5-1.84c-.67-.22-1.37-.36-2.7-.71a19.53,19.53,0,0,0,1.58-1.22c2.68-2.66,3.54-2.68,6.35-.12a16.1,16.1,0,0,1,4.52,8,80.86,80.86,0,0,1-8.74,1.84c-2.76.3-3.71-.74-4.2-3.48-.21-1.14-.42-2.29-.72-4,1.16.79,1.94,1.4,2.8,1.88a37.47,37.47,0,0,0,4.9,2.47c.59.22,1.49-.41,2.25-.66C414.66,308.6,414.53,307.42,414,307.12ZM382.88,320.9l5.29-2.88c-.41,1.77-.82,3-1,4.28a20.46,20.46,0,0,0-.11,4.49c.06.57,1,1.47,1.45,1.46a2.14,2.14,0,0,0,1.56-1.41,47.2,47.2,0,0,0-.08-5.7c0-.77-.19-1.53-.34-2.7l4.38,2.32c1.1,3.55-1.44,8.64-5.81,11.56C385.59,328.89,381.71,326.18,382.88,320.9Zm41.68-33a38.1,38.1,0,0,1-18.87,46.4,5.66,5.66,0,0,1-4.56.4c-3-.92-6.12-1.56-9.56-2.41,2.7-2.85,4.66-5.94,4.81-10.22l12.48,6.47c-.81-4.83-1.56-9.28-2.37-14.1,5.75,2.46,10.59-1.55,16.42-1.42-3.53-5-4.94-11.09-11.09-13.37,2.49-3.5,6.55-5.46,9-9.71l-13.72-2.1c4-5,1.21-10.87,2.61-16.58-5.24,2.18-11.06,2.1-15,6.87-1.58-3.24-3-6.31-4.58-9.32a10.9,10.9,0,0,0-1.78-1.9l-6,12c-3.72-5.47-10-5.3-15.59-7.65,1.48,5.66-1.34,11.47,2.71,16.6l-13.21,2,10.28,10.16c-6.89,1.13-8.52,7.45-13.38,10.93,5.88,2,10.66,6.3,17.49,4.13-.8,4.51-1.54,8.74-2.37,13.46L380.56,322c.06,4.08,2.08,7.2,4.72,10.31-2.27.36-4.27.67-6.27,1a8.55,8.55,0,0,0-2.5.6c-2.75,1.44-5,.43-7.41-1a38,38,0,1,1,55.46-45.09Zm-59.82-52.44c2.07-.64,4.11-1.39,6.17-2.1.89,3.54-.56,5.55-4,5.6-3.68.06-6.72-1.57-9.74-3.73,2.92-3.57,4.67-8.37,10-8.08l4.78,4.2c-3.84,1-8.21-1.13-10.93,2.71C362,236,363.36,235.84,364.74,235.41Zm10.05-5.21L361.85,217l18.09-2.61,8.4-16.73,8.26,16.81,17.89,2.66-12.83,13.05c1,6.08,2,12,3.07,18.5L388.2,240l-16.57,8.58C372.73,242.21,373.76,236.22,374.79,230.2Zm-2.93-23.9c1.58,1.83,3.37,3.49,5.34,5.5l-5.38.9c-3.93-2.59-3.28-6.76-2.62-12.76,3.19.53,6.38.94,9.08,3s2.85,2.9,1.37,5.84c-.29.58-.62,1.15-1,1.82-2.51-2.49-2.53-6.91-6.59-7.61C370.51,204.22,371.12,205.43,371.86,206.3Zm29.08-1.9c-1.17,1.66-2.14,3.45-3.38,5.47l-2.37-4.61c2.77-4,7-4.6,11.38-5.36.07,4.44,1.8,9-2.41,12.79l-5.69-.92c2.31-2.52,5.51-4,6.15-7.45C403.51,202.62,402.19,202.61,400.94,204.4Zm5.49,25.38,3.07-3.12c3.56-.09,7.68,4.45,8.74,9.9a79.17,79.17,0,0,1-8.57,1.82c-2.86.31-3.78-.69-4.31-3.57l-.67-3.66c3.43,1.33,5.67,5.45,10.32,3.59C413.42,230.43,409.28,231.43,406.43,229.78Zm-23.95,16.38,5.29-2.88c-.43,1.86-.85,3.18-1,4.52a18.83,18.83,0,0,0-.06,4.31c.06.54.91,1.44,1.3,1.39a2.25,2.25,0,0,0,1.67-1.28,19.47,19.47,0,0,0,.11-4.32c0-1.24-.28-2.48-.49-4.23l4.43,2.41c1,3.65-1.52,8.55-5.84,11.53C385.27,254.22,381.32,251.5,382.48,246.16Zm22.18,13.62a4.06,4.06,0,0,1-2.27.49c-3.67-.73-7.31-1.61-11.37-2.54,2.69-2.92,4.9-6.09,4.94-10.47l12.49,6.5c-.81-4.85-1.55-9.33-2.35-14.11,5.81,2.44,10.66-1.56,16.43-1.46-3.55-4.91-4.92-11-11.31-13.39l4.48-4.29c1.15-1.1,2.33-2.16,3.41-3.32a10,10,0,0,0,1.09-2.07l-13.54-2.07c4-5,1.19-10.83,2.71-16.57-5.32,2.13-11.12,2.11-15.07,6.84-1.58-3.24-3-6.32-4.59-9.35a10.55,10.55,0,0,0-1.78-1.83l-6,12c-3.69-5.55-10-5.28-15.4-7.65.23,4.41.36,8.51.73,12.58.12,1.33.91,2.59,1.45,4.05l-12.49,1.83,9.95,10.22c-7,1.24-8.62,7.55-13.16,10.75,8.73,4.12,10.81,5.82,17.2,4.44-.77,4.39-1.51,8.66-2.32,13.33l12.27-6.37c.15,4.26,2.26,7.54,5.35,10.83-1.4.18-2.41.26-3.39.45a22.35,22.35,0,0,0-5,1.13c-2.63,1.21-4.77.49-7.1-.78-14.06-7.67-21.7-23.26-19.28-39.55,2.27-15.28,14.54-28,29.94-31.06A38,38,0,0,1,417.29,250,36.6,36.6,0,0,1,404.66,259.78Zm83.65,383.9c3.32-.46,6.65-.89,9.94-1.51,1.37-.26,2.72-1,2.77-2.69s-1.33-2.57-2.7-3a30.81,30.81,0,0,0-5.19-1.22c-1.91-.3-3.85-.38-5.89-.56.52-1.17,1-2.11,1.36-3.09.49-1.33.87-2.72-.38-3.86s-2.75-.81-4.07-.12a15.29,15.29,0,0,0-7.63,8.25,11.48,11.48,0,0,0-.58,4.44c.26,4.81,3.1,8.29,6.34,11.48a6.66,6.66,0,0,0,2.36,1.41c2,.73,3.82-.44,3.65-2.52a23.43,23.43,0,0,0-1.4-5.08,13,13,0,0,0-1-1.88A19,19,0,0,0,488.31,643.68Zm-2.11-14.23c-.91,4.13-2.42,6.31-6.9,6.29A13.6,13.6,0,0,1,486.2,629.45ZM485,650c-2.56-1.83-4.27-4.36-5.95-7.53l2.84.64c.25.06.5.15,1,.32.86,2,1.78,4.1,2.71,6.22Zm-6.17-10.55a30.42,30.42,0,0,1,18.66.18A32,32,0,0,1,478.84,639.43ZM469.73,548a4.25,4.25,0,0,1,3-3.81c1.13-.44,2.29-.82,3.43-1.22a1.82,1.82,0,0,0-1-.4c-3.64-.67-4.83-1.85-5.45-5.4l-1-5.67a29.31,29.31,0,0,0-1.58,6.71,4.05,4.05,0,0,1-2.79,3.51c-1.09.44-2.23.73-3.49,1.14.24.18.38.36.55.39,4.31.64,6.21,3.21,6.22,7.48a19.21,19.21,0,0,0,.75,3.77A29.21,29.21,0,0,0,469.73,548ZM456.24,648.59c-1.33.7-2.52,1-3.15,1.71-1.28,1.5-1.1,3.35-.36,5.07,1.6,3.73,3.61,4.69,8.39,4.12,4.49-.53,7.19-3.63,6.37-8.07a27.64,27.64,0,0,0-3.13-8.86,35.47,35.47,0,0,0-6.28-7.37,9.18,9.18,0,0,1-2.72-8.86c.34-2,1.34-2.85,3.38-2.86s3.36.88,4.12,3c.34.94.76,1.86,1.14,2.79l.78,0a5.15,5.15,0,0,0,.8-1.39,6.76,6.76,0,0,0-5-7.35c-3.95-.85-7.26.92-8.2,4.34-1.43,5.21-.67,9.84,3.45,13.64a12.14,12.14,0,0,1,2.18,2.3c1.77,2.84,3.86,5.59,5,8.67,1.51,4.07,1.75,6.23-4.27,6.61C454.64,654.75,456.93,651.53,456.24,648.59Zm-.15-128.84a2.54,2.54,0,0,0,2.59-2.48,2.48,2.48,0,0,0-2.6-2.53,2.51,2.51,0,0,0,0,5Zm-10,4.75a2.54,2.54,0,0,0,2.5-2.44,2.44,2.44,0,0,0-2.43-2.57,2.51,2.51,0,1,0-.07,5Zm-52.14-51.89a2.5,2.5,0,0,0-2.52-2.62,2.38,2.38,0,0,0-2.57,2.44,2.3,2.3,0,0,0,2.51,2.48A2.38,2.38,0,0,0,393.93,472.61Zm41.6,56a2.61,2.61,0,0,0,2.65-2.45,2.56,2.56,0,0,0-5.12-.12A2.5,2.5,0,0,0,435.53,528.58Zm-55,3.81a2.33,2.33,0,0,0-2.44,2.49,2.37,2.37,0,0,0,2.56,2.43,2.32,2.32,0,0,0,2.42-2.55C383,533.12,382,532.44,380.51,532.39ZM355.32,639.76c1.17,5,2.12,10.1,3.26,15.13a6.9,6.9,0,0,0,1.47,3,2.54,2.54,0,0,0,2.24.68,2.79,2.79,0,0,0,1.19-2c1.41-10.34,1.12-20.74,1.09-31.13a13.86,13.86,0,0,0-.32-3.15,8.24,8.24,0,0,0-1-1.94c-2.06,1.16-1.72,2.89-1.79,4.26-.33,6.86-.5,13.72-.73,20.58-1.81-8.39-5.32-16.18-8.31-24.15-2,0-2.88.71-3.06,2.2a25.22,25.22,0,0,0-.36,3.35q.17,14.19.42,28.38a7.07,7.07,0,0,0,.54,2.7,2,2,0,0,0,1.5,1,2.19,2.19,0,0,0,1.42-1.11,3.5,3.5,0,0,0,.22-1.73q-.19-10.53-.42-21c0-.78,0-1.56,0-2.35A34.1,34.1,0,0,1,355.32,639.76ZM368.56,471a2.46,2.46,0,0,0,2.38,2.55,2.28,2.28,0,0,0,2.73-2.2,2.31,2.31,0,0,0-2.31-2.66C369.81,468.55,368.92,469.43,368.56,471Zm23.11,66a2.32,2.32,0,0,0,2.63-2.32,2.45,2.45,0,0,0-2.41-2.58,2.5,2.5,0,0,0-2.64,2.36A2.32,2.32,0,0,0,391.67,537Zm8.75-3.45a2.32,2.32,0,0,0,2.44,2.54,2.38,2.38,0,0,0,2.59-2.42,2.42,2.42,0,0,0-2.67-2.52A2.3,2.3,0,0,0,400.42,533.59Zm13.61.73a2.37,2.37,0,0,0,2.52-2.3,2.47,2.47,0,0,0-2.58-2.59c-1.49.14-2.52.93-2.49,2.51A2.24,2.24,0,0,0,414,534.32Zm-82.42,126.6c1.58-.3,2.78-.51,4-.76,2.72-.57,5.46-1,8.13-1.81.73-.21,1.21-1.29,1.81-2-.74-.59-1.41-1.5-2.26-1.71a7.29,7.29,0,0,0-3.12.25c-1.66.36-3.28.87-5,1.32V643.89c1.59-.18,3-.26,4.33-.51s2.71-.7,3.92-1c.17-2.45-.72-3.33-3-3.18-1.76.11-3.5.44-5.35.68-.28-5.35-.56-10.53-.85-16,1.25,0,2.48.07,3.71,0a30.39,30.39,0,0,0,5.49-.65,2.77,2.77,0,0,0,1.6-2.06c0-.54-1.07-1.26-1.79-1.71a2.68,2.68,0,0,0-1.55-.07c-2.31.22-4.62.4-6.9.77a19.23,19.23,0,0,0-3.19,1.08ZM414,469.64A2.37,2.37,0,0,0,411.6,467a2.47,2.47,0,1,0-.34,4.92A2.42,2.42,0,0,0,414,469.64Zm21.31-245a2.33,2.33,0,0,0,2.35,2.6,2.43,2.43,0,0,0,2.59-2.58,2.31,2.31,0,0,0-2.38-2.34A2.2,2.2,0,0,0,435.26,224.61ZM570.27,62c3.94,3.51,8.73,4.38,13.82,4,1.55-.11,3.12-.55,3.56-2.32.49-2-.83-3.13-2.36-3.91s-3.22-1.34-4.51-1.87c2.23-2.85,4.6-5.67,6.72-8.67,1-1.45,2.3-3.37.59-5s-3.56-.67-5.11.35c-2.75,1.8-5.36,3.81-8.08,5.77a13.28,13.28,0,0,0-1.36-3.42c-.67-.91-1.88-2-2.8-2a3.89,3.89,0,0,0-2.64,2.19,14.53,14.53,0,0,0,.26,12.1A8.59,8.59,0,0,0,570.27,62Zm14.12.31c-.06.21-.12.42-.19.63-3.2.61-6.25-.12-9.64-1.18l3.31-2.11ZM586,46.86a37.2,37.2,0,0,1-13.65,13.23C572.68,56.49,581.63,47.74,586,46.86Zm-15.39.55c2.49,3.41,2.3,5.91-.57,9.49A13.84,13.84,0,0,1,570.6,47.41Zm-20.88-1.69c.56-.75,1.45-1.45,1.6-2.27a1.69,1.69,0,0,0-2-2.1,2.91,2.91,0,0,0-2,1.85c-.07.78.91,1.66,1.43,2.5Zm-19.94,0c.58-.79,1.62-1.59,1.6-2.38a2.94,2.94,0,0,0-1.85-2,1.68,1.68,0,0,0-2.12,1.94c.08.83.93,1.59,1.43,2.39Zm-10.69,0,1,0c.51-.82,1.47-1.69,1.4-2.46a2.94,2.94,0,0,0-2-1.88,1.66,1.66,0,0,0-2,2C517.6,44.18,518.52,44.92,519.09,45.71Zm19.79,0,.89,0c.56-.75,1.46-1.44,1.61-2.26.24-1.27-.62-2.13-2-2.19a1.8,1.8,0,0,0-2.06,2.09C537.46,44.19,538.34,44.92,538.88,45.7Zm48,36.81a1.69,1.69,0,0,0,2,2c.85-.14,1.58-1.07,2.36-1.65l0-1c-.84-.5-1.72-1.45-2.49-1.37A2.94,2.94,0,0,0,586.84,82.51Zm2,107.35a2.89,2.89,0,0,0-2,1.84,1.69,1.69,0,0,0,1.86,2.16c.86-.08,1.66-1,2.48-1.47l0-1C590.42,190.85,589.62,189.84,588.84,189.86Zm0,9.94a2.9,2.9,0,0,0-2,1.82,1.69,1.69,0,0,0,1.85,2.17c.87-.07,1.66-.94,2.49-1.45l0-1C590.43,200.8,589.63,199.78,588.85,199.8Zm-.15,49.69a3,3,0,0,0-1.86,2,1.69,1.69,0,0,0,2,2c.86-.14,1.58-1.08,2.37-1.66,0-.32,0-.64,0-1C590.35,250.37,589.47,249.41,588.7,249.49Zm-1.32,63.29c.43.51,2,.83,2.33.5a3.44,3.44,0,0,0,1-2.61c-.22-1.59-1.57-1.71-3.13-1.39A2.31,2.31,0,0,0,587.38,312.78ZM500.15,45.69c.52-.82,1.38-1.6,1.47-2.46a1.68,1.68,0,0,0-2.13-1.88,2.88,2.88,0,0,0-1.84,2c0,.78,1,1.59,1.54,2.39Zm-39.77,0c.52-.78,1.38-1.5,1.49-2.34a1.69,1.69,0,0,0-2.05-2c-.79.18-1.89,1.23-1.92,1.93s1,1.62,1.53,2.43Zm-10.91,0h.89c.55-.76,1.43-1.46,1.57-2.29.22-1.27-.65-2.11-2-2.15a1.81,1.81,0,0,0-2,2.13C448,44.22,448.92,44.94,449.47,45.7Zm-10-.32c1.27.39,2.09-.68,2.12-2s-.51-2.18-2.43-2.56c-.57.77-1.67,1.6-1.59,2.29A3.22,3.22,0,0,0,439.5,45.38ZM577,76.4v243l4.13-3.05V72.57A23.26,23.26,0,0,1,566,65.93c-4.27-4.15-7-9-6.28-15.38h-4.22q-57.54,0-115.08-.06c-3.32,0-4.57,2.44-6.49,4.36H555.65C558.31,66.48,564.77,74.16,577,76.4ZM490.1,45.72c.56-.8,1.46-1.55,1.58-2.41a1.66,1.66,0,0,0-2.05-2c-.78.18-1.88,1.19-1.92,1.89s.92,1.63,1.45,2.46ZM591.18,211.11c-.83-.5-1.71-1.45-2.49-1.37a2.94,2.94,0,0,0-1.85,2,1.7,1.7,0,0,0,2,2c.86-.15,1.58-1.08,2.36-1.66C591.21,211.76,591.2,211.43,591.18,211.11ZM526.25,451.05a2.49,2.49,0,1,0,.11,5,2.4,2.4,0,0,0,2.27-2.45A2.29,2.29,0,0,0,526.25,451.05ZM510,45.71c.54-.76,1.42-1.46,1.57-2.29a1.69,1.69,0,0,0-2-2.07c-.8.16-1.94,1.17-2,1.87s.93,1.65,1.46,2.48Zm-29.76,0c.53-.77,1.39-1.49,1.51-2.32a1.69,1.69,0,0,0-2-2,2.91,2.91,0,0,0-1.94,1.92c0,.78,1,1.62,1.52,2.44Zm-10.08,0c.57-.8,1.61-1.6,1.59-2.38a2.93,2.93,0,0,0-1.86-2,1.69,1.69,0,0,0-2.12,1.94c.09.84.94,1.6,1.45,2.39Zm116.68,86.48a1.68,1.68,0,0,0,2,2c.86-.14,1.59-1.07,2.37-1.64l0-1c-.84-.5-1.72-1.46-2.49-1.38A2.94,2.94,0,0,0,586.84,132.21Zm2,87.47a2.9,2.9,0,0,0-2,1.84,1.68,1.68,0,0,0,1.87,2.15c.86-.08,1.65-1,2.47-1.48l0-1C590.42,220.67,589.61,219.66,588.83,219.68Zm0-59.63a2.89,2.89,0,0,0-1.94,1.88,1.68,1.68,0,0,0,1.91,2.11c.86-.1,1.63-1,2.44-1.53,0-.33,0-.65,0-1C590.4,161,589.57,160,588.79,160.05Zm0-6c.86-.11,1.62-1,2.42-1.57v-1c-.82-.53-1.67-1.5-2.45-1.45a2.91,2.91,0,0,0-1.92,1.91A1.69,1.69,0,0,0,588.79,154.1Zm0-9.94c.86-.12,1.6-1,2.4-1.61,0-.32,0-.65,0-1-.83-.51-1.69-1.47-2.47-1.41a2.93,2.93,0,0,0-1.89,1.94A1.69,1.69,0,0,0,588.82,144.16Zm-2-31.84a1.69,1.69,0,0,0,2,2c.86-.14,1.59-1.07,2.38-1.64l0-1c-.83-.51-1.71-1.46-2.48-1.39A2.91,2.91,0,0,0,586.84,112.32Zm2.76,220.22a52.47,52.47,0,0,0-2-8.63c-.77-2.19-3-2.33-4.31-.38a12.15,12.15,0,0,0-1.7,4.37c-.51,2.63-.69,5.32-1,8.06a33.71,33.71,0,0,0-4-1.55c-2.44-.62-4.2,1.11-3.37,3.48a15.77,15.77,0,0,0,2.68,4.55c6.25,7.74,19,5.89,23.11-3.28,1.07-2.41-.18-4.45-2.78-4.16a23.59,23.59,0,0,0-4.86,1.53c-.52.19-1,.49-1.69.82A30.5,30.5,0,0,0,589.6,332.54Zm-14.08,4.58c4.05.88,6.22,2.37,6.22,6.89A13,13,0,0,1,575.52,337.12Zm9.65,7.85a38.73,38.73,0,0,1,.05-19.37C587.48,328,587.5,340.82,585.17,345Zm10.4-7.3c.2.31.39.62.58.93l-7.06,5.63-.55-.42c.23-1,.45-2.08.74-3.37Zm-19,33.39a2.29,2.29,0,0,0-1.83.7,3,3,0,0,0,.11,2c.12.4.56.72.89,1a11.31,11.31,0,0,0,13.08,1.66,11.49,11.49,0,0,0,5.93-12c-1.06-5.28-5.08-9.17-10-9.63a10.56,10.56,0,0,0-9.61,3.63,2.73,2.73,0,0,0-.42,2.3c.15.43,1.3.78,2,.71,3.46-.35,5.9,1.07,7.31,4.51C582.94,369.86,580.52,371.42,576.57,371.06Zm4.67-12c3.78-.95,6.67.14,8.58,2.92s1.88,6-.32,9a6.86,6.86,0,0,1-8,2.6c3.17-1.54,5.84-3.62,5.77-7.19S584.85,360.5,581.24,359Zm7.59-254.62c.86-.13,1.6-1,2.39-1.62,0-.32,0-.64,0-1-.83-.52-1.7-1.48-2.47-1.41a2.91,2.91,0,0,0-1.89,1.94A1.7,1.7,0,0,0,588.83,104.41Zm0-9.94c.86-.14,1.59-1.07,2.37-1.65l0-1c-.83-.51-1.71-1.46-2.48-1.39a2.93,2.93,0,0,0-1.87,2A1.69,1.69,0,0,0,588.85,94.47Zm0,29.82c.86-.13,1.6-1.06,2.39-1.63,0-.32,0-.64,0-1-.83-.51-1.7-1.48-2.47-1.41a2.91,2.91,0,0,0-1.89,1.95A1.69,1.69,0,0,0,588.83,124.29Zm-.08,119.26c.86-.09,1.63-1,2.45-1.51,0-.32,0-.65,0-1-.8-.55-1.63-1.55-2.4-1.51a2.88,2.88,0,0,0-2,1.86A1.69,1.69,0,0,0,588.75,243.55Zm0,15.89a2.91,2.91,0,0,0-1.92,1.91,1.69,1.69,0,0,0,1.95,2.08c.86-.11,1.62-1,2.42-1.58,0-.32,0-.64,0-1C590.39,260.36,589.54,259.38,588.76,259.44Zm.08,9.93a2.9,2.9,0,0,0-2,1.83,1.7,1.7,0,0,0,1.86,2.17c.86-.08,1.66-.95,2.48-1.47l0-1C590.43,270.37,589.62,269.35,588.84,269.37Zm2.37-38.25c-.8-.55-1.63-1.54-2.41-1.5a2.92,2.92,0,0,0-2,1.87,1.69,1.69,0,0,0,1.91,2.12c.87-.09,1.64-1,2.46-1.52Zm-2.44,52.19c.86-.11,1.63-1,2.44-1.55v-1c-.81-.54-1.65-1.53-2.43-1.49a2.94,2.94,0,0,0-1.94,1.89A1.7,1.7,0,0,0,588.77,283.31Zm-.08-99.39c.86-.06,1.67-.93,2.5-1.44l0-1c-.78-.57-1.58-1.6-2.35-1.58a2.9,2.9,0,0,0-2,1.8A1.69,1.69,0,0,0,588.69,183.92Zm2.51,106.75c-.83-.52-1.69-1.48-2.47-1.42a2.91,2.91,0,0,0-1.89,1.94,1.7,1.7,0,0,0,2,2.06c.86-.13,1.6-1.05,2.4-1.61C591.21,291.31,591.2,291,591.2,290.67ZM586.84,171.9a1.69,1.69,0,0,0,1.95,2.08c.86-.11,1.62-1,2.42-1.57v-1c-.82-.53-1.67-1.51-2.45-1.46A2.94,2.94,0,0,0,586.84,171.9Zm0,129.13a1.68,1.68,0,0,0,1.87,2.15c.86-.08,1.65-1,2.47-1.48l0-1c-.8-.55-1.61-1.56-2.39-1.54A2.9,2.9,0,0,0,586.85,301ZM450.79,228.57a2.48,2.48,0,0,0-2.6-2.42,2.43,2.43,0,0,0-2.48,2.51A2.28,2.28,0,0,0,448,231C449.75,231,450.91,229.93,450.79,228.57Zm32.3,169a2.37,2.37,0,0,0-2.42-2.53,2.32,2.32,0,0,0-2.46,2.49,2.37,2.37,0,0,0,2.27,2.58A2.58,2.58,0,0,0,483.09,397.55Zm7-235.16c-.52-.11-1-.18-1.56-.28-4.19-.78-8.26-1.89-11.86-4.3a8.32,8.32,0,0,1-3.89-5.94c-1-6.61-2.06-13.21-3.12-19.81a16.76,16.76,0,0,0-.53-1.77c-.24.75-.36,1-.4,1.23-1.05,6.47-2.27,12.92-3.07,19.42a9.32,9.32,0,0,1-5.25,7.62,19.79,19.79,0,0,1-3.6,1.65c-3.08.92-6.21,1.7-9.61,2.62,1,.22,1.86.41,2.68.55a30.64,30.64,0,0,1,11.35,4c2.13,1.36,3.79,3.06,4.19,5.73.66,4.38,1.37,8.76,2.07,13.14.46,2.82.95,5.64,1.42,8.46h.4a7,7,0,0,0,.31-1.05c1.06-6.6,2.17-13.2,3.13-19.81.37-2.53,1.34-4.74,3.58-5.87a98.28,98.28,0,0,1,9.82-4.11,34.7,34.7,0,0,1,4.82-1A5.38,5.38,0,0,0,490.05,162.39Zm-14.73,245a2.36,2.36,0,0,0,2.58,2.38,2.51,2.51,0,0,0-.23-5A2.4,2.4,0,0,0,475.32,407.4Zm7.82-32.46a2.37,2.37,0,0,0-2.44,2.39,2.57,2.57,0,0,0,2.41,2.67,2.48,2.48,0,0,0,2.48-2.55A2.32,2.32,0,0,0,483.14,374.94ZM489.3,251.1a2.48,2.48,0,0,0-2.47-2.32,2.47,2.47,0,1,0-.09,4.93A2.43,2.43,0,0,0,489.3,251.1Zm-4.38,136.49a2.31,2.31,0,0,0-2.37-2.55A2.34,2.34,0,0,0,480,387.5,2.21,2.21,0,0,0,482.4,390,2.29,2.29,0,0,0,484.92,387.59ZM476.76,348a2.35,2.35,0,0,0,2.11,2.57c1.69.05,2.93-1,2.85-2.4a2.42,2.42,0,0,0-2.43-2.57A2.32,2.32,0,0,0,476.76,348Zm16-89.5A2.53,2.53,0,0,0,495.3,261a2.4,2.4,0,0,0,2.49-2.48,2.57,2.57,0,0,0-2.33-2.54A2.52,2.52,0,0,0,492.76,258.52ZM480.51,367.9a2.2,2.2,0,0,0,2,2.59c1.78.05,2.92-1,2.88-2.42a2.28,2.28,0,0,0-2.48-2.48A2.17,2.17,0,0,0,480.51,367.9Zm1.34-12.43a2.41,2.41,0,0,0-2.72,2.23,2.5,2.5,0,0,0,2.19,2.8,2.37,2.37,0,0,0,2.68-2.25A2.41,2.41,0,0,0,481.85,355.47Zm-4.22-113.32a2.14,2.14,0,0,0-2.28,2.38,2.35,2.35,0,0,0,2.4,2.56,2.39,2.39,0,0,0,2.53-2.41A2.5,2.5,0,0,0,477.63,242.15Zm-6.79-3.58a2.56,2.56,0,0,0-2.6-2.48,2.38,2.38,0,0,0-2.4,2.58,2.27,2.27,0,0,0,2.64,2.31C470,240.94,470.69,240,470.84,238.57ZM461,233.36a2.71,2.71,0,0,0-2.64-2.66,2.52,2.52,0,1,0,.21,5A2.45,2.45,0,0,0,461,233.36ZM283.35,653.75a3.13,3.13,0,0,0,4.15-.73,40.52,40.52,0,0,0,5.45-6.71c4.92-8.18-1.53-15.9-7.53-18.22a3.41,3.41,0,0,0-3.05.48,4.34,4.34,0,0,0-.62,3.2,18.07,18.07,0,0,0,1.46,3.75c-.73.05-1.32,0-1.88.13-3.06.5-6.14.89-9.14,1.59a3.11,3.11,0,0,0-2.73,3c0,1.7,1.4,2.26,2.73,2.75a9.76,9.76,0,0,0,2.08.63c3.32.43,6.65.79,10,1.19-.64,1.5-1.43,3-1.94,4.65S281.73,652.69,283.35,653.75Zm2.06-3-.56-.3,2.74-6.3,3.76-.87C289.8,646.43,288.06,648.94,285.41,650.72Zm6-14c-4.84-.89-6.88-2.79-7-6.3C287.64,631.5,289.49,633.83,291.43,636.72ZM273,640.41a30.26,30.26,0,0,1,18.68-.19A31.88,31.88,0,0,1,273,640.41Zm196.47-366.9-1.88-.55c-2.57-.73-4.33-2-4.39-5.07a39.69,39.69,0,0,0-1-5.77,13.86,13.86,0,0,0-1.29,5.07c-.05,3.68-2.14,5.32-5.38,6.05-.37.08-.74.18-1.22.3a3.67,3.67,0,0,0,.4.35,1,1,0,0,0,.36.16c4.09.55,5.86,3,6,7a24.32,24.32,0,0,0,.83,4.23,6.41,6.41,0,0,0,.84-2.79c.18-4.56,1.3-8.35,7.18-8.51Zm-16.83,34.55a2.44,2.44,0,0,0,2.54-2.45,2.62,2.62,0,0,0-2.36-2.59,2.52,2.52,0,1,0-.18,5ZM442.32,299a2.62,2.62,0,0,0,2.59,2.65A2.45,2.45,0,0,0,447.3,299a2.52,2.52,0,0,0-2.43-2.44A2.45,2.45,0,0,0,442.32,299Zm17.47,11.38a2.4,2.4,0,0,0-2.58,2.58,2.43,2.43,0,0,0,2.6,2.41,2.37,2.37,0,0,0,2.37-2.58A2.43,2.43,0,0,0,459.79,310.34Zm3.72,10.39a2.41,2.41,0,0,0,2.64,2.54,2.3,2.3,0,0,0,2.28-2.55,2.38,2.38,0,0,0-2.57-2.37A2.2,2.2,0,0,0,463.51,320.73Zm-26.89-24.82c1.51-.13,2.13-1.1,2.26-2.52a2.53,2.53,0,0,0-2.61-2.43,2.46,2.46,0,0,0-2.47,2.53A2.59,2.59,0,0,0,436.62,295.91Zm80.81-14.73a2.36,2.36,0,0,0-2.43,2.53,2.49,2.49,0,1,0,5,0A2.55,2.55,0,0,0,517.43,281.18Zm28.16,72.3a2.45,2.45,0,0,0-2.53,2.45,2.31,2.31,0,0,0,2.35,2.6,2.24,2.24,0,0,0,2.52-2.09A2.6,2.6,0,0,0,545.59,353.48Zm-14-50.81a2.45,2.45,0,0,0-2.38-2.4,2.33,2.33,0,0,0-2.5,2.43,2.45,2.45,0,1,0,4.88,0Zm12.1,39.87a2.45,2.45,0,0,0,.13,4.9,2.45,2.45,0,0,0,2.44-2.79A2.29,2.29,0,0,0,543.66,342.54Zm.42,24.66a2.23,2.23,0,0,0,2.44,2.47,2.5,2.5,0,1,0,0-5A2.26,2.26,0,0,0,544.08,367.2Zm-20.49-71.63a2.52,2.52,0,0,0,2.55-2.6,2.55,2.55,0,0,0-2.49-2.42,2.39,2.39,0,0,0-2.52,2.45A2.46,2.46,0,0,0,523.59,295.57Zm-22.78-29.21a2.47,2.47,0,1,0,2.48-2.45A2.33,2.33,0,0,0,500.81,266.36ZM528.42,231c-2.37-.75-4.54-1.32-6.6-2.15a5.69,5.69,0,0,1-3.94-5.22,41,41,0,0,0-.71-4.51c-.39-2.27-.8-4.54-1.2-6.81l-.49,0c-.59,3.57-1.41,7.12-1.71,10.71s-2.46,5.39-5.53,6.44c-1.6.55-3.27.9-5.24,1.43,2.35.76,4.32,1.31,6.23,2,2.59,1,4.33,2.68,4.46,5.71a36.56,36.56,0,0,0,.7,4.5c.37,2.17.75,4.34,1.12,6.51l.49,0c.57-3.37,1.4-6.73,1.64-10.12.28-3.93,2.37-6,5.86-7.07C525.07,232,526.66,231.56,528.42,231ZM517.67,565c-.51-3.47-1-6.94-1.6-10.4-.09-.57-.26-1.12-.39-1.69a50.37,50.37,0,0,0-2.08,10.23c-.32,4.22-2.73,6.23-6.44,7.24-1.41.39-2.83.75-4.39,1.16,2.53.87,4.86,1.56,7.1,2.48a5.42,5.42,0,0,1,3.45,4.69c.5,3.89,1.28,7.75,1.94,11.62a2.75,2.75,0,0,0,.81-1.66c.49-3,1.16-6,1.37-9,.25-3.54,2.27-5.35,5.32-6.39,1.72-.58,3.48-1,5.45-1.6-2.35-.75-4.5-1.31-6.54-2.13S518,567.42,517.67,565Zm-9.53-290.2a2.51,2.51,0,0,0,2.56,2.48,2.41,2.41,0,0,0,2.42-2.69,2.49,2.49,0,0,0-5,.21Zm40.38,115a2.47,2.47,0,1,0-4.94,0,2.47,2.47,0,1,0,4.94,0Zm-1.44,11.1a2.25,2.25,0,0,0-2.43-2.49,2.29,2.29,0,0,0-2.43,2.52,2.4,2.4,0,0,0,2.42,2.55C546.15,403.28,547.08,402.52,547.08,400.93ZM544.89,412a2.36,2.36,0,0,0-2.35-2.58,2.45,2.45,0,0,0-2.56,2.47,2.5,2.5,0,0,0,2.51,2.6A2.4,2.4,0,0,0,544.89,412Zm1.86-36.09a2.29,2.29,0,0,0-2.53,2.43,2.5,2.5,0,0,0,2.34,2.87,2.45,2.45,0,0,0,2.53-2.49A2.38,2.38,0,0,0,546.75,375.9Zm-4.82,47a2.23,2.23,0,0,0-2.22-2.68,2.38,2.38,0,0,0-2.65,2.34,2.55,2.55,0,0,0,2.44,2.73A2.4,2.4,0,0,0,541.93,422.93Zm-8-112.52a2.51,2.51,0,0,0,0,5,2.39,2.39,0,0,0,2.48-2.49A2.45,2.45,0,0,0,533.88,310.41Zm4,10.44a2.36,2.36,0,0,0-2.45,2.5,2.46,2.46,0,1,0,4.9-.21A2.34,2.34,0,0,0,537.91,320.85Zm-2,115a2.47,2.47,0,0,0,2.33-2.6,2.38,2.38,0,0,0-2.48-2.48,2.51,2.51,0,0,0-2.48,2.58A2.56,2.56,0,0,0,535.93,435.86Zm5.27-104.32a2.38,2.38,0,0,0-2.46,2.53,2.42,2.42,0,0,0,2.48,2.54,2.33,2.33,0,0,0,2.44-2.54A2.38,2.38,0,0,0,541.2,331.54Zm-10,114.58a2.69,2.69,0,0,0,2.68-2.59,2.61,2.61,0,0,0-2.54-2.51,2.47,2.47,0,0,0-2.41,2.61A2.38,2.38,0,0,0,531.22,446.12ZM184,229.16l-.91,0c-.5.84-1.43,1.73-1.35,2.51a2.82,2.82,0,0,0,1.93,1.89,1.68,1.68,0,0,0,2-2C185.46,230.69,184.56,230,184,229.16Zm77.75,473.22c-.57.79-1.48,1.52-1.62,2.38a1.67,1.67,0,0,0,2,2,2.91,2.91,0,0,0,2-1.86c.07-.78-.89-1.65-1.4-2.48Zm-9.67.48a2.83,2.83,0,0,0-1.88,1.92,1.67,1.67,0,0,0,2,2c.87-.16,1.6-1.06,2.4-1.63l0-.9C253.73,703.73,252.85,702.8,252.06,702.86ZM184.14,425.24c-.49-.47-2-.63-2.37-.26a3.45,3.45,0,0,0-.75,2.72c.37,1.57,1.76,1.49,3.2,1.14A2.43,2.43,0,0,0,184.14,425.24ZM241.77,702.4c-.54.8-1.43,1.56-1.54,2.43a1.68,1.68,0,0,0,2.08,1.93,2.89,2.89,0,0,0,1.9-1.92c0-.79-1-1.62-1.49-2.44Zm50,.46a2.81,2.81,0,0,0-1.88,1.91,1.67,1.67,0,0,0,2,2c.87-.16,1.61-1,2.41-1.61l0-.91C293.49,703.74,292.62,702.8,291.82,702.86Zm-21.76,1.8a1.67,1.67,0,0,0,1.9,2.1c.88-.1,1.66-1,2.49-1.47l0-.9c-.8-.56-1.62-1.55-2.42-1.54A2.83,2.83,0,0,0,270.06,704.66Zm-87.12-47a2.91,2.91,0,0,0,1.89-2,1.7,1.7,0,0,0-2-2c-.86.14-1.6,1.06-2.39,1.63,0,.32,0,.64,0,1C181.3,656.73,182.16,657.7,182.94,657.63Zm49.18,45.17c-1.24-.17-1.94.84-1.88,2s.93,2.21,2.22,1.93c.83-.19,1.51-1.07,2.26-1.64l0-.9A8.24,8.24,0,0,0,232.12,702.8Zm-47.3-37.14a1.69,1.69,0,0,0-1.94-2.09c-.86.12-1.62,1-2.42,1.57v1c.82.53,1.66,1.51,2.44,1.46A2.91,2.91,0,0,0,184.82,665.66Zm37,36.74c-.53.77-1.39,1.49-1.51,2.33a1.68,1.68,0,0,0,2,2,2.9,2.9,0,0,0,1.94-1.91c0-.78-1-1.63-1.51-2.44ZM186,682.46c-2.34.89-3,3.29-1,4.8a38.64,38.64,0,0,0,5.74,3.1c-.66.79-1.57,1.75-2.32,2.83a73.6,73.6,0,0,0-5.22,7.88c-1.14,2.2.28,3.82,2.75,3.47a7.08,7.08,0,0,0,2.94-1.06c2.67-1.81,5.23-3.77,7.86-5.69a15.12,15.12,0,0,0,1.38,3.47c.61.88,1.77,2,2.63,1.93a3.88,3.88,0,0,0,2.75-2,14.24,14.24,0,0,0-.5-12.81C200.36,683.6,191.16,680.51,186,682.46Zm1.32,3.43c.06-.23.11-.46.17-.69,3.16-.59,6.21.12,9.61,1.19l-3.29,2.08Zm-1.52,15.51a32.11,32.11,0,0,1,13.57-13A30,30,0,0,1,185.81,701.4Zm15.27-.87c-2.07-2.77-3-5.85.62-9.33C202.39,694.49,202.56,697.51,201.08,700.53Zm80.5,1.86c-.56.79-1.46,1.53-1.6,2.39a1.68,1.68,0,0,0,2,2,2.92,2.92,0,0,0,1.94-1.88c.06-.78-.91-1.64-1.42-2.46Zm75.73-13.49a3.46,3.46,0,0,0-3,.54,3.91,3.91,0,0,0-.6,3,19.76,19.76,0,0,0,1.5,3.88c-.68,0-1.14,0-1.59.11a94.46,94.46,0,0,0-9.53,1.69A4.47,4.47,0,0,0,341.5,701c-.37,1.6,1.22,2.42,2.6,2.73,2.76.63,5.56,1.1,8.36,1.5a28.51,28.51,0,0,0,3.93,0c-.77,1.82-1.57,3.35-2.08,5s-.63,3.24,1,4.31a3.13,3.13,0,0,0,4.16-.73,40.24,40.24,0,0,0,5.46-6.72C369.87,698.87,363.25,691.11,357.31,688.9Zm.06,22.64-.56-.31c.93-2.12,1.85-4.24,2.71-6.21.53-.17.77-.26,1-.32.76-.18,1.52-.34,2.75-.61C361.74,707.24,360,709.78,357.37,711.54Zm-12.45-10.33a30.36,30.36,0,0,1,18.64-.16A31.43,31.43,0,0,1,344.92,701.21Zm13.94-4.54c-.91-1.53-1.9-3.22-2.9-4.91l.6-.44c3,1,4.89,3.3,6.79,6.26Zm17.44-39.81a6.31,6.31,0,0,0,.16-2.55c.07-8.74.12-17.48.21-26.21,0-1.3.19-2.59.29-3.88a32.3,32.3,0,0,0,5.16-.09,2.49,2.49,0,0,0,1.54-1.83,2.3,2.3,0,0,0-1.43-1.74,38.62,38.62,0,0,0-14.06.1c-1.33,2.57-.84,2.94,5,3.78,0,.55,0,1,0,1.47l-.75,29.76c0,.4-.1.91.1,1.17.56.7,1.25,1.77,1.92,1.79S376,657.62,376.3,656.86Zm-4.45-122.59c0-1.6-.9-2.36-2.38-2.6-1.49.17-2.53.84-2.56,2.45a2.26,2.26,0,0,0,2.42,2.51A2.19,2.19,0,0,0,371.85,534.27Zm21.53,156.62a3.18,3.18,0,0,0-2.46-.51c-.39.12-.69,1.43-.61,2.16.37,3.37-1.45,6-5.12,7.1-3.52-1.38-4.84-3.67-4.51-7.46a2.27,2.27,0,0,0-.72-1.82,2.06,2.06,0,0,0-2,.16,13.23,13.23,0,0,0-2.86,3.48,11.27,11.27,0,0,0,6.17,15.7,11.44,11.44,0,0,0,15.14-7.21C397.75,698.37,396.5,693.36,393.38,690.89Zm-3.23,14.2c-3.15,2.32-6.37,2.38-9.33.18a6.91,6.91,0,0,1-2.67-8c3.84,7.18,10.56,7.68,14.57,0A6.6,6.6,0,0,1,390.15,705.09Zm4.72-69.24c-.57-4.2-1.05-8.41-1.66-12.6-.16-1.07,0-2.48-2-2.86a14,14,0,0,0-1.23,2.45c-1.5,5.21-2.93,10.44-4.36,15.66-.57,2.09-1.09,4.19-1.55,6-1.68.91-4.17-.18-4.24,2.24,0,.84,1.64,1.73,2.9,3-.53,2.14-1.21,4.94-1.91,7.75-.3,1.2-.63,2.5,1,2.93s2.07-.77,2.39-2c.27-1,.51-2.06.77-3.08l1.65-6.42h6.1c.14.76.29,1.47.41,2.18.4,2.28.66,4.59,1.26,6.82.19.69,1.3,1.12,2,1.68a9.66,9.66,0,0,0,1.35-2.09,4.56,4.56,0,0,0-.12-2C396.67,649,395.75,642.4,394.87,635.85Zm-7.11,8.28q1.47-5.83,3-11.67l.32.08c.39,3.78.78,7.57,1.2,11.59ZM194.61,671.7V418.81l-4.09,3.06v253.4c12.54,2.3,20.94,8.45,21.81,22.18.48,0,1,.14,1.5.14,38.76,0,77.52-.07,116.27.07,3.66,0,5.59-1.94,8.17-4.36H216C213.33,681.6,206.87,673.92,194.61,671.7Zm116.71,30.7c-.53.77-1.4,1.49-1.52,2.32a1.68,1.68,0,0,0,2,2,2.86,2.86,0,0,0,1.95-1.9c.05-.79-1-1.64-1.5-2.46Zm10.35.42c-.79.19-1.87,1.27-1.88,2s1,1.61,1.6,2.41l.93,0c.51-.79,1.36-1.54,1.45-2.38A1.69,1.69,0,0,0,321.67,702.82Zm-19.28-.41-.89,0c-.57.74-1.47,1.42-1.64,2.25-.25,1.26.6,2.13,1.95,2.2a1.8,1.8,0,0,0,2.08-2.07C303.79,703.93,302.92,703.19,302.39,702.41Zm29.83.24a1.87,1.87,0,0,0-2.17,2c0,1.23.49,2.19,2.63,2.27.32-.38,1.28-1,1.43-1.79A2,2,0,0,0,332.22,702.65ZM184.84,486.73c-.16-.88-1-1.64-1.59-2.45h-.92c-.51.83-1.47,1.7-1.41,2.49a2.82,2.82,0,0,0,1.88,1.93A1.67,1.67,0,0,0,184.84,486.73ZM183,544.31c-.86.06-1.67.93-2.5,1.44l0,1c.78.57,1.57,1.6,2.35,1.58a2.91,2.91,0,0,0,2-1.8A1.7,1.7,0,0,0,183,544.31ZM184.84,606c-.14-.88-1-1.66-1.53-2.49h-.92c-.54.82-1.51,1.66-1.47,2.46a2.85,2.85,0,0,0,1.83,2A1.68,1.68,0,0,0,184.84,606Zm-1.92-31.91c-.86.09-1.64,1-2.45,1.52,0,.32,0,.64,0,1,.8.55,1.63,1.55,2.4,1.51a2.9,2.9,0,0,0,2-1.87A1.68,1.68,0,0,0,182.92,574.13Zm1.9,12a1.69,1.69,0,0,0-1.91-2.12c-.86.1-1.64,1-2.45,1.54v1c.8.54,1.64,1.53,2.42,1.49A2.91,2.91,0,0,0,184.82,586.18Zm-2.34,37.23c-.57.8-1.57,1.6-1.56,2.39a2.83,2.83,0,0,0,1.76,2,1.66,1.66,0,0,0,2.15-1.85c-.1-.89-.93-1.69-1.44-2.54Zm.44-29.41c-.86.1-1.64,1-2.45,1.53,0,.32,0,.64,0,1,.8.55,1.63,1.55,2.41,1.51a2.88,2.88,0,0,0,1.95-1.87A1.69,1.69,0,0,0,182.92,594Zm-.53,49.3c-.54.82-1.51,1.66-1.48,2.45a2.87,2.87,0,0,0,1.84,2,1.67,1.67,0,0,0,2.09-1.93c-.14-.89-1-1.66-1.53-2.49Zm.49-29.42c-.86.11-1.62,1-2.42,1.58,0,.32,0,.64,0,1,.81.53,1.66,1.51,2.44,1.45a2.87,2.87,0,0,0,1.91-1.91A1.68,1.68,0,0,0,182.88,613.88Zm-2.41-47.11c.83.51,1.69,1.48,2.47,1.41a2.91,2.91,0,0,0,1.89-1.94,1.69,1.69,0,0,0-2-2c-.86.13-1.61,1-2.4,1.61Zm4.36-10.36c-.1-.89-.94-1.69-1.46-2.53l-.91,0c-.56.8-1.55,1.61-1.54,2.41a2.87,2.87,0,0,0,1.78,2A1.66,1.66,0,0,0,184.83,556.41Zm-1.91-101.55c-.86.09-1.64,1-2.45,1.52,0,.32,0,.64,0,1,.8.54,1.63,1.54,2.4,1.5a2.88,2.88,0,0,0,2-1.86A1.69,1.69,0,0,0,182.92,454.86ZM180.48,527c.83.51,1.7,1.47,2.47,1.4a3,3,0,0,0,1.88-2,1.69,1.69,0,0,0-2-2c-.85.13-1.59,1.06-2.38,1.63ZM404,471.5c0-1.57-1-2.34-2.5-2.47-1.52.16-2.52.91-2.51,2.5a2.22,2.22,0,0,0,2.5,2.41A2.28,2.28,0,0,0,404,471.5ZM182.88,534.37c-.86.11-1.62,1-2.42,1.58,0,.32,0,.64,0,1,.81.53,1.66,1.51,2.44,1.45a2.87,2.87,0,0,0,1.91-1.91A1.68,1.68,0,0,0,182.88,534.37Zm-2.41-27.24c.83.52,1.69,1.48,2.47,1.41a2.92,2.92,0,0,0,1.89-1.93,1.7,1.7,0,0,0-2-2.06c-.86.13-1.6,1.05-2.4,1.62C180.46,506.49,180.46,506.81,180.47,507.13Zm4.34-60.7a2.71,2.71,0,0,0-2.08-1.52,2.78,2.78,0,0,0-1.91,1.73c-.41,1.46.59,2.27,2,2.54C184.38,448.88,185.31,448,184.81,446.43Zm-2,72.06a2.9,2.9,0,0,0,2-1.82,1.69,1.69,0,0,0-1.85-2.18c-.86.08-1.66,1-2.49,1.46l0,1C181.24,517.49,182,518.51,182.82,518.49Zm-.07-39.73a1.66,1.66,0,0,0,2.09-1.92c-.14-.89-1-1.66-1.53-2.49h-.92c-.54.82-1.51,1.66-1.47,2.45A2.82,2.82,0,0,0,182.75,478.76Zm-.38,15.46c-.53.83-1.5,1.67-1.46,2.47a2.85,2.85,0,0,0,1.86,2,1.67,1.67,0,0,0,2.07-1.95c-.15-.89-1-1.65-1.55-2.48ZM184.83,467c-.1-.89-.93-1.69-1.44-2.54l-.91,0c-.57.8-1.57,1.6-1.56,2.39a2.83,2.83,0,0,0,1.76,2A1.66,1.66,0,0,0,184.83,467Zm-2-32.44c-1.45-.08-2.07.89-2.09,2.28a2,2,0,0,0,2.09,2.33c1.24,0,2.13-.59,2.1-2.42A2.11,2.11,0,0,0,182.84,434.53ZM588,468.79c.78,0,1.62-.94,2.42-1.48v-1c-.81-.54-1.58-1.44-2.44-1.54a1.69,1.69,0,0,0-1.92,2.11A2.89,2.89,0,0,0,588,468.79Zm-.06,59.64c.78.06,1.64-.9,2.47-1.42,0-.32,0-.64,0-1-.79-.57-1.53-1.49-2.39-1.62a1.69,1.69,0,0,0-2,2.05A2.92,2.92,0,0,0,587.93,528.43ZM588,643.7a1.68,1.68,0,0,0-2,2.07,2.89,2.89,0,0,0,1.91,1.92c.77.06,1.63-.91,2.45-1.44,0-.32,0-.64,0-1C589.62,644.73,588.87,643.82,588,643.7Zm0-35.76c.77,0,1.6-1,2.4-1.51v-1c-.82-.53-1.59-1.42-2.45-1.52a1.69,1.69,0,0,0-1.91,2.12A2.91,2.91,0,0,0,588,607.94Zm-1.2-182.84a2.48,2.48,0,0,0-.23,3.65c2.92.64,3.77-.21,3.27-3.24C589,424.45,587.85,424.09,586.81,425.1Zm3.6,210.18c-.82-.54-1.59-1.43-2.46-1.52a1.68,1.68,0,0,0-1.9,2.12,2.92,2.92,0,0,0,2,1.87c.77,0,1.6-1,2.41-1.51C590.41,635.92,590.41,635.6,590.41,635.28Zm-4.36-68.94a2.91,2.91,0,0,0,2,1.84c.77,0,1.59-1,2.38-1.54,0-.32,0-.65,0-1-.82-.52-1.61-1.4-2.47-1.48A1.69,1.69,0,0,0,586.05,566.34Zm0-29.85a2.88,2.88,0,0,0,2,1.87c.77,0,1.6-1,2.4-1.5v-1c-.82-.53-1.59-1.43-2.46-1.52A1.68,1.68,0,0,0,586.05,536.49Zm1.94,7.82a1.69,1.69,0,0,0-1.94,2.09,2.89,2.89,0,0,0,1.92,1.9c.78.06,1.62-.93,2.44-1.46v-1C589.61,545.33,588.85,544.42,588,544.31Zm-.1,119.27a1.69,1.69,0,0,0-1.84,2.18,2.89,2.89,0,0,0,2,1.8c.78,0,1.57-1,2.36-1.58,0-.32,0-.64,0-1C589.56,664.5,588.76,663.64,587.89,663.58Zm-1.84-107.29a2.89,2.89,0,0,0,1.88,2c.78.07,1.64-.9,2.47-1.41,0-.32,0-.64,0-1-.79-.57-1.53-1.5-2.39-1.62A1.68,1.68,0,0,0,586.05,556.29Zm0,99.43a2.93,2.93,0,0,0,1.92,1.91c.77,0,1.62-.93,2.44-1.45,0-.33,0-.65,0-1-.81-.55-1.56-1.46-2.42-1.57A1.68,1.68,0,0,0,586.05,655.72Zm1.84-161.1a1.69,1.69,0,0,0-1.84,2.18,2.93,2.93,0,0,0,2,1.81c.78,0,1.57-1,2.36-1.58,0-.33,0-.65,0-1C589.56,495.55,588.76,494.68,587.89,494.62Zm0,19.87a1.71,1.71,0,0,0-1.84,2.19,2.93,2.93,0,0,0,2,1.81c.78,0,1.57-1,2.36-1.59,0-.32,0-.65,0-1C589.56,515.42,588.75,514.55,587.89,514.49Zm0-5.95c.78.07,1.64-.89,2.47-1.4,0-.33,0-.65,0-1-.79-.57-1.53-1.49-2.39-1.62a1.69,1.69,0,0,0-2,2.05A2.9,2.9,0,0,0,587.93,508.54Zm3.32-121.84c-8.11-4.74-15.84,1.88-18,7.75a3.45,3.45,0,0,0,.56,3,3.89,3.89,0,0,0,3,.59,18.25,18.25,0,0,0,3.73-1.45c.33,2.78.54,5.41,1,8A12.44,12.44,0,0,0,583,408.7c1.43,2.39,3.62,2.23,4.81-.28a10.41,10.41,0,0,0,1-3c.46-3.3.8-6.62,1.18-9.93,1.42.6,2.94,1.39,4.55,1.9s3.22.69,4.34-.88.43-3.23-.72-4.31A40.48,40.48,0,0,0,591.25,386.7Zm-15.71,8.82c1.13-3.34,3.44-5.19,6-6.91C581.89,392.27,580.59,394.26,575.54,395.52Zm9.77,11.73a38.12,38.12,0,0,1-.12-19.64C587.43,391.81,587.49,403.84,585.31,407.25Zm4-15-.79-3.28c2.25.19,6.2,3.25,7.51,6.17ZM606.18,51.27c0-1.2,0-2.39,0-3.58C606.06,34.42,596.54,25,583.25,25H187.52c-13.43,0-22.92,9.44-22.92,22.83q0,163.59,0,327.16,0,163.78,0,327.56a23.13,23.13,0,0,0,.61,5.5c2.63,10.62,11.25,17,22.93,17H583.69c8.29-.19,14.8-3.62,19.27-10.68,2.64-4.18,3.24-8.86,3.24-13.71Q606.17,375.94,606.18,51.27Zm-4.28-.37V701.67c0,11.54-7.47,19.05-19,19.05q-197.58,0-395.16.07a18.65,18.65,0,0,1-19-19q.22-163.4.09-326.78V47.47c0-8.9,5.5-15.93,14-17.83a18.61,18.61,0,0,1,3.95-.35H584A17.67,17.67,0,0,1,601.9,46.92C601.92,48.25,601.9,49.57,601.9,50.9Zm-14,567c.78.07,1.64-.89,2.47-1.41,0-.32,0-.64,0-1-.79-.57-1.53-1.49-2.39-1.62a1.69,1.69,0,0,0-2,2A2.88,2.88,0,0,0,587.93,617.87Zm-1.88-31.77a2.9,2.9,0,0,0,1.87,1.95c.78.08,1.65-.88,2.48-1.39l0-1c-.79-.57-1.53-1.49-2.39-1.63A1.69,1.69,0,0,0,586.05,586.1Zm1.92-8c.78,0,1.62-.93,2.44-1.46v-1c-.8-.55-1.56-1.45-2.42-1.56a1.68,1.68,0,0,0-1.94,2.08A2.91,2.91,0,0,0,588,578.12ZM588,594a1.7,1.7,0,0,0-2,2.08A2.93,2.93,0,0,0,588,598c.77,0,1.62-.92,2.44-1.44,0-.32,0-.65,0-1C589.62,595,588.87,594.12,588,594Zm-2,31.84a2.88,2.88,0,0,0,1.86,2c.77.08,1.65-.87,2.48-1.37,0-.32,0-.65,0-1-.79-.58-1.52-1.51-2.37-1.65A1.69,1.69,0,0,0,586.05,625.84Zm2.05-180.93a2.75,2.75,0,0,0-2,1.57c-.49,1.41.4,2.34,2,2.72,1.47-.33,2.47-1.15,2-2.61A2.79,2.79,0,0,0,588.1,444.91ZM489.45,702.42l-.95,0c-.58.8-1.61,1.62-1.59,2.41s1.11,1.77,1.9,2a1.68,1.68,0,0,0,2.08-2C490.79,703.94,490,703.2,489.45,702.42Zm29.17.44a2.83,2.83,0,0,0-1.93,1.89,1.66,1.66,0,0,0,2,2c.88-.16,1.63-1,2.44-1.58,0-.31,0-.62,0-.93C520.26,703.75,519.4,702.8,518.62,702.86Zm-11.87,1.8a1.67,1.67,0,0,0,1.89,2.11c.89-.12,1.67-1,2.51-1.47,0-.31,0-.62,0-.93-.8-.55-1.62-1.54-2.4-1.52A2.86,2.86,0,0,0,506.75,704.66ZM469.5,702.4h-.95c-.55.82-1.55,1.67-1.51,2.45a2.88,2.88,0,0,0,1.94,1.91,1.69,1.69,0,0,0,2-2C470.89,703.89,470,703.17,469.5,702.4Zm29.69,0-.89,0c-.53.78-1.4,1.52-1.5,2.35a1.8,1.8,0,0,0,2.08,2.07c1.35-.07,2.2-.94,1.95-2.2C500.66,703.8,499.76,703.13,499.19,702.38Zm-19.81,0h-.94c-.53.83-1.52,1.7-1.46,2.48a2.89,2.89,0,0,0,2,1.87,1.7,1.7,0,0,0,2-2.07C480.81,703.85,479.93,703.15,479.38,702.39Zm-40.61.25a2,2,0,0,0-2,2.39c.12.79,1,1.47,1.32,1.86,2.15,0,2.74-.87,2.76-2.12A1.9,1.9,0,0,0,438.77,702.64Zm-13.32-5c-3.16-.63-6.36-1-9.69-1.54.44-1,.92-1.94,1.28-2.92.5-1.33.86-2.73-.4-3.86s-2.77-.79-4.08-.09a15.29,15.29,0,0,0-7.54,8.11,11.52,11.52,0,0,0-.66,4.44c.19,4.76,3,8.22,6.14,11.4a7.71,7.71,0,0,0,2.87,1.69,2.45,2.45,0,0,0,3.36-2.31,11.08,11.08,0,0,0-.64-3.67,31.09,31.09,0,0,0-1.69-3.56,20.8,20.8,0,0,0,2.11,0c3-.34,6.06-.56,9-1.14,1.74-.34,4-.82,3.87-3.25C429.3,698.71,427.29,698,425.45,697.63Zm-11.07-6.22c.23,3.19-2.2,5.44-6.63,6C409.7,694,411.87,692.05,414.38,691.41Zm-.91,20.15c-2.61-1.75-4.25-4.33-6-7.46,1.14.23,1.78.35,2.41.49.38.08.76.2,1.43.39.87,2,1.8,4.1,2.74,6.22ZM407,701.33c3.35-2.33,15.77-2.23,19.43.23A41.16,41.16,0,0,1,407,701.33Zm42.7,1.08-.95,0c-.57.8-1.6,1.62-1.57,2.41a2.87,2.87,0,0,0,1.9,2,1.68,1.68,0,0,0,2.08-2C451,703.93,450.19,703.2,449.68,702.41ZM300.61,570a3.81,3.81,0,0,0-1.94-.76A31.29,31.29,0,0,1,286.78,565a8.85,8.85,0,0,1-4.13-6.64c-.9-6.49-2-13-3.08-19.42a5.05,5.05,0,0,0-.42-1.07c-1.46,7-2.64,13.89-3.64,20.82-.38,2.63-1.45,4.8-3.73,6a66.21,66.21,0,0,1-8.7,3.73,41.71,41.71,0,0,1-5.73,1.26,13.18,13.18,0,0,0,2.64.84c3.68,1.24,7.43,2.34,11,3.89a7.4,7.4,0,0,1,4.46,6c.63,4.46,1.36,8.9,2.07,13.34.43,2.64.9,5.28,1.35,7.91l.5,0c.09-.38.21-.75.27-1.13,1-6.47,2.13-12.93,3.07-19.42.38-2.6,1.36-4.86,3.68-6a98.25,98.25,0,0,1,9.83-4.08A30.71,30.71,0,0,1,300.61,570ZM548.89,702.38l-.9,0c-.52.78-1.4,1.52-1.5,2.35a1.8,1.8,0,0,0,2.08,2.07c1.35-.07,2.21-.93,1.95-2.2C550.35,703.8,549.46,703.13,548.89,702.38Zm-22.27,2.34a1.67,1.67,0,0,0,2,2c.88-.15,1.64-1,2.46-1.54v-.93c-.82-.52-1.67-1.5-2.45-1.45A2.84,2.84,0,0,0,526.62,704.72Zm63.78-228.5c-.82-.52-1.61-1.4-2.48-1.48a1.69,1.69,0,0,0-1.87,2.15,2.91,2.91,0,0,0,2,1.84c.78,0,1.59-1,2.38-1.55C590.41,476.86,590.41,476.54,590.4,476.22ZM183,633.76c-.86.08-1.65,1-2.47,1.48l0,1c.8.56,1.61,1.57,2.38,1.54a2.87,2.87,0,0,0,2-1.84A1.69,1.69,0,0,0,183,633.76ZM588,454.86a1.69,1.69,0,0,0-2,2.05,2.88,2.88,0,0,0,1.88,1.94c.78.07,1.64-.89,2.47-1.41,0-.32,0-.64,0-1C589.63,455.91,588.89,455,588,454.86ZM411.4,659a11.19,11.19,0,0,0,6-7.75c.16-.66-.49-2.09-1-2.2a3.6,3.6,0,0,0-2.46.91c-.47.34-.5,1.22-.9,1.73-1,1.28-2,2.48-3,3.62a6.2,6.2,0,0,1-4.51-4.63,40.65,40.65,0,0,1-1.08-15c.44-3.48.93-7,3.18-9.91s4.44-2.87,6.81,0c.55.67,1.15,1.31,2.1,2.38.4-1.09.82-1.66.76-2.17-.4-3.87-5.41-6.67-8.93-5a11.68,11.68,0,0,0-6,6.63,38.61,38.61,0,0,0-2,19.16,35.5,35.5,0,0,0,1.53,6.77C403.35,657.47,408.45,660.43,411.4,659ZM586.05,486.78a2.9,2.9,0,0,0,1.94,1.89c.78.05,1.61-.94,2.42-1.48v-1c-.81-.54-1.57-1.44-2.44-1.54A1.68,1.68,0,0,0,586.05,486.78ZM539,702.39h-.95c-.53.82-1.51,1.67-1.46,2.46s1.12,1.71,1.91,1.9a1.67,1.67,0,0,0,2.06-2C540.46,704,539.57,703.19,539,702.39Zm49.06-267.86a2,2,0,0,0-2.13,1.94c-.07,2,.79,2.69,2,2.67a2,2,0,0,0,2.13-2.29C590.12,435.49,589.55,434.48,588.08,434.53Zm-8,255.69c1.38-.59,3.13-1.21,4.75-2.06,1.41-.74,2.49-1.89,2.08-3.68a3,3,0,0,0-3.33-2.3,43.4,43.4,0,0,0-9,1.08c-8.94,2.39-9.78,12.45-7.08,18.25,1.16,2.49,3.69,2.51,5.07.12a29.51,29.51,0,0,0,1.58-3.76c2.75,2,5.49,4,8.35,5.87,1.46,1,3.3,1.61,4.79.22s.59-3.32-.37-4.69C584.73,696.16,582.33,693.2,580,690.22Zm3.36-5,.19.64-6.5,2.66-3.29-2.1C577.21,685.29,580.24,684.63,583.4,685.2Zm-13.58,15.31c-1.58-3-1.22-6-.7-9.31C572.16,694.52,572.39,697.55,569.82,700.51Zm1.61-12.1c6,2.78,10.28,7.36,13.64,13A30.51,30.51,0,0,1,571.43,688.41Zm8.94-266.57-4.21-3V671.72c-12.28,2.26-18.66,10-21.36,21.6h-122c2.56,3.11,5.24,4.67,9.14,4.33,4.34-.37,8.73-.09,13.1-.09l102,0a13.52,13.52,0,0,0,1.57-.15c.94-13.83,9.4-19.92,21.82-22.16ZM459.48,702.39l-1,0c-.52.82-1.49,1.68-1.43,2.46a2.9,2.9,0,0,0,1.93,1.89,1.67,1.67,0,0,0,2-2C460.94,703.93,460,703.19,459.48,702.39ZM290.42,380.18A2.45,2.45,0,0,0,293,377.7a2.26,2.26,0,0,0-2.35-2.57,2.2,2.2,0,0,0-2.51,2.38A2.45,2.45,0,0,0,290.42,380.18Zm-.84-131.65a2.5,2.5,0,1,0-.07,5,2.65,2.65,0,0,0,2.55-2.72A2.28,2.28,0,0,0,289.58,248.53Zm1.28,141.73a2.42,2.42,0,0,0,2.57-2.56,2.32,2.32,0,0,0-2.49-2.48,2.27,2.27,0,0,0-2.41,2.54A2.34,2.34,0,0,0,290.86,390.26Zm4.19,19.85a2.52,2.52,0,0,0,.14-5,2.35,2.35,0,0,0-2.54,2.42A2.43,2.43,0,0,0,295.05,410.11Zm-6.46-41.87a2.45,2.45,0,1,0,4.89-.06,2.33,2.33,0,0,0-2.48-2.49A2.36,2.36,0,0,0,288.59,368.24Zm24.63-54.48a2.51,2.51,0,0,0,5,0,2.42,2.42,0,0,0-2.36-2.6A2.62,2.62,0,0,0,313.22,313.76ZM309.32,324a2.48,2.48,0,0,0,2.44-2.56c-.16-1.56-1-2.46-2.54-2.4a2.48,2.48,0,0,0,.1,5Zm1.21-85.52a2.33,2.33,0,0,0-2.44-2.49,2.41,2.41,0,0,0-2.6,2.39,2.5,2.5,0,0,0,2.62,2.55A2.56,2.56,0,0,0,310.53,238.46ZM295.11,358.22a2.42,2.42,0,0,0-2.62-2.52,2.36,2.36,0,0,0-2.31,2.66,2.42,2.42,0,0,0,2.59,2.39A2.49,2.49,0,0,0,295.11,358.22Zm1-114a2.33,2.33,0,0,0,2.35,2.58,2.41,2.41,0,0,0,2.6-2.39,2.46,2.46,0,0,0-2.51-2.62A2.49,2.49,0,0,0,296.1,244.27Zm-3.58,156A2.43,2.43,0,0,0,295,397.8a2.47,2.47,0,0,0-2.29-2.59,2.44,2.44,0,0,0-2.61,2.53A2.39,2.39,0,0,0,292.52,400.32Zm-28.06-184c2.57.75,4.51,2,4.71,5.06.14,2.14.68,4.25,1,6.37l.48,0c.38-2.2.92-4.39,1.09-6.61a4.65,4.65,0,0,1,3.61-4.4l3.48-1.15-2.31-.61c-2.78-.71-4.75-2-4.87-5.33a47.73,47.73,0,0,0-1-6.22,4.81,4.81,0,0,0-.83,2.27c-.59,4.66-.76,9.61-7.58,9.8A10.11,10.11,0,0,0,264.46,216.27Zm63.8,9.81a2.45,2.45,0,1,0-.34,4.89,2.59,2.59,0,0,0,2.73-2.51A2.33,2.33,0,0,0,328.26,226.08Zm-44.77,32.13a2.34,2.34,0,0,0-2.49-2.44,2.4,2.4,0,0,0-2.45,2.54,2.43,2.43,0,0,0,2.69,2.46A2.46,2.46,0,0,0,283.49,258.21Zm45,42.18a2.41,2.41,0,0,0,2.39,2.43,2.64,2.64,0,0,0,2.68-2.71,2.32,2.32,0,0,0-2.37-2.28A2.59,2.59,0,0,0,328.45,300.39Zm86.63-224.2H355.57v49.64h59.51Zm-4.15,45.33H359.86V80.38h51.07ZM273.11,268.59a2.55,2.55,0,0,0,2.42-2.65,2.39,2.39,0,0,0-2.4-2.36,2.59,2.59,0,0,0-2.6,2.64A2.36,2.36,0,0,0,273.11,268.59Zm1.1,152.91a25.2,25.2,0,0,0,.83,4.31,13.66,13.66,0,0,0,1-4.14c.3-3.28,1.08-6.17,5-6.83a11.19,11.19,0,0,0,1.65-.51v-.42a8.69,8.69,0,0,1-1.14-.16c-2.85-.77-5.17-1.9-5.22-5.48a35.06,35.06,0,0,0-.93-5.59,25.83,25.83,0,0,0-1.52,6.43c-.23,2.34-1.62,3.5-3.63,4.18-.86.28-1.74.47-2.83.77.43.25.68.5,1,.54C272.38,415.17,274.14,417.54,274.21,421.5Zm11.57-284.14a5.44,5.44,0,0,1-2.95-4.47c-.31-2.09-.61-4.19-.95-6.28-.56-3.49-1.15-7-1.72-10.47l-.55,0c-.81,5-1.92,9.89-2.35,14.87-.39,4.48-2.9,6.75-6.67,8.19-1.42.54-2.9.94-4.37,1.34-1.1.3-2.24.49-3.37.74.07.25.07.34.1.35.38.1.77.15,1.14.28,3.28,1.18,6.62,2.21,9.8,3.61,1.91.83,2.84,2.68,3.11,4.8s.61,4.32,1,6.48c.54,3.33,1.12,6.66,1.69,10,.46-.24.61-.45.64-.68.84-5.17,1.71-10.32,2.45-15.5.33-2.26,1.2-4.17,3.23-5.17a81.16,81.16,0,0,1,7.69-3.09,25.32,25.32,0,0,1,3.26-.76,3.13,3.13,0,0,0-1.36-.64C292.29,139.82,289,138.76,285.78,137.36Zm9.58,208.53a2.53,2.53,0,0,0-2.6,2.43,2.48,2.48,0,0,0,2.41,2.59,2.51,2.51,0,0,0,.19-5ZM265.46,272a2.39,2.39,0,0,0-2.33,2.65A2.29,2.29,0,0,0,265.5,277a2.59,2.59,0,0,0,2.56-2.68A2.39,2.39,0,0,0,265.46,272ZM413.88,59a4,4,0,0,0,3.56-.45c.65-.57.59-2.26.43-3.39a17,17,0,0,0-1.41-3.56,16.64,16.64,0,0,0,2.26,0,77.77,77.77,0,0,0,8.91-1.68,4.43,4.43,0,0,0,2.53-2.87c.37-1.59-1.24-2.26-2.58-2.76a7.39,7.39,0,0,0-1.69-.54c-3.46-.47-6.92-.89-10.39-1.33.62-1.61,1.43-3.34,2-5.15a3.12,3.12,0,0,0-1.06-3.74,2.92,2.92,0,0,0-3.84.45,41.25,41.25,0,0,0-5.49,6.41C401.83,48.52,407.52,56.18,413.88,59Zm.41-22.48.57.29C414,39,413,41.08,412.14,43.16l-3.8.87C409.94,40.86,411.66,38.34,414.29,36.55Zm12.44,10.28a29.71,29.71,0,0,1-18.62.24A32.1,32.1,0,0,1,426.73,46.83ZM415.38,56.94c-3.26-1.21-5.18-3.43-6.85-6.07C412.38,50.63,414.34,52.1,415.38,56.94Zm-173,253.13a2.38,2.38,0,0,0-2.55,2.44c-.08,1.58.85,2.39,2.33,2.65a2.47,2.47,0,0,0,2.54-2.48A2.33,2.33,0,0,0,242.33,310.07Zm-10,23.76a2.5,2.5,0,1,0,2.41-2.67A2.61,2.61,0,0,0,232.31,333.83ZM235.69,323a2.43,2.43,0,0,0,2.45,2.54,2.34,2.34,0,0,0,2.46-2.35,2.47,2.47,0,0,0-2.41-2.73A2.5,2.5,0,0,0,235.69,323Zm-5.85,21.56c0,1.41.67,2.36,1.72,2.48,2,.16,3.25-.87,3.22-2.35a2.26,2.26,0,0,0-2.2-2.52A2.37,2.37,0,0,0,229.84,344.57Zm-1.72,11.27a2.2,2.2,0,0,0,2.38,2.34,2.35,2.35,0,0,0,2.49-2.52c.09-1.42-1.07-2.45-2.85-2.4C228.81,353.34,228.06,354.27,228.12,355.84Zm-1,11a2.22,2.22,0,0,0,2.41,2.49,2.47,2.47,0,1,0,0-4.94A2.26,2.26,0,0,0,227.09,366.83Zm25.51-71.61a2.44,2.44,0,0,0,2.39-2.61,2.25,2.25,0,0,0-2.31-2.42,2.53,2.53,0,0,0-2.61,2.6A2.39,2.39,0,0,0,252.6,295.22Zm-5.5,157.22c-.52,1.64.64,2.66,2.33,3.13,1.64-.35,2.84-1.23,2.41-2.83a3.41,3.41,0,0,0-2.27-2.19A3.28,3.28,0,0,0,247.1,452.44Zm-.49-152.31a3.46,3.46,0,0,0-1.93,2.49c-.06.71,1.08,2,1.92,2.22,1.7.51,2.64-.66,3-2.43C249.28,300.7,248.27,299.57,246.61,300.13Zm-4.75,143a2.56,2.56,0,0,0,2.49,2.44,2.53,2.53,0,0,0,0-5.05A2.42,2.42,0,0,0,241.86,443.13Zm78.48-209.76a2.42,2.42,0,0,0-2.16-2.78,2.63,2.63,0,0,0-2.82,2.21,2.51,2.51,0,0,0,5,.57ZM239.83,435.23a2.39,2.39,0,0,0,2.57-2.48,2.46,2.46,0,0,0-2.39-2.53,2.38,2.38,0,0,0-2.58,2.38A2.48,2.48,0,0,0,239.83,435.23Zm-10.56-54.71a2.39,2.39,0,0,0,2.52-2.47,2.48,2.48,0,0,0-2.51-2.52,2.34,2.34,0,0,0-2.37,2.6A2.23,2.23,0,0,0,229.27,380.52Zm32-97c0-1.67-1.16-2.86-2.51-2.71a2.48,2.48,0,0,0-2.4,2.62,2.33,2.33,0,0,0,2.5,2.43A2.4,2.4,0,0,0,261.22,283.53Zm52-102.95c-.12-1.78-.56-3.53-.85-5.29l-1-6h-.49c-.59,3.51-1.41,7-1.7,10.52-.33,4-2.7,5.82-6.12,6.86-1.48.45-3,.79-4.91,1.29,2.19.64,4,1.08,5.68,1.67,3,1,5.13,2.69,5.23,6.2a29.19,29.19,0,0,0,.63,3.91q.6,3.47,1.21,6.93a3,3,0,0,0,.81-1.69c.48-3,1.14-6,1.38-9,.28-3.53,2.31-5.33,5.37-6.35,1.71-.56,3.46-1,5.39-1.58-2.3-.72-4.38-1.28-6.39-2A5.92,5.92,0,0,1,313.18,180.58Zm7.32,125.95a2.39,2.39,0,0,0,2.41,2.56,2.49,2.49,0,0,0,2.6-2.35,2.44,2.44,0,0,0-2.42-2.66A2.47,2.47,0,0,0,320.5,306.53Zm-73.89,237.6a22.58,22.58,0,0,0,.84,4.52,12.4,12.4,0,0,0,1.1-4.22c.33-3.3,1-6.34,4.92-7.16.75-.16,1.48-.44,2.73-.81-1.1-.24-1.66-.33-2.21-.49-2.85-.8-5.1-2-5.13-5.59a36,36,0,0,0-1-5.93l-.48-.05a51.73,51.73,0,0,0-.87,5.51c-.18,3.3-1.75,5.27-5,6-.68.15-1.36.33-2.31.56a7.35,7.35,0,0,0,1.3.56C244.64,537.63,246.65,539.91,246.61,544.13ZM231.18,402.81a2.49,2.49,0,1,0,0-5,2.32,2.32,0,0,0-2.38,2.58A2.25,2.25,0,0,0,231.18,402.81Zm5.18,21.84a2.38,2.38,0,0,0,2.39-2.57,2.47,2.47,0,1,0-4.94.12A2.42,2.42,0,0,0,236.36,424.65Zm-6.53-32.94a2.37,2.37,0,0,0,2.53-2.44c-.14-1.52-.88-2.53-2.45-2.54a2.27,2.27,0,0,0-2.48,2.46A2.25,2.25,0,0,0,229.83,391.71Zm3.36,22.13a2.45,2.45,0,0,0,2.62-2.54,2.35,2.35,0,0,0-2.49-2.49,2.27,2.27,0,0,0-2.42,2.52A2.38,2.38,0,0,0,233.19,413.84Zm-47.57-212.1a2.89,2.89,0,0,0-1.89-1.94c-.77-.06-1.64.9-2.46,1.42,0,.32,0,.64,0,1,.79.57,1.53,1.49,2.39,1.62A1.69,1.69,0,0,0,185.62,201.74Zm-2,71.63a1.69,1.69,0,0,0,2-2.08,2.9,2.9,0,0,0-1.92-1.92c-.77-.05-1.62.93-2.44,1.46,0,.32,0,.64,0,1C182.05,272.34,182.81,273.25,183.67,273.37Zm0-9.94a1.69,1.69,0,0,0,2-2.08,2.92,2.92,0,0,0-1.92-1.92c-.77-.05-1.62.93-2.44,1.46,0,.32,0,.64,0,1C182.05,262.4,182.81,263.31,183.67,263.43Zm1.27,49.5a2.45,2.45,0,0,0,.05-3.63c-1.41-.29-2.81-.41-3.17,1.17a3.48,3.48,0,0,0,.75,2.73A2.49,2.49,0,0,0,184.94,312.93ZM183.7,140.17c-.77,0-1.62.92-2.44,1.45v1c.8.56,1.56,1.47,2.42,1.58a1.68,1.68,0,0,0,2-2.07A2.92,2.92,0,0,0,183.7,140.17Zm1.92-37.87a2.91,2.91,0,0,0-2-1.89c-.78,0-1.61,1-2.42,1.5v1c.81.54,1.58,1.44,2.44,1.54A1.69,1.69,0,0,0,185.62,102.3Zm-4.36,80.11c.82.53,1.6,1.42,2.47,1.51a1.69,1.69,0,0,0,1.89-2.14,2.92,2.92,0,0,0-2-1.86c-.78,0-1.6,1-2.4,1.53C181.25,181.77,181.26,182.09,181.26,182.41ZM378.39,57.3a2.69,2.69,0,0,0,2.28.46c.48-.24.78-1.42.71-2.13A6.47,6.47,0,0,1,386,48.5c3.73,1,5.35,3.47,5,7.37-.06.61.23,1.63.66,1.84a2.37,2.37,0,0,0,2.13-.2,12.1,12.1,0,0,0,2.72-3.34,11.45,11.45,0,0,0-6-15.82,11.69,11.69,0,0,0-15.22,7.2C373.89,49.72,375.21,54.9,378.39,57.3Zm3.29-14.51a7.19,7.19,0,0,1,8.85-.07c2.91,2,4,4.69,3,8.33-1.57-3.16-3.61-5.84-7.16-5.8s-5.9,2.34-7.37,5.9A7.19,7.19,0,0,1,381.68,42.79ZM183.21,209.3c-.54.81-1.53,1.64-1.5,2.42a2.86,2.86,0,0,0,1.82,2,1.69,1.69,0,0,0,2.1-1.93c-.12-.88-1-1.66-1.49-2.49Zm2.41-37.47a2.91,2.91,0,0,0-2-1.84c-.77,0-1.59,1-2.38,1.54,0,.32,0,.64,0,1,.82.53,1.61,1.41,2.47,1.49A1.69,1.69,0,0,0,185.62,171.83Zm-4.35,20.55c.82.52,1.61,1.4,2.48,1.48a1.7,1.7,0,0,0,1.87-2.16,2.93,2.93,0,0,0-2-1.84c-.78,0-1.59,1-2.38,1.55Zm0,49.6c.81.55,1.57,1.46,2.43,1.57a1.69,1.69,0,0,0,1.94-2.09,2.91,2.91,0,0,0-1.92-1.9c-.78-.05-1.63.93-2.44,1.46C181.26,241.34,181.26,241.66,181.25,242Zm4.37-149.63a2.91,2.91,0,0,0-2-1.88c-.77,0-1.6,1-2.41,1.51,0,.32,0,.64,0,1,.81.53,1.59,1.42,2.45,1.52A1.69,1.69,0,0,0,185.62,92.35Zm0,188.93a2.91,2.91,0,0,0-1.87-2c-.77-.07-1.65.89-2.48,1.39l0,1c.79.58,1.52,1.51,2.38,1.65A1.69,1.69,0,0,0,185.62,281.28Zm0-59.63a2.92,2.92,0,0,0-1.86-2c-.77-.08-1.65.87-2.49,1.38l0,1c.79.58,1.51,1.51,2.37,1.66A1.69,1.69,0,0,0,185.62,221.65Zm-6.16,124.16c8,4.81,15.68-1.45,18.1-7.47a3.64,3.64,0,0,0-.52-3.22c-.63-.64-2.16-.7-3.21-.53a16.45,16.45,0,0,0-3.54,1.38c-.33-2.77-.52-5.41-1-8a12.4,12.4,0,0,0-1.56-4.23c-1.35-2.19-3.43-2-4.59.27a9.72,9.72,0,0,0-1.05,3c-.48,3.36-.83,6.74-1.23,10.12a47.65,47.65,0,0,0-4.54-1.91c-1.53-.48-3.22-.69-4.34.89s-.43,3.22.73,4.31A40.18,40.18,0,0,0,179.46,345.81Zm10.37-6.07,4.89-2.91.45.59c-.94,3.05-3.31,4.86-6.26,6.86C189.26,342.53,189.51,341.32,189.83,339.74Zm-4.54-13.94a30.35,30.35,0,0,1,.16,18.66A31.82,31.82,0,0,1,185.29,325.8Zm-10,11.88,6.24,2.7c.29,1.2.55,2.26.91,3.76a18.29,18.29,0,0,1-7.47-5.82C175.08,338.11,175.19,337.89,175.29,337.68Zm19,23.84c.62.07,1.64-.2,1.85-.62a3,3,0,0,0-.16-2.16,4.45,4.45,0,0,0-1.34-1.44,11.49,11.49,0,1,0-13.83,18.35c4.52,3.29,11.1,2.81,14.66-1.19.56-.63.59-1.74.86-2.62a7.47,7.47,0,0,0-2.42-.65c-3.33.34-6-1.59-7-5.12C188.1,362.65,190.59,361.15,194.24,361.52Zm-4.85,12a6.83,6.83,0,0,1-8.23-2.9,7.24,7.24,0,0,1,.23-9.17,6.77,6.77,0,0,1,7.84-2.43C181.53,363.07,182.06,370.07,189.39,373.56ZM183.78,164a1.69,1.69,0,0,0,1.83-2.19,2.88,2.88,0,0,0-2-1.8c-.78,0-1.57,1-2.36,1.58l0,1C182.11,163.11,182.91,164,183.78,164Zm1.84-51.71a2.9,2.9,0,0,0-1.86-2c-.77-.08-1.65.88-2.48,1.38,0,.32,0,.64,0,1,.79.58,1.51,1.52,2.37,1.66A1.69,1.69,0,0,0,185.62,112.33Zm0,39.75a2.9,2.9,0,0,0-1.86-2c-.78-.08-1.65.88-2.48,1.38,0,.32,0,.64,0,1,.79.58,1.52,1.52,2.38,1.66A1.69,1.69,0,0,0,185.62,152.08Zm0-69.58a2.92,2.92,0,0,0-1.87-2c-.77-.08-1.65.88-2.48,1.38l0,1c.79.57,1.52,1.5,2.38,1.64A1.69,1.69,0,0,0,185.62,82.5Zm-1.9,37.79c-.78-.06-1.64.91-2.46,1.44,0,.32,0,.64,0,1,.8.56,1.55,1.48,2.41,1.6a1.69,1.69,0,0,0,2-2.07A2.91,2.91,0,0,0,183.72,120.29Zm1.9,11.9a2.88,2.88,0,0,0-1.87-1.95c-.77-.08-1.65.87-2.48,1.38l0,1c.79.58,1.52,1.51,2.38,1.65A1.69,1.69,0,0,0,185.62,132.19ZM181.26,252c.82.54,1.59,1.43,2.46,1.52a1.69,1.69,0,0,0,1.9-2.12,2.9,2.9,0,0,0-2-1.87c-.78,0-1.6,1-2.41,1.51C181.25,251.33,181.26,251.65,181.26,252ZM312,45.68l1,0c.58-.8,1.61-1.61,1.6-2.4s-1.09-1.78-1.87-2a1.69,1.69,0,0,0-2.11,2C310.69,44.14,311.52,44.9,312,45.68Zm-9.72,0,.89,0c.53-.78,1.4-1.52,1.5-2.35a1.8,1.8,0,0,0-2.09-2.06c-1.35.07-2.2.94-1.94,2.2C300.82,44.31,301.72,45,302.3,45.72Zm-10.15,0,.94,0c.58-.8,1.62-1.6,1.61-2.39a2.93,2.93,0,0,0-1.89-2,1.69,1.69,0,0,0-2.1,2C290.81,44.15,291.64,44.9,292.15,45.69Zm-9.93,0,.95,0c.57-.8,1.6-1.62,1.58-2.41s-1.1-1.77-1.89-2a1.69,1.69,0,0,0-2.08,2C280.88,44.16,281.71,44.9,282.22,45.69Zm-9,0c.58-.78,1.62-1.56,1.62-2.34a2.87,2.87,0,0,0-1.79-2,1.69,1.69,0,0,0-2.19,1.82c.06.86.91,1.68,1.4,2.51Zm48.83,0H323c.56-.81,1.57-1.64,1.54-2.43a2.93,2.93,0,0,0-1.93-1.93,1.69,1.69,0,0,0-2.05,2C320.65,44.2,321.5,44.92,322,45.7Zm24.41,4.83c3.07.65,6.22,1,9.45,1.47-.4.91-.89,1.9-1.27,2.93-.49,1.33-.85,2.73.4,3.86s2.76.79,4.08.09a15.21,15.21,0,0,0,7.54-8.07,11.49,11.49,0,0,0,.68-4.43c-.19-4.74-3-8.2-6.09-11.4a7.6,7.6,0,0,0-2.29-1.53c-2.2-1-4.22.23-4,2.6a24.17,24.17,0,0,0,1.5,5.06,10.16,10.16,0,0,0,.65,1.32c-3.61.46-7.15.77-10.63,1.42-1.8.33-4,.72-4.26,3.18C342,48.53,343.6,49.93,346.44,50.53Zm11,6.31-.72-.49c1-1.69,2-3.38,2.89-4.92l4.49-.91C362.32,53.51,360.33,55.65,357.48,56.84Zm6.28-12.9-3.38-.76-2.89-6.49C359.94,37.33,363,41,363.76,43.94Zm.86,2.83c-3.07,2.31-15.51,2.26-18.87-.16C352,45.29,358.18,45,364.62,46.77ZM337.11,294.84a2.42,2.42,0,0,0,2.6,2.57,2.48,2.48,0,0,0,2.43-2.4,2.52,2.52,0,0,0-5-.17Zm-1-70.27a2.49,2.49,0,0,0,5,.13,2.26,2.26,0,0,0-2.41-2.51A2.29,2.29,0,0,0,336.12,224.57ZM332.85,45.46a2,2,0,0,0,2.06-2.34c-.1-.8-1-1.5-1.5-2.24-1.9.28-2.54,1.14-2.57,2.4A1.89,1.89,0,0,0,332.85,45.46Zm-69.8.28c.65-.73,1.65-1.37,1.86-2.22a1.66,1.66,0,0,0-1.81-2.17A3,3,0,0,0,261,43c-.15.76.72,1.72,1.15,2.6Zm-77.56,4.38c2,2.67,4.21,5.2,6.27,7.72-1.51.64-3.31,1.28-5,2.16-1.33.7-2.35,1.82-2,3.53S186.56,65.76,188,66a20,20,0,0,0,11.9-2.23,8.46,8.46,0,0,0,2.83-2.38c3.29-4.42,3.48-9.31,1.58-14.28a3.73,3.73,0,0,0-2.66-2.13c-.93,0-2.12,1.08-2.78,2a16.2,16.2,0,0,0-1.46,3.62c-1.36-1.18-2.55-2.33-3.86-3.32a34.61,34.61,0,0,0-4.31-2.81,7.7,7.7,0,0,0-3-.91,2.23,2.23,0,0,0-2.49,3.06A11.3,11.3,0,0,0,185.49,50.12Zm2.14,12.34,7-2.85,3.08,2C194.69,63,190.51,63.5,187.63,62.46Zm14.2-14.87c1.63,3,1.25,6.07.7,9.28C199.5,53.63,199.27,50.61,201.83,47.59Zm-1.52,12.57a36.46,36.46,0,0,1-13.82-13.33C190.89,47.89,199.24,56,200.31,60.16Zm-9,256.14,3.8,2.77.54-.3V76.37c12.21-2.33,18.56-10,21.22-21.65h122c-2.5-2.74-4.86-4.6-8.69-4.27-4.67.39-9.4.09-14.1.09l-101.57,0a10.16,10.16,0,0,0-1.39.17c-1,13.76-9.37,19.9-21.85,22.15Zm-10,83.54a60,60,0,0,0,1.73,8.3,3.57,3.57,0,0,0,2.48,2.07c.8.08,1.84-1,2.55-1.77a4.48,4.48,0,0,0,.89-2.17c.54-3.16,1-6.34,1.5-9.61a15.26,15.26,0,0,0,3.51,1.38c1.05.16,2.58,0,3.19-.63a3.73,3.73,0,0,0,.4-3.23,15.61,15.61,0,0,0-2.72-4.31c-6.26-7.38-19.28-5.24-23,3.73a5.31,5.31,0,0,0-.2.56,2.58,2.58,0,0,0,2.46,3.46,9.47,9.47,0,0,0,3.28-.56,39,39,0,0,0,3.86-1.77A31.05,31.05,0,0,0,181.26,399.84Zm13.84-4.61c-3.12.29-5.4-2.14-6-6.6C192.41,390.44,194.43,392.7,195.1,395.23ZM185.44,388c2,3.8,1.92,15.39-.11,18.81C183.41,404.08,183.42,392,185.44,388Zm-10.18,6.92-.33-.58c1.8-2.6,4.31-4.34,7.51-5.94l-.88,3.78Zm10.37-103.7c-.15-.87-1-1.62-1.59-2.42l-.93,0c-.51.83-1.46,1.69-1.4,2.48a2.89,2.89,0,0,0,1.9,1.93A1.69,1.69,0,0,0,185.63,291.23Zm-4.37,10.44c.82.53,1.6,1.42,2.46,1.51a1.69,1.69,0,0,0,1.9-2.12,2.92,2.92,0,0,0-2-1.87c-.78,0-1.61,1-2.41,1.51Zm61.34-256,1,0c.53-.82,1.5-1.67,1.45-2.45a2.9,2.9,0,0,0-1.92-1.89,1.67,1.67,0,0,0-2.05,2C241.15,44.17,242.05,44.92,242.6,45.71Zm-20,0,1,0c.57-.81,1.59-1.63,1.57-2.42a2.93,2.93,0,0,0-1.9-1.95,1.69,1.69,0,0,0-2.08,2C221.25,44.17,222.09,44.91,222.6,45.69Zm29.9,0h.95c.54-.83,1.54-1.68,1.49-2.47a2.92,2.92,0,0,0-2-1.89,1.69,1.69,0,0,0-2,2C251.09,44.23,252,44.94,252.5,45.71Zm-18.89,0c.53-.78,1.4-1.51,1.51-2.35a1.68,1.68,0,0,0-2.06-2c-.8.2-1.89,1.24-1.92,1.95s1,1.61,1.54,2.42Zm140,70.1c-1.92.67-4.3-.53-6.63,1.65a14.46,14.46,0,0,0,3.2,1c10.92.45,21.83.86,32.75,1.14a2.94,2.94,0,0,0,2.34-1.49c.39-1.42-.88-1.83-2.1-2-.32,0-.64-.11-.85-.14-.51-9.51-1-18.93-1.54-28.52l1.16-.13c1.23-.12,2.55-.27,2.45-1.92-.09-1.49-1.3-1.66-2.49-1.67-11.66-.11-23.31-.23-35-.29a9,9,0,0,0-2.49.71c0,.27,0,.55,0,.82l2.44,1.25C369.13,96.15,371.38,106,373.62,115.79Zm24.3-28.26v28.34h-5.61c-.32-9.46-.63-18.82-.95-28.34Zm-9.38-.4v28.69H378.39c2.11-9.6,4.2-19.11,6.3-28.69Zm-7.37-.31c-1.66,7.16-3.25,14-4.93,21.2-2.12-7.42-4.12-14.43-6.2-21.73Z"/></svg>