<svg xmlns="http://www.w3.org/2000/svg" viewBox="0 0 750 750"><path d="M606.26,48.75c.09-15-11.42-23.77-23.62-23.75q-197.64.26-395.28.1c-13.13,0-22.69,9.55-22.69,22.66V374.87q0,163.76,0,327.51a24.23,24.23,0,0,0,.62,5.7c2.62,10.55,11.23,16.92,22.75,16.92H583.73c8.12-.2,14.55-3.5,19-10.37,2.75-4.21,3.44-8.92,3.44-13.84q0-276.54,0-553.07C606.19,114.73,606,81.74,606.26,48.75Zm-4.35,652.92c0,11.54-7.47,19.05-19,19.05q-197.55,0-395.1.07a18.65,18.65,0,0,1-19-19q.22-163.37.1-326.73,0-163.77,0-327.52c0-8.91,5.49-15.94,14-17.83a18,18,0,0,1,3.95-.35q198.54,0,397.08,0A17.66,17.66,0,0,1,601.91,47c0,1.33,0,2.65,0,4ZM580.39,421.9l-4.19-3V671.72c-12.36,2.36-18.7,10.07-21.39,21.68h-122c2.48,2.9,5,4.59,8.87,4.26,4.41-.38,8.87-.09,13.31-.09l101.94,0c.57,0,1.14-.1,1.58-.14,1-13.79,9.38-19.94,21.85-22.17ZM216.11,693.22c-2.78-11.61-9.17-19.27-21.28-21.48v-253l-4.28,3.17V675.27c12.57,2.27,21,8.47,21.86,22.2.49,0,.94.13,1.39.13,38.95,0,77.9-.08,116.85.06,3.59,0,5.12-2.27,7.34-4l-.15-.48ZM555.64,55c2.76,11.53,9.07,19.18,21.36,21.5v243l4.2-3.13V72.94c-12.57-2.27-21-8.48-21.87-22.2a13.56,13.56,0,0,0-1.39-.13c-39,0-77.9.07-116.85-.06-3.58,0-5.11,2.27-7.33,4l.15.48ZM191.36,316.36l4.26,3.1v-243c12.29-2.34,18.63-10,21.31-21.66H339c-2.56-2.83-5-4.62-8.92-4.28-4.6.42-9.26.1-13.89.1l-101.56,0a8.8,8.8,0,0,0-1.39.17c-1,13.76-9.36,19.9-21.84,22.14Zm143.85-69.53c-.27-1.26-.63-2.53-.79-3.84-.29-2.36-.36-4.75-.72-7.1s-1.55-3.42-4.09-3.34a19.69,19.69,0,0,0-4.31.64c-8.39,2.19-16.14,5.92-23.67,10.14-6.71,3.76-13.22,7.85-18.68,13.36-3.68,3.72-3.37,5.64.83,8.76,2.32,1.73,4.45,3.7,6.47,5.4-1.24,8.2,6.62,18.41,14.93,20.07,4.54,5.13,10,8.53,16.85,8.71,3.45.1,5.37,1.83,6.84,4.5,1.69,3.07,3.31,6.18,4.91,9.31,2.35,4.59,2.76,9.11-.14,13.75-2.2,3.53-1.32,6.63,2.27,8.73a13.07,13.07,0,0,0,4.81,1.7c8.22,1,14.66-2.65,20-8.35a16,16,0,0,0,3.24-6c1.78-5.67-.72-9.18-6.61-9.51-3.39-.2-6.43-1.32-8.23-4.12-3-4.71-5.71-9.66-8.35-14.61-.88-1.66-.55-3.46.48-5.27A27.86,27.86,0,0,0,344,283a21.82,21.82,0,0,0-.48-12.76C346.91,262.7,342.37,249.8,335.21,246.83Zm-.44,2.6a4.42,4.42,0,0,1,3.28,4.43,49.93,49.93,0,0,0,.85,5.57l-3-1c.73,4.21,3.71,6.49,5.45,9.59C336.48,267.26,331.65,253.39,334.77,249.43Zm-51.24,12.34-.36-.5a10.76,10.76,0,0,1,1.51-2.3,99.44,99.44,0,0,1,7.67-6.56,108.38,108.38,0,0,1,30.77-15.75,70.61,70.61,0,0,1,7.41-1.56l.47.89c-.54.78-1,1.61-1.64,2.33-4,4.61-8.91,8.06-13.95,11.36A80.82,80.82,0,0,1,288,261.29,38.73,38.73,0,0,1,283.53,261.77ZM305,287.61l-.53.12c-.6-1.64-1.11-3.33-1.84-4.91s-1-3.44-3.15-4.43c-.26,1-.46,1.75-.82,3.16-1.31-3.37-5.52-3.59-6.09-7.27a20.09,20.09,0,0,1,0-2.5,12.56,12.56,0,0,1,3.21,1c5.08,3.33,7.9,8.23,9.39,14C305.21,287,305,287.31,305,287.61Zm53.81,28.9a16.81,16.81,0,0,1,0,3.43,12.35,12.35,0,0,1-4.74,7.14c-4.4,3.34-9.22,5.52-14.93,3.94a18.68,18.68,0,0,1-3.5-1.88c2.47-4.36,3.73-8.53,2.4-12.56l8.89-5.29C349.47,314.93,353.85,316.17,358.79,316.51Zm-14.06-7.92a9,9,0,0,1-8,4.29c-2.68-4.37-5.39-8.8-8.25-13.49a16.25,16.25,0,0,0,9.36-5.14Zm-14.29-16.65c-8.62,4.59-17.38,4.45-23-2.16,1.86-3.53-.48-6.38-1.84-9.25a24,24,0,0,0-7.39-9c-1.63-1.22-3.31-2.23-5.48-1.6-1-1.08-1.85-2.09-2.92-3.28a77.9,77.9,0,0,0,42-22.68l1.11,4c-2.78,3.35-1.63,7-.73,10.59a26,26,0,0,0,5.71,10.79c.89,1,2.29,1.59,3.8,2.59C343.86,280,339,287.39,330.44,291.94Zm95.95-21.73c-1.85,6.56-1.65,13,1.93,18.83,1.79,2.94,1.39,5.47-.07,8.17-1.64,3-3.34,6-5,9-2.54,4.62-6.12,7.43-11.68,7.56-4.24.1-6.33,2.63-6,6.9a13.76,13.76,0,0,0,1.22,4.77c3.44,7.21,9.85,10.53,17.19,12a16.78,16.78,0,0,0,8.17-.71c5.34-1.71,6.65-5.54,3.82-10.34-1.88-3.2-2.45-6.58-1-9.89,2.12-4.76,4.6-9.37,7.13-13.94a5.94,5.94,0,0,1,5.21-3,30.5,30.5,0,0,0,8.25-1.88,21,21,0,0,0,9.19-6.9c8-1.19,16.14-11.84,15-20,1.92-1.64,4-3.43,6.13-5.21.81-.69,1.66-1.32,2.44-2a3.24,3.24,0,0,0,.53-4.64,20.05,20.05,0,0,0-3.1-3.59c-8.32-7.46-17.92-13-28.06-17.44a101,101,0,0,0-15.18-5.18c-4.52-1.19-6.16.46-6.45,5.11-.19,3-.68,6-1,8.74C427.43,250.23,423.25,262.19,426.39,270.21Zm5.44,60.5a12.24,12.24,0,0,1-9.12,0c-5-1.79-9.28-4.56-11.17-9.87a22.37,22.37,0,0,1-.61-4.29c5.15-.52,9.57-1.55,12.17-5.29l8.62,5.09a35,35,0,0,0,.08,6.11c.36,2.11,1.36,4.12,2.23,6.62A11.14,11.14,0,0,1,431.83,330.71ZM433.12,313c-3.34-.07-5.81-1.65-8-4.19l7-14.58a15.81,15.81,0,0,0,9.46,5.1Zm43.3-36.35a55.35,55.35,0,0,1-5.28,4.27c-.13-.64-.31-1.46-.52-2.5-2.25.85-2.46,2.8-3.19,4.31s-1.28,3.27-2,5.08c-.83-1.62.25-5.32,2.63-8.78,2.23-3.25,4.56-6.47,9.09-7.16A4.29,4.29,0,0,1,476.42,276.67Zm-33.78-41c5.19,1.74,10.44,3.38,15.47,5.5a95,95,0,0,1,25.41,16,38.75,38.75,0,0,1,3.52,4c-9.26,3.1-45.72-16.62-47.9-25.74A13.64,13.64,0,0,1,442.64,235.63Zm-8.53,22.85-2.82.81a39.59,39.59,0,0,1,.77-6.86c.34-1.26,1.77-2.21,2.71-3.3l.84.23a12.91,12.91,0,0,1,.84,3.24c-.07,5.9-2.61,10.81-6.48,15.11a2.74,2.74,0,0,1-1,.44C430.42,264.89,433.31,262.62,434.11,258.48Zm-5.51,12.75c2.38.28,3.47-1.55,4.68-3.23,3.15-4.4,5.3-9.2,5.42-14.67a26.64,26.64,0,0,0-.93-5.22l-.64.06c.35-1.3.71-2.6,1.14-4.15a77.9,77.9,0,0,0,41.9,22.66l-2.8,3.23c-2.83-.74-4.82,1-6.79,2.67a28.14,28.14,0,0,0-8.32,13.06c-.41,1.27-.06,2.78-.06,4.61-5.37,6.18-14,6.24-22.63,1.7C431.3,287.59,426.11,280.32,428.6,271.23Zm42,208.9a131.52,131.52,0,0,0,15-11.05c4.35-3.7,3.93-5.88-.6-9.27-2.25-1.69-4.32-3.63-6.29-5.3,1.35-8-6.32-18-15-20.14-5-5.62-10-8.26-17.41-8.67-3.16-.18-4.77-2-6.1-4.36-1.74-3-3.32-6.18-4.92-9.31-2.35-4.59-2.78-9.11.07-13.77,2.33-3.81,1.17-7.09-2.85-9.17a15.11,15.11,0,0,0-9.09-1.39c-5,.66-9.29,3.14-13.1,6.24a14.82,14.82,0,0,0-5.73,10.55c-.35,4.33,1.75,6.76,6.05,7.12.39,0,.79.1,1.19.11a9.37,9.37,0,0,1,8,4.09c3,4.71,5.72,9.66,8.36,14.6a4.91,4.91,0,0,1-.4,5.09c-3.84,6.16-4.35,12.79-2.36,19.78-3.37,7.36,1,19.72,8.37,23.39.24,1.05.59,2.19.74,3.36.25,2,.39,4,.53,5.93.29,4.05,1.76,5.36,5.74,4.81A33.24,33.24,0,0,0,446,491.6,102.89,102.89,0,0,0,470.59,480.13ZM464,437.84c2,3,2.32,6.62,5.36,9.44l.82-2.74a41.73,41.73,0,0,1,5.31,4.38c.85,1,.87,2.69,1.26,4.07l-.64.52a10.44,10.44,0,0,1-2.86-.84c-5-3.25-7.87-8.08-9.38-13.78A3.05,3.05,0,0,1,464,437.84Zm-53.84-28.9a17.55,17.55,0,0,1,0-3.43,12.35,12.35,0,0,1,4.72-7.15c3.95-3.11,8.37-5.08,13.57-4.29,1.73.27,3.55.59,4.56,2.61-1.91,3.91-3.57,7.95-2,12.09l-8.95,5.37C419.52,410.51,415.2,409.18,410.18,408.94Zm14,7.72a10.64,10.64,0,0,1,7.86-4.39l8.5,13.78a15.79,15.79,0,0,0-9.45,5.16C428.75,426.29,426.5,421.55,424.17,416.66Zm10.21,59.13a4.19,4.19,0,0,1-3.49-3.15c-.24-2.2-.44-4.41-.66-6.56l2.63.84c.11-2.35-1.15-3.68-2.12-5.1s-2-2.79-3.26-4.48C432.64,458.72,437.17,471.66,434.38,475.79Zm1.77,1.57c2.74-3.38,1.83-7.1.67-10.47s-3.15-6.65-4.91-9.89c-.91-1.67-2.24-3-4.33-2.86-2.3-8.1,1.54-15.26,10.57-20.45,7.93-4.55,17.06-5.16,23,2,0,1.28-.31,2.65.05,3.8,1.88,5.95,5,11.13,10.24,14.71,1.33.91,3.06,1.22,4.6,1.8l.27-.53,2.93,3.23a78.12,78.12,0,0,0-42,22.71C436.83,479.91,436.49,478.61,436.15,477.36Zm2.2,12.85-.41-.63a21.62,21.62,0,0,1,1.53-2.32c4-4.7,9-8.2,14.07-11.51,9-5.8,18.57-10.09,29.17-11.91a16.93,16.93,0,0,1,2.85,0l.43.68a51.7,51.7,0,0,1-4.58,4.77,107,107,0,0,1-37.92,20.15A37.93,37.93,0,0,1,438.35,490.21Zm-93-70.41c2.7-5.13,6.56-8.28,12.7-8.29,3.24,0,5-2,5.36-5.28a12.47,12.47,0,0,0-2.13-8.11c-3.67-5.8-9.34-8.74-15.74-10.16a17.51,17.51,0,0,0-8,.4c-5.9,1.59-7.42,5.53-4.4,10.8,1.77,3.1,2.29,6.36.89,9.53-2.11,4.76-4.55,9.4-7.08,14a6,6,0,0,1-5.39,3.09,25.18,25.18,0,0,0-7,1.4,22,22,0,0,0-10.31,7.3c-8.26,1.51-16.46,12.22-15,19.77a14.36,14.36,0,0,1-1.36,1.51q-3,2.55-6.14,5c-2.81,2.25-3.09,4.13-.76,6.88a30,30,0,0,0,4.11,4,115.78,115.78,0,0,0,32,18.19,61.84,61.84,0,0,0,10.88,3c3.12.57,4.53-.82,4.91-4,.11-.86,0-1.73.15-2.58.33-2.6.71-5.2,1-7.58,7.41-3.19,11.89-15.92,8.57-23.37,1.78-6.58,1.7-13-2-19-1.75-2.85-1.39-5.34,0-8C342.19,425.48,343.82,422.67,345.33,419.8Zm-10.65-23.37a14.29,14.29,0,0,1,2.54-1.75,12.22,12.22,0,0,1,8.75-.1c5.18,1.75,9.58,4.56,11.48,10.05a23.29,23.29,0,0,1,.59,4.25c-5.28.39-9.62,1.59-12.19,5.26L337,408.8C338.31,404.77,337,400.67,334.68,396.43Zm-42.07,52.18c1.72-1.39,3.47-2.75,5.18-4.1.15.64.35,1.46.54,2.28l.66.17c2.49-2.49,3.09-6.06,4.63-9.12,1,5.45-6.77,15.44-11.7,15.44A4.23,4.23,0,0,1,292.61,448.61Zm31.94,40.83A101.19,101.19,0,0,1,294.25,475c-3.57-2.48-6.87-5.35-10.22-8.14a14.35,14.35,0,0,1-2-2.66c8.84-3.13,44.3,15.95,48,26.08A44.18,44.18,0,0,1,324.55,489.44ZM334.82,467l2.86-.93a51.43,51.43,0,0,1-.71,6.81,4.19,4.19,0,0,1-3.5,3.14c-2-3.76-.67-7.27.62-10.67a16.51,16.51,0,0,1,5.87-8C338.55,460.51,335.69,462.79,334.82,467Zm5.59-12.92c-2.32-.09-3.5,1.6-4.71,3.3-3.15,4.4-5.29,9.19-5.42,14.66a26.75,26.75,0,0,0,.9,5.24l.64-.06c-.34,1.31-.68,2.63-1.08,4.2a77.88,77.88,0,0,0-42-22.73l2.82-3.15.26.54c1.75-.73,3.7-1.18,5.21-2.26,5-3.54,7.92-8.63,9.76-14.34.39-1.21.05-2.65.05-4.48,5.84-6.38,14.52-5.93,22.74-1.45S342.84,445.24,340.41,454.1ZM337,431.25a16.25,16.25,0,0,0-9.52-5.19c2.87-4.68,5.62-9.15,8.33-13.58a8.91,8.91,0,0,1,8,4.5c-1.2,2.4-2.39,4.69-3.49,7S338.13,428.66,337,431.25Zm19.32-253.42c1.22,2.69,2.23,5.48,3.25,8-5.15,6.3-3,19.91,3.61,24.72,1.77,7.5,4.78,12.2,10.87,15.88A7.1,7.1,0,0,1,377.6,233c.07,3.11-.05,6.22,0,9.34.07,6-1.6,11-7.38,14.07-2.82,1.51-3.33,4.23-2.08,7.25a11.41,11.41,0,0,0,5.42,5.88,23.37,23.37,0,0,0,22.45.08,14.17,14.17,0,0,0,4.43-3.88c3-3.87,2.37-7.51-1.84-10a11.7,11.7,0,0,1-6.14-9.83c-.3-4.49-.32-9-.23-13.5a6.2,6.2,0,0,1,3.53-6,16.82,16.82,0,0,0,7.17-7c1.6-2.85,2.83-5.91,4.52-9.52,5.7-4.06,7.79-17.62,3-24,.39-1.28.73-2.7,1.25-4,.88-2.28,1.93-4.5,2.8-6.78a2.91,2.91,0,0,0-1.47-3.89,20.6,20.6,0,0,0-4.75-1.93c-9.35-2.26-18.88-2.57-28.43-2.26-6.76.22-13.51.73-20,2.75C354.88,171.37,354.19,173.23,356.28,177.83ZM364,207.54c0-3.54,1.69-7,.31-10.41l-.69-.19-1.46,2.11a65.57,65.57,0,0,1-2.6-6.62A4.49,4.49,0,0,1,361,188C365.68,190.59,367.84,204.58,364,207.54Zm33.89,51.14a13.29,13.29,0,0,1-1.23,2.51,12.42,12.42,0,0,1-8,4.41c-5,.86-9.94.45-14.11-2.94a29.55,29.55,0,0,1-3.28-3.77c4.42-2.87,7.86-6,8.46-10.56h10C393,254.66,393,254.66,397.92,258.68ZM379.51,229a15.28,15.28,0,0,0,10.76,0c-.31,5.42-.61,10.66-.91,15.87a8.9,8.9,0,0,1-9,.07C380.06,239.81,379.79,234.55,379.51,229Zm6-5.37c-8.5,1-17.44-4.9-20.07-12.83,3.37-2.66,3-6.61,2.77-10.17a52.72,52.72,0,0,0-2.31-10.57,4.87,4.87,0,0,0-3.88-3.82c-.35-1.45-.68-2.76-1.06-4.33a78,78,0,0,0,47.77,0c-.35,1.5-.65,2.82-1,4.13l-.51-.36c-1.18,1.49-2.66,2.82-3.48,4.48-2.71,5.5-2.89,11.36-1.74,17.27.24,1.18,1.22,2.22,2,3.65C402.49,218.16,397,222.28,385.52,223.62Zm24.65-31.06c-.84,2.17-1.76,4.32-2.62,6.42-.49-.65-1-1.37-1.55-2.09l-.62.25c-1.14,3.41.27,6.85.4,10.4-3.86-2.74-1.74-16.81,2.71-19.37A4.2,4.2,0,0,1,410.17,192.56Zm2-18.26a22,22,0,0,1-2.55,1.41c-5.61,2.23-11.54,2.82-17.47,3.38a83.21,83.21,0,0,1-29.88-2.64,44,44,0,0,1-4.77-2C364.49,168.21,404.7,168.11,412.14,174.3Zm-57.8,379.38a18.28,18.28,0,0,0,4.64,1.68,115.74,115.74,0,0,0,43,.59,32.26,32.26,0,0,0,7.21-2.11c2.51-1.06,3-2.63,2.08-5.18-.34-.94-.87-1.79-1.23-2.71-.95-2.46-1.85-4.93-2.69-7.18,4.87-6.48,2.77-19.85-3.59-24.65-1.64-6.9-5-12.5-11.05-16-2.64-1.52-3.41-3.71-3.48-6.39-.08-3.17.07-6.35,0-9.53-.11-6.06,1.62-11,7.4-14,2.62-1.38,3.3-3.9,2.2-6.69a14,14,0,0,0-2.54-4c-6.13-7-22.54-6.92-28.89,0-4.11,4.47-3.8,8.58,1.31,11.72,3,1.82,5.05,4.36,5.3,7.74.41,5.52.38,11.09.34,16.63a4.61,4.61,0,0,1-2.66,4.12,19.22,19.22,0,0,0-8.05,7.75c-1.52,2.75-2.66,5.7-4.24,9.16-5.73,4.07-7.83,17.54-3,24.07-.43,1.35-.83,2.89-1.39,4.36-.79,2-1.81,4-2.52,6C351.73,551.31,352.24,552.61,354.34,553.68Zm48.37-25.56,1.88-2.4a59.26,59.26,0,0,1,2.68,6.56,4,4,0,0,1-1.38,4.22c-4.64-1.87-7-15.65-3.1-19.69C402.9,520.54,401.22,524,402.71,528.12Zm-34-62.05a16.47,16.47,0,0,1,1.33-2.59,12.4,12.4,0,0,1,8-4.45c5-.82,9.91-.48,14.13,2.83,1.33,1.05,2.65,2.21,2.61,4.4-3.89,2.49-6.95,5.49-7.64,10.07H376.78C376.25,472,373.09,468.75,368.75,466.07Zm18.61,29.56a16.14,16.14,0,0,0-10.8,0c.27-5.56.52-10.75.77-15.85a9.29,9.29,0,0,1,9.09-.16C386.73,484.83,387,490.13,387.36,495.63Zm-6,5.4a19.72,19.72,0,0,1,20.07,12.91c-3.47,2-2.76,5.58-2.95,8.67a21.77,21.77,0,0,0,2.55,12.29,28.21,28.21,0,0,0,3.27,4l.53-.17c.15.65.27,1.29.44,1.93s.36,1.26.65,2.25A71.85,71.85,0,0,0,382,539a70.69,70.69,0,0,0-24,3.88c.39-1.58.72-2.89,1-4.23,4.19-1.81,5.13-5.79,5.72-9.57a52,52,0,0,0,.09-11.23c-.09-1.4-1.23-2.73-2.13-4.59C364.6,505.7,371.09,502,381.39,501ZM359.2,525.48l1.51,2.2.67-.17c1.38-3.4-.36-6.89-.32-10.46,3.76,2.94,1.79,16.42-2.77,19.5-1.77-.77-1.44-2.55-1.75-3.56Zm-4.41,24.71a13.42,13.42,0,0,1,2.53-1.29c3.77-1,7.53-2.1,11.37-2.7a85.47,85.47,0,0,1,34.66,1.63,56.1,56.1,0,0,1,5.68,2.09l.06.71a12.6,12.6,0,0,1-2.63,1.35,82.68,82.68,0,0,1-9.29,2,106.82,106.82,0,0,1-37.31-1.25,39.7,39.7,0,0,1-5.08-1.86Zm14.7-201.76c-4.06-3.81-8.11-3.34-11,1.37-2.5,4.11-6.18,5.85-10.74,6.05-3.76.16-7.55.26-11.32.14a36.71,36.71,0,0,1-5.57-1c-3.88-7.55-9.74-11.9-17.54-13.55-4.59-6.4-18-8.48-24.42-3.78-.46-.1-1-.15-1.49-.31-1.2-.37-2.42-.72-3.58-1.2-1.58-.66-3.09-1.5-4.69-2.15-2.82-1.13-4.34-.54-5.64,2.19a18.89,18.89,0,0,0-1.24,3.55c-2.45,9.8-2.83,19.81-2.22,29.8a123.19,123.19,0,0,0,2.77,18.8c1.09,5,3.22,5.62,7.85,3.5,2.68-1.23,5.49-2.2,8-3.2,6.31,5.06,20,2.91,24.64-3.56,6.91-1.56,12.48-4.91,16-11,1.52-2.63,3.69-3.43,6.38-3.48,3.18-.06,6.36.09,9.54,0,6.07-.16,11,1.61,14.07,7.35,1.5,2.78,4.21,3.55,7,2.06a14.69,14.69,0,0,0,5.35-4.51c4.7-7.18,4.52-14.87,1.23-22.53A14.24,14.24,0,0,0,369.49,348.43Zm-90.83,39.3a21.59,21.59,0,0,1-1.33,2.74l-.72,0a38.4,38.4,0,0,1-1.79-4.86,94.68,94.68,0,0,1-2.11-29.16c.43-5.19,1.26-10.35,2.11-15.5a27.2,27.2,0,0,1,1.79-4.92l.66,0a25.26,25.26,0,0,1,1.36,2.7c2.22,5.87,3,12.05,3.43,18.25A78.26,78.26,0,0,1,278.66,387.73Zm17-49.68,6.45,2.58L299.77,342l.2.82c3.44,1,6.92-.25,10.56-.53-2.89,3.86-16.48,1.92-19.57-2.53A4.18,4.18,0,0,1,295.63,338.05Zm4.3,45.7c-.05.25-.1.49-.14.73l1.92,1.46a54.25,54.25,0,0,1-6.38,2.66,4.2,4.2,0,0,1-4.39-1.4c2.24-4.7,16.56-6.95,19.61-3C306.91,384.14,303.38,382.55,299.93,383.75Zm13.48-1c-.9-1.85-2.63-2.29-4.55-2.56-5.64-.79-11.13-.39-16.26,2.24a23.67,23.67,0,0,0-4,3.25l.35.49-4.28,1.07a76.92,76.92,0,0,0,0-47.93c1,.27,1.6.46,2.23.62s1.29.3,2,.45c1.6,4,5.4,4.76,8.93,5.7a26.11,26.11,0,0,0,12,.18c1.37-.28,2.59-1.28,4.36-2.19,7.69,1.83,11.94,8.85,12.16,19C326.53,372.06,322.64,380.54,313.41,382.72Zm34.39-14.87-15.94.83a15.81,15.81,0,0,0,0-10.85l15.92.9A8.89,8.89,0,0,1,347.8,367.85Zm17.6,5.93c-1,1.22-2.07,2.44-4.11,2.35-2.56-3.77-5.6-7.13-10.18-7.66.16-3.5.31-6.79.47-10.15a34.26,34.26,0,0,0,5.49-3c1.68-1.31,2.93-3.18,4.64-5.12a16.46,16.46,0,0,1,2.7,1.59,12.69,12.69,0,0,1,4,7.36C369.48,364.41,368.92,369.44,365.4,373.78Zm120.72-39.22c-2,.77-4.08,1.47-6,2.14-6.11-5.07-19.61-2.91-24.62,3.7-6.83,1.39-12.34,4.82-15.87,10.88-1.62,2.76-3.92,3.56-6.75,3.58-3.58,0-7.15-.07-10.73-.11-5.28-.06-9.43-2-12.15-6.79-1.9-3.36-4.92-4.11-8.29-2.21a17,17,0,0,0-4,3.44c-5.17,5.75-5.12,19.62-.36,25.43a19,19,0,0,0,2.12,2.36c4.26,3.79,8.17,3.31,11.12-1.52,1.94-3.18,4.65-5.24,8.26-5.52,5.14-.4,10.31-.44,15.47-.39a5.65,5.65,0,0,1,5.24,3.29,17.68,17.68,0,0,0,7.26,7.45c2.8,1.55,5.82,2.74,9.32,4.36,4,5.71,17.65,7.8,24,3a17.3,17.3,0,0,1,2,.53c2.28.9,4.56,1.79,6.79,2.79,3.77,1.7,5.63,1,7-2.9a32.84,32.84,0,0,0,1.38-5.17,115.92,115.92,0,0,0,1.05-34.23,77.44,77.44,0,0,0-2.51-12.62c-1.12-3.88-3.22-4.55-6.86-2.87C488,333.65,487.11,334.18,486.12,334.56Zm-68.31,32.68c-4.46.84-7.63,3.78-10.28,8.16a20.43,20.43,0,0,1-3.41-2.18,13.41,13.41,0,0,1-3.84-8.31c-.4-3.56-.26-7.14,1.45-10.44,1.25-2.41,2.74-4.63,5.82-5.49,2.65,4.13,5.74,7.39,10.26,8Zm3.15-.64c-1.45-3-1.25-6,.12-9.42,2.8,0,5.43.07,8.07,0s5.1-.33,8-.52a16.93,16.93,0,0,0,0,10.85Zm48-24.92.28-.7L467,339.44a66.56,66.56,0,0,1,6.64-2.59c1.52-.43,3.12,0,4.66,1.64a14.31,14.31,0,0,1-2.72,2.41c-5.14,2.58-10.55,2.72-16.06,1.42a3.68,3.68,0,0,1-1-.67C462.08,341.38,465.52,342.77,469,341.68Zm4.69,45.75a55.4,55.4,0,0,1-6.42-2.63l2-1.57-.18-.69c-3.47-.91-7,.25-10.61.61,2.69-4,17.21-1.84,19.61,2.83A4.06,4.06,0,0,1,473.67,387.43ZM480,385l.36-.51c-1.36-1.12-2.58-2.54-4.12-3.33-5.6-2.85-11.59-3-17.63-1.86-1.17.23-2.18,1.25-3.67,2.15-9.54-2.5-12.59-12.12-12.33-19.68.34-9.71,4.38-17.13,12.93-19.07,1.07,2,3.1,2.3,5.17,2.59A26.21,26.21,0,0,0,476.38,343c1.48-.74,2.64-2.15,3.94-3.25l-.36-.48,4.39-1.1a71.77,71.77,0,0,0-3.85,23.91A70.61,70.61,0,0,0,484.37,386Zm12.21-50.38a39.54,39.54,0,0,1,1.94,5.09,94.5,94.5,0,0,1,2.11,28.79c-.41,5.4-1.29,10.76-2.15,16.11a26.46,26.46,0,0,1-1.86,4.89C485.12,380.84,484.87,344.35,492.22,334.64Zm-3.29,229.51q1.8,11.37,3.64,22.73c.42,2.6.87,5.2,1.32,7.8a1.3,1.3,0,0,0,.65-.94c1.46-9.07,3.16-18.12,4.25-27.25.62-5.17,3.34-8.29,7.58-10.59a48.14,48.14,0,0,1,16.06-4.9c.52-.08,1-.23,1.79-.4-.4-.29-.49-.42-.61-.44-.84-.16-1.69-.3-2.54-.44-6.05-1-11.9-2.64-17-6.18a10.64,10.64,0,0,1-5-7.34c-1-7.07-2.19-14.12-3.31-21.18-.47-3-1-5.91-1.46-8.87a1.25,1.25,0,0,0-.59.93c-1.49,9.14-3.14,18.26-4.37,27.44-.61,4.58-2.64,8-6.67,9.87a125.35,125.35,0,0,1-13.16,4.83,40.08,40.08,0,0,1-5.6,1l.08.45c1.29.21,2.58.4,3.87.63,5.65,1,11.11,2.56,15.93,5.8C486.34,558.85,488.42,560.93,488.93,564.15ZM313.86,156.34c-1-.19-2.08-.36-3.13-.54-5.78-1-11.35-2.61-16.28-6a11.22,11.22,0,0,1-5.26-8c-1.4-9.62-3-19.22-4.53-28.82a5.18,5.18,0,0,0-.58-1.08c-1.58,9.88-3.25,19.32-4.54,28.81-.58,4.33-2.45,7.59-6.2,9.55a64.83,64.83,0,0,1-10,4.23,88.38,88.38,0,0,1-9.22,2c0,.11,0,.23,0,.34,1.29.2,2.59.38,3.88.61,5.77,1,11.35,2.61,16.27,6a11,11,0,0,1,5.08,7.91c.72,5.44,1.68,10.85,2.55,16.27.71,4.39,1.43,8.77,2.23,13.72a8.81,8.81,0,0,0,.55-1.21c1.49-9.27,3.14-18.52,4.38-27.83a12.32,12.32,0,0,1,6.09-9.44,40.37,40.37,0,0,1,13.5-5c1.83-.36,3.67-.67,5.64-1C314,156.51,314,156.36,313.86,156.34ZM415.07,76.19H355.66V126h59.41ZM411,121.68h-51.1V80.5H411ZM386.27,655a39.8,39.8,0,0,0,2.26-6.12c1.87-7.31,2-14.79,2-22.27a13.82,13.82,0,0,0-.41-4.13,2.85,2.85,0,0,0-2-1.73c-.7,0-1.68.89-2.06,1.64a6.86,6.86,0,0,0-.38,2.92c-.08,4.3,0,8.61-.2,12.9a60.42,60.42,0,0,1-1.14,10.42c-.7,3-2,6.11-5.68,7-3.9-1.87-5.07-5.19-5.31-8.89-.46-6.92-.72-13.87-1.11-20.8a9.78,9.78,0,0,0-.66-3.28,2.42,2.42,0,0,0-1.76-1.23,3,3,0,0,0-1.79,1.25,3.43,3.43,0,0,0-.38,1.71,102.07,102.07,0,0,0,.45,23.95,16,16,0,0,0,3.24,8C374.68,660.41,383.24,661.8,386.27,655Zm29.18-20.53c1.31-3.87.79-7.37-1.86-10.38s-6-3.55-9.8-2.89c-1.32.24-2.67.32-4.43.51-1.2,1.31-2.79,2.94-4.24,4.69a3.05,3.05,0,0,0-.65,2,6.11,6.11,0,0,0,.9,2l.87.19c.26-.62.52-1.24.79-1.85a1.48,1.48,0,0,1,.41,1c-.27,7.47-.56,14.93-.78,22.4a19.28,19.28,0,0,0,.28,4.93,3.27,3.27,0,0,0,2,2.06,3,3,0,0,0,2.48-1,5.15,5.15,0,0,0,.64-2.81c.08-2.44,0-4.88,0-7.48C408.51,645.19,413.19,641.07,415.45,634.43Zm-13.36-8.72c4.48-2,8.43-.47,9.1,3.84a10.44,10.44,0,0,1-1,5.11c-1.41,3.55-5.14,7-8.06,7.63Zm26.54,10.2a18.65,18.65,0,0,1-4.22-4.64c-1.71-2.72-1-4.89,1.85-6.85a5.41,5.41,0,0,1,5,3.76,6.15,6.15,0,0,0,.9,2,1.6,1.6,0,0,0,2.9-.63,6.89,6.89,0,0,0-2.3-7.15c-4.57-3.51-9.32-2.59-12.24,2.37a9.08,9.08,0,0,0-.65,7.66c1,3.29,3.21,5.69,5.8,7.87,3.12,2.64,5,6,4.74,10.23-.17,2.76-1.78,4.34-4.33,4.45-3.26.14-4.48-.83-5-4a4.2,4.2,0,0,0-.25-1.35c-.36-.66-.78-1.61-1.32-1.73a2.59,2.59,0,0,0-2.25.71,6.24,6.24,0,0,0-1.19,3.23,7.8,7.8,0,0,0,6.2,7.74c7.3,1.23,12.42-2.37,12.78-9.78A15.66,15.66,0,0,0,428.63,635.91Zm-161-87c2.57,1.06,3.85,3.17,4.21,6,.6,4.72,1.44,9.41,2.2,14.1a6.31,6.31,0,0,0,.56,1.29c.22-.78.38-1.21.45-1.65.73-4.5,1.61-9,2.11-13.51a7.53,7.53,0,0,1,4.73-6.54,50.17,50.17,0,0,1,5.39-2c1.16-.36,2.39-.52,3.51-.75-3.33-1.22-6.6-2.24-9.72-3.61a6.36,6.36,0,0,1-3.83-5.62c-.19-2.1-.61-4.18-.95-6.27-.5-3-1-6.08-1.53-9.13a1.63,1.63,0,0,0-.72,1.06c-.74,4.56-1.65,9.11-2.13,13.71a7.88,7.88,0,0,1-4.93,6.84,34.22,34.22,0,0,1-4.27,1.59c-1.49.44-3,.71-4.54,1.06a3.34,3.34,0,0,0,1.42.67C262.31,547.12,265.06,547.86,267.66,549ZM500.6,187.48a2.74,2.74,0,0,0-1.29-.66c-2.75-.91-5.57-1.65-8.22-2.79a6.81,6.81,0,0,1-4.07-5.88c-.63-5-1.57-10-2.38-15.05l-.47,0a5.8,5.8,0,0,0-.29.86c-.8,4.89-1.67,9.78-2.34,14.69-.31,2.23-1.23,4.06-3.19,4.93-2.93,1.31-6,2.22-9.06,3.3-.43.15-.86.25-1.34.39,3,1,5.88,1.73,8.62,2.83a7.48,7.48,0,0,1,5.1,6.67c.38,4,1.21,8,1.87,11.95.17,1,.4,2,.6,2.94A104.93,104.93,0,0,0,487,196.76a7.63,7.63,0,0,1,4.9-6.62,55.85,55.85,0,0,1,5.8-2C498.62,187.85,499.62,187.7,500.6,187.48ZM361.69,653.16a2.8,2.8,0,0,0-.57-2.69,3.59,3.59,0,0,0-3,.31c-1.09.67-1.78,2-2.81,2.76-2.74,2.13-5.67,1.69-7.81-1-4.74-6-4.22-18.71,1-24.37,3-3.26,6.46-3.22,9.34.12a25.36,25.36,0,0,0,2.26,2.76,2.46,2.46,0,0,0,2.09.41c.44-.17.75-1.16.79-1.8a4.28,4.28,0,0,0-.53-1.88c-3.06-6.88-11-8.23-16.34-2.7a23.29,23.29,0,0,0-6.2,15.4c0,7.58,1.78,12.84,5.12,16.11C350.88,662.28,358.32,659.42,361.69,653.16Zm66.39,45.65a13,13,0,0,0-4.42-1.61c-2.57-.48-5.18-.66-7.88-1a16.36,16.36,0,0,0,1.4-3.51c.16-1.07.13-2.67-.51-3.22a3.87,3.87,0,0,0-3.41-.47,14.83,14.83,0,0,0-8.63,9.52c-1.74,5.64,3.08,12.62,6.91,15.43,1.21.89,2.57,1.57,4,.63s1.51-2.62,1.07-4.11c-.51-1.69-1.31-3.29-2.09-5.18a22.15,22.15,0,0,0,3.47,0,70.75,70.75,0,0,0,9.65-1.94C430.12,702.56,430.26,700.17,428.08,698.81Zm-13.42-7.66c-1,4.35-2.48,6.19-6.89,6.23A13,13,0,0,1,414.66,691.15Zm-1.48,20.64-5.63-7.06c.14-.18.27-.37.41-.56l3.37.75,2.77,6.26Zm-5.88-10.74a30.12,30.12,0,0,1,18.68.2C419.72,702.88,413.49,703.14,407.3,701.05Zm63.94-62c.17-1.5-1.4-2.9-4.24-3.5-3.07-.65-6.21-1-9.45-1.47.38-.85.86-1.77,1.21-2.74.5-1.38,1-2.85-.34-4.05s-2.89-.74-4.25,0a15.19,15.19,0,0,0-7.21,7.62,12.12,12.12,0,0,0-.83,4.8c.16,4.74,3,8.2,6.09,11.4a7.6,7.6,0,0,0,2.29,1.53c2.19,1,4.22-.23,4-2.6A24.2,24.2,0,0,0,457,645a10.16,10.16,0,0,0-.65-1.32c3.61-.46,7.15-.77,10.63-1.42C468.78,641.92,470.94,641.53,471.24,639.07Zm-15.19-9.78.62.44c-1,1.69-1.95,3.37-2.86,4.95l-4.44.86C451.13,632.58,453.1,630.38,456.05,629.29Zm-.78,20.27c-2.63-1.79-4.34-4.32-5.95-7.48l3.75.83,2.77,6.34Zm-6.21-10.11c1.89-2.43,15.26-2.47,19.06,0A40.39,40.39,0,0,1,449.06,639.45ZM346.21,50.57c3.16.64,6.37,1,9.72,1.55a13.71,13.71,0,0,0-1.31,3.22c-.15,1.13-.18,2.82.49,3.38a4,4,0,0,0,3.57.38,14.46,14.46,0,0,0,8.47-9.62c1.05-4-.32-7.48-2.68-10.53A24.55,24.55,0,0,0,359,33.64c-2.05-1.38-4.17.13-4.06,2.64a11.82,11.82,0,0,0,.84,3.42,31.33,31.33,0,0,0,1.54,3.19,21,21,0,0,0-2.12,0c-3,.34-6,.57-9,1.14-1.74.33-4,.8-3.9,3.21C342.37,49.48,344.39,50.2,346.21,50.57Zm11.21,6.32-.61-.45,2.87-4.89c1.52-.32,2.68-.57,3.84-.79.1,0,.22.09.46.19C362.31,53.59,360.42,55.87,357.42,56.89Zm6.48-12.83-3.53-.79c-.94-2.16-1.83-4.24-2.89-6.69C360.11,37.65,362.83,40.94,363.9,44.06Zm1,3.33a38.06,38.06,0,0,1-19.34,0C348.05,45.08,360.92,45.08,364.87,47.39ZM172.63,340.24a43.21,43.21,0,0,0,7,5.68c8.08,4.8,15.8-1.77,18-7.65a3.52,3.52,0,0,0-.51-3,3.85,3.85,0,0,0-3-.65,19.12,19.12,0,0,0-3.78,1.45c-.34-2.78-.49-5.49-1-8.12a13.21,13.21,0,0,0-2-4.66c-1-1.48-2.84-1.29-3.78.27A9.84,9.84,0,0,0,182.2,327c-.53,3.36-.86,6.76-1.26,10.15-1.57-.65-3.17-1.45-4.86-2-1.49-.44-3.11-.48-4.1,1.07A3.05,3.05,0,0,0,172.63,340.24Zm17.29-.47,4.89-2.88.45.6c-1,3-3.32,4.88-5.92,6.57-.11-.23-.23-.35-.21-.45C189.36,342.45,189.6,341.29,189.92,339.77Zm-4.21-14.21a37.84,37.84,0,0,1,0,19.34C183.47,341.14,183.44,328.28,185.71,325.56Zm-10.36,12.22,6.31,2.67.82,3.73a18.39,18.39,0,0,1-7.44-5.79Zm182,351.06c-2.58-.93-4.39.87-3.67,3.53a38.4,38.4,0,0,0,1.52,3.85c-2.7.32-5.34.49-7.9,1a13.19,13.19,0,0,0-4.57,1.77c-1.88,1.22-1.69,3.2.27,4.27a10.74,10.74,0,0,0,3.35,1.19c3.31.49,6.64.81,9.93,1.2-.62,1.57-1.43,3.29-2,5.1-.42,1.44-.42,3.24,1.17,3.8a4.36,4.36,0,0,0,3.77-.54,34.73,34.73,0,0,0,5.87-7.12C369.88,698.72,363.08,690.93,357.3,688.84Zm.16,22.7-.58-.29c.9-2.1,1.79-4.2,2.7-6.32l3.75-.83A18,18,0,0,1,357.46,711.54ZM345,701.4c3.87-2.29,15.34-2.33,19.06-.13A36.8,36.8,0,0,1,345,701.4Zm11.39-9.8c2.21,0,5.38,2.74,6.63,5.75C358.9,697.33,357.47,695.8,356.37,691.6Zm-39.61-40.25c1.61,1.09,3.24.37,4.31-.8a40.33,40.33,0,0,0,5.57-7.1c4.57-8.07-2.17-15.75-7.91-17.81-2.58-.92-4.38.88-3.66,3.52a41.73,41.73,0,0,0,1.62,4.12,15.32,15.32,0,0,0-2.26,0,74,74,0,0,0-8.91,1.68,4.44,4.44,0,0,0-2.52,2.87c-.36,1.59,1.25,2.26,2.59,2.76a8,8,0,0,0,1.69.55c3.45.46,6.91.88,10.44,1.32-.59,1.37-1.36,2.83-1.86,4.38S315.09,650.2,316.76,651.35Zm2.13-3-.57-.29q1.35-3.15,2.7-6.33l3.76-.84A18.28,18.28,0,0,1,318.89,648.35Zm-.82-20.25c3,1.09,4.94,3.28,6.69,6.24l-4.43-.85c-.91-1.57-1.89-3.26-2.88-5ZM306,637.76a37.79,37.79,0,0,1,19.35-.22C322.41,639.83,309.57,640,306,637.76ZM181.28,398.55a80.12,80.12,0,0,0,2,10c.75,2.42,3.17,2.54,4.51.37a12.81,12.81,0,0,0,1.62-4.41c.47-2.57.65-5.18,1-7.88a16.73,16.73,0,0,0,3.48,1.39c1.07.17,2.66.16,3.23-.48a3.85,3.85,0,0,0,.5-3.38,14.73,14.73,0,0,0-9.45-8.67c-5.5-1.69-12.06,2.57-15.32,6.65-1,1.26-1.87,2.74-.77,4.34s2.91,1.42,4.51.9,3-1.27,4.72-2A20.48,20.48,0,0,0,181.28,398.55Zm14-2.5L189.91,393c-.34-1.71-.59-2.91-.85-4.22A10.54,10.54,0,0,1,195.26,396.05Zm-9.73-7.88a30.33,30.33,0,0,1-.19,18.7C183.68,400.6,183.45,394.37,185.53,388.17ZM175.34,395l-.36-.62c1.83-2.55,4.37-4.25,7.53-6-.34,1.49-.57,2.54-.86,3.83Zm414.27-62.39a52.35,52.35,0,0,0-2-8.62c-.77-2.19-3-2.33-4.31-.38a12.34,12.34,0,0,0-1.7,4.37c-.5,2.63-.69,5.32-1,8.16-.69-.35-1.31-.69-2-1a11.67,11.67,0,0,0-2.06-.71c-2.46-.54-4.2,1.13-3.37,3.5a15.77,15.77,0,0,0,2.68,4.55c6.26,7.73,19,5.88,23.11-3.29,1.07-2.4-.18-4.44-2.79-4.15a23.69,23.69,0,0,0-4.85,1.53c-.52.19-1,.49-1.68.82A30.57,30.57,0,0,0,589.61,332.59Zm-13.94,4.91c.15-.2.29-.41.43-.61l4.94,2.85c.33,1.6.59,2.86.92,4.49C579,342.42,576.74,340.49,575.67,337.5Zm9.77,7a30.31,30.31,0,0,1,.14-18.65A31.46,31.46,0,0,1,585.44,344.49Zm10.2-6.76.3.57c-1.79,2.62-4.3,4.35-7.48,5.94.33-1.46.57-2.52.86-3.78ZM414.34,59.29a3.54,3.54,0,0,0,3.06-.49,3.88,3.88,0,0,0,.66-3,20,20,0,0,0-1.53-4,21.52,21.52,0,0,0,3.11-.16,85,85,0,0,0,8.83-2,3.21,3.21,0,0,0,1.7-2.54c0-.84-1.15-1.74-2-2.41a4.24,4.24,0,0,0-2-.73c-3.52-.51-7.05-1-10.65-1.44.6-1.49,1.4-3.15,1.93-4.89.43-1.43.43-3-1-4a3,3,0,0,0-4,.55A40.64,40.64,0,0,0,406.82,41C401.84,49.26,408.35,57,414.34,59.29Zm.74-22.77c-1.1,2.54-2,4.67-2.91,6.73l-3.28.78C409.09,41.77,412.15,37.83,415.08,36.52Zm12.08,10c-3,2.52-15.34,2.74-19.5.43C414.28,45,420.51,45.42,427.16,46.52Zm-14.28,5,2.86,4.9-.62.45c-3-1.08-4.93-3.29-6.73-6.3ZM591.94,387.11c-8.15-5.14-15.81.7-18.55,7a3.88,3.88,0,0,0,.47,3.4c.55.64,2.15.69,3.21.52a19,19,0,0,0,3.82-1.5,17.85,17.85,0,0,0,0,3.22c.62,3,1,6.16,2.18,9,1.06,2.51,3.54,2.22,4.74-.28a9.52,9.52,0,0,0,.95-2.81c.47-3.32.82-6.66,1.22-10.08a49.46,49.46,0,0,0,4.75,1.93c1.47.45,3.09.56,4.14-.95a3.08,3.08,0,0,0-.62-4.15A39.38,39.38,0,0,0,591.94,387.11Zm-10.89,5.82-4.91,2.89c-.14-.2-.29-.4-.44-.59,1-3,3.31-4.88,6.27-6.82C581.63,390.07,581.38,391.32,581.05,392.93Zm4.61,13.93a29.9,29.9,0,0,1-.23-18.68C587.52,394.37,587.2,400.6,585.66,406.86Zm3.67-14.61c-.28-1.22-.53-2.29-.79-3.41,2.63.64,6.15,3.43,7,6.13ZM186.88,52.17c1.62,2,3.42,3.83,5.12,5.71-1.61.67-3.34,1.28-4.95,2.11-1.41.71-2.54,1.82-2.2,3.62s1.89,2.36,3.43,2.45c4.76.29,9.17-.42,13.23-3.43,4.82-3.57,4.81-12.81,2.51-16.35-1.27-2-3.42-2-4.66,0a34.79,34.79,0,0,0-1.91,4.34,33.17,33.17,0,0,0-2.56-2.3c-2-1.46-4.08-2.93-6.24-4.17-1.32-.77-3-1.16-4.26.1s-.61,2.73.08,4A23.82,23.82,0,0,0,186.88,52.17Zm.93,10.33,6.79-2.78,3,1.84C195.45,63.06,190.48,63.66,187.81,62.5ZM202,47.7c1.48,3,1.28,6,.66,9.08A5.9,5.9,0,0,1,202,47.7Zm-1.32,12c-3.55-.22-12.94-9.07-14.12-13.47A38,38,0,0,1,200.63,59.74Zm385.42,638c-2-2.55-4.08-5-6.15-7.5,1.43-.59,3.12-1.17,4.7-2s2.69-1.87,2.28-3.76a3.09,3.09,0,0,0-3.48-2.36,42.76,42.76,0,0,0-8.77,1.07c-9,2.39-9.82,12.36-7.12,18.22a3.49,3.49,0,0,0,2.55,1.75,3.87,3.87,0,0,0,2.56-1.73,20,20,0,0,0,1.6-3.81c1.95,1.56,3.81,3.24,5.86,4.63a14.45,14.45,0,0,0,4.61,2.18c2.64.63,3.95-1,3-3.56A12,12,0,0,0,586.05,697.77Zm-2.63-12.55.09.71-6.42,2.56-3.27-2.07C577.22,685.28,580.25,684.63,583.42,685.22Zm-13.51,15.39c-1.68-3.1-1.31-6.14-.75-9.49C572.53,694.76,572.19,696.57,569.91,700.61ZM571.42,688c6,3.27,10.36,7.8,14.15,13.46C581.4,700.81,572.35,692.16,571.42,688ZM570.24,62c4,3.59,8.83,4.49,14,4.07,1.55-.13,3.08-.61,3.46-2.44s-.76-2.91-2.16-3.63c-1.62-.83-3.36-1.44-5.15-2.19a10.47,10.47,0,0,0,1.13-1.07c2.23-2.84,4.51-5.65,6.61-8.59.81-1.13,1.38-2.9,0-3.76a5.81,5.81,0,0,0-4-.26,10.88,10.88,0,0,0-3.61,2c-1.85,1.37-3.6,2.88-5.54,4.44-.41-1.14-.72-2.22-1.18-3.23-.58-1.28-1.29-2.55-3-2.48s-2.51,1.38-3,2.79A15.44,15.44,0,0,0,568,58.53,9.61,9.61,0,0,0,570.24,62Zm14.16.37-.19.63c-3.16.6-6.2-.12-9.63-1.17l3.29-2.13Zm1.47-15.56a32,32,0,0,1-13.57,13A29.94,29.94,0,0,1,585.87,46.81Zm-15.33.95c2.55,2.27,2.39,5.51-.53,9.32C569.32,53.75,569.1,50.75,570.54,47.76Zm-369,638.46c-4-3.69-9-4.53-14.18-4.06-1.48.14-2.92.66-3.28,2.39s.74,2.92,2.14,3.64c1.63.84,3.37,1.46,4.78,2.06-2.15,2.71-4.51,5.45-6.59,8.39-1.06,1.5-2.32,3.29-.84,5.26.88,1.17,3.12,1.06,5.48-.47,2.65-1.71,5.13-3.69,7.79-5.64a15.45,15.45,0,0,0,1.43,3.54c.61.87,1.81,1.94,2.66,1.86a3.9,3.9,0,0,0,2.68-2.11,18.06,18.06,0,0,0,1.15-5.77C204.86,691.92,204.08,688.6,201.52,686.22Zm-14.6-.55c2.79-1.06,6.9-.62,10,.86l-3.08,2ZM186,701.78c.14-3.32,9.22-12.25,14-13.61A38,38,0,0,1,186,701.78Zm15.11-1.13c-2.47-3.33-2.27-5.85.6-9.45A13.55,13.55,0,0,1,201.11,700.65ZM378.49,57.45a2.75,2.75,0,0,0,2.31.38c.42-.17.73-1.33.66-2-.36-3.42,1.13-5.92,4.57-7.27,3.79,1.1,5.45,3.62,5.05,7.28a2.45,2.45,0,0,0,.7,2,3,3,0,0,0,2.15-.27,4.11,4.11,0,0,0,1.28-1.22A11.45,11.45,0,0,0,384,37.92a11.53,11.53,0,0,0-9.21,9.94A10.59,10.59,0,0,0,378.49,57.45Zm3.36-14.65c3-2.14,6.3-1.94,9.49.59a6.52,6.52,0,0,1,2.18,7.54c-4.26-8.36-11.39-6.47-14.5.16A7.06,7.06,0,0,1,381.85,42.8Zm11.47,648a2.74,2.74,0,0,0-2.29-.45c-.48.24-.78,1.42-.7,2.13a6.27,6.27,0,0,1-5.11,7.13c-3.43-1.25-4.87-3.67-4.51-7.36.06-.62-.23-1.64-.66-1.84a2.35,2.35,0,0,0-2.13.2A12,12,0,0,0,375.2,694a11.33,11.33,0,0,0,6.08,15.75c7.16,3,13.59-2.05,15.19-7.14C397.79,698.37,396.49,693.19,393.32,690.8Zm-2.38,13.72c-3.13,2.79-6.82,3.1-10,.84-2.78-2-3.89-5.24-2.74-8.07,4,7.66,11,7.2,14.4.05C393.78,699.46,393,702.66,390.94,704.52Zm185.65-333.4a2.25,2.25,0,0,0-1.83.69c-.3.47-.08,1.35.1,2,.12.4.56.72.89,1a11.46,11.46,0,0,0,16.1-16.29c-4.48-4.88-12.55-5-16.55-.17a3.13,3.13,0,0,0-.55,2.45c.11.39,1.42.73,2.14.66,3.18-.34,5.74,1.21,7.12,4.56C583,369.9,580.52,371.48,576.59,371.12Zm5.13-11.91c2.11-1.19,5.22-.43,7.32,1.79a7.34,7.34,0,0,1,.76,9.62c-2,3-5.11,4.14-8.14,3C590.08,369.27,588,362.17,581.72,359.21Zm-387.27,2.45c1.19.11,2.1-.33,2-1.56a4.06,4.06,0,0,0-1.19-2.16,11.11,11.11,0,0,0-12-2.3c-4.31,1.75-7.54,6.32-7.33,10.88A11.39,11.39,0,0,0,183,376.94c4.35,2,10,.78,12.68-2.69a3.32,3.32,0,0,0,.45-2.47c-.08-.35-1.33-.67-2-.6-3.59.4-6.2-1.36-7.22-5.12C188.4,362.52,190.55,361.28,194.45,361.66Zm-5.16,12a6.55,6.55,0,0,1-7.67-2.38c-2.4-3.14-2.55-6.34-.44-9.33a7,7,0,0,1,8.1-2.85C181.64,363.27,182.05,369.93,189.29,373.62Zm338-81.66-2.37-.73c-2.18-.68-3.71-1.78-3.76-4.41a36.83,36.83,0,0,0-1-5.51c-.31.35-.5.47-.54.63a14.72,14.72,0,0,0-.3,1.74c-.45,4-1,7.94-7,8a9.46,9.46,0,0,0,1.34.67c3.64.55,5.37,2.61,5.37,6.32a19.36,19.36,0,0,0,.77,3.84,18.31,18.31,0,0,0,1.36-5.66,4,4,0,0,1,3.07-3.87C525.08,292.69,526,292.4,527.24,292ZM436.42,579.27a30.57,30.57,0,0,0-.87-5.13l-.49,0a36.42,36.42,0,0,0-.78,4.71c-.13,3.06-1.74,4.69-4.58,5.34l-1.52.36c.22.18.31.27.42.34a1.14,1.14,0,0,0,.36.15c3.61.55,5.4,2.58,5.41,6.3a19.43,19.43,0,0,0,.76,3.85c.84-2.38,1-4.76,1.63-7,.74-2.61,3.59-2.56,5.89-3.61-.88-.21-1.39-.31-1.89-.45C438.29,583.4,436.45,582.29,436.42,579.27ZM241.28,304c.36-2.33.15-5,1.24-6.91s3.41-2.77,5-4a4.77,4.77,0,0,1-.84-.12c-2.53-.73-4.68-1.7-4.66-5a29.64,29.64,0,0,0-.85-5.14,21,21,0,0,0-1.43,5.85c-.21,2.21-1.52,3.26-3.4,3.89-.78.26-1.58.44-2.75.76a13.88,13.88,0,0,0,1.76.65A5.22,5.22,0,0,1,240,299.3a43.3,43.3,0,0,0,.78,4.76ZM457.21,112.26a35.83,35.83,0,0,0-.92-5.48,17.06,17.06,0,0,0-1.16,4.57c-.45,3.66-1.19,4.57-4.76,5.62-.36.11-.73.2-1.68.46,1,.35,1.43.53,1.87.65,3.42,1,4.09,1.76,4.56,5.31.22,1.64.54,3.26.82,4.9a12.11,12.11,0,0,0,1-4.15c.18-3.37,1.5-5.69,5.13-6.16.31,0,.59-.31,1.11-.6l-2.17-.69C458.8,116,457.25,114.91,457.21,112.26ZM244.92,438.63a18.91,18.91,0,0,0,.76,3.84,11.36,11.36,0,0,0,.92-4c.16-3.49,1.66-5.75,5.3-6.27.26,0,.49-.3.93-.59l-1.76-.49c-2.39-.68-4.17-1.76-4.17-4.71a31.23,31.23,0,0,0-.9-5.27,23.9,23.9,0,0,0-1.45,6.12,3.89,3.89,0,0,1-2.84,3.43c-.86.34-1.75.57-3,1,.42.27.61.49.83.53C243.23,432.81,244.92,434.93,244.92,438.63Zm-62,.56c1.23,0,2.14-.58,2.12-2.3a2.14,2.14,0,0,0-2.08-2.32c-1.45-.08-2.08.87-2.11,2.26A2.05,2.05,0,0,0,182.89,439.19ZM588,434.57c-1.51.08-2.07,1.18-2.1,2.59s.92,2.21,2.09,2c.91-.18,1.65-1.18,2.47-1.81C590.11,435.47,589.5,434.5,588,434.57Zm-403.89-9.35a2.49,2.49,0,0,0-2.39-.16,3.51,3.51,0,0,0-.63,2.76c.43,1.56,1.82,1.4,3.23,1A2.49,2.49,0,0,0,184.15,425.22ZM587.71,313.13c.65.49,1.9.17,2.89.21.49-3.73-.39-4.56-3.27-3.82A2.4,2.4,0,0,0,587.71,313.13ZM185,313a2.45,2.45,0,0,0,.08-3.61c-1.43-.35-2.82-.43-3.2,1.13a3.46,3.46,0,0,0,.74,2.73C183,313.62,184.52,313.46,185,313ZM589.74,425c-.88,0-2.12-.38-2.78.08-1.26.86-1.37,2.29-.4,3.7C589.57,429.39,590.4,428.51,589.74,425ZM184.89,446.52a2.79,2.79,0,0,0-2-1.57,2.76,2.76,0,0,0-1.94,1.68c-.45,1.46.53,2.29,2,2.61C184.49,448.86,185.38,447.93,184.89,446.52ZM588,445a2.75,2.75,0,0,0-2,1.65c-.46,1.44.49,2.3,2,2.65,1.5-.38,2.45-1.25,1.95-2.69A2.78,2.78,0,0,0,588,445ZM332.26,702.65a1.88,1.88,0,0,0-2.16,2c0,1.23.5,2.18,2.64,2.25.32-.38,1.27-1,1.42-1.8A2,2,0,0,0,332.26,702.65ZM333,45.56a2,2,0,0,0,2-2.42c-.13-.79-1-1.45-1.35-1.84-2.14,0-2.73.92-2.72,2.17A1.88,1.88,0,0,0,333,45.56Zm108.66-2.22c-.06-1.25-.73-2.27-2.13-2a8.21,8.21,0,0,0-2.33,1.4c0,.32,0,.65,0,1,.85.61,1.63,1.59,2.56,1.75C441,45.73,441.71,44.6,441.65,43.34ZM439.1,702.66c-1.48-.17-2.12.76-2.74,2.55.72.55,1.35,1.37,2.16,1.61,1.32.4,2.17-.45,2.32-1.74A1.94,1.94,0,0,0,439.1,702.66ZM222.67,45.79l1,0c.57-.81,1.59-1.63,1.56-2.42s-1.11-1.76-1.9-1.95a1.69,1.69,0,0,0-2.07,2C221.31,44.28,222.16,45,222.67,45.79ZM183,604c-.86.09-1.64,1-2.45,1.52,0,.32,0,.65,0,1,.8.55,1.63,1.55,2.41,1.51a2.9,2.9,0,0,0,1.95-1.88A1.68,1.68,0,0,0,183,604Zm405,4c.77,0,1.61-.94,2.42-1.48v-1c-.81-.55-1.57-1.45-2.43-1.55a1.69,1.69,0,0,0-1.93,2.1A2.9,2.9,0,0,0,588,608ZM255,43.49a2.85,2.85,0,0,0-1.86-2c-.8-.08-1.69.88-2.53,1.39l0,.92c.75.55,1.44,1.41,2.27,1.6A1.7,1.7,0,0,0,255,43.49Zm9.94,0A1.67,1.67,0,0,0,263,41.43c-.88.15-1.65,1-2.47,1.53v.93c.81.53,1.65,1.51,2.44,1.46A2.83,2.83,0,0,0,265,43.5Zm7.48,2.31h1c.53-.82,1.51-1.66,1.47-2.45a2.89,2.89,0,0,0-1.92-1.9,1.67,1.67,0,0,0-2.06,1.95C271,44.26,271.91,45,272.46,45.81Zm9.89,0h.94c.55-.82,1.56-1.66,1.52-2.45a2.9,2.9,0,0,0-1.94-1.91,1.69,1.69,0,0,0-2,2C281,44.31,281.82,45,282.35,45.8ZM588,617.89c.78.05,1.62-.93,2.44-1.46v-1c-.81-.55-1.57-1.45-2.43-1.56a1.68,1.68,0,0,0-1.94,2.08A2.91,2.91,0,0,0,588,617.89ZM302.35,45.82l.89,0c.53-.78,1.4-1.52,1.5-2.35a1.79,1.79,0,0,0-2.09-2.06c-1.35.07-2.2.94-1.94,2.21C300.88,44.41,301.78,45.08,302.35,45.82ZM588.7,164.12c.86-.06,1.66-.93,2.5-1.43l0-1c-.78-.58-1.57-1.6-2.35-1.59a2.91,2.91,0,0,0-2,1.81A1.69,1.69,0,0,0,588.7,164.12Zm-403-1.92c-.11-.88-1-1.67-1.48-2.49l-.92,0c-.55.8-1.54,1.62-1.52,2.41a2.86,2.86,0,0,0,1.81,2A1.69,1.69,0,0,0,185.7,162.2ZM450.43,45.8c.54-.76,1.4-1.48,1.53-2.31a1.69,1.69,0,0,0-2-2,2.92,2.92,0,0,0-1.95,1.9c0,.79.95,1.64,1.5,2.46Zm8.94,0,.89,0c.57-.74,1.47-1.41,1.64-2.24.25-1.26-.6-2.13-1.95-2.2a1.79,1.79,0,0,0-2.08,2.06C458,44.27,458.84,45,459.37,45.79ZM183,627.83a2.91,2.91,0,0,0,1.89-2,1.7,1.7,0,0,0-2-2c-.86.13-1.6,1-2.4,1.62l0,1C181.37,626.93,182.23,627.9,183,627.83Zm297.25-582c.53-.77,1.39-1.49,1.52-2.32a1.7,1.7,0,0,0-2-2,2.9,2.9,0,0,0-1.94,1.91c0,.79,1,1.63,1.52,2.45Zm9.87,0c.55-.8,1.45-1.55,1.58-2.41a1.68,1.68,0,0,0-2-2,2.9,2.9,0,0,0-1.93,1.89c-.05.78.92,1.63,1.45,2.46Zm10.05,0c.52-.83,1.38-1.61,1.46-2.48a1.67,1.67,0,0,0-2.13-1.87,2.88,2.88,0,0,0-1.84,2c0,.79,1,1.6,1.55,2.39Zm9.85,0c.54-.76,1.42-1.46,1.56-2.29a1.69,1.69,0,0,0-2-2.07c-.79.16-1.93,1.18-2,1.88s.94,1.65,1.47,2.47Zm77.87,578a1.69,1.69,0,0,0-1.84,2.18,2.91,2.91,0,0,0,2,1.81c.78,0,1.57-1,2.36-1.58l0-1C589.57,624.77,588.77,623.9,587.9,623.84Zm.85-479.59c.86-.09,1.64-1,2.46-1.51v-1c-.8-.54-1.62-1.54-2.39-1.51a2.89,2.89,0,0,0-2,1.86A1.68,1.68,0,0,0,588.75,144.25Zm-403.06-2a2.92,2.92,0,0,0-1.85-2c-.77-.09-1.66.86-2.49,1.36,0,.32,0,.64,0,1,.78.59,1.5,1.52,2.36,1.67A1.69,1.69,0,0,0,185.69,142.24Zm401.17-10.1a1.69,1.69,0,0,0,1.85,2.17c.87-.07,1.66-.94,2.49-1.46l0-1c-.79-.56-1.59-1.57-2.37-1.56A2.92,2.92,0,0,0,586.86,132.14ZM183,637.77a2.92,2.92,0,0,0,1.93-1.91,1.69,1.69,0,0,0-2-2.09c-.86.11-1.62,1-2.42,1.57v1C181.35,636.83,182.2,637.82,183,637.77Zm403.09-2a2.94,2.94,0,0,0,1.86,2c.78.07,1.65-.88,2.48-1.39,0-.32,0-.64,0-1-.79-.58-1.52-1.51-2.38-1.65A1.69,1.69,0,0,0,586.06,635.8ZM182.7,647.73a1.77,1.77,0,0,0,2.26-1.8,1.84,1.84,0,0,0-1.9-2.23c-.84,0-1.64.83-2.45,1.28l-.11.89C181.22,646.52,181.86,647.51,182.7,647.73Zm2.2,8a1.69,1.69,0,0,0-2-2.08c-.86.11-1.62,1-2.42,1.57v1c.82.53,1.67,1.51,2.44,1.46A2.9,2.9,0,0,0,184.9,655.73Zm403,7.86a1.69,1.69,0,0,0-1.86,2.16,2.9,2.9,0,0,0,2,1.82c.78,0,1.58-1,2.38-1.55l0-1C589.58,664.53,588.79,663.66,587.92,663.59Zm.93-374.27a2.9,2.9,0,0,0-2,1.83,1.69,1.69,0,0,0,1.86,2.16c.86-.08,1.66-.95,2.48-1.47l0-1C590.44,290.31,589.63,289.3,588.85,289.32Zm-2-177a1.69,1.69,0,0,0,1.9,2.12c.86-.1,1.64-1,2.45-1.52v-1c-.8-.55-1.63-1.54-2.41-1.51A2.9,2.9,0,0,0,586.86,112.32Zm-403.09-1.88c-.78,0-1.62.93-2.44,1.46v1c.81.55,1.56,1.46,2.43,1.57a1.69,1.69,0,0,0,1.94-2.09A2.91,2.91,0,0,0,183.77,110.44Zm1.92-8a2.89,2.89,0,0,0-1.92-1.91c-.77-.06-1.62.92-2.44,1.45,0,.32,0,.64,0,1,.8.56,1.56,1.46,2.42,1.58A1.69,1.69,0,0,0,185.69,102.42Zm401.17,198.7a1.69,1.69,0,0,0,1.9,2.13c.86-.1,1.64-1,2.45-1.53,0-.32,0-.64,0-1-.8-.55-1.63-1.54-2.4-1.5A2.88,2.88,0,0,0,586.86,301.12Zm-401.17,0a2.89,2.89,0,0,0-1.92-1.9c-.78-.06-1.62.92-2.44,1.45v1c.81.56,1.56,1.46,2.43,1.58A1.69,1.69,0,0,0,185.69,301.16ZM588.78,94.56c.86-.1,1.63-1,2.44-1.54v-1c-.81-.54-1.65-1.53-2.42-1.48a2.88,2.88,0,0,0-1.94,1.89A1.68,1.68,0,0,0,588.78,94.56Zm-405,0a1.69,1.69,0,0,0,1.9-2.12,2.9,2.9,0,0,0-2-1.87c-.78,0-1.6,1-2.41,1.51,0,.32,0,.65,0,1C182.15,93.58,182.93,94.47,183.79,94.56ZM588.71,80.64a2.86,2.86,0,0,0-1.85,2,1.68,1.68,0,0,0,2,2c.86-.15,1.58-1.08,2.36-1.67l0-1C590.36,81.5,589.48,80.56,588.71,80.64Zm-404.94,4a1.69,1.69,0,0,0,1.92-2.11,2.92,2.92,0,0,0-1.95-1.88c-.77,0-1.61,1-2.41,1.49v1C182.14,83.63,182.91,84.52,183.77,84.62Zm355-38.84.89,0c.59-.73,1.5-1.38,1.69-2.2.29-1.26-.54-2.15-1.89-2.25a1.79,1.79,0,0,0-2.13,2C537.45,44.23,538.3,45,538.81,45.78ZM220.43,704.71a2.89,2.89,0,0,0,1.86,2c.79.08,1.68-.88,2.52-1.38,0-.31,0-.61,0-.91-.76-.56-1.45-1.42-2.29-1.61A1.66,1.66,0,0,0,220.43,704.71Zm12.45-2.3-.9,0c-.56.74-1.46,1.42-1.63,2.24-.25,1.27.61,2.13,2,2.2a1.8,1.8,0,0,0,2.08-2.07C234.28,703.93,233.41,703.19,232.88,702.41Zm29.54.42a1.65,1.65,0,0,0-2.24,1.72c0,.88.86,1.72,1.33,2.57l.95.09c.6-.77,1.66-1.52,1.68-2.3A2.91,2.91,0,0,0,262.42,702.83Zm9.1-.4c-.5.83-1.35,1.63-1.41,2.5a1.68,1.68,0,0,0,2.17,1.83,2.91,2.91,0,0,0,1.81-2c0-.78-1-1.57-1.61-2.35Zm20,0c-.53.81-1.41,1.58-1.52,2.44a1.68,1.68,0,0,0,2.09,1.92,2.87,2.87,0,0,0,1.88-1.93c0-.78-.95-1.61-1.49-2.42Zm10.92,0-.9,0c-.56.75-1.45,1.44-1.61,2.26-.24,1.27.62,2.13,2,2.18a1.8,1.8,0,0,0,2.06-2.09C303.84,703.91,303,703.19,302.42,702.41Zm286.38-429c.86-.11,1.62-1,2.42-1.57,0-.32,0-.64,0-1-.81-.53-1.66-1.51-2.44-1.46a2.87,2.87,0,0,0-1.91,1.91A1.68,1.68,0,0,0,588.8,273.43Zm-405.07-4c-.77,0-1.6,1-2.41,1.5v1c.82.54,1.59,1.43,2.45,1.53a1.7,1.7,0,0,0,1.91-2.13A2.92,2.92,0,0,0,183.73,269.44Zm127.63,433c-.53.77-1.39,1.49-1.51,2.32a1.69,1.69,0,0,0,2,2,2.91,2.91,0,0,0,1.95-1.92c0-.78-1-1.63-1.52-2.44Zm138.47,0-.93-.07c-.62.77-1.69,1.53-1.71,2.32a2.87,2.87,0,0,0,1.8,2,1.69,1.69,0,0,0,2.18-1.87C451.11,704,450.3,703.26,449.83,702.45Zm-264.14-441a2.92,2.92,0,0,0-1.86-2c-.77-.07-1.65.88-2.49,1.38l0,1c.79.58,1.51,1.51,2.37,1.65A1.68,1.68,0,0,0,185.69,261.48ZM459.48,702.39l-1,0c-.51.83-1.47,1.7-1.4,2.48a2.91,2.91,0,0,0,2,1.86,1.67,1.67,0,0,0,2-2C461,703.91,460.05,703.18,459.48,702.39Zm29.45.41a1.68,1.68,0,0,0-2,2,2.85,2.85,0,0,0,2,1.88c.79,0,1.63-1,2.45-1.52l0-.92C490.51,703.76,489.78,702.94,488.93,702.8Zm10.28-.41-.89,0c-.53.78-1.4,1.52-1.5,2.35a1.79,1.79,0,0,0,2.09,2.06c1.35-.07,2.2-.94,1.94-2.21C500.68,703.8,499.78,703.13,499.21,702.39Zm10.06,0h-1c-.54.8-1.53,1.63-1.49,2.42a2.87,2.87,0,0,0,1.88,1.93,1.67,1.67,0,0,0,2.09-1.92C510.68,704,509.8,703.21,509.27,702.4Zm79.52-448.84c.86-.11,1.62-1,2.43-1.56v-1c-.81-.54-1.65-1.52-2.43-1.47a2.88,2.88,0,0,0-1.93,1.9A1.68,1.68,0,0,0,588.79,253.56ZM529.06,702.39l-.95,0c-.52.82-1.48,1.69-1.42,2.47s1.16,1.7,1.95,1.87a1.67,1.67,0,0,0,2-2C530.53,703.92,529.62,703.18,529.06,702.39ZM588,454.9a1.69,1.69,0,0,0-1.91,2.12,2.9,2.9,0,0,0,2,1.87c.78,0,1.61-.95,2.42-1.5,0-.32,0-.64,0-1C589.61,455.89,588.83,455,588,454.9ZM183.71,253.56a1.69,1.69,0,0,0,2-2.05,2.89,2.89,0,0,0-1.89-1.94c-.77-.07-1.64.9-2.46,1.41l0,1C182.11,252.51,182.85,253.43,183.71,253.56Zm405-9.94c.87-.1,1.64-1,2.45-1.52v-1c-.8-.54-1.63-1.54-2.41-1.5a2.91,2.91,0,0,0-1.95,1.87A1.68,1.68,0,0,0,588.76,243.62Zm-405,0a1.69,1.69,0,0,0,1.95-2.08,2.93,2.93,0,0,0-1.92-1.91c-.77,0-1.62.92-2.44,1.45v1C182.12,242.6,182.88,243.51,183.74,243.62ZM538.59,702.81a2.94,2.94,0,0,0-2,1.86c-.08.78.88,1.65,1.39,2.49l1,0c.58-.8,1.49-1.53,1.64-2.39A1.65,1.65,0,0,0,538.59,702.81ZM183,464.84c-.86.07-1.65,1-2.47,1.48l0,1c.8.56,1.61,1.58,2.38,1.55a2.91,2.91,0,0,0,2-1.84A1.69,1.69,0,0,0,183,464.84Zm403,2.06a2.89,2.89,0,0,0,1.9,1.93c.78.06,1.63-.91,2.46-1.43,0-.32,0-.64,0-1-.8-.56-1.55-1.48-2.41-1.6A1.68,1.68,0,0,0,586.06,466.9Zm2.66-243.15c.87-.08,1.66-1,2.48-1.48l0-1c-.79-.56-1.6-1.57-2.38-1.55a2.9,2.9,0,0,0-2,1.83A1.69,1.69,0,0,0,588.72,223.75ZM184.91,476.88c-.14-.89-1-1.67-1.53-2.49h-.92c-.54.82-1.51,1.65-1.47,2.45a2.86,2.86,0,0,0,1.83,2A1.66,1.66,0,0,0,184.91,476.88Zm401.15-.06a2.91,2.91,0,0,0,1.89,1.95c.77.06,1.64-.9,2.46-1.42l0-1c-.79-.57-1.53-1.49-2.39-1.62A1.69,1.69,0,0,0,586.06,476.82ZM185.69,221.74a2.88,2.88,0,0,0-1.85-2c-.77-.09-1.66.86-2.49,1.36,0,.32,0,.64,0,1,.78.59,1.5,1.52,2.36,1.67A1.69,1.69,0,0,0,185.69,221.74Zm-2.87,267a1.68,1.68,0,0,0,2.09-1.93c-.14-.89-1-1.67-1.53-2.49h-.92c-.54.81-1.51,1.65-1.47,2.45A2.87,2.87,0,0,0,182.82,488.75Zm-2.29,8.39c.8.54,1.63,1.54,2.41,1.51a2.9,2.9,0,0,0,1.95-1.88,1.68,1.68,0,0,0-1.9-2.12c-.86.1-1.64,1-2.45,1.52C180.53,496.49,180.53,496.82,180.53,497.14ZM588.7,213.81c.86-.07,1.67-.93,2.5-1.44l0-1c-.78-.57-1.58-1.59-2.35-1.58a2.89,2.89,0,0,0-2,1.81A1.69,1.69,0,0,0,588.7,213.81Zm-.65,294.77c.77,0,1.59-1,2.38-1.54,0-.32,0-.64,0-1-.82-.52-1.61-1.4-2.47-1.48a1.69,1.69,0,0,0-1.88,2.15A2.93,2.93,0,0,0,588.05,508.58ZM183,594c-.86.08-1.65,1-2.47,1.48l0,1c.8.56,1.61,1.57,2.39,1.55a2.88,2.88,0,0,0,2-1.84A1.69,1.69,0,0,0,183,594Zm-.08-75.46a1.67,1.67,0,0,0,2-2c-.19-.88-1.09-1.6-1.66-2.4l-.93,0c-.48.85-1.4,1.74-1.32,2.53A2.85,2.85,0,0,0,182.94,518.56Zm405.8-324.63c.86-.08,1.65-1,2.47-1.49,0-.32,0-.64,0-1-.8-.55-1.62-1.56-2.4-1.53a2.9,2.9,0,0,0-2,1.85A1.68,1.68,0,0,0,588.74,193.93Zm-405.52-4.42c-.52.83-1.48,1.68-1.43,2.47a2.85,2.85,0,0,0,1.86,2,1.69,1.69,0,0,0,2-2c-.14-.88-1-1.64-1.56-2.45Zm-2.67,337.55c.83.51,1.7,1.47,2.47,1.4a3,3,0,0,0,1.88-2,1.69,1.69,0,0,0-2-2c-.86.13-1.6,1.06-2.39,1.63Zm405.51-.55a2.92,2.92,0,0,0,1.88,2c.78.06,1.64-.9,2.47-1.42l0-1c-.79-.57-1.53-1.49-2.39-1.62A1.69,1.69,0,0,0,586.06,526.51ZM588,538.39c.78.05,1.61-.94,2.42-1.48v-1c-.81-.54-1.58-1.44-2.44-1.54a1.68,1.68,0,0,0-1.92,2.1A2.9,2.9,0,0,0,588,538.39ZM185.69,182A2.89,2.89,0,0,0,183.8,180c-.77-.07-1.64.9-2.46,1.41l0,1c.8.57,1.54,1.49,2.4,1.62A1.68,1.68,0,0,0,185.69,182Zm-5.14,365c.83.51,1.71,1.47,2.48,1.39a2.88,2.88,0,0,0,1.86-2,1.69,1.69,0,0,0-2-2c-.85.14-1.58,1.07-2.37,1.65Zm405.51-.47a2.92,2.92,0,0,0,2,1.86c.78,0,1.6-1,2.4-1.52,0-.32,0-.64,0-1-.82-.54-1.6-1.42-2.47-1.51A1.69,1.69,0,0,0,586.06,546.47Zm.8-374.58a1.69,1.69,0,0,0,1.85,2.17c.87-.07,1.66-.94,2.49-1.45l0-1c-.79-.57-1.59-1.59-2.37-1.57A2.87,2.87,0,0,0,586.86,171.89Zm-402,384.49c-.14-.89-1-1.67-1.53-2.49h-.92c-.54.82-1.51,1.65-1.47,2.45a2.86,2.86,0,0,0,1.83,2A1.66,1.66,0,0,0,184.91,556.38Zm401.15-.07a2.94,2.94,0,0,0,1.87,2c.78.07,1.65-.89,2.48-1.41l0-1c-.79-.57-1.53-1.5-2.39-1.63A1.69,1.69,0,0,0,586.06,556.31ZM180.54,566.75c.81.53,1.66,1.51,2.44,1.46a3,3,0,0,0,1.92-1.91,1.69,1.69,0,0,0-2-2.09c-.86.11-1.62,1-2.42,1.57Zm.8-394.15c.83.51,1.63,1.39,2.49,1.46a1.7,1.7,0,0,0,1.86-2.17,2.9,2.9,0,0,0-2-1.82c-.78,0-1.58,1-2.38,1.56Zm1.16,401.14c-.55.81-1.54,1.64-1.51,2.43a2.85,2.85,0,0,0,1.8,2,1.67,1.67,0,0,0,2.12-1.89c-.12-.89-1-1.69-1.49-2.52Zm405.55,10.34a1.69,1.69,0,0,0-2,2,2.89,2.89,0,0,0,1.88,2c.77.08,1.64-.88,2.47-1.39l0-1C589.65,585.14,588.91,584.22,588.05,584.08ZM233.67,45.79c.53-.77,1.41-1.51,1.51-2.34a1.68,1.68,0,0,0-2.06-2,3,3,0,0,0-1.92,1.95c0,.78,1,1.61,1.54,2.42Zm9,0h1c.53-.81,1.52-1.65,1.47-2.44s-1.11-1.72-1.9-1.91a1.67,1.67,0,0,0-2.07,1.93C241.2,44.24,242.09,45,242.63,45.81Zm49.66,0h.94c.55-.82,1.56-1.66,1.52-2.45s-1.16-1.74-1.95-1.91a1.69,1.69,0,0,0-2,2C290.9,44.32,291.76,45,292.29,45.8Zm20.9,0c.53-.78,1.39-1.53,1.49-2.36a1.68,1.68,0,0,0-2.08-2,2.94,2.94,0,0,0-1.9,2c0,.78,1,1.6,1.56,2.4Zm9,0,.89,0c.53-.78,1.4-1.51,1.5-2.35a1.79,1.79,0,0,0-2.07-2.06c-1.35.07-2.21.93-2,2.2C320.75,44.4,321.65,45.08,322.22,45.82Zm148,0c.55-.76,1.43-1.46,1.57-2.29a1.69,1.69,0,0,0-2-2.07c-.79.16-1.93,1.18-2,1.88s.94,1.64,1.47,2.47Zm48.89,0,1,0c.5-.83,1.44-1.72,1.35-2.49a2.93,2.93,0,0,0-2-1.84,1.66,1.66,0,0,0-2,2C517.63,44.32,518.58,45,519.16,45.82ZM590.4,575.58c-.83-.5-1.64-1.37-2.5-1.43a1.69,1.69,0,0,0-1.83,2.19,2.88,2.88,0,0,0,2,1.8c.78,0,1.57-1,2.36-1.59C590.43,576.23,590.41,575.91,590.4,575.58ZM185.69,211.72a2.91,2.91,0,0,0-1.92-1.9c-.78,0-1.63.93-2.44,1.46,0,.32,0,.64,0,1,.81.55,1.57,1.46,2.43,1.57A1.69,1.69,0,0,0,185.69,211.72ZM479.45,702.4h-.95c-.54.81-1.54,1.64-1.5,2.43s1.1,1.73,1.88,1.93a1.68,1.68,0,0,0,2.1-1.92C480.87,704,480,703.21,479.45,702.4ZM588,484.71a1.69,1.69,0,0,0-2,2.05,2.91,2.91,0,0,0,1.89,1.95c.77.07,1.64-.9,2.46-1.42l0-1C589.64,485.76,588.9,484.84,588,484.71Zm-1.18-362.59a1.71,1.71,0,0,0,1.77,2.25c.86,0,1.7-.87,2.55-1.34l.06-1c-.76-.6-1.51-1.66-2.29-1.68A2.92,2.92,0,0,0,586.86,122.12ZM251.63,702.43c-.49.83-1.34,1.64-1.4,2.51a1.69,1.69,0,0,0,2.19,1.82,2.9,2.9,0,0,0,1.79-2c0-.79-1-1.57-1.62-2.35Zm-9.94,0c-.49.83-1.34,1.65-1.4,2.51a1.69,1.69,0,0,0,2.2,1.81,2.9,2.9,0,0,0,1.79-2c0-.79-1.05-1.56-1.64-2.34Zm-56-570.15a2.92,2.92,0,0,0-1.87-2c-.77-.07-1.65.88-2.48,1.39l0,1c.79.58,1.52,1.51,2.38,1.64A1.68,1.68,0,0,0,185.69,132.28ZM183,613.9c-.86.07-1.66.94-2.49,1.46l0,1c.79.56,1.59,1.58,2.37,1.56a2.9,2.9,0,0,0,2-1.82A1.69,1.69,0,0,0,183,613.9ZM591.2,231.07c-.83-.5-1.71-1.46-2.49-1.38a3,3,0,0,0-1.86,2,1.7,1.7,0,0,0,2,2c.85-.14,1.58-1.08,2.37-1.66C591.22,231.71,591.21,231.39,591.2,231.07Zm-72,471.34h-1c-.55.8-1.54,1.63-1.51,2.41a2.89,2.89,0,0,0,1.87,1.94,1.68,1.68,0,0,0,2.11-1.91C520.63,704,519.75,703.22,519.22,702.41ZM529,45.8l.89,0c.56-.75,1.45-1.45,1.6-2.27.24-1.27-.63-2.13-2-2.17a1.8,1.8,0,0,0-2.05,2.1C527.54,44.31,528.43,45,529,45.8Zm59.08,522.41c.78,0,1.59-1,2.38-1.55,0-.32,0-.65,0-1-.82-.52-1.61-1.4-2.47-1.48a1.7,1.7,0,0,0-1.88,2.16A2.91,2.91,0,0,0,588.05,568.21ZM548.69,45.76l.93.07c.6-.77,1.66-1.55,1.66-2.33a2.94,2.94,0,0,0-1.82-2,1.69,1.69,0,0,0-2.16,1.9C547.37,44.18,548.2,45,548.69,45.76Zm-365,183.93c-.78,0-1.6,1-2.41,1.51v1c.82.53,1.6,1.43,2.46,1.52a1.69,1.69,0,0,0,1.9-2.13A2.9,2.9,0,0,0,183.73,229.69Zm1.16,306.87A1.69,1.69,0,0,0,183,534.4c-.87.08-1.66,1-2.48,1.48l0,1c.8.56,1.61,1.57,2.38,1.54A2.9,2.9,0,0,0,184.89,536.56Zm404-382.37c.86-.13,1.6-1.05,2.39-1.62l0-1c-.83-.51-1.69-1.47-2.47-1.41a3,3,0,0,0-1.89,1.95A1.7,1.7,0,0,0,588.84,154.19ZM182.94,588.08a2.91,2.91,0,0,0,1.95-1.87,1.68,1.68,0,0,0-1.9-2.12c-.86.09-1.64,1-2.45,1.52v1C181.33,587.12,182.16,588.12,182.94,588.08ZM549.05,702.41l-.95,0c-.55.82-1.57,1.65-1.53,2.44s1.13,1.75,1.92,1.93a1.69,1.69,0,0,0,2-2C550.43,703.92,549.58,703.19,549.05,702.41ZM588,647.71c.78,0,1.62-.94,2.43-1.48v-1c-.81-.55-1.57-1.45-2.43-1.56a1.69,1.69,0,0,0-1.94,2.1A2.92,2.92,0,0,0,588,647.71ZM185.69,291.23a2.91,2.91,0,0,0-1.92-1.91c-.77-.05-1.62.92-2.44,1.45,0,.32,0,.64,0,1,.81.56,1.56,1.47,2.42,1.58A1.69,1.69,0,0,0,185.69,291.23Zm405.52-10.44c-.83-.51-1.69-1.48-2.47-1.41a2.91,2.91,0,0,0-1.89,1.95,1.69,1.69,0,0,0,2,2c.86-.13,1.6-1.05,2.39-1.62C591.22,281.43,591.21,281.11,591.21,280.79Zm-409.87,1.1c.82.52,1.61,1.4,2.47,1.48a1.69,1.69,0,0,0,1.88-2.15,2.9,2.9,0,0,0-2-1.84c-.78,0-1.59,1-2.39,1.54C181.33,281.24,181.33,281.56,181.34,281.89ZM588.7,263.5c.86-.07,1.67-.93,2.5-1.44l0-1c-.78-.57-1.58-1.6-2.35-1.58a2.89,2.89,0,0,0-2,1.8A1.7,1.7,0,0,0,588.7,263.5ZM588,594a1.69,1.69,0,0,0-2,2.08A2.91,2.91,0,0,0,588,598c.77.06,1.62-.92,2.44-1.44v-1C589.63,595.05,588.87,594.13,588,594Zm.72-390.15c.86-.08,1.65-1,2.48-1.47l0-1c-.8-.56-1.6-1.58-2.38-1.55a2.87,2.87,0,0,0-2,1.84A1.68,1.68,0,0,0,588.73,203.87ZM183.85,150.2c-.78-.09-1.66.86-2.5,1.35l0,1c.78.58,1.5,1.52,2.36,1.67a1.69,1.69,0,0,0,2-2A2.89,2.89,0,0,0,183.85,150.2Zm404.88-45.7c.87-.08,1.65-1,2.48-1.48,0-.33,0-.65,0-1-.8-.56-1.61-1.57-2.39-1.54a2.88,2.88,0,0,0-2,1.84A1.69,1.69,0,0,0,588.73,104.5ZM182.91,454.9c-.86.13-1.6,1.06-2.39,1.63l0,1c.82.51,1.69,1.47,2.47,1.4a2.94,2.94,0,0,0,1.88-1.95A1.69,1.69,0,0,0,182.91,454.9ZM588.75,184c.86-.09,1.64-1,2.46-1.51,0-.32,0-.64,0-1-.81-.55-1.63-1.55-2.4-1.52a2.9,2.9,0,0,0-2,1.85A1.69,1.69,0,0,0,588.75,184ZM281.64,702.39c-.56.8-1.47,1.54-1.6,2.39a1.68,1.68,0,0,0,2,2,2.88,2.88,0,0,0,1.93-1.88c.06-.78-.9-1.64-1.42-2.46ZM182.9,508.58a2.9,2.9,0,0,0,2-1.83,1.69,1.69,0,0,0-1.86-2.16c-.86.07-1.66,1-2.48,1.47l0,1C181.31,507.59,182.12,508.6,182.9,508.58Zm2.79-306.76a2.9,2.9,0,0,0-1.88-1.94c-.78-.07-1.65.9-2.47,1.41,0,.32,0,.64,0,1,.79.57,1.53,1.5,2.39,1.62A1.68,1.68,0,0,0,185.69,201.82ZM588,498.64c.78,0,1.6-1,2.41-1.51v-1c-.82-.53-1.6-1.42-2.46-1.51a1.69,1.69,0,0,0-1.9,2.13A2.9,2.9,0,0,0,588,498.64ZM321.64,702.81c-1.22-.18-1.95.8-1.9,2s.9,2.22,2.19,1.95c.84-.17,1.53-1,2.29-1.61l0-.9A7.92,7.92,0,0,0,321.64,702.81ZM183.81,124.37a1.69,1.69,0,0,0,1.88-2.15,2.9,2.9,0,0,0-2-1.84c-.78,0-1.59,1-2.39,1.54l0,1C182.16,123.41,183,124.29,183.81,124.37ZM586.06,516.53a2.92,2.92,0,0,0,1.85,2c.77.08,1.65-.86,2.49-1.36l0-1c-.78-.58-1.5-1.52-2.36-1.67A1.69,1.69,0,0,0,586.06,516.53ZM468.91,702.86A2.86,2.86,0,0,0,467,704.8a1.65,1.65,0,0,0,2,2c.88-.18,1.61-1.06,2.4-1.63,0-.31,0-.62,0-.92C470.57,703.72,469.69,702.79,468.91,702.86Zm117.15-47.12a2.9,2.9,0,0,0,1.93,1.9c.78,0,1.62-.94,2.43-1.47v-1c-.8-.54-1.56-1.44-2.43-1.55A1.68,1.68,0,0,0,586.06,655.74Zm-401.15,9.9c-.16-.89-1-1.64-1.59-2.45h-.92c-.51.83-1.46,1.69-1.41,2.49a2.82,2.82,0,0,0,1.88,1.92A1.66,1.66,0,0,0,184.91,665.64ZM319.64,261.41c-4.53-1.81-7.74-.07-8.64,4.68-1.28,6.77,2.7,16.12,8.46,19.86,2.62,1.71,5.32,2.26,8.23.68s3.95-4.12,3.94-7.26C331.61,272.52,325.86,263.89,319.64,261.41Zm8.25,20.92c-1.58-3.25.4-7.35-3-11.09l-1.43,2.54c-2.13-2.32-2.65-6-6.27-6.78-1.24,1.73-.45,3.22.12,4.65s1.3,2.72,2,4.1l-2.86.83c1.12,4.28,5.77,4.67,7.61,7.8-4.83-1-7.12-4.73-9-8.72s-2.85-8.24-.21-12.54c5-.16,7.81,2.88,10.2,6.34C327.71,273.32,329.48,277.5,327.89,282.33Zm25.84,38.53c.61.09,1.35-.78,2.62-1.62-1.28-.88-2-1.79-2.72-1.77a2.36,2.36,0,0,0-1.59,1.74C352.05,319.8,353.06,320.77,353.73,320.86Zm-3.14,4.38c.43.13,1.19-.8,2.35-1.66-1.24-.81-2-1.58-2.72-1.64-.48,0-1.59,1.26-1.47,1.51A3.49,3.49,0,0,0,350.59,325.24Zm-4.84,2.57c.5-.49,1.44-1,1.39-1.47-.08-.73-.8-1.38-1.56-2.53-.77,1-1.66,1.71-1.53,2A7.62,7.62,0,0,0,345.75,327.81Zm-4.87.05c.55.05,1.19-.81,2.25-1.61-1.12-.73-1.81-1.53-2.36-1.44s-1.06,1-1.59,1.58C339.75,326.91,340.27,327.8,340.88,327.86ZM444.2,287.38c3.34.77,6-.78,8.24-2.95,4.37-4.18,6.42-9.45,6.85-15.69a28.54,28.54,0,0,0-.38-2.89c-1-4.59-4-6.2-8.43-4.5-6.57,2.55-12.54,11.86-12.11,18.87A7.44,7.44,0,0,0,444.2,287.38Zm.08-17c2.47-3.85,5.4-7.21,10.72-7.39,2.59,3.71,2,7.54.53,11.21-1.79,4.58-4.24,8.75-9.47,10.12,1.87-3.07,6.3-3.59,7.52-7.78l-2.82-.73c.81-2.84,3.48-5.23,2.18-8.93-3.63.93-4.33,4.34-6.56,7-.37-.85-.72-1.63-1.07-2.41-3.73,3.31-1.59,7.44-3,10.73C440.65,279.82,441.37,275,444.28,270.41Zm-27.83,47.06c-.74.13-1.32,1.11-2,1.73.58.59,1.11,1.58,1.75,1.66s1.37-.78,2.54-1.53C417.7,318.42,417,317.37,416.45,317.47Zm3.42,4.48a3.4,3.4,0,0,0-1.91,1.69c-.13.26.92,1.6,1.41,1.58.75,0,1.49-.77,2.77-1.53C421,322.78,420.3,321.83,419.87,322Zm4.66,2.63c-.72.3-1.21,1.14-1.79,1.75.52.49,1.12,1.44,1.53,1.37.73-.13,1.34-.89,2.5-1.76C425.66,325.23,424.89,324.43,424.53,324.58Zm3.17,1.73a2.16,2.16,0,0,0,1.48,1.55c.56.06,1.23-.75,2.32-1.51-1.08-.77-1.73-1.6-2.3-1.55A2.15,2.15,0,0,0,427.7,326.31Zm18.91,136.16c2.49,1.79,5.36,3.2,8.34,1.66s3.16-4.66,3.27-8.28c-.55-6.52-3-12.7-9.28-16.71-5.2-3.34-11.28,0-11.57,6.16a13.44,13.44,0,0,0,.33,3.74A22.4,22.4,0,0,0,446.61,462.47Zm-5.52-19.88c1.57,3.79-.42,7.82,2.5,11.05l2.06-1.85c1.92,2.19,2.54,5.69,6.21,6.73,1.53-3.64-1.31-6-2.17-9l2.8-.57c-1-4.4-5.77-4.8-7.6-7.95,5.12,1.18,7.5,5.19,9.36,9.52,1.66,3.83,2.44,7.82-.24,11.84-5.18,0-8.15-3.28-10.54-7.09C441.17,451.6,439.39,447.66,441.09,442.59Zm-24.16-41a3.44,3.44,0,0,0,1.75,1.88c.43.15,1.24-.72,2.45-1.51-1.21-.9-1.88-1.73-2.64-1.83C418,400.08,416.82,401.32,416.93,401.6Zm-3.46,4.58c.64.62,1.22,1.59,1.94,1.72.53.1,1.26-.91,2.35-1.79-1.17-.77-1.9-1.64-2.53-1.57S414.05,405.6,413.47,406.18Zm9.79-8.57c-.51.49-1.48,1.05-1.42,1.47.1.73.82,1.38,1.63,2.57.75-1.08,1.58-1.81,1.45-2.19C424.66,398.74,423.84,398.21,423.26,397.61Zm3.41,1.57c.11.59,1,1,1.6,1.54.5-.58,1.38-1.14,1.41-1.74s-.84-1.17-1.69-2.24C427.31,397.91,426.57,398.62,426.67,399.18ZM319.8,438.69a13.49,13.49,0,0,0-3.23,2.28c-4.4,4.17-6.42,9.44-6.9,15.7a29.66,29.66,0,0,0,.48,3.24c1,4.2,3.83,5.68,7.94,4.28,6.93-2.36,13.25-12.3,12.44-19.57A7.35,7.35,0,0,0,319.8,438.69Zm5.59,15c-2.49,4.46-5.51,8.41-11.42,8.66-2.69-4-1.9-7.91-.34-11.68,1.82-4.42,4.25-8.49,9.91-10.09-2.22,3.57-7.17,3.87-8,8.39l2.66.5c-.75,2.88-3.42,5.3-2.22,9,3.71-.87,4.34-4.46,6.31-6.67l2.07,1.83c2.94-3.26,1-7.27,2.25-10.54C328.25,444.87,327.88,449.28,325.39,453.72ZM351,406.16a2.31,2.31,0,0,0,1.54,1.74c.7,0,1.45-.82,2.75-1.67-1.26-.88-2-1.77-2.59-1.7A2.41,2.41,0,0,0,351,406.16Zm-1.91-2.7c.76,0,1.51-.78,2.79-1.53-1.13-.92-1.86-1.9-2.28-1.78a3.47,3.47,0,0,0-1.93,1.73C347.58,402.13,348.64,403.47,349.13,403.46Zm-4.75-2.56a7.57,7.57,0,0,0,1.78-1.9c.14-.3-.73-1.08-1.48-2.08-.79,1.12-1.53,1.75-1.65,2.47C343,399.81,343.9,400.39,344.38,400.9Zm-4.62-.28c.55.08,1.24-.73,2.35-1.47-1.06-.79-1.7-1.63-2.26-1.57s-1.13.94-1.69,1.46C338.69,399.6,339.16,400.53,339.76,400.62Zm39.51-208.21a6.89,6.89,0,0,0-1,1.73c-1,3.26-1.9,6.54-2.84,9.81l.58.16a16.76,16.76,0,0,0,2.87,10.34,7.19,7.19,0,0,0,10.65,1.33,10.59,10.59,0,0,0,2.6-3.69,20.85,20.85,0,0,0-1.81-19.75C387.15,187.33,382.62,187.47,379.27,192.41ZM386.93,214c.11-3.69,4.08-6.3,2.94-10.68l-2.73.8c-.69-2.91.68-6.38-2.09-8.79-1.6,1-1.6,1-2.45,8.75l-2.57-.75c-1,2.24,0,3.89.85,5.59a29.82,29.82,0,0,1,2,5c-3.88-3.27-4.31-7.74-3.91-12.32.37-4.33,1.35-8.52,6-10.89,4.37,2.5,5.45,6.55,5.82,10.85C391.16,206.16,390.7,210.61,386.93,214Zm-11.12,44.45c.13.72,1.07,1.3,1.66,1.94.59-.58,1.63-1.13,1.67-1.76s-.81-1.44-1.64-2.74C376.62,257.11,375.71,257.85,375.81,258.41Zm6.63.72a2.38,2.38,0,0,0-1.53,1.76,2.31,2.31,0,0,0,1.65,1.61c.6,0,1.26-.92,2.37-1.83C383.76,259.9,383,259,382.44,259.13Zm5.75.05a3.06,3.06,0,0,0-1.71,1.64c-.13.36.83,1.59,1.19,1.55.72-.09,1.37-.78,2.5-1.52C389.21,260,388.51,259.07,388.19,259.18Zm4.05,1.13c.53-.56,1.41-1.08,1.48-1.7s-.77-1.21-1.56-2.31c-.75,1.13-1.55,1.82-1.46,2.36S391.69,259.77,392.24,260.31Zm-5.42,272.83c4.42-5.39,5.33-15.89,1.86-21.82-1.54-2.62-3.7-4.29-6.92-4.2a7,7,0,0,0-6.66,4.52,55.18,55.18,0,0,0-2.07,7.12c.2,6.14,1,10.61,4,14.35S383.77,536.88,386.82,533.14ZM380,510.31c-.37,4.16-4.13,6.78-3.12,11.11l2.74-.76c.13,1.57.22,3.11.39,4.64s.22,3.2,1.88,4c1.29-.88,1.29-.88,2.4-8.71l2.7.79c1-4.31-2.68-7-2.93-10.63,3.64,3.19,4.19,7.46,3.87,11.92s-1.55,8.68-5.9,11.28c-4.53-2.43-5.62-6.56-6-10.91C375.63,518.55,376,514.12,380,510.31Zm1.15-46.4c-.06-.67-1-1.27-1.51-1.9-.59.57-1.56,1.09-1.65,1.74s.72,1.38,1.5,2.68C380.32,465.22,381.18,464.52,381.13,463.91Zm-6.76.38c-.53.64-1.43,1.26-1.46,1.92s.82,1.32,1.65,2.5c.81-1.23,1.74-2,1.61-2.57C376,465.42,375,464.9,374.37,464.29Zm10.68,1.26c.49-.51,1.39-1,1.37-1.53,0-.72-.73-1.41-1.14-2.11h-.72c-.37.59-1.13,1.28-1,1.74C383.73,464.36,384.52,464.92,385.05,465.55Zm4.15,1.93c.62,0,1.26-.71,2.42-1.45-1.13-.81-1.8-1.66-2.35-1.59a2.35,2.35,0,0,0-1.47,1.63C387.72,466.47,388.68,467.46,389.2,467.48ZM315.6,356.32a72.43,72.43,0,0,0-8.32-2.29c-4.68.42-9.24,1.67-12.18,3.76-4.66,3.32-4.82,7.76-.05,10.86,6.5,4.24,13.53,4.62,20.63,1.59a7.19,7.19,0,0,0,4.67-7A7.1,7.1,0,0,0,315.6,356.32Zm-8.78,4.56c-2.83.94-6.39-.6-8.86,2.43,2.51,2.83,5.89,1.66,8.86,2.34l-.77,2.63c4.3,1.11,7-2.65,10.58-3-1.18,2.65-5.51,4.22-11.18,4.06S295.1,366.8,293.66,363c2.21-4,6.13-5.29,10.46-5.63,4.61-.36,9.16-.17,12.52,3.7-3.66,0-6.26-4.07-10.59-2.86C306.36,359.32,306.58,360.05,306.82,360.88Zm54.45,8c-.56.63-1.51,1.22-1.56,1.88s.9,1.28,1.81,2.44c.76-1.25,1.6-2,1.49-2.62S361.89,369.48,361.27,368.92Zm.58-3.3c.59.58,1.12,1.53,1.78,1.63s1.37-.73,2.66-1.52c-1.26-.83-2-1.66-2.6-1.61S362.46,365.09,361.85,365.62Zm1.8-3.92c.54,0,1.65-.95,1.6-1.37-.09-.69-.91-1.3-1.75-2.37-.74,1.06-1.59,1.76-1.49,2.27A2.29,2.29,0,0,0,363.65,361.7Zm-.67-5.78a2.28,2.28,0,0,0-1.59-1.46c-.4-.07-1.35.89-1.38,1.43s.7,1.24,1.44,2.41C362.24,357.14,363.06,356.46,363,355.92Zm110.67.59c-3.54-2.29-7.51-3.21-11.8-3.63a78.09,78.09,0,0,0-7.8,2c-3.29,1.19-5.43,3.55-5.43,7.28s2.12,6,5.26,7.23a20.82,20.82,0,0,0,19.93-1.8C478.78,364.36,478.65,359.74,473.65,356.51Zm-7.9,11.39c-5,.69-9.86.32-13.63-3.74,3.67.2,6.37,4,10.75,3l-.87-2.81a38.77,38.77,0,0,0,4.57-.25,12.89,12.89,0,0,0,4.32-1.62c-2.35-3.16-5.79-2-8.8-2.68.28-.92.51-1.65.82-2.69-4.38-1.15-7,2.82-11.09,3.08,3.7-4,8.21-4.31,12.76-3.94,4.33.36,8.51,1.36,10.81,5.88C473.39,366.24,469.63,367.37,465.75,367.9Zm-59.93-13.22c.64.61,1.21,1.6,1.93,1.72.56.08,1.29-.92,2.42-1.82-1.19-.75-1.93-1.59-2.57-1.51S406.41,354.1,405.82,354.68Zm-.4,6.65c.62.05,1.31-.83,2.52-1.69-1.3-.77-2.06-1.59-2.7-1.5s-1.15,1.08-1.72,1.67C404.15,360.35,404.75,361.27,405.42,361.33Zm.54,8.12a1.52,1.52,0,0,0,3,0c.07-.55-.74-1.21-1.49-2.3C406.73,368.23,405.91,368.88,406,369.45Zm1.33-4.54c-.7-.42-1.38-1.13-2.09-1.17-.5,0-1.05.85-1.58,1.33.62.55,1.17,1.36,1.88,1.57.46.13,1.17-.64,1.77-1C407.27,365.39,407.28,365.15,407.29,364.91ZM363.82,87.24q3.12,14.17,6.26,28.43a7.54,7.54,0,0,0-2.16.41,8.93,8.93,0,0,0-1.75,1.52c.57.54,1.06,1.3,1.74,1.57a7.1,7.1,0,0,0,2.54.24l33.17.21a10.59,10.59,0,0,0,3.15-.22c.77-.24,1.84-1,1.91-1.58s-.69-1.63-1.16-2.41c-.14-.23-.53-.32-.78-.46-.21-9.42-.41-18.73-.62-28.08.3-.11.69-.13.9-.33.56-.55,1.35-1.14,1.42-1.79.05-.42-.92-1.16-1.56-1.41a7.44,7.44,0,0,0-2.55-.26c-7.81,0-15.62-.06-23.44,0-5.36,0-10.72.16-16.07.39a3.52,3.52,0,0,0-2.49,1.39c-.24.39.72,1.54,1.14,2.35Zm39.52-.4c-.23,9.52-.45,18.8-.67,28.23h-3.13c-.25-9.24-.5-18.45-.76-28Zm-8.23.36v28h-3.52c-.34-9.3-.69-18.58-1-28Zm-11,0h2.94v28.26H376.14C378.81,106,381.46,96.63,384.14,87.16Zm-3.83.07-6.17,22.86-.44-.06q-2.82-11.39-5.64-22.8Z"/></svg>