<svg xmlns="http://www.w3.org/2000/svg" viewBox="0 0 750 750"><path d="M606.15,48.21a27.15,27.15,0,0,0-.45-5.33A21.87,21.87,0,0,0,583.76,25H187.23c-13.1,0-22.65,9.56-22.65,22.71V375.07q0,163.68,0,327.35a23.65,23.65,0,0,0,.57,5.51c2.54,10.55,11.23,17.07,22.65,17.07Q385.4,725,583,725a27.16,27.16,0,0,0,5.33-.46c10.93-2.23,17.88-11.09,17.88-22.79Q606.17,375,606.15,48.21Zm-4.26,653.42c0,11.55-7.47,19.09-18.94,19.09H187.59c-9.35,0-16.5-5.46-18.37-14.11a22.74,22.74,0,0,1-.35-4.74q0-163.49,0-327V47.52c0-8.94,5.46-16,13.95-17.86a18.5,18.5,0,0,1,4.14-.37h397a17.67,17.67,0,0,1,18,17.8c0,1.52,0,3.05,0,4.57ZM548,448c1.36-3.05,1.26-5-1.92-6.41-6.5-2.81-13-5.8-19.69-8-23.31-7.57-46.65-15-69.47-24-.72-.28-1.4-.66-2-1,.41-3.86.08-4.19-3.73-4.39-4.77-.26-9.52-.6-13.85-3.31a3.83,3.83,0,0,1-.33-.79q-3-13.38-6-26.76c-.36-1.68-.4-3.44-.88-5.08-.92-3.14-2.46-4.12-5.36-3.72-3.13.43-4.51,1.93-4.62,5.13a12.85,12.85,0,0,0,.22,3c1.57,7.45,3.18,14.89,4.77,22.33.09.43.11.87.2,1.58a18.27,18.27,0,0,1-1.85-.54l-21.38-9.08a20.21,20.21,0,0,0-2.78-1c-2.72-.69-4.25-.06-5.36,2.07-1.52,2.92-1.34,4.67.81,6.58a10.45,10.45,0,0,0,2.47,1.65c9.5,4.4,19,8.81,29.24,11.28,1.08.26,2.13.63,3.34,1,.38,2.07.88,4,1.07,6,.61,6.32.71,12.73,1.76,19,1.22,7.3,3.2,14.47,4.9,21.68,1.26,5.35,2.88,10.66,1.19,16.23a3.55,3.55,0,0,0-.09,1c0,1.83,1,2.5,2.73,1.94.42-.13.83-.29,1.78-.63a14.22,14.22,0,0,1-.72,2.68,34.26,34.26,0,0,1-2.21,3.54,22.54,22.54,0,0,0-4.12,14.44c.09,1.55.89,3.06,1.44,4.84,1.27-.49,2.31-.6,2.91-1.17,2.14-2,4.12-4.24,6.18-6.4a12.8,12.8,0,0,1,.42,1.48c1.43,7.53,3.1,15,4.17,22.62.79,5.63,5.24,10.77,11.82,9.79,3.25-.48,5.28-1.94,4.46-5.78-1.55-7.32-3.16-14.63-5.06-21.86-1.8-6.85-4.11-13.57-6-20.39-4.12-14.81-8.12-29.64-12.15-44.47-.59-2.16-1-4.35-1.51-6.42,3.58-2.39,3.57-2.39,1.41-6q-1.53-2.56-3-5.18a17.79,17.79,0,0,1-.75-1.87,4.6,4.6,0,0,1,2.24.69c5.1,2.82,10,6,15.33,8.38,6.82,3,13.9,5.53,20.92,8.12a25.18,25.18,0,0,1,10.26,6.54c2.35,2.57,3.49,2.16,4.48-1.18,0-.1.2-.15.73-.51a16.75,16.75,0,0,1,1.67,2.62c2.21,5.54,4.69,10.9,10.1,14.1a44,44,0,0,0,5.22,2.25c2.17-4.69.66-8.31-1.79-12.16a6.13,6.13,0,0,1,1.16.18c7.14,3.14,14.44,6,21.36,9.53C538.16,455.05,545.05,454.62,548,448Zm-22.6-11.64c0,.2-.07.39-.1.59-6.17-.73-12.32-1.51-17.44-5.81ZM429.2,381.76l.59,0c1.34,5.51,3.21,11,1.12,17.36-.87-.89-1.71-1.41-2.07-2.17a13,13,0,0,1-1.16-8.12C428.15,386.49,428.69,384.13,429.2,381.76Zm-6.1-9.15a13.64,13.64,0,0,1-.28-2.55c0-2.53,1-3.27,3.68-2.85,2.36,2.78,2.11,11.8-.54,17.46-.17-.26-.36-.43-.4-.63C424.72,380.23,423.9,376.43,423.1,372.61Zm-25.38,20.74c-2.62-1.26-2.71-2.54-.91-4.84,3.46-.73,13.27,6.55,14.09,10.58C406.44,397.17,402,395.41,397.72,393.35Zm12.69.62c6.9,1.9,12.73,5.08,17.32,10.49C420.22,404,414.61,400.4,410.41,394Zm28.22,53.59.67-.18c2.6,2.86,2.16,6.44,2.35,9.87l-.56.14Zm24.52,67.59c-1.93-.86-3.86-3.45-5.87-.38-.9,1.37-.13,4.53,1.19,5.45,1,.67,1.93.91,2.66-.48l-1.64-3a4.78,4.78,0,0,1,3.91,4.81c-2.55,1.75-5.88.89-7.71-2.21a11.28,11.28,0,0,1-1.41-4.07c-.45-3-.64-6.13-.93-9.22C457.13,506.78,463.31,512.43,463.15,515.15Zm-8.57-32q2.7,8.29,5.41,16.6l-.57.19c-2.75-5.22-5.49-10.45-5.35-16.62Zm-5.51-10.28c.17-1.9.37-3.79.55-5.69l.88-.06c.49,3,1.15,6.05,1.43,9.1.4,4.4.2,8.89.87,13.24a27.11,27.11,0,0,0,6.61,13.78c1.29,1.49,2.65,3,2.62,5.86-3.5-3-6.64-5.64-9.67-8.37a4.91,4.91,0,0,1-1-2.14A65.37,65.37,0,0,1,449.07,472.89ZM447.34,463c.15,4.1-.19,8.21-.33,12.31a9.26,9.26,0,0,1-.24,1.46l-.37,0c-.35-1.59-.6-3.21-1.09-4.76a4.36,4.36,0,0,0-1.51-2.53c-.58-.29-1.71.53-2.69.89.35-1.54.65-3.29,1.15-5a33.76,33.76,0,0,0,1.24-12.76c-.3-3.18-1.38-6-4-7.91a8.44,8.44,0,0,1-3.29-6.27c-.17-1.43-.39-2.85-.6-4.28l.59-.31c2.05,2.75,4.42,5.32,6.1,8.28C445.94,448.59,447.08,455.75,447.34,463Zm-13.1-45.78c4.2,4.16,7.45,12.58,7.48,19.21-.77-.91-1.37-1.57-1.91-2.27a13.92,13.92,0,0,0-1.74-2.4C433.35,427.8,434.92,422.23,434.24,417.23ZM442,422a3.27,3.27,0,0,1,.35.7c0,.1,0,.24-.07.37-1.44-.28-7.11-9.72-7.65-12.73l.48-.48c.63.62,1.68,1.16,1.82,1.88C437.68,415.65,439.91,418.78,442,422Zm-6.67-15.87c-3.57-.47-5.91-3-8.23-5.48,8.32,2.14,15.82,7.42,25,5.95,0,.28.09.56.14.84-.46.17-.94.54-1.38.49C445.67,407.39,440.48,406.82,435.31,406.14Zm16.22,9.77c-3.14-1.8-6.27-3.63-9.43-5.46,7.63-1.73,14,1.46,20.62,4.64a7.9,7.9,0,0,1-1.33.38c-3,.21-5.93.39-8.9.57A1.8,1.8,0,0,1,451.53,415.91Zm28.25,11.93-9.93-3.74.24-.63c4-.6,6.8,1.95,9.87,3.83Zm19.31,6.85c-1.93-.82-3.85-1.65-5.8-2.43-1.29-.52-2.48-.6-3.07,1.14l.55,1.78a3.11,3.11,0,0,0-.28.23c-1.23-1.32-2.56-2.55-3.66-4a33.45,33.45,0,0,0-9.91-8.43c-2.78-1.57-5.71-2.24-8.78-1.18a8,8,0,0,1-6.83-.79c-1.37-.75-2.81-1.38-4.23-2.07,0-.22.05-.43.08-.64,3.54-.13,7.13-.65,10.63-.3,7.66.78,14.48,4.08,20.82,8.28,3.69,2.45,7.12,5.27,10.66,7.92Zm18.28,7.37c-9.46-3.15-17.12-9.05-24.54-15.38a1.31,1.31,0,0,1-.44-1.12,45.16,45.16,0,0,1,5.4,2.12c3.35,1.85,6.67,3.8,9.84,5.94A30.27,30.27,0,0,0,528,438.67a37,37,0,0,1,5.54.31c0,.25,0,.5,0,.75-2.73.95-5.44,1.95-8.19,2.84S520.07,443,517.37,442.06Zm8.85,3.25c3.39-2.84,11-4.57,13.51-3-1.79,1.19-5.23,1.13-3.86,4.66.55,1.42,3.47,2.6,5,2.2,1.18-.31,1.51-.83,1.44-2.69a9.33,9.33,0,0,1-1.8.15,10.44,10.44,0,0,1-1.73-.55c2.26-1.51,4.12-1.58,6.14-.43.79,3.13-3.17,5.64-6.32,5.29a13.41,13.41,0,0,1-4-1.15c-1.44-.65-2.73-1.61-4.13-2.36S527.69,446,526.22,445.31ZM340.61,441c1.4-8.47,1.92-17.09,2.88-25.64.23-2,.71-4,1.09-6.11,1-.31,1.59-.55,2.23-.7,10.4-2.42,20.06-6.78,29.67-11.26a13,13,0,0,0,3.82-2.74c1.7-1.81,1.52-3.4,0-6.19-1.07-1.89-2.73-2.15-4.61-1.81a10.62,10.62,0,0,0-2.46.76c-5.4,2.35-10.77,4.78-16.18,7.1-2.52,1.08-5.11,2-7.92,3.08a10,10,0,0,1,.09-1.37c1.1-4.77,2.31-9.52,3.3-14.32a99.36,99.36,0,0,0,1.75-11c.27-3.08-1.15-4.81-3.61-5.34-3.89-.85-5.82.49-6.66,4.7-1.14,5.71-2.13,11.45-3.33,17.15-1,4.85-2.26,9.65-3.51,15-3.16.77-6.31,1.65-9.52,2.27a49.53,49.53,0,0,1-5.73.43c-2,.15-2.73,1.06-2.48,3,.06.45.09.89.15,1.46-.78.34-1.48.69-2.22.95q-27.43,9.72-54.88,19.41c-7.8,2.74-15.7,5.22-23.5,8-3.48,1.24-6.85,2.83-10.24,4.35-2.41,1.07-3.87,2.86-3.21,4.43,1.28,3,2.59,6.15,6,7.47a10.6,10.6,0,0,0,8.86-.46c3.3-1.67,6.54-3.49,9.92-5,4.24-1.87,8.59-3.49,12.9-5.2a9.34,9.34,0,0,1,1.52-.28c-2.41,3.77-3.91,7.39-1.9,11.88,1.55-.44,3.16-.55,4.37-1.3a22.44,22.44,0,0,0,9.42-11c.63-1.6,1.28-3.2,2.05-4.74a10.85,10.85,0,0,1,1.66-1.86,5.1,5.1,0,0,1,.49.91c.73,2.9,1.79,3.24,4,1.26a18.55,18.55,0,0,1,1.44-1.37c2.2-1.52,4.28-3.37,6.71-4.41,5.34-2.3,10.84-4.28,16.33-6.21,8-2.8,15.16-7.25,22.43-11.46.59-.34,1.22-.62,1.83-.93l.36.35a22.48,22.48,0,0,1-.92,2.07c-1.19,2.06-2.42,4.11-3.63,6.16s-.87,3,1.09,4c.34.18.65.41,1.08.67-.17.89-.28,1.74-.5,2.56-4.86,18-9.69,36.07-14.62,54.08-2.4,8.75-5,17.42-7.44,26.17-.95,3.51-1.55,7.12-2.18,10.7-.45,2.6.4,4.45,2.06,5.1a11.07,11.07,0,0,0,11.23-2.47c2-2.06,2.58-4.65,3.07-7.37,1.34-7.55,2.81-15.08,4.26-22.61a14.65,14.65,0,0,1,.66-1.83c1.9,4,3.95,7.36,8.25,8.09.29-.2.43-.25.5-.36a4.86,4.86,0,0,0,.5-.85c1.88-4.47,1.06-8.88-.74-13.07-1.22-2.84-3.1-5.39-4.58-8.12a12.36,12.36,0,0,1-.66-2.78c3.84,1.38,4.7.68,4.22-2.78a9.22,9.22,0,0,0-.2-1.17,17.21,17.21,0,0,1,.09-8.64C337.29,454.9,339.44,448,340.61,441Zm-.82-15.43a7.77,7.77,0,0,1-2.32,5.64,52.44,52.44,0,0,0-4.41,5.78l-.48-.22c.71-3.75,1-7.65,2.28-11.19,1-2.8,3.29-5.15,5.46-7.59C340.13,420.5,339.87,423,339.79,425.56Zm37.72-36.33c2,2.23,1.77,3.44-.84,5a18.27,18.27,0,0,1-2.31,1.13c-3.6,1.5-7.21,3-11.2,4.59C366.3,394.28,373.89,388.74,377.51,389.23ZM364,394.77c-4.15,6.38-9.74,10-17.32,10.5C351.3,399.84,357.12,396.64,364,394.77Zm-16.19-26.7c2.67-.57,4,.21,3.7,2.66-.68,4.92-1.75,9.8-2.74,15.11C346,380.93,345.58,371,347.82,368.07ZM345,382.3c1.4,5.33,3.06,10.2.66,15.22a14,14,0,0,1-1.91,2.38C341.86,396.28,342.55,387.35,345,382.3Zm-78.53,49.58c-5,4.33-11.22,5.05-17.38,5.83l-.17-.57Zm-27.34,19c-3.6,1.73-7.34.91-9.07-1.81a13,13,0,0,1-.95-2.56,6.35,6.35,0,0,1,6.23-.1c0,.21.05.42.07.63l-3.19.41c-.78,1.27,0,1.95,1.05,2.4,1.62.68,4.78-.74,5.4-2.37s0-2.52-4.21-4.45c.93-.37,1.63-.92,2.24-.84,4,.58,7.93,1.29,11.58,3.73C245.09,447.71,242.2,449.46,239.17,450.91Zm19.3-8.54c-4.43,1.67-8.38,1.78-12.59-.17a45.89,45.89,0,0,1-5-2.11,20.78,20.78,0,0,1,3.52-.73c3-.09,6.08.22,9.09,0a28.85,28.85,0,0,0,13.43-4.95c4.15-2.67,8.6-4.88,12.94-7.25a10.58,10.58,0,0,1,2.22-.66C275,433.06,267.6,438.93,258.47,442.37Zm36-13.66-.24-.45c3.11-2,6-4.56,10.06-4l.24.61Zm15.12-5.55a2,2,0,0,1-1.34-.14c-6.08-2.21-11.05.1-15.46,4-2.7,2.41-5.08,5.18-7.58,7.81a15.67,15.67,0,0,0-1.15,1.53l-.44-.38c.19-.6.38-1.2.55-1.76-.53-1.75-1.71-1.72-3-1.2-2,.78-3.89,1.62-5.87,2.45,0-.27-.1-.44-.06-.47,8-6.41,16.17-12.47,26.22-15.28a24.6,24.6,0,0,1,6.24-1c3.15-.06,6.3.29,9.45.47.08.23.15.47.22.7C314.82,421,312.24,422.11,309.63,423.16Zm13-6.46c-1.14.53-2.84-.21-4.28-.25-2.11-.06-4.21,0-6.32,0-.05-.29-.09-.57-.14-.86,5.22-1.27,9.49-5.47,15.43-4.59a40.65,40.65,0,0,0,5.48,0C329.11,413.11,326,415.14,322.6,416.7Zm.92-8c-.41.05-.88-.35-1.32-.92,9.25,1,16.81-4.12,25.17-6.38-2,2.15-3.92,4.61-7,5.12C334.81,407.49,329.16,408.07,323.52,408.74Zm9.09,13.86c1.93-3.15,4.12-6.15,4.87-9.92.16-.8,1.25-1.42,1.9-2.12l.72.6a97.54,97.54,0,0,1-7.35,13.09l-.72-.39A9.58,9.58,0,0,1,332.61,422.6ZM319.83,484l.55.13c.11,6.19-2.62,11.43-5.39,16.65l-.55-.18Q317.14,492.3,319.83,484Zm-.14,34a6.25,6.25,0,0,1-6.34,5.23,14.6,14.6,0,0,1-2.48-.6,6.09,6.09,0,0,1,3.3-5.17l.6.33c-.46.86-.93,1.73-1.45,2.68.39,1.28,1.3,1.27,2.3.77,1.44-.7,2.4-3.89,1.63-5.49a2.35,2.35,0,0,0-3.26-1.37,22.44,22.44,0,0,0-2.88,1.71c.29-3.11,6.38-8.53,10.09-9.25C320.72,510.59,320.49,514.36,319.69,518Zm3.37-18.67a6.74,6.74,0,0,1-1.56,2.93c-2.84,2.51-5.84,4.84-9.06,7.47-.15-2.44,1-3.83,2.14-5.16a30.68,30.68,0,0,0,7.67-20.12c.1-4.87.88-9.72,1.4-14.57a10.07,10.07,0,0,1,.63-1.95l.51.06c.17,1.68.36,3.35.52,5C326.13,481.91,325.79,490.73,323.06,499.32Zm7.56-29c-.75.38-1.21,1.59-1.5,2.53-.49,1.55-.74,3.16-1.09,4.75l-.51-.05c-.1-2-.15-4-.3-6a61.53,61.53,0,0,1,2.17-22,27.17,27.17,0,0,1,5.82-10.93c1.09-1.21,2.06-2.52,3.08-3.79l.65.24c-.52,2.64-1,5.29-1.61,7.91a2.44,2.44,0,0,1-1,1.19c-5.11,3.67-6.12,8.93-5.46,14.66.4,3.53,1.33,7,2,10.5.14.69.25,1.4.33,1.87C332.34,470.84,331.2,470,330.62,470.32Zm2.72-12.15-.54-.13c.14-3.44-.28-7,2.36-9.85l.64.15Zm64.3-125.53a12.44,12.44,0,0,0,3.64-.94c2.81-1.16,5.59-2.41,8.34-3.71,4.65-2.21,9.26-4.48,14.12-6.84a15.35,15.35,0,0,1-.1,1.57q-1.92,11.65-3.86,23.31a18.54,18.54,0,0,0-.36,3.14c0,2.63.95,3.86,3.12,4.44,3.19.85,4.74.4,6.15-2a8.6,8.6,0,0,0,1.16-2.93c1.36-8.82,2.74-17.65,3.91-26.5a62.76,62.76,0,0,0,.06-8.14c2.88-1.17,5.38-2.37,8-3.21,11-3.53,21.84-7.22,31.89-13.12,6.21-3.65,12.53-7.63,20.28-7.25a.65.65,0,0,0,.19,0c1.79-.46,2.2-1.51,1.22-3.1-.23-.37-.5-.73-1.08-1.57a13.1,13.1,0,0,1,2.79,0,41.44,41.44,0,0,1,4.33,1.44,22.57,22.57,0,0,0,14.82.47c1.47-.44,2.72-1.62,4.63-2.82-1.91-1.73-3.19-3.28-4.81-4.26a33.21,33.21,0,0,0-5.58-2.12,6.62,6.62,0,0,1,.89-.67c7-3.17,13.84-6.67,21-9.4,6.29-2.41,10.5-7.8,7.53-14.5-1.34-3-2.92-4.27-6.07-2.82-6.26,2.86-12.63,5.59-18.56,9-21.33,12.47-42.63,25-64.7,36.11-.69.35-1.42.61-2.07.88-2.65-2.89-3.08-2.87-5.76-.18-1.54,1.55-3.15,3-4.77,4.51a17.82,17.82,0,0,1-2,1.36c.32-1.31.46-2,.66-2.68,1.07-3.62,2.48-7.17,3.18-10.86,1.37-7.14,2.38-14.35,3.46-21.54,1-6.64,1-13.55,5.43-19.23a1,1,0,0,0,.09-.18c.76-1.82.12-2.86-1.82-2.89-.44,0-.88.05-1.32.08l-.42-.47a12,12,0,0,1,2-2.31c5.05-3.55,9.79-7.37,11.67-13.58a35.81,35.81,0,0,0,.77-5.44c-2.63-.35-4.66-.26-6.46.87s-3.26,2.35-4.95,3.59a7,7,0,0,1,0-1.22c1.34-8,2.05-16.13,4.33-24,1.91-6.6-.76-10.78-7.3-12.88-3.87-1.24-5.69-.17-6.39,3.86-.85,4.89-1.88,9.77-2.37,14.7-1,9.75-1.55,19.54-2.49,29.29-1.49,15.49-3.14,31-4.75,46.45-.18,1.75-.49,3.5-.73,5.16-4.1.7-4.21.9-3.48,4.82.87,4.69,1.62,9.4,0,14.2a11.49,11.49,0,0,1-1.09.7l-27.24,13a15.44,15.44,0,0,0-2.42,1.35c-2.09,1.52-2.59,3-1.83,5.11C393.59,331.79,394.91,332.88,397.64,332.64ZM429.3,336c-.73,4.31-1.31,8.64-2.26,12.9-.63,2.8-1.86,3.15-4.65,1.86-1-1.87-.18-3.71.44-5.48a30.46,30.46,0,0,1,6.57-10.74A14.13,14.13,0,0,1,429.3,336Zm40.79-39.63-.36-.52c2.14-3.43,5.92-3.77,9.31-4.84l.26.48Zm60-39.9c-.28,2.13-2.52,4.71,1.06,5.92,1.41.47,4.11-.82,4.82-2.16a1.85,1.85,0,0,0-.79-2.85c-.38.36-.77.75-1.18,1.11s-.84.68-1.41,1.14c-.11-2.37,1.21-4.06,3.6-4.88,2.39,2.16,2.29,5.6-.23,8.13a7.38,7.38,0,0,1-2.39,1.75c-3.3,1.31-6.66,2.47-10,3.7C523.31,264.59,527.31,257.21,530.11,256.44Zm-14.19,6.78.31.5c-4.43,4-9,7.84-15.07,9.23l-.3-.48Zm-25,14.87c3.8-1.33,7.65-2.6,11.55-3.59a30,30,0,0,0,17.16-11.76c1.12-1.52,2.19-3.14,4.67-3.6-1.59,3.5-2.89,6.69-4.5,9.72a8.56,8.56,0,0,1-3,3c-9.11,5.66-19.33,7.76-29.78,9.07a7.09,7.09,0,0,1-1.13-.22A38.34,38.34,0,0,1,490.89,278.09Zm-22.62,12.48a62.56,62.56,0,0,1,22.84-8.18c2-.29,4-.78,5.95-1.18.06.15.11.29.17.43-1.7.82-3.44,1.56-5.06,2.51-.79.45-1.77,1.23-1.88,2s.92,1.44,1.64,2.44a48,48,0,0,0-5.22,0c-4.11.44-8.25.83-12.3,1.66a9.72,9.72,0,0,0-7.25,5.93,7.72,7.72,0,0,1-4.82,4.36c-1.58.59-3.13,1.26-4.79,1.71C460.6,297.82,463.53,293.36,468.27,290.57Zm-9.57,5.23c-.56.8-.93,1.37-1.36,1.9s-1.13,1.29-1.66,2c-1.23,1.56-2.43,3.14-3.66,4.68a1.49,1.49,0,0,1-.69.37L441.11,308A33.16,33.16,0,0,1,458.7,295.8Zm-13.85,2.82a5.28,5.28,0,0,1,.87-.53c-.18,2-8.26,9.78-11.37,10.63.44-.81.68-2.06,1.35-2.36C439.5,304.62,442.08,301.52,444.85,298.62ZM440,272c-1.83-2.59-1.17-8.12,1.38-11.41C440.89,264.54,440.45,268.13,440,272Zm1.31-72.85c3,3.6,4.06,4.09,5.55,2.71s1.64-4.65.49-5.87c-.8-.86-1.34-.83-2.34.07.14,1,.29,2,.51,3.57-2.27-2-2.83-4.05-2.14-6.24,2.95-.94,6,1.17,6.58,4.75a11.83,11.83,0,0,1-.13,4.32c-.7,3.07-1.64,6.09-2.48,9.13C444,209.36,440.38,202.07,441.3,199.11Zm-2.43,15,.54,0c.78,6.29,1.51,12.58-1.53,18.67Zm-2.08,30a104.87,104.87,0,0,1,3.38-11,30.68,30.68,0,0,0,.28-21.92,30.17,30.17,0,0,1-.87-5.24l.84-.11c1.78,3,3.68,5.94,5.29,9a7.86,7.86,0,0,1,.77,4,67,67,0,0,1-10.32,30.45A36.1,36.1,0,0,1,436.79,244.13Zm.88,8.84c1.55-4.33,3.57-8.5,5.37-12.75l.45.19c-.34,2.08-.71,4.16-1,6.25-.21,1.45,0,2.71,1.94,2.75l1.56-1.07.34.25c-1,1.55-2,3.16-3.13,4.63a32.94,32.94,0,0,0-5.9,11.82c-.8,2.94-.77,5.82.9,8.44a8.55,8.55,0,0,1,.85,7.2,24.78,24.78,0,0,1-1.52,4.8,3.67,3.67,0,0,0-.18-.76C432.7,274.09,433.91,263.48,437.67,253Zm-4.58,27.14c.39,1.16.64,1.84.86,2.53q1.14,3.67,2.25,7.37a2.24,2.24,0,0,1,.18,1.14c-1,3.52-2.08,7-3.15,10.62C430,294.66,431.21,287.69,433.09,280.11Zm-5.86,12.67.8-.32c.28.47.75.93.81,1.43,1,8.26,4.47,16.69-1.76,25.08C427.45,309.87,430.7,301.36,427.23,292.78Zm3.49,24.38c1.72,5.59-.53,12.92-6.1,19.4C425,329.29,426.52,322.85,430.72,317.16Zm-5.82-2a10,10,0,0,1-1.59,2.53,13.27,13.27,0,0,1-8.17,3.09c-2.23.06-4.47,0-7.07,0C411.85,317.49,420,314.71,424.9,315.12Zm-12.59,8.51c-4.92,2.2-9.4,4.39-14,6.19-2.17.85-3.15-.23-3.4-2.94C397.16,323.94,407.12,321.91,412.31,323.63ZM334.39,191.88c-.66-.82-2-1.75-2.9-1.6-6.51,1.13-11.33,4.21-9.83,12.86.44,2.53,1.49,5,1.93,7.49,1,5.74,1.76,11.51,2.61,17.28a8.18,8.18,0,0,1-.06,1.38c-3.16-3.23-6.33-5.69-11.23-4.66.09,1.61-.14,3.2.31,4.57A22.66,22.66,0,0,0,324,241.14a36.73,36.73,0,0,1,3.8,2.87,6.53,6.53,0,0,1,1.12,1.85c-1.38.48-3,.58-3.23,1.22-.35.87.29,2.16.58,3.25.12.43.53.77.69,1.2,1,2.57,2.35,5.08,2.78,7.74,1.09,6.8,1.37,13.73,2.67,20.48,1.39,7.19,3.58,14.24,5.41,21.35.17.65.29,1.32.44,2a3.43,3.43,0,0,1-1.93-.91c-1.78-1.69-3.56-3.38-5.29-5.11s-2.86-1.75-4.38.16a5.4,5.4,0,0,0-.45.9c-1.2-.55-2.06-.88-2.86-1.32-16.38-9-32.86-17.76-49.11-27-10.54-6-20.76-12.5-32-17.21a10.72,10.72,0,0,0-3.74-1.15c-1.05,0-2.72.49-3.06,1.25-1.6,3.49-3.1,7.09-.74,11a11.07,11.07,0,0,0,5.47,4.69c3.32,1.31,6.73,2.43,10,3.91,4.28,1.94,8.44,4.13,12.65,6.24a10.11,10.11,0,0,1,1.27,1c-4.28.86-8,2.05-9.83,6.27a9,9,0,0,0,1,1c3.9,2.9,8.38,3.13,12.87,2.38,3.05-.5,6-1.73,9-2.53a13.64,13.64,0,0,1,3.05,0c-.58.78-.78,1-1,1.29q-1.85,2.76,1.41,3.37a6.4,6.4,0,0,0,1.38.14c4-.14,7.63,1.25,11.15,3.08,7.28,3.79,14.48,7.78,22,11,6.42,2.78,13.26,4.6,19.88,6.92,1.79.63,3.48,1.55,5.21,2.34.08.95.19,1.67.18,2.38-.08,10.54,1.87,20.83,3.91,31.09a14,14,0,0,0,1.65,4.43c1.33,2.24,2.93,2.52,6.09,1.7,2.21-.58,2.85-2.2,3-4.17a11.1,11.1,0,0,0-.19-2.57c-1.07-6.06-2.2-12.11-3.24-18.17-.42-2.46-.63-4.94-1-7.7.74.32,1.16.48,1.56.67,6.8,3.28,13.57,6.6,20.4,9.8a13.07,13.07,0,0,0,4.38,1.18c2.7.23,4-.94,5.06-4,.69-2,.18-3.46-1.83-4.95a11.7,11.7,0,0,0-2.05-1.2c-5.42-2.48-10.88-4.86-16.26-7.42-4.29-2.05-8.48-4.31-13.11-6.67,0-3.34-.1-6.68,0-10a49.3,49.3,0,0,1,.91-5.48c.32-1.94-.41-2.86-2.35-3.07-.45,0-.89-.13-1.41-.2-.14-.79-.33-1.5-.41-2.21-2-19.5-4.28-39-5.95-58.5-1-11.55-1.74-23.11-4-34.5A7.52,7.52,0,0,0,334.39,191.88Zm-7.28,20.57c-.89-3.21-1.79-6.25-2.54-9.32A8.14,8.14,0,0,1,325.8,196a4.8,4.8,0,0,1,5.32-1.85c.77,2.26-.16,4.1-1.38,5.87l-.69-.09.33-3.24c-.52-1-1.39-.73-2.22.05-1.56,1.47-.8,5.59,1.17,6.42a2.43,2.43,0,0,0,3.13-1c.53-.72,1-1.48,1.55-2.32C334.13,202.63,330.89,209.4,327.11,212.45Zm6,49.09c2.36,2.46,3.17,8.4,1.39,11.38C334,268.91,333.53,265.33,333.07,261.54Zm-59.25,11.89c-4,.43-11.88-5-15.65-9.62Zm-34.37-9a5.48,5.48,0,0,1-1.39-8.78c2.09.33,3.41,1.75,4.06,4.67a8.35,8.35,0,0,1-1.56-.82,9.24,9.24,0,0,1-1.06-1.28c-1.63.48-1.62,1.47-1.18,2.56.64,1.6,3.65,2.92,5.25,2.34,1.75-.62,1.9-1.67.77-5.61,2.42,0,6.55,7.13,6.59,11.83C247,267.67,243,266.45,239.45,264.4Zm18.49,8.42a8.77,8.77,0,0,1-3.12-2.92c-1.68-3.12-3-6.41-4.53-9.63l.7-.6a33.2,33.2,0,0,1,3.66,3.65,31.34,31.34,0,0,0,18,12.19c4.7,1.23,9.23,3.18,13.82,4.84a2.94,2.94,0,0,1,1.5,1.4c-1.39-.17-2.79-.3-4.17-.5C274.7,279.93,265.87,277.72,257.94,272.82Zm46.5,24.29-9.31-4.79.18-.54c3.43,1,7.16,1.41,9.4,4.79Zm12.29,6.14c-3.3-1.7-7.48-1.87-9.32-6.05-2.32-5.24-7.15-6.63-12.15-7.34-3.57-.5-7.24-.37-10.86-.52l-1.78-.09c.55-.84,1.68-1.86,1.49-2.45-.29-.87-1.44-1.55-2.34-2.11a25.45,25.45,0,0,1-3.85-2.35,2.84,2.84,0,0,1,.7-.08c9.78,1.59,19.35,3.88,27.83,9.31a23.68,23.68,0,0,1,4.73,3.9c2.11,2.32,3.94,4.89,5.9,7.36Zm16.17,5.42q-5-1.6-10-3.23a1.11,1.11,0,0,1-.51-.28,96.66,96.66,0,0,1-6.27-8.57c3.46,1.55,7.2,2.69,10.31,4.78,2.6,1.74,4.47,4.58,6.66,6.94Zm6.81,1.08c-2.68-.93-11-9.06-10.87-10.79,1.38,1.32,2.54,2.59,3.84,3.67a58.09,58.09,0,0,0,5.52,4.11C339.42,307.51,340.09,308.28,339.71,309.75Zm12.22,41.81c-2.47,1.16-3.74,1-4.24-1.14-1.17-5-2-10.12-3-15.68C349.64,339.28,353.37,348.25,351.93,351.56Zm27.68-23.83c-.48,2.82-1.39,3.74-3.62,2.86-4.57-1.82-9-4-13.8-6.15C367,322.69,377.23,324.74,379.61,327.73Zm-13.26-6.19c-5.68.15-11.08.61-15.55-3.32a8.5,8.5,0,0,1-1.24-2.3C354.36,315.48,362.51,318.26,366.35,321.54Zm-22.52-10c.38-5.72,1.14-11.42,1.8-17.12,0-.4.56-.76.77-1-.18,4.38-.64,8.68-.47,13s1,8.63,1.29,13C345.59,317,343.63,314.56,343.83,311.53Zm-.19,6.34c4.27,5.76,5.88,12.19,6.13,19.27C344.62,331.63,342.28,325.43,343.64,317.87Zm-2-36.44c.44,2.65.82,5.31,1.32,7.94a28,28,0,0,1-1.7,13.33L338,291.86l3.17-10.47ZM340,268.22c.6,6.34-1.18,12-3.41,17.7-.65-3.67-3-7.18-.61-11.07,3.06-5,1.45-9.79-.87-14.36-1.69-3.34-4-6.39-6-9.57-.33-.52-.65-1-1-1.58l.26-.22,1.56,1.09c1.92,0,2.17-1.23,2-2.7-.3-2.14-.67-4.26-.84-6.43C335.28,249.75,339.08,258.45,340,268.22Zm-1.82-18c-5.53-9.54-9.69-19.42-10.27-30.46a5.75,5.75,0,0,1,.34-2.91c1.81-3.48,3.8-6.86,5.73-10.27l.84.23a27,27,0,0,1-.79,5,31.76,31.76,0,0,0,.37,22.69c1.67,4.42,2.5,9.16,3.67,13.76A9.26,9.26,0,0,1,338.2,250.18ZM335,215l.59-.05q.49,9.33,1,18.65C333.44,227.58,334.31,221.3,335,215ZM580.36,421.86l-4.29-3.17V671.75c-12.21,2.28-18.56,10-21.26,21.59H432.6c2.63,2.47,4.64,4.65,8.4,4.32,4.6-.4,9.27-.1,13.9-.09h102c.57,0,1.15-.08,1.66-.12.89-13.78,9.34-19.89,21.83-22.21ZM216,693.22c-2.75-11.54-9.09-19.17-21.37-21.51V418.78l-4.19,3.13V675.26c12.57,2.27,21,8.48,21.87,22.21.48,0,.93.12,1.38.12,39,0,77.91-.07,116.87.07,3.59,0,5.12-2.28,7.34-4l-.15-.48ZM555.74,54.89c1.74,11,10.52,20.27,21.24,21.36V319.4l4.19-3.14V72.84c-12.57-2.26-21-8.48-21.87-22.2a13.56,13.56,0,0,0-1.39-.13c-38.95,0-77.91.08-116.86-.06-3.59,0-5.12,2.27-7.34,3.95l.15.49ZM191.29,316.32l4.2,3v-243c12.29-2.24,18.66-10,21.37-21.59h122c-2.5-3.16-5.23-4.65-9.1-4.33-4.28.35-8.6.08-12.91.08l-102.16,0a13.31,13.31,0,0,0-1.57.15c-.94,13.83-9.4,19.92-21.82,22.16Zm94.3,190.79c1-.85,2.18-1.41,2.53-2.31a45.72,45.72,0,0,0,3.44-15c.29-6.87-1.33-13.38-3.49-19.8a2.64,2.64,0,0,0-2-1.21,71.36,71.36,0,0,0-17,.67c-5.16,1-10.08,2.38-14.2,5.73-1.24,1-2.08,2.51-3.34,4.08a16.35,16.35,0,0,0,14,3c4.58-1,9.07-2.42,13.41-3.61-1.54,2.07-3.38,4.33-5,6.75-2.41,3.62-5.16,6.81-9.25,8.64a14.11,14.11,0,0,0-2.64,1.76c-8.06,6.06-13.64,13.8-15.8,23.77a15,15,0,0,0,0,3.14l.73.39,4-2.1a36.32,36.32,0,0,0,18.66-22.64c.81-2.68,2.55-5.07,3.87-7.6l.54.27a1.51,1.51,0,0,1-.09.53c-3,6.09-2.73,12.6-2.38,19.09.1,1.72.39,3.3-.57,5a2.91,2.91,0,0,0,1.1,4.16,3.6,3.6,0,0,0,4.82-.81c2.2-2.61,1.29-5.26-2.41-7-1.14-9.4,2.73-26.88,6.76-30.39C279.59,490.36,278.52,499.05,285.59,507.11Zm-34.24,10.51L265.49,500C262.83,507.5,258.73,513.87,251.35,517.62Zm5.27-38.89,23.4-5.36C275.1,478.05,261.75,481.16,256.62,478.73ZM284.55,483h.84v18.4C282.35,495.33,283.92,489.16,284.55,483Zm241.16,39.81a12.38,12.38,0,0,0,.17-2.82,30.53,30.53,0,0,0-1.31-5,41.23,41.23,0,0,0-18.85-22,16.91,16.91,0,0,1-5.79-5.2c-2.23-3.24-4.69-6.34-7-9.49,3.54,1.14,6.93,2.42,10.42,3.33,4.88,1.27,9.81,1.68,14.55-.65a21.42,21.42,0,0,0,2.58-1.79c-1.08-1.44-1.78-2.84-2.88-3.73a25.65,25.65,0,0,0-10.8-5.25A65.69,65.69,0,0,0,489,468.59c-4.33.23-4.36.12-5.83,4.16a43.75,43.75,0,0,0,.48,31.63c.61,1.59,1.55,2.38,3.33,2.12,6.54-7.54,5.45-16.24,3.95-25.07,5,9.6,7.93,19.63,6.52,30.71-.35.1-.73.18-1.09.32-2.21.8-3,2.88-2,5.19s3.1,3.21,5.16,2.29,2.33-2.73,1.33-5.08a8.92,8.92,0,0,1-.48-3.19c-.13-4.68,0-9.39-.36-14.05-.18-2.24-1.27-4.41-1.94-6.61,2.09,2.51,4.13,5,4.78,8.33a20.72,20.72,0,0,0,1.47,4.1c3.86,9.1,11.09,14.8,19.58,19.18A6.15,6.15,0,0,0,525.71,522.82Zm-38.78-21.44V483C488.58,488.31,489.37,497.58,486.93,501.38Zm28.35-22.69c-4.32,2.57-17.46-.38-23.45-5.37Zm-9.06,20.92,14.48,18C514.36,514.72,507.73,506.35,506.22,499.61ZM485.68,198.5c-.95.8-2.18,1.33-2.54,2.22-2.85,7-4.29,14.24-3.12,21.75.65,4.15,2,8.19,2.92,12.31.31,1.47,1,2.12,2.37,2.06,5.48-.21,11-.26,16.42-.75a26.59,26.59,0,0,0,14.78-5.78c1.19-1,2-2.44,3.29-4.12-10-6.13-18.77-1.95-27.78,1.2,3.16-4.26,6.21-8.42,9.31-12.54a3.88,3.88,0,0,1,1.27-.89,46.72,46.72,0,0,0,13.85-10.84,37.64,37.64,0,0,0,8.6-17.22c.22-1.15.53-2.41-1.13-3.28-1.53.83-3.2,1.72-4.85,2.65a36.27,36.27,0,0,0-17.34,21.58c-.89,2.81-2.59,5.37-3.92,8l-.78-.41c3.34-6.37,2.91-13.21,2.64-20a12,12,0,0,1,.57-4.13c.66-2,.35-3.65-1.21-4.53a3.57,3.57,0,0,0-4.79,1c-1.65,2.28-1.95,5.48,2.45,6.8,1.38,10.94-1.49,21-6.52,30.52C491.66,215.21,492.75,206.46,485.68,198.5ZM519.9,188,505.72,205.6C508.39,198.08,512.52,191.72,519.9,188Zm-5.12,38.83-23.36,5.35C495.19,227.84,509.06,224.53,514.78,226.81Zm-28.14-4.25h-.53V203.82C488.82,210.28,487.42,216.42,486.64,222.56Zm-218-15.7c-.74-1.62-1.17-3.38-1.88-5-3.88-9-11.13-14.6-19.55-19a6.32,6.32,0,0,0-1.82-.11,16.37,16.37,0,0,0,0,3.3,37.26,37.26,0,0,0,16.89,24.32,41.37,41.37,0,0,1,12.7,12.42c.77,1.15,1.68,2.22,2.5,3.34.28.38.49.8.65,1.05-3.41-1.1-6.75-2.38-10.2-3.27-4.88-1.26-9.81-1.71-14.56.62a25.11,25.11,0,0,0-2.65,1.77c1.13,1.49,1.86,2.94,3,3.86a25.65,25.65,0,0,0,10.83,5.19,65.9,65.9,0,0,0,17.54,1.6c4.37-.23,4.4-.12,5.87-4.11a43.73,43.73,0,0,0-.44-31.64c-.61-1.58-1.53-2.41-3.34-2.17-6.56,7.48-5.44,16.22-4,25.05-5-9.67-8-19.71-6.47-30.66.2-.09.32-.16.44-.2,2.68-.78,3.67-2.62,2.77-5.11a3.89,3.89,0,0,0-5.23-2.54c-2.06.89-2.42,2.75-1.19,5.41a4.51,4.51,0,0,1,.4,2.26c-.66,7.23-1,14.42,2.41,21.21l-.75.41C271.32,212.22,269.92,209.57,268.68,206.86ZM250.54,188c7.39,3.7,11.46,10.11,14.15,17.6Q257.61,196.75,250.54,188Zm33.8,15.86v18.75h-.54C283,216.42,281.64,210.27,284.34,203.81Zm-28.56,23c5.34-2.39,18.8.77,23.39,5.36ZM415,76.1H355.6v49.76H415Zm-4.11,45.41H359.79V80.4h51.12ZM498.74,350a7.77,7.77,0,0,1-3.27-5.24q-1.46-9.32-2.92-18.63c-.15-.91-.37-1.8-.56-2.7-.47.3-.59.53-.63.77-1.06,6.53-2.25,13.05-3.11,19.61-.43,3.29-1.91,5.76-4.77,7-3.41,1.53-7,2.57-10.6,3.76a20,20,0,0,1-2.92.51,3.58,3.58,0,0,0,2,.79c4.47.77,8.79,1.94,12.58,4.57a7.57,7.57,0,0,1,3.55,5.27c.27,1.9.57,3.8.87,5.69q1.27,7.9,2.58,15.81l.47,0a11.33,11.33,0,0,0,.34-1.27c1-6.41,2.13-12.8,3-19.22a8.67,8.67,0,0,1,3.85-6.39,30.91,30.91,0,0,1,12.42-4.47c.59-.1,1.17-.23,1.75-.35l0-.49c-1-.16-1.92-.31-2.88-.49A28.44,28.44,0,0,1,498.74,350ZM259.85,574.53a8.57,8.57,0,0,1-4.1-6.45c-.47-3.94-1.19-7.84-1.82-11.76-.48-3-1-5.93-1.49-8.9a1.58,1.58,0,0,0-.74,1.07c-1,6.46-2.21,12.91-3.07,19.4a8.67,8.67,0,0,1-4.47,6.83,22.79,22.79,0,0,1-4.45,2.15c-3.06,1-6.19,1.7-9.58,2.6,1.08.22,1.91.41,2.75.56a30.32,30.32,0,0,1,11.67,4.22,7.91,7.91,0,0,1,3.89,5.49c.64,4.31,1.34,8.62,2,12.93.47,2.9,1,5.8,1.46,8.7l.39,0c.15-.56.35-1.11.45-1.68,1-6.27,2.11-12.53,3-18.82a8.54,8.54,0,0,1,4.32-6.71,27.62,27.62,0,0,1,5.19-2.45c2.8-.9,5.69-1.52,9-2.38-1.14-.23-1.83-.39-2.53-.52A31.27,31.27,0,0,1,259.85,574.53Zm86.86,82c.63-3.12,1.13-6.26,1.88-9.35,1.77-7.26,3.69-14.5,5.49-21.76a21.73,21.73,0,0,0,.31-3.29l-3.47-1.37a42.12,42.12,0,0,0-2.25,5.49c-1.94,7.57-3.72,15.17-5.57,22.76-.12.48-.28,1-.42,1.42l-.51.09c-.77-1.94-1.64-3.85-2.29-5.83s-1.09-4.37-1.84-6.49c-.29-.81-1.24-2-1.83-1.94-.8,0-1.66,1-2.28,1.73a7.62,7.62,0,0,0-1,2.17c-1,2.66-2,5.32-3.09,8.39-1.6-7.32-3.07-14.25-4.65-21.15a23.28,23.28,0,0,0-1.73-4.84,2.27,2.27,0,0,0-1.85-1.07,2.81,2.81,0,0,0-1.56,1.72,6.67,6.67,0,0,0,0,2.95q2.71,15.15,5.55,30.28a2.85,2.85,0,0,0,2.87,2.55c1.56.08,2.21-1,2.66-2.22,1.18-3.24,2.34-6.48,3.52-9.71.21-.56.48-1.1.74-1.68,1.72,4.06,3.35,7.88,5,11.71a3.82,3.82,0,0,0,3.65,2.61C345.92,659.66,346.39,658.06,346.71,656.52Zm51.16-31.66c-.06-1.32-.49-2.62-2.1-2.67s-2.19,1.26-2.3,2.68c-.17,2.31-.35,4.63-.37,6.94-.05,5.68,0,11.35,0,17l-.46.06c-.69-1.78-1.34-3.58-2.07-5.34q-3.53-8.53-7.12-17a41.28,41.28,0,0,0-2.1-4.46c-.37-.65-1.16-1.49-1.71-1.46a2.27,2.27,0,0,0-1.65,1.54,52.71,52.71,0,0,0-.27,7.11c.17,6.22.46,12.44.66,18.66.1,3.11.08,6.22.2,9.33.05,1.53.69,2.81,2.47,2.75s2.33-1.33,2.32-2.89c0-2.11-.16-4.23-.18-6.35,0-4,0-8,0-12,.16.38.36.84.53,1.31,1.41,3.71,2.74,7.46,4.25,11.13a60.72,60.72,0,0,0,3.25,6.57c1.06,1.89,3.06,1.71,4.79,1.48s2-1.76,2.11-3.2c.07-.72.14-1.45.14-2.18,0-5.69.05-11.39,0-17.09C398.19,632.8,398,628.83,397.87,624.86Zm8.74,2.81c0,.61.06.93.06,1.25-.14,9.13-.32,18.26-.41,27.39,0,3.82,3,5.72,6.32,3.82a39.76,39.76,0,0,0,7.1-5c8.74-8,7.83-23.61-1.27-29.69-5-3.31-10.05-3.27-15.29-1.08-.65.28-.9,1.52-1.33,2.32a10.14,10.14,0,0,0,2.27,1.11A9.45,9.45,0,0,0,406.61,627.67Zm4.67.17c1.9-.26,3.28.72,4.57,1.85,6.25,5.47,6.29,16.24,0,22.2-1.27,1.22-2.75,2.22-4.13,3.33l-.48-.35Zm-37.17,29.63c-1.36-11.68-4.83-22.88-8-34.14-.22-.77-1.27-1.83-1.89-1.8a2.93,2.93,0,0,0-2,1.78c-1.21,3.49-2.27,7.05-3.25,10.62s-1.8,7.15-2.67,10.64c-1.7.7-4.13.27-4.11,2.61,0,.93,1.48,1.85,2.29,2.78.37.16.28.61.17,1-.42,1.67-.93,3.32-1.24,5a2.23,2.23,0,0,0,1.72,2.9c1.42.31,2.24-.53,2.69-1.78.21-.56.33-1.14.5-1.71.6-2,1.21-4,1.83-6.1h8c.15.7.25,1.34.43,2,.69,2.39,1.3,4.83,2.2,7.14a1.73,1.73,0,0,0,3.32-.95Zm-12.7-13.31c.89-4.31,1.72-8.37,2.56-12.43l.44-.06c.91,3.91,1.82,7.82,2.81,12.1Zm78.9,15c3.56-1.84,5.63-4.52,5.39-9.1a13.53,13.53,0,0,0-5.8-11.19,19.32,19.32,0,0,1-6.14-7.17c-.72-1.58-.14-2.84.86-4s2.19-1,3.44-.43a7.2,7.2,0,0,1,4.13,3.78c.25.61,1.22.92,1.87,1.36.35-.75,1.07-1.54,1-2.26-.27-2.85-2.28-4.52-4.58-5.84-3.39-1.95-6-1.79-8.61.46a8.46,8.46,0,0,0-2.54,9.16,18.87,18.87,0,0,0,6.76,9.12,10.26,10.26,0,0,1,4.66,8.35c.08,2.17-2.2,4.29-4.73,4.45s-4-1.11-4.27-3.59a6.8,6.8,0,0,0-.15-1.18c-.36-1.46-1.26-2.39-2.81-2.23a2.46,2.46,0,0,0-2.35,2.72c.05,2.75.81,5.4,3.15,7A9.93,9.93,0,0,0,440.31,659.13ZM344.1,49.59A12.39,12.39,0,0,0,348.39,51c2.45.42,4.93.59,7.54.87-.49,1.14-1,2.19-1.39,3.29-.47,1.28-.82,2.85.54,3.58a5,5,0,0,0,3.66.23c4.51-1.64,8.85-7.39,8.67-11.65-.25-6-3.33-10.62-8.36-13.77-2.2-1.38-4.41.13-4.13,2.74a23.09,23.09,0,0,0,1.53,4.85,14.85,14.85,0,0,0,.82,1.67,25.11,25.11,0,0,0-3.81,0,87,87,0,0,0-9.1,1.75,3.23,3.23,0,0,0-2,2.28A3.83,3.83,0,0,0,344.1,49.59Zm13.14,7.28c0-3.61,2.32-5.72,6.71-6.13A13,13,0,0,1,357.24,56.87Zm.95-20.33c2.58,1.78,4.3,4.28,5.91,7.48l-3.75-.85c-.89-2-1.82-4.14-2.76-6.26Zm6.2,10.55c-3.51,2-15.09,1.89-18.85-.23C349.37,44.92,361.42,45.13,364.39,47.09ZM427.94,698.7a7,7,0,0,0-2.52-1.08c-3.17-.57-6.36-1-9.65-1.52.4-.93.89-1.92,1.27-3,.5-1.34.84-2.73-.43-3.86s-2.63-.79-3.91-.13a15.25,15.25,0,0,0-7.78,8.38,11.36,11.36,0,0,0-.58,4.26c.22,4.76,3,8.2,6.16,11.4a7.47,7.47,0,0,0,2.32,1.5c2.13.91,4.09-.28,3.9-2.57a21.89,21.89,0,0,0-1.38-4.9,15.12,15.12,0,0,0-1-1.93,28.57,28.57,0,0,0,4.37,0,55.31,55.31,0,0,0,8.87-1.89C430.1,702.53,430.17,700.21,427.94,698.7Zm-13.66-7.39.62.44L412,696.68l-4.48.9C409.37,694.61,411.29,692.35,414.28,691.31Zm-.84,20.25c-2.57-1.76-4.27-4.27-5.88-7.43.91.18,1.41.26,1.91.37l1.83.46c.87,2,1.81,4.1,2.75,6.22Zm-6.59-10.73a38.52,38.52,0,0,1,19.37,0C423.63,703.13,410.77,703.12,406.85,700.83ZM357.65,689a3.9,3.9,0,0,0-3.41.46c-.64.55-.69,2.15-.52,3.21a19.12,19.12,0,0,0,1.48,3.81,18.8,18.8,0,0,0-2.85,0,60.74,60.74,0,0,0-8.33,1.64,4.52,4.52,0,0,0-2.53,2.88c-.35,1.6,1.28,2.26,2.61,2.75a10.54,10.54,0,0,0,2.29.68c3.26.41,6.53.76,9.83,1.14-.65,1.57-1.46,3.17-2,4.86-.45,1.49-.49,3.11,1.06,4.11a3.06,3.06,0,0,0,4-.64,40,40,0,0,0,5.32-6.33C369.84,699.45,364,691.75,357.65,689Zm-.23,22.52-.62-.36,2.73-6.22,3.75-.88A18.15,18.15,0,0,1,357.42,711.54Zm-12.5-10.12c3.66-2.29,15.16-2.37,19.14-.15A37.54,37.54,0,0,1,344.92,701.42Zm11.39-10.15c3.26,1,5.1,3.34,6.93,6.12C358.34,697.44,356.8,694.43,356.31,691.27Zm-183.74-351a42.74,42.74,0,0,0,7,5.66c8.1,4.79,15.84-1.85,18-7.7a3.51,3.51,0,0,0-.54-3.05,3.91,3.91,0,0,0-3-.6,18.34,18.34,0,0,0-3.75,1.43c-.33-2.74-.55-5.37-1-8a10.69,10.69,0,0,0-1.36-3.88,3.65,3.65,0,0,0-2.56-1.71c-.85,0-1.8,1.12-2.39,2a6.56,6.56,0,0,0-.94,2.8c-.45,3.3-.8,6.62-1.18,9.92-1.52-.62-3.17-1.44-4.91-2-1.49-.45-3.11-.46-4.08,1.1A3.07,3.07,0,0,0,172.57,340.22Zm22.65-3c-1,3.31-3.41,5-6.1,7C189.08,339.35,191.72,337.81,195.22,337.18Zm-10.11-11.36c2.19,2.25,2.47,14.66.33,18.76C183.51,340.88,183.36,329.59,185.11,325.82Zm-3.57,14.56c.29,1.25.53,2.32.79,3.45a13.53,13.53,0,0,1-7.57-6.34Zm.79,66c.33,1.74.82,4,3.23,3.88,2.23-.09,2.94-2.11,3.3-3.93.63-3.16,1-6.37,1.55-9.7a14.91,14.91,0,0,0,3.42,1.37c1.06.16,2.66.1,3.2-.55a3.88,3.88,0,0,0,.44-3.4,14.37,14.37,0,0,0-9.51-8.59c-4.19-1.17-7.85.34-11.06,2.85a22.76,22.76,0,0,0-5,5.25c-1.35,2.07.15,4.19,2.66,4.05a13.55,13.55,0,0,0,3.61-.9,22.3,22.3,0,0,0,2.59-1.29C181.28,399.15,181.64,402.8,182.33,406.4Zm13-10.91c-4.07-.9-6.22-2.4-6.22-6.89A12.93,12.93,0,0,1,195.34,395.49Zm-9.67-7.76a37.88,37.88,0,0,1,0,19.35C183.36,404.47,183.38,391.61,185.67,387.73Zm-10.38,7.2c-.19-.31-.38-.62-.58-.93l7.07-5.63.54.42c-.23,1-.46,2.08-.74,3.37Zm292.8,249.53c3.12-.49,6.25-1,9.29-1.77a3.23,3.23,0,0,0,2-2.29,3.86,3.86,0,0,0-1.78-2.71,12.39,12.39,0,0,0-4.29-1.41c-2.45-.41-4.93-.58-7.5-.87a37.15,37.15,0,0,0,1.52-3.86c.73-2.66-1.06-4.47-3.62-3.51a16.38,16.38,0,0,0-4.67,2.88c-7.38,6.25-5.2,19.29,3.77,23l.18.08c2.06.74,4-.39,3.79-2.56a23.28,23.28,0,0,0-1.43-5.07,13,13,0,0,0-.95-1.84A25.91,25.91,0,0,0,468.09,644.46Zm-3.35-14.14c-1.2,4.68-2.67,6.18-6.93,6.21A13,13,0,0,1,464.74,630.32Zm-6.91,13,3.57.8c.93,2.11,1.84,4.19,2.87,6.55C461.83,649.91,459.21,646.82,457.83,643.3Zm-.43-3c2.88-2.11,15.27-2,18.64.09C473.07,642.3,461,642.24,457.4,640.3ZM589.56,331.79a31.44,31.44,0,0,0-1-5.45c-.49-1.72-.78-3.8-3.16-4.06-1.47-.16-2.88,1.35-3.45,4-.66,3.14-1,6.35-1.53,9.62a32.77,32.77,0,0,0-3.86-1.51c-2.54-.65-4.31,1.15-3.39,3.61a17,17,0,0,0,2.86,4.68c6.23,7.42,19.25,5.3,23-3.68a4.25,4.25,0,0,0,.21-.56,2.55,2.55,0,0,0-2.42-3.48,12.87,12.87,0,0,0-3.83.78,33,33,0,0,0-3.39,1.59C589.59,335.33,589.72,333.55,589.56,331.79Zm-13.92,5.67.4-.62,5,2.82.94,4.59C579,342.32,576.71,340.41,575.64,337.46Zm9.53,7.41a38,38,0,0,1,.06-19.36C587.49,328.22,587.46,341.09,585.17,344.87Zm10.36-7.2.62.91-7,5.64-.58-.41c.23-1,.46-2.05.74-3.36ZM414.51,59.3c2.5.84,4.25-.91,3.58-3.47a41.41,41.41,0,0,0-1.65-4.23,18.39,18.39,0,0,0,3,0,63.47,63.47,0,0,0,8.5-1.78,3.86,3.86,0,0,0,2.15-2.86c0-.82-1.34-2-2.34-2.48A15.94,15.94,0,0,0,423,43.19c-2.52-.32-5.07-.38-7.59-.55.71-1.75,1.51-3.42,2-5.17.43-1.43.41-3-1.05-3.93a3,3,0,0,0-4,.6,41.43,41.43,0,0,0-5.89,7.37C401.87,49.69,408.93,57.41,414.51,59.3ZM415,36.41l-2.9,6.74-3.29.78C409,41.67,412.11,37.73,415,36.41ZM426.7,46.72c-2.28,2.2-14.66,2.47-18.76.33C411.63,45.12,423,45,426.7,46.72Zm-11.37,9.79c-2.17,0-4.5-1.95-6.8-5.76C412.83,50.78,414.3,52.41,415.33,56.51Zm176,330.24c-8.06-4.78-15.75,1.65-18,7.62a3.39,3.39,0,0,0,.48,3,4.3,4.3,0,0,0,3.2.63,17.36,17.36,0,0,0,3.73-1.47c.06.53.08.91.14,1.29.51,3.25.9,6.52,1.6,9.73a3.09,3.09,0,0,0,3,2.73c1.69,0,2.26-1.39,2.75-2.72a9.84,9.84,0,0,0,.63-2.09c.43-3.32.79-6.65,1.19-10,1.56.65,3.16,1.45,4.84,2,1.49.44,3.1.49,4.11-1.05a3,3,0,0,0-.63-4A42.14,42.14,0,0,0,591.31,386.75Zm-15.78,8.7c1.19-3.27,3.44-5.17,6.07-6.87C581.84,392.51,580.29,394.43,575.53,395.45Zm10.19,11.36c-2.19-2.47-2.43-14.89-.29-18.79C587.35,391.87,587.47,403.17,585.72,406.81Zm3.51-14.88c-.23-1-.46-2.05-.69-3.06l.45-.48,7.33,5.65C594.55,394.75,593,394.23,589.23,391.93Zm-290,261a3.11,3.11,0,0,0,4.16-.72,41.81,41.81,0,0,0,5.73-7.25c4.58-8.1-2.36-15.86-8-17.79-2.5-.85-4.26.91-3.59,3.46a38,38,0,0,0,1.65,4.24,17.66,17.66,0,0,0-3.2,0c-3,.62-6.17,1-9,2.19-2.51,1-2.25,3.64.31,4.73a20.44,20.44,0,0,0,5.14,1.42c2.58.36,5.2.41,7.82.6-.69,1.62-1.48,3.15-2,4.77S297.61,651.87,299.22,653Zm2.48-2.8-.91-.54c.87-2.08,1.75-4.15,2.63-6.24l3.35-.81.53.52Q304.51,646.62,301.7,650.15Zm5.35-14.39c-4.43,0-5.88-2-6.77-5.81C302.52,630.05,304.9,632.06,307.05,635.76ZM288.49,640c3.26-2.45,15.6-2.61,19.41-.3C301.33,641.49,295.11,641.29,288.49,640ZM186.4,51.53c1.76,2.12,3.63,4.17,5.46,6.25-1.63.69-3.37,1.31-5,2.16-1.4.74-2.48,1.9-2.07,3.68a3,3,0,0,0,3.32,2.3,43.31,43.31,0,0,0,9-1.07c8.93-2.37,9.79-12.42,7.1-18.25-1.16-2.49-3.7-2.52-5.07-.13a28.72,28.72,0,0,0-1.59,3.75c-2.81-2-5.6-4-8.52-5.94-1.41-.91-3.2-1.46-4.62-.15s-.5,3.08.23,4.54A15.09,15.09,0,0,0,186.4,51.53Zm1.72,10.68,6.44-2.59,3,1.9C195,63,190.66,63.5,188.12,62.21Zm13.72-14.72c1.54,3.16,1.29,6.17.67,9.28C199.46,53.85,199.2,50.9,201.84,47.49Zm-1.65,12.24c-6-2.84-10.28-7.4-13.61-13A30,30,0,0,1,200.19,59.73ZM584.83,696c-1.61-2-3.41-3.83-5.07-5.66,1.71-.75,3.55-1.43,5.27-2.36a3.1,3.1,0,0,0,1.85-3.42,2.88,2.88,0,0,0-3-2.35,32.13,32.13,0,0,0-8.4.8,15.18,15.18,0,0,0-6.36,3.64c-3.28,3.23-3.94,10.75-1.62,14.74a3.76,3.76,0,0,0,2.53,1.8,3.83,3.83,0,0,0,2.58-1.68,21.48,21.48,0,0,0,1.7-4,26.65,26.65,0,0,0,2.44,2.21,47.69,47.69,0,0,0,6.61,4.31,4.78,4.78,0,0,0,4-.22c1.36-.86.69-2.53,0-3.78A25.59,25.59,0,0,0,584.83,696ZM584,685.68l-6.9,2.82L574,686.56C577,685.06,581.25,684.6,584,685.68Zm-14.2,14.84c-1.5-3-1.26-6-.67-9.13C572.29,693.94,572.43,696.88,569.78,700.52Zm1.68-12.15a31.74,31.74,0,0,1,13.6,13A30,30,0,0,1,571.46,688.37ZM585.67,65.63c2.34-.91,3-3.31,1-4.81a40,40,0,0,0-5.8-3.11,32.85,32.85,0,0,0,2.43-2.82A68.93,68.93,0,0,0,588.47,47c1.13-2.19-.32-3.8-2.79-3.44a7.42,7.42,0,0,0-2.94,1.09c-2.66,1.81-5.22,3.76-7.83,5.66a15.56,15.56,0,0,0-1.4-3.48c-.61-.88-1.79-2-2.64-1.92A3.9,3.9,0,0,0,568.14,47a14.14,14.14,0,0,0,.63,13C571.46,64.56,580.69,67.58,585.67,65.63Zm-1.29-3.36c-.06.21-.12.41-.19.62-3.2.63-6.25-.12-9.64-1.17l3.31-2.11Zm1.47-15.56a31.71,31.71,0,0,1-13.59,13A30.11,30.11,0,0,1,585.85,46.71Zm-15.14,1c2.18,3.19,2.67,5.79-.75,9.14C569.13,51.94,569.32,49.78,570.71,47.74ZM201.41,686.19c-3.93-3.62-8.83-4.48-14-4.05-1.55.13-3.07.61-3.43,2.45s.78,2.9,2.18,3.62c1.62.83,3.35,1.44,5.13,2.19-.44.41-.88.8-1.3,1.2-2.84,2.72-5.43,5.63-6.83,9.38-.92,2.45.32,4,2.91,3.55a7.43,7.43,0,0,0,2.92-1.12c2.61-1.78,5.12-3.7,7.74-5.62a15.75,15.75,0,0,0,1.46,3.58c.61.86,1.79,1.85,2.69,1.82a3.54,3.54,0,0,0,2.57-2,19,19,0,0,0,1.21-6C204.78,691.87,204,688.56,201.41,686.19Zm-14.1-.3.18-.69c3.16-.61,6.2.18,9.68,1.15l-3.37,2.13Zm-1.63,15.39A37.1,37.1,0,0,1,199.25,688C199.15,691.41,190.27,700.18,185.68,701.28Zm15.39-.75c-2.1-2.82-3-5.86.6-9.3C202.38,694.44,202.56,697.46,201.07,700.53ZM378.42,57.33a2.74,2.74,0,0,0,2.3.41c.43-.16.76-1.31.69-2-.35-3.45,1.1-5.92,4.54-7.3,3.85,1.09,5.39,3.47,5,7.45a2.24,2.24,0,0,0,.72,1.83,2.69,2.69,0,0,0,2-.14A4.08,4.08,0,0,0,395,56.43,11.45,11.45,0,0,0,384.2,37.77a11.57,11.57,0,0,0-9.43,10A10.6,10.6,0,0,0,378.42,57.33Zm3.44-14.68c2.89-2,6-1.88,9,.32A6.86,6.86,0,0,1,393.49,51c-1.53-3.17-3.61-5.84-7.17-5.78s-5.89,2.37-7.36,6C378,47.49,379.08,44.58,381.86,42.65Zm11.51,648.24a3.15,3.15,0,0,0-2.46-.5c-.4.11-.69,1.43-.61,2.15.36,3.38-1.45,6-5.12,7.1-3.53-1.38-4.84-3.67-4.51-7.46a2.24,2.24,0,0,0-.73-1.82,2.06,2.06,0,0,0-2,.16,13.36,13.36,0,0,0-2.86,3.48,11.27,11.27,0,0,0,6.17,15.7,11.43,11.43,0,0,0,15.14-7.21C397.74,698.37,396.49,693.36,393.37,690.89Zm-3.65,14.5A7.52,7.52,0,0,1,378.19,697c1.38,3.48,3.76,5.79,7.19,5.9,3.6.12,5.77-2.49,7.33-5.91C393.68,700.72,392.64,703.42,389.72,705.39ZM576.57,371.07a2.25,2.25,0,0,0-1.83.68c-.3.47-.08,1.36.1,2,.11.4.55.72.88,1a11.46,11.46,0,0,0,16.11-16.28c-4.47-4.89-12.54-5-16.55-.19a3.13,3.13,0,0,0-.56,2.45c.11.4,1.42.74,2.14.66,3.19-.33,5.74,1.21,7.13,4.57C583,369.84,580.5,371.44,576.57,371.07Zm5.1-11.95c2.25-1.14,5.28-.37,7.37,1.85a7.27,7.27,0,0,1,1,9.12c-2,3.28-4.78,4.5-8.61,3.54C589.72,369.44,588.39,362.4,581.67,359.12ZM194.36,361.6c1.18.12,2.1-.31,2-1.53a4,4,0,0,0-1.18-2.17,11.14,11.14,0,0,0-12-2.32c-4.31,1.74-7.55,6.3-7.35,10.87a11.38,11.38,0,0,0,7.06,10.43c4.35,2,10,.79,12.69-2.67a3.32,3.32,0,0,0,.47-2.47c-.08-.34-1.33-.69-2-.61-3.61.4-6.19-1.34-7.24-5.11C188.3,362.48,190.49,361.21,194.36,361.6Zm-5.16,11.91a6.46,6.46,0,0,1-7.26-1.79c-2.62-3-3-6.43-1.1-9.47a7.2,7.2,0,0,1,8.53-3.24C181.68,363.47,181.68,369.11,189.2,373.51Zm293-247.22c-.35-3.71-1.12-7.39-1.71-11.08l-.57,0c-.63,3.71-1.46,7.39-1.83,11.13a6.5,6.5,0,0,1-4.65,5.8c-1.54.58-3.17.92-4.75,1.38-.37.1-.72.28-1.3.5,2,.57,3.6,1,5.23,1.55,3.19,1.06,5.44,2.91,5.53,6.62a23.5,23.5,0,0,0,.51,3.33q.64,3.71,1.31,7.41l.5,0c.57-3.57,1.39-7.12,1.65-10.71s2.31-5.45,5.39-6.55c1.68-.6,3.42-1,5.4-1.64-2.3-.72-4.34-1.23-6.28-2A6.37,6.37,0,0,1,482.15,126.29ZM407.74,532.48c1.6-.57,3.27-.94,5.21-1.48-2.38-.78-4.42-1.33-6.36-2.12-2.57-1-4.22-2.81-4.32-5.83a43.17,43.17,0,0,0-.81-5.5c-.31-1.85-.64-3.7-1-5.55H400c-.64,3.81-1.45,7.6-1.87,11.43a6.05,6.05,0,0,1-4.08,5.35c-2.05.84-4.2,1.44-6.5,2.2,1.9.55,3.69,1,5.41,1.58,2.91,1,4.93,2.76,5.25,6.23.33,3.7,1.17,7.35,1.78,11a1.49,1.49,0,0,0,.75-1.06,92.93,92.93,0,0,0,1.46-9.61C402.42,535.39,404.61,533.6,407.74,532.48ZM268.85,363.31a29.29,29.29,0,0,0,.66,4.11c.39,2.31.79,4.61,1.19,6.92h.48c.61-3.69,1.39-7.37,1.76-11.09.32-3.16,2.05-4.91,4.78-5.93,1.87-.7,3.81-1.22,5.9-1.87-2.31-.74-4.47-1.3-6.52-2.12s-3.56-2.06-3.92-4.37q-.82-5.19-1.64-10.38c-.1-.64-.27-1.27-.41-1.91l-.5.06c-.53,3.25-1.29,6.48-1.51,9.75-.32,4.49-2.76,6.78-6.85,7.8-1.31.32-2.61.67-4.3,1.11,2.24.68,4.07,1.16,5.84,1.8C266.67,358.21,268.75,359.91,268.85,363.31ZM383.48,234.63a9.64,9.64,0,0,0-1.08,3.84c-.19,2.38-1.28,3.94-3.67,4.49-.49.11-1,.31-1.51.49.24.16.38.34.56.37,3.28.5,4.69,2.48,4.72,5.72a13.23,13.23,0,0,0,.62,2.85c.7-2,.56-4.23,1.48-5.83s2.83-2.28,4.21-3.31c-3.09-.28-4.78-2.13-4.85-5.52A21.93,21.93,0,0,0,383.48,234.63Zm134,334.9a27.44,27.44,0,0,0-.81-4.46,3.42,3.42,0,0,0-.46.71c-.11.51-.18,1-.24,1.56-.39,3.35-1,6.56-5.44,6.78,5.64,2.34,4.22,1.52,5.43,7,.08.39,0,.81.12,1.18a7,7,0,0,0,.6,1.19c1-3.81-.22-8.78,6-9.13a6.35,6.35,0,0,0-1.33-.55C519.15,573.2,517.51,572.18,517.47,569.53ZM299.65,131.44c.1,1.33.4,2.64.61,3.95,1.27-3.59.37-8.36,6.34-8.7a5.91,5.91,0,0,0-1.44-.59c-2.26-.6-3.74-1.77-3.78-4.37a25.94,25.94,0,0,0-.65-4,13.76,13.76,0,0,0-1.26,4.73,3.7,3.7,0,0,1-2.73,3.27c-.67.26-1.36.47-2.43.83.78.27,1.14.44,1.52.52A4.3,4.3,0,0,1,299.65,131.44ZM588,434.53c-1.51.09-2.06,1.19-2.09,2.6s.93,2.2,2.1,2c.91-.19,1.65-1.19,2.46-1.82C590.09,435.41,589.47,434.45,588,434.53Zm-405.15,4.61c1.24,0,2.12-.62,2-2.74a2,2,0,0,0-2.11-1.87c-1.46,0-2.06.93-2.06,2.31A2,2,0,0,0,182.86,439.14Zm1.18-14a2.49,2.49,0,0,0-2.4-.11,3.53,3.53,0,0,0-.57,2.78c.46,1.55,1.85,1.36,3.28,1C185.24,427.4,185.14,426.06,184,425.15Zm405.83.33c-1-1-2.16-1.38-3.15-.31a2.43,2.43,0,0,0-.06,3.64C589.54,429.3,590.26,428.57,589.87,425.48ZM184.87,313c1-.93,1.22-2.27.16-3.69-1.35-.27-2.76-.5-3.19,1.08a3.51,3.51,0,0,0,.63,2.76C182.79,313.54,184.36,313.44,184.87,313Zm402.86.1c.66.46,1.91.09,2.78.09.67-3.49-.15-4.36-3.18-3.79C586.36,310.82,586.47,312.24,587.73,313.1Zm.34,131.81a2.74,2.74,0,0,0-2,1.59c-.49,1.41.41,2.33,2,2.71,1.47-.35,2.46-1.17,2-2.63A2.78,2.78,0,0,0,588.07,444.91ZM184.8,446.44a2.73,2.73,0,0,0-2.07-1.53,2.78,2.78,0,0,0-1.92,1.72c-.41,1.47.58,2.28,2,2.55C184.36,448.89,185.3,448,184.8,446.44Zm253.93,256.2a2,2,0,0,0-2,2.42c.12.79,1,1.46,1.35,1.86,2.12,0,2.72-.93,2.72-2.17A1.9,1.9,0,0,0,438.73,702.64Zm-106.65,0a1.89,1.89,0,0,0-2,2.15c0,1.25.62,2.15,2.77,2.09.29-.38,1.19-1.07,1.3-1.86A2,2,0,0,0,332.08,702.64ZM439.56,45.47a1.89,1.89,0,0,0,2.05-2.15c0-1.24-.61-2.15-2.77-2.1-.29.39-1.2,1.07-1.31,1.87A2,2,0,0,0,439.56,45.47Zm-106.72,0a2,2,0,0,0,2.06-2.34c-.1-.79-1-1.5-1.51-2.24-1.89.28-2.53,1.14-2.56,2.4A1.89,1.89,0,0,0,332.84,45.46Zm-110.06.27.9,0c.52-.78,1.39-1.53,1.48-2.36a1.79,1.79,0,0,0-2.09-2c-1.35.07-2.2.95-1.93,2.21C221.31,44.31,222.21,45,222.78,45.73ZM488.93,702.8a1.68,1.68,0,0,0-2.06,2,2.82,2.82,0,0,0,1.92,1.92c.8,0,1.66-.94,2.48-1.48v-.92C490.49,703.78,489.78,703,488.93,702.8Zm9.9,0a1.68,1.68,0,0,0-2,2,2.84,2.84,0,0,0,2,1.88c.8,0,1.63-1,2.45-1.53l0-.91C500.41,703.75,499.68,702.93,498.83,702.8ZM252.46,45.7l.94,0c.55-.82,1.56-1.66,1.52-2.45s-1.14-1.75-1.94-1.92a1.69,1.69,0,0,0-2,2C251.07,44.21,251.93,44.93,252.46,45.7Zm9.83,0,1,0c.59-.78,1.62-1.56,1.62-2.35a2.9,2.9,0,0,0-1.79-2,1.69,1.69,0,0,0-2.19,1.82C261,44,261.8,44.85,262.29,45.68Zm10.07,0h.95c.55-.82,1.54-1.65,1.5-2.44a2.89,2.89,0,0,0-1.9-1.92,1.67,1.67,0,0,0-2.08,1.92C270.94,44.14,271.83,44.9,272.36,45.71Zm9.91,0h1c.55-.81,1.56-1.65,1.52-2.44s-1.14-1.75-1.94-1.92a1.69,1.69,0,0,0-2,2C280.89,44.2,281.74,44.93,282.27,45.7ZM508.61,702.37c-.65.73-1.75,1.42-1.82,2.21a2.91,2.91,0,0,0,1.61,2.17,1.7,1.7,0,0,0,2.33-1.65c0-.87-.77-1.75-1.19-2.62ZM302.16,45.7h.95c.55-.82,1.55-1.67,1.5-2.45a2.9,2.9,0,0,0-1.94-1.91,1.69,1.69,0,0,0-2,2C300.77,44.22,301.63,44.94,302.16,45.7Zm227,656.72-1,0c-.57.79-1.59,1.59-1.58,2.37a2.91,2.91,0,0,0,1.83,2,1.68,1.68,0,0,0,2.15-1.85C530.55,704,529.7,703.25,529.19,702.42Zm9.31.39a2.94,2.94,0,0,0-1.91,1.93c-.05.77.94,1.62,1.47,2.43h1c.55-.81,1.44-1.57,1.56-2.44A1.65,1.65,0,0,0,538.5,702.81ZM449.39,45.69l.9,0c.57-.74,1.46-1.42,1.63-2.25.25-1.26-.6-2.13-1.95-2.19a1.8,1.8,0,0,0-2.08,2.07C448,44.18,448.87,44.91,449.39,45.69Zm11,0c.52-.78,1.38-1.51,1.49-2.34a1.69,1.69,0,0,0-2.05-2c-.79.18-1.89,1.23-1.92,1.93s1,1.62,1.53,2.43Zm19.75,0c.57-.75,1.46-1.44,1.62-2.26a1.7,1.7,0,0,0-2-2.11,2.88,2.88,0,0,0-2,1.84c-.08.78.9,1.67,1.41,2.51Zm10.16,0c.49-.84,1.33-1.66,1.39-2.53a1.68,1.68,0,0,0-2.19-1.81,2.91,2.91,0,0,0-1.79,2c0,.78,1,1.56,1.63,2.34Zm9.89,0c.51-.83,1.36-1.62,1.44-2.49a1.68,1.68,0,0,0-2.15-1.85,2.89,2.89,0,0,0-1.83,2c0,.79,1,1.59,1.58,2.38Zm8.86,0,.9,0c.56-.74,1.46-1.42,1.62-2.25.25-1.27-.6-2.13-1.95-2.19a1.8,1.8,0,0,0-2.08,2.07C507.62,44.18,508.5,44.92,509,45.7Zm77,490.79a2.86,2.86,0,0,0,2,1.87c.78,0,1.61-1,2.41-1.5v-1c-.82-.54-1.59-1.43-2.45-1.53A1.69,1.69,0,0,0,586,536.49ZM539.86,45.7c.53-.77,1.39-1.49,1.51-2.32a1.69,1.69,0,0,0-2-2,2.9,2.9,0,0,0-1.94,1.91c0,.79,1,1.63,1.51,2.45ZM185.61,82.48a2.89,2.89,0,0,0-1.89-1.94c-.77-.07-1.64.89-2.46,1.41l0,1c.8.57,1.54,1.49,2.4,1.62A1.69,1.69,0,0,0,185.61,82.48Zm401.16-.16a1.84,1.84,0,0,0,1.91,2.22c.83,0,1.63-.82,2.44-1.27,0-.3.08-.6.11-.9-.72-.65-1.36-1.64-2.2-1.86A1.77,1.77,0,0,0,586.77,82.32ZM183.62,90.48c-.78,0-1.59,1-2.39,1.54,0,.32,0,.64,0,1,.83.53,1.62,1.41,2.48,1.49a1.69,1.69,0,0,0,1.88-2.15A2.91,2.91,0,0,0,183.62,90.48Zm403.22,1.87a1.68,1.68,0,0,0,1.9,2.12c.86-.1,1.64-1,2.45-1.52,0-.32,0-.65,0-1-.8-.54-1.63-1.54-2.41-1.51A2.9,2.9,0,0,0,586.84,92.35Zm-401.23,10a2.91,2.91,0,0,0-1.89-2c-.78-.06-1.64.91-2.47,1.42,0,.32,0,.64,0,1,.8.57,1.54,1.49,2.4,1.62A1.69,1.69,0,0,0,185.61,102.36Zm0,9.82a2.91,2.91,0,0,0-2-1.83c-.78,0-1.58,1-2.38,1.56l0,1c.83.52,1.62,1.39,2.48,1.47A1.7,1.7,0,0,0,185.61,112.18Zm405.58-.41c-.83-.52-1.69-1.48-2.47-1.42a2.93,2.93,0,0,0-1.89,2,1.69,1.69,0,0,0,2,2c.86-.13,1.6-1,2.4-1.62C591.2,112.41,591.19,112.09,591.19,111.77Zm-2.5,22.45c.86-.07,1.66-.94,2.49-1.45l0-1c-.79-.57-1.59-1.58-2.37-1.56a2.88,2.88,0,0,0-2,1.81A1.69,1.69,0,0,0,588.69,134.22Zm-405,5.95c-.78,0-1.61,1-2.41,1.51,0,.32,0,.64,0,1,.81.54,1.59,1.43,2.45,1.52a1.69,1.69,0,0,0,1.91-2.12A2.94,2.94,0,0,0,183.65,140.17Zm405.12,4c.86-.1,1.62-1,2.43-1.56v-1c-.82-.53-1.66-1.51-2.44-1.47a2.94,2.94,0,0,0-1.93,1.9A1.69,1.69,0,0,0,588.77,144.16ZM185.61,162a2.89,2.89,0,0,0-1.89-1.94c-.77-.07-1.64.89-2.46,1.41l0,1c.8.57,1.54,1.49,2.4,1.62A1.69,1.69,0,0,0,185.61,162Zm405.57-.57c-.84-.5-1.72-1.45-2.49-1.37a2.92,2.92,0,0,0-1.86,2,1.69,1.69,0,0,0,2,2c.85-.14,1.58-1.08,2.36-1.66Zm-405.57,10.4a2.9,2.9,0,0,0-2-1.83c-.78,0-1.59,1-2.39,1.54l0,1c.83.52,1.62,1.4,2.48,1.48A1.7,1.7,0,0,0,185.61,171.82ZM588.72,170a2.91,2.91,0,0,0-1.89,1.94,1.69,1.69,0,0,0,2,2c.86-.13,1.6-1,2.4-1.62l0-1C590.36,170.89,589.5,169.92,588.72,170ZM586,456.91a2.88,2.88,0,0,0,1.88,1.94c.78.07,1.64-.89,2.47-1.41,0-.32,0-.64,0-1-.79-.57-1.53-1.49-2.39-1.62A1.68,1.68,0,0,0,586,456.91Zm-401.23,10a1.69,1.69,0,0,0-1.89-2.13c-.86.09-1.64,1-2.46,1.51l0,1c.81.56,1.63,1.56,2.4,1.53A2.91,2.91,0,0,0,184.81,466.93ZM586,466.84a2.88,2.88,0,0,0,1.87,2c.78.08,1.65-.88,2.48-1.39l0-1c-.79-.57-1.52-1.5-2.38-1.63A1.68,1.68,0,0,0,586,466.84ZM182.82,478.73a2.9,2.9,0,0,0,2-1.83,1.69,1.69,0,0,0-1.86-2.16c-.87.08-1.66.95-2.48,1.47l0,1C181.23,477.74,182,478.75,182.82,478.73Zm405.09-4A1.69,1.69,0,0,0,586,476.9a2.9,2.9,0,0,0,2,1.83c.78,0,1.59-1,2.38-1.55l0-1C589.56,475.69,588.77,474.81,587.91,474.74ZM183,484.68c-.86.06-1.67.93-2.5,1.44,0,.32,0,.64,0,1,.79.57,1.58,1.6,2.36,1.59a2.93,2.93,0,0,0,2-1.81A1.7,1.7,0,0,0,183,484.68Zm-.07,9.94c-.86.09-1.63,1-2.45,1.52v1c.8.54,1.63,1.54,2.41,1.5a2.88,2.88,0,0,0,1.95-1.87A1.69,1.69,0,0,0,182.9,494.62ZM591.18,270.75c-.84-.5-1.72-1.46-2.49-1.38a2.94,2.94,0,0,0-1.86,2,1.69,1.69,0,0,0,2,2c.85-.14,1.58-1.08,2.36-1.66Zm-407.53-1.38c-.78,0-1.6,1-2.41,1.51,0,.33,0,.65,0,1,.82.53,1.59,1.43,2.45,1.52a1.69,1.69,0,0,0,1.91-2.13A2.94,2.94,0,0,0,183.65,269.37ZM586,506.68a2.88,2.88,0,0,0,2,1.86c.77,0,1.6-1,2.41-1.5,0-.32,0-.64,0-1-.82-.54-1.59-1.43-2.46-1.52A1.68,1.68,0,0,0,586,506.68ZM180.47,517.12c.83.5,1.72,1.45,2.49,1.37a2.9,2.9,0,0,0,1.85-2,1.69,1.69,0,0,0-2-2c-.86.15-1.58,1.08-2.37,1.67C180.45,516.48,180.46,516.8,180.47,517.12Zm3.22-257.68c-.78-.06-1.63.92-2.44,1.45,0,.32,0,.64,0,1,.8.56,1.56,1.46,2.42,1.58a1.69,1.69,0,0,0,2-2.08A2.88,2.88,0,0,0,183.69,259.44Zm-.83,269a1.67,1.67,0,0,0,2-2.05c-.19-.88-1.09-1.61-1.67-2.4l-.92.05c-.48.85-1.4,1.74-1.33,2.53A2.86,2.86,0,0,0,182.86,528.47ZM590.4,526c-.82-.54-1.59-1.43-2.45-1.53a1.69,1.69,0,0,0-1.91,2.12,2.9,2.9,0,0,0,2,1.88c.78,0,1.61-1,2.41-1.5ZM182.83,558.24a2.88,2.88,0,0,0,2-1.84,1.69,1.69,0,0,0-1.87-2.15c-.87.08-1.66,1-2.48,1.48,0,.33,0,.65,0,1C181.24,557.26,182.05,558.27,182.83,558.24Zm2-11.79a1.69,1.69,0,0,0-1.89-2.14c-.86.09-1.64,1-2.46,1.51l0,1c.81.56,1.63,1.56,2.4,1.53A2.92,2.92,0,0,0,184.81,546.45Zm401.23,0a2.93,2.93,0,0,0,2,1.84c.78,0,1.59-1,2.38-1.55,0-.32,0-.64,0-1-.82-.52-1.61-1.4-2.48-1.48A1.69,1.69,0,0,0,586,546.47Zm0,9.81a2.91,2.91,0,0,0,1.86,2c.78.08,1.65-.88,2.48-1.39l0-1c-.78-.57-1.51-1.51-2.37-1.64A1.68,1.68,0,0,0,586,556.28ZM183,564.19c-.87.08-1.66.95-2.49,1.47,0,.32,0,.65,0,1,.79.56,1.6,1.58,2.38,1.56a2.91,2.91,0,0,0,2-1.84A1.69,1.69,0,0,0,183,564.19Zm405.87-310.7c.86-.13,1.6-1.06,2.39-1.63,0-.32,0-.64,0-1-.83-.51-1.7-1.48-2.48-1.4a2.89,2.89,0,0,0-1.88,1.95A1.68,1.68,0,0,0,588.82,253.49Zm-404,322.72a1.68,1.68,0,0,0-1.94-2.08c-.86.11-1.62,1-2.42,1.57v1c.82.53,1.66,1.51,2.44,1.46A2.88,2.88,0,0,0,184.81,576.21ZM586,586.14a2.89,2.89,0,0,0,1.91,1.92c.78.05,1.63-.92,2.45-1.45v-1c-.8-.56-1.56-1.47-2.42-1.58A1.68,1.68,0,0,0,586,586.14ZM182.9,594c-.86.09-1.63,1-2.45,1.52v1c.8.54,1.63,1.54,2.41,1.5a2.88,2.88,0,0,0,1.95-1.88A1.68,1.68,0,0,0,182.9,594Zm-.08,9.93c-.86.13-1.59,1.06-2.38,1.63l0,1c.83.51,1.7,1.47,2.48,1.4a2.88,2.88,0,0,0,1.87-2A1.68,1.68,0,0,0,182.82,603.94Zm405.2,0a1.69,1.69,0,0,0-2,2,2.89,2.89,0,0,0,1.88,2c.78.07,1.64-.9,2.47-1.42l0-1C589.62,605,588.88,604.07,588,603.94Zm0,13.94c.78,0,1.62-.94,2.43-1.48v-1c-.8-.55-1.57-1.45-2.43-1.56A1.69,1.69,0,0,0,586,616,2.92,2.92,0,0,0,588,617.88Zm-1.14-316.8a1.7,1.7,0,0,0,1.92,2.11c.87-.11,1.64-1,2.45-1.55v-1c-.81-.54-1.65-1.53-2.42-1.48A2.9,2.9,0,0,0,586.83,301.08Zm-401.22.09a2.92,2.92,0,0,0-1.86-2c-.77-.08-1.65.88-2.49,1.38l0,1c.78.58,1.51,1.51,2.37,1.66A1.69,1.69,0,0,0,185.61,301.17Zm-2-47.68a1.69,1.69,0,0,0,2-2,2.9,2.9,0,0,0-1.86-2c-.77-.08-1.65.87-2.49,1.37l0,1C182,252.42,182.74,253.35,183.59,253.49Zm405.19-9.94c.86-.11,1.62-1,2.42-1.57,0-.33,0-.65,0-1-.82-.53-1.66-1.5-2.44-1.45a2.93,2.93,0,0,0-1.92,1.91A1.69,1.69,0,0,0,588.78,243.55ZM182.91,623.82c-.87.09-1.64,1-2.46,1.52v1c.8.55,1.63,1.54,2.4,1.51a2.91,2.91,0,0,0,2-1.88A1.68,1.68,0,0,0,182.91,623.82Zm405,4c.77,0,1.63-.92,2.45-1.45v-1c-.8-.56-1.55-1.47-2.42-1.59a1.68,1.68,0,0,0-2,2.07A2.92,2.92,0,0,0,588,627.82ZM181.23,241.94c.8.56,1.54,1.48,2.4,1.61a1.69,1.69,0,0,0,2-2.05,2.89,2.89,0,0,0-1.89-1.94c-.77-.07-1.64.9-2.46,1.41Zm409.95-20.87c-.83-.51-1.71-1.46-2.48-1.38a2.9,2.9,0,0,0-1.87,2,1.69,1.69,0,0,0,2,2c.86-.14,1.59-1.07,2.38-1.65ZM184.82,635.89c-.12-.89-1-1.68-1.5-2.51l-.92,0c-.54.81-1.52,1.64-1.49,2.43a2.83,2.83,0,0,0,1.81,2A1.66,1.66,0,0,0,184.82,635.89Zm403.06-2.13A1.7,1.7,0,0,0,586,636a2.91,2.91,0,0,0,2,1.8c.78,0,1.57-1,2.36-1.58,0-.32,0-.65,0-1C589.55,634.69,588.74,633.82,587.88,633.76ZM185.61,221.52a2.93,2.93,0,0,0-2-1.84c-.78,0-1.59,1-2.39,1.55l0,1c.82.52,1.61,1.39,2.48,1.47A1.69,1.69,0,0,0,185.61,221.52Zm405.56-10.41c-.83-.5-1.72-1.45-2.49-1.37a2.92,2.92,0,0,0-1.85,2,1.69,1.69,0,0,0,2,2c.86-.15,1.58-1.08,2.36-1.67Zm-410.7,435.2c.83.5,1.7,1.46,2.48,1.39a2.9,2.9,0,0,0,1.86-2,1.68,1.68,0,0,0-2-2c-.86.14-1.59,1.07-2.37,1.64Zm2.34,11.36a1.67,1.67,0,0,0,2-2c-.17-.88-1.05-1.63-1.61-2.44l-.93,0c-.5.84-1.44,1.71-1.38,2.5A2.8,2.8,0,0,0,182.81,657.67Zm405.13,5.91a1.69,1.69,0,0,0-1.9,2.12,2.9,2.9,0,0,0,2,1.87c.78,0,1.6-1,2.41-1.51,0-.32,0-.65,0-1C589.58,664.56,588.8,663.67,587.94,663.58Zm.85-374.32a2.9,2.9,0,0,0-2,1.87,1.7,1.7,0,0,0,1.91,2.12c.86-.1,1.64-1,2.45-1.52v-1C590.39,290.21,589.57,289.22,588.79,289.26Zm-.07-99.4a2.93,2.93,0,0,0-1.89,1.95,1.69,1.69,0,0,0,2,2.05c.86-.13,1.6-1.05,2.4-1.62l0-1C590.36,190.76,589.49,189.8,588.72,189.86ZM185.62,192c-.1-.88-1-1.68-1.46-2.52l-.91,0c-.56.8-1.56,1.61-1.55,2.4a2.86,2.86,0,0,0,1.78,2A1.69,1.69,0,0,0,185.62,192Zm-2-8a1.69,1.69,0,0,0,2-2,2.9,2.9,0,0,0-1.87-2c-.77-.08-1.65.88-2.48,1.39l0,1C182,182.85,182.75,183.78,183.61,183.92Zm39.28,518.5-.9,0c-.57.74-1.48,1.41-1.65,2.23-.26,1.27.58,2.14,1.93,2.22a1.8,1.8,0,0,0,2.1-2.05C224.28,704,223.41,703.2,222.89,702.42Zm8.88,0c-.52.77-1.38,1.5-1.5,2.33a1.7,1.7,0,0,0,2,2c.8-.18,1.9-1.23,1.93-1.93s-1-1.62-1.53-2.44Zm29.86,0c-.54.81-1.42,1.57-1.53,2.43a1.67,1.67,0,0,0,2.08,1.93c.78-.19,1.86-1.22,1.89-1.92s-.94-1.62-1.48-2.44Zm9.9,0c-.52.81-1.4,1.59-1.49,2.45a1.67,1.67,0,0,0,2.11,1.9c.78-.21,1.84-1.25,1.86-2s-1-1.61-1.52-2.41Zm20,0c-.56.79-1.46,1.53-1.6,2.39a1.68,1.68,0,0,0,2,2,2.88,2.88,0,0,0,1.93-1.88c.06-.78-.9-1.64-1.42-2.46Zm10.84,0-.89,0c-.56.75-1.46,1.43-1.61,2.26-.24,1.27.62,2.13,2,2.18a1.8,1.8,0,0,0,2.06-2.09C303.78,703.91,302.89,703.18,302.35,702.41Zm9.95,0-.89,0c-.57.75-1.46,1.43-1.62,2.26-.25,1.27.61,2.13,2,2.19a1.8,1.8,0,0,0,2.07-2.08C313.72,703.92,312.84,703.19,312.3,702.41Zm136.89.39a1.69,1.69,0,0,0-2.08,2,2.84,2.84,0,0,0,1.92,1.93c.79.06,1.65-.93,2.49-1.46v-.92C450.75,703.79,450,703,449.19,702.8Zm10.43-.38-1,0c-.57.79-1.59,1.59-1.58,2.37a2.92,2.92,0,0,0,1.82,2,1.68,1.68,0,0,0,2.16-1.85C461,704,460.13,703.24,459.62,702.42ZM232.5,45.69l.95,0c.58-.79,1.61-1.6,1.6-2.39a2.92,2.92,0,0,0-1.88-2,1.69,1.69,0,0,0-2.1,2C231.17,44.15,232,44.9,232.5,45.69Zm10.06,0h.95c.54-.82,1.52-1.66,1.48-2.44s-1.12-1.72-1.9-1.91A1.68,1.68,0,0,0,241,43.29C241.13,44.15,242,44.91,242.56,45.71Zm49.59,0,1,0c.57-.8,1.61-1.62,1.58-2.41s-1.1-1.77-1.89-2a1.69,1.69,0,0,0-2.09,2C290.81,44.16,291.64,44.91,292.15,45.69Zm20,0h.95c.55-.82,1.55-1.66,1.5-2.45a2.9,2.9,0,0,0-1.94-1.91,1.69,1.69,0,0,0-2,2C310.71,44.22,311.57,44.94,312.1,45.7Zm9.91,0H323c.56-.81,1.57-1.64,1.53-2.43s-1.13-1.75-1.92-1.93a1.69,1.69,0,0,0-2.05,2C320.64,44.2,321.49,44.92,322,45.7ZM183,454.86c-.87.07-1.67.95-2.49,1.46l0,1c.79.57,1.59,1.58,2.37,1.57a2.91,2.91,0,0,0,2-1.83A1.69,1.69,0,0,0,183,454.86ZM588.74,154.1c.87-.09,1.64-1,2.46-1.52v-1c-.8-.54-1.63-1.54-2.41-1.5a2.92,2.92,0,0,0-2,1.87A1.69,1.69,0,0,0,588.74,154.1Zm-405.14,0a1.69,1.69,0,0,0,2-2,2.9,2.9,0,0,0-1.86-2c-.77-.08-1.65.87-2.48,1.37,0,.32,0,.64,0,1C182,153,182.74,154,183.6,154.11Zm0,59.63a1.69,1.69,0,0,0,2-2.05,2.88,2.88,0,0,0-1.88-1.94c-.78-.07-1.65.89-2.47,1.4l0,1C182,212.68,182.76,213.61,183.62,213.74Zm405.14-9.94c.86-.11,1.63-1,2.44-1.55v-1c-.81-.54-1.65-1.53-2.43-1.49a2.92,2.92,0,0,0-1.94,1.89A1.7,1.7,0,0,0,588.76,203.8Zm-405-73.56c-.77-.07-1.64.89-2.46,1.4l0,1c.8.56,1.54,1.49,2.4,1.62a1.69,1.69,0,0,0,2-2A2.91,2.91,0,0,0,183.72,130.24Zm405,99.38a2.93,2.93,0,0,0-1.89,1.95,1.69,1.69,0,0,0,2,2c.86-.12,1.6-1.05,2.39-1.62l0-1C590.36,230.51,589.49,229.55,588.72,229.62ZM183.1,288.83c-.51.83-1.46,1.69-1.4,2.48a2.87,2.87,0,0,0,1.89,1.93,1.69,1.69,0,0,0,2-2c-.15-.87-1-1.62-1.59-2.42Zm-1.85-86.54c.82.53,1.6,1.42,2.47,1.51a1.7,1.7,0,0,0,1.89-2.14,2.92,2.92,0,0,0-2-1.86c-.78,0-1.6,1-2.4,1.52Zm405.58-80.1a1.7,1.7,0,0,0,1.94,2.1c.86-.11,1.62-1,2.43-1.56v-1c-.82-.53-1.66-1.52-2.43-1.47A2.94,2.94,0,0,0,586.83,122.19Zm-401.22.08a2.91,2.91,0,0,0-1.85-2c-.78-.09-1.66.86-2.5,1.36l0,1c.78.59,1.51,1.52,2.37,1.67A1.69,1.69,0,0,0,185.61,122.27Zm405.56-20.49c-.83-.5-1.72-1.45-2.49-1.36a2.9,2.9,0,0,0-1.85,2,1.69,1.69,0,0,0,2,2c.85-.14,1.57-1.09,2.35-1.67C591.2,102.42,591.19,102.1,591.17,101.78ZM183.62,233.6a1.68,1.68,0,0,0,2-2c-.16-.87-1.06-1.61-1.63-2.41l-.92,0c-.5.84-1.43,1.71-1.36,2.5A2.82,2.82,0,0,0,183.62,233.6Zm1.2,273.12c-.11-.9-.94-1.7-1.46-2.54l-.91,0c-.56.8-1.56,1.61-1.55,2.4a2.87,2.87,0,0,0,1.78,2A1.66,1.66,0,0,0,184.82,506.72Zm403.89-322.8c.86-.08,1.65-1,2.48-1.49,0-.32,0-.64,0-1-.8-.56-1.61-1.57-2.39-1.54a2.88,2.88,0,0,0-2,1.84A1.69,1.69,0,0,0,588.71,183.92Zm1.68,312.17c-.83-.52-1.62-1.39-2.48-1.47a1.69,1.69,0,0,0-1.87,2.16,2.9,2.9,0,0,0,2,1.83c.78,0,1.59-1,2.38-1.55ZM548.81,45.7l.89,0c.56-.75,1.45-1.43,1.61-2.26.24-1.27-.63-2.13-2-2.18a1.8,1.8,0,0,0-2.07,2.08C547.38,44.19,548.27,44.92,548.81,45.7Zm-19.94,0,.93,0c.57-.81,1.6-1.62,1.57-2.4a2.92,2.92,0,0,0-1.88-2,1.68,1.68,0,0,0-2.09,2C527.49,44.15,528.35,44.9,528.87,45.68ZM588,564.19a1.68,1.68,0,0,0-2,2,2.91,2.91,0,0,0,1.88,2c.78.06,1.64-.9,2.47-1.42l0-1C589.62,565.24,588.88,564.32,588,564.19Zm.65-300.76c.87-.06,1.67-.93,2.51-1.44l0-1c-.78-.58-1.57-1.6-2.35-1.59a2.89,2.89,0,0,0-2,1.8A1.7,1.7,0,0,0,588.67,263.43ZM519.89,45.72c.56-.79,1.47-1.54,1.6-2.4a1.67,1.67,0,0,0-2-2,2.89,2.89,0,0,0-1.94,1.87c-.06.79.91,1.65,1.43,2.47ZM251.7,702.4c-.54.81-1.43,1.57-1.54,2.43a1.67,1.67,0,0,0,2.08,1.93c.78-.19,1.86-1.22,1.89-1.92s-.94-1.62-1.48-2.43Zm-69.08-164a1.78,1.78,0,0,0,2.26-1.81,1.83,1.83,0,0,0-1.91-2.22c-.83,0-1.63.82-2.44,1.27l-.12.89C181.14,537.18,181.78,538.17,182.62,538.4ZM588,598c.77,0,1.59-1,2.39-1.53,0-.32,0-.65,0-1-.82-.53-1.6-1.41-2.46-1.49a1.69,1.69,0,0,0-1.89,2.14A2.91,2.91,0,0,0,588,598ZM281.41,702.42c-.51.83-1.36,1.63-1.44,2.49a1.69,1.69,0,0,0,2.17,1.85,2.92,2.92,0,0,0,1.81-2c0-.78-1-1.58-1.58-2.37Zm309-186.49c-.83-.51-1.64-1.37-2.5-1.43a1.7,1.7,0,0,0-1.84,2.19,2.91,2.91,0,0,0,2,1.8c.78,0,1.57-1,2.36-1.58C590.41,516.58,590.39,516.25,590.38,515.93ZM588,484.68a1.68,1.68,0,0,0-2,2.05,2.93,2.93,0,0,0,1.89,1.95c.77.06,1.64-.91,2.46-1.42,0-.33,0-.65,0-1C589.62,485.72,588.88,484.81,588,484.68ZM185.61,281.17a2.92,2.92,0,0,0-2-1.86c-.78,0-1.6,1-2.4,1.52,0,.33,0,.65,0,1,.82.53,1.6,1.42,2.47,1.51A1.7,1.7,0,0,0,185.61,281.17ZM322.38,702.45l-.94-.08c-.6.78-1.66,1.56-1.66,2.34a2.94,2.94,0,0,0,1.82,2,1.68,1.68,0,0,0,2.15-1.9C323.69,704,322.86,703.25,322.38,702.45ZM587.94,574.13a1.69,1.69,0,0,0-1.9,2.13,2.9,2.9,0,0,0,2,1.86c.78,0,1.6-1,2.41-1.51,0-.32,0-.65,0-1C589.58,575.11,588.8,574.22,587.94,574.13Zm0,73.57c.77,0,1.61-1,2.42-1.49v-1c-.81-.55-1.57-1.45-2.43-1.55a1.69,1.69,0,0,0-1.93,2.1A2.92,2.92,0,0,0,588,647.7Zm-121,57a1.66,1.66,0,0,0,1.93,2.06c.88-.14,1.65-1,2.47-1.52v-.93c-.81-.53-1.65-1.51-2.44-1.47A2.83,2.83,0,0,0,467,704.71Zm12.45-2.3h-.95c-.56.8-1.56,1.62-1.53,2.41s1.08,1.74,1.87,2a1.68,1.68,0,0,0,2.11-1.9C480.84,704,480,703.22,479.44,702.41ZM182.85,613.88c-.86.12-1.61,1-2.41,1.6,0,.32,0,.64,0,1,.82.52,1.67,1.49,2.45,1.43a2.87,2.87,0,0,0,1.9-1.92A1.69,1.69,0,0,0,182.85,613.88Zm405.07,39.76a1.69,1.69,0,0,0-1.88,2.15,2.92,2.92,0,0,0,2,1.84c.78,0,1.59-1,2.39-1.54l0-1C589.57,654.6,588.78,653.72,587.92,653.64ZM184.81,665.58a1.68,1.68,0,0,0-2-2c-.86.14-1.58,1.09-2.36,1.67,0,.32,0,.65,0,1,.84.49,1.73,1.43,2.5,1.35A2.91,2.91,0,0,0,184.81,665.58Zm334.26,36.81-1,0c-.51.83-1.47,1.7-1.4,2.48a2.91,2.91,0,0,0,2,1.86,1.67,1.67,0,0,0,2-2C520.55,703.91,519.64,703.18,519.07,702.39ZM180.46,586.65c.83.51,1.69,1.48,2.47,1.41a2.89,2.89,0,0,0,1.88-1.95,1.68,1.68,0,0,0-2-2c-.86.12-1.6,1-2.39,1.62ZM591.19,280.73c-.83-.52-1.69-1.48-2.47-1.42a2.93,2.93,0,0,0-1.89,1.95,1.69,1.69,0,0,0,2,2.05c.86-.13,1.6-1.05,2.4-1.62ZM549,702.4h-1c-.54.81-1.53,1.65-1.49,2.43a2.89,2.89,0,0,0,1.9,1.92,1.68,1.68,0,0,0,2.08-1.93C550.4,704,549.51,703.21,549,702.4ZM469.17,45.67l.94.06c.59-.78,1.64-1.57,1.63-2.35a2.94,2.94,0,0,0-1.84-2,1.69,1.69,0,0,0-2.14,1.91C467.83,44.1,468.68,44.87,469.17,45.67ZM242.76,702.42l-.89,0c-.58.74-1.48,1.41-1.65,2.23-.27,1.27.59,2.14,1.93,2.22a1.8,1.8,0,0,0,2.1-2.05C244.16,704,243.29,703.2,242.76,702.42ZM369.38,113.94l-4,.41c-1.28.14-2.73-.07-3.28,1.87,1,1.9,2.88,1.82,4.54,1.85q17.67.34,35.34.55a13.54,13.54,0,0,0,4.3-.58,2.84,2.84,0,0,0,1.59-1.94c.09-.62-.67-1.43-1.18-2-.26-.31-.8-.4-1.5-.72V87.16h.87c1.33,0,2.52-.32,2.51-1.86s-1.26-2-2.66-1.9-2.65.13-4,.14l-36,0a6.88,6.88,0,0,0-2.54.27c-.66.28-1.11,1-1.91,1.83l2.38,1.16C365.77,96,367.55,104.88,369.38,113.94ZM402,87.07c-.36,9-.71,17.66-1.07,26.48h-2.42c-.45-8.82-.89-17.57-1.34-26.48Zm-12.26,0H394v26.42l-4.34.43Zm-4.33,0c-.4,8.93-.79,17.8-1.18,26.76h-8.67c1.85-9,3.66-17.76,5.51-26.76Zm-7.84,0-4.66,17.4-.38.08c-1.4-5.76-2.81-11.53-4.26-17.48Z"/></svg>