<svg xmlns="http://www.w3.org/2000/svg" viewBox="0 0 750 750"><path d="M606.11,375.1V50.63c0-1.2,0-2.39,0-3.58-.27-12.76-9.76-22-22.52-22H186.53a21.88,21.88,0,0,0-21.94,22q0,328.06,0,656.12a20.8,20.8,0,0,0,.58,4.91c2.61,10.66,11.16,17,22.89,17H582.34c.53,0,1.06,0,1.59,0,8.07-.18,14.4-3.55,18.83-10.35,2.66-4.1,3.36-8.67,3.36-13.47Q606.09,538.14,606.11,375.1ZM587.24,720.58a22.22,22.22,0,0,1-4.16.29H187.63c-11.39,0-18.94-7.54-18.94-18.91V47.84c0-11.13,7.59-18.73,18.7-18.73H583c11.4,0,19,7.53,19,18.89V701.93C602,711.64,596.3,718.87,587.24,720.58ZM551.87,371.93c3-2.68,3.19-7.91.57-11a2.83,2.83,0,0,0-3.65-1c-6.23,2.59-12.63,2.54-19.12,1.16-5.19-1.1-10.38-2.17-15.61-3-7.22-1.2-14.56-2-21.62.45-2.74.95-4.91-.05-7.41-.16-.1-2.34,1.86-3.11,3.32-4.59a8.73,8.73,0,0,0-1.88-.7c-2.85-.24-5.68.12-8,1.88s-3.62,4.13-6.58,4.63c-.54.09-1.07.5-1.59.48-2.58-.13-5.15-.43-7.73-.52-8-.3-16.06-1.15-24-.64-14.2.92-28.34,2.68-42.51,4.07a14,14,0,0,1-1.79-.07l1.28-1c5.95-4.75,12.32-9.06,17.75-14.34C425.19,336,436.58,324,448.16,312.13c1.19-1.2,1.75-3.46,4.25-2.53.2.07.58-.26.84-.46,2.89-2.15,3.29-2,4,1.7a6.71,6.71,0,0,0,.15.78c.44,1.5,1.72,1.95,2.63.74,2.2-2.92,3.88-6.07,2.55-9.93-.59-1.69.51-4.4,2.18-5,5-1.85,9.08-5.14,12.88-8.76a96.11,96.11,0,0,0,15.17-19.07c3.52-5.68,7.78-10.71,13.88-13.91a3.5,3.5,0,0,0,1.34-2.6c.16-4.16-3.52-7.89-7.72-8.1a2.54,2.54,0,0,0-2.82,1.67c-2.77,6.72-7.79,11.36-13.76,15.23-5.06,3.27-10.1,6.6-14.91,10.22s-9.58,7.75-12.2,13.39c-1.25,2.69-3.48,3.67-5.45,5.33-1.81-1.52-.78-3.51-1.09-5.51a8.65,8.65,0,0,0-1.69.81,11.49,11.49,0,0,0-4.28,7c-.39,2.53.67,5.28-1.33,7.57-.51.59-.64,1.55-1.2,2.06-4,3.58-8.13,7-12.09,10.63-11.89,10.85-22,23.31-32,35.82-2.68,3.34-5.23,6.78-7.84,10.18a4.84,4.84,0,0,1,0-2c.91-7.28,2.18-14.55,2.63-21.86.53-8.33.49-16.7.4-25-.1-9-.54-18-.82-27-.05-1.51-1.07-3.3,1.17-4.22.23-.1.31-.7.36-1.08.49-3.51.92-3.7,3.89-1.69.28.18.53.4.82.56,1.36.75,2.57.14,2.36-1.37-.5-3.63-1.58-7-5.22-8.82-1.61-.79-2.74-3.47-2-5.08,2.24-4.8,2.75-9.92,2.91-15.1a95.68,95.68,0,0,0-2.78-24.41c-1.48-6.51-2.05-13.07,0-19.64a3.5,3.5,0,0,0-.88-2.79c-2.7-2.93-7.81-3.07-10.89-.54a2.92,2.92,0,0,0-1,3.82c2.55,6.17,2.46,12.5,1.14,18.93s-2.62,12.59-3.52,18.95-1.32,12.77,1.06,18.85c1,2.65-.44,4.61-.3,6.91l-.65.38-4-3.45a6.24,6.24,0,0,0-.62,1.61,11.54,11.54,0,0,0,2.18,8.45c1.45,1.79,3.95,2.77,3.94,5.64,0,.68.85,1.36.83,2-.06,2.52-.39,5-.48,7.53-.28,8.21-1.13,16.46-.61,24.62.89,14.07,2.64,28.08,4,42.12a13.34,13.34,0,0,1-.08,1.82c-.67-.93-1-1.47-1.43-2-3.27-4.33-6.24-8.95-9.89-12.94a525.67,525.67,0,0,0-41.28-40.48c-.36-.32-.92-1-.81-1.2.72-1.62-.4-2.44-1.27-3.43s-.7-2,.64-2.42c.87-.3,1.8-.41,2.7-.65,1.62-.42,2.09-1.76.8-2.72-2.94-2.17-6.09-3.85-9.94-2.46-1.54.56-4.32-.55-4.9-2.11-2.06-5.54-5.85-9.84-9.83-14-5.85-6.18-12.92-10.73-19.92-15.39a35.63,35.63,0,0,1-11.89-12.33,3.92,3.92,0,0,0-2.83-1.6c-3.47-.16-7,2.81-7.8,6.23-.63,2.71-.25,3.51,2.28,4.68,3.83,1.78,7.38,4,9.89,7.47,3.91,5.34,7.64,10.81,11.39,16.26,4.32,6.26,9,12.15,15.6,16.19,2.17,1.34,4.39,2.34,5.7,4.79.75,1.4.63,2-.76,2.18a28.91,28.91,0,0,1-4,0,8.67,8.67,0,0,0,.82,1.76c1.83,2.19,4.11,4,6.95,4.27s5.49-.24,8,1.38a7.6,7.6,0,0,1,1.45.86c1.73,1.92,3.4,3.89,5.09,5.84,6.62,7.6,13.33,15.11,21.19,21.49q14.42,11.7,28.8,23.46a13.1,13.1,0,0,0,1.49.9c-.14.18-.29.35-.44.53-.5-.08-1-.17-1.52-.24-6-.84-11.91-2.14-17.91-2.43a512.63,512.63,0,0,0-57.61.56c-.43,0-1.18,0-1.26-.22-.69-1.67-2.12-1.53-3.5-1.63s-1.75-.89-1.19-2.06c.43-.89,1.06-1.68,1.54-2.55.74-1.34.12-2.58-1.37-2.37-3.62.51-7,1.58-8.8,5.24-.75,1.52-3.41,2.72-4.95,2-5.58-2.54-11.49-2.86-17.48-3-8.37-.19-16.45,1.66-24.57,3.25a35.61,35.61,0,0,1-16.92-.35,3.89,3.89,0,0,0-3.15.85c-2.63,2.42-3,7.09-1,10.08,1.48,2.25,2.26,2.52,4.81,1.57a25.15,25.15,0,0,1,12.67-1.71c6.35,1,12.66,2.19,19,3.37,7.6,1.42,15.24,2.33,22.86.41,2.5-.63,4.82-1.22,7.42-.53,1.32.35,1.65.83.94,1.83a36.51,36.51,0,0,1-2.79,3.08,7.87,7.87,0,0,0,1.89.67,11.7,11.7,0,0,0,8.09-2.12c1.89-1.43,2.91-4,5.82-4.08,1,0,1.92-.72,2.87-.68,6.48.3,12.95.93,19.44,1.05,18,.33,35.85-1.54,53.65-4a11,11,0,0,1,1.47-.08c-6.2,5.14-12.65,10-18.58,15.48a476.87,476.87,0,0,0-36.27,37.33c-.28.33-.85.79-1.08.7-1.58-.64-2.47.36-3.47,1.25s-2,.73-2.41-.62c-.32-.94-.43-1.94-.72-2.89-.41-1.37-1.67-1.8-2.54-.71-2.21,2.76-3.76,5.83-2.75,9.52.74,2.72-.25,4.73-3,5.79a20.27,20.27,0,0,0-3,1.51,51.18,51.18,0,0,0-14,12.28c-4.06,5-7.72,10.4-11.46,15.7-3.36,4.77-7.17,9-12.38,11.84a3.87,3.87,0,0,0-1.51,2.89c-.08,3.5,2.91,7,6.34,7.7,2.63.58,3.42.21,4.54-2.22A25,25,0,0,1,283,473.46c5.28-3.88,10.71-7.56,16.11-11.27,6.38-4.38,12.41-9.15,16.39-15.92,1.29-2.19,2.53-4.14,4.77-5.48,1.35-.81,1.87-.41,2,.8a33,33,0,0,1,0,4,8.54,8.54,0,0,0,1.89-.91c2.4-2.13,4.3-4.69,4.31-8,0-2.14-.17-4,1-6.08a11.93,11.93,0,0,1,2.11-3.09c7.4-6.81,15.3-13.19,22-20.64,9.58-10.6,18.28-22,27.35-33.06l1.69-2a4.55,4.55,0,0,1,0,2.14c-.86,6.17-2.2,12.31-2.47,18.51a522.85,522.85,0,0,0,.56,56.82c0,.53-.07,1.42-.4,1.58-1.27.63-1.3,1.67-1.37,2.83-.13,2-.88,2.41-2.71,1.41-.7-.38-1.31-.9-2-1.27-1.28-.68-2.45-.1-2.29,1.29.37,3.45,1.41,6.67,4.61,8.59,2.72,1.62,3.37,3.47,2.08,6.44a17.68,17.68,0,0,0-.93,2.83c-2.31,9.73-1.73,19.47-.07,29.21.67,3.91,1.62,7.78,2.26,11.7a29.44,29.44,0,0,1-.85,13.95,3,3,0,0,0,.94,3.39,8.39,8.39,0,0,0,10.94.23A2.75,2.75,0,0,0,392,528c-2.63-6.38-2.51-12.9-1.14-19.53,1.29-6.3,2.62-12.6,3.51-19,.84-6,1.23-12.25-1-18.08-1-2.69.11-4.8.21-7.17l.54-.45,4.1,3.31a6.09,6.09,0,0,0,.63-1.69c.22-2.92-.2-5.81-2.09-8.08-1.57-1.89-3.89-3.17-4.16-6-.09-.91-.65-1.82-.61-2.71.31-6.62.92-13.22,1.07-19.84.37-16.81-1.53-33.47-3.54-50.12-.18-1.55-.47-3.1-.71-4.65l.49-.15c.21.24.42.47.62.71,4.84,6.05,9.36,12.39,14.57,18.08a473.37,473.37,0,0,0,37.17,36.16c.36.32.86.95.76,1.24-.57,1.51.34,2.35,1.21,3.29,1,1.12.82,2.05-.64,2.53-.87.3-1.81.4-2.7.65-1.5.43-1.93,1.72-.74,2.65,2.72,2.12,5.74,3.67,9.36,2.71,2.91-.78,4.79.14,5.91,3a15.06,15.06,0,0,0,1.32,2.67c5.48,8.75,12.9,15.57,21.45,21.21,7.13,4.72,14.51,9.12,18.67,17.11a3.36,3.36,0,0,0,2.46,1.28c4.1.22,7.95-3.51,8.17-7.65a2.69,2.69,0,0,0-1.77-3c-6.43-2.69-11-7.42-14.74-13.16-3.4-5.21-6.83-10.43-10.56-15.4s-7.84-9.66-13.55-12.32c-2.63-1.23-3.6-3.4-5.55-5.93l5.72-.7a7.28,7.28,0,0,0-.84-1.7c-1.95-2.18-4.28-3.9-7.24-4.15-2.39-.21-4.88.55-7-1.27-.7-.59-1.77-.8-2.36-1.46-3.51-3.88-6.85-7.92-10.39-11.78-10.95-12-23.5-22.17-36.13-32.26-3.08-2.47-6.25-4.83-9.7-7.48a10.05,10.05,0,0,1,1.52,0,132.87,132.87,0,0,0,27,2.88c15.63-.15,31.26-.43,46.9-.67,1.59,0,3.42-1,4.38,1.25.1.21.72.24,1.11.28,3.27.36,3.53.91,1.72,3.66-.25.39-.57.74-.78,1.15-.67,1.25-.09,2.22,1.33,2.31,3.08.19,7.63-2.54,9-5.37.67-1.43,3.48-2.63,4.94-1.94,5.17,2.42,10.69,2.88,16.27,3a96.14,96.14,0,0,0,23.22-2.75c6.57-1.52,13.2-2.11,19.84,0A3.32,3.32,0,0,0,551.87,371.93Zm-1.93-9.87a7,7,0,0,1,1.29,1.58,6.2,6.2,0,0,1-1.38,6.68,9,9,0,0,0-.56-7.69Zm-328.23,5.87a6.08,6.08,0,0,1,.59-6.85c.15,2.29.3,4.76.47,7.48C222.53,368.43,222,368.29,221.71,367.93Zm10.91-2.14a2.1,2.1,0,0,1-1.32.89c-1.28.3-2.65.28-3.88.7-2,.68-2.48-.26-2.54-1.94,0-.33,0-.66,0-.82,0-2.82.63-3.36,3.28-3.09.72.08,1.44.13,2.16.2C232.93,362,233.74,363.31,232.62,365.79ZM279,370.62c-7.21,1.8-14.44,1.14-21.67-.3-7-1.38-14-2.48-20.91-3.76-.44-.08-.8-.59-1.19-.9.35-.31.7-.89,1.05-.89,6.09.06,12.18.19,18.28.32.09,0,.18.16.55.51l-3.14.51a4.52,4.52,0,0,0,5.92,0c1.24-1.17,2-1,3.15.05,1.87,1.64,3.6,1.47,5.45-.25a3.58,3.58,0,0,1,4.76.11,4,4,0,0,0,5.47.3c-1.62-.31-3.88,0-3.58-2.35.23-1.89,2.09-1.6,3.6-1.46-1-1.82-3.39-2.07-5.2-.66a4.33,4.33,0,0,1-5.53.4,4.28,4.28,0,0,0-5.36.26c-1.09.93-1.82.87-2.8-.25a4.29,4.29,0,0,0-6.07-.33l3.09.67c0,.16,0,.32,0,.48a8.78,8.78,0,0,1-1.42.24c-5.43.09-10.86.19-16.3.2-.55,0-1.1-.57-1.65-.88.47-.32.91-.82,1.42-.93,4.28-.9,8.57-1.72,12.86-2.57a71,71,0,0,1,29.39,0c3.52.77,3.81,1,4.13,4.94C283.83,370.32,283.84,369.42,279,370.62Zm18.24,0a4.59,4.59,0,0,0-4,2.47c-.6,1-1.94,1.54-3,2.31-.25-1.85,0-3.48-.7-4.27s-2.35-.79-3.57-1.12c0-1.61.09-3.25,0-4.88s-.43-3.1-.67-4.73a7.06,7.06,0,0,1,1.35-.29,2.81,2.81,0,0,0,3.16-2.29,5.21,5.21,0,0,1,4.08-3.58c-.11.6-.17,1-.27,1.46-.53,2.37.5,4.16,2.89,4.47,1.41.18,2,.78,2.07,2.09.14,2.1.28,4.21.44,6.31A1.67,1.67,0,0,1,297.27,370.58ZM369.7,367c-9.36.72-18.75,1.24-28.09,2.19-11.12,1.14-22.22.73-33.33.32a5.19,5.19,0,0,1-1.63-.68c.32-.54.53-1.39,1-1.57a11.75,11.75,0,0,1,4-1c12.12-.07,24.23,0,36.34,0,6,0,11.92-.06,17.87-.08h3.88Zm1.22-2.72q-29.7-.15-59.39-.27a13.75,13.75,0,0,0-3.9.66c-2.57.78-3.25,1.78-3.32,4.45-2.35.72-2.65.51-2.63-1.86,0-1.58,0-3.16,0-4.77,7.8-3.27,66.31-2.17,75.9,1.79ZM271.19,483.24a5.88,5.88,0,0,1-4-5l5.73,4.89A5.69,5.69,0,0,1,271.19,483.24Zm6.21-7.45a24.16,24.16,0,0,0-2.15,3.06c-.88,1.81-1.91,1.75-3.17.52a15.37,15.37,0,0,1-1.79-2.07,1.51,1.51,0,0,1,.45-2.36c1-.74,1.9-1.64,2.92-2.36.59-.4,1.63-1,2-.77a17.37,17.37,0,0,1,2.59,2.62C277.86,475,277.66,475.43,277.4,475.79Zm36.51-30.88c-3.93,6.22-9.39,10.88-15.47,14.93C292.55,463.77,286.83,468,281,472c-.37.26-1,.14-1.49.2,0-.47-.13-1.13.11-1.37,4.41-4.28,8.86-8.52,13.3-12.76l.44.32-1.56,2.16a4.36,4.36,0,0,0,4-4.12c.08-1.54.6-2.06,2.11-2.16,2.62-.18,3.68-1.44,3.82-4.11a3.7,3.7,0,0,1,3.33-3.24,4,4,0,0,0,4.19-3.55c-1.36.77-2.75,2.65-4,.83-.54-.79.36-2.57.6-3.84-1.62-.06-3.16,1.35-3.4,3.55a4.33,4.33,0,0,1-3.54,4.07c-2.07.49-3.47,1.69-3.67,3.89-.13,1.55-.79,2-2.32,1.89a4.38,4.38,0,0,0-4.44,4.1l2.67-1.76.35.37a8.22,8.22,0,0,1-.8,1.13c-3.78,3.91-7.55,7.82-11.39,11.67-.39.39-1.17.39-1.78.56A5.92,5.92,0,0,1,278,468c2.21-3.37,4.55-6.67,6.74-10.06a70.26,70.26,0,0,1,21.42-21.52c2.86-1.82,3-1.76,6.11.54C316.46,440.05,316.66,440.56,313.91,444.91Zm13-13.17a4.61,4.61,0,0,0-1.12,4.55c.28,1.12-.26,2.45-.46,3.81-1.43-1.09-2.43-2.42-3.56-2.54s-2.2,1.11-3.26,1.71l-7.09-6.39s-.05-.17,0-.23c1.68-1.67,1.93-3.4.9-5.65-.52-1.14-.09-2.73-.09-4.11l.85-.1.74,1.12c1.3,1.93,3.28,2.45,5.09,1A2.1,2.1,0,0,1,322,425c1.55,1.34,3.08,2.7,4.64,4A1.68,1.68,0,0,1,326.91,431.74Zm45.55-50.22c-9,10.31-18,20.7-27.16,30.87-3.54,3.92-7.62,7.36-11.5,11a4.42,4.42,0,0,1-1.49.58c-.17-.54-.64-1.22-.47-1.6a12.19,12.19,0,0,1,2.15-3.71c8.61-8.72,17.31-17.35,26-26,4.12-4.13,8.2-8.3,12.3-12.44.8-.81,1.65-1.58,2.48-2.36l.38.37C374.24,379.3,373.4,380.45,372.46,381.52Zm5.17-9.3q-20.76,20.4-41.49,40.8a48.71,48.71,0,0,0-5.6,6.41c-1.89,2.67-1.65,4.13.33,6.54-1.5,2.1-1.52,2.09-3.3.31-1.11-1.11-2.28-2.17-3.68-3.49,16.88-19.08,33.69-38.05,54.8-52.56l.44.41C378.63,371.17,378.14,371.71,377.63,372.22Zm-109.21-122a5.93,5.93,0,0,1,5.12-3.92l-5.15,5.8A6.16,6.16,0,0,1,268.42,250.22Zm9.15,6.63c-.42.24-1.32-.1-1.85-.42-1.25-.74-2.37-1.7-3.62-2.44-1-.61-1-1.27-.37-2.08a14.84,14.84,0,0,1,1.71-1.91c1.25-1.07,2.46-1.48,3.58.31a31.29,31.29,0,0,0,2.38,2.92c.28.35.5.75.9,1.36A18.06,18.06,0,0,1,277.57,256.85Zm28.88,36c-5.85-3.58-10.27-8.69-14.07-14.36-4.33-6.48-8.72-12.92-13.37-19.8.72.09,1.6-.07,2,.29,4.16,4.17,8.24,8.42,12.33,12.66a2.35,2.35,0,0,1,.36.64l-.36.36L291,270.83a4.42,4.42,0,0,0,4.3,4.19c1.45.08,1.94.6,2,2,.19,2.74,1.37,3.75,4.21,3.91a3.7,3.7,0,0,1,3.13,3.4c0,2.13,1.24,3.62,3.67,4.18-.88-1.4-2.75-2.75-.93-4.23,1.6-1.3,2.65.45,3.73,1.55a3.6,3.6,0,0,0-3.39-4.21,4.36,4.36,0,0,1-4.14-3.66,4.2,4.2,0,0,0-3.79-3.54c-1.62-.15-2.09-.79-2-2.42a4.24,4.24,0,0,0-4.08-4.3l1.72,2.64-.36.33a9.81,9.81,0,0,1-1.16-.84c-3.91-3.77-7.82-7.54-11.66-11.37-.38-.38-.36-1.17-.52-1.77a5.73,5.73,0,0,1,1.81.46c3.38,2.21,6.67,4.54,10.06,6.73a70.48,70.48,0,0,1,21.63,21.55c1.7,2.71,1.73,3-.51,5.77C310.46,296.56,311.06,295.67,306.45,292.85Zm16,13.14a1.48,1.48,0,0,1-2.4.17,4.85,4.85,0,0,0-4.91-1.18c-1.06.28-2.35-.31-3.68-.53,1.1-1.35,2.47-2.3,2.61-3.41s-1.05-2.22-1.69-3.41l6.41-7.07a.27.27,0,0,1,.22,0c1.6,1.52,3.17,2.11,5.44,1,1.19-.6,2.95-.05,4.45,0,0,.22,0,.43.05.65-.3.21-.59.45-.9.65-2.31,1.43-2.84,3.39-1.2,5.47a1.75,1.75,0,0,1,0,2.59C325.36,302.59,323.88,304.28,322.42,306Zm50.82,48.26c-16-13.29-32.27-26.35-46.17-42.8,1.12-.18,2-.6,2.68-.35a9.16,9.16,0,0,1,3.15,2c8.7,8.62,17.33,17.3,26,25.95,4.07,4.07,8.18,8.1,12.27,12.16.86.86,1.71,1.74,2.56,2.61Zm6.87,3.27c-6.54-6.66-13-13.34-19.61-20q-12.84-13-25.77-25.89a14.29,14.29,0,0,0-3.17-2.34c-2.54-1.4-3.77-1.19-6,.9l-1.72-1.87c1.64-1.74,3.17-3.37,4.7-5,8.18,3.48,49.23,46.16,53,55.25A16.67,16.67,0,0,1,380.11,357.52ZM383.45,201c1.93-1.57,5.7-1.08,7.14.51l-7.5.41C383.12,201.81,383.15,201.23,383.45,201Zm6.64,6.13c0,.33,0,.66-.08,1l-.09,1.19c-.26,2.89-.73,3.29-3.59,2.56a2.47,2.47,0,0,1-1.38-1.48c-.38-1.26-.3-2.66-.72-3.89-.65-1.89.24-2.37,1.83-2.47a11.84,11.84,0,0,1,1.19-.05C389.82,204,390.36,204.61,390.09,207.12Zm-9.76,36.29c1.23-9.69,3.37-19.26,5.27-29.59.58.77,1.24,1.24,1.23,1.71,0,6.1-.16,12.19-.28,18.28,0,.1-.13.2-.48.7-.23-1.32-.42-2.32-.6-3.34a4.61,4.61,0,0,0,.22,6.09c.95,1,.91,1.67.05,2.68-1.9,2.23-1.81,3.63.18,5.88a3.86,3.86,0,0,1-.14,4.49c-1.65,1.69-1.85,3.54-.44,5.71.37-1.66-.07-4.07,2.39-3.72,1.88.26,1.53,2.14,1.44,3.61A3.18,3.18,0,0,0,390,251c-1.73-2-1.78-3.87-.42-6.06a4,4,0,0,0-.32-5c-1-1.14-1-1.9.23-2.94a4.37,4.37,0,0,0,.15-6.22,18.18,18.18,0,0,1-.17,1.85,2.22,2.22,0,0,1-.87,1.5,9.86,9.86,0,0,1-.21-1.43c-.1-5.43-.21-10.86-.23-16.29,0-.57.51-1.14.79-1.71.36.49.94.92,1,1.46.86,4.08,1.58,8.19,2.43,12.27a71.54,71.54,0,0,1,.27,29.18c-.86,4.26-1,4.32-5.35,4.94-4.79.67-5.48.54-6.21-4.14C380.34,253.46,379.7,248.3,380.33,243.41Zm.85,33.42a5.55,5.55,0,0,0-2.9-4.6c-.92-.52-1.35-1.89-2.21-3.18,4.59.58,4.59.58,5.47-3.82l9.69-.51c-.16-.09,0,0,0,0,0,2.63,1.39,4,3.75,5,1.1.46,1.78,1.93,2.66,2.95l-.47.46-1.12-.28c-2.55-.65-4.31.43-4.67,3.08-.16,1.15-.58,1.68-1.66,1.76-2.36.19-4.73.44-7.1.46A2.06,2.06,0,0,1,381.18,276.83Zm1.14,8.64c.87.59,1.83.9,2.11,1.52a8.94,8.94,0,0,1,.86,3.61c.06,12.25,0,24.5,0,36.75,0,6,.07,11.92.1,17.88,0,1.43,0,2.87,0,4.3h-.61C382.87,328.41,380.46,307.31,382.32,285.47Zm0,106c.42-5.85,1.52-11.65,2.32-17.47h.62c0,.77.11,1.55.1,2.32q-.25,28.89-.51,57.78,0,3.18.18,6.35a16.06,16.06,0,0,0,.63,3.51c.8,2.66,1.8,3.38,4.65,3.5.32,2.62.31,2.63-2.07,2.61-.8,0-1.59,0-2.39,0-2.74.13-2.81.15-3-2.66C381.71,428.81,381,410.16,382.3,391.5ZM390,529a8.54,8.54,0,0,1-1.89,1.46,6.47,6.47,0,0,1-6.25-.92Zm-7.53-5.22c.07-.85.18-1.71.24-2.57.08-1.23.08-2.53,1.86-2.36,1.45.15,3.21-.12,3.18,2.25a13,13,0,0,0,.43,2.74c.56,2.83.31,3.13-2.64,3.15C382.86,527,382.27,526.34,382.51,523.73Zm8.8-29.36c-1.37,6.94-2.48,13.93-3.75,20.89-.08.45-.58.83-.88,1.24-.33-.41-.94-.82-.93-1.23,0-5.95.17-11.91.29-17.86,0-.16.16-.31.53-1,.23,1.34.37,2.22.55,3.25a4.67,4.67,0,0,0-.07-5.91c-1.06-1.12-1.08-1.84-.06-3,1.75-2,1.62-3.69-.15-5.61a3.59,3.59,0,0,1,.15-4.75c1.44-1.51,1.61-3.39.19-5.53-.09,1.87,0,3.75-2,3.67-2.2-.08-1.85-2.1-1.73-3.8a3.71,3.71,0,0,0-.55,5.51,4.31,4.31,0,0,1,.33,5.38,4.3,4.3,0,0,0,.2,5.35c.89,1.07.91,1.83-.2,2.83a4.3,4.3,0,0,0-.36,6.13l.66-3.14.41,0a3.46,3.46,0,0,1,.31,1c.1,5.63.19,11.25.2,16.88,0,.49-.56,1-.86,1.47-.31-.35-.83-.65-.9-1-1.25-6.43-2.76-12.83-3.55-19.31a65.39,65.39,0,0,1,.72-22.14c1-4.71,1.21-5.15,6-5.39,5.11-.27,4.49-.48,5.61,3.78C393.4,479.54,392.78,487,391.31,494.37Zm.25-39.93a4.63,4.63,0,0,0,2.44,4c1,.59,1.54,1.93,2.29,2.93l-.42.42c-.56-.07-1.12-.17-1.68-.22-2-.17-2.85.5-2.86,2.51,0,1.47-.46,1.93-2,1.84-2.6-.16-5.22-.05-8.15-.05a6.89,6.89,0,0,1-.2-1.28,2.37,2.37,0,0,0-1.94-2.55c-2.16-.67-3-1.79-3.78-4.11.49.06.92.08,1.33.17,2.47.55,4.18-.49,4.55-3,.17-1.22.66-1.78,1.81-1.87l6.7-.49C390.94,452.6,391.48,453.27,391.56,454.44Zm-1.28-8.95c-.92-.67-1.85-1-2.14-1.64a9.17,9.17,0,0,1-.84-3.62c0-12.51,0-25,0-37.54,0-5.49-.08-11-.11-16.48,0-1.29,0-2.59,0-3.88l.69,0C389.83,403.15,392.09,423.93,390.28,445.49Zm-2.87-88.41c0-5.62,0-11.23,0-16.85.12-12.12.32-24.23.41-36.34,0-4.64-.11-9.27-.27-13.9a11.67,11.67,0,0,0-.67-3.29c-.84-2.57-1.86-3.26-4.63-3.21v-2.64h7.28C391,306.3,392.65,331.79,387.41,357.08Zm116.91,123.2a5.85,5.85,0,0,1-5,4.23L504,479C504.11,479.33,504.41,479.84,504.32,480.28Zm-7.74-6.08c1.36.93,2.73,1.87,4.05,2.86a1.59,1.59,0,0,1,.63,1.09c0,1.21-2.93,3.77-4.37,3.7a9.16,9.16,0,0,1-1-.87c-.9-1.05-1.73-2.18-2.67-3.21-.75-.83-1-1.67,0-2.37S494.94,473.09,496.58,474.2ZM465,437.31c6.56,3.83,11.39,9.39,15.6,15.59s8.49,12.15,12.74,18.22c.11.16.16.36.57,1.27-1-.15-1.82,0-2.14-.35-4.23-4.29-8.4-8.64-12.58-13-.07-.07,0-.24-.18-.85l2.5,1.71c.13-1.91-1.69-3.84-4.08-4-1.53-.1-2-.66-2.16-2.15-.22-2.64-1.39-3.62-4.13-3.79a3.7,3.7,0,0,1-3.2-3.37,4,4,0,0,0-3.44-4.11c.69,1.39,2.54,2.84.63,4-.8.5-2.47-.38-3.72-.64a3.36,3.36,0,0,0,3.27,3.33c2.58.19,3.85,1.53,4.42,3.95a3.91,3.91,0,0,0,3.56,3.28c1.72.15,2.19.88,2.12,2.57a4.23,4.23,0,0,0,4.05,4.17l-1.67-2.54.27-.29a3.56,3.56,0,0,1,.92.44c4.05,3.91,8.1,7.82,12.1,11.78.33.33.31,1,.45,1.51-.45,0-1.05.29-1.34.09-5.68-3.87-11.54-7.55-16.94-11.79A62.64,62.64,0,0,1,458.28,447c-2.81-4.39-2.85-4.88.55-8.72C461.39,435.42,461.6,435.36,465,437.31Zm-14.77-12.38a1.5,1.5,0,0,1,2.41-.15,5,5,0,0,0,4.94,1.16c1.06-.25,2.3.33,3.8.61-3.32,3-3.32,3-1,6.65l-6.51,7.21a4,4,0,0,1-.95-.58c-1.21-1.31-2.38-1.29-4.06-.63-1.44.57-3.22.27-4.86.35l-.13-.71a5.81,5.81,0,0,1,.77-.72c2.4-1.58,2.69-3.24,1.2-5.7a2.43,2.43,0,0,1,0-2.18C447.1,428.38,448.69,426.69,450.19,424.93Zm-50.91-48.29c16.08,13.22,32.26,26.34,45.82,43a6,6,0,0,1-2.44.12,9.76,9.76,0,0,1-3.11-2c-8.91-8.87-17.76-17.81-26.65-26.7q-5.68-5.68-11.49-11.25a23.23,23.23,0,0,0-3.09-2.14Zm-6.42-2.85c6.22,6.32,12.42,12.67,18.66,19Q424.57,406,437.7,419.1a14.69,14.69,0,0,0,3,2.3c2.66,1.58,3.95,1.44,6.24-.44,2.17,1.31,2.17,1.44.39,3.22-1.12,1.11-2.18,2.28-3.51,3.69-19.07-16.86-38-33.67-52.53-54.76l.36-.38A15.89,15.89,0,0,1,392.86,373.79Zm108.7-126.07a6,6,0,0,1,3.92,5.19l-5.79-5.22A6.13,6.13,0,0,1,501.56,247.72Zm-6.62,7.92a27,27,0,0,1,3.08-4.55,1.29,1.29,0,0,1,1-.49c1.16.06,3.7,2.84,3.77,4.23,0,.06,0,.38-.21.52a57.52,57.52,0,0,1-4.75,3.82c-.3.21-1.48-.4-1.86-.92C495.37,257.5,494.66,256.25,494.94,255.64Zm-36.3,30.44A43.82,43.82,0,0,1,471,273.31c7.15-5,14.42-9.82,22.22-15.11-.15.87,0,1.7-.4,2.05-4.23,4.2-8.53,8.33-12.82,12.47-.12.12-.33.16-.82,0,.58-.82,1.15-1.65,1.75-2.51a4.62,4.62,0,0,0-4.17,4.27c-.05,1.72-.75,2.09-2.28,2.18-2.44.16-3.58,1.55-3.66,4.05a3.57,3.57,0,0,1-3.43,3.26c-2.09,0-3.62,1.3-4.16,3.69,1.44-.86,2.87-2.89,4.28-.81.48.71-.54,2.43-.88,3.72,1.3.38,3.22-1.15,3.51-3.4.32-2.52,1.32-3.61,3.74-4.27a4.22,4.22,0,0,0,3.48-3.85c.12-1.52.71-2,2.28-1.89a4.18,4.18,0,0,0,4.38-4.24,17.23,17.23,0,0,1-1.42,1.19,2,2,0,0,1-1.51.36,6,6,0,0,1,.69-1.05c3.86-4,7.73-8,11.65-12,.33-.33,1.07-.26,1.62-.38,0,.5.08,1.12-.16,1.49-2.62,4-5.23,8-7.95,11.88A71.57,71.57,0,0,1,467,294.18c-3.4,2.18-3.5,2.17-6.78-.28C456.12,290.83,456,290.39,458.64,286.08ZM445.57,299.5c1.14-1.59,1.78-3.06,1.22-5.12-.29-1.06.31-2.35.53-3.66,1.33,1.1,2.28,2.47,3.4,2.62s2.21-1,3.41-1.69c2.26,2.05,4.67,4.23,7.16,6.47a3.45,3.45,0,0,1-.49.79c-1.3,1.21-1.55,2.36-.77,4.18.63,1.47.27,3.36.35,5.07l-.87,0c-.17-.26-.36-.52-.52-.79-1.45-2.44-3.4-2.95-5.58-1.26a1.63,1.63,0,0,1-2.41,0c-1.76-1.5-3.58-2.93-5.21-4.56A2.23,2.23,0,0,1,445.57,299.5Zm-5.16,7c.11,1,.49,1.94.23,2.62a9.59,9.59,0,0,1-2,3.13c-8.83,8.87-17.72,17.69-26.57,26.54-3.89,3.89-7.73,7.82-11.56,11.76a23.56,23.56,0,0,1-2.43,2.56C398.87,348.83,434.39,310,440.41,306.53Zm-46.74,54.32-.42-.37c.49-.52,1-1.05,1.48-1.55q20.7-20.32,41.39-40.66c1.56-1.53,3.06-3.13,4.5-4.77a15.12,15.12,0,0,0,2-2.95c1.23-2.41,1-3.57-1.09-5.67l1.89-1.79,5.32,5C431.77,327.26,414.9,346.33,393.67,360.85Zm72.77.78c-.75,1-1.13,1.88-1.79,2.18a8.5,8.5,0,0,1-3.44.77c-12.38.05-24.77,0-37.16,0-5.76,0-11.53.07-17.29.1a22.26,22.26,0,0,1-4.53-.29C423.34,362.16,444.42,359.78,466.44,361.63Zm4.47,6.85c-9.65,3.27-68.15,2-76.58-1.79a14.35,14.35,0,0,1,1.5-.16c8.87.08,17.74.21,26.61.26q19.17.1,38.34.1a14.92,14.92,0,0,0,4.28-.7c2.58-.79,3.26-1.86,3.21-4.63h2.64Zm15.73,2.29a3.73,3.73,0,0,0-4.22,2.9c-.47,1.34-2.13,2.27-3.25,3.39l-.5-.41c.08-.43.14-.87.24-1.29.59-2.49-.45-4.3-3-4.6-1.34-.17-1.87-.72-2-1.93-.17-2.23-.31-4.47-.48-6.71-.09-1.2.56-1.68,1.64-1.76a4.66,4.66,0,0,0,4.15-2.51c.56-1,2-1.57,3-2.33.24,1.83,0,3.49.72,4.36s2.34.74,3.52,1c.16,3.15.33,6.35.5,9.64C487,370.6,486.8,370.78,486.64,370.77Zm27.88-5.8c-1,.92-1.64,1-2.67.1-2.21-1.93-3.72-1.85-5.88.12a3.76,3.76,0,0,1-4.61-.23,4,4,0,0,0-5.63-.16c1.76.07,4-.19,3.67,2.12-.12.85-2.13,1.44-3.29,2.16.72,1.2,3.13,1.46,4.9.06,1.94-1.52,3.53-1.59,5.67-.36a4.17,4.17,0,0,0,5.17-.28c1.16-1,1.92-1,2.94.26a4.35,4.35,0,0,0,6.09.26l-3.21-.68c0-.16,0-.33.05-.49a6.67,6.67,0,0,1,1.07-.19c5.63-.1,11.26-.21,16.89-.24.47,0,.94.57,1.41.87-.38.33-.72.86-1.16.95-5,1-10,2.1-15,2.94a69.78,69.78,0,0,1-27.43-.39c-3.68-.85-3.8-.85-4.17-4.66-.63-6.6-.62-5.64,4.68-6.93,6.26-1.52,12.62-1.17,18.94,0,7.94,1.43,15.89,2.82,23.83,4.23a7.21,7.21,0,0,1,1,.44c-.56.55-1,1.3-1.39,1.31-6.21.07-12.42.05-18.63.05l-.09-.86,2.92-.56A4.57,4.57,0,0,0,514.52,365Zm30,4.41c-.66-.06-1.33-.09-2-.15-3-.26-3.4-.77-2.63-3.7a2.19,2.19,0,0,1,1.37-1.27c1.27-.35,2.67-.27,3.89-.71,2-.71,2.5.23,2.58,1.92l0,.82C547.77,369.12,547.18,369.64,544.53,369.38ZM194.47,671.88V419.19c-2.63,1.42-4.2,2.76-4.14,6,.25,11.86.1,23.72.1,35.58V675.54a23.52,23.52,0,0,1,15.26,6.69c4.28,4.16,6.94,9,6.31,15.32h4.8c38,0,75.93,0,113.89.09,3.4,0,4.89-2.13,6.83-4.23H216C213.16,681.76,206.78,674,194.47,671.88Zm385.92.12V425.11c0-3.49-.56-4.31-4.18-5.77V672.13c-5.9.42-10.39,3.07-14.16,7a25.36,25.36,0,0,0-7,14.35h-122c2.46,3.27,4,4.07,7.51,4.07H558.48c1-13.92,9.48-20,21.91-22.28ZM191.23,76.44v237c0,3.06.86,4.22,4.17,5.41V76.24c12.3-2.22,18.66-10,21.34-21.65H338.62c-2.35-2.69-4.65-4.4-8.31-4.1-4.48.37-9,.09-13.5.09H213.15c-.92,13.77-9.33,19.92-21.92,22.29Zm385.91-.18V318.94c2.81-1.31,4.25-2.87,4.14-6.13-.28-8.54-.09-17.09-.09-25.64V72.88c-12.58-2.36-21-8.51-21.93-22.29h-3.83c-38.16,0-76.33,0-114.49-.09-3.39,0-4.92,2.09-7.45,4.2H555.68C558.44,66.37,564.83,74.1,577.14,76.26ZM355.59,125.77h59.35V76.17H355.59Zm4.08-45.51h51.24v41.33H359.67Zm9.5,539.51a2.88,2.88,0,0,0-2,.75c-.4.32-.49,1.06-.64,1.63-1.08,4.3-2.14,8.6-3.22,12.9-.89,3.56-1.8,7.11-2.85,11.23-1-3.32-1.74-6.08-2.78-8.72a4.4,4.4,0,0,0-2.36-2.48c-1.48-.41-2,1.1-2.47,2.31-1,2.78-2.05,5.56-3.21,8.68-.26-.77-.43-1.17-.52-1.59-1.21-5.83-2.39-11.67-3.62-17.5a21.7,21.7,0,0,0-1.18-4.39c-.33-.72-1.36-1.11-2.08-1.65a7.71,7.71,0,0,0-1.21,2.15,7.37,7.37,0,0,0,.2,2.75q2.67,13.93,5.41,27.87c.25,1.24.47,2.58,2.09,2.76s2.24-1.09,2.7-2.37q1.69-4.65,3.37-9.3l.4,0q1.44,4.73,2.87,9.46c.42,1.37.89,2.77,2.7,2.65s2-1.48,2.3-2.82q3.65-15.66,7.32-31.31a2.79,2.79,0,0,0,.1-1.55C370.2,620.67,369.69,619.86,369.17,619.77ZM505.72,126.55c-.39-.1-.8-.1-1.16-.23a82.47,82.47,0,0,1-9.95-3.76,7.77,7.77,0,0,1-3.12-4.29c-.79-2.43-.89-5.07-1.31-7.62-.55-3.41-1.12-6.82-1.69-10.24a1.13,1.13,0,0,0-.66.85c-.79,4.84-1.87,9.65-2.27,14.52-.38,4.59-2.87,7.07-6.79,8.59-1.6.62-3.27,1.08-4.92,1.54-1.11.31-2.25.5-3.38.75l0,.31a9.19,9.19,0,0,1,1.29.25c3.24,1.11,6.54,2.08,9.67,3.44a6.46,6.46,0,0,1,3.82,5.45c.26,2.17.62,4.32,1,6.48.57,3.56,1.17,7.11,1.76,10.66a1.42,1.42,0,0,0,.65-1c.9-5.49,1.67-11,2.75-16.46a7.87,7.87,0,0,1,2.35-4.14,17.73,17.73,0,0,1,5.36-2.91,70.53,70.53,0,0,1,6.81-1.88C505.86,126.74,505.81,126.57,505.72,126.55ZM409.53,654.3c.69,1.15,1.78,2.28,3.26,1.3s.8-2.3.07-3.49c-.1-.17-.22-.33-.32-.5-1.43-2.46-2.8-5-4.31-7.36-.84-1.33-.67-2.07.41-3.33a25.74,25.74,0,0,0,4.56-7.08,10.84,10.84,0,0,0-3.78-13.09c-3.91-2.6-9.86-2.11-13.66,1.24a3.42,3.42,0,0,0-1.19,2.29c0,.5,1.1,1,2.07,1.78,0,.83,0,2,0,3.2q.39,12.32.8,24.61c.05,1.24.49,2.3,1.93,2.27s1.8-1.13,1.82-2.37a57.4,57.4,0,0,0,.05-6.15c-.21-2.25.78-3.11,2.94-3.2.29.61.56,1.28.91,1.91C406.55,649,408,651.69,409.53,654.3Zm-8.09-13.45a3.48,3.48,0,0,1-.2-.68c-.25-5.48-.49-10.95-.73-16.46,5.4-2.33,8.9,1.36,9,5.24A12.34,12.34,0,0,1,401.44,640.85Zm36.21-9.65c-.41-5-2.28-9.36-7.09-11.6-4.41-2.06-8.8-1.41-12.8,1.3-.67.45-1,1.42-1.45,2.15l2.11,1.36c.2,6.61.36,13.36.62,20.1.11,3,.3,6.09.66,9.11.25,2.06,1.66,2.77,3.38,2C431.53,651.89,438.41,640.4,437.65,631.2Zm-4.35,2.16c-.11,6.27-4.26,14.16-9.13,17.17-.54-9.35-1.06-18.52-1.59-27.78,2.68-1.39,6.69-.25,8.68,2.66A13.15,13.15,0,0,1,433.3,633.36Zm-99.66,4.94c-1.28-.93-2.7-1.69-3.94-2.68a60.8,60.8,0,0,1-5.2-4.56,2.67,2.67,0,0,1-.57-2.26c.52-1.75,3.41-3.51,5-3.32,2.11.25,3,1.35,3.69,4,.17.66,1,1.59,1.54,1.59s1.71-.86,1.75-1.41a9,9,0,0,0-.49-4.37c-2-4.13-7.51-5.34-11.66-2.78-5,3.11-6.37,7.68-3,11.77,2,2.47,4.68,4.43,7.09,6.58,1.27,1.15,3,2,3.87,3.35,2.76,4.36,2.71,7.93-2.68,8.94-2.31.43-3.92-.65-5.16-2.54a2.52,2.52,0,0,0-3.59-1c-1.27.7-1.49,2.29-.51,3.85a9.36,9.36,0,0,0,7.41,4.61c6.08,0,10.72-3.08,11.28-7.43C339.07,645.68,337.87,641.35,333.64,638.3ZM387,653.69c4.55-4.4,5.75-10.1,5.88-16.15a26.56,26.56,0,0,0-2.17-10.82c-2.92-7-12.24-7-15.93-1.31a24.24,24.24,0,0,0-3.77,9.93c-.62,4.37-.62,8.75,1,12.92a17.67,17.67,0,0,0,2.77,4.78C378.31,657.15,383.18,657.41,387,653.69Zm-12-17.33c.36-3.38,1.16-6.74,3.36-9.4,3.64-4.4,5-4,7.93.11,2.08,2.9,2.51,6.34,2.53,9.83l.56.16c-1,3.39-1.85,6.81-2.93,10.16a8.25,8.25,0,0,1-1.89,2.76c-2.38,2.59-5.17,2.37-7.05-.63C375.08,645.37,374.59,640.93,375.07,636.36ZM283.62,136.63a5.78,5.78,0,0,1-3.45-5.19c-.14-1.9-.56-3.79-.87-5.69-.47-2.83-1-5.67-1.44-8.5a3.2,3.2,0,0,0-.76,1.71c-.65,3.91-1.53,7.81-1.85,11.76-.29,3.57-2.22,5.59-5.22,6.81-2.06.83-4.28,1.31-6.43,1.95-.38.11-.75.26-.81.27,2.89,1.1,6,2.12,8.88,3.44,2.12.95,3.14,2.8,3.46,5.2.62,4.71,1.47,9.38,2.23,14.07l.55,0c.71-4.43,1.66-8.83,2.08-13.29.35-3.81,2.47-5.87,5.69-7.11,2.24-.87,4.6-1.45,7.17-2.24-.62-.17-1-.26-1.44-.4C288.81,138.53,286.13,137.77,283.62,136.63Zm160.89,390.5c2.36-.93,4.85-1.56,7.46-2.38-.53-.14-1-.22-1.35-.36-2.78-1-5.63-1.86-8.3-3.09-1.9-.86-2.78-2.63-3.07-4.79-.64-4.77-1.49-9.51-2.25-14.26l-.53,0c-.74,4.49-1.72,9-2.14,13.48-.34,3.57-2.26,5.57-5.24,6.79-2,.82-4.16,1.28-6.24,1.91-.38.12-.75.26-1.55.54,1.51.32,2.54.51,3.57.76,7,1.7,8.65,3.54,9.74,10.53.58,3.75,1.25,7.49,1.88,11.24a3,3,0,0,0,.77-1.7c.64-3.92,1.5-7.81,1.84-11.76C439.41,530.35,441.44,528.34,444.51,527.13Zm3.6,129c4.92.12,8.4-2.3,9.1-8.9.5-4.75-1.85-8.39-5.19-11.52a55.27,55.27,0,0,1-4.9-4.9,8.26,8.26,0,0,1-1.69-3.72c-.28-1.64-.07-3.43,1.85-4.17a3.63,3.63,0,0,1,4.51,1.57,36.89,36.89,0,0,1,2,3.86,12.2,12.2,0,0,0,1.07,1.44c.37-.62,1.08-1.25,1.06-1.87a9.3,9.3,0,0,0-3-7.11c-3.41-3-9-1.91-10.65,2.27-1.19,3-1.34,6.16.55,9a65.77,65.77,0,0,0,4.86,6c1.21,1.4,2.68,2.59,3.77,4.08a7.54,7.54,0,0,1,.93,7.71c-.82,2-2.53,2.92-5,2.56-1.93-.28-2-1.92-2.17-3.32s-.4-2.57-2.11-2.53c-1.3,0-2.23,1.48-2.1,3.11A6.86,6.86,0,0,0,448.11,656.12Zm-33.7-597c2.62,1,4.33-.86,3.53-3.57a37.63,37.63,0,0,0-1.51-3.68c3.38-.52,6.72-.93,10-1.6,1.75-.35,3.69-1.1,3.7-3.28s-2.05-2.68-3.68-3c-3.68-.69-7.42-1.09-11.17-1.62.58-1.32,1.37-2.78,1.89-4.33s.86-3.37-.86-4.5-3.24-.3-4.3.88a40.15,40.15,0,0,0-5.44,7C402.1,49.36,408.56,57,414.41,59.12Zm-.12-22.78.69.35a36.52,36.52,0,0,1-2.85,6c-.59.86-2.26,1-3.44,1.43-.1-.17-.21-.33-.31-.49A18.58,18.58,0,0,1,414.29,36.34Zm13,10.06c-3,2.55-15.5,2.81-20,.37C414.25,44.78,420.61,45.08,427.33,46.4ZM415.47,57c-3.39-1.11-5.31-3.47-7-6.07C411.86,50.05,414.66,52.15,415.47,57Zm75.08,582c-.13-2.2-2.19-2.87-4-3.22-3.17-.61-6.38-1-9.69-1.5a16.16,16.16,0,0,0,1.43-3.45c.17-1.06.14-2.68-.5-3.21a4,4,0,0,0-3.41-.38,14.57,14.57,0,0,0-8.09,8.31,10.38,10.38,0,0,0-.67,4.06c.19,4.65,2.78,8.15,5.89,11.31a8.24,8.24,0,0,0,2.77,1.86c2,.8,3.82-.41,3.61-2.5a24,24,0,0,0-1.47-5.07,8.89,8.89,0,0,0-.76-1.47c3.74-.5,7.4-.87,11-1.54C488.39,641.83,490.69,641.4,490.55,639Zm-14.69-9.83c-.73,4.5-2.78,6.54-7.09,6.33C470.47,632.66,472.46,630.34,475.86,629.13Zm-7,13.09c3.81.48,5.82,2.91,6.19,7.28C473.06,649,470.25,645.77,468.86,642.22Zm-.63-3.12c3.79-2.1,15.42-2,19.19.09C484.85,641.31,472,641.31,468.23,639.1ZM344.7,49.76a28.08,28.08,0,0,0,6.13,1.45c1.71.28,3.45.31,5.27.46a17.21,17.21,0,0,0-1.52,3.66c-.17,1.05-.13,2.67.51,3.19a3.88,3.88,0,0,0,3.41.38,14.67,14.67,0,0,0,8.4-9.21,8,8,0,0,0,.43-2.73c-.31-5.29-3.1-9.27-7-12.59-1.23-1.06-2.72-1.88-4.33-.77s-1.33,2.8-.83,4.33a45.53,45.53,0,0,0,1.86,4.34c-4.1.7-8.19,1.32-12.24,2.11-1.31.26-2.81,1.08-2.49,2.59A4.46,4.46,0,0,0,344.7,49.76Zm12.41,6.92c.1-2.89,2-6.32,7-6.1C361.8,54.36,359.53,56.33,357.11,56.68Zm7-12.8c-3.93-.44-6.11-3.1-6.35-7.78A19.17,19.17,0,0,1,364.15,43.88Zm.38,3.12c-3.35,2.15-15.84,2-19.1-.2C348.63,44.73,361.39,44.87,364.53,47ZM598.18,392.36a40.41,40.41,0,0,0-7.25-5.71c-7.88-4.42-15.48,2-17.62,7.89-.95,2.6.88,4.3,3.58,3.5a36.44,36.44,0,0,0,3.67-1.5c.53,3.37.93,6.7,1.59,10,.36,1.75,1.1,3.67,3.26,3.71s2.7-2,3-3.64c.69-3.68,1.09-7.41,1.63-11.18,1.37.59,3,1.41,4.62,1.95,1.47.47,3.09.66,4.16-.86A3,3,0,0,0,598.18,392.36Zm-22.73,3.15c1.24-3.4,3.55-5.4,6.37-7.08C582,392.85,579.83,394.84,575.45,395.51Zm10.27,11.74c-2.31-3.46-2.43-16-.28-19.24C587.48,391,587.71,402.92,585.72,407.25Zm2.9-18.86a19.39,19.39,0,0,1,7.67,6.28C591.68,394.59,588.83,392.21,588.62,388.39ZM299.24,652.17a3.1,3.1,0,0,0,4-.66,37.57,37.57,0,0,0,4.88-5.66c5.5-8.14.38-15.71-6.21-18.92a4.64,4.64,0,0,0-3.65.15c-1.39.72-1,2.3-.5,3.57s.95,2.22,1.55,3.61a21.37,21.37,0,0,0-3.24,0,60.89,60.89,0,0,0-8.31,1.7,3.88,3.88,0,0,0-2.21,2.81c-.06.79,1.38,1.8,2.32,2.48a5.44,5.44,0,0,0,2.44.77c3.32.43,6.65.77,10,1.15-.63,1.48-1.46,3.12-2,4.85C297.81,649.52,297.68,651.15,299.24,652.17Zm1.69-2.58c.3-4.7,2.38-7.25,6.36-7.81A18.83,18.83,0,0,1,300.93,649.59Zm6.25-14.43c-4.89,0-6.54-2.83-7-6C302.46,629.16,305.1,631.41,307.18,635.16Zm-18.86,3.39a37.28,37.28,0,0,1,19.61-.15C304.81,640.9,291.11,641,288.32,638.55ZM181.22,397.63c.55,3.56,1.05,7.15,1.84,10.66a3.07,3.07,0,0,0,2.21,1.86,3.28,3.28,0,0,0,2.45-1.52,12.74,12.74,0,0,0,1.47-4.27c.45-2.57.64-5.19.95-7.89a15.25,15.25,0,0,0,3.45,1.42c1.12.17,2.76.15,3.37-.51a3.85,3.85,0,0,0,.31-3.41,14.68,14.68,0,0,0-8.68-8.19,8.46,8.46,0,0,0-3.29-.57c-5.23.27-9.14,3.08-12.47,6.83-1.06,1.21-2,2.71-.93,4.33s2.87,1.46,4.47.92,3.12-1.33,4.83-2.08A16.11,16.11,0,0,0,181.22,397.63Zm7.76-9.19a13.27,13.27,0,0,1,6.38,7C192.08,395.28,188.76,393.33,189,388.44Zm-3.43-.4a34.68,34.68,0,0,1,0,19.32C183.19,404.61,183.18,391.8,185.55,388Zm-10.81,6.73c1.16-2.45,4.62-5.26,7.47-6.15C182,392.28,179.59,394.28,174.74,394.77Zm414.87-59.39c-.38-3.21-.68-6.43-1.27-9.6-.3-1.57-.87-3.48-3-3.39-2,.09-2.6,1.84-3.11,3.43a19.73,19.73,0,0,0-.8,3.48c-.28,2.22-.44,4.46-.67,6.93-1.19-.54-2.18-1.07-3.22-1.45-1.33-.49-3-1-3.75.49a5,5,0,0,0,0,3.85,14.46,14.46,0,0,0,7.68,7.41,10.2,10.2,0,0,0,4.23.86c5.1-.22,8.91-3,12.19-6.63,1.16-1.28,2.22-2.88.95-4.64s-3.08-1.24-4.72-.67c-1.48.51-2.86,1.27-4.46,2A17.62,17.62,0,0,0,589.61,335.38Zm-14.08,2c3.43-.57,6.22,2.5,6.29,6.87C579,342.52,576.68,340.52,575.53,337.34Zm10.17,7.6c-2.39-3.36-2.32-15.89.17-19.39C587.34,331.93,587.67,338.29,585.7,344.94ZM595.94,338c-.87,2.13-4,4.71-7.36,6.1A6.86,6.86,0,0,1,595.94,338ZM357.18,689c-2.51-.92-4.25.82-3.54,3.39a35.85,35.85,0,0,0,1.54,3.87c-3.37.52-6.7.93-10,1.59-1.74.35-3.67,1.1-3.71,3.26s2,2.7,3.65,3c3.67.69,7.4,1.1,11.18,1.63-.57,1.31-1.37,2.83-1.9,4.44s-.78,3.21.81,4.33,3.23.41,4.29-.76a40,40,0,0,0,5.56-7.12C369.5,698.74,363,691.15,357.18,689Zm.1,22.86-.69-.38a41.71,41.71,0,0,1,3-6.21c.55-.8,2.21-.84,3.37-1.23l.33.4A19.08,19.08,0,0,1,357.28,711.87Zm-12.65-10.51a29.52,29.52,0,0,1,19.07-.21A31.9,31.9,0,0,1,344.63,701.36Zm11.56-10.19c3.41,1.15,5.37,3.52,7.1,6.28C359.23,697.68,356.57,695.43,356.19,691.17Zm-172-343.94c5.18.55,12.31-4.33,13.38-9.38.52-2.43-1-4-3.35-3.34a39,39,0,0,0-4.28,1.68,17.65,17.65,0,0,0-.11-1.92A85.32,85.32,0,0,0,188.2,325a4.44,4.44,0,0,0-2.87-2.5c-1.5-.34-2.28,1.21-2.56,2.51-.62,2.9-1.11,5.82-1.53,8.75a26.49,26.49,0,0,0,0,3.68c-1.85-.78-3.43-1.6-5.11-2.13-1.46-.46-3.09-.64-4.13.91s-.33,3,.68,4.17C175.75,343.87,179.25,346.71,184.23,347.23Zm11.12-10.09c-1.19,3.36-3.52,5.35-6.31,7.07C189,340,191.24,337.35,195.35,337.14Zm-10.15-11.6c2.22,3.27,2.34,15.76.19,19.09C183.25,341.49,183.12,328.71,185.2,325.54Zm-2.95,18.72a19.09,19.09,0,0,1-7.66-6.25C178.79,337.88,181.89,340.4,182.25,344.26ZM426.77,698.32A23.17,23.17,0,0,0,421,697c-1.78-.28-3.6-.33-5.49-.48a18,18,0,0,0,1.52-3.66c.17-1.06.13-2.68-.51-3.21a4,4,0,0,0-3.42-.37,14.51,14.51,0,0,0-8,8.14,10.43,10.43,0,0,0-.74,4.24c.18,4.65,2.78,8.15,5.89,11.31a8.24,8.24,0,0,0,2.77,1.86c2,.79,3.81-.42,3.6-2.52a23.6,23.6,0,0,0-1.48-5.07,13.52,13.52,0,0,0-1-1.86,21.09,21.09,0,0,0,2.41,0c3.39-.48,6.79-.93,10.15-1.56,1.31-.24,2.86-1,2.53-2.55A4.82,4.82,0,0,0,426.77,698.32Zm-12.11-7.18c-.81,4.18-2.29,6.38-7.13,6.46A13.16,13.16,0,0,1,414.66,691.14Zm-7,13.25c3.52-.06,6,2.94,6.08,7.28C411.64,710.85,408.88,707.56,407.69,704.39Zm-1.1-3.52a37.74,37.74,0,0,1,19.93.14C423.4,703.36,410.6,703.32,406.59,700.87ZM187.07,682.33c-1.4.14-2.77.67-3.1,2.33s.7,2.82,2,3.51c1.69.87,3.5,1.51,5.36,2.29-.44.41-.92.84-1.39,1.29-2.89,2.77-5.54,5.73-6.9,9.57-.73,2.09.34,3.5,2.51,3.25a7.45,7.45,0,0,0,3.31-1.15c2.67-1.79,5.22-3.76,7.84-5.69.35,1,.67,2.12,1.15,3.19.58,1.29,1.38,2.84,3,2.34a5.19,5.19,0,0,0,2.77-2.65,13.33,13.33,0,0,0,.91-4.83c.13-3.47-.53-6.9-3.11-9.34C197.43,682.67,192.39,681.8,187.07,682.33Zm0,3.3c3.42-1,6.6-.3,9.81,1.22-1.15.53-2.43,1.67-3.44,1.47A22.26,22.26,0,0,1,187.08,685.63Zm-1.67,16.06c1.63-4.29,9.83-12.13,13.92-13.42C199.09,691.7,189.8,700.75,185.41,701.69Zm15.63-.85c-2.33-3.09-3-6.26.62-9.68C202.41,694.48,202.58,697.62,201,700.84Zm384.23-4c-1.75-2.29-3.77-4.38-5.47-6.32a41.24,41.24,0,0,0,6.06-3.23c1.93-1.44,1.37-4-1-4.59a16.53,16.53,0,0,0-5.48-.37c-3.94.35-7.83,1.34-10.39,4.56-3.43,4.32-3.5,9.3-1.6,14.28a3.81,3.81,0,0,0,2.71,2.06c.84,0,2-1.08,2.6-2a16.26,16.26,0,0,0,1.38-3.52c2.6,1.91,5.13,3.9,7.81,5.68a8,8,0,0,0,3.51,1.16,2.12,2.12,0,0,0,2.35-3.06A18.42,18.42,0,0,0,585.27,696.83Zm-1.19-11.46c-4.63,3.34-6.91,3.56-10.28,1.08A18.59,18.59,0,0,1,584.08,685.37Zm-14.25,15.41c-1.68-3.11-1.3-6.26-.76-9.47C572.25,693.83,572.67,696.89,569.83,700.78Zm1.56-12.4c6.11,2.85,10.51,7.49,13.85,13.24A30,30,0,0,1,571.39,688.38ZM185.45,50c2.07,2.72,4.31,5.3,6.38,7.82-1.58.68-3.45,1.35-5.19,2.26a3.08,3.08,0,0,0-1.87,3.41,2.91,2.91,0,0,0,3.09,2.31,38.34,38.34,0,0,0,7.65-.59c9.54-1.93,11.31-10.74,8.85-17.84a4.67,4.67,0,0,0-2.69-2.48c-1.51-.5-2.33.94-2.9,2.15s-.86,2.33-1.24,3.37c-2.66-1.94-5.25-4-8-5.77A7.71,7.71,0,0,0,186,43.55a2.08,2.08,0,0,0-2.25,2.87A11.44,11.44,0,0,0,185.45,50ZM188,62.92c-.08-.24-.15-.48-.22-.73a39.44,39.44,0,0,1,6.48-2.37c1-.2,2.29.93,4,1.72C194.49,62.88,191.31,63.45,188,62.92Zm13.86-15.58c1.52,3.26,1.3,6.35.66,9.51C199.13,54.14,199.18,50.66,201.85,47.34Zm-1.49,13a40.25,40.25,0,0,1-14.42-13.75C189.88,46.83,199.3,55.73,200.36,60.31ZM584.57,65.8c1.39-.13,2.76-.68,3.08-2.34a3.07,3.07,0,0,0-1.89-3.4c-1.73-.91-3.59-1.59-5.5-2.4.45-.41.93-.84,1.4-1.29,2.89-2.77,5.53-5.73,6.88-9.58.73-2.08-.38-3.61-2.52-3.2a13.68,13.68,0,0,0-4.85,2.06C579,47.09,577,48.86,575,50.49a34.08,34.08,0,0,0-1.64-4c-1.37-2.44-3.86-2.42-5,.13A16.58,16.58,0,0,0,567.11,52c-.27,3.6.42,7.16,3.1,9.72C574.19,65.51,579.26,66.33,584.57,65.8Zm0-3c-3.49.72-6.65,0-9.9-1.06C577.51,59.23,581.51,59.65,584.59,62.82Zm1.62-16.42c-1.5,4.18-9.63,12-13.89,13.48C572.4,56.59,581.61,47.54,586.21,46.4Zm-15.63,1C573.22,50,573,53.27,570,57,569.2,53.67,569,50.53,570.58,47.39Zm-192.3,9.69a2.68,2.68,0,0,0,2.25.59c.47-.19.57-1.36.79-2.11.54-1.78.69-3.8,1.66-5.3,1.52-2.33,3.8-2.38,5.93-.56a6.65,6.65,0,0,1,2.22,5.87c-.05.69.17,1.86.58,2A3.1,3.1,0,0,0,394,57.2a5.77,5.77,0,0,0,1.62-1.71,11.4,11.4,0,0,0-12.79-17.37c-4.82,1.52-8,5.81-8.06,12.26A9.82,9.82,0,0,0,378.28,57.08Zm3.59-14.6c3-2,6.18-1.84,9.32.59A6.72,6.72,0,0,1,393.53,51c-4.57-8.75-11.54-6.39-14.64.18A7.3,7.3,0,0,1,381.87,42.48ZM393.22,691a2.79,2.79,0,0,0-2.29-.42c-.4.14-.48,1.29-.63,2-.32,1.46-.16,3.25-1,4.31-1,1.29-2.75,2.65-4.22,2.71-1.22,0-2.86-1.54-3.67-2.81s-.59-2.87-.88-4.33c-.13-.66-.21-1.67-.62-1.86a2.32,2.32,0,0,0-2.11.23,14.07,14.07,0,0,0-2.85,3.73A11.05,11.05,0,0,0,377.15,707a11.6,11.6,0,0,0,12.4,2.8c4.39-1.75,7.25-5.9,7.31-12.06A9.81,9.81,0,0,0,393.22,691Zm-2.65,14c-3.15,2.52-6.29,2.81-9.3.86s-4.24-5.06-3.13-9c1.39,3.61,3.75,6,7.24,6.11,3.69.12,5.79-2.63,7.27-5.89A6.73,6.73,0,0,1,390.57,704.92ZM581.3,370.21a24.62,24.62,0,0,1-4.35,1c-.76.17-2.07.31-2.14.66a3.19,3.19,0,0,0,.62,2.43,9.74,9.74,0,0,0,6.64,3.43c7.21,0,12-4.35,12.78-10.25a11.6,11.6,0,0,0-8.76-12.31,10.5,10.5,0,0,0-10.81,3.28,2.77,2.77,0,0,0-.47,2.28c.12.4,1.27.52,2,.69a4.83,4.83,0,0,0,1-.09c2.69,0,5.54,1.9,6.19,4.17C584.35,366.87,583.11,369.4,581.3,370.21Zm.16-11.19a7,7,0,0,1,8.07,2.38,7.34,7.34,0,0,1,.38,9.17c-2,3-4.86,4.12-8.61,3.09C588.9,370,589.29,363.07,581.46,359Zm-388.81,2.35a6.52,6.52,0,0,0,1,0c.86-.21,1.71-.49,2.56-.74a8.09,8.09,0,0,0-1.07-2.56,10,10,0,0,0-3-2.16A11.18,11.18,0,0,0,179.59,358a11.61,11.61,0,0,0-2.83,12.56,11.49,11.49,0,0,0,10.68,7.2,10.07,10.07,0,0,0,7.52-3,9.37,9.37,0,0,0,1.18-2.87,10.5,10.5,0,0,0-2.64-.57c-3.11.15-6.53-2.32-6.72-5C186.63,364.1,189.63,361.57,192.65,361.37Zm-2.92,12.19c-3.76,1.16-6.65.13-8.67-2.79-2.14-3.1-2.11-6.26.09-9.17a7.12,7.12,0,0,1,8.5-2.5c-3.53,1.34-5.93,3.73-6,7.27S186.2,372.11,189.73,373.56ZM234.06,581c.26,2.85.9,5.67,1.37,8.51l.45-.08a73,73,0,0,0,1.29-8c.17-2.84,1.68-4.34,4.07-5.27,1.33-.51,2.72-.87,4.44-1.42-1.39-.36-2.39-.57-3.36-.88-3-.93-5.1-2.48-5.2-6.09a54.64,54.64,0,0,0-1.28-7.64,32,32,0,0,0-1.54,7c-.53,4.84-1.56,5.71-7.18,7.24-.4.1-.8.16-1.71.34,1.89.58,3.28,1,4.62,1.45C232.28,577,233.82,578.37,234.06,581Zm73.79-79c-3.13-1-5.42-2.47-5.48-6.31,0-2.5-.81-5-1.26-7.49a4.05,4.05,0,0,0-.78,2c-.38,2.28-.83,4.55-1.06,6.85a4.85,4.85,0,0,1-3.22,4.16c-1.52.65-3.13,1.08-4.92,1.69a6.73,6.73,0,0,0,1.06.38c4.95.78,7.64,3.4,7.57,8.67,0,1.89.65,3.79,1,5.69l.36,0a70.22,70.22,0,0,0,1.3-7.94c.16-3,1.73-4.57,4.32-5.49,1.27-.44,2.55-.83,4.21-1.37C309.62,502.47,308.72,502.3,307.85,502ZM539,169.66c-4.78-.9-6.23-2.35-7-7.1-.42-2.39-.8-4.79-1.2-7.18a33.87,33.87,0,0,0-1.52,6.81c-.65,4.8-2.35,6.61-7.17,7.47l-1,.24a5.74,5.74,0,0,0,2.17.95c2.92.92,5.55,2,5.82,5.79.2,2.74.86,5.44,1.35,8.4.27-.39.4-.48.42-.6.47-2.73,1.06-5.45,1.35-8.21a5.16,5.16,0,0,1,3.55-4.56c1.43-.58,2.92-1,4.93-1.68ZM494,581.93a61.24,61.24,0,0,0,1,6.12h.47c.21-1.28.46-2.54.62-3.82.6-4.78,1.37-5.82,5.16-6.88.52-.15,1-.36,1.92-.68l-1-.18c-3.85-.65-5-1.76-5.71-5.55-.34-1.78-.67-3.55-1-5.33a24.49,24.49,0,0,0-1.49,6.41c-.18,2.17-1.53,3.11-3.24,3.8-.92.37-1.9.59-3.24,1,1.05.31,1.75.48,2.41.72C492,578.29,493.87,579.19,494,581.93Zm-17.8-180.48a39.66,39.66,0,0,0-1-5.75l-.27,0c-.15.75-.35,1.48-.45,2.23-.51,4.21-.87,8.51-6.51,9-.06,0-.09.2-.24.57,5,.19,6.31,3.52,6.56,7.75a26.24,26.24,0,0,0,.62,3.37,15.35,15.35,0,0,0,.95-4.33c.26-3.3,1.34-5.9,5-6.55a10.25,10.25,0,0,0,1.7-.63c-.93-.29-1.47-.47-2-.62C478.09,405.75,476.3,404.5,476.24,401.45ZM240.67,420.36l0-.38a8.64,8.64,0,0,1-.91-.15c-2.94-.75-5.31-1.91-5.34-5.58a34.29,34.29,0,0,0-.9-5.44,25.38,25.38,0,0,0-1.36,6.17c-.22,2.51-1.7,3.74-3.88,4.44-.72.23-1.46.42-2.47.71a5.41,5.41,0,0,0,1.06.52c3.68.63,5.5,2.74,5.55,6.53a27.91,27.91,0,0,0,.79,4.56,18.52,18.52,0,0,0,1.2-5.46c.06-3.49,2.16-4.86,5.12-5.55C239.94,420.64,240.3,420.48,240.67,420.36ZM442.09,200.73a35.3,35.3,0,0,0-.91-5.44,29.45,29.45,0,0,0-1.44,6.56,4.24,4.24,0,0,1-3.09,3.71c-.95.37-1.94.64-2.92,1,0,0,0,.14,0,.17a1.34,1.34,0,0,0,.5.31c3.91.65,5.88,2.84,5.83,6.91a20.12,20.12,0,0,0,.78,4.14,28.63,28.63,0,0,0,1.35-6.31,4.39,4.39,0,0,1,3.08-4c1-.41,2.07-.73,3.56-1.26-.94-.16-1.38-.2-1.8-.32C444.29,205.42,442.16,204.13,442.09,200.73Zm20.48,357.39a3.23,3.23,0,0,0-3.31,3.19,3.44,3.44,0,0,0,3.25,3.12,3.62,3.62,0,0,0,3.33-3.31A3.19,3.19,0,0,0,462.57,558.12ZM376.19,164.06a3.06,3.06,0,0,0,3-3.24,3,3,0,0,0-3.23-3,3.13,3.13,0,1,0,.23,6.25ZM221.8,496.87a3.27,3.27,0,0,0,3.31,3.21,3,3,0,0,0,3-3,3.13,3.13,0,0,0-3.18-3.28A3,3,0,0,0,221.8,496.87ZM347.13,161.4a3.16,3.16,0,0,0-3.32,3.18,3.06,3.06,0,0,0,3.15,3.09,3.1,3.1,0,0,0,3.21-3.06A3,3,0,0,0,347.13,161.4ZM504.67,541.11a3,3,0,0,0-2.89-3.13,3.34,3.34,0,0,0-3.63,3.08,3.19,3.19,0,0,0,3.11,3.17A3.34,3.34,0,0,0,504.67,541.11Zm-116.74,34a3.19,3.19,0,1,0,6.38.23,2.92,2.92,0,0,0-3.07-3.13A3,3,0,0,0,387.93,575.1Zm-58-7a3.32,3.32,0,0,0,3.43,3.12,3.24,3.24,0,0,0,3.15-3.15,3.29,3.29,0,0,0-3.43-3.09A3.17,3.17,0,0,0,329.94,568.15Zm46.59,3.65a3.17,3.17,0,0,0-3.2,3.3,3.18,3.18,0,0,0,6.34-.13A3.18,3.18,0,0,0,376.53,571.8Zm-32.22-.45a3,3,0,0,0,3,3.17,2.87,2.87,0,0,0,3.24-2.91,3.14,3.14,0,1,0-6.28-.26ZM308.45,177.48a3.19,3.19,0,0,0-3.24-3.07,3.33,3.33,0,0,0-3.29,3.29,3.23,3.23,0,0,0,3.15,3A3.39,3.39,0,0,0,308.45,177.48Zm100-16.17a3.09,3.09,0,0,0-3.25-3,3.14,3.14,0,0,0-3.19,3.11,3.28,3.28,0,0,0,3.38,3.16A3.17,3.17,0,0,0,408.47,161.31Zm-37.24,83.53a3.2,3.2,0,0,0-3-3.1,3.26,3.26,0,0,0-3.39,3.15,3.2,3.2,0,0,0,6.4,0Zm34.51,332.69a3,3,0,0,0,3.2-3,3.24,3.24,0,0,0-3.11-3.22,3.31,3.31,0,0,0-3.32,3.24A3.07,3.07,0,0,0,405.74,577.53ZM208.39,476.11a3.23,3.23,0,0,0,3.17-3.16,3.4,3.4,0,0,0-3.19-3.42,3.36,3.36,0,0,0-3.13,3.25A3.6,3.6,0,0,0,208.39,476.11Zm257-301.53a3.37,3.37,0,0,0-3.35-3.24,3.2,3.2,0,0,0-3.09,3,3.22,3.22,0,0,0,6.44.22Zm-128.51,304a3.19,3.19,0,0,0-3,3.08,3.31,3.31,0,0,0,3.28,3.27,3.24,3.24,0,0,0,3.12-3.18A3.37,3.37,0,0,0,336.87,478.63Zm170.69-146.3a3.23,3.23,0,0,0,.06,6.46,3.2,3.2,0,0,0,3.19-3.12A3.35,3.35,0,0,0,507.56,332.33ZM279.22,187.87A3.29,3.29,0,0,0,276,191a3.2,3.2,0,0,0,3.17,3.16,3.48,3.48,0,0,0,3.32-3.3A3.15,3.15,0,0,0,279.22,187.87Zm166.33,378a3.06,3.06,0,0,0,2.95,3.29,3.21,3.21,0,0,0,3.43-3.07,3,3,0,0,0-3.06-3.17A3.12,3.12,0,0,0,445.55,565.88Zm55.71-144.44a3.32,3.32,0,0,0,3.22-3.33,3.26,3.26,0,0,0-3.24-3.07,3.41,3.41,0,0,0-3.12,3.25A3.19,3.19,0,0,0,501.26,421.44ZM263.86,199.19a3.1,3.1,0,0,0,3.22,3,3.24,3.24,0,0,0,3.12-3.2,3.06,3.06,0,0,0-3.1-3.15A3.3,3.3,0,0,0,263.86,199.19ZM459,471.85a3.14,3.14,0,0,0-3.09-3.19,3.51,3.51,0,0,0-3.29,3.33,3.19,3.19,0,0,0,3.07,3A3.11,3.11,0,0,0,459,471.85Zm-49,18.94a3.21,3.21,0,0,0-6.4.11,3.18,3.18,0,0,0,3.14,3.17A3.26,3.26,0,0,0,410,490.79Zm121.89-268.3a3.44,3.44,0,0,0,3.41,3.17,3.08,3.08,0,0,0,2.89-3.18,3.33,3.33,0,0,0-3.29-3.27A3.16,3.16,0,0,0,531.86,222.49ZM315.8,264a3.16,3.16,0,0,0,2.94,3.14,3.51,3.51,0,0,0,3.44-3.18,3.19,3.19,0,1,0-6.38,0Zm200.47-60.86a3.37,3.37,0,0,0-3.29-3.28,3.08,3.08,0,0,0-3,3,3.13,3.13,0,0,0,3.13,3.34A3.06,3.06,0,0,0,516.27,203.15Zm-304.9,60.26a3,3,0,0,0-3.05-3.19,3.17,3.17,0,0,0-3.2,3.3,3,3,0,0,0,2.94,3.11A3.31,3.31,0,0,0,211.37,263.41Zm56.12,123.8a3,3,0,0,0-3.09-3.14,3.18,3.18,0,0,0-3.16,3.15,3.24,3.24,0,0,0,3.29,3.25A3,3,0,0,0,267.49,387.21Zm94.93,99.5a3,3,0,0,0-3.34,3.1,3.37,3.37,0,0,0,3.17,3.19,3.25,3.25,0,0,0,3.22-3.09A3,3,0,0,0,362.42,486.71Zm71.74-317.56a3.23,3.23,0,0,0,3.2-3.12,3.08,3.08,0,0,0-3.09-3.18,3,3,0,0,0-3.3,2.93A3.3,3.3,0,0,0,434.16,169.15ZM498,194.61a3.17,3.17,0,0,0,3.1,3.18,3.12,3.12,0,1,0,0-6.24A2.8,2.8,0,0,0,498,194.61ZM286.64,436.52a3.49,3.49,0,0,0-3.22-3.39,3.18,3.18,0,0,0-3.14,3.16,3.18,3.18,0,0,0,6.36.23Zm-19.53-33A3.23,3.23,0,1,0,264,400,3.37,3.37,0,0,0,267.11,403.48Zm287.11,90.69a3.28,3.28,0,0,0,3.15-3.39,3.12,3.12,0,0,0-3.22-3,3.41,3.41,0,0,0-3.08,3.3A3.12,3.12,0,0,0,554.22,494.17ZM510.29,345.34a3.21,3.21,0,0,0,.1,6.4,3.18,3.18,0,0,0,3.17-3.14A3.23,3.23,0,0,0,510.29,345.34Zm-97.7-102.52a3.24,3.24,0,0,0-3.26,3,3.2,3.2,0,0,0,6.39.18A3.35,3.35,0,0,0,412.59,242.82Zm-48-80.51a3,3,0,0,0-3-3.19,3.05,3.05,0,0,0-3.31,2.92,3,3,0,0,0,2.92,3.3A3.08,3.08,0,0,0,364.62,162.31Zm192.64,82.46a3.44,3.44,0,0,0-3.29-3.32,3.08,3.08,0,0,0-3.1,3.17,3.2,3.2,0,0,0,6.39.15Zm-44,291.1a3.6,3.6,0,0,0,3.33-3.3,3.19,3.19,0,0,0-3.14-3.15,3.23,3.23,0,1,0-.19,6.45ZM351.83,247.67a3.23,3.23,0,1,0,3.21-3.16A3.34,3.34,0,0,0,351.83,247.67ZM314.35,471.74a3.08,3.08,0,0,0,2.95-3.3,3.38,3.38,0,0,0-3.29-3.06,3.21,3.21,0,0,0-3.08,3.23A3.28,3.28,0,0,0,314.35,471.74ZM479.2,555.47a3.22,3.22,0,0,0-3.12-3.22,3.46,3.46,0,0,0-3.39,3.24,3.35,3.35,0,0,0,3.05,3.13A3.45,3.45,0,0,0,479.2,555.47ZM286.61,297.81a3.34,3.34,0,0,0,3.31-3.23,3.17,3.17,0,0,0-6.34,0A3.05,3.05,0,0,0,286.61,297.81ZM276.35,545a3.33,3.33,0,0,0,3.24,3.32,3,3,0,0,0,3.13-3.12,3.22,3.22,0,0,0-3.11-3.22A3.18,3.18,0,0,0,276.35,545Zm-11-199a3.19,3.19,0,0,0,.28-6.38,3.35,3.35,0,0,0-3.28,3.27A3.25,3.25,0,0,0,265.31,346ZM434.79,566.64a3.36,3.36,0,0,0-3.37,3.2,2.94,2.94,0,0,0,3.13,3.07,3.05,3.05,0,0,0,3.27-3.17A3.28,3.28,0,0,0,434.79,566.64Zm53.36-267.16a3.51,3.51,0,0,0,3.42,3.2,3.23,3.23,0,0,0,2.95-3.15,3.19,3.19,0,1,0-6.37,0ZM457.49,267.2a3.4,3.4,0,0,0,3.13,3.23,3.21,3.21,0,0,0,3.25-3.06,3.25,3.25,0,0,0-3.25-3.3A3.07,3.07,0,0,0,457.49,267.2ZM332.86,171a3.19,3.19,0,0,0,3.14-3.17,3.25,3.25,0,0,0-3.21-3.11,3.32,3.32,0,0,0-3.23,3.34A3,3,0,0,0,332.86,171Zm152,270.25a3.2,3.2,0,0,0,3.16,3.15,3.28,3.28,0,0,0,3.2-3.35,3.1,3.1,0,0,0-3.24-3A3.39,3.39,0,0,0,484.88,441.23ZM273.65,314.37a3.3,3.3,0,0,0-3.32,3.21,3.26,3.26,0,0,0,3.12,3.19,3.39,3.39,0,0,0,3.23-3.34A3.19,3.19,0,0,0,273.65,314.37Zm291.89-57.48a3.48,3.48,0,0,0-3.2-3.41,3.13,3.13,0,0,0-3.18,3.11,3.3,3.3,0,0,0,3.06,3.3A3.25,3.25,0,0,0,565.54,256.89ZM325.07,349a3.06,3.06,0,0,0,3.09,3,3.31,3.31,0,0,0,3.17-3.38,3.14,3.14,0,1,0-6.26.42ZM512.5,393a3.23,3.23,0,0,0-3.18-3.12,3.19,3.19,0,0,0,.08,6.38A3.38,3.38,0,0,0,512.5,393Zm-183.72,3.33a3.37,3.37,0,0,0,3.23,3.12,3.15,3.15,0,0,0,3.08-3.2,3.23,3.23,0,0,0-3.33-3.19A3.09,3.09,0,0,0,328.78,396.29ZM437.64,250.83a3.27,3.27,0,0,0-3.1,3.2,3.4,3.4,0,0,0,3.21,3.15,3.17,3.17,0,0,0,3.19-3.1A3.31,3.31,0,0,0,437.64,250.83ZM216.5,488.26a3,3,0,0,0,2.94-3.07,3.39,3.39,0,0,0-3.3-3.27,3.28,3.28,0,0,0-3.07,3.26A3.22,3.22,0,0,0,216.5,488.26Zm47.68,48.67a3.21,3.21,0,0,0,3.24,3.27,3.13,3.13,0,0,0,3.15-3.14,3.42,3.42,0,0,0-3.38-3.2A3.09,3.09,0,0,0,264.18,536.93Zm-45-286.09a3.08,3.08,0,0,0-3-3.05,3.4,3.4,0,0,0-3.22,3.36,3.18,3.18,0,0,0,3.15,3.15A3.32,3.32,0,0,0,219.17,250.84ZM231.3,508a3.33,3.33,0,0,0,3.12,3.24,3.11,3.11,0,0,0,3.23-3,3.42,3.42,0,0,0-3.22-3.36A3.18,3.18,0,0,0,231.3,508Zm300.78,5.36a3.11,3.11,0,0,0,3.23,3.07,3.49,3.49,0,0,0,3.2-3.23,3.37,3.37,0,0,0-3.17-3.2A3.47,3.47,0,0,0,532.08,513.34Zm-112.48-22a3.34,3.34,0,0,0,3.37-3.2,3.23,3.23,0,1,0-3.37,3.2Zm30.13-104.2a3.05,3.05,0,0,0-3-3.21,3.3,3.3,0,0,0-3.22,3.33,3.13,3.13,0,1,0,6.26-.12Zm-97.09,99.3a3.13,3.13,0,0,0-3.4-3.07,3,3,0,0,0-3,3.08,3.34,3.34,0,0,0,3.3,3.23A3.24,3.24,0,0,0,352.64,486.41ZM542,502.48a3.22,3.22,0,0,0,3.14,3.19,3.52,3.52,0,0,0,3.24-3.39,3.32,3.32,0,0,0-3.26-3.09A3.45,3.45,0,0,0,542,502.48ZM333.19,340.31a3.32,3.32,0,0,0,3.29-3.26,3.23,3.23,0,0,0-3.2-3.12,3.3,3.3,0,0,0-3.14,3.4A3,3,0,0,0,333.19,340.31Zm109.67-3.92a3.17,3.17,0,0,0-3.15,3.14,3.25,3.25,0,0,0,3.26,3.26,3.07,3.07,0,0,0,3-3.2A3.37,3.37,0,0,0,442.86,336.39ZM228,239.28a3.15,3.15,0,0,0-6.3-.12,3.05,3.05,0,0,0,2.92,3.31A3.42,3.42,0,0,0,228,239.28Zm197.38,13.19a3,3,0,0,0,3.18-3.06,3.33,3.33,0,0,0-3.08-3.24,3.24,3.24,0,0,0-3.28,3A3.11,3.11,0,0,0,425.34,252.47Zm70,174.41a3.31,3.31,0,0,0-3.18,3.36,3.11,3.11,0,0,0,3,3,3.3,3.3,0,0,0,3.27-3.27A3,3,0,0,0,495.31,426.88Zm-47.76,51.73a3.06,3.06,0,0,0-3-3.21,3.28,3.28,0,0,0-3.31,3.23,3,3,0,0,0,3,3A3,3,0,0,0,447.55,478.61ZM327.24,257.14a3.08,3.08,0,0,0,3,3.27,3.29,3.29,0,0,0,3.37-3.17,3.18,3.18,0,0,0-6.35-.1Zm119.14,2.74a3.31,3.31,0,0,0,3.24,3.31,3.09,3.09,0,0,0,3.13-3.14,3.28,3.28,0,0,0-3.33-3.18A3,3,0,0,0,446.38,259.88Zm-4.71,135.61a3.31,3.31,0,0,0-3.35,3.21,3.23,3.23,0,0,0,3.14,3.18,3.28,3.28,0,0,0,3.19-3.14A3,3,0,0,0,441.67,395.49ZM325.33,478.94a3,3,0,0,0,3.09-3.14,3.3,3.3,0,0,0-3.37-3.17,3.12,3.12,0,0,0-3,3.06A3.3,3.3,0,0,0,325.33,478.94Zm183.81-73.15a3.26,3.26,0,0,0-3-3.12,3.1,3.1,0,0,0-3.33,3.13,3,3,0,0,0,3,3.22A3.31,3.31,0,0,0,509.14,405.79ZM258.64,207.86a3.17,3.17,0,0,0-3.2-3.09,3.29,3.29,0,0,0-3.14,3.39,3,3,0,0,0,3.06,3A3.34,3.34,0,0,0,258.64,207.86Zm20.79,101.07a3.32,3.32,0,0,0,3.25-3.29,3.12,3.12,0,0,0-3.18-3.09,3.28,3.28,0,0,0-3.13,3.19A3,3,0,0,0,279.43,308.93Zm127.11,2.9a3.13,3.13,0,1,0,.06-6.26,3.09,3.09,0,0,0-3.21,3.05A3.32,3.32,0,0,0,406.54,311.83ZM498,307.74a3.08,3.08,0,0,0-3.07,3,3.29,3.29,0,0,0,3.17,3.37,3.18,3.18,0,0,0-.1-6.35Zm-79,115.66a3.16,3.16,0,0,0-3.11-3.18,3.22,3.22,0,0,0-3.29,3.22,3.08,3.08,0,0,0,3.17,3.09A3.39,3.39,0,0,0,418.91,423.4Zm-142.27,4.66a3.07,3.07,0,0,0,3.27-3,3.28,3.28,0,0,0-3.17-3.36,3.17,3.17,0,0,0-.1,6.34ZM368,424a3.14,3.14,0,1,0,.4,6.26,3.05,3.05,0,0,0,3-3.08A3.34,3.34,0,0,0,368,424Zm-8.91-114.69a3.38,3.38,0,0,0-3.23,3.13,3.15,3.15,0,0,0,3.11,3.18,3.21,3.21,0,0,0,3.28-3.22A3.05,3.05,0,0,0,359.12,309.28Zm28.34-148.47a3.09,3.09,0,0,0,3.32,2.93,3,3,0,0,0,3.07-3.16,3.12,3.12,0,0,0-3.21-3.07A3.15,3.15,0,0,0,387.46,160.81ZM265.66,330a3.25,3.25,0,0,0,3.13,3.17,3.12,3.12,0,0,0,3.17-3.31,3,3,0,0,0-3.17-3A3.33,3.33,0,0,0,265.66,330ZM420.27,575.87a3.23,3.23,0,0,0,3.16-3.16,2.91,2.91,0,0,0-3.1-3.09,3,3,0,0,0-3.27,3A3.2,3.2,0,0,0,420.27,575.87ZM548,233.3a3.18,3.18,0,0,0-3-3.28,3.11,3.11,0,0,0-3.26,3,3.31,3.31,0,0,0,3.16,3.37A2.94,2.94,0,0,0,548,233.3ZM488.93,551.9a3.42,3.42,0,0,0,3.23-3.15,3.08,3.08,0,0,0-3.1-3.17,3.16,3.16,0,1,0-.13,6.32Zm-180.11,6.66a3.36,3.36,0,0,0-3.39-3.2,3.15,3.15,0,1,0,.2,6.29A3.12,3.12,0,0,0,308.82,558.56ZM319.37,567a3.24,3.24,0,0,0,3.12-3.21,3.32,3.32,0,0,0-3.45-3.1,3,3,0,0,0-3,3.27A3.25,3.25,0,0,0,319.37,567ZM448.16,166.63a3,3,0,0,0-3,3.15,3.14,3.14,0,0,0,3.37,3.1,3,3,0,0,0,2.92-3.09A3,3,0,0,0,448.16,166.63ZM247.88,518.47a3.34,3.34,0,0,0-3.32-3.23,3.2,3.2,0,0,0-3,3.31,3.38,3.38,0,0,0,3.26,3.12A3.07,3.07,0,0,0,247.88,518.47Zm108.61-99.63a3.2,3.2,0,0,0-3.06,3.23,3.3,3.3,0,0,0,3.45,3.09,3,3,0,0,0,2.94-3.1A3.32,3.32,0,0,0,356.49,418.84ZM247.67,217.53a3.09,3.09,0,0,0-3.22-3,3.26,3.26,0,0,0-3.11,3.41,3,3,0,0,0,3.1,2.9A3.21,3.21,0,0,0,247.67,217.53Zm276.61-8.35a3.17,3.17,0,0,0-3.08,3,3.26,3.26,0,0,0,3.23,3.31,3.11,3.11,0,0,0,3.2-3.07A3.46,3.46,0,0,0,524.28,209.18ZM271.38,409.67a3.17,3.17,0,0,0-3.32,3,3.22,3.22,0,0,0,3.18,3.34,3,3,0,0,0,3.15-3A3.11,3.11,0,0,0,271.38,409.67ZM435.48,484a3,3,0,0,0-3.13-3.08,3.1,3.1,0,0,0-3.18,3.29,3.18,3.18,0,0,0,3.05,3.05A3.24,3.24,0,0,0,435.48,484Zm86,39.3a3.21,3.21,0,0,0,3.06,3.25,3.35,3.35,0,0,0,3.26-3.31,3,3,0,0,0-3.13-3.1A3.33,3.33,0,0,0,521.46,523.29ZM342.56,254.88a3.06,3.06,0,0,0,3.06-3.38,3.19,3.19,0,0,0-3.15-2.95,3.24,3.24,0,0,0-3.15,3.38A2.94,2.94,0,0,0,342.56,254.88Zm-105.18-27a3.06,3.06,0,0,0-3.24-3,3.34,3.34,0,0,0-3.06,3.28,3.1,3.1,0,0,0,3.16,3.1A3.26,3.26,0,0,0,237.38,227.92ZM362,576.92a3.13,3.13,0,0,0,3.13-3.15,3,3,0,0,0-3.13-3.09,2.85,2.85,0,0,0-3.2,3A3.17,3.17,0,0,0,362,576.92ZM252.48,528.06a3.39,3.39,0,0,0,3.31,3.27,3.09,3.09,0,0,0,3.1-3.16,3.27,3.27,0,0,0-3.18-3.16A3.12,3.12,0,0,0,252.48,528.06ZM419.7,160a3.18,3.18,0,0,0-3.12,3.18,3.09,3.09,0,0,0,3.4,3.05,2.94,2.94,0,0,0,3-3A3.2,3.2,0,0,0,419.7,160ZM562.48,482a3.11,3.11,0,0,0,3.19-3.27,3,3,0,0,0-3.23-3,3.19,3.19,0,0,0-3.07,3.41A2.93,2.93,0,0,0,562.48,482Zm-74-298.2a3.15,3.15,0,0,0-3,3.1,3,3,0,0,0,3.23,3.19,3,3,0,0,0,3.13-3.08A3.46,3.46,0,0,0,488.47,183.79ZM447.4,354.58a3,3,0,0,0,3.13-3.1,3.23,3.23,0,0,0-3.2-3.31,3.21,3.21,0,0,0,.07,6.41Zm56-28.45a3.16,3.16,0,0,0,3.32-3,3.25,3.25,0,0,0-3-3.32,3,3,0,0,0-3.33,2.86A3.11,3.11,0,0,0,503.43,326.13ZM415,313.71a3.31,3.31,0,0,0,3.08,3.26,3.21,3.21,0,0,0,3.3-3,3.27,3.27,0,0,0-3.21-3.32A3,3,0,0,0,415,313.71Zm57.36-133.49a3.24,3.24,0,0,0,3.37,3.17,3.17,3.17,0,0,0,3.15-2.94,3.61,3.61,0,0,0-3.27-3.38A3.42,3.42,0,0,0,472.35,180.22Zm-145,201a3,3,0,0,0-3.06,3.16,3.22,3.22,0,0,0,3.27,3.24,3.2,3.2,0,0,0-.21-6.4Zm-8.43-212.1a3,3,0,0,0-3.25,3,3.06,3.06,0,0,0,3,3.27,3.29,3.29,0,0,0,3.39-3.15A3,3,0,0,0,318.9,169.13ZM295.52,552.34a3.31,3.31,0,0,0-3.28-3.26,3.16,3.16,0,1,0,3.28,3.26ZM407.13,427.9a3.21,3.21,0,0,0-6.41-.06,3,3,0,0,0,3,3.19A3.22,3.22,0,0,0,407.13,427.9ZM370.72,311a3.19,3.19,0,0,0,3.36-3.14,3,3,0,0,0-3.12-3.11,3.23,3.23,0,0,0-3.29,3.22A3.18,3.18,0,0,0,370.72,311ZM288.8,183.84a3,3,0,0,0,3.11,3.1,3.09,3.09,0,0,0,3.18-3.06,3,3,0,0,0-3-3.2A3.16,3.16,0,0,0,288.8,183.84ZM587.87,439.11c1.38.05,2.19-.73,2.24-2.89-.4-.35-1.07-1.42-1.88-1.54-1.49-.22-2.14.95-2.22,2.37A1.77,1.77,0,0,0,587.87,439.11Zm-405.11,0c1.25,0,2.13-.6,2-2.61a2,2,0,0,0-2.2-1.87c-1.35,0-1.87,1-1.86,2.31A2,2,0,0,0,182.76,439.1Zm407.63-12.73c-.71-.58-1.38-1.55-2.15-1.65-1.56-.19-2.12,1.06-2.19,2.44-.06,1.18.53,1.82,1.78,1.85C589.35,429,589.93,428.19,590.39,426.37Zm-405.24.27c-.81-.66-1.55-1.74-2.46-1.9-1.27-.23-2,.78-1.89,2.15s.79,2.34,2.25,2.05c.75-.15,1.39-.9,2.07-1.38Zm-1.77-113.17c1.57.21,2.11-1.06,2.19-2.43a1.59,1.59,0,0,0-1.77-1.86c-1.52,0-2.12.81-2.57,2.64C181.94,312.4,182.6,313.36,183.38,313.47ZM586.9,311c-.15,1.33.45,2.55,2,2.57a1.75,1.75,0,0,0,1.88-2c0-1.38-.58-2.28-2.79-2.31C587.77,309.56,587,310.21,586.9,311ZM182.72,444.89c-1.36,0-2.22.93-1.92,2.16a3.12,3.12,0,0,0,1.93,2c1.17.21,2.07-.65,2.08-2.16A1.91,1.91,0,0,0,182.72,444.89ZM588,445a1.65,1.65,0,0,0-1.87,2.13c.22.8,1.24,1.91,1.92,1.92s1.61-1,2.41-1.59v-.93C589.62,446,588.85,445.06,588,445ZM439.53,45.26c1.34.29,2-.78,2-2s-.56-2-1.93-2c-1.21,0-2,.52-2.1,2.5C438,44.09,438.66,45.06,439.53,45.26Zm-106.7,0c.87-.16,1.58-1.11,2.36-1.71-.34-1.75-1.1-2.29-2.32-2.33a1.78,1.78,0,0,0-2,1.94C330.82,44.42,331.48,45.51,332.83,45.25Zm-.71,657.63c-1.33-.31-2.06.74-2,2s.54,2.05,1.91,2c1.21,0,2-.49,2.12-2.48C333.66,704.07,333,703.08,332.12,702.88Zm106.57-.07a1.86,1.86,0,0,0-1.86,2.29c.15.79,1,1.46,1.55,2.18l1,0c.48-.78,1.26-1.52,1.36-2.35A1.75,1.75,0,0,0,438.69,702.81ZM589,269.44a2.9,2.9,0,0,0-2.06,1.75,1.67,1.67,0,0,0,1.9,2.11c.82-.08,1.56-.92,2.33-1.42,0-.31,0-.63,0-.94C590.45,270.4,589.67,269.39,589,269.44ZM182.75,598a2.91,2.91,0,0,0,1.95-1.85,1.66,1.66,0,0,0-2-2c-.81.12-1.5,1-2.25,1.56l0,.93C181.23,597.12,182.06,598.09,182.75,598ZM588.89,259.5a2.92,2.92,0,0,0-2,1.84,1.67,1.67,0,0,0,2,2c.81-.11,1.52-1,2.27-1.54,0-.31,0-.62,0-.93C590.4,260.39,589.58,259.42,588.89,259.5ZM184.72,665.73c-.11-.84-.94-1.59-1.44-2.38l-.86,0a7.6,7.6,0,0,0-1.58,2.26c-.3,1.2.53,2,1.76,2.09S184.9,667.06,184.72,665.73Zm-1.15-525.58c-.83.13-1.55.92-2.32,1.42l0,.94c.75.54,1.44,1.43,2.25,1.56,1.26.19,2.1-.69,2.09-2A1.71,1.71,0,0,0,183.57,140.15ZM586.05,476.8a1.71,1.71,0,0,0,1.94,1.95c.83-.11,1.58-.88,2.36-1.36l0-.93c-.73-.57-1.39-1.48-2.2-1.63A1.8,1.8,0,0,0,586.05,476.8ZM183.14,259.05c-.52.76-1.51,1.55-1.45,2.25a2.87,2.87,0,0,0,1.77,2,1.67,1.67,0,0,0,2.06-2c-.12-.82-1-1.54-1.47-2.31ZM588,643.83a1.67,1.67,0,0,0-1.9,2.12,2.9,2.9,0,0,0,2.06,1.75c.69,0,1.46-1,2.2-1.5l0-.94C589.58,644.76,588.84,643.91,588,643.83Zm-405.21,3.92a1.71,1.71,0,0,0,2-1.93c0-1.34-.89-2.21-2.13-2-.81.15-1.48,1-2.22,1.62l0,.93C181.25,646.86,182,647.65,182.82,647.75Zm1.88-61.49a1.66,1.66,0,0,0-1.94-2.07c-.82.09-1.54.95-2.3,1.47,0,.32,0,.63,0,.94.75.52,1.55,1.51,2.24,1.45A2.94,2.94,0,0,0,184.7,586.26ZM591.16,250.9c-.78-.49-1.51-1.28-2.34-1.4a1.72,1.72,0,0,0-2,1.92c0,1.34.86,2.22,2.12,2,.81-.14,1.49-1,2.23-1.6Zm-5,385a2.89,2.89,0,0,0,2,1.82c.69.09,1.51-.89,2.27-1.4,0-.31,0-.62,0-.93-.75-.53-1.46-1.42-2.27-1.53A1.67,1.67,0,0,0,586.13,635.93ZM181.24,251.87c.75.55,1.44,1.43,2.26,1.55a1.66,1.66,0,0,0,2-2,2.89,2.89,0,0,0-2-1.84c-.69-.09-1.52.88-2.28,1.38Zm3.48,234.92c-.11-.84-.93-1.59-1.44-2.38l-.87,0c-.54.75-1.36,1.43-1.57,2.26-.3,1.21.53,2,1.76,2.1S184.9,488.12,184.72,486.79Zm401.33,0a1.7,1.7,0,0,0,1.94,1.94c.83-.1,1.58-.88,2.36-1.35,0-.31,0-.63,0-.94-.73-.57-1.4-1.47-2.21-1.62C586.94,484.54,586.08,485.41,586.05,486.75Zm.87-394.48a1.67,1.67,0,0,0,1.93,2.09c.82-.09,1.54-1,2.31-1.46l0-.93c-.74-.53-1.53-1.54-2.23-1.47A2.93,2.93,0,0,0,586.92,92.27ZM183.54,243.46a1.67,1.67,0,0,0,2-2.05c-.15-.81-1-1.5-1.57-2.24l-.91,0c-.49.78-1.43,1.62-1.34,2.31A2.88,2.88,0,0,0,183.54,243.46Zm405.34-9.92c.82-.1,1.53-1,2.29-1.5v-.94c-.76-.52-1.46-1.33-2.28-1.48a1.72,1.72,0,0,0-2.06,1.84C586.8,232.81,587.63,233.7,588.88,233.54ZM180.45,566.78c.77.5,1.59,1.48,2.28,1.39a2.9,2.9,0,0,0,2-1.84,1.67,1.67,0,0,0-2-2c-.81.12-1.52,1-2.27,1.54C180.45,566.16,180.45,566.47,180.45,566.78Zm409.92,58.66c-.76-.53-1.49-1.39-2.3-1.49a1.67,1.67,0,0,0-1.94,2.08,2.89,2.89,0,0,0,2,1.78c.69.07,1.49-.92,2.24-1.44C590.38,626.06,590.37,625.75,590.37,625.44ZM183.55,279.33c-.82.14-1.54.93-2.3,1.44,0,.31,0,.62,0,.93.75.54,1.45,1.43,2.26,1.54,1.25.19,2.09-.7,2.07-2A1.71,1.71,0,0,0,183.55,279.33Zm406.81,286.4c-.78-.5-1.52-1.34-2.33-1.43a1.67,1.67,0,0,0-1.9,2.12,2.9,2.9,0,0,0,2.06,1.75c.69.05,1.46-1,2.2-1.5ZM182.76,624c-.82.1-1.54,1-2.3,1.48,0,.31,0,.62,0,.93.75.53,1.55,1.52,2.24,1.45a2.91,2.91,0,0,0,2-1.78A1.67,1.67,0,0,0,182.76,624Zm-1.5-401.77c.78.5,1.52,1.34,2.34,1.42a1.67,1.67,0,0,0,1.89-2.12,2.89,2.89,0,0,0-2.06-1.74c-.69-.05-1.46,1-2.2,1.5ZM586.05,556.37a1.71,1.71,0,0,0,2,1.91c.83-.12,1.56-.91,2.33-1.4l0-.93c-.74-.55-1.42-1.46-2.23-1.59C586.91,554.16,586.05,555,586.05,556.37Zm2.78-436.1a1.71,1.71,0,0,0-2,1.9c0,1.34.85,2.22,2.11,2,.81-.14,1.49-1,2.23-1.59,0-.31,0-.62,0-.93C590.39,121.18,589.66,120.39,588.83,120.27ZM182.71,504.66c-.82.12-1.52,1-2.27,1.54v.93c.76.5,1.48,1.31,2.31,1.44a1.71,1.71,0,0,0,2-1.87C184.79,505.36,184,504.47,182.71,504.66Zm405.45-45.85c.69.06,1.48-.94,2.23-1.47,0-.31,0-.62,0-.93-.77-.52-1.51-1.37-2.32-1.46a1.66,1.66,0,0,0-1.92,2.09A2.91,2.91,0,0,0,588.16,458.81Zm0,155.2a1.79,1.79,0,0,0-2.12,2,1.71,1.71,0,0,0,2,1.92c.83-.11,1.56-.89,2.34-1.38l0-.93C589.65,615.05,589,614.14,588.17,614Zm.75-513.57a2.92,2.92,0,0,0-2,1.81,1.67,1.67,0,0,0,2,2c.81-.1,1.53-1,2.29-1.5v-.93C590.42,101.35,589.61,100.37,588.92,100.44Zm-404.2,416c-.18-.83-1.06-1.51-1.63-2.25l-.86,0a7.71,7.71,0,0,0-1.39,2.39c-.21,1.24.72,2,1.92,1.94S185,517.75,184.72,516.45Zm403.35,2.06c.82-.14,1.54-.93,2.3-1.43v-.94c-.75-.54-1.45-1.43-2.26-1.54-1.25-.18-2.09.7-2.07,2A1.7,1.7,0,0,0,588.07,518.51Zm-2,87.53a1.72,1.72,0,0,0,1.94,2c.83-.11,1.58-.88,2.36-1.36,0-.31,0-.62,0-.93-.73-.57-1.39-1.48-2.2-1.63C587,603.84,586.08,604.7,586.05,606Zm2.81-402.33c.82-.09,1.54-1,2.31-1.47v-.94c-.75-.52-1.55-1.52-2.24-1.45a2.94,2.94,0,0,0-2,1.79A1.66,1.66,0,0,0,588.86,203.71Zm-405.32,0a1.67,1.67,0,0,0,2-2c-.15-.82-1-1.5-1.56-2.25l-.91,0c-.49.77-1.44,1.61-1.35,2.3A2.92,2.92,0,0,0,183.54,203.7Zm-.86,404.24a2.94,2.94,0,0,0,2-1.8,1.67,1.67,0,0,0-1.94-2.07c-.82.09-1.54,1-2.3,1.48l0,.93C181.19,607,182,608,182.68,607.94Zm-2.24-81c.75.53,1.55,1.53,2.24,1.46a2.91,2.91,0,0,0,2-1.8,1.67,1.67,0,0,0-1.94-2.07c-.82.09-1.54,1-2.3,1.48Zm409.92-1c-.78-.5-1.52-1.34-2.34-1.42a1.67,1.67,0,0,0-1.89,2.12,2.91,2.91,0,0,0,2.06,1.74c.69.05,1.46-1,2.2-1.5Zm-1.55-336.1a1.71,1.71,0,0,0-2,1.92c0,1.34.87,2.21,2.12,2,.81-.13,1.49-1,2.23-1.6,0-.31,0-.62,0-.93C590.38,190.76,589.64,190,588.81,189.86Zm-2.76,406.3a1.7,1.7,0,0,0,2,1.88c.83-.13,1.55-.92,2.32-1.42v-.94c-.74-.54-1.44-1.43-2.25-1.55C586.89,593.94,586,594.82,586.05,596.16Zm-402.48-472a1.67,1.67,0,0,0,1.92-2.1,2.88,2.88,0,0,0-2-1.76c-.69-.07-1.48.93-2.23,1.46l0,.94C182,123.24,182.76,124.1,183.57,124.19Zm2,176.88a1.72,1.72,0,0,0-2-1.86c-.82.14-1.53,1-2.3,1.45v.94c.75.54,1.46,1.41,2.27,1.53C184.77,303.3,185.6,302.41,185.57,301.07ZM588.9,110.38a2.9,2.9,0,0,0-2,1.83,1.66,1.66,0,0,0,2,2c.81-.11,1.52-1,2.27-1.52v-.93C590.41,111.28,589.59,110.3,588.9,110.38Zm-403.41,71.4a2.88,2.88,0,0,0-2-1.81c-.69-.07-1.5.91-2.25,1.43v.94c.76.52,1.48,1.39,2.3,1.49A1.66,1.66,0,0,0,185.49,181.78ZM589,173.89c.81-.14,1.49-1,2.22-1.62,0-.3,0-.61,0-.92-.78-.49-1.52-1.27-2.35-1.38a1.72,1.72,0,0,0-2,1.94C586.87,173.25,587.72,174.12,589,173.89Zm-403.4-2a1.7,1.7,0,0,0-1.94-1.94c-.83.1-1.58.87-2.36,1.35,0,.31,0,.62-.05.93.73.57,1.4,1.48,2.21,1.63C184.67,174.12,185.54,173.26,185.57,171.92Zm-2.85,372.5c-.82.12-1.52,1-2.27,1.53v.93c.76.51,1.47,1.32,2.3,1.46a1.71,1.71,0,0,0,2-1.86C184.8,545.14,184,544.24,182.72,544.42Zm403.33,2a1.71,1.71,0,0,0,2,1.93c.83-.11,1.57-.89,2.35-1.37l0-.93c-.73-.57-1.4-1.48-2.21-1.62C586.94,544.2,586.07,545.06,586.05,546.41Zm-400.48-464a1.69,1.69,0,0,0-2-1.88c-.83.13-1.55.92-2.32,1.41l0,.94c.75.54,1.44,1.43,2.26,1.56C184.74,84.62,185.58,83.73,185.57,82.39ZM589.14,180a1.62,1.62,0,0,0-2.21,1.73,3,3,0,0,0,1.73,2.1c.68.16,1.62-.73,2.44-1.16l.11-.9C590.53,181.11,589.94,180.19,589.14,180Zm-2.29-28.08a1.79,1.79,0,0,0,2,2.14c.82-.08,1.56-.92,2.34-1.43l0-.93c-.74-.54-1.42-1.38-2.23-1.55A1.71,1.71,0,0,0,586.85,151.87ZM185.5,92.35a2.92,2.92,0,0,0-2-1.85c-.69-.09-1.52.87-2.29,1.37,0,.31,0,.62,0,.93.75.55,1.45,1.44,2.26,1.56A1.67,1.67,0,0,0,185.5,92.35Zm-.72,374.53c0-1.34-.88-2.21-2.13-2-.81.14-1.48,1.05-2.22,1.61,0,.31,0,.62,0,.93.77.48,1.51,1.27,2.34,1.38A1.72,1.72,0,0,0,184.78,466.88Zm403.27,1.93c.82-.13,1.55-.92,2.32-1.42l0-.92c-.75-.56-1.44-1.45-2.25-1.58-1.25-.19-2.1.68-2.09,2A1.71,1.71,0,0,0,588.05,468.81Zm-1.92,67.78a2.91,2.91,0,0,0,2,1.75c.69.06,1.47-1,2.21-1.49l0-.93c-.77-.51-1.51-1.36-2.33-1.44A1.67,1.67,0,0,0,586.13,536.59ZM183.46,104.28a1.67,1.67,0,0,0,2.06-2c-.12-.82-1-1.54-1.47-2.31h-.91c-.52.75-1.51,1.55-1.45,2.24A2.87,2.87,0,0,0,183.46,104.28ZM589,279.38a2.9,2.9,0,0,0-2,1.77,1.67,1.67,0,0,0,1.93,2.09c.81-.09,1.54-.94,2.31-1.45,0-.31,0-.63,0-.94C590.44,280.32,589.65,279.32,589,279.38ZM181.25,162.47c.76.52,1.49,1.38,2.31,1.48,1.26.15,2.06-.76,2-2.1A1.71,1.71,0,0,0,183.5,160c-.82.15-1.51,1-2.26,1.5Zm2.34,67.15c-.83.12-1.56.91-2.33,1.4l0,.93c.74.56,1.43,1.46,2.24,1.59,1.25.21,2.09-.67,2.1-2A1.71,1.71,0,0,0,183.59,229.62ZM180.45,497.2c.77.5,1.6,1.47,2.29,1.38a2.88,2.88,0,0,0,2-1.85,1.66,1.66,0,0,0-2-2c-.82.12-1.51,1-2.26,1.55ZM588.84,213.65c.81-.08,1.55-.93,2.32-1.44l0-.94c-.74-.53-1.53-1.53-2.22-1.47a2.93,2.93,0,0,0-2,1.76A1.67,1.67,0,0,0,588.84,213.65ZM181.25,192.31c.77.52,1.5,1.37,2.31,1.46a1.66,1.66,0,0,0,1.93-2.08,2.89,2.89,0,0,0-2-1.78c-.7-.06-1.49.93-2.24,1.46Zm1.41,346a2.9,2.9,0,0,0,2-1.77,1.67,1.67,0,0,0-1.92-2.09c-.82.09-1.55.95-2.32,1.46l0,.93C181.18,537.4,182,538.41,182.66,538.34Zm2.06,18c-.14-.83-1-1.55-1.52-2.32h-.87a7.83,7.83,0,0,0-1.49,2.31c-.26,1.22.6,2,1.83,2S184.94,557.62,184.72,556.3ZM183.54,154a1.67,1.67,0,0,0,2-2.05c-.15-.81-1-1.5-1.57-2.24l-.9,0c-.49.77-1.44,1.61-1.35,2.31A2.88,2.88,0,0,0,183.54,154Zm405.27-23.78a1.71,1.71,0,0,0-2,1.92c0,1.34.87,2.21,2.12,2,.81-.14,1.49-1,2.23-1.6l0-.94C590.38,131.11,589.64,130.33,588.81,130.21ZM181.69,112.28a2.84,2.84,0,0,0,1.87,1.94,1.66,1.66,0,0,0,1.95-2.06c-.16-.81-1-1.49-1.59-2.23l-.91,0C182.53,110.74,181.59,111.59,181.69,112.28ZM586.92,82.39a1.67,1.67,0,0,0,2,2c.82-.12,1.52-1,2.27-1.53V82c-.76-.51-1.58-1.49-2.27-1.4A2.9,2.9,0,0,0,586.92,82.39ZM281.59,702.54c-.56.73-1.45,1.4-1.6,2.21a1.66,1.66,0,0,0,1.95,2,2.89,2.89,0,0,0,1.9-1.9c.1-.69-.85-1.54-1.33-2.32ZM182.77,574.25c-.82.09-1.55,1-2.31,1.46,0,.32,0,.63,0,.94.75.53,1.54,1.53,2.23,1.46a2.9,2.9,0,0,0,2-1.78A1.66,1.66,0,0,0,182.77,574.25Zm0,39.76c-.81.08-1.55.93-2.32,1.44l0,.93c.74.54,1.51,1.55,2.2,1.49a2.9,2.9,0,0,0,2.06-1.75A1.67,1.67,0,0,0,182.79,614ZM549.31,45.19c.83-.11,1.56-.93,2.33-1.43l0-.87c-.75-.55-1.53-1.56-2.24-1.52a2.89,2.89,0,0,0-2,1.76A1.62,1.62,0,0,0,549.31,45.19Zm-9.91-.06c.7.09,1.53-.87,2.3-1.37l0-.87c-.75-.54-1.44-1.4-2.27-1.57a1.62,1.62,0,0,0-2,2A2.82,2.82,0,0,0,539.4,45.13Zm-9.5.45c.53-.76,1.38-1.47,1.49-2.28a1.65,1.65,0,0,0-2-2,2.87,2.87,0,0,0-1.81,2c-.08.7.91,1.5,1.43,2.26Zm-10.15,0c.59-.7,1.5-1.33,1.69-2.13a1.65,1.65,0,0,0-1.85-2.14,2.88,2.88,0,0,0-2,1.81c-.14.69.77,1.58,1.22,2.38Zm-30.42,0,.92,0c.49-.78,1.44-1.64,1.33-2.33a3,3,0,0,0-1.93-1.9,1.64,1.64,0,0,0-1.92,2.06C487.87,44.2,488.77,44.87,489.33,45.6Zm-19.42-.47c.7,0,1.48-1,2.23-1.49l0-.87c-.77-.51-1.5-1.33-2.34-1.45a1.64,1.64,0,0,0-1.91,2.07A2.88,2.88,0,0,0,469.91,45.13ZM182.4,633.49a7.78,7.78,0,0,0-1.55,2.27c-.29,1.2.51,2,1.76,2.09s2.29-.64,2.11-2c-.11-.84-.94-1.58-1.45-2.36ZM459.89,45.13c.71.08,1.52-.89,2.29-1.4,0-.29,0-.58,0-.87-.76-.54-1.46-1.39-2.29-1.54a1.62,1.62,0,0,0-2,2A2.82,2.82,0,0,0,459.89,45.13ZM184.7,655.87a1.67,1.67,0,0,0-1.92-2.1c-.81.09-1.55.94-2.32,1.45l0,.94c.74.53,1.52,1.54,2.22,1.48A2.92,2.92,0,0,0,184.7,655.87Zm-2-200.92c-.82.11-1.52,1-2.27,1.54v.93c.76.5,1.48,1.31,2.3,1.45a1.72,1.72,0,0,0,2-1.87C184.8,455.66,184,454.78,182.72,455ZM312.65,45.19c.82-.16,1.51-1,2.25-1.54l0-.9c-.77-.5-1.6-1.47-2.3-1.38a2.9,2.9,0,0,0-1.95,1.86A1.63,1.63,0,0,0,312.65,45.19Zm-10.6.37.92,0c.56-.74,1.59-1.5,1.55-2.19a2.91,2.91,0,0,0-1.73-2.07,1.66,1.66,0,0,0-2.12,1.87C300.75,44,301.56,44.78,302.05,45.56Zm-9.32-.42c.7.07,1.52-.9,2.28-1.41,0-.3,0-.6,0-.89-.76-.53-1.46-1.39-2.28-1.52a1.65,1.65,0,0,0-2,2A2.87,2.87,0,0,0,292.73,45.14Zm-19.82,0a2.91,2.91,0,0,0,1.78-2c.06-.7-.94-1.49-1.47-2.24l-.9,0c-.52.77-1.37,1.5-1.47,2.33A1.62,1.62,0,0,0,272.91,45.17Zm-30.38.42h.93c.51-.77,1.49-1.58,1.41-2.28a2.87,2.87,0,0,0-1.83-2,1.65,1.65,0,0,0-2,2C241.14,44.13,242,44.84,242.53,45.59ZM233,45.2a7.78,7.78,0,0,0,2.35-1.4l0-.9c-.74-.55-1.42-1.42-2.23-1.58-1.28-.24-2.12.66-2.11,2S231.77,45.41,233,45.2Zm-9.92-.06c.71.09,1.55-.85,2.33-1.34l0-.9c-.74-.55-1.42-1.42-2.24-1.58a1.65,1.65,0,0,0-2,2A2.87,2.87,0,0,0,223.08,45.14ZM591.16,290.69c-.77-.5-1.6-1.45-2.29-1.36a2.91,2.91,0,0,0-2,1.85,1.66,1.66,0,0,0,2,2c.81-.12,1.5-1,2.25-1.56C591.17,291.31,591.17,291,591.16,290.69Zm-409.9-18.84c.76.51,1.5,1.36,2.31,1.45a1.67,1.67,0,0,0,1.92-2.09,2.91,2.91,0,0,0-2-1.77c-.69-.06-1.48.94-2.23,1.47ZM222.32,703a2.83,2.83,0,0,0-1.95,1.84,1.65,1.65,0,0,0,2,2c.82-.15,1.51-1,2.26-1.55,0-.3,0-.6,0-.89C223.85,703.88,223,702.92,222.32,703Zm19.86,0a1.63,1.63,0,0,0-2,2c.15.82,1.05,1.5,1.61,2.24l.89,0c.49-.78,1.45-1.62,1.35-2.32A2.9,2.9,0,0,0,242.18,703Zm29.81,0c-1.22-.23-2,.68-2,1.88s.81,2.22,2.09,2c.82-.15,1.51-1,2.26-1.56,0-.3,0-.59,0-.89A7.65,7.65,0,0,0,272,702.94Zm19.88,0a1.62,1.62,0,0,0-1.93,2c.15.82,1.06,1.49,1.62,2.22l.9,0c.48-.79,1.43-1.64,1.32-2.34A2.93,2.93,0,0,0,291.87,703Zm8,1.76a1.65,1.65,0,0,0,1.89,2.1c.83-.1,1.57-.91,2.35-1.4,0-.3,0-.59,0-.89-.74-.55-1.51-1.56-2.22-1.52A2.87,2.87,0,0,0,299.9,704.72Zm19.88,0a1.66,1.66,0,0,0,1.89,2.1c.83-.1,1.57-.91,2.35-1.4l0-.89c-.73-.55-1.5-1.56-2.2-1.52A2.85,2.85,0,0,0,319.78,704.72ZM182.65,474.83c-.81.14-1.48,1.05-2.22,1.61l0,.93c.78.49,1.51,1.26,2.34,1.38a1.72,1.72,0,0,0,2-1.93C184.76,475.48,183.9,474.62,182.65,474.83ZM588.88,164c.81-.11,1.53-1,2.29-1.5v-.93c-.75-.52-1.56-1.51-2.24-1.43a2.9,2.9,0,0,0-2,1.8A1.67,1.67,0,0,0,588.88,164ZM449.69,702.58l-.92,0c-.56.73-1.59,1.49-1.55,2.18a2.88,2.88,0,0,0,1.72,2.07,1.65,1.65,0,0,0,2.13-1.86C451,704.11,450.18,703.36,449.69,702.58ZM479,703a2.85,2.85,0,0,0-1.95,1.84,1.63,1.63,0,0,0,2,2c.83-.17,1.52-1,2.27-1.56,0-.3,0-.59,0-.88C480.49,703.88,479.66,702.92,479,703Zm20.32-.45h-.92c-.52.76-1.51,1.56-1.44,2.26a2.91,2.91,0,0,0,1.82,2,1.65,1.65,0,0,0,2-2C500.66,704,499.8,703.31,499.28,702.55Zm9.94,0h-.92c-.52.75-1.51,1.56-1.43,2.26a2.89,2.89,0,0,0,1.81,2,1.65,1.65,0,0,0,2-2C510.6,704,509.74,703.31,509.22,702.55Zm7.56,2.18a1.63,1.63,0,0,0,1.88,2.09c.84-.12,1.58-.93,2.36-1.43l0-.87c-.74-.55-1.51-1.56-2.21-1.51A2.85,2.85,0,0,0,516.78,704.73Zm9.93,0a1.64,1.64,0,0,0,1.93,2.06c.83-.13,1.56-1,2.33-1.46l0-.88c-.75-.53-1.54-1.53-2.24-1.48A2.87,2.87,0,0,0,526.71,704.76ZM589,239.61a2.92,2.92,0,0,0-2.07,1.73,1.67,1.67,0,0,0,1.87,2.14c.82-.07,1.57-.91,2.35-1.4l0-.93C590.46,240.59,589.69,239.57,589,239.61Zm-3,426.13a1.7,1.7,0,0,0,2,1.88c.83-.13,1.55-.92,2.32-1.41,0-.31,0-.62,0-.94-.74-.54-1.43-1.43-2.25-1.55C586.88,663.52,586,664.4,586.05,665.74ZM183.57,289.28c-.83.13-1.55.92-2.32,1.41,0,.31,0,.62,0,.93.74.55,1.43,1.44,2.25,1.57,1.25.19,2.09-.69,2.08-2A1.7,1.7,0,0,0,183.57,289.28ZM588,653.78a1.66,1.66,0,0,0-1.89,2.11,2.91,2.91,0,0,0,2.06,1.74c.69,0,1.46-1,2.2-1.5l0-.94C589.58,654.69,588.84,653.86,588,653.78ZM488.85,703A2.93,2.93,0,0,0,487,704.9c-.08.7.88,1.53,1.38,2.3l.89,0c.55-.76,1.44-1.45,1.57-2.27A1.63,1.63,0,0,0,488.85,703Zm99.29-118.77c-1.26-.2-2.1.68-2.09,2a1.7,1.7,0,0,0,2,1.88c.82-.13,1.55-.91,2.32-1.41v-.93C589.64,585.2,589,584.31,588.14,584.19Zm-265.76-539a3,3,0,0,0,2-1.83c.13-.69-.82-1.58-1.29-2.38l-.92-.05c-.57.75-1.46,1.43-1.62,2.26A1.58,1.58,0,0,0,322.38,45.17Zm266.45,95.05a2.89,2.89,0,0,0-1.91,1.89,1.67,1.67,0,0,0,2.06,2c.8-.15,1.47-1.06,2.21-1.62,0-.31,0-.62,0-.93C590.37,141,589.52,140.11,588.83,140.22Zm-405.37-6.11a1.66,1.66,0,0,0,2-2c-.11-.82-.94-1.54-1.45-2.31h-.92c-.52.75-1.51,1.54-1.45,2.24A2.89,2.89,0,0,0,183.46,134.11ZM591.17,300.69c-.75-.51-1.45-1.32-2.28-1.47a1.7,1.7,0,0,0-2,1.83c-.05,1.35.78,2.24,2,2.08.81-.11,1.53-1,2.29-1.51ZM282.22,45.57l.93,0c.53-.75,1.54-1.53,1.48-2.23a2.89,2.89,0,0,0-1.77-2,1.65,1.65,0,0,0-2.07,1.92C280.89,44.08,281.72,44.8,282.22,45.57Zm227.33-.44c.7.1,1.55-.88,2.33-1.39,0-.3,0-.6,0-.9-.77-.53-1.59-1.54-2.3-1.46s-1.38,1.19-2.05,1.85C508.21,43.91,508.81,45,509.55,45.13Zm-246.61.06c.82-.16,1.51-1,2.25-1.54,0-.3,0-.6,0-.9-.77-.5-1.6-1.47-2.29-1.38a2.88,2.88,0,0,0-1.95,1.86A1.62,1.62,0,0,0,262.94,45.19Zm-10,0a3,3,0,0,0,1.86-2c.07-.7-.93-1.51-1.46-2.28l-.94,0c-.51.79-1.33,1.54-1.43,2.38A1.58,1.58,0,0,0,252.94,45.17Zm-71.7,167c.76.54,1.46,1.42,2.28,1.53,1.25.17,2.08-.72,2-2.06a1.7,1.7,0,0,0-2-1.85c-.83.15-1.53.94-2.29,1.45C181.24,211.51,181.24,211.82,181.24,212.13ZM499.58,45.19c.83-.11,1.57-.91,2.35-1.4l0-.87c-.74-.56-1.5-1.58-2.22-1.54a2.82,2.82,0,0,0-2,1.73A1.61,1.61,0,0,0,499.58,45.19Zm88.56,453.38c.69.07,1.49-.92,2.24-1.43v-.94c-.76-.52-1.48-1.38-2.3-1.48a1.66,1.66,0,0,0-1.94,2.06A2.91,2.91,0,0,0,588.14,498.57Zm-49,204h-.93c-.53.75-1.53,1.53-1.47,2.23a2.87,2.87,0,0,0,1.77,2,1.66,1.66,0,0,0,2.07-1.93C540.44,704.06,539.6,703.33,539.1,702.56Zm49.78-479c.81-.11,1.53-1,2.29-1.5v-.94c-.75-.51-1.45-1.32-2.28-1.47a1.7,1.7,0,0,0-2,1.83C586.8,222.87,587.63,223.76,588.88,223.6ZM479.66,45.17a1.62,1.62,0,0,0,2-1.94c-.12-.82-1-1.54-1.51-2.3h-.9c-.52.76-1.49,1.57-1.42,2.26A2.89,2.89,0,0,0,479.66,45.17ZM232.27,703a2.84,2.84,0,0,0-2,1.82,1.66,1.66,0,0,0,2,2c.81-.14,1.51-1,2.26-1.54,0-.29,0-.59,0-.89C233.79,703.88,233,702.92,232.27,703Zm316.22,0a1.62,1.62,0,0,0-1.88,2.08,2.84,2.84,0,0,0,2,1.73c.71,0,1.48-1,2.22-1.54l0-.87C550.06,703.86,549.32,703.05,548.49,703Zm-298.3,2a2.88,2.88,0,0,0,2,1.85c.69.09,1.52-.88,2.29-1.38v-.9c-.74-.54-1.43-1.38-2.25-1.54A1.63,1.63,0,0,0,250.19,704.91ZM262.07,703a2.85,2.85,0,0,0-1.94,1.85,1.65,1.65,0,0,0,2,2c.82-.15,1.5-1,2.25-1.56,0-.3,0-.6,0-.89C263.6,703.87,262.77,702.91,262.07,703Zm326-194.44c.83-.14,1.53-.94,2.29-1.44,0-.32,0-.63,0-.94-.76-.54-1.46-1.41-2.28-1.52-1.25-.18-2.08.72-2.05,2A1.7,1.7,0,0,0,588.08,508.56Zm0,69.54c.69.08,1.5-.89,2.26-1.4v-.94c-.76-.53-1.46-1.4-2.28-1.51a1.66,1.66,0,0,0-2,2A2.89,2.89,0,0,0,588.11,578.1ZM311.83,703a1.62,1.62,0,0,0-2,2c.12.82,1,1.53,1.53,2.29h.89c.52-.77,1.49-1.58,1.41-2.28A2.89,2.89,0,0,0,311.83,703ZM450.47,45.56c.49-.79,1.46-1.66,1.34-2.34a2.76,2.76,0,0,0-2-1.83c-.65,0-1.74,1.2-1.81,2s1,1.5,1.48,2.25ZM458.92,703a2.88,2.88,0,0,0-1.74,2c-.05.7.95,1.47,1.49,2.22l.9,0c.51-.79,1.34-1.53,1.44-2.36A1.62,1.62,0,0,0,458.92,703Zm10.58-.41h-.93c-.53.75-1.52,1.54-1.46,2.24a2.89,2.89,0,0,0,1.78,2,1.66,1.66,0,0,0,2.06-1.94C470.84,704.05,470,703.33,469.5,702.56ZM386.44,275.13c1.64,0,2.85-1.56,2.89-3.63s-1.1-3.83-2.61-3.82-3.12,1.82-3.18,3.93S384.71,275.17,386.44,275.13Zm66.91,160.58c1.38,0,2.15-.88,2.29-2.4a4.31,4.31,0,0,0-3.6-4.47,2.61,2.61,0,0,0-2.87,2.36C449,433.18,451,435.51,453.35,435.71Zm26.77-72.87c-2,0-3.43,1.09-3.5,2.74s1.51,3,3.67,3.05,3.82-1.12,3.79-2.65S482.22,362.88,480.12,362.84ZM320.18,428.17c-2,.05-4.26,2.34-4.11,4.31.13,1.66,1.29,2.18,2.75,2.18a4.27,4.27,0,0,0,4.11-3.79A2.6,2.6,0,0,0,320.18,428.17Zm-27.75-65.9c-2.1-.08-3.82,1.05-3.87,2.55-.06,1.66,1.73,3.17,3.83,3.26s3.58-1.14,3.59-2.83S294.48,362.35,292.43,362.27Zm26.7-67c-1.67.13-2.21,1.28-2.2,2.75a4.35,4.35,0,0,0,3.82,4.12,2.63,2.63,0,0,0,2.71-2.76C323.4,297.29,321.1,295.08,319.13,295.23Zm133.13,7.54c2,.06,4.27-2.18,4.29-4.44-.09-1.39-1.11-2.05-2.6-2.1-2.12-.07-4.31,1.92-4.29,3.85A2.64,2.64,0,0,0,452.26,302.77Zm-65.9,153c-1.71-.09-3.06,1.49-3.11,3.62s1.11,3.79,2.63,3.8,3.13-1.8,3.19-3.9C389.13,457.37,388,455.88,386.36,455.78ZM274.23,474.31a7.18,7.18,0,0,0-1.9,2.1c-.11.2.74.94,1.6,2a16.06,16.06,0,0,0,1.66-2.94C275.66,475.2,274.34,474.21,274.23,474.31Zm223.1,5.12c.21.12,1-.68,2.06-1.48a15.38,15.38,0,0,0-2.89-1.77c-.24-.08-1.27,1.18-1.2,1.28A7.32,7.32,0,0,0,497.33,479.43Zm46.54-114.35c-.64,0-1.23.9-1.84,1.39.7.55,1.35,1.38,2.12,1.53.55.1,1.28-.71,1.93-1.11,0-.25,0-.5,0-.75C545.33,365.76,544.58,365,543.87,365.08ZM274.05,252.92a7,7,0,0,0,2.17,1.83c.23.11.93-.73,1.92-1.55a13.64,13.64,0,0,0-2.86-1.73C275,251.39,274,252.82,274.05,252.92Zm111.73-45.09c0,.7.73,1.42,1.15,2.13l.76,0c.37-.74,1.1-1.54,1-2.22s-1-1.2-1.61-1.79C386.62,206.55,385.79,207.19,385.78,207.83Zm1,315.26c0-.64-.84-1.25-1.31-1.88-.56.61-1.48,1.16-1.58,1.83s.65,1.44,1,2.16h.75C386.09,524.5,386.81,523.79,386.8,523.09ZM226.89,364.39c0,.47,1.07,1.44,1.64,1.42s1.34-.86,2-1.35l-1.87-2.29C227.82,363.16,226.93,363.75,226.89,364.39ZM500.3,254.66c.09-.26-.93-.91-1.44-1.38a12.29,12.29,0,0,0-1.87,2.17c-.12.23.67,1,1.44,2A13.87,13.87,0,0,0,500.3,254.66ZM404.82,86.27a7.49,7.49,0,0,0,1.47-1.3,9.87,9.87,0,0,0-1.51-1.52c-.33-.22-.9-.09-1.36-.09-10.66,0-21.32,0-32,0a21.67,21.67,0,0,0-5.1.46c-.9.22-2.21,1.15-2.28,1.87-.15,1.43,1.37,1.21,2.38,1.36.12,0,.23.11.48.24,1.17,9.58,2.35,19.25,3.53,28.94-1,.17-2.24.28-3.38.58a1.57,1.57,0,0,0-.87,1.06c0,.21.54.74.9.82a15.23,15.23,0,0,0,3.15.37q16.38.1,32.76.13a4.65,4.65,0,0,0,2.11-.39,2,2,0,0,0,1-1.46A2.18,2.18,0,0,0,405,116a8.48,8.48,0,0,0-2.21-.49v-29A7.16,7.16,0,0,0,404.82,86.27ZM373,107.08c-1-6.71-2-13.41-3.06-20.33h8.49q-2.54,10.17-5.08,20.38Zm11.77,8.79-9.61.48c.33-1.58.64-2.95.92-4.33,1.55-7.7,3.24-15.39,4.56-23.13.39-2.33,1.35-2.83,3.33-2.58.45,0,.91.07,1.64.13C385.36,96.3,385.08,106,384.8,115.87Zm7.09-.06h-3.3V86.63h4.55C392.72,96.38,392.31,106,391.89,115.81Zm7.33-.23h-3.43V86.48h4.57C400,96.17,399.6,105.77,399.22,115.58Z"/></svg>