<svg xmlns="http://www.w3.org/2000/svg" viewBox="0 0 750 750"><path d="M606.16,48.24a27.94,27.94,0,0,0-.45-5.33A21.88,21.88,0,0,0,583.79,25H187.27c-13.13,0-22.69,9.55-22.69,22.68V374.83q0,163.79,0,327.56a20.91,20.91,0,0,0,.15,3.17c1.76,11.87,10.72,19.44,23,19.44q197.58,0,395.14,0a27.15,27.15,0,0,0,5.33-.45c10.93-2.21,17.91-11.08,17.91-22.76Q606.17,375,606.16,48.24Zm-4.27,653.43c0,11.54-7.47,19.05-19,19.05q-197.58,0-395.16.07a18.65,18.65,0,0,1-19-19q.22-163.4.09-326.78V47.47c0-8.9,5.5-15.93,14-17.83a18.61,18.61,0,0,1,4-.35H583.94a17.67,17.67,0,0,1,17.95,17.64c0,1.33,0,2.65,0,4ZM580.36,421.85l-4.21-3V671.73c-12.28,2.25-18.66,10-21.36,21.59h-122c2.56,3.11,5.24,4.67,9.14,4.33,4.33-.37,8.73-.09,13.1-.08l102,0c.56,0,1.13-.11,1.57-.15.94-13.83,9.4-19.93,21.82-22.17ZM194.69,671.73v-253l-4.15,3.06V675.28c12.5,2.31,20.83,8.44,21.78,22.2.54,0,1.06.11,1.57.11,38.83,0,77.65-.07,116.47.07,3.62,0,5.34-2.13,7.43-4.42H215.94C212.62,680.32,207.59,675.22,194.69,671.73ZM555.74,54.88C557.5,66,566.31,75.17,577,76.24V319.39l4.19-3.13V72.55a23.06,23.06,0,0,1-15.29-6.71c-4.27-4.16-6.86-9-6.22-15.16-.83-.08-1.29-.17-1.74-.17-39,0-77.91.08-116.87-.06-3.58,0-5.12,2.27-7.34,3.95l.15.48ZM191.29,316.32l4.19,3v-243c12.29-2.24,18.67-10,21.4-21.68H338.8c-2.46-3-5.15-4.58-9-4.24-4.28.37-8.61.08-12.91.08l-102.16,0a13.49,13.49,0,0,0-1.58.15c-.94,13.82-9.38,19.93-21.82,22.16ZM377.72,582.81a9.76,9.76,0,0,0,.78,2.3l.76-.09a11.57,11.57,0,0,0,.6-2.12,103.93,103.93,0,0,0-1.09-29.09c-1.1-6-3.38-11.41-8.12-15.54a3.61,3.61,0,0,1-.91-1.27c-2.52-5.84-7-9.6-12.6-12.34-6.41-3.13-12.4-6.89-16.59-12.92-1.24-1.8-2.7-3.47-3.78-5.36-2.54-4.48-7.1-5.61-11.43-7.13-.2-.08-.49.11-1,.25-1.14,5.26,3.41,9.27,3.39,14.93-1.54-.78-3.1-1.1-3.91-2.06a48.92,48.92,0,0,1-6.33-8.61,61.83,61.83,0,0,0-7-11.21,18.64,18.64,0,0,0-5.55-5,4.12,4.12,0,0,1-1.57-1.41c-4.36-7.62-11.42-10.56-19.68-11.41-.32,0-.67.31-1.28.61,3,5.21,8.33,8.65,10.3,14.65l-6.22-.46a16.06,16.06,0,0,0,1.33,2.34c2.14,2.51,4.62,4.78,6.45,7.49,5.57,8.22,10.89,16.61,16.31,24.93.14.22.2.49.32.73,3.25,6.76,7.18,12.89,13.86,17,5.09,3.09,9.85,6.71,14.8,10,8.06,5.43,12.64,12.63,11.94,22.7a88.19,88.19,0,0,0,0,9.34,10.76,10.76,0,0,0,.83,2.72l.89-.07c2.54-3.09.71-7.16,2-10.66l1.19.16c1.24,3.7,2.48,5.21,4.85,5.77,1.94-1.76-.2-3.61,0-5.46h2.42c1.19,4.35,3.16,6.2,5.85,5.11a16.71,16.71,0,0,0-.51-2.89,19.91,19.91,0,0,0-1.51-2.76,5.73,5.73,0,0,1,.8-.29c.64-.11,1.28-.19,1.91-.29,1.08,3.58,2.52,4.81,5,4.18,1.13-2.13-.34-3.64-1.63-5.36l3.55-1.2C377.33,576.49,377.47,579.65,377.72,582.81Zm-48.34-79.67a9.41,9.41,0,0,1,4.45,3.7c1.68,2.53,3.32,5.1,5.06,7.6,4.29,6.16,10.54,9.71,17.15,12.76a24.94,24.94,0,0,1,9.76,7.67c-6.11-3-12-5.61-17.51-8.77s-10.79-6.92-16-10.31l-3.39-12.27Zm-35.47-10.42c1.17.3,3.85,4.46,4.42,7.93Zm80.86,78.65c.18-2.31,1.64-4.55-.88-6.18-3.27,1.62-2.82,4.56-2.87,7.44l-3,.59c.43-2,.82-3.79,1.18-5.47-2.92-1.57-4-.19-5,6.11l-3.75.18c1.41-2.36,3.26-4.5,1.25-7.31-3.56,1-4.55,3.66-4.94,6.88l-1.32-.46a85.37,85.37,0,0,0-1.56-9c-1.88-6.62-6.75-10.94-12.12-14.74-6.49-4.59-13.09-9-19.57-13.61a46.92,46.92,0,0,1-4.3-3.89c1.34-2.22-.22-3.6-1.13-5.12-3.18-5.34-6.53-10.58-9.57-16-4.76-8.49-9.5-17-13.82-25.69-1.2-2.4-1.94-5-3.68-7.21,3.62,1.39,7.1,3,9.48,6.6-2,1-1.38,2.34-.69,3.79,3.83,8.14,7.3,16.48,11.58,24.38,2.95,5.42,7,10.23,10.6,15.3a3.55,3.55,0,0,0,.89.66l.57-.2a12.92,12.92,0,0,0-.89-3.14,34,34,0,0,0-3.35-4.91c-3.69-4.46-6.06-9.61-8.17-14.92-.47-1.16-1-2.29-1.51-3.45-1-2.4-2.64-4.48-2.62-7.36,0-1.52-1.11-3-1.36-5,1.19,1.19,2.41,2.35,3.56,3.57,3.93,4.18,5.48,9.78,8.61,14.42a26.76,26.76,0,0,0,12.1,9.92,21.78,21.78,0,0,1,4.91,2.93,88,88,0,0,0,16.85,10.8c5.09,2.37,10,5.16,14.95,7.84a16.06,16.06,0,0,1,7.26,7.91c3.13,7.29,3.65,15.11,4.64,22.93ZM485.28,490l-6,.44c2-6,7.38-9.45,10.3-14.74-.63-.28-.93-.55-1.2-.51a35.83,35.83,0,0,0-6.74,1.15c-5.35,1.89-10,4.82-12.88,10a4,4,0,0,1-1.46,1.52c-5.15,3-8.38,7.66-10.94,12.72a55.26,55.26,0,0,1-8.07,12.21,4.58,4.58,0,0,1-4.4,1.42c.61-1.92,1.16-3.66,1.73-5.39.71-2.19,1.51-4.36,2.12-6.59a10.78,10.78,0,0,0-.16-2.91c-2.84,1.06-5.34,1.77-7.64,2.91-3.49,1.73-5.27,5.17-7.28,8.24C428.27,517.18,422,521.6,415,525c-5.69,2.75-10.21,6.55-12.76,12.45a4.22,4.22,0,0,1-1.07,1.39,24,24,0,0,0-7.26,12.52,99,99,0,0,0-1.72,32.38,6.17,6.17,0,0,0,.8,1.74l.7-.09c1.57-4.08.45-8.57,1.39-13A27.13,27.13,0,0,0,417,577.09c.15,2.07.24,3.78.41,5.49s-.33,3.5,1.58,4.54c1.52-.47,1.49-1.65,1.5-2.76,0-3.84-.21-7.7.13-11.52a35.91,35.91,0,0,1,2-9.61c2-5.16,6.39-8.34,10.75-11.39,5-3.54,10.14-7,15.24-10.45a26.86,26.86,0,0,0,9.78-11,55,55,0,0,1,4.18-7.65c7-10.39,12.84-21.65,21.78-30.68A7.25,7.25,0,0,0,485.28,490Zm-70.79,38.31a44.14,44.14,0,0,0,23.36-20.51,8.93,8.93,0,0,1,5.34-4.36c-1.2,4.41-2.28,8.39-3.33,12.28-9,6.68-24.88,16-33.48,19.38C408.78,532.42,411.07,529.62,414.49,528.27Zm2.34,46.35c-7.83,1.46-15.06.27-21.86-4.56.14-1.36.27-2.57.4-3.86,10.39,4.5,10.39,4.5,21.46,5.16Zm56.66-73.26-.65-.44,4.68-8.07.5.31Zm-9.88,12c-2.5,4.87-5.72,9.37-8.56,14.08-.82,1.35-2.21,2.63-.93,4.72a41.29,41.29,0,0,1-4.16,3.89c-5.87,4.19-11.93,8.14-17.73,12.42a73.36,73.36,0,0,0-10,8.66c-2,2.15-3.18,5.12-4.81,7.87-5,1.29-16.75-1.54-21.05-5.33.78-4.78,1.53-9.54,4-13.82a16.46,16.46,0,0,1,6.6-6.43c5.8-3.06,11.75-5.85,17.43-9.11,4.57-2.63,8.82-5.83,13.26-8.69a86.07,86.07,0,0,1,8.15-4.84,25.94,25.94,0,0,0,12.64-14c1.63-4,4.49-7,6.73-10.48a5.66,5.66,0,0,1,2.9-1.84c-.52,1.28-1.37,2.52-1.5,3.84-.55,5.51-4.06,9.82-5.77,14.84-1.53,4.51-4.23,8.36-7.11,12.11a33,33,0,0,0-2.88,4.28,16.65,16.65,0,0,0-1,3.19l.72.38c.75-.84,1.55-1.66,2.26-2.54a87,87,0,0,0,13-21.71c2.24-5.58,5.12-10.9,7.69-16.35a27.44,27.44,0,0,0,.88-2.62L473,484.67c2.18-3.36,5.6-5,9.48-6.1a14.22,14.22,0,0,0-1.75,2.07,25,25,0,0,0-1.37,3.18,12.18,12.18,0,0,1-.85,2.18C472.85,494.76,468.36,504.14,463.61,513.39ZM386,167.88a47.89,47.89,0,0,0-47.68,47.77c-.14,24.18,18.8,47.74,47.79,47.77a47.26,47.26,0,0,0,47.61-47.68A47.75,47.75,0,0,0,386,167.88Zm.11,90.38a42.83,42.83,0,1,1,42.78-42.79A43,43,0,0,1,386.08,258.26ZM433.69,451.6a47.24,47.24,0,0,0-47.58-47.7c-29.15,0-47.95,23.74-47.82,47.73a47.7,47.7,0,1,0,95.4,0Zm-90.51.22a42.84,42.84,0,1,1,42.89,42.91A42.91,42.91,0,0,1,343.18,451.82Zm71.9-375.63H355.56v49.65h59.52Zm-4.17,45.32H359.85V80.38h51.06ZM425.29,272c0,19.61,15.56,35.58,35,35.44a35.25,35.25,0,1,0-35-35.44Zm35.29-31.53a31.54,31.54,0,1,1-31.7,31.33A31.7,31.7,0,0,1,460.58,240.51Zm-186.14,29a35.17,35.17,0,1,0,35.1-35.22A35,35,0,0,0,274.44,269.55Zm35.11-31.75a31.54,31.54,0,1,1-31.48,31.59A31.61,31.61,0,0,1,309.55,237.8ZM425.29,395.12a35.17,35.17,0,1,0,35.16-35.26A35.11,35.11,0,0,0,425.29,395.12Zm35.17-31.39a31.54,31.54,0,1,1-31.58,31.43A31.66,31.66,0,0,1,460.46,363.73Zm-150.68-1.2a35.24,35.24,0,1,0,35,35.26C344.74,378.27,329.2,362.39,309.78,362.53Zm-.19,67a31.54,31.54,0,1,1,31.59-31.47A31.76,31.76,0,0,1,309.59,429.53Zm-62.19,119a8.44,8.44,0,0,1,4,6.27c.74,5.51,1.69,11,2.58,16.47.2,1.28.48,2.54.72,3.8a4.41,4.41,0,0,0,.88-2.2c.91-5.62,2.06-11.21,2.62-16.86.45-4.59,2.91-7.2,6.8-8.92a32.68,32.68,0,0,1,4.46-1.64c2.13-.59,4.31-1,6.47-1.51,0-.14,0-.29,0-.44a16.94,16.94,0,0,1-2.89-.51c-3.59-1.28-7.24-2.47-10.69-4.06a7,7,0,0,1-3.88-5.67c-.8-5.37-1.65-10.73-2.5-16.08-.25-1.56-.58-3.11-.87-4.66-.45.27-.59.49-.62.74-1,6.27-2.18,12.52-3,18.81-.44,3.6-2.06,6.25-5.25,7.59-3.51,1.47-7.23,2.42-10.87,3.58-.55.18-1.14.26-1.71.39a3.56,3.56,0,0,0,1.8.7A30.63,30.63,0,0,1,247.4,548.54ZM474.81,162.13a7.4,7.4,0,0,1,3.37,4.94q1.23,7.86,2.48,15.69c.3,1.86.64,3.71,1,5.57l.51,0c.16-.83.33-1.67.46-2.51.9-5.55,2-11.08,2.59-16.67.45-4.54,3-7,6.76-8.74a31,31,0,0,1,4.47-1.63c2.16-.6,4.36-1,6.54-1.53a3.88,3.88,0,0,0-1.9-.71,30.31,30.31,0,0,1-11.86-4.29,7.79,7.79,0,0,1-3.69-5.41c-.95-6.21-1.94-12.42-2.93-18.63-.12-.78-.32-1.54-.57-2.74a6.29,6.29,0,0,0-.53,1c-1.06,6.53-2.21,13-3.12,19.61a8.4,8.4,0,0,1-4,6.29,30.4,30.4,0,0,1-11.89,4.19c-.68.12-1.35.26-2,.39a8.82,8.82,0,0,0,2.94.88A28.17,28.17,0,0,1,474.81,162.13Zm50.5,171.81a26.16,26.16,0,1,0-26.16,26.4A26.18,26.18,0,0,0,525.31,333.94Zm-26.12,23.41A23.42,23.42,0,1,1,522.55,334,23.5,23.5,0,0,1,499.19,357.35Zm-254.42-24a26.15,26.15,0,1,0,26.09-26.23A26.21,26.21,0,0,0,244.77,333.36ZM271,309.75a23.42,23.42,0,1,1-.06,46.83,23.42,23.42,0,1,1,.06-46.83Zm85.09,333.17c1,4,1.59,8.05,2.51,12a7.28,7.28,0,0,0,1.65,3,2.3,2.3,0,0,0,2.1.5,2.67,2.67,0,0,0,1.11-1.87c1.42-10.53,1.13-21.13,1.09-31.72a10.22,10.22,0,0,0-.32-2.76,7.71,7.71,0,0,0-1.05-1.77l-.74.09a7.4,7.4,0,0,0-.78,2c-.29,3.89-.56,7.78-.68,11.68-.11,3.66,0,7.32,0,11l-.52.07c-1.6-8.49-5.07-16.31-8.08-24.18-1.87-.07-2.8.54-3,2a18.79,18.79,0,0,0-.37,3.15q.15,14.38.41,28.78a4,4,0,0,0,.3,1.94,10,10,0,0,0,1.81,1.75,21.35,21.35,0,0,0,1.56-2c.17-.29,0-.78,0-1.17V632C354.13,635.84,355.24,639.35,356.09,642.92Zm-27.48-10c1.76-7.87-3.51-13.64-11.46-12.54-1,.14-2.07.36-3,.53L312.64,619H312l-1.32,3.7a12.76,12.76,0,0,0-2.59,2,72.64,72.64,0,0,0-4.71,6.74,1.68,1.68,0,0,0,.84,2.66l5.9-6.89.66.36c0,.7,0,1.41,0,2.12q-.33,13.61-.67,27.21a4.56,4.56,0,0,0,.16,2.14c.4.7,1.24,1.6,1.87,1.59s1.36-1,1.68-1.75a6.3,6.3,0,0,0,.11-2.35v-8.4C321.91,645.31,327,640,328.61,632.91ZM314,643.83V625.2a8.07,8.07,0,0,1,6.9-.48,6,6,0,0,1,3,2.93C326.09,633.07,319.87,643.69,314,643.83Zm82.5,5.5c-1.09-8.53-2.1-17.07-3.2-25.6a22.65,22.65,0,0,0-1-3.37l-.84-.09a9.17,9.17,0,0,0-1.28,1.94c-.93,2.82-1.8,5.67-2.58,8.54-1.26,4.64-2.43,9.31-3.58,13.73-1.59.94-4-.18-4.32,2.18-.29,2.13,2,1.64,3.09,2.38-.06.36-.1.68-.17,1-.63,2.57-1.26,5.14-1.91,7.7-.29,1.13-.35,2.22,1,2.62s2.05-.52,2.4-1.72c.24-.82.44-1.66.65-2.5.61-2.41,1.21-4.82,1.84-7.3h6.12c.48,2.81.94,5.6,1.42,8.39.21,1.22.5,2.5,2.13,2.3s1.6-1.58,1.44-2.76C397.33,654.28,396.78,651.82,396.46,649.33Zm-8.72-5.1c1-4,2-7.88,3-11.79l.32,0c.4,3.83.79,7.65,1.21,11.75Zm-104.4,9.52a3.13,3.13,0,0,0,4.15-.73,40.11,40.11,0,0,0,5.45-6.71c4.92-8.18-1.53-15.9-7.53-18.22a3.41,3.41,0,0,0-3.05.48,4.29,4.29,0,0,0-.62,3.2,17.52,17.52,0,0,0,1.46,3.75c-.73.05-1.32,0-1.88.13-3.06.5-6.14.89-9.14,1.59a3.14,3.14,0,0,0-2.74,3c0,1.7,1.41,2.26,2.73,2.75a9.84,9.84,0,0,0,2.09.63c3.32.43,6.65.8,10,1.19-.64,1.5-1.43,3-1.94,4.65S281.72,652.69,283.34,653.75Zm2.13-3-.63-.34c.9-2.08,1.81-4.15,2.72-6.24l3.77-.89A18.53,18.53,0,0,1,285.47,650.72Zm5.94-14.06c-4.74-.71-6.72-2.5-7-6.22C287.64,631.45,289.42,633.85,291.41,636.66ZM273,640.39a30.28,30.28,0,0,1,18.64-.17A31.43,31.43,0,0,1,273,640.39Zm71.13-590.8A12.05,12.05,0,0,0,348.17,51c2.52.42,5.07.62,7.75.92a14.89,14.89,0,0,0-1.38,3.45c-.15,1.11-.1,2.74.58,3.36a3.82,3.82,0,0,0,3.41.36A14.93,14.93,0,0,0,367,49.69c1.8-5.69-3-12.69-6.92-15.58-1.21-.88-2.57-1.54-4-.59s-1.49,2.63-1,4.11c.51,1.69,1.31,3.28,2.09,5.17a23.29,23.29,0,0,0-3.46,0,87.43,87.43,0,0,0-9.29,1.75,3.49,3.49,0,0,0-2.07,2.48C342.23,47.85,343.24,49.08,344.08,49.59ZM357,57c1.1-4.41,2.55-6.2,6.93-6.22A13.06,13.06,0,0,1,357,57Zm1.16-20.42c2.63,1.78,4.34,4.31,6,7.52l-3.82-.92c-.89-2-1.8-4.18-2.72-6.3ZM364.4,47a30,30,0,0,1-18.68-.18A32.38,32.38,0,0,1,364.4,47Zm63.34,651.58a12.4,12.4,0,0,0-4.08-1.43c-2.58-.44-5.2-.65-8-1,.47-1.05,1-2.05,1.34-3.08.5-1.34.83-2.74-.45-3.85s-2.64-.77-3.92-.11a15.39,15.39,0,0,0-7.77,8.39,10.22,10.22,0,0,0-.63,3.87c.21,5,3,8.62,6.39,11.91a7,7,0,0,0,2.17,1.37c2.13.89,4.07-.31,3.88-2.6a21.92,21.92,0,0,0-1.39-4.9,15.12,15.12,0,0,0-1-1.89,22.14,22.14,0,0,0,3.39,0c3.24-.52,6.51-1,9.69-1.84a2.55,2.55,0,0,0,.31-4.83Zm-13.39-7.36c.26,3.32-2.17,5.58-6.78,6.18C409.4,694.61,411.31,692.37,414.35,691.26Zm-.86,20.31c-2.64-1.77-4.34-4.32-6-7.52l3.82.91c.89,2,1.8,4.18,2.72,6.3Zm-6.23-10.51a30.16,30.16,0,0,1,18.67.19C419.67,702.84,413.45,703.14,407.26,701.06Zm-49.92-12.15a3.5,3.5,0,0,0-3.06.51,3.86,3.86,0,0,0-.64,3,18.07,18.07,0,0,0,1.38,3.64c-3.41.55-6.75,1-10,1.67-1.69.35-3.49,1.15-3.56,3.21-.07,2.22,1.91,2.79,3.56,3.11,3.68.7,7.41,1.13,11.15,1.68-.58,1.45-1.39,3.12-1.91,4.87-.43,1.42-.42,3,1,3.94a3,3,0,0,0,4-.58,40.74,40.74,0,0,0,5.63-6.83C369.85,698.94,363.33,691.19,357.34,688.91Zm-.54,22.3,2.71-6.23,3.37-.81A11.06,11.06,0,0,1,356.8,711.21ZM344.5,701a37.82,37.82,0,0,1,19.33-.21C360.89,703,348,703.22,344.5,701Zm11.81-9.68c3.26,1,5.1,3.34,6.93,6.12C358.35,697.44,356.8,694.43,356.31,691.27ZM172.56,340.21a43.16,43.16,0,0,0,7,5.66c8.09,4.8,15.83-1.82,18-7.68a3.52,3.52,0,0,0-.54-3.05,3.92,3.92,0,0,0-3-.62,19,19,0,0,0-3.75,1.44c-.34-2.8-.53-5.5-1-8.15a12.2,12.2,0,0,0-1.74-4.35c-1.23-1.85-3.19-1.63-4.26.34A9.8,9.8,0,0,0,182.1,327c-.5,3.37-.84,6.76-1.24,10.12-1.5-.61-3.15-1.42-4.89-1.95-1.49-.45-3.11-.47-4.09,1.09A3.08,3.08,0,0,0,172.56,340.21Zm22.76-3.06c-1.16,3.3-3.47,5.14-6,6.9C189,340.14,190.51,338.2,195.32,337.15Zm-10-11.54c2.1,3.83,2.17,15.38.2,18.86C183.51,341.44,183.31,329.39,185.27,325.61Zm-10,12.07,6.3,2.71c.29,1.24.54,2.26.9,3.78a18,18,0,0,1-7.5-5.93Zm7.09,68.73c.33,1.75.83,4,3.25,3.87,2.22-.1,2.92-2.12,3.29-3.95.62-3.16,1-6.36,1.54-9.69a12.3,12.3,0,0,0,3.06,1.26,5.79,5.79,0,0,0,3.63-.43c1.32-.89.92-2.5.27-3.8a15.14,15.14,0,0,0-8.49-7.9,11.09,11.09,0,0,0-4.26-.54c-4.74.24-8.17,3-11.35,6.19a7.22,7.22,0,0,0-1.49,2.31c-.89,2.13.33,4.07,2.61,3.88a22.26,22.26,0,0,0,4.89-1.4,9.19,9.19,0,0,0,1.49-.77C181.28,399.16,181.65,402.82,182.33,406.41Zm13.06-10.85a9.86,9.86,0,0,1-5.63-3c-.25-1.24-.5-2.45-.83-4A13.27,13.27,0,0,1,195.39,395.56Zm-10.24-7.68c2.32,3.14,2.27,15.57-.15,19.4A39.91,39.91,0,0,1,185.15,387.88Zm-9.9,7.05-.32-.56c1.78-2.63,4.31-4.35,7.5-6-.36,1.53-.59,2.55-.89,3.8ZM501,639.34c-.06-2.24-2.09-3-3.91-3.32-3.15-.64-6.36-1-9.73-1.55a12.13,12.13,0,0,0,1.25-3,5.83,5.83,0,0,0-.4-3.64c-.87-1.35-2.51-.95-3.8-.31a15.3,15.3,0,0,0-8,8.66,11,11,0,0,0-.49,4.08c.19,4.52,2.81,7.86,5.75,10.95,2.09,2.21,4.17,2.74,5.56,1.73s1.56-3,.36-5.85c-.46-1.1-1-2.16-1.4-3,3.73-.5,7.34-.86,10.89-1.54C498.8,642.22,501,641.75,501,639.34Zm-14.75-9.81c-1.09,4.4-2.58,6.21-6.94,6.2A13.08,13.08,0,0,1,486.21,629.53Zm-6.87,13,3.53.81,2.9,6.66C483.19,649,480.46,645.69,479.34,642.51Zm-.82-2.8c3.35-2.32,15.79-2.23,19.43.22A40.9,40.9,0,0,1,478.52,639.71ZM588.57,326.35c-.33-1.74-.76-3.8-3.13-4.07-1.47-.16-2.89,1.34-3.46,4-.66,3.15-1,6.35-1.53,9.63a33.72,33.72,0,0,0-3.85-1.51c-2.54-.66-4.32,1.14-3.4,3.6a16.5,16.5,0,0,0,2.86,4.68c6.23,7.43,19.22,5.33,23-3.67.05-.12.11-.24.15-.36.65-2-.44-3.72-2.54-3.69a12.48,12.48,0,0,0-3.64.78,25.5,25.5,0,0,0-2.94,1.38C589.57,333.49,589.23,329.89,588.57,326.35Zm-13.1,10.73c2.54.25,4.07,1.62,5.63,3,.25,1.25.5,2.46.82,4.06A13.47,13.47,0,0,1,575.47,337.08Zm10.23,7.65c-2.33-3.19-2.26-15.62.16-19.39A40,40,0,0,1,585.7,344.73Zm9.82-7.06.39.6a18.55,18.55,0,0,1-7.46,5.91c.31-1.42.54-2.43.83-3.74ZM414.46,59.28c2.58.9,4.34-.93,3.6-3.6a36.4,36.4,0,0,0-1.52-3.78c2.81-.34,5.52-.51,8.16-1A12.7,12.7,0,0,0,429.21,49c1.66-1.14,1.44-3-.33-4a9.88,9.88,0,0,0-3.33-1.24c-3.36-.51-6.75-.84-10.1-1.23.63-1.55,1.44-3.22,2-5,.43-1.42.44-3-1-4a3,3,0,0,0-4,.55,41.81,41.81,0,0,0-5.81,7.18C401.8,49.51,408.78,57.31,414.46,59.28Zm-.2-22.77.59.35c-.93,2.13-1.85,4.26-2.76,6.33l-3.81.84C410,40.79,411.71,38.28,414.26,36.51Zm12.46,10.32a29.86,29.86,0,0,1-18.62.23C414.3,45,420.51,45.29,426.72,46.83ZM415.28,56.88c-3.18-1.14-5.12-3.37-6.78-6.09C412.86,50.59,414.72,53,415.28,56.88Zm182.93,335.4a41.26,41.26,0,0,0-6.89-5.53c-8.06-4.77-15.75,1.62-18,7.61a3.66,3.66,0,0,0,.61,3.2c.56.61,2.05.66,3.05.49a19.63,19.63,0,0,0,3.78-1.5,18.16,18.16,0,0,0,.12,2.09,81.69,81.69,0,0,0,1.7,9.11,4.13,4.13,0,0,0,2.89,2.42c.8.08,2.29-1.38,2.58-2.4a69.37,69.37,0,0,0,1.62-8.72,26.75,26.75,0,0,0,0-3.7c1.82.78,3.35,1.57,5,2.08s3.23.62,4.3-1A3.13,3.13,0,0,0,598.21,392.28Zm-17.19.61L575.77,396c.41-3,2.75-5.67,6.13-7.36Zm4.62,13.92a29.78,29.78,0,0,1-.24-18.64C587.51,394.33,587.15,400.56,585.64,406.81Zm3.68-14.6c-.3-1.24-.54-2.26-.79-3.29,2.28.21,6.22,3.28,7.5,6.18ZM436.45,656.1c-.05,1.58.24,3.65,1.92,3.69a63.75,63.75,0,0,0,10.2-.94c.44-.07,1.08-1.27,1-1.85s-.9-1.26-1.53-1.47a5.69,5.69,0,0,0-2.34.13c-1.62.21-3.22.47-4.77.7V642.71c1.26-.08,2.23-.15,3.2-.2a9.5,9.5,0,0,0,3.14-.22,3.37,3.37,0,0,0,1.85-2.11c.08-.51-1.09-1.43-1.88-1.81a5.87,5.87,0,0,0-2.53-.32c-1.22,0-2.44.13-4.05.23V623.76l8.14-.4a2.68,2.68,0,0,0-2.64-3.14,71.39,71.39,0,0,0-8.89.39,1.6,1.6,0,0,0-1.41,2.38l1.18.93v14.86c-1.44,1-4.07.47-3.79,2.89.08.72,2.07,1.21,3.64,2,0,.18,0,.83,0,1.48C436.73,648.83,436.55,652.47,436.45,656.1ZM187.38,52.78a62.06,62.06,0,0,0,4.56,5c-1.71.72-3.46,1.35-5.08,2.2-1.41.73-2.48,1.89-2.07,3.68a3,3,0,0,0,3.33,2.29,43.21,43.21,0,0,0,9-1.07c8.93-2.38,9.79-12.43,7.09-18.26-1.15-2.49-3.69-2.51-5.07-.12a33.32,33.32,0,0,0-1.66,4c-2-1.6-3.92-3.33-6.05-4.74a14.39,14.39,0,0,0-4.84-2.11c-2.18-.46-3.54,1.21-2.66,3.27A30,30,0,0,0,187.38,52.78Zm1,10.57c-.09-.36-.19-.71-.28-1.06l6.42-2.69,3,1.86,0,.64Zm13.48-15.76c1.48,3,1.29,6,.61,9.32C198.76,53.37,199.93,50,201.87,47.59Zm-1.32,12.08c-3.64-.32-13-9.18-14.1-13.49A37.86,37.86,0,0,1,200.55,59.67Zm384.8,637.1c-1.76-2.28-3.75-4.38-5.56-6.45,1.6-.68,3.34-1.3,5-2.15,1.41-.73,2.5-1.87,2.1-3.66a3,3,0,0,0-3.3-2.32,42.55,42.55,0,0,0-9,1.06c-9,2.38-9.82,12.4-7.13,18.24,1.16,2.5,3.69,2.55,5.07.17a32.5,32.5,0,0,0,1.68-4c1.94,1.56,3.8,3.24,5.87,4.63a14.5,14.5,0,0,0,4.8,2.19c2.42.55,3.73-1.09,2.84-3.41A17.13,17.13,0,0,0,585.35,696.77Zm-2-11.58c.08.21.15.42.23.62l-6.45,2.71-3.28-2.1A18.87,18.87,0,0,1,583.32,685.19Zm-13.5,15.37c-1.57-3-1.27-6.06-.69-9.32C572.38,694.4,572.33,696.65,569.82,700.56Zm1.41-12.71a40.47,40.47,0,0,1,14.24,13.43C581.91,701.22,572.76,692.65,571.23,687.85Zm-.91-626C574,65.62,579,66.35,584.07,66c1.62-.12,3.24-.58,3.6-2.51s-.93-3-2.38-3.72-3.23-1.34-4.59-1.9c2.12-2.61,4.41-5.17,6.37-8,1.15-1.64,2.95-3.77,1-5.69s-4.16-.39-5.95.8c-2.47,1.63-4.76,3.53-7.19,5.36a14.21,14.21,0,0,0-1.39-3.49c-.66-.9-1.87-2-2.8-2a3.57,3.57,0,0,0-2.6,2.18,26.82,26.82,0,0,0-.77,8.52A11.37,11.37,0,0,0,570.32,61.89Zm14,.33-.27,1.1-9.19-1.17-.07-.59,3-1.94ZM586,46.83a37.26,37.26,0,0,1-13.59,13.26C572.54,56.65,581.42,47.89,586,46.83Zm-15.36.75c2.63,3.07,2.24,7-.72,9.06C569.34,53.59,569,50.57,570.61,47.58ZM191.84,682.2a15.46,15.46,0,0,0-5.3.18,3.61,3.61,0,0,0-2.42,2.14,4,4,0,0,0,1.36,3.15,17.88,17.88,0,0,0,4.23,2.07c.49.22,1,.36,1.7.6-.62.56-1.08.93-1.5,1.34-2.79,2.67-5.32,5.55-6.73,9.22-1,2.54.34,4.2,3,3.58a14.17,14.17,0,0,0,4.6-2.17c2.06-1.4,3.93-3.07,5.91-4.66a17.07,17.07,0,0,0,1.46,3.65c.61.87,1.8,2,2.65,1.89a3.89,3.89,0,0,0,2.72-2.07,14.25,14.25,0,0,0-.64-13C200.45,684,196.25,682.76,191.84,682.2Zm-4.58,3.63c.06-.21.13-.42.19-.63,3.17-.59,6.21.13,9.64,1.17l-3.3,2.13Zm-1.35,15.68c.2-3.12,9.31-12,13.63-13.22C197.9,692.62,190.18,700,185.91,701.51Zm15.24-1.07c-2.3-2.49-3-6.15.55-9.12C202.37,694.43,202.54,697.43,201.15,700.44ZM456.5,649.35l-.7-.57c-.93.51-2.1.8-2.74,1.55-1.23,1.43-1.07,3.22-.4,4.89,1.51,3.79,3.67,4.85,8.48,4.27,4.41-.53,7.08-3.55,6.36-7.9a25.44,25.44,0,0,0-2.85-8.56,38.34,38.34,0,0,0-6.47-7.72,9.25,9.25,0,0,1-2.89-8.62c.37-2.46,1.61-3.46,4.07-3.2A4,4,0,0,1,463,626.7a29.51,29.51,0,0,0,1.45,3.13c.63-.94,1-1.31,1.15-1.76.72-2.86-1.65-6.58-4.66-7.41-3.73-1-7.44.54-8.39,3.71-1.53,5.08-1.2,9.83,2.9,13.76q1.29,1.25,2.49,2.58a21.35,21.35,0,0,1,5.2,8.8c1.14,4.41,1.44,6.25-4.42,6.6C454.71,654.7,456.8,651.66,456.5,649.35Zm2.12,6.77c-.1,0-.18,0,0,0ZM378.42,57.34a2.77,2.77,0,0,0,2.3.4c.43-.16.76-1.32.69-2-.35-3.44,1.11-5.91,4.54-7.29,3.66,1,5.51,3.71,5.14,7.07-.08.73.2,2.05.6,2.17a3.31,3.31,0,0,0,2.45-.49,6.83,6.83,0,0,0,1.83-2,11.48,11.48,0,0,0-12-17.36,11.53,11.53,0,0,0-9.16,9.33C374.28,51.14,375.29,54.66,378.42,57.34Zm3-14.36c2.93-2.29,6.2-2.33,9.34-.1a6.71,6.71,0,0,1,2.77,7.92c-4.43-8.23-11.24-6.58-14.57,0A6.81,6.81,0,0,1,381.42,43Zm196,328.26a10.86,10.86,0,0,0-2.79.62c.42,1,.59,2.3,1.31,3a11.06,11.06,0,0,0,12.36,1.88c4-1.91,7-6.66,6.76-10.67a12.08,12.08,0,0,0-8.1-10.78c-4.17-1.36-9.34,0-11.75,3.15a2.68,2.68,0,0,0-.45,2.28c.23.49,1.41.78,2.13.71,3.2-.34,5.73,1.18,7.15,4.54C583.07,369.47,580.51,371.39,577.37,371.24Zm4.27-12.17a6.73,6.73,0,0,1,7.7,2.24,7.28,7.28,0,0,1,.49,9.17,6.92,6.92,0,0,1-8.35,3.1C589.12,369.84,589,362.86,581.64,359.07ZM393.46,691a3,3,0,0,0-2.43-.63c-.47.18-.79,1.51-.71,2.28.33,3.34-1.56,6-5.2,7-3.47-1.45-4.85-3.82-4.48-7.33.06-.62-.18-1.64-.6-1.86a2.94,2.94,0,0,0-2.15.12,4.45,4.45,0,0,0-1.44,1.34,11.48,11.48,0,1,0,18.42,13.7C398.1,701,397.5,694.38,393.46,691Zm-3,13.84c-3.15,2.49-6.32,2.74-9.33.72a7.18,7.18,0,0,1-3-8.55c1.36,3.47,3.76,5.78,7.19,5.88,3.59.1,5.8-2.47,7.2-5.76A6.54,6.54,0,0,1,390.5,704.81ZM194.3,361.54a2.24,2.24,0,0,0,1.83-.71,2.59,2.59,0,0,0-.13-2,4.36,4.36,0,0,0-1.33-1.45,11,11,0,0,0-11.92-1.59c-4.1,1.77-7.14,6.49-6.87,10.78a11.46,11.46,0,0,0,7,10.28c4.33,2,9.92.85,12.71-2.6a3.15,3.15,0,0,0,.53-2.46c-.11-.39-1.42-.71-2.14-.63-3.39.37-6-1.42-7.12-5.09C188.21,362.55,190.53,361.2,194.3,361.54Zm-5.09,12a6.61,6.61,0,0,1-7.8-2.55c-2.32-3.15-2.39-6.37-.19-9.34a6.92,6.92,0,0,1,8-2.68C181.71,363.09,181.82,369.77,189.21,373.58ZM338,623.84a29.06,29.06,0,0,0,5.29-.61,2.72,2.72,0,0,0,1.71-2c0-.64-1.11-1.36-1.86-1.85-.37-.25-1-.11-1.55,0-2.24.22-4.49.38-6.7.75a19.59,19.59,0,0,0-3.28,1.13v39.82c4.58-1,8.75-1.95,12.88-3a2,2,0,0,0,.91-1.73,2.33,2.33,0,0,0-1.45-1.57,10.83,10.83,0,0,0-3.72.14c-1.72.33-3.4.88-5.14,1.34V644c3-.75,6.07,0,8.36-2,0-2.15-.85-3-3.12-2.81-1.75.13-3.48.45-5.27.69-.29-5.42-.56-10.6-.85-16C335.54,623.86,336.78,623.93,338,623.84Zm74.55,34.47a13.13,13.13,0,0,0,4.66-6.28c.41-1.21.64-2.47-.76-3.1s-2.19.42-2.89,1.61c-1,1.66-2.18,3.2-3.29,4.79-2.72-.92-4.09-2.26-4.66-4.45a38.54,38.54,0,0,1-1.1-15.36,32.2,32.2,0,0,1,2.38-8.56c2-4.26,5-4.4,7.9-.76a20.49,20.49,0,0,0,1.94,1.84,7,7,0,0,0,.6-2c-.33-3.73-5.28-6.65-8.72-5.12a11.57,11.57,0,0,0-6.31,7.05,40.07,40.07,0,0,0-.54,25c.89,3.14,3.18,5,6.09,6.08A4.71,4.71,0,0,0,412.57,658.31Zm109.64-240a31.19,31.19,0,0,0,.59,3.92c.44,2.6.89,5.21,1.38,8.11.36-.46.48-.54.5-.65.6-3.59,1.43-7.15,1.72-10.77.31-3.83,2.43-5.84,5.75-7,1.72-.58,3.48-1,5.82-1.65-1.21-.28-1.83-.43-2.46-.56-6.59-1.31-8.11-2.84-9.25-9.37-.56-3.21-1.1-6.42-1.65-9.63h-.51c-.6,3.67-1.44,7.32-1.73,11-.31,4-2.57,6-6.07,7.13-1.62.51-3.27.89-5.23,1.41,2.48.78,4.59,1.32,6.61,2.11C520.31,413.48,522.1,415.25,522.21,418.34ZM240.05,277.17c-.51-4-1.29-8-2-12.05a2.59,2.59,0,0,0-.81,1.6c-.54,3.27-1.27,6.52-1.52,9.81a6.57,6.57,0,0,1-4.65,6c-1.66.64-3.4,1.06-5.11,1.57-.44.14-.89.26-1.52.44,2.35.73,4.46,1.28,6.48,2.05a6.67,6.67,0,0,1,4.8,6.14c.33,3.79,1.16,7.54,1.77,11.3l.57.05c.65-3.9,1.47-7.79,1.9-11.71a6.26,6.26,0,0,1,4.17-5.52c1.83-.75,3.76-1.22,5.65-1.83.37-.11.73-.25,1.06-.36-2.56-.92-5.08-1.7-7.48-2.74A5.55,5.55,0,0,1,240.05,277.17Zm136.16,380a6.62,6.62,0,0,0,.24-2.54c.07-8.8.12-17.61.2-26.42,0-1.35.2-2.71.29-4a32.94,32.94,0,0,0,5-.08c.67-.11,1.73-1.17,1.67-1.68a2.83,2.83,0,0,0-1.66-2,16.56,16.56,0,0,0-4.9-.62c-3,.07-6,.4-8.87.61-1.32,2.74-1,3,5,3.94,0,.44,0,.77,0,1.09q-.37,14.79-.76,29.57a4.36,4.36,0,0,0,.24,2.13c.38.64,1.19,1.41,1.81,1.41S375.91,657.86,376.21,657.21Zm48.06-34.07a7.38,7.38,0,0,0-.77-2.16h-.77a11.91,11.91,0,0,0-1,2.8c-.32,3.89-.54,7.79-.71,11.68-.29,6.81-.5,13.63-.78,20.44-.09,2.22.49,3.18,2.77,3.18,3.63,0,7.26-.3,10.89-.61.7-.06,1.35-.74,2-1.1-.55-2.09-1.86-2.43-3.32-2.44-2.7,0-5.4,0-8.3,0,.18-4.57.5-9,.5-13.54C424.73,635.31,424.49,629.22,424.27,623.14ZM281.1,115.56a70.06,70.06,0,0,0-1.31-8.08,24.78,24.78,0,0,0-1.55,6.73c-.29,3.38-1.38,6-5,7l-3.84,1a5.53,5.53,0,0,0,1,.38c5.11.83,8.11,3.4,8,9-.05,1.83.65,3.68,1,5.52a15.09,15.09,0,0,0,1.13-4.1,29.05,29.05,0,0,0,.63-4.1c.07-2.92,1.73-4.44,4.26-5.31,1.3-.44,2.62-.83,4.34-1.37-1.64-.43-2.81-.67-3.93-1C283.14,120.26,281.26,118.8,281.1,115.56ZM504.87,532.24a31.23,31.23,0,0,0,.67,3.55c.71-1.82.59-3.84,1.41-5.34s2.56-2.3,3.53-3.11c-1-.81-2.75-1.69-3.53-3.12s-.7-3.52-1-5.32c-1.43,3.23-.39,8-6.55,8.24a12.14,12.14,0,0,0,1.77.7C503.68,528.25,504.7,529.84,504.87,532.24ZM521.75,272.6a19.41,19.41,0,0,0,.6,3.24c.73-1.87.61-3.94,1.49-5.42s2.74-2.26,4-3.25c-3.59-.9-4-1.38-4.63-5.25-.16-1-.35-2-.53-3a13.23,13.23,0,0,0-1.1,4.42,3.48,3.48,0,0,1-2.68,3.29l-2.18.69a3.91,3.91,0,0,0,1,.52C520.44,268.29,521.72,269.84,521.75,272.6ZM298.27,207.52c1.23-3.75-.14-8.52,5.67-8.87a4.44,4.44,0,0,0-1.29-.64,4,4,0,0,1-3.51-4.13,29.39,29.39,0,0,0-.69-3.89c-1.31,3.29-.3,7.89-6.05,8.32,5.34,2.37,4.16,1.23,5.31,6.84C297.85,205.8,298,206.43,298.27,207.52Zm-52,234.91a28.55,28.55,0,0,0-.7-4.15c-1.36,3.28-.23,8-6.12,8.48,2.22,1,4.37,1,4.74,3.43.28,1.78.67,3.54,1,5.31l.39,0c.3-1.82.2-3.83,1-5.38s2.45-2.34,3.7-3.45a2.79,2.79,0,0,0-.58-.24C247.65,445.87,246.35,444.78,246.27,442.43ZM423.64,329.07c-.12-.86-.28-1.72-.42-2.57l-.5-.11c-.71,3.52-.07,7.94-6,8.34a12.67,12.67,0,0,0,1.74.67c2.38.42,3.46,1.9,3.67,4.24.1,1.23.41,2.45.62,3.67.73-1.82.57-3.82,1.38-5.27s2.56-2.32,3.82-3.37C424.22,333.28,424.23,333.27,423.64,329.07ZM182.69,434.52c-1.46,0-2,1.08-1.95,2.43a2,2,0,0,0,2.22,2.2,1.85,1.85,0,0,0,2-2.18C184.83,435.57,184.21,434.51,182.69,434.52Zm405.47,0c-1.53,0-2.13,1.06-2.24,2.45a1.85,1.85,0,0,0,2,2.18,2,2,0,0,0,2.22-2.21C590.15,435.6,589.63,434.54,588.16,434.52Zm-404-9.3c-.5-.46-2.06-.6-2.38-.23a3.49,3.49,0,0,0-.71,2.74c.4,1.56,1.78,1.46,3.21,1.1A2.45,2.45,0,0,0,184.11,425.22ZM184.89,313a2.48,2.48,0,0,0,.15-3.63c-1.41-.37-2.8-.49-3.21,1.06a3.51,3.51,0,0,0,.67,2.76C182.82,313.55,184.39,313.43,184.89,313Zm405,.21a3.44,3.44,0,0,0,.74-2.73c-.37-1.56-1.76-1.48-3.19-1.13a2.45,2.45,0,0,0,.08,3.61C588,313.4,589.56,313.56,589.89,313.19Zm-3.16,112a2.45,2.45,0,0,0-.08,3.65c2.88.5,3.6-.23,3.22-3.32C588.87,424.45,587.73,424.09,586.73,425.16Zm1.38,19.75a2.75,2.75,0,0,0-2.06,1.55c-.49,1.4.37,2.35,1.93,2.74,1.5-.3,2.48-1.13,2-2.59A2.78,2.78,0,0,0,588.11,444.91Zm-403.3,1.64a2,2,0,0,0-4,0c-.5,1.44.46,2.31,2,2.67C184.33,448.85,185.28,448,184.81,446.55Zm148-401.09a1.94,1.94,0,0,0,2.09-2.3c-.09-.81-.95-1.52-1.46-2.27-1.9.25-2.56,1.1-2.61,2.36A1.89,1.89,0,0,0,332.81,45.46Zm106.65-.08c1.27.4,2.1-.65,2.15-1.93s-.49-2.19-2.39-2.6c-.59.77-1.7,1.59-1.63,2.28A3.24,3.24,0,0,0,439.46,45.38ZM332,702.65a1.9,1.9,0,0,0-1.95,2.23c.06,1.26.75,2.26,2.14,2a7.19,7.19,0,0,0,2.12-1.27C334,703.65,333.5,702.61,332,702.65Zm106.66,0a2,2,0,0,0-1.9,2.48c.15.79,1.11,1.42,1.43,1.81,2.13-.09,2.68-1,2.63-2.27A1.88,1.88,0,0,0,438.65,702.65ZM588.76,94.47c.86-.11,1.63-1,2.44-1.55V92c-.81-.54-1.65-1.53-2.43-1.49a2.92,2.92,0,0,0-1.94,1.9A1.69,1.69,0,0,0,588.76,94.47ZM183.19,100c-.54.81-1.52,1.64-1.49,2.43a2.85,2.85,0,0,0,1.82,2,1.69,1.69,0,0,0,2.1-1.93c-.12-.88-1-1.66-1.5-2.49Zm.55,14.38a1.7,1.7,0,0,0,1.87-2.17,2.91,2.91,0,0,0-2-1.83c-.78,0-1.58,1-2.38,1.56l0,1C182.09,113.4,182.88,114.27,183.74,114.35Zm405.07,0c.86-.13,1.6-1,2.4-1.61,0-.32,0-.64,0-1-.83-.51-1.69-1.48-2.47-1.42a2.91,2.91,0,0,0-1.89,1.94A1.69,1.69,0,0,0,588.81,114.35Zm-2,17.7a1.69,1.69,0,0,0,1.85,2.17c.86-.07,1.66-.94,2.49-1.45l0-1c-.79-.57-1.59-1.58-2.37-1.56A2.88,2.88,0,0,0,586.84,132.05Zm-403.79,7.7c-.49.85-1.42,1.73-1.34,2.52a2.84,2.84,0,0,0,1.93,1.88,1.68,1.68,0,0,0,2-2c-.17-.87-1.07-1.6-1.65-2.4Zm405.72,4.41c.86-.1,1.62-1,2.43-1.56v-1c-.82-.53-1.66-1.51-2.44-1.47a2.94,2.94,0,0,0-1.93,1.9A1.69,1.69,0,0,0,588.77,144.16ZM181.26,162.57c.82.52,1.61,1.39,2.48,1.47a1.69,1.69,0,0,0,1.86-2.16,2.88,2.88,0,0,0-2-1.83c-.78,0-1.58,1-2.38,1.55ZM588.69,164c.87-.07,1.66-.94,2.49-1.46l0-1c-.79-.56-1.59-1.58-2.37-1.56a2.9,2.9,0,0,0-2,1.82A1.69,1.69,0,0,0,588.69,164Zm-405,6c-.78-.06-1.62.92-2.44,1.45,0,.32,0,.64,0,1,.8.56,1.56,1.47,2.42,1.58a1.69,1.69,0,0,0,2-2.08A2.91,2.91,0,0,0,183.69,170Zm405.1,0a2.9,2.9,0,0,0-1.95,1.88,1.68,1.68,0,0,0,1.9,2.12c.86-.1,1.64-1,2.45-1.52v-1C590.4,171,589.57,170,588.79,170ZM183.71,183.92a1.69,1.69,0,0,0,1.9-2.13,3,3,0,0,0-2-1.87c-.77,0-1.6,1-2.4,1.52,0,.32,0,.64,0,1C182.06,182.94,182.84,183.82,183.71,183.92Zm1.9,7.92a2.94,2.94,0,0,0-1.85-2c-.78-.08-1.66.87-2.49,1.37,0,.33,0,.65,0,1,.78.58,1.51,1.52,2.36,1.66A1.69,1.69,0,0,0,185.61,191.84Zm403.09-2a2.93,2.93,0,0,0-1.87,2,1.69,1.69,0,0,0,2,2c.86-.14,1.59-1.07,2.38-1.64l0-1C590.35,190.74,589.47,189.79,588.7,189.86Zm0,19.88a2.93,2.93,0,0,0-1.88,2,1.69,1.69,0,0,0,2,2c.86-.14,1.6-1.06,2.39-1.63l0-1C590.35,210.63,589.48,209.67,588.71,209.74ZM181.26,222.2c.82.52,1.61,1.39,2.48,1.47a1.69,1.69,0,0,0,1.87-2.15,2.93,2.93,0,0,0-2-1.84c-.78,0-1.59,1-2.39,1.55Zm409.92-1.13c-.83-.51-1.71-1.46-2.48-1.38a2.9,2.9,0,0,0-1.87,2,1.69,1.69,0,0,0,2,2c.86-.14,1.59-1.07,2.38-1.65Zm-.79,235.27c-.82-.52-1.62-1.4-2.48-1.48A1.7,1.7,0,0,0,586,457a2.9,2.9,0,0,0,2,1.83c.77,0,1.58-1,2.38-1.54C590.4,457,590.4,456.66,590.39,456.34ZM180.46,467.39c.83.51,1.7,1.47,2.48,1.41a2.94,2.94,0,0,0,1.87-2,1.69,1.69,0,0,0-2-2c-.86.13-1.59,1.06-2.38,1.63C180.45,466.75,180.45,467.07,180.46,467.39ZM586,466.9a2.9,2.9,0,0,0,1.94,1.89c.77,0,1.61-.94,2.42-1.47v-1c-.81-.54-1.57-1.45-2.44-1.55A1.68,1.68,0,0,0,586,466.9ZM182.86,478.77a1.67,1.67,0,0,0,2-2c-.19-.87-1.09-1.6-1.67-2.39l-.92,0c-.48.85-1.4,1.74-1.33,2.54A2.83,2.83,0,0,0,182.86,478.77Zm405.12,0c.77,0,1.61-.94,2.42-1.48v-1c-.81-.55-1.57-1.45-2.44-1.55a1.69,1.69,0,0,0-1.92,2.1A2.9,2.9,0,0,0,588,478.73Zm1-179.56a1.78,1.78,0,0,0-2.27,1.8,1.85,1.85,0,0,0,1.91,2.22c.84,0,1.64-.82,2.45-1.27,0-.3.08-.6.11-.89C590.51,300.38,589.87,299.39,589,299.17ZM182.89,484.68c-.86.1-1.63,1-2.44,1.54v1c.81.54,1.64,1.54,2.42,1.5a2.9,2.9,0,0,0,1.94-1.89A1.68,1.68,0,0,0,182.89,484.68Zm2.72-183.57a2.93,2.93,0,0,0-1.91-1.92c-.78-.06-1.63.92-2.45,1.44v1c.8.56,1.55,1.48,2.41,1.6A1.69,1.69,0,0,0,185.61,301.11Zm403.14-11.85a2.88,2.88,0,0,0-1.92,1.91,1.69,1.69,0,0,0,1.95,2.08c.86-.12,1.62-1,2.42-1.58,0-.32,0-.64,0-1C590.37,290.18,589.53,289.2,588.75,289.26ZM182.91,494.62c-.87.09-1.64,1-2.46,1.52,0,.32,0,.64,0,1,.81.55,1.64,1.55,2.41,1.51a2.9,2.9,0,0,0,2-1.87A1.68,1.68,0,0,0,182.91,494.62Zm407.48,11.44c-.81-.53-1.59-1.41-2.46-1.5a1.69,1.69,0,0,0-1.89,2.13,2.88,2.88,0,0,0,2,1.85c.78,0,1.6-1,2.4-1.51C590.4,506.71,590.4,506.38,590.39,506.06ZM182.86,518.53a1.67,1.67,0,0,0,2-2c-.19-.88-1.09-1.6-1.67-2.4l-.92,0c-.48.85-1.41,1.74-1.33,2.53A2.84,2.84,0,0,0,182.86,518.53Zm-.14,9.93a1.67,1.67,0,0,0,2.11-1.9c-.13-.89-1-1.68-1.5-2.51l-.93,0c-.54.81-1.52,1.64-1.49,2.43A2.83,2.83,0,0,0,182.72,528.46Zm405.16-4a1.69,1.69,0,0,0-1.84,2.18,2.91,2.91,0,0,0,2,1.81c.78,0,1.57-1,2.36-1.59,0-.32,0-.64,0-1C589.55,525.36,588.74,524.5,587.88,524.44Zm.06,9.93a1.69,1.69,0,0,0-1.9,2.12,2.88,2.88,0,0,0,2,1.87c.77,0,1.6-1,2.4-1.5v-1C589.58,535.36,588.81,534.46,587.94,534.37ZM180.46,546.89c.83.52,1.69,1.48,2.47,1.42a2.92,2.92,0,0,0,1.88-1.95,1.68,1.68,0,0,0-2-2.05c-.86.13-1.6,1.05-2.39,1.62C180.45,546.25,180.45,546.57,180.46,546.89ZM586,546.4a2.91,2.91,0,0,0,1.92,1.91c.78.05,1.62-.93,2.44-1.46,0-.32,0-.65,0-1-.81-.55-1.57-1.46-2.43-1.57A1.68,1.68,0,0,0,586,546.4Zm-401.23,10a1.69,1.69,0,0,0-1.91-2.12c-.86.1-1.63,1-2.45,1.52v1c.8.55,1.63,1.54,2.41,1.5A2.88,2.88,0,0,0,184.81,556.37ZM588,554.25a1.69,1.69,0,0,0-2,2,2.89,2.89,0,0,0,1.89,1.94c.77.07,1.64-.9,2.46-1.42,0-.32,0-.64,0-1C589.62,555.3,588.88,554.37,588,554.25ZM183,564.19c-.87.07-1.67.94-2.49,1.45l0,1c.79.57,1.59,1.59,2.37,1.58a2.91,2.91,0,0,0,2-1.83A1.69,1.69,0,0,0,183,564.19Zm-.56,9.54c-.54.81-1.52,1.63-1.5,2.43a2.85,2.85,0,0,0,1.82,2,1.68,1.68,0,0,0,2.11-1.9c-.13-.89-1-1.68-1.5-2.51ZM588,588.06c.78.05,1.62-.93,2.44-1.46,0-.32,0-.64,0-1-.81-.56-1.57-1.46-2.43-1.57a1.68,1.68,0,0,0-1.94,2.08A2.91,2.91,0,0,0,588,588.06Zm-403.14,8.11c-.11-.89-.94-1.7-1.45-2.54l-.92,0c-.56.8-1.55,1.61-1.54,2.41a2.85,2.85,0,0,0,1.78,2A1.66,1.66,0,0,0,184.82,596.17Zm-4.36,10.36c.83.51,1.69,1.48,2.47,1.41a2.87,2.87,0,0,0,1.88-2,1.69,1.69,0,0,0-2-2c-.86.13-1.6,1-2.39,1.62ZM586,606.1a2.91,2.91,0,0,0,2,1.84c.77,0,1.59-1,2.38-1.55l0-1c-.83-.52-1.62-1.4-2.48-1.48A1.7,1.7,0,0,0,586,606.1Zm0,9.95a2.91,2.91,0,0,0,2,1.83c.78,0,1.58-1,2.37-1.57l0-1c-.83-.52-1.63-1.39-2.5-1.46A1.69,1.69,0,0,0,586,616.05ZM184.81,626a1.7,1.7,0,0,0-1.87-2.16c-.86.08-1.65,1-2.48,1.48,0,.32,0,.65,0,1,.79.56,1.6,1.57,2.38,1.55A2.93,2.93,0,0,0,184.81,626ZM588,627.82c.78,0,1.6-1,2.4-1.52,0-.32,0-.65,0-1-.81-.53-1.59-1.42-2.46-1.51A1.69,1.69,0,0,0,586,626,2.92,2.92,0,0,0,588,627.82Zm.79-354.45c.86-.12,1.61-1,2.41-1.6l0-1c-.82-.52-1.68-1.5-2.46-1.44a2.93,2.93,0,0,0-1.9,1.93A1.7,1.7,0,0,0,588.8,273.37Zm-405.58-4.44c-.55.8-1.54,1.62-1.52,2.41a2.86,2.86,0,0,0,1.8,2,1.69,1.69,0,0,0,2.12-1.91c-.11-.88-1-1.67-1.48-2.5ZM588,633.76a1.69,1.69,0,0,0-2,2,2.88,2.88,0,0,0,1.88,1.94c.78.07,1.64-.89,2.47-1.41l0-1C589.62,634.81,588.88,633.89,588,633.76Zm-405.26,14a1.67,1.67,0,0,0,2.07-1.94c-.15-.89-1-1.66-1.55-2.48h-.93c-.52.82-1.49,1.67-1.45,2.46A2.83,2.83,0,0,0,182.76,647.73Zm2.86-386.32c-.15-.87-1-1.62-1.6-2.42l-.92,0c-.51.83-1.46,1.7-1.4,2.49a2.87,2.87,0,0,0,1.9,1.92A1.69,1.69,0,0,0,185.62,261.41Zm-2.43,391.82-.92,0c-.5.84-1.43,1.72-1.36,2.51a2.82,2.82,0,0,0,1.92,1.89,1.67,1.67,0,0,0,2-2C184.65,654.77,183.76,654,183.19,653.23ZM222.64,45.7h.94c.56-.81,1.57-1.65,1.52-2.44s-1.14-1.75-1.93-1.92a1.69,1.69,0,0,0-2,2C221.25,44.21,222.11,44.93,222.64,45.7ZM586,665.63a2.91,2.91,0,0,0,1.89,1.94c.77.06,1.64-.9,2.46-1.41,0-.33,0-.65,0-1-.79-.56-1.53-1.48-2.39-1.61A1.68,1.68,0,0,0,586,665.63Zm.8-414.4a1.71,1.71,0,0,0,1.76,2.26c.87,0,1.71-.87,2.56-1.35l.06-1c-.76-.61-1.52-1.67-2.3-1.68A2.87,2.87,0,0,0,586.84,251.23Zm-401.22.24c-.15-.87-1-1.62-1.6-2.42l-.92,0c-.51.83-1.46,1.7-1.4,2.49a2.87,2.87,0,0,0,1.9,1.92A1.69,1.69,0,0,0,185.62,251.47ZM252.47,45.7h.95c.55-.82,1.55-1.67,1.5-2.45s-1.15-1.74-1.95-1.91a1.68,1.68,0,0,0-2,2C251.08,44.22,251.94,44.94,252.47,45.7Zm9.82,0,1,0c.58-.78,1.62-1.56,1.62-2.34a2.89,2.89,0,0,0-1.79-2,1.69,1.69,0,0,0-2.19,1.82C261,44,261.79,44.84,262.29,45.68Zm10.13,0,.94,0c.53-.82,1.5-1.67,1.45-2.46a2.88,2.88,0,0,0-1.94-1.88,1.67,1.67,0,0,0-2,2C271,44.18,271.86,44.92,272.42,45.72Zm9.83,0h.95c.56-.81,1.57-1.64,1.54-2.43s-1.13-1.75-1.92-1.93a1.68,1.68,0,0,0-2.05,2C280.88,44.19,281.73,44.92,282.25,45.7Zm19.82,0,.95,0c.58-.79,1.61-1.6,1.6-2.39s-1.09-1.78-1.88-2a1.69,1.69,0,0,0-2.1,2C300.73,44.15,301.57,44.9,302.07,45.68Zm147.23,0,.93.06c.59-.79,1.64-1.58,1.63-2.36a2.91,2.91,0,0,0-1.84-2,1.68,1.68,0,0,0-2.13,1.92C448,44.1,448.8,44.87,449.3,45.67ZM588.82,243.55c.86-.13,1.6-1.05,2.39-1.63l0-1c-.83-.51-1.7-1.47-2.47-1.4a2.92,2.92,0,0,0-1.88,1.95A1.69,1.69,0,0,0,588.82,243.55ZM459.37,45.7l.9,0c.55-.76,1.44-1.45,1.59-2.27.23-1.27-.63-2.13-2-2.18a1.81,1.81,0,0,0-2.05,2.11C457.94,44.21,458.83,44.93,459.37,45.7Zm20.76,0c.56-.75,1.45-1.44,1.61-2.26a1.7,1.7,0,0,0-2-2.11,2.88,2.88,0,0,0-2,1.84c-.08.78.9,1.66,1.41,2.51Zm10,0c.54-.81,1.43-1.57,1.54-2.43a1.67,1.67,0,0,0-2.08-1.93,2.91,2.91,0,0,0-1.9,1.92c0,.78.95,1.62,1.49,2.43Zm9.92,0c.55-.8,1.44-1.55,1.56-2.41a1.67,1.67,0,0,0-2.06-1.95c-.78.18-1.87,1.2-1.91,1.9s.93,1.63,1.46,2.45ZM182.4,633.36c-.54.81-1.52,1.64-1.49,2.43a2.83,2.83,0,0,0,1.81,2,1.66,1.66,0,0,0,2.1-1.9c-.12-.89-1-1.68-1.5-2.51Zm3.21-391.86a2.89,2.89,0,0,0-1.89-1.94c-.77-.07-1.64.9-2.46,1.41l0,1c.8.57,1.54,1.49,2.4,1.62A1.69,1.69,0,0,0,185.61,241.5ZM510,45.71c.55-.76,1.42-1.46,1.56-2.29a1.68,1.68,0,0,0-2-2.07c-.79.16-1.93,1.17-2,1.87s.93,1.65,1.46,2.48Zm28.8,0,.89,0c.59-.73,1.5-1.39,1.68-2.21.29-1.26-.55-2.15-1.89-2.24a1.8,1.8,0,0,0-2.13,2C537.42,44.13,538.28,44.89,538.79,45.68ZM183.57,84.52a1.69,1.69,0,0,0,2.05-2c-.14-.88-1-1.63-1.56-2.44h-.93c-.52.82-1.48,1.67-1.43,2.46A2.85,2.85,0,0,0,183.57,84.52Zm403.27-2.11a1.68,1.68,0,0,0,1.9,2.12c.86-.09,1.64-1,2.45-1.52v-1c-.8-.55-1.63-1.55-2.4-1.51A2.88,2.88,0,0,0,586.84,82.41Zm-364,620-.89,0c-.57.74-1.47,1.42-1.63,2.24-.25,1.27.6,2.14,1.95,2.2a1.8,1.8,0,0,0,2.08-2.07C224.27,703.93,223.39,703.19,222.86,702.42Zm10,0-.89,0c-.58.74-1.48,1.41-1.65,2.23-.27,1.27.59,2.14,1.93,2.22a1.8,1.8,0,0,0,2.1-2.05C234.21,703.94,233.35,703.2,232.82,702.42Zm29.53.41a1.65,1.65,0,0,0-2.24,1.72c0,.88.86,1.72,1.33,2.57l.95.09c.6-.77,1.65-1.52,1.68-2.3A2.93,2.93,0,0,0,262.35,702.83Zm9.26-.44c-.55.8-1.45,1.55-1.57,2.41a1.67,1.67,0,0,0,2,2,2.9,2.9,0,0,0,1.93-1.89c.05-.78-.92-1.64-1.45-2.46Zm19.85,0c-.54.8-1.43,1.56-1.55,2.42a1.68,1.68,0,0,0,2.08,1.94,2.88,2.88,0,0,0,1.89-1.92c.05-.78-.93-1.62-1.47-2.43Zm10.29.46a2.86,2.86,0,0,0-1.88,1.95,1.69,1.69,0,0,0,2.1,2c.84-.16,1.54-1,2.3-1.57,0-.3,0-.61,0-.91C303.42,703.77,302.55,702.81,301.75,702.86Zm10.58-.44-.89,0c-.58.74-1.48,1.41-1.65,2.23-.27,1.27.59,2.14,1.93,2.22a1.8,1.8,0,0,0,2.1-2.05C313.72,703.94,312.86,703.2,312.33,702.42Zm136.85.38a1.69,1.69,0,0,0-2.07,2,2.84,2.84,0,0,0,1.93,1.92c.79,0,1.65-.94,2.48-1.48v-.92C450.74,703.78,450,703,449.18,702.8Zm10.37-.39h-.95c-.55.81-1.55,1.63-1.52,2.41a2.9,2.9,0,0,0,1.87,2,1.68,1.68,0,0,0,2.11-1.9C461,704,460.08,703.22,459.55,702.41Zm27.31,2.27a2.88,2.88,0,0,0,1.82,2c.8.09,1.71-.86,2.57-1.35,0-.31,0-.61,0-.91-.74-.57-1.41-1.45-2.24-1.65A1.7,1.7,0,0,0,486.86,704.68Zm12.35-2.29-.9,0c-.53.77-1.42,1.5-1.53,2.33a1.8,1.8,0,0,0,2.07,2.09c1.35-.05,2.21-.91,2-2.18C500.66,703.82,499.77,703.14,499.21,702.39Zm10.08,0h-1c-.56.79-1.57,1.6-1.55,2.38a2.88,2.88,0,0,0,1.84,2,1.68,1.68,0,0,0,2.13-1.88C510.67,704,509.8,703.23,509.29,702.41Zm19.86,0h-1c-.55.8-1.56,1.61-1.54,2.4a2.9,2.9,0,0,0,1.86,2,1.68,1.68,0,0,0,2.12-1.89C530.54,704,529.67,703.23,529.15,702.41Zm10,0-1,0c-.57.79-1.59,1.59-1.58,2.37a2.9,2.9,0,0,0,1.82,2,1.68,1.68,0,0,0,2.16-1.85C540.49,704,539.64,703.24,539.13,702.42Zm-353.52-610a2.9,2.9,0,0,0-1.94-1.89c-.78,0-1.61.94-2.43,1.48v1c.81.55,1.58,1.45,2.44,1.55A1.69,1.69,0,0,0,185.61,92.37ZM586,655.66a2.9,2.9,0,0,0,1.86,2c.77.08,1.65-.87,2.48-1.38l0-1c-.79-.58-1.52-1.51-2.37-1.65A1.68,1.68,0,0,0,586,655.66Zm-343.62-610,1,0c.58-.78,1.61-1.56,1.62-2.35a2.91,2.91,0,0,0-1.8-2A1.69,1.69,0,0,0,241,43.17C241.08,44,241.92,44.85,242.42,45.68Zm-9.83,0h.94c.55-.82,1.56-1.66,1.51-2.45a2.9,2.9,0,0,0-1.94-1.91,1.69,1.69,0,0,0-2,2C231.2,44.21,232.05,44.93,232.59,45.7ZM586,566.32a2.92,2.92,0,0,0,2,1.87c.78,0,1.6-1,2.41-1.52v-1c-.82-.53-1.6-1.42-2.46-1.51A1.69,1.69,0,0,0,586,566.32ZM184.83,665.63c-.16-.88-1-1.64-1.59-2.45h-.92c-.52.84-1.47,1.7-1.42,2.49a2.87,2.87,0,0,0,1.89,1.93A1.67,1.67,0,0,0,184.83,665.63ZM588.74,283.31c.87-.1,1.64-1,2.45-1.53,0-.32,0-.64,0-1-.8-.55-1.63-1.55-2.41-1.51a2.93,2.93,0,0,0-2,1.88A1.69,1.69,0,0,0,588.74,283.31Zm0-99.39c.87-.1,1.64-1,2.45-1.53,0-.32,0-.64,0-1-.81-.55-1.63-1.54-2.41-1.5a2.92,2.92,0,0,0-2,1.87A1.7,1.7,0,0,0,588.74,183.92ZM588,488.68c.78.05,1.62-.94,2.44-1.47v-1c-.81-.55-1.57-1.45-2.43-1.56a1.69,1.69,0,0,0-1.94,2.09A2.91,2.91,0,0,0,588,488.68Zm.81-334.58c.86-.1,1.62-1,2.43-1.56v-1c-.82-.53-1.66-1.52-2.44-1.47a2.92,2.92,0,0,0-1.93,1.9A1.69,1.69,0,0,0,588.77,154.1Zm-404,432.14a1.69,1.69,0,0,0-1.85-2.17c-.87.07-1.67.94-2.49,1.46,0,.32,0,.64,0,1,.8.56,1.6,1.58,2.38,1.56A2.9,2.9,0,0,0,184.81,586.24ZM588.72,199.8a2.91,2.91,0,0,0-1.89,1.95,1.69,1.69,0,0,0,2,2.05c.86-.13,1.6-1.05,2.4-1.62,0-.32,0-.64,0-1C590.36,200.7,589.5,199.74,588.72,199.8ZM185.61,231.61a2.93,2.93,0,0,0-1.84-2c-.78-.08-1.66.86-2.5,1.35,0,.32,0,.64,0,1,.78.58,1.5,1.53,2.35,1.68A1.7,1.7,0,0,0,185.61,231.61ZM587.92,598c.78.07,1.64-.9,2.47-1.41,0-.32,0-.65,0-1-.79-.57-1.53-1.49-2.39-1.62a1.69,1.69,0,0,0-2,2A2.89,2.89,0,0,0,587.92,598ZM586,516.62a2.9,2.9,0,0,0,2,1.87c.77,0,1.6-1,2.4-1.5v-1c-.82-.54-1.59-1.43-2.45-1.52A1.69,1.69,0,0,0,586,516.62ZM183.62,199.8c-.77,0-1.59,1-2.38,1.54,0,.32,0,.65,0,1,.82.52,1.61,1.41,2.47,1.49a1.7,1.7,0,0,0,1.88-2.15A2.93,2.93,0,0,0,183.62,199.8Zm-.76,418.11a1.66,1.66,0,0,0,2-2c-.19-.88-1.09-1.61-1.67-2.4l-.91,0c-.49.85-1.41,1.74-1.34,2.53A2.83,2.83,0,0,0,182.86,617.91Zm0-163c-.86.1-1.63,1-2.44,1.55v1c.81.54,1.65,1.53,2.42,1.48a2.91,2.91,0,0,0,1.94-1.88A1.69,1.69,0,0,0,182.89,454.86Zm.72-171.55a1.69,1.69,0,0,0,2-2,2.88,2.88,0,0,0-1.87-2c-.77-.08-1.65.88-2.48,1.38l0,1C182,282.24,182.75,283.17,183.61,283.31Zm0-129.21a1.68,1.68,0,0,0,2-2.07,2.91,2.91,0,0,0-1.91-1.92c-.78-.06-1.63.92-2.45,1.44,0,.32,0,.64,0,1C182,153.07,182.79,154,183.65,154.1Zm-2.4-21.39c.82.53,1.59,1.42,2.46,1.52a1.69,1.69,0,0,0,1.9-2.13,2.9,2.9,0,0,0-2-1.86c-.77,0-1.6.95-2.4,1.5C181.24,132.06,181.25,132.38,181.25,132.71Zm407.46-8.42c.87-.09,1.65-1,2.48-1.49l0-1c-.8-.56-1.61-1.57-2.39-1.54a2.88,2.88,0,0,0-2,1.84A1.7,1.7,0,0,0,588.71,124.29Zm-403.1-2.13a2.93,2.93,0,0,0-2-1.87c-.77,0-1.6,1-2.4,1.51,0,.33,0,.65,0,1,.82.53,1.6,1.43,2.46,1.52A1.69,1.69,0,0,0,185.61,122.16ZM586,576.28a2.93,2.93,0,0,0,2,1.84c.77,0,1.58-1,2.38-1.54l0-1c-.82-.52-1.61-1.4-2.48-1.48A1.69,1.69,0,0,0,586,576.28ZM180.45,536.91c.82.53,1.67,1.51,2.45,1.45a2.89,2.89,0,0,0,1.91-1.91,1.68,1.68,0,0,0-1.94-2.08c-.87.11-1.62,1-2.43,1.58ZM549.76,45.71c.54-.76,1.41-1.47,1.55-2.3a1.69,1.69,0,0,0-2-2.06,2.92,2.92,0,0,0-2,1.89c-.05.79.95,1.64,1.49,2.47Zm39,187.9c.86-.09,1.64-1,2.45-1.51v-1c-.8-.55-1.63-1.55-2.4-1.51a2.91,2.91,0,0,0-2,1.87A1.69,1.69,0,0,0,588.74,233.61Zm.12,29.82c.85-.14,1.57-1.08,2.35-1.67l0-1c-.84-.5-1.73-1.44-2.5-1.36a2.9,2.9,0,0,0-1.85,2A1.69,1.69,0,0,0,588.86,263.43Zm-347.06,439c-.55.8-1.46,1.55-1.58,2.41a1.67,1.67,0,0,0,2.05,2c.79-.18,1.88-1.19,1.92-1.89s-.92-1.64-1.44-2.46Zm10.25.47a2.85,2.85,0,0,0-1.88,1.92,1.67,1.67,0,0,0,2,2c.87-.16,1.6-1.06,2.4-1.62,0-.31,0-.61,0-.91C253.72,703.74,252.84,702.8,252.05,702.86ZM588.72,100.42c-.71,0-1.71,1.15-1.89,1.94a1.69,1.69,0,0,0,2,2c.86-.13,1.6-1,2.4-1.62,0-.31,0-.63,0-1C590.36,101.32,589.5,100.35,588.72,100.42Zm-307.2,602c-.54.8-1.43,1.56-1.55,2.42a1.68,1.68,0,0,0,2.08,1.94c.78-.19,1.86-1.21,1.9-1.91s-.94-1.63-1.47-2.44ZM528.94,45.7l.89,0c.56-.76,1.45-1.45,1.6-2.27.24-1.27-.63-2.13-2-2.17a1.8,1.8,0,0,0-2.05,2.1C527.51,44.21,528.4,44.93,528.94,45.7Zm-9,0c.54-.81,1.43-1.57,1.54-2.43a1.67,1.67,0,0,0-2.08-1.93,2.89,2.89,0,0,0-1.9,1.92c0,.78,1,1.62,1.49,2.43Zm66.09,451a2.92,2.92,0,0,0,2,1.87c.78,0,1.6-1,2.41-1.51,0-.32,0-.64,0-1-.82-.53-1.6-1.42-2.46-1.51A1.68,1.68,0,0,0,586,496.74Zm-266.3,208a2.89,2.89,0,0,0,1.86,2c.78.08,1.68-.88,2.53-1.38l0-.91c-.76-.56-1.44-1.43-2.28-1.62A1.68,1.68,0,0,0,319.74,704.71Zm149.52-659,.89,0c.57-.74,1.47-1.42,1.64-2.24.27-1.27-.59-2.13-1.93-2.21a1.8,1.8,0,0,0-2.1,2C467.86,44.16,468.73,44.91,469.26,45.69Zm-147.2,0H323c.54-.83,1.53-1.68,1.48-2.47s-1.16-1.73-2-1.89a1.69,1.69,0,0,0-2,2C320.65,44.23,321.52,44.94,322.06,45.71ZM469.5,702.41h-.95c-.55.81-1.56,1.65-1.52,2.44s1.14,1.75,1.93,1.92a1.69,1.69,0,0,0,2-2C470.88,703.9,470,703.18,469.5,702.41Zm9.38.44a2.86,2.86,0,0,0-2,1.87,1.67,1.67,0,0,0,1.95,2c.88-.15,1.65-1,2.46-1.54v-.93C480.51,703.77,479.66,702.8,478.88,702.85ZM312,45.68l.95,0c.58-.8,1.61-1.61,1.6-2.4s-1.09-1.78-1.88-2a1.69,1.69,0,0,0-2.1,2C310.68,44.14,311.51,44.9,312,45.68Zm-19.65,0,.89,0c.52-.79,1.4-1.53,1.49-2.36a1.8,1.8,0,0,0-2.1-2c-1.34.08-2.2.94-1.93,2.21C290.88,44.32,291.78,45,292.36,45.73ZM183.68,289.26c-.78-.05-1.62.93-2.44,1.46v1c.81.55,1.57,1.45,2.44,1.56a1.69,1.69,0,0,0,1.93-2.1A2.91,2.91,0,0,0,183.68,289.26ZM519.16,702.4h-1c-.54.81-1.52,1.65-1.48,2.43a2.89,2.89,0,0,0,1.89,1.92,1.68,1.68,0,0,0,2.08-1.93C520.58,704,519.7,703.21,519.16,702.4ZM586,645.85a3,3,0,0,0,2,1.85c.77,0,1.59-1,2.38-1.55l0-1c-.82-.52-1.61-1.4-2.47-1.48A1.69,1.69,0,0,0,586,645.85Zm-402.4-436.1c-.78,0-1.6,1-2.4,1.51v1c.82.53,1.6,1.42,2.47,1.51a1.69,1.69,0,0,0,1.89-2.14A2.9,2.9,0,0,0,183.64,209.75ZM548.36,702.37c-.64.73-1.64,1.37-1.86,2.22a1.66,1.66,0,0,0,1.81,2.17,2.93,2.93,0,0,0,2.13-1.68c.15-.77-.72-1.73-1.15-2.6ZM180.46,507.14c.83.51,1.69,1.47,2.47,1.41a2.92,2.92,0,0,0,1.88-1.95,1.68,1.68,0,0,0-2-2c-.86.12-1.6,1.05-2.39,1.62C180.44,506.5,180.45,506.82,180.46,507.14ZM420.85,206c.49-.49.56-1.41.89-2.35L407,201.38a17.66,17.66,0,0,0,2.31-12,23.78,23.78,0,0,1,.22-4.52c0-.6.16-1.19.3-2.15-5.93,2.53-12.5,2.4-16.87,7.71-.42-.81-.72-1.38-1-2-1.42-2.91-2.8-5.83-4.29-8.7a10.16,10.16,0,0,0-1.89-1.92l-6.8,13.44c-4.33-6.2-11.34-5.95-17.54-8.55,1.64,6.44-1.44,13,3,18.56-5,1.11-9.83,1.07-14.48,2.48,3.7,3.89,7.11,7.49,10.2,10.73-2.3,1.64-4.62,3.12-6.71,4.87-1.14.95-1.83,2.42-2.82,3.57-1.26,1.46-2.63,2.83-4.2,4.51,6.47,2.06,11.87,7,19.37,4.44-.86,5.14-1.67,10-2.53,15.13l13.49-6.92c.58,2,.76,4,1.67,5.47,2.21,3.69,4.77,7.17,7.33,10.94,3.42-5.29,8.86-9.24,9.11-16.62l14,7.27-2.45-15.1a38,38,0,0,0,6.34-.06c3.85-.69,7.64-1.74,11.75-2.71-3.78-5.16-5.29-12-12.31-14.66.61-.66,1-1.15,1.48-1.6C416,210.7,418.48,208.41,420.85,206Zm-14-19.37c0,3.19.33,6.23-.07,9.17-.61,4.42-1.82,5.14-6.16,4.64-1-.1-1.9-.31-3.29-.55a41.71,41.71,0,0,0,3.44-2.93,21.61,21.61,0,0,0,3.17-4c.35-.63-.16-1.75-.28-2.64-.9.19-2.15.07-2.62.62a42.72,42.72,0,0,0-3.31,4.92c-.38.6-.7,1.23-1.21,2.15l-2.69-5.42C397,188.16,401.65,187.38,406.9,186.63Zm-42.74,6.85a62,62,0,0,1,.42-6.73c4.55.46,8.8,1.28,12,4.8a2.92,2.92,0,0,1,.42,3.8c-.61,1-1.07,2.08-1.78,3.51-1.31-2.21-2.4-4.12-3.57-6a7.09,7.09,0,0,0-1.88-2.24,2.5,2.5,0,0,0-2.27-.19,2.27,2.27,0,0,0-.41,2.2,31.32,31.32,0,0,0,3.5,4.47,27.73,27.73,0,0,0,2.84,2.43v.58a29,29,0,0,1-5.6.57,3.82,3.82,0,0,1-2.56-2.07A14.86,14.86,0,0,1,364.16,193.48ZM366.23,229c-3.37,3.11-10.36,1.09-15-2.73,3.21-3.89,5.15-9.34,11.41-9,1.7,1.58,3.23,3,5.19,4.84-1.22.11-1.93.19-2.65.24-2.3.17-4.62.19-6.88.56-1.29.21-3.07.74-2.52,2.6s2.28,1.53,3.71,1.13c1.59-.43,3.13-1,4.69-1.57l2.89-1C366.71,226,366.45,227.59,366.23,229Zm26.3,12.28A49.27,49.27,0,0,1,389,248.4a22.37,22.37,0,0,1-3.26,3.41c-3-4.14-7.56-7.19-6.14-13.16l6-3.24c-.63,3.84-2.51,7.2-1,10.79.19.45.87.69,1.26,1,2.05-.65,2.24-2.17,2.15-3.73-.14-2.36-.41-4.72-.65-7.49a28.88,28.88,0,0,1,4.6,2.59A3,3,0,0,1,392.53,241.23ZM412.25,217a39.52,39.52,0,0,1,5.53,5.52c1.06,1.34,1.49,3.16,2.38,5.19a97.89,97.89,0,0,1-9.66,2.16c-3.37.41-4.59-.77-5.22-4.09-.24-1.27-.43-2.55-.73-4.37,1.49,1.06,2.49,1.89,3.6,2.53a25.65,25.65,0,0,0,4.93,2.43c.74.23,1.79-.54,2.7-.86-.45-.87-.69-2.17-1.4-2.51a44.76,44.76,0,0,0-6-2.07c-.6-.2-1.21-.38-2.34-.74a26.87,26.87,0,0,1,3.64-3.25A2.74,2.74,0,0,1,412.25,217Zm-11.07,3.72c1.12,6.78,2.22,13.44,3.42,20.74L386,231.73l-18.68,9.66c1.25-7.2,2.41-13.9,3.57-20.63l-14.65-14.94,20.49-2.9L386.18,184c2.15,4.45,4.46,8.47,6.07,12.75,1.79,4.79,4.54,7.25,9.91,7.36,4.56.08,9.1,1.24,14.16,2Zm-13.5,266.68c1.75-3.4,3.39-6.84,5.2-10.51,4.53,5.21,11.05,5.21,16.43,7.45,0-2.61,0-4.89,0-7.18a24.72,24.72,0,0,0-.1-4.72c-.44-2.27-1.25-4.46-1.89-6.68L422,463.59a10.92,10.92,0,0,0-1.3-2.51c-2.8-2.78-5.69-5.46-8.76-8.39,7.21-2.65,8.71-9.52,12.7-15-6.47,0-11.88-4.31-18.43-1.73.9-5.52,1.71-10.49,2.57-15.8l-14,7.26c-.19-7.41-5.74-11.31-9.27-16.92-2.41,6.23-8.87,9.68-8.37,17l-13.93-7.16c.88,5.3,1.68,10.11,2.52,15.12-7.59-2.48-13,2.39-19.62,4.59,5.46,3.89,7.3,11.09,15,12.34L350.2,463.81l13.49,2a67.58,67.58,0,0,0-1.9,8.48c-.33,3.24-.08,6.54-.08,10.21,5.93-2.5,12.94-2.33,17.22-8.44l6.82,13.49A12.28,12.28,0,0,0,387.68,487.44Zm19-7.09c-4.66.29-11.35-2.38-12.67-5.85.76-1.54,1.6-3.23,2.55-5.12,1.22,2,2.26,3.86,3.38,5.64,1.24,2,2.84,2.8,3.8,1.92,1.58-1.46.37-2.88-.51-4-1.55-2-3.33-3.89-4.93-5.73,1.09-.2,2.62-.49,4.16-.76a2.89,2.89,0,0,1,3.35,1.9,16.84,16.84,0,0,1,1.26,5.14A58.77,58.77,0,0,1,406.66,480.35ZM409,437.48a17.15,17.15,0,0,1,5.28.44,58.53,58.53,0,0,1,5.57,1.84c-1.36,5.62-6.13,11.49-9.93,10.85L406.48,447c2.09-.64,4.08-1.18,6-1.86a7,7,0,0,0,2.57-1.38,2.29,2.29,0,0,0,.57-2.05,2.09,2.09,0,0,0-1.87-.9,30,30,0,0,0-5.21,2.24,29.53,29.53,0,0,1-4,2.28,31.84,31.84,0,0,1,1.3-6.15C406.25,438.31,407.87,437.59,409,437.48ZM385.84,415.6c3.05,2.87,5.88,5.83,6.73,10.16.36,1.86-.08,3.23-2,3.95a30.34,30.34,0,0,0-3.23,1.69c.23-2.53.49-4.74.62-6.95a5.82,5.82,0,0,0-.32-2.71,2.7,2.7,0,0,0-1.84-1.37c-.47,0-1.41.92-1.45,1.5a25.3,25.3,0,0,0,.12,5.29,41.45,41.45,0,0,0,1.2,4.81l-5.79-3.1C378.35,425.16,380,421.49,385.84,415.6Zm-34.66,25.52c4.43-3.78,11.6-5.87,15-2.85.26,1.39.56,3,.95,5-2.55-.87-4.67-1.65-6.83-2.33a6.09,6.09,0,0,0-2.7-.4,2.62,2.62,0,0,0-1.85,1.37,2.25,2.25,0,0,0,1.15,1.93,35.14,35.14,0,0,0,6,1.13,42.36,42.36,0,0,0,4.71,0l-5.08,4.23.54.72C356.41,450.62,354.46,445,351.18,441.12Zm25,34.95a24.25,24.25,0,0,1-5.73,3.41,33.59,33.59,0,0,1-5.8,1.25c-.26-3.83-1.17-7.45.1-11.09,1-2.82,2.26-3.51,5.28-2.94,1.18.22,2.38.34,4,.56-1.69,1.44-3.13,2.5-4.35,3.77a13.14,13.14,0,0,0-2.53,3.5,2.46,2.46,0,0,0,.44,2.34,2.53,2.53,0,0,0,2.43-.4,45.48,45.48,0,0,0,3.46-5.05c.55-.86,1-1.78,1.74-3,.86,1.75,1.84,3.1,2.12,4.58A3.81,3.81,0,0,1,376.19,476.07Zm.53-11.71-20.86-3c2.17-2.13,3.91-3.88,5.68-5.6,2.8-2.73,5.66-5.4,8.38-8.2a3.24,3.24,0,0,0,.72-2.42c-.95-5.92-2-11.81-3.06-17.71a9.49,9.49,0,0,1,0-1.46L386,435.6l18.6-9.83c-1.19,7.23-2.29,13.9-3.43,20.77l15.1,14.63c-4.42.68-8.3,1.29-12.19,1.86-2.41.36-4.86.55-7.24,1.07a3.63,3.63,0,0,0-2.1,1.76c-2.87,5.66-5.62,11.38-8.58,17.44ZM362,118.86a15.89,15.89,0,0,0,3.35.84q19.86,0,39.72-.14c1.32,0,3.19.22,3.39-1.57.1-.91-1.11-2-2-3.39-.26-8.72-.53-18.1-.81-27.59a2,2,0,0,1,.51-.16c1.26,0,2.81.16,2.73-1.69s-1.57-1.43-2.75-1.44c-8.8-.11-17.61-.29-26.41-.32-5.22,0-10.45.15-15.67.37-.64,0-1.24.87-1.86,1.33.51.52,1,1.07,1.53,1.54a2.68,2.68,0,0,0,.89.31l-.51.18c1.74,9.73,3.47,19.46,5.23,29.37C367.43,117.5,364.2,115.58,362,118.86Zm40.6-32v28.86l-4.31.21c-.31-9.87-.6-19.41-.91-29.07Zm-12.89,0h4.61v29l-4.61.24Zm-7.92.1h4v29.19H375.68C377.69,106.54,379.7,96.88,381.77,87Zm-14,.12h10.13L373.21,110l-.7,0C370.94,102.4,369.38,94.86,367.76,87.1Zm64.29,195.4c4.74.19,8.69,3.06,13.43,1.39-.63,3.91-1.21,7.47-1.88,11.6l10.29-5.28c.35,5.27,4.12,8.25,6.91,12.2,1.94-4.37,6.33-7,6.31-12.21l10.16,5.15c-.65-3.92-1.23-7.37-1.84-11.09,5.62,1.54,9.59-1.62,14.29-3.51-3.83-2.95-5.29-8-11.14-9.1l8.64-8.33L477,261.79a65.19,65.19,0,0,0,1.33-6.59,68.58,68.58,0,0,0,.05-6.88A22.16,22.16,0,0,0,465.57,254l-5-9.68c-2.78,2.63-3.21,6.26-5.23,8.88-3.58-2.45-9.26-4.66-12.32-4.8.85,4.42-1.08,9.13,1.91,13.29l-10.86,1.8c0,.22-.06.43-.1.65l7.6,7.11C436.13,273.63,434.72,278.35,432.05,282.5Zm13.8-1.5a3.63,3.63,0,0,1-2.8,1.63,72,72,0,0,1-7.78-1.47c1.57-3.86,3-7.14,7.41-8.48l2.49,2.79c-2.22,1.63-5.92.57-6.89,4.34,3.74,1.28,5.59-1.8,8.43-3C446.42,278.4,446.48,279.9,445.85,281Zm14.74,17.83c-2.75-2.83-5.41-5.34-4.89-9.59l3.46-1.9c.69,2.72-1.59,5.73,1,8.11,2.14-.65,1.79-2.34,1.65-3.75a42.77,42.77,0,0,0-1-4.83l4.31,2.26C466.23,293.55,462.82,295.78,460.59,298.83ZM486,280.1c-2.52,1.87-5.2,3.27-8.47,3-2.21-.2-2.63-.84-2.95-4.33,2.78-.13,5.29,2.91,8.48.89-.74-2.3-2.48-2.3-4-2.47a39.7,39.7,0,0,0-4.5,0l-.34-.56,3.67-2.43-.56-.57C480.82,273.25,482.42,274.44,486,280.1Zm-16.81-27a56.33,56.33,0,0,1,7-2.63,45.43,45.43,0,0,1,.38,6.3c-.36,4.37-2.48,5.52-6.86,3.78,1.8-2,4.51-3.22,4.95-6.23-1.13-1.6-2.21-.91-3,.18-1.11,1.55-2,3.24-3,4.89C466,256.82,466.12,254.69,469.15,253.07Zm-24.23-2.21c3.9.52,7.2,1.12,9.63,4.29-.57,1.22-1.13,2.44-1.73,3.72-2.07-1.66-2-5.47-6-5.48.23,3.82,3.07,5,4.88,7-4.85,2.07-6.2.51-6.7-3.42A51.16,51.16,0,0,1,444.92,250.86Zm-6.37,14.32,14.9-2.26,6.84-13.87c1.65,3.24,3.43,6,4.55,9.08,1.39,3.77,3.65,5.53,7.73,5.58,3.13.05,6.25.83,9.34,1.27l-10.5,10.44c.95,5.51,1.79,10.31,2.72,15.69l-13.72-7.06-13.65,7.19c.87-5.37,1.66-10.2,2.5-15.3Zm-158.19,12.9c4.72,1.92,8.76,5,14.28,3.54-.63,3.78-1.2,7.22-1.84,11.07L303,287.47c-.05,5.3,4.4,7.91,6.35,12.31,2.69-4.09,6.63-7,6.82-12.32l10.31,5.34c-.64-4.05-1.2-7.64-1.67-10.66L338,279.79c-2.73-4.19-4.08-9-8.93-11,2.08-3,5.36-4.55,7.3-8L325.05,259c3.15-4.31,1-9,2.16-14l-12.89,5.13c-1.53-2.29-2.17-5.74-4.8-8.55l-5.12,10c-3.31-4.37-8.26-4.45-12.88-6.17,1,4.76-1.09,9.52,2.14,13.68l-11,1.67,8.42,8.35C285.61,270.11,284.14,275.11,280.36,278.08Zm29.1,18c-2.23-3-5.63-5.19-4.52-9.63l4.14-2.23c-.05,2.91-2,5.62-.21,8.26,1.94,0,2.4-.68,2.22-3-.11-1.51-.27-3-.44-4.85l3.65,1.82C315,290.74,312.24,293.31,309.46,296.06Zm25.23-17.79a35.8,35.8,0,0,1-6,1.68c-3.52.38-4.47-.14-5.05-3.61-.1-.64-.09-1.3-.14-1.9,2.3,1.1,4.4,2.15,6.55,3.08.36.16.94-.2,1.74-.39-1-3.79-4.74-2.73-6.93-4.35l2.5-2.76C331.78,271.23,333.2,274.6,334.69,278.27Zm-9.56-30.21c0,2.28.13,4.26,0,6.21-.33,4.11-2.48,5.21-6.72,3.49,1.71-2.09,4.82-3.21,4.78-6.5-1.82-.78-1.82-.78-5.83,5l-1.85-3.72C317.79,249.26,321.19,248.76,325.13,248.06Zm-31.39-.28a53.76,53.76,0,0,1,6.78,2.36c3.33,1.69,3.5,3.16,1,6.66-.57-1-1.05-1.84-1.59-2.69a18.23,18.23,0,0,0-1.77-2.62c-.76-.84-1.72-1.29-2.75.07.44,3,3,4.25,4.83,6.11-4.11,1.66-5.91,1.24-6.46-2.51A54.08,54.08,0,0,1,293.74,247.78Zm-5.95,14.55c3.53-.51,6.82-1.24,10.13-1.39,3.69-.16,5.85-1.69,7.15-5.18a100.39,100.39,0,0,1,4.68-9.44l6.83,13.87,14.85,2.25-10.65,10.68c.83,5,1.63,9.89,2.54,15.41l-13.68-7.2-13.7,7.09c.92-5.35,1.76-10.19,2.65-15.36Zm4.45,8.37,3.74,3.36c-3.12.94-6.76-.75-9,2.43,1.44,1.93,2.87,1.14,4.21.75s2.72-.93,4.3-1.48c-.35,4.22-1.48,5.28-5.11,4.49a48.74,48.74,0,0,1-6.71-2.53C286.34,274.4,287.77,270.48,292.24,270.7Zm149,125.19-7.39,7.23c.12.25.24.51.35.76L445,405.64c-3.09,4.23-1.07,8.94-2,13.66,4.4-1.6,9-1.87,12.3-5.38,2.06,2.84,2.55,6.43,5.3,9.1l5.08-9.9c3.27,4.43,8.27,4.46,12.89,6.21-1-4.84,1.09-9.59-2.17-13.68L487,404l.05-.7-7.66-7.77c5.15-1.1,6.55-6.12,10.17-8.86-5.32-3.27-8.45-4.14-14.09-3.9.58-3.51,1.16-7,1.8-10.83l-10.14,5.19c-.07-5.32-4.38-8-6.4-12.26-2.69,4.09-6.61,7-6.81,12.29l-10.29-5.36c.65,4.1,1.21,7.7,1.82,11.6-4.88-1.6-8.77,1.18-13.37,1.49C434.83,389,436.12,393.78,441.19,395.89Zm3.8,20.55a39.56,39.56,0,0,1,.07-6.63c.69-4,2.18-4.65,6.52-2.83-1.73,2-4.84,3.12-4.62,6.86,3.87.06,3.75-3.75,5.85-5.36.57,1.2,1.14,2.36,1.71,3.53C452.64,414.7,450.24,415.82,445,416.44Zm31.55-5.69c.24,1.78-.2,3.65-.38,6a51.52,51.52,0,0,1-6.74-2.39c-3.27-1.69-3.43-3.45-.86-6.5,1,1.65,1.93,3.32,3,4.86s1.78,1.42,3,.23c-.4-2.88-2.9-4.18-4.93-6.12C474.64,405.13,475.91,406,476.54,410.75Zm-2-22.13c.22-3.92,1.41-5.06,5-4.27a45.86,45.86,0,0,1,6.43,2.38c-2.43,4.86-5.44,7.89-8.36,6.78l-3.37-2.72c2.86-.64,5.55-1.23,8.23-1.89.18,0,.22-.69.39-1.25C479.81,385.58,477.33,388.68,474.56,388.62Zm-13.87-20c2.14,2.86,5.54,5.08,4.43,9.52l-4,2.17c-.3-2.89,2.38-5.88-.66-8.72-2.8,2.61-.68,5.5-1.21,8.3L456,378.31C455.05,375.2,456.81,371.6,460.69,368.66Zm-.28,14.62,13.72-7.09c-.93,5.33-1.76,10.13-2.61,15.05l11,11c-4.75.7-9,1.42-13.34,1.93a3.22,3.22,0,0,0-2.81,2.07c-1.91,3.91-3.88,7.78-6,12.06l-6.83-13.88-14.88-2.26,10.65-10.85c-.81-4.89-1.61-9.76-2.51-15.24ZM446.32,388c.16.74.2,1.51.35,2.72a33.48,33.48,0,0,0-3.9-2.61,27.91,27.91,0,0,0-4-1.25c-.61,2.63.92,3,2.23,3.51s2.75.84,4.44,1.35l-2.74,2.84c-4.44-1-5.71-4.57-7.38-8.18a54.52,54.52,0,0,1,6.38-1.74C444.64,384.16,445.71,385.06,446.32,388Zm-108.27-.51-13.32-2.25c.5-3.11,1.07-6.66,1.71-10.69l-10.3,5.34c-.34-5.39-4.14-8.34-6.9-12.28-1.94,4.42-6.37,7-6.28,12.29l-10.16-5.22c.64,3.89,1.2,7.33,1.81,11.06-5.66-1.58-9.58,1.81-14.34,3.46,3.83,3,5.36,8,10.45,9.15.11.27.22.55.34.82l-8.29,7.59,10.89,1.64c-3.19,4.23-1.19,8.91-2.06,13.6,4.62-1.6,9.53-1.77,12.8-6.1l5.14,9.94c2.58-2.87,3.28-6.28,5.23-9.2,3.3,3.55,7.86,3.85,12.37,5.39-1-4.81,1-9.48-2.05-13.6L336,406.56l.27-.81-7.41-7.16C334,396.39,335.27,391.6,338.05,387.45Zm-28.5-16.09c2.69,2.57,5.31,5.12,4.8,9.5l-3.43,1.72c-.67-2.75,1.52-5.68-1.31-8.29C306.71,377,309,380,309,383l-3.79-1.91C303.48,378.23,306.07,374.79,309.55,371.36Zm-25.84,18.27a49.55,49.55,0,0,1,6.56-2.58c3.63-.87,4.88.26,5.28,4.34-2.86-.16-5.27-2.93-8.7-1,2.35,3.62,6,1.92,9.18,2.71l-3.26,3.41C287.85,396.91,286.39,393,283.71,389.63ZM300.86,417a58.2,58.2,0,0,1-7.17,2.69,53.81,53.81,0,0,1,.06-7.37c.6-4,2.44-4.22,6.48-2.7-1.79,1.91-4.37,3.17-4.8,6,1.22,1.32,2.05,1.29,3.12-.26s1.93-3.12,2.9-4.71C304,413.3,303.91,415.34,300.86,417Zm24.2,1.94c-4.07.13-7.52-1.39-9.51-4.16.52-1.09,1.09-2.32,1.8-3.84.87,1.42,1.58,2.57,2.29,3.71s1.41,2.29,3.4,1.75c.47-3.47-2.69-4.55-4.46-6.7,4.34-1.88,5.77-1,6.41,2.81A38.31,38.31,0,0,1,325.06,418.93Zm6.57-14.06-15.06,2.25L309.76,421l-7-13.81L287.92,405l10.68-10.67c-.89-5.15-1.73-10-2.66-15.42l13.7,7.05,13.67-7.17c-.88,5.37-1.68,10.24-2.48,15.07Zm-4-7.65c-.89-.84-1.77-1.69-2.73-2.61,2.2-1.68,5.9-.7,7-4.49-3.72-1.06-5.68,1.69-8.15,3-.38-5.72,1.55-6.41,5.88-5.65a38.85,38.85,0,0,1,5.05,1.59C333.26,392.63,331.84,396,327.59,397.22ZM513.38,332.8l5.85-5.29-7.3-1.17c.23-3.54.45-6.71.68-10.26-3.58,1.23-7.15,1.39-9.58,4.52l-4-7.64-3.44,6.49-9.49-3.55c.27,3.83.49,7.06.72,10.44l-7.23,1.24-.24.73,5.83,4.81c-4,2.17-5.31,5.41-7,8.63l9.67,1.79c-.37,2.37-.77,4.87-1.23,7.84l6.91-3.53,5.73,9,5.53-9,6.84,3.44c-.45-2.9-.83-5.38-1.25-8.12,4.15,1,7.05-1.24,10.6-2.73Zm-2.67-14.47c.41,2.76,1.06,5.36-1.26,7.66l-3.28-.37L510,321l-.78-.78c-2.69-.2-2.54,3-4.24,4.28l-1.3-2.48C505.2,319.23,507.79,318.64,510.71,318.33Zm-22.77.08a8.6,8.6,0,0,1,6.81,2.94c-.45.91-.83,1.71-1.26,2.58-3.32-3.76-3.32-3.76-4.43-3.33.05,2.27,2.14,3.12,3.63,4.92l-3.35.49C486.86,323.75,487.7,321.11,487.94,318.41Zm-.31,22.94c-2.34,1.39-4.64,0-7-.86,1-2.66,2.07-5,5.23-6l2,1.88c-1.79,1.24-4.29.66-5.28,3.26,2.71,1.07,4.17-1.1,6.46-1.76C488.6,339.08,488.49,340.84,487.63,341.35Zm11.62,12.37c-2.09-2-4-3.85-3.53-7l2.37-1.26c.56,2.05-1.11,4.27,1.08,6,2.19-1.83.33-4,.69-6.15l2.79,1.42C503.29,350,501,351.63,499.25,353.72Zm-.12-10.85L489,348.13c.65-4,1.22-7.52,1.82-11.21-2.63-2.68-5.16-5.28-7.85-8l11-1.74,5-10.2,5.21,10.18,11,1.66-7.92,7.66L509.26,348Zm11.12-1.25c-.23-.85-.44-1.65-.7-2.62,2.17-.16,4.17,2.2,6.56.38-2-2.3-4.34-1.34-6.7-1.89l2.27-2.41c3.67-.26,4.77,2.56,6.5,4.86C515.65,341.58,513.3,343,510.25,341.62Zm-261.16-2c3.53,1.54,6.49,3.69,10.57,2.78-.42,2.75-.8,5.18-1.25,8.07l6.84-3.42,5.54,9,5.69-9,6.93,3.5c-.47-3-.85-5.55-1.2-7.79l10.13-1.91-6.95-9.41,5.21-4.1-.21-.57-7.13-1.24c.21-3.55.4-6.71.62-10.42l-9.48,3.54c-.32-.64-.84-1.75-1.42-2.83s-1.17-2.06-2-3.59L267,319.84c-2.42-3.14-6-3.3-9.61-4.5.27,3.61.52,6.83.78,10.23l-7,1.13c-.1.25-.19.51-.29.76l5.48,4.78Zm11.36-1.57c-.18.93-.34,1.71-.52,2.61-3,1.68-5.39.13-8.07-1.46,1.73-2.37,2.86-5.1,6.33-4.93l2.61,2.23c-2.43.93-5-.41-6.55,1.84C255.12,339.47,255.12,339.47,260.45,338.07ZM270.82,353c-1.74-2.1-4-3.76-3.43-7l2.83-1.46c.23,2.15-1.3,4.13.45,6.11,2.67-1.45.57-3.94,1.35-5.88l2.27,1.19C274.84,349.16,272.82,351,270.82,353Zm18.53-13.47c-4.85,2.94-7.87,2-8-2.75,2,1,3.37,3,6,2.24-.57-2.84-3.31-2.06-4.9-3.28l1.84-1.92C287.32,334.65,288.37,337,289.35,339.52Zm-7.28-22c.33,2.74,1.08,5.34-1.29,7.67l-3.23-.41,3.81-4.6-.7-.69c-2.58-.54-2.42,2.54-4.14,3.62l-1.17-2.47C277,318.33,279.41,317.85,282.07,317.54Zm-22.66.09c2.78.14,5.25.84,7,3.54-.41.84-.83,1.7-1.27,2.58-1.81-1.17-1.51-4.47-4.65-4.24-.09,2.64,2.13,3.5,3.65,5.32l-3.53.37C258.77,323,258.59,321.67,259.41,317.63Zm-4.77,10.42,11.17-1.7L271,316.2l5.05,10.18,11,1.71-7.88,7.65c.65,4,1.24,7.54,1.92,11.64l-10.13-5.28-10.13,5.15c.67-4,1.25-7.57,1.87-11.27Z"/></svg>