<svg xmlns="http://www.w3.org/2000/svg" viewBox="0 0 750 750"><path d="M606.18,51.29c0-1.19,0-2.39,0-3.58C606.06,34.43,596.55,25,583.27,25H187.34c-13.24,0-22.75,9.52-22.75,22.81V375q0,163.77,0,327.55a23,23,0,0,0,.6,5.5c2.62,10.62,11.25,17,22.92,17H583.67c8.12-.18,14.56-3.47,19.06-10.33,2.8-4.27,3.47-9,3.46-14Q606.17,376,606.18,51.29ZM601.9,701.67c0,11.54-7.47,19.05-19,19.05q-197.58,0-395.16.07a18.66,18.66,0,0,1-19-19q.22-163.38.09-326.77V47.47c0-8.9,5.5-15.93,14-17.83a18.61,18.61,0,0,1,3.95-.35H584A17.67,17.67,0,0,1,601.9,46.92c0,1.33,0,2.65,0,4ZM580.38,421.86l-4.27-3.09V672A21.32,21.32,0,0,0,562,679a25.77,25.77,0,0,0-7,14.38H432.74c2.59,2.8,5,4.62,8.93,4.27,4.67-.41,9.4-.1,14.1-.1l101.37,0a10.05,10.05,0,0,0,1.39-.18c1-13.76,9.37-19.9,21.85-22.14ZM194.7,671.72v-253l-4.15,3.06V675.28c12.51,2.3,20.83,8.44,21.79,22.2.53,0,1,.11,1.57.11,38.82,0,77.64-.07,116.46.07,3.62,0,5.34-2.13,7.43-4.42H216.06C213.28,681.63,206.9,674,194.7,671.72ZM555.62,54.89c2.76,11.53,9.08,19.18,21.37,21.49v243l4.19-3.13V72.55a23,23,0,0,1-15.3-6.72c-4.26-4.15-6.86-9-6.21-15.16-.84-.08-1.29-.16-1.75-.16-38.95,0-77.91.08-116.86-.06-3.59,0-5.12,2.28-7.34,3.95l.16.49ZM191.3,316.31l4.29,3.16V76.36c12.21-2.28,18.57-10,21.25-21.59H339c-2.51-2.67-4.72-4.62-8.51-4.32-4.8.38-9.66.09-14.49.09l-101.37,0a12.62,12.62,0,0,0-1.46.15c-.9,13.75-9.33,19.87-21.83,22.18Zm151.56,90.53c1.25-4.19,3.58-7.22,8.12-8.38,3.39-.86,4.69-3.63,3.48-6.94A12.92,12.92,0,0,0,352,387.3c-4.14-4.51-9.61-6-15.47-5.75a15.1,15.1,0,0,0-6.68,2.17c-3.88,2.25-4.29,5.79-1.2,9a9.68,9.68,0,0,1,2.64,9.13c-.74,3.63-1.69,7.22-2.71,10.78a5.64,5.64,0,0,1-4.28,4.19c-5.41,1.45-9.25,5-11.9,9.83a5.68,5.68,0,0,1-.4.58c-6.23,2.51-10.62,12.47-8.33,19.16-1.06,1.48-2.14,3.14-3.38,4.68-3.87,4.83-3.58,6.29,1.94,9.26A79.17,79.17,0,0,0,323.64,468a122.82,122.82,0,0,0,16.87,2.3c4.69.31,5.71-1.37,4.89-6-.4-2.26-.54-4.57-.77-6.67,5.48-4.56,6.65-15.16,2.53-20.92a20.39,20.39,0,0,0-7.07-17,44,44,0,0,1,.58-5.23C341.26,411.9,342.1,409.37,342.86,406.84Zm-13-16.09c.92-2.88,5.83-4.7,10-3.82,6.71,1.43,11,5.08,10.66,9.18-5.75,2.93-5.75,2.93-8.6,6.6l-8-2.59C334.06,396.65,332.37,393.46,329.83,390.75Zm-21.15,45.74,1,2.11c2.36-2.64,1.53-5.89,2.45-8.72,2.22,3.72-2.41,13.95-7.07,15-.06-1.31-.12-2.44-.16-3.09ZM339.47,468c-5.18-.61-10.41-1.1-15.51-2.18a72.48,72.48,0,0,1-21.66-8.12,23.78,23.78,0,0,1-2.66-2.11c7.81-3.71,36.85,3.45,44,12A19.42,19.42,0,0,1,339.47,468Zm4-20.41,1.86-1q.25,2.81.5,5.62l.43.15c-.68,1-1.37,2-2.07,3.1-3.52-2.86-2.41-13.74,1.77-16.73-.76,1.76-1.41,3.08-1.9,4.45s-.78,2.69-1.16,4Zm1.79-11.43c-5.39,2.66-7.13,16.44-2.72,20.63v3.53a65.19,65.19,0,0,0-38.41-10.44c.34-.65.58-1.16.85-1.65s.52-.92.77-1.36c6.14-1.63,11.3-13.62,8.32-19.28,3.7-6.66,10.64-7.8,18.15-6C338.26,423,345.32,427.4,345.28,436.13Zm-7.22-18.33-8.54-2.36,4.05-12.23a8.93,8.93,0,0,1,7.26,1.92C339.87,409.52,339,413.7,338.06,417.8ZM233.49,374.05a14.18,14.18,0,0,0-2.43,5.56,19.68,19.68,0,0,0,4.08,15.66,13,13,0,0,0,3.73,3.2c4.4,2.62,7.78,1.3,9.25-3.58.75-2.5,2.09-4.68,4.45-5.54,4.58-1.66,9.3-3,14-4.22a4.07,4.07,0,0,1,4.08,1.46,18.38,18.38,0,0,0,10.48,5.25,48.17,48.17,0,0,0,5.15.38c5.06,4,16.27,2.8,20.61-2.68,2.58.32,5.26.64,7.93,1,3.1.41,4.4-.45,4.7-3.56a22.93,22.93,0,0,0-.1-6.14c-1.11-6.17-2.26-12.36-3.79-18.44a55.4,55.4,0,0,0-7.35-17.5c-2.07-3.09-3.63-3.17-6.5-.86-2.05,1.64-4.19,3.17-6.1,4.61-6.24-2.65-16.27,1.88-19.2,8.31-5.42,3-8.79,6.67-10.2,11.85a6.48,6.48,0,0,1-5.1,4.89c-3.13.85-6.27,1.65-9.43,2.36a10.06,10.06,0,0,1-9.86-2.73C239.06,370.54,235.81,370.78,233.49,374.05Zm68.69,16.82-6.23-.65,1.07-1.91c-3.39-.65-5.8,1.66-8.76,2.3,2.74-3.84,13.14-5,16.63-1.52Zm2.5-46.63a20.89,20.89,0,0,1,2.52,3.31c1.85,4,3.73,8,5.28,12.17a80.63,80.63,0,0,1,4.82,23.64,39.57,39.57,0,0,1-.29,4.85l-.65.24a20.09,20.09,0,0,1-1.83-2.1,66.06,66.06,0,0,1-9.95-28c-.47-3.78-.4-7.63-.51-11.46A12.87,12.87,0,0,1,304.68,344.24Zm-16.6,10.53-2.16-1.18,5.23-3.77,3,.18c-.52,4.44-10.63,9.15-15,7.08C282.08,356.25,285.2,356.8,288.08,354.77ZM276.83,359c5.94,2.86,18.08-2.33,19.29-8.3l3.07-1.67a65.12,65.12,0,0,0,10.41,38.39h-3.47c-4.58-4.26-17.61-2.65-20.77,2.74-8.55.07-13-6.95-14.47-12.95C269.22,370.59,269.82,363,276.83,359Zm-24.3,19.41,12.29-4c.74,2.79,1.53,5.73,2.29,8.57l-12.58,2.72A8.54,8.54,0,0,1,252.53,378.43Zm-12.5-3.7c2.82,2.49,6,4.33,9.79,3.93.63,2.8,1.21,5.39,1.88,8.33-3,1.57-5,4.62-6,8.19-3.07.76-7.12-2.67-8.44-7C235.18,381.51,236.26,376,240,374.73Zm182.76,2.93a15.72,15.72,0,0,0-2.56,5.92,18.85,18.85,0,0,0,2.93,13.66,16.69,16.69,0,0,0,5.56,5.2c4,2.34,7.27.88,8.51-3.53a9.58,9.58,0,0,1,6.38-6.8c3.49-1.22,7.07-2.26,10.66-3.13,1.67-.41,3.53-.72,5,.8a20.21,20.21,0,0,0,16,6c5.42,4.1,16.28,2.94,20.85-2.58,2.5.32,5.12.63,7.72,1,3.17.47,4.54-.42,4.85-3.61a33.68,33.68,0,0,0-.05-5.94,85.1,85.1,0,0,0-4.65-21.29,104.76,104.76,0,0,0-6.62-14.8c-1.74-3.23-3.6-3.15-6.47-.83-2,1.65-4.18,3.15-6.09,4.58-6.1-2.71-16,1.78-19.2,8.32-5,2.7-8.75,6.52-10.25,12.08a6.06,6.06,0,0,1-4.69,4.54c-3.12.88-6.26,1.7-9.43,2.39-3.83.84-7.27.24-10.24-2.7C428.28,374.23,425.08,374.46,422.79,377.66Zm67.79,16.93a48.68,48.68,0,0,1-5.56-.68c.38-.54.74-1.05,1.31-1.88-3.46-.63-5.91,1.54-9,2.41,3-4,13.51-5.07,16.44-1.92A3.15,3.15,0,0,1,490.58,394.59Zm3.06-46.08.59-.14a14.05,14.05,0,0,1,2,2.55c1.89,4.07,3.83,8.13,5.42,12.33a80.15,80.15,0,0,1,4.88,23.82,41.28,41.28,0,0,1-.29,4.82l-.69.25a24.53,24.53,0,0,1-2-2.44,66.91,66.91,0,0,1-9.66-27.29c-.45-3.47-.56-7-.7-10.48A19.31,19.31,0,0,1,493.64,348.51Zm-18.41,8.85c3.75-3.83,5.87-4.66,8.11-3.13-1,4.12-10.41,8.44-15.12,6.54,3.16-.75,6.19-.31,9.1-2.28Zm-9.11,5.33c5.56,3.05,18-2.3,19.23-8.31l3.15-1.66a59.6,59.6,0,0,0,2.15,20.06,58.74,58.74,0,0,0,8.26,18.28H495.2c-4.11-4.24-17.67-2.6-20.54,2.78-7.79.19-12.48-5.51-14.51-12.81C458.31,374.43,459.05,366.58,466.12,362.69Zm-24.35,19.44,12.24-4c.77,2.79,1.59,5.77,2.37,8.58l-12.62,2.68C441.83,387.35,441.4,384.9,441.77,382.13ZM429,378.44a33.14,33.14,0,0,0,5,3.09,25.56,25.56,0,0,0,5.06,1c.62,2.71,1.23,5.31,1.88,8.15-3.15,1.6-5,4.65-6.07,8.15-3,.73-6.88-2.45-8.33-6.64C424.33,385.77,425.33,380.1,429,378.44Zm-3.64-149c1.77,1.91,2.94,4.17,2.47,6.66-.88,4.72-2.08,9.4-3.42,14a4.45,4.45,0,0,1-2.66,2.59,20.83,20.83,0,0,0-13.28,10.84c-6.29,2.58-10.53,12-8.4,19.36-1.47,1.9-3,4-4.69,6.07-2.08,2.59-1.94,4.14.78,6.11a25.81,25.81,0,0,0,3.57,2.15,92.07,92.07,0,0,0,23.87,7.89,80.71,80.71,0,0,0,13.79,1.41c4.31.12,5.2-1.34,4.54-5.56-.39-2.46-.55-4.95-.78-7.2,5.37-3.95,6.58-14.94,2.56-20.66.12-5.79-1.23-11-5.28-15.07a6,6,0,0,1-1.54-6.34c.78-2.95,1.65-5.87,2.52-8.78,1.22-4.07,3.56-6.93,7.9-8.09,3.61-1,4.95-3.74,3.49-7.21a14.36,14.36,0,0,0-3.58-5.13A19.59,19.59,0,0,0,431.49,218a12.76,12.76,0,0,0-4.64,1.64C422.34,222.2,421.84,225.62,425.36,229.42Zm-23,47.21a36.55,36.55,0,0,0,2.8-3.8l.94,2c1.74-1.05,1.47-2.73,1.79-4.11s.42-2.79.65-4.43c2.17,3.82-2.26,13.7-6.73,15C401.17,279.5,401,278.08,402.35,276.63Zm32,27.66a81.45,81.45,0,0,1-22.85-4.73c-4.26-1.61-8.4-3.54-12.54-5.44a18.79,18.79,0,0,1-3.05-2.33c10.37-3.6,38.86,4.68,44.1,12.19A43.82,43.82,0,0,1,434.38,304.29Zm5.37-20.2,2.05-1.22c.87,6.48.81,7-1.21,8.69-3.46-2.07-2.47-13.68,1.57-16.22C441.43,278.25,439.29,280.64,439.75,284.09Zm1.93-11.85c-5.49,4.05-7.1,16.76-2.71,20.78v3.59a65.56,65.56,0,0,0-38.36-10.49c.61-1.13,1.1-2,1.58-2.9,6.25-2,11.53-14.22,8.27-19.34a16.32,16.32,0,0,1,18.73-6C435.92,260.28,441.89,264.54,441.68,272.24Zm-7.14-18.11-8.57-2.3c1.27-3.87,2.62-8,4-12.31a9.12,9.12,0,0,1,7.28,1.9C436.34,245.77,435.41,250.07,434.54,254.13Zm1.59-30.88C442.65,224.5,447,228,447,232.57c-3.61,1.14-7.07,2.88-8.52,6.5l-8.24-2.63c.27-3.67-1.6-6.73-4-9.46C427.39,224.11,432,222.45,436.13,223.25ZM338,209.36c-2.33-2.37-5-2.26-7.31.17a11.1,11.1,0,0,0-2.58,4.16c-2.16,7-.39,13.33,4.31,18.8a12.09,12.09,0,0,0,4.18,2.92c3.8,1.68,6.67.32,7.76-3.67a9.8,9.8,0,0,1,6.63-7.07q5.16-1.77,10.48-3.07c1.74-.42,3.61-.68,5.19.92,4.36,4.41,9.74,6.18,15.86,5.91,5.46,4.11,15.87,3,20.95-2.53,2.27.27,4.77.49,7.24.89,3.74.6,5-.28,5.31-4.1a27.55,27.55,0,0,0,0-4,91,91,0,0,0-5.23-24.2,83.3,83.3,0,0,0-6-13.14c-1.87-3.38-3.73-3.36-6.75-.89-2,1.62-4.08,3.07-5.93,4.45-6.09-2.63-16.91,2.25-19.08,8.27-5.09,2.77-8.88,6.55-10.36,12.12A6.06,6.06,0,0,1,358,209.9c-2.93.82-5.89,1.56-8.84,2.28C345,213.21,341.23,212.63,338,209.36Zm59,17.72a34.71,34.71,0,0,0-4.65-.46l1.08-1.83c-1.7-.95-3,.1-4.37.51s-2.72,1.12-4.44,1.85c2.77-4.11,13.69-5.19,16.52-1.86C400.06,226.64,398.93,227.53,397,227.08Zm4-46.54a14.44,14.44,0,0,1,2.12,2.5c2,4.18,4,8.34,5.68,12.64a79.77,79.77,0,0,1,4.83,21.84c.22,2.32,0,4.67,0,7l-.79.23a14.81,14.81,0,0,1-1.63-1.74,62.21,62.21,0,0,1-9.6-24.82c-.76-4.61-.88-9.33-1.19-14A19.22,19.22,0,0,1,401,180.54Zm-16.49,10.61-2-1.19c4-3.9,5.94-4.64,8.13-3.08-1.16,4.15-10.24,8.3-15.19,6.57C378.58,192.6,381.62,193.09,384.51,191.15Zm-11.12,4.13c5.34,3.17,17.9-2.22,19.21-8.28l3.06-1.61a64.87,64.87,0,0,0,10.39,38.35c-.72,0-1.23.09-1.74.1s-1.06,0-1.61,0c-4.83-4.36-17.72-2.78-20.8,2.58-7.19.35-12-4.71-14.5-12.65C365.53,207.82,366.14,199.2,373.39,195.28ZM342,231.56c-3.22.52-7.26-3-8.41-7.2-1.89-6.8-.88-11.86,2.66-13.28a31.85,31.85,0,0,0,4.83,3,26.83,26.83,0,0,0,5.14,1.12l1.94,8.09C345,224.91,343.21,228.09,342,231.56Zm19.2-20.83c.76,2.77,1.59,5.74,2.37,8.58L351,222a8,8,0,0,1-1.91-7.27Zm170.87,199.7c1.25-4.12,3.58-7.08,8-8.26,3.57-.94,5-3.85,3.43-7.23a15.16,15.16,0,0,0-3.91-5.36,19.36,19.36,0,0,0-15.24-4.22,13.64,13.64,0,0,0-5.16,1.89c-4.09,2.45-4.57,5.85-1.34,9.28a9.45,9.45,0,0,1,2.6,8.77,101.73,101.73,0,0,1-2.84,11.15c-.45,1.36-1.63,3.16-2.83,3.5a21.25,21.25,0,0,0-13.61,11c-6.3,2.54-10.83,12.69-8.42,18.93a15.45,15.45,0,0,1-1,1.84c-1.19,1.59-2.42,3.14-3.67,4.69-2,2.48-1.85,4.12.72,6a27.23,27.23,0,0,0,3.73,2.26,91.53,91.53,0,0,0,23.89,7.87,82,82,0,0,0,14,1.38c4,.11,4.94-1.46,4.29-5.43-.4-2.47-.61-5-.88-7.24,5.42-4,6.67-15.2,2.55-20.79.24-5.71-1.1-10.86-5.09-14.89-2.12-2.14-2.21-4.38-1.56-6.9C530.45,415.87,531.29,413.15,532.11,410.43ZM519,394.29c1.77-3.73,7.19-4.74,13.62-2.68,4.19,1.34,7.5,5.21,7,8.38-3.58,1.14-6.81,2.95-8.38,6.43L523,403.83C523.35,400.16,521.4,397.06,519,394.29ZM495.15,444a31.86,31.86,0,0,0,2.76-3.78c.3.62.59,1.22,1,2.19,2.2-2.74,1.64-5.84,2.33-8.67,2.48,3.07-2.23,13.64-6.76,14.89C494,446.85,493.76,445.41,495.15,444Zm33.71,27.73c-4.34-.43-8.7-.85-13-1.62A81.09,81.09,0,0,1,493,462.26a41.77,41.77,0,0,1-4.14-2.8c10.57-3.69,37.7,4.07,43.91,11.69A17.41,17.41,0,0,1,528.86,471.69Zm3.71-20.38,2.29-1.12c-1,3,2,6.35-1.52,8.8-3.44-2.35-2.41-13.69,1.56-16.33-.91,2.62-1.76,5-2.56,7.46C532.26,450.37,532.45,450.73,532.57,451.31Zm2-11.72c-5.56,4.13-7.24,16.67-2.81,20.79V464a61.26,61.26,0,0,0-18.39-8.27,59.69,59.69,0,0,0-20.05-2.16c.73-1.31,1.24-2.22,1.72-3.1,6-1.46,11.42-14,8.33-19.12,2.71-5.5,9-7.79,17.65-6.39C527.91,426.12,533.7,432.35,534.53,439.59Zm-7.23-18.1-8.59-2.31c1.27-3.82,2.65-8,4.1-12.33a9.13,9.13,0,0,1,7.22,2C529.09,413.2,528.16,417.49,527.3,421.49ZM486,470.27c-.29-4.67-2.88-6.64-7.4-5.54a9.34,9.34,0,0,1-8.74-2,96.47,96.47,0,0,1-8.43-8.12c-1-1.06-1.9-3-1.61-4.2a21.4,21.4,0,0,0-2.78-17.23c.93-6.73-5.62-15.66-12.57-16.8-.89-2.1-1.93-4.38-2.81-6.71-1.39-3.67-2.75-4.28-6.34-2.61a20.44,20.44,0,0,0-2.43,1.33,82.82,82.82,0,0,0-17.61,15.36,111,111,0,0,0-9.8,12.94c-2.44,3.74-1.55,5.39,2.6,7,2.26.86,4.45,1.93,6.45,2.81.92,6.72,10.37,13.59,16.68,12.44,4.88,3.1,10.06,4.45,15.63,3,2.78-.73,4.78.19,6.6,2,2,2,4,4.1,5.95,6.13,3.22,3.27,4.58,7,3.21,11.58a4.19,4.19,0,0,0,2.82,5.57,13.79,13.79,0,0,0,5,.71c6.3-.2,14-7.89,15.11-13.32A16.61,16.61,0,0,0,486,470.27Zm-41-51.68c1.79.35,3.14.84,3.73,2.78a35,35,0,0,0,2,4.42l-2.62-.31c1.52,3.27,4.47,4.46,6.67,6.59C450.24,431.9,443.81,423.15,445,418.59Zm-38.44,22.12a10.16,10.16,0,0,1,.79-2.62c1.85-2.89,3.67-5.83,5.78-8.53a87.57,87.57,0,0,1,20-18.57,56.14,56.14,0,0,1,5.57-2.92C437.68,417.26,417.81,438.15,406.57,440.71Zm17,9.31c.15,1.19.24,1.91.38,3.15-2.15-2.7-6.79-1.63-7.25-6,3.7-1.94,13.42,4.93,13.46,9.65C428.05,454.57,426.91,451.59,423.59,450Zm9.36,7.67c-.3-6.44-11.06-14.57-16.76-12.6l-3.06-1.8a65.25,65.25,0,0,0,28.21-28.23l1.85,3c-1.95,5.64,6.67,17.16,12.39,16.58,3.74,5.82,2.15,12.06-3.4,18.81A16.25,16.25,0,0,1,433,457.69Zm28.85,11.38-9.51-8.58,6.31-6.38c1.26,1.44,2.7,3.13,4.18,4.78s2.93,3.21,4.35,4.75A7.76,7.76,0,0,1,461.8,469.07Zm15.83,8.83c-5.13,5-9.86,6.47-12.8,3.93.83-3.69.8-7.38-1.42-10.44,2.14-2,4.13-3.82,6.34-5.87,2.95,2.08,6.59,2,10.18,1.22C482.07,469.35,480.88,474.76,477.63,477.9ZM391.52,310.28a16.62,16.62,0,0,0,1.67-7.41c0-4.52-2.84-6.61-7.19-5.54a9.85,9.85,0,0,1-9.4-2.34,84.79,84.79,0,0,1-7.69-7.47c-1-1.17-2.13-3.2-1.82-4.5a21.28,21.28,0,0,0-2.83-17.24c.94-6.71-5.58-15.61-12.57-16.78-.95-2.28-2-4.76-3-7.27-1.11-2.82-2.54-3.55-5.22-2.42a14.18,14.18,0,0,0-3.66,2c-5.09,4.21-10.26,8.35-15.09,12.84a59.41,59.41,0,0,0-12.23,15.55c-1.9,3.57-1.23,5.06,2.49,6.51,2.38.93,4.7,2,6.85,2.94.81,6.73,10.16,13.47,16.72,12.47,4.79,3.07,10,4.41,15.54,3a6.43,6.43,0,0,1,6.61,2c2,2,3.85,4,5.81,6,3.21,3.24,4.69,6.89,3.39,11.53-.87,3.1.58,5.25,3.7,6.18a11.33,11.33,0,0,0,7.59-.52A19.86,19.86,0,0,0,391.52,310.28Zm-39.28-59.16,2.88,1.25c1.14,2.4,2,4.23,2.91,6.1l-2.16-.37-.48.66c1,1,1.93,2.07,3,3s2.35,1.82,3.53,2.72C357,263.89,351.21,255.89,352.24,251.12Zm-38.21,22c-.32-6.4,23.15-30.61,31.85-32C344.72,250.71,323.08,272.21,314,273.12ZM331,282.69v2.47l-5.83-2.65-1.3-2.77c4.24-1.64,13.61,5.13,13.5,9.58C335.26,287.13,334.09,284.19,331,282.69Zm9.19,7.62c-.37-6.54-11-14.59-16.72-12.58l-3.05-1.83a65.28,65.28,0,0,0,28.2-28.21l1.85,3c-1.93,5.74,6.63,17.11,12.44,16.6,4,6.34,1.63,12.8-3.62,18.94A16.08,16.08,0,0,1,340.15,290.31Zm29,11.5-9.7-8.7,6.34-6.33c1.26,1.42,2.7,3.09,4.18,4.74s2.94,3.19,4.47,4.85A8.88,8.88,0,0,1,369.19,301.81Zm2.88,12.72c.76-3.69,1-7.49-1.46-10.49L377,298.2c3,1.92,6.6,1.95,10.2,1.17,2.07,2.49,1,7.7-2,10.88C380.36,315.24,375.38,317,372.07,314.53ZM273.42,477.79c-.83,2.9.49,5.07,3.36,6a11.25,11.25,0,0,0,8.34-.56,20,20,0,0,0,10.55-10.55,14.94,14.94,0,0,0,1-6.56c-.28-4.4-2.89-6.18-7.17-5.08-3.9,1-7-.28-9.87-2.75-1.69-1.47-3.19-3.18-4.9-4.64-3.3-2.82-4.9-5.82-3.72-10.54s-.52-9.54-3.21-13.62c.91-6.75-5.87-16-12.26-16.65-.48-.86-1-1.64-1.37-2.47-.58-1.27-1.11-2.55-1.58-3.85-1.59-4.39-3.12-5-7.29-2.81-.35.18-.69.39-1,.6-7.8,4.82-14.33,11.12-20.27,18a81.52,81.52,0,0,0-8.13,11.45c-1.88,3.15-1,4.73,2.45,6.05,2.39.93,4.73,2,6.89,2.89,1.27,7.07,9.85,13.29,16.89,12.62,4.75,3,9.86,4.36,15.36,2.93a6.54,6.54,0,0,1,6.79,2c2.06,2.05,4.05,4.18,6.07,6.27C273.43,469.73,274.7,473.34,273.42,477.79Zm7.11-16c2.9,2,6.52,2.1,10.12,1.19,2.13,2.42,1.13,7.67-1.92,10.88-4.85,5.1-10,6.82-13.13,4.26.82-3.71.85-7.41-1.43-10.47Zm-24.81-46.9c1.84.21,3.15.8,3.77,2.67a44.55,44.55,0,0,0,1.93,4.37l-2.38-.12c1.34,3.23,4.3,4.37,6.42,6.35C261.87,429.13,254.69,419.6,255.72,414.94ZM217.21,437a15.22,15.22,0,0,1,1.29-3.36c2.89-4,5.71-8.13,8.92-11.9a79.13,79.13,0,0,1,16.7-14.59,59.29,59.29,0,0,1,5.41-2.82C248.13,414.15,228,434.79,217.21,437Zm17.16,9.36c.12,1.12.19,1.78.27,2.56l-5.94-2.77c-.29-.54-.85-1.59-1.41-2.66,4-1.91,13.72,5,13.63,9.54C238.79,450.87,237.7,447.85,234.37,446.38Zm9.32,7.61c-.12-6.31-11.31-14.77-16.69-12.56l-3.07-1.87a65.11,65.11,0,0,0,28.17-28.14l1.89,3c-2.07,5.52,6.52,16.95,12.51,16.61,4.12,7.09,1,14.13-3.92,19S250.62,458.15,243.69,454Zm28.95,11.4L263,456.78l6.34-6.31,8.54,9.53A7.83,7.83,0,0,1,272.64,465.39ZM415.08,76.19H355.57v49.64h59.51Zm-4.16,45.32H359.8V80.4h51.12Zm89.13,445.75a7.71,7.71,0,0,1,3.54,5.29c.68,4.51,1.4,9,2.13,13.53.45,2.83.95,5.65,1.43,8.47l.51,0c1.11-6.85,2.39-13.67,3.26-20.54.45-3.62,2.1-6.26,5.25-7.6,3.68-1.57,7.6-2.57,11.42-3.81.54-.17,1.11-.25,1.66-.38a12.39,12.39,0,0,0-2.79-.94c-3.72-1.3-7.52-2.46-11.1-4.1-2.65-1.21-4.06-3.61-4.36-6.66s-.84-5.76-1.31-8.64c-.67-4.08-1.36-8.17-2.15-12.84a8.9,8.9,0,0,0-.59,1.41c-1.1,6.73-2.26,13.45-3.22,20.2-.38,2.7-1.43,5-3.78,6.17a83,83,0,0,1-9.64,4,33,33,0,0,1-5.09,1,3.72,3.72,0,0,0,1.88.71C491.71,563.33,496.16,564.53,500.05,567.26ZM312.81,150a8.11,8.11,0,0,1-4-5.63c-.84-5.62-1.75-11.24-2.65-16.86-.27-1.68-.61-3.35-.92-5-.48.28-.6.51-.64.76-1.07,6.53-2.32,13-3.11,19.59a9.47,9.47,0,0,1-5.48,7.9,31.83,31.83,0,0,1-5.29,2.22c-2.55.76-5.19,1.26-7.79,1.88a5.08,5.08,0,0,0,2,.64c4.6.81,9.05,2,12.91,4.78a7.6,7.6,0,0,1,3.38,5.16c.67,4.45,1.39,8.89,2.1,13.33.47,2.89,1,5.79,1.45,8.68h.4c.15-.62.35-1.23.45-1.85,1-6.34,2.13-12.66,3-19a9,9,0,0,1,4.26-6.78,32.55,32.55,0,0,1,12.27-4.3c.57-.1,1.13-.24,1.7-.37a7.07,7.07,0,0,0-2.75-.93A29.82,29.82,0,0,1,312.81,150Zm204.73,22.07a7.17,7.17,0,0,1-3.32-5.17c-.29-2.23-.64-4.45-1-6.67-.64-4-1.31-7.89-2-11.84a2,2,0,0,0-.75,1.27c-.92,5.68-1.89,11.36-2.7,17.05a6.57,6.57,0,0,1-3.37,5.32,76.46,76.46,0,0,1-8.2,3.4,32.2,32.2,0,0,1-4.32.95c0,.12,0,.24,0,.36a11.87,11.87,0,0,1,1.89.34c3.47,1.22,7,2.3,10.37,3.79,2.21,1,3.29,3.06,3.61,5.58.48,3.87,1.18,7.72,1.8,11.57.36,2.19.76,4.37,1.14,6.56a3.29,3.29,0,0,0,.85-1.82c.82-5,1.92-9.9,2.33-14.9.39-4.69,3-7.14,6.95-8.69a43.12,43.12,0,0,1,4.71-1.53c1.41-.39,2.87-.64,4.31-.94a3,3,0,0,0-1.64-.71A27.37,27.37,0,0,1,517.54,172.08ZM283.88,555.67a6.69,6.69,0,0,1,3.82,5.68c.29,2.23.63,4.45,1,6.67.62,3.84,1.27,7.68,1.9,11.51l.44,0c.11-.37.26-.74.33-1.11.92-5.69,1.91-11.36,2.7-17.06a7.12,7.12,0,0,1,3.48-5.48,24.06,24.06,0,0,1,4.61-2.27c2.47-.83,5-1.38,7.58-2-.09-.12-.15-.28-.24-.31-.45-.12-.9-.2-1.35-.29-3.93-.72-7.86-1.6-11-4.21a8.49,8.49,0,0,1-2.83-4.3c-1.05-4.92-1.66-9.92-2.47-14.89-.23-1.41-.54-2.81-.81-4.21a1.48,1.48,0,0,0-.63,1c-.89,5.56-1.85,11.1-2.61,16.67-.39,2.85-1.51,5.15-4.1,6.38a72.34,72.34,0,0,1-7.72,3,33.91,33.91,0,0,1-4.28.92,13.46,13.46,0,0,0,2.56.82C277.48,553.25,280.76,554.28,283.88,555.67Zm102.43,99.15a32.91,32.91,0,0,0,2.06-5.36,88.47,88.47,0,0,0,2-25c-.07-1.63.13-3.54-2.18-3.85-1.52-.2-2.34,1-2.43,3.83-.16,4.9,0,9.8-.27,14.69a49.23,49.23,0,0,1-1.17,9.62c-.74,3-1.95,6-5.58,6.85-3.46-1.77-5-4.08-5.35-8.63-.42-5.67-.54-11.36-.87-17a49.46,49.46,0,0,0-.79-6.88c-.14-.68-1.27-1.68-1.83-1.61-.75.09-1.45,1-2,1.72-.26.3-.19.89-.22,1.35a105,105,0,0,0,.34,23,17.8,17.8,0,0,0,3.21,8.65C374.39,660.35,383.19,661.93,386.31,654.82Zm29.14-20.56c2.54-7.72-3.28-14.57-11.28-13.2-1.51.26-3.05.38-4.82.59-1.16,1.22-2.61,2.63-3.91,4.17a4.2,4.2,0,0,0-1,2.31,6.07,6.07,0,0,0,.82,2.16l.81.13c.29-.59.58-1.18.88-1.77.4.5.45.73.44,1-.26,7.34-.55,14.67-.78,22a42.22,42.22,0,0,0,.18,5.15,2.41,2.41,0,0,0,2.43,2.41,2.49,2.49,0,0,0,2.7-2.35,14.37,14.37,0,0,0,.1-2.37c0-2.24,0-4.48,0-6.72l1.16-.52C409.14,644.67,413.38,640.53,415.45,634.26Zm-13.63,7.9c0-5.16,0-10.32,0-15.48a5.2,5.2,0,0,1,.15-.92c2.92-1.42,5.66-1.25,7.47.44s2.32,4.36,1.2,7.31a16.69,16.69,0,0,1-8.09,8.94Zm26.76-6.29a18.49,18.49,0,0,1-4.3-4.82c-1.61-2.64-.85-4.76,2-6.65,2.3.31,4.14,1.32,4.94,3.79A4.78,4.78,0,0,0,432,630a2.25,2.25,0,0,0,1.67.72,2.09,2.09,0,0,0,1.3-1.24,6.69,6.69,0,0,0-2.29-7.13c-4.58-3.49-9.32-2.56-12.23,2.4a8.92,8.92,0,0,0-.79,7.1,16.24,16.24,0,0,0,5.83,8.3c3.15,2.61,5,6,4.88,10.17-.11,2.8-1.69,4.47-4.18,4.62-3.38.21-4.64-.77-5.19-4a4.21,4.21,0,0,0-.25-1.36c-.36-.65-.8-1.6-1.34-1.71a2.59,2.59,0,0,0-2.24.73A6.2,6.2,0,0,0,416,651.8a7.8,7.8,0,0,0,6.22,7.73c7.32,1.21,12.42-2.43,12.76-9.82A15.73,15.73,0,0,0,428.58,635.87Zm-83.23,21c5.9,5.43,13.16,2.23,16.33-3.77a2.66,2.66,0,0,0-.5-2.56,3.61,3.61,0,0,0-2.83,0c-.71.29-1.15,1.23-1.74,1.86-3.45,3.66-7.42,3.21-9.92-1.14A20.49,20.49,0,0,1,344.17,641c0-.66,0-1.32.12-2,.53-4.13,1.53-8.1,4.53-11.21,2.8-2.9,6.09-2.79,8.78.2a19.38,19.38,0,0,0,2,2.45,10.07,10.07,0,0,0,2.66,1c.19-.9.74-1.88.53-2.67a9.48,9.48,0,0,0-15.08-5.12,18,18,0,0,0-4.07,4.54,25.59,25.59,0,0,0-3.6,16.57C340.51,649.36,341.83,653.62,345.35,656.86Zm.86-606.38c3.16.63,6.36,1,9.68,1.54a12.52,12.52,0,0,0-1.26,3.07,5.72,5.72,0,0,0,.45,3.63c.89,1.32,2.51.9,3.8.25a15.22,15.22,0,0,0,7.89-8.49,10.77,10.77,0,0,0,.56-4.07c-.21-4.74-3-8.19-6.07-11.42a3.74,3.74,0,0,0-1.59-1.15c-1.15-.26-2.73-.76-3.45-.23A4.44,4.44,0,0,0,355,37a14.93,14.93,0,0,0,1.41,4.07,11.69,11.69,0,0,0,.66,1.3c-3.71.51-7.37.88-11,1.57-1.75.33-4,.82-3.86,3.24C342.37,49.4,344.38,50.12,346.21,50.48Zm11.18,6.33-.62-.44,2.87-4.95,4.44-.86C362.31,53.52,360.35,55.73,357.39,56.81Zm.82-20.27c2.59,1.75,4.21,4.33,6,7.5l-3.87-.86c-.92-2.11-1.83-4.19-2.73-6.27Zm6.55,10.76a37.52,37.52,0,0,1-19.34-.09C348.3,45,361.18,45,364.76,47.3Zm95.12,596a76.42,76.42,0,0,0,8.91-1.67,3.62,3.62,0,0,0,2.27-2.51,3.83,3.83,0,0,0-2-2.74,21.37,21.37,0,0,0-5.51-1.49c-2-.34-4-.4-6.07-.59a13.46,13.46,0,0,0,1.34-3.27,5.7,5.7,0,0,0-.45-3.62c-.89-1.32-2.51-.9-3.8-.25a15.22,15.22,0,0,0-7.89,8.49,10.77,10.77,0,0,0-.56,4.07c.21,4.73,3,8.19,6.07,11.41a3.65,3.65,0,0,0,1.59,1.15c1.15.27,2.73.76,3.45.24a4.44,4.44,0,0,0,1.21-3.4A14.5,14.5,0,0,0,457,645c-.21-.53-.51-1-.87-1.73A27.44,27.44,0,0,0,459.88,643.26Zm-3.51-14.14c-.92,4.11-2.4,6.24-6.89,6.23A13.06,13.06,0,0,1,456.37,629.12Zm-1.17,20.43c-2.59-1.76-4.22-4.33-6-7.51l3.84.87,2.77,6.26ZM449,639a30.14,30.14,0,0,1,18.64.19A31.91,31.91,0,0,1,449,639ZM428,698.7a6.79,6.79,0,0,0-2.52-1.08c-3.17-.57-6.36-1-9.65-1.52.4-.93.89-1.92,1.27-3,.5-1.34.84-2.74-.43-3.86s-2.62-.79-3.91-.13a15.25,15.25,0,0,0-7.78,8.38,11.13,11.13,0,0,0-.57,4.26c.21,4.76,3,8.2,6.16,11.4a7.31,7.31,0,0,0,2.31,1.5c2.13.91,4.09-.28,3.9-2.57a21.89,21.89,0,0,0-1.38-4.9,13.38,13.38,0,0,0-1-1.93,28.55,28.55,0,0,0,4.37,0,57.57,57.57,0,0,0,8.87-1.89C430.11,702.52,430.18,700.2,428,698.7Zm-13.32-7.54c-.71,4.25-2.56,5.84-6.92,6.2A13.1,13.1,0,0,1,414.63,691.16Zm-6.8,13,3.51.83c.89,2.06,1.8,4.19,2.9,6.71C411.55,710.51,408.79,707.12,407.83,704.12Zm-.55-3.08a30.35,30.35,0,0,1,18.66.2C419.7,702.87,413.48,703.12,407.28,701Zm-50-12.21c-2.59-.92-4.39.88-3.66,3.54a36.14,36.14,0,0,0,1.52,3.85c-2.71.31-5.35.47-7.92,1a13.66,13.66,0,0,0-4.71,1.9c-1.69,1.12-1.5,3,.26,4a9.92,9.92,0,0,0,3.33,1.26c3.37.51,6.77.85,10.11,1.25-.62,1.56-1.43,3.28-2,5.09-.42,1.44-.41,3.24,1.18,3.8a4.35,4.35,0,0,0,3.77-.55,34.73,34.73,0,0,0,5.87-7.12C369.84,698.7,363,690.91,357.25,688.83Zm-.62,22.86,2.89-6.71c.79-.2,1.36-.35,1.93-.48s1-.2,1.54-.3A13.39,13.39,0,0,1,356.63,711.69Zm-12.15-10.1c3.48-2.47,15.85-2.6,19.46-.3C357.4,703.11,351.17,702.89,344.48,701.59Zm11.8-10.42c3.28,1.18,5.15,3.46,6.89,6.05C359.28,697.49,357.36,696,356.28,691.17ZM172.72,340.4a40.18,40.18,0,0,0,6.74,5.41c8,4.81,15.69-1.45,18.1-7.48a3.62,3.62,0,0,0-.52-3.21c-.63-.64-2.16-.7-3.22-.53a16.57,16.57,0,0,0-3.53,1.38c-.33-2.78-.51-5.42-1-8a12.72,12.72,0,0,0-1.67-4.39c-1.27-2-3.28-1.8-4.38.26A9.7,9.7,0,0,0,182.1,327c-.49,3.36-.83,6.74-1.23,10.11-1.41-.6-2.93-1.39-4.54-1.9s-3.23-.69-4.34.89S171.56,339.31,172.72,340.4Zm17.09-.61,4.87-3c-.1,3-2.65,5.79-5.69,7.09Zm-4.87-14.39c2.45,3.36,2.59,15.77.27,19.41C183.41,338.26,183.6,332,184.94,325.4Zm-9.7,12.28,6.31,2.71c.3,1.24.54,2.26.9,3.78a18,18,0,0,1-7.5-5.93ZM316.72,651.35c1.61,1.08,3.25.35,4.31-.82a40.4,40.4,0,0,0,5.57-7.11c4.56-8.08-2.22-15.77-7.93-17.8-2.58-.91-4.37.89-3.65,3.54a41.89,41.89,0,0,0,1.63,4.11,16.79,16.79,0,0,0-2.48,0,68.82,68.82,0,0,0-8.72,1.67,4.49,4.49,0,0,0-2.51,2.88c-.34,1.59,1.24,2.41,2.61,2.72,2.76.62,5.55,1.1,8.35,1.5a30.29,30.29,0,0,0,3.94,0c-.76,1.75-1.54,3.21-2,4.76S315,650.21,316.72,651.35Zm1.53-3.34,2.71-6.25,3.38-.81A11.17,11.17,0,0,1,318.25,648Zm6.34-14c-3.86.25-5.78-1.17-6.88-6.06C321,629.14,322.88,631.41,324.59,634Zm-18.22,4.06a30.13,30.13,0,0,1,18.66-.27C318.85,639.94,312.63,639.6,306.37,638.08ZM181.21,398.5a78.36,78.36,0,0,0,2,10c.75,2.42,3.17,2.55,4.51.37a12.81,12.81,0,0,0,1.62-4.41c.47-2.57.66-5.18,1-7.88a16.07,16.07,0,0,0,3.49,1.39c1.06.17,2.66.16,3.22-.48a3.85,3.85,0,0,0,.5-3.38,14.69,14.69,0,0,0-9.46-8.67c-5.49-1.69-12.06,2.57-15.32,6.65-1,1.27-1.86,2.74-.76,4.34s2.91,1.42,4.51.9,3-1.27,4.72-2A20.47,20.47,0,0,0,181.21,398.5Zm14-3.33-.44.6-4.91-2.88c-.32-1.61-.58-2.86-.91-4.49C191.9,390.26,194.17,392.16,195.19,395.17Zm-9.73-7a30.34,30.34,0,0,1-.18,18.68A31.72,31.72,0,0,1,185.46,388.13ZM175.36,395c0-2,3.19-4.84,7-6.35-.28,1.26-.51,2.26-.8,3.53ZM594.6,335.19c-1.62.5-3.14,1.29-5,2.06a29.74,29.74,0,0,0,0-4.93,48.07,48.07,0,0,0-2-8.43c-.78-2.17-3-2.3-4.31-.34a12.34,12.34,0,0,0-1.7,4.37c-.5,2.63-.68,5.31-1,8.07a16.73,16.73,0,0,0-3.48-1.39c-1.07-.17-2.66-.16-3.22.48a3.84,3.84,0,0,0-.51,3.39,14.78,14.78,0,0,0,9.46,8.66c5.5,1.7,12.13-2.63,15.32-6.65,1-1.27,1.85-2.74.77-4.35S596.14,334.71,594.6,335.19Zm-19.09,1.87c4.73,1.26,6.17,2.69,6.21,6.95A13,13,0,0,1,575.51,337.06Zm9.91,7.41c-2-3.24-1.95-14.75,0-18.69C587.5,328.23,587.47,341.1,585.42,344.47Zm3.12-.66c.23-1.06.46-2.07.75-3.37l6.24-2.77C594.69,340.37,591.19,343.15,588.54,343.81ZM414,59.09a3.88,3.88,0,0,0,3.4-.47c.64-.55.68-2.15.52-3.22a16.1,16.1,0,0,0-1.37-3.5c2.87-.35,5.59-.52,8.24-1.06a12.35,12.35,0,0,0,4.49-1.92c1.55-1.08,1.33-3-.32-3.92a9.81,9.81,0,0,0-3.32-1.27c-3.38-.52-6.79-.86-10.2-1.27.63-1.55,1.43-3.15,2-4.84.45-1.49.48-3.11-1.07-4.11a3.07,3.07,0,0,0-4,.65A41,41,0,0,0,407,40.49C401.79,48.7,407.76,56.4,414,59.09Zm1-22.69c-1.1,2.56-2,4.68-2.91,6.76l-3.48.79A13.53,13.53,0,0,1,415.05,36.4Zm12,10c-2.63,2.49-15,2.75-19.46.41C414.3,45,420.5,45.27,427,46.43ZM415.3,56.87c-3.21-1.1-5.11-3.38-6.79-6.06C412.74,50.61,414.61,52.72,415.3,56.87ZM592,387.08c-8.13-5.16-15.79.64-18.57,7a3.92,3.92,0,0,0,.45,3.4c.55.65,2.15.71,3.2.55a16.05,16.05,0,0,0,3.55-1.39c.33,2.76.55,5.39,1,8a10.69,10.69,0,0,0,1.36,3.88,3.62,3.62,0,0,0,2.56,1.7c.85-.05,1.8-1.12,2.39-2a6.55,6.55,0,0,0,.93-2.79c.46-3.31.8-6.63,1.18-9.9,1.59.63,3.32,1.45,5.12,2,1.44.43,3.23.41,3.79-1.18a4.45,4.45,0,0,0-.55-3.77A32.22,32.22,0,0,0,592,387.08ZM581,392.92l-4.84,2.85-.51-.61c1-3,3.27-4.92,6.25-6.69C581.6,390.06,581.35,391.33,581,392.92ZM585.63,407c-2.13-3.72-2.22-15.28-.26-18.86C587.34,391,587.56,403,585.63,407Zm10-12.07-6.31-2.73c-.29-1.25-.53-2.26-.89-3.78,3.18,1.58,5.71,3.29,7.49,6Zm-403.94-337c-1.43.59-3.11,1.18-4.69,2-1.4.72-2.55,1.8-2.22,3.61a3,3,0,0,0,3.4,2.45,39.73,39.73,0,0,0,8.59-.94c9.09-2.38,10.14-12,7.45-18.25a3.5,3.5,0,0,0-2.49-1.84,3.72,3.72,0,0,0-2.6,1.64,18.46,18.46,0,0,0-1.6,3.74c-2.68-1.94-5.29-4-8-5.75-1.55-1-3.53-1.9-5.12-.35s-.42,3.59.59,5C187.08,52.22,189.46,55,191.69,57.88Zm-3.29,5.45c-.09-.35-.18-.69-.28-1l6.39-2.68,3,1.84,0,.69Zm13.47-15.74c1.5,3,1.29,6,.67,9.09A5.94,5.94,0,0,1,201.87,47.59Zm-1.45,12.66a40.53,40.53,0,0,1-14.24-13.42C189.75,46.89,198.91,55.47,200.42,60.25ZM585.85,697.48c-1.91-2.51-4-4.86-6-7.19,1.56-.67,3.36-1.3,5-2.19,1.32-.7,2.34-1.82,2-3.53s-1.79-2.23-3.26-2.42a20.14,20.14,0,0,0-11.9,2.24,8.55,8.55,0,0,0-2.82,2.39c-3.3,4.42-3.48,9.31-1.58,14.28a3.75,3.75,0,0,0,2.67,2.12c.93,0,2.12-1.09,2.78-2a13.94,13.94,0,0,0,1.35-3.34c2.74,2,5.36,4,8.11,5.77a6.93,6.93,0,0,0,3.16,1,2.2,2.2,0,0,0,2.47-3.05A13.61,13.61,0,0,0,585.85,697.48Zm-2.52-12.29.22.67-6.43,2.63-3.32-2A18.92,18.92,0,0,1,583.33,685.19ZM569.77,700.5c-1.46-3-1.3-6.07-.51-9.45C572.1,695.16,572.21,698,569.77,700.5Zm1.68-12.09a31.42,31.42,0,0,1,13.63,13A30.41,30.41,0,0,1,571.45,688.41Zm13-622.54a4.67,4.67,0,0,0,3.07-2.28c.75-1.51-.46-2.81-1.8-3.53-1.67-.9-3.47-1.56-5.06-2.25a31.18,31.18,0,0,0,2.54-2.9,74.13,74.13,0,0,0,5.29-8.07c1-2-.38-3.56-2.63-3.3a7,7,0,0,0-3,1c-2.73,1.83-5.35,3.82-8.06,5.78-.31-.89-.62-2-1.07-3-.6-1.35-1.32-2.7-3.12-2.58s-2.54,1.46-2.89,2.88a23.58,23.58,0,0,0-.82,5.65c0,3.19.79,6.3,3.16,8.53C574.17,65.61,579.22,66.51,584.5,65.87Zm-.17-3.66c-.05.24-.11.47-.17.7-3.15.58-6.2-.12-9.58-1.19l3.28-2.11Zm1.54-15.5a32.11,32.11,0,0,1-13.58,13A29.92,29.92,0,0,1,585.87,46.71Zm-15.27.78c2.62,3.31,2.36,6.32-.63,9.28C569.28,53.66,569.1,50.66,570.6,47.49ZM201.42,686.18c-3.93-3.62-8.84-4.47-14-4-1.55.13-3.07.62-3.43,2.45s.78,2.9,2.18,3.62c1.62.83,3.35,1.44,5.14,2.19l-1,.94a26.27,26.27,0,0,0-7.07,9.45c-1.06,2.64.3,4.38,3,3.67a17.54,17.54,0,0,0,5.08-2.54c1.87-1.27,3.55-2.83,5.33-4.29a17.7,17.7,0,0,0,1.52,3.74c.62.86,1.8,1.85,2.7,1.82a3.55,3.55,0,0,0,2.57-2,19.27,19.27,0,0,0,1.2-6C204.79,691.87,204,688.55,201.42,686.18Zm-14.14-.35c.06-.22.13-.43.19-.64,3.17-.58,6.21.14,9.65,1.18l-3.33,2.12Zm-1.63,15.65c1.52-4.09,9.5-11.74,13.65-13.21C199,691.61,190,700.37,185.65,701.48Zm15.43-1c-2.09-2.83-3-5.86.6-9.3C202.4,694.43,202.57,697.46,201.08,700.53ZM378.39,57.31a2.7,2.7,0,0,0,2.29.44c.48-.23.77-1.41.7-2.13-.34-3.2,1.19-5.75,4.55-7.14,3.84,1,5.45,3.49,5.07,7.39-.06.62.24,1.64.67,1.84a2.35,2.35,0,0,0,2.12-.2A13,13,0,0,0,396.61,54a11.45,11.45,0,0,0-6-15.56,11.69,11.69,0,0,0-15.28,6.75C373.82,49.42,375.11,54.82,378.39,57.31Zm3.23-14.47c3-2.2,6.19-2.14,9.33.18a6.61,6.61,0,0,1,2.56,7.8c-3.92-7.58-10.66-7.31-14.56,0A6.9,6.9,0,0,1,381.62,42.84ZM393.47,691a2.94,2.94,0,0,0-2.43-.63c-.47.18-.79,1.51-.71,2.28.33,3.34-1.56,6-5.2,7-3.47-1.45-4.85-3.82-4.48-7.33.06-.63-.18-1.64-.6-1.86a2.94,2.94,0,0,0-2.15.12,4.53,4.53,0,0,0-1.44,1.33,11.49,11.49,0,1,0,18.42,13.71C398.11,701,397.52,694.38,393.47,691ZM391,704.4c-2.85,2.68-6.41,3.19-9.45,1.38a7.34,7.34,0,0,1-3.46-8.67c3.83,7.48,10.81,7.73,14.5.2A6.36,6.36,0,0,1,391,704.4ZM577.38,371.24a10.86,10.86,0,0,0-2.79.62c.42,1,.59,2.29,1.31,3a11.06,11.06,0,0,0,12.36,1.88c4-1.91,7-6.66,6.76-10.67a12.08,12.08,0,0,0-8.1-10.78c-4.16-1.36-9.33,0-11.75,3.14a2.75,2.75,0,0,0-.46,2.29c.24.48,1.42.78,2.13.71a6.47,6.47,0,0,1,7.13,4.64C583.08,369.46,580.53,371.38,577.38,371.24ZM581.65,359a6.85,6.85,0,0,1,7.85,2.48c2.29,2.92,2.32,6.2.09,9.34a6.71,6.71,0,0,1-7.92,2.75C589.7,369.32,588.47,362.56,581.65,359Zm-387.3,2.57c1.18.12,2.11-.29,2-1.52a3.92,3.92,0,0,0-1.17-2.17,11.14,11.14,0,0,0-12-2.34c-4.31,1.74-7.55,6.28-7.37,10.86a11.38,11.38,0,0,0,7.05,10.44c4.34,2,9.94.81,12.69-2.65a3.38,3.38,0,0,0,.49-2.47c-.07-.34-1.32-.7-2-.63-3.63.4-6.19-1.3-7.26-5.09C188.29,362.51,190.52,361.19,194.35,361.6Zm-4.72,12c-3.84,1-6.57-.07-8.52-3a7.52,7.52,0,0,1,8.44-11.52c-3.48,1.37-5.79,3.76-5.9,7.18C183.54,369.85,186.1,372.05,189.63,373.56ZM454,165.19c-1.5-.37-2.58-.6-3.64-.91-3-.91-5.09-2.47-5.21-6.08a59.47,59.47,0,0,0-1.29-7.87,33.33,33.33,0,0,0-1.67,7.35c-.56,4.79-1.54,5.4-6.49,6.94a18,18,0,0,1-1.91.41l0,.39c.62.17,1.24.37,1.87.53,4.87,1.22,5.73,2.16,6.5,7.12.1.59.18,1.18.28,1.77l1,5.44a34.69,34.69,0,0,0,1.79-8.39,5.51,5.51,0,0,1,3.93-5.15C450.55,166.18,452.07,165.78,454,165.19ZM252.14,309.56c-.64.14-1.3.23-1.95.34A9.92,9.92,0,0,0,252.9,311c2.85.93,5.39,2,5.65,5.71.19,2.8.87,5.57,1.34,8.35l.54,0c.28-1.82.6-3.64.82-5.46.71-5.9,1.94-7.57,6.41-8.62.77-.18,1.54-.41,2.3-.61a2.31,2.31,0,0,0-1.36-.67c-4.65-.85-6.11-2.29-6.94-6.93-.44-2.46-.85-4.92-1.27-7.37l-.51,0c-.37,2.25-.83,4.49-1.08,6.75C258.27,306.7,256.72,308.53,252.14,309.56ZM444.19,491.48c-1.4-.39-2.63-.63-3.78-1.07-2.05-.79-4.12-1.65-4.52-4.23-.43-2.81-.84-5.62-1.27-8.43a9.26,9.26,0,0,0-.34-1.1,53.68,53.68,0,0,0-1.85,9,4.73,4.73,0,0,1-3,4.08c-1.66.7-3.39,1.22-5.09,1.82.07.08.11.15.16.17a3.56,3.56,0,0,0,.76.25c5,.78,7.7,3.49,7.67,8.8a31.58,31.58,0,0,0,1,5.7,38.66,38.66,0,0,0,1.81-8.5,5,5,0,0,1,3.21-4.59C440.59,492.68,442.28,492.16,444.19,491.48ZM247.89,502.1a17.16,17.16,0,0,0-1.34,5.07c-.51,3.89-1.53,5.07-5.35,6-.35.08-.72.12-1.13.19.12.23.15.38.25.44a1.3,1.3,0,0,0,.53.25c4,.57,5.79,2.87,5.82,6.86a23.07,23.07,0,0,0,.82,4.28,12.67,12.67,0,0,0,1-4.09c.58-4.91,1.16-5.67,5.34-6.9.48-.13.92-.37,1.72-.69l-2.2-.58c-2.64-.71-4.49-2-4.54-5.12A36.32,36.32,0,0,0,247.89,502.1Zm199.24,59.41c.21,1.65.57,3.29.86,4.94l.4-.05c.38-2.2.89-4.39,1.1-6.6a4.31,4.31,0,0,1,3-3.84c1.11-.46,2.28-.76,3.75-1.25l-2.64-.76c-2.44-.69-4-2-4.16-4.81a50.09,50.09,0,0,0-1-6,18,18,0,0,0-1.26,4.86c-.54,4.26-1.33,5.2-5.52,6.33l-1.38.38c.72.29,1.12.51,1.56.63C446,556.46,446.59,557.18,447.13,561.51ZM554.39,359.24a2.55,2.55,0,0,0-2.62,2.82,2.59,2.59,0,0,0,2.57,2.88,2.86,2.86,0,0,0,0-5.7ZM487.76,499.58a3,3,0,0,0,2.87-2.72,2.72,2.72,0,0,0-2.57-2.72,2.89,2.89,0,0,0-2.87,2.69A2.82,2.82,0,0,0,487.76,499.58ZM365.82,316.26a2.71,2.71,0,0,0-2.68-2.61,3,3,0,0,0-2.79,2.77,2.82,2.82,0,0,0,2.71,2.62A2.86,2.86,0,0,0,365.82,316.26Zm159.43-45a2.82,2.82,0,0,0,2.6,2.77,2.72,2.72,0,0,0,2.78-2.54,2.85,2.85,0,0,0-2.72-2.86A2.63,2.63,0,0,0,525.25,271.29ZM215.41,332.71a2.58,2.58,0,0,0,2.56,2.71,2.72,2.72,0,0,0,2.75-2.78,2.62,2.62,0,0,0-2.7-2.59A2.57,2.57,0,0,0,215.41,332.71Zm149.5,75.1a2.7,2.7,0,0,0-2.67-2.66,2.62,2.62,0,0,0-2.77,2.52,2.9,2.9,0,0,0,2.78,2.82A2.75,2.75,0,0,0,364.91,407.81Zm-70-90.18a2.74,2.74,0,0,0,2.7-2.83,2.66,2.66,0,1,0-5.3.41A2.39,2.39,0,0,0,294.9,317.63Zm-78.46,65.48a2.73,2.73,0,0,0-.12-5.46,2.59,2.59,0,0,0-2.49,2.78A2.62,2.62,0,0,0,216.44,383.11Zm69.86,20.81a2.79,2.79,0,0,0,2.78,2.56,2.55,2.55,0,0,0,2.6-2.66,2.69,2.69,0,1,0-5.38.1Zm69.91-1.63a2.83,2.83,0,0,0-2.8-2.73,2.64,2.64,0,0,0-2.62,2.64,2.92,2.92,0,0,0,2.79,2.76A2.75,2.75,0,0,0,356.21,402.29ZM332,522.44a2.76,2.76,0,0,0-2.64-2.7,2.53,2.53,0,0,0-2.78,2.47,2.71,2.71,0,1,0,5.42.23ZM518.49,261.59a2.77,2.77,0,0,0,2.73,2.62,2.72,2.72,0,0,0,2.67-2.67,2.92,2.92,0,0,0-2.88-2.73A2.65,2.65,0,0,0,518.49,261.59ZM286.71,227a2.76,2.76,0,0,0,2.55-2.78,2.61,2.61,0,0,0-2.67-2.61,2.84,2.84,0,0,0-2.69,2.89A2.69,2.69,0,0,0,286.71,227Zm11.75,194.73a2.58,2.58,0,0,0,2.48,2.77,2.66,2.66,0,0,0,2.88-2.59,3,3,0,0,0-2.76-2.81A2.58,2.58,0,0,0,298.46,421.68ZM252.06,254.4a2.74,2.74,0,0,0-2.62,2.72,2.63,2.63,0,0,0,2.56,2.72,2.94,2.94,0,0,0,2.78-2.83A2.74,2.74,0,0,0,252.06,254.4Zm-7.2,15.06a2.71,2.71,0,0,0,2.72-2.82,2.63,2.63,0,0,0-2.66-2.63,2.86,2.86,0,0,0-2.65,2.94A2.56,2.56,0,0,0,244.86,269.46Zm225.8,240.4a2.63,2.63,0,0,0-2.78-2.52,2.89,2.89,0,0,0-2.69,2.7,2.85,2.85,0,0,0,2.71,2.66A2.89,2.89,0,0,0,470.66,509.86ZM376.05,534.1a2.54,2.54,0,0,0,2.71-2.53,2.69,2.69,0,1,0-5.37-.07A2.57,2.57,0,0,0,376.05,534.1ZM349.43,328.71a2.71,2.71,0,0,0-2.56-2.72,2.83,2.83,0,0,0-2.81,2.72,2.63,2.63,0,0,0,2.54,2.71A2.86,2.86,0,0,0,349.43,328.71Zm8.37,132.23a2.76,2.76,0,0,0,2.84,2.71,2.67,2.67,0,0,0,2.62-2.7,2.75,2.75,0,0,0-2.74-2.61A2.69,2.69,0,0,0,357.8,460.94Zm24.29.33a2.63,2.63,0,1,0-.09,5.25,2.63,2.63,0,1,0,.09-5.25ZM343.46,526a2.75,2.75,0,0,0-2.74-2.76,2.7,2.7,0,0,0-2.8,2.49,2.85,2.85,0,0,0,2.76,2.79A2.75,2.75,0,0,0,343.46,526Zm76.93-202.72a2.61,2.61,0,0,0-2.52,2.75,2.7,2.7,0,0,0,2.73,2.59,2.57,2.57,0,0,0,2.63-2.63A2.8,2.8,0,0,0,420.39,323.31Zm-26.91-64.95a2.63,2.63,0,1,0,.29,5.25,2.62,2.62,0,0,0,2.59-2.66A2.69,2.69,0,0,0,393.48,258.36Zm-57.27,116a2.64,2.64,0,0,0-2.6,2.69,2.72,2.72,0,0,0,2.81,2.73,2.51,2.51,0,0,0,2.49-2.59A2.69,2.69,0,0,0,336.21,374.36ZM511,252.11a2.89,2.89,0,0,0,2.84,2.74,2.6,2.6,0,0,0,2.53-2.75,2.75,2.75,0,0,0-2.7-2.63A2.69,2.69,0,0,0,511,252.11Zm-79,88.22a2.63,2.63,0,0,0-2.58,2.7,2.58,2.58,0,0,0,2.77,2.7,2.47,2.47,0,0,0,2.5-2.55A2.74,2.74,0,0,0,431.93,340.33ZM364.12,527.85a2.56,2.56,0,0,0-2.67,2.59,2.76,2.76,0,0,0,2.64,2.7,2.69,2.69,0,0,0,2.77-2.55A2.61,2.61,0,0,0,364.12,527.85Zm23.81,6.53a2.7,2.7,0,0,0,2.75-2.56,2.49,2.49,0,0,0-2.52-2.71,2.59,2.59,0,0,0-2.87,2.58A2.75,2.75,0,0,0,387.93,534.38Zm39.19-203.06a2.57,2.57,0,0,0-2.7,2.55,2.89,2.89,0,0,0,2.77,2.81,2.68,2.68,0,0,0-.07-5.36ZM337.61,198.77a2.66,2.66,0,0,0,2.65,2.67,2.79,2.79,0,0,0,2.8-2.76,2.7,2.7,0,0,0-2.76-2.56A2.76,2.76,0,0,0,337.61,198.77Zm112.13,87.31a2.73,2.73,0,0,0,2.7,2.84,2.65,2.65,0,0,0,2.66-2.64,2.79,2.79,0,0,0-2.83-2.73A2.48,2.48,0,0,0,449.74,286.08ZM299.33,217.51a2.67,2.67,0,0,0-2.8-2.5,2.79,2.79,0,0,0-2.67,2.7,2.64,2.64,0,0,0,2.7,2.6A2.82,2.82,0,0,0,299.33,217.51Zm194.91,17.74a2.71,2.71,0,0,0,5.42-.14,2.91,2.91,0,0,0-2.94-2.65A2.59,2.59,0,0,0,494.24,235.25ZM221.15,309.71a2.77,2.77,0,0,0,2.79,2.55,2.72,2.72,0,0,0,2.54-2.8,2.67,2.67,0,0,0-2.66-2.65A2.81,2.81,0,0,0,221.15,309.71Zm79.22-1.35a2.79,2.79,0,0,0,2.78-2.78,2.69,2.69,0,0,0-2.68-2.63,2.84,2.84,0,0,0-2.67,2.7A2.6,2.6,0,0,0,300.37,308.36Zm134.39,41.86a2.71,2.71,0,0,0-2.54,2.79,2.84,2.84,0,0,0,2.68,2.69,2.74,2.74,0,0,0-.14-5.48Zm-94.24-10.41a2.76,2.76,0,0,0,2.9-2.66,2.55,2.55,0,0,0-2.36-2.73,2.76,2.76,0,0,0-3,2.54A2.65,2.65,0,0,0,340.52,339.81Zm41.57,70.57a2.64,2.64,0,1,0,2.67,2.63A2.67,2.67,0,0,0,382.09,410.38Zm-87.59.06a2.53,2.53,0,0,0-2.55,2.69,2.65,2.65,0,0,0,2.63,2.67,2.72,2.72,0,0,0,2.73-2.61A2.81,2.81,0,0,0,294.5,410.44Zm20.56-203.75a2.48,2.48,0,0,0,2.47,2.59,2.71,2.71,0,0,0,3-2.57,2.65,2.65,0,0,0-2.57-2.72A2.74,2.74,0,0,0,315.06,206.69Zm2,82.38a2.7,2.7,0,0,0-2.62-2.7,2.87,2.87,0,0,0-2.78,2.8,2.46,2.46,0,0,0,2.52,2.54A2.73,2.73,0,0,0,317.05,289.07ZM220.74,406.6a2.7,2.7,0,0,0,2.57-2.75,2.79,2.79,0,0,0-2.88-2.68,2.72,2.72,0,0,0,.31,5.43Zm256.79.45a2.77,2.77,0,0,0,2.64-2.9,2.61,2.61,0,0,0-2.8-2.46,2.65,2.65,0,0,0-2.51,2.78A2.56,2.56,0,0,0,477.53,407.05ZM544,423.55a2.7,2.7,0,0,0,2.55-2.77,2.61,2.61,0,0,0-2.6-2.67,2.82,2.82,0,0,0-2.7,2.86A2.74,2.74,0,0,0,544,423.55ZM406.3,462.13a2.71,2.71,0,0,0-5.41.11,2.57,2.57,0,0,0,2.63,2.64A2.72,2.72,0,0,0,406.3,462.13Zm93.5,27.07a2.62,2.62,0,0,0-2.65-2.64,2.84,2.84,0,0,0-2.72,2.86A2.79,2.79,0,0,0,497.2,492,2.93,2.93,0,0,0,499.8,489.2ZM411.93,527a2.61,2.61,0,0,0-2.81,2.46,2.73,2.73,0,0,0,2.51,2.82,2.8,2.8,0,0,0,2.92-2.64A2.56,2.56,0,0,0,411.93,527Zm-14.72,4a2.62,2.62,0,0,0,2.68,2.6,2.58,2.58,0,0,0,2.77-2.5,2.8,2.8,0,0,0-2.56-2.79A2.84,2.84,0,0,0,397.21,531.05ZM354.62,196a2.52,2.52,0,0,0-2.67-2.58,2.64,2.64,0,1,0,.08,5.28A2.62,2.62,0,0,0,354.62,196Zm-45,15.85a2.6,2.6,0,0,0-2.51-2.74,2.69,2.69,0,0,0-2.82,2.68,2.38,2.38,0,0,0,2.41,2.59A2.62,2.62,0,0,0,309.65,211.85Zm-29.83,19.63a2.65,2.65,0,0,0-2.67-2.62,2.81,2.81,0,0,0-2.72,2.84,2.64,2.64,0,0,0,2.77,2.52A2.82,2.82,0,0,0,279.82,231.48ZM372,258.79a2.68,2.68,0,0,0-2.68,2.79,2.59,2.59,0,0,0,2.77,2.46,2.67,2.67,0,0,0,2.7-2.76A2.7,2.7,0,0,0,372,258.79Zm31.44,58.74a2.57,2.57,0,0,0,2.55-2.7,2.66,2.66,0,0,0-2.86-2.62,2.53,2.53,0,0,0-2.45,2.78A2.67,2.67,0,0,0,403.41,317.53ZM547.77,312A2.57,2.57,0,0,0,545,314.5a2.78,2.78,0,0,0,2.56,3,2.63,2.63,0,0,0,2.69-2.6A2.58,2.58,0,0,0,547.77,312ZM412.48,322.22a2.63,2.63,0,0,0,2.72-2.56,2.79,2.79,0,0,0-2.76-2.78,2.58,2.58,0,0,0-2.6,2.66A2.72,2.72,0,0,0,412.48,322.22ZM286.9,337.85a2.71,2.71,0,0,0,2.63-2.9,2.56,2.56,0,0,0-2.72-2.55,2.73,2.73,0,0,0,.09,5.45Zm44.88,18.89a2.54,2.54,0,0,0,2.69,2.56,2.62,2.62,0,0,0,2.57-2.72,2.63,2.63,0,1,0-5.26.16Zm2.55,12.92A2.71,2.71,0,0,0,337,367a2.73,2.73,0,0,0-2.57-2.77,2.74,2.74,0,0,0-.05,5.47Zm171.24,114a2.71,2.71,0,1,0,.36-5.4,2.87,2.87,0,0,0-2.81,2.78A2.48,2.48,0,0,0,505.57,483.65Zm49.77-97.58a2.63,2.63,0,1,0-5.25,0,2.61,2.61,0,0,0,2.53,2.71A2.68,2.68,0,0,0,555.34,386.07Zm-4.67-62.4a2.55,2.55,0,0,0-2.79,2.64,2.59,2.59,0,0,0,2.59,2.66,2.48,2.48,0,0,0,2.66-2.54A2.55,2.55,0,0,0,550.67,323.67ZM352.48,531.2a2.5,2.5,0,0,0,2.51-2.72,2.64,2.64,0,0,0-2.74-2.56,2.64,2.64,0,1,0,.23,5.28ZM257.3,476.86a2.86,2.86,0,0,0,2.79,2.59,2.67,2.67,0,0,0,2.6-2.72A2.93,2.93,0,0,0,259.8,474,2.78,2.78,0,0,0,257.3,476.86ZM329,199.65a2.61,2.61,0,0,0-2.7,2.77,2.4,2.4,0,0,0,2.47,2.55,2.71,2.71,0,0,0,2.86-2.66A2.65,2.65,0,0,0,329,199.65Zm161.41,28a2.71,2.71,0,0,0-2.76-2.76,2.42,2.42,0,0,0-2.58,2.44,2.65,2.65,0,0,0,2.62,2.86A2.6,2.6,0,0,0,490.39,227.66ZM478.22,501.14a2.62,2.62,0,0,0-2.76,2.55,2.58,2.58,0,0,0,2.54,2.73,2.79,2.79,0,0,0,2.89-2.67A2.58,2.58,0,0,0,478.22,501.14ZM232.84,284.67a2.89,2.89,0,0,0-2.67,2.91A2.54,2.54,0,0,0,233,290a2.66,2.66,0,0,0-.17-5.31ZM399.69,410a2.52,2.52,0,0,0,2.55,2.68,2.68,2.68,0,0,0,2.85-2.65,2.63,2.63,0,0,0-2.67-2.61A2.7,2.7,0,0,0,399.69,410ZM536.63,281.65a2.73,2.73,0,0,0-2.82-2.7,2.58,2.58,0,0,0-2.47,2.79,2.67,2.67,0,0,0,2.71,2.59A2.58,2.58,0,0,0,536.63,281.65ZM213.81,344.49a2.53,2.53,0,0,0,2.44,2.79,2.73,2.73,0,0,0,2.81-2.72,2.63,2.63,0,0,0-2.63-2.66A2.46,2.46,0,0,0,213.81,344.49Zm63.64,146.05a2.65,2.65,0,0,0-2.81,2.48,2.85,2.85,0,0,0,2.69,2.89,2.66,2.66,0,0,0,2.7-2.61A2.78,2.78,0,0,0,277.45,490.54Zm272.83-81.17a2.5,2.5,0,0,0-2.63-2.61,2.8,2.8,0,0,0-2.64,2.72,2.74,2.74,0,0,0,2.61,2.72A2.66,2.66,0,0,0,550.28,409.37ZM318.06,520.65a2.66,2.66,0,0,0,2.76-2.55,2.84,2.84,0,0,0-2.81-2.77,2.66,2.66,0,1,0,.05,5.32Zm93.45-112.44a2.91,2.91,0,0,0,2.87-2.69,2.82,2.82,0,0,0-2.59-2.73,2.94,2.94,0,0,0-2.86,2.71A2.73,2.73,0,0,0,411.51,408.21Zm26.87-45.91a2.65,2.65,0,0,0-5.29-.06,2.65,2.65,0,1,0,5.29.06ZM241.16,276.88a2.54,2.54,0,0,0-2.5-2.74,2.76,2.76,0,0,0-2.79,2.75,2.62,2.62,0,0,0,2.63,2.65A2.71,2.71,0,0,0,241.16,276.88Zm205.17,246a3,3,0,0,0,2.84-2.74,2.76,2.76,0,0,0-5.52.1A2.77,2.77,0,0,0,446.33,522.91ZM310,513.07a2.8,2.8,0,0,0-2.69-2.86,2.67,2.67,0,0,0-.1,5.33A2.59,2.59,0,0,0,310,513.07Zm-41.56-30.48a2.66,2.66,0,0,0-2.71,2.59,2.82,2.82,0,0,0,2.57,2.8,2.63,2.63,0,0,0,2.8-2.49A2.82,2.82,0,0,0,268.41,482.59ZM417.2,399.46a2.41,2.41,0,0,0,2.58,2.44,2.65,2.65,0,0,0,2.69-2.79,2.44,2.44,0,0,0-2.68-2.52A2.6,2.6,0,0,0,417.2,399.46Zm-24.42,66.8a2.63,2.63,0,1,0,.16-5.26,2.72,2.72,0,0,0-2.87,2.65A2.69,2.69,0,0,0,392.78,466.26ZM333.94,346.67a2.49,2.49,0,0,0,2.5,2.57,2.71,2.71,0,0,0,2.79-2.73,2.67,2.67,0,0,0-2.62-2.69A2.71,2.71,0,0,0,333.94,346.67Zm219.22,51.14a2.57,2.57,0,0,0-2.55-2.7,2.83,2.83,0,0,0-2.69,2.88,2.73,2.73,0,0,0,2.75,2.59A2.56,2.56,0,0,0,553.16,397.81ZM457.44,294a2.77,2.77,0,0,0,2.76,2.59,2.65,2.65,0,0,0,2.6-2.7,2.86,2.86,0,0,0-2.88-2.69A2.61,2.61,0,0,0,457.44,294ZM293,325.09a2.68,2.68,0,0,0-2.45-3,2.78,2.78,0,0,0-2.8,2.55,2.68,2.68,0,0,0,2.37,2.92A2.73,2.73,0,0,0,293,325.09Zm187.56-4a2.87,2.87,0,0,0-2.5-2.87,2.62,2.62,0,0,0-2.86,2.4,2.69,2.69,0,1,0,5.36.47ZM284.17,500.38a2.78,2.78,0,0,0,2.77,2.78,2.61,2.61,0,0,0,2.59-2.68,2.78,2.78,0,0,0-2.67-2.68A2.6,2.6,0,0,0,284.17,500.38Zm105.46-88a2.6,2.6,0,0,0,2.51,2.76,2.65,2.65,0,0,0,2.95-2.54,2.71,2.71,0,0,0-2.62-2.71A2.76,2.76,0,0,0,389.63,412.4Zm83.09-103.81a2.51,2.51,0,0,0-2.46,2.62A2.74,2.74,0,0,0,473,314a2.64,2.64,0,0,0,2.57-2.73A2.72,2.72,0,0,0,472.72,308.59ZM460.07,515.48a2.72,2.72,0,0,0-2.65-2.68,2.86,2.86,0,0,0-2.78,2.59,2.72,2.72,0,0,0,2.54,2.78A2.87,2.87,0,0,0,460.07,515.48Zm21.57-187.12a2.63,2.63,0,0,0-2.58,2.7,2.59,2.59,0,0,0,2.62,2.64,2.55,2.55,0,0,0,2.7-2.55A2.76,2.76,0,0,0,481.64,328.36ZM416.83,459.75a2.58,2.58,0,0,0-2.58-2.69,2.7,2.7,0,0,0-2.85,2.46,2.66,2.66,0,0,0,2.48,2.81A2.77,2.77,0,0,0,416.83,459.75Zm55.67-48.46a2.69,2.69,0,0,0-2.67,2.85,2.47,2.47,0,0,0,2.52,2.53,2.67,2.67,0,0,0,2.76-2.74A2.56,2.56,0,0,0,472.5,411.29ZM215.65,371.1a2.61,2.61,0,0,0,2.59-2.69,2.73,2.73,0,0,0-2.61-2.71,2.58,2.58,0,0,0-2.62,2.83A2.46,2.46,0,0,0,215.65,371.1ZM252,470.33a2.58,2.58,0,0,0,2.9-2.32,2.68,2.68,0,0,0-2.51-3,2.42,2.42,0,0,0-2.77,2.21A2.69,2.69,0,0,0,252,470.33ZM505.64,240.66a2.61,2.61,0,0,0-2.73,2.55,2.87,2.87,0,0,0,2.73,2.84,2.53,2.53,0,0,0,2.58-2.66A2.6,2.6,0,0,0,505.64,240.66ZM213,356.58a2.41,2.41,0,0,0,2.64,2.54,2.58,2.58,0,0,0,2.59-2.66,2.63,2.63,0,0,0-2.81-2.66A2.48,2.48,0,0,0,213,356.58ZM463.82,423a2.63,2.63,0,0,0,2.56,2.73,2.81,2.81,0,0,0,2.74-2.81,2.62,2.62,0,0,0-2.67-2.62A2.74,2.74,0,0,0,463.82,423ZM380.14,260.72a2.68,2.68,0,0,0,5.35-.07,2.68,2.68,0,1,0-5.35.07Zm76.8-54.5a2.66,2.66,0,1,0,.15,5.32A2.68,2.68,0,0,0,459.8,209,2.87,2.87,0,0,0,456.94,206.22Zm-31.05-9.09a2.65,2.65,0,0,0-2.93-2.56,2.46,2.46,0,0,0-2.47,2.59,2.73,2.73,0,0,0,2.82,2.72A2.7,2.7,0,0,0,425.89,197.13ZM368.5,462.82a2.72,2.72,0,0,0,5.43.29,2.71,2.71,0,0,0-2.59-2.73A2.63,2.63,0,0,0,368.5,462.82Zm-106-215a2.48,2.48,0,0,0-2.57-2.49,2.72,2.72,0,0,0-2.73,2.8,2.6,2.6,0,0,0,2.67,2.59A2.75,2.75,0,0,0,262.46,247.79Zm294.12,126.3a2.63,2.63,0,0,0-2.68-2.61,2.59,2.59,0,0,0-2.55,2.73,2.56,2.56,0,0,0,2.56,2.69A2.62,2.62,0,0,0,556.58,374.09ZM481.83,341.5a2.71,2.71,0,0,0,2.54,2.77,2.7,2.7,0,1,0-2.54-2.77ZM354.3,319a2.72,2.72,0,0,0-2.7,2.83,2.51,2.51,0,0,0,2.6,2.48,2.79,2.79,0,0,0,2.81-2.74A2.63,2.63,0,0,0,354.3,319Zm-83.44-79.56a2.6,2.6,0,0,0-2.57-2.7,2.71,2.71,0,0,0-2.76,2.75,2.44,2.44,0,0,0,2.45,2.58A2.7,2.7,0,0,0,270.86,239.48Zm206.92-21.41a2.25,2.25,0,0,0-2.46,2.46,2.66,2.66,0,1,0,5.31.14A2.61,2.61,0,0,0,477.78,218.07ZM372.12,414a2.4,2.4,0,0,0,2.44-2.58,2.75,2.75,0,0,0-2.83-2.71,2.62,2.62,0,0,0-2.51,2.76A2.54,2.54,0,0,0,372.12,414Zm179.22-63.87a2.56,2.56,0,0,0,2.69,2.57,2.65,2.65,0,0,0,2.54-2.75,2.69,2.69,0,0,0-2.64-2.67A2.56,2.56,0,0,0,551.34,350.14ZM228,295.62a2.6,2.6,0,0,0-2.67,2.6,2.52,2.52,0,0,0,2.46,2.76,2.67,2.67,0,0,0,2.8-2.7A2.56,2.56,0,0,0,228,295.62Zm215.35-91.33a2.72,2.72,0,0,0,5.43-.09,2.88,2.88,0,0,0-2.9-2.68A2.67,2.67,0,0,0,443.37,204.29ZM466.84,304.9a2.49,2.49,0,0,0,2.76-2.45A2.64,2.64,0,0,0,467,299.6a2.49,2.49,0,0,0-2.67,2.55A2.57,2.57,0,0,0,466.84,304.9Zm-159.92-5.2a2.82,2.82,0,0,0,2.74-2.8,2.45,2.45,0,0,0-2.73-2.46,2.63,2.63,0,0,0,0,5.26ZM435.33,521.53a2.63,2.63,0,0,0-2.92,2.55,2.44,2.44,0,0,0,2.34,2.68,2.62,2.62,0,0,0,3-2.43A2.57,2.57,0,0,0,435.33,521.53ZM552.57,335.4a2.6,2.6,0,0,0-2.51,2.76,2.64,2.64,0,0,0,2.59,2.71,2.74,2.74,0,0,0-.08-5.47ZM432.05,372.52a2.63,2.63,0,1,0,5.26.06,2.46,2.46,0,0,0-2.58-2.63A2.59,2.59,0,0,0,432.05,372.52Zm2.56-169.59a2.55,2.55,0,0,0,2.77-2.45,2.58,2.58,0,0,0-2.64-2.81,2.53,2.53,0,0,0-2.69,2.54A2.65,2.65,0,0,0,434.61,202.93Zm104.92,86.75a2.59,2.59,0,0,0-2.89,2.35,2.74,2.74,0,0,0,2.51,3,2.66,2.66,0,0,0,2.82-2.46A2.79,2.79,0,0,0,539.53,289.68Zm-71.89-78a2.61,2.61,0,0,0-2.6,2.66,2.55,2.55,0,0,0,2.61,2.64,2.58,2.58,0,0,0,2.74-2.51A2.79,2.79,0,0,0,467.64,211.72ZM220.77,392.21a2.77,2.77,0,0,0-2.61-2.73,2.7,2.7,0,0,0-.2,5.4A2.63,2.63,0,0,0,220.77,392.21Zm-2.9-71a2.59,2.59,0,0,0,2.55,2.56,2.65,2.65,0,0,0,2.74-2.77,2.73,2.73,0,0,0-2.63-2.69A2.81,2.81,0,0,0,217.87,321.16Zm76.3,185.91a2.68,2.68,0,0,0,2.88,2.62,2.43,2.43,0,0,0,2.45-2.58,2.69,2.69,0,0,0-2.76-2.74A2.6,2.6,0,0,0,294.17,507.07ZM420.86,527a2.6,2.6,0,0,0,2.35,2.89,2.69,2.69,0,0,0,3.05-2.43,2.64,2.64,0,0,0-2.46-2.83A2.79,2.79,0,0,0,420.86,527Zm123-226.26a2.62,2.62,0,0,0-2.71,2.55,2.78,2.78,0,0,0,2.74,2.8,2.68,2.68,0,0,0,0-5.35ZM588.1,434.53c-1.52,0-2.11,1.11-2.17,2.52s.83,2.25,2,2c.92-.16,1.69-1.13,2.53-1.73C590.12,435.51,589.57,434.49,588.1,434.53Zm-405.26,4.61c1.24,0,2.13-.59,2.1-2.42a2.11,2.11,0,0,0-2.1-2.19c-1.45-.08-2.07.89-2.09,2.28A2,2,0,0,0,182.84,439.14Zm1.27-13.93a2.49,2.49,0,0,0-2.38-.22,3.54,3.54,0,0,0-.69,2.75c.4,1.56,1.79,1.45,3.21,1.08A2.45,2.45,0,0,0,184.11,425.21ZM587.45,309.33a2.43,2.43,0,0,0,.07,3.6,2.48,2.48,0,0,0,2.38.26,3.54,3.54,0,0,0,.75-2.72C590.28,308.9,588.88,309,587.45,309.33ZM184.86,313c1.07-.92,1.23-2.26.2-3.7-1.33-.27-2.74-.53-3.19,1a3.53,3.53,0,0,0,.59,2.78C182.77,313.53,184.34,313.46,184.86,313ZM589.73,425c-.88,0-2.12-.38-2.79.08-1.25.87-1.36,2.29-.39,3.71C589.56,429.34,590.39,428.46,589.73,425Zm-404.9,21.59a2,2,0,0,0-4-.06c-.5,1.44.44,2.31,2,2.7C184.3,448.85,185.29,448,184.83,446.57Zm403.28-1.66a2.75,2.75,0,0,0-2.05,1.56c-.49,1.4.38,2.34,1.93,2.73,1.51-.31,2.49-1.14,2-2.6A2.77,2.77,0,0,0,588.11,444.91ZM439.47,45.38c1.27.4,2.1-.65,2.15-1.93s-.48-2.18-2.39-2.6c-.59.76-1.7,1.58-1.63,2.28A3.28,3.28,0,0,0,439.47,45.38ZM332,702.64a1.91,1.91,0,0,0-1.95,2.24c.06,1.27.76,2.26,2.15,2a7.37,7.37,0,0,0,2.11-1.28C334,703.64,333.5,702.6,332,702.64Zm106.73,0a2,2,0,0,0-2,2.42c.13.8,1.05,1.46,1.36,1.86,2.12,0,2.71-.94,2.71-2.18A1.9,1.9,0,0,0,438.73,702.64Zm-106-657.18c1.5.06,2-1,2.55-2.75A8.19,8.19,0,0,0,333,41.27c-1.37-.31-2.1.65-2.17,1.92A1.9,1.9,0,0,0,332.76,45.46Zm-110,.26.89,0c.53-.78,1.4-1.51,1.51-2.35a1.8,1.8,0,0,0-2.09-2.06c-1.35.06-2.2.93-1.94,2.2C221.31,44.3,222.21,45,222.78,45.72ZM539.11,702.41l-1,0c-.56.8-1.56,1.61-1.55,2.39a2.88,2.88,0,0,0,1.85,2,1.67,1.67,0,0,0,2.13-1.87C540.49,704,539.63,703.23,539.11,702.41ZM588.82,164c.86-.13,1.6-1,2.4-1.61l0-1c-.82-.52-1.68-1.48-2.45-1.42a2.93,2.93,0,0,0-1.9,1.94A1.69,1.69,0,0,0,588.82,164ZM252.48,45.7h.94c.55-.82,1.56-1.66,1.52-2.45s-1.16-1.74-1.95-1.91a1.68,1.68,0,0,0-2,2C251.09,44.21,252,44.93,252.48,45.7Zm9.92,0h1c.55-.81,1.55-1.63,1.52-2.41A2.9,2.9,0,0,0,263,41.35a1.68,1.68,0,0,0-2.11,1.9C261,44.11,261.87,44.88,262.4,45.7Zm10,0,.95,0c.52-.82,1.49-1.67,1.44-2.46a2.88,2.88,0,0,0-1.94-1.88,1.67,1.67,0,0,0-2,2C271,44.18,271.87,44.92,272.43,45.72Zm9.79,0,.95,0c.57-.8,1.6-1.62,1.58-2.41s-1.1-1.77-1.89-2a1.69,1.69,0,0,0-2.08,2C280.88,44.16,281.71,44.91,282.22,45.69Zm20.08,0,.89,0c.53-.78,1.4-1.52,1.5-2.35a1.8,1.8,0,0,0-2.09-2.06c-1.35.07-2.2.94-1.94,2.2C300.82,44.31,301.72,45,302.3,45.72Zm148.09,0c.54-.77,1.41-1.48,1.54-2.31a1.69,1.69,0,0,0-2-2,2.9,2.9,0,0,0-2,1.89c0,.79.94,1.64,1.48,2.47Zm8.93,0,.9,0c.57-.73,1.48-1.4,1.65-2.22.26-1.27-.58-2.15-1.93-2.22a1.8,1.8,0,0,0-2.1,2C457.93,44.16,458.8,44.9,459.32,45.69Zm19.9,0,.89,0c.57-.75,1.47-1.43,1.63-2.25.26-1.26-.59-2.14-1.94-2.2a1.8,1.8,0,0,0-2.09,2.06C477.82,44.17,478.69,44.91,479.22,45.69Zm11,0c.53-.81,1.41-1.59,1.5-2.45a1.67,1.67,0,0,0-2.11-1.9,2.9,2.9,0,0,0-1.87,1.95c0,.78,1,1.6,1.53,2.41Zm9.95,0c.52-.82,1.39-1.59,1.49-2.45a1.67,1.67,0,0,0-2.11-1.9,2.87,2.87,0,0,0-1.86,1.95c0,.78,1,1.6,1.52,2.41Zm9.94,0c.52-.78,1.38-1.5,1.5-2.34a1.69,1.69,0,0,0-2.05-2c-.79.18-1.9,1.23-1.93,1.93s1,1.62,1.53,2.43Zm28.75,0,.9,0c.58-.74,1.48-1.41,1.66-2.23.27-1.26-.58-2.14-1.93-2.22a1.79,1.79,0,0,0-2.1,2C537.44,44.15,538.31,44.9,538.82,45.68ZM183.6,84.52a1.69,1.69,0,0,0,2-2c-.15-.87-1-1.62-1.58-2.43l-.93,0c-.51.83-1.46,1.69-1.4,2.48A2.86,2.86,0,0,0,183.6,84.52Zm403.25-2.1a1.68,1.68,0,0,0,1.91,2.11c.86-.1,1.63-1,2.44-1.53V82c-.81-.54-1.64-1.53-2.42-1.49A2.89,2.89,0,0,0,586.85,82.42Zm1.87,8a2.93,2.93,0,0,0-1.88,2,1.68,1.68,0,0,0,2,2c.86-.13,1.6-1.06,2.39-1.63l0-1C590.37,91.37,589.5,90.4,588.72,90.47ZM183.15,100c-.53.83-1.49,1.68-1.44,2.47a2.87,2.87,0,0,0,1.87,2,1.69,1.69,0,0,0,2-2c-.14-.88-1-1.64-1.56-2.45Zm2.47,12.32a2.91,2.91,0,0,0-1.89-2c-.77-.07-1.64.9-2.46,1.42l0,1c.79.57,1.53,1.49,2.39,1.62A1.69,1.69,0,0,0,185.62,112.3Zm403.07,17.93a2.94,2.94,0,0,0-1.85,2,1.7,1.7,0,0,0,2,2c.86-.15,1.58-1.08,2.36-1.66,0-.33,0-.65,0-1C590.35,131.1,589.47,130.15,588.69,130.23ZM181.26,142.66c.82.53,1.6,1.41,2.46,1.5a1.69,1.69,0,0,0,1.9-2.13,2.92,2.92,0,0,0-2-1.86c-.78,0-1.6,1-2.4,1.52C181.25,142,181.26,142.33,181.26,142.66Zm410,158.21c-.76-.6-1.52-1.66-2.29-1.68a2.92,2.92,0,0,0-2.09,1.74,1.7,1.7,0,0,0,1.76,2.25c.87,0,1.71-.87,2.56-1.35Zm-405.61.26a2.89,2.89,0,0,0-1.89-1.94c-.78-.06-1.64.9-2.46,1.42,0,.32,0,.64,0,1,.79.57,1.53,1.49,2.39,1.62A1.69,1.69,0,0,0,185.62,301.13Zm401.22-10a1.69,1.69,0,0,0,1.94,2.09c.86-.1,1.62-1,2.43-1.55v-1c-.81-.53-1.65-1.51-2.43-1.47A3,3,0,0,0,586.84,291.15Zm2-17.78c.86-.13,1.6-1.05,2.4-1.62l0-1c-.82-.52-1.69-1.48-2.46-1.42a2.93,2.93,0,0,0-1.89,1.95A1.69,1.69,0,0,0,588.82,273.37ZM183.11,269c-.51.83-1.45,1.7-1.39,2.49a2.84,2.84,0,0,0,1.89,1.92,1.69,1.69,0,0,0,2-2c-.15-.87-1-1.62-1.6-2.43Zm2.51-7.64a2.91,2.91,0,0,0-2-1.88c-.78,0-1.6,1-2.41,1.51,0,.32,0,.65,0,1,.81.53,1.59,1.42,2.45,1.52A1.69,1.69,0,0,0,185.62,261.31Zm401.23-9.94a1.68,1.68,0,0,0,1.9,2.12c.86-.1,1.64-1,2.45-1.52v-1c-.8-.55-1.63-1.55-2.41-1.52A2.9,2.9,0,0,0,586.85,251.37Zm-403.2,2.11a1.69,1.69,0,0,0,2-2c-.17-.87-1.07-1.6-1.65-2.39l-.92,0c-.49.84-1.42,1.73-1.34,2.52A2.83,2.83,0,0,0,183.65,253.48Zm406.76,202.9c-.82-.54-1.59-1.43-2.46-1.52a1.68,1.68,0,0,0-1.9,2.12,2.88,2.88,0,0,0,2,1.87c.77,0,1.6-1,2.4-1.5Zm-1.62-212.83c.86-.11,1.62-1,2.42-1.57,0-.32,0-.64,0-1-.81-.53-1.66-1.51-2.43-1.46a2.9,2.9,0,0,0-1.93,1.91A1.69,1.69,0,0,0,588.79,243.55Zm-407.51-1.44c.83.51,1.63,1.37,2.5,1.44a1.69,1.69,0,0,0,1.83-2.19,2.88,2.88,0,0,0-2-1.8c-.78,0-1.57,1-2.36,1.58C181.25,241.46,181.26,241.79,181.28,242.11Zm2.45-147.64a1.7,1.7,0,0,0,1.89-2.14,2.88,2.88,0,0,0-2-1.85c-.78,0-1.6,1-2.4,1.52v1C182.08,93.49,182.86,94.38,183.73,94.47Zm-.48,369.93h-.92c-.51.83-1.46,1.7-1.41,2.49a2.84,2.84,0,0,0,1.88,1.93,1.67,1.67,0,0,0,2-2C184.68,466,183.8,465.21,183.25,464.4ZM588,468.79c.78,0,1.62-.93,2.43-1.47v-1c-.8-.55-1.57-1.45-2.43-1.56a1.69,1.69,0,0,0-1.93,2.1A2.89,2.89,0,0,0,588,468.79Zm-405.18,10a1.67,1.67,0,0,0,2-2c-.16-.88-1-1.64-1.59-2.45h-.92c-.51.83-1.46,1.69-1.41,2.49A2.86,2.86,0,0,0,182.8,478.77Zm403.25-2a2.88,2.88,0,0,0,1.85,2c.77.08,1.66-.87,2.49-1.37,0-.32,0-.64,0-1-.78-.58-1.51-1.52-2.37-1.66A1.68,1.68,0,0,0,586.05,476.75Zm-402.88,7.51-.92.05c-.48.85-1.41,1.74-1.33,2.53a2.84,2.84,0,0,0,2,1.87,1.67,1.67,0,0,0,2-2C184.65,485.79,183.75,485.06,183.17,484.26Zm-.23,14.35a2.91,2.91,0,0,0,1.89-1.94,1.7,1.7,0,0,0-2-2.06c-.86.13-1.61,1.05-2.4,1.62,0,.32,0,.64,0,1C181.3,497.71,182.16,498.68,182.94,498.61Zm403.11,8.11a2.9,2.9,0,0,0,2,1.82c.78,0,1.58-1,2.37-1.55,0-.32,0-.65,0-1-.83-.52-1.62-1.39-2.49-1.46A1.69,1.69,0,0,0,586.05,506.72Zm-401.23,9.89a1.68,1.68,0,0,0-1.9-2.12c-.86.1-1.64,1-2.45,1.53,0,.32,0,.64,0,1,.8.55,1.63,1.55,2.41,1.51A2.88,2.88,0,0,0,184.82,516.61ZM588.68,223.67c.87-.06,1.67-.93,2.51-1.44l0-1c-.78-.57-1.58-1.59-2.35-1.58a2.91,2.91,0,0,0-2,1.81A1.69,1.69,0,0,0,588.68,223.67ZM181.27,222.2c.83.52,1.62,1.4,2.48,1.47a1.7,1.7,0,0,0,1.87-2.16,2.91,2.91,0,0,0-2-1.83c-.77,0-1.58,1-2.38,1.55Zm1.57,306.23a2.88,2.88,0,0,0,2-1.84,1.69,1.69,0,0,0-1.87-2.16c-.86.08-1.65,1-2.48,1.48l0,1C181.25,527.44,182.06,528.46,182.84,528.43Zm407.56-2.51c-.82-.53-1.61-1.41-2.47-1.49a1.7,1.7,0,0,0-1.88,2.15,2.91,2.91,0,0,0,2,1.85c.78,0,1.59-1,2.39-1.54Zm-1.69-312.19c.87-.08,1.66-.95,2.48-1.47l0-1c-.8-.56-1.61-1.57-2.39-1.54a2.86,2.86,0,0,0-2,1.83A1.68,1.68,0,0,0,588.71,213.73Zm-2.66,322.76a2.88,2.88,0,0,0,2,1.87c.78,0,1.61-1,2.41-1.5v-1c-.82-.54-1.59-1.44-2.45-1.53A1.69,1.69,0,0,0,586.05,536.49ZM180.48,546.94c.84.5,1.72,1.45,2.5,1.36a2.91,2.91,0,0,0,1.84-2,1.68,1.68,0,0,0-2-2c-.86.14-1.58,1.08-2.36,1.67Zm409.92-1.17c-.83-.52-1.63-1.39-2.5-1.46a1.69,1.69,0,0,0-1.85,2.17,2.91,2.91,0,0,0,2,1.82c.77,0,1.58-1,2.37-1.56ZM183,554.25c-.87.07-1.66,1-2.48,1.47l0,1c.79.56,1.6,1.57,2.38,1.55a2.9,2.9,0,0,0,2-1.83A1.69,1.69,0,0,0,183,554.25Zm403.09,2a2.87,2.87,0,0,0,1.88,2c.78.07,1.64-.9,2.47-1.41l0-1c-.79-.57-1.53-1.5-2.39-1.62A1.68,1.68,0,0,0,586.05,556.29ZM183,564.19c-.86.08-1.65,1-2.48,1.48,0,.32,0,.64,0,1,.8.56,1.61,1.57,2.39,1.55a2.91,2.91,0,0,0,2-1.85A1.68,1.68,0,0,0,183,564.19Zm0,13.93a2.93,2.93,0,0,0,1.9-1.94,1.7,1.7,0,0,0-2-2.06c-.86.13-1.6,1-2.4,1.62,0,.32,0,.64,0,1C181.3,577.22,182.16,578.19,182.93,578.12Zm407.47,7.4c-.83-.51-1.63-1.38-2.49-1.45a1.69,1.69,0,0,0-1.86,2.17,2.9,2.9,0,0,0,2,1.81c.77,0,1.58-1,2.37-1.56ZM182.85,598a1.67,1.67,0,0,0,2-2c-.18-.88-1.07-1.61-1.64-2.42l-.92,0c-.49.85-1.42,1.73-1.36,2.53A2.84,2.84,0,0,0,182.85,598Zm.11,5.9c-.87.08-1.66.95-2.48,1.47l0,1c.79.57,1.6,1.58,2.38,1.56a2.91,2.91,0,0,0,2-1.84A1.69,1.69,0,0,0,183,603.94Zm403.09,12a2.87,2.87,0,0,0,1.92,1.9c.78.06,1.62-.93,2.44-1.46v-1c-.8-.55-1.56-1.46-2.42-1.57A1.68,1.68,0,0,0,586.05,616ZM183,623.82c-.86.08-1.65,1-2.48,1.48,0,.32,0,.64,0,1,.8.57,1.6,1.58,2.38,1.55a2.9,2.9,0,0,0,2-1.83A1.69,1.69,0,0,0,183,623.82Zm403.1,2.08a2.91,2.91,0,0,0,1.91,1.91c.78.06,1.63-.92,2.45-1.45,0-.32,0-.64,0-1-.81-.56-1.56-1.47-2.42-1.58A1.69,1.69,0,0,0,586.05,625.9Zm5.15-514.09c-.81-.53-1.66-1.51-2.44-1.46a2.91,2.91,0,0,0-1.92,1.91,1.69,1.69,0,0,0,1.95,2.09c.86-.12,1.62-1,2.42-1.57C591.21,112.46,591.21,112.13,591.2,111.81Zm-408.32,522c-.86.11-1.62,1-2.42,1.57,0,.32,0,.64,0,1,.81.53,1.66,1.51,2.43,1.46a2.89,2.89,0,0,0,1.92-1.91A1.68,1.68,0,0,0,182.88,633.76Zm403.17,2.15a2.91,2.91,0,0,0,2,1.84c.78,0,1.59-1,2.38-1.55,0-.32,0-.64,0-1-.82-.52-1.62-1.4-2.48-1.48A1.69,1.69,0,0,0,586.05,635.91ZM183,643.7c-.86.06-1.67.93-2.5,1.44l0,1c.78.57,1.58,1.6,2.35,1.59a2.93,2.93,0,0,0,2-1.81A1.7,1.7,0,0,0,183,643.7Zm0,9.94c-.86.09-1.64,1-2.46,1.5,0,.33,0,.65,0,1,.81.55,1.63,1.56,2.4,1.52a2.9,2.9,0,0,0,2-1.86A1.68,1.68,0,0,0,182.93,653.64Zm405,9.94a1.69,1.69,0,0,0-1.87,2.15,2.9,2.9,0,0,0,2,1.83c.78,0,1.59-1,2.38-1.54,0-.32,0-.64,0-1C589.58,664.53,588.79,663.66,587.92,663.58Zm.84-469.72c.86-.1,1.63-1,2.45-1.54v-1c-.81-.54-1.64-1.53-2.42-1.49a2.91,2.91,0,0,0-1.95,1.89A1.69,1.69,0,0,0,588.76,193.86Zm-405.07-4c-.78-.05-1.62.94-2.43,1.48,0,.32,0,.64,0,1,.81.55,1.57,1.45,2.44,1.56a1.69,1.69,0,0,0,1.93-2.1A2.92,2.92,0,0,0,183.69,189.86Zm1.93-8a2.94,2.94,0,0,0-1.85-2c-.78-.07-1.66.88-2.5,1.38l0,1c.78.58,1.51,1.52,2.37,1.66A1.69,1.69,0,0,0,185.62,181.9ZM588.71,174c.86-.08,1.66-.95,2.48-1.47l0-1c-.79-.56-1.6-1.58-2.38-1.56a2.91,2.91,0,0,0-2,1.84A1.69,1.69,0,0,0,588.71,174Zm-405.06,0a1.69,1.69,0,0,0,2-2.05c-.17-.87-1.07-1.6-1.65-2.39l-.92,0c-.49.84-1.42,1.73-1.34,2.51A2.82,2.82,0,0,0,183.65,174ZM590.4,605.41c-.83-.52-1.62-1.39-2.48-1.47a1.7,1.7,0,0,0-1.87,2.16,2.91,2.91,0,0,0,2,1.84c.78,0,1.59-1,2.38-1.56C590.41,606.06,590.4,605.74,590.4,605.41ZM185.62,162a2.89,2.89,0,0,0-1.89-1.94c-.77-.07-1.64.9-2.46,1.41l0,1c.79.57,1.53,1.49,2.39,1.62A1.69,1.69,0,0,0,185.62,162Zm403.17-17.83c.86-.11,1.62-1,2.42-1.57,0-.32,0-.64,0-1-.81-.52-1.66-1.5-2.44-1.45a2.91,2.91,0,0,0-1.92,1.91A1.68,1.68,0,0,0,588.79,144.16ZM221.86,702.4c-.53.77-1.39,1.49-1.51,2.33a1.68,1.68,0,0,0,2,2,2.9,2.9,0,0,0,1.94-1.91c0-.78-1-1.63-1.51-2.44Zm8.38,2.35c0,1.32.83,2.25,2.13,2,.84-.14,1.56-1,2.33-1.53v-.86c-.76-.55-1.46-1.4-2.3-1.58C231.09,702.52,230.25,703.43,230.24,704.75Zm31.82-1.9a2.86,2.86,0,0,0-1.94,1.86,1.67,1.67,0,0,0,1.95,2.06c.88-.14,1.64-1,2.45-1.54v-.92C263.7,703.78,262.86,702.82,262.06,702.85Zm9.59-.46c-.56.79-1.47,1.53-1.6,2.39a1.67,1.67,0,0,0,2,2c.79-.18,1.89-1.18,1.94-1.88s-.91-1.64-1.43-2.47Zm19.82,0c-.54.8-1.43,1.56-1.55,2.42a1.68,1.68,0,0,0,2.08,1.94,2.91,2.91,0,0,0,1.9-1.92c0-.78-.94-1.62-1.47-2.43Zm10,0c-.55.76-1.43,1.46-1.57,2.29a1.68,1.68,0,0,0,2,2.07,2.89,2.89,0,0,0,2-1.87c.06-.78-.93-1.64-1.46-2.47Zm10.25.41c-1.23-.2-2,.78-1.93,2s.87,2.23,2.17,2c.84-.16,1.54-1,2.3-1.58,0-.3,0-.6,0-.9A8.28,8.28,0,0,0,311.68,702.8Zm135.44,1.9a2.85,2.85,0,0,0,1.85,2c.79.08,1.69-.88,2.54-1.38l0-.92c-.75-.56-1.43-1.42-2.26-1.61A1.7,1.7,0,0,0,447.12,704.7Zm12.42-2.3h-1c-.54.81-1.52,1.65-1.48,2.43s1.1,1.73,1.89,1.93a1.67,1.67,0,0,0,2.08-1.93C461,704,460.07,703.21,459.54,702.4Zm27.33,2.32a2.89,2.89,0,0,0,1.86,2c.8.07,1.69-.89,2.54-1.4l0-.92c-.76-.55-1.45-1.41-2.28-1.59A1.7,1.7,0,0,0,486.87,704.72Zm12.43-2.32h-.94c-.55.82-1.55,1.67-1.5,2.45a2.88,2.88,0,0,0,1.95,1.9,1.68,1.68,0,0,0,2-2C500.7,703.88,499.84,703.17,499.3,702.4Zm10,0-1,0c-.56.8-1.57,1.61-1.55,2.39a2.86,2.86,0,0,0,1.84,2,1.67,1.67,0,0,0,2.13-1.87C510.68,704,509.81,703.23,509.3,702.41Zm19.76,0-.95,0c-.53.82-1.5,1.68-1.44,2.46s1.14,1.71,1.93,1.89a1.67,1.67,0,0,0,2-2C530.51,703.93,529.61,703.19,529.06,702.39ZM233.63,45.69c.52-.78,1.39-1.53,1.48-2.36a1.67,1.67,0,0,0-2.07-2,2.94,2.94,0,0,0-1.9,2c0,.78,1,1.6,1.56,2.4Zm8.92,0h.95c.55-.81,1.54-1.64,1.5-2.42a2.87,2.87,0,0,0-1.88-1.93A1.67,1.67,0,0,0,241,43.27C241.13,44.13,242,44.9,242.55,45.7ZM181.26,212.22c.82.53,1.6,1.42,2.46,1.52a1.69,1.69,0,0,0,1.9-2.13,2.9,2.9,0,0,0-2-1.86c-.78,0-1.61,1-2.41,1.5ZM588,518.48c.78.06,1.63-.92,2.44-1.44l0-1c-.81-.55-1.56-1.47-2.42-1.58a1.69,1.69,0,0,0-2,2.08A2.89,2.89,0,0,0,588,518.48ZM549.77,45.71c.54-.76,1.41-1.47,1.55-2.3a1.69,1.69,0,0,0-2-2.06,2.92,2.92,0,0,0-2,1.89c-.05.79.95,1.64,1.49,2.47Zm-30.67,0,1,0c.51-.83,1.46-1.7,1.39-2.47a2.92,2.92,0,0,0-2-1.87,1.66,1.66,0,0,0-2,2C517.6,44.19,518.53,44.93,519.1,45.72Zm-49.79,0,.89,0c.56-.75,1.45-1.43,1.61-2.26.24-1.27-.63-2.13-2-2.18a1.8,1.8,0,0,0-2.07,2.08C467.88,44.19,468.77,44.92,469.31,45.7ZM588.78,263.43c.86-.11,1.62-1,2.43-1.56v-1c-.82-.54-1.66-1.52-2.44-1.47a2.92,2.92,0,0,0-1.93,1.9A1.7,1.7,0,0,0,588.78,263.43ZM586.05,566.2a2.9,2.9,0,0,0,1.85,2c.77.09,1.65-.86,2.49-1.36,0-.33,0-.65,0-1-.78-.58-1.5-1.52-2.36-1.66A1.68,1.68,0,0,0,586.05,566.2Zm3-416.12c-1.21-.33-2.15.46-2.27,1.81a1.84,1.84,0,0,0,1.92,2.22c.83,0,1.63-.82,2.44-1.27l.12-.9C590.52,151.29,589.88,150.31,589,150.08Zm1.35,425.48c-.83-.51-1.64-1.37-2.5-1.43a1.7,1.7,0,0,0-1.84,2.19,2.91,2.91,0,0,0,2,1.8c.78,0,1.57-1,2.36-1.59C590.42,576.21,590.4,575.88,590.39,575.56ZM182.75,588.09a1.66,1.66,0,0,0,2.09-1.92c-.14-.89-1-1.67-1.53-2.49l-.92,0c-.53.82-1.51,1.66-1.48,2.46A2.85,2.85,0,0,0,182.75,588.09Zm403.3-101.37a2.89,2.89,0,0,0,1.88,1.95c.78.07,1.64-.89,2.47-1.41l0-1c-.8-.57-1.54-1.49-2.4-1.62A1.68,1.68,0,0,0,586.05,486.72ZM185.62,152.1a2.92,2.92,0,0,0-1.85-2c-.77-.08-1.65.86-2.49,1.36l0,1c.78.59,1.5,1.53,2.36,1.68A1.69,1.69,0,0,0,185.62,152.1ZM588.06,594a1.69,1.69,0,0,0-2,2,2.92,2.92,0,0,0,1.86,2c.77.07,1.65-.88,2.48-1.38l0-1C589.64,595.07,588.91,594.14,588.06,594ZM183.61,283.31a1.69,1.69,0,0,0,2-2,2.92,2.92,0,0,0-1.85-2c-.78-.08-1.66.87-2.49,1.37,0,.32,0,.64,0,1C182,282.23,182.75,283.17,183.61,283.31ZM322,45.69l.95,0c.57-.81,1.59-1.63,1.57-2.41s-1.11-1.77-1.9-2a1.7,1.7,0,0,0-2.08,2C320.64,44.17,321.48,44.91,322,45.69ZM184.84,616c-.13-.89-1-1.67-1.51-2.5l-.92,0c-.54.82-1.52,1.66-1.49,2.45a2.81,2.81,0,0,0,1.82,2A1.67,1.67,0,0,0,184.84,616ZM313.14,45.69c.52-.79,1.39-1.53,1.49-2.36a1.68,1.68,0,0,0-2.08-2,2.94,2.94,0,0,0-1.9,2c0,.77,1,1.6,1.56,2.4Zm-71.33,656.7c-.55.8-1.45,1.54-1.58,2.41a1.68,1.68,0,0,0,2.05,2,2.92,2.92,0,0,0,1.93-1.89c0-.79-.93-1.64-1.45-2.46Zm10,0c-.57.74-1.46,1.42-1.63,2.24a1.69,1.69,0,0,0,1.93,2.13,2.89,2.89,0,0,0,2-1.81c.08-.78-.88-1.68-1.39-2.52Zm29.73,0c-.54.8-1.43,1.56-1.54,2.42a1.68,1.68,0,0,0,2.07,1.94,2.91,2.91,0,0,0,1.9-1.92c0-.78-.94-1.62-1.47-2.43ZM182.8,454.86c-.85.14-1.57,1.09-2.36,1.67,0,.32,0,.64,0,1,.84.49,1.73,1.43,2.5,1.35a2.89,2.89,0,0,0,1.84-2A1.68,1.68,0,0,0,182.8,454.86Zm405.12,43.75c.78.07,1.65-.89,2.48-1.4,0-.32,0-.64,0-1-.79-.58-1.52-1.5-2.38-1.63a1.68,1.68,0,0,0-2,2A2.92,2.92,0,0,0,587.92,498.61Zm1-219.3a2.91,2.91,0,0,0-2,1.81,1.68,1.68,0,0,0,1.83,2.18c.87-.06,1.67-.92,2.51-1.43l0-1C590.44,280.33,589.65,279.3,588.87,279.31Zm-.12-75.51c.86-.1,1.64-1,2.45-1.53,0-.32,0-.64,0-1-.8-.55-1.63-1.55-2.41-1.51a2.94,2.94,0,0,0-2,1.87A1.7,1.7,0,0,0,588.75,203.8Zm-266.93,499c-1.31-.24-2.15.68-2.13,2s.87,2.23,2.16,2c.84-.16,1.55-1,2.31-1.57v-.87C323.38,703.8,322.66,703,321.82,702.79Zm157.57-.4h-.94c-.53.83-1.53,1.69-1.47,2.48a2.89,2.89,0,0,0,2,1.87,1.7,1.7,0,0,0,2-2.06C480.82,703.86,479.94,703.15,479.39,702.39Zm39.71,0-1,0c-.52.82-1.48,1.68-1.42,2.46a2.9,2.9,0,0,0,1.94,1.88,1.67,1.67,0,0,0,2-2C520.57,703.92,519.66,703.18,519.1,702.39ZM183.61,293.25a1.69,1.69,0,0,0,2-2,2.88,2.88,0,0,0-1.86-2c-.77-.08-1.65.87-2.49,1.37l0,1C182,292.17,182.75,293.11,183.61,293.25Zm0-63.63c-.78,0-1.59,1-2.38,1.54l0,1c.82.52,1.61,1.4,2.48,1.48a1.69,1.69,0,0,0,1.87-2.15A2.91,2.91,0,0,0,183.63,229.62Zm-.57-30.23c-.49.84-1.42,1.72-1.34,2.51a2.86,2.86,0,0,0,1.93,1.89,1.69,1.69,0,0,0,2-2c-.16-.87-1.07-1.6-1.64-2.39ZM529.94,45.7c.52-.77,1.38-1.49,1.5-2.33a1.69,1.69,0,0,0-2-2,2.9,2.9,0,0,0-1.93,1.92c0,.79,1,1.63,1.52,2.44ZM182.88,534.37c-.86.11-1.62,1-2.42,1.58v1c.81.53,1.66,1.51,2.44,1.45a2.87,2.87,0,0,0,1.91-1.91A1.68,1.68,0,0,0,182.88,534.37Zm.23-404.56c-.51.83-1.46,1.69-1.4,2.48a2.85,2.85,0,0,0,1.9,1.92,1.68,1.68,0,0,0,2-2c-.15-.87-1-1.62-1.59-2.42ZM183,504.56c-.87.07-1.67.94-2.49,1.45l0,1c.79.57,1.59,1.58,2.37,1.57a2.92,2.92,0,0,0,2-1.82A1.68,1.68,0,0,0,183,504.56ZM586.05,645.71a2.9,2.9,0,0,0,1.85,2c.77.09,1.65-.86,2.49-1.36,0-.32,0-.65,0-1-.78-.58-1.5-1.52-2.36-1.66A1.68,1.68,0,0,0,586.05,645.71Zm.79-523.52a1.7,1.7,0,0,0,1.94,2.1c.86-.11,1.62-1,2.43-1.56v-1c-.82-.53-1.66-1.52-2.43-1.47A2.92,2.92,0,0,0,586.84,122.19ZM549.07,702.41l-1,0c-.57.81-1.6,1.63-1.57,2.42a2.87,2.87,0,0,0,1.9,2,1.69,1.69,0,0,0,2.08-2C550.42,703.94,549.58,703.2,549.07,702.41ZM588,657.63c.78,0,1.6-1,2.4-1.52l0-1c-.81-.53-1.6-1.41-2.46-1.5a1.69,1.69,0,0,0-1.89,2.13A2.92,2.92,0,0,0,588,657.63Zm-403.2,8a1.68,1.68,0,0,0-2-2c-.86.15-1.58,1.09-2.37,1.67l0,1c.84.49,1.72,1.44,2.5,1.36A2.93,2.93,0,0,0,184.82,665.58ZM292.31,45.72l.89,0c.55-.77,1.44-1.5,1.55-2.32a1.8,1.8,0,0,0-2.05-2.1c-1.35,0-2.22.89-2,2.17C290.87,44.27,291.75,45,292.31,45.72ZM469.42,702.39l-.94,0c-.53.83-1.51,1.71-1.44,2.5a2.9,2.9,0,0,0,2,1.84,1.68,1.68,0,0,0,2-2.09C470.86,703.83,470,703.14,469.42,702.39Zm117.42-470.9a1.69,1.69,0,0,0,1.91,2.12c.86-.09,1.64-1,2.45-1.52v-1c-.8-.54-1.63-1.54-2.41-1.5A2.92,2.92,0,0,0,586.84,231.49ZM185.62,122.17a2.92,2.92,0,0,0-2-1.88c-.77,0-1.61.95-2.42,1.49,0,.32,0,.64,0,1,.81.54,1.58,1.44,2.44,1.54A1.69,1.69,0,0,0,185.62,122.17Zm401.23-19.88a1.69,1.69,0,0,0,1.9,2.12c.86-.1,1.64-1,2.45-1.53,0-.32,0-.64,0-1-.81-.55-1.63-1.54-2.41-1.5A2.86,2.86,0,0,0,586.85,102.29Zm1.92,81.63c.86-.1,1.63-1,2.44-1.55v-1c-.81-.54-1.65-1.53-2.43-1.48a2.9,2.9,0,0,0-1.94,1.89A1.7,1.7,0,0,0,588.77,183.92ZM324.54,428.56c-3,3.32-4,7.38-4.29,12.6a31,31,0,0,0,1.17,4.92c1.56,4,4.92,4.95,8.21,2.12a17.25,17.25,0,0,0,6.07-16.55,6,6,0,0,0-4.56-5.22A6.17,6.17,0,0,0,324.54,428.56Zm7.52,1.08c2.19,3.45,1.59,6.81.6,10.05-1.14,3.73-3,7-7.3,8.37-3.24-2.88-3.09-6.52-2.48-10.12s2-7,5.54-8.9c-.77,2.89-4.59,4.07-4.41,7.71l2.24.13c-.16,2.48-1.68,4.94-.1,7.64,2.89-1.48,2.74-4.41,3.88-6.68l2,1.14C334,435.88,331.36,432.9,332.06,429.64Zm14-33.1c.49-.46,1.31-.87,1.38-1.39s-.55-1.21-1.18-2.41c-.82,1.09-1.61,1.69-1.56,2.21S345.59,396,346.07,396.54Zm-3.56-2.73a8,8,0,0,0,1.39-1.89c.11-.28-.52-1.17-.9-1.23s-1.52.28-1.6.61a6.81,6.81,0,0,0,.26,2.29Zm-7-2.27c0-.45-.91-1.23-1.22-1.14a2,2,0,0,0-1.31,1.3c0,.48.7,1,1.45,2C335,392.64,335.55,392.06,335.5,391.54Zm2.59.67a6.21,6.21,0,0,0,1.42-1.58c-.46-.37-1-1.09-1.37-1-.56.1-1,.77-1.82,1.45C337.16,391.63,337.86,392.34,338.09,392.21Zm-58.64-12.09a25.08,25.08,0,0,0,3.81.91c6-.47,11-2.15,14.52-6.76,2.37-3.11,1.53-6.17-1.94-7.81-5.45-2.57-14.41-.86-18.49,3.53C274.18,373.4,275.19,378.47,279.45,380.12Zm8.28-12.38c3.46-.6,6.84-.46,9.5,2.32-.71,6.75-14.38,10.66-18,6.81,3-.65,6,2.09,9,0l-1-1.91c2.11-1.23,5.06-1.08,6.62-3.83-2.69-1.71-5.15-.17-7.71,0v-2.25c-3.75-.11-5,3.7-8.26,4.78C280.23,369.65,283.85,368.41,287.73,367.74ZM241,380.48c.53-.53,1.28-1,1.51-1.63.11-.33-.69-1-1.42-2-.67,1-1.35,1.59-1.34,2.16S240.51,380,241,380.48Zm-.64,4.47c.52.07,1.15-.66,2.29-1.39-1.14-.69-1.74-1.33-2.3-1.3s-1.41.9-1.34,1.23A2.16,2.16,0,0,0,240.32,385Zm3.92,7.28c.47,0,1-.67,2-1.39-1-.59-1.59-1.19-2.12-1.16s-1.23.9-1.16,1.22A2,2,0,0,0,244.24,392.23Zm-2.65-5.47a1.89,1.89,0,0,0-1.37,1.19c-.05.45.69,1,1.41,1.91.62-.95,1.25-1.49,1.23-2A1.69,1.69,0,0,0,241.59,386.76Zm227-2.95a22.85,22.85,0,0,0,3.87.89c6.17-.46,11.13-2.19,14.6-6.84,2.28-3.06,1.43-6-2-7.67-5.41-2.61-14.41-.93-18.5,3.45C463.43,377.05,464.39,382.15,468.61,383.81Zm6.51-12c4-.91,8.1-1.37,11.31,2-.62,6.82-14.29,10.53-18,6.82,3-.73,6,2.15,9,.05l-1-1.95c2.14-1.26,5.15-1,6.55-3.9-2.62-1.62-5,0-7.53,0-.07-.64-.14-1.3-.23-2.19-3.55-.14-4.73,3.45-7.41,4.43C468,375,471,372.73,475.12,371.79ZM430.28,384.1a2,2,0,0,0,1.41-1.38c.08-.49-.65-1.11-1.37-2.18-.73,1.07-1.47,1.67-1.41,2.18S429.81,384.11,430.28,384.1Zm.69,3.21c0-.44-.82-1.35-1.21-1.32a2.13,2.13,0,0,0-1.57,1.21c-.11.48.6,1.15,1.25,2.24C430.22,388.42,430.93,387.89,431,387.31Zm-1.63,4.29c.46.45.88,1.17,1.39,1.25s1.09-.54,2.11-1.13c-1-.66-1.54-1.32-2-1.28S429.82,391.19,429.34,391.6Zm2.84,3.08c-.08.32.7,1.19,1.13,1.22s1.1-.55,2.11-1.13c-.93-.73-1.48-1.47-1.94-1.42A2,2,0,0,0,432.18,394.68ZM420.65,265.27c-2.71,3.24-3.64,7.11-3.9,12.06a30.44,30.44,0,0,0,.94,4.6c1.49,4.47,5.06,5.56,8.58,2.45a17.33,17.33,0,0,0,6-16,6.17,6.17,0,0,0-4.58-5.63C424.72,261.91,422.47,263.09,420.65,265.27Zm4.09-.14.59.49-4.66,5A8.25,8.25,0,0,1,424.74,265.13Zm3.64,1.33c1.68,1.23,2.14,4.48,1,8.51s-2.87,7.94-7.39,9.31c-3.41-2.44-4-9.49-1.42-13.49,0,.72-.08,1.45-.12,2.25l2.13.2c0,2.48-1.63,4.89,0,7.58,2.81-1.38,2.62-4.35,3.88-6.52l2,1C430.4,272.2,428,269.31,428.38,266.46ZM443.16,233a8.29,8.29,0,0,0,.7-2.24c0-.3-.85-.94-1.25-.89s-1.38.68-1.37,1a6.88,6.88,0,0,0,.85,2.15Zm-4.25-3.26c.6,0,1.17-.72,2.17-1.42-1-.69-1.59-1.45-2-1.35a2.35,2.35,0,0,0-1.42,1.47C437.59,228.79,438.49,229.78,438.91,229.75Zm-8.19-.49c.46.06,1-.65,2-1.34-1-.62-1.59-1.22-2.12-1.19s-1.26.88-1.18,1.19A2.06,2.06,0,0,0,430.72,229.26Zm4-.42a8.74,8.74,0,0,0,1.14-1.88c.08-.26-.56-1.07-.83-1.05-.55,0-1.38.37-1.53.78s.14,1.28.24,1.94Zm-59.39-12.63a32.49,32.49,0,0,0,5,1.33,63.49,63.49,0,0,0,7.08-1.89,13.27,13.27,0,0,0,7.37-6c1.41-2.64.86-4.72-1.59-6.32-5.48-3.57-16.44-1.43-20.19,4A6.08,6.08,0,0,0,375.36,216.21Zm18.36-9.59c-.61,3.5-3.32,5.24-6.32,6.56-3.82,1.68-7.73,2.32-11.63.19,2.9-.87,5.84,1.95,9-.12-.4-.74-.71-1.34-1-2,2.18-1.2,5.17-1,6.47-3.66-1.15-.88-1.15-.88-7.44-.22,0-.61-.07-1.21-.12-2l-1.64-.26C384.69,202.87,391.07,203.52,393.72,206.62Zm-12.89-1.47L375,210A7.08,7.08,0,0,1,380.83,205.15ZM339,215.34a2,2,0,0,0-1.42-1.33,2,2,0,0,0-1.42,1.38c-.06.5.7,1.11,1.44,2.14C338.28,216.47,339,215.86,339,215.34Zm-.75,4.63c0-.54-.67-1.13-1.38-2.18-.74,1-1.53,1.67-1.45,2.15a2.13,2.13,0,0,0,1.51,1.32C337.3,221.31,338.18,220.46,338.21,220Zm1.31,3.61a7.2,7.2,0,0,0-2.14-.4c-.3,0-.72.89-.69,1.35s.7,1,1,.92a7.34,7.34,0,0,0,1.95-.83C339.6,224.28,339.56,223.93,339.52,223.58Zm-.09,3.62a2,2,0,0,0,1.27,1.33c.45.06,1-.66,1.95-1.36-1-.62-1.56-1.23-2.08-1.2S339.36,226.85,339.43,227.2ZM513.55,432.49c-2.84,3.33-3.82,7.31-4.06,12.44a28.52,28.52,0,0,0,1,4.55c1.6,4.38,5,5.34,8.5,2.28a17.31,17.31,0,0,0,5.94-16.2,6.11,6.11,0,0,0-4.74-5.49C517.45,429.34,515.29,430.45,513.55,432.49Zm7.61,1.16c1.86,1.84,2.18,6,.58,10.27-1.32,3.51-3,6.76-7.24,7.77-3.15-2.93-3-6.51-2.39-10.07s2-7.07,5.95-9.36c-1.13,3.31-4.91,4.51-4.86,8.09l2.19.31c0,2.42-1.63,4.84,0,7.55,2.85-1.45,2.68-4.47,3.84-6.68l2,1.14C523.25,439.54,520.59,436.58,521.16,433.65Zm10.35-36.52c.65-.22,1.13-.93,1.69-1.44-.44-.47-.87-1.31-1.32-1.32s-1.17.62-2.16,1.23C530.59,396.37,531.21,397.23,531.51,397.13Zm4.25,3.3a6.89,6.89,0,0,0,.88-2.17c0-.32-.89-1-1.36-1s-1.34.74-1.31,1.08a6.54,6.54,0,0,0,.95,2.1Zm-8.44-4.54c.62-.16,1.11-.79,2-1.48-.89-.59-1.55-1.29-1.81-1.16a3.08,3.08,0,0,0-1.35,1.54C526.07,395,527,396,527.32,395.89Zm-1.83-.48c-1-.68-1.58-1.39-2-1.32a2,2,0,0,0-1.25,1.37c-.06.33.76,1.15,1.22,1.17S524.49,396,525.49,395.41ZM434.9,431.87c-3.07,0-4.72,1.57-4.89,4.54-.37,6.51,6.86,14.95,13.29,15.54A6.16,6.16,0,0,0,450,445C449.25,438.78,441.21,431.81,434.9,431.87ZM447.38,447c-2.14-2.43-1.3-6.39-4.55-8.2l-1.23,1.92c-2.05-1.38-3.46-3.87-6.68-3.89.11,3.33,2.67,4.68,4.05,6.76l-2,1c1.58,3.4,5.57,2.47,8.08,4.9-4.48-.18-7.3-2.41-9.68-5.28s-4.11-5.83-3-9.57C437.84,431.49,448.61,441,447.38,447Zm19.34,31.49a2.31,2.31,0,0,0,1.27,1.6c.49.12,1.19-.58,2.37-1.23-1.09-.79-1.64-1.49-2.23-1.52S466.66,478.22,466.72,478.53Zm4.88-2.95-.73.73a8.75,8.75,0,0,0,1,2.1,1.6,1.6,0,0,0,1.51-.24c.3-.42.45-1.42.18-1.7A5.72,5.72,0,0,0,471.6,475.58Zm3.48-3.21-.7.47a6.6,6.6,0,0,0,.48,2.08,1.52,1.52,0,0,0,1.49.13,1.55,1.55,0,0,0,.44-1.44A6.27,6.27,0,0,0,475.08,472.37Zm2.2-3.47a6.82,6.82,0,0,0-2,.87c0,.26,0,.53,0,.79a5.41,5.41,0,0,0,1.88.79c.35,0,1-.76,1-1.2S477.55,468.87,477.28,468.9ZM342.18,264.49c-3.31,0-5.36,1.95-4.9,5.28a19,19,0,0,0,2.37,6.84c2.32,3.9,5.58,6.94,10.25,7.86a6.1,6.1,0,0,0,7.3-7.17C356.19,271.13,348.35,264.44,342.18,264.49Zm12.38,15.05c-2.15-2.33-1.17-6.36-4.54-8.05-.42.7-.75,1.24-1.13,1.89-2.07-1.32-3.47-3.82-6.54-3.89-.38,3.3,2.5,4.55,3.78,6.72l-2,1.13c1.78,3.21,5.57,2.44,8.16,4.75-4.39,0-7.12-2.28-9.52-5-3.23-3.63-4.2-7.34-2.84-10.13C346.11,264.53,356,274.36,354.56,279.54ZM379,308.14l-.78.68a8.47,8.47,0,0,0,.9,2.18c.18.24,1.28.16,1.52-.13s.55-1.4.29-1.7A5.65,5.65,0,0,0,379,308.14Zm-5,3a2.27,2.27,0,0,0,1.31,1.59c.49.12,1.18-.6,2.34-1.26-1.09-.78-1.66-1.48-2.25-1.5S373.88,310.87,374,311.17ZM384,301.48a2,2,0,0,0-1.12,1.48c-.05.31.85,1.08,1.29,1.05s1-.7,2-1.42C385.1,302,384.46,301.37,384,301.48ZM382.18,305l-.65.51a8.06,8.06,0,0,0,.67,2.1,1.46,1.46,0,0,0,1.36.05c.31-.46.58-1.33.34-1.69S382.77,305.35,382.18,305ZM245.59,428.17c-3.13.08-4.74,1.7-4.82,4.83-.15,6.42,6.79,14.46,13.2,15.27a6.24,6.24,0,0,0,6.89-6.18,5.76,5.76,0,0,0,0-.65C260.16,435.17,251.91,428,245.59,428.17Zm12.6,15.15c-2.16-2.47-1.41-6.3-4.51-8.21-.45.68-.83,1.24-1.28,1.93-2.08-1.17-3.39-4-6.6-3.74-.13,3.13,2.47,4.39,3.81,6.54l-2,1.15c1.88,3.18,5.66,2.63,8.36,4.67-4,.31-6.57-1.64-8.84-4-2.84-3-5.13-6.25-4.07-10.71C247.91,427.85,259.08,436.44,258.19,443.32Zm26.4,30.26c-.25-.64-1-1.08-1.57-1.6-.42.49-1.2,1-1.16,1.46,0,.6.73,1.15,1.44,2.15C284,474.61,284.72,473.92,284.59,473.58Zm-5.16,3.17a5.65,5.65,0,0,0,.81-2c0-.4-.85-1.06-1.34-1.08s-1.42.68-1.38,1a7.25,7.25,0,0,0,.93,2.16Zm7-5.12c.42-.41,1.2-.86,1.17-1.23-.05-.62-.63-1.2-1.24-2.21-.66.93-1.36,1.51-1.26,1.84C285.34,470.64,286,471.11,286.47,471.63Zm2.47-5.39c0-.33-.77-1.14-1.05-1.08a8.49,8.49,0,0,0-2.13,1.25l2.09,1.84A6.75,6.75,0,0,0,288.94,466.24ZM371.6,116.36c0,.3,0,.6,0,.9a12.52,12.52,0,0,0,3.43,1.12c6.87.19,13.75.25,20.63.29,1.26,0,2.7-.13,2.87-1.8.19-1.84-1.29-2-2.62-2.29a5.26,5.26,0,0,1-.82-.49c-1.25-3.93-2.63-8.26-4-12.61a2.33,2.33,0,0,1,.09-1.35c1.49-4.38,3-8.74,4.55-13.19.51-.07.76-.14,1-.15,1.27-.05,2.55-.23,2.48-1.87s-1.42-1.76-2.63-1.77Q386,83,375.41,83.06c-1.18,0-2.45.09-2.89,2l2.06,1.5v27.83Zm19.6-2h-5c.9-2.29,1.7-4.35,2.73-7C389.77,110,390.45,112.08,391.2,114.36ZM392.71,87l-3.55,8.52c-1.09-3.08-2-5.74-3-8.52ZM383,86.73c1.28,4.88,2.52,9.59,3.74,14.32a2.11,2.11,0,0,1,0,1.17c-1.46,4.1-3,8.19-4.48,12.36l-3.85.17c-.27-9.41-.54-18.65-.81-28Z"/></svg>