<svg xmlns="http://www.w3.org/2000/svg" viewBox="0 0 750 750"><path d="M606.11,375V50.72c0-1.12,0-2.25,0-3.38C606,34.39,596.45,25,583.48,25H186.63a21.88,21.88,0,0,0-22,21.91q0,328.16,0,656.31a20.3,20.3,0,0,0,.55,4.72C167.73,718.6,176.32,725,188,725H583.84c7.9-.14,14.17-3.36,18.65-9.93,2.87-4.23,3.64-9,3.64-14Q606.1,538,606.11,375ZM587.24,720.58a22.11,22.11,0,0,1-4.15.29H187.63c-11.39,0-18.93-7.54-18.93-18.91V47.85c0-11.14,7.57-18.74,18.68-18.74H583c11.48,0,19,7.54,19,19.09V701.92C602,711.64,596.3,718.87,587.24,720.58ZM282.5,227.36c-5.08-3.07-9.35-7-11.84-12.49-.69-1.54-2-1.63-3.34-1.41a12.7,12.7,0,0,0-9.89,10c-.28,1.81.2,2.9,2,3.47,6.79,2.16,11.55,6.75,15.21,12.7,3.27,5.3,6.52,10.62,10.07,15.74,3.83,5.53,8.33,10.52,14.48,13.59,2.2,1.1,4.44,1.71,5.6,4.36.84,1.92,1.09,2.39-1,3a20.82,20.82,0,0,1-2.53.35c-.54.08-1.08.24-1.61.37a5.37,5.37,0,0,0,.49,1.8c2.37,3.45,7.85,5,11.76,3.4a3.56,3.56,0,0,1,2,.07,27.42,27.42,0,0,1,3.26,1,3.59,3.59,0,0,1,1.41.9c9,10.5,18,21,29.18,29.42,8.58,6.45,17,13.14,25.56,19.58,3.33,2.49,7,4.56,10.46,6.85a4.44,4.44,0,0,0,4.52.54,102.54,102.54,0,0,0,10.17-4.93,126.34,126.34,0,0,0,21.34-16.48c12.15-11.47,24-23.22,35-35.84.33-.38,1.12-.84,1.4-.69,1.48.78,2.46.15,3.53-.82,1.4-1.27,2.25-1.08,3,.66.53,1.2.73,2.56,1.29,3.74a2.73,2.73,0,0,0,1.65,1.46,2.42,2.42,0,0,0,1.89-1c2.23-3.61,3.29-7.36,1.12-11.46a3,3,0,0,1,.09-2.11,4.75,4.75,0,0,1,4.09-3.2,8.89,8.89,0,0,0,2.72-1.17c5.36-2.8,9.65-6.9,13.87-11.16,5.31-5.36,8.69-12,12.75-18.18,3.4-5.19,7.41-9.67,13.32-12.09,1.59-.65,1.54-2,1.35-3.35-.64-4.66-5-9.1-9.63-10-1.88-.37-3,.12-3.65,2-2.27,6.6-6.9,11.14-12.79,14.63s-12.05,7-17.8,10.87c-5.18,3.5-9.81,7.73-12.66,13.47-1,2-1.56,3.88-4,4.87s-2.94,1.07-3.43-1.57c-.12-.63,0-1.31-.07-2a2.67,2.67,0,0,0-.46-1.53c-.22-.2-1,0-1.42.24-3.39,1.88-5.62,7.75-4.12,11.33.6,1.43.19,2.22-.55,3.35a14.51,14.51,0,0,0-1.17,3.55c0,.1-.21.16-.31.24-10.88,8.78-21.72,17.59-30.47,28.66-4.19,5.3-8.82,10.25-13,15.58-4.68,6-9,12.26-13.52,18.42a5.74,5.74,0,0,0-.52,1.27l-.62-.47-.69-1.49c2.59-.08,2.91-2.18,3.53-3.82a85.94,85.94,0,0,0,5.3-25,436.89,436.89,0,0,0-.06-58.79c0-.49.23-1.36.54-1.45,1.66-.49,1.82-1.72,1.82-3.12,0-1.64.91-2.17,2.34-1.63,1.23.47,2.37,1.18,3.56,1.74,1.83.87,3.35,0,3-1.81-.73-3.79-2.31-7.16-6.22-8.58-1.69-.62-2.81-1.36-2.72-3.24a10.91,10.91,0,0,1,.45-2.91c.54-1.69,1.41-3.29,1.88-5,2.26-8.36,1.92-16.83.59-25.25-.82-5.15-2.31-10.2-3.33-15.32a24.69,24.69,0,0,1,1.28-14.63c.61-1.44.06-2.4-1-3.28-3.79-3.12-10.33-3.21-14.33-.29a2.46,2.46,0,0,0-.9,3.56c3.17,6.41,3,13,1.24,19.77-1.69,6.53-3.55,13.06-4.74,19.69-1.28,7.08-1.67,14.25,1.8,21a2.2,2.2,0,0,1,0,1.43c-.18.69-.58,1.34-.71,2-.4,2.19-1,2.54-3,1.35a23.63,23.63,0,0,1-1.8-1.54c-.43-.33-.92-.6-1.38-.9a5.69,5.69,0,0,0-.87,1.46c-.95,4.11,1.67,9.16,5.52,10.89a3,3,0,0,1,1.23,1.27,27.78,27.78,0,0,1,1.55,3.26,3.6,3.6,0,0,1,.28,1.65c-1.37,13.51-2.89,27-1.24,40.62,1.38,11.44,2.45,22.91,3.77,34.35.4,3.43,1.17,6.81,1.77,10.21a148.27,148.27,0,0,0-21.71-26.89C352,295,340.46,284,328.14,273.86c-.36-.29-.74-1.1-.59-1.41.73-1.45,0-2.34-.9-3.32-1.36-1.43-1.19-2.31.63-3.17,1.13-.54,2.38-.82,3.55-1.29,1.82-.73,2.16-2.49.56-3.47-3.21-2-6.72-3.21-10.35-1.44-1.87.91-3.32,1-4.8-.33a6.51,6.51,0,0,1-1.47-1.91c-.68-1.36-1.08-2.87-1.85-4.17-5.25-8.89-12.87-15.37-21.5-20.79C288.51,230.73,285.44,229.15,282.5,227.36Zm225.19-10.48c2.84.58,6.08,4.64,6.12,7.82a22,22,0,0,0-2.53-3.58,40.55,40.55,0,0,0-4-2.84,4.48,4.48,0,0,1-.79-1.1C506.92,217.07,507.34,216.8,507.69,216.88Zm-6,8.7c1.15-1.83,2.4-3.6,3.85-5.74,1.05.82,2,1.47,2.87,2.25,3,2.76,3,3.67-.19,6.1l-.32.23c-3.07,2.36-4.35,2.08-6.18-1.43A1.66,1.66,0,0,1,501.66,225.58ZM461.29,259c2.85-6.55,7.69-11.42,13.49-15.26,5.52-3.65,11.38-6.77,17-10.22,2.53-1.54,4.92-3.32,7.49-5.08,1,.8,1.5,1.48.05,2.78-4.19,3.75-8.22,7.68-12.32,11.54-.48.46-1,.88-1.51,1.32l-.53-.47c.65-.88,1.31-1.76,2-2.63-2.13-.6-4.72,1.62-4.47,4.24.2,2.18-.61,2.43-2.44,2.33-2.69-.15-4.11,1.44-3.87,4a3.21,3.21,0,0,1-3.68,3.57c-2.34-.3-4.2,1.22-4.46,4.18,1.73-1.86,3.53-3.18,5.13-.7,1.06,1.64-.13,2.84-1.59,3.73l.15.55a8.1,8.1,0,0,0,2.12-.31,3.19,3.19,0,0,0,2.19-3.43,3,3,0,0,1,1.29-3.25,5.8,5.8,0,0,1,2.34-1.08c2.42-.34,4-1.71,4-4.12,0-1.83.61-2.27,2.41-1.93,2.79.52,5.3-1.7,4.8-4.22l-3.13,1.87-.54-.69,14.09-14.31c1.52.56,2,1.08,1,2.59-2.48,3.67-4.77,7.47-7.1,11.24a62.31,62.31,0,0,1-22.43,22c-2.31,1.32-4.37,1.64-6.38-.59a42.33,42.33,0,0,0-4.5-4.17C460.59,261.43,460.69,260.36,461.29,259Zm-12.52,11.3c1.16-1.67,1.72-3.19.91-5.32-.5-1.29,0-3,.07-4.48l.74,0c3,4.31,3.09,4.33,7.23,1.67l9.27,8.69a7.91,7.91,0,0,1-.81,1.15,2.76,2.76,0,0,0-.37,3.88,6.82,6.82,0,0,1,.39,6.82c-.56-.84-.95-1.45-1.37-2.05-1.73-2.48-3.91-2.9-6.5-1.37a1.93,1.93,0,0,1-1.69.11c-2.73-2.29-5.41-4.64-8-7.1C448.32,272,448.43,270.79,448.77,270.29ZM443,278a2.71,2.71,0,0,1,.9,3.6,12.65,12.65,0,0,1-2.09,3.09c-9.32,10.06-19.31,19.44-29.47,28.65-3.57,3.24-6.82,6.84-10.24,10.26a33.22,33.22,0,0,1-4.48,3.86C411.38,309.78,425.17,292.14,443,278Zm-46.26,54.11c6.53-6.2,13.07-12.39,19.55-18.64q13.89-13.38,27.68-26.84a12,12,0,0,0,2.21-3c1.59-3.08,1.16-4.93-1.71-7.32l2.1-1.87a3.76,3.76,0,0,1,.65.41l5.86,6.42c-17.63,19.91-35.43,40.15-58.88,54.28l-.64-.64C394.57,333.93,395.67,333,396.69,332.07Zm-7.83-5.79-.66,0c0-1.36,0-2.72,0-4.09.2-8.87.43-17.73.6-26.6q.36-18.77.63-37.54a12.32,12.32,0,0,0-.52-3.71c-1-3.51-2.45-4.47-6.2-4.32V247.2H392C393.66,273.61,395.23,300.09,388.86,326.28Zm-3.63-161.75c2.43-1.58,7.29-1.06,9.63,1.19a12,12,0,0,0-9.27.2c-.22.1-.64-.23-1-.36C384.82,165.21,384.93,164.72,385.23,164.53Zm8.5,5.34c0,1.51-.44,3-.52,4.53-.07,1.34-.78,1.71-1.93,1.68-.53,0-1-.09-1.58-.08-1.78,0-2.77-.63-2.88-2.61a37.22,37.22,0,0,0-1.05-5.11,10.38,10.38,0,0,1,7-.11A2.16,2.16,0,0,1,393.73,169.87Zm-12.86,37.27c1.33-6.75,3.33-13.37,4.94-20.06.67-2.82,1.11-5.69,1.67-8.63,1,0,2.06-.26,2,1.48-.25,5.82-.41,11.65-.61,17.48,0,.49-.13,1-.19,1.47l-.63,0c-.13-1.06-.27-2.12-.41-3.17-1.92,1-2.27,4.17-.32,6,1.54,1.43,1.56,2.19,0,3.54-2,1.69-1.75,3.8.32,5.54a3.23,3.23,0,0,1-.14,4.88c-2,1.54-2.22,4.19-.47,5.65.58-3,1.35-3.94,3-3.75,1.47.17,2.08,1.37,2,3.88,2.16-.72,2.57-3.52.8-5.38-2-2.11-2.09-3.47-.33-5.92a3.87,3.87,0,0,0-.28-5.25c-1.25-1.24-1.33-2,.27-3a3.84,3.84,0,0,0,.26-6.43,13.44,13.44,0,0,1-.22,2,11.07,11.07,0,0,1-.67,1.6l-.49-.1a13.24,13.24,0,0,1-.19-1.65c0-5.63,0-11.26-.12-16.9,0-1.56.69-1.79,2.09-1.52.35,1.77.66,3.59,1.06,5.38,1.84,8.19,4.32,16.23,4,24.82a68.44,68.44,0,0,1-2.24,15.29c-.6,2.28-1.79,3.73-4.37,3.73a60.68,60.68,0,0,0-6.33.26c-1.76.17-2.46-.75-3-2.18A34,34,0,0,1,380.87,207.14Zm-2.62,31.34c-1.24-.58-2-2.14-3.26-3.53,2.29,0,4.17.52,5.41-.16,1-.57,1.32-2.52,2.05-4.09H394.6c.07.53.19,1.11.21,1.7a2.32,2.32,0,0,0,2.12,2.4,7,7,0,0,1,5.32,4.64l-2.13-.49c-3-.66-5,.6-5.75,3.58-.12.49-.73,1.18-1.17,1.22-3.48.31-7,.54-10.46.62-.46,0-1.28-.93-1.35-1.51A5,5,0,0,0,378.25,238.48Zm4.48,13.82c2.34.09,3.49,1.28,3.72,4a61.16,61.16,0,0,1,.24,6.35c-.23,11.91-.55,23.82-.75,35.73-.08,5.1,0,10.2.07,15.3a19.48,19.48,0,0,1-.41,4.86C383,296.57,380.07,274.61,382.73,252.3ZM260.72,224c-.14-.38-.45-.78-.4-1.13.45-2.79,4.2-6,7.38-6.19a12.54,12.54,0,0,0-6.09,6.79C261.52,223.67,261,223.78,260.72,224Zm7.69,4.08c-1.34-.71-2.58-1.61-3.91-2.33-.94-.51-1.05-1.1-.44-1.9s1-1.37,1.61-2c2.68-3,3.38-3,5.86.07.83,1,1.64,2,2.7,3.36a38.24,38.24,0,0,1-3.78,3.31C270.06,228.8,269,228.36,268.41,228Zm54.77,57.8a2.49,2.49,0,0,1,3.26-1,10.9,10.9,0,0,1,3.34,2.05c9.18,8.86,18.3,17.79,27.46,26.68q6.63,6.42,13.37,12.72a27.63,27.63,0,0,1,3,2.83C368.42,328.36,327.4,292.78,323.18,285.83ZM382,333.16l-.37.41c-.47-.39-1-.74-1.41-1.17-6.77-6.71-13.5-13.45-20.29-20.14Q346,298.52,332,284.86c-.33-.32-.68-.63-1-.92-3.59-2.91-6.27-2.87-9.85.44l-1.73-2c2.09-2.26,4.08-4.43,6.39-6.95C346.46,292.76,367.16,310.09,382,333.16Zm-66.6-71c-.08,0,.1-.05.17,0,1.87,1.72,3.68,2.05,5.95.45,1.54-1.08,3.5-.95,5.77-.1-.88.63-1.49,1-2.08,1.49-2.32,1.74-2.68,4-1.21,6.41a2.22,2.22,0,0,1,.06,2c-2.07,2.65-4.29,5.19-6.46,7.77-.78.93-1.6.7-2.42.06a4.75,4.75,0,0,0-5.14-.76c-1.3.51-3,.07-4.48.06v-.77a23.19,23.19,0,0,0,2.42-2c1.16-1.23,1.65-2.57,0-3.9-1.16-.94-1.12-1.69.05-2.84C310.56,267.57,312.87,264.85,315.37,262.12Zm-4.46-6.88a20.12,20.12,0,0,1,1.74,3.55,2.8,2.8,0,0,1-.24,2.21c-1.88,2.39-3.87,4.69-5.93,6.91a2.14,2.14,0,0,1-1.91.36A37,37,0,0,1,298,265a49.23,49.23,0,0,1-13.16-14.68c-4-6.41-8.35-12.55-12.55-18.81a4.42,4.42,0,0,1-.28-.65c.9-1,1.59-1.4,2.68-.27,3.95,4.1,8,8.11,12,12.15.47.48.9,1,1.35,1.51l-.4.47-2.81-1.82a4.15,4.15,0,0,0,4.54,4.34c2-.17,2.37.54,2.31,2.34-.09,2.8,1.53,4.12,4.28,3.77a3.23,3.23,0,0,1,3.51,3.58,3.65,3.65,0,0,0,4,4.2c-1.44-1.42-2.82-3-.86-4.69,1.64-1.42,3-.31,4.1,1.26,1-2.23-.73-4.39-3.17-4.44-3.15-.08-4.11-.88-4.71-3.91a3.94,3.94,0,0,0-4.19-3.44c-1.71.05-2.23-.47-1.93-2.22a4.08,4.08,0,0,0-4.45-4.88,16.71,16.71,0,0,1,1.19,1.55,2.89,2.89,0,0,1,.43,1.92,5.31,5.31,0,0,1-1.07-.61c-4.37-4.06-8.73-8.12-13-12.24-.33-.32-.25-1.08-.36-1.64.55-.1,1.27-.49,1.63-.27,5.65,3.3,11.48,6.37,16.82,10.14C300.66,242.37,306.66,248,310.91,255.24Zm-51.45,92.59c6.73,2.11,11.45,6.66,15.1,12.53,3.32,5.34,6.58,10.74,10.17,15.9,3.87,5.59,8.42,10.59,14.65,13.69,2.06,1,4.27,1.42,5.33,4.12.84,2.16,1.11,2.69-1.3,3.28a21.64,21.64,0,0,1-2.16.21,15.73,15.73,0,0,0-1.6.42,6.21,6.21,0,0,0,.51,1.79c2.42,3.47,7.86,5,11.77,3.39a3.52,3.52,0,0,1,1.95.07,27.47,27.47,0,0,1,3.26,1,3.61,3.61,0,0,1,1.42.89c9.29,10.9,18.88,21.42,30.2,30.38,10.86,8.6,21.84,17,33.43,24.6,2.83,1.86,5.42,2.14,8.33.65.47-.24,1-.42,1.45-.66a99.36,99.36,0,0,0,23.09-15.71,462.22,462.22,0,0,0,39.78-40.26,1.69,1.69,0,0,1,1.46-.49c1.44.75,2.34,0,3.34-.86,1.44-1.28,2.25-1.12,3,.61.53,1.2.79,2.52,1.26,3.76.66,1.73,2.39,2.17,3.36.75,2.15-3.18,3.55-6.71,1.8-10.46-.88-1.9-.9-3.32.46-4.76a6.94,6.94,0,0,1,1.95-1.41c1.37-.65,2.88-1,4.2-1.76,9.05-5,15.73-12.44,21.36-20.93,1.79-2.7,3.38-5.54,5.11-8.27,3.33-5.25,7.41-9.67,13.3-12.1,1.49-.61,1.53-1.86,1.38-3.16-.55-4.75-5.1-9.43-9.85-10.27-1.71-.3-2.78.15-3.37,1.86-2.32,6.82-7.09,11.5-13.2,15-4.92,2.86-9.86,5.71-14.67,8.76-6.2,3.93-11.82,8.56-15.37,15.19-1.09,2-1.6,4.18-4.26,5.18-2.14.81-2.65,1.07-3.19-1.25a23.56,23.56,0,0,1-.16-2.54c0-.48-.14-1.18-.44-1.34a1.86,1.86,0,0,0-1.45.2c-3.35,1.8-5.63,7.76-4.14,11.32.6,1.44.18,2.23-.54,3.36a15.11,15.11,0,0,0-1.18,3.55c0,.1-.21.15-.32.23-10.8,8.77-21.62,17.51-30.32,28.53-7.1,9-14.39,17.83-21.51,26.8-2.08,2.63-3.86,5.49-6,8.6-.57-1.08-.91-1.71-1.23-2.35a86.56,86.56,0,0,0-13.7-19.69,439.22,439.22,0,0,0-43.68-41.39c-.39-.32-.88-1.12-.74-1.38.81-1.51.1-2.46-.9-3.49-1.3-1.37-1.14-2.24.56-3.06,1.18-.58,2.5-.86,3.72-1.36,1.72-.71,2.1-2.46.63-3.37-3.26-2-6.79-3.31-10.52-1.5-1.77.86-3.2,1.08-4.64-.29a8,8,0,0,1-1.59-2c-.64-1.23-1-2.62-1.67-3.81-5.26-9.06-13-15.62-21.71-21.12-2.91-1.84-6-3.41-8.93-5.2-5.08-3.08-9.34-7-11.81-12.51-.69-1.54-2-1.59-3.36-1.37-4.72.73-9.11,5.28-9.86,10C257.14,346.21,257.67,347.27,259.46,347.83Zm248.17-10.05c2.75.41,6.2,4.72,6.14,7.62a32.82,32.82,0,0,0-3-3.85,27.42,27.42,0,0,0-3.6-2.39,3.61,3.61,0,0,1-.7-1C506.87,338,507.28,337.73,507.63,337.78Zm-6.26,9.31c1.28-2,2.56-4,3.88-5.92.07-.1.37-.09.55-.07,1.28.16,4.88,4.09,5,5.4.06.91-5.45,5.15-6.07,4.59a37.83,37.83,0,0,1-3.28-3.63A.38.38,0,0,1,501.37,347.09Zm-40.21,33.15C464,373.42,469,368.44,475,364.5s12.18-7.24,18.23-10.93c2.08-1.26,4-2.82,6.13-4.36l1.13,1.64L485.57,365l-.53-.39,2-2.82a4.23,4.23,0,0,0-4.6,4.55c.19,2-.54,2.23-2.22,2.13-2.9-.18-4.28,1.36-4,4.23A3.24,3.24,0,0,1,472.5,376c-2.32-.31-4.18,1.21-4.44,3.83,2.71-1.83,3.93-2,4.92-.66,1.41,1.94-.09,3.09-1.47,4.21a3.35,3.35,0,0,0,4.58-3.29c.07-2.85,1.15-4.08,3.92-4.46a3.94,3.94,0,0,0,3.66-4c0-1.76.5-2.34,2.36-2a4,4,0,0,0,4.85-4.37,15.19,15.19,0,0,1-1.56,1.21,13.44,13.44,0,0,1-1.65.71l-.3-.39a9.81,9.81,0,0,1,.84-1.16c4.08-4.16,8.16-8.33,12.31-12.42.39-.38,1.28-.24,1.94-.34,0,.61.14,1.34-.14,1.8-2.4,4-4.9,7.87-7.35,11.79a62.34,62.34,0,0,1-22.42,21.76c-2.19,1.23-4.15,1.46-6.06-.59a62.91,62.91,0,0,0-4.78-4.45A2.29,2.29,0,0,1,461.16,380.24Zm-12.3,10.86c1.1-1.63,1.7-3.12.79-5.13a4.43,4.43,0,0,1,.52-4.49c1.28,1.21,2.29,2.86,3.65,3.24,1.17.31,2.73-.84,4.18-1.37l8.93,8.4c0-.09.05.09,0,.15-1.77,1.8-2.24,3.58-.68,5.92,1.07,1.61,1,3.63-.08,5.79-.55-.84-1-1.49-1.39-2.1-1.64-2.32-3.91-2.74-6.38-1.34a2.1,2.1,0,0,1-1.87.07c-2.68-2.23-5.31-4.54-7.82-7C448.35,392.94,448.49,391.64,448.86,391.1Zm-5.93,7.8a2.47,2.47,0,0,1,1,3.21,11.72,11.72,0,0,1-2.08,3.31c-9.22,10-19.1,19.3-29.16,28.42-3.83,3.46-7.31,7.3-11,11-1.2,1.19-2.44,2.34-3.67,3.5l-.49-.53C411.58,430.48,425.27,413,442.93,398.9Zm-48.21,56q9.75-9.35,19.5-18.68Q429,422,443.8,407.66a12.06,12.06,0,0,0,2.07-2.65c1.86-3.2,1.52-5.24-1.49-8l2.23-2,6.06,7.51c-17.2,19.45-35,39.68-58.48,53.86l-.38-.36A10.33,10.33,0,0,1,394.72,454.88Zm-71.56-48.06a2.42,2.42,0,0,1,3.22-1.11,10.7,10.7,0,0,1,3.35,2c9.29,9,18.51,18,27.78,27,4.33,4.2,8.73,8.31,13.09,12.48a15,15,0,0,1,2.7,3.27C355.45,437.24,337.59,424,323.16,406.82Zm3.6-9.52c3,2.43,6,5,9,7.47a271,271,0,0,1,31.55,30.17c5.08,5.71,9.38,12.12,14,18.22a5.7,5.7,0,0,1,.54,1l-.32.3c-.48-.42-1-.82-1.45-1.27C373,446.15,365.86,439,358.7,432q-13.36-13.17-26.81-26.24A12.07,12.07,0,0,0,329.7,404c-3.42-2.07-5.49-1.8-8.5,1.26l-1.77-2c1.89-2.12,3.65-4.17,5.54-6.09A1.89,1.89,0,0,1,326.76,397.3ZM315.33,383s.2,0,.27,0c1.79,1.74,3.54,2,5.75.5,1.61-1.1,3.61-1.12,5.85-.14-.68.51-1.16.88-1.66,1.23-2.72,1.89-3.12,4-1.47,6.78a2.08,2.08,0,0,1,0,1.87c-2.13,2.69-4.33,5.33-6.66,7.85a2.34,2.34,0,0,1-2.18,0,5.26,5.26,0,0,0-5.19-.72c-1.31.5-3,.07-4.8.05,1.57-1.78,3.16-2.82,3.45-4.14s-.91-2.72-1.46-4.13Zm-26.19-14.91c2.28-.18,2.66.65,2.6,2.67-.08,2.52,1.64,3.8,4.18,3.47a3.24,3.24,0,0,1,3.61,3.48c-.26,2.48,1.16,4.21,4,4.39-1.49-1.61-2.82-3.29-.71-4.92,1.64-1.27,2.91,0,4,1.27.9-2.13-.78-4.28-3.23-4.32-3.12-.06-4.1-.88-4.69-3.93a3.94,3.94,0,0,0-4.21-3.41c-1.71,0-2.19-.54-1.91-2.26a4,4,0,0,0-4.43-4.79,15.32,15.32,0,0,1,1.22,1.53,2.63,2.63,0,0,1,.31,1.92,9.24,9.24,0,0,1-1.21-.83c-4.26-4-8.52-7.95-12.72-12-.37-.36-.29-1.18-.42-1.79.51-.1,1.16-.46,1.49-.27,5.76,3.39,11.71,6.51,17.14,10.37,6.94,4.93,13,10.83,17.31,18.37,1.92,3.37,2,3.69-.38,6.68-1.09,1.41-2.42,2.64-3.46,4.07-1.42,1.94-3,1.64-4.86.78a36.52,36.52,0,0,1-14.71-12.71c-3.7-5.32-6.92-11-10.45-16.41-1.68-2.6-3.58-5.06-5.5-7.77.74-.83,1.38-1.51,2.53-.33,4.16,4.27,8.38,8.47,12.57,12.7.31.32.58.68.87,1l-.32.49-2.82-1.74A3.93,3.93,0,0,0,289.14,368.11Zm-18.8-26.84a31.85,31.85,0,0,0,2.74,3.38,1.65,1.65,0,0,1-.05,2.71c-1,.88-2,1.71-3,2.56-.45-.22-.75-.35-1-.51-1.52-.94-3.08-1.82-4.51-2.87-.39-.28-.7-1.38-.49-1.63a41.43,41.43,0,0,1,4-4.08C268.81,340.11,269.64,340.3,270.34,341.27Zm-9.94,2.24a9.27,9.27,0,0,1,7.13-6.08c-2.64,1.78-4.85,3.85-5.93,6.93-.09.24-.6.34-.91.5C260.58,344.4,260.27,343.87,260.4,343.51Zm258,61.08a12.7,12.7,0,0,0-9.4-10c-2.48-.5-3-.26-3.89,2.13-2.34,6.42-6.83,10.91-12.58,14.35-6,3.6-12.15,7.07-18,11A37.3,37.3,0,0,0,462.12,435c-1.15,2.1-1.48,4.55-4.43,5.55-2.15.73-2.62,1.09-3.16-1.22a20.48,20.48,0,0,1-.19-2.36,15.18,15.18,0,0,0-.33-1.63,5.73,5.73,0,0,0-1.8.44,10.38,10.38,0,0,0-3.69,11.81,3.1,3.1,0,0,1-.13,1.77c-.33,1.15-.74,2.28-1.18,3.4a3.43,3.43,0,0,1-.83,1.24c-2.8,2.34-5.72,4.53-8.42,7-5.67,5.09-11.68,9.9-16.72,15.55-8.29,9.28-16,19.09-23.78,28.8-3.14,3.91-5.87,8.15-9,12.49a9.38,9.38,0,0,1-.73-1c-5.26-10.31-12.37-19.22-20.47-27.44a483.69,483.69,0,0,0-37.6-34.83c-.35-.29-.78-1-.65-1.25.84-1.57.13-2.62-1-3.66-1.32-1.24-.82-2.26.59-2.92,1.19-.56,2.49-.89,3.71-1.38,1.85-.74,2.2-2.49.6-3.47-3.27-2-6.82-3.21-10.54-1.39-1.69.83-3.06,1-4.44-.27a8.31,8.31,0,0,1-1.65-2c-.7-1.34-1.11-2.84-1.85-4.16-4.56-8-11.36-14-18.81-19.1-4.84-3.34-10.11-6.05-15-9.3a22.66,22.66,0,0,1-8.24-9.74,2.87,2.87,0,0,0-3.5-1.81c-4.76.73-9.28,5.37-10,10.15a2.59,2.59,0,0,0,2,3.29c6.95,2.18,11.72,6.94,15.47,13,3.55,5.74,7.09,11.52,11,17,3.47,4.86,7.63,9.2,13.09,11.94,2.29,1.15,4.8,1.66,5.94,4.57.69,1.77,1,2.2-.83,2.83a20.29,20.29,0,0,1-2.72.44c-.59.11-1.17.31-1.76.47a6.44,6.44,0,0,0,.63,1.79,10.4,10.4,0,0,0,11.78,3.29,3.13,3.13,0,0,1,1.79,0,32,32,0,0,1,3.44,1.1,3.62,3.62,0,0,1,1.39,1c9.06,10.57,18.29,20.89,29.29,29.61s21.91,17.12,33.52,24.83c3.6,2.39,6.63,2.48,10.29.65a102.9,102.9,0,0,0,23.27-15.82,463.75,463.75,0,0,0,39.8-40.25c.32-.36,1.13-.74,1.45-.58,1.41.7,2.35.12,3.37-.79,1.49-1.34,2.32-1.16,3.14.69.51,1.14.74,2.4,1.17,3.58.68,1.86,2.46,2.28,3.46.71,2.05-3.23,3.44-6.72,1.68-10.5-.79-1.7-1-3.08.36-4.42a9.61,9.61,0,0,1,2.22-1.66c1.3-.65,2.74-1,4-1.68,5.51-2.83,9.83-7.11,14.12-11.47,5.15-5.23,8.39-11.73,12.35-17.74,3.42-5.18,7.41-9.67,13.3-12.11C518.58,407.29,518.58,406,518.38,404.59Zm-256.17-.08c-.1-.41-.36-.84-.29-1.21.52-2.75,4.18-5.88,7.26-6.06a12.94,12.94,0,0,0-6,6.67C263.11,404.2,262.56,404.31,262.21,404.51Zm7.79,4.11c-1.28-.67-2.45-1.57-3.75-2.23-1.14-.58-1.28-1.3-.48-2.16,1.21-1.29,2.46-2.56,3.79-3.72.81-.7,1.63-.59,2.34.4.87,1.24,1.9,2.37,2.84,3.57.28.35.5.75,1,1.44a38,38,0,0,1-3.67,3.21C271.64,409.4,270.62,409,270,408.62Zm35.27,40c-6.56-2.66-11.57-7.29-15.52-12.93-4.1-5.86-7.65-12.09-11.53-18.09-1.36-2.1-3-4-4.57-6.12.66-.76,1.22-1.81,2.43-.59l13,13.13a7,7,0,0,1,.56.75l-.37.53-2.76-1.88a4,4,0,0,0,4.37,4.35c2.06-.15,2.48.52,2.39,2.43-.12,2.63,1.62,4,4.2,3.71a3.19,3.19,0,0,1,3.59,3.64,3.58,3.58,0,0,0,3.73,4.09c-1.66-2.56-1.83-3.81-.5-4.76,1.83-1.29,3,0,4.16,1.33a3.13,3.13,0,0,0-2.85-4.33c-3.39.14-4.84-1.32-5.35-4.55a3.47,3.47,0,0,0-3.95-2.9c-1.68.08-2.23-.48-1.92-2.24.48-2.72-1.78-5.25-4.29-4.84l1.84,3.12-.47.37a9.89,9.89,0,0,1-1.21-.82c-4.26-4-8.53-7.94-12.74-12a2.44,2.44,0,0,1-.33-1.79,1.77,1.77,0,0,1,1.4-.29c5.7,3.35,11.59,6.46,17,10.26,6.62,4.67,12.52,10.22,16.76,17.29.38.63.74,1.26,1.12,1.88,1.29,2,1.28,3.91-.5,5.73-1.48,1.51-2.85,3.12-4.18,4.77C307.75,449.18,306.67,449.22,305.27,448.65ZM319,460.85a1.94,1.94,0,0,1-1.87.12,5.58,5.58,0,0,0-5.92-.8c-1.16.46-2.71-.06-4.57-.16,4.4-4.24,4.4-4.24,2-7.91l8.5-9.57c1.93,2.56,4.05,1.68,6.49.5,1.38-.67,3.22-.39,4.86-.53l.2.78c-.61.43-1.24.84-1.84,1.29-2.34,1.73-2.7,3.95-1.21,6.39a2.1,2.1,0,0,1,.16,1.87Q322.46,457,319,460.85Zm5.76,5.62a2.69,2.69,0,0,1,3.61-1,11.23,11.23,0,0,1,3.13,2c8.95,8.64,17.85,17.35,26.79,26,4.66,4.51,9.39,9,14.07,13.45a14.13,14.13,0,0,1,2.56,3.17C357,496.94,339.2,483.71,324.71,466.47Zm58.46,47.7c-.64-.56-1.32-1.08-1.92-1.68q-19.81-19.78-39.63-39.57c-2.76-2.76-5.72-5.32-8.6-8a12,12,0,0,0-1.24-1c-3.45-2.37-5.91-2.16-8.86.86l-2.14-1.7,6.56-7.11c20.72,17.37,41.4,34.66,56.19,57.72Zm61.34-55.57a2.5,2.5,0,0,1,1,3.45,12.32,12.32,0,0,1-2.35,3.39c-9.71,9.49-19.5,18.89-29.22,28.37-3.84,3.75-7.54,7.64-11.33,11.44-.91.92-1.92,1.75-2.88,2.63l-.49-.51C413.21,490.13,426.86,472.56,444.51,458.6Zm-49.15,57c.49-.53.95-1.1,1.47-1.59q19.31-18.3,38.6-36.61c3.64-3.47,7.07-7.16,10.6-10.74a9.19,9.19,0,0,0,.64-.76c2.63-3.52,2.52-6-.53-9.17l2.13-2,6,7.08C449.56,471.83,406,512.17,395.36,515.63Zm72.36-52.38c-.51-.77-.89-1.36-1.29-1.94-1.72-2.47-3.9-2.91-6.5-1.44a2.1,2.1,0,0,1-1.86,0q-4-3.36-7.82-7a1.94,1.94,0,0,1,0-1.87,5.48,5.48,0,0,0,.94-5.87c-.44-1.18.1-2.73.2-4.11l.69.05c3.11,4.31,3.15,4.32,7.23,1.63l9.23,8.66s0,.15,0,.21c-1.71,1.73-2.23,3.42-.72,5.72A5.61,5.61,0,0,1,467.72,463.25Zm33.86-45.41c-4.65,7.63-8.86,15.62-15.84,21.47-3.74,3.13-7.79,5.89-11.8,8.69a4.07,4.07,0,0,1-5.85-.62c-1.54-1.63-3.37-3-4.86-4.66a2.9,2.9,0,0,1-.49-2.56,28.82,28.82,0,0,1,3.29-6.09,46.56,46.56,0,0,1,14.71-12.55c5-2.76,9.87-5.69,14.73-8.66,1.85-1.13,3.5-2.59,5.36-4,1.3,1.1,1.29,1.85,0,3-4.15,3.71-8.13,7.6-12.18,11.42-.5.47-1,.92-1.54,1.38l-.54-.45,2-2.78A4.18,4.18,0,0,0,484,425.9c.14,1.82-.34,2.35-2.15,2.23-3-.2-4.33,1.3-4.08,4.35a3.28,3.28,0,0,1-3.66,3.25c-2.37-.33-4.21,1.11-4.51,3.85,1.74-1.32,3.47-2.85,5.15-.37.77,1.13.26,2.24-1.49,4.28a7.65,7.65,0,0,0,2.12-.3,3.25,3.25,0,0,0,2.2-3.44,3,3,0,0,1,1.28-3.25,6,6,0,0,1,2.34-1.1c2.43-.34,4-1.74,4-4.11,0-1.85.61-2.27,2.4-1.93a4,4,0,0,0,4.81-4.39,16.84,16.84,0,0,1-1.55,1.23,12.81,12.81,0,0,1-1.66.72l-.46-.61L502.89,412a10.64,10.64,0,0,1,1,.48,10.31,10.31,0,0,1,.82.77C503.62,414.8,502.53,416.27,501.58,417.84Zm4.62-7.18c-.38.18-1.64-1.66-2.56-2.51-1.44-1.31-.21-2.21.44-3.21s1.4-2.25,2.18-3.32c.26-.36.78-.8,1.16-.78,1.33.07,4.93,4.14,5.25,5.91A56.47,56.47,0,0,1,506.2,410.66Zm9-5.38a11.81,11.81,0,0,0-6.75-6.6c-.2-.08-.23-.63-.33-1,.39-.09.94-.39,1.16-.24a24.22,24.22,0,0,1,4.35,3.31c1,1.11,1.49,2.69,2.21,4.06ZM473.39,330c1.29-.65,2.73-1,4-1.69,8.07-4.35,14.09-10.95,19.44-18.18,2.55-3.45,4.58-7.28,6.88-10.92,3.31-5.24,7.37-9.69,13.26-12.12,1.58-.65,1.6-2,1.42-3.34a12.69,12.69,0,0,0-9.38-10c-2.5-.51-3.05-.27-3.91,2.09-2.37,6.49-6.92,11-12.74,14.46-6,3.55-12.09,6.92-17.79,10.87-6,4.17-11.49,9-13.9,16.38a1.66,1.66,0,0,1-.66.92c-1.37.74-2.77,1.4-4.18,2.09-1.27-1.29-1.6-2.32-1.51-4.43a7.38,7.38,0,0,0-.27-1.65,5.45,5.45,0,0,0-1.81.37c-3.6,2.27-5.27,7.79-3.76,11.8a3.82,3.82,0,0,1-.3,2.08,28.82,28.82,0,0,1-1,2.88,3.94,3.94,0,0,1-.93,1.56c-10.69,8.71-21.21,17.52-30.11,28.2-7.85,9.42-15.81,18.72-22.84,28.78-1.54,2.2-3.1,4.38-4.78,6.77a15.9,15.9,0,0,1-.89-1.34,106.28,106.28,0,0,0-18.48-25.23,482.68,482.68,0,0,0-39.37-36.71c-.38-.32-.81-1.12-.67-1.41.77-1.54,0-2.51-1-3.48-1.28-1.21-.95-2.27.5-2.95,1.19-.57,2.49-.9,3.72-1.38,1.85-.73,2.26-2.47.69-3.46-3.25-2.05-6.82-3.26-10.52-1.44-1.8.88-3.19,1-4.62-.33a7,7,0,0,1-1.51-1.88c-.69-1.35-1.08-2.86-1.85-4.16-5.34-9.09-13.12-15.67-22-21.12-3.5-2.15-7.11-4.11-10.55-6.34a25.35,25.35,0,0,1-9.63-10.85,2.79,2.79,0,0,0-3.38-1.7c-4.64.65-9.19,5.2-10,9.88-.34,1.9.22,3,2.1,3.6,6.79,2.16,11.5,6.81,15.2,12.72s7.23,11.75,11.24,17.34c3.56,5,7.82,9.38,13.47,12.09,2.08,1,4.26,1.42,5.31,4.1.83,2.14,1.15,2.59-1.13,3.23a20.11,20.11,0,0,1-2.35.27,15.7,15.7,0,0,0-1.61.39c.17.6.16,1.36.53,1.77,2.68,3,6,4.8,10,3.89,1.93-.43,3.57-1.11,5.18.52a1.18,1.18,0,0,0,.95.17c1.27-.34,1.87.41,2.62,1.26,4.77,5.41,9.62,10.76,14.43,16.14,6,6.77,13.25,12.23,20.37,17.71,9.55,7.34,19.51,14.14,29.28,21.18a5.9,5.9,0,0,0,6.18.7c.91-.39,1.85-.73,2.74-1.15a87.55,87.55,0,0,0,20.54-13.51,441.29,441.29,0,0,0,42.22-42.3c.35-.4,1.22-.82,1.58-.66,1.34.62,2.23.15,3.2-.73,1.64-1.49,2.51-1.27,3.37.81.45,1.09.67,2.28,1.07,3.4.68,1.86,2.46,2.27,3.45.68,2-3.23,3.44-6.72,1.68-10.5-.79-1.7-1-3.09.36-4.42A10.18,10.18,0,0,1,473.39,330ZM262.18,283.56c-.09-.4-.33-.83-.25-1.19.59-2.85,4.32-6,7.74-6.27a14.24,14.24,0,0,0-2.93,2c-1.27,1.47-2.28,3.16-3.45,4.71A3.8,3.8,0,0,1,262.18,283.56Zm7.88,4.19c-1.29-.67-2.44-1.59-3.74-2.24s-1.26-1.35-.49-2.32c.33-.41.63-.85,1-1.25,3-3.47,3.83-3.47,6.64,0l2.35,2.92a36.88,36.88,0,0,1-3.7,3.3C271.69,288.45,270.67,288.07,270.06,287.75Zm35.29,40c-6.64-2.65-11.61-7.37-15.67-13-3.19-4.46-5.88-9.28-8.87-13.89-2.26-3.48-4.63-6.88-7-10.45.66-.73,1.27-1.49,2.51-.18,3.94,4.1,8,8.11,12,12.16.47.49.91,1,1.37,1.51l-.42.49-2.75-1.85a4,4,0,0,0,4.22,4.35c2.28-.17,2.65.66,2.59,2.68-.08,2.48,1.73,3.82,4.2,3.48a3.2,3.2,0,0,1,3.57,3.65c-.23,2.26,1.44,4.14,4.14,4.28-1.44-1.6-3.05-3.27-.8-5,1.63-1.27,2.92,0,4,1.3.92-2-.63-4.17-3-4.35-3.63-.27-4-.59-5-4.27a3.85,3.85,0,0,0-4.08-3.07c-1.67,0-2.24-.47-1.93-2.24a4.09,4.09,0,0,0-4.33-4.89l1.9,3.13-.48.42a11.22,11.22,0,0,1-1.31-1c-4.22-3.92-8.4-7.89-12.63-11.79-1.17-1.07-.7-1.76.34-2.58,1.69,1.07,3.29,2.24,5,3.17,8.54,4.59,16.9,9.47,23.36,16.89a109.59,109.59,0,0,1,7.33,10.09,3.76,3.76,0,0,1-.47,5.21c-1.55,1.62-3,3.33-4.43,5.07C307.7,328.28,306.67,328.27,305.35,327.75Zm13.73,12.05a2.27,2.27,0,0,1-2.18.13,5.35,5.35,0,0,0-5.55-.71c-1.22.49-2.85,0-4.29-.07v-.76a20.9,20.9,0,0,0,2.06-1.5c1.55-1.46,2.19-3.12.28-4.5-1.08-.79-1-1.51,0-2.53,2.58-2.54,5-5.28,7.54-8.06-.11,0,.07-.06.14,0,1.87,1.73,3.67,2,5.94.45,1.53-1.06,3.51-1,5.7,0-.82.58-1.43,1-2,1.45-2.32,1.75-2.66,4-1.16,6.41a2.22,2.22,0,0,1,0,2C323.53,334.74,321.36,337.33,319.08,339.8Zm5.71,5.79c1.46-1.67,3.16-1.78,5.35-.11a46.37,46.37,0,0,1,4.47,3.93c8.74,8.59,17.42,17.24,26.17,25.81,3.69,3.61,7.5,7.11,11.3,10.61a28.55,28.55,0,0,1,3.18,2.94C370.38,388.33,329.44,352.86,324.79,345.59Zm58.28,47.69c-1.06-1-2.13-2-3.17-3.08-6-6-12-11.94-18-17.88q-14.14-13.94-28.33-27.83c-.29-.27-.59-.53-.9-.79-3.65-3-6.31-3-9.93.35l-1.83-1.92,6.47-7c20.7,17.33,41.4,34.63,56.18,57.71ZM509.2,276.53c2.86.55,6,4.46,6.1,7.72a12.63,12.63,0,0,0-6.73-6.45c-.25-.1-.34-.59-.5-.91C508.45,276.76,508.86,276.46,509.2,276.53ZM503.45,285a37,37,0,0,1,2.84-4.29c.29-.38,1.31-.74,1.49-.58,1.51,1.44,2.91,3,4.32,4.53.17.18.19.48.32.87a6.15,6.15,0,0,1-.84.94c-1.24,1-2.55,1.9-3.75,2.94a1.51,1.51,0,0,1-2.4-.08,14,14,0,0,1-2-2.45A2.28,2.28,0,0,1,503.45,285Zm-59,52.66c1.71,1.67,1.76,3.3,0,5.45a58,58,0,0,1-4.61,4.93q-15.85,15.3-31.75,30.58c-1.81,1.74-3.45,3.66-5.21,5.46-1,1-2.12,2-3.45,3.19C401.09,381.69,435,344.5,444.44,337.63Zm-48.68,57.52-.54-.56,4.4-4.13C406.43,384,413.26,377.52,420,371q12.74-12.25,25.37-24.62a11.85,11.85,0,0,0,2.14-2.83c1.77-3.23,1.4-5.07-1.5-7.64l2-1.94c2,2.33,4,4.55,6.28,7.2C437,360.76,419.2,381,395.76,395.15Zm72-52.78c-.52-.79-.89-1.37-1.28-1.93-1.79-2.6-3.92-3-6.62-1.43a1.87,1.87,0,0,1-1.69,0c-2.68-2.25-5.32-4.55-7.85-7a2.08,2.08,0,0,1,0-2,5.44,5.44,0,0,0,.92-5.69c-.44-1.23.11-2.82.23-4.47,1.59,1.5,2.61,3.16,4,3.54,1.16.32,2.73-.84,4.18-1.37l8.92,8.39c0-.09.06.1,0,.16-1.79,1.8-2.23,3.58-.68,5.92C468.9,338.18,468.79,340.2,467.75,342.37Zm1-15.39c-1.76-1.69-3.55-3.35-5.41-4.93-1.13-1-1.1-1.93-.57-3.16,2.85-6.63,7.69-11.59,13.56-15.47,5.52-3.65,11.39-6.76,17-10.21,2.58-1.58,5-3.4,7.56-5.15,1.15.92,1.32,1.66,0,2.88-4.14,3.7-8.13,7.59-12.18,11.4-.5.48-1,.94-1.53,1.41l-.54-.42,1.92-2.76A4.11,4.11,0,0,0,484,305c.12,1.8-.34,2.34-2.16,2.22-3-.21-4.34,1.33-4.07,4.36a3.28,3.28,0,0,1-3.47,3.27c-2.58-.35-4.38,1-4.71,3.83,1.74-1.31,3.48-2.84,5.16-.37.76,1.11.27,2.21-1.48,3.81,1.83,1.08,4.16-.53,4.34-3,.25-3.35.86-4,4.29-4.74a3.86,3.86,0,0,0,3.3-3.9c0-2,.62-2.39,2.5-2a4.41,4.41,0,0,0,4.56-2.2,8.5,8.5,0,0,0,.59-2.33c-1.54.94-2.56,1.58-3.58,2.21l-.56-.71L503,291l1.64,1.28c-1.88,2.9-3.93,5.58-5.47,8.54a64.91,64.91,0,0,1-15.6,19.63c-3.24,2.76-7.07,4.84-10.69,7.14A3.13,3.13,0,0,1,468.74,327ZM334,564.19c-1.11,2.52-.29,3.76,2.47,3.95,8.52.61,14.79-4.33,16.12-12.7a1,1,0,0,1,.14-.37c2.27,0,4.45.12,6.6-.06.82-.06,1.58-.8,2.36-1.24-.7-.54-1.33-1.39-2.12-1.57-2.54-.58-5.13-.92-7.86-1.37a12.44,12.44,0,0,0,.17-9.34A20.28,20.28,0,0,0,344.9,532c-2.6-2-3.76-1.46-4.21,1.81-.05.33-.05.66-.07,1A26.23,26.23,0,0,0,344,549.37l-10.44-3.27a5.27,5.27,0,0,1,.12-.87c2.88-6.91.46-12.67-4-17.92-1.85-2.17-3.5-1.93-4.3.81a26.27,26.27,0,0,0-1,7.59c0,2.27.76,4.53,1.23,7l-11.24-6.39c2.28-3.66,3.77-7.35,2.33-11.2-1.23-3.29-3.25-6.31-5.07-9.37-.88-1.47-2.32-1.28-3,.11a18.53,18.53,0,0,0-2,6.28c-.22,2.87.29,5.8.5,9l-8.92-8c3-1.79,3.79-3,4-6.1.38-4.89-1.46-9.22-3.62-13.42-.68-1.34-1.87-1.13-2.45.06a72.75,72.75,0,0,0-3.52,8.11c-.48,1.34-.33,2.91-.51,4.77-1.93-2.66-3.69-5-5.31-7.37a2,2,0,0,1,0-1.85,13.61,13.61,0,0,0,2.63-8.59c-.18-3.14-.93-6.23-1.4-9.35-.32-2.1-.82-2.46-2.57-1.37a12.42,12.42,0,0,0-6,8.39c-.94-2.34-2.63-5-2.13-7.12,1.87-8.11-1.22-14.68-5.34-21.1-.87-1.36-2.11-1.2-2.62.34a49.87,49.87,0,0,0-2.13,7.62,15.46,15.46,0,0,0,4.54,14c.83.83,2.06,1.44,2.53,2.42,1.69,3.55,3.13,7.21,4.88,11.35A17.12,17.12,0,0,0,267,499.38c-1.91,0-2.48.81-1.78,2.51a16.73,16.73,0,0,0,7.49,8.95c3.27,1.77,6.79,2,10.39,2.08a2.86,2.86,0,0,1,1.95.53c2,2.44,3.82,5,5.73,7.53-.17,0-.24.1-.3.08-.38-.11-.75-.26-1.13-.36-5.54-1.53-11.06-2.09-16.46.54-1.73.84-1.9,1.6-.53,3a32.23,32.23,0,0,0,3.79,3.2c6.75,5,13.78,4.86,20.34-.25l8.54,7.63c-7-1.31-12.93.35-18.68,3.19-2.05,1-2.12,2.07-.22,3.38a27.15,27.15,0,0,0,10.53,4.43c5.25,1,13.33-1.85,14.79-6.46,2.12,1.25,4.2,2.54,6.33,3.74s4.43,2.35,6.64,3.52V547c-1.11,0-2.23-.08-3.33,0a20.53,20.53,0,0,0-11.77,4.75c-2.54,2.15-2.34,3.46.69,4.69a22.57,22.57,0,0,0,6.44,1.92c6.43.48,11.92-.25,14.8-5.62.49-.92.92-1.86,1.37-2.78l11.41,3.39a9.72,9.72,0,0,1-1,.66C338.61,556.18,335.88,559.84,334,564.19Zm-63.86-87.1c.7,3.09,1.39,6.17,2.12,9.37A9,9,0,0,1,270.1,477.09Zm4.6,6.65q-.84-3.6-1.69-7.2l.63-.1q.84,3.58,1.69,7.15Zm-3.64,17.7,8.13,4.63-.4.71-8.16-4.56Zm-.68,3.66,9.09,4.66C275.47,510.12,272.57,508.29,270.38,505.1ZM283,502c-.83-3.37-1.76-6.76,1.62-9.83Zm2.23,2.37L286.25,492l.6.05a18.67,18.67,0,0,1-1,12.35Zm-6,21.74,12.09,1.29A12.83,12.83,0,0,1,279.16,526.1Zm12.55-1.19L277,523l.09-.65a22.48,22.48,0,0,1,14.72,1.86Zm4.54-5.94a10.49,10.49,0,0,1,0-10.05Zm1.84-10.16c2.6,5.51,2.51,9.93,0,11.87Zm-7.93,31.94h16.19C303.08,544.31,295.88,544.17,290.16,540.75Zm1.07-1.36v-.68c5.33-2,10.72-2.92,16.23-.72l0,.6ZM309,521.86l.53-.08c.43,3.09.86,6.17,1.28,9.26C309.11,528.16,308.87,525,309,521.86Zm1.93-2.74c3,4.27,5.31,8.75,2.51,14.24Zm15,30,.16.76-12.32,2.39A17.66,17.66,0,0,1,326,549.17ZM314,554.92l14.32-3.22C327.75,555.34,320,557.46,314,554.92Zm15-12.42c-2.23-3.32-2.6-7-2-10.88l.55-.1q1,5.43,2,10.87Zm3.05-.19c-.76-3.47-1.44-6.52-2.22-10A11.88,11.88,0,0,1,332.13,542.31Zm9.29,22.37,8.95-8.79C350.45,559.91,347.55,562.86,341.42,564.68Zm9.11-16.93c-1.48-3.87-3-7.75-4.66-12.14C349,539.42,350.9,543.14,350.53,547.75Zm-7.21-11.58.54-.18q1.93,5.93,3.86,11.86l-.63.2A20.22,20.22,0,0,1,343.32,536.17Zm3.59,19.37.38.48-8.91,7.1-.43-.48A14.58,14.58,0,0,1,346.91,555.54ZM491.7,512.78c7.34,0,12.52-3.69,15.35-10.53.85-2.06.31-3.12-1.86-2.82a54.63,54.63,0,0,0-8.59,2.1,13.93,13.93,0,0,0-3.13,2c1.54-3.65,2.95-7.07,4.43-10.46a4.7,4.7,0,0,1,1.14-1.27c3-2.91,5.75-5.95,6.26-10.3a25.64,25.64,0,0,0-2.06-12.81c-.71-1.73-1.84-1.88-2.87-.33s-1.75,2.95-2.59,4.46c-2.58,4.65-4.08,9.62-2.73,14.88.9,3.51-1.05,5.88-2.2,9.1a11.74,11.74,0,0,0-6.15-9c-.92-.53-1.94-.74-2.26.79-.26,1.28-.56,2.56-.85,3.84-1.16,5.23-.94,10.25,2.16,14.87.24.37.44,1.09.25,1.37-1.77,2.57-3.63,5.08-5.46,7.6A20.75,20.75,0,0,0,476.6,504c-1.17-1.68-2.24-1.7-3,.18a51.13,51.13,0,0,0-3.18,9.36c-.73,3.72-.45,7.46,3.93,9.65-3.11,2.73-6,5.31-8.94,7.88.2-3.21.71-6.19.46-9.1a19.61,19.61,0,0,0-2.17-6.23,1.44,1.44,0,0,0-2.61-.23c-5.77,7.43-7.93,12.93-3,20.87l-11.23,6.34a3.69,3.69,0,0,1,.31-1.78,18.32,18.32,0,0,0-.32-13.37c-.89-2.06-2.2-2.33-3.65-.65-3.48,4-6.41,8.35-5.48,14.11.26,1.61.71,3.19,1.15,5.09l-10.8,3.37c.89-1.85,1.6-3.19,2.19-4.58A20.4,20.4,0,0,0,431.53,533c-.45-2.52-1.64-3-3.53-1.32a31.66,31.66,0,0,0-5.29,5.57c-2.82,4.08-4,8.6-2,13.58-2.78.46-5.35.78-7.85,1.35-.78.18-1.4,1-2.09,1.59.79.42,1.56,1.15,2.38,1.22,2.1.17,4.23.06,6.62.06a12.57,12.57,0,0,0,.52,2.92c.8,1.92,1.38,4.23,2.82,5.51a17,17,0,0,0,13.11,4.62c2.5-.24,3.29-1.46,2.3-3.77-1.88-4.37-4.57-8.06-9-10.24a7,7,0,0,1-1.05-.8L439.85,550c2.94,7.68,7.69,8.94,16.12,8.37,2.43-.16,4.84-1.3,7.15-2.27,2.1-.89,2.25-2.06.64-3.63a17.84,17.84,0,0,0-3.29-2.52,22.5,22.5,0,0,0-12.91-3l12.91-7.24a38.34,38.34,0,0,0,4.79,4.08c7.38,4.49,15.9,1.35,21.5-2.82,1.32-1,1.11-2.06-.39-2.82-5.84-3-11.92-4.67-19-3.36l8.39-7.51c1.81,1.14,3.39,2.71,5.26,3.2,7.4,1.94,14.22-1.17,19.29-6.58,1-1.07.79-2.1-.66-2.58-1.93-.65-3.9-1.67-5.86-1.68-4,0-8.09.53-11.84.82a30.59,30.59,0,0,0,3.19-4.21C486.64,513.59,488.63,512.79,491.7,512.78Zm10.59-35.57c.89,3.31.49,6.42-2,9.08Zm-3.5-.68.58.14-1.62,7-.68-.11Q497.94,480,498.79,476.53Zm2.56,24.9.46.78-8.19,4.57c-.13-.23-.26-.47-.4-.7Zm.66,3.67a9.4,9.4,0,0,1-9.26,4.77Zm-12.54-2.9c-.57-3.52-1.08-6.62-1.59-9.76C490.49,493.73,490.88,498.09,489.47,502.2Zm-3.92-10.11.65,0,1,12.29-.63.06A18.83,18.83,0,0,1,485.55,492.09ZM474.34,520.6c-2.54-1.62-2.67-6.69,0-11.6ZM428.53,536c.82,4-1,9.68-3.83,11.88Q426.62,542,428.53,536Zm-1.95-.48-4.87,12.65C421.43,543.1,423.51,539.43,426.58,535.54ZM422,555.8l9,8.92C426.66,563.24,422.21,561.37,422,555.8Zm12.47,6.83-.37.47-8.94-7c.13-.18.25-.37.38-.56A14.69,14.69,0,0,1,434.46,562.63Zm5.81-20.18c-.62-4.76,0-7.23,2.17-9.91Zm2.47,0,2-10.83.55.1a14.86,14.86,0,0,1-1.89,10.81Zm1.21,9.27,14.31,3.22C453.08,557.46,445.81,555.61,444,551.68Zm14.69.63L446.35,550c.06-.28.11-.56.17-.84A18.26,18.26,0,0,1,458.64,552.31Zm.31-18.94c-2.82-5.43-.47-9.92,2.5-14.31C460.63,523.77,459.81,528.48,459,533.37Zm3.43-2.27-.78-.11q.61-4.68,1.22-9.37l.87.2C463.25,524.91,462.82,528,462.38,531.1Zm3.61,9.65h16C477.56,543.9,469.86,544.57,466,540.75Zm15.21-1.66c-3.42,0-6.84.09-10.26,0a32.54,32.54,0,0,1-5.84-.92C470.57,535.76,475.9,536.7,481.2,539.09Zm-5-20.05V508.92A11,11,0,0,1,476.23,519Zm4.92,8.36L493.78,526C489.47,528.6,485.43,529,481.15,527.4Zm14.22-5.08V523l-14.64,1.92-.09-.67C485.27,521.68,490.25,521.53,495.37,522.32ZM194.47,671.88V419.19c-2.63,1.42-4.2,2.76-4.13,6,.25,11.86.09,23.72.09,35.58V675.25c12.59,2.38,21,8.52,21.92,22.3h4.45c38,0,75.93,0,113.89.09,3.41,0,4.89-2.13,6.83-4.23H215.91C213.18,681.74,206.78,674,194.47,671.88Zm385.92.09V424.88c0-3.21-.71-4.21-4.12-5.48V671.88c-12.3,2.24-18.7,10-21.35,21.63H432.85c2.48,2.37,4.39,4.44,8,4.14,4.67-.39,9.4-.1,14.1-.09l102.37.05a6.08,6.08,0,0,0,1.16-.19c1-13.74,9.41-19.87,21.91-22.14ZM191.23,76.43V313.22c0,3.28.78,4.38,4.17,5.62V76.24c12.29-2.22,18.66-10,21.34-21.64H338.63c-2.36-2.69-4.65-4.41-8.32-4.11-4.47.37-9,.09-13.5.09H213.15c-.92,13.77-9.32,19.92-21.92,22.29ZM562.9,69.05a21.3,21.3,0,0,0,14.24,7V318.91c3.8-1.88,4.05-2.26,4.05-5.9V72.87c-12.58-2.35-21-8.5-21.93-22.28h-3.83c-38.09,0-76.19,0-114.29-.1-3.47,0-5.05,2.08-7.05,4.21H555.92A24.94,24.94,0,0,0,562.9,69.05ZM415,76.16H355.58v49.55H415Zm-4,45.45H359.7V80.25h51.22ZM369.06,619.75c-.77,0-1.59,1-2.3,1.6-.25.22-.23.74-.32,1.13q-1.79,7.13-3.56,14.25c-.75,3-1.53,6-2.42,9.49-1.11-3.47-1.95-6.46-3.06-9.34a3.24,3.24,0,0,0-2.22-1.79c-.65-.05-1.5,1-2.09,1.71a6.2,6.2,0,0,0-.73,1.83c-.87,2.37-1.75,4.73-2.79,7.55-.25-.89-.38-1.26-.46-1.64-1.37-6.54-2.72-13.09-4.09-19.63a7.63,7.63,0,0,0-.82-2.63,2.61,2.61,0,0,0-1.9-1.23c-.51.05-1.16,1.09-1.28,1.78a8,8,0,0,0,.18,2.95q2.69,14,5.45,28.06c.24,1.27.56,2.55,2.19,2.65s2.11-1.12,2.56-2.33l3.36-9.32.41,0q1.47,4.8,2.92,9.61c.4,1.32.91,2.61,2.6,2.53s2-1.42,2.34-2.77q2.76-11.79,5.53-23.58c.65-2.77,1.33-5.53,1.92-8.31C370.73,621.09,370.46,619.77,369.06,619.75Zm41.66,35.72a2.4,2.4,0,0,0,2.14,0,2.3,2.3,0,0,0,.64-1.87,5.35,5.35,0,0,0-.91-1.94c-1.79-3.07-3.6-6.13-5-8.52,2.12-3.44,4.31-6.16,5.58-9.25a10.79,10.79,0,0,0-3.66-13.12c-3.89-2.64-9.81-2.21-13.67,1.13a3.9,3.9,0,0,0-1.24,2.46c0,.44,1.16.94,2.05,1.59,0,1.42-.05,3.2,0,5q.39,11.5.83,23c0,1.26.64,2.42,2,2.07a3.07,3.07,0,0,0,1.66-2.19,55.93,55.93,0,0,0,.16-6.35c0-2.65,0-2.65,2.79-3,1.54,2.88,3,5.75,4.63,8.57A7.43,7.43,0,0,0,410.72,655.47Zm-9.37-14.73c-.29-5.67-.59-11.32-.89-17.1,5.21-1.94,9.22.87,9.08,6.27C409.41,634.8,405.66,639.82,401.35,640.74Zm29.43-21c-4.44-2.21-8.89-1.57-13,1.15a3.62,3.62,0,0,0-1.38,2.15c-.06.29,1.16.85,2.16,1.53,0,.26,0,.85,0,1.45.29,8.66.54,17.33.89,26,.17,4.11,1.67,4.87,5.11,2.76.39-.24.79-.47,1.17-.74,7.57-5.36,11.79-12.64,11.89-22C437.7,626.8,435.78,622.2,430.78,619.72Zm1.82,18.14a23.51,23.51,0,0,1-8.42,12.86c-.54-9.45-1.07-18.66-1.61-28.07a7.48,7.48,0,0,1,9.48,4.14A15.81,15.81,0,0,1,432.6,637.86Zm-99,.4c-1.41-1-2.93-1.84-4.27-2.9a62.62,62.62,0,0,1-4.88-4.33,2.6,2.6,0,0,1-.66-1.93c.22-1.53,3.2-3.67,4.81-3.65a3.92,3.92,0,0,1,3.91,3.69c.16,1.07.47,2.2,1.7,1.92a3,3,0,0,0,1.85-1.88c.6-2.32-.36-4.29-2.09-5.85-3.67-3.29-8.39-3-12.29.77-3.58,3.44-3.71,6.95-.36,11a14.08,14.08,0,0,0,1.91,2c2.06,1.66,4.12,3.33,6.27,4.86a8.26,8.26,0,0,1,3.85,7,4.06,4.06,0,0,1-1.31,2.84c-2.92,2.24-5.86,1.74-8.08-1.18-1-1.32-2.17-2-3.74-1.1-1.3.74-1.42,2.39-.32,4a9.36,9.36,0,0,0,7.31,4.39c6.22,0,10.82-3.2,11.29-7.68C339,645.5,337.78,641.23,333.6,638.26Zm54.31,14.58c5.95-6.57,6.84-20.78,1.65-28a7.86,7.86,0,0,0-3.35-2.94c-5.12-1.76-9-.25-11.93,4.36A24.23,24.23,0,0,0,370.72,639c0,5.94,1.08,9.94,3.25,13C377.76,657.35,383.52,657.7,387.91,652.84ZM377.69,628c1.14-2.06,2.79-4.44,5.16-4,1.65.33,3.36,2.52,4.16,4.28,1.19,2.65,1.61,5.64,2.41,8.69-.89,3.28-1.62,6.54-2.69,9.7a10,10,0,0,1-2.44,3.55c-2.11,2.16-4.86,2.06-6.34-.57a24.93,24.93,0,0,1-2.76-7.72A20.72,20.72,0,0,1,377.69,628Zm73.52-452c2.49.86,5.05,1.56,7.44,2.64a6.24,6.24,0,0,1,3.78,5.64c.13,1.9.54,3.79.86,5.68.47,2.87,1,5.73,1.47,8.59a1.43,1.43,0,0,0,.65-1c.72-4.58,1.5-9.14,2.13-13.73a6,6,0,0,1,2.91-4.71,35.32,35.32,0,0,1,5.2-2.37,44.16,44.16,0,0,1,4.56-1.17,5.82,5.82,0,0,0-1.8-.74,77.86,77.86,0,0,1-7.4-2.74,5.71,5.71,0,0,1-3.4-4.6c-.27-2-.58-4.06-.91-6.08-.49-3.05-1-6.09-1.58-9.54a5.78,5.78,0,0,0-.44,1c-.75,4.43-1.73,8.85-2.14,13.32-.34,3.65-2.32,5.68-5.37,6.91-2.37,1-4.88,1.58-7.7,2.47C450.22,175.75,450.73,175.84,451.21,176Zm-3.75,476.36c-2-.24-2.06-2-2.26-3.43s-.52-2.62-2.22-2.38-2,1.57-2,3a6.85,6.85,0,0,0,7,6.59c4.93,0,7.48-1.91,8.8-6.68,1.38-5-.33-9.12-3.76-12.68-1.79-1.86-3.86-3.46-5.51-5.43a10.61,10.61,0,0,1-2.11-4.36c-.35-1.54-.05-3.29,1.76-4a3.59,3.59,0,0,1,4.53,1.47,39.3,39.3,0,0,1,2.09,4,7.81,7.81,0,0,0,1.13,1.33c.33-.59,1-1.19,1-1.77-.06-3-1-5.63-3.39-7.51A6.67,6.67,0,0,0,442.3,623c-1.22,3-1.39,6.15.47,9a61.36,61.36,0,0,0,4.84,6c1.25,1.45,2.77,2.69,3.88,4.23a7.47,7.47,0,0,1,.92,7.53C451.57,651.79,450,652.67,447.46,652.36ZM414.53,59.15c2.53.87,4.18-.91,3.43-3.52a40.08,40.08,0,0,0-1.57-3.89c2.79-.32,5.44-.52,8-1a12.46,12.46,0,0,0,4.26-1.51c2.23-1.37,2.05-3.4-.3-4.54a11.17,11.17,0,0,0-3.19-1.05c-3.31-.47-6.63-.78-9.94-1.15.65-1.5,1.46-3.08,2-4.76.48-1.46.66-3.09-.87-4.15a3,3,0,0,0-4.14.67,39.74,39.74,0,0,0-5.89,7.62C402.25,49.74,408.88,57.2,414.53,59.15Zm0-22.94c.12,4.18-2.4,7.28-6.26,7.65C409.83,40.8,411.58,38.16,414.52,36.21ZM427,46.76a29.26,29.26,0,0,1-19.07.23C414.23,44.74,420.6,45.1,427,46.76ZM415.45,57c-3.42-1.13-5.36-3.52-7.1-6.23C412.25,50.37,415,52.68,415.45,57Zm75.1,582c-.11-2.21-2.17-2.88-4-3.24-3.17-.61-6.38-1-9.71-1.5a15.16,15.16,0,0,0,1.42-3.44c.18-1.06.16-2.68-.48-3.2a3.91,3.91,0,0,0-3.41-.41,14.58,14.58,0,0,0-8.09,8.3,10.24,10.24,0,0,0-.68,4.06c.2,4.73,2.85,8.27,6,11.46a8,8,0,0,0,2.63,1.73,2.5,2.5,0,0,0,3.65-2.49,11.3,11.3,0,0,0-.75-3.45,28.4,28.4,0,0,0-1.49-3.11c3.71-.49,7.37-.85,11-1.53C488.38,641.84,490.67,641.41,490.55,639Zm-14.63-9.87c-.87,4.29-2.37,6.37-7.16,6.45A13.21,13.21,0,0,1,475.92,629.11Zm-7.06,13.12c3.81.46,5.79,2.83,6.2,7.26C473.09,649.07,470.29,645.84,468.86,642.23Zm-1.05-3.38a37.42,37.42,0,0,1,19.9.12C484.8,641.32,472,641.3,467.81,638.85ZM598.15,392.31a40.29,40.29,0,0,0-7.44-5.78c-7.84-4.21-15.35,2.27-17.41,8.07-.9,2.52.87,4.21,3.46,3.48a37.52,37.52,0,0,0,3.82-1.53c.49,3.27.86,6.48,1.49,9.64.37,1.87,1,4.05,3.4,4s2.75-2.32,3.07-4.06c.65-3.55,1-7.16,1.45-10.76,1.48.63,3.06,1.46,4.74,2,1.47.46,3.1.62,4.13-.93A3.08,3.08,0,0,0,598.15,392.31Zm-22.61,3.19c1-3.41,3.49-5.33,6.27-7.1C582,392.83,579.87,394.83,575.54,395.5Zm9.92,11.59a34.62,34.62,0,0,1-.35-19.34C587.51,390.6,587.75,403.32,585.46,407.09Zm3.16-18.7a19.32,19.32,0,0,1,7.67,6.28C591.7,394.59,588.83,392.21,588.62,388.39ZM343.91,49.33a13.93,13.93,0,0,0,4.46,1.51c2.5.44,5.06.6,7.65.89a36.55,36.55,0,0,0-1.6,4.05c-.67,2.51.91,4,3.43,3.4a5.88,5.88,0,0,0,1.64-.66c7.21-4.42,10.65-11.53,5-19.48a22.83,22.83,0,0,0-5.58-5.47c-2-1.37-4.06.07-4,2.49a12.55,12.55,0,0,0,.89,3.62,28.58,28.58,0,0,0,1.57,3.13,25.44,25.44,0,0,0-3.73,0c-3.17.51-6.36,1-9.47,1.83a3.08,3.08,0,0,0-1.85,2.22A3.22,3.22,0,0,0,343.91,49.33Zm13.33,7.57c-.58-3.41,2.49-6.2,6.86-6.29C362.42,53.43,360.41,55.74,357.24,56.9Zm6.87-13.07c-3.86-.26-5.9-2.69-6.38-7.76A18.72,18.72,0,0,1,364.11,43.83Zm.4,3.2c-3.49,2.14-16,2-19.07-.26C348.8,44.71,361.58,44.89,364.51,47Zm-66.39,602.9a2.43,2.43,0,0,0,3.5,2.45,6.78,6.78,0,0,0,2.78-1.82,40.61,40.61,0,0,0,4.74-6.54c4.14-7.88-2.23-15.34-8.06-17.45-2.51-.9-4.22.86-3.5,3.43a34.9,34.9,0,0,0,1.53,3.84c-3.38.52-6.71.92-10,1.59-1.74.36-3.67,1.11-3.68,3.28s2,2.69,3.66,3c3.68.68,7.41,1.09,11.27,1.63a10.33,10.33,0,0,0-.9,1.71A22.64,22.64,0,0,0,298.12,649.93Zm2.86-.35c.09-4.62,2.48-7.5,6.29-7.68A19.58,19.58,0,0,1,301,649.58Zm6.21-14.43c-4.8,0-6.44-2.57-7-6C302.42,629.14,305,631.35,307.19,635.15ZM288,638.65a37.53,37.53,0,0,1,19.94-.26C305,640.79,292.19,641,288,638.65ZM181.22,397.44c.53,3.57,1,7.16,1.77,10.68a3.21,3.21,0,0,0,2.29,2,3.52,3.52,0,0,0,2.55-1.69,11.64,11.64,0,0,0,1.37-4.09c.43-2.58.63-5.2.94-7.95,1,.46,1.8.94,2.71,1.28,1.42.53,3,1.21,4.22-.23s.59-3-.15-4.43c-2.79-5.37-7.87-8.5-13.75-7.52a15.91,15.91,0,0,0-11.26,8.06c-1.25,2.17.2,4.26,2.72,4a22.17,22.17,0,0,0,4.67-1.47,17.76,17.76,0,0,0,1.9-1A16.32,16.32,0,0,0,181.22,397.44Zm14.07-2.07c-3.55.24-5.92-2.36-6.37-7.05C191.83,390.19,194.22,392.13,195.29,395.37ZM185.4,388c2.14,3.38,2,15.91-.2,19.1C183.12,403.9,183.26,391.09,185.4,388Zm-10.92,6.75a19.34,19.34,0,0,1,7.8-6.37C181.84,392.3,179.22,394.46,174.48,394.74ZM589.61,335.2c-.49-3.45-.87-6.94-1.64-10.33-.22-1-1.62-2.39-2.42-2.35a4.05,4.05,0,0,0-2.83,2.2,24.61,24.61,0,0,0-1.47,5.94c-.29,1.79-.32,3.62-.47,5.59-1.21-.56-2.19-1.08-3.23-1.47-1.33-.49-3-1-3.75.47a5,5,0,0,0-.06,3.85,14.54,14.54,0,0,0,7.67,7.43,10.25,10.25,0,0,0,4.24.86c5.16-.23,9-3.07,12.31-6.77,1.11-1.25,2-2.81.86-4.48s-3-1.3-4.54-.75-3,1.3-4.65,2A16.36,16.36,0,0,0,589.61,335.2Zm-14.08,2.05c3.58-.23,6,2.38,6.38,7.06C579,342.44,576.61,340.5,575.53,337.25Zm10.18,7.7c-2.4-3.38-2.32-15.9.16-19.4A37.14,37.14,0,0,1,585.71,345ZM596,337.9c-1,2.31-4.15,4.9-7.29,6.14C588.53,340.53,591.09,338.32,596,337.9ZM358,689.37a4.62,4.62,0,0,0-3.66.13c-1.39.71-1,2.29-.52,3.57.42,1.13.95,2.23,1.54,3.58a16.25,16.25,0,0,0-2.23,0c-2.87.43-5.75.8-8.58,1.42-1.49.32-3,1.16-3.07,2.94-.11,1.94,1.57,2.38,3,2.93a7.92,7.92,0,0,0,1.9.54c3.32.41,6.65.76,9.93,1.13-.69,1.76-1.52,3.56-2.07,5.43-.38,1.29-.34,3,1.09,3.46a4.36,4.36,0,0,0,3.61-.38,28.91,28.91,0,0,0,5.16-5.66C369.72,700.2,364.68,692.67,358,689.37Zm-.72,22.5-.69-.37a42.35,42.35,0,0,1,3-6.22c.55-.8,2.21-.84,3.37-1.23A15,15,0,0,1,357.28,711.87Zm-12.65-10.69a34.48,34.48,0,0,1,19.3-.39C361.32,703.19,348.6,703.48,344.63,701.18Zm11.63-10c3.36,1.11,5.35,3.48,7.06,6.33C358.63,697.69,356.71,695.09,356.26,691.22Zm-183.63-351a41.38,41.38,0,0,0,7.25,5.72c7.87,4.44,15.48-2,17.63-7.87,1-2.61-.85-4.31-3.56-3.51A40.64,40.64,0,0,0,190,336.2c-.08-1.43-.11-2.74-.24-4a21.56,21.56,0,0,0-.6-4.11,18.11,18.11,0,0,0-2.06-4.84c-1-1.42-2.71-1.22-3.61.27a10.11,10.11,0,0,0-1.36,3.48c-.52,3.42-.84,6.87-1.24,10.28a51.74,51.74,0,0,0-4.91-2c-1.47-.46-3.11-.56-4.09,1A3.07,3.07,0,0,0,172.63,340.25Zm22.67-3.06c-1.05,3.3-3.46,5.21-6.31,7.1C188.77,339.37,191.9,337.42,195.3,337.19Zm-10.1-11.65c2.21,3.25,2.34,15.74.2,19.09C183.25,341.51,183.12,328.74,185.2,325.54Zm-2.93,18.68a19.86,19.86,0,0,1-7.89-6.37C179.47,338.33,181.84,340.3,182.27,344.22Zm243,353.55c-3.16-.62-6.37-1-9.65-1.49a16,16,0,0,0,1.42-3.5c.18-1,.11-2.6-.54-3.2a3.58,3.58,0,0,0-3.23-.41,14.74,14.74,0,0,0-8.57,9.34c-1.77,5.62,2.73,12.35,6.79,15.45,1.18.91,2.55,1.6,4,.64s1.43-2.66,1-4.13c-.52-1.68-1.35-3.27-2-4.77,3.59-.47,7.2-.81,10.75-1.46,1.75-.32,4.05-.71,4.07-3.08S427.15,698.14,425.27,697.77Zm-10.79-6.53c.2,3.6-2.41,6-7.05,6.36C409.3,694.7,411.23,692.3,414.48,691.24Zm-7,13.08c3.84.21,5.83,2.55,6.39,7.78A19,19,0,0,1,407.52,704.32Zm-.38-3.33a34.46,34.46,0,0,1,19.26,0C423.88,703.31,411.07,703.37,407.14,701ZM201.3,686.32c-3.86-3.59-8.72-4.41-13.81-4.05-1.54.11-3.12.54-3.5,2.38s.88,3,2.34,3.72,3.28,1.36,5.09,2.09c-.55.49-1,.87-1.43,1.28a26.07,26.07,0,0,0-6.78,9.19c-1,2.56.24,4.08,3,3.6a6.91,6.91,0,0,0,2.73-1.09c2.64-1.83,5.21-3.78,7.81-5.68a16.29,16.29,0,0,0,1.48,3.64,4,4,0,0,0,2.68,1.82,3.67,3.67,0,0,0,2.52-2.05,16.69,16.69,0,0,0,1.14-5.38C204.71,692.25,204,688.8,201.3,686.32Zm-14.35-1c3.54-.78,6.72,0,9.93,1C194.22,689,190.68,688.7,187,685.35Zm-1.35,16.28a31.72,31.72,0,0,1,13.81-13.27A30,30,0,0,1,185.6,701.63Zm15.44-.89c-2.64-2.57-2.44-5.92.58-9.63C202.42,694.47,202.62,697.61,201,700.74Zm384.25-3.93c-1.8-2.19-3.72-4.28-5.52-6.34a40.08,40.08,0,0,0,5.82-2.92c2.26-1.61,1.71-4.08-.89-5-4.23-1.47-12.7.77-15.61,4.13s-3.85,10.61-1.61,14.65a3.91,3.91,0,0,0,2.66,1.88c.82,0,2-1,2.49-1.81a18,18,0,0,0,1.46-3.57c2.94,2,5.79,4.29,8.91,6.08a4.87,4.87,0,0,0,4.2,0c1.6-1,.63-2.74-.05-4.1A16,16,0,0,0,585.29,696.81Zm-1.4-11.46c-3.58,3.15-6.89,3.51-10.11,1C577.17,685.34,580.34,684.57,583.89,685.35Zm-14,15.45c-1.67-3.13-1.33-6.28-.72-9.66C572.64,694.48,572.27,697.39,569.84,700.8Zm1.56-12.42c6.1,2.85,10.5,7.49,13.84,13.24A29.9,29.9,0,0,1,571.4,688.38ZM191.71,57.68a40.1,40.1,0,0,0-5.88,3.1c-2,1.5-1.41,3.87,1,4.76,4.2,1.55,12.94-.75,15.78-4.16s3.78-10.67,1.54-14.66a2.7,2.7,0,0,0-5.06-.11,19.28,19.28,0,0,0-1.58,3.82c-2.4-1.82-4.69-3.73-7.15-5.37-1.79-1.18-4-2.73-6-.86s-.1,4,1,5.67C187.37,52.67,189.69,55.21,191.71,57.68Zm-4,5.11q5.33-4.73,10.06-1.1C194.48,62.85,191.31,63.53,187.73,62.79Zm14.05-15.42c1.7,3.09,1.32,6.24.76,9.42C199.46,54.63,199.06,50.43,201.78,47.37Zm-1.55,12.38c-3.64-.64-12.48-9-14-13.35C190.65,47.54,199.35,55.92,200.23,59.75Zm384,6.1c1.54-.11,3.1-.57,3.45-2.42s-.84-2.89-2.25-3.59c-1.63-.82-3.37-1.41-4.72-2,2.27-2.91,4.7-5.85,6.89-8.95.95-1.35,2.1-3.14.55-4.7s-3.42-.75-4.92.22c-2.82,1.84-5.49,3.88-8.29,5.89a31.3,31.3,0,0,0-1.58-3.85c-1.37-2.42-3.87-2.38-5,.18A16.56,16.56,0,0,0,567.11,52c-.25,3.61.44,7.15,3.12,9.72C574.1,65.44,579,66.24,584.2,65.85Zm.6-3a19.49,19.49,0,0,1-10-1C577.11,59,580.4,59.26,584.8,62.82ZM586,46.07c-.38,3.71-9.75,12.82-14.3,13.83A37.29,37.29,0,0,1,586,46.07Zm-15.44,1.35c2.44,2.65,3,6.51-.6,9.46C569.22,53.66,569,50.54,570.55,47.42Zm-190,10.4a8.14,8.14,0,0,0,.71-2.56c-.19-3,2.09-6.61,4.58-6.88s5.17,2.84,5.36,5.92a8,8,0,0,0,0,1.19c.16.76.31,2.07.66,2.14a3.24,3.24,0,0,0,2.43-.63,10.27,10.27,0,0,0,3.43-8.13,11.38,11.38,0,0,0-14.93-10.71C374.65,40.8,372,51,377.94,56.75A8,8,0,0,0,380.51,57.82Zm1.36-15.34c3-2,6.18-1.84,9.32.59A6.72,6.72,0,0,1,393.53,51c-4.58-8.77-11.56-6.37-14.64.18A7.31,7.31,0,0,1,381.87,42.48ZM393.31,691a2.67,2.67,0,0,0-2.26-.55c-.46.21-.73,1.39-.7,2.13a6.7,6.7,0,0,1-2.42,6c-2,1.61-3.81,1.51-5.58-.41a6.84,6.84,0,0,1-1.8-5.85,2.19,2.19,0,0,0-.67-1.82,2.05,2.05,0,0,0-1.95.21,14.68,14.68,0,0,0-2.9,3.69,11.08,11.08,0,0,0,2,12.51,11.6,11.6,0,0,0,12.56,2.86c4.38-1.77,7.2-5.93,7.23-12A9.76,9.76,0,0,0,393.31,691Zm-3.44,14.43a7.27,7.27,0,0,1-9.16-.07,7.15,7.15,0,0,1-2.52-8.5c1.36,3.52,3.74,5.92,7.28,6s5.72-2.58,7.2-6C393.82,700.55,392.81,703.42,389.87,705.46ZM189.69,362.4c1.21-.77,3-.61,4.51-.92.65-.13,1.56-.26,1.83-.71a2.12,2.12,0,0,0-.22-1.95,12.84,12.84,0,0,0-3.16-2.64,11.14,11.14,0,0,0-12.75,1.52,11.41,11.41,0,0,0,7.33,20.06,10.35,10.35,0,0,0,8.27-3.56A2.62,2.62,0,0,0,196,372c-.21-.47-1.37-.55-2.13-.73-1.45-.34-3.22-.23-4.3-1-1.26-.93-2.61-2.65-2.63-4.05S188.43,363.19,189.69,362.4Zm-.34,11.22a6.67,6.67,0,0,1-7.75-2.15c-2.55-3.2-2.8-6.43-.74-9.48a7.35,7.35,0,0,1,8.67-3C182.55,362.36,181,369.33,189.35,373.62Zm387.34-2.43c-.62-.07-1.66.2-1.84.61a3.42,3.42,0,0,0,.23,2.15c.13.4.59.7.93,1a11.36,11.36,0,0,0,18.4-11.63c-1.39-5-5.75-8.41-12.35-8.46a9.77,9.77,0,0,0-6.82,3.65,2.74,2.74,0,0,0-.4,2.29c.14.4,1.32.64,2,.59a6.87,6.87,0,0,1,6,2.3c1.46,1.68,1.51,3,.21,4.83A6.48,6.48,0,0,1,576.69,371.19Zm4.8-12.2a7,7,0,0,1,8.18,2.6,7.27,7.27,0,0,1,.1,9.17c-2,2.93-4.87,3.95-8.47,2.87C588.13,370.44,590,363.71,581.49,359ZM249.74,584.38a14.59,14.59,0,0,0,.34,2.36q.63,3.79,1.28,7.59a61.1,61.1,0,0,0,2.17-11,6.34,6.34,0,0,1,4.17-5.74c2-.82,4.09-1.43,6.32-2.2-1.33-.35-2.53-.62-3.71-1-4-1.16-6.78-3.2-7-7.94-.12-3.3-1-6.57-1.55-9.86a77.27,77.27,0,0,0-2.3,11.66,5.45,5.45,0,0,1-3.25,4.64c-2.21,1-4.53,1.76-7,2.69,1.16.29,2.32.54,3.45.87C246.7,577.67,249.78,579.63,249.74,584.38Zm65-456.67a56.71,56.71,0,0,0-1.28-7.68,3.9,3.9,0,0,0-.8,2c-.36,2.22-.82,4.43-1,6.66a5,5,0,0,1-3.59,4.51c-1.43.56-2.9,1-4.46,1.51a2,2,0,0,0,.57.34c5.18.74,8.06,3.42,8,9a27.33,27.33,0,0,0,1,5.44,43.12,43.12,0,0,0,1.7-8.41,5,5,0,0,1,3.24-4.56c1.54-.67,3.18-1.14,5.11-1.82-1.43-.39-2.52-.64-3.58-1C316.68,132.71,314.81,131.11,314.7,127.71ZM237.45,381.2c0,1.81.65,3.63,1,5.45a50.33,50.33,0,0,0,1.68-8.45,5,5,0,0,1,3.25-4.56c1.58-.63,3.21-1.16,5-1.82-1.35-.38-2.45-.63-3.51-1-2.78-.91-4.67-2.43-4.85-5.73a70.31,70.31,0,0,0-1.28-7.95,26.49,26.49,0,0,0-1.48,6.71c-.26,3.32-1.38,5.9-4.83,6.91l-3.77,1.07a7.23,7.23,0,0,0,1,.36C234.8,373.06,237.57,375.77,237.45,381.2Zm303.46,75.17c1.31-.48,2.66-.86,4.26-1.37-1.48-.39-2.66-.61-3.78-1-2.64-.95-4.56-2.38-4.7-5.64a65.31,65.31,0,0,0-1.29-7.92l-.33,0c-.16.68-.35,1.35-.47,2-.38,2.28-.82,4.56-1.07,6.85a4.64,4.64,0,0,1-2.91,4c-1.62.71-3.33,1.22-5.19,1.89.69.21,1.19.38,1.69.52,5.35,1.46,6.24,2.51,6.79,8,0,.06,0,.13,0,.2l1.11,6a36,36,0,0,0,1.66-8.1C536.87,458.83,538.42,457.29,540.91,456.37ZM462.53,119.05c-4.28-.37-3.65-3.82-4.49-6.4-.66,2.66-.21,5.92-4.34,6.39,4.09.47,3.66,3.66,4.35,6.29C458.87,122.78,458.27,119.41,462.53,119.05ZM226.72,493.86c-.68,2.93-.32,6.08-4.29,6.49,4,.33,3.55,3.58,4.4,6,.42-1.31.36-2.78,1-3.82s1.94-1.61,3-2.46C226.91,500.17,227.8,496.57,226.72,493.86Zm285.52,55c-.59,1.26-.5,2.68-1.09,3.73s-1.87,1.81-2.95,2.78c3.95.09,2.87,3.63,3.92,6.24.78-2.79.12-6,3.86-6.3-1.06-.88-2.33-1.51-2.9-2.53S512.49,550.17,512.24,548.85Zm19.69-24.62c-.63,2.61-.22,5.8-4.16,6.36,4.09.46,3.42,3.83,4.22,6.3.78-2.55.2-5.83,4.23-6.39C532,530.1,532.88,526.65,531.93,524.23Zm-213.74-314c3.94.43,3.21,3.68,4.17,6,.73-2.4.25-5.53,4.08-6.05-3.87-.48-3.19-3.79-4.24-6.45C321.51,206.68,322,209.67,318.19,210.28ZM182.55,434.62c-1.35.06-1.84,1.06-1.81,2.34a1.94,1.94,0,0,0,2,2.14c1.27,0,2.11-.64,2-2.7A2,2,0,0,0,182.55,434.62ZM586,437.21a1.75,1.75,0,0,0,2,1.89c1.4,0,2.12-.89,2.4-2.79-.78-.57-1.52-1.57-2.33-1.63C586.59,434.57,586,435.8,586,437.21Zm4.37-10.92c-.73-.55-1.42-1.5-2.2-1.57-1.56-.14-2.09,1.13-2.13,2.5,0,1.2.62,1.79,1.84,1.79C589.43,429,590,428.11,590.38,426.29ZM588.7,309.18c-1.23,0-1.89.58-1.85,1.79s.55,2.64,2.12,2.5c.77-.07,1.47-1,2.2-1.55C590.72,310.12,590.25,309.18,588.7,309.18Zm-405.21,4.27c.91-.17,1.65-1.23,2.46-1.9l0-.92c-.69-.48-1.32-1.23-2.08-1.38-1.45-.28-2.15.65-2.24,2.07S182.21,313.7,183.49,313.45ZM183,424.74c-.79,0-1.61.76-2.42,1.18.27,1.81.52,2.92,2.09,3.07,1.21.12,2.13-.26,2.15-1.65S184.38,424.79,183,424.74ZM182.78,445a1.65,1.65,0,0,0-2,2,3.09,3.09,0,0,0,1.86,2c1.16.25,2.08-.59,2.49-2.44C184.37,446,183.64,445.11,182.78,445Zm405.39-.06a1.89,1.89,0,0,0-2.15,1.84c0,1.58.84,2.48,2,2.3a3.09,3.09,0,0,0,2-1.92C590.36,445.88,589.51,445,588.17,444.89ZM332.94,45.32A1.84,1.84,0,0,0,334.79,43c-.14-.8-1-1.46-1.55-2.19l-1,0c-.48.78-1.26,1.52-1.36,2.35A1.75,1.75,0,0,0,332.94,45.32Zm108.6-2.12c0-1.14-.58-2-1.94-2s-2,.53-2.39,2.27c.77.62,1.47,1.59,2.33,1.78C440.89,45.55,441.58,44.46,441.54,43.2Zm-2.85,659.61a1.86,1.86,0,0,0-1.86,2.29c.15.79,1,1.46,1.55,2.18l1,0c.48-.78,1.26-1.52,1.36-2.35A1.75,1.75,0,0,0,438.69,702.81Zm-106.53.07c-1.32-.33-2.08.7-2.08,2s.5,2.07,1.87,2.07c1.2,0,2-.44,2.17-2.44C333.67,704.1,333,703.1,332.16,702.88Zm259-452c-.77-.49-1.61-1.45-2.3-1.35a2.88,2.88,0,0,0-1.94,1.87,1.67,1.67,0,0,0,2,2c.81-.13,1.49-1,2.24-1.58ZM183.59,249.5c-.83.13-1.56.92-2.33,1.41l0,.93c.74.55,1.43,1.45,2.24,1.58,1.25.21,2.1-.67,2.1-2A1.71,1.71,0,0,0,183.59,249.5Zm-.92,294.92c-.81.13-1.49,1-2.23,1.59l0,.93c.78.49,1.51,1.28,2.33,1.4a1.72,1.72,0,0,0,2-1.91C184.77,545.09,183.92,544.21,182.67,544.42Zm407.69,1.43c-.78-.5-1.52-1.35-2.34-1.43a1.68,1.68,0,0,0-1.89,2.13,2.9,2.9,0,0,0,2.06,1.73c.7.05,1.47-1,2.2-1.5ZM181.26,242c.77.51,1.51,1.35,2.33,1.44,1.26.13,2-.8,2-2.13a1.71,1.71,0,0,0-2.1-1.78c-.82.16-1.5,1-2.24,1.53Zm405.67-10.7a1.68,1.68,0,0,0,1.81,2.2c.82,0,1.6-.86,2.39-1.33,0-.32,0-.63.07-.94-.71-.57-1.45-1.6-2.14-1.58A2.92,2.92,0,0,0,586.93,231.34Zm1.18,326.89c.69.08,1.51-.9,2.27-1.41v-.93c-.75-.54-1.46-1.42-2.27-1.53a1.67,1.67,0,0,0-2,2A2.92,2.92,0,0,0,588.11,558.23Zm-405.27,10a1.71,1.71,0,0,0,1.94-2c0-1.34-.9-2.2-2.15-2-.81.15-1.47,1.06-2.2,1.63l0,.93C181.26,567.35,182,568.12,182.84,568.22Zm403.29-1.84a2.88,2.88,0,0,0,2,1.79c.69.07,1.49-.93,2.24-1.45l0-.94c-.76-.52-1.49-1.38-2.3-1.48A1.67,1.67,0,0,0,586.13,566.38ZM180.45,586.65c.76.51,1.47,1.31,2.3,1.45a1.71,1.71,0,0,0,2-1.86c0-1.34-.81-2.23-2.06-2-.82.11-1.52,1-2.27,1.53Zm2.38,11.4a1.72,1.72,0,0,0,1.95-1.95c0-1.35-.9-2.2-2.14-2-.81.15-1.48,1.06-2.21,1.63l0,.93C181.26,597.17,182,597.94,182.83,598.05Zm405.25-3.92a1.67,1.67,0,0,0-2,2.06,2.91,2.91,0,0,0,2,1.8c.69.07,1.5-.91,2.25-1.43v-.94C589.61,595.1,588.9,594.23,588.08,594.13Zm-405.37,9.94c-.81.12-1.51,1-2.26,1.54v.93c.76.51,1.58,1.48,2.27,1.4a2.92,2.92,0,0,0,2-1.85A1.67,1.67,0,0,0,182.71,604.07Zm403.42,2a2.86,2.86,0,0,0,2,1.84c.68.09,1.51-.88,2.27-1.39v-.93c-.75-.54-1.45-1.42-2.26-1.54A1.67,1.67,0,0,0,586.13,606.09Zm1.92,11.84c.82-.13,1.55-.92,2.32-1.42,0-.31,0-.62,0-.93-.75-.55-1.44-1.45-2.25-1.57-1.25-.2-2.1.68-2.09,2A1.72,1.72,0,0,0,588.05,617.93ZM185.51,221.53c-.15-.82-1-1.5-1.57-2.24l-.91,0c-.48.78-1.43,1.61-1.34,2.31a2.9,2.9,0,0,0,1.85,2A1.67,1.67,0,0,0,185.51,221.53Zm-3.28,402.06c-.49.79-1.28,1.54-1.39,2.38a1.61,1.61,0,0,0,2.09,1.87,2.85,2.85,0,0,0,1.73-2.06c0-.72-1-1.49-1.57-2.23ZM588.91,203.71c.81-.11,1.51-1,2.27-1.52v-.94c-.76-.51-1.58-1.48-2.27-1.4a2.92,2.92,0,0,0-2,1.83A1.67,1.67,0,0,0,588.91,203.71Zm-2.86,422.21a1.72,1.72,0,0,0,1.94,2c.83-.11,1.58-.88,2.36-1.35,0-.31,0-.62,0-.93-.73-.57-1.4-1.49-2.2-1.64C587,623.72,586.08,624.58,586.05,625.92ZM183.15,199.41c-.53.75-1.52,1.55-1.46,2.24a2.93,2.93,0,0,0,1.77,2,1.68,1.68,0,0,0,2.06-2c-.12-.83-1-1.55-1.46-2.32ZM589,189.91a2.89,2.89,0,0,0-2,1.76,1.66,1.66,0,0,0,1.9,2.1c.82-.08,1.56-.93,2.33-1.43l0-.94C590.44,190.86,589.66,189.85,589,189.91Zm-.88,447.85c.69.08,1.52-.89,2.28-1.39,0-.31,0-.62,0-.93-.75-.54-1.44-1.43-2.26-1.55a1.66,1.66,0,0,0-2,2A2.9,2.9,0,0,0,588.09,637.76ZM185.57,82.41a1.7,1.7,0,0,0-2-1.9c-.83.12-1.56.9-2.33,1.39l0,.94c.74.55,1.43,1.45,2.24,1.58C184.72,84.63,185.57,83.74,185.57,82.41Zm405.58,98.88c-.78-.48-1.52-1.26-2.35-1.37a1.7,1.7,0,0,0-1.95,1.93c0,1.34.89,2.2,2.13,2,.8-.14,1.48-1.05,2.21-1.61C591.18,181.91,591.17,181.6,591.15,181.29ZM183.46,90.5c-.69-.06-1.48.94-2.23,1.47l0,.93c.77.52,1.5,1.37,2.32,1.46a1.66,1.66,0,0,0,1.92-2.09A2.91,2.91,0,0,0,183.46,90.5Zm403.47,1.75a1.66,1.66,0,0,0,1.89,2.11c.82-.08,1.56-.92,2.34-1.42l0-.94c-.74-.54-1.52-1.55-2.21-1.5A2.91,2.91,0,0,0,586.93,92.25Zm-403.34,12a1.66,1.66,0,0,0,1.9-2.11,2.89,2.89,0,0,0-2.05-1.75c-.69,0-1.47,1-2.21,1.5l0,.93C182,103.38,182.77,104.22,183.59,104.3Zm407.58-2.46c-.76-.51-1.58-1.48-2.27-1.4a2.89,2.89,0,0,0-2,1.84,1.67,1.67,0,0,0,2,2c.81-.11,1.52-1,2.27-1.53ZM183.11,643.44l-.87,0a7.87,7.87,0,0,0-1.4,2.37c-.22,1.24.7,2,1.91,2s2.25-.79,2-2.1C184.55,644.87,183.67,644.19,183.11,643.44ZM586.92,112.19a1.66,1.66,0,0,0,2,2c.81-.1,1.53-1,2.29-1.49,0-.32,0-.63,0-.94-.76-.52-1.57-1.5-2.26-1.43A2.92,2.92,0,0,0,586.92,112.19ZM185.5,122.12a2.89,2.89,0,0,0-2-1.79c-.69-.08-1.49.91-2.25,1.42v.94c.76.52,1.48,1.39,2.29,1.5A1.68,1.68,0,0,0,185.5,122.12Zm403.42,2.07c.81-.13,1.51-1,2.26-1.55,0-.31,0-.62,0-.94-.77-.5-1.49-1.3-2.31-1.43a1.71,1.71,0,0,0-2,1.88C586.83,123.49,587.67,124.37,588.92,124.19Zm-2.87,521.63a1.71,1.71,0,0,0,2,1.93c.83-.11,1.57-.89,2.35-1.37l0-.93c-.74-.57-1.41-1.47-2.22-1.62C586.93,643.61,586.07,644.48,586.05,645.82Zm-402.55-462a1.67,1.67,0,0,0,2-2,2.9,2.9,0,0,0-2-1.84c-.69-.09-1.52.88-2.28,1.39v.93C182,182.83,182.69,183.71,183.5,183.83Zm405.32-9.94c.82-.08,1.56-.92,2.34-1.43l0-.93c-.74-.54-1.52-1.56-2.21-1.5a2.91,2.91,0,0,0-2.05,1.75A1.66,1.66,0,0,0,588.82,173.89Zm-403.32-2a2.9,2.9,0,0,0-2-1.84c-.69-.09-1.52.88-2.28,1.39v.93c.75.54,1.45,1.42,2.26,1.54A1.67,1.67,0,0,0,185.5,171.87Zm-2-11.83c-.82.14-1.53.94-2.29,1.45v.93c.76.54,1.46,1.41,2.28,1.53,1.26.18,2.08-.72,2-2.06A1.7,1.7,0,0,0,183.54,160Zm405.38-6c.81-.12,1.51-1,2.26-1.54v-.94c-.76-.5-1.48-1.3-2.3-1.44a1.71,1.71,0,0,0-2,1.87C586.82,153.31,587.67,154.19,588.92,154ZM183.57,140.15c-.83.13-1.55.93-2.32,1.43v.93c.74.55,1.44,1.43,2.25,1.56,1.25.19,2.09-.7,2.08-2A1.71,1.71,0,0,0,183.57,140.15ZM586.05,457a1.71,1.71,0,0,0,2,1.89c.82-.13,1.55-.92,2.32-1.42,0-.31,0-.62,0-.93-.75-.55-1.44-1.45-2.25-1.57C586.89,454.76,586,455.63,586.05,457ZM183.56,303.13a1.67,1.67,0,0,0,1.93-2.08,2.87,2.87,0,0,0-2-1.78c-.69-.07-1.48.92-2.23,1.45v.93C182,302.17,182.74,303,183.56,303.13Zm1.16,163.77c-.11-.84-.93-1.58-1.44-2.37l-.86,0c-.54.75-1.37,1.43-1.58,2.26-.29,1.2.53,2,1.76,2.1S184.9,468.23,184.72,466.9Zm403.34,1.91c.83-.13,1.55-.93,2.31-1.43v-.93c-.75-.55-1.44-1.44-2.26-1.56-1.24-.18-2.09.7-2.07,2A1.71,1.71,0,0,0,588.06,468.81Zm0,6a1.67,1.67,0,0,0-1.9,2.12,2.9,2.9,0,0,0,2.06,1.75c.69.05,1.46-1,2.2-1.51l0-.93C589.59,475.76,588.84,474.91,588,474.83Zm-405.3,13.91c1.31,0,2.26-.77,2-2.09-.17-.83-1-1.52-1.59-2.27l-.87,0a7.78,7.78,0,0,0-1.42,2.36C180.61,488,181.53,488.74,182.73,488.74Zm405.42-4c-1.26-.2-2.1.69-2.1,2a1.71,1.71,0,0,0,2,1.9c.83-.12,1.56-.91,2.33-1.41,0-.31,0-.62,0-.93C589.65,485.8,589,484.91,588.15,484.77ZM182.23,504.3a7.67,7.67,0,0,0-1.39,2.38c-.21,1.23.71,1.95,1.92,1.94s2.24-.81,2-2.12c-.18-.82-1.06-1.5-1.63-2.24Zm.42,10.3c-.81.14-1.48,1-2.22,1.62l0,.93c.78.48,1.52,1.26,2.35,1.37a1.72,1.72,0,0,0,2-1.94C184.76,515.24,183.89,514.38,182.65,514.6Zm407.71,1.45c-.76-.51-1.49-1.36-2.31-1.45a1.67,1.67,0,0,0-1.92,2.09,2.91,2.91,0,0,0,2,1.77c.69.06,1.48-.94,2.23-1.46Zm-1.43-236.67a2.9,2.9,0,0,0-2,1.8,1.67,1.67,0,0,0,2,2.06c.81-.1,1.53-1,2.29-1.49,0-.31,0-.63,0-.94C590.42,280.29,589.62,279.31,588.93,279.38Zm-405.47,3.87c1.25.2,2.1-.66,2.11-2a1.7,1.7,0,0,0-2-1.91c-.83.12-1.56.9-2.34,1.38l0,.93C182,282.2,182.65,283.11,183.46,283.25Zm-.78,241.29c-.81.13-1.5,1-2.24,1.58l0,.93c.78.5,1.62,1.46,2.3,1.36a2.92,2.92,0,0,0,1.94-1.88A1.66,1.66,0,0,0,182.68,524.54Zm403.45,2a2.87,2.87,0,0,0,2,1.84c.69.09,1.52-.88,2.28-1.38v-.94c-.75-.54-1.45-1.42-2.26-1.54A1.67,1.67,0,0,0,586.13,526.56ZM588.9,273.3c.81-.11,1.52-1,2.28-1.52v-.93c-.76-.51-1.57-1.49-2.27-1.41a2.91,2.91,0,0,0-2,1.82A1.67,1.67,0,0,0,588.9,273.3ZM184.72,665.62c-.16-.84-1-1.53-1.57-2.29h-.86a7.65,7.65,0,0,0-1.45,2.35c-.24,1.22.65,2,1.87,2S185,666.94,184.72,665.62Zm401.41-129a2.9,2.9,0,0,0,2,1.77c.69.06,1.47-.94,2.22-1.47l0-.93c-.77-.52-1.51-1.37-2.32-1.46A1.66,1.66,0,0,0,586.13,536.57Zm2.81-277.07a2.94,2.94,0,0,0-2,1.79,1.67,1.67,0,0,0,2,2.07c.81-.09,1.53-1,2.3-1.48,0-.31,0-.62,0-.93C590.43,260.42,589.63,259.43,588.94,259.5Zm-403.45,1.78a2.89,2.89,0,0,0-2-1.78c-.69-.07-1.49.93-2.23,1.46v.93c.77.52,1.49,1.38,2.31,1.47A1.66,1.66,0,0,0,185.49,261.28Zm37.14-215.7h.92c.52-.76,1.51-1.56,1.44-2.26a2.89,2.89,0,0,0-1.82-2,1.65,1.65,0,0,0-2,2C221.26,44.12,222.11,44.83,222.63,45.58ZM233,45.2a7.72,7.72,0,0,0,2.33-1.44v-.89c-.74-.54-1.43-1.41-2.25-1.55-1.28-.23-2.11.69-2.08,2S231.8,45.43,233,45.2Zm9.42.37.93,0c.54-.74,1.55-1.53,1.5-2.22a2.91,2.91,0,0,0-1.77-2A1.66,1.66,0,0,0,241,43.25C241.12,44.07,242,44.8,242.45,45.57Zm-62,411.89c.77.49,1.5,1.28,2.32,1.41a1.72,1.72,0,0,0,2-1.9c0-1.35-.85-2.22-2.1-2-.81.13-1.5,1-2.24,1.58Zm0,39.81c.78.48,1.53,1.26,2.36,1.37a1.72,1.72,0,0,0,1.95-1.95c0-1.34-.89-2.21-2.14-2-.81.15-1.48,1.06-2.21,1.63ZM274.72,43.43a1.63,1.63,0,0,0-1.86-2.11c-.84.1-1.58.91-2.37,1.4l-.05.86c.74.56,1.49,1.58,2.21,1.55A2.85,2.85,0,0,0,274.72,43.43Zm-92,594.32a2.89,2.89,0,0,0,1.95-1.85,1.67,1.67,0,0,0-2-2c-.81.13-1.5,1-2.25,1.56l0,.94C181.23,636.88,182.06,637.84,182.75,637.75ZM292.22,45.58h.92c.52-.76,1.51-1.57,1.44-2.26a2.89,2.89,0,0,0-1.82-2,1.65,1.65,0,0,0-2,2C290.85,44.12,291.7,44.83,292.22,45.58Zm9.94,0h.92c.52-.76,1.51-1.56,1.44-2.26a2.89,2.89,0,0,0-1.82-2,1.65,1.65,0,0,0-2,2C300.79,44.12,301.64,44.83,302.16,45.58Zm9.83,0,.92,0c.56-.73,1.59-1.49,1.55-2.19a2.89,2.89,0,0,0-1.72-2.07,1.66,1.66,0,0,0-2.13,1.87C310.69,44,311.5,44.78,312,45.56ZM449.1,703a2.91,2.91,0,0,0-1.88,1.92c-.09.7.87,1.54,1.36,2.31l.89,0c.56-.75,1.45-1.43,1.6-2.25A1.63,1.63,0,0,0,449.1,703ZM459.94,45.13c.7.06,1.5-.92,2.25-1.45v-.87c-.76-.52-1.48-1.35-2.31-1.49a1.63,1.63,0,0,0-1.94,2A2.84,2.84,0,0,0,459.94,45.13Zm10.29.46c.53-.75,1.39-1.46,1.51-2.27a1.65,1.65,0,0,0-2-2,2.87,2.87,0,0,0-1.83,2c-.08.7.9,1.51,1.42,2.28ZM182.67,657.74c1.29,0,2.28-.7,2.05-2-.14-.83-1-1.55-1.52-2.32h-.87a7.88,7.88,0,0,0-1.49,2.32C180.57,656.94,181.47,657.7,182.67,657.74ZM489.74,45.14c.71.06,1.51-.92,2.27-1.44v-.87c-.77-.53-1.48-1.37-2.31-1.51a1.63,1.63,0,0,0-2,2A2.86,2.86,0,0,0,489.74,45.14ZM184.7,576.3a1.66,1.66,0,0,0-2-2c-.81.1-1.53,1-2.29,1.5v.93c.75.52,1.56,1.51,2.25,1.43A2.9,2.9,0,0,0,184.7,576.3ZM519.79,45.61c.58-.72,1.48-1.36,1.65-2.17a1.64,1.64,0,0,0-1.88-2.1,2.9,2.9,0,0,0-1.95,1.84c-.13.69.8,1.57,1.26,2.36Zm9.66-.44a1.62,1.62,0,0,0,1.94-2c-.15-.81-1-1.49-1.62-2.23l-.89,0c-.48.79-1.43,1.64-1.33,2.34A2.87,2.87,0,0,0,529.45,45.17Zm10,0c.7.07,1.51-.91,2.27-1.43v-.87c-.77-.53-1.48-1.37-2.31-1.51a1.62,1.62,0,0,0-1.95,2A2.82,2.82,0,0,0,539.45,45.13Zm9.82,0a1.62,1.62,0,0,0,2-2c-.12-.82-1-1.52-1.54-2.27h-.9c-.51.77-1.48,1.59-1.4,2.29A2.87,2.87,0,0,0,549.27,45.17Zm37.66,37.12a1.67,1.67,0,0,0,1.87,2.13c.82-.07,1.57-.91,2.35-1.4l0-.93c-.73-.56-1.5-1.58-2.19-1.54A2.94,2.94,0,0,0,586.93,82.29ZM183.45,110.38c-.69-.06-1.47,1-2.22,1.48l0,.94c.77.51,1.5,1.36,2.32,1.45a1.67,1.67,0,0,0,1.91-2.1A2.9,2.9,0,0,0,183.45,110.38Zm405.41,23.75c.82-.1,1.54-1,2.31-1.48v-.94c-.75-.52-1.55-1.51-2.24-1.44a2.93,2.93,0,0,0-2,1.78A1.67,1.67,0,0,0,588.86,134.13Zm.14,26a3,3,0,0,0-2.07,1.73A1.67,1.67,0,0,0,588.8,164c.82-.07,1.57-.91,2.35-1.4l0-.93C590.46,161.06,589.69,160,589,160.08ZM180.44,477.25c.75.52,1.55,1.51,2.24,1.44a2.87,2.87,0,0,0,2-1.78,1.67,1.67,0,0,0-1.94-2.08c-.82.1-1.54,1-2.3,1.48ZM588.92,289.33a2.91,2.91,0,0,0-2,1.8,1.66,1.66,0,0,0,2,2.05c.82-.1,1.53-1,2.29-1.5v-.93C590.42,290.23,589.61,289.25,588.92,289.33ZM182.43,534.07a7.86,7.86,0,0,0-1.58,2.26c-.31,1.21.52,2,1.74,2.11s2.3-.61,2.13-1.94c-.11-.84-.93-1.59-1.43-2.38ZM185.5,152a2.92,2.92,0,0,0-2-1.83c-.69-.08-1.51.9-2.27,1.41v.93c.76.53,1.46,1.42,2.27,1.53A1.67,1.67,0,0,0,185.5,152Zm-2.44,77.27c-.5.78-1.46,1.61-1.37,2.3a2.9,2.9,0,0,0,1.84,2,1.66,1.66,0,0,0,2-2c-.14-.82-1-1.51-1.55-2.26Zm.15,39.75c-.54.73-1.39,1.41-1.57,2.22a1.63,1.63,0,0,0,1.92,2.07,2.87,2.87,0,0,0,1.9-1.93c.11-.69-.85-1.55-1.34-2.33Zm37.16,435.77a1.65,1.65,0,0,0,1.93,2.06c.82-.11,1.55-.94,2.32-1.44l0-.9c-.75-.53-1.54-1.53-2.24-1.48A2.86,2.86,0,0,0,220.37,704.76Zm19.88,0a1.66,1.66,0,0,0,1.94,2.06c.83-.11,1.55-1,2.32-1.46v-.89c-.75-.53-1.54-1.53-2.25-1.47A2.88,2.88,0,0,0,240.25,704.76Zm348.59-465.2a1.71,1.71,0,0,0-2,1.9c0,1.34.84,2.22,2.09,2,.81-.13,1.5-1,2.24-1.57l0-.93C590.39,240.48,589.67,239.69,588.84,239.56ZM182.79,617.93a1.72,1.72,0,0,0,2-1.91c0-1.35-.86-2.21-2.11-2-.81.13-1.49,1-2.23,1.59l0,.93C181.24,617,182,617.8,182.79,617.93Zm89,84.6c-.58.71-1.49,1.34-1.68,2.14a1.65,1.65,0,0,0,1.86,2.12,2.86,2.86,0,0,0,2-1.82c.13-.68-.79-1.57-1.24-2.37Zm10,0c-.6.71-1.52,1.33-1.71,2.13a1.64,1.64,0,0,0,1.83,2.14,2.85,2.85,0,0,0,2-1.79c.15-.68-.75-1.58-1.19-2.39Zm8.24,2.24a1.66,1.66,0,0,0,1.94,2.06c.82-.11,1.54-1,2.31-1.45v-.9c-.75-.53-1.54-1.53-2.24-1.47A2.86,2.86,0,0,0,290,704.76Zm11.9-1.76a2.85,2.85,0,0,0-2,1.83,1.65,1.65,0,0,0,2,2c.82-.14,1.51-1,2.27-1.53l0-.9C303.39,703.89,302.56,702.92,301.86,703ZM185.5,191.74a2.92,2.92,0,0,0-2-1.83c-.69-.08-1.51.89-2.27,1.4v.93c.75.54,1.46,1.42,2.27,1.53A1.67,1.67,0,0,0,185.5,191.74Zm135.83,510.8c-.55.74-1.43,1.42-1.57,2.23a1.66,1.66,0,0,0,2,2,2.87,2.87,0,0,0,1.87-1.93c.1-.69-.86-1.53-1.36-2.3Zm157.54.42a3,3,0,0,0-1.83,2c-.07.7.91,1.51,1.43,2.28h.89c.54-.76,1.41-1.47,1.53-2.29A1.63,1.63,0,0,0,478.87,703ZM589,209.8a2.89,2.89,0,0,0-2,1.76,1.66,1.66,0,0,0,1.91,2.09c.81-.08,1.55-.93,2.32-1.44l0-.94C590.44,210.74,589.66,209.74,589,209.8ZM499.24,702.55l-.92,0c-.51.76-1.48,1.59-1.39,2.28a2.89,2.89,0,0,0,1.85,1.95,1.65,1.65,0,0,0,2-2C500.64,704,499.77,703.29,499.24,702.55Zm10.1,0-.92,0c-.56.73-1.59,1.49-1.55,2.18a2.88,2.88,0,0,0,1.72,2.07,1.66,1.66,0,0,0,2.13-1.86C510.64,704.11,509.83,703.36,509.34,702.58ZM182.72,554.36c-.82.12-1.52,1-2.27,1.53v.94c.77.51,1.58,1.48,2.27,1.39a2.89,2.89,0,0,0,2-1.82A1.67,1.67,0,0,0,182.72,554.36ZM519.29,702.58l-.93,0c-.56.73-1.59,1.48-1.55,2.18a2.88,2.88,0,0,0,1.72,2.07,1.66,1.66,0,0,0,2.13-1.86C520.59,704.11,519.77,703.36,519.29,702.58Zm7.42,2.17a1.65,1.65,0,0,0,1.92,2.07c.84-.13,1.56-1,2.34-1.46,0-.29,0-.58,0-.87-.75-.54-1.53-1.54-2.24-1.48A2.85,2.85,0,0,0,526.71,704.75ZM252.82,45.19a7.67,7.67,0,0,0,2.4-1.36l0-.92c-.75-.55-1.54-1.59-2.24-1.53a2.91,2.91,0,0,0-2,1.82A1.58,1.58,0,0,0,252.82,45.19Zm10.12,0c.82-.16,1.51-1,2.25-1.54l0-.9c-.77-.5-1.6-1.47-2.29-1.38a2.88,2.88,0,0,0-1.95,1.86A1.62,1.62,0,0,0,262.94,45.19Zm19.78,0a2.9,2.9,0,0,0,1.91-1.88c.11-.7-.84-1.55-1.32-2.34l-.89,0c-.57.74-1.47,1.4-1.63,2.22A1.63,1.63,0,0,0,282.72,45.17Zm39.71,0a7.74,7.74,0,0,0,2.39-1.39l0-.92c-.75-.55-1.56-1.57-2.25-1.5a2.92,2.92,0,0,0-2,1.84A1.58,1.58,0,0,0,322.43,45.19ZM450,45.25a1.72,1.72,0,0,0,1.88-2c-.15-.83-1-1.53-1.57-2.29l-.93,0c-.49.8-1.28,1.56-1.39,2.4C447.83,44.54,448.71,45.28,450,45.25Zm29.84-.12c.71.06,1.5-.93,2.25-1.45V42.8c-.77-.52-1.48-1.35-2.31-1.48a1.62,1.62,0,0,0-1.93,2A2.85,2.85,0,0,0,479.82,45.13Zm19.83.06c.82-.14,1.53-1,2.29-1.48,0-.29,0-.57,0-.86-.76-.54-1.55-1.53-2.27-1.48a2.89,2.89,0,0,0-2,1.8A1.62,1.62,0,0,0,499.65,45.19Zm9.94,0a1.58,1.58,0,0,0,1.92-1.9c-.13-.84-1-1.56-1.5-2.34h-.93c-.51.78-1.5,1.62-1.41,2.31A3,3,0,0,0,509.59,45.17ZM183.21,129.82c-.54.73-1.39,1.4-1.57,2.22a1.64,1.64,0,0,0,1.92,2.07,2.91,2.91,0,0,0,1.9-1.93c.11-.69-.85-1.54-1.33-2.32ZM261.6,702.55c-.52.76-1.37,1.47-1.49,2.29a1.65,1.65,0,0,0,2,2,2.89,2.89,0,0,0,1.81-2c.07-.7-.91-1.51-1.43-2.26Zm50.3.42a1.62,1.62,0,0,0-2.08,1.88c.09.82.94,1.56,1.44,2.34l.91,0c.53-.74,1.53-1.52,1.48-2.22A2.87,2.87,0,0,0,311.9,703ZM183.55,289.28c-.83.14-1.54.93-2.3,1.44v.93c.75.54,1.46,1.42,2.27,1.54,1.25.18,2.09-.71,2.06-2.05A1.7,1.7,0,0,0,183.55,289.28Zm405.38,9.94a1.71,1.71,0,0,0-2.08,1.8,1.79,1.79,0,0,0,2,2.11c.81-.09,1.54-.95,2.31-1.46l0-.94C590.44,300.2,589.75,299.38,588.93,299.22ZM457.14,704.77a1.62,1.62,0,0,0,1.92,2.05c.83-.13,1.55-1,2.32-1.48l0-.86c-.75-.54-1.54-1.53-2.25-1.48A2.86,2.86,0,0,0,457.14,704.77Zm9.94,0a1.63,1.63,0,0,0,1.9,2.07c.83-.13,1.56-.94,2.34-1.45l0-.86c-.75-.55-1.53-1.55-2.24-1.5A2.87,2.87,0,0,0,467.08,704.75ZM488.74,703a2.9,2.9,0,0,0-1.74,2c-.05.7,1,1.47,1.5,2.21l.89,0c.51-.78,1.35-1.52,1.44-2.35A1.62,1.62,0,0,0,488.74,703ZM588.87,219.75a2.91,2.91,0,0,0-2,1.85,1.67,1.67,0,0,0,2,2c.82-.13,1.51-1,2.25-1.57l0-.93C590.39,220.61,589.56,219.65,588.87,219.75Zm-2.74,356.5a2.89,2.89,0,0,0,1.94,1.85c.69.09,1.53-.86,2.3-1.36v-.93c-.74-.55-1.43-1.44-2.24-1.56A1.66,1.66,0,0,0,586.13,576.25ZM183.51,209.75c-.82.15-1.52,1-2.27,1.48v.94c.76.52,1.48,1.39,2.29,1.49,1.26.15,2.08-.74,2-2.09A1.71,1.71,0,0,0,183.51,209.75Zm402.54,456a1.7,1.7,0,0,0,2,1.9c.83-.12,1.56-.9,2.33-1.39l0-.93c-.74-.55-1.42-1.45-2.23-1.58C586.91,663.51,586.06,664.38,586.05,665.72ZM538.45,703a2.88,2.88,0,0,0-1.74,2c-.05.7.95,1.47,1.49,2.22l.9,0c.51-.79,1.35-1.53,1.44-2.36A1.62,1.62,0,0,0,538.45,703Zm10,0a2.91,2.91,0,0,0-1.8,2c-.07.7.92,1.5,1.44,2.25h.9c.53-.76,1.39-1.48,1.5-2.3A1.62,1.62,0,0,0,548.44,703Zm41.93-196.86c-.77-.51-1.5-1.36-2.32-1.45-1.26-.14-2.06.77-2,2.11a1.7,1.7,0,0,0,2.08,1.79c.82-.16,1.51-1,2.26-1.5Zm-2.3-7.54c.69.09,1.52-.86,2.29-1.35l0-.93c-.74-.55-1.43-1.44-2.24-1.57a1.66,1.66,0,0,0-2,2A2.91,2.91,0,0,0,588.07,498.57Zm0,159.06c.68.09,1.51-.87,2.28-1.37v-.93c-.74-.55-1.44-1.43-2.25-1.55a1.66,1.66,0,0,0-2,2A2.89,2.89,0,0,0,588.09,657.63ZM589,144.07c.81-.15,1.48-1.06,2.21-1.62l0-.93c-.78-.48-1.64-1.41-2.32-1.3a2.91,2.91,0,0,0-1.91,1.89A1.67,1.67,0,0,0,589,144.07Zm-.81,440.12c-1.25-.22-2.1.65-2.12,2a1.7,1.7,0,0,0,2,1.91c.83-.12,1.56-.89,2.34-1.37l0-.93C589.66,585.23,589,584.33,588.17,584.19ZM232.31,703a1.62,1.62,0,0,0-2,1.95c.12.82,1,1.53,1.51,2.29h.9c.52-.76,1.5-1.57,1.43-2.27A2.92,2.92,0,0,0,232.31,703Zm19.95,0a1.63,1.63,0,0,0-2.09,1.88c.1.82.93,1.56,1.44,2.34l.9,0c.54-.74,1.55-1.51,1.5-2.21A2.91,2.91,0,0,0,252.26,703ZM316,275.43a3.92,3.92,0,0,0,3.89-3.7,4.36,4.36,0,0,0-4.15-4.21c-1.87,0-3.27,1.54-3.32,3.68A4,4,0,0,0,316,275.43Zm141.24-.35a4.27,4.27,0,0,0,4.27-4.09,3.56,3.56,0,0,0-3.68-3.38,4.07,4.07,0,0,0-4.26,3.57A3.83,3.83,0,0,0,457.24,275.08ZM388.09,241.3a3.78,3.78,0,0,0,3.83-3.76,3.65,3.65,0,0,0-3.32-4,4.23,4.23,0,0,0-4.08,4.28A3.36,3.36,0,0,0,388.09,241.3ZM268.74,222.36c-.68.06-1.84,1.29-1.74,1.8a2.88,2.88,0,0,0,1.89,1.93c.66.1,1.49-.92,2.25-1.45l0-1C270.31,223.2,269.48,222.3,268.74,222.36ZM506,227.26c.84-.13,1.57-.93,2.35-1.43v-.93c-.77-.51-1.59-1.49-2.29-1.4a2.93,2.93,0,0,0-2,1.87A1.55,1.55,0,0,0,506,227.26ZM389.52,169.34c-.49.79-1.4,1.6-1.36,2.35s1.25,1.88,1.73,1.78a2.9,2.9,0,0,0,2-1.86c.11-.66-.88-1.51-1.39-2.28ZM457.24,396a4.26,4.26,0,0,0,4.27-4.08c0-1.83-1.54-3.28-3.67-3.37a4,4,0,0,0-4.27,3.56A3.82,3.82,0,0,0,457.24,396Zm-141.18.37a4,4,0,0,0,3.83-3.76,4.33,4.33,0,0,0-4.2-4.15c-1.88,0-3.25,1.58-3.27,3.73A4,4,0,0,0,316.06,396.37ZM506,348.18c.84-.14,1.57-.93,2.35-1.43,0-.3,0-.61,0-.92-.77-.5-1.6-1.47-2.3-1.38a2.94,2.94,0,0,0-2,1.85A1.55,1.55,0,0,0,506,348.18Zm-237.08-1.12a1.54,1.54,0,0,0,1.84-1.91c-.15-.83-1-1.54-1.45-2.31h-.93c-.49.77-1.45,1.62-1.35,2.31A2.89,2.89,0,0,0,268.89,347.06ZM459.18,448.21a4,4,0,0,0-4.06,3.78,3.86,3.86,0,0,0,3.9,3.68,4.2,4.2,0,0,0,4-4.29A3.58,3.58,0,0,0,459.18,448.21Zm-141.9-.09a3.47,3.47,0,0,0-3.3,3.71A4,4,0,0,0,317.6,456a3.82,3.82,0,0,0,3.84-3.73A4.26,4.26,0,0,0,317.28,448.12Zm190.28-44a3,3,0,0,0-1.89,2,1.56,1.56,0,0,0,2,1.8c.83-.16,1.53-1,2.29-1.51l0-.92C509.11,404.93,508.24,404,507.56,404.09ZM270.5,402.91a1.58,1.58,0,0,0-1.95,1.87c.12.84.94,1.58,1.44,2.37h1c.48-.79,1.37-1.62,1.31-2.37A2.76,2.76,0,0,0,270.5,402.91Zm188.9-75.62a4.1,4.1,0,0,0-4.28,3.56,3.87,3.87,0,0,0,3.67,3.9,4.2,4.2,0,0,0,4.26-4.07A3.49,3.49,0,0,0,459.4,327.29Zm-142.09-.09a3.48,3.48,0,0,0-3.34,3.68,4.08,4.08,0,0,0,3.6,4.23,3.87,3.87,0,0,0,3.88-3.7A4.29,4.29,0,0,0,317.31,327.2ZM270.39,282a2.71,2.71,0,0,0-1.83,1.78,1.6,1.6,0,0,0,1.82,2c.82-.1,1.55-.93,2.32-1.43v-.95C271.93,282.92,271.13,282,270.39,282Zm237.15,4.9c.83-.13,1.57-.92,2.35-1.42l0-.91c-.76-.52-1.58-1.52-2.27-1.44a2.91,2.91,0,0,0-2,1.86A1.54,1.54,0,0,0,507.54,286.93ZM370.12,86.5a12.57,12.57,0,0,0,2.66.33c.26,9.58.52,19,.79,28.68a9.38,9.38,0,0,0-2.1.47,10.85,10.85,0,0,0-1.73,1.32c.61.5,1.15,1.28,1.84,1.43a23.36,23.36,0,0,0,4.73.48c7.28,0,14.57,0,21.85,0a4,4,0,0,0,1.94-.27c.64-.4,1.47-1.15,1.45-1.74s-.9-1.33-1.57-1.6a6,6,0,0,0-2.54-.2,1.92,1.92,0,0,1-2.22-1.44c-1.5-4-3.15-7.87-4.63-11.83a3.84,3.84,0,0,1,0-2.44c1.43-4.05,2.93-8.08,4.54-12.06a2.94,2.94,0,0,1,1.79-1.33c1.45-.41,3-.47,4.45-.87.5-.14,1.22-1,1.14-1.32a2.2,2.2,0,0,0-1.32-1.41,12.36,12.36,0,0,0-3.72-.49q-11.33.33-22.63.83a25.21,25.21,0,0,0-4.89.72c-.54.13-.92.94-1.37,1.43C369.1,85.64,369.53,86.29,370.12,86.5Zm21.67,28.72h-8l4-9.53C389.23,109.06,390.45,112,391.79,115.22Zm.56-28.45-4.16,9.53-4.48-9.53Zm-12.5.07a2,2,0,0,1,1.33,1.06c1.53,4.08,3,8.19,4.4,12.32a3.46,3.46,0,0,1-.14,2.22c-1.63,4-3.43,7.88-5,11.87-.71,1.78-1.95,1-3.42,1.11-.27-9.52-.54-18.93-.82-28.63A29.45,29.45,0,0,1,379.85,86.84Z"/></svg>