<svg xmlns="http://www.w3.org/2000/svg" viewBox="0 0 750 750"><path d="M606.18,169.11q0-60.51,0-121C606.17,34.41,596.69,25,583,25H187.51c-13.43,0-22.91,9.45-22.91,22.85v327q0,163.87,0,327.75a23.08,23.08,0,0,0,.62,5.5c2.63,10.62,11.24,16.94,22.94,16.94H581.92c.6,0,1.19,0,1.79,0,7.71-.16,14-3.18,18.49-9.52,3.14-4.4,4-9.39,4-14.67Q606.17,435,606.18,169.11ZM582.94,720.72H187.59c-9.35,0-16.49-5.47-18.37-14.12a18.6,18.6,0,0,1-.33-4q0-327.67,0-655.34c0-10.37,7.69-18,18.11-18H583.73c10.61,0,18.17,7.74,18.17,18.61q0,89.36,0,178.7V375.07q0,163.29,0,326.58C601.91,713.19,594.43,720.72,582.94,720.72ZM551.48,281.37c-.94-3.89-2.3-5.2-6.3-4.16-4.54,1.19-9.15,2.23-13.59,3.76-10.51,3.64-20.92,7.59-31.4,11.3-11.81,4.17-23.65,8.22-35.48,12.31a20.43,20.43,0,0,1-2.13.46c2.93-3.33,5.16-6.54,8.77-8.37a46,46,0,0,0,4.23-2.59c1.58-1,1.78-2.15.72-3.66l-.86-1.2a17,17,0,0,1,1.06-1.45c14.59-15.83,29-31.83,43.87-47.38,6.93-7.25,13.52-14.73,19.78-22.52a4.64,4.64,0,0,0,1.24-2.22c.08-1.23.14-2.84-.55-3.66a9.82,9.82,0,0,0-12.29-2.33,19.53,19.53,0,0,0-4.9,4.79c-4.85,6-9.57,12.15-14.35,18.22a5,5,0,0,1-1.09.75c-.34-7-1.12-9.14-3.9-10.81a1.23,1.23,0,0,0-.39.08,4.1,4.1,0,0,0-.66.42c-3.82,3.13-5.17,7.46-5.49,12.09-.22,3.08.27,6.21.33,9.31a13.49,13.49,0,0,1-.72,3c-.63-.8-.81-1.06-1-1.3-1.46-1.6-2.69-1.39-3.59.63a6.16,6.16,0,0,0-.48,1.3c-.81,3.89-2.94,7-5.53,9.94-5.22,5.9-10.64,11.66-15.37,17.94-4.5,6-8.18,12.52-12.28,18.78-1,1.45-2.15,2.74-3.23,4.1l-.53-.25c.07-.62.09-1.24.21-1.85,3.05-15.6,6.06-31.21,9.17-46.8,1.73-8.7,3.7-17.35,5.39-26.06.72-3.69,1.05-7.47,1.45-11.22.31-2.82-.5-5-2.27-5.16-3.51-.37-7.12-.8-10.11,2-2.78,2.66-3.46,6-3.56,9.58-.09,2.84-.16,5.69-.51,8.51-.57,4.67-1.34,9.31-2.05,14a11.13,11.13,0,0,1-.56,1.53c-2.05-4-4.37-7.17-9-7.55a8.55,8.55,0,0,0-.62,1.16c-1.58,4.66-.44,9.06,1.72,13.17,1.41,2.67,3.42,5,5.07,7.58a14.05,14.05,0,0,1,1,2.86L449.3,260c-2.36-.67-3.27.11-2.87,2.56.19,1.17.64,2.31.8,3.48a19.65,19.65,0,0,1,.39,5.1c-.72,5.45-1.47,10.91-2.6,16.29a98.66,98.66,0,0,0-2,20.12c0,.85-.08,1.7-.13,2.69a19.56,19.56,0,0,1-2.36,1.08q-21.15,6.24-42.29,12.43a13.46,13.46,0,0,0-1.88.65c-2.53,1.15-3.42,2.62-3,4.92.6,3.37,1.81,4.6,4.83,4.73a10.49,10.49,0,0,0,3-.23c10-2.4,20-4.77,29.39-9.06.5-.23,1-.38,2.11-.75-.81,1.16-1.33,1.82-1.77,2.54A20.52,20.52,0,0,0,429,330c-1,2.68-.3,4.15,2.39,6,1.94,1.32,3.56,1.27,5.55-.55a52.31,52.31,0,0,0,3.92-4.56,10.71,10.71,0,0,1-.18,1.32,120.76,120.76,0,0,0-4.3,23,91.14,91.14,0,0,0-.76,10.29c.05,3.41,1.77,4.8,5.17,5,2.76.15,4.22-1.12,4.93-4.33.15-.7.19-1.44.29-2.16q3.21-21.6,6.44-43.2a10.49,10.49,0,0,1,.62-1.74,90.16,90.16,0,0,0,9.23-1.64c7.77-2.18,15.49-4.57,23.2-7,4.33-1.35,8.62-2.35,13.25-1.56,3.33.56,3.94-.5,2.71-3.67,0-.1.06-.24.23-.85a16.26,16.26,0,0,1,3,1c5.17,3,10.44,5.62,16.67,4.77A46.79,46.79,0,0,0,527,308.6c-.61-1.37-.92-2.21-1.34-3-1.56-2.93-4.51-4.06-7.34-5.31.17-.28.22-.44.31-.48a4.78,4.78,0,0,1,.92-.37c7.62-1.95,15.19-4.15,22.89-5.75C548.12,292.51,553,287.78,551.48,281.37Zm-25,4.45.21.51c-5.18,3.19-10.35,6.38-16.72,6.62l-.19-.48Zm-14.64-41.55-.39-.32c2.84-5.84,7.92-9.38,13.4-13.14ZM529,213a5.39,5.39,0,0,1,8.66,1.05c-1.1,2-3,3-6,2.63l3-2c.19-1.48-.78-1.76-1.94-1.69-1.67.11-3.81,2.63-3.73,4.36a2.37,2.37,0,0,0,2.53,2.48,15.06,15.06,0,0,1,3.12.06c-.51.53-.94,1.31-1.56,1.53-3.73,1.32-7.51,2.49-12.2,2.09C523.69,219.72,526,216,529,213Zm-13.82,17.08a11.53,11.53,0,0,1,6.28-3.85c2.91-.53,5.84-.94,8.76-1.41l.41.65a30.62,30.62,0,0,1-4.36,2.71A31.51,31.51,0,0,0,509.86,243c-2.25,4.23-5.22,8.08-7.9,12.08a3.05,3.05,0,0,1-1.76,1.15c.62-1.61,1.2-3.24,1.86-4.83C505.33,243.65,509.22,236.26,515.15,230.06Zm-26.45,30.1c-.81,4.07-4.38,8.21-7.63,8.67ZM481,271.24c5.5-.94,7.82-5.37,9.66-9.9a101.44,101.44,0,0,0,3.05-10.24c.22-.75.44-1.5.82-2.83.26,1.16.39,1.74.53,2.38,1.28,1.34,2.34.69,3.29-.44,1.3-1.56,2.57-3.15,3.85-4.73l.42.25c-.8,1.7-1.67,3.37-2.38,5.1-3.08,7.49-7.16,14.38-13.06,20a52.25,52.25,0,0,1-8.67,6.12,42.85,42.85,0,0,1-5.71,2.49C475,276.11,476.26,272,481,271.24Zm-16,19.61c2.25-4.36,5-8.1,10.14-9.44a23.31,23.31,0,0,0,3.87-1.8l.2.41c-2.34,3-4.62,6.07-7.07,9-.63.76-1.8,1.06-2.72,1.57a48.35,48.35,0,0,1-6,3C463.89,292.67,464.45,291.78,464.93,290.85Zm-3.6-40.69c-1.16-6.42,1.24-12,3.67-17.52l.57.15Q463.44,241.48,461.33,250.16Zm-1.74-35.87a5.24,5.24,0,0,1,7.8-3.32c0,2.32-.86,3.73-3.43,4.85l1.17-2.84c-.49-1.3-1.46-1.12-2.45-.47-1.46,1-2,4.32-.92,5.81s2.18,1.42,6.09-1.22c-.18,1-.07,1.89-.46,2.37-2.49,3.06-5,6.13-9.35,8.2C458.54,222.9,458.55,218.47,459.59,214.29Zm-2.28,19.41a5,5,0,0,1,1.49-2.52c2.53-2.47,5.17-4.83,7.77-7.23l.8.49A33.48,33.48,0,0,1,465,229,31.17,31.17,0,0,0,459,249.89c.31,4.72-.13,9.49-.28,14.24a15.43,15.43,0,0,1-.61,2.62,8,8,0,0,1-.63-1.58c-.69-6.24-1.74-12.48-1.88-18.73C455.46,242.21,456.58,237.93,457.31,233.7Zm-8.89,56.62a13.48,13.48,0,0,0,4.2-10.89c-.16-4.86-1.67-9.35-3.17-13.86-.21-.63-.36-1.27-.52-1.92,0-.1.07-.24,0-.15.85.34,2.07,1.18,2.46.9a5,5,0,0,0,1.51-2.7c.4-1.57.5-3.21,1-4.77,2.45,15.34,3.93,30.51-7.69,43.44C446.71,297,445.42,293.16,448.42,290.32Zm-.29-3.65c.56-3.31,1.13-6.62,1.69-9.93C451.23,280.19,450.51,284.83,448.13,286.67Zm3.71,10.86c1.1,3.52-1.54,7.94-5.65,9.86l-.49-.3C447.71,304,449.73,300.82,451.84,297.53ZM413.2,327.58c-4.51,1.27-9,2.67-13.54,3.72-2.89.67-3.88-.45-3.61-3.88,5.72-2.69,11.5-1.33,17.37-.41C413.29,327.37,413.27,327.56,413.2,327.58Zm-3.12-3.7c6.5-2.64,12.87-3.88,19.56-2.48C426.35,325.16,416.5,326.48,410.08,323.88Zm17-5.26,12.36-4C438.86,318.44,433.06,320.4,427.06,318.62Zm6.72,15.64c-2.72-1.18-3.36-2.32-1.89-4.37,2.89-4,6.07-7.78,9.31-11.89C441.76,322.92,437.23,332.63,433.78,334.26Zm8.36,33.36c-2.47.66-3.93.14-3.83-1.83.26-5.1.92-10.17,1.42-15.25C443,354.45,444.15,364.51,442.14,367.62Zm1.91-14.43c-3.39-6.78-3.66-13.31-.3-20.12C446.06,339.8,445.89,346.34,444.05,353.19ZM447,335.52c-2.62-4.6-1.58-11.85,2.6-15.16C448.67,325.69,447.84,330.48,447,335.52ZM443,323c.73-7.61,3.91-13.38,10.4-17.39C451.84,312.52,448.25,318,443,323Zm15-21.13c4.61-3.62,9.49-6.89,14.29-10.27.31-.22.86-.11,1.3-.15l.3.77c-8.72,3.12-13,11.17-19.27,17C455.35,306.53,455.79,303.58,458,301.84Zm6,6.7-8.91,7.68C455.39,311.65,458.69,308.84,464,308.54Zm11.24,2.17-.2-.6c2.63-2.93,6.35-2.65,9.81-3.16.06.2.12.4.19.61Zm24.05-8.26a4.24,4.24,0,0,0-2.31,1.76c-.22.53.73,1.55,1.24,2.51-1.63-.25-3.39-.67-5.16-.78-4.14-.26-8.28-.59-12.42-.48a9.73,9.73,0,0,0-8.17,4.6,7.93,7.93,0,0,1-5.69,3.51c-1.55.29-3.08.65-4.62,1l-.33-.53c2.65-2.27,5.11-4.82,8-6.73,6-4,12.87-5.6,19.89-6.28,4.77-.46,9.62-.09,14.8-.09C502.57,301.48,500.88,301.83,499.3,302.45Zm24.59-7.14c-9.73,3.18-19.57,3.53-29.57,3.09-.06-.2-.12-.41-.17-.61a37.7,37.7,0,0,1,5.22-1.58c4-.64,8-1.18,12-1.51a29.73,29.73,0,0,0,18.37-8.47c1.38-1.3,2.68-2.77,5.38-2.86C531.41,287.76,530.07,293.3,523.89,295.31Zm24.4-9.13a7,7,0,0,1-5,4.18c-3.45.78-7,1.28-10.48,1.91.46-3.86,5.73-10.42,8.52-10.5-.66,2-3.25,4-.08,5.91,1.4.82,4.5-.13,5.39-1.47.68-1,.55-1.65-.6-2.68l-2.57,1.59-.41-.61a6,6,0,0,1,4.61-3.55A4.69,4.69,0,0,1,548.29,286.18Zm-174.16,47.2a3.5,3.5,0,0,0,2.89-2.93c1-4-.19-5.93-4.47-7-5.46-1.35-11-2.52-16.37-4.06-9-2.55-17.9-5.33-26.84-8a8.93,8.93,0,0,1-1.57-.88c0-.81-.07-1.53-.12-2.25-.23-3.76-.18-7.57-.75-11.29-1.1-7.19-2.52-14.34-3.87-21.5a22.78,22.78,0,0,1,.3-10.79c1.12-3.84.3-4.63-4.15-3.71a19.37,19.37,0,0,1,1.55-3.29c3.64-4.75,6.85-9.68,6.83-15.94a40.05,40.05,0,0,0-.83-5.61c-2.61.26-4.43,1-5.8,2.5s-2.46,3.15-3.8,4.9a10,10,0,0,1-.42-1.42c-1-7.87-2.11-15.73-2.91-23.63-.68-6.75-4.15-10.2-10.86-10.2-4.28,0-5.66,1.59-5.05,5.88.66,4.65,1.07,9.36,2.05,14,2.62,12.3,5.56,24.54,8.24,36.83,2.35,10.74,4.52,21.52,6.75,32.29a14.16,14.16,0,0,1,.15,1.61l-.65.31c-2-2.83-4.1-5.58-5.95-8.5a44.14,44.14,0,0,1-2.52-5.39c-.88-1.91-2-2.27-3.8-1.26l-1.47.81c-.47-.64-.95-1.36-1.5-2C287,268.32,274.54,254,262.52,239.37c-7.61-9.26-14.81-18.85-23.45-27.21a8.52,8.52,0,0,0-2.92-2.29c-1.11-.36-3-.44-3.65.23-4.76,4.58-6.84,9.84-.92,16,1.87,1.95,4.21,3.44,6.1,5.38,3.92,4,7.69,8.22,11.51,12.36a5.74,5.74,0,0,1,.64,1.17c-7.52-.36-9.06,0-11.36,2.61a7.47,7.47,0,0,0,.41,1c2.64,4.26,6.84,6.15,11.46,7.05,3,.59,6.06.5,9.09.82a15,15,0,0,1,2.95,1l-1.36.89c-1.9,1.33-1.84,2.55.18,3.73a7.61,7.61,0,0,0,1.24.63c3.78,1.27,6.56,3.83,9.14,6.76,5.15,5.87,10.14,11.93,15.73,17.36,5.35,5.2,11.39,9.69,17.08,14.54,1.33,1.13,2.46,2.49,3.68,3.74l-.3.5c-.67-.15-1.35-.25-2-.46-16.9-5.63-33.9-11-50.66-17A310.54,310.54,0,0,0,225,278.88a6.19,6.19,0,0,0-3.12-.19,4.66,4.66,0,0,0-2.73,1.95,9.87,9.87,0,0,0,3.12,12.28,18.61,18.61,0,0,0,6,2.34c7.56,1.92,15.15,3.7,22.73,5.55a7.33,7.33,0,0,1,1.32.72c-4.12,1.63-7.62,3.49-8.51,8.06a9,9,0,0,0,.94.66c4.49,2.23,9.06,1.63,13.47,0,2.83-1.06,5.41-2.77,8.16-4.08a11.72,11.72,0,0,1,2.8-.53c-1.41,3.6-.78,4.91,2,4.33,5.83-1.22,11.15.51,16.53,2.17,9.48,2.93,18.84,6.36,28.86,7.13a5.35,5.35,0,0,1,1.23.43,17.8,17.8,0,0,1,.71,2.21c2.77,14.5,5.78,29,7.06,43.71a9.11,9.11,0,0,0,.42,1.93c.87,2.68,2.16,3.68,4.54,3.54,3.35-.19,4.77-1.3,5.28-4.26a10.87,10.87,0,0,0,.1-3c-1.12-10.08-2.19-20.16-5.21-29.91-.2-.63-.33-1.29-.6-2.36a56.14,56.14,0,0,0,5.05,4c2.61,1.61,4.42,1.16,6.62-1.27,1.75-1.93,1.8-3.66,0-6.06a31.83,31.83,0,0,0-2.6-2.73c-.32-.33-.61-.7-1.29-1.49.94.35,1.31.46,1.66.62,9.44,4.22,19.45,6.53,29.48,8.75A14.69,14.69,0,0,0,374.13,333.38Zm-51.82-46-.69.13c-2.49-3.1-1.82-6.81-1.79-10.39l.53-.1Zm-20.4-69c3.89,2.21,4.89,2.33,5.88.75s.39-4.74-1-5.66c-1-.65-1.95-.9-2.53.51l1.42,3c-2.56-1-3.7-2.74-3.67-5,2.51-1.65,5.75-.73,7.48,2.33a9.27,9.27,0,0,1,1.26,3.92c.18,3.27.06,6.56.06,9.76C307.37,227,301.69,221.1,301.91,218.34Zm7.22,32.29-.61.14-4.42-17.14.52-.14C307.17,238.92,309.54,244.39,309.13,250.63Zm4.23,11.15q-.39,2.45-.81,4.89a5.93,5.93,0,0,1-.61.89,48.84,48.84,0,0,1-1-5.89c-.13-3.83-.18-7.68,0-11.5A29.94,29.94,0,0,0,304.63,230c-1.1-1.46-2.19-3-1.94-5.47,3.08,2.85,5.95,5.35,8.61,8a7.07,7.07,0,0,1,1.42,3.21C314.89,244.39,314.71,253.07,313.36,261.78Zm1.21,7.92c.18-4.08.78-8.14,1.19-12.2l.57,0c.28,1.88.57,3.75.85,5.62.2,1.32.73,2.27,2.39,2.14l1.86-1.65c-.69,2.3-1.16,4.11-1.77,5.88a33.89,33.89,0,0,0-1.9,13.06,10.86,10.86,0,0,0,3.9,8,7.07,7.07,0,0,1,2.38,5.22c.12,1.7.3,3.4.5,5.47a7.1,7.1,0,0,1-1-.69C315.79,291.61,314.07,281,314.57,269.7Zm10.46,38-.61.4c-4.18-1.59-5.92-4.33-5.69-9.76Zm-75.15-79.53L261,242.79l-.42.32c-5.45-3.54-8.27-9.1-11.18-14.6Zm-8.56,2.66c-2.93-2.66-6-5.07-8.57-7.9a6.2,6.2,0,0,1-.46-8.2,11.75,11.75,0,0,1,1.7-1.42c2.09,1.33,2.81,3.25,2.15,6.33l-1.92-3.45a2.05,2.05,0,0,0-1.54,2.9c.47,1.68,2.85,3.57,4.26,3.31,3.09-.57,2.12-3.12,2.28-5.11C241.64,218.43,242.9,226.4,241.32,230.87ZM246,236a8.84,8.84,0,0,1-1.55-4.41c-.23-3.13-.07-6.28-.07-9.45,1.64.92,1.91,2.85,2.61,4.57,1.3,3.16,2.59,6.35,4.18,9.36,1.77,3.32,4.66,5.65,7.61,8,4.05,3.16,7.88,6.6,11.78,9.95a8.58,8.58,0,0,1,1.15,1.54C261.62,250.85,252.66,244.87,246,236Zm35.29,40.13-7.07-8,.41-.42c2.84,2.25,6.34,3.93,7.1,8Zm2.84,1.45c-.38-4.15-2.45-7.1-5.67-9.57-3.85-3-8.29-4.61-12.76-6.26-.78-.29-1.55-.64-2.3-.95,1-.52,2.39-.84,2.49-1.39a4.07,4.07,0,0,0-1-2.72c-1-1.36-2.32-2.55-3.5-3.81l.37-.42c1.65,1,3.25,2.14,4.95,3.09A60.63,60.63,0,0,1,285,271.46a23.16,23.16,0,0,1,3.23,5.68c1.13,2.87,1.87,5.89,2.81,8.94C288,284.85,284.36,280.56,284.1,277.6ZM295.33,290c-1.42-1.65-1.56-4.4-2.28-6.66a26.47,26.47,0,0,1-.94-3.55c5.39,4.72,10.48,9.59,11.7,17.41C300.85,294.78,297.68,292.75,295.33,290Zm7.77-1.73a2.09,2.09,0,0,1,.26-1.81c2.4,9,9.88,14.29,15.3,21.44A16.42,16.42,0,0,1,308.29,299C306.49,295.47,304.79,291.88,303.1,288.29Zm-59.56-1.09,16.75,6.38c-.05.18-.09.36-.13.54-6.36-.16-11.57-3.33-16.8-6.43Zm-18.43,3.92a5.46,5.46,0,0,1-2.88-8.27c2.19-.09,3.87,1.17,4.5,3.94l-2.57-1.55c-1.23.14-1.33,1.05-1,2.11.55,1.55,3.8,2.7,5.53,2s1.87-2,0-6c2.75.09,7.93,6.32,8.71,10.63C233.22,293,229,292.54,225.11,291.12Zm32.16,7.94c-4.55-.5-9-2-13.41-3.43a8,8,0,0,1-3.44-2.86c-1.86-2.45-3.47-5.1-5.19-7.67.15-.22.3-.43.44-.65a28.08,28.08,0,0,1,4.13,2.72A31.24,31.24,0,0,0,259.86,296c4.85.33,9.65,1.4,14.47,2.19a3.22,3.22,0,0,1,1.76,1,9.56,9.56,0,0,1-1.39.22C268.88,299.36,263,299.69,257.27,299.06ZM295,311.32l-9.86-2.95c.06-.21.12-.41.17-.61,3.44.48,7.14.09,9.88,2.92C295.15,310.89,295.09,311.11,295,311.32Zm3.42-.09c-3.34-4.82-8.34-5.56-13.56-5.3-3.54.17-7.05.95-10.58,1.46l-2.65.35,1.72-1.5c.46-1.75-.59-2.34-1.91-2.7a24.86,24.86,0,0,1-5.33-1.92c1.74,0,3.49.06,5.23,0a56,56,0,0,1,23.57,3.62,50.48,50.48,0,0,1,9,5.25,25.07,25.07,0,0,1,4.56,4.43C305,314,300.93,314.82,298.45,311.23Zm8.15-2.44c4.83-.09,6.89,3.35,8.93,6.94C314.31,315.93,307.76,310.75,306.6,308.79Zm8-.09c4.83,1.11,12.88,7.41,15.69,12.27C323.12,319.27,317.69,315.56,314.65,308.7Zm9.47,27.66c-.84-4.49-1.62-8.68-2.45-13.08C325.5,324.82,326.66,330.47,324.12,336.36Zm3.06,17.37c-1.78-6.65-2.22-13.18,0-19.71C330.53,337.61,330.57,348.5,327.18,353.73Zm3.77-2.66c.11.05.31.08.32.13.68,4.64,1.51,9.26,2,13.92.28,2.88-.82,3.61-3.84,3.16C327.27,365.1,328.12,356.06,331,351.07Zm9.65-19.95c-1.32,2.81-2.68,3.53-4.35,2a143,143,0,0,1-10.67-11.06C331.32,324,337.13,325.77,340.6,331.12Zm-11.38-16.78,14.24,4.3C338.2,320.61,331.9,318.77,329.22,314.34Zm11.53,7.23c6.87-1.61,13.2-.4,19.85,2.17C353.43,326.18,347,325.8,340.75,321.57Zm16.37,6c3.67-2.56,14.67-2.48,17.58,0,.11,2.9-.67,4-3.15,3.5C366.78,330.09,362.09,328.77,357.12,327.55Zm45.45,223.9c.75-4.92-1.09-9.13-4-12.86-1.86-2.39-4.23-4.37-6.29-6.61a14.43,14.43,0,0,1-1.44-2.71c1.06.19,1.44.28,1.83.32,1.95.17,2.73-.75,2.2-2.62a6.28,6.28,0,0,0-.56-1.48c-2-3.51-2.44-7.33-2.43-11.31,0-7.81.28-15.65-.32-23.42-.58-7.5-2.16-14.93-3.22-22.4-.25-1.72-.18-3.47-.26-5.21l.53-.14c.39.58.83,1.13,1.18,1.73,9.2,15.87,18.62,31.62,27.48,47.68q7.31,13.26,15.82,25.68a5.11,5.11,0,0,0,1.9,2c1.13.44,2.69.9,3.66.46a9.73,9.73,0,0,0,5.75-10.92,18.34,18.34,0,0,0-3.08-6.11c-2.81-4.08-5.91-8-8.76-12-1.83-2.62-3.41-5.41-5.43-8.64,4.47,1.57,8.39,2.56,12.19-.39-1.73-5.27-5.71-8-10.34-9.85-2.87-1.14-6-1.56-9-2.41a12,12,0,0,1-2.5-1.46c3.78-1.85,3.87-2.89.93-5-.48-.35-1-.62-1.47-1a33.08,33.08,0,0,1-4.33-4c-1.71-2.18-3.09-4.62-4.58-7-4.53-7.07-8.26-14.68-13.91-21-1.27-1.42-2.5-2.88-3.71-4.27a9.48,9.48,0,0,1,.3-1.32,7.18,7.18,0,0,1,.62-1.24c7.54-12.7,14.83-25.54,23.64-37.44a8.32,8.32,0,0,0,1-1.73c1.15-2.67.8-4.2-1.26-5.76-2.58-1.95-4.3-2-6.6-.14a9.83,9.83,0,0,0-1.92,2c-5.85,8.36-11.79,16.66-16,26-.27.6-.62,1.17-1.17,2.21-.35-2.31-.48-4-.87-5.7-.82-3.39-2.55-4.51-6.08-4.12-2.69.3-3.94,1.86-4,5.17,0,1.12.16,2.24.24,3.36,0,.46,0,.91,0,1.92-.45-.81-.62-1.09-.75-1.38-4.27-9.49-10.3-17.9-16.34-26.28a14.09,14.09,0,0,0-3.23-3.17,3.9,3.9,0,0,0-4.81-.08c-3.21,2.18-3.77,4.19-1.69,7.51,1.15,1.85,2.71,3.44,3.88,5.27q10.47,16.41,20.83,32.89a13.23,13.23,0,0,1,.75,1.71c-2.42,3.08-4.95,5.83-6.95,8.92-4.22,6.5-8.21,13.14-12.18,19.79a26.14,26.14,0,0,1-8.51,9.23c-2.85,1.78-2.6,3.11.47,4.47.1,0,.13.2.47.79a16,16,0,0,1-2.88,1.22c-5.91,1.2-11.68,2.69-15.84,7.5a41.87,41.87,0,0,0-3.05,4.71c4.21,3,8.07,2,12.29.45a14.22,14.22,0,0,1-.85,1.74c-4.46,6.56-8.85,13.17-13.44,19.64-4,5.63-3.46,10.08,1.36,14.89,2.77,2.78,5.46,2.25,7.62-1,2.55-3.87,5.31-7.63,7.59-11.65,5.51-9.73,10.75-19.63,16.2-29.4,6-10.82,12.17-21.57,18.27-32.35.33-.59.77-1.12,1.31-1.91.84,5.84-.28,11-2.11,16.08-.89,2.47-.34,3.43,2.17,3.93a7.15,7.15,0,0,1,1,.35,16.75,16.75,0,0,1,.13,1.81c-.46,20.93-.65,41.86-1.51,62.76-.44,10.61-.64,21.17-.05,31.76a6.35,6.35,0,0,0,.81,3,4.2,4.2,0,0,0,2.42,1.79c4.73.78,9.95-2.44,11.11-7.06a22.57,22.57,0,0,0,.19-6.68c-.17-2.83-.74-5.64-.88-8.47-.22-4.7-.24-9.4-.33-14.1a14.52,14.52,0,0,1,.22-1.79c2.74,3.65,5.57,6.39,10.21,6.09A6.09,6.09,0,0,0,402.57,551.45Zm22-32q-4.23-8.1-8.47-16.18c5.25,4.11,7,10,9,15.9Zm8.95-1c2.37,3,4.9,5.76,7,8.85a6.44,6.44,0,0,1-.64,8.39,12.78,12.78,0,0,1-2,1.3c-1.83-1.67-2.23-3.75-.87-6.18.27.9.55,1.79.89,2.91.95.77,1.64.14,2.09-.89.66-1.52-.95-4.53-2.74-5.2-1.95-.74-2.76.17-4,4.44C431.15,530.67,431.28,522.55,433.52,518.54ZM427.11,508c2.94,4.51,4.41,8.89,2.93,14.15a33.31,33.31,0,0,0-.6,4.88c-1.81-1.77-1.93-3.66-2.12-5.53a29.64,29.64,0,0,0-8.45-18.57c-2.11-2.1-4.23-4.2-6.13-6.49s-3.47-4.75-5.19-7.14l.63-.53C415.15,494.47,422.06,500.18,427.11,508Zm-25.37-41.06,5.84,9.51C404.11,474.71,401.17,470,401.74,466.89Zm-2.33-.92c-.69,5.45,2.73,9,6.46,12a107,107,0,0,0,9.23,6.13l1.93,1.27-.14.3-1.84-.26c-1.62.83-1.44,2-.67,3.17,1,1.59,2.06,3.13,3.1,4.7l-.46.39c-1.28-1.16-2.52-2.37-3.85-3.46a54.9,54.9,0,0,1-15-18A53.88,53.88,0,0,1,394.72,462a24.67,24.67,0,0,1-.5-6.3C396.5,458.84,400,461.26,399.41,466Zm11.83-66.36,3,2.29c-2.5,6.27-7.92,9-13.16,12C404.44,409.23,406.29,403.51,411.24,399.61Zm-5.51,14.51c-.69,4-8,12.4-13.12,15.07C394.1,422.44,398.36,417.61,405.73,414.12Zm-8.92,15.07c-2.39,4-4.59,7.73-6.87,11.55C387.93,437.1,390.92,432.17,396.81,429.19Zm-7.1,21.22.58-.11c.57,3.77,1.15,7.53,1.74,11.47C388.85,459.69,387.89,454.64,389.71,450.41Zm-37-47.57c1.87-2.62,3.31-3,4.89-.89,3,3.9,5.68,8.05,8.49,12.09l-.57.5C360.61,411.35,355.14,408.73,352.74,402.84Zm8.46,11.91a21.29,21.29,0,0,1,13.46,14.95C369,426.47,362.88,419.64,361.2,414.75Zm9.11,14.8c5.54,2.39,9.08,8,8.28,13.43ZM365.79,467c.87,2.73-1.57,6.91-5.62,9.38Zm-30.66,65.62c-.62-2-.05-5-3.52-4.62-1.64.18-3.53,3-3.27,4.7.18,1.14.65,2,2.17,1.65l1.07-3.53c1.27,2.76.91,4.87-.71,6.47-3-.72-4.59-3.26-4-6.67a8,8,0,0,1,1.27-3.29c2.1-2.85,4.37-5.57,6.6-8.37C337,522.77,337.28,531,335.13,532.66ZM343.6,520l-.47-.24c1.8-6,3.69-12,8.86-16.25Q347.79,511.71,343.6,520ZM350,502.28A29.15,29.15,0,0,0,342,515.82a55,55,0,0,0-1,6c-.27,1.87-.29,3.81-2.19,5.51-.43-4.09-.94-7.85-1.17-11.63a6.91,6.91,0,0,1,1-3.35A61.75,61.75,0,0,1,353.56,494l6.16-5.19.35.39C357.75,494.36,353.91,498.39,350,502.28Zm10.22-17c-2.81,3-6,5.64-9,8.44a1.1,1.1,0,0,1-1,.26c1-1.53,2.09-3,2.91-4.62a4.76,4.76,0,0,0,.55-3c-.1-.43-1.63-.52-2.77-.83,1.56-1,3.1-2,4.72-2.93a33.16,33.16,0,0,0,10-8.32c1.92-2.37,3.08-5,2.63-8.06a8.79,8.79,0,0,1,2.22-7.12c.95-1.16,1.81-2.4,2.87-3.82C373.85,467.69,368,476.94,360.17,485.26Zm15.42-23.91,1.53-11.2C380,453.54,379.38,457.74,375.59,461.35ZM387.87,483c-1.51,3.39-3,6.66-4.41,9.93l-.38-.1c-.24-3.77-1-7.61-.55-11.31.36-3.25,2-6.35,3.48-9.53C386.64,475.73,387.27,479.44,387.87,483Zm-2.37-26.39c-3.51-6.24-4.35-12.92-3.74-20.06C386.23,442.77,387.76,449.32,385.5,456.64Zm-4.21-34.55c3-.91,4.1-.46,4.37,2.42.45,4.83.53,9.71.78,14.79C382.75,435.88,379.73,425.59,381.29,422.09Zm-1.62,58.59-.74-.39c4.5-8.21,2.39-17.15,3-26.16a16.55,16.55,0,0,1,2,13.39c-1,4-2.15,7.91-3.3,11.84C380.52,479.85,380,480.24,379.67,480.68Zm1.76,78.86-.6-.06,1.3-18.53C384.5,547.3,382.85,553.41,381.43,559.54Zm.52,3.36a31.59,31.59,0,0,0,2.49-22.18c-1.11-4.73-1.4-9.66-2-14.5a3.08,3.08,0,0,1,.52-2c1,2.84,2,5.67,2.91,8.53a58.1,58.1,0,0,1,3.08,22.68,13.55,13.55,0,0,1-2.3,5.95,71.21,71.21,0,0,1-5.38,6.58l-.72-.16A26.66,26.66,0,0,1,382,562.9Zm3.49,18.29a13.83,13.83,0,0,1-2.74,0,6.2,6.2,0,0,1,2.07-5.93l.66.19c-.25,1-.5,1.94-.79,3,.71,1.25,1.64.87,2.5.08,1.27-1.17,1.19-4.64-.08-5.89-1.43-1.44-2.68-1-5.72,2.36,0-1-.36-1.85-.08-2.39,1.92-3.6,4-7.09,7.63-9.66.52,3.71,1.15,7.09,1.42,10.5C390.61,577.41,388.52,580.54,385.44,581.19Zm3-53.41v6.3c-.06,0-.24-.05-.26-.12-3.18-9.72-5.95-19.53-5.06-29.92a22.75,22.75,0,0,1,1.14-5.82c1.16-3.18,2.65-6.23,4-9.34l.62.11c.13,2.81.3,5.61.37,8.41a2.4,2.4,0,0,1-.6,1.42c-4.22,4.9-3.84,10.36-1.71,15.87,1.33,3.44,3.12,6.7,4.7,10,.28.58.55,1.16.82,1.74l-.33.22-1.39-1.33C388.79,525.14,388.39,526.27,388.4,527.78Zm.55-25.07v11.65C386.83,509.58,386.85,504.71,389,502.71Zm191.43-80.85-4.26-3.09v253c-12.29,2.35-18.64,10-21.3,21.67H432.73c2.6,2.8,5,4.62,8.94,4.27,4.67-.41,9.4-.1,14.1-.1l101.37,0a10.26,10.26,0,0,0,1.39-.18c1-13.76,9.37-19.9,21.85-22.14ZM194.63,671.71V418.81l-4.12,3.06v253.4c12.5,2.29,20.94,8.41,21.82,22.16a13,13,0,0,0,1.47.16q58.83,0,117.66,0c3.21,0,4.43-2.47,6.29-4.35H216C213.35,681.63,206.9,673.93,194.63,671.71ZM577,76.4v243l4.13-3.06V72.85c-12.49-2.31-20.93-8.43-21.83-22.3h-3.84q-57.43,0-114.88-.07c-3.41,0-4.76,2.37-6.71,4.37H555.6C558.34,66.44,564.75,74.17,577,76.4ZM191.32,316.33l4.23,3.1V76.37c12.21-2.27,18.59-9.94,21.28-21.56H339.07c-2.58-2.42-4.48-4.63-8.18-4.36-4.94.37-9.92.09-14.89.09l-101.37,0a13.24,13.24,0,0,0-1.51.16c-1,13.87-9.46,19.93-21.8,22.16ZM415,76.17H355.5v49.68H415Zm-4.15,45.42h-51V80.38h51ZM344.1,659.68c1.9-.06,2.32-1.71,2.63-3.25.62-3,1.11-6.13,1.84-9.15,1.8-7.33,3.72-14.62,5.54-21.95a20.18,20.18,0,0,0,.26-3.22l-3.07-1.22a10.92,10.92,0,0,0-1.34,1.89,24.11,24.11,0,0,0-1.43,3.91c-1.85,7.45-3.62,14.92-5.43,22.39-.11.45-.29.88-.43,1.33l-.5,0c-.74-1.82-1.59-3.6-2.2-5.46-.75-2.33-1.21-4.76-2-7.07a2.79,2.79,0,0,0-1.83-1.7,2.74,2.74,0,0,0-2,1.47c-1.28,2.91-2.33,5.91-3.47,8.88-.21.55-.46,1.09-.78,1.83-1.57-7.2-3.05-14.06-4.58-20.9a29,29,0,0,0-1.25-4c-.42-1.13-.95-2.39-2.47-2.11S320,623,320,624.25a20.8,20.8,0,0,0,.21,3.16c1.12,6.67,2.25,13.33,3.46,20,.55,3.06,1.28,6.09,2,9.12a2.9,2.9,0,0,0,2.73,2.48c1.55.12,2.27-.83,2.74-2.11l1.71-4.67c.82-2.26,1.64-4.52,2.53-7,1.73,4,3.37,7.76,4.92,11.53C341,658.56,342.19,659.74,344.1,659.68Zm53.48-36a2.72,2.72,0,0,0-1.86-1.4c-.65,0-1.45.74-1.92,1.36a3.59,3.59,0,0,0-.39,1.91c-.14,4.56-.27,9.13-.35,13.7-.05,3.2,0,6.41,0,9.62l-.29.07c-.24-.51-.51-1-.71-1.53-1.12-2.91-2.15-5.85-3.36-8.71q-3.63-8.58-7.46-17.07a2.12,2.12,0,0,0-1.66-1,2,2,0,0,0-1.5,1.25,32.14,32.14,0,0,0-.41,5.71c.24,9.66.57,19.32.88,29a3.56,3.56,0,0,0,.33,1.92c.51.66,1.38,1.5,2.05,1.46a3.41,3.41,0,0,0,2.2-1.53,4.28,4.28,0,0,0,.24-2.32c-.1-3.51-.27-7-.36-10.52-.06-2.27,0-4.53,0-7.26,1.64,4.31,3,8.22,4.62,12.06a75.63,75.63,0,0,0,3.53,7.31c.82,1.48,3.23,2.14,4.93,1.63s1.9-1.87,2.05-3.3a16.46,16.46,0,0,0,.13-2q-.11-13.8-.26-27.61A6.43,6.43,0,0,0,397.58,623.66ZM279.1,160.92c.79,6,1.85,11.88,2.81,17.81l.42.06a4.45,4.45,0,0,0,.32-.86c.83-5.15,2-10.29,2.37-15.48s3.26-8.18,7.89-9.76c2.18-.75,4.46-1.22,6.69-1.81.59-.15,1.18-.25,1.77-.38a3.18,3.18,0,0,0-1.69-.72,27.51,27.51,0,0,1-10.74-3.88,7.07,7.07,0,0,1-3.4-4.9q-.81-5.3-1.66-10.58c-.47-2.9-1-5.79-1.44-8.68-.47.26-.59.49-.62.72-.94,5.82-1.94,11.62-2.75,17.45-.39,2.78-1.53,5-4,6.21a81.55,81.55,0,0,1-8.08,3.17,34.14,34.14,0,0,1-4.09.89,12.05,12.05,0,0,0,2.56.83c3.12,1,6.29,2,9.29,3.3C277.44,155.52,278.7,157.89,279.1,160.92ZM494.32,550.4c2.31,1,3.41,3.21,3.73,5.75s.76,5.24,1.18,7.85c.57,3.55,1.17,7.09,1.76,10.64a2.44,2.44,0,0,0,.74-1.46c.88-5.42,2-10.82,2.55-16.27.43-3.95,2.58-6.22,5.91-7.74a31.25,31.25,0,0,1,4.26-1.6c1.93-.56,3.91-1,5.87-1.41v-.33a17.73,17.73,0,0,1-2.3-.49c-3.22-1.12-6.51-2.13-9.62-3.52a6.4,6.4,0,0,1-3.81-5q-.79-5.19-1.64-10.39c-.48-3-1-5.92-1.47-8.88a1.59,1.59,0,0,0-.7,1.1c-.88,5.36-2,10.69-2.53,16.08a9.32,9.32,0,0,1-6.12,8.25,31.79,31.79,0,0,1-4.08,1.52c-2,.57-4,1-6,1.44a8.6,8.6,0,0,0,2.11.74C487.56,547.86,491,548.93,494.32,550.4Zm-87.64,77.29c0,.65,0,1,0,1.3-.13,9.13-.31,18.26-.4,27.39,0,3.71,3,5.62,6.21,3.8a39.68,39.68,0,0,0,7.13-5c8.9-8.08,7.76-23.61-.93-29.6-5-3.43-10.11-3.46-15.44-1.31-.68.28-1,1.48-1.47,2.26a12.51,12.51,0,0,0,2.38,1.23A9.21,9.21,0,0,0,406.68,627.69Zm4.61.13c1.91-.23,3.3.75,4.59,1.88,6.24,5.48,6.26,16.25,0,22.21-1.27,1.21-2.74,2.21-4.12,3.3l-.47-.36Zm-37.17,29.65c-1.36-11.69-4.83-22.89-8-34.15-.22-.76-1.27-1.82-1.9-1.8a3,3,0,0,0-2,1.79c-1.2,3.43-2.25,6.91-3.21,10.42s-1.79,7.18-2.68,10.79c-1.7.79-4.17.3-4.14,2.66,0,.93,1.49,1.85,2.3,2.78.36.16.27.61.16,1-.42,1.67-.93,3.32-1.24,5a2.23,2.23,0,0,0,1.73,2.9c1.41.31,2.23-.54,2.69-1.78.2-.56.32-1.15.49-1.72.6-2,1.21-4,1.84-6.09h8c.14.7.24,1.34.42,2,.69,2.39,1.3,4.82,2.2,7.14a2.44,2.44,0,0,0,2.12,1.11A2.47,2.47,0,0,0,374.12,657.47Zm-12.69-13.34c.88-4.3,1.73-8.38,2.57-12.47h.44l2.79,12.13Zm74.95,11.65c-2.65.4-4.26-1-4.64-4-.25-2-1.41-3.18-3-3s-2.47,1.61-2.28,3.59c.47,5,3.87,7.93,9.16,8a9.89,9.89,0,0,0,10.11-10.19c-.11-4.77-2.24-8.37-5.81-11.47a46.54,46.54,0,0,1-5.95-6.79c-1.16-1.49-.44-3,.7-4.31a2.5,2.5,0,0,1,3.6-.24c1.39,1,2.53,2.36,3.83,3.51a24.84,24.84,0,0,0,2,1.47c.33-.84,1-1.72.91-2.5-.37-2.84-2.45-4.43-4.76-5.72-3.31-1.83-5.87-1.62-8.43.62a8.44,8.44,0,0,0-2.54,9,18.82,18.82,0,0,0,6.68,9.17,10.35,10.35,0,0,1,4.7,7.5C441,653.23,439.38,655.32,436.38,655.78ZM346.19,50.48c3.16.63,6.37,1,9.7,1.54a13.39,13.39,0,0,0-1.32,3.24c-.15,1.13-.16,2.83.51,3.38a4.11,4.11,0,0,0,3.58.36,14.56,14.56,0,0,0,8.25-8.88A10,10,0,0,0,365.74,41a46,46,0,0,0-5.95-7,4.2,4.2,0,0,0-3.61-.43c-1.5.53-1.56,2.21-1.21,3.61a32.33,32.33,0,0,0,1.44,3.88c.21.53.52,1,.67,1.33-3.7.5-7.35.87-10.95,1.55-1.75.33-4,.82-3.88,3.23C342.35,49.39,344.37,50.11,346.19,50.48Zm11.2,6.33-.63-.53,2.9-4.84,4.43-.9C362.31,53.52,360.35,55.72,357.39,56.81Zm.82-20.26A18.7,18.7,0,0,1,364.1,44l-3.73-.84c-.88-2-1.82-4.12-2.77-6.24Zm6.53,10.76a37.48,37.48,0,0,1-19.33-.11C348.38,44.94,361.26,45,364.74,47.31Zm60.73,650.32c-3.16-.63-6.37-1-9.69-1.54A12,12,0,0,0,417,693a5.69,5.69,0,0,0-.47-3.62c-.9-1.31-2.53-.88-3.82-.23a15.27,15.27,0,0,0-7.87,8.54,11,11,0,0,0-.54,4.08c.18,4.6,2.84,8,5.86,11.13,2,2.12,4.06,2.63,5.42,1.67s1.6-3,.5-5.67c-.48-1.17-1.08-2.3-1.49-3.18,3.72-.51,7.34-.86,10.89-1.54,1.75-.33,4-.81,3.89-3.23C429.32,698.71,427.3,698,425.47,697.63Zm-10.84-6.48c-1,4.37-2.49,6.19-6.9,6.22A13,13,0,0,1,414.63,691.15Zm-1.18,20.43a19,19,0,0,1-5.87-7.47c1.13.23,1.83.37,2.52.53.32.07.63.18,1.23.35.87,2,1.8,4.1,2.73,6.22ZM407.28,701a30.31,30.31,0,0,1,18.67.19A31.77,31.77,0,0,1,407.28,701ZM172.66,340.33a42.31,42.31,0,0,0,6.9,5.52c8.07,4.8,15.78-1.71,18-7.62a3.42,3.42,0,0,0-.49-3,4.3,4.3,0,0,0-3.2-.62,17.38,17.38,0,0,0-3.75,1.47c0-.74,0-1.33-.13-1.89-.49-3.06-.89-6.13-1.59-9.14a3.1,3.1,0,0,0-3-2.73c-1.69,0-2.25,1.4-2.75,2.73a9.73,9.73,0,0,0-.62,2.08c-.43,3.32-.8,6.65-1.19,10a49.55,49.55,0,0,0-4.66-1.94c-1.54-.47-3.23-.62-4.29,1A3.14,3.14,0,0,0,172.66,340.33Zm17.17-.59,4.9-2.91.45.59c-1,3.05-3.32,4.86-6.27,6.86C189.26,342.53,189.51,341.32,189.83,339.74Zm-4.57-13.94a30.07,30.07,0,0,1,.21,18.62A31.85,31.85,0,0,1,185.26,325.8Zm-10,11.91,6.3,2.66c.31,1.33.54,2.34.86,3.78a18.56,18.56,0,0,1-7.45-5.84C175.06,338.11,175.16,337.91,175.26,337.71ZM357.2,688.82c-2.58-.9-4.35.93-3.6,3.6a41.43,41.43,0,0,0,1.58,3.94c-1.43.08-2.68.09-3.92.21a27.18,27.18,0,0,0-3.93.58,16.56,16.56,0,0,0-4.28,1.48c-2.42,1.41-2.25,3.62.26,4.82a10.71,10.71,0,0,0,3,1c3.3.46,6.63.79,9.9,1.17-.63,1.56-1.44,3.22-2,5-.43,1.42-.43,3,1,3.95a3,3,0,0,0,4-.55,41.9,41.9,0,0,0,5.81-7.18C369.85,698.62,362.91,690.82,357.2,688.82Zm-.54,22.77,2.9-6.67,3.67-.81C361.47,707.93,359.16,710.62,356.66,711.59Zm-11.73-10.35a30.15,30.15,0,0,1,18.69-.19C357.43,703.13,351.2,702.89,344.93,701.24Zm14-4.54-3.16-5.34c3.11.51,5.83,2.93,7.34,6.15ZM181.2,397.37c.34,3,.56,6,1.14,9,.33,1.74.81,4,3.22,3.9,2.23-.07,2.94-2.1,3.31-3.92.64-3.16,1-6.36,1.55-9.71a15.12,15.12,0,0,0,3.41,1.37c1.06.16,2.66.11,3.2-.54a3.89,3.89,0,0,0,.46-3.39,14.38,14.38,0,0,0-9.5-8.61c-4.19-1.18-7.86.33-11.06,2.84a22.76,22.76,0,0,0-5,5.24c-1.36,2.07.13,4.19,2.63,4.07a11.8,11.8,0,0,0,3.43-.84,33.6,33.6,0,0,0,3.19-1.54A21,21,0,0,0,181.2,397.37Zm14-2.24-.47.64-4.91-2.87-.92-4.48C191.93,390.23,194.12,392.21,195.23,395.13Zm-9.54-7.38c1.79,6.62,1.48,12.85,0,19.4C183.37,404.37,183.4,391.51,185.69,387.75Zm-10.37,7.18-.6-.92,7.06-5.63.56.4-.75,3.38ZM468.09,644.45a88,88,0,0,0,9.29-1.77,3.52,3.52,0,0,0,2.06-2.48c.08-.8-.94-2-1.78-2.52a12,12,0,0,0-4.1-1.36c-2.51-.43-5.07-.62-7.72-.92a17.24,17.24,0,0,0,1.43-3.65c.15-1,0-2.58-.64-3.18a3.72,3.72,0,0,0-3.24-.4,15.74,15.74,0,0,0-4.3,2.73c-7.39,6.27-5.23,19.27,3.75,23a3.73,3.73,0,0,0,.56.2c1.83.48,3.57-.59,3.42-2.46a25.82,25.82,0,0,0-1.42-5.28,12.54,12.54,0,0,0-.95-1.84A24.11,24.11,0,0,0,468.09,644.45Zm-3.39-14.2c-.75,3.87-2.28,6.31-6.86,6.31A13.46,13.46,0,0,1,464.7,630.25Zm-1.14,20.47c-2.63-1.71-4.2-4.33-6-7.5l3.87.88,2.77,6.25Zm-6.2-10.51a30,30,0,0,1,18.69.24C469.78,642,463.55,642.32,457.36,640.21ZM589.67,335.65c-.57-3.76-1-7.55-1.82-11.27a3.23,3.23,0,0,0-2.32-2,3.31,3.31,0,0,0-2.57,1.65,23.33,23.33,0,0,0-1.69,5.65c-.37,2-.42,4.13-.62,6.31a17.45,17.45,0,0,0-3.58-1.43c-1.07-.16-2.66-.13-3.21.51a3.86,3.86,0,0,0-.48,3.39,14.74,14.74,0,0,0,9.29,8.59c5.57,1.81,12.19-2.48,15.5-6.63,1-1.27,1.83-2.74.73-4.34s-2.79-1.4-4.33-.92-3.14,1.3-4.9,2.05A13.91,13.91,0,0,0,589.67,335.65Zm-14,1.81c.13-.21.26-.42.4-.62l5,2.81.94,4.6C579,342.32,576.73,340.41,575.65,337.46Zm9.76,7a30.34,30.34,0,0,1,.19-18.68A31.88,31.88,0,0,1,585.41,344.47Zm10.38-6.91c-.66,2.46-4.36,5.52-7.25,6.26.23-1.07.46-2.07.75-3.38ZM414,59.09a3.88,3.88,0,0,0,3.4-.47c.64-.55.69-2.15.52-3.21a16,16,0,0,0-1.37-3.51c2.87-.35,5.59-.52,8.23-1.06a12.28,12.28,0,0,0,4.49-1.92c1.56-1.08,1.35-3-.31-3.92a9.76,9.76,0,0,0-3.31-1.27c-3.38-.52-6.79-.86-10.21-1.27.63-1.55,1.43-3.15,2-4.84.45-1.49.49-3.11-1.06-4.11a3.07,3.07,0,0,0-4,.65A40.5,40.5,0,0,0,407,40.49C401.8,48.69,407.75,56.39,414,59.09Zm.28-22.53c.19.1.38.2.56.31-.93,2.13-1.85,4.25-2.75,6.3l-3.76.86C409.93,40.86,411.64,38.33,414.3,36.56Zm12.42,10.06c-3.29,2.33-14.86,2.46-19.16.23A38.78,38.78,0,0,1,426.72,46.62Zm-11.38,9.89c-2.19,0-4.52-2-6.8-5.77C412.87,50.77,414.34,52.48,415.34,56.51Zm183,335.9a42.62,42.62,0,0,0-7-5.68c-8.07-4.77-15.78,1.72-18,7.66a3.52,3.52,0,0,0,.51,3.05,3.88,3.88,0,0,0,3,.65,18.71,18.71,0,0,0,3.77-1.46c.34,2.79.51,5.5,1,8.13a12.76,12.76,0,0,0,1.86,4.51c1.12,1.66,3,1.47,4-.28a9.59,9.59,0,0,0,1.25-3.31c.52-3.37.85-6.77,1.26-10.16,1.57.64,3.17,1.45,4.86,2,1.49.45,3.1.48,4.09-1.07A3.05,3.05,0,0,0,598.31,392.41Zm-22.75,3c1.14-3.3,3.45-5.15,6-6.91C581.85,392.45,580.39,394.38,575.56,395.46Zm10.19,11.34c-2.19-2.35-2.46-14.77-.32-18.78C587.35,391.78,587.49,403.06,585.75,406.8Zm3.56-14.62c-.29-1.25-.52-2.26-.76-3.31,2.48.39,6.35,3.47,7.41,6.21Zm-290,260.72a4.39,4.39,0,0,0,3.77-.52,35.78,35.78,0,0,0,5.88-7.12c4.81-8.11-1.93-15.92-7.75-18-2.59-.93-4.41.86-3.7,3.5a37.56,37.56,0,0,0,1.53,3.88c-2.68.31-5.3.52-7.88,1A11.11,11.11,0,0,0,287.1,637a3.66,3.66,0,0,0-1.62,2.62c0,.77,1.08,1.69,1.89,2.24a6.9,6.9,0,0,0,2.8.95c3.32.46,6.65.81,10,1.2-.66,1.64-1.46,3.32-2,5.07C297.74,650.52,297.73,652.32,299.32,652.9Zm2.09-2.94-.65-.41,2.73-6.22,3.69-.85A18.57,18.57,0,0,1,301.41,650Zm5.7-14-4.3-.88-3.09-5.21C302.65,630.14,305.17,632.33,307.11,635.93Zm-18.24,3.74a29.77,29.77,0,0,1,18.66-.25C301.35,641.52,295.13,641.19,288.87,639.67ZM185.74,50.51c2,2.54,4.09,5,6.06,7.31-1.52.64-3.27,1.26-4.9,2.11-1.4.73-2.49,1.87-2.1,3.66a3,3,0,0,0,3.29,2.33,43.22,43.22,0,0,0,9-1.06c8.93-2.36,9.83-12.35,7.14-18.24-1.14-2.5-3.68-2.55-5.06-.18a29.23,29.23,0,0,0-1.64,3.91c-2.4-1.81-4.76-3.69-7.24-5.4a9.17,9.17,0,0,0-3.45-1.38c-2.46-.43-3.72,1.1-2.88,3.43A12.71,12.71,0,0,0,185.74,50.51Zm2.66,12.84c-.09-.36-.18-.71-.28-1.06l6.42-2.69,3,1.86,0,.64Zm13.44-15.79c1.56,3,1.29,6,.68,9.31C199.2,53.64,199.42,51.24,201.84,47.56Zm-1.65,12.17a31.56,31.56,0,0,1-13.58-13A30,30,0,0,1,200.19,59.73ZM580,690.19c1.32-.51,2.9-1,4.36-1.74s3-1.92,2.54-4c-.45-1.87-2.15-2.41-3.74-2.32a40.64,40.64,0,0,0-8.39,1c-8.92,2.39-10,12.08-7.27,18.17a3.71,3.71,0,0,0,2.68,1.85c.83,0,2-1,2.52-1.79a17.79,17.79,0,0,0,1.49-3.61c2.62,1.92,5.16,3.91,7.86,5.68,1.6,1,3.63,2,5.29.44s.36-3.7-.69-5.2C584.53,695.77,582.18,693,580,690.19Zm3.6-4.32-6.44,2.62-3-1.85A11.32,11.32,0,0,1,583.55,685.87Zm-13.77,14.64c-1.48-3-1.27-6-.65-9.09A5.9,5.9,0,0,1,569.78,700.51Zm1.68-12.11a31.53,31.53,0,0,1,13.62,13A30.15,30.15,0,0,1,571.46,688.4ZM570.27,62c3.94,3.51,8.73,4.38,13.82,4,1.55-.11,3.11-.55,3.55-2.32.5-2-.82-3.13-2.34-3.91s-3.23-1.34-4.54-1.88c2.21-2.79,4.56-5.54,6.63-8.49,1.06-1.5,2.46-3.46.7-5.2s-3.68-.63-5.29.43c-2.69,1.77-5.23,3.76-7.89,5.69a13.74,13.74,0,0,0-1.37-3.43c-.66-.9-1.88-2-2.8-2a3.91,3.91,0,0,0-2.64,2.19,14.53,14.53,0,0,0,.26,12.1A8.55,8.55,0,0,0,570.27,62Zm14.1.29c-.06.22-.13.44-.19.65-3.17.59-6.22-.11-9.6-1.18l3.29-2.12ZM586,46.83A37.57,37.57,0,0,1,572.4,60.1C572.51,56.69,581.39,47.93,586,46.83Zm-15.29.9c1.81,2.23,3,5.62-.69,9.15C569.13,52.26,569.32,49.86,570.69,47.73ZM201.38,686.13c-3.84-3.53-8.62-4.32-13.63-4-1.61.1-3.28.49-3.73,2.37-.49,2.09,1,3.2,2.55,4s3.1,1.27,4.47,1.81a34.8,34.8,0,0,0-2.62,2.94,70.12,70.12,0,0,0-5.22,7.87c-1.14,2.2.29,3.82,2.75,3.47a7.09,7.09,0,0,0,2.94-1.07c2.67-1.81,5.23-3.76,7.88-5.7.32.9.63,2,1.07,3,.61,1.35,1.32,2.69,3.13,2.57s2.54-1.45,2.89-2.87a24.77,24.77,0,0,0,.8-5.86A11.09,11.09,0,0,0,201.38,686.13Zm-14.1-.29c.06-.22.12-.43.19-.65,3.19-.57,6.25.13,9.63,1.2l-3.3,2.1Zm-1.48,15.55a32.17,32.17,0,0,1,13.58-13A29.81,29.81,0,0,1,185.8,701.39Zm15.31-.73c-2.66-3.35-2.4-6.38.59-9.33A14.34,14.34,0,0,1,201.11,700.66ZM378.36,57.28a2.7,2.7,0,0,0,2.28.49c.48-.22.82-1.4.75-2.1A6.47,6.47,0,0,1,386,48.5c3.72.94,5.48,3.5,5,7.32-.17,1.29.22,2.21,1.56,2.17a3.57,3.57,0,0,0,2-1.08A11.17,11.17,0,0,0,397,45a11.48,11.48,0,0,0-21.4-.39C373.74,49,374.9,54.58,378.36,57.28Zm2.55-13.86a7.26,7.26,0,0,1,9.12-1c3.29,2,4.51,4.81,3.52,8.61-4.09-8.17-11.16-7-14.5-.22C377.91,48.53,378.68,45.49,380.91,43.42ZM393.4,690.91a3.15,3.15,0,0,0-2.46-.54c-.39.11-.72,1.42-.64,2.14.37,3.39-1.41,6-5.08,7.12-3.52-1.33-4.89-3.68-4.54-7.43a2.29,2.29,0,0,0-.7-1.83,2.57,2.57,0,0,0-2,.13,4.22,4.22,0,0,0-1.45,1.32,10.87,10.87,0,0,0-1.5,12.09c2.08,4.45,5.93,6.55,10.69,6.68,4.49.12,8.88-3.23,10.52-7.51S396.67,693.53,393.4,690.91Zm-2.9,13.91c-3.2,2.53-6.45,2.73-9.49.59a7.09,7.09,0,0,1-2.83-8.29c3.11,6.59,10.2,8.55,14.51.15A6.52,6.52,0,0,1,390.5,704.82ZM577.37,371.24a10.89,10.89,0,0,0-2.79.63c.43,1,.6,2.3,1.33,3a11.13,11.13,0,0,0,15.15,0,11.32,11.32,0,0,0,1.42-15.58c-4.22-5.56-12.91-6.08-17.19-1a3.13,3.13,0,0,0-.56,2.45c.11.4,1.41.75,2.13.67,3.19-.33,5.74,1.2,7.14,4.56C583.06,369.48,580.51,371.39,577.37,371.24Zm4.28-12.17a6.74,6.74,0,0,1,7.71,2.24,7.29,7.29,0,0,1,.48,9.17,6.93,6.93,0,0,1-8.36,3.1C589.05,369.9,589.11,362.9,581.65,359.07ZM194.39,361.6c1.18.12,2.09-.33,2-1.55a4,4,0,0,0-1.19-2.16,11.13,11.13,0,0,0-12-2.31c-4.31,1.75-7.55,6.33-7.33,10.89A11.37,11.37,0,0,0,183,376.88c4.36,2,10,.78,12.68-2.69a3.26,3.26,0,0,0,.45-2.47c-.08-.34-1.33-.67-2-.59-3.59.4-6.2-1.37-7.22-5.13C188.33,362.47,190.48,361.22,194.39,361.6Zm-5.2,11.88a6.34,6.34,0,0,1-7.08-1.58c-2.68-2.83-3.2-6.41-1.38-9.45a7.33,7.33,0,0,1,8.68-3.47C181.8,362.88,181.8,369.89,189.19,373.48Zm98,188c3.28,1.15,5.69,3.06,5.73,6.95a22.45,22.45,0,0,0,.5,3.34c.43,2.62.88,5.25,1.33,7.87a1.46,1.46,0,0,0,.69-1c.58-3.46,1.37-6.9,1.65-10.38s2.34-5.48,5.39-6.6c1.83-.67,3.75-1.12,6.18-1.84l-2.73-.61c-6.51-1.42-7.89-2.86-9-9.37q-.84-4.82-1.66-9.62h-.4a9.65,9.65,0,0,0-.3,1c-.62,3.78-1.34,7.55-1.83,11.36a5.43,5.43,0,0,1-3.27,4.61c-1.92.86-4,1.42-6,2.1-.52.17-1.07.27-2.09.53C283.67,560.42,285.47,560.84,287.19,561.44ZM463.86,129.08c.39,3.62,1.1,7.2,1.7,10.8A6,6,0,0,0,466,141a97.75,97.75,0,0,0,2.25-12,6.11,6.11,0,0,1,4-5.42c2-.8,4-1.33,6-2l1-.33c-2.6-.94-5.18-1.74-7.64-2.81a5.53,5.53,0,0,1-3.34-4.8c-.52-4.1-1.32-8.17-2-12.26l-.55,0c-.66,4.17-1.38,8.34-2,12.53a5.14,5.14,0,0,1-2.88,4.24c-1.9.9-3.91,1.56-5.9,2.27-.7.25-1.45.35-2.42.58,2.61.86,4.93,1.53,7.17,2.42A6.18,6.18,0,0,1,463.86,129.08Zm29.93,55.32a17.9,17.9,0,0,0,.72,3.49c1.18-3.7.15-8.51,5.91-9.28l-.87-.21c-2.31-.56-4-1.62-4-4.36a27.52,27.52,0,0,0-.69-4.19,16.57,16.57,0,0,0-1.27,4.9,3.68,3.68,0,0,1-2.91,3.32l-2,.64c.31.23.46.42.63.45C492.24,179.64,493.74,181.31,493.79,184.4ZM365.25,372.76a22.32,22.32,0,0,0-.77-4.14,6.39,6.39,0,0,0-.93,3c0,3.54-1.74,5.4-5.55,5.67a5.28,5.28,0,0,0,1.15.65c3,.45,4.3,2.2,4.36,5.16a19,19,0,0,0,.67,3.44c.69-2,.55-4.21,1.46-5.82s2.86-2.4,4.22-3.47a4.88,4.88,0,0,1-.58-.12C367.05,376.5,365.25,375.57,365.25,372.76ZM263.6,531a4.33,4.33,0,0,1,3.91,4.45c.09,1.29.39,2.56.59,3.84l.51,0c.32-1.93.18-4.12,1.08-5.73s2.76-2.32,4.12-3.37c-2.93-.35-4.66-2.1-4.72-5.42a24.69,24.69,0,0,0-.49-3.18c-1.38,3.49-.42,8.38-6.36,8.64.41.34.49.45.61.49A2.88,2.88,0,0,0,263.6,531ZM544.28,365.13c-1.5-.08-2.49,1.05-2.47,2.7a2.37,2.37,0,0,0,2.39,2.6,2.44,2.44,0,0,0,2.48-2.73A2.33,2.33,0,0,0,544.28,365.13ZM365.74,212.93c1.52-.1,2.44-.9,2.47-2.17,0-1.78-1.16-2.9-2.57-2.75a2.46,2.46,0,0,0,.1,4.92Zm-65.2,290.82a2.53,2.53,0,0,0,2.55,2.26,2.38,2.38,0,0,0,2.45-2.5A2.45,2.45,0,0,0,303,501,2.51,2.51,0,0,0,300.54,503.75Zm-51.86-58.13a2.55,2.55,0,0,0-2.56,2.47,2.58,2.58,0,0,0,2.43,2.64,2.47,2.47,0,0,0,2.55-2.45A2.71,2.71,0,0,0,248.68,445.62Zm296.43-55.14c0-1.77-1.16-3-2.51-2.8a2.38,2.38,0,0,0-2.35,2.62,2.43,2.43,0,0,0,4.86.18Zm-64-2.33a2.47,2.47,0,0,0-2.57-2.58,2.53,2.53,0,0,0,.2,5.06A2.47,2.47,0,0,0,481.09,388.15Zm59.72,15.62a2.53,2.53,0,0,0-.19-5.06,2.43,2.43,0,0,0-2.35,2.64A2.39,2.39,0,0,0,540.81,403.77ZM322.88,516.27a2.52,2.52,0,0,0,2.64-2.44,2.58,2.58,0,0,0-2.53-2.55,2.5,2.5,0,0,0-2.56,2.45A2.56,2.56,0,0,0,322.88,516.27Zm137.89-9.95a2.55,2.55,0,0,0,2.55,2.47,2.61,2.61,0,0,0,2.54-2.54,2.48,2.48,0,0,0-2.56-2.46A2.59,2.59,0,0,0,460.77,506.32Zm1.21-84a2.48,2.48,0,0,0-2.49,2.73,2.22,2.22,0,0,0,2.47,2.28,2.47,2.47,0,0,0,2.45-2.57A2.38,2.38,0,0,0,462,422.28Zm-227.3-2.08a2.55,2.55,0,0,0,2.6-2.56,2.52,2.52,0,0,0-2.52-2.52,2.41,2.41,0,0,0-2.43,2.55A2.5,2.5,0,0,0,234.68,420.2Zm295.57,15.47a2.56,2.56,0,0,0,2.5-2.55,2.5,2.5,0,0,0-2.46-2.55,2.45,2.45,0,0,0-2.45,2.55A2.39,2.39,0,0,0,530.25,435.67Zm-.5-130.86c1.68.53,2.6-.7,2.94-2.3-.33-1.61-1.1-2.72-2.91-2.54a2.06,2.06,0,0,0-2,2.39A3.72,3.72,0,0,0,529.75,304.81ZM343.94,217.25a2.47,2.47,0,0,0-.19-4.94,2.52,2.52,0,0,0-2.51,2.54A2.46,2.46,0,0,0,343.94,217.25ZM473,498a2.5,2.5,0,0,0-2.71,2.49,2.32,2.32,0,0,0,2.37,2.39,2.54,2.54,0,0,0,2.7-2.51A2.29,2.29,0,0,0,473,498Zm8.91-1.45c1.62-.47,2.91-1.34,2.45-3a3.43,3.43,0,0,0-2.27-2,2.27,2.27,0,0,0-2.62,2.12C479.26,495.29,480.32,496.14,482,496.56ZM546.31,379.2a2.37,2.37,0,0,0-2.41-2.62,2.5,2.5,0,0,0-.1,5A2.33,2.33,0,0,0,546.31,379.2ZM376.07,273.43c-.42-1.76-1.48-2.81-3.13-2.27a3.5,3.5,0,0,0-1.95,2.29,2.07,2.07,0,0,0,2,2.43C374.76,276.1,375.71,275.18,376.07,273.43Zm11.86-61.73a2.4,2.4,0,0,0,2.67-2.34,2.52,2.52,0,0,0-2.46-2.59,2.49,2.49,0,0,0-2.56,2.48A2.35,2.35,0,0,0,387.93,211.7ZM293.54,395.16a2.49,2.49,0,0,0,2.51-2.48,2.62,2.62,0,0,0-2.46-2.6,2.54,2.54,0,0,0,0,5.08Zm137.84,53.63a2.62,2.62,0,0,0-2.38,2.53,2.41,2.41,0,0,0,2.55,2.41,2.44,2.44,0,0,0,2.53-2.48A2.53,2.53,0,0,0,431.38,448.79ZM297,330.31a2.46,2.46,0,0,0-2.42,2.6,2.43,2.43,0,0,0,2.49,2.48,2.38,2.38,0,0,0,2.4-2.27C299.43,331.38,298.31,330.19,297,330.31Zm-70.13,9.84c-.12,1.5.88,2.54,2.84,2.57,1.18,0,1.92-1,2.06-2.48a2.35,2.35,0,0,0-2.52-2.46A2.23,2.23,0,0,0,226.83,340.15Zm66.81-.2a2.54,2.54,0,0,0,.26,5.06,2.43,2.43,0,0,0,2.33-2.45A2.46,2.46,0,0,0,293.64,340ZM450.87,511.18c-.18,1.66.9,2.48,2.44,2.8,1.59-.32,2.88-1.2,2.5-2.88a3.54,3.54,0,0,0-2.38-2.1A2.25,2.25,0,0,0,450.87,511.18ZM343.72,451a2.38,2.38,0,0,0-2.57,2.47,2.5,2.5,0,0,0,2.57,2.45,2.46,2.46,0,1,0,0-4.92Zm-18.5-228.76a2.55,2.55,0,0,0-5.1-.14,2.42,2.42,0,0,0,2.45,2.53A2.62,2.62,0,0,0,325.22,222.26Zm87.53,234.43a2.47,2.47,0,0,0-2.42,2.39,2.39,2.39,0,0,0,2.46,2.5,2.42,2.42,0,0,0,2.62-2.37A2.45,2.45,0,0,0,412.75,456.69Zm-144.17,21a2.48,2.48,0,0,0,2.47-2.54,2.55,2.55,0,0,0-2.54-2.51,2.46,2.46,0,0,0-2.48,2.52A2.63,2.63,0,0,0,268.58,477.68Zm232.71,1.44a2.46,2.46,0,0,0-2.47-2.52,2.56,2.56,0,0,0-2.56,2.5,2.45,2.45,0,0,0,2.41,2.54A2.66,2.66,0,0,0,501.29,479.12ZM346.68,281.54c-.25-.82-1.54-1.92-2.25-1.85a3.48,3.48,0,0,0-2.44,2c-.54,1.7.68,2.62,2.34,3C346,284.27,347.24,283.36,346.68,281.54Zm47-6a2.31,2.31,0,0,0,2.51-2.43,2.51,2.51,0,0,0-5,0A2.35,2.35,0,0,0,393.71,275.52ZM403.89,277a2.47,2.47,0,0,0,2.41-2.59,2.52,2.52,0,0,0-2.65-2.37,2.48,2.48,0,1,0,.24,5ZM234.55,316a2.54,2.54,0,0,0,.23,5.07,2.43,2.43,0,0,0,2.31-2.67A2.37,2.37,0,0,0,234.55,316Zm179.17-36.58a2.48,2.48,0,0,0,2.44-2.56,2.41,2.41,0,0,0-2.64-2.35,2.37,2.37,0,0,0-2.44,2.5A2.53,2.53,0,0,0,413.72,279.42Zm6.07,176.35c.49,1.71,1.45,2.86,3.14,2.25.86-.31,2-1.54,1.93-2.26a3.41,3.41,0,0,0-2-2.41C421.2,452.89,420.22,454.09,419.79,455.77Zm.82-175.36a2.54,2.54,0,1,0,2.53-2.46A2.45,2.45,0,0,0,420.61,280.41ZM285,493a2.24,2.24,0,0,0,2.27-2.5,2.44,2.44,0,0,0-2.56-2.45,2.37,2.37,0,0,0-2.43,2.42A2.52,2.52,0,0,0,285,493ZM480.74,365.46a2.37,2.37,0,0,0-2.46,2.36,2.55,2.55,0,0,0,2.38,2.67,2.46,2.46,0,0,0,2.51-2.5A2.31,2.31,0,0,0,480.74,365.46Zm-249.08,44a2.51,2.51,0,0,0,2.5-2.6,2.54,2.54,0,0,0-2.48-2.46,2.53,2.53,0,0,0,0,5.06Zm167.67-202a2.26,2.26,0,0,0-2.56,2.36,2.29,2.29,0,0,0,2.44,2.5c1.56.06,2.37-.88,2.62-2.37A2.43,2.43,0,0,0,399.33,207.41Zm68.2,206.4a2.51,2.51,0,0,0-2.46,2.35,2.46,2.46,0,0,0,2.48,2.69A2.41,2.41,0,0,0,470,416.3,2.36,2.36,0,0,0,467.53,413.81ZM227.65,387.38a2.45,2.45,0,0,0,2.56-2.47,2.52,2.52,0,0,0-2.47-2.57,2.38,2.38,0,0,0-2.41,2.58A2.31,2.31,0,0,0,227.65,387.38Zm91.17,46.07a2.34,2.34,0,0,0-2.4,2.41,2.56,2.56,0,0,0,2.66,2.59,2.29,2.29,0,0,0,2.26-2.52A2.4,2.4,0,0,0,318.82,433.45Zm136.53,1.61a2.52,2.52,0,0,0,2.6-2.37,2.46,2.46,0,0,0-2.38-2.61,2.68,2.68,0,0,0-2.68,2.59A2.4,2.4,0,0,0,455.35,435.06Zm-212,5.81a2.42,2.42,0,0,0,2.47-2.34c-.11-1.54-.82-2.57-2.42-2.64a2.21,2.21,0,0,0-2.52,2.21A2.52,2.52,0,0,0,243.31,440.87ZM478.64,346a2.27,2.27,0,0,0-2.32,2.46,2.44,2.44,0,1,0,2.32-2.46ZM328.86,442.29a3.39,3.39,0,0,0-2.37-2,3.29,3.29,0,0,0-2.39,2c-.44,1.7.9,2.54,2.52,3C328.24,444.79,329.41,443.88,328.86,442.29Zm179.86,28.17a3.25,3.25,0,0,0-2.38-2,3.42,3.42,0,0,0-2.39,2.06c-.51,1.58.66,2.5,2.3,2.94C507.91,473.06,509.16,472.12,508.72,470.46ZM273.91,483.13a2.52,2.52,0,0,0,2.52,2.52,2.38,2.38,0,0,0,2.44-2.52,2.61,2.61,0,0,0-2.5-2.54A2.49,2.49,0,0,0,273.91,483.13ZM534.54,425.3a2.48,2.48,0,0,0,2.4-2.62,2.46,2.46,0,0,0-2.49-2.48,2.6,2.6,0,0,0-2.46,2.62A2.55,2.55,0,0,0,534.54,425.3ZM312.91,511.44a2.29,2.29,0,0,0,2.44-2.34,2.55,2.55,0,0,0-2.49-2.6,2.36,2.36,0,0,0-2.48,2.49A2.29,2.29,0,0,0,312.91,511.44ZM238.6,430.63c1.56,0,2.48-.82,2.51-2.29a2.46,2.46,0,1,0-4.92-.27A2.4,2.4,0,0,0,238.6,430.63ZM443,518.35a2.6,2.6,0,0,0,2.65-2.43,2.4,2.4,0,0,0-2.46-2.5,2.44,2.44,0,0,0-2.64,2.36A2.52,2.52,0,0,0,443,518.35ZM252.12,457.67a2.46,2.46,0,0,0,2.7,2.4,2.18,2.18,0,0,0,2.27-2.4,2.49,2.49,0,1,0-5,0Zm289.3-101.39a2.45,2.45,0,0,0,4.85.6,2.66,2.66,0,0,0-2.3-3A2.4,2.4,0,0,0,541.42,356.28ZM299.19,402.36c-.18-1.52-.88-2.53-2.5-2.55a2.33,2.33,0,0,0-2.48,2.32,2.47,2.47,0,0,0,2.61,2.62A2.34,2.34,0,0,0,299.19,402.36ZM472,409.86a2.6,2.6,0,0,0,2.68-2.61,2.45,2.45,0,1,0-4.89.29A2.24,2.24,0,0,0,472,409.86ZM301,409a2.35,2.35,0,0,0-2.49,2.47,2.27,2.27,0,0,0,2.46,2.49,2.37,2.37,0,0,0,2.48-2.3C303.22,410.18,302.54,409.16,301,409Zm7.56,11.33a2.55,2.55,0,0,0-2.46-2.58,2.4,2.4,0,0,0-2.5,2.45c.06,1.51.85,2.42,2.71,2.57A2.43,2.43,0,0,0,308.52,420.35ZM442.61,446c0-1.61-.83-2.5-2.31-2.51a2.47,2.47,0,1,0-.2,4.93A2.39,2.39,0,0,0,442.61,446Zm29.76-119.26a2.25,2.25,0,0,0-2.25,2.51c.06,1.52.9,2.45,2.76,2.43a2.26,2.26,0,0,0,2.19-2.38A2.55,2.55,0,0,0,472.37,326.72Zm70.26,16a2.36,2.36,0,0,0-2.41,2.53,2.28,2.28,0,0,0,2.41,2.52,2.35,2.35,0,0,0,2.48-2.43A2.53,2.53,0,0,0,542.63,342.75ZM412.88,211.23c0-1.54-.94-2.35-2.59-2.58a2.44,2.44,0,0,0-2.4,2.45,2.26,2.26,0,0,0,2.44,2.48A2.22,2.22,0,0,0,412.88,211.23Zm100.4,253.36a2.52,2.52,0,0,0,0-5,2.51,2.51,0,0,0-2.48,2.55A2.37,2.37,0,0,0,513.28,464.59ZM293.7,499.79a2.33,2.33,0,0,0,2.5-2.46,2.55,2.55,0,0,0-2.54-2.49,2.48,2.48,0,0,0,0,5ZM538,320.88a2.37,2.37,0,0,0-2.54,2.41,2.44,2.44,0,0,0,2.33,2.66c1.35.18,2.49-1,2.56-3.07C540.37,321.94,539.47,321.09,538,320.88Zm-116.58-110a2.22,2.22,0,0,0-2.52,2.22,2.47,2.47,0,0,0,2.54,2.69,2.43,2.43,0,0,0,2.46-2.39A2.36,2.36,0,0,0,421.42,210.89Zm71.67,276a2.3,2.3,0,0,0-2.38-2.54,2.53,2.53,0,0,0-2.57,2.24,2.5,2.5,0,0,0,2.42,2.77A2.44,2.44,0,0,0,493.09,486.87ZM332.31,448.5a2.56,2.56,0,0,0,2.41,2.51,2.5,2.5,0,1,0,0-5A2.38,2.38,0,0,0,332.31,448.5Zm23.17,8.94c-.05-1.62-1-2.32-2.52-2.46-1.49.12-2.39.84-2.42,2.36a2.47,2.47,0,1,0,4.94.1Zm-4.22-179.37a2.38,2.38,0,0,0,2.4,2.58,2.59,2.59,0,0,0,2.63-2.51c-.19-1.36-.83-2.3-2.38-2.35A2.25,2.25,0,0,0,351.26,278.07ZM333,286.87a2.35,2.35,0,0,0,2.44,2.54c1.56-.07,2.36-1,2.63-2.58-.27-1.27-.85-2.27-2.42-2.29A2.35,2.35,0,0,0,333,286.87ZM540.39,412a2.2,2.2,0,0,0-2.49-2.4,2.35,2.35,0,0,0-2.37,2.6c0,1.53,1,2.31,2.65,2.46A2.47,2.47,0,0,0,540.39,412ZM288.11,362.69a2.18,2.18,0,0,0,2.21,2.29,2.6,2.6,0,0,0,2.67-2.63,2.46,2.46,0,0,0-2.66-2.35A2.24,2.24,0,0,0,288.11,362.69ZM229,329.4c.47,1.61,1.37,2.81,2.95,2.26a2.46,2.46,0,0,0,0-4.82C230.18,326.4,229.38,327.78,229,329.4Zm61.46,45.72a2.31,2.31,0,0,0,2.45-2.51,2.46,2.46,0,0,0-2.49-2.56,2.36,2.36,0,0,0-2.36,2.56A2.24,2.24,0,0,0,290.46,375.12Zm3.41,8.07c0-1.94-.76-2.83-2.3-3a2.4,2.4,0,0,0-2.57,2.38,2.35,2.35,0,0,0,2.34,2.62A2.18,2.18,0,0,0,293.87,383.19Zm-68.56-31.84a2.2,2.2,0,0,0,2.26,2.46,2.33,2.33,0,0,0,2.6-2.38c.17-1.39-1-2.52-2.72-2.55C226.14,348.9,225.32,349.76,225.31,351.35Zm63.8,1.16a2.47,2.47,0,0,0,2.59,2.41,2.55,2.55,0,1,0-2.59-2.41Zm236.34,88.18a2.5,2.5,0,0,0-2.65,2.58,2.45,2.45,0,1,0,4.9-.1A2.2,2.2,0,0,0,525.45,440.69ZM361,275.27a2.48,2.48,0,0,0,5,.07c0-1.57-.81-2.42-2.49-2.47A2.36,2.36,0,0,0,361,275.27Zm81.52-53a2.39,2.39,0,0,0,2.82-2.12c.1-1.59-.83-2.4-2.26-2.77a2.43,2.43,0,0,0-2.71,2.11A2.37,2.37,0,0,0,442.48,222.27ZM314.55,428.56c-.16-1.5-.87-2.47-2.47-2.52a2.14,2.14,0,0,0-2.46,2.22,2.43,2.43,0,0,0,2.5,2.67A2.36,2.36,0,0,0,314.55,428.56Zm42.61-216.49a2.26,2.26,0,0,0-2.43-2.26,2.44,2.44,0,1,0,0,4.87A2.38,2.38,0,0,0,357.16,212.07Zm123,144a2.18,2.18,0,0,0-2.27,2.44c0,1.54.87,2.43,2,2.46,1.92,0,2.93-1.07,2.82-2.55A2.26,2.26,0,0,0,480.14,356.1ZM238.42,310.49a2.42,2.42,0,0,0,2.56-2.63,2.26,2.26,0,0,0-2.24-2.35,2.47,2.47,0,0,0-2.62,2.54A2.24,2.24,0,0,0,238.42,310.49Zm145.19-40.22a2.38,2.38,0,0,0-2.49,2.48c.05,1.62.95,2.37,2.16,2.39,1.85,0,2.88-1.09,2.78-2.53A2.34,2.34,0,0,0,383.61,270.27ZM229.47,398.41c1.52-.06,2.18-1,2.35-2.44-.23-1.49-.94-2.5-2.56-2.52A2.31,2.31,0,0,0,226.9,396,2.25,2.25,0,0,0,229.47,398.41Zm-2.53-22.25a2.39,2.39,0,0,0,2.48-2.51,2.54,2.54,0,0,0-2.78-2.46,2.31,2.31,0,0,0-2.1,2.64A2.21,2.21,0,0,0,226.94,376.16Zm295.17,76.52a2.35,2.35,0,0,0-2.45-2.33,2.45,2.45,0,0,0-2.5,2.7,2.22,2.22,0,0,0,2.52,2.21C521.29,455.2,522,454.19,522.11,452.68Zm-41.91-77.1a2.27,2.27,0,0,0-2.38,2.57,2.18,2.18,0,0,0,2.34,2.38,2.29,2.29,0,0,0,2.51-2.23A2.44,2.44,0,0,0,480.2,375.58Zm-4.09-39.35a2.18,2.18,0,0,0-2.33,2.39c0,1.54.8,2.46,2,2.52,1.82,0,2.9-1,2.95-2.27A2.5,2.5,0,0,0,476.11,336.23Zm-28,105.93a2.42,2.42,0,0,0,2.46-2.55,2.17,2.17,0,0,0-2.3-2.41,2.49,2.49,0,0,0-2.63,2.59A2.41,2.41,0,0,0,448.11,442.16Zm92.68-110.32a2.17,2.17,0,0,0-2.54,2.15,2.28,2.28,0,0,0,2.19,2.72,2.41,2.41,0,0,0,2.68-2.5A2.26,2.26,0,0,0,540.79,331.84ZM333.3,215.71a2.28,2.28,0,0,0-2.67,2.28A2.33,2.33,0,0,0,333,220.6a2.53,2.53,0,0,0,2.63-2.43A2.31,2.31,0,0,0,333.3,215.71Zm99.07,71.69a2.22,2.22,0,0,0,2.31-2.43,2.48,2.48,0,0,0-4.95-.15A2.48,2.48,0,0,0,432.37,287.4ZM224.54,362.69A2.19,2.19,0,0,0,227,365a2.47,2.47,0,1,0-.17-4.94A2.23,2.23,0,0,0,224.54,362.69ZM476,400.36a2.3,2.3,0,0,0,2.36-2.61,2.16,2.16,0,0,0-2.13-2.34,2.54,2.54,0,0,0-2.76,2.51A2.38,2.38,0,0,0,476,400.36ZM261.4,464.22a2.27,2.27,0,0,0-2.6,2.32,2.52,2.52,0,0,0,2.5,2.61c1.37-.14,2.36-.8,2.41-2.3A2.28,2.28,0,0,0,261.4,464.22ZM379.34,209.41a2.18,2.18,0,0,0-2.36-2.35,2.24,2.24,0,0,0-2.56,2.38c0,1.62.95,2.35,2.48,2.51C378.43,211.78,379.37,211,379.34,209.41Zm50.38,6.89a2.32,2.32,0,0,0,2.62,2.35,2.28,2.28,0,0,0,2.34-2.44,2.36,2.36,0,0,0-2.54-2.42A2.29,2.29,0,0,0,429.72,216.3Zm104.63,94a2.39,2.39,0,0,0-2.49,2.33c.2,1.44.82,2.51,2.44,2.61a2.31,2.31,0,0,0,2.5-2.43A2.27,2.27,0,0,0,534.35,310.32ZM182.77,434.52c-1.46,0-2,1-2,2.35a2,2,0,0,0,2.16,2.27,1.83,1.83,0,0,0,2-2.1C184.87,435.65,184.3,434.55,182.77,434.52Zm405.33,0c-1.51,0-2.11,1.1-2.17,2.51s.82,2.25,2,2c.91-.16,1.69-1.12,2.53-1.73C590.13,435.51,589.57,434.5,588.1,434.53Zm-404-9.31a2.49,2.49,0,0,0-2.38-.23,3.51,3.51,0,0,0-.7,2.74c.39,1.56,1.78,1.46,3.21,1.1A2.46,2.46,0,0,0,184.12,425.22ZM587.53,312.93a2.48,2.48,0,0,0,2.37.26,3.48,3.48,0,0,0,.75-2.73c-.38-1.56-1.77-1.48-3.26-1.12A2.49,2.49,0,0,0,587.53,312.93Zm-402.61,0a2.47,2.47,0,0,0,.12-3.62c-1.42-.36-2.81-.46-3.21,1.09a3.54,3.54,0,0,0,.7,2.75A2.51,2.51,0,0,0,184.92,313ZM589.74,425c-.87,0-2.08-.36-2.78.08-1.22.78-1.32,2.16-.55,3.6C589.37,429.54,590.39,428.58,589.74,425Zm-404.91,21.6a2,2,0,0,0-4-.05c-.5,1.45.45,2.32,2,2.69C184.33,448.86,185.29,448,184.83,446.56Zm403.29-1.65a2.75,2.75,0,0,0-2.06,1.55c-.49,1.4.37,2.35,1.93,2.74,1.5-.3,2.48-1.13,2-2.59A2.76,2.76,0,0,0,588.12,444.91ZM439.57,45.47a1.89,1.89,0,0,0,2.05-2.14c0-1.24-.61-2.16-2.76-2.11-.29.39-1.21,1.07-1.32,1.86A2,2,0,0,0,439.57,45.47Zm-106.74,0a1.94,1.94,0,0,0,2.08-2.32c-.09-.8-1-1.51-1.48-2.26-1.89.27-2.54,1.12-2.59,2.38A1.9,1.9,0,0,0,332.83,45.46ZM438.74,702.64a2,2,0,0,0-2,2.41c.12.8,1,1.46,1.34,1.85,2.14,0,2.73-.91,2.73-2.15A1.89,1.89,0,0,0,438.74,702.64Zm-106.74,0a1.91,1.91,0,0,0-1.95,2.24c.06,1.27.76,2.26,2.15,2a7.14,7.14,0,0,0,2.11-1.27C334,703.63,333.5,702.6,332,702.64ZM182.93,474.74c-.86.09-1.64,1-2.46,1.5v1c.8.55,1.62,1.55,2.4,1.52a2.88,2.88,0,0,0,2-1.86A1.68,1.68,0,0,0,182.93,474.74ZM291.41,702.41c-.53.82-1.39,1.6-1.48,2.46a1.67,1.67,0,0,0,2.12,1.88,2.87,2.87,0,0,0,1.85-2c0-.78-1-1.6-1.54-2.4ZM588.7,144.16c.86-.07,1.66-.94,2.49-1.46l0-1c-.79-.57-1.59-1.59-2.37-1.57a2.9,2.9,0,0,0-2,1.82A1.69,1.69,0,0,0,588.7,144.16Zm-405,0a1.69,1.69,0,0,0,1.93-2.1,2.9,2.9,0,0,0-1.94-1.89c-.77,0-1.61.94-2.42,1.48v1C182.07,143.16,182.83,144.06,183.69,144.16Zm405.05-9.94c.87-.09,1.65-1,2.46-1.51v-1c-.8-.54-1.63-1.54-2.4-1.51a2.92,2.92,0,0,0-2,1.87A1.68,1.68,0,0,0,588.74,134.22ZM302.45,702.43l-.89,0c-.59.72-1.5,1.38-1.69,2.2-.29,1.26.55,2.14,1.89,2.25a1.8,1.8,0,0,0,2.13-2C303.81,704,303,703.22,302.45,702.43Zm9.18.37c-1.24-.17-1.94.83-1.88,2s.93,2.21,2.22,1.93c.83-.19,1.51-1.07,2.26-1.64l0-.9A8.24,8.24,0,0,0,311.63,702.8Zm137-.39c-.53.78-1.41,1.52-1.51,2.35a1.68,1.68,0,0,0,2.07,2c.79-.2,1.88-1.24,1.91-2s-1-1.61-1.54-2.42ZM586.85,112.24a1.68,1.68,0,0,0,1.91,2.11c.86-.1,1.63-1,2.45-1.54v-1c-.81-.54-1.64-1.53-2.42-1.49A2.88,2.88,0,0,0,586.85,112.24ZM183.7,110.35c-.78,0-1.62.93-2.44,1.46v1c.81.55,1.57,1.46,2.43,1.57a1.69,1.69,0,0,0,1.94-2.09A2.91,2.91,0,0,0,183.7,110.35ZM459,702.8a3,3,0,0,0-2,1.89c-.06.78.91,1.64,1.42,2.47l1,0c.56-.8,1.47-1.55,1.6-2.41A1.65,1.65,0,0,0,459,702.8ZM185.62,102.31a2.92,2.92,0,0,0-1.93-1.9c-.78,0-1.62.94-2.43,1.48,0,.32,0,.64,0,1,.81.55,1.57,1.45,2.44,1.56A1.69,1.69,0,0,0,185.62,102.31ZM588.76,90.47a2.92,2.92,0,0,0-1.92,1.92,1.69,1.69,0,0,0,1.95,2.08c.86-.12,1.62-1,2.42-1.58v-1C590.39,91.4,589.54,90.42,588.76,90.47Zm-403.14,2a2.88,2.88,0,0,0-1.86-2c-.77-.08-1.65.87-2.48,1.37l0,1c.79.58,1.51,1.51,2.37,1.65A1.69,1.69,0,0,0,185.62,92.45Zm401.23-10a1.68,1.68,0,0,0,1.9,2.12c.86-.1,1.64-1,2.45-1.52V82c-.8-.54-1.63-1.54-2.41-1.5A2.86,2.86,0,0,0,586.85,82.41ZM183.53,84.52a1.69,1.69,0,0,0,2.1-1.93c-.12-.88-1-1.66-1.5-2.48l-.92,0c-.54.81-1.53,1.64-1.5,2.43A2.87,2.87,0,0,0,183.53,84.52ZM588.05,554.24a1.69,1.69,0,0,0-2,2,2.91,2.91,0,0,0,1.87,2c.77.08,1.64-.88,2.47-1.39,0-.32,0-.64,0-1C589.64,555.31,588.91,554.38,588.05,554.24ZM538.85,45.69l.89,0c.57-.74,1.47-1.42,1.64-2.24.25-1.26-.6-2.14-2-2.2a1.79,1.79,0,0,0-2.08,2.06C537.45,44.17,538.32,44.91,538.85,45.69ZM489.37,702.4h-.95c-.55.82-1.55,1.67-1.5,2.46a2.88,2.88,0,0,0,1.95,1.9,1.68,1.68,0,0,0,2-2C490.77,703.88,489.9,703.17,489.37,702.4Zm7.45,2.35a2.86,2.86,0,0,0,1.89,2c.79.06,1.67-.91,2.5-1.44l0-.92c-.77-.54-1.47-1.39-2.31-1.55A1.68,1.68,0,0,0,496.82,704.75Zm9.94-.12a1.67,1.67,0,0,0,1.86,2.14c.88-.12,1.68-.94,2.52-1.45l0-.92c-.79-.56-1.6-1.56-2.38-1.55A2.85,2.85,0,0,0,506.76,704.63ZM588,454.86a1.68,1.68,0,0,0-1.92,2.11,2.91,2.91,0,0,0,1.94,1.88c.78,0,1.61-.94,2.42-1.48v-1C589.6,455.86,588.83,455,588,454.86ZM510.07,45.7c.53-.78,1.38-1.51,1.5-2.34a1.69,1.69,0,0,0-2.05-2c-.79.18-1.9,1.23-1.93,1.93s1,1.62,1.54,2.43Zm-9.91,0c.51-.82,1.37-1.6,1.46-2.47a1.68,1.68,0,0,0-2.13-1.87,2.86,2.86,0,0,0-1.84,2c0,.79,1,1.59,1.55,2.39Zm-9.89,0c.5-.84,1.35-1.64,1.41-2.51a1.68,1.68,0,0,0-2.17-1.83,2.89,2.89,0,0,0-1.81,2c0,.79,1,1.58,1.61,2.36Zm-10.09,0c.55-.76,1.43-1.46,1.57-2.29a1.69,1.69,0,0,0-2-2.07,2.87,2.87,0,0,0-2,1.87c-.06.79.92,1.65,1.46,2.48Zm49,656.7-1,0c-.57.79-1.59,1.59-1.58,2.38a2.88,2.88,0,0,0,1.83,2,1.67,1.67,0,0,0,2.15-1.85C530.56,704,529.7,703.24,529.19,702.41ZM459.38,45.7l.9,0c.56-.76,1.44-1.45,1.59-2.28.23-1.26-.63-2.12-2-2.17a1.81,1.81,0,0,0-2.05,2.11C458,44.21,458.84,44.93,459.38,45.7ZM183,468.79a2.87,2.87,0,0,0,1.84-2,1.68,1.68,0,0,0-2-2c-.86.14-1.58,1.08-2.36,1.66l0,1C181.32,467.93,182.2,468.88,183,468.79Zm403.07-1.94a2.91,2.91,0,0,0,1.89,1.94c.77.07,1.64-.9,2.46-1.41,0-.33,0-.65,0-1-.79-.56-1.53-1.49-2.39-1.61A1.69,1.69,0,0,0,586.05,466.85ZM449.38,45.69l.94,0c.56-.8,1.58-1.63,1.55-2.41a2.93,2.93,0,0,0-1.89-2,1.68,1.68,0,0,0-2.08,2C448,44.16,448.86,44.9,449.38,45.69ZM539.1,702.41l-1,0c-.56.8-1.56,1.62-1.53,2.4a2.87,2.87,0,0,0,1.85,2,1.67,1.67,0,0,0,2.12-1.88C540.49,704,539.62,703.22,539.1,702.41Zm51.3-226.22c-.83-.51-1.63-1.38-2.5-1.45a1.69,1.69,0,0,0-1.85,2.17,2.91,2.91,0,0,0,2,1.82c.77,0,1.57-1,2.37-1.57ZM302.16,45.7h.95c.55-.81,1.56-1.65,1.52-2.44a2.91,2.91,0,0,0-1.94-1.92,1.69,1.69,0,0,0-2,2C300.77,44.2,301.63,44.93,302.16,45.7ZM184.84,486.78c-.14-.89-1-1.66-1.53-2.49h-.92c-.54.82-1.51,1.66-1.47,2.45a2.83,2.83,0,0,0,1.83,2A1.67,1.67,0,0,0,184.84,486.78Zm97.4-441.09.95,0c.56-.81,1.59-1.63,1.56-2.42s-1.11-1.76-1.9-1.95a1.69,1.69,0,0,0-2.07,2C280.88,44.17,281.73,44.91,282.24,45.69Zm-9.8,0,.95,0c.52-.82,1.49-1.68,1.43-2.47s-1.16-1.7-1.95-1.87a1.67,1.67,0,0,0-2,2C271,44.19,271.88,44.93,272.44,45.72Zm-10,0h1c.56-.8,1.56-1.62,1.53-2.41A2.89,2.89,0,0,0,263,41.35a1.68,1.68,0,0,0-2.12,1.89C261,44.11,261.87,44.88,262.4,45.7Zm-10,0,1,0c.57-.8,1.59-1.62,1.57-2.41s-1.11-1.77-1.9-2a1.69,1.69,0,0,0-2.08,2C251.07,44.17,251.9,44.91,252.41,45.69ZM182.92,494.61c-.86.1-1.64,1-2.45,1.53v1c.8.55,1.63,1.55,2.41,1.51a2.88,2.88,0,0,0,1.95-1.87A1.69,1.69,0,0,0,182.92,494.61Zm39.79-448.9h.89c.56-.76,1.46-1.47,1.58-2.3a1.81,1.81,0,0,0-2-2.13c-1.36,0-2.23.88-2,2.15C221.28,44.25,222.16,45,222.71,45.71ZM586.05,506.57a2.89,2.89,0,0,0,1.85,2c.77.08,1.66-.86,2.49-1.36,0-.32,0-.64,0-1-.78-.58-1.51-1.51-2.36-1.66A1.69,1.69,0,0,0,586.05,506.57ZM180.48,517.12c.84.5,1.72,1.45,2.49,1.37a3,3,0,0,0,1.86-2,1.69,1.69,0,0,0-2-2c-.85.14-1.58,1.08-2.36,1.66ZM588.79,303.18c.86-.11,1.62-1,2.42-1.57,0-.32,0-.64,0-1-.81-.52-1.66-1.5-2.44-1.45a2.91,2.91,0,0,0-1.92,1.91A1.69,1.69,0,0,0,588.79,303.18Zm-403.17-2a2.9,2.9,0,0,0-1.86-2c-.77-.08-1.65.87-2.48,1.38,0,.32,0,.64,0,1,.79.58,1.51,1.51,2.37,1.65A1.68,1.68,0,0,0,185.62,301.16Zm403.16-7.92c.86-.11,1.62-1,2.43-1.55v-1c-.82-.53-1.66-1.51-2.44-1.47a2.91,2.91,0,0,0-1.92,1.9A1.68,1.68,0,0,0,588.78,293.24ZM182.9,524.43c-.86.1-1.63,1-2.44,1.54v1c.81.54,1.65,1.53,2.42,1.49a2.94,2.94,0,0,0,2-1.89A1.69,1.69,0,0,0,182.9,524.43Zm405,0a1.7,1.7,0,0,0-1.88,2.15,2.91,2.91,0,0,0,2,1.85c.78,0,1.59-1,2.39-1.54,0-.33,0-.65,0-1C589.58,525.39,588.79,524.51,587.93,524.43Zm-1.88,12a2.91,2.91,0,0,0,1.89,1.94c.77.07,1.64-.9,2.46-1.42,0-.32,0-.64,0-1-.79-.57-1.54-1.49-2.4-1.61A1.68,1.68,0,0,0,586.05,536.42ZM182.94,548.3a2.93,2.93,0,0,0,1.89-1.94,1.69,1.69,0,0,0-2-2.05c-.86.12-1.6,1-2.4,1.61,0,.32,0,.64,0,1C181.3,547.4,182.16,548.37,182.94,548.3Zm405.08,0c.78,0,1.6-1,2.4-1.52,0-.32,0-.64,0-1-.82-.53-1.6-1.42-2.47-1.51a1.69,1.69,0,0,0-1.89,2.13A2.89,2.89,0,0,0,588,548.3Zm-403.18,8c-.16-.88-1-1.64-1.59-2.45h-.92c-.51.83-1.46,1.69-1.41,2.49a2.86,2.86,0,0,0,1.88,1.93A1.67,1.67,0,0,0,184.84,556.3Zm403,77.46a1.69,1.69,0,0,0-1.84,2.18,2.91,2.91,0,0,0,2,1.81c.78,0,1.57-1,2.36-1.59,0-.32,0-.64,0-1C589.56,634.69,588.76,633.82,587.89,633.76Zm-407.42-67c.81.53,1.66,1.52,2.44,1.46a2.9,2.9,0,0,0,1.92-1.91,1.68,1.68,0,0,0-2-2.08c-.86.11-1.62,1-2.42,1.57C180.46,566.08,180.46,566.4,180.47,566.72Zm408.4-297.35a2.89,2.89,0,0,0-2,1.81,1.69,1.69,0,0,0,1.83,2.19c.87-.07,1.68-.93,2.51-1.44l0-1C590.44,270.39,589.64,269.36,588.87,269.37Zm-406,304.75c-.86.12-1.62,1-2.42,1.57v1c.82.53,1.66,1.51,2.44,1.46a2.92,2.92,0,0,0,1.93-1.91A1.69,1.69,0,0,0,182.88,574.12Zm405,10a1.69,1.69,0,0,0-1.84,2.18,2.91,2.91,0,0,0,2,1.8c.78,0,1.57-1,2.36-1.58l0-1C589.56,585,588.76,584.13,587.89,584.07ZM182.76,598a1.68,1.68,0,0,0,2.08-1.94c-.14-.88-1-1.66-1.53-2.48l-.92,0c-.54.82-1.51,1.66-1.47,2.46A2.86,2.86,0,0,0,182.76,598Zm-.34,5.5c-.55.81-1.53,1.64-1.5,2.43a2.83,2.83,0,0,0,1.81,2,1.67,1.67,0,0,0,2.11-1.9c-.13-.89-1-1.68-1.5-2.51ZM586.05,606a2.91,2.91,0,0,0,1.92,1.91c.78,0,1.62-.93,2.44-1.47v-1c-.8-.55-1.56-1.46-2.42-1.57A1.69,1.69,0,0,0,586.05,606Zm0,10a2.9,2.9,0,0,0,2,1.82c.78,0,1.58-1,2.37-1.56l0-1c-.83-.51-1.63-1.39-2.49-1.46A1.7,1.7,0,0,0,586.05,616.05ZM183.08,269c-.5.84-1.43,1.72-1.36,2.51a2.86,2.86,0,0,0,1.91,1.9,1.69,1.69,0,0,0,2-2c-.16-.87-1.06-1.6-1.63-2.4ZM183,627.81a2.88,2.88,0,0,0,1.85-2,1.68,1.68,0,0,0-2-2c-.85.14-1.58,1.08-2.36,1.66l0,1C181.32,626.94,182.2,627.89,183,627.81Zm403.08-1.9a2.89,2.89,0,0,0,1.92,1.9c.78.05,1.62-.93,2.44-1.46,0-.32,0-.64,0-1-.81-.55-1.57-1.46-2.43-1.57A1.69,1.69,0,0,0,586.05,625.91ZM185.62,261.38a2.91,2.91,0,0,0-1.89-1.95c-.77-.06-1.64.91-2.46,1.42l0,1c.8.57,1.54,1.49,2.4,1.62A1.68,1.68,0,0,0,185.62,261.38Zm403.1-7.89c.87-.08,1.65-1,2.48-1.49,0-.32,0-.64,0-1-.8-.56-1.61-1.57-2.39-1.55a2.91,2.91,0,0,0-2,1.85A1.69,1.69,0,0,0,588.72,253.49Zm-405.12,0a1.69,1.69,0,0,0,2-2,2.88,2.88,0,0,0-1.85-2c-.77-.09-1.65.86-2.49,1.36,0,.32,0,.64,0,1C182,252.41,182.74,253.35,183.6,253.49Zm403.25-12a1.68,1.68,0,0,0,1.92,2.1c.86-.1,1.63-1,2.44-1.54v-1c-.81-.54-1.65-1.53-2.42-1.48A2.88,2.88,0,0,0,586.85,241.45ZM182.4,633.35c-.53.82-1.51,1.65-1.48,2.45a2.84,2.84,0,0,0,1.82,2,1.66,1.66,0,0,0,2.1-1.91c-.13-.89-1-1.67-1.52-2.5Zm3.22-391.88a2.91,2.91,0,0,0-1.92-1.91c-.78-.05-1.62.92-2.44,1.45,0,.33,0,.65,0,1,.81.55,1.56,1.46,2.43,1.57A1.68,1.68,0,0,0,185.62,241.47ZM183,647.69a2.9,2.9,0,0,0,1.87-2,1.69,1.69,0,0,0-2-2c-.86.13-1.59,1.06-2.38,1.64l0,1C181.31,646.81,182.19,647.77,183,647.69Zm-.11,5.94c-.86.13-1.6,1.06-2.4,1.62,0,.32,0,.64,0,1,.83.52,1.69,1.49,2.47,1.42a2.91,2.91,0,0,0,1.89-2A1.69,1.69,0,0,0,182.85,653.63Zm403.2,12a2.89,2.89,0,0,0,1.92,1.91c.77.06,1.62-.92,2.44-1.44v-1c-.8-.55-1.56-1.46-2.42-1.58A1.69,1.69,0,0,0,586.05,665.65Zm2.68-446a2.93,2.93,0,0,0-1.89,1.94,1.69,1.69,0,0,0,2,2c.86-.12,1.6-1,2.4-1.61,0-.32,0-.65,0-1C590.37,220.58,589.51,219.62,588.73,219.68Zm-403.1,2c-.14-.88-1-1.63-1.58-2.44l-.93,0c-.51.83-1.46,1.69-1.4,2.48a2.82,2.82,0,0,0,1.88,1.93A1.68,1.68,0,0,0,185.63,221.67Zm403.14-7.94c.86-.1,1.63-1,2.44-1.54v-1c-.81-.54-1.65-1.53-2.43-1.49a2.89,2.89,0,0,0-1.93,1.89A1.68,1.68,0,0,0,588.77,213.73Zm-.09-19.88c.86,0,1.67-.91,2.51-1.42l0-1c-.78-.58-1.57-1.61-2.35-1.6a2.89,2.89,0,0,0-2,1.8A1.69,1.69,0,0,0,588.68,193.85Zm-403-2c-.14-.87-1-1.63-1.58-2.43l-.93,0c-.51.82-1.46,1.69-1.4,2.47a2.85,2.85,0,0,0,1.88,1.94A1.69,1.69,0,0,0,185.63,191.85Zm0-10.09a2.93,2.93,0,0,0-2-1.84c-.78,0-1.58,1-2.38,1.56l0,1c.82.52,1.62,1.39,2.48,1.47A1.7,1.7,0,0,0,185.62,181.76Zm401.23-9.93a1.69,1.69,0,0,0,1.87,2.15c.87-.08,1.65-1,2.48-1.49,0-.32,0-.64,0-1-.8-.56-1.61-1.57-2.39-1.55A2.91,2.91,0,0,0,586.85,171.83ZM183.64,170c-.78,0-1.59,1-2.39,1.53v1c.83.53,1.61,1.41,2.47,1.5a1.69,1.69,0,0,0,1.89-2.14A2.89,2.89,0,0,0,183.64,170Zm403.21-8.11a1.69,1.69,0,0,0,1.87,2.16c.86-.08,1.65-1,2.47-1.48l0-1c-.8-.56-1.61-1.58-2.38-1.55A2.9,2.9,0,0,0,586.85,161.88ZM183.61,164a1.69,1.69,0,0,0,2-2,2.88,2.88,0,0,0-1.85-2c-.78-.08-1.66.87-2.49,1.37l0,1C182,163,182.75,163.9,183.61,164Zm36.76,540.75a1.68,1.68,0,0,0,2.07,2c.85-.15,1.56-1,2.33-1.54v-.91c-.83-.53-1.69-1.51-2.49-1.46A2.83,2.83,0,0,0,220.37,704.79Zm11.35-2.38c-.5.79-1.34,1.54-1.43,2.38a1.69,1.69,0,0,0,2.1,2,2.91,2.91,0,0,0,1.88-2c0-.79-1-1.6-1.6-2.4Zm29.94,0c-.54.81-1.43,1.57-1.55,2.43a1.68,1.68,0,0,0,2.07,1.94,2.89,2.89,0,0,0,1.9-1.92c.05-.78-.93-1.62-1.47-2.44Zm10.28.47a2.83,2.83,0,0,0-1.88,1.92,1.67,1.67,0,0,0,2,2c.87-.17,1.6-1.06,2.4-1.63l0-.9C273.61,703.73,272.73,702.8,271.94,702.86ZM183.66,154.1a1.69,1.69,0,0,0,2-2.07,2.89,2.89,0,0,0-1.91-1.92c-.77-.06-1.63.92-2.45,1.44,0,.32,0,.64,0,1C182.05,153.07,182.8,154,183.66,154.1Zm2-22a2.92,2.92,0,0,0-2-1.87c-.77,0-1.6,1-2.41,1.5,0,.32,0,.65,0,1,.82.54,1.59,1.43,2.45,1.52A1.68,1.68,0,0,0,185.62,132.1Zm401.22-9.91a1.7,1.7,0,0,0,1.94,2.1c.86-.11,1.62-1,2.43-1.56v-1c-.82-.53-1.66-1.52-2.43-1.47A2.92,2.92,0,0,0,586.84,122.19Zm-405.58.58c.82.53,1.6,1.42,2.46,1.52a1.69,1.69,0,0,0,1.9-2.13,2.92,2.92,0,0,0-2-1.87c-.78,0-1.6,1-2.41,1.51C181.26,122.12,181.26,122.45,181.26,122.77Zm407.45-22.35a2.88,2.88,0,0,0-1.87,2,1.69,1.69,0,0,0,2,2c.86-.14,1.59-1.07,2.38-1.64l0-1C590.36,101.3,589.49,100.34,588.71,100.42Zm-59.8-54.73.94,0c.55-.81,1.57-1.64,1.54-2.42a2.94,2.94,0,0,0-1.92-1.95,1.68,1.68,0,0,0-2.06,2C527.51,44.17,528.38,44.91,528.91,45.69Zm-9.77,0,1,0c.5-.83,1.44-1.72,1.35-2.49a2.93,2.93,0,0,0-2-1.84,1.66,1.66,0,0,0-2,2C517.61,44.22,518.56,44.94,519.14,45.72ZM182.39,454.46c-.53.82-1.51,1.66-1.47,2.45a2.83,2.83,0,0,0,1.83,2,1.67,1.67,0,0,0,2.09-1.93c-.14-.89-1-1.66-1.53-2.49ZM469.16,45.66l.94.07c.59-.78,1.65-1.56,1.65-2.33a2.91,2.91,0,0,0-1.81-2,1.68,1.68,0,0,0-2.16,1.89C467.84,44.08,468.67,44.86,469.16,45.66Zm79.62,0,.9,0c.57-.74,1.46-1.41,1.64-2.24.26-1.27-.6-2.13-1.94-2.2a1.8,1.8,0,0,0-2.1,2.06C547.38,44.17,548.26,44.91,548.78,45.69Zm38.07,156a1.68,1.68,0,0,0,1.88,2.14c.87-.08,1.65-1,2.47-1.49,0-.32,0-.65,0-1-.8-.55-1.62-1.56-2.4-1.53A2.9,2.9,0,0,0,586.85,201.65Zm-405.61.5c.79.58,1.52,1.51,2.38,1.65a1.69,1.69,0,0,0,2-2,2.9,2.9,0,0,0-1.86-2c-.78-.07-1.65.88-2.48,1.38C181.26,201.51,181.25,201.83,181.24,202.15ZM586.05,516.57a2.91,2.91,0,0,0,1.92,1.91c.77.06,1.62-.92,2.44-1.45v-1c-.81-.56-1.56-1.47-2.42-1.58A1.69,1.69,0,0,0,586.05,516.57ZM182.91,617.87a2.91,2.91,0,0,0,1.92-1.91,1.69,1.69,0,0,0-2-2.08c-.86.11-1.62,1-2.42,1.58,0,.32,0,.64,0,1C181.28,617,182.13,617.93,182.91,617.87ZM588.69,179.93a2.9,2.9,0,0,0-1.85,2,1.69,1.69,0,0,0,2,2c.86-.14,1.58-1.08,2.36-1.67l0-1C590.35,180.79,589.47,179.85,588.69,179.93ZM588,568.18c.78.05,1.62-.94,2.43-1.47,0-.32,0-.65,0-1-.81-.55-1.57-1.45-2.44-1.55a1.68,1.68,0,0,0-1.93,2.09A2.88,2.88,0,0,0,588,568.18ZM183.62,283.31a1.69,1.69,0,0,0,2-2,2.9,2.9,0,0,0-1.86-2c-.78-.07-1.65.88-2.48,1.38,0,.33,0,.65,0,1C182,282.24,182.76,283.17,183.62,283.31ZM588,498.6c.78.06,1.62-.92,2.44-1.46v-1c-.8-.55-1.56-1.45-2.42-1.56a1.68,1.68,0,0,0-1.94,2.08A2.87,2.87,0,0,0,588,498.6ZM292.37,45.73l.89,0c.53-.78,1.4-1.53,1.49-2.36a1.79,1.79,0,0,0-2.1-2c-1.34.08-2.2.94-1.93,2.21C290.9,44.32,291.79,45,292.37,45.73ZM184.83,506.63a1.7,1.7,0,0,0-2-2.08c-.86.12-1.62,1-2.42,1.58v1c.82.53,1.67,1.51,2.45,1.45A2.88,2.88,0,0,0,184.83,506.63ZM183,538.36a2.92,2.92,0,0,0,1.87-2,1.69,1.69,0,0,0-2-2c-.86.13-1.59,1.07-2.38,1.64l0,1C181.31,537.48,182.18,538.43,183,538.36Zm405-53.68a1.69,1.69,0,0,0-2,2.08,2.91,2.91,0,0,0,1.92,1.91c.78.06,1.62-.93,2.44-1.46,0-.32,0-.64,0-1C589.61,485.7,588.86,484.79,588,484.68Zm-275.86-439h.94c.54-.83,1.54-1.68,1.49-2.47a2.92,2.92,0,0,0-2-1.89,1.69,1.69,0,0,0-2,2C310.73,44.23,311.6,44.94,312.14,45.71ZM591.2,231c-.83-.51-1.69-1.48-2.47-1.41a2.91,2.91,0,0,0-1.89,1.94,1.69,1.69,0,0,0,2,2.05c.85-.12,1.6-1.05,2.39-1.62C591.21,231.67,591.21,231.35,591.2,231ZM232.63,45.71h.94c.54-.83,1.54-1.68,1.48-2.47s-1.17-1.73-2-1.89a1.69,1.69,0,0,0-2,2C231.22,44.23,232.09,44.94,232.63,45.71Zm9.2,656.68c-.56.79-1.47,1.53-1.6,2.39a1.68,1.68,0,0,0,2,2,2.92,2.92,0,0,0,1.94-1.88c0-.78-.91-1.64-1.43-2.47ZM589,150.08c-1.21-.33-2.15.46-2.26,1.81a1.83,1.83,0,0,0,1.91,2.22c.83,0,1.63-.82,2.44-1.27l.12-.9C590.52,151.29,589.88,150.31,589,150.08ZM242.62,45.72l1,0c.52-.83,1.48-1.69,1.42-2.47a2.87,2.87,0,0,0-1.94-1.87,1.67,1.67,0,0,0-2,2C241.16,44.19,242.06,44.92,242.62,45.72Zm348.58,235c-.83-.51-1.69-1.48-2.47-1.41a2.93,2.93,0,0,0-1.89,1.95,1.7,1.7,0,0,0,2,2.05c.86-.13,1.6-1.06,2.39-1.62C591.21,281.37,591.2,281.05,591.2,280.72ZM281.46,702.41c-.52.82-1.39,1.61-1.47,2.47a1.67,1.67,0,0,0,2.13,1.87,2.86,2.86,0,0,0,1.84-2c0-.78-1-1.59-1.55-2.39ZM588,647.69c.77.06,1.62-.92,2.44-1.45,0-.32,0-.65,0-1-.8-.55-1.56-1.46-2.42-1.57a1.69,1.69,0,0,0-2,2.08A2.91,2.91,0,0,0,588,647.69ZM185.62,291.18a2.87,2.87,0,0,0-1.9-1.92c-.78-.06-1.63.9-2.46,1.42v1c.8.56,1.55,1.47,2.41,1.6A1.69,1.69,0,0,0,185.62,291.18ZM586.05,655.72a2.93,2.93,0,0,0,1.92,1.91c.77,0,1.62-.93,2.44-1.46,0-.32,0-.64,0-1-.81-.55-1.56-1.46-2.42-1.57A1.68,1.68,0,0,0,586.05,655.72Zm-266.36,49c0,1.32.82,2.25,2.13,2,.84-.15,1.56-1,2.33-1.53,0-.28,0-.57,0-.86-.76-.55-1.46-1.41-2.3-1.58C320.55,702.52,319.7,703.42,319.69,704.75Zm-134.87-39a1.69,1.69,0,0,0-1.87-2.16c-.86.08-1.65,1-2.48,1.49,0,.32,0,.64,0,1,.8.55,1.61,1.56,2.39,1.54A2.9,2.9,0,0,0,184.82,665.73ZM588,598c.78.06,1.63-.91,2.45-1.44,0-.32,0-.65,0-1-.8-.55-1.56-1.47-2.42-1.58a1.69,1.69,0,0,0-2,2.08A2.89,2.89,0,0,0,588,598ZM469.4,702.38l-.94,0c-.52.84-1.49,1.72-1.42,2.51s1.22,1.69,2,1.83a1.68,1.68,0,0,0,1.95-2.1C470.86,703.82,470,703.13,469.4,702.38Zm10,0h-.95c-.55.82-1.56,1.66-1.51,2.45s1.15,1.74,1.94,1.91a1.7,1.7,0,0,0,2-2C480.83,703.89,480,703.17,479.44,702.4ZM181.24,232c.79.58,1.52,1.52,2.38,1.66a1.69,1.69,0,0,0,2-2,2.88,2.88,0,0,0-1.86-2c-.78-.08-1.65.88-2.48,1.38Zm406.7,346.15c.77.07,1.64-.89,2.46-1.41l0-1c-.79-.57-1.53-1.49-2.39-1.61a1.68,1.68,0,0,0-2,2A2.87,2.87,0,0,0,587.94,578.11Zm-1.1-316.76a1.69,1.69,0,0,0,1.95,2.08c.86-.11,1.62-1,2.42-1.58,0-.32,0-.64,0-1-.81-.53-1.66-1.51-2.44-1.45A2.91,2.91,0,0,0,586.84,261.35ZM516.69,704.7a1.67,1.67,0,0,0,1.94,2.07c.88-.14,1.65-1,2.47-1.53v-.93c-.82-.53-1.66-1.5-2.44-1.46A2.85,2.85,0,0,0,516.69,704.7ZM184.84,586.12c-.16-.89-1-1.64-1.59-2.46l-.92,0c-.51.83-1.47,1.69-1.41,2.49a2.82,2.82,0,0,0,1.88,1.92A1.66,1.66,0,0,0,184.84,586.12Zm-1.22-372.38a1.69,1.69,0,0,0,2-2,2.88,2.88,0,0,0-1.86-2c-.78-.08-1.65.87-2.49,1.37l0,1C182,212.66,182.76,213.6,183.62,213.74ZM549,702.39h-1c-.54.83-1.53,1.69-1.47,2.48a2.87,2.87,0,0,0,2,1.87,1.69,1.69,0,0,0,2-2.06C550.39,703.86,549.51,703.15,549,702.39ZM322,45.69l.95,0c.57-.81,1.59-1.63,1.57-2.41s-1.11-1.77-1.9-2a1.7,1.7,0,0,0-2.08,2C320.64,44.17,321.48,44.91,322,45.69Zm-70.22,656.7c-.56.79-1.46,1.53-1.6,2.39a1.67,1.67,0,0,0,2,2,2.94,2.94,0,0,0,2-1.88c0-.78-.91-1.64-1.43-2.47ZM372.65,118.65q11.22.3,22.43.45c1.28,0,2.89,0,3-1.88s-1.42-1.82-2.63-2.11a5.31,5.31,0,0,1-.76-.41c-1.21-4.18-2.52-8.68-3.78-13.19A3,3,0,0,1,391,100c1.45-4.61,2.92-9.21,4.44-13.95.34,0,.59-.08.85-.1s.6.08.79,0c.73-.5,1.43-1.07,2.13-1.62-.65-.58-1.3-1.66-2-1.68-6.35-.2-12.71-.25-19.06-.27a39.17,39.17,0,0,0-5.94.38c-.65.09-1.2.93-1.79,1.42a9.3,9.3,0,0,0,1.66,1.37,4.43,4.43,0,0,0,1.49.32V115.1c-.55.16-.8.24-1.05.3-1.05.24-2.52,0-2.47,1.67S371.6,118.62,372.65,118.65ZM390.84,115h-5c.88-2.51,1.71-4.9,2.55-7.29l.38,0C389.47,110,390.12,112.35,390.84,115Zm1.47-28.89c-1.31,2.92-2.48,5.54-3.8,8.47l-3.81-8.47Zm-10.82,0c1.49,4.28,3,8.42,4.36,12.62a5.44,5.44,0,0,1,0,3c-1.11,3.81-2.37,7.57-3.59,11.35-.22.68-.5,1.34-.77,2h-3.31c-.44-9.67-.88-19.28-1.32-29Z"/></svg>