<svg xmlns="http://www.w3.org/2000/svg" viewBox="0 0 750 750"><path d="M606.26,48.78c0-14.9-11.35-23.8-23.81-23.78q-197.43.27-394.87.11c-13.42,0-22.91,9.45-22.91,22.84V374.86q0,163.84,0,327.7a23.08,23.08,0,0,0,.61,5.5c2.63,10.62,11.24,16.94,22.94,16.94H583.72c8-.19,14.43-3.44,18.93-10.19,2.83-4.24,3.55-9,3.55-14q0-248.31,0-496.62C606.19,152.38,606.08,100.58,606.26,48.78Zm-4.35,652.89c0,11.54-7.47,19.05-19,19.05q-197.55,0-395.09.07a18.64,18.64,0,0,1-19-19q.22-163.37.09-326.72V47.59c0-8.91,5.49-15.94,14-17.84a18.61,18.61,0,0,1,3.95-.34q198.54,0,397.08,0a17.67,17.67,0,0,1,17.95,17.83c0,1.33,0,2.65,0,4ZM409.15,383.06c11-8.38,16.09-19.6,15.47-33.35-.45-10,1.87-19.41,5.78-28.54,4.79-11.16,13-19.36,22.47-26.51a19.36,19.36,0,0,1,1.67-1c0,.25.06.33,0,.36-.72.95-1.45,1.89-2.17,2.83a23.26,23.26,0,0,0-4.81,18.28c.77,5.09,4.26,8,9.38,7.67a5.3,5.3,0,0,0,5.12-5.49,2.88,2.88,0,0,0-2.39-3,2.75,2.75,0,0,0-3.28,1.93,16,16,0,0,0-.63,2.67c-2.75-.3-3.86-1.19-4.39-3.73a18.46,18.46,0,0,1,.7-10.88,11.37,11.37,0,0,0,1,3.22,4,4,0,0,0,2.45,1.8c.61,0,1.64-1.26,1.87-2.12.88-3.25.43-6.31-2.2-8.81l2.16-2.92a27.59,27.59,0,0,0,.87,5.33,3.14,3.14,0,0,0,2.4,1.75c.77-.06,1.59-1.27,2.11-2.14a2.72,2.72,0,0,0-.05-1.92c-.65-2.14-1.39-4.24-2.27-6.89,2.07-1,4.17-2.65,6.51-3.18,8.12-1.84,16.32-3.35,24.51-4.9a38.57,38.57,0,1,0-16.17-75.39c-16,3.83-28.4,18.34-29.32,34.38-1,17.81,8.8,33.28,24.88,39.24l2,.78-.13.42-17.26,3.65c-.27-1-.44-1.53-.58-2.1-1.16-4.67-3.69-8.63-6.54-12.38-1.53-2-3.75-2.78-5.18-1.94-1.95,1.14-1.54,3-1.28,4.81.65,4.45,1.94,8.63,6.08,11.94a29.57,29.57,0,0,1-13.78-2c.24-1.68.52-3.3.68-4.92.26-2.7.54-5.4.62-8.1a3.28,3.28,0,0,0-2.85-3.55c-1.86-.35-2.8.92-3.46,2.36-.48,1-.78,2.17-1.17,3.29a27.71,27.71,0,0,0-3.87-3.24,4.19,4.19,0,0,0-3.24-.33c-.51.19-.8,1.9-.59,2.78.58,2.4,1.47,4.73,2.21,7a26,26,0,0,0-4.82-.95c-1.12,0-2.25.74-3.38,1.14.42,1.1.53,2.59,1.32,3.21,2.31,1.79,4.9,3.22,7,4.54a43.31,43.31,0,0,0-4.66,3.51c-.72.68-1.42,2.41-1.06,3A4.35,4.35,0,0,0,420,296.2a11.88,11.88,0,0,0,4-.94c1.08-.35,2.11-.9,3.3-1.42-1.59,5.6-1.22,8,1.33,9.44,2.47-.85,2.6-1.14,6.84-14.88,5.63,2.36,11.42,2.09,17.78,1.45l-1.16,1c-3.94,3.54-8,6.91-11.78,10.65-4.1,4.1-9,6.62-14.31,8.68a7.17,7.17,0,0,1-1.61.3l-4-3.43-.6-1.87c-1.73-.74-2.7-.05-3.07,1.35s.62,1.66,1.79,2a10.35,10.35,0,0,1,2.65,1.89l-.26.34-4.72-.35-1.48-1.15c-1.62.18-2.33,1.11-2,2.45.15.5,1.24,1,1.94,1.05,1.56.15,3.14.05,4.72.05a10,10,0,0,1-2.62,1.46c-.87.41-1.69.91-2.81,1.53v2.39c2.34.47,2.47.39,3.44-1.83l4.62-1.57.33.41-3.89,4.18c-.37-.17-.47-.06-.5.06-.33,1.38-.45,2.85,1.33,3.15,1.6.27,2.46-.65,2.31-2.38,0-.33.28-.7.46-1,1.05-2,2.11-3.9,3.33-6.13l8.37-3.79c-6,8.91-9.32,18.39-11.4,28.4-.28-.16-.43-.2-.48-.29-.28-.53-.51-1.07-.78-1.6-7.15-14.06-18.62-21.77-34.35-22.19-21.51-.57-38.91,16.76-39.2,38.31a86.15,86.15,0,0,1-.83,13.65C343.55,383.73,334,397.88,319,408.43a13.28,13.28,0,0,1-1.32.76,23.41,23.41,0,0,1,2.28-3.4,23.15,23.15,0,0,0,4.61-17.94c-.76-5.11-4.21-8-9.35-7.72-3.19.2-5.68,2.89-5,5.83a3.78,3.78,0,0,0,2.26,2.51c.92.18,2.32-.65,3.06-1.45s.63-1.95.91-3c2.58.2,3.74,1.06,4.28,3.47a18.31,18.31,0,0,1-.55,10.89,23,23,0,0,0-1.55-3.9c-1-1.64-2.76-1.45-3.54.28a8.79,8.79,0,0,0-.59,2.49,8.07,8.07,0,0,0,2.51,7.24l-2.16,2.93a27.55,27.55,0,0,0-.87-5.35,3.15,3.15,0,0,0-2.41-1.74c-.78.07-1.61,1.27-2.1,2.16a3.11,3.11,0,0,0,.12,2.11c.62,2.07,1.35,4.11,2.16,6.54-1.7,1-3.4,2.44-5.35,3-5.16,1.42-10.41,2.51-15.65,3.59s-10.44,1.39-15.35,3c-18.92,6.32-29.46,26-24.84,45.58,4.44,18.87,23.12,31.55,42.64,28.95a38.55,38.55,0,0,0,8.15-74.38c-.53-.2-1-.46-2-.91l17.23-3.64c1,2.73,1.7,5,2.73,7.16a43.79,43.79,0,0,0,3.72,6.1,10.13,10.13,0,0,0,2.95,2.85c2.45,1.46,4.71.14,4.52-2.69-.31-4.76-1.36-9.32-5-12.8a10.69,10.69,0,0,1-.82-1.06A28.87,28.87,0,0,1,338,418c-.24,1.68-.52,3.24-.67,4.8-.27,2.7-.55,5.4-.64,8.1a3.3,3.3,0,0,0,2.78,3.61c1.95.41,2.9-.94,3.59-2.46.44-1,.72-2.08,1.13-3.28.38.36.64.64.93.88a25.11,25.11,0,0,0,3.91,3c1.87.95,3.14-.05,3-2.12a9.23,9.23,0,0,0-.44-2.33c-.64-1.88-1.37-3.74-2.06-5.57a24.52,24.52,0,0,0,4.87,1c1.17,0,2.34-.78,3.51-1.21-.46-1.09-.62-2.56-1.43-3.19-2.29-1.76-4.85-3.17-6.88-4.45a54.79,54.79,0,0,0,4.84-3.74c.65-.6,1.23-2.1.91-2.69a4.26,4.26,0,0,0-2.71-1.61,6,6,0,0,0-2.9.4c-1.61.53-3.16,1.23-5.09,2,1.69-3.62,2-6.85-1.19-10-4.66,4.27-5.44,9.82-6.65,15.43-5.73-2.44-11.55-2.09-17.46-1.59,4.09-3.73,8.16-7.05,11.74-10.83,4.14-4.38,9.17-7.1,14.6-9.3a12,12,0,0,1,2.06-.49l4.06,3.51c0,.08,0,.42.14.58.52.56,1.39,1.6,1.61,1.49a4.44,4.44,0,0,0,1.85-1.94c.11-.25-.91-1.12-1.52-1.57-.95-.7-2-1.28-3-1.91l.25-.43,4.78.35,1.46,1.13c1.57-.09,2.32-.95,2-2.34-.29-1.58-1.4-1.17-2.63-1a21.85,21.85,0,0,1-4.6-.3l5.91-2.78v-2.55c-2.26-.75-3,.38-3.26,1.8l-4.75,1.65-.36-.38c1.34-1.42,2.67-2.85,4-4.27l.71.14a11.23,11.23,0,0,0-.88-2.95,2,2,0,0,0-1.93-.14,9.19,9.19,0,0,0-1.48,2.45l.05.05-3.34,6.77-7.9,3.58c2.14-4.35,4.6-8.67,6.41-13.23s3-9.47,4.56-14.38c.29.64.55,1.16.78,1.7C360.3,390.11,389.61,398,409.15,383.06ZM449.74,245.4A34.58,34.58,0,1,1,484.29,280,34.7,34.7,0,0,1,449.74,245.4Zm-32.06,36.89.21-.52,8.37,3.42C422.82,285.64,420.11,284.31,417.68,282.29Zm9.53-1.07-3.61-5.54.79-.5,3.51,5.61Zm4.44-3.46-.67-.1.57-4.94.61.07Zm17.18,7q-2.1-4-4.19-7.94l.54-.29,4.42,7.79ZM322.54,456.63a34.58,34.58,0,1,1-34.74-34.35A34.54,34.54,0,0,1,322.54,456.63Zm31.92-36c-.07.16-.14.32-.2.48l-8.38-3.46A10.58,10.58,0,0,1,354.46,420.67Zm-9.51,1,3.6,5.55-.79.5-3.51-5.61C344.48,422,344.71,421.82,345,421.68Zm-4.43,3.45.62.07-.54,5-.62-.07Zm-13.39,1.55-4.57-8C325,420.22,326.24,422.48,327.13,426.68ZM351.56,352a34.58,34.58,0,1,1,34.62,34.48A34.71,34.71,0,0,1,351.56,352Zm170.1,53.43a37.47,37.47,0,0,0-3.31-34.14c-10.82-17.63-34.3-23.57-51.92-13.3-9.25,5.39-15.62,13.15-18.3,23.5-3.62,14-.32,26.46,9.45,37.29-19.24,7.45-28.49,21.33-27.64,42-11.4-3.61-22.17-2.89-32.31,2.94a37.19,37.19,0,0,0-18.77,26.09c-4,20.62,9,40.72,29,45.24,10.14,2.28,19.83,1,28.7-4.45,14-8.58,19.81-21.45,18.93-37.62,20.07,5.07,36.46.07,46.8-18,9.19-16.05,6.19-31.61-5.73-46C508.57,424.89,517.25,417.28,521.66,405.43ZM426.85,510.14l4.73-.86c3.31,1.53,3.38,6.45,2.34,11.5a14.63,14.63,0,0,1-7.8-2.36c-2.65-1.82-2.91-2.92-1.38-5.76.22-.4.46-.79.76-1.31,2.41,2,2.2,6.56,6.79,6.74C432.45,514,429.08,512.66,426.85,510.14Zm-2.5-2.44L416.63,523l-7.48-15.37-16.31-2.49L404.56,493c-.85-5.26-1.72-10.66-2.69-16.64l15,7.95L432,476.6c-1,5.87-2,11.24-3,17l12,11.8ZM402,518.1c4.23-.31,4.27-4.11,6.36-6.2.71,1.44,1.36,2.72,2.08,4.17-2.56,3.48-6.22,4.31-10.36,4.68-.12-2.26-.56-4.4-.28-6.45.74-5.34,2.33-5.78,7.43-4C405.14,512.59,401.71,514,402,518.1Zm-8-26.74a24.67,24.67,0,0,0,4.27,1.55c.59.2,1.21.35,1.85.53l-2.91,2.94c-2.85.27-6.28-3.43-7.74-8.93a64.58,64.58,0,0,1,7.42-1.69c3-.33,4,.62,4.48,3.62.14.84.22,1.68.4,3.14-1.17-.84-1.89-1.43-2.69-1.89a23.16,23.16,0,0,0-4-2.05c-.61-.21-1.48.37-2.23.59C393.16,489.93,393.35,491,394,491.36Zm23.52-19.57c-2.49.5-2.21,2.25-2.12,3.87s.26,3.14.43,5.13l-3.82-2c-1-3.38,1.21-7.64,5.32-10.57,2.26,3.15,6,5.58,4.79,10.5l-4.5,2.38C417.67,477.89,419.82,474.83,417.48,471.79Zm18,24.18-3.81-3.74c1.17-.09,1.83-.12,2.48-.18a54.66,54.66,0,0,0,5.87-.7c.59-.13,1-1.15,1.49-1.75-.73-.41-1.56-1.27-2.19-1.14a57.31,57.31,0,0,0-5.87,1.79,6.84,6.84,0,0,1-.91.17c0-4.17,1.26-5.6,5-4.89,2.58.49,5,1.74,7.59,2.68C442.4,493.44,439.23,496.81,435.47,496Zm-2-12.38c.42-2.4.87-5,1.37-7.81l6.62,8.37ZM412.36,532c-15.9-1.87-28.56-15-30.08-31.29a34.77,34.77,0,0,1,23.77-36.14,35.18,35.18,0,0,1,22.64.33,4.07,4.07,0,0,1,3,3c.41,1.64,1.14,3.21,1.78,5l-9.24,4.78c.15-5.84-4.78-8.71-6.85-13.62-3,4.41-7.34,7.59-7.63,13.56l-11.32-5.93c.69,4.38,1.31,8.36,2,12.8-5.25-2.06-9.61,1.35-14.88,1.43,3.11,4.5,4.45,9.89,10.16,12.26-1.61,1.52-3.08,2.8-4.42,4.2s-3.22,2.1-3.39,4.59l11.91,2c-3.46,4.55-1.2,9.78-2.33,14.8,6.2-1,9.94-2.58,13.69-5.67,2.1,3.08,2.76,7.06,5.76,10l5.55-10.92c3.51,4.91,9.08,4.92,14.19,6.93-1.2-5.19,1.16-10.41-2.28-15.07l11.81-1.82-8.85-8.72.18-.62c5.18-.88,7-5.66,10.17-8.63a3.92,3.92,0,0,1,3.58,3.93A34.76,34.76,0,0,1,412.36,532Zm91-75.49a34.73,34.73,0,1,1-34.53-34.76A34.77,34.77,0,0,1,503.37,456.49Zm-39-69.92c1.37.45,2.76.85,4.53,1.38l-2.71,2.85c-3.45,0-7-3.93-8-9a66.92,66.92,0,0,1,7.63-1.65c2.78-.28,3.75.76,4.16,3.54l.45,3.14a50.16,50.16,0,0,0-4.65-3.08c-1.41-.72-3-1.86-4.5,0C461.49,385.75,463,386.12,464.34,386.57Zm8.85.92c-.87-5.41-1.74-10.8-2.69-16.69l15,8,15.14-7.72c-1,5.81-2,11.17-3,16.88l12,11.85c-4,.56-7.59,1.12-11.21,1.56-5.6.69-5.57.67-8.07,5.82-1.62,3.33-3.33,6.61-5.15,10.22-2.6-5.32-5.08-10.38-7.52-15.39l-16.29-2.51ZM485.59,366c-3.19,2.57-.69,5.89-1.47,9l-3.72-1.87c-.72-4.79,2.31-7.56,5.34-10.58,2.49,3.2,6,5.69,5,10.59l-4.16,2.18c.07-2.84.17-5.55.16-8.25C486.73,366.8,486.12,366.5,485.59,366Zm22.07,16.91a24.58,24.58,0,0,0-4.35,1.29l-2.37.79c.23-1.58.4-2.78.55-3.84,3.17-2.27,7.7-1.45,12.23,2.14-2.57,3.17-4.18,7.49-9.44,7.24-1.17-1.24-2.28-2.43-3.69-3.91.91-.06,1.57-.08,2.22-.15a44.5,44.5,0,0,0,5.67-.63c.64-.15,1.08-1.22,1.61-1.87C509.28,383.61,508.42,382.84,507.66,382.93Zm-8.3,25.29c-1.1-1.18-2.36-2.21-3.6-3.36,4.62-2.12,7.27-.54,7.46,4.42a54.76,54.76,0,0,1-.4,5.87c-4.54.08-9.81-2.3-10.61-5.66l2-4c1,1.65,1.71,3,2.53,4.28s1.45,2.9,3.37,2.84C501.31,411.21,501.18,410.18,499.36,408.22ZM483.51,420l-12.33-2.7,9-4.34Zm-7.81-15.12c-2,2-4.7,3.39-5.26,6.44,1.06,1.58,2.15,1.62,3.33,0,1.06-1.49,1.94-3.11,3.09-5,.77,1.53,1.42,2.83,2.11,4.23-2.57,3.57-6.25,4.24-10.6,4.69a60.58,60.58,0,0,1,0-6.62C469,403.72,470.79,402.87,475.7,404.83ZM495,425.37a3.79,3.79,0,0,1-3.69-.6c-1.56-1.19-3.28-2.18-5.06-3.34l4.93-9.87c3.4,5,9,5,14.15,7-1.06-5.18,1.23-10.37-2.27-15L515,401.67l-9-8.61c.09-.24.18-.48.26-.72,5.71-1,7.27-6.65,11.68-9.88-5.3-1.86-9.59-5.64-15.85-3.92.7-4.1,1.35-7.89,2.08-12.15l-11.34,5.73c.28-5.9-4.71-8.72-6.77-13.7-2.95,4.46-7.27,7.61-7.65,13.57l-11.31-5.9c.7,4.42,1.32,8.41,2,12.82-5.17-2.07-9.54,1.31-14.84,1.42,3.06,4.56,4.41,9.9,10.05,12.23l-8.39,8.11c4.19,2,8.41,1.57,12.56,2.8-3.43,4.18-1.22,9.22-2.14,13.77-2.42.81-4.28.7-6-1.29-9.24-10.49-12.12-22.45-7.43-35.62,4.61-12.94,14.19-20.56,27.76-22.68,18.13-2.82,35,9.31,38.91,27.63C523.2,402.67,512.24,420.54,495,425.37ZM258,292a38.77,38.77,0,0,0-4.26,42.71c10.11,18.5,32,25.75,50.87,16.8,9.06-4.31,15.71-11.12,19.25-20.49,5.82-15.4,2.76-29.33-8.19-41.78A39.48,39.48,0,0,0,337,273.29c5.17-7.8,6.89-16.47,6.1-26,12.11,3.77,23.34,2.8,33.76-3.81s16.49-16.3,17.89-28.63c2.33-20.62-12.75-39.88-33-42.46-10.87-1.38-20.73,1.07-29.3,7.82-11.29,8.88-15.89,20.8-14.78,35.1-19.39-5.06-35.55-.41-46.05,16.74-10.07,16.44-7.23,32.55,5.13,47.35A39.88,39.88,0,0,0,258,292Zm65.43-92.89a34.72,34.72,0,1,1,40.49,45.28A33.39,33.39,0,0,1,344,243a5.52,5.52,0,0,1-2.4-2.53,48.33,48.33,0,0,1-2-5.22l9.34-4.85c-.25,5.88,4.82,8.73,6.83,13.69,2.91-4.5,7.41-7.66,7.51-13.69l11.41,5.95c-.72-4.4-1.38-8.45-2.1-12.84,5.28,2.12,9.66-1.42,14.94-1.37-3.17-4.54-4.5-10-10-12.17,2-3.39,6.22-4.81,7.79-8.9l-12.21-1.93c3.59-4.55,1.14-9.82,2.43-15.08-4.91,1.87-10.15,1.95-13.68,6.1-2.24-3.24-2.77-7.29-5.9-10.1-1.93,3.82-3.64,7.21-5.49,10.89-3.53-5-9.13-4.87-14.24-6.95,1.32,5.22-1.19,10.49,2.43,15.1l-11.81,1.88,8.94,9.22c-5.47,1-7.33,5.86-10.7,9l-2.83-1.63A33.24,33.24,0,0,1,323.42,199.1Zm22.82-1.16-5.18.93c-3.89-3.34-2.34-7.48-2.24-11.57,3.61.21,6.84,1,9.44,3.53a2.66,2.66,0,0,1,.53,3.58c-.43.73-.82,1.49-1.3,2.39-2.36-2.16-2.26-6.38-6.22-6.85C340.09,192.18,340.43,192.72,346.24,197.94Zm2.4,2.46,7.68-15.31c2.63,5.36,5.07,10.32,7.53,15.35l16.49,2.45L368.5,214.94c.88,5.32,1.79,10.76,2.78,16.72l-15.09-7.92-15.12,7.81c1-5.78,1.93-11.19,2.87-16.7l-11.89-12.11Zm16-4.3L362.57,192c2.57-3.51,6.22-4.37,10.31-4.7.15,4,1.65,8.15-2.17,11.56l-5.08-.93c2.2-2.48,5.54-3.8,5.43-7.88C366.72,190.07,366.82,194.08,364.68,196.1Zm8.16,18.29,3.39-2.95c4.38.91,5.79,4.89,7.72,9.06a74.32,74.32,0,0,1-8,1.76c-2.77.31-3.73-.69-4.19-3.46-.16-1-.3-1.92-.48-3.09,3.16,1.19,5.2,5,9.44,3.13C379.14,215.12,375.56,215.85,372.84,214.39Zm-17,22.29c3.58-2.86,1-6.33,1.6-9.4l3.87,2c.87,4.79-2.34,7.57-5.17,10.59-3.39-3.48-6.53-6.92-5-10.67l4.56-2.42C355.32,230.1,353.45,233.18,355.86,236.68ZM337.35,212l3.89,3.92c-3.33.52-6.84-.68-9.56,1.66.06,2,.85,2.56,2.84,2s4-1.31,6.26-2.07c-.25,1.53-.45,2.79-.64,3.94-3.15,2.21-8,1.3-12.17-2.22C330.55,216.08,332.14,211.69,337.35,212Zm2.25,12.49c-.4,2.44-.85,5.15-1.31,7.93-2.38-3-4.69-5.86-6.79-8.5ZM269.79,251.9a34.74,34.74,0,1,1,34.71,34.67A34.84,34.84,0,0,1,269.79,251.9Zm41.28,70.64a28,28,0,0,0-4.25-1.56c-.68-.23-1.38-.39-2.35-.66l2.76-2.93c3.41-.08,7.14,4,8.11,9a71.69,71.69,0,0,1-7.2,1.71c-3.08.4-4.16-.6-4.65-3.61-.14-.89-.28-1.79-.49-3.1,2.88,1.59,5,4.25,8.32,4C312.77,324.24,312.28,323.18,311.07,322.54Zm-10.81-1.72c.88,5.32,1.79,10.77,2.77,16.66L288,329.55l-15.15,7.83c1-5.84,2-11.26,2.93-16.88l-11.87-11.93,16.54-2.37c2.56-5.1,5.07-10.11,7.67-15.31l7.55,15.38,16.49,2.45Zm-12.33,21.66c3-3,.73-6.26,1.29-9.34l3.89,2c.79,4.78-2.31,7.59-5.2,10.54-3.6-3.46-6.38-7.1-5-10.56l4.46-2.45C287.33,336,284.77,339.25,287.93,342.48Zm-15.66-18.85c.24,4.08-1.16,5.58-5,4.8-2.59-.53-5-1.76-7.62-2.7,2.72-5,5.79-8.63,8.71-8l4.43,3.65c-3.12.61-6,1.16-8.94,1.8-.28.06-.42.73-.76,1.37C266.51,327.08,269.26,323.53,272.27,323.63Zm5.4-20.1c-4.86,1.67-6.73,1.68-7.51-4.36-.25-1.92.21-3.93.35-5.89,4.34-.46,9.34,2.08,10.65,5.53l-2,4.07c-1-1.7-1.78-3.12-2.65-4.48s-1.48-2.93-4-2.43C272.05,300,275.74,301.21,277.67,303.53Zm12.11-15.22L302.33,291l-9.15,4.34Zm12.79,16.3-5.33-.87a39.43,39.43,0,0,0,3.46-3.09,32.05,32.05,0,0,0,2.39-3.36c-1.2-1.88-2.28-2-3.47-.29s-2,3.2-3.14,5.07l-2.1-4.26c2.57-3.65,6.32-4.3,10.41-4.76C304.64,297.05,306.29,301.15,302.57,304.61ZM278.36,283a3.79,3.79,0,0,1,3.69.61c1.53,1.16,3.21,2.1,5.08,3.29l-4.87,9.82c-3.62-4.27-5.82-4.27-14.17-6.61,1.06,4.95-1.31,10.24,2.31,14.85l-11.91,1.83,8.94,8.61-.17.69c-5.76,1-7.31,6.72-11.72,9.94,5.37,1.76,9.73,5.74,15.91,3.78-.68,4.08-1.34,8-2.05,12.24l11.29-5.81c-.24,5.85,4.75,8.7,6.84,13.72,2.88-4.55,7.32-7.71,7.55-13.69,3.82,2,7.41,3.85,11.34,5.91-.71-4.39-1.38-8.44-2.09-12.8,5.14,2.12,9.57-1.42,14.9-1.47-3.1-4.49-4.47-9.85-10-12.14l8.33-8.12a17.17,17.17,0,0,0-2.87-1.13c-3.16-.55-6.34-1-9.84-1.53,3.42-4.35,1.34-9.43,2.11-13.91,3-1.22,4.84-.27,6.65,1.85,9,10.6,11.65,22.56,6.79,35.58s-14.7,20.52-28.48,22.33c-17.92,2.35-34.56-10-38.1-28.05C250.39,305.4,261.3,287.76,278.36,283Zm302,139-4.26-3.09V671.73c-12.28,2.35-18.63,10-21.3,21.66h-122c2.52,2.73,4.87,4.6,8.7,4.27,4.74-.39,9.53-.09,14.3-.09l101.35,0a10.16,10.16,0,0,0,1.39-.17c1-13.76,9.37-19.9,21.85-22.15ZM194.7,671.71V418.86l-4.12,3.06V675.57a23,23,0,0,1,15.18,6.61c4.27,4.14,7,9,6.29,15.22.8.09,1.31.19,1.82.19q58.82,0,117.64,0c3.22,0,4.43-2.47,6.29-4.35H216.09C213.42,681.64,207,673.94,194.7,671.71ZM577,76.48v243l4.14-3.07V72.63A22.78,22.78,0,0,1,565.92,66c-4.22-4.11-6.88-8.88-6.2-15.15-.85-.09-1.3-.18-1.76-.18-38.88,0-77.76.07-116.64-.06-3.63,0-5.34,2.12-7.42,4.41H555.62C558.41,66.57,564.78,74.26,577,76.48Zm-385.61-3.8V316.37l4.29,3.17V76.46c12.21-2.27,18.57-10,21.25-21.59H339c-2.51-2.66-4.72-4.61-8.51-4.31-4.8.38-9.66.09-14.49.09l-101.35,0c-.51,0-1,.11-1.84.2.7,6.18-1.93,11-6.13,15.08A23.31,23.31,0,0,1,191.37,72.68Zm223.69,3.58H355.6V126h59.46ZM411,121.68h-51.1V80.51H411Zm98,428.24a10.49,10.49,0,0,0-2.66-.91c-3.52-1.26-7.09-2.44-10.49-4a6.27,6.27,0,0,1-3.54-5c-.39-2.69-.81-5.36-1.25-8-.66-4.09-1.34-8.17-2-12.25a2,2,0,0,0-.76,1.26c-.94,5.74-2.08,11.46-2.72,17.24a9.31,9.31,0,0,1-5.85,8,33.26,33.26,0,0,1-4.8,1.85c-2.13.61-4.31,1-6.51,1.5.13.2.18.38.27.4a15.68,15.68,0,0,1,1.55.28c3.67,1.25,7.42,2.33,11,3.85a6.91,6.91,0,0,1,4.14,5.7c.39,2.88.86,5.75,1.32,8.63q.92,5.64,1.87,11.28l.55,0c1.05-6.52,2.17-13,3.13-19.57.35-2.41,1.32-4.42,3.41-5.5a73.75,73.75,0,0,1,8.52-3.65A35.66,35.66,0,0,1,509,549.92Zm-24-399.32c.24,1.84.53,3.67.82,5.5l2.4,14.65.43.06c.13-.5.3-1,.38-1.5,1-5.88,2-11.73,2.79-17.63.4-3.14,1.79-5.54,4.55-6.72,3.49-1.49,7.2-2.49,10.82-3.69a14.74,14.74,0,0,1,1.49-.37,11.22,11.22,0,0,0-2.76-.93c-3.4-1.2-6.86-2.31-10.14-3.81a6.74,6.74,0,0,1-3.83-5.46c-.52-3.6-1.09-7.2-1.67-10.79-.49-3.08-1-6.15-1.55-9.23a2.7,2.7,0,0,0-.79,1.53c-.93,5.74-2.06,11.47-2.7,17.24a9.12,9.12,0,0,1-5.66,7.73,33,33,0,0,1-5,1.93c-2.13.62-4.31,1-6.47,1.5a3.71,3.71,0,0,0,1.78.66c4.06.73,8,1.77,11.49,4.11A7.38,7.38,0,0,1,484.94,150.6ZM235,576.92c4.19.77,8.27,1.84,11.82,4.37a7.23,7.23,0,0,1,3.24,5c.39,2.75.84,5.49,1.28,8.24.64,4,1.3,7.94,1.95,11.91l.43,0a9.5,9.5,0,0,0,.31-1.13c1-6,2.05-12,2.85-18a8.52,8.52,0,0,1,4.25-6.55,31,31,0,0,1,11.2-3.81c.47-.08.93-.24,1.39-.36a10.71,10.71,0,0,0-2.66-.9c-3.41-1.19-6.88-2.28-10.16-3.78a6.91,6.91,0,0,1-3.92-5.64c-.5-3.67-1.1-7.33-1.69-11-.48-3-1-5.94-1.51-8.91a2.14,2.14,0,0,0-.74,1.3c-1,6-2,12-2.84,18a8,8,0,0,1-4,6.25A21.37,21.37,0,0,1,241.9,574c-2.86.91-5.79,1.59-9.25,2.51ZM355.78,641.4c1.06,4.5,1.84,9.07,2.88,13.58a7.3,7.3,0,0,0,1.66,3,2.28,2.28,0,0,0,2.09.48,2.61,2.61,0,0,0,1.11-1.87c1.42-10.53,1.13-21.13,1.09-31.72a11,11,0,0,0-.32-2.75,7.34,7.34,0,0,0-1.07-1.76l-.77.09a8.31,8.31,0,0,0-.75,2.2c-.31,6.21-.55,12.42-.79,18.64-.05,1.27,0,2.54,0,3.82-2-8.43-5.47-16.25-8.5-24.12-1.87-.07-2.81.55-3,2.06a26.19,26.19,0,0,0-.38,3.74q.15,14,.41,28a4.06,4.06,0,0,0,.26,1.94,11.79,11.79,0,0,0,1.87,1.94c.53-.74,1.1-1.45,1.56-2.23.14-.24,0-.64,0-1V632.14C354.05,635.35,355.06,638.34,355.78,641.4ZM328.56,633c2.18-7.86-3.36-13.74-11.42-12.62-1,.14-2.06.36-2.95.52l-2-2.51-1.49,4.3a10.22,10.22,0,0,0-2,1.52,82.78,82.78,0,0,0-5.12,6.69,2,2,0,0,0,.67,3.2c2.31-2,3.29-5.35,6.58-6.78,0,1,0,1.68,0,2.4q-.35,13.6-.69,27.21c-.06,2.46.57,3.74,1.93,3.78s2-1.13,1.93-3.71c0-3,0-5.94,0-9C322.3,646.13,326.52,640.4,328.56,633Zm-14.45-7.84a8.87,8.87,0,0,1,7-.45,4.9,4.9,0,0,1,3.17,4.23c.87,5.51-4,13.3-9.36,14.88a3.77,3.77,0,0,1-.81,0Zm81.57,17.54c-.86-6.56-1.6-13.14-2.47-19.69a11.28,11.28,0,0,0-1.07-2.68l-1.14,0c-3.38,7.77-4.53,16.25-7,24.12-1.47,1-4.15-.25-4.18,2.31,0,.84,1.69,1.7,2.92,2.83-.5,2-1.17,4.67-1.78,7.3-.3,1.29-1.15,3,.89,3.44s2.12-1.32,2.51-2.62c.25-.82.4-1.67.61-2.51.53-2.09,1.08-4.18,1.64-6.37h6.1l.41,2.24c.41,2.35.71,4.72,1.3,7a2.28,2.28,0,0,0,1.79,1.33c.55,0,1.33-1,1.46-1.65a8.69,8.69,0,0,0-.21-2.94C396.88,650.81,396.21,646.77,395.68,642.71Zm-7.88,1.51c1-3.93,2-7.83,2.93-11.74l.34,0c.4,3.81.79,7.61,1.22,11.72Zm-104.43,9.52a3,3,0,0,0,4-.57,42.16,42.16,0,0,0,5.8-7.17c4.76-8.13-2-15.9-7.82-18-2.59-.93-4.37.86-3.64,3.52a38.64,38.64,0,0,0,1.55,4c-.75.05-1.39,0-2,.13-2.67.38-5.37.66-8,1.23-1.74.38-3.64,1.15-3.67,3.31s2,2.75,3.6,3.06c3.67.7,7.4,1.12,11.1,1.66-.59,1.47-1.39,3.14-1.91,4.88C281.91,651.24,281.93,652.77,283.37,653.74Zm2.15-3-.61-.36c.91-2.08,1.82-4.15,2.74-6.23l3.76-.87A18.6,18.6,0,0,1,285.52,650.73Zm5.69-14.16c-4.47,0-5.91-2.08-6.76-5.81C286.68,630.86,289.14,632.94,291.21,636.57Zm-18.51,4.28c2.82-2.49,15.22-2.72,19.47-.4C285.52,642.31,279.29,642,272.7,640.85Zm155.38,58a12.77,12.77,0,0,0-4.42-1.61c-2.56-.48-5.18-.66-7.87-1a16.17,16.17,0,0,0,1.39-3.52c.17-1.06.13-2.66-.51-3.21a3.86,3.86,0,0,0-3.4-.47,14.82,14.82,0,0,0-8.64,9.52c-1.74,5.64,3.09,12.62,6.91,15.43,1.21.89,2.57,1.57,4,.63s1.51-2.62,1.07-4.11c-.51-1.69-1.31-3.29-2.09-5.18a22.15,22.15,0,0,0,3.47,0,70.75,70.75,0,0,0,9.65-1.94C430.12,702.56,430.26,700.17,428.08,698.81Zm-13.36-7.74c-1.27,4.85-2.7,6.24-7,6.29A13.59,13.59,0,0,1,414.72,691.07Zm-6.82,13.09,3.42.75,3,6.78A13.45,13.45,0,0,1,407.9,704.16Zm-.55-3.08a30.06,30.06,0,0,1,18.64.13A31.83,31.83,0,0,1,407.35,701.08ZM346.24,50.58c3.16.63,6.37,1,9.7,1.55a13,13,0,0,0-1.32,3.24c-.16,1.13-.16,2.83.51,3.38a4.11,4.11,0,0,0,3.58.35,14.44,14.44,0,0,0,8.34-9.25,10.41,10.41,0,0,0-1.55-9.24,41.3,41.3,0,0,0-5.67-6.5,4.2,4.2,0,0,0-3.61-.43c-1.49.53-1.55,2.21-1.2,3.61a32.33,32.33,0,0,0,1.44,3.88,12.12,12.12,0,0,0,.67,1.32c-3.71.51-7.36.88-10.95,1.56-1.75.33-4,.82-3.88,3.23C342.4,49.5,344.42,50.22,346.24,50.58Zm10.86,6.49c.83-3.92,2.33-6.25,6.88-6.23A13.08,13.08,0,0,1,357.1,57.07Zm1.54-20.62q2.79,3.55,5.57,7.1l-.43.48-3.4-.76c-.9-2.07-1.81-4.2-2.73-6.33Zm6.17,10.95a37.59,37.59,0,0,1-19.33-.07C348.3,45.06,361.18,45.12,364.81,47.4Zm-7.47,641.5a3.47,3.47,0,0,0-3,.56,4,4,0,0,0-.58,3,19.46,19.46,0,0,0,1.5,3.87c-.7,0-1.16,0-1.61.11a94.46,94.46,0,0,0-9.53,1.69,4.45,4.45,0,0,0-2.53,2.88c-.36,1.6,1.24,2.42,2.61,2.72,2.83.63,5.7,1.1,8.57,1.51a26.39,26.39,0,0,0,3.67,0c-.77,1.89-1.58,3.49-2.09,5.18-.45,1.48-.5,3.1,1.05,4.11a3,3,0,0,0,4-.64,41.91,41.91,0,0,0,5.69-7C369.86,698.8,363.21,691.05,357.34,688.9Zm.15,22.71-.63-.38,2.75-6.31,3.78-.83A20.5,20.5,0,0,1,357.49,711.61ZM345,701.28a30.32,30.32,0,0,1,18.63-.28A31.72,31.72,0,0,1,345,701.28Zm13.93-4.6c-.9-1.53-1.9-3.22-3.09-5.22,3,.32,5.48,2.52,7.38,6.09ZM172.72,340.36a41.85,41.85,0,0,0,7.06,5.63c8.15,4.76,15.93-2.11,18-7.84.92-2.58-.88-4.36-3.54-3.63a36.53,36.53,0,0,0-4,1.58,21.37,21.37,0,0,0-.14-2.64,74,74,0,0,0-1.73-8.7,3.78,3.78,0,0,0-2.78-2.26c-.91,0-2.31,1.36-2.62,2.38a58,58,0,0,0-1.62,8.32,29.26,29.26,0,0,0,0,4.09c-1.87-.78-3.46-1.58-5.15-2.09-1.48-.45-3.1-.53-4.12,1A3.11,3.11,0,0,0,172.72,340.36Zm17.16-.51,4.87-3,.46.57c-.89,3.1-3.26,4.92-6.2,6.81C189.33,342.67,189.57,341.46,189.88,339.85Zm-4.52-14a30.31,30.31,0,0,1,.17,18.65A31.78,31.78,0,0,1,185.36,325.87Zm-9.94,11.87,6.22,2.73.85,3.75a18.34,18.34,0,0,1-7.46-5.89Zm5.89,61.32a90.37,90.37,0,0,0,1.82,9.27,3.33,3.33,0,0,0,2.38,1.93,3.08,3.08,0,0,0,2.42-1.56,29.05,29.05,0,0,0,1.78-6c.37-1.95.41-4,.59-6a19.16,19.16,0,0,0,3.84,1.5,3.87,3.87,0,0,0,3-.64,3.44,3.44,0,0,0,.5-3,17.31,17.31,0,0,0-2.91-4.65c-6.26-7.26-19.09-5.09-22.83,3.8a3.59,3.59,0,0,0-.15.37c-.65,2,.44,3.72,2.54,3.69a12.08,12.08,0,0,0,3.63-.77,31.73,31.73,0,0,0,3.34-1.58A25.57,25.57,0,0,0,181.31,399.06Zm14-3.86-.53.63-4.84-2.9c-.32-1.55-.57-2.81-.9-4.41C192,390.28,194.2,392.23,195.29,395.2Zm-10-7.3c2.32,3.32,2.24,15.75-.22,19.44A40.94,40.94,0,0,1,185.25,387.9Zm-10.07,7.19c.62-2.43,4.31-5.5,7.24-6.27-.24,1.07-.46,2.08-.76,3.41Zm312.71,248.6c3.64-.53,7.3-1,10.88-1.74a3.39,3.39,0,0,0,2.13-2.42,3.51,3.51,0,0,0-1.83-2.65,23.32,23.32,0,0,0-5.67-1.61c-2-.35-4-.4-6.13-.6a13.15,13.15,0,0,0,1.34-3.23,5.79,5.79,0,0,0-.41-3.63c-.87-1.34-2.51-.95-3.79-.3a15.17,15.17,0,0,0-8,8.66,11.29,11.29,0,0,0-.43,4.26c.3,4.9,3.22,8.37,6.58,11.55a5.76,5.76,0,0,0,1.67,1c2.3,1,4.33-.22,4.08-2.71a23.41,23.41,0,0,0-1.48-4.86,15.63,15.63,0,0,0-.9-1.76A15.31,15.31,0,0,0,487.89,643.69Zm-2-14,.62.44-2.87,5-4.45.86C481,633,482.91,630.78,485.87,629.69ZM485.08,650c-2.61-1.79-4.34-4.3-5.95-7.51l3.78.89c.9,2,1.82,4.18,2.74,6.3Zm-6.21-10.51a30.31,30.31,0,0,1,18.65.17A32,32,0,0,1,478.87,639.45ZM588.39,325.72c-.31-1.57-.93-3.42-3-3.35s-2.64,1.77-3.18,3.35a17.88,17.88,0,0,0-.82,3.47c-.29,2.22-.45,4.45-.69,6.92-1.17-.51-2.17-1-3.2-1.38-1.35-.51-3-.92-3.74.54a5,5,0,0,0-.09,3.84,14.45,14.45,0,0,0,8.14,7.7,11.53,11.53,0,0,0,4.45.63c4.59-.19,8-2.85,11.09-5.87,2.11-2.05,2.59-4.07,1.62-5.42s-3-1.56-5.67-.46c-1.17.48-2.29,1.07-3.1,1.45C589.56,333.25,589.11,329.46,588.39,325.72ZM575.67,337.5c.15-.2.3-.4.44-.61l4.95,2.88c.34,1.71.58,2.92.88,4.46C579,342.42,576.73,340.49,575.67,337.5Zm9.75,7a30.48,30.48,0,0,1,.18-18.68C587.26,332.12,587.5,338.35,585.42,344.54Zm10.22-6.81.3.57c-1.78,2.63-4.3,4.35-7.52,6,.37-1.55.62-2.57.91-3.81Zm2.59,54.62a41.36,41.36,0,0,0-7.06-5.63c-8.15-4.74-15.92,2.09-18,7.85-.92,2.57.9,4.36,3.55,3.63a37.8,37.8,0,0,0,4-1.58,23.85,23.85,0,0,0,.14,2.65,74.4,74.4,0,0,0,1.74,8.7,3.79,3.79,0,0,0,2.78,2.25c.91,0,2.32-1.37,2.61-2.39a69.06,69.06,0,0,0,1.63-8.72,26.87,26.87,0,0,0,0-3.71c1.81.77,3.34,1.57,5,2.07s3.22.64,4.3-1A3.1,3.1,0,0,0,598.23,392.35ZM576,395.46c0-2.17,1.94-4.49,5.75-6.8C581.71,393,580.08,394.42,576,395.46Zm9.64,11.41a30.1,30.1,0,0,1-.2-18.63A31.8,31.8,0,0,1,585.62,406.87Zm10-11.9-6.23-2.71-.79-3.34.48-.49,7.15,5.61ZM414.45,59.37c2.58.93,4.39-.86,3.67-3.51A33.55,33.55,0,0,0,416.6,52c2.69-.32,5.31-.52,7.88-1a13,13,0,0,0,4.27-1.51c2.29-1.38,2.12-3.53-.28-4.71a10.16,10.16,0,0,0-3-1c-3.32-.48-6.66-.82-10-1.2.61-1.56,1.42-3.28,2-5.09.42-1.44.42-3.24-1.16-3.81a4.4,4.4,0,0,0-3.77.53,35.1,35.1,0,0,0-5.88,7.12C401.87,49.51,408.67,57.29,414.45,59.37Zm.62-22.78-2.91,6.68-3.3.77C409.2,41.61,412.27,37.73,415.07,36.59Zm12.14,10.68a38.08,38.08,0,0,1-19.34.21C410.79,45.19,423.66,45,427.21,47.27ZM415.29,57a13,13,0,0,1-6.73-6.11C413.14,50.64,415,53.7,415.29,57Zm21.2,599.1c-.05,1.57.23,3.65,1.91,3.7a63.7,63.7,0,0,0,10.19-.92c.45-.07,1.15-1.32,1-1.83a3,3,0,0,0-1.71-1.52,5,5,0,0,0-2.15.14c-1.61.22-3.22.48-4.8.72V642.73c1.26-.08,2.23-.13,3.19-.21a16.1,16.1,0,0,0,3.71-.41,2.42,2.42,0,0,0,1.33-1.87,2.65,2.65,0,0,0-1.49-1.77,7.68,7.68,0,0,0-2.93-.4c-1.22,0-2.44.12-4.06.22V623.77l8-.39c0-1.82-.7-3-2.3-3.1a70.1,70.1,0,0,0-9.27.44c-.62.07-1.14,1.16-1.76,1.84l1.7,1.42v14.8c-1.42,1-4.06.47-3.8,2.88.08.72,2.06,1.23,3.64,2.1,0,.12,0,.77,0,1.42C436.78,648.81,436.6,652.45,436.49,656.09ZM185.79,50.59c2,2.54,4.1,5,6.11,7.37-1.41.56-3.05,1.08-4.56,1.85s-2.89,1.86-2.47,3.86,2.07,2.47,3.66,2.4A34.43,34.43,0,0,0,196.91,65a12.8,12.8,0,0,0,5.88-3.65c3.49-4.24,3.52-9.26,1.61-14.23a3.86,3.86,0,0,0-2.69-2.1c-.85-.08-2.05,1-2.66,1.86a16.81,16.81,0,0,0-1.5,3.64c-2.13-1.67-4.07-3.37-6.19-4.82a12.94,12.94,0,0,0-4.26-2c-2.65-.62-4,1-3,3.54A12.81,12.81,0,0,0,185.79,50.59Zm2.39,11.81,6.44-2.69,3,1.9C195.32,63,190.9,63.6,188.18,62.4Zm13.76-14.8c1.49,3.18,1.31,6.18.63,9.29C199.57,53.86,199.32,50.88,201.94,47.6Zm-1.21,12.19c-3.77-.36-13.13-9.22-14.16-13.42A38,38,0,0,1,200.73,59.79ZM580.05,690.23c1.39-.6,3.14-1.22,4.76-2.07,1.41-.74,2.48-1.9,2.07-3.68a3,3,0,0,0-3.34-2.29,43,43,0,0,0-9.15,1.14c-8.72,2.43-9.6,12.37-6.88,18.2,1.15,2.48,3.69,2.49,5.06.1a30.13,30.13,0,0,0,1.58-3.76c2.76,2,5.5,4,8.36,5.87,1.46,1,3.31,1.61,4.78.22s.59-3.33-.37-4.69C584.74,696.15,582.33,693.2,580.05,690.23Zm3.35-5c.07.22.13.44.19.67l-6.49,2.64-3.29-2.1C577.22,685.29,580.25,684.64,583.4,685.19Zm-13.58,15.36c-1.52-3-1.28-6-.65-9.32C572.6,694.53,572.13,697.18,569.82,700.55Zm1.66-12.18a31.77,31.77,0,0,1,13.6,13A30,30,0,0,1,571.48,688.37ZM570.34,62c3.72,3.73,8.67,4.46,13.76,4.09,1.61-.11,3.23-.57,3.59-2.51s-.93-3-2.38-3.71-3.22-1.35-4.59-1.9c2.12-2.62,4.42-5.17,6.37-8,1.15-1.64,2.95-3.77,1-5.69s-4.16-.39-6,.8c-2.47,1.63-4.76,3.53-7.19,5.36A14.44,14.44,0,0,0,573.56,47c-.67-.9-1.88-2-2.8-2a3.56,3.56,0,0,0-2.61,2.17,27.2,27.2,0,0,0-.77,8.53A11.47,11.47,0,0,0,570.34,62Zm14,.36-.19.65c-3.17.59-6.22-.12-9.6-1.18l3.29-2.12Zm1.5-15.53a32.21,32.21,0,0,1-13.58,13A29.79,29.79,0,0,1,585.88,46.83Zm-15.34.94c2.54,2.27,2.39,5.51-.53,9.32C569.32,53.76,569.1,50.75,570.54,47.77ZM201.46,686.15c-3.89-3.57-8.73-4.39-13.82-4-1.55.11-3.11.55-3.54,2.33-.49,2,.83,3.13,2.35,3.9s3.22,1.35,4.49,1.87c-.72.88-1.59,1.8-2.3,2.82a83.22,83.22,0,0,0-5.43,8.21c-1,2,.37,3.58,2.6,3.31a7.22,7.22,0,0,0,3.14-1.08c2.67-1.79,5.23-3.76,7.87-5.68a13.76,13.76,0,0,0,1.38,3.44c.66.91,1.89,2,2.81,1.94a3.77,3.77,0,0,0,2.62-2.19,20,20,0,0,0,1.1-6.18A11.07,11.07,0,0,0,201.46,686.15Zm-14.11-.31.19-.65c3.17-.57,6.21.15,9.65,1.18-1.21.78-2.15,1.39-3.32,2.13Zm-1.47,15.56a31.63,31.63,0,0,1,13.59-13A30,30,0,0,1,185.88,701.4Zm15.23-.86c-2.56-3-2.31-6.13.68-9.27C202.39,694.46,202.72,697.49,201.11,700.54Zm251.9-50a8.33,8.33,0,0,0-.22,4.73c1.3,3.84,3.61,4.85,8.41,4.27,4.4-.53,7.07-3.57,6.34-7.92a25.33,25.33,0,0,0-2.86-8.55,38.34,38.34,0,0,0-6.47-7.72,9.27,9.27,0,0,1-2.88-8.62c.37-2.46,1.64-3.46,4.09-3.18a3.88,3.88,0,0,1,3.5,3,28.8,28.8,0,0,0,1.16,2.76h.74a4.76,4.76,0,0,0,.77-1.23c.7-2.89-1.66-6.58-4.68-7.4-3.73-1-7.43.56-8.38,3.73-1.52,5.09-1.17,9.83,2.93,13.76.86.82,1.69,1.68,2.48,2.57a21.35,21.35,0,0,1,5.2,8.81c1.35,5.27.89,6-4.47,6.58a1.11,1.11,0,0,1-.39-.07,5.92,5.92,0,0,1-2.17-3.08c-.2-1.12.33-2.37.53-3.45C454.65,648.65,453.38,649.25,453,650.5Zm-74.51-593a2.69,2.69,0,0,0,2.3.37c.43-.16.73-1.32.66-2-.36-3.41,1.14-5.93,4.57-7.26,3.8,1.11,5.45,3.61,5.05,7.29a2.43,2.43,0,0,0,.7,2,3,3,0,0,0,2.15-.28,4.22,4.22,0,0,0,1.29-1.21A11.46,11.46,0,0,0,384,37.93a11.52,11.52,0,0,0-9.2,9.94A10.59,10.59,0,0,0,378.5,57.46Zm2.59-14.05c3-2.62,6.48-2.75,9.79-.37,2.75,2,3.78,5.1,2.63,7.89-4.13-8.17-11.23-6.66-14.4,0C377.92,48.64,378.75,45.48,381.09,43.41ZM576.53,371.1a2.12,2.12,0,0,0-1.7.6,3,3,0,0,0,0,2,3.3,3.3,0,0,0,1,1.2,11.28,11.28,0,0,0,13.08,1.6,11.45,11.45,0,0,0,5.83-12.2,11.57,11.57,0,0,0-10-9.39,10.55,10.55,0,0,0-9.58,3.68,2.69,2.69,0,0,0-.37,2.3c.17.42,1.33.72,2,.65,3.4-.36,5.91,1.15,7.25,4.58C582.89,370,580.56,371.45,576.53,371.1Zm5.15-12a7,7,0,0,1,8.09,2.85c2.11,3,2,6.2-.43,9.34a6.58,6.58,0,0,1-7.67,2.38C589,369.89,589.22,363.18,581.68,359.06ZM393.33,690.81a2.72,2.72,0,0,0-2.29-.46c-.48.23-.79,1.42-.71,2.13a6.27,6.27,0,0,1-5.1,7.13c-3.44-1.24-4.88-3.67-4.52-7.36.06-.62-.23-1.64-.65-1.84a2.37,2.37,0,0,0-2.13.19,12.32,12.32,0,0,0-2.73,3.34,11.34,11.34,0,0,0,6.08,15.76c7.16,3,13.59-2.05,15.19-7.14C397.79,698.37,396.49,693.2,393.33,690.81ZM390,705.22c-3.14,2.24-6.41,2.21-9.33-.08a6.82,6.82,0,0,1-2.47-7.85c3.47,6.76,10.24,8.1,14.56,0A6.66,6.66,0,0,1,390,705.22ZM194.3,361.58c.62.06,1.64-.2,1.86-.62a3,3,0,0,0-.15-2.16,4.53,4.53,0,0,0-1.34-1.43A11.49,11.49,0,1,0,181,375.81c4.58,3.22,11.22,2.62,14.63-1.44a2.88,2.88,0,0,0,.61-2.42c-.19-.48-1.51-.78-2.28-.7-3.34.33-6-1.58-7-5.11C188.16,362.72,190.68,361.2,194.3,361.58Zm-4.82,12.14c-3.81.86-6.49-.25-8.43-3.28a7.18,7.18,0,0,1,.37-8.84,6.94,6.94,0,0,1,7.85-2.55C181.41,363.47,182.29,370.08,189.48,373.72Zm153.6,249.64c1.18-.13,2.43-.82,2-2.13-.24-.8-1.49-1.33-2.36-1.88-.28-.17-.77,0-1.17,0-2.17.23-4.35.38-6.5.74a25.25,25.25,0,0,0-3.59,1.13v20.08c0,6.44,0,12.88,0,19.69l4.26-.87c2.72-.58,5.46-1,8.12-1.82a2.77,2.77,0,0,0,1.53-2.09c0-.51-1.13-1.37-1.87-1.54a7.74,7.74,0,0,0-3.13.18c-1.73.37-3.42.9-5.23,1.39V644c2.9-.66,5.93,0,8.27-1.86.21-2.15-.68-3.05-2.94-2.91-1.76.11-3.5.44-5.39.69-.28-5.33-.56-10.5-.84-15.92l1.67-.1C338.34,623.71,340.72,623.62,343.08,623.36Zm68.07,35.77c2.56-.84,6.28-5.46,6.34-8.16,0-.69-.57-1.88-1.08-2a3.26,3.26,0,0,0-2.33.84c-.51.41-.57,1.34-1,1.9-1,1.27-2.05,2.45-3,3.55-3-1.27-3.8-2.12-4.47-4.69a35.13,35.13,0,0,1-1.05-14.76,31.36,31.36,0,0,1,3-9.73c1.87-3.43,4.5-3.26,6.95-.26.51.64,1.08,1.24,1.62,1.85l.7-.11a4.31,4.31,0,0,0,.49-1.65,6.63,6.63,0,0,0-9.16-4.81,11.63,11.63,0,0,0-5.59,6.2,32.92,32.92,0,0,0-2.43,14.58A61.16,61.16,0,0,0,402,653.22C403,657.21,408,660.16,411.15,659.13ZM429,168.85c-.43-2.49-.87-5-1.3-7.47a1.46,1.46,0,0,0-.69,1c-.62,3.72-1.37,7.42-1.8,11.17a6,6,0,0,1-3.75,5.17c-2.29,1-4.7,1.68-7.17,2.55,2.2.7,4.41,1.3,6.53,2.12,2.59,1,4.29,2.76,4.42,5.76a35.51,35.51,0,0,0,.66,4.32q.64,3.84,1.31,7.68a1.45,1.45,0,0,0,.69-1c.56-3.39,1.35-6.77,1.6-10.18.3-3.93,2.48-6,5.9-7.08,1.38-.46,2.81-.76,4.21-1.16a12.39,12.39,0,0,0,1.17-.47c-2.31-.73-4.43-1.27-6.44-2.07-2.69-1.06-4.55-2.85-4.67-6A33.54,33.54,0,0,0,429,168.85ZM348.9,532.65c-2.59-.95-5.18-1.74-7.63-2.84A5.63,5.63,0,0,1,338,525c-.51-4.13-1.28-8.22-1.95-12.32l-.46-.06c-.13.55-.29,1.1-.38,1.66a87.89,87.89,0,0,0-1.48,9.61c-.22,4.1-2.65,6-6.07,7.16-1.66.56-3.39.94-5.68,1.56,1.19.3,1.81.41,2.41.61,1.93.66,3.91,1.23,5.78,2.06a5.58,5.58,0,0,1,3.36,4.79c.37,3.08.92,6.15,1.41,9.22.17,1.08.4,2.15.6,3.22a4.43,4.43,0,0,0,.9-2.25c.51-3.13,1.23-6.25,1.45-9.41.23-3.46,2.19-5.26,5.1-6.36,1.6-.6,3.3-1,4.95-1.43C348.26,532.94,348.62,532.76,348.9,532.65Zm27.53,124.08a24.62,24.62,0,0,0,.08-2.58c.06-8.6.11-17.21.2-25.82,0-1.36.17-2.72.27-4.09a32.3,32.3,0,0,0,5.16-.09,2.52,2.52,0,0,0,1.56-1.81,2.28,2.28,0,0,0-1.41-1.76,39,39,0,0,0-14.05.08c-1.52,2.5-.41,3.32,5.07,3.77-.16,1.68-.4,3.25-.43,4.82-.16,8.54-.28,17.07-.41,25.61,0,.6-.18,1.32.09,1.76.49.81,1.14,1.86,1.92,2.07C375.75,659,376.29,657.87,376.43,656.73Zm48.36-16.44c0-5.68-.25-11.37-.46-17a8.65,8.65,0,0,0-.72-2.23l-.91,0a13.19,13.19,0,0,0-.94,2.87c-.31,4-.53,7.92-.7,11.88-.28,6.68-.48,13.36-.77,20-.1,2.36.53,3.3,3.08,3.29,3.5,0,7-.3,10.49-.63.74-.07,1.42-.82,2.59-1.54-4-3.62-8.32-1.08-12.15-2.07,0-.55,0-1.13,0-1.71C424.47,648.89,424.8,644.59,424.79,640.29ZM294.86,550.5c-2.65-.74-4.73-1.86-4.74-5.18a31.19,31.19,0,0,0-.94-5.43l-.52,0c-.26,1.68-.56,3.35-.77,5-.43,3.48-1.28,4.51-4.67,5.48-.52.15-1.06.26-1.59.38a8.55,8.55,0,0,0,2.54,1.18c1.92.66,3.37,1.61,3.52,4a59.47,59.47,0,0,0,1,6.19l.56-.07a59,59,0,0,0,1-6,4.16,4.16,0,0,1,3.06-3.93c1-.39,2-.72,3-1.07A3.4,3.4,0,0,0,294.86,550.5ZM278.21,187.17a26.46,26.46,0,0,0,.79,4.36l.41-.08a36.51,36.51,0,0,0,.94-5.61c0-3,1.86-4.15,4.29-4.89.59-.18,1.16-.39,1.74-.59a3.86,3.86,0,0,0-1.65-.78c-2.56-.71-4.37-1.93-4.4-5a33.83,33.83,0,0,0-.94-5.5,30.43,30.43,0,0,0-1.59,6.64,3.84,3.84,0,0,1-2.71,3.31c-1,.4-2.11.75-3.44,1.22a5.36,5.36,0,0,0,1,.46C276.45,181.23,278.13,183.43,278.21,187.17Zm238.26,5.53c.19,1.57.53,3.13.8,4.69l.52,0a50.59,50.59,0,0,0,1-5.93,4.24,4.24,0,0,1,3-4c1-.42,2.07-.7,3.46-1.15l-2.24-.68c-2.46-.71-4.26-1.86-4.27-4.87a37.84,37.84,0,0,0-1-6,6.08,6.08,0,0,0-.59,1.13c-.24,1.36-.5,2.72-.66,4.09-.42,3.71-1.22,4.7-4.82,5.77-.49.14-1,.26-1.8.46a16.92,16.92,0,0,0,1.67.66C515.33,187.92,516,188.75,516.47,192.7ZM247.27,373.11a27.62,27.62,0,0,0-1.51,6.52,4.06,4.06,0,0,1-2.94,3.59c-1,.41-2.12.67-3.41,1.06a4.58,4.58,0,0,0,.85.4c3.85.66,6,2.71,5.89,6.84a19,19,0,0,0,.78,4.07,24.28,24.28,0,0,0,1.38-6.09,4.48,4.48,0,0,1,3.39-4.15l2.85-1a2.84,2.84,0,0,0-1.22-.44c-2.77-.73-5.05-1.83-5.12-5.32A35,35,0,0,0,247.27,373.11ZM518,508.72c.2,1.66.54,3.3.82,4.94a24.4,24.4,0,0,0,1.45-6.27,4.27,4.27,0,0,1,2.95-3.83c1.08-.43,2.19-.76,3.74-1.29-1-.19-1.53-.25-2-.38-2.66-.74-4.7-1.93-4.78-5.19a38.21,38.21,0,0,0-.94-5.56,26.87,26.87,0,0,0-1.51,6.5,4.1,4.1,0,0,1-2.91,3.61c-1,.41-2.12.67-3.52,1.1.75.26,1.28.49,1.84.64C516.64,504,517.5,505,518,508.72ZM185,437.15c0-1.41-.61-2.51-2.12-2.57s-2.07.9-2.44,2.76c.82.63,1.58,1.62,2.49,1.8C184.12,439.36,185.06,438.58,185,437.15Zm403.08-2.58c-1.52,0-2.1,1.12-2.16,2.53s.84,2.25,2,2c.92-.16,1.69-1.13,2.52-1.74C590.13,435.54,589.57,434.54,588.1,434.57Zm-406.31-9.52a3.47,3.47,0,0,0-.66,2.76c.41,1.55,1.8,1.42,3.27,1a2.53,2.53,0,0,0-.23-3.61C183.66,424.79,182.1,424.68,181.79,425.05Zm405.94-111.9c.66.46,1.91.08,2.9.08.44-3.64-.46-4.47-3.33-3.68A2.4,2.4,0,0,0,587.73,313.15Zm2.12,112.39c-.88-1.05-2-1.4-3-.38a2.48,2.48,0,0,0-.21,3.65C589.53,429.42,590.37,428.56,589.85,425.54ZM185,313a2.43,2.43,0,0,0,0-3.62c-1.4-.3-2.8-.41-3.17,1.17a3.49,3.49,0,0,0,.75,2.72C183,313.63,184.53,313.46,185,313Zm-.13,133.5a2.72,2.72,0,0,0-2.07-1.53,2.77,2.77,0,0,0-1.92,1.71c-.42,1.47.58,2.28,2,2.56C184.45,448.93,185.39,448,184.89,446.49ZM588.14,445a2.75,2.75,0,0,0-2.07,1.53c-.5,1.39.35,2.35,1.92,2.75,1.49-.29,2.48-1.1,2.07-2.57A2.77,2.77,0,0,0,588.14,445ZM439.6,45.57a1.88,1.88,0,0,0,2-2.14c0-1.23-.6-2.15-2.76-2.1-.29.38-1.2,1.07-1.31,1.86A2,2,0,0,0,439.6,45.57Zm-.8,657.07a2,2,0,0,0-2,2.4c.12.79,1,1.47,1.33,1.87,2.13,0,2.73-.89,2.74-2.14A1.89,1.89,0,0,0,438.8,702.64ZM332.74,45.57c1.49.11,2.08-.87,2.64-2.66a8,8,0,0,0-2.24-1.52c-1.35-.36-2.13.56-2.24,1.84A1.92,1.92,0,0,0,332.74,45.57Zm-.47,657.08a1.88,1.88,0,0,0-2.17,2c0,1.23.49,2.18,2.64,2.26.32-.37,1.27-1,1.43-1.8A2,2,0,0,0,332.27,702.65Zm-30-656.82.9,0c.54-.77,1.43-1.5,1.54-2.32a1.81,1.81,0,0,0-2.05-2.11c-1.35,0-2.21.91-2,2.18C300.86,44.38,301.75,45.07,302.3,45.83Zm-40.73,656.6c-.49.83-1.34,1.64-1.4,2.51a1.69,1.69,0,0,0,2.19,1.82,2.92,2.92,0,0,0,1.79-2c0-.79-1-1.57-1.62-2.35Zm327.16-429c.86-.08,1.65-1,2.48-1.48l0-1c-.8-.56-1.61-1.57-2.39-1.54a2.86,2.86,0,0,0-2,1.83A1.69,1.69,0,0,0,588.73,273.44Zm-403-1.9c-.1-.88-.94-1.68-1.45-2.52l-.92,0c-.56.8-1.56,1.61-1.54,2.4a2.84,2.84,0,0,0,1.78,2A1.69,1.69,0,0,0,185.7,271.54ZM282.39,45.82h.95c.53-.83,1.52-1.69,1.47-2.47a2.9,2.9,0,0,0-2-1.88,1.68,1.68,0,0,0-2,2.06C281,44.35,281.85,45.06,282.39,45.82Zm-9.91,0,.95,0c.53-.82,1.5-1.67,1.45-2.45A2.9,2.9,0,0,0,273,41.46a1.67,1.67,0,0,0-2.05,2C271,44.28,271.93,45,272.48,45.82Zm-10,0h1c.53-.81,1.52-1.65,1.48-2.43a2.89,2.89,0,0,0-1.89-1.92A1.67,1.67,0,0,0,261,43.39C261.08,44.25,262,45,262.5,45.81ZM185.69,261.49a2.91,2.91,0,0,0-1.84-2c-.78-.08-1.66.87-2.5,1.37,0,.32,0,.64,0,1,.78.58,1.51,1.52,2.37,1.67A1.68,1.68,0,0,0,185.69,261.49Zm403.16-11.92a2.89,2.89,0,0,0-2,1.84,1.68,1.68,0,0,0,1.87,2.15c.86-.08,1.65-.95,2.48-1.47,0-.33,0-.65,0-1C590.43,250.56,589.62,249.55,588.85,249.57ZM253.54,45.81c.53-.78,1.41-1.51,1.52-2.35a1.68,1.68,0,0,0-2.05-2,2.92,2.92,0,0,0-1.93,1.94c0,.78,1,1.61,1.53,2.43Zm-30.82,0h.95c.55-.82,1.56-1.66,1.51-2.44s-1.14-1.75-1.93-1.92a1.69,1.69,0,0,0-2,2C221.33,44.32,222.19,45,222.72,45.81Zm-39,207.76a1.69,1.69,0,0,0,2-2.07,2.91,2.91,0,0,0-1.9-1.93c-.77-.06-1.63.91-2.45,1.44,0,.32,0,.64,0,1C182.12,252.53,182.87,253.45,183.73,253.57Zm405-13.93a2.91,2.91,0,0,0-1.89,1.94,1.69,1.69,0,0,0,2,2c.86-.13,1.6-1,2.4-1.61l0-1C590.38,240.54,589.52,239.57,588.74,239.64Zm-407.4,2.48c.82.53,1.6,1.42,2.46,1.51a1.69,1.69,0,0,0,1.89-2.14,2.88,2.88,0,0,0-2-1.85c-.77,0-1.59,1-2.39,1.51C181.33,241.48,181.33,241.8,181.34,242.12Zm407.43,61.13c.86-.1,1.63-1,2.44-1.54,0-.32,0-.64,0-1-.81-.54-1.64-1.53-2.42-1.49a2.89,2.89,0,0,0-1.94,1.88A1.68,1.68,0,0,0,588.77,303.25ZM183,474.78c-.86.08-1.66,1-2.48,1.47l0,1c.79.56,1.6,1.57,2.38,1.55a2.91,2.91,0,0,0,2-1.84A1.69,1.69,0,0,0,183,474.78Zm2.66-173.6a2.87,2.87,0,0,0-1.9-1.92c-.78-.06-1.63.92-2.45,1.44,0,.32,0,.64,0,1,.8.56,1.56,1.47,2.42,1.59A1.68,1.68,0,0,0,185.69,301.18ZM591.2,221.13c-.84-.5-1.72-1.45-2.49-1.36a2.92,2.92,0,0,0-1.86,2,1.7,1.7,0,0,0,2,2c.86-.15,1.58-1.09,2.36-1.67Zm-409.86,1.14c.82.52,1.61,1.4,2.48,1.48a1.69,1.69,0,0,0,1.87-2.15,2.9,2.9,0,0,0-2-1.84c-.78,0-1.59,1-2.39,1.54Zm405.51-10.54a1.69,1.69,0,0,0,1.94,2.09c.87-.12,1.62-1,2.43-1.57v-1c-.82-.53-1.67-1.51-2.44-1.46A2.88,2.88,0,0,0,586.85,211.73Zm4.35,79c-.83-.51-1.7-1.47-2.47-1.4a2.93,2.93,0,0,0-1.88,2,1.68,1.68,0,0,0,2,2c.86-.13,1.6-1.05,2.39-1.62ZM587.93,454.9a1.7,1.7,0,0,0-1.87,2.16,2.93,2.93,0,0,0,2,1.84c.78,0,1.59-1,2.38-1.56l0-1C589.58,455.85,588.79,455,587.93,454.9Zm-365.66,248a2.81,2.81,0,0,0-1.83,2,1.69,1.69,0,0,0,2.15,1.91c.83-.18,1.51-1.07,2.26-1.64l0-.89C224,703.73,223.07,702.79,222.27,702.87Zm9.6-.47c-.53.77-1.39,1.5-1.52,2.33a1.7,1.7,0,0,0,2,2,2.91,2.91,0,0,0,1.94-1.92c0-.78-1-1.63-1.52-2.44Zm-49-237.56c-.86.13-1.6,1.05-2.39,1.62l0,1c.82.51,1.69,1.48,2.46,1.41a2.89,2.89,0,0,0,1.89-1.94A1.68,1.68,0,0,0,182.92,464.84Zm88.79,237.55c-.56.79-1.47,1.53-1.6,2.39a1.67,1.67,0,0,0,2,2,2.89,2.89,0,0,0,1.94-1.87c.06-.79-.9-1.65-1.42-2.47Zm19.74,0c-.52.83-1.38,1.61-1.47,2.48a1.68,1.68,0,0,0,2.14,1.87,2.9,2.9,0,0,0,1.84-2c0-.78-1-1.59-1.55-2.38ZM588.77,190a2.91,2.91,0,0,0-1.92,1.91,1.69,1.69,0,0,0,1.95,2.08c.86-.11,1.62-1,2.42-1.57v-1C590.4,190.88,589.55,189.9,588.77,190Zm-405.53-.44c-.52.82-1.49,1.67-1.45,2.45a2.85,2.85,0,0,0,1.85,2,1.68,1.68,0,0,0,2.06-2c-.13-.88-1-1.64-1.54-2.46ZM301.47,702.4c-.54.76-1.42,1.46-1.56,2.29a1.7,1.7,0,0,0,2,2.07,2.9,2.9,0,0,0,2-1.88c.05-.79-.94-1.65-1.47-2.47ZM185.69,181.87a2.9,2.9,0,0,0-2-1.86c-.77,0-1.6,1-2.4,1.53,0,.32,0,.64,0,1,.81.53,1.6,1.41,2.46,1.51A1.69,1.69,0,0,0,185.69,181.87ZM311.37,702.4c-.54.77-1.4,1.5-1.52,2.33a1.7,1.7,0,0,0,2,2,2.91,2.91,0,0,0,1.94-1.92c0-.78-1-1.63-1.52-2.44ZM588,478.77c.77.07,1.64-.9,2.46-1.42l0-1c-.79-.57-1.54-1.49-2.4-1.61a1.68,1.68,0,0,0-2,2.05A2.91,2.91,0,0,0,588,478.77Zm.82-304.7c.87-.11,1.64-1,2.45-1.54v-1c-.81-.54-1.64-1.53-2.42-1.49a2.9,2.9,0,0,0-1.94,1.89A1.68,1.68,0,0,0,588.77,174.07Zm-405-4c-.78,0-1.61,1-2.42,1.5v1c.81.54,1.58,1.44,2.45,1.54a1.69,1.69,0,0,0,1.91-2.11A2.9,2.9,0,0,0,183.75,170.07Zm405-5.94c.86-.12,1.62-1,2.42-1.58,0-.32,0-.64,0-1-.82-.53-1.66-1.5-2.44-1.45a2.91,2.91,0,0,0-1.92,1.91A1.69,1.69,0,0,0,588.8,164.13Zm-405-4c-.77,0-1.62.93-2.43,1.45v1c.8.55,1.56,1.46,2.42,1.57a1.68,1.68,0,0,0,1.94-2.08A2.89,2.89,0,0,0,183.77,160.14ZM183,488.71a2.91,2.91,0,0,0,1.89-1.94,1.69,1.69,0,0,0-2-2.06c-.86.13-1.6,1.05-2.39,1.62,0,.32,0,.64,0,1C181.37,487.81,182.23,488.78,183,488.71ZM449,702.87a1.92,1.92,0,0,0,.1,3.84c.79,0,1.63-1,2.45-1.51l0-1C450.69,703.73,449.8,702.78,449,702.87Zm10.52-.47h-1c-.53.82-1.51,1.66-1.46,2.45a2.86,2.86,0,0,0,1.91,1.9,1.67,1.67,0,0,0,2.06-2C461,704,460.09,703.2,459.54,702.4Zm29.85,0h-.95c-.54.82-1.54,1.67-1.5,2.46a2.92,2.92,0,0,0,2,1.9,1.7,1.7,0,0,0,2-2C490.79,703.88,489.93,703.17,489.39,702.4Zm99.44-558.14c.86-.13,1.6-1.06,2.4-1.62l0-1c-.83-.51-1.7-1.47-2.47-1.4a2.91,2.91,0,0,0-1.89,1.94A1.69,1.69,0,0,0,588.83,144.26Zm-403.14-2a2.92,2.92,0,0,0-1.85-2c-.77-.08-1.65.87-2.49,1.37l0,1c.78.58,1.5,1.51,2.36,1.66A1.69,1.69,0,0,0,185.69,142.24Zm403-7.92c.86-.08,1.66-.94,2.49-1.46l0-1c-.79-.56-1.59-1.58-2.37-1.56a2.9,2.9,0,0,0-2,1.82A1.69,1.69,0,0,0,588.71,134.32ZM183,494.65c-.86.1-1.63,1-2.45,1.52,0,.33,0,.65,0,1,.81.55,1.63,1.55,2.41,1.51a2.93,2.93,0,0,0,2-1.88A1.69,1.69,0,0,0,183,494.65ZM499.35,702.41h-.94c-.56.81-1.57,1.65-1.53,2.44a2.92,2.92,0,0,0,1.93,1.92,1.7,1.7,0,0,0,2.05-2C500.73,703.9,499.88,703.18,499.35,702.41Zm9.86,0-.95,0c-.52.82-1.49,1.68-1.44,2.46a2.88,2.88,0,0,0,1.92,1.89,1.67,1.67,0,0,0,2.05-2C510.66,703.94,509.76,703.19,509.21,702.39Zm76.85-195.75a2.9,2.9,0,0,0,1.88,1.94c.78.07,1.64-.9,2.47-1.41l0-1c-.79-.57-1.53-1.49-2.39-1.62A1.69,1.69,0,0,0,586.06,506.64ZM529.12,702.4h-1c-.54.81-1.52,1.65-1.48,2.43s1.11,1.73,1.89,1.92a1.67,1.67,0,0,0,2.08-1.93C530.55,704,529.66,703.21,529.12,702.4Zm10,0h-1c-.56.79-1.57,1.6-1.55,2.39a2.9,2.9,0,0,0,1.85,2,1.68,1.68,0,0,0,2.13-1.88C540.51,704,539.65,703.23,539.13,702.41ZM183,514.53c-.87.08-1.66,1-2.48,1.47,0,.33,0,.65,0,1,.79.57,1.6,1.58,2.38,1.55a2.91,2.91,0,0,0,2-1.84A1.69,1.69,0,0,0,183,514.53ZM588.75,114.44c.87-.09,1.65-1,2.46-1.51v-1c-.8-.54-1.63-1.54-2.4-1.51a2.88,2.88,0,0,0-2,1.87A1.68,1.68,0,0,0,588.75,114.44ZM184.9,526.54a1.69,1.69,0,0,0-2-2.08c-.86.12-1.61,1-2.42,1.58v1c.82.53,1.67,1.51,2.45,1.45A2.93,2.93,0,0,0,184.9,526.54Zm401.16,0a2.9,2.9,0,0,0,1.94,1.89c.78,0,1.61-1,2.42-1.49v-1c-.81-.54-1.58-1.44-2.44-1.54A1.69,1.69,0,0,0,586.06,526.57Zm2,11.82c.77,0,1.59-1,2.39-1.53l0-1c-.82-.53-1.6-1.42-2.47-1.5a1.69,1.69,0,0,0-1.88,2.14A2.89,2.89,0,0,0,588,538.39ZM185.7,112.4a2.91,2.91,0,0,0-1.89-2c-.78-.07-1.64.9-2.47,1.41,0,.33,0,.65,0,1,.79.57,1.53,1.49,2.39,1.62A1.7,1.7,0,0,0,185.7,112.4Zm-.8,434.06a1.69,1.69,0,0,0-1.91-2.12c-.86.09-1.64,1-2.45,1.52,0,.33,0,.65,0,1,.81.54,1.64,1.54,2.41,1.5A2.92,2.92,0,0,0,184.9,546.46Zm403.15-2.12a1.69,1.69,0,0,0-2,2,2.9,2.9,0,0,0,1.87,2c.78.07,1.65-.89,2.48-1.4l0-1C589.64,545.4,588.91,544.47,588.05,544.34ZM184.9,556.4a1.7,1.7,0,0,0-1.91-2.13c-.86.1-1.63,1-2.45,1.53v1c.81.55,1.64,1.54,2.41,1.51A2.94,2.94,0,0,0,184.9,556.4ZM588,558.27c.78,0,1.6-1,2.41-1.52,0-.32,0-.64,0-1-.82-.53-1.6-1.42-2.46-1.52a1.69,1.69,0,0,0-1.9,2.13A2.9,2.9,0,0,0,588,558.27Zm-407.48,8.49c.82.52,1.67,1.5,2.45,1.45a2.93,2.93,0,0,0,1.91-1.92,1.69,1.69,0,0,0-2-2.08c-.86.12-1.62,1-2.42,1.58C180.53,566.11,180.54,566.43,180.54,566.76ZM183.6,104.5a1.69,1.69,0,0,0,2.1-1.93c-.11-.88-1-1.66-1.49-2.49h-.92c-.55.81-1.53,1.63-1.51,2.43A2.88,2.88,0,0,0,183.6,104.5Zm1.31,471.81c-.11-.89-.95-1.69-1.46-2.53l-.92,0c-.55.8-1.55,1.61-1.54,2.41a2.87,2.87,0,0,0,1.78,2A1.67,1.67,0,0,0,184.91,576.31Zm403,7.78a1.7,1.7,0,0,0-1.84,2.18,2.93,2.93,0,0,0,2,1.81c.78,0,1.57-1,2.36-1.58l0-1C589.57,585,588.77,584.15,587.9,584.09ZM183,594c-.86.1-1.63,1-2.45,1.53,0,.32,0,.64,0,1,.81.54,1.64,1.54,2.41,1.5a2.92,2.92,0,0,0,2-1.87A1.69,1.69,0,0,0,183,594Zm1.92,12c-.18-.88-1.06-1.62-1.63-2.42l-.92,0c-.5.84-1.43,1.72-1.36,2.52a2.81,2.81,0,0,0,1.92,1.88A1.66,1.66,0,0,0,184.91,606Zm401.15,0a2.92,2.92,0,0,0,1.88,2c.78.06,1.64-.9,2.47-1.42,0-.32,0-.64,0-1-.79-.57-1.53-1.49-2.39-1.62A1.69,1.69,0,0,0,586.06,606Zm0,10a2.91,2.91,0,0,0,1.92,1.91c.77.05,1.62-.93,2.44-1.46v-1c-.8-.55-1.56-1.46-2.42-1.57A1.68,1.68,0,0,0,586.06,616Zm2.66-525.4a2.9,2.9,0,0,0-1.87,2,1.69,1.69,0,0,0,2,2c.86-.14,1.59-1.07,2.38-1.64l0-1C590.37,91.46,589.5,90.5,588.72,90.58Zm-405.05,4a1.7,1.7,0,0,0,2-2c-.15-.87-1-1.62-1.59-2.43l-.92,0c-.51.83-1.47,1.69-1.41,2.48A2.86,2.86,0,0,0,183.67,94.56Zm403.19-12.1a1.69,1.69,0,0,0,1.85,2.17c.86-.07,1.66-.94,2.49-1.45l0-1c-.79-.57-1.59-1.59-2.37-1.57A2.9,2.9,0,0,0,586.86,82.46ZM183.64,84.62a1.68,1.68,0,0,0,2.06-2c-.13-.88-1-1.64-1.53-2.46h-.93c-.53.82-1.49,1.67-1.45,2.45A2.85,2.85,0,0,0,183.64,84.62Zm-.73,539.21c-.86.14-1.59,1.06-2.39,1.64l0,1c.83.51,1.7,1.47,2.47,1.4a2.89,2.89,0,0,0,1.88-2A1.69,1.69,0,0,0,182.91,623.83Zm405,0a1.69,1.69,0,0,0-1.84,2.18,2.91,2.91,0,0,0,2,1.81c.78,0,1.57-1,2.36-1.58,0-.33,0-.65,0-1C589.57,624.77,588.76,623.9,587.9,623.84Zm-49-578,.89,0c.56-.76,1.45-1.45,1.6-2.27.23-1.27-.63-2.13-2-2.18a1.81,1.81,0,0,0-2,2.11C537.48,44.31,538.37,45,538.91,45.81Zm-28.89,0c.55-.76,1.42-1.46,1.57-2.29a1.69,1.69,0,0,0-2-2.07,2.9,2.9,0,0,0-2,1.87c-.06.79.93,1.65,1.46,2.48Zm-9.93,0c.54-.8,1.43-1.55,1.56-2.42a1.67,1.67,0,0,0-2.07-1.94,2.9,2.9,0,0,0-1.91,1.9c0,.78.93,1.63,1.46,2.45Zm-9.78,0c.49-.84,1.34-1.65,1.4-2.52a1.69,1.69,0,0,0-2.19-1.82,2.87,2.87,0,0,0-1.79,2c0,.79,1,1.57,1.62,2.35Zm-307.6,592c1.21.33,2.14-.46,2.26-1.8a1.84,1.84,0,0,0-1.91-2.22c-.83,0-1.63.82-2.45,1.27,0,.3-.07.6-.11.89C181.23,636.58,181.86,637.56,182.71,637.79Zm403.35-2a2.92,2.92,0,0,0,1.85,2c.77.08,1.65-.87,2.49-1.37,0-.32,0-.64,0-1-.79-.58-1.51-1.52-2.36-1.66A1.69,1.69,0,0,0,586.06,635.78Zm-105.81-590c.53-.76,1.4-1.48,1.53-2.31a1.69,1.69,0,0,0-2-2c-.79.17-1.91,1.2-1.95,1.9s1,1.64,1.5,2.46ZM183,643.71c-.86.1-1.63,1-2.44,1.54v1c.8.55,1.64,1.54,2.41,1.5a2.91,2.91,0,0,0,2-1.89A1.69,1.69,0,0,0,183,643.71ZM460.36,45.82c.54-.77,1.41-1.48,1.54-2.31a1.68,1.68,0,0,0-2-2,2.9,2.9,0,0,0-2,1.89c-.05.79.94,1.64,1.48,2.46ZM183.05,657.64a2.92,2.92,0,0,0,1.85-2,1.68,1.68,0,0,0-2-2c-.86.14-1.58,1.08-2.36,1.66l0,1C181.39,656.78,182.28,657.72,183.05,657.64ZM449.4,45.79l.94,0c.56-.8,1.59-1.62,1.56-2.39a2.92,2.92,0,0,0-1.88-2,1.67,1.67,0,0,0-2.08,2C448,44.26,448.88,45,449.4,45.79ZM586.06,665.67a2.87,2.87,0,0,0,1.92,1.9c.78,0,1.62-.92,2.44-1.45,0-.33,0-.65,0-1-.81-.55-1.57-1.45-2.43-1.57A1.69,1.69,0,0,0,586.06,665.67Zm4.34-199.39c-.83-.51-1.64-1.37-2.5-1.44a1.7,1.7,0,0,0-1.84,2.19,2.89,2.89,0,0,0,2,1.8c.78,0,1.57-1,2.36-1.58C590.43,466.93,590.41,466.6,590.4,466.28ZM516.72,704.64a1.66,1.66,0,0,0,1.86,2.13c.89-.11,1.68-.94,2.52-1.45l0-.92c-.79-.56-1.6-1.56-2.39-1.54A2.84,2.84,0,0,0,516.72,704.64ZM242.55,45.8l.95,0c.57-.79,1.58-1.6,1.57-2.38a2.88,2.88,0,0,0-1.83-2,1.69,1.69,0,0,0-2.15,1.86C241.17,44.19,242,45,242.55,45.8ZM588.73,263.5c.86-.08,1.65-1,2.48-1.48,0-.32,0-.64,0-1-.8-.56-1.61-1.57-2.39-1.55a2.88,2.88,0,0,0-2,1.84A1.69,1.69,0,0,0,588.73,263.5ZM233.67,45.8c.53-.77,1.41-1.5,1.51-2.34a1.68,1.68,0,0,0-2.05-2,2.93,2.93,0,0,0-1.92,1.94c-.05.78,1,1.61,1.52,2.43ZM548.93,702.39l-.94,0c-.52.84-1.5,1.73-1.42,2.51a2.86,2.86,0,0,0,2,1.83,1.68,1.68,0,0,0,1.95-2.1C550.38,703.82,549.49,703.14,548.93,702.39ZM586.85,281.3a1.69,1.69,0,0,0,1.95,2.08c.86-.12,1.62-1,2.42-1.58,0-.32,0-.64,0-1-.81-.53-1.66-1.51-2.44-1.46A2.92,2.92,0,0,0,586.85,281.3Zm-403.7,7.6c-.49.84-1.43,1.72-1.36,2.5a2.84,2.84,0,0,0,1.92,1.9,1.68,1.68,0,0,0,2-2c-.16-.88-1.06-1.61-1.63-2.41Zm405.63-59.2a2.92,2.92,0,0,0-1.93,1.9,1.69,1.69,0,0,0,1.94,2.09c.86-.1,1.62-1,2.43-1.56v-1C590.4,230.63,589.56,229.65,588.78,229.7Zm-405.06,4a1.69,1.69,0,0,0,2-2c-.17-.88-1.08-1.61-1.65-2.4l-.92,0c-.49.84-1.42,1.73-1.35,2.51A2.86,2.86,0,0,0,183.72,233.68Zm-.81,221.22c-.86.13-1.6,1.06-2.39,1.64l0,1c.83.51,1.7,1.46,2.48,1.39a2.9,2.9,0,0,0,1.87-1.95A1.69,1.69,0,0,0,182.91,454.9Zm2.79-243c-.11-.88-.95-1.67-1.47-2.5l-.93,0c-.55.8-1.54,1.62-1.51,2.41a2.84,2.84,0,0,0,1.8,2A1.69,1.69,0,0,0,185.7,211.9Zm405.51-10.6c-.83-.51-1.69-1.48-2.47-1.41a2.91,2.91,0,0,0-1.89,1.94,1.69,1.69,0,0,0,2,2c.86-.13,1.6-1,2.4-1.62C591.22,201.94,591.21,201.62,591.21,201.3Zm-.8,364.4c-.82-.53-1.61-1.4-2.47-1.49a1.69,1.69,0,0,0-1.88,2.15,2.91,2.91,0,0,0,2,1.85c.78,0,1.59-1,2.39-1.54C590.43,566.34,590.42,566,590.41,565.7ZM183.85,203.88a1.7,1.7,0,0,0,1.84-2.19,2.9,2.9,0,0,0-2-1.8c-.77,0-1.57,1-2.35,1.58l0,1C182.18,203,183,203.82,183.85,203.88ZM588.77,184c.86-.1,1.63-1,2.44-1.53,0-.32,0-.64,0-1-.81-.54-1.63-1.54-2.41-1.5a2.9,2.9,0,0,0-1.95,1.88A1.69,1.69,0,0,0,588.77,184ZM181.34,281.9c.83.52,1.62,1.4,2.49,1.48a1.69,1.69,0,0,0,1.86-2.16,2.88,2.88,0,0,0-2-1.83c-.77,0-1.58,1-2.38,1.54C181.33,281.25,181.34,281.58,181.34,281.9ZM586.06,486.84a2.9,2.9,0,0,0,2,1.87c.77,0,1.6-1,2.41-1.51v-1c-.82-.54-1.59-1.43-2.45-1.53A1.7,1.7,0,0,0,586.06,486.84Zm.8-334.8a1.69,1.69,0,0,0,1.87,2.15c.87-.08,1.65-1,2.48-1.48,0-.32,0-.65,0-1-.8-.56-1.61-1.56-2.39-1.54A2.88,2.88,0,0,0,586.86,152Zm-401.17,0a2.9,2.9,0,0,0-2-1.83c-.78,0-1.59,1-2.38,1.55l0,1c.82.52,1.61,1.4,2.48,1.47A1.69,1.69,0,0,0,185.69,152ZM586.06,496.78a2.9,2.9,0,0,0,2,1.86c.78,0,1.6-1,2.41-1.51v-1c-.82-.54-1.6-1.42-2.46-1.52A1.69,1.69,0,0,0,586.06,496.78ZM183,504.59c-.87.1-1.63,1-2.44,1.54,0,.33,0,.65,0,1,.81.54,1.65,1.52,2.43,1.48a2.9,2.9,0,0,0,1.94-1.89A1.69,1.69,0,0,0,183,504.59Zm2.72-372.32a2.91,2.91,0,0,0-1.89-1.94c-.78-.07-1.64.9-2.47,1.41,0,.32,0,.64,0,1,.8.57,1.54,1.49,2.4,1.62A1.69,1.69,0,0,0,185.7,132.27Zm403-11.88a2.91,2.91,0,0,0-1.89,1.94,1.69,1.69,0,0,0,2,2c.86-.13,1.6-1,2.39-1.62,0-.32,0-.64,0-1C590.38,121.29,589.51,120.32,588.74,120.39Zm-.82,533.26a1.7,1.7,0,0,0-1.86,2.17,2.92,2.92,0,0,0,2,1.82c.78,0,1.58-1,2.37-1.56l0-1C589.58,654.59,588.78,653.72,587.92,653.65ZM519.15,45.83l1,0c.5-.84,1.44-1.72,1.36-2.49a2.94,2.94,0,0,0-2-1.86,1.67,1.67,0,0,0-2,2C517.63,44.31,518.57,45,519.15,45.83Zm69.63,58.68c.86-.1,1.63-1,2.44-1.55v-1c-.81-.54-1.65-1.53-2.43-1.48a2.89,2.89,0,0,0-1.93,1.88A1.69,1.69,0,0,0,588.78,104.51ZM182.94,538.39a2.9,2.9,0,0,0,2-1.86,1.69,1.69,0,0,0-1.9-2.13c-.86.09-1.64,1-2.46,1.52,0,.32,0,.64,0,1C181.34,537.43,182.16,538.43,182.94,538.39Zm347-492.58c.53-.77,1.4-1.49,1.52-2.32a1.69,1.69,0,0,0-2-2,2.9,2.9,0,0,0-1.94,1.91c0,.78,1,1.63,1.5,2.45Zm56.12,470.87a2.91,2.91,0,0,0,2,1.84c.78,0,1.59-1,2.38-1.54l0-1c-.83-.52-1.62-1.4-2.48-1.47A1.69,1.69,0,0,0,586.06,516.68ZM183.16,120c-.5.84-1.44,1.71-1.37,2.5a2.86,2.86,0,0,0,1.92,1.9,1.69,1.69,0,0,0,2-2c-.16-.87-1.06-1.61-1.63-2.4Zm1.75,545.7c-.14-.89-1-1.66-1.55-2.48h-.92c-.52.83-1.49,1.67-1.45,2.47a2.83,2.83,0,0,0,1.86,2A1.66,1.66,0,0,0,184.91,665.67Zm-2-51.77c-.86.11-1.62,1-2.42,1.58,0,.32,0,.64,0,1,.82.53,1.67,1.5,2.44,1.45A2.91,2.91,0,0,0,184.9,616,1.69,1.69,0,0,0,183,613.9Zm58.85,88.51c-.53.81-1.41,1.59-1.5,2.45a1.68,1.68,0,0,0,2.11,1.9,2.9,2.9,0,0,0,1.87-2c0-.79-1-1.61-1.53-2.41Zm9.95,0c-.53.77-1.39,1.49-1.52,2.32a1.69,1.69,0,0,0,2,2c.79-.17,1.91-1.21,1.94-1.91s-.95-1.63-1.5-2.45ZM292.42,45.83l.89,0c.53-.78,1.4-1.52,1.5-2.35a1.8,1.8,0,0,0-2.09-2.06c-1.34.07-2.21.93-1.94,2.2C291,44.42,291.84,45.09,292.42,45.83Zm29.79,0,.89,0c.53-.78,1.41-1.51,1.52-2.34a1.8,1.8,0,0,0-2.07-2.07c-1.35.06-2.21.92-2,2.19C320.75,44.4,321.64,45.08,322.21,45.83ZM282,702.86a2.83,2.83,0,0,0-1.94,1.85,1.67,1.67,0,0,0,1.95,2.06c.87-.13,1.64-1,2.45-1.54v-.91C283.63,703.79,282.79,702.82,282,702.86Zm188.24-657c.56-.76,1.45-1.45,1.6-2.28a1.69,1.69,0,0,0-2-2.09,2.91,2.91,0,0,0-2,1.85c-.06.79.92,1.66,1.44,2.5Zm-157.07,0c.53-.78,1.41-1.51,1.51-2.34a1.68,1.68,0,0,0-2.06-2,2.94,2.94,0,0,0-1.92,1.95c0,.78,1,1.61,1.54,2.42ZM182.55,583.68c-.56.79-1.56,1.6-1.56,2.39a2.85,2.85,0,0,0,1.77,2,1.65,1.65,0,0,0,2.15-1.84c-.11-.89-.94-1.7-1.44-2.54ZM321.63,702.81c-1.23-.17-1.95.82-1.89,2s.93,2.21,2.22,1.92c.83-.18,1.51-1.07,2.26-1.63,0-.3,0-.6,0-.9C323.34,703.74,322.53,702.93,321.63,702.81ZM586.06,576.2a2.88,2.88,0,0,0,1.88,1.94c.78.07,1.64-.9,2.47-1.41,0-.32,0-.64,0-1-.79-.57-1.53-1.49-2.39-1.62A1.69,1.69,0,0,0,586.06,576.2ZM587.93,598c.78.07,1.65-.89,2.47-1.4l0-1c-.79-.57-1.52-1.5-2.38-1.63a1.69,1.69,0,0,0-2,2A2.92,2.92,0,0,0,587.93,598ZM467,704.66a1.66,1.66,0,0,0,1.89,2.11c.88-.12,1.67-.95,2.5-1.47,0-.31,0-.61,0-.92-.8-.55-1.62-1.55-2.4-1.52A2.83,2.83,0,0,0,467,704.66Zm12.37-2.27-.95,0c-.53.82-1.5,1.67-1.45,2.46a2.9,2.9,0,0,0,1.93,1.89,1.68,1.68,0,0,0,2.05-2C480.85,703.94,480,703.19,479.4,702.39ZM588,647.71c.77,0,1.62-.93,2.44-1.46,0-.32,0-.65,0-1-.81-.55-1.56-1.46-2.42-1.57a1.69,1.69,0,0,0-2,2.08A2.92,2.92,0,0,0,588,647.71ZM549.74,45.83c.56-.76,1.44-1.45,1.6-2.28a1.69,1.69,0,0,0-2-2.09,2.89,2.89,0,0,0-2,1.85c-.07.78.91,1.66,1.44,2.5ZM417.36,363.38c-3.3-4.44-4.52-10-10.29-12.13,2.4-2.26,4.68-4.36,6.88-6.54a10.29,10.29,0,0,0,1.26-2.24L403,340.57c3.62-4.65,1.08-9.91,2.38-15.06-4.83,1.91-10,2-13.65,6.16-1.48-3-2.78-5.72-4.18-8.4a9.73,9.73,0,0,0-1.58-1.73c-2,3.86-3.67,7.26-5.49,10.85-3.55-4.88-9.08-4.9-14.14-6.83,1.23,5.2-1.24,10.47,2.38,15l-12,1.83,9,9.22c-6,1.16-7.53,6.81-11.78,9.94,5.38,1.86,9.77,5.71,15.81,3.7-.71,4.17-1.37,8-2.08,12.23l11.19-5.77c-.14,5.85,4.8,8.72,6.89,13.57,2.91-4.54,7.33-7.72,7.48-13.57l11.28,5.87c-.71-4.41-1.36-8.43-2-12.75C407.81,366.85,412.17,363.41,417.36,363.38Zm-14.6-34.65c.11,4,1.64,8.12-2.13,11.58l-5.17-.9c2.22-2.3,5.06-3.67,5.61-6.81-1.1-1.41-2.08-1.51-3.14-.09s-2.05,3.21-3.26,5.14l-2.16-4.16C395.1,329.93,398.74,329.22,402.76,328.73ZM368.5,334a34.29,34.29,0,0,1,.27-5.14c3.78.16,7.17,1,9.8,3.87a2.41,2.41,0,0,1,.15,3.25c-.45.71-.77,1.51-1.28,2.55-1.2-2-2.22-3.83-3.37-5.57s-2.11-1.84-3.48-.46c.46,3.27,3.38,4.64,5.73,7a24.14,24.14,0,0,1-4.36.65,2.9,2.9,0,0,1-2.21-1.26A16.53,16.53,0,0,1,368.5,334Zm1.61,29c-3.49,1.93-8.57.87-12-2.43,2.61-3.11,4.15-7.59,8.7-7.17l4.57,3.72c-3.55,1-7.47-.88-10.16,2.84,3.64,2.64,6.4-.83,9.7-.8C370.61,360.54,370.34,361.84,370.11,363Zm21.33,9.95c-.63,3.53-2.91,5.95-5.56,8.29-2.3-3.28-6.1-5.7-4.9-10.58l4.52-2.44c.13,3.21-2.58,6.49.59,9.71,3-3,.75-6.27,1.3-9.3a27.53,27.53,0,0,0,2.56,1.27C391.43,370.46,391.69,371.56,391.44,372.94Zm-5.28-7.86-15.06,7.78c1-5.87,1.93-11.21,2.91-16.92l-11.78-11.78,16.4-2.32c2.53-5,5-10,7.65-15.25l7.48,15.28,16.4,2.46-11.8,11.86c.93,5.54,1.83,10.92,2.82,16.78Zm15.43-5.14c-.12-.9-.23-1.81-.36-2.88,3,1.28,5.12,4.86,9.36,3.26-1.55-3.83-5.23-3.08-7.77-4.51l2.81-3c3.65.73,6.12,3.56,8,9.12A63.47,63.47,0,0,1,406,363.6C403,363.93,402,362.93,401.59,359.94ZM282.26,437.33c-3.55-4.88-9.09-4.89-13.91-6.74,0,2.76-.19,5.26.06,7.73a72.51,72.51,0,0,0,1.43,7.28l-11.28,1.71,9,9.26c-6,1.11-7.5,6.79-11.76,9.91,5.38,1.88,9.76,5.68,15.8,3.73-.72,4.22-1.36,8.05-2.06,12.2l11.2-5.76c-.13,5.87,4.77,8.72,6.85,13.51,2.93-4.44,7.31-7.63,7.5-13.5l11.29,5.85c-.72-4.43-1.37-8.42-2.07-12.76,5.3,2.06,9.65-1.4,14.89-1.43-3.3-4.45-4.5-10-10.29-12.12,2.39-2.27,4.68-4.37,6.88-6.55a11,11,0,0,0,1.26-2.24l-12.25-1.91c3.62-4.65,1.07-9.91,2.39-15.07-4.83,1.95-10.05,2-13.65,6.18-1.49-3-2.8-5.73-4.19-8.41a10.13,10.13,0,0,0-1.58-1.72C285.79,430.35,284.07,433.74,282.26,437.33Zm-11.66-3.58c3.77.21,7.17,1,9.8,3.91a2.43,2.43,0,0,1,.14,3.25c-.44.72-.77,1.5-1.29,2.53-1.2-2-2.22-3.83-3.37-5.57s-2.13-1.83-3.48-.42c.5,3.23,3.38,4.63,5.76,7a19,19,0,0,1-4.38.63,3.24,3.24,0,0,1-2.42-1.57,20.43,20.43,0,0,1-1-5.35A31.17,31.17,0,0,1,270.6,433.75Zm-2.34,35.3c-3.16-.1-5.81-1.52-8.31-3.3,2.68-4.39,5.22-8,8.9-7.4l4.32,3.72c-3.51.93-7.41-.84-10,2.5,1.3,2.2,2.95,1.41,4.47,1s3.09-1.06,4.66-1.61C272.93,467.39,271.49,469.15,268.26,469.05Zm24.94,8.81c-.48,3.55-2.85,5.95-5.48,8.3-2.33-3.26-6.1-5.68-4.92-10.57l4.51-2.44c.21,3.2-2.67,6.5.65,9.65,3-2.91.71-6.21,1.25-9.24a11.3,11.3,0,0,1,3,1.61A3.67,3.67,0,0,1,293.2,477.86Zm22.16-11a59.33,59.33,0,0,1-7.42,1.71c-3.2.35-4.14-.61-4.54-3.73-.11-.84-.21-1.68-.35-2.75,3.08,1.15,5.1,5,9.37,3.09-1.63-3.63-5.16-3-7.82-4.41l2.9-3C311.25,458.62,313.9,461.72,315.36,466.82Zm-10.74-33.09c.05,4,1.6,8-2.14,11.49l-5.26-.84c2.24-2.28,5.06-3.66,5.66-6.77-1-1.52-2.06-1.61-3.19-.09s-2,3.21-3.2,5.07l-2.16-4.2C296.93,434.91,300.53,434.08,304.62,433.73Zm-16.52-2.19c2.56,5.21,5,10.25,7.48,15.27l16.5,2.47-11.86,12.09c.9,5.34,1.8,10.72,2.78,16.54L288,470l-15.07,7.77c1-5.88,1.94-11.23,2.87-16.63l-11.93-12,16.59-2.35ZM502.71,271.05l-2-12.75c5.36,2,9.71-1.39,14.85-1.49-3.28-4.45-4.51-10-10.26-12.08,2.39-2.26,4.63-4.31,6.78-6.46a11,11,0,0,0,1.32-2.33L501.13,234c3.63-4.7,1.05-9.93,2.42-15.06-4.89,2-10.09,2-13.65,6.23-1.48-3-2.78-5.73-4.19-8.41a8.59,8.59,0,0,0-1.65-1.69l-5.46,10.78C475,221,469.5,221,464.48,219c1.25,5.16-1.25,10.43,2.38,15L455,235.87l8.68,9a14.21,14.21,0,0,0-3.39,1.81c-2.71,2.63-5.24,5.44-8,8.37,5.24,1.81,9.6,5.62,15.69,3.69-.71,4.21-1.35,8.05-2.05,12.21l11.18-5.76c-.11,5.85,4.8,8.73,6.9,13.55,2.91-4.55,7.32-7.72,7.46-13.56Zm9.15-15.7a68.47,68.47,0,0,1-7.76,1.73c-2.92.32-3.93-.72-4.31-3.56l-.39-2.93c3.06,1.08,5.13,5,9.38,3.08-1.62-3.65-5.18-3-7.82-4.41,1-1.07,2-2.1,3-3.14C508.59,247.55,510.22,251.19,511.86,255.35Zm-10.93-33c.14,3.89,1.64,8-2.12,11.43l-5.17-.89c2.23-2.3,5.06-3.68,5.61-6.82-1.1-1.41-2.08-1.51-3.13-.09s-2.06,3.21-3.27,5.14q-1.16-2.22-2.08-4C492.59,224.12,496.14,222.48,500.93,222.35Zm-34.25,5.1a37.31,37.31,0,0,1,.27-5.15c3.78.18,7.17,1,9.8,3.89a2.41,2.41,0,0,1,.15,3.25c-.44.71-.77,1.51-1.29,2.54-1.19-2-2.21-3.82-3.36-5.56s-2.12-1.84-3.48-.46c.45,3.27,3.39,4.63,5.71,7a20.79,20.79,0,0,1-4.35.64,3.15,3.15,0,0,1-2.32-1.41A14.81,14.81,0,0,1,466.68,227.45Zm1.54,29.18c-4.64,2.26-8.22-.06-11.87-2.22,2.49-4.54,5.37-8.25,9.11-7.09l4.09,3.28c-3.58.9-7.38-.78-9.91,2.35.75,2.07,2.2,1.75,3.53,1.37,1.88-.53,3.71-1.22,6.05-2Zm1,9.7c1-5.89,1.94-11.24,2.86-16.58l-11.77-12.1,16.45-2.34,7.65-15.24c2.55,5.2,5,10.22,7.48,15.28l16.43,2.46-11.82,11.91c.92,5.5,1.83,10.89,2.81,16.73l-15-7.9ZM484,274.6c-2.25-3.16-6-5.58-4.86-10.44l4.52-2.48c.25,3.19-2.74,6.57.78,9.66,2.77-3,.64-6.22,1.13-9.26l3.64,1.88C490.37,267.18,488.12,271.71,484,274.6Zm16.65,172.12c-5-1.76-9.35-5.59-15.4-3.74.7-4.17,1.34-8,2.05-12.21L476,436.53c.16-5.85-4.76-8.75-6.87-13.66-3,4.51-7.32,7.73-7.61,13.57l-11.28-5.9c.7,4.49,1.33,8.48,1.9,12.15a71.29,71.29,0,0,0-7.31.51c-2.37.39-4.67,1.21-7.25,1.9,2.92,4.18,4.22,9.61,9.94,11.92-1.62,1.53-3.06,2.77-4.36,4.15s-3.35,2.12-3.44,4.66l11.91,1.93c-3.52,4.69-1.24,9.9-2.38,15.15,4.84-2,10.08-1.92,13.62-6.11,2.11,3.29,2.91,7.09,5.76,10.34,2-3.95,3.76-7.33,5.51-10.74,4.06,3.22,11.06,6.22,14.18,6.12,0-2.42.18-4.86-.06-7.25s-.89-4.87-1.38-7.41l11.45-1.81-8.59-8.67a69.76,69.76,0,0,0,6-4.74A68.31,68.31,0,0,0,500.65,446.72ZM469.1,427.08c2.2,3.19,6,5.6,4.81,10.5L469.3,440c.32-3.21,2-6.11.4-9-1.88-.23-2.6.37-2.57,2.32s.28,3.92.46,6.29l-3.75-1.9C462.7,434.52,464.91,430.09,469.1,427.08ZM441,446.26a75.72,75.72,0,0,1,8.21-1.67c2.55-.25,3.49.82,3.87,3.42.14.95.26,1.91.45,3.41-1.17-.85-1.92-1.45-2.72-2a24,24,0,0,0-3.26-1.86c-1-.44-2.34-.94-2.94.48s.61,2,1.68,2.45,2.38.8,3.57,1.18c.62.19,1.25.35,1.89.53l-2.62,3.4C444.31,454.17,442.73,450.51,441,446.26Zm10.63,33a51.58,51.58,0,0,1,.06-6.81c.56-4.26,2.35-5.33,7.15-3.23-2,2.14-5.05,3.53-5.28,6.87,1.87,1.07,2.61.82,3.94-1.26.81-1.26,1.55-2.57,2.49-4.16l2,3.86C460.72,477.55,456,479.74,451.65,479.3Zm34.32.37c-3.81-.26-7.2-1.08-9.71-3.92-1.82-2.07.26-3.6,1.08-5.79,1.06,1.78,1.86,3.24,2.77,4.63a6.25,6.25,0,0,0,1.79,2.05c.54.32,1.44.06,2.34.06-.25-3.88-3.27-5.21-5.33-7.47,4.71-1.61,6.68-1.49,7.32,3.94A41.59,41.59,0,0,1,486,479.67Zm6.86-15.45-16.67,2.32-7.73,15.22L461,466.44l-16.83-2.59L456.41,452c-.89-5.46-1.77-10.84-2.74-16.77l15,8,15.12-7.73c-1,5.84-2,11.25-3,17Zm-5-9.28-4.07-3.5c3.27-.58,6.09-1,8.89-1.6.32-.07.53-.68.78-1-.56-1.9-1.92-1.76-3.22-1.39-1.9.53-3.76,1.22-6,2,.19-1.48.35-2.68.48-3.73,3-2.34,7.93-1.46,12.18,2.12C494.29,450.93,492.71,455.32,487.82,454.94ZM288,265.25c-.69,4.12-1.34,8-2,12.26l11.3-5.83c-.26,6,4.81,8.79,6.84,13.68,3-4.53,7.31-7.79,7.58-13.62l11.3,5.89c-.73-4.42-1.39-8.47-2.1-12.83,5.3,2.1,9.68-1.41,14.92-1.4-3.18-4.53-4.5-10-10.27-12.25,2.44-2.3,4.72-4.4,6.92-6.58a10,10,0,0,0,1.21-2.22l-12.26-1.92c3.6-4.64,1.13-9.93,2.35-15.1-4.86,1.94-10.13,1.95-13.69,6.23-1.43-2.95-2.68-5.64-4-8.27a11.15,11.15,0,0,0-1.77-2l-5.5,10.91c-3.54-5-9.12-4.91-14.2-6.89,1.2,5.23-1.13,10.49,2.32,15.06l-11.73,1.84,8.92,9.27c-6.08,1.14-7.62,6.8-11.89,10C277.55,263.38,282,267.16,288,265.25Zm16.42,16c-4.55-4.36-6-7.34-5-10.69l4.54-2.36c-.37,3.32-2.32,6.45.31,9.89,3.24-3,.94-6.31,1.43-9.44l3.93,2C310.47,275.46,307.36,278.28,304.46,281.23ZM332,261.91a64.88,64.88,0,0,1-7.6,1.67c-3,.31-3.87-.64-4.31-3.53-.15-.95-.28-1.89-.43-3,3.14,1.17,5.17,5,9.41,3.11-1.57-3.76-5.27-3-7.72-4.38l3.15-2.9C327.24,252.81,330.75,256.65,332,261.91Zm-10.79-33.35c.15,4,1.65,8.11-2.11,11.61l-5.1-.89c2.09-2.52,5.57-3.84,5.41-8-4.33.24-4.33,4.14-6.36,6.2l-2.13-4.15C313.4,229.8,317.11,229,321.21,228.56Zm-34,.07c3.67.19,6.94,1.06,9.56,3.65a2.66,2.66,0,0,1,.32,3.61c-.44.71-.82,1.46-1.25,2.23-2.29-2.17-2.28-6.41-6.32-6.87-.71,2-.71,2,5,8.08l-5,.86C285.52,236.88,287,232.74,287.17,228.63Zm-6.78,15.44L297,241.72l7.68-15.3,7.55,15.34,16.56,2.47-11.91,12.14c.88,5.3,1.78,10.73,2.76,16.62l-15.09-7.93-15.12,7.82c1-5.8,1.93-11.23,2.87-16.65Zm-4.12,16.56c2.59-3.16,4.13-7.52,9.41-7.29l4.12,3.93c-3.59.44-7-.59-9.83,1.66.19,2,.85,2.54,2.78,2s4-1.31,6.32-2.08c-.2,1.46-.37,2.71-.53,3.84C285.44,265,281.2,264.29,276.27,260.63ZM372,116.07c-1.19.08-2.6.15-2.68,1.74-.08,1.76,1.45,1.76,2.67,2a4,4,0,0,0,.6,0c7.27.13,14.55.28,21.83.35a25.77,25.77,0,0,0,5.12-.41c.59-.11,1.47-1,1.43-1.53a2.6,2.6,0,0,0-1.41-1.77,15,15,0,0,0-3.42-.6c-1-3-1.76-6.16-3-9.13a10.89,10.89,0,0,1,0-8.94c1.51-3.56,2.66-7.28,3.94-10.87.56,0,.88-.07,1.21-.08,1.43,0,2.83-.29,2.8-2.06S399.62,83,398.32,83c-5.35-.18-10.71-.46-16.07-.5-3.43,0-6.86.22-10.28.52-.81.07-1.56.82-2.33,1.26.79,1.37.79,1.37,5.74,2.72v29.07C374.23,116.05,373.11,116,372,116.07Zm14.69-.3c.79-2.47,1.49-4.69,2.2-6.91l.55.07c.79,2.26,1.59,4.52,2.5,7.1Zm6-28.79-3.53,8.16C388,92.32,387,89.79,385.77,87Zm-13.27.09h2.4q2.46,7.25,4.89,14.45a2,2,0,0,1,0,1.17c-1.41,4.33-2.86,8.64-4.31,13h-3Z"/></svg>