<svg xmlns="http://www.w3.org/2000/svg" viewBox="0 0 750 750"><path d="M606.26,48.78c0-14.91-11.36-23.8-23.8-23.78q-197.45.27-394.87.11c-13.43,0-22.92,9.45-22.92,22.84v327.1q0,163.76,0,327.51a23.13,23.13,0,0,0,.61,5.5c2.63,10.61,11.24,16.94,22.93,16.94H583.71c8-.18,14.44-3.43,18.94-10.18,2.78-4.19,3.55-8.88,3.55-13.81q0-220.2,0-440.38Q606.19,154.7,606.26,48.78Zm-4.35,652.89c0,11.54-7.47,19.05-19,19.05q-197.55,0-395.09.07a18.64,18.64,0,0,1-19-19q.22-163.37.09-326.72V47.59c0-8.91,5.49-15.94,14-17.84a18.46,18.46,0,0,1,3.94-.34q198.54,0,397.08,0a17.67,17.67,0,0,1,17.95,17.84c0,1.32,0,2.65,0,4ZM540,488.11c1-.17,2.6-.91,2.84-1.72,1.07-3.61,2-7.31-.74-10.78a12.23,12.23,0,0,0-7.56-4.35c-3-.63-6-1.19-8.89-2-4.51-1.33-9-2.88-13.42-4.35a13.25,13.25,0,0,1-1.4-.71c6.74-3.46,8.11-4.74,8.49-8.2a17.24,17.24,0,0,0-4.16-1.7,22,22,0,0,0-13.69,2.2c-1.58.84-3.17,1.68-4.8,2.4a13,13,0,0,1-2.6.5c.3-.9.41-1.26.54-1.61.71-2,.13-2.89-2-3a7,7,0,0,0-1.59,0c-4,.78-7.73-.2-11.46-1.5-7.38-2.57-14.69-5.43-22.22-7.43-7.15-1.9-14.55-2.83-21.83-4.27-1.79-.35-3.52-1-5.23-1.53a16.87,16.87,0,0,1-.52-2A120.67,120.67,0,0,0,423.91,415c-1.18-3.31-2.19-6.69-3.64-9.87-1.53-3.35-3.72-4-7-2.73-2.75,1.1-3.51,3.05-2.56,6.54.11.38.25.76.37,1.14,2,6,4,11.92,5.95,17.9.66,2,1.11,4.14,1.75,6.55-.94-.23-1.44-.32-1.92-.47-7.14-2.23-14.25-4.53-21.42-6.66a12.4,12.4,0,0,0-4.89-.35c-2.46.31-3.35,1.69-3.89,4.81-.37,2.15.76,3.39,2.41,4.33a11.24,11.24,0,0,0,2.37,1c5.65,1.67,11.34,3.21,17,5,4.6,1.43,9.14,3.07,13.61,4.58.25.75.39,1.26.58,1.74,1.77,4.39,1.37,9,1.22,13.54-.08,2.29.71,3.14,2.82,3.06.39,0,.78,0,1.32,0a17.67,17.67,0,0,1,.66,1.81c5.23,20.87,10.69,41.7,15.55,62.66,2.24,9.7,4.86,19.25,7.93,28.7a6.6,6.6,0,0,0,1.71,2.84,4,4,0,0,0,2.82,1,10,10,0,0,0,8.76-9.4,18.91,18.91,0,0,0-1.35-6.33c-1.56-4.63-3.4-9.17-5-13.8-1-3-1.78-6.18-2.65-9.27,3.62,2.16,7.08,4.11,11.72,2.39-.29-1.55-.26-3.16-.89-4.44a22.45,22.45,0,0,0-10.2-10.49c-1.42-.72-2.86-1.43-4.19-2.28a12.26,12.26,0,0,1-1.93-2c.79-.19,1-.26,1.29-.31,2.53-.43,3-1.54,1.49-3.67-.42-.59-1-1.1-1.33-1.73-1.33-2.33-3-4.56-3.81-7.07-1.8-5.54-3.25-11.19-4.66-16.84-2.06-8.23-5.83-15.76-9.34-23.4-.28-.62-.49-1.27-.73-1.91.17-.14.33-.29.49-.44,2.25,1.56,4.54,3.07,6.75,4.7,2.94,2.17,3.45,2.13,5.66-1,.8.21,1.58.35,2.31.62,17.63,6.55,35.33,12.92,52.86,19.74,11.35,4.41,22.48,9.4,34.32,12.48A9.48,9.48,0,0,0,540,488.11ZM413.25,405.5c2.27-1.53,3.46-1.64,4.19.17,1.92,4.77,3.5,9.67,5,14.59C417.68,417.57,412.62,409.25,413.25,405.5Zm-23.87,27.44c.05-2.84.84-3.86,3.18-3.3,4.66,1.12,9.24,2.59,14.07,4C403.36,436.12,392.11,435.55,389.38,432.94Zm30.72,7.52c-5.77,1.3-10.92-1-16.17-2.74.06-.32.07-.54.12-.55,4.88-1,9.77-2,14.45.71a12.56,12.56,0,0,1,2.09,1.92Zm-2.63-21.19c6.25,5.17,9.55,12,8.82,18.14C421.26,432.44,418.9,426.29,417.47,419.27Zm10.28,41.44a2,2,0,0,1-.88,1.45c1.54-9-2.59-16.9-4.45-25.81a15.66,15.66,0,0,1,5.29,11.47C427.81,452.11,427.77,456.41,427.75,460.71Zm50.13-4.88c-2.88,1-8.41-.8-9.86-3.45Zm-28.77,81.85q-1.74-8.68-3.49-17.36l.56-.11c3.17,5.36,3.36,11.36,3.5,17.37Zm8.9,1.89c1.44,3.52,3.1,6.92,4.2,10.48a6.38,6.38,0,0,1-2.93,7.72,15.93,15.93,0,0,1-2.57.75,6.58,6.58,0,0,1,.33-6.12h.6v2.77c1.4,1.17,2.17.5,2.74-.51.8-1.45-.18-4.66-1.67-5.51a2.37,2.37,0,0,0-3.45.82,25.23,25.23,0,0,0-1.37,2.65C452.39,550.21,454.88,542.37,458,539.57Zm-2-7.2a7.84,7.84,0,0,1-.17,4.08c-1.13,3.22-2.56,6.34-4.07,10-1.23-2-.84-3.73-.66-5.43.26-2.43.63-4.86.65-7.29a29.53,29.53,0,0,0-3.65-13.86c-2.31-4.51-4.14-9.27-6.14-13.94a8.82,8.82,0,0,1-.34-1.87l.49-.23q3.21,4.93,6.43,9.87C452.3,519.39,454.47,525.77,456,532.37Zm-14-51.22c1,3.55,1.88,6.79,2.83,10.24C442.22,489.53,440.58,483.86,442,481.15Zm-5.66-5c.2-2.61.85-5.19,1.31-7.82,1.83,1.71,3.58,7.65,2.71,9.76-1.72,4.17-1.27,8.07.77,12,2.23,4.31,5.55,7.7,8.79,11.18.43.47.84,1,1.57,1.83l-2.19-.56c-1.54.5-1.66,1.58-1.27,2.87.57,1.88,1.15,3.75,1.72,5.62-6.34-8.37-11.35-17.28-13.18-27.6A29.3,29.3,0,0,1,436.33,476.1Zm-.71-13.65a1.17,1.17,0,0,1,.05.59c-.54,3.31-1.09,6.62-1.73,10.46a16.43,16.43,0,0,1-.84-1.71c-.44-1.39-.8-2.8-1.26-4.18-.6-1.82-1.27-3.62-1.9-5.43a1.67,1.67,0,0,1,0-.59l.81-8.66.45-.15Q433.39,457.63,435.62,462.45Zm7.86-8.4a43.66,43.66,0,0,0-3.59-2.65c-2.18-1.32-4.49-2.44-6.67-3.78a12,12,0,0,1-2.07-2l.7-.78A101.49,101.49,0,0,1,444,453.33Zm12.92.5c-3.6-1-7.4-1.64-10.74-3.21-2.66-1.24-4.76-3.67-7.49-5.88a9.74,9.74,0,0,1,1.8-.09c2.73.45,5.46.94,8.19,1.44a2.13,2.13,0,0,1,1.11.37c2.48,2.31,4.94,4.67,7.4,7Zm-1.19-6.12c3.84.83,7.93.86,10.44,4.89,2.71,4.35,7.4,4.9,11.94,5a100.75,100.75,0,0,0,10.64-.93l2.3-.21c-.34.9-1.15,2-.86,2.48a5.89,5.89,0,0,0,2.6,1.82c1.36.59,2.82.95,4.14,1.66C481,463,465.94,461.86,455.21,448.43Zm63.06,30.06-15.66-6.73.18-.59c6,.46,10.85,3.67,15.72,6.77Zm8.18,3.15a20.93,20.93,0,0,1-3.73-2.54,31.57,31.57,0,0,0-21.78-10.05,69.67,69.67,0,0,1-10-1.73,12,12,0,0,1-4.18-1.93,5.69,5.69,0,0,1,1.22-.17c6.13.35,12.33.33,18.39,1.22,4.26.63,8.34,2.48,12.48,3.85a3.26,3.26,0,0,1,1.58,1.15c2.23,3.16,4.38,6.36,6.55,9.55Zm8.76-1.25.36-.51,2.59,1.61c1.4-.69,1.2-1.69.61-2.68-.85-1.41-4-2.37-5.37-1.55-3,1.78-.78,3.84-.07,5.79-2.62.05-7.56-6.35-8.21-10.73,3.92.93,7.83,1.58,11.53,2.83a6.06,6.06,0,0,1,4.1,6.74,14.6,14.6,0,0,1-.91,2.34A6.29,6.29,0,0,1,535.21,480.39ZM543.44,242c-.87-3.16-2.32-4.61-5.64-3.66-6.23,1.79-12.49,3.57-18.56,5.82-8.94,3.32-17.67,7.18-26.58,10.58-14.41,5.49-28.9,10.79-43.36,16.16a22.2,22.2,0,0,1-2.52.64c-2.25-3.11-2.75-3.16-5.65-1-1.74,1.31-3.55,2.54-5.36,3.76a16.37,16.37,0,0,1-2.16,1c.52-1.26.77-1.93,1.06-2.57,2.13-4.78,4.64-9.43,6.3-14.36,2.54-7.52,4.57-15.21,6.66-22.87a26.43,26.43,0,0,1,5.71-11.18c2.26-2.51,1.71-3.65-1.6-4.24-.11,0-.19-.16-.59-.51a13,13,0,0,1,1.86-1.79,43.09,43.09,0,0,1,3.84-2.08,22.47,22.47,0,0,0,10.41-10.55c.65-1.33.63-3,.92-4.54-4.68-1.63-8.09.29-11.62,2.87a5,5,0,0,1,0-1.05c2.47-7.4,4.6-14.93,7.53-22.15,2.57-6.33,1.28-13.14-5.5-15.38-3.15-1-5.12-.76-6.2,2.54-2.2,6.66-4.35,13.35-6.11,20.13-2.07,8-3.57,16.17-5.56,24.2-3.83,15.55-7.83,31.07-11.77,46.6-.26,1-.66,2-1,2.87-3.92,0-4.22.32-4.08,4.13.18,4.77.3,9.54-2,14.06a3,3,0,0,1-.6.36q-13.82,4.4-27.63,8.77c-1.2.38-2.46.57-3.61,1-3.07,1.28-3.9,2.84-3.23,5.67.73,3.09,2.31,4.3,5.53,4.15a11,11,0,0,0,2.74-.44c7.21-2.21,14.41-4.47,21.61-6.7.54-.17,1.08-.29,2-.53-.26,1.17-.39,2-.64,2.79-2.25,7.06-4.54,14.11-6.8,21.17a19.22,19.22,0,0,0-.81,2.85c-.47,2.83.31,4.31,2.65,5.27,3,1.24,4.7.88,6.44-1.52a9.57,9.57,0,0,0,1.39-2.62c2.58-8.48,5.17-16.95,7.62-25.47.72-2.52,1-5.17,1.51-7.78a15.06,15.06,0,0,1,2.34-.91c5.65-1.13,11.34-2.07,17-3.34s10.93-2.63,16.3-4.28,10.39-3.59,15.55-5.46a19.56,19.56,0,0,1,9.17-1c4.27.5,4.73-.08,3.8-4.43a10.72,10.72,0,0,1,2.23.36,28,28,0,0,1,3.38,1.68,22.66,22.66,0,0,0,14.9,3,23.74,23.74,0,0,0,4.76-1.84c-1.3-4.88-4.91-6.5-8.87-8a6.45,6.45,0,0,1,1-.58c7.42-2.16,14.77-4.67,22.3-6.36C540.27,253.9,545.43,249.27,543.44,242Zm-137.36,50.7c-4.28,1.33-8.54,2.8-12.88,3.92-2.8.72-3.71-.2-3.85-3.57,5.51-3.12,11.25-1.78,17.23-1.1C406.28,292.45,406.21,292.69,406.08,292.73Zm4.37-2.55c-2.19-.24-4.37-.58-6.55-.87v-.63c5.25-1.81,10.42-4.07,16.9-2.64-.82,1-1.26,1.85-2,2.27A13.27,13.27,0,0,1,410.45,290.18Zm11.75,16.93c-1.06,3.46-2.13,6.93-3.23,10.38a15.38,15.38,0,0,1-1,2.38c-1.27,2.45-2.31,2.67-4.76,1-.63-3.74,4.49-12.14,9.11-14.92A8.24,8.24,0,0,1,422.2,307.11Zm-4.69-.1c1.35-6.94,3.75-13.06,8.83-18.13C426.61,296.52,423.34,302.22,417.51,307Zm9.82-25.78c-.15,3.45-2.36,5.89-4.58,8.32,1.43-8.4,5.76-16.29,3.63-25.25l.73-.12c.22.47.63.94.63,1.41C427.65,270.8,427.56,276,427.33,281.23Zm90.86-33.34.31.53c-4.87,3.1-9.69,6.32-15.72,6.75l-.23-.53ZM442.08,245c-1.62-2.06-.28-7.18,2.8-10.33C443.88,238.34,443,241.58,442.08,245Zm11.78-71.2c1.19,1.62,1.36,4.61,4.5,3.61,1.4-.45,2.62-3.22,2.26-4.93a2,2,0,0,0-2.61-1.81c0,.58,0,1.17-.09,1.76s-.12,1.07-.2,1.82a4.93,4.93,0,0,1-1-6.11,4,4,0,0,1,4.49,2.34c.74,1.74,1.39,4,.93,5.66-1,3.65-2.71,7.11-4.16,10.71C454.82,183.85,452.38,176.15,453.86,173.76Zm-4.67,14.49c1.11,3.67-.51,15.51-3.66,18.28C446.78,200.3,447.94,194.49,449.19,188.25Zm-5.27,26.5c1.3-3,2.83-5.83,4.38-8.68a30,30,0,0,0,3-20.2,43.73,43.73,0,0,1-.31-5.44c.69.08.89,0,.92.11,1.23,2.69,2.51,5.38,3.65,8.11,1,2.28.68,4.56.14,7-2.23,9.86-7.43,18.18-13.17,26.25a6.67,6.67,0,0,1-.52.55l-.59-.26C442.21,219.69,442.88,217.14,443.92,214.75Zm-6.33,23.65c2.42-8.58,7-15.87,11.69-23.23l.46.23c-.56,1.81-1.13,3.63-1.69,5.45-.38,1.25-.41,2.37,1.18,3l2.36-.62c-1.54,1.71-2.64,3.06-3.88,4.27a33.41,33.41,0,0,0-7.65,11.24,10.52,10.52,0,0,0,0,8.5,7.29,7.29,0,0,1-.06,5.93c-.68,1.67-1.29,3.36-2.09,5C436.18,251.54,435.7,245.12,437.59,238.4ZM433.9,253c.23,1,.42,1.63.52,2.29q.6,3.72,1.15,7.44a2.71,2.71,0,0,1,0,1.36c-1.43,3.18-2.92,6.33-4.62,10A32.23,32.23,0,0,1,433.9,253Zm-2.19,28.32-.49-.36c.48-.67.83-1.77,1.46-1.95,4.08-1.18,7.15-3.91,10.38-6.42.13-.1.36-.08.56-.12C443.51,273.93,434.79,280.38,431.71,281.28Zm17.19-1.92c-3.37.64-6.74,1.23-10.48,1.9,4.73-6.29,11.4-7.75,18.59-9.57-.79.87-1.2,1.38-1.67,1.83q-2.71,2.61-5.48,5.19A2.31,2.31,0,0,1,448.9,279.36Zm19.48-5.52-.21-.64c2.51-2.85,6.11-2.6,9.4-3.22,0,.2.08.41.13.62Zm24.81-9.22a19.93,19.93,0,0,0-2.44.81c-1.64.81-1.63,1.89.25,3.88-2-.25-3.68-.37-5.32-.7a33.66,33.66,0,0,0-12.81,0,10.37,10.37,0,0,0-7.47,4.73c-1.4,2.33-3.49,3.28-5.95,3.81-1.47.32-2.92.69-4.64,1.1,7.61-10,18.13-13.24,29.5-14.59,4-.48,8-.49,12-.71.06.17.11.34.17.52ZM517,256.78c-9.33,4-19.23,4.56-29.21,4.36a1.2,1.2,0,0,1-1-.57,33.05,33.05,0,0,1,4.72-1.65c3.95-.76,7.94-1.48,11.94-1.89a30.37,30.37,0,0,0,18.69-9.13,41.29,41.29,0,0,1,4.23-3.26l.58.67a86.35,86.35,0,0,1-5.2,8.13A12.32,12.32,0,0,1,517,256.78Zm23.3-8.95a7.42,7.42,0,0,1-5,4c-3.32.8-6.69,1.39-10.24,2.12,1.08-4.7,5.58-10.51,8.3-10.7-.65,2-3,4,0,5.83,1.22.76,4.09,0,5.16-1.14.88-1,.88-1.65-.14-3.13l-2.94,1.82a3.2,3.2,0,1,1,4.86,1.22ZM378,435.4a4,4,0,0,0,1.78-2.85c-.15-4-1.32-6.19-6-6a12.49,12.49,0,0,0-3.3.67c-7,2.25-14,4.55-21,6.82-.47.16-1,.27-1.72.47.18-.89.26-1.53.43-2.14,1.18-4.21,2.32-8.43,3.6-12.61,1.19-3.85,2.67-7.62,3.78-11.5.88-3.06-.06-4.9-2.48-5.87-3.27-1.3-5.18-.73-6.9,2.15a11.77,11.77,0,0,0-1.09,2.33c-3.38,10-6.8,19.95-8.13,30.47-.12.9-.38,1.78-.64,3-2.72.69-5.38,1.43-8.08,2-7.82,1.73-15.73,3.1-23.45,5.19-5.73,1.56-11.22,4-16.79,6.11a26.38,26.38,0,0,1-12.8,2c-3.33-.42-3.9.65-2.58,3.77,0,.09-.06.24-.19.76a11.41,11.41,0,0,1-2.27-.45c-1.46-.62-2.89-1.34-4.29-2.09a22.31,22.31,0,0,0-14.26-2.31c-1.52.23-2.92,1.24-4.37,1.89,1.37,4.73,4.86,6.39,9.12,7.88a17.56,17.56,0,0,1-1.73.82c-7.47,2.24-14.91,4.6-22.44,6.65-7,1.92-9.66,5.63-8.53,12.75.59,3.72,2.33,5,5.9,3.9,7.06-2.25,14.11-4.57,21-7.18s13.56-5.69,20.4-8.38c14.11-5.56,28.26-11,42.41-16.47,2.14-.83,4.34-1.51,6.44-2.23,2.61,3.36,2.63,3.35,6.06.8,1.64-1.23,3.32-2.42,5-3.58a12.73,12.73,0,0,1,1.6-.83,4.33,4.33,0,0,1-.42,2.31A113,113,0,0,0,327.51,464c-2.29,6.83-4.15,13.8-6.26,20.69-1.86,6.09-2.55,12.61-7.25,17.61-2.42,2.57-1.81,3.73,1.64,4.29.1,0,.17.18.49.56a10.79,10.79,0,0,1-1.65,1.66,33.09,33.09,0,0,1-3.63,2,22.63,22.63,0,0,0-10.55,10.68c-.67,1.4-.68,3.12-1.12,5.38,2.55-.22,4.56-.09,6.36-.64a32,32,0,0,0,5.47-2.82,5.6,5.6,0,0,1-.12,1c-2.39,7.43-4.49,15-7.3,22.23-2.29,5.93-1.38,12.73,5.73,15.12,3.14,1.06,5.14.68,6.17-2.6,2.08-6.56,4.35-13.11,5.78-19.82,5.13-24.1,10.2-48.21,16.8-72,.22-.8.57-1.56.84-2.27,3.81,0,4.11-.39,3.94-4-.22-4.83-.42-9.67,1.83-14.23a1.92,1.92,0,0,1,.46-.3q14-4.6,27.92-9.2A23,23,0,0,0,378,435.4ZM298.51,453c-2.18,3.58-5.79,3.33-9,4l-.24-.68Zm-64.79,31.41c.53-1.92,2.86-3.86.12-5.73-1.19-.81-4.22-.16-5.3,1.1a1.94,1.94,0,0,0,.14,3.11l2.87-1.8c-.05,2.2-1.57,3.73-4,4.28a4.37,4.37,0,0,1-.91-5.34,7.58,7.58,0,0,1,5.2-4.25c3.25-.82,6.56-1.42,10-2.15C241,478.15,236.35,484.24,233.72,484.36Zm14.74-4.66-.21-.46c5-3.46,10-6.68,16.29-7.28l.17.53Zm27-11.5c-3.88.8-7.79,1.56-11.72,2A30.36,30.36,0,0,0,245,479.53a15.68,15.68,0,0,1-4.61,3.07c3-4.92,4.53-10.57,11.11-12.77,9.17-3.08,18.44-3.88,27.93-3.88a3.38,3.38,0,0,1,.69.14l.1.41A33.32,33.32,0,0,1,275.49,468.2Zm17.17-6.79c-7.33,2.21-14.86,2.36-22.52,2.44,1-.39,1.93-.79,2.91-1.14.75-.27,1.53-.45,2.28-.72,2.44-.86,2.55-2.16.1-4.24,2.1.25,3.94.39,5.75.71a33.76,33.76,0,0,0,13.21-.24,10.32,10.32,0,0,0,7-4.8,7.86,7.86,0,0,1,5.38-3.67c1.6-.36,3.18-.82,5.11-1.32C306.81,455.3,300.29,459.12,292.66,461.41ZM309.8,455c.53-.64.83-1.08,1.2-1.44q2.89-2.83,5.83-5.63a2.22,2.22,0,0,1,1-.65c3.47-.68,6.95-1.32,10.42-2A30.61,30.61,0,0,1,309.8,455Zm13.78-.87a2.21,2.21,0,0,1-.56.09c.27-1.65,9.28-8.36,12.74-9.27-.75,1.15-1.09,2.36-1.73,2.55C329.9,448.73,326.85,451.58,323.58,454.12ZM325,481.55l.59.08c1.15,4-1.18,7.13-2.8,10.42l-.48-.12ZM314,553c-1.27-1.76-1.58-5.11-5-3.39-1.6.82-2.36,4.33-1.4,5.69.66.92,1.44,1.36,2.49.33v-3.43c1.85,2.24,2.11,4.29,1.06,6.31-2.9.4-5.38-1.71-5.73-5.12a9.71,9.71,0,0,1,.43-4.09c1.14-3.14,2.55-6.19,3.85-9.29C312.72,542.46,315.41,550.46,314,553Zm4.54-14.91L318,538c0-6.19.21-12.36,3.95-17.86Q320.22,529.15,318.52,538.12Zm4.74-25.83c-1.2,2.86-2.67,5.61-4.12,8.36a29.35,29.35,0,0,0-2.67,20.21c.39,1.92.82,3.86-.47,5.95-1.48-3.42-3-6.55-4.16-9.81a9.48,9.48,0,0,1-.16-4.65c1.92-10.4,7.19-19.24,13.16-27.73a3.63,3.63,0,0,1,.53-.5l.56.24C325.05,507,324.34,509.72,323.26,512.29ZM330.05,486c-2.18,9.57-7,17.75-12.57,25.73.56-1.89,1.14-3.78,1.69-5.68.38-1.34.59-2.65-1.26-3.23l-1.74.63-.27-.31c1.21-1.34,2.36-2.74,3.64-4a33.65,33.65,0,0,0,7.35-11,10.6,10.6,0,0,0,0-8.85,7.21,7.21,0,0,1,0-5.93c.64-1.65,1.21-3.33,1.81-5C330.38,474.23,331.43,479.93,330.05,486Zm6.43-22.79c-.5,3.47-2.1,6.78-3.21,10.15l-.35,0c-.59-3.44-1.2-6.88-1.75-10.32a2.8,2.8,0,0,1,.38-1.32c1.34-3,2.7-6,4.06-9l.58.05C336.33,456.27,337,459.82,336.48,463.21Zm8.92-48c.88-2.84,1.62-5.73,2.7-8.48s2.15-2.95,5-1.28a11.2,11.2,0,0,1-.22,2.66c-1.65,5.1-5.16,8.9-9.15,12.46C344.3,418.76,344.84,417,345.4,415.19Zm-4.93,47-.67.16c-.26-.45-.76-.89-.75-1.33.06-5.48.07-11,.34-16.44.16-3.19,2.28-5.47,4.38-7.7C342.45,445.32,338.19,453.28,340.47,462.19Zm-.31-24.52c-.27-7.47,2.58-13.33,8.58-18.2C347.59,426.55,345,432.55,340.16,437.67Zm5.63,2.6a10.31,10.31,0,0,1,1.95-2.26,12.77,12.77,0,0,1,7.92-2c2.41.22,4.82.51,7.22.77C358.48,439.86,350.32,441.44,345.79,440.27Zm14.1-6.09c0-.23,0-.46-.05-.69,4.52-1.39,9-2.93,13.57-4.11,2.68-.69,3.51.19,3.76,3.34a8.77,8.77,0,0,1-1.93,1.24C370.13,435.62,365,434.94,359.89,434.18ZM337.48,256.67c-4.67-19.58-9.6-39.11-13.87-58.78-2.2-10.11-4.69-20.1-7.82-29.95a5.58,5.58,0,0,0-1.35-2.6,5,5,0,0,0-3.22-1.42,9.86,9.86,0,0,0-8.77,8.94,18.09,18.09,0,0,0,1.13,6.36c.85,2.7,2.2,5.25,3.06,7.95,1.49,4.73,2.77,9.54,4.13,14.31a15.18,15.18,0,0,1,.24,1.78c-3.56-2.76-7-4.71-11.39-3.21a7,7,0,0,0-.1,1.29c.46,4.83,3.25,8.34,6.83,11.17,2.42,1.91,5.29,3.24,7.91,4.92a17.17,17.17,0,0,1,2.21,2.19c-.92.16-1.23.23-1.54.27-2.42.38-2.9,1.5-1.49,3.55.49.7,1.14,1.31,1.56,2.05,1.23,2.16,2.75,4.26,3.47,6.59,1.73,5.63,3.17,11.35,4.53,17.08,2,8.26,5.62,15.84,9.08,23.5.3.68.5,1.41.74,2.11l-.45.38c-2.2-1.54-4.43-3-6.57-4.62-3.26-2.43-3.48-2.44-5.84.8a15.13,15.13,0,0,1-1.81-.47c-19.94-7.73-40-15.24-59.78-23.34-9.33-3.82-18.74-7.3-28.37-10.26a6.5,6.5,0,0,0-3.11-.29c-.95.2-2.32.82-2.54,1.55-.93,3.07-2,6.24-.31,9.44a10.57,10.57,0,0,0,7.14,5.55c3.35.8,6.75,1.42,10,2.42,4.92,1.51,9.76,3.28,14.64,4.94l.06.53c-3.79,1.41-7.4,3-8.63,7.74,1.39.66,2.68,1.7,4.08,1.87,3.88.47,7.81.67,11.53-1,2.41-1.1,4.79-2.27,7.22-3.31a14.17,14.17,0,0,1,2.82-.49c-.39.91-.55,1.26-.69,1.61-.8,1.92-.19,2.88,1.92,3a6.45,6.45,0,0,0,1.39,0c4.13-.75,8,.3,11.83,1.69,7.41,2.68,14.76,5.6,22.33,7.71,6.8,1.91,13.88,2.84,20.81,4.28,2,.41,3.91,1.13,5.81,1.69a19.4,19.4,0,0,1,.49,2,123.48,123.48,0,0,0,5.81,23.9,87.37,87.37,0,0,0,3.58,9.67c1.44,3,3.55,3.51,6.82,2.23,2.46-1,3.24-2.71,2.57-5.84-.15-.71-.4-1.4-.62-2.1q-3.42-11.1-6.84-22.2a16.72,16.72,0,0,1-.35-2.06l1.64.51c7.17,2.34,14.33,4.73,21.53,7a13.26,13.26,0,0,0,4.7.45,3.84,3.84,0,0,0,3.63-2.9c1.22-3.87.1-6-4.07-7.25-5.76-1.76-11.56-3.41-17.29-5.25-4.52-1.45-9-3.13-13.9-4.86-.42-3.33-.94-6.63-1.22-10a54.31,54.31,0,0,1,.16-5.55c0-1.85-.78-2.68-2.61-2.68h-1.59C338.33,259.69,337.84,258.2,337.48,256.67Zm-19-68.46,3.42,17.9c-3.76-5.41-3.9-11.6-3.95-17.79Zm-8.86-1.75c-1.41-3.61-3-7.07-4.09-10.7a6.26,6.26,0,0,1,3.08-7.62,14.33,14.33,0,0,1,2.48-.69c1.16,2.37.6,4.3-.37,6.2l-.61,0c-.08-1-.17-1.94-.29-3.24-1.09-.84-1.85-.16-2.41.85-.79,1.44.2,4.64,1.65,5.5,1.6,1,2.38.42,4.89-3.36C315.45,175.69,313,183.42,309.65,186.46Zm2,7.36a8.64,8.64,0,0,1,.2-4.46c1.16-3.26,2.68-6.4,4.06-9.59l.67,0c0,1.57.39,3.22.05,4.7-1.92,8.5-.42,16.31,3.84,23.87,2.06,3.64,3.29,7.76,4.84,11.68a10,10,0,0,1,.36,2.06l-.52.23-6.42-10.12A55.33,55.33,0,0,1,311.64,193.82Zm13.41,51.34-2.8-10.67C325.25,237.56,326.5,242.4,325.05,245.16Zm5.73,2.7c-.24,3.4-.94,6.76-1.43,10.13h-.73c-.82-2.57-1.7-5.12-2.41-7.72a3.49,3.49,0,0,1,.39-2.08,12.21,12.21,0,0,0-.84-12.32c-2.55-3.82-5.56-7.33-8.38-11-.44-.56-.92-1.09-1.74-2.06l2.25.7c1.77-.41,1.71-1.7,1.32-3.07-.55-1.95-1.17-3.89-1.54-5.92,3.62,5.89,7.8,11.44,10,18.08C329.35,237.56,331.16,242.53,330.78,247.86Zm-82.37-1.22,16.32,7.23c0,.17-.08.34-.13.51-6.31-.53-11.39-3.82-16.39-7.28C248.28,246.94,248.35,246.79,248.41,246.64ZM230.52,250a6.06,6.06,0,0,1-4.24-6.83,10.51,10.51,0,0,1,.86-2.19,4.9,4.9,0,0,1,4.55,4.34l-3.1-1.85a2.07,2.07,0,0,0,.15,3.31c1.26,1.2,4,1.7,5.17.87,2.55-1.89.48-3.74-.22-5.58,2.54-.21,7.55,6.37,8.13,10.77C238,251.94,234.15,251.29,230.52,250Zm22,6.8c-4.63-1.66-8-4.12-9.94-8.63a32.34,32.34,0,0,0-2.52-4.15l.44-.56a20,20,0,0,1,3.71,2.56,31.51,31.51,0,0,0,21.63,10.35A75.29,75.29,0,0,1,276,258.28a31.51,31.51,0,0,1,4.21,1.58l-.14.57C270.76,260.35,261.53,260.06,252.54,256.84Zm36.27,13c3.79-.79,8.62,1,10,3.65Zm12.81,3.34c-3.08-5-8.16-5.74-13.35-5.78-3.34,0-6.69.57-10,.88l-2.32.18c.44-.85,1.39-1.87,1.17-2.49-.27-.78-1.42-1.39-2.32-1.78-1.49-.65-3.08-1.07-4.62-1.59,0-.16.05-.33.08-.49,2.57.13,5.15.31,7.72.39a58.34,58.34,0,0,1,21.69,5.08,21.2,21.2,0,0,1,5.7,3.54,84.11,84.11,0,0,1,6.08,6.68C308.12,276.57,304,277,301.62,273.21Zm24.13,7.42a17.82,17.82,0,0,1-13.6-6.74,18.93,18.93,0,0,0-2.29-2.08l.39-.43c3.59,1.06,7.39,1.69,10.71,3.32,2.75,1.35,4.94,3.86,7.32,6.24C327.44,280.84,326.6,280.68,325.75,280.63Zm9.37,1a100.48,100.48,0,0,1-12.48-8.81c.2-.25.39-.5.58-.76,1.06.81,2.07,1.71,3.2,2.41,2.33,1.44,4.69,2.85,7.12,4.11A2.52,2.52,0,0,1,335.12,281.6Zm.63-7.61c-1.6-3.61-3.07-6.91-4.53-10.22a1.46,1.46,0,0,1-.05-.78c.53-3.19,1.07-6.39,1.62-9.58,0-.16.19-.29.3-.46C336.11,258.29,337.45,268.34,335.75,274Zm17.15,47c-2.55,1.65-3.59,1.36-4.86-1.41a16.88,16.88,0,0,1-.9-2.4c-1.13-3.78-2.23-7.57-3.37-11.45C348.16,308,353.78,317.5,352.9,321Zm24.25-27.18c-.19,3-1.09,3.86-3.91,3.12-4.51-1.18-8.93-2.71-13.53-4.14C363.18,290.4,374.58,291.13,377.15,293.83Zm-14.27-4.67c-5.06,1-10.14,2.26-14.95-.7a16,16,0,0,1-2.38-2.35C352.26,284.54,357.5,287.16,362.88,289.16Zm-14,17.84c-5.93-4.77-9-10.68-8.69-18.32C345.14,293.86,347.59,300,348.84,307Zm-8.75-42.93c-1.86,8.95,2.28,16.89,3.63,25.35-1.9-2.08-4.05-4.16-4.23-7.1-.33-5.65-.33-11.33-.42-17C339.06,264.89,339.49,264.45,340.09,264.07ZM194.75,671.71V418.83l-4.2,3.12V675.53a23.47,23.47,0,0,1,15.3,6.74c4.27,4.16,6.84,9,6.24,15.17.8.07,1.25.16,1.71.16,38.95,0,77.89-.08,116.84.06,3.59,0,5.13-2.27,7.2-4.43H216.12C213.37,681.69,207,674.07,194.75,671.71Zm385.63-249.8c-1.26-.93-2.53-1.88-4.29-3.17v253c-12.2,2.27-18.56,10-21.25,21.58H432.65c2.62,2.48,4.63,4.65,8.39,4.33,4.6-.41,9.27-.1,13.9-.1H556.89c.57,0,1.15-.08,1.67-.11.88-13.78,9.32-19.9,21.82-22.2ZM577,76.49v243l4.13-3.09V72.93c-12.46-2.28-20.84-8.37-21.79-22.17-.51,0-1-.14-1.54-.14-38.81,0-77.63.08-116.44-.07-3.63,0-5.38,2.09-8.07,4.37H555.64C558.35,66.54,564.73,74.21,577,76.49Zm-385.66-3.8V316.37l4.26,3.12v-243c12.29-2.34,18.64-10,21.3-21.65h122c-2.5-2.74-4.85-4.6-8.69-4.28-4.67.4-9.39.1-14.1.1l-101.55,0c-.5,0-1,.13-1.77.22.66,6.2-2,11-6.18,15.1A23.41,23.41,0,0,1,191.36,72.69Zm204,319c2.9.08,4.14-1.06,5-4.3.6-2.2-.05-3.71-2.42-5a22.17,22.17,0,0,0-3.68-1.45c-2.31-.81-4.68-1.48-6.95-2.38-7.64-3-15.29-6-22.85-9.2-6.31-2.68-12.73-5.24-17.66-10.37-1.5-1.56-2.8-1.25-4.06.57a11.29,11.29,0,0,1-.79.94c-.86-.32-1.68-.58-2.46-.92-17.34-7.76-34.77-15.34-52-23.38-10.8-5.05-21.39-10.52-32.73-14.3a9.13,9.13,0,0,0-3.63-.78,4.47,4.47,0,0,0-3,1.55c-2.06,3.06-1.68,8.25.49,11.27,1.68,2.35,4.11,3.38,6.73,4.28,7.5,2.59,14.95,5.31,22.41,8a6.93,6.93,0,0,1,1.22.83c-4.32,1.1-7.94,2.65-9.51,7.31,1.42.74,2.67,1.77,4.07,2.07a22.6,22.6,0,0,0,14.55-1.52,47,47,0,0,1,4.39-1.87,12.44,12.44,0,0,1,2.68-.27,6.65,6.65,0,0,1-.27,1c-1.49,2.57-.95,3.59,2,3.69,1.32,0,2.66-.13,4,0a20.09,20.09,0,0,1,4.45.82,72.7,72.7,0,0,1,7.57,3,144.56,144.56,0,0,0,35.1,11.8,43.48,43.48,0,0,1,14.19,5.53c9.23,5.48,19.3,9,29.39,12.42A12.94,12.94,0,0,0,395.38,391.68ZM271.77,331.81l16.41,8.31c-6.63-.35-11.66-4.06-16.65-7.82Zm-18.14,2.39a6,6,0,0,1-3.67-7,13.82,13.82,0,0,1,1-2.32,6.44,6.44,0,0,1,4.56,4.18l-.41.55-2.55-1.88c-1.31.32-1.37,1.24-1,2.28.54,1.51,3.61,2.87,5.25,2.32a2.34,2.34,0,0,0,1.71-3.1,24.28,24.28,0,0,0-1.25-2.89c2.79.31,7.11,6.65,7.8,11.47C261.2,336.63,257.28,335.73,253.63,334.2ZM279,343.59c-1.8-.65-3.52-1.57-5.34-2.14a10.65,10.65,0,0,1-6.36-5.63c-1.24-2.37-2.41-4.77-3.62-7.16l.43-.48a29.81,29.81,0,0,1,4.09,3.37,31.43,31.43,0,0,0,19.1,10.77c4.73.82,9.32,2.39,14,3.66a9.72,9.72,0,0,1,1.73.88c-.1.21-.15.41-.2.41C294.73,347,286.69,346.39,279,343.59Zm41.49,17.73-9.82-4.17c.07-.15.13-.31.19-.46,3.59.65,7.37.86,9.95,4C320.72,360.9,320.61,361.11,320.5,361.32Zm12.89,5.25c-2.58-.94-5.19-1.82-7.73-2.87a3.45,3.45,0,0,1-1.41-1.57c-2.17-4.05-5.6-6.1-10.05-6.95-4.84-.92-9.62-.38-14.42,0q-.79.07-1.59.09c-.1,0-.2-.12-.48-.29l1.65-1c.8-1.62-.08-2.41-1.38-2.93-1.87-.75-3.77-1.45-5.66-2.17,0-.17.09-.34.13-.51,1.78.22,3.56.53,5.35.64,8.15.54,16,2.28,23.24,6.15,3.14,1.68,5.87,4.17,8.63,6.49a40.34,40.34,0,0,1,4,4.38Zm12,2.95c-3.92-.66-7.43-1.85-9.78-5.45a27.9,27.9,0,0,0-3.75-3.87c7,1.73,13.67,3.85,18.08,10.36C348.37,370.19,346.9,369.77,345.41,369.52Zm13.6,3.22c-4.63-3.17-9.09-6.6-13.58-10-.36-.27-.48-.87-.71-1.32l.54-.59c5.78,7.31,14.73,8.88,22.34,13C364.64,374,361.57,374.49,359,372.74Zm5.57,3.47c7.15-.76,13.47,1,19.63,4.27C377.82,382.52,370.07,380.83,364.58,376.21Zm16,7.08c5.87-.4,11.81-1.27,17.53,2.18-.29,1.16-.53,2.14-.84,3.43a11,11,0,0,1-3.32,0c-4.53-1.55-9-3.27-13.51-4.93C380.52,383.71,380.57,383.5,380.62,383.29Zm48.58-44.42c-3-.13-6.12.09-8.84-.86-13.93-4.86-27.75-10.06-41.6-15.13a16,16,0,0,0-1.9-.58c-2.67-.57-4.21.05-5.22,2-1.57,3.08-1.38,4.81.88,6.72a10.71,10.71,0,0,0,2.69,1.67c9.93,4.23,19.89,8.39,30.57,10.49a47.18,47.18,0,0,1,13.75,5A166.28,166.28,0,0,0,436,356.61c7.2,3,14.67,5.34,22.07,7.83a23.73,23.73,0,0,1,10.27,6.15c2.2,2.37,4.18,2,4.44-1.32,0-.09.18-.16.69-.59a15.53,15.53,0,0,1,1.79,2.55c2.41,5.61,5.21,10.93,10.84,14a33.68,33.68,0,0,0,5.1,1.82c1.94-4.75.23-8.32-2.31-12.08a6.38,6.38,0,0,1,1.24.2c7.36,3,14.85,5.64,22,9,5.85,2.75,12.54,1.7,15.28-4.54,1.29-2.93.83-5.36-2.16-6.53-6.42-2.48-12.82-5-19.37-7.15-7.87-2.55-15.92-4.53-23.82-7-15.43-4.79-30.81-9.75-46.2-14.66-1-.31-1.92-.76-2.8-1.12C433.35,339.27,433,339,429.2,338.87Zm-56.34-11,1.57-3.48a34.38,34.38,0,0,1,4.9,1.83,31.16,31.16,0,0,1,9.62,8.73C383.69,332.44,377.47,332.1,372.86,327.84Zm15.29,2.45c3.45-.42,13.18,4.85,17.86,9.77C398.19,339.63,393.51,337,388.15,330.29Zm24.11,10.81c-3.1-.39-5.11-2.79-7.31-4.72l.3-.45c4.12,1.4,8.18,3.08,12.39,4.13s8.34,1.41,12.66,2.1c-.38.17-.84.56-1.27.53C423.44,342.21,417.83,341.81,412.26,341.1Zm35.87,17c2.81-1.33,8,.46,11,3.73ZM519,374.13c-4.09,2.17-4.75,3-3.84,4.73.8,1.51,3.89,2.67,5.41,1.95,1.06-.5,1.75-1.23.87-2.43l-3.55-.19a5.15,5.15,0,0,1,6.34-.9c.78,2.91-2.65,5.59-5.78,5.5a11.51,11.51,0,0,1-4.22-.93c-2.94-1.33-5.77-2.89-8.64-4.36C508.47,374.69,516.4,372.61,519,374.13Zm-14.27-5.46c0,.17-.09.33-.13.5-6.39-.41-12.7-1.11-18.12-5.31Zm-33.62-9.95c2.71,1.14,5.49,2.17,8.13,3.46a54.13,54.13,0,0,1,6.51,3.79,30.29,30.29,0,0,0,21.74,4.83,27.3,27.3,0,0,1,5.09.22l.06.89c-3.73,1.2-7.43,2.47-11.19,3.55a5.57,5.57,0,0,1-2.92-.27,59.1,59.1,0,0,1-19-9.14c-2.94-2.21-5.9-4.4-8.85-6.59Zm-18.57-5.52c9.52,2.73,17.42,8.2,25.26,13.87a5.66,5.66,0,0,1,.65.89l-6.31-2.36c-1.34-.5-2.49-.48-3,1.24L470,369c-1.64-1.55-3.11-2.72-4.32-4.11a33.91,33.91,0,0,0-10.42-8.12A9.93,9.93,0,0,0,447,356a8.81,8.81,0,0,1-7.42-.64c-1.4-.69-2.83-1.29-4.19-2.12C441.13,352.4,446.75,351.53,452.58,353.2Zm-11.1-3.54c-1.84.18-3.11.32-4.38.41a13.22,13.22,0,0,0-2.76.16c-5.86,1.74-9.32-3.1-14.31-4.72C427.92,343.57,434.44,346.34,441.48,349.66ZM415.07,76.2H355.66V126h59.41ZM411,121.61H359.91V80.48H411ZM520.55,543q-1.59-10.2-3.2-20.4c-.11-.64-.29-1.27-.44-1.91-1.57,7-2.82,14-3.74,21a9.78,9.78,0,0,1-5.18,7.72,34.27,34.27,0,0,1-11.8,3.9c-.66.1-1.31.27-2,.4a8.09,8.09,0,0,0,2.76.87,30.93,30.93,0,0,1,11.86,4.3,8.77,8.77,0,0,1,4.22,6.6c.49,4.07,1.22,8.11,1.87,12.17.51,3.15,1.05,6.3,1.58,9.46a2.42,2.42,0,0,0,.76-1.46c1-6.34,2.3-12.65,3-19a10.3,10.3,0,0,1,7.06-9.18c3.8-1.47,7.76-2.51,11.89-3.81l-2.14-.37a32.88,32.88,0,0,1-11.94-4.11C522.76,547.73,521,545.86,520.55,543ZM343.27,186.18a5.58,5.58,0,0,0,1.94.74c3.82,1.24,7.74,2.26,11.42,3.83a8.13,8.13,0,0,1,5.19,6.55c.87,6.09,1.89,12.16,2.86,18.24.21,1.31.51,2.61.77,3.91a2.79,2.79,0,0,0,.74-1.53c1.06-6.53,2.26-13,3.09-19.61a9.56,9.56,0,0,1,5.31-7.62,21.14,21.14,0,0,1,4-1.8c3.08-.93,6.21-1.7,9.8-2.66l-2.8-.56a31.73,31.73,0,0,1-12.05-4.36,8.91,8.91,0,0,1-4.17-6.63c-.79-5.84-1.83-11.64-2.77-17.45-.22-1.35-.48-2.7-.72-4a3.17,3.17,0,0,0-.79,1.63c-1.08,6.67-2.22,13.32-3.16,20-.38,2.72-1.48,5-3.81,6.16a88.08,88.08,0,0,1-9.82,4.11A36.13,36.13,0,0,1,343.27,186.18Zm1,473.51c1.8-.12,2.23-1.66,2.53-3.13.64-3.12,1.13-6.26,1.88-9.35,1.78-7.26,3.69-14.49,5.48-21.75a21.07,21.07,0,0,0,.3-3.35L351.51,621c-.36.28-.74.41-.86.67-4.4,9.1-4.79,19.32-8.26,28.83a57.31,57.31,0,0,1-2.73-6.72c-.66-2-1-4.12-1.74-6.1a2.7,2.7,0,0,0-1.83-1.46c-.56-.07-1.46.63-1.79,1.22a29.9,29.9,0,0,0-1.83,4.18c-.84,2.2-1.6,4.42-2.39,6.64a5,5,0,0,1-.75-2c-1.35-6.34-2.66-12.7-4.06-19a14.53,14.53,0,0,0-1.43-4.11c-.43-.76-1.52-1.15-2.32-1.71A9.08,9.08,0,0,0,320.1,624a10,10,0,0,0,.16,3.56c1.72,9.44,3.49,18.87,5.25,28.31.32,1.69,1,3,3,3.16s2.37-1.35,2.88-2.75c1.3-3.6,2.62-7.2,4-11,1.78,4.18,3.4,8,5,11.82A3.79,3.79,0,0,0,344.23,659.69Zm53.68-35c-.18-1.34-.62-2.56-2.24-2.52s-2,1.16-2.12,2.45a41.42,41.42,0,0,0-.33,4.15c-.06,6.16-.06,12.32-.09,18.48,0,.54-.06,1.08-.13,2.22-.44-1-.64-1.39-.81-1.81-2.77-6.8-5.53-13.61-8.33-20.4a54.26,54.26,0,0,0-2.45-5.17c-.36-.65-1.13-1.51-1.69-1.5a2.34,2.34,0,0,0-1.68,1.51,23.68,23.68,0,0,0-.35,5.12c.26,9.79.58,19.58.89,29.37,0,.46-.07,1.07.18,1.35.68.76,1.44,1.8,2.31,2,1.35.26,2.15-.83,2.29-2.18.09-.92,0-1.85,0-2.78V639.4c1.78,4.49,3.77,9.6,5.85,14.68a21.47,21.47,0,0,0,2.11,3.81c1.19,1.79,3.13,1.61,4.85,1.32,1.55-.27,1.81-1.75,2-3.12a18.63,18.63,0,0,0,.14-2q-.12-13.9-.25-27.81A14.22,14.22,0,0,0,397.91,624.72Zm8.74,3c0,.57.08.83.08,1.09-.15,9.13-.32,18.25-.42,27.38-.05,4.08,3,5.91,6.54,3.85a40.43,40.43,0,0,0,6.64-4.66c9-8,8.25-23.88-1.24-30.07-4.9-3.2-10-3.1-15.13-.91a2.52,2.52,0,0,0-1.19,2.13c.1.55,1.26,1.08,2,1.28A10.32,10.32,0,0,0,406.65,627.7Zm4.68.15c1.9-.25,3.28.73,4.57,1.86,6.25,5.46,6.28,16.23,0,22.2-1.28,1.21-2.75,2.21-4.13,3.32l-.48-.35Zm-37.56,26.22c-2.47-10.15-4.94-20.3-7.52-30.42-.22-.86-1.23-1.51-1.87-2.26-.76.73-1.89,1.31-2.2,2.19C361,627,360,630.51,359,634s-1.81,7.15-2.66,10.55c-1.76.74-4.17.32-4.12,2.71,0,.89,1.45,1.75,2.24,2.63l.6-.3c-.22.88-.46,1.76-.67,2.64a15.72,15.72,0,0,0-.88,4.24,3.16,3.16,0,0,0,1.78,2.34c.62.19,1.72-.77,2.44-1.42.38-.34.39-1.09.56-1.66.62-2.08,1.23-4.16,1.88-6.37h8.05c.15.66.24,1.24.4,1.8.69,2.39,1.27,4.83,2.18,7.15.25.64,1.48.89,2.27,1.32a7.18,7.18,0,0,0,1.09-2.25A10.78,10.78,0,0,0,373.77,654.07Zm-12.29-9.9c.87-4.27,1.71-8.36,2.54-12.45l.47,0,2.77,12.11Zm74.76,11.64c-2.59.28-4.16-1.07-4.45-3.8-.23-2.18-1.35-3.39-3-3.21s-2.59,1.74-2.26,4c.71,4.86,3.91,7.54,9.09,7.63a9.9,9.9,0,0,0,10.14-10.16,14.15,14.15,0,0,0-6-11.54,18.52,18.52,0,0,1-6-7.05c-.73-1.58-.11-2.83.88-4s2.21-.94,3.45-.39a7.2,7.2,0,0,1,4.12,3.79c.25.6,1.23.9,1.88,1.33.35-.76,1.05-1.56,1-2.29-.28-2.85-2.3-4.5-4.61-5.82-3.38-1.95-6-1.77-8.6.49a8.45,8.45,0,0,0-2.5,9.17,19,19,0,0,0,6.76,9.11,10.26,10.26,0,0,1,4.61,7.76A4.73,4.73,0,0,1,436.24,655.81Zm-90-605.22c3.16.62,6.35,1,9.66,1.53a13.19,13.19,0,0,0-1.32,3.28c-.15,1.13-.13,2.74.54,3.38a3.81,3.81,0,0,0,3.4.39,14.46,14.46,0,0,0,8.51-9.35c1.27-4.34-.35-8.09-2.95-11.4a21.35,21.35,0,0,0-5-4.71c-2.18-1.42-4.33,0-4.19,2.63a12.59,12.59,0,0,0,.85,3.43,25.78,25.78,0,0,0,1.32,2.72c-3.71.51-7.37.88-11,1.57-1.75.33-4,.83-3.85,3.25C342.43,49.51,344.44,50.23,346.27,50.59Zm10.81,6.55c.88-4.06,2.37-6.31,6.89-6.3A13.56,13.56,0,0,1,357.08,57.14Zm1.48-20.72,5.63,7-.4.58-3.37-.75L357.65,37Zm5.87,10.74A30.36,30.36,0,0,1,345.79,47,31.83,31.83,0,0,1,364.43,47.16ZM425.5,697.63c-3.16-.62-6.36-1-9.69-1.54a11.94,11.94,0,0,0,1.27-3.09,5.79,5.79,0,0,0-.47-3.63c-.91-1.31-2.53-.88-3.82-.22a15.26,15.26,0,0,0-7.88,8.54,11.19,11.19,0,0,0-.53,4.08c.18,4.6,2.84,8,5.86,11.13,2,2.12,4.06,2.62,5.42,1.66s1.6-3,.5-5.67c-.49-1.17-1.08-2.3-1.49-3.18,3.72-.5,7.34-.85,10.89-1.53,1.74-.33,4-.82,3.89-3.24C429.35,698.72,427.33,698,425.5,697.63Zm-10.81-6.56c-1.08,4.5-2.53,6.27-6.91,6.31A13.54,13.54,0,0,1,414.69,691.07Zm-1.18,20.51c-2.6-1.8-4.32-4.32-5.91-7.49l3.75.83,2.75,6.32Zm-6.46-10.23c3.17-2.33,15.6-2.27,19.38.16A40.2,40.2,0,0,1,407.05,701.35Zm-49.61-12.42a3.68,3.68,0,0,0-3.2.59c-.61.55-.68,2.05-.5,3.05a19.81,19.81,0,0,0,1.48,3.79,17.62,17.62,0,0,0-2.07.13,90.08,90.08,0,0,0-9.29,1.77,3.79,3.79,0,0,0-2.25,2.79c0,.91,1.38,2.31,2.4,2.6a64.34,64.34,0,0,0,8.52,1.62,28.2,28.2,0,0,0,3.91,0,53.38,53.38,0,0,0-2.08,5c-.48,1.54-.63,3.22,1,4.3a3.13,3.13,0,0,0,4.15-.71,40.1,40.1,0,0,0,5.46-6.7C369.86,699,363.49,691.28,357.44,688.93Zm0,22.62-.58-.4c.92-2.07,1.83-4.15,2.74-6.21l3.77-.85C361.78,707.25,360.06,709.76,357.44,711.55Zm-13-9.92c3.54-2.51,15.9-2.64,19.5-.33C357.44,703.15,351.22,702.83,344.48,701.63ZM359,696.7c-.89-1.5-1.91-3.23-2.94-5l.62-.45c3,1.08,4.93,3.28,6.69,6.25ZM172.7,340.34a42.66,42.66,0,0,0,7.05,5.64c8.14,4.76,15.92-2.05,18-7.8.93-2.59-.86-4.39-3.51-3.67a38,38,0,0,0-4,1.56c-.18-2.14-.22-4.06-.54-5.94a22.82,22.82,0,0,0-1.56-5.69,3.83,3.83,0,0,0-2.79-1.95c-.82,0-1.95,1.24-2.4,2.18a16.23,16.23,0,0,0-1.29,4.76c-.33,2.58-.4,5.19-.58,7.79a52,52,0,0,0-5-2c-1.47-.44-3.09-.54-4.13,1A3.11,3.11,0,0,0,172.7,340.34Zm17.21-.56,4.91-2.89.44.61c-1,3-3.31,4.88-6.27,6.79C189.33,342.64,189.58,341.38,189.91,339.78Zm-4.61-13.91a29.82,29.82,0,0,1,.24,18.63C183.43,338.34,183.78,332.12,185.3,325.87Zm-9.88,11.87,6.22,2.73.85,3.75a18.34,18.34,0,0,1-7.46-5.89ZM467.91,644.48c3.24-.53,6.49-1,9.66-1.86a2.53,2.53,0,0,0,.29-4.81,11.83,11.83,0,0,0-4.07-1.43c-2.58-.45-5.2-.66-7.92-1a16.37,16.37,0,0,0,1.42-3.62c.15-1,0-2.58-.62-3.19a3.71,3.71,0,0,0-3.23-.41,15.41,15.41,0,0,0-4.31,2.73c-7.39,6.25-5.25,19.24,3.73,23a5.14,5.14,0,0,0,.55.2,2.58,2.58,0,0,0,3.47-2.45,9.71,9.71,0,0,0-.56-3.28,41.21,41.21,0,0,0-1.76-3.84A23.17,23.17,0,0,0,467.91,644.48Zm-3.42-14c.26,3.33-2.17,5.6-6.78,6.19C459.53,633.79,461.44,631.55,464.49,630.44Zm-.87,20.31c-2.64-1.78-4.34-4.32-6-7.48l3.8.86,2.73,6.32Zm-6.22-10.51a29.94,29.94,0,0,1,18.67.2A32.26,32.26,0,0,1,457.4,640.24ZM182.62,407.15c.3,1.53,1,3.26,3,3.21s2.65-1.76,3.2-3.34a17.78,17.78,0,0,0,.82-3.46c.29-2.22.46-4.46.7-6.92a17.07,17.07,0,0,0,3.55,1.42c1.07.16,2.66.14,3.22-.5a3.85,3.85,0,0,0,.49-3.38,14.77,14.77,0,0,0-9.47-8.66c-5.73-1.78-12.76,3.13-15.54,7-.88,1.22-1.52,2.59-.52,4s2.5,1.42,3.94,1a33.08,33.08,0,0,0,3.84-1.54l1-.43C181.4,399.5,181.89,403.35,182.62,407.15Zm12.55-11.85c-.13.17-.25.35-.38.53L189.92,393l-.84-4.12A10.39,10.39,0,0,1,195.17,395.3Zm-9.64-7.11a30.31,30.31,0,0,1-.18,18.67A31.85,31.85,0,0,1,185.53,388.19ZM175.39,395l-.59-.93,7.06-5.62.55.41-.75,3.37Zm413.16-68.71c-.33-1.73-.81-4-3.23-3.88-2.24.09-2.94,2.1-3.31,3.92-.63,3.16-1,6.37-1.55,9.72a12,12,0,0,0-3-1.25,5.8,5.8,0,0,0-3.63.4c-1.33.87-.95,2.5-.3,3.8A15.43,15.43,0,0,0,582,346.9a10,10,0,0,0,3.87.6c5-.24,8.73-3.06,12-6.55a6.65,6.65,0,0,0,1.42-2.56,2.47,2.47,0,0,0-2.36-3.33,11.25,11.25,0,0,0-3.65.66,24.47,24.47,0,0,0-3.15,1.48C589.59,333.52,589.23,329.86,588.55,326.27ZM575.68,337.5l.44-.61,4.92,2.87.92,4.49C579,342.41,576.73,340.49,575.68,337.5Zm9.82,7c-2.1-2.88-2-15.3.09-18.63C587.49,328.81,587.43,340.88,585.5,344.49Zm10.29-6.87c-.64,2.45-4.33,5.51-7.25,6.26.24-1.06.46-2.07.75-3.37ZM414,59.19a3.91,3.91,0,0,0,3.41-.46c.64-.54.69-2.14.53-3.2a15.61,15.61,0,0,0-1.33-3.41c3.34-.52,6.55-.91,9.71-1.56,1.82-.37,3.84-1.09,3.89-3.35s-2.07-2.81-3.77-3.13c-3.62-.68-7.29-1.08-11-1.59.6-1.46,1.4-3.06,1.91-4.75.45-1.48.5-3.1-1.05-4.11a3.06,3.06,0,0,0-4,.63,40.57,40.57,0,0,0-5.32,6.33C401.84,48.78,407.77,56.48,414,59.19Zm.27-22.53.58.3-2.72,6.33-3.78.83A18.66,18.66,0,0,1,414.31,36.66Zm12.44,10.17c-2.28,2.19-14.66,2.47-18.77.33C411.68,45.23,423,45.08,426.75,46.83ZM415.26,57a12.92,12.92,0,0,1-6.71-6.13C412.93,51.25,415.25,53.34,415.26,57ZM598.12,392.2a40.75,40.75,0,0,0-7.65-5.83c-6.35-3.34-15.7,1.34-17.35,8.38-.57,2.45,1,4.11,3.45,3.49a36.12,36.12,0,0,0,4.14-1.59c0,.69,0,1.37.15,2a81.66,81.66,0,0,0,1.69,9.11,4.43,4.43,0,0,0,2.88,2.5c1.59.35,2.42-1.24,2.72-2.61.62-2.83,1.09-5.69,1.5-8.55a27.15,27.15,0,0,0,0-3.73,51.3,51.3,0,0,0,4.76,2c1.6.51,3.36.76,4.49-.92A3.18,3.18,0,0,0,598.12,392.2ZM581,393c-1.53.9-3.23,1.88-4.92,2.86l-.43-.61c1.07-3,3.28-4.93,6.28-6.73C581.63,390.09,581.37,391.36,581,393Zm5,14.39c-2.53-3.42-2.68-15.81-.36-19.53C587.52,394.39,587.19,400.62,586,407.35ZM595.54,395l-6.22-2.72-.85-3.77c3.15,1.58,5.66,3.3,7.46,5.92ZM299.24,652.92a3.07,3.07,0,0,0,4.16-.64,41.87,41.87,0,0,0,5.65-7.06c4.79-8.15-2.09-16-7.84-18-2.58-.9-4.36.93-3.62,3.58a35.52,35.52,0,0,0,1.53,3.8c-2.81.34-5.51.51-8.15,1a12.57,12.57,0,0,0-4.52,1.87c-1.65,1.12-1.44,3,.32,4a9.62,9.62,0,0,0,3.32,1.24c3.37.51,6.76.85,10.14,1.25a48.23,48.23,0,0,0-1.94,4.74C297.83,650.25,297.73,651.87,299.24,652.92Zm2.14-3-.57-.29,2.73-6.32,3.7-.85A17.1,17.1,0,0,1,301.38,649.94Zm-.75-20.25c3,1.06,4.8,3.38,6.82,6.31l-4.58-.93-2.91-4.9Zm-11.71,9.95a30.1,30.1,0,0,1,18.63-.21A31.88,31.88,0,0,1,288.92,639.64Zm296.71,57.48c-1.87-2.37-3.9-4.61-5.81-6.84,1.44-.58,3.08-1.11,4.59-1.87s2.89-1.87,2.47-3.86-2.07-2.46-3.66-2.4a31.46,31.46,0,0,0-8.19,1,13.31,13.31,0,0,0-6.06,3.72c-3.51,4.23-3.53,9.26-1.62,14.23a3.8,3.8,0,0,0,2.69,2.1c.93,0,2.1-1.12,2.76-2a14.94,14.94,0,0,0,1.41-3.48c2.07,1.65,4,3.31,6,4.74a13.85,13.85,0,0,0,4.25,2,3.24,3.24,0,0,0,2.83-.6,3.88,3.88,0,0,0,.28-3.07A11.18,11.18,0,0,0,585.63,697.12Zm-2.2-12.4c-.67,1.72-2.1,2.44-6.53,3.66l-2.7-1.73c0-.21,0-.43,0-.64Zm-13.58,15.83c-1.6-3.06-1.29-6.09-.69-9.24C572.19,694.35,572.44,697.32,569.85,700.55Zm1.62-12.16a31.44,31.44,0,0,1,13.6,13A30.38,30.38,0,0,1,571.47,688.39ZM186.76,52c1.67,2,3.49,3.93,5.22,5.86-1.65.7-3.44,1.34-5.1,2.21-1.33.7-2.35,1.81-2,3.52a3,3,0,0,0,3.23,2.4,42,42,0,0,0,9-1c8.91-2.34,9.91-12.12,7.23-18.17a3.46,3.46,0,0,0-2.5-1.82,3.74,3.74,0,0,0-2.59,1.66,20.68,20.68,0,0,0-1.71,4,31.38,31.38,0,0,0-2.43-2.19c-2-1.46-4.06-3-6.21-4.23-1.38-.81-3.09-1.28-4.43,0s-.56,2.86.15,4.21A20.66,20.66,0,0,0,186.76,52Zm1.57,11-.19-.61,6.48-2.64c1.09.65,1.94,1.16,2.78,1.68.1.06.13.21.29.49C194.58,62.87,191.54,63.63,188.33,63ZM201.9,47.7c1.63,3,1.25,6.07.7,9.28C199.57,53.74,199.34,50.72,201.9,47.7Zm-1.63,12.12a31.67,31.67,0,0,1-13.61-13A30.12,30.12,0,0,1,200.27,59.82ZM570.2,62c4.07,3.6,9,4.52,14.2,4.06,1.47-.13,2.92-.66,3.28-2.38S587,60.75,585.56,60c-1.63-.85-3.37-1.46-5.22-2.24.51-.45.91-.78,1.3-1.14,2.81-2.65,5.35-5.54,6.75-9.19a3.65,3.65,0,0,0-.27-3.06,3.25,3.25,0,0,0-2.84-.62,15.66,15.66,0,0,0-4.41,2.14c-2,1.41-3.91,3.07-5.86,4.63a19.22,19.22,0,0,0-1.61-3.82c-.56-.82-1.73-1.79-2.55-1.72a3.74,3.74,0,0,0-2.63,1.93,14.62,14.62,0,0,0,.38,12.82A7.5,7.5,0,0,0,570.2,62Zm14.2.37c-.06.21-.12.42-.19.63-3.19.61-6.25-.12-9.63-1.18l3.3-2.1Zm1.48-15.55a31.71,31.71,0,0,1-13.6,13A30.06,30.06,0,0,1,585.88,46.82Zm-15.32.75c2.65,3.19,2.4,6.22-.56,9.32A14.23,14.23,0,0,1,570.56,47.57ZM201.49,686.17c-3.94-3.5-8.72-4.42-13.81-4-1.62.12-3.24.56-3.62,2.49s.91,3,2.36,3.72,3.24,1.36,5,2.07c-.47.43-.9.82-1.32,1.22a26.07,26.07,0,0,0-6.77,9.18c-1.05,2.64.27,4.22,3.06,3.7a7.39,7.39,0,0,0,2.73-1.09c2.6-1.79,5.12-3.7,7.73-5.62a14.2,14.2,0,0,0,1.36,3.42c.67.91,1.87,2,2.8,2a3.87,3.87,0,0,0,2.65-2.15,14.57,14.57,0,0,0-.24-12.1A8.35,8.35,0,0,0,201.49,686.17Zm-14.1-.29.18-.65c3.19-.62,6.24.08,9.61,1.18l-3.31,2.07Zm-1.42,16c.22-3.5,9.34-12.43,14-13.69A39.15,39.15,0,0,1,186,701.89Zm15.2-1.32c-2.58-2.91-2.35-6.05.62-9.34C202.46,694.51,202.6,697.52,201.17,700.57ZM378.43,57.41a2.69,2.69,0,0,0,2.28.45c.49-.23.79-1.41.71-2.13a6.46,6.46,0,0,1,4.65-7.12c3.73,1,5.36,3.47,5,7.37-.06.61.24,1.63.66,1.83a2.34,2.34,0,0,0,2.13-.19,12.14,12.14,0,0,0,2.72-3.35,11.45,11.45,0,0,0-6-15.81,11.69,11.69,0,0,0-15.22,7.2C373.93,49.83,375.26,55,378.43,57.41Zm3.48-14.64c2.89-2,6-1.9,9,.3,2.64,1.92,3.59,4.67,2.62,8.07-1.54-3.17-3.61-5.84-7.17-5.78s-5.92,2.33-7.34,6C378,47.63,379.12,44.7,381.91,42.77ZM576.65,371.08c-1.29-.16-2.24.24-2.14,1.58a3.87,3.87,0,0,0,1.22,2.14,11.15,11.15,0,0,0,12.34,2.1c4.12-1.85,7.22-6.62,7-10.73A12.08,12.08,0,0,0,587,355.38c-4.16-1.37-9.31-.07-11.75,3.12a2.7,2.7,0,0,0-.48,2.28c.23.48,1.41.81,2.11.73a6.47,6.47,0,0,1,7.15,4.62C583,369.85,580.49,371.58,576.65,371.08Zm4.85-11.9a6.8,6.8,0,0,1,7.87,2.2,7.28,7.28,0,0,1,.36,9.33,6.88,6.88,0,0,1-8.26,2.91c3.17-1.53,5.84-3.62,5.76-7.19S584.84,360.55,581.5,359.18ZM393.35,690.83a2.7,2.7,0,0,0-2.28-.49c-.48.22-.82,1.4-.75,2.1.39,3.55-1.43,6.22-5.06,7.17-3.41-1.18-4.94-3.7-4.56-7.32.06-.62-.19-1.64-.61-1.86a3,3,0,0,0-2.16.14,4.45,4.45,0,0,0-1.44,1.34,11.34,11.34,0,0,0-1.3,12.3c2,3.92,6.8,6.75,10.88,6.41a12,12,0,0,0,10.38-8C397.82,698.42,396.52,693.26,393.35,690.83Zm-4,14.8a7.15,7.15,0,0,1-8.66-.46,6.93,6.93,0,0,1-2.56-7.85c4.38,7.82,11,7,14.67-.21C393.71,701,392.58,703.65,389.39,705.63Zm-195-344c.61.06,1.63-.23,1.84-.65a2.33,2.33,0,0,0-.2-2.13,13.52,13.52,0,0,0-3.69-2.9A11.49,11.49,0,0,0,181,375.83c4.59,3.21,11.24,2.58,14.62-1.48a3.13,3.13,0,0,0,.58-2.45c-.09-.4-1.4-.77-2.11-.69-3.52.39-6.23-1.49-7.13-5.1C188.22,362.67,190.65,361.23,194.34,361.59Zm-5.06,12a6.43,6.43,0,0,1-7.25-1.78c-2.63-3-3-6.43-1.1-9.47a7.21,7.21,0,0,1,8.52-3.25C181.77,363.53,181.77,369.18,189.28,373.56ZM259,572c-.51-3.67-1.12-7.33-1.7-11-.09-.56-.25-1.1-.38-1.64a83.77,83.77,0,0,0-2.39,12.06,5.92,5.92,0,0,1-3.55,5.09c-1.91.87-4,1.43-6,2.11-.49.17-1,.26-1.65.41,2.6.88,5,1.57,7.31,2.52a6,6,0,0,1,3.86,5.3c.47,4,1.29,8,2,12.07a1.94,1.94,0,0,0,.72-1.22c.59-3.6,1.28-7.18,1.67-10.79a6,6,0,0,1,4-5.42c2.25-.91,4.59-1.58,6.73-2.3-2.46-1-5.13-1.86-7.69-3A5.05,5.05,0,0,1,259,572Zm253.4-362.91c.39,3.54,1.07,7,1.65,10.58a11.31,11.31,0,0,0,.41,1.37,78.29,78.29,0,0,0,2.24-11.74,6.64,6.64,0,0,1,4.55-5.9c2.11-.86,4.34-1.42,6.35-2.06-2.53-.94-5.16-1.79-7.68-2.88a4.93,4.93,0,0,1-3-3.92q-.78-5.19-1.63-10.38c-.13-.84-.32-1.67-.48-2.5l-.54.05c-.59,3.64-1.45,7.25-1.69,10.9-.27,4.07-2.6,6-6.06,7.14-1.31.43-2.68.7-4,1.06-.37.1-.72.27-1.08.4,2.48.87,4.88,1.59,7.18,2.55A6,6,0,0,1,512.41,209.09Zm-22.54-84a42.2,42.2,0,0,0,.74,4.57,13.52,13.52,0,0,0,1.38-5.17c.09-2.64,1.68-3.71,3.85-4.4.56-.18,1.11-.38,1.67-.57a2.44,2.44,0,0,0-1.24-.65c-2.5-.67-4.3-1.85-4.34-4.84a31,31,0,0,0-.85-4.91,20.28,20.28,0,0,0-1.44,5.81,4,4,0,0,1-3,3.54c-.78.29-1.59.5-3,.92a18.13,18.13,0,0,0,1.87.62C488.35,120.57,489.7,122.26,489.87,125.09ZM254.71,183.36c3.79.57,5.32,2.91,5.35,6.59a16.6,16.6,0,0,0,.71,3.34,11,11,0,0,0,.94-4c.13-3.29,1.66-5.29,5-5.82.26,0,.48-.29.95-.57-.72-.23-1.14-.38-1.57-.5-2.4-.68-4.14-1.81-4.14-4.73a28.82,28.82,0,0,0-.85-5,12.25,12.25,0,0,0-1.14,4.46c-.14,2.93-1.55,4.65-4.38,5.28a10.71,10.71,0,0,0-1.21.39c0,.19,0,.27,0,.3S254.6,183.34,254.71,183.36ZM363.47,491.52a28.45,28.45,0,0,0-.87-4.87h-.44c-.43,2.49-.86,5-1.33,7.67a22.53,22.53,0,0,1-2.42,1.52,29.49,29.49,0,0,1-3.13,1c.81.27,1.29.45,1.79.59,3.17.9,3.91,1.78,4.35,5,.21,1.6.5,3.18.76,4.76a6.59,6.59,0,0,0,1-3.09c.13-3.68,1.38-6.41,5.48-6.94.23,0,.44-.25.86-.51a14.18,14.18,0,0,1-1.54-.25C365.46,495.73,363.51,494.62,363.47,491.52ZM182.94,439.19c1.25,0,2.12-.63,2.05-2.75a2,2,0,0,0-2.11-1.87c-1.45-.05-2,.94-2.06,2.32A2,2,0,0,0,182.94,439.19ZM588,434.58a2.17,2.17,0,0,0-2.08,2.39c0,1.65.89,2.27,2.13,2.22a2,2,0,0,0,2.06-2.36C590.1,435.45,589.48,434.48,588,434.58Zm-403.8-9.3c-.5-.46-2.05-.62-2.38-.25a3.45,3.45,0,0,0-.74,2.72c.37,1.56,1.76,1.49,3.26,1.12A2.5,2.5,0,0,0,184.22,425.28ZM587.66,313.11a2.48,2.48,0,0,0,2.39.07,3.53,3.53,0,0,0,.53-2.8c-.48-1.54-1.87-1.31-3.16-.95A2.44,2.44,0,0,0,587.66,313.11Zm-.85,112a2.49,2.49,0,0,0-.21,3.65c2.92.62,3.77-.23,3.24-3.3C589,424.54,587.85,424.12,586.81,425.15ZM184.93,313.08c1.08-.92,1.23-2.25.2-3.7-1.33-.27-2.74-.53-3.19,1a3.56,3.56,0,0,0,.59,2.79A2.52,2.52,0,0,0,184.93,313.08Zm0,133.48a2,2,0,0,0-4,0c-.48,1.45.49,2.3,2,2.64C184.45,448.88,185.37,448,184.89,446.56Zm403.2-1.6a2.71,2.71,0,0,0-2,1.58c-.49,1.41.41,2.33,2,2.71,1.47-.34,2.46-1.17,2-2.63A2.74,2.74,0,0,0,588.09,445ZM332.65,45.55c1.48.18,2.13-.76,2.5-2.72a6.37,6.37,0,0,0-1.92-1.43c-1.31-.39-2.17.44-2.32,1.74A1.93,1.93,0,0,0,332.65,45.55Zm107,0a1.88,1.88,0,0,0,2-2.14c0-1.24-.61-2.15-2.77-2.1-.29.39-1.2,1.07-1.3,1.87A2,2,0,0,0,439.61,45.57Zm-.81,657.07a2,2,0,0,0-2,2.39c.12.8,1,1.48,1.31,1.86,2.15,0,2.75-.87,2.76-2.11A1.9,1.9,0,0,0,438.8,702.64Zm-106.53,0a1.88,1.88,0,0,0-2.17,2c0,1.23.49,2.19,2.63,2.28.32-.38,1.28-1,1.43-1.8A2,2,0,0,0,332.27,702.65ZM222.72,45.81h.94c.56-.82,1.56-1.66,1.52-2.44s-1.14-1.75-1.93-1.92a1.69,1.69,0,0,0-2,2C221.33,44.31,222.19,45,222.72,45.81ZM591.2,131.74c-.82-.51-1.68-1.48-2.46-1.41a2.91,2.91,0,0,0-1.89,1.94,1.69,1.69,0,0,0,2,2c.86-.13,1.6-1,2.4-1.61ZM223,702.44l-.9-.06c-.59.72-1.5,1.37-1.69,2.19-.3,1.26.54,2.15,1.88,2.26a1.8,1.8,0,0,0,2.14-2C224.37,704,223.52,703.23,223,702.44ZM252.54,45.81h1C254,45,255,44.15,255,43.37s-1.16-1.74-1.95-1.91a1.69,1.69,0,0,0-2,2C251.15,44.32,252,45,252.54,45.81Zm9.9,0,1,0c.56-.8,1.56-1.62,1.54-2.4a2.89,2.89,0,0,0-1.85-2A1.67,1.67,0,0,0,261,43.34C261.06,44.21,261.92,45,262.44,45.8Zm10.08,0,1,0c.51-.84,1.47-1.7,1.41-2.49a2.89,2.89,0,0,0-2-1.85,1.67,1.67,0,0,0-2,2C271,44.31,272,45,272.52,45.83Zm10,0,.89,0c.52-.79,1.39-1.53,1.49-2.36a1.81,1.81,0,0,0-2.1-2.06c-1.35.08-2.19,1-1.93,2.22C281,44.42,281.91,45.09,282.49,45.83ZM232.87,702.41l-.89,0c-.57.74-1.46,1.42-1.63,2.25-.24,1.26.62,2.13,2,2.19a1.8,1.8,0,0,0,2.08-2.07C234.28,703.93,233.41,703.19,232.87,702.41ZM302.17,45.8l.95,0c.57-.81,1.59-1.63,1.56-2.42a2.87,2.87,0,0,0-1.9-1.95,1.68,1.68,0,0,0-2.07,2C300.82,44.28,301.66,45,302.17,45.8ZM262.12,702.86a2.84,2.84,0,0,0-1.94,1.86,1.67,1.67,0,0,0,1.95,2c.88-.13,1.64-1,2.46-1.54v-.91C263.76,703.79,262.92,702.82,262.12,702.86Zm9.58-.47c-.56.8-1.46,1.54-1.59,2.4a1.67,1.67,0,0,0,2,2,2.88,2.88,0,0,0,1.93-1.88c.06-.79-.91-1.64-1.44-2.47ZM449.36,45.78l.94,0c.58-.79,1.62-1.59,1.6-2.36a2.91,2.91,0,0,0-1.85-2,1.67,1.67,0,0,0-2.11,1.93C448,44.23,448.86,45,449.36,45.78Zm11,0c.53-.77,1.4-1.48,1.52-2.31a1.68,1.68,0,0,0-2-2c-.8.17-1.91,1.2-1.95,1.91s1,1.63,1.5,2.45Zm-169,656.61c-.49.84-1.34,1.64-1.41,2.51a1.69,1.69,0,0,0,2.18,1.83,2.91,2.91,0,0,0,1.8-2c0-.78-1-1.57-1.6-2.35ZM479.17,45.78l.9.06c.59-.73,1.5-1.38,1.69-2.2.3-1.25-.53-2.15-1.87-2.25a1.8,1.8,0,0,0-2.15,2C477.82,44.23,478.67,45,479.17,45.78Zm11,0c.55-.8,1.45-1.55,1.57-2.41a1.67,1.67,0,0,0-2.06-1.95c-.79.18-1.88,1.2-1.92,1.9s.93,1.63,1.47,2.45Zm10,0c.54-.81,1.42-1.57,1.53-2.43a1.66,1.66,0,0,0-2.07-1.93,2.89,2.89,0,0,0-1.9,1.92c0,.78.95,1.62,1.48,2.43Zm8.93,0,.93,0c.57-.8,1.59-1.63,1.56-2.41a2.94,2.94,0,0,0-1.9-2,1.68,1.68,0,0,0-2.08,2C507.65,44.27,508.52,45,509,45.8ZM302.45,702.42l-.9,0c-.57.75-1.47,1.42-1.63,2.25-.26,1.26.6,2.13,1.94,2.2a1.8,1.8,0,0,0,2.09-2.06C303.85,703.94,303,703.2,302.45,702.42ZM538.91,45.81l.89,0c.56-.76,1.45-1.45,1.6-2.28.23-1.26-.63-2.12-2-2.17a1.82,1.82,0,0,0-2.06,2.11C537.48,44.31,538.37,45,538.91,45.81ZM311.37,702.4c-.53.77-1.39,1.49-1.52,2.32a1.69,1.69,0,0,0,2,2c.79-.17,1.91-1.21,1.95-1.91s-1-1.63-1.51-2.45ZM183.66,84.62a1.68,1.68,0,0,0,2-2c-.13-.87-1-1.63-1.56-2.44h-.92c-.52.82-1.48,1.68-1.43,2.46A2.85,2.85,0,0,0,183.66,84.62Zm403.19-2a1.69,1.69,0,0,0,2,2c.86-.13,1.6-1,2.4-1.61l0-1c-.82-.52-1.68-1.48-2.46-1.42A2.93,2.93,0,0,0,586.85,82.58Zm-403,12a1.69,1.69,0,0,0,1.87-2.15,2.88,2.88,0,0,0-2-1.84c-.78,0-1.59,1-2.39,1.54,0,.32,0,.64,0,1C182.16,93.61,183,94.49,183.82,94.57Zm405,0c.87-.12,1.62-1,2.42-1.58,0-.32,0-.64,0-1-.81-.53-1.66-1.51-2.44-1.45a2.88,2.88,0,0,0-1.92,1.91A1.69,1.69,0,0,0,588.8,94.57Zm-405,5.94c-.78,0-1.61,1-2.42,1.5v1c.81.54,1.58,1.44,2.45,1.54a1.68,1.68,0,0,0,1.91-2.11A2.88,2.88,0,0,0,183.75,100.51ZM449.28,702.74c-1.36,0-2.28.75-2.15,2,.09.84.94,1.59,1.44,2.39l.93,0c.58-.79,1.49-1.53,1.66-2.4C451.4,703.63,450.55,702.79,449.28,702.74ZM185.69,112.39a2.88,2.88,0,0,0-1.88-1.94c-.78-.07-1.64.9-2.47,1.42l0,1c.79.57,1.53,1.49,2.39,1.62A1.69,1.69,0,0,0,185.69,112.39Zm403.14,2c.86-.12,1.6-1,2.4-1.61l0-1c-.82-.52-1.68-1.49-2.46-1.42a2.91,2.91,0,0,0-1.89,1.94A1.69,1.69,0,0,0,588.83,114.44Zm-129.22,588h-1c-.55.8-1.55,1.62-1.52,2.41s1.08,1.74,1.86,2a1.67,1.67,0,0,0,2.11-1.89C461,704,460.13,703.22,459.61,702.41Zm29.32.39a1.69,1.69,0,0,0-2,2,2.85,2.85,0,0,0,2,1.88c.8,0,1.63-1,2.45-1.53l0-.91C490.51,703.75,489.78,702.93,488.93,702.8Zm10.36-.4h-1c-.53.83-1.52,1.69-1.46,2.48a2.93,2.93,0,0,0,2,1.87,1.69,1.69,0,0,0,2-2.07C500.71,703.86,499.83,703.16,499.29,702.4Zm7.48,2.28a1.67,1.67,0,0,0,1.91,2.09c.89-.13,1.67-1,2.49-1.49l0-.93c-.81-.54-1.64-1.53-2.42-1.49A2.85,2.85,0,0,0,506.77,704.68Zm19.87,0a1.67,1.67,0,0,0,1.92,2.09c.88-.13,1.66-1,2.49-1.49v-.93c-.81-.54-1.64-1.53-2.42-1.5A2.88,2.88,0,0,0,526.64,704.68ZM588,454.9a1.69,1.69,0,0,0-1.92,2.11A2.92,2.92,0,0,0,588,458.9c.78,0,1.61-.95,2.42-1.49v-1C589.61,455.9,588.84,455,588,454.9Zm-405.07,9.94c-.86.13-1.6,1.06-2.39,1.63l0,1c.83.51,1.7,1.47,2.47,1.4a2.89,2.89,0,0,0,1.88-1.95A1.69,1.69,0,0,0,182.91,464.84Zm405.16,0a1.68,1.68,0,0,0-2,2,2.89,2.89,0,0,0,1.85,2c.77.09,1.66-.86,2.49-1.36l0-1C589.65,465.92,588.93,465,588.07,464.84Zm-49.55,238c-.79.21-1.86,1.22-1.9,1.93s.94,1.62,1.47,2.43h1c.54-.81,1.43-1.57,1.55-2.44A1.66,1.66,0,0,0,538.52,702.81Zm52.68-432c-.84-.51-1.71-1.46-2.49-1.38a2.9,2.9,0,0,0-1.86,2,1.69,1.69,0,0,0,2,2c.86-.14,1.59-1.07,2.37-1.65ZM182.48,474.37c-.54.82-1.52,1.65-1.49,2.45a2.85,2.85,0,0,0,1.83,2,1.66,1.66,0,0,0,2.09-1.91c-.13-.89-1-1.67-1.52-2.5Zm403.58,2.45a2.89,2.89,0,0,0,1.88,1.95c.78.07,1.64-.9,2.47-1.42,0-.32,0-.63,0-1-.79-.57-1.53-1.5-2.39-1.62A1.68,1.68,0,0,0,586.06,476.82ZM185.69,271.27a2.9,2.9,0,0,0-2-1.82c-.77,0-1.58,1-2.37,1.55l0,1c.82.52,1.62,1.4,2.48,1.47A1.7,1.7,0,0,0,185.69,271.27ZM183,494.65c-.86.1-1.63,1-2.44,1.54,0,.32,0,.64,0,1,.81.55,1.65,1.54,2.42,1.5a2.91,2.91,0,0,0,2-1.89A1.69,1.69,0,0,0,183,494.65Zm2.71-233.16a2.93,2.93,0,0,0-1.84-2c-.78-.08-1.66.87-2.5,1.37,0,.32,0,.64,0,1,.78.58,1.51,1.52,2.36,1.67A1.69,1.69,0,0,0,185.69,261.49Zm403.06-7.92c.86-.1,1.64-1,2.46-1.51l0-1c-.81-.55-1.63-1.55-2.41-1.52a2.88,2.88,0,0,0-2,1.86A1.69,1.69,0,0,0,588.75,253.57Zm-.77,255c.77.05,1.62-.93,2.44-1.45,0-.33,0-.65,0-1-.81-.55-1.56-1.46-2.43-1.57a1.68,1.68,0,0,0-1.94,2.08A2.91,2.91,0,0,0,588,508.58Zm-405,5.95c-.86.07-1.65,1-2.48,1.47,0,.32,0,.65,0,1,.79.56,1.6,1.58,2.37,1.55a2.91,2.91,0,0,0,2-1.83A1.69,1.69,0,0,0,183,514.53Zm-1.68-262.4c.83.51,1.64,1.37,2.5,1.43a1.69,1.69,0,0,0,1.84-2.18,2.91,2.91,0,0,0-2-1.81c-.78,0-1.57,1-2.36,1.59Zm407.37-8.5c.86-.08,1.66-.95,2.48-1.47l0-1c-.8-.56-1.6-1.58-2.38-1.55a2.9,2.9,0,0,0-2,1.83A1.69,1.69,0,0,0,588.72,243.63Zm-403-1.93c-.11-.87-1-1.66-1.48-2.49l-.92,0c-.55.8-1.54,1.62-1.51,2.41a2.86,2.86,0,0,0,1.8,2A1.69,1.69,0,0,0,185.7,241.7Zm-3,286.79a1.78,1.78,0,0,0,2.26-1.81,1.84,1.84,0,0,0-1.91-2.22c-.84,0-1.63.82-2.45,1.27,0,.3-.07.6-.11.89C181.23,527.27,181.86,528.26,182.71,528.49Zm403.35-2a2.89,2.89,0,0,0,1.88,2c.78.07,1.64-.9,2.47-1.42,0-.32,0-.64,0-1-.79-.57-1.53-1.49-2.39-1.62A1.69,1.69,0,0,0,586.06,526.51Zm4.34,9.33c-.83-.51-1.64-1.38-2.5-1.44a1.7,1.7,0,0,0-1.84,2.19,2.91,2.91,0,0,0,2,1.8c.78,0,1.57-1,2.36-1.58Zm-408,8.11c-.53.82-1.49,1.67-1.45,2.46a2.87,2.87,0,0,0,1.86,2,1.67,1.67,0,0,0,2.06-2c-.14-.88-1-1.65-1.55-2.47Zm.52-59.23c-.86.11-1.62,1-2.43,1.56,0,.32,0,.65,0,1,.81.53,1.66,1.51,2.44,1.46a2.88,2.88,0,0,0,1.92-1.91A1.68,1.68,0,0,0,183,484.72Zm.07,69.56c-.86.07-1.65,1-2.48,1.46,0,.33,0,.65,0,1,.79.56,1.6,1.57,2.37,1.55a2.91,2.91,0,0,0,2-1.83A1.7,1.7,0,0,0,183,554.28Zm403,2.07a2.91,2.91,0,0,0,1.91,1.92c.78.05,1.63-.93,2.45-1.45v-1c-.8-.56-1.56-1.47-2.42-1.59A1.69,1.69,0,0,0,586.06,556.35Zm-403.14,7.86c-.86.13-1.6,1-2.4,1.62l0,1c.82.52,1.69,1.49,2.47,1.42a2.92,2.92,0,0,0,1.88-2A1.69,1.69,0,0,0,182.92,564.21Zm.13,13.93a2.9,2.9,0,0,0,1.85-2,1.69,1.69,0,0,0-2-2c-.85.14-1.58,1.08-2.36,1.66l0,1C181.39,577.27,182.27,578.22,183.05,578.14Zm403,8a2.88,2.88,0,0,0,1.86,2c.77.08,1.65-.87,2.48-1.37l0-1c-.79-.58-1.51-1.51-2.37-1.65A1.68,1.68,0,0,0,586.06,586.11Zm-401.15,10c-.16-.89-1-1.64-1.58-2.45h-.92c-.52.84-1.47,1.7-1.42,2.5a2.87,2.87,0,0,0,1.89,1.93A1.66,1.66,0,0,0,184.91,596.08Zm-2.38,7.47c-.55.8-1.55,1.61-1.54,2.41a2.87,2.87,0,0,0,1.78,2,1.67,1.67,0,0,0,2.14-1.87c-.11-.89-.95-1.69-1.46-2.53ZM586.06,606A2.91,2.91,0,0,0,588,608c.78,0,1.63-.93,2.45-1.46v-1c-.8-.56-1.55-1.47-2.41-1.58A1.69,1.69,0,0,0,586.06,606Zm2.74-382.29c.86-.11,1.62-1,2.42-1.58,0-.32,0-.64,0-1-.82-.53-1.67-1.5-2.44-1.44a2.91,2.91,0,0,0-1.92,1.91A1.68,1.68,0,0,0,588.8,223.75Zm-403.11-2.08a2.91,2.91,0,0,0-1.92-1.91c-.78,0-1.62.93-2.44,1.46v1c.8.55,1.56,1.45,2.42,1.56A1.68,1.68,0,0,0,185.69,221.67ZM586.06,546.44a2.89,2.89,0,0,0,1.93,1.89c.78,0,1.62-.94,2.43-1.47v-1c-.8-.55-1.57-1.46-2.43-1.56A1.69,1.69,0,0,0,586.06,546.44Zm.8-334.88a1.7,1.7,0,0,0,1.76,2.25c.87,0,1.71-.87,2.56-1.34l.06-1c-.76-.6-1.52-1.65-2.3-1.67A2.87,2.87,0,0,0,586.86,211.56Zm-402,414.36a1.7,1.7,0,0,0-2-2.09c-.86.12-1.61,1-2.42,1.58v1c.81.53,1.66,1.51,2.44,1.46A2.91,2.91,0,0,0,184.9,625.92ZM588,627.83c.77,0,1.62-.93,2.44-1.46,0-.32,0-.64,0-1-.81-.55-1.56-1.46-2.43-1.57a1.68,1.68,0,0,0-1.94,2.08A2.91,2.91,0,0,0,588,627.83Zm.81-324.58c.87-.11,1.62-1,2.43-1.57,0-.32,0-.64,0-1-.81-.53-1.66-1.51-2.43-1.46a2.92,2.92,0,0,0-1.93,1.91A1.69,1.69,0,0,0,588.79,303.25Zm-405.22,0a1.69,1.69,0,0,0,2.13-1.89c-.1-.88-.94-1.68-1.45-2.51l-.92,0c-.56.8-1.56,1.6-1.55,2.39A2.88,2.88,0,0,0,183.57,303.24ZM588.86,190a2.87,2.87,0,0,0-2,1.82,1.69,1.69,0,0,0,1.85,2.17c.87-.07,1.66-.94,2.49-1.46l0-1C590.44,191,589.64,189.93,588.86,190Zm-406,447.85a1.66,1.66,0,0,0,2.06-1.94c-.14-.89-1-1.66-1.55-2.48h-.92c-.53.82-1.49,1.67-1.45,2.46A2.85,2.85,0,0,0,182.85,637.8Zm407.56-2.53c-.82-.53-1.6-1.41-2.47-1.5a1.69,1.69,0,0,0-1.88,2.15,2.91,2.91,0,0,0,2,1.85c.77,0,1.59-1,2.39-1.54ZM185.69,191.86a2.89,2.89,0,0,0-1.91-1.91c-.78-.06-1.63.92-2.44,1.45,0,.32,0,.64,0,1,.8.56,1.55,1.47,2.41,1.58A1.68,1.68,0,0,0,185.69,191.86Zm-2.64,455.85a2.94,2.94,0,0,0,1.85-2,1.68,1.68,0,0,0-2-2c-.86.14-1.59,1.08-2.37,1.66l0,1C181.39,646.84,182.27,647.79,183.05,647.71Zm.23,5.53-.92,0c-.5.84-1.43,1.72-1.36,2.51a2.84,2.84,0,0,0,1.92,1.89,1.66,1.66,0,0,0,2-2C184.73,654.78,183.85,654,183.28,653.24Zm404.64,10.35a1.69,1.69,0,0,0-1.86,2.16,2.87,2.87,0,0,0,2,1.82c.78,0,1.58-1,2.37-1.55,0-.33,0-.65,0-1C589.58,664.53,588.78,663.66,587.92,663.59ZM185.7,182.11c-.1-.88-.94-1.68-1.45-2.52l-.92,0c-.56.8-1.56,1.61-1.55,2.4a2.84,2.84,0,0,0,1.79,2A1.68,1.68,0,0,0,185.7,182.11Zm403.07-8c.87-.1,1.63-1,2.45-1.54v-1c-.81-.55-1.64-1.54-2.42-1.5a2.88,2.88,0,0,0-1.94,1.89A1.68,1.68,0,0,0,588.77,174.07Zm-407.42-1.44c.83.51,1.64,1.37,2.5,1.44a1.7,1.7,0,0,0,1.84-2.19,2.91,2.91,0,0,0-2-1.81c-.78,0-1.57,1-2.36,1.59Zm407.48-8.5c.86-.13,1.6-1,2.4-1.61l0-1c-.83-.52-1.69-1.48-2.47-1.42a2.91,2.91,0,0,0-1.89,1.94A1.69,1.69,0,0,0,588.83,164.13Zm-.07,129.18c.87-.09,1.64-1,2.45-1.52,0-.32,0-.65,0-1-.81-.54-1.64-1.53-2.41-1.5a2.9,2.9,0,0,0-1.95,1.88A1.68,1.68,0,0,0,588.76,293.31ZM588,613.9a1.68,1.68,0,0,0-2,2,2.87,2.87,0,0,0,1.88,1.95c.78.07,1.64-.9,2.47-1.41,0-.32,0-.64,0-1C589.64,615,588.9,614,588,613.9ZM183.78,160.14c-.78-.06-1.63.92-2.44,1.45v1c.8.56,1.55,1.46,2.41,1.58a1.68,1.68,0,0,0,1.95-2.08A2.87,2.87,0,0,0,183.78,160.14Zm403.08-18a1.69,1.69,0,0,0,1.89,2.14c.86-.09,1.64-1,2.46-1.51v-1c-.8-.55-1.62-1.55-2.4-1.51A2.87,2.87,0,0,0,586.86,142.12Zm-401.17,0a2.9,2.9,0,0,0-1.94-1.89c-.78,0-1.61,1-2.42,1.49v1c.81.54,1.58,1.43,2.44,1.54A1.69,1.69,0,0,0,185.69,142.15Zm48-96.35c.52-.79,1.38-1.53,1.48-2.36a1.67,1.67,0,0,0-2.07-2,2.91,2.91,0,0,0-1.9,2c0,.77,1,1.6,1.55,2.4Zm8.92,0h1c.54-.81,1.53-1.65,1.49-2.43a2.89,2.89,0,0,0-1.89-1.92,1.67,1.67,0,0,0-2.09,1.92C241.2,44.24,242.08,45,242.62,45.81Zm49.8,0,.9,0c.52-.79,1.39-1.53,1.49-2.36a1.8,1.8,0,0,0-2.1-2c-1.34.08-2.2.94-1.93,2.21C291,44.42,291.85,45.1,292.42,45.83Zm19.79,0h.9c.55-.76,1.45-1.47,1.57-2.3a1.81,1.81,0,0,0-2-2.13c-1.35,0-2.23.87-2,2.15C310.79,44.36,311.66,45.06,312.21,45.82Zm9.89,0H323c.55-.82,1.56-1.66,1.52-2.45a2.9,2.9,0,0,0-1.94-1.91,1.69,1.69,0,0,0-2,2C320.71,44.32,321.57,45,322.1,45.81Zm147.1,0,.93.07c.59-.78,1.65-1.56,1.65-2.34a2.93,2.93,0,0,0-1.82-2,1.69,1.69,0,0,0-2.16,1.9C467.87,44.19,468.7,45,469.2,45.77Zm59.77,0,.89,0c.56-.76,1.45-1.45,1.6-2.28.24-1.26-.63-2.12-2-2.17a1.8,1.8,0,0,0-2.05,2.1C527.54,44.31,528.43,45,529,45.81Zm19.72,0,.94.07c.59-.78,1.65-1.56,1.65-2.34a3,3,0,0,0-1.82-2,1.69,1.69,0,0,0-2.16,1.9C547.37,44.19,548.2,45,548.69,45.77Zm38.17,56.55a1.7,1.7,0,0,0,1.83,2.19c.87-.06,1.67-.93,2.51-1.44l0-1c-.78-.57-1.57-1.6-2.35-1.58A2.87,2.87,0,0,0,586.86,102.32Zm-401.16,20a2.93,2.93,0,0,0-1.9-1.94c-.77-.06-1.63.9-2.46,1.42,0,.32,0,.64,0,1,.79.56,1.54,1.49,2.4,1.61A1.69,1.69,0,0,0,185.7,122.33ZM519.93,45.82c.56-.79,1.46-1.53,1.59-2.39a1.67,1.67,0,0,0-2-2,2.86,2.86,0,0,0-1.93,1.88c-.06.78.91,1.64,1.43,2.46ZM183.79,283.38a1.69,1.69,0,0,0,1.9-2.12,2.9,2.9,0,0,0-1.95-1.88c-.78,0-1.61,1-2.41,1.5v1C182.15,282.39,182.92,283.28,183.79,283.38Zm-.51,5.5c-.54.81-1.53,1.63-1.49,2.42a2.86,2.86,0,0,0,1.81,2,1.69,1.69,0,0,0,2.1-1.93c-.11-.88-1-1.66-1.49-2.49Zm-.37,166c-.86.13-1.6,1.06-2.39,1.64l0,1c.83.51,1.7,1.46,2.47,1.39a2.89,2.89,0,0,0,1.88-1.95A1.69,1.69,0,0,0,182.91,454.9ZM588.79,283.38c.86-.11,1.62-1,2.43-1.56v-1c-.82-.54-1.66-1.53-2.43-1.48a3,3,0,0,0-1.94,1.9A1.7,1.7,0,0,0,588.79,283.38Zm-.09-49.69c.86-.06,1.67-.93,2.5-1.44,0-.32,0-.65,0-1-.79-.57-1.59-1.59-2.37-1.58a2.9,2.9,0,0,0-2,1.8A1.69,1.69,0,0,0,588.7,233.69ZM183,613.9c-.86.09-1.64,1-2.45,1.53,0,.32,0,.64,0,1,.81.55,1.64,1.54,2.41,1.5a2.94,2.94,0,0,0,2-1.87A1.69,1.69,0,0,0,183,613.9ZM586.85,201.79a1.69,1.69,0,0,0,1.95,2.09c.86-.11,1.62-1,2.42-1.57,0-.32,0-.64,0-1-.81-.53-1.65-1.52-2.43-1.47A2.92,2.92,0,0,0,586.85,201.79Zm-403-1.9c-.77-.07-1.64.89-2.47,1.41,0,.32,0,.64,0,1,.79.57,1.53,1.49,2.39,1.62a1.69,1.69,0,0,0,2-2A2.91,2.91,0,0,0,183.81,199.89Zm-.89,334.51c-.86.12-1.6,1.05-2.39,1.62,0,.32,0,.64,0,1,.82.51,1.68,1.48,2.46,1.41a2.91,2.91,0,0,0,1.89-1.94A1.69,1.69,0,0,0,182.92,534.4Zm405.8-380.21c.86-.07,1.66-.95,2.48-1.46l0-1c-.79-.57-1.6-1.58-2.38-1.56a2.9,2.9,0,0,0-2,1.83A1.68,1.68,0,0,0,588.72,154.19Zm-407.38-1.48c.83.52,1.61,1.4,2.48,1.48a1.69,1.69,0,0,0,1.87-2.15,2.88,2.88,0,0,0-2-1.84c-.78,0-1.59,1-2.39,1.54C181.33,152.06,181.34,152.38,181.34,152.71ZM586.06,576.2a2.89,2.89,0,0,0,1.89,1.94c.77.07,1.63-.9,2.46-1.41,0-.32,0-.64,0-1-.79-.56-1.53-1.48-2.39-1.61A1.69,1.69,0,0,0,586.06,576.2Zm-403,7.89c-.87.08-1.66,1-2.48,1.48l0,1c.8.55,1.61,1.56,2.39,1.54a2.91,2.91,0,0,0,2-1.84A1.69,1.69,0,0,0,183,584.09Zm403-67.44a2.92,2.92,0,0,0,2,1.87c.78,0,1.6-1,2.4-1.51,0-.32,0-.64,0-1-.81-.53-1.59-1.42-2.45-1.51A1.69,1.69,0,0,0,586.06,516.65ZM183.85,134.32a1.69,1.69,0,0,0,1.84-2.19,2.91,2.91,0,0,0-2-1.8c-.78,0-1.57,1-2.36,1.58,0,.32,0,.65,0,1C182.18,133.39,183,134.25,183.85,134.32Zm404.86-9.94c.87-.07,1.66-.94,2.49-1.46l0-1c-.79-.57-1.59-1.59-2.37-1.57a2.87,2.87,0,0,0-2,1.82A1.69,1.69,0,0,0,588.71,124.38ZM183,504.59c-.86.07-1.66.94-2.49,1.46l0,1c.79.56,1.59,1.58,2.37,1.56a2.93,2.93,0,0,0,2-1.82A1.7,1.7,0,0,0,183,504.59ZM586.85,261.42a1.69,1.69,0,0,0,1.95,2.08c.86-.11,1.62-1,2.42-1.57,0-.32,0-.64,0-1-.81-.53-1.66-1.51-2.44-1.46A2.91,2.91,0,0,0,586.85,261.42Zm-345.14,441c-.5.83-1.35,1.64-1.41,2.51a1.68,1.68,0,0,0,2.17,1.83,2.9,2.9,0,0,0,1.81-2c0-.78-1-1.57-1.61-2.35Zm10.46.38a1.65,1.65,0,0,0-1.92,2.07,2.87,2.87,0,0,0,2,1.85c.79,0,1.62-1,2.44-1.49,0-.3,0-.61,0-.91C253.82,703.79,253.05,702.94,252.17,702.8ZM590.4,496.08c-.83-.5-1.64-1.36-2.51-1.42a1.69,1.69,0,0,0-1.83,2.19,2.91,2.91,0,0,0,2,1.79c.77,0,1.56-1,2.35-1.59C590.42,496.73,590.41,496.4,590.4,496.08ZM185.69,231.69a2.89,2.89,0,0,0-1.84-2c-.77-.09-1.66.86-2.49,1.35,0,.32,0,.64-.05,1,.78.59,1.5,1.53,2.36,1.68A1.68,1.68,0,0,0,185.69,231.69ZM281.5,702.42c-.51.82-1.37,1.61-1.46,2.47a1.69,1.69,0,0,0,2.15,1.87,2.88,2.88,0,0,0,1.83-2c0-.79-1-1.59-1.56-2.38ZM588,647.71c.78,0,1.63-.93,2.45-1.46,0-.32,0-.64,0-1-.81-.56-1.56-1.46-2.42-1.58a1.69,1.69,0,0,0-2,2.08A2.91,2.91,0,0,0,588,647.71Zm0,9.93c.77.05,1.62-.92,2.44-1.44l0-1c-.8-.55-1.55-1.46-2.41-1.58a1.69,1.69,0,0,0-2,2.07A2.91,2.91,0,0,0,588,657.64ZM322.46,702.45l-.94-.08c-.6.78-1.67,1.55-1.67,2.33a2.92,2.92,0,0,0,1.8,2.06,1.69,1.69,0,0,0,2.17-1.88C323.76,704,322.94,703.26,322.46,702.45ZM184.9,665.66a1.69,1.69,0,0,0-2-2.08c-.86.12-1.62,1-2.42,1.58,0,.32,0,.64,0,1,.82.52,1.66,1.5,2.44,1.45A2.92,2.92,0,0,0,184.9,665.66ZM588,594a1.7,1.7,0,0,0-1.92,2.12A2.91,2.91,0,0,0,588,598c.78,0,1.61-.95,2.42-1.49v-1C589.61,595,588.84,594.12,588,594ZM469.43,702.39l-.94,0c-.52.84-1.49,1.73-1.42,2.51a2.86,2.86,0,0,0,2,1.83,1.68,1.68,0,0,0,2-2.1C470.88,703.82,470,703.14,469.43,702.39Zm10,0h-.94c-.54.83-1.54,1.68-1.49,2.47a2.92,2.92,0,0,0,2,1.89,1.69,1.69,0,0,0,2-2.06C480.85,703.87,480,703.16,479.43,702.4Zm111.77-521c-.83-.51-1.71-1.46-2.48-1.39a2.93,2.93,0,0,0-1.87,2,1.7,1.7,0,0,0,2,2c.86-.14,1.58-1.07,2.37-1.65ZM588,564.21a1.69,1.69,0,0,0-2,2.07,2.91,2.91,0,0,0,1.9,1.93c.78.06,1.63-.91,2.45-1.44,0-.32,0-.64,0-1C589.63,565.25,588.88,564.33,588,564.21Zm-2-77.48a2.88,2.88,0,0,0,1.85,2c.78.08,1.66-.87,2.49-1.37,0-.33,0-.65,0-1-.79-.58-1.51-1.51-2.37-1.66A1.69,1.69,0,0,0,586.06,486.73ZM518.64,702.86a2.85,2.85,0,0,0-1.93,1.89,1.66,1.66,0,0,0,2,2c.88-.16,1.63-1,2.44-1.58l0-.93C520.28,703.75,519.42,702.8,518.64,702.86Zm-334.81-489a1.7,1.7,0,0,0,1.86-2.17,2.9,2.9,0,0,0-2-1.82c-.78,0-1.58,1-2.37,1.55l0,1C182.17,212.87,183,213.74,183.83,213.82ZM549,702.4h-.95c-.55.82-1.55,1.67-1.51,2.45s1.16,1.74,2,1.91a1.69,1.69,0,0,0,2-2C550.41,703.89,549.55,703.17,549,702.4ZM367.82,115.66l-.34-.23L365.27,117c1,1.66,1.43,1.95,4.05,1.95,11,0,22,0,32.95-.09a4.6,4.6,0,0,0,1.94-.29,2.18,2.18,0,0,0,1.16-1.37,2.41,2.41,0,0,0-.92-1.55,4.76,4.76,0,0,0-1.54-.59c-1.81-4.45-3.64-8.92-5.43-13.39a2.12,2.12,0,0,1-.18-1.34c1.52-4.5,3.09-9,4.55-13.19a14.55,14.55,0,0,0,3.09-.91c.36-.21.61-1.52.41-1.67a4.76,4.76,0,0,0-2.5-1.12q-14.31-.08-28.6.06a46,46,0,0,0-6.53.49c-.66.1-1.21,1-1.81,1.45A9.08,9.08,0,0,0,367.47,87a5.09,5.09,0,0,0,1.69.36c1.49,4,3,8,4.37,12a3,3,0,0,1-.14,1.9C371.57,106.06,369.68,110.86,367.82,115.66Zm30.09-.52h-6.05l2.8-7.79C395.84,110.19,396.84,112.58,397.91,115.14Zm.8-27.87L394.9,96.2l-4.39-8.93Zm-16.53.1h5c1.72,4.59,3.45,9.15,5.13,13.73a2,2,0,0,1,0,1.35c-1.68,4.23-3.41,8.43-5.15,12.7h-2.58c-1.56-3.39-3.07-7-4.83-10.41a9.19,9.19,0,0,1-.3-8.8C380.69,93.29,381.27,90.31,382.18,87.37Zm-9.92,0h6.57c-.94,2.45-1.87,4.84-2.8,7.24h-.55C374.45,92.32,373.41,90,372.26,87.4Zm3.71,18,4.36,9.86H371.8Z"/></svg>