<svg xmlns="http://www.w3.org/2000/svg" viewBox="0 0 750 750"><path d="M606.18,51.28c0-1.19,0-2.38,0-3.58-.12-13.27-9.63-22.7-22.91-22.7H187.34c-13.25,0-22.75,9.52-22.75,22.82V375q0,163.78,0,327.56a23.59,23.59,0,0,0,.6,5.5c2.62,10.62,11.25,17,22.93,17H583.68c8.12-.18,14.55-3.48,19.05-10.33,2.8-4.27,3.47-9,3.46-14Q606.17,376,606.18,51.28ZM601.9,701.63c0,11.55-7.47,19.09-18.94,19.09H187.6c-9.35,0-16.5-5.46-18.37-14.12a22.59,22.59,0,0,1-.34-4.73q0-163.5,0-327V47.51c0-8.93,5.46-15.94,14-17.85a18.44,18.44,0,0,1,4.14-.37H583.91a17.67,17.67,0,0,1,18,17.8c0,1.52,0,3.05,0,4.57ZM422,518c1.9.23,2.76-1.4,1.53-2.84a10.35,10.35,0,0,0-4.13-2.78,60.67,60.67,0,0,0-7-1.76c-.22-2.21-.43-4.28-.65-6.55a8.09,8.09,0,0,0,1.84.45,53.55,53.55,0,0,0,6.6-.52c.72-.12,1.78-1.19,1.77-1.79a2.89,2.89,0,0,0-1.56-2.2,31.46,31.46,0,0,0-6-.85,20.48,20.48,0,0,0-3.39.3c-1.63-6.92-3.22-13.64-4.86-20.57.53.6,1,1.07,1.38,1.56a14.75,14.75,0,0,0,8.51,5.14c2.14.42,3.58-.55,3.35-2.67a10.85,10.85,0,0,0-1.72-5.15,101.24,101.24,0,0,0-7.2-8.18,5.4,5.4,0,0,0-1.76-.82l.7-.91c1,0,2.08.06,3.11,0a8.47,8.47,0,0,0,6.18-2.76,4.15,4.15,0,0,0,1.14-4.38,3.64,3.64,0,0,0-3.62-2.34,61.66,61.66,0,0,0-8.49.4c-2.73.36-5.41,1.17-8.07,1.77-2.22-4.34-4.4-8.58-6.65-13,1.15-.14,2.2-.21,3.24-.41,3.24-.61,6.53-1.05,9.69-2,3.65-1.05,4.15-2.68,2.61-6.1-1-2.28-1.87-4.64-2.72-6.78,4-5.45,2.28-16.53-2.88-20.24-1.36-5.61-4-10.32-9.11-13.21a5.55,5.55,0,0,1-2.9-5.22q-.12-5.07.15-10.13c.19-3.64,1.5-6.84,5-8.47,4.31-2,4.25-8.61-.06-10.53a8.14,8.14,0,0,1-4.76-7.31,99.33,99.33,0,0,1-.22-11.7c.06-1.41.84-3.37,1.93-4a21.1,21.1,0,0,0,10-13.91c5.18-3.74,6.88-14.75,3-20.11a22.42,22.42,0,0,1,.61-2.22c.65-1.67,1.33-3.32,2.06-4.95,1.41-3.13.89-4.8-2.39-5.75a67.58,67.58,0,0,0-9.88-2c-3.65-.48-7.36-.6-11.05-.88a7.7,7.7,0,0,1-.29-1c-.07-.46-.09-.93-.12-1.39a24.07,24.07,0,0,1,4.53-16.07,15.32,15.32,0,0,1,13.32-6.88,7.5,7.5,0,0,1,6.85,4,5.21,5.21,0,0,1,.13,5.52,2.41,2.41,0,0,1-.35-1.08c-.19-1.62-.79-2.84-2.7-2.75a3.13,3.13,0,0,0-3,3.29c.11,1.86.71,3.63,2.53,4.43a4.07,4.07,0,0,0,4.88-1.21,9.12,9.12,0,0,0,1.93-4c1-5.14-4.08-10.19-8.84-10.53s-9.07.6-12.81,3.73c-4.85,4-7.94,9-8.52,15.39-.24,2.73-.32,5.48-.47,8.22l-.61.25c-1.24-2.56-2.93-5-3.64-7.69-4-15.28-.83-29.08,9-41.42.74-.92,1.42-1.9,2.13-2.85a46.23,46.23,0,0,0,4,2.81c3.55,2,7.2,3.74,11.48,2.88,2.64-.53,4.4-2.08,4.73-4.19.31-1.89-1.13-4.34-3.32-5.43a17.1,17.1,0,0,0-2.83-.85l-1.7-.45c1.29-.86,2.3-1.47,3.23-2.19,2.23-1.73,2.92-3.56,2.05-5.24s-3-2.26-5.63-1.36c-.85.29-1.7.62-2.64,1a6.38,6.38,0,0,1-.22-.92c-.08-1.53,0-3.2-1.77-3.88a4.17,4.17,0,0,0-4.89,1.28,16.68,16.68,0,0,0-3.29,6c-.75,3.09-.73,6.37-1.1,10.2-10.21,9.32-14.25,21.85-14,36.17a8,8,0,0,1-1.05-2.11c-3.32-9.08-3.45-18.57-3.44-28.06A62.61,62.61,0,0,1,376.18,216c2.22-4.26,4.62-8.53,9.24-10.82.33-.17.54-.58.81-.86l3.38-3.56c3.79,1,4.33.68,6.31-3L399,197c2.94,4,4.85,4,8.43.38,3.76.52,6.25,2.93,5.87,5.88a17.85,17.85,0,0,0-1.86,5.19,2.62,2.62,0,0,0,2.2,3.09,6.46,6.46,0,0,0,3.62-1.39,3.59,3.59,0,0,0,1.06-2.27,9.45,9.45,0,0,0-1.85-7.68c-2.24-2.82-4.88-5-8.35-5.69-2.68-4.46-5.4-4.51-9.18-.35l-3.68.93c-3.54-2.24-5.55-1.27-6.89,3.73-1.42.55-3.24,1.17-5,2a5,5,0,0,0-1.83,1.64c-.95,1.37-1.7,2.88-2.64,4.26-1.34,2-3,3.75-4.16,5.8a68.08,68.08,0,0,0-8.84,37.4c.09,2.34,0,4.69,0,7-3.59-12.14-5.12-24.6-6.05-37.21.86-.63,1.62-1.15,2.34-1.73a63.07,63.07,0,0,0,5.32-4.43c.95-.94,2.34-2.25,1.13-3.78s-2.69-.67-4-.14a10.08,10.08,0,0,0-2.23,1.28c-.88.66-1.66,1.44-2.73,2.4V206c2.3-1.33,4.59-2.53,6.74-3.94A16.73,16.73,0,0,0,370,198.9a2.46,2.46,0,0,0,.26-2.32,2.63,2.63,0,0,0-2.27-1,38.73,38.73,0,0,0-6.14,3c-.58.34-.78,1.33-1.16,2l-1-.71.6-6.94a29.84,29.84,0,0,0,3.09-1.36c2.71-1.63,5.45-3.23,8-5.06a3,3,0,0,0,1.09-4c-4.07-.22-7.59,1.4-11.15,3.72.47-2.09.94-4.17,1.33-5.92,3.45-1.66,6.53-3.05,9.5-4.64a11.05,11.05,0,0,0,3.14-2.64,2.28,2.28,0,0,0,.07-2.17,2.52,2.52,0,0,0-2-.78,6,6,0,0,0-2.59.91c-2.24,1.36-4.42,2.82-7,4.49,1.47-4.08,2.67-7.7,5.87-10.53,2.42-2.14,4.21-5,6.12-7.71a2.54,2.54,0,0,0-.34-3.61c-1.2-1-2.39-.39-3.45.39a10.59,10.59,0,0,0-1.74,1.61,23,23,0,0,0-4.63,9.13,81.74,81.74,0,0,1-3.13,8c-1.87-3.4-2.54-7.15-7.08-7.93-2.11,6.57,1.86,11.14,4.82,16.35-.39,1.83-.86,3.94-1.41,6.48-4.85-8.3-5.67-9.27-8-9.63-2.12,3.34,1.36,11,7.06,15.34-.21,2-.43,4.14-.71,6.82a13.71,13.71,0,0,0-1.5-2.34,42.08,42.08,0,0,0-5-4.33,2.89,2.89,0,0,0-2.8.25,3,3,0,0,0,.16,2.83c2.54,3.68,5,7.51,9,9.82v6.71c-6.93-3.91-7.43-4.09-10.16-3.3.32,1.09.37,2.41,1,3.23a14,14,0,0,0,3.43,2.62c2,1.23,4,2.34,6,3.52.21,2.34.4,4.51.63,7.13a13.14,13.14,0,0,0-2.24-1.53,49.53,49.53,0,0,0-6.32-2,2.58,2.58,0,0,0-2.28,1,2.62,2.62,0,0,0,.6,2.44,13.88,13.88,0,0,0,4.22,2.38c2.1.72,4.33,1.07,6.58,1.6.23,2.25.43,4.31.66,6.58a7.45,7.45,0,0,0-1.84-.46,52,52,0,0,0-6.61.5c-.71.12-1.78,1.17-1.77,1.78a3,3,0,0,0,1.54,2.21,12.8,12.8,0,0,0,4.39.92,39.89,39.89,0,0,0,5-.36c1.63,6.92,3.21,13.68,4.86,20.71l-1.14-1.39a14.8,14.8,0,0,0-8.37-5.37c-2.65-.58-4.12.51-3.74,3.19a10.21,10.21,0,0,0,1.82,4.73c2.22,2.87,4.77,5.47,7.25,8.14a5.14,5.14,0,0,0,1.55.79l-.56.73c-.7,0-1.4,0-2.1,0-2.81,0-5.41.65-7.33,2.91-1,1.2-1.71,2.54-1.12,4.19a3.59,3.59,0,0,0,3.56,2.42,61.5,61.5,0,0,0,8.48-.36c2.79-.36,5.53-1.17,8.21-1.76l5.94,11.8c-1.09.15-2.12.25-3.14.45-3.37.63-6.79,1.09-10.08,2s-3.91,2.62-2.48,5.87c1,2.35,1.91,4.76,2.79,7-4.09,5.3-2.31,16.45,2.93,20.25,1.3,5.43,3.79,10.1,8.76,12.93a6,6,0,0,1,3.19,5.68c0,3.05,0,6.1-.1,9.14-.09,4.11-1.49,7.5-5.35,9.52a5.17,5.17,0,0,0-2.87,5.21,5.09,5.09,0,0,0,2.8,4.66c2.38,1.37,4.58,3.12,4.82,6,.4,4.85.44,9.75.39,14.63a4,4,0,0,1-1.72,2.88,20.5,20.5,0,0,0-9.93,13.89c-5.21,3.62-6.89,14.49-3.09,20.1a21.86,21.86,0,0,1-.61,2.23c-.62,1.61-1.26,3.21-2,4.77-1.51,3.32-.92,4.8,2.54,6a12.7,12.7,0,0,0,2.86.8c5.45.62,10.9,1.17,16.36,1.74.7.07,1.41.09,2,.13,1.25,6,1.05,12.74-3.84,19.6a15.43,15.43,0,0,1-13.46,7,7.46,7.46,0,0,1-6.82-4.06,5.17,5.17,0,0,1,0-5.52,3.69,3.69,0,0,1,.31,1.28c.19,1.44.74,2.55,2.44,2.58a3,3,0,0,0,3.22-2.63,4.94,4.94,0,0,0-2.11-4.86,3.6,3.6,0,0,0-4.6.54,8.24,8.24,0,0,0-2.48,4.07,9,9,0,0,0,5.19,9.78c5.29,2.38,10.48,1.47,15.09-1.67,7.29-5,10.27-12.21,10.13-20.88,0-1.28,0-2.56,0-4.05A19.6,19.6,0,0,1,393,458c3.35,14.53.33,27.7-8.63,39.55-.94,1.25-2,2.39-2.53,3-4.13-1.85-7.45-3.66-11-4.79a11.1,11.1,0,0,0-6,.21c-3.69,1-4.71,4.91-2,7.62,1.1,1.11,2.77,1.66,4.22,2.37a9.3,9.3,0,0,0,2.15.43c-1.48,1.08-2.77,1.88-3.88,2.87-1.82,1.61-2.2,3.22-1.35,4.72s2.66,2.13,4.92,1.5c1.12-.32,2.21-.77,3.47-1.21.05.85.06,1.5.14,2.14.25,2.22,1.51,3.34,3.65,2.8a6.9,6.9,0,0,0,3.66-2.12,14.13,14.13,0,0,0,2.64-5.44,94.83,94.83,0,0,0,1-10c10.23-9.33,14.26-21.84,14.05-36.1a8.09,8.09,0,0,1,1,2.06c3.16,8.62,3.35,17.63,3.47,26.66a66.22,66.22,0,0,1-6.29,28.48A36.8,36.8,0,0,1,387,535a25.77,25.77,0,0,1-3.94,2.38,10.92,10.92,0,0,0-1.82,1.43c-1.08,1-2.09,2.15-3,3.07-3.68-1.48-4.34-1-6.72,2.1l-2.68.21c-2.41-4-4.61-3.84-8.11-1.47-1.84-1.21-3.78-2.36-3.65-5.13.43-.51.88-1,1.28-1.51,1.29-1.71,1.6-4.19.35-5.53a4.32,4.32,0,0,0-3-1.29c-1.85.11-3.21,2.08-3.37,4.36-.2,2.82.34,5.46,2.41,7.52,1.67,1.67,3.48,3.2,5.7,5.23,1.72,3.76,4.54,4.25,8,.74.44-.08,1-.19,1.48-.25.79-.09,1.58-.15,2.29-.22,2.74,1.58,4.36,1.32,5.76-.55.8-1,1.82-2.46,2.92-2.65,3.16-.54,5.44-1.86,6.55-4.94,8.42-7.13,12.56-16.69,15.36-27,2.25-8.31,2.21-16.77,1.88-25.27,0-.7,0-1.41,0-2.12,3.72,12.14,5.34,24.5,6.2,37-.79.59-1.48,1.09-2.16,1.61a51.91,51.91,0,0,0-5.11,4.08c-1.07,1.08-2.83,2.5-1.51,4.23s3.22.66,4.69-.15a43.11,43.11,0,0,0,4.28-3.11v7.12c-2.14,1.24-4.3,2.39-6.35,3.72A17.35,17.35,0,0,0,401,541.7a2.78,2.78,0,0,0-.31,2.63,2.71,2.71,0,0,0,2.51.87,38.78,38.78,0,0,0,6-3.2c.52-.33.66-1.26,1-1.91l1,.74-.63,7a46.15,46.15,0,0,0-5,2.33,50.49,50.49,0,0,0-6.45,4.54c-.77.65-.91,2-1.5,3.52,4.91.35,8.36-1.35,11.92-3.67-.47,2.07-.93,4.13-1.33,5.93-3.37,1.64-6.44,3-9.42,4.61a9.84,9.84,0,0,0-3.07,2.43,2.81,2.81,0,0,0-.17,2.51c.27.5,1.47.75,2.22.68a6.31,6.31,0,0,0,2.55-1c2.2-1.36,4.35-2.81,6.53-4.24a20.77,20.77,0,0,1-5.69,10.4,55.88,55.88,0,0,0-6.19,8.15,3.28,3.28,0,0,0,.58,3.11c.51.49,2.12.23,3-.18a8.1,8.1,0,0,0,2.47-2.25,22.36,22.36,0,0,0,4.23-8.67,82.26,82.26,0,0,1,3.14-8c1.82,3.41,2.47,7.23,7,8,2.31-6.54-1.8-11-4.67-16.41.36-1.65.83-3.77,1.29-5.89l.51,0c1.54,3.92,3.57,7.41,7.47,9.45,2.14-3.85-1.39-11.53-6.91-15.62.2-2,.42-4.09.64-6.18.82.57,1.1,1.28,1.61,1.75a44.86,44.86,0,0,0,5.07,4.3,2.76,2.76,0,0,0,2.66-.2,2.85,2.85,0,0,0,0-2.67c-2.49-3.81-5.08-7.57-9.13-10.16v-6.82c3,2.41,5.9,4.21,9.52,3.85a3,3,0,0,0-.72-4,20.89,20.89,0,0,0-3.41-2.36c-1.9-1.17-3.85-2.28-5.73-3.38-.18-2.36-.35-4.46-.56-7.06a13.11,13.11,0,0,0,2.45,1.64A33.65,33.65,0,0,0,422,518Zm-5.17-3.8,4.87,1.17c-.08.33-.16.66-.23,1l-4.83-1.2C416.72,514.86,416.79,514.54,416.85,514.22ZM406.73,240.94a10.54,10.54,0,0,1-2.58,1.46c-3.23.74-7.8-1-10.44-3.87C398.38,236.21,404.73,237.21,406.73,240.94Zm-2.18-12.88c-.16,2.22-5.63,5.94-10.06,6.73C396.33,230.19,401.28,226.94,404.55,228.06Zm-8.52-4c-.53,4.61-3.48,7.88-5.7,11.51C389.76,230,392.49,224.44,396,224.08Zm-29.31-13,.45.58-6.36,4.9A7.69,7.69,0,0,1,366.72,211.06Zm1.51-13.77.43.6-6.72,4.19A8.64,8.64,0,0,1,368.23,197.29Zm1.62-12.48c-1.9,2.3-4.53,3.37-7.34,4.13A10.27,10.27,0,0,1,369.85,184.81ZM373,172c.13.24.25.48.38.71l-4.64,2.42-.31-.57ZM373,156.08l.57.43-3.42,4.57-.48-.37Zm-13.59,18.39-3.11-6.54,1.1-.51,2.8,6.7ZM356,187.8l-4.72-7.18.78-.51c2.39,1.88,3.55,4.53,4.52,7.32Zm-2.21,11.28-4.06-4.15.19-.21c1.36,1.37,2.73,2.74,4.09,4.12Zm.65,15.21-5.76-2.57.56-1.06,5.59,2.85ZM354,226.61,349,225.36c.1-.35.2-.71.29-1.06l5,1.43Zm48.24,196.57,1.45-1.63,2.19,6.08c-.2.6-.6,1.72-1,2.88-4.06-2-5.78-11.53-2.83-15.87l-.63,8.31Zm1.45-105-1.43-2c-1.2,1.58-.79,3.09-.67,4.51s.42,2.83.64,4.24c-3.16-3.11-1.5-13.42,2.55-15.91l1.11,2.88Zm3.67-20.67c-2.47,2.47-13.22,4.85-16,3.73s-4.74-3.64-5.51-7.22C393.2,294.45,400.45,294.35,407.39,297.52Zm-44.58.35c4.91-3,10.44-3,15.1-3.52l8.09,7.92C378.17,301.86,370.22,301.68,362.81,297.87Zm5.37,18.74-.62-.17-1.25,1.88q-.94-2.81-1.91-5.63l-.48,0c.39-1.17.79-2.34,1.2-3.57,4.09,2.11,5.87,12.72,2.77,16.21C367.8,322.25,369.3,319.4,368.18,316.61Zm.82,11.23c4.53-3.9,2.62-17.63-2.83-20.36-.23-1-.47-2-.78-3.27a66.32,66.32,0,0,0,39.2,0c-.27,1.18-.5,2.2-.75,3.33-2.35.68-3.15,2.74-3.94,4.79a22.49,22.49,0,0,0-1,11.91c.21,1.31,1.12,2.51,1.92,4.18-2.2,7.73-9.69,9.63-15.66,9.95C377.8,338.76,371.86,334.73,369,327.84Zm20.4,15.4c-.23,4-.47,8.33-.72,12.65a7.39,7.39,0,0,1-7.37.05c-.23-4.24-.47-8.57-.69-12.7Zm-14.85,23.61c3.14-1.94,5.7-4.52,6.26-8.18h8.06a32,32,0,0,0,2.66,4.83,29.18,29.18,0,0,0,3.94,3.56c-.17,3.1-4.74,6.07-9.28,6C379.12,373,374.73,370.72,374.55,366.85ZM389.17,381l-8.39-.39-.86-2.41H390C389.71,379.27,389.4,380.26,389.17,381Zm.18,15.35h-8.71c.21-4,.43-8.27.66-12.76a8.35,8.35,0,0,1,7.39,0C388.92,388,389.14,392.22,389.35,396.37Zm-4.82,4.88c7.18-.67,13.72,3.73,16.47,10.49-4.4,4.35-2.62,17.82,2.81,20.37.27,1.11.52,2.13.86,3.5a59,59,0,0,0-19.56-3.14,58,58,0,0,0-19.72,3.16c.29-1.29.52-2.36.74-3.38,3.79-1.78,4.42-5.37,5-8.78a31.64,31.64,0,0,0,0-7.9c-.13-1.31-1.06-2.54-1.86-4.34C370.89,404.63,377,402,384.53,401.25ZM366.31,421.3l1.47,2.26c1.67-3.27-.06-6.12.15-9,3.1,2.74,1.31,13.78-2.76,16l-1.05-2.82Zm-3.54,20.88-.08-.68c1.51-.58,3-1.28,4.52-1.71,3.82-1.08,7.64-2.13,11.61-.49a10,10,0,0,1,5.88,6.39C377.05,445.24,369.62,445.42,362.77,442.18Zm28.63,3.2-8.74-8c8.65.34,16.88.6,24.59,4.38C402.23,444.78,396.7,444.93,391.4,445.38Zm-27.31,54.48a10.1,10.1,0,0,1,2.43-1.42c3.15-.83,8.13,1,10.6,3.9C371.89,504.54,365.94,503.55,364.09,499.86Zm1.64,12.53c2.59-3.73,6.77-4.7,10.59-6.83C375,510.37,369,514.29,365.73,512.39Zm9.11,4.29c.4-4.7,3.53-7.91,5.67-12C381.36,509.92,378.38,516.25,374.84,516.68Zm28.77,13.06c1.58-2.6,4-3.71,6.37-5.22A7.8,7.8,0,0,1,403.61,529.74Zm-1,13.94-.52-.78,6.27-3.9.35.53A12.16,12.16,0,0,1,402.65,543.68Zm-1.4,12.53-.5-.83,7.4-4.07.4.71A13.61,13.61,0,0,1,401.25,556.21Zm-3.47,12.55-.42-.72,4.54-2.38.31.55Zm.23,15.82-.66-.42,3.15-4.37.51.35Zm13.46-18.18,3,6.54-1.1.46-2.73-6.65Zm3.37-13.32,4.71,7.18-.76.49c-2.41-1.86-3.59-4.5-4.57-7.27Zm6.48-7.74-.41.43a7.07,7.07,0,0,1-3.76-4.47Zm-5.22-18.88c1.94,1,4.34,1.13,5.87,2.92l-.39.76-5.86-2.95Zm73.38-134.35c-.32-.09-.65-.15-1-.22A81.85,81.85,0,0,0,465,390.41a107.35,107.35,0,0,0-15.45,2.36c-3.8.85-4.26,2.64-2.65,6.22,1,2.27,1.84,4.63,2.67,6.74-4.14,5.25-2.32,16.25,3,20.28,1.24,5.48,3.86,10.07,8.78,12.93a5.92,5.92,0,0,1,3.1,5.72c0,3,0,6-.08,8.95-.09,4.17-1.5,7.62-5.43,9.68a5.13,5.13,0,0,0-2.83,5c0,2.5,1.3,3.94,3.24,5a8.42,8.42,0,0,1,4.72,6.94,123,123,0,0,1,.18,12.88,4.76,4.76,0,0,1-1.89,3.42,20.33,20.33,0,0,0-9.8,13.77c-5.29,3.79-7.06,15-3.13,20.06a15.77,15.77,0,0,1-.49,1.84c-.71,1.85-1.43,3.7-2.22,5.52-1.33,3-.75,4.5,2.37,5.67a20.64,20.64,0,0,0,2.85.84,91.13,91.13,0,0,0,27.66,1.39,73.79,73.79,0,0,0,12.06-2.23c3.43-.91,3.91-2.63,2.46-5.86-1.06-2.33-1.94-4.74-2.83-6.93,4-5.33,2.33-16.36-2.87-20.31-1.53-6.07-4.19-10.19-9-13a5.81,5.81,0,0,1-3-5.35c-.07-3.25-.06-6.5.09-9.74.19-3.76,1.43-7.12,5.07-8.84,4.26-2,4.25-8.61-.1-10.53a8.23,8.23,0,0,1-4.75-7.33,101.71,101.71,0,0,1-.22-11.71,5.63,5.63,0,0,1,2-4,21.28,21.28,0,0,0,10-13.95c5.14-3.67,6.81-14.53,2.93-20.25a46.38,46.38,0,0,1,2-5.39C495.72,395.7,496.2,394,489.48,392.11ZM453.32,414.5l-1.58,2.22c-.63-1.86-1.31-3.83-2-5.8l-.47,0c.44-1.15.89-2.3,1.36-3.52,4,2.52,5.68,12.6,2.72,16.26C453.16,420.6,454.84,417.76,453.32,414.5Zm-1.55,105,1.45,2.4c1.67-3.31,0-6.16.12-9,3.1,2.27,1.39,13.54-2.71,16l-1.13-2.8Zm41.09,20.88a17.79,17.79,0,0,1-3.31,1.37c-3.77.69-7.54,1.39-11.34,1.78A82.6,82.6,0,0,1,453,542.22a50.58,50.58,0,0,1-5.26-1.73C456.45,534.35,485.5,534.61,492.86,540.41Zm-5.37-18.76a11.85,11.85,0,0,0,1-.89,6.48,6.48,0,0,0,.57-.9l2.25,6.09c-.2.6-.58,1.73-1,2.9-4.07-2-5.77-11.49-3-15.94C487.71,515.73,486.14,518.59,487.49,521.65ZM486.43,510c-4.42,4.58-2.65,17.58,2.83,20.49.23,1,.46,2,.77,3.38a60.15,60.15,0,0,0-19.63-3A58.41,58.41,0,0,0,450.84,534c.27-1.31.48-2.32.72-3.45,3.25-1.14,4.12-4.15,4.6-7a46.39,46.39,0,0,0,.33-9.65c-.05-1.29-1-2.54-1.82-4.28,1.86-7.07,8.45-9.39,15.42-9.89C477.49,499.13,483.61,503.24,486.43,510ZM474.6,479.38l-8.41-.4c-.18-.51-.5-1.45-.84-2.47h10.13C475.14,477.62,474.83,478.61,474.6,479.38Zm.22,15.37H466c.22-4,.45-8.28.7-12.76a8.46,8.46,0,0,1,7.38-.08C474.35,486.36,474.59,490.68,474.82,494.75Zm6.12-29.49c-.38,3.32-4.76,6.16-9.2,6.17-6.91,0-11.37-2.24-11.81-6.14,3.06-2,5.76-4.52,6.25-8.29l8.5.38C475.3,460.71,477.84,463.3,480.94,465.26Zm-14.89-23.62h8.75q-.32,6-.69,12.75a8.68,8.68,0,0,1-7.39.06C466.49,450.09,466.27,445.78,466.05,441.64Zm4.59-4.9a16.25,16.25,0,0,1-16.14-10.39c4.29-5.21,2.55-17.73-2.91-20.55l-.81-3.34a63.44,63.44,0,0,0,39.23,0c-.25,1.12-.48,2.18-.73,3.29-3.69,1.72-4.35,5.32-4.9,8.72a30.78,30.78,0,0,0,0,8.08c.13,1.3,1.11,2.51,1.91,4.18C484.29,434.23,476.66,436.39,470.64,436.74Zm20.71-26.44c-.85,2.37-1.52,4.21-2.2,6.07l-1.66-1.84c-1.22,3.24.07,6,.15,9.3-3.09-3.95-1.42-14.06,2.62-16.4Zm-43.46-14.36a30.56,30.56,0,0,1,3.93-1.55,76.93,76.93,0,0,1,25-1.76c4.14.35,8.25,1.09,12.34,1.8a19.09,19.09,0,0,1,3.75,1.49C485.3,401.73,456.25,401.88,447.89,395.94ZM277,358.91a21.33,21.33,0,0,0,3.05.89,85.75,85.75,0,0,0,21.5,1.76c6-.19,11.9-.62,17.63-2.43,3.91-1.24,4.43-2.67,2.77-6.36-1-2.26-1.82-4.62-2.63-6.7,4.14-5.25,2.29-16.14-3-20.27-1.27-5.47-3.82-10-8.69-12.85a6.06,6.06,0,0,1-3.21-5.86c0-3.18,0-6.37.12-9.54.18-3.7,1.4-7,5-8.66,4.28-2,4.31-8.61-.05-10.49a7.81,7.81,0,0,1-4.68-6.93,114.34,114.34,0,0,1-.19-12.69,5,5,0,0,1,2-3.58,20.57,20.57,0,0,0,9.75-13.82c5.25-3.65,7-14.68,3-20.21a47,47,0,0,1,2-5.4c2.29-4.54,2.9-6.34-4.09-8.23l-.59-.12a78.74,78.74,0,0,0-22.9-1.56,118.53,118.53,0,0,0-16.23,2.41c-3.84.84-4.29,2.62-2.67,6.16,1,2.26,1.86,4.62,2.69,6.73-4.07,5.27-2.31,16.21,2.87,20.27,1.35,5.56,4,10.2,9,13.07,2.3,1.33,3,3.24,3,5.58.05,2.78,0,5.56-.05,8.34,0,4.55-1.5,8.28-5.79,10.52-1.81.94-2.44,2.54-2.51,4.61a5.37,5.37,0,0,0,3.17,5.27,9.16,9.16,0,0,1,4.93,7.88A101.66,101.66,0,0,1,292.4,308c-.07,1.36-.79,3.27-1.83,3.89a21.21,21.21,0,0,0-10.12,14c-5.12,3.7-6.86,15.05-2.8,20.23-1,2.33-1.88,4.73-2.93,7.07C273.38,356.23,273.91,357.72,277,358.91Zm38.5-21.5,1.62-2.37c.63,1.84,1.3,3.84,2,5.84h.42c-.36,1.13-.73,2.26-1.11,3.4-4.08-1.63-5.95-12-2.87-16.24C315.6,331.25,314.15,334.05,315.51,337.41Zm3.88-111.7c-.87,2.5-1.58,4.53-2.28,6.51-.36-.58-.8-1.26-1.48-2.35-1.62,3.3.09,6.15-.14,9.07-2.95-3.19-1.31-13.54,2.72-16.1ZM275.9,211.45a20.19,20.19,0,0,1,3.72-1.51c4-.71,7.93-1.44,11.94-1.8a77.34,77.34,0,0,1,25.59,1.76,31.62,31.62,0,0,1,3.76,1.48C313.29,217.17,284.72,217.43,275.9,211.45ZM281,230.29l-1.28,1.64c-.65-1.82-1.29-3.63-1.94-5.44l-.47,0c.41-1.16.83-2.33,1.27-3.55,4.05,2.28,5.76,12.64,2.76,16.12.22-3,.42-5.75.63-8.52Zm1.4,11.35c4.48-3.92,2.65-17.6-2.78-20.31-.24-1-.5-2.09-.81-3.36A63.92,63.92,0,0,0,318,218c-.21,1.11-.42,2.16-.65,3.34-2.46.69-3.28,2.81-4.06,4.93a22.62,22.62,0,0,0-.84,12.14c.23,1.19,1.1,2.26,1.83,3.69-2,7.63-9.54,9.8-15.65,10.14A16.16,16.16,0,0,1,282.43,241.64Zm20.42,15.44c-.21,4-.44,8.27-.68,12.77a8.48,8.48,0,0,1-7.39,0c-.24-4.42-.48-8.74-.7-12.8Zm-15,23.72c3.2-2.11,5.79-4.68,6.36-8.32h8.37c.74,3.71,3.18,6.3,6.27,8.22-.11,3-4,5.84-8.25,6.18C293.9,287.41,288.68,285,287.89,280.8Zm14.72,14.07-8.39-.44-.87-2.44h10.16C303.17,293.09,302.84,294.12,302.61,294.87Zm.24,15.37h-8.78c.22-3.95.46-8.3.71-12.82a8.61,8.61,0,0,1,7.39,0C302.41,301.87,302.64,306.18,302.85,310.24Zm-5,4.84a16.25,16.25,0,0,1,16.49,10.41c-4.34,4.88-2.54,17.75,2.94,20.53.25,1.09.46,2.05.73,3.24a65.57,65.57,0,0,0-39.14,0c.24-1.15.47-2.19.69-3.22,3.73-1.87,4.41-5.5,5-9a30.45,30.45,0,0,0,0-7.69c-.14-1.31-1.05-2.53-1.86-4.36C284.17,318.88,289.71,315.9,297.89,315.08Zm-20.34,26.39c.84-2.33,1.51-4.17,2.2-6.1l1.44,1.8c1.18-1.53.74-3.05.63-4.46s-.4-2.82-.64-4.43c3.26,2.49,1.49,13.82-2.66,16.14C278.1,343.16,277.75,342.07,277.55,341.47ZM321,355.81a17.64,17.64,0,0,1-3.53,1.47c-3.89.71-7.79,1.42-11.72,1.81a81.46,81.46,0,0,1-24.82-1.41,42.84,42.84,0,0,1-5-1.71C283.68,350.08,312.08,349.81,321,355.81ZM278.58,544.56l.58.13a78,78,0,0,0,21.9,1.69,136.14,136.14,0,0,0,17.62-2.51c3.72-.77,4.16-2.56,2.59-6.07-1-2.28-1.86-4.64-2.7-6.77,4.07-5.4,2.31-16.38-3.06-20.36a18.42,18.42,0,0,0-8.66-12.83,6,6,0,0,1-3.15-5.7c0-3.18-.05-6.37.1-9.54.18-3.76,1.38-7.14,5.05-8.84,4.26-2,4.26-8.58-.13-10.48a7.65,7.65,0,0,1-4.6-6.76c-.31-4.28-.33-8.59-.28-12.88a4.48,4.48,0,0,1,2.48-4c5.13-2.94,8-7.55,9.26-13.26,5.34-4.1,7-14.24,3.17-20.25a17.71,17.71,0,0,1,.59-2.21c.7-1.79,1.5-3.54,2.24-5.31,1.12-2.69.61-4-2.11-5.18a21.34,21.34,0,0,0-3.59-1.12,77.85,77.85,0,0,0-22.31-1.58,118.21,118.21,0,0,0-16.45,2.32c-4.2.9-4.66,2.67-2.87,6.52,1,2.19,1.79,4.49,2.59,6.53-4.09,5.18-2.34,16,2.89,20.29,1.33,5.58,4,10.17,9,13.06a5.76,5.76,0,0,1,3,5.4c.07,3,0,6-.06,8.94-.12,4.22-1.51,7.77-5.49,9.88-2,1.06-2.78,2.74-2.79,5.06,0,2.61,1.43,4,3.4,5.14a8.73,8.73,0,0,1,4.61,7.23,102.75,102.75,0,0,1,.22,11.9,5.54,5.54,0,0,1-2,4,21,21,0,0,0-9.85,13.8c-5.18,3.91-6.87,14.81-2.92,20.28a47,47,0,0,1-2.11,5.54C272.24,541.24,272.33,542.81,278.58,544.56Zm36.26-22.25,1.5-2.34,2.05,5.84h.41l-1.13,3.4c-4.11-1.71-6-12.59-2.94-16C315,516.13,313.27,519,314.84,522.31Zm1.5-105.18c-.39-.61-.8-1.27-1.22-1.92l-.84.14c0,1.41-.07,2.83,0,4.23s.36,2.77.61,4.57c-3.11-3.75-1.45-14,2.58-16.38l1.15,2.88C317.75,413.15,317,415.17,316.34,417.13Zm-40.95-20.56c5.41-5.05,39.26-5,44.46-.1C313.21,401.94,284.32,402.43,275.39,396.57ZM280.62,415l-1.63,1.8-2.21-6.05c.21-.59.61-1.71,1-2.88,4.06,2.12,5.76,12,2.73,16.43C280.52,421,281.89,418.16,280.62,415Zm1.08,11.69c4.35-4.45,2.6-17.77-2.77-20.38-.26-1-.53-2.09-.9-3.52a62.77,62.77,0,0,0,39.36,0c-.34,1.36-.6,2.38-.85,3.39-5.43,3-7.36,16.38-3,20.33-1.6,7.22-8,10-15.41,10.66A16.31,16.31,0,0,1,281.7,426.65ZM302.07,442c-.19,4-.41,8.24-.62,12.56a7.38,7.38,0,0,1-7.45,0c-.22-4.22-.45-8.47-.66-12.58Zm-14.94,23.66c3.23-2.11,5.79-4.7,6.35-8.32l8.33.37a26,26,0,0,0,2.37,4.45,29.78,29.78,0,0,0,3.95,3.61c-.11,2.76-4.12,5.69-8.24,6C293,472.27,287.94,469.94,287.13,465.69Zm14.74,14.07-8.4-.37c-.18-.51-.5-1.41-.88-2.5h10.17C302.41,478,302.09,479,301.87,479.76Zm.22,15.39H293.3c.22-4,.47-8.28.72-12.76,2.37-1.28,4.79-1.14,7.41-.05C301.66,486.79,301.88,491.05,302.09,495.15ZM297.41,500A15.68,15.68,0,0,1,313.6,510.5c-4.35,4.35-2.43,17.91,3,20.35l.68,3.32a65.81,65.81,0,0,0-39.07,0c.13-.63.23-1.16.34-1.7s.23-1,.34-1.53c3.69-1.79,4.33-5.38,4.89-8.78a30.56,30.56,0,0,0,0-7.88c-.12-1.31-1-2.55-1.85-4.37C283.47,503.3,289.93,500.5,297.41,500Zm-20.64,26.34c.82-2.23,1.51-4.06,2.21-6,.42.44.9,1,1.65,1.77,1.25-3.21-.08-6.06-.13-9.15,3.16,3.56,1.34,14.31-2.75,16.18C277.37,528.11,277,527,276.77,526.36Zm43.4,14.39a18.51,18.51,0,0,1-3.52,1.45c-3.83.69-7.68,1.39-11.55,1.77a81.65,81.65,0,0,1-25-1.41,47.69,47.69,0,0,1-5-1.68C283.35,534.84,312.11,534.86,320.17,540.75ZM490.71,207.36c-.45-.13-.9-.24-1.35-.34a80.37,80.37,0,0,0-23.5-1.51,109.89,109.89,0,0,0-15.63,2.4c-3.72.84-4.17,2.61-2.62,6.08,1,2.28,1.86,4.63,2.69,6.75-4,5.61-2.29,16.43,3,20.3,1.28,5.65,4,10.19,8.88,13.05a5.72,5.72,0,0,1,3,5.38c0,3.11,0,6.22-.07,9.34-.12,4.07-1.48,7.51-5.35,9.52-2.17,1.13-3,2.93-2.91,5.4s1.5,3.74,3.34,4.77a8.6,8.6,0,0,1,4.67,7.19c.27,4.15.27,8.33.2,12.49a4.48,4.48,0,0,1-2.49,4c-5.16,2.91-8,7.55-9.25,13.26-5.33,4-7,14.38-3.07,20.37-.6,1.63-1.16,3.47-1.92,5.22-2.47,5.68-1.85,7,4.3,8.36a84.6,84.6,0,0,0,20.51,1.82c6.29-.13,12.57-.56,18.64-2.39,4.11-1.24,4.64-2.72,2.86-6.57-1-2.2-1.79-4.51-2.59-6.56,4.09-5.12,2.36-15.95-2.89-20.28-1.32-5.49-3.94-10.07-8.87-12.92a6,6,0,0,1-3.13-5.71c0-2.58,0-5.17,0-7.75,0-4.75,1.4-8.65,5.84-11.15a5.41,5.41,0,0,0,2.31-3.21,5.55,5.55,0,0,0-3.2-6.72,8.13,8.13,0,0,1-4.55-6.82c-.33-4.08-.41-8.2-.34-12.29a4.49,4.49,0,0,1,2.17-4.19c5.35-3,8.41-7.7,9.77-13.62,5.19-4,6.89-14.83,2.91-20.25a46.94,46.94,0,0,1,2.19-5.71C496.65,210.57,496.3,209,490.71,207.36Zm-36.06,22.76-.73-.21-1.39,1.89-2-5.71H450l1.26-3.54c4,2,5.78,12,2.73,15.81.2-1.41.48-2.82.59-4.24S454.65,231.45,454.65,230.12Zm-4.41,111c.87-2.44,1.6-4.47,2.32-6.45l1.36,2.15c1.26-1.65.84-3.15.68-4.59s-.37-2.78-.61-4.54c3.09,3.52,1.45,13.82-2.6,16.37C450.94,342.92,450.51,341.84,450.24,341.15Zm43.42,14.33a19.17,19.17,0,0,1-3.53,1.44c-3.89.7-7.8,1.41-11.73,1.79a82.21,82.21,0,0,1-24.64-1.38,49.65,49.65,0,0,1-5.27-1.75C457.22,349.51,485.63,349.61,493.66,355.48Zm-5.41-18.57,1.63-1.84c.66,1.8,1.33,3.59,2,5.38h.4c-.36,1.14-.73,2.28-1.09,3.43-4.08-1.59-5.93-11.88-2.83-16.29C488.34,330.86,487,333.66,488.25,336.91Zm-1.05-11.7c-4.42,4.12-2.62,17.71,2.78,20.34l.8,3.38c-14.66-4-19.86-4-39.13-.09.23-1.13.45-2.2.67-3.23,5.41-2.61,7.39-16.35,3-20.29,1.77-7.3,7.92-10,15.47-10.59A16.11,16.11,0,0,1,487.2,325.21Zm-11.83-30.78H467c-.28-.86-.58-1.81-.91-2.82h10.14C475.91,292.68,475.59,293.72,475.37,294.43Zm.2,15.43h-8.79c.21-4,.45-8.33.68-12.75a8.2,8.2,0,0,1,7.41-.07C475.11,301.48,475.35,305.81,475.57,309.86Zm6.09-29.52c-.24,3.11-4.28,6-8.52,6.18-6.89.33-11.8-2-12.5-6.09,3.12-2.08,5.86-4.61,6.29-8.32h8.43C476.1,275.81,478.59,278.38,481.66,280.34Zm-6.51-11.24a7.4,7.4,0,0,1-7.69.26c-.22-4.21-.45-8.53-.66-12.64h8.84c-.14,1.79-.38,3.91-.47,6S475.15,267.1,475.15,269.1Zm-3.75-17.25a16.23,16.23,0,0,1-16.13-10.41c4.28-5.19,2.53-17.66-2.93-20.58-.24-1-.5-2.1-.81-3.42a62.36,62.36,0,0,0,39.23,0l-.72,3.39c-3.69,1.7-4.33,5.31-4.89,8.7a31.29,31.29,0,0,0,0,8.09c.13,1.3,1.12,2.51,1.91,4.18C485.05,249.35,477.33,251.51,471.4,251.85Zm20.92-25.77-.54.2c-.61,1.65-1.21,3.31-2,5.52-.31-.84-.58-1.55-.85-2.26l-.82.53c-1.09,2.75.25,5.54.25,8.38-3.13-2.33-1.34-13.69,2.71-15.91C491.48,223.76,491.9,224.92,492.32,226.08Zm-43.63-15a19.6,19.6,0,0,1,3.69-1.53c4-.71,8.07-1.43,12.13-1.81a80.4,80.4,0,0,1,24.07,1.42,47.71,47.71,0,0,1,5.19,1.77C486.12,216.79,457.43,217,448.69,211.08ZM580.37,421.86l-4.28-3.17V671.75c-12.21,2.27-18.57,10-21.26,21.58H432.61c2.62,2.48,4.63,4.64,8.4,4.33,4.87-.4,9.79-.1,14.69-.1l101.37,0a11.1,11.1,0,0,0,1.47-.18c1-13.8,9.4-19.86,21.83-22.15ZM194.68,671.71V418.78l-4.2,3.12V675.52a23.52,23.52,0,0,1,15.3,6.74c4.27,4.16,6.84,9,6.24,15.18.8.07,1.26.15,1.71.15,39,0,77.91-.07,116.86.07,3.6,0,5.13-2.28,7.2-4.44H216C213.3,681.68,207,674.06,194.68,671.71ZM577,76.4v243l4.08-3.06V72.83c-12.49-2.31-20.85-8.41-21.78-22.19-.54,0-1.05-.12-1.57-.12-38.82,0-77.64.07-116.47-.07-3.63,0-5.34,2.13-7.44,4.4H555.61C558.38,66.45,564.75,74.14,577,76.4ZM330.89,50.45c-4.94.37-9.93.09-14.89.09l-101.37,0a17.09,17.09,0,0,0-1.88.21c.67,6.31-2,11.06-6.24,15.18a23.63,23.63,0,0,1-15.24,6.7V316.28l4.28,3.16V76.37c12.21-2.27,18.59-9.94,21.28-21.57H339.07C336.48,52.39,334.58,50.18,330.89,50.45ZM415,76.16H355.55v49.69H415Zm-4.16,45.36h-51V80.33h51ZM222.67,593.06a8.29,8.29,0,0,0,2.78.86,31.31,31.31,0,0,1,11.5,4.15,8.6,8.6,0,0,1,4.22,6.39c.38,2.95.87,5.89,1.34,8.83q1,6.35,2.06,12.68a1.89,1.89,0,0,0,.73-1.2c1.08-6.66,2.23-13.31,3.15-20,.42-3,1.72-5.38,4.36-6.68a85,85,0,0,1,9.35-3.72,36.61,36.61,0,0,1,4.83-1c-.34-.3-.43-.44-.54-.46-.51-.11-1-.19-1.56-.28-4.53-.77-8.91-2-12.74-4.68a8.05,8.05,0,0,1-3.6-5.68c-.64-4.39-1.34-8.77-2-13.15-.45-2.85-.95-5.69-1.43-8.54l-.54-.05c-1.09,6.85-2.32,13.68-3.22,20.56-.47,3.54-2,6.32-5.16,7.67-3.74,1.58-7.71,2.63-11.59,3.89C224,592.84,223.3,592.92,222.67,593.06Zm285.38-454.3-2.69-.49c-4.32-.79-8.52-1.93-12.23-4.42a8.65,8.65,0,0,1-4-6.3c-.8-5.77-1.79-11.51-2.72-17.25-.21-1.36-.48-2.7-.82-4.54a7.53,7.53,0,0,0-.5,1.07c-1.1,6.86-2.28,13.71-3.26,20.58-.4,2.77-1.5,5.05-3.93,6.31a72.62,72.62,0,0,1-8.9,3.77,44,44,0,0,1-5.67,1.26,8.37,8.37,0,0,0,2.53.78,31.09,31.09,0,0,1,11.86,4.3,8.39,8.39,0,0,1,4,6c1,6.81,2.14,13.6,3.24,20.39a5.87,5.87,0,0,0,.41,1.1c1.5-7,2.71-13.86,3.67-20.8a8.63,8.63,0,0,1,4.25-6.77,27,27,0,0,1,5.16-2.5C501.43,140.34,504.47,139.69,508.05,138.76ZM386.18,655a41.12,41.12,0,0,0,2.37-6.5c1.84-7.24,2-14.67,2-22.08a11.9,11.9,0,0,0-.39-3.93A3.15,3.15,0,0,0,388,620.7c-.61-.07-1.65,1-2,1.73a9.41,9.41,0,0,0-.39,3.33c-.09,5.16,0,10.33-.21,15.48-.14,4.19-.57,8.39-3.22,11.88a17.38,17.38,0,0,1-3.15,2.64c-4.26-2-5.45-5.28-5.71-9-.4-5.6-.54-11.23-.86-16.84a42.67,42.67,0,0,0-.74-6.69c-.16-.76-1.34-1.31-2-2a28.5,28.5,0,0,0-1.94,2.18c-.2.28-.13.77-.16,1.16a103.22,103.22,0,0,0,.47,23.57,16,16,0,0,0,3.33,8.17C374.75,660.42,383.19,661.71,386.18,655ZM402,647.76c6.55-2.63,11.21-6.77,13.44-13.42a9.87,9.87,0,0,0-1.8-10.21c-2.56-3-6-3.64-9.76-3-1.39.23-2.8.33-4.51.53-1.11,1.16-2.57,2.57-3.87,4.1a4.31,4.31,0,0,0-1,2.29,8,8,0,0,0,.84,2.54l1.94-1.8c-.22,7.76-.44,15.35-.63,23a45.4,45.4,0,0,0,.17,5,2.46,2.46,0,0,0,2.56,2.51,2.5,2.5,0,0,0,2.61-2.47,27,27,0,0,0,0-3.37Zm.1-22.14c4.66-1.81,8.31-.37,9.05,3.83a9.72,9.72,0,0,1-.92,4.93c-1.48,3.69-4.23,6.26-8.13,8.3Zm26.47,10.24a18.51,18.51,0,0,1-4.29-4.83c-1.6-2.64-.83-4.77,1.87-6.55,2.75.27,4.15,1.31,5.05,3.73A5.18,5.18,0,0,0,432,630a2.26,2.26,0,0,0,1.68.71,2.11,2.11,0,0,0,1.29-1.26,6.73,6.73,0,0,0-2.15-7c-4.49-3.59-9.29-2.76-12.29,2.14a8.85,8.85,0,0,0-.87,7.27,16.28,16.28,0,0,0,5.83,8.3,12.14,12.14,0,0,1,4.87,10.17c-.11,2.8-1.7,4.46-4.2,4.6-3.37.2-4.62-.77-5.17-4a4.22,4.22,0,0,0-.26-1.36c-.36-.64-.8-1.59-1.35-1.7a2.62,2.62,0,0,0-2.24.76,6.26,6.26,0,0,0-1.15,3.24,7.74,7.74,0,0,0,6,7.66c7.17,1.3,12.47-2.08,12.92-9.59A15.7,15.7,0,0,0,428.56,635.86Zm-66.95,17.37a2.83,2.83,0,0,0-.46-2.71,3.87,3.87,0,0,0-3,.19c-.71.29-1.13,1.25-1.73,1.87-3.39,3.44-7.45,3.1-9.58-1.21a25.94,25.94,0,0,1-2.55-8.85,18.86,18.86,0,0,1,4.13-14.32c2.87-3.4,6.44-3.34,9.32,0a35.51,35.51,0,0,0,2.4,2.9,2.18,2.18,0,0,0,1.92.38,2.41,2.41,0,0,0,.89-1.75,4,4,0,0,0-.5-1.89c-3.15-7.28-11.57-8.36-17-2.13-4,4.56-5.37,10.07-5.62,15.83.16,5.4,1,10.46,4.69,14.53C350.26,662.31,358,659.77,361.61,653.23Zm95.84-10a26,26,0,0,0,11.47-1.71,3.78,3.78,0,0,0,2.15-2.44,3.57,3.57,0,0,0-1.83-2.66,23.32,23.32,0,0,0-5.67-1.61c-2-.35-4-.4-6.13-.6a14.7,14.7,0,0,0,1.39-3.4c.16-1.14.19-2.83-.47-3.39a4,4,0,0,0-3.57-.39,14.46,14.46,0,0,0-8.43,9.42c-1.13,4,.21,7.62,2.62,10.74a24.5,24.5,0,0,0,5.46,5.3c2.05,1.39,4.17-.11,4.07-2.62a10.91,10.91,0,0,0-.76-3.25,36.37,36.37,0,0,0-1.63-3.4C456.79,643.27,457.12,643.26,457.45,643.28Zm-1.41-14,.61.45-2.88,4.91-4.5.91C451.15,632.6,453,630.31,456,629.29Zm-6.51,12.83,3.55.79,2.88,6.65C453.4,648.6,450.71,645.37,449.53,642.12Zm-.48-3c4-2.2,15.61-2,19.08.37C461.45,640.91,455.24,641.06,449.05,639.17ZM343.63,49.31a13,13,0,0,0,4.42,1.61c2.56.47,5.18.65,7.88,1a14.22,14.22,0,0,0-1.34,3.3c-.16,1.14-.22,2.83.44,3.4a4,4,0,0,0,3.56.43,14.77,14.77,0,0,0,8.47-9.39c1.69-5.46-2.61-12.11-6.66-15.31-1.27-1-2.74-1.86-4.34-.75s-1.4,2.91-.89,4.5,1.27,3,2,4.72a20.47,20.47,0,0,0-3.15,0,76,76,0,0,0-10,2C341.58,45.54,341.46,48,343.63,49.31ZM357.14,57c.35-3.93,2.3-5.7,6.8-6.35A13.51,13.51,0,0,1,357.14,57Zm1.38-20.69q2.82,3.52,5.63,7.06l-.41.56-3.37-.75c-.89-2-1.83-4.15-2.77-6.28Zm6.18,10.46c-3.37,2.33-15.81,2.23-19.42-.23A40.86,40.86,0,0,1,364.7,46.78ZM428,698.7a7,7,0,0,0-2.53-1.08c-3.17-.57-6.35-1-9.66-1.53.36-.8.83-1.65,1.16-2.56.52-1.44,1.12-3-.31-4.23s-3-.68-4.44.11a15,15,0,0,0-6.85,7.21,12.58,12.58,0,0,0-.95,5.18c.14,4.75,3,8.19,6.13,11.4a7.4,7.4,0,0,0,2.14,1.42c2.29,1.06,4.31-.19,4.09-2.68a21.46,21.46,0,0,0-1.39-4.71,15.81,15.81,0,0,0-1-1.93,28.42,28.42,0,0,0,4.36,0,57.44,57.44,0,0,0,8.88-1.89C430.1,702.53,430.18,700.21,428,698.7Zm-13.36-7.55c-.83,4-2.31,6.22-6.86,6.23A13,13,0,0,1,414.6,691.15Zm-1.45,20.64q-2.82-3.52-5.63-7.06l.4-.56,3.37.74,2.78,6.27C413.76,711.38,413.45,711.58,413.15,711.79Zm-6.23-11a37.77,37.77,0,0,1,19.35.1C423.32,703.16,410.44,703.08,406.92,700.8Zm-49.74-12c-2.49-.86-4.28.88-3.62,3.43a33.63,33.63,0,0,0,1.54,4c-2.75.33-5.39.52-8,1a12.23,12.23,0,0,0-4.24,1.55c-2.2,1.37-2,3.44.27,4.6a10.71,10.71,0,0,0,3.18,1.09c3.3.47,6.62.79,9.88,1.17-.64,1.58-1.45,3.24-2,5-.43,1.42-.43,3,1,3.94a3,3,0,0,0,4-.57,42.29,42.29,0,0,0,5.81-7.18C369.86,698.59,362.86,690.79,357.18,688.81Zm.55,23-.89-.53,2.67-6.29,3.36-.78.48.56Zm-12.79-10.51a29.84,29.84,0,0,1,18.66-.22C357.42,703.13,351.2,702.85,344.94,701.27Zm13.93-4.6c-.91-1.52-1.91-3.21-2.91-4.9l.6-.45c3,1,4.87,3.3,6.82,6.27ZM172.63,340.29a42.67,42.67,0,0,0,7.06,5.63c8.15,4.77,15.93-2.07,18-7.82.92-2.58-.88-4.37-3.53-3.65a33.45,33.45,0,0,0-3.74,1.48c-.49-3.23-.88-6.42-1.5-9.56-.38-1.88-1.07-4-3.41-4.05s-2.85,2.22-3.18,4c-.66,3.55-1,7.15-1.5,10.77a49.53,49.53,0,0,0-4.73-1.92c-1.48-.45-3.1-.54-4.13,1A3.11,3.11,0,0,0,172.63,340.29Zm17.2-.58,5.26-3.07c-.4,3-2.73,5.64-6.12,7.35C189.25,342.58,189.51,341.32,189.83,339.71Zm-4.9-14.29c2.45,3.26,2.61,15.64.3,19.4C183.39,338.27,183.61,332.05,184.93,325.42Zm-9.61,12.26,6.23,2.71c.28,1.22.53,2.28.78,3.35l-.47.49-7.15-5.61C174.91,338.31,175.11,338,175.32,337.68ZM316.7,651.34a3,3,0,0,0,4-.56,39.23,39.23,0,0,0,5.54-6.63c5-8.09-.92-15.69-7.18-18.36a3.84,3.84,0,0,0-3.39.51c-.64.56-.66,2.15-.49,3.22a18.61,18.61,0,0,0,1.48,3.77,20.36,20.36,0,0,0-2.85,0,60.6,60.6,0,0,0-8.32,1.64,4.52,4.52,0,0,0-2.54,2.87c-.36,1.59,1.25,2.27,2.58,2.76a11,11,0,0,0,2.28.68c3.26.42,6.53.77,9.84,1.15-.64,1.58-1.44,3.25-2,5C315.25,648.82,315.26,650.36,316.7,651.34Zm1.39-3,2.9-6.65,3.31-.76C323.91,643.45,320.83,647.32,318.09,648.38Zm6.32-14.25c-.12,0-.25.13-.36.1-1.09-.21-2.19-.45-3.7-.77l-3.08-5.05C319.93,628.35,323.09,631.07,324.41,634.13Zm-18.05,3.93a29.82,29.82,0,0,1,18.63-.23A32,32,0,0,1,306.36,638.06ZM181.2,397.38c.34,3,.56,6,1.14,9,.34,1.74.81,4,3.22,3.89,2.23-.08,2.94-2.1,3.31-3.93.64-3.15,1-6.36,1.55-9.67a15,15,0,0,0,3.42,1.34c1.06.16,2.66.1,3.2-.55a3.87,3.87,0,0,0,.44-3.4,14.37,14.37,0,0,0-9.51-8.59c-4.19-1.17-7.85.34-11.05,2.85a22.51,22.51,0,0,0-5,5.24c-1.36,2.07.14,4.19,2.64,4.06a13.62,13.62,0,0,0,3.62-.9,28.77,28.77,0,0,0,3-1.5C181.19,396.11,181.13,396.75,181.2,397.38Zm13.9-2.15c-3.12.29-5.4-2.14-6-6.6C192.41,390.44,194.43,392.7,195.1,395.23Zm-9.93-7.37c2.32,3.25,2.25,15.68-.17,19.4A40,40,0,0,1,185.17,387.86Zm-9.91,7.07-.33-.58c1.8-2.6,4.31-4.34,7.51-5.94l-.88,3.78ZM589.67,335c-.53-3.51-1-7-1.76-10.49a3.38,3.38,0,0,0-2.42-2.11,3.51,3.51,0,0,0-2.65,1.84,22.94,22.94,0,0,0-1.6,5.68c-.35,2-.4,4-.59,6.11a14,14,0,0,0-3.24-1.34,5.86,5.86,0,0,0-3.63.41c-1.33.88-.95,2.5-.3,3.8a15.43,15.43,0,0,0,8.47,7.92,10,10,0,0,0,3.88.6c5-.24,8.72-3.06,12-6.55a6.76,6.76,0,0,0,1.42-2.57,2.46,2.46,0,0,0-2.36-3.32,11.2,11.2,0,0,0-3.65.66,30.76,30.76,0,0,0-3.55,1.67A17.55,17.55,0,0,0,589.67,335Zm-14,2.41.44-.6,4.92,2.88c.33,1.6.59,2.87.92,4.49C579,342.34,576.7,340.43,575.67,337.43Zm10.06,7.21c-2.32-2.82-2.31-15.22.07-18.84A37.69,37.69,0,0,1,585.73,344.64Zm9.78-7,.44.65a19.45,19.45,0,0,1-7.48,5.88c.29-1.35.49-2.3.78-3.67ZM414.3,59.19a3.5,3.5,0,0,0,3.06-.49,3.85,3.85,0,0,0,.66-3,19.77,19.77,0,0,0-1.52-4,21.38,21.38,0,0,0,3.1-.16,85.19,85.19,0,0,0,8.84-2A3.2,3.2,0,0,0,430.13,47c0-.84-1.15-1.74-1.95-2.41a4.28,4.28,0,0,0-2-.73c-3.52-.51-7.05-1-10.65-1.44.6-1.49,1.41-3.15,1.94-4.89.43-1.43.43-3-1-4a3,3,0,0,0-4,.55,41.13,41.13,0,0,0-5.64,6.82C401.81,49.15,408.31,56.9,414.3,59.19Zm0-22.64.57.3c-.9,2.11-1.81,4.22-2.71,6.31l-3.79.87C409.93,40.86,411.66,38.35,414.28,36.55Zm12.45,10.28a29.84,29.84,0,0,1-18.66.23C414.25,45,420.47,45.27,426.73,46.83Zm-11.42,9.71c-2.24-.11-4.65-2.15-6.75-5.82C413.06,50.74,414.57,53,415.31,56.54Zm182.9,335.74a41,41,0,0,0-6.89-5.54c-8.05-4.76-15.74,1.64-18,7.62a3.41,3.41,0,0,0,.48,3.05,4.34,4.34,0,0,0,3.2.63,17.77,17.77,0,0,0,3.73-1.47c.06.59.08,1,.15,1.48.48,3.12.84,6.27,1.51,9.35.33,1.46,1.24,2.93,3.07,2.92s2.31-1.53,2.83-2.9a8.25,8.25,0,0,0,.56-1.9c.42-3.33.79-6.65,1.19-10,1.5.64,3,1.43,4.64,1.94s3.24.62,4.3-1A3.12,3.12,0,0,0,598.21,392.28Zm-22.27,3.11c.09-2.22,2.11-4.62,5.8-6.77C581.73,393.07,579.66,394.56,575.94,395.39ZM586,407.12c-2.47-2.73-2.72-15.15-.38-19.48C587.47,394.38,587.21,400.59,586,407.12Zm9.54-12.2-6.23-2.71c-.29-1.22-.54-2.29-.88-3.76a18.3,18.3,0,0,1,7.46,5.87C595.8,394.52,595.68,394.72,595.56,394.92Zm-408-342A63.65,63.65,0,0,0,192,57.78c-1.65.67-3.29,1.2-4.81,2s-2.84,1.92-2.36,3.91c.43,1.78,2,2.36,3.54,2.29a39.91,39.91,0,0,0,8.4-1c9.09-2.37,10.15-12,7.47-18.24a3.4,3.4,0,0,0-2.48-1.84A4.16,4.16,0,0,0,199,46.7a18.43,18.43,0,0,0-1.61,3.87A24.48,24.48,0,0,0,194.56,48c-2.43-1.56-4.8-3.35-7.46-4.34s-4.21,1-3.06,3.55A29.24,29.24,0,0,0,187.54,53Zm.2,9.44,6.79-2.78,3,1.84C195.37,63,190.4,63.56,187.74,62.4Zm14.13-14.82c1.53,3,1.24,6.05.7,9.14C199.39,54.17,199.22,51.26,201.87,47.58Zm-1.59,12.57c-6-3.28-10.37-7.81-14.16-13.44C190.16,47.21,199.26,55.87,200.28,60.15Zm385.37,637c-1.91-2.35-3.91-4.62-5.8-6.83,1.63-.71,3.47-1.39,5.19-2.32a3.1,3.1,0,0,0,1.85-3.42,2.87,2.87,0,0,0-3-2.35,32.21,32.21,0,0,0-8.4.8,15.33,15.33,0,0,0-6.36,3.63c-3.27,3.23-3.94,10.75-1.62,14.75a3.79,3.79,0,0,0,2.53,1.8,3.83,3.83,0,0,0,2.58-1.68,21.3,21.3,0,0,0,1.7-4,19,19,0,0,0,1.56,1.42c2.4,1.73,4.76,3.54,7.28,5.09,1.29.8,3,1.16,4.25-.11s.56-2.73-.1-4A14.54,14.54,0,0,0,585.65,697.15ZM584,685.68l-6.9,2.82-3.06-2C577,685.06,581.28,684.6,584,685.68ZM569.78,700.6a13.83,13.83,0,0,1-.6-9.29C572.16,694.4,572.41,697.41,569.78,700.6Zm1.66-12.2c3.57.67,12.24,8.84,13.77,13.09C581,700.37,572.58,692.31,571.44,688.4ZM585.5,65.69c2.58-.91,3.19-3.39,1-5A36.46,36.46,0,0,0,581,57.8c.67-.84,1.56-1.82,2.31-2.91a72.56,72.56,0,0,0,5.2-7.89c1.13-2.19-.32-3.8-2.79-3.44a7.42,7.42,0,0,0-2.94,1.09c-2.66,1.81-5.22,3.76-7.83,5.66a15.82,15.82,0,0,0-1.4-3.49c-.61-.87-1.79-2-2.64-1.91A3.92,3.92,0,0,0,568.15,47a14.16,14.16,0,0,0,.53,12.8C571.32,64.48,580.28,67.54,585.5,65.69Zm-.89-3.37c-2.18,1.19-5.77.89-10-.65l3.21-2Zm1.16-16c-.23,3.44-9.34,12.35-14,13.6A37.5,37.5,0,0,1,585.77,46.3Zm-15,1.45c2.42,2.86,2.18,5.91-.7,9C569,52.94,569.28,49.71,570.77,47.75ZM201.43,686.19c-3.93-3.62-8.83-4.48-14-4.06-1.55.13-3.08.61-3.45,2.44s.77,2.91,2.17,3.64c1.62.83,3.35,1.44,5.14,2.19-.44.4-.87.79-1.29,1.19-2.84,2.72-5.43,5.63-6.84,9.37-.92,2.46.35,4.12,2.88,3.53a15.51,15.51,0,0,0,4.95-2.34c2-1.34,3.79-3,5.71-4.52A13.14,13.14,0,0,0,198,701c.72,1,1.91,2.19,2.87,2.16a4,4,0,0,0,2.73-2.3,17.5,17.5,0,0,0,1.06-5.79C204.74,691.75,204,688.51,201.43,686.19Zm-14.16-.36.38-1.05,9.09,1.16c0,.2.07.4.11.59l-3,2Zm-1.6,15.7c1.33-3.94,9.26-11.61,13.59-13.27C199.17,691.4,190.28,700.17,185.67,701.53Zm15.41-1c-2.09-2.83-3-5.86.6-9.3C202.4,694.43,202.57,697.46,201.08,700.53ZM378.48,57.37a2.64,2.64,0,0,0,2.3.34c.42-.17.7-1.33.63-2-.37-3.39,1.18-5.94,4.61-7.24,3.85,1.16,5.28,3.43,5,7.5a2.16,2.16,0,0,0,.62,1.7,2.73,2.73,0,0,0,2,0,3.79,3.79,0,0,0,1.34-1.14,11.27,11.27,0,0,0,1.34-13.11,11.41,11.41,0,0,0-12.1-5.64,11.56,11.56,0,0,0-9.38,10A10.58,10.58,0,0,0,378.48,57.37ZM381.43,43c2.92-2.29,6.19-2.33,9.34-.1a6.79,6.79,0,0,1,2.7,8.13c-1.5-3.19-3.6-5.84-7.18-5.76s-5.89,2.39-7.24,5.78A6.87,6.87,0,0,1,381.43,43Zm11.83,647.81a2.78,2.78,0,0,0-2.3-.44c-.43.15-.79,1.3-.72,2,.38,3.69-1.21,6.17-5,7.32-3.52-1.3-4.92-3.69-4.57-7.41a2.28,2.28,0,0,0-.68-1.84,2.54,2.54,0,0,0-2,.11,4.64,4.64,0,0,0-1.46,1.31,11.34,11.34,0,0,0-1.08,13,11.93,11.93,0,0,0,12.4,5.55,11.81,11.81,0,0,0,9-9.94A10.6,10.6,0,0,0,393.26,690.79ZM390,705.21c-3.09,2.2-6.27,2.22-9.18,0a6.88,6.88,0,0,1-2.65-8c3.68,7,10.41,7.88,14.57,0A6.64,6.64,0,0,1,390,705.21ZM576.52,371a2.15,2.15,0,0,0-1.7.6,2.91,2.91,0,0,0,0,2c.12.46.62.84,1,1.2a11.3,11.3,0,0,0,13.09,1.6,11.44,11.44,0,0,0,5.83-12.19,11.58,11.58,0,0,0-10-9.4,10.55,10.55,0,0,0-9.58,3.68,2.69,2.69,0,0,0-.37,2.3c.16.43,1.32.73,2,.65,3.4-.36,5.92,1.15,7.26,4.58C582.88,369.91,580.55,371.39,576.52,371ZM581.67,359a7,7,0,0,1,8.1,2.88c2.11,3,2,6.2-.45,9.33a6.54,6.54,0,0,1-7.67,2.36C588.61,370.09,589.57,363.41,581.67,359ZM194.35,361.6c1.19.12,2.11-.29,2-1.52a3.92,3.92,0,0,0-1.17-2.17,11.12,11.12,0,0,0-12-2.34c-4.31,1.74-7.55,6.28-7.37,10.86a11.37,11.37,0,0,0,7.05,10.44c4.34,2,9.95.81,12.69-2.65a3.38,3.38,0,0,0,.49-2.47c-.07-.34-1.32-.7-2-.63-3.63.4-6.19-1.31-7.26-5.09C188.29,362.5,190.52,361.19,194.35,361.6Zm-5.16,11.88a6.34,6.34,0,0,1-7.08-1.58c-2.68-2.83-3.2-6.42-1.38-9.46a7.35,7.35,0,0,1,8.68-3.46C181.82,362.86,181.77,369.87,189.19,373.48ZM518.65,478.69a24.21,24.21,0,0,0,.49,3.13c.36,2.09.73,4.18,1.09,6.26a62.43,62.43,0,0,0,2.09-10.2,4.85,4.85,0,0,1,3-4.15c2-.85,4-1.48,6.4-2.33-.58-.17-.83-.27-1.08-.32-6.37-1.11-7.51-2.21-8.68-8.54-.46-2.46-.8-4.94-1.2-7.4l-.53,0c-.58,3.36-1.3,6.71-1.69,10.09a4.89,4.89,0,0,1-3.14,4.21c-1.49.66-3.11,1.05-4.67,1.57-.37.12-.73.27-1.48.56,1.66.45,2.87.73,4.06,1.11C516.23,473.64,518.57,475.12,518.65,478.69ZM324.37,167.31c-3-.95-5.08-2.54-5.34-6.06-.23-3-.93-6-1.42-9.06h-.48c-.17.74-.36,1.48-.48,2.23a62.58,62.58,0,0,0-1.1,7.05c-.2,3.49-2.45,4.9-5.29,5.85-1.25.42-2.54.69-4.12,1.11,2.24.78,4.12,1.34,5.94,2.08a5,5,0,0,1,3.35,4.48c.24,2.69.83,5.36,1.29,8,.11.63.33,1.24.49,1.85a58.48,58.48,0,0,0,1.93-9.67,5.23,5.23,0,0,1,3.43-4.68c1.86-.75,3.79-1.34,6-2.11C327,168,325.66,167.72,324.37,167.31ZM234.84,464.89c3.11.95,5.3,2.66,5.32,6.25a12.33,12.33,0,0,0,.3,2.16q.61,3.38,1.24,6.75a41.4,41.4,0,0,0,1.92-9.22c.22-3.07,1.89-4.67,4.48-5.64,1.51-.57,3.09-1,5.14-1.6-1.06-.24-1.61-.38-2.17-.48-5.11-1-6.69-2.58-7.54-7.61l-1.41-8.16-.51,0c-.54,3.25-1.2,6.48-1.56,9.74a5.41,5.41,0,0,1-3.66,4.72c-1.7.69-3.47,1.18-5.59,1.89C232.32,464.15,233.59,464.51,234.84,464.89ZM528.27,261.71c.94-.27,1.9-.49,2.85-.73a25.11,25.11,0,0,0-3.89-1.35c-3.15-1-5.21-2.74-5.36-6.47a64.93,64.93,0,0,0-1.44-8.68h-.49c-.53,3.24-1.19,6.48-1.56,9.74a5.29,5.29,0,0,1-3.47,4.65c-1.8.74-3.69,1.27-5.93,2l1.71.47c6.9,1.91,7.18,2.26,8.13,9.31.29,2.2.8,4.38,1.21,6.57a17.08,17.08,0,0,0,1.19-4.31,19.58,19.58,0,0,0,.66-4.31C521.68,264.68,524.23,262.87,528.27,261.71Zm-95.46-81.56c2.05.7,3.61,1.74,3.81,4.23.16,2.14.67,4.25,1,6.38h.49a38.76,38.76,0,0,0,1-5.79c.06-3.19,2.05-4.33,4.62-5.09.62-.18,1.22-.42,1.83-.64a2,2,0,0,0-1.08-.44c-3.63-.77-4.69-1.87-5.35-5.48q-.51-2.82-1-5.62a23,23,0,0,0-1.51,6.4c-.2,2.47-1.76,3.53-3.8,4.24-.82.29-1.68.47-3,.84C431.1,179.6,432,179.86,432.81,180.15ZM242,300.61a26.4,26.4,0,0,0,.82,4.33l.38-.06c.36-2.2.82-4.38,1.05-6.59a4.22,4.22,0,0,1,2.8-3.75c1.2-.5,2.45-.87,4-1.4l-2.18-.54c-2.69-.74-4.62-2-4.71-5.26a40.36,40.36,0,0,0-1-5.82,17.07,17.07,0,0,0-1.3,5.46c-.15,3.36-2,5-5,5.71-.55.13-1.11.23-2,.4a5.65,5.65,0,0,0,1.18.5C240.12,294.17,241.93,296.57,242,300.61ZM449.49,590.78c1.2-.5,2.45-.88,4.19-1.5-.94-.13-1.32-.16-1.69-.24-3.66-.76-4.74-1.87-5.39-5.5-.34-1.92-.67-3.85-1-5.77a25.89,25.89,0,0,0-1.49,6.51c-.21,2.36-1.62,3.51-3.6,4.24-.91.33-1.86.52-2.8.78a3,3,0,0,0,.26.31.85.85,0,0,0,.36.17c4.23.61,6.13,3.11,6.14,7.32a20.23,20.23,0,0,0,.79,3.94,11,11,0,0,0,.95-3.19,27.36,27.36,0,0,0,.51-3.33A4,4,0,0,1,449.49,590.78ZM182.83,439.14c1.24.05,2.14-.58,2.11-2.37a2.12,2.12,0,0,0-2.09-2.24c-1.45-.08-2.08.88-2.1,2.27A2,2,0,0,0,182.83,439.14Zm405.25-4.61c-1.52,0-2.1,1.13-2.15,2.53s.85,2.24,2,2c.91-.17,1.68-1.14,2.51-1.75C590.13,435.48,589.54,434.49,588.08,434.53Zm-404-9.38c-.52-.43-2.09-.51-2.39-.12a3.49,3.49,0,0,0-.59,2.78c.45,1.55,1.84,1.37,3.27,1A2.56,2.56,0,0,0,184.06,425.15ZM587.59,313.06c1,1,2.16.66,3-.39.53-3-.31-3.88-3.3-3.25A2.55,2.55,0,0,0,587.59,313.06ZM184.89,313a2.49,2.49,0,0,0,.18-3.63c-1.41-.37-2.8-.51-3.22,1a3.48,3.48,0,0,0,.65,2.76A2.49,2.49,0,0,0,184.89,313Zm405,112.51c-1-1-2.14-1.41-3.14-.35a2.46,2.46,0,0,0-.11,3.65C589.52,429.32,590.25,428.6,589.89,425.5ZM184.82,446.55a2.76,2.76,0,0,0-2-1.64,2.78,2.78,0,0,0-2,1.61c-.49,1.45.45,2.31,2,2.69C184.32,448.84,185.29,448,184.82,446.55Zm403.26-1.64a2.75,2.75,0,0,0-2,1.58c-.49,1.42.41,2.34,2,2.71,1.47-.34,2.46-1.16,2-2.62A2.75,2.75,0,0,0,588.08,444.91ZM438.77,702.64a2,2,0,0,0-2,2.38c.12.8,1,1.48,1.31,1.87,2.15,0,2.75-.86,2.77-2.11A1.89,1.89,0,0,0,438.77,702.64ZM332.8,45.39c.92-.16,1.7-1.14,2.54-1.76,0-.32,0-.65,0-1A8.13,8.13,0,0,0,333,41.27c-1.38-.29-2.08.71-2.13,2S331.47,45.63,332.8,45.39Zm-.66,657.25a1.89,1.89,0,0,0-2.09,2.1c0,1.24.56,2.16,2.72,2.16.29-.38,1.22-1,1.35-1.84A2,2,0,0,0,332.14,702.64ZM439.55,45.47a1.89,1.89,0,0,0,2.07-2.13c0-1.23-.59-2.15-2.74-2.13-.3.39-1.22,1.06-1.34,1.86A2,2,0,0,0,439.55,45.47Zm-216.85.24h.9c.55-.76,1.46-1.47,1.58-2.3a1.81,1.81,0,0,0-2-2.13c-1.35,0-2.22.88-2,2.15C221.28,44.25,222.16,45,222.7,45.71ZM182.88,574.12c-.86.12-1.62,1-2.42,1.58v1c.82.53,1.67,1.51,2.44,1.46a2.89,2.89,0,0,0,1.92-1.91A1.69,1.69,0,0,0,182.88,574.12Zm405,10a1.7,1.7,0,0,0-1.84,2.18,2.89,2.89,0,0,0,2,1.8c.78,0,1.57-1,2.36-1.58,0-.32,0-.65,0-1C589.56,585,588.75,584.13,587.89,584.07Zm-1-283.05a1.69,1.69,0,0,0,1.86,2.16c.86-.07,1.66-.95,2.48-1.47l0-1c-.8-.56-1.6-1.57-2.38-1.55A2.92,2.92,0,0,0,586.85,301Zm-403.24,2.15a1.68,1.68,0,0,0,2-2c-.15-.88-1-1.62-1.6-2.43l-.92,0c-.51.83-1.46,1.69-1.39,2.48A2.82,2.82,0,0,0,183.61,303.17ZM183,594c-.87.08-1.66,1-2.48,1.47l0,1c.79.56,1.6,1.57,2.38,1.55a2.89,2.89,0,0,0,2-1.84A1.69,1.69,0,0,0,183,594Zm403.09,12a2.89,2.89,0,0,0,1.89,2c.77.06,1.63-.9,2.46-1.42l0-1c-.79-.56-1.53-1.48-2.39-1.61A1.69,1.69,0,0,0,586.05,606Zm0,9.92a2.93,2.93,0,0,0,1.86,2c.78.08,1.65-.88,2.48-1.38l0-1c-.78-.58-1.51-1.51-2.37-1.64A1.68,1.68,0,0,0,586.05,615.91Zm.79-503.67a1.69,1.69,0,0,0,1.92,2.11c.87-.11,1.64-1,2.45-1.54v-1c-.81-.54-1.65-1.53-2.42-1.49A2.91,2.91,0,0,0,586.84,112.24Zm-403.72-2.31c-.51.82-1.46,1.69-1.4,2.47a2.85,2.85,0,0,0,1.88,1.94,1.69,1.69,0,0,0,2-2c-.14-.87-1-1.63-1.58-2.43ZM180.47,626.4c.83.52,1.69,1.48,2.47,1.41a2.88,2.88,0,0,0,1.88-1.94,1.68,1.68,0,0,0-2-2c-.86.13-1.6,1-2.39,1.62Zm405.58-.47a2.89,2.89,0,0,0,1.94,1.88c.78.05,1.61-.94,2.42-1.48v-1c-.81-.54-1.58-1.44-2.44-1.54A1.69,1.69,0,0,0,586.05,625.93ZM185.63,102.35c-.17-.87-1.07-1.6-1.65-2.39l-.92,0c-.49.84-1.42,1.72-1.35,2.51a2.85,2.85,0,0,0,1.94,1.89A1.69,1.69,0,0,0,185.63,102.35Zm401.22-10a1.69,1.69,0,0,0,1.87,2.16c.86-.08,1.65-1,2.48-1.48l0-1c-.8-.56-1.61-1.57-2.39-1.55A2.9,2.9,0,0,0,586.85,92.31ZM183.76,94.47a1.7,1.7,0,0,0,1.86-2.17,2.9,2.9,0,0,0-2-1.82c-.78,0-1.58,1-2.38,1.55l0,1C182.1,93.52,182.89,94.39,183.76,94.47Zm403.09-12.1a1.69,1.69,0,0,0,1.86,2.16c.86-.08,1.66-1,2.48-1.47l0-1c-.8-.56-1.6-1.58-2.38-1.55A2.9,2.9,0,0,0,586.85,82.37ZM183.73,84.53a1.69,1.69,0,0,0,1.89-2.13,2.89,2.89,0,0,0-2-1.86c-.78,0-1.6,1-2.4,1.51,0,.33,0,.65,0,1C182.08,83.55,182.86,84.44,183.73,84.53Zm405,184.84a2.93,2.93,0,0,0-1.87,2,1.69,1.69,0,0,0,2,2c.86-.14,1.59-1.07,2.38-1.64l0-1C590.36,270.25,589.48,269.3,588.71,269.37Zm-403.09,1.91a2.91,2.91,0,0,0-1.92-1.91c-.78-.05-1.62.93-2.44,1.46v1c.81.55,1.56,1.46,2.43,1.57A1.69,1.69,0,0,0,185.62,271.28ZM183,637.75a2.88,2.88,0,0,0,1.85-2,1.68,1.68,0,0,0-2-2c-.85.14-1.58,1.07-2.36,1.65l0,1C181.32,636.88,182.2,637.83,183,637.75Zm2.65-376.37a2.89,2.89,0,0,0-1.89-1.94c-.77-.07-1.64.9-2.47,1.41l0,1c.8.57,1.54,1.49,2.4,1.62A1.69,1.69,0,0,0,185.62,261.38Zm403.17-7.89c.86-.12,1.62-1,2.42-1.58v-1c-.82-.53-1.67-1.51-2.45-1.45a2.88,2.88,0,0,0-1.92,1.91A1.69,1.69,0,0,0,588.79,253.49Zm-405,0a1.7,1.7,0,0,0,1.87-2.16,2.91,2.91,0,0,0-2-1.83c-.77,0-1.58,1-2.38,1.55l0,1C182.09,252.54,182.89,253.41,183.75,253.49Zm405-9.94c.86-.11,1.62-1,2.43-1.55,0-.33,0-.65,0-1-.81-.53-1.65-1.52-2.42-1.47a2.94,2.94,0,0,0-1.94,1.9A1.69,1.69,0,0,0,588.78,243.55Zm-405.53-4.44c-.55.8-1.55,1.6-1.54,2.39a2.88,2.88,0,0,0,1.78,2,1.69,1.69,0,0,0,2.14-1.89c-.1-.88-.94-1.68-1.45-2.51ZM587.89,633.76a1.7,1.7,0,0,0-1.84,2.19,2.89,2.89,0,0,0,2,1.8c.78,0,1.57-1,2.36-1.59l0-1C589.56,634.69,588.75,633.82,587.89,633.76Zm-49-588.06.89,0c.56-.75,1.46-1.44,1.61-2.26.24-1.27-.62-2.13-2-2.18a1.79,1.79,0,0,0-2.06,2.08C537.46,44.19,538.34,44.92,538.88,45.7Zm-355.94,602a2.91,2.91,0,0,0,1.89-1.94,1.69,1.69,0,0,0-2-2c-.86.13-1.61,1-2.4,1.61,0,.32,0,.64,0,1C181.3,646.79,182.16,647.76,182.94,647.69ZM586.85,221.54a1.68,1.68,0,0,0,1.89,2.13c.86-.09,1.64-1,2.46-1.5v-1c-.8-.55-1.62-1.55-2.4-1.52A2.88,2.88,0,0,0,586.85,221.54Zm-403.1,2.13a1.7,1.7,0,0,0,1.87-2.16,2.91,2.91,0,0,0-2-1.83c-.77,0-1.58,1-2.38,1.55l0,1C182.1,222.72,182.89,223.6,183.75,223.67Zm405.09,65.59a2.84,2.84,0,0,0-2,1.82,1.69,1.69,0,0,0,1.86,2.16c.86-.07,1.66-.94,2.48-1.46l0-1C590.43,290.25,589.62,289.23,588.84,289.26Zm-2.79,376.39a2.89,2.89,0,0,0,1.91,1.91c.77.06,1.63-.91,2.45-1.43v-1c-.8-.55-1.55-1.47-2.41-1.59A1.69,1.69,0,0,0,586.05,665.65Zm5.14-454.5c-.82-.51-1.69-1.47-2.46-1.41a3,3,0,0,0-1.89,1.95,1.7,1.7,0,0,0,2,2.05c.86-.14,1.6-1.05,2.4-1.62ZM510.05,45.7c.53-.77,1.39-1.49,1.52-2.32a1.69,1.69,0,0,0-2-2,2.9,2.9,0,0,0-1.94,1.91c0,.79,1,1.63,1.51,2.45Zm-9.86,0c.5-.83,1.35-1.63,1.43-2.49a1.68,1.68,0,0,0-2.16-1.85,2.86,2.86,0,0,0-1.81,2c0,.78,1,1.58,1.58,2.37ZM588,454.86a1.68,1.68,0,0,0-1.92,2.11,2.91,2.91,0,0,0,1.94,1.88c.78,0,1.61-.94,2.42-1.48v-1C589.6,455.86,588.83,455,588,454.86ZM490.28,45.69c.5-.84,1.34-1.65,1.4-2.52a1.68,1.68,0,0,0-2.18-1.82,2.91,2.91,0,0,0-1.8,2c0,.79,1,1.57,1.62,2.35Zm-11.09,0,.89,0c.58-.74,1.48-1.4,1.66-2.23.27-1.26-.56-2.14-1.91-2.22a1.79,1.79,0,0,0-2.11,2C477.81,44.15,478.67,44.9,479.19,45.68Zm-19.78,0h.9c.54-.76,1.42-1.46,1.56-2.29.22-1.27-.65-2.12-2-2.15a1.81,1.81,0,0,0-2,2.13C458,44.23,458.86,44.94,459.41,45.7Zm-9.94,0h.89c.55-.76,1.43-1.46,1.57-2.29.22-1.27-.65-2.11-2-2.15a1.81,1.81,0,0,0-2,2.13C448,44.23,448.92,44.94,449.47,45.7Zm-147.39,0,.95,0c.58-.8,1.61-1.61,1.6-2.4s-1.09-1.78-1.88-2a1.69,1.69,0,0,0-2.1,2C300.75,44.15,301.58,44.9,302.08,45.69ZM182.77,468.83a1.67,1.67,0,0,0,2.07-1.95c-.15-.88-1-1.65-1.55-2.47h-.92c-.53.82-1.5,1.67-1.46,2.46A2.85,2.85,0,0,0,182.77,468.83Zm99.6-423.11.94,0c.53-.84,1.5-1.71,1.44-2.5a2.91,2.91,0,0,0-2-1.85,1.68,1.68,0,0,0-2,2.09C280.93,44.27,281.81,45,282.37,45.72ZM586.05,466.88a2.91,2.91,0,0,0,1.92,1.91c.77.06,1.62-.92,2.44-1.45,0-.32,0-.64,0-1-.81-.56-1.56-1.47-2.43-1.58A1.68,1.68,0,0,0,586.05,466.88ZM272.38,45.71h.95c.54-.81,1.53-1.64,1.49-2.43s-1.11-1.73-1.89-1.92a1.67,1.67,0,0,0-2.09,1.92C271,44.14,271.84,44.9,272.38,45.71Zm-10,0h1c.54-.81,1.53-1.65,1.5-2.43A2.89,2.89,0,0,0,263,41.35a1.67,1.67,0,0,0-2.09,1.92C261,44.13,261.89,44.89,262.42,45.7Zm-10,0,1,0c.56-.82,1.57-1.65,1.54-2.44A2.93,2.93,0,0,0,253,41.35a1.69,1.69,0,0,0-2,2C251.08,44.2,251.93,44.92,252.45,45.7ZM221.87,702.4c-.53.77-1.4,1.49-1.52,2.32a1.68,1.68,0,0,0,2,2,2.87,2.87,0,0,0,1.94-1.9c.05-.79-1-1.63-1.51-2.45ZM180.46,477.24c.81.54,1.64,1.53,2.42,1.49a2.91,2.91,0,0,0,1.94-1.88,1.68,1.68,0,0,0-1.91-2.11c-.87.1-1.63,1-2.45,1.53Zm407.46-2.5a1.69,1.69,0,0,0-1.87,2.16,2.9,2.9,0,0,0,2,1.83c.78,0,1.59-1,2.38-1.55l0-1C589.57,475.69,588.78,474.81,587.92,474.74ZM231.75,702.41c-.51.78-1.36,1.52-1.46,2.35a1.68,1.68,0,0,0,2.07,2,2.87,2.87,0,0,0,1.9-2c0-.79-1-1.61-1.56-2.41Zm30.29.44a2.86,2.86,0,0,0-1.92,1.88,1.67,1.67,0,0,0,2,2c.87-.14,1.63-1,2.44-1.56,0-.31,0-.61,0-.92C263.69,703.77,262.84,702.81,262,702.85Zm9.56-.45c-.55.8-1.43,1.56-1.55,2.42a1.67,1.67,0,0,0,2.07,1.94,2.91,2.91,0,0,0,1.9-1.92c.05-.78-.94-1.62-1.47-2.44ZM588.71,193.86c.87-.08,1.66-1,2.48-1.48l0-1c-.8-.56-1.61-1.57-2.39-1.55a2.88,2.88,0,0,0-2,1.84A1.69,1.69,0,0,0,588.71,193.86ZM180.47,487.25c.83.52,1.69,1.49,2.46,1.42a2.91,2.91,0,0,0,1.9-1.94,1.68,1.68,0,0,0-2-2.05c-.86.12-1.6,1-2.4,1.61C180.46,486.61,180.46,486.93,180.47,487.25Zm111,215.14c-.56.79-1.46,1.53-1.6,2.39a1.68,1.68,0,0,0,2,2,2.88,2.88,0,0,0,1.93-1.88c.06-.78-.9-1.64-1.42-2.47ZM182.82,498.61a2.87,2.87,0,0,0,2-1.82,1.69,1.69,0,0,0-1.85-2.17c-.87.07-1.66.94-2.49,1.45l0,1C181.24,497.61,182,498.63,182.82,498.61Zm119.56,203.8-.89,0c-.57.75-1.47,1.43-1.63,2.25-.25,1.27.61,2.14,2,2.2a1.79,1.79,0,0,0,2.07-2.07C303.79,703.92,302.91,703.19,302.38,702.41ZM185.62,191.71a2.91,2.91,0,0,0-2-1.85c-.77,0-1.59,1-2.39,1.53,0,.33,0,.65,0,1,.82.53,1.6,1.41,2.46,1.5A1.7,1.7,0,0,0,185.62,191.71ZM311.31,702.4c-.53.77-1.39,1.49-1.52,2.32a1.7,1.7,0,0,0,2,2c.79-.16,1.91-1.21,1.94-1.91s-1-1.63-1.51-2.45Zm135.81,2.34a2.85,2.85,0,0,0,1.88,2c.79.07,1.67-.9,2.52-1.42,0-.3,0-.61,0-.92-.76-.55-1.46-1.4-2.3-1.57A1.69,1.69,0,0,0,447.12,704.74Zm9.94-.11a1.67,1.67,0,0,0,1.86,2.14c.89-.11,1.68-.94,2.52-1.45,0-.3,0-.61,0-.92-.8-.56-1.6-1.56-2.38-1.55A2.87,2.87,0,0,0,457.06,704.63ZM588.85,134.22c.86-.14,1.59-1.07,2.37-1.64l0-1c-.84-.5-1.72-1.46-2.49-1.38a2.94,2.94,0,0,0-1.86,2A1.68,1.68,0,0,0,588.85,134.22Zm-405.09,49.7a1.7,1.7,0,0,0,1.86-2.17,2.93,2.93,0,0,0-2-1.83c-.78,0-1.58,1-2.38,1.57l0,1C182.09,183,182.89,183.84,183.76,183.92ZM587.94,508.54c.77.07,1.64-.89,2.46-1.41l0-1c-.79-.56-1.53-1.48-2.39-1.61a1.69,1.69,0,0,0-2,2.06A2.88,2.88,0,0,0,587.94,508.54ZM489.33,702.39h-.95c-.53.83-1.52,1.7-1.46,2.48a2.89,2.89,0,0,0,2,1.87,1.69,1.69,0,0,0,2-2.07C490.75,703.85,489.87,703.15,489.33,702.39Zm101.86-531c-.83-.51-1.71-1.46-2.48-1.39a2.93,2.93,0,0,0-1.87,2,1.68,1.68,0,0,0,2,2c.86-.14,1.59-1.07,2.37-1.65Zm-409.93,1.11c.82.53,1.61,1.41,2.47,1.5a1.7,1.7,0,0,0,1.89-2.14,2.89,2.89,0,0,0-2-1.85c-.78,0-1.59,1-2.39,1.53C181.25,171.84,181.26,172.16,181.26,172.48Zm318,529.91-.89,0c-.54.77-1.43,1.5-1.53,2.33a1.8,1.8,0,0,0,2.06,2.09c1.35-.05,2.21-.92,2-2.18C500.67,703.82,499.78,703.13,499.22,702.39ZM588.73,164c.86-.09,1.65-1,2.47-1.49v-1c-.79-.56-1.61-1.56-2.39-1.53a2.9,2.9,0,0,0-2,1.85A1.69,1.69,0,0,0,588.73,164ZM183.21,159.6c-.55.81-1.53,1.64-1.5,2.43a2.87,2.87,0,0,0,1.82,2,1.69,1.69,0,0,0,2.1-1.93c-.12-.88-1-1.66-1.5-2.48ZM509.37,702.42l-1,0c-.59.79-1.62,1.57-1.62,2.35a2.87,2.87,0,0,0,1.79,2,1.68,1.68,0,0,0,2.18-1.81C510.7,704.07,509.86,703.26,509.37,702.42ZM182.3,514.11c-.5.84-1.44,1.71-1.38,2.51a2.86,2.86,0,0,0,1.9,1.91,1.67,1.67,0,0,0,2-2c-.17-.88-1.05-1.62-1.61-2.43ZM529.2,702.42l-1,0c-.58.79-1.6,1.59-1.59,2.37a2.89,2.89,0,0,0,1.83,2,1.67,1.67,0,0,0,2.15-1.85C530.56,704,529.71,703.24,529.2,702.42Zm9.38.39a2.92,2.92,0,0,0-2,1.86c-.08.77.88,1.65,1.39,2.48l1,0c.58-.79,1.49-1.52,1.64-2.38A1.65,1.65,0,0,0,538.58,702.81ZM183.2,653.23l-.92,0c-.5.85-1.43,1.73-1.36,2.52a2.84,2.84,0,0,0,1.92,1.89,1.67,1.67,0,0,0,2-2C184.66,654.77,183.77,654,183.2,653.23Zm1.62-126.67a1.69,1.69,0,0,0-1.9-2.13c-.86.09-1.64,1-2.45,1.52,0,.32,0,.65,0,1,.8.55,1.63,1.55,2.41,1.51A2.9,2.9,0,0,0,184.82,526.56Zm401.23-.08a2.91,2.91,0,0,0,1.89,1.95c.77.06,1.63-.9,2.46-1.42l0-1c-.79-.56-1.53-1.48-2.39-1.61A1.69,1.69,0,0,0,586.05,526.48Zm2.65-382.32c.86-.07,1.66-.94,2.49-1.46l0-1c-.79-.56-1.59-1.58-2.37-1.56a2.92,2.92,0,0,0-2,1.82A1.69,1.69,0,0,0,588.7,144.16Zm-403.07-1.92c-.11-.88-1-1.67-1.48-2.5l-.93,0c-.54.81-1.53,1.63-1.51,2.42a2.84,2.84,0,0,0,1.81,2A1.69,1.69,0,0,0,185.63,142.24ZM586.05,536.42a2.88,2.88,0,0,0,1.88,1.94c.78.07,1.64-.89,2.47-1.41,0-.32,0-.64,0-1-.79-.57-1.53-1.49-2.39-1.62A1.68,1.68,0,0,0,586.05,536.42ZM182.92,603.94c-.86.1-1.64,1-2.45,1.52,0,.33,0,.65,0,1,.8.55,1.63,1.55,2.41,1.51a2.88,2.88,0,0,0,1.95-1.88A1.68,1.68,0,0,0,182.92,603.94Zm-.07-59.63c-.86.13-1.61,1.05-2.4,1.62l0,1c.83.51,1.69,1.48,2.47,1.41a2.88,2.88,0,0,0,1.88-1.94A1.68,1.68,0,0,0,182.85,544.31Zm405.18,0a1.69,1.69,0,0,0-2,2.05,2.89,2.89,0,0,0,1.89,1.94c.77.07,1.64-.89,2.46-1.41,0-.32,0-.64,0-1C589.63,545.36,588.89,544.44,588,544.31Zm-405.11,9.94c-.86.09-1.64,1-2.45,1.52,0,.32,0,.64,0,1,.8.55,1.63,1.55,2.4,1.51a2.88,2.88,0,0,0,2-1.87A1.68,1.68,0,0,0,182.92,554.25Zm405,4c.78.06,1.63-.91,2.45-1.44,0-.32,0-.64,0-1-.8-.56-1.55-1.47-2.41-1.59a1.68,1.68,0,0,0-2,2.06A2.89,2.89,0,0,0,588,558.24Zm-405,6c-.86.07-1.66.94-2.49,1.45l0,1c.79.57,1.59,1.59,2.37,1.58a2.91,2.91,0,0,0,2-1.83A1.69,1.69,0,0,0,183,564.19Zm49.57-518.5,1,0c.57-.81,1.59-1.63,1.57-2.41a2.9,2.9,0,0,0-1.9-2,1.69,1.69,0,0,0-2.08,2C231.19,44.17,232,44.91,232.54,45.69Zm9.89,0,1,0c.58-.78,1.62-1.56,1.62-2.35a2.89,2.89,0,0,0-1.8-2A1.68,1.68,0,0,0,241,43.17C241.09,44,241.93,44.85,242.43,45.68ZM183.64,293.25a1.69,1.69,0,0,0,2-2.05,2.88,2.88,0,0,0-1.88-1.94c-.78-.07-1.64.89-2.47,1.4l0,1C182,292.19,182.78,293.12,183.64,293.25ZM588.81,100.42a2.88,2.88,0,0,0-2,1.86,1.69,1.69,0,0,0,1.9,2.13c.86-.09,1.64-1,2.45-1.52v-1C590.41,101.38,589.58,100.38,588.81,100.42ZM470.25,45.71c.54-.76,1.42-1.46,1.56-2.29a1.69,1.69,0,0,0-2-2.07c-.8.16-1.94,1.18-2,1.88s.94,1.64,1.47,2.47ZM183,534.37c-.86.07-1.66.94-2.49,1.46l0,1c.79.57,1.59,1.58,2.37,1.56a2.87,2.87,0,0,0,2-1.82A1.69,1.69,0,0,0,183,534.37ZM312.19,45.72l.9,0c.54-.77,1.42-1.49,1.54-2.32a1.81,1.81,0,0,0-2.05-2.11c-1.35,0-2.22.91-2,2.18C310.74,44.27,311.63,45,312.19,45.72Zm-20.06,0,.95,0c.58-.8,1.63-1.6,1.62-2.39a2.91,2.91,0,0,0-1.88-2,1.69,1.69,0,0,0-2.11,1.95C290.81,44.14,291.63,44.89,292.13,45.68ZM588.06,578.12c.77,0,1.57-1,2.36-1.57l0-1c-.83-.51-1.63-1.38-2.49-1.45a1.7,1.7,0,0,0-1.86,2.17A2.91,2.91,0,0,0,588.06,578.12ZM181.25,122.74c.81.54,1.58,1.44,2.45,1.55a1.69,1.69,0,0,0,1.92-2.11,2.94,2.94,0,0,0-1.94-1.89c-.78,0-1.61.95-2.42,1.48C181.25,122.09,181.25,122.41,181.25,122.74ZM588.69,279.31a2.92,2.92,0,0,0-1.85,2,1.69,1.69,0,0,0,2,2c.85-.15,1.57-1.09,2.35-1.67l0-1C590.35,280.18,589.47,279.23,588.69,279.31ZM182.43,583.66c-.55.81-1.53,1.63-1.52,2.43a2.87,2.87,0,0,0,1.81,2,1.67,1.67,0,0,0,2.12-1.89c-.13-.89-1-1.68-1.49-2.51ZM181.25,152.5c.8.57,1.55,1.48,2.41,1.6a1.68,1.68,0,0,0,2-2.06,2.89,2.89,0,0,0-1.9-1.93c-.78-.06-1.64.91-2.46,1.43C181.26,151.86,181.25,152.18,181.25,152.5Zm2,126.37c-.54.81-1.53,1.63-1.5,2.42a2.88,2.88,0,0,0,1.82,2,1.7,1.7,0,0,0,2.1-1.93c-.11-.88-1-1.66-1.5-2.49Zm405.48-15.44c.86-.06,1.67-.93,2.5-1.44l0-1c-.78-.57-1.58-1.6-2.36-1.58a2.9,2.9,0,0,0-2,1.8A1.69,1.69,0,0,0,588.69,263.43Zm.15-33.81a2.9,2.9,0,0,0-2,1.83,1.69,1.69,0,0,0,1.86,2.16c.87-.07,1.66-1,2.48-1.47l0-1C590.43,230.61,589.62,229.6,588.84,229.62Zm-403.22,1.94a2.91,2.91,0,0,0-1.89-1.94c-.78-.07-1.64.9-2.46,1.42l0,1c.79.57,1.54,1.49,2.4,1.62A1.69,1.69,0,0,0,185.62,231.56Zm57.12,470.85-.89,0c-.56.75-1.46,1.43-1.62,2.25-.25,1.27.61,2.14,2,2.2a1.81,1.81,0,0,0,2.08-2.08C244.16,703.92,243.28,703.19,242.74,702.41Zm9.26.39c-1.24-.17-1.93.84-1.88,2s.92,2.21,2.21,1.93c.84-.18,1.52-1.07,2.27-1.64l0-.9A8.24,8.24,0,0,0,252,702.8ZM549.71,45.72c.56-.75,1.45-1.43,1.61-2.26a1.7,1.7,0,0,0-2-2.11,2.9,2.9,0,0,0-2,1.84c-.08.78.9,1.67,1.42,2.51ZM184.84,456.89c-.17-.88-1.05-1.63-1.61-2.43l-.92,0c-.51.84-1.45,1.71-1.39,2.5a2.82,2.82,0,0,0,1.9,1.91A1.67,1.67,0,0,0,184.84,456.89Zm-3.57-244.62c.83.51,1.62,1.39,2.49,1.46a1.69,1.69,0,0,0,1.86-2.16,2.87,2.87,0,0,0-2-1.82c-.78,0-1.58,1-2.38,1.55Zm407.48-8.47c.86-.1,1.64-1,2.45-1.52v-1c-.8-.55-1.63-1.55-2.4-1.51a2.9,2.9,0,0,0-2,1.87A1.69,1.69,0,0,0,588.75,203.8ZM586.05,596a2.93,2.93,0,0,0,1.84,2c.78.08,1.66-.86,2.5-1.36l0-1c-.78-.58-1.5-1.52-2.36-1.67A1.69,1.69,0,0,0,586.05,596ZM281.42,702.42c-.5.83-1.36,1.62-1.43,2.49a1.67,1.67,0,0,0,2.15,1.84,2.88,2.88,0,0,0,1.82-2c0-.78-1-1.58-1.58-2.37ZM528.84,45.68l.94,0c.58-.79,1.62-1.59,1.6-2.38a2.94,2.94,0,0,0-1.85-2,1.68,1.68,0,0,0-2.12,1.94C527.49,44.12,528.34,44.88,528.84,45.68Zm-346,458.87c-.86.13-1.61,1.05-2.4,1.62l0,1c.83.52,1.69,1.48,2.47,1.41a2.92,2.92,0,0,0,1.89-1.93A1.7,1.7,0,0,0,182.85,504.55Zm139.58,197.9-.94-.08c-.61.77-1.68,1.53-1.7,2.31a2.92,2.92,0,0,0,1.79,2.07,1.68,1.68,0,0,0,2.18-1.86C323.71,704.05,322.9,703.27,322.43,702.45ZM588,647.69c.78,0,1.62-.93,2.43-1.47v-1c-.81-.54-1.57-1.44-2.44-1.55a1.68,1.68,0,0,0-1.93,2.09A2.88,2.88,0,0,0,588,647.69Zm-68-602c.52-.82,1.4-1.6,1.49-2.46a1.68,1.68,0,0,0-2.12-1.89,2.86,2.86,0,0,0-1.86,2c0,.78,1,1.6,1.53,2.4ZM479.34,702.39l-.95,0c-.51.82-1.48,1.69-1.42,2.47a2.9,2.9,0,0,0,1.95,1.87,1.68,1.68,0,0,0,2-2C480.81,703.91,479.9,703.18,479.34,702.39ZM185.62,132.07a2.93,2.93,0,0,0-2-1.84c-.78,0-1.59,1-2.38,1.54l0,1c.82.52,1.61,1.4,2.48,1.48A1.69,1.69,0,0,0,185.62,132.07Zm-2,71.73a1.69,1.69,0,0,0,2-2.06,2.89,2.89,0,0,0-1.89-1.94c-.77-.06-1.64.9-2.46,1.42,0,.32,0,.64,0,1C182,202.75,182.78,203.67,183.64,203.8ZM322.13,45.72l.94,0c.52-.84,1.5-1.71,1.43-2.5a2.89,2.89,0,0,0-2-1.85,1.69,1.69,0,0,0-2,2.09C320.68,44.27,321.57,45,322.13,45.72ZM586.05,655.79a2.92,2.92,0,0,0,2,1.84c.78,0,1.59-1,2.39-1.54l0-1c-.82-.52-1.61-1.4-2.47-1.48A1.69,1.69,0,0,0,586.05,655.79ZM588,488.67c.78.05,1.61-.94,2.42-1.48v-1c-.81-.54-1.57-1.44-2.44-1.54a1.68,1.68,0,0,0-1.92,2.1A2.9,2.9,0,0,0,588,488.67Zm2.4,7.38c-.83-.51-1.64-1.37-2.5-1.43a1.7,1.7,0,0,0-1.84,2.19,2.91,2.91,0,0,0,2,1.8c.78,0,1.57-1,2.36-1.59C590.42,496.7,590.4,496.37,590.39,496.05ZM184.82,665.66a1.69,1.69,0,0,0-1.94-2.09c-.86.12-1.62,1-2.42,1.57v1c.82.53,1.66,1.51,2.44,1.46A2.91,2.91,0,0,0,184.82,665.66ZM519.14,702.4h-.95c-.53.82-1.51,1.66-1.46,2.45s1.13,1.71,1.91,1.9a1.67,1.67,0,0,0,2.06-2C520.58,704,519.69,703.2,519.14,702.4Zm69.61-518.48c.87-.1,1.64-1,2.45-1.53,0-.32,0-.64,0-1-.81-.55-1.63-1.54-2.41-1.5a2.88,2.88,0,0,0-1.95,1.87A1.69,1.69,0,0,0,588.75,183.92ZM184.84,616c-.13-.89-1-1.68-1.49-2.52l-.91,0c-.55.81-1.54,1.63-1.52,2.43a2.83,2.83,0,0,0,1.8,2A1.67,1.67,0,0,0,184.84,616Zm402-493.92a1.69,1.69,0,0,0,1.84,2.18c.86-.06,1.67-.93,2.5-1.43l0-1c-.78-.58-1.58-1.6-2.35-1.59A2.89,2.89,0,0,0,586.85,122.1ZM549,702.4h-.95c-.55.82-1.56,1.66-1.52,2.45s1.14,1.74,1.93,1.91a1.69,1.69,0,0,0,2-2C550.4,703.9,549.55,703.18,549,702.4Zm-79.52,0h-.95c-.55.82-1.56,1.67-1.51,2.45a2.88,2.88,0,0,0,1.94,1.91,1.69,1.69,0,0,0,2-2C470.89,703.89,470,703.17,469.5,702.4ZM586.05,516.67a2.91,2.91,0,0,0,2,1.82c.77,0,1.57-1,2.36-1.57l0-1c-.82-.52-1.62-1.39-2.48-1.46A1.71,1.71,0,0,0,586.05,516.67Zm2.77-362.57c.86-.12,1.6-1,2.4-1.61,0-.32,0-.64,0-1-.83-.52-1.69-1.49-2.47-1.42a2.91,2.91,0,0,0-1.89,1.94A1.69,1.69,0,0,0,588.82,154.1Zm-.88,414.08c.77.07,1.64-.9,2.46-1.41,0-.33,0-.65,0-1-.79-.57-1.53-1.48-2.39-1.61a1.68,1.68,0,0,0-2,2A2.89,2.89,0,0,0,587.94,568.18ZM390.24,330.24c1.25-2.31,1.68-5.05,2.48-7.6-.38-4-1.73-8.37-3.76-10.72-2.49-2.9-5.39-2.91-7.88,0-3.73,4.3-4.43,13.51-1.4,18.37C382.28,334.42,387.91,334.54,390.24,330.24Zm-6.72.62c-3.31-3.13-3.7-6.77-3.37-10.47s1.14-7.07,4.64-8.91c5.75,1.48,7,15.58,1.76,19,.31-3.14,3.5-5.3,2.61-8.83l-2.23.55c-.42-2.42.36-5.18-1.91-7.34-2.29,2.17-1.48,4.92-1.91,7.37l-2.36-.65C380.13,325.2,383,327.46,383.52,330.86Zm5.82,96.38c2.35-3.25,3-7,3.17-11a53.34,53.34,0,0,0-1.87-6.19A6.13,6.13,0,0,0,379.4,410c-2.61,6-2.3,11.91,1.38,17.36C383.26,431,386.73,430.84,389.34,427.24Zm-6-18c-.22,3-3.33,5.12-2.44,8.68l2.26-.56c.34,2.45-.3,5.16,1.83,7.41,2.35-2.2,1.51-5,2-7.38l2.23.51c.78-3.53-2.25-5.7-2.58-9.09,3.14,3.15,3.64,6.76,3.27,10.48-.35,3.56-1.16,7.05-4.87,9-3.72-2-4.53-5.51-4.85-9.09S380.25,411.9,383.31,409.26Zm-.58-42.15c-.4.71-1,1.33-1,1.93s.74,1.09,1.13,1.62C385,369.23,385,368.54,382.73,367.11Zm-4.59-1.64a9,9,0,0,0-.36,2.31c0,.28,1,.77,1.37.64s1.19-.9,1.13-1.28a5.77,5.77,0,0,0-1.13-1.85Zm13.33,3.13,1.16-1.73-2-1.71-1.78,1.89,1.74,2Zm-3,1.09a2.06,2.06,0,0,0,0-1.74,1.53,1.53,0,0,0-1.31-.27,9,9,0,0,0-1,2l.5.63C387.25,370.09,388.07,370.1,388.44,369.69Zm76.38,138.58c-2.63,6-2.31,11.9,1.36,17.35,2.44,3.62,6,3.49,8.58,0,2.13-3,2.85-6.34,3.33-10a66.65,66.65,0,0,0-2.12-7.31,5.56,5.56,0,0,0-5.67-3.53A5.7,5.7,0,0,0,464.82,508.27Zm7.29-.45c2,.91,3.45,4.26,3.28,8.35s-.79,8-5,10.5c-3.71-2-4.6-5.54-4.88-9.22s.15-7.29,3.5-10.41c-.44,3.52-3.66,5.65-2.75,9.32l2.28-.71c.34,2.44-.3,5.2,1.79,7.48,2.36-2.18,1.51-4.9,2-7.31l2.06.45C475.5,512.82,472.42,510.67,472.11,507.82Zm1.94-97.91c-2.25-2.53-4.83-2.51-7.18-.08-4.25,4.37-5,14.43-1.39,19.33,2.56,3.51,7.71,3.6,9.87-.14,1.4-2.43,1.95-5.35,2.88-8l-.55-.2C477.57,416.78,476.81,413,474.05,409.91Zm-2,18.94c.24-3.11,3.41-5.22,2.58-8.74l-2.18.44c-.55-2.35.36-5.15-2-7.28-2.24,2.2-1.51,4.93-1.87,7.38l-2.37-.65c-.68,3.61,2.3,5.81,2.72,9.06-2.87-2.25-3.33-5.31-3.43-8.41-.18-5.27,1.67-9.27,4.89-10.82C475.9,411.37,477.34,425.22,472,428.85Zm-4.82,38.48c-.08.35.8,1.3,1.24,1.3s1.15-.7,2.12-1.38c-.95-.71-1.58-1.49-2-1.39A2.26,2.26,0,0,0,467.19,467.33Zm-3.48-3.57a7.14,7.14,0,0,0-.59,2.14c0,.33.88,1,1.26.87s1.29-.75,1.27-1.12a5.73,5.73,0,0,0-.94-2Zm9.33,2.16c-.47.08-1.18.6-1.21,1a5,5,0,0,0,.58,1.88l.86,0a8.74,8.74,0,0,0,.83-2.05C474.13,466.53,473.36,465.87,473,465.92Zm4.95-.41c-1.4-1.85-2-1.8-3,.27l1.6,1.36ZM298.45,343.85a7.07,7.07,0,0,0,5.18-4.12,18.24,18.24,0,0,0,1.07-14.62c-1.15-3.37-3.23-4.89-6.2-4.9s-5.15,1.52-6.31,5a18.15,18.15,0,0,0,1.13,14.58A7,7,0,0,0,298.45,343.85Zm-1.75-20.74c-.17,3-3.2,5.13-2.43,8.63l2.21-.46c.76,6,.76,6,2.06,7.19,2.1-2.06,1.42-4.75,1.75-7.3l2.39.65c.67-3.59-2.27-5.82-2.75-9.15,3.29,2.91,3.64,6.48,3.41,10.11s-1.13,7.17-4.79,9.34c-3.82-1.92-4.59-5.43-5-9C293.18,329.43,293.73,325.85,296.7,323.11Zm6.64-78.56a30.14,30.14,0,0,0,2.43-6.38c-.16-5.64-.78-9.67-3.8-12.87-2.27-2.42-4.74-2.39-7,0-4.23,4.35-5,14.39-1.48,19.31C296,248.09,301.11,248.24,303.34,244.55Zm-6.54-.5c-2.17-1.13-3.68-5-3.29-9.24.34-3.77,1-7.49,4.94-9.67,3.56,1.92,4.48,5.21,4.82,8.69.39,3.87.06,7.63-3.35,10.89.25-3.47,3.61-5.57,2.67-9.19l-2.28.61c-.37-2.41.33-5.14-1.84-7.46-2.28,2.22-1.5,4.93-2,7.32l-2.23-.41C293.56,239,296.42,241.19,296.8,244.05Zm-5.19,35.22a8.11,8.11,0,0,0-.43,2.29c0,.27,1,.78,1.36.67s1.22-.86,1.17-1.23a5.81,5.81,0,0,0-1.09-1.87Zm4.9,2c-.47.53-1.22,1-1.33,1.61-.08.44.65,1,1.37,2.07.63-1.08,1.27-1.69,1.23-2.27S297,281.7,296.51,281.23Zm8.15,1.31,1.75-1.83a8.6,8.6,0,0,0-2.4-.91c-.25,0-.81,1-.72,1.51S304.12,282.09,304.66,282.54Zm-3.24,1.71a9.08,9.08,0,0,0,.67-2.07c0-.26-.77-.85-1.09-.79-.47.1-1.16.62-1.19,1a5.38,5.38,0,0,0,.59,1.88ZM293.9,526.6c2.29,2.7,5,2.71,7.47.15,4.14-4.32,4.82-14.34,1.31-19.15-2.57-3.53-7.85-3.57-10,.24-1.35,2.38-1.88,5.23-2.78,7.87l.55.19C290.49,519.82,291.29,523.53,293.9,526.6Zm2.32-19c-.47,3.43-3.48,5.6-2.71,9l2.25-.39c.1,1.23.11,2.47.33,3.68a10.22,10.22,0,0,0,1.33,3.38c2.44-2,1.78-4.68,2.09-7.23l2.38.7c.72-3.6-2.25-5.82-2.71-9.13,3.28,2.81,3.62,6.32,3.42,9.87-.21,3.75-1.05,7.32-4.91,9.54-3.9-2.25-4.67-5.89-4.93-9.6C292.52,514,293,510.54,296.22,507.58Zm7-78.9c2.82-4.83,2.11-13.6-1.46-17.9-2.65-3.2-5.71-3.17-8.23.15-2.24,3-3,6.4-3.54,10.2.72,2.5,1.09,5.19,2.25,7.48C294.69,433.4,300.5,433.33,303.22,428.68Zm-8.86-3.81A30.09,30.09,0,0,1,296,429c-2.92-2.49-3.47-5.91-3.22-9.41.26-3.72,1.09-7.34,4.79-9.56,3.34,1.51,4.34,4.44,4.83,7.54.67,4.27.42,8.4-3,11.63.09-3,3.31-5.16,2.56-8.85l-2.39.65a33.67,33.67,0,0,0-.25-3.92,26,26,0,0,0-1.11-3.51c-1.73,1.26-1.73,1.26-2.42,7.29l-2-.38C292.78,422.23,293.77,423.53,294.36,424.87ZM291,464.13a6.17,6.17,0,0,0-.62,2.11c0,.36.95.94,1.41.89s1.23-.81,1.19-1.18a5.69,5.69,0,0,0-1-1.92Zm4.8,2c-.47.53-1.19,1-1.3,1.59s.63,1,1.35,2.07c.63-1.1,1.25-1.71,1.22-2.28S296.2,466.62,295.75,466.16Zm4.9,3a9,9,0,0,0,.67-2.08c0-.25-.76-.85-1.08-.79-.47.09-1.17.61-1.2,1a5.41,5.41,0,0,0,.58,1.89Zm2.76-2.1a4.94,4.94,0,0,0,1.82-.77c0-.33,0-.67-.05-1a6.67,6.67,0,0,0-1.91-.59c-.28,0-.82.77-.77,1.13S303.1,467.07,303.41,467.06ZM465.62,323.21c-2.75,4.81-2.05,13.41,1.43,17.72,2.63,3.26,5.84,3.24,8.36-.13,2.23-3,3-6.42,3.46-10.19a68.88,68.88,0,0,0-2.15-7.3,5.49,5.49,0,0,0-5.49-3.5A6.07,6.07,0,0,0,465.62,323.21Zm10.56,8.69c-.26,4.66-2.27,9.14-5.28,9.67-3.27-1.74-4.18-5-4.54-8.48-.4-3.87,0-7.59,3.37-10.95-.3,3.55-3.58,5.65-2.68,9.32l2.3-.71c.4,2.48-.4,5.21,1.87,7.42,2.24-2.11,1.39-4.83,1.95-7.2l2.18.34c.75-3.42-2.15-5.56-2.5-8.42C475,323.94,476.42,327.71,476.18,331.9ZM475,225.2c-2.4-2.72-5-2.77-7.45-.17-4.12,4.36-4.86,14.1-1.46,19,2.64,3.81,8,3.84,10.23-.21,1.3-2.34,1.8-5.13,2.67-7.72l-.55-.18C478.49,231.8,477.15,227.64,475,225.2Zm-2.24,19.06c.25-3.46,3.49-5.57,2.56-9.09l-2.12.48c-.65-2.31.36-5.16-2-7.27-2.29,2.18-1.43,4.94-1.88,7.38l-2.41-.69c-.58,3.56,2.3,5.81,2.82,9.24-3.2-2.91-3.65-6.31-3.47-9.8.19-3.83,1.05-7.47,4.91-9.81,3.85,2.29,4.68,5.91,4.94,9.63C476.37,237.84,475.83,241.26,472.75,244.26Zm-4.18,36.49a7,7,0,0,0-.55,2.16c0,.33.92.93,1.29.84s1.3-.8,1.27-1.19a5.53,5.53,0,0,0-1-1.94Zm-3.85-2c-.33.61-1,1.23-.9,1.81a1.79,1.79,0,0,0,1.29,1.25,1.82,1.82,0,0,0,1.28-1.28c0-.57-.59-1.19-.93-1.78ZM479,281.05l-.15-.91a5.52,5.52,0,0,0-1.88-.79c-.33,0-1.05.85-1,1.17.15.61.74,1.1,1.33,1.89Zm-5.1,0c-.52.16-1.27.65-1.31,1.08s.44,1.21.71,1.82h.8a8.42,8.42,0,0,0,.8-2C474.89,281.63,474.09,280.94,473.85,281ZM365.05,116.43l-2.16,1.73a11.52,11.52,0,0,0,2.64,1c2.44.23,4.88.45,7.33.45,9.4,0,18.79-.07,28.19-.13,1.19,0,2.38-.09,3.57-.16s2.08-.59,2.1-1.9-.81-1.87-2-2l-1.87-.15c-1.82-5.46-3.6-10.77-5.45-16.29l4.17-11.59a7.47,7.47,0,0,0,2.49-.37c.7-.36,1.63-1.2,1.6-1.8s-1-1.37-1.67-1.81c-.44-.27-1.16-.11-1.75-.11-4.77,0-9.54,0-14.3.1-6.88.1-13.77.21-20.64.43-1.2,0-3.08-.17-3.14,1.59,0,.7,1.55,1.46,2.4,2.19l.4-.38,5.1,12.4c-1.27,2.87-2.53,5.57-3.68,8.32S366.13,113.66,365.05,116.43Zm32.66-1h-6.14c.94-3,1.84-5.84,2.74-8.69l.56,0Zm-.22-27.92-2.56,6.33-4-6.33Zm-10.23,0c1.54,3.92,3.11,7.84,4.59,11.79a3.39,3.39,0,0,1,.07,2.09c-1.45,4.73-3,9.44-4.57,14.39H383.5l-6.38-16,5.73-12.3Zm-16.44,0h7.87l-4,7Zm3.34,18.21c1.52,3.58,2.89,6.77,4.36,10.21h-8.89C371.13,112.53,372.59,109.26,374.16,105.71Z"/></svg>