<svg xmlns="http://www.w3.org/2000/svg" viewBox="0 0 750 750"><path d="M606.11,375.06V50.79c0-1.2,0-2.39,0-3.58C605.9,34.36,596.4,25,583.54,25h-397a21.87,21.87,0,0,0-21.9,21.85q0,328.16,0,656.31a20.81,20.81,0,0,0,.59,4.91c2.63,10.65,11.17,16.93,22.92,16.93H583.78c8.15-.14,14.54-3.52,19-10.39,2.7-4.17,3.35-8.82,3.35-13.68Q606.1,538,606.11,375.06ZM587.24,720.59a23.09,23.09,0,0,1-4.16.28H187.63c-11.39,0-18.93-7.54-18.93-18.91V47.84c0-11.13,7.58-18.73,18.69-18.73H583c11.4,0,19,7.53,19,18.89V701.93C602,711.64,596.3,718.87,587.24,720.59ZM318.3,566.75c-.4.52-.72,1.1-1.08,1.65.62.32,1.22.88,1.85.92,4,.3,7.66-.69,10.33-3.92.69-.84.75-2.41,1.55-2.9,1.84-1.13,4-2.63,6-2.52,9.51.54,19,1.56,28.32,2.39,6.11-.39,12-.84,17.86-1.15a333.69,333.69,0,0,0,41.22-4.89c2.34-.42,4.67-1,7-1.61a2.23,2.23,0,0,0,1.34-1.44c.08-.41-.57-1.15-1.07-1.46a16.86,16.86,0,0,0-3-1.47,93.63,93.63,0,0,0-26.95-5.69,468.46,468.46,0,0,0-64.35.06c-.53,0-1.49-.29-1.59-.64-.51-1.72-1.74-1.91-3.24-2-2.06-.1-2.58-.89-1.83-2.86.48-1.29,1.29-2.46,1.89-3.71.88-1.83-.12-3.55-2-3.17-4,.84-7.78,2.38-9.33,6.54-.8,2.15-1.87,3.32-4.09,3.37a6.5,6.5,0,0,1-2.36-.34c-1.42-.52-2.73-1.34-4.17-1.81-8.85-2.89-17.94-2.73-27-1.46-6.34.9-12.55,2.69-18.85,3.93a27.55,27.55,0,0,1-16.2-1.39c-1.65-.69-2.66.08-3.58,1.22-3.27,4-3.38,11.05-.43,15.33,1.17,1.7,2.42,2,4.2,1.14,6.65-3.24,13.53-3.28,20.56-1.51s14.21,3.82,21.42,5.24c6.84,1.35,13.82,1.76,20.64-.47,2.23-.73,4.34-2.36,6.75-.51,0,0,.13,0,.19,0,2.5.34,2.87,1.09,1.53,3.26C319.41,565.59,318.78,566.12,318.3,566.75Zm90.92-11.12c-7.71.71-15.44,1.22-23.13,2.12-14.13,1.65-28.27,1.4-42.42.34a3.6,3.6,0,0,1-1.52-.49c.11-.81.18-2,.71-2.3a8.85,8.85,0,0,1,4.14-1.6q16.29-.18,32.57,0c9.65.09,19.31.38,29,.57,1.83,0,3.65,0,5.48,0l.09.76C412.48,555.2,410.86,555.48,409.22,555.63Zm-72.83-6.85c0-.38.81-1,1.28-1,4-.34,8.05-.52,12.08-.83a309.66,309.66,0,0,1,50.41.31c7.35.62,14.61,2.42,21.91,3.7a1.93,1.93,0,0,1,1.14.76c-2.92,0-5.85,0-8.77,0-2.58,0-5.15-.2-7.73-.27-11.32-.3-22.64-.66-34-.85-8.53-.14-17.08,0-25.62-.06a9.08,9.08,0,0,0-1.38.13c-4.45.72-6.21,2.71-6.24,7.17h-3.18C336.33,554.69,336.29,551.73,336.39,548.78Zm-88.89,6.89c-.09.12-.77,0-1-.21-2.06-2.07-1.4-9,.89-10.81a57,57,0,0,0-.55,6.08,20.49,20.49,0,0,0,.92,3.81A1.52,1.52,0,0,1,247.5,555.67ZM259,549c-.09,3.84-.09,3.82-3.82,4.44a17.71,17.71,0,0,0-3.08.73c-1.38.5-2,.08-2.1-1.33-.07-.92-.19-1.84-.26-2.47s0-1.09.07-1.49c.31-3,.72-3.3,3.67-2.94a32.67,32.67,0,0,0,3.55.4c1.46,0,2,.68,2,2.07C258.94,548.59,259,548.79,259,549Zm55.47,9a28,28,0,0,1-13.55,2.48,88,88,0,0,1-13.14-1.72c-5.89-1.26-11.66-3.06-17.51-4.48-2.87-.7-5.81-1.06-8.74-1.57-.27-1.85.45-2.3,2.33-2.2,6,.32,12,.39,18.07.56.69,0,1.38.07,2.08.11,0,.24.05.48.07.72l-3.71.58-.26.39c1,.42,2,1.31,2.85,1.17a10.73,10.73,0,0,0,4.56-1.86c1.08-.82,1.64-1.09,2.61-.08,2.88,3,4.13,3,7.06-.07,1-1.07,4-.81,4.88.42,1.67,2.35,4.57,2.72,6.16.93a20.17,20.17,0,0,1-3.44-1.66c-.42-.3-.52-1.36-.43-2,.22-1.6,1.6-2.15,4.49-2.18a8.25,8.25,0,0,0-2-1.51,3.89,3.89,0,0,0-4.5,1.16,4,4,0,0,1-5.8.39,4.3,4.3,0,0,0-6.36.23c-1.18,1.18-2,1.3-2.9-.31-1.07-1.87-3-2.36-5-2.23a6.63,6.63,0,0,0-2.21,1c.05.17.11.34.17.51l3.84,1c0,.2-.05.39-.08.59a3.88,3.88,0,0,1-1,.28c-6.55.06-13.11.12-19.66.08-.5,0-1-.82-1.5-1.26.44-.43.82-1.1,1.33-1.23,5-1.21,10-2.35,15.08-3.47a66.84,66.84,0,0,1,33.59.68c2.42.71,3.87,2,3.83,4.76,0,2.51.14,5,.27,7.53A2.12,2.12,0,0,1,314.42,558Zm4.47.65c0-2.38.09-4.62,0-6.84s-.46-4.44-.69-6.57c.22-.2.32-.36.42-.36,2.68,0,4.33-.94,4.92-3.87.42-2.1,2.08-3.59,4.54-4.53-.21,1-.39,1.82-.53,2.62-.57,3.35.77,5.25,4.07,6a2,2,0,0,1,1.25,1.35c.31,3.74.54,7.49.61,11.25,0,.51-.95,1.39-1.57,1.5-2.21.39-3.81,1.15-4.82,3.46-.6,1.37-2.34,2.24-3.87,3.61,0-2.61.33-4.43-.07-6.07C322.56,557.92,320,559.57,318.89,558.63Zm-77-87c1.09,1.52,2.25,1.87,3.89,1.07,7-3.42,14.16-3.33,21.51-1.4,6.92,1.81,13.83,3.71,20.85,5.08,6.78,1.33,13.68,1.67,20.44-.49,2.23-.72,4.34-2.4,6.75-.52,0,0,.13,0,.2,0,2.5.35,2.89,1.09,1.54,3.24a25.51,25.51,0,0,1-1.67,1.94,15,15,0,0,0-.93,1.54c.55.32,1.07.86,1.64.91,4.27.37,8-.68,10.78-4.2.58-.76.6-2.21,1.29-2.59,2-1.09,4.15-2.6,6.17-2.49,9.45.52,18.87,1.52,28.09,2.34,5.82-.37,11.36-.78,16.91-1.07a341.35,341.35,0,0,0,42.41-5c2.28-.41,4.54-.94,6.76-1.57a2.31,2.31,0,0,0,1.35-1.45c.08-.41-.56-1.15-1.06-1.46a16,16,0,0,0-3-1.47A93.71,93.71,0,0,0,399,458.38a468.2,468.2,0,0,0-64.55.05c-.53,0-1.49-.28-1.59-.62-.51-1.72-1.72-1.93-3.23-2-2.06-.09-2.6-.9-1.86-2.86.49-1.29,1.3-2.45,1.9-3.7.88-1.84-.1-3.56-1.94-3.18-4,.83-7.79,2.37-9.34,6.53-.8,2.14-1.85,3.34-4.08,3.38a6.68,6.68,0,0,1-2.36-.33c-1.42-.52-2.73-1.35-4.17-1.82C299,451,290,451.1,281,452.36c-6.4.9-12.68,2.7-19,3.95a27.55,27.55,0,0,1-16.2-1.38c-1.66-.69-2.66.06-3.59,1.2C238.86,460.2,238.78,467.33,241.86,471.62Zm164.62-2.28c-8.44.76-16.91,1.26-25.31,2.28-13.43,1.62-26.83,1.06-40.25.18-.57,0-1.59-.45-1.58-.65,0-.74.2-1.82.7-2.12a9.1,9.1,0,0,1,4.15-1.61q16.38-.19,32.76,0c9.53.08,19.05.37,28.58.55,1.93,0,3.87,0,5.81,0l0,.74C409.73,468.91,408.11,469.19,406.48,469.34Zm-72.77-7.87c16.83-1.1,33.75-2.13,50.77-1.38,12.17.54,24.2,1.78,35.94,5.26-3.12,0-6.24,0-9.36,0-1,0-2-.23-3-.25q-28.41-.52-56.81-1c-2.32,0-4.64.09-7,.15a9.41,9.41,0,0,0-1.18.11c-4.55.64-6.4,2.7-6.4,7.21h-3Zm-17.92-2.9c2.67,0,4.35-.91,4.93-3.86.41-2.11,2.09-3.59,4.52-4.54-.24,1.34-.5,2.36-.59,3.39-.25,2.87,1.17,4.61,4,5.24a2.17,2.17,0,0,1,1.45,1.36c.32,3.75.55,7.5.62,11.26,0,.51-.95,1.38-1.57,1.49-2.22.4-3.82,1.15-4.82,3.47-.6,1.37-2.34,2.24-3.81,3.56,0-2.39.28-4.18-.06-5.84-.52-2.51-3.17-.81-4.65-2V458.59C315.6,458.74,315.7,458.57,315.79,458.57Zm-55,5.66c6.09.21,12.18.36,18.27.53.69,0,1.38.08,2.07.12,0,.24.05.48.07.72l-3.72.56-.26.4c1,.42,2,1.31,2.86,1.17a10.8,10.8,0,0,0,4.56-1.87c1.08-.81,1.65-1.08,2.61-.07,2.86,3,4.1,3,7.05-.08,1-1.06,4-.79,4.89.43,1.67,2.35,4.45,2.71,6.28.9a19.81,19.81,0,0,1-3.5-1.52c-.44-.29-.57-1.35-.52-2,.12-1.57,1.4-2.13,4.21-2-.62-2.29-3.88-2.81-5.88-1-2.38,2.24-3.8,2.31-6.53.36a4.34,4.34,0,0,0-5.79.39c-1.63,1.53-1.86,1.51-3.09-.26-1.76-2.53-5.59-2.9-7-.53l3.88,1-.06.58a3.5,3.5,0,0,1-1,.31c-6.56.06-13.11.12-19.67.08-.51,0-1-.81-1.51-1.25.43-.42.8-1.11,1.31-1.23,5-1.21,10-2.35,15.08-3.48a66.88,66.88,0,0,1,33.6.68c2.43.71,3.87,2,3.84,4.76,0,2.58.24,5.15.18,7.72a2.65,2.65,0,0,1-1.27,1.89,26,26,0,0,1-13.69,2.64,89.55,89.55,0,0,1-13.35-1.77c-5.75-1.22-11.39-3-17.12-4.38-2.88-.7-5.83-1.08-8.78-1.61C258.57,464.27,258.75,464.15,260.84,464.23Zm-13.24-3.89a2,2,0,0,1,1.63-.85,30.61,30.61,0,0,1,5.31.67,2.35,2.35,0,0,1,1.51,1.53,12.42,12.42,0,0,1-.26,3.93,1.94,1.94,0,0,1-1.26,1.15c-2.18.51-4.4.87-7,1.36C246.88,465.47,246.49,462.89,247.6,460.34Zm-3.13-1.94c-.1,2.31-.29,4.7-.25,7.09a17.1,17.1,0,0,0,.8,2.82c.08.34-.2.76-.32,1.13-.37-.15-.89-.21-1.09-.49C241.77,466.4,242.35,460.63,244.47,458.4Zm8-248.83c-1.66-.69-2.66.08-3.58,1.23-3.32,4.13-3.39,11.18-.3,15.48,1.1,1.53,2.26,1.85,3.89,1.06,6.91-3.38,14-3.35,21.31-1.44,7,1.82,14,3.74,21,5.12,6.85,1.34,13.83,1.74,20.63-.56,2.18-.75,4.23-2.24,6.55-.45a.43.43,0,0,0,.2,0c2.57.35,2.94,1.13,1.48,3.37a25.06,25.06,0,0,1-1.71,1.9c-.34.42-.87,1-.76,1.38a2.06,2.06,0,0,0,1.34.94c3.81,1,9.49-1.38,11.45-4.76.39-.67.4-1.85.93-2.12,1.94-1,4.07-2.49,6-2.38,9.44.54,18.86,1.54,28,2.36,5.72-.36,11.13-.76,16.54-1a339.87,339.87,0,0,0,42.79-5c2.34-.42,4.66-1,7-1.62a2,2,0,0,0,1.25-1.3,2.08,2.08,0,0,0-1-1.51,16.06,16.06,0,0,0-3.2-1.56,101.25,101.25,0,0,0-29.12-5.85,482.73,482.73,0,0,0-62.15.25c-.52,0-1.44-.32-1.56-.69-.51-1.59-1.61-1.87-3.07-1.92-2.26-.09-2.79-.94-1.91-3.1.49-1.22,1.27-2.32,1.84-3.51.86-1.82-.18-3.53-2-3.13-4,.85-7.78,2.4-9.3,6.57-.79,2.18-1.92,3.27-4.1,3.34a6.22,6.22,0,0,1-2.35-.36c-1.42-.53-2.74-1.34-4.18-1.81-8.85-2.88-17.93-2.72-27-1.44-6.27.88-12.42,2.65-18.64,3.9A27.85,27.85,0,0,1,252.51,209.57Zm-1,14.49c-.39-.12-.92-.12-1.13-.39-1.93-2.43-1.28-8.75,1.18-10.86a22.65,22.65,0,0,0-.81,4.68,40.68,40.68,0,0,0,1,5.39A3.92,3.92,0,0,1,251.54,224.06Zm166.55-.57c-23.9,2.47-47.78,5.51-72,2.67a2.4,2.4,0,0,1,1.43-3.08,12,12,0,0,1,4.35-1.07c13.7.1,27.39.35,41.09.5,6.68.08,13.37.05,20.05.07h5Zm-77.74-6.38c0-.33.55-.83.94-1a10.35,10.35,0,0,1,2.54-.4c15.48-.64,30.94-1.8,46.47-1.07,11.54.54,23,1.56,34.25,4.24a8.26,8.26,0,0,1,2.63,1c-3.2,0-6.4,0-9.61,0-.92,0-1.84-.21-2.77-.23q-28.11-.53-56.22-1c-2.51,0-5,0-7.54.18a12.57,12.57,0,0,0-3.48.74c-3.37,1.25-4.28,2.78-4,6.53h-3.29C340.31,223,340.28,220.07,340.35,217.11Zm-17.83-3.94c3.41.71,4.27-1.81,5.35-4.53.61-1.55,2.27-2.69,3.45-4l.63.42c-.18.94-.4,1.87-.52,2.82-.38,3,1,4.92,4,5.58.54.12,1.33.76,1.37,1.22.32,3.81.56,7.63.64,11.45,0,.5-1,1.34-1.61,1.46-2.1.42-3.82,1-4.67,3.34a4.72,4.72,0,0,1-4,3.05c0-2,.33-3.79-.08-5.43-.57-2.26-3.13-.59-4.56-1.83Zm-54.82,5.67c6,.34,12,.4,18.06.58.74,0,1.49.09,2.23.14l0,.72-3.78.52c1.3,2.17,5,2.38,6.91.15,1.33-1.58,2.09-1.5,3.36,0,2,2.39,4.39,2.24,6.31-.18a3.49,3.49,0,0,1,5.32.26c1.51,2.07,4.26,2.36,6.53.29-2.69.13-4.91-.41-4.34-3.38.43-2.23,2.37-2.09,4.44-1.57a3.81,3.81,0,0,0-6.41-.95,4,4,0,0,1-5.95.39,4.29,4.29,0,0,0-6.22.24c-1.24,1.26-2,1.34-3-.32-1.61-2.63-5.43-3-7.05-.66l3.92,1.11-.13.7c-.62.05-1.24.14-1.86.15l-18.47.1c-.91,0-1.69.06-1.8-1.22s.82-1.21,1.64-1.39c4.52-1,9.06-1.94,13.55-3.06a66.43,66.43,0,0,1,34.73.32c2.51.71,4,2.06,3.94,4.9-.06,2.5.26,5,.17,7.52a2.91,2.91,0,0,1-1.37,2,26.16,26.16,0,0,1-13.7,2.59,88.17,88.17,0,0,1-13.15-1.74c-5.82-1.24-11.52-3-17.31-4.43-2.87-.7-5.82-1.07-8.84-1.61C265.26,219.42,265.67,218.72,267.7,218.84ZM263,216.77c0,.6-.05.73-.06.87-.2,3.59-.2,3.58-3.69,4.14a12.78,12.78,0,0,0-2.89.66c-1.82.74-2.48,0-2.45-1.72,0-1.83.15-3.67.36-5.49.11-1,.79-1.36,1.88-1.14a25.62,25.62,0,0,0,4.52.56C262.49,214.67,263.16,215.5,263,216.77Zm-17.15,91c1.08,1.51,2.24,1.92,3.89,1.11,7-3.46,14.28-3.33,21.7-1.37,7,1.84,13.95,3.84,21,5.09,7.86,1.39,15.83,2,23.35-1.91a2.31,2.31,0,0,1,1.47,0,30.83,30.83,0,0,0,3.18.9c1.34.18,1.63,1,1.13,1.91a30.73,30.73,0,0,1-2.39,3.33c-.29.4-.86.95-.76,1.21a1.94,1.94,0,0,0,1.23,1,12,12,0,0,0,3.54.07c4.07-.68,7.49-2.31,8.81-6.66,2.09-.92,4.23-2.71,6.27-2.6,9.38.5,18.73,1.52,27.92,2.34,5.85-.37,11.46-.78,17.08-1.07a341.56,341.56,0,0,0,42.41-5,57.07,57.07,0,0,0,6.95-1.65c1.65-.51,1.76-1.82.31-2.73a19.27,19.27,0,0,0-3.39-1.64,91.74,91.74,0,0,0-26.16-5.58,464.65,464.65,0,0,0-64.95,0c-.54,0-1.5-.27-1.6-.61-.51-1.71-1.7-1.94-3.22-2-2.08-.08-2.62-.88-1.88-2.83.48-1.29,1.41-2.42,1.85-3.72a3.47,3.47,0,0,0-.18-2.56,2.35,2.35,0,0,0-2.09-.57c-4.51,1.11-8.29,3.17-9.69,8.08a2.2,2.2,0,0,1-1.2,1.3c-2,.63-4,1.1-5.91-.59a7.1,7.1,0,0,0-2.55-1c-8.92-2.91-18.07-2.8-27.16-1.51-6.35.9-12.56,2.68-18.85,3.93a27.46,27.46,0,0,1-16.2-1.38c-1.66-.69-2.66,0-3.6,1.18C242.84,296.34,242.74,303.46,245.82,307.76Zm147.77-.52c-5.4.51-10.81,1.1-16.23,1.22-8.26.18-16.53,0-24.8-.07-2.51,0-5-.23-7.53-.42a8.28,8.28,0,0,1-1.78-.54c.26-.78.29-1.94.83-2.27a9.13,9.13,0,0,1,4.16-1.58c8.2-.23,16.41-.38,24.62-.29,12.83.15,25.67.5,38.5.79,1.3,0,2.6.16,3.9.25,0,.23,0,.46,0,.69C408.05,305.77,400.83,306.57,393.59,307.24Zm-55.92-9.63c29-1.85,58-3.61,86.72,3.46l.05.56a17.73,17.73,0,0,1-1.92.15c-16.35-.45-32.69-1-49-1.36-8.35-.18-16.69-.07-25,0a10.65,10.65,0,0,0-3.48.68c-3.52,1.26-4.45,2.78-4.15,6.59h-3.14Zm-16.95-3c2.21,0,3.27-.94,3.74-3.18s2.12-4,4.8-5.18c-.22,1.09-.4,1.87-.54,2.66-.59,3.34.76,5.29,4,6,.49.12,1.19.73,1.23,1.16.31,3.87.55,7.76.64,11.64,0,.45-.94,1.23-1.54,1.33-2.22.36-3.82,1.12-4.83,3.44-.6,1.37-2.33,2.25-3.87,3.63,0-2.6.32-4.41-.08-6.06-.55-2.32-3.1-.66-4.15-1.52-.26-4.41-.54-8.6-.69-12.8C319.46,295.4,320.28,294.63,320.72,294.63Zm-55.78,5.73c6,.33,12.05.4,18.07.57.7,0,1.4,0,2.11,0l.11.81-3.78.6c1.39,2.22,5.16,2.31,7.06,0,1.22-1.49,2-1.31,3.09,0,2.13,2.52,4.49,2.44,6.45,0a3.57,3.57,0,0,1,5.22.1,4,4,0,0,0,6.11.92,21,21,0,0,1-3.48-1.82,2.34,2.34,0,0,1-.37-2c.64-2.18,2.39-2.09,4.24-1.62l.25-.54a9.39,9.39,0,0,0-2.11-1.46c-1.53-.53-3.23-.41-4.14,1s-2.32,1.62-3.77,1.51a3.85,3.85,0,0,1-2.05-.78c-2.34-1.95-4.52-2-6.68.13-1.11,1.09-1.87,1.19-2.78-.29-1.7-2.75-5.51-3.21-7.15-.81l3.92,1.1-.13.7c-.62,0-1.24.14-1.86.14-6.16,0-12.32.06-18.48.11-.92,0-1.69,0-1.79-1.23s.84-1.21,1.65-1.38c4.52-1,9.06-1.94,13.55-3.06a66.26,66.26,0,0,1,34.74.33c2.51.71,4,2.09,3.92,4.9-.05,2.38.1,4.76.27,7.13.1,1.45-.58,2.1-1.82,2.65a29.13,29.13,0,0,1-13.78,2.34,84.26,84.26,0,0,1-12.75-1.75c-5.88-1.28-11.65-3.06-17.5-4.49-2.81-.68-5.7-1-8.61-1.52C262.45,300.87,263,300.25,264.94,300.36ZM251,298.25c.43-2.61.7-2.8,3.31-2.47,1.38.17,2.75.39,4.14.47,1.19.06,1.63.67,1.65,1.75,0,.2,0,.4,0,.6,0,4,0,4.1-3.93,4.72-.52.09-1,.19-1.55.32-3.53.86-3.53.86-3.73-2.81,0-.27,0-.53,0-.8h-.06C250.92,299.44,250.93,298.84,251,298.25Zm-2.17-4a19.62,19.62,0,0,0-.85,4.34,52.51,52.51,0,0,0,1,5.79,3.87,3.87,0,0,1-.18,1.19c-.39-.11-.93-.09-1.14-.35C245.7,302.83,246.33,296.51,248.86,294.24ZM244.5,389.9c1.15,1.66,2.36,2.12,4.18,1.22,6.71-3.29,13.65-3.3,20.75-1.5s14.2,3.89,21.42,5.21c8,1.46,16.08,2.07,23.74-1.83a2.27,2.27,0,0,1,1.46,0,30.9,30.9,0,0,0,3.18.91c1.32.18,1.68.93,1.15,1.89a18.06,18.06,0,0,1-2.56,3.42c-.92,1-.89,1.85.43,2.14a9.6,9.6,0,0,0,3.54.16c4.13-.66,7.65-2.23,9-6.67,2.08-.93,4.22-2.73,6.25-2.63,9.39.5,18.74,1.52,27.85,2.34,5.79-.37,11.27-.76,16.75-1a343.92,343.92,0,0,0,42.81-5,67.38,67.38,0,0,0,6.58-1.51,2.56,2.56,0,0,0,1.56-1.49c.11-.4-.64-1.23-1.18-1.57a18,18,0,0,0-3.23-1.52,92.24,92.24,0,0,0-26-5.52,464.51,464.51,0,0,0-64.94,0c-.55,0-1.52-.25-1.63-.59-.5-1.69-1.68-2-3.21-2-2.09-.07-2.63-.85-1.9-2.81.48-1.29,1.4-2.43,1.84-3.73a3.53,3.53,0,0,0-.15-2.56,2.37,2.37,0,0,0-2.08-.58c-4.51,1.11-8.3,3.15-9.71,8.07a2.16,2.16,0,0,1-1.19,1.3c-2,.62-4,1.13-5.91-.56a7.11,7.11,0,0,0-2.55-1.05c-8.92-2.93-18.07-2.8-27.16-1.52-6.34.89-12.55,2.69-18.85,3.93a27.55,27.55,0,0,1-16.2-1.37c-1.65-.68-2.66,0-3.6,1.16C241.72,378.55,241.57,385.66,244.5,389.9ZM406,388.19c-14.95,1.45-29.89,3.17-44.94,2.92-5.89-.1-11.77-.53-17.65-.85-.45,0-1.27-.43-1.25-.58.09-.75.2-1.88.68-2.13a12.21,12.21,0,0,1,4.73-1.67c5.35-.27,10.72-.38,16.08-.27,12.77.25,25.54.69,38.31,1,2.71.07,5.42-.17,8.13-.2,1.36,0,2.72.16,4.07.25,0,.19,0,.37,0,.56C411.4,387.54,408.68,387.93,406,388.19Zm-69.45-.56c.06-2.44,0-4.87,0-7.72,29-1.84,58-3.59,86.68,3.9-3.15,0-6.31,0-9.46,0-.79,0-1.58-.2-2.38-.21-21.18-.31-42.37-.64-63.56-.88a13,13,0,0,0-4.62,1c-3.05,1.16-3.78,2.6-3.59,6.21C336.74,390.58,336.44,390.33,336.5,387.63Zm-17-10.7c2.19,0,3.27-.9,3.75-3.15a6.21,6.21,0,0,1,4.72-4.89,31,31,0,0,0-.55,3.32c-.2,2.75,1.22,4.61,3.93,5,1.12.15,1.51.64,1.56,1.61.21,3.68.48,7.37.54,11.06,0,.52-.93,1.42-1.54,1.53-2.19.41-3.84,1.09-4.84,3.44-.59,1.37-2.32,2.26-3.54,3.36l-.34-.55c0-1.73.32-3.54-.07-5.19-.55-2.34-3.09-.7-4.15-1.55-.27-4.46-.57-8.72-.74-13C318.23,377.59,319.07,376.94,319.51,376.93Zm-38.64,8.65c1.9,1.21,5,.94,6.36-.85s2.23-1.33,3.35.12a4.69,4.69,0,0,0,1.73,1.28,3.29,3.29,0,0,0,4.12-.94c2-2.28,4.05-2.25,6,.07a4.1,4.1,0,0,0,5.8.33,21.72,21.72,0,0,1-3.52-1.74c-.42-.3-.5-1.37-.4-2,.24-1.57,1.52-2.06,4.48-2.17a8.87,8.87,0,0,0-2.05-1.48,3.53,3.53,0,0,0-4.31,1.1,2.94,2.94,0,0,1-3.2,1.39,6.7,6.7,0,0,1-2.76-1c-2.09-1.6-4.41-1.66-6.25.22-1.22,1.23-2,1.47-3-.27s-3-2.33-5-2.17c-.74.06-1.44.72-2.16,1.1l.23.46,3.78,1-.11.66a5.62,5.62,0,0,1-1.06.19c-6.5,0-13,.11-19.48.07a2.13,2.13,0,0,1-1.53-1.19c-.41-1.12.56-1.18,1.37-1.36q7.28-1.61,14.52-3.28a66.39,66.39,0,0,1,34,.55c2.41.69,3.92,2,3.89,4.72,0,2.57.25,5.15.19,7.72a2.52,2.52,0,0,1-1.24,1.9,44.83,44.83,0,0,1-8.35,2.38,49.7,49.7,0,0,1-20.82-2c-5.59-1.64-11.25-3-16.92-4.39-2.29-.54-4.68-.68-7-1-.29-1.95.4-2.42,2.3-2.32,6,.32,12.05.39,18.08.57.69,0,1.38.06,2.07.1l.09.72-3.92.6A4,4,0,0,0,280.87,385.58ZM249.77,381c.33-3,.71-3.29,3.69-2.92a24,24,0,0,0,3.35.38c1.67,0,2.26.77,2.15,2.31,0,.14,0,.27,0,.4-.11,3.81-.11,3.79-3.84,4.42a14,14,0,0,0-2.89.68c-1.59.63-2.21,0-2.31-1.51-.06-.86-.17-1.71-.22-2.3S249.72,381.43,249.77,381Zm-2.15-4.58a26.9,26.9,0,0,0-.82,5.12,38,38,0,0,0,1,5.19c.06.35-.19.76-.29,1.14-.38-.14-.91-.18-1.11-.45C244.56,385,245.11,379.21,247.62,376.46Zm273.6-118.14c-1.69-2.62-2.18-2.76-5-1.48-4.05,1.85-8.33,3-12.74,2.31-5.4-.86-10.74-2.19-16.08-3.39-7.23-1.64-14.35-3.83-21.87-3.82-5.07,0-10.08.21-14.65,2.78a1.62,1.62,0,0,1-1.1.26c-1.59-.51-3.16-1.12-4.89-1.74-.23-1.84.9-3.16,2.19-4.45a12.73,12.73,0,0,0,1.2-1.59c-.67-.36-1.32-1-2-1-4.09-.23-7.93.67-10.37,4.19-1.28,1.83-2.05,3.83-4.74,3.68a.63.63,0,0,0-.49.3c-.91,1.85-2.43,1.27-3.91,1.07-1.77-.22-3.56-.28-5.34-.48-10.48-1.16-21-2-31.53-1.26-15.59,1.09-31.19,2.2-46.58,5.15-3.05.58-6.1,1.21-9.12,1.95a2.16,2.16,0,0,0-1.41,1.38c-.05.5.6,1.26,1.14,1.6a19,19,0,0,0,3.22,1.53,80.22,80.22,0,0,0,24,5.28c14.6.89,29.26,1.07,43.89,1.19,8.13.07,16.26-.56,24.64-.89.28,1.87,1.36,2.62,3.3,2.59,2.12,0,2.64.76,1.91,2.75-.51,1.35-1.36,2.56-2,3.88-.85,1.81.23,3.5,2.09,3.08,4.06-.9,7.84-2.5,9.39-6.76.69-1.91,1.55-2.85,3.59-3.14a3.87,3.87,0,0,1,3.1.47,12.67,12.67,0,0,0,3.23,1.5c10.86,3.44,21.84,2.83,32.82.76,3.84-.72,7.59-1.84,11.41-2.69,6.06-1.35,12.11-1.51,18,.88a3,3,0,0,0,4-1.05C523.48,269.41,523.86,262.39,521.22,258.32Zm-98-.6a2.46,2.46,0,0,1-1.51,3.15,11.57,11.57,0,0,1-4,1c-14.37.48-28.73.26-43.09-.55-5.87-.34-11.78-.06-17.68-.06h-6.13c0-.27,0-.54,0-.81C374.89,257.94,398.9,254.92,423.27,257.72Zm5.62,10.12c-29.1,1.79-58.21,3.59-87-3.57l0-.56c.74,0,1.48-.13,2.22-.11,16.35.47,32.7,1,49.05,1.4,8.34.19,16.7.06,25,0a10.18,10.18,0,0,0,2.74-.43c3.84-1.11,5.05-2.83,4.85-6.89h3.08Zm18,2.8c-2.69,0-4.41.95-5,4-.4,2.12-2.16,3.55-4.58,4.55,1.19-4.47,1.46-8.42-5-8.92-.16-4.17-.35-8.31-.41-12.45a1.93,1.93,0,0,1,1.2-1.4,6.16,6.16,0,0,0,5.44-3.85c.58-1.31,2.35-2.09,3.58-3.11,0,2.25-.27,4,.07,5.7.51,2.52,3.12.89,4.65,2Zm.08,0c.13-.11.07,0,0,0Zm31.1-7.49c-1.23,1.6-1.93,1.24-3-.07-2.14-2.59-4.47-2.48-6.56.19-1,1.34-4.12,1.24-5.06-.17-1.62-2.41-4.75-2.75-6.32-.81a16.32,16.32,0,0,1,3.52,1.42c.47.31.59,1.48.49,2.21-.21,1.61-1.66,2.15-4.12,1.71.15,1.67,2.34,2.73,4.29,2a4.63,4.63,0,0,0,1.5-.94c2.41-2.2,3.95-2.31,6.51-.41a4.36,4.36,0,0,0,5.8-.29c1.73-1.64,1.87-1.62,3.18.26,1.71,2.46,5.57,2.79,7.11.46l-4.09-1c0-.2,0-.39.05-.58a3.44,3.44,0,0,1,1-.31c6.62-.06,13.25-.06,19.87-.17,1.84,0,1.27,1.22,1.55,2.17-4.59,1-9.14,1.65-13.44,3-8.39,2.7-17,2.91-25.56,2.32-3.79-.26-7.54-1.38-11.27-2.24-2.27-.51-3.7-1.83-3.67-4.42s-.26-5.28-.19-7.92a2.75,2.75,0,0,1,1.37-2c7.28-3.37,15-3.32,22.58-1.79,7.32,1.47,14.5,3.68,21.77,5.43,2.81.68,5.71,1,8.81,1.55-.17.75-.32,1.43-.48,2.1l-22.47-.61c1.09-1.91,2.84-.7,4.14-1.15C483.85,260.86,479.86,260.77,478,263.14ZM515,269a2,2,0,0,1-1.65.79c-1.78-.1-3.54-.49-5.32-.61-1.1-.07-1.6-.54-1.54-1.57.08-1.64.23-3.27.35-4.94,1.51-.24,2.81-.41,4.1-.66s2.55-.61,4.08-1A11.58,11.58,0,0,1,515,269Zm2.35,2.61c1.69-4.08,1.83-7.71-.27-11.57.79,0,1.54-.23,1.78,0C521,262.21,520.26,269.06,517.36,271.58ZM446,331.06a9.61,9.61,0,0,0,1.17-1.42,6.1,6.1,0,0,0-1.71-1.11c-3.74-.85-9.14,1.41-11.14,4.64-.44.72-.44,2-1,2.3-1.83,1-3.82,2.38-5.78,2.42-3.81.09-7.64-.6-11.46-1a172.84,172.84,0,0,0-30.94-.62c-15.07,1.1-30.1,2.45-45,5.22-2.4.44-4.8,1-7.15,1.63a2.25,2.25,0,0,0-1.36,1.43c-.09.4.54,1.17,1,1.46a25,25,0,0,0,3.59,1.69,79.48,79.48,0,0,0,23.61,5.16c14.66.9,29.38,1.08,44.08,1.21,8.13.07,16.26-.56,24.41-.88,1.08,2.29,1.07,2.35,3.73,2.53,1.74.12,2.3,1,1.72,2.49s-1.34,2.71-2,4.08c-.89,1.82.08,3.58,1.91,3.2,4-.83,7.79-2.33,9.37-6.48.82-2.18,1.87-3.46,4.2-3.47a5.8,5.8,0,0,1,2.16.3c1.42.54,2.73,1.37,4.16,1.85,7.7,2.56,15.68,2.81,23.6,1.81,6.67-.83,13.25-2.45,19.85-3.83,6.42-1.35,12.74-1.56,18.92,1,1.61.69,2.52-.28,3.36-1.32,3.19-3.94,3.39-11,.49-15.15-1.52-2.17-2-2.36-4.44-1.21-6.27,3-12.77,3.23-19.4,1.64-7-1.69-14-3.75-21-5.17-8.57-1.72-17.21-2.54-25.46,1.65a1.33,1.33,0,0,1-.91.12c-1.54-.52-3-1.1-4.78-1.73A5.41,5.41,0,0,1,446,331.06Zm-23.83,9a2.76,2.76,0,0,1-1.84,3.33,10.38,10.38,0,0,1-3.43.83q-21.56.68-43.1-.55c-6.13-.34-12.31,0-18.47,0a26.23,26.23,0,0,1-5.65-.41C373.71,340.24,397.78,337.23,422.12,340Zm5.6,10.09c-29,1.83-58.17,3.6-87-3.54,0-.18,0-.37.05-.55,2.29,0,4.58,0,6.87,0,4.3.09,8.59.25,12.89.36,13.37.35,26.73.75,40.1,1,5.43.11,10.86,0,16.29-.08a10.82,10.82,0,0,0,2-.24c4.3-.87,5.84-2.78,5.72-7.14h3.08Zm90-7.68c2,2.46,1.31,8.7-1.25,11a12.94,12.94,0,0,0-.65-11.29C516.74,342.27,517.51,342.15,517.75,342.45Zm-12.38,5.79c.11-1.18.45-3.08,1.17-3.33a45.46,45.46,0,0,1,7.36-1.45,11.75,11.75,0,0,1,0,7.7,2,2,0,0,1-1.58.93c-1.91-.11-3.81-.44-5.71-.68-.19,0-.54,0-.56-.08A9.55,9.55,0,0,1,505.37,348.24Zm-55.24-8.54a29.72,29.72,0,0,1,14.18-2.3,81.45,81.45,0,0,1,12.34,1.73c5.82,1.27,11.53,3,17.32,4.43,2.87.7,5.82,1.06,9,1.62l-.52,2.09-22.26-.62-.1-.71,4-.54c-1.57-2.24-5.44-2.28-7.27.08-1.12,1.47-1.82,1.3-2.89,0-2.27-2.72-4.5-2.64-6.68.1-1.06,1.33-4.12,1.2-5.06-.22-1.6-2.4-4.83-2.72-6.38-.62,3.3.5,4.46,1.42,4.16,3.33-.26,1.66-1.63,2.26-4.59,2.26a10,10,0,0,0,2,1.51,3.4,3.4,0,0,0,4.3-1,3.14,3.14,0,0,1,3.35-1.45,5.65,5.65,0,0,1,2.57.93c2.1,1.68,4.55,1.74,6.4-.19,1.24-1.29,2-1.36,3,.32,1.57,2.67,5.67,3,7.13.57l-4.09-.95c0-.26.07-.52.1-.78h22.08c.07.51.16,1.2.26,1.93-3.68.78-7.31,1.24-10.74,2.34a71.83,71.83,0,0,1-28.26,3,83.24,83.24,0,0,1-11.27-2.25c-2.28-.52-3.67-1.88-3.64-4.45s-.11-4.89-.28-7.32A2.53,2.53,0,0,1,450.13,339.7Zm-4.46-.28v13.66c-3.24-.7-4.4,1.43-5.2,4.33-.54,2-2.22,3.14-4.36,4.09.27-1.26.53-2.2.67-3.16.43-3-1.08-5-4-5.59a2.16,2.16,0,0,1-1.42-1.35c-.34-3.68-.51-7.37-.73-11.06-.07-1.14.48-1.63,1.62-1.77,2.16-.27,3.86-.95,4.85-3.35.6-1.44,2.43-2.36,3.81-3.6a33.06,33.06,0,0,0,.06,5.78C441.49,340,444.09,338.35,445.67,339.42Zm70.24,185.1c1.61.69,2.52-.28,3.37-1.32,3.27-4,3.36-11.06.4-15.32-1.17-1.69-2.37-2-4.18-1.15-6.7,3.29-13.64,3.29-20.73,1.48-6.87-1.76-13.7-3.67-20.64-5.08-7.11-1.45-14.33-1.92-21.41.42-2.16.71-4.19,2.33-6.51.47-.09-.07-.26,0-.39,0-2.42-.28-2.78-1-1.49-3.13a17.74,17.74,0,0,1,1.63-2c.39-.47.77-1,1.15-1.44a5.92,5.92,0,0,0-1.7-1.11c-3.7-.82-8.94,1.31-11,4.49-.49.75-.5,2.08-1.14,2.45-1.81,1.05-3.81,2.39-5.77,2.44-3.81.08-7.64-.61-11.46-1a171.92,171.92,0,0,0-30.94-.62c-15.07,1.09-30.1,2.45-45,5.21-2.4.45-4.79,1-7.15,1.64a2.29,2.29,0,0,0-1.37,1.43c-.09.39.55,1.16,1,1.45a23.52,23.52,0,0,0,3.59,1.69,80.12,80.12,0,0,0,23.8,5.19c14.67.88,29.39,1.06,44.09,1.18,8.06.07,16.12-.56,24.33-.88.31,2,1.59,2.72,3.62,2.58,1.73-.11,2.29.94,1.72,2.44s-1.35,2.72-2,4.08c-.9,1.83.07,3.59,1.89,3.21,4-.83,7.8-2.33,9.37-6.48.83-2.19,1.88-3.46,4.2-3.48a6,6,0,0,1,2.17.3c1.54.58,3,1.44,4.54,2,7.58,2.49,15.43,2.69,23.21,1.71,6.74-.85,13.38-2.49,20.05-3.87C503.54,522.11,509.81,521.93,515.91,524.52Zm1.89-14.16c1.78,2.54,1.27,8.54-.85,10.85-.06.07-.23,0-.35.06.84-7.51.84-7.51-.64-11.47C516.81,510,517.56,510,517.8,510.36Zm-95.72-2.52a2.49,2.49,0,0,1-1.53,3.17,12.06,12.06,0,0,1-4.18,1c-10,.09-20,.14-30,0-10.92-.11-21.84-.38-32.77-.6-1.38,0-2.76-.2-4.15-.3l0-.55C373.55,508.08,397.65,505,422.08,507.84Zm5.66,10c-21.89,2-43.89,2.5-65.88.46-7.11-.66-14.13-2.41-21.19-3.67l.09-.72c2.53,0,5.06,0,7.58,0q33.84.65,67.69,1.27a13.54,13.54,0,0,0,4.46-.73c3.52-1.21,4.44-2.81,4.05-6.62h3.2Zm17.93,3c-2.73,0-4.37,1-5,4-.5,2.34-1.94,3.3-4.16,4.28,0-1.87.32-3.85-.08-5.66-.5-2.23-2.55-2.83-5.28-2.89-.17-4.24-.39-8.32-.42-12.39a2.23,2.23,0,0,1,1.43-1.6c2.2-.48,4-1.05,5-3.52.6-1.42,2.45-2.32,3.79-3.51,0,2.26-.28,4.1.07,5.81.52,2.51,3.14.84,4.65,2Zm.06,0c.14-.11.08,0,0,0Zm31.09-7.46c-1.14,1.48-1.83,1.27-2.89,0-2.29-2.72-4.56-2.64-6.69.11-1,1.33-4.1,1.2-5.05-.22-1.61-2.41-4.84-2.72-6.38-.63,3.31.5,4.47,1.44,4.16,3.34-.27,1.66-1.64,2.26-4.59,2.25a9.9,9.9,0,0,0,2,1.52,3.42,3.42,0,0,0,4.31-1,3.12,3.12,0,0,1,3.35-1.45,5.75,5.75,0,0,1,2.57.92c2.11,1.69,4.56,1.75,6.4-.18,1.24-1.3,2-1.36,3,.32,1.58,2.67,5.67,3,7.13.57l-4.09-1,.1-.78h22.08c.07.52.16,1.21.26,1.91-4.58,1-9.13,1.65-13.44,3-8.39,2.7-16.95,2.9-25.56,2.31-3.79-.26-7.53-1.39-11.27-2.24-2.28-.52-3.67-1.88-3.64-4.45s-.11-4.89-.29-7.32a2.48,2.48,0,0,1,1.83-2.81c7.26-3,14.78-3,22.25-1.52s14.63,3.71,22,5.49c2.74.66,5.57,1,8.62,1.47-.2.79-.37,1.47-.53,2.12l-22.27-.62-.1-.71,4-.56C482.51,511,478.65,510.92,476.82,513.3Zm28.82-.45,8.22-1.64c.78,2.71,1,5.39-.11,8a1.93,1.93,0,0,1-1.57.64,38.91,38.91,0,0,1-5.49-.72,2.08,2.08,0,0,1-1.33-1.45A43.75,43.75,0,0,1,505.64,512.85ZM429,443.92a3.29,3.29,0,0,0,.17,2.39A2.12,2.12,0,0,0,431,447c4-.92,7.76-2.41,9.3-6.57.76-2.05,1.66-3.33,3.89-3.28a9,9,0,0,1,2.69.4c1.18.4,2.25,1.16,3.43,1.53,10.86,3.43,21.84,2.82,32.83.76,3.64-.68,7.2-1.73,10.81-2.56,6.53-1.51,13-1.67,19.3,1,1.52.65,2.4-.32,3.2-1.3,3.09-3.75,3.44-10.71.8-14.81-1.7-2.62-2.17-2.76-5-1.48-4,1.81-8.19,3-12.53,2.32-5.41-.85-10.75-2.13-16.1-3.35-7.29-1.65-14.47-3.87-22.05-3.87-5.08,0-10.08.22-14.66,2.78a1.61,1.61,0,0,1-1.09.26c-1.6-.51-3.17-1.11-4.92-1.75-.12-2,1-3.4,2.55-4.66.37-.31.93-.91.84-1.15a2.13,2.13,0,0,0-1.2-1.1c-4.28-1.42-10.69,1.81-12.35,6.07a2.21,2.21,0,0,1-1.4,1.21c-1.43.19-2.73.4-3.57,1.78-.15.25-.79.32-1.19.29-3.83-.35-7.64-.91-11.47-1.08-9.06-.42-18.15-1.3-27.17-.84-15.6.81-31.19,2.12-46.58,5.07-3.05.58-6.1,1.21-9.12,2a2.17,2.17,0,0,0-1.41,1.37c-.05.51.6,1.27,1.13,1.61a18.64,18.64,0,0,0,3.22,1.53,80.15,80.15,0,0,0,24,5.28c14.67.89,29.39,1.06,44.09,1.19,8.06.07,16.13-.57,24.44-.9.28,1.89,1.37,2.62,3.3,2.6,2.12,0,2.64.75,1.91,2.75C430.4,441.38,429.45,442.57,429,443.92Zm85.27-21.07c2.6,4.23,2.27,9.57-.11,11.95.11-2.33.31-4.77.31-7.21a24.84,24.84,0,0,0-.71-2.65A6.93,6.93,0,0,1,514.23,422.85Zm-11.34,4.41a1.48,1.48,0,0,1,1-1c2.31-.48,4.65-.87,7.25-1.33a12.93,12.93,0,0,1,.13,7.49c-.29,1-.75,1.41-1.86,1.2a45.62,45.62,0,0,0-5.31-.68c-1.11-.07-1.59-.56-1.54-1.58A36,36,0,0,1,502.89,427.26Zm-57.27-3.95a2.26,2.26,0,0,1,1.15-1.71,48,48,0,0,1,8.74-2.44,49.82,49.82,0,0,1,20.42,2c5.71,1.68,11.5,3.11,17.29,4.49a66,66,0,0,0,6.92.91c-.15.77-.29,1.51-.44,2.25L477,428.17c1.32-1.72,3-.84,4.29-1.1-1.27-2.36-5.38-2.51-7.22-.14-1.21,1.55-1.91,1.35-3,0-2.18-2.62-4.51-2.53-6.56.11-1.11,1.43-4.12,1.28-5.17-.26a4,4,0,0,0-6.24-.69,16.66,16.66,0,0,1,3.52,1.43c.47.31.59,1.47.5,2.2-.21,1.6-1.68,2.16-4.13,1.73.15,1.67,2.32,2.73,4.29,2a4.4,4.4,0,0,0,1.5-.93c2.4-2.21,4-2.33,6.51-.42a4.37,4.37,0,0,0,5.8-.29c1.75-1.63,1.89-1.62,3.18.26,1.7,2.46,5.56,2.79,7.12.47l-4.11-1,.15-.81h22c.09.63.18,1.27.3,2.08-2,.38-4,.7-5.87,1.12-5.81,1.29-11.55,3.09-17.42,3.83-8.63,1.09-17.32,1-25.8-1.57-4.16-1.25-4.56-1.51-4.91-5.76A60.6,60.6,0,0,1,445.62,423.31Zm-98.76,1c24.06-2.52,48.1-5.55,72.45-2.74a2.64,2.64,0,0,1-1.75,3.29,10.09,10.09,0,0,1-3.42.87q-21.06.68-42.11-.46c-6.47-.35-13-.11-19.47-.13h-5.73Zm78.1,7.36c-29.08,1.83-58.19,3.6-86.95-3.53,0-.19,0-.38,0-.58.63,0,1.26-.12,1.88-.11,9.47.2,18.93.42,28.4.61q22.46.45,44.9.86a14.59,14.59,0,0,0,2-.1c4.79-.59,6.64-2.57,6.77-7.27h3Zm4.94,2.6a2,2,0,0,1-1.29-1.27c-.32-3.74-.56-7.5-.65-11.25,0-.52.88-1.42,1.48-1.54,2.24-.45,3.94-1.16,5-3.56.6-1.4,2.44-2.28,3.72-3.38a33.19,33.19,0,0,0,.06,5.61c.47,2.62,3.05,1,4.69,2.09v13.54c.17-.13.07,0,0,0-2.67,0-4.36.86-4.92,3.85-.41,2.18-2.18,3.68-4.63,4.62.24-1,.45-1.84.61-2.65C434.55,437,433.13,435,429.9,434.25ZM389,172.43c-15,1.1-30,2.42-44.77,5.19a73.61,73.61,0,0,0-7.54,1.74c-1.64.49-1.73,1.84-.27,2.73a23.46,23.46,0,0,0,3.76,1.77A87.31,87.31,0,0,0,364,189.09a391.7,391.7,0,0,0,49.65,1l18.74-.77c.31,1.87,1.44,2.66,3.44,2.62s2.52.75,1.84,2.64c-.49,1.35-1.43,2.55-1.93,3.9a3.17,3.17,0,0,0,.08,2.39,2.28,2.28,0,0,0,2,.73c4.61-1,8.47-3.07,9.9-8.08a2.12,2.12,0,0,1,1.17-1.31c2-.56,4-1.21,5.89.55a5.61,5.61,0,0,0,2.17.93c10.93,3.46,22,2.87,33,.76,3.83-.73,7.58-1.85,11.4-2.69,6.27-1.37,12.49-1.44,18.52,1.13,1.61.69,2.52-.3,3.36-1.35,3.17-3.93,3.37-11,.47-15.14-1.53-2.16-2-2.35-4.45-1.19-6.35,3-12.91,3.2-19.6,1.58-7.21-1.74-14.34-3.89-21.61-5.28-8.24-1.58-16.58-2.29-24.51,1.73a1.58,1.58,0,0,1-1.09.18c-1.54-.5-3.05-1.08-4.85-1.74-.08-1.92,1-3.33,2.48-4.57a7.18,7.18,0,0,0,1-1.32,5.55,5.55,0,0,0-1.53-1.06c-3.78-1-9.48,1.42-11.43,4.8-.4.67-.38,1.85-.91,2.13-1.84,1-3.83,2.36-5.79,2.4-3.81.09-7.64-.6-11.46-1A171.92,171.92,0,0,0,389,172.43Zm132.65,6.11c2.06,2.29,1.35,9.13-1.51,11.43a12.81,12.81,0,0,0-.39-11.76C520.76,178.37,521.43,178.27,521.68,178.54Zm-12.44,6.91c0-.2,0-.4,0-.6.13-3.66.14-3.63,3.72-4.27,1.55-.27,3.08-.66,4.86-1.06a13.3,13.3,0,0,1,.22,7.41c-.32,1.15-.86,1.63-2.13,1.36a23.57,23.57,0,0,0-4.72-.61C509.53,187.67,509.17,186.83,509.24,185.45Zm-56.86-7.4a2.49,2.49,0,0,1,1.26-1.85,38.45,38.45,0,0,1,7.75-2.3,49.52,49.52,0,0,1,20.45,1.65c6,1.71,12,3.25,18.06,4.7a64.47,64.47,0,0,0,7,.94c-.07.5-.08.77-.14,1s-.21.77-.33,1.23l-22.28-.62-.09-.71,4-.57a4.75,4.75,0,0,0-7.32.14c-1.16,1.53-1.93,1.25-2.88-.05-1.66-2.29-5-2.82-6.73.16-.83,1.44-4.06,1.14-5-.29a4,4,0,0,0-6.24-.87,23.48,23.48,0,0,1,3.61,1.82,2.27,2.27,0,0,1,.34,2c-.7,2.09-2.34,2.24-4.3,1.41-.07.23-.15.47-.23.71a11.71,11.71,0,0,0,2.29,1.5,3.32,3.32,0,0,0,4.11-1.12,3.07,3.07,0,0,1,3.36-1.41,5.51,5.51,0,0,1,2.56.94c2.11,1.68,4.52,1.71,6.4-.25,1.27-1.33,2.06-1.27,3,.4a5.18,5.18,0,0,0,5.59,2,10.16,10.16,0,0,0,1.93-1.36L484,186.23l.12-.79h22.08c.07.57.15,1.25.24,2-3.76.8-7.46,1.28-11,2.39a71.77,71.77,0,0,1-28.06,2.92,84.56,84.56,0,0,1-11.27-2.27,4.14,4.14,0,0,1-3.61-4.47C452.58,183.33,452.32,180.69,452.38,178.05Zm-16.14-3.31c2.16-.27,4-.88,4.83-3.36a4.78,4.78,0,0,1,3.84-3,28.22,28.22,0,0,0,.06,5.21c.49,2.58,3.08,1,4.68,2v13.55c.14-.1,0,0-.07,0-2.5.06-4.3.67-4.82,3.69-.39,2.23-2.17,3.81-4.65,4.72.24-1.15.5-2.09.64-3.05.44-3-1-5.12-4-5.52a1.48,1.48,0,0,1-1.52-1.62c-.21-3.62-.43-7.24-.64-10.86C434.56,175.39,435.11,174.89,436.24,174.74Zm-7.69,1.44h3.11v10.13c-29,1.81-58.16,3.6-86.92-3.54v-.58c.69,0,1.38-.12,2.06-.1,10.79.25,21.57.55,32.35.77q20.46.4,40.91.66a12.94,12.94,0,0,0,4.27-.68C427.93,181.63,428.87,180.05,428.55,176.18Zm-4.09,3.23a11,11,0,0,1-3.79,1c-14.37.46-28.73.25-43.09-.55-6.07-.34-12.18,0-18.27,0a26,26,0,0,1-5.69-.42c24.06-2.94,48.11-6,72.46-3.16A2.59,2.59,0,0,1,424.46,179.41ZM215.75,693.35c-1.29-9.57-9.2-20.07-21.27-21.36V419.31c-3,1.24-4.19,3-4.13,6.16.22,11.79.09,23.58.08,35.38q0,106.65,0,213.3a7.51,7.51,0,0,0,.14,1.15c12.56,2.34,20.92,8.54,21.8,22.25h4.52q57.26,0,114.5.05c3.15,0,4.32-2.35,6.3-3.77l-.19-.48Zm364.64-21.41q0-123.26.09-246.49c0-3.18-1.17-4.9-4.23-6.2V672.1A21.3,21.3,0,0,0,562,679.18a25.43,25.43,0,0,0-6.93,14.35h-122c3.06,3.64,3.85,4,8,4h14.5q50.9,0,101.78,0a5.73,5.73,0,0,0,1.13-.19c1-13.76,9.44-19.87,21.9-22.13ZM191.23,72.59V313.42c0,3.07.85,4.21,4.17,5.42V76.24c12.3-2.22,18.66-10,21.34-21.64H338.63c-2.36-2.7-4.65-4.41-8.32-4.11-4.47.37-9,.09-13.5.09h-104c.68,6.24-1.94,11-6.13,15.17A23.44,23.44,0,0,1,191.23,72.59ZM556.17,56.24c1.3,8.93,9.59,17.93,18.29,19.35,2.47.41,2.66,1.36,2.66,3.41q-.07,118.67,0,237.34V319c3-1.3,4.3-2.95,4.2-6.17-.26-8.47-.09-17-.09-25.44V72.88c-12.61-2.37-21-8.53-21.92-22.29H555.4c-38.23,0-76.46,0-114.69-.08-3.34,0-4.68,2.25-6.6,4.22H555.94C556,55.35,556.1,55.8,556.17,56.24ZM415,76.21H355.56v49.52H415Zm-4,45.42H359.75V80.23h51.19ZM369.19,619.81c-.73-.06-1.61.68-2.3,1.22-.3.24-.31.85-.42,1.3q-1.59,6.36-3.17,12.71c-.9,3.56-1.81,7.12-2.84,11.2-.36-1.12-.55-1.68-.73-2.24a66.66,66.66,0,0,0-2.06-6.42,4.51,4.51,0,0,0-2.36-2.5c-1.48-.42-2,1.08-2.47,2.3l-1.39,3.72q-.85,2.31-1.72,4.62c-1.38-5.14-2.39-10.2-3.47-15.24a81,81,0,0,0-2-7.88c-.23-.71-1.35-1.12-2.06-1.67a7.68,7.68,0,0,0-1.23,2.15,7.57,7.57,0,0,0,.19,2.75q2.69,13.93,5.42,27.86c.25,1.25.46,2.59,2.08,2.78s2.24-1.07,2.71-2.36q1.69-4.65,3.37-9.3l.4,0q1.44,4.73,2.87,9.46c.42,1.37.88,2.77,2.68,2.66s2-1.47,2.32-2.8q3.12-13.44,6.28-26.87a39.66,39.66,0,0,0,1.12-5.43C370.51,621.17,369.7,619.86,369.19,619.81Zm40.76,35a1.92,1.92,0,0,0,2.9.77c1.16-.82.88-2,.28-3-.26-.46-.57-.89-.84-1.35-1.7-2.9-3.39-5.81-5.15-8.84.75-.66,1.37-1.15,1.91-1.72,3.49-3.61,5.48-7.84,4.75-12.94-1.17-8.12-10.66-11.38-17.62-6.05a4.19,4.19,0,0,0-1.61,2.49c-.06.5,1.21,1.16,2.07,1.9,0,1.49-.05,3.27,0,5.06.25,7.54.53,15.08.8,22.62.05,1.29.43,2.48,2,2.39s1.75-1.36,1.76-2.62a55.36,55.36,0,0,0,0-5.76c-.19-2.14.54-3.27,2.94-3.33.18.36.34.72.53,1.06C406.45,648.6,408.13,651.75,410,654.81Zm-8.58-13.94c-.31-5.75-.61-11.44-.92-17.25,5.42-1.89,9.34,1,9.07,6.53A12.23,12.23,0,0,1,401.37,640.87Zm29.41-21.15c-4.45-2.21-8.89-1.57-13,1.15a3.62,3.62,0,0,0-1.38,2.15c-.06.3,1.16.85,2.16,1.53,0,.26,0,.86,0,1.45.29,8.67.54,17.33.89,26,.17,4.11,1.68,4.87,5.11,2.76.4-.24.8-.47,1.18-.74,7.56-5.37,11.78-12.65,11.88-22C437.7,626.8,435.78,622.2,430.78,619.72Zm2.52,13.59c-.1,6.28-4.09,13.93-9.13,17.26-.54-9.35-1.06-18.52-1.59-27.8,2.52-1.43,6.65-.31,8.66,2.6A13.15,13.15,0,0,1,433.3,633.31ZM333,637.8c-1.33-.87-2.73-1.66-4-2.64a46.74,46.74,0,0,1-4.56-4.11,2.69,2.69,0,0,1-.62-2.1c.36-1.63,3.32-3.6,4.92-3.49,2.11.14,3.23,1.4,3.83,3.83.18.71,1,1.25,1.6,1.86.62-.57,1.6-1,1.81-1.75.71-2.4-.24-4.43-2-6-3.64-3.31-8.38-3-12.29.72-3.59,3.44-3.76,7-.39,11a27.64,27.64,0,0,0,3.55,3.46c1.57,1.31,3.26,2.49,4.93,3.68a8.56,8.56,0,0,1,3.62,6.55,3.17,3.17,0,0,1-1.8,3.42c-3.23,1.74-5.41,1.3-7.75-1.67-1-1.24-2.16-1.86-3.6-1s-1.34,2.17-.68,3.5c1.84,3.74,6.47,5.66,11.05,4.57,5.4-1.27,8-4.16,8-8.87S337,640.38,333,637.8ZM280.3,149.24a13.31,13.31,0,0,0,.31,2q.94,5.84,1.91,11.69l.53,0c.76-4.7,1.79-9.36,2.21-14.09.39-4.29,2.77-6.57,6.44-7.91,2-.72,4.06-1.18,6.09-1.76.38-.1.76-.23.91-.27-3-1.11-6.17-2.09-9.17-3.41a6.81,6.81,0,0,1-4.1-5.89c-.44-3.88-1.17-7.73-1.79-11.58-.19-1.17-.46-2.33-.68-3.49a85.21,85.21,0,0,0-2.63,13.9c-.37,4.44-2.78,6.84-6.62,8.21-1.93.69-3.94,1.13-5.91,1.68-.39.11-.77.25-1.32.44,2.35.65,4.46,1.16,6.52,1.84C277.22,141.9,280.28,144.3,280.3,149.24ZM494.88,574.53c2.15-.84,4.42-1.35,6.64-2l1-.33c-3-1.06-6-2-8.92-3.23a6.47,6.47,0,0,1-4.2-5.15c-.63-4.32-1.34-8.64-2-13-.17-1-.42-2.06-.64-3.09A118.48,118.48,0,0,0,484,562.53a7.76,7.76,0,0,1-5,6.78,58.18,58.18,0,0,1-5.61,2c-1,.3-2,.45-2.84.65,3.09,1.11,6.22,2.08,9.21,3.38a7,7,0,0,1,4.2,6c.62,5,1.58,10,2.4,15l.51-.05c.78-4.82,1.77-9.62,2.27-14.47C489.5,578,491.6,575.81,494.88,574.53ZM387,653.7c4.56-4.39,5.77-10.09,5.9-16.14a26.27,26.27,0,0,0-2.24-11c-2.92-6.76-12.07-6.8-15.72-1.33a23.8,23.8,0,0,0-3.87,9.9c-.66,4.44-.67,8.88,1,13.11a17.8,17.8,0,0,0,2.89,4.93C378.41,657.16,383.22,657.37,387,653.7ZM377.74,628c1.16-2.06,2.82-4.39,5.22-3.89,1.6.34,3.25,2.49,4,4.22,1.18,2.65,1.63,5.63,2.39,8.47l-.49.12a21.5,21.5,0,0,1-2.43,10.51,13.06,13.06,0,0,1-2.08,2.87c-2.19,2.21-5,2.12-6.49-.6a25.27,25.27,0,0,1-2.71-7.75A20.75,20.75,0,0,1,377.74,628Zm69.76,24.42c-2.07-.22-2.09-1.94-2.3-3.4s-.48-2.63-2.18-2.43-2.07,1.54-2,3a6.86,6.86,0,0,0,7,6.62c5.86.23,8.82-3.52,9.25-9.17.37-4.76-2.06-8.33-5.4-11.43a46.89,46.89,0,0,1-5-5.1,8,8,0,0,1-1.45-3.8c-.19-1.52.16-3.13,1.93-3.74a3.53,3.53,0,0,1,4.24,1.35,42.64,42.64,0,0,1,2.22,4.18,10.09,10.09,0,0,0,1.11,1.37c.35-.58,1-1.17,1-1.74a9.15,9.15,0,0,0-3.35-7.53A6.68,6.68,0,0,0,442.32,623c-1.25,3-1.42,6.15.43,9a60.09,60.09,0,0,0,4.83,6c1.25,1.46,2.77,2.69,3.89,4.22a7.47,7.47,0,0,1,.95,7.53C451.58,651.78,450.08,652.64,447.5,652.37ZM413.19,58.66c1.28.73,2.76,1.19,4.1.08s.9-2.64.4-4c-.37-1-.89-2-1.34-3,2.86-.34,5.58-.49,8.23-1a13.3,13.3,0,0,0,4.67-2c1.5-1,1.28-2.82-.32-3.74a10.36,10.36,0,0,0-3.51-1.31c-3.37-.51-6.77-.82-10.08-1.2C416,40.8,416.83,39,417.4,37c.39-1.31.27-2.93-1.16-3.44a4.13,4.13,0,0,0-3.46.36,31.09,31.09,0,0,0-5.29,5.82C402.1,47.73,406.6,54.9,413.19,58.66Zm1.37-22.15c0,4.16-2.46,7.08-6.05,7.3C409.45,40.85,412.4,37.29,414.56,36.51ZM427,47a34.45,34.45,0,0,1-19.29.38C410.35,45,423.08,44.67,427,47Zm-11.62,9.66c-2.36-.16-5.21-2.63-6.89-6C412.64,50.44,414.68,52.45,415.36,56.62ZM490.55,639c-.11-2.21-2.17-2.88-4-3.24-3.17-.61-6.38-1-9.71-1.5a15.16,15.16,0,0,0,1.42-3.44c.18-1.06.16-2.68-.48-3.2a4,4,0,0,0-3.41-.41,14.58,14.58,0,0,0-8.09,8.3,10.21,10.21,0,0,0-.68,4.06c.2,4.73,2.85,8.27,6,11.46a8,8,0,0,0,2.63,1.73,2.5,2.5,0,0,0,3.65-2.48,11.17,11.17,0,0,0-.75-3.45,27.74,27.74,0,0,0-1.49-3.12c3.71-.49,7.37-.85,11-1.53C488.38,641.84,490.67,641.41,490.55,639Zm-14.83-9.78c.21,3.58-2.38,5.94-7.05,6.37C470.54,632.66,472.47,630.27,475.72,629.2Zm-7,13c3.86.37,6.37,3.46,6.25,7.66A18.87,18.87,0,0,1,468.71,642.24Zm-.37-3.16c3.49-2.14,16-2,19.08.24C484.1,641.39,471.31,641.22,468.34,639.08ZM345,49.94a39.32,39.32,0,0,0,5.79,1.27c1.71.26,3.46.3,5.31.45a17,17,0,0,0-1.51,3.63c-.18,1.06-.17,2.68.46,3.21a3.88,3.88,0,0,0,3.4.41,14.48,14.48,0,0,0,8.47-9.38,7.58,7.58,0,0,0,.41-2.53c-.33-5.36-3.14-9.4-7.1-12.73-1.18-1-2.63-1.73-4.17-.7s-1.38,2.67-.92,4.13a49.27,49.27,0,0,0,1.92,4.6c-4,.65-8,1.23-12,2-1.35.26-2.77,1-2.79,2.66S343.62,49.51,345,49.94Zm12.13,7c-.21-3.58,2.39-5.94,7.06-6.37C362.33,53.44,360.4,55.83,357.14,56.9Zm7-13.09c-3.83-.18-5.82-2.52-6.39-7.75A18.63,18.63,0,0,1,364.1,43.81Zm.71,2.9c-3.22,2.4-15.7,2.36-19.37-.13A37.23,37.23,0,0,1,364.81,46.71ZM598.06,392.12c-3.14-3.38-6.55-6.22-11.46-6.72-5.2-.53-12.31,4.32-13.39,9.37-.52,2.43,1,4,3.35,3.35a39.94,39.94,0,0,0,4.29-1.68,17.86,17.86,0,0,0,.1,1.92,87.62,87.62,0,0,0,1.68,9.31,4.38,4.38,0,0,0,2.86,2.5c1.49.34,2.28-1.2,2.56-2.51.62-2.89,1.12-5.81,1.54-8.74a22.77,22.77,0,0,0,0-3.39,48.09,48.09,0,0,0,6.88,2c2.16.3,3.35-1.65,2.56-3.71A5.37,5.37,0,0,0,598.06,392.12Zm-22.53,3.28c1.06-3.27,3.47-5.19,6.36-7.07C581.54,393,579.21,395.53,575.53,395.4ZM586,407.31c-2.59-2.59-2.83-16-.32-19.66C587.64,394.33,587.4,400.69,586,407.31Zm2.52-18.93a18.69,18.69,0,0,1,7.77,6.39C591.34,394.28,589,392.35,588.55,388.38ZM299.3,652a3.57,3.57,0,0,0,3.38-.22,29.71,29.71,0,0,0,5.33-5.76c5.64-8.29.62-15.78-6.07-19.11a4.66,4.66,0,0,0-3.66.12c-1.4.71-1,2.29-.53,3.56s.95,2.25,1.37,3.22c-3.36.51-6.64.91-9.86,1.55-1.75.35-3.7,1.05-3.82,3.18-.14,2.33,2,2.82,3.7,3.14,3.67.69,7.4,1.08,11,1.58a33.9,33.9,0,0,0-2,5.52A3.73,3.73,0,0,0,299.3,652Zm1.72-2.81c-.07-4,2.42-7,6-7.34C306.24,644.66,303.24,648.34,301,649.22Zm6.22-14.16c-4.35.22-6.39-1.87-7.09-6.25C303.56,629.85,305.48,632.28,307.24,635.06Zm-18.67,4c2.55-2.36,15.93-2.56,19.07-.29C304.4,640.78,292.46,641,288.57,639ZM182.39,406.5c.31,1.68.8,3.85,3.13,3.72,2.12-.11,2.84-2.05,3.19-3.8.63-3.23,1-6.5,1.57-9.94,1,.45,2,1,3,1.36,1.32.5,3,1,3.75-.46a5,5,0,0,0,.06-3.83,14.17,14.17,0,0,0-7.83-7.49,12.32,12.32,0,0,0-4.8-.67c-4.61.16-7.92,2.94-11,5.95a7.47,7.47,0,0,0-1.56,2.27c-1,2.2.22,4.19,2.62,3.93a22.38,22.38,0,0,0,4.87-1.49,9.38,9.38,0,0,0,1.42-.74C181.31,399.11,181.7,402.83,182.39,406.5ZM189,388.35c2.86,1.86,5.26,3.78,6.32,7.06C192.38,395.39,188.74,393.46,189,388.35Zm-3.35-.89a37.56,37.56,0,0,1-.08,19.91C183.19,404.55,183.18,391.75,185.63,387.46Zm-11.21,7.36a19.43,19.43,0,0,1,7.79-6.42C182,392.27,179.66,394.25,174.42,394.82ZM357.81,689.27a3.85,3.85,0,0,0-3.42.26c-.67.6-.73,2.24-.57,3.35a15.59,15.59,0,0,0,1.43,3.52c-2.8.32-5.45.45-8,1a14,14,0,0,0-4.85,2c-1.51,1-1.29,2.8.32,3.72a10.63,10.63,0,0,0,3.5,1.32c3.37.51,6.77.82,10.15,1.21-.62,1.47-1.45,3.11-2,4.84-.46,1.47-.59,3.09,1,4.11a3,3,0,0,0,4-.65,38.69,38.69,0,0,0,5.09-6C369.63,699.91,364.36,692.36,357.81,689.27Zm-.17,22.82-1-.59a39,39,0,0,1,2.88-6.12c.59-.85,2.27-.94,3.45-1.37l.55.72Zm-13-10.52c3.57-2.49,16.05-2.55,19.4-.16C357.39,703.39,351,703,344.64,701.57Zm11.62-10.35c3.36,1.11,5.35,3.48,7.06,6.33C358.65,697.68,356.73,695.15,356.26,691.22Zm238-355.83c-1.53.53-3,1.3-4.64,2a16.48,16.48,0,0,0,0-2.24c-.49-3.45-.88-6.94-1.65-10.33-.22-1-1.62-2.38-2.42-2.34a4.11,4.11,0,0,0-2.83,2.21,25.31,25.31,0,0,0-1.46,5.94c-.29,1.79-.32,3.61-.48,5.58-1.21-.56-2.19-1.08-3.23-1.47-1.33-.49-3-1-3.75.48a5,5,0,0,0,0,3.86,14.53,14.53,0,0,0,7.68,7.41,10.17,10.17,0,0,0,4.23.86c5.16-.23,9-3.08,12.31-6.78,1.11-1.25,2-2.81.84-4.48S595.86,334.84,594.27,335.39Zm-18.83,1.76c4.17.55,6.52,2.47,6.41,7.06A13.52,13.52,0,0,1,575.44,337.15Zm10,7.45c-2.16-2.89-2.12-15.39.17-19.24C587.69,329.33,587.52,341.29,585.49,344.6Zm3.14-.59c.17-3.57,3.06-6,7.28-6.05C595.2,340.08,591.65,343,588.63,344ZM425.28,697.77c-3.16-.62-6.37-1-9.67-1.49A15.79,15.79,0,0,0,417,692.8c.17-1.06.12-2.68-.52-3.2a4,4,0,0,0-3.42-.36,14.47,14.47,0,0,0-8,8.13,10.65,10.65,0,0,0-.74,4.25c.18,4.65,2.79,8.15,5.89,11.31a8.45,8.45,0,0,0,2.79,1.85,2.46,2.46,0,0,0,3.59-2.52,24.13,24.13,0,0,0-1.49-5.08,9.79,9.79,0,0,0-.76-1.47c3.69-.48,7.3-.82,10.85-1.47,1.74-.31,4.05-.7,4.07-3.06S427.17,698.14,425.28,697.77Zm-10.81-6.54c.26,3.54-2.34,5.92-7.05,6.39C409.28,694.69,411.24,692.32,414.47,691.23Zm-6.91,13.21c3.61-.23,6,2.61,6.27,7.61A19.16,19.16,0,0,1,407.56,704.44Zm-1-3.56a37.5,37.5,0,0,1,19.92.13C423.48,703.36,410.67,703.33,406.58,700.88Zm-233-359.46a33.05,33.05,0,0,0,6.73,4.81c7.88,4,15.28-2.61,17.21-8.25.86-2.52-.91-4.16-3.52-3.41a37.58,37.58,0,0,0-3.89,1.56c-.33-2.85-.49-5.56-1-8.2a12.34,12.34,0,0,0-1.84-4.52c-1.13-1.69-3-1.46-4,.35a10.13,10.13,0,0,0-1.22,3.33c-.5,3.38-.82,6.78-1.22,10.24-1-.48-2.13-1.11-3.32-1.61-2.72-1.13-4.7-.93-5.64.48S171.48,339.56,173.6,341.42Zm21.75-4.35c-1.14,3.42-3.5,5.38-6.23,7.1C188.77,340.26,191.05,337.53,195.35,337.07Zm-10.56-11.73c2.6,2.5,2.85,15.87.35,19.66C183.15,338.31,183.45,332,184.79,325.34Zm-2.53,18.92c-3.06-1.57-5.7-3.32-7.64-6.24C178.72,337.85,181.88,340.4,182.26,344.26Zm19,342c-3.71-3.43-8.38-4.22-13.25-4-1.67.07-3.49.36-4,2.33-.53,2.2,1.1,3.26,2.75,4.06,1.45.7,3,1.18,4.66,1.81a12,12,0,0,0-1.5,1.39,96.34,96.34,0,0,0-6.62,9.07c-1.42,2.42.2,4.31,2.94,3.6a15.48,15.48,0,0,0,4.74-2.36c2-1.36,3.78-3,5.67-4.51a19.08,19.08,0,0,0,1.58,3.88c.55.83,1.72,1.81,2.53,1.74a3.66,3.66,0,0,0,2.58-2,17.07,17.07,0,0,0,1.18-5.57C204.68,692.16,203.92,688.73,201.23,686.24Zm-14.29-.89c3.56-.77,6.73,0,10,1C194,688.94,190.61,688.6,186.94,685.35Zm-1.34,16.29a31.67,31.67,0,0,1,13.79-13.29A29.56,29.56,0,0,1,185.6,701.64ZM201,700.8c-2.49-3.58-2.73-6.35.73-9.66C202.32,694.53,202.66,697.68,201,700.8ZM585.38,697c-1.81-2.32-3.84-4.48-5.6-6.5a39.16,39.16,0,0,0,5.82-2.93c2.26-1.61,1.7-4.08-.91-5-4.25-1.46-12.72.79-15.61,4.15s-3.83,10.61-1.6,14.66a3.63,3.63,0,0,0,2.47,1.86,4.13,4.13,0,0,0,2.69-1.83,17.82,17.82,0,0,0,1.54-3.79c2,1.59,3.84,3.29,5.9,4.68a14.64,14.64,0,0,0,4.79,2.23c2.47.55,3.71-1,2.79-3.4A16.29,16.29,0,0,0,585.38,697Zm-1.78-11.72c.08.23.16.45.23.68a40.62,40.62,0,0,1-6.57,2.42c-1,.19-2.23-1-3.82-1.83C577.17,685.32,580.32,684.63,583.6,685.25ZM570,700.61c-1.48-2-1.68-4.16-.87-9.25A6.13,6.13,0,0,1,570,700.61Zm1.45-12.26c4,.88,13.39,10,13.73,13.36C580.72,700.4,572.12,692,571.42,688.35ZM191.83,58a26,26,0,0,0-3,1,11.94,11.94,0,0,0-3,1.81c-1.91,1.68-1.41,3.91,1,4.79,4.19,1.56,12.94-.73,15.79-4.14s3.78-10.66,1.54-14.66a2.69,2.69,0,0,0-5.05-.12,18.15,18.15,0,0,0-1.56,3.74c-2.74-2-5.41-4-8.21-5.87-1.5-1-3.41-1.8-5-.32s-.43,3.46.55,4.86C187.06,52.07,189.47,55,191.83,58Zm-4,4.87c3.27-3.34,7.37-3.73,9.83-1C194.46,62.8,191.29,63.54,187.81,62.83Zm13.84-15.31c1.48,1.94,1.68,4.08.85,9.47C199,53.67,199.32,50.82,201.65,47.52Zm-1.32,12.39c-4.23-1.28-12.44-9.11-14.06-13.27C189.6,46.62,199.05,55.44,200.33,59.91Zm383.72,6c1.53-.1,3.13-.51,3.56-2.3.48-2-.89-3.11-2.41-3.87s-3.24-1.32-4.52-1.83c2.29-3,4.72-5.89,6.91-9,.95-1.34,2.09-3.15.51-4.69s-3.44-.71-4.94.27c-2.81,1.84-5.47,3.88-8.29,5.9a14.06,14.06,0,0,0-1.3-3.38c-.65-.92-1.87-2.14-2.72-2a4.24,4.24,0,0,0-2.73,2.32,14.08,14.08,0,0,0-1,5c-.17,3.54.53,7,3.16,9.51C574.08,65.4,579,66.2,584.05,65.88Zm.5-3.37c-3.42,1-6.59.3-9.83-1.22,1.16-.54,2.43-1.67,3.44-1.48A22.4,22.4,0,0,1,584.55,62.51Zm1.51-16a31.8,31.8,0,0,1-13.85,13.24A29.54,29.54,0,0,1,586.06,46.52Zm-15.47.78c2.73,3.14,2.47,6.36-.63,9.64C569.22,53.68,569.05,50.57,570.59,47.3ZM380.66,57.74a8.27,8.27,0,0,0,.57-2.46c-.21-3.05,2-6.6,4.55-6.9s5.17,2.8,5.37,5.9a11.71,11.71,0,0,0,0,1.18c.16.77.29,2.09.64,2.16A3.16,3.16,0,0,0,394.2,57a10.22,10.22,0,0,0,3.45-8.12A11.37,11.37,0,0,0,382.93,38.1c-8.19,2.47-11,12.83-5,18.63C378.57,57.34,379.74,57.41,380.66,57.74Zm.64-14.83a7.29,7.29,0,0,1,9.16-.38c3.06,2,4.13,4.86,3.09,8.6-3.61-7.54-10.53-8.05-14.63-.16A6.9,6.9,0,0,1,381.3,42.91ZM192.19,361.43c.63-.09,1.32.12,2,0s1.66-.23,1.84-.64a2.33,2.33,0,0,0-.27-2.11,13.17,13.17,0,0,0-3.56-2.76,11.1,11.1,0,0,0-12.52,2,11.66,11.66,0,0,0-2.91,12.55c1.76,4.39,5.93,7.24,11.88,7.28a9.81,9.81,0,0,0,6.86-3.52,2.67,2.67,0,0,0,.59-2.25c-.18-.47-1.36-.56-2.1-.78-.17,0-.39.06-.59.07-3,.19-6.31-2.26-6.57-4.9C186.59,364.31,189.24,361.84,192.19,361.43Zm-2.86,12.1a6.5,6.5,0,0,1-7.56-1.82c-2.7-3.17-3-6.69-.85-9.8a7.08,7.08,0,0,1,8.42-2.92C180.67,363.8,182.84,370.54,189.33,373.53ZM393.3,691a2.63,2.63,0,0,0-2.26-.53c-.46.21-.72,1.39-.69,2.13a6.66,6.66,0,0,1-2.92,6.32,3.3,3.3,0,0,1-4.35-.11,6.93,6.93,0,0,1-2.58-6.31c.06-.68-.22-1.86-.62-2a3.18,3.18,0,0,0-2.29.44A6,6,0,0,0,376,692.7a11.27,11.27,0,0,0,.08,13,11.73,11.73,0,0,0,12.83,4.36c4.71-1.52,7.93-6,8-12.25A9.8,9.8,0,0,0,393.3,691Zm-2.74,13.91c-3.21,2.55-6.43,2.8-9.47.73s-4-5.06-2.93-8.88c1.36,3.61,3.74,6,7.24,6.1,3.68.12,5.77-2.65,7.26-5.89A6.76,6.76,0,0,1,390.56,704.93ZM576.7,371.19c-.62-.06-1.66.19-1.84.6a3.42,3.42,0,0,0,.22,2.15c.12.4.58.7.92,1a11.36,11.36,0,0,0,18.41-11.6c-1.38-5.05-5.74-8.43-12.38-8.48a9.79,9.79,0,0,0-6.78,3.64,2.73,2.73,0,0,0-.41,2.28c.13.4,1.31.67,2,.61a6.89,6.89,0,0,1,6,2.29c1.47,1.68,1.52,3,.23,4.83A6.5,6.5,0,0,1,576.7,371.19ZM581.47,359a6.89,6.89,0,0,1,8.16,2.5c2.34,3,2.29,6.39-.17,9.64a6.69,6.69,0,0,1-8,2.42C589.46,369.64,588.73,362.66,581.47,359ZM459.4,111.47a68.45,68.45,0,0,0-1.31-8.09,53.93,53.93,0,0,0-1.9,9.13,4.33,4.33,0,0,1-2.63,3.67c-1.72.8-3.55,1.36-5.4,2.06.72.21,1.41.45,2.11.61,3.61.84,6.22,2.58,6.22,6.76a12,12,0,0,0,.28,2l1,5.38a47.51,47.51,0,0,0,1.75-8.66,4.82,4.82,0,0,1,2.87-4.19c1.67-.77,3.44-1.31,5.31-2-1.31-.38-2.54-.64-3.7-1.07C461.38,116.07,459.56,114.62,459.4,111.47ZM235.06,621.75c5.22.74,8,3.51,7.89,9,0,1.81.66,3.63,1,5.45a34.53,34.53,0,0,0,1.61-7.87c.15-3.18,1.81-4.8,4.56-5.72,1.19-.4,2.39-.76,3.93-1.25-1.51-.42-2.6-.68-3.66-1-2.87-.93-4.73-2.54-4.85-5.93a57,57,0,0,0-1.28-7.7,4.35,4.35,0,0,0-.77,2c-.38,2.27-.84,4.55-1.07,6.84a4.81,4.81,0,0,1-3.17,4.18c-1.54.67-3.17,1.1-4.77,1.64,0,0,0,.13,0,.16A1.63,1.63,0,0,0,235.06,621.75Zm294.28-72.44c5,.33,4.09,4.45,5.08,7.35.86-3,.15-6.93,5.22-7.2-3.68-1.49-3.68-1.49-5.22-8C533.43,544.76,534.35,548.9,529.34,549.31ZM237.89,408.45a5.73,5.73,0,0,0-.19-1c-.07-.3-.13-.61-.19-.91-1,2.92-.33,6.73-5,7.44,5,.42,3.69,4.65,4.88,7.64.91-3.17-.08-7,4.57-7.69C238.81,413.24,237.88,411.19,237.89,408.45ZM481.2,305.78c.72-1.23,2.27-2,3.44-2.92-4.31-.12-3.52-4.07-4.62-7.33-.69,3.5-.37,7.05-4.86,7.62,4.74.46,4.06,4.24,5.09,7.11C480.54,308.75,480.46,307,481.2,305.78Zm.92-162.61c4.61.57,3.77,4.42,4.68,7.52,1.09-3.06.05-7,4.84-7.53-4.67-.55-3.76-4.5-4.9-7.61C486,138.85,486.55,142.46,482.12,143.17ZM184.82,437c-.08-1.43-.76-2.59-2.24-2.36-.81.12-1.47,1.2-2.73,2.33,1.34,1,2.07,1.9,2.94,2C184,439.26,184.9,438.48,184.82,437Zm403.17,2c1.37.12,2.12-.8,2.1-2.25s-.61-2.23-2-2.19c-1.54,0-2.07,1.15-2.16,3.23C586.46,438.16,587.19,439,588,439.06Zm-1.94-11.84c0,1.21.62,1.79,1.84,1.79,1.54,0,2.07-.9,2.49-2.72-.73-.55-1.43-1.5-2.2-1.57C586.62,424.58,586.09,425.85,586.05,427.22ZM181.59,311.39a1.78,1.78,0,0,0,1.8,2.13c1.6.05,2.23-1.14,2.13-2.49-.06-.74-.81-1.43-1.05-1.83C182.28,309.15,181.67,310,181.59,311.39Zm-.79,115.36c0,1.37.61,2.27,2.82,2.26.25-.38,1-1.05,1.1-1.79.14-1.34-.48-2.55-2.07-2.55A1.76,1.76,0,0,0,180.8,426.75ZM589,313.47c.77-.1,1.44-1.06,2.16-1.63-.46-1.83-1-2.68-2.56-2.66a1.59,1.59,0,0,0-1.78,1.85C586.91,312.4,587.46,313.66,589,313.47ZM182.72,444.89c-1.35,0-2.22.93-1.92,2.16a3.12,3.12,0,0,0,1.93,2c1.17.21,2.07-.65,2.08-2.15A1.91,1.91,0,0,0,182.72,444.89ZM588.07,449a3.07,3.07,0,0,0,1.95-2c.32-1.23-.54-2.15-1.89-2.18s-2,.74-2.13,2.19C586.07,448.3,586.88,449.25,588.07,449ZM441.54,43.16a1.79,1.79,0,0,0-2-2c-1.22.06-2,.58-2.34,2.33.78.6,1.49,1.55,2.36,1.73C440.94,45.52,441.59,44.42,441.54,43.16ZM332.78,45.32a1.82,1.82,0,0,0,2-2.13c-.09-.81-.87-1.54-1.13-2-2.16-.09-2.76.8-2.77,2.05A1.8,1.8,0,0,0,332.78,45.32Zm-.72,657.5a1.75,1.75,0,0,0-1.93,2.15c.13.82.94,1.53,1.45,2.29h1c.51-.74,1.34-1.44,1.45-2.24A1.83,1.83,0,0,0,332.06,702.82Zm106.69,0a1.83,1.83,0,0,0-1.91,2.23c.12.8,1,1.49,1.46,2.23l1,0c.5-.76,1.31-1.48,1.43-2.3A1.76,1.76,0,0,0,438.75,702.81ZM586.05,616a1.7,1.7,0,0,0,2,1.94c.83-.1,1.57-.87,2.35-1.35,0-.31,0-.62,0-.93-.73-.57-1.4-1.48-2.21-1.63C587,613.78,586.08,614.64,586.05,616ZM185.51,301c-.16-.81-1-1.49-1.59-2.23l-.91,0c-.48.78-1.42,1.63-1.32,2.33a2.92,2.92,0,0,0,1.87,1.94A1.67,1.67,0,0,0,185.51,301ZM588.05,607.93c.69.11,1.53-.84,2.31-1.33l0-.93c-.73-.56-1.41-1.46-2.22-1.6a1.66,1.66,0,0,0-2,2A2.88,2.88,0,0,0,588.05,607.93Zm.87-424.1c.81-.12,1.51-1,2.26-1.54,0-.32,0-.63,0-.94-.77-.5-1.59-1.46-2.28-1.38a2.92,2.92,0,0,0-2,1.84A1.67,1.67,0,0,0,588.92,183.83ZM185.52,281.2c-.15-.82-1-1.51-1.55-2.26h-.91c-.5.77-1.46,1.6-1.37,2.3a2.87,2.87,0,0,0,1.84,2A1.67,1.67,0,0,0,185.52,281.2Zm403.3-7.9c.81-.08,1.56-.92,2.34-1.42l0-.93c-.74-.55-1.51-1.56-2.2-1.51a2.91,2.91,0,0,0-2.06,1.74A1.67,1.67,0,0,0,588.82,273.3ZM182.38,563.91a8.12,8.12,0,0,0-1.54,2.28c-.28,1.22.57,2,1.79,2.08s2.29-.65,2.09-2c-.12-.84-.95-1.57-1.47-2.35ZM588.89,259.5a2.94,2.94,0,0,0-2,1.84,1.67,1.67,0,0,0,2,2c.81-.11,1.51-1,2.26-1.54,0-.31,0-.62,0-.93C590.41,260.39,589.58,259.42,588.89,259.5ZM185.5,261.34a2.92,2.92,0,0,0-2-1.84c-.69-.09-1.52.88-2.28,1.39,0,.31,0,.62,0,.93.75.54,1.45,1.42,2.26,1.54A1.67,1.67,0,0,0,185.5,261.34ZM589,249.56a2.89,2.89,0,0,0-2,1.77,1.66,1.66,0,0,0,1.91,2.09c.82-.09,1.55-.94,2.32-1.45l0-.93C590.44,250.5,589.66,249.5,589,249.56Zm-403.47,1.77a2.91,2.91,0,0,0-2-1.77c-.69-.06-1.48.94-2.23,1.47l0,.94c.77.51,1.5,1.36,2.31,1.45A1.66,1.66,0,0,0,185.49,251.33Zm-2.85,293.09c-.81.15-1.48,1.06-2.21,1.63l0,.93c.79.48,1.53,1.25,2.36,1.36a1.71,1.71,0,0,0,1.95-2C184.75,545.05,183.88,544.19,182.64,544.42Zm403.49,2.06a2.91,2.91,0,0,0,2,1.8c.69.08,1.5-.91,2.25-1.43,0-.31,0-.62,0-.93-.76-.52-1.47-1.4-2.29-1.5A1.67,1.67,0,0,0,586.13,546.48Zm-403-307.31c-.53.75-1.53,1.53-1.47,2.22a2.87,2.87,0,0,0,1.74,2.07,1.68,1.68,0,0,0,2.08-1.94c-.11-.82-.94-1.55-1.44-2.33Zm-.52,249.57c1.29.06,2.29-.67,2.07-2-.13-.84-1-1.56-1.49-2.34l-.87,0a8,8,0,0,0-1.52,2.3C180.56,487.9,181.43,488.69,182.65,488.74Zm407.71-2.54c-.77-.5-1.51-1.34-2.33-1.42a1.67,1.67,0,0,0-1.9,2.11,2.9,2.9,0,0,0,2.06,1.75c.69.05,1.47-1,2.2-1.5Zm-3.43-334.39a1.68,1.68,0,0,0,1.81,2.2c.82,0,1.6-.86,2.39-1.33,0-.31,0-.63.07-.94-.71-.56-1.45-1.6-2.14-1.58A2.92,2.92,0,0,0,586.93,151.81ZM588,598c.83-.12,1.56-.89,2.34-1.37l0-.94c-.73-.56-1.41-1.47-2.22-1.6a1.8,1.8,0,0,0-2.12,2A1.71,1.71,0,0,0,588,598ZM183.48,223.58a1.68,1.68,0,0,0,2-2c-.13-.82-1-1.53-1.5-2.29h-.91c-.51.76-1.49,1.57-1.42,2.26A2.89,2.89,0,0,0,183.48,223.58Zm-.83,285c1.29.05,2.29-.67,2.07-2-.13-.84-1-1.56-1.49-2.34h-.87a7.87,7.87,0,0,0-1.52,2.29C180.57,507.78,181.43,508.57,182.65,508.62Zm2,87.62a1.67,1.67,0,0,0-1.9-2.11c-.82.08-1.56.92-2.33,1.43l0,.93c.74.54,1.51,1.56,2.2,1.5A2.9,2.9,0,0,0,184.7,596.24Zm-2-12c-.81.14-1.48,1-2.22,1.61,0,.31,0,.62,0,.93.78.48,1.52,1.26,2.35,1.37a1.71,1.71,0,0,0,2-1.93C184.75,584.83,183.89,584,182.65,584.19ZM588.13,468.76c.69.07,1.49-.91,2.25-1.43v-.93c-.76-.53-1.48-1.4-2.29-1.51a1.67,1.67,0,0,0-2,2.06A2.92,2.92,0,0,0,588.13,468.76Zm-1.2-267.17a1.67,1.67,0,0,0,1.89,2.12c.82-.07,1.56-.92,2.34-1.41l0-.94c-.74-.55-1.51-1.56-2.2-1.51A2.91,2.91,0,0,0,586.93,201.59ZM182.65,468.76a2.92,2.92,0,0,0,2-1.76,1.67,1.67,0,0,0-1.91-2.11c-.81.08-1.55.93-2.32,1.44l0,.94C181.18,467.8,182,468.81,182.65,468.76Zm.94-269c-.83.12-1.56.91-2.33,1.4l0,.93c.75.55,1.43,1.45,2.24,1.59,1.25.2,2.1-.68,2.1-2A1.7,1.7,0,0,0,183.59,199.8Zm-1,408.14a2.92,2.92,0,0,0,2.06-1.76,1.67,1.67,0,0,0-1.9-2.11c-.81.08-1.56.92-2.33,1.43l0,.93C181.17,607,182,608,182.64,607.94Zm2.08-91.46c-.17-.83-1-1.52-1.59-2.28l-.87,0a8.11,8.11,0,0,0-1.42,2.36c-.23,1.24.69,2,1.89,2S185,517.79,184.72,516.48Zm403.43-1.88c-1.25-.2-2.1.67-2.1,2a1.7,1.7,0,0,0,2,1.89c.83-.12,1.55-.91,2.32-1.4l0-.94C589.65,515.62,589,514.73,588.15,514.6ZM589,193.77c.81-.13,1.49-1,2.23-1.6l0-.93c-.78-.48-1.52-1.27-2.34-1.38a1.71,1.71,0,0,0-2,1.92C586.86,193.12,587.71,194,589,193.77ZM182.71,524.54c-.81.12-1.51,1-2.26,1.54,0,.31,0,.62,0,.93.76.51,1.58,1.48,2.27,1.4a2.92,2.92,0,0,0,2-1.84A1.67,1.67,0,0,0,182.71,524.54Zm.36-364.88c-.5.76-1.46,1.59-1.38,2.28a2.88,2.88,0,0,0,1.83,2,1.67,1.67,0,0,0,2-2c-.14-.82-1-1.51-1.54-2.26ZM588.14,524.54a1.66,1.66,0,0,0-2,2,2.88,2.88,0,0,0,2,1.86c.68.1,1.52-.86,2.29-1.36,0-.31,0-.62,0-.93C589.64,525.56,589,524.67,588.14,524.54Zm0,29.82c-1.24-.21-2.1.66-2.11,2a1.71,1.71,0,0,0,2,1.92c.83-.12,1.57-.9,2.34-1.39l0-.93C589.65,555.4,589,554.5,588.16,554.36Zm0-19.88c-1.25-.18-2.09.7-2.07,2a1.72,1.72,0,0,0,2,1.88c.83-.14,1.55-.94,2.31-1.44,0-.31,0-.62,0-.93C589.63,535.48,588.94,534.6,588.12,534.48Zm.79-360.59c.81-.12,1.51-1,2.27-1.53,0-.31,0-.62,0-.93-.76-.51-1.58-1.49-2.27-1.4a2.92,2.92,0,0,0-2,1.83A1.67,1.67,0,0,0,588.91,173.89ZM589,104.3c.81-.13,1.49-1,2.23-1.59l0-.93c-.78-.49-1.51-1.27-2.34-1.39a1.7,1.7,0,0,0-2,1.91C586.85,103.65,587.72,104.51,589,104.3ZM182.78,624c-.82.09-1.55.95-2.32,1.46l0,.93c.75.54,1.53,1.54,2.23,1.47a2.89,2.89,0,0,0,2-1.77A1.67,1.67,0,0,0,182.78,624Zm.79-519.67a2.87,2.87,0,0,0,1.89-1.94c.11-.69-.86-1.54-1.35-2.32l-.91,0c-.54.74-1.39,1.42-1.56,2.24A1.63,1.63,0,0,0,183.57,104.28Zm406.79,521.1c-.77-.5-1.52-1.35-2.33-1.43a1.67,1.67,0,0,0-1.9,2.12,2.91,2.91,0,0,0,2.06,1.74c.69.06,1.46-.95,2.2-1.49Zm-1.54-531c.82-.08,1.56-.92,2.34-1.42l0-.94c-.74-.54-1.51-1.55-2.21-1.5a2.91,2.91,0,0,0-2.05,1.75A1.66,1.66,0,0,0,588.82,94.36Zm-403.25-2a1.7,1.7,0,0,0-1.94-1.94c-.83.1-1.58.88-2.36,1.35l0,.93c.73.57,1.39,1.48,2.2,1.63C184.68,94.59,185.54,93.73,185.57,92.39ZM588.81,229.62a1.72,1.72,0,0,0-2,1.93,1.81,1.81,0,0,0,2.13,2c.81-.14,1.48-1,2.22-1.61l0-.93C590.38,230.52,589.64,229.74,588.81,229.62ZM588.05,455a1.67,1.67,0,0,0-1.92,2.09,2.91,2.91,0,0,0,2,1.77c.69.07,1.48-.94,2.23-1.47,0-.31,0-.62,0-.93C589.6,455.9,588.87,455,588.05,455ZM586.13,636a2.87,2.87,0,0,0,2.06,1.74c.69.06,1.46-1,2.2-1.5l0-.93c-.78-.5-1.52-1.35-2.33-1.43A1.67,1.67,0,0,0,586.13,636ZM185.57,82.42a1.7,1.7,0,0,0-2-1.91c-.83.12-1.56.9-2.34,1.38l0,.93c.74.56,1.42,1.46,2.23,1.6C184.71,84.63,185.56,83.76,185.57,82.42Zm-2.07,91.47a1.67,1.67,0,0,0,2-2,2.92,2.92,0,0,0-2-1.84c-.69-.09-1.52.88-2.28,1.39,0,.31,0,.62,0,.93C182,172.89,182.69,173.77,183.5,173.89ZM588,474.83a1.67,1.67,0,0,0-1.9,2.12,2.87,2.87,0,0,0,2.06,1.74c.69.06,1.46-.95,2.2-1.5l0-.93C589.59,475.76,588.84,474.91,588,474.83Zm-405.23,169c-.82.09-1.56.93-2.33,1.44l0,.93c.74.54,1.52,1.56,2.21,1.5a2.93,2.93,0,0,0,2-1.75A1.67,1.67,0,0,0,182.8,643.83Zm403.25,2a1.71,1.71,0,0,0,2,1.93c.83-.11,1.57-.89,2.35-1.37,0-.31,0-.62,0-.93-.74-.57-1.41-1.47-2.22-1.62C586.93,643.61,586.08,644.48,586.05,645.82Zm-401.35,20a1.67,1.67,0,0,0-1.89-2.12c-.82.07-1.56.92-2.34,1.42l0,.93c.74.55,1.51,1.56,2.21,1.5A2.9,2.9,0,0,0,184.7,665.84ZM591.15,280.68c-.78-.47-1.53-1.25-2.36-1.35a1.7,1.7,0,0,0-1.94,1.94c0,1.34.89,2.2,2.14,2,.81-.15,1.47-1.06,2.2-1.63C591.18,281.3,591.16,281,591.15,280.68Zm-3,287.49c.69.09,1.51-.89,2.28-1.4v-.93c-.75-.54-1.45-1.42-2.26-1.54a1.67,1.67,0,0,0-2,2A2.88,2.88,0,0,0,588.1,568.17ZM181.27,122.76c.77.5,1.52,1.35,2.34,1.43a1.67,1.67,0,0,0,1.88-2.13,2.88,2.88,0,0,0-2.06-1.73c-.69,0-1.46,1-2.2,1.5C181.24,122.14,181.25,122.45,181.27,122.76Zm407.63,1.43c.82-.12,1.52-1,2.28-1.53,0-.31,0-.62,0-.93-.76-.51-1.57-1.49-2.26-1.41a2.92,2.92,0,0,0-2,1.83A1.68,1.68,0,0,0,588.9,124.19ZM185.52,181.77c-.16-.82-1-1.5-1.58-2.25l-.9,0c-.49.78-1.44,1.62-1.35,2.32a2.87,2.87,0,0,0,1.85,1.95A1.66,1.66,0,0,0,185.52,181.77Zm-2-41.62c-.83.13-1.55.93-2.32,1.43v.93c.74.55,1.44,1.43,2.25,1.56,1.25.19,2.09-.69,2.08-2A1.71,1.71,0,0,0,183.57,140.15Zm405.34-25.91c.82-.11,1.52-1,2.27-1.54v-.93c-.77-.5-1.59-1.48-2.28-1.39a2.92,2.92,0,0,0-2,1.84A1.67,1.67,0,0,0,588.91,114.24ZM272.84,45.18a2.94,2.94,0,0,0,1.86-2c.08-.7-.89-1.52-1.4-2.29l-.89,0c-.55.76-1.43,1.45-1.56,2.27A1.63,1.63,0,0,0,272.84,45.18ZM591.15,290.65c-.77-.48-1.51-1.26-2.34-1.38a1.71,1.71,0,0,0-2,1.93c0,1.34.87,2.2,2.12,2,.81-.14,1.48-1,2.22-1.6C591.18,291.27,591.16,291,591.15,290.65ZM183.53,273.3a1.67,1.67,0,0,0,2-2.05,2.92,2.92,0,0,0-2-1.81c-.69-.08-1.5.9-2.26,1.42v.93C182,272.32,182.71,273.2,183.53,273.3Zm407.62-32.38c-.78-.48-1.53-1.25-2.36-1.35a1.7,1.7,0,0,0-1.94,1.94c0,1.34.89,2.2,2.14,2,.81-.15,1.47-1.06,2.2-1.63C591.18,241.54,591.16,241.23,591.15,240.92ZM184.7,457.06a1.67,1.67,0,0,0-1.9-2.11c-.82.08-1.56.93-2.33,1.44l0,.93c.74.54,1.52,1.55,2.21,1.5A2.94,2.94,0,0,0,184.7,457.06ZM181.24,232c.75.54,1.46,1.42,2.27,1.54a1.67,1.67,0,0,0,2-2,2.91,2.91,0,0,0-2-1.84c-.69-.08-1.51.89-2.27,1.4Zm1.43,246.79c1.31,0,2.27-.7,2.05-2-.14-.83-1-1.55-1.52-2.32h-.87a8,8,0,0,0-1.49,2.31C180.58,478,181.45,478.75,182.67,478.79Zm0,155.1c-.81.12-1.51,1-2.26,1.54,0,.31,0,.62,0,.93.76.51,1.58,1.48,2.27,1.39a2.89,2.89,0,0,0,2-1.83A1.67,1.67,0,0,0,182.71,633.89Zm.44-139.57-.87,0a7.85,7.85,0,0,0-1.44,2.36c-.24,1.23.67,2,1.88,2s2.26-.75,2-2.07C184.56,495.78,183.7,495.08,183.15,494.32Zm403.78-412a1.67,1.67,0,0,0,1.87,2.14c.82-.07,1.57-.91,2.35-1.4,0-.31,0-.62,0-.93-.73-.56-1.49-1.58-2.19-1.53A2.92,2.92,0,0,0,586.93,82.28Zm2,131.38c.81-.14,1.49-1,2.23-1.59l0-.93c-.77-.49-1.51-1.27-2.33-1.4a1.71,1.71,0,0,0-2,1.91C586.85,213,587.7,213.86,589,213.66ZM183,189.49c-.49.77-1.44,1.61-1.35,2.3a2.88,2.88,0,0,0,1.85,2,1.67,1.67,0,0,0,2-2c-.16-.82-1-1.5-1.58-2.25Zm-.36,345c-.81.13-1.5,1-2.24,1.58,0,.31,0,.62,0,.93.77.49,1.5,1.28,2.33,1.41a1.72,1.72,0,0,0,2-1.9C184.78,535.15,183.93,534.28,182.68,534.48Zm408.48-373c-.77-.5-1.49-1.29-2.32-1.42a1.71,1.71,0,0,0-2,1.9c0,1.34.84,2.22,2.09,2,.81-.13,1.5-1,2.24-1.57C591.18,162.07,591.17,161.76,591.16,161.45ZM182.76,554.36c-.82.1-1.54,1-2.3,1.48l0,.94c.76.52,1.55,1.51,2.24,1.44a2.87,2.87,0,0,0,2-1.78A1.67,1.67,0,0,0,182.76,554.36Zm0,99.41c-.82.12-1.53,1-2.28,1.53v.93c.76.51,1.57,1.49,2.26,1.41a2.88,2.88,0,0,0,2-1.82A1.67,1.67,0,0,0,182.73,653.77ZM223.08,45.14c.71.09,1.55-.85,2.33-1.34l0-.89c-.74-.56-1.42-1.43-2.23-1.59a1.66,1.66,0,0,0-2.05,2A2.89,2.89,0,0,0,223.08,45.14Zm326.24,0c.83-.12,1.55-.93,2.32-1.44l0-.87c-.75-.55-1.54-1.55-2.25-1.51a2.87,2.87,0,0,0-2,1.77A1.62,1.62,0,0,0,549.32,45.19Zm-10,0a1.62,1.62,0,0,0,2-1.94c-.11-.82-1-1.53-1.5-2.3h-.91c-.51.76-1.5,1.56-1.43,2.26A2.93,2.93,0,0,0,539.3,45.17ZM185.5,152a2.93,2.93,0,0,0-2-1.83c-.69-.08-1.5.9-2.26,1.42v.92c.76.54,1.47,1.42,2.28,1.53A1.67,1.67,0,0,0,185.5,152Zm-2.84,426.15a3,3,0,0,0,2-1.77,1.67,1.67,0,0,0-1.92-2.1c-.81.08-1.55.94-2.32,1.44,0,.32,0,.63,0,.94C181.18,577.17,182,578.18,182.66,578.12ZM519.75,45.61c.59-.7,1.5-1.33,1.69-2.13a1.65,1.65,0,0,0-1.85-2.14,2.88,2.88,0,0,0-2,1.81c-.14.69.77,1.58,1.22,2.38Zm-29.69,0c.55-.74,1.43-1.43,1.57-2.24a1.65,1.65,0,0,0-2-2,2.89,2.89,0,0,0-1.88,1.92c-.09.7.87,1.53,1.37,2.31Zm-19.9,0c.55-.74,1.43-1.41,1.58-2.22a1.65,1.65,0,0,0-1.95-2,2.89,2.89,0,0,0-1.89,1.9c-.1.7.85,1.54,1.34,2.32ZM460,45.13c.7,0,1.47-1,2.21-1.53l0-.86c-.79-.5-1.54-1.31-2.38-1.42a1.63,1.63,0,0,0-1.87,2.1A2.87,2.87,0,0,0,460,45.13ZM182.71,614c-.81.11-1.51,1-2.26,1.54v.93c.77.51,1.48,1.31,2.3,1.45a1.72,1.72,0,0,0,2-1.87C184.8,614.71,184,613.83,182.71,614ZM591.17,131.64c-.77-.5-1.6-1.46-2.29-1.37a2.9,2.9,0,0,0-2,1.85,1.67,1.67,0,0,0,2,2c.81-.13,1.5-1,2.25-1.56C591.18,132.26,591.17,132,591.17,131.64ZM312.06,45.57l.92,0c.53-.75,1.54-1.53,1.48-2.23a2.87,2.87,0,0,0-1.78-2,1.65,1.65,0,0,0-2.07,1.92C310.71,44.08,311.55,44.81,312.06,45.57Zm-9.47-.44c.7.11,1.56-.82,2.35-1.3l0-.89c-.73-.56-1.39-1.45-2.21-1.62a1.66,1.66,0,0,0-2.07,1.93A2.86,2.86,0,0,0,302.59,45.13ZM220.37,704.72a1.66,1.66,0,0,0,1.89,2.1c.83-.1,1.57-.91,2.35-1.4l0-.89c-.74-.55-1.51-1.56-2.21-1.52A2.87,2.87,0,0,0,220.37,704.72ZM242.22,703a2.85,2.85,0,0,0-2,1.82,1.66,1.66,0,0,0,2,2c.82-.14,1.52-1,2.27-1.54v-.88C243.74,703.89,242.92,702.92,242.22,703Zm29.45-.47c-.56.73-1.45,1.4-1.61,2.21A1.65,1.65,0,0,0,272,706.8a2.87,2.87,0,0,0,1.91-1.89c.11-.69-.84-1.55-1.32-2.33ZM529.4,45.19c.83-.1,1.57-.91,2.35-1.4,0-.29,0-.58,0-.87-.74-.56-1.5-1.58-2.22-1.54a2.84,2.84,0,0,0-2,1.73A1.61,1.61,0,0,0,529.4,45.19ZM291.9,703a2.86,2.86,0,0,0-1.94,1.84,1.65,1.65,0,0,0,2,2c.81-.15,1.5-1,2.25-1.55,0-.3,0-.6,0-.9C293.44,703.87,292.61,702.91,291.9,703Zm8,1.74a1.65,1.65,0,0,0,1.91,2.08c.83-.1,1.56-.92,2.33-1.42l0-.9c-.74-.54-1.52-1.54-2.22-1.49A2.84,2.84,0,0,0,299.9,704.74Zm21.33-2.18c-.52.76-1.37,1.48-1.47,2.3a1.66,1.66,0,0,0,2.05,1.94,2.9,2.9,0,0,0,1.8-2c.06-.69-.94-1.49-1.47-2.24ZM233,45.2a7.72,7.72,0,0,0,2.33-1.44v-.89c-.74-.54-1.43-1.41-2.25-1.55-1.28-.23-2.11.69-2.08,2S231.8,45.43,233,45.2Zm-51.77,67.6c.77.51,1.51,1.36,2.32,1.45a1.67,1.67,0,0,0,1.91-2.11,2.88,2.88,0,0,0-2-1.75c-.69-.06-1.47.94-2.22,1.47ZM449.15,703a2.85,2.85,0,0,0-2,1.83,1.63,1.63,0,0,0,2,2c.83-.16,1.53-1,2.28-1.55,0-.29,0-.58,0-.87C450.67,703.89,449.85,702.92,449.15,703Zm30.37-.42-.92,0c-.56.73-1.6,1.48-1.56,2.18a2.85,2.85,0,0,0,1.72,2.07,1.65,1.65,0,0,0,2.13-1.86C480.82,704.11,480,703.36,479.52,702.58Zm19.85,0-.92,0c-.55.74-1.57,1.52-1.53,2.21a2.9,2.9,0,0,0,1.76,2,1.65,1.65,0,0,0,2.09-1.9C500.69,704.08,499.86,703.35,499.37,702.57Zm10,0-.92,0c-.56.72-1.6,1.48-1.56,2.18a2.88,2.88,0,0,0,1.71,2.07,1.66,1.66,0,0,0,2.14-1.85C510.64,704.12,509.83,703.36,509.35,702.58Zm9.94,0-.93,0c-.56.73-1.59,1.48-1.55,2.18a2.88,2.88,0,0,0,1.72,2.07,1.66,1.66,0,0,0,2.13-1.86C520.59,704.11,519.77,703.36,519.29,702.58Zm10,0-.93,0c-.56.73-1.6,1.48-1.56,2.18a2.88,2.88,0,0,0,1.71,2.07,1.66,1.66,0,0,0,2.14-1.85C530.53,704.12,529.72,703.36,529.24,702.58Zm-237-657h.92c.53-.75,1.53-1.55,1.46-2.24a2.89,2.89,0,0,0-1.8-2,1.65,1.65,0,0,0-2,1.95C290.84,44.1,291.69,44.82,292.2,45.58Zm-49.68,0h.92c.52-.76,1.51-1.57,1.43-2.26a2.85,2.85,0,0,0-1.81-2,1.65,1.65,0,0,0-2,2C241.14,44.12,242,44.83,242.52,45.58Zm39.08,657c-.56.73-1.45,1.39-1.6,2.2a1.66,1.66,0,0,0,1.93,2.06,2.89,2.89,0,0,0,1.91-1.89c.11-.69-.84-1.54-1.32-2.33ZM183.17,288.88c-.53.75-1.53,1.53-1.47,2.22a2.87,2.87,0,0,0,1.74,2.07,1.67,1.67,0,0,0,2.08-1.94c-.11-.82-.93-1.55-1.43-2.32ZM586.85,142c0,1.34.8,2.23,2,2.06.81-.11,1.52-1,2.27-1.53v-.93c-.76-.51-1.47-1.3-2.29-1.45A1.71,1.71,0,0,0,586.85,142Zm1.26,515.62c.69.08,1.51-.89,2.26-1.4v-.94c-.76-.53-1.46-1.4-2.27-1.51a1.66,1.66,0,0,0-2,2A2.91,2.91,0,0,0,588.11,657.63Zm-356.43,45c-.49.77-1.31,1.52-1.39,2.33a1.66,1.66,0,0,0,2.11,1.88,2.86,2.86,0,0,0,1.73-2c.05-.7-1-1.46-1.53-2.2ZM586.13,576.33a2.91,2.91,0,0,0,2,1.77c.69.06,1.48-.93,2.23-1.46l0-.94c-.77-.51-1.5-1.36-2.32-1.45A1.66,1.66,0,0,0,586.13,576.33ZM251.57,702.57c-.49.78-1.31,1.52-1.4,2.34a1.66,1.66,0,0,0,2.1,1.89,2.89,2.89,0,0,0,1.74-2c.05-.7-1-1.47-1.51-2.21Zm10.57.39a1.63,1.63,0,0,0-2,1.95c.12.82,1,1.53,1.52,2.29h.9c.51-.76,1.49-1.57,1.42-2.27A2.93,2.93,0,0,0,262.14,703Zm323.91-37.21a1.7,1.7,0,0,0,2,1.87c.82-.14,1.54-.92,2.31-1.42v-.93c-.74-.55-1.44-1.43-2.25-1.55C586.88,663.52,586,664.41,586.05,665.75Zm2.88-362.62c.81-.13,1.51-1,2.25-1.57,0-.31,0-.62,0-.93-.77-.49-1.49-1.28-2.32-1.41a1.71,1.71,0,0,0-2,1.89C586.84,302.45,587.69,303.32,588.93,303.13Zm-306.21-258c.7.1,1.54-.84,2.33-1.32l0-.88c-.73-.56-1.4-1.44-2.21-1.61a1.65,1.65,0,0,0-2.06,1.93A2.85,2.85,0,0,0,282.72,45.13ZM181.27,132.72c.78.49,1.52,1.33,2.34,1.41a1.67,1.67,0,0,0,1.88-2.13,2.88,2.88,0,0,0-2.06-1.72c-.7-.05-1.47.95-2.2,1.5C181.24,132.09,181.25,132.4,181.27,132.72ZM311.75,703a2.88,2.88,0,0,0-1.91,1.87,1.66,1.66,0,0,0,2.05,2c.81-.16,1.48-1,2.22-1.6l0-.89C313.3,703.85,312.45,702.9,311.75,703ZM183.51,209.75c-.82.16-1.52,1-2.27,1.48,0,.32,0,.63,0,.94.77.53,1.49,1.39,2.3,1.49,1.26.15,2.07-.75,2-2.09A1.71,1.71,0,0,0,183.51,209.75ZM262.87,45.17a2.89,2.89,0,0,0,1.88-1.91c.09-.7-.86-1.54-1.36-2.32l-.89,0c-.56.74-1.45,1.43-1.59,2.24A1.62,1.62,0,0,0,262.87,45.17Zm246.66,0a1.59,1.59,0,0,0,2-1.84c-.1-.84-.93-1.6-1.43-2.39l-.94,0c-.53.77-1.54,1.58-1.46,2.28A2.94,2.94,0,0,0,509.53,45.17ZM500,45.6c.55-.74,1.43-1.41,1.58-2.22a1.65,1.65,0,0,0-1.95-2,2.89,2.89,0,0,0-1.89,1.9c-.1.7.85,1.54,1.34,2.32ZM459,703a1.61,1.61,0,0,0-1.87,2.08,2.82,2.82,0,0,0,2,1.73c.71,0,1.48-1,2.22-1.55,0-.28,0-.57,0-.86C460.59,703.86,459.85,703.05,459,703Zm10,0a1.62,1.62,0,0,0-1.94,2,2.83,2.83,0,0,0,2,1.79c.72.06,1.51-.94,2.27-1.47l0-.87C470.56,703.91,469.85,703.08,469,703ZM252.92,45.19c.84-.16,1.56-1,2.33-1.49v-.93c-.78-.51-1.63-1.49-2.32-1.39A2.92,2.92,0,0,0,251,43.3,1.58,1.58,0,0,0,252.92,45.19ZM488.91,703a2.89,2.89,0,0,0-1.92,1.88c-.1.69.84,1.55,1.32,2.33l.89,0c.57-.73,1.48-1.4,1.63-2.22A1.61,1.61,0,0,0,488.91,703ZM479.83,45.13c.7.06,1.49-.93,2.25-1.46l0-.88c-.77-.51-1.49-1.34-2.32-1.47a1.62,1.62,0,0,0-1.92,2A2.82,2.82,0,0,0,479.83,45.13Zm108.25,543c.83-.14,1.54-.94,2.3-1.45v-.94c-.76-.53-1.46-1.4-2.28-1.51-1.25-.18-2.08.72-2.05,2.06A1.7,1.7,0,0,0,588.08,588.09Zm-2-81.32a1.71,1.71,0,0,0,2.09,1.79c.82-.16,1.5-1,2.25-1.51,0-.31,0-.63,0-.94-.77-.51-1.5-1.36-2.32-1.45C586.79,504.52,586,505.43,586.05,506.77ZM449.86,45.25c1.29,0,2.15-.75,2-1.92-.1-.84-.93-1.6-1.43-2.39l-.94,0c-.53.77-1.36,1.48-1.51,2.31C447.76,44.41,448.59,45.2,449.86,45.25Zm86.81,659.48a1.63,1.63,0,0,0,1.88,2.09c.83-.12,1.57-.93,2.35-1.43,0-.29,0-.57,0-.86-.74-.55-1.51-1.57-2.22-1.52A2.87,2.87,0,0,0,536.67,704.73ZM549,702.56h-.93c-.53.75-1.53,1.53-1.47,2.23a2.89,2.89,0,0,0,1.77,2,1.66,1.66,0,0,0,2.07-1.93C550.38,704.06,549.55,703.33,549,702.56Zm39.07-204c.69.08,1.51-.89,2.26-1.4,0-.31,0-.62,0-.94-.76-.53-1.46-1.4-2.28-1.51a1.66,1.66,0,0,0-2,2A2.91,2.91,0,0,0,588.11,498.57Zm1-278.85a1.72,1.72,0,0,0-2.26,1.57,1.81,1.81,0,0,0,1.8,2.3c.82,0,1.63-.8,2.45-1.24l.1-.9C590.52,220.85,589.92,220,589.12,219.72ZM322.54,45.17a3,3,0,0,0,1.85-2c.07-.7-.94-1.51-1.47-2.27L322,41c-.5.79-1.32,1.55-1.42,2.39A1.58,1.58,0,0,0,322.54,45.17Zm3.69,510.69a3.76,3.76,0,0,0,3.91-3.83,4.18,4.18,0,0,0-4.23-4.26c-2.33,0-4.19,1.56-4.23,3.55A4.66,4.66,0,0,0,326.23,555.86Zm-72.32-8.13c-1.3.07-2.23.93-1.95,2.2.19.88,1.11,1.61,1.71,2.41l.89,0c.56-.81,1.5-1.58,1.6-2.45C256.32,548.52,255.31,547.67,253.91,547.73Zm69.47-78.16a3.75,3.75,0,0,0,4-3.77,4.17,4.17,0,0,0-4.18-4.32c-2.3,0-4.22,1.52-4.29,3.49A4.68,4.68,0,0,0,323.38,469.57ZM250.76,466l.88,0c.61-.79,1.6-1.51,1.74-2.37.23-1.33-.74-2.24-2.14-2.24s-2.28.79-2.07,2.08C249.33,464.43,250.2,465.2,250.76,466Zm79.53-241.81a3.79,3.79,0,0,0,3.84-3.91,4.2,4.2,0,0,0-4.33-4.18c-2.33.05-4.15,1.65-4.15,3.64A4.67,4.67,0,0,0,330.29,224.22Zm-72.44-8.06c-1.26-.15-2.07.85-2,2.17s.95,2.22,2.21,2c.89-.17,1.64-1.06,2.46-1.62l0-1C259.64,217.17,258.8,216.28,257.85,216.16Zm69.58,89.58a3.79,3.79,0,0,0,3.91-4,4.16,4.16,0,0,0-4.25-4c-2.32,0-4.18,1.56-4.22,3.55A4.66,4.66,0,0,0,327.43,305.74Zm-72.2-3.92c.9-.14,1.68-1,2.51-1.54,0-.29,0-.59,0-.88-.8-.61-1.54-1.57-2.42-1.73a1.85,1.85,0,0,0-2.24,2.1C253.13,301.06,254,302,255.23,301.82Zm71,86.23a3.8,3.8,0,0,0,3.87-4.07,4.21,4.21,0,0,0-4.3-4c-2.32,0-4.17,1.62-4.18,3.6A4.66,4.66,0,0,0,326.28,388.05ZM254,384.13c.9-.13,1.69-1,2.54-1.49l0-1c-.86-.59-1.66-1.53-2.6-1.69-1.24-.22-2.11.72-2.08,2.06S252.73,384.31,254,384.13ZM439,259.64a3.83,3.83,0,0,0-3.74,4,4.24,4.24,0,0,0,4.22,4.12,3.92,3.92,0,0,0,4.23-3.75A4.69,4.69,0,0,0,439,259.64Zm71.85,3.55c-.56.81-1.47,1.57-1.6,2.44a1.81,1.81,0,0,0,2.15,2.13,3,3,0,0,0,2-2c0-.83-1.06-1.7-1.67-2.55ZM437.8,342a3.79,3.79,0,0,0-3.72,4,4.22,4.22,0,0,0,4.23,4.1c2.41,0,4.28-1.66,4.22-3.77A4.69,4.69,0,0,0,437.8,342Zm72.43,8.11a3,3,0,0,0,2-2.05c0-.83-1.07-1.69-1.67-2.54l-.92,0c-.56.81-1.47,1.57-1.59,2.44A1.82,1.82,0,0,0,510.23,350.07ZM438,509.76a3.8,3.8,0,0,0-4,3.81,4.22,4.22,0,0,0,4.19,4.34,4,4,0,0,0,4.26-3.53A4.68,4.68,0,0,0,438,509.76Zm72.06,8.11a3,3,0,0,0,2.13-1.92c.07-.83-1-1.75-1.51-2.64l-.91,0c-.61.77-1.57,1.48-1.74,2.34A1.8,1.8,0,0,0,510.1,517.87Zm-70.35-90a4.71,4.71,0,0,0-4.69-4.42,3.81,3.81,0,0,0-3.77,4,4.21,4.21,0,0,0,4.19,4.14A3.93,3.93,0,0,0,439.75,427.89Zm67.63,3.72c.89-.11,1.68-1,2.51-1.54l.05-.92c-.85-.61-1.64-1.54-2.57-1.73a1.8,1.8,0,0,0-2.15,2C505.21,430.76,506,431.76,507.38,431.61Zm-65-245.34a4,4,0,0,0,4.17-3.64,4.71,4.71,0,0,0-4.61-4.51,3.81,3.81,0,0,0-3.86,3.91A4.21,4.21,0,0,0,442.35,186.27Zm71.87,0c.82-.19,2-1.33,2-2.06s-1.07-1.69-1.68-2.53l-.93,0c-.55.82-1.45,1.58-1.56,2.46A1.81,1.81,0,0,0,514.22,186.24Zm-144.7-70.32c-.2.55-.91.91-1.35,1.39s-1,.88-1,1.28.73.91,1.2,1a17.23,17.23,0,0,0,3.36.32q14.21.08,28.42.11c1.23,0,2.81.27,2.91-1.55s-1.5-1.65-2.73-1.77a1,1,0,0,1-.28-.12c-1.38-4.89-2.8-9.71-4.08-14.57a5.66,5.66,0,0,1,.25-2.87c1.31-4.23,2.71-8.44,4.15-12.9,1-.63,3.53.29,3.28-2s-2.48-1.57-3.94-1.57q-9.44,0-18.88.29c-3.84.11-7.67.36-11.5.66-.58,0-1.12.69-1.68,1.06.52.37,1.07.72,1.56,1.14s1.12.8,1.31,1.34c1.35,3.94,2.67,7.9,3.84,11.89a5.66,5.66,0,0,1,0,3.21C372.86,106.85,371.21,111.39,369.52,115.92Zm26.63.74h-5.79l3.09-8.94C394.43,111,395.26,113.7,396.15,116.66Zm1.1-30.31c-1,2.87-2,5.64-3.22,8.94-1.06-3.31-1.93-6-2.85-8.94Zm-14.06,2.28c.54-2,1.45-2.77,3.42-2.39.38.08.77.08,1.12.12,1.3,4.88,2.6,9.65,3.81,14.45a4.48,4.48,0,0,1-.16,2.32c-1.36,4.14-2.75,8.28-4.24,12.38a2.33,2.33,0,0,1-1.57,1.25c-.36,0-1.08-.73-1.28-1.27-1.58-4.29-3.15-8.57-4.53-12.92a6.85,6.85,0,0,1,.05-3.78C380.83,95.37,382.26,92.07,383.19,88.63Zm-9.4-2.33h6.82c-1.16,2.88-2.25,5.59-3.46,8.62C376,91.86,374.91,89.16,373.79,86.3Zm3.29,19.94c1.33,3.76,2.5,7.06,3.77,10.68H373C374.29,113.5,375.59,110.11,377.08,106.24Z"/></svg>