<svg xmlns="http://www.w3.org/2000/svg" viewBox="0 0 750 750"><path d="M606.18,51.28c0-1.19,0-2.39,0-3.58-.12-13.28-9.63-22.7-22.92-22.7H187.33c-13.24,0-22.74,9.52-22.74,22.82V375q0,163.77,0,327.55a23,23,0,0,0,.61,5.5c2.61,10.62,11.24,17,22.92,17H583.68c8.12-.19,14.56-3.48,19.05-10.33,2.8-4.27,3.47-9,3.46-14Q606.17,376,606.18,51.28ZM601.9,701.63c0,11.55-7.47,19.09-18.94,19.09H187.6c-9.35,0-16.5-5.46-18.37-14.12a22.64,22.64,0,0,1-.34-4.74q0-163.49,0-327V47.51c0-8.93,5.46-15.94,14-17.85a18.44,18.44,0,0,1,4.14-.37H583.91a17.67,17.67,0,0,1,18,17.8c0,1.52,0,3.05,0,4.57ZM269.42,325.44c.49,17.24,10.32,28,26.37,33.45-9.88,13.24-11.71,27.14-2.16,40.82,9.81,14.07,23.8,17,40,11.83,0,10.6,3.64,19.58,11.73,26.38s17.6,9.19,28.07,7.1a32.88,32.88,0,0,0,25.86-36.4,31.55,31.55,0,0,0-11.9-21.32c-10.18-8.08-21.56-9.42-33.81-4.87-.41-16.52-8.37-27.41-23.52-33.13q19.56-24.45.53-49.16c20.87-5.9,32.47-19.54,34.3-41.53,14.1,6.34,28.14,6.74,42,0s22.56-18,25.88-33.06c5.5-25-10.2-49.93-35.27-56.17a45.39,45.39,0,0,0-35.1,5c-16.56,9.78-24.23,24.72-24.18,44.12-10.57-3.9-20.94-4.29-31.29-.34s-18.41,10.76-23.06,20.77c-9,19.37-4.92,36.57,10,51.71C278,297,268.93,308.27,269.42,325.44Zm86.52,59.74a29.47,29.47,0,1,1,18.39,55.91c-18.57,5.22-37.61-9.57-37.19-28.85,0-2,.48-3.44,2.39-4.35a29.37,29.37,0,0,0,3.61-2.63l5,6c.19.24.34.52.65,1-4.57,1.23-6.1,5.56-9.46,8.46,4.25,1.86,8,4.62,13.18,3.38-.54,3.45-1,6.66-1.62,10.29l8.66-4.42c2.18,3.64,4.3,7.2,6.63,11.08,2.74-3.71,6.17-6.51,6.55-11.51l9.61,5c-.6-3.75-1.11-7-1.57-10l12.32-2.19c-2.37-4-3.78-8.2-8.38-10.45l6.74-6.59c-.08-.25-.17-.5-.25-.75l-10-1.79c2.7-3.94.95-8.22,1.83-13l-12,4.61-3.94-7.62-.79.13-4.18,8.13-9.72-4.62C352.3,387.26,352.89,386.34,355.94,385.18ZM379,395c-3.24.58-3.38,3.54-5.11,5.27-.6-1.17-1.14-2.2-1.72-3.34,2.08-3,5.19-3.62,8.81-4.1a45.44,45.44,0,0,1-.05,6.41c-.5,3.3-1.88,4.09-5.79,2.38C376.6,399.66,379.77,398.58,379,395Zm-5.8,9.1L387,406.17l-10,9.93c.8,4.81,1.55,9.36,2.38,14.4l-12.75-6.66-12.8,6.56c.85-5,1.62-9.53,2.42-14.25l-10.13-10.08,14.11-2,6.5-12.94ZM381,415.84l2.19-2.37c3.16.49,5.53,3.2,6.73,7.56a42,42,0,0,1-5.46,1.48c-3.22.45-4.14-.36-4.62-3.51-.08-.51-.1-1-.16-1.72,2.58.86,4.28,4,7.75,2.52C386.4,416.46,383.11,417.3,381,415.84Zm-14.38,18.87c2.75-2.21.59-5.06,1.33-7.64l3.08,1.57c.58,4-1.89,6.35-4.51,9-2.1-2.79-5.13-4.86-4.21-9l3.52-1.88c-.11,2.38-.24,4.58-.26,6.77C365.54,433.86,366.09,434.18,366.59,434.71ZM353.33,419c-.05,3.35-1.1,4.46-4.17,3.89a46.08,46.08,0,0,1-6.46-2.21c2.33-4.71,5.41-7.5,8.33-6.54l2.5,2.69-.15.57a26.73,26.73,0,0,0-4.2.05,8.43,8.43,0,0,0-3.57,1.61C348.3,422,350.7,418.66,353.33,419Zm-1.64-26.51a54,54,0,0,1,6.27,2.13c3.15,1.52,3.39,3,1.22,6.05-1.91-1.58-2-4.81-4.94-5.62-1.56,1.6-.38,2.77.48,3.8a36.2,36.2,0,0,0,3,2.87c-4.48,1.87-5.56.41-6-2.8A50,50,0,0,1,351.69,392.45ZM344.48,404l5.06-7c.58,2,1.1,3.85,1.69,5.94ZM331,353.3c13.1,4.77,21.1,19,18.49,32.89a29.33,29.33,0,0,1-29.63,24c-12.17-.47-21.18-6.3-26.16-17.35s-3.25-21.61,4.33-31.11c1.93-2.43,2.59-2.58,5.87-1.65.06,3.64-.92,7.44,1.54,10.92l-9.87,1.64c2.62,2.52,5,4.79,7.31,7.06l-.21.67c-4.49,1.33-6.13,5.58-9.47,8.58,4.26,1.81,7.95,4.67,13.2,3.31-.56,3.51-1.07,6.72-1.65,10.34l8.66-4.43,6.63,11.09c2.75-3.73,6.2-6.52,6.55-11.53l9.63,5c-.61-3.77-1.13-7.05-1.6-10l12.4-2.21c-2.51-3.92-3.78-8.25-8.83-10.55l7.2-6.28c-.08-.29-.17-.59-.25-.89L335.09,371c2.68-3.94,1-8.22,1.77-13l-12,4.62-3.33-6.79C324.88,352.23,326.76,351.74,331,353.3ZM312,362.84c3.1,1.53,3.32,3.1,1.06,6-1.91-1.75-1.95-5-5.34-5.59-.92,3.68,2.54,4.59,3.88,6.67-4.41,1.81-5.45.38-5.92-2.82a50.35,50.35,0,0,1-.05-6.46A55.42,55.42,0,0,1,312,362.84Zm-2.63-3.19,9.9-2.74c-1.19,2.4-2.28,4.61-3.3,6.65Zm4.8,12.6,6.53-12.95c2.24,4.57,4.29,8.77,6.37,13l14,2.09-10,10.11c.76,4.63,1.52,9.17,2.35,14.2L320.54,392l-12.8,6.57c.85-5.06,1.61-9.53,2.47-14.61l-10.11-9.73Zm13.6-3.74-1.64-3.27c1.58-2.52,4.07-3.71,8.86-4.12a40.43,40.43,0,0,1-.05,5.83c-.5,3.32-1.4,4.75-5.94,2.95,1.48-1.92,4.21-3,4.23-5.83C331.68,363.06,331.68,363.06,327.72,368.51ZM334.89,384l2.23-2.48c4.09.86,5.31,4.16,6.86,7.65a47.75,47.75,0,0,1-6,1.51c-2.93.35-3.75-.42-4.23-3.3-.1-.57-.13-1.15-.23-2,2.67,1.09,4.41,4,7.79,2.64C340.25,384.63,337,385.51,334.89,384Zm-14.47,18.87c2.78-2.27.7-5,1.35-7.64l3.17,1.61c.4,4-1.94,6.41-4.59,8.88-2.07-2.7-5.05-4.77-4.23-8.87l3.81-2.07C319.82,397.73,317.92,400.35,320.42,402.91Zm-13.32-15.8c.29,3.12-.62,4.15-3.52,4a12.28,12.28,0,0,1-7-2.83c2.12-2.85,3.54-6.38,8.08-6.23l2.94,3.14c-2.93.75-6.08-.57-8.49,2.38C302.25,390,304.59,387,307.1,387.11ZM385.72,172.6a42.83,42.83,0,1,1-42.53,42.85C343.18,192,362.39,172.66,385.72,172.6Zm-42.37,64.93,5.94,9-8.17-1.25C341.88,242.66,342.61,240.12,343.35,237.53ZM340.28,262l4.08-3.1c4.5,1.15,6.13,5.36,8.14,10a86.07,86.07,0,0,1-9,1.91c-2.83.31-3.81-.76-4.32-3.64-.19-1.09-.36-2.18-.63-3.79,1.93,1.31,3.43,2.43,5,3.39,2.5,1.51,3.83,1.46,5.21-.2C347.26,262.85,343.19,263.79,340.28,262Zm-4.73.92c.95,5.73,1.93,11.69,3,18.23L322,272.38,305.29,281c1.1-6.44,2.1-12.35,3.13-18.4l-13.06-13.35,18.28-2.58,8.45-16.9c2.9,5.93,5.62,11.48,8.31,17l18.3,2.68Zm-15.12,21.75c.12.58,1,1.42,1.53,1.37a2.18,2.18,0,0,0,1.53-1.47,46.28,46.28,0,0,0-.08-5.52c0-.82-.13-1.63-.23-2.78,1.49.78,2.89,1.16,3.72,2.07a4.19,4.19,0,0,1,.77,3.16c-.65,3.7-3.14,6.28-6,8.86-2.63-3.67-6.72-6.37-5.43-11.72l5.31-2.9c-.49,2-1,3.61-1.22,5.22A10.74,10.74,0,0,0,320.43,284.62ZM297.29,267.9a30.6,30.6,0,0,0,4.92-1.44c.8-.26,1.59-.54,2.86-1-.38,1.91-.65,3.3-.94,4.74-5.13,2.58-9.09-.09-13.15-2.41,2.52-4.79,5.91-9.12,9.61-8.42l4.88,4.55c-1.57,0-2.8-.09-4,0a24.26,24.26,0,0,0-5.05.77c-.68.22-1.08,1.36-1.61,2.08C295.64,267.2,296.53,268,297.29,267.9Zm7.86-30.17a28.85,28.85,0,0,0,3.26,3.92,28.38,28.38,0,0,0,2.28,2c-5.21,2-7.29,1.6-8-3.24-.4-2.63-.07-5.36-.07-8.26,4.05.38,7.59,1.16,10.44,3.83,1.29,1.21,1.78,2.57.65,4.22a28.14,28.14,0,0,0-1.41,2.78c-1.11-1.9-2-3.48-3-5a5.86,5.86,0,0,0-1.54-2,7.2,7.2,0,0,0-2.48-.48C305.22,236.2,304.81,237.2,305.15,237.73Zm35,4.38c-.8,2.22-1.95,2.85-4.24,2.43l-3.69-.62a41,41,0,0,0,3.37-3,16.24,16.24,0,0,0,2.55-3.47c.27-.51,0-1.91-.33-2a2.56,2.56,0,0,0-2.27.34,32.87,32.87,0,0,0-2.91,4.22c-.38.59-.69,1.24-1.2,2.18L329,237.38c2.72-3.93,6.83-4.65,11.25-5.29C340.62,235.51,341.33,238.81,340.14,242.11Zm-55.26,6.68c3.75-15.35,13.89-24.77,29.27-28.41,7.31-1.73,14.46-.82,21.5,1.63,2.23.78,3.68,1.9,3.86,4.39a21.71,21.71,0,0,0,.64,3c-4.06,1.79-8.92,1.79-12,6.08-1.62-3.31-3.06-6.31-4.59-9.26a14.42,14.42,0,0,0-1.85-2.2L316,235.42a75.86,75.86,0,0,0-7.6-4.22,74.07,74.07,0,0,0-8.22-2.43c0,3.16-.22,6.06.07,8.92a64.79,64.79,0,0,0,1.68,7.58l-12.29,1.92,9.59,9.61-.12.66c-6.27,1.19-8,7.35-12.82,11,5.82,2.1,10.63,6.21,17.46,4.19-.75,4.55-1.45,8.8-2.22,13.49l12.41-6.36c-.26,6.48,5.34,9.62,7.58,15.14,3.13-5,8-8.48,8.31-15.12l12.49,6.47c-.76-4.72-1.47-9.18-2.27-14.14,5.84,2.28,10.67-1.52,16.46-1.53-3.5-5-4.93-11-11.3-13.51,2.58-2.43,4.94-4.67,7.39-7l7.8,6.16a85.32,85.32,0,0,1-.8,8.55c-5.37,28.53-39,41.13-61.58,22.81C285.71,277.59,281.1,264.24,284.88,248.79Zm34.9,78.85,2.82-2.1c4.19.33,5.41,4,7.18,7.65a52.48,52.48,0,0,1-6.39,1.7c-3.16.44-4.14-.43-4.69-3.52-.12-.67-.17-1.37-.25-2,2.32,1.11,4.48,2.16,6.65,3.17a1.06,1.06,0,0,0,.77-.09,6.34,6.34,0,0,0,.92-.77C325.64,328.33,322.1,329.27,319.78,327.64Zm-4,.6c.8,4.88,1.6,9.75,2.48,15.19l-13.68-7.16c-4.38,2.26-8.77,4.52-13.73,7.06.9-5.34,1.72-10.17,2.62-15.49l-11-10.67L297.7,315l7-13.92c2.43,4.95,4.67,9.5,6.88,14l15,2.19Zm-12,19.19c2,.48,2.27-.84,2.28-2.12,0-1.78-.23-3.55-.39-5.78l3.36,1.73c1,3.09-.87,6.82-4.72,9.67-2.14-2.85-5.47-5.13-4.41-9.52l4.22-2.28C303.71,342.18,302.15,344.76,303.74,347.43Zm-17.56-15.31c1.37-.43,2.74-.89,4.46-1.45-.35,1.6-.58,2.68-.79,3.62-3.14,1.85-7.2,1-11-2.13,2.31-2.88,3.76-6.81,8.2-6.57l3.86,3.35c-3.2,1-6.78-.79-9,2.42C283.18,333.39,284.72,332.58,286.18,332.12Zm8.9-19.53c-4.43,1.59-5.89,1-6.53-3.1a50.57,50.57,0,0,1-.05-6.93,57.8,57.8,0,0,1,6.95,2.41c3.32,1.66,3.51,3.34.95,6.63-.77-1.29-1.47-2.53-2.23-3.72s-1.38-2.65-3.59-2.23C290,309.35,293.47,310.4,295.08,312.59Zm10.77-14.74c2.45.68,4.51,1.35,6.62,1.81s4.29.74,6.41,1.1L309.31,305C308.35,303,307.17,300.56,305.85,297.85Zm7.61,14.77c1.59-2.17,4.84-3.25,4.57-7-3.82-.1-3.77,3.6-5.77,5.45l-1.8-3.63c2.11-3.32,5.55-3.84,9.58-4.5,0,2.26.17,4.35,0,6.41C319.59,313.31,317.64,314.26,313.46,312.62ZM295.38,294a4.68,4.68,0,0,1,4.48.62A44.88,44.88,0,0,0,304,297c-1.53,3.08-3,6.05-4.65,9.32-3.31-4.35-8.27-4.45-12.88-6.15.91,4.64-1.09,9.29,2,13.64L278,315.44l7.87,7.68c-.1.24-.19.49-.29.74-5,1.23-6.57,6-10.33,9.1,4.63,1.9,8.58,5,14.22,3.61-.59,3.74-1.14,7.2-1.75,11l10.14-5.17c0,5.23,4.35,7.9,6.36,12.29,2.76-4,6.58-6.94,6.94-12.29l10.27,5.28c-.64-4-1.21-7.61-1.69-10.65l13.35-2.34c-2.82-4.14-4-9-9.05-11.05l-.35-.74q3.69-3.31,7.39-6.62c0-.24-.07-.47-.1-.7l-10.85-1.86c2.85-3.91,1.24-8.45,1.79-12.45,2.57-1.11,4.17-.48,5.79,1.28A31.62,31.62,0,1,1,295.38,294Zm188.19,209.1c12-19.65,7.68-38.27-8-54.67,15.61-6.35,24.77-17.6,24.33-34.75s-10.24-28-26.42-33.57c9.45-12.41,11.6-25.64,3.44-38.89-9.57-15.57-24-19.11-41.07-13.84.37-24.35-21.94-36.23-37.56-33.89a33.11,33.11,0,0,0-28.44,35,30.72,30.72,0,0,0,9.78,21.14c10.44,9.89,22.64,11.75,36.1,7,.41,16.55,8.43,27.39,23.49,33.09-13.07,16.36-13.18,32.71-.52,49.16-20.94,5.93-32.49,19.62-34.3,41.53-8.91-4-18-5.73-27.48-4.42a47.2,47.2,0,0,0-25,11.32,46.1,46.1,0,0,0-14.71,23.37A47.66,47.66,0,0,0,369.59,569c11.66,3.48,23.2,2.8,34.05-2.63,18.61-9.3,27.41-24.89,27.46-45.56C453,527.36,471.57,522.71,483.57,503.05ZM413.35,353.77a29.47,29.47,0,1,1-18.21-55.95c18.54-5.07,37.4,9.69,37,28.91,0,2-.48,3.43-2.39,4.35a23.12,23.12,0,0,0-3.12,2.27l-6-6.64c4.34-1.29,6-5.54,9.39-8.57-4.32-1.73-8-4.66-13.24-3.27.55-3.51,1.06-6.72,1.63-10.35l-8.65,4.42-6.64-11.07c-2.74,3.71-6.17,6.51-6.55,11.5l-9.6-5c.59,3.75,1.11,7,1.57,10l-12.32,2.18c2.35,4,3.76,8.2,8.36,10.45l-6.72,6.61.24.75,10,1.77c-2.67,3.93-1,8.21-1.81,13l12-4.62c1.48,1.95,1.95,5.28,4.54,7.84,1.63-3.17,3.08-6,4.35-8.47l9.71,4.61C417,351.64,416.39,352.62,413.35,353.77Zm-17.92-15.14,1.72,3.42c-2.07,2.95-5.15,3.54-8.51,4.07-.41-2.61-.92-5.11,0-7.63.83-2.25,2.24-2.58,5.58-1.25-1.5,1.93-4.2,3-4.27,5.81C391.52,344.15,391.52,344.15,395.43,338.63Zm.72-3.77-13.91-2.09c3.49-3.48,6.74-6.74,10-10-.78-4.71-1.53-9.25-2.37-14.3l12.74,6.66,12.8-6.54c-.84,5-1.6,9.48-2.45,14.49l10.21,9.81-14.13,2-6.53,13C400.29,343.3,398.24,339.11,396.15,334.86Zm-7.8-11.78-2.16,2.34c-3.05-.21-5.67-3.13-6.78-7.53a47,47,0,0,1,5.66-1.45c3-.38,3.9.41,4.38,3.35.09.57.11,1.15.17,1.91-2.58-.92-4.35-4-7.58-2.61C382.39,320.51,382.39,320.51,388.35,323.08Zm14.35-18.82c-2.75,2.23-.59,5.08-1.35,7.66l-3.1-1.66c-.51-3.92,1.92-6.31,4.53-8.88,2.1,2.7,5.13,4.78,4.24,8.89l-3.69,2C403.1,309.58,405.41,306.84,402.7,304.26ZM416.06,320c-.26-3.1.76-4.37,3.72-3.88,2.32.39,4.53,1.44,7.2,2.33-2.63,3.27-4,6.87-8.53,6.62L415.57,322c2.86-.89,6.07.65,8.32-2.37C421,316.94,418.57,320.38,416.06,320Zm1.42,26.54a54.1,54.1,0,0,1-6.42-2.29c-3-1.52-3.15-3.12-.88-5.87,1.78,1.64,2,4.7,4.77,5.61,1.71-1.52.52-2.71-.34-3.74a31.69,31.69,0,0,0-3-2.87c3.85-1.77,5.38-.91,5.83,2.26A53.6,53.6,0,0,1,417.48,346.51ZM424.84,335l-5.1,6.95c-.57-2-1.09-3.79-1.69-5.88Zm3.48,2A29.46,29.46,0,0,1,471,377.52c-1.8,2.05-2.43,2.23-5.52,1.35-.29-3.55.89-7.44-1.62-10.95l10-1.66L466,358.71c5.15-1.47,6.72-5.8,10.13-8.73-4.33-1.81-8-4.69-13.24-3.32l1.64-10.35-8.65,4.44-6.65-11.09c-2.74,3.74-6.18,6.55-6.56,11.51l-9.59-5c.6,3.77,1.12,7.05,1.58,10l-12.4,2.23c2.55,3.91,3.76,8.3,8.93,10.54l-7.26,6.34c.08.27.15.55.22.83l10.1,1.86c-2.69,3.95-1,8.22-1.78,13l12-4.62,3.46,7a41.11,41.11,0,0,1-4.9,3.14,4.45,4.45,0,0,1-2.85-.21A29.43,29.43,0,0,1,428.32,336.93Zm11,37c.73-1.08,1.36-2.22,2.19-3.58.67,1.29,1.2,2.33,1.78,3.46-2.09,3-5.19,3.62-8.67,4.09a44.69,44.69,0,0,1-.29-5.43c.28-4,2-5,6.09-3.45-1.55,1.91-4.22,3-4.31,6C437.73,376.34,438.53,375.07,439.3,373.94Zm2.95-7.29-13.88-2.06,10-10c-.78-4.73-1.53-9.28-2.37-14.35l12.76,6.66,12.78-6.55c-.84,5-1.6,9.45-2.42,14.33l10.15,10-14.12,2-6.51,12.93ZM434.42,355,432,357.41c-3.9-1-5.17-4.18-6.67-7.65a44.4,44.4,0,0,1,6-1.51c3-.36,3.77.39,4.26,3.25.1.58.13,1.17.19,1.76-2.22-1-4.27-1.93-6.37-2.78-.28-.11-.77.34-1.31.59C429,354.41,432.41,353.37,434.42,355Zm14.51-19c-2.94,2.17-.66,5.14-1.45,7.66l-3.11-1.6c-.48-4,1.92-6.38,4.55-8.91,2.08,2.75,5.17,4.82,4.19,8.92l-3.71,2C449.36,341.37,451.36,338.72,448.93,336Zm13,15.79c.18-1.08.36-2.13.54-3.2,3.95-1.86,7-.08,10.27,2-2.24,2.94-3.68,6.52-8.18,6.26l-2.87-3.07c2.82-1,6.23.71,8.31-2.53C467,349,464.73,352,461.93,351.82Zm-8.59,23.58,6.64,3.91-9.9,2.74C451.24,379.68,452.33,377.48,453.34,375.4Zm3.88.66c-3-1.53-3.17-3-1-5.9,1.94,1.54,1.93,4.88,5,5.55,1.45-1.61.26-2.75-.6-3.79a36.13,36.13,0,0,0-3-2.86c4.62-1.83,5.57-.31,6.09,3.09a37.21,37.21,0,0,1,0,5.49l-.68.53A48.73,48.73,0,0,1,457.22,376.06ZM436,401.51a31.65,31.65,0,1,1,37.69,43.58,4.37,4.37,0,0,1-3.95-.52c-1.3-.89-2.72-1.6-4.42-2.58,1.5-3,3-6,4.66-9.33,3.25,4.43,8.27,4.44,12.78,6.16,0-2.54.16-4.78-.05-7s-.78-4.36-1.23-6.74l10.19-1.64-8.09-7.76c.08-.21.16-.42.23-.63,5-1.21,6.57-6.05,10.32-9.11-4.68-1.86-8.64-5-14.24-3.55.59-3.78,1.14-7.25,1.75-11.07L472,396.28a60.39,60.39,0,0,0-2.85-6.16,62.17,62.17,0,0,0-4.18-5.57c-2.59,3.57-6.27,6.57-6.79,11.94-3.42-1.74-6.65-3.4-10.25-5.25l1.71,10.65-13.38,2.35c2.81,4.12,4,8.95,9.19,11.1l-7.31,7.23.29.78,10.86,1.85c-3,3.92-1.19,8.43-1.91,12.46-2.39,1.08-4,.56-5.65-1.21A31.8,31.8,0,0,1,436,401.51Zm15.26,31.42c1.71.71,1.71.71,5.77-5.09l1.84,3.7c-2.12,3.31-5.55,3.85-9.37,4.45a59.42,59.42,0,0,1-.23-6c.29-4.25,2.3-5.36,6.61-3.68C454.23,428.52,451,429.59,451.22,432.93Zm8.74,1,3.39,6.91-12.64-2.8Zm-2.23-10.1-14.94-2.19c3.67-3.75,7.17-7.32,10.73-11-.8-4.88-1.59-9.75-2.48-15.18l13.69,7.16,13.72-7.06c-.9,5.34-1.72,10.17-2.62,15.5l10.83,10.68-15.06,2.12c-2.33,4.63-4.58,9.1-7,13.91Zm-8.27-12.55-2.72,2.39c-2.82-.06-5.51-3-7-8a38.92,38.92,0,0,1,6.42-1.61c3.49-.28,4.11.64,4.41,3.36.08.72.19,1.43.33,2.53-2.82-1.37-4.81-4.24-8.51-3.09C443.64,410.69,447.22,409.66,449.46,411.32Zm16.1-19.75c-2.34-.16-2.34-.16-1.93,7.73L460,397.59c-.46-4.45,2.14-7,4.93-9.67,2.21,2.94,5.49,5.18,4.52,9.6l-4.17,2.28C465.46,396.87,467.2,394.22,465.56,391.57Zm17.73,15.2c-1.41.45-2.81,1-4.59,1.56l.71-3.64c3.15-1.88,7.14-1.09,11,2.09-2.3,2.9-3.75,6.82-8.05,6.6l-3.74-3.44c2.93-.84,6.4.77,8.76-2.2C486.32,405.57,484.76,406.31,483.29,406.77Zm-9.15,19.63c4.44-1.6,5.84-1.09,6.63,3.06a7,7,0,0,1,.13,1.77c-.1,1.51-.26,3-.45,5.06a54.86,54.86,0,0,1-6.61-2.29c-3.32-1.65-3.51-3.32-1-6.64.77,1.3,1.45,2.54,2.23,3.73s1.35,2.7,3.74,2.14C479.06,429.69,476,428.46,474.14,426.4Zm-90.7,140a42.83,42.83,0,1,1,42.65-42.93A43,43,0,0,1,383.44,566.37Zm42.49-64.94c-1.87-2.83-3.76-5.7-5.95-9l8.18,1.24C427.41,496.29,426.68,498.83,425.93,501.43ZM429,477l-3.58,3c-3.11,0-6.6-3.82-8.35-9.61,3.12-1.09,6.12-2.63,9.61-2.21,2,.24,3.31,1.12,3.39,3.37a35.78,35.78,0,0,0,.6,3.87c-3.41-1.47-5.74-5.37-10.39-3.68C421.92,476.16,426.1,475.14,429,477Zm4.8-.61c-1-6.12-2-12.08-3.06-18.56l16.59,8.73L464,458c-1.11,6.47-2.12,12.41-3.19,18.65l13,13.12-18.21,2.57-8.43,16.9-8.33-17-18.12-2.64Zm15.12-21.85c-.12-.64-1-1.14-1.57-1.7-.55.58-1.53,1.12-1.58,1.74a38,38,0,0,0,.11,5.33c0,.83.14,1.65.24,2.8-1.47-.77-2.84-1.16-3.7-2a3.91,3.91,0,0,1-.84-2.95c.61-3.8,3.1-6.45,6-9.09,2.6,3.65,6.7,6.35,5.44,11.7l-5.34,2.94c.47-1.9.94-3.34,1.16-4.81A12.58,12.58,0,0,0,448.91,454.56ZM472.44,471a36.11,36.11,0,0,0-5.14,1.37c-.87.26-1.71.61-3.06,1.09.34-1.82.6-3.25.82-4.42,2.71-2.73,9.3-1.12,13.36,2.48-2.86,3.49-4.6,8.39-10,8L463.81,475c1.61,0,2.89.1,4.15,0a28.49,28.49,0,0,0,5.22-.9c.57-.17.87-1.25,1.3-1.91C473.8,471.78,473.05,471,472.44,471Zm-8.21,30.43a43.16,43.16,0,0,0-3.61-4.39,18.35,18.35,0,0,0-1.95-1.66c0-.19,0-.38,0-.58a21.78,21.78,0,0,1,5-.48,3.48,3.48,0,0,1,2.3,2.09,22.55,22.55,0,0,1,.86,5.62,32.47,32.47,0,0,1-.35,4.5c-4.34.67-10.32-2.39-11.67-6.15L457,496c1.14,1.93,2.05,3.57,3.05,5.16a7.09,7.09,0,0,0,1.74,2.12,2.37,2.37,0,0,0,2.1.21A2.06,2.06,0,0,0,464.23,501.47ZM429.08,497c.8-2.37,1.93-3,4.51-2.55,1,.18,2,.32,3.54.56a40.18,40.18,0,0,0-3.29,2.84,16,16,0,0,0-2.61,3.43c-.3.56.13,1.52.23,2.3.79-.14,1.89,0,2.31-.47a34.61,34.61,0,0,0,2.9-4.22c.39-.59.69-1.24,1.19-2.16l2.38,4.82c-2.7,4-6.86,4.59-11.23,5.33C428.67,503.51,428,500.27,429.08,497Zm17.83,22.43a41.8,41.8,0,0,1-14-2.78,4.09,4.09,0,0,1-3.08-3.67,34.88,34.88,0,0,0-.75-3.53c4.27-1.63,9-1.92,12-5.9,2.3,3.71,3.25,7.92,6.43,11.36,2.16-4.24,4.05-8,6.12-12.06,3.89,5.32,10.06,5.26,15.66,7.54-1.26-5.66,1.29-11.41-2.56-16.61l13.39-2.13L470,481.53c6.47-1.28,8.21-7.43,12.95-11-5.77-2.09-10.58-6.1-17.42-4.18.74-4.53,1.43-8.8,2.2-13.48l-11.72,6a75,75,0,0,0-3.49-7.6,76.18,76.18,0,0,0-5-6.75c-2.88,4.6-7.81,8.07-8,14.68L427,452.73c.76,4.75,1.48,9.21,2.27,14.15-5.79-2.28-10.61,1.5-16.51,1.52,3.56,4.91,4.93,11,11.37,13.52l-7.4,7c-2.44-1.9-4.83-3.64-7.06-5.58a3.4,3.4,0,0,1-.59-2.38c.55-15.34,7.46-26.92,21.13-33.95,23.61-12.12,52.6,3.73,55.2,30A38.34,38.34,0,0,1,446.91,519.46ZM335.54,473.17c1.49-1.24,1.52-2,.16-3.39-3.13-3.2-6.64-5.67-11.32-6.09.36-3.52-1.05-6.24-2.92-8.81-1.55-2.14-3.09-4.28-4.6-6.45a1.79,1.79,0,0,0-2.53-.71,28.71,28.71,0,0,1-4.45,1.49c-4,1-8.46.2-12.18,3-.24-1.08-.43-2-.63-2.88,1-1.45,2-2.86,2.88-4.31a15.74,15.74,0,0,0,2.53-10.41c-.09-.78-.82-2.06-1.32-2.09a2.93,2.93,0,0,0-2.32,1.27,30,30,0,0,0-2.17,5.31c-.52,1.6-.8,3.29-1.3,5.4-1.49-2.7-2.94-4.65-1.72-7.69a18.76,18.76,0,0,0,.36-11.74c-.32-1.25-.72-2.62-2.86-2.54-2,3.87-1.09,8.12-1.18,12.59-.87-1-1.47-1.88-2.21-2.6a8.81,8.81,0,0,1-2.77-6.11,16.4,16.4,0,0,0-1.34-5c-.41-1-1-2.27-2.73-1.94-1.68,1.83-.39,3.92-.22,6.15-1-.58-1.83-1.08-2.69-1.54a17.3,17.3,0,0,0-11.89-2c-6.57,1.31-9.59,7.46-6.34,12.89.76,1.27,1.81,2,3.3,1.54a2.81,2.81,0,0,0,1.9-3.31,3.45,3.45,0,0,0-3.65-3.37c.51-2.41,1.91-3.76,4.55-4.47,4-1.07,9.09,0,11.24,2.46-1.84.41-4.32-.26-4.75,2.91,3.11,2.24,6.49-.31,10.07.85l3.11,3.79a24.1,24.1,0,0,0-5-.35c-1,.13-1.82,1.14-2.72,1.76.76.7,1.43,1.79,2.32,2,2.92.83,5.92,1.34,9.25,2.05l2.09,3.61c-3.31-.63-6.25-2.48-9.8-.05,3.31,4,8.06,3.56,12.18,5.25l1.74,5.86c-2.95-1.72-5.56-2-7.89-.22-2.49,1.89-4.77,4.07-7.41,6.36a12.36,12.36,0,0,0,.51,1.67,32.7,32.7,0,0,1,1.81,4.19c.74,2.88,2,5.16,5.89,5.81-3.6,1.84-4.05,4.66-4.38,7.64a27.4,27.4,0,0,1-1.39,4.73c-.19.67-.31,1.37-.46,2l10.53,1.13c-.83.73-1.33,1.14-1.8,1.58a98.29,98.29,0,0,0-7.76,7.36c-3.7,4.27-6.81,9-8,14.67a21.48,21.48,0,0,0,0,3.81c5.25-.46,9-2.77,12.33-5.48s6.31-5.8,9.13-8.44c-.2,2.23-.59,5-.68,7.75a32.94,32.94,0,0,0,3.81,16.65c.61,1.16,1.14,2.69,3.23,2.09,7.28-11.57,8.36-24,4.79-36.78,4.16,1.52,8.27,3.05,12.41,4.52,3.07,1.1,4.25.41,4.94-2.8,1-4.63.61-9-2.6-12.14a83.8,83.8,0,0,0,7.48-3.95A63.67,63.67,0,0,0,335.54,473.17Zm-35.17-19.81L315,451.23c2.08,3.41,5.67,6.21,6.65,11.09a55.15,55.15,0,0,1-12.32,5.54c2-3.87,3.52-7.6,3.15-11.93-1.86,3.77-2.61,8.1-5.33,11.28l-3.78-3.91C300.7,460.57,299.42,457.44,300.37,453.36Zm-11.95,17.51a4.32,4.32,0,0,1-3-2.11,41.3,41.3,0,0,1-2.21-5.9l5.25-5.07c1.72-1.67,3.21-1.91,5.14-.5a20.59,20.59,0,0,1,3.26,3.14c2,2.28,3.81,4.66,5.84,7.15l-1.59,1.14-10.48-5.17c1.67,3.38,4.75,4.34,7.16,6,0,.19,0,.38,0,.57A91.74,91.74,0,0,1,288.42,470.87ZM286,485.58c.44-2.25,1-4.3,1.21-6.38.28-2.42,1.9-3.67,3.82-4.41,2.76-1.05,5.65-1.72,8.51-2.57.65.75,1.07,1.25,1.63,1.91a32.4,32.4,0,0,1-9.46,8.66c3.85-1.06,7.37-2.62,10-5.75a9.93,9.93,0,0,1,1.86-1.37l.61.56c-1.07,2.45-1.85,5.11-3.34,7.29-.84,1.23-2.75,2-4.33,2.42C293,487,289.48,486.33,286,485.58Zm12.08,4.13c-.73,1.34-1.19,3-3.79,2.67Zm-4.81,5.6-2.15,2.56-2.36-.4C290,496.07,290.85,494.54,293.29,495.31ZM286.24,500l2.45.26-2.28,2.62-2.07-.61Zm-5.18,12L298.42,494C295.58,502.8,289.19,508.23,281.06,512Zm21.65,13.65c-5.6-7.3-4.36-29.32,2.11-37.46C309.63,496.9,308.39,518.77,302.71,525.62Zm19.44-31c-4-1.69-8.49-2.21-11.53-5.48a14.86,14.86,0,0,1-3-6.05c-.5-1.81-.1-3.87.36-6,.77,1.92,1.4,3.9,2.34,5.73s2.26,3.5,4.76,3.8a12.3,12.3,0,0,1-1.06-1.43c-1.29-2.29-2.58-4.58-3.76-6.94-.21-.41.12-1.11.21-1.67,2.44,1.51,4.53,2.75,6.57,4.05C322.1,483.93,323.4,487.33,322.15,494.66Zm-5-17.24c-1.42-.67-2.84-1.37-4.37-2.11.13-.59.26-1.14.43-1.9,4.36,1,8.61,1.25,12.65-.73,0-.28,0-.56-.07-.84H313.27c-.37-.9-.58-1.43-.79-1.93,6.69-3.81,15.89-4.73,20.07.88-1.8,1.74-3.56,3.49-5.38,5.17A8.42,8.42,0,0,1,317.1,477.42Zm121.83-212c-1.49,1.23-1.54,2-.19,3.39,3.12,3.18,6.63,5.67,11.29,6.11-.27,3.85,1.37,6.79,3.56,9.55,1.4,1.76,2.58,3.68,3.92,5.48a12,12,0,0,0,1.6,1.49c.05-.23.1-.46.16-.69,2.34-.55,4.68-1.12,7-1.63,3.47-.76,7.29-.11,10.44-2.8.26,1.19.46,2.13.64,3-1,1.51-2,2.86-2.86,4.26a16.22,16.22,0,0,0-2.65,9.22c0,1.33-.23,3.06,1.57,3.44,1.65.34,2.26-1.19,2.78-2.36a41.25,41.25,0,0,0,1.7-4.87c.42-1.44.7-2.92,1.13-4.8,1.49,2.56,3,4.42,1.81,7.39a19.31,19.31,0,0,0-.48,11.75c.29,1.25.65,2.62,2.68,2.86,2.49-3.82,1.14-8.24,1.49-12.67a31.75,31.75,0,0,0,2.39,2.85,8.65,8.65,0,0,1,2.5,5.61,22.83,22.83,0,0,0,1.67,5.66c.31.74,1.28,1.22,2,1.86,2.21-2.2.68-4.37.71-6.53,1.11.64,2,1.22,2.94,1.69,4.45,2.21,9,3,13.81,1.09a8.17,8.17,0,0,0,4.11-12.15c-.8-1.33-1.9-2.12-3.47-1.49s-1.92,1.86-1.72,3.42c.28,2.18,1.77,3,3.7,3.3-1.39,6.33-12.73,5.68-15.86,1.91,1.82-.44,4.33.27,4.75-2.91-3.1-2.26-6.48.31-10.08-.87l-3.14-3.83c6.18.75,6.43.71,7.72-1.16-.6-2.26-1.29-2.51-11.46-4.12-.62-1.09-1.32-2.3-2.18-3.78,3.33.64,6.27,2.51,9.79,0-3.32-4-8.08-3.52-12.18-5.22L478.84,283c3.69,2,6.6,1.64,9.3-.94a42.14,42.14,0,0,1,4.89-3.94c1.07-.76,1.36-1.51.78-2.67a24.06,24.06,0,0,1-1.82-4c-.85-3-1.85-5.69-6-6.32,3.33-1.88,4-4.4,4.26-7.24a33.1,33.1,0,0,1,1.51-5.3,17.69,17.69,0,0,0,.34-1.84l-10.42-1.18c.86-.77,1.3-1.14,1.72-1.54a100,100,0,0,0,7.76-7.35c3.7-4.27,6.83-9,8-14.67a17.29,17.29,0,0,0-.13-3.86c-5,.53-8.77,2.76-12.14,5.48s-6.32,5.82-9.06,8.38c.18-2.7.57-6.06.57-9.41a31.42,31.42,0,0,0-3.76-14.87c-.62-1.17-1.13-2.69-3.18-2.16a42.66,42.66,0,0,0-6.55,18c-.9,6.48.3,12.81,1.58,18.71-4.18-1.52-8.3-3.06-12.46-4.52-2.87-1-4.07-.32-4.73,2.63-1,4.67-.76,9.09,2.56,12.36-2.56,1.33-5.15,2.42-7.47,3.93A63.52,63.52,0,0,0,438.93,265.38Zm34.86,19.88-14.31,2.07c-2.05-3.47-5.73-6.23-6.61-11.13a56.13,56.13,0,0,1,12.36-5.53c-2,3.86-3.63,7.61-3.23,12,2-3.72,2.52-8.18,5.37-11.25,1.32,1.36,2.45,2.61,3.67,3.78C474,278,475.17,282,473.79,285.26Zm15.37-15.34c.77,1.95,1.42,3.95,2.06,5.76-1.84,1.79-3.63,3.58-5.49,5.33a3.34,3.34,0,0,1-4.66.42,19.72,19.72,0,0,1-3.22-2.89c-2.08-2.43-4-5-6.12-7.59l1.66-1.09,10.3,5.1c-1.5-3.39-4.66-4.26-7-6.52,3.05-.29,6.09-.64,9.14-.85A3.24,3.24,0,0,1,489.16,269.92Zm-.72-17c-.49,2.48-.63,5-1.56,7.3a7.48,7.48,0,0,1-3.67,3.52,64.37,64.37,0,0,1-8.2,2.5l-1.81-1.75a31,31,0,0,1,9.55-8.72,17.58,17.58,0,0,0-7.89,3.63,35.12,35.12,0,0,0-2.51,2.52,8.42,8.42,0,0,1-1.59.88l-.55-.52c1.12-2.5,2-5.18,3.46-7.44.75-1.14,2.56-1.78,4-2.22C481.28,251.6,484.89,252.22,488.44,253Zm-12.09-4.14c.75-1.31,1.2-3.05,3.77-2.61Zm6.43-5.26-1.72-.33,2.24-2.48,2.57.26Zm5.46-4.95-2.52-.33,2.35-2.53,2,.49Zm5.15-12q-8.7,9-17.41,18C478.89,235.76,485.27,230.32,493.39,226.59Zm-21.86-13.76c5.75,6.25,4.61,28.25-2.09,38C466,237.65,464.87,225.09,471.53,212.83Zm-19.13,31.1c3.75,1.62,7.84,2.32,11.12,5a9.18,9.18,0,0,1,3.33,6.13,49.29,49.29,0,0,1,0,6.2l-.49.21c-1.4-3.88-2.27-8.14-6.52-9.93l-.52.39a13.51,13.51,0,0,1,1.52,1.87c1.18,2.13,2.33,4.28,3.36,6.49.2.41-.17,1.1-.27,1.59-2.56-1.57-4.75-2.89-6.91-4.26C452.33,254.63,450.53,249.49,452.4,243.93Zm5.15,17.3,4.18,2c-.14.6-.28,1.15-.46,1.91-4.35-1-8.6-1.28-12.62.73l.08.81H461l1.07,2a14.53,14.53,0,0,1-2.61,1.4c-10.8,3.16-14.34,1.26-17.59-2.38,1.75-1.68,3.47-3.38,5.24-5C450.3,259.81,453.68,259.35,457.55,261.23ZM580.37,421.86l-4.29-3.17V671.82c-11.86,2.46-16.84,7.52-21.24,21.52H432.64c2.61,2.61,4.78,4.65,8.58,4.32,4.53-.4,9.13-.1,13.7-.1l102,0c.58,0,1.15-.08,1.66-.12.89-13.78,9.34-19.9,21.83-22.21ZM194.64,671.72V418.82l-4.14,3.05V675.56a23.08,23.08,0,0,1,15.32,6.74c4.26,4.16,6.82,9,6.18,15.16.87.07,1.33.13,1.78.13q58.64,0,117.27,0c3.4,0,4.78-2.35,6.71-4.37H216.06C213.33,681.67,206.93,673.92,194.64,671.72Zm361-616.83c2.76,11.53,9.07,19.17,21.37,21.49v243l4.19-3.13V72.84c-12.56-2.26-21-8.48-21.86-22.2a14,14,0,0,0-1.4-.13c-38.95,0-77.91.08-116.86-.06-3.59,0-5.12,2.27-7.34,3.95l.16.49ZM191.29,316.3l4.26,3.1v-243c12.29-2.34,18.63-10,21.31-21.66H338.91c-2.56-2.83-5-4.62-8.92-4.28-4.6.42-9.26.1-13.9.1l-101.56,0a10,10,0,0,0-1.39.17c-1,13.76-9.37,19.91-21.85,22.15ZM415,76.16H355.55v49.69H415Zm-4.16,45.43h-51V80.38h51ZM503,554.24a21.46,21.46,0,0,1,4.09-2c2.82-.9,5.7-1.58,9-2.47a20.81,20.81,0,0,1-2.2-.48c-3.66-1.26-7.4-2.36-10.95-3.9a6.94,6.94,0,0,1-4-5.79c-.73-5.17-1.59-10.33-2.42-15.49-.21-1.37-.52-2.72-.79-4.08-1.49,6.49-2.61,12.93-3.53,19.4-.36,2.5-1.37,4.53-3.52,5.66a68.94,68.94,0,0,1-8.35,3.53,39.51,39.51,0,0,1-5.12,1.12c0,.11,0,.23,0,.35a16.67,16.67,0,0,1,2.68.47c3.43,1.16,6.91,2.21,10.19,3.69,2.54,1.15,3.81,3.42,4.14,6.34.47,4.13,1.26,8.23,1.94,12.34.36,2.23.76,4.44,1.15,6.66a1.33,1.33,0,0,0,.69-.92c1-6,2-12,2.84-18A8.19,8.19,0,0,1,503,554.24ZM274.56,167.81c3.68,1.24,7.43,2.3,11,3.82a7.19,7.19,0,0,1,4.2,6.1c.48,3.68,1.1,7.34,1.69,11,.44,2.77.93,5.53,1.4,8.3a2.85,2.85,0,0,0,.82-1.63c1-6,2-11.89,2.84-17.85.33-2.36,1.3-4.3,3.31-5.36a72,72,0,0,1,8.51-3.66,33.37,33.37,0,0,1,4.7-1.06,6.26,6.26,0,0,0-2.62-.92,26.34,26.34,0,0,1-10.65-4.13,7,7,0,0,1-3.16-4.84c-.59-4.06-1.26-8.11-1.92-12.16-.42-2.61-.88-5.22-1.33-7.82-.49.25-.63.47-.67.71-1,6.08-2,12.15-2.87,18.25a8,8,0,0,1-4,6.28,22.76,22.76,0,0,1-4.27,2.08c-2.82.9-5.71,1.57-8.68,2.36.14.14.22.29.32.31A12.22,12.22,0,0,1,274.56,167.81Zm80.76,472c1.17,5,2.12,10.09,3.26,15.12a6.89,6.89,0,0,0,1.46,3,2.56,2.56,0,0,0,2.24.7,2.77,2.77,0,0,0,1.2-2c1.41-10.34,1.12-20.74,1.09-31.13a14,14,0,0,0-.32-3.16,7.7,7.7,0,0,0-1-1.88c-2.16,1.07-1.74,2.83-1.81,4.2-.34,6.85-.51,13.72-.72,19.86-2.55-7.4-5.32-15.46-8.1-23.52-2.23.09-3.1.79-3.29,2.28a25.58,25.58,0,0,0-.36,3.35q.17,14.19.42,28.39a7.17,7.17,0,0,0,.53,2.69,2,2,0,0,0,1.5,1,2.22,2.22,0,0,0,1.43-1.1,3.53,3.53,0,0,0,.22-1.73q-.19-10.53-.42-21.06c0-.78,0-1.56,0-2.35A34.25,34.25,0,0,1,355.32,639.76Zm-26.75-7c2-7.68-3.51-13.49-11.33-12.41-1.1.16-2.19.38-3.09.53-.61-.74-1.1-1.35-2-2.49l-1.43,4.26a13,13,0,0,0-2.55,2,59.74,59.74,0,0,0-4.64,6.33c-.54.88-1,2.28.74,3.17,2.22-2.08,3.29-5.34,6.53-6.82,0,1,0,1.75,0,2.47q-.33,13.61-.68,27.22c-.07,2.44.62,3.87,2,3.7,2.31-.31,1.85-2.21,1.87-3.73,0-3,0-5.94,0-9C322.36,646,326.6,640.26,328.57,632.76ZM316.26,643.3c-.65.28-1.34.46-2.25.77V624.72a36.82,36.82,0,0,1,5.81-.31c2.65.26,4.1,2.06,4.44,4.82C324.85,634.15,320.8,641.29,316.26,643.3Zm79.33-1.24c-.83-6.29-1.55-12.6-2.39-18.9a14.67,14.67,0,0,0-1-2.79l-.75-.1a9,9,0,0,0-1.29,1.91c-.82,2.38-1.58,4.77-2.24,7.2-1.37,5.09-2.66,10.21-3.92,15.1-1.58.94-4-.19-4.33,2.15-.31,2.14,1.94,1.68,3.14,2.42-.61,2.52-1.26,5-1.81,7.52-.3,1.37-1.48,3.25.83,3.78s2.18-1.67,2.56-3c.78-2.78,1.42-5.6,2.13-8.47h6.13c.16.86.29,1.57.41,2.29.4,2.28.68,4.59,1.26,6.82.18.65,1.23,1.07,1.87,1.6.51-.66,1.27-1.26,1.44-2a7.87,7.87,0,0,0-.24-2.74C396.82,650.57,396.15,646.32,395.59,642.06Zm-7.82,2.09,2.93-11.7.35.1c.39,3.8.77,7.6,1.18,11.6Zm-104.42,9.61a3,3,0,0,0,4-.63,41.46,41.46,0,0,0,5.6-6.83c4.93-8.18-1.54-15.9-7.54-18.22a3.51,3.51,0,0,0-3.05.5,3.82,3.82,0,0,0-.66,3,20.11,20.11,0,0,0,1.5,3.94c-.72.05-1.31,0-1.88.13-3.05.5-6.13.89-9.14,1.59a3.12,3.12,0,0,0-2.72,3c0,1.69,1.4,2.25,2.73,2.74a9.76,9.76,0,0,0,2.08.63c3.33.43,6.65.79,10,1.18-.65,1.57-1.45,3.17-2,4.85C281.86,651.14,281.81,652.75,283.35,653.76Zm2.06-3-.56-.31c.92-2.12,1.85-4.24,2.74-6.3l3.76-.87A17.93,17.93,0,0,1,285.41,650.73Zm5.78-14.25c-4.3.19-6.11-2-6.78-6.08C287.59,631.54,289.55,633.75,291.19,636.48ZM273,640.38c3.24-2,14.82-2.19,18.64-.24C288.88,642.21,276,642.38,273,640.38ZM425.5,697.64c-3.17-.63-6.38-1-9.72-1.55a13.62,13.62,0,0,0,1.32-3.25c.15-1.14.14-2.76-.52-3.4a3.79,3.79,0,0,0-3.41-.4,14.89,14.89,0,0,0-8.55,9.36c-1.82,5.73,3,12.74,6.93,15.6,1.21.88,2.58,1.54,4,.57s1.44-2.5,1.05-3.94a32.52,32.52,0,0,0-1.54-3.85c-.19-.45-.39-.9-.47-1.08,3.69-.49,7.31-.84,10.86-1.52,1.75-.33,4-.8,3.92-3.21C429.35,698.73,427.33,698,425.5,697.64Zm-10.38-6.25c-1.2,2-2.19,3.73-3.09,5.28l-4.27.87C409.38,694.22,412.06,691.85,415.12,691.39Zm-1.63,20.17c-2.63-1.79-4.34-4.32-5.94-7.47l3.74.82c.88,2,1.83,4.18,2.78,6.33Zm-6.57-10.76a37.77,37.77,0,0,1,19.35.1C423.32,703.16,410.44,703.08,406.92,700.8ZM343.72,49.41a6.15,6.15,0,0,0,2.34,1c2.73.47,5.48.81,8.23,1.19.53.07,1.07.12,1.69.18-.56,1.28-1.05,2.29-1.43,3.34-.48,1.29-.82,2.87.55,3.59a4.8,4.8,0,0,0,3.66.2,14.46,14.46,0,0,0,8.05-8.59,10.76,10.76,0,0,0,.5-4.08c-.23-4.75-3-8.2-6.18-11.38a7.56,7.56,0,0,0-2.5-1.57,2.57,2.57,0,0,0-3.72,2.47,12.27,12.27,0,0,0,.77,3.65,31.26,31.26,0,0,0,1.6,3.37,29.63,29.63,0,0,0-4.54,0,54.83,54.83,0,0,0-8.67,1.88C341.56,45.59,341.5,47.91,343.72,49.41ZM357,57A10.07,10.07,0,0,1,360,51.36l4.05-.82A13.45,13.45,0,0,1,357,57Zm1.25-20.49a19,19,0,0,1,5.9,7.5l-3.75-.84-2.75-6.32Zm6.4,10.24c-3,2.31-15.38,2.29-18.86-.13A38.36,38.36,0,0,1,364.6,46.76ZM357.35,688.9a3.51,3.51,0,0,0-3.06.52,3.86,3.86,0,0,0-.63,3,17.24,17.24,0,0,0,1.38,3.65c-3.35.53-6.63.94-9.85,1.6-1.76.36-3.68,1.12-3.74,3.27-.07,2.32,2.05,2.84,3.74,3.16,3.62.69,7.29,1.08,11,1.6-.59,1.48-1.4,3.15-1.92,4.9-.43,1.42-.42,3,1,3.94a3,3,0,0,0,4-.58,41.14,41.14,0,0,0,5.63-6.83C369.86,698.93,363.33,691.18,357.35,688.9Zm0,22.65-.55-.29c.91-2.12,1.82-4.25,2.71-6.31l3.75-.88A17.43,17.43,0,0,1,357.37,711.55Zm-12.87-9.94c3.39-2.49,15.75-2.63,19.46-.33C357.4,703.12,351.18,702.87,344.5,701.61Zm14.35-4.94c-.9-1.54-1.89-3.23-2.89-4.92l.61-.44c3,1,4.89,3.3,6.77,6.27Zm-179.73-351c8.1,5,15.68-.89,18.38-7.13a3.92,3.92,0,0,0-.48-3.4c-.55-.64-2.15-.69-3.21-.52a15.55,15.55,0,0,0-3.39,1.33c-.52-3.33-.92-6.54-1.56-9.7-.37-1.82-1.08-3.84-3.32-3.9-2.4-.06-2.88,2.18-3.21,3.92-.68,3.55-1,7.16-1.53,10.82a48.35,48.35,0,0,0-4.68-1.91c-1.47-.45-3.09-.57-4.14,1a3.08,3.08,0,0,0,.63,4.15A38.85,38.85,0,0,0,179.12,345.64Zm16.11-8.46c-.95,3.31-3.41,5-6.1,7C189.09,339.35,191.74,337.81,195.23,337.18Zm-10.37-11.89c2.53,3.48,2.67,15.88.37,19.5C183.34,338.26,183.7,332,184.86,325.29Zm-9.61,12.39,6.31,2.71.86,3.79c-3.17-1.58-5.68-3.31-7.47-5.93Zm6,62.38a52.35,52.35,0,0,0,2,8.62c.77,2.19,3,2.29,4.34.42a6.92,6.92,0,0,0,1.25-2.66c.6-3.21,1.05-6.46,1.57-9.78a14,14,0,0,0,3.33,1.33c1.12.15,2.74.08,3.36-.6a3.86,3.86,0,0,0,.34-3.41,14.81,14.81,0,0,0-9.57-8.55c-5.53-1.64-12.34,3-15.26,6.83-.94,1.24-1.71,2.65-.68,4.18s2.76,1.46,4.31,1,3.14-1.3,5-2.08A29.51,29.51,0,0,0,181.27,400.06Zm13.92-4.89-.44.6-4.91-2.88c-.32-1.61-.58-2.86-.91-4.49C191.9,390.26,194.17,392.16,195.19,395.17Zm-9.73-7a30.34,30.34,0,0,1-.18,18.68A31.88,31.88,0,0,1,185.46,388.13Zm-10.18,6.8-.36-.62a19.15,19.15,0,0,1,7.51-5.88c-.34,1.47-.57,2.49-.86,3.75ZM488.07,643.68c3-.34,6-.56,9-1.13,1.74-.34,4-.81,3.89-3.22-.07-2.24-2.1-3-3.92-3.31-3.16-.64-6.36-1-9.72-1.55a12.3,12.3,0,0,0,1.26-3.05,5.79,5.79,0,0,0-.42-3.63c-.87-1.34-2.51-.94-3.8-.3a15.23,15.23,0,0,0-8,8.67,11.09,11.09,0,0,0-.42,4.26c.29,4.9,3.21,8.38,6.57,11.55a6,6,0,0,0,1.86,1.13c2.13.86,4.08-.32,3.89-2.6a22.23,22.23,0,0,0-1.39-4.89,13.53,13.53,0,0,0-1-1.92C486.8,643.69,487.44,643.75,488.07,643.68Zm-1.89-14.15c-.82,3.9-2.35,6.24-6.89,6.22A13,13,0,0,1,486.18,629.53ZM485,650a18.9,18.9,0,0,1-5.9-7.5l3.75.84,2.76,6.31Zm-6.57-10.76a38.59,38.59,0,0,1,19.39,0C495.05,641.52,482.17,641.48,478.45,639.2ZM589.61,332.74a54.72,54.72,0,0,0-2-8.82c-.76-2.2-3-2.35-4.31-.4a12.34,12.34,0,0,0-1.7,4.37c-.5,2.63-.69,5.32-1,8.1a14.78,14.78,0,0,0-3.44-1.37c-1.12-.15-2.75-.09-3.36.59a4.09,4.09,0,0,0-.34,3.42,12.91,12.91,0,0,0,2.41,3.81c6.28,7.72,19,5.9,23.13-3.28,1.07-2.4-.16-4.34-2.78-4.19a11.67,11.67,0,0,0-3.24.81c-1.08.4-2.1,1-3.3,1.54A28.83,28.83,0,0,0,589.61,332.74Zm-14.09,4.39c3.93.82,6.22,2.32,6.23,6.88A13,13,0,0,1,575.52,337.13Zm9.89,7.35a30.59,30.59,0,0,1,.17-18.69A31.75,31.75,0,0,1,585.41,344.48Zm10.13-6.81.62.91-7,5.64-.57-.41c.22-1,.45-2.05.74-3.37ZM414,59.08a3.93,3.93,0,0,0,3.41-.44c.65-.55.71-2.15.55-3.21A15.63,15.63,0,0,0,416.61,52c3.33-.52,6.54-.92,9.7-1.56,1.83-.37,3.84-1.09,3.91-3.34s-2.07-2.82-3.77-3.14c-3.62-.69-7.29-1.08-10.93-1.59.61-1.58,1.42-3.31,2-5.13a3.09,3.09,0,0,0-1.1-3.74,2.94,2.94,0,0,0-3.84.51A40.93,40.93,0,0,0,407,40.47C401.79,48.65,407.71,56.35,414,59.08Zm-.08-22.78.93.55c-.89,2.1-1.79,4.19-2.7,6.32l-3.35.75-.49-.46Zm13.21,10.23c-3.33,2.45-15.72,2.6-19.4.29A40.42,40.42,0,0,1,427.12,46.53Zm-14.35,4.89c.88,1.49,1.91,3.21,2.93,4.94l-.63.45c-3-1.08-4.92-3.29-6.68-6.25ZM591.93,387.06c-8.15-5.14-15.81.7-18.55,7a3.88,3.88,0,0,0,.47,3.4c.55.64,2.15.69,3.21.52a19,19,0,0,0,3.82-1.5,17.09,17.09,0,0,0,0,3.23c.62,3,1,6.15,2.18,8.95,1.06,2.52,3.54,2.23,4.74-.28a9.56,9.56,0,0,0,.95-2.8c.47-3.33.82-6.67,1.22-10.09a49.46,49.46,0,0,0,4.75,1.93c1.47.45,3.09.56,4.14-.95a3.08,3.08,0,0,0-.62-4.15A39.38,39.38,0,0,0,591.93,387.06ZM581,392.9l-4.92,2.87-.44-.61c1.06-3,3.29-4.93,6.28-6.74Zm4.62,13.91a29.94,29.94,0,0,1-.24-18.67C587.52,394.33,587.17,400.56,585.65,406.81Zm3.66-14.6c-.28-1.27-.52-2.33-.78-3.48a13.49,13.49,0,0,1,7.53,6.37ZM436.46,656.08c0,1.58.23,3.65,1.9,3.7a62.6,62.6,0,0,0,10.2-.93c.45-.06,1.15-1.31,1-1.82a2.89,2.89,0,0,0-1.71-1.52,5,5,0,0,0-2.14.14c-1.62.22-3.23.48-4.8.71V642.71l3.19-.2a15.63,15.63,0,0,0,3.71-.42,2.42,2.42,0,0,0,1.33-1.86,2.64,2.64,0,0,0-1.5-1.77,7.47,7.47,0,0,0-2.92-.41c-1.22,0-2.45.13-4.07.23V623.76l8.07-.4a2.47,2.47,0,0,0-2.36-3.08,63.74,63.74,0,0,0-9.26.43c-.63.06-1.14,1.16-1.76,1.83l1.8,1.51v14c-1.71,1.42-3.8,2.32-3.9,3.39-.19,2.26,2.37,1,3.64,1.79,0,.6,0,1.25,0,1.9C436.74,648.8,436.56,652.44,436.46,656.08Zm143.4,34.15c1.41-.55,3-1.05,4.46-1.78s3-1.92,2.53-4c-.45-1.88-2.15-2.41-3.74-2.32a39.9,39.9,0,0,0-8.39,1.06c-8.93,2.38-9.94,12.07-7.28,18.17a3.44,3.44,0,0,0,2.48,1.84,4.18,4.18,0,0,0,2.72-1.8,16.64,16.64,0,0,0,1.53-3.68c2.29,1.75,4.45,3.59,6.8,5.16,1.89,1.26,4.25,3,6.28,1s0-4.27-1.17-6C584.2,695.19,582,692.77,579.86,690.23Zm3.53-5c.07.21.13.41.2.61l-6.49,2.68-3.3-2.09C577.19,685.28,580.22,684.62,583.39,685.21ZM569.87,700.6c-1.64-3.1-1.29-6.13-.72-9.48C572.65,694.8,572,697,569.87,700.6Zm1.54-12.17c3.49.45,12.83,9.34,13.64,13C581.2,700.55,572.81,692.56,571.41,688.43ZM185.72,50.52c2,2.46,4,4.87,6.07,7.3-1.52.64-3.26,1.26-4.89,2.11-1.41.73-2.5,1.87-2.1,3.67a3,3,0,0,0,3.3,2.32,44.07,44.07,0,0,0,9-1.06c8.92-2.36,9.82-12.36,7.13-18.24-1.14-2.5-3.69-2.55-5.07-.18a35,35,0,0,0-1.72,4.12,17.51,17.51,0,0,0-1.47-1.31c-2.4-1.74-4.76-3.55-7.27-5.13-1.28-.81-2.95-1.21-4.26,0s-.64,2.81,0,4.2A11.39,11.39,0,0,0,185.72,50.52Zm2,11.86,6.87-2.75,3,1.84C195.33,63,190.38,63.56,187.72,62.38Zm14.11-14.79c1.63,3,1.25,6.07.7,9.28C199.5,53.63,199.27,50.62,201.83,47.59Zm-1.15,12.13c-3.92-.49-13.25-9.37-14.15-13.45A38.06,38.06,0,0,1,200.68,59.72ZM570.24,61.9c4,3.61,8.83,4.49,14,4.07,1.55-.12,3.08-.62,3.45-2.44s-.77-2.91-2.17-3.63c-1.62-.83-3.36-1.44-5.15-2.19.44-.4.87-.79,1.29-1.19,2.85-2.72,5.44-5.64,6.85-9.38.92-2.46-.35-4.11-2.88-3.53a14.75,14.75,0,0,0-4.79,2.23c-2.05,1.38-3.9,3-5.89,4.64-.37-1.07-.65-2.09-1.08-3-.6-1.34-1.28-2.73-3.07-2.65s-2.57,1.51-3,3a15.58,15.58,0,0,0,.11,10.31A10,10,0,0,0,570.24,61.9Zm14.16.37-.2.62c-3.2.62-6.25-.11-9.64-1.17l3.31-2.11Zm1.46-15.56a32.13,32.13,0,0,1-13.56,13A29.82,29.82,0,0,1,585.86,46.71Zm-15.23,1.06c2.33,2.75,2.74,6.13-.6,8.93C569.09,52.88,569.27,50.11,570.63,47.77ZM201.44,686.2c-3.93-3.63-8.83-4.49-14-4.07-1.54.13-3.07.61-3.45,2.44s.76,2.91,2.16,3.63c1.62.83,3.36,1.45,5.15,2.2L190,691.59c-2.84,2.71-5.43,5.62-6.85,9.36-.92,2.46.35,4.13,2.88,3.54a15.72,15.72,0,0,0,4.95-2.34c2-1.33,3.78-3,5.76-4.56a25.18,25.18,0,0,0,.81,2.53c.65,1.51,1.22,3.26,3.3,3.19s2.74-1.71,3.13-3.34a21.44,21.44,0,0,0,.69-4.89C204.7,691.76,204,688.52,201.44,686.2Zm-14.13-.33.28-1.09,9.19,1.18.06.59-3,1.93Zm-1.48,15.55a31.37,31.37,0,0,1,13.57-13C196.37,694.25,191.62,698.37,185.83,701.42Zm15.28-.95c-2.53-2.45-2.35-5.68.59-9.34C202.35,694.47,202.59,697.48,201.11,700.47Zm255.37-51c-1.89-.79-3.16-.17-3.52,1.08a8.41,8.41,0,0,0-.19,4.73c1.33,3.85,3.6,4.83,8.44,4.24,4.31-.53,7-3.49,6.32-7.76a22.86,22.86,0,0,0-2.6-8.23,43.23,43.23,0,0,0-6.78-8.23,9.29,9.29,0,0,1-2.87-8.43c.38-2.71,1.86-3.79,4.54-3.28,1.91.36,2.68,1.71,3.22,3.38a25.35,25.35,0,0,0,1.44,2.9,9.29,9.29,0,0,0,1.09-1.82c.66-2.93-1.7-6.57-4.72-7.38-3.75-1-7.42.6-8.36,3.78-1.51,5.09-1.14,9.83,3,13.75,1,.92,1.87,1.88,2.75,2.87a20.5,20.5,0,0,1,5.47,11c.31,2.24-.52,3.44-2.7,3.74-.91.12-1.83.21-2.34.27C454.7,654.68,456.9,651.6,456.48,649.44Zm-78-592.08a2.68,2.68,0,0,0,2.3.36c.43-.16.73-1.32.66-2-.37-3.41,1.14-5.93,4.57-7.26,3.8,1.11,5.44,3.61,5.05,7.29a2.43,2.43,0,0,0,.7,2,3,3,0,0,0,2.15-.28,4.1,4.1,0,0,0,1.29-1.21A11.46,11.46,0,0,0,384,37.82a11.54,11.54,0,0,0-9.21,10A10.59,10.59,0,0,0,378.46,57.36Zm3.34-14.65c3-2.11,6.19-2,9.33.44a6.57,6.57,0,0,1,2.36,7.68c-3.47-7-10.17-7.92-14.56,0A7,7,0,0,1,381.8,42.71ZM393.39,690.9a3.14,3.14,0,0,0-2.46-.52c-.39.11-.71,1.42-.63,2.14.37,3.39-1.42,6-5.09,7.12-3.53-1.36-4.87-3.68-4.53-7.44a2.27,2.27,0,0,0-.71-1.83,2.05,2.05,0,0,0-2,.14,13.15,13.15,0,0,0-2.86,3.47,11.27,11.27,0,0,0,6.15,15.72,11.44,11.44,0,0,0,15.15-7.19C397.75,698.39,396.51,693.38,393.39,690.9Zm-3.46,14.38c-3,2-6,2.13-8.87.16s-3.87-4.87-2.88-8.48c1.41,3.44,3.76,5.78,7.18,5.9,3.61.12,5.79-2.46,7.3-5.82C393.91,699.85,392.49,703.61,389.93,705.28Zm186.8-334.17a2.44,2.44,0,0,0-2,.69c-.29.51,0,1.45.25,2.16.1.34.5.6.79.87a11.29,11.29,0,0,0,13.08,1.62,11.54,11.54,0,0,0-4.13-21.6,10.57,10.57,0,0,0-9.59,3.67,2.72,2.72,0,0,0-.39,2.3c.16.42,1.32.74,2,.67,3.43-.36,5.91,1.11,7.28,4.55C582.92,369.83,580.38,371.51,576.73,371.11ZM581.67,359a7,7,0,0,1,8.09,2.86c2.12,3,2,6.2-.44,9.34a6.57,6.57,0,0,1-7.67,2.37C588.77,370,589.42,363.3,581.67,359Zm-387.3,2.6c1.18.12,2.1-.31,2-1.53a4,4,0,0,0-1.18-2.17,11.12,11.12,0,0,0-11.95-2.32c-4.31,1.74-7.55,6.3-7.36,10.87A11.38,11.38,0,0,0,183,376.88c4.35,2,10,.79,12.69-2.67a3.32,3.32,0,0,0,.47-2.47c-.07-.34-1.32-.69-2-.62-3.62.4-6.2-1.32-7.25-5.1C188.31,362.49,190.5,361.2,194.37,361.6Zm-5.14,11.95a6.5,6.5,0,0,1-7.54-2.19c-2.53-3.18-2.74-6.44-.59-9.48a7.07,7.07,0,0,1,8.29-2.83C182.75,362.18,180.89,369.27,189.23,373.55ZM342.61,658.69c1.35-.3,3.06-.45,2.86-2.35s-2-1.83-3.42-1.71a23.38,23.38,0,0,0-3.49.68c-1.14.27-2.25.63-3.37,1V643.88c1.61-.18,3-.25,4.35-.51s2.71-.71,3.91-1c.11-2.48-.78-3.32-3.05-3.16-1.76.12-3.5.44-5.31.68-.29-5.38-.56-10.57-.85-16,1.22,0,2.39.06,3.56,0a29.23,29.23,0,0,0,5.3-.56,3.14,3.14,0,0,0,2-2c.25-1.39-1.07-1.78-2.23-1.95a5.41,5.41,0,0,0-1.39,0c-2.1.22-4.21.37-6.3.71a28,28,0,0,0-3.53,1v39.78c1.21-.19,2-.3,2.84-.47Q338.54,659.57,342.61,658.69Zm70.2-.65a42.24,42.24,0,0,0,4.3-5.82c.73-1.18.89-2.71-.78-3.35s-2.12.66-2.81,1.81c-1,1.64-2.21,3.14-3.27,4.61-2.73-.88-4.08-2.3-4.65-4.57a40.47,40.47,0,0,1-1.11-15c.45-3.55.92-7.16,3.27-10.08s4.34-2.76,6.68,0c.56.68,1.15,1.34,1.73,2l.71-.15a4.52,4.52,0,0,0,.49-1.51c-.27-3.69-5.26-6.67-8.69-5.17a11.51,11.51,0,0,0-6.33,7,40.14,40.14,0,0,0-.57,25c.84,3,3,4.79,5.69,6C409.4,659.67,411.38,659.63,412.81,658ZM245.57,559.67c.45,3.54,1.08,7.06,1.64,10.59.1.61.28,1.21.41,1.81A71.26,71.26,0,0,0,250,560.18a6.36,6.36,0,0,1,4.24-5.68c1.89-.77,3.88-1.27,5.83-1.89l1.08-.32c-2.65-1-5.28-1.81-7.79-2.91a5.55,5.55,0,0,1-3.3-4.81c-.51-4.11-1.29-8.19-1.95-12.28l-.58.07c-.63,3.83-1.45,7.65-1.8,11.51a6.87,6.87,0,0,1-4.91,6.29c-1.66.62-3.4,1-5.11,1.54-.46.14-.92.25-1.28.35,2.68,1,5.36,1.85,7.94,3A5.39,5.39,0,0,1,245.57,559.67Zm-3.86-180.29c.24,2.63.78,5.23,1.21,7.84.24,1.43.52,2.86.78,4.29l.54,0c.65-4.17,1.36-8.33,1.94-12.5a5.25,5.25,0,0,1,2.79-4.31,53.59,53.59,0,0,1,5.51-2.2,26.26,26.26,0,0,1,2.78-.69c-2.71-1-5.32-1.86-7.82-3a5.56,5.56,0,0,1-3.3-4.83c-.44-3.62-1.09-7.2-1.67-10.8a14.84,14.84,0,0,0-.4-1.45h-.35c-.16.75-.35,1.51-.47,2.27-.51,3.07-1.24,6.12-1.44,9.21-.22,3.55-2.23,5.39-5.2,6.51-2,.73-4,1.24-6.3,1.95.7.19,1.11.29,1.51.42,2.13.71,4.31,1.29,6.36,2.18A5.67,5.67,0,0,1,241.71,379.38ZM492.47,169.9c.31,2.7.8,5.37,1.23,8,.24,1.47.5,2.94.74,4.41h.44c.13-.55.3-1.08.39-1.63.57-3.46,1.29-6.9,1.62-10.39a6.2,6.2,0,0,1,4.12-5.54c1.83-.76,3.76-1.23,5.65-1.82.45-.15.91-.28,1.25-.38-2.67-1-5.35-1.92-7.92-3.08a5,5,0,0,1-2.95-4c-.53-3.6-1.1-7.19-1.66-10.78-.12-.77-.3-1.54-.45-2.3l-.51.06c-.6,3.71-1.48,7.39-1.73,11.12-.28,4.25-2.77,6.2-6.36,7.36-1.59.51-3.23.88-5.38,1.47,1,.27,1.51.36,2,.53,2.11.72,4.27,1.36,6.32,2.25A5.38,5.38,0,0,1,492.47,169.9Zm-116.16,487a5.12,5.12,0,0,0,.15-2.16c0-4.37-.1-8.74,0-13.11.08-5.75.26-11.5.4-17.42a34.54,34.54,0,0,0,5.26-.09,2.43,2.43,0,0,0,1.58-1.77,2.51,2.51,0,0,0-1.57-1.84,38.76,38.76,0,0,0-13.88.11c-1.34,2.39-1.14,2.55,5,3.87,0,.44,0,.89,0,1.34l-.75,29.77c0,.46-.11,1.07.13,1.35.58.68,1.29,1.58,2,1.67C375.11,658.7,375.94,657.64,376.31,656.92Zm48-33.82a7.34,7.34,0,0,0-.7-2.07l-.86,0a11.91,11.91,0,0,0-1,2.81c-.32,3.89-.54,7.79-.71,11.69-.29,6.81-.5,13.62-.78,20.43-.08,2.14.48,3.13,2.61,3.13,3.69,0,7.39-.29,11.08-.6.7-.06,1.34-.76,2.06-1.2-1.29-2.84-3.49-2.3-5.47-2.32s-4.18,0-6.38,0c.12-1.9.33-3.67.33-5.45Q424.45,636.29,424.28,623.1Zm-116-53c.85-4,0-8.37,5.51-8.82-4.22-1.35-4.37-1.53-5-5.69-.12-.87-.28-1.73-.42-2.6-.79,1.77-.75,3.76-1.6,5.23s-2.52,2.2-3.93,3.34C308.18,561.55,306.8,566.48,308.24,570.13Zm146.35-384a13.14,13.14,0,0,0,.27,2c.1.56.25,1.11.38,1.67,1.27-3.33.27-7.84,5.84-8.19a6.62,6.62,0,0,0-1.38-.62c-2-.58-3.35-1.66-3.42-4a22.08,22.08,0,0,0-.72-3.71c-1.27,3.21-.27,7.71-5.53,8.36a6.09,6.09,0,0,0,.9.33A4,4,0,0,1,454.59,186.13ZM520.18,373c1.14-3.39.34-8,6-8.09-4.45-1.47-4.69-1.74-5.27-5.74-.13-.85-.32-1.7-.48-2.55-1.07,3.45-.49,7.76-6.08,8.2C520,365.11,519.27,369.55,520.18,373ZM182.87,439.14c1.25,0,2.12-.63,2-2.68a2,2,0,0,0-2.11-1.93c-1.46,0-2.06.93-2.06,2.31A2,2,0,0,0,182.87,439.14Zm405.3-4.62c-1.53,0-2.13,1.06-2.24,2.45a1.84,1.84,0,0,0,2,2.17,2,2,0,0,0,2.22-2.2C590.16,435.6,589.64,434.54,588.17,434.52Zm-404.11-9.37c-.52-.43-2.09-.51-2.39-.12a3.49,3.49,0,0,0-.59,2.78c.45,1.55,1.84,1.37,3.27,1A2.56,2.56,0,0,0,184.06,425.15Zm.75-112.1a2.47,2.47,0,0,0,.19-3.75c-1.22-.23-2.63-.56-3.11,1a3.55,3.55,0,0,0,.53,2.81A2.48,2.48,0,0,0,184.81,313.05Zm401.94,112.1a2.46,2.46,0,0,0-.11,3.65c2.88.52,3.61-.2,3.25-3.3C588.89,424.46,587.75,424.09,586.75,425.15Zm3.14-112a3.49,3.49,0,0,0,.76-2.72c-.37-1.56-1.76-1.49-3.25-1.13a2.49,2.49,0,0,0,.12,3.59C588,313.39,589.56,313.56,589.89,313.19ZM184.81,446.45a2,2,0,0,0-4,.17c-.43,1.47.57,2.28,2.06,2.57C184.45,448.8,185.31,447.85,184.81,446.45Zm403.32-1.54a2.75,2.75,0,0,0-2.07,1.53c-.5,1.39.35,2.36,1.92,2.76,1.49-.29,2.48-1.11,2.07-2.57A2.77,2.77,0,0,0,588.13,444.91ZM439.56,45.47a1.89,1.89,0,0,0,2.06-2.14c0-1.23-.6-2.15-2.76-2.11-.29.38-1.2,1.06-1.32,1.86A2,2,0,0,0,439.56,45.47Zm-106.8,0c1.5.06,2-1,2.55-2.75A8.19,8.19,0,0,0,333,41.27c-1.37-.31-2.1.65-2.17,1.92A1.9,1.9,0,0,0,332.76,45.46ZM332,702.64a1.91,1.91,0,0,0-1.93,2.26c.07,1.26.78,2.25,2.16,1.93a8.06,8.06,0,0,0,2.31-1.42C334,703.63,333.49,702.59,332,702.64Zm106.72,0a2,2,0,0,0-1.94,2.45c.14.79,1.07,1.44,1.39,1.83,2.13,0,2.7-1,2.68-2.21A1.9,1.9,0,0,0,438.7,702.64ZM181.25,112.79c.81.55,1.57,1.45,2.44,1.56a1.69,1.69,0,0,0,1.93-2.1,2.92,2.92,0,0,0-1.93-1.9c-.78,0-1.62.94-2.43,1.47C181.26,112.15,181.26,112.47,181.25,112.79Zm4.37-30.31a2.89,2.89,0,0,0-1.89-1.94c-.77-.07-1.64.89-2.46,1.41l0,1c.79.57,1.53,1.49,2.39,1.62A1.69,1.69,0,0,0,185.62,82.48Zm401.23,139a1.69,1.69,0,0,0,1.85,2.17c.86-.07,1.66-.94,2.49-1.45l0-1c-.79-.57-1.59-1.58-2.37-1.57A2.9,2.9,0,0,0,586.85,221.5Zm-405.61.55c.8.57,1.54,1.5,2.4,1.63a1.69,1.69,0,0,0,2-2.05,2.89,2.89,0,0,0-1.89-1.95c-.77-.07-1.64.9-2.46,1.41Zm405.61-10.57a1.7,1.7,0,0,0,1.76,2.25c.87,0,1.71-.87,2.56-1.34l.06-1c-.76-.6-1.52-1.66-2.3-1.67A2.87,2.87,0,0,0,586.85,211.48Zm-402,305.17a1.69,1.69,0,0,0-1.86-2.16c-.87.08-1.66,1-2.48,1.47l0,1c.79.56,1.6,1.57,2.38,1.55A2.89,2.89,0,0,0,184.82,516.65ZM183.63,104.4a1.68,1.68,0,0,0,2-2c-.16-.88-1.06-1.61-1.63-2.41l-.92,0c-.5.84-1.44,1.72-1.37,2.51A2.88,2.88,0,0,0,183.63,104.4Zm-.83,424a2.91,2.91,0,0,0,2-1.81,1.69,1.69,0,0,0-1.83-2.19c-.87.07-1.68.93-2.51,1.44l0,1C181.23,527.42,182,528.44,182.8,528.43Zm405.13-73.57a1.69,1.69,0,0,0-1.88,2.14,2.89,2.89,0,0,0,2,1.85c.77,0,1.59-1,2.39-1.53l0-1C589.58,455.83,588.8,454.94,587.93,454.86Zm.85-261c.86-.11,1.62-1,2.43-1.56v-1c-.82-.54-1.66-1.53-2.44-1.48a3,3,0,0,0-1.93,1.9A1.7,1.7,0,0,0,588.78,193.86Zm-405.57-4.44c-.54.81-1.53,1.64-1.5,2.43a2.87,2.87,0,0,0,1.82,2,1.69,1.69,0,0,0,2.1-1.93c-.12-.88-1-1.66-1.5-2.49Zm-2.74,278c.83.51,1.69,1.48,2.47,1.41a2.88,2.88,0,0,0,1.88-1.94,1.68,1.68,0,0,0-2-2.05c-.86.13-1.6,1.05-2.39,1.62Zm409.92-1.14c-.83-.51-1.63-1.37-2.5-1.44a1.7,1.7,0,0,0-1.84,2.19,2.91,2.91,0,0,0,2,1.8c.78,0,1.57-1,2.36-1.58C590.42,466.89,590.41,466.57,590.39,466.24Zm-2.48,121.81c.77.08,1.65-.87,2.48-1.37,0-.33,0-.65,0-1-.79-.58-1.52-1.51-2.38-1.65a1.69,1.69,0,0,0-2,2A2.88,2.88,0,0,0,587.91,588.05ZM183.66,179.92c-.78,0-1.6,1-2.41,1.51,0,.32,0,.64,0,1,.81.53,1.59,1.42,2.45,1.52a1.69,1.69,0,0,0,1.91-2.12A2.91,2.91,0,0,0,183.66,179.92Zm.12-5.94a1.7,1.7,0,0,0,1.84-2.19,2.89,2.89,0,0,0-2-1.8c-.78,0-1.57,1-2.36,1.58,0,.33,0,.65,0,1C182.11,173.05,182.91,173.91,183.78,174Zm405-9.94c.86-.1,1.63-1,2.44-1.53v-1c-.81-.54-1.64-1.53-2.42-1.49a2.89,2.89,0,0,0-1.94,1.88A1.68,1.68,0,0,0,588.76,164ZM182.82,478.73a2.9,2.9,0,0,0,2-1.82,1.69,1.69,0,0,0-1.85-2.17c-.87.07-1.66.94-2.49,1.46l0,1C181.24,477.73,182,478.75,182.82,478.73Zm405.11,0c.78.07,1.64-.9,2.47-1.41,0-.32,0-.64,0-1-.79-.57-1.53-1.5-2.39-1.62a1.68,1.68,0,0,0-2,2A2.87,2.87,0,0,0,587.93,478.73ZM183.7,160.05c-.78-.05-1.62.92-2.44,1.45v1c.81.55,1.56,1.46,2.43,1.57a1.68,1.68,0,0,0,1.94-2.08A2.91,2.91,0,0,0,183.7,160.05Zm402.35,366.4a2.92,2.92,0,0,0,1.85,2c.77.08,1.66-.87,2.49-1.37,0-.33,0-.65,0-1-.79-.58-1.51-1.52-2.37-1.66A1.69,1.69,0,0,0,586.05,526.45ZM180.48,487.3c.84.5,1.72,1.46,2.49,1.37a2.88,2.88,0,0,0,1.85-2,1.68,1.68,0,0,0-2-2c-.86.14-1.58,1.07-2.36,1.66Zm406.37-395a1.69,1.69,0,0,0,1.85,2.17c.86-.07,1.66-.94,2.49-1.46l0-1c-.79-.56-1.59-1.58-2.37-1.57A2.91,2.91,0,0,0,586.85,92.3Zm-402,464c-.14-.88-1-1.65-1.55-2.47h-.92c-.53.82-1.49,1.67-1.45,2.46a2.85,2.85,0,0,0,1.85,2A1.67,1.67,0,0,0,184.84,556.33ZM588.73,140.17a2.93,2.93,0,0,0-1.89,2,1.68,1.68,0,0,0,2,2c.86-.12,1.6-1,2.4-1.61,0-.33,0-.65,0-1C590.37,141.07,589.51,140.11,588.73,140.17ZM182.4,573.73c-.54.81-1.52,1.65-1.49,2.44a2.85,2.85,0,0,0,1.83,2,1.67,1.67,0,0,0,2.1-1.92c-.13-.89-1-1.67-1.51-2.5Zm-1.14-431.09c.82.54,1.59,1.43,2.46,1.52a1.68,1.68,0,0,0,1.9-2.12,2.94,2.94,0,0,0-2-1.87c-.78,0-1.6,1-2.41,1.51C181.25,142,181.26,142.32,181.26,142.64Zm407.49-8.42c.86-.09,1.64-1,2.45-1.52,0-.32,0-.64,0-1-.81-.55-1.63-1.54-2.41-1.51a2.91,2.91,0,0,0-1.95,1.87A1.68,1.68,0,0,0,588.75,134.22ZM185.62,261.34a2.93,2.93,0,0,0-1.92-1.91c-.78-.05-1.63.94-2.44,1.47v1c.8.55,1.56,1.46,2.43,1.57A1.68,1.68,0,0,0,185.62,261.34Zm-.8,235.44a1.69,1.69,0,0,0-1.86-2.16c-.87.07-1.66.95-2.49,1.47l0,1c.79.56,1.6,1.58,2.38,1.55A2.9,2.9,0,0,0,184.82,496.78Zm.8-404.36a2.89,2.89,0,0,0-1.89-1.94c-.77-.07-1.64.9-2.46,1.41l0,1c.8.57,1.54,1.49,2.4,1.62A1.69,1.69,0,0,0,185.62,92.42Zm-5.15,474.31c.81.53,1.66,1.51,2.44,1.46a2.89,2.89,0,0,0,1.91-1.92,1.68,1.68,0,0,0-1.95-2.08c-.86.11-1.61,1-2.41,1.58ZM586.84,82.44a1.69,1.69,0,0,0,1.94,2.09c.87-.11,1.62-1,2.43-1.56,0-.33,0-.65,0-1-.81-.53-1.66-1.51-2.43-1.46A2.92,2.92,0,0,0,586.84,82.44ZM182.63,548.33c1.21.33,2.15-.46,2.26-1.81A1.84,1.84,0,0,0,183,544.3c-.83,0-1.63.82-2.44,1.28,0,.29-.08.59-.11.89C181.15,547.12,181.79,548.1,182.63,548.33Zm407.78,57.13c-.82-.53-1.59-1.42-2.45-1.52a1.69,1.69,0,0,0-1.91,2.12,2.91,2.91,0,0,0,2,1.88c.77,0,1.6-1,2.4-1.51ZM586.05,616a2.91,2.91,0,0,0,1.94,1.88c.78,0,1.61-1,2.42-1.49v-1c-.81-.54-1.58-1.44-2.44-1.54A1.69,1.69,0,0,0,586.05,616Zm.8-315.06a1.7,1.7,0,0,0,1.76,2.25c.87,0,1.71-.87,2.56-1.35l.06-1c-.76-.6-1.52-1.66-2.29-1.68A2.92,2.92,0,0,0,586.85,300.93Zm-403.32,2.25a1.7,1.7,0,0,0,2.1-1.94c-.12-.87-1-1.65-1.5-2.48h-.93c-.54.81-1.52,1.64-1.49,2.42A2.88,2.88,0,0,0,183.53,303.18ZM539.86,45.7c.53-.76,1.4-1.48,1.52-2.31a1.68,1.68,0,0,0-2-2,2.89,2.89,0,0,0-2,1.91c0,.78,1,1.63,1.5,2.45Zm-357,582.11a2.88,2.88,0,0,0,1.95-1.87,1.68,1.68,0,0,0-1.9-2.12c-.86.09-1.64,1-2.45,1.52,0,.32,0,.65,0,1C181.26,626.85,182.09,627.85,182.87,627.81Zm403.18-2a2.88,2.88,0,0,0,1.85,2c.77.09,1.66-.86,2.49-1.36l0-1c-.79-.58-1.51-1.52-2.37-1.66A1.68,1.68,0,0,0,586.05,625.83ZM500.16,45.7c.51-.83,1.37-1.61,1.46-2.48a1.68,1.68,0,0,0-2.13-1.87,2.86,2.86,0,0,0-1.84,2c0,.79,1,1.6,1.55,2.39Zm87.89,488.67a1.68,1.68,0,0,0-2,2,2.88,2.88,0,0,0,1.86,2c.77.08,1.65-.87,2.48-1.38,0-.32,0-.64,0-1C589.64,535.44,588.91,534.51,588.05,534.37Zm.79-241.12c.86-.14,1.59-1.07,2.38-1.64l0-1c-.83-.5-1.71-1.46-2.48-1.39a2.91,2.91,0,0,0-1.87,2A1.69,1.69,0,0,0,588.84,293.25ZM490.12,45.71c.55-.8,1.44-1.55,1.56-2.41a1.67,1.67,0,0,0-2.06-1.95,2.86,2.86,0,0,0-1.91,1.9c0,.78.93,1.63,1.46,2.45ZM182.88,633.76c-.86.11-1.62,1-2.42,1.57,0,.32,0,.64,0,1,.81.53,1.66,1.51,2.43,1.46a2.89,2.89,0,0,0,1.92-1.91A1.68,1.68,0,0,0,182.88,633.76Zm405.07,0a1.68,1.68,0,0,0-1.9,2.12,2.92,2.92,0,0,0,2,1.87c.77,0,1.6-1,2.41-1.51,0-.32,0-.64,0-1C589.59,634.74,588.82,633.85,588,633.76ZM479.11,45.67l.9.06c.6-.71,1.52-1.35,1.73-2.17.31-1.25-.51-2.16-1.85-2.28a1.79,1.79,0,0,0-2.17,2C477.79,44.09,478.62,44.86,479.11,45.67ZM590.4,555.73c-.82-.52-1.61-1.4-2.48-1.48a1.69,1.69,0,0,0-1.87,2.15,2.91,2.91,0,0,0,2,1.84c.78,0,1.59-1,2.38-1.54C590.41,556.37,590.41,556.05,590.4,555.73ZM588,548.3c.77,0,1.59-1,2.39-1.53,0-.32,0-.64,0-1-.82-.53-1.6-1.42-2.47-1.5a1.69,1.69,0,0,0-1.88,2.14A2.87,2.87,0,0,0,588,548.3ZM182.87,647.7a2.92,2.92,0,0,0,1.95-1.88,1.68,1.68,0,0,0-1.9-2.12c-.86.09-1.64,1-2.45,1.52v1C181.26,646.73,182.09,647.73,182.87,647.7Zm276.55-602h.89c.55-.76,1.42-1.46,1.56-2.29.22-1.27-.66-2.12-2-2.15a1.81,1.81,0,0,0-2,2.14C458,44.23,458.86,44.94,459.42,45.71ZM184.82,655.82a1.69,1.69,0,0,0-1.84-2.18c-.86.06-1.67.93-2.5,1.43,0,.33,0,.65,0,1,.79.58,1.58,1.61,2.36,1.6A2.94,2.94,0,0,0,184.82,655.82ZM449.31,45.67l.93.06c.59-.79,1.64-1.58,1.63-2.36a2.91,2.91,0,0,0-1.84-2,1.68,1.68,0,0,0-2.13,1.92C448,44.1,448.81,44.87,449.31,45.67Zm141.1,460.39c-.82-.53-1.6-1.41-2.47-1.5a1.69,1.69,0,0,0-1.89,2.13,2.9,2.9,0,0,0,2,1.85c.78,0,1.6-1,2.4-1.51C590.41,506.71,590.41,506.38,590.41,506.06Zm.78-235.3c-.83-.51-1.71-1.46-2.48-1.39a2.93,2.93,0,0,0-1.87,2,1.69,1.69,0,0,0,2,2c.85-.14,1.58-1.07,2.37-1.64ZM183.12,269c-.51.83-1.46,1.69-1.4,2.47a2.85,2.85,0,0,0,1.88,1.94,1.69,1.69,0,0,0,2-2c-.14-.87-1-1.63-1.58-2.43Zm404.8,394.63a1.69,1.69,0,0,0-1.87,2.16,2.9,2.9,0,0,0,2,1.82c.78,0,1.59-1,2.38-1.54,0-.33,0-.65,0-1C589.57,664.53,588.78,663.65,587.92,663.58Zm.84-553.23a2.93,2.93,0,0,0-1.92,1.91,1.7,1.7,0,0,0,1.95,2.09c.86-.12,1.62-1,2.42-1.58,0-.32,0-.64,0-1C590.39,111.28,589.54,110.3,588.76,110.35Zm.09,139.14a2.91,2.91,0,0,0-2,1.83,1.69,1.69,0,0,0,1.85,2.17c.86-.07,1.66-.94,2.49-1.46l0-1C590.43,250.5,589.63,249.48,588.85,249.49ZM302.28,45.72l.9,0c.53-.77,1.4-1.51,1.51-2.34a1.8,1.8,0,0,0-2.08-2.07c-1.35.06-2.2.93-1.95,2.19C300.82,44.3,301.72,45,302.28,45.72Zm-19.88,0,.89,0c.53-.78,1.41-1.51,1.52-2.35a1.8,1.8,0,0,0-2.07-2.08c-1.36.06-2.21.93-2,2.2C280.94,44.29,281.83,45,282.4,45.72Zm-10.09,0h1c.56-.8,1.57-1.6,1.55-2.39a2.9,2.9,0,0,0-1.85-2,1.67,1.67,0,0,0-2.13,1.87C270.93,44.09,271.79,44.88,272.31,45.7Zm-9.83,0h.95c.53-.83,1.5-1.68,1.44-2.46s-1.13-1.71-1.92-1.89a1.68,1.68,0,0,0-2.05,2C261,44.17,261.93,44.92,262.48,45.71Zm-9,0c.54-.78,1.41-1.52,1.51-2.35a1.68,1.68,0,0,0-2.06-2c-.79.2-1.88,1.24-1.91,1.95s1,1.61,1.53,2.42Zm-70.4,203.38c-.5.84-1.43,1.71-1.36,2.5a2.82,2.82,0,0,0,1.91,1.9,1.69,1.69,0,0,0,2-2c-.16-.87-1.06-1.61-1.63-2.41Zm-2.62,357.4c.82.53,1.67,1.51,2.44,1.46a2.89,2.89,0,0,0,1.92-1.91,1.68,1.68,0,0,0-1.94-2.09c-.86.11-1.62,1-2.42,1.57ZM222.61,45.69l.94,0c.57-.81,1.59-1.63,1.57-2.42a2.9,2.9,0,0,0-1.91-1.95,1.69,1.69,0,0,0-2.07,2C221.25,44.18,222.09,44.91,222.61,45.69ZM182.87,598a1.67,1.67,0,0,0,2-2c-.19-.88-1.09-1.61-1.67-2.4l-.92,0c-.48.85-1.4,1.74-1.33,2.53A2.88,2.88,0,0,0,182.87,598ZM588.72,239.56a2.92,2.92,0,0,0-1.88,1.95,1.69,1.69,0,0,0,2,2c.86-.13,1.6-1.06,2.39-1.63l0-1C590.36,240.45,589.49,239.49,588.72,239.56Zm-403.1,1.88a2.92,2.92,0,0,0-2-1.88c-.77,0-1.61.95-2.41,1.49v1c.81.54,1.58,1.44,2.44,1.54A1.69,1.69,0,0,0,185.62,241.44ZM509,45.69l.93,0c.57-.8,1.59-1.62,1.57-2.4a2.94,2.94,0,0,0-1.89-2,1.68,1.68,0,0,0-2.09,2C507.62,44.15,508.49,44.9,509,45.69ZM588.71,170a2.93,2.93,0,0,0-1.87,2,1.68,1.68,0,0,0,2,2c.86-.14,1.59-1.07,2.37-1.65l0-1C590.36,170.86,589.48,169.91,588.71,170Zm-357,532.44c-.5.78-1.34,1.53-1.43,2.37a1.69,1.69,0,0,0,2.09,2,2.9,2.9,0,0,0,1.89-2c0-.79-1-1.6-1.6-2.4Zm29.79,0c-.49.84-1.34,1.65-1.4,2.51a1.68,1.68,0,0,0,2.18,1.82,2.89,2.89,0,0,0,1.8-2c0-.78-1-1.56-1.62-2.35Zm10.09,0c-.55.8-1.43,1.56-1.55,2.42a1.67,1.67,0,0,0,2.07,1.94,2.91,2.91,0,0,0,1.9-1.92c.05-.78-.94-1.62-1.47-2.43Zm18.34,2.26a1.66,1.66,0,0,0,1.89,2.1c.88-.1,1.67-1,2.49-1.47l0-.91c-.8-.55-1.62-1.54-2.41-1.53A2.83,2.83,0,0,0,289.94,704.66Zm12.47-2.24-.9,0c-.57.74-1.47,1.41-1.65,2.23-.26,1.27.59,2.14,1.93,2.22a1.8,1.8,0,0,0,2.1-2.05C303.8,704,302.93,703.2,302.41,702.42Zm9.94,0-.9,0c-.57.74-1.48,1.41-1.65,2.23-.27,1.27.59,2.14,1.93,2.22a1.8,1.8,0,0,0,2.1-2.05C313.74,704,312.87,703.2,312.35,702.42Zm136.84.38a1.69,1.69,0,0,0-2.07,2,2.86,2.86,0,0,0,1.93,1.92c.79,0,1.65-.94,2.48-1.48,0-.3,0-.61,0-.92C450.75,703.78,450,703,449.19,702.8Zm10.43-.39-1,0c-.57.79-1.58,1.6-1.57,2.38a2.88,2.88,0,0,0,1.83,2,1.67,1.67,0,0,0,2.15-1.85C461,704,460.13,703.24,459.62,702.41Zm29.71,0h-.95c-.53.83-1.52,1.7-1.46,2.48a2.89,2.89,0,0,0,2,1.87,1.69,1.69,0,0,0,2-2.07C490.75,703.85,489.87,703.15,489.33,702.39Zm10,0-.95,0c-.57.8-1.59,1.62-1.57,2.41a2.9,2.9,0,0,0,1.91,2,1.68,1.68,0,0,0,2.07-2C500.72,703.93,499.88,703.2,499.37,702.41Zm9.83,0-.95,0c-.53.82-1.5,1.66-1.45,2.44a2.86,2.86,0,0,0,1.9,1.91,1.68,1.68,0,0,0,2.07-2C510.64,704,509.75,703.19,509.2,702.39Zm19.34.46a2.86,2.86,0,0,0-1.91,1.91,1.66,1.66,0,0,0,2,2c.88-.17,1.62-1,2.43-1.59l0-.93C530.19,703.74,529.32,702.79,528.54,702.85Zm9.91,0a2.83,2.83,0,0,0-1.88,1.93,1.66,1.66,0,0,0,2,2c.88-.18,1.61-1.06,2.4-1.63l0-.93C540.11,703.72,539.23,702.78,538.45,702.86Zm-316.57-.46c-.54.77-1.4,1.48-1.53,2.31a1.68,1.68,0,0,0,2,2,2.88,2.88,0,0,0,1.95-1.9c.05-.78-.95-1.63-1.5-2.45Zm-39.25-164a1.77,1.77,0,0,0,2.26-1.8,1.83,1.83,0,0,0-1.91-2.22c-.83,0-1.63.82-2.44,1.27l-.11.89C181.15,537.18,181.79,538.17,182.63,538.39Zm406.1-358.46a2.91,2.91,0,0,0-1.89,1.94,1.69,1.69,0,0,0,2,2c.86-.13,1.6-1,2.4-1.61,0-.32,0-.64,0-1C590.37,180.83,589.51,179.86,588.73,179.93ZM184.82,665.68a1.68,1.68,0,0,0-1.92-2.1c-.86.1-1.63,1-2.44,1.54v1c.81.53,1.65,1.52,2.42,1.48A2.88,2.88,0,0,0,184.82,665.68Zm401.23-99.37a2.9,2.9,0,0,0,2,1.87c.77,0,1.6-1,2.41-1.5v-1c-.82-.54-1.59-1.43-2.45-1.52A1.69,1.69,0,0,0,586.05,566.31Zm1.83,7.82a1.69,1.69,0,0,0-1.83,2.19,2.91,2.91,0,0,0,2,1.8c.77,0,1.56-1,2.35-1.59,0-.33,0-.65,0-1C589.56,575.05,588.75,574.19,587.88,574.13ZM312.1,45.7h.95c.55-.81,1.56-1.65,1.52-2.44a2.91,2.91,0,0,0-1.94-1.92,1.69,1.69,0,0,0-2,2C310.71,44.21,311.57,44.93,312.1,45.7ZM183,584.07c-.87.08-1.66,1-2.48,1.48,0,.32,0,.65,0,1,.8.56,1.61,1.56,2.39,1.54a2.9,2.9,0,0,0,2-1.84A1.68,1.68,0,0,0,183,584.07Zm403.1,12.1a2.94,2.94,0,0,0,2,1.83c.78,0,1.59-1,2.38-1.55,0-.33,0-.65,0-1-.83-.52-1.62-1.39-2.48-1.47A1.7,1.7,0,0,0,586.05,596.17ZM181.27,291.77c.82.52,1.62,1.4,2.48,1.48a1.7,1.7,0,0,0,1.87-2.16,2.9,2.9,0,0,0-2-1.83c-.78,0-1.59,1-2.39,1.54ZM292.19,45.69l.94,0c.57-.81,1.59-1.64,1.56-2.42s-1.12-1.77-1.91-1.95a1.69,1.69,0,0,0-2.07,2C290.83,44.18,291.67,44.92,292.19,45.69ZM182.34,613.49c-.52.83-1.47,1.7-1.42,2.5a2.82,2.82,0,0,0,1.88,1.92,1.67,1.67,0,0,0,2-2c-.16-.88-1-1.64-1.59-2.45ZM588.72,283.31c.86-.08,1.65-1,2.47-1.48l0-1c-.8-.56-1.6-1.57-2.38-1.55a2.89,2.89,0,0,0-2,1.84A1.69,1.69,0,0,0,588.72,283.31Zm-405,0a1.7,1.7,0,0,0,1.89-2.14,2.92,2.92,0,0,0-2-1.86c-.78,0-1.6,1-2.4,1.52,0,.32,0,.65,0,1C182.08,282.33,182.86,283.22,183.73,283.31Zm405-19.88c.87-.1,1.64-1,2.45-1.53,0-.32,0-.64,0-1-.81-.55-1.63-1.54-2.41-1.5a2.88,2.88,0,0,0-1.95,1.87A1.69,1.69,0,0,0,588.75,263.43ZM242.29,45.64l.88.1c.65-.73,1.65-1.38,1.87-2.22a1.78,1.78,0,0,0-1.83-2.24A1.82,1.82,0,0,0,241,43.2C241.06,44,241.84,44.83,242.29,45.64Zm307.47.07c.55-.76,1.42-1.46,1.56-2.29a1.69,1.69,0,0,0-2-2.07c-.79.16-1.93,1.18-2,1.88s.94,1.65,1.48,2.47Zm39,183.91a2.92,2.92,0,0,0-1.93,1.9,1.69,1.69,0,0,0,1.95,2.09c.86-.11,1.62-1,2.42-1.56v-1C590.39,230.55,589.55,229.57,588.77,229.62ZM232.62,45.71h.95c.54-.83,1.53-1.68,1.48-2.47s-1.16-1.73-2-1.89a1.69,1.69,0,0,0-2,2C231.21,44.23,232.08,44.94,232.62,45.71Zm297.26,0c.55-.76,1.42-1.46,1.56-2.29a1.68,1.68,0,0,0-2-2.07,2.9,2.9,0,0,0-2,1.88c-.06.78.93,1.65,1.47,2.47ZM185.62,231.49a2.92,2.92,0,0,0-2-1.87c-.77,0-1.6,1-2.41,1.5,0,.32,0,.64,0,1,.82.53,1.59,1.43,2.45,1.52A1.69,1.69,0,0,0,185.62,231.49Zm0-19.69c-.12-.88-1-1.66-1.49-2.49h-.93c-.54.81-1.53,1.64-1.5,2.42a2.86,2.86,0,0,0,1.82,2A1.69,1.69,0,0,0,185.63,211.8ZM519.09,45.72l1,0c.51-.82,1.47-1.69,1.4-2.46a2.94,2.94,0,0,0-2-1.88,1.66,1.66,0,0,0-2,2C517.6,44.18,518.52,44.92,519.09,45.72ZM588.85,203.8c.86-.14,1.59-1.07,2.37-1.65l0-1c-.83-.51-1.71-1.47-2.48-1.39a2.93,2.93,0,0,0-1.87,2A1.69,1.69,0,0,0,588.85,203.8Zm-405.21,0a1.69,1.69,0,0,0,2-2.05,2.92,2.92,0,0,0-1.88-1.95c-.78-.07-1.64.9-2.47,1.41l0,1C182,202.74,182.78,203.67,183.64,203.8ZM184.82,457a1.69,1.69,0,0,0-1.86-2.16c-.87.08-1.66,1-2.49,1.48,0,.32,0,.64,0,1,.8.56,1.61,1.57,2.38,1.54A2.9,2.9,0,0,0,184.82,457ZM322.13,45.72l.94,0c.52-.84,1.5-1.72,1.43-2.5a2.89,2.89,0,0,0-2-1.85,1.69,1.69,0,0,0-2,2.1C320.68,44.27,321.57,45,322.13,45.72ZM251.56,702.43c-.49.83-1.33,1.64-1.39,2.51a1.68,1.68,0,0,0,2.19,1.81,2.9,2.9,0,0,0,1.79-2c0-.79-1-1.57-1.63-2.35ZM588.72,154.1c.86-.08,1.65-1,2.48-1.48,0-.33,0-.65,0-1-.8-.56-1.61-1.57-2.39-1.54a2.88,2.88,0,0,0-2,1.84A1.69,1.69,0,0,0,588.72,154.1Zm-2.67,332.66a2.91,2.91,0,0,0,1.92,1.91c.77.06,1.62-.92,2.44-1.45,0-.33,0-.65,0-1-.81-.55-1.56-1.46-2.42-1.57A1.68,1.68,0,0,0,586.05,486.76ZM281.53,702.4c-.54.8-1.43,1.56-1.54,2.42a1.68,1.68,0,0,0,2.07,1.94,2.89,2.89,0,0,0,1.9-1.92c0-.78-.94-1.62-1.47-2.43ZM185.62,152.1a2.92,2.92,0,0,0-1.85-2c-.77-.08-1.65.86-2.49,1.36l0,1c.78.59,1.5,1.53,2.36,1.68A1.69,1.69,0,0,0,185.62,152.1Zm0-19.8c-.11-.88-1-1.66-1.48-2.49l-.92,0c-.55.8-1.55,1.62-1.52,2.41a2.85,2.85,0,0,0,1.8,2A1.69,1.69,0,0,0,185.63,132.3ZM469.17,45.66l.93.08c.6-.79,1.65-1.57,1.65-2.35a2.93,2.93,0,0,0-1.82-2,1.68,1.68,0,0,0-2.15,1.9C467.84,44.09,468.68,44.86,469.17,45.66ZM321.64,702.86a2.84,2.84,0,0,0-1.88,1.95,1.69,1.69,0,0,0,2.09,2c.84-.16,1.55-1,2.31-1.57v-.91C323.31,703.77,322.44,702.8,321.64,702.86ZM590.39,496.05c-.83-.5-1.64-1.37-2.5-1.43a1.69,1.69,0,0,0-1.84,2.18,2.93,2.93,0,0,0,2,1.81c.78,0,1.57-1,2.36-1.58C590.42,496.7,590.4,496.38,590.39,496.05Zm-1.66-375.76a2.91,2.91,0,0,0-1.89,1.95,1.69,1.69,0,0,0,2,2.05c.86-.13,1.6-1.06,2.39-1.63,0-.32,0-.64,0-1C590.37,121.19,589.5,120.22,588.73,120.29ZM469.42,702.39l-.95,0c-.52.83-1.5,1.71-1.43,2.5a2.9,2.9,0,0,0,2,1.84,1.69,1.69,0,0,0,2-2.09C470.86,703.83,470,703.14,469.42,702.39Zm7.51,2.29a1.67,1.67,0,0,0,1.91,2.09c.89-.13,1.67-1,2.49-1.5l0-.92c-.81-.54-1.64-1.53-2.42-1.5A2.82,2.82,0,0,0,476.93,704.68ZM185.62,122.13a2.93,2.93,0,0,0-2-1.84c-.77,0-1.59,1-2.38,1.54,0,.32,0,.65,0,1,.82.52,1.61,1.41,2.47,1.49A1.7,1.7,0,0,0,185.62,122.13ZM588,647.69c.78,0,1.62-.93,2.43-1.47v-1c-.81-.54-1.57-1.44-2.44-1.55a1.68,1.68,0,0,0-1.93,2.09A2.88,2.88,0,0,0,588,647.69Zm-405-139.15a2.92,2.92,0,0,0,1.89-1.93,1.7,1.7,0,0,0-2-2.06c-.86.13-1.61,1.05-2.4,1.62l0,1C181.3,507.65,182.16,508.61,182.94,508.54ZM519.31,702.43l-1,0c-.59.79-1.62,1.57-1.63,2.35a2.9,2.9,0,0,0,1.79,2,1.68,1.68,0,0,0,2.19-1.81C520.65,704.07,519.8,703.26,519.31,702.43Zm69.46-602a2.88,2.88,0,0,0-1.93,1.9,1.69,1.69,0,0,0,1.94,2.09c.87-.11,1.63-1,2.43-1.57v-1C590.39,101.35,589.55,100.37,588.77,100.42Zm-.84,557.21c.78.06,1.64-.9,2.47-1.41,0-.32,0-.64,0-1-.79-.56-1.53-1.48-2.39-1.61a1.68,1.68,0,0,0-2,2A2.92,2.92,0,0,0,587.93,657.63Zm-39,44.75-.9,0c-.53.78-1.4,1.51-1.51,2.34a1.8,1.8,0,0,0,2.07,2.08c1.35-.06,2.21-.92,2-2.19C550.36,703.81,549.47,703.13,548.9,702.38ZM588,518.49c.78,0,1.6-1,2.4-1.51,0-.32,0-.65,0-1-.81-.54-1.59-1.43-2.45-1.52a1.69,1.69,0,0,0-1.9,2.13A2.94,2.94,0,0,0,588,518.49ZM241.63,702.42c-.49.84-1.34,1.65-1.4,2.51a1.69,1.69,0,0,0,2.19,1.82,2.87,2.87,0,0,0,1.79-2c0-.79-1-1.57-1.62-2.35Zm104.8-475c6.37,2.1,11.82,7,19.29,4.48-.86,5.16-1.66,10-2.52,15.1l13.28-6.83c1,2.53,1.57,5.09,2.85,7.24,1.84,3.07,4.18,5.84,6.44,8.94,3.32-5.16,8.82-9.12,9-16.48l14,7.27c-.86-5.32-1.68-10.4-2.53-15.64a18.51,18.51,0,0,0,11.93-.83,25.09,25.09,0,0,1,4.44-.87c.54-.1,1.08-.16,2-.29-3.91-5.49-5.54-12.28-12.55-15l9.76-9.3c-.15-.58-.28-1.07-.43-1.67l-14.18-2.16c.59-1.5,1.48-2.86,1.62-4.29.44-4.68.61-9.37.89-14.36-5.76,2.5-12.37,2.31-16.74,7.66-1.87-3.82-3.54-7.33-5.33-10.78-.34-.65-1.15-1.05-1.9-1.7-2.37,4.66-4.49,8.85-6.75,13.32-4.37-6.19-11.36-6-17.53-8.56,1.68,6.4-1.5,13,3,18.63l-14.35,2.17c3.68,3.93,7.09,7.56,10.39,11.1-1.89,1.09-3.88,1.79-5.23,3.12C352.19,220.71,349.49,224,346.43,227.44ZM392.57,241a25.48,25.48,0,0,1-2.52,6.18,34.08,34.08,0,0,1-4.15,4.63c-4.88-5.46-7.73-8.65-6.14-13.21l5.78-3.15c-.57,3.84-2.56,7.27-.89,10.9.2.43.93.61,1.31.84,1.83-.66,2.11-2,2-3.45-.08-1.85-.31-3.69-.48-5.54-.06-.62-.1-1.25-.18-2.23a26.88,26.88,0,0,1,4.4,2.44A3,3,0,0,1,392.57,241Zm22-22.49c2.75,2.38,4.13,5.54,5.55,9.27a97.8,97.8,0,0,1-9.72,2.17c-3.22.4-4.48-.84-5.07-4-.24-1.28-.45-2.56-.77-4.41,1.37,1,2.27,1.66,3.24,2.23a47.83,47.83,0,0,0,5,2.69c1,.44,2.37.57,2.91-.8s-.47-2.31-1.6-2.77c-1.76-.73-3.62-1.23-5.44-1.81-.68-.21-1.37-.38-2.42-.66.75-.79,1.2-1.27,1.66-1.73C410.58,216,411.65,216,414.55,218.48Zm-7.49-31.6a80.5,80.5,0,0,1-.05,8.22c-.52,5.11-2.4,6.3-7.59,5.25-.51-.1-1-.29-1.9-.56a36.55,36.55,0,0,0,3.22-2.76,24.69,24.69,0,0,0,3.3-4.14c.35-.58-.12-1.66-.22-2.5-.9.14-2.19,0-2.63.47a52.54,52.54,0,0,0-3.62,5.41c-.28.44-.52.9-1,1.72-1-1.91-1.79-3.56-2.64-5.23C396,189.21,401.52,186.7,407.06,186.88Zm-42.9,6.06a56,56,0,0,1,.45-6.06c6,0,12.76,3.26,13,7.2-.64,1.32-1.39,2.85-2.35,4.8-1.3-2.2-2.38-4.11-3.55-5.95a8.36,8.36,0,0,0-2-2.38,2.21,2.21,0,0,0-2.1-.14,2.33,2.33,0,0,0-.48,2.19,48.65,48.65,0,0,0,4.08,5,14.64,14.64,0,0,1,2.29,2.54,30,30,0,0,1-5.94.52c-.88-.09-2-1.35-2.38-2.33A17.93,17.93,0,0,1,364.16,192.94Zm-8.35,12.94,20.94-3L386.2,184c2.16,4.5,4.21,8.67,6.19,12.87,2.92,6.19,2.9,6.2,9.74,7.11,2.29.31,4.58.6,6.86,1s4.53.77,7.28,1.23l-15.08,14.65c1.13,6.83,2.23,13.44,3.43,20.72L386,231.73l-18.69,9.66c1.25-7.19,2.4-13.87,3.6-20.82C366,215.76,361.12,211,355.81,205.88Zm6.46,11.34,5.13,4.91c-.94.06-1.75.08-2.55.17a70.54,70.54,0,0,0-7.42.89c-.71.15-1.19,1.44-1.78,2.2.92.48,1.9,1.44,2.73,1.33a33.12,33.12,0,0,0,5.5-1.6c.93-.29,1.84-.64,3.21-1.12-.34,2-.61,3.54-.84,4.9-3,3-9.74,1.48-15-2.57C355,220.84,357.49,216.61,362.27,217.22Zm41.29,289.85c.86-5.13,1.67-10,2.53-15.13l-13.46,6.92c-.61-2-.83-4-1.78-5.62-2.18-3.63-4.71-7.05-7.25-10.77-3.45,5.29-8.89,9.29-9.13,16.59l-13.94-7.26c.86,5.34,1.68,10.41,2.44,15.1a41.09,41.09,0,0,0-6.3.05c-3.82.63-7.59,1.58-11.37,2.41-.09,0-.13.21-.3.49,3.73,5,5.2,11.95,12.33,14.52-3.13,3-5.94,5.69-8.77,8.37-.77.73-1.42,1.46-.35,2.68l14,2.14a16.52,16.52,0,0,0-1.61,3.91c-.37,2.65-.39,5.36-.54,8-.11,2.13-.2,4.26-.31,6.64,5.69-2.42,12.27-2.29,16.63-7.59,1.86,3.76,3.51,7.2,5.28,10.59.36.7,1.15,1.18,1.92,1.93,2.41-4.75,4.53-8.94,6.79-13.38,4.39,6.17,11.36,5.94,17.5,8.53-1.64-6.4,1.51-13-3-18.61l14.3-2.16-10.26-11c2.09-1.33,4.27-2.3,5.89-3.85,2.79-2.66,5.25-5.69,7.83-8.57.06-.07,0-.25,0-.61C416.47,509.47,411.05,504.48,403.56,507.07Zm-20-19.78c2.84,3.93,7.48,7,6.09,13l-6,3.24c.61-3.87,2.59-7.3.87-10.94-.2-.42-.94-.59-1.66-1-3.3,3.51-.67,7.44-1.17,11.33l-4.56-2.42C375.25,497.58,378.62,491.09,383.6,487.29ZM357,521.9a27.44,27.44,0,0,1-5-4.7c-1.2-1.58-1.83-3.6-3-6,3.63-.82,6.8-1.79,10-2.18s4.38.88,4.93,4c.24,1.32.45,2.65.76,4.53-1.85-1.32-3.16-2.41-4.62-3.24a17.92,17.92,0,0,0-4.34-1.82c-.63-.16-2,.4-2.09.84a2.58,2.58,0,0,0,.78,2.3,48.59,48.59,0,0,0,5.88,2.27c.74.26,1.52.4,2.75.71a27.38,27.38,0,0,1-3.56,3.43A2.77,2.77,0,0,1,357,521.9Zm5.6,30.24a71.18,71.18,0,0,1-.32-8c.32-4.83,1.9-6.05,6.58-5.58.88.09,1.75.32,3,.56-1.41,1.19-2.59,2-3.58,3.06a27.55,27.55,0,0,0-3,3.67c-.61.91-.93,2.25.3,2.74a3,3,0,0,0,2.73-.69,37.71,37.71,0,0,0,3.25-5c.34-.54.62-1.13,1.05-1.95.44.8.73,1.31,1,1.82.58,1.18,1.15,2.35,1.66,3.41C373.83,549.68,368,552,362.57,552.14Zm42.54-6.66a55.22,55.22,0,0,1-.42,6.73c-4.62-.46-8.93-1.3-12.12-5a2.75,2.75,0,0,1-.38-3.46c.61-1.08,1.12-2.21,1.85-3.69,1.35,2.25,2.48,4.22,3.69,6.13a6.3,6.3,0,0,0,1.76,2.08,2.56,2.56,0,0,0,2.28.18,2.23,2.23,0,0,0,.42-2.19,30.69,30.69,0,0,0-3.51-4.47,29,29,0,0,0-2.84-2.43c0-.19,0-.38,0-.56a31.51,31.51,0,0,1,5.6-.59,3.57,3.57,0,0,1,2.47,1.89A16.34,16.34,0,0,1,405.11,545.48Zm8.36-12.41-20.94,3c-3.19,6.38-6.25,12.52-9.43,18.9-2.9-5.94-5.68-11.58-8.4-17.24a3.21,3.21,0,0,0-2.8-2.06c-6.17-.79-12.32-1.79-19-2.79l15.15-14.68c-1.13-6.81-2.22-13.43-3.43-20.72l18.6,9.76L402,497.56c-1.26,7.25-2.42,14-3.61,20.83Zm-6.41-11.32-5.18-5.06c1.58,0,3,.11,4.39,0a31.4,31.4,0,0,0,5.8-1c.67-.2,1-1.4,1.55-2.15-.8-.46-1.67-1.4-2.38-1.29a44.43,44.43,0,0,0-5.89,1.63c-.92.28-1.82.62-3.16,1.09.35-2,.62-3.56.86-4.93,3.13-3,9.94-1.33,14.88,2.56C414.83,517.6,411.69,522.53,407.06,521.75ZM366.82,116.46,364.89,118c.5,1.69,1.65,1.71,2.79,1.72,8.21.05,16.42.13,24.62.14q6.36,0,12.7-.23c2-.08,2.4-.93,1.38-2.81l-4.38-.57q-2.56-7.44-5.11-14.8c1.71-5,3.41-10,5.13-15,.59,0,1.11-.07,1.64-.08,1.24,0,2.59-.12,2.61-1.74s-1.38-1.66-2.61-1.66c-11.12,0-22.24,0-33.37.12-1.55,0-3.11.28-4.74.44-.62,3,1.85,2,2.82,2.61,1.67,4.79,3.37,9.45,4.87,14.18a5.38,5.38,0,0,1-.17,3.52C371.11,108.08,368.93,112.24,366.82,116.46Zm30.85-.13h-6.39c1.07-2.87,2.09-5.6,3.31-8.89Zm.76-29.85c-1.23,3-2.37,5.76-3.68,9l-3.48-9Zm-10.54-.15c1.5,4.75,3,9.45,4.46,14.17a2.65,2.65,0,0,1-.09,1.55c-1.75,4.77-3.55,9.52-5.36,14.32h-2.34c-1.89-4.84-3.77-9.69-5.72-14.7,2.05-5,4.15-10.16,6.26-15.34Zm-15.8-.08h9.31l-5,9.71Zm3.9,21.36,3.61,8.88h-8.1Z"/></svg>