<svg xmlns="http://www.w3.org/2000/svg" viewBox="0 0 750 750"><path d="M606.21,48.24a27.93,27.93,0,0,0-.44-5.33A21.89,21.89,0,0,0,583.86,25H187.36c-13.13,0-22.69,9.55-22.69,22.67V374.83q0,163.79,0,327.56a22.29,22.29,0,0,0,.15,3.17c1.76,11.87,10.72,19.44,23,19.44q197.55,0,395.11,0a27.15,27.15,0,0,0,5.33-.45c10.93-2.21,17.9-11.08,17.9-22.76Q606.24,375,606.21,48.24ZM602,701.73c0,11.42-7.5,19-18.84,19H187.58c-9.23,0-16.35-5.44-18.24-14a23.16,23.16,0,0,1-.37-4.93q0-163.49,0-327V47.61c0-9,5.37-16,13.86-17.92a19,19,0,0,1,4.33-.39q198.36,0,396.72,0A17.68,17.68,0,0,1,602,47.18c0,1.19,0,2.39,0,3.58ZM333.62,152.66c-3.28-1.83-6.53-1.14-9.47,1.07-4.3,3.23-8.87,5.77-14.39,6.18-1.51.12-3,.37-4.52.59-3.68.54-6,2.62-6.3,5.6a10.67,10.67,0,0,0,2.45,8.53,74,74,0,0,0,6.42,6.47,19,19,0,0,1,7,16.55c-.45,5.58-1.56,11.11-2.35,16.5-5.89,4.66-6.55,8-3.1,14.47a3.27,3.27,0,0,1,.31,2.06c-.4,1.84-1,3.65-1.58,5.75-1.82-.79-3.67-1.48-5.41-2.36-6.54-3.32-10.81-8.21-11.63-15.88a19.76,19.76,0,0,0-2.82-7.55c-2.23-3.84-7.64-4.93-11.81-2.78-3.08,1.59-4.33,5.9-3,10a21.45,21.45,0,0,0,7.35,9.92c8.17,6.65,17.32,11.17,27.83,12.15l2.49,4.12a28.69,28.69,0,0,0-10,10.72,10.67,10.67,0,0,1-3,3.3,21.23,21.23,0,0,0-7.1,8.64,39.39,39.39,0,0,0-3.3,14.81,70.25,70.25,0,0,0,3.77,25.56,44.85,44.85,0,0,1,2.31,10.17c.39,4.27,0,8.6.1,12.9.11,3.85,1.17,7.33,4.42,9.22.74,2.4,1.39,4.47,2,6.55,1.71,5.76,3.64,11.48,5,17.32,1.29,5.51,3,10.69,6.89,14.93.39.42.71.91,1.17,1.51-5,3.57-6.71,8.73-7.43,14.44a33.35,33.35,0,0,1-7.1,17.18A118.66,118.66,0,0,0,290,424.45a19.45,19.45,0,0,0-2.43,13c.19,1.3,0,3.17,1.86,3.27s1.85-1.83,2-3.08c.84-5.64,2.39-11,5.61-15.77,1.33-2,2.7-3.93,4.16-5.81,3.75-4.82,7.54-9.62,8.46-15.93.51-3.47.86-7,1.37-10.43a15,15,0,0,1,4.14-8.07c.54.91.94,1.57,1.34,2.23h-.62a72.58,72.58,0,0,0-1.45,8.71c-.36,8.1,1.94,15.7,4.88,23.14s5.82,14.74,8.68,22c-.7,1-1.13,1.55-1.54,2.15-6.25,9.21-12.36,18.5-17,28.64a33.68,33.68,0,0,0-2,6.42c-.3,1.28,0,2.57,1.57,2.45,2-3.59,3.73-7.08,5.78-10.37,3.7-6,7.59-11.81,11.4-17.71a175.66,175.66,0,0,1,25.43-31.2c5.42-5.26,10.92-10.43,16.4-15.64a97.37,97.37,0,0,0,19.19-24.42,23.44,23.44,0,0,0,3.05-11c0-1.4-.12-2.8-.2-4.4a10.69,10.69,0,0,1,5.54,6.27c2.39,6.13,5.94,11.39,11.63,14.95,3.32,2.08,4.21,5.05,3.42,8.74-1.22,5.65-3.86,10.67-6.8,15.5a78,78,0,0,0-61.83,90c6.69,36.86,37.06,64.5,77.12,64.5,37.49,0,73.56-27.33,77.3-73.31,1.39-17.12-3.17-33.08-12.72-47.21-17.44-25.8-42.3-36.85-72.8-35,1.45-4.19,3.16-8.28,4.27-12.53,1.59-6.1-.44-10.64-5.52-14.3a23.87,23.87,0,0,1-5.21-4.81,55.78,55.78,0,0,1-5-8.31c-2.08-4.13-4.94-7.15-9.72-7.94-.31-4.93-.07-9.66,2.45-14,5,2.1,7.28,1.19,9.37-3.67a34.41,34.41,0,0,0,1.23-3.76c1-3.22,1.74-6.53,3-9.65,2-5.14,3.73-10.3,4.07-15.87.28-4.62-1-6.22-5.55-6.23a8.33,8.33,0,0,1-.87-.12,27.61,27.61,0,0,1,.48-2.8,73.37,73.37,0,0,0,2.66-23.56c-.53-8.92-2.89-16.95-9.41-23.35-2-2-4.2-3.79-6.31-5.67-1-.92-2.2-1.73-3.14-2.74-3.3-3.53-6.53-7.14-9.66-10.58,2.5-1,5.39-2.1,8.25-3.26s6-2.23,8.78-3.7a141.17,141.17,0,0,0,13-7.59c4.21-2.85,7-7,8.81-11.76a16.52,16.52,0,0,0-.3-12.4,5.11,5.11,0,0,0-1.91-2.44,12,12,0,0,0-12.14-.31c-3.46,1.77-4.37,5-4.37,8.52a15.49,15.49,0,0,0,.29,4.15c1.36,4.82-.66,8.52-3.7,11.92-4.19,4.68-9.52,7.76-15,10.57-2.27,1.16-4.7,2-6.91,2.95l-4.2-9.09c2.07-3.12,2.3-6.76,1.62-10.51a11.93,11.93,0,0,0-6.54-8.81c-.56-7.32-3.11-14.08-5.89-20.75a15.33,15.33,0,0,0-3.38-5.27,110.5,110.5,0,0,1-15.26-18c-1.1-1.59-1.59-3.6-2.6-5.27A9.31,9.31,0,0,0,333.62,152.66ZM288.08,226.1l-5.2-7.74c.74-3,.36-4.29-1.33-4.86a2.46,2.46,0,0,0-3.25,1.12c-.84,1.5-.34,2.62,1.78,4.14.79,1.79,1.56,3.53,2.49,5.66-3.25-2.75-5.59-5.69-6.42-9.54a3.7,3.7,0,0,1,1.92-4.39c2.13-1.09,4.7-1,6.06.66a11.33,11.33,0,0,1,2.16,4.14c.93,3.44,1.57,7,2.33,10.43ZM408.93,411.19c.17,1.08.31,1.95.48,3l-4.36.71-.55-3Zm-7.36,1.37c.39,1,.7,1.85,1.11,2.94l-4.57,1.14c-.33-.93-.62-1.76-1-2.88Zm-7.19,2.07c.35,1,.66,1.93,1,2.93l-4.67,1.82c-.3-1-.56-1.82-.89-2.89ZM387,417.71c.47.93.88,1.72,1.38,2.72l-3.88,2-1.14-2.81ZM380.88,421l1.77,2.54-4,2.57-1.68-2.57Zm14.48,25.36a14.86,14.86,0,0,0-3.23-3.94,3.44,3.44,0,0,0-4.43-.11,3.54,3.54,0,0,0-1.39,3.87c.51,3,2.61,5,4.83,6.79a40.06,40.06,0,0,1,4.92,4.32l-10,1.48a10.26,10.26,0,0,1-3.79-8.32c0-5,.44-10,.68-14.83,4.64,1,9.3,1.94,13.87,3.15a11.64,11.64,0,0,1,7.81,5.74l-5.3,10.79C398,452.25,396.85,449.21,395.36,446.33Zm.45,4.82-5.8-7.52C393.38,445,394.56,448.08,395.81,451.15Zm-13.1,8.07-27.92,4.08a66.72,66.72,0,0,1,22.4-31.89l.78.16a79.66,79.66,0,0,1-.05,8.18,28.39,28.39,0,0,0,1.17,12.74C379.92,454.79,381.41,456.86,382.71,459.22Zm-7.34,35.85a15.28,15.28,0,0,0-4.41,1.7,3.73,3.73,0,0,0-1.88,4.57c.65,1.8,2.15,2.43,3.91,2.52,2.66.12,4.86-1.12,6.95-2.54,1.8-1.22,3.51-2.57,5.7-4.2-.65,3.89-1.21,7.27-1.78,10.69-3.27,2.08-6.66,1.73-10,.66-4.21-1.35-8.34-2.94-12.7-4.5.27-.42.59-.87.86-1.35,1.6-2.88,3.21-5.76,4.8-8.66s3.65-5.84,6.87-7.47a21.19,21.19,0,0,1,2.26-.83l7.34,8.22C381,494.21,378.17,494.5,375.37,495.07Zm4.92.86-9,3.47C371.66,497.75,375.36,496.17,380.29,495.93Zm31.14,47.46c2.27,2.29,4,5.14,5.94,7.74-10.94,1.19-29.14-4.75-37.12-11.56l23.66-12.44C403.63,534.09,407,538.92,411.43,543.39Zm-33.8-5.55a67,67,0,0,1-21.94-29.65c3.26-.2,5.82,1.1,8.52,1.88a55.76,55.76,0,0,0,10.18,2.34c2.79.26,5.69-.51,8.56-.82C383.33,514,379,536.68,377.63,537.84ZM360.25,496.4a24.81,24.81,0,0,1-5.8,8.19,67.45,67.45,0,0,1-.12-39.93l19.6,19.12C366.64,485.42,363,490.42,360.25,496.4Zm14.24-71.15,1.71,2.54-3.73,3-1.64-2.53ZM368.58,430l2.28,2.28-3.07,2.63c-.58-.53-1.23-1.14-2-1.8Zm-4.88,5.06,2.32,2c-1.14,1.35-2.19,2.59-3.34,4l-2.36-1.8Zm-5.17,6.49,2.41,1.74-3.5,5.4-2.39-1.84Zm-4.86,7.87,2.51,1.41c-.52,1.09-1,2.11-1.58,3.35l-2.6-1.42Zm-2.85,5.88,2.59,1.29c-.58,1.55-1.12,3-1.74,4.69l-2.76-.93Zm-2.89,8,2.76.83-1.54,6-2.79-.47C346.89,467.51,347.39,465.51,347.93,463.31Zm-2,9,2.76.69c-.2,1.37-.37,2.58-.56,3.91l-2.65-.55C345.6,475,345.74,473.78,345.91,472.31Zm-.78,7.29h2.77c-.14,1.7-.27,3.36-.42,5.2l-2.74.12C344.87,483.1,345,481.43,345.13,479.6Zm-.08,8.3h2.68c.15,1.85.29,3.6.46,5.62l-2.8.19C345.27,491.63,345.16,489.83,345.05,487.9Zm.8,8.59,2.68-.29c.28,1.32.54,2.56.82,3.92l-2.61.81C346.42,499.35,346.16,498,345.85,496.49Zm1.49,6.69,2.48-.75c.42,1.33.8,2.56,1.26,4l-2.7.58Zm2.26,7.31,2.53-.85,1.79,4.25-2.49.93C350.82,513.36,350.25,512,349.6,510.49Zm3.15,7.16,2.41-1.22c.48,1,.91,1.81,1.43,2.83l-2.31,1.21C353.73,519.46,353.29,518.66,352.75,517.65Zm2.93,5.28,2-1.76,2.68,4.15-2.09,1.61Zm7.36,10-3-3.6,2-1.8,3.18,4Zm4.75,4.76L364.93,535l2-1.77,2.08,2.45Zm6.1,5.49-4.79-3.93,1.6-2.08,4.61,3.91Zm6.36,4.36-4.06-2.64c.51-.71.94-1.31,1.49-2.06l4.1,2.6Zm7.12,3.89-5.14-2.68,1.41-2.14,4.72,2.39C388,549.82,387.74,550.48,387.37,551.4Zm6.7,2.68-4.67-1.78c.32-.81.57-1.46.92-2.36l4.71,1.79Zm8.62,2.49L396.58,555l.55-2.4,5.8,1.42C402.85,554.85,402.78,555.55,402.69,556.57Zm1.67.32c.23-.91.39-1.53.6-2.38l5.17.74c0,.82.08,1.5.13,2.58Zm8.21,1.12v-2.66l4.69.53c0,.7.08,1.38.13,2.37ZM419,544.86c-2.8-3.13-5.78-6.36-8.64-9.7a14.68,14.68,0,0,1-3.87-9.34l10.5-5.55c-.58,2.81-1.18,5.48-1.66,8.18a15.61,15.61,0,0,0-.18,3.55c.12,2.75,1.7,4.58,3.92,4.68,1.88.08,3.83-1.69,4-4.2a29.18,29.18,0,0,0-.57-6.64,46.77,46.77,0,0,0-1.58-5.37l9.25,4.83c.75,3.68-.7,6.68-2.83,9.39C424.53,538.22,421.61,541.63,419,544.86Zm-1-20.15v10.08C415.86,531.19,417,528,418,524.71ZM424,546.06c1.93-2.67,4.2-5.12,5.93-7.92a16.37,16.37,0,0,0,2.64-11.52l24.8,13a67,67,0,0,1-37.06,12.14C421.75,549.59,422.8,547.76,424,546.06Zm34.68-44.14a17.87,17.87,0,0,0,4.91,1.38,3.42,3.42,0,0,0,3.78-2.3,3.66,3.66,0,0,0-1.19-4.29c-2.11-2-4.84-2.34-7.55-2.56-1.68-.13-3.38,0-5,0l6.63-7.36a8.8,8.8,0,0,1,6.5,3.87c3,4.22,5.76,8.63,8.49,12.77-3.85,1.7-7.6,3.45-11.43,5-3.08,1.25-6.28,2.07-9.91,1.06-.63-3.65-1.26-7.33-1.93-11.18C454.39,499.59,456.48,500.91,458.72,501.92Zm-2.94-3.59L464.7,501C463.27,502.15,458.42,500.74,455.78,498.33Zm4.44-52.53c-.13-2.11-.65-4.2-.73-6.3-.1-2.6.07-5.21.12-7.82l.84-.16a67.59,67.59,0,0,1,22.26,31.76l-26.62-3.86C459.66,455.4,460.52,450.74,460.22,445.8Zm22.57,58.81a52.32,52.32,0,0,1-3.85-4.23c-1.44-2-2.56-4.18-4-6.19-3-4.33-6.61-7.94-12.38-9.47l19.9-19.42C486.94,469.16,487.13,495,482.79,504.61Zm-.7,2.8a67.59,67.59,0,0,1-23.15,31.14c-1.51-8.8-3-17.24-4.46-26,6.42,1.91,11.9.29,17.3-2.5a41.6,41.6,0,0,1,7.51-2.49A13.6,13.6,0,0,1,482.09,507.41Zm-61.31,50.84c0-.84-.1-1.52-.16-2.41l5.05-.49c.06,1,.1,1.67.16,2.59Zm7.19-.49c-.06-1-.1-1.68-.15-2.51l3.91-.6c.29.75.55,1.39.92,2.34Zm6.89-1.18-.79-2.37,4.53-1.27.6,2.48Zm6.61-1.76c-.32-1-.53-1.71-.78-2.5l6.11-2.24c.43.68.82,1.28,1.39,2.16Zm8.53-3.39-1.09-2.37,4.07-2,1.39,2.14Zm6.21-3.3-1.14-2.3c1.39-.89,2.74-1.77,4.23-2.74l1.51,2.08Zm7.2-4.88-1.66-1.84,4.27-3.66,1.7,2Zm5.84-5.17-1.6-1.38,3.19-3.2,1.54,1.74C471.31,536.22,470.32,537.12,469.25,538.08Zm5.15-5-2.14-1.57,3.31-4.11,2.07,1.57Zm4.91-6.3-2.06-1.7,2.76-4.33,2.17,1.59C481.21,523.87,480.33,525.22,479.31,526.81Zm4.06-6.51-2.44-1.11c.72-1.43,1.31-2.59,2-3.9l2.25,1.42Zm2.87-5.87-2.38-1.14,1.58-4.06,2.46,1.23C487.3,511.89,486.81,513.08,486.24,514.43Zm2.75-7-2.5-1.08,1.51-5.54,2.56.9Zm2-7.87-2.69-.43c.25-1.4.48-2.71.75-4.16l2.69.26C491.52,496.7,491.28,498,491,499.51Zm1.07-7-2.7-.17c.17-1.82.32-3.55.49-5.38h2.77C492.47,488.86,492.29,490.59,492.1,492.53Zm.67-8.09H490c-.17-2.06-.34-4.13-.53-6.41h2.85C492.48,480.17,492.62,482.23,492.77,484.44Zm-.76-9.13-2.75.53c-.23-1.49-.43-2.77-.66-4.31l2.74-.55C491.57,472.48,491.77,473.81,492,475.31Zm-1-6.46-2.77.6L487,464.64l2.68-.95C490.1,465.49,490.52,467.09,491,468.85Zm-2.13-7.93-2.71,1-1.95-5,2.61-1.17C487.48,457.5,488.12,459.11,488.84,460.92Zm-2.95-7.35-2.6,1.36c-.73-1.42-1.38-2.7-2.14-4.17l2.56-1.51Zm-3.39-6.52-2.44,1.76-2.58-4.15,2.41-1.67C480.77,444.37,481.6,445.65,482.5,447.05Zm-4.09-6.24L476,442.53l-3.38-4.19,2.15-2.12Zm-8.81-9.76,3.61,3.32-2.42,1.84-3-3.31Zm-5.42-4.91,3.65,3.11-2,2.19-3.71-3Zm-7.07-4.85,5,3.21-2,2.32-4.67-3Zm-5.87-3.24,3.91,2.12c-.54.9-1,1.61-1.51,2.53l-3.71-1.82Zm-7.83-3.23,5.33,2-1.05,2.9-5.2-2C442.78,416.82,443,416,443.41,414.82Zm-7.21-2.21,5.07,1.45c-.29,1.07-.51,1.88-.79,2.93l-4.89-1.32C435.79,414.67,436,413.8,436.2,412.61ZM429,411.26l4.73.83c-.18,1-.33,1.9-.52,3l-4.62-.79C428.75,413.28,428.87,412.4,429,411.26Zm-8.86-.76,6.4.5c-.16,1.14-.28,2-.43,3.11l-6-.5Zm37.5,19.35c-3.34,1.08-6.28,2-9.2,3a81.58,81.58,0,0,0-7.82,2.79,15.28,15.28,0,0,0-8.22,7.95l-13-26.26C427.61,415.54,450.58,422.93,457.66,429.85Zm-9.46,21.38a14.75,14.75,0,0,0,2.59-4,3.57,3.57,0,0,0-1.12-4.47c-1.43-1.17-3-.88-4.47,0-2.49,1.44-3.66,3.91-4.64,6.46-.72,1.9-1.33,3.85-2.19,6.35l-4.73-9.51a8.49,8.49,0,0,1,5.32-5.39c5.16-1.76,10.44-3.18,15.43-4.68.49,4.48,1.05,8.79,1.4,13.13a14,14,0,0,1-2.45,9.83l-11.64-1.62C444,455.19,446.21,453.32,448.2,451.23Zm-4.4,1.87c1.86-2.78,3.52-5.27,5.14-7.68C449.5,447.12,447.05,451,443.8,453.1ZM436,461.2l38.64,5.61c-9.51,9.27-18.68,18.22-27.93,27.26,2.16,12.67,4.31,25.29,6.56,38.47l-34.54-18.13-34.53,18.13c2.25-13.17,4.39-25.75,6.56-38.46l-28-27.26,38.65-5.63,17.27-35C424.59,438,430.26,449.51,436,461.2Zm-23.9-50.28,5.13-.45v3.1l-5.13.47Zm6.09,6.06c-4.2,8.48-8.17,16.5-12.23,24.73a40.45,40.45,0,0,0-2.91-3.68c-3.43-3.42-7.81-4.73-12.44-5.6a78.32,78.32,0,0,1-8.18-2.31,13.75,13.75,0,0,1-2-1.07C391.88,421.21,404.22,417.47,418.22,417Zm-18-197.7c2.18-3.35,3.28-6.87,2.07-10.92a17.27,17.27,0,0,1-.51-4.72c0-4.18,3.23-6.7,7.32-5.77,3.75.85,5.1,2.71,4.68,7.6-.51,5.86-4,10.11-8.54,13.63a20.43,20.43,0,0,0,1.76-2.73c1.16-2.63,2.2-5.32,3.29-8a17.38,17.38,0,0,1,.86-2.14c1-1.74.85-3.5-.47-4.48a3.18,3.18,0,0,0-4.16.45,3.21,3.21,0,0,0-.18,4.48c.24.31.51.59.88,1-1.59,5.59-4.16,10.59-8.83,14.32C399,221.1,399.59,220.2,400.19,219.28Zm-85.56-1.8c.64-3.7,1.41-7.37,2.21-11,1-4.6,2-9.2,1.14-13.95a23.46,23.46,0,0,0-8.56-14.56,52.85,52.85,0,0,1-5.25-5.12,8.74,8.74,0,0,1-1.63-2.7c-1.65-4.14-.29-6.16,4.14-6.35,2.3-.1,4.61-.3,6.86-.45l2.63,8.93a11.5,11.5,0,0,0-3.43-.93,3.4,3.4,0,0,0-2.58,1.46,2.83,2.83,0,0,0,1,2.55c3,1.55,6.08,2.8,9.14,4.16l.29-.47,1.77,2.54c-1.33,0-2.29-.06-3.24,0-1.34.1-2.48.84-2.32,2.18a3.07,3.07,0,0,0,1.91,2,70.38,70.38,0,0,0,7.06,1.27c.35,1.07.75,2.3,1.26,3.91-1.47-.32-2.6-.63-3.74-.79a5.38,5.38,0,0,0-2.5.07,2.29,2.29,0,0,0-1.15,1.6,2,2,0,0,0,1,1.49,22,22,0,0,0,3.36,1c-.43,1.31-.9,2.71-1.31,4l-3.57,2c.61,2.53,2.1,2.5,3.77,2.14.29,1,.56,1.82.78,2.57-4.79,4.22-8.78,8.69-8.16,15.64l-.61,0A11.72,11.72,0,0,1,314.63,217.48Zm2.49,24.68-1.75.76c-4.34-4.18-4.89-6.44-2.66-10.7l3.56,2C315.7,236.84,315.28,239.58,317.12,242.16Zm-.75,3.85c1.57-2.61,5.46-1.87,8.66-.39,1.78.82,3.57,1.62,5.41,2.29a4,4,0,0,0,1.64,0c5.26-4,9.94-7.69,16.35-7.7a8.26,8.26,0,0,1,8.24,6.46c1.89,7.66-.28,14.24-5.5,20a2.69,2.69,0,0,1-.76.63c-8.73,4.25-17.78,6.64-27.44,3.77-4.63-1.37-7.11-5.19-8.82-9.37C311.87,256.12,313.41,251,316.37,246Zm14.76-10,4.09,5.65-3.84,3.63-3.7-2.43Zm-11.4,3.18-.65-.2c.14-1.21.23-2.42.43-3.61s.53-2.56.92-4.41l8,2.77Zm10.69-8.59-4.54-6.67c2.69-1.91,7.54-2.79,9.86-1.59ZM328.27,219c-1.9,1.12-4.89,1.09-5.59,4s1.58,4.26,3.11,6.1c-3.38-.24-7-5.05-7.1-9.38-.11-5.56,4.81-12,10-12.07-.25,1.87-.64,3.71-.71,5.57S328.15,216.93,328.27,219Zm3.61,14.89,9.69-6.56,3,9C339.87,237.78,336.22,235.56,331.88,233.85Zm8.41-8.62-3,1.52c.82-2.39,2.85-4.39.94-6.79-1.67-2.1-4.05-1.91-6.51-1.78a19.26,19.26,0,0,1,.28-11.47,9.44,9.44,0,0,1,9.27,3.63C345.19,215.37,343.38,220.27,340.29,225.23Zm-4.85-22.66-9.31,1.4c-.64-3-.68-6.1,1.5-8.81s5-2.57,6.92.35A8.51,8.51,0,0,1,335.44,202.57Zm-24.34,17.9,6.29,8.24-.63,2.6C313.5,229.66,310.22,223.09,311.1,220.47Zm-15.32,87.37a4.9,4.9,0,0,1-.24-.52c-3.93-10.35-5.6-21-3.61-32,1.06-5.88,3.63-11,8.72-14.64a12.57,12.57,0,0,0,3.24-4.18,26.81,26.81,0,0,1,7.37-8.51c-3,8.26-2.13,15.35,4,21.74-5.19-.15-8.83,2.09-11.75,5.67a23.89,23.89,0,0,0-5.23,11.86c-.71,5.1-.89,10.27-1.35,15.41A18.14,18.14,0,0,1,295.78,307.84Zm3.15,27.78c-3.32-5.52-1.08-11.66-1.73-17.48C300.09,323.74,300,329.63,298.93,335.62Zm86.49,38.89a122.21,122.21,0,0,1-19.86,24.68q-13.65,13-27.16,26.21c-2.35,2.3-4.37,5-6.79,7.72-.34-1.16-.54-2.09-.88-3-2-5.11-3.89-10.27-6-15.32-3.22-7.53-5.82-15.2-6.13-23.48,0-.92,0-1.84,0-2.35,3.31,4.43,7.07,8.93,10.21,13.82s5.64,10.09,8.42,15.17l.71-.13c.54-1.11,1.09-2.22,1.61-3.34a39.45,39.45,0,0,1,9.34-13.17c2.6-2.36,4.52-5.46,6.75-8.22a6.71,6.71,0,0,1,1.2-1.29c7.08-5,14.19-10,21.24-15a9,9,0,0,0,2.67-2.83c1.94-3.52,3.67-7.15,5.46-10.7C386.73,367,387.84,370.56,385.42,374.51Zm-53.82-8.8a10.8,10.8,0,0,0,7-.4c5.34-1.92,10.2,0,14.67,2.68,1.19.7,1.84,2.9,2.06,4.51a24.51,24.51,0,0,1-2.43,13.7c-2.15,4.62-6.85,5.68-11.32,4a5,5,0,0,1-3.34-5.36,54.07,54.07,0,0,1,1.61-7.68,7.54,7.54,0,0,1,.59-1.35c-1.12-1.16-6.42-1.06-8.09.21a10.85,10.85,0,0,0,.71,1.82c2.15,3.37,1.49,6.73-.11,10a3.76,3.76,0,0,1-4.2,2c-5.07-.72-9-5-8.74-9.9a27.6,27.6,0,0,0-.2-4.16C319.19,369.79,324.18,363.59,331.6,365.71Zm-4.73-2.9,1.06-2.17h1.94c-.12.68-.23,1.28-.35,2Zm4.55-.56,2.37-1.58.49.63c-.12.69-.24,1.38-.38,2.24l-2.25-.7C331.57,362.64,331.49,362.44,331.42,362.25Zm4.5.71c.42-.85.85-1.7,1.28-2.56l.68.2c.16.66.33,1.31.52,2.08l-2.07.64Zm3.94-2.64,1.87-.27c.29.83.51,1.49.79,2.3h-2.37C340.05,361.66,340,361,339.86,360.32Zm4.24-.2,1.61.29c.19.79.35,1.48.56,2.34h-1.91C344.28,361.91,344.2,361.16,344.1,360.12Zm6.1,32.61c-.35,1.53-.63,2.76-.92,4l-.53-.11c-.09-1-.18-2-.29-3.32Zm-5.22,4.1c-.08-1-.33-1.91-.53-3h2c-.27,2.14-.51,4.1-.76,6.07l-.72-.16C345,398.76,345.07,397.78,345,396.83ZM341,404.17V393.62C343,395.33,342.9,402.29,341,404.17Zm-3.19,5.77c-.22-6.16-.45-12.32-.69-19C339.34,397.53,338.45,403.74,337.85,409.94Zm-2.72-3.07c-2.58-4.32-2.94-14.15-.67-15.68C334.68,396.32,334.89,401.34,335.13,406.87Zm-6.13-13c0-.32.57-.71.88-1.07l.5.25c-.15,1.61-.31,3.22-.48,5.1C327.81,396.86,329.16,395.21,329,393.85Zm77.1-85.5c1.57,2.63.91,5,.36,7.28-.78,3.2-2,6.31-3,9.45q-1.75,5.37-3.53,10.73c-.52,1.57-.94,3.18-1.59,4.69-1,2.37-2.07,2.77-4.57,2l-2.51-.82a26.75,26.75,0,0,0-2.79,4.35c-2.62,6.43-5,13-7.61,19.4a78.23,78.23,0,0,1-3.54,7.1,4.59,4.59,0,0,1-1.41,1.62c-5.86,3.94-11.75,7.83-17.61,11.73.44-2.18.9-4.56,1.42-6.93,2.46-11.19-5.07-18.85-13.21-21a16.7,16.7,0,0,0-8.62.33,10.32,10.32,0,0,1-5.82-.21c-5.2-1.57-9.29.74-12.82,4.32-3.32,3.36-3.15,7.67-3,11.93,0,1.08.25,2.16.44,3.69-4.36-4.6-7-9.46-7.95-15.26a89.12,89.12,0,0,0-6.11-20.09,14.38,14.38,0,0,1-.63-5.39c0-4.22.6-8.47.23-12.65-.28-3.22-1.59-6.36-2.56-9.5a14.53,14.53,0,0,1-.23-7.82,33.58,33.58,0,0,0,.53-4.72c.38-4.8.42-9.67,1.21-14.41a30.9,30.9,0,0,1,3.29-8.86c2.24-4.27,6.23-6.19,10.89-6.63,1.13-.11,2.31.48,3.47.68,4.81.86,9.59,2,14.44,2.45s9.29-1.08,13.69-2.86c5.28-2.15,10.61-4.29,16.45-4a24.46,24.46,0,0,1,6.17,1.27,4.58,4.58,0,0,1,2.1,1.93c3.2,5.12,4.05,11,5.21,16.77.45,2.27.76,4.57,1.16,6.85.66,3.75,2.94,5.92,6.58,6.85a31.2,31.2,0,0,1,3.32,1.25c2.32,6.84,2.21,13.8,1.48,20.59s-2.64,13.41-4,20.11l.6.31,5.89-11.71a20.29,20.29,0,0,0,2.8,2.77c.45.31,1.4-.14,2.35-.28a9.37,9.37,0,0,0-.67-1.57c-2.69-3.48-2.53-7-.3-10.65a3,3,0,0,1,1.36-1.35c2.48-.71,3.14-2.65,3.48-4.82.39-2.54.71-5.09,1.07-7.77Zm-29.82-66.88a8.16,8.16,0,0,1,2.35,2.09c1.93,2.19,3.71,4.5,5.69,6.63a18.73,18.73,0,0,0,3.79,3.15c9.51,5.91,14.05,14.58,15,25.58a64,64,0,0,1-1.82,21.62c-1.32,5.23-2.28,10.54-3.41,15.82-.16.7-.4,1.38-.52,1.78l-3.94,2.16c-.15-1.88-.34-3.76-.44-5.65-.33-6.49-2-12.28-8.2-15.69-2.17-1.19-2.95-3.18-3.43-5.49q-1.67-8-3.61-15.85c-.88-3.57-3.11-6.43-5.6-9-3.79-3.92-8.64-4.16-13.67-3.41l-2,.31c5.65-11.83,6-15,2.28-24C364.65,239.52,370.46,238.73,376.28,241.47Zm-10.55-28.64c2.09,4.13,1,9.41-2.53,11.88-2.31,1.63-4.83,3-7.25,4.44-.51.31-1,.66-1.67,1.09,2.14.95,6.77-.26,11.3-2.84l3.55,7.42-12,4.43-9.31-3.37-3.58-11c2.57-1.25,5.13-2.57,7.76-3.76a27.36,27.36,0,0,1,4.47-1.6C360.45,218.52,363.7,216.59,365.73,212.83ZM351.2,181.71a12.45,12.45,0,0,1,2.23,2.76,66.94,66.94,0,0,1,7.09,21.79c.26,2,.72,4,1.19,6.56a23.59,23.59,0,0,1-3.5,2.2c-3.71,1.56-7.49,2.94-10.89,4.26-.5-3-.62-6.23-1.68-9.16-1.12-3.11-3.85-5.12-6.85-6.4v-4.11a59.8,59.8,0,0,0,5.8,2.08,8.39,8.39,0,0,0,3.89.05c2.35-.56,3-2.5,1.28-4.12a13.42,13.42,0,0,0-4.76-2.47,8.37,8.37,0,0,0-3.35-.05c-1.11.1-2.2.38-3.2.57L335,190.75c1-.34,2-.63,3-1.08a44.28,44.28,0,0,0,4.25-2.12c1.31-.75,2.11-1.77,1.37-3.44s-2-2-3.59-1.61a18.47,18.47,0,0,0-8.51,5.26,17.61,17.61,0,0,0-1.43,1.92c-.5-1.63-.83-2.67-1.27-4.1a32,32,0,0,0,4.09-3.83,25.73,25.73,0,0,0,3.2-5.64,3.06,3.06,0,0,0-.41-2.83,3.58,3.58,0,0,0-3.06-.13,10,10,0,0,0-4.9,5.76c-.36.92-.64,1.87-1.09,3.16l-1.7-2.23c.85-3.62,1.69-7.15,2.52-10.69.12-.51.2-1,.3-1.56.3-1.53.33-3.11-1.43-3.64s-2.89.81-3.31,2.18c-.84,2.66-1.3,5.44-1.91,8.14a25.36,25.36,0,0,1-5.28-10.68c4.06-2.64,7.87-5.2,11.76-7.63a3.89,3.89,0,0,1,6.05,2C337.25,167.54,344.27,174.58,351.2,181.71Zm-156.44,490V418.78l-4.2,3.12V675.27c12.57,2.25,21,8.47,21.87,22.2.47,0,.92.12,1.38.12,38.95,0,77.9-.07,116.85.07,3.59,0,5.12-2.27,7.2-4.44H216.12C213.37,681.68,207,674.06,194.76,671.71Zm385.66,3.83V421.86l-4.29-3.17V671.75c-12.2,2.27-18.56,10-21.25,21.59H432.66c2.63,2.48,4.65,4.64,8.41,4.32,4.6-.39,9.26-.1,13.9-.09H556.92c.58,0,1.15-.08,2-.14-.65-6.21,1.95-11,6.15-15.13A23.28,23.28,0,0,1,580.42,675.54ZM577.08,76.4v243l4.13-3.05V72.85c-12.5-2.31-20.93-8.43-21.83-22.3h-3.85q-57.54,0-115.07-.06c-3.32,0-4.57,2.44-6.49,4.36H555.7C558.36,66.48,564.82,74.16,577.08,76.4ZM191.38,316.32l4.2,3V76.16a21.4,21.4,0,0,0,14.22-7.09,25.75,25.75,0,0,0,7-14.28H339c-2.54-3.13-5.23-4.67-9.12-4.33-4.27.37-8.6.08-12.91.08l-102.15,0a13.49,13.49,0,0,0-1.58.15c-.92,13.83-9.39,19.92-21.81,22.17ZM355.63,125.83h59.52V76.19H355.63Zm4.24-45.42H411v41.17H359.87ZM444.8,342.2c.28.22.33.28.39.29l1.36.22c5.74.87,11.29,2.27,16.13,5.71a9.12,9.12,0,0,1,4,6.37c.92,6.15,1.93,12.29,2.92,18.43.38,2.34.82,4.67,1.23,7a1.38,1.38,0,0,0,.64-1c1.26-7.91,2.6-15.81,3.73-23.74a9.92,9.92,0,0,1,4.14-7.12A31.22,31.22,0,0,1,491,343.54c1.89-.41,3.8-.73,5.7-1.09a9.1,9.1,0,0,0-3.2-1,36.66,36.66,0,0,1-12.69-4.4c-2.82-1.7-5-3.87-5.49-7.36-1.18-7.92-2.46-15.82-3.71-23.73-.09-.58-.26-1.14-.4-1.71a3.23,3.23,0,0,0-.7,1.59c-1.24,7.65-2.59,15.27-3.64,22.94a10.07,10.07,0,0,1-5.35,8.08,46.34,46.34,0,0,1-7.63,3.29C451,341,448,341.5,444.8,342.2Zm-158,312.26a17.93,17.93,0,0,0,1.84,3.66l3.09-1.27c.47-6.3,1-12.61,1.39-18.94.28-5.22.34-10.46.41-15.69,0-1.35,0-2.86-2.22-3.42a9.38,9.38,0,0,0-1.13,2.4c-.37,2.56-.62,5.13-.77,7.71-.31,5.44-.52,10.88-.78,16.33a2.34,2.34,0,0,1-.71-1.24c-2.09-7.52-4.16-15-6.28-22.56a12.69,12.69,0,0,0-1.17-2.29l-.92.06a29.17,29.17,0,0,0-.76,4.2c-.32,9.66-.56,19.33-.81,29a11.66,11.66,0,0,0,.21,3.35c.22.77,1,1.39,1.53,2.08l.91-.19a16.67,16.67,0,0,0,.83-3.61c.08-5.83,0-11.66,0-17.49V632.8a10.22,10.22,0,0,1,1.23,3.46C284.06,642.33,285.36,648.41,286.82,654.46ZM417.7,632.24q1.83,8.21,3.68,16.41a68.58,68.58,0,0,0,1.87,7.7c.3.85,1.74,1.31,2.65,1.95.49-.84,1.38-1.66,1.41-2.52.4-10.32.69-20.64,1-31a12.93,12.93,0,0,0-.3-3.16,5.73,5.73,0,0,0-1-1.61l-.66.05a8,8,0,0,0-.82,2,52.74,52.74,0,0,0-.41,5.74c-.05,5.4,0,10.79,0,16.18l-.37-.07-7.83-23.38c-2.13,0-2.91.75-3.12,2.13a17.25,17.25,0,0,0-.33,2.56c0,6-.05,11.92,0,17.88.05,4,.21,7.94.4,11.91.07,1.35.05,2.88,1.87,3.29,1.54-.37,1.67-1.53,1.64-2.78q-.24-10.93-.45-21.86a12.94,12.94,0,0,1,.13-1.37Zm-41-5.12c0,2.15.05,4.31,0,6.46-.19,7.81-.42,15.62-.62,23.43-.05,2.13.74,3.46,2,3.27,1.95-.29,1.68-1.89,1.74-3.26,0-.33,0-.66,0-1v-8.5c7.24-1.41,10.71-6.53,13.31-12.49a12.7,12.7,0,0,0,.56-8.57c-1-3.57-3.21-6-7-6.42a61.83,61.83,0,0,0-7,0l-1.7-2c-.57,1.82-.94,3-1.32,4.24l-1.89,1.41a13.83,13.83,0,0,0-5.13,7.36,8.35,8.35,0,0,0,.17,2.56l.65.08,5.61-6.88Zm3.23-2.35a7.85,7.85,0,0,1,7.11-.24c2.29,1.12,2.66,3.28,2.66,5.57,0,5.7-4.47,12-9.77,13.46ZM251.19,649.19c.94,2.75,2,5.47,3.17,8.12.26.58,1.32.8,2,1.19.4-.75,1.2-1.54,1.13-2.24a18.06,18.06,0,0,0-1.19-4c-2-5.73-4.08-11.45-6.14-17.2,2.17-4.45,4.37-8.9,6.47-13.39a12.25,12.25,0,0,0,.58-3l-1.12-.54a12.22,12.22,0,0,0-2.08,2.25c-2.46,4.38-4.82,8.82-7.22,13.24-.34.63-.66,1.27-1,1.9a9.55,9.55,0,0,1-.3-2.75c0-4,0-7.94-.15-11.9,0-1.39-.37-2.71-2.59-2.2a9.47,9.47,0,0,0-.63,2.32q-.39,16.77-.67,33.55a4.49,4.49,0,0,0,.28,1.94,11.35,11.35,0,0,0,1.37,1.91h.78a8.27,8.27,0,0,0,1.21-2.58,49,49,0,0,0,.22-8.12c-.25-3.12,1.42-5.33,2.89-8.14C249.27,643.06,250.15,646.15,251.19,649.19Zm90.87-17.73a13,13,0,0,0-1-2.91,36,36,0,0,0-1.92-5.64c-2-3.67-5.6-4-7.87-.46a24.44,24.44,0,0,0-3.83,8.78,58.26,58.26,0,0,0-.53,13.59,19.26,19.26,0,0,0,4.37,11.69c2.1,2.39,4.82,2.5,6.75,0a16.74,16.74,0,0,0,2.5-4.68C342.86,645.2,342.92,638.35,342.06,631.46Zm-3.17,1.13a41.11,41.11,0,0,1-1.6,17.22,25.26,25.26,0,0,1-2.22,4.2l-.85,0a17.16,17.16,0,0,1-1.71-3.14,39.16,39.16,0,0,1,.31-23.4,22.15,22.15,0,0,1,2.2-4l1.08,0,3.09,5.33-.32.07A32.43,32.43,0,0,0,338.89,632.59Zm-38.78,22.79c1.55,3.51,5.48,3.89,8.18,1.16,3-3,4-6.9,4.3-11a2.27,2.27,0,0,0-1.94-2.6,27.83,27.83,0,0,0-4.73-.43,2.3,2.3,0,0,0-2.42,2.39,2.47,2.47,0,0,0,2.17,2.85c.89.16,1.81.18,3.39.33a50.33,50.33,0,0,1-3.22,4.77c-.94,1.11-2.07.79-2.7-.49a14.34,14.34,0,0,1-1.2-3.34,46.74,46.74,0,0,1,1.29-22.56c.34-1.2,1.4-2.19,2.1-3.23,2.58,1,3.15,2.73,3.56,4.68a22.27,22.27,0,0,0,1.26,3.18c2.67-1.85,2.15-3.82,1.77-5.64-.7-3.41-3.28-6.14-5.78-6.35s-5.07,2.08-6.26,5.53a45.62,45.62,0,0,0-2.31,21.5A34.9,34.9,0,0,0,300.11,655.38Zm144.63,4.51c2.22.63,2.19-1.58,2.56-2.94.76-2.78,1.38-5.61,2.08-8.49h5.79c.15.79.29,1.49.41,2.21.39,2.28.65,4.59,1.22,6.83.17.66,1.18,1.11,1.81,1.66a7.82,7.82,0,0,0,1.43-2,5.93,5.93,0,0,0-.19-2.34c-.58-4.12-1.23-8.24-1.76-12.37-.83-6.56-1.56-13.14-2.4-19.7a13.93,13.93,0,0,0-1-2.76l-.76-.05a9.62,9.62,0,0,0-1.22,2c-.85,2.71-1.63,5.45-2.34,8.2-1.22,4.72-2.37,9.47-3.48,14-1.57.95-4.1-.15-4.08,2.36,0,.8,1.5,1.58,2.31,2.36l.6-.14c-.58,2.5-1.19,5-1.72,7.51C443.75,657.51,442.72,659.33,444.74,659.89Zm8.45-27.17.45,0,1.14,11.07h-4.24C451.43,640.06,452.31,636.39,453.19,632.72ZM346.29,50.48c3.15.66,6.36,1,9.67,1.53a12.15,12.15,0,0,0-1.27,3.1,5.77,5.77,0,0,0,.47,3.62c.9,1.31,2.52.88,3.8.24a15.27,15.27,0,0,0,7.88-8.51,10.77,10.77,0,0,0,.56-4.07c-.22-4.73-3-8.19-6.09-11.4a7.7,7.7,0,0,0-2.11-1.45c-2.37-1.15-4.47.1-4.2,2.69a22.33,22.33,0,0,0,1.5,4.86,8.54,8.54,0,0,0,.64,1.29c-3.72.51-7.37.9-11,1.57-1.69.31-3.64.8-3.89,3.07C342.11,48.48,343.63,49.92,346.29,50.48Zm10.76,6.31c.32-2.33,1.62-3.88,3-5.43l3.71-.75C363,53.15,360.06,56,357.05,56.79Zm6.75-12.93a3.36,3.36,0,0,1-.56,0l-2.81-.65-2.88-6.49C360,37.34,363.08,41,363.8,43.86Zm1,3.44a37.63,37.63,0,0,1-19.34-.09C348.35,45,361.22,45,364.83,47.3ZM225.41,654.17a3,3,0,0,0,4-.65,43,43,0,0,0,5.77-7.19c4.73-8.19-2.23-16-7.93-17.94-2.49-.86-4.26.88-3.61,3.43a36.63,36.63,0,0,0,1.62,4.13,24.58,24.58,0,0,0-2.71.14c-2.79.46-5.6.86-8.34,1.56-1.39.35-2.74,1.26-2.71,3s1.4,2.45,2.76,2.7c3.49.62,7,1,10.53,1.51a12.93,12.93,0,0,0,1.65,0c-.78,1.9-1.58,3.5-2.09,5.19C223.88,651.57,223.86,653.18,225.41,654.17Zm2-3-.56-.29,2.72-6.33,3.74-.86A17.66,17.66,0,0,1,227.45,651.13Zm5.72-14-4.26-.87L225.84,631C228.87,631.41,231.63,633.86,233.17,637.11ZM215,640.83a30.08,30.08,0,0,1,18.69-.21C227.5,642.69,221.27,642.44,215,640.83Zm210.53,56.81c-3.16-.63-6.37-1-9.72-1.55.43-1,.91-1.91,1.28-2.88.49-1.34.87-2.73-.37-3.88s-2.76-.82-4.08-.12a15.29,15.29,0,0,0-7.56,8.09,11.78,11.78,0,0,0-.68,4.45c.15,4.6,2.82,8,5.84,11.13,2,2.12,4.06,2.64,5.42,1.7s1.62-3,.52-5.67c-.49-1.18-1.08-2.31-1.51-3.2,3.72-.5,7.33-.85,10.89-1.53,1.74-.33,4-.81,3.9-3.22C429.39,698.72,427.38,698,425.54,697.64Zm-10.8-6.57c-1.27,4.85-2.69,6.24-6.95,6.29A13.63,13.63,0,0,1,414.74,691.07Zm-1.55,20.71-5.62-7.07.41-.54,3.38.75c.9,2,1.83,4.16,2.77,6.28Zm-6.21-11a37.52,37.52,0,0,1,19.34.09C423.42,703.16,410.55,703.09,407,700.81ZM179.23,345.66c8.12,5,15.71-1,18.36-7.19a3.84,3.84,0,0,0-.52-3.39c-.56-.64-2.15-.65-3.22-.48a15.18,15.18,0,0,0-3.34,1.3c-.55-3.41-1-6.69-1.63-9.9-.37-1.75-1.13-3.65-3.3-3.69s-2.76,1.95-3.07,3.59c-.7,3.67-1.13,7.4-1.67,11.12-1.46-.59-3.12-1.39-4.87-1.92-1.42-.42-3-.42-3.94,1a3,3,0,0,0,.56,4A40.68,40.68,0,0,0,179.23,345.66Zm16.08-8.51c-1,3.31-3.36,5.11-6.1,7C189.2,339.48,191.46,338,195.31,337.15ZM184.9,325.5c2.5,2.62,2.76,15,.42,19.47C183.46,338.24,183.76,332,184.9,325.5Zm-3.19,15.16c.24,1.06.46,2.07.69,3.08l-.45.48-7.32-5.65C176.39,337.85,177.82,338.34,181.71,340.66ZM357.22,688.81c-2.49-.85-4.26.9-3.59,3.46a41,41,0,0,0,1.65,4.24,18.48,18.48,0,0,0-3,0,72,72,0,0,0-8.68,1.88,3.65,3.65,0,0,0-2,2.77c0,.81,1.22,2,2.16,2.42a16.21,16.21,0,0,0,4.77,1.29c2.58.33,5.19.4,7.83.59a47.12,47.12,0,0,0-1.95,4.57c-.52,1.6-.78,3.37.91,4.51s3.25.35,4.32-.82a40.91,40.91,0,0,0,5.57-7.13C369.82,698.46,362.86,690.75,357.22,688.81Zm-.34,22.41q1.35-3.11,2.7-6.24l3.37-.81A11.07,11.07,0,0,1,356.88,711.22ZM345,701.36c2.46-2.19,14.85-2.42,18.78-.28C359.91,703,348.54,703.12,345,701.36Zm11.31-10.18c3.29,1.16,5.18,3.43,6.87,6C359.39,697.49,357.45,696.09,356.33,691.18Zm-174-285c.34,1.8.77,4.17,3.26,4.11,2.33-.06,3-2.2,3.38-4.09.61-3.1,1-6.24,1.5-9.55A13.64,13.64,0,0,0,193.7,398c1.13.16,2.83.2,3.39-.46a4.09,4.09,0,0,0,.4-3.57,14.53,14.53,0,0,0-8.84-8.27,10.6,10.6,0,0,0-3.89-.43c-4.66.22-8.1,2.92-11.23,6-2,2-2.44,4-1.49,5.28s2.92,1.57,5.48.54c1.24-.49,2.42-1.12,3.37-1.56C181.37,399.14,181.69,402.69,182.35,406.17Zm13.15-10.66c-4.26-1-6.28-2.46-6.28-6.9A13.42,13.42,0,0,1,195.5,395.51Zm-10.06-7.33c2.11,2.76,2.07,15.18-.15,18.81C183.45,403,183.6,391.73,185.44,388.18ZM175.18,395c.62-2.44,4.31-5.5,7.24-6.27-.24,1.07-.46,2.08-.76,3.41ZM546.65,642.46a84.28,84.28,0,0,0,9.09-1.75,3.53,3.53,0,0,0,2.06-2.49c.09-.79-1-1.84-1.76-2.55a4.37,4.37,0,0,0-2.18-.88c-3.16-.54-6.34-1-9.61-1.5a14,14,0,0,0,1.33-3.33c.15-1.12.1-2.74-.58-3.36a3.83,3.83,0,0,0-3.41-.36,14.87,14.87,0,0,0-8.51,9.37c-1.75,5.56,2.7,12.31,6.76,15.46,1.24.95,2.66,1.7,4.19.69s1.47-2.76,1-4.3-1.3-3.14-2.07-5A25.15,25.15,0,0,0,546.65,642.46Zm-3.76-14c-.08,2.82-1.93,6.33-6.79,6.08C537.91,631.79,539.78,629.51,542.89,628.45Zm-1,20.32a19,19,0,0,1-5.76-7.19c.34-.1.47-.18.57-.16.9.2,1.79.41,3,.71l2.75,6.31Zm-6.18-10.5a29.94,29.94,0,0,1,18.67.16A32.52,32.52,0,0,1,535.74,638.27Zm53.91-305.74a52.12,52.12,0,0,0-2-8.62c-.78-2.19-3-2.33-4.32-.38a12.46,12.46,0,0,0-1.7,4.38c-.5,2.62-.68,5.31-1,8a34.52,34.52,0,0,0-4-1.55c-2.44-.62-4.19,1.12-3.36,3.48a15.69,15.69,0,0,0,2.68,4.56c6.26,7.73,19.05,5.87,23.11-3.3,1.07-2.4-.19-4.44-2.79-4.15a23.35,23.35,0,0,0-4.85,1.54,16.53,16.53,0,0,0-1.69.81A30.63,30.63,0,0,0,589.65,332.53Zm-13.94,4.92.42-.62,4.94,2.85c.33,1.59.58,2.86.91,4.47C579,342.37,576.79,340.42,575.71,337.45Zm9.76,7a30.31,30.31,0,0,1,.15-18.65A31.46,31.46,0,0,1,585.47,344.43Zm10.15-6.76.36.6c-1.77,2.59-4.28,4.29-7.49,5.92.34-1.47.57-2.48.85-3.76ZM414.07,59.09a3.91,3.91,0,0,0,3.4-.46c.65-.55.7-2.15.53-3.22A15.23,15.23,0,0,0,416.68,52c3.34-.53,6.55-.92,9.71-1.57,1.82-.37,3.84-1.09,3.89-3.35S428.2,44.29,426.5,44c-3.62-.68-7.29-1.07-10.95-1.59.6-1.46,1.4-3.06,1.92-4.75.45-1.49.49-3.11-1.05-4.11a3.06,3.06,0,0,0-4,.64,41,41,0,0,0-5.32,6.32C401.86,48.68,407.8,56.38,414.07,59.09Zm.27-22.54.57.3-2.71,6.31-3.79.87A18.61,18.61,0,0,1,414.34,36.55Zm12.92,10.61a38.2,38.2,0,0,1-19.34.22C410.71,45.1,423.59,44.89,427.26,47.16Zm-11.89,9.7c-3.25-1-5.05-3.43-6.87-6C412.74,50.62,414.62,52.59,415.37,56.86ZM592,387.05c-8.16-5.14-15.83.75-18.54,7.06a3.89,3.89,0,0,0,.5,3.4c.55.64,2.15.66,3.21.5a19.06,19.06,0,0,0,3.79-1.49,18.8,18.8,0,0,0,0,3,63.21,63.21,0,0,0,1.79,8.48,3.83,3.83,0,0,0,2.87,2.13c.82,0,1.76-1.43,2.5-2.34a3.8,3.8,0,0,0,.64-1.86c.48-3.45.89-6.91,1.33-10.42,1.53.62,3.19,1.42,4.93,1.95,1.42.43,3,.42,4-1a3,3,0,0,0-.54-4A40.23,40.23,0,0,0,592,387.05Zm-16.28,8.38c1-3.28,3.37-5.1,6.12-7C581.82,393.27,579.16,394.8,575.68,395.43Zm10.41,11.74c-2.5-2.86-2.74-15.27-.41-19.49C587.57,394.33,587.22,400.56,586.09,407.17Zm9.59-12.25-6.17-2.66a7.51,7.51,0,0,1-.34-.84c-.19-.83-.37-1.66-.67-3,3.16,1.57,5.69,3.29,7.48,5.95ZM185.8,50.49c2,2.54,4.1,5,6.09,7.34-1.46.61-3.15,1.18-4.72,2s-2.7,1.86-2.3,3.76a3.12,3.12,0,0,0,3.48,2.37,58.12,58.12,0,0,0,8.22-.84,10,10,0,0,0,6.28-3.8c3.33-4.39,3.47-9.31,1.56-14.28a3.87,3.87,0,0,0-2.71-2.1c-.84-.08-2,1-2.65,1.87a17.24,17.24,0,0,0-1.5,3.63c-2.13-1.67-4.07-3.37-6.19-4.82a12.94,12.94,0,0,0-4.26-2c-2.66-.62-4,1-3,3.55A12.23,12.23,0,0,0,185.8,50.49Zm1.92,12,6.94-2.84,3.09,2C194.64,63.05,190.52,63.5,187.72,62.45ZM202,47.58c1.53,3,1.24,6.05.69,9.14C199.46,54.17,199.29,51.26,202,47.58Zm-1.62,12.56a39.64,39.64,0,0,1-14.14-13.46C190.38,47.32,199.44,56,200.33,60.14ZM580,690.24c1.43-.61,3.22-1.24,4.88-2.12,1.33-.7,2.35-1.81,2-3.52s-1.76-2.23-3.23-2.44a18.44,18.44,0,0,0-10.09,1.43,11.79,11.79,0,0,0-4.61,3.2c-3.45,4.39-3.54,9.4-1.57,14.43a3.6,3.6,0,0,0,2.59,2c.89,0,2.08-1,2.69-1.83a16,16,0,0,0,1.46-3.56c2.67,1.94,5.21,3.93,7.9,5.7,1.61,1,3.64,2,5.29.39s.38-3.59-.64-5C584.62,695.85,582.24,693,580,690.24Zm3.57-4.42-6.43,2.7-2.95-1.88A11.42,11.42,0,0,1,583.6,685.82Zm-13.66,14.79c-1.67-3.11-1.31-6.14-.74-9.49C572.62,694.78,572.16,696.72,569.94,700.61Zm1.36-12.76a40.58,40.58,0,0,1,14.24,13.44C581.94,701.2,572.79,692.62,571.3,687.85Zm-1-625.91c4,3.52,8.73,4.41,13.82,4,1.61-.11,3.24-.57,3.61-2.5s-.92-3-2.37-3.72-3.23-1.35-4.52-1.88c2.24-2.89,4.64-5.77,6.79-8.82,1-1.41,2.16-3.29.53-4.87s-3.56-.7-5.12.32c-2.74,1.8-5.35,3.81-8.08,5.77a13.9,13.9,0,0,0-1.36-3.39c-.67-.91-1.87-2-2.79-2a3.9,3.9,0,0,0-2.65,2.17,14.53,14.53,0,0,0,.24,12.1A8.41,8.41,0,0,0,570.3,61.94Zm14.09.27c-.06.23-.12.46-.17.69-3.17.63-6.21-.17-9.67-1.15l3.34-2.12Zm1.52-15.5a31.71,31.71,0,0,1-13.59,13A30.17,30.17,0,0,1,585.91,46.71Zm-15.26.78c2.62,3.31,2.36,6.32-.63,9.28C569.33,53.66,569.16,50.66,570.65,47.49ZM201.47,686.15c-3.9-3.57-8.74-4.39-13.83-4-1.55.11-3.11.55-3.54,2.33-.48,2,.84,3.12,2.36,3.9s3.22,1.35,4.49,1.86c-.73.89-1.6,1.81-2.31,2.83a83.13,83.13,0,0,0-5.42,8.21c-1,2,.36,3.58,2.6,3.31a7.31,7.31,0,0,0,3.13-1.08c2.68-1.79,5.24-3.76,7.88-5.69a12.24,12.24,0,0,0,1.29,3.27c.71,1,1.95,2.16,2.9,2.1a4,4,0,0,0,2.69-2.36,19.36,19.36,0,0,0,1-6.19A10.91,10.91,0,0,0,201.47,686.15Zm-14-.23c0-.25.09-.49.13-.73,3.17-.57,6.21.13,9.62,1.19l-3.27,2.09Zm-1.52,15.5a31.41,31.41,0,0,1,13.56-13C196.45,694.25,191.7,698.37,185.91,701.42Zm15.27-.81c-2.62-3.11-2.38-6.2.59-9.32A14.06,14.06,0,0,1,201.18,700.61Zm295.88-45.08c0,1.69.13,3.84,2.14,3.92a46.47,46.47,0,0,0,9.23-.88c.53-.08,1.23-1.39,1.19-2.1,0-.51-1.09-1.15-1.81-1.37a5.57,5.57,0,0,0-2.14.22l-4.22.6V642.08c2.05,0,3.76.08,5.45,0,1.25-.09,2.41-.61,2.43-2.12s-1-2-2.22-2.06c-1.83-.09-3.67,0-5.93,0V623.36l7.7-.4c.12-2.2-1.18-3.1-2.62-3.16a60.48,60.48,0,0,0-8.29.39,1.63,1.63,0,0,0-1.48,2.35l1.1,1v14.13l-3.72,3.47,3.6,2.29c0,.07,0,.73,0,1.38C497.33,648.38,497.14,652,497.06,655.53ZM378.32,57.18a3.13,3.13,0,0,0,2.45.56c.4-.1.74-1.41.67-2.13-.34-3.2,1.2-5.75,4.56-7.14,3.49,1,5.39,3.51,5.24,6.64a10.49,10.49,0,0,0,.63,2.79c1-.39,2.19-.52,2.88-1.2,4.21-4.13,4.08-11.23-.16-15.57a11.34,11.34,0,0,0-16.22-.37C373.61,45.26,373.55,53.21,378.32,57.18Zm3.41-14.37a7.18,7.18,0,0,1,8.85-.1c2.91,1.95,4,4.65,3,8.36-1.58-3.17-3.62-5.85-7.16-5.82s-5.9,2.33-7.38,5.88A7.13,7.13,0,0,1,381.73,42.81Zm194.9,328.26a2.25,2.25,0,0,0-1.83.69c-.3.47-.08,1.35.1,2,.11.4.56.72.89,1a11.46,11.46,0,0,0,16.1-16.29c-4.48-4.88-12.55-5-16.55-.18a3.09,3.09,0,0,0-.55,2.45c.1.4,1.41.74,2.13.66,3.19-.33,5.74,1.21,7.13,4.57C583,369.85,580.56,371.43,576.63,371.07Zm4.88-12.13c3.83-.85,6.73.36,8.61,3.38s1.53,6-.85,9a6.62,6.62,0,0,1-7.54,2.3C589.87,369.24,588.38,362.45,581.51,358.94ZM393.43,690.88a3.13,3.13,0,0,0-2.46-.49c-.39.12-.68,1.43-.6,2.16.37,3.37-1.46,6-5.13,7.09-3.52-1.4-4.81-3.66-4.49-7.47a2.25,2.25,0,0,0-.74-1.82,2.74,2.74,0,0,0-2,.17,4.05,4.05,0,0,0-1.31,1.18,11.32,11.32,0,0,0-1.53,12.44c2,3.93,6.74,6.77,10.84,6.49a12,12,0,0,0,10.5-8.15C397.81,698.36,396.55,693.34,393.43,690.88Zm-2.87,13.94c-3.2,2.53-6.45,2.73-9.49.59a7.07,7.07,0,0,1-2.82-8.29c3.05,6.52,10.14,8.62,14.51.16A6.52,6.52,0,0,1,390.56,704.82ZM194.45,361.56a2.08,2.08,0,0,0,1.7-.62,2.64,2.64,0,0,0,0-2,4,4,0,0,0-1.28-1.47,10.85,10.85,0,0,0-11.9-1.72,11.12,11.12,0,0,0-6.94,10.7c0,4.82,2.59,8.4,7,10.42s10,.79,12.68-2.68a3.26,3.26,0,0,0,.46-2.47c-.07-.34-1.32-.68-2-.6-3.6.4-6.2-1.35-7.24-5.12C188.4,362.48,190.57,361.25,194.45,361.56Zm-5,11.93a6.49,6.49,0,0,1-7.65-2.12c-2.49-3.12-2.74-6.31-.72-9.32a7.19,7.19,0,0,1,8.56-3c-3.48,1.36-5.78,3.76-5.89,7.19C183.61,369.88,186.24,372,189.43,373.49ZM410,655.88a2.45,2.45,0,0,0-1.65-1.57,8.9,8.9,0,0,0-3.32.21c-1.6.34-3.16.85-4.73,1.29V643.54c2.21-.32,4.19-.51,6.12-.93,1-.22,2.33-.79,1.81-2.09-.3-.77-1.46-1.34-2.35-1.69a5,5,0,0,0-2.15.15c-1.15.14-2.3.31-3.53.48-.28-5.42-.54-10.6-.82-16,1.27,0,2.39.06,3.49,0a23.46,23.46,0,0,0,4.91-.57,3.16,3.16,0,0,0,1.93-2c.21-1.38-1.08-1.78-2.27-1.91a5.27,5.27,0,0,0-1.19,0c-2,.23-4.09.38-6.11.73a25.8,25.8,0,0,0-3.53,1.1c0,3.44,0,6.48,0,9.52,0,9.52-.1,19,0,28.57,0,.49,1.16,1.48,1.62,1.39,3.57-.68,7.13-1.49,10.63-2.45A2.35,2.35,0,0,0,410,655.88ZM516.38,649l-.87-.67c-.89.56-2.32,1-2.57,1.71a8.25,8.25,0,0,0-.27,4.73c1.27,3.94,3.7,5,8.55,4.22,2.95-.46,5-2.07,5.38-5a18.1,18.1,0,0,0-.35-6.26c-1.1-5.2-4.36-9.15-8.12-12.67a9.16,9.16,0,0,1-2.94-9c.48-2.55,2-3.56,4.57-2.86,1.63.44,2.21,1.7,2.7,3.14a20.63,20.63,0,0,0,1.35,2.71c1.37-1.6,1.45-2.94.61-5.14-1-2.66-3.1-4-6.25-3.94-2.78,0-5,1.4-5.67,3.82-1.48,5.06-1.27,9.84,2.69,13.87.89.89,1.75,1.81,2.56,2.77a21.26,21.26,0,0,1,4.91,9c1.15,4.9.67,5.62-4.3,6.28a4.23,4.23,0,0,1-.83-.15l-2-2.86.4-.15ZM476.52,626a11.53,11.53,0,0,0,1.87,1.6,9,9,0,0,0,.44-1.88c-.25-3.85-5.13-6.78-8.55-5.1a11.47,11.47,0,0,0-5.85,7,41.47,41.47,0,0,0-.52,25,9,9,0,0,0,5.46,5.92c1.76.79,3.65.81,5-.69a43,43,0,0,0,4.33-6c.68-1.1.78-2.59-.74-3.22s-2.24.59-2.74,1.82a7.56,7.56,0,0,1-3.75,4.38,5.37,5.37,0,0,1-3.76-4.31,102.68,102.68,0,0,1-1.34-10.6,26.92,26.92,0,0,1,2.3-12.79C470.51,623.06,473.41,621.37,476.52,626ZM295.39,532.13a22.61,22.61,0,0,0,.49,3.34q.66,3.91,1.34,7.83h.49c.62-3.76,1.45-7.49,1.8-11.27.34-3.56,2.27-5.51,5.38-6.59,1.8-.63,3.66-1.08,5.73-1.68-2.41-.77-4.58-1.33-6.65-2.14a6.34,6.34,0,0,1-4.34-5.62c-.39-3.61-1.13-7.18-1.74-10.76a6.85,6.85,0,0,0-.39-1.07,62,62,0,0,0-2,10.81c-.29,4.32-2.79,6.33-6.51,7.43-1.49.44-3,.79-5,1.29,2.22.62,4,1,5.75,1.63C293,526.45,295.38,528.29,295.39,532.13Zm63,91.28c-.07-1.23-.12-1.91-.16-2.65-3.91-1.57-7.63-1.18-11.75.08a34.53,34.53,0,0,0-.49,4c0,9.47,0,18.94,0,28.41a14.41,14.41,0,0,0,.17,2c.19,1.37.66,2.47,2.36,2.3s1.87-1.27,1.86-2.57c0-2.58-.06-5.16-.07-7.74,0-2.15,0-4.3,0-6.42,4.62-.12,5.79-.58,5.72-2.42-.16-4.21-3.62-1.68-5.78-2.7v-11.1Zm-85.14-1.35a3.23,3.23,0,0,0,1.91-2.08c.1-.54-1-1.42-1.76-2a3.06,3.06,0,0,0-1.73-.27c-2.65.07-5.31.08-7.94.36-.7.07-1.32,1-2,1.5a7.8,7.8,0,0,0,1.72,2.06,8.93,8.93,0,0,0,2.78.58c-.38,10.66-.76,21.21-1.14,31.84-.62.08-1.14.12-1.64.21-1.29.23-2.58.55-2.56,2.22s1.35,2.11,2.63,2.12a67.08,67.08,0,0,0,7.9-.36,2.31,2.31,0,0,0,1.55-1.67,3.1,3.1,0,0,0-1.26-2.18,7.67,7.67,0,0,0-2.6-.7V622.33A16.68,16.68,0,0,0,273.21,622.06Zm163.29,3.55q-.36,14.39-.72,28.77a4.84,4.84,0,0,0,.23,2.33,3.07,3.07,0,0,0,1.9,1.54c.49.06,1.36-.91,1.6-1.58a9.53,9.53,0,0,0,.21-2.94c.07-8.74.11-17.47.2-26.21,0-1.23.18-2.45.27-3.7a32.26,32.26,0,0,0,5-.09,2.29,2.29,0,0,0,1.42-1.73,2.39,2.39,0,0,0-1.34-1.82,35.22,35.22,0,0,0-13.46.07c-1.28,2.47-1,2.67,4.72,3.86C436.5,624.59,436.51,625.1,436.5,625.61Zm49-2.84a8.36,8.36,0,0,0-.77-2.16l-.74,0a12.52,12.52,0,0,0-.94,2.41,32.83,32.83,0,0,0-.48,4.53c-.36,9.38-.67,18.76-1,28.14-.08,2,.53,3,2.56,3,3.56,0,7.11-.33,10.66-.64.64-.06,1.22-.73,1.79-1.1a2.87,2.87,0,0,0-3.1-2.39c-2.63,0-5.26,0-7.86,0,.12-7.21.3-14.34.33-21.47C486,629.64,485.73,626.2,485.51,622.77Zm-44.66-373.7c.68,2.68.93,5.47,1.39,8.2.14.83.41,1.62.63,2.44a25.21,25.21,0,0,0,1.27-5.76c.81-7.16,1.47-8,8.37-9.8.38-.11.75-.29,1.64-.64-1.2-.21-1.85-.3-2.48-.44-4.91-1-6.24-2.42-7.09-7.35-.46-2.67-.9-5.35-1.35-8h-.5c-.57,3.29-1.28,6.56-1.66,9.86a4.72,4.72,0,0,1-3,4.08c-1.86.8-3.81,1.35-5.74,2a49.06,49.06,0,0,1,6.22,2.46A5.21,5.21,0,0,1,440.85,249.07ZM261.23,389.23c.3,2.19.79,4.34,1.19,6.51a55.54,55.54,0,0,0,2-9.59,5,5,0,0,1,3-4.33c1.86-.82,3.82-1.41,6.19-2.27-.87-.19-1.35-.32-1.84-.4-5.12-.91-6.71-2.51-7.56-7.59-.43-2.58-.87-5.17-1.31-7.75-.45.28-.59.52-.63.77-.48,2.8-1.1,5.59-1.37,8.41a5.5,5.5,0,0,1-3.87,5c-1.62.61-3.29,1.08-5.27,1.72.82.26,1.3.43,1.79.56C260,382,260.33,382.51,261.23,389.23ZM510.6,406.74a3.65,3.65,0,0,0,.86-2.09c.21-3.68.92-6.95,5.85-7.13l-.38-.56c-.24-.07-.47-.16-.72-.21-2.64-.59-4.4-1.89-4.46-4.92a28.24,28.24,0,0,0-.73-4.22l-.5,0c-.11.7-.27,1.39-.33,2.09-.31,3.54-1.06,6.73-5.44,7.18-.05,0-.07.21-.21.62,4.58.07,5.28,3.33,5.62,6.88C510.24,405.2,510.45,406,510.6,406.74ZM499.42,273.56a16.85,16.85,0,0,0,.73,3.36c.68-2.16.87-4.27,1.34-6.32.59-2.57,3.27-2.48,5.32-3.63-.73-.18-1.16-.28-1.59-.4-2.25-.64-4-1.67-4-4.44a28.54,28.54,0,0,0-.81-4.79,10.79,10.79,0,0,0-1.09,4.12,4.9,4.9,0,0,1-4.23,5.15l-1.38.29c.33.3.46.52.62.54C497.92,267.94,499.41,270.07,499.42,273.56Zm-255.56,209a4.19,4.19,0,0,0-1.17-.38c-2.51-.63-4.6-1.55-4.6-4.74a30.12,30.12,0,0,0-.82-4.78c-.25.3-.38.39-.4.5a51.43,51.43,0,0,0-.94,5.22,3.67,3.67,0,0,1-2.74,3.25c-.81.31-1.66.52-2.77.87.67.26,1.07.46,1.5.58,3.25.93,3.83,1.64,4.26,5,.19,1.46.5,2.91.75,4.36C238.29,488.38,237.1,482.94,243.86,482.52ZM449.71,170c-.27-1.51-.56-3-.85-4.51a12.1,12.1,0,0,0-1.11,4.41c-.11,2.77-1.63,4.18-4.15,4.79l-1.46.35a2.74,2.74,0,0,0,.51.36,5.34,5.34,0,0,0,.93.31,4.67,4.67,0,0,1,4.17,4.73,44,44,0,0,0,.69,4.39c.83-2.13.66-4.54,1.67-6.26s3.16-2.59,4.62-3.69l-.31-.06C451.07,174.12,450.33,173.36,449.71,170Zm5,4.88c.08,0,.11,0,0,0ZM183,434.53c-1.44-.09-2.09.85-2.12,2.24a2,2,0,0,0,2,2.37c1.23.06,2.15-.55,2.14-2.35A2.13,2.13,0,0,0,183,434.53Zm405.16,0c-1.51.06-2.09,1.15-2.13,2.55s.87,2.23,2,2c.92-.17,1.68-1.15,2.5-1.77C590.16,435.47,589.58,434.47,588.11,434.53Zm-403.9-9.3c-.49-.46-2.05-.62-2.38-.25a3.48,3.48,0,0,0-.72,2.74c.38,1.56,1.77,1.47,3.2,1.11A2.43,2.43,0,0,0,184.21,425.23Zm405.73.27c-1-1-2.14-1.41-3.14-.35a2.46,2.46,0,0,0-.11,3.65C589.57,429.32,590.3,428.6,589.94,425.5ZM182,310.36a3.53,3.53,0,0,0,.58,2.78,2.49,2.49,0,0,0,2.4-.12c1.08-.92,1.24-2.26.21-3.7C183.81,309.05,182.4,308.78,182,310.36Zm405.84,2.74c.66.46,1.9.09,2.78.09.68-3.56-.32-4.54-3.25-3.69A2.41,2.41,0,0,0,587.79,313.1Zm.33,136.11c1.5-.38,2.45-1.25,2-2.69a2,2,0,0,0-4,0C585.64,448,586.59,448.86,588.12,449.21ZM184.9,446.54a2,2,0,0,0-4,0c-.49,1.45.46,2.31,2,2.68C184.41,448.84,185.37,448,184.9,446.54ZM439.63,45.4a1.67,1.67,0,0,0,2-2,3.16,3.16,0,0,0-1.81-2.06c-1.16-.35-2.16.33-2.36,2.45C438,44.17,438.71,45.19,439.63,45.4Zm-106.75,0c.92-.16,1.69-1.15,2.53-1.77,0-.33,0-.65,0-1A8.28,8.28,0,0,0,333,41.27c-1.39-.28-2.07.72-2.12,2S331.56,45.64,332.88,45.39Zm106,657.25a2,2,0,0,0-2,2.39c.12.8,1,1.48,1.32,1.86,2.14,0,2.74-.87,2.76-2.11A1.9,1.9,0,0,0,438.83,702.64Zm-106.73,0a1.9,1.9,0,0,0-2,2.21c.05,1.26.68,2.12,2.59,2.37.52-.75,1.39-1.46,1.48-2.26A2,2,0,0,0,332.1,702.64ZM183,647.7a2.9,2.9,0,0,0,1.86-2,1.68,1.68,0,0,0-2-2c-.86.14-1.59,1.07-2.37,1.64l0,1C181.39,646.81,182.26,647.77,183,647.7Zm0,5.94c-.87.09-1.64,1-2.46,1.52,0,.32,0,.64,0,1,.81.54,1.64,1.54,2.41,1.51a2.91,2.91,0,0,0,2-1.88A1.68,1.68,0,0,0,183,653.64ZM252.55,45.7h.95c.55-.82,1.55-1.66,1.51-2.45s-1.16-1.74-1.95-1.91a1.69,1.69,0,0,0-2,2C251.16,44.21,252,44.93,252.55,45.7Zm10,0h.95C264,44.88,265,44,265,43.25a2.9,2.9,0,0,0-1.91-1.9A1.67,1.67,0,0,0,261,43.3C261.1,44.16,262,44.91,262.54,45.71Zm9.77,0,1,0c.59-.78,1.62-1.56,1.63-2.34a2.9,2.9,0,0,0-1.8-2,1.69,1.69,0,0,0-2.19,1.82C271,44,271.82,44.85,272.31,45.68Zm10.13,0,.94,0c.53-.84,1.51-1.71,1.44-2.5a2.91,2.91,0,0,0-2-1.85,1.69,1.69,0,0,0-2,2.09C281,44.27,281.88,45,282.44,45.72ZM183.28,259c-.54.81-1.52,1.64-1.49,2.43a2.82,2.82,0,0,0,1.82,2,1.69,1.69,0,0,0,2.1-1.93c-.12-.88-1-1.66-1.5-2.49ZM302.36,45.72l.89,0c.53-.78,1.4-1.51,1.51-2.35a1.8,1.8,0,0,0-2.09-2.06c-1.35.06-2.2.94-1.94,2.2C300.89,44.3,301.79,45,302.36,45.72ZM588.78,249.5a2.91,2.91,0,0,0-1.89,1.94,1.69,1.69,0,0,0,2,2.05c.86-.13,1.6-1.05,2.4-1.62,0-.32,0-.64,0-1C590.42,250.4,589.56,249.43,588.78,249.5ZM588,663.58a1.69,1.69,0,0,0-1.91,2.12,2.91,2.91,0,0,0,1.95,1.87c.78,0,1.61-1,2.42-1.5,0-.32,0-.65,0-1C589.65,664.57,588.87,663.67,588,663.58ZM450.47,45.7c.53-.76,1.39-1.48,1.52-2.31a1.68,1.68,0,0,0-2-2c-.79.17-1.91,1.21-2,1.91s1,1.63,1.5,2.45Zm8.9,0,.9,0c.57-.74,1.48-1.41,1.65-2.23.27-1.26-.57-2.14-1.92-2.22a1.79,1.79,0,0,0-2.1,2C458,44.15,458.85,44.9,459.37,45.68ZM185.7,251.44a2.91,2.91,0,0,0-1.89-1.94c-.77-.07-1.64.9-2.46,1.41l0,1c.8.56,1.54,1.48,2.4,1.61A1.69,1.69,0,0,0,185.7,251.44ZM480.3,45.7c.53-.77,1.38-1.49,1.51-2.32a1.69,1.69,0,0,0-2-2,2.91,2.91,0,0,0-1.94,1.92c0,.78,1,1.62,1.52,2.44Zm10,0c.51-.82,1.37-1.62,1.45-2.48a1.68,1.68,0,0,0-2.15-1.86,2.88,2.88,0,0,0-1.83,2c0,.78,1,1.58,1.57,2.38Zm9.87,0c.53-.81,1.41-1.58,1.52-2.45a1.67,1.67,0,0,0-2.09-1.91,2.89,2.89,0,0,0-1.89,1.93c0,.78,1,1.62,1.5,2.42Zm8.87,0,.93,0c.58-.8,1.62-1.6,1.6-2.38a2.93,2.93,0,0,0-1.86-2,1.68,1.68,0,0,0-2.11,1.94C507.67,44.12,508.52,44.88,509,45.68ZM586.9,241.43a1.68,1.68,0,0,0,1.9,2.12c.86-.09,1.64-1,2.45-1.52,0-.32,0-.64,0-1-.81-.55-1.63-1.55-2.41-1.51A2.91,2.91,0,0,0,586.9,241.43ZM181.33,242c.8.55,1.56,1.46,2.42,1.57a1.69,1.69,0,0,0,1.95-2.08,2.91,2.91,0,0,0-1.92-1.91c-.78-.05-1.63.93-2.44,1.45C181.34,241.34,181.33,241.66,181.33,242ZM538.89,45.69l.89,0c.58-.74,1.48-1.41,1.65-2.24.26-1.26-.58-2.14-1.93-2.21a1.8,1.8,0,0,0-2.1,2C537.5,44.16,538.36,44.9,538.89,45.69Zm49.88,178c.86-.08,1.65-1,2.47-1.48l0-1c-.8-.56-1.61-1.56-2.39-1.54a2.9,2.9,0,0,0-2,1.84A1.68,1.68,0,0,0,588.77,223.67ZM185.7,82.45a2.91,2.91,0,0,0-1.92-1.91c-.78-.05-1.63.92-2.44,1.45v1c.8.55,1.56,1.46,2.42,1.57A1.69,1.69,0,0,0,185.7,82.45Zm401.2,0a1.68,1.68,0,0,0,1.9,2.12c.86-.09,1.64-1,2.45-1.52,0-.32,0-.64,0-1-.81-.54-1.63-1.54-2.41-1.5A2.86,2.86,0,0,0,586.9,82.41Zm-401.2,10a2.92,2.92,0,0,0-1.86-2c-.78-.08-1.66.87-2.49,1.38l0,1c.79.58,1.52,1.51,2.37,1.65A1.69,1.69,0,0,0,185.7,92.45Zm403.06-2a2.93,2.93,0,0,0-1.87,2,1.68,1.68,0,0,0,2,2c.86-.14,1.59-1.07,2.37-1.65l0-1C590.41,91.35,589.53,90.4,588.76,90.47Zm-366-44.76h.89c.56-.77,1.46-1.48,1.58-2.3a1.81,1.81,0,0,0-2-2.14c-1.35,0-2.23.88-2,2.15C221.36,44.25,222.23,45,222.78,45.71Zm-38.95,178a1.69,1.69,0,0,0,1.86-2.16,2.88,2.88,0,0,0-2-1.83c-.78,0-1.59,1-2.38,1.56l0,1C182.17,222.72,183,223.6,183.83,223.67Zm0-109.32a1.7,1.7,0,0,0,1.84-2.19,2.91,2.91,0,0,0-2-1.81c-.78,0-1.57,1-2.36,1.59,0,.32,0,.65,0,1C182.19,113.42,183,114.28,183.86,114.35Zm403-2.2a1.7,1.7,0,0,0,1.82,2.2c.87-.06,1.68-.92,2.51-1.43,0-.32,0-.64,0-1-.78-.58-1.57-1.61-2.35-1.6A2.89,2.89,0,0,0,586.9,112.15Zm1.91,97.6a2.89,2.89,0,0,0-1.92,1.9,1.7,1.7,0,0,0,2,2.09c.86-.12,1.62-1,2.42-1.57v-1C590.44,210.67,589.59,209.69,588.81,209.75Zm2.43-18.48c-.83-.52-1.7-1.48-2.47-1.41a2.93,2.93,0,0,0-1.88,2,1.69,1.69,0,0,0,2,2c.86-.13,1.6-1.06,2.39-1.63Zm-405.54.42a2.91,2.91,0,0,0-2-1.83c-.78,0-1.59,1-2.38,1.56l0,1c.83.52,1.62,1.39,2.49,1.47A1.7,1.7,0,0,0,185.7,191.69Zm403.07-61.46a2.93,2.93,0,0,0-1.88,2,1.69,1.69,0,0,0,2,2c.86-.14,1.6-1.06,2.39-1.63l0-1C590.41,131.12,589.54,130.16,588.77,130.23ZM183.69,144.17a1.69,1.69,0,0,0,2-2,2.93,2.93,0,0,0-1.87-2c-.77-.08-1.65.88-2.48,1.38l0,1C182.11,143.09,182.84,144,183.69,144.17Zm405.18,0c.86-.12,1.6-1,2.4-1.62,0-.32,0-.64,0-1-.83-.51-1.69-1.47-2.47-1.41a3,3,0,0,0-1.89,2A1.68,1.68,0,0,0,588.87,144.16Zm0,129.21c.85-.14,1.58-1.07,2.37-1.64l0-1c-.83-.51-1.71-1.46-2.49-1.39a2.94,2.94,0,0,0-1.86,2A1.69,1.69,0,0,0,588.9,273.37ZM588.79,174c.87-.09,1.65-1,2.46-1.52,0-.32,0-.64,0-1-.8-.55-1.63-1.55-2.4-1.51a2.88,2.88,0,0,0-2,1.86A1.68,1.68,0,0,0,588.79,174ZM185.7,162a2.91,2.91,0,0,0-1.92-1.91c-.77-.06-1.62.92-2.44,1.45v1c.8.56,1.56,1.46,2.42,1.58A1.69,1.69,0,0,0,185.7,162ZM588.79,164c.86-.09,1.64-1,2.46-1.5v-1c-.8-.55-1.62-1.55-2.39-1.52a2.86,2.86,0,0,0-2,1.86A1.68,1.68,0,0,0,588.79,164ZM183.72,174a1.69,1.69,0,0,0,2-2,2.91,2.91,0,0,0-1.89-1.94c-.77-.07-1.64.9-2.46,1.41l0,1C182.12,172.93,182.86,173.85,183.72,174Zm36.72,530.74a2.88,2.88,0,0,0,1.87,2c.79.08,1.67-.89,2.52-1.4l0-.91c-.75-.55-1.45-1.41-2.29-1.6A1.67,1.67,0,0,0,220.44,704.72Zm11.44-2.32c-.53.77-1.39,1.49-1.52,2.32a1.69,1.69,0,0,0,2,2c.79-.17,1.91-1.21,2-1.91s-1-1.63-1.51-2.45Zm29.8,0c-.53.82-1.4,1.6-1.5,2.46a1.68,1.68,0,0,0,2.11,1.9,2.92,2.92,0,0,0,1.87-2c0-.79-1-1.61-1.52-2.41Zm-78-602c-.78,0-1.6,1-2.4,1.54,0,.32,0,.64,0,1,.82.53,1.61,1.41,2.47,1.5a1.69,1.69,0,0,0,1.89-2.14A2.93,2.93,0,0,0,183.72,100.41Zm88,602c-.54.8-1.43,1.56-1.55,2.42a1.68,1.68,0,0,0,2.07,1.94c.79-.19,1.87-1.21,1.91-1.91s-.94-1.63-1.48-2.44Zm19.87,0c-.54.8-1.43,1.56-1.55,2.42a1.68,1.68,0,0,0,2.08,1.94,2.89,2.89,0,0,0,1.9-1.92c0-.78-.94-1.62-1.47-2.43Zm8.41,2.31a2.85,2.85,0,0,0,1.85,2c.79.08,1.68-.88,2.53-1.38l0-.91c-.75-.56-1.44-1.42-2.28-1.62A1.66,1.66,0,0,0,300,704.71Zm288-249.85a1.7,1.7,0,0,0-1.84,2.19,2.91,2.91,0,0,0,2,1.8c.78,0,1.57-1,2.36-1.58,0-.32,0-.65,0-1C589.61,455.79,588.8,454.93,587.94,454.86Zm-405.58,9.57c-.5.84-1.43,1.72-1.36,2.52a2.83,2.83,0,0,0,1.92,1.88,1.67,1.67,0,0,0,2-2c-.18-.88-1.07-1.62-1.64-2.42ZM588,468.79c.78,0,1.62-.93,2.43-1.47v-1c-.8-.55-1.57-1.45-2.43-1.56a1.69,1.69,0,0,0-1.93,2.1A2.89,2.89,0,0,0,588,468.79ZM311.38,702.4c-.53.78-1.39,1.5-1.52,2.33a1.7,1.7,0,0,0,2,2,2.91,2.91,0,0,0,1.94-1.92c0-.79-1-1.63-1.52-2.45Zm135.8,2.35a2.84,2.84,0,0,0,1.89,2c.8.06,1.67-.91,2.51-1.43,0-.31,0-.62,0-.92-.77-.55-1.47-1.39-2.31-1.56A1.69,1.69,0,0,0,447.18,704.75ZM180.53,477.19c.8.56,1.61,1.57,2.38,1.54a2.91,2.91,0,0,0,2-1.84,1.69,1.69,0,0,0-1.87-2.15c-.86.08-1.65,1-2.48,1.48C180.55,476.54,180.54,476.86,180.53,477.19Zm405.57-.3a2.91,2.91,0,0,0,2,1.84c.77,0,1.58-1,2.38-1.54,0-.33,0-.65,0-1-.82-.52-1.61-1.4-2.48-1.48A1.69,1.69,0,0,0,586.1,476.89ZM182.89,488.68a2.92,2.92,0,0,0,2-1.83,1.69,1.69,0,0,0-1.85-2.17c-.87.07-1.67.94-2.49,1.45l0,1C181.32,487.67,182.12,488.69,182.89,488.68ZM459.72,702.42l-1,0c-.58.79-1.61,1.57-1.61,2.36a2.89,2.89,0,0,0,1.8,2,1.69,1.69,0,0,0,2.18-1.83C461.07,704.07,460.22,703.26,459.72,702.42ZM183,498.61a2.87,2.87,0,0,0,1.88-1.95,1.68,1.68,0,0,0-2-2c-.86.13-1.6,1.05-2.39,1.62,0,.32,0,.64,0,1C181.38,497.71,182.24,498.68,183,498.61ZM489.31,702.38l-.89,0c-.53.78-1.4,1.52-1.51,2.35a1.8,1.8,0,0,0,2.09,2.07c1.34-.07,2.2-.93,1.95-2.2C490.78,703.8,489.88,703.13,489.31,702.38Zm9.59.42a1.68,1.68,0,0,0-2,2,2.85,2.85,0,0,0,2,1.88c.8,0,1.63-1,2.45-1.53l0-.91C500.48,703.75,499.74,702.93,498.9,702.8Zm9.82.06a2.82,2.82,0,0,0-1.91,1.9,1.66,1.66,0,0,0,2,2c.88-.17,1.62-1,2.42-1.59l0-.93C510.37,703.74,509.5,702.79,508.72,702.86Zm20.48-.45h-1c-.55.8-1.55,1.62-1.52,2.41s1.08,1.74,1.87,2a1.68,1.68,0,0,0,2.11-1.9C530.6,704,529.72,703.22,529.2,702.41Zm10,0-1,0c-.59.79-1.61,1.57-1.61,2.36a2.9,2.9,0,0,0,1.79,2,1.69,1.69,0,0,0,2.18-1.83C540.57,704.07,539.72,703.26,539.23,702.42ZM185.7,181.87a2.89,2.89,0,0,0-1.89-1.94c-.78-.07-1.64.9-2.47,1.41l0,1c.79.57,1.54,1.49,2.4,1.62A1.69,1.69,0,0,0,185.7,181.87ZM588,504.56a1.68,1.68,0,0,0-1.93,2.09,2.87,2.87,0,0,0,1.93,1.89c.78,0,1.62-.93,2.43-1.46,0-.32,0-.65,0-1C589.66,505.57,588.9,504.66,588,504.56Zm-405.1,9.93c-.86.13-1.61,1-2.4,1.62l0,1c.83.52,1.69,1.49,2.47,1.42a2.87,2.87,0,0,0,1.88-2A1.68,1.68,0,0,0,182.93,514.49Zm0,9.94c-.86.13-1.61,1.05-2.4,1.62,0,.32,0,.64,0,1,.83.52,1.69,1.49,2.47,1.42a2.87,2.87,0,0,0,1.88-1.95A1.68,1.68,0,0,0,182.93,524.43Zm403.17,2.11a2.9,2.9,0,0,0,1.94,1.89c.78,0,1.61-.95,2.42-1.49v-1c-.81-.54-1.58-1.44-2.44-1.54A1.69,1.69,0,0,0,586.1,526.54Zm0,59.6a2.93,2.93,0,0,0,1.91,1.92c.77.05,1.63-.92,2.45-1.44,0-.32,0-.64,0-1-.8-.56-1.55-1.47-2.41-1.59A1.68,1.68,0,0,0,586.1,586.14Zm0-49.72a2.88,2.88,0,0,0,1.88,1.94c.78.07,1.64-.89,2.47-1.41,0-.32,0-.64,0-1-.79-.57-1.53-1.49-2.39-1.62A1.69,1.69,0,0,0,586.1,536.42ZM183,544.31c-.86.1-1.63,1-2.45,1.53v1c.8.55,1.63,1.54,2.41,1.51a2.92,2.92,0,0,0,2-1.88A1.69,1.69,0,0,0,183,544.31Zm407.46,1.49c-.82-.52-1.61-1.41-2.47-1.49a1.69,1.69,0,0,0-1.88,2.15,2.93,2.93,0,0,0,2,1.85c.78,0,1.59-1,2.39-1.54ZM183,554.25c-.86.11-1.61,1-2.41,1.58v1c.81.53,1.66,1.51,2.44,1.45a2.87,2.87,0,0,0,1.91-1.91A1.69,1.69,0,0,0,183,554.25Zm405.06,4c.78.06,1.63-.92,2.45-1.45v-1c-.81-.56-1.56-1.47-2.42-1.58a1.68,1.68,0,0,0-1.95,2.08A2.91,2.91,0,0,0,588,558.24Zm-405.3,10a1.77,1.77,0,0,0,2.26-1.8,1.84,1.84,0,0,0-1.91-2.23c-.83,0-1.63.82-2.45,1.27,0,.3-.07.6-.11.9C181.23,567,181.87,568,182.71,568.21Zm.25,5.92c-.86.11-1.62,1-2.43,1.57,0,.32,0,.64,0,1,.82.54,1.67,1.52,2.44,1.46a2.87,2.87,0,0,0,1.92-1.91A1.68,1.68,0,0,0,183,574.13ZM182.9,598a1.67,1.67,0,0,0,2-2c-.17-.89-1-1.63-1.61-2.44l-.93,0c-.5.83-1.44,1.71-1.38,2.5A2.86,2.86,0,0,0,182.9,598Zm.13,5.9c-.86.08-1.65,1-2.48,1.48,0,.32,0,.65,0,1,.79.56,1.6,1.58,2.38,1.55a2.91,2.91,0,0,0,2-1.84A1.69,1.69,0,0,0,183,603.94ZM586.1,606a2.91,2.91,0,0,0,1.92,1.91c.77,0,1.62-.93,2.44-1.46v-1c-.8-.55-1.56-1.46-2.42-1.57A1.69,1.69,0,0,0,586.1,606Zm0,9.93a2.92,2.92,0,0,0,1.92,1.92c.77,0,1.62-.93,2.44-1.46v-1c-.8-.55-1.56-1.46-2.42-1.57A1.69,1.69,0,0,0,586.1,616Zm-403.56,7.45c-.56.81-1.56,1.62-1.54,2.41a2.83,2.83,0,0,0,1.78,2,1.66,1.66,0,0,0,2.13-1.86c-.11-.89-.95-1.69-1.46-2.53ZM588,627.82c.77,0,1.62-.93,2.44-1.46,0-.32,0-.64,0-1-.81-.56-1.56-1.47-2.43-1.58a1.69,1.69,0,0,0-1.94,2.09A2.93,2.93,0,0,0,588,627.82ZM586.9,301a1.68,1.68,0,0,0,1.86,2.16c.86-.07,1.66-.95,2.48-1.46l0-1c-.79-.56-1.6-1.58-2.38-1.55A2.86,2.86,0,0,0,586.9,301Zm-401.2.14a2.93,2.93,0,0,0-1.87-2c-.77-.07-1.65.88-2.48,1.38l0,1c.79.57,1.51,1.51,2.37,1.65A1.69,1.69,0,0,0,185.7,301.16Zm403.21-11.9a2.88,2.88,0,0,0-2,1.8,1.69,1.69,0,0,0,1.83,2.18c.87-.06,1.67-.92,2.51-1.43l0-1C590.49,290.27,589.69,289.24,588.91,289.26Zm-404,346.61a1.69,1.69,0,0,0-1.92-2.11c-.86.1-1.63,1-2.44,1.54v1c.81.54,1.64,1.53,2.42,1.48A2.91,2.91,0,0,0,184.9,635.87Zm401.2-.06a2.87,2.87,0,0,0,1.89,1.94c.77.07,1.64-.9,2.46-1.42l0-1c-.79-.56-1.54-1.49-2.4-1.61A1.68,1.68,0,0,0,586.1,635.81ZM185.7,271.32a2.91,2.91,0,0,0-1.89-1.95c-.77-.06-1.64.9-2.46,1.42l0,1c.8.57,1.54,1.49,2.4,1.62A1.69,1.69,0,0,0,185.7,271.32Zm47-225.62h.94c.55-.82,1.55-1.66,1.51-2.45a2.89,2.89,0,0,0-1.95-1.91,1.69,1.69,0,0,0-2,2C231.28,44.22,232.15,44.93,232.68,45.7Zm9.87,0,.95,0c.57-.8,1.59-1.6,1.58-2.38a2.89,2.89,0,0,0-1.83-2,1.68,1.68,0,0,0-2.15,1.86C241.18,44.07,242,44.87,242.55,45.69Zm49.73,0h.94c.56-.81,1.58-1.64,1.54-2.43a2.87,2.87,0,0,0-1.92-1.93,1.69,1.69,0,0,0-2,2C290.9,44.2,291.76,44.92,292.28,45.7Zm19.92,0h.95c.54-.83,1.53-1.68,1.48-2.47s-1.16-1.73-2-1.89a1.69,1.69,0,0,0-2,2C310.79,44.23,311.66,44.94,312.2,45.71Zm10,0,.89,0c.54-.78,1.42-1.51,1.52-2.35a1.79,1.79,0,0,0-2.07-2.07c-1.34.06-2.2.92-2,2.19C320.76,44.29,321.66,45,322.22,45.72Zm147,0,.93.06c.59-.79,1.64-1.58,1.63-2.36a3,3,0,0,0-1.84-2,1.69,1.69,0,0,0-2.14,1.92C467.91,44.1,468.75,44.87,469.25,45.67Zm50.8,0c.53-.81,1.4-1.58,1.5-2.44a1.67,1.67,0,0,0-2.1-1.91c-.78.2-1.85,1.24-1.87,1.94s1,1.61,1.51,2.42Zm8.94,0,.89,0c.57-.75,1.46-1.43,1.62-2.26.24-1.27-.63-2.13-2-2.18a1.8,1.8,0,0,0-2.06,2.08C527.57,44.19,528.45,44.92,529,45.7Zm19.84,0,.89,0c.57-.74,1.47-1.42,1.65-2.24.27-1.27-.6-2.13-1.94-2.21a1.79,1.79,0,0,0-2.09,2C547.43,44.16,548.3,44.91,548.83,45.69Zm40,58.72c.86-.09,1.64-1,2.45-1.52v-1c-.8-.55-1.63-1.55-2.4-1.51a2.92,2.92,0,0,0-2,1.86A1.7,1.7,0,0,0,588.8,104.41ZM185.7,122.2a2.92,2.92,0,0,0-1.93-1.91c-.77-.05-1.62.93-2.43,1.46,0,.32,0,.65,0,1,.81.55,1.57,1.46,2.43,1.57A1.7,1.7,0,0,0,185.7,122.2Zm401.2-.07a1.68,1.68,0,0,0,1.87,2.15c.86-.08,1.65-1,2.47-1.47l0-1c-.8-.56-1.61-1.57-2.39-1.55A2.88,2.88,0,0,0,586.9,122.13Zm-403.18,12.1a1.69,1.69,0,0,0,2-2,2.91,2.91,0,0,0-1.89-1.94c-.77-.07-1.64.89-2.47,1.4,0,.33,0,.65,0,1C182.12,133.18,182.86,134.1,183.72,134.23Zm0,15.88c-.77,0-1.58,1-2.38,1.55l0,1c.82.53,1.62,1.41,2.48,1.48a1.69,1.69,0,0,0,1.86-2.16A2.88,2.88,0,0,0,183.7,150.11Zm407.55,1.4c-.83-.51-1.7-1.47-2.48-1.4a2.89,2.89,0,0,0-1.88,2,1.69,1.69,0,0,0,2,2c.85-.13,1.59-1.06,2.38-1.63C591.26,152.15,591.26,151.83,591.25,151.51ZM184.92,586.19c-.13-.89-1-1.67-1.5-2.5l-.92,0c-.55.81-1.53,1.63-1.51,2.43a2.85,2.85,0,0,0,1.82,2A1.66,1.66,0,0,0,184.92,586.19ZM588.76,233.61c.86-.07,1.66-1,2.48-1.47l0-1c-.79-.56-1.6-1.57-2.38-1.55a2.9,2.9,0,0,0-2,1.83A1.69,1.69,0,0,0,588.76,233.61Zm-403-2c-.14-.87-1-1.63-1.57-2.44h-.91c-.52.82-1.49,1.67-1.44,2.46a2.85,2.85,0,0,0,1.87,1.95A1.69,1.69,0,0,0,185.71,231.62ZM588.06,594a1.7,1.7,0,0,0-2,2.08A2.91,2.91,0,0,0,588,598c.77.06,1.62-.92,2.44-1.44l0-1C589.67,595,588.92,594.12,588.06,594ZM181.32,212.12c.8.57,1.54,1.49,2.4,1.62a1.69,1.69,0,0,0,2-2.05,2.91,2.91,0,0,0-1.89-1.94c-.77-.07-1.64.89-2.47,1.41C181.34,211.48,181.33,211.8,181.32,212.12Zm2.1,242.36-.92,0c-.54.82-1.53,1.64-1.51,2.44a2.82,2.82,0,0,0,1.82,2,1.66,1.66,0,0,0,2.1-1.9C184.79,456.1,183.94,455.31,183.42,454.48ZM588.85,199.8a2.93,2.93,0,0,0-2,1.88,1.69,1.69,0,0,0,1.91,2.12c.87-.1,1.64-1,2.45-1.53,0-.32,0-.64,0-1C590.46,200.76,589.63,199.76,588.85,199.8Zm-403.14,2.08c-.11-.88-1-1.67-1.48-2.5l-.92,0c-.55.8-1.55,1.62-1.52,2.41a2.86,2.86,0,0,0,1.8,2A1.7,1.7,0,0,0,185.71,201.88ZM590.45,486.17c-.82-.52-1.6-1.41-2.46-1.49a1.69,1.69,0,0,0-1.89,2.14,2.93,2.93,0,0,0,2,1.86c.77,0,1.59-1,2.39-1.54C590.46,486.82,590.46,486.5,590.45,486.17ZM588,498.61c.78.05,1.62-.93,2.44-1.46v-1c-.8-.55-1.56-1.45-2.42-1.56a1.68,1.68,0,0,0-1.94,2.08A2.91,2.91,0,0,0,588,498.61ZM183,613.88c-.87.11-1.62,1-2.43,1.58,0,.32,0,.64,0,1,.82.52,1.67,1.5,2.45,1.44A2.89,2.89,0,0,0,184.9,616,1.68,1.68,0,0,0,183,613.88Zm403.93-432a1.7,1.7,0,0,0,1.94,2.09c.86-.11,1.62-1,2.43-1.56v-1c-.82-.54-1.66-1.52-2.44-1.47A2.92,2.92,0,0,0,586.89,181.83Zm-402,324.73c-.18-.88-1.07-1.61-1.64-2.41l-.92,0c-.5.85-1.43,1.73-1.36,2.52a2.83,2.83,0,0,0,1.92,1.88A1.66,1.66,0,0,0,184.92,506.56Zm57.22,196.25c-1.23-.17-1.95.82-1.89,2s.93,2.22,2.22,1.93c.84-.18,1.52-1.07,2.27-1.64l0-.89C243.85,703.74,243,702.93,242.14,702.81Zm9.5-.38c-.5.83-1.34,1.65-1.4,2.51a1.69,1.69,0,0,0,2.2,1.81,2.88,2.88,0,0,0,1.78-2c0-.79-1-1.56-1.62-2.34ZM183.78,293.25a1.69,1.69,0,0,0,1.92-2.11,2.9,2.9,0,0,0-1.95-1.88c-.78-.05-1.61.94-2.42,1.48,0,.32,0,.65,0,1C182.15,292.25,182.92,293.15,183.78,293.25ZM281.61,702.4c-.55.8-1.44,1.56-1.55,2.42a1.67,1.67,0,0,0,2.07,1.94c.78-.19,1.86-1.21,1.9-1.91s-.93-1.62-1.47-2.44ZM588.73,283.31c.87-.07,1.67-.93,2.51-1.44l0-1c-.78-.57-1.57-1.6-2.35-1.59a2.91,2.91,0,0,0-2,1.81A1.69,1.69,0,0,0,588.73,283.31Zm-404.66-4.45-.93,0c-.49.84-1.42,1.72-1.34,2.51a2.84,2.84,0,0,0,1.93,1.89,1.69,1.69,0,0,0,2-2.05C185.54,280.38,184.64,279.65,184.07,278.86ZM590.45,516c-.81-.54-1.59-1.43-2.45-1.51a1.69,1.69,0,0,0-1.9,2.12,2.92,2.92,0,0,0,2,1.87c.78,0,1.6-1,2.4-1.51Zm-268,186.45-.93-.09c-.62.77-1.69,1.53-1.71,2.3a2.91,2.91,0,0,0,1.78,2.08,1.68,1.68,0,0,0,2.19-1.85C323.78,704.06,323,703.27,322.5,702.46Zm147.1-.05-1,0c-.56.81-1.58,1.63-1.55,2.42s1.12,1.77,1.91,2a1.69,1.69,0,0,0,2.06-2C471,703.93,470.12,703.19,469.6,702.41Zm10,0-.94,0c-.59.8-1.63,1.6-1.62,2.39s1.08,1.79,1.87,2a1.69,1.69,0,0,0,2.11-2C480.92,704,480.09,703.21,479.59,702.42ZM588,647.7c.78,0,1.62-.94,2.43-1.48v-1c-.8-.55-1.56-1.45-2.43-1.56a1.69,1.69,0,0,0-1.93,2.1A2.92,2.92,0,0,0,588,647.7Zm.77-384.27c.87-.09,1.64-1,2.45-1.53,0-.32,0-.64,0-1-.81-.55-1.63-1.54-2.41-1.5a2.92,2.92,0,0,0-2,1.87A1.69,1.69,0,0,0,588.8,263.43Zm-69.62,439h-.95c-.53.82-1.5,1.68-1.44,2.46s1.13,1.71,1.92,1.89a1.68,1.68,0,0,0,2-2C520.63,703.94,519.74,703.19,519.18,702.4ZM588,653.64a1.69,1.69,0,0,0-1.88,2.14,2.91,2.91,0,0,0,2,1.85c.77,0,1.59-1,2.39-1.53l0-1C589.63,654.61,588.85,653.73,588,653.64Zm-39.55,48.73c-.65.73-1.64,1.37-1.86,2.22a1.66,1.66,0,0,0,1.8,2.17,2.93,2.93,0,0,0,2.13-1.68c.15-.77-.72-1.73-1.15-2.6Zm-365.38-168c-.87.07-1.67,1-2.49,1.46l0,1c.79.57,1.59,1.58,2.37,1.57a2.91,2.91,0,0,0,2-1.83A1.69,1.69,0,0,0,183.05,534.37Zm407.4,31.32c-.81-.53-1.59-1.41-2.46-1.5a1.69,1.69,0,0,0-1.89,2.13,2.91,2.91,0,0,0,2,1.87c.78,0,1.6-1,2.4-1.53Zm-405.55,100a1.68,1.68,0,0,0-2-2.08c-.86.11-1.61,1-2.42,1.57,0,.33,0,.65,0,1,.82.53,1.67,1.5,2.45,1.45A2.91,2.91,0,0,0,184.9,665.66ZM588,578.12c.78,0,1.62-.94,2.43-1.47v-1c-.8-.54-1.57-1.44-2.43-1.55a1.68,1.68,0,0,0-1.93,2.09A2.9,2.9,0,0,0,588,578.12Zm-276-264c4.07,1.35,8.09,2.85,11.92,4.21,6.27,8.44,4.62,17.75,2.77,27.09l.72.13a8.06,8.06,0,0,0,1-1.46c3.34-8.79,4-17.49-1-26-1-1.71-1.88-3.51-3-5.13a5.85,5.85,0,0,0-2.45-2.08q-5.72-2.25-11.56-4.16a53.06,53.06,0,0,0-5.46-1.23c-3.83,4.4-5.33,6.93-2.78,9.76a3.74,3.74,0,0,0,1.21-.48C306.12,312.46,309.1,313.1,312,314.07Zm8,.79c-2.54-.28-3.4-2.5-5.15-4.2C318,310.82,318.33,313.63,320.05,314.86ZM311.51,309l2.15,3.56c-3.15-.33-4.22-3-6-4.87Zm-6.36-1.25,2.69,3.71-.29.45-4-2.14ZM363.69,300c-.91.39-1.77.9-2.67,1.3-4.52,2-8.91,4.36-13.59,5.83-6.12,1.92-5.06,1.83-3.42,6.8,0,.11.16.2.24.3v.5a21.2,21.2,0,0,0,4.85-.06,123.92,123.92,0,0,0,11.91-3.5c2.76-1,5.36-2.06,8.41-1.57a38.19,38.19,0,0,0,5.7.05c-2.22-3-4.13-5.65-6.1-8.25C367.38,299.27,366.15,299,363.69,300Zm-15.83,12.71-1.58.13c.82-1.41,1.5-2.56,2.17-3.72l.66.44C348.7,310.58,348.3,311.6,347.86,312.72Zm3.93-.58-1.86.33c1-1.83,1.92-3.38,2.81-4.93l.67.46Zm4.56-1.39-1.76.53c1.07-2,.68-4.83,3.65-5.94Zm2.36-1c1.14-3.63,1.79-7.65,6.72-8.58C363.66,304.48,361.79,307.56,358.71,309.72Zm4.47-1.9c1.41-2.1,2.74-4.08,4.13-6.13l1.24,1.78C367,305.27,365.93,307.59,363.18,307.82Zm-10.38,11.3a5,5,0,0,0-3,1.17,65.13,65.13,0,0,0-5.17,5.46c-.39.44-.39,1.21-.57,1.82l.64.42,7.45-4.16c3.23,3.53,7.69,3.1,11.43-.66,3.17.22,5.74-1.32,8.32-3.08a5.29,5.29,0,0,0-2.41-.8C363.9,319.18,358.35,319.07,352.8,319.12Zm1.21,4h5.52C357.86,324.6,356.33,324.66,354,323.08Zm-38.66-3.82c-3.22.33-6.44.68-9.65,1.1a12,12,0,0,0-2.36.91c2.48,2,5,1.76,7.44,2.05,1.63,4.58,5.77,4.81,9.64,2.7l4.37.37a9,9,0,0,0-.33-2.06C323.54,322.41,317.5,319,315.35,319.26Zm-2.52,4.05c2.26.13,4.24-.69,5.94.93C316.93,325.77,314.69,325.52,312.83,323.31ZM342,350.74a9.49,9.49,0,0,0-4.22.5,7.6,7.6,0,0,1-6.11,0,8.63,8.63,0,0,0-3.21-.86,3.37,3.37,0,0,0-2.36,1.34c-.3.44.31,1.48.58,2.51l1.74-1.06c.33.14.71.28,1.06.46,3.05,1.56,6.08,2,9.25.18a7,7,0,0,1,2.67-.36c.63,0,1.27,0,1.94,0C344.1,351.65,343.27,350.83,342,350.74Zm3.19-8.12-.59.45c.38.93.52,2.14,1.19,2.74,2.93,2.63,3.71,5.25,0,8.26l.57.51c.54,0,1.18.27,1.62.07,2.43-1.07,4-5.26,2.45-7.28C349.06,345.53,347,344.19,345.23,342.62Zm-11.9,28.77a41.37,41.37,0,0,0,5.89-.06c3.54-.18,7.08-.42,10.62-.66.8-.05,1.6-.22,2.44-.34.1-2.05-1.14-2.31-2.31-2.26-3.48.16-7,.52-10.45.68-2.21.1-4.44.07-6.65,0s-4.33-.49-6.5-.57c-1.12,0-2.32.28-1.83,2C327.61,370.59,330.46,371.12,333.33,371.39ZM395.56,87.62c.65-.92,1-2-.29-2.73a4,4,0,0,0-5.34,1.26c-3,4.15-5.89,8.31-8.85,12.46-.49.7-1.06,1.35-1.59,2A2.62,2.62,0,0,1,379.1,99c.23-3.42.5-6.85.68-10.27.17-3.19-.39-4-3.79-5.27-.51,1.12-1.51,2.27-1.52,3.45-.15,9-.12,18-.1,27a7.17,7.17,0,0,0,.57,3.29c.46.83,1.63,1.81,2.4,1.75s1.69-1.22,2.12-2.11a4.65,4.65,0,0,0,0-2.53c-.67-3.92.71-7.06,3.69-9.85.38.69.7,1.31,1.06,1.92,2.22,3.76,4.41,7.53,6.69,11.25,1,1.62,2.51,2.1,3.67,1.24,1.45-1.08,1.3-2.46.49-3.88-.1-.17-.2-.35-.3-.51-2.18-3.33-4.37-6.64-6.53-10-.81-1.26-1.57-2.57-2.38-3.91,1.88-2.52,3.66-4.9,5.45-7.27C392.69,91.42,394.17,89.56,395.56,87.62Z"/></svg>