<svg xmlns="http://www.w3.org/2000/svg" viewBox="0 0 750 750"><path d="M606.11,374.86V50.78c0-1.19,0-2.38,0-3.57C605.9,34.35,596.4,25,583.54,25h-397a21.87,21.87,0,0,0-21.9,21.85q0,328.16,0,656.31a20.81,20.81,0,0,0,.59,4.91c2.63,10.65,11.17,16.93,22.92,16.93H583.78c8.15-.14,14.54-3.52,19-10.4,2.7-4.16,3.35-8.81,3.35-13.67Q606.1,537.9,606.11,374.86ZM602,375V701.88c0,11.47-7.55,19-19.07,19H187.67c-9.43,0-16.54-5.32-18.53-13.94a18.54,18.54,0,0,1-.43-4.14q0-327.85,0-655.71a17.73,17.73,0,0,1,18.05-18q198.62,0,397.24,0a17.78,17.78,0,0,1,18,17.45c0,1.52,0,3,0,4.57ZM279.31,396.89c-4.3,8-4.7,16.63-3.83,25.35a11.44,11.44,0,0,0,5.79,9.28c5,2.71,10.41,4.07,15.93,3.05,7.86-1.45,15.66-3.39,23.36-5.55,4.88-1.37,9.54-3.52,14.7-5.46a54.68,54.68,0,0,1,.31,6.39,144.92,144.92,0,0,1-4.58,26q-1.53,6-2.67,12c-.32,1.67,1.48,3.9,3,4.09,2.11.25,2.73-1.21,3.08-2.88,2.11-10,4.35-19.92,6.26-29.92,1.18-6.22,2.5-12.52.08-18.9.9-.53,1.73-1.06,2.6-1.52,10.21-5.49,20.53-10.78,30.61-16.51a29.35,29.35,0,0,0,14.42-19.74c.54-2.34.86-4.74,1.29-7.18,4.44,3.16,10.36,3.14,14.11-1.12,2.23-2.53,4.25-5.25,6.56-7.71,2.54-2.7,5.31-5.19,8.24-8-.92,3.85-1.65,7.41-2.62,10.9a75.51,75.51,0,0,0-3.05,17.38,18.58,18.58,0,0,0,.22,4.54A2.52,2.52,0,0,0,415,393c.66,0,1.41-.91,1.93-1.57.27-.36.14-1,.21-1.55.61-4.53,1.09-9.08,1.87-13.57,1.3-7.5,2.79-15,4.22-22.44a5.63,5.63,0,0,1,.53-1.47c1.26-2.39,2.7-4.7,3.8-7.16a30.49,30.49,0,0,0,2.62-17.81c-.81-4.79-4.79-9.22-9-9.31-6.16-.13-12.19,1.22-16.91,5.26a50.39,50.39,0,0,0-15.49,23.39c-3.5,11-4.14,22.36-5.07,33.69-.43,5.18-1.93,9.61-5.53,13.44-2.5,2.67-5.66,4-8.84,5.48-7.47,3.56-14.72,7.58-22.22,11.07-13.66,6.36-27.72,11.67-42.54,14.66a35.94,35.94,0,0,1-17.51-.5,5,5,0,0,1-3.65-3.77A29.06,29.06,0,0,1,282.25,408c1-6,2.37-11.94,3.82-17.85a13.78,13.78,0,0,0,.53-6,7.81,7.81,0,0,1,2.11-7c1.92,1.78,2.41,3.65,1.19,5.84a3.13,3.13,0,0,0-.24.75c-1.69,6.14,1,11.38,8.24,10.49a23.23,23.23,0,0,0,7.75-2.73c3.13-1.67,6-3.85,9.28-6,1.79,3.2,3.53,6.38,5.35,9.51.39.66,1.17,1.65,1.63,1.59a2.82,2.82,0,0,0,1.94-1.56c.72-2.2,1.1-4.5,1.7-6.73a6.75,6.75,0,0,1,1.08-2.46,32.82,32.82,0,0,0,5.54-10.71c.44-1.38.91-2.77,1.46-4.11,1.58-3.84,4.25-6.76,8.35-7.56a71.24,71.24,0,0,1,12.2-1.2,31.13,31.13,0,0,0,14.06-3.73c5.12-2.67,9.31-6.13,10.46-12.17.39-2.08.64-4.18,1-6.28.64-4.18,1.25-8.37,1.93-12.54.35-2.09,1.17-4.14,1.19-6.22.07-7.78-3.91-13.4-10.39-17.12s-9.28-8.91-9.27-16.11a46,46,0,0,0-.69-8.7,14.24,14.24,0,0,0-12.37-11.76,15.54,15.54,0,0,0-2.81.17c.25.58.27.76.35.8a19.44,19.44,0,0,0,2,.88c6.43,2.14,9.26,6.91,9.73,13.36.14,1.92,0,3.85.12,5.76a44.07,44.07,0,0,0,.51,5.14C361,300,365,304.09,370.3,307.31a25.71,25.71,0,0,1,6.14,5.5c1.36,1.63,2.38,3.92,1.41,6.11a50.93,50.93,0,0,0-4.26,21.21c0,6.66-2.13,13-9.18,15.83a37.81,37.81,0,0,1-9,2.16c-3.21.42-6.5.11-9.72.47-7.81.88-13.35,4.77-15.77,12.52-.53,1.7-1,3.44-1.55,5.13s-1.37,3.43-2.28,5.67a10.52,10.52,0,0,1-.41-1.38c-1.55-14.76-15.17-22.62-25.91-24.23-.66-.1-1.44.53-2.17.82.48.61.84,1.47,1.47,1.77,1.6.78,3.35,1.25,5,1.95,6.18,2.62,11.71,5.91,14.06,12.8a27.3,27.3,0,0,1,1.14,12.4,17.9,17.9,0,0,1-2-2.47c-4-5.53-8.7-10.18-15.23-12.61-6.23-2.33-10.95-1.12-15.37,3.82-.06.07-.22.05-.34.07-1.7-5.91-2.13-13.9,5.59-17.19a2.68,2.68,0,0,0,.66-.43c1.16-1,1.82-2.13.83-3.63-1.09-1.65-2.1-3.35-3.26-4.94-3.34-4.53-3.2-6.6.19-10.93,3-3.85,5.88-7.85,8.52-12a33.83,33.83,0,0,0,2.9-6.72,5.56,5.56,0,0,0-1.67-6.33,57.28,57.28,0,0,0-5-4.18c-2.73-2-2.78-1.94-1.84-5.17a18,18,0,0,1,.63-1.88c3.26-8.35,7-16.5,12.43-23.67,5.59-7.35,12.4-12.86,22.06-13.8a47.46,47.46,0,0,0,4.69-.94c0-.32.09-.64.13-1-1.06-.44-2.1-1.21-3.18-1.26a31.81,31.81,0,0,0-6.54.31c-6.66,1-13,2.87-17.45,8.43-.7.86-1.45,1.67-2.42,2.78-1-6.52-.13-15,1.91-19.77,7.33-17.25,27.2-27,46.63-21.47,14.57,4.18,28.94,9.06,43.43,13.51q18,5.51,36,10.71c8.65,2.5,16.52,6.29,22.33,13.36,8.57,10.41,12.33,22.54,11.95,36-.22,7.6-2.77,14.63-5.26,21.72-4.14,11.83-9.66,22.79-18.82,31.63a38.57,38.57,0,0,0-8.47,12.62,6.88,6.88,0,0,0-.93,2.59c0,.84.46,2.11,1.08,2.37s1.7-.41,2.51-.81c.3-.14.44-.64.61-1,2.93-6.26,7.2-11.52,12-16.44a59.89,59.89,0,0,0,6.72-8.33c5.32-7.87,8.35-16.81,11.58-25.65,3.6-9.84,5-19.92,3.1-30.28-3.57-19.27-13.18-34-32.3-40.94-4.64-1.7-9.57-2.6-14.33-4C398.49,240.76,373.77,233.29,349,226c-11.63-3.45-22.55-2.24-33.12,4.37-14.49,9.08-19.72,27.26-15.66,39.25,1.27,3.74.88,6.4-.8,9.81-3.17,6.4-5.66,13.13-8.29,19.78a36.41,36.41,0,0,0-1.54,6.15,4.71,4.71,0,0,0,1.94,4.89c1.62,1.27,3.21,2.55,4.82,3.83,2.75,2.17,3.1,3.13,1.11,6.13a114.19,114.19,0,0,1-7.53,10c-2.46,2.95-5.23,5.63-7.81,8.47a5.38,5.38,0,0,0-.58,7.13,93.4,93.4,0,0,0,6,7.36,27.48,27.48,0,0,0,2.82,2.43c-4.17,1.17-6.26,3.84-8.08,6.87-3.51,5.83-3.5,15.3.44,19.75a4.81,4.81,0,0,1,.82,5.76C282.2,390.93,280.87,394,279.31,396.89Zm110.74-27.6c.62-6.31,1.15-12.65,2.35-18.87.65-3.35,2.39-6.57,4-9.65,3-5.76,6.25-11.35,11.5-15.5,3.87-3.06,8.28-4,13-3.89,2.46.07,5.09,3.37,5.61,6.7.16,1,.18,2,.26,3,.39,3.95-1.42,7.24-3.33,10.4a45.83,45.83,0,0,1-11.39,13.35c-4.56,3.45-7.64,8.19-10.19,13.27-1.26,2.51-2.64,4.88-5.69,5.71C393.47,374.51,389.78,372.05,390.05,369.29ZM296.88,373c4.84.61,8.6,3.24,12.1,6.38.64.57,1.27,1.15,2.17,2-3.21,1.8-6,3.52-9,5a10.52,10.52,0,0,1-7.57.48c-1.56-.4-1.9-1.4-1.56-3a5.1,5.1,0,0,1,4.35-4.22c.52-.11,1.17-.1,1.52-.42a13.39,13.39,0,0,0,1.49-2c-.75-.37-1.58-1.15-2.25-1a37.71,37.71,0,0,0-4.94,1.59l-2.39-2.6C291.59,373.69,294.24,372.72,296.88,373Zm218.48-32.81c.52-2.3-.56-3.17-2.74-2.36a8.73,8.73,0,0,0-1.08.49c-5.45,2.87-10.89,5.76-16.35,8.61-1.67.87-3.75,1.24-5.07,2.45q-17,15.7-33.79,31.65-22.54,21.27-45,42.62c-12.55,11.89-25.14,23.74-37.63,35.7Q346.27,485.64,319,512c-1.36,1.31-2.89,2.44-4.47,3.75-4.1-4.58-7.14-9.33-7.3-15.45,0-1.35-.36-2.55-1.83-3a2.53,2.53,0,0,0-3.17,1.74,34.07,34.07,0,0,0-2.08,6.39c-1.58,8.76,1.73,16.39,5.79,23.81.52,1,1.1,1.9,1.66,2.84-6.61,3.64-6.58,3.66-10,10.19a5.43,5.43,0,0,1-2.06,1.88c-2.3,1.38-4.49,2.76-5.34,5.57a2.88,2.88,0,0,1-1.73,1.56,7.07,7.07,0,0,0-4.35,3.48c-1.12,1.91-2.59,3.61-3.78,5.49a8.06,8.06,0,0,0-1.36,3.22,2.57,2.57,0,0,1-1.56,2.22c-3.56,2-5.29,7.1-3.68,10.5A11.05,11.05,0,0,0,285,582.3c4.48-.73,6.71-3.32,7.41-8.61a1,1,0,0,1,.35-.16c6.13-.08,7.63-1.15,9.72-6.87a1.37,1.37,0,0,1,.9-.82c3.89-.05,5.49-2.67,6.72-5.78a2.17,2.17,0,0,1,1.09-1.25c2.45-.72,3.74-2.57,4.95-4.61a6.67,6.67,0,0,1,1.77-1.65,22.11,22.11,0,0,0,2.67-2,38.14,38.14,0,0,0,2.72-3.63c1,.68,2,1.32,2.9,1.91,2.53,1.56,4.93,3.42,7.63,4.6,7.09,3.1,13.95,2.7,20.17-2.29a6.9,6.9,0,0,0,1.21-2.11c-.76-.28-1.6-.9-2.29-.77-5.45,1-13.11-2.52-16-7.63,5.72-6.49,11.35-13.16,17.29-19.55,7.39-8,15-15.69,22.55-23.54q7.69-8,15.35-16.11,20.24-21.48,40.43-43c8.95-9.5,17.95-18.94,26.89-28.45q19.4-20.64,38.72-41.33c2.84-3,5.63-6,7.48-9.88,2.39-5,5.47-9.67,8.17-14.54A15.38,15.38,0,0,0,515.36,340.23Zm-15.24,8.34-12,11.87C489.65,354.23,493.84,350.27,500.12,348.57Zm-182.26,168c5-4.71,10.13-9.33,15.16-14q17.28-16.14,34.5-32.33c12.63-11.81,25.31-23.56,37.91-35.39,9.17-8.61,18.24-17.34,27.39-26q20.81-19.63,41.66-39.23c3.13-2.95,6.23-5.94,9.35-8.9.36-.34.78-.61,1.6-1.24-1.34,3.61-2.29,6.65-4.83,9.21Q439.53,410,398.67,451.5c-11.82,12-23.65,23.95-35.31,36.08s-24.89,22.35-40.31,29.48a36.38,36.38,0,0,1-3.55,1.74c-.6.2-1.4-.23-2.11-.38C317.54,517.81,317.48,517,317.86,516.61Zm14.84,7.54c-.42-2.62-.51-2.54-3.17-2.46-2.44.08-5,.82-7.59-.67l21.36-10.67L333.35,532l-.61-.19c0-1.77,0-3.53,0-5.3A14.54,14.54,0,0,0,332.7,524.15ZM303.27,542.2a3.9,3.9,0,0,1,4-3.84c-.65,2-1.32,4.11-2,6.29C303.48,544.91,303.06,544,303.27,542.2Zm-21.93,35.19c-1.65,0-4.12-2.37-4.08-4,.05-2.48,2.08-5.08,3.92-5,2,0,4.65,2.27,4.66,4C285.86,574.47,283.27,577.37,281.34,577.39Zm12.31-8.77a3.38,3.38,0,0,1-4.09.1,37.07,37.07,0,0,1-3.19-2c-.63-.49-1.57-1.57-1.4-1.91a6.31,6.31,0,0,1,2.27-2.43,3.4,3.4,0,0,1,2.32,0c2.44.59,4.84,1.3,8.06,2.19A44.84,44.84,0,0,1,293.65,568.62Zm4.37-8.17c-3-.64-5.91-1.35-9-2.06.89-3.43,3.26-5,6.68-3.95a84.82,84.82,0,0,1,8.52,3.56C302.91,560.29,300.89,561.07,298,560.45Zm4.25-7.47c-2-.94-4.07-1.77-6.11-2.65,1.93-4.07,8.21-3.19,14.16.85C307.64,554.23,305.71,554.61,302.27,553Zm10-13.59c2.53-4,.15-7.27-1.54-10.72-1.91-3.91-3.61-7.93-5.3-11.95a15.15,15.15,0,0,1-.64-3.27l.52-.31a29,29,0,0,0,16.51,16.49l-9.24,10.12A3.09,3.09,0,0,1,312.31,539.39Zm7,7.59a4.32,4.32,0,0,1-6.25,1.6c1.66-1.1,3.14-2.17,4.72-3.08.47-.27,1.2-.1,1.8-.13A4.61,4.61,0,0,1,319.34,547Zm20.38,2.61c-.08.15-.15.31-.22.47-2.18-1.07-4.41-2-6.51-3.22s-4.09-2.67-6.12-4c-3.82-2.6-6.49-3.06-11.33-1.78,2.84-2.79,5.46-5.37,8.17-8C326.73,540.7,333.27,545.1,339.72,549.59Zm-5-11.71c-.06-1-.49-2.09-.13-2.8,4-7.91,7.63-16.07,13-23.15,5.1-6.67,10-13.61,15.9-19.53,33.74-33.83,67.75-67.39,101.66-101,6.44-6.4,12.69-13,19.31-19.21,2.47-2.31,5.75-3.76,8.67-5.6l.43.62Zm160-175.31c3.3-3.15,6.91-6.61,9.79-9.35A11.33,11.33,0,0,1,494.67,362.57ZM208.78,679.15a21.16,21.16,0,0,0-14.32-7V419.3c-3,1.28-4.18,3-4.12,6.18.24,11.86.09,23.72.09,35.58V675.29c12.61,2.26,21,8.49,21.93,22.26h4.53c37.77,0,75.53,0,113.3.1,3.51,0,5.35-1.84,7.28-4.31H215.68A24.73,24.73,0,0,0,208.78,679.15Zm371.61-7.08q0-123.45.1-246.89c0-3.24-1.51-4.59-4.15-6V672c-10.23.92-19.45,9.7-21.35,21.5H433c2.42,2.83,4.86,4.43,8.56,4.12,4.41-.36,8.87-.09,13.3-.09H558.47c.95-13.86,9.44-20,21.92-22.29ZM191.23,76.37q0,118.31-.09,236.59c0,3.33,1.58,4.65,4.3,6.17V76.06c10.47-.84,19.52-10.31,21.12-21.42H338.78c-2.49-2.38-4.4-4.46-8-4.15-4.61.38-9.27.09-13.9.09l-102.59,0a6.53,6.53,0,0,0-1.13.18c-1,13.74-9.41,19.9-21.92,22.14Zm371.68-7.31a21.37,21.37,0,0,0,14.17,7V319c2.92-1.32,4.31-2.93,4.2-6.17-.27-8.47-.09-17-.09-25.44V72.88c-12.6-2.37-21-8.53-21.92-22.29h-3.86c-38.16,0-76.32,0-114.48-.09-3.41,0-4.89,2.12-6.83,4.22H555.9A25.29,25.29,0,0,0,562.91,69.06ZM428.82,165.8c0-.77-.63-1.58-1-2.36-.82.37-1.68.7-2.47,1.15-.31.18-.49.61-.7.94l-7.4,12L405.7,196.41c-.3-.66-.49-1-.63-1.38-2.52-6.69-5-13.4-7.57-20.06-1.18-3-2.56-6-4-8.87a2,2,0,0,0-1.68-.83,2.37,2.37,0,0,0-1.35,1.42,7.52,7.52,0,0,0-.23,2.56c.42,16.95.83,33.9,1.34,50.84a3,3,0,0,0,1.45,2.25c9.33,3.56,18.64,7.22,28.46,9.27a3.27,3.27,0,0,0,2.54-.9,59,59,0,0,0,4.71-5.63q11.84-15.83,23.59-31.74a49,49,0,0,0,3.55-5.49,2.5,2.5,0,0,0-.33-2.09c-.21-.32-1.21-.37-1.73-.19A13.12,13.12,0,0,0,451,187q-11.38,7.47-22.74,15l-2,1.28c.56-8.25,1.11-16.11,1.64-24C428.29,174.79,428.63,170.3,428.82,165.8ZM399,220.49c-4.14-.4-4.57-.11-3.62-5.66l4.52,2Zm7.12,2.51-3.46-1.12c.17-1.21.34-2.35.54-3.75l3.92,1.56C406.73,220.86,406.43,221.85,406.08,223Zm-9.85-10.42a2.36,2.36,0,0,1-1.11-1.83c-.44-9.59-.78-19.19-1.17-28.79a44.9,44.9,0,0,1,0-6.67c.21.53.45,1.05.64,1.59,2.82,7.85,5.59,15.71,8.51,23.52a4.67,4.67,0,0,0,2.36,2.23c1.4.64,2.16-.6,2.78-1.62q5.35-8.83,10.66-17.69a16.6,16.6,0,0,1,1.57-2.32l-12.38,35C404.09,214.88,400.13,213.82,396.23,212.58Zm17.68,12.94L410,224.19l1.06-2.92,4.07,1.48C414.73,223.69,414.37,224.51,413.91,225.52Zm3.77,1.32c.35-.86.7-1.74,1.12-2.8l4.27,1.56C422.08,228.7,421.6,228.81,417.68,226.84Zm28.42-32.59,1.6-1.11.37.36c-1.59,2-3.2,4-4.77,6-5.55,7.17-11.13,14.32-16.59,21.56-1,1.34-1.73,1.43-3.22.79-3.58-1.52-7.29-2.75-11-4.13l10.71-35.46h.2c-.33,4-.68,7.92-1,11.88-.29,3.77-.54,7.53-.79,11.29-.07,1.21-.19,2.64,1.3,3a4.68,4.68,0,0,0,3.23-.42C432.86,203.49,439.47,198.85,446.1,194.25Zm-90.52-68.54H415V76.16H355.58Zm4.17-45.41h51.19v41.4H359.75Zm77,577.77c.72-.75,1.87-1.38,2.09-2.25,2.74-10.71,5.35-21.44,8-32.17.56-2.33.42-2.41-1.88-2.84-1.71-.32-2.27.72-2.58,2-.78,3.29-1.51,6.59-2.28,9.88-.91,3.88-1.85,7.76-2.77,11.64-.93-2.09-1.38-4.24-2.18-6.24-.38-1-1.38-2.18-2.24-2.31a2.93,2.93,0,0,0-3.25,2.31c-.64,2.07-1.42,4.11-2.15,6.16l-.37,0c-.55-2.72-1.05-5.46-1.66-8.17-1-4.32-2-8.62-3.06-12.92a1.63,1.63,0,0,0-2.23-1.31c-1.2.25-1.77.85-1.73,2a23.58,23.58,0,0,0,.31,3.36c1.58,8.87,3.17,17.73,4.83,26.59.27,1.45,0,3.56,2.23,3.69s2.21-2,2.73-3.37c1-2.7,1.86-5.46,2.78-8.19,1.33,3.33,2.17,6.65,3.29,9.88C434.85,656.75,436,657.34,436.71,658.07ZM295.2,633.48c.19.61.43,1.21.58,1.83,1.31,5.2,2.51,10.43,3.93,15.59a41,41,0,0,0,2.64,6.83,2.68,2.68,0,0,0,2.2,1.13,3.14,3.14,0,0,0,2.23-1.51,13.17,13.17,0,0,0,.84-4.25q.9-14.48,1.67-29a5.89,5.89,0,0,0-.47-2.7,2.27,2.27,0,0,0-1.64-1.1c-.48,0-1.16.55-1.5,1a3.55,3.55,0,0,0-.44,1.7c-.39,4.75-.77,9.5-1.11,14.26-.25,3.33-.45,6.66-.66,10a4.4,4.4,0,0,1-1-1.87c-2.53-7.67-5-15.34-7.65-23-.24-.72-1.17-1.21-1.78-1.81-.4.7-.82,1.39-1.19,2.1a1.83,1.83,0,0,0-.12.78c-.36,10.59-.73,21.18-1,31.77-.05,1.53,0,3.43,2.13,3.38s1.89-2,1.91-3.38c0-4.5,0-9,0-13.51,0-2.76,0-5.53,0-8.29ZM273,238.61a3.88,3.88,0,0,0-1.48-.63c-3.35-1.17-6.78-2.17-10-3.62-2.43-1.08-3.59-3.29-3.92-6-.47-3.88-1.21-7.72-1.84-11.57-.32-2-.65-4-1-6a1.76,1.76,0,0,0-.68,1.12c-.83,5.09-1.92,10.16-2.37,15.29-.39,4.47-2.75,7-6.6,8.52-2.88,1.11-5.9,1.86-9.16,2.87a13.24,13.24,0,0,1,1.46.31c3.47,1.23,7,2.3,10.37,3.77a6.47,6.47,0,0,1,3.66,5.35c.53,3.73,1.13,7.45,1.73,11.18.37,2.31.78,4.61,1.17,6.92a2.86,2.86,0,0,0,.73-1.54c.83-5.1,1.87-10.17,2.38-15.29a8.82,8.82,0,0,1,5.65-7.7,44.61,44.61,0,0,1,5.39-2C270,239.17,271.5,238.93,273,238.61Zm216,249c.81-5,1.9-9.91,2.3-14.91s3.15-7.64,7.46-9.21c1.67-.61,3.4-1.07,5.12-1.55,1-.29,2.07-.48,3.1-.71a7.61,7.61,0,0,0-2-.72c-3.33-1.22-6.73-2.31-9.93-3.81-2-1-3.06-2.91-3.39-5.29-.79-5.7-1.79-11.38-2.72-17.06a7.85,7.85,0,0,0-.57-1.29c-1,6-2.16,11.58-2.74,17.23-.42,4.09-2.63,6.36-6,7.87a43.3,43.3,0,0,1-5.24,1.83c-1.4.41-2.86.65-4.3,1a2.91,2.91,0,0,0,1.29.59c3.25,1.08,6.59,2,9.72,3.32,2.69,1.16,4.07,3.45,4.47,6.54.74,5.83,1.82,11.61,2.86,18A17.29,17.29,0,0,0,489,487.62ZM476.58,645.84a65.68,65.68,0,0,0,2.59,6,35.36,35.36,0,0,0,3.55,5.2c.77.95,2,1.57,3.13.53a2.52,2.52,0,0,0,.27-3.41c-1.81-3-3.39-6.14-5.16-9.16-.71-1.2-.48-1.91.48-2.87a15.29,15.29,0,0,0,4.88-13.1c-.47-4-2.48-7-6.38-8.35s-7.57-.16-10.66,2.55c-1,.91-1.59,2-.21,3.18a1.73,1.73,0,0,1,.45,1.2c.08,6.35.12,12.7.18,19.05,0,2.84.08,5.68.07,8.53,0,1.79.84,2.76,2.61,2.78,2,0,2.12-1.54,2.19-2.92.12-2.38.13-4.77.08-7.15C474.62,646.67,475,645.88,476.58,645.84Zm-2.66-20.15a1.9,1.9,0,0,1,1.18-1.36,5,5,0,0,1,6,3.89c.91,4.39.29,9.57-3.86,12.52-.68.48-1.45.83-2.46,1.4C474.46,636.37,474.13,631,473.92,625.69Zm16.84,5.1c.3,7.74.54,15.48.94,23.21.17,3.14,1.7,3.79,4.33,2.08,8.18-5.34,12.05-13.07,12.59-22.05-.18-4.91-1.14-8.89-4.53-11.89-3.9-3.45-10.84-3.34-14.6.24-.82.79-1.56,2-.07,2.49s1.35,1.13,1.34,2.14C490.74,628.27,490.72,629.53,490.76,630.79Zm13.31-.34c1,7.65-2,13.79-7.42,19.29-.49-8.87-1-17.42-1.44-26C499.76,622.16,503.49,626,504.07,630.45ZM258.55,650.59c1.06,2.64,2.25,5.23,3.55,7.75.76,1.49,2.6,2,3.2.91a4.16,4.16,0,0,0,.15-3.25c-2.48-6-5.09-11.92-7.76-17.82a3.16,3.16,0,0,1,.16-3.31c2.4-4,4.77-8,7-12,.41-.75.54-2.37.1-2.74-1.15-1-2,.23-2.72,1.08a5.46,5.46,0,0,0-.36.48q-4.63,7.17-9.26,14.34c-.34.52-.66,1-1,1.56a17.73,17.73,0,0,1-.15-3.45c0-4-.08-8.07-.27-12.1a3.5,3.5,0,0,0-1.23-2,1.63,1.63,0,0,0-1.55.32,4.58,4.58,0,0,0-.81,2.35c-.3,10.92-.54,21.84-.78,32.76a8.29,8.29,0,0,0,.09,1.58c.23,1.22.66,2.63,2.12,2.33a3.3,3.3,0,0,0,1.94-2.26,20,20,0,0,0,.24-5.92c-.51-4,1-7.2,3.66-10.37C256.15,644.19,257.26,647.43,258.55,650.59Zm109.18-16.92a6.33,6.33,0,0,0-.23-1.37,17.39,17.39,0,0,0-.73-1.8,7.72,7.72,0,0,1-1-2.09c-.37-3-2.76-6.27-5.28-6.9-2.36-.59-5.25.72-7,3.58a27.08,27.08,0,0,0-3.53,7.46,32.92,32.92,0,0,0-.59,13.8c.82,4.12,2,8.1,5.11,11.2,2.58,2.54,5.76,2.75,8.21.1a12.89,12.89,0,0,0,3-4.83c1.22-4.3,2-8.71,3-13.08l-.51-.13C368.07,637.63,367.91,635.65,367.73,633.67ZM364,641.2a60.82,60.82,0,0,1-1.65,8.92A7.66,7.66,0,0,1,361,653c-.64.84-1.6,2-2.39,2s-1.9-1.21-2.25-2.13a31.94,31.94,0,0,1,.76-25.58,13.11,13.11,0,0,1,2.4-2.74c.86.57,1.51.78,1.79,1.23,1.2,1.89,2.9,3.37,2.48,6.21C363.35,635,364.24,638.13,364,641.2Zm-42.9-14a4.22,4.22,0,0,1,2.79-2.38c1,0,2.26,1.12,3.07,2.05.59.68.49,1.92,1,2.75a12.38,12.38,0,0,0,1.93,2.12c.56-.78,1.52-1.51,1.62-2.34a8.52,8.52,0,0,0-5.81-8.75c-3.12-.89-6.71,1.12-8.48,4.75-.12.24-.24.48-.34.72a41.1,41.1,0,0,0-2.14,24.37,19.8,19.8,0,0,0,2.26,5.86c2.12,3.59,6.49,4.2,9.76,1.6,3.52-2.79,4.91-6.64,5.34-10.93a2.21,2.21,0,0,0-1.88-2.64,47.37,47.37,0,0,0-6.51-.45,2.25,2.25,0,0,0-2.34,2.46,2.46,2.46,0,0,0,2.35,2.52c1.17.16,2.37.14,3.71.21-.65,2.91-3,5.88-4.75,5.63-2.71-.4-3-2.85-3.48-4.93a39.21,39.21,0,0,1,1.93-22.62Zm143.2-.32c-2.5-5.53-10.59-5.83-13.6-1.25a26.3,26.3,0,0,0-2.87,5.18,27.38,27.38,0,0,0-.92,16.78,20.31,20.31,0,0,0,3.62,7.15c2.78,3.5,7.06,3.67,10.27.52a15.53,15.53,0,0,0,3.83-5.67,109.2,109.2,0,0,0,2.75-10.86l-.59-.13A26.17,26.17,0,0,0,464.33,626.85Zm-4.57,23.42c-1.84,2.73-2.92,2.8-5.32.69-3.09-2.7-3.72-6.24-3.77-10.11.33-2.54.53-5.12,1-7.63a11.28,11.28,0,0,1,4.15-6.59c1.65-1.35,2.65-1.23,4,.38,2.16,2.54,2.89,5.61,3.11,8.82C463.36,641,462.7,645.89,459.76,650.27Zm-108.44-341a2.56,2.56,0,0,0-.56-2.18,20.7,20.7,0,0,0-3.24-1.9,60.8,60.8,0,0,0-30.44-8.45,41.12,41.12,0,0,0-5.48.61c-.83.18-2,1.25-2.06,1.94a25,25,0,0,0,.61,7.39c.8,2.88,1.61,3,4.25,1.71a7.31,7.31,0,0,1,.92-.36c10.3-3.62,20.55-3.06,30.75.38,1.12.38,2.13,1.13,3.26,1.41C350,310,351.22,309.66,351.32,309.3ZM416.1,648a12.93,12.93,0,0,0-5.58-9.41,60,60,0,0,1-6.89-5.63c-2-1.91-1.74-3.13.35-5s4.17-1.87,5.6-.07c.6.76.59,2,1,2.9.28.57.87,1.33,1.36,1.36a2.16,2.16,0,0,0,1.62-1.07,4.63,4.63,0,0,0,.33-2.32c-.31-4.8-5.91-8-10.35-5.86-6.14,2.89-7.55,8.69-3.09,13.78a58.65,58.65,0,0,0,6.92,6.22c1.83,1.53,3.31,3.17,3.73,5.64.58,3.46-.36,5-3.77,5.68-2.21.47-3.68-.58-4.8-2.36-.83-1.32-2-2.12-3.47-1.15s-1.29,2.39-.54,3.71a8.87,8.87,0,0,0,7.52,4.74C412.52,658.55,417,655.34,416.1,648Zm103.44,4.89c-1.93.33-3.32-1-4.06-3.4-.21-.71-1.12-1.22-1.71-1.82-.68.77-1.82,1.45-2,2.31-.66,3.6,2.78,7.34,6.48,7.3,2.56,0,5.06-.49,6.38-2.85a16.75,16.75,0,0,0,2.11-6.09c.52-4.69-1.7-8.4-4.93-11.64a31.61,31.61,0,0,1-4.92-5.64,9.36,9.36,0,0,1-.81-5,2.84,2.84,0,0,1,2-2,3.48,3.48,0,0,1,2.63,1.47c.82,1.31,1.06,3,1.77,4.38.32.65,1.16,1,1.76,1.53.45-.66,1.24-1.3,1.27-2a9.51,9.51,0,0,0-2.54-7.29,6,6,0,0,0-8-.76c-3.48,2.46-5,7.2-2.9,10.88,2,3.46,4.8,6.44,7,9.77a24.19,24.19,0,0,1,3,6.13A3.89,3.89,0,0,1,519.54,652.85Zm-142,2.52c0-4.48,0-9,0-13.62a44.24,44.24,0,0,0,4.66,0,2.21,2.21,0,0,0,2.15-2.59c-.16-1.42-1.22-2-2.56-1.94s-2.74.14-4.29.23c-.22-4-.43-7.89-.66-12,1.58,0,2.89.06,4.19,0a18.74,18.74,0,0,0,4.11-.54c.8-.25,1.41-1.11,2.11-1.69-.71-.57-1.38-1.56-2.13-1.63a59,59,0,0,0-8.09-.2c-3.94.19-4.53.84-4.54,4.83,0,9.46,0,18.93,0,28.39a5,5,0,0,0,.4,2.51,3.48,3.48,0,0,0,2.13,1.56C376.93,658.86,377.53,657.89,377.5,655.37ZM225.32,654a3.65,3.65,0,0,0,3.39-.2,25.76,25.76,0,0,0,5-5.24c5.72-8.19,1.79-15.39-5.35-19.54-1.27-.73-2.75-1.19-4.09-.07s-.9,2.63-.39,4c.37,1,.89,2,1.27,2.82-3.5.57-6.9,1-10.25,1.71-1.67.35-3.49,1.12-3.47,3.23s1.94,2.62,3.51,2.91c3.74.69,7.54,1.13,11.24,1.66a33.36,33.36,0,0,0-2,5.48A3.79,3.79,0,0,0,225.32,654Zm2-2.62-.7-.34a38.26,38.26,0,0,1,2.9-6.13c.58-.84,2.27-.92,3.46-1.35A15.25,15.25,0,0,1,227.29,651.39Zm6-14.32c-4.42.18-6.43-2-7.08-6.36C229.58,632,231.6,634.25,233.27,637.07Zm-18.66,3.67a34.41,34.41,0,0,1,19.28-.39C231.3,642.75,218.57,643,214.61,640.74Zm200-581.59c2.45.83,4.11-.86,3.44-3.36a38.34,38.34,0,0,0-1.65-4.18c.73,0,1.37,0,2-.12,2.75-.39,5.52-.68,8.23-1.26,1.67-.36,3.51-1.11,3.56-3.19s-1.88-2.67-3.45-3c-3.75-.71-7.55-1.15-11.37-1.71.59-1.39,1.41-3,1.94-4.65.47-1.47.64-3.1-.9-4.14a3.07,3.07,0,0,0-4.15.71,39.7,39.7,0,0,0-5.87,7.63C402.24,49.8,409,57.26,414.56,59.15Zm.09-23c-.41,4.86-2.42,7.29-6.36,7.79A18.53,18.53,0,0,1,414.65,36.11Zm12.78,10.33c-3.48,2.56-16,2.74-20,.3C414.29,44.8,420.63,45.07,427.43,46.44ZM415.39,57a13.4,13.4,0,0,1-7.05-6.36C412.8,50.45,414.8,52.72,415.39,57Zm182,334.39a34.17,34.17,0,0,0-6.69-4.87c-7.89-4.14-15.39,2.35-17.41,8.12-.88,2.52.89,4.19,3.49,3.45a41.77,41.77,0,0,0,4.07-1.64c0,.78,0,1.38.1,1.95a87.83,87.83,0,0,0,1.69,9.32,4,4,0,0,0,2.87,2.4c.78.08,2.22-1.44,2.49-2.48a74.36,74.36,0,0,0,1.6-8.92,26.32,26.32,0,0,0,0-3.57c1.5.73,2.71,1.4,4,1.91,2.5,1,4.36.74,5.28-.59S599.39,393.16,597.39,391.37Zm-21.52,4.14c0-2.26,2.23-4.91,6-7C581.81,393.17,579.84,394.65,575.87,395.51Zm9.77,11.58c-2.21-3.16-2.36-15.69-.22-19.09C587.56,391.05,587.71,403.8,585.64,407.09Zm2.91-18.71a18.69,18.69,0,0,1,7.77,6.39C591.35,394.29,589,392.35,588.55,388.38Zm-41.4,254.06a55,55,0,0,0,8.68-1.79c2.64-.87,2.77-3.27.35-4.7a12.69,12.69,0,0,0-4.27-1.44c-2.58-.44-5.2-.63-7.93-1,.48-1.06,1-2,1.39-3.07.48-1.32.93-2.72-.35-3.86s-2.79-.72-4.08,0a15.53,15.53,0,0,0-7.33,7.77,10,10,0,0,0-.85,4c.23,5.23,3.06,9.14,6.82,12.47,1.21,1.06,2.7,1.93,4.33.92s1.45-2.87.92-4.47-1.33-3.11-2.09-4.84A29.3,29.3,0,0,0,547.15,642.44ZM543,628.32c-.51,4.06-2.42,6.53-7,6.4A13.41,13.41,0,0,1,543,628.32Zm-7,13.11c3.79.46,6,3.2,6.17,7.39C540.15,648.09,537.42,644.86,536.06,641.43Zm-1-3.38a37.8,37.8,0,0,1,19.92.12C551.92,640.53,539.14,640.51,535,638.05ZM343.91,49.33a13.84,13.84,0,0,0,4.46,1.51c2.5.44,5.06.6,7.65.89a36.55,36.55,0,0,0-1.6,4.05c-.67,2.51.91,4,3.43,3.4a5.7,5.7,0,0,0,1.64-.66c7.21-4.42,10.65-11.52,5-19.48a22.25,22.25,0,0,0-5.4-5.38c-2.17-1.51-4.31,0-4.14,2.6a12.6,12.6,0,0,0,.89,3.42,34.12,34.12,0,0,0,1.58,3.13,25.3,25.3,0,0,0-3.72,0c-3.18.51-6.37,1-9.48,1.83a3.08,3.08,0,0,0-1.85,2.21A3.22,3.22,0,0,0,343.91,49.33Zm13.18,7.6c.17-3.28,2.12-6.56,7-6.35C362.41,53.46,360.39,55.77,357.09,56.93Zm7.08-13c-4-.63-6.35-3.57-6.3-7.76A18.33,18.33,0,0,1,364.17,44Zm.31,3a29.43,29.43,0,0,1-19-.22C351.8,45.05,358.16,44.82,364.48,47Zm-81,576.44c1.62,0,3.64-.09,3.71-2.09s-2.06-2.16-3.58-2.18c-3.44,0-6.89,0-10.32.29-.74,0-1.41,1-2.12,1.59.59.62,1.07,1.51,1.79,1.79a16.93,16.93,0,0,0,3.61.58c-.43,10.72-.86,21.33-1.29,32-1,.11-1.89.18-2.78.34-1.15.2-2.31.52-2.3,2s1.12,2,2.29,2c3.43,0,6.86,0,10.28-.22a2.53,2.53,0,0,0,1.74-1.72,2.76,2.76,0,0,0-1.46-2,12.4,12.4,0,0,0-3.28-.65V623.43C281.11,623.43,282.28,623.46,283.45,623.43Zm-102.23-226c.56,3.63,1.05,7.28,1.84,10.87a3,3,0,0,0,2.2,1.86,3.28,3.28,0,0,0,2.46-1.52,12.69,12.69,0,0,0,1.47-4.26c.45-2.57.64-5.2.95-7.93,1.05.48,2,1,3.06,1.38,1.32.49,2.72.94,3.86-.34s.73-2.76.05-4.07a15.5,15.5,0,0,0-7.23-7.1,10.35,10.35,0,0,0-4.57-1.07c-5.23.18-9.14,3-12.47,6.8-1.07,1.2-2,2.7-.94,4.32,1.16,1.81,3,1.45,4.65.88s3-1.3,4.65-2A14.76,14.76,0,0,0,181.22,397.42Zm14.06-2.15c-3.34.63-6.15-2.44-6.29-6.92C191.84,390.21,194.19,392.13,195.28,395.27ZM185.4,388c2.14,3.34,2,15.88-.2,19.1C183.12,403.93,183.25,391.13,185.4,388Zm-10.53,6.82a12.8,12.8,0,0,1,7.6-6c-.38,1.15-.41,2.82-1.21,3.36A21.2,21.2,0,0,1,174.87,394.81Zm419.87-59.56c-1.68.54-3.27,1.36-5.14,2.15a28.13,28.13,0,0,0-.05-4.7,56,56,0,0,0-2-8.83c-.7-2-2.72-2.11-4.06-.4a6.53,6.53,0,0,0-1.3,2.64c-.5,2.79-.82,5.62-1.21,8.43-.07.53-.12,1.07-.2,1.7-1.21-.56-2.14-1.07-3.12-1.43-1.32-.49-2.73-.94-3.87.35s-.72,2.78,0,4.09a15.55,15.55,0,0,0,7.44,7.17,10.11,10.11,0,0,0,4.4,1c5.31-.24,9.27-3.14,12.59-7,1-1.18,1.73-2.64.71-4.18S596.21,334.79,594.74,335.25Zm-19,1.94c3.88.53,6.18,2.44,6.07,7C577.86,341.69,576,339.56,575.78,337.19Zm9.93,7.83c-2.42-3.62-2.31-16.14.16-19.46A37.47,37.47,0,0,1,585.71,345Zm2.91-.79c.18-3.78,3.07-6.19,7.71-6.28A19.54,19.54,0,0,1,588.62,344.23ZM357.06,689c-2.43-.83-4.1.88-3.44,3.36a38.46,38.46,0,0,0,1.6,4.07c-2.64.29-5.26.47-7.83.92a13.07,13.07,0,0,0-4.44,1.56c-2.24,1.35-2.05,3.38.28,4.53a10.12,10.12,0,0,0,3,1c3.38.48,6.77.81,10.15,1.2-.61,1.43-1.43,3-2,4.67s-.71,3.23.94,4.29a3.11,3.11,0,0,0,4.14-.79,39.6,39.6,0,0,0,5.84-7.64C369.36,698.32,362.67,690.89,357.06,689Zm.58,23.1-1-.57a36,36,0,0,1,2.78-6c.63-.91,2.31-1.09,3.51-1.61l.59.78Zm-13-10.62c2.54-2.26,15-2.55,19.21-.35C360.37,703.23,348.43,703.39,344.63,701.46Zm11.64-10.24c3.35,1.12,5.34,3.48,7,6.33C358.58,697.7,356.65,695,356.27,691.22Zm69,6.55c-3.16-.62-6.37-1-9.67-1.49A14.23,14.23,0,0,0,417,693c.16-1.13.19-2.86-.47-3.38a4.21,4.21,0,0,0-3.6-.27,14.41,14.41,0,0,0-7.8,8,10.68,10.68,0,0,0-.74,4.25c.18,4.65,2.79,8.16,5.9,11.31a8.41,8.41,0,0,0,3,1.89,2.36,2.36,0,0,0,3.38-2.38,25.84,25.84,0,0,0-1.48-5.28,8.4,8.4,0,0,0-.76-1.46c3.69-.48,7.31-.82,10.86-1.47,1.74-.32,4.05-.71,4.07-3.07S427.16,698.14,425.27,697.77Zm-10.58-6.62c-1,4.56-2.47,6.34-7.18,6.44C409.21,694.67,411.23,692.37,414.69,691.15Zm-7,13.23c3.53,0,6.06,3,6.08,7.3C411.62,710.83,408.86,707.52,407.69,704.38Zm-.59-3.22c3.14-2.16,15.65-2.07,19.09.14C423.17,703.39,410.38,703.29,407.1,701.16ZM184.22,347.23c5.19.55,12.31-4.31,13.39-9.37.52-2.43-1-4-3.34-3.35a39.94,39.94,0,0,0-4.29,1.68,17.8,17.8,0,0,0-.1-1.91A87.8,87.8,0,0,0,188.2,325a4.44,4.44,0,0,0-2.86-2.51c-1.49-.35-2.28,1.2-2.57,2.51-.62,2.82-1.11,5.68-1.52,8.54a28.1,28.1,0,0,0,0,3.9c-1.85-.79-3.43-1.61-5.11-2.14-1.46-.46-3.09-.64-4.14.9s-.34,3,.68,4.17C175.75,343.86,179.25,346.71,184.22,347.23ZM195,337.13c0,2.26-2.18,4.85-6,7C189,339.46,191.16,337.87,195,337.13Zm-10.1-12c2.53,3.43,2.71,15.93.27,20A40.11,40.11,0,0,1,184.86,325.14Zm-2.58,18.74c-2.41-.39-6.21-3.37-7.49-5.95C179.12,338.15,181.74,340.28,182.28,343.88Zm4.94,338.43c-1.46.12-2.93.63-3.25,2.4s.74,2.8,2.08,3.49c1.69.85,3.48,1.49,5.31,2.26l-1.27,1.19c-2.87,2.7-5.45,5.62-6.9,9.34-1,2.48.27,4.11,2.84,3.52a14.52,14.52,0,0,0,4.77-2.26c2-1.39,3.9-3.06,5.85-4.63a33.1,33.1,0,0,0,1.64,4c1.37,2.42,3.9,2.38,5-.18a17.28,17.28,0,0,0,1.24-5.56c.22-3.53-.49-7-3.13-9.51C197.45,682.66,192.45,681.86,187.22,682.31Zm-.4,3a19,19,0,0,1,10.12,1.06C193.93,689,191.07,688.7,186.82,685.34Zm-1.24,16.28a31.89,31.89,0,0,1,13.82-13.26A29.47,29.47,0,0,1,185.58,701.62Zm15.48-.74c-2.75-3.19-2.49-6.47.6-9.66A14.41,14.41,0,0,1,201.06,700.88ZM585.45,697c-1.88-2.3-3.87-4.49-5.78-6.68,1.56-.64,3.29-1.23,4.92-2,1.4-.7,2.59-1.77,2.26-3.58a3,3,0,0,0-3.42-2.41,42,42,0,0,0-9,1.14c-8.77,2.44-9.58,12.46-6.84,18.19,1.14,2.41,3.58,2.37,4.91,0a36,36,0,0,0,1.72-4.21,17.1,17.1,0,0,0,1.72,1.59,66.43,66.43,0,0,0,7.34,5,4.66,4.66,0,0,0,4-.19c1.39-.88.59-2.52,0-3.77A15.91,15.91,0,0,0,585.45,697Zm-1.58-11.68c-3.6,3.24-7,3.58-10,1C577.15,685.33,580.32,684.58,583.87,685.35Zm-14,15.28c-1.45-2.18-1.66-4.77-.75-9.29C572.46,694,572.48,697.37,569.91,700.63ZM571.33,688c6.19,3.26,10.53,8,14.47,13.67C581.56,701.16,572.2,692.26,571.33,688ZM185.55,50.11c2,2.67,4.23,5.2,6.37,7.8a26.69,26.69,0,0,0-3,1,13.1,13.1,0,0,0-3.06,1.78c-2,1.74-1.56,4.18,1,4.84a16.16,16.16,0,0,0,5.29.33c3.93-.36,7.82-1.34,10.39-4.55C206,57,206.09,52,204.21,47a3.82,3.82,0,0,0-2.69-2.09c-.83-.07-2,1-2.61,1.93a16.42,16.42,0,0,0-1.4,3.49c-2.75-2-5.37-4-8.11-5.8a7,7,0,0,0-3.16-1,2.15,2.15,0,0,0-2.43,3A11.57,11.57,0,0,0,185.55,50.11Zm2.2,12.68c3.4-3.09,6.86-3.48,10.11-1.07C194.46,62.79,191.29,63.57,187.75,62.79Zm13.94-15.38c1.44,2.38,1.59,4.1.86,9.33C199.45,54.49,198.93,51.44,201.69,47.41Zm-1.45,12.31a31.3,31.3,0,0,1-13.88-13.2A30,30,0,0,1,200.24,59.72Zm370.14,2.16c3.77,3.49,8.51,4.27,13.45,4,1.6-.08,3.31-.43,3.77-2.3.52-2.1-1-3.19-2.55-4s-3.14-1.25-4.38-1.73c2.29-2.94,4.72-5.88,6.91-9,.95-1.35,2.1-3.14.53-4.7s-3.43-.72-4.93.25c-2.81,1.84-5.48,3.88-8.28,5.89a18.15,18.15,0,0,0-1.51-3.69c-.55-.82-1.72-1.82-2.52-1.75a3.69,3.69,0,0,0-2.59,2,17.4,17.4,0,0,0-1.19,5.57C566.93,56,567.69,59.4,570.38,61.88Zm14.3.92c-3.54.75-6.72,0-10.13-1.08C577.82,59.31,581.28,59.71,584.68,62.8Zm1.26-16.38c-.3,3.32-9.67,12.45-13.71,13.37C572.87,56.15,581.51,47.74,585.94,46.42Zm-15.35,1C573.22,50,573,53.28,570,57,569.21,53.67,569,50.53,570.59,47.39ZM380.66,57.74a8.27,8.27,0,0,0,.57-2.46c-.21-3.05,2-6.6,4.55-6.9s5.17,2.8,5.37,5.9a11.71,11.71,0,0,0,0,1.18c.16.77.29,2.09.64,2.16A3.16,3.16,0,0,0,394.2,57a10.22,10.22,0,0,0,3.45-8.12A11.37,11.37,0,0,0,382.93,38.1c-8.19,2.47-11,12.83-5,18.63C378.57,57.34,379.74,57.41,380.66,57.74Zm.43-14.66a7.38,7.38,0,0,1,9.64-.37A6.81,6.81,0,0,1,393.52,51c-4.5-8.69-11.5-6.46-14.54,0C377.75,48.43,378.62,45.18,381.09,43.08Zm12.31,648a3.21,3.21,0,0,0-2.44-.6c-.34.08-.62,1.41-.6,2.16a6.74,6.74,0,0,1-2.81,6.2,3.4,3.4,0,0,1-4.67-.21,6.89,6.89,0,0,1-2.36-6.21,2.39,2.39,0,0,0-.71-2,2.27,2.27,0,0,0-2.1.39,13.52,13.52,0,0,0-2.71,3.6A11.06,11.06,0,0,0,377.12,707a11.42,11.42,0,0,0,19.74-7.73A10.27,10.27,0,0,0,393.4,691.12ZM391,704.62c-3,2.74-6.68,3.16-9.79,1.12a7.27,7.27,0,0,1-3-8.89c1.39,3.62,3.78,6,7.26,6s5.75-2.54,7.08-5.81A6.47,6.47,0,0,1,391,704.62ZM192.75,361.36a7.93,7.93,0,0,0,1.18.05c.76-.18,1.93-.28,2.12-.75a2.69,2.69,0,0,0-.56-2.26,9.84,9.84,0,0,0-6.79-3.53c-6.6.05-10.93,3.43-12.31,8.62a11.23,11.23,0,0,0,5.46,12.84A11.06,11.06,0,0,0,195,374.68a8.17,8.17,0,0,0,1.14-2.71,8.6,8.6,0,0,0-2.59-.66c-3.11.18-6.5-2.19-6.79-4.91C186.56,364.14,189.66,361.51,192.75,361.36Zm-3.41,12.27a6.69,6.69,0,0,1-7.87-2.33c-2.43-3.15-2.63-6.32-.6-9.32a7.32,7.32,0,0,1,8.66-3C182.87,362.13,180.67,369.13,189.34,373.63Zm388.55-2.35a4.69,4.69,0,0,0-1-.06c-.76.19-1.92.27-2.13.74a2.65,2.65,0,0,0,.55,2.25,9.76,9.76,0,0,0,6.76,3.54c9,0,14.41-7.22,12.28-14.59-2.39-8.29-12.91-11.18-18.71-5.09a7.74,7.74,0,0,0-1,2.58,8.56,8.56,0,0,0,2.58.67c3-.17,6.62,2.16,6.84,4.62S581,371.22,577.89,371.28Zm3.33-12.17a7,7,0,0,1,8.31,2.29,7.34,7.34,0,0,1,.38,9.17c-2,3-4.85,4.12-8.68,3.07,3.23-1.58,6-3.61,5.95-7.23S584.72,360.45,581.22,359.11Zm-237-45.5a56,56,0,0,0-9.27-1,108.08,108.08,0,0,0-12,.84c-2.71.3-4.45,1.79-4.56,4.8,0,1.17-.5,2.33-.62,3.51a10.17,10.17,0,0,0,.2,2.18l.53.17,3.86-5.2.72.3c1,3.1,3,5,6.32,5.16,3.76.14,5.75-2.32,7.18-5.3.58-1.19,1.21-1.82,2.52-1.63,2.53.34,5,.77,7.57,1a7.22,7.22,0,0,0,2.43-.65c-.27-.85-.28-2.08-.86-2.49A10.16,10.16,0,0,0,344.22,313.61Zm-14.58,7.81a3.61,3.61,0,0,1-3.95-3l8.22-1C332.9,319.77,331.76,321.29,329.64,321.42Zm183.62-53.58c.23,1.84.54,3.66.82,5.49a11,11,0,0,0,1.1-4.08c.3-3.32,1-6.32,4.91-7.15.76-.16,1.49-.42,2.23-.63l-.05-.26c-.39,0-.78-.07-1.16-.15-3.75-.79-4.89-2-5.52-5.6-.34-2-.73-3.9-1.1-5.85a26,26,0,0,0-1.47,6.63c-.18,2.51-1.8,3.53-3.79,4.3-.88.33-1.82.51-3.07.86.87.27,1.41.47,2,.61C511.72,263,512.81,264.23,513.26,267.84ZM292.18,150.71a22.67,22.67,0,0,0,.81,4.4,26.87,26.87,0,0,0,1.4-6.49,4.65,4.65,0,0,1,3.39-4.37c1-.39,2-.66,3.42-1.12-1.13-.34-1.8-.57-2.49-.76-2.58-.72-4.27-2.06-4.37-5.06a42,42,0,0,0-1-6l-.4-.05a49.14,49.14,0,0,0-.8,5.22c-.16,3.36-1.77,5.39-5.06,6.11-.55.11-1.08.32-1.8.53.38.21.54.36.72.38C290.1,144.11,292.21,146.41,292.18,150.71Zm180,410.87-2.61-.77c-2.54-.77-4.3-2.07-4.39-5.1a42.27,42.27,0,0,0-1-6.06,18.72,18.72,0,0,0-1.27,5.53c-.21,3.12-1.72,5-4.75,5.71-.67.16-1.33.39-2.27.66.77.26,1.25.47,1.76.59,3.78,1,4.71,2,5.23,5.87.25,1.85.61,3.7.93,5.55l.4-.14a44.77,44.77,0,0,0,1-6c.09-3.15,2.09-4.33,4.61-5.17C470.42,562,471.11,561.85,472.13,561.58ZM251.7,479.32c-.56.14-1.11.36-1.67.54,4.95.66,6.67,3.71,6.8,8.2a26.46,26.46,0,0,0,.73,4,10.39,10.39,0,0,0,.87-3.35c.3-4.43,1.3-8.26,7.15-8.33l-.38-.56c-.68-.22-1.35-.46-2-.65-2.51-.72-4.14-2.06-4.28-5a51.25,51.25,0,0,0-1-6.21,20.11,20.11,0,0,0-1.26,5.72C256.42,476.94,254.66,478.59,251.7,479.32Zm58.15-128c-.05.12-.06.28-.14.36-.73.71-1.38,1.76-2.23,2-.5.12-1.55-1-2-1.72-2-3.6-5.36-4.87-9.74-5.51l-2.28,1.41a15.23,15.23,0,0,0,2.44,1.52c2.61,1,5.08,2.18,6.5,4.85,1.14,2.14,2.86,3.49,5.44,3.11s4.3-2.2,5.1-4.69c.4-1.28.67-2.88-.89-3.44S310.32,350.27,309.85,351.28ZM253.1,339.74a15.51,15.51,0,0,0-.47-2.66c-.19.17-.34.25-.37.35-.11.51-.21,1-.27,1.54-.38,3.21-.89,6.3-5.75,6.51a19.48,19.48,0,0,0,1.92.67,4.09,4.09,0,0,1,3.49,4.15c.1,1.29.4,2.56.61,3.84,1.34-3.29.12-8,6-8.44C254.54,345.14,253.14,343,253.1,339.74ZM489.85,202.49a15.2,15.2,0,0,0,.61,2.86c1.68-6.45,1.68-6.45,5.94-8.52-3.53-.34-5.2-2.19-5.21-5.56a14.62,14.62,0,0,0-.42-2.51c-1.12,3.47-.52,7.79-6.21,8,.63.39.79.55,1,.58C488.52,197.76,489.81,199.54,489.85,202.49ZM417.55,497.7c1.22,1,2.93,1.87,3.7,3.24s.7,3.39,1,5.12c1.3-3.16.29-7.72,5.89-8.15-5.53-.51-4.6-5-5.74-8.23C421.6,493.14,422.06,497.28,417.55,497.7ZM182.83,439.06c.81-.07,1.54-.9,2-1.22-.12-2.06-.64-3.19-2.18-3.22-1.34,0-1.94.87-2,2.19S181.47,439.18,182.83,439.06Zm405.18,0c1.39,0,2.12-.87,2.42-2.77-.78-.58-1.52-1.59-2.33-1.65-1.5-.12-2.07,1.1-2.09,2.51A1.75,1.75,0,0,0,588,439.1Zm2.36-12.91c-.76-.52-1.49-1.43-2.26-1.47-1.57-.08-2.05,1.21-2.06,2.58S586.78,429,588,429C589.53,429,590,428,590.37,426.19ZM183.69,429c.24-.4,1-1.09,1-1.84.1-1.34-.55-2.53-2.15-2.47a1.77,1.77,0,0,0-1.78,2.14C180.88,428.21,181.49,429.06,183.69,429ZM586.91,310.87a2.08,2.08,0,0,0,2,2.65,1.74,1.74,0,0,0,2-2c0-1.36-.49-2.31-2.7-2.41C587.84,309.52,587,310.14,586.91,310.87Zm-403.37,2.58c.91-.2,1.62-1.28,2.42-2l-.05-.92c-.71-.46-1.36-1.18-2.12-1.31-1.47-.25-2.12.72-2.19,2.12S182.28,313.73,183.54,313.45Zm-1,135.53a2.87,2.87,0,0,0,2.16-1.64,1.73,1.73,0,0,0-1.79-2.39c-.83,0-1.63.81-2.44,1.25,0,.29-.07.59-.11.89C181.08,447.76,181.75,448.88,182.54,449ZM588,445a1.65,1.65,0,0,0-1.89,2.12c.22.8,1.23,1.91,1.91,1.93s1.61-1,2.42-1.57v-.93C589.63,446,588.86,445.06,588,445ZM332.82,45.25c.87-.16,1.58-1.1,2.37-1.69-.35-1.74-1.07-2.31-2.31-2.36a1.8,1.8,0,0,0-2,1.94C330.82,44.4,331.47,45.51,332.82,45.25Zm108.72-2.09a1.79,1.79,0,0,0-2-2c-1.22.06-2,.58-2.34,2.33.78.6,1.49,1.55,2.36,1.73C440.94,45.52,441.59,44.42,441.54,43.16ZM330.09,704.94c0,1.15.58,2,1.94,2s2-.53,2.38-2.27c-.77-.62-1.46-1.59-2.33-1.78C330.74,702.59,330.05,703.67,330.09,704.94Zm108.61-2.13a1.85,1.85,0,0,0-1.86,2.28c.13.8,1,1.46,1.53,2.19l1,0c.48-.78,1.25-1.52,1.36-2.34A1.75,1.75,0,0,0,438.7,702.81ZM589.15,269.42a1.62,1.62,0,0,0-2.22,1.73,3,3,0,0,0,1.73,2.1c.68.16,1.62-.73,2.44-1.16,0-.3.07-.6.11-.9C590.53,270.58,589.94,269.66,589.15,269.42ZM588,558.28c.83-.12,1.55-.92,2.33-1.41,0-.31,0-.62,0-.93-.74-.55-1.43-1.45-2.24-1.58-1.25-.2-2.1.68-2.1,2A1.71,1.71,0,0,0,588,558.28ZM180.45,467.33c.75.52,1.56,1.5,2.25,1.43a2.94,2.94,0,0,0,2-1.81,1.67,1.67,0,0,0-2-2.06c-.81.11-1.53,1-2.29,1.5ZM588,624a1.67,1.67,0,0,0-1.9,2.12,2.91,2.91,0,0,0,2.06,1.74c.69.06,1.46-.95,2.2-1.49l0-.94C589.59,624.88,588.84,624,588,624ZM182.71,564.3c-.81.12-1.51,1-2.26,1.55v.93c.77.5,1.59,1.48,2.28,1.39a2.88,2.88,0,0,0,2-1.84A1.67,1.67,0,0,0,182.71,564.3Zm405.34-95.49c.83-.13,1.55-.92,2.32-1.42l0-.93c-.75-.55-1.44-1.44-2.25-1.57-1.25-.19-2.1.69-2.09,2A1.71,1.71,0,0,0,588.05,468.81ZM182.78,624c-.82.09-1.55.95-2.32,1.46l0,.93c.75.54,1.53,1.54,2.23,1.47a2.89,2.89,0,0,0,2-1.77A1.67,1.67,0,0,0,182.78,624Zm407.58-58.23c-.77-.49-1.52-1.34-2.33-1.41a1.66,1.66,0,0,0-1.9,2.11,2.9,2.9,0,0,0,2.06,1.75c.69.05,1.47-1,2.2-1.51Zm-2.23-106.91c.69.08,1.49-.9,2.25-1.42v-.94c-.75-.52-1.47-1.4-2.28-1.5a1.67,1.67,0,0,0-2,2.06A2.89,2.89,0,0,0,588.13,458.81Zm-.07,159.12c.82-.13,1.54-.93,2.31-1.43,0-.31,0-.62,0-.93-.74-.55-1.44-1.44-2.25-1.56-1.25-.19-2.09.69-2.08,2A1.72,1.72,0,0,0,588.06,617.93ZM183.57,84.42c1.27.14,2.06-.78,2-2.12a1.71,1.71,0,0,0-2.09-1.79c-.81.16-1.5,1-2.25,1.52l0,.94C182,83.48,182.76,84.33,183.57,84.42Zm-.89,503.63a2.94,2.94,0,0,0,2-1.79,1.66,1.66,0,0,0-1.94-2.07c-.81.09-1.54,1-2.3,1.47,0,.32,0,.63,0,.94C181.19,587.12,182,588.12,182.68,588.05Zm.86-497.55c-.69-.09-1.52.87-2.29,1.37,0,.31,0,.62,0,.93.74.55,1.44,1.44,2.25,1.56a1.67,1.67,0,0,0,2-2A2.92,2.92,0,0,0,183.54,90.5Zm403.39,1.76a1.66,1.66,0,0,0,1.9,2.1c.82-.08,1.56-.93,2.33-1.43l0-.94c-.74-.54-1.52-1.55-2.22-1.49A2.89,2.89,0,0,0,586.93,92.26Zm2,8.18a2.9,2.9,0,0,0-2,1.8,1.67,1.67,0,0,0,2,2.06c.81-.1,1.53-1,2.29-1.49,0-.31,0-.63,0-.94C590.42,101.35,589.62,100.37,588.93,100.44Zm0,9.94a2.9,2.9,0,0,0-2,1.8,1.67,1.67,0,0,0,2,2.06c.81-.1,1.53-1,2.29-1.49,0-.31,0-.62,0-.94C590.42,111.29,589.62,110.31,588.93,110.38Zm-405.75,9.5c-.54.74-1.54,1.52-1.48,2.22a2.86,2.86,0,0,0,1.74,2.06,1.67,1.67,0,0,0,2.08-1.93c-.11-.83-.93-1.56-1.43-2.33Zm405.67,4.3c.81-.09,1.54-.94,2.31-1.45l0-.94c-.75-.53-1.54-1.53-2.23-1.47a2.91,2.91,0,0,0-2,1.77A1.66,1.66,0,0,0,588.85,124.18Zm-406.21,470c-.81.15-1.48,1.06-2.21,1.63,0,.31,0,.62,0,.93.79.48,1.53,1.25,2.36,1.36a1.72,1.72,0,0,0,1.95-1.95C184.75,594.75,183.88,593.9,182.64,594.13Zm2.93-312.86a1.7,1.7,0,0,0-1.94-1.94,7.18,7.18,0,0,0-2.36,1.35c0,.31,0,.62,0,.93.73.57,1.39,1.48,2.2,1.63C184.68,283.47,185.54,282.61,185.57,281.27Zm403.31,2c.82-.1,1.53-1,2.29-1.5,0-.31,0-.62,0-.93-.76-.52-1.56-1.51-2.26-1.43a2.92,2.92,0,0,0-2,1.81A1.66,1.66,0,0,0,588.88,283.24ZM183.6,104.3a1.66,1.66,0,0,0,1.89-2.11,2.89,2.89,0,0,0-2.05-1.75c-.7,0-1.47,1-2.21,1.51l0,.93C182,103.38,182.78,104.22,183.6,104.3ZM586.13,596.17a2.91,2.91,0,0,0,2,1.82c.69.08,1.5-.89,2.26-1.4,0-.31,0-.63,0-.94-.75-.53-1.46-1.41-2.27-1.52A1.67,1.67,0,0,0,586.13,596.17Zm2.66-446.08a1.71,1.71,0,0,0-1.94,1.95,1.79,1.79,0,0,0,2.14,2c.81-.15,1.47-1.06,2.2-1.63,0-.31,0-.62,0-.93C590.37,151,589.62,150.2,588.79,150.09ZM185.57,161.83a1.7,1.7,0,0,0-2.08-1.79c-.82.16-1.51,1-2.25,1.51l0,.94c.77.51,1.5,1.37,2.31,1.46C184.83,164.09,185.63,163.17,185.57,161.83Zm-.85,444.1c-.17-.83-1.05-1.51-1.61-2.26l-.86,0a8,8,0,0,0-1.41,2.37c-.23,1.25.71,2,1.91,2S185,607.24,184.72,605.93Zm.77-434.16a2.92,2.92,0,0,0-2.05-1.74c-.7-.05-1.47,1-2.21,1.5l0,.94c.78.5,1.52,1.34,2.34,1.42A1.67,1.67,0,0,0,185.49,171.77ZM588.87,170a2.9,2.9,0,0,0-2,1.86,1.67,1.67,0,0,0,2,2c.81-.13,1.5-1,2.25-1.57,0-.31,0-.62,0-.93C590.39,170.89,589.56,169.93,588.87,170ZM182.68,528.51c1.3,0,2.28-.72,2-2-.15-.84-1-1.55-1.53-2.31h-.86a7.92,7.92,0,0,0-1.49,2.33C180.58,527.72,181.48,528.47,182.68,528.51Zm403.45-1.89a2.87,2.87,0,0,0,2,1.78c.69.07,1.48-.92,2.23-1.45,0-.31,0-.63,0-.94-.77-.52-1.49-1.38-2.3-1.47A1.67,1.67,0,0,0,586.13,526.62Zm0-39.82a2.9,2.9,0,0,0,2,1.84c.69.09,1.51-.88,2.27-1.39,0-.31,0-.62,0-.94-.75-.54-1.45-1.41-2.26-1.53A1.66,1.66,0,0,0,586.13,486.8Zm-403.33-2c-.82.08-1.56.92-2.33,1.42l0,.94c.73.54,1.51,1.56,2.2,1.5a2.9,2.9,0,0,0,2.06-1.75A1.67,1.67,0,0,0,182.8,484.78Zm403.25,51.68a1.71,1.71,0,0,0,2,1.94c.83-.12,1.57-.89,2.35-1.37l0-.93c-.73-.57-1.4-1.48-2.21-1.62C586.94,534.26,586.07,535.12,586.05,536.46ZM185.5,251.36a2.9,2.9,0,0,0-2-1.8c-.69-.08-1.49.91-2.25,1.43,0,.31,0,.62,0,.93.76.53,1.48,1.4,2.29,1.5A1.67,1.67,0,0,0,185.5,251.36Zm-5.05,295.5c.75.52,1.56,1.5,2.25,1.43a2.94,2.94,0,0,0,2-1.81,1.67,1.67,0,0,0-2-2.06c-.81.11-1.53,1-2.29,1.5Zm407.68,1.42c.69.08,1.5-.9,2.25-1.42v-.93c-.76-.53-1.48-1.4-2.29-1.51a1.67,1.67,0,0,0-2,2.06A2.89,2.89,0,0,0,588.13,548.28Zm-2.08,87.64a1.71,1.71,0,0,0,2,1.89c.82-.13,1.55-.92,2.32-1.42,0-.31,0-.62,0-.93-.75-.55-1.44-1.44-2.25-1.57C586.89,633.7,586,634.57,586.05,635.92ZM183.56,239.57c-.83.13-1.55.93-2.31,1.43v.93c.75.55,1.45,1.43,2.26,1.55,1.26.19,2.09-.71,2.07-2A1.7,1.7,0,0,0,183.56,239.57Zm405.29-9.95a1.72,1.72,0,0,0-2,1.89c0,1.34.84,2.22,2.09,2,.81-.12,1.51-1,2.25-1.56v-.93C590.4,230.55,589.68,229.75,588.85,229.62ZM184.72,645.77c-.15-.84-1-1.55-1.53-2.32h-.87a8,8,0,0,0-1.48,2.32c-.26,1.23.63,2,1.84,2S185,647.09,184.72,645.77ZM182.63,514.6c-.8.15-1.47,1.06-2.2,1.64,0,.31,0,.62,0,.93.78.47,1.53,1.25,2.36,1.35a1.72,1.72,0,0,0,1.94-2A1.79,1.79,0,0,0,182.63,514.6ZM588.86,253.42c.82-.1,1.54-.95,2.31-1.47,0-.31,0-.62,0-.94-.75-.52-1.54-1.52-2.23-1.45a2.87,2.87,0,0,0-2,1.78A1.66,1.66,0,0,0,588.86,253.42Zm-2.73,392.42a2.88,2.88,0,0,0,2,1.86c.69.09,1.52-.87,2.29-1.37l0-.94c-.75-.54-1.44-1.43-2.25-1.56A1.67,1.67,0,0,0,586.13,645.84Zm-401.43,20a3,3,0,0,0-1.74-2.1c-.67-.17-1.61.73-2.43,1.16l-.12.9c.68.62,1.27,1.54,2.07,1.77A1.63,1.63,0,0,0,184.7,665.87Zm403.42-191a1.67,1.67,0,0,0-2,2,2.9,2.9,0,0,0,2,1.84c.69.08,1.51-.89,2.27-1.39v-.93C589.63,475.84,588.93,475,588.12,474.83ZM183.46,223.58a1.68,1.68,0,0,0,2.06-2c-.12-.83-1-1.55-1.47-2.31l-.91,0c-.52.75-1.51,1.55-1.45,2.25A2.89,2.89,0,0,0,183.46,223.58Zm0,39.78a1.67,1.67,0,0,0,2-2,2.9,2.9,0,0,0-1.95-1.86c-.69-.09-1.53.87-2.3,1.37,0,.31,0,.62,0,.93C182,262.35,182.67,263.23,183.48,263.36ZM586.05,606a1.72,1.72,0,0,0,1.94,2c.83-.11,1.58-.88,2.36-1.35,0-.31,0-.63,0-.94-.73-.57-1.4-1.48-2.2-1.63A1.79,1.79,0,0,0,586.05,606Zm2.83-402.32c.82-.1,1.53-1,2.29-1.49,0-.32,0-.63,0-.94-.76-.52-1.56-1.5-2.26-1.43a2.92,2.92,0,0,0-2,1.81A1.66,1.66,0,0,0,588.88,203.71Zm-405.28,0a1.66,1.66,0,0,0,1.89-2.11,2.87,2.87,0,0,0-2.05-1.74c-.7-.06-1.47.95-2.21,1.49l0,.93C182,202.79,182.78,203.64,183.6,203.71Zm405.31-9.94c.82-.12,1.52-1,2.27-1.54,0-.31,0-.62,0-.93-.77-.5-1.59-1.48-2.28-1.39a2.9,2.9,0,0,0-2,1.84A1.67,1.67,0,0,0,588.91,193.77ZM183.57,303.13a1.67,1.67,0,0,0,1.92-2.09,2.87,2.87,0,0,0-2-1.77c-.69-.07-1.48.93-2.22,1.46l0,.94C182,302.18,182.75,303,183.57,303.13Zm-.89,205.39a3,3,0,0,0,2-1.78,1.67,1.67,0,0,0-1.94-2.08c-.81.09-1.54.95-2.3,1.47l0,.94C181.19,507.59,182,508.58,182.68,508.52ZM589,183.83c.8-.14,1.48-1.05,2.21-1.61l0-.93c-.78-.48-1.52-1.26-2.35-1.37a1.7,1.7,0,0,0-1.95,1.93C586.87,183.19,587.74,184.05,589,183.83ZM183.6,140.15c-.83.12-1.56.9-2.34,1.39l0,.93c.74.56,1.42,1.46,2.23,1.6,1.25.21,2.1-.66,2.11-2A1.71,1.71,0,0,0,183.6,140.15ZM588.82,263.36c.82-.08,1.56-.92,2.34-1.42l0-.94c-.74-.54-1.51-1.55-2.21-1.5a2.91,2.91,0,0,0-2.05,1.75A1.66,1.66,0,0,0,588.82,263.36ZM185.5,181.81a2.92,2.92,0,0,0-2-1.84c-.69-.09-1.52.88-2.28,1.39v.93c.75.54,1.45,1.42,2.26,1.54A1.67,1.67,0,0,0,185.5,181.81ZM588.13,518.46c.69.07,1.5-.91,2.25-1.43v-.93c-.76-.53-1.48-1.4-2.29-1.5a1.67,1.67,0,0,0-2,2.06A2.91,2.91,0,0,0,588.13,518.46Zm-403.41-61.6c-.15-.83-1-1.53-1.55-2.3h-.86a8,8,0,0,0-1.47,2.34c-.25,1.23.65,2,1.86,2S185,458.18,184.72,456.86ZM222.63,45.58h.92c.52-.76,1.51-1.56,1.44-2.26a2.89,2.89,0,0,0-1.82-2,1.65,1.65,0,0,0-2,2C221.26,44.12,222.11,44.83,222.63,45.58ZM591.15,290.65c-.77-.48-1.51-1.26-2.34-1.38a1.71,1.71,0,0,0-2,1.93c0,1.34.87,2.2,2.12,2,.81-.14,1.48-1,2.22-1.6C591.18,291.27,591.16,291,591.15,290.65ZM183.57,273.3a1.66,1.66,0,0,0,1.92-2.09,2.89,2.89,0,0,0-2-1.77c-.69-.06-1.48.94-2.23,1.47l0,.94C182,272.36,182.76,273.21,183.57,273.3Zm-.83,225.28a2.9,2.9,0,0,0,2-1.85,1.66,1.66,0,0,0-2-2c-.82.12-1.51,1-2.26,1.56,0,.31,0,.61,0,.92C181.22,497.71,182.05,498.68,182.74,498.58ZM586.93,241.37a1.67,1.67,0,0,0,1.9,2.11c.81-.08,1.55-.93,2.33-1.43l0-.93c-.74-.55-1.52-1.56-2.21-1.51A2.9,2.9,0,0,0,586.93,241.37ZM233,45.2a7.72,7.72,0,0,0,2.33-1.44v-.89c-.74-.54-1.43-1.41-2.25-1.55-1.28-.23-2.11.69-2.08,2S231.8,45.43,233,45.2Zm9.49.38h.92c.52-.76,1.51-1.57,1.43-2.27a2.87,2.87,0,0,0-1.82-2,1.65,1.65,0,0,0-2,2C241.14,44.12,242,44.83,242.52,45.58Zm30.39-.44c.7,0,1.49-1,2.23-1.49l0-.89c-.77-.51-1.5-1.33-2.33-1.44a1.65,1.65,0,0,0-1.92,2.07A2.9,2.9,0,0,0,272.91,45.14ZM181.25,232c.76.52,1.48,1.4,2.29,1.5a1.66,1.66,0,0,0,2-2.06,2.88,2.88,0,0,0-2-1.81c-.69-.07-1.49.92-2.25,1.44ZM292.73,45.14c.7.07,1.52-.9,2.28-1.41v-.89c-.76-.53-1.46-1.39-2.28-1.52a1.65,1.65,0,0,0-2,2A2.87,2.87,0,0,0,292.73,45.14Zm10,0c.7,0,1.48-1,2.23-1.48l0-.91c-.78-.5-1.51-1.32-2.33-1.42a1.66,1.66,0,0,0-1.92,2.08A2.87,2.87,0,0,0,302.74,45.13Zm9.82.07a7.85,7.85,0,0,0,2.33-1.44v-.89c-.74-.54-1.43-1.41-2.25-1.55-1.28-.23-2.11.69-2.08,2S311.33,45.43,312.56,45.2Zm147.33,0a1.62,1.62,0,0,0,1.91-2.05c-.16-.81-1.07-1.48-1.64-2.21l-.89,0c-.48.79-1.42,1.65-1.31,2.35A2.89,2.89,0,0,0,459.89,45.17ZM182.38,653.38c-.53.76-1.53,1.55-1.48,2.26a2.87,2.87,0,0,0,1.75,2,1.63,1.63,0,0,0,2.07-1.92c-.13-.83-.95-1.57-1.47-2.35ZM469.94,45.13c.7,0,1.47-1,2.2-1.53,0-.28,0-.57,0-.86-.79-.5-1.53-1.31-2.38-1.42a1.63,1.63,0,0,0-1.87,2.09A2.86,2.86,0,0,0,469.94,45.13Zm20.17.46c.54-.75,1.4-1.45,1.52-2.27a1.65,1.65,0,0,0-2-2,2.86,2.86,0,0,0-1.84,2c-.08.7.9,1.51,1.42,2.28Zm29.73,0c.56-.73,1.45-1.39,1.61-2.2a1.65,1.65,0,0,0-1.93-2.06,2.85,2.85,0,0,0-1.91,1.88c-.11.7.83,1.55,1.31,2.33Zm9.62-.41c.82-.13,1.54-.95,2.31-1.47,0-.29,0-.58,0-.87-.76-.53-1.55-1.53-2.26-1.48a2.89,2.89,0,0,0-2,1.79A1.62,1.62,0,0,0,529.46,45.19Zm10-.06c.71.08,1.52-.89,2.29-1.4,0-.29,0-.58,0-.87-.76-.54-1.46-1.39-2.29-1.54a1.63,1.63,0,0,0-2,2A2.84,2.84,0,0,0,539.42,45.13ZM301.83,703a2.85,2.85,0,0,0-1.93,1.86,1.66,1.66,0,0,0,2,2c.81-.16,1.49-1,2.23-1.58,0-.3,0-.59,0-.89C303.37,703.86,302.53,702.91,301.83,703Zm287-489.35c.82-.08,1.55-.93,2.32-1.44l0-.94c-.75-.53-1.54-1.53-2.23-1.47a2.92,2.92,0,0,0-2,1.76A1.66,1.66,0,0,0,588.84,213.65ZM182.63,538.44c1.29.07,2.29-.65,2.09-2-.13-.84-1-1.57-1.47-2.35l-.87,0a8,8,0,0,0-1.54,2.28C180.56,537.59,181.42,538.38,182.63,538.44ZM549.24,45.17a1.62,1.62,0,0,0,2-1.94c-.11-.82-1-1.53-1.51-2.3h-.89c-.52.76-1.51,1.57-1.44,2.27A2.91,2.91,0,0,0,549.24,45.17Zm37.69,37.15a1.67,1.67,0,0,0,1.91,2.1c.82-.09,1.55-.94,2.32-1.44l0-.94c-.74-.54-1.52-1.55-2.21-1.48A2.87,2.87,0,0,0,586.93,82.32ZM185.5,112.23a2.92,2.92,0,0,0-2-1.85c-.69-.09-1.52.87-2.29,1.37,0,.31,0,.62,0,.94.74.54,1.44,1.43,2.25,1.56A1.68,1.68,0,0,0,185.5,112.23Zm-2,81.52a1.67,1.67,0,0,0,2-2c-.16-.82-1-1.5-1.58-2.25l-.9,0c-.49.77-1.44,1.61-1.35,2.3A2.88,2.88,0,0,0,183.54,193.75ZM589,130.27a2.93,2.93,0,0,0-2,1.77,1.67,1.67,0,0,0,1.93,2.09c.82-.1,1.55-.95,2.31-1.46,0-.32,0-.63,0-.94C590.43,131.2,589.64,130.21,589,130.27ZM183.58,154a1.67,1.67,0,0,0,1.91-2.1,2.9,2.9,0,0,0-2-1.77c-.69-.06-1.47,1-2.22,1.49l0,.93C182,153.07,182.76,153.92,183.58,154Zm405.35,6.08a2.9,2.9,0,0,0-2,1.8,1.67,1.67,0,0,0,2,2.06c.82-.11,1.53-1,2.29-1.5v-.93C590.42,161,589.62,160,588.93,160.09ZM221.81,702.56c-.51.76-1.36,1.48-1.46,2.3a1.66,1.66,0,0,0,2.06,1.94,2.91,2.91,0,0,0,1.79-2c.06-.69-.94-1.49-1.47-2.24Zm20.45.41a1.62,1.62,0,0,0-2,1.94c.12.82,1,1.53,1.52,2.29h.9c.52-.76,1.5-1.57,1.43-2.27A2.91,2.91,0,0,0,242.26,703Zm29.79,0c-.83.1-1.57.91-2.35,1.4l-.05.87c.74.56,1.5,1.58,2.22,1.55a2.84,2.84,0,0,0,2.05-1.72A1.63,1.63,0,0,0,272.05,702.94Zm9.56-.4c-.56.72-1.46,1.38-1.61,2.19a1.65,1.65,0,0,0,1.92,2.07,2.89,2.89,0,0,0,1.92-1.88c.11-.69-.83-1.55-1.31-2.33Zm9.92,0c-.56.73-1.44,1.4-1.59,2.21a1.65,1.65,0,0,0,1.94,2,2.89,2.89,0,0,0,1.9-1.9c.1-.69-.85-1.54-1.33-2.32ZM182.76,637.75a2.89,2.89,0,0,0,1.94-1.86,1.67,1.67,0,0,0-2-2c-.81.13-1.5,1-2.24,1.58,0,.31,0,.62,0,.93C181.23,636.89,182.07,637.85,182.76,637.75Zm138.47,64.81c-.52.76-1.37,1.48-1.47,2.3a1.66,1.66,0,0,0,2.05,1.94,2.9,2.9,0,0,0,1.8-2c.06-.69-.94-1.49-1.47-2.24ZM180.48,477.4c.78.47,1.53,1.24,2.36,1.35,1.17.15,2-.69,1.94-1.95s-.9-2.2-2.15-2c-.8.14-1.47,1.06-2.2,1.63C180.45,476.78,180.46,477.09,180.48,477.4Zm2.2,80.82a2.89,2.89,0,0,0,2-1.78,1.67,1.67,0,0,0-1.94-2.08c-.82.1-1.54,1-2.3,1.48l0,.94C181.19,557.3,182,558.29,182.68,558.22ZM449.1,703a2.91,2.91,0,0,0-1.88,1.92c-.09.7.87,1.54,1.36,2.31l.89,0c.56-.75,1.45-1.43,1.6-2.25A1.63,1.63,0,0,0,449.1,703ZM479,703a2.87,2.87,0,0,0-1.94,1.85,1.63,1.63,0,0,0,2,2c.83-.17,1.52-1,2.27-1.58l0-.87C480.49,703.87,479.65,702.91,479,703Zm17.94,1.77a1.64,1.64,0,0,0,1.93,2.05c.83-.13,1.56-1,2.33-1.47,0-.29,0-.58,0-.87-.75-.54-1.54-1.53-2.24-1.47A2.86,2.86,0,0,0,496.89,704.77Zm12.46-2.19-.92,0c-.56.72-1.6,1.48-1.56,2.18a2.88,2.88,0,0,0,1.71,2.07,1.66,1.66,0,0,0,2.14-1.85C510.64,704.12,509.83,703.36,509.35,702.58Zm9.85,0h-.92c-.54.75-1.54,1.55-1.47,2.24a2.89,2.89,0,0,0,1.79,2,1.66,1.66,0,0,0,2.06-1.94C520.56,704.05,519.71,703.32,519.2,702.56Zm10,0-.92,0c-.55.74-1.57,1.52-1.53,2.21a2.91,2.91,0,0,0,1.76,2,1.65,1.65,0,0,0,2.1-1.89C530.51,704.08,529.68,703.34,529.19,702.57ZM182.38,573.85c-.54.76-1.53,1.55-1.48,2.26a2.9,2.9,0,0,0,1.75,2,1.64,1.64,0,0,0,2.07-1.93c-.13-.84-1-1.57-1.47-2.35Zm.44,40.16c-.82.07-1.57.91-2.35,1.41l0,.93c.74.55,1.5,1.57,2.2,1.52a2.91,2.91,0,0,0,2.07-1.73A1.67,1.67,0,0,0,182.82,614ZM588.16,578.1c.69.06,1.48-.93,2.23-1.46l0-.94c-.76-.51-1.49-1.36-2.31-1.45a1.66,1.66,0,0,0-1.92,2.08A2.91,2.91,0,0,0,588.16,578.1Zm-2,77.66a2.91,2.91,0,0,0,1.93,1.87c.69.1,1.53-.85,2.3-1.34l0-.93c-.74-.56-1.43-1.45-2.23-1.58A1.66,1.66,0,0,0,586.13,655.76ZM322.51,45.19c.84-.16,1.55-1,2.33-1.49,0-.31,0-.62,0-.93-.78-.51-1.63-1.49-2.32-1.39a2.92,2.92,0,0,0-1.93,1.92A1.58,1.58,0,0,0,322.51,45.19ZM231.73,702.56c-.5.77-1.34,1.49-1.44,2.31a1.66,1.66,0,0,0,2.06,1.93,2.88,2.88,0,0,0,1.78-2c.06-.69-.94-1.48-1.47-2.23Zm354.32-36.78a1.7,1.7,0,0,0,2,1.84c.83-.14,1.54-.94,2.3-1.45v-.94c-.76-.53-1.46-1.4-2.28-1.51C586.85,663.54,586,664.44,586.05,665.78ZM252.15,703a2.87,2.87,0,0,0-2,1.83,1.65,1.65,0,0,0,2,2c.82-.14,1.51-1,2.26-1.53v-.9C253.67,703.88,252.85,702.92,252.15,703Zm9.88,0a2.87,2.87,0,0,0-1.9,1.89,1.66,1.66,0,0,0,2.07,1.93c.81-.17,1.48-1.06,2.21-1.62l0-.89C263.58,703.83,262.73,702.9,262,703ZM284.66,43.38a1.62,1.62,0,0,0-1.9-2.06c-.83.12-1.56.94-2.34,1.45l0,.87c.74.54,1.52,1.54,2.23,1.49A2.84,2.84,0,0,0,284.66,43.38Zm-21.74,1.81c.83-.16,1.52-1,2.27-1.52v-.9c-.77-.51-1.59-1.48-2.29-1.4a2.88,2.88,0,0,0-2,1.85A1.62,1.62,0,0,0,262.92,45.19Zm326.2,174.53a1.72,1.72,0,0,0-2.26,1.57,1.81,1.81,0,0,0,1.8,2.3c.82,0,1.63-.8,2.45-1.24,0-.3.07-.6.1-.9C590.52,220.85,589.92,220,589.12,219.72ZM252.94,45.19c.84-.16,1.55-1,2.31-1.51v-.93c-.79-.5-1.65-1.48-2.34-1.37A2.92,2.92,0,0,0,251,43.32,1.58,1.58,0,0,0,252.94,45.19Zm56.9,659.57a1.66,1.66,0,0,0,1.94,2.06c.82-.11,1.54-1,2.31-1.45v-.9c-.75-.53-1.54-1.53-2.24-1.47A2.84,2.84,0,0,0,309.84,704.76ZM185.49,291.06a2.88,2.88,0,0,0-2.06-1.72c-.7-.06-1.47,1-2.2,1.5l0,.94c.78.49,1.52,1.33,2.34,1.41A1.67,1.67,0,0,0,185.49,291.06Zm-1.88-77.4a1.67,1.67,0,0,0,1.88-2.13,2.88,2.88,0,0,0-2.07-1.72c-.69-.05-1.46,1-2.19,1.5,0,.31,0,.63,0,.94C182.05,212.74,182.79,213.58,183.61,213.66ZM590.37,506.13c-.76-.52-1.49-1.37-2.3-1.47-1.26-.15-2.07.75-2,2.09a1.71,1.71,0,0,0,2.07,1.81c.82-.16,1.51-1,2.26-1.49C590.38,506.76,590.38,506.45,590.37,506.13ZM588,494.72a1.66,1.66,0,0,0-1.91,2.1,2.94,2.94,0,0,0,2,1.75c.7.06,1.48-.94,2.22-1.47l0-1C589.59,495.65,588.86,494.8,588,494.72ZM458.92,703a2.88,2.88,0,0,0-1.74,2c-.05.7.95,1.47,1.49,2.22l.9,0c.51-.79,1.35-1.53,1.44-2.36A1.62,1.62,0,0,0,458.92,703Zm10.58-.41h-.92c-.53.75-1.53,1.54-1.47,2.24a2.89,2.89,0,0,0,1.78,2,1.66,1.66,0,0,0,2.06-1.94C470.85,704.05,470,703.33,469.5,702.56ZM588.87,144.07c.81-.1,1.53-1,2.3-1.48v-.94c-.75-.52-1.45-1.33-2.27-1.49a1.71,1.71,0,0,0-2.06,1.82A1.79,1.79,0,0,0,588.87,144.07ZM487,704.76a1.63,1.63,0,0,0,1.91,2.06c.84-.13,1.56-1,2.34-1.47,0-.28,0-.57,0-.86-.74-.54-1.53-1.54-2.23-1.48A2.82,2.82,0,0,0,487,704.76ZM588.17,584.19c-1.24-.22-2.1.65-2.12,2s.78,2.09,2,1.92c.83-.12,1.57-.89,2.35-1.37l0-.93C589.66,585.23,589,584.33,588.17,584.19Zm-88.59-539c.83-.1,1.57-.91,2.35-1.4l.05-.86c-.75-.56-1.51-1.58-2.23-1.55a2.85,2.85,0,0,0-2,1.72A1.62,1.62,0,0,0,499.58,45.19Zm-316.1,88.94c1.24.2,2.1-.67,2.09-2a1.71,1.71,0,0,0-2-1.9c-.82.13-1.55.91-2.32,1.4,0,.31,0,.62,0,.93C182,133.1,182.67,134,183.48,134.13Zm326.19-89c.7,0,1.49-1,2.24-1.52l0-.89c-.8-.49-1.68-1.46-2.39-1.34s-1.31,1.27-1.95,2C508.25,44,508.92,45.07,509.67,45.13ZM538.58,703a1.62,1.62,0,0,0-1.91,2,2.85,2.85,0,0,0,2,1.76c.71,0,1.49-1,2.24-1.5,0-.29,0-.58,0-.87C540.14,703.88,539.41,703.07,538.58,703Zm8,1.82a1.62,1.62,0,0,0,1.92,2.05c.83-.13,1.55-1,2.33-1.47,0-.29,0-.58,0-.87-.75-.53-1.54-1.53-2.24-1.47A2.84,2.84,0,0,0,546.61,704.77ZM479.67,45.17a1.62,1.62,0,0,0,2-2c-.13-.82-1-1.53-1.52-2.29h-.9c-.52.77-1.49,1.58-1.42,2.28A2.91,2.91,0,0,0,479.67,45.17Zm-29.7.08c1.3,0,2.1-.87,1.89-2-.15-.84-1-1.54-1.56-2.3l-.93,0c-.49.79-1.29,1.55-1.4,2.39C447.82,44.53,448.7,45.27,450,45.25Zm141.2,255.38c-.77-.49-1.5-1.28-2.32-1.41a1.7,1.7,0,0,0-2,1.88c0,1.35.83,2.22,2.08,2,.81-.13,1.5-1,2.25-1.57ZM396.71,361.22c1.78.38,2.21-1.08,2.42-2.45a6.11,6.11,0,0,1,3.1-4.82c4.08-2.19,5.26-5.81,4.74-10.07a12.78,12.78,0,0,1,3.78-11c2.76-2.85,5.63-5.56,9.86-6.29-.18-.47-.2-.78-.37-.93-1.44-1.25-3-.78-4.46-.14-8.35,3.55-12.61,10-12.51,19.05,0,2.71-.69,4.86-3.26,6.29a9.54,9.54,0,0,0-4.74,7C395,359.27,394.89,360.84,396.71,361.22ZM394.64,84.73c-2.18-.46-4.11-.38-5.25,2.06a22,22,0,0,1-2.24,3q-3.88,5.5-7.73,11l-.59-.15c.11-2.48.22-5,.36-7.44.11-2,.4-4.09.36-6.13,0-1.82-1.68-3.6-3-3.33-1.58.33-2.14,1.65-2.15,3.16q0,13.4,0,26.79a17.82,17.82,0,0,0,.43,3.14,2.19,2.19,0,0,0,2.46,2.07c1.55-.11,2.15-1.18,2.16-2.6a24.91,24.91,0,0,0-.2-4c-.57-3.57,1.89-5.63,3.69-8.3.39.68.62,1.07.86,1.47,2.37,4,4.72,8.1,7.15,12.12.75,1.24,1.93,2,3.36,1.15s1.41-2.26.72-3.65c-.24-.46-.58-.88-.87-1.33-2.58-4-5.14-8-7.76-12a1.81,1.81,0,0,1,.12-2.46c2.53-3.23,5-6.51,7.47-9.78A18.34,18.34,0,0,0,395.71,87,1.4,1.4,0,0,0,394.64,84.73Z"/></svg>