<svg xmlns="http://www.w3.org/2000/svg" viewBox="0 0 750 750"><path d="M606.15,48.24a27.93,27.93,0,0,0-.44-5.33A21.88,21.88,0,0,0,583.79,25H187.26c-13.12,0-22.68,9.55-22.68,22.68V374.84q0,163.77,0,327.56a21,21,0,0,0,.15,3.17C166.5,717.44,175.46,725,187.8,725q197.57,0,395.13,0a27.25,27.25,0,0,0,5.34-.45c10.93-2.21,17.9-11.09,17.9-22.77Q606.17,375,606.15,48.24Zm-4.26,653.44c0,11.53-7.47,19-19,19q-197.58,0-395.15.07a18.65,18.65,0,0,1-19-19q.22-163.49.09-327V47.47c0-8.9,5.5-15.94,14-17.83a18.46,18.46,0,0,1,3.94-.35H583.94a17.68,17.68,0,0,1,17.95,17.65c0,1.32,0,2.65,0,4ZM424.16,483.26c.71.38,1.61,1,1.81,1.66.83,2.9,1.89,5.84,2,8.81.25,5.94-.05,11.92-.15,17.88-.14,9-3.25,16.22-11.62,20.62-6.73,3.55-6.06,9.62-3.78,14.1a19.85,19.85,0,0,0,7.89,8.22c13.46,7.81,27,7.85,40.55.12a20,20,0,0,0,8.51-9.2c2.45-5.43,1.12-9.84-3.83-13-.66-.44-1.3-.92-2-1.3-7.07-3.89-9.47-10.46-9.92-17.91-.37-6.28-.44-12.59-.24-18.87a39,39,0,0,1,1.8-8.85,4.68,4.68,0,0,1,2-2.23c4-2.57,8.09-5,11.17-8.81,4.79-5.92,8.52-12.3,9.5-19.31,2-2,4.17-3.34,5.16-5.27,4.22-8.32,6.76-17.15,5.92-26.58-.32-3.68-1.25-7.36-4.59-9.8a5.62,5.62,0,0,1,.17-.78c2-5.12,3.75-10.31,5.9-15.35,2.39-5.59,1.28-8.7-4.37-11a16.85,16.85,0,0,0-1.68-.61c-2.29-.64-4.57-1.4-6.9-1.86-18.07-3.56-36.32-3.81-54.62-2.58l-4.19.28a1.72,1.72,0,0,1,.91-.95,59,59,0,0,0,16.22-12.32,19.5,19.5,0,0,1,10.75-5.85c5.66-1.06,11.37-1.89,17-3.19a29.64,29.64,0,0,0,7.79-3.3c2.07-1.18,2.13-3.61.35-5.23a6.15,6.15,0,0,0-3.23-1.75c-6-.44-12.08-.63-17.55,2.73-.44.27-.92.46-1.68.83,1.55-3.28,3.34-5.73,6.4-7,4.68-2,9.31-4.08,14-6,4.4-1.8,9-3.23,12.44-6.78,2.4-2.48,1.88-5-1.17-6.56-3.52-1.85-7.14-1.51-10.59-.14-3.14,1.25-6.07,3-9.06,4.53.14-.46.35-1.13.55-1.81,2.27-7.75,3.68-15.6,2.65-23.71-.47-3.72-1.47-7.29-3.95-10.23-2.76-3.29-6.76-2.55-8.26,1.46a8,8,0,0,0,2.92,9.32c3.24,2.38,5.22,5.55,5.12,9.59a50.28,50.28,0,0,1-1.19,9.2c-1.57,7.36-5.33,13.71-9.34,19.67,0-2.64,0-5.37,0-8.11,0-1.55-.16-3.13-2.05-3.29s-2.36,1.51-2.46,3a48.63,48.63,0,0,0-.12,7.91c.5,5,0,9.59-4.15,13.1a27.44,27.44,0,0,0-2.85,3.22,16.15,16.15,0,0,1,.27-3c.16-2.82.33-5.65.24-8.47a2.55,2.55,0,0,0-1.62-1.86,2.8,2.8,0,0,0-2.22,1.18,6.92,6.92,0,0,0-1.09,3.32,57.43,57.43,0,0,0,.25,7.53c.29,2.91.49,5.85-1.84,8-8.75,8-18.26,14.8-30.07,17.74a43.3,43.3,0,0,0-9.26,3.44c-2.95,1.5-3.45,3.48-2.68,6.68a14,14,0,0,1,.71,4.43,106.06,106.06,0,0,1-1.63,11.77c-.79,3.9-2,7.71-3.15,11.86-3.21-4.64-3.86-8.94-2.95-14.58,1.42-8.89,2.65-17.8,3.88-26.72.39-2.86.49-5.76.72-8.47a11.83,11.83,0,0,0,2.71-.18c3.24-1.09,6.07-2.79,7.35-6.16.92-2.39,1.52-4.91,2.28-7.36a56.2,56.2,0,0,1,2.59-7.87c3.28-6.7,6.83-13.27,10.64-20.61,2.22-.89,5.29-2.12,8.34-3.37,1.16-.47,2.36-1,2-3.06l-9.06,1.16c4.34-12.66,10-25,4.63-38.21a6.87,6.87,0,0,1,4.59-3.25,67.4,67.4,0,0,0,7.06-2.39l-.19-.88h-5.52c.8-2.46,1.63-4.59,2.17-6.79a33.85,33.85,0,0,0,.58-4.84c.25-2.5.05-4.92-1.55-7-.55-.72-1.56-1.2-1.87-2-1.64-4.24-3.74-8.46-3.39-13.13s1.37-9.25,1.83-13.9c.37-3.72,1-7.62.32-11.2a27.9,27.9,0,0,0-6.31-12.67A59.15,59.15,0,0,0,399.58,195c-19.34-10.21-40.07-15-61.8-15.85-7.78-.33-15,1.37-21.31,6.09-7.38,5.51-14.64,11.18-22.05,16.63a32.4,32.4,0,0,0-12.73,18.85,21.21,21.21,0,0,0-.17,10c1.35,5.91,3.39,11.73,2.37,17.89a29.53,29.53,0,0,0-2.6,6.5,32.56,32.56,0,0,0,.25,15.54,12.55,12.55,0,0,1,.73,4.68c-.77,6.05,1.47,10.87,5.6,15.05.07.08.06.24,0,.1-1.36,3.41-2.79,6.55-3.87,9.81-3.62,10.94-5.4,22.17-3.56,33.64,2.5,15.59,9.36,28.93,21.85,38.92,3.64,2.91,7.12,6.37,12.12,6.95,0,1.32,0,2.64,0,4,0,5.32,1.24,6.07,5.92,3.44.55,2,1.21,3.95,1.59,5.95.76,4,1.41,7.94,2,11.93.41,2.7,1.19,3.33,3.87,2.65a23.07,23.07,0,0,0,3.3-1.41c-1,8.27,3,14.28,8.22,19.86,3.26,3.47,6.25,7.21,9.21,11,3.83,4.87,5.67,10.64,7.21,16.88a68.7,68.7,0,0,0-7.37-1.52,17.19,17.19,0,0,0-5.62.48,2.9,2.9,0,0,0-1.6,2.21,3.31,3.31,0,0,0,1.5,2.28,6.71,6.71,0,0,0,3.19.95c3.25.12,6.5,0,10,0-3.85,2.64-11.55,4.78-16.77,4.93a25.68,25.68,0,0,1-13.18-3.1,13,13,0,0,1-6.4-7.3c-.95-2.74.09-5.43,2.28-6.13a20,20,0,0,0,.65,2,3.08,3.08,0,1,0,5.74-2.23,5.86,5.86,0,0,0-2.49-2.6,7.06,7.06,0,0,0-10,5.47,10.18,10.18,0,0,0,1.61,7.78,22.26,22.26,0,0,0,9,7.56c5.72,2.58,11.68,2.87,17.72,2,3-.42,5.87-1.37,8.81-2.09,0,.12.07.27,0,.35-.31.52-.64,1-1,1.52a28.94,28.94,0,0,0-4.65,14.18c-.07,1.27.53,3.24,1.44,3.73s3,.19,4.17-.45a9.24,9.24,0,0,0,3.31-3.32,116.23,116.23,0,0,0,6.37-11.43c1.78-3.83,3-7.91,4.52-11.87a5.69,5.69,0,0,1,1.17-2c2.05-2,4.18-3.84,6.42-5.86-.63,3.13-1.38,6-1.73,9a67.55,67.55,0,0,0-.44,9.11,18.4,18.4,0,0,0,2.83,10.2c2.14,3.19,5.44,3.12,6.94-.37a32.39,32.39,0,0,0,2.63-9.5,130.88,130.88,0,0,0-.28-28.94,7.11,7.11,0,0,1,.71-3.92,79.3,79.3,0,0,0,7.67-22.06c.47-2.73.82-5.48,1.22-8.22l.4,0c.85,2.83,1.71,5.67,2.55,8.48-3.59,2.85-4.35,6.82-4.81,10.87-.7,6.22,1.17,12.09,2.81,17.94,1.41,5,3.09,10,8.21,12.18.44,1.9.69,3.55,1.22,5.11C408.07,469.89,414.41,478,424.16,483.26Zm56.32-153.35a18.57,18.57,0,0,1-3,2.42,84.4,84.4,0,0,1-8,3.56c-4.06,1.55-8.18,2.92-12.13,4.31C462.42,331.54,474.39,325.92,480.48,329.91Zm-11,23.4c-7.57,4.07-15.61,4.23-23.49,6C452.53,352.79,463.22,350.9,469.44,353.31ZM396,362c-1.29,4.26-2.53,5.47-8.18,7.88.38-5.6.55-11.11-1.63-16.84a52.69,52.69,0,0,1,7.21,2.31C396.12,356.58,396.9,359.11,396,362Zm1.29-7.75c-3.55-3.5-7.91-3.75-12.38-3l-11.83-14c5,.08,9.94-1.25,14.5,1.41a4.59,4.59,0,0,0,3,.26c3.25-.79,6.47-1.75,9.69-2.69a7.62,7.62,0,0,0,1.56-.84c.26-1.71-.81-2.27-1.85-2.21a44.81,44.81,0,0,0-6.39,1,23.92,23.92,0,0,0-3.5,1.37c-6.31-3.7-13.14-2.23-20.05-2.25l-3.46-4.36c2.75.39,5.48,1.11,8.21,1.09s5.2-1.11,7.82-1.19a84.49,84.49,0,0,1,8.8.68c1,.07,2-.05,3,0a5.48,5.48,0,0,1,2.46.33c3.46,2.06,6.87,4.14,11.28,2.32l.41.74Zm23.47-73.36c-2.43-.24-4.84-.66-7.26-.68s-4.68.36-6.84.55c1.47-3.1,12.37-9.22,17.85-9.69C424.68,274.8,421.92,277.42,420.8,280.85Zm-5.25,3.74v2.54l-6.87-1.25c0-.22,0-.45,0-.68Zm8-20.51.29-.08c.32,1.27.64,2.55,1,4.12l-2.25.11C423,266.75,423.25,265.42,423.55,264.08Zm-2.05-.53c-.78,2.28-.24,4.54-2.48,6.06.24-1.6.43-2.88.65-4.39ZM329.23,182.1a15.25,15.25,0,0,1,5.48-.31,176.9,176.9,0,0,1,45,9.07c10.28,3.59,20.13,8.08,28.72,15A32.33,32.33,0,0,1,420,223.26c.69,2.67.11,5.66.11,8.5h-.36c-.49-1.9-1-3.79-1.47-5.7A16,16,0,0,0,410,215.38c-2-1.11-3.61-2.8-5.41-4.17-4.29-3.26-8.69-6.69-13.59-8.78-9.73-4.16-19.84-7.6-30.48-8.36a195.59,195.59,0,0,0-22.19.09c-7,.3-14,1.18-21,1.63a52,52,0,0,1-6.83-.48C316.58,190.16,321.66,184.34,329.23,182.1Zm65,33.65c-5.8-2.87-12.05-3.91-18.42-4.4-11.57-.9-23,.55-34.4,2.24-5.29.78-10.67,1-16,1.8a100.42,100.42,0,0,0-9.8,2.48c-.4.11-.8.19-1.18.31,6.08-2.44,12.17-4.86,18.23-7.34s11.76-5.18,17.79-7.33A53,53,0,0,1,381.4,202a47.45,47.45,0,0,1,21.22,11.19c5.33,4.94,5.93,11-1.26,15.38C402.12,222.08,400.25,218.72,394.25,215.75Zm-22.76,1.61c-4.94,0-9.88.68-14.82.67-1.95,0-3.9-1.06-5.85-1.65v-.51c9.19-1.19,18.37-2.13,27.66-.93,4.88.63,9.7,1.5,14.07,3.89a23.42,23.42,0,0,1,5,3.85C389.48,217.64,380.48,217.36,371.49,217.36Zm24.64,11c-.2,1.46-1.6,2.21-3.17,2.12a14.16,14.16,0,0,1-3.53-.41c-9.49-3.09-18.95-6.26-28.42-9.41l.17-.63c5,0,10-.23,15,.07a70.25,70.25,0,0,1,12.14,1.85,20.61,20.61,0,0,1,6.48,3.23A4,4,0,0,1,396.13,228.34Zm-88.67-30.7c8.38,1.78,16.71,1.29,25,.3,10.81-1.31,21.6-1.83,32.46-.47-2.58.26-5.16.48-7.73.79-7.74.91-15.49,1.77-23.21,2.81a100.3,100.3,0,0,1-30-.59Zm-6.4,4.94c13.87,3.81,27.68,2.48,41.54,0-4.74,2.1-9.42,4.37-14.25,6.25-6.58,2.56-13.22,5-19.94,7.17a52.46,52.46,0,0,1-18.82,2.17,15.34,15.34,0,0,1-2.59-.6C289.27,209.93,295.1,206.16,301.06,202.58Zm-15.37,18.79c12.18,2.51,23.82,1.22,35.1-1.62.11,2.28.23,4.73.36,7.19-13,0-23.4,6.13-32.19,15.64-1.22-5.33-2.54-10.49-3.53-15.72C285.09,225.06,285.58,223.1,285.69,221.37ZM303,250.32l-1.65-2c6.33-2.25,24.13,1,28.92,5.4l-4.5,7.16C319.36,255.06,312.58,250,303,250.32Zm21.6,13.1c-.67,2.08-1.24,4.05-2,5.95-.86,2.29-2.83,3-4.72,1.39a22.93,22.93,0,0,1-4.45-5c-2.53-3.92-4.79-8-7.29-12.24A27.86,27.86,0,0,1,324.6,263.42Zm-13.26-18.26c-3.9-.22-7.82,0-12.2,0a20.53,20.53,0,0,1,2.21-.87,56.27,56.27,0,0,1,22.58-1.66,14.85,14.85,0,0,1,9.48,5.35c-.24.71-.44,1.4-.71,2.07a16.57,16.57,0,0,1-.81,1.49C326,246.07,318.66,245.57,311.34,245.16Zm-19.73-.79c6-7.77,23.13-16.37,32.28-12.62l5.7,8.66C316.13,236.05,303.62,239.08,291.61,244.37ZM286.47,277a19.45,19.45,0,0,0-.72-7.42,31.28,31.28,0,0,1-.91-13c.59-4.47,2.21-6.12,6.67-6.82,1.23-.19,2.54-.68,3.7-.46a5.91,5.91,0,0,1,3.49,1.81c3,4.24,5.72,8.73,8.71,13,2.15,3.07,4.24,6.31,7,8.82,4.81,4.43,10.34,2.8,12.38-3.42a64.52,64.52,0,0,1,7-14.23c1.83-2.9,3.21-6,2.57-9.53a12.62,12.62,0,0,0-1.67-4.37c-2.79-4.5-5.84-8.84-8.6-13.36-2.32-3.8-2.64-5.39-2.22-8.25a40.79,40.79,0,0,1,5-1.57c7.38-1.46,14.56,0,21.49,2.3C360.5,224,370.53,228,380.73,231.5a104.44,104.44,0,0,0,11.94,2.91c7.37,1.61,15.87-5.56,16.95-10.35a35.15,35.15,0,0,1,.94-4.45c1,1.46,2.44,2.79,2.87,4.4A76.83,76.83,0,0,1,416,236.77c.65,6.93.71,13.91,3.54,20.43l1.35,3.07c-6.59,5.41-11.63,12.24-17,18.74a11.68,11.68,0,0,0-2.5,7.79c.07,7.56,1.76,14.83,3.89,22,.22.76.46,1.52.69,2.28a3.62,3.62,0,0,1-1.77,4.56c-1.89,1.2-3.83,2.35-5.6,3.72-.7.54-1,1.61-1.45,2.44l.46.5a6,6,0,0,0,1.78-.29,55.54,55.54,0,0,0,6.62-3.59,6.32,6.32,0,0,0,2.2-3.28c1.22-4.11-.07-8.12-.91-12.13-1-5-2.09-9.93-3.23-15.3l12.28,2.93a22.54,22.54,0,0,1,1.25,11.75c-1.25,8.14-4.05,15.87-7,23.56-3.18.75-6.13.88-9-.93s-5.72-2.09-8.31.62a3.16,3.16,0,0,1-.74-.39c-3.87-3.84-8.6-4-13.54-3.15-3.06.51-6.11,1.11-9.17,1.69a8.79,8.79,0,0,1-6.49-1.05c-2.15-1.31-4.33-2.56-6.52-3.81-.59-.34-1.24-.59-2.22-1,0,2.51,2.25,2.77,3,3.88-8.2,0-16.44.1-24.69-.07a12.71,12.71,0,0,0-7.16,1.76c-5.32,3.22-10.67,6.39-16,9.58-.51.31-1,.56-1.72.92-7.84-10.54-13-21.82-12.3-35.28,2.93,1.71,5.89,3.06,9.17,1.39a4.85,4.85,0,0,0,3.07-4.31,10.52,10.52,0,0,0-2,.4c-3.3,1.36-6.12,1-8.58-1.87-2.6-3-5.44-5.79-8.11-8.72A10.27,10.27,0,0,1,286.47,277Zm29.36,86.74c.24,2.88,0,5.8,0,8.71l-.49,0-2.4,2.21a44.64,44.64,0,0,1-13.87-11.19,62.71,62.71,0,0,1-14.19-28.23c-2.15-10-.95-19.9,1.21-29.72.95-4.3,2.29-8.52,3.58-13.25l3,3.28c-.11,4.46-.56,8.49-.24,12.46a43.93,43.93,0,0,0,6.93,20.07A129.1,129.1,0,0,0,307.8,340a58.44,58.44,0,0,0,7.05,6.64c2,1.73,4.07,3.33,6.11,5-.1.17-.13.32-.23.39C316.63,354.89,315.43,358.93,315.83,363.78Zm1.86-20.28c4.47.34,7.85-2.39,11.67-3.84,1.48-.56,3.29-.27,4.94-.37.09.23.17.45.25.68l-10.1,8.89Zm33.77,136.65a28.09,28.09,0,0,1,10.08-18.56C359.14,468.33,356.23,474.75,351.46,480.15ZM379,475.49l-.78.11a36.21,36.21,0,0,1-1.51-5.57c-1-9.33.84-18.28,3.92-27,.05-.16.23-.28.77-.88C380.37,453.6,382,464.72,379,475.49Zm1.73-41.67c-.79,1.16-2.73,1.9-4.25,2.11-3,.41-6.08.17-9.1.47a13.3,13.3,0,0,0-4.81,1.46,2.86,2.86,0,0,0-1.43,3.58,2.78,2.78,0,0,0,3.42,1.74c3.56-.69,7.08-1.58,10.62-2.41a12.72,12.72,0,0,0,1.46-.58,9.79,9.79,0,0,1-1,1.48c-3.9,3.94-7.79,7.9-11.79,11.75a6.56,6.56,0,0,1-2.42,1c-2.41-5.31-4.57-10.27-6.89-15.15-3.23-6.8-8.43-12.17-13.18-17.85-2.34-2.8-4.78-5.49-5.43-9.3a11.52,11.52,0,0,1,.39-6.42,33.78,33.78,0,0,0,1.18-4.89c.93,1.09,1.7,2.71,2.94,3.26s3,.13,4.78.13c.47,2.4-2,5.22.29,8.25a14.28,14.28,0,0,0,1.46-2.09c.73-1.7,1.23-3.51,2.05-5.16a61,61,0,0,1,4.69-8.46c2.46-3.42,5.35-6.52,4.26-11.41,4,.19,7.47-.54,10.4-2.84l-.12-.7h-8.86a58.92,58.92,0,0,0,2.43-6.06c.54-1.91,1.93-4-.18-6.42-2.47,3.62-3.6,7.59-5.56,11-5.29-1.07-6.51-6.67-10.44-9.11-1.14,1.42-.35,3.83,2.79,9.11a4,4,0,0,1-3,3.74,30.24,30.24,0,0,0-4,1.79,9.39,9.39,0,0,0-1.6,1.39c1.6,1.83,3.18.22,4.9.6,2.72,4.15,2.57,8.7,1,13.5h-3.36l.4-.33c-3.2-4.67-6.37-9.36-9.63-14a3.1,3.1,0,0,1-.39-3.31c2-4.89,4-9.81,5.95-14.72,1.16-2.88,3.22-4.37,6.29-4a45.48,45.48,0,0,0,17.69-1.3,21.38,21.38,0,0,0,2.72-1.13l-.19-.87c-1.77.13-3.54.3-5.31.38-5.88.27-11.76.59-17.65.73-2.69.06-4.64,1.07-5.69,3.51-2.38,5.53-4.67,11.1-7,16.66-1,2.35-.1,4.4,1.14,6.36,1.14,1.78,2.32,3.52,3.48,5.29-1.69,3.71-3.33,7.19-6.75,9.71-.5-2.83-.89-5.42-1.41-8a73.67,73.67,0,0,0-1.9-8.22,65,65,0,0,0-3-6.76c4.78-8.07,11-15.61,13.81-25.12,12.92.3,25.81.8,38.56-1.38l.05-1a43.73,43.73,0,0,0-6.68-1c-10.06.05-20.12.27-30.18.44a4.85,4.85,0,0,0-4.55,2.64c-.63,1.16-1.34,2.28-2,3.43q-5.21,9.15-10.38,18.29c-.33.58-.61,1.18-.9,1.77-.88,1.85-.87,1.94.46,3.77l-1.3,1.42c.39-9.2,1.8-17.86.52-26.21l20.25-17.07a13.93,13.93,0,0,1,8.72,1.05c4.52,1.88,9.1,3.64,13.62,5.52,3.55,1.49,7.15,1.24,10.78.78l.17-.61-21.39-8.33,3.54-4.67-.28-.69c-.73,0-1.7-.19-2.16.19-4.37,3.61-9.34,2.57-14,1.39a18.58,18.58,0,0,0-14.29,1.73,11.77,11.77,0,0,1-12.33-1.23l19.4-12c9.17,2.91,19.5,1.58,30,1.86.78,1.13,1.66,2.36,2.49,3.61a131,131,0,0,0,17.39,21.64,10.82,10.82,0,0,1,3,8.36c-.64,10-1.24,19.95-2.18,29.89-.66,6.84-1.93,13.62-2.81,20.44-.68,5.28.57,10,4.64,13.73a20.65,20.65,0,0,0,1.75,1.28C383.44,428.44,382.39,431.34,380.71,433.82Zm-32.44-47,3.53-4.3,2.57.71c.14,4-.41,7.63-3.63,10.17C349.91,391.15,349.07,388.91,348.27,386.79ZM422.8,477.3l-4.52-3.76.37-.45,4,1.88.57,2Zm2.57-1.47,4.74,1.34c.37,1.29.71,2.49,1.05,3.7C427.68,480.72,426,479.3,425.37,475.83Zm15.2,11.94c3.51,0,7-1.1,10.6-1.73-2.81,8.87-1.06,18.21-2.35,27.37-3.44,2.64-12.7,2.65-16.44-.12-.18-4.52-.41-9.14-.52-13.76s.18-9.14-2-13.57C433.62,486.64,437.1,487.77,440.57,487.77Zm-8.43-10.11,7.15.79v4.18l-4.57-.54C434,480.79,433.19,479.45,432.14,477.66Zm9.8.78,7.31-.79c-1,1.79-1.82,3.12-2.58,4.44l-4.37.45C442.18,481.15,442.07,479.88,441.94,478.44Zm-25.56,58.89,2.06,5.89-1.85,1.58C413.84,541.39,413.84,539.64,416.38,537.33Zm6.12,13.08-4.69-3.68,2-2.29,4.65,3Zm8.29,3.29-6-2.13,1.63-3.22L432,550C431.55,551.35,431.21,552.4,430.79,553.7Zm2.46.58c.21-1.32.4-2.46.61-3.7h4.89c.13,1.52.24,2.75.39,4.36Zm9,.72c-.2-1.47-.38-2.74-.6-4.36h5.8c.22,1,.48,2.12.81,3.6Zm8.33-1.27c-.42-1.35-.75-2.45-1.14-3.69l5.55-1.7,1.61,3.23Zm8.34-3.27-2-3,4.65-3.06,2,2.27ZM465,537.31c2.56,2.45,2.5,4.53-.29,7.43l-1.8-1.49Zm-5.31-3.53a4.54,4.54,0,0,1,.76,7.06,15.18,15.18,0,0,1-5.29,4,36.8,36.8,0,0,1-30.62-.75,7.68,7.68,0,0,1-4.81-6.13,4,4,0,0,1,1.63-4c4.38-3.26,8.08-7.07,9.47-12.6.3-1.21.61-2.42,1-3.8a19.52,19.52,0,0,0,17.67.07,2.17,2.17,0,0,1,.34.68C450.85,524.91,454.45,529.83,459.7,533.78ZM450.19,481c.38-1.32.7-2.45,1.07-3.76l2.35-.69,2.28-.7C455.72,479.27,453.9,480.27,450.19,481Zm8.46-3.65-.43-.42c.17-.61.34-1.23.53-1.9l4.42-2.14.27.32Zm4-7.75a42.08,42.08,0,0,1-19.77,6A41.31,41.31,0,0,1,417,468.36c-4.78-3.27-8.56-7.66-10.1-13.75,3.67-1.22,4.23-4.34,4.69-7.58,1.37-9.8.51-19.29-4-28.25-1.3-2.6-2.86-5-6.15-5.23-.67-2.66-1.33-5.25-2-7.8a132.28,132.28,0,0,0,82.5,0c-.62,2.49-1.26,5-1.95,7.72-3.42.33-5.06,2.95-6.44,5.82-4.68,9.76-5.21,20-3.22,30.45.45,2.37,1.17,3.1,4.2,5.07C472.59,461.35,468.33,466.11,462.65,469.57Zm-56.13-67.66,10.3,2.72,1,3.11-10.05-2.41Zm13.26,3.14c1.53.1,2.81.2,4.1.27l4.08.22c.22,1,.42,1.91.71,3.22l-7.8-.86Zm10.41.78h8.89v3.81l-7.58-.34C431.06,408.14,430.66,407.06,430.19,405.83Zm11.27,3.5v-3.46h9.65c-.38,1.09-.77,2.22-1.19,3.46Zm11.31-.52c.23-1.2.41-2.18.61-3.25l8.22-.49-1.08,2.8Zm10.82-1c.44-1.4.7-2.24,1-3.12l10.3-2.76-1.19,3.42Zm15.67,40.65c-.76-3.83-1.51-7.59-2.25-11.34l.53-.14q1.26,4.38,2.54,8.76l.61.14,4.68-16.95C486.32,433.16,481.89,447.06,479.26,448.42Zm3.58-21.85c-1.36,1.73-1.52,4.43-2.15,6.71a18.74,18.74,0,0,1-1,3.46,21.76,21.76,0,0,0-.63-2.13c-.52-1.22-.64-3.13-2.49-2.8s-1.41,2.12-1.29,3.33c.42,4.34,1,8.66,1.54,13,.06.44.13.89.23,1.56l-1.9.21c-.36-1.44-.74-2.69-1-4-1.44-7.9-1.25-15.66,1.9-23.2,1.07-2.55,2.35-4.89,5.42-6.6a8.59,8.59,0,0,1,1.84,2.14C484.46,421.05,485.13,423.67,482.84,426.57Zm-6.23-22.48c.34-1.11.61-2,.82-2.68l8.31-3.75C485.25,400.81,482.25,403,476.61,404.09Zm-83.39-11.15c1.53-.91,2.5-1.81,3.63-2.11,5.43-1.43,10.83-3.17,16.36-3.91a209.18,209.18,0,0,1,24.74-2c13.65-.17,27.28.71,40.64,3.86a50.67,50.67,0,0,1,6.9,2.47,17.18,17.18,0,0,1,2.64,1.74c-1.9,1-3.33,1.84-4.86,2.46-8.08,3.23-16.61,4.37-25.17,5.44-16.61,2.07-33.06.93-49.4-2.3a90.85,90.85,0,0,1-11.38-3.47A30.16,30.16,0,0,1,393.22,392.94Zm2.23,4.64c2.75,1.24,5.46,2.46,8.51,3.85.21.68.48,1.54.75,2.46C400.27,403.75,396.82,401.37,395.45,397.58Zm6.72,50.7-.91.21c-3.61-5.94-4.4-12.77-6-19.36l.71-.23q2.34,8.46,4.67,16.92l.6-.07c.85-2.91,1.69-5.82,2.54-8.73l.54.12ZM406,433.63c0-.63-.72-1.25-1.11-1.88-.66.44-1.57.74-1.92,1.35a26.4,26.4,0,0,0-1.48,4.08,48,48,0,0,0-1.19-5.63,39.47,39.47,0,0,0-2.84-6.65c-1.38-2.44.18-7.64,2.81-8.55,3.66,1.88,4.82,5.48,6,9,2.56,7.69,2.29,15.49.37,23.28a8.49,8.49,0,0,1-.58,1.25l-1.65-.11c.48-3.14,1-6.05,1.36-9A54.61,54.61,0,0,0,406,433.63ZM194.65,671.71V418.83l-4.17,3V675.26c12.57,2.29,21,8.48,21.85,22.22.5,0,1,.11,1.41.11,39,0,78.05-.06,117.07,0,3.48,0,5-2.3,7-4.36H216C213.36,681.76,207,674.05,194.65,671.71ZM580.39,421.88l-4.29-3.16v253c-12.2,2.26-18.58,9.94-21.27,21.57h-122c2.59,3.42,4.2,4.26,7.88,4.26,5,0,9.94,0,14.91,0l101.36,0a13,13,0,0,0,1.52-.17c1-13.87,9.46-19.91,21.85-22.17ZM577,76.39v243l4.17-3.12V72.84c-12.62-2.31-21-8.49-21.85-22.19-.52,0-1-.13-1.55-.13-38.75,0-77.51.07-116.27-.07-3.65,0-5.56,1.94-8.15,4.38H555.6C558.35,66.44,564.71,74.13,577,76.39ZM191.28,316.3l4.31,3.18V76.28c11.79-2.4,16.66-7.35,21.24-21.53h122.1c-2.5-2.66-4.72-4.6-8.51-4.3-4.87.38-9.79.09-14.69.09H213.13c-.82,13.8-9.27,20-21.85,22.3Zm164.3-190.49h59.47V76.14H355.58Zm4.26-45.42h51v41.2h-51Zm-68.25,417.2a6.93,6.93,0,0,1-4-5.59c-.69-4.78-1.45-9.55-2.21-14.32-.29-1.83-.66-3.66-1-5.49-.46.29-.58.53-.62.78-1,5.94-2.06,11.87-2.81,17.84-.43,3.44-1.93,6-5,7.28-3.33,1.39-6.86,2.31-10.31,3.41-.54.18-1.11.26-1.66.39a4,4,0,0,0,1.62.68c3.67,1.23,7.43,2.29,11,3.81,2.56,1.09,3.9,3.36,4.27,6.26.63,4.85,1.48,9.68,2.26,14.51.25,1.58.56,3.15.85,4.72a1.25,1.25,0,0,0,.67-.86c1-6.08,2-12.14,2.87-18.24a7.93,7.93,0,0,1,3.82-6.16,24,24,0,0,1,4.61-2.26c2.68-.88,5.45-1.5,8.19-2.23l.08-.34a17.44,17.44,0,0,1-2.63-.49C298.22,500.12,294.81,499.06,291.59,497.59ZM469.76,192.46c.51,3.8,1.14,7.59,1.75,11.37.43,2.68.9,5.35,1.35,8a2,2,0,0,0,.75-1.32c1-6,2-12,2.86-18a7.6,7.6,0,0,1,3.65-5.82,25.45,25.45,0,0,1,5-2.44c2.59-.87,5.29-1.44,7.94-2.13l0-.38a16,16,0,0,1-2.69-.49c-3.35-1.18-6.75-2.26-10-3.74a6.46,6.46,0,0,1-3.77-5.06c-.6-4.05-1.26-8.1-1.91-12.15-.44-2.69-.91-5.38-1.36-8.07-.48.21-.63.42-.67.64-1,6-2,12-2.82,18-.42,3.15-1.71,5.68-4.59,6.93-3.24,1.42-6.68,2.4-10,3.52a20.28,20.28,0,0,1-2.56.48c.34.33.42.47.52.49.45.09.91.13,1.37.21a30.36,30.36,0,0,1,11.18,3.88A8.12,8.12,0,0,1,469.76,192.46Zm-162,441.4c.64,2.47,1.23,4.95,1.92,7.41,1.44,5.15,2.77,10.34,4.46,15.4,1,2.83,2.56,3,5.43.89.53-5.72,1.22-11.76,1.62-17.81.36-5.48.44-11,.55-16.47,0-1.39-.18-3-2-3.1s-2,1.43-2.14,2.8q-.58,7.32-1.12,14.63c-.23,3.12-.43,6.24-.64,9.36-1.17-2.79-1.9-5.61-2.82-8.36-1.8-5.39-3.68-10.76-5.58-16.11-.36-1-.7-2.25-2.61-1.83a17.51,17.51,0,0,0-.69,3.08q-.6,15.57-1.07,31.14c-.08,2.58.75,4,2.15,3.84,2.2-.28,2.06-2.17,2.07-3.7.05-4.83,0-9.66,0-14.5,0-2.2,0-4.41,0-6.62Zm150.27-14c-.61,0-1.66.85-1.91,1.55a11.52,11.52,0,0,0-.46,3.72c-.09,5.16,0,10.33-.21,15.48-.14,4.12-.59,8.26-3.21,11.68A17.61,17.61,0,0,1,449,655c-4.27-2.11-5.44-5.37-5.69-9-.46-6.93-.72-13.87-1.11-20.81a8.09,8.09,0,0,0-.57-3.09,2.75,2.75,0,0,0-1.95-1.48c-.67,0-1.34,1-1.87,1.67a2.87,2.87,0,0,0-.22,1.35A103.18,103.18,0,0,0,438,647.4a16.25,16.25,0,0,0,3.33,8.18c3.24,4,11.74,5.41,14.77-1.34a39.68,39.68,0,0,0,2.32-6.3c1.88-7.31,2-14.8,2-22.28a13.14,13.14,0,0,0-.44-4.12A2.9,2.9,0,0,0,458,619.89ZM267.9,642.71c2,4.84,3.88,9.7,5.9,14.52.62,1.46,1.49,3.22,3.49,2.29s1-2.67.43-4.13c-2.7-6.32-5.42-12.63-8.2-19.11.36-.64.76-1.4,1.19-2.14,2.21-3.76,4.47-7.5,6.61-11.31a10.46,10.46,0,0,0,.66-2.7c-2.14-1-3,.23-3.66,1.31-3.05,4.57-6,9.18-9,13.79-.37.56-.72,1.14-1.07,1.71a9.79,9.79,0,0,1-.28-3.11c-.07-4-.09-8.07-.35-12.09,0-.71-1.12-1.36-1.71-2a21.27,21.27,0,0,0-1.88,1.92c-.21.26-.11.77-.12,1.17q-.39,15.59-.75,31.17a18.38,18.38,0,0,0,.06,2.78c.17,1.29.54,2.62,2.14,2.66s2.08-1.3,2.19-2.58a29.65,29.65,0,0,0,.13-6c-.46-3.86,1-6.94,3.56-10C267.49,641.62,267.69,642.17,267.9,642.71Zm217.45-9.08a9.77,9.77,0,0,0-1.83-10.37c-2.59-3-6-3.56-9.8-2.91-1.32.22-2.66.31-4.42.51-1.12,1.2-2.66,2.7-4,4.35a4.08,4.08,0,0,0-.87,2.34c0,.65.56,1.31.88,2l.79.12c.29-.59.58-1.18.86-1.77l.39.27c-.13,2.62-.33,5.23-.38,7.85q-.19,9.72-.24,19.44c0,1.61.7,2.85,2.52,3,1.56.11,2.6-1,2.76-3,0-.66,0-1.33,0-2V647C479.91,643.25,483.09,640,485.35,633.63Zm-13.3-8.8c4.66-1.8,8.33-.37,9,3.83a10,10,0,0,1-1,5.11c-1.49,3.6-4.2,6.12-8.05,8.11Zm-93.81,27.85c2.65-6.65,2.82-13.56,1.64-20.53a10.06,10.06,0,0,0-1.37-2.69l-.35-.05a9.43,9.43,0,0,0,0-1.19c-.35-3.13-2.78-6.26-5.3-6.86s-5.34.78-7.09,3.73a26.53,26.53,0,0,0-3.44,7.29,33.25,33.25,0,0,0-.62,13.8c.81,4.2,2,8.23,5.17,11.38,2.56,2.53,5.8,2.73,8.24.1A16.44,16.44,0,0,0,378.24,652.68ZM371,655.81c-1.12-1.62-2.11-2.55-2.51-3.69a33.13,33.13,0,0,1,.6-24.19,7.62,7.62,0,0,1,.58-1c1.67-2.66,3.12-2.67,4.85,0,.65,1,1.2,2.05,1.62,2.78,0,1.72-.11,3,0,4.17.64,6.14.28,12.16-2.27,17.86A29.55,29.55,0,0,1,371,655.81Zm-28.59-11.66a43.36,43.36,0,0,0-6.12-.46,2.45,2.45,0,0,0-2.68,2.39,2.55,2.55,0,0,0,2.48,2.81c1.16.17,2.33.19,4.18.33a43,43,0,0,1-3.45,4.49c-1.57,1.55-2.85,1.28-4-.68a10.33,10.33,0,0,1-1.17-2.93,39.61,39.61,0,0,1,1.6-22.45c.47-1.28,1.74-2.27,2.54-3.26,3.17.93,4,3,4.47,5.36.16.75,1.21,1.31,1.85,2,.61-.74,1.63-1.41,1.76-2.22a8.56,8.56,0,0,0-5.75-9c-3.1-1-6.75,1-8.56,4.56-.27.53-.48,1.09-.7,1.64a40.62,40.62,0,0,0-2.11,22.63,22.49,22.49,0,0,0,2.45,6.84c2.12,3.78,6.65,4.38,10,1.63s4.78-6.56,5.26-10.76A2.4,2.4,0,0,0,342.44,644.15ZM496,623.71c2.71.18,4.2,1.26,5.1,3.64a7.14,7.14,0,0,0,.89,2,1.61,1.61,0,0,0,2.91-.59,6.85,6.85,0,0,0-2.27-7.15c-2.88-2.22-6.4-2.77-8.69-1.35a9.54,9.54,0,0,0-4.1,11.72,17.49,17.49,0,0,0,5.67,7.5c3.12,2.63,5,6,4.76,10.22-.16,2.77-1.76,4.35-4.31,4.47-3.27.17-4.5-.8-5-4a4.16,4.16,0,0,0-.25-1.36c-.41-.68-.89-1.65-1.5-1.79a2.58,2.58,0,0,0-2.19.86,5.93,5.93,0,0,0-1.08,3.08,7.83,7.83,0,0,0,6.18,7.77c7.39,1.27,12.55-2.49,12.82-10a15.71,15.71,0,0,0-6.35-13.65,18.69,18.69,0,0,1-4.23-4.64C492.63,627.76,493.3,625.66,496,623.71Zm-76.79,2.82.15-.13c2.6-2.13,5.47-2,7.81.41.91,1,1.56,2.18,2.53,3.05a7.19,7.19,0,0,0,2.37.88c.27-.81.92-1.72.74-2.41-1.35-5.18-7.52-10-14.07-6.19a15.24,15.24,0,0,0-4.19,3.86c-3.37,4.35-4.56,9.47-4.77,14.8.14,4.91.85,9.59,3.93,13.56,5.49,7.06,13.64,5.27,17.75-1.77a3.25,3.25,0,0,0-.41-2.94c-.9-1.06-2.18-.57-3.14.35a31.72,31.72,0,0,1-3.11,3c-2.38,1.71-4.95,1.33-6.95-.83C412.41,646.32,413.19,631.75,419.24,626.53ZM343.79,49.43A13.84,13.84,0,0,0,348.24,51c2.5.44,5.05.61,7.69.91a14.32,14.32,0,0,0-1.35,3.32c-.16,1.14-.22,2.83.44,3.4a4.07,4.07,0,0,0,3.57.42,14.84,14.84,0,0,0,8.47-9.4c1.68-5.46-2.64-12.13-6.68-15.31-1.27-1-2.73-1.84-4.34-.74s-1.41,2.78-.93,4.32,1.29,3.14,2,4.9a15.07,15.07,0,0,0-2.35,0,89.47,89.47,0,0,0-10.65,1.89C341.51,45.46,341.4,48,343.79,49.43Zm13.59,7.38-.63-.52,2.9-4.85,4.42-.89C362.3,53.52,360.33,55.72,357.38,56.81Zm6.37-12.87-3.38-.76-2.89-6.49C359.93,37.33,363,41,363.75,43.94Zm.6,3.11a30.28,30.28,0,0,1-18.64-.15A31.43,31.43,0,0,1,364.35,47.05Zm61.13,650.59c-3.16-.63-6.37-1-9.71-1.55a13.62,13.62,0,0,0,1.32-3.25c.15-1.13.14-2.76-.53-3.39a3.78,3.78,0,0,0-3.4-.41,14.89,14.89,0,0,0-8.55,9.36c-1.82,5.73,3,12.75,6.93,15.6,1.21.89,2.58,1.54,4,.57s1.44-2.5,1.05-3.94a32.59,32.59,0,0,0-1.55-3.85c-.18-.45-.38-.9-.46-1.07,3.69-.5,7.31-.85,10.86-1.52,1.75-.34,4-.81,3.92-3.22C429.33,698.73,427.31,698,425.48,697.64Zm-11.19-6.33.61.44c-1,1.69-2,3.38-2.89,4.93l-4.5.9C409.39,694.62,411.28,692.33,414.29,691.31Zm-.84,20.25c-2.6-1.75-4.23-4.32-6-7.49l3.83.86,2.76,6.27ZM407,701.33c3.36-2.33,15.78-2.23,19.44.23A41.2,41.2,0,0,1,407,701.33Zm-49.72-12.49c-2.58-.93-4.39.87-3.66,3.53a34.14,34.14,0,0,0,1.52,3.85c-2.71.32-5.35.48-7.92,1a13,13,0,0,0-4.56,1.77c-1.88,1.22-1.69,3.2.28,4.27a10.6,10.6,0,0,0,3.34,1.19c3.31.49,6.65.81,9.93,1.19-.62,1.58-1.43,3.3-2,5.11-.42,1.44-.41,3.24,1.18,3.8a4.36,4.36,0,0,0,3.77-.54,36,36,0,0,0,5.87-7.12C369.83,698.71,363,690.92,357.24,688.84Zm.12,22.7c-.18-.11-.37-.21-.56-.31.93-2.13,1.85-4.25,2.75-6.29l3.76-.86C361.72,707.24,360,709.78,357.36,711.54ZM344.92,701.4c3.87-2.29,15.35-2.33,19.06-.13A36.9,36.9,0,0,1,344.92,701.4Zm13.95-4.72c-.91-1.52-1.92-3.21-2.92-4.9l.59-.45c3,1,4.88,3.28,6.82,6.25ZM172.65,340.33a42.91,42.91,0,0,0,6.9,5.53c8.07,4.79,15.78-1.72,18-7.63a3.42,3.42,0,0,0-.48-3,4.32,4.32,0,0,0-3.21-.62,17.24,17.24,0,0,0-3.73,1.47c0-.61-.06-1.06-.13-1.5-.51-3.18-.9-6.39-1.6-9.53a3.09,3.09,0,0,0-3-2.73c-1.69,0-2.25,1.41-2.75,2.73a9.3,9.3,0,0,0-.63,2.09c-.43,3.32-.79,6.65-1.19,10a48.23,48.23,0,0,0-4.65-1.93c-1.54-.48-3.24-.63-4.3,1A3.14,3.14,0,0,0,172.65,340.33Zm22.58-3.16c-1,3.29-3.37,5.1-6.11,7C189.08,339.36,191.71,337.82,195.23,337.17Zm-9.68-11.8a37.93,37.93,0,0,1,.21,19.33C183.47,341.77,183.28,328.9,185.55,325.37Zm-4,15c.28,1.22.53,2.29.79,3.41-2.55-.58-6.09-3.37-7-6.12ZM237.7,654.1a4.38,4.38,0,0,0,3.78-.54,35.67,35.67,0,0,0,5.87-7.12c4.8-8.16-2-15.94-7.79-18-2.58-.93-4.39.87-3.66,3.53a36.14,36.14,0,0,0,1.52,3.85c-2.71.32-5.34.49-7.91,1a13.26,13.26,0,0,0-4.57,1.77c-1.88,1.22-1.69,3.2.28,4.27a10.5,10.5,0,0,0,3.35,1.19c3.31.49,6.64.81,9.93,1.2-.62,1.57-1.44,3.3-2,5.1C236.1,651.74,236.11,653.54,237.7,654.1Zm2.38-2.76-.91-.54c.91-2.13,1.81-4.25,2.67-6.28l3.31-.76.53.51Q242.89,647.81,240.08,651.34ZM245.42,637c-4.5,0-6-2.23-6.76-5.81C240.92,631.25,243.3,633.27,245.42,637ZM227,641.2c2.59-2.44,15-2.7,19.43-.36A41.38,41.38,0,0,1,227,641.2ZM181.2,397c.56,3.77,1,7.55,1.81,11.27a3.24,3.24,0,0,0,2.33,2,3.31,3.31,0,0,0,2.56-1.66,25,25,0,0,0,1.71-5.84c.37-2,.41-4,.6-6.12A16.76,16.76,0,0,0,193.8,398c1.06.17,2.66.13,3.21-.51a3.87,3.87,0,0,0,.47-3.39,14.68,14.68,0,0,0-9.48-8.64c-5.51-1.69-12.13,2.66-15.31,6.68-1,1.27-1.84,2.74-.72,4.34s2.79,1.4,4.33.92,3.13-1.3,4.89-2.05A11.69,11.69,0,0,0,181.2,397Zm14-1.8-.44.62-4.95-2.87c-.33-1.71-.56-2.92-.86-4.44C191.91,390.23,194.12,392.18,195.2,395.15ZM185.13,388c2.31,2.81,2.31,15.21-.06,18.85A37.62,37.62,0,0,1,185.13,388Zm-9.78,7c0-2,3.19-4.84,7-6.35-.29,1.26-.51,2.27-.8,3.53ZM540,638.67c.17-1.47-1.35-2.89-4-3.46-3.14-.66-6.35-1-9.6-1.52a35.81,35.81,0,0,0,1.49-3.87c.65-2.55-1.16-4.31-3.61-3.38a16.19,16.19,0,0,0-4.69,2.86c-7.41,6.27-5.3,19.2,3.7,23l.36.15c2,.63,3.83-.5,3.65-2.57a24,24,0,0,0-1.41-5.08,8.23,8.23,0,0,0-.76-1.47c3.69-.49,7.29-.84,10.83-1.49C537.65,641.47,539.7,641,540,638.67Zm-15-9.85c-.13,3-2,6.37-6.72,6.1C519.87,632.17,521.83,630,525,628.82ZM524,649.16c-2.63-1.78-4.34-4.32-6-7.5l3.78.86,2.74,6.32Zm-6.19-10.49a30,30,0,0,1,18.65.13A32,32,0,0,1,517.82,638.67ZM589.66,335c-.53-3.51-1-7-1.76-10.49a3.38,3.38,0,0,0-2.42-2.11,3.53,3.53,0,0,0-2.65,1.84,22.94,22.94,0,0,0-1.6,5.68c-.35,2-.4,4-.6,6.12a13.37,13.37,0,0,0-3.23-1.35,5.86,5.86,0,0,0-3.63.41c-1.33.88-.95,2.5-.3,3.8a15.43,15.43,0,0,0,8.47,7.92,10,10,0,0,0,3.88.6c5-.24,8.72-3.06,12-6.55a6.69,6.69,0,0,0,1.42-2.57,2.46,2.46,0,0,0-2.36-3.32,11.31,11.31,0,0,0-3.66.66,30,30,0,0,0-3.54,1.68A17.69,17.69,0,0,0,589.66,335Zm-14.23,2.08c4.18.93,6.29,2.41,6.3,6.89A13.47,13.47,0,0,1,575.43,337.1Zm10.31,7.68c-2.36-3.23-2.3-15.65.11-19.42A40.87,40.87,0,0,1,585.74,344.78Zm9.87-7.11.31.58c-1.79,2.62-4.3,4.35-7.48,5.93.31-1.4.53-2.4.83-3.74ZM414.31,59.2a3.51,3.51,0,0,0,3.05-.51,3.9,3.9,0,0,0,.64-3,20.81,20.81,0,0,0-1.56-4.07,17.38,17.38,0,0,0,3.17,0,79.64,79.64,0,0,0,8.83-2A3.18,3.18,0,0,0,430.12,47c-.05-.85-1.16-1.73-2-2.4a4.28,4.28,0,0,0-2-.73c-3.52-.51-7.05-1-10.64-1.42.61-1.51,1.42-3.18,1.95-4.92.43-1.43.42-3-1-4a3,3,0,0,0-4,.57A41.55,41.55,0,0,0,406.76,41C401.79,49.19,408.36,56.94,414.31,59.2Zm-.09-22.64.61.29-2.69,6.31-3.75.85A18.29,18.29,0,0,1,414.22,36.56Zm12.5,10.32a30.3,30.3,0,0,1-18.67.18A31.69,31.69,0,0,1,426.72,46.88Zm-11.42,10c-3.26-1-5.05-3.43-6.87-6C412.66,50.62,414.55,52.59,415.3,56.86ZM598.21,392.28a41.87,41.87,0,0,0-6.89-5.53c-8.05-4.77-15.75,1.62-18,7.61a3.69,3.69,0,0,0,.6,3.2c.56.61,2.06.66,3.06.49a19.47,19.47,0,0,0,3.74-1.48c.06.59.08,1,.15,1.47.48,3.12.84,6.27,1.51,9.35.32,1.47,1.23,2.93,3.06,2.93s2.32-1.52,2.84-2.9a8.53,8.53,0,0,0,.56-1.89c.42-3.33.79-6.66,1.19-10a49.6,49.6,0,0,0,4.64,1.94c1.54.48,3.23.62,4.3-1A3.14,3.14,0,0,0,598.21,392.28Zm-22.68,3.23c1.13-3.33,3.44-5.18,6-6.9C581.87,392.28,580.58,394.27,575.53,395.51Zm10.41,11.68c-2.45-3.27-2.61-15.65-.31-19.41C587.48,394.34,587.25,400.57,585.94,407.19Zm3.37-15c-.28-1.22-.53-2.29-.79-3.41,2.64.65,6.16,3.44,7,6.13ZM185.39,50c2.05,2.66,4.21,5.23,6.34,7.84-1.46.62-3.2,1.24-4.83,2.08-1.41.73-2.5,1.87-2.12,3.66a3,3,0,0,0,3.29,2.34,42.63,42.63,0,0,0,9-1.06c8.93-2.35,9.84-12.32,7.16-18.23-1.14-2.5-3.69-2.56-5.07-.2a32.38,32.38,0,0,0-1.68,4c-1.95-1.55-3.8-3.24-5.86-4.62a15,15,0,0,0-4.8-2.21c-2.42-.56-3.69,1-2.88,3.4A10.5,10.5,0,0,0,185.39,50Zm2.22,12.46,6.95-2.85,3.09,2C194.66,63,190.48,63.5,187.61,62.46Zm14.24-14.87c1.53,3,1.28,6,.69,9.07C199.56,54.47,199.2,50.57,201.85,47.59Zm-1.26,12.14c-3.93-.57-13.23-9.45-14.05-13.46A37.07,37.07,0,0,1,200.59,59.73Zm385.23,637.7c-1.9-2.44-4-4.75-6-7.15,1.47-.61,3.16-1.19,4.74-2s2.69-1.87,2.28-3.76a3.1,3.1,0,0,0-3.48-2.36,42.26,42.26,0,0,0-8.78,1.07c-8.94,2.39-9.82,12.36-7.11,18.23a3.48,3.48,0,0,0,2.55,1.74,3.83,3.83,0,0,0,2.55-1.73,19.61,19.61,0,0,0,1.6-3.81c2,1.56,3.82,3.23,5.87,4.63a14.45,14.45,0,0,0,4.61,2.18c2.64.63,4-1,3-3.56A13.89,13.89,0,0,0,585.82,697.43Zm-2.28-11.56-6.44,2.62-3-1.85A11.34,11.34,0,0,1,583.54,685.87Zm-13.72,14.76c-1.55-3.15-1.3-6.17-.69-9.27C572.16,694.14,572.44,697.14,569.82,700.63Zm1.23-12.26c4,.6,13.25,9.49,14.05,13.46A37.07,37.07,0,0,1,571.05,688.37ZM570.27,62c3.89,3.57,8.73,4.38,13.82,4,1.55-.11,3.11-.55,3.55-2.33.48-2-.84-3.13-2.36-3.9s-3.22-1.35-4.51-1.87c2.23-2.85,4.61-5.67,6.72-8.68,1-1.45,2.3-3.37.59-5s-3.56-.67-5.12.35c-2.75,1.8-5.35,3.82-8.05,5.76a14.26,14.26,0,0,0-1.38-3.42c-.66-.9-1.89-2-2.81-1.95a3.75,3.75,0,0,0-2.61,2.2,21.2,21.2,0,0,0-1.1,6.37A10.88,10.88,0,0,0,570.27,62Zm14.05.25c-.05.24-.11.47-.17.7-3.15.58-6.2-.12-9.58-1.19l3.28-2.11Zm1.75-16.09c-1.28,4.37-9.92,12.63-14.29,13.77C575.31,53.88,580,49.69,586.07,46.12Zm-15.5,1.39c2.62,3.14,2.37,6.18-.6,9.29A13.76,13.76,0,0,1,570.57,47.51ZM186,682.47c-2.33.9-2.95,3.31-1,4.81a39,39,0,0,0,5.84,3.13,35.85,35.85,0,0,0-2.6,3,63.32,63.32,0,0,0-5,7.55c-1.24,2.41.24,4.07,2.92,3.6a7.38,7.38,0,0,0,2.91-1.15c2.6-1.78,5.11-3.7,7.66-5.57a15.92,15.92,0,0,0,1.4,3.49c.61.88,1.79,2,2.64,1.91a3.88,3.88,0,0,0,2.73-2.06,14.16,14.16,0,0,0-.52-12.8C200.32,683.6,191.07,680.5,186,682.47Zm1.37,3.44.13-.71c3.17-.59,6.21.13,9.63,1.18l-3.31,2.11Zm-1.67,15.36A37.16,37.16,0,0,1,199.29,688C199.06,691.52,190.14,700.29,185.67,701.27Zm15.39-.72c-2.3-3.37-2.8-6,.63-9.33C202.37,694.5,202.55,697.52,201.06,700.55Zm184.28-78.38a17.84,17.84,0,0,0-.6,3.23q-.08,14.72,0,29.41a4.22,4.22,0,0,0,.47,2.48,3.56,3.56,0,0,0,2.5,1.28,3,3,0,0,0,2-1.64,6.91,6.91,0,0,0,.11-2.74V641.81c1.72,0,3,.1,4.34,0,1.57-.15,2.7-1,2.52-2.71s-1.54-2.13-3.08-2.06l-3.79.2c-.21-4.05-.41-7.83-.6-11.67,3.63-.33,7.11.41,10.31-1.59l-.11-1.74C396.1,620.5,390,620.48,385.34,622.17Zm-85.56-.88c-.55-2-2.15-2.29-3.65-2.29-3.58,0-7.16.08-10.72.33a2.46,2.46,0,0,0-1.83,1.55c-.05.61.82,1.6,1.51,1.9a17.36,17.36,0,0,0,3.73.65c-.43,10.7-.86,21.24-1.28,31.85-1,.11-1.82.16-2.66.31-1.2.23-2.47.55-2.45,2.1s1.25,2,2.48,2c3.43,0,6.87,0,10.28-.28a2.48,2.48,0,0,0,1.71-1.75,2.76,2.76,0,0,0-1.41-2.05,12.54,12.54,0,0,0-3.27-.74V623.66C294.94,622.87,298.22,624.66,299.78,621.29ZM378.42,57.34a2.76,2.76,0,0,0,2.3.4c.43-.16.76-1.31.69-2-.35-3.44,1.11-5.91,4.54-7.29,3.66,1,5.51,3.71,5.14,7.07-.08.73.2,2,.6,2.17a3.31,3.31,0,0,0,2.45-.49,6.83,6.83,0,0,0,1.83-2,11.48,11.48,0,0,0-12-17.36,11.55,11.55,0,0,0-9.16,9.33C374.28,51.13,375.29,54.66,378.42,57.34Zm3-14.35a7.25,7.25,0,0,1,9.18-.23A6.83,6.83,0,0,1,393.47,51c-1.51-3.18-3.61-5.84-7.19-5.76S380.4,47.64,379,51A6.82,6.82,0,0,1,381.41,43ZM576.53,371.06a2.26,2.26,0,0,0-1.82.73,3,3,0,0,0,.15,2c.12.4.56.72.89,1a11.3,11.3,0,0,0,13.09,1.62,11.44,11.44,0,0,0,5.85-12.18,11.58,11.58,0,0,0-10-9.42,10.61,10.61,0,0,0-9.6,3.66,2.73,2.73,0,0,0-.39,2.3c.16.43,1.31.75,2,.68,3.43-.36,5.9,1.11,7.28,4.55C582.9,369.89,580.52,371.4,576.53,371.06Zm5.08-11.87c2.27-1.25,5.46-.42,7.54,1.91,2.58,2.87,2.68,6.33.53,9.65-1.74,2.69-5.86,4.13-8.19,2.72,3.26-1.46,5.72-3.56,5.71-7S584.89,360.56,581.61,359.19ZM393.28,690.82a2.64,2.64,0,0,0-2.28-.48c-.48.22-.78,1.39-.73,2.12a6.64,6.64,0,0,1-2.69,6.23,3.35,3.35,0,0,1-4.67-.19,6.93,6.93,0,0,1-2.33-6c.05-.72-.25-1.89-.74-2.12a2.52,2.52,0,0,0-2.26.49,12.59,12.59,0,0,0-2.6,3.44,11.17,11.17,0,0,0,2,12.54,11.64,11.64,0,0,0,12.53,3c4.48-1.74,7.39-6,7.44-11.91A9.87,9.87,0,0,0,393.28,690.82Zm-3,14.14c-3.15,2.4-6.34,2.55-9.33.44a7,7,0,0,1-2.85-8.09c4.17,7.59,10.86,7.27,14.57,0A6.57,6.57,0,0,1,390.31,705Zm-196-343.42a2.27,2.27,0,0,0,1.84-.71,2.63,2.63,0,0,0-.15-2,4.11,4.11,0,0,0-1.32-1.44,10.88,10.88,0,0,0-11.92-1.57,11.11,11.11,0,0,0-6.82,10.58c-.05,4.82,2.55,8.42,7,10.46s9.92.85,12.7-2.61a3.12,3.12,0,0,0,.53-2.45c-.11-.39-1.43-.71-2.15-.63-3.39.37-6-1.43-7.11-5.1C188.22,362.54,190.53,361.21,194.3,361.54Zm-4.91,12.12c-3.8.86-6.48-.24-8.43-3.27a7.22,7.22,0,0,1,.37-8.85,6.93,6.93,0,0,1,7.86-2.54C181.33,363.41,182.2,370,189.39,373.66Zm307.06-99.74c.35,2.46.75,4.92,1.13,7.37l.54,0c.47-2.9,1.06-5.79,1.37-8.71A5.16,5.16,0,0,1,503,268c1.52-.6,3.1-1,4.65-1.56l0-.36-1.5-.27c-4.57-.9-6-2.33-6.79-6.88-.44-2.51-.86-5-1.28-7.53l-.5,0c-.38,2.33-.92,4.64-1.08,7-.26,3.64-1.77,6.15-5.48,7-1.05.25-2.09.52-3.14.78a5.15,5.15,0,0,0,2.19.93C494.47,268.06,495.81,269.51,496.45,273.92ZM272.86,410.34c-.41-2.44-.83-4.87-1.24-7.31h-.47c-.53,3-1.22,5.92-1.52,8.92a4.93,4.93,0,0,1-3.49,4.34c-1.48.62-3.05,1-4.87,1.64,1.61.49,3,.83,4.24,1.3,2.29.84,3.95,2.11,4.19,4.91s.95,5.79,1.45,8.68a34.4,34.4,0,0,0,1.82-8.32,5.52,5.52,0,0,1,3.95-5.14c1.42-.53,2.9-.93,4.86-1.55-1-.22-1.42-.33-1.86-.41C275.15,416.54,273.66,415.05,272.86,410.34Zm236.2,86.09c1.63-.65,3.3-1.18,5.3-1.89-.72-.2-1.13-.35-1.54-.42-4.84-.9-6.22-2.26-7.08-7-.44-2.44-.84-4.88-1.26-7.32l-.51,0c-.37,2.19-.84,4.37-1.07,6.57-.53,4.95-2.26,6.9-7.09,7.78-.5.09-1,.22-1.49.33a10.77,10.77,0,0,0,2.73,1c2.88.92,5.35,2.12,5.6,5.77.19,2.8.87,5.56,1.33,8.33l.51,0c.49-3,1.07-5.94,1.43-8.93A4.76,4.76,0,0,1,509.06,496.43ZM455.57,252.48c-1,3.21-.49,7.17-5,7.48,1.25,1,2.93,1.66,3.65,2.91s.69,3.29,1,5c1.3-3.07.47-7.3,5.7-7.63-3.4-.54-4.71-2.44-4.83-5.41A14.53,14.53,0,0,0,455.57,252.48ZM265.22,297.33c-5.39-.34-4.16-4.77-5.49-8.15-.82,3.64-.14,7.6-5.21,8.19,5.18.44,4.31,4.59,5.29,8.19C260.93,302,260,297.87,265.22,297.33ZM182.84,439.14c1.25,0,2.13-.61,2.08-2.57a2.06,2.06,0,0,0-2.11-2c-1.45-.06-2.06.92-2.07,2.3A2,2,0,0,0,182.84,439.14Zm405.25-4.61c-1.53,0-2.09,1.12-2.17,2.51a1.84,1.84,0,0,0,2,2.11,2,2,0,0,0,2.15-2.27C590.12,435.52,589.56,434.5,588.09,434.53Zm-404-9.33a2.51,2.51,0,0,0-2.38-.2,3.54,3.54,0,0,0-.68,2.75c.41,1.56,1.8,1.44,3.22,1.07A2.46,2.46,0,0,0,184.09,425.2Zm402.69-.08a2.47,2.47,0,0,0-.2,3.64c2.94.61,3.78-.25,3.25-3.27C588.94,424.44,587.8,424.1,586.78,425.12Zm1-112c.68.45,1.9.08,2.78.08.64-3.62-.38-4.59-3.34-3.68C586.43,310.84,586.45,312.27,587.75,313.13Zm-402.83-.19a2.44,2.44,0,0,0,.09-3.61c-1.43-.35-2.82-.43-3.2,1.13a3.47,3.47,0,0,0,.73,2.73C182.87,313.56,184.43,313.4,184.92,312.94Zm403.19,132a2.75,2.75,0,0,0-2.06,1.55c-.49,1.4.37,2.35,1.93,2.74,1.5-.3,2.48-1.13,2-2.59A2.78,2.78,0,0,0,588.11,444.91Zm-403.3,1.64a2,2,0,0,0-4,0c-.5,1.44.46,2.31,2,2.67C184.33,448.85,185.28,448,184.81,446.55ZM439.56,45.4a1.67,1.67,0,0,0,2-2,3.16,3.16,0,0,0-1.81-2.06c-1.16-.35-2.17.33-2.36,2.45C437.9,44.17,438.64,45.19,439.56,45.4Zm-107,.05c1.48.17,2.13-.76,2.5-2.73a6.37,6.37,0,0,0-1.92-1.43c-1.31-.39-2.17.44-2.32,1.74A1.94,1.94,0,0,0,332.59,45.45ZM332,702.65A1.9,1.9,0,0,0,330,704.9c.07,1.27.78,2.25,2.16,1.94a8.48,8.48,0,0,0,2.31-1.43C334,703.64,333.48,702.59,332,702.65Zm106.7,0a2,2,0,0,0-1.92,2.46c.14.79,1.09,1.43,1.4,1.82,2.14-.07,2.69-1,2.66-2.24A1.88,1.88,0,0,0,438.67,702.65ZM222.64,45.7h1c.55-.82,1.56-1.66,1.51-2.45s-1.14-1.74-1.94-1.91a1.69,1.69,0,0,0-2,2C221.25,44.21,222.11,44.93,222.64,45.7Zm49,656.69c-.57.78-1.48,1.51-1.62,2.37a1.67,1.67,0,0,0,2,2,2.91,2.91,0,0,0,2-1.86c.07-.78-.89-1.65-1.4-2.48Zm19.71,0c-.51.83-1.37,1.62-1.46,2.48a1.69,1.69,0,0,0,2.15,1.87,2.92,2.92,0,0,0,1.83-2c0-.79-1-1.59-1.56-2.39ZM253.45,45.7c.54-.78,1.42-1.51,1.53-2.34a1.68,1.68,0,0,0-2-2c-.8.19-1.89,1.22-1.93,1.93s1,1.62,1.51,2.44Zm9,0,.95,0c.52-.82,1.48-1.68,1.42-2.47a2.87,2.87,0,0,0-1.94-1.87,1.67,1.67,0,0,0-2,2C261,44.19,261.93,44.92,262.49,45.72Zm9.8,0,.95,0c.57-.8,1.59-1.6,1.57-2.39a2.9,2.9,0,0,0-1.84-2,1.68,1.68,0,0,0-2.14,1.86C270.91,44.08,271.77,44.87,272.29,45.69Zm9.92,0,1,0c.57-.8,1.6-1.62,1.58-2.41a2.89,2.89,0,0,0-1.89-2,1.7,1.7,0,0,0-2.09,2C280.87,44.16,281.7,44.91,282.21,45.69Zm20.16,656.72-.89,0c-.57.74-1.47,1.42-1.63,2.24-.25,1.27.6,2.14,1.95,2.2a1.79,1.79,0,0,0,2.08-2.07C303.78,703.93,302.9,703.19,302.37,702.41Zm-.19-656.7h.9c.56-.76,1.47-1.46,1.6-2.29a1.82,1.82,0,0,0-2-2.15c-1.35,0-2.23.86-2,2.13C300.77,44.23,301.64,44.94,302.18,45.71Zm10.16,656.71-.9,0c-.57.74-1.48,1.41-1.65,2.23-.27,1.27.59,2.14,1.93,2.22a1.8,1.8,0,0,0,2.1-2.05C313.73,704,312.86,703.2,312.34,702.42Zm137.46,0-.93-.08c-.62.77-1.7,1.53-1.73,2.32a2.9,2.9,0,0,0,1.8,2.06,1.69,1.69,0,0,0,2.19-1.86C451.07,704.05,450.27,703.26,449.8,702.45Zm.58-656.74c.54-.77,1.41-1.48,1.54-2.31a1.69,1.69,0,0,0-2-2,2.9,2.9,0,0,0-2,1.89c-.05.79.94,1.64,1.48,2.47Zm10,0c.53-.76,1.4-1.48,1.52-2.31a1.68,1.68,0,0,0-2-2,2.89,2.89,0,0,0-1.95,1.91c-.05.78,1,1.63,1.5,2.45Zm-.78,656.71h-.95c-.55.8-1.55,1.62-1.53,2.41a2.9,2.9,0,0,0,1.87,2,1.68,1.68,0,0,0,2.11-1.9C461,704,460.09,703.22,459.56,702.41ZM479.14,45.68l.9,0c.59-.73,1.5-1.38,1.69-2.2.29-1.26-.54-2.15-1.89-2.25a1.79,1.79,0,0,0-2.13,2C477.79,44.12,478.64,44.88,479.14,45.68Zm10.92,0c.57-.79,1.48-1.53,1.61-2.39a1.67,1.67,0,0,0-2-2c-.79.17-1.9,1.17-1.95,1.87s.9,1.64,1.42,2.47Zm10,0c.55-.8,1.46-1.54,1.59-2.4a1.66,1.66,0,0,0-2-2,2.87,2.87,0,0,0-1.94,1.87c-.06.79.9,1.65,1.42,2.47Zm9,0,.89,0c.57-.75,1.46-1.43,1.62-2.25.25-1.27-.61-2.14-2-2.19a1.8,1.8,0,0,0-2.07,2.07C507.63,44.19,508.5,44.92,509,45.7ZM489.23,702.38l-.89,0c-.53.78-1.4,1.52-1.49,2.36a1.79,1.79,0,0,0,2.09,2.05c1.35-.08,2.2-1,1.94-2.21C490.71,703.79,489.81,703.12,489.23,702.38Zm49.58-656.7.89,0c.58-.74,1.49-1.4,1.67-2.22.27-1.27-.57-2.15-1.92-2.23a1.8,1.8,0,0,0-2.11,2C537.43,44.15,538.29,44.9,538.81,45.68ZM499.22,702.39l-.89,0c-.54.77-1.43,1.49-1.55,2.32a1.81,1.81,0,0,0,2.06,2.1c1.35,0,2.21-.9,2-2.17C500.67,703.83,499.78,703.14,499.22,702.39Zm89.56-399.21c.86-.11,1.62-1,2.42-1.57v-1c-.81-.53-1.66-1.51-2.44-1.45a2.91,2.91,0,0,0-1.92,1.9A1.68,1.68,0,0,0,588.78,303.18Zm-403.17-2.06a2.91,2.91,0,0,0-1.9-1.93c-.78-.06-1.64.91-2.46,1.43v1c.79.56,1.54,1.47,2.4,1.6A1.7,1.7,0,0,0,185.61,301.12Zm403.17-7.87c.86-.12,1.62-1,2.42-1.58v-1c-.81-.53-1.66-1.51-2.44-1.45a2.88,2.88,0,0,0-1.92,1.91A1.69,1.69,0,0,0,588.78,293.25ZM509.24,702.4h-.95c-.55.82-1.55,1.66-1.5,2.45a2.9,2.9,0,0,0,1.94,1.91,1.69,1.69,0,0,0,2-2C510.63,703.89,509.77,703.17,509.24,702.4Zm19.81,0-.95,0c-.53.82-1.5,1.68-1.44,2.46s1.14,1.71,1.93,1.89a1.67,1.67,0,0,0,2-2C530.5,703.93,529.6,703.19,529.05,702.39Zm9.92,0-1,0c-.52.83-1.48,1.7-1.42,2.48a2.87,2.87,0,0,0,1.94,1.87,1.67,1.67,0,0,0,2-2C540.44,703.92,539.53,703.18,539,702.39ZM183,594c-.87.07-1.67.94-2.49,1.45l0,1c.79.56,1.59,1.58,2.37,1.56a2.87,2.87,0,0,0,2-1.82A1.68,1.68,0,0,0,183,594ZM588.74,273.37c.86-.1,1.64-1,2.45-1.52v-1c-.8-.54-1.63-1.54-2.41-1.51a2.94,2.94,0,0,0-2,1.87A1.7,1.7,0,0,0,588.74,273.37ZM586,457a2.89,2.89,0,0,0,1.93,1.89c.78,0,1.62-.93,2.43-1.47v-1c-.8-.55-1.57-1.45-2.43-1.56A1.69,1.69,0,0,0,586,457ZM183.63,273.37a1.69,1.69,0,0,0,2-2.05,2.91,2.91,0,0,0-1.89-1.95c-.77-.06-1.64.9-2.46,1.42l0,1C182,272.32,182.77,273.24,183.63,273.37Zm-3.18,194c.82.53,1.66,1.52,2.44,1.46a2.87,2.87,0,0,0,1.92-1.9,1.69,1.69,0,0,0-1.94-2.09c-.86.11-1.62,1-2.42,1.57ZM586,466.85a2.87,2.87,0,0,0,1.89,1.94c.77.07,1.64-.9,2.46-1.41l0-1c-.79-.56-1.54-1.48-2.4-1.61A1.68,1.68,0,0,0,586,466.85Zm-403.15,7.89c-.86.1-1.63,1-2.44,1.54v1c.81.54,1.64,1.53,2.42,1.49a2.91,2.91,0,0,0,1.94-1.88A1.69,1.69,0,0,0,182.89,474.74Zm405.1,4c.78,0,1.61-1,2.41-1.5v-1c-.82-.53-1.59-1.43-2.45-1.52a1.69,1.69,0,0,0-1.91,2.12A2.9,2.9,0,0,0,588,478.73Zm-405.63,5.56c-.53.82-1.5,1.67-1.46,2.46a2.83,2.83,0,0,0,1.86,2,1.67,1.67,0,0,0,2.07-1.95c-.15-.88-1-1.65-1.55-2.47Zm1.33-224.85c-.78-.06-1.63.93-2.45,1.46v1c.8.55,1.56,1.46,2.42,1.57a1.68,1.68,0,0,0,2-2.08A2.9,2.9,0,0,0,183.69,259.44Zm-3.22,237.8c.83.5,1.72,1.45,2.49,1.37a2.88,2.88,0,0,0,1.85-2,1.69,1.69,0,0,0-2-2c-.86.15-1.58,1.09-2.37,1.67ZM588,504.55a1.69,1.69,0,0,0-2,2.05,2.88,2.88,0,0,0,1.88,1.94c.78.07,1.64-.89,2.47-1.4l0-1C589.62,505.6,588.88,504.68,588,504.55ZM182.93,518.49a2.87,2.87,0,0,0,1.88-2,1.68,1.68,0,0,0-2-2c-.86.13-1.61,1-2.4,1.62l0,1C181.29,517.59,182.15,518.56,182.93,518.49ZM586.84,251.23a1.71,1.71,0,0,0,1.76,2.26c.87,0,1.71-.87,2.56-1.35l.06-1c-.76-.61-1.52-1.67-2.3-1.68A2.87,2.87,0,0,0,586.84,251.23ZM182.91,524.43c-.86.1-1.64,1-2.45,1.52l0,1c.81.55,1.64,1.55,2.41,1.51a2.9,2.9,0,0,0,2-1.87A1.69,1.69,0,0,0,182.91,524.43ZM586,526.57a2.92,2.92,0,0,0,2,1.86c.77,0,1.6-1,2.4-1.52l0-1c-.81-.53-1.6-1.42-2.46-1.51A1.69,1.69,0,0,0,586,526.57ZM183.64,253.49a1.69,1.69,0,0,0,2-2.06,2.89,2.89,0,0,0-1.9-1.93c-.78-.06-1.64.91-2.46,1.43l0,1C182,252.46,182.78,253.37,183.64,253.49Zm405.07-13.93a2.92,2.92,0,0,0-1.88,1.95,1.69,1.69,0,0,0,2,2c.86-.13,1.6-1.05,2.39-1.62l0-1C590.35,240.45,589.48,239.49,588.71,239.56ZM588,534.37a1.69,1.69,0,0,0-2,2,2.88,2.88,0,0,0,1.88,1.94c.78.07,1.64-.89,2.47-1.41l0-1C589.62,535.42,588.88,534.5,588,534.37ZM183.69,239.56c-.78-.05-1.63.93-2.44,1.45v1c.8.55,1.56,1.46,2.42,1.57a1.69,1.69,0,0,0,2-2.08A2.91,2.91,0,0,0,183.69,239.56Zm-.75,304.75c-.87.08-1.66,1-2.48,1.49l0,1c.8.56,1.61,1.57,2.39,1.55a2.93,2.93,0,0,0,2-1.85A1.69,1.69,0,0,0,182.94,544.31ZM221.86,702.4c-.53.77-1.4,1.49-1.52,2.32a1.69,1.69,0,0,0,2,2c.79-.17,1.91-1.21,1.95-1.91s-1-1.63-1.5-2.45ZM586,546.43a2.9,2.9,0,0,0,2,1.88c.78,0,1.61-1,2.42-1.51,0-.32,0-.64,0-1-.82-.54-1.59-1.43-2.45-1.53A1.69,1.69,0,0,0,586,546.43Zm2.64-326.74a2.93,2.93,0,0,0-1.85,2,1.7,1.7,0,0,0,2,2c.85-.15,1.58-1.08,2.36-1.67l0-1C590.34,220.55,589.46,219.6,588.68,219.69Zm-405.47-.46c-.55.81-1.54,1.63-1.51,2.42a2.85,2.85,0,0,0,1.8,2,1.69,1.69,0,0,0,2.12-1.91c-.11-.88-1-1.67-1.48-2.5Zm405.5-5.5c.86-.08,1.65-.95,2.47-1.48l0-1c-.8-.55-1.61-1.56-2.39-1.53a2.89,2.89,0,0,0-2,1.83A1.68,1.68,0,0,0,588.71,213.73ZM182.94,554.25c-.86.08-1.65,1-2.48,1.48l0,1c.8.56,1.61,1.57,2.38,1.54a2.91,2.91,0,0,0,2-1.84A1.69,1.69,0,0,0,182.94,554.25Zm404.94,0a1.7,1.7,0,0,0-1.84,2.19,2.91,2.91,0,0,0,2,1.8c.78,0,1.57-1,2.36-1.58l0-1C589.55,555.18,588.74,554.31,587.88,554.25Zm-405,9.94c-.86.13-1.6,1-2.39,1.62l0,1c.83.52,1.69,1.48,2.47,1.42a2.89,2.89,0,0,0,1.88-2A1.68,1.68,0,0,0,182.83,564.19Zm.14,9.94c-.86.06-1.67.93-2.5,1.44l0,1c.79.57,1.58,1.6,2.36,1.59a2.93,2.93,0,0,0,2-1.81A1.69,1.69,0,0,0,183,574.13Zm403.07,12a2.9,2.9,0,0,0,1.94,1.89c.78,0,1.61-.95,2.42-1.49v-1c-.81-.54-1.58-1.44-2.44-1.54A1.68,1.68,0,0,0,586,586.17ZM182.93,607.94a2.87,2.87,0,0,0,1.88-2,1.68,1.68,0,0,0-2-2c-.86.13-1.61,1-2.4,1.62l0,1C181.29,607,182.15,608,182.93,607.94ZM586,606a2.89,2.89,0,0,0,1.88,2c.78.07,1.64-.9,2.47-1.42l0-1c-.79-.57-1.53-1.49-2.39-1.62A1.69,1.69,0,0,0,586,606Zm0,9.92a2.88,2.88,0,0,0,1.86,2c.77.08,1.65-.87,2.48-1.38l0-1c-.78-.58-1.51-1.51-2.37-1.65A1.68,1.68,0,0,0,586,615.91Zm2.65-422c.87-.08,1.66-1,2.49-1.46l0-1c-.79-.57-1.59-1.58-2.37-1.57a2.91,2.91,0,0,0-2,1.83A1.69,1.69,0,0,0,588.69,193.86Zm-403.08-2a2.94,2.94,0,0,0-1.86-2c-.78-.08-1.65.88-2.49,1.39l0,1c.79.58,1.51,1.51,2.37,1.65A1.69,1.69,0,0,0,185.61,191.83Zm-2.06-7.92a1.69,1.69,0,0,0,2.07-2c-.13-.88-1-1.65-1.54-2.46h-.92c-.53.82-1.5,1.66-1.46,2.45A2.85,2.85,0,0,0,183.55,183.91ZM184.82,626c-.11-.89-.95-1.69-1.46-2.53l-.91,0c-.56.81-1.56,1.62-1.54,2.41a2.83,2.83,0,0,0,1.78,2A1.66,1.66,0,0,0,184.82,626ZM586,625.87a2.94,2.94,0,0,0,1.88,2c.78.06,1.64-.9,2.47-1.42,0-.32,0-.64,0-1-.79-.57-1.53-1.49-2.39-1.62A1.69,1.69,0,0,0,586,625.87Zm.79-454a1.69,1.69,0,0,0,1.95,2.08c.86-.11,1.62-1,2.42-1.57v-1c-.82-.53-1.67-1.52-2.45-1.47A2.94,2.94,0,0,0,586.83,171.9ZM185.62,172c-.12-.88-1-1.66-1.5-2.48l-.92,0c-.54.81-1.53,1.64-1.5,2.43a2.85,2.85,0,0,0,1.82,2A1.69,1.69,0,0,0,185.62,172Zm401.22-10.12a1.68,1.68,0,0,0,1.9,2.12c.87-.1,1.64-1,2.45-1.52v-1c-.81-.54-1.63-1.54-2.41-1.5A2.91,2.91,0,0,0,586.84,161.92ZM183.6,164a1.69,1.69,0,0,0,2-2,2.9,2.9,0,0,0-1.86-2c-.77-.08-1.65.87-2.49,1.37l0,1C182,163,182.74,163.9,183.6,164ZM180.45,636.3c.82.53,1.67,1.51,2.44,1.45a2.88,2.88,0,0,0,1.92-1.91,1.69,1.69,0,0,0-1.94-2.08c-.86.11-1.62,1-2.42,1.57ZM588,633.76a1.68,1.68,0,0,0-1.92,2.11,2.89,2.89,0,0,0,1.94,1.88c.78,0,1.61-.94,2.42-1.48v-1C589.59,634.76,588.82,633.86,588,633.76ZM586.84,142a1.69,1.69,0,0,0,1.88,2.14c.86-.08,1.65-1,2.47-1.49l0-1c-.8-.55-1.62-1.56-2.4-1.53A2.9,2.9,0,0,0,586.84,142ZM180.47,646.32c.84.51,1.72,1.46,2.49,1.38a2.92,2.92,0,0,0,1.85-2,1.68,1.68,0,0,0-2-2c-.86.14-1.58,1.08-2.37,1.66Zm3.16-502.16a1.69,1.69,0,0,0,2-2,2.89,2.89,0,0,0-1.89-2c-.77-.07-1.64.9-2.46,1.41l0,1C182,143.11,182.77,144,183.63,144.16Zm405.19-13.92a2.86,2.86,0,0,0-2,1.83,1.68,1.68,0,0,0,1.87,2.15c.86-.08,1.65-.95,2.47-1.47l0-1C590.41,131.22,589.6,130.21,588.82,130.24Zm-404,525.51a1.69,1.69,0,0,0-1.92-2.11c-.86.1-1.63,1-2.44,1.54v1c.81.55,1.64,1.54,2.42,1.49A2.89,2.89,0,0,0,184.81,655.75Zm403.11,7.83a1.69,1.69,0,0,0-1.88,2.15,2.9,2.9,0,0,0,2,1.84c.78,0,1.59-1,2.39-1.54l0-1C589.57,664.54,588.78,663.66,587.92,663.58Zm.8-553.23a2.93,2.93,0,0,0-1.89,2,1.69,1.69,0,0,0,2,2c.86-.13,1.6-1,2.4-1.62l0-1C590.36,111.25,589.49,110.29,588.72,110.35Zm-403.11,1.84a2.93,2.93,0,0,0-2-1.84c-.78,0-1.59,1-2.39,1.55l0,1c.82.52,1.61,1.4,2.48,1.48A1.7,1.7,0,0,0,185.61,112.19Zm-1.84-7.78a1.7,1.7,0,0,0,1.84-2.19,2.93,2.93,0,0,0-2-1.81c-.78,0-1.58,1-2.36,1.59l0,1C182.09,103.48,182.9,104.34,183.77,104.41ZM586.84,92.35a1.68,1.68,0,0,0,1.9,2.12c.87-.1,1.64-1,2.46-1.53V92c-.8-.55-1.63-1.54-2.41-1.51A2.92,2.92,0,0,0,586.84,92.35Zm-401.23,0a2.9,2.9,0,0,0-1.94-1.89c-.78,0-1.61.94-2.43,1.48v1c.81.55,1.58,1.45,2.44,1.55A1.69,1.69,0,0,0,185.61,92.37Zm401.23-10a1.68,1.68,0,0,0,1.9,2.12c.87-.1,1.64-1,2.45-1.52V82c-.81-.54-1.63-1.54-2.41-1.5A2.91,2.91,0,0,0,586.84,82.41ZM183.59,84.52a1.69,1.69,0,0,0,2-2c-.15-.87-1-1.62-1.59-2.43l-.92,0c-.51.83-1.46,1.69-1.41,2.48A2.89,2.89,0,0,0,183.59,84.52Zm49.23,617.9-.89,0c-.58.74-1.48,1.41-1.65,2.23-.27,1.27.59,2.14,1.93,2.22a1.8,1.8,0,0,0,2.1-2.05C234.21,703.94,233.35,703.2,232.82,702.42Zm29.52.41a1.65,1.65,0,0,0-2.23,1.73c.05.88.87,1.71,1.34,2.57l1,.08c.59-.77,1.64-1.53,1.66-2.31A2.9,2.9,0,0,0,262.34,702.83ZM232.53,45.69l.95,0c.57-.8,1.59-1.62,1.57-2.41a2.92,2.92,0,0,0-1.9-2,1.69,1.69,0,0,0-2.08,2C231.18,44.17,232,44.91,232.53,45.69Zm9.93,0,1,0c.57-.8,1.59-1.6,1.57-2.39a2.88,2.88,0,0,0-1.83-2A1.68,1.68,0,0,0,241,43.21C241.09,44.08,242,44.87,242.46,45.69Zm49.88,0,.9,0c.52-.78,1.4-1.52,1.5-2.35a1.8,1.8,0,0,0-2.09-2.06c-1.34.07-2.2.93-1.94,2.2C290.88,44.31,291.77,45,292.34,45.72Zm20.79,0c.52-.79,1.39-1.53,1.48-2.36a1.67,1.67,0,0,0-2.07-2,2.91,2.91,0,0,0-1.9,2c0,.77,1,1.6,1.55,2.4Zm9,0,.94,0c.52-.84,1.5-1.72,1.43-2.5a2.91,2.91,0,0,0-2-1.85,1.69,1.69,0,0,0-2,2.1C320.67,44.27,321.56,45,322.12,45.72Zm147-.06.93.07c.6-.78,1.66-1.55,1.66-2.33a2.92,2.92,0,0,0-1.82-2,1.68,1.68,0,0,0-2.15,1.89C467.83,44.08,468.66,44.86,469.15,45.66Zm50.83,0c.53-.81,1.41-1.58,1.51-2.44a1.68,1.68,0,0,0-2.1-1.91,2.88,2.88,0,0,0-1.88,1.94c0,.78,1,1.61,1.51,2.42Zm28.74,0,.93,0c.58-.8,1.62-1.6,1.6-2.38a2.93,2.93,0,0,0-1.86-2,1.69,1.69,0,0,0-2.12,1.94C547.35,44.13,548.21,44.88,548.72,45.68ZM183.2,288.81c-.55.81-1.53,1.64-1.5,2.42a2.84,2.84,0,0,0,1.82,2,1.69,1.69,0,0,0,2.1-1.93c-.12-.88-1-1.66-1.5-2.48ZM586,655.79a2.92,2.92,0,0,0,2,1.84c.78,0,1.59-1,2.39-1.54l0-1c-.82-.52-1.61-1.4-2.47-1.48A1.69,1.69,0,0,0,586,655.79ZM528.85,45.68l.94,0c.57-.8,1.61-1.61,1.58-2.39a2.92,2.92,0,0,0-1.87-2,1.68,1.68,0,0,0-2.1,1.95C527.49,44.14,528.34,44.89,528.85,45.68Zm59.84,237.63c.87-.08,1.66-.95,2.49-1.46l0-1c-.79-.57-1.59-1.59-2.37-1.57a2.91,2.91,0,0,0-2,1.83A1.69,1.69,0,0,0,588.69,283.31ZM183.59,134.22a1.69,1.69,0,0,0,2-2c-.15-.87-1-1.62-1.59-2.42l-.93,0c-.51.83-1.46,1.69-1.4,2.48A2.87,2.87,0,0,0,183.59,134.22Zm405.13-13.93a2.91,2.91,0,0,0-1.89,1.95,1.69,1.69,0,0,0,2,2.05c.86-.13,1.6-1.05,2.4-1.62l0-1C590.36,121.19,589.5,120.23,588.72,120.29Zm.11,143.14c.86-.13,1.59-1.06,2.38-1.64l0-1c-.83-.51-1.7-1.47-2.48-1.39a2.92,2.92,0,0,0-1.87,2A1.69,1.69,0,0,0,588.83,263.43ZM183,667.57a2.91,2.91,0,0,0,1.84-2,1.68,1.68,0,0,0-2-2c-.86.14-1.58,1.09-2.36,1.67l0,1C181.31,666.71,182.2,667.65,183,667.57Zm2.65-545.27c-.14-.88-1-1.64-1.56-2.45h-.92c-.53.82-1.49,1.68-1.44,2.46a2.88,2.88,0,0,0,1.87,2A1.69,1.69,0,0,0,185.62,122.3ZM591.19,231c-.84-.51-1.71-1.46-2.49-1.39a2.92,2.92,0,0,0-1.87,2,1.68,1.68,0,0,0,2,2c.86-.13,1.59-1.06,2.38-1.64ZM182.94,613.88c-.86.08-1.65,1-2.48,1.49l0,1c.8.56,1.61,1.57,2.38,1.55a2.93,2.93,0,0,0,2-1.84A1.69,1.69,0,0,0,182.94,613.88ZM588.76,104.41c.86-.1,1.63-1,2.44-1.55v-1c-.81-.54-1.65-1.53-2.43-1.48a2.9,2.9,0,0,0-1.94,1.89A1.7,1.7,0,0,0,588.76,104.41ZM586,576.23a2.9,2.9,0,0,0,1.94,1.89c.78,0,1.61-1,2.42-1.48v-1c-.81-.54-1.58-1.44-2.44-1.54A1.68,1.68,0,0,0,586,576.23ZM185.62,211.68c-.17-.87-1.07-1.6-1.64-2.39l-.93,0c-.49.84-1.42,1.72-1.35,2.51a2.88,2.88,0,0,0,1.93,1.89A1.69,1.69,0,0,0,185.62,211.68ZM549,702.4h-1c-.53.83-1.52,1.69-1.46,2.48s1.19,1.71,2,1.86a1.68,1.68,0,0,0,2-2.07C550.37,703.86,549.49,703.15,549,702.4ZM183.63,283.31a1.69,1.69,0,0,0,2-2.05,2.9,2.9,0,0,0-1.88-1.94c-.78-.07-1.65.89-2.47,1.4l0,1C182,282.25,182.77,283.18,183.63,283.31ZM588,564.19a1.69,1.69,0,0,0-1.93,2.1,2.92,2.92,0,0,0,1.94,1.9c.77,0,1.61-1,2.42-1.49v-1C589.59,565.19,588.83,564.29,588,564.19Zm0-45.7c.77.06,1.63-.9,2.46-1.41,0-.33,0-.65,0-1-.79-.57-1.53-1.49-2.39-1.62a1.7,1.7,0,0,0-2,2.06A2.91,2.91,0,0,0,587.93,518.49ZM180.47,507.2c.84.49,1.73,1.43,2.5,1.35a2.91,2.91,0,0,0,1.84-2,1.69,1.69,0,0,0-2-2c-.86.15-1.58,1.09-2.36,1.68ZM588.84,199.8a2.91,2.91,0,0,0-2,1.83,1.69,1.69,0,0,0,1.85,2.17c.87-.08,1.66-1,2.49-1.46l0-1C590.42,200.8,589.62,199.78,588.84,199.8ZM184.83,457c-.15-.89-1-1.66-1.55-2.48h-.92c-.53.83-1.49,1.67-1.46,2.47a2.83,2.83,0,0,0,1.86,2A1.67,1.67,0,0,0,184.83,457ZM183.72,203.8a1.7,1.7,0,0,0,1.89-2.15,2.91,2.91,0,0,0-2-1.85c-.78,0-1.59,1-2.39,1.53v1C182.07,202.83,182.86,203.71,183.72,203.8Zm56.51,500.86a1.68,1.68,0,0,0,1.9,2.11c.88-.11,1.66-1,2.49-1.48l0-.9c-.8-.56-1.62-1.55-2.42-1.54A2.85,2.85,0,0,0,240.23,704.66Zm9.88.07c0,1.32.8,2.26,2.1,2,.84-.14,1.57-1,2.35-1.5l0-.87c-.76-.56-1.45-1.42-2.29-1.61C251,702.5,250.14,703.41,250.11,704.73ZM588.7,150.11a2.92,2.92,0,0,0-1.87,2,1.68,1.68,0,0,0,2,2c.86-.13,1.59-1.06,2.38-1.64l0-1C590.35,151,589.48,150,588.7,150.11Zm-405,0c-.78-.06-1.63.92-2.45,1.44v1c.8.56,1.55,1.48,2.41,1.6a1.69,1.69,0,0,0,2-2.08A2.91,2.91,0,0,0,183.7,150.11Zm97.86,552.28c-.55.8-1.46,1.54-1.59,2.4a1.68,1.68,0,0,0,2,2c.78-.18,1.88-1.18,1.93-1.88s-.91-1.64-1.43-2.46Zm-96.75-116.2a1.68,1.68,0,0,0-1.9-2.12c-.87.09-1.64,1-2.46,1.52v1c.81.54,1.64,1.54,2.42,1.5A2.91,2.91,0,0,0,184.81,586.19ZM588,498.61c.77.05,1.62-.93,2.44-1.45v-1c-.81-.55-1.56-1.46-2.42-1.57a1.68,1.68,0,0,0-2,2.08A2.91,2.91,0,0,0,588,498.61Zm-402.35-267a2.92,2.92,0,0,0-1.85-2c-.77-.08-1.66.86-2.49,1.36l0,1c.78.59,1.5,1.53,2.36,1.68A1.69,1.69,0,0,0,185.61,231.61ZM321.81,702.8c-1.31-.25-2.15.67-2.13,2s.87,2.24,2.16,2c.84-.16,1.55-1,2.31-1.57v-.86C323.37,703.8,322.65,703,321.81,702.8ZM586,486.73a2.92,2.92,0,0,0,1.88,1.95c.78.06,1.64-.9,2.47-1.42,0-.32,0-.64,0-1-.79-.56-1.53-1.48-2.39-1.61A1.69,1.69,0,0,0,586,486.73Zm2.67-302.81c.86-.08,1.65-1,2.48-1.49,0-.32,0-.64,0-1-.8-.56-1.61-1.57-2.39-1.54a2.88,2.88,0,0,0-2,1.84A1.69,1.69,0,0,0,588.71,183.92ZM469.53,702.41l-.95,0c-.56.81-1.58,1.63-1.55,2.42s1.12,1.77,1.91,2a1.68,1.68,0,0,0,2.06-2C470.89,703.93,470.05,703.19,469.53,702.41Zm10,0-1,0c-.57.8-1.59,1.6-1.57,2.38a2.89,2.89,0,0,0,1.83,2,1.69,1.69,0,0,0,2.15-1.86C480.86,704,480,703.24,479.49,702.42ZM586,645.82a2.92,2.92,0,0,0,2,1.88c.78,0,1.61-1,2.42-1.51v-1c-.81-.53-1.59-1.42-2.45-1.52A1.69,1.69,0,0,0,586,645.82ZM182.94,538.36a2.9,2.9,0,0,0,1.87-2,1.69,1.69,0,0,0-2-2c-.86.14-1.6,1.07-2.38,1.64l0,1C181.3,537.48,182.17,538.44,182.94,538.36ZM586,596.14a2.92,2.92,0,0,0,2,1.86c.77,0,1.59-1,2.4-1.52l0-1c-.81-.53-1.6-1.42-2.46-1.5A1.69,1.69,0,0,0,586,596.14ZM519.29,702.43l-1,0c-.59.78-1.62,1.56-1.62,2.35a2.91,2.91,0,0,0,1.8,2,1.69,1.69,0,0,0,2.18-1.83C520.63,704.07,519.78,703.26,519.29,702.43ZM347.2,277c2.87-.5,5.76-.94,8.56-1.71a44.56,44.56,0,0,1,28.82,1.25c2.35.9,4.75,1.67,7.15,2.39,1.83.55,2.73-.17,2.72-2.44-.79-2.1-1.28-5.11-3.9-6.32-6.35-2.93-12.88-5.5-19.35-8.17a12.88,12.88,0,0,0-8.34-.88c-7.78,2-12.41,8-17.25,13.71a1.7,1.7,0,0,0,.07,1.63A1.83,1.83,0,0,0,347.2,277ZM390,271.64,391,275l-2.82-1c-.33-.89-.64-1.74-1.08-2.91Zm-5.41-1.27c.32.81.62,1.6,1,2.52-2.18.29-2.39-1.43-3.38-3.12Zm-4.13,1.37-2.26-.51-2.64-3.83C378.3,267.59,379.49,269.28,380.42,271.74Zm-5.27-1.42c-2.37.48-2.81.24-4.35-1.23-1.93-1.85-4-3.54-6-5.32C369.93,263,372.28,267,375.15,270.32Zm-14.26-4.69A19.21,19.21,0,0,1,369.4,270c-4.72,1.34-7.37-3.05-11.33-2.84l-.1-.67C359,266.16,360,265.44,360.89,265.63Zm-5.37,3.06,7.29,1.8c0,.32-.09.64-.13,1l-8.52-.64-.21-.68C354.46,269.68,355,269.21,355.52,268.69Zm31.62,14.64c-1.61-1.05-3.26-2-4.9-3a13.47,13.47,0,0,0-8.74-1.84c-8.15.91-16.31,1.67-24.47,2.53a14.43,14.43,0,0,0-2.39.76c1.49,1.93,3.24,1.68,4.79,1.75a11.36,11.36,0,0,1,6.46,2.06c4.24,3.07,9,4.91,14.34,3.85,5.15-1,10.25-2.26,15.82-3.51C388.65,285.12,388.31,284.11,387.14,283.33Zm-8.79,1.81c-4.92,1.11-9.85,2.5-14.76-.59h14.77Zm-87.7-11.24c1.36,3.83,2.42,4.94,4.44,5.06-.29-.87-.49-1.67-.8-2.43-1.81-4.47-3-9.09-2.38-13.94a20.85,20.85,0,0,1,1.43-4.25l.66.13c2.33,3.9,4.61,7.83,7,11.7,1.39,2.25,1.84,4.27.22,6.75-1.31,2-2.32,4.46-.87,6.93,1.73,3,3.59,5.85,5.64,9.15.42-.7,1.34-1.53,1.27-2.29a18.55,18.55,0,0,0-1.25-5.45,21.32,21.32,0,0,0-2.7-3.88,13.91,13.91,0,0,1,1.57-3.16c2.48-2.89,2.4-5.94.68-9-2.14-3.88-4.41-7.69-6.73-11.47a17.37,17.37,0,0,0-2.79-3.33,5.78,5.78,0,0,0-5.11-1.64c-1.19.19-2.14.7-1.77,2.12l2.35.95C286,261.83,288.54,267.91,290.65,273.9Zm94.52,41.27c-1.8.52-2.47,1.62-1.62,4,1.36.16,2.84.26,4.29.51a15,15,0,0,1,3.71,1c1.13.51,2.34,1,2.91-.24a3.13,3.13,0,0,0-.56-2.91C391.43,315.34,388.53,314.22,385.17,315.17Zm46.12,108.31c-7.22,11.17-8.15,23.17-2.57,35.37a12.2,12.2,0,0,0,11.61,7.59c5.95.11,9.88-2.7,12.51-7.8,2.39-4.65,3.21-9.63,3.2-17a33.31,33.31,0,0,0-5.92-18.21C444.47,415.45,436.57,415.3,431.29,423.48Zm3.39,23.64.29-.23,4.53,6.84c.22-7.2.43-14.12.64-21h1.09c.22,6.9.44,13.81.67,21.08,1.63-2.52,3.06-4.7,4.48-6.89l.32.22-6,13.58Zm14.39,7.95a9,9,0,0,1-5.47,5.85c.9-2.07,1.76-4.16,2.71-6.21s2.15-4.26,3.07-6.45a9.12,9.12,0,0,0,.68-3.46,2.72,2.72,0,0,0-1-2.1,3.43,3.43,0,0,0-2.37.41,10.57,10.57,0,0,0-1.94,1.53c-.2-3.5-.21-6.79-.63-10a15.67,15.67,0,0,0-1.84-5.15,1.63,1.63,0,0,0-3-.08,14.08,14.08,0,0,0-1.95,5.09c-.45,3.26-.45,6.58-.66,10.18-1.48-1.08-2.56-2.74-4.74-1.91-1.15,1.84-.71,3.76.11,5.59,1.76,3.93,3.62,7.81,5.43,11.71.16.34.29.7.44,1l-.51.44a31.36,31.36,0,0,1-3.52-3.69c-2.54-3.64-3.46-7.86-3.74-12.2-.39-6.24.2-12.38,3.33-17.92a22,22,0,0,1,4.49-5.45c1.9-1.7,3.6-1.64,5.58,0a16,16,0,0,1,3.9,4.41C452.36,435.84,452.69,445.39,449.07,455.07Zm4.69,84.3a2.85,2.85,0,0,0,2.85-3,3,3,0,0,0-2.82-3.21,3.09,3.09,0,0,0-3.11,3A3,3,0,0,0,453.76,539.37Zm-26-6.15a2.91,2.91,0,0,0-3,3,2.86,2.86,0,0,0,2.86,3.13,3,3,0,0,0,3.06-3A3.08,3.08,0,0,0,427.79,533.22Zm17.37,3.93a3,3,0,0,0,0,6.06,2.81,2.81,0,0,0,2.88-2.88A3.06,3.06,0,0,0,445.16,537.15Zm-8.88,0a3,3,0,0,0-2.91,3.13,2.8,2.8,0,0,0,2.82,2.92,3,3,0,0,0,.09-6.05ZM395.39,87.67a2.8,2.8,0,0,0,0-2.58c-.88-1.11-4.24-.67-5.1.51-2.57,3.53-5.1,7.09-7.64,10.64q-1.58,2.19-3.13,4.4a2.32,2.32,0,0,1-.47-1.53c.22-3.49.5-7,.68-10.47.15-3.17-.51-4.07-3.86-5.1-.49,1-1.44,2.16-1.45,3.29-.14,9.07-.11,18.13-.09,27.2a6.66,6.66,0,0,0,.53,3.1A4,4,0,0,0,377.2,119c1.34.21,2.19-.89,2.25-2.24a24.72,24.72,0,0,0-.17-4.55c-.5-3.43,1.86-5.37,3.67-8,.65,1.24,1.1,2.19,1.64,3.09,2.06,3.47,4.12,6.94,6.24,10.38.81,1.31,2,2,3.54,1.19,1.25-.66,1.48-2.26.61-3.85-.25-.46-.58-.89-.87-1.33l-8.44-13.07c1.89-2.53,3.66-4.91,5.45-7.28C392.55,91.5,394.12,89.67,395.39,87.67Z"/></svg>