<svg xmlns="http://www.w3.org/2000/svg" viewBox="0 0 750 750"><path d="M606.06,51.38c0-1.19,0-2.38,0-3.57-.12-13.28-9.63-22.7-22.92-22.7q-197.43,0-394.87-.11c-13.48,0-23.87,10-23.84,23.92q.31,163.07.11,326.11,0,163.76,0,327.51a23.65,23.65,0,0,0,.6,5.5c2.62,10.61,11.25,17,22.93,17H583.56c8.29-.19,14.8-3.61,19.27-10.67,2.65-4.18,3.24-8.85,3.24-13.7Q606.05,376,606.06,51.38Zm-4.28,650.39c0,9.88-5.86,17.17-15.12,18.74a21.14,21.14,0,0,1-3.56.2H187.41c-11,0-18.59-7.56-18.59-18.58V47.68c0-9,5.4-15.95,13.89-17.9a18,18,0,0,1,3.94-.37q198.64,0,397.28,0a17.67,17.67,0,0,1,17.85,17.54c0,.93,0,1.85,0,2.78ZM347,537.57c1.39,1.24,2.8,2.55,4.25,3.79s2.94,2.45,4.36,3.61c-.29,4.9,4.58,7.28,9.36,5.48l8.09,2.88c.06.47.1.86.16,1.24.76,5.4,4.75,8.22,10.05,7a21.31,21.31,0,0,0,3.76-1.18c.65-.28,1.6-1,1.58-1.42,0-.67-.74-1.39-1.29-1.95-.83-.83-1.77-1.55-3-2.63l7.65-1.28c3.52,4,9.21,2.79,10.27-3.78,2.8-1.86,5.49-3.67,8.2-5.44a4.45,4.45,0,0,1,1.44-.6c3.26-.69,4.05-1.44,4.78-5.09.66-.59,1.79-1.43,2.74-2.44,8.58-9.18,15.15-19.72,20.71-30.93a5.34,5.34,0,0,1,1.82-2.25c13.6-7.9,23-19.57,29.78-33.49.32-.66.67-1.3,1-2v13.54c-2.63,3.08-2.69,4.33-.72,7v6.73c-4.06,2.32-5.07,7.33-.39,10.38v5l-5.51-3.18-2.46,2c1.06,3.06,2.14,6.14,2.83,8.14-1.63,2.08-3,3.62-4.13,5.35a4.34,4.34,0,0,0-.71,3c.15.59,1.54,1.13,2.42,1.21,2,.18,3.94.05,5.77.05,2,2.71,2.09,6.41,5.53,8.26a24.8,24.8,0,0,0,4.2-8.55c2.74-.3,5.66.76,8-1.27.62-2.24-1.31-2.85-2.43-3.92s-2.55-2.26-3.8-3.36c1.15-3.32,4.09-5.85,3.89-9.81-3.85-1.25-6.09,2.41-9.29,2.64V505a7.13,7.13,0,0,0,3.59-5.26c.33-2.68-1.21-4-3.62-4.79v-7.06c3-3.09,3-4.79.07-7v-16a33.56,33.56,0,0,1,3.49,0c4,.44,6.58-.52,8.4-6.31a13,13,0,0,0,.59-3.72c.16-15,.89-30.06-1.32-45-.94-6.41-2.31-12.86-2.32-19.3a198.16,198.16,0,0,1,1.89-23.92,179.22,179.22,0,0,0,1.55-30.71c-.52-9.92-1-19.84-1.6-29.76A27.69,27.69,0,0,1,489.1,293a27.46,27.46,0,0,0,1.57-4.49c.69-2.74-.83-4.24-3.62-3.65a18.25,18.25,0,0,0-2.38.84c-.52-2.57-.41-3,1.1-4.59,2.09-2.22,4.13-4.49,6.26-6.67,7-7.12,9.74-15.73,9.17-25.55-.13-2.15-.85-2.59-2.94-2.21-6.16,1.11-10.29,4.84-13.29,10.09-.23.41-.53.79-.8,1.19l-.66-.11c0-3.61.06-7.23,0-10.85-.19-9.25-1.21-18.51.22-27.76a43.23,43.23,0,0,0,.45-6.93,15.4,15.4,0,0,0-13.67-15.4c-1.18-.15-2.36-.3-3.53-.54-3.09-.63-5.48.47-6.47,3.45a19.15,19.15,0,0,0-.8,5.65c-.07,4.3.06,8.61.13,12.91.09,5.16-.1,10.35.34,15.49,1.4,16.36,3,32.71,4.6,49.05,2.44,24.59,4.41,49.21,5.06,73.92,0,1.43,0,2.86,0,4.36-.85.1-1.43.16-2,.24-2.67.37-3.73,1.59-3.69,4.23A368.85,368.85,0,0,1,461,418a28,28,0,0,1-1.46,4.37c-.23.74-.61,1.68-.35,2.27,1.33,3-.32,5.69-.39,8.39-3,2-2.77,4.23-1.36,7.31-.46,2.19-.94,4.44-1.39,6.54-4.57,2.09-5.45,5.91-2.42,9.74a5.05,5.05,0,0,1-.08.74,230.06,230.06,0,0,1-15.17,43,2.88,2.88,0,0,1-1.07,1.36A41,41,0,0,1,423,505.9c-1.25-3.41-2.06-4.72-3.86-5.49a7,7,0,0,0-2.55-.07,10.1,10.1,0,0,0,0,2.4,32.06,32.06,0,0,0,1.48,3.62l-8.39-.8c-1.6-6.1-4.14-8.8-7.28-7.34.59,1.77,1.21,3.61,1.83,5.44l-.41.49-10.08-5.06a32.63,32.63,0,0,0-.34-4.7c-.29-1.32-1-2.53-2.7-2.4s-1.66,1.44-1.79,2.65c0,.09-.17.17-.39.39a70.79,70.79,0,0,1-12.78-14.49c2.94-2.22,5-4.77,5.7-8.31.15-.75,1-1.36,1.82-2.51a16.14,16.14,0,0,0,.7,2.71c.78,1.5,1.34,3.39,2.58,4.31,2.63,2,5.46,4.05,8.54,4.9a92.5,92.5,0,0,1,13.83,4.65c5.09,2.3,9,0,10.37-5.43a25.79,25.79,0,0,0,.51-5.7,44.61,44.61,0,0,0-.28-5.16,12,12,0,0,1,3.82-10.38c3.42-3.28,4.38-7.43,3.27-12.06-.5-2-.89-4.11-1.35-6.29,1.45-.71,2.78-1.3,4-2a10.25,10.25,0,0,0,5.6-8.81,4.9,4.9,0,0,1,2.55-4.52,12.4,12.4,0,0,0,5.83-8.17,48.89,48.89,0,0,0,1.67-7.95,13.41,13.41,0,0,0-.93-6,90.42,90.42,0,0,0-5-9.93c-2.23-4-4.1-8-4.52-12.61-.19-2.15-1.37-3.72-2.82-5.3a17.39,17.39,0,0,1-3.72-5.49c-1.33-3.7-2-7.64-3.15-11.41-1.33-4.36-3.29-8.56-4.22-13-2.12-10-3.78-20.13-5.59-30,2.83-1.42,5.66-2.68,8.33-4.23s5.82-1.83,8.08-4.29a3.06,3.06,0,0,0-2-1c-2.62.34-4.81-.7-6.95-1.93-3.45-2-6.86-4-10.28-6a20.72,20.72,0,0,0-10.4-2.91c-1.05,0-2.09.09-3.18.14L393.66,287c2.35-4,4.78-5.14,9-4a46.25,46.25,0,0,1,7.75,3,20.52,20.52,0,0,0,10.4,2,34,34,0,0,0,16.06-5.27c2.35-1.45,4.93-2.54,7.37-3.86a15.36,15.36,0,0,0,2.06-1.57c-.62-.68-1.12-1.62-1.9-2-4.51-2.34-9.12-4.5-13.64-6.83-8.69-4.48-17.09-3.63-25.3,1.27l-1.62,1-.6-.37c1.82-4.2,3.39-8.54,5.57-12.55,1-1.84,3-3.27,4.85-4.49a26.2,26.2,0,0,1,5.6-2.52c7.65-2.79,12.57-8.34,15.84-15.54,1.88-4.15,3.62-8.36,5.38-12.56.43-1,.72-2.07,1.29-3.73a12.89,12.89,0,0,0-2.46.44c-.72.3-1.3,1-2,1.22-4.49,1.58-9,3.32-13.53,4.59a23.53,23.53,0,0,0-12.83,8.18c-1.92,2.48-3.43,5.28-5.18,8-1.15-3.51-2.26-7.17-3.56-10.76a7.61,7.61,0,0,1,1.6-8.2,20.72,20.72,0,0,0,4.55-18c-1.27-6.57-1.44-13,1.05-19.35a6.52,6.52,0,0,0,0-2.21l-.72-.2a14.34,14.34,0,0,0-1.77,1.4c-2.9,3.09-5.8,6.18-8.64,9.33-5.07,5.62-6.54,12.42-6.31,19.73.18,5.41,1.73,10.2,6.23,12.91,1.06,3.8,1.77,7.18,2.94,10.4a41.37,41.37,0,0,1,2.27,21.48,39.09,39.09,0,0,1-5.19,13.09,42.47,42.47,0,0,0-1.45-18.89,20.21,20.21,0,0,0-5.84-9.55,4.76,4.76,0,0,0-5-1.13c-1.87.67-2.35,2.39-2.48,4.18-.22,3,1.08,4.51,4.5,5.16a8.31,8.31,0,0,1,6.74,7.29c.75,6.3-.38,12.41-1.8,18.48a38.14,38.14,0,0,1-1.76,4.74,44,44,0,0,1-3.15-7.89,43.74,43.74,0,0,0-12-19.82c-2-1.85-3.92-3.76-5.88-5.63-3.28-3.11-6.67-6.2-8.13-10.63-2.42-7.4-7.17-13-13-17.88a23.66,23.66,0,0,1-6.27-8.1,31,31,0,0,0-2.9-5.2c-5.48-7.15-10-7.39-16-4.76-2.91,1.27-5.5,2.91-6.71,5.06-6.74.8-12.87,1.6-19,2.22a17.8,17.8,0,0,0-9.31,4c-5.44,4.21-9.36,9.7-13.39,15.11a4.29,4.29,0,0,1-3.16,2.09c-6.47.63-13.27,6.83-14.18,13.25-.86,6-.67,12,2.19,17.67.38.74.64,1.55,1,2.41a6.12,6.12,0,0,1-1,.52c-3.54.86-6.08,2.9-8.55,5.65-4.66,5.19-6.08,11-5.14,17.65,1.11,7.78,8.56,15.82,18,14.16a25.43,25.43,0,0,1,2.61-.17,5.32,5.32,0,0,1-.24.79c-4.32,6.71-4.68,13.67-1,20.72a20.61,20.61,0,0,1,2.31,11.08c-.26,4.54.24,8.85,6.12,9.69-.26.78-.45,1.34-.61,1.9-2.39,8.15-.82,16.8,9.61,20.77a35.76,35.76,0,0,0,4.4,1.08c.5.12,1,.35,1.48.45a33.65,33.65,0,0,0,5.31,1,36.5,36.5,0,0,0,5.49-.59c-1.54,4-3.31,7.52-4.25,11.25s-1.06,7.65-1.55,11.57a61,61,0,0,0-5.28-3.18c-3.52-1.68-7.16-3.13-10.71-4.76a13.65,13.65,0,0,1-6.63-5.75,15.37,15.37,0,0,0-2.82-3.56,7.93,7.93,0,0,0-2.45-1.08l-.69.62a12.77,12.77,0,0,0,1.16,2.81,30.59,30.59,0,0,1,5.17,12.15c.94,4.8,1.83,9.62,2.93,14.39,2.37,10.3,11.82,15.53,20.59,15.27,1.64,0,3.26-.26,5.21-.43.52,2.15,1.39,4.18,1.44,6.23.11,4.48-.12,9-.36,13.47a45.54,45.54,0,0,1-.86,6c-.6,3.25-1.33,6.49-1.92,9.74a10.23,10.23,0,0,0,.14,2.39l.63.18a12.35,12.35,0,0,0,1.29-2c.71-1.78,1.28-3.62,1.92-5.43.54-1.49,1.1-3,1.65-4.45a295.37,295.37,0,0,0,12.15,43.34c-2.57,4.56-1.5,7.24,3.46,8.73,5.49,12.7,12,24.93,20.84,35.71C339.6,535.9,342.48,538.49,347,537.57ZM491.75,253.69c-.43,2.23-.79,4.08-1.15,5.92l-.73-.17C488.94,255.79,489,255.47,491.75,253.69Zm5.65-.21a27.18,27.18,0,0,1-9,19.34A55.47,55.47,0,0,1,497.4,253.48Zm-9.91,6.38c.2,1.64.39,3.27.59,4.9l-1,.05c-.16-1.63-.33-3.25-.49-4.87ZM480,512.37c-.56,1.94-1.84,4-1.48,5.8s2.38,3.12,3.92,5c-4.51-.64-6,2.29-7.46,6.26-1.52-5-4.63-6.8-9.27-6.12-.07-.18-.13-.35-.19-.52a28.11,28.11,0,0,1,3.19-3.26c1.78-1.33,1.7-2.8.83-4.52-.49-1-1-2-1.49-3,2.12.88,4.08,2.31,6.06,2.35S478.11,513,480,512.37Zm-3.85-92.66c.76-5.88,3.13-11.56,5.27-17.29a13.51,13.51,0,0,1,.36,1.39c.55,3.47,1,6.94,1.61,10.39a18.49,18.49,0,0,1-.8,9.79c-1.77,4.74-3.76,9.4-5.66,14.1l-.65-.08C476.13,431.9,475.33,425.7,476.11,419.71Zm-1.94-76.07a7.83,7.83,0,0,1,.75,1.06c2.58,5,5.16,10,7.69,15a3.18,3.18,0,0,1,.28,1.7c-.66,6-1.37,11.94-2.08,17.91,0,.17-.19.31-.46.72a42.61,42.61,0,0,0-2.34-6.25,32.49,32.49,0,0,1-3.89-20C474.45,350.46,474.17,347.07,474.17,343.64Zm9.43,114.88c-.68,2.37-1.6,2.62-4.64,2.46a2.85,2.85,0,0,1-3-3.18c0-2.89-.17-5.94.65-8.64,1.91-6.29,4.37-12.41,6.61-18.6l.79.19a2,2,0,0,1,.16.52c.1,7.2.25,14.4.24,21.6A21.19,21.19,0,0,1,483.6,458.52Zm.84-192.42c2.26,2.57.92,4.89.09,7.26l-.55,0C484.13,270.91,484.29,268.5,484.44,266.1Zm-4.55,9.48c.06.68.17,1.36.18,2,0,3.44,0,6.89.08,10.33a6.79,6.79,0,0,0,.41,2.51c.88,2,3.13,2.12,4.43.37.58-.77,1.18-1.53,1.77-2.3l.47.23a16.06,16.06,0,0,1-.55,1.7c-1.51,3.23-3.08,6.43-4.56,9.68-3.24,7.12-5.38,14.51-5.2,22.42a14.08,14.08,0,0,0,2.79,8.14c1.25,1.71,2.54,3.39,3.77,5.11a2.63,2.63,0,0,1,.58,1.41c0,4.83-.15,9.65-.25,14.48,0,.17-.15.34-.47,1-2.88-6.18-5.95-11.77-8.15-17.68-3.17-8.54-2.87-17.6-2.24-26.5.4-5.71,1.7-11.36,2.81-17,1-4.93,2.25-9.8,3.4-14.7A2.13,2.13,0,0,1,479.89,275.58Zm3.42,54.47c-4-3.86-4.44-14.46-1-21.91C482.64,315.36,483,322.58,483.31,330.05Zm-18.66-119c1.11,1.34,2.11,2.63,3.2,3.84s2.64,2.25,4.56,1.54a4.42,4.42,0,0,0,3.07-4.42,10.33,10.33,0,0,0-.08-3.15,9.78,9.78,0,0,0-2-3.5,2.09,2.09,0,0,0-3.2-.08c-1,1.13-.24,2.06.67,2.86a5.37,5.37,0,0,1,.56.65c-.06.89-.13,2-.21,3.16-3.43-2-5.54-6.59-4.79-10,5-2,10.51.83,12.17,6.48a28.76,28.76,0,0,1,.85,8.6c-.11,4.55-.61,9.09-1,13.63a5.76,5.76,0,0,1-.17.77c-5.39-3.69-9.19-8.64-12.61-13.92C464.23,215.18,464.1,214.3,464.65,211.08Zm0,10.93,1,1.21c2.24,2.6,4.36,5.32,6.75,7.77,4.05,4.18,7.17,8.66,6.64,14.87a26.57,26.57,0,0,0,.19,4.36c1,12.31-2,24-5.18,35.75-.84,3.12-1.83,6.2-2.75,9.3a41.18,41.18,0,0,1-.77-15.51c.79-5.77,1.9-11.49,2.65-17.26a46.77,46.77,0,0,0-6-29.8C465.37,229.46,463.74,226.19,464.65,222Zm4.4,47.47-4.14-33.81C469.33,239.61,472,262,469.05,269.48Zm1.82,96c1.23,3.39,2.59,6.69,3.61,10.1,1.56,5.18,2.94,10.43,4.3,15.67a17.86,17.86,0,0,1-.65,10.74,51.56,51.56,0,0,1-2.59,6.56,8.92,8.92,0,0,1-.26-1.33c-.37-7.87-.62-15.74-1.15-23.59a33.91,33.91,0,0,0-1.64-7.93c-1.07-3.38-2.51-6.65-3.88-10.22Zm-13.4,91.62c5.42-2.45,6.22-5.86,1.63-9.66.42-2.1.87-4.29,1.29-6.38,3.81-2.56,4.24-4.88,1.21-8.43.7-2.3,1.49-4.91,2.27-7.52.15-.51.46-1.09.34-1.53-1.21-4.13.36-8.12.61-12.16.68-11,1.53-21.91,2.32-32.86.07-1,.13-2,.2-2.95l.59-.12c.6,2.4,1.57,4.78,1.72,7.21.78,13,1.57,25.9,2,38.87.3,10.7,0,21.43,0,32.15a14.17,14.17,0,0,0,.14,3.75,9.21,9.21,0,0,1-.77,6.32c-5.64,13.32-13.77,24.7-25.61,33.24-.48.34-1,.66-1.49,1h0C448.36,484.56,452.85,471,457.47,457.11ZM443.88,498c-.1.05-.21,0,0,0Zm-20.5-269.18,2.05-.61a4.06,4.06,0,0,1-2.41,4.7C423.15,231.45,423.26,230.19,423.38,228.85Zm-5.64,2.81,2.93-1.76c.9,4.08.24,5.81-2.93,7.93Zm-2.31,2.76v6.3l-1.49,1.84-.45-.22C414,239.66,412.31,236.62,415.43,234.42Zm19.51-6.93c-3.22,12.12-10.74,19.79-22.75,22.64C413.28,246,426.11,233.09,434.94,227.49Zm-24.72,13,.62.17c.83,3.9.47,7.46-3.33,10.61Zm-14.28-29.12,1.57,1.18v3.71C395.42,215,395.45,213.38,395.94,211.37Zm1.56,10.36L396.27,218l.58-.28C398.56,218.59,397.55,220.3,397.5,221.73Zm.23-11.67L396,208l.7-3.33,1.59,2.11C398.14,207.59,398,208.47,397.73,210.06Zm3,11.21c-1.39-9.11.66-17.22,3.26-25.28.34,5.72,2.46,11.3,1,17.13A20.26,20.26,0,0,1,400.7,221.27Zm24.92,48.94,3.32,1.65-.16.48-3.81-.46C425.19,271.32,425.36,270.89,425.62,270.21Zm-6.19-.87,4.13.4-1.33,1.77-4.79.3Zm-3.42.5-1.42,2.32-3.14.44C412.25,270.27,413,269.82,416,269.84ZM439.54,278c-6.46,4.63-13,7.72-20.75,7a16.32,16.32,0,0,1-4.92-1.32c-3.73-1.61-7.38-3.41-11.06-5.13C414.66,273.38,426.89,275,439.54,278ZM376.46,552.87c-.15-3.93,1.83-6.56,5.64-7.25a13.7,13.7,0,0,0,.95,12.74C378.54,558,376.59,556.28,376.46,552.87Zm49.31-176.68a7.63,7.63,0,0,1,5,6.23,35.4,35.4,0,0,0,5,13.89c1.83,3.13,3.3,6.48,4.91,9.75a2.64,2.64,0,0,1,.39,1.12c.09,5.73-.64,11.29-5.06,15.46-2.31,2.18-4.37,4.13-4.74,7.64-.39,3.66-2.78,5.62-8.07,7.71l-3.31-10.34a4.42,4.42,0,0,0-2.49,4.71,15,15,0,0,0,1.51,4.88,35.76,35.76,0,0,1,3.73,12.48c.28,2.52-.1,4.9-1.93,6.63-5.5,5.22-5.5,11.66-4.52,18.44a12.09,12.09,0,0,1-.12,4.49c-.92,3.8-3.6,5.26-6.84,3.14-4-2.62-8.38-3.33-12.79-4.5a21.84,21.84,0,0,1-7.46-4c-1.19-.92-1.69-2.89-2.21-4.49-.75-2.28-1.15-2.71-3.5-2.43a5.82,5.82,0,0,0-5.36,4.59,8.21,8.21,0,0,1-4.11,5.33,28.28,28.28,0,0,0-15.44-8.3,5.81,5.81,0,0,1-4.78-4.53,66.54,66.54,0,0,1-1.25-7,15.81,15.81,0,0,0-4.66-9.44c-1-.93-1.91-1.84-2.83-2.79a11.75,11.75,0,0,1-3.75-8.69A18.52,18.52,0,0,0,338.34,426c-2.56-4.32-3.81-9.14-2.07-14.11,3.09-8.84,1.52-17.22-2-25.49-.43-1-.84-2.07-1.2-2.95,4-6.51,8.93-11.65,15.7-14.76a23.1,23.1,0,0,1,14.58-1.47,49.17,49.17,0,0,1,7.11,1.85c7.55,2.77,14.93,1.93,22-1.27,6.5-2.94,12.57-2.06,18.38,1.41A96.57,96.57,0,0,0,425.77,376.19Zm-91.45,56.05a8.61,8.61,0,0,1,2.45,0c.37,3.2.74,6.32,1.11,9.49-5.05,3.13-10.21,3.69-15.57.35-2-1.24-4.21-2.09-6.63-3.27C322.07,436.53,328.18,434.35,334.32,432.24Zm-17.85,2.22,4.9-6,.4.16c-.08,1.31-.16,2.61-.25,4.21l-4.64,2.09Zm7.37-2.86c.37-2.42.67-4.4,1-6.6l2.21-1.56c-.25,2.44-.46,4.51-.7,6.76Zm5-2.3c.44-2.53.82-4.77,1.23-7.2l2.36-.65c-.28,2.58-.52,4.85-.78,7.29Zm88.62-77.93c.27,1-.13,2.16-.22,3.25l-.58.26-3.38-3c.55-2.49,1.09-5,1.68-7.64C415.87,346.81,416.82,349.05,417.45,351.37Zm-16.12-32.86h4.46c-.7,4.16-1.4,8.29-2.09,12.42l-.59.06C403.76,326.7,400.13,323.17,401.33,318.51Zm4.06,15.16c1-4.5,1.37-9.13,2-13.71.09-.64.22-1.28.35-2l2.38-.46c.31,1.87,1,3.65.79,5.29-.89,6.32-2.09,12.6-3.17,18.89h-.59C405.72,339.19,404.7,336.81,405.39,333.67Zm4.23,9.64c.93-4.23,1.53-8.54,2.3-13,3.38,6.4,1.83,12.39-.7,18.47C409.87,347.13,409.13,345.54,409.62,343.31Zm10.31-32.55c-2.94.91-5.86,1.88-8.83,2.7-4.52,1.25-9.07,1.8-13.64.19a4.64,4.64,0,0,1-1.89-1c-1.94-2.15-3.77-4.4-5.64-6.62,1.92-.9,24.62,2.21,29.85,4.09Zm-11-9.33,3.58,2.09c-2.31,1.67-4.29.21-6.38-.17C407,302.74,407.87,302.14,408.89,301.43Zm-3.25-1.15c-2.44,2.81-4.35,3.39-7.43,2.22C400.72,299.32,402.05,298.93,405.64,300.28ZM397,299.6l.27.55L395,302.5l-5.35.33-.24-.74Zm-6.68-8c1.2,2-.61,7.22-2.76,8.26C388.57,296.81,389.45,294.19,390.32,291.57Zm-8.6-3.87c.6-4.11.73-8.29,1.07-12.45a4.86,4.86,0,0,1,.26-1.48c1.62,4.09,3.47,8,2.56,12.72-.66,3.41-.71,6.94-1,10.42l-.51.12C382.66,294.09,381.19,291.27,381.72,287.7Zm-4.32-25.77c1.69,2.59,3.76,4.67,3.75,7.37,0,5-.63,9.95-1,15.16-1.23-1.56-2.27-2.83-3.22-4.16a2.74,2.74,0,0,1-.61-1.59C376.62,273.32,377,267.93,377.4,261.93Zm-7,10.4c.43-5.25.91-10.5,1.41-16.12,2,1.84,4.09,3.07,3.76,6.17-.53,5-.72,10-1.09,15.48-1.39-1.53-2.58-2.76-3.67-4.07A2.2,2.2,0,0,1,370.44,272.33Zm-6-8q.6-6.71,1.25-13.4c0-.16.18-.3.39-.63L370,254.5c-.53,5.4-1.06,10.89-1.6,16.4C366.32,269.92,364.27,266.57,364.47,264.36Zm-5.66-7.55c.32-4.34.68-8.69,1.06-13.46,2.4,2.72,4.57,5,3.89,8.83-.62,3.48-.48,7.1-.67,10.65A6.24,6.24,0,0,1,358.81,256.81Zm-5-15.56c.12-3.1,0-6.21,0-9.31l.61-.13a6.59,6.59,0,0,1,.77.92,18.27,18.27,0,0,1,2.39,12c-.5,3.4-.1,7-.1,10.43l-.54,0-3.84-4.66C353.32,247.56,353.66,244.41,353.79,241.25Zm-4.18-14.7.7-.32c.7,1.13,2,2.28,2,3.39-.16,6-.65,11.93-1,17.89C347.29,240.71,349.75,233.56,349.61,226.55Zm1.68,28.23c1,1.75,1.91,3.56,3.1,5.81-7.2-3.13-13.71-6.89-21.47-6.92-7.44,0-14.79.22-22.3,2.78a4.91,4.91,0,0,1,.69-.95c9.63-7.07,20.11-10.28,32.07-7.4C347.24,249,349.48,251.6,351.29,254.78ZM345.56,222l2.35,2.17c-.2,2.87-.4,5.79-.64,9.12C344.72,229.73,345.16,226.13,345.56,222Zm-4.9-5.34c2.65,2.22,3.27,4.86,2.51,8.29l-2.78-3.08C340.47,220.22,340.56,218.53,340.66,216.66Zm-4.45-8.21c2.37,2,2.77,4.23,2.25,11.63C334.29,216.53,337.14,212.18,336.21,208.45Zm-3.68-4.3,1.72,1.33v9.73C331.88,212.23,331.46,209,332.53,204.15Zm-2.38-1.06v4.43l-2-1c-.06-1-.12-2-.19-3.15Zm-4.54.68c.14.32.27.63.4.95l-4.74,1.81-.28-.67ZM260.94,267l1.65-.6a8,8,0,0,1,.88,6.78C260.82,272.57,260.21,271,260.94,267Zm-.65,29.93c-4.32-.38-8.63-5.05-9.44-10.11-1.07-6.63,0-12.8,4.75-17.94a12.51,12.51,0,0,1,2.16-1.44c0,1.36,0,2.27,0,3.17a5.91,5.91,0,0,0,4.13,5.51c2.42.78,4.47-.15,4.76-2.64a20.64,20.64,0,0,0-.37-7,38,38,0,0,0-2.85-7.39c-2.41-5.08-2.4-10.42-1.65-15.77.67-4.85,6.39-9.9,11.22-10.16a7,7,0,0,0,5.41-3.16c4.1-5.33,7.62-11.22,13.45-15a21.13,21.13,0,0,1,5.13-2.32c-3.87,6.32-3.83,13.41-4.94,20.2a17.69,17.69,0,0,1-3.26,8.2,17.78,17.78,0,0,0-3.6,14c1.28,8.56,2,17.1-.75,25.57-1.91,5.95-5,10.89-10.66,14C269.53,296.91,264.93,297.31,260.29,296.91Zm12.19,40.26a14.63,14.63,0,0,1,0-3.56A19.59,19.59,0,0,0,270.35,321c-3.23-6.33-2.7-12.6,1.31-18.39,1.46-2.09,3.66-3.66,5.53-5.47l.53.47c-2.55,5.94-2.9,11.93-.34,17.93.88,2.07,1.81,4.12,2.86,6.11a30.66,30.66,0,0,1,3.54,16.07c0,.52-.08,1-.15,1.83-3,0-5.95,0-8.89,0A2.22,2.22,0,0,1,272.48,337.17ZM286.05,362c-8.12-1.58-12.18-11.84-7.35-18.82l5,.38C287.18,349.54,286.54,355.69,286.05,362Zm5.39,2.53a12.74,12.74,0,0,1-.93-3.08c-.09-1.91.35-3.86.17-5.75-.32-3.4-.93-6.77-1.44-10.15-.34-2.2-1.17-4.43-1-6.59a38.26,38.26,0,0,0-5.58-22.77,20.79,20.79,0,0,1-1.89-17.05,31.33,31.33,0,0,1,4.73-10.3c3.27-4.41,3.69-9.85,4.7-15,1.22-6.19-.19-12.28-1-18.36-.62-4.5.15-8.36,3.19-11.81a16.37,16.37,0,0,0,3.82-9c.51-4,.84-8.05,1.6-12a20.73,20.73,0,0,1,2.49-6.81,10.19,10.19,0,0,1,10.19-5.18,31,31,0,0,0,14.1-1.91,5.89,5.89,0,0,1,4.23,4,20.33,20.33,0,0,0,6.43,8.93,28,28,0,0,1,8.67,12.82c1.17,3.7,2.34,7.4,3.61,11.39-19.83-4.6-35.26,2.55-48.22,16.54-2.47,2.67-2.46,3.3-2,5a20.31,20.31,0,0,0,2-1.05c6.75-4.42,13.71-8.32,22-9.06,9.87-.89,19.4,0,28.38,4.7,2.71,1.43,5.91,1.88,8.72,3.13a6.16,6.16,0,0,1,3,3.08,17.53,17.53,0,0,0,4.29,6.31c3.31,3.33,6.45,6.85,9.44,10.47a11.08,11.08,0,0,1,1.85,4.33,46.49,46.49,0,0,0,12.33,21.85c4.19,4.19,6.64,9.52,9.3,14.69a5.54,5.54,0,0,1,.58,2.1c.48,6.81,2.85,13,5.93,19a7.65,7.65,0,0,1,.35,1l-2.28,2.29a3.73,3.73,0,0,1-.53-.61c-1.8-3.81-4.68-4.76-7.94-2.09a27.31,27.31,0,0,0-6.14,6.95c-3,5-11.41,4.63-14.74,1.13-1.78-1.87-3.48-3.82-5.33-5.63a7.19,7.19,0,0,0-8.45-1,20.93,20.93,0,0,0-2.39,2c-2.58-1.11-4.75-4.84-4.62-8a13.25,13.25,0,0,1,3.86-8.66c-1.38-1.25-2.24-.41-3,.26a11.67,11.67,0,0,0-3.63,11.73c1.47,7,7.24,9.26,13.72,9.69.81.06,1.65-.48,2.81-.85-1.77-2.52-4.55-1.47-6.26-2.83,1.63-1.56,3.93-1.48,5.7.31s3.28,3.64,5,5.36a13.44,13.44,0,0,0,15,2.86,14.08,14.08,0,0,0,4.31-3.62c1.69-1.95,3-4.24,4.61-6.21.83-1,2.12-1.58,3.65-2.68.44,1.49.69,2.35.86,2.94-1.4,2.06-4.64,1.5-4.79,4.34,2.79,1.87,8.88-.15,12.54-4,.12,0,.28,0,.35.07,4.09,3.94,8.31,7.75,12.17,11.91,1.82,2,2.92,4.61,4.35,6.94l-.62.67c-1.87-.85-3.79-1.62-5.6-2.57s-3.63-2.18-5.48-3.22c-6.84-3.83-13.91-3.88-21.05-1-6.19,2.47-12.3,3.64-18.9,1.14a45.57,45.57,0,0,0-11.41-2.47C350,362,341.56,367.09,335.07,376a20.43,20.43,0,0,1-1.71,2.27c-.36-3.36-1.48-5.87-5.16-5.78-3.05-7.4-5.56-8.87-15.14-8.84a47.26,47.26,0,0,1-4.58-14.37,15.85,15.85,0,0,0-.84-2.61l-.88-.13a11.94,11.94,0,0,0-1.15,2.25c-1.36,4.95-2.64,9.93-3.89,14.64Zm13.63,16.28-4.31-4.5,1.27-2.83.52,0C303.52,375.78,306.67,377.3,305.07,380.79Zm-1.64-10.48c.45-1.46.9-2.88,1.34-4.31l.4,0,.45,6.76-.5.16Zm5.26-4.73.53,0a15.93,15.93,0,0,1,.66,1.74c1.33,5.18,2.76,10.34,3.89,15.57a21.8,21.8,0,0,1,.42,6.88c-.58,5.36-3.9,8.75-9.08,10.74C310.1,389.21,309.77,377.44,308.69,365.58Zm-9.07,13.54,5.61,5.33c-.17,1-.39,2.29-.61,3.61l-5.23-5.7-.67.45ZM276,389l.42-.08,2.1,2.57h-2.05C276.28,390.57,276.13,389.76,276,389Zm1,5.25c3.24-.88,4.24-.55,6.15,2.11l-5.67.41C277.29,395.8,277.14,395,277,394.21Zm2.44,9.56c-.49-1.48-.93-2.79-1.47-4.39l8.61-.73,1.93,1.74Zm1.23,2.34,9.81-3.38,2.29,2.51-9.8,3.61C282.22,408,281.53,407.15,280.66,406.11Zm5.18,4.65,8.14-3.82,1.32,1.92L288.78,412Zm7.71,2.46-.16-.26,3.56-1.78,1.35,2Zm-13.64-25c8.89,1.94,17.26,9.61,18.46,18.35C294,398.84,286.28,394.5,279.91,388.22Zm18.49-1.81,5.52,4.06c-.21.9-.43,1.84-.74,3.13l-4.78-3.24Zm3.39,14.64-.43.06q-1.37-3-2.74-6.09l.48-.4,3.53,1.93Zm1.39,13.56a20.44,20.44,0,0,1-.16-7.07c.12-1,1.32-1.94,2.24-2.62a24.12,24.12,0,0,1,4.15-2.33c6.44-2.93,8.89-8.37,9.43-15,.35-4.18-1-8.1-2.24-12-.8-2.42-1.42-4.91-2.12-7.36,4-1.18,8.1.87,8.95,4.41.68,2.82,2.67,3.74,5.33,4.08a10,10,0,0,1-1.2,8c-4.26,6.54-8.65,13-12.47,19.83-3,5.4-5.3,11.23-7.9,16.87-.3.64-.52,1.32-.79,2A74.37,74.37,0,0,1,303.18,414.61Zm3.36,23c3.57-13.89,8.78-27,17.26-38.75a85.49,85.49,0,0,0,4.43-7.51c.76-1.31,1.47-2.63,2.2-3.94l.65-.05a99.52,99.52,0,0,1,3,9.7,20.81,20.81,0,0,1-1,13c-1,2.3-1.18,5-1.77,7.7-8.09.7-12.44,6.84-17,12.68q-2.7,3.44-5.54,6.74a13,13,0,0,1-2.24,1.58A8.22,8.22,0,0,1,306.54,437.57ZM324,493.67c2-4.76,1-7.25-3.53-8.79-5.72-13.78-9.22-28.36-13-43.08a18.27,18.27,0,0,1,8.87,1.79,15.62,15.62,0,0,1,2.79,1.5c6.91,4.65,13.81,4.78,20.74,0,2,2.19,4.25,4.14,5.8,6.55a27.74,27.74,0,0,1,2.77,7.1c.59,1.95.69,4,1.22,6a10.32,10.32,0,0,0,7.91,7.83,27.83,27.83,0,0,1,13.05,7.19,14.37,14.37,0,0,0,2.83,1.73c-.07.12-.14.24-.22.35l12,15.31a.67.67,0,0,0-.38.21c-.51.61-1.34,1.29-1.31,1.91a2.42,2.42,0,0,0,1.43,1.82,47.89,47.89,0,0,0,6,.09l10.34,5.5a18.08,18.08,0,0,0-2.93.94,9.87,9.87,0,0,0-1.82,1.5c.61.68,1.12,1.8,1.85,2,2.93.72,5.61-.2,8.08-1.82a12.25,12.25,0,0,0,1.11-.92l8.32,1.1a2.66,2.66,0,0,0-.41.77c-.13.78-.57,1.91-.22,2.29a2.71,2.71,0,0,0,2.4.72,19.84,19.84,0,0,0,3.88-2.61,7.07,7.07,0,0,0,1.11-1.33L435.55,506c-5.75,11.2-12.57,21.37-21.5,29.92-3.38.17-4.74,1.06-5.53,4.85l-8.09,5.11c-5.72-2.29-7.21-1.77-9.31,3.33l-7.12,1-.5-.51c.75-1.82,1.49-3.64,2.28-5.59-2.9-2.79-9-.73-12.26,4.78L367,546.51c-1.17-6.5-4.9-7.82-9.25-5.35-2.64-2.37-5.4-4.81-8.09-7.32-.38-.36-.32-1.15-.65-1.61A27,27,0,0,0,346.3,529c-.86-.84-2.14-1.31-2.88-2.22C335.28,516.71,329.19,505.43,324,493.67Zm256.22-71.78-4.2-3V671.73c-12.28,2.26-18.66,10-21.36,21.59h-122c2.56,3.11,5.24,4.67,9.13,4.33,4.34-.37,8.73-.08,13.1-.08l101.95,0a15.55,15.55,0,0,0,1.57-.15c.94-13.83,9.4-19.92,21.82-22.16ZM194.62,671.71V418.83l-4.2,3.12V675.56a23.11,23.11,0,0,1,15.3,6.71c4.28,4.15,6.84,9,6.24,15.17.8.07,1.25.16,1.71.16,39,0,77.89-.08,116.84.06,3.59,0,5.13-2.27,7.2-4.43H216C213.24,681.69,206.9,674.07,194.62,671.71ZM555.51,55c2.76,11.53,9.07,19.17,21.37,21.49v243l4.19-3.14V73c-12.57-2.27-21-8.48-21.87-22.2a13.83,13.83,0,0,0-1.39-.13c-39,0-78,.06-117,0-3.5,0-4.95,2.33-7.14,3.94.06.16.11.32.16.49ZM191.24,316.37l4.29,3.17V76.46c12.22-2.28,18.57-10,21.25-21.59H338.87c-2.5-2.66-4.72-4.63-8.5-4.31-4.61.38-9.26.09-13.9.09l-102,0a12.13,12.13,0,0,0-1.45.16c-.9,13.75-9.33,19.87-21.83,22.17ZM355.53,126h59.41V76.2H355.53Zm4.25-45.52h51v41.19h-51Zm46.91,577.76c1.91.11,2.35-1.36,2.86-2.76,1.31-3.59,2.63-7.19,4-11,1.77,4.17,3.39,8,5,11.82a3.8,3.8,0,0,0,3.82,2.63c1.78-.12,2.22-1.67,2.53-3.14.63-3.11,1.13-6.26,1.88-9.34,1.77-7.27,3.68-14.5,5.48-21.76a23,23,0,0,0,.34-3.3L429.15,620c-4.58,9.5-5.1,20-8.6,29.75a65.63,65.63,0,0,1-2.85-7.3c-.6-1.82-.92-3.74-1.61-5.52a2.67,2.67,0,0,0-1.83-1.46c-.55-.07-1.44.63-1.79,1.22a26.84,26.84,0,0,0-1.76,4c-.85,2.26-1.65,4.54-2.66,7.36-.27-1.25-.41-1.89-.55-2.52-1.33-6.28-2.64-12.57-4-18.84a26.31,26.31,0,0,0-1.19-3.78c-.45-1.19-1-2.54-2.6-2.18s-1.51,1.68-1.49,2.89a17.3,17.3,0,0,0,.19,3Q401,640.79,403.69,655C404,656.74,404.73,658.08,406.69,658.19Zm59.13-8.69a74.87,74.87,0,0,0,3.63,7.49c1,1.9,3.07,1.69,4.79,1.46s1.94-1.79,2.09-3.22c.07-.72.14-1.45.14-2.18,0-5.89,0-11.79,0-17.68,0-3.64-.15-7.28-.31-10.92-.07-1.42-.31-3-2.16-3s-2.21,1.44-2.31,2.89c-.17,2.51-.32,5-.35,7.54-.05,5.4,0,10.81,0,16.21l-.45,0c-.57-1.47-1.13-3-1.73-4.41-2.25-5.51-4.49-11-6.78-16.53-.88-2.12-1.83-4.23-2.89-6.28a2.22,2.22,0,0,0-1.61-1.08,2,2,0,0,0-1.54,1.2,26.17,26.17,0,0,0-.44,5.3c.23,8.54.54,17.07.83,25.61.06,1.72,0,3.44.2,5.15a2.17,2.17,0,0,0,2.38,2.16,2.28,2.28,0,0,0,2.27-2.31,11.86,11.86,0,0,0,0-1.79c-.11-3.17-.27-6.35-.34-9.53-.06-2.54,0-5.09,0-8C462.84,641.78,464.24,645.68,465.82,649.5Zm-169-9.82c1.58,5.65,3,11.36,4.85,16.94.94,2.88,2.44,3.08,5.18,1.19a220.61,220.61,0,0,0,2.44-34.63c0-.7-.11-1.69-.56-2a3.13,3.13,0,0,0-2.47-.59c-.56.22-1,1.38-1.07,2.16-.46,4.73-.82,9.48-1.17,14.23-.25,3.34-.43,6.68-.64,10-1.17-2.75-1.9-5.55-2.82-8.29q-2.73-8.18-5.66-16.29a8.48,8.48,0,0,0-1.71-2.14l-.87.4a18,18,0,0,0-.65,3q-.58,15.66-1.08,31.33a4.4,4.4,0,0,0,.36,2.31,2.88,2.88,0,0,0,1.92,1.33c.53,0,1.37-.79,1.61-1.41a8.15,8.15,0,0,0,.37-2.93c0-5.36-.1-10.72-.12-16.08,0-1.43.12-2.87.18-4.31A33.41,33.41,0,0,1,296.83,639.68ZM506,163c.38-6.69,4.07-10,10-11.54,1-.25,1.92-.5,2.89-.73s2.26-.48,3.39-.71c0-.16,0-.31,0-.46a16.13,16.13,0,0,1-2.51-.48c-3.16-1.12-6.37-2.14-9.41-3.53-2.28-1.05-3.42-3.13-3.74-5.72-.46-3.74-1.13-7.46-1.73-11.18-.38-2.31-.81-4.61-1.21-6.92a2.12,2.12,0,0,0-.75,1.29c-.88,5.49-1.84,11-2.57,16.48-.39,3-1.72,5.24-4.37,6.4-2.94,1.3-6.06,2.2-9.11,3.22a17.86,17.86,0,0,1-2.31.48,3.22,3.22,0,0,0,1.56.75c3.08,1,6.24,1.76,9.21,3s4.73,3.74,5.08,7.22c.41,3.94,1.22,7.84,1.86,11.76.31,1.86.63,3.73.94,5.59l.53,0C504.47,173,505.68,168,506,163ZM299.12,547.77c-3.35-1.18-6.75-2.24-10-3.68a6.28,6.28,0,0,1-3.59-5.18c-.31-2.22-.63-4.45-1-6.67-.64-4-1.32-7.9-2-11.85a1.55,1.55,0,0,0-.75,1c-.89,5.49-1.94,11-2.59,16.47a8.29,8.29,0,0,1-4.88,6.93,33.55,33.55,0,0,1-4.95,2c-2,.62-4.07,1-6.7,1.62,1.28.28,2,.36,2.67.59,3.35,1.17,6.77,2.2,10,3.63a6.21,6.21,0,0,1,3.63,4.92c.88,5.76,1.82,11.5,2.75,17.25.09.54.26,1.08.39,1.61a3.33,3.33,0,0,0,.77-1.72c.82-5,1.92-10,2.35-15.09.38-4.42,2.78-6.85,6.49-8.4a52.43,52.43,0,0,1,5.65-1.83c1.25-.35,2.53-.55,3.8-.82,0-.12,0-.23,0-.35A16.07,16.07,0,0,1,299.12,547.77ZM491,659.22a41.35,41.35,0,0,0,6.49-4.52c9.18-8,8.25-23.86-.77-30-4.94-3.35-10-3.34-15.28-1.21-.69.27-1,1.47-1.49,2.24a11.72,11.72,0,0,0,2.37,1.25,9.18,9.18,0,0,0,2.48-.07c0,.56.07.83.07,1.08-.14,9.13-.32,18.26-.41,27.39C484.44,659.46,487.49,661.28,491,659.22ZM489.48,627c2.48,0,4.13,1.35,5.64,3,6.69,7.17,3.67,20.78-5.64,24.34Zm-242.55,6.81c-.13,7.48-.15,15-.14,22.45,0,1.47.29,3.18,2.22,3.18s2.11-1.75,2.21-3.2a27.66,27.66,0,0,0,.07-5.75c-.52-3.78,1.22-6.61,3.55-9.58.29.8.48,1.36.71,1.9,2,5,4.07,10.05,6.17,15,.58,1.36,1.59,2.51,3.25,1.73s1.2-2.18.66-3.45q-3.18-7.49-6.43-15c-.68-1.57-1.43-3.1-2.15-4.67.44-.8.81-1.5,1.21-2.18,2.24-3.83,4.53-7.62,6.7-11.49a10.16,10.16,0,0,0,.64-2.74c-2.15-.81-3,.32-3.7,1.42-3.06,4.63-6.07,9.3-9.1,14-.32.5-.63,1-1,1.49a10.3,10.3,0,0,1-.27-3.14c-.07-4-.08-7.94-.35-11.89,0-.76-1.15-1.46-1.77-2.18-.63.72-1.3,1.41-1.87,2.17-.17.22-.06.65-.08,1C247.31,626.5,247,630.14,246.93,633.77ZM436,656.34c.23-.62.37-1.27.56-1.9.58-2,1.17-3.89,1.78-5.91h8c.15.71.25,1.35.43,2,.69,2.4,1.3,4.83,2.2,7.15a2.45,2.45,0,0,0,2.13,1.09,2.49,2.49,0,0,0,1.19-2.06c-1.35-11.69-4.84-22.88-8-34.15-.21-.74-1.3-1.9-1.68-1.8a3.54,3.54,0,0,0-2.2,1.82c-1.23,3.48-2.28,7-3.26,10.61s-1.8,7.15-2.67,10.63c-1.7.7-4.13.27-4.11,2.61,0,.93,1.49,1.85,2.31,2.77a2.4,2.4,0,0,1,0,1.83c-.35,1.41-.82,2.79-1.07,4.22a2.25,2.25,0,0,0,1.73,2.91C434.77,658.44,435.59,657.59,436,656.34Zm6.16-25.4.45-.05c.92,4,1.83,7.93,2.8,12.13l-5.8.32C440.53,639.06,441.37,635,442.2,630.94Zm-76.1-1.5-.28.13c0-.13,0-.26-.05-.39-.14-3.63-2.38-7-5.17-7.76s-5.35,1-7.66,4.17c-3.52,4.88-4,10.49-4,16.11s1.2,11.19,5.29,15.61c2.7,2.92,6.18,3.06,8.78.05a17.25,17.25,0,0,0,3-5.09c2.46-6.48,2.64-13.2,1.5-20A11.24,11.24,0,0,0,366.1,629.44Zm-4.56,22.24a30.08,30.08,0,0,1-2.87,4.13c-1.12-1.58-2.12-2.51-2.53-3.65a33.05,33.05,0,0,1,.57-24.18,6.69,6.69,0,0,1,.47-.87c1.73-2.91,3.24-2.94,5.06-.07.6.94,1.12,1.94,1.56,2.7,0,1.57-.1,2.93,0,4.27C364.39,640.08,364.07,646,361.54,651.68Zm-40.61-24.2c.49-1.49,1.56-3.11,3.19-2.71,1.24.3,2.28,1.77,3.2,2.89.44.56.2,1.64.6,2.26a10.16,10.16,0,0,0,2,1.78c.55-.65,1.44-1.24,1.58-2,.71-3.64-1.94-7.87-5.53-9.14-3-1-6.52.62-8.46,4a15.08,15.08,0,0,0-1,2.16,40.31,40.31,0,0,0-2.12,22.62,23,23,0,0,0,2.54,7,6.35,6.35,0,0,0,9.6,1.73c3.72-2.8,5.15-6.78,5.6-11.2a2.33,2.33,0,0,0-2.09-2.71,41.82,41.82,0,0,0-6.12-.46,2.46,2.46,0,0,0-2.7,2.58c0,1.65,1.11,2.48,2.68,2.66,1.09.13,2.21.15,3.33.22-.61,2.76-3,5.72-4.66,5.42-2.67-.49-2.95-2.94-3.39-5a37.2,37.2,0,0,1-.09-15.37A59.15,59.15,0,0,1,320.93,627.48ZM514.51,655c-2.62.35-4.23-1-4.55-3.89-.23-2.06-1.31-3.23-2.88-3.12s-2.62,1.59-2.4,3.67c.52,5,3.94,7.9,9.23,7.93a9.87,9.87,0,0,0,10-10.26,14.13,14.13,0,0,0-6.08-11.5,18,18,0,0,1-5.92-7.08c-.71-1.59,0-2.83,1-4s2.12-.88,3.28-.36a7.31,7.31,0,0,1,4.18,3.74c.27.64,1.32.94,2,1.4.31-.79,1-1.61.87-2.36-.33-2.84-2.38-4.47-4.68-5.78-3.32-1.88-5.87-1.7-8.44.48a8.45,8.45,0,0,0-2.61,9.14,18.8,18.8,0,0,0,6.72,9.15,10.33,10.33,0,0,1,4.67,7.72C519.17,652.53,517.4,654.62,514.51,655Zm-89.14,42.63c-3.16-.63-6.36-1-9.69-1.55A11.94,11.94,0,0,0,417,693a5.75,5.75,0,0,0-.47-3.62c-.9-1.32-2.53-.89-3.82-.23a15.29,15.29,0,0,0-7.88,8.54,11.16,11.16,0,0,0-.53,4.07c.18,4.61,2.84,8,5.86,11.14,2,2.11,4.06,2.62,5.42,1.66s1.6-3,.5-5.67c-.48-1.17-1.08-2.3-1.49-3.18,3.72-.5,7.34-.85,10.89-1.53,1.74-.33,4-.82,3.89-3.24C429.22,698.72,427.21,698,425.37,697.64Zm-10.92-6.47c-.87,4.56-2.73,6.3-6.83,6.12A13.67,13.67,0,0,1,414.45,691.17Zm-1,20.4c-2.64-1.78-4.34-4.32-6-7.52l3.82.91c.89,2.06,1.8,4.18,2.72,6.3Zm-6.22-10.52a30.27,30.27,0,0,1,18.66.19C419.61,702.89,413.38,703.13,407.19,701.05ZM346.07,50.57c3.16.64,6.37,1,9.76,1.56-.42.92-.91,1.84-1.26,2.82-.51,1.39-.93,2.85.45,4s2.79.68,4.09,0a15.17,15.17,0,0,0,7.33-7.77,12.22,12.22,0,0,0,.77-4.8c-.17-4.67-2.9-8.1-6-11.23-2-2-3.95-2.43-5.28-1.48s-1.56,2.92-.53,5.49c.5,1.23,1.12,2.41,1.56,3.34-3.72.51-7.32.87-10.87,1.54-1.75.33-4,.8-3.92,3.2C342.23,49.48,344.26,50.2,346.07,50.57ZM357.23,57c-.27-3.31,2.15-5.58,6.77-6.19C362.17,53.59,360.27,55.85,357.23,57Zm.88-20.33a18.75,18.75,0,0,1,5.9,7.49l-3.74-.83L357.52,37Zm6.58,10.77a37.69,37.69,0,0,1-19.33-.07C348.13,45.06,361,45.11,364.69,47.4ZM225.27,654.18a3.07,3.07,0,0,0,4-.65,41.38,41.38,0,0,0,5.59-6.84c4.91-8.18-1.59-15.92-7.58-18.2a3.46,3.46,0,0,0-3,.52,3.77,3.77,0,0,0-.65,3,18.44,18.44,0,0,0,1.45,3.77c-2.79.34-5.5.5-8.13,1.05a13,13,0,0,0-4.65,2c-1.48,1-1.29,2.84.27,3.78A9.86,9.86,0,0,0,216,644c3.37.53,6.76.85,10.14,1.26-.6,1.48-1.41,3.13-1.94,4.86C223.75,651.58,223.72,653.19,225.27,654.18Zm1.31-2.92,2.89-6.72,3.29-.78C232.54,646,229.46,650,226.58,651.26Zm-.05-20.39c2.95,1.12,4.94,3.28,6.67,6.28l-4.39-.89-2.9-4.94Zm-11.94,10.4c2.55-2.49,14.92-2.77,19.48-.43C227.32,642.71,221.11,642.41,214.59,641.27ZM357.3,688.92a3.52,3.52,0,0,0-3.07.48,3.85,3.85,0,0,0-.66,3A16.7,16.7,0,0,0,355,696c-3.52.61-7,1.1-10.38,1.84-1.55.34-3.13,1.18-3.22,3.07s1.67,2.47,3.15,3a7.63,7.63,0,0,0,1.72.49c3.27.4,6.55.77,9.91,1.16-.63,1.55-1.44,3.21-2,5-.43,1.42-.44,2.95,1,3.95a3,3,0,0,0,4-.54,40.64,40.64,0,0,0,5.64-6.82C369.76,699,363.33,691.26,357.3,688.92Zm0,22.63-.58-.4c.92-2.07,1.83-4.15,2.74-6.21l3.77-.85C361.65,707.25,359.93,709.76,357.31,711.55Zm-12.9-10c3.5-2.46,15.87-2.59,19.44-.28C357.31,703.11,351.09,702.9,344.41,701.58Zm14.36-4.89-2.89-5,.62-.44c3,1.08,4.93,3.28,6.7,6.25Zm-179.69-351c8.12,5,15.69-.94,18.37-7.16a3.89,3.89,0,0,0-.5-3.4c-.56-.64-2.15-.66-3.22-.49a15.47,15.47,0,0,0-3.35,1.3c-.55-3.4-1-6.67-1.63-9.88-.37-1.75-1.13-3.65-3.29-3.71s-2.77,1.94-3.08,3.57c-.7,3.68-1.13,7.41-1.68,11.16a49.79,49.79,0,0,0-4.65-1.89c-1.47-.45-3.1-.56-4.14,1a3.12,3.12,0,0,0,.65,4.16A39.76,39.76,0,0,0,179.08,345.71Zm16.1-8.48c-1,3.29-3.36,5.1-6.11,7C189,339.42,191.66,337.88,195.18,337.23Zm-10.35-11.64c2.45,2.71,2.69,15.12.35,19.43A41.51,41.51,0,0,1,184.83,325.59Zm-9.54,12.15,6.22,2.73.85,3.75a18.34,18.34,0,0,1-7.46-5.89Zm7,68.73c.33,1.74.83,4,3.25,3.86,2.22-.11,2.92-2.13,3.28-4,.63-3.15,1-6.35,1.55-9.68a12.3,12.3,0,0,0,3.06,1.26,5.72,5.72,0,0,0,3.63-.44c1.32-.89.91-2.5.26-3.8a15.15,15.15,0,0,0-8.49-7.89,11.09,11.09,0,0,0-4.26-.53c-4.74.23-8.17,3-11.35,6.18a7.13,7.13,0,0,0-1.48,2.32c-.89,2.12.33,4.06,2.62,3.87a22.74,22.74,0,0,0,4.88-1.4,9.19,9.19,0,0,0,1.49-.77C181.24,399.22,181.61,402.87,182.29,406.47Zm12.87-11.27-.43.62L189.78,393c-.34-1.71-.58-2.92-.89-4.46C191.87,390.28,194.07,392.23,195.16,395.2Zm-9.77-7a30.28,30.28,0,0,1-.15,18.64A31.75,31.75,0,0,1,185.39,388.21ZM175.24,395l-.38-.62a19.4,19.4,0,0,1,7.51-5.88c-.33,1.47-.57,2.48-.85,3.75ZM545.92,642.5a78.33,78.33,0,0,0,10-2c2.43-.75,2.56-3.16.39-4.52a12.86,12.86,0,0,0-4.41-1.62c-2.56-.47-5.18-.66-7.89-1,.47-1.13,1-2.19,1.38-3.28.47-1.29.82-2.86-.55-3.58a5,5,0,0,0-3.66-.22c-4.51,1.64-8.83,7.39-8.66,11.65.25,6.06,3.34,10.63,8.37,13.77,2.2,1.38,4.41-.15,4.12-2.76a23.77,23.77,0,0,0-1.55-4.85,15.8,15.8,0,0,0-.79-1.63A21.3,21.3,0,0,0,545.92,642.5Zm-3-14.15c-1.22,4.68-2.63,6.15-6.94,6.21A13.1,13.1,0,0,1,543,628.35Zm-1.2,20.4c-2.6-1.74-4.26-4.28-5.92-7.46l3.75.83c.9,2,1.83,4.14,2.77,6.26ZM535.18,638a37.73,37.73,0,0,1,19.34,0C551.88,640.34,539,640.32,535.18,638Zm54.27-306.19a31.32,31.32,0,0,0-1-5.44c-.49-1.73-.79-3.81-3.17-4.06-1.47-.15-2.87,1.36-3.44,4-.66,3.14-1,6.35-1.52,9.63a12.13,12.13,0,0,0-3.12-1.25c-1.19-.15-2.9-.19-3.55.5a3.91,3.91,0,0,0-.3,3.57c2.36,4.82,6,8.56,11.61,8.65,6,.09,10.52-3.3,13.83-8.23a2.34,2.34,0,0,0,.3-.73,2.54,2.54,0,0,0-2.42-3.47,12.74,12.74,0,0,0-3.83.78,31.11,31.11,0,0,0-3.39,1.59C589.48,335.39,589.61,333.6,589.45,331.84Zm-7.85,12c-2.82-1.16-5.39-4-5.91-6.51A5.93,5.93,0,0,1,581.6,343.88Zm3.73.62a30.32,30.32,0,0,1,.11-18.63A31.8,31.8,0,0,1,585.33,344.5Zm10.33-6.88c-.63,2.44-4.31,5.5-7.25,6.27l.76-3.41ZM413.92,59.19a3.88,3.88,0,0,0,3.4-.46c.65-.55.69-2.15.53-3.21a15.31,15.31,0,0,0-1.32-3.4c3.34-.52,6.55-.91,9.71-1.56,1.82-.37,3.84-1.09,3.88-3.36s-2.08-2.8-3.78-3.12c-3.61-.68-7.28-1.08-10.94-1.59.6-1.46,1.4-3.06,1.91-4.75.45-1.49.5-3.11-1.05-4.11a3,3,0,0,0-4,.64,40.49,40.49,0,0,0-5.32,6.32C401.71,48.79,407.65,56.49,413.92,59.19ZM414.77,37,412,43.25l-3.4.8C409.23,41.49,412,38,414.77,37Zm11.87,9.9a29.86,29.86,0,0,1-18.62.26C414.21,45.06,420.42,45.4,426.64,46.92ZM415.27,57.05A13.63,13.63,0,0,1,408.43,51C412.39,50.73,414.31,52.34,415.27,57.05ZM598.14,392.41a40.85,40.85,0,0,0-7-5.66c-8.12-4.75-15.85,1.92-18,7.76a3.54,3.54,0,0,0,.58,3,4,4,0,0,0,3,.57,18.78,18.78,0,0,0,3.71-1.44c.34,2.85.51,5.57,1,8.21a12.62,12.62,0,0,0,1.89,4.49c1.07,1.57,2.94,1.4,3.91-.24a10.12,10.12,0,0,0,1.34-3.49c.52-3.35.83-6.74,1.22-10.08a50.75,50.75,0,0,0,4.76,1.93c1.47.46,3.09.56,4.14-.94A3,3,0,0,0,598.14,392.41ZM580.9,393,575.63,396c.48-3.06,2.9-5.79,6.16-7.35C581.48,390.18,581.23,391.4,580.9,393Zm4.63,13.9a29.88,29.88,0,0,1-.24-18.65C587.4,394.38,587.05,400.61,585.53,406.86Zm10-11.89-6.34-2.72c-.31-1.35-.52-2.31-.86-3.77,3.17,1.56,5.69,3.29,7.49,5.94ZM191.59,58c-1.41.6-3.16,1.22-4.78,2.08-1.41.73-2.48,1.89-2.06,3.68A3,3,0,0,0,188.08,66a44.09,44.09,0,0,0,9-1.08c8.92-2.38,9.78-12.44,7.07-18.26-1.15-2.48-3.69-2.5-5.06-.11a29.47,29.47,0,0,0-1.6,3.79c-2.69-1.94-5.36-4-8.17-5.81-1.5-1-3.41-1.76-4.95-.3s-.53,3.45.46,4.86C186.94,52.18,189.33,55.06,191.59,58Zm-3.25,5.47c-.09-.35-.19-.7-.29-1.05l6.43-2.69,3,1.86c0,.21,0,.42.05.63ZM201.82,47.7c1.49,3,1.28,6,.66,9.08A5.92,5.92,0,0,1,201.82,47.7Zm-1.53,12.63a40.52,40.52,0,0,1-14.2-13.47C189.94,47.19,199.08,55.83,200.29,60.33ZM586.55,698.77c-2.18-2.88-4.45-5.7-6.68-8.53,1.4-.59,3.15-1.21,4.77-2.06,1.41-.73,2.5-1.86,2.12-3.66a3,3,0,0,0-3.3-2.33,43.38,43.38,0,0,0-9,1.06c-8.94,2.38-9.82,12.37-7.14,18.24,1.15,2.5,3.69,2.55,5.07.18a33,33,0,0,0,1.69-4,68.29,68.29,0,0,0,5.36,4.31,17.8,17.8,0,0,0,5.29,2.54c2.41.59,3.66-1,2.88-3.4A8,8,0,0,0,586.55,698.77Zm-3.34-13.58c.07.21.15.42.23.63L577,688.51,574.55,687c-.16-.1-.3-.24-.73-.58A18.72,18.72,0,0,1,583.21,685.19Zm-13.4,15.18c-1.38-2-1.58-4.19-.79-8.93A5.87,5.87,0,0,1,569.81,700.37Zm1.54-12c5.95,2.85,10.28,7.41,13.6,13A30,30,0,0,1,571.35,688.37ZM579.7,66a16.86,16.86,0,0,0,5.49-.25,3.34,3.34,0,0,0,2.24-2.08,4.59,4.59,0,0,0-1.22-3,6.64,6.64,0,0,0-2.53-1.49c-1.09-.48-2.25-.82-3.11-1.12a36.43,36.43,0,0,0,2.6-3,64.79,64.79,0,0,0,5.13-7.7c1.24-2.4-.26-4.05-2.95-3.58a7.06,7.06,0,0,0-2.74,1.06c-2.64,1.82-5.2,3.76-7.8,5.66a15.41,15.41,0,0,0-1.42-3.5c-.61-.88-1.8-2-2.64-1.9A3.92,3.92,0,0,0,568,47.1a14.23,14.23,0,0,0,.54,12.8C571,64.21,575.22,65.46,579.7,66Zm4.5-3.71c-.05.24-.09.47-.14.7-3.17.61-6.21-.11-9.62-1.17l3.3-2.11Zm1.55-15.48a32.23,32.23,0,0,1-13.58,13A29.87,29.87,0,0,1,585.75,46.82Zm-15.26.86c2.56,3,2.32,6-.64,9.27C569.19,53.76,569,50.73,570.49,47.68ZM191.76,682.21a16.74,16.74,0,0,0-5.86.35c-2.32.59-2.78,3-1.06,4.65a8.82,8.82,0,0,0,2.44,1.65c1.26.58,2.61,1,4.08,1.5a11.41,11.41,0,0,0-1.51,1.35c-2.25,3-4.56,5.94-6.6,9.07a3.3,3.3,0,0,0,.26,3,3.15,3.15,0,0,0,2.83.61,18.43,18.43,0,0,0,4.74-2.36c1.94-1.33,3.69-2.92,5.56-4.43a16.36,16.36,0,0,0,1.48,3.68c.6.87,1.81,1.94,2.65,1.87a3.93,3.93,0,0,0,2.71-2.1,14.23,14.23,0,0,0-.67-13C200.37,683.94,196.17,682.72,191.76,682.21Zm-4.52,3.71c1.53-1.38,5.56-1.09,9.7.56l-3.18,2Zm-1.49,15.48a32.27,32.27,0,0,1,13.56-13A29.75,29.75,0,0,1,185.75,701.4Zm15.32-.94c-2.54-2.34-2.37-5.6.56-9.34C202.29,694.46,202.54,697.47,201.07,700.46Zm176.46-45.21c0-4.42,0-8.83,0-13.42,1.61,0,2.93.1,4.22,0,1.55-.15,2.72-1,2.58-2.68s-1.49-2.17-3-2.11l-3.83.21c-.21-4-.42-7.81-.63-11.81,2,0,3.62.13,5.24,0s3.31-.65,5-1v-2.14c-3.12-1.71-9.13-1.77-14.16-.06a22.91,22.91,0,0,0-.54,3.57c-.05,9.6,0,19.21,0,28.81a11.81,11.81,0,0,0,.29,2.36,2.1,2.1,0,0,0,2.45,1.79C377,658.62,377.55,657.79,377.53,655.25Zm-90.12-34c-.64-2.2-2.42-2.3-4-2.31-3.37,0-6.76.07-10.12.33-.76.06-1.46,1-2.19,1.54.66.69,1.2,1.66,2,2a12.44,12.44,0,0,0,3.37.55c-.43,10.69-.86,21.23-1.28,31.86-.94.11-1.8.15-2.63.3-1.19.23-2.47.52-2.47,2.08s1.21,2.06,2.44,2.07c3.43,0,6.86,0,10.28-.26a2.52,2.52,0,0,0,1.74-1.73,2.74,2.74,0,0,0-1.39-2.07,12.79,12.79,0,0,0-3.31-.75V623.69C282.54,622.86,285.82,624.68,287.41,621.3Zm90.7-564.07a3.19,3.19,0,0,0,2.44.65c.4-.08.83-1.39.76-2.09-.35-3.36,1.23-5.95,4.65-7.21q5.69,1.76,4.92,7.33c-.18,1.28.19,2.21,1.53,2.18a3.48,3.48,0,0,0,2-1.06,11.22,11.22,0,0,0,.48-15.3,11.37,11.37,0,0,0-16-1.44C373.55,44.58,373.14,53,378.11,57.23ZM381.6,42.9c2.87-2.1,6-2.08,9,0,2.77,1.94,3.77,4.66,2.82,8.22-1.56-3.17-3.61-5.85-7.16-5.8s-5.9,2.35-7.37,5.91A7.21,7.21,0,0,1,381.6,42.9Zm195,328.26a2.37,2.37,0,0,0-2,.73c-.28.52.07,1.45.29,2.16.1.34.5.59.79.87a11.31,11.31,0,0,0,13.09,1.57,11.43,11.43,0,0,0,5.8-12.21,11.55,11.55,0,0,0-10-9.37A10.54,10.54,0,0,0,575,358.6a2.65,2.65,0,0,0-.34,2.3c.17.43,1.32.71,2,.64,3.38-.37,5.93,1.17,7.23,4.6C582.75,369.94,580.28,371.54,576.57,371.16Zm4.95-12.06a6.85,6.85,0,0,1,7.86,2.46c2.29,2.92,2.32,6.2.1,9.33a6.72,6.72,0,0,1-7.92,2.78C589.88,369.17,588,362.36,581.52,359.1ZM393.29,690.9a3.1,3.1,0,0,0-2.46-.51c-.39.11-.69,1.43-.61,2.15.37,3.38-1.44,6-5.11,7.1-3.53-1.38-4.85-3.66-4.52-7.45a2.24,2.24,0,0,0-.72-1.83,2.09,2.09,0,0,0-2,.16,13.36,13.36,0,0,0-2.86,3.48,11.27,11.27,0,0,0,6.16,15.7,11.43,11.43,0,0,0,15.14-7.2C397.66,698.38,396.41,693.37,393.29,690.9Zm-2.87,13.91c-3.14,2.49-6.31,2.74-9.32.72a7.18,7.18,0,0,1-3-8.55c1.37,3.47,3.76,5.78,7.19,5.88,3.61.11,5.77-2.51,7.22-5.71A6.51,6.51,0,0,1,390.42,704.81ZM194.28,361.6a2.21,2.21,0,0,0,1.82-.73,2.6,2.6,0,0,0-.16-2,4.36,4.36,0,0,0-1.33-1.45,10.89,10.89,0,0,0-11.92-1.55,11.12,11.12,0,0,0-6.8,10.59c0,4.82,2.56,8.41,7,10.45s9.94.83,12.7-2.63a3.12,3.12,0,0,0,.5-2.45c-.11-.4-1.43-.69-2.15-.61-3.38.36-6-1.46-7.09-5.13C188.21,362.58,190.48,361.28,194.28,361.6Zm-5.13,12a6.63,6.63,0,0,1-7.79-2.58c-2.32-3.14-2.37-6.37-.17-9.34a6.9,6.9,0,0,1,8-2.65C182.06,362.84,181.4,369.56,189.15,373.65Zm330,93.72a6.35,6.35,0,0,1-4.48-5.89c-.27-3.44-1.06-6.83-1.62-10.24h-.4a10.79,10.79,0,0,0-.36,1.23c-.5,3-1.2,6-1.41,9-.26,3.8-2.65,5.39-5.79,6.4-1.4.46-2.84.77-4.67,1.25,2.25.68,4.09,1.13,5.85,1.8,2.48.94,4.27,2.45,4.51,5.43.22,2.69.79,5.36,1.22,8,.15.92.37,1.82.56,2.73l.52-.06c.57-3.57,1.27-7.12,1.67-10.71a5.69,5.69,0,0,1,3.46-4.91,40.28,40.28,0,0,1,4.28-1.52c.74-.24,1.5-.44,2.57-.75C522.8,468.48,520.93,468,519.15,467.37ZM317.9,152.18c-.47-2.69-.86-5.4-1.29-8.11l-.58.06c-.58,3.65-1.28,7.28-1.69,11a5.65,5.65,0,0,1-3.71,4.94c-2,.82-4.07,1.41-6.38,2.19,1.8.52,3.45.88,5,1.45,2.91,1.05,4.92,2.75,5.18,6.25s1,6.82,1.59,10.24a2.17,2.17,0,0,0,.81-1.43c.43-2.68.84-5.36,1.26-8,.76-4.85,2.27-6.46,7.16-7.64l3-.71a1.87,1.87,0,0,0-1.13-.62C320.11,160.16,319.15,159.19,317.9,152.18Zm129.74,408q-.52-3-1-6l-.52,0a51.47,51.47,0,0,0-.88,5.61c-.17,3.31-1.76,5.27-5,6-.7.15-1.38.33-2.08.5.08.14.12.29.21.35a1.43,1.43,0,0,0,.53.25c4.33.63,6.48,3,6.43,7.5a22.36,22.36,0,0,0,.86,4.49,10.77,10.77,0,0,0,1-3.3,30.15,30.15,0,0,0,.51-3.52c.11-2.41,1.48-3.71,3.61-4.42l3.28-1.1a1.73,1.73,0,0,0-1-.46C449.66,565.4,448.34,564.1,447.64,560.18ZM257,446.45a43.14,43.14,0,0,0-1.08-6.31,18.88,18.88,0,0,0-1.41,6c-.18,3.45-2.19,5-5.22,5.79-.55.14-1.1.24-1.68.36.11.24.13.4.22.45a1.35,1.35,0,0,0,.55.2c4.35.57,6.22,3.14,6.32,7.41a27.89,27.89,0,0,0,.86,4.63,26.93,26.93,0,0,0,1.51-6.88c.15-2.47,1.52-3.68,3.57-4.45,1-.38,2.05-.66,3.58-1.16-1.28-.38-2-.61-2.73-.81C258.83,450.92,257.1,449.55,257,446.45ZM528.56,215.87l-2.59-.74c-2.63-.74-4.44-2-4.51-5.17a41.85,41.85,0,0,0-1.07-6.33A17.73,17.73,0,0,0,519,209c-.44,4.1-1.46,5.37-5.42,6.47-.47.13-1,.22-1.43.33a7.46,7.46,0,0,0,2.51,1.16c2.19.73,3.87,1.8,4.08,4.48.18,2.32.74,4.6,1.14,6.9h.49c.23-1.39.53-2.78.68-4.19.59-5.46,1.23-6.29,5.87-7.56A13.87,13.87,0,0,0,528.56,215.87ZM446.41,329.19c-.37-2-.7-3.95-1.05-5.93l-.48-.05c-.3,1.83-.75,3.64-.88,5.48-.22,3.19-1.5,5.4-4.82,6.08-.74.15-1.47.4-2.64.72,1.46.49,2.56.83,3.65,1.22,1.9.7,3.29,1.71,3.49,4s.78,4.76,1.19,7.14l.54,0c.21-1.41.48-2.82.64-4.24.58-5.25,1.28-6.19,5.58-7.42.54-.16,1.05-.38,2-.74-.71-.19-.93-.26-1.16-.3C448.3,334.37,447.17,333.28,446.41,329.19ZM182.68,439.13a1.74,1.74,0,0,0,2.21-1.84c.07-1.51-.92-3-2.15-2.68-.87.2-1.59,1.08-3,2.1C181.09,437.86,181.78,438.9,182.68,439.13Zm405.43-4.56c-1.52-.05-2.17,1-2.29,2.39s.67,2.32,1.89,2.18c.92-.11,1.75-1,2.62-1.59C590,435.72,589.59,434.63,588.11,434.57ZM181.71,425a3.52,3.52,0,0,0-.74,2.73c.37,1.56,1.76,1.49,3.26,1.12a2.5,2.5,0,0,0-.14-3.59A2.53,2.53,0,0,0,181.71,425Zm3.17-112a2.43,2.43,0,0,0,.08-3.6c-1.43-.36-2.82-.43-3.2,1.12a3.53,3.53,0,0,0,.74,2.74A2.5,2.5,0,0,0,184.88,313Zm402.56,0c.63.53,1.88.33,2.9.46.77-3.76-.21-4.74-3.14-3.95A2.38,2.38,0,0,0,587.44,313Zm2.27,112.45c-.89-.93-2-1.36-3-.32a2.49,2.49,0,0,0-.2,3.65C589.41,429.41,590.25,428.55,589.71,425.48Zm-405,21a2.74,2.74,0,0,0-2.07-1.53,2.77,2.77,0,0,0-1.92,1.71c-.42,1.46.57,2.28,2.06,2.57C184.4,448.84,185.26,447.89,184.76,446.49ZM587.91,445a2.74,2.74,0,0,0-2,1.63c-.46,1.44.49,2.31,2,2.65,1.54-.36,2.48-1.23,2-2.67A2.72,2.72,0,0,0,587.91,445Zm-256,257.69a1.9,1.9,0,0,0-1.95,2.23c.06,1.27.76,2.26,2.14,2a8.25,8.25,0,0,0,2.33-1.41C333.92,703.66,333.44,702.6,331.92,702.65Zm.92-657.08a2,2,0,0,0,2-2.4c-.12-.8-1-1.47-1.33-1.86-2.14,0-2.74.9-2.74,2.15A1.89,1.89,0,0,0,332.84,45.57Zm106.57-.08c1.27.38,2.08-.69,2.11-2S441,41.35,439.1,41c-.58.78-1.68,1.61-1.59,2.3A3.22,3.22,0,0,0,439.41,45.49Zm-.73,657.15a2,2,0,0,0-2,2.38c.11.8,1,1.48,1.3,1.87,2.15,0,2.75-.86,2.77-2.1A1.9,1.9,0,0,0,438.68,702.64ZM222.57,45.8l1,0c.56-.81,1.57-1.64,1.54-2.43a2.91,2.91,0,0,0-1.93-1.93,1.69,1.69,0,0,0-2,2C221.2,44.3,222.05,45,222.57,45.8ZM585.93,635.86a2.93,2.93,0,0,0,1.92,1.91c.78.05,1.62-.93,2.44-1.46v-1c-.81-.55-1.56-1.46-2.43-1.57A1.69,1.69,0,0,0,585.93,635.86Zm2.68-525.41a2.93,2.93,0,0,0-1.89,1.94,1.69,1.69,0,0,0,2,2c.86-.12,1.6-1,2.4-1.61,0-.32,0-.64,0-1C590.25,111.35,589.39,110.38,588.61,110.45ZM252.32,45.79l1,0c.58-.8,1.62-1.6,1.6-2.39s-1.09-1.78-1.88-2a1.69,1.69,0,0,0-2.1,2C251,44.25,251.82,45,252.32,45.79Zm10.13,0,1,0c.51-.84,1.46-1.7,1.4-2.49a2.87,2.87,0,0,0-2-1.85,1.66,1.66,0,0,0-2,2C261,44.31,261.89,45,262.45,45.83Zm9.72,0,1,0c.59-.78,1.62-1.56,1.63-2.35a2.91,2.91,0,0,0-1.8-2,1.69,1.69,0,0,0-2.19,1.82C270.83,44.14,271.68,45,272.17,45.79Zm10,0,.95,0c.57-.81,1.6-1.63,1.57-2.41s-1.11-1.77-1.89-2a1.68,1.68,0,0,0-2.08,2C280.81,44.27,281.65,45,282.16,45.8Zm-96.6,66.62a2.9,2.9,0,0,0-1.86-2c-.77-.08-1.65.88-2.48,1.38l0,1c.78.57,1.51,1.51,2.37,1.65A1.69,1.69,0,0,0,185.56,112.42Zm116.61-66.6h.9c.54-.77,1.43-1.5,1.54-2.32a1.8,1.8,0,0,0-2-2.11c-1.36,0-2.22.91-2,2.17C300.73,44.38,301.62,45.07,302.17,45.82ZM182.79,643.71c-.86.13-1.6,1-2.39,1.62,0,.32,0,.64,0,1,.83.52,1.69,1.48,2.47,1.42a2.92,2.92,0,0,0,1.88-2A1.68,1.68,0,0,0,182.79,643.71Zm-.42,9.53c-.54.81-1.53,1.64-1.51,2.43a2.85,2.85,0,0,0,1.8,2,1.68,1.68,0,0,0,2.12-1.9c-.12-.89-1-1.68-1.48-2.51Zm405.48,10.34a1.69,1.69,0,0,0-1.92,2.11,2.91,2.91,0,0,0,1.94,1.88c.78,0,1.62-.94,2.43-1.48,0-.32,0-.64,0-1C589.48,664.58,588.72,663.69,587.85,663.58ZM183.7,104.51a1.69,1.69,0,0,0,1.86-2.17,2.91,2.91,0,0,0-2-1.83c-.78,0-1.58,1-2.37,1.57,0,.32,0,.64,0,1C182,103.56,182.84,104.43,183.7,104.51Zm403,196.59a1.69,1.69,0,0,0,1.87,2.15c.86-.08,1.65-1,2.48-1.48,0-.32,0-.65,0-1-.8-.56-1.61-1.56-2.38-1.54A2.91,2.91,0,0,0,586.73,301.1Zm-403.19,2.14a1.69,1.69,0,0,0,2-2c-.15-.87-1-1.62-1.59-2.43l-.92,0c-.52.83-1.47,1.69-1.41,2.48A2.84,2.84,0,0,0,183.54,303.24ZM586.73,92.49a1.68,1.68,0,0,0,1.94,2.08c.86-.11,1.62-1,2.42-1.57V92c-.82-.54-1.67-1.52-2.44-1.47A2.9,2.9,0,0,0,586.73,92.49Zm2,196.83a2.9,2.9,0,0,0-2,1.83,1.69,1.69,0,0,0,1.86,2.16c.86-.08,1.66-.95,2.48-1.47l0-1C590.31,290.31,589.5,289.3,588.72,289.32ZM183.56,243.63a1.68,1.68,0,0,0,2-2,2.88,2.88,0,0,0-1.86-2c-.77-.08-1.65.87-2.48,1.38l0,1C182,242.56,182.71,243.49,183.56,243.63Zm-.08-149.07a1.68,1.68,0,0,0,2.09-1.93c-.11-.88-1-1.66-1.5-2.48l-.92,0c-.54.81-1.52,1.64-1.49,2.43A2.82,2.82,0,0,0,183.48,94.56Zm403.25-12a1.68,1.68,0,0,0,1.92,2.1c.86-.1,1.63-1,2.44-1.54v-1c-.81-.54-1.64-1.53-2.42-1.49A2.88,2.88,0,0,0,586.73,82.53ZM183.58,84.62a1.69,1.69,0,0,0,2-2c-.16-.87-1.06-1.61-1.63-2.4l-.93,0c-.49.84-1.43,1.72-1.36,2.5A2.86,2.86,0,0,0,183.58,84.62ZM538.81,45.81h.9c.55-.76,1.42-1.46,1.56-2.29.22-1.27-.66-2.12-2-2.15a1.8,1.8,0,0,0-2,2.13C537.36,44.34,538.26,45.05,538.81,45.81Zm49.92,223.63a2.91,2.91,0,0,0-2,1.83,1.69,1.69,0,0,0,1.85,2.17c.86-.07,1.66-.94,2.49-1.45l0-1C590.31,270.45,589.51,269.43,588.73,269.44Zm-403.15,1.94c-.17-.87-1.07-1.6-1.65-2.39l-.92,0c-.49.84-1.42,1.73-1.35,2.51a2.86,2.86,0,0,0,1.93,1.89A1.69,1.69,0,0,0,185.58,271.38ZM508.93,45.8l.93,0c.56-.81,1.58-1.64,1.54-2.42s-1.12-1.75-1.91-1.95a1.69,1.69,0,0,0-2.07,2C507.53,44.28,508.4,45,508.93,45.8Zm-8.84,0c.5-.82,1.35-1.62,1.43-2.49a1.68,1.68,0,0,0-2.16-1.84,2.87,2.87,0,0,0-1.82,2c0,.78,1,1.58,1.58,2.37Zm-10,0c.54-.81,1.43-1.57,1.54-2.44a1.67,1.67,0,0,0-2.08-1.92,2.89,2.89,0,0,0-1.9,1.92c0,.78.95,1.62,1.49,2.43ZM185.57,261.43a2.91,2.91,0,0,0-1.91-1.92c-.78-.06-1.63.92-2.46,1.44,0,.32,0,.64,0,1,.8.56,1.55,1.47,2.42,1.59A1.69,1.69,0,0,0,185.57,261.43ZM480.12,45.81c.53-.77,1.4-1.48,1.53-2.31a1.69,1.69,0,0,0-2-2c-.8.17-1.92,1.2-2,1.9s1,1.63,1.5,2.46Zm-20.87,0,.89,0c.57-.74,1.47-1.42,1.63-2.25.25-1.26-.6-2.13-1.95-2.2a1.81,1.81,0,0,0-2.08,2.08C457.84,44.29,458.72,45,459.25,45.8Zm129.4,207.76c.86-.1,1.63-1,2.44-1.54v-1c-.81-.53-1.65-1.52-2.42-1.48a2.9,2.9,0,0,0-1.94,1.89A1.68,1.68,0,0,0,588.65,253.56Zm-405.08-4c-.77,0-1.58,1-2.38,1.55l0,1c.83.52,1.62,1.4,2.48,1.47a1.69,1.69,0,0,0,1.87-2.15A2.89,2.89,0,0,0,183.57,249.57ZM449.24,45.78l.94,0c.58-.79,1.61-1.59,1.6-2.37a2.94,2.94,0,0,0-1.86-2,1.67,1.67,0,0,0-2.11,1.94C447.89,44.23,448.74,45,449.24,45.78ZM221.8,702.41c-.53.77-1.39,1.49-1.51,2.32a1.69,1.69,0,0,0,2,2,2.91,2.91,0,0,0,1.94-1.92c0-.78-1-1.62-1.51-2.44ZM588.62,243.63c.86-.09,1.64-1,2.46-1.51v-1c-.8-.55-1.62-1.56-2.39-1.52a2.9,2.9,0,0,0-2,1.85A1.69,1.69,0,0,0,588.62,243.63ZM230.18,704.76c0,1.31.82,2.24,2.12,2,.85-.15,1.57-1,2.34-1.54v-.86c-.76-.55-1.46-1.4-2.31-1.58C231,702.52,230.19,703.43,230.18,704.76Zm31.27-2.33c-.5.83-1.35,1.64-1.41,2.51a1.69,1.69,0,0,0,2.19,1.82,2.92,2.92,0,0,0,1.79-2c0-.79-1-1.57-1.61-2.35Zm8.54,2.24a1.67,1.67,0,0,0,1.91,2.1c.88-.12,1.66-1,2.48-1.49l0-.91c-.81-.55-1.63-1.53-2.43-1.51A2.82,2.82,0,0,0,270,704.67Zm19.88,0a1.67,1.67,0,0,0,1.86,2.14c.88-.1,1.68-.93,2.51-1.43l0-.92c-.8-.56-1.6-1.57-2.39-1.56A2.83,2.83,0,0,0,289.87,704.63Zm12.46-2.21-.89,0c-.58.74-1.48,1.41-1.65,2.24-.26,1.26.59,2.13,1.93,2.21a1.8,1.8,0,0,0,2.1-2.05C303.72,704,302.86,703.2,302.33,702.42Zm9.9,0-.89,0c-.57.75-1.46,1.43-1.62,2.26-.24,1.27.63,2.13,2,2.18a1.8,1.8,0,0,0,2.07-2.09C313.65,703.91,312.77,703.18,312.23,702.41ZM588.49,223.75c.87,0,1.71-.87,2.56-1.35l.06-1c-.76-.6-1.52-1.66-2.29-1.68a2.94,2.94,0,0,0-2.09,1.74A1.7,1.7,0,0,0,588.49,223.75Zm-404.9,0a1.69,1.69,0,0,0,2-2.05,2.91,2.91,0,0,0-1.89-1.94c-.78-.07-1.64.9-2.47,1.41,0,.32,0,.64,0,1C182,222.7,182.73,223.62,183.59,223.75ZM447,704.75a2.86,2.86,0,0,0,1.9,2c.79.06,1.67-.91,2.51-1.43,0-.31,0-.62,0-.92-.77-.54-1.47-1.39-2.31-1.56A1.7,1.7,0,0,0,447,704.75Zm12.35-2.36-.95,0c-.52.83-1.48,1.69-1.42,2.47a2.9,2.9,0,0,0,1.95,1.87,1.67,1.67,0,0,0,2-2C460.84,703.92,459.93,703.18,459.37,702.39ZM587.84,454.9a1.69,1.69,0,0,0-1.91,2.12,2.9,2.9,0,0,0,2,1.87c.77,0,1.6-.95,2.41-1.5v-1C589.47,455.89,588.7,455,587.84,454.9Zm-405.59,9.56c-.5.84-1.44,1.71-1.38,2.5a2.84,2.84,0,0,0,1.9,1.91,1.66,1.66,0,0,0,2-2c-.16-.88-1.05-1.63-1.61-2.43Zm405.61,4.37c.78.05,1.62-.93,2.43-1.47,0-.32,0-.64,0-1-.81-.55-1.58-1.45-2.44-1.56a1.69,1.69,0,0,0-1.93,2.1A2.91,2.91,0,0,0,587.86,468.83Zm-407.44,8.53c.83.51,1.69,1.48,2.47,1.41a2.89,2.89,0,0,0,1.88-1.95,1.68,1.68,0,0,0-2-2c-.86.12-1.6,1.05-2.39,1.61Zm407.38-2.58a1.69,1.69,0,0,0-1.87,2.15,2.91,2.91,0,0,0,2,1.84c.78,0,1.59-1,2.38-1.55l0-1C589.46,475.74,588.67,474.85,587.8,474.78Zm-404.9,9.94c-.86.07-1.65.95-2.48,1.47l0,1c.8.56,1.61,1.57,2.39,1.55a2.92,2.92,0,0,0,2-1.83A1.69,1.69,0,0,0,182.9,484.72Zm303.87,220a2.85,2.85,0,0,0,1.85,2c.8.08,1.69-.88,2.54-1.39l0-.91c-.75-.56-1.43-1.42-2.26-1.61A1.7,1.7,0,0,0,486.77,704.71Zm-302-207.94c-.13-.89-1-1.67-1.51-2.5l-.92,0c-.54.82-1.52,1.65-1.49,2.44a2.86,2.86,0,0,0,1.83,2A1.67,1.67,0,0,0,184.78,496.77Zm314,206a1.69,1.69,0,0,0-2.05,2,2.85,2.85,0,0,0,2,1.9c.8,0,1.64-1,2.46-1.51,0-.3,0-.61,0-.91C500.33,703.77,499.6,702.94,498.76,702.8Zm10.42-.39h-1c-.56.8-1.56,1.61-1.53,2.4a2.89,2.89,0,0,0,1.85,2,1.68,1.68,0,0,0,2.12-1.89C510.57,704,509.7,703.23,509.18,702.41ZM587.9,504.59a1.69,1.69,0,0,0-2,2.06,2.91,2.91,0,0,0,1.9,1.93c.78.06,1.63-.91,2.46-1.43v-1C589.5,505.62,588.76,504.71,587.9,504.59ZM529,702.4h-1c-.54.81-1.53,1.64-1.49,2.43s1.1,1.73,1.89,1.92a1.67,1.67,0,0,0,2.08-1.92C530.42,704,529.54,703.21,529,702.4Zm59.74-488.58c.85-.15,1.58-1.08,2.36-1.66l0-1c-.84-.5-1.72-1.45-2.49-1.38a2.92,2.92,0,0,0-1.85,2A1.69,1.69,0,0,0,588.74,213.82ZM182.58,518.55a1.77,1.77,0,0,0,2.26-1.81,1.84,1.84,0,0,0-1.91-2.22c-.83,0-1.63.82-2.45,1.27,0,.3-.07.6-.11.9C181.1,517.34,181.74,518.32,182.58,518.55ZM538.93,702.4H538c-.54.81-1.52,1.65-1.48,2.43s1.11,1.73,1.89,1.92a1.67,1.67,0,0,0,2.08-1.93C540.36,704,539.47,703.21,538.93,702.4ZM184.78,526.6c-.12-.89-1-1.68-1.48-2.51l-.93,0c-.54.81-1.53,1.63-1.51,2.42a2.85,2.85,0,0,0,1.81,2A1.66,1.66,0,0,0,184.78,526.6Zm405.49-.7c-.83-.51-1.64-1.37-2.5-1.43a1.69,1.69,0,0,0-1.84,2.18,2.91,2.91,0,0,0,2,1.81c.78,0,1.57-1,2.36-1.59Zm0,9.94c-.83-.51-1.64-1.38-2.5-1.44a1.7,1.7,0,0,0-1.84,2.19,2.91,2.91,0,0,0,2,1.8c.78,0,1.57-1,2.36-1.58C590.3,536.48,590.28,536.16,590.27,535.84ZM182.9,548.33a2.91,2.91,0,0,0,1.87-2,1.68,1.68,0,0,0-2-2c-.86.13-1.59,1.07-2.38,1.64l0,1C181.26,547.45,182.13,548.41,182.9,548.33Zm405-4a1.68,1.68,0,0,0-2,2,2.92,2.92,0,0,0,1.87,2c.77.08,1.65-.88,2.48-1.38l0-1C589.52,545.41,588.79,544.47,587.93,544.34ZM184.77,556.4a1.69,1.69,0,0,0-1.9-2.12c-.87.09-1.64,1-2.46,1.51,0,.33,0,.65,0,1,.81.55,1.63,1.54,2.41,1.51A2.94,2.94,0,0,0,184.77,556.4Zm403.11,1.87c.78,0,1.61-1,2.42-1.51v-1c-.81-.54-1.59-1.43-2.45-1.53a1.69,1.69,0,0,0-1.91,2.12A2.94,2.94,0,0,0,587.88,558.27Zm-407.47,8.48c.82.53,1.66,1.51,2.44,1.46a2.93,2.93,0,0,0,1.92-1.91,1.69,1.69,0,0,0-2-2.09c-.86.12-1.61,1-2.42,1.58C180.4,566.11,180.41,566.43,180.41,566.75Zm2.36,11.4a2.93,2.93,0,0,0,2-1.84,1.7,1.7,0,0,0-1.87-2.16c-.86.08-1.65,1-2.48,1.47,0,.32,0,.65,0,1C181.19,577.15,182,578.17,182.77,578.15Zm403.16,8a2.89,2.89,0,0,0,1.88,2c.77.08,1.64-.88,2.47-1.39l0-1c-.79-.58-1.53-1.5-2.39-1.63A1.68,1.68,0,0,0,585.93,586.12Zm-403,7.9c-.87.08-1.67,1-2.5,1.46l0,1c.8.57,1.6,1.59,2.37,1.57a2.93,2.93,0,0,0,2-1.82A1.69,1.69,0,0,0,182.92,594Zm0,13.94a2.89,2.89,0,0,0,1.88-2,1.68,1.68,0,0,0-2-2c-.86.13-1.6,1-2.39,1.62,0,.32,0,.64,0,1C181.24,607.06,182.11,608,182.89,608Zm407.39-2.53c-.83-.52-1.62-1.39-2.48-1.47a1.7,1.7,0,0,0-1.87,2.16,2.93,2.93,0,0,0,2,1.84c.77,0,1.58-1,2.37-1.56C590.29,606.08,590.29,605.76,590.28,605.43Zm-2.39,12.46c.78,0,1.6-1,2.41-1.51,0-.32,0-.64,0-1-.82-.54-1.59-1.43-2.46-1.52a1.68,1.68,0,0,0-1.9,2.12A2.9,2.9,0,0,0,587.89,617.89Zm.69-423.95c.87-.07,1.67-.94,2.49-1.46l0-1c-.79-.56-1.59-1.58-2.37-1.56a2.87,2.87,0,0,0-2,1.82A1.69,1.69,0,0,0,588.58,193.94Zm-403-2.08a2.87,2.87,0,0,0-1.91-1.91c-.78-.06-1.63.92-2.44,1.45v1c.8.56,1.55,1.47,2.42,1.58A1.68,1.68,0,0,0,185.56,191.86Zm0-9.88a2.9,2.9,0,0,0-1.86-2c-.77-.08-1.65.88-2.48,1.39,0,.32,0,.64,0,1,.79.58,1.52,1.5,2.38,1.65A1.69,1.69,0,0,0,185.56,182Zm405.52-10.49c-.83-.52-1.69-1.48-2.47-1.42a2.89,2.89,0,0,0-1.88,2,1.68,1.68,0,0,0,2,2c.86-.13,1.6-1,2.39-1.62C591.09,172.13,591.09,171.81,591.08,171.49Zm-407.49-1.42c-.78,0-1.6,1-2.4,1.54,0,.32,0,.64,0,1,.82.53,1.6,1.41,2.47,1.5a1.69,1.69,0,0,0,1.88-2.14A2.89,2.89,0,0,0,183.59,170.07Zm405-9.93a2.89,2.89,0,0,0-1.89,1.94,1.68,1.68,0,0,0,2,2c.86-.13,1.6-1,2.4-1.61,0-.32,0-.64,0-1C590.25,161,589.39,160.07,588.62,160.14Zm-403.06,2a2.88,2.88,0,0,0-1.86-2c-.78-.08-1.65.88-2.48,1.38l0,1c.78.58,1.52,1.51,2.37,1.65A1.68,1.68,0,0,0,185.56,162.1Zm-3.25,461.34c-.52.83-1.49,1.67-1.45,2.47a2.87,2.87,0,0,0,1.86,2,1.67,1.67,0,0,0,2.06-2c-.14-.89-1-1.65-1.55-2.48Zm408,1.88c-.82-.52-1.61-1.4-2.48-1.48a1.69,1.69,0,0,0-1.87,2.15,2.91,2.91,0,0,0,2,1.84c.78,0,1.59-1,2.38-1.54Zm-1.66-481.07c.86-.08,1.64-1,2.46-1.5v-1c-.8-.55-1.62-1.55-2.39-1.51a2.9,2.9,0,0,0-2,1.85A1.68,1.68,0,0,0,588.62,144.25Zm-403-2a3,3,0,0,0-1.89-2c-.78-.06-1.64.9-2.47,1.41l0,1c.79.57,1.54,1.49,2.4,1.62A1.7,1.7,0,0,0,185.57,142.21Zm403.1-7.89c.86-.11,1.62-1,2.42-1.57,0-.32,0-.64,0-1-.81-.53-1.66-1.51-2.43-1.46a2.87,2.87,0,0,0-1.92,1.9A1.69,1.69,0,0,0,588.67,134.32ZM182.81,633.77c-.86.12-1.61,1-2.41,1.6l0,1c.82.52,1.67,1.5,2.45,1.44a2.91,2.91,0,0,0,1.9-1.93A1.69,1.69,0,0,0,182.81,633.77Zm49.7-588,.94,0C234,45,235,44.18,235,43.39a2.87,2.87,0,0,0-1.92-1.93,1.69,1.69,0,0,0-2,2C231.14,44.3,232,45,232.51,45.8Zm10,0h1c.53-.82,1.51-1.66,1.47-2.44A2.87,2.87,0,0,0,243,41.46,1.67,1.67,0,0,0,241,43.4C241.08,44.26,242,45,242.51,45.82Zm49.59,0,.95,0c.57-.81,1.6-1.63,1.57-2.42a2.87,2.87,0,0,0-1.9-1.95,1.69,1.69,0,0,0-2.08,2C290.75,44.28,291.59,45,292.1,45.8Zm19.93,0h1c.55-.82,1.55-1.66,1.51-2.45a2.9,2.9,0,0,0-1.94-1.91,1.69,1.69,0,0,0-2,2C310.64,44.32,311.5,45,312,45.81Zm9.88,0,.95,0c.57-.81,1.59-1.63,1.57-2.42s-1.11-1.76-1.9-1.95a1.68,1.68,0,0,0-2.07,2C320.56,44.28,321.4,45,321.91,45.8Zm-137.14,620a1.69,1.69,0,0,0-1.87-2.16c-.86.07-1.65.95-2.48,1.47l0,1c.8.56,1.61,1.57,2.38,1.55A2.91,2.91,0,0,0,184.77,665.75Zm403.15-97.54c.78,0,1.59-1,2.38-1.55,0-.32,0-.64,0-1-.82-.52-1.61-1.4-2.47-1.48a1.7,1.7,0,0,0-1.88,2.16A2.91,2.91,0,0,0,587.92,568.21Zm-407.5,48.27c.82.51,1.69,1.47,2.46,1.41a2.89,2.89,0,0,0,1.89-1.94,1.69,1.69,0,0,0-2-2.05c-.86.12-1.6,1.05-2.39,1.62C180.4,615.84,180.41,616.16,180.42,616.48ZM588.7,283.38c.86-.13,1.6-1.05,2.4-1.62,0-.32,0-.64,0-1-.83-.52-1.69-1.48-2.46-1.42a2.93,2.93,0,0,0-1.9,1.94A1.7,1.7,0,0,0,588.7,283.38ZM183,279c-.5.84-1.44,1.72-1.37,2.5a2.89,2.89,0,0,0,1.92,1.91,1.7,1.7,0,0,0,2-2c-.16-.88-1.06-1.61-1.63-2.41ZM321.76,702.82a2.87,2.87,0,0,0-2,1.8c-.08.78.87,1.68,1.38,2.53l.94,0c.57-.74,1.47-1.41,1.64-2.24A1.68,1.68,0,0,0,321.76,702.82ZM585.93,576.16a2.92,2.92,0,0,0,1.85,2c.77.08,1.65-.86,2.49-1.36,0-.32,0-.64,0-1-.78-.59-1.5-1.52-2.36-1.67A1.69,1.69,0,0,0,585.93,576.16ZM469.3,702.39l-.94,0c-.52.84-1.49,1.73-1.42,2.51a2.86,2.86,0,0,0,2,1.83,1.68,1.68,0,0,0,2-2.1C470.76,703.82,469.86,703.14,469.3,702.39Zm7.53,2.25a1.67,1.67,0,0,0,1.87,2.13c.89-.11,1.69-.94,2.52-1.45l0-.93c-.79-.55-1.6-1.56-2.38-1.53A2.85,2.85,0,0,0,476.83,704.64ZM588.7,263.5c.86-.12,1.6-1.05,2.4-1.61,0-.32,0-.64,0-1-.83-.52-1.69-1.48-2.47-1.42a2.93,2.93,0,0,0-1.89,1.94A1.69,1.69,0,0,0,588.7,263.5ZM185.57,132.29a2.92,2.92,0,0,0-1.87-2c-.78-.08-1.65.88-2.48,1.38l0,1c.79.57,1.52,1.5,2.38,1.64A1.69,1.69,0,0,0,185.57,132.29Zm403-11.9a2.88,2.88,0,0,0-1.86,2,1.68,1.68,0,0,0,2,2c.85-.14,1.58-1.07,2.37-1.64l0-1C590.24,121.27,589.37,120.31,588.59,120.39Zm-403,81.52c-.13-.88-1-1.64-1.54-2.46h-.92c-.53.82-1.5,1.66-1.46,2.45a2.85,2.85,0,0,0,1.85,2A1.69,1.69,0,0,0,185.58,201.91ZM519.17,702.42l-1,0c-.57.79-1.59,1.58-1.58,2.37a2.92,2.92,0,0,0,1.81,2,1.69,1.69,0,0,0,2.17-1.84C520.52,704.05,519.67,703.25,519.17,702.42ZM185.56,291.24a2.91,2.91,0,0,0-1.91-1.92c-.78-.05-1.63.92-2.45,1.45v1c.8.56,1.55,1.47,2.42,1.58A1.68,1.68,0,0,0,185.56,291.24ZM548.66,45.79l.89.05c.58-.74,1.48-1.41,1.65-2.24.27-1.27-.59-2.13-1.93-2.22a1.81,1.81,0,0,0-2.1,2C547.26,44.27,548.14,45,548.66,45.79Zm40,187.9c.86-.12,1.61-1,2.41-1.6,0-.32,0-.64,0-1-.82-.52-1.67-1.49-2.45-1.43a2.92,2.92,0,0,0-1.91,1.93A1.69,1.69,0,0,0,588.69,233.69Zm-405.09-4c-.78,0-1.6,1-2.4,1.51,0,.32,0,.64,0,1,.82.54,1.59,1.43,2.46,1.52a1.69,1.69,0,0,0,1.89-2.13A2.88,2.88,0,0,0,183.6,229.7ZM585.93,596.07a2.92,2.92,0,0,0,1.88,1.95c.77.07,1.64-.9,2.47-1.41,0-.32,0-.64,0-1-.79-.56-1.53-1.49-2.38-1.62A1.7,1.7,0,0,0,585.93,596.07ZM548.8,702.39l-.94,0c-.52.84-1.49,1.73-1.42,2.51a2.86,2.86,0,0,0,2,1.83,1.68,1.68,0,0,0,1.95-2.1C550.25,703.82,549.36,703.14,548.8,702.39ZM519,45.82l1,0c.5-.83,1.46-1.7,1.38-2.47a3,3,0,0,0-2-1.88,1.66,1.66,0,0,0-2,2C517.49,44.3,518.42,45,519,45.82ZM182.83,454.9c-.86.11-1.62,1-2.43,1.57,0,.32,0,.64,0,1,.82.53,1.66,1.51,2.44,1.45a2.87,2.87,0,0,0,1.92-1.9A1.69,1.69,0,0,0,182.83,454.9Zm405.06,33.81c.78,0,1.6-1,2.41-1.51,0-.32,0-.64,0-1-.81-.54-1.59-1.43-2.45-1.53a1.7,1.7,0,0,0-1.91,2.13A2.9,2.9,0,0,0,587.89,488.71Zm-2,8a2.9,2.9,0,0,0,1.86,2c.78.08,1.65-.87,2.48-1.38,0-.32,0-.64,0-1-.79-.58-1.52-1.51-2.37-1.65A1.69,1.69,0,0,0,585.93,496.68ZM180.41,507.16c.83.52,1.69,1.48,2.47,1.42a2.89,2.89,0,0,0,1.89-1.94,1.69,1.69,0,0,0-2-2.05c-.86.13-1.6,1.05-2.39,1.61C180.4,506.52,180.41,506.84,180.41,507.16Zm2.41,76.93c-.86.11-1.62,1-2.42,1.57,0,.32,0,.65,0,1,.82.52,1.66,1.5,2.44,1.45a2.93,2.93,0,0,0,1.92-1.91A1.68,1.68,0,0,0,182.82,584.09Zm403.11-67.52a2.92,2.92,0,0,0,1.88,1.95c.77.07,1.64-.89,2.47-1.4,0-.33,0-.65,0-1-.79-.57-1.53-1.5-2.38-1.62A1.69,1.69,0,0,0,585.93,516.57ZM529.81,45.81c.53-.77,1.4-1.49,1.52-2.32a1.68,1.68,0,0,0-2-2,2.87,2.87,0,0,0-1.95,1.91c0,.78,1,1.63,1.5,2.45Zm-349.41,491c.79.56,1.61,1.57,2.38,1.54a2.91,2.91,0,0,0,2-1.84,1.7,1.7,0,0,0-1.88-2.15c-.86.08-1.65,1-2.47,1.49C180.41,536.21,180.4,536.53,180.4,536.85Zm3.26-412.47a1.68,1.68,0,0,0,1.9-2.12,2.88,2.88,0,0,0-1.95-1.87c-.78,0-1.61,1-2.41,1.5,0,.32,0,.64,0,1C182,123.39,182.8,124.29,183.66,124.38Zm405,79.5c.87-.12,1.62-1,2.42-1.58v-1c-.82-.53-1.67-1.51-2.45-1.46a2.89,2.89,0,0,0-1.91,1.92A1.68,1.68,0,0,0,588.67,203.88Zm0-19.88c.86-.1,1.63-1,2.44-1.54v-1c-.81-.53-1.65-1.52-2.42-1.48a2.9,2.9,0,0,0-1.94,1.89A1.68,1.68,0,0,0,588.65,184ZM470.1,45.83c.56-.75,1.45-1.44,1.61-2.26a1.69,1.69,0,0,0-2-2.11,2.9,2.9,0,0,0-2,1.84c-.08.78.9,1.66,1.42,2.5Zm121,105.78c-.83-.51-1.69-1.48-2.47-1.41a2.91,2.91,0,0,0-1.89,2,1.69,1.69,0,0,0,2,2c.86-.12,1.6-1.05,2.39-1.62Zm-407.53,62.2a1.69,1.69,0,0,0,2-2c-.15-.87-1-1.62-1.59-2.42l-.93,0c-.51.83-1.46,1.69-1.4,2.48A2.87,2.87,0,0,0,183.55,213.81ZM586.73,102.25a1.71,1.71,0,0,0,1.77,2.25c.86,0,1.7-.87,2.55-1.34l.06-1c-.76-.6-1.52-1.66-2.29-1.68A2.94,2.94,0,0,0,586.73,102.25Zm1.06,541.46a1.7,1.7,0,0,0-1.86,2.17,2.91,2.91,0,0,0,2,1.83c.78,0,1.58-1,2.38-1.57l0-1C589.45,644.66,588.66,643.78,587.79,643.71ZM241.57,702.43c-.5.83-1.34,1.64-1.4,2.51a1.68,1.68,0,0,0,2.19,1.81,2.9,2.9,0,0,0,1.79-2c0-.78-1-1.56-1.63-2.34Zm11.12,0-.94,0c-.57.79-1.61,1.6-1.59,2.38a2.93,2.93,0,0,0,1.86,2,1.68,1.68,0,0,0,2.11-2C254.05,704,253.2,703.22,252.69,702.43ZM185.56,152.11a2.87,2.87,0,0,0-1.91-1.91c-.78,0-1.63.92-2.44,1.45,0,.32,0,.64,0,1,.8.56,1.56,1.47,2.42,1.58A1.68,1.68,0,0,0,185.56,152.11ZM587.87,657.64c.78,0,1.61-.95,2.42-1.48v-1c-.81-.54-1.57-1.44-2.44-1.54a1.69,1.69,0,0,0-1.92,2.1A2.9,2.9,0,0,0,587.87,657.64Zm-306,45.22a2.85,2.85,0,0,0-1.91,1.88,1.68,1.68,0,0,0,2,2c.87-.15,1.62-1,2.43-1.58,0-.3,0-.61,0-.91C283.49,703.77,282.63,702.81,281.84,702.86Zm29.3-411.52a2.7,2.7,0,0,0,1-.45c2.26,1.5,4.22,3.16,6.46,4.17a27.91,27.91,0,0,0,7.22,2,8.82,8.82,0,0,0,7.33-2.18c-6.46-1.36-12.56-2.05-17.89-6,5.9-4.11,12-4.14,18-1.28,3.75,1.77,7.21,4.15,10.84,6.18,1.27.71,2.78,1.13,3.71-.37s-.28-2.43-1.34-3.1c-4-2.49-7.84-5.24-12.05-7.24-5.69-2.71-11.71-3.17-17.67-.47-3.1,1.41-6,3.14-7.88,6.1-.41.65-.21,1.69-.29,2.55A21.29,21.29,0,0,0,311.14,291.34Zm-2.21-13.52c3.64-4.22,7.17-8.41,13.18-9.13a24.17,24.17,0,0,1,11.51,1.43c5.16,1.93,9.47,5.17,13.78,8.53a104.31,104.31,0,0,0,10.68,6.79,5.62,5.62,0,0,0,2.22.29c.15-.3.31-.59.46-.88a39.88,39.88,0,0,0-3.72-3.53c-3-2.25-6.33-4.15-9.24-6.52a42.79,42.79,0,0,0-15.47-8.33c-8.68-2.42-16.67-1.29-23,5.94-3.53,4-7,8.15-11.95,10.61-.41.21-.67.73-1.39,1.56,1.15.39,1.95.93,2.67.84a6.23,6.23,0,0,0,3.12-1.13A55.12,55.12,0,0,0,308.93,277.82Zm11.92,50.84c.27-.3.15-.94.23-1.56-3.09-.89-7.18-.1-7.69-4.57-.33-2.87.82-5.18,3.94-6-.37-2-1.75-2.71-3.33-3.15A9.39,9.39,0,0,0,303.49,317c-2.57,3.88-2.7,9,0,12.29C308.87,335.94,316.39,333.8,320.85,328.66Zm-14.79-10.88c1.59-2.54,4.69-3.49,8.42-2.47a8.94,8.94,0,0,0-3.92,7c-.19,3.14,1.38,5.26,4.27,6.86a7,7,0,0,1-8.54-1.85C304.37,325.08,304.26,320.65,306.06,317.78Zm11.08-37.41A32,32,0,0,1,339.86,283c2.76,1.42,5.36,3.15,8.05,4.7a10.56,10.56,0,0,0,1.56.62l.63-.47a6.6,6.6,0,0,0-.86-2.16,21.61,21.61,0,0,0-3.61-3.35c-5.67-4-12.08-5.63-18.95-6.31-8.92-.88-15.56,2.54-20.67,9.54a10.74,10.74,0,0,0-.93,1.93l.54.45c1.05-.83,2.14-1.61,3.15-2.49C311.28,283.33,313.78,281.16,317.14,280.37Zm30.48,17.87c-2.16.84-4.28,1.78-6.48,2.49-6.15,2-12.41,2.75-18.71.71-2.37-.77-4.6-2-6.93-2.89a14.83,14.83,0,0,0-2.7-.53l-.25.76c2.22,2.57,4.68,4.82,8.1,5.85a31.53,31.53,0,0,0,22.09-1.53c4.6-2,9.2-3.71,14.34-3.17a7,7,0,0,0,1.5-.17l.17-.51a4.62,4.62,0,0,0-1.2-.83C354.26,297.53,351,297,347.62,298.24Zm42,82.89a22.53,22.53,0,0,1-15.73.2,10.18,10.18,0,0,0-1.33-.4c-5.69-1.24-11.08-.61-15.93,2.79-2.17,1.52-4.11,3.38-6.33,4.8-3.14,2-3.57,4.79-2.56,7.93a34.83,34.83,0,0,1,1.35,12.95,15.46,15.46,0,0,0,.27,4.35c.94,4,2.64,7.87,6.42,9.82a27.61,27.61,0,0,0,9.09,2.59c5.76.72,10.27-3.37,10.27-9.2a48.19,48.19,0,0,0-1.2-8.39c-.33-1.74-.61-3.38,1-5.41l15.38,1.11c-.15,1.59-.21,2.77-.39,3.92-.28,1.83-.71,3.64-1,5.47a9.39,9.39,0,0,0,5.09,9.51c3.71,1.88,12.79.84,15.87-2.59,4.53-5.05,7.29-10.52,5.87-17.49a43.23,43.23,0,0,1-.68-4.52c-.34-3.25-.69-6.52,2.37-9.17-.19-.51-.23-1.08-.53-1.31-4.4-3.46-8.58-7.32-14.43-8.27A25.42,25.42,0,0,0,389.64,381.13Zm23.06,8.78c-1.8,3.52-1.58,6.9-1,10.36.81,4.87,1.21,9.61-1.41,14.29-3.06,5.47-10.75,7.05-14.84,5.28a5.33,5.33,0,0,1-3.31-5.9c.48-3.19.92-6.38,1.42-9.89,4.12-1,6.92-4.16,9.09-8,.26-.45,0-1.18,0-2.41a58.33,58.33,0,0,0-6.11,3.65,10.83,10.83,0,0,1-9,2.21c-4.9-.92-9.76-.35-14.63.07a9.55,9.55,0,0,1-6.37-1.73,19,19,0,0,0-4.68-2.09,8.81,8.81,0,0,0-2.81.13c.54,1.76,8.07,6.76,10.84,7.7.27,3.18.55,6.15.78,9.12a31.57,31.57,0,0,1,.17,4.76c-.17,2.43-2.57,4.79-5,4.53-4.53-.5-9.1-1.35-11.26-6.12a14.14,14.14,0,0,1-1.49-6.05c.17-5.28,0-10.45-2-15.69,5.1-1.56,10-3.72,15.44-2.55,4.59,1,9.19,1.94,13.79,2.94a25,25,0,0,0,16.6-2.28c1.9-.92,3.9-1.64,5.88-2.39C406.05,388.65,409.23,389.21,412.7,389.91Zm-6-4.11c.09.08.14.21,0,0-4.16,1.22-8.42,2.17-12.45,3.71-5.95,2.25-11.8,1.77-17.73.27-1.73-.44-3.44-1-5.17-1.4a25.9,25.9,0,0,0-14.84.88,10,10,0,0,1-2.91.55c3.6-3,7.16-6,12.16-6a18.34,18.34,0,0,1,6.79.92,23.93,23.93,0,0,0,18.87-.12,16.64,16.64,0,0,1,14.75.87A2.58,2.58,0,0,1,406.74,385.8ZM395.13,88.14c.68-.92,1.38-2,.24-3s-4.32-.63-5.17.54c-2.57,3.53-5.1,7.09-7.64,10.64l-3.13,4.41a2.28,2.28,0,0,1-.47-1.52c.22-3.49.49-7,.67-10.47.16-3-.36-3.79-3.78-5.24-.55,1.18-1.51,2.29-1.53,3.41-.13,9.07-.1,18.13-.08,27.19a15.52,15.52,0,0,0,.41,3,2.3,2.3,0,0,0,2.65,2.11,2.39,2.39,0,0,0,2.13-2.67,27.42,27.42,0,0,0-.22-4.16c-.51-3.42,1.84-5.38,3.67-8,1,2,1.87,3.72,2.84,5.36,1.62,2.73,3.31,5.42,5,8.1.83,1.29,2,2,3.54,1.2,1.26-.66,1.49-2.25.63-3.85-.25-.46-.58-.88-.87-1.33l-8.42-13c.61-.85,1.08-1.56,1.6-2.23C389.85,95.1,392.51,91.64,395.13,88.14Z"/></svg>