<svg xmlns="http://www.w3.org/2000/svg" viewBox="0 0 750 750"><path d="M606.15,48.23a27.93,27.93,0,0,0-.44-5.33A21.88,21.88,0,0,0,583.78,25H187.25c-13.12,0-22.67,9.55-22.67,22.69V375.05q0,163.68,0,327.36a22.43,22.43,0,0,0,.15,3.17c1.77,11.87,10.72,19.42,23.07,19.42q197.57,0,395.14,0a27.22,27.22,0,0,0,5.33-.45c10.93-2.22,17.89-11.09,17.89-22.78Q606.17,375,606.15,48.23Zm-4.26,653.4c0,11.55-7.47,19.09-18.94,19.09H187.59c-9.35,0-16.5-5.46-18.37-14.11a22.74,22.74,0,0,1-.35-4.74q0-163.49,0-327V47.52c0-8.94,5.46-16,13.95-17.86a18.5,18.5,0,0,1,4.14-.37h397a17.67,17.67,0,0,1,18,17.8c0,1.52,0,3.05,0,4.57ZM400,516.34c.9-3.13,4-5.54,3.54-9.29-.58-.22-1-.56-1.3-.46-2.5.93-5,1.93-7.61,3,.11-1.75.22-3.37.32-4.94,4.5-3.78,4.43-8.1.46-11.28V479.06l6.42,6.29c.28,2.7,1.22,4.11,5.28,3.93l5.59,3.45-1.34,4.35c3.1,1.61,4.26-1.24,6-2.33l6.31,1.65a7.21,7.21,0,0,0,6.31,6c1.25.22,2.55.16,3.24-1.51l-2.54-4.13,4.78-.66a36.64,36.64,0,0,0,4.92,3.08,2.53,2.53,0,0,0,2.34-.77c.33-.51-.15-1.63-.44-2.43-.15-.43-.63-.75-1.1-1.26l5.39-2.38c3.29.61,3.83.32,5.3-2.68a3.69,3.69,0,0,1,.81-1.1c5.17-4.72,10.35-9.43,16-14.62,4.91-.37,7.1-3.46,5.63-9.3l1.38-2.29,1.35-2.23c3.27-.82,5.05-2.46,4.41-4.8a6.88,6.88,0,0,1,1.4-6.31c2.07-2.65,2.85-5.64,4-8.69A290.81,290.81,0,0,0,497,409c.65-2.62,1.29-5.24,1.94-7.85l.24.05q-1.79,42.45-3.55,84.9l-.8.34c-.42-.57-.73-1.33-1.3-1.68a13.08,13.08,0,0,0-2.66-1,8.23,8.23,0,0,0-.38,2.88c.59,2.44,2.61,3.51,4.8,4.2v7.05l-.74-.09c-.23,1.53-1.15,3.47-.55,4.53,1.61,2.79.7,5.54.88,8.2-3.39,3.19-3.45,4.93-.36,9v4.83c-4.92,2.88-5,7.84-.21,10.75.46,4,.27,4.86-1.52,8.31a26.79,26.79,0,0,0-3.05,14.79c.32,3.75,2.44,6,5.68,6.4,3.05.36,5.06-1.12,6.39-4.75A15.09,15.09,0,0,0,501,546.9c-2.09-3.82-3.09-7.7-1.77-12.09,4.15-2.5,4.57-7.59.33-10.82.07-1.15.14-2.39.2-3.53,3.69-2.05,4.57-6.42,0-9.77.47-2.53,1-5.28,1.48-8.05a9.8,9.8,0,0,0,.07-2.36c-.25-3.18-.54-6.36-.73-8.67,2.47-2.24,4.35-3.77,6-5.52a2,2,0,0,0-.25-3.18c-1.22-.89-2.2-.26-3,.84-.54.72-1.22,1.34-2,2.2,0-4.2-.07-7.9,0-11.6q1-42.83,2-85.64c.18-6.81.57-13.63,1.23-20.4.49-5.12.72-10.3,2.61-15.22a8.84,8.84,0,0,0-.58-7.15c-.72-1.49-1.44-3-2.05-4.52-1-2.6-3.06-3.93-5.8-3.21a19,19,0,0,0-5,2.34c-3.37,2.1-6.66,4.33-10,6.56-4.28,2.9-8.67,5.65-12.74,8.81-9.52,7.4-18.81,15.09-28.33,22.49-19.24,15-38.28,30.21-58.48,43.9-1.29.87-2.61,1.71-3.94,2.57-.39-.44-.62-.67-.83-.92-2.3-2.76-4.28-2.68-6.38.17-1.88,2.56-3.81,5.09-5.82,7.55a26.3,26.3,0,0,1-3.71,3.82c-2.42,2-5,3.72-7.51,5.55-.44.33-.93.6-1.45.92-.81-2.66-.79-3.37.53-5.2a85.32,85.32,0,0,1,5.61-7.45c5.87-6.54,5.12-14.12,1.4-20.82-.7-1.25-1.65-1.68-3-.94a19.64,19.64,0,0,0-10.32,14.53c-.13.79-.23,1.59-.31,2.2-3.87-3-7.44-6.05-11.38-8.56s-8.32-4.48-12.26-6.56c2.22-2.2,4.75-4.52,7.07-7.05,3.82-4.18,7.28-8.58,8.38-14.4,1.3-6.88-.52-14.12-10.52-15.33-4.59-.55-9.25-.54-13.87-.86-6.4-.44-12.19-2.19-16.57-7.35-2.1-2.46-3.09-5.94-1.63-8.79,2-3.91,3.51-7.85,2.38-12.31l5.87-1v-.84c-.7-.26-1.38-.54-2.08-.77a30.67,30.67,0,0,1-3.6-1.11c-3.21-1.48-3.89-3.29-2.68-6.86,2.53-.78,5.08-1.15,7.69-.07,4,1.63,7.52,0,11.1-1.42.29-.11.44-.55,1-1.28-1.71,0-3,.05-4.27,0-5.79-.24-11.53-2.62-17.39-.41-1.44-2-1.47-2.34-.36-4.67,2.51-5.28,1-10.31-3.94-13.22-1.48-.87-3-1.61-4.49-2.55-3.09-2-3.51-5.63-.8-8,5.2-4.63,9.11-10.28,13.15-15.87a17.42,17.42,0,0,0,2.82-15.79,15,15,0,0,1,.79-10.28c2.5-5.74,5.87-11.16,6.7-17.55,0-.11.15-.2.4-.51,5.37.28,9.24-2.49,12-7.23,6.78,4.29,13.76,4.25,20.93,1.51,3.84,6,9.85,5.35,15.53,5.45,2.5,2.86,5.14,5.49,7.32,8.47A26.27,26.27,0,0,0,377.79,258c2.74,1.09,3.54,3.08,2.21,5.79-.29.6-.65,1.16-1,1.74-1.83,3.52-1.42,6.44,1.81,8.8a23.17,23.17,0,0,1,8.9,12.73c1.32,4.53,4.92,6,9.55,5a35.52,35.52,0,0,1,9.8-.77c4.42.32,8.31,4.38,9.36,8.74.48,2,1.2,4,1.75,5.81-3.38,3.88-6.83,7.87-10.31,11.84a37.23,37.23,0,0,1-2.64,2.69c-3.5,3.23-6.05,3.64-10.27,1.51-1-.51-1.76-1.58-2.72-2.24a14.1,14.1,0,0,0-2.38-1.05c-1.06,2.63.43,4.05,1.35,5.89-2.46,4.39-4.71,9.07-7.56,13.35-3.51,5.26-7.79,10-13.41,13.08a112.65,112.65,0,0,1-34,12c-7.22,1.31-14.58,1.86-21.87,2.78-1,.13-2,.39-3.06.59,0,.23,0,.46,0,.69a10.49,10.49,0,0,0,1.77.52c1.65.18,3.3.37,4.95.41,16.95.44,33-3.38,48.35-10.37,13.18-6,21.88-15.94,26.41-29.63.22-.67.49-1.32.79-2.11,1.18.36,2.2.63,3.19,1a8.43,8.43,0,0,0,8.89-1.84c2.56-2.38,4.86-5,7.22-7.62,1-1.13,2-2.35,3-3.63,2.32,2.92,1.91,5.91,1.62,8.88s-.52,5.84,1.07,8.33c2.27,3.57,1.77,7.39,1.38,11.12a111,111,0,0,1-2.18,10.89c-1.45,7.06-3.11,14.09-4.25,21.21a82.15,82.15,0,0,0-.5,12.27c0,2.22.73,4.18,3.14,4.91,4.34-2,4.34-2,3.08-6.34-.06-.19-.14-.38-.18-.57a24.42,24.42,0,0,1,.19-11.24,4.67,4.67,0,0,0,4.75-2.19c2.06-2.75,4.41-5.38,5.91-8.42a18,18,0,0,1,10.16-9,8.66,8.66,0,0,0,5.41-5.17,56.23,56.23,0,0,0,2.05-7.23c1.06-4.91,2.8-9.24,7.92-11.35a15.71,15.71,0,0,0,8.34-18,45,45,0,0,1-1-9.8,3.93,3.93,0,0,1,1.67-2.63,14.31,14.31,0,0,0,5.25-6.57,7.65,7.65,0,0,1,7-5.27,17.06,17.06,0,0,0,14.6-13,19.84,19.84,0,0,0-.5-10.2c-.73-2.46-1.42-5-.82-7.56.47-.25.81-.44,1.16-.61,5.14-2.46,7.11-5.62,6.53-11.24a60.47,60.47,0,0,0-1.78-8.32c-.42-1.65-1.05-3.25-1.56-4.8,2.93-3.12,2.77-6.51,1.43-10a15.73,15.73,0,0,0-5.92-7.31,41.31,41.31,0,0,0-13.21-6.28c-2.95-.76-5.91-1.5-8.85-2.29a15.42,15.42,0,0,1-8.57-5.09c-3.44-4.37-8.12-7.17-12.63-10.17a14.11,14.11,0,0,0-9.13-2.1c-6.05.46-11.68,1.8-15.59,7-.07.1-.22.14-.72.43l-13.6-1.88c-.92-8.45-7.19-14.15-16.23-14.31a73.88,73.88,0,0,1-7.74-.18,23.45,23.45,0,0,1-7.23-1.77c-4.55-2.19-8.63-5-13.83-6.18-5.68-1.25-11.21-3-17.09-3.26a17.47,17.47,0,0,0-18,13.41,11.68,11.68,0,0,1-.35,1.17c-4.52-.07-8.74-.26-13-.17-8.51.17-20,7.64-18.27,20.8-5.83,2.53-9.38,7.24-11.85,13.08-2.68,6.37-1,11.9,2.77,17.11-.5.84-.88,1.45-1.24,2.07a7.61,7.61,0,0,0-.87,5.93,8.48,8.48,0,0,0,8.69,6.68c2.34,0,4.65.09,6.2,2.31a7.41,7.41,0,0,1-.3.79c-3.61,6.62-5.3,13.42-2,20.7a2.5,2.5,0,0,1,.11.39,10.08,10.08,0,0,1-2,10.05c-4.45,5.25-8.65,10.74-13.43,15.69a8.92,8.92,0,0,0,1.2,13.64c1.48,1,3,1.94,4.55,2.85,3.44,2,4.32,5.18,2.44,8.72-2.12,4-1.58,6.37,1.9,8.46-.17.61-.37,1.23-.49,1.87-.42,2.3-.41,4.53,1.38,6.33a7.27,7.27,0,0,1,1.89,7.32,38,38,0,0,1-2.3,5.68,13.33,13.33,0,0,0,1.06,13.61,18.52,18.52,0,0,0,12.6,8.34c5.15.79,10.39.91,15.59,1.34,2.44.21,4.88.36,7.29.73,3.15.48,4.63,2.68,5,5.62A12.75,12.75,0,0,1,336,387c-1.39,6.76-5.45,11.81-10.66,16-2.13,1.72-4.4,3.27-6.94,5.13-.78-2.16-1.49-3.79-2-5.49-1.95-7-6.84-11.13-13.24-13.83a17.4,17.4,0,0,0-10.28-1.39c-2.18.42-2.71,1.26-2,3.33s1.46,3.84,2.18,5.76a21,21,0,0,0,7.49,10.05,10.06,10.06,0,0,1,.83.78c-3.47.58-6.71,1.17-10,1.62a6.91,6.91,0,0,1-3-.27c-3.58-1.21-7.2-2.07-10.89-.8-9.26,3.19-14.08,10.11-15.88,19.43a2.07,2.07,0,0,0,2.24,2.75,83.89,83.89,0,0,0,10.88-.32c8.09-1.07,13.16-6,16-13.46.35-.92.63-1.86,1-3l10-1.19.3.74c-.48.36-1,.69-1.43,1.07-5.05,4.34-6.36,10-5.79,16.35.18,1.94.95,2.49,2.88,2.29,1.45-.15,2.91-.21,4.35-.36a15.46,15.46,0,0,0,13.55-12.09,76.07,76.07,0,0,0,.77-7.59A52.51,52.51,0,0,1,346,429.8a37.14,37.14,0,0,0-5.49-3.14c-7.49-2.77-15-4.41-21.79,1.8-1.89,1.72-2.2,3-.27,4.58a82.29,82.29,0,0,0,9.77,7.41c4.46,2.77,9.29,2.81,14.07.53,2.43-1.15,4.85-2.34,7.51-3.63.4,2.6.78,5.1,1.16,7.59-2.91,2-5.6,3.95-8.35,5.79-10.57,7-21.18,14-31.75,21.11a27.21,27.21,0,0,0-4.5,3.54c-1.7,1.74-2.62,3.88-1.32,6.33,1.5,2.83,3,6,6.93,5.43a20.59,20.59,0,0,0,6.68-2.24c4.1-2.26,8-4.87,12.06-7.39.91,1.15,1.73,2.26,2.63,3.3s1.89,2,2.79,3c.54,4.39,2.06,5.37,5.88,3.91l5.83,2c.64,2.09,1.88,3.59,4.14,3.76,2.76.2,3.86-1.86,4.82-3.93.91-.26,1.74-.48,2.56-.73s1.64-.53,2.41-.78c3.21.89,3.83.6,5.53-2.47a2.5,2.5,0,0,1,.57-.79c2.17-1.72,4.36-3.42,6.29-4.93,1.9.11,3.54.28,5.18.26a1.83,1.83,0,0,0,2.05-1.95c0-1.37-1-1.71-2.2-1.75-.54,0-1.08,0-1.71,0,2.77-4.11,5.37-8,8-11.84a1.43,1.43,0,0,1,.34.26c5.57,7.93,5.54,7.93,5.3,17.72-.08,3.62,0,7.25,0,10.56-4.42,2.89-5.73,8.18-.82,11.77v4l-5.14-3-2.47,2c1,3,2.07,5.94,3.11,8.91-.87.73-1.66,1.34-2.38,2a20.64,20.64,0,0,0-2.19,2.3c-1.56,2-.86,3.76,1.69,4,2,.16,3.94,0,5.71,0,2.07,2.64,2,6.39,5.8,8.09l4-8.37c2.46-.21,5.22.71,7.72-1.42C405.5,519.79,401.7,519,400,516.34Zm95.26,39.71c-1.22-1.51-.9-6.56.67-10.66A15.8,15.8,0,0,1,495.23,556.05ZM478.07,284.28a42.64,42.64,0,0,0-4.57,1.46l-6.08-11q3.42-6.49,7.6-14.4l13.2-2.37c.43,3.39.85,6.84,1.31,10.29A14.49,14.49,0,0,1,478.07,284.28Zm-47.9-89.85c6.1-2.21,12.06-3.38,17.8,1.25,3.6,2.9,7.42,5.47,10.58,8.95s7.18,4.85,11.55,5.74c6.47,1.33,12.82,3.11,18.12,7.2a27,27,0,0,1,5.38,6.2,3.61,3.61,0,0,1-.53,4.9c-1.22,1.21-1.1,2.75-.71,4.29.93,3.65,2,7.27,2.72,11,.94,5-.44,7.61-5.25,9.24-4.6,1.56-9.38,2.59-14.44,4,.87-8-2.67-13.85-7-19.3-4.68-5.87-10.84-9.84-17.62-12.92-4.93-2.24-5.75-1.84-5.21-8.56.79-9.72-5.3-17.62-14.78-19.71L428,196A11.09,11.09,0,0,1,430.17,194.43ZM294.55,244.76c-3.5-.19-5.84-4.17-3.95-7.13s1.48-5.26-.17-8.06c-4.15-7-.94-17.52,6.76-21.81,3-1.65,6.36-2.53,9.54-3.82a74,74,0,0,0,6.91-3c2.47-1.28,3.46-3.74,4.17-6.27a2.67,2.67,0,0,0-.35-1.67c-4.29,5.65-10.48,7.41-17.19,9.08a31.88,31.88,0,0,1,.57-3.59,16.86,16.86,0,0,1,16.3-12.72c4-.14,7.92,0,11.8,0,1.71,5.37,5.91,8,9.76,10.87,2.59,1.93,5.13,3.83,6,7.14a25.44,25.44,0,0,0,.83,4.1,9.51,9.51,0,0,0,1.56-2.14,7.2,7.2,0,0,0-1.17-6.78,21,21,0,0,0-3.37-3.62c-2.07-1.84-4.32-3.49-6.4-5.33-4.05-3.56-4.55-8.13-1.19-12.41,2.93-3.74,6.9-6,11.68-5.79a68.53,68.53,0,0,1,14.54,1.68,25.15,25.15,0,0,1,11,5.49c4.66,4.28,10.26,5.76,16.53,5.28a36.63,36.63,0,0,1,8.11.18,9.9,9.9,0,0,1,8.63,10.47,50.57,50.57,0,0,1-.9,6.89,15.27,15.27,0,0,0,1.13,9.29c2.31,5,1.37,9.21-2.69,12.95-1.47,1.34-3.07,2.53-4.51,3.9a16,16,0,0,0-1.74,2.38l.4.66a8.73,8.73,0,0,0,2.67-.5,64,64,0,0,0,7.62-4.65c4.25-3.23,5.64-9.55,2.91-15.22-2.18-4.53-1.36-8.86-.68-13.45a4.57,4.57,0,0,1,.83,0c5.69,1.21,11.38,2.48,17.08,3.63,5.13,1,9.62,3,11.36,8.37a32.81,32.81,0,0,1,1,6.81c.1,1.11-.15,2.25-.15,3.37,0,4.1,1.73,7.06,5.6,8.79a74.23,74.23,0,0,1,9.2,4.67,37.53,37.53,0,0,1,13.9,14.68,14.07,14.07,0,0,1,.52,12.81c-1,2.24-2.25,4.35-3.34,6.54a52.36,52.36,0,0,0-2.42,5.22c-1.23,3.33-.64,5.26,2,7.59,4.21,3.69,5.86,11.86-.43,15.92A6,6,0,0,0,462,301a84.84,84.84,0,0,0,.86,11.84,11.91,11.91,0,0,1-4.15,11.72,12.32,12.32,0,0,1-2.95,2c-5.73,2.72-8.1,7.68-9.36,13.49a62.58,62.58,0,0,1-1.86,6.27,5.53,5.53,0,0,1-3.68,3.62,19.82,19.82,0,0,0-12.21,11.43c-1.2,2.75-3.2,5.15-4.91,7.65a10.5,10.5,0,0,1-2,1.61,12.09,12.09,0,0,1,0-2.7c.91-3.11,1.94-6.18,2.88-9.28a4.24,4.24,0,0,0,.32-2.31c-.94-3-.15-5.89,0-8.85.2-3.55.07-7.12.08-10.68V335.4c4.33,1.06,8.17.54,11.57-1.86,0-.36-.05-.72-.07-1.08a22.3,22.3,0,0,0-2.88-.51c-1.78-.1-3.57.06-5.34-.11a5.48,5.48,0,0,1-5.07-5.61,33.36,33.36,0,0,1,.27-4.36,11.94,11.94,0,0,0-2.31-9.38,12,12,0,0,1-.72-1.27l2.38-3.79c8.53.81,16.17-.81,22.32-7.06,2.08-2.11,4.71-8.64,4.42-11.39a18.59,18.59,0,0,0-1.6,1.81,40.38,40.38,0,0,1-10.37,10.84,16.87,16.87,0,0,1-12.31,2.78,3.4,3.4,0,0,1-2.93-3.34c-.27-4.09-3.34-6.67-5.11-9.9-1.56-2.85-5-3.12-7.81-3.82a19.18,19.18,0,0,0-10.95.83c-3,1-4.6.32-5.41-2.72a21.83,21.83,0,0,0-10-13.52c-2.42-1.49-2.68-2.78-1.27-5.15s2.27-4.5,1.2-7.38c7.85-.12,15.35-.58,21.25-6.1a54,54,0,0,0,7.36-8.12l-.49-.57c-.49.31-1,.59-1.48.91-2.93,1.92-5.83,3.9-8.8,5.77-5.39,3.39-11.51,4.26-17.6,3.8-5.3-.41-9.8-3.3-13.52-7.26-2.81-3-5.78-5.83-8.8-8.58a7.33,7.33,0,0,0-3.22-1.4c-2.39-.55-4.81-1-7.24-1.3a6.18,6.18,0,0,1-4.71-3c-1.17-2-2.62-2.07-4.52-1.31a18.07,18.07,0,0,1-14.12.18c-1.1-.46-2.13-1.07-3.18-1.62a4.25,4.25,0,0,1-2.33-3.87,8.42,8.42,0,0,0-.8-3.09c-1.62,1.48-1.55,3.31-1.63,5.13-.05,1.26.24,2.89-.42,3.69a33.38,33.38,0,0,1-5.38,4.81,3.81,3.81,0,0,1-2.28.57c-2.9,0-4.44,1.67-5.48,4.1-.72,1.69-1.51,3.35-2.36,5.24C300.62,245.21,297.62,244.93,294.55,244.76ZM268.89,426.55h-3.05c-.17-3,2.52-3.38,4.26-4.71C269.71,423.37,269.32,424.89,268.89,426.55Zm15-15.63-13.77,6.37C271.9,413.41,279.62,409.63,283.87,410.92Zm-9.47,15-2.64.57c-.45-3.93,1.23-7.16,4.31-8.12Zm6.05-5.72c-.13,1.11-.16,2.22-.24,3.44l-2.84,1.41c.55-2.86,1-5.23,1.48-7.76l2.27-.87C280.83,418,280.59,419.11,280.45,420.21Zm3.06,1-.55-.31c.3-1.74.59-3.48.9-5.31l2.81-.93.55.46Zm27.83-20.53c.49,1.09,1,2.18,1.46,3.27l-.87.26c-.44-1.08-.87-2.15-1.3-3.23Zm-4.3-4.75c.71.53,1.18.89,1.59,1.21v3.52L307,399.22Zm-2.59-1.95v2.92c-2.11-.58-2.1-2.18-2.29-4.26Zm-4.84-.62-3.38-2.45C297.73,390.92,299.55,390.58,299.61,393.31Zm-4.05-.57,15,13.57-.39.77a16.48,16.48,0,0,1-3.19-.55C301.82,404.52,296.74,398.6,295.56,392.74Zm3.3,33.74c-.71-6.11,4.57-13.19,10.72-14.2A43,43,0,0,0,298.86,426.48Zm6.91.81c-.29-1.75-.52-3.21-.78-4.81l1.45-2.46c.76,2.1,1.35,3.69,2,5.46Zm4.68-3.56c-.71-2.19-1.31-4.05-2-6.2.3-.32.62-.68,1.05-1.16.81,1.78,1.54,3.38,2.33,5.13Zm2.1-6.52c-.49-.81-1-1.63-1.59-2.62l1.32-1.47.53.09.21,3.91Zm13,16.18-2.37-1.66c.05-.15.1-.3.14-.45l3.24.27.23.6Zm1.51,1,3.39-2.49,2.58.41-3.87,3.3Zm8,3.38-3.51-.93,4.84-3.84,2,.6Zm5.26-.88-.32-.37c.46-.71.91-1.43,1.42-2.23l2.75.66c0,.14.07.28.1.42Zm-17.74-8a11.62,11.62,0,0,1,1.71-1.19c5.23-2.49,16.38-.17,20.23,4Zm177.78-57.16c-3.36,22.46-8.56,44.45-17,65.58-.5,1.26-1.74,2.2-2.47,3.39s-1.77,2.52-1.6,3.62c.42,2.63-1,4.39-2,6.38-4.06,1.54-5.27,3.85-3.86,7.22l-2.55,4.2c-7.54,1.66-8.8,3.45-6.67,9.35-2.06,3.62-9.47,11.08-14,14-2.14-.75-3.08.84-4.46,2.35s-3.55,2.28-5.52,3.47c-.57-1.31-.95-2.18-1.37-3.17-2.54.36-2.86,2.38-3.53,4.37l-5.68.64c.49-1.87.88-3.33,1.26-4.78-2.25-2.34-4.41-1.16-7.52,4.2l-4.19-1.09c-.29-4.75-.82-5.79-3-6-.58,1.24-1.19,2.52-1.91,4l-5.28-3.1c-1.47-3.85-1.85-4.16-5.3-4.14-2.52-2.83-5.29-5.84-7.93-9a4.06,4.06,0,0,1-.53-2.42c0-9.41.06-18.81.1-28.21,0-2.45,0-4.89,0-7.54a2.76,2.76,0,0,1,.57-.46c9.84-5.2,18.11-12.66,27.24-18.88,3.5-2.39,6.9-4.94,10.54-7.09a29,29,0,0,1,6.49-2.34c1.77-.53,3.66-.67,5.4-1.28.95-.33,2.33-1.26,2.36-2,.05-1.05-.87-2.18-1.5-3.2-.25-.39-.83-.58-1.29-.9a4.17,4.17,0,0,1,4.34-1.43c4.49.77,9,1.6,13.54,2,7.13.64,13.15-2.38,18.75-6.41,1.28-.92,1-1.89,0-3-3.8-4.14-8.59-5.49-14-5.22-.33,0-.66,0-1,0-.11,0-.22-.11-.66-.36,11.55-7.66,22-16.64,35.23-21.92C501,365.76,500.77,368.75,500.33,371.71Zm-89.59,48.08c1.21-5,9.07-10.57,15.5-11.15Zm64.94-26.89a23.89,23.89,0,0,1-18.58,2.62A46.53,46.53,0,0,1,475.68,392.9Zm-13.23-2.4,3.25-2.68.51.63L463,391.12Zm7.57-2.62,2.39.29c0,.2.07.41.1.61l-4.06,1.72-.38-.68,2.17-1.55Zm-15.68,4.48,5.55-3.13C459,391.78,458.65,392,454.34,392.36Zm34.19-42.82c.51-1.06,2-1.64,3.44-2.12-.4,1.37-.83,2.74-1.18,4.12a3.56,3.56,0,0,0,1.31,4.07,3.81,3.81,0,0,0,4.3.3,9.36,9.36,0,0,0,3-2,8,8,0,0,0,1.49-3.68c.07-.58-1-1.31-1.54-2-.57.52-1.17,1-1.69,1.58-.2.22-.2.61-.35,1.12L495,352.26a8.9,8.9,0,0,1,5.07-8.44,7.54,7.54,0,0,1,3.14,8.05,11.62,11.62,0,0,1-5.64,7.83c-4.63,2.62-9.38,5-14,7.53C483.61,360.94,485.86,355.16,488.53,349.54Zm-15.06,9.89c.13.17.27.33.41.5-6.31,8.11-13.19,15.53-23.52,18.74ZM443,385.17c4.44-2.06,9-3.94,13.42-6a42.89,42.89,0,0,0,20.77-20c1.46-2.8,3.09-5.51,6.39-6.67-1.47,5.16-2.82,10.24-4.39,15.25-.88,2.79-2.9,4.69-5.22,6.53-12.39,9.83-27,14.7-41.86,18.93a7.12,7.12,0,0,1-1,0A43.87,43.87,0,0,1,443,385.17Zm-24.8,18.38c6.28-4.15,13.24-6.92,20.39-9.24,3.94-1.29,7.81-2.77,11.71-4.16l.21.35c-2,1.39-4.05,2.81-6.1,4.19-1.21.81-2.46,1.55-3.68,2.35a2.75,2.75,0,0,0-1.46,3.18c.39,1.45,1.56,1.62,2.83,1.6a15.57,15.57,0,0,1,2,.23c-.6.38-.85.68-1.15.72-3,.47-6,1-9,1.32-7.62.9-14.75,3.11-21.09,7.54-3.58,2.49-4.54,6.53-6.16,10.21a6.41,6.41,0,0,1-2,2.72c-3.38,2.29-6.9,4.4-10.39,6.59-.18-.38-.3-.53-.27-.59,2.79-4.64,5.38-9.43,8.45-13.88C406.4,410.88,412.45,407.34,418.18,403.55ZM386,425.91c3.29-1.59,6.15-4.06,9.2-6.14l.46.32c-.6,1.1-1.2,2.2-1.82,3.29-2,3.44-3.93,6.89-5.93,10.31a3.18,3.18,0,0,1-1.21,1.23c-4.86,2.41-9.75,4.77-14.64,7.14-.09,0-.24-.05-.61-.13.63-.85,1.2-1.63,1.78-2.4a31.26,31.26,0,0,0,2.11-2.88C377.89,432.11,381.05,428.3,386,425.91ZM355,430.62l-.44-.24c.46-1.47.91-2.94,1.39-4.5l2.69-.54.32.37ZM360,413l.44,0,.92,3.32-2.67.88ZM357.73,420l3.62-1.51-.47,4-3.88.21Zm-1.19-5.58-4,12C352.12,421.77,353.75,417.87,356.54,414.37Zm-4.81,34.71c4.57-3.28,9.12-6.58,13.72-9.8,4.29-3,6.79-7.52,9.82-11.58.34-.46.6-1,1-1.71l1.29,1.82c-2.53,3.28-4.83,6.59-7.47,9.61a142.49,142.49,0,0,1-10.39,10.89c-3.37,3.1-8,3.31-12.15,4.5l-.25-.5C348.8,451.23,350.25,450.14,351.73,449.08Zm2.72,5.07c-6.3,6.15-12.34,12.2-21.72,12.68a66,66,0,0,0-7.74,1.29C333.55,460.46,343.08,455.63,354.45,454.15Zm-35.59,26.28a30.72,30.72,0,0,1-3.78,2.16c-4,1.88-5.46,1.2-7-3.66a21.56,21.56,0,0,1,3.37-3c6.9-4,14.6-5.14,22.78-6.19a7.39,7.39,0,0,1-.84,1Q326.1,475.6,318.86,480.43Zm54.87-6.13-1.16-2.92c-2.21.42-2.44,1.42-1.31,5.46l-5,4.17c-4.2-.56-4.94.5-6,3.17-.63.23-1.36.53-2.1.76s-1.4.35-2.13.52c-2.51-1.86-5-2.16-7.46.3l-4.92-1.48c-1.22-2.82-1.73-3.79-5.87-3.51l-4.44-5c2.13-1.39,4.4-2.63,6.38-4.22q10.74-8.62,21.33-17.46a58.51,58.51,0,0,1,15-9.34l7.1,15.8A67.66,67.66,0,0,1,373.73,474.3ZM385,456.09c-.35-.63-.69-1.17-1-1.74-1.7-3.63-3.39-7.27-5.23-11.22l11.92-5.7C390.85,441.14,387.29,452.56,385,456.09Zm6.06,10.7-3.79-6.19c1.51-3.9,2.9-7.52,4.38-11.35v17.3Zm2.54,61.12c-1.47-4.77-4.48-6.54-8.95-5.88l-.13-.52a25.19,25.19,0,0,1,2.94-3c1.84-1.37,1.78-2.9.85-4.68a14.63,14.63,0,0,1-1.21-2.9c3.77,3.5,7.6,2.93,11.57.17-.68,2.24-1.95,4.24-1.62,5.92s2.28,3.05,3.84,5C396.53,521.28,395.1,524.11,393.61,527.91Zm186.76-106-3.8-2.77-.54.31V671.74c-12.2,2.33-18.56,10-21.22,21.65H432.75c2.52,2.72,4.86,4.6,8.7,4.27,4.74-.4,9.53-.09,14.3-.09l101.37,0a10.52,10.52,0,0,0,1.4-.17c1-13.76,9.37-19.9,21.85-22.15ZM194.66,671.71V418.77l-4.15,3.1V675.28c12.54,2.3,21,8.45,21.8,22.17a15.05,15.05,0,0,0,1.52.14c38.75,0,77.51-.07,116.27.07,3.66,0,5.58-1.94,8.16-4.36H216C213.33,681.67,206.94,674,194.66,671.71ZM577,76.39v243l4.14-3.1V72.83c-12.55-2.29-20.94-8.46-21.8-22.17-.5,0-1-.14-1.52-.14-38.76,0-77.52.07-116.27-.07-3.66,0-5.58,1.94-8.17,4.36H555.62C558.32,66.43,564.7,74.1,577,76.39ZM191.29,316.32l4.19,3v-243c12.29-2.24,18.67-10,21.4-21.68H338.8c-2.46-3-5.15-4.58-9-4.24-4.28.37-8.61.08-12.91.08l-102.16,0a13.49,13.49,0,0,0-1.58.15c-.93,13.74-9.28,19.85-21.82,22.17ZM355.56,125.83h59.51V76.19H355.56Zm4.23-45.42H410.9v41.17H359.79Zm77.6,575.85c.62-3,1.11-6.13,1.85-9.15,1.78-7.26,3.69-14.5,5.49-21.75a20.48,20.48,0,0,0,.28-3.26l-3.33-1.27c-2.76,4.64-3.59,9.72-4.75,14.7s-2.35,9.92-3.65,15.43a25.28,25.28,0,0,1-1.77-3.34c-.88-2.71-1.6-5.46-2.42-8.19-.41-1.35-.44-3.16-2.32-3.28s-2.19,1.68-2.72,3c-1.2,3-2.28,6-3.54,9.36-1.6-7.36-3.08-14.28-4.65-21.19a18.43,18.43,0,0,0-1.58-4.47,2.67,2.67,0,0,0-2.08-1.31c-.62.11-1.36,1.2-1.5,2a11.32,11.32,0,0,0,.1,3.76c1.13,6.79,2.29,13.58,3.52,20.35.55,3,1.26,6,1.94,8.93A2.91,2.91,0,0,0,419,659c1.56.13,2.26-.84,2.73-2.11s.87-2.37,1.3-3.55l2.94-8.07c1.72,4,3.37,7.75,4.91,11.52.73,1.77,1.93,3,3.83,2.91S437.07,657.86,437.39,656.26Zm44.54,1.62c1.19,1.79,3.13,1.6,4.85,1.32,1.55-.26,1.82-1.74,2-3.11.06-.66.14-1.32.14-2q-.12-13.9-.26-27.82a4.92,4.92,0,0,0-.32-2.33,3.41,3.41,0,0,0-2.05-1.67c-.6,0-1.65.88-1.88,1.59a13.77,13.77,0,0,0-.53,4.11c-.07,6.43-.08,12.85-.12,19.28,0,.54-.05,1.08-.09,1.63a31.48,31.48,0,0,1-2.2-4.74q-3.54-8.62-7.14-17.24a49.26,49.26,0,0,0-2.29-4.81c-.37-.65-1.12-1.51-1.68-1.5a2.33,2.33,0,0,0-1.69,1.49,27,27,0,0,0-.35,5.32c.26,9.73.58,19.46.88,29.19,0,.46-.07,1.07.18,1.35.68.76,1.44,1.79,2.31,2,1.35.27,2.15-.82,2.3-2.17a24.64,24.64,0,0,0,0-2.58V639.4c1.77,4.47,3.76,9.59,5.84,14.67A21.47,21.47,0,0,0,481.93,657.88Zm-143.66-37c-.53.66-1.42,1.26-1.55,2-.66,3.79-1.16,7.6-1.66,11.4-.36,2.79-.64,5.58-1,8.37-2.39-7.11-4.19-14.34-7.54-21l-3.07-.2c-.17,1.23-.4,2.29-.44,3.35-.25,8.67-.46,17.34-.68,26,0,1.65-.13,3.3-.1,5,0,1.23.21,2.56,1.8,2.6s1.93-1.25,2-2.47q.54-7.43.94-14.84c.1-1.84,0-3.69,0-5.53l.59-.08c.61,2.48,1.27,5,1.83,7.45,1,4.33,1.85,8.68,2.88,13,.47,2,2.07,3.38,3.35,3.09,1.9-.42,1.81-2.06,1.95-3.49.73-7.45,1.5-14.89,2.12-22.34a98.23,98.23,0,0,0,.29-10.29C340.05,622.19,338.9,621.56,338.27,620.91ZM503.55,660a42.51,42.51,0,0,0,6.18-4.28c9.39-8,8.58-24-.66-30.25-4.94-3.32-10-3.29-15.28-1.1-.66.27-.92,1.51-1.37,2.3a10.7,10.7,0,0,0,2.26,1.15,10.37,10.37,0,0,0,2.56-.09c0,.57.07.89.07,1.2-.14,9.07-.31,18.13-.41,27.19C496.85,660.29,499.88,662.08,503.55,660Zm-1.62-32.15c1.95-.18,3.39.81,4.72,2,6,5.45,6.08,16,0,21.93-1.31,1.27-2.84,2.31-4.27,3.46l-.48-.34ZM251.28,651.92c3.48-8,4.23-16.07.85-24.27a9.07,9.07,0,0,0-4.85-5.29c-1.21-.49-3.06-.93-3.95-.36a26.7,26.7,0,0,0-6.87,5.78c-4.37,5.73-5.15,12.57-4.35,19.48a22.08,22.08,0,0,0,2.93,8.5c2.65,4.45,7.09,5.11,11.45,2.29a9.76,9.76,0,0,1,.91-.44c.34.69.62,1.29.92,1.87.6,1.15,1.44,2,2.84,1.51s1.39-1.83,1-3c-.49-1.37-1.12-2.68-1.69-4.05a3.23,3.23,0,0,1,.15-.56C250.81,652.87,251.07,652.41,251.28,651.92ZM248,648.79a9.18,9.18,0,0,0-1.27-2.12c-.72-.62-1.76-1.6-2.4-1.44-1.4.36-1.07,1.76-.74,2.85s.85,2.37,1.27,3.55c.17.5.3,1,.44,1.43-2.59,3.29-5.51,3.16-7.41-.41A21.69,21.69,0,0,1,236,637.78a48.3,48.3,0,0,1,3.2-9.33c.58-1.38,1.92-2.43,2.69-3.36,5,.14,6.74,3.12,7.59,7A27.32,27.32,0,0,1,248,648.79Zm198.78,10a3.92,3.92,0,0,0,1.77-2.15c.84-2.35,1.46-4.78,2.19-7.25.78-.06,1.43-.14,2.07-.15,1.91,0,3.83,0,6,0,.16.8.25,1.45.43,2.07.67,2.33,1.24,4.71,2.13,7,.26.64,1.49.9,2.27,1.34a7.06,7.06,0,0,0,1.1-2.24,10.5,10.5,0,0,0-.38-3.33c-2.47-10.15-4.94-20.3-7.53-30.43-.21-.85-1.22-1.51-1.86-2.26-.75.72-1.9,1.31-2.2,2.18-1.33,4-2.46,8-3.57,12-.84,3-1.55,6.12-2.32,9.18l-.56-.48c-1.21.94-3,1.65-3.49,2.87-.74,1.9,1.59,1.88,2.82,2.53-.55,2.09-1.16,4-1.57,6C443.63,657.84,445.1,659.56,446.77,658.83Zm7.85-27.15h.45c.91,3.94,1.82,7.89,2.78,12.08l-5.78.43Zm-76.69.63a11.4,11.4,0,0,0-1.41-2.87h.07a32.93,32.93,0,0,0-2-5.07c-2.22-3.76-6.28-4.18-9.37-1.1a21.91,21.91,0,0,0-1.84,2.33c-3.68,4.77-4,10.45-4,16.08s1.21,11.19,5.28,15.61c2.7,2.94,6.17,3.1,8.78.08a18,18,0,0,0,3.06-5.27C378.89,645.67,379,639,377.93,632.31Zm-6,19.38a29.44,29.44,0,0,1-2.87,4.1c-1.1-1.52-2.06-2.39-2.45-3.46a32.89,32.89,0,0,1,.59-24.55,5.76,5.76,0,0,1,.38-.69c1.73-2.9,3.25-2.92,5.07-.05.6,1,1.12,1.94,1.51,2.63,0,1.7-.1,2.94,0,4.15C374.84,640,374.49,646,371.94,651.69Zm155,4.1c-2.63.32-4.18-1-4.52-3.92-.24-2-1.35-3.22-2.92-3.09s-2.59,1.62-2.36,3.72c.53,4.89,3.84,7.77,9.07,7.89a9.91,9.91,0,0,0,10.19-10.3c-.13-4.78-2.33-8.34-5.89-11.43a45.42,45.42,0,0,1-5.92-6.81c-1.09-1.43-.38-2.91.69-4.15a2.47,2.47,0,0,1,3.58-.35c1.4,1,2.56,2.33,3.88,3.47a26,26,0,0,0,2.16,1.52c.28-.87.9-1.77.79-2.58-.38-2.66-2.34-4.21-4.5-5.47-3.36-2-6-1.81-8.61.43a8.45,8.45,0,0,0-2.57,9.15A18.87,18.87,0,0,0,526.7,643a10.33,10.33,0,0,1,4.63,7.54A4.68,4.68,0,0,1,526.9,655.79ZM273.77,625.91c-.24,3-.22,6-.74,8.9-1.09,6.1-2.4,12.16-3.79,18.2-.26,1.16-1.31,2.14-1.93,3.09-2.29-.62-3.07-1.38-3.24-3.85-.35-5.07-.5-10.16-.64-15.25-.12-4-.1-8.07-.16-12.1,0-1.32-.48-2.21-2.25-1.66a7.65,7.65,0,0,0-.58,2c-.31,8.72-.7,17.44-.74,26.16a12.07,12.07,0,0,0,2,6.1c2.35,3.72,7,3.74,9.68.24a12.62,12.62,0,0,0,1.84-3.48c3.16-9.11,3.94-18.6,4.38-28.13.05-1.22-.28-2.37-1.7-2.49S273.88,624.61,273.77,625.91Zm57.46-70.26c.17,2.63.77,5.23,1.2,7.84.32,1.91.66,3.82,1,5.73a3.75,3.75,0,0,0,.9-2.06c.62-3.79,1.44-7.56,1.77-11.37.32-3.65,2.36-5.63,5.48-6.79,1.85-.69,3.8-1.13,5.7-1.68.44-.13.89-.28,1.44-.46-2.88-1-5.61-1.72-8.21-2.79a6.28,6.28,0,0,1-4.27-5.69,46.9,46.9,0,0,0-.78-5.1c-.49-3-1-5.95-1.51-8.93h-.41a14.16,14.16,0,0,0-.38,1.42c-.66,4-1.54,7.94-1.87,12-.3,3.58-2.22,5.56-5.25,6.75-1.89.75-3.91,1.19-5.87,1.76l-1.69.46c2.86.93,5.53,1.67,8.09,2.68A6.77,6.77,0,0,1,331.23,555.65ZM509.41,155.06c.37-.11.73-.25,1-.33-2.88-1-5.78-1.91-8.54-3.12a5.91,5.91,0,0,1-3.78-5.38,47.77,47.77,0,0,0-.81-5.3c-.48-2.89-1-5.77-1.47-8.66a1.5,1.5,0,0,0-.77,1.07c-.68,4.18-1.51,8.35-2,12.55a6.77,6.77,0,0,1-4.08,5.86,48.11,48.11,0,0,1-5.38,2,28.79,28.79,0,0,1-3.12.69c3.07,1.13,6.09,2.08,9,3.35A5.91,5.91,0,0,1,493,163.1c.18,2.23.68,4.44,1,6.66.39,2.45.79,4.9,1.18,7.35h.5c.14-.68.3-1.36.42-2,.61-3.78,1.44-7.56,1.77-11.37.31-3.65,2.35-5.65,5.44-6.84C505.3,156.08,507.38,155.64,509.41,155.06ZM281.4,656.5a15.49,15.49,0,0,0,.75,3.61c1.05.08,1.77.2,2.48.18,3.05-.1,6.09-.23,9.13-.37s4.11-.86,4-2.45-1.45-2.43-4.2-2.26-5.35.57-7.95.86V643c1.07,0,1.86.05,2.63,0a28.75,28.75,0,0,0,5.11-.54,2.7,2.7,0,0,0,1.65-2c0-.62-1.14-1.42-1.93-1.72a6,6,0,0,0-2.55,0c-1.55.16-3.1.38-5,.61V625.94c.52,0,1.23,0,1.93,0,2.72,0,5.43.17,8.14.13,1.2,0,2.45-.62,2.15-2-.17-.78-1.3-1.36-2-2-.16-.14-.51-.1-.77-.09-3.57.16-7.14.27-10.7.55a8,8,0,0,0-2.45,1.11l.36.59a21.3,21.3,0,0,1,.28,2.86C282.11,636.92,281.7,646.71,281.4,656.5Zm24.47,4c2.31-.14,4.61-.39,6.91-.59a9.32,9.32,0,0,0,2.93-.32c.76-.35,1.82-1.37,1.74-2a3.24,3.24,0,0,0-1.88-2.09,8.66,8.66,0,0,0-3.34-.09c-1.68.09-3.35.28-5.17.44V643.13c2.09-.12,4.06-.14,6-.39,1.47-.18,3.4-.35,3.26-2.41-.14-1.89-2-1.84-3.41-1.92a16,16,0,0,0-2.19.07c-1.16.09-2.33.22-3.83.36V626.53c2.49-.14,5.13-.16,7.72-.52.71-.1,1.28-1.24,1.92-1.89-.67-.61-1.34-1.73-2-1.73-3.36,0-6.73.17-10.09.41-1.17.08-2,.77-1.71,2.69l1,.53c-.17,3.59-.29,7-.5,10.32-.11,1.66-.41,3.3-.58,4.64.83,6.44.11,12.64,0,19.32A27.46,27.46,0,0,0,305.87,660.48Zm121.87,38.14a12.4,12.4,0,0,0-4.08-1.43c-2.58-.44-5.2-.65-8-1,.47-1.05,1-2.05,1.34-3.08.5-1.34.83-2.74-.45-3.85s-2.64-.77-3.92-.11a15.39,15.39,0,0,0-7.77,8.39,10.22,10.22,0,0,0-.63,3.87c.21,5,3,8.62,6.39,11.91a7,7,0,0,0,2.17,1.37c2.13.89,4.07-.31,3.88-2.6a22.47,22.47,0,0,0-1.39-4.9,15.12,15.12,0,0,0-1-1.89,22.14,22.14,0,0,0,3.39,0c3.24-.52,6.51-1,9.69-1.84a2.55,2.55,0,0,0,.31-4.83Zm-12.64-7.23c-1.19,2.05-2.18,3.74-3.08,5.28l-4.27.87C409.37,694.23,412.05,691.86,415.1,691.39Zm-1.6,20.12c-2.71-1.64-4.23-4.29-6.08-7.45l3.86.86c.89,2,1.83,4.13,2.78,6.25C413.87,711.28,413.68,711.39,413.5,711.51Zm-6.2-10.45a30.43,30.43,0,0,1,18.64.15A31.59,31.59,0,0,1,407.3,701.06ZM346.2,50.48c3.16.63,6.36,1,9.68,1.54a11.71,11.71,0,0,0-1.26,3.08,5.7,5.7,0,0,0,.45,3.62c.9,1.32,2.52.9,3.81.25a15.22,15.22,0,0,0,7.88-8.5,10.74,10.74,0,0,0,.56-4.07c-.21-4.73-3-8.18-6.07-11.41a3.8,3.8,0,0,0-1.59-1.15c-1.15-.26-2.73-.76-3.45-.23A4.44,4.44,0,0,0,355,37a14.82,14.82,0,0,0,1.41,4.07,14.08,14.08,0,0,0,.65,1.3c-3.71.51-7.36.88-11,1.57-1.75.33-4,.83-3.86,3.25C342.36,49.4,344.38,50.12,346.2,50.48Zm11.18,6.33-.62-.44,2.86-4.95,4.45-.86C362.3,53.52,360.34,55.72,357.38,56.81Zm6.35-12.87-3.37-.76-2.89-6.52C360,37.37,363,41.08,363.73,43.94Zm.65,3.12a30.17,30.17,0,0,1-18.65-.19A31.78,31.78,0,0,1,364.38,47.06Zm-6.71,642a3.93,3.93,0,0,0-3.41.43c-.65.54-.71,2.14-.55,3.2a15.78,15.78,0,0,0,1.33,3.43c-3.33.52-6.54.91-9.7,1.56-1.82.37-3.84,1.09-3.9,3.35s2.08,2.81,3.77,3.13c3.62.69,7.29,1.08,11,1.6a48.27,48.27,0,0,0-1.9,4.53c-.48,1.55-.63,3.24,1,4.31a3.14,3.14,0,0,0,4.16-.72,39.65,39.65,0,0,0,5.17-6.2C369.83,699.49,364,691.79,357.67,689Zm-.87,22.14c.91-2.07,1.83-4.15,2.73-6.22l3.41-.78C362.28,706.82,359.49,710.33,356.8,711.17Zm-11.86-9.81c2.47-2.19,14.85-2.42,18.78-.28C359.84,703,348.47,703.12,344.94,701.36Zm13.95-4.66c-.89-1.5-1.91-3.23-2.94-5l.62-.45c3,1.07,4.93,3.28,6.71,6.26ZM172.57,340.22a42.53,42.53,0,0,0,7.39,5.85c8.13,4.55,15.85-2.47,17.73-8.08.83-2.49-.93-4.23-3.48-3.56a37.32,37.32,0,0,0-3.93,1.53c-.33-2.75-.54-5.38-1-8a12.4,12.4,0,0,0-1.43-4.08c-1.42-2.4-3.61-2.24-4.82.26a10.07,10.07,0,0,0-.95,2.8c-.48,3.37-.83,6.75-1.23,10.1-1.52-.62-3.17-1.43-4.91-1.95-1.49-.45-3.11-.46-4.08,1.11A3.08,3.08,0,0,0,172.57,340.22Zm17.27-.54,4.84-2.85.45.57c-.9,3.08-3.27,4.91-6.2,6.8C189.26,342.54,189.52,341.27,189.84,339.68Zm-5-14.23c2.46,3.06,2.65,15.44.35,19.41C183.37,338.29,183.62,332.06,184.89,325.45Zm-9.63,12.27,6.25,2.62c.29,1.22.55,2.29.82,3.36l-.53.54-7.08-5.61Zm7.11,68.83c.32,1.69.85,3.81,3.15,3.74s3-2.08,3.33-3.9c.64-3.16,1-6.37,1.57-9.77.9.42,1.83.9,2.8,1.26,1.39.51,2.85.94,4-.43s.7-2.79,0-4.09a15.18,15.18,0,0,0-7.94-7.42,11.84,11.84,0,0,0-4.62-.71c-4.67.18-8.1,2.9-11.24,6-2,2-2.44,3.95-1.5,5.27s2.92,1.58,5.48.56c1.24-.5,2.43-1.13,3.34-1.56C181.29,399.27,181.68,402.93,182.37,406.55Zm12.82-11.4c-.14.21-.29.41-.44.62l-4.94-2.88c-.33-1.71-.57-2.91-.87-4.45C191.9,390.24,194.13,392.18,195.19,395.15Zm-9.74-7a30.31,30.31,0,0,1-.17,18.65A31.46,31.46,0,0,1,185.45,388.17Zm-10.2,6.76-.32-.56c1.78-2.63,4.31-4.35,7.5-6-.36,1.53-.59,2.55-.89,3.8Zm392.9,243.19c-.1-2.22-2.12-2.94-3.94-3.3-3.16-.63-6.36-1-9.7-1.54a12.3,12.3,0,0,0,1.26-3.06,5.86,5.86,0,0,0-.43-3.63c-.88-1.32-2.51-.93-3.8-.28a15.23,15.23,0,0,0-7.9,8.49,10.92,10.92,0,0,0-.54,4.26c.27,4.8,3.1,8.28,6.33,11.48a6.69,6.69,0,0,0,2.17,1.36c2.12.88,4.07-.33,3.87-2.6a22.23,22.23,0,0,0-1.39-4.89,8.93,8.93,0,0,0-.78-1.5c3.72-.51,7.38-.87,11-1.55C566,641,568.25,640.53,568.15,638.12Zm-14.77-9.63c-.24,2.34-1.59,3.87-3,5.44l-3.94.8C548.14,631.47,550.46,629.35,553.38,628.49Zm-1.18,20.28a19.07,19.07,0,0,1-5.91-7.5l3.76.85,2.75,6.31ZM545.51,638a38.65,38.65,0,0,1,19.38.06C562.49,640.31,549.64,640.32,545.51,638Zm43-311.77c-.33-1.73-.8-4-3.22-3.89-2.24.07-2.95,2.09-3.31,3.91-.64,3.16-1,6.36-1.56,9.75-.93-.42-1.86-.91-2.83-1.27-1.39-.51-2.86-.93-4,.45s-.69,2.79,0,4.1a15.27,15.27,0,0,0,7.76,7.33,12.27,12.27,0,0,0,4.81.77c4.52-.14,7.87-2.78,11-5.72,2.21-2.11,2.75-4.19,1.75-5.57s-3-1.56-5.86-.37c-1.1.47-2.17,1-3,1.39C589.56,333.38,589.21,329.77,588.53,326.22Zm-12.88,11.22.44-.61,4.95,2.88c.34,1.71.58,2.92.88,4.47C579,342.36,576.71,340.43,575.65,337.44Zm9.52,7.46a38.59,38.59,0,0,1,0-19.36C587.48,328.08,587.48,340.94,585.17,344.9Zm10.42-7.23.37.62c-1.83,2.56-4.36,4.26-7.55,6,.36-1.57.6-2.58.89-3.84Zm-4.08,49.17c-8.18-4.91-15.88,1.46-18.23,7.51a3.69,3.69,0,0,0,.6,3.2c.55.61,2,.68,3,.5a19.63,19.63,0,0,0,3.8-1.5,20,20,0,0,0,.14,2.67,72.39,72.39,0,0,0,1.74,8.7,3.78,3.78,0,0,0,2.78,2.25c.91,0,2.32-1.37,2.61-2.39a69.06,69.06,0,0,0,1.63-8.72,26.88,26.88,0,0,0,0-3.71c1.81.77,3.34,1.57,5,2.07s3.23.63,4.3-1a3.13,3.13,0,0,0-.71-4.16A40,40,0,0,0,591.51,386.84Zm-16,8.63c1.17-3.29,3.45-5.17,6.05-6.89C581.84,392.44,580.4,394.38,575.53,395.47Zm10.12,11.35a29.83,29.83,0,0,1-.25-18.68C587.51,394.33,587.14,400.56,585.65,406.82Zm3.65-14.63-.76-3.31c2.47.38,6.35,3.46,7.41,6.2Zm-175-333a3.74,3.74,0,0,0,3.21-.59c.61-.56.67-2.06.5-3.06a18.49,18.49,0,0,0-1.43-3.63c2.79-.34,5.49-.53,8.13-1A12.47,12.47,0,0,0,429,49.14c1.86-1.23,1.67-3.22-.3-4.28a10.55,10.55,0,0,0-3.35-1.18c-3.3-.5-6.64-.82-10-1.21.61-1.46,1.42-3,1.94-4.72.45-1.48.57-3.1-.93-4.16a3.05,3.05,0,0,0-4.16.62,39.39,39.39,0,0,0-5.5,6.69C401.81,49.11,408.22,56.83,414.26,59.18Zm-.36-22.85.9.54-2.67,6.29-3.32.76-.53-.5Zm12.82,10.54a30.19,30.19,0,0,1-18.68.19A31.88,31.88,0,0,1,426.72,46.87ZM415.38,56.94c-3.27-1.2-5.19-3.44-6.87-6.06C412.36,50.63,414.31,52.08,415.38,56.94ZM213.05,653.7a4.42,4.42,0,0,0,3.77-.53,32.5,32.5,0,0,0,5.49-6.39c5.18-8.11-.6-15.78-7-18.58a3.79,3.79,0,0,0-3.39.43c-.67.64-.68,2.26-.52,3.38a14.11,14.11,0,0,0,1.34,3.37c-2.82.34-5.53.52-8.17,1a12.47,12.47,0,0,0-4.5,1.87c-1.65,1.13-1.44,3,.32,4a10.12,10.12,0,0,0,3.32,1.24c3.37.51,6.76.84,10.09,1.24-.61,1.57-1.43,3.29-2,5.09C211.46,651.34,211.46,653.13,213.05,653.7Zm1.26-2.93c1.09-2.48,2-4.61,2.91-6.65l3.31-.77C220.13,645.85,217.06,649.71,214.31,650.77Zm6.48-14.42c-3.72.39-6.21-1.69-6.86-6C217.22,631.49,219.08,633.79,220.79,636.35Zm-18.64,3.76a38.23,38.23,0,0,1,19.35-.2C218.6,642.21,205.69,642.39,202.15,640.11Zm383.68,57.35c-1.93-2.49-4-4.85-6.06-7.25,1.09-.38,2.36-.74,3.55-1.26,2.74-1.17,3.9-2.66,3.57-4.4-.31-1.58-2-2.77-4.86-2.48a51.74,51.74,0,0,0-9.6,2,7.7,7.7,0,0,0-3.53,2.7c-3.33,4.39-3.48,9.31-1.58,14.28a3.76,3.76,0,0,0,2.69,2.1c.93,0,2.1-1.1,2.76-2a15.38,15.38,0,0,0,1.42-3.5c2,1.57,3.71,3.21,5.69,4.5a16.24,16.24,0,0,0,5.15,2.36c2.29.51,3.52-1.14,2.71-3.38A13.41,13.41,0,0,0,585.83,697.46Zm-2.44-12.27c.06.22.12.44.19.66l-6.5,2.65-3.29-2.1C577.2,685.29,580.23,684.63,583.39,685.19Zm-13.62,15.32c-1.48-3-1.27-6-.61-9.31C573,694.77,571.6,698.37,569.77,700.51Zm1.69-12.14c6,2.84,10.25,7.44,13.61,13A29.8,29.8,0,0,1,571.46,688.37Zm-384-635.43c1.34,1.75,3,3.26,4.43,4.8-1.72.74-3.46,1.36-5.09,2.21-1.4.74-2.48,1.9-2.06,3.68a3,3,0,0,0,3.33,2.29,43.91,43.91,0,0,0,9-1.07c8.93-2.38,9.78-12.45,7.08-18.26-1.16-2.49-3.69-2.5-5.07-.11a33.29,33.29,0,0,0-1.68,4c-1.58-1.32-3.06-2.75-4.74-3.9a24.78,24.78,0,0,0-5.37-2.87,3.32,3.32,0,0,0-3,.63,3.43,3.43,0,0,0-.21,3.06A29.79,29.79,0,0,0,187.51,52.94Zm.75,10c-.07-.21-.13-.42-.19-.63l6.46-2.67,3.39,2.1C194.5,62.77,191.45,63.5,188.26,62.91Zm13.32-15.13c1.55,1.63,1.82,4.31.85,9.13C199.53,53.3,199.34,50.86,201.58,47.78Zm-1.17,12.47a40.45,40.45,0,0,1-14.24-13.42C189.75,46.9,198.9,55.48,200.41,60.25ZM570.27,62c3.89,3.57,8.73,4.38,13.82,4,1.55-.11,3.11-.55,3.55-2.33.48-2-.84-3.13-2.36-3.9s-3.22-1.35-4.51-1.87c2.23-2.85,4.61-5.67,6.72-8.68,1-1.45,2.3-3.37.59-5s-3.56-.67-5.12.35c-2.75,1.8-5.35,3.82-8.05,5.76a14.26,14.26,0,0,0-1.38-3.42c-.66-.9-1.89-2-2.81-1.95a3.75,3.75,0,0,0-2.61,2.2,21.2,21.2,0,0,0-1.1,6.37A10.88,10.88,0,0,0,570.27,62Zm14.28.34c-2.08,1.22-5.58.94-9.93-.63l3.24-2.05Zm1.16-15.71c-.07,3-9.12,11.92-13.6,13.26C573.63,55.62,581.37,48.15,585.71,46.59Zm-15.12,1c2.27,3.27,2.82,6-.64,9.32C569.29,53.61,569.09,50.59,570.59,47.57ZM201.4,686.16c-3.94-3.5-8.72-4.41-13.81-4-1.62.11-3.24.56-3.61,2.49s.91,3,2.36,3.72,3.23,1.36,5,2.07c-.48.43-.91.82-1.33,1.22a26,26,0,0,0-6.77,9.19c-1,2.64.33,4.38,3.06,3.64a18.25,18.25,0,0,0,5.24-2.66c1.82-1.22,3.43-2.75,5.17-4.17a15.1,15.1,0,0,0,1.42,3.59c.67.91,1.88,2,2.8,2a3.86,3.86,0,0,0,2.65-2.16,14.59,14.59,0,0,0-.24-12.11A8.44,8.44,0,0,0,201.4,686.16Zm-14.09-.28.26-1.09,9.2,1.16c0,.2,0,.4.07.59l-3,1.94Zm-1.66,15.64c1.38-4,9.31-11.62,13.61-13.26C199.12,691.44,190.22,700.21,185.65,701.52Zm15.46-.94c-2.6-2.88-2.38-6,.56-9.33A14,14,0,0,1,201.11,700.58ZM383.34,622a26.11,26.11,0,0,0-.6,4c-.06,9.47,0,18.94,0,28.41A12.88,12.88,0,0,0,383,657a2.09,2.09,0,0,0,2.49,1.74c1.9-.11,2.44-1,2.42-3.51,0-4.41,0-8.83,0-13.38,1.65,0,3,.1,4.27,0,1.56-.14,2.7-1,2.53-2.7s-1.54-2.14-3.08-2.07l-3.8.21c-.21-4.06-.4-7.84-.6-11.68,3.62-.34,7.09.41,10.3-1.59,0-.62-.08-1.24-.13-2C392.73,620.36,388.21,620.77,383.34,622ZM378.47,57.37a2.64,2.64,0,0,0,2.3.34c.42-.17.7-1.33.63-2-.37-3.39,1.18-5.94,4.61-7.24,3.85,1.16,5.28,3.43,4.95,7.51a2.09,2.09,0,0,0,.62,1.69,2.73,2.73,0,0,0,2,0,3.79,3.79,0,0,0,1.34-1.14,11.27,11.27,0,0,0,1.34-13.11,11.41,11.41,0,0,0-12.1-5.64c-5.18,1.14-9,5.17-9.38,10A10.58,10.58,0,0,0,378.47,57.37Zm3.12-14.52c2.91-2.17,6.09-2.16,9.18,0a6.69,6.69,0,0,1,2.75,7.92c-4.19-7.93-11-6.93-14.57,0A6.86,6.86,0,0,1,381.59,42.85ZM576.67,371.1a2.37,2.37,0,0,0-2,.74c-.28.53.08,1.45.3,2.16.1.34.51.6.79.87a11.33,11.33,0,0,0,13.1,1.56,11.54,11.54,0,0,0-4.23-21.58,10.58,10.58,0,0,0-9.58,3.7,2.67,2.67,0,0,0-.32,2.3c.17.43,1.33.7,2,.63,3.38-.37,5.94,1.19,7.23,4.62C582.84,369.89,580.39,371.48,576.67,371.1Zm5-12c2.3-1.12,5.31-.36,7.39,1.87a7.27,7.27,0,0,1,1,9.12c-2,3.28-4.8,4.5-8.6,3.52C589.59,369.52,588.54,362.51,581.66,359.11ZM393.39,690.91a3.18,3.18,0,0,0-2.46-.54c-.39.11-.72,1.42-.64,2.14.37,3.39-1.41,6-5.08,7.13-3.52-1.33-4.89-3.69-4.55-7.43a2.25,2.25,0,0,0-.69-1.83,2.46,2.46,0,0,0-2,.12A4.61,4.61,0,0,0,376.4,692a11,11,0,0,0-1.3,12.12c1.87,4,6.68,6.88,10.8,6.52a11.55,11.55,0,0,0,10.31-7.53C397.92,698.9,396.66,693.54,393.39,690.91Zm-2.54,13.64c-3,2.63-6.43,3-9.47,1.11a7.26,7.26,0,0,1-3.26-8.55c3.65,7.24,10.61,8,14.51.21A6.4,6.4,0,0,1,390.85,704.55Zm-196.59-343c.62.06,1.64-.23,1.84-.66a3.11,3.11,0,0,0-.2-2.16,3.88,3.88,0,0,0-1.2-1.3,11.49,11.49,0,1,0-13.92,18.26c4.59,3.33,11.37,2.74,14.78-1.38a3.19,3.19,0,0,0,.58-2.45c-.1-.4-1.41-.76-2.13-.68-3.41.37-6-1.36-7.15-5C188.15,362.6,190.56,361.18,194.26,361.53Zm-5,12a6.57,6.57,0,0,1-7.68-2.38c-2.39-3.14-2.54-6.34-.43-9.33a7,7,0,0,1,8.09-2.86C181.48,363.28,182,369.92,189.21,373.57ZM328.54,275.2a26.27,26.27,0,0,1,11.34,2.41,77,77,0,0,1-10.1,2.55c-1.87.34-3.84.22-5.71.58-.71.14-1.27,1.07-1.9,1.64.61.59,1.19,1.61,1.85,1.68a12.23,12.23,0,0,0,4.87-.32c4.27-1.42,8.42-3.16,12.65-4.68a29.18,29.18,0,0,1,4-.94c1.42-.3,2.85-.56,4.28-.84,0-.3,0-.6,0-.9a13.6,13.6,0,0,0-1.93-.72c-2.7-.64-5.49-1-8.1-1.89-4.89-1.69-9.91-2.14-15-2.44-3.8-.22-7.58-.88-11.37-1.31a18.91,18.91,0,0,0-2.13,0c-.08.22-.15.44-.23.67,2.7,1.71,5.09,4.1,8.46,4.46A62.79,62.79,0,0,0,328.54,275.2Zm18.8,31.46c2,3.88,8.6,5.29,12.47,2.8a11.82,11.82,0,0,0,4.7-14.93A8.78,8.78,0,0,0,354,289.3a11.56,11.56,0,0,0-2.1,1.13c7.05,3.41,8.79,5.57,7.8,10.42C358.21,308,352.45,306.75,347.34,306.66Zm-40-46.81c-.38,1.71.87,2.38,2.1,2.38a21.24,21.24,0,0,0,6.43-.69c11.64-3.74,23-2.89,34.12,1.86a23.92,23.92,0,0,0,2.36.74C347.16,255.77,316.82,253.14,307.34,259.85Zm-54,100.39c-2.71-.74-4.57-2.05-4.63-5.29a40.1,40.1,0,0,0-1.07-6.27,20.7,20.7,0,0,0-1.35,5.42c-.56,4.31-1.6,5.48-5.9,6.46L239,361a4.8,4.8,0,0,0,1,.45c4.32.63,6.48,3,6.48,7.49a24.2,24.2,0,0,0,.86,4.54,24,24,0,0,0,1.49-6.69,4.73,4.73,0,0,1,3.48-4.52c1.07-.42,2.2-.7,3.8-1.2C254.85,360.66,254.12,360.44,253.38,360.24Zm24.84,174.52c-.37-.06-.74-.1-1.1-.17-3.86-.74-5.09-2-5.76-5.82-.37-2.07-.73-4.14-1.1-6.21a20.74,20.74,0,0,0-1.41,6.08c-.2,3.3-2,5-5,5.71l-2.36.54a6.38,6.38,0,0,0,1.3.57c4.19.61,6.21,3,6.25,7.24a26.24,26.24,0,0,0,.87,4.75,27.44,27.44,0,0,0,1.52-6.84,4.62,4.62,0,0,1,3.39-4.37c1.14-.42,2.32-.78,3.48-1.17Zm215-230.45a51.71,51.71,0,0,0-1.19-6.95c-.35.9-.54,1.26-.63,1.63a7.76,7.76,0,0,0-.14,1.18c-.49,4.83-.93,9.69-7.71,9.92a7.87,7.87,0,0,0,2,.82c2.85.73,4.87,2.12,5.08,5.43.14,2.14.66,4.25,1,6.37a23.48,23.48,0,0,0,1.57-6.81,4.71,4.71,0,0,1,3.34-4.43c1.12-.46,2.31-.76,3.86-1.26l-3.05-.89C494.94,308.57,493.34,307.23,493.25,304.31ZM284,117.64a49.61,49.61,0,0,0-1-6,3.31,3.31,0,0,0-.8,1.76c-.54,4.58-.61,9.47-7.55,9.58.67.46.8.63,1,.65,4.36.57,6.21,3.17,6.26,7.43a21.12,21.12,0,0,0,.79,4,28.72,28.72,0,0,0,1.41-6.5,4.53,4.53,0,0,1,3.37-4.17c.95-.34,1.93-.62,3.39-1.08-1.18-.37-1.83-.62-2.51-.79C285.73,121.88,284.12,120.55,284,117.64ZM467.39,525.82a31.43,31.43,0,0,0,.87,4.75,12.14,12.14,0,0,0,.94-3.33,27.29,27.29,0,0,0,.49-3.33,4.24,4.24,0,0,1,3-4c1.15-.44,2.33-.8,3.93-1.36l-1.35-.27c-3.88-.72-5-1.8-5.68-5.64-.35-1.89-.67-3.79-1-5.69a28.11,28.11,0,0,0-1.55,6.71,4.38,4.38,0,0,1-3.18,3.88c-1,.4-2.13.65-3.34,1a1.52,1.52,0,0,0,.32.28,2.56,2.56,0,0,0,.73.3C465.46,519.68,467.29,521.91,467.39,525.82ZM301.06,314.43c2.39,1.18,6.69.57,8.54-1.37a5.79,5.79,0,0,0,1.18-6.61c-1.12-2.68-2.92-4.74-6-5.19-.53-.08-1.12.35-2.36.78,1.66,1.43,2.83,2.5,4.07,3.49s2.61,2.1,1.65,4.12a3.7,3.7,0,0,1-4.6,2.33c-.58-3-1.73-4.4-4.22-4.63A7.16,7.16,0,0,0,297,308c0,.24.07.47.1.7l3.07,1.85C299.91,312.15,299.32,313.58,301.06,314.43Zm104.37-13.36a5.12,5.12,0,0,0-.82-5.92c-.3.64-.48,1.06-.69,1.46-.95,1.78-2,3.52-2.85,5.36a26.28,26.28,0,0,0-2,5.5,3.08,3.08,0,0,0,2.27,3.54c1.63.54,3.39,1,5-.41-.21-.42-.24-.57-.33-.64a3.59,3.59,0,0,0-.65-.45c-2.46-1.25-2.79-1.95-1.83-4.52C404.07,303.64,404.86,302.4,405.43,301.07Zm-73.85-38a16.05,16.05,0,0,0-7.13.46,4.14,4.14,0,0,0-2.94,4.89,7.4,7.4,0,0,0,1.64-.85,9.65,9.65,0,0,1,11.63-1.37c1.34.72,2.62,1.54,4,2.23a10.29,10.29,0,0,0,1.83.59l.34-.52c-.5-.62-.88-1.48-1.54-1.82C336.84,265.37,334.32,263.74,331.58,263.1ZM182.74,434.53c-1.46,0-2,1-2,2.37a2,2,0,0,0,2.17,2.25,1.85,1.85,0,0,0,2-2.13C184.85,435.63,184.26,434.54,182.74,434.53Zm405.3,0c-1.52.07-2.08,1.16-2.12,2.57s.89,2.22,2.07,2c.91-.18,1.66-1.17,2.49-1.79C590.1,435.45,589.5,434.46,588,434.53Zm-403.91-9.29c-.5-.47-2-.63-2.38-.26a3.51,3.51,0,0,0-.74,2.73c.38,1.56,1.76,1.49,3.26,1.11A2.48,2.48,0,0,0,184.13,425.24Zm405.71,2.47a3.48,3.48,0,0,0-.74-2.73c-.33-.37-1.89-.21-2.38.25a2.44,2.44,0,0,0-.08,3.61C588.07,429.19,589.46,429.27,589.84,427.71ZM587.64,313a2.43,2.43,0,0,0,2.39.07,3.5,3.5,0,0,0,.53-2.79c-.48-1.54-1.87-1.31-3.16-.95A2.43,2.43,0,0,0,587.64,313Zm-402.82,0a2.45,2.45,0,0,0,.16-3.73c-1.23-.24-2.64-.53-3.11,1a3.55,3.55,0,0,0,.55,2.79A2.49,2.49,0,0,0,184.82,313Zm0,133.49a2,2,0,0,0-4,0c-.47,1.45.5,2.3,2,2.64C184.37,448.84,185.29,447.94,184.81,446.52Zm403.25-1.61a2.78,2.78,0,0,0-2,1.6c-.47,1.42.44,2.33,2,2.7,1.48-.36,2.46-1.19,2-2.64A2.77,2.77,0,0,0,588.06,444.91ZM438.65,702.65a2,2,0,0,0-1.9,2.49c.15.78,1.11,1.42,1.45,1.82,2.1-.13,2.66-1.05,2.61-2.29A1.88,1.88,0,0,0,438.65,702.65Zm-106.52,0a1.89,1.89,0,0,0-2.09,2.1c0,1.24.57,2.17,2.72,2.16.3-.38,1.23-1,1.35-1.84A2,2,0,0,0,332.13,702.64Zm.79-657.17a2,2,0,0,0,2-2.42c-.12-.79-1-1.46-1.6-2.19-1.87.36-2.48,1.25-2.47,2.5A1.9,1.9,0,0,0,332.92,45.47Zm106.57-.09c1.27.39,2.09-.68,2.12-2s-.51-2.18-2.43-2.56c-.57.77-1.67,1.6-1.59,2.29A3.22,3.22,0,0,0,439.49,45.38Zm-216.89.31,1,0c.56-.81,1.58-1.63,1.56-2.42a2.9,2.9,0,0,0-1.91-1.95,1.69,1.69,0,0,0-2.07,2C221.24,44.18,222.08,44.91,222.6,45.69ZM587.88,663.58a1.7,1.7,0,0,0-1.84,2.19,2.91,2.91,0,0,0,2,1.8c.78,0,1.57-1,2.36-1.59,0-.32,0-.65,0-1C589.55,664.5,588.74,663.64,587.88,663.58ZM181.26,262c.82.52,1.62,1.39,2.48,1.47a1.7,1.7,0,0,0,1.87-2.16,2.89,2.89,0,0,0-2-1.83c-.78,0-1.58,1-2.38,1.55ZM252.47,45.7h.95c.55-.82,1.55-1.67,1.5-2.45s-1.15-1.74-1.95-1.91a1.68,1.68,0,0,0-2,2C251.08,44.22,251.94,44.94,252.47,45.7Zm10,0,.95,0c.52-.82,1.48-1.68,1.42-2.47a2.87,2.87,0,0,0-1.94-1.87,1.67,1.67,0,0,0-2,2C261,44.19,261.93,44.92,262.49,45.72Zm9.92,0,.95,0c.52-.83,1.5-1.68,1.45-2.46a2.9,2.9,0,0,0-1.93-1.89,1.67,1.67,0,0,0-2.05,2C271,44.17,271.86,44.92,272.41,45.72Zm9.81,0,.95,0c.57-.81,1.59-1.63,1.57-2.42s-1.11-1.76-1.9-1.95a1.68,1.68,0,0,0-2.07,2C280.87,44.17,281.71,44.91,282.22,45.69ZM588.82,249.5a2.88,2.88,0,0,0-2,1.84,1.69,1.69,0,0,0,1.87,2.15c.87-.08,1.65-1,2.48-1.48l0-1C590.41,250.48,589.6,249.47,588.82,249.5ZM302.11,45.69l.94,0c.57-.81,1.59-1.63,1.57-2.42a2.9,2.9,0,0,0-1.91-1.95,1.69,1.69,0,0,0-2.07,2C300.75,44.18,301.59,44.91,302.11,45.69ZM181.25,252c.83.52,1.62,1.4,2.48,1.48a1.7,1.7,0,0,0,1.88-2.15,2.91,2.91,0,0,0-2-1.84c-.78,0-1.59,1-2.39,1.54Zm407.51-12.45a2.92,2.92,0,0,0-1.93,1.91,1.69,1.69,0,0,0,1.95,2.08c.86-.11,1.62-1,2.42-1.57,0-.32,0-.64,0-1C590.38,240.49,589.53,239.51,588.76,239.56ZM450.4,45.7c.53-.76,1.39-1.48,1.52-2.31a1.68,1.68,0,0,0-2-2c-.79.17-1.91,1.21-1.95,1.91s.95,1.63,1.5,2.45Zm10,0c.53-.77,1.39-1.49,1.51-2.32a1.69,1.69,0,0,0-2-2,2.9,2.9,0,0,0-1.94,1.91c0,.79,1,1.63,1.51,2.45ZM185.6,241.41a2.88,2.88,0,0,0-2-1.85c-.78,0-1.59,1-2.39,1.53,0,.32,0,.64,0,1,.82.52,1.61,1.4,2.47,1.49A1.68,1.68,0,0,0,185.6,241.41ZM479.21,45.69l.89,0c.57-.75,1.47-1.43,1.63-2.25.26-1.26-.59-2.14-1.94-2.2a1.8,1.8,0,0,0-2.09,2.06C477.81,44.17,478.68,44.91,479.21,45.69Zm10.87,0c.56-.8,1.46-1.54,1.59-2.4a1.67,1.67,0,0,0-2-2,2.86,2.86,0,0,0-1.93,1.88c-.06.78.91,1.64,1.44,2.46Zm10,0c.53-.81,1.4-1.58,1.5-2.45a1.67,1.67,0,0,0-2.1-1.9,2.89,2.89,0,0,0-1.87,1.94c0,.79,1,1.61,1.51,2.42Zm8.9,0,.93,0c.56-.8,1.59-1.62,1.55-2.4s-1.1-1.77-1.89-2a1.69,1.69,0,0,0-2.08,2C507.62,44.16,508.48,44.91,509,45.69ZM222.88,702.42l-.9,0c-.57.75-1.47,1.42-1.64,2.24-.26,1.27.59,2.14,1.94,2.21a1.79,1.79,0,0,0,2.09-2.06C224.27,703.94,223.4,703.2,222.88,702.42Zm316-656.72.89,0c.56-.75,1.46-1.43,1.61-2.26.24-1.27-.62-2.13-2-2.18a1.79,1.79,0,0,0-2.06,2.08C537.45,44.19,538.33,44.92,538.87,45.7ZM231.74,702.41c-.52.78-1.36,1.52-1.47,2.36a1.7,1.7,0,0,0,2.08,2c.79-.19,1.88-1.25,1.9-2s-1-1.61-1.56-2.41ZM185.61,82.52a2.9,2.9,0,0,0-1.86-2c-.77-.08-1.65.87-2.48,1.37,0,.32,0,.64,0,1,.78.58,1.51,1.52,2.36,1.66A1.69,1.69,0,0,0,185.61,82.52Zm401.22-.08a1.69,1.69,0,0,0,1.94,2.09c.86-.11,1.62-1,2.43-1.56,0-.32,0-.64,0-1-.81-.53-1.65-1.52-2.42-1.47A2.94,2.94,0,0,0,586.83,82.44Zm-401.22,10a2.91,2.91,0,0,0-1.89-1.94c-.77-.07-1.64.89-2.46,1.41l0,1c.8.57,1.54,1.49,2.4,1.62A1.69,1.69,0,0,0,185.61,92.42Zm401.23-.1a1.69,1.69,0,0,0,1.87,2.15c.87-.08,1.65-1,2.48-1.49l0-1c-.8-.56-1.61-1.57-2.39-1.55A2.91,2.91,0,0,0,586.84,92.32Zm-401.23,9.93a2.91,2.91,0,0,0-2-1.84c-.78,0-1.59,1-2.39,1.56,0,.32,0,.64,0,1,.83.52,1.62,1.4,2.49,1.48A1.7,1.7,0,0,0,185.61,102.25Zm0,169.15c-.13-.88-1-1.65-1.54-2.46h-.92c-.53.82-1.5,1.66-1.46,2.45a2.85,2.85,0,0,0,1.85,2A1.69,1.69,0,0,0,185.62,271.4ZM183.1,109.93c-.51.83-1.46,1.7-1.4,2.48a2.87,2.87,0,0,0,1.9,1.93,1.69,1.69,0,0,0,2-2c-.15-.87-1-1.62-1.6-2.43Zm405.71,4.42c.86-.13,1.6-1,2.4-1.62l0-1c-.83-.52-1.69-1.48-2.47-1.42a2.93,2.93,0,0,0-1.89,2A1.69,1.69,0,0,0,588.81,114.35ZM261.63,702.4c-.54.81-1.42,1.57-1.53,2.43a1.67,1.67,0,0,0,2.08,1.93c.78-.19,1.86-1.22,1.89-1.92s-.94-1.62-1.48-2.44Zm9.95,0c-.54.81-1.43,1.57-1.54,2.43a1.67,1.67,0,0,0,2.07,1.93c.79-.19,1.87-1.22,1.9-1.92s-.94-1.62-1.48-2.43Zm19.76,0c-.5.83-1.35,1.63-1.43,2.49a1.68,1.68,0,0,0,2.16,1.85,2.91,2.91,0,0,0,1.82-2c0-.78-1-1.58-1.58-2.37ZM586.84,132.1a1.68,1.68,0,0,0,1.9,2.12c.86-.09,1.64-1,2.45-1.51,0-.32,0-.65,0-1-.8-.54-1.63-1.54-2.41-1.5A2.87,2.87,0,0,0,586.84,132.1ZM185.62,142.26c-.1-.88-1-1.67-1.45-2.51l-.93,0c-.56.8-1.56,1.61-1.54,2.4a2.85,2.85,0,0,0,1.78,2A1.69,1.69,0,0,0,185.62,142.26ZM589,140.14a1.79,1.79,0,0,0-2.27,1.81,1.85,1.85,0,0,0,1.91,2.22c.84,0,1.64-.82,2.45-1.28,0-.29.08-.59.11-.89C590.51,141.36,589.87,140.37,589,140.14ZM302.47,702.44l-.9-.07c-.59.73-1.51,1.37-1.71,2.19-.31,1.26.52,2.15,1.86,2.27a1.8,1.8,0,0,0,2.16-2C303.8,704,303,703.24,302.47,702.44Zm7.27,2.29c0,1.32.8,2.26,2.11,2,.84-.14,1.57-1,2.35-1.51l0-.87c-.76-.55-1.45-1.41-2.29-1.6C310.61,702.51,309.76,703.41,309.74,704.73ZM181.26,162.56c.82.52,1.61,1.4,2.47,1.48a1.69,1.69,0,0,0,1.87-2.16,2.89,2.89,0,0,0-2-1.83c-.78,0-1.59,1-2.39,1.54Zm268.4,539.86-.94,0c-.57.8-1.6,1.62-1.57,2.41s1.11,1.77,1.9,2a1.7,1.7,0,0,0,2.08-2C451,703.94,450.18,703.2,449.66,702.42ZM185.62,172c-.15-.87-1-1.62-1.6-2.42l-.92,0c-.51.83-1.46,1.7-1.4,2.49a2.87,2.87,0,0,0,1.9,1.92A1.69,1.69,0,0,0,185.62,172Zm403.19,2c.86-.13,1.6-1,2.4-1.62l0-1c-.83-.51-1.69-1.48-2.47-1.41a2.91,2.91,0,0,0-1.89,1.94A1.69,1.69,0,0,0,588.81,174Zm-407.57,8.36c.8.56,1.55,1.46,2.42,1.58a1.69,1.69,0,0,0,2-2.08,2.88,2.88,0,0,0-1.92-1.91c-.78-.06-1.62.92-2.44,1.45ZM459.48,702.39l-1,0c-.53.82-1.5,1.68-1.44,2.46a2.88,2.88,0,0,0,1.92,1.89,1.68,1.68,0,0,0,2.05-2C460.93,703.94,460,703.19,459.48,702.39ZM185.61,191.77a2.93,2.93,0,0,0-1.92-1.91c-.78-.05-1.63.93-2.44,1.46v1c.8.55,1.56,1.46,2.42,1.57A1.69,1.69,0,0,0,185.61,191.77Zm405.58-.47c-.82-.52-1.68-1.5-2.46-1.44a2.93,2.93,0,0,0-1.9,1.93,1.7,1.7,0,0,0,2,2.07c.86-.12,1.61-1,2.41-1.6C591.2,191.94,591.19,191.62,591.19,191.3ZM489.31,702.39h-.94c-.53.83-1.52,1.7-1.46,2.48a2.87,2.87,0,0,0,2,1.87,1.68,1.68,0,0,0,2-2.07C490.74,703.85,489.86,703.15,489.31,702.39Zm7.49,2.33a2.87,2.87,0,0,0,1.86,2c.8.07,1.69-.88,2.53-1.39l0-.92c-.75-.56-1.44-1.42-2.27-1.6A1.7,1.7,0,0,0,496.8,704.72Zm12.52-2.3-1,0c-.57.79-1.59,1.59-1.58,2.37a2.89,2.89,0,0,0,1.82,2,1.68,1.68,0,0,0,2.15-1.85C510.68,704,509.82,703.25,509.32,702.42Zm79.43-492.68a2.92,2.92,0,0,0-1.92,1.92,1.69,1.69,0,0,0,1.95,2.08c.86-.12,1.62-1,2.42-1.58,0-.32,0-.64,0-1C590.37,210.67,589.53,209.69,588.75,209.74Zm-405.12,9.94c-.78,0-1.59,1-2.39,1.53,0,.32,0,.64,0,1,.82.52,1.61,1.41,2.47,1.49a1.69,1.69,0,0,0,1.89-2.14A2.91,2.91,0,0,0,183.63,219.68Zm405.07,4c.86-.07,1.66-.95,2.48-1.47l0-1c-.8-.56-1.6-1.57-2.38-1.55a2.92,2.92,0,0,0-2,1.83A1.69,1.69,0,0,0,588.7,223.67Zm-62.09,481a1.68,1.68,0,0,0,1.92,2.09c.88-.13,1.66-1,2.49-1.49v-.93c-.8-.54-1.63-1.53-2.41-1.5A2.86,2.86,0,0,0,526.61,704.68ZM539,702.4h-1c-.53.82-1.51,1.66-1.46,2.45a2.86,2.86,0,0,0,1.91,1.9,1.67,1.67,0,0,0,2.06-2C540.45,704,539.56,703.2,539,702.4ZM184.81,606a1.68,1.68,0,0,0-1.94-2.09c-.86.11-1.62,1-2.42,1.57v1c.82.53,1.66,1.51,2.44,1.46A2.91,2.91,0,0,0,184.81,606Zm-2.39-111.82c-.55.81-1.54,1.64-1.52,2.43a2.88,2.88,0,0,0,1.81,2,1.68,1.68,0,0,0,2.12-1.9c-.13-.89-1-1.68-1.49-2.51ZM586,506.61a2.88,2.88,0,0,0,1.89,1.93c.77.07,1.64-.89,2.46-1.4,0-.33,0-.65,0-1-.79-.57-1.53-1.49-2.39-1.61A1.68,1.68,0,0,0,586,506.61Zm-403.23,7.88c-.85.14-1.59,1.07-2.37,1.65l0,1c.83.51,1.7,1.47,2.48,1.39a2.9,2.9,0,0,0,1.86-2A1.69,1.69,0,0,0,182.81,514.49Zm-.42,9.54c-.54.82-1.52,1.65-1.48,2.44a2.85,2.85,0,0,0,1.82,2,1.68,1.68,0,0,0,2.1-1.92c-.14-.89-1-1.67-1.52-2.5ZM588,528.43c.78,0,1.61-.95,2.42-1.49v-1c-.81-.54-1.58-1.44-2.44-1.54a1.69,1.69,0,0,0-1.92,2.11A2.9,2.9,0,0,0,588,528.43Zm-1.94,8a2.88,2.88,0,0,0,1.88,1.94c.78.07,1.64-.89,2.47-1.41,0-.32,0-.64,0-1-.79-.57-1.53-1.49-2.39-1.62A1.69,1.69,0,0,0,586,536.42ZM182.8,548.31a2.94,2.94,0,0,0,2-1.83,1.69,1.69,0,0,0-1.85-2.17c-.87.07-1.67.94-2.49,1.46l0,1C181.23,547.3,182,548.32,182.8,548.31Zm405.15,0c.78.06,1.63-.92,2.45-1.45,0-.32,0-.64,0-1-.81-.55-1.56-1.47-2.42-1.58a1.69,1.69,0,0,0-2,2.08C586.23,547.18,587.25,548.26,588,548.3Zm-407.48,8.58c.84.5,1.72,1.45,2.5,1.36a2.89,2.89,0,0,0,1.84-2,1.68,1.68,0,0,0-2-2c-.85.14-1.57,1.08-2.36,1.66ZM588,558.24c.78.06,1.63-.92,2.45-1.45,0-.32,0-.64,0-1-.81-.56-1.56-1.47-2.42-1.58a1.68,1.68,0,0,0-2,2.08A2.91,2.91,0,0,0,588,558.24ZM184.81,566.3a1.69,1.69,0,0,0-1.92-2.11c-.86.1-1.63,1-2.44,1.54v1c.81.54,1.64,1.53,2.42,1.49A2.92,2.92,0,0,0,184.81,566.3ZM588.73,164c.86-.09,1.64-1,2.46-1.5v-1c-.8-.55-1.62-1.55-2.39-1.52a2.88,2.88,0,0,0-2,1.86A1.68,1.68,0,0,0,588.73,164Zm-.85,420a1.7,1.7,0,0,0-1.84,2.19,2.91,2.91,0,0,0,2,1.8c.78,0,1.57-1,2.36-1.59,0-.32,0-.65,0-1C589.55,585,588.74,584.13,587.88,584.07ZM182.9,594c-.87.1-1.64,1-2.45,1.53v1c.81.54,1.64,1.53,2.42,1.49a2.91,2.91,0,0,0,1.94-1.88A1.68,1.68,0,0,0,182.9,594ZM588,607.94c.78,0,1.63-.93,2.45-1.45v-1c-.8-.55-1.55-1.46-2.41-1.58a1.69,1.69,0,0,0-2,2.08A2.89,2.89,0,0,0,588,607.94ZM586,616a2.93,2.93,0,0,0,2,1.84c.77,0,1.58-1,2.38-1.55,0-.32,0-.65,0-1-.82-.52-1.62-1.4-2.48-1.48A1.7,1.7,0,0,0,586,616ZM180.46,487.24c.82.52,1.67,1.49,2.45,1.44a2.91,2.91,0,0,0,1.9-1.94,1.68,1.68,0,0,0-2-2.06c-.86.12-1.61,1-2.41,1.6C180.45,486.6,180.45,486.92,180.46,487.24ZM588,474.74a1.68,1.68,0,0,0-2,2,2.9,2.9,0,0,0,1.86,2c.77.08,1.65-.88,2.48-1.38l0-1C589.63,475.81,588.9,474.87,588,474.74Zm-404.8-.4h-.92c-.51.83-1.46,1.69-1.41,2.49a2.84,2.84,0,0,0,1.88,1.93,1.67,1.67,0,0,0,2-2C184.67,475.91,183.79,475.15,183.24,474.34ZM588,468.8c.77,0,1.59-1,2.38-1.55,0-.32,0-.64,0-1-.82-.52-1.61-1.4-2.48-1.48A1.7,1.7,0,0,0,586,467,2.93,2.93,0,0,0,588,468.8Zm-405.14,155c-.86.1-1.63,1-2.44,1.54v1c.81.55,1.64,1.54,2.42,1.5a2.9,2.9,0,0,0,1.94-1.89A1.69,1.69,0,0,0,182.89,623.82Zm405.13,4c.78,0,1.59-1,2.39-1.54,0-.32,0-.65,0-1-.82-.52-1.61-1.41-2.47-1.49A1.7,1.7,0,0,0,586,626,2.93,2.93,0,0,0,588,627.82ZM180.45,576.67c.82.53,1.67,1.51,2.45,1.45a2.87,2.87,0,0,0,1.91-1.91,1.68,1.68,0,0,0-1.95-2.08c-.86.11-1.61,1-2.42,1.58C180.45,576,180.45,576.35,180.45,576.67ZM588.81,303.19c.86-.13,1.6-1.05,2.4-1.62,0-.32,0-.64,0-1-.83-.52-1.69-1.48-2.47-1.41a2.91,2.91,0,0,0-1.89,1.94A1.69,1.69,0,0,0,588.81,303.19Zm-405.07,0a1.7,1.7,0,0,0,1.87-2.16,2.91,2.91,0,0,0-2-1.83c-.78,0-1.58,1-2.38,1.55l0,1C182.08,302.23,182.88,303.11,183.74,303.18Zm405-13.92a2.91,2.91,0,0,0-1.89,1.94,1.69,1.69,0,0,0,2,2.05c.86-.13,1.6-1.05,2.4-1.61l0-1C590.36,290.16,589.5,289.19,588.72,289.26Zm-406,179.57a1.66,1.66,0,0,0,2.1-1.9c-.12-.89-1-1.68-1.49-2.51l-.92,0c-.55.82-1.53,1.64-1.51,2.44A2.84,2.84,0,0,0,182.72,468.83Zm405.34-14a1.68,1.68,0,0,0-2,2,2.89,2.89,0,0,0,1.84,2c.78.09,1.66-.86,2.5-1.36,0-.32,0-.64,0-1C589.64,455.94,588.91,455,588.06,454.86ZM182.81,633.76c-.86.14-1.59,1.07-2.37,1.64l0,1c.83.5,1.7,1.46,2.48,1.38a2.86,2.86,0,0,0,1.86-2A1.68,1.68,0,0,0,182.81,633.76Zm405.21,0a1.68,1.68,0,0,0-2,2,2.9,2.9,0,0,0,1.88,1.94c.78.07,1.64-.9,2.47-1.41,0-.32,0-.64,0-1C589.62,634.81,588.88,633.89,588,633.76ZM183,643.7c-.86.07-1.67.93-2.5,1.44,0,.32,0,.65,0,1,.79.57,1.58,1.6,2.36,1.59a2.91,2.91,0,0,0,2-1.81A1.7,1.7,0,0,0,183,643.7Zm0,9.94c-.87.07-1.67.94-2.49,1.45,0,.33,0,.65,0,1,.8.57,1.6,1.59,2.37,1.58a2.91,2.91,0,0,0,2-1.83A1.69,1.69,0,0,0,183,653.64ZM591.18,270.79c-.82-.52-1.69-1.48-2.46-1.42a2.93,2.93,0,0,0-1.89,1.95,1.69,1.69,0,0,0,2,2.05c.86-.13,1.6-1.05,2.4-1.62ZM232.56,45.7h.95c.56-.81,1.57-1.64,1.53-2.43s-1.13-1.75-1.92-1.93a1.69,1.69,0,0,0-2.05,2C231.19,44.2,232,44.92,232.56,45.7Zm9.93,0h.95c.57-.8,1.57-1.61,1.55-2.39a2.88,2.88,0,0,0-1.85-2A1.68,1.68,0,0,0,241,43.23C241.1,44.09,242,44.88,242.49,45.7Zm49.76,0h.94c.54-.83,1.54-1.68,1.49-2.47s-1.17-1.73-2-1.89a1.69,1.69,0,0,0-2,2C290.84,44.24,291.71,45,292.25,45.71Zm19.85,0H313c.55-.82,1.56-1.66,1.51-2.45s-1.15-1.74-1.94-1.91a1.69,1.69,0,0,0-2,2C310.71,44.21,311.57,44.93,312.1,45.7Zm9.88,0,.95,0c.57-.81,1.59-1.63,1.57-2.41a2.92,2.92,0,0,0-1.9-2,1.7,1.7,0,0,0-2.08,2C320.63,44.17,321.47,44.91,322,45.69Zm147.29,0,.89,0c.57-.75,1.47-1.42,1.63-2.25.27-1.27-.6-2.13-1.94-2.2a1.8,1.8,0,0,0-2.09,2.06C467.86,44.17,468.74,44.91,469.27,45.69Zm59.63,0,.93,0c.56-.81,1.58-1.64,1.54-2.42s-1.11-1.75-1.91-1.95a1.68,1.68,0,0,0-2.06,2C527.5,44.17,528.37,44.91,528.9,45.69Zm19.85,0,.89,0c.58-.74,1.48-1.4,1.66-2.23.28-1.27-.57-2.13-1.91-2.22a1.81,1.81,0,0,0-2.12,2C547.36,44.15,548.23,44.9,548.75,45.68Zm40.07,58.73c.86-.13,1.6-1,2.39-1.62,0-.32,0-.64,0-1-.83-.52-1.7-1.48-2.48-1.41a2.92,2.92,0,0,0-1.88,2A1.69,1.69,0,0,0,588.82,104.41ZM185.61,122.27a2.88,2.88,0,0,0-1.86-2c-.77-.08-1.65.87-2.49,1.37l0,1c.79.58,1.51,1.52,2.37,1.66A1.69,1.69,0,0,0,185.61,122.27Zm403.1,2c.86-.08,1.65-1,2.47-1.48l0-1c-.8-.56-1.61-1.57-2.39-1.55a2.88,2.88,0,0,0-2,1.84A1.69,1.69,0,0,0,588.71,124.29Zm-403.1,7.78a2.9,2.9,0,0,0-2-1.83c-.78,0-1.59,1-2.39,1.53l0,1c.83.52,1.62,1.4,2.48,1.49A1.7,1.7,0,0,0,185.61,132.07Zm-4.37,20.42c.79.57,1.53,1.49,2.39,1.62a1.69,1.69,0,0,0,2-2.06,2.91,2.91,0,0,0-1.89-1.94c-.78-.07-1.64.9-2.46,1.42ZM586.83,152a1.69,1.69,0,0,0,1.9,2.13c.86-.08,1.64-1,2.46-1.5l0-1c-.81-.55-1.63-1.55-2.41-1.52A2.89,2.89,0,0,0,586.83,152ZM520,45.71c.54-.81,1.43-1.57,1.54-2.43a1.67,1.67,0,0,0-2.08-1.93,2.89,2.89,0,0,0-1.9,1.92c0,.78,1,1.62,1.49,2.43Zm68.76,138.21c.86-.08,1.65-1,2.47-1.48l0-1c-.8-.56-1.61-1.57-2.39-1.54a2.86,2.86,0,0,0-2,1.83A1.69,1.69,0,0,0,588.71,183.92ZM183.63,203.8a1.69,1.69,0,0,0,2-2.06,2.91,2.91,0,0,0-1.89-1.94c-.78-.06-1.64.9-2.47,1.42,0,.32,0,.64,0,1C182,202.75,182.77,203.67,183.63,203.8Zm405.16-4a2.93,2.93,0,0,0-2,1.88,1.69,1.69,0,0,0,1.91,2.12c.87-.1,1.64-1,2.45-1.53,0-.32,0-.64,0-1C590.4,200.76,589.57,199.76,588.79,199.8ZM185.61,211.59a2.91,2.91,0,0,0-2-1.84c-.78,0-1.59,1-2.39,1.53l0,1c.82.52,1.61,1.4,2.47,1.49A1.7,1.7,0,0,0,185.61,211.59Zm-4.35,20.55c.83.52,1.62,1.4,2.49,1.47a1.68,1.68,0,0,0,1.85-2.16,2.9,2.9,0,0,0-2-1.83c-.78,0-1.58,1-2.38,1.56Zm407.52-2.52a2.91,2.91,0,0,0-1.95,1.89,1.69,1.69,0,0,0,1.93,2.1c.86-.1,1.63-1,2.44-1.54v-1C590.39,230.57,589.55,229.58,588.78,229.62Zm-.75,269c.77,0,1.58-1,2.38-1.54l0-1c-.82-.52-1.61-1.4-2.48-1.48a1.69,1.69,0,0,0-1.87,2.15A2.93,2.93,0,0,0,588,498.61Zm-2,157.22a2.91,2.91,0,0,0,2,1.8c.78,0,1.57-1,2.36-1.59,0-.32,0-.64,0-1-.83-.5-1.64-1.37-2.5-1.43A1.7,1.7,0,0,0,586,655.83Zm2.74-392.4c.86-.11,1.62-1,2.42-1.58,0-.32,0-.64,0-1-.81-.53-1.66-1.51-2.44-1.45a2.91,2.91,0,0,0-1.92,1.91A1.69,1.69,0,0,0,588.78,263.43ZM181.23,281.69c.8.56,1.54,1.49,2.4,1.62a1.69,1.69,0,0,0,2-2.05,2.9,2.9,0,0,0-1.88-1.94c-.78-.07-1.65.89-2.47,1.4ZM519.12,702.4l-1,0c-.52.82-1.49,1.67-1.44,2.45a2.9,2.9,0,0,0,1.92,1.89,1.67,1.67,0,0,0,2.05-2C520.57,703.94,519.67,703.19,519.12,702.4ZM587.91,594a1.69,1.69,0,0,0-1.87,2.16,2.9,2.9,0,0,0,2,1.83c.78,0,1.59-1,2.38-1.55,0-.32,0-.65,0-1C589.56,595,588.77,594.08,587.91,594Zm.11-29.82a1.69,1.69,0,0,0-2,2,2.93,2.93,0,0,0,1.89,2c.77.06,1.64-.9,2.46-1.42,0-.32,0-.65,0-1C589.62,565.24,588.88,564.32,588,564.19ZM184.81,665.58a1.68,1.68,0,0,0-2-2c-.86.14-1.58,1.09-2.36,1.67,0,.32,0,.65,0,1,.84.49,1.73,1.43,2.5,1.35A2.91,2.91,0,0,0,184.81,665.58Zm-1.09-372.33a1.7,1.7,0,0,0,1.89-2.14,2.89,2.89,0,0,0-2-1.85c-.78,0-1.59,1-2.39,1.52v1C182.07,292.28,182.86,293.16,183.72,293.25ZM548.91,702.39l-.95,0c-.52.82-1.49,1.69-1.43,2.47a2.9,2.9,0,0,0,2,1.87,1.67,1.67,0,0,0,2-2C550.37,703.92,549.47,703.18,548.91,702.39Zm-307.29,0c-.49.83-1.34,1.64-1.4,2.51a1.68,1.68,0,0,0,2.19,1.81,2.87,2.87,0,0,0,1.79-2c0-.78-1-1.56-1.62-2.35ZM586,576.18a2.89,2.89,0,0,0,1.89,1.94c.77.06,1.63-.9,2.46-1.42,0-.32,0-.64,0-1-.79-.56-1.53-1.48-2.39-1.61A1.68,1.68,0,0,0,586,576.18ZM182.92,538.36a2.89,2.89,0,0,0,1.89-1.94,1.68,1.68,0,0,0-2-2c-.86.13-1.61,1-2.4,1.62,0,.32,0,.64,0,1C181.29,537.47,182.15,538.43,182.92,538.36Zm-2.46-31.21c.83.51,1.7,1.47,2.48,1.4a2.92,2.92,0,0,0,1.87-2,1.69,1.69,0,0,0-2-2c-.86.14-1.59,1.07-2.38,1.64C180.44,506.51,180.45,506.83,180.46,507.15ZM184.83,457c-.14-.88-1-1.66-1.53-2.49h-.92c-.54.82-1.51,1.66-1.48,2.46a2.83,2.83,0,0,0,1.84,2A1.67,1.67,0,0,0,184.83,457Zm-4.36,159.55c.83.5,1.72,1.44,2.49,1.36a2.89,2.89,0,0,0,1.85-2,1.69,1.69,0,0,0-2-2c-.86.14-1.58,1.08-2.37,1.66C180.45,615.86,180.46,616.19,180.47,616.51Zm71.14,85.91c-.51.82-1.37,1.61-1.45,2.48a1.68,1.68,0,0,0,2.15,1.86,2.9,2.9,0,0,0,1.82-2c0-.78-1-1.58-1.56-2.38ZM588.75,279.31a2.92,2.92,0,0,0-1.92,1.92,1.69,1.69,0,0,0,1.95,2.08c.86-.12,1.62-1,2.42-1.58,0-.32,0-.64,0-1C590.38,280.24,589.53,279.26,588.75,279.31ZM281.51,702.4c-.54.81-1.43,1.57-1.54,2.43a1.68,1.68,0,0,0,2.08,1.93,2.89,2.89,0,0,0,1.9-1.92c0-.78-.94-1.62-1.48-2.43ZM587.93,488.68c.77.06,1.64-.91,2.46-1.42,0-.32,0-.65,0-1-.79-.56-1.53-1.48-2.39-1.61a1.69,1.69,0,0,0-2,2.05A2.93,2.93,0,0,0,587.93,488.68Zm.12,25.81a1.69,1.69,0,0,0-2,2,2.9,2.9,0,0,0,1.85,2c.77.08,1.65-.87,2.49-1.37l0-1C589.63,515.57,588.91,514.63,588.05,514.49Zm-265.66,188-.93-.08c-.6.78-1.67,1.55-1.68,2.32a2.91,2.91,0,0,0,1.8,2.06,1.68,1.68,0,0,0,2.17-1.87C323.69,704,322.87,703.26,322.39,702.45ZM180.45,586.61c.82.52,1.67,1.5,2.45,1.45a2.91,2.91,0,0,0,1.91-1.91,1.68,1.68,0,0,0-1.94-2.08c-.87.11-1.62,1-2.43,1.57C180.45,586,180.45,586.29,180.45,586.61ZM586,645.75a2.91,2.91,0,0,0,1.89,2c.77.06,1.64-.9,2.46-1.42,0-.32,0-.65,0-1-.79-.56-1.53-1.48-2.39-1.61A1.69,1.69,0,0,0,586,645.75ZM467,704.68a1.66,1.66,0,0,0,1.9,2.09c.89-.13,1.67-1,2.49-1.49,0-.31,0-.62,0-.93-.81-.54-1.64-1.53-2.42-1.5A2.87,2.87,0,0,0,467,704.68Zm12.41-2.28h-.95c-.54.81-1.53,1.64-1.49,2.43a2.89,2.89,0,0,0,1.9,1.92,1.68,1.68,0,0,0,2.08-1.93C480.83,704,479.94,703.21,479.4,702.4Zm-84-592.48c.63-2.17,1.27-4,1.67-5.83,1.15-5.35.88-10.56-2.29-15.24a6.6,6.6,0,0,0-3.07-2.61A31.68,31.68,0,0,0,384.52,85c-3.35-.25-6,1.29-8,3.94-3,3.91-4,8.41-4.13,13.2-.13,5.67,2.75,9.77,7.29,12.59,4.28,2.66,8.61,1.94,12.57-1.23.82.87,1.54,1.73,2.35,2.48,1,.92,2.19,1.48,3.36.43s.75-2.26-.1-3.35S396.14,110.87,395.39,109.92Zm-3.19-3.54a20.29,20.29,0,0,0-1.6-2.12c-1-.93-2.06-2.05-3.4-.83-1.19,1.08-.46,2.3.29,3.38l2,2.86c-2.28,2.93-6.38,3-9.3.46-5.51-4.81-4.74-11.89-1.65-18.23a7.35,7.35,0,0,1,5.81-4.3,4.92,4.92,0,0,1,2.6.32c1,.55,1.95,1,2.86,1.66a5.94,5.94,0,0,1,1.86,1.65C394.52,95.93,393.94,100.79,392.2,106.38Z"/></svg>