<svg xmlns="http://www.w3.org/2000/svg" viewBox="0 0 750 750"><path d="M606.11,375V50.68c0-1.19,0-2.38,0-3.57C605.87,34.66,596.33,25,584.24,25H186.39a21.87,21.87,0,0,0-21.8,21.75q0,328.25,0,656.51a20.22,20.22,0,0,0,.56,4.71c2.59,10.67,11.16,17,22.85,17H583.88c8.15-.16,14.53-3.58,19-10.47,2.64-4.1,3.29-8.69,3.29-13.49Q606.1,538,606.11,375ZM587.24,720.59a23.09,23.09,0,0,1-4.16.28H187.63c-11.39,0-18.93-7.54-18.93-18.92V47.84c0-11.13,7.58-18.73,18.69-18.73H583c11.4,0,19,7.53,19,18.89V701.93C602,711.64,596.3,718.87,587.24,720.59Zm-254-508c0-.46.16-.92.17-1.37,0-4.7-.12-9.45-3.8-12.93a24.13,24.13,0,0,0-16.62-7,42.33,42.33,0,0,0-18.9,4c-7.61,3.63-12.79,9.55-14,18.25a46,46,0,0,0,1.05,16.77c1.13,5-.07,9.23-3.91,12.56a20.85,20.85,0,0,1-5.46,3.53c-4.09,1.69-8.29,3.13-12.51,4.48-11.74,3.76-18.57,12.18-21.73,23.61-3.23,11.66,1.93,22.9,12.08,28.94a66.9,66.9,0,0,1,6.92,4.65c3.57,2.78,4.32,6.69,2.42,10.79a24.65,24.65,0,0,1-5.49,7.94,9.41,9.41,0,0,0-2.95,9.43c1.53-2.3,2.69-4.77,4.51-6.6,3.49-3.52,7.31-6.72,9.38-11.62,2.76,1.83,5.06,0,7.43-.67,2.57,3.63,2.78,7.46,1.78,11.38-2.39,9.33-2.08,18.38,2.59,27,2.3,4.25,4.73,8.42,7,12.66a236.77,236.77,0,0,1,13.7,30.18c1.7,4.56,4.71,7.47,9.76,8.26a35.72,35.72,0,0,0,16.47-1.49c4.54-1.42,9-3.21,13.45-4.82,5-1.8,10.22-.24,10.57,6.65.45,9.24.26,18.4-2.34,27.38-.77,2.66-1.37,5.38-2,8.09-.1.42.2.94.32,1.41.48-.24,1.16-.36,1.38-.75.59-1,.89-2.22,1.47-3.24,4.17-7.33,7.4-15,7.72-23.54.3-7.87-.26-15.4-8.68-19.59a5.83,5.83,0,0,1,.87-.59c6.32-2.75,12.66-5.44,19-8.22,5.69-2.5,11.76-4.45,16.94-7.76,12.41-7.93,19.33-19.65,21.36-34.25.34-2.41.27-5,1.25-7.15,2.06-4.41,5.78-7.61,9.43-11.4,0,.85,0,1.23,0,1.6q-.44,7.13-.89,14.26a175.93,175.93,0,0,0,.94,35.32c1.46,10.66,4,20.93,11.63,29.23,3.16,3.44,6.14,7,10.88,8.29a6.14,6.14,0,0,0,2.13-.23c-.27-.62-.39-1.42-.85-1.83-5.57-5-9.23-11.21-11.85-18.12-1.38-3.62-.69-7.33-.72-10.62,2.63.39,5,1.25,7.26,1,6.2-.79,11.51-3.79,16.15-7.89,1.6-1.42,1.42-3-.34-4.17-3.17-2.06-6.63-3.5-10.49-2.82-3.2.55-6.34,1.47-9.71,2.28l3.44-8.14c1.66.37,3,1,4.22.88a33.09,33.09,0,0,0,13-4,12.15,12.15,0,0,0,3.27-2.83c1.45-1.8,1.15-3-.71-4.33a8.81,8.81,0,0,0-6.2-1.65c-2.14.24-4.25.68-6.9,1.11,2.93-3.09,5.58-5.88,7.84-8.28a40.49,40.49,0,0,0,5.15,1.85c4.29.85,8.41,0,12.4-1.68,2.88-1.19,3.37-3,1.13-5.18a15.18,15.18,0,0,0-4-2.41,15.33,15.33,0,0,0-3-.69l10.34-5.49c.76,3,2.9,4.15,5.37,4.68a57.77,57.77,0,0,0,7.61,1.15c2.28.17,2.9-.89,2.29-3.14-.73-2.64-2.48-4.42-5.22-5.83,1.31-.23,2.18-.42,3.07-.54,6.6-.91,13.33-1.06,19.67-3.51,1.85-.72,2.56-1.94,1.44-3.57a5.58,5.58,0,0,0-1.91-1.67,13.16,13.16,0,0,0-16.49,4c-.28.39-.68.91-1.09,1-2,.34-4.11.55-6.25.82.33-.9.9-1.67.82-2.37a6.12,6.12,0,0,0-1.15-3.35c-.44-.47-2-.25-2.86.06-2.4.83-4.54,2.35-5.33,4.76-1.31,4-4.26,5.91-7.76,7.47a44.57,44.57,0,0,0-4,2.23l-3.59,2.05a55.74,55.74,0,0,0,1.69-6.21c.16-1-.14-2.62-.77-2.95a5.46,5.46,0,0,0-3.53,0c-.73.2-1.34,1-1.88,1.7a19.2,19.2,0,0,0-4.54,12.43c0,.64,0,1.53-.34,1.87-2.54,2.28-5.16,4.46-7.76,6.67a37.22,37.22,0,0,0-.47-4.85c-.71-3.6-2.95-4.3-5.82-1.93a8.38,8.38,0,0,0-1.36,1.43c-3.24,4.32-3.32,12.89-.25,17.32a1.94,1.94,0,0,1,.26,1.53c-2.2,5.9-4.46,11.78-6.62,17.43,0,.13-.1-.15-.13-.45-.33-2.93-.85-5.86-.91-8.8a75.12,75.12,0,0,1,.33-12.65c2-13.41,7.32-25.66,13.88-37.42.64-1.14,1.32-2.54,2.36-3.13,5.07-2.86,10.24-5.51,15.42-8.17a20.26,20.26,0,0,1,3.17-1c.71,2.13,2,3.21,4,3.16a5.58,5.58,0,0,0,4.61-3.59,4.89,4.89,0,0,0-2.41-5.91c-2-1-3.42-.3-5,2.14a2.28,2.28,0,0,1-1.32,1c-5,.78-9.39,3.14-13.67,5.68-.39.23-.82.39-1.67.8A120.7,120.7,0,0,1,457,292.38c5-4.75,10.31-9.15,16.73-11.95.75-.33,1.55-.56,2.52-.9.29,2,.4,3.84.83,5.56a117.42,117.42,0,0,0,3.27,11.57,4.27,4.27,0,0,0,3.33,2.18c1,0,2.27-1.44,2.86-2.55a37.22,37.22,0,0,0,2-5.66,10.57,10.57,0,0,0,1.74,1.4c1.83.87,3.64,2,5.58,2.34,5.08.81,8.66-3.2,7.24-8-.52-1.74-1.73-3.29-2.63-4.93l3-.38a7.39,7.39,0,0,0,5.76-3.77c1.66-2.85.51-5.8-2.72-6.36a35.55,35.55,0,0,0-6.53-.18c-1.66,0-3.32.25-5,.39a22.48,22.48,0,0,1,2.84-2.67,63.85,63.85,0,0,0,5.48-5.43,4.26,4.26,0,0,0,.47-5.5c-1.35-2-3.29-1.9-5.15-1.33-2.89.89-5.7,2.07-8.21,3a42.2,42.2,0,0,0,.31-6.63c-.29-3.09-2.58-4.27-5.45-3a8.58,8.58,0,0,0-3,2.2,19.8,19.8,0,0,0-2.69,4.15c-3.07,6.4-5.38,13-3.88,20.25-9.54,3.53-17,9.75-23.89,16.82-.08-.32-.16-.47-.13-.57.95-3,1.85-6.08,2.91-9.07a6.45,6.45,0,0,1,1.72-2.51c2.34-2.11,2.69-5.54.64-7.59a5,5,0,0,0-7.13.31,5.33,5.33,0,0,0,.47,7.74c.43.34,1,1.09.85,1.48-2.06,7.27-3.43,14.64-8.33,21-12.34,16-21.27,33.73-24.91,53.88-.49-4.93-.75-9.88-1.22-14.8-.61-6.44.71-12.66,1.84-18.91A9.41,9.41,0,0,1,420,320.6c2.3-3.47,5-6.72,7-10.33,4.15-7.32,6.15-15.19,4.82-23.68-1-6.34-6.34-10.18-12.54-8.46-9.9,2.74-16.64,9.2-20.43,18.73a2.18,2.18,0,0,0-.23,1.16,11.4,11.4,0,0,0,.57,1.74c.55-.25,1.28-.35,1.64-.77,1.38-1.6,2.59-3.35,3.95-5,4-4.8,8.72-8.69,14.79-10.65,4.35-1.4,6.81.35,7.44,4.86,1.42,10.22-2.07,19-8.14,26.79-4.14,5.33-8.73,10.31-13.15,15.42a24.49,24.49,0,0,0-6.12,12.45,84.86,84.86,0,0,1-3.21,12.27c-3.61,11.49-11,19.54-22.15,24.23-10.07,4.23-20,8.77-30.07,13.05-7.24,3.09-14.51,6.11-21.86,8.91A27.83,27.83,0,0,1,309,403.13c-2.7-.32-5.52-.7-7.17-3.25a27.16,27.16,0,0,1-3.47-6.44c-2.56-8.3-6.56-15.91-10.58-23.53-3.24-6.14-6.68-12.17-9.88-18.33-3.51-6.76-3.49-13.84-1.77-21.11a23.75,23.75,0,0,0,.62-7.46c-.24-2.68-1.21-5.3-1.92-8.2l2.27-1.17c.18,5.49,3.53,7.08,8.26,7.18-.18.92-.32,1.68-.5,2.43-1.2,4.88-2.51,9.74-3.57,14.65-.58,2.65.37,4,2.8,5.27a18.33,18.33,0,0,0,9.25,1.78c2.13-.08,2.74.68,3.15,2.72.6,3-1,4.88-3.06,6.4-5,3.64-4.35,10.34-1.58,14.9a6,6,0,0,1,.92,2.78c.09,3.38.79,4.89,4.08,5.69a23,23,0,0,0,8.37.56,28.68,28.68,0,0,0,11.22-4.34,37.46,37.46,0,0,0,9.3-8.27c1.67-2.08,1.29-4.08-1.18-5-4.87-1.88-9.68-3.9-14.59-5.68-4.12-1.49-8.32-2.47-12.34.44-.22.16-.59.1-1.19.18.7-1.11,1.32-1.93,1.79-2.84,2.86-5.61-.07-10.44-6.25-10.73a24.58,24.58,0,0,1-6.68-1.65c-.53-.18-1.06-1.51-.94-2.21a36,36,0,0,1,1.47-5.55c2.35-7.09,4-14.26,3.66-21.81-.24-6.09-2.21-11.24-7-15.17a2.43,2.43,0,0,1-.81-.85c-1.18-2.9-3.7-3.55-6.35-3.42-2.86.13-5.69.73-8.53,1.12a11.37,11.37,0,0,1,0-2.25c1-5.67-.31-4.93,5.87-6.41,4.75-1.13,9.66-1.94,14.16-3.76,7-2.81,12.29-7.68,15.05-15,2.19-5.78,1.56-11.71,1.2-17.65-.41-6.8-.24-13.53,3.08-19.74a10.4,10.4,0,0,1,12.46-4.79,3.22,3.22,0,0,1,2.48,2.54c.44,2.18.93,4.36,1.43,6.68a23,23,0,0,1,3.77-2.58,31.18,31.18,0,0,1,6.88-2.27c2.27-.4,3.93,1,4.53,3.24a8.85,8.85,0,0,1,.4,3.13c-.35,3.55-1.06,7.07-1.25,10.62-.25,4.46-1,9.16,0,13.36,2.16,8.79,10.55,11.76,16.57,12.25a42.65,42.65,0,0,1,8.69,1.6,4.86,4.86,0,0,1,3,2.8,55.43,55.43,0,0,1,1.24,10.36c.06,1.78-.76,3.59-1.23,5.38-.86,3.26-1.81,6.5-2.62,9.77-1.78,7.17,2,11.82,7,16.23a51.39,51.39,0,0,1,7.77,9.17c2.17,3.1,1.56,6.85,1.33,10.42,2.85-6,3.69-12.1.26-18.21-3.2-5.72-2.25-12,2.56-15.53a52.31,52.31,0,0,1,8.06-5.05c7.64-3.7,13.25-13.83,11.24-23.06-1.95-9-5.9-17-15.42-20.46-1.49-.54-3-.92-4.53-1.43a72.81,72.81,0,0,1-7.83-2.8c-3-1.39-3.86-4.4-2.49-7.37.58-1.26,1.38-2.41,2-3.63,4.41-8.08,4.2-16.09-.45-24a12.82,12.82,0,0,0-7.26-5.92c-8.72-2.66-17.37-2.56-25.66,1.77-2,1-3.91,2.13-5.89,3.21A1.84,1.84,0,0,1,333.23,212.55ZM497.82,323c-3.33,2.19-7,2.26-10.69,2.07C488.75,322.25,494,321.22,497.82,323Zm-18.25,12.8c-3.54-.48-6.74-1-9.29-3.5C473,330.64,478,332.38,479.57,335.78Zm-5.13-13.68.66.63c-.51,2.36-2.74,3.15-4.46,4.4l-.63-.56Zm-12.71,21.68c-4.13,1.7-8.13,2.23-12.53.72C453.37,341.47,458.68,341.15,461.73,343.78ZM451.52,330a15.2,15.2,0,0,1-4.26,9.17A14.17,14.17,0,0,1,451.52,330ZM449,358.24c-4.78,3.72-10.21,5-16.07,5.56C434.38,358.55,444.34,355.12,449,358.24Zm-17.2-12.95c1.82,3.06.61,10.79-2.19,14C427.15,353.71,428.18,347.17,431.75,345.29Zm-5.12,34c3.35-3.66,13.57-6.53,19-2.46-4,2.68-7.77,5.2-12.28,6.29-2.65.63-5.11-.17-7.7-1.71A7.11,7.11,0,0,1,426.63,379.26ZM483.5,296.6c-2.8-4.5-2.94-9.54-3.69-14.53C485.53,284.36,487.53,292.1,483.5,296.6Zm16.72-6.5a3.86,3.86,0,0,1-4.63,1.25,10.91,10.91,0,0,1-3.72-2.14c-2.64-2.65-5.07-5.51-7.64-8.35,2.41.22,4.69.06,6.69.71a41.9,41.9,0,0,1,8.31,3.88C500.72,286.34,501.09,289.07,500.22,290.1Zm-3.8-16.54a81.62,81.62,0,0,1,8.71,0c.74,0,1.9.5,2.07,1a2.39,2.39,0,0,1-.84,2.18,13,13,0,0,1-4.69,1.74c-5.26.56-10.48.31-15.5-2.21A25.68,25.68,0,0,1,496.42,273.56ZM490.58,264c2.45-3,5.87-4.4,9.59-5.07a1.69,1.69,0,0,1,1.39.36,1.63,1.63,0,0,1-.06,1.44,10,10,0,0,1-1.69,2.18,71.3,71.3,0,0,1-15.73,11.25c-.33.17-.69.28-1,.42l-.32-.43C485.33,270.75,487.89,267.32,490.58,264Zm-11.9,3.73A36.87,36.87,0,0,1,484,254.36c.81-1.24,1.69-2.6,4-2.28-.56,8.45-3.9,15.6-9.27,21.92l-.65-.09A60.57,60.57,0,0,1,478.68,267.72ZM321,367.05a37.29,37.29,0,0,1-11.53,7c-3.19,1.2-6.45,2.07-9.89,1.22a6,6,0,0,1-2.38-.89,3.27,3.27,0,0,1-1.25-2.21,2.73,2.73,0,0,1,1.48-2,39,39,0,0,1,6.88-1.76c5.48-.79,11-1.37,16.49-2Zm-6.92-3.56-18.55,3.25c2.12-2.8,5.54-3.22,8.72-3.64s6.54-.09,9.81-.09C314.08,363.17,314.08,363.33,314.09,363.49Zm-15-5.7a6.1,6.1,0,0,1,5.43-1.14,47.6,47.6,0,0,1,7.09,2.64c-12.25,1-13.82,1.42-18.19,5.15a23.54,23.54,0,0,1-.77-3.09c-.3-2.91.45-3.46,3.34-3A4.49,4.49,0,0,0,299.11,357.79Zm-29.36-43.54c-.92,1.42-2.54,2-4.64,1.35.72-4.75-.82-8.57-3.57-12.41s-4.19-8.53-.93-13.1a22.24,22.24,0,0,1,3-2.89l.44.33c-.11,1.55-.24,3.1-.33,4.66a31.84,31.84,0,0,0,5,19.18C269.25,312.26,270.09,313.72,269.75,314.25Zm16.19,3.11c-3.58.71-6.08-.93-6.07-4C284.11,312,286.56,313.61,285.94,317.36Zm-18.45-20a27.59,27.59,0,0,1,6.7-1.65,9.15,9.15,0,0,1,8.19,4,20.24,20.24,0,0,1,3.62,9.4c-5.2-2.55-9.84-3-13.78,1.77A24.63,24.63,0,0,1,266.75,299C266.67,298.46,267.1,297.44,267.49,297.32Zm56.68-78.53c-.51.76-1.12,1.43-1.67,2.13-9-6-19.18-3.41-23.17,5.84-1.6,3.69-1.54,7.6-.93,11.53.64,4.11,1.2,8.23,1.79,12.35,1.71,11.95-9.5,24.78-21.36,26.2a86.21,86.21,0,0,0-15.65,3.43,14.88,14.88,0,0,0-10.53,11.44c-.37,1.76-.06,3.66-.06,5.74-3.22-1.67-6.16-3.09-8.17-6.34-5.31-8.59-5-16.68.56-25.07a23.65,23.65,0,0,1,14.44-10.38,84.09,84.09,0,0,1,8.74-1.79c5.18-.77,9.69-3.06,14-5.88a7.36,7.36,0,0,0,2.21-2.49c3.26-5.76,4.62-11.79,2.51-18.31-1.8-5.58-1-11.13.47-16.63,1.81-6.61,6.44-10.67,12.47-13.28a28.79,28.79,0,0,1,14.38-2.21c7.67.73,11.42,4.37,12.48,12A16.36,16.36,0,0,1,324.17,218.79Zm34.17-8.65c6.26,1,9.71,4.33,11,10.53a20.56,20.56,0,0,1-2.06,14.41,65.44,65.44,0,0,0-2.9,6.31c-2.07,5.13-.29,9.87,4.85,11.93a32.38,32.38,0,0,0,9.91,2.57c12,.72,18.47,12.88,15.3,22.11-1.59,4.63-3.65,8.6-7.84,11.31-1.71,1.12-3.25,2.51-4.87,3.77-7,5.42-8.85,12.68-7.59,21.07,0,.33.13.65.19,1,0,.06,0,.13-.06.19-6-4.32-8.28-6.92-5.26-15.16,1.3-3.53,2.9-7,3.59-10.69a21.83,21.83,0,0,0-3.34-16.52c-2.9-4.4-7-6.43-12.17-6.78a20.1,20.1,0,0,1-6.17-1c-5.9-2.39-8.66-10.28-8.19-16.95a115.68,115.68,0,0,0-.18-16.44c-.38-5.17-5.23-8.51-10.38-7.66-1.22.2-2.41.54-3.66.83,1.12-2.44,2.07-4.83,3.32-7a7.38,7.38,0,0,1,2.61-2.37C341.79,211,349.64,208.77,358.34,210.14Zm48.29,336.78c2.45-.6,2.45-.62,3.27,1.74a6.31,6.31,0,0,0,1.24,1.54,6.55,6.55,0,0,0,1-1.89,4.16,4.16,0,0,0-.38-1.91c-.45-1.32-1-2.62-1.48-4,1.69.19,3.2.27,4.67.58.49.11.94.73,1.28,1.21.65.91,1.2,1.88,1.8,2.82l.59-.18a8.14,8.14,0,0,0,.45-1.4A12.67,12.67,0,0,0,417,537c-3.28-5.35-6.46-10.77-9.65-16.18a17,17,0,0,1-.92-2.29c15.51,4.48,30.45,3.31,45.17-1.94a20,20,0,0,0,5.43-2.82c.89-.68,1.13-2.21,1.66-3.36-1.11-.11-2.22-.25-3.33-.31-.3,0-.61.27-.93.31a17.59,17.59,0,0,1-4.22.52c-11-1.15-21.14-5.25-31-9.94a1.25,1.25,0,0,0-.28-.08c2.37-4,5.49-4.1,9-2.22.12.06.26.16.37.14.6-.11,1.35-.08,1.73-.44.23-.22.07-1.2-.23-1.57-.95-1.17-2.06-2.22-3-3.23,3.8-4.6,7.52-9.07,11.21-13.56,1.68-2,3.24-4.2,5-6.21q41-47.85,82-95.7c4.42-5.17,8.52-10.6,12.64-16,.49-.63.19-1.86.25-2.82-1,0-2.14-.45-2.89,0a82.58,82.58,0,0,0-7.64,4.63A945.12,945.12,0,0,0,428.74,440c-9.27,8.22-18.67,16.29-27.89,24.56-2.64,2.36-4.88,5.18-7.43,7.93l-1.1-1.52c-8.25-11-12.11-22.84-6.89-36.42a2.25,2.25,0,0,0-.81-2.07,2.37,2.37,0,0,0-2.13.68,24.15,24.15,0,0,0-2.09,3.6c-5.31,9.48-8.43,19.54-8,30.53.05,1.17,0,2.34,0,3.75-5.11-.28-10-.37-14.86-.86-13-1.33-25.91-2.9-38.88-4.22-5.85-.59-11.74-.94-17.62-1.16a28.46,28.46,0,0,0-7.47.73c-7.72,1.83-14.49,5.84-21,10.16-6.33,4.21-12.33,8.92-18.47,13.43a13.9,13.9,0,0,0-1.34,1.32l.41.58,14-6.35c.46,2.38.88,4.61,1.33,7a4.33,4.33,0,0,0-1.28-.1c-1,.27-1.89.63-2.84,1,.43,1,.6,2.26,1.34,2.83a15.26,15.26,0,0,0,4.85,2.59c2.16.63,3.06,2.25,4.27,3.86a18.57,18.57,0,0,0-4,.94,3.1,3.1,0,0,0-1.58,2.17c0,.54,1.13,1.56,1.84,1.64a20.58,20.58,0,0,0,6.5.11c2.3-.49,3.73.47,5.49,1.81L271,521.21l.4.5a13.65,13.65,0,0,0,1.53-.63A50.67,50.67,0,0,0,286.7,510.2a24.63,24.63,0,0,1,13-7.86,5,5,0,0,1,4.89,1.31,58.05,58.05,0,0,0,7.8,5.72A17.94,17.94,0,0,0,325,512a10.67,10.67,0,0,1,7.43,1.5c4.31,2.58,8.6,5.28,14.44,4.34-.83.84-1.26,1.29-1.72,1.74-3.84,3.74-7.85,7.33-11.5,11.25-7.31,7.81-13.9,16.22-18.38,26a39.64,39.64,0,0,0-3,9.82c-.87,5,1.92,8.76,6.58,9.34a14.42,14.42,0,0,0,4.35-.14c5.79-1,10.84-3.84,15.64-7.06,13-8.69,23.71-19.68,33.07-32.11.42-.55.86-1.09,1.36-1.71.48.5.82.81,1.1,1.17,1.73,2.17,3.37,4.41,5.18,6.51,1.28,1.49,3.07,2.49,4.95,1.52a3.81,3.81,0,0,1,4.05,0c.37.21,1,0,1.45,0a9.66,9.66,0,0,0-.09-1.62c-.06-.3-.37-.54-.55-.81-2.51-3.89-5.17-7.69-7.46-11.7a28,28,0,0,0-6.63-8.31c-1-.79-1.84-1.74-2.76-2.61,2.76.29,5.76.13,7.09,2.9a36.43,36.43,0,0,0,11.67,13.57,35.78,35.78,0,0,1,7.13,7,11,11,0,0,0,1.9,2C402.16,546.11,404.1,547.53,406.63,546.92Zm21.43-37.57a6.71,6.71,0,0,1,.68.4,65.87,65.87,0,0,1-31.14-19.53c.11-.16.21-.32.31-.48,1,.73,2.13,1.4,3.1,2.23a25.88,25.88,0,0,0,10.63,6,2.2,2.2,0,0,1,1.13.7C416.81,503.74,422.15,506.94,428.06,509.35Zm84.66-123.61c-15,17.58-29.8,35.27-44.93,52.71s-28.91,36.08-45.36,52.73l-13.17-8.71,103.11-97.06ZM405.84,465.83c31.36-29.12,64.7-55.81,99.34-80.91l5.49-3.94c.08-.06.24,0,.6,0-35.41,33.14-71.16,65.65-105.52,100l-8.38-6C400.2,471.87,402.82,468.63,405.84,465.83Zm-15.22,10a78.62,78.62,0,0,1,8.8,4.87c5.06,3.21,10.06,6.54,15,9.94a35.37,35.37,0,0,1,3.92,3.64l-.44.59c-4.56.93-8.42-.76-12-3.37-1.65-1.22-3.07-2.73-4.72-3.92a13.55,13.55,0,0,0-8.67-2.3c-1.93.08-3.2-.43-3.52-2.48a47.05,47.05,0,0,1-.75-5.25C388.2,475.45,388.79,474.94,390.62,475.79Zm-3.82-4.58c-1.52.21-2-.5-2.42-3.84Zm-.85,4.15c.58,3.44,1.11,6.56,1.65,9.73-2,.78-2.55.64-3.5-1.51a22,22,0,0,1-1.61-4.45C381.83,475.83,383,474.8,386,475.36Zm4,13.47c.69,0,1.56.85,2.1,1.5,7.66,9.3,16.66,16.9,27.93,21.4,4,1.59,8.24,2.39,12.37,3.55.54.15,1.09.28,1.64.42-8.17,1.13-16.26,1.58-24.32-.41-4.07-1-7.24-2.86-8.9-7a11,11,0,0,0-3.41-4.29,90.17,90.17,0,0,0-11.45-8.15,8.09,8.09,0,0,1-4.39-6.32C384.35,489.25,387.15,488.89,390,488.83Zm-5,9.9c3.87,2.74,7.95,5.38,11.19,8.78,2.41,2.55,3.72,6.18,5.38,9.39,2.8,5.41,5.56,10.84,8.2,16.32,1,2.09,1.64,4.36,2.62,7-2.41-1.1-4.84-1.64-6.29-3.79-3.57-5.25-6.94-10.63-10.63-15.79-3.92-5.49-7.91-11-14.32-14-1.25-.59-2.19-1.85-3.28-2.81l.35-.78h2.2c1.94,0,2.4-.75,1.53-2.47-.35-.69-.75-1.36-1.13-2l.24-.63C382.33,498.17,383.93,498,384.94,498.73ZM377,454.79l.42,0c1.11,5.46,2.21,10.91,3.36,16.57l-4.6-.21C376.45,465.62,376.72,460.21,377,454.79Zm-56.55,116.7c-2.27.5-3.64-.87-3.73-3.25-.13-3.75,1.34-7.07,3.1-10.89,2.09,5.21,5.23,8.85,10.36,10.43l0,.84C327,569.6,323.74,570.77,320.44,571.49Zm12.1-7.41c-4.89-1.46-8-4.78-9.92-9.28a3.55,3.55,0,0,1,.15-2.69c.86-1.67,2-3.18,3.23-5.05,2.51,7,6,12.64,13.1,15.14C336.71,564.94,335.83,565.06,332.54,564.08ZM344,558.81a2.52,2.52,0,0,1-2,.05c-4.86-1.69-8.22-5.08-10.74-9.49-3.2-5.63-3.24-5.59,1-10.47a7,7,0,0,0,.64-1.19c4.72,6.75,8.1,14.13,16.91,16.27C347.76,555.74,345.94,557.36,344,558.81Zm10.85-9.76a6.58,6.58,0,0,1-4.88,0,28.3,28.3,0,0,1-6.88-4.81c-2.39-2.26-4.32-5-6.5-7.47-.9-1-1-1.84.08-2.82,1.67-1.46,3.25-3,4.72-4.41,4.18,6.8,8.41,13.64,17.87,16C357.79,546.71,356.51,548.35,354.84,549.05Zm5.77-8.78a13.31,13.31,0,0,1-9.23-4.38c-2.31-2.54-4.6-5.09-6.84-7.68a1.52,1.52,0,0,1,.33-2.5c1.09-.83,2.07-1.81,3.09-2.73,3.65,7.35,8.74,12.85,16.78,15C364,539.92,362.74,540.44,360.61,540.27Zm8.88-8.16c-.44.66-.91,1.29-1.39,1.95-7.4-1.42-12.59-5.9-16.81-11.71-.35-.47-.14-1.35-.19-2a5.4,5.4,0,0,1,1.94.62,47.56,47.56,0,0,1,4.26,4.14,16.34,16.34,0,0,0,9.49,4.92,25.89,25.89,0,0,1,3.11,1A7.9,7.9,0,0,1,369.49,532.11ZM402.36,543c-4.68-6.07-11.31-10.14-16.24-15.92a25.81,25.81,0,0,1-3.42-5.32,8.11,8.11,0,0,0-4.83-4.43,24.32,24.32,0,0,0-5.35-1.42,11.5,11.5,0,0,1-7.35-3.38c-2.82-2.7-5.92-5.09-9-7.52a6.17,6.17,0,0,0-2.24-.64c.2.74.18,1.7.65,2.17,6.78,6.79,13.48,13.67,21.51,19.06a3.82,3.82,0,0,1,1.14,1.32c2.41,4.84,4.79,9.7,7.22,14.64-2.3,0-3.89-1.62-5.14-3.81a92.86,92.86,0,0,0-6.15-9.13,4.41,4.41,0,0,0-2.67-1.52c-4.88-.8-8.65-3.53-12.2-6.68a22.75,22.75,0,0,1-2-1.91,11.58,11.58,0,0,0-9.47-4.18c-3.89.08-7.13-2-10.49-3.44a45,45,0,0,0-14.81-3.51,22.07,22.07,0,0,1-15.41-7.64c-2.15-2.42-4.42-4.82-7.74-5.66a19.41,19.41,0,0,0-3-.29c0,.22-.09.43-.13.65l3.92,3.09c-2.24,1.13-4.16,2-5.94,3.05a62.24,62.24,0,0,0-6,4.19,2.31,2.31,0,0,1-2.89.09c-1.22-.63-.4-1.41-.27-2.19a26.38,26.38,0,0,0,.56-4.9c0-.75-.89-1.47-1.38-2.21-.6.51-1.43.91-1.77,1.56a30.54,30.54,0,0,0-1.44,3.84c-2.44-1.36-2.82-2.94-2.36-5.68a46.85,46.85,0,0,0,.29-8.47,2,2,0,0,0-1.2-1.55c-.46-.09-1.3.57-1.6,1.1-.73,1.31-1.25,2.74-2,4.42a17.47,17.47,0,0,1-1.8-8.18c0-.31.56-.7.94-.91,6.48-3.61,12.89-7.37,19.52-10.69a17.61,17.61,0,0,1,7.5-1.48,69.81,69.81,0,0,1,10.29.87c8.19,1.1,16.39,2.22,24.56,3.52a191.76,191.76,0,0,0,42,2c.52,0,1,0,1.27,0,1,3.42,1.91,6.66,3,10.34a59.43,59.43,0,0,1-8.35.61c-1.32-.08-2.58-1.48-3.85-2.29s-2.18-1.52-3.34-2.16c-.37-.2-1,0-1.45,0,.06.49,0,1.11.22,1.45a8.44,8.44,0,0,0,1.85,1.78c4.37,3.1,8.77,6.17,13.15,9.25.52.36,1,.74,1.61,1.18-2.52,1-2.52,1-1.2,4.84-1.38.55-3.57-.8-4.1,2.27l-16.09-11.23-.54.52a8.45,8.45,0,0,0,1.31,1.87c3.5,2.92,6.94,5.94,10.63,8.61s8.13,4.83,11.76,7.77a62.31,62.31,0,0,1,10,10.11c3.79,4.91,7,10.3,10.31,15.54a29.46,29.46,0,0,1,1.55,3.93c.63,1.4,1.39,2.76,2.16,4.27a3.94,3.94,0,0,1-1.33-.14A6.45,6.45,0,0,1,402.36,543Zm2.83-353.18A79.79,79.79,0,0,0,377.4,179c-1.5-.27-3.69-1.18-4.3,1-.67,2.39,1.78,2.36,3.23,2.8,3.53,1.1,7.28,1.66,10.63,3.14,10,4.4,19.74,9.4,27.71,17.14,4,3.91,8,7.86,11.77,12.06a39.55,39.55,0,0,1,6.14,8.75c3.84,7.89,8,15.72,9.18,24.63a17,17,0,0,0,1.53,3.87l1.12-.05c.31-1.06,1-2.17.86-3.18-.43-3.8-.62-7.74-1.82-11.32-1.9-5.69-4.47-11.17-6.91-16.67-.57-1.27-.37-1.87.65-2.59,5.46-3.86,10.75-8,16.37-11.58,6-3.87,12.5-7,19.71-8.1,4.49-.71,8.56-.14,11.61,3.81.67.88,2,1.26,3,1.87.2-1.17.75-2.41.54-3.5-1.53-8-6.21-13.28-13.87-15.93-1.49-.52-3.05-.83-4.84-1.3.61-.66,1.08-1.2,1.57-1.7A55.59,55.59,0,0,0,484,162a35,35,0,0,0,1.58-6.14c.31-1.91-.82-3-2.77-2.92a13.1,13.1,0,0,0-2.17.24,54.47,54.47,0,0,0-23,10.69c-1.11.86-2.21,1.74-3.49,2.76-.22-1.43-.36-2.48-.53-3.52a20.24,20.24,0,0,0-15.41-16.59c-1-.22-2.2.24-3.3.38.51,1,.79,2.29,1.57,3a10.15,10.15,0,0,1,3.34,9.87,19.7,19.7,0,0,1-1.22,5,132.19,132.19,0,0,1-6.65,13.05c-4.38,7.13-9.94,13.36-15.7,19.29C412.46,194.6,408.9,192.08,405.19,189.8Zm67.48-29.56c2.05-1.8,5.29-2.24,8-3.28-1,8-3.67,10.84-12.1,11.64A14,14,0,0,1,472.67,160.24Zm-28.39-5.66A17.44,17.44,0,0,1,448.84,165c.16,2.11-.13,4.24,0,6.35a12.34,12.34,0,0,0,1.07,3c1.1-.59,2.53-.91,3.25-1.8,2.23-2.77,9.83-8.5,14.33-10.31a27.71,27.71,0,0,0-1.44,3.12,17.71,17.71,0,0,0-.89,4c-.14,2,.77,2.94,2.73,2.74,2.34-.24,4.65-.79,7.08-1.22a5.35,5.35,0,0,1-.43,1c-3.35,4.77-6.65,9.56-11.64,12.89a3.85,3.85,0,0,0-1.2,2.7c0,.36,1.26,1.08,2,1.19,1.69.26,3.43.24,5.14.35A18.32,18.32,0,0,1,479.11,193a13,13,0,0,1,1.17,1.06,3.33,3.33,0,0,1,.38.79A22.77,22.77,0,0,0,466,196.29c-5.94,2.72-11.66,5.93-17.44,9-1.5.8-2.85,1.86-4.26,2.8l-4.39-8.48c1.62,0,3.12.08,4.61,0a25,25,0,0,0,5.27-.7,2.81,2.81,0,0,0,1.56-2.17,3.06,3.06,0,0,0-1.7-2.08,14.12,14.12,0,0,0-3.63-.56c1.09-1.24,2.13-2.33,3.05-3.5s1.63-2.66.43-3.74a3.86,3.86,0,0,0-3.38-.34,33.61,33.61,0,0,0-5,3.24,5.46,5.46,0,0,0-.28-1.84c-.44-.8-1-1.93-1.74-2.06a2.88,2.88,0,0,0-2.43,1.19,9.47,9.47,0,0,0-.87,3.77,34.47,34.47,0,0,0,.2,4.13l-7.77-4.8C435.8,179.45,445,169.46,444.28,154.58Zm-19.39,39.2c6.88,4.19,11.31,10.36,15.5,17.09l-6.31,5-14.43-16.42ZM208.78,679.15a21.22,21.22,0,0,0-14.32-7V419.3c-3,1.28-4.18,3-4.12,6.19.24,11.85.09,23.72.09,35.58V675.53a23.59,23.59,0,0,1,15.33,6.77c4.26,4.16,6.86,9,6.28,15.25h4.85c37.77,0,75.54,0,113.3.1,3.51,0,5.35-1.84,7.87-4.23H215.7A25,25,0,0,0,208.78,679.15ZM580.39,672q0-123.24.09-246.49c0-3.19-1.17-4.89-4.23-6.21V671.89c-12.31,2.23-18.69,10-21.34,21.63h-122c2.5,2.47,4.54,4.45,8.21,4.14,4.66-.41,9.39-.11,14.09-.1l102.18.05a5.52,5.52,0,0,0,1.13-.2c1-13.74,9.43-19.87,21.91-22.13ZM191.23,76.43v237c0,3.07.84,4.21,4.17,5.42V76.24c12.3-2.22,18.66-10,21.34-21.64H338.68c-2.43-2.64-4.68-4.43-8.37-4.11-4.47.39-9,.09-13.5.09H213.15c-.92,13.77-9.32,19.92-21.92,22.29Zm385.93-.16V318.93c2.94-1.34,4.24-3,4.13-6.23-.3-8.61-.1-17.23-.1-25.84v-214c-12.6-2.28-21-8.49-21.92-22.26h-3.95c-38,0-75.93,0-113.89-.1-3.51,0-5.35,1.84-7.87,4.22H555.72C558.46,66.41,564.85,74.05,577.16,76.27ZM415,76.16H355.58v49.55H415Zm-4,45.46H359.76V80.31H411ZM255.57,414a21,21,0,0,1,4.09-2c2.92-.93,5.92-1.65,8.86-2.46,0,0-.1-.2-.19-.23-.52-.11-1-.18-1.56-.27a30.38,30.38,0,0,1-11.68-4.23,8,8,0,0,1-3.79-5.57q-.81-5.51-1.69-11c-.52-3.2-1.07-6.39-1.61-9.58a1.84,1.84,0,0,0-.67,1.15c-1,6.14-2,12.28-2.89,18.44a8.54,8.54,0,0,1-4.3,6.75,23.74,23.74,0,0,1-4.26,2.1c-2.87.93-5.83,1.64-9.28,2.58a20.88,20.88,0,0,1,3.08.56c3.65,1.32,7.35,2.54,10.86,4.17a7,7,0,0,1,3.79,5.73c.52,3.74,1.12,7.47,1.72,11.19.49,3,1,6.09,1.53,9.13,1.51-6.54,2.68-13,3.56-19.59A8.7,8.7,0,0,1,255.57,414ZM541.68,219c-3.48-1.19-7.06-2.2-10.4-3.72a7.78,7.78,0,0,1-4.62-6.7c-.43-4-1.22-8-1.87-12-.43-2.6-.89-5.19-1.33-7.79A179.24,179.24,0,0,0,520,208a9.2,9.2,0,0,1-5.25,7.62,30.4,30.4,0,0,1-4.91,2.11c-2.41.75-4.9,1.25-7.75,1.95,1.09.23,1.8.39,2.5.52a29,29,0,0,1,11.63,4.34,8.17,8.17,0,0,1,3.62,5.87c.79,5.64,1.76,11.25,2.67,16.87.17,1.07.41,2.12.62,3.18a3.44,3.44,0,0,0,.72-1.71c.85-5.29,2-10.56,2.44-15.89.45-5.61,3.34-8.89,8.36-10.6,3-1,6.2-1.8,9.56-2.76A20.36,20.36,0,0,1,541.68,219ZM436.07,657.5a4,4,0,0,0,2.32-2.22c1-2.43,1.73-5,2.58-7.5.2-.6.45-1.18.86-2.26,1.07,3.72,2,6.94,2.93,10.15.34,1.17.74,2.38,2.26,2.38s2-1.31,2.26-2.57c1.45-6.11,2.86-12.23,4.35-18.33,1.14-4.68,2.36-9.35,3.57-14,.3-1.21.22-2-1.33-2.18-2.24-.32-2.79-.06-3.37,2.4q-2.44,10.53-4.88,21.06c-.94-2-1.38-4.19-2.17-6.18-.39-1-1.32-2.27-2.17-2.41a3,3,0,0,0-3.4,2.38c-.62,2.07-1.41,4.09-2.13,6.13l-.4-.09c-.66-3.44-1.26-6.89-2-10.31s-1.69-7.07-2.58-10.59c-.46-1.81-1.88-1.88-3.07-1.12a3.07,3.07,0,0,0-.9,2.52c.52,4.21,1.14,8.4,1.89,12.57,1.05,5.92,2.24,11.82,3.39,17.74C434.3,656.24,434.61,657.74,436.07,657.5Zm-97.8-36.32c-.67.14-1.42,1.45-1.55,2.32-1,6.6-1.84,13.22-2.82,20.42-.35-1.35-.52-2.18-.78-3q-2.73-8.4-5.48-16.79c-.51-1.53-1.36-2.89-3.26-2.47s-1.23,2.12-1.27,3.31c-.3,9.06-.54,18.13-.78,27.19,0,1.25,0,2.51,0,3.76s.29,2.39,1.77,2.4,1.81-1.21,1.89-2.36c.35-4.94.67-9.89.92-14.84.11-2.07,0-4.15,0-6.23l.49,0c.19.59.44,1.18.58,1.78,1.08,4.71,2.13,9.43,3.21,14.14a31.42,31.42,0,0,0,1.56,5.92,4.23,4.23,0,0,0,2.91,2.16c1.57.13,1.71-1.55,1.83-2.8.19-2,.25-4.1.45-6.14.75-7.71,1.55-15.41,2.29-23.12a15.75,15.75,0,0,0-.12-3.36C340,622.32,339.75,620.87,338.27,621.18Zm148.65,24.67c.88,2.08,1.57,4.16,2.61,6.07a25.55,25.55,0,0,0,3.59,5.15,3.1,3.1,0,0,0,2.92.59c1.12-.74,1.26-2.08.4-3.49-1.76-2.87-3.28-5.89-5-8.8-.78-1.33-.72-2.19.48-3.38a15.05,15.05,0,0,0,4.72-13c-.48-4-2.49-7-6.4-8.33s-7.58-.13-10.65,2.58c-1,.92-1.56,2-.16,3.18a1.76,1.76,0,0,1,.42,1.21q.17,8.84.26,17.66c0,3.24,0,6.48,0,9.72,0,1.83.74,3,2.65,3s2.09-1.58,2.16-3c.12-2.37.13-4.76.08-7.14C485,646.62,485.32,645.86,486.92,645.85Zm-2.23-11.72c-.14-2.64-.23-5.29-.49-7.92-.14-1.4.39-1.89,1.7-2a5.11,5.11,0,0,1,5.5,3.9c1,4.71.23,10.27-4.55,13.12a17.81,17.81,0,0,1-1.79.82C484.93,639.24,484.83,636.68,484.69,634.13Zm16.41-5.2c.28,8.2.51,16.41.9,24.61.17,3.71,1.61,4.35,4.65,2.37a26.74,26.74,0,0,0,11.66-17.11,20.25,20.25,0,0,0-.31-11.18c-2.58-7.75-10.82-10.48-17.47-5.74a3.56,3.56,0,0,0-1.41,2.16c-.05.42,1.08,1,2,1.75C501.1,626.56,501.06,627.75,501.1,628.93Zm13.32,1.53c1,7.64-2,13.78-7.44,19.28-.48-8.86-1-17.43-1.42-26C510.41,622.12,513.89,626.35,514.42,630.46Zm-261.27.3a13.08,13.08,0,0,0-4.59-7.48c-1.54-1.18-3.53-2.17-5.15-1.18-2.54,1.54-5.22,3.37-6.86,5.75-5.3,7.7-5.89,16.24-3.12,25a12.47,12.47,0,0,0,2.3,3.9c2.72,3.31,6.68,3.84,10.3,1.52l1.32-.86c.4.82.68,1.42,1,2,.58,1.14,1.39,2.13,2.79,1.53s1.2-1.91.84-3.1a8.06,8.06,0,0,0-.86-2,3.5,3.5,0,0,1,0-3.84A30.53,30.53,0,0,0,253.15,630.76Zm-5.32,18.07a17,17,0,0,0-1.67-2.68c-.41-.46-1.46-1-1.75-.79a2.33,2.33,0,0,0-.92,1.88,18.56,18.56,0,0,0,1.24,4c.48,1.23,1,2.34-.49,3.29s-3,1.78-4.53.47a9,9,0,0,1-2.57-3.43,26.33,26.33,0,0,1,2.61-24.12,4.33,4.33,0,0,1,7.56-.08,19.05,19.05,0,0,1,2.5,6.37C250.89,638.58,249.93,645.17,247.83,648.83Zm131.23-8.92-.56-.12c0-4.93-.32-6.23-2.32-10-.11-.22,0-.53-.09-.77a21.2,21.2,0,0,0-1.51-4.45c-2.24-3.85-6.45-4.3-9.46-1-2.32,2.56-4.4,5.5-4.79,9a73.82,73.82,0,0,0-.47,13.61,17.5,17.5,0,0,0,5.05,11.4c2.58,2.54,5.75,2.72,8.21.06a12.72,12.72,0,0,0,3-4.83C377.32,648.57,378.1,644.22,379.06,639.91Zm-6.35,10.21a18.49,18.49,0,0,1-2.41,4.28c-.77,1.09-1.87,1-2.64-.08a8.13,8.13,0,0,1-1.48-2.76c-.79-3.45-1.41-6.94-2.1-10.47.7-3.67,1.34-7.22,2.06-10.76a5.35,5.35,0,0,1,.87-2.2c.89-1.15,1.9-2.91,3-3s2.12,1.73,3.18,2.71c2,1.86.77,4.32,1.07,6.47A32.88,32.88,0,0,1,372.71,650.12Zm101.84-23.49c-2.44-5.19-10.3-5.54-13.26-1.29a24.29,24.29,0,0,0-2.89,4.93,27.5,27.5,0,0,0-1,17.92A19.52,19.52,0,0,0,461.2,655c2.59,3.06,6.51,3.19,9.56.57a16.08,16.08,0,0,0,3.46-4.28,25.13,25.13,0,0,0,2.95-13.15A25.6,25.6,0,0,0,474.55,626.63Zm-4.33,23.44c-1.82,3-3,3-5.56.78-3.07-2.73-3.6-6.31-3.66-10.16.33-2.48.54-5,1-7.43a11.41,11.41,0,0,1,4.13-6.61c1.69-1.39,2.71-1.36,4,.36a13.71,13.71,0,0,1,2.32,4.32C474.26,637.85,473.82,644.2,470.22,650.07Zm-52.53,4.14c-2.2.47-3.66-.58-4.79-2.36-.83-1.32-2-2.13-3.48-1.15s-1.28,2.38-.52,3.7a8.83,8.83,0,0,0,7.52,4.75c5.76-.53,10.93-3.27,10-11a13.1,13.1,0,0,0-5.76-9.73,79,79,0,0,1-7-5.82,3.39,3.39,0,0,1-1-2.25c0-1.48,2.81-3.75,4.41-3.77a3.74,3.74,0,0,1,3.71,3.42c.16,1.06.15,2.29,1.67,2.19s1.66-1.32,1.77-2.46c.45-4.91-5.08-8.89-9.82-7.09-6.36,2.43-8.18,8.73-3.75,13.87a60.14,60.14,0,0,0,7,6.37c1.82,1.53,3.31,3.18,3.73,5.64C422,652,421.12,653.48,417.69,654.21Zm112.12-1.36c-1.91.28-3.29-1-4-3.27-.22-.76-1.18-1.3-1.8-1.94-.67.79-1.77,1.5-1.92,2.37-.61,3.54,2.78,7.25,6.36,7.23,2.88,0,5.57-.63,6.87-3.41a17.82,17.82,0,0,0,1.76-6.4c.27-4.38-2-7.8-5-10.82a30.41,30.41,0,0,1-4.82-5.48,9.38,9.38,0,0,1-.89-5,3,3,0,0,1,2.11-2.09,3.37,3.37,0,0,1,2.58,1.53c.81,1.32,1.07,3,1.75,4.4.29.61,1.07,1,1.62,1.46.48-.62,1.34-1.22,1.38-1.86a9.31,9.31,0,0,0-2.86-7.74,6,6,0,0,0-7.35-.63c-3.6,2.28-5.34,7.27-3.22,11,2,3.51,4.87,6.55,7.11,9.95a23.86,23.86,0,0,1,3,6.34A3.77,3.77,0,0,1,529.81,652.85ZM263.11,625c0-.6-.75-1.18-1.15-1.77a17.86,17.86,0,0,0-1.4,1.62,1.9,1.9,0,0,0-.17,1c-.35,7.14-.88,14.28-.94,21.42a30.54,30.54,0,0,0,1.54,9.11,5.64,5.64,0,0,0,5.5,3.91,5.83,5.83,0,0,0,5.42-3.42,23.5,23.5,0,0,0,2-4.76c2.39-8.4,3.2-17,3.61-25.7,0-.33.1-.77-.07-1-.52-.6-1.09-1.43-1.74-1.53s-1.25.73-1.68,1.3c-.28.37-.17,1-.24,1.55-.82,6.62-1.47,13.28-2.54,19.86a32.44,32.44,0,0,1-2.76,8.23c-1,2.08-2.87,1.92-3.84-.18a10.39,10.39,0,0,1-.88-3.64c-.3-5.21-.47-10.44-.7-15.66h.14C263.17,631.85,263.23,628.4,263.11,625ZM314,306.4c.84-.74,1.4-1.79,2.23-2.53a36.42,36.42,0,0,1,3.26-2.38c.15,4.56,1.9,6.43,6,6.8,5.1.45,8-1.92,9.18-7.55,3.28-.2,6.55.21,9.37-.73s5.21-3.2,7.79-4.89c-.46-.49-.6-.54-.72-.51a6.05,6.05,0,0,0-.95.26c-4,1.59-7.9,1.31-12.06.44a64.89,64.89,0,0,0-12.4-1c-7.42-.1-11.65,4.24-14,10.82a10.32,10.32,0,0,0-.18,2.8A15.14,15.14,0,0,0,314,306.4Zm9.8-6c2.33-.33,4.69-.5,7.26-.75.08,2.35-.35,4-2.19,4.73s-4.07,1.07-5.82-.4a4.24,4.24,0,0,1-1.08-2.59C322,301.11,323.15,300.48,323.83,300.39ZM281.41,656a8.38,8.38,0,0,0,.53,3.09,2,2,0,0,0,1.4,1.13c4.16-.1,8.33-.24,12.48-.6.68-.06,1.82-1.34,1.74-1.92a3.14,3.14,0,0,0-1.87-2.09,10.77,10.77,0,0,0-3.93-.09c-2.14.19-4.27.53-6.27.8V643c1,0,1.76,0,2.47,0a42.16,42.16,0,0,0,5.51-.57,2.37,2.37,0,0,0,1.48-1.74c0-.57-.85-1.33-1.5-1.69a3.62,3.62,0,0,0-1.95-.1c-1.89.18-3.78.43-6,.69V626.13c3.08,0,6.31,0,9.54,0,1.3,0,2.7-.22,2.74-1.9s-1.41-2-2.67-2c-3.63.06-7.27.23-10.9.49-1.57.11-2.77.73-1.71,2.73a3.77,3.77,0,0,1,.06,1.75C282.14,636.8,281.74,646.39,281.41,656Zm29.68-29.57a16.85,16.85,0,0,0,4.08-.63,2.25,2.25,0,0,0,1.17-1.76,2,2,0,0,0-1.34-1.4c-3.69,0-7.39.14-11.07.48-1.17.11-1.67,1.14-.89,2.42a4.2,4.2,0,0,1,.69,2.12c-.05,2.78-.54,5.58-.33,8.33s-.87,5.08-.42,7.91c.7,4.44.14,9.11-.16,13.66-.18,2.7.23,3.3,2.9,3s5.13-.45,7.7-.68a6,6,0,0,0,2.33-.29c.71-.39,1.59-1.24,1.59-1.89a2.71,2.71,0,0,0-1.55-1.92,8,8,0,0,0-3.13-.16c-1.84.1-3.67.31-5.7.5v-13c2-.1,3.79-.11,5.61-.32,1.52-.18,3.66-.1,3.63-2.22s-2.16-1.87-3.7-2a17.25,17.25,0,0,0-2.38.12c-1,.08-2,.18-3.36.3V626.44C308.19,626.44,309.64,626.51,311.09,626.42Zm257,11.79c-.08-2-1.83-2.6-3.42-3.11a19.42,19.42,0,0,0-3.47-.8c-2.22-.28-4.46-.44-7-.67.49-1,1-1.89,1.32-2.8.52-1.42,1.2-3-.26-4.21a3.26,3.26,0,0,0-4.39.22,35.56,35.56,0,0,0-6.24,6.2,9.82,9.82,0,0,0-1.52,5.6c.07,4.93,2.93,8.6,6.31,11.88a7.15,7.15,0,0,0,2.34,1.44,2.51,2.51,0,0,0,3.62-2.53,12.5,12.5,0,0,0-.83-3.63,25.65,25.65,0,0,0-1.39-2.86c3.88-.56,7.72-1,11.52-1.73C566.3,640.92,568.21,640.35,568.12,638.21Zm-14.94-9.8a6,6,0,0,1-6.87,6.25C548,631.88,550,629.55,553.18,628.41Zm-6.83,13.23c3.49-.33,6.31,3,6.14,7.49A19,19,0,0,1,546.35,641.64Zm-.47-3.32c3.25-2.15,15.76-2,19.09.17C561.87,640.57,549.07,640.46,545.88,638.32ZM414.66,59.22c2.43.53,4-.95,3.36-3.35a36.61,36.61,0,0,0-1.62-4.13c2.8-.32,5.53-.48,8.17-1a13.16,13.16,0,0,0,4.68-2c1.5-1,1.28-2.82-.31-3.73a10.33,10.33,0,0,0-3.51-1.32c-3.37-.51-6.77-.82-10.15-1.21a51.78,51.78,0,0,0,2-4.89c.47-1.48.56-3.12-1-4.1s-2.89-.26-4,.71c-3.56,3.08-6.41,6.6-6.93,11.57C404.75,51.05,409.59,58.13,414.66,59.22Zm-.16-23.07c.17,4.17-2.37,7.32-6.2,7.72A19.31,19.31,0,0,1,414.5,36.15Zm12.89,10.93a36.79,36.79,0,0,1-19.91.19C411.05,44.86,423.83,44.73,427.39,47.08Zm-12.1,9.82c-3.26-1.06-5.19-3.45-7.06-6.35C412.85,50.91,415.44,53.26,415.29,56.9ZM387.21,621.36c-3.8.17-4.42.87-4.43,4.73q-.06,14.19,0,28.39a5.78,5.78,0,0,0,.5,2.88,3,3,0,0,0,2.31,1.22,3.15,3.15,0,0,0,2.07-1.58,6,6,0,0,0,.11-2.53V641.8c1.8,0,3.12.09,4.43,0,1.5-.13,2.56-.95,2.44-2.56s-1.39-2.1-2.87-2.05l-4,.19c-.23-4-.44-7.84-.65-11.66,3-.29,5.75-.43,8.4-.87.74-.13,1.33-1.15,2-1.76-.67-.53-1.31-1.45-2-1.51A65.53,65.53,0,0,0,387.21,621.36ZM345.5,50.14a16.21,16.21,0,0,0,3.07.76c2.41.32,4.84.53,7.51.82-.51,1.16-1,2.21-1.45,3.31-.47,1.27-.9,2.85.48,3.58a4.81,4.81,0,0,0,3.65.17A13.72,13.72,0,0,0,365.94,52a11.89,11.89,0,0,0,1.31-5.29c-.11-4.94-2.95-8.61-6.33-11.89a7,7,0,0,0-2.33-1.44A2.51,2.51,0,0,0,355,35.87a12.5,12.5,0,0,0,.83,3.63,25.33,25.33,0,0,0,1.38,2.84c-3.92.59-7.83,1.08-11.68,1.81-1.52.28-3.29.91-3.22,2.93S344,49.62,345.5,50.14Zm11.59,6.52c.39-3.56,2.33-6.24,6.86-6.07C362.51,53.73,359.54,56.37,357.09,56.66Zm7.08-12.72c-4-.6-6.31-3.48-6.31-7.78A18.8,18.8,0,0,1,364.17,43.94Zm.36,3.06c-3.35,2.15-15.84,2-19.09-.2C348.63,44.73,361.4,44.87,364.53,47ZM586.62,385.41c-5.23-.55-12.3,4.28-13.41,9.34-.53,2.43.95,4,3.33,3.38a39.07,39.07,0,0,0,4.26-1.67,50.3,50.3,0,0,0,.43,5.23,42,42,0,0,0,1.82,6.84,3,3,0,0,0,2.38,1.63,3.58,3.58,0,0,0,2.38-1.94,19.93,19.93,0,0,0,1.44-5.33c.33-2.5.36-5.05.51-7.6,1.69.72,3.27,1.55,5,2.08,1.46.46,3.09.64,4.14-.89s.35-3-.67-4.17C595.1,388.77,591.59,385.93,586.62,385.41Zm-11.15,10.15c1.13-3.44,3.54-5.36,6.25-7.13C582,392.41,579.78,395.1,575.47,395.56Zm10.2,11.71c-2.21-3.71-2.36-15.43-.35-19.21C587.48,390.41,587.77,403.09,585.67,407.27Zm2.92-18.89a18.92,18.92,0,0,1,7.65,6.26C592,394.7,588.92,392.23,588.59,388.38ZM213,653.77a3.13,3.13,0,0,0,4.14-.81c2.11-2.41,4.38-4.84,5.82-7.65,4.07-7.88-2.73-15.32-8.27-17.17-2.44-.82-4.09.88-3.41,3.38a36.41,36.41,0,0,0,1.6,4c-2.66.3-5.28.48-7.85.94a12.75,12.75,0,0,0-4.43,1.57c-2.24,1.36-2.05,3.37.29,4.52a10.16,10.16,0,0,0,3,1c3.37.47,6.76.81,10.14,1.2-.63,1.45-1.45,3-2,4.69S211.34,652.73,213,653.77Zm1.7-2.6c.12-4.69,2.5-7.53,6.26-7.68A19.12,19.12,0,0,1,214.69,651.17Zm6.28-14.5c-4.44.16-6.41-1.91-7.1-6.28C217.27,631.46,219.2,633.88,221,636.67Zm-19.05,4.23c3-2.56,15.52-2.82,20-.38C215,642.52,208.65,642.2,201.92,640.9Zm-20.7-243.24c.53,3.5,1,7,1.78,10.48a3.2,3.2,0,0,0,2.3,2,3.54,3.54,0,0,0,2.55-1.71,11.74,11.74,0,0,0,1.35-4.09c.43-2.58.63-5.19.93-7.83a36.7,36.7,0,0,0,4.06,1.6c2.49.67,4-.94,3.38-3.45a6.84,6.84,0,0,0-.86-2c-4.57-7.08-11.51-10.16-19.29-4.64a22.84,22.84,0,0,0-5.38,5.41c-1.5,2.16,0,4.3,2.62,4.12a12.6,12.6,0,0,0,3.42-.89,33.78,33.78,0,0,0,3.12-1.57A17.72,17.72,0,0,0,181.22,397.66Zm7.76-9.2c3.76,2.23,5.73,4.52,6.1,7C192.29,395.36,188.74,393.41,189,388.46Zm-3.35-1a37.56,37.56,0,0,1-.08,19.91C183.19,404.56,183.18,391.75,185.63,387.46Zm-10.76,7.23c.79-2.13,4.06-4.87,7.27-6.11C182.21,392.11,179.26,394.58,174.87,394.69Zm183,294.59a3.81,3.81,0,0,0-3.42.25c-.68.59-.74,2.24-.58,3.35a17.81,17.81,0,0,0,1.55,3.82,21.38,21.38,0,0,0-3.23,0,62.44,62.44,0,0,0-8.31,1.7,3.93,3.93,0,0,0-2.22,2.81c-.05.79,1.39,1.8,2.33,2.48a5.56,5.56,0,0,0,2.44.77c3.32.43,6.65.77,9.92,1.14-.69,1.76-1.52,3.56-2.07,5.44-.38,1.29-.34,3,1.1,3.45a4.35,4.35,0,0,0,3.6-.39,26.92,26.92,0,0,0,5.07-5.48C369.87,700.06,364.5,692.49,357.82,689.28ZM357,712c.13-4.53,2.39-7.31,6.34-7.81A19.54,19.54,0,0,1,357,712Zm-12.75-10.31c3-2.55,15.53-2.8,20-.37C357.36,703.35,351,703.08,344.28,701.73Zm12-10.18c2.33.07,5,2.32,7,6.05C358.37,697.54,356.89,695.09,356.24,691.55ZM589.61,335.13c-.45-3.33-.85-6.68-1.48-10-.25-1.35-.94-2.77-2.66-2.79s-2.65,1.37-3,2.76c-.68,3-1.07,6.1-1.55,9.17-.1.6-.11,1.21-.17,1.91a17.3,17.3,0,0,0-3.69-1.52c-1.05-.17-2.6-.12-3.2.52a3.61,3.61,0,0,0-.43,3.24,14.76,14.76,0,0,0,9.33,8.58c5.64,1.78,12.34-2.74,15.46-6.78.91-1.17,1.6-2.56.65-4s-2.64-1.45-4.12-1c-1.68.53-3.27,1.35-5.15,2.15A16.82,16.82,0,0,0,589.61,335.13Zm-14.17,1.93c4.11.79,6.38,2.27,6.46,7.15A13.13,13.13,0,0,1,575.44,337.06Zm10,7.57c-2.14-3.44-2-16,.24-19.09C587.71,328.82,587.56,341.63,585.41,344.63Zm10.4-6.73c-.38,2-3.58,4.73-7.24,6.2C589,340.31,591.35,338.33,595.81,337.9ZM425.28,697.77c-3.16-.62-6.37-1-9.68-1.49A14.31,14.31,0,0,0,417,693c.16-1.12.19-2.85-.47-3.37a4.15,4.15,0,0,0-3.59-.28,14.33,14.33,0,0,0-7.81,8,10.62,10.62,0,0,0-.74,4.25c.18,4.65,2.8,8.14,5.89,11.31a8.54,8.54,0,0,0,2.42,1.7c2.22,1,4.2-.18,4-2.59a22.38,22.38,0,0,0-1.49-4.87,9.79,9.79,0,0,0-.76-1.47c3.69-.48,7.3-.82,10.85-1.47,1.75-.32,4.05-.71,4.07-3.07S427.16,698.14,425.28,697.77Zm-10.75-6.54c-.2,3.34-2.13,6.52-7.08,6.32C409.32,694.7,411.23,692.28,414.53,691.23Zm-1.4,20.82L407,704.32a6.78,6.78,0,0,1,6.7,7.39Zm-6-10.94c3.49-2.14,16-2,19.08.25C422.85,703.42,410,703.26,407.1,701.11ZM178.08,345c8.07,5.4,15.2.95,19-5.74.73-1.28,1.16-2.77,0-4.09s-2.66-.82-4-.33c-1,.37-2,.88-2.93,1.33-.32-2.84-.52-5.48-1-8.07a12,12,0,0,0-1.42-4.07,3.36,3.36,0,0,0-2.44-1.57c-.8,0-1.72,1-2.26,1.84a6.63,6.63,0,0,0-1,2.79c-.47,3.38-.81,6.77-1.2,10.16a49.9,49.9,0,0,0-4.66-2c-1.53-.5-3.23-.72-4.3.92s-.3,3.06.78,4.15A34.34,34.34,0,0,0,178.08,345Zm17.3-7.87A13.47,13.47,0,0,1,189,344.2C188.83,339.7,191.15,337.72,195.38,337.14ZM185.48,325a37.75,37.75,0,0,1,.21,19.95C183.29,341.78,183.1,329,185.48,325Zm-3.28,19.22a19.41,19.41,0,0,1-7.69-6.27C179.17,338.05,182,340.44,182.2,344.22Zm19,342c-3.71-3.44-8.39-4.22-13.26-4-1.66.07-3.48.36-3.95,2.34-.53,2.19,1.1,3.25,2.75,4.05,1.45.7,3,1.18,4.22,1.64-2.28,2.9-4.71,5.77-6.86,8.83-1,1.38-2.25,3.25-.6,4.86s3.56.68,5.11-.35c2.75-1.81,5.35-3.83,8.08-5.82a18.16,18.16,0,0,0,1.52,3.73c.55.82,1.72,1.8,2.53,1.73a3.69,3.69,0,0,0,2.58-2,17.12,17.12,0,0,0,1.18-5.57C204.68,692.16,203.92,688.73,201.23,686.24Zm-14.4-.91a19.4,19.4,0,0,1,10,1C194.49,689.14,191.26,688.89,186.83,685.33Zm-1.23,16.29a31.87,31.87,0,0,1,13.81-13.26A29.83,29.83,0,0,1,185.6,701.62ZM201,701c-2.39-4-2.87-6.12.58-9.86A14.1,14.1,0,0,1,201,701Zm380.89-8.21a31.46,31.46,0,0,0-2.21-2.44c1.6-.65,3.29-1.23,4.87-2s2.71-1.86,2.27-3.76c-.4-1.7-1.91-2.19-3.38-2.27-4.68-.24-9,.44-13.07,3.36-4.8,3.46-4.85,12.54-2.7,16.16,1.26,2.12,3.47,2.18,4.73.06a34.77,34.77,0,0,0,1.85-4.38A17.76,17.76,0,0,0,576,699a83.46,83.46,0,0,0,7.7,5.17,4.21,4.21,0,0,0,3.63-.3c1.33-.85.8-2.48.06-3.59C585.63,697.74,583.76,695.26,581.9,692.79Zm2-7.44c-3.6,3.24-7,3.58-10,1C577.15,685.33,580.32,684.58,583.87,685.35Zm-14.06,15.52c-1.57-3.26-1.34-6.37-.73-9.5C572.23,693.73,572.66,696.78,569.81,700.87Zm1.59-12.5c6.1,2.85,10.5,7.5,13.85,13.25A29.65,29.65,0,0,1,571.4,688.37ZM191.7,57.69a39.92,39.92,0,0,0-5.87,3.09c-2,1.5-1.41,3.88,1,4.76,4.2,1.55,12.94-.75,15.78-4.16s3.77-10.68,1.52-14.66a3.7,3.7,0,0,0-2.5-1.82,3.76,3.76,0,0,0-2.55,1.72,19.36,19.36,0,0,0-1.58,3.8c-2.46-1.85-4.81-3.79-7.32-5.46-1.74-1.16-3.94-2.56-5.79-.76s-.16,3.93.94,5.51C187.31,52.55,189.65,55.16,191.7,57.69Zm-3.89,5.14c3.07-3.17,7.1-3.59,9.9-1.08C194.48,62.82,191.31,63.52,187.81,62.83Zm13.92-15.51c1.75,3.18,1.4,6.32.73,9.76C198.66,53.12,199.76,50.33,201.73,47.32ZM200.31,60.2a36.13,36.13,0,0,1-14.05-13.57C190.75,47.61,199.41,56,200.31,60.2Zm371.36,2.62a16.25,16.25,0,0,0,14.11,2.6c2.24-.57,2.67-2.94,1-4.53a11.43,11.43,0,0,0-3-1.86,25.13,25.13,0,0,0-3.11-1.09c2.34-3,4.77-6,7-9.08.95-1.34,2.08-3.15.49-4.68s-3.45-.69-5,.29c-2.8,1.84-5.47,3.89-8.3,5.92a23.66,23.66,0,0,0-.9-2.74c-.62-1.37-1.21-2.95-3.12-2.87s-2.68,1.64-3.05,3.2C566.46,53.58,566.45,59,571.67,62.82Zm13.06-.06c-3.63.81-6.79,0-10.08-1C577.69,59.18,580.65,59.46,584.73,62.76Zm1.88-16.37c-3.91,5.89-8.34,10.49-14.37,13.79C572.65,56.29,582,47.27,586.61,46.39Zm-16,.85c2.75,3.38,2.47,6.63-.63,9.64A14.12,14.12,0,0,1,570.59,47.24ZM378.19,57a3.22,3.22,0,0,0,2.43.65c.34-.06.49-1.38.68-2.14a3,3,0,0,0-.06-.78c0-2.68,1.86-5.54,4.13-6.23,1.3-.39,3.75.69,4.6,2.44a22.94,22.94,0,0,1,1.15,4.51c.19.76.27,2.08.63,2.17a3.11,3.11,0,0,0,2.43-.58,10.24,10.24,0,0,0,3.47-8.11A11.44,11.44,0,0,0,375,46.68,10.52,10.52,0,0,0,378.19,57Zm3.08-14.06c3-2.41,6.4-2.44,9.64-.09A6.75,6.75,0,0,1,393.5,51c-4.12-8.22-11.11-7-14.55,0A6.81,6.81,0,0,1,381.27,42.93ZM577.91,371.28a4.7,4.7,0,0,0-1,0c-.76.18-1.92.24-2.14.71a2.63,2.63,0,0,0,.53,2.26,9.78,9.78,0,0,0,6.79,3.55c9.06,0,14.48-7.35,12.21-14.76-2.49-8.17-12.89-10.95-18.65-4.93a7.92,7.92,0,0,0-1,2.57,8.37,8.37,0,0,0,2.57.7c3-.19,6.61,2.12,6.86,4.6S581,371.21,577.91,371.28ZM581.47,359a7,7,0,0,1,8.07,2.4,7.34,7.34,0,0,1,.36,9.17c-2,3-4.87,4.12-8.6,3.07C588.66,370.14,589.52,363.27,581.47,359Zm-388.71,2.35a6.78,6.78,0,0,0,1.18.05c.76-.18,1.92-.29,2.12-.76a2.67,2.67,0,0,0-.58-2.25,9.8,9.8,0,0,0-6.77-3.53c-6.62.05-10.94,3.43-12.32,8.62a11.23,11.23,0,0,0,5.46,12.84,11.07,11.07,0,0,0,13.2-1.65c.63-.66.76-1.8,1.13-2.72a8.88,8.88,0,0,0-2.59-.65c-3.12.18-6.51-2.19-6.79-4.92C186.56,364.13,189.67,361.5,192.76,361.36Zm-3,12.2c-3.76,1.16-6.64.14-8.67-2.79a7.27,7.27,0,0,1,.09-9.17,7.13,7.13,0,0,1,8.5-2.5c-3.53,1.34-5.93,3.73-6,7.27S186.2,372.11,189.73,373.56ZM393.33,691a2.68,2.68,0,0,0-2.26-.56c-.47.19-.76,1.38-.72,2.11a6.62,6.62,0,0,1-2.73,6.22c-1.8,1.29-3.15,1.25-4.82-.21a6.87,6.87,0,0,1-2.3-6.05c.05-.69-.2-1.87-.59-2a2.63,2.63,0,0,0-2.27.41,13,13,0,0,0-2.68,3.62,11.06,11.06,0,0,0,2.23,12.48,11.59,11.59,0,0,0,12.41,2.74c4.39-1.77,7.21-5.93,7.25-12A9.78,9.78,0,0,0,393.33,691Zm-2.17,13.41c-2.85,2.8-6.63,3.35-9.76,1.42s-4.41-5.19-3.24-9c1.48,3.63,3.85,6,7.45,6s5.61-2.57,6.91-5.75C393.79,699.24,393.15,702.51,391.16,704.45Zm92-137.9,1-.34c-2.58-.94-5.16-1.75-7.61-2.84a5.92,5.92,0,0,1-3.56-5.1c-.51-4.16-1.31-8.29-2-12.44a2.25,2.25,0,0,0-.74,1.41c-.63,3.79-1.31,7.57-1.82,11.37a5.36,5.36,0,0,1-2.93,4.43c-1.88.93-3.88,1.61-5.85,2.35a22.92,22.92,0,0,1-2.34.6,11.21,11.21,0,0,0,2.86,1c6.18,1.53,7.65,3.14,8.66,9.36.54,3.37,1.1,6.73,1.65,10.09l.51,0c.66-4,1.49-8.06,1.93-12.12a6.49,6.49,0,0,1,4.22-5.72C479.15,567.72,481.21,567.2,483.21,566.55ZM306.69,139.33c.38,3.42,1.05,6.8,1.6,10.2.13.8.31,1.59.47,2.38A70.27,70.27,0,0,0,311.1,140c.32-3.32,2.13-5.18,4.94-6.3,2-.82,4.21-1.36,6.62-2.12-.74-.19-1.23-.28-1.69-.45-2.17-.77-4.4-1.42-6.49-2.38a5.71,5.71,0,0,1-3.27-4.85c-.54-4.19-1.32-8.35-2-12.53l-.52-.06c-.6,3.69-1.48,7.36-1.71,11.07-.28,4.46-2.79,6.64-6.64,7.84-1.61.5-3.26.88-4.88,1.32,2.53.9,5,1.64,7.43,2.68A6,6,0,0,1,306.69,139.33ZM259.33,569.5c-.08-3.13-1-6.24-1.51-9.36a66.36,66.36,0,0,0-2.22,11.14,5.86,5.86,0,0,1-3.75,5.15c-2.09.9-4.28,1.56-6.22,2.25,2.07.78,4.39,1.52,6.6,2.51a5.44,5.44,0,0,1,3.34,4.78c.31,3,.87,5.9,1.33,8.84.14.82.33,1.64.5,2.46a63.32,63.32,0,0,0,2.16-10.85,6.25,6.25,0,0,1,4.06-5.6c2-.82,4.09-1.43,6.43-2.24-1.22-.27-2.13-.44-3-.68C262.7,576.74,259.46,574.75,259.33,569.5ZM341,277.82c1.81.23,3.61.48,5.41.72l.17-.33a9,9,0,0,0-2.09-1.28c-3.24-.89-6.47-2.07-9.78-2.39-9-.87-17.6.77-25.14,6-2,1.42-3.52,3.67-5.07,5.69-.37.48,0,1.54.07,2.34a6.8,6.8,0,0,0,2.51-.25,50.09,50.09,0,0,0,4.26-2.91C320.29,279.24,330.11,276.43,341,277.82Zm-90-63.7c0,2,.68,4,1.06,6a52.22,52.22,0,0,0,1.86-9.21,5.15,5.15,0,0,1,3.24-4.59c1.79-.76,3.66-1.34,5.72-2.07-1.48-.4-2.8-.69-4.08-1.13-2.89-1-4.82-2.67-5-6.11a75.53,75.53,0,0,0-1.38-8.54,55.17,55.17,0,0,0-2,9.54,5.2,5.2,0,0,1-3.42,4.47c-1.68.72-3.46,1.21-5.5,1.91.46.14.7.25.94.29C247.94,205.44,251,208.25,251,214.12Zm168,76.29,1.21-.83c0-.19,0-.38,0-.57a5.73,5.73,0,0,0-2.08-.15,11.7,11.7,0,0,0-3.22,1.45,30.14,30.14,0,0,0-10,11.6c-1.64,3.18-2.62,6.7-1.29,10.15,1.2,3.11,2.13,6.05.78,9.29,0,.07.13.21.2.32,3.24-1,5.86-5.48,4.08-8.69a9.84,9.84,0,0,1-.5-9.17A32.88,32.88,0,0,1,418.94,290.41Zm113,2.15a48.43,48.43,0,0,0-1-6.16,15,15,0,0,0-1.25,5.25c-.07,3.6-2,5.38-5.26,6.16-.5.12-1,.26-1.72.45a4.61,4.61,0,0,0,.85.39c4.32.59,6.19,3.16,6.25,7.41a23.68,23.68,0,0,0,.83,4.27,7.91,7.91,0,0,0,.84-3c.13-4.75,1.39-8.56,7-9.16l-2.45-.73C533.62,296.71,532.06,295.37,532,292.56ZM519.5,531.11c.36-2.21.85-4.41,1-6.63a4.7,4.7,0,0,1,3.33-4.25c1.09-.43,2.22-.74,3.64-1.2-1-.24-1.61-.38-2.24-.55-2.79-.74-4.72-2.14-4.84-5.41a46,46,0,0,0-1-6,30.3,30.3,0,0,0-1.44,6.68c-.23,2.52-1.73,3.74-3.87,4.47-.91.31-1.85.54-2.79.81a3,3,0,0,0,.32.24,2,2,0,0,0,.55.23c4,.63,6.07,2.77,6.09,6.95a28.07,28.07,0,0,0,.84,4.74Zm-239.59-118c-.77,2.86-.22,6.44-4.74,7,4.81.31,3.78,4.26,4.77,7.44.89-3.28,0-7,4.68-7.51C279.94,419.46,280.83,415.76,279.91,413.06Zm197.9,76.3c.88-2.58.25-6.09,4.59-6.69-4.45-.4-3.56-4.15-4.65-6.62-.68,2.8-.34,6.07-4.52,6.73C477.73,483.16,476.89,486.71,477.81,489.36ZM182.7,434.62c-1.34,0-1.94.87-2,2.19s.73,2.37,2.09,2.25c.8-.07,1.54-.9,2-1.21C184.78,435.77,184.23,434.66,182.7,434.62Zm405.57.06c-1.49-.25-2.17.91-2.26,2.34s.78,2.23,2,2c.86-.13,1.6-1.05,3-2C589.73,435.9,589.08,434.82,588.27,434.68Zm2.1-8.44c-.74-.54-1.45-1.46-2.23-1.52-1.56-.11-2.06,1.17-2.09,2.54s.67,1.76,1.88,1.75C589.48,429,590,428.06,590.37,426.24ZM181.59,311.47a1.77,1.77,0,0,0,1.88,2c1.6,0,2.19-1.24,2.05-2.57-.08-.73-.87-1.39-1.15-1.8C182.2,309.22,181.63,310.09,181.59,311.47ZM182.65,429c1.27.09,2.13-.35,2.13-1.72s-.43-2.45-1.88-2.61a1.73,1.73,0,0,0-2.09,1.81C180.76,427.82,181.15,428.84,182.65,429ZM589,313.47c.77-.1,1.44-1.06,2.16-1.63-.49-1.79-1-2.69-2.56-2.66-1.25,0-1.84.67-1.78,1.85C586.91,312.4,587.46,313.67,589,313.47Zm-.94,131.42A1.94,1.94,0,0,0,586,447c0,1.39.93,2.26,2.11,2a3.08,3.08,0,0,0,1.91-2C590.32,445.79,589.44,444.89,588.09,444.89Zm-405.34,0c-1.36,0-2.24.9-1.95,2.13a3.09,3.09,0,0,0,1.91,2c1.16.23,2.06-.63,2.11-2.06A1.94,1.94,0,0,0,182.75,444.89ZM439.49,45.32a1.75,1.75,0,0,0,2-2.08c-.11-.82-.88-1.56-1.36-2.34l-1,0c-.55.72-1.42,1.39-1.56,2.18A1.86,1.86,0,0,0,439.49,45.32ZM332.8,45.25c.86-.15,1.59-1.08,2.38-1.66-.32-1.74-1-2.33-2.27-2.39a1.8,1.8,0,0,0-2,1.91C330.81,44.37,331.44,45.49,332.8,45.25Zm-2.71,659.69c0,1.15.58,2,1.94,2s2-.53,2.38-2.27c-.77-.62-1.46-1.59-2.33-1.78C330.74,702.59,330.05,703.67,330.09,704.94Zm108.58-2.12a1.84,1.84,0,0,0-1.83,2.3c.15.79,1,1.45,1.57,2.16l1,0c.47-.78,1.23-1.53,1.33-2.36A1.74,1.74,0,0,0,438.67,702.82ZM184.72,506.52c-.17-.83-1.05-1.51-1.61-2.26l-.86,0a8,8,0,0,0-1.41,2.37c-.22,1.23.69,2,1.91,2S185,507.83,184.72,506.52Zm403.4,57.78a1.67,1.67,0,0,0-2,2,2.9,2.9,0,0,0,2,1.84c.69.09,1.51-.89,2.27-1.39,0-.31,0-.63,0-.94C589.63,565.3,588.93,564.42,588.12,564.3Zm-405.52,4c1.3.09,2.3-.61,2.12-1.94-.11-.84-.93-1.59-1.44-2.38l-.86,0a7.86,7.86,0,0,0-1.58,2.26C180.54,567.37,181.37,568.18,182.6,568.26Zm.23-19.92a1.71,1.71,0,0,0,1.95-2c0-1.34-.9-2.2-2.14-2-.81.15-1.48,1.06-2.21,1.63l0,.93C181.26,547.46,182,548.23,182.83,548.34Zm-.05-33.74c-.82.09-1.55.94-2.32,1.45,0,.32,0,.63,0,.94.75.53,1.53,1.54,2.22,1.47a2.88,2.88,0,0,0,2-1.77A1.67,1.67,0,0,0,182.78,514.6Zm405.38,13.8c.69.07,1.48-.93,2.23-1.46l0-.94c-.77-.51-1.5-1.37-2.31-1.46a1.67,1.67,0,0,0-1.93,2.09A2.89,2.89,0,0,0,588.16,528.4Zm0,16c-1.24-.21-2.1.65-2.12,2a1.71,1.71,0,0,0,2,1.93c.83-.11,1.57-.89,2.35-1.38l0-.92C589.66,545.47,589,544.56,588.17,544.42ZM586.05,457a1.72,1.72,0,0,0,2,1.87c.82-.14,1.54-.94,2.3-1.44,0-.31,0-.63,0-.94-.75-.54-1.45-1.42-2.26-1.54C586.87,454.77,586,455.65,586.05,457Zm-405.6,10.37c.77.51,1.49,1.31,2.31,1.44a1.72,1.72,0,0,0,2-1.88c0-1.34-.82-2.23-2.08-2-.81.12-1.51,1-2.26,1.55C180.45,466.75,180.45,467.06,180.45,467.37Zm407.66,1.39c.69.08,1.51-.9,2.27-1.41v-.93c-.75-.53-1.46-1.42-2.27-1.53a1.67,1.67,0,0,0-2,2A2.92,2.92,0,0,0,588.11,468.76Zm2.26,87.08c-.77-.52-1.49-1.38-2.3-1.48a1.67,1.67,0,0,0-1.94,2.08,2.94,2.94,0,0,0,2,1.79c.69.06,1.49-.93,2.23-1.46C590.38,556.46,590.37,556.15,590.37,555.84Zm-404.8-394a1.7,1.7,0,0,0-2-1.85c-.82.14-1.53.94-2.29,1.45v.93c.76.54,1.46,1.42,2.28,1.53C184.78,164.13,185.6,163.23,185.57,161.89Zm400.56,315a2.9,2.9,0,0,0,2,1.85c.69.08,1.52-.88,2.28-1.39v-.93c-.75-.54-1.44-1.43-2.26-1.55A1.66,1.66,0,0,0,586.13,476.85Zm2.81-326.7a2.93,2.93,0,0,0-2,1.78,1.67,1.67,0,0,0,2,2.08c.81-.1,1.53-1,2.3-1.48,0-.31,0-.62,0-.94C590.43,151.07,589.63,150.08,588.94,150.15ZM183.57,299.21c-.83.13-1.55.92-2.32,1.42v.93c.74.55,1.43,1.44,2.25,1.57,1.25.19,2.09-.69,2.08-2A1.71,1.71,0,0,0,183.57,299.21Zm407.58-18.53c-.78-.47-1.53-1.25-2.36-1.35a1.7,1.7,0,0,0-1.94,1.94c0,1.34.89,2.2,2.14,2,.81-.15,1.47-1.06,2.2-1.63C591.18,281.3,591.16,281,591.15,280.68Zm-407.67-1.3c-.69-.07-1.49.92-2.24,1.45v.93c.77.52,1.49,1.39,2.3,1.48a1.67,1.67,0,0,0,1.95-2.07A2.94,2.94,0,0,0,183.48,279.38Zm405.41-9.94a2.91,2.91,0,0,0-2,1.83,1.67,1.67,0,0,0,2,2c.81-.11,1.52-1,2.27-1.53v-.94C590.41,270.33,589.59,269.36,588.89,269.44Zm0-9.94a2.92,2.92,0,0,0-2,1.81,1.67,1.67,0,0,0,2,2.05c.82-.1,1.53-1,2.29-1.5,0-.31,0-.62,0-.93C590.42,260.41,589.62,259.43,588.92,259.5Zm-407.66,2.44c.78.5,1.52,1.34,2.34,1.42a1.66,1.66,0,0,0,1.89-2.11,2.9,2.9,0,0,0-2.06-1.75c-.69-.05-1.46,1-2.2,1.5Zm407.67-12.38a2.9,2.9,0,0,0-2,1.8,1.67,1.67,0,0,0,2,2.06c.82-.11,1.53-1,2.29-1.5V251C590.42,250.47,589.62,249.48,588.93,249.56ZM182.66,484.78c-.81.13-1.49,1-2.22,1.6l0,.93c.77.48,1.51,1.27,2.34,1.39a1.73,1.73,0,0,0,2-1.93C184.76,485.43,183.91,484.56,182.66,484.78Zm2,141.29a1.68,1.68,0,0,0-1.9-2.12c-.81.08-1.56.93-2.33,1.43l0,.93c.74.54,1.52,1.56,2.21,1.5A2.91,2.91,0,0,0,184.7,626.07Zm403.43,1.74c.69.08,1.5-.91,2.25-1.43v-.93c-.76-.53-1.47-1.4-2.29-1.5a1.67,1.67,0,0,0-2,2.06A2.91,2.91,0,0,0,588.13,627.81ZM183.45,239.57c-.81.17-1.48,1-2.22,1.55l0,.94c.78.5,1.53,1.34,2.34,1.42,1.27.12,2.05-.81,2-2.15A1.71,1.71,0,0,0,183.45,239.57Zm407.7-8.6c-.78-.47-1.53-1.24-2.36-1.35a1.71,1.71,0,0,0-1.94,1.95c0,1.35.9,2.2,2.14,2,.81-.15,1.47-1.07,2.2-1.64Zm-408-11.67c-.51.76-1.49,1.57-1.42,2.26a2.89,2.89,0,0,0,1.79,2,1.68,1.68,0,0,0,2-2c-.13-.82-1-1.53-1.5-2.29Zm-.43,309.11a2.94,2.94,0,0,0,2-1.8,1.67,1.67,0,0,0-1.94-2.07c-.82.1-1.54,1-2.3,1.48,0,.31,0,.62,0,.93C181.19,527.48,182,528.48,182.68,528.41Zm405.43-43.63a1.66,1.66,0,0,0-2,2,2.88,2.88,0,0,0,2,1.83c.69.09,1.5-.89,2.27-1.4v-.94C589.63,485.77,588.92,484.89,588.11,484.78Zm-2.06,151.14a1.71,1.71,0,0,0,2,1.89c.82-.13,1.55-.92,2.32-1.42,0-.31,0-.62,0-.93-.75-.55-1.44-1.44-2.25-1.57C586.89,633.7,586,634.57,586.05,635.92ZM183.6,249.5c-.83.12-1.56.9-2.34,1.39l0,.93c.74.56,1.42,1.47,2.22,1.6a1.79,1.79,0,0,0,2.12-2A1.71,1.71,0,0,0,183.6,249.5Zm-.14-105.45a1.68,1.68,0,0,0,2.06-2c-.12-.82-1-1.55-1.47-2.31l-.91,0c-.52.75-1.51,1.55-1.45,2.25A2.89,2.89,0,0,0,183.46,144.05ZM588,614a1.67,1.67,0,0,0-1.9,2.12,2.91,2.91,0,0,0,2.06,1.74c.69,0,1.46-1,2.2-1.5l0-.93C589.58,614.93,588.84,614.09,588,614Zm0-6c.83-.12,1.57-.9,2.35-1.38l0-.93c-.73-.57-1.41-1.47-2.22-1.61-1.24-.22-2.1.65-2.12,2A1.71,1.71,0,0,0,588,608ZM184.72,645.8c-.13-.84-1-1.56-1.49-2.34l-.87,0a8,8,0,0,0-1.52,2.3c-.28,1.22.59,2,1.81,2.06S184.94,647.13,184.72,645.8Zm403.41,1.9c.69.08,1.5-.91,2.25-1.43v-.94c-.76-.52-1.48-1.39-2.29-1.5a1.67,1.67,0,0,0-2,2.06A2.88,2.88,0,0,0,588.13,647.7ZM183.6,170c-.83.11-1.56.89-2.34,1.38l0,.93c.74.56,1.41,1.47,2.22,1.6,1.25.22,2.11-.65,2.12-2A1.7,1.7,0,0,0,183.6,170ZM589,199.85a2.91,2.91,0,0,0-2.05,1.75,1.66,1.66,0,0,0,1.89,2.11c.82-.08,1.56-.92,2.34-1.42l0-.94C590.45,200.81,589.67,199.8,589,199.85ZM184.72,665.7c-.12-.84-1-1.57-1.47-2.35l-.87,0a8,8,0,0,0-1.54,2.29c-.28,1.21.56,2,1.79,2.06S184.92,667,184.72,665.7Zm0-59.54a1.67,1.67,0,0,0-1.92-2.09c-.82.09-1.55.94-2.32,1.46,0,.31,0,.62,0,.93.75.54,1.53,1.54,2.22,1.48A2.92,2.92,0,0,0,184.7,606.16ZM588.87,189.91a2.9,2.9,0,0,0-2,1.86,1.67,1.67,0,0,0,2,2c.81-.13,1.5-1,2.24-1.57,0-.31,0-.62,0-.93C590.39,190.77,589.56,189.82,588.87,189.91Zm.1-65.72c.81-.14,1.48-1,2.22-1.61l0-.93c-.78-.49-1.52-1.27-2.35-1.38a1.72,1.72,0,0,0-2,1.93C586.86,123.54,587.72,124.4,589,124.19Zm-.9,414.21c.82-.14,1.54-.94,2.3-1.44V536c-.75-.54-1.45-1.42-2.26-1.54-1.25-.18-2.09.7-2.07,2A1.71,1.71,0,0,0,588.07,538.4ZM185.57,122.14a1.71,1.71,0,0,0-2-1.87c-.82.14-1.54.94-2.3,1.44v.93c.75.54,1.45,1.43,2.27,1.55C184.76,124.37,185.59,123.48,185.57,122.14Zm403.25-7.9c.82-.08,1.56-.92,2.34-1.42l0-.93c-.74-.55-1.51-1.56-2.21-1.51a2.91,2.91,0,0,0-2.05,1.75A1.66,1.66,0,0,0,588.82,114.24ZM589,180a2.89,2.89,0,0,0-2,1.76,1.66,1.66,0,0,0,1.9,2.1c.82-.08,1.56-.93,2.33-1.43l0-.94C590.45,180.92,589.67,179.92,589,180Zm-.1-79.53a2.9,2.9,0,0,0-2,1.86,1.67,1.67,0,0,0,2,2c.81-.12,1.51-1,2.25-1.56,0-.31,0-.62,0-.93C590.4,101.31,589.56,100.35,588.87,100.44Zm-405.33,3.84a1.66,1.66,0,0,0,2-2c-.16-.82-1-1.5-1.58-2.25l-.9,0c-.49.78-1.44,1.62-1.35,2.32A2.87,2.87,0,0,0,183.54,104.28Zm0,95.52c-.83.13-1.54.93-2.31,1.43v.93c.75.55,1.45,1.44,2.26,1.56,1.25.18,2.09-.7,2.07-2.05A1.7,1.7,0,0,0,183.56,199.8Zm2-107.44a1.71,1.71,0,0,0-2-1.91c-.83.12-1.56.9-2.33,1.39l0,.93c.74.56,1.42,1.46,2.24,1.59C184.71,94.57,185.57,93.7,185.57,92.36Zm-.07,89.45a2.92,2.92,0,0,0-2-1.84c-.69-.09-1.52.89-2.28,1.39,0,.31,0,.62,0,.93.75.54,1.45,1.42,2.26,1.54A1.67,1.67,0,0,0,185.5,181.81Zm403.36-7.92c.82-.1,1.54-1,2.31-1.48v-.93c-.75-.53-1.55-1.52-2.24-1.45a2.92,2.92,0,0,0-2,1.79A1.67,1.67,0,0,0,588.86,173.89ZM588,514.6a1.67,1.67,0,0,0-1.9,2.11,2.91,2.91,0,0,0,2,1.75c.69,0,1.47-1,2.21-1.49l0-.94C589.59,515.53,588.85,514.68,588,514.6ZM183.55,84.42c1.26.15,2.07-.76,2-2.1a1.71,1.71,0,0,0-2.07-1.81c-.82.15-1.51,1-2.26,1.49,0,.32,0,.63,0,.94C182,83.46,182.74,84.32,183.55,84.42ZM588.05,598c.83-.13,1.55-.92,2.32-1.41,0-.32,0-.63,0-.94-.74-.55-1.43-1.44-2.24-1.56-1.25-.19-2.1.69-2.09,2A1.7,1.7,0,0,0,588.05,598ZM182.36,583.8a7.87,7.87,0,0,0-1.52,2.29c-.27,1.22.59,2,1.8,2.06s2.3-.67,2.08-2c-.13-.84-1-1.56-1.49-2.34Zm.29,10.33c-.81.14-1.48,1-2.22,1.62l0,.93c.78.48,1.52,1.26,2.35,1.37a1.72,1.72,0,0,0,2-1.94C184.76,594.77,183.89,593.91,182.65,594.13ZM588.94,90.5a2.92,2.92,0,0,0-2,1.79,1.67,1.67,0,0,0,1.94,2.07c.82-.1,1.54-1,2.31-1.48V92C590.43,91.42,589.63,90.43,588.94,90.5ZM181.25,112.79c.77.51,1.51,1.37,2.32,1.46a1.67,1.67,0,0,0,1.92-2.1,2.89,2.89,0,0,0-2-1.77c-.69-.06-1.48.94-2.23,1.47C181.24,112.17,181.25,112.48,181.25,112.79Zm1.52,525a2.89,2.89,0,0,0,1.93-1.87,1.67,1.67,0,0,0-2-2c-.81.14-1.49,1-2.23,1.59,0,.31,0,.62,0,.93C181.24,636.9,182.08,637.85,182.77,637.75ZM588.93,134.13c.81-.13,1.5-1,2.25-1.56l0-.93c-.76-.5-1.59-1.46-2.28-1.37a2.9,2.9,0,0,0-2,1.85A1.67,1.67,0,0,0,588.93,134.13Zm-405.35,16c-.83.12-1.55.92-2.32,1.41,0,.31,0,.62,0,.93.74.55,1.43,1.45,2.24,1.58,1.25.2,2.09-.68,2.09-2A1.71,1.71,0,0,0,183.58,150.09ZM588.9,164c.81-.11,1.52-1,2.27-1.52v-.93c-.76-.51-1.57-1.49-2.26-1.41a2.92,2.92,0,0,0-2,1.82A1.67,1.67,0,0,0,588.9,164ZM184.78,457c0-1.35-.79-2.24-2-2.08-.81.1-1.53,1-2.29,1.5v.94c.75.51,1.45,1.33,2.27,1.48A1.72,1.72,0,0,0,184.78,457Zm-2.37,17.41a7.59,7.59,0,0,0-1.56,2.26c-.29,1.2.52,2,1.76,2.09s2.29-.64,2.11-2c-.11-.84-.94-1.59-1.45-2.37Zm2.29,22.39a1.67,1.67,0,0,0-1.9-2.11c-.81.08-1.56.92-2.33,1.42,0,.31,0,.62,0,.93.74.55,1.52,1.57,2.21,1.52A2.92,2.92,0,0,0,184.7,496.83Zm-2,41.52a2.94,2.94,0,0,0,2-1.78,1.67,1.67,0,0,0-1.92-2.09c-.82.09-1.55.95-2.32,1.46l0,.93C181.18,537.4,182,538.41,182.66,538.35Zm-.28,115c-.54.76-1.53,1.55-1.48,2.26a2.9,2.9,0,0,0,1.75,2,1.64,1.64,0,0,0,2.07-1.93c-.13-.84-1-1.57-1.47-2.35Zm357-608.24c.71.09,1.55-.85,2.33-1.34l0-.87c-.74-.56-1.42-1.43-2.24-1.61a1.63,1.63,0,0,0-2,1.93A2.89,2.89,0,0,0,539.36,45.14ZM588.89,209.8a2.91,2.91,0,0,0-2,1.83,1.67,1.67,0,0,0,2,2c.81-.12,1.52-1,2.27-1.54,0-.31,0-.62,0-.93C590.41,210.68,589.58,209.71,588.89,209.8ZM182.94,558.26a2.85,2.85,0,0,0,1.72-2.08c0-.72-1-1.48-1.58-2.22l-.86,0c-.48.8-1.26,1.55-1.38,2.39A1.62,1.62,0,0,0,182.94,558.26Zm-2.49,18.45c.76.51,1.58,1.49,2.27,1.4a2.92,2.92,0,0,0,2-1.83,1.66,1.66,0,0,0-2-2c-.81.11-1.52,1-2.27,1.53Zm4.33,39.36c0-1.34-.8-2.23-2.05-2.06-.82.11-1.52,1-2.28,1.52v.93c.76.52,1.47,1.32,2.29,1.47A1.72,1.72,0,0,0,184.78,616.07ZM223.06,45.13c.7.11,1.56-.82,2.35-1.3l0-.89c-.73-.56-1.39-1.45-2.21-1.62a1.66,1.66,0,0,0-2.07,1.93A2.84,2.84,0,0,0,223.06,45.13ZM589,293.19c.81-.14,1.49-1,2.23-1.59,0-.31,0-.62,0-.93-.78-.49-1.51-1.27-2.33-1.4a1.72,1.72,0,0,0-2,1.91C586.85,292.52,587.7,293.39,589,293.19ZM232.66,45.6l.92,0c.49-.78,1.44-1.62,1.35-2.31a2.87,2.87,0,0,0-1.88-1.92,1.66,1.66,0,0,0-2,2C231.23,44.18,232.11,44.86,232.66,45.6Zm9.88,0h.92c.51-.77,1.49-1.58,1.41-2.28a2.87,2.87,0,0,0-1.83-2,1.66,1.66,0,0,0-2,2C241.15,44.13,242,44.84,242.54,45.59Zm29.75,0h.92c.54-.75,1.55-1.53,1.49-2.23a2.88,2.88,0,0,0-1.78-2,1.65,1.65,0,0,0-2.07,1.93C270.94,44.08,271.79,44.81,272.29,45.58Zm-91,146.78c.77.5,1.52,1.34,2.34,1.42a1.67,1.67,0,0,0,1.88-2.13,2.9,2.9,0,0,0-2.06-1.73c-.7,0-1.47,1-2.2,1.5Zm4.22,78.84a2.91,2.91,0,0,0-2-1.76c-.69-.06-1.47.94-2.22,1.48l0,.94c.77.51,1.5,1.36,2.32,1.44A1.66,1.66,0,0,0,185.49,271.2Zm107.2-226a2.91,2.91,0,0,0,1.89-1.91c.1-.69-.86-1.54-1.36-2.32l-.89,0c-.56.74-1.45,1.42-1.6,2.24A1.62,1.62,0,0,0,292.69,45.17Zm9.45.41h.92c.53-.75,1.53-1.55,1.46-2.24a2.89,2.89,0,0,0-1.8-2,1.65,1.65,0,0,0-2.05,1.95C300.78,44.1,301.63,44.82,302.14,45.58Zm10.54-.41a2.91,2.91,0,0,0,1.77-2c.06-.7-.93-1.49-1.47-2.24l-.9,0c-.51.77-1.36,1.5-1.46,2.33A1.62,1.62,0,0,0,312.68,45.17Zm147.1,0a1.62,1.62,0,0,0,2-2c-.12-.82-1-1.53-1.52-2.29h-.9c-.51.76-1.49,1.57-1.42,2.27A2.93,2.93,0,0,0,459.78,45.17Zm10.11,0c.71.06,1.49-.94,2.24-1.47v-.87c-.77-.52-1.5-1.34-2.33-1.47a1.64,1.64,0,0,0-1.93,2A2.86,2.86,0,0,0,469.89,45.13ZM588.94,239.62a2.9,2.9,0,0,0-2,1.79,1.67,1.67,0,0,0,2,2.07c.81-.1,1.53-1,2.3-1.48,0-.31,0-.63,0-.94C590.43,240.54,589.63,239.54,588.94,239.62ZM490,45.6c.56-.73,1.44-1.41,1.59-2.22a1.65,1.65,0,0,0-1.95-2,2.89,2.89,0,0,0-1.9,1.9c-.1.7.85,1.54,1.35,2.32Zm29.66,0c.6-.69,1.52-1.3,1.73-2.1a1.65,1.65,0,0,0-1.79-2.18,2.85,2.85,0,0,0-2,1.77c-.16.68.73,1.59,1.16,2.4ZM222.34,703a2.85,2.85,0,0,0-2,1.82,1.65,1.65,0,0,0,2,2c.82-.14,1.52-1,2.27-1.52v-.9C223.86,703.89,223,702.92,222.34,703Zm19.84,0a2.83,2.83,0,0,0-1.93,1.86,1.66,1.66,0,0,0,2,2c.82-.16,1.5-1,2.24-1.58l0-.89C243.73,703.86,242.89,702.91,242.18,703Zm29.48-.47c-.56.73-1.45,1.4-1.6,2.21A1.65,1.65,0,0,0,272,706.8a2.87,2.87,0,0,0,1.91-1.89c.11-.69-.84-1.55-1.32-2.33Zm10.25.47a2.89,2.89,0,0,0-1.9,1.89,1.67,1.67,0,0,0,2.08,1.93c.81-.17,1.48-1.06,2.21-1.62,0-.3,0-.6,0-.9C283.47,703.83,282.61,702.9,281.91,703Zm10,0a1.63,1.63,0,0,0-1.93,2c.15.82,1.06,1.49,1.63,2.22l.89,0c.48-.79,1.43-1.64,1.32-2.34A2.91,2.91,0,0,0,291.87,703Zm9.57-.42c-.54.74-1.42,1.42-1.56,2.23a1.66,1.66,0,0,0,2,2,2.89,2.89,0,0,0,1.87-1.92c.1-.7-.86-1.53-1.36-2.31Zm19.89,0c-.55.74-1.43,1.43-1.57,2.24a1.65,1.65,0,0,0,2,2,2.87,2.87,0,0,0,1.87-1.93c.1-.69-.87-1.53-1.36-2.3ZM529.46,45.17a1.62,1.62,0,0,0,1.93-2c-.15-.81-1.06-1.48-1.63-2.22l-.89,0c-.48.79-1.43,1.64-1.32,2.34A2.9,2.9,0,0,0,529.46,45.17ZM181.26,232.11c.78.5,1.52,1.35,2.34,1.43a1.67,1.67,0,0,0,1.89-2.12,2.9,2.9,0,0,0-2.06-1.75c-.69,0-1.46,1-2.2,1.51ZM449.69,702.58l-.91,0c-.57.73-1.6,1.49-1.56,2.18a2.88,2.88,0,0,0,1.72,2.07,1.65,1.65,0,0,0,2.13-1.86C451,704.11,450.18,703.36,449.69,702.58ZM477,704.75a1.64,1.64,0,0,0,1.91,2.07c.84-.13,1.57-1,2.34-1.46l0-.87c-.75-.54-1.54-1.54-2.24-1.49A2.84,2.84,0,0,0,477,704.75ZM498.85,703a2.84,2.84,0,0,0-2,1.83,1.63,1.63,0,0,0,2,2c.82-.16,1.52-1,2.27-1.55,0-.29,0-.58,0-.87C500.38,703.89,499.56,702.92,498.85,703Zm9.79,0a2.88,2.88,0,0,0-1.76,2c-.06.71.94,1.49,1.47,2.24l.9,0c.52-.77,1.36-1.5,1.46-2.33A1.61,1.61,0,0,0,508.64,703Zm8.14,1.79a1.63,1.63,0,0,0,1.91,2.06c.83-.13,1.56-1,2.34-1.46l0-.87c-.75-.54-1.53-1.54-2.24-1.48A2.82,2.82,0,0,0,516.78,704.76Zm12.35-2.2h-.92c-.53.75-1.53,1.55-1.46,2.25a2.88,2.88,0,0,0,1.8,2,1.66,1.66,0,0,0,2.05-1.95C530.49,704,529.65,703.32,529.13,702.56ZM549.31,45.19c.83-.11,1.56-.93,2.33-1.43l0-.87c-.75-.55-1.53-1.56-2.24-1.52a2.89,2.89,0,0,0-2,1.76A1.62,1.62,0,0,0,549.31,45.19Zm37.62,37.1a1.67,1.67,0,0,0,1.88,2.13c.81-.07,1.56-.91,2.34-1.41l0-.93c-.73-.55-1.5-1.57-2.19-1.53A2.91,2.91,0,0,0,586.93,82.29ZM479.66,45.17a1.63,1.63,0,0,0,2-1.94c-.12-.82-1-1.54-1.51-2.3h-.91c-.51.76-1.49,1.57-1.42,2.26A2.89,2.89,0,0,0,479.66,45.17ZM588,584.19c-1.27-.12-2,.81-2,2.15a1.7,1.7,0,0,0,2.11,1.75c.82-.18,1.49-1,2.22-1.55l0-.95C589.58,585.1,588.83,584.26,588,584.19ZM449.39,45.57l.95,0c.53-.76,1.55-1.58,1.47-2.27a3,3,0,0,0-1.88-2A1.58,1.58,0,0,0,448,43.21C448.09,44,448.9,44.79,449.39,45.57Zm-127-.4a3,3,0,0,0,2-1.87c.12-.69-.84-1.56-1.33-2.35l-.92,0c-.55.76-1.43,1.47-1.58,2.3A1.58,1.58,0,0,0,322.41,45.17Zm-39.69,0c.7.1,1.54-.83,2.33-1.32l0-.88c-.73-.56-1.4-1.44-2.21-1.61a1.65,1.65,0,0,0-2.06,1.93A2.85,2.85,0,0,0,282.72,45.13ZM232.28,703a2.86,2.86,0,0,0-2,1.81,1.65,1.65,0,0,0,2,2c.81-.14,1.51-1,2.27-1.52,0-.3,0-.6,0-.9C233.8,703.89,233,702.92,232.28,703Zm30.6-657.83a2.91,2.91,0,0,0,1.87-1.92c.09-.7-.87-1.53-1.37-2.31l-.89,0c-.55.74-1.44,1.44-1.58,2.25A1.62,1.62,0,0,0,262.88,45.17ZM251.62,702.56c-.51.77-1.35,1.49-1.45,2.31a1.65,1.65,0,0,0,2.06,1.93,2.87,2.87,0,0,0,1.78-2c.06-.7-.94-1.49-1.47-2.24Zm10.46.4a1.63,1.63,0,0,0-2,2c.14.82,1,1.5,1.59,2.25l.9,0c.49-.77,1.45-1.61,1.35-2.31A2.91,2.91,0,0,0,262.08,703ZM586.13,496.75a2.91,2.91,0,0,0,2,1.82c.69.08,1.5-.89,2.26-1.4,0-.31,0-.62,0-.93-.76-.54-1.46-1.41-2.27-1.52A1.66,1.66,0,0,0,586.13,496.75Zm1.94,167c-1.26-.15-2.07.75-2,2.09a1.71,1.71,0,0,0,2.07,1.81c.82-.16,1.51-1,2.26-1.49,0-.31,0-.63,0-.94C589.61,664.67,588.88,663.81,588.07,663.72ZM252.87,45.17a3,3,0,0,0,1.93-1.91c.1-.69-.88-1.54-1.38-2.33h-.93c-.54.77-1.39,1.49-1.52,2.32A1.58,1.58,0,0,0,252.87,45.17ZM586.93,221.44a1.67,1.67,0,0,0,1.85,2.16c.82-.06,1.58-.89,2.36-1.38l.05-.93c-.72-.56-1.48-1.58-2.17-1.54A2.89,2.89,0,0,0,586.93,221.44ZM311.81,703a2.86,2.86,0,0,0-2,1.81,1.65,1.65,0,0,0,2,2c.81-.14,1.51-1,2.27-1.52v-.9C313.33,703.89,312.51,702.92,311.81,703ZM589,303.13c.81-.13,1.49-1,2.23-1.59,0-.31,0-.62,0-.93-.77-.48-1.5-1.26-2.33-1.39a1.7,1.7,0,0,0-2,1.9C586.85,302.46,587.7,303.33,589,303.13ZM183.54,209.75c-.83.15-1.53.94-2.29,1.45v.94c.75.53,1.46,1.41,2.27,1.52,1.25.17,2.09-.72,2-2.06A1.7,1.7,0,0,0,183.54,209.75ZM459,703a2.93,2.93,0,0,0-1.83,2c-.08.69.89,1.51,1.4,2.28h.9c.54-.76,1.41-1.46,1.54-2.28A1.63,1.63,0,0,0,459,703Zm10.5-.4h-.92c-.53.75-1.53,1.54-1.47,2.24a2.89,2.89,0,0,0,1.78,2,1.66,1.66,0,0,0,2.06-1.94C470.85,704.05,470,703.33,469.5,702.56ZM183.58,293.19a1.8,1.8,0,0,0,2-2.12,1.72,1.72,0,0,0-2.09-1.79c-.82.17-1.5,1-2.25,1.51l0,.95C182,292.25,182.76,293.1,183.58,293.19ZM488.91,703a2.89,2.89,0,0,0-2,1.84,1.63,1.63,0,0,0,2,2c.82-.16,1.51-1,2.27-1.56,0-.29,0-.58,0-.87C490.44,703.89,489.61,702.92,488.91,703Zm99.94-558.93c.81-.09,1.54-.95,2.31-1.46,0-.31,0-.62,0-.94-.74-.52-1.43-1.35-2.25-1.51a1.71,1.71,0,0,0-2.08,1.8C586.78,143.3,587.59,144.21,588.85,144.07Zm-405.24-9.94a1.67,1.67,0,0,0,1.88-2.13,2.88,2.88,0,0,0-2.07-1.72c-.69-.05-1.46,1-2.19,1.5,0,.31,0,.63,0,.94C182.05,133.22,182.79,134.05,183.61,134.13Zm325.92-89a1.59,1.59,0,0,0,2-1.84c-.1-.84-.93-1.6-1.43-2.39l-.94,0c-.53.77-1.54,1.58-1.46,2.28A2.94,2.94,0,0,0,509.53,45.17Zm-9.75,0c.71,0,1.46-1,2.19-1.55,0-.29,0-.58,0-.87-.79-.49-1.54-1.29-2.38-1.39a1.62,1.62,0,0,0-1.84,2.11A2.81,2.81,0,0,0,499.78,45.13ZM538.53,703a2.93,2.93,0,0,0-1.83,2c-.08.69.89,1.51,1.4,2.28h.9c.54-.75,1.41-1.46,1.54-2.28A1.63,1.63,0,0,0,538.53,703Zm10.58-.38-.92,0c-.56.73-1.59,1.49-1.55,2.19a2.86,2.86,0,0,0,1.72,2.06,1.65,1.65,0,0,0,2.12-1.86C550.4,704.11,549.59,703.36,549.11,702.58Zm39-194c.82-.14,1.53-.93,2.29-1.44,0-.31,0-.62,0-.94-.75-.53-1.46-1.41-2.27-1.52-1.25-.18-2.08.71-2.06,2A1.7,1.7,0,0,0,588.08,508.56Zm-2,67.69a2.89,2.89,0,0,0,2,1.85c.69.09,1.52-.87,2.29-1.36v-.94c-.74-.54-1.43-1.43-2.24-1.55A1.66,1.66,0,0,0,586.13,576.25Zm0,79.53a2.89,2.89,0,0,0,1.94,1.85c.69.09,1.53-.86,2.3-1.36v-.93c-.74-.55-1.43-1.44-2.24-1.56A1.66,1.66,0,0,0,586.13,655.78ZM392.28,113.34c.83.9,1.5,1.71,2.26,2.44,1,.92,2.13,1.6,3.34.54s.71-2.26-.14-3.35a11.13,11.13,0,0,0-.75-.92c-1.44-1.4-2.13-2.81-.89-4.81a10.3,10.3,0,0,0,.93-3.42c1.05-5.23.8-10.32-2.27-14.88a7,7,0,0,0-3.22-2.72,29.35,29.35,0,0,0-7-1.22,8.8,8.8,0,0,0-7.88,3.79,20.84,20.84,0,0,0-4.12,15.53C373.7,114.35,384.12,119.07,392.28,113.34Zm-16.15-12.83c.35-3.32.93-6.54,2.78-9.41a7.64,7.64,0,0,1,6.81-3.72c.92,0,1.83-.15,2.2,1.08a1.47,1.47,0,0,0,1.09.75c2.07.23,2.83,1.77,3.53,3.36,1.94,4.4,1.27,8.76-.15,13.46a18.17,18.17,0,0,0-2.72-2.46c-.63-.36-2-.53-2.26-.18a2.73,2.73,0,0,0-.35,2.43,29.57,29.57,0,0,0,2.58,3.9,6.31,6.31,0,0,1-9.1.7C377.58,107.81,375.69,104.69,376.13,100.51Z"/></svg>