<svg xmlns="http://www.w3.org/2000/svg" viewBox="0 0 750 750"><path d="M606.15,48.23a27.93,27.93,0,0,0-.44-5.33A21.88,21.88,0,0,0,583.78,25H187.26c-13.13,0-22.68,9.55-22.68,22.69V374.85q0,163.77,0,327.55a22.29,22.29,0,0,0,.15,3.17c1.77,11.87,10.72,19.43,23.07,19.43q197.57,0,395.13,0a27.15,27.15,0,0,0,5.33-.45c10.93-2.22,17.9-11.09,17.9-22.77Q606.17,375,606.15,48.23Zm-4.26,653.42c0,11.55-7.47,19.07-19,19.07H187.57c-9.34,0-16.5-5.48-18.35-14.13a22.74,22.74,0,0,1-.35-4.74q0-163.49,0-327V47.5c0-8.93,5.48-15.95,14-17.85a18,18,0,0,1,3.94-.36H583.92a17.66,17.66,0,0,1,18,17.82c0,1.52,0,3,0,4.57ZM334.82,203.14a4.58,4.58,0,0,0-1-1.21c-1.29-1.07-2.65-2.06-4-3.13-.81-.68-1.52-1.58-2.85-.58-.21,2.72,3.42,3.14,3.56,5.46.2,3.16,4.2,2.15,4.76,5-.41,4.76,1.4,6.21,5.77,5.19l3,2.83c.4,3.32.79,6.43,1.19,9.69l-15-6.18c-1.68-3.24-3.28-2.9-6.17-2.07l-4.21-1.32c-1.79-5.81-5.09-7-10.63-3.87-3.24-.18-5.92-2.64-9.2-2.24-.43,2-.25,2.46,1.47,3.11,2.35.89,4.74,1.66,7,2.46,1.86,5.41,5.9,6.28,10.37,3.79,1.17.38,2.73.45,3.62,1.26,2.16,1.95,4.72,2,7.28,2.73,5.76,1.63,11.22,4.33,16.65,6.53.6,1.08,1.07,2,1.57,2.81s1.05,1.7,1.74,2.83c-.72-.1-1-.12-1.23-.18-12.15-2.72-23.5-.58-34.28,5.49a24.79,24.79,0,0,0-12.64,17.62,67.4,67.4,0,0,0-.65,6.95,17.92,17.92,0,0,0-9.45,15.35c-.61,10,1.59,19,10.51,25.39-.18,1.57-.4,3.33-.59,5.1-.69,6.37-1.3,12.69,3.13,18.23,1,1.23,1.35,2.94,2.23,4.95l-7.09,2.12c2.69,2.12,5.51,1.3,8.22,1.39a4,4,0,0,1,.12.82c0,.59-.12,1.19-.21,1.77-.69,4.15-.6,8.2,1.52,12,1.25,2.25,2.61,4.45,3.85,6.71,1.43,2.61,2.82,5.25,4.18,7.89.93,1.82,1.79,3.68,3,6.23a5.11,5.11,0,0,0,3.36,5.76,3.89,3.89,0,0,1,2.57,3.75c.67,6.67,4.45,10.47,12,10a35.31,35.31,0,0,0,15.93-4.49,18.72,18.72,0,0,1,2-.84c.59,5,1.33,9.62,1.63,14.29A16.08,16.08,0,0,1,353.19,415a19.92,19.92,0,0,1-9.89,5.6c-5.2,1.28-10.4,2.61-15.65,3.73-10,2.14-16.3,8.56-20.61,17.38a9.35,9.35,0,0,0-.48,2.27l.6.29a17.11,17.11,0,0,0,1.31-1.24c2.09-2.39,4.1-4.87,6.26-7.19a24.2,24.2,0,0,1,13.95-7.79c5.21-.89,10.36-2.17,15.5-3.46a24.61,24.61,0,0,0,12.38-7.5c5.39-5.89,6-12.94,5-20.31-.46-3.43-1.52-6.79-2.32-10.24,9.63-5.93,18.85-12.55,26.67-21.63.09,1.6.15,2.64.2,3.62-3.7,1.66-6.75,3.75-7.1,8-.13,1.59.72,3.25.63,4.85-.3,5.51.47,11.12-1.37,16.5a3.18,3.18,0,0,0,.11,1.35c.21,1.27.44,2.53.62,3.58-2.53,2.45-2.55,3.3-.41,5.67.55,2.32-.77,5,1.58,7.42a9.55,9.55,0,0,0,.77-1.67c.42-2.78.82-5.57,1.17-8.36a5.56,5.56,0,0,0-.21-1.55,18.21,18.21,0,0,1-.38-2.71c0-5.23.09-10.46.15-15.69,0-.48.08-1,.15-1.86l3,3.7q-.32,12.45-.64,24.82a2.31,2.31,0,0,1-.34,1.31,3.3,3.3,0,0,0,0,4.49c.39,2.14-.69,4.3,1.19,6.31.5-.62,1.22-1.1,1.18-1.52-.27-3.31,2-6.47.56-9.87A2.72,2.72,0,0,1,387,411c1.23-1.56.9-2.91-.16-4.25V389.94l3,2.14c0,10.25,0,20.14,0,30a12.38,12.38,0,0,1-.59,2.22,9.68,9.68,0,0,0-.41,2.64c.1,1.53.48,3,.64,4.57.12,1.16-.11,2.42,1.33,2.93,1.24-.9,1.24-.9,1.73-5.94,1.94-2.44,1.93-3,.19-5.13-.12-2.95-.27-5.57-.32-8.19-.05-3.05,0-6.1,0-9.14V392l3.82-3.24c-.11,2.27-.18,4.12-.29,6-.25,4.26-.52,8.52-.76,12.78a2.23,2.23,0,0,0,.15,1,7.45,7.45,0,0,1-.13,6.45c-.32.64,0,1.63.15,2.45s.47,1.59.58,2.4c.14,1,0,2,.22,3s.88,1.58,2.13.89v-4.94c2.27-2.89,1.39-3.64.08-5.58V386.42l2.42-2.75c0,6.88,0,13.4,0,19.92,0,3.8.15,7.59.28,11.39a4.43,4.43,0,0,0,.63,1.36l1.88-.28V408.4c2-2.58,1.95-3.38,0-5.63-.7-2.66.56-5.19.18-8-.83-6.06-.52-12.27-.54-18.43,0-4.7-2.87-7.94-7.56-8.27l-1.8-.17c-.57-6.31-1.14-12.54-1.69-18.56l7.71-9.12a10.06,10.06,0,0,1,.28,1.1A185.28,185.28,0,0,0,407,381.16a88,88,0,0,0,23.54,38.78l4.41,4.33c-2.87.31-5.36.49-7.82.85-19.27,2.82-35.22,11.72-47.38,26.87-13,16.24-18.42,34.9-15.9,55.67,2.11,17.5,9.78,32.28,22.35,44.51a71.4,71.4,0,0,0,28,16.81,73.41,73.41,0,0,0,48.64-.75,71.61,71.61,0,0,0,32.67-23.72c13.73-17.67,18.84-37.72,14.72-59.74a72.24,72.24,0,0,0-26.55-44.16,71.39,71.39,0,0,0-40-15.88c-1.71-.13-3.9-.19-5-1.22-9.36-8.62-17.65-18.12-23.27-29.69a116.79,116.79,0,0,1-7.79-22.62c1.18-.93,2.25-1.7,3.24-2.56a64.84,64.84,0,0,0,19-27.72c5.57-15.93,7.08-32.41,6.6-49.14-.29-10.3-1.65-20.43-5.57-29.94l11.95-7.91c-1.52-3.77-3.53-7.17-7-9.62l2.31-1.68-3-3.88c4.36-2.86,6.06-7.28,7.08-12.14a21.48,21.48,0,0,1,1.71-3.77c.33-.73.56-1.51.95-2.56l-6.07-2.34a27,27,0,0,0,5.31-16.23c.1-15.16-11.89-24.43-24.24-26-10.18-1.27-19.32,2.14-27,9-.37.33-.8.6-1.19.9-3.59-4.62-7.32-6.52-13-6.16a31.42,31.42,0,0,0-8.76,1.56c-13.5,5-21.92,14.63-24.92,28.82-.21,1-.39,2-.65,3.39l-1.75-1.47c.17-3.9-1-5-5.83-5.23C336.19,205.59,335.53,204.35,334.82,203.14ZM428,428.5c.18,1.07.33,1.93.49,2.93-1.34.2-2.3.36-3.27.49a7.45,7.45,0,0,1-.84,0c-.16-.83-.31-1.58-.52-2.65Zm-7,1.35c.37.95.66,1.72,1.05,2.72l-4.36,1.16c-.32-1.05-.52-1.74-.82-2.74Zm-6.81,2,.92,2.76-4.43,1.7c-.32-1-.55-1.79-.84-2.72Zm-7,2.94,1.21,2.54-3.59,1.87c-.37-.88-.69-1.62-1.11-2.64Zm-5.93,3.12,1.69,2.34-3.83,2.45-1.58-2.39Zm12.46,22a5.06,5.06,0,0,0-1.5-1.56,3.55,3.55,0,0,0-4.43-.19,3.43,3.43,0,0,0-1.29,3.89c.61,2.83,2.58,4.7,4.72,6.41a31,31,0,0,1,4.49,4l-9.47,1.41a9.47,9.47,0,0,1-3.5-6.92,70.9,70.9,0,0,1,.08-7.14c.11-2.64.33-5.27.5-7.95,4.51,1,9,1.86,13.36,3a10.67,10.67,0,0,1,7.21,5.43c-1.65,3.34-3.32,6.7-5.19,10.47-.3-.88-.41-1.36-.61-1.79C416.69,465.92,415.28,462.88,413.76,459.89Zm1.42,6.11-5.05-6.48C413.07,460.65,414.08,463.35,415.18,466Zm-11.67,8.21-27,3.89A64.15,64.15,0,0,1,398,447.6c1.05,3,.75,5.72.48,8.46-.53,5.58-.14,11,3.1,15.81C402.08,472.58,402.68,473.19,403.51,474.21Zm-7.67,34.24a14.14,14.14,0,0,0-4,1.6,3.47,3.47,0,0,0-1.73,4.25c.51,1.76,2,2.4,3.67,2.5,2.6.14,4.73-1.08,6.77-2.47,1.68-1.15,3.27-2.42,5.33-4l-1.72,10.17c-3.06,2-6.26,1.67-9.4.66-4-1.3-8-2.83-11.85-4.24,1.93-3.63,3.77-7.28,5.77-10.83,2.17-3.83,5-6,8.22-6.44l6.82,7.59C401.38,507.61,398.58,507.9,395.84,508.45Zm3.89,1.07-7.61,3.09C394,510.05,396.93,510,399.73,509.52ZM398.45,549c-7-3.57-19.07-19.75-20.92-28.36,1.87.41,3.59.68,5.23,1.18,3,.9,5.85,2.18,8.87,2.84,3.84.83,7.76,1,11.44-1C403.63,526,399.66,547.79,398.45,549ZM390.63,499c-3.75,1.92-6.12,5.13-8.07,8.76-1.44,2.67-3.09,5.24-4.65,7.84a4.4,4.4,0,0,1-1.45,1.62c-4.22-12.62-4.2-25-.41-37.77l18.51,18A41.32,41.32,0,0,0,390.63,499ZM395.22,442l1.6,2.37-3.51,2.79-1.5-2.39Zm-5.44,4.35,2,2.2-3,2.44-1.82-1.66Zm-4.82,5,2.13,1.74c-1,1.28-2,2.47-3.09,3.84l-2.24-1.78ZM380,457.44l2.26,1.69-3.3,5-2.21-1.69Zm-4.6,7.48,2.31,1.42-1.44,3-2.45-1.27Zm-2.73,5.63,2.46,1.22-1.72,4.5-2.55-1C371.5,473.72,372.07,472.23,372.71,470.55ZM370,478.17l2.56.78c-.5,1.92-.95,3.68-1.46,5.68l-2.6-.5C369,482.08,369.45,480.22,370,478.17Zm-2,8.71,2.53.45-.4,3.62-2.54-.31C367.75,489.35,367.87,488.22,368,486.88Zm-.76,6.91,2.62-.11c-.12,1.68-.23,3.16-.36,4.92l-2.59.14C367,497,367.15,495.51,367.26,493.79Zm-.13,7.69,2.63.12c.13,1.79.25,3.41.38,5.26l-2.48.3C367.49,505.3,367.33,503.58,367.13,501.48Zm.83,8.3,2.52-.18.82,3.62-2.43.74C368.57,512.61,368.29,511.32,368,509.78Zm1.42,6.42,2.36-.72c.4,1.3.75,2.46,1.15,3.79l-2.49.5Zm2.16,6.91,2.45-.77c.54,1.31,1,2.5,1.63,3.92l-2.33,1Zm3,6.81,2.29-1.12,1.36,2.58-2.1,1.24Zm2.88,5c.66-.57,1.18-1,1.87-1.6l2.55,3.86-2,1.5C379,537.43,378.22,536.25,377.38,535Zm6.94,9.41-2.82-3.3,1.84-1.74,3.05,3.8Zm4.54,4.61-2.62-2.78,1.7-1.54,1.93,2.49Zm5.78,5.19-4.52-3.76,1.55-1.84,4.35,3.61C395.55,552.86,395.18,553.38,394.64,554.17Zm6.05,4.18-3.75-2.56,1.33-1.89,3.85,2.47Zm6.86,3.74-4.91-2.59,1.32-2,4.42,2.2C408.12,560.46,407.89,561.11,407.55,562.09Zm6.28,2.47-4.34-1.65c.32-.81.55-1.4.88-2.26l4.45,1.8C414.44,563.27,414.19,563.8,413.83,564.56Zm8.29,2.39-5.86-1.55c.26-.86.45-1.45.67-2.19l5.33,1.31C422.21,565.34,422.17,566,422.12,567Zm1.56.3c.28-.9.47-1.5.69-2.22l4.73.73c.07.68.14,1.3.26,2.45ZM436,568.6l-4.43-.27v-2.41l4.43.4Zm-.59-6.19a63.65,63.65,0,0,1-34.77-11.53L423.27,539c-.24,6.74,3.05,11.39,7.35,15.68,2.1,2.09,3.61,4.75,5.39,7.16Zm-5.09-14.76c-2.51-2.81-4.44-5.89-4.53-10l9.8-5.13c-.55,2.88-1.16,5.49-1.5,8.13a15.27,15.27,0,0,0,.21,4.52,3.39,3.39,0,0,0,3.37,2.86c1.74.11,2.83-1,3.47-2.51,1.1-2.51.66-5.07,0-7.59-.43-1.58-.95-3.13-1.62-5.3l8.81,4.58c.63,3.63-.78,6.48-2.85,9.08-2.59,3.26-5.28,6.43-7.81,9.5C435.2,553.13,432.73,550.4,430.27,547.65Zm6.34-10.54v8.35C435.19,544.32,435,540.44,436.61,537.11Zm5.72,20c1.89-2.62,4.1-5,5.81-7.76a16.05,16.05,0,0,0,2.57-10.87l23.13,12.15c-6.16,5.79-23,12.12-34.74,11.54C440.26,560.38,441.2,558.7,442.33,557.16ZM475.5,515A16.28,16.28,0,0,0,480,516.3a3.34,3.34,0,0,0,3.68-2.13,3.51,3.51,0,0,0-1-4.15c-2-1.94-4.56-2.28-7.14-2.47-1.63-.11-3.27,0-4.72,0l6.27-7a9.18,9.18,0,0,1,6,3.6A67.94,67.94,0,0,1,487,509.8c1.43,2.21,2.79,4.45,4.3,6.89-5.41,1.93-10.75,3.93-16.16,5.72-1.17.39-2.57.06-4.17.06-.67-3.89-1.27-7.37-1.9-11C471.36,512.73,473.37,514,475.5,515Zm-2.63-3.39,8.17,2.51C479.64,515.09,475.3,513.8,472.87,511.58Zm3.76-52.8a87,87,0,0,1-.37-8.7,13.92,13.92,0,0,1,.49-2.47,64.9,64.9,0,0,1,21.57,30.48l-25.15-3.61c.72-1.13,1.42-2.07,1.95-3.1C477.18,467.37,477.15,463.13,476.63,458.78Zm21.53,58.9c-1.89-2.52-3.52-4.72-5.17-6.9-2-2.62-3.75-5.48-6.07-7.77-2-1.95-4.57-3.23-7.18-5l18.43-18C502.41,484.31,502.51,509.29,498.16,517.68Zm-.72,2.48c-1.61,8.5-13.31,24.33-21.79,29.43-1.4-8.18-2.75-16.15-4.11-24.14,2.35.16,4.51.71,6.5.35a67.29,67.29,0,0,0,8.87-2.66c2.75-.91,5.46-1.95,8.22-2.84A9.61,9.61,0,0,1,497.44,520.16Zm-58,48.4c-.07-.74-.13-1.4-.21-2.29l4.7-.35c.06.93.11,1.55.17,2.38Zm6.81-.4c-.08-.89-.13-1.56-.2-2.4l3.81-.56c.23.86.38,1.4.59,2.16Zm6.53-1.19c-.27-.8-.46-1.34-.77-2.23l4.19-1.14.69,2.23Zm6.4-1.72-.89-2.25,5.81-2.18,1.29,2Zm8.07-3.2-1.07-2.17,3.81-2,1.31,2Zm5.91-3.16-1.1-2.15L476,554.2l1.47,1.91Zm6.82-4.58-1.57-1.84,4-3.3,1.66,1.78Zm5.49-4.94-1.64-1.53,3.1-2.87,1.57,1.73Zm4.94-4.75-2-1.49,3.05-3.83c.64.47,1.2.86,2,1.42Zm4.7-6-2-1.56,2.63-4.07,2.06,1.44Zm3.85-6.16-2.21-1.07c.59-1.22,1.11-2.31,1.73-3.61l2.15,1.22C500.08,530.1,499.58,531.13,499,532.43Zm2.78-5.65-2.26-1,1.44-3.79,2.33,1.16Zm2.59-6.65L502,519.05c.48-1.73.92-3.34,1.42-5.15l2.38.79Zm2-7.53-2.56-.4c.24-1.32.45-2.51.68-3.85l2.5.23C506.68,510,506.5,511.16,506.28,512.6Zm1-6.65-2.5-.12c.16-1.78.31-3.38.48-5.21l2.57.13C507.58,502.57,507.42,504.18,507.23,506Zm.64-7.46-2.59-.24c-.14-2-.27-3.93-.42-6h2.61C507.6,494.28,507.72,496.24,507.87,498.49Zm-.74-8.88-2.51.5c-.23-1.43-.42-2.64-.64-4.09l2.61-.54C506.79,487,507,488.24,507.13,489.61Zm-1-6.2-2.54.57-1.26-4.56,2.56-.92C505.35,480.21,505.73,481.75,506.15,483.41Zm-2-7.49-2.65.85-1.75-4.67,2.48-1.11C502.88,472.64,503.46,474.14,504.16,475.92Zm-2.86-7.13-2.42,1.38-2-4,2.38-1.41Zm-3.23-6.17-2.21,1.68c-.83-1.26-1.61-2.44-2.51-3.82l2.31-1.68C496.51,460.16,497.24,461.3,498.07,462.62Zm-7.38-10.28c1.26,1.57,2.31,2.87,3.52,4.35l-2.27,1.65c-1.06-1.3-2.06-2.55-3.2-4Zm-1.25-1.8-2.25,2.16L484,449.36l1.73-1.84Zm-8.65-7.7,3.36,2.89-1.9,2L478.81,445ZM474,438.22l4.71,2.94c-.7.8-1.23,1.43-1.9,2.2l-4.44-2.77Zm-5.62-3.13,3.68,2c-.48.87-.87,1.58-1.37,2.47l-3.52-1.81C467.57,436.74,467.89,436.05,468.34,435.09ZM461,431.94l5,2c-.36,1-.66,1.73-1,2.67L460,434.73C460.33,433.72,460.61,432.94,461,431.94ZM454,429.89l4.76,1.35-.69,2.79-4.6-1.24C453.65,431.88,453.79,431.07,454,429.89Zm-6.83-1.32,4.45.87-.44,2.76-4.37-.7C446.94,430.51,447.05,429.69,447.18,428.57Zm-8.49-.7,6.1.47c-.12,1-.23,1.81-.37,2.92l-5.73-.52Zm35.68,18.42c-3.14,1-5.88,1.86-8.58,2.81s-5.62,1.91-8.33,3.1a14.14,14.14,0,0,0-7.06,7l-12.25-24.77C445,432.42,467.58,439.63,474.37,446.29Zm-8.91,20.38a14.45,14.45,0,0,0,2.41-3.6,3.43,3.43,0,0,0-.9-4.33c-1.4-1.23-3-1-4.43-.12-2.36,1.39-3.48,3.72-4.4,6.16-.66,1.76-1.24,3.55-1.85,5.33l-.52,0-4.2-8.44c1.6-3.73,4.71-5.35,8.23-6.34,3.81-1.07,7.67-2,11.68-3a3.22,3.22,0,0,1,.24.8c.26,3,.4,6.06.75,9.06.46,4,.46,7.92-2,11.83l-11.14-1.54C461.52,470.41,463.58,468.63,465.46,466.67Zm-4,1.49,4.72-7C466,464.44,463.68,466.27,461.46,468.16Zm-7.61,8,36.8,5.31-26.61,26c2,12,4.1,24,6.24,36.61l-32.86-17.25-32.91,17.26c2.15-12.48,4.19-24.38,6.29-36.58l-26.63-26L421,476.17l16.47-33.33Zm-28.47-18.88c-.29-.1-.47-.1-.52-.18-3-4.93-7.65-7-13-8.13-2.91-.59-5.76-1.48-8.61-2.3a15.31,15.31,0,0,1-2.27-1.16c10.94-7.49,22.64-11,35.9-11.44ZM436,430.71l-4.88.49c-.05-1-.09-1.82-.15-2.9l5-.47ZM348.85,228c-.32-1.67-.65-3.29-.94-4.91-.13-.77-.18-1.55-.33-2.81l14.88,14.2-.15.24Zm13.77,9.7a4,4,0,0,1,.49.3c-.06.23-.13.45-.19.67-2.95-.51-6-.68-8.81-1.68-1.41-.5-2.3-2.47-3.42-3.78l.47-.44Zm-45.38,8.6c7.58-5.94,16.38-7.89,25.75-7.39,4,.22,7.92,1.29,11.89,1.95,1.81.3,3.64.55,5.63.85-.53,2.18.9,2.85,2.78,3.48,3.93,1.3,7.78,2.85,11.69,4.32-4.11,2.18-7.07,5.85-10,9.66-6.73,8.73-15.52,14.08-26.62,15.18-3.14.32-6.32.22-9.48.38a24.08,24.08,0,0,0-3.13.45c-2.86.54-5.71,1.17-8.58,1.65a6.06,6.06,0,0,1-7.1-3.7,10.92,10.92,0,0,1-1.19-3.35C307.78,260.54,309.5,252.31,317.24,246.25Zm80.19,33.38a14.11,14.11,0,0,1-2.92,1.16c-.42-1.18-.75-2.08-1.18-3.27a19.81,19.81,0,0,1,3.33-.61c.52,0,1.42.53,1.49.93A2.11,2.11,0,0,1,397.43,279.63Zm-1.95,9.79-3.4-2.75c.7-1.17,1.16-2,1.71-2.87,1.51-.19,2.79.17,3.4,1.79S397.48,288.41,395.48,289.42Zm-4.61-13.73c-1.1-2.69.25-5.36,2.84-5.64C394.24,272.07,393.21,274.11,390.87,275.69Zm-3.49,20.74c.36-.13.71-.28,1.08-.38s.89-.21,1.62-.38a22.32,22.32,0,0,1,.19,2.33c-.23,7.14-.67,14.28-.68,21.42,0,12.37.17,24.75.45,37.12.08,3.48.8,6.95,1.22,10.43.07.51.09,1,.15,1.78h-2.25C386.09,344.66,388.47,320.55,387.38,296.43Zm-37.1-9.4L349,288.52l-8.27-7.82c1.73-2.09,3.36-3.72,6.12-4.48,4.23-1.16,8.25-3.09,12.46-4.74L357,275.85c-2.07.59-2.93,2-2,4.22l-1.13,2C350.81,282.54,349.66,282.65,350.28,287Zm-24.16,6.58,12.34-10.39,7.62,9.17c-2.4,1.27-4.88,2.17-5.92,4.59-3.18-1.42-3.32-1.41-5.72.83l-3.9-1.94.09-.16Zm-8.62-11.93c5.65-1.81,10.61-4.23,16.62-3.29.54.6,1.32,1.48,2.5,2.78-4.27,3.27-8.4,6.46-12.86,9.88Zm3.92,10.8c-2.56-.67-4.64-.87-5,2.65-2.4-2.47-4.61-2.64-7-.34l-1.41-1.4c1.21-3.86,2.28-7.3,3.45-11l4.47-.24c.87,1.76,1.66,3.42,2.52,5.05S320.24,290.36,321.42,292.48Zm30.71-4.15c3.84-.85,4.31-1.35,3.61-5.28.71-.77,1.62-1.68,2.44-2.67a5.35,5.35,0,0,0,.9-1.68,39,39,0,0,1,1.17-3.9,77.86,77.86,0,0,1,14.12-21.18c2.17-2.3,4.9-3.45,8.17-4.52-4,5-5.22,10.62-6.42,16.89a61.1,61.1,0,0,1,7.2-1.34,58.58,58.58,0,0,1,7,.41L389,266.89c-4.25-1.12-6.27-.43-8.33,2.82-5.72-.63-7,.79-6.24,6.64-4.82,2.85-4.23,7.51.87,9.31-1,5.93.66,7.64,6.78,6.58a9.32,9.32,0,0,1-6,4.12c-8.9,1.6-17-.73-24.57-5.51a5.22,5.22,0,0,1-.67-.73Zm36-13.86h-3.72c-.25-1.46-.49-2.91-.79-4.67l3.63-.85C387.53,271,387.8,272.63,388.09,274.47Zm-8.95,5.23v3.2a14,14,0,0,1-3.5-.07c-.73-.2-1.71-1.08-1.75-1.71a2.43,2.43,0,0,1,1.58-1.8A13.72,13.72,0,0,1,379.14,279.7Zm-2.63-7c3-1.18,4-.49,5.06,3.21l-1,1-3.49-1.1C376.91,274.88,376.71,273.74,376.51,272.69Zm3.22,12.94,3.17,2.94c-1.26,1.23-2.65,2.19-4.45,1.71a2.28,2.28,0,0,1-1.13-1.79C377.27,286.78,378.53,286,379.73,285.63Zm4.32,9.74,1.08.87v21.08a8.89,8.89,0,0,1-6.86-3.95,45.37,45.37,0,0,1-2.77-4.8l-3.32-5.93Zm-1.41-15.23c.38-2.09,2.35-3.4,5.11-3.42,3.74,3,4.26,4,3.07,6.07-1.07,1.84-3.75,3.2-5.32,2.71C383.69,284.94,382.26,282.25,382.64,280.14Zm.05-19.81c1-7.53,8.61-15.19,14.62-15a4.53,4.53,0,0,1,1.73,4.49c-.45,2.87-.62,5.85-2.9,8a5,5,0,0,1-2.43,1.59C390.08,259.89,386.41,260.06,382.69,260.33Zm-1.58-21.67c5.88-3.45,12.71-1.53,15.45,3.69-2.15.62-4.14,1.29-6.17,1.75C386.48,245,383.54,243.21,381.11,238.66ZM399,230c-1.89-4.64,1.22-8.22,2.43-12.5,4.94,4.67,4.82,10.87-.13,15.15v-2.5c.32-.35.74-.83,1.19-1.34-.66-1.65-1.73-1.83-3.27-1.08C399.14,228.49,399.07,229.25,399,230Zm3.17,5.37c3.94-3.5,8.74-5,13.84-6.37-.78,7.52-8.56,14.17-16.22,14.08C398.75,240.93,400,237.35,402.16,235.38Zm.26,13.56c3.6,3.61,7,7.05,13,6.67-.54,4.53-1,8.67-1.52,12.79-8.09-.55-13.35-1.29-14.35-6.81C402.77,258.17,402.53,253.75,402.42,248.94Zm4.07.29c-1.13-1.07-2.38-2-3.82-3.24a28.78,28.78,0,0,0,11.93-6.94c1-1,2.95-1.36,4.52-1.58,5.48-.77,8.24.57,10.83,5.2-4,2.63-7.81,5.53-12,7.86C414,252.75,410,252.59,406.49,249.23Zm12.15-17.44c-.14-2.08-.26-3.92-.41-6.13l-11.31,3.41c.56-2.06,1.07-3.93,1.64-6,2.71-3,10.05-6.58,13.48-6.46C421.81,221.8,421.35,227,418.64,231.79ZM401,213a43,43,0,0,0-6,12.9c-2.53-3.54.83-13.62,4.39-19,3.39,3.37,7.93,5.9,7.81,12Zm-5.52,20.06c-.45-.52-.92-1-1.34-1.58s-.78-1.16-1.13-1.67c-2.47.51-3.09,1.53-2.27,3.75l2.74.19,1.51,2c-8.34-2.89-8.82-3.24-8.61-9.83C390.24,225.57,393.79,228.16,395.43,233.07ZM383.7,222.58v8.23c-5.24-2.09-7.95-6.35-10.43-10.94,6.73-3,13-1.69,16.06,3.33Zm.87,11.32c-2.31.92-4.14,1.55-5.89,2.37s-2,1.77-.68,3.37,2.7,3.54,4.05,5.34c-3,1.15-11.52-1.33-15.15-3.61C371.83,237,376.39,232,384.57,233.9ZM307,280.37l2,1.06-2.22,7.25-.83-.17C306.3,286,306.63,283.39,307,280.37Zm-3.91,17.26c-8.5-5.8-9.28-21.44-1.65-27.58,1.42,3.19,2.86,6.42,4.44,9.95a13.68,13.68,0,0,0-1.06,13C304.29,294.43,303.71,296,303.1,297.63Zm5.25,37.46a14,14,0,0,0-2.52-10.88c5.57-1.09,10.34,2.82,11.26,9.35ZM312,353c-2.78-4.75-1.66-9.92-2-14.93l6.91-2.95C317.33,338.19,314.19,349.72,312,353Zm68.42,12.24A168,168,0,0,1,364,378.32,145.1,145.1,0,0,1,347.2,388a33.17,33.17,0,0,1-9.12,2.59c-5.13.92-8.77-1.88-9.64-7-.17-1-.29-1.94-.42-2.82l3.3-2-.17-.67c-.65-.07-1.31-.1-1.95-.21a25.91,25.91,0,0,1-4.61-.88c-1.47-.53-2.27-1.77-1.73-3.79,1.69-.17,3.44-.46,5.19-.5,6.76-.16,6.76-.13,13.29-3.07-.17-.64-.36-2-.54-2a6.93,6.93,0,0,0-3,.81c-2.5.67-4.73-.08-6.89-1.45-2.51-1.58-5.16-2.9-8.08-1l-3.68-.35L316,359.9l5.28.57.18-.68-6.4-4c1.33-4.57,2.59-8.66,3.69-12.79a21.35,21.35,0,0,0-.08-12.9c-1.86-5.34-7.58-9.84-13.19-10.25q.54-11.64,1.07-23.29l.62-.25a22.45,22.45,0,0,1,1.4,1.85c.37.61.57,1.34.93,2a3.89,3.89,0,0,0,3.88,2.26c1.75-.16,2.6-1.42,3.1-3,.14-.43.28-.87.51-1.61,2.8.63,4.63-1.09,6.27-3.22l3.59,2.69c1.06,3.17,1.3,3.3,4.15,2.35l3.22.78c-.08.16-.17.33-.25.5,1.21.7,2.48,2,3.63,1.92s2.18-1.62,3.27-2.52l-.4-.5,2.33-1.51c1.87.29,3.38-.14,3.5-2.63,0-.51.76-1,1.17-1.45,9.66,7.79,11.93,8.23,19.31,8.36a14.2,14.2,0,0,1,4.49,7.5,39.24,39.24,0,0,0,1.51,5.13c2.33,5.76,5.23,7.55,12,7.48.05.49.15,1,.16,1.51.13,9.8.07,19.61.46,29.4A14.22,14.22,0,0,1,380.46,365.26Zm5.42-71.54c-.19-1.28-.39-2.65-.59-4l4.87-1.51C391.37,291.49,389.69,293.85,385.88,293.72ZM393.63,373c-.2-.42-.43-.81-.65-1.22,3.34-1.56,6.81.37,7.06,3.94a8.48,8.48,0,0,1-2.33,6.55c-2.06,2.21-4.31,4.25-6.66,6.55-3.53-3.18-6.8-6.37-8.36-10.75-1.1-3.09,2.57-7.08,5.32-6.32-.53,2.13-1.17,4.08-1.48,6.09a6.08,6.08,0,0,0,2,5.74c1.14,1,2.4,1.7,4,1.08a4,4,0,0,0,2.68-3.41A14.49,14.49,0,0,0,393.63,373Zm-2.16,8.7c-2.15-1.34-2.47-4.41-.94-8C392.28,375.76,392.8,379.76,391.47,381.69Zm.64-87.79c.32-.86.65-1.72,1-2.73,2.52,1,4.7.56,6.18-1.79,1.58-2.52.93-4.93-.75-7.23,1.75-1.19,2.91-2.66,2.42-4.84-.54-2.34-2.21-3.33-4.52-3.28.54-5.59.21-6.21-3.54-6.79.34-2.54,2.11-3.44,4.45-3.84.92,3.68,2.56,6.91,6.29,8.67-.9,5.87,1.25,10.66,5.08,14.89,3.09,3.42,5,7.35,3.34,12a19.45,19.45,0,0,1-3.91,5.64c-4.07,4.67-9.3,7.76-14.82,10.44-.22-7.08-.43-14.09-.65-21.1Zm6.5,43.19c-1.79,2.17-3.68,4.26-5.81,6.72V320.5c.8-.37,1.39-.69,2-.92,1.84-.7,3-.2,3.39,1.76a60.75,60.75,0,0,1,.59,6.07c2.59-1.74,2.69-6.72-.13-9.83l2.69-2c3.19,3,3.37,6.6,2.72,10.36A23.92,23.92,0,0,1,398.61,337.09Zm32.91-57.23a135.8,135.8,0,0,1-.1,36.25c-1.15,8.42-4.27,16.37-8.25,23.92-.95,1.81-2.1,3.54-2.91,5.41-3,6.9-7.61,12.53-13.1,17.53a6,6,0,0,1-.61.5,3.56,3.56,0,0,1-.73.16c-1.39-8.48-2.77-16.94-4.13-25.28,4.81-7.78,8.57-15.51,2.22-24.51.25-.21.81-.62,1.33-1.08,1.94-1.69,4-3.27,5.79-5.12,6.32-6.62,6.43-15,.32-22.18-3.13-3.69-2.15-7.87-2-12.08h6.8c2.55-4.25,3.22-9.07,3.67-13.88l7,3C429.89,267.52,430.71,273.74,431.52,279.86Zm4.92-27.65c-5.62,5.15-13.11,6.54-17.44,3.22,5.5-1.11,8.25-5.91,12.52-8.5C433.81,247.69,433.91,247.79,436.44,252.21Zm-3.69-15c-3.63-2.51-7.29-4.24-11.46-3.95l6.56-10.07c2.82-1.22,6.46-.94,10.47-.38C436.69,227.71,437.69,233.45,432.75,237.17Zm-27.43-55.93a33.46,33.46,0,0,1,16.78-1.66c7.1,1.25,13.51,7.87,15.18,15.33,2,9-1,16.52-6.62,23.31-.62.75-1.72,1.11-3.08,1.95.89-3.35,1.6-6.07,2.3-8.68-1.26-1.77-2.77-1.1-4.09-.68-4.82,1.55-9.6,3.21-14.52,4.86-1.75-6.18-6.25-10.26-12.57-12.83a29.29,29.29,0,0,0-9.27,15.25l-4-3.44a27.43,27.43,0,0,1,1-14.79C389.48,190.42,396,184.36,405.32,181.24ZM363,190c4.47-2.72,9.22-4.7,14.57-4.63a19.8,19.8,0,0,1,4.88.78,7.07,7.07,0,0,1,5.06,4.57c-4.3,7-6.23,14.57-4.58,23.14-4.83-1-9.25.1-13.68,1.15-2.4.56-2.77,1.27-1.77,3.46.57,1.26,1.18,2.51,1.71,3.8a13.72,13.72,0,0,0,6,7.28l-8.84,4.49L347,215.7C349.07,205.14,353.32,195.93,363,190Zm217.4,231.86-4.29-3.16v253c-12.21,2.27-18.58,10-21.27,21.57H432.58c2.6,2.41,4.49,4.63,8.19,4.35,4.94-.37,9.93-.09,14.9-.09l101.36,0a12.52,12.52,0,0,0,1.51-.17c1-13.88,9.49-19.9,21.85-22.19ZM194.69,671.72v-253l-4.16,3.06V675.55a23.2,23.2,0,0,1,15.22,6.7c4.21,4.11,6.87,8.88,6.19,15.2.91.07,1.43.14,1.95.14,38.82,0,77.64-.07,116.46.07,3.63,0,5.34-2.13,7.44-4.41H216.05C213.28,681.63,206.89,674,194.69,671.72ZM577,76.4v243l4.08-3.05V72.83c-12.49-2.31-20.85-8.41-21.78-22.19-.54,0-1.06-.12-1.57-.12-38.82,0-77.65.07-116.47-.07-3.63,0-5.34,2.13-7.44,4.4H555.61C558.36,66.46,564.74,74.14,577,76.4ZM191.29,316.31l4.29,3.17V76.36c12.21-2.28,18.57-10,21.25-21.6H338.94c-2.51-2.66-4.72-4.63-8.5-4.31-4.54.38-9.14.09-13.7.09l-102.17,0a12.21,12.21,0,0,0-1.45.15c-.9,13.75-9.33,19.88-21.83,22.18Zm164.3-190.45H415V76.15H355.59Zm4.2-45.46h51.12v41.11H359.79ZM473,368.37a6.78,6.78,0,0,1-4.17-5.44c-.66-4.51-1.38-9-2.1-13.53-.2-1.3-.49-2.58-.75-3.86A143.08,143.08,0,0,0,462.92,362a7.76,7.76,0,0,1-4.69,6.59,50.51,50.51,0,0,1-6.13,2.26,39.62,39.62,0,0,1-4,.87,5.46,5.46,0,0,0,1.87.78c3.21,1.16,6.47,2.22,9.58,3.61a5.39,5.39,0,0,1,3.09,4.37c.23,1.64.49,3.28.76,4.91.69,4.3,1.4,8.59,2.1,12.88a2,2,0,0,0,.76-1.23c.8-4.89,1.84-9.77,2.3-14.7.38-4,2.53-6.26,5.91-7.69a49.12,49.12,0,0,1,5.46-1.8c1.11-.32,2.27-.5,3.41-.75,0-.15-.05-.3-.08-.45a18.75,18.75,0,0,1-2.11-.42C478.45,370.33,475.64,369.54,473,368.37ZM327,505.3a18.33,18.33,0,0,1-2.11-.43,85.49,85.49,0,0,1-8.2-2.87,7.15,7.15,0,0,1-4.32-6.17c-.52-4.47-1.39-8.89-2.12-13.33-.19-1.1-.41-2.19-.61-3.28a2.21,2.21,0,0,0-.72,1.35c-.79,4.83-1.81,9.64-2.26,14.5-.36,4-2.48,6.32-5.89,7.69-2.26.9-4.66,1.46-7,2.15-.63.18-1.29.28-1.94.41a4.09,4.09,0,0,0,1.73.78c3.21,1.16,6.48,2.2,9.59,3.58a5.82,5.82,0,0,1,3.25,4.72q.79,5.4,1.67,10.79c.35,2.2.75,4.4,1.13,6.6a2.6,2.6,0,0,0,.82-1.56c.8-4.9,1.75-9.78,2.3-14.7a7.94,7.94,0,0,1,4.81-6.74,34.71,34.71,0,0,1,4.79-1.87c1.67-.51,3.41-.83,5.12-1.23C327.05,505.56,327,505.43,327,505.3ZM314.8,638.41c1.1,5.72,2.16,11.46,3.29,17.18.31,1.6,1,3.4,2.84,3.3,2.08-.12,1.75-2.2,1.87-3.63q1-11.18,1.83-22.37c.23-3.23.32-6.47.3-9.71,0-.82-.71-1.63-1.08-2.44l-.85,0a9,9,0,0,0-1.07,2.41c-.74,5.85-1.37,11.71-2,17.56-.07.62-.16,1.23-.25,1.85-2-7.06-3.5-14.17-6.42-20.88l-2.65-.2c-.16,1.24-.39,2.31-.42,3.38q-.42,14.29-.77,28.6a13.93,13.93,0,0,0,.29,3.35,6.67,6.67,0,0,0,1.15,1.8l.82,0a9.59,9.59,0,0,0,1.2-2.8c.37-4.35.62-8.71.82-13.07.11-2.37,0-4.76,0-7.14l.43,0C314.35,636.51,314.62,637.45,314.8,638.41Zm118-2.09v-3.05l.57-.07c.74,3.11,1.59,6.21,2.21,9.35.85,4.22,1.5,8.47,2.28,12.7a3.5,3.5,0,0,0,3.16,3.08,11,11,0,0,0,1-2.48,53,53,0,0,0,.67-6.52q.35-13.1.52-26.2a6,6,0,0,0-.83-2.08l-.8,0a7.48,7.48,0,0,0-.78,2c-.3,3.83-.58,7.66-.72,11.49-.12,3.17,0,6.34,0,9.52l-.71,0c-1.39-7.83-4.21-15.19-7.15-22.77-1,.68-2,1.39-2.15,2.25a29.32,29.32,0,0,0-.55,5.92q0,12.6.08,25.22c0,1.31-.17,2.89,1.63,3.45,1.56-.36,1.64-1.56,1.64-2.79Q432.83,645.87,432.8,636.32ZM251,637.58c-.08-4.55-.67-9-3.37-12.86-1.78-2.55-3.64-3.35-6.23-2.73a6.23,6.23,0,0,1-1.24,1.22c-3.39,1.82-5.06,4.95-6.37,8.33A35.45,35.45,0,0,0,231.89,647a18.64,18.64,0,0,0,3,9.55c2.42,3.49,5.77,4.11,9.24,1.73.3-.2.64-.34,1-.54.22.5.37.86.55,1.21.54,1.12,1,2.66,2.62,2s1.18-2.19.8-3.46-.94-2.46-1.43-3.73A34.66,34.66,0,0,0,251,637.58Zm-4.82,9.53a9,9,0,0,1-.48,1.12l-3-3.84c-2.2,3.55.41,6.06.48,8.76-2.14,3.1-4.69,3.17-6-.23a35.81,35.81,0,0,1-2.15-9.77,27.39,27.39,0,0,1,2.46-13.53,37,37,0,0,1,2.76-4.51c4.07.16,5.52,2.54,6.3,5.56A30.9,30.9,0,0,1,246.2,647.11Zm107.52-24a3.72,3.72,0,0,0-5.55-1.2,12.74,12.74,0,0,0-3.26,3.62c-3.5,5.33-3.61,11.43-3.44,17.46.14,5.2,1.14,10.29,4.67,14.48,2.24,2.66,5.1,2.81,7.21,0a18.72,18.72,0,0,0,2.86-5.61c2.09-6.57,2.08-13.31,1.12-20.06a8.93,8.93,0,0,0-1.17-2.41l.29-.11A43.87,43.87,0,0,0,353.72,623.14Zm.44,10.58c.47,6.18.34,12.3-2,18.15a24.39,24.39,0,0,1-2,3.27l-.84,0a13.92,13.92,0,0,1-1.66-2.77,37.72,37.72,0,0,1,.45-24.34,16.44,16.44,0,0,1,2.13-3.35l.87-.06,3.37,5.32-.35.11C354.14,631.26,354.06,632.5,354.16,633.72Zm44.12,14a13.28,13.28,0,0,0,8.56-5.23c3.29-4.46,6-9.11,4.72-15-.91-4.18-3.89-6.69-8.17-6.65a38.67,38.67,0,0,0-4.4.5l-1.61-1.94c-.46.72-1,1.15-.95,1.57,0,1.88-1.4,2.64-2.44,3.81a42.76,42.76,0,0,0-4.48,6.21c-.48.79-.25,2-.35,3l.85.23,5.33-6.65c0,6,.07,11.55,0,17.09-.07,4.3-.39,8.6-.51,12.9,0,1.12.21,2.45,1.7,2.49s1.62-1.3,1.74-2.42a18.88,18.88,0,0,0,0-2C398.28,653,398.28,650.37,398.28,647.7Zm.4-22c5.54-2.63,9.62-.06,9.06,5.57A16.31,16.31,0,0,1,402.29,642a20.77,20.77,0,0,1-3.61,2.08ZM344.1,49.59A12.39,12.39,0,0,0,348.39,51c2.45.42,4.94.59,7.54.87-.48,1.13-1,2.19-1.39,3.29-.47,1.28-.82,2.85.54,3.57a5,5,0,0,0,3.66.24c4.51-1.64,8.85-7.39,8.67-11.65-.25-6-3.33-10.62-8.36-13.77-2.2-1.38-4.41.13-4.13,2.73a23,23,0,0,0,1.53,4.86,15.74,15.74,0,0,0,.82,1.67,25.11,25.11,0,0,0-3.81,0,87,87,0,0,0-9.1,1.75,3.22,3.22,0,0,0-2,2.28A3.83,3.83,0,0,0,344.1,49.59Zm13.36,7.25-.71-.49c1-1.69,2-3.38,2.89-4.92l4.48-.91C362.31,53.51,360.32,55.65,357.46,56.84Zm6.3-12.9-3.42-.76c-.91-2.08-1.83-4.16-2.85-6.48C359.91,37.31,363,41,363.76,43.94Zm.85,2.83c-3.08,2.31-15.52,2.26-18.87-.16C352,45.29,358.17,45,364.61,46.77ZM427.94,698.7a6.93,6.93,0,0,0-2.53-1.08c-3.16-.57-6.35-1-9.64-1.52.4-.93.89-1.92,1.27-3,.5-1.34.84-2.73-.43-3.86s-2.63-.79-3.91-.13a15.25,15.25,0,0,0-7.78,8.38,11.18,11.18,0,0,0-.57,4.27c.21,4.75,3,8.19,6.16,11.39a7.42,7.42,0,0,0,2.31,1.5c2.13.91,4.09-.28,3.9-2.57a22.43,22.43,0,0,0-1.38-4.9,15.12,15.12,0,0,0-1-1.93,28.53,28.53,0,0,0,4.37,0,55.31,55.31,0,0,0,8.87-1.89C430.1,702.52,430.17,700.2,427.94,698.7Zm-13.65-7.39.61.44c-1,1.69-2,3.38-2.89,4.93l-4.5.9C409.39,694.62,411.28,692.33,414.29,691.31Zm-.84,20.24c-2.61-1.73-4.21-4.31-6-7.48l3.83.85,2.77,6.25Zm-6.68-10.75a38.73,38.73,0,0,1,19.37.06C423.75,703.12,410.9,703.14,406.77,700.8ZM172.67,340.35a41.64,41.64,0,0,0,7.25,5.7c8.09,4.55,15.8-2.35,17.76-8,.86-2.49-.88-4.26-3.43-3.61a37.77,37.77,0,0,0-4.1,1.61c-.05-.55-.06-.93-.12-1.31-.53-3.31-.88-6.68-1.73-9.9a4,4,0,0,0-2.91-2.38c-.81-.07-2.28,1.41-2.55,2.43A79.87,79.87,0,0,0,181.2,334a23.44,23.44,0,0,0,0,3.25c-1.84-.78-3.37-1.57-5-2.07s-3.25-.61-4.29,1A3.15,3.15,0,0,0,172.67,340.35Zm17.17-.65,5.26-3.07c-.46,3.05-2.85,5.75-6.15,7.35C189.26,342.48,189.51,341.26,189.84,339.7Zm-4.58-13.9a30.19,30.19,0,0,1,.19,18.68C183.37,338.28,183.61,332.05,185.26,325.8Zm-10,11.89,6.31,2.7c.29,1.27.53,2.33.86,3.8-3.17-1.59-5.68-3.32-7.47-5.94Zm182,351.15c-2.58-.94-4.41.85-3.69,3.5a38.41,38.41,0,0,0,1.53,3.91c-2.5.26-4.94.39-7.31.82a15.08,15.08,0,0,0-4.84,1.65c-2.33,1.35-2.13,3.51.28,4.69a9.81,9.81,0,0,0,3,1c3.32.47,6.66.81,10,1.2-.65,1.65-1.45,3.32-2,5.08-.43,1.44-.44,3.24,1.15,3.81a4.39,4.39,0,0,0,3.77-.52,35.32,35.32,0,0,0,5.88-7.11C369.82,698.74,363.07,691,357.26,688.84Zm-.46,22.32q1.38-3.1,2.74-6.21l3.41-.78C362.26,706.85,359.47,710.35,356.8,711.16Zm-12.2-9.55c3-2.45,15.33-2.66,19.42-.35C357.41,703.13,351.18,702.89,344.6,701.61Zm14.3-4.91-2.95-5,.61-.44c3,1,4.92,3.28,6.74,6.26ZM182.33,406.41c.33,1.74.83,4,3.24,3.87,2.23-.1,2.93-2.12,3.3-3.95.62-3.16,1-6.36,1.54-9.69a12.14,12.14,0,0,0,3.06,1.26,5.79,5.79,0,0,0,3.63-.43c1.32-.89.92-2.5.27-3.8a15.14,15.14,0,0,0-8.49-7.9,11.09,11.09,0,0,0-4.26-.54c-4.74.24-8.17,3-11.35,6.18a7.26,7.26,0,0,0-1.49,2.32c-.89,2.13.33,4.07,2.61,3.88a22.26,22.26,0,0,0,4.89-1.4,9.19,9.19,0,0,0,1.49-.77C181.28,399.16,181.65,402.82,182.33,406.41Zm12.49-10.54-5-3-.87-4.22C192.42,390.29,195,393.34,194.82,395.87Zm-9.39-7.7a30.35,30.35,0,0,1-.13,18.66A31.58,31.58,0,0,1,185.43,388.17Zm-10.37,6.88c.66-2.39,3.69-5,7.31-6.45l-.8,3.56Zm414.61-57.77a20.84,20.84,0,0,0,0-3.18,76.2,76.2,0,0,0-2-10c-.76-2.44-3.15-2.56-4.51-.38a12.94,12.94,0,0,0-1.62,4.41c-.47,2.57-.65,5.18-1,7.89a14.37,14.37,0,0,0-3.29-1.33c-1.14-.17-2.83-.24-3.4.42a4,4,0,0,0-.45,3.55,14.84,14.84,0,0,0,9.58,8.54c5.65,1.67,12.68-3.27,15.37-7,.87-1.21,1.52-2.58.54-4s-2.5-1.42-3.94-1a32.38,32.38,0,0,0-3.84,1.54C590.68,336.83,590.23,337,589.67,337.28Zm-14.17-.2c4.6,1.17,6.18,2.62,6.21,6.93A13,13,0,0,1,575.5,337.08Zm10.19,7.66c-2.32-3.24-2.25-15.67.21-19.43A40.9,40.9,0,0,1,585.69,344.74Zm10.23-7.22c-.93,2.55-4.17,5.25-7.42,6.43.26-1.18.49-2.23.77-3.54Zm-27.77,300.6c-.09-2.22-2.11-2.93-3.94-3.3-3.16-.63-6.36-1-9.7-1.54a12.53,12.53,0,0,0,1.26-3.06,5.86,5.86,0,0,0-.43-3.63c-.88-1.32-2.51-.93-3.8-.28a15.23,15.23,0,0,0-7.9,8.49,10.9,10.9,0,0,0-.54,4.26c.27,4.8,3.1,8.28,6.33,11.48a6.69,6.69,0,0,0,2.17,1.36c2.12.88,4.07-.33,3.87-2.6a22.23,22.23,0,0,0-1.39-4.89,8.93,8.93,0,0,0-.78-1.5c3.72-.51,7.38-.87,11-1.55C566,641,568.25,640.54,568.15,638.12Zm-14.77-9.78c-1.12,4.51-2.6,6.2-6.92,6.2A13.11,13.11,0,0,1,553.38,628.34Zm-1.17,20.41a18.76,18.76,0,0,1-5.92-7.47l3.78.84c.9,2.1,1.81,4.21,2.71,6.32ZM546,638.24c3.23-2,14.74-2,18.86.14C561.32,640.36,549.25,640.2,546,638.24Zm52.23-245.9a41.24,41.24,0,0,0-7-5.65c-8.13-4.75-15.88,2-18,7.78-.94,2.58.85,4.4,3.49,3.69a35.33,35.33,0,0,0,3.88-1.52c.34,2.87.51,5.58,1,8.22a12.62,12.62,0,0,0,1.9,4.48c1.08,1.57,2.94,1.39,3.91-.27a9.9,9.9,0,0,0,1.33-3.49c.51-3.35.83-6.73,1.22-10.07a50.69,50.69,0,0,0,4.78,1.95c1.48.45,3.09.54,4.13-1A3.07,3.07,0,0,0,598.24,392.34Zm-22.71,3.12c1.18-3.28,3.45-5.17,6.06-6.88C581.84,392.48,580.34,394.41,575.53,395.46ZM586,407.2c-2.49-3.14-2.68-15.52-.37-19.47C587.5,394.33,587.21,400.56,586,407.2Zm9.63-12.29-6.31-2.69c-.29-1.26-.53-2.32-.87-3.79,3.16,1.58,5.67,3.3,7.47,5.91ZM414.26,59.18a3.72,3.72,0,0,0,3.2-.59c.62-.56.68-2.06.51-3.06a18.73,18.73,0,0,0-1.43-3.63c2.79-.34,5.49-.53,8.12-1A12.44,12.44,0,0,0,429,49.14c1.86-1.23,1.67-3.22-.3-4.28a10.58,10.58,0,0,0-3.34-1.18c-3.31-.5-6.64-.82-10-1.21a49,49,0,0,0,1.91-4.53c.48-1.53.69-3.23-.88-4.35s-3.23-.42-4.32.73a39.36,39.36,0,0,0-5.34,6.57C401.82,49.11,408.22,56.83,414.26,59.18Zm0-22.62.6.29-2.68,6.31-3.75.85A18.29,18.29,0,0,1,414.22,36.56Zm12.5,10.31a30.63,30.63,0,0,1-18.68.21A31.64,31.64,0,0,1,426.72,46.87Zm-11.39,9.64c-2.17,0-4.5-1.95-6.8-5.76C412.83,50.78,414.3,52.41,415.33,56.51ZM212.93,653.73a3,3,0,0,0,4-.56,40.23,40.23,0,0,0,5.44-6.46c5.14-8.16-.79-15.84-7.09-18.53a3.87,3.87,0,0,0-3.39.5c-.64.56-.65,2.16-.48,3.22a15,15,0,0,0,1.3,3.35c-3.41.55-6.68,1-9.9,1.63-1.74.37-3.64,1.14-3.69,3.3s1.94,2.76,3.58,3.07c3.68.7,7.41,1.13,11.13,1.67-.59,1.46-1.39,3.13-1.92,4.87C211.48,651.21,211.48,652.75,212.93,653.73Zm2.13-3-.59-.39c.92-2.08,1.83-4.15,2.75-6.22l3.74-.86A18.18,18.18,0,0,1,215.06,650.73Zm5.87-14.14c-5,0-6.45-3.05-6.92-6.15C217.26,631.47,219.1,633.81,220.93,636.59Zm-18.34,3.81a30.25,30.25,0,0,1,18.63-.18A31.64,31.64,0,0,1,202.59,640.4Zm59,19.83c2.71,0,4.05-1.93,5.11-4.1a9.74,9.74,0,0,0,.55-1.48c2.85-9.34,3.49-19,3.86-28.64a2.88,2.88,0,0,0-1.53-2.29c-1.32-.3-1.65,1-1.74,2.11-.23,3-.22,6.1-.68,9.1-.93,6.07-2,12.11-3.24,18.13a11.86,11.86,0,0,1-1.7,3.13l-.92,0c-.56-1.07-1.51-2.11-1.61-3.22-.4-4.6-.63-9.23-.76-13.85s0-9.27-.09-13.9a8.45,8.45,0,0,0-.84-2.41l-.89,0a10.71,10.71,0,0,0-.73,2.45c-.38,7.26-.82,14.53-1,21.8a34.92,34.92,0,0,0,1.08,8.43C257.16,658.4,259.42,660.27,261.58,660.23ZM585.49,697c-1.82-2.32-3.83-4.49-5.71-6.67,1.46-.58,3.1-1.11,4.62-1.88s2.88-1.86,2.46-3.86-2.07-2.45-3.66-2.4a57.11,57.11,0,0,0-8,.86,10.07,10.07,0,0,0-6.28,3.81c-3.33,4.39-3.46,9.31-1.55,14.28a3.9,3.9,0,0,0,2.7,2.1c.85.08,2.05-1,2.66-1.87a17,17,0,0,0,1.5-3.65c2.08,1.66,4,3.33,6,4.74a13.64,13.64,0,0,0,4.44,2.07c2.66.62,4-1,3-3.55A16,16,0,0,0,585.49,697Zm-2.11-11.76c.07.21.13.42.2.64l-6.49,2.67-3.34-2.11C577.22,685.31,580.24,684.63,583.38,685.19Zm-13.56,15.46c-1.54-3.13-1.28-6.12-.74-9.12C572,693.55,572.58,696.37,569.82,700.65Zm1.63-12.27c6,2.84,10.28,7.4,13.61,13A30,30,0,0,1,571.45,688.38ZM185.6,50.31c2,2.59,4.15,5.08,6.19,7.55-1.38.55-3,1.07-4.53,1.84s-2.89,1.86-2.47,3.85,2.07,2.51,3.65,2.41a41.22,41.22,0,0,0,8.95-1.21c8.69-2.5,9.48-12.58,6.72-18.27-1.15-2.36-3.63-2.36-5-.07a31.89,31.89,0,0,0-1.68,4c-2.12-1.67-4.06-3.36-6.18-4.81a13,13,0,0,0-4.26-2c-2.67-.62-4,1-3.06,3.54A11.81,11.81,0,0,0,185.6,50.31Zm2.68,12.58-.15-.69,6.44-2.58,3.28,2.06C194.52,62.81,191.48,63.48,188.28,62.89Zm13.55-15.33c1.57,3,1.24,6,.71,9.34C199.21,53.66,199.39,51.28,201.83,47.56ZM200.2,59.72c-6-2.8-10.25-7.39-13.62-13A30,30,0,0,1,200.2,59.72ZM570.26,62c3.94,3.51,8.73,4.38,13.82,4,1.55-.11,3.12-.55,3.55-2.32.49-2-.82-3.13-2.35-3.91s-3.22-1.34-4.51-1.87c2.23-2.85,4.6-5.67,6.71-8.67,1-1.45,2.31-3.37.6-5s-3.56-.67-5.11.35c-2.75,1.8-5.36,3.81-8.08,5.77a13.28,13.28,0,0,0-1.36-3.42c-.67-.9-1.88-2-2.8-2a3.89,3.89,0,0,0-2.64,2.19,14.53,14.53,0,0,0,.26,12.1A8.44,8.44,0,0,0,570.26,62Zm14.11.29-.19.65c-3.19.62-6.24-.15-9.65-1.16,1.24-.79,2.16-1.39,3.32-2.12Zm2-15.64a39.67,39.67,0,0,1-14.09,13.53C572.91,56.21,581.91,47.51,586.35,46.61Zm-15.63,1.13c2.31,3.52,2.55,5.87-.78,9.14C569.14,51.8,569.33,49.73,570.72,47.74ZM201.44,686.21c-3.93-3.63-8.83-4.49-14-4.08-1.55.13-3.08.6-3.46,2.43s.86,3,2.32,3.74,3.25,1.37,5,2.09c-.48.44-1,.87-1.43,1.33-2.82,2.73-5.42,5.64-6.77,9.41-.81,2.26.42,3.88,2.73,3.39a15,15,0,0,0,5-2.25c2.06-1.36,3.91-3,5.9-4.64.4,1.12.7,2.2,1.16,3.21.58,1.28,1.28,2.55,3,2.49s2.59-1.36,3-2.79a23.47,23.47,0,0,0,.85-5.64C204.69,691.65,203.89,688.47,201.44,686.21Zm-14.15-.36.18-.67c3.18-.54,6.23.13,9.6,1.21l-3.29,2.12Zm-1.47,15.56a31.41,31.41,0,0,1,13.57-13C196.35,694.23,191.63,698.36,185.82,701.41Zm15.25-.87c-2.17-3-2.92-5.89.59-9.3C202.39,694.44,202.56,697.46,201.07,700.54Zm257-40.81c2,.51,2-1.47,2.34-2.74.72-2.73,1.34-5.49,2-8.37h5.42c.4,2.91.71,5.8,1.27,8.65.13.67,1.13,1.16,1.73,1.74a8.72,8.72,0,0,0,1.3-2,4.54,4.54,0,0,0-.1-2c-.39-3-.89-5.89-1.19-8.86-.73-7.31-1.36-14.63-2.09-21.94a20.45,20.45,0,0,0-.92-3.36l-.85,0a13.09,13.09,0,0,0-1.15,2.31c-1.62,5.94-3.17,11.89-4.74,17.84l-1,3.59-.54-.48-3.23,2.3,2.6,3c-.45,1.87-1.08,4.37-1.64,6.88C457.06,657.58,456.24,659.26,458,659.73Zm8.18-26.59.42.05c.27,3.52.54,7,.84,10.8l-3.92.25C464.49,640.35,465.36,636.75,466.22,633.14Zm-87.8-575.8a2.77,2.77,0,0,0,2.3.4c.43-.16.76-1.32.69-2-.36-3.44,1.11-5.91,4.54-7.29,3.67,1,5.51,3.71,5.14,7.07-.08.74.2,2.05.6,2.17a3.31,3.31,0,0,0,2.45-.49A6.75,6.75,0,0,0,396,55.16a11.47,11.47,0,0,0-12-17.35,11.54,11.54,0,0,0-9.16,9.34C374.28,51.14,375.29,54.66,378.42,57.34Zm3.17-14.49c2.91-2.17,6.09-2.16,9.18,0a6.69,6.69,0,0,1,2.75,7.92c-4.19-7.93-11-6.93-14.57,0A6.86,6.86,0,0,1,381.59,42.85Zm11.7,648a2.75,2.75,0,0,0-2.29-.47c-.48.23-.8,1.41-.72,2.12a6.28,6.28,0,0,1-5.09,7.15c-3.43-1.22-4.91-3.69-4.54-7.35.06-.62-.21-1.64-.63-1.84a3,3,0,0,0-2.17.16,4.54,4.54,0,0,0-1.42,1.35,11.29,11.29,0,0,0-1.28,12.3c2,3.92,6.82,6.74,10.89,6.39a12,12,0,0,0,10.37-8C397.77,698.4,396.45,693.22,393.29,690.81ZM391,704.4c-2.83,2.67-6.41,3.2-9.45,1.39a7.36,7.36,0,0,1-3.48-8.68c3.95,7.65,10.94,7.57,14.5.21A6.32,6.32,0,0,1,391,704.4ZM576.57,371.07a2.25,2.25,0,0,0-1.83.69c-.3.47-.08,1.35.1,2,.11.4.56.72.89,1a11.46,11.46,0,0,0,16.1-16.29c-4.47-4.88-12.54-5-16.55-.18a3.13,3.13,0,0,0-.56,2.45c.11.4,1.42.74,2.14.66,3.19-.33,5.74,1.21,7.13,4.57C583,369.84,580.5,371.43,576.57,371.07ZM581.65,359a7,7,0,0,1,8.1,2.86c2.11,3,2,6.2-.43,9.33a6.59,6.59,0,0,1-7.67,2.39C589,369.85,589.22,363.14,581.65,359Zm-387.38,2.54a2.27,2.27,0,0,0,1.84-.68,2.56,2.56,0,0,0-.1-2,4.22,4.22,0,0,0-1.32-1.45,10.87,10.87,0,0,0-11.91-1.61,11.1,11.1,0,0,0-6.84,10.76c0,4.81,2.64,8.38,7.1,10.36s10,.69,12.66-2.79a2.84,2.84,0,0,0,.44-2.3c-.14-.43-1.29-.8-1.95-.73-3.71.38-6.16-1.2-7.33-5C188.16,362.59,190.55,361.18,194.27,361.54Zm-5.06,12a6.49,6.49,0,0,1-7.4-2c-2.58-3.11-2.88-6.45-.85-9.49a7.17,7.17,0,0,1,8.42-3C182.42,362.43,181.17,369.46,189.21,373.53Zm96.7,252.61c1.37,0,2.63-.36,2.67-2s-1.23-2.14-2.57-2.1c-3,.08-6.09.23-9.11.52a5.56,5.56,0,0,0-2,1,28.53,28.53,0,0,1,.36,3.39c-.31,9.8-.7,19.59-1,29.38a19.93,19.93,0,0,0,.76,4c3.44-.16,6.53-.28,9.62-.44,2.82-.15,3.87-.84,3.82-2.45s-1.45-2.51-4.12-2.27c-2.14.19-4.27.58-6.33.87V643.18c2.05-.15,3.82-.24,5.59-.43,1.41-.15,2.76-.61,2.56-2.37s-1.7-1.79-3.06-1.66c-1.62.16-3.24.41-5.17.67V626.15C280.53,626.15,283.22,626.16,285.91,626.14Zm8,34.37c3.42-.29,6.84-.51,10.22-1a1.73,1.73,0,0,0,1.12-2.69,3.29,3.29,0,0,0-2.35-1.36,61.78,61.78,0,0,0-6.4.36V643.2c1-.12,1.88-.24,2.73-.33a9.46,9.46,0,0,0,3.11-.36c.86-.42,1.42-1.46,2.1-2.22a10,10,0,0,0-2.49-1.8,8.39,8.39,0,0,0-2.95,0c-.82.05-1.64.14-2.71.24V626.54a54.78,54.78,0,0,0,6.44-.5,2.67,2.67,0,0,0,1.7-1.95,2.58,2.58,0,0,0-1.87-1.73,75.88,75.88,0,0,0-8.11.36,1.81,1.81,0,0,0-1.82,2.24l.93,1.24c-.12,2.46-.23,4.64-.35,6.82-.14,2.8-.3,5.6-.47,8.75.52,5.81,0,12-.1,18.22C293.24,660.23,293.61,660.54,294,660.51Zm212.4-4.88c-.06,1.55,0,3.6,1.87,3.67a41.19,41.19,0,0,0,8.61-.93c.49-.08,1.16-1.4,1-2s-1.12-1.14-1.83-1.34a5.83,5.83,0,0,0-2.14.27l-3.4.51V642.38a28.43,28.43,0,0,0,5.29-.09c.8-.16,1.4-1.28,2.09-2-.68-.68-1.27-1.8-2-1.94a31.31,31.31,0,0,0-5.36-.1v-14l7.08-.4c0-2.23-1-3.15-3.27-3.3-5.46-.35-7.77.4-8.12,2.73l1,1.06v14.51c-3.82,1.49-4,1.74-2.95,3.85l2.68.38c0,.74,0,1.39,0,2C506.68,648.62,506.46,652.13,506.35,655.63ZM369.29,637c-1,0-2.09.12-3.32.2-.2-4-.39-7.82-.59-11.68,3.19-.32,6.21.39,8.77-1.51a5.81,5.81,0,0,0,.13-1,3.93,3.93,0,0,0-.23-.87c-3-1.65-8.18-1.65-12.11.13a33.6,33.6,0,0,0-.49,4c0,9.33,0,18.65,0,28a17.11,17.11,0,0,0,.27,2.56,1.9,1.9,0,0,0,2.14,1.85,2,2,0,0,0,2.11-2.13c0-.72,0-1.45,0-2.18q0-6.21,0-12.4a39.58,39.58,0,0,0,4-.27,2.23,2.23,0,0,0,1.91-2.77C371.65,637.49,370.66,637,369.29,637Zm50.29-12.68a23.29,23.29,0,0,0,4.9-.59c.76-.23,1.22-1.42,1.82-2.17-.72-.56-1.46-1.62-2.15-1.58a53.5,53.5,0,0,0-8.25,1,2.74,2.74,0,0,0-1.57,2.07c-.33,11.84-.55,23.68-.75,35.52a5.4,5.4,0,0,0,.64,1.68c3.68-.87,7.17-1.6,10.58-2.58a2.58,2.58,0,0,0,1.21-2.12c0-.51-1.11-1.31-1.78-1.38a11.49,11.49,0,0,0-3.52.41c-1.24.28-2.44.72-3.58,1.06V644l7.33-1.57c.23-2.57-.63-3.46-2.72-3.28-1.48.13-2.95.42-4.78.7V624.35C417.77,624.35,418.68,624.41,419.58,624.34Zm104.16,24a8.67,8.67,0,0,0-2.4,1.21,4.67,4.67,0,0,0-.67,5.21c.81,2,1.77,4.08,4.23,4.28,6.33.5,9.6-2.6,8.87-8.94-.66-5.75-3.58-10.32-7.53-14.29a9.37,9.37,0,0,1-2.78-9.21c.47-2.11,1.54-2.89,3.67-2.62,1.82.23,2.49,1.51,3,3,.27.86.67,1.68,1,2.52l.75.15c.14-.3.29-.6.41-.91,1-2.48-.88-6.47-3.45-7.48-3.15-1.25-6.82.07-7.71,3.14a24.06,24.06,0,0,0-.87,7c.06,3.63,2.56,6.11,4.77,8.67a20.82,20.82,0,0,1,5.38,11.71c.14,1.49-.12,2.86-1.8,3.31a18.28,18.28,0,0,1-2.68.38C522.23,654,524.68,651.08,523.74,648.39ZM481.57,626c1.95-2.61,3.75-2.52,5.71.08.52.68,1.08,1.33,1.88,2.31.47-.86.75-1.13.75-1.41,0-2.29-1.35-3.81-3-5.13a4,4,0,0,0-4.66-.42,10.93,10.93,0,0,0-5.44,6.3c-3,8.15-3,16.43-1.09,24.79a8.44,8.44,0,0,0,4.8,5.75c1.69.84,3.49.87,4.74-.61a45.93,45.93,0,0,0,4.11-5.95c.64-1.07.73-2.47-.68-3.07s-1.95.71-2.56,1.75c-.91,1.56-2,3-2.94,4.45-2.55-.91-3.83-2.41-4-4.53a134.07,134.07,0,0,1-.77-14A17.63,17.63,0,0,1,481.57,626ZM449.9,654.6a4.76,4.76,0,0,0,.17,2.15c.29.61,1,1.39,1.58,1.38s1.35-.79,1.56-1.4a9.61,9.61,0,0,0,.27-3c.21-8.54.38-17.07.59-25.61,0-1.11.15-2.22.23-3.35,1.45,0,2.57,0,3.68,0,1.28-.06,2.45-.41,2.4-2,0-1.45-1.09-1.87-2.33-1.88-3.35,0-6.71-.09-10.06.06-.68,0-1.32,1-2,1.47.54.64,1,1.55,1.66,1.86a13.93,13.93,0,0,0,3.28.62c0,.41,0,.66,0,.92Q450.43,640.22,449.9,654.6Zm46.23-30.9a7.25,7.25,0,0,0-.67-2.07l-.68-.06a12.15,12.15,0,0,0-1,2.38,29.9,29.9,0,0,0-.5,4.33c-.43,9-.82,18-1.23,27-.12,2.56.41,3.39,2.92,3.38a86.48,86.48,0,0,0,9.09-.7c.64-.07,1.2-.77,2.1-1.38-3.24-3.81-7.3-1-10.66-2.17.15-2,.43-4,.45-6.08Q496.13,636,496.13,623.7Zm19.49-214.06a4.85,4.85,0,0,1-3-4.31c-.35-3-.89-6-1.37-9,0-.24-.27-.45-.61-1-.62,3.63-1.33,6.86-1.69,10.13a5,5,0,0,1-3.25,4.35c-1.76.75-3.64,1.26-5.7,2a8.84,8.84,0,0,0,1.31.43c5.14.73,8.08,3.37,8.2,8.86a48.86,48.86,0,0,0,1.06,6.72h.5c.5-2.95,1.21-5.88,1.44-8.86s1.84-4.82,4.6-5.75c1.45-.5,2.93-.92,4.45-1.39C519.45,411,517.5,410.42,515.62,409.64ZM482.34,223.73a5.48,5.48,0,0,1-3.77-5.07c-.27-3.06-.95-6.1-1.45-9.14l-.53,0c-.4,2.44-.88,4.88-1.18,7.34-.61,5.14-2.31,7.06-7.37,8.06l-1.76.37a24.09,24.09,0,0,0,4,1.52c2.69.91,4.58,2.39,4.84,5.57s.95,6.11,1.46,9.16h.49a88.06,88.06,0,0,0,1.44-8.92c.21-3.17,2-4.76,4.64-5.72,1.39-.49,2.81-.86,4.48-1.37C485.67,224.85,484,224.37,482.34,223.73ZM252.91,377.5c.51-3.1,1.17-6.18,1.48-9.3a5.22,5.22,0,0,1,3.3-4.76c1.78-.76,3.65-1.32,5.86-2.11-.83-.2-1.31-.35-1.79-.43-5-.91-6.62-2.5-7.47-7.41q-.69-4-1.4-8l-.5,0c-.4,2.46-1,4.92-1.15,7.4-.24,3.88-1.85,6.52-5.77,7.49-1.12.27-2.24.57-3.9,1,2,.59,3.4.95,4.79,1.45,2.51.9,4.29,2.33,4.55,5.34s1,6.22,1.51,9.32Zm44.39,35.32c.11.7.32,1.39.48,2.08,1.11-3.23.19-7.45,5.47-8.06-5.36-.56-4.32-4.83-5.37-8-1.12,3.12-.06,7.59-5.71,7.9C296.58,408.52,296.57,408.52,297.3,412.82ZM441.58,160.05a22.87,22.87,0,0,0-.74-3.7c-1.16,3.06-.22,7.23-4.95,7.54,1.29,1,2.92,1.79,3.6,3.06.76,1.42.66,3.3.94,5,1.42-2.91.28-7.23,5.48-7.64a4.27,4.27,0,0,0-1.27-.66C442.8,163.14,441.66,162.15,441.58,160.05ZM588.14,434.52c-1.52,0-2.12,1.07-2.22,2.47a1.84,1.84,0,0,0,2,2.16,2,2,0,0,0,2.21-2.22C590.14,435.58,589.62,434.53,588.14,434.52Zm-403.21,2.63c0-1.41-.56-2.52-2.07-2.62s-2.1.85-2.49,2.71c.81.65,1.54,1.66,2.44,1.85A1.73,1.73,0,0,0,184.93,437.15ZM181.76,425a3.51,3.51,0,0,0-.75,2.72c.36,1.57,1.75,1.5,3.2,1.15a2.43,2.43,0,0,0-.07-3.59A2.51,2.51,0,0,0,181.76,425Zm405,.13a2.48,2.48,0,0,0-.23,3.65c2.92.64,3.77-.21,3.27-3.24C589,424.45,587.83,424.09,586.8,425.1Zm.87-112c1.1,1,2.19.53,3-.54.37-3-.34-3.73-3.32-3.22A2.57,2.57,0,0,0,587.67,313.13ZM184.89,313a2.48,2.48,0,0,0,.15-3.63c-1.41-.37-2.8-.49-3.21,1.06a3.51,3.51,0,0,0,.67,2.76C182.82,313.55,184.39,313.43,184.89,313ZM588.11,444.91a2.77,2.77,0,0,0-2.06,1.55c-.5,1.39.37,2.35,2,2.74,1.46-.31,2.46-1.12,2-2.58A2.75,2.75,0,0,0,588.11,444.91ZM184.8,446.45a2,2,0,0,0-4,.17c-.43,1.47.57,2.28,2.05,2.57C184.44,448.8,185.3,447.85,184.8,446.45Zm148-401c1.5.06,2-1,2.55-2.75A8.19,8.19,0,0,0,333,41.27c-1.38-.31-2.1.65-2.18,1.92A1.91,1.91,0,0,0,332.75,45.46ZM441.61,43.2c-.08-1.25-.78-2.25-2.17-1.93a8.68,8.68,0,0,0-2.3,1.43l0,1c.86.6,1.66,1.57,2.58,1.71C441,45.6,441.68,44.47,441.61,43.2ZM332.16,702.65a1.87,1.87,0,0,0-2.12,2.06c0,1.23.53,2.17,2.68,2.21.31-.38,1.25-1,1.39-1.82A2,2,0,0,0,332.16,702.65Zm106.48,0a2,2,0,0,0-1.89,2.49c.16.79,1.11,1.42,1.44,1.8,2.13-.1,2.67-1.05,2.62-2.28A1.87,1.87,0,0,0,438.64,702.65Zm61.57-657c.5-.83,1.34-1.64,1.4-2.51a1.69,1.69,0,0,0-2.19-1.82,2.89,2.89,0,0,0-1.79,2c0,.78,1,1.56,1.62,2.34Zm8.75,0,.94,0c.57-.8,1.61-1.6,1.59-2.38a2.91,2.91,0,0,0-1.86-2,1.68,1.68,0,0,0-2.11,1.94C507.6,44.12,508.45,44.88,509,45.68ZM183.68,303.19a1.7,1.7,0,0,0,1.93-2.11,2.94,2.94,0,0,0-1.94-1.89c-.78,0-1.62.94-2.43,1.48v1C182.05,302.18,182.82,303.08,183.68,303.19ZM538.81,45.68l.9,0c.58-.74,1.48-1.41,1.66-2.23.27-1.26-.58-2.14-1.93-2.22a1.79,1.79,0,0,0-2.1,2C537.43,44.15,538.29,44.9,538.81,45.68ZM183.62,84.52a1.69,1.69,0,0,0,2-2c-.16-.87-1.06-1.61-1.63-2.41l-.92,0c-.5.84-1.44,1.71-1.36,2.5A2.82,2.82,0,0,0,183.62,84.52Zm405.08-4a2.92,2.92,0,0,0-1.87,2,1.69,1.69,0,0,0,2,2c.86-.14,1.59-1.06,2.38-1.64l0-1C590.35,81.42,589.48,80.47,588.7,80.54ZM222.64,45.7h.94c.56-.81,1.57-1.65,1.52-2.44s-1.14-1.75-1.93-1.92a1.69,1.69,0,0,0-2,2C221.25,44.21,222.11,44.93,222.64,45.7ZM588.82,90.47a2.89,2.89,0,0,0-2,1.85,1.68,1.68,0,0,0,1.87,2.15c.86-.08,1.65-1,2.48-1.48l0-1C590.41,91.46,589.6,90.45,588.82,90.47ZM182.39,653.24c-.54.81-1.52,1.65-1.49,2.44a2.85,2.85,0,0,0,1.83,2,1.68,1.68,0,0,0,2.1-1.92c-.14-.89-1-1.67-1.52-2.5ZM586.84,301a1.69,1.69,0,0,0,1.86,2.16c.86-.07,1.66-.95,2.48-1.47l0-1c-.8-.56-1.6-1.57-2.38-1.54A2.9,2.9,0,0,0,586.84,301ZM183.74,104.41a1.7,1.7,0,0,0,1.87-2.17,2.93,2.93,0,0,0-2-1.83c-.78,0-1.59,1-2.38,1.57l0,1C182.08,103.46,182.88,104.33,183.74,104.41Zm-.81,543.29a2.89,2.89,0,0,0,1.88-2,1.68,1.68,0,0,0-2-2c-.86.13-1.6,1-2.39,1.62,0,.32,0,.64,0,1C181.29,646.8,182.15,647.76,182.93,647.7Zm-2.47-100.81c.83.52,1.69,1.48,2.47,1.42a2.89,2.89,0,0,0,1.88-1.95,1.68,1.68,0,0,0-2-2.05c-.86.13-1.6,1.05-2.39,1.62Zm405.58-90a2.88,2.88,0,0,0,1.88,1.94c.78.07,1.64-.89,2.47-1.41,0-.32,0-.64,0-1-.79-.57-1.53-1.49-2.39-1.62A1.68,1.68,0,0,0,586,456.91Zm2.69-243.18c.86-.09,1.64-1,2.46-1.5,0-.32,0-.64,0-1-.8-.55-1.62-1.55-2.4-1.51a2.87,2.87,0,0,0-2,1.85A1.68,1.68,0,0,0,588.73,213.73Zm-405,6c-.78-.05-1.62.94-2.44,1.47v1c.81.54,1.57,1.45,2.43,1.55a1.69,1.69,0,0,0,1.94-2.09A2.9,2.9,0,0,0,183.68,219.68Zm405,4c.86-.08,1.65-1,2.47-1.49,0-.33,0-.65,0-1-.79-.55-1.61-1.56-2.39-1.53a2.9,2.9,0,0,0-2,1.85A1.68,1.68,0,0,0,588.72,223.67ZM182.82,468.8a2.93,2.93,0,0,0,2-1.84,1.7,1.7,0,0,0-1.87-2.16c-.86.08-1.65,1-2.48,1.48l0,1C181.24,467.81,182,468.82,182.82,468.8ZM586,635.89a2.9,2.9,0,0,0,2,1.86c.78,0,1.6-1,2.41-1.51,0-.32,0-.64,0-1-.82-.54-1.6-1.43-2.46-1.52A1.69,1.69,0,0,0,586,635.89ZM587.9,464.8A1.7,1.7,0,0,0,586,467a2.87,2.87,0,0,0,2,1.82c.78,0,1.58-1,2.37-1.55l0-1C589.56,465.75,588.76,464.87,587.9,464.8Zm-405,173a1.67,1.67,0,0,0,2-2c-.19-.88-1.09-1.61-1.67-2.4l-.92,0c-.48.85-1.4,1.74-1.33,2.54A2.83,2.83,0,0,0,182.86,637.79Zm.62-543.33a1.69,1.69,0,0,0,2.14-1.89c-.1-.88-1-1.68-1.46-2.51l-.91,0c-.56.8-1.57,1.61-1.55,2.4A2.86,2.86,0,0,0,183.48,94.46Zm-1,379.87c-.55.8-1.54,1.61-1.53,2.41a2.83,2.83,0,0,0,1.78,2,1.66,1.66,0,0,0,2.13-1.86c-.11-.89-.95-1.69-1.46-2.53ZM588,478.73c.77,0,1.6-1,2.4-1.5v-1c-.82-.53-1.59-1.43-2.46-1.52a1.68,1.68,0,0,0-1.9,2.12A2.9,2.9,0,0,0,588,478.73ZM185.61,241.5a2.89,2.89,0,0,0-1.89-1.94c-.77-.07-1.64.9-2.46,1.41l0,1c.8.57,1.54,1.49,2.4,1.62A1.69,1.69,0,0,0,185.61,241.5ZM590.38,545.75c-.83-.51-1.64-1.37-2.5-1.44A1.7,1.7,0,0,0,586,546.5a2.93,2.93,0,0,0,2,1.81c.78,0,1.57-1,2.36-1.59C590.41,546.4,590.4,546.08,590.38,545.75Zm-1.7-302.19c.83,0,1.63-.82,2.44-1.27,0-.3.08-.6.11-.9-.72-.64-1.36-1.64-2.2-1.86a1.77,1.77,0,0,0-2.26,1.81A1.84,1.84,0,0,0,588.68,243.56Zm-403.07,7.82a2.92,2.92,0,0,0-2-1.88c-.78-.05-1.61.95-2.42,1.49,0,.32,0,.64,0,1,.81.54,1.58,1.44,2.44,1.54A1.69,1.69,0,0,0,185.61,251.38Zm-2.79,237.3a2.91,2.91,0,0,0,2-1.84,1.69,1.69,0,0,0-1.86-2.16c-.87.08-1.66.95-2.49,1.47l0,1C181.23,487.68,182,488.7,182.82,488.68Zm405.07,69.56c.77.09,1.65-.87,2.49-1.37,0-.32,0-.64,0-1-.79-.58-1.51-1.52-2.37-1.66a1.68,1.68,0,0,0-2,2A2.88,2.88,0,0,0,587.89,558.24Zm3.29-307.38c-.84-.5-1.72-1.45-2.5-1.36a2.9,2.9,0,0,0-1.85,2,1.68,1.68,0,0,0,2,2c.86-.14,1.58-1.08,2.37-1.67ZM184.05,259h-.92c-.52.83-1.48,1.68-1.43,2.47a2.85,2.85,0,0,0,1.87,1.95,1.69,1.69,0,0,0,2.05-2C185.48,260.56,184.6,259.8,184.05,259Zm-1.11,315.14c-.86.08-1.65,1-2.48,1.48,0,.32,0,.64,0,1,.79.56,1.6,1.57,2.38,1.55a3,3,0,0,0,2-1.85A1.69,1.69,0,0,0,182.94,574.13Zm0-79.51c-.87.07-1.67.94-2.49,1.45,0,.33,0,.65,0,1,.8.57,1.6,1.59,2.37,1.58a2.91,2.91,0,0,0,2-1.83A1.69,1.69,0,0,0,183,494.62Zm1.85,61.71a1.69,1.69,0,0,0-1.94-2.08c-.86.11-1.62,1-2.42,1.57v1c.82.53,1.67,1.51,2.44,1.45A2.91,2.91,0,0,0,184.81,556.33ZM591.18,290.64c-.83-.5-1.71-1.46-2.48-1.38a2.9,2.9,0,0,0-1.87,2,1.69,1.69,0,0,0,2,2c.86-.14,1.59-1.07,2.38-1.64ZM252.54,45.72l.9,0c.54-.77,1.43-1.49,1.54-2.32a1.8,1.8,0,0,0-2-2.1c-1.35,0-2.21.89-2,2.16C251.1,44.27,252,45,252.54,45.72ZM586,626a2.92,2.92,0,0,0,2,1.87c.77,0,1.6-1,2.41-1.51,0-.32,0-.64,0-1-.82-.54-1.59-1.43-2.46-1.53A1.69,1.69,0,0,0,586,626ZM590.4,506.1c-.81-.55-1.58-1.44-2.44-1.54a1.68,1.68,0,0,0-1.92,2.1,2.86,2.86,0,0,0,1.94,1.88c.78,0,1.61-.94,2.42-1.48ZM183.07,269c-.5.83-1.43,1.71-1.36,2.5a2.82,2.82,0,0,0,1.91,1.9,1.69,1.69,0,0,0,2-2c-.16-.88-1.06-1.61-1.63-2.41Zm-.28,358.89a1.66,1.66,0,0,0,2-2c-.16-.89-1-1.64-1.59-2.46l-.92,0c-.51.83-1.47,1.69-1.41,2.48A2.84,2.84,0,0,0,182.79,627.85Zm406-354.48c.86-.11,1.62-1,2.42-1.57v-1c-.81-.53-1.66-1.51-2.44-1.46a2.93,2.93,0,0,0-1.92,1.91A1.69,1.69,0,0,0,588.78,273.37ZM262.38,45.7h1c.55-.8,1.55-1.62,1.53-2.41A2.89,2.89,0,0,0,263,41.35a1.68,1.68,0,0,0-2.12,1.89C261,44.11,261.86,44.88,262.38,45.7Zm10,0h.95c.53-.81,1.52-1.65,1.48-2.44s-1.12-1.72-1.91-1.91a1.67,1.67,0,0,0-2.07,1.93C270.94,44.15,271.83,44.9,272.38,45.71Zm9.91,0h.95c.54-.82,1.54-1.67,1.5-2.46s-1.16-1.73-1.95-1.9a1.68,1.68,0,0,0-2,2C280.89,44.22,281.76,44.94,282.29,45.71ZM182.84,514.49c-.86.13-1.6,1-2.4,1.62l0,1c.82.52,1.69,1.49,2.46,1.42a2.89,2.89,0,0,0,1.89-1.94A1.68,1.68,0,0,0,182.84,514.49ZM588,617.88c.78,0,1.61-1,2.41-1.5v-1c-.82-.54-1.59-1.43-2.45-1.53A1.69,1.69,0,0,0,586,616,2.9,2.9,0,0,0,588,617.88ZM302.15,45.7h1c.55-.82,1.56-1.66,1.51-2.44s-1.14-1.75-1.93-1.92a1.69,1.69,0,0,0-2,2C300.76,44.21,301.62,44.93,302.15,45.7ZM586,536.53a2.93,2.93,0,0,0,2,1.84c.78,0,1.58-1,2.38-1.55,0-.32,0-.65,0-1-.83-.52-1.62-1.4-2.48-1.48A1.69,1.69,0,0,0,586,536.53Zm4.34,68.85c-.83-.51-1.64-1.37-2.5-1.43a1.69,1.69,0,0,0-1.84,2.18,2.91,2.91,0,0,0,2,1.81c.78,0,1.57-1,2.36-1.59ZM184.81,606a1.69,1.69,0,0,0-1.94-2.09c-.86.12-1.62,1-2.42,1.58v1c.82.53,1.67,1.52,2.45,1.46A2.91,2.91,0,0,0,184.81,606Zm-1.95-37.81a1.67,1.67,0,0,0,2-2c-.19-.88-1.09-1.61-1.67-2.4l-.92,0c-.48.85-1.41,1.74-1.33,2.54A2.83,2.83,0,0,0,182.86,568.22Zm0-43.79c-.87.1-1.64,1-2.45,1.52,0,.33,0,.65,0,1,.8.55,1.63,1.55,2.41,1.51a2.88,2.88,0,0,0,1.95-1.87A1.69,1.69,0,0,0,182.91,524.43ZM586,526.61a2.89,2.89,0,0,0,2,1.82c.77,0,1.57-1,2.36-1.57l0-1c-.82-.51-1.62-1.39-2.49-1.46A1.7,1.7,0,0,0,586,526.61ZM449.4,45.7l.9,0c.56-.75,1.46-1.43,1.62-2.25.25-1.27-.61-2.14-2-2.19a1.8,1.8,0,0,0-2.07,2.08C448,44.19,448.87,44.92,449.4,45.7ZM183,598a2.88,2.88,0,0,0,1.85-2,1.69,1.69,0,0,0-2-2c-.86.15-1.58,1.08-2.37,1.66,0,.32,0,.65,0,1C181.31,597.13,182.19,598.08,183,598ZM460.34,45.7c.53-.76,1.4-1.48,1.52-2.31a1.69,1.69,0,0,0-2-2,2.9,2.9,0,0,0-1.94,1.91c-.05.78,1,1.63,1.5,2.45Zm19.8,0c.56-.75,1.45-1.45,1.6-2.27a1.69,1.69,0,0,0-2-2.1,2.89,2.89,0,0,0-2,1.85c-.07.78.91,1.66,1.43,2.5ZM589,189.84c-1.21-.34-2.15.46-2.26,1.8a1.83,1.83,0,0,0,1.9,2.22c.84,0,1.64-.82,2.45-1.27,0-.3.08-.59.11-.89C590.51,191.05,589.87,190.07,589,189.84Zm-407.8,2.41c.8.56,1.54,1.48,2.4,1.61a1.69,1.69,0,0,0,2-2.05,2.91,2.91,0,0,0-1.89-1.95c-.78-.06-1.64.9-2.46,1.42ZM587.9,663.58a1.69,1.69,0,0,0-1.86,2.16,2.91,2.91,0,0,0,2,1.83c.78,0,1.58-1,2.37-1.56,0-.32,0-.64,0-1C589.56,664.53,588.77,663.65,587.9,663.58ZM185.62,182c-.11-.88-1-1.67-1.48-2.5l-.93,0c-.55.8-1.54,1.63-1.51,2.42a2.85,2.85,0,0,0,1.8,2A1.69,1.69,0,0,0,185.62,182Zm401.22-10.19a1.69,1.69,0,0,0,1.85,2.17c.87-.08,1.66-.95,2.49-1.46l0-1c-.79-.57-1.59-1.58-2.37-1.56A2.87,2.87,0,0,0,586.84,171.81Zm-401.23.09a2.88,2.88,0,0,0-1.92-1.91c-.78-.06-1.63.93-2.44,1.46,0,.32,0,.64,0,1,.8.55,1.56,1.46,2.42,1.57A1.69,1.69,0,0,0,185.61,171.9ZM589,160a1.77,1.77,0,0,0-2.26,1.81,1.84,1.84,0,0,0,1.91,2.22c.83,0,1.63-.82,2.44-1.27,0-.3.08-.6.11-.9C590.51,161.24,589.87,160.24,589,160Zm-405.34,0c-.77-.05-1.62.92-2.44,1.45,0,.32,0,.64,0,1,.8.56,1.56,1.46,2.42,1.58a1.69,1.69,0,0,0,2-2.08A2.91,2.91,0,0,0,183.69,160.05Zm405-15.89c.86-.07,1.66-.94,2.49-1.45l0-1c-.79-.57-1.59-1.58-2.37-1.57a2.9,2.9,0,0,0-2,1.82A1.69,1.69,0,0,0,588.69,144.16Zm-405.62-4.41c-.5.84-1.44,1.72-1.36,2.5a2.82,2.82,0,0,0,1.91,1.9,1.68,1.68,0,0,0,2-2c-.16-.87-1.06-1.61-1.63-2.4Zm405.73-5.53c.86-.12,1.61-1,2.4-1.59,0-.32,0-.64,0-1-.82-.52-1.68-1.5-2.46-1.44a2.93,2.93,0,0,0-1.9,1.93A1.69,1.69,0,0,0,588.8,134.22Zm-.1-23.87a2.91,2.91,0,0,0-1.87,2,1.69,1.69,0,0,0,2,2c.86-.14,1.59-1.07,2.38-1.64l0-1C590.35,111.23,589.47,110.28,588.7,110.35Zm-403.09,2a2.92,2.92,0,0,0-1.85-2c-.77-.08-1.66.87-2.49,1.37,0,.32,0,.64,0,1,.78.58,1.5,1.52,2.36,1.67A1.69,1.69,0,0,0,185.61,112.34ZM586,586.16a2.9,2.9,0,0,0,1.93,1.9c.78,0,1.62-.94,2.43-1.47,0-.32,0-.64,0-1-.81-.54-1.57-1.44-2.44-1.55A1.68,1.68,0,0,0,586,586.16ZM490.15,45.71c.53-.81,1.42-1.58,1.52-2.45a1.67,1.67,0,0,0-2.09-1.91c-.79.2-1.86,1.23-1.89,1.93s1,1.62,1.51,2.43Zm-269.79,659a2.85,2.85,0,0,0,1.86,2c.79.08,1.68-.89,2.52-1.4l0-.9c-.76-.56-1.45-1.42-2.29-1.61A1.66,1.66,0,0,0,220.36,704.72Zm11.48-2.33c-.55.76-1.42,1.46-1.57,2.29a1.69,1.69,0,0,0,2,2.07,2.89,2.89,0,0,0,2-1.87c.06-.78-.93-1.65-1.46-2.48Zm29.72,0c-.52.83-1.38,1.62-1.46,2.48a1.68,1.68,0,0,0,2.14,1.87,2.88,2.88,0,0,0,1.83-2c0-.79-1-1.59-1.55-2.39Zm10.08,0c-.56.79-1.47,1.53-1.6,2.39a1.66,1.66,0,0,0,2,2c.79-.17,1.9-1.17,1.95-1.87s-.9-1.65-1.42-2.47Zm19.74,0c-.52.82-1.38,1.61-1.47,2.47a1.69,1.69,0,0,0,2.14,1.88,2.88,2.88,0,0,0,1.84-2c0-.78-1-1.59-1.55-2.38Zm11.09,0-.9-.07c-.59.73-1.51,1.37-1.71,2.19-.31,1.26.52,2.15,1.86,2.27a1.8,1.8,0,0,0,2.16-2C303.8,704,303,703.24,302.47,702.44Zm9.15.37c-1.24-.17-1.94.83-1.88,2s.93,2.21,2.22,1.92c.83-.18,1.51-1.07,2.26-1.64l0-.9A8.11,8.11,0,0,0,311.62,702.81Zm135.49,1.92a2.83,2.83,0,0,0,1.87,2c.79.07,1.68-.89,2.52-1.4l0-.92c-.76-.55-1.45-1.41-2.29-1.59A1.69,1.69,0,0,0,447.11,704.73ZM459,702.81a2.91,2.91,0,0,0-1.95,1.89c-.07.77.9,1.64,1.42,2.46l1,0c.56-.8,1.46-1.54,1.6-2.41A1.65,1.65,0,0,0,459,702.81Zm29.86,0a1.68,1.68,0,0,0-2,2,2.83,2.83,0,0,0,2,1.88c.8,0,1.63-1,2.45-1.54l0-.91C490.47,703.75,489.74,702.93,488.89,702.8Zm10.33-.41-.89,0c-.54.77-1.43,1.49-1.55,2.32a1.8,1.8,0,0,0,2.05,2.1c1.36,0,2.22-.9,2-2.17C500.67,703.84,499.78,703.14,499.22,702.39Zm9.95,0-.9,0c-.54.77-1.43,1.49-1.55,2.32a1.8,1.8,0,0,0,2,2.1c1.35-.05,2.22-.89,2-2.17C510.61,703.84,509.72,703.14,509.17,702.39Zm19.37.47a2.83,2.83,0,0,0-1.93,1.89,1.67,1.67,0,0,0,2,2c.88-.16,1.63-1,2.43-1.58l0-.93C530.19,703.75,529.32,702.79,528.54,702.86Zm10.56-.45-1,0c-.56.8-1.57,1.61-1.55,2.4a2.9,2.9,0,0,0,1.85,2,1.68,1.68,0,0,0,2.13-1.88C540.48,704,539.62,703.23,539.1,702.41ZM183.77,203.8a1.71,1.71,0,0,0,1.84-2.19,2.93,2.93,0,0,0-2-1.81c-.78,0-1.58,1-2.36,1.59l0,1C182.1,202.87,182.9,203.73,183.77,203.8ZM232.58,45.7h.95c.55-.81,1.55-1.65,1.51-2.44s-1.14-1.75-1.93-1.92a1.69,1.69,0,0,0-2,2C231.19,44.21,232.05,44.93,232.58,45.7ZM183,504.56c-.87.07-1.66.95-2.49,1.47l0,1c.79.56,1.6,1.57,2.38,1.55a2.9,2.9,0,0,0,2-1.83A1.69,1.69,0,0,0,183,504.56ZM242.42,45.68l1,0c.58-.78,1.61-1.57,1.6-2.36a2.87,2.87,0,0,0-1.8-2A1.69,1.69,0,0,0,241,43.18C241.08,44,241.93,44.85,242.42,45.68ZM588.69,179.93a2.92,2.92,0,0,0-1.86,2,1.69,1.69,0,0,0,2,2c.86-.14,1.59-1.07,2.37-1.65l0-1C590.34,180.8,589.47,179.85,588.69,179.93ZM184.81,665.67a1.68,1.68,0,0,0-1.94-2.09c-.86.11-1.62,1-2.42,1.56v1c.81.53,1.66,1.51,2.44,1.46A2.91,2.91,0,0,0,184.81,665.67ZM292.35,45.73l.9,0c.52-.78,1.39-1.53,1.49-2.36a1.8,1.8,0,0,0-2.1-2c-1.34.08-2.2.94-1.93,2.21C290.88,44.31,291.78,45,292.35,45.73Zm20.77,0c.52-.78,1.39-1.52,1.49-2.35a1.67,1.67,0,0,0-2.06-2c-.79.2-1.88,1.24-1.91,1.95s1,1.61,1.54,2.42Zm8.93,0H323c.55-.82,1.55-1.67,1.5-2.46s-1.15-1.73-1.95-1.9a1.69,1.69,0,0,0-2,2C320.65,44.22,321.51,44.94,322.05,45.7Zm148.2,0c.54-.76,1.41-1.47,1.55-2.3a1.69,1.69,0,0,0-2-2.06,2.92,2.92,0,0,0-2,1.89c-.05.79.95,1.64,1.49,2.47Zm48.84,0,1,0c.51-.83,1.46-1.7,1.39-2.47a2.92,2.92,0,0,0-2-1.87,1.66,1.66,0,0,0-2,2C517.59,44.19,518.52,44.93,519.09,45.72Zm9.79,0,.94,0c.56-.8,1.59-1.62,1.55-2.4a2.92,2.92,0,0,0-1.89-2,1.68,1.68,0,0,0-2.08,2C527.5,44.16,528.36,44.9,528.88,45.69Zm58,106.33a1.69,1.69,0,0,0,1.95,2.08c.86-.11,1.62-1,2.42-1.57v-1c-.82-.53-1.67-1.5-2.45-1.45A2.91,2.91,0,0,0,586.83,152Zm-403.22,2.09a1.69,1.69,0,0,0,2-2,2.91,2.91,0,0,0-1.87-2c-.77-.08-1.65.88-2.48,1.38l0,1C182,153,182.75,154,183.61,154.11ZM549.76,45.71c.54-.76,1.41-1.47,1.55-2.3a1.69,1.69,0,0,0-2-2.06,2.92,2.92,0,0,0-2,1.89c-.05.79.95,1.64,1.49,2.47ZM184.81,457a1.68,1.68,0,0,0-1.94-2.09c-.86.11-1.62,1-2.42,1.57v1c.82.54,1.66,1.52,2.44,1.46A2.87,2.87,0,0,0,184.81,457Zm.8-324.81a2.91,2.91,0,0,0-1.92-1.9c-.78-.06-1.63.92-2.44,1.44v1c.8.55,1.56,1.46,2.42,1.58A1.69,1.69,0,0,0,185.61,132.14Zm401.23-10a1.69,1.69,0,0,0,1.85,2.17c.87-.07,1.66-.94,2.49-1.45l0-1c-.79-.57-1.59-1.59-2.37-1.57A2.9,2.9,0,0,0,586.84,122.11Zm-401.23,0a2.93,2.93,0,0,0-2-1.81c-.78,0-1.58,1-2.36,1.58l0,1c.84.5,1.64,1.37,2.51,1.44A1.71,1.71,0,0,0,185.61,122.1ZM586,486.72a2.91,2.91,0,0,0,1.88,2c.78.06,1.64-.9,2.47-1.42l0-1c-.8-.57-1.54-1.49-2.4-1.62A1.68,1.68,0,0,0,586,486.72Zm1.94,7.9A1.68,1.68,0,0,0,586,496.7a2.91,2.91,0,0,0,1.92,1.91c.78.05,1.62-.93,2.44-1.46v-1C589.6,495.63,588.84,494.73,588,494.62Zm-1.15-392.29a1.69,1.69,0,0,0,1.95,2.08c.86-.11,1.62-1,2.42-1.58v-1c-.82-.53-1.67-1.51-2.45-1.45A2.88,2.88,0,0,0,586.83,102.33Zm2,97.47a2.87,2.87,0,0,0-2,1.81,1.7,1.7,0,0,0,1.84,2.19c.86-.07,1.67-.94,2.5-1.44l0-1C590.43,200.81,589.63,199.79,588.86,199.8ZM182.27,534c-.49.84-1.43,1.72-1.36,2.52a2.83,2.83,0,0,0,1.92,1.88,1.67,1.67,0,0,0,2-2c-.18-.88-1.07-1.62-1.64-2.42ZM586,516.62a2.91,2.91,0,0,0,2,1.87c.78,0,1.61-1,2.41-1.5v-1c-.82-.54-1.59-1.43-2.45-1.52A1.69,1.69,0,0,0,586,516.62Zm0,49.62a2.91,2.91,0,0,0,1.89,2c.77.06,1.64-.91,2.46-1.42,0-.32,0-.65,0-1-.79-.56-1.53-1.48-2.39-1.61A1.69,1.69,0,0,0,586,566.24Zm4.34,9.32c-.83-.5-1.64-1.37-2.5-1.43a1.7,1.7,0,0,0-1.84,2.19,2.91,2.91,0,0,0,2,1.8c.78,0,1.57-1,2.36-1.59C590.41,576.21,590.39,575.89,590.38,575.56ZM242.76,702.42l-.89,0c-.58.74-1.48,1.41-1.65,2.23-.27,1.27.59,2.14,1.93,2.22a1.8,1.8,0,0,0,2.1-2.05C244.16,704,243.29,703.2,242.76,702.42Zm10,0-.93,0c-.57.81-1.6,1.63-1.57,2.4a3,3,0,0,0,1.89,2,1.68,1.68,0,0,0,2.09-2C254.09,704,253.23,703.21,252.71,702.42Zm-69.8-118.35c-.87.09-1.64,1-2.46,1.52v1c.81.54,1.64,1.54,2.42,1.5a2.91,2.91,0,0,0,1.95-1.87A1.68,1.68,0,0,0,182.91,584.07Zm403.13,12a2.92,2.92,0,0,0,1.88,2c.78.07,1.64-.9,2.47-1.41,0-.32,0-.65,0-1-.79-.57-1.53-1.49-2.39-1.62A1.69,1.69,0,0,0,586,596.05ZM281.51,702.4c-.54.81-1.43,1.57-1.54,2.43a1.68,1.68,0,0,0,2.08,1.93,2.89,2.89,0,0,0,1.9-1.92c0-.78-.94-1.62-1.48-2.43Zm-101-85.94c.83.52,1.69,1.48,2.46,1.41a2.87,2.87,0,0,0,1.89-1.94,1.68,1.68,0,0,0-2-2c-.86.13-1.61,1-2.4,1.62C180.45,615.82,180.45,616.14,180.46,616.46Zm3.24-323.21a1.69,1.69,0,0,0,1.91-2.12,2.9,2.9,0,0,0-2-1.87c-.78,0-1.6.95-2.41,1.49,0,.33,0,.65,0,1C182.06,292.26,182.84,293.15,183.7,293.25Zm405.07-9.94c.87-.11,1.63-1,2.43-1.57v-1c-.82-.54-1.66-1.52-2.44-1.47a2.92,2.92,0,0,0-1.93,1.91A1.69,1.69,0,0,0,588.77,283.31ZM321.2,702.41c-.52.78-1.37,1.52-1.48,2.35a1.7,1.7,0,0,0,2.07,2,2.92,2.92,0,0,0,1.91-2c0-.79-1-1.61-1.56-2.42Zm-140-420.66c.81.55,1.57,1.45,2.44,1.56a1.69,1.69,0,0,0,1.93-2.1,2.89,2.89,0,0,0-1.93-1.89c-.78-.05-1.62.93-2.43,1.46C181.24,281.11,181.24,281.43,181.24,281.75Zm407.54-18.32c.86-.11,1.62-1,2.42-1.58,0-.32,0-.64,0-1-.81-.53-1.66-1.51-2.44-1.45a2.91,2.91,0,0,0-1.92,1.91A1.69,1.69,0,0,0,588.78,263.43Zm-119.3,439h-1c-.55.82-1.55,1.67-1.5,2.46s1.16,1.73,2,1.9a1.69,1.69,0,0,0,2-2C470.87,703.89,470,703.17,469.48,702.4Zm7.44,2.26a1.67,1.67,0,0,0,1.89,2.11c.89-.12,1.68-1,2.51-1.47,0-.31,0-.62,0-.93-.8-.55-1.62-1.55-2.4-1.52A2.86,2.86,0,0,0,476.92,704.66Zm111.89-471c.86-.12,1.6-1,2.4-1.61,0-.32,0-.64,0-1-.83-.52-1.69-1.49-2.47-1.42a2.91,2.91,0,0,0-1.89,1.94A1.69,1.69,0,0,0,588.81,233.61Zm-405.06,0a1.68,1.68,0,0,0,1.85-2.16,2.9,2.9,0,0,0-2-1.83c-.78,0-1.58,1-2.38,1.56l0,1C182.09,232.66,182.88,233.54,183.75,233.61Zm1.85-22a2.86,2.86,0,0,0-2-1.83c-.78,0-1.59,1-2.39,1.53l0,1c.83.52,1.62,1.4,2.48,1.49A1.69,1.69,0,0,0,185.6,211.58ZM519.09,702.39l-1,0c-.52.82-1.48,1.69-1.42,2.47a2.91,2.91,0,0,0,1.94,1.87,1.67,1.67,0,0,0,2-2C520.56,703.92,519.65,703.18,519.09,702.39ZM586,645.84a2.93,2.93,0,0,0,2,1.86c.77,0,1.59-1,2.39-1.54,0-.32,0-.64,0-1-.82-.52-1.6-1.4-2.46-1.49A1.69,1.69,0,0,0,586,645.84Zm0,9.81a2.92,2.92,0,0,0,1.85,2c.77.08,1.65-.86,2.49-1.36,0-.32,0-.64,0-1-.78-.58-1.5-1.52-2.36-1.66A1.69,1.69,0,0,0,586,655.65Zm-37.12,46.74-.95,0c-.52.84-1.5,1.71-1.43,2.5a2.88,2.88,0,0,0,2,1.84,1.69,1.69,0,0,0,2-2.09C550.36,703.83,549.48,703.14,548.92,702.39ZM339.16,310.27a107.37,107.37,0,0,0-11.28,2.93,5.5,5.5,0,0,0-4,3.6c-.44,1.46,0,2.45,1.47,2.78,10.19-5.72,21.17-7.18,32.6-6.49l.06-.81a17.71,17.71,0,0,0-2-.92A33.6,33.6,0,0,0,339.16,310.27Zm-6.37,19.49c-1.09-5.35-1.12-5.41-2.77-6.59.21,4.06,1,8.16-3.13,11a6.09,6.09,0,0,0,2.59.37c2.21-.41,4.38-1,6.59-1.43a38.16,38.16,0,0,0,18-8.78,20.49,20.49,0,0,0,1.89-2.05l-.57-.81A61.74,61.74,0,0,1,332.79,329.76Zm-1.93,22.31-.5.42c.21,1,.41,2,.66,3.19L328.85,357c-2.5-.94-4.76-2.79-7.31-.15,2.49.82,4.54,1.83,6.68,2.06a5.59,5.59,0,0,0,3.95-1.58c.66-.65.6-2.31.4-3.45C332.45,353.21,331.46,352.67,330.86,352.07Zm58.82-70.92a2.18,2.18,0,0,0-2.2-2.33c-1.91,0-3.28,1.22-3.18,2.74a2.34,2.34,0,0,0,2.63,2.34A2.68,2.68,0,0,0,389.68,281.15Zm5.71-171.23c.64-2.22,1.29-4,1.68-5.89,1.14-5.35.85-10.56-2.33-15.23a6.67,6.67,0,0,0-3.1-2.58,31.43,31.43,0,0,0-7-1.24,9,9,0,0,0-8.17,4,21.18,21.18,0,0,0-4,15.38c1.07,10,11.53,14.8,19.42,9.4,1.05.87,1.95,1.64,2.87,2.38s2.15,1.23,3.22.23.73-2.17-.06-3.21C397,112,396.09,110.79,395.39,109.92Zm-3-4a11.19,11.19,0,0,0-2.29-2.08,10.22,10.22,0,0,0-2.83-.52c0,1-.33,2.17,0,3a18.69,18.69,0,0,0,2.29,3.39c-2.57,2.89-6.47,2.89-9.4.33-5.57-4.87-4.54-12.25-1.54-18.24a7.29,7.29,0,0,1,5.66-4.21,12.85,12.85,0,0,1,2.23,0,29.41,29.41,0,0,1,3.41,2,8.51,8.51,0,0,1,2.31,2.56C394.46,96.6,393.81,101.12,392.37,105.92Z"/></svg>