<svg xmlns="http://www.w3.org/2000/svg" viewBox="0 0 750 750"><path d="M606.18,51.29c0-1.19,0-2.38,0-3.57C606.06,34.43,596.56,25,583.28,25H187.35c-13.25,0-22.76,9.52-22.76,22.8V375q0,163.79,0,327.56a23.07,23.07,0,0,0,.6,5.5c2.61,10.62,11.25,17,22.91,17H583.67c8.11-.18,14.55-3.47,19.05-10.32,2.81-4.27,3.48-9,3.47-14Q606.17,376,606.18,51.29ZM601.9,701.78c0,9.83-5.74,17-14.94,18.68a21.3,21.3,0,0,1-3.75.25H187.46c-11,0-18.59-7.56-18.59-18.59V47.57c0-9,5.41-16,13.91-17.9a17.85,17.85,0,0,1,3.94-.37q198.66,0,397.34,0A17.65,17.65,0,0,1,601.9,46.83c0,.93,0,1.86,0,2.78ZM372,427.83c-.58,5.93,1.37,11.53,2.94,17.12,1.37,4.89,3.1,9.68,8,11.78.58,2.24.91,4.22,1.59,6.07,3.64,9.95,9.87,17.75,19.3,22.83.71.39,1.62,1,1.81,1.66.84,2.9,1.9,5.84,2,8.81.25,5.88-.07,11.78-.14,17.68-.11,9.13-3.32,16.37-11.77,21-5.47,3-6.63,8-3.84,13.6a20.09,20.09,0,0,0,8.07,8.58c13.69,7.92,27.46,7.89,41-.2A18.25,18.25,0,0,0,449.76,546c1.34-4.7.06-8.12-3.95-10.85-.83-.56-1.64-1.13-2.51-1.61-7.06-3.89-9.49-10.45-9.93-17.91-.37-6.34-.45-12.72-.24-19.07.09-3,1.08-5.93,1.85-8.84a4.55,4.55,0,0,1,1.76-2c3.36-2.55,7.18-4.65,10.08-7.64a37.89,37.89,0,0,0,10.9-21.39c4.37-1.76,6.27-5.62,7.53-9.83a91.58,91.58,0,0,0,3.29-13.07c.94-6.51.76-13-4.83-18.57,2-4.95,4.05-10.18,6.35-15.3,2.58-5.75,1.46-9-4.44-11.21a53.14,53.14,0,0,0-8.38-2.42c-19.6-3.83-39.36-4-59.18-2.18-1.76.15-3.52.36-5.7.6a50.41,50.41,0,0,1,0-5.52A46.11,46.11,0,0,1,397,363.1c2.47-4.76,4.93-9.53,7.22-14.38,3.73-7.89,7.87-15.63,9.5-24.34.75-4,1.42-8.09,2-12.15,1.9-13.32-.16-25.84-7.68-37.24a47.39,47.39,0,0,0-10.61-12.08c.35-1.19.4-2.6,1.1-3.51,5.59-7.34,12.3-12.95,22-13.68,7.15-.53,12.36,2.88,14.57,9.7.61,1.91.9,3.84-.28,5.83a17.49,17.49,0,0,0-1.68-1.12,4.3,4.3,0,0,0-4.86.35,3.44,3.44,0,0,0-1,4c.54,1.72,2,2.39,3.62,2.71,4.17.82,7.39-2,8.49-6.94,1.26-5.63-4.18-16.08-12.51-17.44s-15.83,1-22.37,6.31c-1.05.85-2.05,1.75-3.07,2.62,2.59-5,6.81-7.94,11.82-10,3.61-1.49,7.21-3,10.66-4.85a14.69,14.69,0,0,0,4.67-3.87c2-2.64,1-5.92-2.06-7.23a10.63,10.63,0,0,0-4.22-.87c-3.22.06-6.42.42-9.59.65,1.65-1.33,3.41-2.73,5.13-4.16A31.79,31.79,0,0,0,426,212c1-1.95,1.92-3.88.63-6s-3.41-2.3-5.6-2.22a10.74,10.74,0,0,0-1.39.15,24.76,24.76,0,0,0-12.74,6c-.9.8-1.79,1.61-3,2.7a6.9,6.9,0,0,1,.32-.95A48.26,48.26,0,0,1,421,194.52a3.86,3.86,0,0,1,3.15-.22c2.43,1.14,4.66,2.71,7.05,4a17.2,17.2,0,0,0,5,2.05,3.66,3.66,0,0,0,3.09-1.45,4.55,4.55,0,0,0-.13-3.68,9.07,9.07,0,0,0-5.6-4.47l-3.05-.92a15.1,15.1,0,0,1,12,1.29,41.4,41.4,0,0,0,6.91,2.9,3.1,3.1,0,0,0,2.68-1,2.77,2.77,0,0,0-.07-2.69,25.78,25.78,0,0,0-4.62-3.83,16.78,16.78,0,0,0-3.66-1.3,33.63,33.63,0,0,1,15.34-1c13.06,2.25,24.35,7.21,30.51,20.07,1.69,3.51,2.86,7,1.78,10.87a4.85,4.85,0,0,1-3.36,3.53c-.52-.25-1.1-.54-1.69-.81A4.82,4.82,0,0,0,480,220.3c-1,2.42.29,5.85,2.64,6.49,3.39.91,6.67.74,9.45-1.91,3.74-3.56,4.81-8.06,4.31-12.9a31.45,31.45,0,0,0-11.91-21.35A46.66,46.66,0,0,0,449,180.29c-3.26.35-6.45,1.25-9,1.76a25.21,25.21,0,0,0,2.76-3.28,11.34,11.34,0,0,0,1.73-4.28c.28-2.17-1.17-3.26-3.26-2.49a8.29,8.29,0,0,0-3.45,2.45c-2.34,2.87-4.42,6-6.67,8.9a11.85,11.85,0,0,1-5.36,4.2,11.6,11.6,0,0,1,1.08-1.94c1.92-3.17,3.3-6.49,3.1-10.3-.09-1.65-.6-3-2.31-3.56a3.13,3.13,0,0,0-3.87,1.68,34.59,34.59,0,0,0-2.78,6.73,59,59,0,0,0-1.53,8.59c-.37,3.16-2.52,4.6-5.17,6.08.28-.91.51-1.52.66-2.16.94-4.14,1.41-8.26-.92-12.13-.91-1.52-2.07-3-4.1-2.45s-2.4,2.29-2.52,4.1a5.93,5.93,0,0,0,0,1.19c.48,3.67,1,7.34,1.47,11,.54,3.83-.11,7.18-3.26,9.36,0-1.83.09-3.8,0-5.77a10.54,10.54,0,0,0-2.65-6.9,3.55,3.55,0,0,0-4.19-.83,3,3,0,0,0-2,3.3,16.09,16.09,0,0,0,1.1,5c3.5,7.58,2.1,14.8-1.36,22.4a22.3,22.3,0,0,0-.42-2.9,53.62,53.62,0,0,0-2.61-8.26,7.72,7.72,0,0,0-3.74-3.28c-2.73-1.21-4.56.22-4.52,3.19.05,3.44,1.77,6.19,3.9,8.69,3.78,4.43,5.63,9.2,4.05,15.17-1.66,6.27-1.59,12.72-.85,19.15.3,2.57.79,5.12,1.21,7.79-7.18-2.69-12.8-8.52-20.65-8.83a72.41,72.41,0,0,0-15.37-18.44c-9.72-8.51-20.57-14.79-33.8-15.63-6.39-.4-12.67.15-16.94,6.09-.62.13-1.26.27-1.91.43-6.49,1.57-12.9,3.1-18.29,7.59-13.76,11.5-23.59,25.44-28,43.35-3.2,1.93-5.15,5.2-6.16,9s-2.24,8-.5,11.87a41.6,41.6,0,0,0,6.09,9.67A57.39,57.39,0,0,0,274.57,319c6.12,3.29,12.32,6.41,18.48,9.62a1.11,1.11,0,0,1,.36.26c-2.28,15.5-.1,29.95,7.44,43.65a23.94,23.94,0,0,0-2.72,3.76,6.83,6.83,0,0,0-.83,4.12c.88,3.54,2.17,7,3.34,10.46,1.59,4.69,3.55,9.29,4.75,14.09,2.19,8.69.77,16.71-5.75,23.35q-2.22,2.26-4.64,4.32a24.57,24.57,0,0,0-7.65,10.69c-.36,1-.37,2.89.26,3.41s2.43.54,3.63.32a12.5,12.5,0,0,0,3-1.47c6.3-3.08,12.4-6.68,18.94-9.08,8.11-3,16.1-6,23.62-10.3,8.13-4.6,16.41-8.92,25.56-11.24,4.27-1.09,8.56-1.87,12.9-.41a6.77,6.77,0,0,1,1.45.85c-1.14,1.63-2.42,2.85-2.91,4.33A37.39,37.39,0,0,0,372,427.83Zm78.09-236.49-.3.58-7.9-4.27C445.05,188.1,448.18,188.55,450.11,191.34Zm-7.66-17.62c-.36,3.52-2.7,4.93-4.87,6.46C439.06,178.12,439.45,175.24,442.45,173.72Zm-5.34,24.35c-4-.9-6.19-4.27-10-5.82C431.27,191.8,437.57,194.44,437.11,198.07ZM426.76,173.9c1.25,2.83-.17,7.95-2.9,11C424.07,181,424.32,177.37,426.76,173.9Zm-16,6.65c2.58,2.31,3.08,5.82,1.64,10.82C411.16,189.25,410.1,182.51,410.73,180.55Zm-9.64,50.38,2.26-4.07,1.62.59-3.47,3.7Zm3.86-6.38,2.82-3.41,3.65,1-3.51,2.93Zm.05,17.6c.91-1.11,1.12-3.41,3.77-2.4Zm5-5.13,2-1.25,2.11,1.35C412.65,238.29,412.61,238.29,410,237Zm5.4-3,2.38-1,2.05,2C417.94,236.4,416.86,234.46,415.36,234Zm10.78-2.59-2.8,2.36L421,232l4.88-1.07Zm-3.28-2.78a41.18,41.18,0,0,0-18.3,7.57C409.52,230.94,415.54,228.19,422.86,228.63Zm-8.36-8.94-4.92-.62,2.41-2.58,4.56,1.58Zm4.86-4.21-5.27-1.07,2.29-2,4.83.88Zm4.45-7.25.38.3-1,2h-3.23l-.15-.41Zm-24.67-15.37c3.14-.66,4.57,3.15,3.82,9Zm20.78,14.36c-12.55,8.34-13,8.8-22.23,21.89C402.25,218.94,408.24,210.19,419.92,207.22ZM402.51,479.69,398,475.9l.28-.45,4.06,1.91c.18.69.35,1.36.53,2Zm2.53-1.5,2.49.71,2.3.65c.36,1.25.71,2.44,1.11,3.82C407,482.73,405.87,481.77,405,478.19Zm26,9.78c-3,9.34-1.23,18.64-2.51,27.79-3.19,2.63-12.45,2.72-16.28.07-1.27-9.18.45-18.44-2.47-27.78A28.62,28.62,0,0,0,431.08,488Zm-18.93-7.52h16.52c-.74,1.32-1.51,2.7-2.37,4.22H414.58C413.71,483.17,412.92,481.79,412.15,480.45Zm-16,59.33c.64,1.81,1.27,3.65,2,5.85L396.6,547C393.63,544.94,393.48,541.84,396.14,539.78Zm6.09,13-4.7-3.65,2-2.32,4.66,3.06C403.6,550.76,403,551.61,402.23,552.78Zm8.37,3.36L404.53,554c.59-1.19,1.07-2.15,1.59-3.21l5.49,1.61C411.3,553.51,411,554.65,410.6,556.14Zm2.34.35c.26-1.3.47-2.38.7-3.52h13.57c.22,1.09.44,2.23.7,3.5A31.32,31.32,0,0,1,412.94,556.49Zm17.39-.38c-.42-1.33-.77-2.43-1.16-3.68l5.54-1.71,1.62,3.22Zm8.33-3.28-2-2.94,4.64-3.07,2,2.23Zm5.23-10.25a25.24,25.24,0,0,0,.67-2.88c2.76,2,2.74,4.53-.13,7.42l-1.91-1.62C443,544.46,443.54,543.55,443.89,542.58Zm-4.49-6.45a4.67,4.67,0,0,1,.86,7.08,11.18,11.18,0,0,1-3.68,3.22,36.81,36.81,0,0,1-32.39,0c-3.37-1.57-5.13-4.64-4.65-7.57a3.49,3.49,0,0,1,.75-1.77c2.47-2.47,5.46-4.55,7.41-7.37s2.84-6.31,4.24-9.6a19.07,19.07,0,0,0,17.29-.16,3.16,3.16,0,0,1,.33.7C430.58,527.25,434.14,532.19,439.4,536.13Zm-9.46-52.73c.36-1.3.7-2.53,1.06-3.85l4.78-1.34C435.08,481.66,434,482.64,429.94,483.4Zm8.4-3.7-.38-.33c.15-.62.3-1.23.49-2l4.51-2.15.24.33ZM437,474.55a63.24,63.24,0,0,1-13.06,3.2,28.16,28.16,0,0,1-10.19-.48,68.83,68.83,0,0,1-14.38-4.94,25,25,0,0,1-12.81-15.25c4.29-1.54,4.43-5.3,4.9-8.93,1.21-9.43.14-18.5-4.14-27.06-1.3-2.6-2.88-5-6.11-5.14-.69-2.7-1.33-5.24-2-7.83a132.07,132.07,0,0,0,82.57,0c-.35,1.24-.74,2.53-1.07,3.84s-.57,2.56-.87,3.95c-3.32.26-4.95,2.65-6.28,5.33-4.16,8.39-5.24,17.27-4.13,26.48.13,1.06.26,2.11.42,3.15.41,2.77,1.41,5.13,4.62,6.13A27.56,27.56,0,0,1,437,474.55Zm-50.67-70.26L396.53,407l1,3.1-10.07-2.4C387,406.46,386.7,405.49,386.28,404.29Zm13.3,3.33a3.21,3.21,0,0,1,.71-.15l7.42.49c.21,1,.41,1.88.69,3.19l-7.79-.86C400.25,409.35,399.93,408.51,399.58,407.62Zm10.33.52h21c-.4,1.19-.77,2.28-1.24,3.64H411.28Zm22.54,3.06c.25-1.23.45-2.17.67-3.25l8.19-.5c-.39,1.07-.69,1.85-1,2.8Zm10.94-1.06c.38-1.35.62-2.19.88-3.1l10.33-2.77-1.2,3.43ZM459,450.9l-2.27-11.41.53-.14c.84,2.89,1.69,5.78,2.53,8.67l.51.15c2-5.48,3-11.31,4.92-17.11C466.18,434.81,461.72,449.2,459,450.9Zm3.63-22c-1.41,1.87-1.59,4.68-2.27,7.09a14.48,14.48,0,0,1-1,3.17,18.75,18.75,0,0,0-.63-2.22c-.48-1.17-.63-3-2.35-2.73s-1.51,2-1.4,3.24c.38,4.27.95,8.53,1.46,12.79.07.52.2,1,.36,1.82l-2.1.25c-.47-2.47-1-4.72-1.3-7-.87-7-.36-13.85,2.49-20.44a12.11,12.11,0,0,1,5.34-6.38,9.37,9.37,0,0,1,1.84,2.27C464.18,423.47,464.82,426,462.64,428.87Zm-6.27-22.48.79-2.59,8.42-3.81C464.8,403.46,462,405.32,456.37,406.39ZM395.52,389a177.12,177.12,0,0,1,22.18-1.65c13.65-.1,27.28.73,40.64,3.88a48.39,48.39,0,0,1,6.72,2.38,14.58,14.58,0,0,1,2.28,1.45l0,.71c-1.52.74-3,1.57-4.57,2.2-7.9,3.13-16.23,4.25-24.59,5.31-16.74,2.14-33.32,1-49.78-2.25A90.49,90.49,0,0,1,377,397.52a31.55,31.55,0,0,1-4.19-2.26c1.93-1,3.21-2.08,4.67-2.43A174.27,174.27,0,0,1,395.52,389Zm-7.88-180.45c3.39.07,5.37,3.32,6.1,9.9C391.13,215.31,387.85,212.91,387.64,208.51ZM286.55,237.19l3.22,4.87L280,243.83ZM255,292.05c.39-6.33,2.08-11.66,7-15.3a14.4,14.4,0,0,1,5.53-2c11.29-2.37,22.27-.59,33,3a126.4,126.4,0,0,1,40.63,22c.62.5,1.19,1.06,1.78,1.59a4.24,4.24,0,0,0,2,1.16,22.47,22.47,0,0,0-1.29-1.89,69.64,69.64,0,0,0-19.72-16.14c-10.56-6-21.54-10.83-33.61-12.75-9.08-1.45-18.15-1.69-27.24,1.63.26-1,.4-1.66.64-2.32,2.35-6.35,4.82-12.66,8.91-18.11a12.42,12.42,0,0,1,4.46-3.69,30.93,30.93,0,0,1,7.83-2.14c-1.3.94-2.66,1.82-3.88,2.85a6.57,6.57,0,0,0-1.69,2.16,1.72,1.72,0,0,0,1.83,2.58,5.77,5.77,0,0,0,2.57-.95c2.44-1.7,4.89-3.42,7.16-5.34a6.35,6.35,0,0,1,5.44-1.75,48.3,48.3,0,0,1,7.74,1.91,36.84,36.84,0,0,0-5,2,17.47,17.47,0,0,0-4.14,3.27,2.69,2.69,0,0,0-.2,2.54,2.74,2.74,0,0,0,2.33.94,12.89,12.89,0,0,0,4.05-1.47c3-1.66,5.93-3.48,9.22-5.44l9.91,4.31c0,.12,0,.25-.05.38a26.6,26.6,0,0,0-3.7.54,18.33,18.33,0,0,0-4.75,1.85c-.73.46-.91,1.8-1.34,2.75.84.38,1.78,1.21,2.51,1.06,3.79-.83,7.54-1.89,11.29-2.9a6.59,6.59,0,0,0,1.25-.63l8.79,6.52-.15.41a22.73,22.73,0,0,0-3.09,0,8.7,8.7,0,0,0-3.4.91c-.81.52-1.74,1.75-1.63,2.53a3,3,0,0,0,2.37,1.72c3.16-.08,6.31-.52,9.46-.85a12.71,12.71,0,0,0,1.63-.42l7.06,7.61a37.75,37.75,0,0,0-5.86.09,3.77,3.77,0,0,0-2.59,1.88c-.51,1.32.71,2.27,1.93,2.5,3,.56,6,.92,9,1.35.65.09,1.3.14,2.09.23l8.22,11.38.7-.3a5.28,5.28,0,0,0,0-1.95c-1.17-2.64-2.11-5.49-3.81-7.76-2.06-2.74-2.59-5.63-2.67-8.85a23.79,23.79,0,0,0-.67-5.46c-.39-1.47-1.31-3-3.24-2.52s-1.81,2.18-1.67,3.74c0,.52.14,1,.21,1.51l-6.38-5.88c-.22-2.76-.27-5.15-.64-7.48a13,13,0,0,0-1.49-4.07c-.34-.6-1.58-1.36-1.93-1.16a2.78,2.78,0,0,0-1.32,2.08c.09,2,.54,4,.89,6.37l-8.88-6.62c-1-3.6-1.92-6.84-2.93-10a6.16,6.16,0,0,0-1.49-2.53,2,2,0,0,0-3.6,1.32,20.2,20.2,0,0,0,.91,4.42c.26.93.68,1.81,1.12,3l-11.1-5c-1-2.47-1.95-4.94-3.08-7.31a8.66,8.66,0,0,0-2.34-3.14,3.69,3.69,0,0,0-3-.54,2.06,2.06,0,0,0-.92,3c.82,1.64,1.89,3.16,2.86,4.73.23.38.48.74.76,1.17l-10.82-1.9-4.58-8a30.73,30.73,0,0,1,14.71-6.5A43.33,43.33,0,0,1,332.17,233c13.75,7.48,25.11,17.74,32.91,31.44,3.28,5.76,5.51,12.13,8.22,18.22a2.14,2.14,0,0,0,1.07,1.14,8,8,0,0,0,.21-2.11A54,54,0,0,0,368.16,263a85.22,85.22,0,0,0-37.59-35.12c-5.59-2.72-11.62-4-17.87-5.1a47.16,47.16,0,0,1,4.67-.84c9.62-.78,18.39,2.16,26.5,6.91,17.14,10,27.66,24.92,32.28,44.26a80.88,80.88,0,0,1,2.14,26.58c-1,10.35-2.41,20.68-6.66,30.32-1.76,4-4,7.67-8.37,9.36a9.18,9.18,0,0,1-9.82-1.55c-5.91-4.8-7-12.82-4.18-19.67l2.23,2.81-.52.1c0,3.13-.13,6.27.07,9.39a7.38,7.38,0,0,0,1.49,3.4c1.28,1.84,3,3,5.41,2.55a5.33,5.33,0,0,0,4.26-4.24,28.93,28.93,0,0,0,.42-4.1c4.41,0,8.05-1.47,8.57-6.76.31-3.2-1.51-5.26-6.11-7.09a19.78,19.78,0,0,0,1.33-3c.48-1.89.77-3.88-.89-5.38s-3.7-1.42-5.62-.69c-3.24,1.22-5.12,3.86-6.52,6.87-.53,1.14-.89,2.35-1.35,3.6-3.29-3.08-6.32-6.23-9.66-9-15.94-13.17-34-21.65-54.67-24-7.29-.82-14.53-.95-21.59,1.61C261.82,285.78,258,288,255,292.05Zm101,24.21c1-6,4.17-9.32,7.45-8.16C364.09,311,361.54,313.82,356,316.26Zm7.59,1.52c1.92,0,3.73.61,4.17,2.6a4.47,4.47,0,0,1-1,3.31c-1,1.25-4.29,1.37-5.54.46-1.55-1.11-3-2.32-4.73-3.62A10.23,10.23,0,0,1,363.56,317.78ZM358.64,330c.13.91-.71,2-1.12,3-2.82-1.34-3.63-4.06-3.16-9.48A9.32,9.32,0,0,1,358.64,330ZM332.2,321.8c-11.67-3.7-23.35-7.4-34.87-11.52A74.59,74.59,0,0,1,276,298.94a35.23,35.23,0,0,1-6.15-6.68c-2.1-2.82-1.18-5.16,2.29-5.47a77.64,77.64,0,0,1,14-.25c21.37,2,39.67,11.21,56.05,24.65,1.07.88,2.05,1.88,3.05,2.85.57.55,1.09,1.14,1.56,1.64-1.11,3-2.11,5.8-3.22,8.82C339.75,323.6,335.89,323,332.2,321.8Zm10,5.67-2.27,5.43h-2.77l1.95-6.16Zm-29.75-7.79,5.16,1.56c-1.53,3-3,5.85-4.58,8.95l-5.35-1.32Zm-6.85,8.7-4.92-1.6c1.86-3.08,3.58-5.94,5.4-9l4.69,1.37Zm13.53-6.53,4.95,1.39-4,8.37-4.93-.95Zm6.69,1.77,4.68,1.46c-1.1,2.58-2.12,5-3.23,7.61l-4.9-.74C323.52,329.09,324.62,326.45,325.79,323.62Zm6.48,1.91,4.78.81c-.88,2.3-1.67,4.38-2.49,6.57h-4.9C330.53,330.44,331.37,328.07,332.27,325.53Zm-66.81-37.41c-.09,1.32-.13,1.94-.17,2.5L257.91,294l-.38-.6Zm-8.41,8.07,8.26-4.27,2,3.8c-2.72,1.87-5.28,3.61-8.14,5.56Zm3.26,6.15L268,296.8l3.46,3.79-6.4,6.11Zm6.37,5.68,6.48-6.12,4,3-5.84,6.73Zm6.31,4.76,5.64-7,4.76,2.58-5.77,7.21Zm6.43,3.81,5.42-7.45,4.85,2.42-5.14,8.09Zm12.35,6.65-5.39-2.52,4.67-8.53,6.19,2.6C295.41,317.62,293.68,320.3,291.77,323.24Zm7.09-7.84,5.28,1.81-5.69,8.64-4.6-1.78ZM296,329.92a110.3,110.3,0,0,0,42.62,7.25L336.89,345a104.91,104.91,0,0,1-32.49,24.81C297,357.62,296,344,296,329.92ZM310.4,414.6c.1-.53.64-1,1-1.45,1.57-2.42,3.44-4.71,4.65-7.3,3.68-7.89,4.71-16.5,6.45-24.92.45-2.14.85-4.28,1.32-6.42a33,33,0,0,1,4.84-11.65c2.33-3.42,4.51-6.94,6.75-10.42l.44.24c-.44,1.14-.87,2.28-1.33,3.41-3.08,7.52-4.1,15.43-4.63,23.46-.61,9.07-1.57,18.13-5.18,26.57a59,59,0,0,1-6.17,10.58,15.46,15.46,0,0,1-9.51,6.16C309.45,420.08,309.87,417.33,310.4,414.6Zm-3-20.09a32.86,32.86,0,0,1,6.67-16.7c1.62-2,4.28-3.21,6.91-5.09-3.5,12.57-4.39,25.33-10.55,36.7C310.41,404.21,306.66,399.91,307.36,394.51Zm-2.91-20.34c5.53-3.53,11.14-6.9,16.69-10.39,1.39-.87,2.66-1.94,4.19-3.07-5.57,9.75-13.4,15.78-24.8,16.81A35.86,35.86,0,0,1,304.45,374.17Zm1.86,11.34c-.76,2-1.25,4.15-2.32,6.4l-4.07-9.19c2.87-2.81,6.13-2.58,9.23-3.41C308.14,381.49,307.09,383.45,306.31,385.51Zm9,46a102.74,102.74,0,0,0-22.93,11.24c-.33.21-.68.39-1,.58l-.5-.38c1.66-2.4,3-5.08,5-7.14,2.9-3,6.25-5.5,9.44-8.18a3.25,3.25,0,0,1,1.59-.69c10.59-1.48,16.56-8.47,20.68-17.51,3.58-7.86,5-16.25,5.66-24.83.44-6.07,1.05-12.12,1.6-18.18a3,3,0,0,1,.5-1.31c.29,6.78,2.6,12.93,5.09,18-1,7.48-1.86,13.95-2.66,20.43C336.12,417.54,328.73,427,315.34,431.49Zm32.93-19.67c-.93,2.57-2,4.75-4.72,6s-5.32,2.87-8.48,4.61a10.29,10.29,0,0,1,.65-1.46c4.49-6.24,5.45-13.48,5.95-20.86.27-4.08.59-8.15.89-12.22l.54-.07,5.4,6.12C349.67,399.84,350.41,405.82,348.27,411.82Zm10.86-.29-8.31,2.82c2.82-5.89,2.79-11.56,1.19-17.45l8.72,5.43A11.29,11.29,0,0,1,359.13,411.53Zm9.4-1.94-5.36.91c.48-2.26.94-4.4,1.43-6.69l4.6,1.39C369,406.68,368.76,408.08,368.53,409.59Zm1.43-8.13c-16-5.58-26.39-16.32-29.75-33.16-1.43-7.17-.38-14.41.8-21.54a128,128,0,0,1,3.62-15.37c.2.43.41.86.59,1.29a21.2,21.2,0,0,0,7.13,9.11c6.32,4.63,14.54,1.36,17.94-2.71,4-4.82,6-10.58,7.62-16.45,3.12-11.48,5.25-23.17,4.25-35.12-.9-10.69-2.32-21.34-7.05-31.2a10.59,10.59,0,0,1-.35-1.31c2.25,1.13,4.16,1.95,5.93,3,3.68,2.22,7.34,4.49,10.92,6.88,10,6.65,15.67,16.24,18.61,27.65,2.15,8.35,1,16.62-.09,25-1.39,10.18-5.4,19.32-9.64,28.45-2.28,4.92-4.79,9.74-7.16,14.62-3.65,7.51-5.71,15.36-4.94,23.79a4.11,4.11,0,0,1-.07.78c-3.67.92-7.14,1.74-10.59,2.68a21.78,21.78,0,0,0-3.89,1.48c-4.43,2.19-5.36,4.84-3.45,9.63.34.85.76,1.68,1.25,2.78A13.9,13.9,0,0,1,370,401.46Zm1.31,8.15c.25-1.33.47-2.55.71-3.83a3.92,3.92,0,0,1,.74-.16,6,6,0,0,1,.85.09l1.64,4.41Zm4-9.83c1.41.77,2.67,1.57,4,2.17s2.83,1.05,4.35,1.6c.28.91.55,1.81.87,2.84C378.81,405.29,376.06,403.46,375.24,399.78Zm5.26,18.73c1.22,1.6,2.86,3.18,3.8,5.1,4.29,8.71,4.31,17.84,2.14,27.1a15.79,15.79,0,0,1-.59,1.55l-1.68-.14c0-.53,0-.91.06-1.28.55-4.38,1.19-8.76,1.62-13.16.12-1.26.5-3.17-1.33-3.48s-1.94,1.62-2.46,2.83a9.48,9.48,0,0,1-.9,2.1c-.31-1.52-.65-3-.94-4.55a16.67,16.67,0,0,0-3-7.45C375.58,425,377.42,419.72,380.5,418.51Zm-4.73,12.8q2.33,8.44,4.64,16.89l.61-.06,2.54-8.75.53.12c-.72,3.71-1.45,7.42-2.26,11.61-.73-.67-1.32-1-1.56-1.48-2.83-5.74-4-11.94-5.18-18.13Zm204.6-9.47-4.21-3V671.92A21.69,21.69,0,0,0,561.94,679a25.84,25.84,0,0,0-7,14.29H432.8c2.52,3.14,5.23,4.65,9.11,4.33,4.34-.36,8.73-.09,13.1-.09l102,0a13.52,13.52,0,0,0,1.57-.15c.94-13.83,9.4-19.92,21.82-22.16ZM194.64,671.71V418.82l-4.14,3.05v253.4c12.51,2.29,20.94,8.41,21.83,22.16a12.54,12.54,0,0,0,1.46.16q58.83,0,117.66,0c3.22,0,4.43-2.47,6.31-4.35H216C213.34,681.64,206.91,673.93,194.64,671.71Zm361-616.82c2.76,11.53,9.07,19.17,21.37,21.49v243l4.19-3.13V72.84c-12.56-2.26-21-8.48-21.86-22.2a14,14,0,0,0-1.4-.13c-38.95,0-77.91.08-116.86-.06-3.59,0-5.12,2.27-7.34,3.95l.16.49ZM191.3,316.32l4.2,3v-243c12.29-2.24,18.66-10,21.37-21.59h122c-2.5-3.16-5.22-4.65-9.1-4.33-4.27.35-8.6.08-12.91.08l-102.16,0a13.71,13.71,0,0,0-1.58.15c-.92,13.84-9.39,19.92-21.81,22.17ZM415,76.15H355.54v49.71H415Zm-4.16,45.38h-51V80.32h51ZM329.41,498.19a8.4,8.4,0,0,1,4.22,6.55c.52,4.4,1.37,8.75,2.08,13.13l1.11,6.73.35,0a5.13,5.13,0,0,0,.36-1c1-6.33,2.15-12.65,3-19a8.46,8.46,0,0,1,4.18-6.37,30.66,30.66,0,0,1,11.55-4c.53-.09,1.05-.23,1.57-.35a11.89,11.89,0,0,0-2.86-1c-3.58-1.28-7.22-2.48-10.67-4.07a6.35,6.35,0,0,1-3.58-5q-1.53-9.81-3.13-19.6c-.08-.5-.26-1-.39-1.49-1.48,6.72-2.65,13.36-3.59,20-.39,2.72-1.47,5-3.87,6.08-3.45,1.59-7.1,2.76-10.69,4a17.74,17.74,0,0,1-2.94.54,3,3,0,0,0,1.74.74A31.18,31.18,0,0,1,329.41,498.19ZM478.18,336.38c.4,2.75.83,5.49,1.27,8.24q1,6.31,2.09,12.65l.53,0c.87-5.41,1.83-10.8,2.59-16.22,1.13-8.18,3.25-10.69,11.29-12.95,1-.28,2-.56,3.07-.78s2.36-.41,3.54-.61l0-.49-1.85-.34a29.78,29.78,0,0,1-11.51-4.1,8.23,8.23,0,0,1-3.9-6.12c-.86-6.35-2-12.67-3-19a11.86,11.86,0,0,0-.65-1.66c-1.17,7.22-2.34,13.86-3.27,20.53a8.38,8.38,0,0,1-4,6.29,30.13,30.13,0,0,1-11.51,4.08c-.68.11-1.36.24-2,.36a7.18,7.18,0,0,0,2.83.92,27.87,27.87,0,0,1,11.06,4.17A7.32,7.32,0,0,1,478.18,336.38Zm-196.66,299c1.15,4.07,2.22,8.17,3.47,12.22,1.05,3.41,2.22,6.79,3.57,10.09a3,3,0,0,0,2.32,1.65c.76-.06,1.68-1.14,2.08-2a8,8,0,0,0,.5-3.1c.15-3.78.21-7.55.37-11.32.27-6.55.6-13.1.86-19.64a13.32,13.32,0,0,0-.36-2.44c-2,0-2.2,1.33-2.41,2.42-.67,3.58-1.22,7.18-1.79,10.77-.25,1.57-.47,3.14-.66,4.72s-.3,3-.45,4.52c-2.8-7.56-5.39-15.07-10.56-21.51a5,5,0,0,0-1.41,2.75c-.34,11-.59,22-.84,33,0,1.33.48,2.42,2,2.5s2.11-1,2.23-2.28c.15-1.78.3-3.57.31-5.35,0-6,0-12,0-18l.36-.06A10.28,10.28,0,0,1,281.52,635.36Zm63.82,11c0,3.37-.07,6.75,0,10.12,0,1.64.73,2.93,2.56,2.88s2.21-1.42,2.29-2.93a226.31,226.31,0,0,0-.55-32.52c-.12-1.22-.44-2.32-1.9-2.3s-1.85,1.12-1.9,2.33c-.16,3.5-.27,7-.39,10.5,0,.84,0,1.68,0,2.55l-5.74-.31c0-.85-.07-1.5-.11-2.16-.16-3.43-.28-6.87-.52-10.3-.09-1.24-.24-2.76-2-2.73s-1.84,1.56-1.93,2.78c-.26,3.16-.38,6.34-.55,9.51-.05.9-.11,1.81-.16,2.69-1.55.57-3.94-.41-4,2.09s2.27,2.18,3.87,3c0,4.47,0,8.84,0,13.2,0,2.79.87,4.06,2.49,4s2.3-1.25,2.4-3.92c.17-4.22.35-8.44.53-12.73l5.61-.38Zm-73.92-21c.68-1.25,2-2.88.27-4.06s-2.72.68-3.59,1.81c-1.42,1.83-2.69,3.77-4,5.71-1.84,2.79-3.63,5.63-5.43,8.45l-.6-.11c0-3.37,0-6.74,0-10.11a23.09,23.09,0,0,0-.52-4.92,2.63,2.63,0,0,0-1.76-1.71c-.59,0-1.45.9-1.82,1.6a5.64,5.64,0,0,0-.43,2.51c-.16,7.08-.31,14.16-.39,21.25,0,3.57,0,7.15.15,10.72,0,1.49.25,3.1,2.25,3.14s2.25-1.51,2.34-3a26.53,26.53,0,0,0,.14-5c-.52-3.84,1.74-6.45,3.78-9.59,1.4,4.52,2.68,8.74,4.05,12.93a18.92,18.92,0,0,0,1.87,4.35,2.69,2.69,0,0,0,2.31.88c.52-.11,1.19-1.3,1.15-2a18.65,18.65,0,0,0-1-4.84c-1.82-5.3-3.77-10.55-5.79-16.15.3-.5.88-1.39,1.41-2.3C267.73,631.79,269.65,628.62,271.42,625.36Zm198.91-4.66a8.93,8.93,0,0,0-.7,2.28c-.19,3.23-.23,6.47-.38,9.7-.27,5.81-.42,11.63-.94,17.41-.21,2.3-1.36,4.45-4.07,5a6.28,6.28,0,0,1-3.44-5.49c-.08-5.89-.12-11.79-.32-17.67-.09-2.77-.46-5.53-.82-8.28-.22-1.71-1.28-2.7-3.6-2.84a11.44,11.44,0,0,0-1,2.82,105.39,105.39,0,0,0,.54,25.35,19.65,19.65,0,0,0,2.67,7c2.08,3.45,6.75,4.47,9.67,2.14a10.59,10.59,0,0,0,3.11-4.68c3.44-10.16,3.52-20.68,2.92-31.23C473.9,620.25,472.77,619.84,470.33,620.7Zm-70.27,8.86a34.68,34.68,0,0,0-1.66-4.68c-2.32-4.38-7-5.06-10-1.15a25.33,25.33,0,0,0-4.55,8.67,30.69,30.69,0,0,0-.65,13.79c.81,4.12,1.95,8.09,5,11.23,2.67,2.7,6,2.92,8.51.09a17.3,17.3,0,0,0,3.14-5.21c2.47-6.48,2.65-13.2,1.52-20A10.48,10.48,0,0,0,400.06,629.56Zm-4.63,22.07a29.15,29.15,0,0,1-2.85,4.15c-1.1-1.48-2.09-2.33-2.48-3.4a32.89,32.89,0,0,1,.56-24.55,7.16,7.16,0,0,1,.92-1.52c1.41-1.91,2.65-1.93,4.05,0,.84,1.18,1.52,2.47,2,3.28,0,1.69-.11,2.93,0,4.14C398.33,639.9,398,645.92,395.43,651.63ZM313,648.57a24.26,24.26,0,0,0,2,7.82c2.6,5.43,8.45,6.08,12.5,1.6,2.82-3.11,3.56-7,3.95-11a2.33,2.33,0,0,0-2.18-2.64c-2-.25-4.08-.43-6.13-.5-1.55-.05-2.77.61-2.83,2.37s1.19,2.37,2.69,2.56c1.09.13,2.19.16,3.78.27-.8,1.8-1.21,3.47-2.19,4.68-.82,1-2.42,2.17-3.46,2s-2.24-1.81-2.56-3c-1.83-7-2.27-14-.06-21a21.28,21.28,0,0,1,3.51-6.33,4.43,4.43,0,0,1,3.49-1.06c1.5.16,2.21,1.55,2.33,3.07.09,1.12.28,2.23,1.68,2.25s1.76-1.2,2-2.33c.77-4.46-3.82-8.39-8.26-7.05a10.83,10.83,0,0,0-6.26,5.21C312.73,632.7,312.18,640.55,313,648.57Zm182.79-19.11c-.41-6.07-5-9.92-10.31-8.74-1.18.27-2.41.32-3.81.49-1.11,1.46-2.5,3-3.61,4.8-.74,1.19-1.25,2.66.9,4,.24-.57.48-1.12.71-1.68l.33.22c0,.37,0,.73,0,1.1-.2,8.41-.45,16.81-.59,25.22-.05,2.69.86,4,2.38,3.88s2.15-1.36,2.15-3.91v-7.55l1.45-.73C491.56,643.51,496.27,635.74,495.83,629.46Zm-11.77-4.23c4-1.79,7.07-.17,7.66,4s-3.45,11-7.66,12.68Zm21.67-1.17a28,28,0,0,1,2.49,3,25.07,25.07,0,0,1,1.58,3.54l.86-.11a4.62,4.62,0,0,0,1-1.13c1.19-2.86-.42-6.84-3.4-8.52-3.28-1.84-5.66-1.41-7.75,2a12.71,12.71,0,0,0-1.92,5.89c-.17,4.09,1.8,7.43,4.52,10.47a23.92,23.92,0,0,1,4,6.06,8.44,8.44,0,0,1-.11,7.67c-.88,1.64-2.38,1.7-4,1.59a2.9,2.9,0,0,1-2.73-2.47,15.74,15.74,0,0,0-.45-2.33,18.53,18.53,0,0,0-1.56-2.43c-.75.65-1.83,1.16-2.2,2-1.32,3,.56,7.64,3.51,9.31s7.43.62,9.6-1.85c4.4-5,2.72-15.77-1.65-20a39.35,39.35,0,0,1-3.21-3.25C502.38,631.05,503,625.93,505.73,624.06Zm-69.22,32.63c2,2.13,4.42,3.2,7.34,2.18a9.85,9.85,0,0,0,6.32-6.86,2.5,2.5,0,0,0-1.06-2.21c-.56-.25-1.7.29-2.31.8-1,.84-1.65,2.08-2.65,2.91a3.43,3.43,0,0,1-5.26-.48A8.4,8.4,0,0,1,437,649.2a38.46,38.46,0,0,1,3.06-21.69c1.14-2.43,3.18-3,5.2-1.22a20.29,20.29,0,0,1,2.35,2.92l1.74,2.21c1.84-.49,2.09-1.58,1.69-2.62a16.89,16.89,0,0,0-2.4-4.71c-3.07-3.78-7.36-3.89-10.87-.47a10.9,10.9,0,0,0-1.77,2.13c-5.19,8.64-5.75,17.69-2.17,27A12.84,12.84,0,0,0,436.51,656.69Zm-138.12-.75a2.79,2.79,0,0,0-1.5,1.94,2.26,2.26,0,0,0,1.53,1.64c3.75.14,7.52.13,11.28,0a2.28,2.28,0,0,0,1.55-1.63,2.62,2.62,0,0,0-1.34-1.89,12.7,12.7,0,0,0-3-.77V624.42h2.89c1.56,0,3.07-.27,3.14-2.21s-1.58-2-2.85-2c-3.3,0-6.61.13-9.91.32-1.89.1-2.65,1.44-3,3.12,1.35,2.22,3.6.64,5,1.21v30.43A16.53,16.53,0,0,0,298.39,655.94Zm47.8-605.46c3.16.63,6.37,1,9.7,1.54a13.39,13.39,0,0,0-1.32,3.24c-.15,1.13-.16,2.83.51,3.38a4.11,4.11,0,0,0,3.58.36,14.56,14.56,0,0,0,8.25-8.88A10,10,0,0,0,365.74,41a46,46,0,0,0-5.95-7,4.2,4.2,0,0,0-3.61-.43c-1.5.53-1.56,2.21-1.21,3.61a32.33,32.33,0,0,0,1.44,3.88,13.45,13.45,0,0,0,.67,1.33c-3.7.5-7.36.87-10.95,1.55-1.75.33-4,.82-3.88,3.23C342.35,49.39,344.37,50.11,346.19,50.48Zm11.2,6.33-.62-.44,2.87-4.95,4.44-.86C362.31,53.52,360.35,55.73,357.39,56.81Zm6.36-12.87-3.38-.76c-.88-2-1.82-4.12-2.88-6.5C360,37.34,363,41,363.75,43.94Zm.61,3.1a30.1,30.1,0,0,1-18.63-.15A31.8,31.8,0,0,1,364.36,47Zm62.79,651.25a21.46,21.46,0,0,0-5.53-1.45c-1.92-.32-3.87-.37-5.93-.56a14.72,14.72,0,0,0,1.41-3.44c.15-1.13.15-2.75-.52-3.39a3.81,3.81,0,0,0-3.4-.42,14.81,14.81,0,0,0-8.55,9.36c-1.78,5.62,2.74,12.41,6.76,15.49,1.23,1,2.66,1.72,4.19.69s1.45-2.78,1-4.32a44.61,44.61,0,0,0-1.81-4.38c4.11-.72,8.22-1.3,12.24-2.23,1-.23,2.35-1.64,2.32-2.47A4.14,4.14,0,0,0,427.15,698.29Zm-12.85-7,.61.44c-1,1.69-2,3.38-2.89,4.93l-4.5.9C409.41,694.62,411.29,692.32,414.3,691.31Zm-.84,20.27a19,19,0,0,1-5.89-7.48l2.54.54c.32.08.64.18,1.23.36l2.72,6.22Zm-6.6-10.77a38.29,38.29,0,0,1,19.37.05C423.58,703.13,410.72,703.11,406.86,700.81ZM357.32,688.9a3.46,3.46,0,0,0-3,.53,3.89,3.89,0,0,0-.62,3,17.73,17.73,0,0,0,1.39,3.64c-3.25.5-6.4.88-9.5,1.5-1.89.37-4,1-4.09,3.38,0,2.5,2.33,2.91,4.13,3.26,3.49.66,7,1,10.61,1.44-.56,1.34-1.37,2.91-1.89,4.58s-.63,3.23,1,4.31a3.14,3.14,0,0,0,4.17-.72,40.18,40.18,0,0,0,5.45-6.72C369.86,698.89,363.28,691.14,357.32,688.9Zm.05,22.65-.56-.29,2.73-6.31,3.76-.88C361.76,707.25,360,709.77,357.37,711.55Zm-12.44-10.27a30.22,30.22,0,0,1,18.69-.25C357.42,703.16,351.19,702.79,344.93,701.28Zm13.95-4.6-3.09-5.19c2.88.24,5.37,2.38,7.38,6ZM172.71,340.4a40.65,40.65,0,0,0,6.75,5.41c8,4.81,15.68-1.45,18.1-7.47a3.64,3.64,0,0,0-.52-3.22c-.63-.64-2.16-.7-3.21-.53a16.45,16.45,0,0,0-3.54,1.38c-.33-2.77-.52-5.41-1-8a12.47,12.47,0,0,0-1.56-4.23c-1.35-2.19-3.43-2-4.59.27a9.72,9.72,0,0,0-1.05,3c-.48,3.36-.83,6.74-1.23,10.12a47.65,47.65,0,0,0-4.54-1.91c-1.53-.48-3.22-.69-4.34.89S171.56,339.31,172.71,340.4Zm22.62-3.25c-1.16,3.3-3.47,5.14-6.05,6.9C189,340.14,190.52,338.2,195.33,337.15ZM185.27,325.8a30.16,30.16,0,0,1,.19,18.67C183.38,338.28,183.62,332.05,185.27,325.8Zm-10,11.87,6.29,2.74c.29,1.26.52,2.28.87,3.78-3.17-1.6-5.71-3.3-7.48-5.95Zm5.93,59.14c.52,3.71.91,7.45,1.69,11.1a3.55,3.55,0,0,0,2.51,2.27,3.82,3.82,0,0,0,2.74-2,21.48,21.48,0,0,0,1.49-5.51c.34-2,.4-4,.59-6.09a13.3,13.3,0,0,0,3.26,1.35,5.79,5.79,0,0,0,3.63-.44c1.32-.89.9-2.5.26-3.8a15.23,15.23,0,0,0-8.49-7.9,11.54,11.54,0,0,0-4.26-.53c-4.75.23-8.17,3-11.35,6.19a7.16,7.16,0,0,0-1.49,2.32c-.89,2.12.34,4.06,2.62,3.86a22.26,22.26,0,0,0,4.89-1.4,13.11,13.11,0,0,0,1.91-1A14,14,0,0,0,181.21,396.81Zm13.88-1.56-.37.52-4.87-2.86c-.31-1.52-.57-2.79-.85-4.12A10.34,10.34,0,0,1,195.09,395.25Zm-9.63-7.12a30.63,30.63,0,0,1-.16,18.68A31.56,31.56,0,0,1,185.46,388.13Zm-10.2,6.79-.31-.57a18.39,18.39,0,0,1,7.47-5.92c-.31,1.4-.54,2.4-.84,3.77Zm418.19-59.38c-1.24.5-2.43,1.13-3.33,1.55-.55-3.81-1-7.54-1.68-11.22-.31-1.62-.87-3.62-3.09-3.56s-2.72,2-3.32,3.7a4.08,4.08,0,0,0-.21.76c-.44,3-.87,6-1.33,9.21-1-.44-2-.92-3-1.31-1.34-.5-2.73-.81-3.83.48s-.75,2.63-.09,3.91a15.27,15.27,0,0,0,8.19,7.68,11.48,11.48,0,0,0,4.44.64c4.67-.18,8.11-2.9,11.24-6,2-2,2.45-3.95,1.52-5.27S596,334.52,593.45,335.54Zm-18,1.53c2.62.26,4.14,1.63,5.7,3,.25,1.25.5,2.47.82,4A13.7,13.7,0,0,1,575.41,337.07Zm10.34,7.71c-2.36-3.23-2.3-15.66.11-19.42A40.87,40.87,0,0,1,585.75,344.78Zm3.33-.55-.54-.42c.23-1,.45-2.08.74-3.37l6.29-2.77c.19.31.39.62.58.94Zm-174.66-285c2.58.93,4.39-.86,3.66-3.52a36.44,36.44,0,0,0-1.52-3.84c2.76-.34,5.45-.54,8.09-1a12.17,12.17,0,0,0,4.23-1.59c2.08-1.32,1.9-3.37-.28-4.5a10.67,10.67,0,0,0-3.17-1.1c-3.31-.48-6.65-.82-9.94-1.2.61-1.56,1.43-3.29,2-5.1.43-1.44.42-3.24-1.17-3.8a4.36,4.36,0,0,0-3.77.54,35.27,35.27,0,0,0-5.87,7.11C401.83,49.41,408.65,57.2,414.42,59.26Zm-.11-22.71.55.31-2.74,6.3-3.76.87C409.93,40.86,411.64,38.33,414.31,36.55Zm12.42,10.33a30.3,30.3,0,0,1-18.67.18A31.69,31.69,0,0,1,426.73,46.88ZM415.37,56.94c-3.25-1.22-5.18-3.43-6.85-6.08C412.43,50.63,414.37,52.17,415.37,56.94ZM592,387.08c-8.13-5.16-15.79.63-18.56,7a3.88,3.88,0,0,0,.44,3.4c.55.65,2.14.71,3.2.55a16.05,16.05,0,0,0,3.55-1.39c.33,2.76.55,5.39,1,8a10.51,10.51,0,0,0,1.36,3.88,3.62,3.62,0,0,0,2.56,1.7c.85-.05,1.8-1.12,2.39-2a6.5,6.5,0,0,0,.93-2.79c.46-3.31.8-6.63,1.18-9.9,1.59.63,3.31,1.45,5.12,2,1.44.43,3.23.41,3.79-1.18a4.45,4.45,0,0,0-.55-3.77A32,32,0,0,0,592,387.08ZM581,392.91l-4.92,2.86c-.14-.21-.29-.41-.44-.62,1.09-3,3.29-4.93,6.29-6.72C581.62,390,581.35,391.31,581,392.91Zm4.63,13.9a29.94,29.94,0,0,1-.24-18.67C587.52,394.33,587.17,400.56,585.65,406.81Zm3.68-14.6c-.3-1.24-.54-2.26-.79-3.29,2.28.21,6.22,3.28,7.51,6.18ZM547.88,639.68c-.12-2.21-2.14-2.92-4-3.28-3.15-.62-6.35-1-9.67-1.53a12.31,12.31,0,0,0,1.27-3.09,5.76,5.76,0,0,0-.46-3.62c-.89-1.32-2.51-.9-3.8-.25a15.23,15.23,0,0,0-7.88,8.51,10.92,10.92,0,0,0-.52,4.26c.26,4.81,3.1,8.28,6.35,11.47a6.66,6.66,0,0,0,2.36,1.41c2,.73,3.82-.44,3.63-2.51a25.69,25.69,0,0,0-1.49-5.26,7.68,7.68,0,0,0-.64-1.29c3.71-.51,7.37-.88,11-1.57C545.78,642.6,548,642.1,547.88,639.68Zm-14.78-9.76c-.94,4.18-2.43,6.22-6.9,6.23A13.08,13.08,0,0,1,533.1,629.92Zm-1.49,20.64L526,643.5l.41-.56,3.38.75c.9,2,1.83,4.16,2.77,6.28Zm-6.37-11a38.69,38.69,0,0,1,19.39,0C542.23,641.9,529.4,641.92,525.24,639.58ZM234.5,653.68a4.41,4.41,0,0,0,3.77-.5,32,32,0,0,0,5.51-6.4c5.22-8.17-.69-15.87-7-18.58a3.88,3.88,0,0,0-3.4.46c-.65.54-.69,2.15-.52,3.21a16.46,16.46,0,0,0,1.37,3.52c-2.86.34-5.58.51-8.22,1.05a12.55,12.55,0,0,0-4.5,1.91c-1.53,1.06-1.31,3,.32,3.93a9.84,9.84,0,0,0,3.31,1.27c3.38.52,6.79.86,10.17,1.27-.64,1.61-1.44,3.28-2,5C233,651.29,232.91,653.09,234.5,653.68Zm1.29-2.88c1.08-2.5,2-4.63,2.9-6.68l3.31-.77C241.66,645.77,238.58,649.68,235.79,650.8Zm-.07-20.31c3,1,4.9,3.29,6.77,6.27l-4.5-.91-2.88-4.92C235.31,630.78,235.51,630.63,235.72,630.49Zm-11.66,9.9a30.31,30.31,0,0,1,18.65-.17A31.46,31.46,0,0,1,224.06,640.39ZM185.41,50c2,2.66,4.21,5.22,6.33,7.83-1.46.62-3.21,1.24-4.83,2.09-1.41.73-2.5,1.86-2.12,3.66a3,3,0,0,0,3.3,2.33,43.38,43.38,0,0,0,9-1.06c8.92-2.36,9.83-12.33,7.14-18.23-1.13-2.5-3.68-2.56-5.06-.19a30.78,30.78,0,0,0-1.68,4c-2-1.55-3.8-3.24-5.86-4.62a15,15,0,0,0-4.8-2.21c-2.42-.56-3.69,1-2.88,3.4A10.71,10.71,0,0,0,185.41,50Zm2.69,12.28,6.45-2.69,3,1.9C195.27,62.92,190.84,63.5,188.1,62.29Zm13.78-14.7c1.48,3,1.29,6,.61,9.31C198.79,53.39,199.92,50.05,201.88,47.59Zm-1.69,12.14a31.66,31.66,0,0,1-13.59-13A29.93,29.93,0,0,1,200.19,59.73ZM585.62,697.12c-1.87-2.37-3.9-4.61-5.83-6.86,1.4-.54,3-1,4.44-1.76s3.07-1.86,2.64-4-2.21-2.52-3.85-2.43a41.2,41.2,0,0,0-8.39,1.1c-8.94,2.41-9.84,12.32-7.14,18.22a3.48,3.48,0,0,0,2.54,1.77,3.85,3.85,0,0,0,2.56-1.72,19.56,19.56,0,0,0,1.61-3.82c2.07,1.65,4,3.31,6,4.73a13.93,13.93,0,0,0,4.24,2,3.26,3.26,0,0,0,2.84-.6,3.88,3.88,0,0,0,.28-3.07A11.18,11.18,0,0,0,585.62,697.12ZM584,685.65l-7,2.86-3-2A13.71,13.71,0,0,1,584,685.65Zm-14.2,14.89c-1.6-3.06-1.27-6.09-.68-9.27C572.16,694.42,572.41,697.43,569.83,700.54Zm1.63-12.16c6,2.83,10.28,7.39,13.61,13A30,30,0,0,1,571.46,688.38ZM570.21,61.89c3.94,3.63,8.83,4.5,14,4.09,1.55-.13,3.09-.61,3.47-2.42s-.84-3-2.3-3.75-3.26-1.38-5-2.09a10.13,10.13,0,0,0,1.11-1.06c2.23-2.84,4.52-5.65,6.62-8.59.8-1.12,1.39-2.89,0-3.77a5.91,5.91,0,0,0-4-.28,9.91,9.91,0,0,0-3.44,1.9c-1.91,1.41-3.72,2.95-5.72,4.55A14.68,14.68,0,0,0,573.58,47c-.66-.92-1.88-2.12-2.75-2a3.82,3.82,0,0,0-2.74,2.28,37.83,37.83,0,0,0-.86,8A8.93,8.93,0,0,0,570.21,61.89Zm14.37.42c-2.13,1.2-5.67.91-9.94-.63l3.22-2.07Zm1.78-15.71a39.67,39.67,0,0,1-14.08,13.54C572.89,56.25,581.88,47.54,586.36,46.6Zm-15.74,1c2.57,3,2.33,6.09-.66,9.26C569.33,53.65,569,50.62,570.62,47.57ZM187.19,682.17c-1.48.14-2.9.7-3.21,2.45s.72,2.81,2.05,3.51c1.62.86,3.37,1.48,5.26,2.3a10.89,10.89,0,0,0-1.16,1.07c-2.22,2.85-4.5,5.67-6.59,8.61-.81,1.13-1.33,2.88,0,3.76a4.55,4.55,0,0,0,3.83.24,56.45,56.45,0,0,0,6.93-4.53,24,24,0,0,0,2.28-2,20.51,20.51,0,0,0,1.71,4,3.76,3.76,0,0,0,2.6,1.63,3.46,3.46,0,0,0,2.48-1.84,16.9,16.9,0,0,0,1.24-5.35c.25-3.6-.44-7.14-3.12-9.71C197.55,682.48,192.49,681.68,187.19,682.17Zm.13,3.71.18-.68c3.16-.6,6.21.13,9.59,1.18l-3.28,2.12Zm-1.44,15.92c.31-3.5,9.45-12.42,14-13.57A37.3,37.3,0,0,1,185.88,701.8Zm15.23-1.24c-2.07-2.72-3.05-5.86.56-9.33A13.81,13.81,0,0,1,201.11,700.56ZM421,622.75c0-.23-.2-.47-.39-.88-4.42-1.49-8.88-1.09-13.82.11a23.17,23.17,0,0,0-.6,3.67q-.06,14.51,0,29a11,11,0,0,0,.31,2.35A2.11,2.11,0,0,0,409,658.7c1.3-.08,2.18-.63,2.28-2,.08-.92,0-1.85,0-2.77V641.79c1.78,0,3.11.11,4.41,0,1.57-.15,2.66-1,2.46-2.75s-1.48-2.06-2.93-2c-1.25,0-2.49.15-3.91.23-.22-4-.43-7.76-.65-11.71,3.53-.31,7,.4,10.18-1.44A10,10,0,0,0,421,622.75Zm-53.36-2c-4.55,0-9.12-.07-13.67.13a2.82,2.82,0,0,0-2,1.87c-.06.69.92,1.84,1.71,2.18a24.73,24.73,0,0,0,4.5,1c0,.59,0,1.17,0,1.74-.4,9-.82,18-1.2,27a6.1,6.1,0,0,0,.33,2.91c.42.79,1.45,1.78,2.19,1.76s1.55-1.1,2.2-1.83c.25-.28.19-.88.2-1.34.25-8,.51-16,.73-24,.06-2,0-4.08,0-6.34,1.8-.12,3.51-.16,5.2-.35,1.42-.16,2.66-.81,2.59-2.45S369.11,620.78,367.66,620.77Zm10.82-563.4a2.64,2.64,0,0,0,2.3.34c.42-.17.7-1.33.63-2-.37-3.39,1.18-5.94,4.61-7.24,3.85,1.16,5.29,3.43,5,7.5a2.13,2.13,0,0,0,.62,1.69,2.68,2.68,0,0,0,2,0,3.79,3.79,0,0,0,1.34-1.14,11.27,11.27,0,0,0,1.34-13.11,11.41,11.41,0,0,0-12.1-5.64,11.56,11.56,0,0,0-9.38,10A10.58,10.58,0,0,0,378.48,57.37Zm3.32-14.66c3-2.11,6.19-2,9.33.45a6.53,6.53,0,0,1,2.36,7.67c-3.42-6.9-10.08-8-14.56,0A7,7,0,0,1,381.8,42.71Zm11.56,648.16a3.12,3.12,0,0,0-2.46-.47c-.4.12-.67,1.43-.59,2.16.37,3.37-1.47,6-5.14,7.08-3.52-1.42-4.81-3.66-4.48-7.48a2.1,2.1,0,0,0-.59-1.7,2.63,2.63,0,0,0-2,0,4.35,4.35,0,0,0-1.48,1.28,11.32,11.32,0,0,0-1.52,12.44c2,3.92,6.75,6.77,10.85,6.48a12,12,0,0,0,10.49-8.16C397.75,698.34,396.48,693.32,393.36,690.87Zm-3,14.08c-3.16,2.41-6.35,2.56-9.33.45a7,7,0,0,1-2.87-8.09c4.33,7.78,11,7.07,14.57,0A6.54,6.54,0,0,1,390.33,705ZM576.67,371.09c-.62-.07-1.64.17-1.86.59a3.44,3.44,0,0,0,.1,2.16c.1.4.57.72.9,1a11.46,11.46,0,0,0,16.09-16.29c-4.44-4.92-12.44-5.12-16.55-.32a2.94,2.94,0,0,0-.65,2.42c.18.48,1.51.81,2.27.73,3.14-.3,5.79,1.37,7,4.7C582.84,369.9,580.4,371.49,576.67,371.09Zm5-12c2.23-1.15,5.28-.39,7.36,1.84a7.29,7.29,0,0,1,1.15,8.95c-1.92,3.37-4.82,4.67-8.73,3.71C589.81,369.39,588.32,362.34,581.68,359.13ZM194.3,361.54a2.26,2.26,0,0,0,1.84-.7,2.55,2.55,0,0,0-.13-2,4.22,4.22,0,0,0-1.32-1.45,11,11,0,0,0-11.92-1.61,11.76,11.76,0,0,0-6.88,10.78,11.48,11.48,0,0,0,7,10.28c4.33,2,9.91.87,12.71-2.58a3.19,3.19,0,0,0,.55-2.46c-.11-.39-1.42-.72-2.14-.65-3.4.37-6-1.39-7.13-5.07C188.2,362.57,190.55,361.19,194.3,361.54Zm-5.08,12a6.49,6.49,0,0,1-7.4-2c-2.58-3.1-2.88-6.44-.85-9.48a7.16,7.16,0,0,1,8.42-3C182.5,362.37,181.12,369.43,189.22,373.53ZM463.77,143.71c0-2.56-.82-5.12-1.27-7.68h-.44c-.52,3-1.2,6-1.51,9.08a4.83,4.83,0,0,1-3.34,4.24c-1.54.64-3.17,1.07-5.29,1.76,1.19.3,1.92.5,2.66.67,4.27,1,5.46,2.23,6.18,6.52.12.72.21,1.45.33,2.16.33,1.86.67,3.72,1,5.58a32.88,32.88,0,0,0,1.77-8.24c.17-2.92,1.68-4.48,4.18-5.39,1.38-.5,2.8-.87,4.21-1.3a4.65,4.65,0,0,0-1.74-.64C466,149.22,463.76,147.79,463.77,143.71ZM259.71,388.86l-1.23-7.24-.53,0c-.37,2.34-.88,4.66-1.08,7-.29,3.34-1.53,5.83-5,6.72-1.13.29-2.25.62-3.85,1.07,1.82.57,3.21.91,4.53,1.43,2.1.84,3.75,2,4,4.64.25,3,1,5.91,1.51,8.86h.48c.46-2.78,1.1-5.54,1.33-8.33s1.86-4.39,4.36-5.26c1.29-.45,2.62-.82,4.5-1.4-1.2-.25-1.78-.36-2.35-.49C261.61,394.79,260.51,393.62,259.71,388.86ZM480,509c1.45-.56,3-.95,4.86-1.53-1.58-.41-2.79-.66-3.95-1-2.7-.87-4.61-2.33-4.85-5.52-.22-2.78-.86-5.54-1.31-8.3h-.54c-.37,2.33-.85,4.66-1.07,7-.3,3.31-1.47,5.87-5,6.79l-4,1a8,8,0,0,0,1.14.44c5.15.76,8.08,3.39,8,8.94a28.39,28.39,0,0,0,1,5.54,39.92,39.92,0,0,0,1.85-8.58A5.39,5.39,0,0,1,480,509ZM359,192.06a4.09,4.09,0,0,1-3.38,4.06c-.48.11-.94.3-1.51.49.25.23.37.44.53.47,3,.47,4.4,2.25,4.44,5.29a17.38,17.38,0,0,0,.72,3.36c.67-2,.54-4.21,1.44-5.83s2.77-2.38,4.2-3.52c-5.73-.2-4.24-5.27-5.72-8.69C359.48,189.15,359.14,190.6,359,192.06Zm76.44,154.16a21.1,21.1,0,0,0-.75,3.74c0,3.34-1.61,5.18-5.5,5.53a6.81,6.81,0,0,0,1.23.67c2.75.47,4.13,2,4.2,4.86a23.06,23.06,0,0,0,.69,3.73c.7-2,.57-4.18,1.47-5.79s2.8-2.42,4.22-3.56C435.38,355.22,436.71,350.21,435.45,346.22ZM182.84,439.14c1.24,0,2.13-.59,2.1-2.45a2.1,2.1,0,0,0-2.1-2.16c-1.46-.07-2.07.9-2.09,2.28A2,2,0,0,0,182.84,439.14ZM588,434.53c-1.51.08-2.06,1.19-2.09,2.59s.92,2.21,2.09,2c.91-.19,1.66-1.19,2.47-1.82C590.1,435.41,589.48,434.45,588,434.53Zm-404-9.38a2.55,2.55,0,0,0-2.4-.12,3.49,3.49,0,0,0-.58,2.78c.45,1.55,1.84,1.37,3.28,1A2.57,2.57,0,0,0,184.06,425.15ZM184.85,313a2.5,2.5,0,0,0,.25-3.64c-1.38-.39-2.77-.57-3.23,1a3.55,3.55,0,0,0,.59,2.78C182.76,313.53,184.34,313.46,184.85,313Zm402.6-3.69a2.43,2.43,0,0,0,.07,3.6,2.48,2.48,0,0,0,2.38.26,3.54,3.54,0,0,0,.75-2.72C590.28,308.9,588.88,309,587.45,309.33Zm2.42,116.17c-1-1.1-2.19-1.39-3.16-.31a2.41,2.41,0,0,0,0,3.64C589.59,429.28,590.29,428.55,589.87,425.5Zm-407,23.71c1.44-.36,2.43-1.19,2-2.64a2,2,0,0,0-4-.06C180.35,448,181.28,448.82,182.86,449.21ZM588,444.91a2.75,2.75,0,0,0-2,1.65c-.46,1.44.49,2.3,2,2.64,1.5-.38,2.45-1.24,1.95-2.68A2.76,2.76,0,0,0,588,444.91ZM439.57,45.47a1.89,1.89,0,0,0,2.05-2.15c0-1.24-.61-2.15-2.77-2.1-.29.39-1.2,1.07-1.31,1.87A2,2,0,0,0,439.57,45.47Zm-.83,657.17a2,2,0,0,0-2,2.42c.12.79,1,1.46,1.35,1.86,2.13,0,2.72-.93,2.72-2.17A1.9,1.9,0,0,0,438.74,702.64Zm-106.68,0a1.9,1.9,0,0,0-2,2.18c0,1.26.66,2.14,2.81,2,.28-.39,1.17-1.09,1.26-1.89A2,2,0,0,0,332.06,702.64Zm.54-657.19c1.48.17,2.13-.76,2.5-2.73a6.37,6.37,0,0,0-1.92-1.43c-1.31-.39-2.17.44-2.32,1.74A1.94,1.94,0,0,0,332.6,45.45Zm-109.9.26h.9c.55-.76,1.46-1.47,1.58-2.3a1.81,1.81,0,0,0-2-2.13c-1.35,0-2.22.88-2,2.15C221.28,44.25,222.16,45,222.7,45.71ZM182.42,643.3c-.55.81-1.53,1.63-1.5,2.43a2.83,2.83,0,0,0,1.81,2,1.67,1.67,0,0,0,2.11-1.9c-.13-.89-1-1.68-1.5-2.51Zm1.34-558.77a1.7,1.7,0,0,0,1.86-2.17,2.92,2.92,0,0,0-2-1.82c-.78,0-1.58,1-2.38,1.55l0,1C182.1,83.58,182.89,84.45,183.76,84.53Zm68.66-38.84,1,0c.57-.81,1.59-1.63,1.57-2.41a2.92,2.92,0,0,0-1.91-2,1.68,1.68,0,0,0-2.07,2C251.07,44.17,251.91,44.91,252.42,45.69Zm10,0h.95c.54-.81,1.53-1.65,1.49-2.43a2.89,2.89,0,0,0-1.9-1.92,1.67,1.67,0,0,0-2.08,1.92C261,44.14,261.9,44.9,262.44,45.71Zm10,0,.95,0c.53-.82,1.5-1.68,1.45-2.46a2.9,2.9,0,0,0-1.93-1.89,1.68,1.68,0,0,0-2.05,2C271,44.17,271.87,44.92,272.42,45.72Zm9.85,0h1c.55-.81,1.57-1.64,1.53-2.43s-1.13-1.75-1.92-1.93a1.69,1.69,0,0,0-2.05,2C280.89,44.19,281.75,44.92,282.27,45.7ZM588.75,293.24c.86-.09,1.64-1,2.45-1.51,0-.32,0-.65,0-1-.8-.55-1.63-1.54-2.41-1.5a2.87,2.87,0,0,0-1.95,1.86A1.68,1.68,0,0,0,588.75,293.24ZM184.82,655.79a1.69,1.69,0,0,0-1.87-2.15c-.86.08-1.65,1-2.48,1.48l0,1c.8.57,1.61,1.58,2.38,1.55A2.89,2.89,0,0,0,184.82,655.79ZM588,663.58a1.69,1.69,0,0,0-1.9,2.12,2.88,2.88,0,0,0,2,1.86c.78,0,1.6-1,2.41-1.5,0-.33,0-.65,0-1C589.59,664.56,588.81,663.67,588,663.58ZM538.89,45.7l.9,0c.55-.76,1.44-1.45,1.59-2.28.23-1.26-.63-2.12-2-2.17a1.81,1.81,0,0,0-2,2.11C537.46,44.21,538.35,44.93,538.89,45.7Zm52.33,255c-.8-.56-1.61-1.57-2.39-1.55a2.9,2.9,0,0,0-2,1.84,1.68,1.68,0,0,0,1.87,2.15c.86-.08,1.65-1,2.47-1.48Zm-2.49-31.37a2.93,2.93,0,0,0-1.89,1.95,1.69,1.69,0,0,0,2,2.05c.86-.13,1.6-1.05,2.4-1.62l0-1C590.37,270.27,589.5,269.31,588.73,269.37Zm-407.45,2.56c.83.51,1.63,1.37,2.5,1.44a1.7,1.7,0,0,0,1.84-2.19,2.91,2.91,0,0,0-2-1.81c-.78,0-1.57,1-2.36,1.59ZM510.05,45.7c.53-.77,1.39-1.49,1.52-2.32a1.69,1.69,0,0,0-2-2,2.9,2.9,0,0,0-1.94,1.91c0,.79,1,1.63,1.51,2.45Zm-9.87,0c.51-.83,1.36-1.62,1.44-2.49a1.68,1.68,0,0,0-2.15-1.85,2.88,2.88,0,0,0-1.82,2c0,.79,1,1.59,1.57,2.38ZM183.72,259.44c-.78-.06-1.64.91-2.46,1.43l0,1c.8.56,1.55,1.48,2.41,1.6a1.69,1.69,0,0,0,2-2.06A2.89,2.89,0,0,0,183.72,259.44Zm407.47-8.58c-.84-.5-1.72-1.45-2.5-1.37a2.92,2.92,0,0,0-1.85,2,1.69,1.69,0,0,0,2,2c.86-.15,1.58-1.08,2.37-1.67C591.21,251.5,591.2,251.18,591.19,250.86ZM181.27,252c.83.51,1.62,1.39,2.49,1.46a1.7,1.7,0,0,0,1.86-2.17,2.87,2.87,0,0,0-2-1.82c-.78,0-1.58,1-2.38,1.56Zm407.59-8.48c.86-.14,1.58-1.08,2.36-1.66l0-1c-.84-.5-1.72-1.45-2.49-1.37a2.92,2.92,0,0,0-1.86,2A1.69,1.69,0,0,0,588.86,243.55ZM490.1,45.72c.56-.8,1.46-1.55,1.58-2.41a1.67,1.67,0,0,0-2-2c-.79.18-1.89,1.19-1.93,1.89s.92,1.63,1.44,2.46ZM181.27,242.08c.82.52,1.62,1.39,2.48,1.47a1.7,1.7,0,0,0,1.87-2.16,2.91,2.91,0,0,0-2-1.83c-.77,0-1.58,1-2.37,1.55ZM479.15,45.67l.89.06c.59-.72,1.51-1.37,1.7-2.19.29-1.26-.53-2.16-1.88-2.26a1.79,1.79,0,0,0-2.14,2C477.8,44.12,478.64,44.88,479.15,45.67Zm-19.73,0h.89c.55-.76,1.42-1.47,1.56-2.29.21-1.27-.66-2.12-2-2.15a1.82,1.82,0,0,0-2,2.14C458,44.23,458.86,44.94,459.42,45.71Zm-10,0,.94,0c.56-.8,1.58-1.63,1.55-2.41a2.9,2.9,0,0,0-1.9-2,1.68,1.68,0,0,0-2.07,2C448,44.16,448.86,44.91,449.38,45.69Zm-147.22,0h.95c.55-.82,1.56-1.66,1.52-2.44a2.89,2.89,0,0,0-1.94-1.92,1.69,1.69,0,0,0-2,2C300.77,44.21,301.63,44.93,302.16,45.7ZM222.94,702.43l-.89,0c-.59.72-1.5,1.38-1.69,2.2-.29,1.26.54,2.15,1.89,2.25a1.8,1.8,0,0,0,2.13-2C224.3,704,223.45,703.22,222.94,702.43Zm8.77,0c-.5.79-1.33,1.54-1.42,2.37a1.68,1.68,0,0,0,2.1,2,2.88,2.88,0,0,0,1.88-2c0-.78-1-1.59-1.61-2.39Zm29.84,0c-.51.83-1.37,1.63-1.44,2.49a1.67,1.67,0,0,0,2.15,1.85,2.89,2.89,0,0,0,1.83-2c0-.78-1-1.58-1.58-2.37ZM586.05,457a2.88,2.88,0,0,0,1.93,1.9c.78,0,1.62-.93,2.43-1.47v-1c-.8-.55-1.57-1.45-2.43-1.56A1.68,1.68,0,0,0,586.05,457Zm2.66-233.28c.86-.07,1.66-.95,2.48-1.47l0-1c-.8-.56-1.6-1.57-2.38-1.55a2.9,2.9,0,0,0-2,1.83A1.69,1.69,0,0,0,588.71,223.67ZM184.82,467A1.69,1.69,0,0,0,183,464.8c-.87.07-1.67.94-2.49,1.46l0,1c.79.56,1.59,1.58,2.37,1.56A2.87,2.87,0,0,0,184.82,467Zm403.11-2.17a1.69,1.69,0,0,0-1.88,2.14,2.87,2.87,0,0,0,2,1.85c.77,0,1.59-1,2.39-1.53l0-1C589.58,465.77,588.8,464.88,587.93,464.8Zm-405,9.94c-.87.07-1.66.94-2.49,1.46l0,1c.79.56,1.59,1.58,2.37,1.56a2.9,2.9,0,0,0,2-1.82A1.69,1.69,0,0,0,183,474.74Zm405.07,0a1.68,1.68,0,0,0-2,2,2.9,2.9,0,0,0,1.87,2c.78.07,1.65-.89,2.48-1.4,0-.32,0-.64,0-1C589.63,475.8,588.9,474.87,588,474.74ZM271.54,702.41c-.53.81-1.4,1.59-1.49,2.46a1.67,1.67,0,0,0,2.11,1.88,2.88,2.88,0,0,0,1.87-2c0-.78-1-1.6-1.54-2.4Zm19.82,0c-.5.83-1.36,1.63-1.43,2.49a1.67,1.67,0,0,0,2.15,1.85,2.88,2.88,0,0,0,1.82-2c0-.78-1-1.58-1.58-2.37ZM185.62,221.67a2.92,2.92,0,0,0-1.85-2c-.77-.08-1.66.86-2.49,1.36l0,1c.78.58,1.5,1.52,2.36,1.67A1.69,1.69,0,0,0,185.62,221.67ZM302.48,702.44l-.9-.07c-.59.72-1.51,1.37-1.71,2.18-.31,1.26.52,2.16,1.86,2.28a1.8,1.8,0,0,0,2.16-2C303.82,704,303,703.24,302.48,702.44ZM182.92,488.67a2.89,2.89,0,0,0,1.9-1.93,1.68,1.68,0,0,0-2-2.06c-.86.12-1.61,1-2.41,1.59l0,1C181.29,487.76,182.15,488.73,182.92,488.67ZM311.7,702.8c-1.22-.21-2,.75-1.95,2s.84,2.24,2.14,2c.84-.15,1.56-1,2.33-1.55v-.9A8.35,8.35,0,0,0,311.7,702.8Zm137.47,0a1.7,1.7,0,0,0-2.05,2,2.83,2.83,0,0,0,1.95,1.9c.8,0,1.64-1,2.47-1.51,0-.3,0-.61,0-.92C450.74,703.76,450,702.94,449.17,702.79Zm139.56-493a3,3,0,0,0-1.89,1.95,1.69,1.69,0,0,0,2,2.05c.86-.14,1.6-1.05,2.4-1.62l0-1C590.37,210.64,589.5,209.68,588.73,209.74ZM182.92,494.62c-.86.09-1.64,1-2.45,1.52v1c.8.55,1.63,1.55,2.4,1.51a2.9,2.9,0,0,0,2-1.87A1.68,1.68,0,0,0,182.92,494.62Zm276.75,207.8-1,0c-.59.79-1.62,1.57-1.62,2.35a2.9,2.9,0,0,0,1.79,2,1.68,1.68,0,0,0,2.19-1.82C461,704.07,460.16,703.26,459.67,702.42Zm29.24.37a1.69,1.69,0,0,0-2,2,2.85,2.85,0,0,0,2,1.89c.8,0,1.63-1,2.45-1.53l0-.91C490.49,703.75,489.75,702.93,488.91,702.79ZM590.4,506.05c-.82-.53-1.6-1.41-2.46-1.49a1.69,1.69,0,0,0-1.89,2.14,2.88,2.88,0,0,0,2,1.84c.77,0,1.59-1,2.39-1.52Zm-407.52,8.44c-.86.12-1.62,1-2.42,1.57,0,.33,0,.65,0,1,.81.53,1.66,1.51,2.44,1.46a2.91,2.91,0,0,0,1.92-1.91A1.69,1.69,0,0,0,182.88,514.49ZM496.81,704.72a2.84,2.84,0,0,0,1.87,2c.79.07,1.68-.89,2.53-1.41l0-.91c-.75-.56-1.45-1.41-2.28-1.59A1.69,1.69,0,0,0,496.81,704.72Zm12.49-2.31-1,0c-.56.8-1.57,1.61-1.55,2.39a2.86,2.86,0,0,0,1.84,2,1.67,1.67,0,0,0,2.13-1.87C510.68,704,509.81,703.23,509.3,702.41ZM184.84,526.46c-.17-.88-1.05-1.63-1.61-2.43l-.92,0c-.51.84-1.45,1.71-1.39,2.51a2.86,2.86,0,0,0,1.9,1.91A1.68,1.68,0,0,0,184.84,526.46Zm401.21.14a2.91,2.91,0,0,0,2,1.83c.77,0,1.58-1,2.37-1.56,0-.32,0-.65,0-1-.83-.52-1.62-1.39-2.49-1.47A1.7,1.7,0,0,0,586.05,526.6Zm-57,175.8h-.94c-.54.82-1.53,1.66-1.48,2.44s1.11,1.73,1.9,1.92a1.67,1.67,0,0,0,2.07-1.94C530.53,704,529.64,703.2,529.09,702.4Zm58.8-168a1.7,1.7,0,0,0-1.84,2.19,2.91,2.91,0,0,0,2,1.8c.78,0,1.57-1,2.36-1.58l0-1C589.56,535.3,588.75,534.43,587.89,534.37Zm-48.79,168-1,0c-.56.81-1.56,1.62-1.53,2.4a2.88,2.88,0,0,0,1.85,2,1.68,1.68,0,0,0,2.12-1.89C540.49,704,539.62,703.23,539.1,702.41ZM185.62,301.11a2.92,2.92,0,0,0-1.92-1.92c-.77-.05-1.62.92-2.44,1.45,0,.32,0,.64,0,1,.8.56,1.56,1.47,2.42,1.58A1.68,1.68,0,0,0,185.62,301.11Zm-.8,245.37a1.69,1.69,0,0,0-1.85-2.17c-.86.07-1.66.94-2.49,1.46l0,1c.79.57,1.59,1.59,2.37,1.57A2.87,2.87,0,0,0,184.82,546.48Zm401.23-.14a2.93,2.93,0,0,0,1.86,2c.78.08,1.65-.88,2.49-1.38l0-1c-.79-.57-1.52-1.51-2.38-1.64A1.68,1.68,0,0,0,586.05,546.34Zm2.71-356.48a2.93,2.93,0,0,0-1.92,1.91,1.7,1.7,0,0,0,1.95,2.09c.86-.12,1.62-1,2.42-1.57v-1C590.39,190.79,589.54,189.81,588.76,189.86Zm-403.14,2a2.9,2.9,0,0,0-1.86-2c-.78-.08-1.65.88-2.49,1.39l0,1c.79.58,1.52,1.51,2.37,1.65A1.69,1.69,0,0,0,185.62,191.83Zm-4.35-9.38c.82.52,1.62,1.39,2.49,1.47a1.7,1.7,0,0,0,1.86-2.17,2.93,2.93,0,0,0-2-1.83c-.78,0-1.58,1-2.38,1.57Zm3.55,373.88a1.68,1.68,0,0,0-1.94-2.08c-.86.11-1.62,1-2.42,1.57,0,.32,0,.64,0,1,.81.53,1.66,1.51,2.43,1.46A2.89,2.89,0,0,0,184.82,556.33ZM588,554.25a1.69,1.69,0,0,0-1.91,2.12,2.88,2.88,0,0,0,2,1.87c.78,0,1.61-1,2.41-1.5v-1C589.59,555.24,588.82,554.34,588,554.25ZM180.47,566.77c.83.51,1.69,1.48,2.47,1.42a3,3,0,0,0,1.89-2,1.69,1.69,0,0,0-2-2c-.85.13-1.6,1-2.39,1.61C180.46,566.13,180.47,566.45,180.47,566.77Zm2.43,7.36c-.86.1-1.63,1-2.44,1.54v1c.81.54,1.64,1.54,2.42,1.49a2.88,2.88,0,0,0,1.94-1.89A1.68,1.68,0,0,0,182.9,574.13Zm1.92,22a1.69,1.69,0,0,0-1.9-2.13c-.86.1-1.64,1-2.45,1.52v1c.8.55,1.63,1.55,2.41,1.51A2.88,2.88,0,0,0,184.82,596.13Zm401.23-9.91a2.9,2.9,0,0,0,2,1.83c.78,0,1.59-1,2.38-1.54,0-.32,0-.64,0-1-.82-.52-1.61-1.39-2.48-1.47A1.69,1.69,0,0,0,586.05,586.22ZM184.84,605.93c-.19-.88-1.09-1.61-1.67-2.4l-.92.05c-.48.84-1.4,1.74-1.32,2.53a2.85,2.85,0,0,0,1.94,1.87A1.67,1.67,0,0,0,184.84,605.93Zm401.21,0a2.92,2.92,0,0,0,1.86,2c.77.08,1.65-.88,2.48-1.38l0-1c-.79-.58-1.52-1.51-2.37-1.65A1.69,1.69,0,0,0,586.05,606Zm0,10a2.88,2.88,0,0,0,1.87,2c.78.08,1.65-.88,2.48-1.39,0-.33,0-.65,0-1-.79-.57-1.52-1.5-2.38-1.63A1.69,1.69,0,0,0,586.05,615.92ZM588.79,174c.86-.11,1.62-1,2.42-1.57v-1c-.82-.54-1.67-1.52-2.44-1.47a2.93,2.93,0,0,0-1.93,1.92A1.69,1.69,0,0,0,588.79,174Zm-405.15,0a1.69,1.69,0,0,0,2-2,2.91,2.91,0,0,0-1.89-1.94c-.78-.07-1.64.9-2.46,1.42l0,1C182,172.93,182.78,173.85,183.64,174ZM588.79,164c.86-.11,1.62-1,2.42-1.57v-1c-.82-.53-1.66-1.5-2.44-1.45a2.91,2.91,0,0,0-1.92,1.91A1.69,1.69,0,0,0,588.79,164Zm-405.11,0a1.68,1.68,0,0,0,1.94-2.08,2.91,2.91,0,0,0-1.92-1.91c-.78-.05-1.62.92-2.44,1.45v1C182.05,163,182.81,163.93,183.68,164Zm405-23.87a2.92,2.92,0,0,0-1.85,2,1.68,1.68,0,0,0,2,2c.86-.14,1.58-1.08,2.36-1.66,0-.33,0-.65,0-1C590.35,141,589.46,140.09,588.69,140.17Zm-403.07,2a2.92,2.92,0,0,0-1.86-2c-.78-.08-1.65.88-2.49,1.38l0,1c.79.57,1.52,1.51,2.37,1.64A1.68,1.68,0,0,0,185.62,142.14Zm403.14-11.91a2.93,2.93,0,0,0-1.92,1.91,1.69,1.69,0,0,0,1.95,2.08c.86-.11,1.62-1,2.42-1.57,0-.32,0-.64,0-1C590.39,131.16,589.54,130.18,588.76,130.23ZM183,627.81a2.86,2.86,0,0,0,1.86-2,1.68,1.68,0,0,0-2-2c-.85.14-1.59,1.07-2.37,1.64l0,1C181.31,626.93,182.18,627.89,183,627.81Zm403.09-1.91a2.89,2.89,0,0,0,1.91,1.91c.78.06,1.63-.92,2.45-1.44,0-.32,0-.65,0-1-.8-.55-1.56-1.47-2.42-1.58A1.68,1.68,0,0,0,586.05,625.9Zm2.66-515.55a2.91,2.91,0,0,0-1.87,2,1.69,1.69,0,0,0,2,2c.86-.14,1.59-1.07,2.38-1.64l0-1C590.36,111.23,589.48,110.28,588.71,110.35Zm-405.07,4a1.69,1.69,0,0,0,2-2,2.91,2.91,0,0,0-1.89-2c-.77-.07-1.64.9-2.46,1.42,0,.32,0,.64,0,1C182,113.3,182.78,114.22,183.64,114.35ZM183,633.76c-.87.08-1.65,1-2.48,1.48,0,.33,0,.65,0,1,.8.56,1.61,1.57,2.39,1.54a2.88,2.88,0,0,0,2-1.84A1.69,1.69,0,0,0,183,633.76Zm403.1,2a2.89,2.89,0,0,0,1.89,1.94c.77.07,1.63-.9,2.46-1.42l0-1c-.79-.56-1.53-1.49-2.39-1.61A1.68,1.68,0,0,0,586.05,635.81ZM183.12,100c-.51.83-1.46,1.7-1.41,2.49a2.87,2.87,0,0,0,1.89,1.93,1.69,1.69,0,0,0,2-2c-.15-.87-1-1.63-1.59-2.43Zm405.65-5.51c.86-.11,1.63-1,2.44-1.55V92c-.81-.54-1.65-1.53-2.43-1.49a2.92,2.92,0,0,0-1.94,1.9A1.69,1.69,0,0,0,588.77,94.47Zm-403.15-2.1a2.89,2.89,0,0,0-1.93-1.89c-.78,0-1.62.93-2.43,1.47,0,.32,0,.64,0,1,.81.55,1.57,1.45,2.44,1.56A1.69,1.69,0,0,0,185.62,92.37ZM588.7,80.54a2.92,2.92,0,0,0-1.86,2,1.69,1.69,0,0,0,2,2c.86-.14,1.58-1.08,2.36-1.66l0-1C590.35,81.41,589.47,80.46,588.7,80.54ZM232.6,45.7h.94c.55-.82,1.56-1.66,1.51-2.45s-1.15-1.74-1.94-1.91a1.69,1.69,0,0,0-2,2C231.21,44.21,232.07,44.93,232.6,45.7Zm9.85,0,1,0c.58-.79,1.6-1.58,1.6-2.37a2.89,2.89,0,0,0-1.82-2A1.68,1.68,0,0,0,241,43.19C241.1,44.06,242,44.86,242.45,45.69Zm-58.7,247.56a1.7,1.7,0,0,0,1.87-2.17,2.92,2.92,0,0,0-2-1.82c-.77,0-1.58,1-2.38,1.54l0,1C182.1,292.29,182.89,293.17,183.75,293.25ZM520,45.71c.53-.81,1.41-1.58,1.52-2.44a1.68,1.68,0,0,0-2.09-1.92,2.87,2.87,0,0,0-1.89,1.93c0,.78,1,1.61,1.5,2.42Zm71.21,235c-.83-.51-1.7-1.46-2.48-1.39a2.91,2.91,0,0,0-1.87,2,1.69,1.69,0,0,0,2,2c.86-.14,1.59-1.07,2.38-1.64Zm-407.53-1.39c-.78,0-1.6,1-2.41,1.51,0,.32,0,.64,0,1,.82.53,1.6,1.43,2.46,1.52a1.69,1.69,0,0,0,1.9-2.13A2.94,2.94,0,0,0,183.66,279.31Zm405.11-19.87a2.92,2.92,0,0,0-1.93,1.9,1.7,1.7,0,0,0,1.94,2.09c.86-.11,1.62-1,2.43-1.56v-1C590.39,260.37,589.55,259.39,588.77,259.44Zm0-75.52c.86-.1,1.63-1,2.44-1.55v-1c-.81-.54-1.65-1.53-2.43-1.48a2.9,2.9,0,0,0-1.94,1.89A1.7,1.7,0,0,0,588.77,183.92ZM469.4,702.39l-.95,0c-.51.82-1.48,1.69-1.42,2.47a2.9,2.9,0,0,0,2,1.87,1.68,1.68,0,0,0,2-2C470.87,703.91,470,703.18,469.4,702.39Zm9.94,0-.89,0c-.54.77-1.43,1.5-1.54,2.33a1.81,1.81,0,0,0,2.07,2.09c1.35-.06,2.22-.92,2-2.18C480.8,703.82,479.9,703.13,479.34,702.38ZM183.75,134.22a1.69,1.69,0,0,0,1.87-2.16,2.93,2.93,0,0,0-2-1.83c-.78,0-1.58,1-2.38,1.55l0,1C182.1,133.27,182.89,134.15,183.75,134.22Zm402.3,442a2.93,2.93,0,0,0,1.91,1.91c.78,0,1.63-.93,2.45-1.45v-1c-.81-.55-1.56-1.46-2.42-1.57A1.68,1.68,0,0,0,586.05,576.21Zm2.69-342.6c.86-.08,1.64-1,2.46-1.5,0-.33,0-.65,0-1-.81-.55-1.63-1.55-2.41-1.52a2.86,2.86,0,0,0-2,1.86A1.68,1.68,0,0,0,588.74,233.61Zm-405-4c-.78-.07-1.64.9-2.46,1.42l0,1c.79.57,1.54,1.49,2.4,1.62a1.69,1.69,0,0,0,2-2.06A2.91,2.91,0,0,0,183.73,229.62ZM518.62,702.86a2.83,2.83,0,0,0-1.93,1.89,1.66,1.66,0,0,0,2,2c.88-.16,1.63-1,2.44-1.58l0-.93C520.26,703.75,519.4,702.8,518.62,702.86Zm-336-244a1.77,1.77,0,0,0,2.26-1.81,1.84,1.84,0,0,0-1.91-2.22c-.83,0-1.63.83-2.44,1.28,0,.3-.08.6-.11.89C181.15,457.67,181.79,458.66,182.63,458.88Zm3-336.7a2.94,2.94,0,0,0-1.94-1.89c-.78,0-1.61.95-2.42,1.48,0,.32,0,.64,0,1,.81.54,1.58,1.44,2.45,1.55A1.69,1.69,0,0,0,185.62,122.18ZM469.26,45.69l.89,0c.58-.74,1.48-1.41,1.65-2.24.27-1.27-.58-2.13-1.93-2.21a1.8,1.8,0,0,0-2.1,2C467.87,44.16,468.74,44.9,469.26,45.69ZM549,702.39h-1c-.54.83-1.53,1.69-1.47,2.48a2.87,2.87,0,0,0,2,1.87,1.69,1.69,0,0,0,2-2.06C550.38,703.86,549.51,703.16,549,702.39Zm39-213.72c.78,0,1.6-1,2.4-1.52,0-.32,0-.65,0-1-.82-.53-1.6-1.41-2.47-1.5a1.69,1.69,0,0,0-1.89,2.13A2.89,2.89,0,0,0,588,488.67ZM182.41,613.47c-.54.82-1.52,1.66-1.49,2.45a2.81,2.81,0,0,0,1.82,2,1.67,1.67,0,0,0,2.1-1.91c-.13-.89-1-1.67-1.51-2.5ZM586.05,496.76a2.91,2.91,0,0,0,2,1.85c.77,0,1.59-1,2.39-1.53l0-1c-.82-.53-1.6-1.41-2.47-1.49A1.69,1.69,0,0,0,586.05,496.76Zm-401.21,9.88c-.15-.89-1-1.66-1.55-2.48h-.92c-.53.83-1.5,1.67-1.46,2.47a2.83,2.83,0,0,0,1.86,1.95A1.66,1.66,0,0,0,184.84,506.64Zm401.21,9.94a3,3,0,0,0,1.92,1.91c.77,0,1.62-.93,2.44-1.45,0-.33,0-.65,0-1-.81-.56-1.56-1.47-2.42-1.58A1.7,1.7,0,0,0,586.05,516.58ZM183.63,213.72a1.68,1.68,0,0,0,2-2c-.16-.88-1.06-1.61-1.62-2.41l-.93,0c-.5.84-1.44,1.72-1.36,2.5A2.82,2.82,0,0,0,183.63,213.72ZM182.39,534c-.53.82-1.51,1.66-1.48,2.46a2.87,2.87,0,0,0,1.84,2,1.67,1.67,0,0,0,2.09-1.93c-.14-.88-1-1.66-1.53-2.49Zm69.26,168.44c-.52.77-1.37,1.5-1.49,2.34a1.69,1.69,0,0,0,2.06,2,2.87,2.87,0,0,0,1.92-1.93c0-.78-1-1.62-1.54-2.43ZM588.71,203.79c.86-.07,1.66-.94,2.48-1.46l0-1c-.79-.56-1.6-1.58-2.38-1.56a2.9,2.9,0,0,0-2,1.83A1.69,1.69,0,0,0,588.71,203.79Zm-.78,439.91a1.69,1.69,0,0,0-1.88,2.15,2.91,2.91,0,0,0,2,1.84c.77,0,1.59-1,2.38-1.54l0-1C589.58,644.66,588.79,643.78,587.93,643.7Zm.1-79.51a1.68,1.68,0,0,0-2,2,2.89,2.89,0,0,0,1.89,1.94c.77.07,1.64-.9,2.46-1.42l0-1C589.63,565.23,588.89,564.31,588,564.19Zm1-443.93a1.77,1.77,0,0,0-2.26,1.81,1.83,1.83,0,0,0,1.91,2.22c.83,0,1.63-.82,2.44-1.27,0-.3.08-.6.11-.89C590.52,121.48,589.88,120.49,589,120.26Zm-267-74.55H323c.54-.82,1.54-1.67,1.48-2.46s-1.17-1.73-2-1.89a1.69,1.69,0,0,0-2,2C320.66,44.23,321.54,44.94,322.08,45.71Zm-10.06,0,1,0c.58-.8,1.61-1.61,1.6-2.4s-1.09-1.78-1.87-2a1.69,1.69,0,0,0-2.11,2C310.69,44.14,311.52,44.9,312,45.68Zm-19.82,0,.95,0c.56-.82,1.58-1.65,1.54-2.44s-1.13-1.75-1.92-1.93a1.7,1.7,0,0,0-2.06,2C290.83,44.19,291.68,44.92,292.2,45.7ZM184,199.36l-.92,0c-.51.83-1.46,1.69-1.4,2.48a2.85,2.85,0,0,0,1.89,1.93,1.69,1.69,0,0,0,2-2C185.48,200.91,184.6,200.16,184,199.36ZM549.75,45.71c.55-.76,1.43-1.46,1.57-2.29a1.69,1.69,0,0,0-2-2.07,2.9,2.9,0,0,0-2,1.87c-.05.79.94,1.65,1.47,2.48Zm39,58.7c.86-.09,1.64-1,2.46-1.51,0-.32,0-.64,0-1-.81-.55-1.63-1.55-2.41-1.52a2.87,2.87,0,0,0-2,1.85A1.69,1.69,0,0,0,588.74,104.41Zm-346.94,598c-.55.76-1.43,1.46-1.58,2.29a1.7,1.7,0,0,0,2,2.07,2.89,2.89,0,0,0,2-1.87c.06-.78-.93-1.65-1.46-2.48ZM180.47,586.64c.82.52,1.69,1.48,2.47,1.42a2.93,2.93,0,0,0,1.89-1.94,1.7,1.7,0,0,0-2-2.06c-.86.13-1.61,1.05-2.4,1.62Zm407.51,71c.78,0,1.62-.94,2.43-1.47v-1c-.8-.54-1.57-1.45-2.43-1.55a1.68,1.68,0,0,0-1.93,2.09A2.9,2.9,0,0,0,588,657.63Zm-403.14,8c-.14-.89-1-1.67-1.53-2.49l-.92,0c-.53.82-1.51,1.66-1.48,2.46a2.85,2.85,0,0,0,1.84,2A1.66,1.66,0,0,0,184.84,665.68Zm96.73,36.71c-.55.8-1.46,1.54-1.59,2.4a1.68,1.68,0,0,0,2,2c.78-.18,1.88-1.18,1.93-1.89s-.91-1.63-1.43-2.46ZM586.05,596a2.92,2.92,0,0,0,1.87,2c.78.07,1.65-.89,2.47-1.4l0-1c-.79-.57-1.52-1.5-2.38-1.63A1.69,1.69,0,0,0,586.05,596Zm2.89-445.93a2.89,2.89,0,0,0-2.09,1.73,1.71,1.71,0,0,0,1.77,2.26c.86,0,1.7-.87,2.55-1.35l.06-1C590.47,151.18,589.71,150.13,588.94,150.11ZM528.89,45.69l.94,0c.56-.8,1.59-1.62,1.55-2.4s-1.1-1.77-1.89-2a1.68,1.68,0,0,0-2.08,2C527.51,44.16,528.37,44.9,528.89,45.69ZM321.57,702.8c-1.22-.16-1.94.82-1.88,2s.92,2.21,2.21,1.93c.84-.19,1.52-1.07,2.27-1.64l0-.89A8.27,8.27,0,0,0,321.57,702.8ZM183.72,154.1a1.69,1.69,0,0,0,1.9-2.13,2.9,2.9,0,0,0-2-1.86c-.78,0-1.6,1-2.41,1.51v1C182.08,153.12,182.86,154,183.72,154.1Zm227.12,272c-7,11.1-7.92,23-2.42,35.05A12.21,12.21,0,0,0,420,468.82c5.95.15,9.91-2.62,12.56-7.72a31.54,31.54,0,0,0,3.24-14.78c0-7.52-2.15-15.29-5.74-20.34C424.22,417.79,416.21,417.61,410.84,426.11Zm3.59,23.42.31-.28,4.49,6.9c.22-7.2.43-14.12.65-21h.93c.89,6.88.12,13.89,1,20.85l4.33-6.7.34.23-6,13.57C418.32,458.29,416.38,453.91,414.43,449.53Zm14.3,8.09c-1,2.57-2.56,4.84-5.56,5.79,1.57-3.32,3.21-6.62,4.68-10a29.92,29.92,0,0,0,1.92-5.78c.17-.78-.34-2.31-.89-2.5-.79-.28-1.93.27-2.86.63-.52.2-.9.74-1.53,1.29-.21-3.63-.24-6.94-.64-10.2a13.39,13.39,0,0,0-1.66-4.8c-.94-1.69-2.42-1.75-3.42-.09a13,13,0,0,0-1.76,5c-.42,3.25-.44,6.55-.64,10.06a25.43,25.43,0,0,0-2-1.61c-1.86-1.2-3.4-.46-3.27,1.72a13.06,13.06,0,0,0,1.12,4.55c1.73,3.93,3.65,7.78,5.22,12-.61-.36-1.4-.59-1.79-1.12-1.34-1.78-2.95-3.52-3.7-5.55-3.42-9.33-3.1-18.6,1.57-27.46a20.07,20.07,0,0,1,4.52-5.15,3.53,3.53,0,0,1,4.92,0,18,18,0,0,1,4.2,4.66C432.13,438.29,432.46,447.89,428.73,457.62Zm4.66,84.13a2.86,2.86,0,0,0,2.95-3,2.92,2.92,0,0,0-2.92-3.09,3.06,3.06,0,0,0-3,3.07A3,3,0,0,0,433.39,541.75Zm-26.17-6.14a3,3,0,0,0-2.69,3.32,2.81,2.81,0,0,0,3,2.82,3,3,0,0,0,3-3.1A3.08,3.08,0,0,0,407.22,535.61Zm8.82,3.91a3.05,3.05,0,0,0-2.93,3.12,2.81,2.81,0,0,0,3,3,3,3,0,0,0-.06-6.07Zm8.74,0a2.87,2.87,0,0,0-2.83,3,2.9,2.9,0,0,0,2.85,3.12,2.83,2.83,0,0,0,2.95-3A3,3,0,0,0,424.78,539.53Zm-50-423.33a3.65,3.65,0,0,0,2.18,1.54c.63,0,1.58-.88,1.9-1.59a7.6,7.6,0,0,0,.38-2.92c.05-2,0-4,0-5.34l3.85-4.21c2.85,4.17,5.62,8.35,8.53,12.43,1.74,2.44,3.3,2.91,4.71,1.77s1.15-2.62-.51-4.92l-9.45-13.08c3.42-4.12,6.68-7.95,9.83-11.86.91-1.13,2.34-2.59.81-4s-2.93.18-4,1.28c-4.12,4.3-8.17,8.66-12.22,13a6.07,6.07,0,0,0-.77,1.55l-.65-.56c-.4-5.07.2-10.25-1.43-15.4l-3.09.23a43.31,43.31,0,0,0-.48,4.31c0,8.54,0,17.08,0,25.62A3.79,3.79,0,0,0,374.82,116.2Z"/></svg>