<svg xmlns="http://www.w3.org/2000/svg" viewBox="0 0 750 750"><path d="M522.35,389.91c1.33-3.34.25-8,6.11-8.39-5.85-.4-4.78-5.17-6-9.08-.91,4,0,8.6-5.68,9a6.7,6.7,0,0,0,1.5.58,4,4,0,0,1,3.46,4C521.85,387.29,522.15,388.6,522.35,389.91ZM526,205.5c.09,1.13.37,2.24.57,3.36h.4c.28-1.72.16-3.68,1-5.09s2.52-2.12,3.81-3.12c-3.06-.23-4.37-2.27-4.43-5.4a17.27,17.27,0,0,0-.38-2.34c-1.08,3.37-.55,7.52-6.15,7.88a10.86,10.86,0,0,0,1.49.56C524.65,201.73,525.8,203.14,526,205.5Zm-24.82-57.76a5.93,5.93,0,0,1-3.41-5c-.25-2.49-.75-5-1.15-7.45-.25-1.54-.51-3.07-.77-4.61h-.44c-.55,3.29-1.42,6.57-1.56,9.88-.23,5.25-3.21,7.66-7.82,8.82l-3.54.86c2.4.82,4.63,1.45,6.75,2.34a6.45,6.45,0,0,1,4.26,5.68c.43,3.95,1.26,7.85,1.92,11.77a50.7,50.7,0,0,0,2.12-10.73c.27-4.28,2.69-6.38,6.39-7.56,1.5-.48,3-.87,5.07-1.45-1.75-.43-3-.65-4.16-1.05A27.1,27.1,0,0,1,501.17,147.74Zm10.57,112c-.22-2.23-.64-4.46-1-6.68-.3-1.85-.64-3.69-1-5.53a60.62,60.62,0,0,0-2.19,11.19c-.35,4-2.7,6-6.15,7.12-1.57.52-3.18.91-4.83,1.37,2.43.86,4.78,1.54,7,2.52a6,6,0,0,1,3.77,5.17c.49,4.05,1.3,8.06,2.07,12.65A10.4,10.4,0,0,0,510,286c.56-3.4,1.31-6.78,1.57-10.2.28-3.67,2.27-5.66,5.46-6.79,1.79-.63,3.63-1.11,5.35-1.63-2.38-.88-4.83-1.65-7.17-2.68A5.66,5.66,0,0,1,511.74,259.77Zm4.7,215.81a23.45,23.45,0,0,0-.47-2.72c-1.06,3.31-.26,7.67-5.56,8.1a9.78,9.78,0,0,0,1.25.44,4,4,0,0,1,3.46,4c.08,1.18.34,2.35.52,3.53.68-1.77.59-3.75,1.44-5.18s2.6-2.13,3.82-3.06C518.09,480.49,516.62,478.65,516.44,475.58ZM293.73,656.68c2.41,5,7.94,5.67,11.84,1.73,3.13-3.16,4-7.27,4.21-11.47.05-.79-1.21-2.16-2.08-2.38a30.28,30.28,0,0,0-6.11-.57c-1.49,0-2.62.62-2.71,2.27s1.1,2.31,2.52,2.5c1.17.16,2.35.16,3.9.26a35,35,0,0,1-1.48,3.85c-.88,1.65-2,3.41-4.14,3.17s-2.56-2.3-3-4a41.74,41.74,0,0,1-.9-15.38c.56-4,1.52-8,4.39-11.09,1-1.09,2.26-1.91,3.9-1.27a3.88,3.88,0,0,1,2.38,3.36c.14.75.92,1.38,1.41,2.06.64-.63,1.65-1.16,1.86-1.9,1.23-4.49-3.38-8.74-8-7.39a10.74,10.74,0,0,0-6.28,5.19c-4.19,7.14-4.79,14.93-3.91,22.89A25.15,25.15,0,0,0,293.73,656.68Zm40.21-101.23c1.62-.54,3.29-1,5-1.44-2.38-.8-4.67-1.43-6.85-2.35a5.93,5.93,0,0,1-4-5.42,40.1,40.1,0,0,0-.66-4.31c-.42-2.57-.86-5.14-1.29-7.71a70.53,70.53,0,0,0-2.37,11.84,6.62,6.62,0,0,1-4.6,5.86c-2,.8-4.12,1.35-6.19,2,2.26.77,4.5,1.39,6.61,2.28a6.36,6.36,0,0,1,4.16,5.55c.45,4,1.28,8,1.94,12a51.63,51.63,0,0,0,2.17-10.89C328.13,558.74,330.38,556.63,333.94,555.45Zm1.66-252.37c2.66.23,5.33.35,8,.35.39,0,1-.85,1.08-1.36.05-.35-.61-1.05-1.07-1.17a29.64,29.64,0,0,0-3.55-.53c-1.53.16-2.92.23-4.27.48-.42.07-1.07.64-1,.93C334.77,302.26,335.26,303.06,335.6,303.08ZM332.91,45.32a1.84,1.84,0,0,0,1.88-2.25c-.13-.8-1-1.48-1.51-2.21l-1,0c-.49.77-1.28,1.5-1.39,2.33A1.75,1.75,0,0,0,332.91,45.32Zm81.77,13.91c2.43.51,4-1,3.33-3.38a39,39,0,0,0-1.6-4.11c2.81-.33,5.53-.49,8.18-1a12.58,12.58,0,0,0,4.53-1.85c1.68-1.14,1.45-3-.37-4a10.48,10.48,0,0,0-3.34-1.21c-3.38-.49-6.77-.81-10.17-1.2.62-1.41,1.42-2.93,1.95-4.53s.8-3.22-.79-4.36-3.13-.33-4.33.74c-3.45,3.09-6.27,6.55-6.78,11.46C404.76,51.05,409.62,58.16,414.68,59.23Zm-.15-23.09c.07,4.32-2.41,7.37-6.21,7.71A18.81,18.81,0,0,1,414.53,36.14ZM427.4,47.08a34.14,34.14,0,0,1-19.47.06C411.89,44.84,423.92,44.82,427.4,47.08ZM415.27,56.9c-3.24-1.07-5.18-3.45-7-6.36C412.88,50.94,415.47,53.29,415.27,56.9ZM340,165.1a4.12,4.12,0,0,1,3.69,4.19c.06,1.17.34,2.34.51,3.51,1.33-3.17.21-7.7,5.85-8.1-5.68-.39-4.48-5-5.7-8.53-1,3.61,0,8.08-5.92,8.35A16,16,0,0,0,340,165.1ZM279.57,583.84c-5.57-.2-4.72-4.71-5.81-7.88-.82,3.41-.33,7.52-5.69,7.94,5.38.3,4.87,4.43,5.75,7.82C274.66,588.33,274.25,584.21,279.57,583.84Zm65.26-534a23.11,23.11,0,0,0,5.75,1.38c1.78.28,3.6.31,5.54.47-.57,1.27-1.1,2.32-1.51,3.42-.47,1.28-.86,2.86.53,3.57a4.79,4.79,0,0,0,3.66.11,14.57,14.57,0,0,0,7.83-8.27,8.7,8.7,0,0,0,.69-3.47c-.27-5.37-3.11-9.4-7.07-12.74-1.18-1-2.63-1.75-4.17-.72s-1.38,2.79-.89,4.31,1.33,3.14,2.12,4.93a18.53,18.53,0,0,0-2.49,0c-3.32.47-6.68.83-9.92,1.6-1,.25-2.56,1.72-2.49,2.5A4.45,4.45,0,0,0,344.83,49.81Zm12.31,7.09c-.2-3.59,2.39-5.95,7.05-6.37C362.33,53.44,360.39,55.83,357.14,56.9Zm6.79-13.16c-3.51.09-6-2.86-6.09-7.26C360,37.26,362.7,40.52,363.93,43.74Zm.55,3.41a34.39,34.39,0,0,1-19.29,0C347.86,44.81,360.65,44.78,364.48,47.15ZM378.19,57a3.3,3.3,0,0,0,2.44.62c.34-.06.66-1.39.63-2.13a7.06,7.06,0,0,1,2.56-6.15,3.34,3.34,0,0,1,4.36-.18,6.58,6.58,0,0,1,2.93,6.49c-.05.68.21,1.74.68,2a2.34,2.34,0,0,0,2.1-.36,11,11,0,0,0,.91-15.8,11,11,0,0,0-12.42-3.18,11.22,11.22,0,0,0-7.6,10.56A10.33,10.33,0,0,0,378.19,57Zm3.25-14.2c3.1-2.38,6.48-2.28,9.8.31A6.61,6.61,0,0,1,393.48,51c-3.82-7.79-10.78-7.45-14.55,0A6.87,6.87,0,0,1,381.44,42.8Zm-36.37,350a81.53,81.53,0,0,0-8.43,3.65c-.4.2-.63,1.35-.46,1.91s.95.9,1.41,1.3c3.46-1.08,6.46-2.41,8.45-5.25C346.7,393.5,346.14,392.45,345.07,392.83Zm-16.82,6.62c-2.85,1-5.67,2.17-8.41,3.45a2.09,2.09,0,0,0-.67,2c.27.61,1.21.93,1.78,1.32a20.09,20.09,0,0,0,8.57-4.15c.53-.47.61-1.44.9-2.17C329.69,399.7,328.85,399.24,328.25,399.45ZM256.71,660c1.74.08,2.07-1.34,2.18-2.74s.21-2.51.22-3.76c.05-6,.07-11.92.1-17.88,0-.53.06-1.05.09-1.58,1.67,4.49,2.86,9,4.21,13.52,1,3.22,2,6.44,3.3,9.55a4,4,0,0,0,2.55,2.27c1.57.19,2-1.4,2.27-2.75a18.2,18.2,0,0,0,.26-2.56c.14-4,.21-7.94.37-11.91.26-6.41.59-12.82.82-19.24,0-.6-.49-1.22-.75-1.83-.54.47-1.39.86-1.55,1.44a50.77,50.77,0,0,0-1.31,6.21c-.72,5-1.35,9.94-2,14.91h-.29c-.3-.86-.6-1.73-.88-2.6a73.86,73.86,0,0,0-7.81-17.53c-.37-.57-1.16-.88-1.75-1.3a6.3,6.3,0,0,0-1.08,2,54.65,54.65,0,0,0-.49,6.13c-.14,6.22-.21,12.45-.31,18.67q-.06,4-.1,7.94C254.72,658.36,254.81,659.88,256.71,660ZM358.19,386c-2.11-.5-6.84,1.87-7.6,3.88a2.34,2.34,0,0,0,.24,2,1.85,1.85,0,0,0,1.75.35,46.54,46.54,0,0,0,5.28-3.11c.6-.41.88-1.27,1.45-2.16C358.87,386.5,358.57,386,358.19,386ZM317.81,299.1c2.53,1.08,5.15,2,7.87,3l2.6-1.39c-.62-.75-1.09-1.89-1.88-2.18a58.47,58.47,0,0,0-7.62-2.12,2.24,2.24,0,0,0-1.82,1C316.77,297.71,317.33,298.9,317.81,299.1Zm-20.5-9.9c2.39,1.53,4.94,2.81,7.45,4.13A13.77,13.77,0,0,0,307,294c.46-.28,1.27-.51,1.43-1a2.28,2.28,0,0,0-.51-1.74,4.5,4.5,0,0,0-1.59-1.14c-2.54-1.27-5.11-2.51-7.67-3.73-1-.46-2.22-1.09-2.68.28C295.81,287.37,296.6,288.75,297.31,289.2Zm79.51-171.5c2.27-.13,2.22-1.93,2.3-3.51.11-1.85.05-3.71.12-5.56a2.92,2.92,0,0,1,.38-1.67c1.12-1.36,2.38-2.62,3.66-4,1.35,2.4,2.4,4.55,3.71,6.52,1.72,2.59,3.61,5.07,5.51,7.54.93,1.21,2.24,1.82,3.64.82s1.23-2.51.35-3.86c-.76-1.16-1.63-2.26-2.44-3.39l-7.79-10.89c1.07-1.24,2-2.31,3-3.42,2.6-3.18,5.25-6.31,7.72-9.59.44-.59.1-1.78.12-2.69-.95.09-2.1-.13-2.82.33a18.62,18.62,0,0,0-3.15,3c-3.85,4.08-7.68,8.18-11.86,12.63,0-1.38,0-2.3,0-3.23-.23-3.69-.39-7.41-.83-11.08-.08-.73-1.29-1.34-2-2-.57.7-1.46,1.33-1.63,2.11a24.64,24.64,0,0,0-.36,4.94q0,11.73.11,23.46C374.56,116.59,375.33,117.79,376.82,117.7ZM251.94,447.32a13.49,13.49,0,0,0,1.7.64c2.52.44,3.72,2,3.85,4.48a29.32,29.32,0,0,0,.52,3.34c1.2-3.4.45-7.92,6.12-8.31-5.65-.34-4.9-4.8-6-8.17C257.35,442.8,257.85,447.09,251.94,447.32ZM283.5,185.57a5.77,5.77,0,0,1-3.28-4.48q-1.37-8.64-2.77-17.26a12.92,12.92,0,0,0-.38-1.31c-1.27,5.81-2.34,11.54-3.1,17.31a7.45,7.45,0,0,1-4.08,6.15,52.48,52.48,0,0,1-6.77,2.76,39.87,39.87,0,0,1-4.36,1,3.64,3.64,0,0,0,1.4.66c3.3,1.14,6.67,2.1,9.85,3.52,2.41,1.08,3.59,3.23,4,6,.77,5.83,1.84,11.62,2.78,17.42l.41,0c.09-.37.21-.73.27-1.11.87-5.36,1.91-10.7,2.54-16.08a8.33,8.33,0,0,1,5-6.85,28,28,0,0,1,4.41-1.77c1.93-.59,3.92-1,5.88-1.48a9.67,9.67,0,0,0-2-.69C290,188.1,286.66,187,283.5,185.57ZM415,76.16H355.58v49.55H415Zm-4,45.46H359.76V80.31H411Zm21.65,207a34.32,34.32,0,0,0-.64-4c-.67,1.76-.63,3.73-1.43,5.29s-2.36,2.48-3.52,3.61c3.25,1,3.4,1.24,4,5,.16,1.08.45,2.15.79,3.69,1.17-3.74-.17-8.31,5.82-8.81a14,14,0,0,0-1.5-.67A4.07,4.07,0,0,1,432.63,328.58ZM589,183.83c.81-.13,1.49-1,2.23-1.6,0-.31,0-.62,0-.93-.77-.48-1.51-1.26-2.34-1.38a1.71,1.71,0,0,0-2,1.92A1.8,1.8,0,0,0,589,183.83Zm-.05,49.71c.81-.12,1.52-1,2.27-1.54,0-.31,0-.62,0-.93-.76-.51-1.48-1.31-2.3-1.45a1.72,1.72,0,0,0-2,1.87C586.82,232.84,587.66,233.71,588.91,233.54Zm-2,47.63a1.66,1.66,0,0,0,1.94,2.07c.81-.09,1.54-.95,2.31-1.47,0-.31,0-.62,0-.94-.75-.52-1.55-1.52-2.24-1.45A2.94,2.94,0,0,0,586.92,281.17Zm2-21.67a2.91,2.91,0,0,0-2,1.83,1.67,1.67,0,0,0,2,2c.81-.12,1.52-1,2.27-1.54,0-.31,0-.62,0-.93C590.4,260.38,589.58,259.41,588.89,259.5Zm.07,33.68c.81-.14,1.49-1,2.23-1.6,0-.31,0-.62,0-.93-.78-.48-1.51-1.26-2.34-1.38a1.71,1.71,0,0,0-2,1.92C586.85,292.53,587.71,293.4,589,293.18ZM591.17,251c-.77-.51-1.59-1.48-2.28-1.39a2.88,2.88,0,0,0-2,1.84,1.66,1.66,0,0,0,2,2c.82-.12,1.52-1,2.27-1.54Zm-2.2-7.47c.81-.15,1.48-1,2.22-1.61l0-.93a7.24,7.24,0,0,0-2.35-1.38,1.72,1.72,0,0,0-2,1.94C586.86,242.83,587.72,243.7,589,243.48Zm0,29.82c.82-.14,1.5-1,2.24-1.59,0-.31,0-.62,0-.93-.77-.49-1.5-1.28-2.33-1.4a1.72,1.72,0,0,0-2,1.92C586.85,272.64,587.71,273.51,589,273.3Zm-.06-162.92a2.9,2.9,0,0,0-2,1.84,1.67,1.67,0,0,0,2,2c.81-.12,1.52-1,2.27-1.55,0-.31,0-.62,0-.93C590.4,111.26,589.58,110.29,588.89,110.38Zm0-16c.81-.12,1.5-1,2.25-1.56,0-.31,0-.62,0-.93-.77-.5-1.6-1.46-2.3-1.37a2.93,2.93,0,0,0-2,1.85A1.67,1.67,0,0,0,588.93,94.36Zm-1,214.85c-.24.4-1,1.1-1,1.84-.09,1.35.56,2.53,2.16,2.47a1.78,1.78,0,0,0,1.77-2.15C590.74,310,590.12,309.14,587.93,309.21Zm-1-187.15a1.67,1.67,0,0,0,1.9,2.12c.81-.07,1.55-.91,2.33-1.41,0-.31,0-.63,0-.94-.74-.54-1.51-1.56-2.2-1.51A2.93,2.93,0,0,0,586.92,122.06Zm1.94,181.07c.82-.1,1.54-1,2.3-1.49,0-.31,0-.62,0-.93-.75-.52-1.45-1.34-2.27-1.49a1.71,1.71,0,0,0-2.07,1.82C586.79,302.38,587.61,303.28,588.86,303.13Zm0-198.83c.81-.11,1.52-1,2.27-1.52v-.93c-.76-.51-1.58-1.49-2.27-1.41a2.93,2.93,0,0,0-2,1.82A1.67,1.67,0,0,0,588.9,104.3Zm0,65.73a2.88,2.88,0,0,0-2,1.79,1.67,1.67,0,0,0,1.94,2.07c.82-.1,1.54-1,2.31-1.48v-.93C590.43,171,589.63,170,588.94,170Zm-.14-39.81c-1.17-.17-2,.66-2,1.92s.88,2.2,2.13,2c.8-.14,1.48-1,2.22-1.6,0-.31,0-.62,0-.93C590.37,131.11,589.63,130.33,588.8,130.22Zm0,10a2.92,2.92,0,0,0-1.89,1.9,1.67,1.67,0,0,0,2.07,1.95c.8-.16,1.47-1.07,2.2-1.64l0-.93C590.36,141,589.5,140.1,588.81,140.22Zm.17,19.86a3,3,0,0,0-2.06,1.75,1.67,1.67,0,0,0,1.9,2.12c.81-.08,1.56-.92,2.33-1.42,0-.31,0-.63,0-.94C590.45,161.05,589.67,160,589,160.08Zm-.44,166.4c-.32-1.74-.71-4-3.08-4.06s-3,2.16-3.39,4c-.63,3.16-1,6.37-1.5,9.69a12.55,12.55,0,0,0-3.1-1.33,5.64,5.64,0,0,0-3.63.4c-1.33.89-.86,2.53-.21,3.81a15.4,15.4,0,0,0,8,7.61,10.12,10.12,0,0,0,4.05.76c5-.22,8.74-3,12-6.51a6.57,6.57,0,0,0,1.33-2.19c.73-2-.44-3.81-2.54-3.6a23.87,23.87,0,0,0-5.07,1.49,8,8,0,0,0-1.48.77C589.52,333.64,589.19,330,588.54,326.48Zm-13,10.76c3.63-.2,6,2.41,6.38,7C579,342.53,576.67,340.49,575.51,337.24Zm9.89,7.39c-2.14-3.48-2-16,.25-19.09C587.71,328.86,587.55,341.68,585.4,344.63Zm11-6.72a19.33,19.33,0,0,1-7.69,6.29C588.67,340.47,591.39,338.18,596.35,337.91ZM589,223.59c.82-.14,1.48-1.05,2.22-1.61l0-.93c-.78-.48-1.63-1.41-2.33-1.3a2.87,2.87,0,0,0-1.9,1.89A1.66,1.66,0,0,0,589,223.59Zm-7.5,146.5a22.91,22.91,0,0,1-4.51,1.13c-.76.19-2.07.31-2.15.66a3.19,3.19,0,0,0,.61,2.43,10.28,10.28,0,0,0,8.13,3.44,11.44,11.44,0,0,0,2.17-22.66,10.51,10.51,0,0,0-10.29,3.23,3.13,3.13,0,0,0-.62,2.43c.08.35,1.39.47,2.16.64a6.5,6.5,0,0,0,1,0c2.67.07,5.35,1.93,6,4.14C584.33,366.8,583.22,369.26,581.47,370.09Zm-.26-11a7,7,0,0,1,8.32,2.3,7.31,7.31,0,0,1,.37,9.16c-2,3-4.86,4.13-8.68,3.06,3.24-1.57,6-3.6,6-7.23S584.72,360.44,581.21,359.11Zm7.62-145.46c.82-.08,1.55-.93,2.32-1.43,0-.32,0-.63,0-.94-.74-.53-1.52-1.54-2.21-1.48a2.91,2.91,0,0,0-2.05,1.75A1.67,1.67,0,0,0,588.83,213.65Zm0-9.94c.81-.09,1.54-.94,2.31-1.45,0-.32,0-.63,0-.94-.75-.53-1.54-1.53-2.23-1.47a2.93,2.93,0,0,0-2,1.77A1.67,1.67,0,0,0,588.85,203.71Zm.13-9.94c.81-.15,1.48-1.06,2.21-1.63,0-.31,0-.62,0-.93-.79-.47-1.53-1.25-2.36-1.36a1.72,1.72,0,0,0-1.95,2C586.87,193.14,587.73,194,589,193.77ZM322.45,45.17a3,3,0,0,0,1.94-1.9c.1-.7-.88-1.55-1.37-2.33h-.93c-.54.76-1.4,1.48-1.53,2.32A1.58,1.58,0,0,0,322.45,45.17ZM588.88,154c.81-.1,1.53-1,2.29-1.5,0-.31,0-.62,0-.94-.76-.51-1.46-1.33-2.29-1.48a1.72,1.72,0,0,0-2,1.84C586.8,153.28,587.63,154.17,588.88,154ZM439.47,45.32a1.75,1.75,0,0,0,2-2.06c-.1-.83-.88-1.58-1.35-2.36l-1,0c-.55.72-1.43,1.38-1.57,2.17A1.86,1.86,0,0,0,439.47,45.32ZM568.13,638.24c-.06-1.8-1.58-2.48-3-3a16.77,16.77,0,0,0-3.26-.83c-2.42-.33-4.86-.54-7.53-.82.52-1.17,1.05-2.23,1.47-3.33.47-1.27.89-2.85-.5-3.58a4.74,4.74,0,0,0-3.66-.14,14.26,14.26,0,0,0-7.82,8.29,11.61,11.61,0,0,0-.52,4.44c.19,4.54,2.86,7.85,5.84,10.9,2,2,3.95,2.5,5.26,1.55s1.52-2.89.44-5.5c-.51-1.22-1.14-2.4-1.54-3.24,4-.62,7.92-1.13,11.8-1.87C566.53,640.82,568.19,640.18,568.13,638.24Zm-14.92-9.84a6,6,0,0,1-6.92,6.24C548,631.87,550,629.52,553.21,628.4Zm-7,13c3.94.42,6.12,3.07,6.37,7.8A19.41,19.41,0,0,1,546.24,641.43Zm-.48-3.14c3.93-2.11,15.65-2,19.21.14C562.22,640.54,549.38,640.5,545.76,638.29Zm-15.45,14.55c-1.94.36-3.36-1-4.09-3.35-.23-.74-1.23-1.24-1.88-1.85-.64.82-1.71,1.58-1.83,2.46-.51,3.64,2.81,7.17,6.46,7.14,5.1,0,8.23-3.23,8.59-8.7.32-4.78-1.68-8.56-5-11.85a31.62,31.62,0,0,1-4.93-5.64,9,9,0,0,1-.83-5c0-.76,1.32-1.87,2.18-2a3.15,3.15,0,0,1,2.44,1.45c.8,1.33,1.07,3,1.77,4.39.32.65,1.15,1,1.75,1.56.45-.65,1.26-1.28,1.28-2a9.41,9.41,0,0,0-2.64-7.44,6.07,6.07,0,0,0-7.83-.67c-3.48,2.43-5,7.21-2.92,10.88,2,3.46,4.79,6.43,7,9.78a24.2,24.2,0,0,1,3,6.32A3.83,3.83,0,0,1,530.31,652.84ZM501.5,628.72c.27,8.26.51,16.54.89,24.8.17,3.7,1.62,4.36,4.64,2.39a26.68,26.68,0,0,0,11.67-17.1,20.34,20.34,0,0,0-.3-11.18c-2.59-7.77-10.8-10.5-17.46-5.76A3.56,3.56,0,0,0,499.5,624c-.05.43,1.07,1,2,1.79C501.49,626.48,501.46,627.6,501.5,628.72Zm12.53-.88c1.46,3.44,1.2,7,.31,10.5-1.11,4.43-3.59,8-7,11.39-.48-8.83-.95-17.42-1.43-26.12C509.81,623,512.56,624.39,514,627.84ZM577.08,76.25V319c2.91-1.33,4.3-2.93,4.2-6.17-.27-8.54-.09-17.09-.09-25.64V72.88c-12.6-2.37-21-8.52-21.92-22.29h-3.86c-38.16,0-76.33,0-114.49-.09-3.4,0-4.89,2.12-6.83,4.22H555.7C558.43,66.39,564.85,74.1,577.08,76.25Zm-288,548.12a2.1,2.1,0,0,0,2.27-2c.1-1.4-.93-1.84-2.06-1.88-2.71-.07-5.42-.08-8.13,0a7.33,7.33,0,0,0-3.47.57c-.85.51-1.25,1.79-1.84,2.73a13.12,13.12,0,0,0,2.5,1.1,9.41,9.41,0,0,0,2.39-.09v30.72a17.34,17.34,0,0,0-3.63.56c-.71.29-1.62,1.17-1.64,1.8a2.39,2.39,0,0,0,1.62,1.72c3.63.16,7.28.15,10.91,0,.62,0,1.71-1,1.67-1.51a3,3,0,0,0-1.48-2,10.37,10.37,0,0,0-2.88-.65v-31C286.73,624.38,287.9,624.42,289.07,624.37Zm198.25,21.49c.86,2,1.54,4.07,2.54,5.92a24.76,24.76,0,0,0,3.55,5.18,3.25,3.25,0,0,0,3.06.65c1.13-.72,1.2-2.09.34-3.49-1.82-3-3.4-6.13-5.16-9.16a1.9,1.9,0,0,1,.45-2.71,15.52,15.52,0,0,0,5-11.88c-.11-4.15-1.74-7.52-5.63-9.32s-7.52-.8-10.82,1.62c-1.89,1.38-1.92,2-.65,4a2,2,0,0,1,.23.92q.11,9.32.19,18.65c0,3.17,0,6.35.15,9.51a2.74,2.74,0,0,0,1.08,1.9c1.75,1.11,3.33.33,3.51-1.82.22-2.62.21-5.28.18-7.92C485.37,646.54,485.79,645.85,487.32,645.86ZM485,632.49c-.11-2.18-.21-4.37-.42-6.54-.1-1.11.33-1.54,1.37-1.7a5.2,5.2,0,0,1,5.93,4.09c.71,4.2.44,8.37-2.95,11.59a32.64,32.64,0,0,1-3.46,2.44C485.3,638.67,485.16,635.58,485,632.49Zm-24.16,21.86c3.35,3.88,7.85,4.11,11.33.33a15.49,15.49,0,0,0,3.33-5.33c1.15-3.47,1.78-7.11,2.62-10.69l-.55-.13a25.72,25.72,0,0,0-2.81-12.23c-2.33-4.67-9.62-4.84-12.73-1.47-6,6.47-7,21.88-1.69,28.9C460.49,653.94,460.67,654.15,460.84,654.35Zm.56-13.68c.33-2.49.54-5,1-7.44a11.32,11.32,0,0,1,4.14-6.59c1.66-1.36,2.74-1.33,4,.39a15.41,15.41,0,0,1,2.37,4.52,23.5,23.5,0,0,1-1,16.1,16.57,16.57,0,0,1-2.75,4.07c-.88,1-1.95,1-3.12.07C462.4,648.92,461.31,645.11,461.4,640.67ZM343.18,483.91c7.26-7.35,14.66-14.57,22-21.81C375.45,452,385.76,442,396,431.89Q416,412,436,392.09l28.06-27.86q13.53-13.46,27-26.92c2.55-2.56,5.05-5.09,6.79-8.41,2.51-4.8,5.67-9.26,8.42-13.94a16.83,16.83,0,0,0,1.83-4.75c.31-1.38-.55-2.14-2-1.82a7.73,7.73,0,0,0-1.66.62c-5.37,2.59-10.76,5.14-16.08,7.83-2.41,1.22-5,2-7.15,3.92C469.87,331,458.3,341,446.82,351.16q-27.56,24.32-55.09,48.67-16.22,14.37-32.33,28.84l-40.17,35.87c-3,2.68-6.09,5.29-9.05,8-1.24,1.15-2,.78-2.84-.39-3-4.18-5.45-8.56-5.33-14a3,3,0,0,0-1.54-2.39c-.83-.2-2,.55-2.87,1-.34.18-.49.76-.7,1.17a24.23,24.23,0,0,0-1,18.76c1.33,4,3.37,7.75,5.08,11.62a8.34,8.34,0,0,1,.33,1.18c-4.71,1.24-7.95,4-9.48,8.58a4.3,4.3,0,0,1-2.74,2.6,8.47,8.47,0,0,0-5,4.83,3.15,3.15,0,0,1-1.89,1.62,7,7,0,0,0-4.15,3.14c-1.16,1.8-2.62,3.42-3.82,5.21-.65,1-1,2.13-1.54,3.16a4.58,4.58,0,0,1-1.34,1.82c-2.72,1.59-4.88,5.38-4.56,8.3.37,3.52,4.15,7.24,8.15,8a8.57,8.57,0,0,0,9.6-4.34,16.64,16.64,0,0,0,.95-3.72.7.7,0,0,1,.19-.06c5.94.16,7.46-.84,9.7-6.28a1.72,1.72,0,0,1,1.32-.81,5.84,5.84,0,0,0,5.41-3.74c.77-1.68,1.62-3,3.6-3.51a3.59,3.59,0,0,0,1.79-1.5,11.76,11.76,0,0,1,4.71-4.48c1.58-.76,2.61-2.68,4-4.24,2,1.41,3.95,2.85,5.95,4.26,7.18,5.05,15.52,6.53,23.76.53.47-.34,1-1.37.8-1.69a2.25,2.25,0,0,0-1.78-1c-6.15.79-10.72-2-14.68-6.29-.71-.77-.92-1.39,0-2.33C334.62,493.12,338.77,488.39,343.18,483.91Zm143.36-152,10.94-10.38C496.09,327.57,492.85,331.13,486.54,331.89Zm7-13.45-12.23,11.47C482.88,323.66,486.84,320,493.57,318.44ZM312,474.53c4.88-4.27,9.86-8.44,14.75-12.71q17.65-15.4,35.26-30.9,19.88-17.42,39.76-34.81,20.61-18.08,41.19-36.19c10.13-8.94,20.17-18,30.26-27,1.57-1.41,3.19-2.75,4.79-4.13-.83,3.32-2,6.23-4.56,8.63q-20.49,19-40.71,38.23-40.14,38.1-80.21,76.27a113.43,113.43,0,0,1-33.2,22.15c-1.95.83-3.8,1.89-5.78,2.63-.61.23-1.49-.26-2.25-.42C311.5,475.71,311.55,474.9,312,474.53Zm14,8.31c-.13-2.76-.42-2.91-3.16-2.89-2.3,0-4.61-.17-6.92-.26,0-.25,0-.48-.05-.72l20.8-9.55-10.28,20.49-.52-.06c0-1.09,0-2.17,0-3.24C325.87,485.35,326,484.09,326,482.84Zm-25,12.39-2.32,6.43c-.59-.57-1.61-1.08-1.69-1.71C296.63,497.2,298.09,495.62,301,495.23Zm-26.22,36.9c-1.54,0-3.93-2.42-3.88-4,.08-2.24,2-4.72,3.76-4.78s4.56,2.25,4.55,3.86C279.17,529.25,276.56,532.11,274.74,532.13Zm13.09-8.72c-1.87,1.58-3.32,1.58-5.41.3a18.7,18.7,0,0,1-2.61-1.77c-.56-.5-1.41-1.56-1.25-1.82a5.52,5.52,0,0,1,2.38-2.29,5.46,5.46,0,0,1,3.08.29c2,.55,4,1.25,6.52,2A25.23,25.23,0,0,1,287.83,523.41Zm3.76-7.06c-2.95-.68-5.86-1.52-8.93-2.33,1.18-3.26,3.16-4.6,6.19-3.65a79.07,79.07,0,0,1,8.49,3.67C296.29,516.17,294.32,517,291.59,516.35Zm4.05-7.12c-.93-.5-1.84-1-2.8-1.45s-2-.74-3-1.1c1.5-4.18,8.5-2.89,13.55,1.13C300.62,510.66,298.9,511,295.64,509.23Zm9.78-12.39c3.14-4.21.61-7.54-1-11.09-1.74-3.92-3.2-8-4.69-12a6.24,6.24,0,0,1-.13-2.85,29.3,29.3,0,0,0,15.66,16.45Zm7.19,6.7a4.29,4.29,0,0,1-6.38,1.79c1.72-1,3.37-2.07,5.08-3a1.48,1.48,0,0,1,1.26.18C312.74,502.6,312.73,503.23,312.61,503.54Zm19.27,4.2c-2.15-1.14-4.38-2.18-6.45-3.47-2.35-1.47-4.51-3.24-6.82-4.76-3.28-2.16-5.88-2.47-10.13-1.17l8.39-8C319.72,498.29,325.94,502.78,331.88,507.74Zm-4.42-12.07c0-.89-.46-2-.08-2.65,4.26-7.23,8.32-14.62,13.08-21.52a139.85,139.85,0,0,1,20.61-23q46-42.5,91.84-85.1c7.92-7.34,15.84-14.68,23.59-22.2,2.79-2.72,6.27-3.74,9.7-5Zm174.29,69.57a61.23,61.23,0,0,1,7.29-3,33.15,33.15,0,0,1,4.36-1c0-.1,0-.19,0-.28a16.69,16.69,0,0,1-1.89-.41c-3.29-1.17-6.63-2.21-9.8-3.63a6.09,6.09,0,0,1-3.53-4.78c-.38-2.56-.77-5.11-1.19-7.66-.57-3.55-1.16-7.09-1.75-10.65a1.38,1.38,0,0,0-.68,1c-.81,5-1.91,9.91-2.34,14.91s-3.11,7.41-7.25,8.91c-2.17.79-4.44,1.28-6.67,1.9-.54.15-1.08.27-1.62.41a10.32,10.32,0,0,0,2.16.72c3.27,1.21,6.59,2.31,9.74,3.77a5.77,5.77,0,0,1,3.22,4.54q.79,5.21,1.62,10.4c.44,2.68.91,5.36,1.37,8,1.4-5.84,2.45-11.63,3.25-17.46A7,7,0,0,1,501.75,565.24ZM586.92,82.33a1.67,1.67,0,0,0,1.92,2.09c.81-.09,1.55-.94,2.32-1.45,0-.31,0-.62,0-.93-.74-.54-1.53-1.55-2.22-1.49A2.94,2.94,0,0,0,586.92,82.33ZM456.51,621c-2.33-.48-3-.17-3.55,2.12-.76,3.16-1.44,6.33-2.18,9.49-.91,3.92-1.86,7.84-2.8,11.75-1-2.24-1.54-4.48-2.31-6.65s-2.81-2.71-4.48-1.06a5.24,5.24,0,0,0-1,1.9c-.71,1.94-1.37,3.9-2,5.85-.91-2.83-1.41-5.56-2-8.27-1-4.31-2-8.61-3.06-12.91-.27-1.11-.95-1.57-2.22-1.3s-1.76.85-1.74,2a18.12,18.12,0,0,0,.21,2.76q1.86,10.67,3.77,21.31c.47,2.61.92,5.22,1.6,7.78a2.7,2.7,0,0,0,1.76,1.73c.65,0,1.51-.79,2-1.44a6,6,0,0,0,.78-2c.91-2.66,1.8-5.34,2.71-8l.41.08c1,3.36,1.85,6.76,3,10.06a3.11,3.11,0,0,0,2.19,1.76c.61,0,1.33-1.14,1.95-1.82.15-.17.12-.51.19-.76q3.42-13.76,6.84-27.52c.41-1.67.69-3.37,1.1-5C457.9,621.73,457.66,621.23,456.51,621ZM449.39,45.57l.95,0c.53-.76,1.55-1.58,1.47-2.27a3,3,0,0,0-1.88-2A1.58,1.58,0,0,0,448,43.21C448.09,44,448.89,44.78,449.39,45.57Zm-125.52,611c0,1.56.65,2.8,2.39,2.82s2.19-1.21,2.28-2.69a227.64,227.64,0,0,0-.52-32.72c-.1-1.14-.41-2.18-1.78-2.19s-1.84,1.13-1.89,2.31c-.15,3.71-.25,7.41-.36,11.11,0,.64,0,1.29,0,2l-5.89-.34c0-.82-.08-1.48-.11-2.13-.21-3.63-.39-7.26-.62-10.9-.08-1.12-.5-2.34-1.81-2.08a2.81,2.81,0,0,0-1.68,2c-.38,3.28-.5,6.59-.71,9.89-.07,1-.1,2.08-.15,3.16a5.7,5.7,0,0,0-1.75.12,20.64,20.64,0,0,0-2.31,1.44c.54.81,1,2.21,1.64,2.32,2.36.4,2.4,1.82,2.35,3.69-.11,3.9-.08,7.81,0,11.71,0,1.41.63,2.7,2.32,2.68s2.16-1.34,2.28-2.74.11-2.78.17-4.17c.14-3.28.29-6.56.43-9.75l5.8-.39v2C323.93,647.93,323.87,652.23,323.87,656.53ZM529.36,45.17a1.63,1.63,0,0,0,2-1.94c-.11-.82-1-1.54-1.51-2.3H529c-.52.76-1.5,1.57-1.43,2.27A2.89,2.89,0,0,0,529.36,45.17Zm-69.47,0a1.62,1.62,0,0,0,1.91-2.05c-.16-.81-1.07-1.48-1.64-2.21l-.89,0c-.48.79-1.42,1.65-1.32,2.35A2.91,2.91,0,0,0,459.89,45.17Zm59.85.44c.59-.7,1.5-1.32,1.69-2.13a1.65,1.65,0,0,0-1.83-2.14,2.92,2.92,0,0,0-2,1.8c-.13.69.77,1.58,1.21,2.38Zm29.24,0,.92,0c.48-.78,1.43-1.64,1.32-2.33a3,3,0,0,0-1.92-1.9,1.64,1.64,0,0,0-1.93,2.06C547.52,44.2,548.42,44.87,549,45.6Zm35.57,20.2c1.39-.13,2.76-.67,3.1-2.33a3,3,0,0,0-1.88-3.4c-1.73-.92-3.6-1.59-5.51-2.41.44-.4.92-.83,1.39-1.28,2.89-2.76,5.53-5.73,6.89-9.58.73-2.09-.37-3.6-2.51-3.22a12.74,12.74,0,0,0-4.67,2c-2.24,1.48-4.27,3.28-6.44,5-.39-1.1-.71-2.24-1.2-3.31-.58-1.28-1.38-2.84-3-2.34A5.34,5.34,0,0,0,568,47.54a12.8,12.8,0,0,0-.9,4.63c-.16,3.54.48,7,3.11,9.53C574.18,65.48,579.24,66.33,584.55,65.8Zm.13-3c-3.55.77-6.73,0-9.93-1C577.34,59.09,580.87,59.41,584.68,62.79ZM586,46.51a32.15,32.15,0,0,1-13.8,13.27A29.5,29.5,0,0,1,586,46.51Zm-15.41.82c2.47,3.51,2.77,6.33-.71,9.66C569.29,53.61,569,50.46,570.63,47.33Zm-31.18-2.2c.7.07,1.5-.91,2.26-1.43v-.87c-.76-.53-1.47-1.37-2.3-1.51a1.62,1.62,0,0,0-1.95,2A2.82,2.82,0,0,0,539.45,45.13Zm-59.3.46c.53-.75,1.4-1.44,1.53-2.25a1.64,1.64,0,0,0-2-2,2.83,2.83,0,0,0-1.85,1.94c-.09.69.88,1.52,1.38,2.29Zm-10.4-.4c.83-.1,1.57-.91,2.35-1.4,0-.29,0-.58,0-.87-.74-.56-1.5-1.58-2.22-1.54a2.84,2.84,0,0,0-2,1.73A1.61,1.61,0,0,0,469.75,45.19Zm19.94,0a1.63,1.63,0,0,0,1.94-2c-.15-.81-1.07-1.48-1.63-2.22l-.89,0c-.49.79-1.44,1.65-1.34,2.35A2.89,2.89,0,0,0,489.69,45.17Zm20.37.41c.51-.78,1.5-1.63,1.39-2.32a2.73,2.73,0,0,0-1.92-1.87c-.65,0-1.77,1.16-1.86,1.9s.91,1.53,1.44,2.29Zm-10.42-.39c.82-.13,1.54-1,2.3-1.47,0-.29,0-.58,0-.87-.75-.53-1.55-1.53-2.26-1.48a2.9,2.9,0,0,0-2,1.79A1.62,1.62,0,0,0,499.64,45.19ZM192.82,361.36a5.5,5.5,0,0,0,1,0c.8-.2,1.59-.49,2.38-.74a7,7,0,0,0-.89-2.43,10.28,10.28,0,0,0-8-3.34,11.47,11.47,0,0,0-5.6,21.39,11,11,0,0,0,13.21-1.49c.68-.69.82-1.9,1.21-2.87a9.67,9.67,0,0,0-2.63-.59c-3.1.16-6.52-2.28-6.73-5C186.6,364.07,189.76,361.47,192.82,361.36Zm-3.48,12.26a6.65,6.65,0,0,1-7.74-2.16c-2.55-3.2-2.8-6.43-.73-9.47a7.31,7.31,0,0,1,8.65-3C182.73,362.22,180.79,369.22,189.34,373.62Zm208.22,248a58.92,58.92,0,0,0-8.08-.25c-4.15.2-4.7.8-4.71,4.86q-.06,14.1,0,28.19a5.7,5.7,0,0,0,.4,2.7,3.34,3.34,0,0,0,2.14,1.54c2,.21,2.54-.75,2.51-3.29,0-4.47,0-9,0-13.6a44.81,44.81,0,0,0,4.68,0,2.2,2.2,0,0,0,2.12-2.61c-.16-1.42-1.24-2-2.57-1.92s-2.74.13-4.27.21c-.22-4-.43-7.89-.65-12,1.65,0,3,.07,4.4,0a18.2,18.2,0,0,0,4.1-.6c.73-.23,1.26-1.07,1.89-1.64C398.86,622.61,398.26,621.65,397.56,621.59Zm20.68,32.58c-2.29.55-3.81-.51-5-2.36-.79-1.26-1.91-2-3.33-1.2s-1.45,2.3-.71,3.66a8.69,8.69,0,0,0,7.1,4.85c7.16.06,11.23-4.51,10.52-11a13.08,13.08,0,0,0-5.79-9.71,76,76,0,0,1-7-5.83,3.29,3.29,0,0,1-.95-2.25c0-1.52,2.85-3.73,4.45-3.73a3.71,3.71,0,0,1,3.65,3.47c.16,1.09.28,2.43,1.7,2.06a3.16,3.16,0,0,0,1.68-2.24c.69-5-5-9.08-9.79-7.22-6.38,2.5-8.14,8.75-3.69,13.89a57.58,57.58,0,0,0,6.89,6.24c1.88,1.57,3.44,3.24,3.86,5.79C422.43,652,421.6,653.37,418.24,654.17Zm-7.52-110.72c2,5.18,3.79,5.77,7.93,1.94,4.78-4.42,6.3-10.24,5.68-16.48-.31-3.13-1.62-6.16-2.51-9.35,4.69-2.92,9.72-6.08,14.93-9.33-.13.58-.22,1-.33,1.44-2,7.48.51,14,4.55,20.05,1.17,1.75,2.87,1.65,4-.06a32.5,32.5,0,0,0,2.81-4.56c3.11-6.7,3.62-13.38-.62-19.85a34.3,34.3,0,0,0-2.69-3.2l10.12-9.55c0,.54.06.78.05,1-.37,6.78,2.82,12,7.55,16.37,2.3,2.15,3.73,1.86,5.35-.9a17.12,17.12,0,0,0,2.19-11.87c-.92-5.35-3.09-10.08-8-13.16,1.39-2,2.71-3.8,4-5.66s2.39-3.7,3.73-5.8c.2.57.3.8.36,1,1.35,5.73,4.94,9.71,9.91,12.56,1.84,1,3.05.7,3.92-1.16,2.9-6.21,2.53-14.59-3.61-19.81a36.89,36.89,0,0,0-5.31-3.17c1.34-4,2.71-8.1,4.14-12.37l.57,1.12c2.37,5.08,6.45,8.32,11.44,10.51,2,.87,3.45.33,3.93-1.63,1.34-5.52,1.27-10.86-3.22-15.12-3-2.89-6.26-5.55-10.51-5.41v-11.7c.86,1,1.28,1.47,1.73,1.94,4,4.21,8.74,6.56,14.69,6.08,2.24-.17,2.77-.69,2.69-3a15.41,15.41,0,0,0-17.1-14.79c-.85.09-1.71,0-2.75,0-.18-.9-.27-1.7-.49-2.46-1.43-4.67-2.85-9.35-4.38-14a11,11,0,0,0-1.84-3.26c-.35-.45-1.21-.5-1.84-.73a5.83,5.83,0,0,0-.51,1.74c0,.78.45,1.53.57,2.31.54,3.45,1.49,6.91,1.45,10.36a65.13,65.13,0,0,1-3.1,19.93,27.53,27.53,0,0,1-16.94,17.55c-3.15,1.21-3.67.62-3-2.66a8.15,8.15,0,0,0-1.49-7.14c-2.8-3.48-9.31-3-10.66,1a10,10,0,0,0,2,10.57c2.35,2.61,5.43,3.41,8.76,3.57,6.48.32,11.58-2.8,16.34-6.67,7-5.72,10.45-13.32,11.33-22.25,0,3.73-.07,7.42-.36,11.1a45.26,45.26,0,0,1-14.79,30.49c-8.3,7.8-18.19,11.86-29.13,13.9a1.39,1.39,0,0,1-1.16-.38c-3.07-4.54-7.86-6.2-12.81-7.25a19.33,19.33,0,0,0-14.92,2.37,7.92,7.92,0,0,0-1.93,11.77,3.19,3.19,0,0,1,.75,1.53,6.83,6.83,0,0,0,4.55,6.23,32.24,32.24,0,0,0,9,2.25,18.46,18.46,0,0,0,18.47-11.74,2.84,2.84,0,0,1,2.49-2.06c9.22-1.91,17.67-5.52,24.9-11.68,1.23-1,2.43-2.12,3.64-3.18a4,4,0,0,1-.64,1.89c-14.78,24.66-36.3,41-63,51a1.63,1.63,0,0,1-2.17-.62,7.82,7.82,0,0,0-5.93-2.77A14.65,14.65,0,0,0,382,524.79c-3,3-5.59,6.47-8.34,9.75-2.36,2.81-2,4.13,1.31,5.71,4.23,2,8.82,1.87,13.09,1.06,7.12-1.35,13-4.79,15-12.59.06-.25.16-.59.34-.66,2.85-1.22,5.72-2.41,9-3.77C408.66,530.76,408.2,537,410.72,543.45ZM491.24,459c-5.73-3-9.62-7.27-10.05-14.05C487.11,444.16,493.35,452.82,491.24,459Zm5.48-25.23c-4.73,1-12.55-4.14-15.21-10.17C489.61,421.21,496.49,427.79,496.72,433.72Zm-23.48,33.66a12.13,12.13,0,0,1,7.68,16.74C475.16,481.49,471.11,472.64,473.24,467.38Zm-43.05,20.18a12.36,12.36,0,0,1-1.83,3,16.89,16.89,0,0,1-22,2.09c2.93.42,5.71,1,8.52,1.17a13.66,13.66,0,0,0,9.74-2.69c3.48-2.76,3.25-6.66-.64-8.87a15.38,15.38,0,0,0-13.21-1.21c-.61.22-1.4.5-1.66,1a3.83,3.83,0,0,0-.56,2.66,2.85,2.85,0,0,0,2.2,1.21,11.92,11.92,0,0,0,3.07-.7,9.89,9.89,0,0,1,8.79,2.1,27.62,27.62,0,0,1-4,1.57c-4.38.92-8.57,0-12.61-1.67a3.09,3.09,0,0,1-.49-5.66,20.84,20.84,0,0,1,6.83-2.4A20.08,20.08,0,0,1,425.62,482c1.77,1,3.14,2.78,4.61,4.28C430.44,486.52,430.37,487.21,430.19,487.56ZM459.8,489c6.09,3.37,8.67,13.63,4.84,19.24C459.13,504,456.87,495.08,459.8,489Zm-17.56,18c5.28,3.94,5.85,14,1.13,19.92C439.37,521.71,438.92,513.73,442.24,507.05Zm-24.09,15.83c4.15,4.79,2.59,15.65-2.92,19.49C412.24,535.66,413.45,527.76,418.15,522.88Zm-20.38,7.85c-2.45,3.51-5.68,6-10,6.41-3.1.29-6.26.06-9.4.06,0-.25-.09-.49-.14-.74,3-4.3,6.3-8.29,11.14-10.61,2.65-1.27,5.43-1.44,8,.75C398.89,528,398.78,529.28,397.77,530.73ZM519.22,702.57l-.92,0c-.54.74-1.55,1.52-1.49,2.22a2.86,2.86,0,0,0,1.76,2,1.65,1.65,0,0,0,2.08-1.91C520.56,704.07,519.72,703.33,519.22,702.57ZM393.38,691.1a3.14,3.14,0,0,0-2.43-.57c-.35.08-.61,1.41-.59,2.17.07,2.64-.71,4.79-3,6.28a3.28,3.28,0,0,1-4.19-.08,7,7,0,0,1-2.7-6.27c0-.74-.21-1.92-.68-2.14s-1.59.15-2.27.53a5.32,5.32,0,0,0-1.47,1.58,11.29,11.29,0,0,0,.05,13.18,11.75,11.75,0,0,0,12.68,4.31,11.55,11.55,0,0,0,8.07-10.87A10.26,10.26,0,0,0,393.38,691.1Zm-3.52,14.36a7.26,7.26,0,0,1-9.16-.08,7,7,0,0,1-2.62-8.18c4.89,8.75,11.63,6.39,14.64-.2C393.81,700.58,392.8,703.42,389.86,705.46ZM357.06,689c-2.44-.83-4.11.88-3.44,3.36a36.7,36.7,0,0,0,1.6,4.06c-2.65.3-5.27.48-7.84.93a12.94,12.94,0,0,0-4.43,1.56c-2.24,1.36-2.06,3.38.28,4.53a10.09,10.09,0,0,0,3,1c3.37.47,6.76.81,10.14,1.2-.62,1.43-1.44,3-2,4.67s-.7,3.24.95,4.29a3.12,3.12,0,0,0,4.14-.8,39.84,39.84,0,0,0,5.84-7.63C369.35,698.3,362.65,690.88,357.06,689Zm-.11,22.8c.52-4.9,2.52-7.26,6.17-7.45C362.18,707.21,359.37,710.66,357,711.78Zm-12.62-10c2.79-2.65,16.18-2.86,19.72-.36C357.38,703.39,351,703,344.33,701.77Zm11.88-10.52c3.43,1,5.33,3.48,7.18,6.36C358.17,697.58,356.66,694.55,356.21,691.25ZM378,652.91c1.24-4.29,2-8.7,3-13.07l-.58-.12c0-4.36-.32-5.62-2.36-10-.1-.22,0-.54-.05-.78a20.7,20.7,0,0,0-1.33-4.1c-2.3-4.17-6.87-4.79-9.77-1-2,2.61-3.92,5.71-4.56,8.86a49.09,49.09,0,0,0-.58,13.38,17.66,17.66,0,0,0,5.11,11.57c2.53,2.47,5.66,2.66,8.07.1A12.58,12.58,0,0,0,378,652.91Zm-5,.56c-1.51,2.31-2.86,2.22-4.19-.25a10,10,0,0,1-1.09-2.75c-.6-3.16-1.09-6.35-1.67-9.81.66-3.41,1.31-7,2.06-10.5a10.64,10.64,0,0,1,1.15-2.72c1.82-3.36,3.3-3.22,5.6-.21,1.72,2.27,1.05,4.69,1.34,7a34.62,34.62,0,0,1-1.61,16A14.85,14.85,0,0,1,373.06,653.47Zm66,49.42c-.88.08-1.69.9-2.53,1.39.15,1.77.73,2.48,2,2.63a1.82,1.82,0,0,0,2.24-1.87C440.83,703.89,440.31,702.77,439,702.89Zm-93-77.34c1.47-.14,2.87-.66,2.8-2.45s-1.39-2.18-2.81-2.19c-4.44,0-8.88,0-13.31,0-1.26,0-2.41.66-2.23,2a3.3,3.3,0,0,0,1.87,2.11,25.27,25.27,0,0,0,4.51,1c-.26,4.64-.56,9.19-.75,13.75-.23,5.55-.43,11.12-.52,16.68,0,1.5.45,3.08,2.38,3.05s2.29-1.56,2.34-3.11q.39-12.21.72-24.43c.06-2,0-4,0-6.13C342.74,625.73,344.39,625.71,346,625.55Zm153.35,77-.91,0c-.56.74-1.59,1.49-1.55,2.19a2.87,2.87,0,0,0,1.73,2.06,1.66,1.66,0,0,0,2.12-1.87C500.69,704.1,499.87,703.35,499.38,702.58Zm9.82,0h-.92c-.51.76-1.49,1.58-1.41,2.27a2.89,2.89,0,0,0,1.83,2,1.65,1.65,0,0,0,2-2C510.59,704,509.73,703.3,509.2,702.55ZM487,704.75a1.63,1.63,0,0,0,1.9,2.07c.84-.13,1.57-1,2.34-1.46,0-.29,0-.58,0-.86-.74-.54-1.53-1.55-2.23-1.5A2.87,2.87,0,0,0,487,704.75Zm-19.88,0a1.63,1.63,0,0,0,1.9,2.07c.83-.13,1.56-.94,2.34-1.45,0-.29,0-.58,0-.87-.75-.54-1.52-1.54-2.23-1.5A2.88,2.88,0,0,0,467.08,704.75Zm12.32-2.2h-.91c-.53.75-1.52,1.55-1.45,2.25a2.85,2.85,0,0,0,1.81,2,1.65,1.65,0,0,0,2-1.95C480.78,704,479.92,703.31,479.4,702.55ZM459,703a1.62,1.62,0,0,0-1.88,2.08,2.86,2.86,0,0,0,2.05,1.73c.71,0,1.48-1,2.22-1.55,0-.29,0-.57,0-.87C460.59,703.86,459.85,703.05,459,703Zm-9.95,0a2.91,2.91,0,0,0-1.85,1.94c-.09.7.88,1.53,1.39,2.3h.89c.55-.75,1.43-1.45,1.56-2.26A1.63,1.63,0,0,0,449.07,703Zm-23.17-5.05a13.86,13.86,0,0,0-2.69-.64c-2.49-.33-5-.57-7.67-.86a16.52,16.52,0,0,0,1.48-3.57c.18-1.06.17-2.68-.47-3.21a3.89,3.89,0,0,0-3.41-.41,14.71,14.71,0,0,0-8.37,9,8,8,0,0,0-.47,2.93c.31,5.3,3.09,9.29,7,12.61,1.23,1.05,2.73,1.88,4.33.72s1.29-2.84.78-4.36-1.33-3.12-2.09-4.82a19.78,19.78,0,0,0,2.05,0c3.21-.39,6.44-.68,9.61-1.28,1.56-.3,3.48-.87,3.38-3C429.24,699.06,427.5,698.44,425.9,697.91Zm-11.23-6.77c-.89,4.34-2.37,6.37-7.15,6.45A13.19,13.19,0,0,1,414.67,691.14Zm-7.23,13.07c4,.56,6.27,3.38,6.34,7.79A19.25,19.25,0,0,1,407.44,704.21Zm-.33-3c3.08-2.17,15.59-2.08,19.24.23C422.2,703.4,410.26,703.2,407.11,701.17ZM262,703a2.85,2.85,0,0,0-1.9,1.89,1.65,1.65,0,0,0,2.07,1.92c.81-.16,1.48-1,2.2-1.61l0-.89C263.58,703.83,262.73,702.9,262,703Zm-31.72,1.75a1.65,1.65,0,0,0,1.92,2.06c.82-.1,1.55-.92,2.32-1.42,0-.31,0-.6,0-.9-.75-.54-1.52-1.54-2.22-1.49A2.84,2.84,0,0,0,230.31,704.75Zm21.83-1.8a1.62,1.62,0,0,0-1.95,2,2.89,2.89,0,0,0,2,1.79c.7.07,1.49-.93,2.25-1.46,0-.3,0-.6,0-.9C253.68,703.89,253,703.08,252.14,703Zm-11.89,1.79a1.65,1.65,0,0,0,1.92,2.07c.82-.1,1.56-.92,2.33-1.42l0-.89c-.75-.54-1.53-1.55-2.24-1.5A2.84,2.84,0,0,0,240.25,704.74Zm-55.53-39.16c-.18-.83-1.05-1.51-1.61-2.26l-.86,0a8,8,0,0,0-1.42,2.37c-.21,1.23.7,2,1.91,1.95S185,666.89,184.72,665.58Zm15.2,19.7a16.28,16.28,0,0,0-14.13-2.56c-2.2.58-2.62,3-.88,4.55a16.46,16.46,0,0,0,3.74,2.15,22.86,22.86,0,0,0,2.86.94c-.68.62-1.18,1-1.65,1.49-2.78,2.69-5.33,5.56-6.7,9.25-.89,2.39.26,3.83,2.78,3.46a7.25,7.25,0,0,0,2.93-1.11c2.66-1.82,5.23-3.78,7.79-5.66a31.78,31.78,0,0,0,1.92,4.28c1.15,1.84,3.13,1.79,4.38,0a5.71,5.71,0,0,0,.91-2C205.13,694.49,205.14,689.06,199.92,685.28Zm-12.85.35c3.43-1,6.6-.3,9.82,1.21-1.15.54-2.42,1.68-3.43,1.48A22.37,22.37,0,0,1,187.07,685.63Zm-1.49,16a31.84,31.84,0,0,1,13.82-13.26A29.52,29.52,0,0,1,185.58,701.62Zm16.07-10.46c.76,3.32.93,6.46-.61,9.68C198.71,697.74,198.06,694.57,201.65,691.16Zm14.11,2.19c-2.57-12.22-9.39-19.11-21.29-21.39V419.31c-3,1.25-4.19,3-4.13,6.16.22,11.86.09,23.72.09,35.58q0,106.55,0,213.1a11.81,11.81,0,0,0,.17,1.42,23.26,23.26,0,0,1,15.17,6.72c4.26,4.15,6.87,9,6.28,15.26h4.85q57.24,0,114.49.05c3.15,0,4.32-2.35,6.3-3.78l-.19-.47Zm6.51,9.62a1.61,1.61,0,0,0-1.92,2c.15.81,1.06,1.48,1.63,2.21l.9,0c.48-.78,1.42-1.64,1.31-2.34A2.88,2.88,0,0,0,222.27,703Zm97.51,1.77a1.65,1.65,0,0,0,1.92,2.07c.82-.1,1.55-.92,2.32-1.42l0-.9c-.75-.53-1.53-1.54-2.23-1.49A2.86,2.86,0,0,0,319.78,704.74Zm10.3.21c0,1.14.59,2,1.95,2s2-.54,2.38-2.28c-.78-.62-1.47-1.59-2.34-1.77C330.73,702.6,330,703.67,330.08,705Zm-18.68-2.41c-.56.73-1.44,1.41-1.59,2.21a1.66,1.66,0,0,0,2,2,2.84,2.84,0,0,0,1.88-1.9c.1-.7-.85-1.54-1.34-2.31Zm-19.78,0c-.58.71-1.49,1.35-1.68,2.15a1.65,1.65,0,0,0,1.86,2.12,2.87,2.87,0,0,0,2-1.81c.13-.69-.77-1.58-1.23-2.38Zm-10,0c-.57.72-1.48,1.36-1.65,2.16a1.65,1.65,0,0,0,1.88,2.1,2.87,2.87,0,0,0,2-1.84c.12-.68-.8-1.56-1.26-2.35Zm20.15.47a2.82,2.82,0,0,0-1.9,1.88,1.64,1.64,0,0,0,2.05,1.93c.82-.16,1.49-1,2.23-1.6,0-.3,0-.59,0-.89C303.36,703.84,302.51,702.9,301.8,703ZM272,702.94c-1.22-.23-2,.68-2,1.88s.81,2.22,2.09,2c.82-.14,1.51-1,2.25-1.55,0-.29,0-.59,0-.89A7.65,7.65,0,0,0,272,702.94Zm316.06-49.16a1.66,1.66,0,0,0-1.92,2.08,2.91,2.91,0,0,0,2,1.77c.69.06,1.48-.94,2.22-1.46,0-.31,0-.63,0-.95C589.59,654.71,588.86,653.87,588.05,653.78ZM312.55,45.19a7.49,7.49,0,0,0,2.33-1.43c0-.3,0-.59,0-.89-.75-.54-1.43-1.41-2.25-1.55-1.28-.23-2.11.69-2.09,2S311.33,45.42,312.55,45.19ZM588.18,494.72a1.66,1.66,0,0,0-2,1.95,2.87,2.87,0,0,0,1.9,1.9c.69.11,1.54-.83,2.32-1.3,0-.31,0-.63,0-.94C589.66,495.77,589,494.86,588.18,494.72Zm0,23.74c.69.06,1.48-.93,2.22-1.46,0-.32,0-.63,0-.94-.77-.52-1.49-1.37-2.31-1.46a1.66,1.66,0,0,0-1.92,2.09A2.91,2.91,0,0,0,588.16,518.46ZM588,474.83a1.67,1.67,0,0,0-1.89,2.12,2.87,2.87,0,0,0,2,1.74c.69.06,1.47-1,2.21-1.5l0-.93C589.58,475.76,588.84,474.91,588,474.83Zm0,13.86c.83-.12,1.56-.91,2.33-1.4l0-.93c-.74-.56-1.43-1.45-2.24-1.59-1.26-.2-2.09.68-2.1,2A1.71,1.71,0,0,0,588,488.69Zm-2,77.58a1.71,1.71,0,0,0,1.94,2c.83-.1,1.58-.88,2.36-1.35,0-.31,0-.62,0-.93-.72-.57-1.39-1.48-2.2-1.63C586.94,564.07,586.08,564.94,586.05,566.27Zm2.09-107.46c.69.07,1.49-.92,2.24-1.44v-.94c-.77-.52-1.49-1.39-2.3-1.48a1.66,1.66,0,0,0-1.94,2.07A2.91,2.91,0,0,0,588.14,458.81Zm-.08,10c.83-.14,1.55-.94,2.31-1.44,0-.31,0-.62,0-.93-.75-.54-1.45-1.43-2.26-1.55-1.25-.18-2.09.7-2.07,2.05A1.7,1.7,0,0,0,588.06,468.81Zm-61.35,236a1.64,1.64,0,0,0,1.92,2.06c.84-.13,1.56-1,2.34-1.47,0-.29,0-.58,0-.87-.76-.53-1.54-1.53-2.24-1.48A2.87,2.87,0,0,0,526.71,704.76Zm59.4-257.88A1.68,1.68,0,0,0,588,449c.86-.07,1.64-1,2.46-1.57,0-.31,0-.62,0-.93-.8-.55-1.61-1.56-2.4-1.54S586.34,446.09,586.11,446.88Zm.53-61.47c-5.18-.53-12,4-13.37,9.13-.69,2.6.86,4.26,3.44,3.55a39.86,39.86,0,0,0,4-1.6c.32,2.77.49,5.48,1,8.11a12.77,12.77,0,0,0,1.79,4.54c1.19,1.79,3.06,1.56,4.08-.36a10.42,10.42,0,0,0,1.18-3.34c.49-3.36.8-6.74,1.18-10.08a51.5,51.5,0,0,0,4.76,2c1.46.47,3.09.65,4.15-.87s.38-3-.64-4.17C595.11,388.78,591.61,385.93,586.64,385.41Zm-10.95,10.12c.49-2.65,2.58-5,6-7C582,392.44,579.78,395.11,575.69,395.53ZM586,407.44c-2.55-3-2.81-15.53-.37-20C587.64,394.37,587.36,400.72,586,407.44Zm9.72-12.36a37.78,37.78,0,0,1-6-2.82c-.87-.6-1-2.25-1.47-3.42l.47-.36a18.75,18.75,0,0,1,7.33,5.9C596,394.61,595.86,394.84,595.75,395.08Zm-7.68,113.48c.83-.14,1.54-.93,2.3-1.44,0-.31,0-.62,0-.94-.75-.53-1.46-1.41-2.27-1.53-1.26-.17-2.09.72-2.06,2.06A1.69,1.69,0,0,0,588.07,508.56Zm0,69.54c.69.08,1.51-.89,2.27-1.39,0-.32,0-.63,0-.94-.76-.53-1.46-1.41-2.27-1.52a1.66,1.66,0,0,0-2,2A2.94,2.94,0,0,0,588.1,578.1ZM588,538.4c.83-.12,1.57-.9,2.34-1.38l0-.93c-.74-.57-1.41-1.47-2.22-1.61-1.24-.22-2.11.65-2.12,2A1.71,1.71,0,0,0,588,538.4Zm0,16a1.67,1.67,0,0,0-1.89,2.12,2.87,2.87,0,0,0,2,1.74c.69.06,1.47-1,2.21-1.5l0-.93C589.58,555.29,588.84,554.44,588,554.36Zm0-6a7.24,7.24,0,0,0,2.35-1.38l0-.93c-.74-.56-1.41-1.47-2.22-1.61-1.24-.22-2.11.65-2.12,2A1.71,1.71,0,0,0,588,548.34Zm18.1-173.23V50.63c0-1.2,0-2.39,0-3.58-.28-12.76-9.76-22-22.52-22H186.53a21.88,21.88,0,0,0-21.94,22q0,328.06,0,656.12a20.86,20.86,0,0,0,.58,4.91c2.61,10.66,11.16,17,22.89,17H582.34c.53,0,1.06,0,1.59,0,8.07-.18,14.4-3.55,18.82-10.35,2.67-4.1,3.37-8.67,3.37-13.47Q606.09,538.14,606.11,375.11ZM602,701.76c0,11.52-7.52,19.12-19,19.12H187.59c-9.33,0-16.38-5.28-18.41-13.83a18.48,18.48,0,0,1-.47-4.33q0-327.75,0-655.51a17.74,17.74,0,0,1,18.13-18.09h397A17.8,17.8,0,0,1,602,46.85c0,1.45,0,2.91,0,4.37V375.1Q602,538.43,602,701.76ZM587.94,439.1c1.39,0,2.16-.8,2.49-2.69-.75-.61-1.46-1.65-2.27-1.74-1.5-.16-2.11,1-2.16,2.46A1.76,1.76,0,0,0,587.94,439.1ZM590,426.62a1.74,1.74,0,0,0-2-1.94,2.08,2.08,0,0,0-1.95,2.66c.1.72.94,1.34,1.25,1.75C589.53,428.92,590,428,590,426.62ZM579.86,690.16a25.06,25.06,0,0,0,2.86-.93,11.8,11.8,0,0,0,2.91-1.66c2.14-1.79,1.66-4.11-1-5-4.26-1.46-12.74.79-15.61,4.15s-3.82,10.63-1.59,14.66a2.7,2.7,0,0,0,5.06.2,19.11,19.11,0,0,0,1.56-3.74c2.83,2,5.63,4.08,8.54,6,1.41.91,3.19,1.5,4.61.19,1.57-1.45.6-3.2-.32-4.51C584.7,696.33,582.27,693.31,579.86,690.16Zm3.79-4.69c-3.12,3.18-7.21,3.56-9.63.91C577.85,685,581.35,684.65,583.65,685.47ZM570,700.61c-1.48-1.94-1.68-4.1-.87-9.25A6.12,6.12,0,0,1,570,700.61Zm1.43-12.24a31.83,31.83,0,0,1,13.86,13.24A29.51,29.51,0,0,1,571.4,688.37Zm16.67-24.65c-1.26-.16-2.07.75-2,2.09a1.71,1.71,0,0,0,2.07,1.81c.81-.16,1.51-1,2.26-1.49,0-.31,0-.63,0-.94C589.6,664.67,588.88,663.81,588.07,663.72Zm-51.4,41a1.63,1.63,0,0,0,1.85,2.12c.83-.11,1.58-.91,2.37-1.4,0-.29,0-.57.05-.86-.73-.56-1.49-1.59-2.19-1.56A2.89,2.89,0,0,0,536.67,704.7Zm49.38-118.54c0,1.26.77,2.1,2,1.93a7.35,7.35,0,0,0,2.35-1.36c0-.31,0-.62,0-.93-.73-.56-1.4-1.47-2.21-1.61C586.93,584,586.07,584.82,586.05,586.16Zm-5.66,85.75V424.62c0-2.87-1-4.21-4.16-5.16V671.9c-12.26,2.22-18.59,9.9-21.32,21.5H432.82c2.55,2.78,4.8,4.57,8.49,4.25,4.47-.39,9-.1,13.5-.1l102.37.05a7.53,7.53,0,0,0,1.3-.18c1-13.8,9.49-19.87,21.91-22.17Zm-31.83,31a1.62,1.62,0,0,0-1.95,2,2.84,2.84,0,0,0,2,1.8c.71.06,1.51-.93,2.27-1.46,0-.29,0-.58,0-.87C550.09,703.91,549.38,703.08,548.56,703Zm37.49-96.9a1.7,1.7,0,0,0,2,1.93c.83-.1,1.57-.88,2.35-1.36l0-.94c-.73-.56-1.4-1.47-2.21-1.61C586.93,603.85,586.07,604.71,586.05,606.05Zm0,9.93a1.7,1.7,0,0,0,1.94,1.94c.83-.1,1.58-.87,2.36-1.35,0-.31,0-.62,0-.93-.73-.57-1.4-1.48-2.2-1.63C587,613.78,586.08,614.64,586.05,616Zm2.1-18c.69.06,1.48-.93,2.23-1.45,0-.31,0-.63,0-.94-.77-.52-1.49-1.38-2.31-1.47a1.66,1.66,0,0,0-1.93,2.07A2.9,2.9,0,0,0,588.15,598Zm-.1,45.85a1.66,1.66,0,0,0-1.92,2.08,2.9,2.9,0,0,0,2,1.78c.69.06,1.48-.94,2.23-1.47,0-.32,0-.63,0-.94C589.6,644.78,588.87,643.93,588.05,643.84ZM184.77,655.79c0-1.33-.83-2.22-2.09-2-.81.13-1.5,1-2.24,1.58,0,.31,0,.62,0,.93.77.49,1.5,1.29,2.32,1.41A1.71,1.71,0,0,0,184.77,655.79ZM586.05,635.9a1.71,1.71,0,0,0,2,1.91c.83-.12,1.56-.91,2.33-1.4l0-.93c-.74-.56-1.42-1.46-2.23-1.59C586.91,633.68,586.05,634.55,586.05,635.9Zm0-9.94a1.71,1.71,0,0,0,2,1.91c.83-.12,1.56-.91,2.33-1.4l0-.93c-.74-.56-1.43-1.46-2.24-1.59C586.9,623.75,586.05,624.62,586.05,626Zm.08-99.3a2.92,2.92,0,0,0,2,1.74c.69.05,1.47-1,2.21-1.5,0-.31,0-.63,0-.94-.77-.5-1.51-1.34-2.33-1.42A1.67,1.67,0,0,0,586.13,526.66ZM183.54,249.56c-.69-.09-1.52.87-2.29,1.37,0,.31,0,.62,0,.93.75.55,1.44,1.44,2.25,1.56a1.67,1.67,0,0,0,2-2A2.89,2.89,0,0,0,183.54,249.56Zm0,9.94c-.69-.07-1.5.91-2.25,1.43v.94c.76.52,1.48,1.39,2.3,1.49a1.66,1.66,0,0,0,2-2.06A2.89,2.89,0,0,0,183.49,259.5Zm.1-19.94c-.83.13-1.56.91-2.33,1.4l0,.93c.74.55,1.42,1.45,2.23,1.59,1.26.21,2.1-.68,2.11-2A1.71,1.71,0,0,0,183.59,239.56Zm1.9,41.63a2.9,2.9,0,0,0-2-1.81c-.69-.07-1.49.91-2.25,1.42v.94c.76.53,1.48,1.4,2.29,1.51A1.67,1.67,0,0,0,185.49,281.19Zm0-69.6c-.15-.82-1-1.5-1.58-2.24l-.91,0c-.48.77-1.43,1.62-1.33,2.31a2.9,2.9,0,0,0,1.86,1.95A1.67,1.67,0,0,0,185.51,211.59Zm0,59.62a2.9,2.9,0,0,0-2-1.77c-.69-.06-1.47.94-2.22,1.47l0,.94c.76.51,1.49,1.36,2.31,1.45A1.67,1.67,0,0,0,185.49,271.21Zm-2.32,17.67c-.53.75-1.54,1.53-1.48,2.22a2.92,2.92,0,0,0,1.74,2.07,1.68,1.68,0,0,0,2.08-1.94c-.1-.82-.93-1.55-1.43-2.32Zm.31-174.65a1.67,1.67,0,0,0,2-2c-.12-.82-1-1.53-1.49-2.3h-.91c-.51.76-1.49,1.57-1.42,2.27A2.89,2.89,0,0,0,183.48,114.23ZM181.69,162a2.89,2.89,0,0,0,1.83,2,1.67,1.67,0,0,0,2-2c-.14-.82-1-1.51-1.55-2.26l-.91,0C182.56,160.43,181.6,161.26,181.69,162Zm1.45,57.34c-.52.75-1.51,1.55-1.45,2.24a2.89,2.89,0,0,0,1.76,2.05,1.67,1.67,0,0,0,2.06-2c-.11-.83-.95-1.55-1.46-2.32Zm.4-35.48a1.66,1.66,0,0,0,2-2c-.15-.82-1-1.5-1.57-2.25l-.91,0c-.49.78-1.44,1.62-1.34,2.31A2.86,2.86,0,0,0,183.54,183.81Zm2-31.78c-.11-.82-.95-1.55-1.46-2.31l-.91,0c-.52.75-1.51,1.55-1.45,2.25a2.87,2.87,0,0,0,1.77,2A1.67,1.67,0,0,0,185.51,152Zm-4.26,40.28c.77.51,1.5,1.37,2.31,1.46a1.66,1.66,0,0,0,1.93-2.08,2.89,2.89,0,0,0-2-1.78c-.7-.06-1.49.93-2.23,1.46C181.24,191.69,181.25,192,181.25,192.31Zm0,39.75c.77.53,1.5,1.38,2.31,1.48a1.67,1.67,0,0,0,1.93-2.08,2.92,2.92,0,0,0-2-1.79c-.7-.07-1.49.93-2.23,1.47C181.24,231.45,181.25,231.76,181.25,232.06Zm2.34-32.26c-.83.12-1.56.91-2.33,1.4l0,.93c.74.56,1.43,1.45,2.24,1.59,1.25.2,2.1-.68,2.1-2A1.71,1.71,0,0,0,183.59,199.8ZM242.53,45.59h.93c.51-.77,1.49-1.58,1.41-2.28a2.87,2.87,0,0,0-1.83-2,1.65,1.65,0,0,0-2,2C241.15,44.13,242,44.84,242.53,45.59Zm20.41-.42a2.89,2.89,0,0,0,1.8-2c.07-.7-.91-1.5-1.43-2.26l-.91,0c-.52.76-1.38,1.48-1.49,2.3A1.62,1.62,0,0,0,262.94,45.17Zm-10.13,0a7.6,7.6,0,0,0,2.41-1.36c0-.31,0-.61,0-.92-.75-.55-1.54-1.59-2.24-1.53a2.89,2.89,0,0,0-2,1.82A1.58,1.58,0,0,0,252.81,45.19Zm20,0a2.87,2.87,0,0,0,1.85-1.94c.09-.7-.88-1.52-1.39-2.29l-.89,0c-.55.76-1.43,1.45-1.56,2.27A1.62,1.62,0,0,0,272.84,45.17Zm-89.29,95c-.82.14-1.54.94-2.3,1.44,0,.31,0,.62,0,.93.75.54,1.45,1.43,2.26,1.55,1.25.18,2.09-.7,2.07-2A1.72,1.72,0,0,0,183.55,140.15Zm119-95c.7.11,1.55-.82,2.34-1.3,0-.29,0-.59,0-.89-.73-.57-1.39-1.45-2.21-1.62a1.65,1.65,0,0,0-2.07,1.92A2.85,2.85,0,0,0,302.59,45.13Zm-10.39.45h.92c.53-.75,1.52-1.55,1.46-2.24a2.87,2.87,0,0,0-1.8-2,1.65,1.65,0,0,0-2,1.95C290.84,44.1,291.69,44.82,292.2,45.58Zm-9.37-.44c.7,0,1.49-.94,2.24-1.47,0-.3,0-.6,0-.9-.76-.51-1.48-1.34-2.3-1.45a1.65,1.65,0,0,0-1.94,2A2.88,2.88,0,0,0,282.83,45.14ZM181.26,122.76c.77.5,1.52,1.35,2.34,1.43a1.67,1.67,0,0,0,1.89-2.12,2.89,2.89,0,0,0-2.06-1.74c-.69-.06-1.46,1-2.2,1.49ZM213.1,653.7a3.43,3.43,0,0,0,3.23-.27,30.42,30.42,0,0,0,5.36-5.75c5.66-8.31.7-15.76-6-19.15a4.62,4.62,0,0,0-3.66.13c-1.41.71-1,2.3-.52,3.57s.95,2.23,1.43,3.34c-2.75.3-5.32.48-7.86.92a13,13,0,0,0-4.27,1.46,3.29,3.29,0,0,0-1.55,2.45,3.33,3.33,0,0,0,1.86,2.23,19,19,0,0,0,5.13,1.43c2.59.35,5.22.4,7.75.57a37.21,37.21,0,0,0-2.06,5.87A3.86,3.86,0,0,0,213.1,653.7Zm1.56-2.52c.07-4.38,2.38-7.27,6.31-7.81A18.31,18.31,0,0,1,214.66,651.18Zm6.28-14.49c-4.42.14-6.39-1.93-7.08-6.38A13.41,13.41,0,0,1,220.94,636.69Zm-18.66,3.83c3-2.22,15.55-2.4,19.09-.26C218.48,642.42,205.64,642.59,202.28,640.52Zm-16-589.27c1.84,2.24,3.79,4.38,5.55,6.39a40.67,40.67,0,0,0-5.87,3c-2.15,1.57-1.59,4,.88,4.89,4.24,1.53,13.08-.71,15.75-4.22,3.39-4.44,3.52-9.42,1.58-14.46a3.59,3.59,0,0,0-2.59-2c-.89,0-2,1-2.64,1.9a19.37,19.37,0,0,0-1.54,3.88A21.73,21.73,0,0,0,195.53,49c-2.3-1.66-4.57-3.37-7-4.85-1.3-.8-3-1.18-4.25.06s-.52,2.73.13,4A16,16,0,0,0,186.27,51.25Zm1.56,11.43c3.62-3.1,6.82-3.44,9.76-1.12A14.64,14.64,0,0,1,187.83,62.68Zm14-15.3c1.63,3.1,1.34,6.25.7,9.47C199.16,54.16,199.15,50.75,201.81,47.38ZM200.27,60c-4.48-1.58-12.62-9.43-14-13.37C189.9,46.85,199.32,55.76,200.27,60Zm37.24,192.2c.83,1.39.73,3.33,1,5,1.22-3.06.36-7.39,5.72-7.71-5.28-.45-4.53-4.78-5.58-7.95-.76,3.4-.38,7.4-4.94,7.71C235,250.14,236.74,250.85,237.51,252.15Zm12.75,372.28a3.22,3.22,0,0,0-.14-2.95c-1.17-1.08-2.21.08-2.91,1-1.62,2.18-3.19,4.4-4.69,6.66-1.88,2.84-3.68,5.75-5.51,8.62l-.5,0c0-3.48.05-7,0-10.44a23.74,23.74,0,0,0-.53-5.12,2.68,2.68,0,0,0-1.83-1.6c-.46-.07-1.32.9-1.62,1.57a7,7,0,0,0-.43,2.72q-.15,15.6-.24,31.19c0,.53-.09,1.19.18,1.55.56.77,1.24,1.78,2,2,1.3.31,2-.73,2.13-2a25.37,25.37,0,0,0,.24-5.35c-.55-4,1.64-6.9,3.9-10.24l1,3.17c1.3,4.1,2.56,8.21,3.91,12.29a6.12,6.12,0,0,0,1.36,2.38,2.36,2.36,0,0,0,1.95.46c.46-.13.9-.9,1.05-1.46a3.44,3.44,0,0,0-.07-2c-2-5.74-4-11.49-6.2-17.14a3.48,3.48,0,0,1,.18-3.58C245.87,632.3,248.14,628.4,250.26,624.43ZM233.15,45.17a2.91,2.91,0,0,0,1.77-2c.06-.71-.94-1.49-1.47-2.24l-.9,0c-.51.77-1.37,1.5-1.47,2.33A1.63,1.63,0,0,0,233.15,45.17Zm-10,0c.7.09,1.53-.86,2.3-1.36,0-.3,0-.6,0-.9-.74-.54-1.43-1.4-2.25-1.55a1.65,1.65,0,0,0-2,2A2.83,2.83,0,0,0,223.11,45.13ZM191.22,76.45q0,118.49,0,237c0,3,.91,4.27,4.18,5.39V76.23C207.64,74,214,66.34,216.73,54.65H338.79c-2.59-2.61-4.77-4.52-8.5-4.17-4.46.42-9,.1-13.5.1H213.15c-.94,13.84-9.42,20-21.93,22.28Zm-10,321c.54,3.57,1,7.16,1.78,10.69a3.22,3.22,0,0,0,2.29,2,3.52,3.52,0,0,0,2.55-1.69,11.69,11.69,0,0,0,1.37-4.1c.43-2.57.62-5.19.94-7.94,1,.45,1.8.94,2.71,1.28,1.42.53,3,1.21,4.22-.23s.59-3-.15-4.43c-2.79-5.37-7.87-8.5-13.76-7.52a15.89,15.89,0,0,0-11.25,8.06c-1.25,2.17.2,4.26,2.72,4a21.07,21.07,0,0,0,4.67-1.47,15.39,15.39,0,0,0,1.9-1A18.26,18.26,0,0,0,181.21,397.44Zm14.14-2.07c-3.62.23-6-2.38-6.42-7C191.88,390.14,194.15,392.19,195.35,395.37Zm-9.8-7.33a34.73,34.73,0,0,1,0,19.31C183.2,404.63,183.17,391.83,185.55,388ZM175,394.77c.43-2,4-5.07,7.23-6.17C182,392.26,179.76,394.19,175,394.77Zm7.66,103.82a3,3,0,0,0,2.08-1.74,1.67,1.67,0,0,0-1.89-2.13c-.81.07-1.56.91-2.34,1.41l0,.93C181.16,497.61,181.93,498.63,182.62,498.59Zm2.1-21.81c-.14-.84-1-1.55-1.52-2.33h-.85a7.63,7.63,0,0,0-1.51,2.32c-.26,1.21.59,2,1.82,2S184.93,478.1,184.72,476.78Zm-4.28,10.37c.74.54,1.52,1.55,2.21,1.49a2.92,2.92,0,0,0,2-1.76,1.67,1.67,0,0,0-1.91-2.1c-.82.08-1.55.93-2.33,1.43C180.45,486.53,180.44,486.84,180.44,487.15Zm2.27,17.5c-.81.12-1.51,1-2.27,1.54,0,.31,0,.62,0,.93.76.51,1.47,1.31,2.3,1.45a1.71,1.71,0,0,0,2-1.86C184.8,505.37,184,504.48,182.71,504.65Zm0,23.76a2.94,2.94,0,0,0,1.95-1.86,1.67,1.67,0,0,0-2-2c-.81.12-1.51,1-2.25,1.56,0,.31,0,.62,0,.93C181.23,527.54,182.06,528.5,182.75,528.41Zm-.05,6.07c-.82.12-1.51,1-2.26,1.56,0,.31,0,.62,0,.93.76.5,1.48,1.29,2.31,1.43a1.71,1.71,0,0,0,2-1.89C184.79,535.17,183.94,534.29,182.7,534.48Zm0-69.59c-.81.13-1.5,1-2.24,1.58,0,.31,0,.62,0,.93.77.49,1.5,1.28,2.32,1.41a1.71,1.71,0,0,0,2-1.9C184.77,465.57,183.93,464.69,182.68,464.89Zm0,49.71c-.81.14-1.48,1-2.22,1.61l0,.93c.77.48,1.51,1.27,2.34,1.38a1.71,1.71,0,0,0,2-1.93C184.76,515.24,183.9,514.38,182.65,514.6Zm0-69.71c-1.36,0-2.22.95-1.9,2.18a3.11,3.11,0,0,0,1.95,2c1.17.19,2.06-.67,2.06-2.39A1.91,1.91,0,0,0,182.7,444.89Zm0,153.1a2.92,2.92,0,0,0,2-1.79,1.66,1.66,0,0,0-1.94-2.07c-.81.09-1.54,1-2.3,1.47l0,.94C181.19,597.06,182,598.06,182.68,598Zm2-21.61a1.67,1.67,0,0,0-1.89-2.13c-.81.07-1.56.91-2.34,1.4,0,.31,0,.62,0,.94.73.55,1.5,1.57,2.19,1.52A2.93,2.93,0,0,0,184.7,576.38Zm-2,11.67a2.94,2.94,0,0,0,2-1.79,1.68,1.68,0,0,0-1.95-2.08c-.81.1-1.53,1-2.3,1.48,0,.32,0,.63,0,.94C181.19,587.12,182,588.11,182.68,588.05Zm.06-133.1c-.81.1-1.53,1-2.29,1.5,0,.31,0,.62,0,.93.76.52,1.46,1.34,2.28,1.49a1.71,1.71,0,0,0,2.05-1.84C184.82,455.68,184,454.79,182.74,455Zm2.42-28.25c-.8-.69-1.53-1.78-2.43-2-1.26-.26-2,.72-1.93,2.11s.74,2.36,2.21,2.09c.76-.13,1.41-.87,2.1-1.33C185.13,427.3,185.14,427,185.16,426.7Zm-.44,119.73c-.11-.84-.94-1.59-1.44-2.37l-.86,0c-.55.76-1.37,1.44-1.58,2.27-.3,1.2.53,2,1.76,2.1S184.89,547.76,184.72,546.43Zm-2-111.81c-1.35,0-1.95.87-2,2.19s.74,2.37,2.1,2.25c.8-.07,1.54-.9,2-1.23C184.75,435.78,184.24,434.65,182.7,434.62Zm-1.44-262.15c.77.5,1.52,1.34,2.34,1.42a1.67,1.67,0,0,0,1.89-2.12,2.91,2.91,0,0,0-2.06-1.74c-.69-.05-1.47,1-2.2,1.5Zm2.31-78.11a1.67,1.67,0,0,0,1.92-2.09,2.9,2.9,0,0,0-2-1.77c-.69-.06-1.47.94-2.22,1.47l0,.94C182,93.42,182.75,94.27,183.57,94.36Zm-.12-10a1.67,1.67,0,0,0,2.06-2c-.11-.82-.95-1.55-1.46-2.31h-.91c-.52.75-1.51,1.54-1.45,2.24A2.88,2.88,0,0,0,183.45,84.4Zm2.12,17.93a1.71,1.71,0,0,0-1.94-1.94c-.84.1-1.58.88-2.37,1.35,0,.31,0,.62,0,.93.73.57,1.4,1.48,2.21,1.63C184.68,104.54,185.54,103.67,185.57,102.33Zm-2.2,211.19c1.62.06,2.06-1.13,2.31-3.11-.48-.31-1.14-1-1.9-1.16-1.47-.25-2.11.73-2.19,2.12S182.13,313.47,183.37,313.52Zm.17-183.3c-.82.14-1.53.94-2.29,1.44,0,.31,0,.62,0,.94.76.53,1.46,1.41,2.27,1.53,1.25.18,2.09-.71,2.06-2A1.71,1.71,0,0,0,183.54,130.22Zm-.78,434.09c-.82.09-1.54,1-2.3,1.47,0,.31,0,.62,0,.93.75.53,1.55,1.53,2.24,1.46a2.92,2.92,0,0,0,2-1.79A1.66,1.66,0,0,0,182.76,564.31Zm-10.13-224a42.18,42.18,0,0,0,7.25,5.71c7.87,4.44,15.48-2,17.63-7.87,1-2.61-.85-4.31-3.57-3.51A40.51,40.51,0,0,0,190,336.2c-.08-1.44-.11-2.74-.24-4a21.57,21.57,0,0,0-.61-4.11,17.86,17.86,0,0,0-2.06-4.83c-1-1.42-2.7-1.22-3.6.27a10.11,10.11,0,0,0-1.36,3.48c-.52,3.42-.85,6.87-1.24,10.28-1.53-.64-3.17-1.48-4.91-2-1.48-.46-3.11-.56-4.09,1A3.09,3.09,0,0,0,172.63,340.26Zm22.66-3.12c-1.07,3.38-3.47,5.33-6.27,7.06C188.82,339.76,191,337.77,195.29,337.14ZM185,325.54c2.47,3.53,2.54,16,.15,19.4C183.14,338.29,183.48,331.93,185,325.54Zm-9.89,12a36.58,36.58,0,0,1,6,2.82c.86.59,1,2.25,1.45,3.42l-.47.35a18.87,18.87,0,0,1-7.33-5.88C174.85,338,175,337.79,175.08,337.55Zm8.35-34.43c1.25.23,2.11-.63,2.14-2a1.71,1.71,0,0,0-1.94-2c-.84.11-1.58.88-2.36,1.35,0,.31,0,.62-.05.93C182,302.07,182.62,303,183.43,303.12ZM182.75,624c-.81.1-1.53,1-2.29,1.48,0,.31,0,.62,0,.93.75.53,1.55,1.52,2.24,1.45a2.92,2.92,0,0,0,2-1.79A1.67,1.67,0,0,0,182.75,624Zm1.95-17.78a1.67,1.67,0,0,0-1.91-2.1c-.81.08-1.55.93-2.33,1.44l0,.93c.75.54,1.53,1.55,2.22,1.5A3,3,0,0,0,184.7,606.17Zm-1.93-51.81c-.81.09-1.54.94-2.31,1.46,0,.31,0,.62,0,.93.74.53,1.53,1.53,2.22,1.47a2.93,2.93,0,0,0,2-1.76A1.68,1.68,0,0,0,182.77,554.36ZM182.66,614c-.81.13-1.49,1-2.22,1.6,0,.31,0,.62,0,.93.78.49,1.51,1.27,2.34,1.38a1.7,1.7,0,0,0,2-1.91C184.77,614.66,183.9,613.8,182.66,614Zm2.06,21.88c-.12-.83-.94-1.58-1.45-2.36l-.87,0c-.54.75-1.36,1.44-1.55,2.27-.29,1.2.51,2,1.76,2.08S184.9,637.21,184.72,635.89Zm-2.31,7.54c-.54.75-1.36,1.43-1.57,2.26-.3,1.21.53,2,1.76,2.1s2.3-.61,2.12-1.95c-.11-.84-.94-1.58-1.44-2.37Zm136-411.29c-15,5.12-25.51,15.44-33.42,28.4a28.78,28.78,0,0,1-5.12-1.4c-2.89-1.4-4.16.43-5.32,2.39-2,3.3-3.85,6.65-5.64,10a35.49,35.49,0,0,0-4.27,18c.21,6,.91,12,1.32,18A69.27,69.27,0,0,0,269,325c1,3,2.35,5.74,5.2,7.47a25.39,25.39,0,0,1,2.41,1.89c-.84,1.45-1.45,2.71-2.25,3.84-2.14,3.1-2.25,6.2-.93,9.74q4.41,11.82,8.3,23.83a119.25,119.25,0,0,1,4.17,15.49,21.19,21.19,0,0,0,4.41,10.33c5,6.06,9.35,12.55,11.05,20.44a2.38,2.38,0,0,0,2.92,2.05c3.38-.6,6.87-.94,10.08-2.08,7.17-2.53,14.23-5.4,21.27-8.29,13.39-5.52,25.41-13.39,37.1-21.79A13.72,13.72,0,0,1,376,385.7a3.56,3.56,0,0,0,2.58-3.8c-.05-1.74.77-2.42,2.13-3.08,4.9-2.38,9.74-4.87,13.46-9a2.14,2.14,0,0,1,1-.55c2.56-.73,3.14-1.59,2.49-4.14-2.25-8.77-2.54-17.68-1.92-26.65.65-9.41,3.47-18.36,6.38-27.22A68.85,68.85,0,0,0,405.5,286c-.39-7.77-1.16-15.58-4.73-22.6-5.71-11.2-13.47-20.61-25.22-26.09-2.38-1.11-4.67-2.43-7.49-3.91,3.57-2.69,6.77-5.34,10.21-7.64,10.94-7.35,26.34-3.32,31.6,9.13,1.16,2.73,2.7,5.3,4,8,2,4.09,4.29,4.66,7.78,1.84,0,0,.13,0,.34.06-.29,2.19-.55,4.4-.88,6.6a4.89,4.89,0,0,0,1.12,4,28.74,28.74,0,0,1,6.08,13.83c.36,2.68.68,5.38,1.07,8.06a4.75,4.75,0,0,0,3.17,4,72.06,72.06,0,0,1,7,2.85c6.51,3.26,11.41,7.84,12.05,15.66a2.38,2.38,0,0,0,.25,1.15c.28.39.74.91,1.12.91s.88-.56,1-1a10.15,10.15,0,0,0,.5-2.52,37.79,37.79,0,0,1,7.42-20.26c5.74-7.58,6.35-15.79,3.49-24.48-2.18-6.59-4.57-13.12-7-19.62-2.39-6.31-5.12-12.43-11.88-15.44a7.18,7.18,0,0,1-1.66-1.48,3.63,3.63,0,0,1,1.52-.21c.8-.1,2-.06,2.27-.52a2.91,2.91,0,0,0-.06-2.51c-6.81-11.56-17-18.24-30.17-20.35-.37-.06-.74-.21-1.47-.42,3.7-3,7.2-5.67,11.53-6.92a4.05,4.05,0,0,0,2.61-2.11c1.34-2.27,2.52-4.82,4.4-6.55,5.19-4.77,11.36-7.18,18.58-6.14a24.15,24.15,0,0,0,2.75,0,19.87,19.87,0,0,0-2.13-2.38c-4.21-3.29-8.73-6.16-14-7.18-14.19-2.71-28.08-1.91-41.43,4.12a68.61,68.61,0,0,0-20.05,13.76c-1.74,1.72-3.11,3.58-3,6.23a22.1,22.1,0,0,1-.39,3.57c-2.92-2-3.71-1.8-5,1.24a11.29,11.29,0,0,0-.62,1.68,83.42,83.42,0,0,0-3.34,21.13c0,6.1-1.85,11.85-4.12,17.8C347.74,225.34,333.08,227.15,318.46,232.14ZM394,219c-6.81-.47-13,.95-18.41,5.4,3.27-8,9.37-11.71,17.76-11.91a19.82,19.82,0,0,1,2.18,0c2.5.23,4.56-.27,5.64-2.89a2.49,2.49,0,0,1,3.45-1.42q5.28,1.94,10.47,4.12a1.89,1.89,0,0,1,.85,1.53,30.53,30.53,0,0,1-5.19,14.89C406.14,223.64,401.14,219.51,394,219Zm2-19.14c2.31.75,4.69,1.27,7.19,1.91-1.79,2.18-3.34,4.21-5.05,6.09a4.18,4.18,0,0,1-2.27,1.12c-3.44.58-6.94.84-10.35,1.57a38.63,38.63,0,0,0-6,2.31,11.71,11.71,0,0,1,.52-1.35c3.32-6.69,6.73-13.35,9.93-20.1,1.23-2.59,3.06-3.67,5.77-3.38q7.29.78,14.56,1.72c1.49.19,2.95.62,4.8,1-1.66,1.46-2.89,2.65-4.25,3.69a2.6,2.6,0,0,1-1.8.31,25.68,25.68,0,0,0-13.24,1.64,2.5,2.5,0,0,0-1.42,1.8C394.49,198.82,395.37,199.68,396,199.89Zm32.21,56.57c-.15.21-.35.39-.67.75-1.72-2.24-3.9-3.92-3.3-7.34.52-3,.28-6.07.35-9.11.05-1.85-.82-2.46-2.41-1.45a39.43,39.43,0,0,0-4.23,3.58c-1-2.1-1.62-4.22-2.89-5.82-2.94-3.71-2.44-6.83,0-10.72,2.07-3.32,2.86-7.44,4.21-11.21l-.49-.23c.18,0,.41-.11.54,0,6,3.76,11.52,8,15.87,13.64a6.09,6.09,0,0,1,1.14,3.63A44.6,44.6,0,0,1,428.25,256.46Zm1.07,4.08a1.66,1.66,0,0,1,.39-1.37c5.5-6.16,7.89-13.64,9.22-21.58.12-.71.27-1.42.47-2.47,2.23,3.11,3.13,6,2.3,9.58a58.61,58.61,0,0,1-9.41,20.82c-.19.26-.42.48-.8.9C430.7,264.33,430,262.46,429.32,260.54Zm21.75,28.18c-2.1-2-3.93-4.38-6.32-5.86A73.32,73.32,0,0,0,434.37,278a2.54,2.54,0,0,1-1.87-2.45,1.27,1.27,0,0,0-.05-.39c-.9-3.3-.11-5.86,2.29-8.54a42.57,42.57,0,0,0,9.31-18.42c.12-.5.3-1,.49-1.56C448.54,252.6,452.16,276.18,451.07,288.72Zm11.47-19a11.88,11.88,0,0,1-1.3,2.88c-2,3.07-4.13,6.09-6.25,9.19-.53-6.77-1-13.49-1.57-20.21.12-.18.23-.36.34-.55,2.88,2.36,5.79,4.69,8.62,7.11A1.87,1.87,0,0,1,462.54,269.76Zm.78-10.51c.24,1.85.37,3.72.52,5.37-3.68-2.11-7.27-4.14-10.83-6.22a2,2,0,0,1-.71-1.1c-.51-1.83-1-3.69-1.57-6.07,1.84.94,3.36,1.6,4.77,2.46,2.37,1.45,4.67,3,7,4.54A1.8,1.8,0,0,1,463.32,259.25ZM443.9,213.81a9.38,9.38,0,0,1-.95.38c-3.5,1.15-3.82,2.25-1.18,4.91a29.43,29.43,0,0,0,4.88,4,12.77,12.77,0,0,1,5.24,6c2.95,7.23,6,14.43,8.94,21.65.29.71.44,1.46.71,2.36-3-1.38-5.66-3-8.54-3.8-2.7-.71-3.67-2.25-4.59-4.62-4.79-12.35-11.63-23.32-22.05-31.79a2.73,2.73,0,0,1-.4-.5c.12-.14.22-.38.36-.4,3.94-.8,7.87-1.65,11.84-2.33C441.27,209.2,442.83,211.12,443.9,213.81ZM418.3,195.5c7.42,1.67,13.39,5.87,19.35,10.18a5.88,5.88,0,0,1,.73.68,2.11,2.11,0,0,1,.23.39c-3.32.4-6.53.74-9.72,1.18a8.47,8.47,0,0,0-3.25.82c-2.31,1.45-4.1.74-6.29-.5-3.73-2.1-7.73-3.7-11.73-5.57,1.32-4-3.05-2.81-4.75-4.65a32.37,32.37,0,0,1,5.61.08c1.67.3,3,.23,4.1-1.12C414.14,195.05,415.85,195,418.3,195.5Zm-3.42-7.11a56.27,56.27,0,0,0-19.2-2.33c-.37,0-.74,0-1.32-.08,1-1.93,2.08-3.12,4.39-3.21,7-.26,13.67,1.21,20.4,2.59,1,.21,2,.45,3.62.79C420,187.61,418.17,189.43,414.88,188.39ZM446,169.31l-4,1.12c-6.4,1.82-10.76,6-13.65,11.84-1.06,2.14-2.7,2.46-5,1.86a130.41,130.41,0,0,0-13.54-2.89c-3.43-.54-6.95-.53-10.7-.77,6.46-5.72,13.86-9.18,22.06-11.43S437.76,167.19,446,169.31ZM410.66,165c-1.94,2-2,4.85-4.71,5.87C406,166.93,407.09,165.4,410.66,165ZM373,193.85c.16-.63.36-1.26.5-1.75,1.05.25,2.37,1,2.84.58a10.87,10.87,0,0,0,2.11-3.19,1.79,1.79,0,0,0,.16-1c-.22-4.34,2.41-7,5.4-9.61a65.82,65.82,0,0,1,19-11.71c.43-.17.86-.35,1.3-.49.1,0,.23.05.48.11-1.05,3-1.69,5.95-4.92,7.87-5.24,3.09-9.34,7.56-12.84,12.55-6,8.57-12,17.15-15.53,27.15-.34,1-.86,1.89-1.48,3.22A89.21,89.21,0,0,1,373,193.85Zm-51.56,42.49c-11.93,9.21-19.09,21-21.05,36L287,262.59C295.87,250.37,306.25,240.3,321.44,236.34Zm-43.81,28.18c.07-1,.73-1.92,1.31-3.34,1.64,1.17,3.06,2.08,4.36,3.14,1.95,1.57,3.81,3.26,5.73,4.88,3,2.56,6,5.18,9.15,7.62a67.22,67.22,0,0,0,8.08,5.69c5.24,3,10.59,5.75,16,8.39,11,5.32,22.44,7.32,34.52,4.7.68-.15,1.38-.23,2.21-.37-.09,2-.37,3.29-2.72,3.37a30.13,30.13,0,0,0-6.4,1.22c-.61.16-1,1-1.54,1.51.63.34,1.3,1,1.9,1,2.47-.2,4.93-.62,7.67-1a29.48,29.48,0,0,0-1.31,5.34c-.26,4.49-3.18,6.88-6.52,9-9.45,6.11-19.36,11.27-30.31,14.1-8.84,2.28-17.74,4.34-26.62,6.48-.62.15-1.27.21-1.91.31.18-10.12-2.79-19.57-5.17-29.09-1.89-7.57-4.49-15-6.72-22.43-.63-2.14-1-4.35-1.67-7.07,2.68,1.67,4.88,3.07,7.11,4.41a7.48,7.48,0,0,0,2.53,1.07,2.15,2.15,0,0,0,1.81-.75,2.24,2.24,0,0,0-.29-1.95,5.36,5.36,0,0,0-1.83-1.48c-2.8-1.63-5.65-3.18-8.44-4.83-.49-.29-1.09-.92-1.1-1.4C277.42,270.21,277.43,267.36,277.63,264.52Zm84.16,50.13c5.29-6.19,7.28-14.06,10.7-21.19,1.53-3.17,1.67-3.45,5.82-3.3-.83,1.46-1.62,2.81-2.37,4.19-3.7,6.73-7.46,13.42-11.06,20.2-4.46,8.44-9.67,16.37-17,22.55a78.34,78.34,0,0,1-21.75,13.37c-9.12,3.56-18.42,6.68-27.64,10-.5.18-1,.25-1.53.45-2.15.91-3.75.68-5-1.62-.84-1.5-2.32-2.64-3.48-3.9,12-.64,22.6-5.69,33.36-10.08a105.75,105.75,0,0,0,29.49-18.54C355.28,323.29,358.31,318.72,361.79,314.65ZM273.2,326.43a3.5,3.5,0,0,1-.92-2.09c-.81-5.89-1.65-11.79-2.3-17.71-.59-5.32-1.11-10.66-1.39-16a33.51,33.51,0,0,1,4-17.79,10.61,10.61,0,0,1,.69-.91c.12,2.92.57,5.4-1.05,7.74a12.41,12.41,0,0,0-1.68,3.79c-.17.66.35,1.5.56,2.26a11.18,11.18,0,0,0,2.05-1.1c.42-.34.59-1,1.1-1.91.43,1.85.83,3.29,1.11,4.75,3,15.74,8.86,31,8.32,47.74-1-.88-1.84-1.65-2.71-2.37C278.4,330.69,275.74,328.63,273.2,326.43Zm28.37,79.79c-1.61-2.3-3.14-4.66-4.85-6.89s-3.62-4.21-5.32-6.41a16,16,0,0,1-1.44-3l.64-.38a12,12,0,0,0,2.28,1.73,5.71,5.71,0,0,0,2.18,0c-.07-.79.15-1.85-.28-2.3a48.48,48.48,0,0,0-3.81-3.17,3.46,3.46,0,0,1-1.1-1.47c-1.21-4.26-2.12-8.61-3.57-12.78-2.36-6.81-5.06-13.51-7.61-20.25-.15-.42-.27-.84-.56-1.78,3.83,4.26,7.46,8,10.68,12a24.48,24.48,0,0,1,3.89,7.33c2.69,7.95,5.08,16,7.57,24a11.33,11.33,0,0,1,.26,1.63l-3.15-.36a14.27,14.27,0,0,0,.73,3c1,2,2.19,3.93,3.15,6A5.64,5.64,0,0,1,301.57,406.22ZM369,364.35c.43,4,.92,8,1.3,12a2.2,2.2,0,0,1-.67,1.61c-1.93,1.71-4,3.23-5.87,5-.57.55-.59,1.67-.87,2.53.92,0,2,.38,2.7,0,2-1.13,3.84-2.56,5.85-3.95,1,1.22.06,1.79-.77,2.33-5.63,3.73-11.31,7.38-16.91,11.15-11,7.42-23.53,11.48-35.69,16.36-3,1.21-6.09,2.24-9.15,3.32-.85.31-1.75.49-2.66.74-.23-3.4,0-3.65,2.92-4.54a32.19,32.19,0,0,0,4.91-2.12c1.11-.57,2.05-1.54,1.29-2.89s-1.94-.88-3-.4c-1.85.83-3.66,1.71-5.89,2.76-.61-14.83-1.28-29.18-6.19-43.12.77-.3,1.41-.58,2.06-.81,8.24-2.92,16.59-5.56,24.7-8.81,12.22-4.91,22.83-12.08,31.22-22.52,7-8.72,11.18-18.88,16.05-28.71,2.23-4.51,4.25-9.12,6.49-13.63a3.37,3.37,0,0,1,2-1.48,18.85,18.85,0,0,1,3.68-.25c-.44,1-.7,1.6-1,2.21-2.91,5.2-5.66,10.5-8.8,15.56-3.4,5.48-4.79,11.58-6.19,17.69C367.49,337.63,367.64,351,369,364.35Zm-3.65-125.48c2.42,1.23,4.75,2.65,7.21,3.78,11.14,5.11,18.12,14.23,23.54,24.7,2.66,5.12,3.2,10.89,3.65,16.59a67.66,67.66,0,0,1-3.33,27.59A136.61,136.61,0,0,0,390.73,334a74.4,74.4,0,0,0,1.18,29.22,2.48,2.48,0,0,1-.81,2.94c-1.71,1.36-3.19,3-5,4.24-2.5,1.7-5.2,3.12-8.3,5-.75-4.23-1.41-8-2.09-11.74-2.17-11.86-1.69-23.74-.29-35.63.26-2.17.45-4.35.72-6.51a29.35,29.35,0,0,1,4.5-12.36c3.27-5.13,6-10.59,9-15.92a16,16,0,0,0,1.13-2.54c1.08-3.09-.09-5.17-3.36-5.51a31.46,31.46,0,0,0-6.72.12c-2.37.26-4.69.88-7,1.31a4.91,4.91,0,0,0-3.92,3.42c-2.53,6.18-5.33,12.25-8,18.36a13.49,13.49,0,0,1-.87,1.3c.8-5,1.53-9.44,2.26-13.92.17-1,.33-2.09.5-3.13.34-2.15-.74-3.16-2.86-2.69s-4.13.92-6.19,1.4c-6.06,1.41-12,0-17.93-.88s-11.07-3.47-16.25-6.17c-3.58-1.87-7.18-3.7-10.81-5.44a2.16,2.16,0,0,1-1.49-2.39,51.57,51.57,0,0,1,4-16.91,48.12,48.12,0,0,1,17.36-22.16,23.41,23.41,0,0,1,18.24-4A60.28,60.28,0,0,1,365.39,238.87Z"/></svg>