<svg xmlns="http://www.w3.org/2000/svg" viewBox="0 0 750 750"><path d="M606.18,51.28c0-1.19,0-2.38,0-3.58-.12-13.28-9.63-22.7-22.91-22.7H187.34c-13.25,0-22.74,9.52-22.74,22.82V375q0,163.77,0,327.55a23.08,23.08,0,0,0,.61,5.5c2.61,10.62,11.24,17,22.92,17H583.68c8-.18,14.44-3.42,19-10.16,2.87-4.31,3.57-9.15,3.57-14.21Q606.17,376,606.18,51.28ZM601.9,701.73c0,11.42-7.5,19-18.85,19H187.5c-9.23,0-16.35-5.43-18.24-14a23.26,23.26,0,0,1-.37-4.94q0-163.49,0-327V47.61c0-9,5.37-16,13.86-17.93a19.69,19.69,0,0,1,4.34-.38q198.38,0,396.74,0a17.68,17.68,0,0,1,18.09,17.9c0,1.2,0,2.39,0,3.58ZM327.44,207.43c-2.5.11-5,1-8,1.62a10,10,0,0,0,1.61,2c6.41,4.05,9.61,10.24,10.78,17.37,1.66,10.18,2.78,20.44,4.11,30.67a27.91,27.91,0,0,0,5.41,13.28c.59.79,1.13,1.62,1.6,2.29-2.68,7.93-4.64,15.77-4.26,24.13l-2.56,1.61c-1.38-2.69-.85-5.31-.7-7.93a64.21,64.21,0,0,0,.19-9.09c-.35-3.93-2.32-5.6-6.26-5.81a17.58,17.58,0,0,0-4.34.38c-4.73,1-9.44,2-14.13,3.13a3.46,3.46,0,0,0-2.31,1.64c-.86,2.76-1.89,5.63-1.9,8.46,0,5.7,2.22,10.85,5.39,15.52,2.81,4.13,6.45,7.19,11.92,7.37-1.08,3.38-3.59,6.26-1.9,10.43l11.6-6.15.3.44c-.16.25-.3.51-.48.75-2.34,3.12-4.64,6.28-7.08,9.32a6.21,6.21,0,0,1-2.74,2c-17.4,5.55-32,15.26-43.21,29.68-16.24,20.8-22.13,44.36-17.74,70.32A88.14,88.14,0,0,0,321,498.74a88.33,88.33,0,0,0,34.73,4.56,89.62,89.62,0,0,0,30-7.57c4-1.8,7.86-4,11.86-6.09l5.31,9.73c-.85,3.48,0,4.58,3.21,4.75l4.36,3.8c-.09,1.72.32,3.37,2.41,3.86s3.29-.89,4.11-2.41l4.67-1.69c3.42,1.23,5.12-.3,5-3.81l8.14-12.82a18.71,18.71,0,0,0,13-1.7c2.76.71,3.23.4,3.94-2.39l4.94-4.59c4,0,5-1.35,4.92-6.49,1-1.7,2.07-3.39,3.07-5,3.05-.89,3.76-2.14,3-6.79,1.43-2.56,3.11-5.5,4.73-8.49a5.5,5.5,0,0,0,.42-1.88,26.14,26.14,0,0,1,.35-3.08c.63-2.36,1.51-4.66,2.1-7,1.53-6.15,3-12.33,4.44-18.53,4-2,4.47-4.69,1.23-8.41.17-1.4.37-2.9.55-4.39,1.4-1.34,2.18-2.72.89-4.57a3.07,3.07,0,0,1-.14-1.73q.42-5.94.88-11.88c.15-1.87.3-3.75.45-5.57,2.79,1.86,5.4,3.79,8.19,5.37s4,.76,4.29-2.26a18.8,18.8,0,0,1,5.39-11.26c2.33-2.43,4.85-4.69,7.33-7,1.56-1.44,1.68-2.42.19-3.8-2.53-2.33-5.14-4.59-7.68-6.91-4.93-4.52-9.87-9-14.76-13.59-8.3-7.77-15.15-16.83-22.24-25.65-2.46-3.07-4.22-6.69-6.36-10.15,2-2.34,4-4.4,5.74-6.63A26.94,26.94,0,0,0,469.15,285a7.65,7.65,0,0,0-4.59-6.1,47.82,47.82,0,0,0-7.15-2.24,32.47,32.47,0,0,0-4.28-.51c-1.18-6.86-2.1-13.56-3.52-20.16-1.57-7.26-5.29-13.08-12.45-16.18-3.11-1.35-6.12-2.92-9.47-4.54,2.11-4.05,4.16-8.42,6.61-12.57a52.52,52.52,0,0,1,6.2-8.48,25.48,25.48,0,0,1,12.9-7.44,14.49,14.49,0,0,0,2.35-1.06l0-.76a13,13,0,0,0-2.23-1.19c-7.85-2.39-15.86-2.26-23.79-.75-5.06,1-10.14,2.41-13.07,7.1-9.52,1-16,5.66-19.49,14.78-4.9-4.11-10.58-5.5-16.85-5.51,1.63-1.93,3.45-3.49,4.49-5.47,1.39-2.64,3.61-3.91,6.11-5,1.22-.52,2.55-.79,3.72-1.39a12.41,12.41,0,0,0,3.53-2.41,3.07,3.07,0,0,0,.53-2.8,3,3,0,0,0-2.63-1,66.38,66.38,0,0,0-6.62,2.15c.18-.78.43-1.91.69-3A35.85,35.85,0,0,0,393,198.1a49.53,49.53,0,0,0,4.81-5.24c.52-.71.16-2.06.2-3.12a9.17,9.17,0,0,0-3.1,0,20.37,20.37,0,0,0-3.55,2.23c0-1,0-1.85,0-2.64-.34-5.77-2.5-10.56-7.69-13.53a7.28,7.28,0,0,0-10.81,5.66,4.66,4.66,0,0,0,3.7,5.32,4.59,4.59,0,0,0,5.72-3,24.94,24.94,0,0,0,.59-4.85,11.65,11.65,0,0,1,5.13,8.21c.81,4.36-.05,8.57-1,12.77-.54,2.34-1.24,4.64-1.8,6.74a78.66,78.66,0,0,0-2.49-8.16c-1.12-2.67-3.27-3.81-4.86-3.14s-2.29,3.12-1.59,5.68c.42,1.57,1.09,3.07,1.66,4.63a38.35,38.35,0,0,0-5.12-1.41c-2.88-.4-4.64,1.7-4.06,4.56a5.28,5.28,0,0,0,4.21,4.26c2.3.63,4.59,1.33,7.48,2.17-2.31,1.91-3.94,3.77-6,4.85-4.12,2.18-8.46,3.92-12.55,5.77.3-7.25-4.47-11.38-12.23-11.45a6.87,6.87,0,0,1-.42-.86,8.44,8.44,0,0,0-8.09-6C336.55,207.39,332,207.24,327.44,207.43Zm44-.29a9.6,9.6,0,0,1,7.33,3.69C374.41,210.93,371.79,209.69,371.43,207.14Zm6.85-8.62c2.34.67,3.8,4,3.22,7.08Q379.9,202.06,378.28,198.52ZM319.65,308.69a41.52,41.52,0,0,1-4.36-4.66c-3-4.4-5.72-9-5.61-14.55a41.43,41.43,0,0,1,.91-5.75c7.07-.43,13.66-2.32,21-2.17a48.35,48.35,0,0,1,.52,5.89c-.09,2.77-.56,5.53-.74,8.3-.15,2.41.09,4.78,2,6.72-.8.66-1.53,1.28-2.18,1.83l-.17-3-.75-.29c-.62.6-1.24,1.21-2,1.93l-1.39-2c.59-1.1,1.21-2.11,1.68-3.18s.7-2.21-.59-2.73-1.89.52-2.31,1.56c-.19.47-.34,1-.51,1.44l-.64,0c-.11-1.36-.27-2.71-.3-4.07-.05-1.77.42-3.68-.1-5.27a5.6,5.6,0,0,0-3.09-3.15c-.71-.24-2.29,1.23-3.08,2.24-1.53,2-.92,5.52.78,7.34a21.36,21.36,0,0,1,2.13,3.27l-.47.47a7.76,7.76,0,0,0-2.22-.45,10.51,10.51,0,0,0-2.43.76c.32.85.41,2.1,1,2.48a14.07,14.07,0,0,0,4,1.33,10.62,10.62,0,0,0,2.27,0l2.18,2.92H319.9C319.81,307,319.76,307.54,319.65,308.69Zm1.13.53,7-1.23.27.43-2.11,2.87Zm7.08,8.62-1.39.67c1.91-5.22,5.36-9.2,9.21-12.85a29.15,29.15,0,0,1,11-6.14c13-4.44,26.27-5.3,39.81-3.88,3.75.4,7.52.61,11.27,1A83.89,83.89,0,0,1,427.92,306a24.16,24.16,0,0,1,11.27,12.87,1.09,1.09,0,0,1,.1.43c-13.59-4.09-27.15-8.45-41.39-10.12A190.29,190.29,0,0,0,349,310C341.39,311.05,334.63,314.48,327.86,317.84Zm4,8.34c1.46-2.21,3.14-4.29,4.4-6.61a7.87,7.87,0,0,1,5.83-4.26c5.46-.95,10.91-2.31,16.41-2.64,9-.54,18.14-.7,27.19-.46a127.71,127.71,0,0,1,34.75,5.9c6.88,2.14,13.85,4,21.13,6.06,8,14.81,14.42,31,25.18,44.84l-.38.43c-3.2-1.2-6.48-2.21-9.58-3.63-12.49-5.73-25.67-8.7-39.28-9.9a7.13,7.13,0,0,1-4.84-2.29,88,88,0,0,0-80.13-24.92c-.52.1-1,.16-1.57.21-.12,0-.24-.07-.58-.18C330.87,327.85,331.31,327,331.84,326.18ZM410.3,468.31l3.74-4.57,2.36,1.7-3.69,4.69Zm0,4.15c-1.11,1.26-2.09,2.38-3.17,3.59l-2.31-2.13,3.67-3.53Zm5.64-11.4c1-1.6,2-3.11,3.14-4.84l2.45,1.81-3.26,4.89Zm4.23-6.7c.75-1.51,1.45-2.88,2.21-4.41l2.55,1.59c-.69,1.36-1.33,2.62-2.06,4.08Zm-109,14.77-.52-.32c2.44-14.22,4.87-28.45,7.35-42.93L286.28,395c3.64-.54,6.71-1,9.79-1.44,10.87-1.56,21.74-3.08,32.58-4.74a3.72,3.72,0,0,0,2.23-1.91c6-12.09,12-24.22,17.95-36.34.2-.4.43-.78.85-1.54l19.54,39.6L413,395l-31.66,30.88,7.43,43.59-39.14-20.54Zm37.62-8.43v10.77c-2.27-3.5-1.13-7.15-.56-10.78Zm-45.36-96.55c.06,3.62-.05,7.26.35,10.85a16.53,16.53,0,0,0,5.84,11.24L277.12,391a75.78,75.78,0,0,1,25.32-36.06l.94.24C303.38,358.16,303.35,361.16,303.39,364.15Zm17.79,4.64a4.17,4.17,0,0,0-.79-.89,4.7,4.7,0,0,0-6-.73c-1.49,1-2.08,3.19-1.33,5.4,1,3,3.21,5.11,5.64,7q2.66,2,5.33,4.06l-.09.52-11.39,1.65c-3.15-2.7-4.26-6.17-4.32-10-.05-2.64.24-5.29.38-7.94s.31-5.52.47-8.31c.08,0,.21-.16.31-.14,5,1.19,10.1,2.13,15,3.68,2.69.86,5.1,2.67,7.53,4.2.72.45,1.11,1.42,1.74,2.27l-6.24,12.71a44.33,44.33,0,0,0-1.88-5.73C324.23,373.88,322.66,371.36,321.18,368.79Zm2.48,8.48-6.55-8.56C319.38,369,322.59,373.2,323.66,377.27ZM297.1,428a8.78,8.78,0,0,0-2.22,1.28,4.18,4.18,0,0,0-1.57,4.77,4.13,4.13,0,0,0,3.73,2.85c3.25.46,5.93-1,8.48-2.74,2.07-1.39,4-2.95,6-4.43l.41.28c-.57,3.51-1.07,7-1.78,10.51a2.57,2.57,0,0,1-1.67,1.68c-2.32.38-4.84,1.09-7,.52-5.79-1.51-11.42-3.61-16.95-5.42,2.58-4.73,4.85-9.52,7.72-13.92,1.57-2.4,4.12-4.18,6.33-6.11a8,8,0,0,1,2.6-.89l8.61,9.47a7.51,7.51,0,0,1-1.09.06A29.94,29.94,0,0,0,297.1,428Zm8.35.15L295.64,432C298.15,428.84,301.89,428.68,305.45,428.17Zm-11.86-12.1c-4.21,2.31-6.95,6-9.19,10.12-1.77,3.31-3.82,6.48-5.79,9.68a11.28,11.28,0,0,1-1.46,1.57c-4.83-6.08-5-36.36-.23-44.57L298.64,414A46.81,46.81,0,0,0,293.59,416.07Zm-10.32,26.44c2.15.65,4.2,1.59,6.34,2.3,6.39,2.11,12.82,3.36,19.83.06-.74,4.34-1.4,8.16-2.06,12-.94,5.53-1.86,11.07-2.87,16.59a9,9,0,0,1-1.23,2.26A77.17,77.17,0,0,1,278,441.56,51.34,51.34,0,0,1,283.27,442.51Zm49.4,20.94c.11,1.61.1,2.92.32,4.19.91,5.3,3.82,9.45,7.46,13.28A92.51,92.51,0,0,1,346.8,489a13.74,13.74,0,0,1,1.06,2.29,75.92,75.92,0,0,1-42.05-13.74Zm61.06-110.84c-2.32,1-4.1,2-6,2.63-2.13.72-4.37,1.09-6.53,1.71-6.57,1.9-12.54,4.69-16.15,11.48L350.3,338.54C366.28,339.07,380.43,343.37,393.73,352.61Zm-42.5-18v-3.46l7.25.58c-.18,1.27-.31,2.22-.48,3.48Zm9.64.87c.15-1.24.28-2.24.43-3.46l5.3,1c-.19,1.16-.34,2.12-.53,3.38Zm7.85,1.54c.24-1.18.44-2.12.71-3.42l5.68,1.61c-.33,1.2-.58,2.12-.88,3.25Zm7.8,2.31,1.16-3.33,5.89,2.38c-.39,1.12-.71,2.08-1.11,3.24Zm8.49,3.58c.54-1.19.91-2,1.42-3.16l4.46,2.35L389.16,345Zm23.65,17.52-3.4-3.84,2.38-2.21,3.82,3.84C410.37,359.05,409.57,359.69,408.66,360.41Zm4.53,0,4.05,5.08-2.74,1.94-3.7-4.6ZM403,354.86l-4.1-3.42,2.34-2.49,4.08,3.47ZM422.15,391l-30-4.37a46.85,46.85,0,0,0,2.52-4c2.31-4.71,2.24-9.66,1.61-14.76a99.76,99.76,0,0,1-.39-10.67,11.82,11.82,0,0,1,.61-2.46A76.63,76.63,0,0,1,422.15,391Zm-25.7-41.37-5.19-3.3,1.87-2.94,5.59,3.63Zm-13.53,27.83a17,17,0,0,0,3-4.41,4.27,4.27,0,0,0-1.27-5.36,4.73,4.73,0,0,0-5.24.16c-2.59,1.66-3.88,4.28-4.95,7-.87,2.21-1.57,4.49-2.56,7.37-2-3.95-3.67-7.38-5.34-10.76a10.83,10.83,0,0,1,7.16-6.62c5.45-1.78,11-3.15,16.36-4.64.55,5.33,1.22,10.62,1.59,15.94a15,15,0,0,1-2.75,9.94l-13.23-1.83C378.23,381.84,380.69,379.75,382.92,377.43Zm-4.83,1.9,5.8-8.59C384.4,372.8,381.2,377.63,378.09,379.33Zm9.31,51.37c2.63,1.44,5,2.82,7.42,4a22.52,22.52,0,0,0,4.09,1.51c2.62.7,4.94-.31,5.89-2.42a4.34,4.34,0,0,0-2.34-5.66,24.68,24.68,0,0,0-13-2.23l7.28-8.41c4.22.73,6.75,3.23,8.8,6.2,2.81,4.08,5.41,8.3,8.09,12.47.1.15.08.37.06.27-4.62,2-9.09,4.12-13.68,5.93-3.2,1.27-6.57,2.08-10.48.92C388.87,439.27,388.15,435.1,387.4,430.7Zm4.25,0,10.08,3.06C400.25,435,394.57,433.39,391.65,430.73Zm7.75-15.5,22.52-22c5.05,4.07,5.2,35.17.3,44.4a40.61,40.61,0,0,1-3.82-4c-1.49-2-2.67-4.26-4.06-6.35C410.73,421.88,406.47,417.18,399.4,415.23Zm24.05,32.47,1.84-4.58,2.69,1.35c-.62,1.54-1.14,2.86-1.76,4.39Zm3-8,1.71-6.12,2.91.83c-.59,2.17-1.14,4.21-1.78,6.58Zm2.11-8.15c.27-1.6.52-3.05.8-4.67l3.07.29c-.28,1.67-.53,3.13-.83,4.86Zm1.16-7.58c.21-2.13.4-4.11.61-6.26l3.1.16c-.21,2.12-.4,4.06-.61,6.1Zm.66-9c-.17-2.48-.34-4.81-.53-7.41l3.19.15c.18,2.43.35,4.79.54,7.42Zm-.82-9.8c-.24-1.68-.45-3.14-.7-4.84l3.07-.54c.26,1.64.5,3.14.78,4.86ZM428.41,398c-.49-1.81-.94-3.5-1.45-5.37l3-1.16,1.52,5.88ZM426,389.41l-2.1-5.63,2.94-1.25,2.28,5.71Zm-3.18-7.91-2.36-4.74,2.83-1.66c.84,1.63,1.61,3.11,2.5,4.85Zm-3.59-6.95-3-4.66L419,368c1,1.57,1.9,3,2.91,4.57ZM348,331.11v3.42l-5.89.58v-3.49Zm-9,4.25-4.86.79c-.22-1.08-.41-2-.67-3.32l5.06-.94Zm-8.9-1.9c.45,1.13.83,2.08,1.34,3.34l-5.22,1.26c-.37-1.08-.69-2-1.1-3.18Zm18.69,5.45c-4.55,9.2-9.07,18.33-13.73,27.77-4.09-7.25-10.62-9.59-17.95-10.76a62.69,62.69,0,0,1-8.55-2.51,12.19,12.19,0,0,1-1.88-1C311,346.13,340.25,336.7,348.8,338.91ZM322,335.84c.39,1.13.72,2.09,1.15,3.32l-5.3,2c-.33-1.1-.62-2-1-3.27Zm-8.3,3.46,1.55,3.12-4.37,2.16-1.3-3.1Zm-7,3.66,2,2.91-4.55,2.87L302.28,346Zm-7.36,5,2.09,2.65-4.18,3.44-1.95-2.83Zm-6.12,5.47,2.28,2.23-3.78,3-2.22-2.07Zm-6,5.57,2.58,2.17c-1.26,1.52-2.41,2.92-3.72,4.49-.89-.67-1.68-1.28-2.7-2Zm-5.85,7.29,2.65,2c-1.37,2.13-2.58,4-3.9,6.07l-2.7-2.06Zm-5.57,9,2.88,1.57c-.59,1.22-1.13,2.36-1.81,3.75L274,379.09ZM272.61,382l2.95,1.4-2,5.32-3.1-1.09C271.19,385.71,271.85,384,272.61,382Zm-3.25,9,3.05.91-1.66,6.79-3.18-.59C268.18,395.72,268.74,393.48,269.36,391Zm-2.3,10.25,3.1.73c-.2,1.48-.39,2.8-.6,4.33l-3.08-.55C266.69,404.19,266.86,402.86,267.06,401.28Zm-.88,8.25h3.08c-.13,1.88-.26,3.71-.4,5.76l-3.14.15C265.88,413.41,266,411.56,266.18,409.53Zm-.13,9.38h3.09c.15,2.14.28,4.09.44,6.33h-3.07C266.36,423.16,266.21,421.1,266.05,418.91Zm.9,9.68,3.1-.18c.3,1.42.57,2.74.88,4.25l-2.89,1C267.68,432,267.36,430.46,267,428.59Zm1.7,7.57,2.91-.77c.42,1.48.82,2.89,1.29,4.53l-3,.59C269.44,439,269.06,437.64,268.65,436.16Zm2.56,8.33,2.92-.91,2,4.79-2.76,1C272.66,447.74,272,446.23,271.21,444.49Zm3.64,8.13,2.63-1.4c.57,1.08,1.09,2.08,1.67,3.2l-2.55,1.41C276,454.68,275.46,453.74,274.85,452.62Zm3.31,6,2.33-2,3,4.69-2.37,1.74Zm8.3,11.24-3.39-4,2.2-2,3.68,4.55Zm5.39,5.51-3.25-3.07,2.12-2,2.46,2.57C292.72,473.75,292.33,474.47,291.85,475.36Zm6.88,6.1L293.36,477l1.85-2.27,5.14,4.36Zm7.24,5c-1.53-1-3-2-4.61-3l1.81-2.25,4.54,3Zm8.11,4.38-5.84-3,1.6-2.39,5.33,2.69C314.79,489.06,314.5,489.78,314.08,490.79Zm7.59,3-5.32-1.91,1.14-2.71,5.21,2.08C322.32,492.22,322.06,492.87,321.67,493.81Zm9.81,2.88-7.05-1.84.76-2.7,6.29,1.61Zm1.85.41c.3-1.12.48-1.8.71-2.69l5.69.79c.07.87.14,1.67.25,2.92Zm14.55,1.6-5.33-.39v-2.94l5.33.54Zm-10-29.71c-1.37-1.85-1.74-4.44-2.62-6.87l12.3-6.49c-.67,3.27-1.45,6.31-1.85,9.41a20.9,20.9,0,0,0,.19,5.69,4,4,0,0,0,3.87,3.42c2.06.23,3.37-1.09,4.17-2.78,1.45-3.06.86-6.21,0-9.31-.51-1.89-1.15-3.74-1.74-5.61l.48-.3,9.83,5.15c.79,3.75-.47,6.94-2.59,9.72-3.26,4.31-6.8,8.41-10.21,12.59C345.77,478.79,341.6,474.05,337.86,469Zm17.89,15.69c2.1-2.87,4.59-5.5,6.45-8.51,2.38-3.86,4-8.09,3.1-13.4l28.15,14.77c-12.75,8.69-26.28,13.27-41.72,13.27C353.06,488.76,354.31,486.65,355.75,484.68ZM352,498.59c-.07-.9-.12-1.65-.2-2.66l5.67-.65c.09,1.2.14,2,.22,3Zm8.17-.5c-.1-1.09-.16-1.85-.26-2.88l4.59-.63.81,2.58Zm7.83-1.4c-.32-.89-.57-1.61-.95-2.66l5.16-1.33c.26,1.08.42,1.71.66,2.67Zm7.52-2-1-2.73,6.8-2.56,1.75,2.41Zm9.6-3.85c-.48-1-.8-1.72-1.22-2.64l4.59-2.26,1.53,2.39Zm7.1-3.73c-.5-.95-.89-1.72-1.35-2.61l4.81-3,1.62,2.34Zm3-10.84-5-29c2.87.17,5.49.79,7.92.36a74.25,74.25,0,0,0,10.18-3.05c3.38-1.11,6.7-2.38,10.09-3.46a11.38,11.38,0,0,1,3,0A76.35,76.35,0,0,1,395.2,476.27Zm8-.83c.66.8,1.19,1.43,1.89,2.25l-4.92,4-1.74-2.22ZM425,501.79c-2.61-.18-4.23.61-4.3,3.42l-3.27,1.35c-2.63-2.59-3.09-2.67-6-1l-3.69-3.11c-.13-3.5-.16-3.54-3.34-4.59-1.53-3.08-3.16-6.37-4.59-9.27l16.51-15.11c3.51,6.71,8.14,12.95,16,16.76Zm8.24-14.16c-7.32-3.46-11.43-9.76-15.41-15.59,26.13-37,27.06-74,1.6-111.27,6.87-.45,29,5.34,35.68,9.48-.43,6.72-.88,13.56-1.31,20.3-3.32,2.24-3.38,4.4-.64,7.18-.5,4.33-1,8.8-1.55,13.25s-1.14,8.92-1.71,13.28c-2.81,2.08-3,3.13-1,5.91-.37,2.13-.75,4.4-1.12,6.58-5,1.95-5.69,5.31-1.79,9.2-.46,2.09-.93,4.28-1.44,6.46a1.67,1.67,0,0,1-.52,1c-2,1.23-1.88,2.83-.8,4.6A177.15,177.15,0,0,1,433.28,487.63Zm47.6-100.16c-.43,6.47-1,12.93-1.45,19.37-1.51,1.39-2.07,2.72-1.05,4.77.56,1.12-.06,2.81-.14,4.12-4.38,2.28-4.83,5-1.3,9.27-2.22,8.7-4.53,17.72-6.77,26.48-2.21,1-2.89,2.24-2.32,4.21a4,4,0,0,1-.42,2.26c-.74,1.91-1.58,3.78-2.4,5.7-2.93,1.3-3.26,2-2.8,5.59l-3,5.07c-3.89.44-6.09,2.34-4.92,6.18-4.16,5.36-12.86,10.16-18,7.92,3.22-9.82,6.42-19.62,9.76-29.84,2-1.38,2.82-2.22.88-5.38l1.53-6.82c4.7-2.47,5.24-5.22,1.54-9.31.78-2.75,1.64-5.76,2.49-8.77a6.42,6.42,0,0,0,.2-1c1-9.84,1.91-19.69,2.84-29.32,2.81-2.1,3.84-4.62.88-7.32.43-6.38.87-12.83,1.34-19.61,3.18,1.15,6.14,2.27,9.12,3.29,5.7,2,9.51,6.33,13.42,10.55A3.72,3.72,0,0,1,480.88,387.47ZM505.93,371c-6.32,5-11.85,10.16-13.31,18.89l-7.28-6.24c3.32-7.63,8.7-13,15.52-17.35Zm-7.83-6.85c-7.17,3.53-12.72,8.48-16,16.18L474.43,372c5.07-6,10.6-10.75,18.29-12.41Zm-14.2-12.79,5.69,5.34c-7.47,1.67-13,5.81-17.9,11.63-1.88-2.64-3.55-5-5.34-7.52C471.21,355.66,477.23,353,483.9,351.33ZM481.16,349a33.45,33.45,0,0,0-17.43,8.34l-5.55-9.12c2.54-1.73,12.81-3.74,18.79-3.74ZM474,341.45a34.93,34.93,0,0,0-17.25,3.74l-4.19-7.65c5.23-2.05,10.59-2,15.88-2.68ZM465.51,331l-14.74,3.54-3.43-6c4-3.16,8.8-2.66,13.18-4Zm-6.76-9.77c-4.41,1.41-9.33.91-12.87,4.94-.84-1.75-1.54-3.23-2.28-4.79,2.51-1,4.52-1.58,6.42-2.47s3.54-2,5.5-3.11C456.57,317.53,457.6,319.25,458.75,321.2ZM461,281.45c3.18,1.19,4.46,3.45,4.61,6.68a21.8,21.8,0,0,1-2.17,11.39c-3.61,6.73-8.11,12.75-15.25,16.17a50.71,50.71,0,0,1-5.47,1.91l-2.06-4.42,2.86-1.16a9.79,9.79,0,0,0,8.31-1l.18-.93L448,308.26c1.92-2.21,2.68-5.37,6.08-6.28a8.2,8.2,0,0,0,3.4-2c.62-.59.71-1.75,1-2.65a17.59,17.59,0,0,0-2.83-.59c-.51,0-1.06.41-2.06.83a43,43,0,0,0,1.67-5,22.73,22.73,0,0,0,.64-6.38c-.08-1-1.45-2.14-2.51-2.61-1.29-.58-1.85.78-2.43,1.77-1.75,3-2.73,5.94-.15,9.12l-1.14,3.84c-.6-1.3-1-2.16-1.4-3-.64-1.21-1.4-2.48-3-1.74s-1.42,2.16-.89,3.45c.82,2,1.81,3.95,2.85,6.2l-2.48,3.49a28.06,28.06,0,0,0-.56-3c-.39-1.2-1.31-2.12-2.52-1.5a3,3,0,0,0-1.25,2.46,25,25,0,0,0,1.67,4.59l-2.56,1.48-4.17-4.6c4.82-2.93,5.45-7.81,5.71-12.86.06-1.12.19-2.25.16-3.37-.12-4.37,2.31-6.69,6.11-8.27A17.88,17.88,0,0,1,461,281.45Zm-30.52-40.84c1.59.8,3,2,4.61,2.72,6.3,2.66,9.36,7.83,10.81,14.07,1.29,5.55,2.15,11.18,3.2,16.78l.43,2.22c-2.41,1.22-4.76,2.27-7,3.56a9.67,9.67,0,0,0-5,8.12c-.12,1.85,0,3.72-.29,5.55a38.48,38.48,0,0,1-1.43,6.74,4.36,4.36,0,0,1-3.23,3.15c-29.79-13.46-59.74-15.61-90.82-6.68.09-6.69,1.83-13.08,2.81-19.86.59.39,1,.59,1.29.86,5.91,4.86,12.34,8.42,20.13,9.58,12.24,1.82,23.1-1.59,33.08-8.19,10.91-7.22,18.07-17.46,22.58-29.67,1.28-3.46,2.89-6.81,4.5-10.58A42.07,42.07,0,0,1,430.52,240.61Zm-29.64-14.92c.88-6.25,9.25-12.55,15.8-11.8.24,1,.47,1.86.72,2.88-4.31,1.6-8.54,3.29-9.23,8.25l-6.9,2.88A7.18,7.18,0,0,1,400.88,225.69Zm10.05,4.5a5.34,5.34,0,0,1,.43,3.41,70.65,70.65,0,0,1-4.87,10.56c-.21-4.82-.83-9.37-3.27-13.57a7.16,7.16,0,0,1,5.79-1.82A2.82,2.82,0,0,1,410.93,230.19Zm-26.83-8.14c1.18.14,2.36.31,3.54.41,8.26.74,14.4,10.36,15,16.54,1.2,11.9-4.21,20.57-13.8,26.87a27,27,0,0,1-19.48,4.48c-11.51-1.8-18.52-11.44-16.65-22.93C355.08,232.94,369.85,221,384.1,222.05Zm-33.86,19.08c.71-4.56.82-8.79,4.37-12.31l1.85,2.33Zm-1.35-23.59c5.67-.92,11.84,4.18,9.64,10.62l-5.37-2.3c-.51-2.31-1.66-5-5.29-5.68C348.26,219.19,348.56,218.41,348.89,217.54Zm-8.64-6.79c2.55.3,4.75,1.21,5.93,3.72,1,2.15-.17,4.62-2.75,5.46.22-.39.38-.65.52-.92.68-1.32.8-2.59-.67-3.44a2.93,2.93,0,0,0-3.78,1.22,4.11,4.11,0,0,0,3.5,6c.46,0,.93-.08,1.39-.09,4.39-.09,7.23,3.71,5.61,7.81-3.81,9.62-2.78,19.37-.28,28.9,2.73,10.37,13.92,17,25,15.64,12.85-1.55,21.94-8.48,28.16-19.63,2.48-4.44,5.34-8.68,7.87-13.1a42.11,42.11,0,0,0,3.4-7.38c1.39-4.2.13-7.15-3.67-9.5,1.06-3.39,5.11-6.09,9.17-6.28a27.92,27.92,0,0,0,5.11-.5,6.23,6.23,0,0,0,4.66-6.17,2.53,2.53,0,0,0-2-2.57,2.88,2.88,0,0,0-3.48,1.2c-.76,1.15-.27,2.12.61,3a7,7,0,0,1,.77,1.3,3.59,3.59,0,0,1-4.42.3c-1.36-.83-1.11-2.27-.72-3.58a6.33,6.33,0,0,1,3.59-4.22,37.35,37.35,0,0,1,16.62-3.24c2.62,0,5.24,0,7.87,0l.06.64-2.77,1.26c-7.88,3.57-12.73,10.15-16.35,17.52s-6.56,15.33-9.81,23c-2,4.63-3.61,9.44-6,13.83-2.65,4.84-6.6,8.74-10.92,12.22-6.74,5.43-14.56,8.55-22.74,11-5.25,1.59-10.36.64-15.48-.5-14-3.12-22-12.12-25.57-25.75a55.74,55.74,0,0,1-1.49-15.52,67.09,67.09,0,0,0-2.83-19.59,28.7,28.7,0,0,0-6.93-12.07c2.84-.13,5.67-.33,8.51-.37A33.61,33.61,0,0,1,340.25,210.75ZM580.39,421.86c-1.31-.95-2.58-1.89-4.34-3.19V671.74c-12.21,2.31-18.55,10-21.23,21.54H432.67c2.61,2.83,4.95,4.7,8.79,4.38,4.73-.4,9.52-.1,14.29-.1l101.37,0a10.68,10.68,0,0,0,1.41-.17c1-13.76,9.37-19.9,21.86-22.16Zm-385.71,250V418.78l-4.2,3.12V675.52a23.49,23.49,0,0,1,15.3,6.74c4.27,4.16,6.84,9,6.24,15.17.8.08,1.26.16,1.71.16,39,0,77.91-.07,116.86.07,3.59,0,5.13-2.27,7.2-4.44H215.92C214.16,682.12,205.34,672.93,194.68,671.86Zm360.94-617c2.79,11.61,9.17,19.28,21.38,21.49v243l4.18-3V72.84c-12.56-2.27-21-8.48-21.86-22.2-.49,0-1-.13-1.4-.13-39,0-78,.07-117.06,0-3.5,0-4.95,2.33-7.14,3.94,0,.17.11.33.16.49ZM191.29,316.3l4.26,3.13v-243c12.28-2.34,18.64-10,21.3-21.66h122c-2.5-2.74-4.85-4.6-8.69-4.27-4.67.39-9.39.09-14.1.09l-101.56,0a10.32,10.32,0,0,0-1.4.17c-1,13.76-9.37,19.9-21.85,22.15Zm164.2-190.46H415V76.17H355.49Zm4.32-45.43h51.11v41.17H359.81ZM500.94,520.76a37,37,0,0,1,13.13-4.29c.63-.1,1.24-.26,1.87-.39a9.2,9.2,0,0,0-3-.94c-4.58-.88-9-2.11-13-4.73a10,10,0,0,1-4.6-7.47c-1-7.47-2.35-14.9-3.57-22.35a6.17,6.17,0,0,0-.56-1.18c-.17.69-.27,1-.32,1.32-1.21,7.51-2.48,15-3.57,22.54a9.29,9.29,0,0,1-4.34,7,18.27,18.27,0,0,1-3.82,2.09c-4.07,1.34-8.2,2.49-12.29,3.72,0,0,0,.12.16.14.58.11,1.17.19,1.76.28A36.26,36.26,0,0,1,482,520.81c2.78,1.64,4.84,3.78,5.34,7.21.89,6.23,1.93,12.42,2.93,18.63.29,1.84.62,3.67.94,5.5.47-.26.59-.48.63-.71,1.21-7.45,2.59-14.87,3.54-22.35A10.55,10.55,0,0,1,500.94,520.76ZM277.61,258.05c.64,5.26,1.63,10.47,2.48,15.7.42,2.57.87,5.13,1.31,7.7a2.68,2.68,0,0,0,.78-1.53c1.2-7.38,2.5-14.75,3.53-22.16a9.51,9.51,0,0,1,4.56-7.06,33.56,33.56,0,0,1,13-4.68l2.94-.5,0-.52-3.24-.56A32.67,32.67,0,0,1,290,239.62c-2-1.38-3.65-3.07-4.06-5.63-.54-3.4-1.07-6.8-1.62-10.2-.79-4.89-1.6-9.78-2.39-14.66h-.44a9.26,9.26,0,0,0-.34,1.1c-1.21,7.45-2.52,14.89-3.55,22.36a9.72,9.72,0,0,1-4.63,7.24,33.55,33.55,0,0,1-12.8,4.63c-1.12.19-2.24.4-3.35.6a3.86,3.86,0,0,0,1.92.73,36,36,0,0,1,14,4.74A9.75,9.75,0,0,1,277.61,258.05Zm-17,398.84a11.36,11.36,0,0,0,1.84,2.83c2.15-1.21,2.64-2.23,2.72-5.15.11-4.17.18-8.34.32-12.5.2-6.29.46-12.57.65-18.85a13.42,13.42,0,0,0-.43-2.58c-1.87.74-2,2.18-2.11,3.39-.76,5.71-1.41,11.43-2.1,17.14-.07.51-.15,1-.3,2.07-1.36-4.18-2.43-7.79-3.71-11.32s-2.51-7.12-5.2-10.06a4.76,4.76,0,0,0-1.1,2.36c-.22,2.44-.38,4.88-.42,7.33-.16,8.53-.27,17.07-.38,25.61,0,1.31.15,2.74,1.82,2.77s1.76-1.34,1.89-2.57a8.22,8.22,0,0,0,.06-1q.14-9.63.26-19.26v-2a18,18,0,0,1,1.6,4.54C257.54,645.4,259,651.16,260.62,656.89Zm175.47-7.58A72.37,72.37,0,0,0,438,657.2c.29.86,1.7,1.34,2.6,2,.45-.72,1.22-1.4,1.31-2.17,1.31-10.54,1.08-21.14,1-31.72a10.57,10.57,0,0,0-.33-2.75,5.87,5.87,0,0,0-1-1.58l-.65.09a9,9,0,0,0-.75,2,51.38,51.38,0,0,0-.38,5.54c-.05,5.4,0,10.81,0,16.21l-.72.06a121.25,121.25,0,0,0-8-23.63,5.8,5.8,0,0,0-2.15,2.32,6.45,6.45,0,0,0-.36,2.53c0,6-.05,12,0,18.06.05,4,.22,8.07.41,12.1.07,1.29.13,2.74,2.57,3a14.31,14.31,0,0,0,.7-3.08c.06-7.66,0-15.33,0-23l.4-.12Q434.36,641.18,436.09,649.31ZM309,652.25a29.34,29.34,0,0,0,.31,5.14,3,3,0,0,0,1.71,1.86c.42.17,1.44-.49,1.83-1a3.89,3.89,0,0,0,.42-2.1c.12-3.3.31-6.62.24-9.92q-.21-11.12-.71-22.22a3,3,0,0,0-1.56-2.27c-1.37-.27-1.57,1.09-1.64,2.17-.16,2.11-.32,4.23-.37,6.34s0,4.46,0,6.74l-4.82-.28c-.05-.83-.1-1.54-.13-2.26-.15-3.5-.23-7-.48-10.51a9.57,9.57,0,0,0-1-2.6c-2.07.43-2.13,1.74-2.2,2.88-.24,3.43-.36,6.87-.54,10.31,0,.69-.1,1.38-.16,2.08l-.59-.46c-.92.73-2.42,1.31-2.65,2.21-.57,2.21,1.67,2.42,3.07,3.13,0,2.9,0,5.74,0,8.58a41.69,41.69,0,0,0,.28,6.33,3.25,3.25,0,0,0,1.95,2.24c1.33.28,1.83-1,1.95-2.23.14-1.38.2-2.77.22-4.16,0-3.36,0-6.72,0-10.09l4.88-.4C309,645.26,309,648.75,309,652.25Zm-62.08-28.12c.59-1.27.8-2.6-1.39-3.33-4.45,4.66-6.5,10.92-10.19,16.65-.06-.75-.1-1.07-.11-1.4-.16-4.43-.28-8.86-.49-13.29-.05-1.11-.24-2.59-1.75-2.32-.66.13-1.46,1.46-1.56,2.31a71.38,71.38,0,0,0-.53,8.52c0,8.48,0,17,.12,25.43,0,1.31.12,2.92,1.95,2.9s1.86-1.62,1.92-2.93c.11-2.18.22-4.37.14-6.55-.12-3,1.79-5,3.09-7.46,1.33,4.11,2.38,8.19,3.5,12.26a24.55,24.55,0,0,0,1.52,4.29,2.25,2.25,0,0,0,1.82,1.06c.51-.08,1.13-1,1.22-1.68a7.51,7.51,0,0,0-.28-2.93c-1.68-6-3.42-11.93-5.14-17.9a9.9,9.9,0,0,1,1.27-3.43C243.68,630.94,245.35,627.55,246.92,624.13Zm162.67,3.57a8.21,8.21,0,0,0-7.66-6.89,40.22,40.22,0,0,0-5.74.36l-1.48-1.95c-.51.75-1.08,1.2-1.07,1.64,0,1.88-1.16,2.8-2.44,3.81a13.18,13.18,0,0,0-4.9,7.28,8.25,8.25,0,0,0,.2,2.54l.62,0,5.39-6.69.59.36c0,.64,0,1.29,0,1.94-.2,9.06-.42,18.13-.61,27.2a5.1,5.1,0,0,0,.22,2.33c.33.65,1.19,1.48,1.74,1.43s1.24-1,1.54-1.68a5.72,5.72,0,0,0,.1-2.16c0-2.84,0-5.68,0-8.83a13.52,13.52,0,0,0,8.74-5.31C408.23,638.53,410.91,633.73,409.59,627.7Zm-10.13,15.36a16.64,16.64,0,0,1-3.22,1.59v-19a7.48,7.48,0,0,1,6.7-.28c2.15,1,2.72,3,2.68,5.12A16.11,16.11,0,0,1,399.46,643.06ZM353,657.45a16.29,16.29,0,0,0,2.4-4.53,44.05,44.05,0,0,0,1.53-20.4,14.45,14.45,0,0,0-1.17-3l.17-.07a41.52,41.52,0,0,0-2.45-5.95c-1.68-2.81-4.77-3-7-.6a17.55,17.55,0,0,0-2,2.92c-3.38,5.47-3.45,11.6-3.23,17.69.18,5,1.18,9.87,4.5,13.92C347.88,660.16,350.79,660.27,353,657.45Zm-5.44-29.07a22.9,22.9,0,0,1,2.18-3.79c2.75,1.18,2.94,3.69,3.91,5.1,0,1.63-.1,2.87,0,4.09a42.43,42.43,0,0,1-1.39,16.52,33.25,33.25,0,0,1-2.36,4.84h-1a14.24,14.24,0,0,1-1.73-2.94A39,39,0,0,1,347.51,628.38Zm-63.57,29c1.88,4.23,6.41,4.63,9.58,1.2a5.06,5.06,0,0,0,1.29-1.74c.94-3.22,1.91-6.44,2.56-9.72.33-1.6-.62-2.79-2.45-2.94-1.45-.12-2.9-.33-4.35-.4a2.27,2.27,0,0,0-2.68,2.28c-.1,1.71.93,2.51,2.54,2.68.88.1,1.76.18,2.88.29-.53,1.6-.73,3.07-1.48,4.16a15.46,15.46,0,0,1-3.13,2.68c-.79-1.13-2-2.16-2.29-3.4a38.1,38.1,0,0,1,2.12-26,4.51,4.51,0,0,1,3.31-2.27c1.72-.08,2.3,1.6,2.5,3.26a9.49,9.49,0,0,0,.92,2.33l1.15.38c.22-.49.4-1,.65-1.47,1-2,.28-5.51-1.52-7.15-2.12-1.93-4.64-2.22-6.85-.39a13.89,13.89,0,0,0-3.51,4.2c-3.75,7.18-4.29,15-3.49,22.83A30.59,30.59,0,0,0,283.94,657.43Zm173.81,1.28c-.1.68.67,1.49,1,2.24a8.19,8.19,0,0,0,2-1.52,6.84,6.84,0,0,0,.61-2.28l1.85-7.76h5.52c.13.6.28,1.23.38,1.87.38,2.35.64,4.73,1.19,7,.16.69,1.12,1.19,1.72,1.78a9.55,9.55,0,0,0,1.47-2.19,5.36,5.36,0,0,0-.17-2.15c-.61-4.46-1.27-8.9-1.82-13.37-.73-6-1.33-12.11-2.09-18.15-.15-1.19.06-2.75-2.05-3.39-3.49,7.77-4.14,16.32-6.68,24.23-1.34.8-3.79-.17-3.77,2.15,0,.89,1.45,1.77,2.24,2.65.36.37.26,1,.12,1.65C458.75,653.92,458.1,656.29,457.75,658.71Zm7.12-16.47a74.55,74.55,0,0,1,2.47-9c.35,3.7.7,7.41,1.07,11.4h-4.05C464.55,643.77,464.7,643,464.87,642.24Zm-37.12,56.38a12.12,12.12,0,0,0-4.07-1.43c-2.59-.45-5.21-.66-7.95-1,.46-1.05.94-2.05,1.33-3.08.5-1.34.83-2.73-.45-3.85s-2.63-.77-3.91-.12a15.25,15.25,0,0,0-7.77,8.39,11.18,11.18,0,0,0-.57,4.27c.22,4.75,3,8.19,6.17,11.39a7.16,7.16,0,0,0,2.32,1.49c2.13.91,4.07-.3,3.88-2.58a21.63,21.63,0,0,0-1.39-4.9,12.4,12.4,0,0,0-1-1.9,22,22,0,0,0,3.38,0c3.25-.52,6.52-1,9.7-1.84a2.55,2.55,0,0,0,.31-4.83Zm-13.36-7.21c.21,3.2-2.22,5.45-6.64,6C409.72,694,411.88,692,414.39,691.41Zm-.9,20.16c-2.62-1.78-4.33-4.31-5.94-7.49l3.77.84,2.74,6.33Zm-6.15-10.4c2.54-2.12,14.93-2.13,18.79.09C422.36,703.11,411,703,407.34,701.17ZM346.23,50.48c3.15.66,6.35,1,9.68,1.54-.44,1-.92,1.92-1.28,2.9-.5,1.33-.86,2.73.38,3.86s2.75.8,4.08.11a15.21,15.21,0,0,0,7.54-8.07,11.31,11.31,0,0,0,.69-4.43c-.18-4.74-3-8.2-6.08-11.4a7.48,7.48,0,0,0-2.11-1.45c-2.37-1.15-4.46.11-4.2,2.7a22.53,22.53,0,0,0,1.51,4.86,9.54,9.54,0,0,0,.63,1.28c-3.72.51-7.38.9-11,1.57-1.69.31-3.64.8-3.89,3.07C342,48.48,343.57,49.92,346.23,50.48Zm11.15,6.32-.61-.44,2.86-4.92,4.47-.91C362.31,53.52,360.35,55.72,357.38,56.8Zm.84-20.28A19.08,19.08,0,0,1,364.09,44c-1.14-.24-1.84-.38-2.53-.54-.32-.08-.63-.18-1.24-.36l-2.72-6.22Zm6.36,10.23c-2.87,2.32-15.29,2.3-18.84-.09A37.81,37.81,0,0,1,364.58,46.75Zm-7.29,642.14a3.5,3.5,0,0,0-3,.56,4,4,0,0,0-.58,3,18.12,18.12,0,0,0,1.45,3.73c-2.8.33-5.44.52-8,1a12.47,12.47,0,0,0-4.23,1.56c-2.18,1.37-2,3.44.3,4.59a10.65,10.65,0,0,0,3.17,1.09c3.29.47,6.61.79,9.9,1.18a49.46,49.46,0,0,0-1.94,4.75c-.46,1.47-.57,3.08.94,4.14a3.05,3.05,0,0,0,4.15-.62,40.92,40.92,0,0,0,5.57-6.85C369.87,698.83,363.18,691.05,357.29,688.89Zm.15,22.65-.62-.35c.9-2.08,1.81-4.15,2.71-6.23l3.76-.88A18.33,18.33,0,0,1,357.44,711.54Zm-12.51-10.32a30.18,30.18,0,0,1,18.63-.17A31.56,31.56,0,0,1,344.93,701.22Zm13.95-4.54L356,691.77l.67-.48c2.92,1.11,4.87,3.3,6.72,6.29ZM172.62,340.26a42.24,42.24,0,0,0,7,5.65c8.13,4.77,15.91-2,18-7.78.94-2.58-.84-4.4-3.49-3.69A37.3,37.3,0,0,0,190.3,336c-.35-2.86-.52-5.57-1.05-8.21a12.43,12.43,0,0,0-1.91-4.49c-1.08-1.57-2.94-1.39-3.91.26a10.43,10.43,0,0,0-1.33,3.5c-.51,3.35-.83,6.73-1.22,10.07a49.4,49.4,0,0,0-4.77-1.94c-1.47-.45-3.1-.56-4.14,1A3.07,3.07,0,0,0,172.62,340.26Zm17.21-.53,4.9-2.9.45.6c-1,3-3.32,4.85-6.27,6.85C189.27,342.53,189.51,341.31,189.83,339.73Zm-5-14.21c2.45,2.71,2.7,15.11.36,19.44A41.55,41.55,0,0,1,184.88,325.52Zm-9.6,12.2,6.24,2.62.82,3.36-.52.53-7.08-5.6Zm7.07,68.69c.33,1.75.82,4,3.24,3.87,2.22-.11,2.93-2.13,3.29-3.95.63-3.16,1-6.36,1.54-9.7a11.88,11.88,0,0,0,3.07,1.27,5.7,5.7,0,0,0,3.62-.44c1.32-.88.92-2.5.27-3.8a15.15,15.15,0,0,0-8.49-7.89,11.09,11.09,0,0,0-4.26-.54c-4.74.24-8.17,3-11.35,6.19a7.22,7.22,0,0,0-1.49,2.31c-.89,2.13.33,4.07,2.62,3.87a22.38,22.38,0,0,0,4.89-1.39,9.47,9.47,0,0,0,1.48-.77C181.29,399.16,181.66,402.82,182.35,406.41Zm12.87-11.31-.49.67-4.89-2.9c-.32-1.57-.57-2.79-.9-4.37C192,390.18,194.06,392.18,195.22,395.1Zm-10.07-7.16c2.31,2.9,2.3,15.31-.08,18.87A37.81,37.81,0,0,1,185.15,387.94Zm-9.86,7c-.12-.21-.25-.42-.38-.63a19.42,19.42,0,0,1,7.52-5.87l-.86,3.74Zm413.09-69.26c-.3-1.57-.92-3.42-3-3.37s-2.64,1.77-3.18,3.35a18,18,0,0,0-.83,3.46c-.29,2.22-.45,4.46-.69,6.94-1.16-.51-2.16-1-3.19-1.38-1.35-.51-2.73-.81-3.83.49s-.74,2.63-.08,3.91a15.27,15.27,0,0,0,8.2,7.67,11.51,11.51,0,0,0,4.44.64c4.6-.18,8-2.84,11.1-5.86,2.11-2,2.6-4.07,1.64-5.42s-3-1.58-5.67-.48c-1.17.48-2.3,1.08-3.11,1.46C589.56,333.2,589.1,329.41,588.38,325.67Zm-12.72,11.77c.14-.2.28-.41.43-.61l4.93,2.85c.33,1.6.59,2.86.93,4.49C579,342.36,576.73,340.43,575.66,337.44Zm9.52,7.39a37.66,37.66,0,0,1,.08-19.35C587.52,328.35,587.46,341.22,585.18,344.83Zm10.43-7.16.34.59a18.93,18.93,0,0,1-7.5,5.92l.85-3.76ZM414,59.09a3.9,3.9,0,0,0,3.41-.47c.64-.55.69-2.15.52-3.21A15,15,0,0,0,416.62,52c3.34-.53,6.56-.92,9.72-1.57,1.82-.37,3.84-1.1,3.88-3.36s-2.09-2.8-3.79-3.12c-3.62-.68-7.29-1.08-10.94-1.59.6-1.46,1.4-3.07,1.92-4.76.45-1.49.49-3.1-1.06-4.11a3.07,3.07,0,0,0-4,.65A40.5,40.5,0,0,0,407,40.49C401.8,48.69,407.75,56.39,414,59.09Zm.27-22.54.58.29-2.72,6.32-3.8.87C409.93,40.86,411.66,38.35,414.28,36.55Zm12.45,10.29a30,30,0,0,1-18.68.23C414.24,45,420.47,45.25,426.73,46.84Zm-11.51,10c-3.1-1.15-5.07-3.34-6.71-6.13C412.89,51.14,415.22,53.25,415.22,56.87ZM591.31,386.74c-8.06-4.77-15.76,1.67-18,7.63a3.5,3.5,0,0,0,.49,3.06,3.85,3.85,0,0,0,3,.66,18.59,18.59,0,0,0,3.8-1.46c.33,2.78.49,5.49,1,8.11a13.38,13.38,0,0,0,2,4.66c1,1.49,2.83,1.32,3.79-.23a9.86,9.86,0,0,0,1.37-3.48c.53-3.37.85-6.77,1.26-10.17,1.56.64,3.15,1.44,4.84,2,1.49.45,3.1.49,4.11-1.05a3,3,0,0,0-.64-4A41.37,41.37,0,0,0,591.31,386.74Zm-15.75,8.72c1.14-3.3,3.45-5.15,6-6.91C581.86,392.46,580.37,394.39,575.56,395.46Zm10.07,11.35a30.06,30.06,0,0,1-.21-18.66C587.5,394.35,587.18,400.57,585.63,406.81Zm10-11.88-6.3-2.74c-.29-1.26-.52-2.27-.87-3.78,3.17,1.6,5.71,3.29,7.48,6ZM568.16,638.12c-.1-2.22-2.12-2.94-3.95-3.3-3.16-.63-6.37-1-9.71-1.54.44-1,.92-1.92,1.28-2.9.5-1.34.87-2.74-.38-3.87s-2.76-.8-4.09-.1a15.27,15.27,0,0,0-7.54,8.1,11.55,11.55,0,0,0-.67,4.45c.17,4.6,2.83,8,5.86,11.12,2.06,2.13,4.06,2.63,5.42,1.66s1.58-3,.48-5.68c-.49-1.17-1.08-2.29-1.49-3.16,3.73-.51,7.34-.87,10.89-1.55C566,641,568.26,640.54,568.16,638.12Zm-15-9.68c.23,3.36-2.22,5.63-6.77,6.17C548.16,631.78,550.07,629.54,553.12,628.44Zm-6.54,12.87,3.51.83,2.9,6.72C550.28,647.68,547.5,644.27,546.58,641.31Zm-1-3.31a38.63,38.63,0,0,1,19.4,0C562.38,640.32,549.5,640.31,545.58,638ZM213,653.74a3.15,3.15,0,0,0,4.16-.72,39.73,39.73,0,0,0,5.17-6.21c5.19-8.15-.59-15.81-6.95-18.61a3.79,3.79,0,0,0-3.39.43c-.67.65-.67,2.27-.51,3.4a13.71,13.71,0,0,0,1.3,3.25c-3.27.5-6.42.87-9.52,1.49-1.87.38-4,1-4.06,3.39-.05,2.53,2.32,2.91,4.11,3.25,3.49.66,7,1,10.62,1.44a47,47,0,0,0-1.91,4.58C211.52,651,211.36,652.67,213,653.74Zm2.16-3-.66-.32,2.71-6.25,3.77-.91A18.47,18.47,0,0,1,215.14,650.72Zm5.66-14.16c-4.4-.06-5.85-1.87-6.78-5.81C216.24,630.83,218.7,632.9,220.8,636.56Zm-18.71,3.55a38.55,38.55,0,0,1,19.37-.21C218.76,642.19,205.86,642.41,202.09,640.11Zm-15.27-588c1.62,2,3.41,3.83,5.06,5.65-1.75.79-3.65,1.52-5.41,2.49-1.2.66-2.25,1.91-1.61,3.26a4.45,4.45,0,0,0,2.78,2.33,18.47,18.47,0,0,0,13.65-3.17c4.87-3.46,4.94-12.38,2.87-16.14-1.27-2.31-3.64-2.39-5-.12a34.09,34.09,0,0,0-1.77,4.19,30.06,30.06,0,0,0-2.59-2.33c-2-1.45-4.08-2.92-6.24-4.17-1.32-.76-3-1.15-4.25.11s-.61,2.74.09,4A23.56,23.56,0,0,0,186.82,52.08Zm1.31,10.13,6.44-2.59,3.05,1.9C195,63,190.68,63.5,188.13,62.21ZM201.87,47.5c1.49,3.17,1.3,6.17.63,9.29C199.5,53.76,199.24,50.78,201.87,47.5Zm-1.53,12.73a40.6,40.6,0,0,1-14.19-13.48C190,47.09,199.14,55.72,200.34,60.23Zm379.7,630c1.39-.59,3.14-1.21,4.76-2.06,1.41-.74,2.48-1.9,2.07-3.69a3,3,0,0,0-3.33-2.29,43.74,43.74,0,0,0-9.16,1.14c-8.72,2.43-9.6,12.37-6.89,18.2,1.16,2.49,3.7,2.5,5.07.11a30.77,30.77,0,0,0,1.58-3.76c2.76,2,5.5,4,8.36,5.87,1.46,1,3.3,1.61,4.78.22s.59-3.33-.37-4.69C584.73,696.15,582.32,693.19,580,690.22Zm3.29-5,.23.63-6.44,2.7-3.28-2.08A18.82,18.82,0,0,1,583.33,685.18Zm-13.25,15.15c-1.55-1.62-1.82-4.22-.86-9.14C572.13,694.8,572.32,697.22,570.08,700.33Zm1-11.91c3.7.37,13.08,9.25,14.09,13.44A37.15,37.15,0,0,1,571.08,688.42ZM580,65.91a16.29,16.29,0,0,0,5.86-.41c2.19-.59,2.63-3,1-4.55a12.5,12.5,0,0,0-3.15-2,25.74,25.74,0,0,0-3-1.06,36.39,36.39,0,0,0,2.62-3A68.81,68.81,0,0,0,588.47,47c1.14-2.2-.29-3.82-2.76-3.46a7.25,7.25,0,0,0-2.94,1.08c-2.67,1.81-5.23,3.76-7.84,5.67a15.87,15.87,0,0,0-1.4-3.47c-.61-.88-1.78-2-2.63-1.93A3.89,3.89,0,0,0,568.16,47a14.22,14.22,0,0,0,.51,12.8C571.1,64.15,575.42,65.42,580,65.91Zm4.56-3.61c-2,1.22-5.52,1-9.94-.63l3.31-2.05ZM586,46.83A37.57,37.57,0,0,1,572.4,60.1C572.52,56.69,581.39,47.93,586,46.83Zm-15.46.84c2.55,2.2,2.4,5.47-.51,9.31C569.28,53.66,569.1,50.66,570.52,47.67ZM201.42,686.18c-3.93-3.62-8.84-4.47-14-4-1.55.13-3.07.62-3.43,2.45s.78,2.9,2.18,3.62c1.62.83,3.35,1.44,5.14,2.19l-1,.94a26.19,26.19,0,0,0-7.07,9.45c-1.06,2.64.3,4.38,3,3.67a17.54,17.54,0,0,0,5.08-2.54c1.87-1.27,3.55-2.83,5.33-4.29a17.7,17.7,0,0,0,1.52,3.74c.62.86,1.8,1.85,2.7,1.82a3.55,3.55,0,0,0,2.57-2,19.27,19.27,0,0,0,1.2-6C204.79,691.87,204,688.55,201.42,686.18Zm-14.08-.29c0-.2.11-.41.16-.62,3.17-.75,6.21.11,9.61,1.1l-3.31,2.13Zm-1.53,15.5a31.63,31.63,0,0,1,13.59-13A30.1,30.1,0,0,1,185.81,701.39Zm15.23-.86c-2.55-3-2.31-6.11.68-9.27C202.32,694.45,202.65,697.49,201,700.53ZM378.48,57.37a2.68,2.68,0,0,0,2.3.34c.42-.17.7-1.33.63-2-.37-3.39,1.18-6,4.61-7.24,3.86,1.16,5.28,3.43,5,7.51a2.13,2.13,0,0,0,.63,1.69,2.78,2.78,0,0,0,2,0,4,4,0,0,0,1.34-1.14,11.45,11.45,0,0,0-10.77-18.75c-5.18,1.14-9,5.17-9.38,10A10.58,10.58,0,0,0,378.48,57.37Zm2.4-13.92a7.32,7.32,0,0,1,9.62-.76c3,2,4.15,5.12,3,8.15-4.35-8.47-11.48-6.37-14.4-.07C377.89,48.67,378.66,45.53,380.88,43.45Zm196.5,327.79a10.86,10.86,0,0,0-2.79.62c.42,1,.59,2.3,1.32,3a11,11,0,0,0,12.35,1.88c4-1.91,7-6.67,6.76-10.67a12.07,12.07,0,0,0-8.1-10.78c-4.17-1.36-9.34,0-11.75,3.15a2.68,2.68,0,0,0-.45,2.28c.24.48,1.41.78,2.13.71,3.2-.34,5.73,1.18,7.15,4.54C583.08,369.47,580.52,371.39,577.38,371.24Zm4.3-12.12c2.25-1.14,5.29-.38,7.37,1.85a7.27,7.27,0,0,1,1,9.12c-2,3.28-4.78,4.5-8.61,3.54C589.74,369.44,588.4,362.39,581.68,359.12ZM393.33,690.84a2.75,2.75,0,0,0-2.28-.52c-.49.22-.85,1.4-.77,2.1.38,3.57-1.4,6.21-5.15,7.21-3.46-1.44-4.85-3.82-4.48-7.33.07-.62-.17-1.64-.59-1.86a3,3,0,0,0-2.16.12,4.31,4.31,0,0,0-1.44,1.33A11.49,11.49,0,1,0,395,705.44C398.15,700.82,397.42,694.06,393.33,690.84Zm-2.65,13.85c-3.14,2.59-6.43,2.89-9.48.84a7.14,7.14,0,0,1-3-8.41c3.32,6.85,10.37,8.31,14.5.16A6.5,6.5,0,0,1,390.68,704.69ZM194.32,361.54a2.23,2.23,0,0,0,1.83-.72,2.56,2.56,0,0,0-.15-2,4.26,4.26,0,0,0-1.33-1.45,10.88,10.88,0,0,0-11.91-1.56,11.11,11.11,0,0,0-6.82,10.58c0,4.82,2.55,8.42,7,10.46s9.92.84,12.7-2.62a3.11,3.11,0,0,0,.52-2.45c-.11-.39-1.43-.7-2.16-.62-3.38.37-6-1.43-7.1-5.11C188.24,362.53,190.54,361.21,194.32,361.54Zm-5.1,12a6.49,6.49,0,0,1-7.4-2c-2.58-3.11-2.88-6.45-.85-9.49a7.17,7.17,0,0,1,8.43-3C182.43,362.43,181.18,369.47,189.22,373.53Zm320,283.21c0,1.69.27,3.71,2.38,3.74a44.51,44.51,0,0,0,8.43-.94,2.43,2.43,0,0,0,1.33-2c-.24-.71-1.26-1.29-2.07-1.6-.53-.2-1.28.17-1.93.26-1.33.2-2.66.37-3.92.54V643.24a30.85,30.85,0,0,0,5.37-.35,3.38,3.38,0,0,0,2.18-2c.3-1.26-.83-2-2.09-2.09-1.77-.08-3.54,0-5.69,0V624.28l7.39-.38c-.19-2.93-1.51-3.54-6.55-3.41-4.3.12-5.42.71-5.42,3.14l1.17.77v14.86c-1.32.94-3.86.63-3.52,2.87.13.8,2,1.34,3.33,2.15,0,.24,0,.9,0,1.55C509.51,649.46,509.3,653.1,509.25,656.74ZM423,623.88c1.21-.18,2.34-.93,1.94-2.23a3,3,0,0,0-2.19-1.75,64.17,64.17,0,0,0-8.84,1.13,2.59,2.59,0,0,0-1.48,2c-.13,11.19-.15,22.39-.19,33.58v4.71a24.67,24.67,0,0,0,2.69-.28c2.33-.52,4.64-1.1,7-1.66,1.55-.38,3.58-.25,3.41-2.69-.11-1.45-1.8-2-4.36-1.4-1.72.39-3.4.93-5.09,1.4v-12l7.46-1.57c.29-2.67-.72-3.64-3-3.4-1.49.16-3,.44-4.55.68-.28-5.34-.54-10.47-.81-15.79.93,0,1.83-.06,2.73-.14C419.41,624.27,421.19,624.15,423,623.88Zm104.64,25.86c-2.28-.21-3.44.79-3.71,2.88-.37,2.77,1.68,6.56,4,7.4,2.85,1,7.86-.36,9-2.88a12,12,0,0,0,1-5.52c-.35-6.24-3.69-11.1-8-15.28a9.88,9.88,0,0,1-3.11-9.52c.25-1.35.72-2.45,2.2-2.69s3.11-.08,4,1.46c.42.72.56,1.61.92,2.39a22.79,22.79,0,0,0,1.25,2.06c1.8-2,1-3.71.4-5.3-.92-2.65-3.08-3.93-6.06-3.85-2.6.07-4.79,1.47-5.36,3.92a27.65,27.65,0,0,0-.74,6.66c.05,3.48,2.23,6,4.44,8.41,2.86,3.11,5.19,6.5,6.16,10.71,1.06,4.6.49,5.46-4.21,6a1.76,1.76,0,0,1-.39-.06C525.81,655.17,528.51,651.92,527.59,649.74Zm-247-25.69c1.39-.62,1.37-1.93.55-3.44a23.18,23.18,0,0,0-11,.19c-.78.19-1.21,1.81-1.81,2.76a20.3,20.3,0,0,0,2.56,1.27,4.61,4.61,0,0,0,1.61,0v30.4a12.39,12.39,0,0,0-3.1.65,2.64,2.64,0,0,0-1.36,1.84c0,.62.85,1.73,1.38,1.76a87.24,87.24,0,0,0,9.29,0,2.34,2.34,0,0,0,1.57-1.63,2.79,2.79,0,0,0-1.25-2,7.21,7.21,0,0,0-2.34-.7V624.65A15,15,0,0,0,280.56,624.05ZM483,626c1.82-2.68,3.69-2.53,5.74,0l2.11,2.58c.42-1,.81-1.49.8-2-.07-4.07-5.3-7-8.78-4.9a11.29,11.29,0,0,0-5,6.24,43.11,43.11,0,0,0-.63,25.61,8.83,8.83,0,0,0,4.92,5.67c1.91,1,3.88,1,5.28-.71a42.92,42.92,0,0,0,4-6c.66-1.16.67-2.62-.88-3.17s-2.06.72-2.53,1.87a7.34,7.34,0,0,1-3.56,4.34,5.42,5.42,0,0,1-3.69-4.09,41.39,41.39,0,0,1-.4-19.29A18.64,18.64,0,0,1,483,626Zm-109.83-4.16c-3.88-1.5-7.71-1.12-11.7.12a16.23,16.23,0,0,0-.56,3q-.06,15.18,0,30.35a16.78,16.78,0,0,0,.85,3.49l3.38-.52V642a37.85,37.85,0,0,0,3.92-.23,2.25,2.25,0,0,0,2-2.7c-.15-1.57-1.18-2.1-2.64-2l-3.21.18c-.18-4-.35-7.73-.51-11.43l8.62-1.15c0-.88.21-1.2.19-1.51A6.47,6.47,0,0,0,373.18,621.88ZM319.1,655.73c0,1.55-.13,3.63,2,3.67s2.14-2,2.17-3.57c.17-9.52.29-19.05.44-28.57,0-.44.07-.89.12-1.41,1.48-.1,2.86-.13,4.22-.3s2.42-.83,2.43-2.39a2.28,2.28,0,0,0-2.56-2.41c-3.77,0-7.54-.07-11.29.13a2.66,2.66,0,0,0-1.83,1.82,2.9,2.9,0,0,0,1.37,2.23,15.43,15.43,0,0,0,3.62,1c0,2.47.05,4.84,0,7.2C319.59,640.66,319.29,648.2,319.1,655.73Zm135.21-30.84c1.37,0,2.48,0,3.59,0,1.33,0,2.65-.23,2.7-1.93s-1.12-2.1-2.53-2.1c-3.42,0-6.84-.1-10.25.06a2.79,2.79,0,0,0-2.13,1.44c-.4,1.24.66,1.87,1.8,2.1s2.16.38,3.27.57c0,.65,0,1.11,0,1.57q-.35,14.48-.69,28.95a4,4,0,0,0,.18,1.94A9.51,9.51,0,0,0,452,659.3c.58-.61,1.38-1.13,1.69-1.85a6.92,6.92,0,0,0,.16-2.55q.12-13.29.22-26.59C454.11,627.14,454.24,626,454.31,624.89Zm42.43,34.71c3.43-.07,6.86-.31,10.27-.62.55-.05,1.45-.85,1.45-1.31a2.39,2.39,0,0,0-1.12-1.82,8.59,8.59,0,0,0-3.1-.42c-2.08-.06-4.16,0-6.3,0,.13-2.26.36-4.37.36-6.48q0-12.49-.19-25a9.13,9.13,0,0,0-.66-2.31l-.86,0a12.53,12.53,0,0,0-.88,2.44,46.56,46.56,0,0,0-.47,5.13c-.34,9.12-.63,18.25-1,27.37C494.19,658.38,494.83,659.64,496.74,659.6Zm-11.3-442.75a70.89,70.89,0,0,0-1.35-8.25,3.52,3.52,0,0,0-.91,2c-.41,2.48-.92,5-1.16,7.44a4.4,4.4,0,0,1-2.71,3.84c-1.79.81-3.69,1.39-5.81,2.17,1,.28,1.8.53,2.63.74,3.55.92,6.23,2.61,6.17,6.82a9.78,9.78,0,0,0,.24,1.77q.54,3,1.09,6l.5-.06c.47-2.92,1.1-5.83,1.37-8.76a5.43,5.43,0,0,1,3.67-4.95c1.58-.63,3.24-1.08,5.18-1.72-1.47-.41-2.67-.71-3.84-1.08C487.55,221.94,485.61,220.31,485.44,216.85Zm22.48,220.69a71.93,71.93,0,0,1,1.34,7.81c.15.9.39,1.78.6,2.67a55,55,0,0,0,1.78-8c.67-4.25,2-5.68,6.29-6.65.76-.18,1.51-.41,2.6-.71-2.17-.73-3.88-1.2-5.51-1.88a4.65,4.65,0,0,1-3.17-3.54c-.47-2.94-.89-5.89-1.34-8.83a12.45,12.45,0,0,0-.36-1.33,50,50,0,0,0-1.91,9.21,5.25,5.25,0,0,1-3.86,4.74c-1.5.57-3.06,1-4.75,1.54a38.15,38.15,0,0,1,5.65,2.08A5.75,5.75,0,0,1,507.92,437.54Zm-254-88.23c.35,2.48.76,4.95,1.15,7.42l.54.1c.5-3,1.15-5.95,1.43-9,.26-2.71,1.79-4.16,4.1-5,1.46-.55,3-.95,4.9-1.55-1-.25-1.59-.4-2.16-.52-4-.83-6.95-2.6-7.08-7.35a61.42,61.42,0,0,0-1.25-7.85,8.54,8.54,0,0,0-.51,1c-.46,2.67-1.12,5.32-1.32,8-.24,3.29-2.29,4.71-5,5.62-1.18.39-2.41.66-4.17,1.13l2.87.75C252.07,343.29,253.26,344.63,253.92,349.31ZM503.4,296a29,29,0,0,0-.72-4.28,5.61,5.61,0,0,0-1,3.07c.08,3.61-1.75,5.48-5.15,6.07-.07,0-.1.18-.19.36a4.91,4.91,0,0,0,.91.36c3,.46,4.26,2.24,4.37,5.16a25,25,0,0,0,.64,3.69c1.48-3.69.2-8.86,6.29-9.44a10.46,10.46,0,0,0-1.24-.47C504.89,299.94,503.47,298.65,503.4,296ZM285.45,539.55a27.73,27.73,0,0,0,.76,4.09c.68-2.13.52-4.46,1.45-6.21.86-1.6,2.89-2.59,4.34-3.8l-.86-.25c-2.21-.62-3.79-1.66-3.81-4.34a25.68,25.68,0,0,0-.83-4.61,12,12,0,0,0-1.07,4.21c-.18,2.56-1.37,4.17-3.92,4.73a12.38,12.38,0,0,0-1.22.39c0,.19,0,.29.07.3a2.14,2.14,0,0,0,.69.35C284,534.89,285.32,536.62,285.45,539.55ZM182.82,439.14c1.23.05,2.14-.57,2.12-2.3a2.14,2.14,0,0,0-2.08-2.31c-1.45-.09-2.08.87-2.11,2.26A2,2,0,0,0,182.82,439.14Zm405.23-4.61c-1.52.07-2.08,1.16-2.12,2.57s.89,2.22,2.07,2c.91-.18,1.67-1.17,2.49-1.79C590.11,435.44,589.51,434.46,588.05,434.53ZM184.11,425.2c-.5-.45-2.07-.58-2.39-.2a3.49,3.49,0,0,0-.67,2.75c.4,1.56,1.79,1.44,3.21,1.07A2.47,2.47,0,0,0,184.11,425.2ZM587.76,313.12c.67.46,1.9.08,2.77.08.64-3.53-.19-4.39-3.22-3.79C586.38,310.84,586.5,312.26,587.76,313.12Zm-402.83-.18a2.44,2.44,0,0,0,.09-3.61c-1.43-.35-2.82-.43-3.2,1.13a3.48,3.48,0,0,0,.74,2.73C182.88,313.56,184.45,313.4,184.93,312.94Zm405,112.58c-1-1.1-2.16-1.42-3.15-.36a2.45,2.45,0,0,0-.08,3.65C589.55,429.31,590.27,428.58,589.89,425.52ZM184.81,446.43a2.75,2.75,0,0,0-2.08-1.52,2.79,2.79,0,0,0-1.91,1.73c-.4,1.47.6,2.28,2,2.54C184.39,448.88,185.32,447.94,184.81,446.43Zm403.31-1.52a2.76,2.76,0,0,0-2.06,1.54c-.49,1.4.37,2.35,2,2.75,1.46-.31,2.46-1.12,2-2.58A2.75,2.75,0,0,0,588.12,444.91Zm-256,257.73a1.89,1.89,0,0,0-2,2.15c0,1.25.62,2.14,2.77,2.09.29-.38,1.2-1.07,1.31-1.87A2,2,0,0,0,332.09,702.64ZM439.56,45.47a1.89,1.89,0,0,0,2.06-2.14c0-1.23-.6-2.15-2.76-2.11-.29.38-1.2,1.06-1.32,1.86A2,2,0,0,0,439.56,45.47Zm-.78,657.17a2,2,0,0,0-2,2.38c.11.79,1,1.48,1.3,1.87,2.14,0,2.75-.86,2.77-2.11A1.9,1.9,0,0,0,438.78,702.64Zm-106-657.25c.92-.17,1.7-1.15,2.54-1.77l-.05-1A8.14,8.14,0,0,0,333,41.27c-1.39-.28-2.07.72-2.12,2S331.49,45.64,332.81,45.39Zm-110.14.31h1c.54-.82,1.54-1.67,1.5-2.46a2.92,2.92,0,0,0-2-1.9,1.69,1.69,0,0,0-2,2C221.27,44.22,222.13,44.94,222.67,45.7Zm79.71,656.71-.9,0c-.56.75-1.46,1.43-1.62,2.26-.24,1.27.61,2.13,2,2.19a1.8,1.8,0,0,0,2.07-2.08C303.79,703.92,302.91,703.19,302.38,702.41Zm9.95,0-.89,0c-.57.74-1.47,1.42-1.64,2.24-.26,1.27.6,2.14,1.95,2.21a1.8,1.8,0,0,0,2.08-2.07C313.73,703.93,312.86,703.19,312.33,702.41Zm-60-656.73.94,0c.59-.8,1.64-1.59,1.63-2.38a2.93,2.93,0,0,0-1.86-2A1.69,1.69,0,0,0,251,43.29C251.05,44.13,251.87,44.89,252.37,45.68Zm10.15,0,1,0c.51-.83,1.46-1.7,1.39-2.48a2.87,2.87,0,0,0-1.95-1.86,1.68,1.68,0,0,0-2,2C261.05,44.2,262,44.93,262.52,45.72Zm9.75,0,1,0c.57-.79,1.6-1.58,1.59-2.37s-1-1.77-1.81-2a1.69,1.69,0,0,0-2.17,1.84C270.91,44.06,271.77,44.86,272.27,45.69Zm10,0h.95c.55-.82,1.55-1.67,1.5-2.46s-1.16-1.73-1.95-1.9a1.68,1.68,0,0,0-2,2C280.91,44.22,281.77,44.94,282.3,45.7Zm166.91,657c-1.36,0-2.26.78-2.11,2,.1.83,1,1.58,1.48,2.36l.93,0c.57-.8,1.46-1.55,1.62-2.43C451.35,703.59,450.48,702.77,449.21,702.74Zm-147-657h.9c.55-.76,1.46-1.47,1.58-2.29a1.81,1.81,0,0,0-2-2.14c-1.36,0-2.23.88-2,2.15C300.79,44.25,301.67,45,302.21,45.71ZM459.47,702.39l-1,0c-.52.83-1.48,1.69-1.42,2.47s1.15,1.7,1.94,1.88a1.67,1.67,0,0,0,2-2C460.94,703.92,460,703.18,459.47,702.39Zm29.9,0h-.95c-.55.82-1.55,1.66-1.5,2.45a2.88,2.88,0,0,0,1.95,1.9,1.68,1.68,0,0,0,2-2C490.77,703.88,489.9,703.17,489.37,702.4Zm-40-656.72.93,0c.58-.79,1.61-1.6,1.59-2.38a2.92,2.92,0,0,0-1.86-2,1.68,1.68,0,0,0-2.11,1.95C448,44.13,448.84,44.89,449.35,45.68Zm11,0c.53-.78,1.38-1.51,1.49-2.34a1.69,1.69,0,0,0-2.05-2c-.79.18-1.89,1.23-1.92,1.93s1,1.62,1.53,2.43ZM499.2,702.38l-.89,0c-.53.78-1.41,1.51-1.51,2.35a1.8,1.8,0,0,0,2.07,2.07c1.35-.06,2.21-.93,2-2.2C500.67,703.81,499.77,703.13,499.2,702.38Zm-19-656.67c.54-.76,1.42-1.46,1.56-2.29a1.69,1.69,0,0,0-2-2.07,2.91,2.91,0,0,0-2,1.87c-.06.79.93,1.65,1.46,2.48Zm10,0c.54-.81,1.43-1.57,1.54-2.44a1.68,1.68,0,0,0-2.09-1.92c-.79.19-1.86,1.22-1.89,1.92s1,1.62,1.49,2.43Zm9.85,0c.57-.79,1.48-1.52,1.62-2.38a1.67,1.67,0,0,0-2-2,2.87,2.87,0,0,0-2,1.85c-.07.78.89,1.65,1.4,2.49Zm10.06,0c.52-.77,1.38-1.49,1.51-2.32a1.69,1.69,0,0,0-2-2,2.91,2.91,0,0,0-1.94,1.92c0,.78,1,1.62,1.52,2.44Zm-3.31,659a1.67,1.67,0,0,0,1.91,2.09c.89-.13,1.67-1,2.49-1.5v-.92c-.8-.55-1.63-1.53-2.41-1.5A2.82,2.82,0,0,0,506.75,704.68Zm22.49-2.26-1,0c-.59.78-1.63,1.57-1.63,2.35a2.89,2.89,0,0,0,1.8,2,1.68,1.68,0,0,0,2.18-1.81C530.58,704.07,529.74,703.26,529.24,702.42ZM539.87,45.7c.53-.77,1.39-1.49,1.51-2.32a1.69,1.69,0,0,0-2-2,2.89,2.89,0,0,0-1.94,1.92c0,.78,1,1.62,1.51,2.44Zm-.79,656.7h-1c-.55.8-1.55,1.62-1.52,2.41s1.08,1.74,1.86,2a1.67,1.67,0,0,0,2.11-1.9C540.48,704,539.61,703.22,539.08,702.4ZM183.6,84.52a1.69,1.69,0,0,0,2-2c-.14-.87-1-1.62-1.58-2.43l-.93,0c-.51.83-1.46,1.69-1.4,2.48A2.86,2.86,0,0,0,183.6,84.52Zm403.25-2.15a1.69,1.69,0,0,0,1.86,2.16c.86-.08,1.66-1,2.48-1.47l0-1c-.79-.56-1.6-1.58-2.38-1.55A2.9,2.9,0,0,0,586.85,82.37Zm-401.23,10a2.9,2.9,0,0,0-1.88-1.94c-.78-.07-1.65.89-2.47,1.41l0,1c.8.57,1.54,1.49,2.4,1.62A1.69,1.69,0,0,0,185.62,92.42Zm403.13,2c.86-.1,1.64-1,2.45-1.52V92c-.8-.55-1.63-1.55-2.4-1.52a2.91,2.91,0,0,0-2,1.88A1.68,1.68,0,0,0,588.75,94.47Zm-403.13,7.92a2.9,2.9,0,0,0-1.86-2c-.78-.07-1.65.88-2.49,1.39l0,1c.79.58,1.52,1.51,2.37,1.65A1.69,1.69,0,0,0,185.62,102.39Zm-1.88,8c-.78-.07-1.65.9-2.47,1.42l0,1c.79.57,1.53,1.49,2.39,1.62a1.69,1.69,0,0,0,2-2A2.92,2.92,0,0,0,183.74,110.35Zm405,0a2.91,2.91,0,0,0-1.88,2,1.69,1.69,0,0,0,2,2c.86-.14,1.6-1.06,2.39-1.63l0-1C590.36,111.24,589.49,110.28,588.72,110.35Zm-2.67,346.56a2.91,2.91,0,0,0,1.89,1.94c.77.07,1.64-.9,2.46-1.42l0-1c-.79-.57-1.54-1.49-2.4-1.61A1.68,1.68,0,0,0,586.05,456.91Zm-405.6,10.33c.79.56,1.6,1.57,2.38,1.55a2.9,2.9,0,0,0,2-1.83A1.69,1.69,0,0,0,183,464.8c-.86.07-1.66.95-2.48,1.47Zm407.48-2.44a1.69,1.69,0,0,0-1.88,2.15,2.9,2.9,0,0,0,2,1.84c.78,0,1.59-1,2.39-1.53l0-1C589.58,465.76,588.79,464.88,587.93,464.8Zm-405,13.93a2.91,2.91,0,0,0,1.89-1.94,1.69,1.69,0,0,0-2-2.05c-.86.12-1.6,1-2.4,1.61l0,1C181.3,477.83,182.16,478.8,182.94,478.73Zm403.11-2a2.9,2.9,0,0,0,1.86,2c.78.08,1.65-.88,2.48-1.38l0-1c-.79-.57-1.52-1.51-2.38-1.64A1.68,1.68,0,0,0,586.05,476.76ZM182.9,488.67a2.87,2.87,0,0,0,1.92-1.91,1.68,1.68,0,0,0-1.94-2.08c-.86.11-1.62,1-2.42,1.57v1C181.28,487.74,182.13,488.73,182.9,488.67Zm404-187.74a1.7,1.7,0,0,0,1.76,2.25c.87,0,1.71-.87,2.56-1.35l.06-1c-.76-.6-1.52-1.66-2.29-1.68A2.92,2.92,0,0,0,586.85,300.93Zm-402,195.8a1.68,1.68,0,0,0-1.91-2.11c-.87.1-1.64,1-2.45,1.53v1c.81.54,1.64,1.53,2.42,1.49A2.89,2.89,0,0,0,184.82,496.73Zm-1.26-193.56a1.69,1.69,0,0,0,2.07-2c-.13-.87-1-1.64-1.54-2.46h-.92c-.53.81-1.5,1.66-1.46,2.45A2.85,2.85,0,0,0,183.56,303.17ZM588,508.54c.78,0,1.62-.93,2.43-1.46,0-.32,0-.65,0-1-.81-.55-1.57-1.45-2.44-1.56a1.69,1.69,0,0,0-1.93,2.1A2.89,2.89,0,0,0,588,508.54Zm-405.18,10a1.67,1.67,0,0,0,2-2c-.16-.89-1-1.64-1.59-2.46h-.92c-.51.84-1.46,1.7-1.41,2.5A2.86,2.86,0,0,0,182.8,518.53ZM588.68,293.24c.87-.06,1.67-.92,2.51-1.43l0-1c-.78-.57-1.58-1.6-2.35-1.58a2.89,2.89,0,0,0-2,1.8A1.69,1.69,0,0,0,588.68,293.24ZM184.82,526.54a1.68,1.68,0,0,0-1.92-2.11c-.86.1-1.63,1-2.44,1.54v1c.81.54,1.65,1.53,2.42,1.49A2.88,2.88,0,0,0,184.82,526.54Zm405.57-.67c-.83-.51-1.64-1.37-2.5-1.44a1.7,1.7,0,0,0-1.84,2.19,2.91,2.91,0,0,0,2,1.81c.78,0,1.57-1,2.36-1.59Zm-2.48,8.5a1.69,1.69,0,0,0-1.86,2.16,2.91,2.91,0,0,0,2,1.83c.78,0,1.58-1,2.37-1.55,0-.33,0-.65,0-1C589.57,535.32,588.78,534.44,587.91,534.37Zm-403.07,12c-.17-.88-1.05-1.63-1.62-2.43l-.91,0c-.51.84-1.45,1.71-1.39,2.5a2.82,2.82,0,0,0,1.91,1.91A1.66,1.66,0,0,0,184.84,546.34Zm403.16,2c.77.05,1.61-.94,2.41-1.48v-1c-.81-.54-1.58-1.44-2.44-1.54a1.69,1.69,0,0,0-1.92,2.11A2.9,2.9,0,0,0,588,548.3Zm-407.52,8.55c.83.51,1.71,1.47,2.48,1.39a2.92,2.92,0,0,0,1.87-2,1.69,1.69,0,0,0-2-2c-.85.13-1.58,1.06-2.37,1.64Zm405.57-.48a2.9,2.9,0,0,0,2,1.87c.78,0,1.61-1,2.42-1.5,0-.32,0-.64,0-1-.81-.53-1.59-1.43-2.45-1.52A1.69,1.69,0,0,0,586.05,556.37Zm-401.21,10c-.12-.89-1-1.69-1.46-2.53l-.92,0c-.56.8-1.55,1.61-1.54,2.4a2.85,2.85,0,0,0,1.78,2A1.67,1.67,0,0,0,184.84,566.35Zm-2.16,11.8a1.67,1.67,0,0,0,2.16-1.85c-.11-.89-.94-1.7-1.44-2.54l-.92,0c-.57.8-1.57,1.6-1.56,2.4A2.83,2.83,0,0,0,182.68,578.15ZM588,588.05c.78.05,1.61-.94,2.42-1.48v-1c-.81-.55-1.58-1.44-2.44-1.55a1.69,1.69,0,0,0-1.92,2.11A2.91,2.91,0,0,0,588,588.05ZM182.9,594c-.86.11-1.63,1-2.44,1.54v1c.81.54,1.65,1.53,2.42,1.49a2.91,2.91,0,0,0,2-1.89A1.7,1.7,0,0,0,182.9,594Zm0,9.94c-.86.08-1.65,1-2.47,1.48l0,1c.8.56,1.61,1.58,2.38,1.55a2.87,2.87,0,0,0,2-1.84A1.69,1.69,0,0,0,183,603.94Zm405.09,4c.78,0,1.59-1,2.38-1.55,0-.32,0-.65,0-1-.82-.52-1.61-1.4-2.48-1.48a1.7,1.7,0,0,0-1.87,2.16A2.93,2.93,0,0,0,588,607.94Zm-2,8a2.89,2.89,0,0,0,1.93,1.89c.78,0,1.62-.93,2.43-1.47v-1c-.8-.55-1.57-1.45-2.43-1.56A1.69,1.69,0,0,0,586.05,616Zm5.15-345.19c-.83-.52-1.69-1.48-2.47-1.42a2.93,2.93,0,0,0-1.89,1.95,1.69,1.69,0,0,0,2,2.05c.86-.13,1.6-1.05,2.4-1.62C591.21,271.43,591.2,271.11,591.2,270.79Zm-405.58.45a2.92,2.92,0,0,0-2-1.87c-.78,0-1.6,1-2.41,1.51v1c.82.53,1.59,1.42,2.46,1.52A1.69,1.69,0,0,0,185.62,271.24ZM181.27,262c.83.52,1.62,1.39,2.49,1.47a1.7,1.7,0,0,0,1.86-2.16,2.93,2.93,0,0,0-2-1.84c-.78,0-1.58,1-2.38,1.57Zm407.55-12.47a2.92,2.92,0,0,0-2,1.86,1.68,1.68,0,0,0,1.88,2.14c.87-.09,1.65-1,2.47-1.5l0-1C590.42,250.47,589.6,249.47,588.82,249.49Zm-405.15,0c-.77-.05-1.61.95-2.42,1.49v1c.81.54,1.58,1.44,2.44,1.54a1.69,1.69,0,0,0,1.92-2.11A2.88,2.88,0,0,0,183.67,249.5Zm405.07-9.94a2.93,2.93,0,0,0-1.9,1.94,1.69,1.69,0,0,0,2,2.05c.86-.13,1.6-1,2.4-1.61,0-.32,0-.64,0-1C590.37,240.46,589.51,239.5,588.74,239.56ZM181.25,242c.8.56,1.56,1.46,2.42,1.58a1.69,1.69,0,0,0,2-2.08,2.91,2.91,0,0,0-1.92-1.91c-.77-.06-1.62.92-2.44,1.45Zm2,381.45-.91,0c-.52.83-1.47,1.69-1.42,2.48a2.86,2.86,0,0,0,1.88,1.93,1.66,1.66,0,0,0,2-2C184.68,625,183.81,624.24,183.25,623.42Zm404.78.4a1.68,1.68,0,0,0-2,2,2.88,2.88,0,0,0,1.88,1.94c.78.07,1.64-.89,2.47-1.41l0-1C589.63,624.87,588.89,624,588,623.82Zm.78-400.15c.86-.12,1.61-1,2.41-1.59l0-1c-.82-.52-1.68-1.49-2.45-1.43a2.94,2.94,0,0,0-1.91,1.93A1.68,1.68,0,0,0,588.81,223.67Zm-405.32,0a1.69,1.69,0,0,0,2.14-1.89c-.1-.88-.94-1.67-1.45-2.51l-.93,0c-.55.8-1.55,1.61-1.54,2.4A2.87,2.87,0,0,0,183.49,223.66Zm405.19-9.93c.87-.06,1.67-.92,2.51-1.43l0-1c-.78-.57-1.58-1.6-2.35-1.58a2.89,2.89,0,0,0-2,1.8A1.69,1.69,0,0,0,588.68,213.73ZM182.33,633.37c-.51.83-1.46,1.69-1.41,2.49a2.86,2.86,0,0,0,1.88,1.93,1.67,1.67,0,0,0,2-2c-.16-.88-1-1.64-1.59-2.45Zm408.07,1.87c-.82-.52-1.61-1.4-2.48-1.48a1.69,1.69,0,0,0-1.87,2.15,2.91,2.91,0,0,0,2,1.84c.78,0,1.59-1,2.38-1.55ZM182.8,647.73a1.67,1.67,0,0,0,2-2c-.16-.88-1-1.64-1.59-2.45h-.92c-.51.84-1.47,1.7-1.41,2.49A2.82,2.82,0,0,0,182.8,647.73Zm404.05-456a1.69,1.69,0,0,0,1.89,2.13c.87-.1,1.65-1,2.46-1.52,0-.32,0-.64,0-1-.8-.55-1.63-1.55-2.4-1.52A2.9,2.9,0,0,0,586.85,191.73Zm-402,464.06a1.69,1.69,0,0,0-1.87-2.15c-.87.08-1.65,1-2.48,1.48l0,1c.8.56,1.61,1.57,2.39,1.54A2.88,2.88,0,0,0,184.82,655.79Zm-.64-466.35-.92,0c-.56.8-1.56,1.61-1.55,2.4a2.85,2.85,0,0,0,1.78,2,1.68,1.68,0,0,0,2.14-1.88C185.53,191.08,184.69,190.28,184.18,189.44ZM587.89,663.58a1.7,1.7,0,0,0-1.84,2.19,2.9,2.9,0,0,0,2,1.79c.78,0,1.57-1,2.36-1.58,0-.32,0-.65,0-1C589.56,664.5,588.75,663.64,587.89,663.58ZM185.62,181.91a2.92,2.92,0,0,0-1.85-2c-.77-.08-1.66.87-2.49,1.37l0,1c.78.59,1.5,1.52,2.36,1.67A1.69,1.69,0,0,0,185.62,181.91ZM588.81,174c.86-.12,1.61-1,2.41-1.6,0-.32,0-.64,0-1-.82-.52-1.68-1.49-2.45-1.44a2.94,2.94,0,0,0-1.91,1.94A1.69,1.69,0,0,0,588.81,174Zm-405.58-4.44c-.55.81-1.54,1.63-1.52,2.42a2.84,2.84,0,0,0,1.81,2,1.69,1.69,0,0,0,2.11-1.91c-.11-.88-1-1.67-1.48-2.5ZM588.85,164c.86-.14,1.58-1.07,2.37-1.64l0-1c-.83-.5-1.71-1.45-2.48-1.38a2.88,2.88,0,0,0-1.86,2A1.68,1.68,0,0,0,588.85,164Zm-403.23-2.13a2.89,2.89,0,0,0-2-1.86c-.78,0-1.6,1-2.4,1.51v1c.82.53,1.6,1.42,2.47,1.51A1.69,1.69,0,0,0,185.62,161.91ZM588.7,140.17a2.94,2.94,0,0,0-1.86,2,1.68,1.68,0,0,0,2,2c.86-.14,1.59-1.07,2.37-1.65l0-1C590.36,141,589.48,140.09,588.7,140.17ZM181.27,142.7c.83.51,1.62,1.39,2.49,1.46a1.69,1.69,0,0,0,1.86-2.16,2.91,2.91,0,0,0-2-1.83c-.78,0-1.58,1-2.38,1.56Zm407.48-12.47a2.92,2.92,0,0,0-1.91,1.93,1.69,1.69,0,0,0,2,2.06c.86-.12,1.61-1,2.4-1.59v-1C590.38,131.14,589.52,130.17,588.75,130.23ZM222.87,702.41l-.89,0c-.57.75-1.47,1.43-1.63,2.25-.25,1.27.61,2.14,2,2.2a1.79,1.79,0,0,0,2.07-2.07C224.28,703.92,223.4,703.19,222.87,702.41Zm8.91,0c-.52.78-1.38,1.51-1.49,2.34a1.68,1.68,0,0,0,2.05,2,2.85,2.85,0,0,0,1.92-1.93c0-.78-1-1.62-1.53-2.43Zm30.51.42a1.65,1.65,0,0,0-2.18,1.8c.07.87.92,1.68,1.42,2.52l1,.06c.58-.79,1.6-1.58,1.59-2.36A2.89,2.89,0,0,0,262.29,702.82Zm9.25-.41c-.53.81-1.4,1.59-1.49,2.46a1.67,1.67,0,0,0,2.12,1.88,2.89,2.89,0,0,0,1.86-2c0-.78-1-1.6-1.54-2.4Zm19.92,0c-.54.8-1.42,1.57-1.53,2.43a1.67,1.67,0,0,0,2.08,1.93,2.91,2.91,0,0,0,1.89-1.93c0-.78-.95-1.62-1.49-2.43ZM233.63,45.69c.52-.78,1.39-1.53,1.49-2.36a1.68,1.68,0,0,0-2.08-2,2.94,2.94,0,0,0-1.9,2c0,.77,1,1.6,1.56,2.4Zm8.85,0,1,0c.57-.79,1.58-1.59,1.57-2.38a2.92,2.92,0,0,0-1.84-2A1.68,1.68,0,0,0,241,43.21C241.11,44.08,242,44.87,242.48,45.69Zm49.78,0h.94c.54-.83,1.54-1.68,1.49-2.47s-1.17-1.73-2-1.89a1.69,1.69,0,0,0-2,2C290.85,44.23,291.72,44.94,292.26,45.71Zm19.78,0,.95,0c.57-.8,1.6-1.62,1.58-2.41s-1.11-1.77-1.89-2a1.69,1.69,0,0,0-2.09,2C310.69,44.16,311.53,44.91,312,45.69Zm9.94,0,.95,0c.57-.8,1.6-1.62,1.58-2.41s-1.11-1.77-1.89-2a1.7,1.7,0,0,0-2.09,2C320.63,44.16,321.47,44.91,322,45.69Zm147.2,0,.93.06c.59-.78,1.64-1.56,1.64-2.34a2.92,2.92,0,0,0-1.83-2,1.68,1.68,0,0,0-2.14,1.91C467.84,44.09,468.68,44.86,469.18,45.67Zm49.91,0,1,0c.51-.82,1.47-1.69,1.4-2.46a2.92,2.92,0,0,0-2-1.88,1.66,1.66,0,0,0-2,2C517.6,44.18,518.52,44.92,519.09,45.71Zm9.76,0,.94,0c.57-.8,1.61-1.6,1.6-2.38a3,3,0,0,0-1.87-2,1.68,1.68,0,0,0-2.11,1.94C527.5,44.13,528.34,44.88,528.85,45.68Zm19.82,0,.93.07c.6-.77,1.66-1.55,1.66-2.33a2.93,2.93,0,0,0-1.81-2,1.69,1.69,0,0,0-2.16,1.89C547.35,44.08,548.18,44.86,548.67,45.66Zm-363.83,461c-.14-.89-1-1.67-1.53-2.49l-.92,0c-.53.82-1.51,1.66-1.48,2.46a2.85,2.85,0,0,0,1.84,2A1.66,1.66,0,0,0,184.84,506.66ZM588.69,179.93a2.87,2.87,0,0,0-1.84,2,1.68,1.68,0,0,0,2,2c.85-.14,1.57-1.09,2.36-1.67,0-.32,0-.64,0-1C590.35,180.79,589.46,179.84,588.69,179.93ZM182.9,584.06c-.86.11-1.63,1-2.44,1.55v1c.81.53,1.65,1.52,2.42,1.48a2.9,2.9,0,0,0,1.94-1.89A1.69,1.69,0,0,0,182.9,584.06ZM588.7,229.62a2.92,2.92,0,0,0-1.86,2,1.68,1.68,0,0,0,2,2c.86-.14,1.58-1.07,2.37-1.66l0-1C590.36,230.49,589.48,229.54,588.7,229.62ZM183.62,293.25a1.69,1.69,0,0,0,2-2,2.9,2.9,0,0,0-1.87-2c-.77-.08-1.65.88-2.48,1.38l0,1C182,292.18,182.76,293.11,183.62,293.25ZM586.85,281.2a1.68,1.68,0,0,0,1.91,2.11c.87-.1,1.64-1,2.45-1.54v-1c-.81-.54-1.64-1.53-2.42-1.49A2.88,2.88,0,0,0,586.85,281.2Zm-404,177.69a1.66,1.66,0,0,0,2-2c-.19-.88-1.09-1.61-1.67-2.4l-.91,0c-.49.85-1.41,1.74-1.34,2.54A2.83,2.83,0,0,0,182.87,458.89Zm.09,159a2.92,2.92,0,0,0,1.87-2,1.69,1.69,0,0,0-2-2c-.86.13-1.59,1.07-2.38,1.64l0,1C181.31,617,182.18,618,183,617.87Zm1.19-388.68-.92,0c-.55.8-1.54,1.62-1.52,2.41a2.85,2.85,0,0,0,1.8,2,1.69,1.69,0,0,0,2.12-1.91C185.52,230.81,184.67,230,184.15,229.19Zm-.43,50.12c-.78-.06-1.63.92-2.46,1.44v1c.8.56,1.55,1.48,2.41,1.6a1.69,1.69,0,0,0,2-2.07A2.91,2.91,0,0,0,183.72,279.31ZM183,534.37c-.86.07-1.66,1-2.49,1.46l0,1c.79.57,1.59,1.58,2.37,1.56a2.87,2.87,0,0,0,2-1.82A1.69,1.69,0,0,0,183,534.37ZM586.85,151.93a1.69,1.69,0,0,0,1.85,2.17c.87-.07,1.67-.94,2.49-1.46l0-1c-.79-.56-1.59-1.58-2.37-1.56A2.9,2.9,0,0,0,586.85,151.93Zm-403.1,2.17a1.69,1.69,0,0,0,1.87-2.15,2.91,2.91,0,0,0-2-1.84c-.77,0-1.59,1-2.38,1.54l0,1C182.09,153.14,182.88,154,183.75,154.1ZM590.4,565.66c-.82-.52-1.61-1.39-2.48-1.47a1.69,1.69,0,0,0-1.87,2.16,2.9,2.9,0,0,0,2,1.83c.78,0,1.59-1,2.38-1.55Zm-4.35-68.87a3,3,0,0,0,2,1.82c.77,0,1.57-1,2.37-1.57l0-1c-.83-.51-1.63-1.38-2.49-1.45A1.7,1.7,0,0,0,586.05,496.79ZM588,653.64a1.69,1.69,0,0,0-1.91,2.12,2.91,2.91,0,0,0,2,1.87c.78,0,1.61-1,2.42-1.5,0-.32,0-.65,0-1C589.6,654.63,588.82,653.73,588,653.64Zm-39,48.75-.94,0c-.53.83-1.51,1.71-1.44,2.5a2.9,2.9,0,0,0,2,1.84,1.69,1.69,0,0,0,2-2.09C550.37,703.83,549.49,703.14,548.93,702.39Zm39.8-598c.87-.09,1.65-1,2.47-1.5l0-1c-.8-.56-1.62-1.56-2.4-1.53a2.86,2.86,0,0,0-2,1.85A1.69,1.69,0,0,0,588.73,104.41ZM183.66,130.23c-.77,0-1.6,1-2.41,1.5v1c.82.54,1.59,1.43,2.45,1.53a1.7,1.7,0,0,0,1.91-2.13A2.92,2.92,0,0,0,183.66,130.23Zm405.16-9.94a2.9,2.9,0,0,0-2,1.86,1.69,1.69,0,0,0,1.89,2.13c.86-.08,1.64-1,2.46-1.5,0-.32,0-.65,0-1C590.41,121.26,589.59,120.26,588.82,120.29Zm-405.12,0c-.77-.05-1.62.93-2.44,1.45v1c.8.55,1.56,1.46,2.42,1.58a1.69,1.69,0,0,0,2-2.09A2.93,2.93,0,0,0,183.7,120.29Zm-.53,89c-.53.81-1.5,1.66-1.46,2.44a2.88,2.88,0,0,0,1.85,2,1.69,1.69,0,0,0,2.07-2c-.13-.88-1-1.65-1.53-2.46Zm405.65,54.12c.86-.13,1.6-1.05,2.4-1.62l0-1c-.83-.51-1.69-1.48-2.47-1.41a2.91,2.91,0,0,0-1.89,1.94A1.69,1.69,0,0,0,588.82,263.43Zm-346.08,439-.89,0c-.56.75-1.46,1.43-1.62,2.25-.25,1.27.61,2.14,2,2.2a1.81,1.81,0,0,0,2.08-2.08C244.16,703.92,243.28,703.19,242.74,702.41Zm9,0c-.56.79-1.46,1.53-1.6,2.39a1.67,1.67,0,0,0,2,2,2.92,2.92,0,0,0,2-1.87c.06-.79-.91-1.65-1.43-2.47ZM588,598c.77.06,1.62-.92,2.44-1.44,0-.32,0-.65,0-1-.8-.55-1.56-1.47-2.42-1.58a1.69,1.69,0,0,0-2,2.08A2.91,2.91,0,0,0,588,598Zm.08-109.32c.78,0,1.58-1,2.38-1.56l0-1c-.83-.52-1.62-1.39-2.49-1.46a1.69,1.69,0,0,0-1.86,2.16A2.89,2.89,0,0,0,588.05,488.67ZM281.56,702.39c-.55.8-1.45,1.55-1.57,2.41a1.67,1.67,0,0,0,2.05,2,2.9,2.9,0,0,0,1.92-1.89c.05-.78-.92-1.64-1.44-2.46ZM586.85,201.68a1.69,1.69,0,0,0,1.9,2.12c.87-.1,1.64-1,2.45-1.53v-1c-.8-.55-1.63-1.55-2.41-1.51A2.9,2.9,0,0,0,586.85,201.68Zm-401.22.13c-.14-.88-1-1.64-1.56-2.45h-.92c-.52.82-1.49,1.68-1.43,2.46a2.85,2.85,0,0,0,1.86,2A1.69,1.69,0,0,0,185.63,201.81Zm-.81,463.88a1.69,1.69,0,0,0-1.91-2.12c-.86.1-1.63,1-2.45,1.54v1c.81.54,1.64,1.53,2.42,1.49A2.91,2.91,0,0,0,184.82,665.69Zm137.57,36.76-.93-.08c-.6.78-1.66,1.55-1.67,2.33a2.92,2.92,0,0,0,1.82,2,1.68,1.68,0,0,0,2.16-1.89C323.7,704,322.88,703.25,322.39,702.45Zm265.53-184c.77.08,1.64-.87,2.47-1.38l0-1c-.78-.57-1.51-1.5-2.37-1.64a1.69,1.69,0,0,0-2,2A2.9,2.9,0,0,0,587.92,518.48ZM469.52,702.41l-.95,0c-.55.82-1.57,1.65-1.53,2.44s1.14,1.75,1.93,1.92a1.69,1.69,0,0,0,2-2C470.9,703.91,470.05,703.18,469.52,702.41Zm9.89,0h-1c-.54.82-1.53,1.65-1.49,2.43a2.9,2.9,0,0,0,1.9,1.93,1.68,1.68,0,0,0,2.08-1.93C480.84,704,480,703.2,479.41,702.4ZM588,643.7a1.68,1.68,0,0,0-1.93,2.09,2.88,2.88,0,0,0,1.93,1.9c.78,0,1.62-.93,2.43-1.47v-1C589.61,644.71,588.85,643.81,588,643.7Zm0-69.57a1.68,1.68,0,0,0-2,2,2.91,2.91,0,0,0,1.89,2c.77.06,1.63-.9,2.46-1.42,0-.32,0-.64,0-1C589.63,575.17,588.89,574.25,588,574.13ZM519.24,702.41l-1,0c-.56.8-1.57,1.61-1.55,2.39a2.88,2.88,0,0,0,1.84,2,1.67,1.67,0,0,0,2.13-1.87C520.62,704,519.75,703.23,519.24,702.41ZM373.14,261.18c8.24-.3,14-4.73,17.06-12.16,3.72-9-1.1-16.24-10.89-16.59-8.07,0-15.95,6.34-17.79,14.37C359.62,255.05,364.69,261.49,373.14,261.18Zm-7.57-12.37c.9-7,8.14-13.25,15.3-13.14a7.42,7.42,0,0,1,7.3,7.81c-.23,5.85-6.47,12.5-12.31,13.12-.1,0-.22-.11-.4-.21,2.54-3.18,7.19-4.61,8-9.53-3-1.48-3.88,1.4-6,2.26.73-1.71,1.36-3.14,1.95-4.58s.84-2.69-.63-3.51-2.57.14-3.22,1.2c-1.32,2.16-2.37,4.48-3.53,6.74-1.06-.95-.76-3.67-3.65-3.34-1.32,4,1.37,7.07,2.35,10.51C367.58,255.75,365.14,252.2,365.57,248.81ZM396.5,87.67c.85-1.06,1.95-2.43.55-3.68s-2.67.1-3.72,1.06-1.87,1.87-2.78,2.83L379.45,99.7c-.37-5.42.12-10.54-1.31-15.51h-3.22a35,35,0,0,0-.47,4.12q0,12.9,0,25.82a5.13,5.13,0,0,0,.49,2.48,2.52,2.52,0,0,0,1.85,1.16,2.86,2.86,0,0,0,2-1.29,6,6,0,0,0,.46-2.7c.06-2.17,0-4.34,0-5.65l4.19-4.76c.26.48.43.84.64,1.16,2.68,4.09,5.31,8.21,8.08,12.23,1.25,1.8,2.78,2.12,4.06,1.22s1.36-2.54.05-4.39-2.79-3.71-4.12-5.6c-1.94-2.74-3.83-5.52-5.75-8.3.92-1.06,1.71-2,2.47-2.86C391.45,93.79,394,90.76,396.5,87.67Z"/></svg>