<svg xmlns="http://www.w3.org/2000/svg" viewBox="0 0 750 750"><path d="M606.06,51.38c0-1.19,0-2.38,0-3.57-.12-13.28-9.63-22.7-22.92-22.7q-197.43,0-394.87-.11c-13.48,0-23.87,10-23.84,23.92q.31,163.07.11,326.11,0,163.76,0,327.51a23.65,23.65,0,0,0,.6,5.5c2.62,10.61,11.25,17,22.93,17H583.56c8.29-.19,14.8-3.61,19.27-10.67,2.65-4.18,3.24-8.85,3.24-13.7Q606.05,376,606.06,51.38Zm-4.28,650.3c0,11.53-7.48,19-19,19H187.7c-9.44,0-16.55-5.33-18.48-14a23.12,23.12,0,0,1-.38-4.93q0-163.46,0-326.92V47.57c0-8.9,5.5-15.93,14-17.82a18.46,18.46,0,0,1,3.94-.35H583.84A17.67,17.67,0,0,1,601.78,47c0,1.32,0,2.65,0,4ZM369.6,530.08c9.27-10.45,18.67-20.8,26-32.78,3.74-6.09,7.28-12.34,12.62-17.28q7-6.47,14-13c2.2-2.05,4.35-4.16,6.66-6.39.3.83.5,1.45.74,2,2.73,6.77,5.81,13.36,10.63,19,3,3.52,6.54,6.39,11.18,7.54,1,.25,2,.41,3.15.62,0,.65,0,1.18,0,1.7-.13,7.09-.22,14.17-.45,21.26,0,1.24-.73,2.45-1,3.7a10.55,10.55,0,0,0-.22,3.44,49,49,0,0,0,1.25,5c-2.46,3.21-2.6,5-.5,7.63v6.51l-5.09-2.95-2.44,2,2.8,8c-1.58,1.94-3,3.45-4.13,5.15a4,4,0,0,0-.62,2.87c.15.57,1.43,1.09,2.24,1.17,1.9.17,3.83,0,5.6,0,2.18,2.48,2,6.44,5.89,8,1.36-2.85,2.62-5.49,3.95-8.3,2.36-.3,5.22.77,7.74-1.47-.67-3.51-4.43-4.37-6.15-7,.95-3.16,4.07-5.57,3.53-9.47-3.59-1-5.67,2.24-8.69,2.56-.11-1-.27-2-.31-3-.05-1.38,0-2.78,0-4.07,2.74-3,2.75-4.51-.21-7.79.35-1.33.9-2.91,1.18-4.55a13.54,13.54,0,0,0-.06-3.42c-.06-.63-.54-1.23-.55-1.85,0-8.61,0-17.21,0-25.17l9.25-6.05c3.1-.06,4.26-1.28,4.36-5a3.9,3.9,0,0,1,.35-1.7c1.15-2.08,2.38-4.12,3.56-6.16,4.72-1.67,6-4.59,3.95-8.92.13-.38.26-.83.44-1.25s.4-.83.57-1.18c4.92-1.92,6.31-5.51,3.53-10.51.29-.95.61-2,.9-3,3.13-1.34,4.45-3.16,1.85-6.38,1.47-6.79,3.06-13.49,4.36-20.25s2.31-13.61,3.52-20.81c-5-4-10.82-3.56-17.23-1.11.71-1,1.09-1.59,1.53-2.15,4.4-5.47,8.66-11.06,13.24-16.37,3.45-4,7.39-7.56,11-11.44a13.38,13.38,0,0,0-.07-18.61c-.59-.63-1.18-1.25-1.71-1.93-2.08-2.67-4.49-3.11-7.23-1.12a18.5,18.5,0,0,0-3,2.91q-3.75,4.37-7.39,8.83c-3.15,3.84-6.44,7.59-9.33,11.61-7.36,10.28-14.4,20.79-21.83,31-12,16.56-24.22,33-36.38,49.43-2,2.7-4.17,5.26-6.23,7.84l-3.54-2c.66-4.58.93-9.24,2.09-13.66.78-3,2.79-5.67,4.23-8.44,3.27-1.58,3.75-2.86,2.49-7.58a42.11,42.11,0,0,1,3.27-5.44c2.5-3.06,3.41-6.21,1.44-10.3.6-1.13,1.41-2.45,2-3.86a5.43,5.43,0,0,0,.65-3,8.3,8.3,0,0,1,1.23-6.56,4,4,0,0,0,.44-1.87c.1-1.43,0-2.87.17-4.28.68-5.05,1.56-10.08,2.15-15.14.63-5.41,1.49-10.69,4.22-15.57a51.63,51.63,0,0,0,3.11-7.95c1.28-3.61,3-7.18,3.58-10.91a60.48,60.48,0,0,0-.67-22.51c-.44-2,.15-3.83,2-4.64a13.9,13.9,0,0,1,5.64-1.57c6.56.19,10.38-3.27,12.78-8.85,2.57-6,2.21-12,0-18l-1.47-3.93c.62-.23,1-.4,1.46-.54,6-2,9.79-5.9,10.37-12.25a39.27,39.27,0,0,0-4.66-22.41,12.22,12.22,0,0,0-5.57-5.21,40.48,40.48,0,0,1-4.32-2.42,3.51,3.51,0,0,1-1.51-4.49c.78-2.11,1.67-4.19,2.26-6.36,2.79-10.14-.07-16.22-7.27-19.38a14.14,14.14,0,0,0-2.61-9.18,40.9,40.9,0,0,0-4.6-6.21c-7.19-7.52-18.21-13.61-30.27-8.56-2.55,1.07-5.3,1.78-7.65,3.18-2.64,1.58-4.87,3.83-7.37,5.65-6.21,4.51-12.31,9.31-19.93,11.2a71.64,71.64,0,0,1-12,1.7c-12.94.94-22.31,7.81-29.93,17.69-3,3.87-6,7.75-9.06,11.55a18.28,18.28,0,0,1-3,2.39c-.18-2.45,0-4.5-.53-6.39-1.38-5.36,1-8.85,5.2-11.65a9.35,9.35,0,0,0,1.75-1.3c2.1-2.26,4.31-4.44,6.17-6.89,2.6-3.45,3.5-7.66,4.71-11.73,1-3.46,2.74-6.43,6.28-8,.57-.26.85-1.16,1.26-1.76-.65-.43-1.27-1.16-2-1.23a21.64,21.64,0,0,0-5.15,0c-6.49.9-12.46,2.92-16.11,8.87-1.94,3.15-3.49,6.54-5.2,9.78a36.36,36.36,0,0,1-1.4-5.79c-.23-2.62.17-5.28,0-7.9-.35-7.34-7.09-12.83-11.91-13.52a28.63,28.63,0,0,0-14.45,1.44c-.58.22-1,.88-1.87,1.72,5,.9,6.61,4.11,7.6,7.89.32,1.22.63,2.44,1.06,3.62,2.23,6,7.29,10.44,14.38,10,.51,0,1,0,1.62,0A47.16,47.16,0,0,1,315.82,222c-5.61-6.57-15.65-10.51-23.13-7.39-5,2.09-9.93,5.41-10.11,7.57l1.86,1.61A8.62,8.62,0,0,1,288,225.3c3.13,2.21,6.09,4.68,9.33,6.71a11.91,11.91,0,0,0,5.72,2,17.89,17.89,0,0,0,10.8-3.39c.67-.47,1.45-.79,2.53-1.38.16,3.69.3,7,.46,10.48-2.5.7-4.82,1.43-7.18,2a10.83,10.83,0,0,1-7.68-.8,13.24,13.24,0,0,0-8.55-.88c-5.86,1.13-10.73,4.37-15.78,7.23-.08,0-.08.24-.24.79,3.1,2.18,7,3.92,8.07,8.36a5.14,5.14,0,0,1-.66,1.58c-6.79,12.91-10.92,26.52-11.08,41.22-.06,5.89,0,11.8-.43,17.67-.38,5.65-1.46,11.2-5.11,15.83-3,3.78-3.08,4.29-.36,8.35,2.32,3.48,3.06,6.8.38,10.59a16.08,16.08,0,0,0-3,11.28q1,9.27,2.11,18.53c.25,2.16,1.08,4.42.68,6.45s-.65,3.6,1.23,4.71l.38,2.28c-2.18,3.53-1.91,4.76,1.54,6.81.19.8.4,1.69.6,2.51-3.81,3.86-1.84,8.13,2.41,9.29.27.91.56,1.85.84,2.8a174,174,0,0,0,11.22,29.47c1,2,2.16,4,.95,6.32-.07.13.16.41.3.74l1.56-1.37,6.27,10.18c-1.56,4.76.71,7.12,5.09,6.51l2.79,3.14c-1.43,7.22,1.72,10,8.75,7.65.89.55,1.84,1.15,2.8,1.72s1.94,1.11,2.82,1.61c1.2,4.13,3.38,4.84,7.47,2.49,9.86,2,18.37-1.08,25.92-7.38s12.75-14.11,17.14-22.66c1.48-2.86,2.78-5.81,4.26-8.94,4.46,5.05,9.1,9.62,16.14,10.12,7.21.5,12.11-3.68,16.66-8.71a3.38,3.38,0,0,1,.18.75c-.24,8.34-3.34,15.85-6.9,23.21a5.35,5.35,0,0,1-.7,1c-6,7.82-11.88,15.75-18.08,23.43-6.48,8-13.32,15.77-19.91,23.71a29.21,29.21,0,0,0-4,6.08,4.6,4.6,0,0,0,.13,3.93c3.47,4.61,6.23,6.6,11.92,2.44A11.12,11.12,0,0,0,369.6,530.08ZM295.27,184l.28-.33,3.13,1.91-.14.4-1.74.22Zm2.54,4.49h3.91l1.81,1.72-5,.86C298.31,190.23,298.1,189.5,297.81,188.5Zm1.36,4.95,5.74-1.31,1,1.08-6,2.37C299.64,194.85,299.42,194.21,299.17,193.45Zm2.19,4.3,5.8-2.67,1.57,2.36-4.94,2.64Zm5.56,3.47c0-.17,0-.34,0-.51.82-.49,1.64-1,2.59-1.55l1.26,2.45Zm-4-17.29c3.38.06,7.65,5,8.85,10.28Zm6.71,36.92-19.65-2C294.93,214.92,305.36,216,309.63,220.85Zm-16,5c3.16-2.31,6.18-4,10.11-2.1l-6.23,4.35Zm10.13,4.51-4.24-.66-.09-.58c2.37-1.64,4.69-3.36,7.13-4.86.59-.37,1.6-.06,2.82-.06Zm4.36-.46c-.11-.14-.21-.29-.32-.44l3.56-4.19,2.49,1.5Zm146.31,255.9c-1.51-.35-3.1-.39-4.34-1.06a23.41,23.41,0,0,1-5.84-4,53.18,53.18,0,0,1-12.76-21.25c-.14-.43-.2-.89-.3-1.31l24.68-31.85.6.36C455.81,446.18,455.14,465.75,454.45,485.76Zm-17.57-41.31c.15-7.77,6.28-10.92,11.47-14.76Zm25.2,97.29c-.56,1.85-1.83,3.85-1.5,5.54s2.27,3.05,3.73,4.82c-4.11-.51-5.75,2.13-7.13,6-1.59-4.63-4.48-6.6-9-5.77l-.48-1.14c1.15-.87,2.27-1.8,3.47-2.61,1.65-1.14,1.64-2.56.87-4.16-.47-1-1-2-1.49-3,2.06.85,3.94,2.21,5.86,2.26S460.2,542.43,462.08,541.74ZM490.71,406c-2,10.85-4.08,21.71-6,32.17-3.33,2.28-3.86,3.67-2.29,7.07l-.72,2.23a5.69,5.69,0,0,0-6,4c-1,2.87-.61,5.49,1.92,7.53-.2.55-.38,1-.54,1.48-4,.65-6.42,4.33-4.13,8.74l-3.73,5.9c-2.61.4-3.52,2.13-4.3,4.39-.88,2.56-3.48,3.56-6,5V424.82c1.38-.75,3.09-1.61,4.73-2.58,1.33-.8,3.21-1.45,2.93-3.36s-2.1-2.52-3.95-2.79a4.45,4.45,0,0,1,4.08-2.66c3.82-.35,7.62-.92,11.41-1.52a22,22,0,0,0,11.13-5.38,10.62,10.62,0,0,1,.94-.67Zm-21.52,1.46,4.61-4.68c0,3.09-2.42,3.77-4.22,5.07Zm20.46-5.76c-4.75,4.85-10.4,7.69-17.25,7.87A50,50,0,0,1,489.65,401.74Zm-7.16-2.84,2.57-.49c.09.15.19.3.29.45L481.64,402l-.57-.47Zm-3.8,1,.62.45L476.84,404l-.67-.52Zm10.37-41.88,2.6-3c0,1.71,0,3,0,4.23,0,1.68.43,3.21,2.19,3.88a3.82,3.82,0,0,0,4.61-1.32c.76-.9,1.78-1.8,2-2.86a8,8,0,0,0-.34-3.73c-.1-.35-1.17-.74-1.65-.6s-.8.89-1,1.45a2.71,2.71,0,0,0,0,1.18c-.66.82-1.22,1.5-1.89,2.34-1.09-3.83,0-7.66,2.44-9.41,4.39,1.37,6.56,6.48,4.36,11.22a28.11,28.11,0,0,1-4.7,6.53c-2.44,2.76-5.15,5.29-7.76,7.91-.21.21-.46.4-.73.64C487.67,370.35,488.21,364.27,489.06,358.06Zm-10.78,13.21c-.64,5.24-7.7,19.6-17.06,25.65ZM453.72,407.2c4.73-4.53,9.79-8.7,14.63-13.11a40.91,40.91,0,0,0,12.79-22.8c.65-3.27,1.41-6.45,4.2-8.63,0,5.61.21,11.16-.11,16.67-.11,1.89-1.3,3.85-2.41,5.51-8.58,12.8-20.88,21.41-33.62,29.5-.16.09-.36.12-.95-.13C450.05,411.85,451.6,409.22,453.72,407.2Zm-23,31.39c5.06-7.65,10.79-14.76,18.17-20.35,5.28-4,10.63-7.9,15.95-11.84a7.14,7.14,0,0,1,1-.37c-2,2.52-3.78,4.66-5.52,6.78-.72.87-1.5,1.68-2.22,2.55-.86,1.05-1.28,2.21-.44,3.45s1.91.89,3,.53a13.07,13.07,0,0,1,1.89-.31l.21.53c-2.82,1.34-5.59,2.83-8.48,4a43.22,43.22,0,0,0-17.87,12.8c-2.69,3.33-2.51,7.42-2.87,11.35,0,.46,0,.93,0,1.79l-9.11,10.2C426.22,452.44,426.61,444.87,430.76,438.59ZM411,462.39a3.26,3.26,0,0,1,.57-1q5.34-6.25,10.71-12.5a12.32,12.32,0,0,1,1-.83l-4.17,16.68-12.45,11.58C408.23,471.32,409.62,466.85,411,462.39Zm23.56-121.66c-.29,3.26-2,6.41-3.14,9.57a42.4,42.4,0,0,1-2.66,5.77c-5.1,9-8.2,18.78-11,28.65a18.61,18.61,0,0,1-10.95,12.6c-2.48,1-5.78.82-8.56.32A67.39,67.39,0,0,1,372.62,387c-9.46-6.29-19.34-12-30.77-14.3-7-1.43-13.3-4.8-19.19-8.82a8.76,8.76,0,0,1-2.58-2.45c-3.73-6-8.32-11.71-8.81-19.25a20.38,20.38,0,0,0-.36-2.06c.27-.62.51-1.16.92-2.07a7.17,7.17,0,0,0-4.89-1.77c-3.56-.39-6-2.22-7.94-5.25a22.76,22.76,0,0,0-5-5.29c-4.2-3.39-7.24-7.31-7.48-13-.18-4.41-.74-8.84-.59-13.24s4.21-9.13,7.9-9.6a19,19,0,0,1,5.73.12,27.92,27.92,0,0,1,13.42,6,4.6,4.6,0,0,1,1.35,2.55c.61,3.44,1,6.93,1.58,10.38a29.67,29.67,0,0,0,1.44,4.94c1.48,4.1,4.87,5.42,9,6l.55-1.53c-.56-1-1.35-1.74-1.41-2.55a62.84,62.84,0,0,1-.28-11.21c.21-1.86,1.94-3.67,3.26-5.26a20,20,0,0,1,4-3.51c7.44-5.09,10.54-12.29,10.44-21.1,0-.45,0-.91,0-1.4.25-.07.45-.2.6-.16,5.55,1.56,10-1.77,12-6.89.77-2,1.14-4.21,1.77-6.3.72-2.39,1.54-4.76,2.31-7.13a6.89,6.89,0,0,1,1.6,0,7.73,7.73,0,0,0,8.29-2.48,59.34,59.34,0,0,0,5.26-6.91c1.18-1.75,2-3.74,3.16-5.5a8.87,8.87,0,0,1,10.16-4c3.95,1,7.83,1.4,11.63-.74,2.63,1.15,5.34,2.09,7.81,3.47A97.74,97.74,0,0,1,419.15,244a39.87,39.87,0,0,1,7.57,7.78,85.29,85.29,0,0,1,6.82,10.92c2.33,4.31,2.13,9.23,2.8,13.93.14,1,.15,1.95.2,2.71-2.63-.38-5.21-.85-7.8-1.11s-4.25.88-5.67,2.94c-1.55,2.23-3.54,4.21-3.05,7.26a49.18,49.18,0,0,1,.89,5.06c.23,4.41.2,8.83.42,13.24a49,49,0,0,0,.86,7.24c.55,2.79,1.44,5.51,2.11,8.27.76,3.12.17,4.39-2.69,5.75-1.24.6-2.58,1-3.86,1.55a6,6,0,0,0-2.09,1.05,2.49,2.49,0,0,0-.72,2,2.15,2.15,0,0,0,1.83,1,54.43,54.43,0,0,0,5.41-1.44c-.06,2.31-2.35,3.09-3.56,4.81a2.85,2.85,0,0,0,3.83,0,6.08,6.08,0,0,0,2.39-3.57,10.34,10.34,0,0,1,2-5.59c1.61-2.15,1.2-4.86.72-7.31a43.69,43.69,0,0,0-2.16-7.63,19.35,19.35,0,0,1-1.17-9.15c.1-1.11,0-2.23,0-3.58,2.8,0,5.71-.4,7.46,2s.31,4.91-.23,7.38l-3.9-1.1-.22.49a3.21,3.21,0,0,0,.55.7c4.73,3.3,6.39,8.26,6.72,13.59A118,118,0,0,1,434.59,340.73ZM293.93,262.66c.86,5.59.47,11.35,2.76,17l-2.32,3.4-.53-.18c-1.25-7.31-2.5-14.62-3.83-22.36ZM290.2,256l2.78-3.66.37.18V258Zm133,33.8a4.27,4.27,0,0,1-.21-4.44c2.05-4.17,3.41-4.82,8-3.95,5.15,1,6.9,2.6,7.51,7a8.79,8.79,0,0,1-2.7,6.86A12.23,12.23,0,0,0,423.23,289.78Zm10.33,7.44a12.33,12.33,0,0,0-9.71-1.46c-.16-1.49-.31-2.77-.47-4.2C427.38,292.64,431.43,293.1,433.56,297.22Zm-52-91.26.32.43L378,209.18C378.25,206.31,380.37,206.76,381.57,206ZM373,208.88l2.91-.73c-.15,1-.27,1.83-.4,2.73L372,213.24C372.39,211.56,372.67,210.29,373,208.88Zm-5.82.74,3.22-.48c-.16,1.84-.3,3.49-.46,5.32l-3.81,1.88C366.5,213.92,366.83,211.84,367.17,209.62Zm-5.08.34,2.73-.34c-.28,2.67-.53,5.13-.79,7.68l-3.1,1.34C361.34,215.59,361.7,212.86,362.09,210Zm-6.47.82L360,210c-.3,3.22-.57,6.2-.87,9.37l-4.84,2.27C354.71,218,355.14,214.56,355.62,210.78Zm-5.8,2.61,3.71-1.92c-.23,3.76-.45,7.2-.69,11.09l-3.73,2.4C349.35,221,349.58,217.3,349.82,213.39Zm-6.49,4.44,3.88-2.7V226l-3.88,2.62Zm-2.4,2.23c.25,3.64.46,6.82.67,9.88l-3,5.86c-.21-4.58-.39-8.64-.58-12.93Zm-5.34,6.17c.38,5.13.91,9.79,1,14.46,0,2.39-1.83,4.09-3.61,6.2-.41-5.37-.79-10.27-1.18-15.35Zm-6.25,8.41c.51,4.78,1,9.23,1.55,14.32l-3.57,2.9c-.27-5-.52-9.59-.76-14.13Zm-4.53,4.77c.48,4.38.94,8.6,1.44,13.17l-3.71,3c-.55-4.75-1.06-9.17-1.59-13.79Zm-5.07,12.48c.53,1.89.94,3.33,1.34,4.77l-.29.14c-.49-.77-1-1.53-1.55-2.39C319.37,253.77,319.51,253.07,319.74,251.89Zm10.1-40.08L321.65,213c.84-1.51,1.55-2.77,2.25-4l8.55-1.6Zm3.58-6.8-7.59,1.08c2.2-2.86,5.39-2.66,8.54-4C333.92,203.45,333.66,204.25,333.42,205Zm2.9-8.69-1.5,4-4.49.78-.24-.34,5.89-4.65ZM334.86,193c-6.54,3.89-10.71,9.26-14.26,15.68C321.28,203.39,326.49,194.25,334.86,193Zm-14.43,22.64,6.8-1-7.5,7.15-.55-.11C319.59,219.69,320,217.72,320.43,215.62Zm-3.67,27.9v7.79l-.26,0c-.4-2.38-.81-4.75-1.24-7.27Zm-5.35,20.57v-2.73c.41-.23.86-.51,1.32-.74s1.19-.55,1.93-.89C315.22,261.93,314.89,262.35,311.41,264.09Zm0-19,2-.55c.15.84.3,1.53.4,2.23s.14,1.41.25,2.56C312.59,248,311,247.27,311.39,245.12Zm-2.09,4-.3.51-2.33-.7c0-.56-.07-1.08-.14-2.13Zm0,16.53-2.77,1.81V263l2.53-.74C309.19,263.5,309.26,264.5,309.34,265.64Zm-.27-10.32v2.78l-2.21.71c-.19-.19-.37-.39-.56-.59Zm5.83,11a65.72,65.72,0,0,0,5.54-3.83c4.44-3.47,8.81-7,13.19-10.53a23.63,23.63,0,0,0,8.53-13.75c1-4.58,3.74-7.2,7.48-9.64,5.87-3.83,12.29-6.45,18.53-9.5,8-3.94,15-9.37,21.79-15.14.84-.73,1.45-1.72,2.24-2.52,2.85-2.91,5.69-5.84,8.65-8.65a15.29,15.29,0,0,1,3.31-1.76c4-4.4,13.75-6.59,20.13-4.2a33.05,33.05,0,0,1,17.36,14.45,15.64,15.64,0,0,1,2.3,8.51,12.67,12.67,0,0,0,.59,2.78l.71.06c.49-.63,1-1.25,1.66-2.1,2.06,2.12,4.45,4.16,4.53,7.43a41.14,41.14,0,0,1-.8,8.42c-.41,2.19-1.43,4.26-2.06,6.42-1.16,4-.28,6.59,3,9.05a25.8,25.8,0,0,0,3.89,2.38,11.83,11.83,0,0,1,5.31,5.16,31,31,0,0,1,3.9,17.77c-.53,5.65-3.88,9.08-9.22,10.7-2.85.87-3.36,1.76-2.59,4.68s1.79,5.56,2.3,8.41c.79,4.42.37,8.73-2.33,12.55a8.09,8.09,0,0,1-7.23,3.76c-2.6-.08-5.23.1-7.35,1.85a51.91,51.91,0,0,0-3.77,3.85c-.24-.33-.63-.89-1.09-1.55,1.82-2.57,1.94-5.48,1.87-8.52a6.24,6.24,0,0,1,1.32-3.8c4.76-5.74,5.61-12.16,4.08-19.25a74.32,74.32,0,0,1-1-9.46c-.5-5.85-2.92-11-6.11-15.75-2.15-3.23-4.56-6.29-7-9.58,4.94-.91,9.48-2.26,12.3-6.66a18.56,18.56,0,0,0,1.13-2.53c-.19-.2-.39-.39-.59-.58a10.62,10.62,0,0,0-2.14,1.2,17.64,17.64,0,0,1-12.21,4.43,14,14,0,0,1-5.45-1.36c-5.59-2.5-10.46-6.53-16.72-7.6v-.64c1.09-.17,2.17-.42,3.27-.51,2.83-.23,5.67-.26,8.49-.6,5.08-.6,8.33-3.74,10-8.31a46.06,46.06,0,0,0,1.83-9.09c.13-.91-.5-1.94-.78-2.91L425,210c0,.55-.06,1.11-.13,1.66-.13,1-.22,2.1-.45,3.13-1.77,8.18-5.36,11.49-13.63,12.54-1.7.22-3.45.09-5.15.33a16.5,16.5,0,0,0-5.13,1.19,19.37,19.37,0,0,1-12.09,1.9c-5.66-.83-10.67.7-13.75,6.12-.95,1.66-1.81,3.4-2.9,5a78.84,78.84,0,0,1-5.06,6.59,4.6,4.6,0,0,1-5.06,1.34c-3.16-.87-4.58-.25-5.82,2.77-1.17,2.87-2,5.89-3,8.83a36.5,36.5,0,0,1-2,5.17c-1.65,3.11-4,4.15-7.43,3.65-.77-.11-1.56-.17-2.93-.31-.43,2.17-.75,4.15-1.23,6.1a85,85,0,0,1-2.39,9c-1.08,3-3.35,5.13-5.83,7.13a56,56,0,0,0-6.87,6.56,11.58,11.58,0,0,0-2.59,9.67c.35,2.48.83,4.94,1,7.65a9.66,9.66,0,0,1-1.77-2.51,40.8,40.8,0,0,1-2-8.05c-1-11.13-5.52-16.12-16.31-18.32-1.93-.39-3.91-.54-6-.83,1.55-2.46,3.26-4.73,4.52-7.22C304.12,273,309.49,269.66,314.9,266.28Zm-13.74-11.1,3.16-2.06v2.3l-3,3.34C301.28,257.37,301.22,256.33,301.16,255.18Zm.54,16.25v-7.27l2.79-.65c.17,1.88.32,3.44.46,4.94Zm3-25.65v2.52l-3.81-.8-.06-.7Zm-4.37,28.08c-.84,1.25-1.79,2.65-2.75,4.05l-.47-.07c-.33-4.67-.67-9.35-1-14.3l3.24.66C299.7,267.36,300,270.49,300.37,273.86Zm-5.09-14.66,3.88-2.78v3.78Zm.12-3.94c-.16-1.63-.29-2.87-.47-4.62l4.23-.51c.06,1.14.1,1.78.14,2.5Zm3.88-12c-4.12,3.42-8.86,3.16-14,2.94C289.84,243.57,294.18,241.83,299.28,243.22ZM285.11,249h5.45l.29.56-3.36,2.4C286.67,250.92,286,250.08,285.11,249Zm.48,14.93c.78-1.34,1.43-2.75,2.39-4.63,1.82,8.82,1.64,17.42,5.39,25.86l-4.07,3.11c-.35-1.25-.59-2-.77-2.73-1.2-5-2.25-10-3.62-15A8.07,8.07,0,0,1,285.59,263.92Zm-2.84,6.39.32.16c1.57,6.1,3.15,12.2,4.83,18.71l-2.85,3.5c-1.55-5.18-3.42-10-4.26-14.93C280.41,275.45,282,272.8,282.75,270.31Zm-3.54,10.39.47,0c1,3.48,1.71,7.08,3.1,10.39,1.18,2.79.72,5.15-.48,7.92-1.46-3.41-3.38-6.51-4-9.85C277.78,286.52,278.84,283.54,279.21,280.7Zm-1.53,12.57c3.34,6.58,5.61,13.42,5.07,21.51C280.18,307.47,275.14,301.32,277.68,293.27Zm-.46,13.91L284.41,321c-.54.88-1.34,2.21-2.51,4.12C280.17,318.68,275.78,313.65,277.22,307.18Zm-.38,9.31,4.27,9.39-1.8,1.67C278.25,323.77,275.81,320.76,276.84,316.49Zm-1,6.81,2.32,5.12-1.68,1.36C276,327.55,274.53,325.82,275.8,323.3Zm-1.18,3.89.84,3.33-3.4,1.46Zm2.69,85.23c2.22-4,1.48-6.8-2.89-9.11a34.24,34.24,0,0,0,.16-4.28,6.07,6.07,0,0,0-.92-3.26,5.5,5.5,0,0,1-1.23-5.64,2.24,2.24,0,0,0-.16-1.87c-2.22-2.08-2-5-2.5-7.53-1-5-1.85-10.12-2.81-15.46,3.56,3.34,7.11,6.2,10,9.61,1.54,1.78,2.33,4.43,2.86,6.82a15.25,15.25,0,0,0,7.83,10.22,30.93,30.93,0,0,0,4.39,1.69c0,.33,0,1,0,1.58.34,8.93.85,17.85,1,26.78a65.37,65.37,0,0,1-3.28,21.35A186.42,186.42,0,0,1,277.31,412.42ZM280,373.76c5.63-.3,11-1.73,14.51-7.05l.59.34c-.94,7.58-1.89,15.15-2.86,23-4.12-2.34-8.16-4.32-9.37-9.42C282.27,378.3,281,376.16,280,373.76Zm69.39,99.93c-6.9,5.91-14.76,8.67-24,6.68-1.29-2.28-3.1-3.41-5.9-2.09l-4.81-2.76c-.52-6.22-2.35-7.82-8.18-7.08l-3.12-3.4c.12-2.81-.94-4.78-3.81-5.51a1.66,1.66,0,0,1-.89-.73c-2.58-4.07-5.13-8.17-7.62-12.15,1.07-3,2.07-5.66,2.95-8.36a61.87,61.87,0,0,0,3.23-22.06c-.4-10.11-.3-20.26-.09-30.38.09-4.48,1.21-8.93,1.46-13.41.43-7.54.52-15.09.81-22.63.07-1.92.39-3.82.53-5.73a19.1,19.1,0,0,0-.09-2.39l-.94-.23a8.06,8.06,0,0,0-1.13,2.25c-.84,5.55-1.58,11.11-2.34,16.67-.09.65-.11,1.32-.16,2-2.69,2.65-5.25,5.39-9.2,6.26-6.82,1.51-11.49-.38-15.2-6.31a6,6,0,0,1-.28-5.35,13.63,13.63,0,0,1,1.54-3.22c3.13-4.67,2.56-9.23-.26-13.76l-2.28-3.69c7.7-1.79,12.47-6.8,16.15-13.24,3.32,3.49,7,6.68,9.81,10.51,3,4.08,6.43,6.56,11.52,6.58.58,0,1.17.12,1.92.2a23,23,0,0,1,.22,3c-.4,7.95,3.59,14.38,7.4,20.8a15.08,15.08,0,0,0,4.59,4.32,54.6,54.6,0,0,0,21.22,9c1.88.32,3.71.9,5.43,1.33,1.13,5.27,2.22,10.31,3.31,15.43-1.74,4.05-1.39,5.5,2.06,7.67.25.9.54,1.91.82,2.9-3.37,4.46-2,9.08,3.1,10,.31.9.65,1.88,1,2.78-2.27,4.14-1.41,6.53,2.53,8l8.79,16.92C364.69,453.8,359.27,465.2,349.34,473.69Zm22.18-38.3c-2-4-4.09-8-6.06-11.81,1.49-4.35.79-6-3.25-7.72-.31-.83-.66-1.75-1-2.59,3.21-5.29.86-8.45-3.3-9.61-.28-.88-.61-1.88-.9-2.79,2.4-3.94,1.89-5.7-2.34-7.89-1-4-2.08-8.13-3.14-12.27l.52-.56,28.84,16.79A180.31,180.31,0,0,1,371.52,435.39Zm32.14,6.44a50.06,50.06,0,0,1-6,6.82c-4.27,3.79-9.09,4-13.9,1a30.44,30.44,0,0,1-9.29-9.76c4.8-13.45,7.56-27.37,9.47-41.29L400.54,402c-4.16,4.29-7.86,9.31-13.17,12.72-1,.62-2.34,1.15-2,3.06,6.13-.88,9.89-5.45,14.59-9.29-.75,10.75,3,20.35,4.34,30.31A4.48,4.48,0,0,1,403.66,441.83Zm-.12-36.5c8.47-5,16.72-10.26,18.39-21.32l.54.34q-1.64,8.19-3.26,16.38c-2.69,2.12-2.92,3.06-1.39,6.15-.17.72-.38,1.55-.57,2.33-4.24.78-6.21,8.4-3.9,12.65-.41,1.09-.84,2.26-1.36,3.67-2.6.75-2.88,2.82-2.72,5.3.07,1.06-.6,2.17-.93,3.25C406.11,424.57,402.26,415.48,403.54,405.33Zm-12.77,82c3.33-4.28,6.67-8.56,10-12.85,2.95-3.81,4-8.45,5.55-12.86.2-.56.28-1.15.5-2l1.8,1.4c-3.15,7.73-5.55,15.67-10.06,22.69-2.12,3.31-7.14,7.14-11.64,8.71C388.32,490.49,389.54,488.89,390.77,487.3Zm3.94,4c-4.13,6.9-7.59,14.29-15.87,17.45-2.68,1-5.19,2.51-7.84,3.81C376.92,503.23,384.47,495.83,394.71,491.31Zm-28,36.67a4.18,4.18,0,0,1-.44.4c-3.21,2.89-4.78,2.71-7.39-1,0-2,1.33-3.4,2.63-4.81,3.39-3.66,7.8-5.84,12.07-8.2,2.12-1.17,4.4-2.07,6.61-3.09l.26.3Zm213.6-106L576,418.77v253c-12.21,2.27-18.58,10-21.28,21.57H432.78c2.62,3.44,4.2,4.26,7.89,4.26h14.9l101.35,0a11.12,11.12,0,0,0,1.52-.17c.95-13.86,9.46-19.91,21.85-22.16ZM194.58,671.71V418.86l-4.13,3.06V675.28c12.51,2.29,20.94,8.41,21.82,22.16a13,13,0,0,0,1.47.15q58.81,0,117.64,0c3.22,0,4.43-2.47,6.29-4.35H216C213.27,681.66,206.84,673.94,194.58,671.71ZM576.91,76.5V319.38l4.14-3V73c-12.57-2.31-21-8.5-21.84-22.3h-4q-57.33,0-114.66-.07c-3.41,0-4.77,2.37-6.71,4.37H555.52C558.2,66.56,564.64,74.26,576.91,76.5ZM191.25,72.68V316.37l4.28,3.17V76.4c11.9-2.5,16.82-7.5,21.24-21.53H338.88c-2.51-2.66-4.72-4.61-8.51-4.31-4.8.38-9.66.09-14.49.09l-101.35,0c-.51,0-1,.11-1.84.2.7,6.18-1.93,11-6.13,15.08A23.34,23.34,0,0,1,191.25,72.68Zm223.68,3.59H355.47V126h59.46Zm-4.15,45.41h-51V80.49h51ZM437,621.35l-3-1.21c-1.68,1.36-2.18,3.34-2.66,5.19-1.94,7.63-3.75,15.3-5.61,22.95-.11.45-.29.89-.56,1.72a22.74,22.74,0,0,1-1.67-3.17c-.87-2.71-1.6-5.46-2.42-8.19-.41-1.35-.43-3.17-2.32-3.28s-2.19,1.69-2.71,3c-1.2,3-2.28,6-3.54,9.36-1.61-7.36-3.08-14.29-4.65-21.19a20.65,20.65,0,0,0-1.67-4.65,2.46,2.46,0,0,0-2-1.15,2.52,2.52,0,0,0-1.46,1.78,12.19,12.19,0,0,0,.07,4q1.68,10.18,3.52,20.35a75.75,75.75,0,0,0,2.08,9.09,4.33,4.33,0,0,0,2.63,2.22c1.3.44,2.17-.61,2.62-1.85l1.72-4.66c.85-2.32,1.69-4.65,2.6-7.14,1.73,4,3.37,7.77,4.91,11.54.73,1.77,1.93,3,3.84,2.9s2.33-1.7,2.64-3.25c.61-3,1.1-6.13,1.84-9.15,1.79-7.33,3.71-14.62,5.53-21.94A20.25,20.25,0,0,0,437,621.35Zm36.74,35.52c.92,1.83,3.15,1.87,4.94,1.57s1.91-1.82,2.06-3.25a16.32,16.32,0,0,0,.13-2c-.08-9.2-.15-18.4-.26-27.61a6.26,6.26,0,0,0-.42-2.71,2.67,2.67,0,0,0-1.85-1.41,2.87,2.87,0,0,0-1.91,1.35,4.69,4.69,0,0,0-.44,2.3q-.21,6.66-.31,13.31c0,3.21,0,6.42,0,9.63a4,4,0,0,1-1.06-1.64c-2.65-6.49-5.28-13-7.95-19.48-.85-2.06-1.77-4.11-2.81-6.09a2.17,2.17,0,0,0-1.64-1.06,2.06,2.06,0,0,0-1.51,1.23,32.15,32.15,0,0,0-.42,5.71c.24,9.66.57,19.32.87,29,0,.52-.08,1.22.21,1.54.68.75,1.59,1.87,2.35,1.83s1.68-1.19,2.17-2.05c.34-.6.1-1.55.1-2.34V638.45c1.28,3.36,2.68,7.26,4.26,11.1C471.24,652.05,472.49,654.46,473.71,656.87Zm10.05-476.28c.35-2.46,1.29-4.56,3.46-5.7a70,70,0,0,1,8.17-3.47,33.07,33.07,0,0,1,4.68-1,4.52,4.52,0,0,0-1.82-.78c-3.53-1.22-7.13-2.32-10.56-3.8a6.55,6.55,0,0,1-3.82-5.26c-.57-3.65-1.12-7.32-1.7-11-.46-2.89-.95-5.77-1.51-9.16a7,7,0,0,0-.52,1c-1,6-2,12-2.83,18a8.2,8.2,0,0,1-4.24,6.54,21.4,21.4,0,0,1-3.93,1.87c-2.75.86-5.56,1.53-8.34,2.27l0,.27a11.14,11.14,0,0,1,1.53.28c3.61,1.21,7.3,2.26,10.8,3.75,2.51,1.06,3.82,3.33,4.15,6.12s.79,5.5,1.23,8.24c.57,3.55,1.18,7.1,1.77,10.64a1.12,1.12,0,0,0,.68-.82C481.89,192.62,482.9,186.62,483.76,180.59Zm5.1,475c0,3.69,3,5.58,6.23,3.76a40.38,40.38,0,0,0,7-4.87c8.95-8,8.14-23.79-1.16-29.95-4.89-3.25-10-3.18-15.12-1.05-.67.28-1,1.49-1.43,2.27a12,12,0,0,0,2.41,1.2,9.14,9.14,0,0,0,2.48-.06v1.51C489.11,637.51,489,646.57,488.86,655.63ZM493.94,627c2.39,0,4,1.37,5.55,3,6.69,7.14,3.65,20.83-5.55,24.3ZM264.33,658.58a2.66,2.66,0,0,0,1.55,2.06c.79.09,1.78-.67,2.5-1.29.36-.31.36-1.1.47-1.68.41-2.25.81-4.5,1.2-6.72h7.06c.51,2.49,1,4.75,1.46,7,.3,1.47.83,2.74,2.66,2.55,1.43-.15,2.07-1.48,1.75-3.43-.67-4.12-1.32-8.24-2-12.35-.61-3.58-1.18-7.18-1.92-10.73-.81-3.88-1.75-7.74-2.75-11.57-.29-1.12-.82-2.35-3-1.63-.75,2.14-1.66,4.56-2.44,7-.57,1.83-1,3.71-1.44,5.57-1.05,4.22-2.08,8.44-3.09,12.57-1.58.7-4-.6-4.38,1.95-.35,2.37,2,2.18,3.44,2.82-.06.48-.12.92-.18,1.37A57.15,57.15,0,0,0,264.33,658.58ZM274,631.1l.44,0c.73,4.86,1.47,9.72,2.24,14.8h-5.79Zm162,24.49a3.07,3.07,0,0,0,1.67,2.41c.73.16,1.84-.8,2.58-1.49.41-.39.41-1.22.6-1.85.6-2,1.21-4,1.83-6.12h7.76c1,3.16,1.75,6.08,2.81,8.89.25.67,1.46,1,2.22,1.44.41-.79,1.24-1.63,1.15-2.36-1.33-11.55-4.78-22.62-7.92-33.76-.23-.83-1.27-1.44-1.94-2.15-.71.69-1.77,1.26-2.06,2.1-1.2,3.43-2.23,6.92-3.19,10.43s-1.8,7.16-2.66,10.61c-1.67.77-4.12.3-4.13,2.64,0,.93,1.47,1.86,2.27,2.79a2.66,2.66,0,0,1,0,2A18.67,18.67,0,0,0,436.06,655.59Zm10.53-24.7H447l2.8,12.11-5.8.35ZM259,620.88a14.78,14.78,0,0,0-9,.44,14.54,14.54,0,0,0-8.26,7c-1.14,2.11-.51,3.6,1.48,4a8.41,8.41,0,0,1,5.79-6c0,1,0,1.87,0,2.77-.35,8.35-.74,16.71-1.06,25.07a11.61,11.61,0,0,0,.34,3.91c.24.76,1.3,1.84,1.88,1.78a3.55,3.55,0,0,0,2.14-1.81,7.4,7.4,0,0,0,.5-2.9c.2-3,.34-5.93.5-9,1.53-1,3.08-2,4.66-2.93,5.5-3.38,7.47-8.49,7.14-14.69A8.08,8.08,0,0,0,259,620.88Zm-5.57,19.42c-.26-5.09-.52-10.09-.8-15.64a35,35,0,0,1,4.77.49,3.66,3.66,0,0,1,2.88,3.76C260.58,634.31,258.69,637.56,253.47,640.3Zm108.72-11.82c-.26-3.2-2.67-6.44-5.26-7.09s-5.43.78-7.22,3.83a26,26,0,0,0-3.35,7.12,33.37,33.37,0,0,0-.61,14c.81,4,1.95,7.95,5,11,2.71,2.77,6.11,3,8.66,0a17,17,0,0,0,3-5.06c2.5-6.54,2.67-13.33,1.52-20.16a10.71,10.71,0,0,0-1.32-2.7l-.41,0C362.19,629.14,362.22,628.81,362.19,628.48ZM358,651.65a29.41,29.41,0,0,1-2.85,4.14c-1.11-1.49-2.09-2.34-2.48-3.41a32.76,32.76,0,0,1,.65-24.72,4.64,4.64,0,0,1,.38-.69c1.68-2.71,3.13-2.76,4.86-.12.68,1,1.26,2.16,1.64,2.82,0,1.67-.11,2.91,0,4.12C360.87,639.93,360.5,645.94,358,651.65Zm-32.15-25.08c2.06-.07,3.29-1.68,2.39-3.09a3.71,3.71,0,0,0-2.55-1.43c-3.56-.25-7.13-.29-10.7-.34a3.19,3.19,0,0,0-3.4,3,27.58,27.58,0,0,0-.44,4.53c0,9.27,0,18.53,0,27.8,0,2.38.78,3.34,3.07,3,4.1-.63,8.16-1.5,12.2-2.43a2.38,2.38,0,0,0,1.47-1.76c-.06-.71-.9-1.89-1.49-1.94a23.13,23.13,0,0,0-5.44.26,44.66,44.66,0,0,0-4.67,1.15v-10.7c.72,0,1.25,0,1.77-.09,2.42-.31,4.87-.49,7.25-1a2.77,2.77,0,0,0,1.7-2c0-.66-1-1.63-1.78-1.92a7.75,7.75,0,0,0-3.12-.1c-1.94.15-3.87.41-5.86.63-.35-4.65-.68-9-1-13.43C318.85,626.6,322.34,626.69,325.83,626.57Zm187.9-360.9c2.46-.91,5-1.52,8.14-2.44a19.52,19.52,0,0,1-2.37-.49c-2.79-1-5.62-1.87-8.31-3.08a5.42,5.42,0,0,1-3.18-4.3c-.64-4.24-1.33-8.49-2-12.73-.19-1.21-.47-2.4-.71-3.6a5.77,5.77,0,0,0-.85,2.38c-.68,4.18-1.51,8.34-2,12.54a7.26,7.26,0,0,1-4.41,6.32,55.32,55.32,0,0,1-5.94,2.16,32.33,32.33,0,0,1-3.41.75,24.63,24.63,0,0,0,4.37,1.3c7,1.79,8.7,3.72,9.74,10.81.61,4.15,1.35,8.28,2,12.43a1.85,1.85,0,0,0,.73-1.22c.73-4.43,1.66-8.85,2.08-13.32C508.05,269.16,510.28,267,513.73,265.67ZM318.08,540a5.89,5.89,0,0,1-3.58-4.7q-.63-4.41-1.34-8.82c-.4-2.43-.83-4.85-1.25-7.27h-.39a3.08,3.08,0,0,0-.27.65c-.8,5-1.68,9.91-2.37,14.88a5.88,5.88,0,0,1-3,4.84,70.23,70.23,0,0,1-7.3,3,26,26,0,0,1-3.2.75c3.17,1.09,6.28,2,9.23,3.24a6.39,6.39,0,0,1,4.21,5.12c.47,3.47,1.06,6.93,1.63,10.39.3,1.89.66,3.77,1,5.66l.51,0c.82-5,1.79-10,2.39-15a7.16,7.16,0,0,1,4.34-6.13,55.33,55.33,0,0,1,6.13-2.22c1-.33,2.08-.47,3.13-.7a2.82,2.82,0,0,0-1.3-.66C323.78,542,320.84,541.18,318.08,540ZM519.35,659.46c4.24-.38,9.32-3.65,8.95-9.91a13.78,13.78,0,0,0-6-11.64,18.65,18.65,0,0,1-6-7c-.73-1.58-.12-2.83.87-4s2.21-1,3.44-.41a7.14,7.14,0,0,1,4.13,3.78c.24.61,1.23.91,1.87,1.35.36-.76,1.06-1.56,1-2.28-.27-2.85-2.3-4.51-4.59-5.84-3.37-2-6-1.77-8.61.49a8.45,8.45,0,0,0-2.51,9.17,18.68,18.68,0,0,0,6.6,9c2.8,2,4.7,4.58,4.71,8.08a4.84,4.84,0,0,1-1.45,3.38c-3.49,2.84-6.74,1.48-7.51-3-.31-1.74-1.46-2.77-2.93-2.62s-2.4,1.41-2.34,3.16a7,7,0,0,0,.18,1.37C510.29,657.5,513.33,660,519.35,659.46ZM287.26,628.82a41.27,41.27,0,0,0-1.87,16.46,19.62,19.62,0,0,0,2,7c3.33,6.28,11.09,6.54,14.74.52a37.77,37.77,0,0,0,3.1-7.27,2,2,0,0,0-1.8-2.73,37.69,37.69,0,0,0-6.53-.35,2.93,2.93,0,0,0-2.24,1.62c-.13.69.76,1.82,1.49,2.35a12.49,12.49,0,0,0,3.31,1.1c-1.22,1.78-2.27,3.3-3.23,4.71-3-.57-4.85-1.81-5.44-4.51a34.79,34.79,0,0,1,1.53-19.33,5.92,5.92,0,0,1,3.55-3.28c.82-.2,2.27,1.74,3.28,2.86a24.81,24.81,0,0,1,2.08,3c2.19-.79,2-2.23,1.59-3.33a16,16,0,0,0-2.35-4.53c-2.1-2.68-5.31-3.06-8.16-1.18A12.3,12.3,0,0,0,287.26,628.82Zm138.11,68.81c-3.16-.62-6.37-1-9.7-1.54.44-1,.92-1.93,1.28-2.91.5-1.33.86-2.73-.39-3.86s-2.77-.79-4.09-.09a15.27,15.27,0,0,0-7.54,8.1,11.7,11.7,0,0,0-.67,4.44c.16,4.61,2.83,8,5.85,11.13,2.05,2.12,4.07,2.62,5.43,1.66s1.59-3,.49-5.68c-.49-1.17-1.08-2.29-1.49-3.17,3.73-.5,7.35-.86,10.9-1.53,1.74-.34,4-.83,3.88-3.25C429.21,698.71,427.2,698,425.37,697.63Zm-10.89-6.48c-.74,3.76-2.11,6.2-6.84,6.26A13.08,13.08,0,0,1,414.48,691.15ZM413,711.78l-5.62-7.06c.14-.18.28-.36.41-.55l3.37.75c.9,2,1.84,4.15,2.77,6.28Zm-5.86-10.72a30.16,30.16,0,0,1,18.67.19C419.59,702.84,413.37,703.14,407.18,701.06ZM346.26,50.62c3.1.61,6.24,1,9.57,1.49-.42.94-.91,1.86-1.26,2.84-.51,1.39-.93,2.85.45,4s2.79.69,4.09,0a15.19,15.19,0,0,0,7.33-7.76,12.27,12.27,0,0,0,.77-4.81c-.16-4.66-2.9-8.1-6-11.22-2-2-3.94-2.44-5.27-1.49s-1.57,2.92-.54,5.48c.5,1.24,1.12,2.42,1.57,3.37-3.66.48-7.21.8-10.69,1.46-1.8.34-4.16.76-4.1,3.26C342.24,49.56,344.38,50.24,346.26,50.62Zm11,6.34c-.24-3.34,2.17-5.59,6.78-6.18C362.16,53.6,360.27,55.86,357.22,57Zm.9-20.33A18.82,18.82,0,0,1,364,44.12l-3.74-.83L357.52,37Zm6.46,10.25c-3.22,2.32-15.66,2.25-19.4-.21A40.65,40.65,0,0,1,364.58,46.88Zm-192,293.4a41.57,41.57,0,0,0,7.38,5.84c8.12,4.55,15.83-2.44,17.73-8.06.84-2.5-.92-4.24-3.47-3.57a38.33,38.33,0,0,0-3.94,1.53c-.32-2.74-.54-5.37-1-8a10.48,10.48,0,0,0-1.35-3.89,3.69,3.69,0,0,0-2.56-1.71c-.85.05-1.81,1.12-2.4,2a6.55,6.55,0,0,0-.93,2.8c-.46,3.3-.8,6.62-1.18,9.92-1.52-.62-3.17-1.44-4.91-2-1.49-.45-3.11-.46-4.09,1.1A3.08,3.08,0,0,0,172.53,340.28Zm22.55-3c-.68,2.68-2.63,4.87-5.86,6.7C189,340.2,190.46,338.26,195.08,337.25Zm-10.3-11.85c2.53,3.25,2.71,15.62.4,19.52C183.28,338.34,183.67,332.11,184.78,325.4Zm-9.54,12.34,6.24,2.7c.29,1.2.54,2.27.91,3.77a18.41,18.41,0,0,1-7.47-5.83ZM357.56,689a3.88,3.88,0,0,0-3.4.47c-.64.56-.67,2.16-.51,3.22a16.34,16.34,0,0,0,1.36,3.51c-2.82.34-5.46.54-8.06,1a12,12,0,0,0-4.06,1.48c-2.31,1.4-2.15,3.52.26,4.71a10.09,10.09,0,0,0,3,1c3.32.47,6.66.81,10,1.2-.65,1.64-1.45,3.31-2,5.07-.43,1.43-.36,3,1.11,3.91a3,3,0,0,0,3.84-.56,41.48,41.48,0,0,0,5.48-6.45C369.78,699.43,363.86,691.73,357.56,689Zm-.83,22.2c.9-2.07,1.8-4.14,2.7-6.24l3.36-.81C362.39,706.54,359.63,710.13,356.73,711.22Zm-11.88-9.93a30.22,30.22,0,0,1,18.69-.26C357.34,703.17,351.11,702.8,344.85,701.29Zm13.92-4.6-2.89-5,.62-.44c3,1.08,4.93,3.28,6.7,6.25ZM547.64,642.9c3.38-.5,6.79-.91,10.1-1.7a3.57,3.57,0,0,0,2.25-2.52,3.8,3.8,0,0,0-2-2.73,21.48,21.48,0,0,0-5.51-1.49c-2-.33-4-.4-6.06-.59a15.19,15.19,0,0,0,1.41-3.46c.14-1.13.12-2.74-.55-3.38a3.84,3.84,0,0,0-3.4-.39,14.84,14.84,0,0,0-8.53,9.35c-1.88,5.82,3.14,13.06,7.09,15.64a4.87,4.87,0,0,0,3.8.47c1.58-.58,1.56-2.38,1.13-3.81-.52-1.75-1.32-3.42-2.09-5.38A17.4,17.4,0,0,0,547.64,642.9ZM545.06,629c.24,3.19-2.15,5.42-6.63,6C540.35,631.63,542.52,629.68,545.06,629Zm-.87,20.17c-2.63-1.78-4.36-4.3-5.94-7.47l3.75.83c.91,2.08,1.83,4.2,2.75,6.33Zm-6.25-10.53a30.29,30.29,0,0,1,18.69.2C550.37,640.48,544.14,640.73,537.94,638.64ZM182.28,406.42c.33,1.75.81,4,3.21,3.91,2.24-.07,2.95-2.09,3.32-3.91.64-3.16,1-6.37,1.56-9.72a13.43,13.43,0,0,0,3.21,1.3c1.13.16,2.83.19,3.38-.47a4.06,4.06,0,0,0,.39-3.57,14.5,14.5,0,0,0-8.85-8.26,10.74,10.74,0,0,0-3.88-.43c-4.53.19-7.87,2.8-11,5.74-2.21,2.11-2.75,4.17-1.74,5.56s3,1.57,5.85.37c1.1-.46,2.16-1,3-1.39C181.25,399.27,181.6,402.88,182.28,406.42Zm12.88-11.26-.49.66-4.89-2.89c-.32-1.59-.57-2.8-.89-4.39C191.88,390.24,194,392.23,195.16,395.16Zm-9.75-7a30.33,30.33,0,0,1-.19,18.7A31.87,31.87,0,0,1,185.41,388.17ZM175.23,395l-.37-.61a19.24,19.24,0,0,1,7.51-5.89l-.86,3.75Zm46,258.35a3.1,3.1,0,0,0,4.16-.66,41,41,0,0,0,5.56-6.88c4.82-8.1-1.63-15.8-7.59-18.08a3.41,3.41,0,0,0-3.05.48,4.32,4.32,0,0,0-.62,3.21,14.67,14.67,0,0,0,1.33,3.42c-3.52.61-7,1.09-10.38,1.84-1.55.33-3.13,1.17-3.22,3.06s1.67,2.48,3.15,3a6.88,6.88,0,0,0,1.72.48c3.27.41,6.54.78,9.92,1.17a49.88,49.88,0,0,0-1.94,4.77C219.8,650.66,219.69,652.28,221.21,653.33Zm2.51-2.74-.95-.62,2.73-6.22,3.34-.78.49.47Zm5.39-14.48c-4.42.2-6.25-2.35-6.75-6.1A13,13,0,0,1,229.11,636.11ZM210.9,640a30,30,0,0,1,18.62-.21A31.85,31.85,0,0,1,210.9,640ZM588.41,326.25c-.33-1.74-.82-4-3.25-3.86-2.22.11-2.92,2.13-3.28,3.95-.63,3.16-1,6.36-1.54,9.69a12.36,12.36,0,0,0-3.07-1.26,5.75,5.75,0,0,0-3.62.43c-1.32.89-.93,2.51-.28,3.8a15.42,15.42,0,0,0,8.49,7.91,10.38,10.38,0,0,0,3.87.59c5-.23,8.59-3,11.87-6.41a6.93,6.93,0,0,0,1.36-2.16c.88-2.14-.33-4.06-2.61-3.87a22.26,22.26,0,0,0-4.89,1.4,7.83,7.83,0,0,0-1.49.77C589.46,333.5,589.1,329.84,588.41,326.25Zm-12.87,11.32.46-.68,4.92,2.89c.33,1.6.58,2.86.91,4.49C578.87,342.43,576.66,340.5,575.54,337.57Zm9.84,6.91c-2.21-2.92-2-16.29.26-18.6C587.38,329.68,587.22,341,585.38,344.48Zm10.13-6.75.3.57c-1.78,2.63-4.3,4.35-7.46,5.93.32-1.44.55-2.5.84-3.77ZM414.18,59.29a3.43,3.43,0,0,0,3.06-.47,4.34,4.34,0,0,0,.64-3.2A16.6,16.6,0,0,0,416.46,52c2.79-.34,5.5-.52,8.13-1a12.65,12.65,0,0,0,4.52-1.86c1.67-1.13,1.47-3-.29-4a10.06,10.06,0,0,0-3.32-1.25c-3.37-.51-6.77-.84-10.15-1.24.61-1.47,1.42-3.06,1.94-4.73.45-1.48.57-3.1-.94-4.16a3.08,3.08,0,0,0-4.16.63A40.21,40.21,0,0,0,406.7,41C401.73,49.23,408.16,57,414.18,59.29Zm0-22.62.56.31c-.93,2.12-1.86,4.25-2.75,6.3l-3.76.86C409.84,41,411.55,38.44,414.21,36.67ZM427,46.55c-2.81,2.49-15.19,2.73-19.47.4C414.16,45.09,420.38,45.37,427,46.55ZM415.17,57a13,13,0,0,1-6.74-6.11C413,50.64,414.87,53.68,415.17,57Zm183,335.38a41.25,41.25,0,0,0-7-5.64c-8.14-4.74-15.9,2-18,7.82-.93,2.57.87,4.38,3.52,3.66a41.21,41.21,0,0,0,4-1.58,20.67,20.67,0,0,0,.16,2.81,77.37,77.37,0,0,0,1.91,8.85,3.58,3.58,0,0,0,2.78,1.93c.81,0,2-1.23,2.39-2.18a17.59,17.59,0,0,0,1.32-5c.32-2.51.37-5.06.54-7.6,1.69.71,3.28,1.51,5,2,1.48.45,3.1.53,4.13-1A3.1,3.1,0,0,0,598.12,392.37Zm-17.21.59L576,395.82l-.43-.61c1.08-3,3.28-4.93,6.28-6.72Zm4.27,14.34A38,38,0,0,1,585,388C587.29,390.94,587.45,403.77,585.18,407.3ZM595.52,395l-6.34-2.72c-.31-1.35-.52-2.31-.86-3.77,3.17,1.56,5.69,3.29,7.49,5.94ZM584.15,695.33a62,62,0,0,0-4.55-5c1.7-.72,3.44-1.34,5.07-2.19,1.4-.73,2.49-1.89,2.08-3.67a3,3,0,0,0-3.32-2.31,43.39,43.39,0,0,0-9,1.07c-8.94,2.39-9.79,12.44-7.09,18.25,1.16,2.5,3.69,2.52,5.07.13a32.63,32.63,0,0,0,1.66-3.95c2,1.6,3.92,3.33,6,4.74a14.29,14.29,0,0,0,4.84,2.1c2.19.45,3.55-1.2,2.66-3.26A29.61,29.61,0,0,0,584.15,695.33Zm-.87-10.13c.06.22.12.43.19.65L577,688.5l-3.29-2.1C577.09,685.29,580.12,684.64,583.28,685.2Zm-13.6,15.34c-1.48-3-1.3-6-.67-9.12C572.14,693.91,572.36,696.77,569.68,700.54Zm1.65-12.13a31.52,31.52,0,0,1,13.64,13A30.35,30.35,0,0,1,571.33,688.41ZM185.66,50.63c2,2.45,4,4.86,6.07,7.3-1.51.64-3.26,1.26-4.88,2.1-1.41.73-2.5,1.87-2.11,3.67A3,3,0,0,0,188,66,42.54,42.54,0,0,0,197,65c8.93-2.35,9.83-12.34,7.14-18.23-1.14-2.5-3.68-2.55-5.06-.18a32.55,32.55,0,0,0-1.73,4.11c-.51-.46-.95-.93-1.46-1.31-2.34-1.71-4.64-3.49-7.09-5-1.34-.85-3.06-1.34-4.44-.1s-.57,2.94.1,4.37A9.75,9.75,0,0,0,185.66,50.63ZM188.2,63l-.19-.6,6.5-2.64,3.38,2.08C194.45,62.86,191.42,63.64,188.2,63Zm13.61-15.29c1.53,3,1.24,6,.7,9.14C199.39,54.32,199.1,51.52,201.81,47.68Zm-1.67,12.15c-5.95-2.84-10.27-7.4-13.6-13A30,30,0,0,1,200.14,59.83ZM579.86,66a16.23,16.23,0,0,0,5.85-.42c2.2-.59,2.64-3,1-4.54a12.54,12.54,0,0,0-3.15-2,22.36,22.36,0,0,0-2.84-1c.8-1,1.7-2,2.45-3.07a78.09,78.09,0,0,0,5.27-8.07c1-2-.39-3.56-2.63-3.29a7,7,0,0,0-3,1c-2.73,1.83-5.35,3.82-8,5.75A15.39,15.39,0,0,0,573.41,47c-.6-.88-1.77-2-2.62-1.93a3.86,3.86,0,0,0-2.74,2,14.19,14.19,0,0,0,.5,12.8C571,64.26,575.3,65.52,579.86,66Zm4.39-3.66-.18.65c-3.18.59-6.23-.12-9.61-1.19l3.3-2.11Zm1.45-15.57a31.72,31.72,0,0,1-13.52,13.08C575.16,54,579.93,49.87,585.7,46.79Zm-15.21.78c2.47,3.23,2.29,5.75-.55,9.44A13.35,13.35,0,0,1,570.49,47.57ZM201.32,686.13c-3.84-3.52-8.62-4.32-13.63-4-1.62.1-3.29.49-3.73,2.38-.48,2.08,1,3.19,2.56,4s3.09,1.27,4.45,1.81a34.94,34.94,0,0,0-2.75,3.08,65.88,65.88,0,0,0-5.07,7.73c-1.13,2.2.29,3.82,2.75,3.46a7,7,0,0,0,2.94-1.07c2.67-1.8,5.23-3.76,7.88-5.69a29.58,29.58,0,0,0,1,2.8c.63,1.4,1.31,2.88,3.21,2.74s2.59-1.57,3-3.06a23.57,23.57,0,0,0,.76-5.47C204.61,691.54,203.78,688.4,201.32,686.13Zm-14.52-.46c2.78-1.06,6.89-.62,10,.86l-3.08,2ZM185.55,702c1.22-4.3,9.85-12.57,14.28-13.76A37.82,37.82,0,0,1,185.55,702ZM201,700.61c-2.62-3.22-2.36-6.26.63-9.3C202.32,694.43,202.5,697.43,201,700.61ZM374,641.83c1.62,0,2.93.09,4.23,0,1.56-.14,2.71-1,2.56-2.68s-1.5-2.17-3-2.1l-3.82.2c-.22-4-.43-7.72-.65-11.66,3.63-.35,7.11.41,10.21-1.51v-1.81c-3.3-1.77-10.06-1.75-14.18.08a24.31,24.31,0,0,0-.51,3.46q-.06,14.4,0,28.8a5,5,0,0,0,.41,2.51,3.52,3.52,0,0,0,2.16,1.55c2,.24,2.66-.78,2.64-3.21C373.93,651,374,646.46,374,641.83Zm4.31-584.46a2.75,2.75,0,0,0,2.28.52c.48-.22.84-1.4.77-2.1-.35-3.36,1.24-6,4.65-7.21,3.8,1.17,5.43,3.61,4.92,7.33-.18,1.28.2,2.24,1.53,2.18a3.85,3.85,0,0,0,2.15-1.21,11,11,0,0,0,2.28-12,11.47,11.47,0,0,0-10.45-7.33c-4.39-.27-9.05,2.9-10.85,7.08C373.65,49.06,374.8,54.66,378.26,57.37Zm2.56-13.84a7.25,7.25,0,0,1,9.12-1c3.29,2,4.51,4.81,3.52,8.6-4.09-8.16-11.15-7-14.49-.21C377.83,48.64,378.6,45.6,380.82,43.53Zm12.43,647.33a3.31,3.31,0,0,0-2.47-.45c-.35.08-.68,1.33-.6,2,.4,3.57-1.37,6.2-5.12,7.23-3.54-1.45-4.76-3.62-4.45-7.51a2.06,2.06,0,0,0-.62-1.69,2.64,2.64,0,0,0-2,0,4.4,4.4,0,0,0-1.48,1.29A11.29,11.29,0,0,0,375,704.18c2,3.92,6.77,6.76,10.87,6.45a12,12,0,0,0,10.46-8.19C397.66,698.31,396.37,693.27,393.25,690.86Zm-2.43,13.66c-3.13,2.79-6.82,3.1-10,.84-2.79-2-3.89-5.23-2.75-8.07,4,7.69,11,7.17,14.4.05C393.65,699.45,392.9,702.66,390.82,704.52ZM577.27,371.3a10.91,10.91,0,0,0-2.8.61c.43,1,.59,2.3,1.31,3a11,11,0,0,0,12.36,1.88c4-1.91,7-6.65,6.76-10.66a12.09,12.09,0,0,0-8.09-10.78c-4.17-1.36-9.34,0-11.75,3.14a2.67,2.67,0,0,0-.46,2.28c.23.49,1.41.79,2.13.72a6.45,6.45,0,0,1,7.12,4.64C583,369.52,580.41,371.44,577.27,371.3Zm4.25-12.21a6.86,6.86,0,0,1,7.86,2.47c2.29,2.92,2.32,6.2.09,9.34a6.7,6.7,0,0,1-7.91,2.76C589.77,369.25,588.14,362.44,581.52,359.09Zm-387.23,2.57c1.19.12,2.11-.29,2-1.52a4,4,0,0,0-1.16-2.17,11.1,11.1,0,0,0-11.95-2.34c-4.31,1.73-7.56,6.28-7.37,10.86a11.39,11.39,0,0,0,7,10.44c4.34,2,10,.81,12.69-2.66a3.3,3.3,0,0,0,.49-2.46c-.07-.35-1.32-.71-2-.63-3.62.39-6.18-1.31-7.25-5.1C188.23,362.56,190.47,361.25,194.29,361.66Zm-5.12,11.95a6.54,6.54,0,0,1-7.67-2.35c-2.4-3.14-2.56-6.35-.45-9.34a7,7,0,0,1,8.09-2.87C181.13,363.58,182.33,370.21,189.17,373.61ZM362,174a33.18,33.18,0,0,0-1-5.77l-.51,0c-.27,1.67-.61,3.34-.8,5-.43,3.83-1.38,5-5.09,6-.43.12-.88.19-1.68.35.48.35.62.53.79.55,4.23.59,6.11,3.06,6.1,7.28a19.68,19.68,0,0,0,.8,3.94,11.44,11.44,0,0,0,1.07-4c.57-5.13,1.06-5.75,5.61-7.07a14.75,14.75,0,0,0,1.48-.68c-1-.23-1.52-.34-2.07-.5C364.08,178.42,362,177.27,362,174ZM474.15,322.16a36.3,36.3,0,0,0-1-5.79l-.55-.07c-.27,1.67-.61,3.32-.81,5-.44,3.84-1.21,4.81-4.94,5.92-.56.17-1.12.29-1.81.47a4.92,4.92,0,0,0,.39.31,2,2,0,0,0,.55.23c4,.6,5.93,2.9,5.91,7a22,22,0,0,0,.8,4.26,11.71,11.71,0,0,0,1.09-4.08c.58-5,1.23-5.85,5.45-7a13,13,0,0,0,1.51-.67c-1.07-.32-1.9-.54-2.7-.81C475.74,326.18,474.18,324.94,474.15,322.16Zm-223.69,142a49.74,49.74,0,0,0,.86,5.38l.55,0c.2-1.36.42-2.72.59-4.08.61-4.91,1.24-5.72,5.38-6.91.54-.15,1-.39,2.06-.79-.88-.11-1.2-.13-1.52-.19-3.65-.65-4.91-1.89-5.55-5.52l-1-5.76a3.86,3.86,0,0,0-.83,1.92,38.24,38.24,0,0,0-.7,4.5c-.14,2.55-1.75,3.69-3.89,4.4-.83.28-1.7.46-3,.81,1,.31,1.6.56,2.22.69C248.62,459.25,250.28,461,250.46,464.17ZM485.31,515.3l-2.05-.58c-2.72-.73-4.6-2.06-4.67-5.27a42.25,42.25,0,0,0-1-6,4,4,0,0,0-.53.88,15,15,0,0,0-.28,1.76c-.46,4.35-1.1,8.56-6.75,9-.08,0-.15.18-.26.32a3.36,3.36,0,0,0,.73.33c3.92.58,5.89,2.76,5.91,6.81a24.74,24.74,0,0,0,.85,4.53l.41,0c.2-1.34.45-2.68.61-4,.61-5.07,1.33-6,5.39-7.08A14.72,14.72,0,0,0,485.31,515.3Zm102.57-80.72c-1.51.1-2,1.22-2.07,2.62s1,2.19,2.12,1.93c.91-.2,1.64-1.2,2.45-1.85C590,435.43,589.33,434.48,587.88,434.58Zm-405.06,4.61c1.24,0,2.12-.63,2.05-2.69a2.06,2.06,0,0,0-2.12-1.93c-1.45-.05-2.05.94-2.06,2.32A2,2,0,0,0,182.82,439.19Zm1.21-14c-.51-.44-2.08-.54-2.39-.16a3.52,3.52,0,0,0-.63,2.77c.43,1.55,1.82,1.4,3.22,1A2.49,2.49,0,0,0,184,425.22Zm.83-112.2a2.47,2.47,0,0,0,.09-3.65c-1.37-.29-2.78-.45-3.17,1.13a3.47,3.47,0,0,0,.7,2.74C182.8,313.62,184.37,313.48,184.86,313Zm402.53,0c.49.47,2,.65,2.38.28a3.47,3.47,0,0,0,.76-2.71c-.36-1.57-1.75-1.5-3.19-1.16A2.42,2.42,0,0,0,587.39,313ZM589.6,425c-.88,0-2.13-.38-2.79.09-1.25.87-1.36,2.29-.36,3.7C589.47,429.37,590.29,428.48,589.6,425ZM184.76,446.52a2.73,2.73,0,0,0-2-1.56,2.76,2.76,0,0,0-1.93,1.68c-.44,1.47.54,2.29,2,2.6C184.37,448.85,185.26,447.92,184.76,446.52ZM587.9,445a2.75,2.75,0,0,0-2,1.65c-.45,1.44.5,2.3,2,2.64,1.51-.39,2.45-1.26,1.95-2.7A2.75,2.75,0,0,0,587.9,445ZM438.64,702.64a2,2,0,0,0-2,2.42c.13.79,1,1.46,1.36,1.86,2.12,0,2.72-.93,2.71-2.17A1.89,1.89,0,0,0,438.64,702.64ZM332.78,45.57a2,2,0,0,0,2.05-2.34c-.1-.8-1-1.5-1.5-2.24-1.9.28-2.53,1.14-2.57,2.4A1.9,1.9,0,0,0,332.78,45.57Zm106.69,0a1.88,1.88,0,0,0,2-2.13c0-1.24-.59-2.15-2.75-2.11-.29.38-1.21,1.06-1.32,1.85A2,2,0,0,0,439.47,45.57ZM332.06,702.65a1.88,1.88,0,0,0-2.09,2.1c0,1.24.57,2.16,2.73,2.15.29-.38,1.22-1,1.34-1.84A2,2,0,0,0,332.06,702.65ZM222.64,45.82h.89c.56-.76,1.46-1.47,1.59-2.29a1.81,1.81,0,0,0-2-2.14c-1.35,0-2.23.87-2,2.14C221.22,44.35,222.09,45.06,222.64,45.82Zm-37.08,96.36a2.89,2.89,0,0,0-1.91-1.92c-.78,0-1.63.93-2.44,1.45,0,.32,0,.64,0,1,.8.55,1.55,1.46,2.41,1.58A1.69,1.69,0,0,0,185.56,142.18Zm-.79,493.7a1.69,1.69,0,0,0-1.92-2.11c-.86.1-1.63,1-2.44,1.54v1c.81.54,1.64,1.53,2.42,1.49A2.92,2.92,0,0,0,184.77,635.88ZM252.35,45.8l1,0c.57-.81,1.6-1.63,1.57-2.41s-1.11-1.77-1.9-2a1.69,1.69,0,0,0-2.08,2C251,44.27,251.84,45,252.35,45.8Zm10.07,0,.95,0c.52-.82,1.49-1.68,1.44-2.46a2.86,2.86,0,0,0-1.93-1.88,1.66,1.66,0,0,0-2,2C261,44.28,261.86,45,262.42,45.82Zm9.76,0,1,0c.58-.78,1.61-1.57,1.62-2.35a2.9,2.9,0,0,0-1.81-2,1.68,1.68,0,0,0-2.18,1.82C270.84,44.15,271.68,45,272.18,45.79Zm10.16,0,.9,0c.52-.78,1.4-1.52,1.5-2.35a1.8,1.8,0,0,0-2.08-2.07c-1.36.07-2.2.94-2,2.2C280.87,44.41,281.77,45.09,282.34,45.83ZM590.28,635.25c-.82-.52-1.62-1.4-2.48-1.48a1.7,1.7,0,0,0-1.87,2.16,2.93,2.93,0,0,0,2,1.84c.77,0,1.58-1,2.37-1.56ZM302,45.8l.95,0c.56-.81,1.59-1.63,1.56-2.42s-1.11-1.76-1.9-1.95a1.69,1.69,0,0,0-2.07,2C300.68,44.28,301.53,45,302,45.8Zm284.69,86.39a1.69,1.69,0,0,0,1.9,2.13c.86-.1,1.64-1,2.45-1.52v-1c-.8-.55-1.63-1.55-2.4-1.51A2.88,2.88,0,0,0,586.73,132.19Zm-402,513.68a1.7,1.7,0,0,0-1.87-2.16c-.87.08-1.66,1-2.48,1.48l0,1c.79.56,1.6,1.57,2.38,1.55A2.91,2.91,0,0,0,184.77,645.87ZM449.34,45.81l.9,0c.55-.76,1.44-1.45,1.59-2.28.24-1.26-.63-2.12-2-2.17a1.8,1.8,0,0,0-2.05,2.1C447.92,44.31,448.8,45,449.34,45.81Zm10.92,0c.53-.77,1.39-1.49,1.51-2.32a1.69,1.69,0,0,0-2-2,2.9,2.9,0,0,0-1.94,1.91c0,.79,1,1.63,1.51,2.45ZM588.59,299.26a2.88,2.88,0,0,0-1.86,2,1.68,1.68,0,0,0,2,2c.86-.14,1.59-1.07,2.37-1.65l0-1C590.24,300.14,589.36,299.19,588.59,299.26Zm-403,1.9a2.88,2.88,0,0,0-1.93-1.9c-.77-.05-1.61.93-2.43,1.47v1c.81.55,1.57,1.45,2.43,1.56A1.68,1.68,0,0,0,185.56,301.16Zm403.09-11.84a2.89,2.89,0,0,0-1.92,1.91,1.68,1.68,0,0,0,1.94,2.08c.86-.11,1.62-1,2.42-1.56v-1C590.27,290.25,589.43,289.27,588.65,289.32ZM182.28,653.26c-.52.84-1.47,1.7-1.42,2.49a2.83,2.83,0,0,0,1.89,1.93,1.66,1.66,0,0,0,2-2c-.16-.88-1-1.64-1.58-2.45ZM588.61,114.44c.86-.08,1.65-1,2.47-1.49,0-.32,0-.65,0-1-.8-.55-1.62-1.56-2.4-1.53a2.88,2.88,0,0,0-2,1.85A1.68,1.68,0,0,0,588.61,114.44ZM182.88,578.14a2.91,2.91,0,0,0,1.89-1.94,1.68,1.68,0,0,0-2-2.05c-.87.13-1.61,1.05-2.4,1.61,0,.32,0,.64,0,1C181.24,577.24,182.1,578.21,182.88,578.14ZM588.59,269.45a2.86,2.86,0,0,0-1.86,2,1.68,1.68,0,0,0,2,2c.86-.14,1.59-1.07,2.38-1.64l0-1C590.24,270.33,589.36,269.37,588.59,269.45Zm-405,4a1.69,1.69,0,0,0,2-2.05,3,3,0,0,0-1.89-1.95c-.78-.06-1.64.9-2.47,1.42,0,.32,0,.64,0,1C182,272.39,182.72,273.31,183.58,273.44ZM585.93,665.6a2.88,2.88,0,0,0,1.86,2c.77.08,1.65-.87,2.48-1.37l0-1c-.78-.58-1.51-1.51-2.37-1.66A1.69,1.69,0,0,0,585.93,665.6ZM185.56,112.43a2.87,2.87,0,0,0-1.84-2c-.77-.09-1.66.86-2.5,1.36,0,.32,0,.65,0,1,.79.58,1.51,1.52,2.36,1.67A1.69,1.69,0,0,0,185.56,112.43ZM181.2,103c.82.54,1.6,1.42,2.46,1.52a1.69,1.69,0,0,0,1.9-2.13,2.9,2.9,0,0,0-2-1.87c-.78,0-1.6,1-2.41,1.52Zm1.91,156.08c-.53.82-1.5,1.67-1.45,2.46a2.83,2.83,0,0,0,1.85,2,1.69,1.69,0,0,0,2.07-2c-.14-.88-1-1.64-1.55-2.46ZM588.59,90.57a2.9,2.9,0,0,0-1.86,2,1.68,1.68,0,0,0,2,2c.85-.14,1.59-1.07,2.37-1.64l0-1C590.24,91.46,589.37,90.5,588.59,90.57Zm-403,1.88a2.86,2.86,0,0,0-1.95-1.87c-.78,0-1.61,1-2.41,1.5v1c.82.53,1.59,1.42,2.46,1.52A1.68,1.68,0,0,0,185.56,92.45Zm401.17-10a1.69,1.69,0,0,0,1.87,2.15c.87-.08,1.65-1,2.47-1.48l0-1c-.8-.56-1.61-1.57-2.39-1.54A2.88,2.88,0,0,0,586.73,82.48Zm-401.17.1a2.88,2.88,0,0,0-1.88-1.94c-.78-.07-1.64.9-2.47,1.41l0,1c.79.57,1.53,1.49,2.39,1.62A1.68,1.68,0,0,0,185.56,82.58Zm403.07,171c.86-.1,1.64-1,2.46-1.53v-1c-.8-.55-1.63-1.55-2.41-1.51a2.9,2.9,0,0,0-1.95,1.87A1.69,1.69,0,0,0,588.63,253.57Zm-407.42-1.51c.82.53,1.6,1.42,2.46,1.5a1.69,1.69,0,0,0,1.89-2.13,2.92,2.92,0,0,0-2-1.86c-.77,0-1.59,1-2.39,1.52C181.2,251.41,181.2,251.74,181.21,252.06ZM538.71,45.79l.9,0c.58-.73,1.48-1.4,1.66-2.22.26-1.26-.58-2.14-1.93-2.23a1.8,1.8,0,0,0-2.1,2C537.33,44.26,538.19,45,538.71,45.79Zm-29.78,0,.89,0c.57-.74,1.47-1.42,1.63-2.24.26-1.27-.59-2.14-1.94-2.21a1.81,1.81,0,0,0-2.09,2.07C507.53,44.28,508.4,45,508.93,45.8Zm-9,0c.56-.79,1.46-1.53,1.6-2.39a1.67,1.67,0,0,0-2-2,2.87,2.87,0,0,0-1.94,1.87c-.06.78.9,1.64,1.42,2.47Zm-9.84,0c.53-.81,1.4-1.59,1.5-2.46a1.67,1.67,0,0,0-2.11-1.89,2.9,2.9,0,0,0-1.87,1.95c0,.78,1,1.6,1.53,2.41Zm-10,0c.56-.76,1.45-1.45,1.6-2.28a1.69,1.69,0,0,0-2-2.09,2.89,2.89,0,0,0-2,1.85c-.07.78.91,1.66,1.43,2.49ZM222.83,702.42l-.89,0c-.58.74-1.48,1.42-1.65,2.24-.26,1.26.59,2.14,1.94,2.21a1.79,1.79,0,0,0,2.09-2.05C224.23,704,223.36,703.2,222.83,702.42Zm9.23.39c-1.24-.17-1.94.83-1.88,2s.93,2.21,2.21,1.92c.84-.18,1.52-1.07,2.27-1.64l0-.9A8.11,8.11,0,0,0,232.06,702.81Zm30.22,0a1.65,1.65,0,0,0-2.23,1.73c.05.88.87,1.71,1.35,2.57l1,.08c.6-.77,1.64-1.53,1.66-2.31A2.89,2.89,0,0,0,262.28,702.83Zm9.2-.42c-.53.81-1.4,1.59-1.5,2.45a1.67,1.67,0,0,0,2.11,1.9,2.9,2.9,0,0,0,1.87-2c0-.78-1-1.6-1.53-2.41ZM588.71,243.63c.85-.13,1.59-1,2.39-1.62l0-1c-.82-.51-1.68-1.48-2.46-1.41a2.88,2.88,0,0,0-1.88,1.94A1.69,1.69,0,0,0,588.71,243.63Zm-405.18,0a1.68,1.68,0,0,0,2-2c-.13-.88-1-1.64-1.56-2.45h-.92c-.52.83-1.48,1.68-1.43,2.47A2.87,2.87,0,0,0,183.53,243.62Zm106.34,461a1.67,1.67,0,0,0,1.86,2.14c.88-.1,1.68-.93,2.51-1.43l0-.92c-.8-.56-1.6-1.57-2.39-1.56A2.83,2.83,0,0,0,289.87,704.63Zm11.48-2.23c-.55.76-1.43,1.46-1.56,2.29a1.69,1.69,0,0,0,2,2.07,2.9,2.9,0,0,0,2-1.88c.05-.79-.94-1.65-1.47-2.47Zm9.83,0c-.51.78-1.35,1.51-1.46,2.35a1.7,1.7,0,0,0,2.08,2c.78-.19,1.88-1.25,1.9-2s-1-1.6-1.56-2.41Zm137.71.45a1.92,1.92,0,0,0,.1,3.84c.79,0,1.63-1,2.45-1.52l0-1C450.56,703.73,449.67,702.78,448.89,702.87ZM588.63,223.75c.86-.09,1.64-1,2.45-1.52,0-.32,0-.65,0-1-.8-.54-1.63-1.53-2.41-1.5a2.91,2.91,0,0,0-1.95,1.87A1.68,1.68,0,0,0,588.63,223.75ZM459.37,702.39l-.95,0c-.52.82-1.48,1.69-1.42,2.47a2.91,2.91,0,0,0,1.94,1.87,1.67,1.67,0,0,0,2-2C460.84,703.92,459.93,703.18,459.37,702.39ZM587.85,454.9a1.69,1.69,0,0,0-1.92,2.11,2.91,2.91,0,0,0,1.94,1.88c.78.05,1.61-.94,2.42-1.48v-1C589.48,455.9,588.71,455,587.85,454.9ZM185.56,221.67a2.89,2.89,0,0,0-1.92-1.91c-.78,0-1.62.93-2.44,1.46v1c.8.56,1.56,1.46,2.42,1.57A1.68,1.68,0,0,0,185.56,221.67Zm-5.14,245.75c.82.51,1.69,1.48,2.46,1.41a2.89,2.89,0,0,0,1.89-1.94,1.68,1.68,0,0,0-2-2.05c-.86.13-1.6,1.05-2.39,1.62Zm407.38-2.58a1.7,1.7,0,0,0-1.87,2.16,2.9,2.9,0,0,0,2,1.83c.78,0,1.59-1,2.38-1.54,0-.32,0-.64,0-1C589.46,465.8,588.67,464.92,587.8,464.84Zm-405,9.94c-.86.12-1.6,1.05-2.39,1.61l0,1c.83.51,1.69,1.48,2.47,1.41a2.89,2.89,0,0,0,1.88-1.95A1.68,1.68,0,0,0,182.79,474.78Zm405.05,0a1.69,1.69,0,0,0-1.91,2.12,2.92,2.92,0,0,0,2,1.87c.77,0,1.6-1,2.41-1.5,0-.33,0-.65,0-1C589.47,475.76,588.7,474.87,587.84,474.78Zm-405,9.94c-.87.09-1.65,1-2.47,1.5,0,.32,0,.65,0,1,.8.55,1.62,1.55,2.4,1.52a2.92,2.92,0,0,0,2-1.86A1.69,1.69,0,0,0,182.88,484.72Zm306.48,217.7-1,0c-.57.8-1.61,1.61-1.59,2.4a2.94,2.94,0,0,0,1.88,2,1.7,1.7,0,0,0,2.1-2C490.69,704,489.86,703.21,489.36,702.42Zm99.23-492.59a2.88,2.88,0,0,0-1.86,2,1.69,1.69,0,0,0,2,2c.86-.14,1.59-1.07,2.37-1.65l0-1C590.24,210.7,589.36,209.75,588.59,209.83ZM180.42,497.24c.83.51,1.7,1.48,2.47,1.41a2.93,2.93,0,0,0,1.88-2,1.69,1.69,0,0,0-2-2c-.86.13-1.59,1.06-2.39,1.63ZM499.21,702.41h-.94c-.55.82-1.56,1.66-1.52,2.44a2.91,2.91,0,0,0,1.94,1.92,1.69,1.69,0,0,0,2-2C500.6,703.9,499.74,703.18,499.21,702.41Zm10,0-1,0c-.57.79-1.59,1.59-1.58,2.37a2.9,2.9,0,0,0,1.82,2,1.69,1.69,0,0,0,2.16-1.85C510.58,704,509.73,703.25,509.22,702.42Zm19.82,0h-1c-.55.81-1.55,1.63-1.52,2.41a2.87,2.87,0,0,0,1.86,2,1.67,1.67,0,0,0,2.11-1.9C530.43,704,529.56,703.22,529,702.41Zm56.89-195.77a2.89,2.89,0,0,0,1.89,1.94c.77.06,1.64-.9,2.46-1.41l0-1c-.8-.56-1.54-1.48-2.4-1.61A1.68,1.68,0,0,0,585.93,506.64Zm-47,195.75-.95,0c-.53.83-1.5,1.68-1.44,2.46a2.9,2.9,0,0,0,1.92,1.89,1.67,1.67,0,0,0,2.05-2C540.34,703.94,539.44,703.19,538.89,702.39ZM184.77,516.7a1.69,1.69,0,0,0-1.86-2.17c-.86.07-1.66.94-2.49,1.45l0,1c.8.56,1.6,1.58,2.38,1.56A2.87,2.87,0,0,0,184.77,516.7Zm-2,7.76c-.86.13-1.6,1-2.39,1.62l0,1c.82.52,1.69,1.49,2.46,1.42a2.91,2.91,0,0,0,1.89-2A1.69,1.69,0,0,0,182.79,524.46Zm403.14,2.06a2.91,2.91,0,0,0,1.89,1.94c.77.06,1.64-.9,2.46-1.42,0-.32,0-.64,0-1-.79-.56-1.54-1.48-2.39-1.61A1.69,1.69,0,0,0,585.93,526.52Zm0,10a2.91,2.91,0,0,0,1.92,1.91c.78.06,1.62-.92,2.44-1.45,0-.33,0-.65,0-1-.81-.55-1.56-1.46-2.43-1.57A1.69,1.69,0,0,0,585.93,536.48Zm-403,11.85a2.89,2.89,0,0,0,1.89-1.94,1.68,1.68,0,0,0-2-2c-.86.12-1.6,1-2.39,1.62l0,1C181.24,547.43,182.11,548.4,182.88,548.33Zm405-4a1.68,1.68,0,0,0-2,2,2.9,2.9,0,0,0,1.88,1.94c.78.07,1.65-.89,2.47-1.41l0-1C589.51,545.39,588.77,544.47,587.91,544.34Zm-405,9.94c-.87.07-1.66,1-2.48,1.47,0,.33,0,.65,0,1,.79.56,1.6,1.57,2.38,1.55a2.93,2.93,0,0,0,2-1.84A1.69,1.69,0,0,0,182.9,554.28Zm403,2.06a2.91,2.91,0,0,0,1.9,1.93c.78.06,1.63-.92,2.46-1.44,0-.32,0-.64,0-1-.8-.56-1.55-1.48-2.41-1.6A1.69,1.69,0,0,0,585.93,556.34Zm-403.58,7.47c-.54.82-1.52,1.65-1.49,2.44a2.86,2.86,0,0,0,1.83,2,1.67,1.67,0,0,0,2.09-1.92c-.13-.89-1-1.67-1.51-2.5Zm2.43,32.3c-.14-.89-1-1.66-1.54-2.48h-.92c-.53.83-1.5,1.68-1.46,2.47a2.86,2.86,0,0,0,1.86,2A1.67,1.67,0,0,0,184.78,596.11Zm405.49-10.59c-.83-.5-1.63-1.37-2.5-1.43a1.69,1.69,0,0,0-1.83,2.18,2.9,2.9,0,0,0,2,1.81c.78,0,1.57-1,2.36-1.58Zm-409.86,21c.82.53,1.67,1.51,2.45,1.46a2.93,2.93,0,0,0,1.91-1.92,1.68,1.68,0,0,0-2-2.08c-.86.11-1.61,1-2.42,1.58ZM587.8,604a1.7,1.7,0,0,0-1.87,2.16,2.93,2.93,0,0,0,2,1.84c.78,0,1.59-1,2.38-1.55l0-1C589.46,604.92,588.67,604,587.8,604Zm0,13.93c.78.06,1.63-.91,2.45-1.43,0-.32,0-.65,0-1-.8-.56-1.55-1.47-2.41-1.59a1.68,1.68,0,0,0-2,2.06A2.91,2.91,0,0,0,587.83,617.89ZM588.58,190a2.88,2.88,0,0,0-1.85,2,1.68,1.68,0,0,0,2,2c.85-.14,1.58-1.07,2.36-1.65l0-1C590.23,190.82,589.35,189.87,588.58,190ZM183,189.53c-.5.84-1.44,1.72-1.37,2.5a2.86,2.86,0,0,0,1.92,1.9,1.69,1.69,0,0,0,2-2c-.16-.87-1.06-1.61-1.63-2.41Zm1.74,436.41a1.69,1.69,0,0,0-1.92-2.11c-.86.11-1.63,1-2.44,1.55v1c.8.54,1.64,1.53,2.42,1.49A2.9,2.9,0,0,0,184.77,625.94Zm401.16,0a2.93,2.93,0,0,0,2,1.85c.78,0,1.59-1,2.39-1.53,0-.32,0-.64,0-1-.82-.52-1.6-1.41-2.47-1.49A1.69,1.69,0,0,0,585.93,626ZM185.58,182c-.16-.87-1.06-1.61-1.63-2.4l-.92,0c-.5.84-1.44,1.72-1.37,2.51a2.84,2.84,0,0,0,1.92,1.89A1.69,1.69,0,0,0,185.58,182Zm403-7.89c.86-.1,1.64-1,2.45-1.52l0-1c-.81-.54-1.64-1.54-2.41-1.51a2.9,2.9,0,0,0-2,1.87A1.69,1.69,0,0,0,588.63,174.07Zm-403.07-2.16a2.89,2.89,0,0,0-2-1.84c-.77,0-1.58,1-2.38,1.55,0,.32,0,.65,0,1,.83.52,1.62,1.4,2.48,1.48A1.69,1.69,0,0,0,185.56,171.91Zm403.08-7.78c.87-.1,1.63-1,2.44-1.54v-1c-.81-.54-1.64-1.53-2.42-1.49a2.91,2.91,0,0,0-1.94,1.88A1.68,1.68,0,0,0,588.64,164.13Zm-405.09,0a1.68,1.68,0,0,0,2-2,2.89,2.89,0,0,0-1.85-2c-.77-.08-1.65.87-2.49,1.36l0,1C182,163.05,182.69,164,183.55,164.13Zm405.06-19.88c.86-.08,1.65-1,2.47-1.49,0-.33,0-.65,0-1-.8-.55-1.62-1.55-2.4-1.52a2.86,2.86,0,0,0-2,1.84A1.68,1.68,0,0,0,588.61,144.25Zm-356-98.43h.9c.55-.76,1.44-1.48,1.57-2.3a1.81,1.81,0,0,0-2-2.13c-1.35,0-2.23.88-2,2.15C231.16,44.36,232,45.06,232.59,45.82Zm9.92,0h1c.53-.82,1.51-1.66,1.47-2.44A2.87,2.87,0,0,0,243,41.46,1.67,1.67,0,0,0,241,43.4C241.08,44.26,242,45,242.51,45.82Zm49.73,0,.89,0c.55-.77,1.44-1.5,1.55-2.33a1.8,1.8,0,0,0-2.05-2.1c-1.35,0-2.22.9-2,2.17C290.8,44.38,291.68,45.07,292.24,45.83Zm19.74,0,.95,0c.57-.81,1.59-1.64,1.56-2.42a2.87,2.87,0,0,0-1.9-1.95,1.69,1.69,0,0,0-2.07,2C310.63,44.28,311.47,45,312,45.8Zm10,0h.94c.55-.82,1.56-1.66,1.52-2.45a2.9,2.9,0,0,0-1.94-1.91,1.69,1.69,0,0,0-2,2C320.58,44.32,321.44,45,322,45.81ZM185.57,291.26a2.9,2.9,0,0,0-1.89-1.93c-.78-.07-1.64.89-2.47,1.41,0,.32,0,.64,0,1,.8.57,1.54,1.49,2.4,1.62A1.7,1.7,0,0,0,185.57,291.26Zm401.16-10.14a1.7,1.7,0,0,0,1.77,2.25c.86,0,1.7-.87,2.55-1.34l.06-1c-.76-.6-1.51-1.66-2.29-1.68A2.92,2.92,0,0,0,586.73,281.12Zm-403,2.26a1.69,1.69,0,0,0,1.87-2.16,2.9,2.9,0,0,0-2-1.84c-.78,0-1.59,1-2.39,1.54l0,1C182,282.41,182.83,283.3,183.69,283.38Zm67.95,419c-.54.81-1.42,1.57-1.54,2.43a1.68,1.68,0,0,0,2.08,1.93,2.89,2.89,0,0,0,1.9-1.92c0-.78-1-1.62-1.48-2.43ZM591.07,260.88c-.84-.5-1.72-1.45-2.5-1.37a2.93,2.93,0,0,0-1.84,2,1.68,1.68,0,0,0,2,2c.86-.14,1.58-1.08,2.37-1.66ZM182.32,613.5c-.53.83-1.5,1.67-1.46,2.47a2.87,2.87,0,0,0,1.86,2,1.66,1.66,0,0,0,2.06-1.95c-.14-.88-1-1.65-1.54-2.47Zm99,88.92c-.51.83-1.36,1.63-1.43,2.49a1.68,1.68,0,0,0,2.16,1.85,2.92,2.92,0,0,0,1.81-2c0-.78-1-1.58-1.58-2.37Zm304.58-56.59a2.91,2.91,0,0,0,2,1.88c.78,0,1.6-1,2.41-1.51v-1c-.81-.53-1.59-1.42-2.45-1.52A1.69,1.69,0,0,0,585.93,645.83ZM181.21,202.35c.81.54,1.59,1.43,2.45,1.53a1.69,1.69,0,0,0,1.9-2.12,2.86,2.86,0,0,0-1.95-1.87c-.78,0-1.61,1-2.41,1.5C181.2,201.71,181.2,202,181.21,202.35ZM321.52,702.81c-1.22-.18-1.95.8-1.91,2s.9,2.22,2.2,1.95c.83-.17,1.52-1,2.28-1.61,0-.3,0-.6,0-.9A8.13,8.13,0,0,0,321.52,702.81Zm264.41-47a2.94,2.94,0,0,0,2,1.82c.78,0,1.58-1,2.37-1.56l0-1c-.83-.52-1.63-1.39-2.49-1.46A1.7,1.7,0,0,0,585.93,655.82Zm-401.16,9.89a1.68,1.68,0,0,0-1.9-2.12c-.86.09-1.64,1-2.46,1.51,0,.32,0,.65,0,1,.8.54,1.63,1.54,2.41,1.51A2.94,2.94,0,0,0,184.77,665.71Zm284.69,36.71-.95,0c-.57.8-1.6,1.62-1.57,2.41s1.11,1.77,1.9,2a1.7,1.7,0,0,0,2.08-2C470.81,703.94,470,703.2,469.46,702.42Zm9.9,0-.94,0c-.56.82-1.58,1.65-1.55,2.43s1.14,1.76,1.93,1.94a1.69,1.69,0,0,0,2.05-2C480.74,703.91,479.88,703.18,479.36,702.41ZM588.7,203.88c.86-.13,1.61-1,2.4-1.61l0-1c-.83-.51-1.69-1.48-2.46-1.42a2.92,2.92,0,0,0-1.9,2A1.69,1.69,0,0,0,588.7,203.88ZM519.12,702.41h-1c-.56.8-1.56,1.61-1.54,2.4a2.89,2.89,0,0,0,1.85,2,1.68,1.68,0,0,0,2.13-1.88C520.51,704,519.64,703.23,519.12,702.41Zm69.54-597.9c.86-.11,1.62-1,2.43-1.56v-1c-.82-.54-1.66-1.52-2.43-1.48a2.92,2.92,0,0,0-1.93,1.9A1.69,1.69,0,0,0,588.66,104.51ZM587.94,594a1.69,1.69,0,0,0-2,2,2.92,2.92,0,0,0,1.86,2c.77.07,1.65-.88,2.48-1.38l0-1C589.52,595.09,588.8,594.16,587.94,594Zm.69-360.33c.87-.09,1.64-1,2.46-1.53v-1c-.8-.55-1.63-1.54-2.41-1.5a2.88,2.88,0,0,0-1.95,1.87A1.68,1.68,0,0,0,588.63,233.69Zm-403.06-1.94c-.11-.88-1-1.66-1.49-2.48l-.92,0c-.55.81-1.53,1.64-1.5,2.43a2.85,2.85,0,0,0,1.81,2A1.69,1.69,0,0,0,185.57,231.75Zm360.82,473a2.86,2.86,0,0,0,1.89,1.93c.79.06,1.66-.89,2.5-1.39l0-.92c-.8-.56-1.53-1.44-2.4-1.61A1.68,1.68,0,0,0,546.39,704.79Zm41.43-186.27c.77.06,1.64-.9,2.46-1.41,0-.33,0-.65,0-1-.79-.57-1.53-1.49-2.39-1.61a1.69,1.69,0,0,0-2,2.05A2.89,2.89,0,0,0,587.82,518.52ZM184.77,457a1.69,1.69,0,0,0-2-2.08c-.86.11-1.61,1-2.42,1.58v1c.82.52,1.67,1.5,2.44,1.44A2.91,2.91,0,0,0,184.77,457Zm401.16,29.86a2.9,2.9,0,0,0,2,1.87c.78,0,1.61-1,2.41-1.51v-1c-.82-.53-1.59-1.42-2.46-1.52A1.7,1.7,0,0,0,585.93,486.84Zm1.86,7.81a1.7,1.7,0,0,0-1.86,2.17,2.91,2.91,0,0,0,2,1.82c.77,0,1.58-1,2.37-1.56l0-1C589.45,495.59,588.65,494.72,587.79,494.65ZM183.71,213.82a1.69,1.69,0,0,0,1.85-2.17,2.87,2.87,0,0,0-2-1.82c-.78,0-1.58,1-2.37,1.55l0,1C182,212.87,182.84,213.74,183.71,213.82Zm-.78,294.76a2.91,2.91,0,0,0,1.84-2,1.69,1.69,0,0,0-2-2c-.85.15-1.57,1.09-2.35,1.67,0,.32,0,.65,0,1C181.27,507.72,182.16,508.66,182.93,508.58ZM241.72,702.4c-.55.8-1.44,1.56-1.55,2.42a1.68,1.68,0,0,0,2.07,1.94,2.88,2.88,0,0,0,1.9-1.91c.05-.79-.94-1.63-1.48-2.44ZM588.58,154.19c.87-.07,1.67-.94,2.49-1.46l0-1c-.79-.56-1.59-1.58-2.37-1.56a2.9,2.9,0,0,0-2,1.82A1.69,1.69,0,0,0,588.58,154.19Zm-403-2.08a2.87,2.87,0,0,0-1.91-1.91c-.78,0-1.63.92-2.44,1.45v1c.8.56,1.56,1.47,2.42,1.58A1.68,1.68,0,0,0,185.56,152.11Zm-2.71,432c-.86.1-1.63,1-2.44,1.53,0,.32,0,.65,0,1,.81.54,1.64,1.53,2.42,1.49a2.92,2.92,0,0,0,2-1.88A1.69,1.69,0,0,0,182.85,584.09ZM469.11,45.78l.93.06c.58-.8,1.63-1.6,1.61-2.37a2.93,2.93,0,0,0-1.85-2,1.68,1.68,0,0,0-2.12,1.93C467.75,44.23,468.6,45,469.11,45.78Zm79.45,0,.93.07c.6-.78,1.66-1.55,1.66-2.33a2.93,2.93,0,0,0-1.81-2,1.69,1.69,0,0,0-2.17,1.89C547.24,44.19,548.07,45,548.56,45.77Zm-19.72,0,.89,0c.56-.76,1.45-1.45,1.6-2.28.24-1.27-.63-2.12-2-2.17a1.8,1.8,0,0,0-2.05,2.1C527.41,44.31,528.3,45,528.84,45.81Zm-9,0c.55-.8,1.45-1.54,1.57-2.4a1.67,1.67,0,0,0-2-2,2.84,2.84,0,0,0-1.92,1.89c-.06.78.92,1.63,1.44,2.45Zm66.91,136a1.69,1.69,0,0,0,1.83,2.19c.87-.06,1.68-.92,2.51-1.43,0-.32,0-.65,0-1-.79-.57-1.58-1.6-2.36-1.59A2.91,2.91,0,0,0,586.73,181.81Zm-.8,394.39a2.89,2.89,0,0,0,1.89,1.94c.77.07,1.64-.9,2.46-1.41,0-.32,0-.65,0-1-.79-.56-1.53-1.48-2.39-1.61A1.69,1.69,0,0,0,585.93,576.2ZM181.19,132.69c.79.57,1.53,1.5,2.39,1.63a1.69,1.69,0,0,0,2-2,2.91,2.91,0,0,0-1.89-1.95c-.77-.07-1.64.89-2.47,1.4C181.21,132.05,181.2,132.37,181.19,132.69Zm409.88-10.93c-.83-.5-1.71-1.45-2.49-1.37a2.91,2.91,0,0,0-1.85,2,1.68,1.68,0,0,0,2,2c.85-.14,1.58-1.07,2.36-1.65ZM182.89,538.39a2.89,2.89,0,0,0,1.88-1.95,1.68,1.68,0,0,0-2-2c-.86.13-1.6,1.06-2.39,1.63,0,.32,0,.64,0,1C181.25,537.5,182.12,538.46,182.89,538.39Zm403,27.94a2.91,2.91,0,0,0,2,1.88c.78,0,1.6-1,2.41-1.51v-1c-.81-.53-1.59-1.42-2.45-1.52A1.69,1.69,0,0,0,585.93,566.33ZM185.58,122.45c-.12-.88-1-1.67-1.5-2.49l-.92,0c-.55.81-1.53,1.64-1.5,2.43a2.85,2.85,0,0,0,1.81,2A1.69,1.69,0,0,0,185.58,122.45ZM418.44,354.22a19.25,19.25,0,0,0,.86-2c1.66-5.15-.7-9-5.81-9a26.51,26.51,0,0,1-9.51-1.59,5.4,5.4,0,0,0-2.73-.29,35.89,35.89,0,0,0-18.61,8.23,11.26,11.26,0,0,0-1.37,1.75l.39.65a14.12,14.12,0,0,0,2.45-.83,53.64,53.64,0,0,1,16.15-6.43,7.75,7.75,0,0,1,2.71.11c3.17.5,6.34,1,9.49,1.63a31.35,31.35,0,0,1,3.32,1c-.13,1.76-.23,3.1-.34,4.46a3.44,3.44,0,0,1-.89-.08c-5.22-2.58-10.92-3-16.56-3.73-2.37-.3-3.85,1.17-5.22,2.36,2.75.34,5.49.67,8.23,1.05a31.29,31.29,0,0,0,4.1.68c3.32,0,6.15,1.47,9,2.81,1.84.85,3,4,2.22,6-6.67-3.48-13.64-5.11-21.14-3.36a26.93,26.93,0,0,0,4,1.34c4.92,1.73,9.87,3.42,14.7,5.39,3.81,1.55,6.71-.14,6.33-4.24C420.09,358.18,419.16,356.42,418.44,354.22Zm-25.95-57.39a3.26,3.26,0,0,0,1.75-1.43c3-4.94,1.31-14.16-6.54-16.35-3.31-.92-6.5-.26-9.73.67-6.3,1.82-11.43,5.63-16.73,9,.31,2,1.47,2.64,3.53,1.87s4-2,6.13-2.8c3-1.19,6-2.65,9.07-3.22,7-1.27,11.65,2.48,10.5,9.2-.63.15-1.2.3-1.78.42-4.24.83-8.42.24-12.6-.5a12.87,12.87,0,0,0-2.24,0l-.24.8a15.83,15.83,0,0,0,3.06,1.84A27.77,27.77,0,0,0,392.49,296.83Zm-26.3-29.07A38.91,38.91,0,0,1,388,265.32c6.93,1.07,13.62,2.7,18.87,7.93a14,14,0,0,0,4.51,2.79c2.75,1.14,5.27.13,6-2.7a77,77,0,0,0,1.56-10.51c.07-.67-.66-1.43-1-2.15l-.56.18L413.07,273a39.17,39.17,0,0,1-3.9-3,26.48,26.48,0,0,0-13.4-6.9,46.65,46.65,0,0,0-17.12-1,79.2,79.2,0,0,0-11.11,2.79c-1.16.36-2.06,1.57-3.07,2.39.15.24.3.48.46.72A4.68,4.68,0,0,0,366.19,267.76Zm47.18,60c-.59-.8-.93-1.31-1.32-1.79-2-2.44-4.67-2.69-7.56-2.48-4.28.3-6,2.37-5.45,6.64,0,.15-.11.33-.37,1.06-1.1-1.11-2.49-1.86-2.75-2.9-1.25-4.92,1-8.64,5-11.46-1.4-1.38-2.48-.74-3.49-.18-3.9,2.19-6.26,9.24-4.31,13.29a8.34,8.34,0,0,0,2.68,3.07c2.31,1.59,7.71.84,9.69-1.12,1.11-1.09.72-2.56-.85-3.06-.65-.21-1.33-.32-2-.47l0-.71C406,325.88,409.56,328.67,413.37,327.77Zm-104.06-14.4a6.28,6.28,0,0,0-.59-7.06c-1.28-1.76-2.27-3.72-3.43-5.57s-2.13-3.51-3.38-5.12c-.85-1.1-2-2.13-3.63-1.72,1.16,1.88,2.27,3.5,3.2,5.22,1.72,3.19,3.37,6.43,5,9.69a3,3,0,0,1,.35,2.21c-1.41,3.13-1.65,6,.69,8.87,1.16,1.45.43,2.8-1.38,3.29a13.77,13.77,0,0,1-2.5.1c-.88.07-1.74.23-2.61.35l-.32.93a10.53,10.53,0,0,0,2.61,2.12c2.12.82,5.45-.36,6.88-2.46,2.29-3.36.31-6.11-1.71-8.72C308.78,314.71,309,314,309.31,313.37ZM399,285a7.49,7.49,0,0,0-2.66-8.45c-9.3-7-21.51-4.87-29.87,1.58-.46.35-.61,1.08-.91,1.64l.41.46,2.51-.83c3.63-1.21,7.19-2.71,10.91-3.57,8.16-1.87,13.06.32,17.66,7.36A12.25,12.25,0,0,0,399,285Zm7.41,79.81c-5-1.56-7.84-1.51-8.54.12,3.19,1.18,6.36,2.46,9.59,3.51,3.62,1.17,4.93,4.68,7.49,7.51C415.86,371.41,411.86,366.56,406.38,364.85ZM372.37,94c1.41-2.32,3.17-4.11,6-4.59v16.85c-2.19,2.1-2.18,2.47,0,4.73a59.64,59.64,0,0,0,.8,6.15,3,3,0,0,0,1.82,1.73,2.22,2.22,0,0,0,1.94-.89,6,6,0,0,0,.49-2.66c.06-1.64,0-3.27,0-4.75a3.05,3.05,0,0,1,.54-.38c.51-.15,1-.28,1.52-.44,5.73-1.77,10.23-4.79,11.91-11,1.27-4.76-.42-10.68-4.17-12.69-5-2.71-13.68-3.27-19,1a12.17,12.17,0,0,0-2.82,4.34c-.29.61.21,1.59.35,2.41Zm18.73-4c1.79,1,2.78,4.64,2.22,7.21-1,4.67-4.67,7.91-9.86,8.52-.26-5.82-.51-11.46-.76-17.28A15,15,0,0,1,391.1,90.05Z"/></svg>