<svg xmlns="http://www.w3.org/2000/svg" viewBox="0 0 750 750"><path d="M606.15,48.22a28,28,0,0,0-.44-5.33A21.88,21.88,0,0,0,583.78,25H187.25c-13.12,0-22.67,9.55-22.67,22.69V375.05q0,163.68,0,327.36a22.29,22.29,0,0,0,.15,3.17c1.77,11.87,10.72,19.42,23.07,19.42q197.57,0,395.14,0a26.41,26.41,0,0,0,5.33-.46c10.93-2.21,17.89-11.08,17.89-22.77Q606.17,375,606.15,48.22Zm-4.26,653.46c0,11.54-7.48,19-19,19H187.74c-9.44,0-16.55-5.33-18.48-14a23.17,23.17,0,0,1-.38-4.93q0-163.49,0-327V47.47c0-8.91,5.51-15.94,14-17.83a18.61,18.61,0,0,1,3.95-.35H584a17.68,17.68,0,0,1,17.94,17.65c0,1.26,0,2.52,0,3.78ZM513,287.49l-.33-.6a19.9,19.9,0,0,0-2.9.18c-6.1,1.27-12.17,2.62-18.26,3.89-2.05.43-4.13.71-6.34,1.09-.68-3-2.56-3.55-5-3.55a12.32,12.32,0,0,1-4.64-.94c-3.44-1.47-6.77-3.19-10.33-4.89.54-1.68,1-3.46,1.7-5.18a65.8,65.8,0,0,0,3.93-22c.19-8.28-4.44-14.33-10.48-19.41-2.06-1.74-4.36-3.2-6.64-4.85,0-1.83,0-3.62,0-5.4-.33-12.76-10.56-24.21-23.17-26.38a96.18,96.18,0,0,1-16.56-4,202.32,202.32,0,0,0-22.69-7.14c-10.63-2.52-20.08-1.17-27.75,7.5-3.68-.31-7.5-.78-11.34-.91-8.54-.31-15.59,2.32-19.65,10.57-14.89,1.25-22.48,12.94-18.39,27.43-1.95,4.16-3.67,7.77-5.32,11.43-1.05,2.33-1.68,4.92-3,7-3.8,5.93-3.95,11.8-.36,17.77a7.86,7.86,0,0,1,.87,6.11,17.22,17.22,0,0,1-1.34,4.15q-4.29,8.16-8.78,16.23c-1.89,3.39-1.78,6.35.87,8.63,2.2,1.89,4.66,3.48,7,5.19.79.57,1.59,1.12,2.51,1.76-1.47,5-.17,8.64,4.89,10.31.23,1,.38,1.93.64,2.81a14.72,14.72,0,0,0,1,2.79c1.3,2.41,3.06,2.89,5.45,1.63.56-.29,1.15-.53,2.34-1.09a16.22,16.22,0,0,1,.26,3.86,11.39,11.39,0,0,1-1.56,3.84c-4.23,6.55-.18,17.17,6.45,20.59,4.5,2.32,9.24,3.62,14.19,2.43,5.32-1.28,10.5-3.18,15.74-4.8l2-.64a22.77,22.77,0,0,0-1.17,2.52c-1.82,5.73-3.64,11.45-5.38,17.21-.54,1.79.08,3.26,1.44,4.64,2.48,2.52,4.78,5.23,7.34,8.05-.64,0-1,0-1.27,0a208.68,208.68,0,0,0-42-1.75c-9.46.55-18.91,1.42-28,4.3a23.68,23.68,0,0,0-5.37,2.51,4.47,4.47,0,0,0-2,5.68c.83,2.29,1.87,4.51,2.73,6.79,1.41,3.76,2.75,7.54,4,11.12-3.78,3.5-4.52,7.65-4.71,11.95-.27,6.14,1.64,11.9,3.39,17.66,1.23,4,3.06,7.67,7.09,9.41.43,1.79.69,3.44,1.23,5,3.14,9.07,8.36,16.6,16.92,21.26,3.23,1.76,4.35,4.39,4.94,7.58a19.63,19.63,0,0,1,.3,3.75c0,5.37-.13,10.74-.18,16.1-.08,8.69-3,15.65-11.1,20.06-5.21,2.85-6.31,7.54-3.67,12.9a19.65,19.65,0,0,0,8.34,8.56c12.06,6.66,24.26,6.77,36.47.44a20.15,20.15,0,0,0,9-9c2.67-5.36,1.43-9.79-3.56-13-.62-.39-1.2-.85-1.83-1.2-6.52-3.61-8.8-9.72-9.25-16.59-.4-6.2-.39-12.45-.21-18.67a31.91,31.91,0,0,1,1.64-7.69A4.66,4.66,0,0,1,345,480.4c4.12-2.87,8.39-5.53,11.57-9.56,4.17-5.29,7.23-11.07,8.21-17.82a11,11,0,0,0,6.1-6.85A119.94,119.94,0,0,0,375,430.48c1-5.84.38-11.66-4.21-16.31.72-4.56,3.59-11.94,5.49-13.9.63.67,1.24,1.36,1.91,2Q389.6,413.08,401,423.87c10.34,9.79,20.78,19.47,31,29.39,2.57,2.5,4.43,5.74,6.62,8.64.82,1.1,1.45,2.85,2.51,3.17,1.78.54,2.54-1.46,3.49-2.69a9.46,9.46,0,0,0,.66-1c7-11.6,13.48-23.44,17.72-36.36,2.46-7.5,4.77-15.06,3.54-23.15a7.79,7.79,0,0,1,.1-2c.94-9.55,1.84-19.11,2.85-28.66,1.91-18,4.24-35.91,9.21-53.37,2.15-7.54,4.66-15,7.06-22.62,1.46,0,3.14.35,4.6-.06,7-2,14-4.16,20.89-6.34A6.52,6.52,0,0,0,513,287.49Zm-46.54-28.43a67.08,67.08,0,0,1-4.36,21.32c-6.15,1.39-12.16,2.9-18.25,4a9.66,9.66,0,0,1-5.36-.9,109.45,109.45,0,0,1-9.93-5.38c-10.14-6-13.87-6.32-25-1.62.38-2.78.71-5.23,1.05-7.73a24.41,24.41,0,0,1,17-1.88,163.31,163.31,0,0,0,19.08,3.53c7.55.79,14.55-1.48,20.72-5.94a25.38,25.38,0,0,0,3.68-3.85A13.58,13.58,0,0,1,466.45,259.06Zm-12.83-24c3.15,2.51,6.1,4.65,8.3,7.65.86,1.17,1.5,2.5,2.37,3.67,2.23,3,2.21,6.09.39,9.26a18.08,18.08,0,0,1-6.68,7.15A33.46,33.46,0,0,1,439.47,267c-.51,0-1-.15-1.58-.23,3.1-1.86,6.14-3.48,9-5.41,5.25-3.57,7.72-8.4,6.84-15C453.23,242.86,453.62,239.19,453.62,235.05Zm-8.06,22.78c-5.91,5.18-12.59,7.61-20.51,5.86-2.58-.57-5.23-.79-7.84-1.24-3.18-.53-6.3-.65-9.5.83a28.23,28.23,0,0,0,2.8-17c13.93,3.73,26.55,2,37.66-7.41.46,3.44,1,6.75,1.32,10.09C449.85,252.6,448.24,255.48,445.56,257.83Zm-.68-20.37c-3.33,2.85-8.17,5.33-11.25,5.55a24.62,24.62,0,0,0,8.87-8.86c2.05-3.67,4.26-7.26,6.22-10.58A13.26,13.26,0,0,1,444.88,237.46Zm1.83-21.78c-2.41,12.68-8.64,22.16-20.95,26.91a17.44,17.44,0,0,1-11.48.74A75.83,75.83,0,0,1,405,240c-3.5-1.58-6.95-1.22-10.48-.47-.63.14-1.25.33-1.88.49l-.39-.54c1.89-1.91,3.7-3.9,5.71-5.68a3.51,3.51,0,0,1,2.56-.58c4.18.63,8.32,1.55,12.5,2.1,11.07,1.43,19.46-5.4,20.48-16.53.56-6-1.43-10.92-6.36-14.53-.35-.26-.67-.56-1.35-1.12C435.33,203.69,441.62,208.63,446.71,215.68Zm-86.08,11.44a4.77,4.77,0,0,1-4.34-1.69,4.46,4.46,0,0,1-.94-4.61c1.1-3.32,4.49-5.56,8.91-5.81a12.11,12.11,0,0,1,7.78,2.4C365.8,217.07,360.65,221.31,360.63,227.12Zm12-6.36-9.81,5.85C362.68,222.51,368.4,219.19,372.61,220.76Zm-7.89,7.66c2.43-1.2,4.76-2.59,7.12-3.91,1.2-.67,2.38-1.37,3.81-2.19a10.13,10.13,0,0,1,.62,7,26.57,26.57,0,0,1-10.14,15c-4.4,3.3-11.32,3.28-15.45,0a15.2,15.2,0,0,1-3.52-4.41c-1-1.64-1.34-3.61-2.27-5.27-4-7.24-6.74-8.77-13.65-7.93-3.26.4-6.5.93-9.63,1.39,2.92-6.44,12.71-10.27,19.53-7.17a52.74,52.74,0,0,1,9.14,5.49C354.81,229.73,359.48,231,364.72,228.42Zm-3.78,21.68a13.87,13.87,0,0,0,9.61-4.65,79.49,79.49,0,0,0,6.85-9c5-7.54,10.65-14.33,19.17-18.19,5.07-2.29,12.21-1.34,15.91,2.4a6.75,6.75,0,0,1,2,6.52,4,4,0,0,1-3,3.28c-1-3.05-2.09-3.8-5.37-3.55a18.4,18.4,0,0,0-11.85,5.93c-5.59,5.75-10.71,11.94-14.15,19.29-1.2,2.57-1.86,5.38-3,8-2.32,5.38-5.55,6.73-11,4.59a18,18,0,0,1-8.66-6.72c-1.7-2.58-3.34-5.19-5.07-7.89C355.58,250.13,358.27,250.28,360.94,250.1Zm46.76-35.66A20.19,20.19,0,0,0,394.38,216a41.23,41.23,0,0,0-7.26,4.43c-2.23,1.63-4.19,3.61-5.84,5.06a79,79,0,0,1,5.3-6.6c6.42-6.57,13.75-11.23,23.51-10.23,6.36.65,11.44,4.83,12.13,10.46.52,4.3-.86,9-5,11.22C419.57,221.86,416.17,216.46,407.7,214.44Zm-5.37-19.8a92.76,92.76,0,0,1,11.23,5,125.16,125.16,0,0,1,12.77,8.67c2.28,1.73,3.26,4.47,3.43,7.36.27,4.75-.78,9.11-4.13,12.66a28.92,28.92,0,0,1-3.38,2.69l-.4-.43c2.78-2.74,3.64-6.19,4.06-9.9.69-6.12-4.74-12.79-10-14.16-8.35-2.14-16.25-1.1-23.26,4-3.81,2.76-7.17,6.15-10.54,9.08a3,3,0,0,1,.06-.85c.91-3.94,1.55-8,2.83-11.77,2.31-6.86,6.75-11.64,14.31-12.68A6.34,6.34,0,0,1,402.33,194.64Zm-11.85-3.92c1.68.31,3.32.77,5,1.16-7.59,2.59-11.43,8.29-14,15.2-.1-4.74.44-9.31,2.89-13.48C386,190.71,387.19,190.13,390.48,190.72Zm-20.25,2.84c4.1-2.45,9.28-3.79,13.31-3.05a23,23,0,0,0-4.92,14.22c-.13,5,.3,10,.48,14.74-2-1.95-4-3.79-5.87-5.8-3.11-3.38-6.06-6.9-6.77-11.67C365.92,198.41,366.91,195.54,370.23,193.56Zm-6.39,5.89c-.27,4.32,1.12,8.11,3.64,11.84l-6.39.3c-4-6.17-8.84-11.17-16.57-12.27C346.68,197.13,355.57,198.19,363.84,199.45Zm-23.63,2.69a14,14,0,0,1,9.34,2,25.82,25.82,0,0,1,8.46,8.61l-2.57,1.58c-5.56-5.25-11.94-8.54-19.83-8.76A5.66,5.66,0,0,1,340.21,202.14Zm-20.94,14.17c2.9-4.43,7.37-6.19,12.35-6.51,7.18-.45,13.67,1.9,19.67,5.71a13.6,13.6,0,0,1,1.53,1.28c-.62,1.83-1.16,3.44-1.8,5.35-5.89-4.62-12.52-7.08-20-5.17s-12.26,6.9-14.14,15a5.73,5.73,0,0,1-.65-1.21A20.38,20.38,0,0,1,319.27,216.31Zm21.9,137.61a18,18,0,0,1-5.86.52c8-3.13,12.87-9.63,18-15.84,1.18-1.42,2.47-2.77,3.59-4.24,5.43-7.13,12.85-11.77,20.36-16.27,5-3,5.58-8.08,6.77-12.91l-.53-.35a7,7,0,0,0-1.22,1.52,22.23,22.23,0,0,1-11,11.75c-10.11,5-16.82,13.55-23.59,22.06-3,3.8-6.26,7.4-10.66,9.68-2.74,1.41-5.6,2.35-8.78,1.44A9.45,9.45,0,0,1,322,338.59c.69-1.71,1.49-3.39,2.17-5.12a7.29,7.29,0,0,0-.08-6c-1.28-2.76-3.64-3.62-6.4-2.35l-1.51.64c-.63-1.61-1.21-3.12-1.84-4.76a12.22,12.22,0,0,1,7.64-1.33,12.84,12.84,0,0,0,8.42-1.6,11.11,11.11,0,0,0,1.64-1.38c-.07-.16-.15-.31-.22-.47-2.53-.11-5.08,0-7.57-.38a15.91,15.91,0,0,0-8.57.88c-1,.42-2,1-3.33,1.58l-3.12-2.4c.14-1.06.24-2,.38-2.87.51-3.14-.09-4.42-2.81-6.11-2.3-1.43-4.59-2.88-6.85-4.37-2.56-1.69-2.65-2.78-1.13-5.41q4.63-8.09,9-16.33a21.6,21.6,0,0,0,1.73-5.06,10.89,10.89,0,0,0-1.57-8.9c-2.94-4.47-3.18-9.05.36-13.42a21.76,21.76,0,0,0,3.9-8.36c2.13-7.79,6.87-13.19,15.06-15a41,41,0,0,1,7.18-1.11,4.45,4.45,0,0,1,3.19,1.64,36.32,36.32,0,0,1,4.45,7.19c2.73,6.25,2.61,6.3,6.56,9.81,1.9,8.23,5.72,14.86,12.85,19.28a16.18,16.18,0,0,0,8.86,2.49,8.26,8.26,0,0,0,7.79-4.61,54.59,54.59,0,0,0,3.11-7.91c2.32-7.19,8.88-14.07,16.7-14.44,5.65-.27,9.55,2.36,9,8.89a27.76,27.76,0,0,1-3.64,11,31.36,31.36,0,0,0-4,13.61,17.16,17.16,0,0,1-3,8.51A7.78,7.78,0,0,1,391,288l-4.54-4.37c-.44,1.12-.85,1.68-.83,2.23a5.61,5.61,0,0,0,7.51,5.31,12.4,12.4,0,0,0,7.45-5.9,13.79,13.79,0,0,1,6.25-5.57c5.93-3,11.57-2.57,17.17.84,3.17,1.92,6.45,3.65,9.68,5.46.33.18.63.39,1.11.68a6,6,0,0,1-.84.46c-18.14,6-31.84,18.08-43.79,32.45a11.21,11.21,0,0,0-2.52,6.56c-.8,8.83,1.45,17.25,2.48,25.84.05.46.15.91.19,1.37,0,.11-.08.22,0,.07a45.56,45.56,0,0,1-5.11-4.74c-3.72-4.63-8.74-4.92-14-4.74-4.29.15-8.05,1.91-11.93,3.47C353.3,349.77,347.24,351.88,341.17,353.92ZM372.77,376c-2-1.31-3.72-2.43-4.36-4.81a53.8,53.8,0,0,0-2.54-6.67c-.45-1.07-1-2.52-2.51-1.85s-.68,1.91-.4,3a1,1,0,0,1-.15,1l-4.27-6.09c.87-1.83,1.66-3.48,2.56-5.39a30.24,30.24,0,0,0,2.59,3.72c3.3,3.43,6.62,6.83,10.07,10.09,6.25,5.91,12.78,11.53,18.85,17.61a155,155,0,0,1,12.94,14.75c2.3,3,3.66,6.68,5.45,10.05l-.5.27c-2.4-2.55-4.89-5-7.15-7.69a14.13,14.13,0,0,1-1.78-3.73,22.81,22.81,0,0,0-1.28-3.32,4.27,4.27,0,0,0-2.2-1.86c-.39-.1-1.16,1.19-1.87,2-2.15-1.64-4.62-3.44-5.55-6.69A26.61,26.61,0,0,0,388.8,386c-.61-1.22-1.56-1.78-3.11-.83v3.36c-3.1-3.65-7.24-5.72-8.54-10.31a16.85,16.85,0,0,0-1.54-4.06c-.4-.68-1.47-1-2.24-1.43-.22.79-.46,1.58-.66,2.38A4.36,4.36,0,0,0,372.77,376Zm27.69,13.39c-1.19-1.3-2.4-2.59-3.56-3.91a167.37,167.37,0,0,0-22-20.93,55,55,0,0,1-12.27-13.2,14.8,14.8,0,0,1,2.51-2,15.75,15.75,0,0,1,3.59-1.11c5.22-1.1,9.72,0,13.65,3.88a52.51,52.51,0,0,1,12.28,19.26c2,5.28,3.7,10.63,5.54,15.95A3.82,3.82,0,0,1,400.46,389.43Zm-113.79,9.93,8,3.53c.19.64.43,1.42.78,2.62C291.59,404.38,288.11,403.59,286.67,399.36Zm6.25,47.77-.94.65c-.22-.55-.39-1.12-.65-1.65-2.53-5.29-3.51-11-4.75-16.63l.62-.19,4.26,15.43.69-.08,2.31-7.86.51.13Zm2.68,1.51c.3-5.57.59-10.88.83-16.19,0-.29-.46-.59-.77-.95-2.73.32-2.15,3-3.43,4.62a30.07,30.07,0,0,0-.84-4,57.44,57.44,0,0,0-2.87-7.09c-1.17-2.28.2-7,3.09-8.18,1.13,1.44,2.67,2.86,3.54,4.61,4.08,8.21,4.13,16.83,2.13,25.59C297,448.15,296.67,449.22,295.6,448.64Zm16.71,25.86-3.86-3.25.32-.39C310.16,471.81,312.48,471.6,312.31,474.5Zm2.64-1.17,4.41,1.19c.33,1.2.63,2.27,1,3.55C316.69,477.48,315.72,476.65,315,473.33Zm14.6,11.27c3.17,0,6.34-1,9.67-1.59-2.56,8.54-1,17.31-2.21,25.83-3.51,2.41-11.62,2.42-15.24,0-1.28-8.56.4-17.37-2.21-25.83C323.05,483.62,326.3,484.6,329.55,484.6ZM321.34,475l6.94.73c-.09,1.35-.17,2.53-.25,3.9l-4.21-.44C323.11,478,322.37,476.77,321.34,475Zm9.91,4.45v-3.78l6.13-.68L335,479.25Zm-24.87,52.07c.61,1.73,1.22,3.42,1.94,5.45l-1.47,1.32C304.14,536.26,304,533.92,306.38,531.56Zm5.75,12.19-4.31-3.4,1.81-2.13,4.38,2.83C313.42,541.89,312.88,542.66,312.13,543.75Zm7.92,3.14-5.6-2,1.39-2.92,5.19,1.48Zm7.93,1.23-5.61-.75c.22-1.24.4-2.25.59-3.27h5Zm3.4-.08V544.1h4.39c.19.93.4,1.93.67,3.24Zm7.36-1.13c-.4-1.4-.67-2.31-1-3.4l5.12-1.6,1.5,2.9Zm7.94-3.11-1.91-2.73,4.35-2.82,1.84,2Zm5.73-12.09c2.33,1.92,2.25,4.08-.35,6.64l-1.6-1.36C351.15,535.11,351.78,533.41,352.41,531.71Zm-5.3-3.8c2.78,2.11,3,4.89.48,7.45a14.31,14.31,0,0,1-4.83,3.31,34.42,34.42,0,0,1-28.12-.66,12.39,12.39,0,0,1-4.24-3.73,4.14,4.14,0,0,1,.94-6.1c5.15-3.84,8.68-8.67,9.52-15.44a18.58,18.58,0,0,0,16.72.14,2.32,2.32,0,0,1,.39.66C339,519.6,342.26,524.21,347.11,527.91ZM338.53,478c.15-.61.28-1.16.41-1.71s.27-1,.47-1.75l4.48-1.27C343,476.7,342,477.58,338.53,478Zm8-3.52-.41-.27c.15-.58.3-1.16.44-1.73l3.45-1.65.32.44Zm3.55-7.13c-13.7,7.62-27.57,7.5-41.34,0a25,25,0,0,1-11.21-14.16c3.76-1.34,4-4.72,4.46-8.06,1.16-9,.25-17.71-3.86-25.93-1.25-2.49-2.83-4.68-5.86-5-.61-2.46-1.19-4.81-1.79-7.25,26,8.32,51.84,8.24,77.88,0-.57,2.32-1.16,4.71-1.79,7.22-3.08.34-4.64,2.59-5.9,5.17-4.55,9.3-5.12,19.06-3.23,29.08a6,6,0,0,0,4.05,4.76A23.9,23.9,0,0,1,350,467.37Zm-52.88-63.91,9.53,2.45,1,2.68a47.68,47.68,0,0,1-9.46-2.16Zm12.52,3,7.56.35.8,3-7.33-.82C310.38,408.18,310.08,407.42,309.68,406.45Zm9.86.7H328c-.08,1.28-.14,2.24-.21,3.25h-7C320.35,409.28,320,408.34,319.54,407.15Zm11.23.08h8.34l-1,3.06h-7.19C330.88,409.28,330.83,408.39,330.77,407.23Zm10,2.63.67-3,7.62-.39c-.34.93-.61,1.64-.92,2.5Zm10.4-1c.41-1.38.62-2.12.85-2.9l9.59-2.53-1,3.06Zm10.41,38.34c-1.84-7.76-2-15.46.91-23,1.07-2.8,2.16-5.58,5.33-7.18a6,6,0,0,1,1.52,1.15c1.67,2.26,1.43,5.6.13,8.08a36.41,36.41,0,0,0-2.21,6.51,12.73,12.73,0,0,1-1,2.94,12.83,12.83,0,0,0-1-2.56,11.34,11.34,0,0,0-1.88-1.77l-.71.32a11,11,0,0,0-.52,2.94c.33,4,.81,7.88,1.25,11.82.08.64.24,1.27.37,1.91C362.22,449.15,361.82,448.21,361.58,447.2Zm10.2-18.41c.81,3.47-3.31,16.8-5.84,18.53-.71-3.5-1.39-6.86-2.06-10.22l.44-.13,2.24,7.64.59.11C369.13,439.64,369.85,434.13,371.78,428.79Zm-8.31-23.54c.3-1,.52-1.72.71-2.35l7.75-3.5C371.78,402.48,368,404.57,363.47,405.25Zm6-8c-8,3.16-16.37,4.21-24.8,5.23-14.62,1.77-29.11.75-43.5-1.9A109.62,109.62,0,0,1,288.62,397a29.58,29.58,0,0,1-4-2.1,16.9,16.9,0,0,1,3.19-1.93c4.38-1.25,8.74-2.75,13.22-3.45a178.48,178.48,0,0,1,61.85.92,64.81,64.81,0,0,1,8.68,2.77,11,11,0,0,1,2.11,1.33c0,.23,0,.46,0,.69C372.29,395.93,370.93,396.72,369.49,397.29Zm7.82-.28c.7-4.31-.22-6.06-3.95-7.87a2.56,2.56,0,0,0-.72-.32c-4.93-.91-8.14-4.42-11.52-7.66-2.29-2.2-4.6-4.38-7.21-6.85l3.43-10.68c2,3,3.75,5.73,5.67,8.68a16.46,16.46,0,0,0-3.45.06c-.68.15-1.21.93-1.81,1.43.51.6.94,1.62,1.54,1.72,2.53.43,5.1.58,8.21.88L374,382a38,38,0,0,0-5.32.36c-.79.16-1.41,1.08-2.11,1.66.68.6,1.32,1.63,2.06,1.71,2.95.32,5.92.34,9.25.48l8.43,7.75a9.85,9.85,0,0,0-2.94.07,9.23,9.23,0,0,0-2.29,1.68c.6.75,1.12,2,1.83,2.16,3,.54,6.16.74,9.82,1.12l4.74,5.28c-.65-.05-1.38-.16-2.1-.16a6.87,6.87,0,0,0-2.74.19c-.83.4-1.4,1.33-2.08,2,.69.67,1.31,1.78,2.1,1.92a71.85,71.85,0,0,0,7.5.73c.79.06,1.58,0,2.42,0l4.4,4.77a15.53,15.53,0,0,0-3.48.29c-.67.22-1.59,1-1.62,1.56a2.33,2.33,0,0,0,1.34,1.83c2.16.57,4.43.75,6.61,1.27a6.58,6.58,0,0,1,2.89,1.41,27.8,27.8,0,0,1,6.06,8.27c2,4,4.31,7.86,6.3,11.91Zm62,58.31c-1.75-2.86-3.63-5.65-5.22-8.6-6.53-12-13.19-24-18.78-36.56-6.25-14-12.53-28.06-17.07-42.77-3.71-12.05-5.68-24.49-7.41-36.95-.61-4.34.35-8.05,4-11.11,5.14-4.27,9.62-9.35,14.9-13.43a84.84,84.84,0,0,1,30.07-15.3l13.2-3.51.38.54a15.89,15.89,0,0,1-3,2.36,129.31,129.31,0,0,0-21.59,12.95c-2.93,2.16-5.85,4.36-8.56,6.78-10.15,9-14,20.44-12.79,33.9.95,10.55,3.72,20.68,6.09,30.93,5.59,24.29,13.4,47.89,22.4,71.12.94,2.4,2,4.75,3,7.14.31.75.51,1.55.76,2.33Zm10.13-160.87c-.63,3.75-.39,3.05-6.13,6.94-.15-.94-.29-1.82-.48-2.93Zm-8.42,9.2-3.63,3-.95-3.65,3.79-2.76C440.56,301.51,440.8,302.54,441.06,303.65Zm-5.84,4.55-4.45,4-1.19-4.13,4.53-3.33C434.52,306,434.85,307,435.22,308.2Zm-7.42,100c-.61-2.17-1.2-4.22-1.85-6.51l2.38-.16c.38,2.21.72,4.14,1.07,6.17Zm2.12,2.29c.38,2.19.72,4.12,1.11,6.37C429.26,413.92,428.74,411.34,429.92,410.5Zm-4.7-11.65L423.33,392l3.06.47,1.54,7.18ZM422.17,388c-.62-2.3-1.23-4.58-1.95-7.22l4,.95c.52,2.59,1,5.08,1.56,7.86Zm-2.83-10.86-1.49-6,4.54,1.46c.37,2,.72,3.95,1.13,6.21Zm.26-39.5v8L411.91,341v-9Zm-6.87-9.31,3.13-6.74c1.79,2.15,3.35,4,4.94,5.93-.37,2.2-.76,4.47-1.19,7Zm7.42,20.18c.16,2.74.34,5.69.53,9.06l-7-3.42c-.51-3-1-6.09-1.59-9.44Zm.67,12.27c.32,2.64.64,5.37,1,8.34l-5-1.9-2.12-9.13Zm.79-35.95-3.9-5.75,3.39-3.83,3,5.12Zm1.53-11.62,4-3.37c.59,1.53,1.11,2.9,1.7,4.45l-3.28,4.22Zm21.47,11.37c-.8,13-1.39,26.06-2,39.1-.16,3.63.08,7.28.07,10.92,0,8.15-.19,16.3-.1,24.45.07,7,.62,14,.59,21,0,6.22-.56,12.43-.88,18.65a12.65,12.65,0,0,1-.22,1.35l-.51.08c-2.14-9.41-4.35-18.8-6.39-28.24-2.85-13.2-5.81-26.38-8.24-39.66-1.39-7.59-1.76-15.37-2.72-23.05-.81-6.41-1.32-12.83.08-19.17a26.69,26.69,0,0,1,3.33-7.95,46.79,46.79,0,0,1,11.56-12.46c2.65-2.06,5.07-4.41,8.06-7-.34,1.77-.66,3-.8,4.25C445.82,312.78,445,318.68,444.61,324.61ZM449.43,432c-2.7,1.64-2.76,1.92-1.05,5.17-.77,2.78-1.56,5.69-2.36,8.59l-.38-.06c.22-3.2.42-6.39.65-9.59a154.43,154.43,0,0,0-.32-29.94c-.68-5.39.1-11,.28-16.45.33-9.79.6-19.59,1.09-29.38.62-12.37,1.64-24.72,2.11-37.1.28-7.37.76-14.71,2.67-21.82a79.8,79.8,0,0,1,4.81-12.23c.61-1.35,2-2.34,3.21-3.63l9.09,3.78c-1.54,2.62-2.85,4.87-4.2,7.18a16.15,16.15,0,0,0-1.35-3.16,2.8,2.8,0,0,0-2-1.13c-.48,0-1.26,1-1.3,1.67-.13,2.09-.51,4.38.14,6.26,1.6,4.58.26,8.7-1,12.87l-3.3-3.65c-2,1.5-1.84,3.23-1.51,4.79a19.57,19.57,0,0,0,1.7,4.43,10.81,10.81,0,0,1,.46,7.73c-.3,1.19-.4,2.43-.59,3.65l-.6.41c-.1-.32-.1-.8-.32-.94-.77-.49-1.62-.88-2.44-1.3a8.73,8.73,0,0,0-1.14,2.72,7,7,0,0,0,.76,3c2.71,6.25,2.73,6.24,1.38,13l-3.31-.78a3.88,3.88,0,0,0,.14,4.65c3.49,4.21,3.06,9.09,2.76,14a11.76,11.76,0,0,1-.11,1.18c0,.11-.16.2-.26.32-1.63-.69-1.94-3.56-5-2.68.15,1.12,0,2.41.51,3.37a18.85,18.85,0,0,0,2.94,4,6,6,0,0,1,1.73,5,49.36,49.36,0,0,0,0,4.94,10.61,10.61,0,0,0-1.77-1.46c-.67-.3-1.6-.72-2.12-.48a2.13,2.13,0,0,0-.89,1.92,66.28,66.28,0,0,0,3,6.3c.23.43.79.69,1.41,1.2-.15,2.56-.31,5.24-.48,8.16l-3.14-2.1c-2.07,2.05-1.23,4.28,3.07,8.81,0,1.07,0,2.32,0,3.57s-.17,2.47-.27,3.88l-2.24-2.48c-2.5,1.63-2.11,3.29,1.76,8.47-.13,1-.25,2.08-.41,3.18s-.37,2.22-.58,3.46l-2.25-.91c-1.09,2.54.77,4,1.63,5.95C449.79,429.43,449.61,430.74,449.43,432Zm30.81-132.27c-2.25,6.58-4.77,13.08-6.73,19.74a186.22,186.22,0,0,0-6.64,36.08c-1.54,17.28-2.33,34.62-3.74,51.91a50.28,50.28,0,0,1-2.9,12.52c-2.5,7.11-5.5,14-8.31,21a22.75,22.75,0,0,1-1.06,2.09l-.44-.25,2.88-8.42.63.13c-.27-.58-.54-1.16-.84-1.83.2-1.3.41-2.67.6-3.93,3.92-3.65,4.59-5.2,2.82-6.68l-2.11,1.14c.33-2.49.63-4.73.9-6.81,2.15-2.72,5.15-4.75,5.26-8.47-2.13-1.28-3,.79-4.47,1.12v-7.37c1.7-2.08,3.23-3.89,4.69-5.76.75-1,1.43-2.12.3-3.2s-2.08-.16-3,.48l-1.52,1.08v-6.51c1.86-2.66,3.58-5.09,5.26-7.55.69-1,1.35-2.22.16-3.19s-2.33-.1-3.22.88c-.52.57-1,1.15-1.85,2.07v-4.78c1.58-1.73,3.25-3.52,4.86-5.36a5.87,5.87,0,0,0,1.57-2.25c.2-1,.18-2.42-.4-3a3.5,3.5,0,0,0-3-.24,12.17,12.17,0,0,0-2.89,2.21v-8.44c2-1.89,4-3.58,5.78-5.43a12.39,12.39,0,0,0,2.36-3.38,2.52,2.52,0,0,0-.35-2.3,2.46,2.46,0,0,0-2.31-.25,60.91,60.91,0,0,0-5.1,3.6c.67-3.44-.44-6.8,2.59-9.47a65.32,65.32,0,0,0,6.29-6.89c.79-.94,1.67-2.22.52-3.37s-2.51-.48-3.62.29-2.23,1.82-3.64,3c.48-3.33.92-6.36,1.38-9.49,1.81-1.25,3.64-2.43,5.39-3.73a14.34,14.34,0,0,0,3.37-3c.57-.81.39-2.15.55-3.25-1.11-.09-2.36-.56-3.29-.2a29.79,29.79,0,0,0-4.61,2.83,80.24,80.24,0,0,1,2.14-8.13c.38-1,1.7-1.75,2.67-2.51,2-1.54,4.13-2.87,6-4.56,1.1-1,2.46-2.53,1.12-4.14-1.22-1.45-2.69-.14-4,.31a20.19,20.19,0,0,0-1.88.9l-.41-.34,4-6.86,9.19,1.4C481.65,295.37,481,297.56,480.24,299.73Zm-285.61,372V418.82l-4.14,3.05v253.4c12.5,2.29,20.94,8.41,21.83,22.16a12.54,12.54,0,0,0,1.46.16q58.83,0,117.66,0c3.22,0,4.43-2.48,6.31-4.35H216C213.32,681.67,206.91,673.93,194.63,671.72ZM580.34,421.83l-4.23-3.07v253c-12.27,2.28-18.65,10-21.3,21.62H432.63c2.54,2.37,4.43,4.58,8.12,4.31,5-.37,10.06-.1,15.1-.09l101.17,0a11.5,11.5,0,0,0,1.52-.17c1-13.77,9.34-19.86,21.8-22.14ZM577,76.4v243l4.13-3.05V72.57A23.24,23.24,0,0,1,566,65.93c-4.28-4.15-7-9-6.28-15.38h-4.22q-57.54,0-115.08-.06c-3.32,0-4.58,2.44-6.48,4.36H555.62C558.32,66.46,564.75,74.17,577,76.4ZM191.29,72.57V316.31l4.21,3.11v-243c12.29-2.29,18.65-10,21.32-21.6H339c-2.62-2.48-4.62-4.65-8.4-4.33-4.87.41-9.79.1-14.69.1l-101.37,0c-.51,0-1,.1-1.85.19.72,6.18-1.92,11-6.12,15.08A23.27,23.27,0,0,1,191.29,72.57ZM415,76.15H355.59v49.72H415Zm-4.16,45.35H359.76V80.43h51.12Zm97.66,62.31a8.11,8.11,0,0,0-2.56-.95c-3.53-1.25-7.11-2.42-10.52-4a6.23,6.23,0,0,1-3.59-4.75c-.29-1.76-.54-3.53-.82-5.3-.84-5.15-1.68-10.3-2.6-16-.42.7-.57.85-.59,1-1,6.15-2.07,12.28-2.9,18.44-.42,3.07-1.59,5.61-4.4,6.85-3.29,1.47-6.78,2.52-10.2,3.68a17.87,17.87,0,0,1-2.74.5,3.15,3.15,0,0,0,1.75.75,31.26,31.26,0,0,1,11.21,3.81,8.68,8.68,0,0,1,4.35,6.71c.7,5.25,1.6,10.47,2.44,15.7.18,1.18.45,2.34.69,3.51a3.46,3.46,0,0,0,.78-1.75c1-6.08,2-12.15,2.89-18.24.32-2.2,1.2-4.08,3.07-5.08a78.26,78.26,0,0,1,8.84-3.9A30.52,30.52,0,0,1,508.54,183.81Zm-99.31,339a72.55,72.55,0,0,1,8.42-3.39,35.77,35.77,0,0,1,4.53-1,6.67,6.67,0,0,0-2.63-.91,27.72,27.72,0,0,1-10.7-4,7.58,7.58,0,0,1-3.53-5.27c-.71-4.71-1.46-9.41-2.21-14.11-.34-2.11-.72-4.22-1.09-6.32A182.13,182.13,0,0,0,398.51,507a8.92,8.92,0,0,1-5.21,7.39,31.71,31.71,0,0,1-4.94,2c-2.28.69-4.64,1.14-7,1.69a3.6,3.6,0,0,0,1.67.65,29.84,29.84,0,0,1,11.35,4c1.88,1.22,3.43,2.72,3.81,5.08.3,1.82.56,3.66.86,5.49.81,5.08,1.64,10.16,2.46,15.25l.42,0a5,5,0,0,0,.31-.9c1-6.14,2.06-12.26,2.89-18.42C405.55,526.38,406.71,524.09,409.23,522.83ZM462.51,621c-2-.07-2.23,1.52-2.38,3-.08.79-.15,1.59-.16,2.38-.05,3.71,0,7.42-.16,11.12a76.3,76.3,0,0,1-1.13,11.41c-.63,3.06-1.95,6.1-5.66,7-3.9-1.84-5.08-5.16-5.33-8.86-.46-6.92-.72-13.87-1.11-20.8a9.77,9.77,0,0,0-.65-3.28,2.32,2.32,0,0,0-1.73-1.27,3.51,3.51,0,0,0-1.9,1.38,3,3,0,0,0-.31,1.53,102.63,102.63,0,0,0,.41,23.76,16.2,16.2,0,0,0,3.38,8.36c3.31,4,11.77,5.31,14.75-1.42a27.45,27.45,0,0,0,2.28-6.31c.84-4.81,1.47-9.67,1.86-14.54.28-3.48,0-7,0-10.51C464.63,622.56,464.33,621.07,462.51,621ZM277.93,660.79c1.48.29,2.42-.61,2.85-2.82s.84-4.65,1.26-7h7c.5,2.36,1,4.61,1.46,6.87.41,2,1.34,2.95,2.77,2.66s2-1.54,1.64-3.52c-.64-3.78-1.21-7.58-1.89-11.36q-1.72-9.57-3.57-19.11a22.27,22.27,0,0,0-1.5-4.71c-.3-.67-1.24-1.06-2.3-1.91-1,2.67-2,4.61-2.55,6.65-1.09,3.82-2,7.68-3,11.53-.67,2.68-1.29,5.36-1.89,7.9-1.69.63-4.1-.59-4.41,2-.26,2.25,1.87,2.15,3.51,2.74-.36,2.2-.7,4.28-1.05,6.36S276.49,660.5,277.93,660.79ZM286,631l.45,0c.73,4.87,1.45,9.74,2.21,14.8H282.9C284,640.87,285,636,286,631Zm203.7,3.84c1.33-3.87.84-7.38-1.8-10.4s-6.13-3.63-10-2.91c-1.25.24-2.54.28-4.24.45-1.17,1.23-2.62,2.64-3.92,4.18a4.22,4.22,0,0,0-1,2.3,7.23,7.23,0,0,0,.88,2.43l1.89-1.65c-.21,7.67-.44,15.2-.61,22.73a20.49,20.49,0,0,0,.29,5.32,3.74,3.74,0,0,0,2.33,2.18c1.39.39,2.36-.69,2.64-2.06a15.34,15.34,0,0,0,.13-3c0-2.11,0-4.22,0-6.33l1.15-.52C483.38,645.11,487.59,641,489.72,634.88Zm-13.34-8.69a5.88,5.88,0,0,1,8.79,7.23,17,17,0,0,1-6.28,8.24,22.38,22.38,0,0,1-2.51,1.35ZM260,654.38a11.69,11.69,0,0,0,.4,3.92,2.64,2.64,0,0,0,1.88,1.57,2.82,2.82,0,0,0,2-1.48,8.1,8.1,0,0,0,.59-3.09c.21-3,.35-6.07.52-9.15,1.57-1,3.13-2,4.7-3,5.51-3.41,7.44-8.55,7.08-14.75a7.91,7.91,0,0,0-6.23-7.57,14.13,14.13,0,0,0-12.76,2.61,20.75,20.75,0,0,0-4.58,5.6c-1,1.6-.12,2.85,1.7,3.28.5-3.23,3-4.67,5.67-6.28,0,2.46.08,4.62,0,6.78C260.64,640,260.26,647.2,260,654.38Zm12.31-23.92c-.2,4.7-2.54,7.84-6.85,9.78-.26-5.09-.51-10.06-.75-15C269.08,623.41,272.48,625.76,272.29,630.46Zm105.29,27.11a16.63,16.63,0,0,0,2.77-4.77c2.5-6.54,2.67-13.32,1.55-20.16a11.23,11.23,0,0,0-1.29-2.72l-.41,0a2.58,2.58,0,0,1,0-.39c-.14-3.6-2.43-7-5.22-7.72-2.62-.69-5.3,1-7.54,4.06-3.66,5-4.14,10.86-4.06,16.68.08,5.48,1.28,10.78,5.19,15.05C371.36,660.68,374.88,660.78,377.58,657.57ZM373,656.16c-1.1-1.54-2.1-2.46-2.5-3.6a33.05,33.05,0,0,1,.56-24.18,6.14,6.14,0,0,1,.46-.88c1.74-2.91,3.26-3,5.07-.09.6,1,1.12,2,1.57,2.73,0,1.55-.11,2.91,0,4.25.57,6.14.25,12.16-2.37,17.85A28.1,28.1,0,0,1,373,656.16Zm127.51-31.35c2.32.27,4.15,1.29,5,3.74a6.54,6.54,0,0,0,.89,2,1.61,1.61,0,0,0,2.91-.62,6.88,6.88,0,0,0-2.13-7c-4.43-3.58-9.09-2.86-12.2,1.9a8.82,8.82,0,0,0-1,7.43c.94,3.54,3.19,6.13,5.95,8.45,3.24,2.73,5.17,6.2,4.7,10.61a4.19,4.19,0,0,1-4.48,4.08c-3.06.07-4.26-.88-4.79-3.81a4.77,4.77,0,0,0-.24-1.36c-.43-.74-1-1.9-1.54-2a3.33,3.33,0,0,0-2.45,1.18,4.77,4.77,0,0,0-.83,2.77,7.93,7.93,0,0,0,6.59,7.84c7.56,1.06,12.28-3.11,12.43-10.25a15.77,15.77,0,0,0-6.37-13.45,18.7,18.7,0,0,1-4.23-4.64C497,629,497.69,626.81,500.54,624.81ZM337.44,622c-3.44-.1-6.88-.21-10.31-.27a3.26,3.26,0,0,0-3.58,3,31.4,31.4,0,0,0-.43,4.74c-.05,9.2,0,18.4,0,27.6,0,2.36.78,3.32,3.09,3,4.09-.64,8.16-1.51,12.2-2.44a2.37,2.37,0,0,0,1.45-1.76c-.07-.72-.91-1.88-1.5-1.93a23.67,23.67,0,0,0-5.44.26,45.64,45.64,0,0,0-4.65,1.15v-10.8a19.28,19.28,0,0,0,2.17,0,53.88,53.88,0,0,0,6.85-1,3,3,0,0,0,1.67-2.23c0-.58-1.15-1.48-2-1.76a7.43,7.43,0,0,0-2.94,0c-1.93.17-3.86.41-5.84.63-.35-4.67-.68-9-1-13.41,3.57,0,6.93,0,10.29,0,1.57,0,3-.5,3-2.44S338.93,622,337.44,622Zm-32.62,5.53c1.7-3.63,3.93-3.46,6.06,0,.72,1.14,1.47,2.27,2.2,3.41l1,.06c.31-.79,1-1.72.83-2.34a19.68,19.68,0,0,0-2.61-5.65c-1.94-2.56-5.12-2.86-7.85-1.12a12.36,12.36,0,0,0-5.21,7,41.32,41.32,0,0,0-1.85,16.47,19.49,19.49,0,0,0,2,7c3.05,5.75,10.61,6.53,14.05,1.43a39.76,39.76,0,0,0,3.78-8.24,2,2,0,0,0-1.84-2.71,42.1,42.1,0,0,0-6.73-.33,2.7,2.7,0,0,0-2,1.63,3.06,3.06,0,0,0,1.35,2.27c.82.57,2,.67,3.45,1.12l-3.2,4.73c-3.3-.53-5.23-2.07-5.52-4.9a51.21,51.21,0,0,1-.3-10.27A30.23,30.23,0,0,1,304.82,627.49Zm127.58,1.43a14.58,14.58,0,0,0,1.86,2.31,2.65,2.65,0,0,0,2.2.58c.52-.27.73-1.38.8-2.16a3.72,3.72,0,0,0-.56-1.67c-3.15-6.75-10.93-8-16.25-2.58-4.5,4.62-6,10.45-6.28,16.56.19,5.47,1,10.59,4.88,14.67,5.74,6.08,13.4,3.39,16.92-3a2.86,2.86,0,0,0-.54-2.72c-.6-.44-1.95-.19-2.82.15-.66.26-1.06,1.14-1.6,1.72-3.51,3.78-7.72,3.43-9.95-1.18a26.08,26.08,0,0,1-2.42-8.69A19.13,19.13,0,0,1,422.43,629C425.44,625.11,429.27,625.14,432.4,628.92ZM346.12,50.46c3.16.64,6.37,1,9.75,1.56a13.44,13.44,0,0,0-1.29,3.18c-.17,1.14-.21,2.83.44,3.4a4.07,4.07,0,0,0,3.57.42,14.89,14.89,0,0,0,8.47-9.4c1.77-5.7-3.15-12.79-7-15.55-1.21-.87-2.58-1.5-4-.51s-1.4,2.51-1,3.95a35,35,0,0,0,1.55,3.84l.44,1c-3.74.53-7.41.92-11,1.61-1.7.32-3.82.84-3.76,3.13S344.31,50.09,346.12,50.46Zm11,6.48c.36-3.88,2.31-5.64,6.83-6.28A13.11,13.11,0,0,1,357.13,56.94Zm6.62-13-3.41-.76-2.85-6.49C359.93,37.33,363,41,363.75,43.94Zm1,3.37a37.48,37.48,0,0,1-19.33-.11C348.37,44.94,361.25,45,364.73,47.31Zm-131.54,606a3,3,0,0,0,4-.54,40.23,40.23,0,0,0,5.44-6.46c5.18-8.19-.81-15.86-7.06-18.54a3.87,3.87,0,0,0-3.39.5c-.64.55-.67,2.15-.5,3.21a14.88,14.88,0,0,0,1.31,3.36c-3.41.55-6.68,1-9.9,1.63-1.74.37-3.64,1.13-3.69,3.29s1.93,2.77,3.57,3.08c3.67.7,7.4,1.13,11.14,1.68-.58,1.44-1.39,3.1-1.92,4.85C231.76,650.79,231.75,652.33,233.19,653.32Zm1.56-3.35,2.72-6.23,3.38-.8A11,11,0,0,1,234.75,650Zm6.46-13.84c-4.42,0-5.85-1.56-7-6.07C237.53,631,239.31,633.41,241.21,636.13Zm-18.85,3.59a38.66,38.66,0,0,1,19.37-.22C239,641.79,226.13,642,222.36,639.72Zm205.58,59a6.9,6.9,0,0,0-2.53-1.08c-3.17-.57-6.35-1-9.65-1.52.41-.94.9-1.93,1.28-3,.5-1.34.84-2.73-.44-3.86s-2.63-.77-3.91-.12a15.25,15.25,0,0,0-7.77,8.39,11.16,11.16,0,0,0-.57,4.26c.21,4.76,3,8.2,6.16,11.39a7.12,7.12,0,0,0,2.32,1.5c2.13.91,4.08-.29,3.89-2.58a21.92,21.92,0,0,0-1.39-4.9,13.68,13.68,0,0,0-1-1.92,28.68,28.68,0,0,0,4.38,0,57.57,57.57,0,0,0,8.87-1.89C430.1,702.52,430.17,700.2,427.94,698.7Zm-13.27-7.63c-1.27,4.85-2.7,6.24-6.95,6.29A13.59,13.59,0,0,1,414.67,691.07Zm-1.2,20.5c-2.61-1.78-4.33-4.31-5.93-7.5l3.77.88c.9,2,1.82,4.17,2.74,6.3Zm-6.55-10.77a37.63,37.63,0,0,1,19.34.1C423.29,703.16,410.41,703.08,406.92,700.8Zm-49.67-12c-2.59-.94-4.4.86-3.68,3.52a38.32,38.32,0,0,0,1.53,3.87c-2.64.3-5.21.46-7.71.93a13.59,13.59,0,0,0-4.61,1.68c-2.1,1.3-1.91,3.35.28,4.48a10.42,10.42,0,0,0,3.17,1.11c3.32.48,6.65.81,9.94,1.19-.62,1.57-1.43,3.29-2,5.1-.43,1.44-.43,3.24,1.16,3.81a4.36,4.36,0,0,0,3.77-.54,35.32,35.32,0,0,0,5.88-7.11C369.83,698.72,363,690.94,357.25,688.84Zm-.45,22.34q1.36-3.1,2.72-6.22l3.4-.8C362.34,706.73,359.55,710.27,356.8,711.18Zm-12.32-9.57c3.4-2.48,15.76-2.63,19.47-.33C357.39,703.12,351.17,702.88,344.48,701.61Zm14.39-4.93L356,691.74l.61-.44c3,1.08,4.94,3.28,6.71,6.28ZM172.62,340.28a41.74,41.74,0,0,0,7,5.64c8.14,4.77,15.92-2.05,18-7.81.93-2.58-.86-4.38-3.51-3.66a35.93,35.93,0,0,0-4,1.56,57.63,57.63,0,0,0-.52-5.75A27.21,27.21,0,0,0,188,324.2a3.6,3.6,0,0,0-2.69-1.79c-.79,0-1.91,1.13-2.31,2a17.2,17.2,0,0,0-1.37,4.94c-.34,2.57-.41,5.19-.59,7.79a52.88,52.88,0,0,0-4.94-2c-1.48-.45-3.1-.54-4.13,1A3.09,3.09,0,0,0,172.62,340.28Zm17.2-.57,4.92-2.88.44.61c-1,3-3.31,4.89-6.27,6.78C189.24,342.58,189.5,341.32,189.82,339.71Zm-4.6-13.91a29.71,29.71,0,0,1,.24,18.62A32.1,32.1,0,0,1,185.22,325.8Zm-3.66,14.6.75,3.28c-2.24-.2-6.2-3.27-7.49-6.18Zm.78,66c.33,1.74.83,4,3.25,3.85,2.22-.12,2.92-2.14,3.28-4,.63-3.16,1-6.36,1.54-9.68a11.71,11.71,0,0,0,3.08,1.26,5.7,5.7,0,0,0,3.62-.45c1.32-.89.9-2.5.25-3.8a15.07,15.07,0,0,0-8.49-7.88,11.65,11.65,0,0,0-4.45-.47c-4.91.27-8.36,3.22-11.54,6.59a5.89,5.89,0,0,0-1.11,1.85c-.85,2.14.35,4.07,2.64,3.87a22.77,22.77,0,0,0,4.88-1.41,9.48,9.48,0,0,0,1.48-.76C181.28,399.17,181.65,402.83,182.34,406.43ZM195.13,396l-5.25-3c-.23-1-.39-1.64-.52-2.29s-.22-1.25-.35-2A10.42,10.42,0,0,1,195.13,396Zm-9.7-7.84c2,3.19,2,14.72-.11,18.86C183.33,403.48,183.48,391.41,185.43,388.14ZM175.09,395c.62-2.44,4.31-5.5,7.24-6.27-.24,1.07-.46,2.08-.75,3.38Zm413.48-68.69c-.33-1.74-.76-3.81-3.14-4.07-1.47-.16-2.88,1.34-3.45,4-.66,3.14-1,6.35-1.53,9.62a33.87,33.87,0,0,0-3.86-1.51c-2.53-.66-4.31,1.14-3.39,3.6a16.78,16.78,0,0,0,2.86,4.69c6.23,7.42,19.24,5.3,23-3.68a3.78,3.78,0,0,0,.21-.56,2.55,2.55,0,0,0-2.41-3.48,12.74,12.74,0,0,0-3.83.78,22,22,0,0,0-2.94,1.37C589.57,333.49,589.23,329.89,588.57,326.35Zm-12.91,11.08.44-.6,4.92,2.88,1,4.61C579,342.23,576.63,340.41,575.66,337.43Zm10.06,7.39c-2.36-3.38-2.27-15.8.14-19.43A40.79,40.79,0,0,1,585.72,344.82Zm9.89-7.15.33.58c-1.8,2.6-4.32,4.34-7.49,5.93.32-1.43.55-2.49.84-3.77ZM414.32,59.2a3.51,3.51,0,0,0,3.05-.52,3.89,3.89,0,0,0,.63-3,22.09,22.09,0,0,0-1.56-4.06,17.48,17.48,0,0,0,3.18,0,82,82,0,0,0,8.83-2A3.19,3.19,0,0,0,430.12,47c-.05-.85-1.17-1.72-2-2.39a4.28,4.28,0,0,0-2-.73c-3.52-.51-7.05-1-10.63-1.42.62-1.52,1.42-3.19,1.95-4.94.43-1.42.41-3-1-3.94a3,3,0,0,0-4,.59A41.08,41.08,0,0,0,406.76,41C401.78,49.2,408.38,57,414.32,59.2Zm-.42-22.87.9.54-2.67,6.29-3.31.76-.53-.51Zm12.82,10.54a30.19,30.19,0,0,1-18.68.19A31.8,31.8,0,0,1,426.72,46.87Zm-11.41,9.88c-2.73-.75-5-2.79-6.66-5.91C412.5,50.63,414.42,52.3,415.31,56.75ZM598.21,392.3a40.41,40.41,0,0,0-7.06-5.63c-8.15-4.74-15.92,2.1-18,7.85-.92,2.57.9,4.36,3.55,3.63a40.1,40.1,0,0,0,4-1.58,19.83,19.83,0,0,0,.14,2.65,72.23,72.23,0,0,0,1.74,8.69,3.77,3.77,0,0,0,2.78,2.26c.91,0,2.32-1.37,2.61-2.39a68.73,68.73,0,0,0,1.63-8.72,26.87,26.87,0,0,0,0-3.71c1.81.77,3.34,1.57,5,2.07s3.22.63,4.3-1A3.1,3.1,0,0,0,598.21,392.3Zm-22.58,3.13c1-3.31,3.41-5.05,6.11-7C581.76,393.27,579.1,394.8,575.63,395.43Zm10,11.39a30.44,30.44,0,0,1-.24-18.69C587.5,394.32,587.19,400.56,585.62,406.82Zm9.93-11.9-6.23-2.72c-.29-1.21-.54-2.28-.88-3.75a18.39,18.39,0,0,1,7.46,5.87C595.79,394.52,595.67,394.72,595.55,394.92ZM534.23,642.84a53.52,53.52,0,0,0,8.65-1.89c2.51-.86,2.57-3.17.35-4.66a6.81,6.81,0,0,0-2.52-1.09c-3.17-.57-6.35-1-9.67-1.52.44-1,.92-1.93,1.28-2.91.49-1.33.86-2.73-.39-3.86s-2.75-.8-4.08-.11a15.14,15.14,0,0,0-7.53,8.08,12,12,0,0,0-.59,4.81c.32,5,3.33,8.6,6.92,11.76a5.24,5.24,0,0,0,1.72.94c2,.68,3.82-.48,3.63-2.55a25.19,25.19,0,0,0-1.5-5.25,12.61,12.61,0,0,0-.84-1.71A29.93,29.93,0,0,0,534.23,642.84Zm-4.6-14c.31,3.27-2.09,5.53-6.77,6.21C524.67,632.19,526.6,630,529.63,628.84Zm-.9,20.35a19.41,19.41,0,0,1-5.88-7.5l3.74.81,2.75,6.32Zm-6.14-10.54a30.24,30.24,0,0,1,18.65.14A31.54,31.54,0,0,1,522.59,638.65ZM580,690.23c1.43-.6,3.12-1.19,4.69-2,1.4-.72,2.55-1.81,2.22-3.61a3,3,0,0,0-3.41-2.44,40.91,40.91,0,0,0-8.78,1c-8.93,2.37-9.92,12.13-7.25,18.18a3.52,3.52,0,0,0,2.5,1.83,3.73,3.73,0,0,0,2.6-1.65,18.87,18.87,0,0,0,1.6-3.75c2.63,1.92,5.17,3.92,7.86,5.69,1.61,1,3.63,2,5.3.41s.4-3.59-.62-5C584.57,695.87,582.19,693.06,580,690.23Zm3.41-5c.07.21.13.42.2.63l-6.51,2.69-3.28-2.13C577.22,685.31,580.24,684.63,583.38,685.19Zm-13.54,15.46c-1.56-3.15-1.34-6.17-.72-9.27C572.11,694,572.42,697.08,569.84,700.65Zm1.61-12.25a31.56,31.56,0,0,1,13.62,13A30.22,30.22,0,0,1,571.45,688.4ZM186.39,51.51c1.76,2.13,3.63,4.17,5.47,6.27-1.61.69-3.35,1.31-5,2.15-1.4.74-2.49,1.88-2.09,3.67a3,3,0,0,0,3.3,2.32,44.07,44.07,0,0,0,9-1.06c8.93-2.36,9.82-12.38,7.13-18.25-1.15-2.49-3.69-2.54-5.07-.16a27.81,27.81,0,0,0-1.59,3.77c-2.86-2-5.71-4.12-8.69-6-1.34-.85-3.07-1.34-4.45-.09s-.58,3,.12,4.37A16,16,0,0,0,186.39,51.51Zm1.91,11.4c-.06-.23-.13-.46-.19-.68l6.43-2.61,3.31,2A18.48,18.48,0,0,1,188.3,62.91Zm13.56-15.33c1.49,3,1.3,6,.62,9.32C198.81,53.4,199.87,50.15,201.86,47.58Zm-1.58,12.58c-6-3.28-10.38-7.83-14.17-13.44C190.11,47.18,199.22,55.84,200.28,60.16Zm384.2,5.71a4.61,4.61,0,0,0,3.08-2.26c.75-1.61-.54-2.91-1.95-3.65-1.62-.85-3.37-1.47-4.82-2.1,2.21-2.83,4.59-5.65,6.7-8.65,1-1.45,2.3-3.37.59-5s-3.57-.67-5.12.35c-2.75,1.81-5.36,3.82-8.06,5.77a12.17,12.17,0,0,0-1.29-3.25c-.71-.95-2-2.16-2.89-2.11A4,4,0,0,0,568,47.3a17.79,17.79,0,0,0-1,5.8c-.07,3.25.72,6.44,3.14,8.72C574.14,65.61,579.19,66.51,584.48,65.87Zm-.11-3.59-.19.62c-3.17.61-6.21-.12-9.63-1.17l3.31-2.13Zm1.47-15.58c-.78,3.47-9.33,11.76-13.51,13.11C572.84,56.3,581.82,47.58,585.84,46.7Zm-15.13,1c2.18,3.19,2.67,5.79-.75,9.14C569.13,51.94,569.32,49.78,570.71,47.74ZM201.41,686.17c-4-3.53-8.84-4.46-14-4-1.55.13-3.07.62-3.42,2.46s.78,2.9,2.19,3.62c1.61.83,3.34,1.43,5.13,2.18-.46.42-.89.81-1.31,1.21a26.16,26.16,0,0,0-6.78,9.19c-1.05,2.64.27,4.22,3.06,3.7a7.22,7.22,0,0,0,2.73-1.09c2.6-1.79,5.12-3.7,7.74-5.62a13.89,13.89,0,0,0,1.36,3.41c.66.91,1.86,2,2.79,2a3.88,3.88,0,0,0,2.66-2.15,14.57,14.57,0,0,0-.24-12.1A8.2,8.2,0,0,0,201.41,686.17Zm-14.1-.28c.06-.23.11-.47.17-.7,3.17-.59,6.22.19,9.69,1.17l-3.37,2.12Zm-1.64,15.36A38.12,38.12,0,0,1,199.31,688C199,691.61,190,700.37,185.67,701.25Zm15.35-.92c-2.43-2.1-2.27-5.41.57-9.12C202.57,695.29,202.38,698,201,700.33Zm200.41-78c-4.71-1.63-9.22-1.21-14.15,0a24.66,24.66,0,0,0-.56,3.58q-.06,14.5,0,29a11.84,11.84,0,0,0,.31,2.35,2.08,2.08,0,0,0,2.47,1.75c1.9-.1,2.46-1,2.44-3.51,0-4.41,0-8.82,0-13.38,1.65,0,3,.11,4.26,0,1.55-.16,2.71-1,2.53-2.71s-1.53-2.15-3.07-2.07l-3.8.21c-.21-4.06-.41-7.84-.61-11.68,3.62-.34,7.1.41,10.31-1.59C401.5,623.73,401.46,623.12,401.43,622.38ZM378.34,57.27a2.74,2.74,0,0,0,2.28.51c.48-.22.83-1.4.76-2.1A6.48,6.48,0,0,1,386,48.5c3.72.93,5.5,3.5,5,7.31-.17,1.29.21,2.24,1.54,2.17a3.73,3.73,0,0,0,2.15-1.21,10.94,10.94,0,0,0,2.27-12,11.47,11.47,0,0,0-10.45-7.33c-4.39-.27-9,2.91-10.85,7.09C373.73,49,374.88,54.56,378.34,57.27Zm2.72-14a7.22,7.22,0,0,1,9.14-.76c3.18,2,4.33,4.8,3.32,8.46-4.45-7.68-10.13-7.68-14.5-.18C377.89,48.4,378.72,45.33,381.06,43.28Zm12.28,647.59a3.35,3.35,0,0,0-2.48-.47c-.34.07-.69,1.32-.61,2,.4,3.59-1.35,6.2-5.11,7.25-3.53-1.44-4.78-3.63-4.46-7.5a2.06,2.06,0,0,0-.61-1.69,2.68,2.68,0,0,0-2,0,4.23,4.23,0,0,0-1.47,1.28,11.3,11.3,0,0,0-1.5,12.44c2,3.93,6.76,6.77,10.86,6.47a12,12,0,0,0,10.47-8.18C397.74,698.33,396.46,693.29,393.34,690.87Zm-3.62,14.52A7.52,7.52,0,0,1,378.19,697c1.38,3.48,3.76,5.79,7.19,5.9,3.59.11,5.8-2.44,7.31-6C393.68,700.71,392.64,703.42,389.72,705.39Zm187-334.28a2.44,2.44,0,0,0-2,.69c-.29.51,0,1.45.25,2.16.1.34.5.6.79.87a11.29,11.29,0,0,0,13.08,1.62,11.43,11.43,0,0,0,5.85-12.18,11.57,11.57,0,0,0-10-9.42,10.57,10.57,0,0,0-9.59,3.67,2.72,2.72,0,0,0-.39,2.3c.16.42,1.32.74,2,.67,3.43-.36,5.91,1.12,7.28,4.55C582.91,369.83,580.37,371.51,576.72,371.11Zm4.94-12c2.38-1.13,5.47-.3,7.53,2a7.24,7.24,0,0,1,.76,9.14,7,7,0,0,1-8.49,3.33C589.5,369.59,588.63,362.58,581.66,359.1Zm-387.32,2.5c1.18.13,2.1-.28,2-1.51a3.84,3.84,0,0,0-1.16-2.17,11.12,11.12,0,0,0-11.95-2.35c-4.31,1.73-7.55,6.27-7.37,10.86a11.39,11.39,0,0,0,7,10.44c4.34,2,10,.82,12.69-2.65a3.32,3.32,0,0,0,.5-2.47c-.07-.34-1.32-.7-2-.63-3.63.4-6.18-1.3-7.26-5.09C188.27,362.51,190.51,361.19,194.34,361.6Zm-5.17,11.87c-2.23,1.16-5.46.34-7.32-1.87-2.69-3.18-2.94-6.7-.7-9.81,2-2.78,5.29-3.89,8.06-2.72C181.69,363,181.88,370,189.17,373.47ZM469.41,491c1.69-.58,3.42-1,5.32-1.58-2.31-.72-4.42-1.25-6.43-2a6.12,6.12,0,0,1-4.37-5.79,46.12,46.12,0,0,0-.79-5.3c-.33-2-.68-4-1-6l-.51.07c-.62,3.71-1.44,7.41-1.8,11.14-.32,3.36-2.19,5.12-5.07,6.15-1.43.51-2.93.81-4.39,1.22-.38.11-.75.28-1,.39,2.52,1,5,1.81,7.41,2.87a4.94,4.94,0,0,1,2.9,4.2c.56,4,1.31,8,2,12.05a1.79,1.79,0,0,0,.75-1.19,84.41,84.41,0,0,0,1.44-9.42C464,494,466.18,492.14,469.41,491ZM279.54,351.47c-2.32-.71-4.43-1.24-6.44-2a6.2,6.2,0,0,1-4.39-5.77c-.16-2.44-.73-4.85-1.12-7.26-.21-1.34-.42-2.68-.64-4l-.54.08c-.63,3.71-1.46,7.4-1.82,11.14-.32,3.36-2.2,5.11-5.09,6.13-1.43.5-2.93.81-4.39,1.22-.37.11-.73.28-1.08.41,2.47.9,4.86,1.66,7.15,2.64a5.33,5.33,0,0,1,3.27,4.6c.52,4,1.3,7.91,2,11.86a2.21,2.21,0,0,0,.77-1.39,83.16,83.16,0,0,0,1.41-9.22c.2-3.83,2.36-5.71,5.61-6.82C275.9,352.48,277.63,352,279.54,351.47ZM425.37,169.23c6,.1,4.41,5,5.74,8.36,1.07-3.57,0-8.1,5.63-8.41-5.69-.37-4.52-4.93-5.67-8.54C429.91,164.17,431.13,168.82,425.37,169.23ZM265.45,485.75c-.27,1.67-.13,3.57-.92,4.94s-2.49,2.15-3.42,2.9c.91.73,2.64,1.54,3.41,2.9s.68,3.37,1,5.08c1.3-3.21.37-7.6,5.85-8C265.75,493.28,266.88,488.83,265.45,485.75ZM493,244.7c-.12-.85-.33-1.68-.5-2.52-1.06,3.17-.35,7.22-5.47,7.88,5.36.46,4.18,4.87,5.34,7.82.47-1.66.41-3.46,1.15-4.82s2.28-2.22,3.47-3.3C493.57,248.43,493.58,248.43,493,244.7Zm-7.38,193.64c1.14-3.52.22-7.7,4.9-7.87-1.34-1.09-2.93-1.86-3.65-3.13s-.71-3.17-1-4.78c-1.09,3.13-.48,7.05-5.53,7.6C485.38,430.72,484.71,434.71,485.63,438.34Zm102.52-3.81c-1.51,0-2.14,1-2.23,2.46s.75,2.28,2,2.1c.92-.13,1.72-1.08,2.58-1.66C590.16,435.56,589.6,434.54,588.15,434.53ZM184.93,437.1c0-1.41-.6-2.5-2.12-2.57s-2.07.91-2.44,2.77c.83.63,1.58,1.61,2.49,1.79C184,439.32,185,438.53,184.93,437.1ZM181.65,425a3.5,3.5,0,0,0-.58,2.78c.45,1.55,1.84,1.37,3.27,1a2.33,2.33,0,0,0-2.69-3.75ZM587.53,313a2.47,2.47,0,0,0,2.37.23,3.47,3.47,0,0,0,.73-2.73c-.38-1.56-1.78-1.47-3.2-1.12A2.46,2.46,0,0,0,587.53,313Zm-402.64,0a2.46,2.46,0,0,0,.15-3.62c-1.41-.37-2.8-.49-3.21,1.07a3.5,3.5,0,0,0,.67,2.75C182.82,313.55,184.39,313.43,184.89,313Zm405,112.5c-1.06-1.09-2.22-1.34-3.17-.25a2.41,2.41,0,0,0,.05,3.64C589.63,429.25,590.31,428.51,589.84,425.47Zm-405,21.08a2,2,0,0,0-4,0c-.49,1.45.46,2.31,2,2.68C184.31,448.84,185.28,448,184.81,446.55Zm403.3-1.64a2.75,2.75,0,0,0-2.06,1.55c-.5,1.39.37,2.35,2,2.74,1.46-.31,2.46-1.12,2-2.58A2.75,2.75,0,0,0,588.11,444.91ZM332.2,702.65a1.88,1.88,0,0,0-2.16,2c0,1.23.49,2.18,2.63,2.26.32-.37,1.28-1,1.43-1.8A2,2,0,0,0,332.2,702.65ZM439.54,45.47a1.89,1.89,0,0,0,2.07-2.13c0-1.23-.59-2.15-2.74-2.13-.3.39-1.22,1.06-1.34,1.86A2,2,0,0,0,439.54,45.47Zm-.8,657.17a2,2,0,0,0-2,2.41c.13.79,1,1.46,1.34,1.85,2.14,0,2.73-.9,2.73-2.14A1.89,1.89,0,0,0,438.74,702.64Zm-106-657.25c.93-.15,1.71-1.12,2.56-1.73,0-.32,0-.65,0-1A8.21,8.21,0,0,0,333,41.27c-1.37-.3-2.08.68-2.15,1.95S331.43,45.61,332.76,45.39ZM183.5,303.17a1.69,1.69,0,0,0,2.12-1.91c-.11-.88-1-1.67-1.48-2.49l-.93,0c-.55.8-1.54,1.62-1.51,2.41A2.83,2.83,0,0,0,183.5,303.17Zm407.69-12.5c-.83-.51-1.69-1.48-2.47-1.41a2.89,2.89,0,0,0-1.89,1.94,1.69,1.69,0,0,0,2,2.05c.86-.13,1.6-1.05,2.4-1.61C591.2,291.32,591.19,291,591.19,290.67ZM253.47,45.7c.53-.78,1.41-1.52,1.51-2.35a1.68,1.68,0,0,0-2-2c-.8.19-1.89,1.23-1.92,1.94s1,1.62,1.52,2.43Zm-30.88,0,.95,0c.57-.81,1.59-1.63,1.57-2.42a2.92,2.92,0,0,0-1.91-1.95,1.69,1.69,0,0,0-2.07,2C221.24,44.17,222.08,44.91,222.59,45.69Zm-.42,657.18a2.83,2.83,0,0,0-1.81,2,1.69,1.69,0,0,0,2.17,1.88c.84-.2,1.5-1.09,2.25-1.67,0-.3,0-.6,0-.9C223.88,703.71,223,702.78,222.17,702.87Zm369-432.08c-.82-.52-1.69-1.48-2.46-1.42a2.93,2.93,0,0,0-1.89,1.95,1.69,1.69,0,0,0,2,2.05c.86-.13,1.6-1.05,2.4-1.62ZM232.82,702.42l-.9,0c-.57.74-1.47,1.42-1.64,2.24-.26,1.27.59,2.14,1.94,2.21a1.8,1.8,0,0,0,2.09-2.06C234.21,703.94,233.34,703.2,232.82,702.42Zm-49.19-433c-.78,0-1.59,1-2.39,1.53v1c.82.53,1.61,1.41,2.47,1.5a1.69,1.69,0,0,0,1.89-2.14A2.91,2.91,0,0,0,183.63,269.37Zm77.9,433.05c-.5.83-1.36,1.63-1.43,2.49a1.68,1.68,0,0,0,2.16,1.85,2.88,2.88,0,0,0,1.81-2c0-.79-1-1.58-1.58-2.37Zm-77.79-439a1.7,1.7,0,0,0,1.87-2.16,2.93,2.93,0,0,0-2-1.84c-.78,0-1.58,1-2.38,1.56l0,1C182.08,262.48,182.88,263.35,183.74,263.43Zm407.44-12.54c-.83-.51-1.7-1.47-2.48-1.39a2.9,2.9,0,0,0-1.87,2,1.69,1.69,0,0,0,2,2c.86-.14,1.59-1.07,2.38-1.64Zm-408.11-1.81c-.5.84-1.44,1.71-1.37,2.5a2.86,2.86,0,0,0,1.92,1.9,1.69,1.69,0,0,0,2-2c-.16-.87-1.06-1.61-1.63-2.41Zm405.66-9.52a2.93,2.93,0,0,0-1.9,1.94,1.68,1.68,0,0,0,2,2.05c.86-.12,1.6-1,2.4-1.61l0-1C590.36,240.46,589.5,239.5,588.73,239.56ZM185.6,241.39a2.88,2.88,0,0,0-2-1.83c-.77,0-1.58,1-2.38,1.55l0,1c.82.52,1.62,1.39,2.48,1.47A1.69,1.69,0,0,0,185.6,241.39Zm84.45,463.24a1.67,1.67,0,0,0,1.86,2.14c.88-.1,1.68-.94,2.52-1.44l0-.91c-.79-.56-1.59-1.57-2.39-1.57A2.87,2.87,0,0,0,270.05,704.63ZM588.74,303.18c.86-.09,1.64-1,2.45-1.52v-1c-.81-.54-1.63-1.53-2.41-1.49a2.9,2.9,0,0,0-2,1.87A1.69,1.69,0,0,0,588.74,303.18ZM289.93,704.65a1.67,1.67,0,0,0,1.88,2.12c.88-.11,1.67-.95,2.5-1.46,0-.31,0-.61,0-.92-.8-.55-1.61-1.55-2.4-1.54A2.87,2.87,0,0,0,289.93,704.65Zm296.9-483a1.68,1.68,0,0,0,2,2.06c.86-.12,1.61-1,2.41-1.59,0-.32,0-.65,0-1-.82-.52-1.68-1.49-2.45-1.42A2.89,2.89,0,0,0,586.83,221.61Zm-403.09-1.93c-.77-.07-1.65.88-2.48,1.39l0,1c.79.58,1.52,1.51,2.38,1.65a1.69,1.69,0,0,0,2-2A2.91,2.91,0,0,0,183.74,219.68ZM301.68,702.87a2.83,2.83,0,0,0-1.81,2,1.69,1.69,0,0,0,2.17,1.88c.84-.2,1.51-1.09,2.25-1.67,0-.3,0-.6,0-.9C303.39,703.71,302.48,702.78,301.68,702.87ZM586,456.91a2.89,2.89,0,0,0,1.89,1.94c.77.07,1.63-.89,2.46-1.41,0-.32,0-.64,0-1-.79-.56-1.53-1.48-2.39-1.61A1.69,1.69,0,0,0,586,456.91ZM182.62,468.82c1.21.33,2.15-.46,2.26-1.81a1.84,1.84,0,0,0-1.91-2.22c-.83,0-1.63.83-2.44,1.28l-.12.89C181.14,467.61,181.78,468.59,182.62,468.82Zm405.33,0c.77.06,1.63-.91,2.45-1.44v-1c-.8-.56-1.55-1.47-2.42-1.59a1.68,1.68,0,0,0-2,2.07A2.89,2.89,0,0,0,588,468.79Zm.8-259a2.89,2.89,0,0,0-1.92,1.9,1.7,1.7,0,0,0,1.95,2.09c.86-.12,1.62-1,2.42-1.58v-1C590.37,210.67,589.53,209.69,588.75,209.75ZM311.62,702.81c-1.24-.17-1.94.83-1.88,2s.93,2.21,2.22,1.92c.83-.18,1.51-1.07,2.26-1.64l0-.9A8,8,0,0,0,311.62,702.81Zm137-.4c-.55.77-1.44,1.49-1.55,2.32a1.69,1.69,0,0,0,2,2,3,3,0,0,0,1.95-1.92c.05-.78-1-1.63-1.5-2.45ZM182.83,474.74c-.86.13-1.6,1.05-2.39,1.61l0,1c.83.51,1.69,1.48,2.47,1.41a2.9,2.9,0,0,0,1.88-1.94A1.69,1.69,0,0,0,182.83,474.74ZM586,476.82a2.91,2.91,0,0,0,1.91,1.91c.78.06,1.63-.92,2.45-1.45,0-.32,0-.64,0-1-.81-.56-1.56-1.47-2.42-1.58A1.68,1.68,0,0,0,586,476.82ZM459.56,702.41h-.95c-.55.8-1.55,1.62-1.53,2.41a2.9,2.9,0,0,0,1.87,2,1.68,1.68,0,0,0,2.11-1.9C461,704,460.09,703.22,459.56,702.41Zm29.37.39a1.68,1.68,0,0,0-2.06,2,2.84,2.84,0,0,0,1.92,1.92c.8,0,1.66-.94,2.48-1.48v-.92C490.49,703.78,489.78,703,488.93,702.8Zm10.39-.39h-.95c-.55.81-1.56,1.65-1.52,2.44s1.14,1.74,1.93,1.92a1.69,1.69,0,0,0,2-2C500.7,703.9,499.84,703.18,499.32,702.41ZM182.89,484.68c-.86.1-1.63,1-2.44,1.54v1c.81.54,1.64,1.54,2.42,1.5a2.9,2.9,0,0,0,1.94-1.89A1.68,1.68,0,0,0,182.89,484.68Zm323.85,220a1.67,1.67,0,0,0,1.89,2.11c.89-.12,1.67-1,2.5-1.47l0-.93c-.8-.55-1.62-1.54-2.41-1.52A2.87,2.87,0,0,0,506.74,704.66Zm82-510.8c.86-.08,1.65-1,2.48-1.48,0-.33,0-.65,0-1-.8-.56-1.61-1.57-2.39-1.55a2.89,2.89,0,0,0-2,1.85A1.69,1.69,0,0,0,588.71,193.86Zm-403.1-2.05a2.91,2.91,0,0,0-1.89-1.95c-.77-.07-1.64.9-2.46,1.42l0,1c.8.57,1.54,1.49,2.4,1.62A1.69,1.69,0,0,0,185.61,191.81Zm-2.74,302.81c-.86.11-1.62,1-2.43,1.57,0,.32,0,.64,0,1,.82.53,1.67,1.52,2.44,1.46a2.89,2.89,0,0,0,1.92-1.91A1.68,1.68,0,0,0,182.87,494.62ZM529.15,702.41h-1c-.55.8-1.56,1.61-1.54,2.4a2.9,2.9,0,0,0,1.86,2,1.68,1.68,0,0,0,2.12-1.89C530.54,704,529.67,703.23,529.15,702.41Zm9.89,0h-1c-.54.82-1.52,1.65-1.48,2.44s1.1,1.73,1.89,1.92a1.67,1.67,0,0,0,2.08-1.93C540.46,704,539.57,703.21,539,702.4Zm48.88-197.84a1.69,1.69,0,0,0-1.88,2.15,2.89,2.89,0,0,0,2,1.83c.78,0,1.59-1,2.39-1.53,0-.32,0-.65,0-1C589.57,505.52,588.78,504.64,587.92,504.56ZM182.93,598a2.87,2.87,0,0,0,1.88-2,1.68,1.68,0,0,0-2-2c-.86.13-1.6,1-2.39,1.62,0,.32,0,.64,0,1C181.29,597.1,182.15,598.07,182.93,598Zm0-83.5c-.87.07-1.66,1-2.49,1.47,0,.32,0,.64,0,1,.79.56,1.6,1.57,2.38,1.55a2.9,2.9,0,0,0,2-1.83A1.69,1.69,0,0,0,183,514.5Zm0,9.93c-.87.1-1.64,1-2.45,1.52l0,1c.81.55,1.64,1.55,2.42,1.51a2.88,2.88,0,0,0,1.95-1.88A1.68,1.68,0,0,0,182.91,524.43Zm405,0A1.7,1.7,0,0,0,586,526.6a2.91,2.91,0,0,0,2,1.83c.78,0,1.58-1,2.37-1.56l0-1C589.56,525.38,588.76,524.51,587.9,524.43ZM183.74,183.92a1.69,1.69,0,0,0,1.87-2.16,2.93,2.93,0,0,0-2-1.84c-.78,0-1.59,1-2.39,1.56l0,1C182.08,183,182.87,183.84,183.74,183.92Zm403.09-12a1.69,1.69,0,0,0,1.93,2.1c.86-.11,1.63-1,2.44-1.55v-1c-.81-.54-1.65-1.53-2.43-1.48A2.9,2.9,0,0,0,586.83,171.88Zm-401.22.05a2.91,2.91,0,0,0-1.89-1.94c-.77-.07-1.64.89-2.46,1.41l0,1c.8.57,1.54,1.49,2.4,1.62A1.69,1.69,0,0,0,185.61,171.93Zm405.57-10.5c-.83-.5-1.71-1.45-2.48-1.38a3,3,0,0,0-1.87,2,1.69,1.69,0,0,0,2,2c.86-.14,1.58-1.07,2.37-1.64ZM586,536.4a2.93,2.93,0,0,0,1.86,2c.78.08,1.65-.88,2.48-1.38l0-1c-.78-.57-1.52-1.5-2.37-1.64A1.68,1.68,0,0,0,586,536.4ZM183.67,160.05c-.78-.05-1.61.94-2.43,1.48v1c.81.55,1.58,1.44,2.44,1.55a1.69,1.69,0,0,0,1.93-2.1A2.9,2.9,0,0,0,183.67,160.05Zm405.11-15.89c.86-.11,1.62-1,2.42-1.57,0-.32,0-.64,0-1-.81-.53-1.66-1.51-2.44-1.46a2.93,2.93,0,0,0-1.92,1.91A1.68,1.68,0,0,0,588.78,144.16ZM182.83,544.31c-.86.13-1.6,1.05-2.39,1.62,0,.32,0,.64,0,1,.83.51,1.69,1.48,2.47,1.42a2.92,2.92,0,0,0,1.88-1.95A1.68,1.68,0,0,0,182.83,544.31Zm405.22,0a1.68,1.68,0,0,0-2,2,2.88,2.88,0,0,0,1.85,2c.77.09,1.66-.86,2.49-1.36,0-.32,0-.64,0-1C589.64,545.39,588.91,544.45,588.05,544.31Zm-405.22,9.94c-.86.13-1.6,1-2.39,1.61l0,1c.83.51,1.69,1.48,2.47,1.41a2.9,2.9,0,0,0,1.88-1.94A1.69,1.69,0,0,0,182.83,554.25Zm407.56,1.48c-.82-.52-1.61-1.4-2.48-1.48A1.69,1.69,0,0,0,586,556.4a2.91,2.91,0,0,0,2,1.84c.77,0,1.58-1,2.38-1.54Zm-409.93,11c.83.52,1.69,1.48,2.47,1.42a2.89,2.89,0,0,0,1.88-2,1.68,1.68,0,0,0-2-2c-.86.13-1.6,1-2.39,1.62Zm2.5,11.35a2.88,2.88,0,0,0,1.85-2,1.68,1.68,0,0,0-2-2c-.86.14-1.58,1.08-2.37,1.66,0,.32,0,.64,0,1C181.3,577.25,182.19,578.2,183,578.12Zm404.92,6a1.7,1.7,0,0,0-1.84,2.18,2.93,2.93,0,0,0,2,1.81c.78,0,1.57-1,2.36-1.58,0-.33,0-.65,0-1C589.55,585,588.74,584.13,587.88,584.07ZM183.65,140.17c-.78,0-1.6,1-2.41,1.5v1c.81.54,1.59,1.43,2.45,1.52a1.69,1.69,0,0,0,1.91-2.12A2.94,2.94,0,0,0,183.65,140.17ZM182.83,608a1.68,1.68,0,0,0,2-2c-.18-.88-1.07-1.61-1.64-2.42l-.92,0c-.5.84-1.43,1.73-1.36,2.52A2.86,2.86,0,0,0,182.83,608ZM586,606.1a2.91,2.91,0,0,0,2,1.84c.78,0,1.59-1,2.38-1.55,0-.32,0-.64,0-1-.83-.52-1.62-1.4-2.48-1.48A1.69,1.69,0,0,0,586,606.1Zm0,9.92a2.91,2.91,0,0,0,2,1.86c.77,0,1.59-1,2.39-1.53,0-.33,0-.65,0-1-.82-.53-1.6-1.41-2.47-1.5A1.69,1.69,0,0,0,586,616Zm2.7-481.8c.86-.09,1.64-1,2.45-1.52v-1c-.81-.55-1.63-1.54-2.41-1.51a2.94,2.94,0,0,0-2,1.87A1.69,1.69,0,0,0,588.74,134.22Zm0-23.87a2.93,2.93,0,0,0-1.87,2,1.69,1.69,0,0,0,2,2c.85-.14,1.58-1.07,2.37-1.65l0-1C590.35,111.23,589.47,110.28,588.7,110.35Zm-403.09,2a2.91,2.91,0,0,0-1.89-2c-.77-.07-1.64.9-2.46,1.42l0,1c.8.57,1.54,1.49,2.4,1.62A1.69,1.69,0,0,0,185.61,112.3Zm-2.25,511.15-.91,0c-.56.81-1.56,1.62-1.54,2.41a2.83,2.83,0,0,0,1.78,2,1.66,1.66,0,0,0,2.13-1.86C184.71,625.09,183.87,624.29,183.36,623.45Zm404.52.37A1.7,1.7,0,0,0,586,626a2.93,2.93,0,0,0,2,1.81c.78,0,1.57-1,2.36-1.59l0-1C589.55,624.75,588.74,623.89,587.88,623.82ZM183.72,100.41c-.78-.06-1.64.91-2.47,1.43l0,1c.8.56,1.54,1.48,2.4,1.61a1.69,1.69,0,0,0,2-2A2.93,2.93,0,0,0,183.72,100.41Zm405-5.94c.86-.11,1.63-1,2.44-1.55V92c-.81-.54-1.65-1.53-2.43-1.49a2.92,2.92,0,0,0-1.94,1.9A1.69,1.69,0,0,0,588.76,94.47Zm-405,0a1.7,1.7,0,0,0,1.83-2.19,2.86,2.86,0,0,0-2-1.8c-.78,0-1.58,1-2.36,1.58l0,1C182.1,93.54,182.9,94.4,183.77,94.47ZM586.84,82.38a1.69,1.69,0,0,0,1.87,2.15c.86-.08,1.65-1,2.47-1.48l0-1c-.8-.56-1.61-1.57-2.39-1.54A2.88,2.88,0,0,0,586.84,82.38Zm-401.23.07a2.93,2.93,0,0,0-1.92-1.91c-.77-.06-1.62.92-2.44,1.44,0,.33,0,.65,0,1,.8.55,1.55,1.46,2.42,1.58A1.69,1.69,0,0,0,185.61,82.45ZM538.88,45.7l.9,0c.55-.76,1.44-1.45,1.59-2.27.23-1.27-.63-2.13-2-2.18a1.81,1.81,0,0,0-2,2.11C537.45,44.21,538.34,44.93,538.88,45.7ZM182.44,633.35c-.55.8-1.54,1.61-1.53,2.41a2.83,2.83,0,0,0,1.78,2,1.66,1.66,0,0,0,2.13-1.86c-.11-.89-.95-1.69-1.46-2.53ZM588,637.75c.78,0,1.61-1,2.42-1.49v-1c-.81-.54-1.58-1.44-2.44-1.54a1.69,1.69,0,0,0-1.92,2.11A2.88,2.88,0,0,0,588,637.75Zm-78-592c.55-.76,1.42-1.46,1.56-2.29a1.68,1.68,0,0,0-2-2.07,2.9,2.9,0,0,0-2,1.88c-.06.78.93,1.64,1.47,2.47Zm-9.79,0c.5-.83,1.34-1.64,1.41-2.5a1.68,1.68,0,0,0-2.18-1.83,2.91,2.91,0,0,0-1.8,2c0,.78,1,1.57,1.61,2.35Zm-10.09,0c.55-.8,1.44-1.55,1.56-2.41a1.67,1.67,0,0,0-2.06-1.95,2.86,2.86,0,0,0-1.91,1.9c-.05.78.93,1.63,1.46,2.45Zm-307.32,602a1.66,1.66,0,0,0,2-2c-.16-.89-1-1.64-1.58-2.46h-.92c-.52.83-1.47,1.69-1.42,2.49A2.82,2.82,0,0,0,182.79,647.73Zm296.4-602,.9,0c.57-.74,1.47-1.42,1.64-2.24.26-1.26-.58-2.14-1.93-2.21a1.8,1.8,0,0,0-2.1,2C477.8,44.16,478.67,44.9,479.19,45.69ZM182.93,657.63a2.88,2.88,0,0,0,1.88-1.94,1.68,1.68,0,0,0-2-2.05c-.86.13-1.6,1.05-2.39,1.62,0,.32,0,.64,0,1C181.29,656.73,182.15,657.7,182.93,657.63Zm403.11,8a2.93,2.93,0,0,0,1.91,1.92c.77,0,1.63-.92,2.45-1.44,0-.32,0-.64,0-1-.8-.56-1.55-1.47-2.41-1.59A1.68,1.68,0,0,0,586,665.65ZM459.3,45.68l.9,0c.58-.74,1.48-1.41,1.66-2.23.26-1.26-.58-2.14-1.93-2.22a1.79,1.79,0,0,0-2.1,2C457.92,44.15,458.78,44.9,459.3,45.68Zm-8.9,0c.53-.77,1.39-1.48,1.52-2.32a1.69,1.69,0,0,0-2-2A2.9,2.9,0,0,0,448,43.26c0,.78,1,1.63,1.5,2.45Zm-148.2,0h.9c.55-.77,1.46-1.48,1.58-2.3a1.81,1.81,0,0,0-2-2.14c-1.36,0-2.23.88-2,2.15C300.78,44.25,301.66,45,302.2,45.71Zm-19.88,0h.95c.53-.83,1.52-1.69,1.47-2.47a2.9,2.9,0,0,0-2-1.88,1.68,1.68,0,0,0-2,2.07C280.9,44.25,281.78,45,282.32,45.71Zm-9.44-.45a2.84,2.84,0,0,0,2-1.86,1.67,1.67,0,0,0-1.94-2.07c-.89.15-1.65,1-2.47,1.53v.93C271.25,44.32,272.09,45.3,272.88,45.26Zm-10.59.42,1,0c.59-.78,1.62-1.56,1.62-2.35a2.9,2.9,0,0,0-1.79-2,1.69,1.69,0,0,0-2.19,1.82C261,44,261.8,44.85,262.29,45.68ZM185.61,291.17a2.91,2.91,0,0,0-1.92-1.91c-.78-.06-1.62.92-2.44,1.44,0,.33,0,.65,0,1,.8.55,1.56,1.46,2.42,1.58A1.69,1.69,0,0,0,185.61,291.17Zm403.15-7.86c.86-.11,1.63-1,2.44-1.55v-1c-.81-.54-1.65-1.53-2.43-1.49a2.92,2.92,0,0,0-1.94,1.89A1.7,1.7,0,0,0,588.76,283.31Zm-403.15-2.07a2.89,2.89,0,0,0-1.91-1.92c-.78-.06-1.63.91-2.45,1.43v1c.8.56,1.55,1.47,2.41,1.59A1.69,1.69,0,0,0,185.61,281.24ZM546.5,704.71a1.66,1.66,0,0,0,1.93,2.06c.88-.14,1.65-1,2.47-1.52v-.93c-.81-.53-1.65-1.51-2.44-1.47A2.83,2.83,0,0,0,546.5,704.71Zm42.26-441.28c.86-.1,1.63-1,2.44-1.55v-1c-.81-.54-1.65-1.53-2.43-1.48a2.9,2.9,0,0,0-1.94,1.89A1.69,1.69,0,0,0,588.76,263.43Zm0-29.82c.86-.08,1.65-1,2.48-1.48l0-1c-.8-.56-1.61-1.57-2.39-1.54a2.88,2.88,0,0,0-2,1.84A1.69,1.69,0,0,0,588.71,233.61Zm-403.1-2.12a2.9,2.9,0,0,0-2-1.87c-.78,0-1.61,1-2.41,1.51,0,.32,0,.64,0,1,.82.54,1.59,1.43,2.46,1.52A1.69,1.69,0,0,0,185.61,231.49Zm-2.79,223.37c-.86.13-1.59,1.06-2.38,1.64,0,.32,0,.64,0,1,.83.51,1.7,1.46,2.48,1.39a2.88,2.88,0,0,0,1.87-2A1.68,1.68,0,0,0,182.82,454.86ZM588,518.49c.77,0,1.61-.94,2.42-1.48v-1c-.81-.54-1.57-1.44-2.43-1.55A1.7,1.7,0,0,0,586,516.6,2.92,2.92,0,0,0,588,518.49ZM548.75,45.69l.9,0c.57-.74,1.47-1.41,1.65-2.23.28-1.27-.58-2.14-1.92-2.22a1.8,1.8,0,0,0-2.11,2C547.36,44.15,548.23,44.9,548.75,45.69Zm-363.14,166a2.9,2.9,0,0,0-1.86-2c-.77-.08-1.65.87-2.49,1.37l0,1c.78.58,1.51,1.52,2.37,1.66A1.69,1.69,0,0,0,185.61,211.72ZM588.7,203.8c.87-.08,1.66-1,2.48-1.47l0-1c-.79-.57-1.6-1.58-2.38-1.56a2.88,2.88,0,0,0-2,1.83A1.69,1.69,0,0,0,588.7,203.8Zm-405.48-4.44c-.55.8-1.55,1.62-1.52,2.41a2.86,2.86,0,0,0,1.8,2,1.69,1.69,0,0,0,2.12-1.91c-.11-.88-1-1.67-1.48-2.5ZM587.89,488.68c.77.08,1.65-.87,2.49-1.37l0-1c-.78-.58-1.5-1.52-2.36-1.66a1.68,1.68,0,0,0-2,2A2.94,2.94,0,0,0,587.89,488.68ZM586,496.63a2.92,2.92,0,0,0,1.85,2c.77.08,1.65-.87,2.49-1.36,0-.32,0-.65,0-1-.78-.58-1.5-1.52-2.36-1.66A1.69,1.69,0,0,0,586,496.63Zm-405.58,10.5c.82.52,1.69,1.48,2.47,1.42a2.89,2.89,0,0,0,1.88-1.95,1.69,1.69,0,0,0-2-2.05c-.86.13-1.6,1.05-2.39,1.62ZM589,179.9c-1.21-.33-2.15.46-2.27,1.81a1.84,1.84,0,0,0,1.92,2.21c.83,0,1.63-.82,2.44-1.27l.12-.89C590.51,181.11,589.87,180.13,589,179.9ZM587.91,598c.78.07,1.65-.89,2.47-1.4l0-1c-.79-.57-1.52-1.49-2.38-1.63a1.69,1.69,0,0,0-2,2A2.92,2.92,0,0,0,587.91,598ZM183,617.87a2.89,2.89,0,0,0,1.85-2,1.69,1.69,0,0,0-2-2c-.86.14-1.58,1.08-2.37,1.66l0,1C181.3,617,182.19,618,183,617.87ZM586,645.74a2.91,2.91,0,0,0,1.88,2c.78.07,1.64-.9,2.47-1.42l0-1c-.8-.57-1.54-1.49-2.4-1.62A1.68,1.68,0,0,0,586,645.74ZM242.51,45.7h1C244,44.9,245,44.08,245,43.3a2.87,2.87,0,0,0-1.86-1.95,1.68,1.68,0,0,0-2.12,1.9C241.11,44.11,242,44.88,242.51,45.7Zm-9.92,0h.94c.55-.82,1.56-1.66,1.51-2.45a2.9,2.9,0,0,0-1.94-1.91,1.69,1.69,0,0,0-2,2C231.2,44.21,232.06,44.93,232.59,45.7Zm-49,88.53a1.69,1.69,0,0,0,2-2,2.9,2.9,0,0,0-1.87-2c-.77-.08-1.65.87-2.48,1.38l0,1C182,133.16,182.75,134.09,183.61,134.23Zm2,17.7a2.87,2.87,0,0,0-2-1.82c-.77,0-1.58,1-2.37,1.56l0,1c.83.51,1.63,1.39,2.49,1.46A1.69,1.69,0,0,0,185.6,151.93Zm403.17,2.17c.86-.1,1.62-1,2.43-1.56v-1c-.82-.53-1.66-1.52-2.44-1.47a2.92,2.92,0,0,0-1.93,1.9A1.69,1.69,0,0,0,588.77,154.1ZM182.91,534.37c-.87.1-1.64,1-2.46,1.53v1c.8.54,1.63,1.53,2.41,1.49a2.86,2.86,0,0,0,1.95-1.87A1.69,1.69,0,0,0,182.91,534.37ZM588.72,120.29a2.91,2.91,0,0,0-1.89,1.94,1.7,1.7,0,0,0,2,2.06c.86-.13,1.6-1.05,2.4-1.62l0-1C590.36,121.19,589.5,120.23,588.72,120.29ZM469.15,45.66l.94.07c.59-.78,1.65-1.55,1.65-2.33a2.92,2.92,0,0,0-1.82-2,1.68,1.68,0,0,0-2.15,1.89C467.83,44.08,468.66,44.86,469.15,45.66ZM242.73,702.41l-.89,0c-.57.75-1.46,1.43-1.63,2.26-.24,1.26.62,2.13,2,2.19a1.8,1.8,0,0,0,2.07-2.08C244.15,703.92,243.27,703.19,242.73,702.41Zm9.36.45a2.85,2.85,0,0,0-1.92,1.87,1.68,1.68,0,0,0,2,2c.87-.14,1.63-1,2.44-1.56v-.91C253.74,703.77,252.89,702.81,252.09,702.86ZM586,655.69a2.89,2.89,0,0,0,1.89,1.94c.77.06,1.63-.9,2.46-1.42,0-.32,0-.64,0-1-.79-.56-1.53-1.48-2.39-1.61A1.68,1.68,0,0,0,586,655.69Zm-401.21,10c-.13-.89-1-1.67-1.5-2.5l-.92,0c-.55.81-1.53,1.63-1.51,2.43a2.85,2.85,0,0,0,1.82,2A1.66,1.66,0,0,0,184.83,665.7Zm97,37.16a2.83,2.83,0,0,0-1.89,1.91,1.67,1.67,0,0,0,2,2c.87-.16,1.61-1,2.41-1.61l0-.91C283.54,703.75,282.67,702.8,281.88,702.86Zm248-657.16c.53-.76,1.4-1.48,1.52-2.31a1.69,1.69,0,0,0-2-2,2.89,2.89,0,0,0-1.95,1.91c-.05.78,1,1.63,1.5,2.45Zm-9.91,0c.52-.82,1.4-1.6,1.49-2.46a1.68,1.68,0,0,0-2.12-1.89,2.86,2.86,0,0,0-1.86,2c0,.78,1,1.6,1.53,2.4ZM183.11,119.87c-.51.82-1.46,1.68-1.41,2.47a2.89,2.89,0,0,0,1.89,1.94,1.69,1.69,0,0,0,2-2c-.15-.88-1-1.63-1.58-2.43ZM322.38,702.45l-.94-.08c-.6.78-1.66,1.56-1.66,2.34a3,3,0,0,0,1.82,2,1.68,1.68,0,0,0,2.15-1.9C323.69,704,322.86,703.25,322.38,702.45ZM182.84,584.07c-.86.12-1.61,1-2.4,1.61l0,1c.82.52,1.69,1.48,2.46,1.42a2.89,2.89,0,0,0,1.89-1.94A1.68,1.68,0,0,0,182.84,584.07ZM586,576.21a2.91,2.91,0,0,0,1.92,1.91c.77,0,1.62-.93,2.44-1.45,0-.32,0-.65,0-1-.81-.55-1.56-1.46-2.42-1.57A1.68,1.68,0,0,0,586,576.21ZM469.48,702.4h-1c-.55.82-1.55,1.67-1.5,2.45s1.16,1.74,2,1.91a1.69,1.69,0,0,0,2-2C470.87,703.89,470,703.17,469.48,702.4Zm10,0-1,0c-.56.81-1.59,1.63-1.56,2.42a2.92,2.92,0,0,0,1.91,2,1.7,1.7,0,0,0,2.07-2C480.83,703.93,480,703.19,479.47,702.41ZM588,564.19a1.69,1.69,0,0,0-2,2.08,2.89,2.89,0,0,0,1.91,1.92c.78,0,1.63-.93,2.45-1.46v-1C589.61,565.21,588.85,564.3,588,564.19ZM322.08,45.71H323c.54-.82,1.53-1.68,1.47-2.47a2.91,2.91,0,0,0-2-1.88,1.69,1.69,0,0,0-2,2.07C320.66,44.25,321.53,45,322.08,45.71Zm-10,0h1c.55-.81,1.56-1.65,1.51-2.44s-1.14-1.75-1.93-1.92a1.69,1.69,0,0,0-2,2C310.7,44.21,311.56,44.93,312.09,45.7ZM519.14,702.4h-.95c-.54.81-1.52,1.66-1.47,2.44s1.12,1.72,1.9,1.91a1.68,1.68,0,0,0,2.07-1.94C520.58,704,519.69,703.2,519.14,702.4Zm69.56-602a2.9,2.9,0,0,0-1.87,2,1.69,1.69,0,0,0,2,2c.86-.14,1.59-1.07,2.38-1.64l0-1C590.35,101.3,589.48,100.34,588.7,100.42ZM292.22,45.7h.94c.55-.82,1.56-1.66,1.52-2.45a2.9,2.9,0,0,0-1.94-1.91,1.69,1.69,0,0,0-2,2C290.83,44.21,291.69,44.93,292.22,45.7Zm41.12,222.15c-2.35,1-4.59,2.35-6.9,3.5-1.85.91-3.74,1.75-6.18,2.89,1.68-5.43-.36-8.94-4.07-11.75,2.22-4.46,5.4-7.18,10.63-6.9,3,.16,6,0,9,0l.12-.51c-2.86-.61-5.7-1.56-8.59-1.76-7-.47-11.51,3.73-15.14,9.25l-4.08-3c-1.49,1.67-.43,2.73.3,3.73,1.6,2.22,3.08,2.47,6.4,1.21,3.17,2.76,3.95,6.23,3,10.23l-3.28,1.53.14.9c.94.16,2,.64,2.82.42,3.06-.78,6.07-1.79,9.09-2.72.51-.16,1-.37,1.9-.69l-3,5.24c3.19-.79,10.68-8.73,11.37-11.58C335.76,266.57,334.44,267.36,333.34,267.85Zm57.54,10.94c2.89-.08,5.25-3.93,4-6.77a20.11,20.11,0,0,1-1.23,2.1,3,3,0,0,1-3.81,1.26c-1.62-.67-1.81-2.05-1.24-3.49A9.17,9.17,0,0,1,390.2,269c3.22-3.48,3.39-5.3.69-9.27a7.11,7.11,0,0,1-1.29-2.42,7.4,7.4,0,0,1,8.77-8.37c.71.16,1.44.24,2.16.36l.4-.66a11.42,11.42,0,0,0-2.13-1.89c-3.34-1.72-6.87-.91-9.7,2.1-3.15,3.36-4.18,8.5-2.33,11.71.72,1.24,1.49,2.46,2.32,3.82a12.65,12.65,0,0,0-1.61,2.14c-.89,2-2,4-2.39,6.16C384.56,276,387.55,278.87,390.88,278.79ZM318,297.3a25.71,25.71,0,0,1-1.62,3.56,20.93,20.93,0,0,1-2.29,2.52c-3.6-3.25-7.63-4-9.88-1.46,1,.52,1.92,1,2.8,1.43,1.53.82,3,1.75,4.58,2.47a5.3,5.3,0,0,0,3,.74c2.84-.67,5-4.2,4.58-7.07A8.66,8.66,0,0,0,318,297.3Zm2.59,126.34c-6.84,10.48-7.74,21.78-2.65,33.29a11.68,11.68,0,0,0,11.2,7.48c5.65.09,9.37-2.61,11.85-7.44,2.22-4.35,3-9,3-15.85a31.92,31.92,0,0,0-5.63-17.52C333.05,416.18,325.51,416,320.54,423.64Zm3.4,22.87.24-.22,4.11,6.07c.22-6.88.42-13.26.62-19.63h1c.2,6.38.4,12.76.62,19.67l4.06-6.13.29.2c-1.75,4-3.5,8-5.46,12.43C327.45,454.45,325.69,450.48,323.94,446.51Zm12.74,8.32a8.77,8.77,0,0,1-4.75,4.78l3.64-8a37.22,37.22,0,0,0,2.23-4.86,24.84,24.84,0,0,0,.48-4.68l-.79-.58-4.21,1.67c-.15-2.65-.19-5.46-.51-8.23a15.09,15.09,0,0,0-1.29-4.74c-1.14-2.38-3-2.36-4.18,0A15,15,0,0,0,326,435c-.32,2.74-.35,5.5-.5,8.18l-4.14-1.66c-1.47,2.3-.95,4.15-.17,5.92,1.56,3.5,3.23,7,4.84,10.44.19.4.33.82.5,1.23l-.52.44a26.38,26.38,0,0,1-3.36-3.76c-3.25-5.31-3.72-11.22-3.21-17.26A26.26,26.26,0,0,1,323.53,426c3.83-5.79,8.21-5.9,11.72.09C340.67,435.32,341,445,336.68,454.83Zm4.87,78.57a2.71,2.71,0,0,0,2.9-2.8,2.8,2.8,0,0,0-2.68-3.05,3,3,0,0,0-3,2.83A2.92,2.92,0,0,0,341.55,533.4Zm-24.5-5.85a2.8,2.8,0,0,0-2.71,3,2.71,2.71,0,0,0,2.86,2.83,2.92,2.92,0,0,0,2.8-3A3,3,0,0,0,317.05,527.55Zm16.45,3.73a2.72,2.72,0,0,0-2.69,2.83,2.81,2.81,0,0,0,2.83,2.93,2.7,2.7,0,0,0,2.69-2.82A2.84,2.84,0,0,0,333.5,531.28Zm-8.26,0a2.86,2.86,0,0,0-2.78,3,2.71,2.71,0,0,0,2.75,2.77,2.81,2.81,0,0,0,2.77-3A2.72,2.72,0,0,0,325.24,531.28ZM372.42,93.79c1.53-2.1,3.16-4.07,6-4.42v16.87c-2.19,2-2.18,2.6,0,4.59a56.49,56.49,0,0,0,.84,6.3,3,3,0,0,0,2.05,1.67c.55.11,1.55-.67,1.89-1.3a5.77,5.77,0,0,0,.28-2.52c0-1.56,0-3.13,0-4.71.89-.25,1.52-.41,2.14-.61,5.74-1.78,10.21-4.84,11.86-11.08,1.24-4.66-.42-10.52-4.07-12.56-5-2.81-14-3.39-19.34,1.1-1.26,1-1.95,2.87-2.65,4.45-.25.54.28,1.43.45,2.17Zm18.46-4c1.89.89,3,4.28,2.58,7a10.78,10.78,0,0,1-9.92,8.81c-.26-5.7-.51-11.39-.77-17.24A16,16,0,0,1,390.88,89.77Z"/></svg>