<svg xmlns="http://www.w3.org/2000/svg" viewBox="0 0 750 750"><path d="M606.15,48.25a27.58,27.58,0,0,0-.49-5.52A21.83,21.83,0,0,0,583.8,25H187.27c-13.12,0-22.69,9.55-22.69,22.67V374.83q0,163.77,0,327.55a20.91,20.91,0,0,0,.15,3.17c1.76,11.88,10.72,19.45,23,19.45q197.57,0,395.13,0a27.09,27.09,0,0,0,5.33-.45c11-2.22,17.92-11.11,17.92-23Q606.17,374.92,606.15,48.25Zm-4.26,653.42c0,11.54-7.47,19.05-19,19.05q-197.58,0-395.16.07a18.65,18.65,0,0,1-19-19q.22-163.4.09-326.78V47.48c0-8.91,5.49-15.94,14-17.84a18.58,18.58,0,0,1,3.94-.35H583.94a17.67,17.67,0,0,1,17.95,17.84c0,1.32,0,2.65,0,4ZM425.89,334c-1.4.84-2.12,3.25-1.23,5.21a35.65,35.65,0,0,0,3.1,4.8c1.23,1.86,2.55,3.67,3.69,5.6.9,1.52.59,3,0,4.72-2.21,5.94-4.22,12-6.22,18a35.85,35.85,0,0,0-.85,4.74c-3.44-4.85-6.22-9.29-4.77-15.13a23.35,23.35,0,0,0,.24-3.15c.17-1.69.33-3.39.6-5.07.22-1.36.74-2.69.88-4.06.4-3.82-1.57-6.93-5.32-7.71-2.33-.49-4.82-.21-7.24-.2a10.87,10.87,0,0,0-2.14.44c.55-2.28,1-4.34,1.56-6.36a37.71,37.71,0,0,1,1.68-5c2.07-4.65,4.26-9.25,6.4-13.87s1.69-9.92,3-14.84c1.86-7.26.79-14.73-1.09-22-1-3.64-1.68-7.34-2.65-11-1.82-6.79-5.3-12.18-12.22-14.88A5.44,5.44,0,0,1,400.3,251c-1.67-6.24-6.21-9.08-11.87-10.8l-2.31-.71a12,12,0,0,0,2.34-11.8c-1.51-4.9-5.32-5.95-9.39-5.75.1-3.15.31-6.09.24-9-.14-6.09-2.09-11.39-7-15.34-4.13-3.3-5.14-7.33-3.36-12.38a11.69,11.69,0,0,0,.32-2.32l-.83-.47c-3.62,1.69-4.9,5.77-7.43,8.34-1.82-3.56-3.82-6.94-5.32-10.52s-2.51-7.35-3.73-11l-.76-.1a14.74,14.74,0,0,0-1.07,2.37c-.84,3.11-1.27,6.37-2.47,9.33-1.8,4.45-3.74,8.78-3.42,13.73,0,.08-.16.17-.26.28-2.31-1.87-4.57-3.79-7-5.55-.54-.4-1.51-.24-2.28-.33a12.06,12.06,0,0,0,.07,2.17c.45,2.1,1.37,4.17,1.44,6.27a42,42,0,0,1-3,16.89c-2.26,5.72-2.79,11.42-.16,17.17a5.44,5.44,0,0,1,.24,1c-5.12,1.95-5.39,5.68-3.63,10.22-7.25,1.64-11.93,6.7-16.5,11.76-1.87,2.07-2.89,4.88-4.54,7.18a20.11,20.11,0,0,0-3.79,13.67,38.43,38.43,0,0,1-.09,9.15,35,35,0,0,0,2.67,20.38c3.34,7.27,4.86,14.73,2.89,22.75-1.3,5.29,0,10.33,2.62,15.11s5.45,9.52,6,15.22c.22,2.15,1.35,4.28,2.33,6.28,1.33,2.71,2.92,5.28,4.47,8.05-3.56,2.06-6.67,4.6-7.76,8.55-1.58,5.73-3.42,11.52-3.88,17.39-.72,9-.48,18.13-.4,27.2a56.16,56.16,0,0,1-2.53,18.4,32,32,0,0,0-1.3,4.79,24.52,24.52,0,0,0,0,3.93l.75.23a17.34,17.34,0,0,0,1.85-1.28c1.9-1.75,3.7-3.61,5.65-5.3,11.24-9.72,21.56-20.38,31.82-31.11,12.3-12.88,24.34-26,37-38.53,5.89-5.82,13-10.38,19.63-15.47,2.19-1.69,4.11-3.56,5-6.28.37-1.17,1.12-2.66-.51-3.28s-2,1.06-2.44,2.17a7.27,7.27,0,0,1-3.73,4.27c-.84-3.23-1.62-6.25-2.39-9.18,4.91-2.07,12.75-1.84,15,.34a11.57,11.57,0,0,0-.62,2.19,41.75,41.75,0,0,0-.44,7c.33,4.07-1.11,7.37-3.54,10.45-.23-1-.1-2-.28-2.91-.11-.62-.65-1.63-1-1.64a2.26,2.26,0,0,0-1.84,1,7.69,7.69,0,0,0-.52,3.45,29.81,29.81,0,0,0,1.12,4.36l-5.08,6.05-.57-.29c.47-2.34.95-4.69,1.55-7.62-1.3.42-2,.44-2.41.81-2.72,2.6-1.42,6-1.47,9.15l-8.81,6c.56-1.64,1-2.76,1.32-3.89s.6-2.16.88-3.21c-3.68-1.31-5.29,2.11-5.48,10.68l-7.67,6.57c-.62-2.71,2.09-5,.77-8.13-.89.49-2,.72-2.24,1.31a27.74,27.74,0,0,0-2.11,6.08c-.27,1.43.18,3,.32,4.66l-7.93,7.58c.83-2.84,1.54-5.25,2.25-7.65l-.56-.59c-.73.13-1.71,0-2.14.45a6.44,6.44,0,0,0-1.68,2.85c-.63,2.69-1,5.45-1.55,8.49l-6.63,6.23c.27-1.13,1-2,1.3-3.05a8,8,0,0,0,0-2.54c-.92,0-2.11-.27-2.69.19a8,8,0,0,0-2.29,3.14c-.95,2.39-1.61,4.88-2.5,7.7l-5,4.57c-.17-.65.09-1.11,0-1.51a19.41,19.41,0,0,0-.68-2.42c-.78.36-1.93.5-2.27,1.1a26,26,0,0,0-1.89,4.74c-.31.93-.12,2.22-.7,2.84-2.27,2.4-4.77,4.6-7.18,6.88a20.79,20.79,0,0,1,.2-2.52,11.12,11.12,0,0,0-.77-2.55c-.78.46-1.93.74-2.28,1.42a13.53,13.53,0,0,0-1.81,5.2c-.21,5-4.48,6.79-7.08,10.5-.17-2-.29-3.42-.41-4.85l-.75-.31c-.63.62-1.55,1.12-1.82,1.87a20.41,20.41,0,0,0-1.3,5.35,10.37,10.37,0,0,1-2.14,5.82,62.26,62.26,0,0,0-4.18,6.71,5.67,5.67,0,0,0-.24,2.06l1.14.78a5.79,5.79,0,0,1,.65-1.72c1.92-2.36,3.84-4.73,5.92-7a8.07,8.07,0,0,1,2.79-1.59c2.06-.89,4.19-1.61,6.22-2.56.66-.31,1.08-1.13,1.61-1.71-1.46-2-3-.55-4.73-.74,2.1-2.15,4-4.2,6-6a8.71,8.71,0,0,1,3.08-1.47c1.87-.64,3.85-1,5.65-1.76.83-.36,1.35-1.43,2-2.18l-.42-.78-3.35-.29-.51-.47a40.32,40.32,0,0,0,3.72-3.14,7,7,0,0,1,6.3-2.53,8.06,8.06,0,0,0,4-.79c.68-.3,1-1.43,1.46-2.19a11.12,11.12,0,0,0-2.38-.75,7.71,7.71,0,0,0-2.16.48c-.08-.15-.15-.3-.23-.46,2.56-2.36,5.11-4.73,7.64-7.08a16,16,0,0,0,3.11.14,39.16,39.16,0,0,0,5.9-1.25c1.14-.36,2-1.57,1.17-2.67-.42-.59-1.81-.75-2.71-.67a12.08,12.08,0,0,0-3,1.08,66.62,66.62,0,0,1,5.55-5.8,7.26,7.26,0,0,1,4.37-1.95,31.2,31.2,0,0,0,6.94-2.17,2.83,2.83,0,0,0,1.39-2.36c-.39-1.39-1.68-.82-2.68-.45l-3.64,1.38c1.4-2,3.22-3.56,4.7-5.36a7.33,7.33,0,0,1,6.34-2.84,11.31,11.31,0,0,0,4.68-1.35c.65-.3.95-1.38,1.55-2.32-3-1.31-4.83,1.11-7.45,1.07a24.13,24.13,0,0,1,1.79-1.92c1.72-1.44,3.58-2.74,5.21-4.28a5.11,5.11,0,0,1,3.76-1.33,31.59,31.59,0,0,0,6.05-.68c1-.22,2.07-1,1.66-2.91l-6.54,1c-.08-.17-.15-.33-.22-.5,1.79-1.3,3.61-2.55,5.35-3.9a7.85,7.85,0,0,1,4.35-1.56,41.18,41.18,0,0,0,7.14-1.55c1-.28,2-.94,1.12-2.76l-6.4.94c-.06-.14-.13-.28-.2-.42l4.47-5,5.85.32c.59,1,1.17,2,1.73,2.93,3.35,5.77,3.24,11.93,1.64,18.08-.42,1.63-1.92,3.14-3.26,4.34-4,3.55-8.92,5.14-13.95,6.4a48.8,48.8,0,0,0-15.2,6.69,100.21,100.21,0,0,0-19,16.24c-8.27,9.11-17.13,17.36-27.82,23.76-9.46,5.66-15.61,14.56-20,24.59a6.9,6.9,0,0,0-.15,1.66,14.73,14.73,0,0,0,1.3-1.22c2.71-3.43,5.39-6.88,8.11-10.31,5.58-7.06,12.06-13,20.63-16.31a26.63,26.63,0,0,0,5.62-3.32c7.41-5.34,13.58-12,19.78-18.65,7.13-7.61,14.62-14.45,25.06-17.51,5-1.47,9.69-4.24,14.39-6.65,4.19-2.15,7.49-5.25,8.74-10a2.51,2.51,0,0,1,.49-.74c6.18,3.32,18.33,5.08,20.84,2.72a13.77,13.77,0,0,0-2.61-1.58c-2-.66-4.1-1.09-6.14-1.67-2.61-.74-5.26-1.39-7.78-2.37a6,6,0,0,1-4.19-4.71c.3-.32.44-.61.65-.7a42.52,42.52,0,0,1,6.17-2.44c2.91-.71,5.93-1,8.24-3.13s1.78-5.3-1.31-6.42a5.89,5.89,0,0,0-2.52-.38c-1.93.19-3.85.55-6,.88,3.77-5.55,8.57-9.36,15-10.94a10.57,10.57,0,0,1,8.34,1.7c1.64,1,2.16,2.72,2.14,4.88-1,.33-2,.69-3,1-1.58.44-2.69,1.33-2.52,3.06s1.65,2.23,3.2,2.28a5.76,5.76,0,0,0,5.18-3.69,9,9,0,0,0-4.05-11.09,14.24,14.24,0,0,0-11.18-1A26.85,26.85,0,0,0,433.91,368c-2.08,2.18-3.91,4.6-5.86,6.93a11.16,11.16,0,0,1,.34-2c2-5.61,3.89-11.24,6-16.81.91-2.43,2.19-2.91,4.85-2.65a25.64,25.64,0,0,0,6.12.15,12.59,12.59,0,0,0,5.26-2c2.16-1.55,1.67-4.65-.65-5.93-.38-.21-.77-.4-1-.52a38.56,38.56,0,0,0,4.78-3.52c2-2,1.34-4.56-1.41-5.12-2-.41-4.2-.08-6.55-.08a13.58,13.58,0,0,1,1.72-1c3.23-1.2,6.48-2.3,9.68-3.55,1.17-.45,2.52-1.15,1.81-2.76s-2.06-1.46-3.43-1c-1,.35-1.94.76-3.15,1.24a6,6,0,0,1,5.47-2.78,26,26,0,0,0,5.69-.67c.72-.16,1.24-1.17,1.85-1.79a19.29,19.29,0,0,0-1.85-1.77,4.14,4.14,0,0,0-1.41-.4c3.7-1,7.49,1.3,11.49-.91a7.07,7.07,0,0,0-1.09-2,9.73,9.73,0,0,0-2.34-1.12,3,3,0,0,1,2.1-.47c1.23.25,2.42.68,3.63,1,3,.84,3.78.2,3.33-3l1.81-.1c1.95,2.93,2.56,3,5.2.47,4.25.69,6.24,3.66,7.31,7.45.43,1.52-.18,2.63-1.68,3.39a13.06,13.06,0,0,0-3.37,2.32,2.68,2.68,0,0,0-.32,3.79,4.79,4.79,0,0,0,3.52,1.51,6.42,6.42,0,0,0,3.62-2.41c5.17-7,.8-17.74-7.9-19.77-.71-.17-1.74-.11-2.06-.55-1.66-2.29-3.2-1.5-4.8,0l-2.65.13c.1-.7.18-1.26.36-2.44-1.1,0-2.11-.29-2.81.06a7,7,0,0,0-2.46,2.23c-1.12,1.64-2.71,2.1-4.72,2.5a5.88,5.88,0,0,0,.72-1.63,25.38,25.38,0,0,0-.1-2.89c-.93.28-2.18.29-2.73.92-1.37,1.57-2.36,3.47-3.61,5.17-.85,1.16-1.88,2.21-2.83,3.31l-.45-.31c.66-2.39,2.85-4.56,1-7.78-.88.69-1.87,1.09-2.24,1.81-1.51,2.93-2.8,6-4.21,8.94-.49,1-1.08,2-1.62,3,.17-2.07.89-3.87,1.12-5.74.11-.87-.74-1.86-1.16-2.8-.87.57-2.17,1-2.53,1.75a33.44,33.44,0,0,0-1.77,5.87c-.39,1.61-.6,3.27-.89,4.91-.23-1.5.06-3-.33-4.36a4.36,4.36,0,0,0-2.27-2.62c-.61-.24-2.06.75-2.6,1.56a46.31,46.31,0,0,0-2.67,5.2c-2-2.5-2.58-2.87-4-2.39a4.68,4.68,0,0,0-2.85,4.59c.05,1.12.32,2.23.47,3.34s.32,2.36.48,3.62c-1-.93-1.79-1.75-2.68-2.42C429.19,334,427.73,332.9,425.89,334ZM413,291c.49-2.56.93-5.14,1.38-7.6,1.25,2.18,2.23,14.05,1.3,16.61l-4.08-2.13C412.08,295.66,412.59,293.32,413,291Zm-10.14-30.91c2.57,2.07,5.7,4.07,6.46,7.95,1.9,9.7,3.24,19.7-.52,29-3.46,8.58-4.86,17.94-9.85,25.9a25.94,25.94,0,0,1-3.55,4.43A12.37,12.37,0,0,1,395,319a38.3,38.3,0,0,0,1.81-8.28c.37-4.58-1.48-8.47-4.5-11.92a81.51,81.51,0,0,1-5.81-7.75,6,6,0,0,1-1.07-3.36c.21-5.13-2.31-9.08-5.39-13C388.68,271.36,396.56,267.27,402.89,260.07Zm-6.14-7.86a6.73,6.73,0,0,0,1.07,1.88c2.2,2.67,2.18,4.81-.38,7.19a36.87,36.87,0,0,1-5.45,4.29c-3.8,2.35-7.67,4.63-12.63,5.8,3.83-4.84,6.47-9.55,6.78-15.31.33-6-2.75-10.24-7.61-13.77C386.41,240.88,394.13,245.27,396.75,252.21Zm-26-7.77a6.85,6.85,0,0,0-6.08-5.23,10.81,10.81,0,0,1-1.66-.48,10.74,10.74,0,0,1,12.09,3.64,28.88,28.88,0,0,0,3.7,4.37c3.67,3.15,4.62,6.9,3.17,11.4a19.75,19.75,0,0,1-5.78,9.07,8.57,8.57,0,0,1-7.42,1.83c-1.42-.23-2.83-.52-4.43-.81,1.63-2.81,3.36-5.2,4.47-7.85a42.16,42.16,0,0,0,2.9-9.58C372,248.78,371.32,246.5,370.71,244.44Zm-7.93-34.68c-2.92-5.33-2.27-13.47,1.83-18.65,0,5.95,4,8.83,7.65,11.8-1.53,3.06-1.32,5.3,3.18,6.85.15,1.2.31,2.51.51,4.06a32.4,32.4,0,0,0-3.75-2.41c-1.44-.65-3.08-.84-4,.86s.06,2.93,1.44,3.83c.94.6,2.07.92,3,1.57a29.89,29.89,0,0,1,2.77,2.51c-1.22,2.66-2.22,4.8-3.16,7-.09.23.17.61.25.89,1.32.9,2.23.45,3.13-.61a5.55,5.55,0,0,1,9.22,1.69c1,2.92.81,5.59-1.51,7.88a20.24,20.24,0,0,0-1.69,2.18c-2.09-.27-4.57,1.3-6.52-1.35a7.44,7.44,0,0,0,1.8-.65,17.6,17.6,0,0,0,3.57-3,2.74,2.74,0,0,0-.14-3.82c-1.15-1.08-2.45-.5-3.47.22a17,17,0,0,0-2.85,2.71,5.76,5.76,0,0,1-4.66,2.2c-4.36-.06-8.6.4-12.22,3.26a7.16,7.16,0,0,1-2.38.66,18.64,18.64,0,0,1,4.68-11.76c1.24.79,2.27,1.86,3.45,2.08a3.93,3.93,0,0,0,2.9-1.26,3.3,3.3,0,0,0-1.55-5.53,6.11,6.11,0,0,0-6.35,1.8c-1.06,1-1.93,2.29-3.25,3.88.2-3.33-1-6.17.9-9,.93-1.35,1.11-3.21,1.76-5.27.84,0,1.87,0,2.89,0C363.56,214.24,364.41,212.74,362.78,209.76Zm-4.51-15a10.7,10.7,0,0,1,.09,2.76c-.92,4.65-1,9.19,1.57,13.71l-2.5.47c-3.92-6.94-4.48-14.32-4.43-21.82,0-2.1-.2-4.2-.3-6.29C355,187.18,358,190.33,358.27,194.74Zm-1.41,46.77c2.62-1.07,5.39-.46,7.94.53a5.35,5.35,0,0,1,2.53,2.29,11.53,11.53,0,0,1,.9,9,45.7,45.7,0,0,1-8.62,15.73c-2.65,3.32-6.67,4.36-10.73,4-3.17.29-5.8-.22-7.93-2.61a7.67,7.67,0,0,1-2-6.23A101.89,101.89,0,0,1,341,253a9.83,9.83,0,0,1,5-6.43A117.07,117.07,0,0,1,356.86,241.51Zm-11.6-30c2.14-6,2-12.31,2.24-18.59.12-3,1.26-6,1.94-8.93l1,.17c.18,2.62.4,5.23.52,7.85.14,3,.31,5.95.23,8.91a9.89,9.89,0,0,1-1.05,3.66c-1.07,2.3-2.31,4.53-3.48,6.8l.44.36-1.64.46C345.36,211.83,345.21,211.61,345.26,211.47Zm-10.81,23.75c.94-.46,1.92-.85,3.29-1.46a35.6,35.6,0,0,0-1.34-4.48,3.4,3.4,0,0,1,1.15-4.68,5,5,0,0,0,1.21-1.3,1.94,1.94,0,0,0-1.7-3.07,15.15,15.15,0,0,0-2,.27c.08-.95.16-1.78.22-2.51,4.31-2.89,4.08-4.45,3.26-5.91.56-5.85,1.05-10.89,1.53-15.85,2.6,1.43,4.32,5.58,3.58,8.92-.51,2.32-1.1,4.64-1.48,7a30.1,30.1,0,0,0,0,4.35L347,215.3c3.65,4.09,4,9.1,3.76,14.54-.67-.64-1.18-1.17-1.74-1.65-2.08-1.8-4.31-3.15-7.22-2.17-1.42.48-2.47,1.32-2.48,3a3.13,3.13,0,0,0,2.24,3.17,2.9,2.9,0,0,0,3.6-1.34c.15-.22.33-.4.64-.77,3.58,2.53,4.1,6.42,5.07,10.55-2.81-.34-5.32-.73-7.11-2.74-1.1-1.24-2.26-2.24-3.88-1.81-1.09.28-2.66,1.05-2.86,1.88a3.81,3.81,0,0,0,1.32,3.31,42.18,42.18,0,0,0,6.47,2.74l-2.41,1.83c-1.77-.93-3.39-1.66-4.89-2.6a20.43,20.43,0,0,1-4.16-3.13C331.73,238.34,332.29,236.29,334.45,235.22ZM320.9,250.44c6.79-4.89,13-7.2,18.12-2.64-1.34,4.38-3.09,8.39-3.71,12.57s-.14,8.54-.14,12.77c-4.25,2.23-10.86.27-13.93-4.05C317.64,264,317.1,253.18,320.9,250.44Zm-12.53,33.41,2.46,1.07c0,3.71-.17,7.14.05,10.54s.82,6.58,1.28,10C308.68,302.52,306.77,288,308.37,283.85Zm.38-16.5c1.56-3.57,3.56-6.94,5.35-10.4a4.27,4.27,0,0,0,.25-.79l.57.33c-.84,6.72-.82,13.26,3.72,18.86l-5.12,4.08C309.63,277.68,307,271.48,308.75,267.35Zm13.84,86.76a57.21,57.21,0,0,0-2.87-8.61c-1-2.54-2.19-5-3.15-7.51a20.5,20.5,0,0,1-1.31-10.52c.33-2.15.38-4.34.57-6.69l1.7-.47c4.37,4.28,5.55,4.41,10.69,1.2a5.47,5.47,0,0,0,1.6.9,9.49,9.49,0,0,0,2.31-.1c-.21-.76-.2-1.93-.68-2.19a32.34,32.34,0,0,0-6.26-2.77,15.21,15.21,0,0,0-4.73-.27c-1.57.05-3.13.32-4.82.52-.49-2-1-3.84-1.58-6.3,4,.26,7.74.28,11.43.79,5.91.81,8.73,4.3,8.93,10.33.23,7-1.8,13.47-3.86,20-1.18,3.74-.11,6.87,3.07,8.11a10.94,10.94,0,0,0,2.65.38l.31-.69-4.13-4.48c1.08-3.69,2.17-7,3-10.4,1.2-4.76,2.28-9.56,1.59-14.53-.59-4.23-2.42-7.66-6.37-9.7a6.76,6.76,0,0,1-1.46-1,8.31,8.31,0,0,0-6.13-2.38c-3.26.17-5.82-1.5-8.49-3.06-.72-5.8-1.85-11.59-.88-17.52.71-4.4,2.37-8.12,6.56-10.31,5.92,2,11.85,4.26,17.78-.31,5,1,10.28,2.16,15.3.14,5.28-2.13,10.52-2.27,16-1.47a7.6,7.6,0,0,0,3.14-.28,3.43,3.43,0,0,1,4.09,1.16,71.39,71.39,0,0,1,5,7.59,6,6,0,0,1,.17,3.86c-1.42,5.9.95,10.45,4.84,14.53.27.29.55.58.83.86,3,3.08,4.9,6.32,3.5,11a18.88,18.88,0,0,0,.64,11.93c.77,2.12,1.84,4,4.37,4.72a32.57,32.57,0,0,1-.66,4.52c-1.88,6.41-3.48,12.95-5.94,19.14-2.85,7.17-8.34,12.46-14.33,17.21q-8.16,6.48-16.16,13.15c-2.8,2.34-5.68,3.09-9.19,1.78a44,44,0,0,0-6-1.31,43,43,0,0,1-4.81-1.1,7.51,7.51,0,0,1-4.67-4.71,91.17,91.17,0,0,0-6.09-11.78A42.17,42.17,0,0,1,322.59,354.11Zm7.05,72.68a4.27,4.27,0,0,1-.72,2c-4.81,5.95-9.67,11.86-14.51,17.78l-.4-.28c.84-3.37,2-6.7,2.45-10.13,1-7.53,1.54-15.12,2.38-22.67,1.1-10,.74-20.15,4-29.83a39.58,39.58,0,0,1,2.64-6A16.16,16.16,0,0,1,327.9,375a26.18,26.18,0,0,1,3,4c1.71,3.6,3.58,7,7.92,8.61-1.28,2.92-2.31,5.71-3.69,8.31a24.84,24.84,0,0,0-2.61,9.08C331.68,412.25,330.64,419.52,329.64,426.79Zm71.94-66.32c-11.23,7.1-20.49,16.49-29.92,25.7a107,107,0,0,1-10.29,8.7c-7.68,5.86-14.28,12.8-20.58,20.05-1.74,2-3.42,4.05-5.09,6.1a12.83,12.83,0,0,0-1,1.68l-.61-.51c.42-3.72.86-7.43,1.26-11.15.23-2.1.34-4.22.62-6.32a24.05,24.05,0,0,1,1-5c1.39-3.7,3-7.31,4.7-11.37,1.46.23,3.54.18,5.28.93,5.66,2.44,10.74.73,15.5-2.07A81,81,0,0,0,388.05,364c4.11-5.84,6-12.77,7.95-19.59a72.52,72.52,0,0,1,2.57-8.12c.66,8,.52,16,3.52,23.61A2.87,2.87,0,0,1,401.58,360.47Zm.93-17.2-.66-.13c-.17-1.9-.34-3.79-.52-5.85l4-.3C404.3,339.27,403.4,341.27,402.51,343.27Zm-3.73-10.21c.11-1.49.22-3.05.33-4.53.95-1.14,1.82-2.21,2.7-3.27,2.93,2.06,3.92,1.95,4.15-.38l-2.21-1.78c2-6,3.83-11.57,5.78-17.47.54,1.08,1,2,1.42,2.88,1.37-1.58,1.18-2.68-.88-5l1.4-3.25c1.14,1.2,2.48,2,2.71,3,.54,2.47,1.11,5.15.7,7.59-1.31,7.91-5.26,14.78-9.43,21.49C404.08,334.54,401.91,334.67,398.78,333.06Zm41.53,45c-3.15,3.63-7.76,2.61-11.48,4.45C430.16,378.81,436.52,376.31,440.31,378.08Zm12-38.7c-2.49,3.11-6,2.69-9.53,3.36C445.75,339.23,449.24,338,452.27,339.38Zm-8-15.25c.88,3.64-1.09,6.59-2.28,9.74C441.79,330.41,441.79,327,444.22,324.13Zm5.35,24.71c-1.77,2.59-4.59,3-11.9,1.8C439.59,347.82,447.42,346.59,449.57,348.84Zm-13.84-20.79c2.59,3.26,1.84,6.82,1.07,10.37C437,334.9,434.11,331.72,435.73,328.05Zm-2.23,18.14c-1.66-3.69-6.56-5.33-6.7-10.22C430.08,336.15,433.64,341.63,433.5,346.19Zm10.24,218.58c42-.32,73.53-33.31,74.14-74.73,0-40.68-33.55-74.32-74-74.53s-75.33,31.48-75.3,74.68C368.64,532,401.48,565.1,443.74,564.77ZM394.4,540.88l-2.66-2.46,1.62-1.76,2.13,2Zm9.72-86.26c.46,4,1.46,7.83,5.27,11l-27.43,4a64,64,0,0,1,21.31-30.36l.83.16c0,2.51,0,5,0,7.54A66.09,66.09,0,0,0,404.12,454.62Zm15.54-3.1a5.75,5.75,0,0,0-1.59-1.75,3.63,3.63,0,0,0-4.6-.3c-1.47,1-1.64,2.5-1.29,4.07.62,2.75,2.56,4.57,4.63,6.25,1.48,1.2,3,2.31,4.52,3.46-.05.22-.11.44-.16.66l-9.31,1.29a10.52,10.52,0,0,1-3.58-8.62c.1-4.48.44-9,.68-13.56a5.49,5.49,0,0,1,.91.07c3,.72,6,1.51,9.05,2.16,3.27.7,6.44,1.59,8.94,4a23.44,23.44,0,0,1,1.85,2.26c-1.67,3.41-3.3,6.71-5.19,10.56-.35-.88-.5-1.35-.71-1.79C422.44,457.32,421.1,454.39,419.66,451.52Zm1.44,6.31q-2.58-3.43-5.17-6.86C418.9,452.33,420,455.08,421.1,457.83Zm-19.61,42.26a15.58,15.58,0,0,0-4.21,1.68,3.43,3.43,0,0,0-1.73,4.07c.43,1.81,1.87,2.49,3.55,2.64,2.75.25,5-1.07,7.14-2.54,1.61-1.11,3.15-2.32,5.2-3.84l-1.69,10.11c-3.08,2-6.26,1.65-9.42.72-2.15-.64-4.22-1.56-6.33-2.31-1.92-.68-3.86-1.29-5.73-1.91,2.28-4.13,4.38-8.23,6.77-12.16a10.59,10.59,0,0,1,7.29-5.36l6.71,7.7C406.9,499.22,404.16,499.52,401.49,500.09Zm4.26.91-7.88,3.19C398.08,502.69,400.49,501.62,405.75,501Zm-18.82.64a69.47,69.47,0,0,1-4.61,7.27l-.86-.32c-3.78-12.33-3.71-24.67,0-37.6l18.67,18.2C393.06,491,389.69,495.91,386.93,501.64Zm-3.45,10.58c2.56.79,5.17,1.44,7.66,2.4a27.13,27.13,0,0,0,11,2.21,65.6,65.6,0,0,0,7-1.07c-1.44,8.32-2.64,16.75-4.87,25.12A60.81,60.81,0,0,1,382.92,513Zm45.41,18.66c-.06,6.71,3.1,11.39,7.41,15.62a19.06,19.06,0,0,1,5.26,7.82,63.55,63.55,0,0,1-35.37-11.52ZM400.23,546l-4.56-3.68,1.54-1.88,4.32,3.6Zm6.06,4.25-3.79-2.56,1.45-1.91,3.7,2.5Zm6.82,3.7-4.8-2.48,1.22-2.06,4.47,2.22Zm6.4,2.56-4.32-1.69c.31-.81.54-1.38.85-2.19l4.33,1.68C420.06,555.13,419.82,555.75,419.51,556.55Zm8.29,2.37-5.71-1.49c.16-.82.27-1.37.45-2.25l5.49,1.35C428,557.35,427.89,558,427.8,558.92Zm1.68.35L430,557l4.77.75c.07.67.14,1.29.25,2.39Zm12.18,1.32-4.31-.25c0-.73-.07-1.34-.12-2.31l4.43.32Zm1.6-12.71c-3.43-4.23-7-8.37-10.21-12.74-1-1.4-1.26-3.4-1.94-5.38l10.28-5.48c-.55,2.8-1.21,5.33-1.52,7.91a18.55,18.55,0,0,0,.26,5.09,3.24,3.24,0,0,0,3.11,2.63,3.4,3.4,0,0,0,3.51-2.12c1.35-2.59.86-5.28.19-7.94-.4-1.58-.92-3.13-1.39-4.69l.43-.36,8.14,4.29c.63,3.41-.63,6.11-2.45,8.5C449,541.06,446.17,544.35,443.26,547.88Zm-1-18.52V537C440.79,534.56,441.45,532,442.22,529.36Zm6.27,19.35c2.14-3.09,4.64-6,6.37-9.28,1.32-2.54,1.69-5.58,2.54-8.63l22.8,12c-10.75,7.26-22.07,11.25-35.39,11.52C446.22,552.15,447.32,550.41,448.49,548.71Zm36.27-40.92a3.85,3.85,0,0,0,5.06-1.91,3.76,3.76,0,0,0-2.11-4.95,25,25,0,0,0-6.22-1.74,23.82,23.82,0,0,0-4.29-.05l6-7a9.3,9.3,0,0,1,6,3.67c1.49,1.94,2.76,4,4.1,6.09s2.68,4.2,4.1,6.44c-5.3,2-10.51,4-15.8,5.75-1.34.45-3,.07-4.67.07-.62-3.72-1.18-7.14-1.85-11.17a22.92,22.92,0,0,0,2.25,1.45A78.44,78.44,0,0,0,484.76,507.79Zm-5.45-4.37,7.8,2.36C484.07,506.61,481.74,504.85,479.31,503.42ZM482.62,450c-.05-2.77-.28-5.54-.34-8.31a14.41,14.41,0,0,1,.55-2.7,64.81,64.81,0,0,1,21.66,30.59L479.55,466c1-2.31,2.49-4.42,2.88-6.71C482.94,456.23,482.66,453.08,482.62,450Zm21.91,59a36.51,36.51,0,0,1-3.26-3.37c-1.15-1.53-2-3.24-3.08-4.86-3.05-4.77-6.71-8.84-12.86-10.69l18.94-18.44C508.6,475.35,508.76,500.87,504.53,509Zm-.7,3a64.46,64.46,0,0,1-22.1,29.71c-1.45-8.5-2.82-16.46-4.18-24.47,2.34.16,4.5.7,6.5.35a65.54,65.54,0,0,0,8.86-2.63c2.69-.88,5.33-1.93,8-2.8A13.38,13.38,0,0,1,503.83,512Zm-58.47,48.59c-.13-.68-.24-1.27-.41-2.2l4.88-.43c.06,1,.09,1.58.14,2.37Zm6.76-.42c-.06-1-.1-1.54-.15-2.34l3.65-.57c.26.72.46,1.29.77,2.12Zm6.61-1.18-.85-2.18,4.28-1.2.55,2.25Zm6.44-1.73c-.33-.84-.56-1.45-.88-2.26l5.76-2.15c.39.63.73,1.15,1.26,2Zm8-3.24c-.41-.88-.65-1.41-1-2.22l3.83-1.83c.46.67.81,1.19,1.33,1.93Zm6-3.16-1.07-2.12,3.94-2.58,1.43,2Zm6.83-4.64-1.45-1.83c1.36-1.14,2.6-2.18,3.94-3.32l1.65,1.87Zm5.39-4.85L490,539.72l3.06-3.2,1.56,2.15Zm5.23-4.94L494.54,535c1-1.34,2-2.57,3.14-4l1.87,1.54Zm4.67-6-2-1.53,2.62-4.09,2,1.52Zm3.83-6.17-2.22-1.06c.64-1.27,1.2-2.35,1.84-3.61l2.11,1.34Zm2.83-5.72-2.25-1,1.48-3.84,2.24,1.15Zm2.62-6.68-2.37-1c.45-1.69.87-3.3,1.35-5.16l2.41.67C511.48,508.14,511.06,509.81,510.55,511.8Zm1.9-7.57-2.52-.36c.23-1.32.44-2.5.68-3.86l2.52.21Zm1.06-6.69-2.57-.13c.17-1.74.33-3.32.49-5h2.51C513.8,494.05,513.67,495.63,513.51,497.54Zm.61-7.52-2.6-.23c-.15-2-.3-3.82-.46-5.89h2.64C513.84,485.88,514,487.8,514.12,490Zm-.76-8.89-2.53.51c-.23-1.42-.44-2.66-.66-4.06l2.52-.6C512.92,478.42,513.13,479.7,513.36,481.13Zm-1-6.26-2.6.61-1.2-4.55,2.51-.86C511.55,471.73,512,473.2,512.39,474.87Zm-2-7.57-2.58,1c-.6-1.59-1.17-3.07-1.78-4.69l2.4-1.11Zm-2.86-7.08-2.44,1.33-2-3.95,2.36-1.4Zm-3.27-6.17L502,455.66c-.85-1.32-1.61-2.5-2.45-3.82l2.26-1.61C502.65,451.56,503.39,452.74,504.22,454.05Zm-7.31-10.32,3.38,4.29-2.23,1.64-3.26-4Zm-4.8-5.12,3.12,3.28-2,2.11-2.87-3.51Zm-5.33-4.51,3.43,2.88-1.89,2-3.47-2.82C485.55,435.45,486.08,434.88,486.78,434.1Zm-6.72-4.68,4.55,3-1.84,2.22-4.3-2.83Zm-5.69-3.08,3.68,1.94c-.5.84-.88,1.5-1.4,2.37L473.12,429C473.58,428,473.92,427.31,474.37,426.34Zm-7.44-3.13,5,1.94-1,2.68L466,426C466.32,425,466.58,424.24,466.93,423.21Zm-7-2,4.77,1.21c-.24,1-.43,1.81-.67,2.84L459.46,424C459.61,423.05,459.74,422.3,459.92,421.2Zm-6.83-1.44,4.46.85c-.18,1-.31,1.74-.5,2.78l-4.31-.74C452.87,421.56,453,420.81,453.09,419.76Zm-8.52-.69,6.06.41c-.11,1.09-.2,1.86-.31,2.94l-5.75-.5Zm35.94,18.15c-2.24.93-4,1.77-5.8,2.39-3.44,1.17-7,2-10.34,3.38a14.5,14.5,0,0,0-8.05,7.62l-12.5-25.29A65.68,65.68,0,0,1,480.51,437.22Zm-9.2,21a15.7,15.7,0,0,0,2.5-3.55,3.52,3.52,0,0,0-.92-4.66,3.28,3.28,0,0,0-4.55.12,27.67,27.67,0,0,0-4.15,5.87,36.83,36.83,0,0,0-2,5.33l-.56.1c-1.39-2.77-2.78-5.55-4.15-8.27a8.27,8.27,0,0,1,4.51-4.95,34.92,34.92,0,0,1,5.58-2c3.29-.93,6.62-1.73,9.84-2.57.43,4.57,1,9.2,1.26,13.85a11.16,11.16,0,0,1-2.4,7.9l-11.05-1.47C467.51,461.83,469.5,460.11,471.31,458.23Zm-3.57.91,4.32-6.41C472,455.75,469.7,457.38,467.74,459.14Zm-8,8.49,37,5.4L470,499.1c2.07,12.13,4.12,24.11,6.17,36.09l-.45.41-32.48-17-32.49,17-.48-.37c2.06-12,4.11-23.94,6.2-36.11l-26.59-25.95c1.66-.33,2.91-.65,4.17-.83,10.21-1.48,20.43-3,30.66-4.37a3.47,3.47,0,0,0,3-2.2q7.2-14.75,14.48-29.42c.28-.57.6-1.12,1.13-2.11ZM430.92,449c-1.92-3.13-4.12-5.58-7.31-6.74a59,59,0,0,0-7.58-2.18,30.11,30.11,0,0,1-9.12-3.1c5-5.74,27.54-13,35.58-11.36Zm6-29.54,4.71-.48c.07,1.06.12,1.86.19,2.87l-4.9.54Zm-3.3.25c.19,1,.34,1.76.56,2.85l-4.15.69c-.14-1-.25-1.8-.38-2.8Zm-6.94,1.4c.37.91.67,1.62,1.08,2.62l-4.3,1.21c-.32-1-.57-1.69-.92-2.71Zm-6.89,1.95c.34.93.61,1.7,1,2.73l-4.42,1.74c-.33-1.06-.55-1.79-.84-2.75Zm-7,2.94,1.22,2.63-3.55,1.71c-.38-.89-.69-1.63-1.08-2.58Zm-5.9,3.08,1.61,2.42c-1.28.8-2.42,1.53-3.71,2.35l-1.58-2.28Zm-6.17,4.16,1.65,2.33-3.47,2.8L397.34,436Zm-5.27,4.52,1.81,2c-1,1.1-1.79,1.9-2.66,2.81l-2.22-2Zm-5,4.92,2.17,1.78-3.1,3.71-2.28-1.68Zm-5,6.22,2.24,1.64-3.27,5.07-2.18-1.75C383.3,452.24,384.31,450.67,385.47,448.89Zm-4.64,7.5,2.42,1.32c-.54,1.06-1,2-1.56,3.06l-2.33-1.24C379.85,458.47,380.29,457.54,380.83,456.39Zm-2.7,5.67,2.45,1.19c-.59,1.54-1.12,2.95-1.72,4.53l-2.48-1.08Zm-2.76,7.67,2.56.71c-.49,1.93-.95,3.74-1.45,5.68l-2.63-.48C374.38,473.56,374.85,471.74,375.37,469.73Zm-2,8.68L376,479c-.2,1.32-.35,2.34-.54,3.61l-2.52-.48C373.11,480.84,373.23,479.76,373.4,478.41Zm-.73,6.94,2.64-.22c-.14,1.7-.26,3.22-.4,4.94l-2.57.19C372.46,488.44,372.56,487,372.67,485.35Zm-.14,7.93,2.58-.12c.15,1.78.28,3.38.44,5.24l-2.6.3C372.8,496.77,372.68,495.16,372.53,493.28Zm.84,8.21,2.52-.22c.25,1.2.49,2.32.77,3.63l-2.45.75C373.91,504.15,373.67,503,373.37,501.49Zm1.45,6.47,2.32-.79c.39,1.29.72,2.43,1.13,3.8l-2.51.4C375.39,510,375.14,509.11,374.82,508Zm2.21,7,2.4-.91,1.57,4.1-2.28.77Zm3,6.82,2.2-1.15,1.35,2.63-2.11,1.16Zm2.78,5.08,1.85-1.69,2.53,3.88-1.93,1.46ZM387,532.9l1.84-1.71,3.05,3.77-2.06,1.27ZM194.62,671.7V418.81l-4.13,3.07V675.27c12.51,2.29,20.94,8.42,21.83,22.16a11,11,0,0,0,1.47.16q58.83,0,117.66,0c3.21,0,4.42-2.46,6.29-4.35H216C213.31,681.65,206.89,673.93,194.62,671.7ZM580.36,421.86l-4.29-3.17V671.75c-12.21,2.28-18.56,10-21.26,21.59H432.6c2.63,2.47,4.64,4.65,8.4,4.32,4.6-.4,9.27-.1,13.9-.09h102c.57,0,1.15-.08,1.66-.12.89-13.78,9.34-19.89,21.83-22.21ZM577,76.4v243l4.15-3.05V72.85c-12.58-2.31-21-8.5-21.84-22.3h-4q-57.35,0-114.68-.07c-3.41,0-4.77,2.37-6.72,4.36H555.62C558.3,66.45,564.74,74.16,577,76.4ZM191.28,72.58V316.3l3.8,2.77.54-.31V76.15a21.39,21.39,0,0,0,14.06-7.05,25.78,25.78,0,0,0,7-14.38H338.84c-2.46-2.92-5-4.57-8.86-4.26-4.6.36-9.26.08-13.9.08l-101.56,0a16.56,16.56,0,0,0-1.8.22c.73,6.22-2,11-6.15,15.1A23.37,23.37,0,0,1,191.28,72.58ZM415,76.1H355.6v49.76H415Zm-4.11,45.48h-51V80.41h51Zm-116,374-.06-.5-1.89-.33c-4.61-.76-9.05-2-12.94-4.73a8.6,8.6,0,0,1-3.79-6.21c-.95-6.82-2.12-13.6-3.22-20.4a9.51,9.51,0,0,0-.59-1.53,16.17,16.17,0,0,0-.5,1.68c-1.06,6.54-2.26,13.05-3.1,19.62-.47,3.66-2.15,6.38-5.4,7.73-3.75,1.57-7.73,2.61-11.61,3.86a17.57,17.57,0,0,1-1.81.37,8.35,8.35,0,0,0,2.64.95c3.63,1.18,7.33,2.21,10.83,3.72,3.24,1.4,5,4.09,5.34,7.77.43,4.14,1.25,8.25,1.92,12.36.46,2.86,1,5.71,1.46,8.57l.46.05a10.09,10.09,0,0,0,.37-1.3c1.09-6.79,2.25-13.58,3.21-20.4a8.47,8.47,0,0,1,3.65-6.08,30.33,30.33,0,0,1,12.33-4.7ZM420.54,643.83c.91,4,1.55,8,2.46,12a7.88,7.88,0,0,0,1.6,3.09,2.05,2.05,0,0,0,1.91.53,3,3,0,0,0,1.24-1.79,10.43,10.43,0,0,0,.21-2.57q.41-14.88.79-29.76a5.74,5.74,0,0,0-.27-2.35,6.85,6.85,0,0,0-1.47-1.65l-1,.35c-.22,3.92-.54,7.84-.65,11.76s0,7.88,0,11.83l-.64.07c-1.7-8.16-4.85-15.8-7.66-23.39-1.93-.12-2.75.58-3,2a21.17,21.17,0,0,0-.38,3.54c.1,9.47.25,18.94.4,28.4a4.52,4.52,0,0,0,.33,2.13,7.53,7.53,0,0,0,1.73,1.58,13.8,13.8,0,0,0,1.49-1.86c.2-.34,0-.9,0-1.36q-.21-10.53-.42-21.06a8.5,8.5,0,0,1,.18-1.41A61,61,0,0,1,420.54,643.83ZM314.08,559.56c.31,3,.91,6,1.39,9,.37,2.32.77,4.63,1.15,6.94l.53,0c.13-.63.29-1.26.4-1.9.77-4.7,1.66-9.39,2.25-14.12a7.13,7.13,0,0,1,4.38-6.14c2.72-1.15,5.62-1.89,8.43-2.8l1.31-.42a5.62,5.62,0,0,0-1.93-.82c-2.8-1-5.66-1.81-8.35-3-2.3-1-3.46-3-3.81-5.65-.67-5-1.57-9.94-2.4-14.9a7.72,7.72,0,0,0-.43-1.31,101.51,101.51,0,0,0-2.75,15.09c-.37,4.22-2.64,6.51-6.19,7.9-2.08.82-4.28,1.32-6.44,2-.59.18-1.19.3-1.78.45a3.82,3.82,0,0,0,1.69.78c2.87,1,5.81,1.79,8.56,3A6.78,6.78,0,0,1,314.08,559.56ZM456.48,244c-.64-4.79-1.49-9.54-2.28-14.31a14.43,14.43,0,0,0-.46-1.68,2.27,2.27,0,0,0-.76,1.38c-.77,4.77-1.63,9.53-2.25,14.32-.36,2.82-1.58,5-4.13,6.09-2.71,1.17-5.58,2-8.38,2.93-.62.21-1.28.31-2.36.56,2.94.8,5.41,1.31,7.76,2.14,4.13,1.45,7.3,3.81,7.24,8.8a12.47,12.47,0,0,0,.34,2.15l2,12.29h.64c.15-.69.31-1.37.43-2.06.68-4.18,1.65-8.34,2-12.55.34-4.63,2.95-7,6.9-8.46,1.86-.67,3.8-1.1,5.71-1.62.61-.17,1.23-.29,1.85-.43a4.73,4.73,0,0,0-1.86-.82c-2.86-1-5.79-1.84-8.54-3.06C458,248.66,456.83,246.64,456.48,244ZM376.73,628.56c0,.65,0,1.29,0,1.94-.22,9.14-.46,18.28-.66,27.42a5.85,5.85,0,0,0,.35,2.51,2.12,2.12,0,0,0,1.59,1.11,2.46,2.46,0,0,0,1.61-1.38,8.63,8.63,0,0,0,.18-2.75c0-2.82,0-5.65,0-8.39,8.42-2.24,12.61-8.12,14.28-15.81s-3.69-13-11.46-11.91c-.9.13-1.79.35-2.53.5L378,619.39c-.57,1.77-.95,3-1.35,4.19-.56.41-1.15.84-1.72,1.28a14,14,0,0,0-5.37,7.44,8.12,8.12,0,0,0,.13,2.58l.69.14,5.66-6.85Zm3.26-2.42a7.31,7.31,0,0,1,6.27-.52,6.15,6.15,0,0,1,3.13,3c2.21,5.46-3.88,15.9-9.4,16.11ZM256.27,660.7c2,.37,2-1.46,2.25-2.8.4-2.31.73-4.64,1.09-7h5.57c.44,2.64.71,5.14,1.33,7.56.21.79,1.29,1.36,2,2,.5-.83,1-1.64,1.48-2.5.13-.25,0-.65-.05-1-.65-5.07-1.2-10.15-2-15.2-1-6.34-2.09-12.65-3.25-19a10.23,10.23,0,0,0-1.38-2.63l-.71.19a22.46,22.46,0,0,0-1.66,3.69c-.72,2.81-1.25,5.68-1.83,8.53-.9,4.46-1.77,8.92-2.66,13.4l-2.73.36c-1.48,2.23-1.16,2.93,2,4.46-.29,2.09-.61,4.24-.87,6.4C254.73,658.66,254.47,660.37,256.27,660.7Zm6.46-29.4h.37c.57,4.77,1.14,9.54,1.74,14.54h-4.59C261.1,640.87,261.91,636.08,262.73,631.3Zm-20.9,25.78a4.35,4.35,0,0,0,.56,2.08,1.4,1.4,0,0,0,2.55,0,3.58,3.58,0,0,0,.45-1.5c.32-3.83.6-7.65.9-11.67.58-.45,1.28-1.06,2.05-1.57,5.68-3.76,7.58-9.29,7.32-15.78-.18-4.32-2.51-7.39-6-8.12-5.32-1.09-12,3.29-13.1,8.61-.26,1.28-.37,2.64,1.29,3.28,1.09-3.38,2.58-5.23,4.92-5.91-.22,5.9-.45,11.72-.64,17.53C242,648.4,241.87,652.74,241.83,657.08Zm9.82-27.89c.07,4.13-.79,7.88-4.45,10.43-.25.17-.53.3-.94.53-.23-5.09-.46-10-.69-15C249.2,624,251.59,625.57,251.65,629.19Zm192.68,29.95c-.11.67.66,1.48,1,2.23a8.28,8.28,0,0,0,2.09-1.36,5.42,5.42,0,0,0,.63-2.06l2-8.12h5.84c.14.73.28,1.43.41,2.14.39,2.28.66,4.59,1.22,6.83.17.68,1.15,1.16,1.76,1.74a8.45,8.45,0,0,0,1.51-2.16,5.83,5.83,0,0,0-.19-2.35c-.61-4.31-1.27-8.62-1.83-12.95-.81-6.29-1.51-12.6-2.34-18.89a14.7,14.7,0,0,0-1-2.92l-.8,0a13.1,13.1,0,0,0-1.38,2.61c-1.66,6.12-3.24,12.27-4.85,18.41-.29,1.14-.62,2.26-.9,3.25-1.53.74-3.76-.19-4.11,2s1.88,1.74,3,2.44c-.19.85-.34,1.62-.52,2.39C445.35,654.63,444.68,656.86,444.33,659.14Zm9.6-25.23.43,0c.37,3.64.73,7.28,1.12,11.11h-4.24C452.16,641.26,453,637.58,453.93,633.91Zm-115.23-4,.06-.2a31.35,31.35,0,0,0-1.71-5.2c-1.91-3.65-5.51-3.94-7.64-.44a25,25,0,0,0-3.65,8.68,61.91,61.91,0,0,0-.54,13.61c.27,4.21,1.37,8.36,4.24,11.76,2,2.33,4.51,2.47,6.41.12a13.7,13.7,0,0,0,2.22-3.94c2.58-7.15,2.73-14.51,1.7-21.95A10.11,10.11,0,0,0,338.7,629.89Zm-4,22.93a25.66,25.66,0,0,1-2,3.24,15.27,15.27,0,0,1-1.75-2.78,39.05,39.05,0,0,1,.64-25.87,15.71,15.71,0,0,1,2.1-2.91c1.34,2.3,2.35,4.06,3.14,5.41,0,1.85-.1,3.22,0,4.57C337.37,640.75,337,646.91,334.69,652.82Zm-31.08-26.18c1.64,0,3-.54,2.92-2.45s-1.51-2.25-3.09-2.26c-1.79,0-3.58.06-5.36,0-4.43-.29-4.78,0-5.4,4.42a11.9,11.9,0,0,0-.15,1.58q0,14.8,0,29.6c0,1.94.81,2.8,2.7,2.48,2.9-.5,5.75-1.36,8.63-2,1.34-.32,2.5-.88,2.25-2.48s-1.55-2.11-3-1.93a27.34,27.34,0,0,0-3.65.89c-.88.23-1.74.5-2.68.77V644.75a59.56,59.56,0,0,0,6.85-1.22,2.86,2.86,0,0,0,1.62-2.25c0-.71-1.17-1.49-2-1.94-.49-.28-1.3,0-1.95,0-1.49.19-3,.41-4.61.64-.31-4.61-.6-9-.89-13.38C298.59,626.64,301.1,626.66,303.61,626.64Zm-23.67-2.08.91.05q1.93,3.14,3.85,6.27l.74-.1c.19-.74.7-1.57.52-2.2a23.06,23.06,0,0,0-2.23-5.85,3.88,3.88,0,0,0-6.44-.62,17,17,0,0,0-3.65,6A44.92,44.92,0,0,0,272,646.17a20.78,20.78,0,0,0,1.8,6.65,7.33,7.33,0,0,0,6.47,4.31c2.82.14,4.16-2.16,5.14-4.33a48.75,48.75,0,0,0,2.48-7.31,2,2,0,0,0-1.76-2.77,21.15,21.15,0,0,0-4.55-.3c-.8.07-2.08.81-2.17,1.39a3.75,3.75,0,0,0,1.16,2.59c.52.55,1.52.66,2.63,1.09l-2.57,4.69c-3.09-.7-4.11-2.61-4.46-5a43.79,43.79,0,0,1,1.29-18.67C277.82,627.08,279.07,625.87,279.94,624.56ZM346.16,50.47c3.16.64,6.36,1,9.73,1.55a11.81,11.81,0,0,0-1.26,3,5.83,5.83,0,0,0,.41,3.64c.87,1.34,2.51,1,3.79.3,4.15-2.17,7.29-5.26,8.35-10,.86-3.83-.48-7.22-2.76-10.15a24.76,24.76,0,0,0-5.47-5.3c-2.05-1.38-4.17.13-4.06,2.64a12.3,12.3,0,0,0,.84,3.43,33.51,33.51,0,0,0,1.54,3.18,21,21,0,0,0-2.12,0c-3,.34-6,.57-9,1.14-1.75.33-4,.81-3.9,3.21C342.32,49.38,344.34,50.1,346.16,50.47Zm11.21,6.33-.62-.44,2.88-4.92,4.48-.91C362.28,53.5,360.35,55.75,357.37,56.8Zm.8-20.27c2.61,1.79,4.34,4.31,5.94,7.51l-3.79-.89c-.89-2-1.81-4.17-2.73-6.3Zm6.63,10.76a38.21,38.21,0,0,1-19.35,0C348.06,45,360.94,45,364.8,47.29ZM426.65,698a2.84,2.84,0,0,0-1.49-.49c-3.06-.48-6.13-.93-9.37-1.41a17.29,17.29,0,0,0,1.4-3.61c.17-1,.06-2.5-.56-3a3.76,3.76,0,0,0-3.23-.5,16.24,16.24,0,0,0-4.49,2.82c-7.29,6.26-5.13,19.15,3.78,22.88a4.18,4.18,0,0,0,.56.2,2.56,2.56,0,0,0,3.49-2.41,9.34,9.34,0,0,0-.55-3.3,30.19,30.19,0,0,0-1.52-3.33c4-.66,8-1.22,11.89-2,1.43-.27,3.16-1.1,2.79-2.79C429.09,699.89,427.66,699,426.65,698Zm-12-6.87c-1.3,4.84-2.72,6.15-7,6.21A13,13,0,0,1,414.66,691.15Zm-1.2,20.41c-2.61-1.75-4.25-4.32-6-7.45,1.14.22,1.78.34,2.41.48.38.08.76.21,1.43.39.86,2,1.8,4.1,2.73,6.22Zm-6.13-10.39c2.54-2.12,14.93-2.13,18.79.1C422.35,703.11,411,703,407.33,701.17Zm-49.94-12.25a3.45,3.45,0,0,0-3.06.46,4.29,4.29,0,0,0-.64,3.2,16.45,16.45,0,0,0,1.42,3.63c-2.81.34-5.52.49-8.15,1a13.05,13.05,0,0,0-4.66,2c-1.48,1-1.28,2.85.29,3.79a10.14,10.14,0,0,0,3.49,1.35c3.37.53,6.76.85,10.14,1.25a47,47,0,0,0-1.94,4.73c-.46,1.48-.57,3.09.94,4.15a3.07,3.07,0,0,0,4.16-.62,40.28,40.28,0,0,0,5.49-6.7C369.82,699,363.44,691.29,357.39,688.92Zm-.75,22.69,2.9-6.66,3.3-.77C362.5,706.6,359.43,710.5,356.64,711.61Zm-11.72-10.38a30.17,30.17,0,0,1,18.63-.18A31.64,31.64,0,0,1,344.92,701.23Zm13.94-4.55c-.9-1.53-1.91-3.22-2.91-4.91l.59-.44c3,1,4.88,3.29,6.82,6.26ZM172.71,340.41a40.94,40.94,0,0,0,6.74,5.4c8.05,4.81,15.7-1.46,18.1-7.48a3.64,3.64,0,0,0-.52-3.21c-.64-.64-2.16-.7-3.22-.53a15.35,15.35,0,0,0-3.39,1.33c-.54-3.39-1-6.66-1.62-9.88-.36-1.75-1.12-3.66-3.27-3.72-2.3-.07-2.83,2-3.16,3.73-.68,3.61-1.08,7.27-1.6,11-1.33-.56-2.85-1.35-4.46-1.86s-3.22-.69-4.33.89S171.55,339.32,172.71,340.41Zm17.11-.69,4.92-2.89c.14.21.29.41.44.61-1,3-3.31,4.89-6.27,6.78C189.24,342.58,189.5,341.32,189.82,339.72Zm-4.75-13.92c2.31,3.69,2.37,15.24.17,19.07A37.16,37.16,0,0,1,185.07,325.8Zm-9.77,11.88,6.23,2.71.89,3.77a18.6,18.6,0,0,1-7.47-5.85Zm46,315.65a3,3,0,0,0,4-.57,39.36,39.36,0,0,0,5.54-6.65c5-8.15-1.06-15.76-7.27-18.37a3.66,3.66,0,0,0-3.23.46c-.65.62-.76,2.15-.6,3.21a15.12,15.12,0,0,0,1.33,3.42c-3.47.58-6.87,1-10.21,1.76-1.62.34-3.31,1.16-3.39,3.14s1.82,2.51,3.35,3.1a7,7,0,0,0,1.53.42c3.28.4,6.55.76,9.89,1.15-.64,1.58-1.44,3.24-2,5C219.83,650.81,219.83,652.35,221.28,653.33Zm2.11-3-.56-.3,2.71-6.31,3.81-.88C227.73,646,226,648.56,223.39,650.34Zm5.75-14.2c-4.27,0-5.69-1.53-6.79-5.76C224.52,630.39,226.88,632.36,229.14,636.14Zm-18.18,4c2.52-2.18,14.9-2.41,18.65-.35C226.7,641.75,214.63,642,211,640.13Zm349.27-1.56c-.05-1.9-1.65-2.59-3.16-3.12a19.27,19.27,0,0,0-3.65-.9c-2.22-.29-4.46-.45-6.94-.69.5-1.16,1-2.15,1.37-3.19.51-1.34.93-3-.53-3.74a5,5,0,0,0-3.84-.1,14.37,14.37,0,0,0-7.7,8.13,11.76,11.76,0,0,0-.64,4.45c.19,4.67,2.92,8.09,6,11.23,2,2,4,2.44,5.27,1.49s1.58-2.91.55-5.48c-.5-1.23-1.12-2.42-1.53-3.28,3.94-.6,7.79-1.09,11.59-1.83C558.55,641.25,560.27,640.58,560.23,638.57Zm-15.16-9.7.62.44c-1,1.69-2,3.39-2.88,5l-4.45.86C540.14,632.17,542.11,630,545.07,628.87Zm-1.15,20.5-5.63-7.06.41-.55,3.38.74,2.77,6.29Zm-6.06-10.43c2.92-2.31,15.32-2.29,18.86.09A37.89,37.89,0,0,1,537.86,638.94ZM181.25,399.84a65.91,65.91,0,0,0,1.81,8.48,3.35,3.35,0,0,0,2.4,1.9c.76.08,1.79-.88,2.44-1.61a4.78,4.78,0,0,0,1-2.34c.56-3.16,1-6.34,1.51-9.61a15.44,15.44,0,0,0,3.51,1.38c1.05.16,2.58,0,3.19-.63a3.65,3.65,0,0,0,.41-3.23,14.81,14.81,0,0,0-9.43-8.7c-5.72-1.81-12.68,3-15.58,6.92-.88,1.21-1.55,2.58-.59,4s2.63,1.5,4.11,1c1.69-.51,3.29-1.31,5.19-2.09A28.66,28.66,0,0,0,181.25,399.84Zm13.94-4.69c-.14.21-.29.41-.44.62l-4.94-2.88c-.33-1.71-.57-2.91-.87-4.45C191.9,390.24,194.13,392.18,195.19,395.15Zm-9.76-7a30.24,30.24,0,0,1-.15,18.65A31.87,31.87,0,0,1,185.43,388.17Zm-10.14,6.76c-.12-.2-.24-.41-.37-.61,1.79-2.56,4.3-4.28,7.49-5.9l-.85,3.75Zm414.34-61.27c-.5-3.11-1-6.24-1.79-9.28a3.27,3.27,0,0,0-2.34-2,3.36,3.36,0,0,0-2.56,1.66,23.76,23.76,0,0,0-1.68,5.65c-.37,2-.42,4.13-.63,6.33-1.17-.51-2.17-1-3.2-1.38-1.35-.51-3-.92-3.74.54a5,5,0,0,0-.09,3.84,14.45,14.45,0,0,0,8.14,7.7,11.34,11.34,0,0,0,4.45.63c4.81-.24,8.31-3.05,11.48-6.32a7,7,0,0,0,1.55-2.72,2.45,2.45,0,0,0-2.33-3.34,11.23,11.23,0,0,0-3.65.65,30.57,30.57,0,0,0-3.58,1.7A26.14,26.14,0,0,0,589.63,333.66Zm-14,3.7c3.38-.21,5.62,2.2,6.18,6.79C579,342.32,576.71,340.41,575.6,337.36Zm9.56,7.47a37.77,37.77,0,0,1,.09-19.35C587.51,328.38,587.44,341.26,585.16,344.83Zm10.38-7.16c.13.2.25.4.37.6-1.75,2.59-4.27,4.28-7.47,5.92.33-1.46.55-2.47.84-3.75Zm-3.62,49.39c-8.16-5.14-15.81.71-18.56,7a3.92,3.92,0,0,0,.48,3.4c.55.65,2.15.69,3.21.52a19,19,0,0,0,3.82-1.5,17.09,17.09,0,0,0,0,3.23c.62,3,1,6.16,2.18,8.95,1.06,2.52,3.54,2.23,4.74-.28a9.56,9.56,0,0,0,.95-2.8c.47-3.33.81-6.67,1.22-10.09a49.46,49.46,0,0,0,4.75,1.93c1.47.46,3.09.56,4.14-.95a3.08,3.08,0,0,0-.62-4.15A39.38,39.38,0,0,0,591.92,387.06Zm-16.3,8.36c1-3.26,3.36-5.1,6.13-6.95C581.78,393.34,578.9,394.89,575.62,395.42Zm9.68,11.83a38.12,38.12,0,0,1-.12-19.64C587.42,391.81,587.48,403.84,585.3,407.25Zm4-15c-.29-1.24-.53-2.26-.78-3.29,2.3.23,6.23,3.29,7.5,6.18ZM414.46,59.28c2.58.9,4.34-.93,3.6-3.6a37.31,37.31,0,0,0-1.52-3.78c2.81-.34,5.52-.51,8.16-1A12.62,12.62,0,0,0,429.21,49c1.66-1.14,1.44-3-.33-4a9.88,9.88,0,0,0-3.33-1.24c-3.36-.51-6.75-.84-10.1-1.23.63-1.55,1.44-3.22,2-5,.43-1.42.44-3-1-4a3,3,0,0,0-4,.55,41.81,41.81,0,0,0-5.81,7.18C401.8,49.51,408.78,57.31,414.46,59.28Zm-.19-22.73.57.3-2.71,6.31-3.8.87C409.92,40.86,411.65,38.35,414.27,36.55Zm12.62,10.38C422.72,49,411.17,49,408.07,47,411.39,45.08,423.48,45,426.89,46.93ZM415.3,56.75c-2.73-.76-5-2.81-6.65-5.92C412.53,50.63,414.44,52.35,415.3,56.75Zm82.93,600.3c0,1.63.24,3.72,2.1,3.77a53.71,53.71,0,0,0,9.59-1c.46-.07,1.06-1.36,1-2s-1-1.18-1.61-1.39a5.12,5.12,0,0,0-2.14.16l-4.52.64v-13.8a32.71,32.71,0,0,0,5.67-.1,3.29,3.29,0,0,0,2.22-2c.33-1.41-.92-2.1-2.23-2.17-1.83-.09-3.66,0-5.89,0V624.72l7.77-.42c-.34-3-1.88-3.63-7.28-3.38-4.24.21-5.22.73-5.27,3.21l1.25.73v15l-.65-.38c-1.07,1-3,1.92-3.05,3-.2,2.1,2.2,1.11,3.47,1.78,0,.61,0,1.26,0,1.9C498.5,649.78,498.31,653.42,498.23,657.05ZM580,690.19c1.29-.51,2.88-1,4.34-1.74s3-1.91,2.54-4c-.45-1.88-2.15-2.41-3.73-2.33a40,40,0,0,0-8.4,1.06c-8.92,2.38-10,12.07-7.27,18.16a3.65,3.65,0,0,0,2.68,1.85c.82,0,2-1,2.51-1.79a17.62,17.62,0,0,0,1.49-3.57c2.74,2,5.41,4,8.21,5.83,1.51,1,3.42,1.74,4.95.27s.5-3.46-.49-4.87C584.65,696,582.25,693.13,580,690.19Zm3.42-5c.07.2.13.4.2.61l-6.49,2.67-3.3-2.09C577.18,685.28,580.21,684.62,583.38,685.22Zm-13.54,15.43c-1.56-3.15-1.34-6.17-.72-9.27C572.11,694,572.42,697.08,569.84,700.65Zm1.55-12.18c3.28.24,12.68,9.12,13.73,13.11C580.59,700,572.89,692.55,571.39,688.47ZM187.53,53A62,62,0,0,0,192,57.8c-1.6.63-3.18,1.12-4.65,1.85s-3,1.92-2.53,4c.45,1.88,2.14,2.4,3.73,2.33a40.23,40.23,0,0,0,8.21-1c9.08-2.39,10.16-12,7.46-18.24a3.67,3.67,0,0,0-2.68-1.85c-.82,0-1.95,1-2.51,1.78a19.81,19.81,0,0,0-1.61,3.88A26.47,26.47,0,0,0,194.55,48c-2.43-1.56-4.8-3.35-7.46-4.34s-4.21,1-3.07,3.55A29.4,29.4,0,0,0,187.53,53Zm.79,10c-.08-.23-.15-.46-.22-.69l6.43-2.6,3.33,2A18.68,18.68,0,0,1,188.32,62.92Zm13.51-15.43c1.55,3.16,1.29,6.17.68,9.28C199.47,53.87,199.2,50.92,201.83,47.49Zm-1.65,12.24a31.66,31.66,0,0,1-13.59-13A30,30,0,0,1,200.18,59.73ZM570.28,62c3.83,3.53,8.61,4.33,13.63,4,1.61-.09,3.28-.49,3.73-2.37.49-2.08-1-3.2-2.55-4s-3.1-1.26-4.44-1.79a34.33,34.33,0,0,0,2.45-2.8,78.1,78.1,0,0,0,5.42-8.21c1-2-.37-3.57-2.61-3.31a7,7,0,0,0-3,1c-2.73,1.83-5.36,3.82-8.06,5.77-.34-.94-.67-2.07-1.16-3.13-.59-1.29-1.43-2.8-3-2.31a4.75,4.75,0,0,0-2.79,2.62,21,21,0,0,0-.9,6.41A10.6,10.6,0,0,0,570.28,62Zm14,.24c-.06.21-.11.42-.16.62-3.17.78-6.2-.16-9.69-1l3.38-2.18Zm1.53-15.5a32.13,32.13,0,0,1-13.56,13A29.82,29.82,0,0,1,585.85,46.71ZM570.6,47.78c2.18,2.35,2.89,6-.56,8.93C569.07,53,569.25,50.18,570.6,47.78ZM201.43,686.2c-3.93-3.62-8.83-4.48-14-4.07-1.54.13-3.07.61-3.45,2.44s.76,2.91,2.16,3.63c1.62.84,3.36,1.45,5.14,2.2L190,691.59c-2.85,2.71-5.44,5.63-6.85,9.37-.92,2.45.31,4,2.88,3.57a7.25,7.25,0,0,0,2.93-1.11c2.61-1.78,5.12-3.69,7.83-5.67a20.32,20.32,0,0,0,.76,2.37c.65,1.51,1.22,3.26,3.3,3.19S203.6,701.6,204,700a21.28,21.28,0,0,0,.69-4.88C204.69,691.76,203.94,688.52,201.43,686.2ZM187,685.75c2.38-1.15,6.18-.8,10,.73l-3.19,2Zm-1.19,15.65a32.05,32.05,0,0,1,13.58-13A29.92,29.92,0,0,1,185.79,701.4Zm15.34-1c-2.54-2.26-2.38-5.55.54-9.32C202.34,694.45,202.58,697.46,201.13,700.44ZM410.24,657.3a2.53,2.53,0,0,0-1.58-1.67,8.31,8.31,0,0,0-3.32.17c-1.66.34-3.29.87-5,1.33V645.06l7.84-1.52c.42-2.7-.65-3.7-3.09-3.44-1.6.17-3.19.45-4.83.69-.28-5.46-.54-10.57-.81-15.92,1.24,0,2.36.06,3.46,0a24.62,24.62,0,0,0,5.1-.62,3.12,3.12,0,0,0,1.88-2.08c.21-1.39-1.12-2-2.27-1.88a89.25,89.25,0,0,0-9.23,1.2,2.76,2.76,0,0,0-1.52,2.12c-.14,10.73-.16,21.46-.21,32.19,0,1.76,0,3.53,0,5.44.54.19,1.06.58,1.48.49,3.69-.79,7.38-1.6,11-2.58A2.16,2.16,0,0,0,410.24,657.3Zm-31.9-600a2.71,2.71,0,0,0,2.28.51c.48-.22.83-1.4.76-2.1A6.48,6.48,0,0,1,386,48.5c3.72.93,5.5,3.5,5,7.31-.17,1.29.21,2.24,1.54,2.17a3.73,3.73,0,0,0,2.15-1.21,10.94,10.94,0,0,0,2.27-12,11.47,11.47,0,0,0-10.45-7.33c-4.39-.27-9,2.91-10.85,7.09C373.73,49,374.88,54.56,378.34,57.27Zm2.56-13.85a7.26,7.26,0,0,1,9.12-1c3.29,2,4.51,4.81,3.52,8.61-4.09-8.17-11.16-7-14.5-.22C377.9,48.53,378.67,45.49,380.9,43.42ZM576.54,371.06a2.27,2.27,0,0,0-1.82.72,2.91,2.91,0,0,0,.14,2c.12.4.56.72.89,1a11.3,11.3,0,0,0,13.08,1.63,11.45,11.45,0,0,0,5.86-12.18,11.57,11.57,0,0,0-10-9.43,10.62,10.62,0,0,0-9.6,3.66,2.72,2.72,0,0,0-.39,2.3c.15.43,1.31.75,2,.68,3.44-.35,5.91,1.11,7.29,4.54C582.9,369.88,580.52,371.41,576.54,371.06Zm5.11-12a6.6,6.6,0,0,1,7.55,2.06,7.24,7.24,0,0,1,.74,9.14,7,7,0,0,1-8.45,3.31C589.17,369.13,589.16,363.51,581.65,359.09ZM390.85,690.41c-.26,0-.63,1.43-.55,2.17.37,3.36-1.49,6-5.15,7.06-3.54-1.44-4.79-3.63-4.47-7.49a2.11,2.11,0,0,0-.6-1.7,2.63,2.63,0,0,0-2,0,4.26,4.26,0,0,0-1.48,1.28,11.3,11.3,0,0,0-1.5,12.44c2,3.93,6.75,6.77,10.86,6.47a11.84,11.84,0,0,0,10.45-8.18c1.27-4.35.41-8.29-2.94-11.45A3.66,3.66,0,0,0,390.85,690.41ZM390,705.22c-3.13,2.24-6.41,2.2-9.33-.09a6.81,6.81,0,0,1-2.47-7.84c3.39,6.64,10.17,8.21,14.57,0A6.66,6.66,0,0,1,390,705.22ZM194.3,361.54a2.24,2.24,0,0,0,1.83-.71,2.59,2.59,0,0,0-.13-2,4.36,4.36,0,0,0-1.33-1.45,11,11,0,0,0-11.92-1.59c-4.1,1.77-7.14,6.49-6.87,10.78a11.46,11.46,0,0,0,7,10.28c4.33,2,9.92.85,12.71-2.6a3.15,3.15,0,0,0,.53-2.46c-.11-.39-1.42-.71-2.14-.63-3.39.37-6-1.42-7.12-5.09C188.21,362.55,190.53,361.2,194.3,361.54Zm-5.09,12a6.49,6.49,0,0,1-7.4-2c-2.58-3.11-2.88-6.45-.85-9.49a7.17,7.17,0,0,1,8.42-3C182.42,362.43,181.17,369.46,189.21,373.53ZM517,649.72a8.23,8.23,0,0,0-2.48,1.3c-1.4,1.54-1.26,3.43-.54,5.24,1.5,3.75,3.58,4.58,8.1,4.24s6.73-4.16,6.32-8a23.31,23.31,0,0,0-.59-3.32c-1.26-5.17-4.41-9.16-8.2-12.66a9.41,9.41,0,0,1-3.05-9.14c.24-1.41.78-2.57,2.37-2.79s3.36-.07,4.32,1.65c.37.69.49,1.51.83,2.22a20,20,0,0,0,1.33,2.09c.51-.73.88-1,1-1.44.76-2.87-1.53-6.67-4.5-7.51-3.69-1-7.25.63-8.18,4-1.39,5-1,9.72,3,13.62.9.88,1.74,1.82,2.56,2.77a21.13,21.13,0,0,1,5.28,10.73c.4,2.66-.27,3.71-2.88,4.1-.78.11-1.56.19-2.7.34a11.67,11.67,0,0,1-1.63-3.2,12.4,12.4,0,0,1,.47-3.61Zm-46.46-23c2.08-3,4.21-2.88,6.52,0,.53.67,1.16,1.27,2.11,2.3a8.13,8.13,0,0,0,.65-2.1c-.27-3.93-5.28-6.77-8.77-5a11.83,11.83,0,0,0-5.88,7.18,41.92,41.92,0,0,0-.52,24.45,9.32,9.32,0,0,0,5.48,6.16c1.92.9,3.91.85,5.31-.76a40.67,40.67,0,0,0,4.24-6.09c.62-1,.68-2.47-.75-3.07s-2.14.57-2.81,1.73c-.93,1.61-2.06,3.1-3.11,4.64-2.6-.92-3.91-2.16-4.44-4.21a39.54,39.54,0,0,1-.44-19.45A17.57,17.57,0,0,1,470.51,626.76Zm-115.16-1.69a11.74,11.74,0,0,0,.33-1.7,2.79,2.79,0,0,0-.25-.86c-2.91-1.62-7.51-1.61-11.28.11a27.28,27.28,0,0,0-.43,3.49c0,9.66,0,19.32,0,29,0,.53.06,1.06.12,1.59.3,2.33,1,2.77,4,1.8V642.35c4.36-.08,5.6-.57,5.57-2.37-.07-4.16-3.55-1.78-5.65-2.7V626.12Zm78.16-.26a15.47,15.47,0,0,0,3.53.63c0,.41.07.73.06,1l-.72,29.33a4.6,4.6,0,0,0,.16,2.15c.39.71,1.19,1.64,1.82,1.64s1.45-1,1.74-1.68a8,8,0,0,0,.16-2.74q.14-13.5.28-27c0-1,.12-2,.19-2.89,1.5,0,2.81,0,4.12,0s2.45-.36,2.48-1.95-1.05-2.05-2.37-2.06c-3.75,0-7.5-.11-11.24.05-.72,0-1.4,1-2.09,1.56C432.25,623.56,432.75,624.49,433.51,624.81Zm53.06-.56a7.3,7.3,0,0,0-.86-2.29L485,622a13.26,13.26,0,0,0-.89,2.49,42.21,42.21,0,0,0-.5,5.13c-.34,9.07-.63,18.14-.94,27.21-.08,2.26.38,3.15,2.54,3.16,3.63,0,7.26-.31,10.88-.62.58,0,1.12-.73,2.12-1.44-3.73-3.82-8.05-1.14-11.77-2.19.15-2.15.42-4.32.42-6.5Q486.78,636.75,486.57,624.25Zm-205.4-247.2a17.38,17.38,0,0,0,.72,3.42l.51-.06c.35-2.13.2-4.54,1.19-6.31s3-2.6,4.63-3.89l-.73-.18c-2.53-.63-4.3-1.83-4.36-4.81a26.16,26.16,0,0,0-.81-4.49l-.55,0c-.31,1.79-.71,3.57-.91,5.38a4,4,0,0,1-3,3.51c-.74.25-1.49.44-2.47.74.39.3.53.49.7.52C279.52,371.49,281.13,373.54,281.17,377.05Zm7.29-6.77a1.18,1.18,0,0,1-.1-.18l-.14.11.22.06Zm197,15.8a28.62,28.62,0,0,0-.78-4.45l-.55,0c-.31,1.79-.73,3.58-.9,5.38a4.09,4.09,0,0,1-3.14,3.65c-.73.25-1.48.45-2.45.74.43.3.58.48.76.51,3.51.54,5.09,2.62,5.12,6.13a17.13,17.13,0,0,0,.72,3.41l.52-.06c.35-2.13.19-4.55,1.19-6.31s3.1-2.64,4.64-3.86l-.52-.14C487.41,390.48,485.53,389.21,485.48,386.08ZM250.29,431.29c.1,1.45.45,2.89.68,4.34a2.17,2.17,0,0,0,.9-1.61c0-4.18,1.57-7.21,6.16-8.14l-1.62-.42c-2.36-.65-4-1.83-4.06-4.62a27.51,27.51,0,0,0-.81-4.52H251c-.24,1.45-.58,2.89-.69,4.35a4.72,4.72,0,0,1-4,4.73c-.55.13-1.09.3-1.95.54a13.86,13.86,0,0,0,1.74.61A4.73,4.73,0,0,1,250.29,431.29ZM438.57,191.06a17.67,17.67,0,0,0,.72,3.6c.76-2.2.59-4.63,1.6-6.4s3.12-2.61,4.63-3.78l-.72-.18c-2.45-.7-4.34-1.79-4.36-4.82a24.88,24.88,0,0,0-.81-4.54c-.76,1.95-1,4-1.54,5.89a5.84,5.84,0,0,1-2,2.65,12.07,12.07,0,0,1-3.09,1.2c.25.21.38.41.54.44C436.89,185.66,438.59,187.55,438.57,191.06Zm61.1,65.2a28,28,0,0,0-.85-4.64,12.87,12.87,0,0,0-1.12,4.4c-.23,2.53-1.4,4.18-3.95,4.76a16.32,16.32,0,0,0-1.74.59c.42.23.63.44.86.47,3.38.5,4.82,2.53,4.89,5.85a21.16,21.16,0,0,0,.73,3.71l.4,0c.34-2.14.16-4.57,1.16-6.34s3.13-2.72,4.6-3.9l-.9-.24C501.41,260.21,499.72,259.08,499.67,256.26Zm88.44,178.27c-1.53,0-2.1,1.1-2.19,2.49a1.83,1.83,0,0,0,2,2.13,2,2,0,0,0,2.17-2.25C590.13,435.54,589.58,434.51,588.11,434.53ZM183,439.15a1.85,1.85,0,0,0,2-2.18c-.1-1.4-.72-2.46-2.24-2.45s-2,1.07-1.95,2.43A2,2,0,0,0,183,439.15Zm1.09-14c-.51-.44-2.08-.52-2.39-.13a3.52,3.52,0,0,0-.6,2.77c.45,1.56,1.83,1.38,3.28,1A2.54,2.54,0,0,0,184.05,425.16Zm402.74-.05a2.48,2.48,0,0,0-.21,3.65c2.93.62,3.77-.24,3.24-3.31C588.94,424.49,587.82,424.08,586.79,425.11ZM184.88,313a2.47,2.47,0,0,0,.17-3.62c-1.41-.37-2.8-.51-3.22,1.05a3.53,3.53,0,0,0,.66,2.75A2.49,2.49,0,0,0,184.88,313Zm402.84.19c1.13.92,2.21.46,3-.64.3-3-.45-3.71-3.41-3.11A2.6,2.6,0,0,0,587.72,313.17ZM184.8,446.47a2,2,0,0,0-4,.13c-.44,1.46.55,2.29,2,2.6C184.42,448.81,185.3,447.88,184.8,446.47Zm403.36-1.56a2.73,2.73,0,0,0-2.1,1.49c-.51,1.5.38,2.47,1.93,2.79,1.44-.25,2.44-1.05,2-2.52A2.77,2.77,0,0,0,588.16,444.91ZM332.81,45.46a1.94,1.94,0,0,0,2.09-2.3c-.09-.81-.95-1.52-1.46-2.27-1.9.25-2.56,1.1-2.61,2.36A1.9,1.9,0,0,0,332.81,45.46Zm106.69-.08c1.27.38,2.08-.69,2.11-2s-.52-2.18-2.44-2.56c-.57.77-1.66,1.61-1.58,2.3A3.22,3.22,0,0,0,439.5,45.38Zm-.73,657.26a2,2,0,0,0-2,2.38c.12.79,1,1.48,1.3,1.87,2.15,0,2.76-.85,2.77-2.1A1.89,1.89,0,0,0,438.77,702.64Zm-106.64,0a1.88,1.88,0,0,0-2.09,2.1c0,1.24.56,2.16,2.71,2.16.3-.38,1.23-1,1.36-1.83A2,2,0,0,0,332.13,702.64ZM222.65,45.7h.95c.55-.82,1.55-1.67,1.5-2.45a2.9,2.9,0,0,0-1.94-1.91,1.7,1.7,0,0,0-2,2C221.26,44.22,222.12,44.94,222.65,45.7ZM588.7,269.37a2.93,2.93,0,0,0-1.87,2,1.69,1.69,0,0,0,2,2c.86-.14,1.59-1.07,2.38-1.64l0-1C590.35,270.26,589.47,269.3,588.7,269.37ZM184.82,635.92c-.11-.89-.95-1.69-1.46-2.53l-.92,0c-.55.8-1.54,1.61-1.53,2.41a2.85,2.85,0,0,0,1.78,2A1.66,1.66,0,0,0,184.82,635.92ZM252.47,45.7h.95c.55-.82,1.55-1.67,1.5-2.45A2.89,2.89,0,0,0,253,41.35a1.69,1.69,0,0,0-2,2C251.08,44.22,251.94,44.94,252.47,45.7Zm9.82,0,1,0c.58-.78,1.62-1.56,1.62-2.34a2.89,2.89,0,0,0-1.79-2,1.69,1.69,0,0,0-2.19,1.82C261,44,261.8,44.85,262.29,45.68Zm10,0h1c.56-.8,1.56-1.61,1.54-2.4a2.88,2.88,0,0,0-1.86-2,1.68,1.68,0,0,0-2.12,1.88C270.92,44.1,271.79,44.88,272.31,45.7Zm9.89,0,.94,0c.58-.8,1.62-1.61,1.6-2.4s-1.09-1.78-1.88-2a1.68,1.68,0,0,0-2.09,2C280.86,44.15,281.69,44.9,282.2,45.69ZM586,635.89a2.9,2.9,0,0,0,2,1.86c.78,0,1.6-1,2.41-1.51,0-.32,0-.64,0-1-.82-.54-1.6-1.43-2.46-1.52A1.69,1.69,0,0,0,586,635.89ZM304.66,43.39a2.85,2.85,0,0,0-1.86-2c-.8-.08-1.68.88-2.53,1.39l0,.92c.75.56,1.44,1.42,2.28,1.6A1.7,1.7,0,0,0,304.66,43.39Zm-121,230a1.7,1.7,0,0,0,1.9-2.14,2.92,2.92,0,0,0-2-1.86c-.78,0-1.6,1-2.4,1.52v1C182.07,272.39,182.85,273.28,183.71,273.37Zm1.9-12a2.91,2.91,0,0,0-1.9-1.93c-.78-.06-1.64.91-2.46,1.43l0,1c.8.56,1.55,1.48,2.41,1.6A1.69,1.69,0,0,0,185.61,261.37ZM449.37,45.69l.94,0c.56-.8,1.58-1.63,1.55-2.41a2.92,2.92,0,0,0-1.9-2,1.68,1.68,0,0,0-2.07,2C448,44.16,448.85,44.91,449.37,45.69Zm10,0,.9,0c.56-.74,1.46-1.42,1.62-2.25.25-1.26-.61-2.13-2-2.19a1.79,1.79,0,0,0-2.07,2.07C457.93,44.18,458.81,44.92,459.34,45.69ZM588.7,249.5a2.89,2.89,0,0,0-1.87,2,1.68,1.68,0,0,0,2,2c.86-.14,1.59-1.07,2.37-1.65l0-1C590.35,250.38,589.47,249.42,588.7,249.5ZM479.14,45.68l.9,0c.59-.73,1.5-1.38,1.69-2.2.29-1.26-.54-2.15-1.89-2.25a1.79,1.79,0,0,0-2.13,2C477.79,44.12,478.64,44.88,479.14,45.68Zm11.08,0c.51-.82,1.37-1.62,1.45-2.48a1.68,1.68,0,0,0-2.15-1.86,2.92,2.92,0,0,0-1.83,2c0,.78,1,1.58,1.57,2.38Zm9.9,0c.52-.82,1.39-1.59,1.49-2.46a1.67,1.67,0,0,0-2.11-1.89,2.87,2.87,0,0,0-1.86,1.95c0,.78,1,1.6,1.52,2.41Zm8.88,0,.93,0c.57-.8,1.59-1.62,1.57-2.4a2.94,2.94,0,0,0-1.89-2,1.68,1.68,0,0,0-2.09,2C507.61,44.15,508.48,44.9,509,45.69Zm-326.24,602a1.67,1.67,0,0,0,2.07-1.94c-.15-.89-1-1.66-1.55-2.48h-.92c-.53.82-1.5,1.67-1.46,2.46A2.83,2.83,0,0,0,182.76,647.73Zm.2-73.6c-.87.07-1.67.94-2.49,1.46l0,1c.8.56,1.6,1.58,2.38,1.57a2.91,2.91,0,0,0,2-1.83A1.69,1.69,0,0,0,183,574.13ZM538.91,45.7h.9c.55-.76,1.42-1.46,1.56-2.29.22-1.27-.66-2.12-2-2.15a1.8,1.8,0,0,0-2,2.13C537.46,44.23,538.36,44.94,538.91,45.7ZM183.75,253.49a1.7,1.7,0,0,0,1.86-2.17,2.89,2.89,0,0,0-2-1.82c-.78,0-1.59,1-2.38,1.56l0,1C182.09,252.54,182.88,253.42,183.75,253.49Zm1.86-171a2.91,2.91,0,0,0-1.87-2c-.77-.08-1.64.87-2.48,1.38l0,1c.79.58,1.52,1.51,2.37,1.65A1.69,1.69,0,0,0,185.61,82.51Zm403.08-2a2.94,2.94,0,0,0-1.86,2,1.69,1.69,0,0,0,2,2c.86-.14,1.59-1.07,2.37-1.65l0-1C590.34,81.41,589.47,80.46,588.69,80.54ZM185.61,92.45a2.92,2.92,0,0,0-1.86-2c-.78-.08-1.66.87-2.49,1.38l0,1c.79.57,1.52,1.5,2.37,1.64A1.69,1.69,0,0,0,185.61,92.45Zm401.23-.11a1.68,1.68,0,0,0,1.89,2.13c.86-.09,1.64-1,2.46-1.51,0-.32,0-.64,0-1-.81-.55-1.63-1.56-2.41-1.53A2.88,2.88,0,0,0,586.84,92.34ZM183.2,100c-.54.81-1.53,1.64-1.5,2.43a2.84,2.84,0,0,0,1.82,2,1.69,1.69,0,0,0,2.1-1.93c-.12-.88-1-1.66-1.5-2.49Zm-2.76,556.12c.79.56,1.6,1.57,2.38,1.55a2.91,2.91,0,0,0,2-1.85,1.69,1.69,0,0,0-1.87-2.15c-.86.08-1.65,1-2.48,1.48Zm3.3-541.74a1.7,1.7,0,0,0,1.87-2.16,2.93,2.93,0,0,0-2-1.84c-.78,0-1.59,1-2.39,1.55l0,1C182.08,113.39,182.87,114.27,183.74,114.35Zm405-4a2.91,2.91,0,0,0-1.89,1.94,1.69,1.69,0,0,0,2,2.06c.86-.13,1.6-1,2.4-1.61,0-.32,0-.64,0-1C590.36,111.26,589.5,110.29,588.72,110.35Zm-1.88,131a1.69,1.69,0,0,0,1.84,2.18c.86-.06,1.66-.93,2.5-1.44l0-1c-.78-.57-1.58-1.59-2.35-1.58A2.89,2.89,0,0,0,586.84,241.37Zm-403.25,2.18a1.69,1.69,0,0,0,2-2,2.92,2.92,0,0,0-1.85-2c-.78-.08-1.66.87-2.49,1.37l0,1C182,242.47,182.74,243.41,183.59,243.55Zm404.31,420a1.69,1.69,0,0,0-1.86,2.16,2.91,2.91,0,0,0,2,1.83c.78,0,1.58-1,2.37-1.56,0-.32,0-.64,0-1C589.56,664.53,588.77,663.65,587.9,663.58Zm.8-533.35a2.91,2.91,0,0,0-1.87,2,1.69,1.69,0,0,0,2,2c.86-.14,1.59-1.07,2.38-1.64l0-1C590.35,131.12,589.48,130.16,588.7,130.23Zm-405,9.94c-.77-.07-1.64.9-2.46,1.41l0,1c.8.56,1.54,1.49,2.4,1.62a1.7,1.7,0,0,0,2-2A2.91,2.91,0,0,0,183.72,140.17Zm405,4c.87-.08,1.66-1,2.48-1.48l0-1c-.8-.56-1.61-1.57-2.38-1.55a2.89,2.89,0,0,0-2,1.84A1.68,1.68,0,0,0,588.7,144.16Zm2.49,76.93c-.83-.51-1.69-1.47-2.47-1.4a2.91,2.91,0,0,0-1.89,1.94,1.69,1.69,0,0,0,2,2.05c.86-.13,1.6-1.06,2.4-1.62C591.2,221.74,591.19,221.42,591.19,221.09Zm-407.6,2.59a1.69,1.69,0,0,0,2-2,2.92,2.92,0,0,0-1.85-2c-.77-.08-1.66.87-2.49,1.36l0,1C182,222.59,182.73,223.53,183.59,223.68Zm405.15-10c.86-.09,1.64-1,2.45-1.51,0-.32,0-.65,0-1-.8-.55-1.63-1.54-2.41-1.5a2.87,2.87,0,0,0-1.95,1.86A1.68,1.68,0,0,0,588.74,213.73Zm0-19.87c.86-.12,1.62-1,2.42-1.57,0-.33,0-.65,0-1-.81-.53-1.66-1.51-2.44-1.46a2.92,2.92,0,0,0-1.92,1.92A1.69,1.69,0,0,0,588.78,193.86Zm-.82,261A1.69,1.69,0,0,0,586,457a2.86,2.86,0,0,0,1.94,1.88c.78,0,1.61-.94,2.42-1.49v-1C589.59,455.86,588.82,455,588,454.86ZM183.05,189.45c-.49.84-1.42,1.72-1.34,2.51a2.82,2.82,0,0,0,1.92,1.89,1.69,1.69,0,0,0,2-2c-.17-.87-1.07-1.6-1.65-2.39Zm2.56-7.63a2.9,2.9,0,0,0-1.94-1.89c-.78-.05-1.62.94-2.43,1.48v1c.81.55,1.58,1.44,2.44,1.55A1.69,1.69,0,0,0,185.61,181.82Zm-2.8,287a1.67,1.67,0,0,0,2-2c-.17-.88-1.05-1.63-1.62-2.43l-.91,0c-.51.84-1.45,1.71-1.39,2.5A2.82,2.82,0,0,0,182.81,468.83ZM586,466.9a2.9,2.9,0,0,0,1.94,1.89c.77,0,1.61-.94,2.42-1.47v-1c-.81-.54-1.57-1.45-2.44-1.55A1.68,1.68,0,0,0,586,466.9ZM588.79,170a2.9,2.9,0,0,0-1.95,1.88,1.68,1.68,0,0,0,1.9,2.12c.86-.1,1.64-1,2.45-1.52v-1C590.4,171,589.57,170,588.79,170Zm-405.16,4a1.69,1.69,0,0,0,2-2,2.91,2.91,0,0,0-1.89-1.94c-.77-.07-1.64.9-2.46,1.41l0,1C182,172.93,182.77,173.85,183.63,174ZM588.69,164c.86-.07,1.66-.94,2.49-1.45l0-1c-.79-.57-1.59-1.59-2.37-1.57a2.87,2.87,0,0,0-2,1.82A1.69,1.69,0,0,0,588.69,164ZM180.44,477.19c.8.56,1.6,1.57,2.38,1.54a2.9,2.9,0,0,0,2-1.83,1.69,1.69,0,0,0-1.87-2.16c-.86.08-1.65.95-2.48,1.47C180.46,476.54,180.45,476.86,180.44,477.19ZM586,476.8a2.89,2.89,0,0,0,1.9,1.93c.78.06,1.63-.91,2.45-1.43,0-.32,0-.64,0-1-.8-.57-1.55-1.48-2.41-1.6A1.68,1.68,0,0,0,586,476.8ZM185.61,161.94a2.89,2.89,0,0,0-1.93-1.89c-.78-.05-1.62.93-2.43,1.47,0,.32,0,.64,0,1,.81.55,1.57,1.45,2.43,1.56A1.69,1.69,0,0,0,185.61,161.94Zm36.58,540.93a2.81,2.81,0,0,0-1.83,2,1.69,1.69,0,0,0,2.15,1.91c.83-.18,1.51-1.07,2.26-1.64l0-.9C223.89,703.73,223,702.79,222.19,702.87ZM182.33,484.29c-.52.83-1.47,1.69-1.42,2.49a2.82,2.82,0,0,0,1.88,1.93,1.67,1.67,0,0,0,2-2c-.16-.89-1-1.64-1.58-2.46ZM231.82,702.4c-.54.76-1.41,1.47-1.55,2.3a1.69,1.69,0,0,0,2,2,2.87,2.87,0,0,0,2-1.88c.05-.79-.94-1.64-1.48-2.47Zm29.73,0c-.51.82-1.37,1.61-1.45,2.48a1.68,1.68,0,0,0,2.15,1.86,2.9,2.9,0,0,0,1.82-2c0-.78-1-1.58-1.56-2.38Zm-81.08-205.2c.83.51,1.7,1.47,2.48,1.39a2.88,2.88,0,0,0,1.86-2,1.68,1.68,0,0,0-2-2c-.86.13-1.59,1.06-2.37,1.64Zm91,205.21c-.49.83-1.33,1.64-1.39,2.51a1.68,1.68,0,0,0,2.18,1.81,2.89,2.89,0,0,0,1.8-2c0-.78-1-1.56-1.63-2.34Zm20,0c-.52.82-1.38,1.6-1.48,2.46a1.68,1.68,0,0,0,2.13,1.89,2.88,2.88,0,0,0,1.85-2c0-.78-1-1.59-1.54-2.39Zm10.31.46a2.81,2.81,0,0,0-1.83,2,1.69,1.69,0,0,0,2.15,1.91c.83-.18,1.51-1.07,2.26-1.64l0-.9C303.4,703.73,302.5,702.79,301.7,702.87Zm9.6-.47c-.53.77-1.39,1.5-1.52,2.33a1.7,1.7,0,0,0,2,2,2.91,2.91,0,0,0,1.94-1.92c.05-.78-1-1.63-1.51-2.44Zm135.81,2.35a2.84,2.84,0,0,0,1.89,2c.8.06,1.67-.91,2.51-1.43,0-.31,0-.62,0-.92-.77-.55-1.47-1.39-2.31-1.56A1.69,1.69,0,0,0,447.11,704.75Zm12.39-2.36-.95,0c-.54.82-1.51,1.66-1.46,2.45a2.86,2.86,0,0,0,1.91,1.9,1.67,1.67,0,0,0,2.06-2C460.94,704,460,703.2,459.5,702.39Zm28.84,0c-.53.78-1.4,1.52-1.49,2.35a1.68,1.68,0,0,0,2.07,2,2.93,2.93,0,0,0,1.9-2c0-.78-1-1.6-1.55-2.4ZM587.9,504.56a1.69,1.69,0,0,0-1.86,2.16,2.87,2.87,0,0,0,2,1.82c.78,0,1.58-1,2.37-1.55l0-1C589.56,505.5,588.76,504.63,587.9,504.56ZM499.17,702.38l-.9,0c-.52.78-1.39,1.52-1.48,2.36a1.79,1.79,0,0,0,2.09,2.05c1.35-.08,2.2-1,1.94-2.21C500.64,703.79,499.74,703.12,499.17,702.38Zm10,0h-1c-.53.81-1.51,1.65-1.47,2.43a2.89,2.89,0,0,0,1.9,1.92,1.68,1.68,0,0,0,2.08-1.94C510.64,704,509.75,703.2,509.21,702.4ZM588,544.31a1.69,1.69,0,0,0-1.92,2.11,2.92,2.92,0,0,0,1.94,1.89c.78,0,1.61-.95,2.42-1.49v-1C589.59,545.31,588.82,544.41,588,544.31ZM526.62,704.66a1.67,1.67,0,0,0,1.89,2.11c.88-.12,1.67-1,2.5-1.47,0-.31,0-.62,0-.93-.8-.55-1.62-1.54-2.4-1.52A2.85,2.85,0,0,0,526.62,704.66ZM184.81,516.58a1.69,1.69,0,0,0-1.94-2.09c-.86.12-1.62,1-2.42,1.58v1c.82.53,1.67,1.51,2.45,1.46A2.89,2.89,0,0,0,184.81,516.58ZM539,702.39l-1,0c-.51.83-1.47,1.7-1.4,2.48a2.91,2.91,0,0,0,2,1.86,1.67,1.67,0,0,0,2-2C540.43,703.9,539.52,703.17,539,702.39Zm-356-178c-.87.1-1.64,1-2.45,1.52,0,.33,0,.65,0,1,.81.55,1.64,1.55,2.42,1.51a2.88,2.88,0,0,0,1.95-1.88A1.68,1.68,0,0,0,182.91,524.43ZM586,526.48a2.89,2.89,0,0,0,1.88,1.95c.78.07,1.64-.9,2.47-1.42l0-1c-.79-.57-1.53-1.49-2.39-1.62A1.69,1.69,0,0,0,586,526.48Zm0,10a2.9,2.9,0,0,0,2,1.84c.78,0,1.59-1,2.39-1.53,0-.33,0-.65,0-1-.82-.53-1.61-1.41-2.47-1.49A1.7,1.7,0,0,0,586,536.52ZM182.81,548.31a2.91,2.91,0,0,0,2-1.83,1.7,1.7,0,0,0-1.86-2.17c-.86.07-1.66,1-2.48,1.46l0,1C181.23,547.31,182,548.32,182.81,548.31ZM588,617.88c.78,0,1.61-1,2.42-1.49v-1c-.81-.54-1.58-1.44-2.44-1.54A1.69,1.69,0,0,0,586,616,2.92,2.92,0,0,0,588,617.88ZM183,554.25c-.87.07-1.66.94-2.49,1.45l0,1c.79.56,1.59,1.58,2.37,1.56a2.87,2.87,0,0,0,2-1.82A1.69,1.69,0,0,0,183,554.25ZM586,556.34a2.89,2.89,0,0,0,1.92,1.9c.78,0,1.62-.93,2.44-1.46v-1c-.8-.55-1.56-1.46-2.42-1.57A1.68,1.68,0,0,0,586,556.34Zm-401.23,9.93a1.68,1.68,0,0,0-1.94-2.08c-.86.11-1.62,1-2.42,1.57v1c.82.53,1.67,1.51,2.44,1.46A2.92,2.92,0,0,0,184.81,566.27Zm405.58,19.28c-.82-.52-1.61-1.4-2.47-1.48a1.69,1.69,0,0,0-1.88,2.15,2.9,2.9,0,0,0,2,1.84c.78,0,1.59-1,2.39-1.54C590.4,586.2,590.4,585.87,590.39,585.55Zm-408,8.05c-.54.82-1.51,1.65-1.48,2.45a2.83,2.83,0,0,0,1.82,2,1.68,1.68,0,0,0,2.1-1.92c-.13-.89-1-1.67-1.52-2.5Zm.58,14.34a2.91,2.91,0,0,0,1.84-2,1.68,1.68,0,0,0-2-2c-.85.15-1.57,1.08-2.36,1.67l0,1C181.31,607.08,182.19,608,183,607.94ZM586,606.12a2.89,2.89,0,0,0,2,1.82c.77,0,1.57-1,2.36-1.57l0-1c-.82-.51-1.62-1.39-2.49-1.46A1.7,1.7,0,0,0,586,606.12ZM183,627.82a2.92,2.92,0,0,0,1.85-2,1.68,1.68,0,0,0-2-2c-.86.14-1.58,1.08-2.37,1.66,0,.32,0,.64,0,1C181.3,626.94,182.19,627.9,183,627.82ZM586,626a2.91,2.91,0,0,0,2,1.85c.77,0,1.59-1,2.39-1.53l0-1c-.82-.53-1.6-1.41-2.47-1.5A1.69,1.69,0,0,0,586,626Zm2.66-322.79c.86-.07,1.66-.95,2.48-1.46l0-1c-.79-.56-1.6-1.58-2.38-1.55a2.86,2.86,0,0,0-2,1.82A1.68,1.68,0,0,0,588.7,303.18Zm-405.15,0a1.7,1.7,0,0,0,2.07-2c-.13-.87-1-1.64-1.54-2.46h-.93c-.52.82-1.49,1.66-1.45,2.45A2.85,2.85,0,0,0,183.55,303.18Zm405.19-9.93c.86-.1,1.64-1,2.45-1.52v-1c-.81-.55-1.63-1.54-2.41-1.5a2.9,2.9,0,0,0-2,1.87A1.7,1.7,0,0,0,588.74,293.25ZM232.61,45.71h.95c.54-.83,1.53-1.68,1.48-2.47s-1.16-1.73-2-1.89a1.68,1.68,0,0,0-2,2C231.2,44.23,232.07,44.94,232.61,45.71Zm9.88,0h1c.56-.8,1.57-1.61,1.54-2.4a2.89,2.89,0,0,0-1.85-2A1.68,1.68,0,0,0,241,43.23C241.1,44.1,242,44.88,242.49,45.7Zm49.84,0,.89,0c.53-.78,1.42-1.51,1.52-2.34a1.79,1.79,0,0,0-2.07-2.08c-1.35.06-2.21.91-2,2.19C290.87,44.29,291.76,45,292.33,45.72Zm19.81,0h.9c.55-.77,1.45-1.48,1.58-2.3a1.81,1.81,0,0,0-2-2.14c-1.35,0-2.24.87-2,2.15C310.72,44.25,311.6,45,312.14,45.71Zm9.87,0H323c.56-.81,1.57-1.64,1.54-2.43a2.93,2.93,0,0,0-1.93-1.93,1.69,1.69,0,0,0-2.05,2C320.64,44.2,321.49,44.92,322,45.7Zm147.15,0,.93.08c.6-.79,1.65-1.57,1.65-2.35a2.93,2.93,0,0,0-1.82-2,1.68,1.68,0,0,0-2.15,1.9C467.83,44.09,468.67,44.86,469.16,45.66Zm50,.06,1,0c.49-.83,1.44-1.72,1.35-2.48a2.9,2.9,0,0,0-2-1.85,1.66,1.66,0,0,0-2,2C517.6,44.21,518.54,44.94,519.13,45.72Zm10.74,0c.55-.76,1.42-1.46,1.56-2.29a1.69,1.69,0,0,0-2-2.07,2.9,2.9,0,0,0-2,1.88c-.06.78.93,1.64,1.46,2.47Zm18.88,0,.9,0c.57-.74,1.47-1.41,1.65-2.23.28-1.27-.58-2.14-1.92-2.22a1.8,1.8,0,0,0-2.11,2C547.36,44.15,548.23,44.9,548.75,45.69Zm40,54.73a2.91,2.91,0,0,0-1.89,1.94,1.7,1.7,0,0,0,2,2c.85-.13,1.6-1,2.39-1.62,0-.32,0-.64,0-1C590.36,101.31,589.49,100.35,588.72,100.42ZM183.59,124.28a1.69,1.69,0,0,0,2-2c-.15-.87-1-1.63-1.58-2.43l-.93,0c-.51.82-1.46,1.68-1.41,2.47A2.89,2.89,0,0,0,183.59,124.28Zm405.12,0c.86-.09,1.65-1,2.48-1.49,0-.32,0-.64,0-1-.8-.56-1.61-1.58-2.39-1.55a2.88,2.88,0,0,0-2,1.84A1.69,1.69,0,0,0,588.71,124.29Zm-403.1,7.92a2.9,2.9,0,0,0-1.86-2c-.77-.09-1.65.86-2.49,1.36l0,1c.78.59,1.51,1.52,2.37,1.67A1.69,1.69,0,0,0,185.61,132.21Zm-.8,533.4a1.68,1.68,0,0,0-2-2c-.86.13-1.6,1.06-2.38,1.64,0,.32,0,.64,0,1,.84.51,1.71,1.46,2.48,1.39A2.9,2.9,0,0,0,184.81,665.61Zm-1.94-51.73c-.86.11-1.62,1-2.42,1.57v1c.82.53,1.66,1.51,2.44,1.45a2.87,2.87,0,0,0,1.92-1.9A1.68,1.68,0,0,0,182.87,613.88ZM184,229.16l-.92,0c-.5.84-1.43,1.71-1.36,2.5a2.82,2.82,0,0,0,1.91,1.9,1.68,1.68,0,0,0,2-2C185.46,230.7,184.56,230,184,229.16Zm.84,227.73c-.17-.88-1.05-1.63-1.62-2.43l-.91,0c-.51.84-1.45,1.71-1.39,2.51a2.83,2.83,0,0,0,1.9,1.9A1.66,1.66,0,0,0,184.83,456.89Zm-1.22-247.14c-.78,0-1.58,1-2.38,1.54l0,1c.82.52,1.62,1.4,2.48,1.48a1.7,1.7,0,0,0,1.87-2.17A2.92,2.92,0,0,0,183.61,209.75Zm407.58-8.53c-.83-.52-1.69-1.49-2.47-1.42a2.93,2.93,0,0,0-1.89,1.95,1.69,1.69,0,0,0,2,2.05c.86-.13,1.6-1.05,2.4-1.62C591.2,201.86,591.19,201.54,591.19,201.22Zm-2.43-17.3c.86-.1,1.63-1,2.44-1.55v-1c-.81-.54-1.65-1.53-2.43-1.48a2.93,2.93,0,0,0-1.94,1.88A1.7,1.7,0,0,0,588.76,183.92ZM182.87,534.37c-.87.11-1.62,1-2.42,1.58v1c.82.53,1.67,1.51,2.45,1.45a2.89,2.89,0,0,0,1.91-1.91A1.68,1.68,0,0,0,182.87,534.37ZM586.83,152a1.69,1.69,0,0,0,1.95,2.08c.86-.11,1.62-1,2.42-1.57v-1c-.82-.53-1.67-1.5-2.45-1.45A2.91,2.91,0,0,0,586.83,152Zm3.56,493.15c-.83-.52-1.62-1.39-2.48-1.47a1.7,1.7,0,0,0-1.87,2.16,2.93,2.93,0,0,0,2,1.84c.77,0,1.58-1,2.37-1.56Zm0-159c-.82-.52-1.61-1.4-2.47-1.48a1.69,1.69,0,0,0-1.88,2.15,3,3,0,0,0,2,1.85c.77,0,1.59-1,2.38-1.55C590.41,486.81,590.4,486.48,590.39,486.16ZM183.69,283.31a1.69,1.69,0,0,0,1.92-2.11,2.88,2.88,0,0,0-2-1.88c-.78-.05-1.61.94-2.42,1.48v1C182.06,282.31,182.83,283.21,183.69,283.31ZM586,496.67a2.89,2.89,0,0,0,1.89,1.94c.77.06,1.63-.9,2.46-1.42,0-.32,0-.64,0-1-.79-.57-1.53-1.48-2.39-1.61A1.68,1.68,0,0,0,586,496.67ZM241.72,702.41c-.53.81-1.4,1.59-1.5,2.45a1.68,1.68,0,0,0,2.11,1.9,2.92,2.92,0,0,0,1.87-2c0-.79-1-1.61-1.53-2.41Zm9.95,0c-.53.77-1.39,1.49-1.52,2.33a1.69,1.69,0,0,0,2,2,2.9,2.9,0,0,0,1.94-1.91c0-.79-1-1.63-1.51-2.45Zm29.71,0c-.5.84-1.34,1.65-1.4,2.52a1.68,1.68,0,0,0,2.18,1.81,2.86,2.86,0,0,0,1.79-2c0-.78-1-1.56-1.61-2.34ZM185.61,291.23a2.9,2.9,0,0,0-1.86-2c-.77-.08-1.65.86-2.49,1.36l0,1c.78.58,1.51,1.52,2.37,1.66A1.69,1.69,0,0,0,185.61,291.23Zm136,411.58c-1.22-.17-1.94.82-1.88,2s.92,2.22,2.21,1.93c.84-.18,1.52-1.07,2.27-1.64l0-.89C323.28,703.74,322.47,702.93,321.56,702.81ZM182.92,504.56c-.86.08-1.64,1-2.46,1.5l0,1c.8.55,1.62,1.55,2.4,1.52a2.92,2.92,0,0,0,2-1.86A1.68,1.68,0,0,0,182.92,504.56ZM588.69,279.31a2.94,2.94,0,0,0-1.86,2,1.69,1.69,0,0,0,2,2c.86-.14,1.59-1.08,2.37-1.66l0-1C590.35,280.19,589.47,279.23,588.69,279.31ZM183.6,154.11a1.69,1.69,0,0,0,2-2,2.9,2.9,0,0,0-1.86-2c-.77-.08-1.65.87-2.48,1.37,0,.32,0,.64,0,1C182,153,182.74,154,183.6,154.11ZM467,704.79a2.84,2.84,0,0,0,1.88,1.93c.79.06,1.66-.89,2.5-1.39l0-.92c-.8-.56-1.53-1.44-2.4-1.61A1.67,1.67,0,0,0,467,704.79Zm120.94-190.3a1.7,1.7,0,0,0-1.89,2.14,2.92,2.92,0,0,0,2,1.86c.77,0,1.59-1,2.4-1.52,0-.32,0-.65,0-1C589.58,515.47,588.79,514.58,587.93,514.49ZM479.48,702.41l-.94,0c-.57.81-1.6,1.63-1.58,2.42a2.87,2.87,0,0,0,1.9,2,1.7,1.7,0,0,0,2.09-2C480.84,703.94,480,703.2,479.48,702.41ZM586,576.28a2.92,2.92,0,0,0,2,1.84c.78,0,1.59-1,2.39-1.54l0-1c-.82-.52-1.61-1.4-2.47-1.48A1.69,1.69,0,0,0,586,576.28Zm-67,126.11-1,0c-.51.83-1.47,1.7-1.4,2.48a2.91,2.91,0,0,0,2,1.86,1.67,1.67,0,0,0,2-2C520.55,703.91,519.64,703.18,519.07,702.39ZM182.82,584.07c-.86.13-1.6,1.06-2.38,1.64,0,.32,0,.64,0,1,.84.51,1.71,1.46,2.48,1.39a2.9,2.9,0,0,0,1.87-2A1.68,1.68,0,0,0,182.82,584.07ZM588,564.19a1.69,1.69,0,0,0-2,2,2.93,2.93,0,0,0,1.89,2c.77.06,1.64-.9,2.46-1.42,0-.32,0-.65,0-1C589.62,565.24,588.88,564.32,588,564.19Zm1-304.78c-1.21-.33-2.15.46-2.26,1.81a1.84,1.84,0,0,0,1.91,2.22c.83,0,1.63-.83,2.44-1.28,0-.3.08-.59.11-.89C590.51,260.62,589.87,259.64,589,259.41Zm-3,336.65a2.89,2.89,0,0,0,1.89,1.94c.77.06,1.63-.9,2.46-1.42l0-1c-.79-.56-1.54-1.48-2.39-1.61A1.7,1.7,0,0,0,586,596.06ZM549.11,702.43l-1,0c-.58.78-1.61,1.56-1.62,2.34a2.93,2.93,0,0,0,1.79,2,1.69,1.69,0,0,0,2.19-1.82C550.45,704.07,549.61,703.26,549.11,702.43ZM586,655.79a2.91,2.91,0,0,0,2,1.84c.77,0,1.58-1,2.38-1.54,0-.32,0-.65,0-1-.82-.52-1.61-1.4-2.48-1.48A1.69,1.69,0,0,0,586,655.79ZM185.61,201.64a2.93,2.93,0,0,0-2-1.84c-.78,0-1.59,1-2.39,1.55l0,1c.82.52,1.62,1.4,2.48,1.48A1.7,1.7,0,0,0,185.61,201.64ZM586.83,231.5a1.69,1.69,0,0,0,1.92,2.11c.86-.09,1.63-1,2.45-1.53v-1c-.81-.54-1.64-1.53-2.42-1.49A2.92,2.92,0,0,0,586.83,231.5ZM348.57,310.77a64.29,64.29,0,0,0,7.44-1c2.77-.58,5.46-1.64,8.25-2.08,3.77-.59,7.61-.76,11.42-1.16,1.21-.13,2.41-.43,3.61-.64l-.06-.64a9.7,9.7,0,0,0-1.56-.75c-3.23-.94-6.48-1.84-9.71-2.77a10.53,10.53,0,0,0-6.78.46c-4,1.46-8.1,2.82-12.2,4-1.88.56-3,1.59-3.5,4A11.86,11.86,0,0,0,348.57,310.77Zm8,5.44c-2.3.18-4.45,2.54-6.62,4-.33.22-.38.87-.56,1.32l.44.52a7.65,7.65,0,0,0,2.09-.68c1.82-1.28,3.27-1,5,.39,2.52,2.05,5,1.94,7.63,0,.85-.62,1.6-1.37,2.49-2.15,2.7.19,5.33-.15,7.24-2.84C368.35,316.3,362.43,315.76,356.58,316.21Zm-26.48,47.1a9,9,0,0,0,3,.76c1.09.19,2.45-.09,3.25.47a5.91,5.91,0,0,0,6.61.62,6.17,6.17,0,0,1,2.92-.13,25,25,0,0,0,4.52.36,14.78,14.78,0,0,0,4.95-1.53c1.2-.63,1.38-1.88-.07-3.09-.55.21-1.38.29-1.79.74-1.18,1.3-2.52,1.35-4.14,1.2-3.13-.28-6.34-.8-9.44,1.08-2.79-3.38-6.79-1.76-10.47-2.62C329.49,362,329.59,363,330.1,363.31Zm16.61-13.58a2.65,2.65,0,0,0,1.88.19c2.92-.55,4.25-3.23,3.25-6.41-1.26,3.19-1.64,3.54-4.06,3.87-3.34-1.8-6.61-.61-7.62,3.34a9.77,9.77,0,0,0,2.39-.7C343.92,349.1,345.17,348.61,346.71,349.73ZM343,374.34c-1.23-.3-2.56-.67-3.92,1.16l6,2C345,375.38,344.17,374.64,343,374.34Zm29.5-280.48c1.44-2.24,3.16-4.08,6-4.51v16.87c-2.18,2-2.17,2.35,0,4.72a54.15,54.15,0,0,0,.82,6.16,3,3,0,0,0,2,1.7c.54.11,1.56-.65,1.91-1.28a5.91,5.91,0,0,0,.28-2.52c0-1.56,0-3.13,0-4.72.86-.25,1.5-.42,2.12-.61,5.73-1.79,10.22-4.83,11.88-11.07,1.24-4.67-.4-10.51-4.05-12.56-5-2.81-13.95-3.43-19.34,1.07-1.26,1-2,2.86-2.67,4.43-.25.56.27,1.45.43,2.19Zm20.1-2.41c1.81,3.43.93,8.82-2.22,11.23-1.86,1.43-4.17,2.3-6.76,3.68-.29-6.41-.54-12.06-.79-17.68C386.11,87.69,391.37,89.22,392.55,91.45Z"/></svg>