<svg xmlns="http://www.w3.org/2000/svg" viewBox="0 0 750 750"><path d="M606.11,375.06V50.78c0-1.19,0-2.38,0-3.57C605.9,34.36,596.4,25,583.54,25h-397a21.87,21.87,0,0,0-21.9,21.85q0,328.16,0,656.31a20.81,20.81,0,0,0,.59,4.91c2.63,10.65,11.17,16.93,22.92,16.93H583.78c8.15-.14,14.54-3.52,19-10.39,2.7-4.17,3.35-8.82,3.35-13.68Q606.1,538,606.11,375.06ZM602,701.77c0,11.52-7.52,19.11-19,19.11H187.59c-9.33,0-16.38-5.28-18.41-13.83a19.15,19.15,0,0,1-.47-4.33q0-327.77,0-655.52a17.73,17.73,0,0,1,18.13-18.08q198.53,0,397,0A17.78,17.78,0,0,1,602,46.85c0,1.46,0,2.92,0,4.38V701.77Zm-108.64-113a9.12,9.12,0,0,0,8.23,3.91c3.66-.28,7.25-4.37,7.9-8.68a8.85,8.85,0,0,0-5.18-9.59,18.63,18.63,0,0,0-3.67-.66c0-.28-.1-.54-.11-.79-.14-5.07-1.86-7.24-6.7-8.7-.55-.17-.91-1-1.28-1.64-.82-1.3-1.29-3.11-2.45-3.85a25.88,25.88,0,0,1-6.32-5.18c-1.91-2.27-4.71-3.91-6.6-6.45-.81-1.09-2.3-1.67-3.63-2.58,1.29-2.1,2.52-4.13,3.77-6.14,5.32-8.52,5.09-16.13-.85-24.11-.39-.53-1.38-.6-2.09-.89-.21.69-.71,1.41-.6,2,1,6.15-1.43,11-5.56,15.21-.76.77-1.39.7-2.22,0-6.53-5.39-13.23-10.61-19.63-16.16-8.76-7.59-17.3-15.43-25.95-23.15-4.69-4.19-9.42-8.34-14.28-12.64a9.68,9.68,0,0,1,.75-1c6.3-6.26,12.57-12.55,18.9-18.77,9.6-9.42,19.27-18.77,28.84-28.22q21.28-21,42.48-42.12a5.12,5.12,0,0,0,.95-1.24c1-2,1.93-4,3-6,2.64-4.75,5.39-9.44,8-14.2.37-.66.59-1.93.23-2.34a3,3,0,0,0-2.44-.66,15.56,15.56,0,0,0-4.08,1.46c-4.3,2.2-8.54,4.53-12.84,6.75-2.74,1.43-5.6,2.52-8,4.64-15.42,13.56-31,27-46.42,40.52q-24,21-47.92,42.11c-1.19,1.05-1.93,1.12-3.14,0-4.72-4.26-9.55-8.4-14.33-12.6q-17-15-34-29.91-21.69-19-43.44-37.89a36.05,36.05,0,0,0-9.08-6.25c-5-2.19-9.63-5-14.48-7.48a15.55,15.55,0,0,0-4.29-1.46c-2.06-.37-2.88.8-2.06,2.71a19.22,19.22,0,0,0,1.1,2.11c3,5.17,6,10.32,8.94,15.5.74,1.29,1,3,2,4,8.46,8.5,17,16.87,25.57,25.31q15.18,15,30.34,30.09c10.61,10.47,21.27,20.88,31.9,31.34,1.11,1.09,2.15,2.25,3.49,3.67a11,11,0,0,0-1.21.77c-5.26,4.65-10.56,9.26-15.77,14-14,12.64-28,25.33-42.89,37-1.1.86-1.79.83-2.68-.11-4-4.27-6.38-9.06-5.24-15.12a2.09,2.09,0,0,0-.66-1.79,2,2,0,0,0-1.85.43c-3.48,4.1-5.67,8.81-4.69,14.24a43.42,43.42,0,0,0,3.33,9.67,62.77,62.77,0,0,0,4.13,6.81c-2.71,1.5-5.13,2.87-6.08,5.79-.14.43-.91.7-1.42,1-2,1-3.75,2.21-4.52,4.5-.16.49-.88.92-1.44,1.14-2.92,1.11-5.43,2.51-5.74,6.11,0,.42-.79,1-1.31,1.12-4.44,1.18-6.49,3.76-6.55,8.42a9.4,9.4,0,0,1-.13,1,16,16,0,0,0-3.61.63,8.26,8.26,0,0,0-5.26,8,10.3,10.3,0,0,0,5.48,9.5c3.12,1.83,6.18.91,8.68-1.16,2-1.64,3.52-3.71,6.35-4,.57-.06,1.08-.73,1.63-1.1a34.74,34.74,0,0,1,3.61-2.34c2.26-1.13,4.26-2.38,4.88-5.11a2.29,2.29,0,0,1,1.48-1.33,7.48,7.48,0,0,0,5.15-4.35,6.25,6.25,0,0,1,4.46-3.51c3.24-.94,5.3-3.13,6.85-6,.44-.79.81-1.61,1.26-2.52l1.35.71c3.75,2,7.38,4.24,11.29,5.79a24.45,24.45,0,0,0,19.17,0c1.35-.58,2.53-1.39,2.18-3.12s-1.62-1.86-3-2c-5.41-.45-9.75-3.09-13.54-6.77a2,2,0,0,1-.07-1.92,57.73,57.73,0,0,1,4.45-4.8q21.54-20.9,43.11-41.77c2.89-2.79,5.81-5.55,8.68-8.3a4.2,4.2,0,0,1,.69.41q10.48,10.18,20.95,20.37,15.07,14.58,30.17,29.14,2.43,2.34,4.62,4.91a1.86,1.86,0,0,1,.1,1.79c-3.73,3.74-8.09,6.37-13.46,6.93-1.45.15-2.89.24-3.26,2s.91,2.61,2.31,3.22a23.63,23.63,0,0,0,11.68,1.65c6.77-.59,12.46-3.8,18.11-7.18.59-.36,1.2-.7,2-1.17,1.62,5.08,5,7.89,9.76,9.4,1,.3,1.7,1.48,2.36,2.38,1.41,1.93,2.73,3.85,5.24,4.63a3.49,3.49,0,0,1,1.87,1.92,7.08,7.08,0,0,0,3.28,3.8c2,1.07,3.73,2.43,5.66,3.55,1,.58,2.19.85,3.24,1.35A5.84,5.84,0,0,1,493.36,588.79ZM271,588.61c-1.59-.05-3.78-2.48-3.71-4.1.08-1.78,2.95-4.27,4.88-4.23s4,2.68,3.91,4.72C276.06,586.78,273.39,588.68,271,588.61Zm11.13-9.32a5.88,5.88,0,0,1-2.36,2.08c-.4.16-1.35-.83-1.92-1.42a8.93,8.93,0,0,1-1-1.69c-2.29-4-1.07-7,3.75-8.54.6,2.64,1.2,5.13,1.7,7.64A2.72,2.72,0,0,1,282.17,579.29ZM486,389.87l12-11.21C495.94,385.33,491.37,389.52,486,389.87Zm9.12-15.33-10.48,9.67C484.59,379.56,488.5,375.81,495.13,374.54Zm-8.81,18.1.48.75c-1.37,1.39-2.72,2.79-4.1,4.15l-43.76,43.09-25.51,25.09c-3,3-6.05,5.94-9,9-1.16,1.22-2,1.12-3.1,0s-2.3-2.17-3.68-3.46c4.48-4.16,8.69-8.09,12.92-12q34.31-31.57,68.67-63.06C481.14,394.5,484,393.8,486.32,392.64Zm-6.59-8.12.41.37c-1.62,3-2.73,6.15-5.39,8.62q-36.19,33.62-72.24,67.38c-2.28,2.13-4.54,4.28-6.73,6.48-.87.87-1.52,1.06-2.48.14-1.33-1.27-2.78-2.41-4.42-3.82Zm-15.52,149.2c-.92.11-2,.61-2.71.27-7-3.44-14.1-6.75-20.86-10.64-10.79-6.21-20.15-14.32-29.19-22.84Q366.39,458,321.21,415.69c-8.16-7.67-16.4-15.26-24.62-22.86-2.41-2.23-3.27-5.28-4.43-8.18Zm-15.45,7.12c.08,1.83,0,3.67,0,5.5l-.73.09-11-20.12,21.32,8.89c0,.18,0,.35,0,.53-1.66.11-3.33.27-5,.31C448.59,536.14,448.56,536.17,448.76,540.84Zm-161.1-156.4-11.09-10.18C282.8,375.07,286.34,378.22,287.66,384.44ZM274,378.65l11.81,11C279.37,388.65,275.61,384.8,274,378.65Zm34.87,153.49q24.15-20.4,48.25-40.82,5.31-4.5,10.5-9.12a1.43,1.43,0,0,1,2.34,0c1.61,1.55,3.33,3,5.17,4.63-3.19,3-5.87,5.57-8.57,8.09-4.4,4.12-8.71,8.35-13.26,12.3-10.9,9.45-22.56,17.79-35.9,23.56-2.13.92-4.24,1.9-6.28,3-1.26.68-2.23.58-3.71-1A5.92,5.92,0,0,0,308.83,532.14Zm11.29,3.93c-1.65-.09-3.3-.09-4.95-.18a18.61,18.61,0,0,1-2.11-.44l21.87-9.14c-3.78,6.94-7.35,13.51-10.92,20.08h-.53a25.51,25.51,0,0,1-.42-3.11,30.24,30.24,0,0,1,.24-3.55C323.6,536.71,323.23,536.26,320.12,536.07Zm-22.43-3.25a9.86,9.86,0,0,1-1-3.53,104.47,104.47,0,0,0,6.74,8.7,103.05,103.05,0,0,0,8.42,7.29L304.51,552c-.1-.34-.23-.52-.19-.65,1.29-3.7.32-7-1.67-10.17C300.93,538.43,299.26,535.65,297.69,532.82ZM286.08,577.5c-.59-3.33-1.31-6.66-1.72-10a4.59,4.59,0,0,1,2.67-4.76,77.3,77.3,0,0,1,3.25,8.94C291.05,574.83,289.28,577.09,286.08,577.5Zm8.22-6.45a72.34,72.34,0,0,1-3.22-8.58c-.53-2.19,1-3.94,2.74-5.3C297.06,561.66,298.68,568.75,294.3,571.05Zm5.59-21.4c-1,1.59-2.13,3.09-3.4,4.9-1.08-2.87-.24-5.19,2-6.2.38-.17,1.16-.26,1.24-.11A1.75,1.75,0,0,1,299.89,549.65Zm4.65,13.93a7.53,7.53,0,0,1-3.75.54c-.29,0-.55-1.21-.78-1.74l6.86-1.94C305.93,561.77,305.46,563.07,304.54,563.58Zm26-.46-.32.53a14.11,14.11,0,0,1-2.94-.65c-3.78-1.74-7.52-3.58-11.26-5.41a23.09,23.09,0,0,1-2.4-1.4c-2.61-1.69-5.3-2.35-8.25-.42-.05-.19-.09-.39-.14-.58l10.07-8.58C318.32,554.25,323.23,559.79,330.59,563.12Zm51.54-66.31q-12.3,12.13-24.51,24.36c-9.29,9.34-18.5,18.75-27.77,28.11-.88.88-1.88,1.64-3.29,2.85a8.66,8.66,0,0,1-.8-2.59c0-.66.64-1.28,1-1.93a124,124,0,0,1,22.92-32.24c6.75-6.73,13.92-13,20.9-19.53,1.8-1.66,3.66-3.26,5.41-5,.95-.94,1.67-1,2.63,0a48.36,48.36,0,0,0,3.61,3.4C383.27,495.18,383.11,495.84,382.13,496.81Zm47.21,39.28q-15.75-15.72-31.56-31.38-18.37-18.29-36.73-36.6c-8.09-8-16.25-16-24.35-24-9.7-9.59-19.34-19.24-29.06-28.82-7-6.88-14-13.68-21.06-20.52-.46-.45-.85-.95-1.27-1.43a15.51,15.51,0,0,1,8.95,4q41.61,38.55,83.43,76.91c14.23,13.09,28.69,25.95,42.75,39.22a104.28,104.28,0,0,1,20.07,25.52c1.79,3.25,3.68,6.45,5.38,9.74.34.66,0,1.66,0,2.5-.73-.21-1.7-.18-2.17-.65C438.88,545.83,434.16,540.91,429.34,536.09Zm26.94,21.26c-3.73,2-7.56,3.79-11.4,5.58a7.37,7.37,0,0,1-3.27.48,30.25,30.25,0,0,0,15-16.8l10.1,8.57-.12.56C462.58,553.15,459.54,555.62,456.28,557.35Zm14.46,6.95c-2.62.47-4.54-.94-5.07-3.71l6.12,1.75C471.94,563.06,472.18,564.05,470.74,564.3Zm-.8-24c-3,4.84-3.24,5.94-2.19,11.88l-8.14-7.42c7.48-3.19,11.38-9.55,16-15.42a34.36,34.36,0,0,1-1.62,4.13C472.72,535.84,471.33,538.09,469.94,540.34Zm2.32,9.55c-.25-.4-.06-1.07-.07-1.62a4,4,0,0,1,1.44.15,4.19,4.19,0,0,1,1.81,6C474.28,552.79,473.2,551.39,472.26,549.89Zm8.2,14.26c-.48,1.16-1,2.28-1.49,3.45s-.72,2.23-1.08,3.35c-4.45-1.64-3.17-8.89.19-13.65C480.78,559,481.61,561.37,480.46,564.15Zm7.2,3.65c-.43,3.24-1.13,6.45-1.75,9.82-3.36-.78-5-2.94-4.16-6.1a82.89,82.89,0,0,1,3.25-8.83A4.84,4.84,0,0,1,487.66,567.8Zm12.28,12.47c1.93,0,4.78,2.62,4.76,4.36s-2.27,4-3.84,4c-2.51,0-5-1.89-4.95-3.72C496,582.68,498.08,580.26,499.94,580.27Zm-10.15-1.1a1.57,1.57,0,0,1-.12-1.15c.53-2.76,1.11-5.51,1.68-8.28,4.73,1.37,6.07,4.55,3.83,8.46a8.93,8.93,0,0,1-1,1.69c-.56.61-1.56,1.65-1.88,1.5A9.3,9.3,0,0,1,489.79,579.17ZM285.4,280.31c3.48,2.82,7.82,4.64,11.88,6.68,2.89,1.46,6.05,2.38,9,3.8,3.48,1.69,3.71,2.83,2.06,6.3-1.28,2.68-2.57,5.37-3.6,8.16a10.26,10.26,0,0,0,1.16,9.5,24,24,0,0,0,9,8.22c2.45,1.3,4.87,2.69,7.24,4.13a18.27,18.27,0,0,1,8.22,10.81c1.63,5.59,3.82,10.86,7.9,15.19a3.44,3.44,0,0,1,.78,2.31q-.24,5.55-.74,11.09c-.68,7.72-1.62,15.39-4.15,22.81a61.19,61.19,0,0,0-2.34,10.23c-.38,2.37.83,3.95,2.62,4.27s3.63-.84,4-3.19c1.6-9.86,3.25-19.73,4.46-29.64.54-4.47.09-9.05.09-14.13,4.08,3,8.1,5.5,11.55,8.62,4.71,4.26,9,9,13.43,13.53a14.06,14.06,0,0,0,10.38,4.68c4.5,0,9-.33,13.5-.07C399,384,404.38,381.25,409,376c4.27-4.86,9-9.3,13.7-13.8a60.69,60.69,0,0,1,5.63-4.35c.23,6.41.16,12.39.73,18.3.73,7.63,1.87,15.23,3.08,22.81a10.4,10.4,0,0,0,2.46,4.62,3.46,3.46,0,0,0,3,.68,3.21,3.21,0,0,0,1.61-2.38,12.07,12.07,0,0,0-.43-4.87c-4.52-12.88-6.06-26.3-7.33-39.76a4.87,4.87,0,0,1,1.25-3.49,36.39,36.39,0,0,0,8.54-14.16c2.86-8.29,8.67-13.36,17.13-15.61a75.09,75.09,0,0,0,11.47-3.87c9.85-4.41,15.5-13.66,12.23-23.93A11.9,11.9,0,0,1,485,283.58c3.44-3.38,7-6.61,10.67-9.76s6.61-6.39,8-10.86c2.43-7.59,0-14.24-4.68-20.22-5.29-6.79-12.38-10.79-20.61-13.07-5.1-1.41-10.12-3.11-15.14-4.8-3.23-1.1-4.64-3.56-4.53-6.93,0-1.12.14-2.24.24-3.36.28-3.3.56-6.6.87-9.9.6-6.53-1.6-12.05-5.75-17-9.91-11.88-22.66-16.48-37.81-14.87a53.26,53.26,0,0,0-19.37,6.28c-1.48-1.82-2.61-3.77-4.24-5.09a36,36,0,0,0-6.92-4.26,80.67,80.67,0,0,0-33.63-7.81c-11.88-.3-22.7,2.83-32.07,10.66-13.21,11-14.56,26.48-8.6,37.87a30.52,30.52,0,0,1,2,5,8.38,8.38,0,0,1-2.36,9.28,36.14,36.14,0,0,1-7,4.76,73.28,73.28,0,0,1-8.06,3.38c-9.93,3.83-16.17,10.89-18.34,21.31C275.57,264.21,277,273.51,285.4,280.31ZM398,184.54a11,11,0,0,1,7.24-6,34.67,34.67,0,0,1,18.63-.25c5.65,1.46,11.36,2.86,16.26,6.18,9.07,6.14,14.49,14.35,14.07,25.74a70,70,0,0,0,.07,8.93,10.21,10.21,0,0,0,6,8.75,69.88,69.88,0,0,0,10.4,3.88,52.76,52.76,0,0,1,20.44,11.48c7.64,6.7,8.42,15.78,1.82,23.56a83.79,83.79,0,0,1-6.47,6.15,87.2,87.2,0,0,0-6.54,6.35,14.17,14.17,0,0,0-3,13.92c.66,2.22,1.35,4.44,1.88,6.69a13,13,0,0,1-8.68,15.41c-3.22,1-6.53,1.73-9.81,2.53-2.64.64-5.33,1.08-7.93,1.82s-5.12,1.75-8,2.75c.62-3.17.69-6.16,3.21-8.76,2-2.1,3.33-5.06,4.49-7.83a6.94,6.94,0,0,0-1.49-7.27c-2.31-2.71-4.88-5.27-8.61-6.05-6.11-1.28-9.63-6.57-7.85-12.88,1.39-5,3.25-9.78,4.83-14.69a47.91,47.91,0,0,0,2.32-8.17c1.24-9.65-3.89-16-11.54-20.71-3.64-2.22-7.73-3.73-11.66-5.47-2.3-1-4.72-1.76-7-2.75-8.44-3.63-13.1-10-13.8-19.21-.28-3.56-.83-7.1-1-10.66C395.88,193.38,396,188.81,398,184.54Zm48.65,125c.05-2.77-.21-5.6,1.89-8.23C450.08,304.77,448,307.05,446.65,309.53Zm-39.33-77.36c6.65,2.94,13.15,6.25,19.55,9.71,3.51,1.9,6.57,4.56,7.94,8.56,1.51,4.42,2,8.88.19,13.37-1,2.51-1.94,5.05-3,7.82a37,37,0,0,0-17.8-4.72A121.24,121.24,0,0,0,400,268.13a4.54,4.54,0,0,0-2.66,2.09,26.12,26.12,0,0,0-2.33,5,7.75,7.75,0,0,0-.11,2.42c.85-.18,1.9-.1,2.5-.58a21.81,21.81,0,0,1,8.63-4.31A37,37,0,0,1,430.92,275c-.33,1.58-.68,3.12-1,4.66-1.54,8,2.49,14.52,10.37,16.7l1,.26c2.83.85,3.12,1.1,2.74,4-.77,6-1.7,11.91-2.57,17.87-.71,4.91-1.27,9.86-2.19,14.73-1.26,6.63-3.92,12.65-8.8,17.47a18.32,18.32,0,0,1-4.54,3.47,51.4,51.4,0,0,0-17.69,14.47,27.16,27.16,0,0,1-11.87,9,32.4,32.4,0,0,1-14.21,2.21c-5.26-.48-8.8-4.2-12.24-7.87-2.71-2.89-5.28-6.05-8.46-8.34a135.75,135.75,0,0,0-14.72-8.94,25.3,25.3,0,0,1-10.22-10.26c-2.36-4.26-3.4-9-4.41-13.73-1.73-8.15-3.95-16.19-6-24.26a3.08,3.08,0,0,1,.34-2.89c4.44-6.55,4-11.1-1.62-16.77-1.63-1.66-3.37-3.2-4.93-4.91-3.5-3.82-3.22-9.34,1-12.39,2.58-1.87,5.72-3,8.59-4.45,3.86-2,8-3.6,11.48-6.15,5.93-4.35,6.48-9.37,2.47-15.58-3.45-5.34-4.82-10.89-2.38-17.13s6.75-9.64,13.31-9.88c7.33-.27,14.69-.16,22-.22,5,0,9.93-.21,14.8-2.13.52,1.36,1,2.66,1.51,3.92C395.51,224.71,400.56,229.19,407.32,232.17Zm-81.25,83c-4.31-2.91-4.9-6.74-1.51-9.07C325.06,309.07,325.53,312,326.07,315.17ZM285,255.86a29.19,29.19,0,0,1,13.51-15.54c4.13-2.24,8.14-4.72,12-7.35a17.91,17.91,0,0,0,6.79-8.32,16,16,0,0,0-.1-12.56c-.86-2.15-1.92-4.22-2.82-6.35-2.53-6-2.91-12.13.11-17.86a30.12,30.12,0,0,1,7.34-8.73c10.88-9.09,23.5-12.23,37.61-10.94,12.82,1.16,23.19,6.85,32.36,15.34a2.59,2.59,0,0,1,.52,2.18c-2.26,7.65-3.5,15.37-2,23.32.31,1.68-.37,2.21-1.85,2.51-5.28,1.08-10.56.62-15.83,0-7.44-.84-14.86-2-22.36-.93-11.77,1.73-18,9.74-17.94,21.06a14.34,14.34,0,0,0,4.06,9.89,41.24,41.24,0,0,1,3.62,4.21c2.67,3.74,2.43,6.76-1.21,9.51a57.44,57.44,0,0,1-8.71,5c-2.71,1.38-5.64,2.32-8.33,3.72a14.09,14.09,0,0,0-7.54,8.55,11.6,11.6,0,0,0,2.37,11.52c1.19,1.41,2.55,2.68,3.84,4,.74.76,1.5,1.5,2.2,2.29,4,4.51,4.23,7.5-.4,12.1s-4.45,12.06,3,15.75c1.53.76,1.52.77,1.38,2.71-4.91-1.72-9.79-3.4-13.81-6.78-4.18-3.52-4.88-7.21-2.55-12.43.54-1.2,1.23-2.34,1.84-3.51,2.34-4.42,1.45-8.24-2.92-10.66A93.33,93.33,0,0,0,298,282.5c-9.41-3.66-14.19-13.06-14-22.22A13.19,13.19,0,0,1,285,255.86ZM215.69,693.34a24.83,24.83,0,0,0-6.91-14.19,21.2,21.2,0,0,0-14.32-7V419.3c-3,1.27-4.18,3-4.12,6.18.23,11.86.09,23.72.09,35.58V675.29c12.61,2.26,21,8.49,21.93,22.26h4.53q57.24,0,114.49.05c3.16,0,4.32-2.34,6.29-3.78l-.19-.48Zm364.7-21.27q0-123.45.1-246.89c0-3.23-1.52-4.58-4.22-6V671.89c-12.33,2.25-18.64,10-21.4,21.63H433c2.43,2.83,4.87,4.43,8.57,4.12,4.41-.36,8.86-.09,13.3-.09H558.46c1-13.78,9.35-19.95,21.93-22.28ZM191.23,72.59V313.22c0,3.28.78,4.38,4.17,5.62V76A21.26,21.26,0,0,0,209.61,69a25.52,25.52,0,0,0,6.95-14.35H338.63c-2.36-2.69-4.65-4.41-8.32-4.11-4.47.37-9,.09-13.5.09h-104c.59,6.22-2,11-6.17,15.17A23.47,23.47,0,0,1,191.23,72.59Zm385.93,3.64V319c4-2.28,4-2.28,4-6.26V72.85c-12.6-2.27-21-8.49-21.92-22.26h-3.94c-37.9,0-75.8.06-113.7-.11-3.57,0-5.5,1.78-8.07,4.22H555.85C558.4,66.93,564.82,73.43,577.16,76.23ZM415,76.16H355.58v49.55H415Zm-4,45.5H359.72V80.27H411ZM237.77,489.35c.61,5.26,1.6,10.47,2.45,15.7.27,1.65.6,3.3.9,4.94a3.28,3.28,0,0,0,.72-1.68c1-6.47,2.13-12.94,3.06-19.43.37-2.6,1.37-4.85,3.64-6.06a81.63,81.63,0,0,1,9.39-4.11,36.9,36.9,0,0,1,5.27-1.17,15.34,15.34,0,0,0-2.72-.85c-3.72-1.3-7.52-2.48-11.1-4.1a7.4,7.4,0,0,1-4.34-5.82c-.84-5.57-1.74-11.13-2.63-16.68-.28-1.74-.6-3.47-.91-5.21a197.77,197.77,0,0,0-3.67,20.23,9.83,9.83,0,0,1-5.71,8.21,33,33,0,0,1-5.3,2.19c-2.42.74-4.92,1.22-7.39,1.82,0,.09,0,.18,0,.28a13.6,13.6,0,0,1,1.84.34c3.87,1.3,7.83,2.4,11.56,4C235.82,483.29,237.36,485.91,237.77,489.35Zm269-324.3c.52,3.87,1.16,7.72,1.78,11.58.53,3.31,1.1,6.62,1.65,9.94a1.09,1.09,0,0,0,.58-.76c1.09-6.87,2.22-13.73,3.24-20.61.36-2.43,1.27-4.55,3.38-5.8a46.1,46.1,0,0,1,7.44-3.63,64.66,64.66,0,0,1,7.5-1.85,7.57,7.57,0,0,0-1.88-.63c-3.87-1.29-7.82-2.4-11.56-4a7.8,7.8,0,0,1-4.79-6.19q-.84-5.59-1.74-11.18c-.56-3.57-1.15-7.14-1.73-10.71h-.5c-1.09,6.86-2.31,13.7-3.23,20.58-.46,3.48-2,6.06-5.05,7.57a64.12,64.12,0,0,1-8.09,3.19,48.23,48.23,0,0,1-5.51,1.21,12.22,12.22,0,0,0,2.94.78,31.14,31.14,0,0,1,11.3,4.15A8.69,8.69,0,0,1,506.79,165.05Zm-72,481c.89,3.11,1.77,6.22,2.68,9.33.37,1.28.71,2.72,2.46,2.64s1.86-1.44,2.17-2.68q3.42-13.77,6.84-27.54c.42-1.67.7-3.37,1.11-5,.25-1,0-1.55-1.15-1.78-2.41-.49-3-.18-3.59,2.32q-2.46,10.53-4.89,21.08c-1-2.17-1.5-4.41-2.33-6.54-.33-.85-1.24-2-2-2.05a2.85,2.85,0,0,0-3.25,2c-.24.76-.52,1.5-.79,2.25l-1.5,4.26c-.92-2.85-1.4-5.58-2-8.29-1-4.32-2-8.62-3.09-12.92a1.54,1.54,0,0,0-2.08-1.25c-1.15.23-1.86.7-1.83,1.91a20.72,20.72,0,0,0,.25,3.16c1.05,6.21,2.11,12.41,3.22,18.61.6,3.32,1.22,6.64,2,9.92.19.8,1.18,2,1.74,2,.8,0,1.62-1,2.27-1.7a4.72,4.72,0,0,0,.64-1.66l2.7-8Zm44.92-.22c.86,2,1.56,4.12,2.59,6a34.28,34.28,0,0,0,3.55,5.19c.76.95,2,1.58,3.13.55a2.53,2.53,0,0,0,.27-3.42c-1.81-3-3.39-6.13-5.16-9.15-.7-1.2-.49-1.92.48-2.87a15.42,15.42,0,0,0,4.94-12.51c-.3-4.07-2.15-7.28-6.06-8.81s-7.56-.45-10.74,2.14c-1.2,1-2.12,2.17-.36,3.57a1.59,1.59,0,0,1,.31,1.07q.14,9,.24,18.06c0,3.17,0,6.35,0,9.52,0,1.78.83,2.76,2.6,2.79,2,0,2.13-1.53,2.2-2.91.12-2.38.13-4.77.08-7.15C477.8,646.69,478.12,645.88,479.76,645.85Zm-2.33-13.77c-.1-2.05-.19-4.1-.39-6.14-.12-1.12.35-1.53,1.37-1.69a5.48,5.48,0,0,1,5.92,3.91c1.23,3.51-.39,9.62-3.26,12.05a34.13,34.13,0,0,1-3.16,2.08C477.74,638.53,477.6,635.31,477.43,632.08Zm16.51-4c.3,8.6.53,17.2.93,25.8.15,3.25,1.68,3.89,4.42,2.15A26.66,26.66,0,0,0,511,639.62a20.87,20.87,0,0,0-.1-12c-2.54-7.81-11-10.58-17.61-5.71a3.07,3.07,0,0,0-1.3,2c0,.52,1,1,2,1.89C493.94,626.37,493.91,627.23,493.94,628.09Zm12.94.88c1.54,5.64.15,10.89-2.91,15.71-1.11,1.76-2.56,3.32-4.12,5.3-.5-9.08-1-17.67-1.46-26.37C502.69,622.93,505.72,624.74,506.88,629ZM265.67,660.6c.36.31,1.65-.08,2.24-.53a3.41,3.41,0,0,0,.81-2c.47-2.38.86-4.77,1.29-7.18h7.18c.52,2.49,1,4.75,1.46,7,.3,1.47.82,2.84,2.66,2.49s1.84-1.84,1.61-3.3c-.63-3.92-1.22-7.85-1.93-11.75-1.15-6.38-2.33-12.76-3.6-19.12a19.27,19.27,0,0,0-1.61-4.67,2.37,2.37,0,0,0-1.95-.66,8.29,8.29,0,0,0-1.87,3.14c-1.7,6.33-3.33,12.67-4.81,19.06-.47,2-.74,3.68-3.46,3.34-.51-.06-1.56.91-1.64,1.5a2.78,2.78,0,0,0,1.15,2,7.15,7.15,0,0,0,2.3.75c-.4,2.48-.92,4.88-1.09,7.3A3.61,3.61,0,0,0,265.67,660.6Zm8.41-30h.42c.76,5.06,1.52,10.11,2.33,15.46h-6C271.92,640.87,273,635.76,274.08,630.65Zm-16.61,12.83c5.77-3,7.93-8.25,7.67-14.58a8,8,0,0,0-6.5-8,14.37,14.37,0,0,0-13.6,3.62,17.62,17.62,0,0,0-3.43,4.76c-.72,1.38-.17,2.66,1.61,3.19.51-3.45,3.09-4.84,5.93-6.56,0,1.48,0,2.48,0,3.47-.31,7.5-.66,15-.95,22.5a31.61,31.61,0,0,0,.18,5.92,3.13,3.13,0,0,0,1.89,2.07c1.32.33,2-.83,2.15-2a29.27,29.27,0,0,0,.59-6.69C252.62,647.36,254.14,645.23,257.47,643.48Zm-4.88-19c2,.33,3.92.35,5.59,1a4.21,4.21,0,0,1,2.09,2.81c1,5.27-1.75,9.9-6.87,12.06C253.14,635.32,252.88,630.28,252.59,624.49Zm110.82,4.3c-.37-3-2.76-6.26-5.29-6.89-2.35-.58-5.24.73-6.95,3.59-1.41,2.37-3.09,4.86-3.49,7.47a59,59,0,0,0-.55,13.6,17.41,17.41,0,0,0,5.18,11.53c2.47,2.37,5.58,2.56,7.93.08a17.23,17.23,0,0,0,3.1-4.78c1.89-4.24,2.34-8.79,2.47-14.2-.17-1.64-.39-4.07-.71-6.5a6.56,6.56,0,0,0-.73-1.79A8.27,8.27,0,0,1,363.41,628.79Zm-1.75,13a23.12,23.12,0,0,1-3.06,11.59c-.53.87-1.64,2-2.41,2s-1.88-1.26-2.23-2.19a32.07,32.07,0,0,1,.76-25.48,13.53,13.53,0,0,1,2.4-2.78c.86.56,1.52.76,1.8,1.2,1.21,1.9,2.92,3.38,2.5,6.23C361,635.42,361.78,638.66,361.66,641.82Zm-35.79-15.25c1.35,0,2.53-.62,2.53-2.22s-1.11-2.12-2.52-2.22l-.39,0c-3.44-.1-6.89-.21-10.33-.28a3.24,3.24,0,0,0-3.49,2.86,31.41,31.41,0,0,0-.44,4.74c-.05,9.21,0,18.42,0,27.63,0,2.38.75,3.28,3.11,2.92,4-.62,8-1.48,12-2.4a2.4,2.4,0,0,0,1.48-1.75c0-.62-.83-1.77-1.37-1.81a24.87,24.87,0,0,0-5.45.24,47.3,47.3,0,0,0-4.84,1.19V644.59c.8,0,1.46,0,2.09-.12a66.72,66.72,0,0,0,7.06-1,2.69,2.69,0,0,0,1.6-2.06c0-.66-1.13-1.48-1.93-1.78a6.45,6.45,0,0,0-2.74-.05c-2,.18-4,.43-6.08.65-.35-4.76-.68-9.22-1-13.59C318.87,626.6,322.37,626.65,325.87,626.57Zm128.26-1.22a25.2,25.2,0,0,0-3,5.3,27.12,27.12,0,0,0-1,17,20.71,20.71,0,0,0,3.78,7.27c2.63,3.25,6.74,3.4,9.84.57a18.26,18.26,0,0,0,3.75-5A24.32,24.32,0,0,0,470,638.51a27.48,27.48,0,0,0-2.62-11.89C465,621.44,457.07,621.08,454.13,625.35Zm8.95,24.72c-1.92,2.95-3.05,3.06-5.58.78s-3.44-4.82-3.65-10.16c.33-2.48.27-5.1,1.09-7.41a22,22,0,0,1,4-6.46c1.47-1.73,2.81-1.45,4.26.31a14.78,14.78,0,0,1,3,8.67C466.54,640.85,465.9,645.72,463.08,650.07Zm-169.26-24c1.7-1.78,2.93-1.7,4.38.25.71.95,1.17,2.1,1.93,3a7.61,7.61,0,0,0,1.95,1.26c.29-.74,1-1.62.8-2.19a19.07,19.07,0,0,0-2.51-5.29c-1.94-2.58-5.08-2.94-7.82-1.22a11,11,0,0,0-5.11,6.84,110.26,110.26,0,0,0-2,11.69A20.41,20.41,0,0,0,287,651.52c1.67,3.61,4.85,5.23,8.54,5.63,3.37.36,5.34-2,6.78-4.66a48.8,48.8,0,0,0,2.85-6.74,2.07,2.07,0,0,0-1.87-2.86,38.55,38.55,0,0,0-6.34-.32c-.81,0-1.57,1-2.35,1.61a9.25,9.25,0,0,0,1.75,2.29,11.4,11.4,0,0,0,3,.95c-.6,1.15-1.12,2.19-1.7,3.2-1,1.68-2.22,1.92-4,1a5.55,5.55,0,0,1-3-4.16c-1.34-6.45-.52-12.77,1.49-19A6.82,6.82,0,0,1,293.82,626.1ZM419.28,648a12.94,12.94,0,0,0-5.57-9.41,60.27,60.27,0,0,1-6.89-5.64c-2-1.91-1.75-3.13.34-5s4.17-1.88,5.59-.09c.61.76.6,2,1,2.9.28.57.86,1.33,1.35,1.37a2.16,2.16,0,0,0,1.63-1.07,4.58,4.58,0,0,0,.33-2.31c-.3-4.8-5.9-8-10.34-5.87-6.14,2.88-7.56,8.69-3.11,13.78a60.29,60.29,0,0,0,6.92,6.22c1.83,1.52,3.32,3.17,3.74,5.63.58,3.47-.36,5-3.77,5.69-2.2.47-3.67-.58-4.8-2.36-.83-1.32-2-2.12-3.47-1.16s-1.29,2.4-.54,3.71a8.85,8.85,0,0,0,7.51,4.75C415.66,658.55,420.2,655.37,419.28,648Zm103.41,4.88c-1.91.31-3.34-1-4-3.23-.23-.77-1.16-1.33-1.77-2-.68.77-1.8,1.47-1.95,2.33-.64,3.63,2.79,7.32,6.51,7.27,4.18,0,6.35-1.53,7.75-5.5,2.06-5.82.09-10.59-4-14.81a38.12,38.12,0,0,1-5-5.59,9.11,9.11,0,0,1-1.07-5c0-.84,1.21-2,2.14-2.37,1.26-.51,2.24.46,2.74,1.68s.89,2.79,1.55,4.06c.37.69,1.22,1.13,1.85,1.68.43-.73,1.22-1.46,1.23-2.2a9.47,9.47,0,0,0-2.42-6.94,6.08,6.08,0,0,0-7.78-1.09c-3.6,2.26-5.37,7.25-3.26,10.94,2,3.51,4.86,6.55,7.1,9.95a24.17,24.17,0,0,1,3,6.33A3.79,3.79,0,0,1,522.69,652.85ZM375,657.26c.06-.79,0-1.58,0-2.38V642.21c1.78,0,3.11.09,4.41,0,1.5-.12,2.57-.95,2.46-2.55s-1.36-2.12-2.86-2.06l-4,.19c-.22-4-.43-7.83-.65-11.66,3-.29,5.73-.43,8.39-.87.74-.12,1.33-1.14,2-1.75-.67-.52-1.3-1.45-2-1.51a63.72,63.72,0,0,0-8.29-.21c-3.83.17-4.43.85-4.45,4.71,0,9.46,0,18.93,0,28.39a5.13,5.13,0,0,0,.42,2.69,4,4,0,0,0,2.39,1.47A1.75,1.75,0,0,0,375,657.26ZM414.52,59.14c2.52.88,4.19-.88,3.44-3.5a37.4,37.4,0,0,0-1.57-3.9c2.78-.32,5.42-.51,8-1a12.54,12.54,0,0,0,4.26-1.51c2.24-1.37,2.06-3.4-.28-4.54a10.7,10.7,0,0,0-3.19-1.06c-3.3-.46-6.63-.78-10-1.16.62-1.42,1.42-2.93,2-4.54s.79-3.22-.81-4.35-3.24-.41-4.3.77a39.23,39.23,0,0,0-5.65,7.32C402.18,49.61,408.79,57.15,414.52,59.14Zm0-23c-.06,4.52-2.46,7.42-6.27,7.64A18.78,18.78,0,0,1,414.56,36.18ZM427.34,46.4c-3,2.56-15.53,2.81-20,.37C414.26,44.78,420.61,45.08,427.34,46.4Zm-12,10.51c-3.28-1.08-5.21-3.46-6.95-6.17C412.4,50.23,415,52.69,415.31,56.91ZM598.15,392.32a39.9,39.9,0,0,0-7.43-5.78c-7.82-4.22-15.34,2.23-17.42,8-.9,2.52.85,4.22,3.45,3.49a34.54,34.54,0,0,0,3.82-1.53c.51,3.33.89,6.6,1.55,9.82.36,1.8,1.06,3.87,3.34,3.86s2.71-2.19,3-3.87c.67-3.62,1-7.29,1.54-11a49.24,49.24,0,0,0,4.7,2c1.46.47,3.09.63,4.13-.91A3.07,3.07,0,0,0,598.15,392.32Zm-22.64,3.14c1.13-3.35,3.49-5.34,6.34-7C582,393.08,579.4,395,575.51,395.46ZM586,407.32c-2.59-2.65-2.82-16.06-.31-19.65C587.65,394.34,587.4,400.7,586,407.32Zm2.59-18.93a19.53,19.53,0,0,1,7.69,6.28C591.74,394.61,588.85,392.22,588.61,388.39ZM343.89,49.33a13,13,0,0,0,4.27,1.47c2.57.44,5.19.63,7.93,1-.49,1-1,2-1.39,3.06-.48,1.32-.94,2.73.35,3.87s2.77.71,4.07,0a15.42,15.42,0,0,0,7.26-7.58,10,10,0,0,0,.92-4.22c-.22-5.22-3.05-9.14-6.82-12.45-1.26-1.11-2.81-2-4.48-.81s-1.26,3-.71,4.54,1.3,3,2,4.63a24.11,24.11,0,0,0-3.62,0c-3.18.51-6.36,1-9.48,1.83a3.06,3.06,0,0,0-1.86,2.2A3.31,3.31,0,0,0,343.89,49.33ZM357,57c.69-4.41,2.68-6.54,7.09-6.35C362.41,53.44,360.4,55.74,357,57Zm7.1-13.16c-3.85-.23-5.87-2.62-6.39-7.75A18.78,18.78,0,0,1,364.11,43.82Zm.41,3.21c-3.47,2.14-16,2-19.08-.25C348.77,44.72,361.55,44.88,364.52,47Zm-140.4,606.4a5.65,5.65,0,0,0,1.67-1c3.25-3.16,6.05-6.52,6.55-11.36.53-5.13-4.38-12.32-9.43-13.36-2.43-.49-3.94,1-3.3,3.39a39.86,39.86,0,0,0,1.65,4.25c-.69,0-1.22,0-1.74.1a94.6,94.6,0,0,0-9.51,1.7,4.24,4.24,0,0,0-2.4,2.9c-.13.66,1.33,2.15,2.31,2.41a84.53,84.53,0,0,0,9.12,1.65,21.35,21.35,0,0,0,3.19,0,44,44,0,0,0-2,6.72C219.85,653.19,221.9,654.42,224.12,653.43Zm-1.52-3.17a38.6,38.6,0,0,1,2.92-6.15c.58-.84,2.27-.9,3.65-1.38C228.3,645.8,225.46,649.33,222.6,650.26Zm6.67-13.93c-5,.22-7-3.49-7-6.12C224.77,630.6,227.06,632.6,229.27,636.33Zm-18.94,4.21c2.79-2.65,16.17-2.87,19.7-.37C223.38,642.15,217,641.8,210.33,640.54Zm-27.94-234c.31,1.68.8,3.84,3.13,3.71,2.12-.11,2.84-2.05,3.19-3.81.63-3.22,1-6.49,1.56-9.93,1,.46,2,1,3,1.37,1.33.49,3,1,3.75-.47a5,5,0,0,0,.06-3.84,14.18,14.18,0,0,0-7.83-7.48,12.58,12.58,0,0,0-4.81-.67c-4.6.17-7.91,2.94-11,5.95a7.72,7.72,0,0,0-1.56,2.27c-1,2.2.24,4.19,2.64,3.93a22.46,22.46,0,0,0,4.86-1.49,9.38,9.38,0,0,0,1.42-.74C181.31,399.11,181.7,402.84,182.39,406.51Zm12.72-11.12c-3.38.21-5.76-2.4-6.17-6.93C192.58,390.53,194.65,392.89,195.11,395.39ZM185,387.83c2.42,2.64,2.48,15.06,0,19.25A37,37,0,0,1,185,387.83Zm-10.3,6.93a14.08,14.08,0,0,1,7.48-6.12C181.92,392.29,179.48,394.33,174.74,394.76ZM358.21,689.45a4.8,4.8,0,0,0-3.84,0c-1.48.75-1,2.41-.5,3.74.4,1.09.93,2.13,1.35,3.07-3.25.48-6.4.84-9.49,1.44-1.94.38-4.23,1-4.21,3.45s2.46,2.78,4.25,3.11c3.48.65,7,1,10.52,1.38a29.92,29.92,0,0,0-2,5.35,4,4,0,0,0,1.06,3.42,3.74,3.74,0,0,0,3.54-.29,30.35,30.35,0,0,0,5.26-5.83C369.6,700.3,364.85,692.93,358.21,689.45ZM357.1,712c-.17-4.26,2.48-7.49,6.23-7.64A19.1,19.1,0,0,1,357.1,712Zm-12.65-10.59c3.65-2.21,15.34-2.37,19.22-.37C361.4,703.18,348.71,703.48,344.45,701.38Zm11.77-9.81c2.29,0,4.86,2.17,7,6C358.6,697.47,357.17,695.73,356.22,691.57ZM589.61,335.2c-.49-3.46-.88-6.94-1.64-10.34-.22-1-1.63-2.38-2.42-2.34a4.09,4.09,0,0,0-2.84,2.2,25.27,25.27,0,0,0-1.46,5.95c-.29,1.78-.32,3.61-.48,5.58-1.2-.56-2.19-1.08-3.23-1.47-1.32-.49-3-1-3.75.48a4.94,4.94,0,0,0,0,3.85,14.53,14.53,0,0,0,7.67,7.42,10.2,10.2,0,0,0,4.23.86c5.17-.23,9-3.08,12.31-6.77,1.12-1.25,2-2.81.86-4.49s-3-1.29-4.54-.74-3,1.3-4.65,2A16.34,16.34,0,0,0,589.61,335.2Zm-7.81,9c-2.79-1.72-5.14-3.69-6.34-7.11C580.09,337.9,582,339.9,581.8,344.21Zm4,.62c-2.42-2.77-2.45-15.18,0-19.28A36.56,36.56,0,0,1,585.78,344.83ZM595.94,338c-.88,2.23-4.55,5.22-7.34,6C588.92,340.42,592,337.89,595.94,338ZM549.08,642.85a67.76,67.76,0,0,0,9.43-2c2.25-.73,2.35-2.85.43-4.27a6.76,6.76,0,0,0-2.67-1.22c-3.23-.59-6.49-1-9.91-1.55a23.06,23.06,0,0,0,1.16-2.34c.54-1.47,1.38-3.06-.1-4.41s-3.28-.83-4.55.22a32.67,32.67,0,0,0-6.09,6.06,10.4,10.4,0,0,0-1.55,5.79c0,4.8,2.86,8.37,6.09,11.58,1.92,1.91,3.83,2.32,5.11,1.39s1.51-2.8.51-5.3c-.52-1.3-1.19-2.54-1.86-3.94A25.11,25.11,0,0,0,549.08,642.85Zm-3.57-14.14c-.94,4.44-2.4,6.34-7.17,6.46A13.17,13.17,0,0,1,545.51,628.71Zm-7,13.19c3.6.21,6,3.05,6.07,7.28C542.48,648.46,539.55,645,538.53,641.9Zm-.6-3.17c3.07-2.1,15.14-2.08,19,0C554.59,640.94,541.29,640.92,537.93,638.73ZM184.14,347.2c5.22.55,12-4,13.4-9.07.74-2.69-.87-4.33-3.57-3.55a36.64,36.64,0,0,0-3.83,1.56c-.32-2.74-.49-5.44-1-8.07a12.78,12.78,0,0,0-1.77-4.55c-1.18-1.81-3.06-1.62-4.09.29a10.32,10.32,0,0,0-1.2,3.33c-.49,3.36-.81,6.76-1.19,10.09-1.58-.65-3.29-1.49-5.09-2-1.42-.43-3.23-.52-3.81,1.09a4.56,4.56,0,0,0,.54,3.78C175.5,343.79,179.09,346.68,184.14,347.2Zm11.24-10.05A13.51,13.51,0,0,1,189,344.2C188.82,339.61,191.32,337.65,195.38,337.15Zm-10.54-12c2.54,3.31,2.74,15.8.3,20A40.31,40.31,0,0,1,184.84,325.15ZM182.18,344c-2.89-1-6.14-3.63-7.31-5.92A6.51,6.51,0,0,1,182.18,344ZM425.7,697.85a13.47,13.47,0,0,0-2.51-.59c-2.48-.31-5-.56-7.63-.85a19.2,19.2,0,0,0,1.52-3.77c.18-1,.09-2.51-.53-3a3.77,3.77,0,0,0-3.24-.46,14.61,14.61,0,0,0-8.27,8.38,10.39,10.39,0,0,0-.68,4.06c.2,4.73,2.85,8.27,6,11.46a7.94,7.94,0,0,0,2.63,1.72c2,.79,3.82-.39,3.62-2.48a24,24,0,0,0-1.46-5.08,9.56,9.56,0,0,0-.76-1.46c3.85-.54,7.64-1,11.37-1.65,1.62-.31,3.67-.84,3.55-3.09C429.23,699,427.35,698.39,425.7,697.85Zm-11.23-6.62c.26,3.54-2.34,5.92-7.05,6.39C409.28,694.69,411.24,692.32,414.47,691.23Zm-6.78,13.15c3.53,0,6.06,3,6.08,7.3C411.62,710.83,408.86,707.52,407.69,704.38Zm-.55-3.4a34.52,34.52,0,0,1,19.3,0C423.73,703.33,410.93,703.36,407.14,701ZM199.93,685.29a16.29,16.29,0,0,0-14.13-2.57c-2.2.58-2.63,3-.89,4.54a16.29,16.29,0,0,0,3.74,2.16,21.5,21.5,0,0,0,2.87.94c-.68.61-1.18,1-1.65,1.49-2.78,2.69-5.33,5.56-6.71,9.24-.89,2.4.26,3.84,2.78,3.47a7.24,7.24,0,0,0,2.93-1.1c2.66-1.82,5.23-3.79,7.9-5.74.19.58.37,1.34.66,2.06a11.17,11.17,0,0,0,1.13,2.3c1.25,1.78,3.14,1.78,4.4,0a5.7,5.7,0,0,0,.91-2C205.13,694.5,205.15,689.07,199.93,685.29Zm-12.84.33c3.44-1,6.62-.35,10.33,1-1.69.78-3,1.91-4,1.71A22,22,0,0,1,187.09,685.62Zm-2,16A39.59,39.59,0,0,1,199.44,688C198.81,692,189.45,701,185.08,701.67Zm15.93-.9c-2.14-2.64-3.08-6.11.64-9.62C202.38,694.47,202.64,697.61,201,700.77Zm379.73-9.1a12.76,12.76,0,0,0-1.36-1.25c1.8-.69,3.39-1.18,4.86-1.9s3.08-1.88,2.57-4c-.46-1.88-2.19-2.38-3.77-2.28a41.82,41.82,0,0,0-8.58,1.18c-8.76,2.45-9.58,12.45-6.85,18.2,1.14,2.4,3.58,2.38,4.91,0a35,35,0,0,0,1.72-4.21c.37.33.59.57.85.76a98.62,98.62,0,0,0,8.22,5.82,4.61,4.61,0,0,0,4-.18c1.4-.88.75-2.64,0-3.75C585.18,697.23,582.94,694.46,580.74,691.67Zm2.91-6.39.2.66a39.74,39.74,0,0,1-6.5,2.39c-1,.19-2.27-1-3.94-1.73C577.14,685.28,580.32,684.62,583.65,685.28Zm-13.81,15.59c-1.61-3.26-1.38-6.38-.7-9.61C572.25,694.18,572.55,697.44,569.84,700.87Zm1.55-12.49c6.11,2.82,10.47,7.5,13.87,13.21A29.61,29.61,0,0,1,571.39,688.38Zm-381.68-633a31.28,31.28,0,0,0,2.22,2.42c-1.66.7-3.41,1.32-5,2.15-1.41.73-2.52,1.87-2.09,3.66s1.9,2.19,3.37,2.28c4.68.26,9-.45,13.06-3.36,4.83-3.46,4.85-12.56,2.72-16.15-1.26-2.14-3.46-2.2-4.73-.08a35.78,35.78,0,0,0-1.86,4.39,17.67,17.67,0,0,0-1.67-1.54,83.46,83.46,0,0,0-7.7-5.17,4.23,4.23,0,0,0-3.64.29c-1.33.84-.81,2.48-.08,3.58C186,50.39,187.85,52.87,189.71,55.34Zm-2.36,7c2.61-1,4.74-2.1,7-2.55,1-.2,2.19,1,3.36,1.53C195.59,63,190.24,63.61,187.35,62.34Zm14.38-15c1.75,3.17,1.39,6.32.73,9.77C198.61,53.09,199.83,50.15,201.73,47.32Zm-1.1,12.39c-3.74-.26-13.27-9.28-14.38-13.69A36.86,36.86,0,0,1,200.63,59.71Zm376.6,5.58a29.85,29.85,0,0,0,7.85.32,3.35,3.35,0,0,0,2.42-2.11c.15-1-.65-2.3-1.4-3.15a7.45,7.45,0,0,0-2.74-1.52c-1-.41-2-.67-2.75-.89,2.31-2.95,4.7-5.76,6.82-8.77,1-1.44,2.37-3.35.62-5-1.6-1.51-3.57-.6-5.12.43-2.74,1.82-5.35,3.84-8,5.81-.31-.87-.6-2-1-3-.59-1.34-1.24-2.76-3.05-2.66s-2.51,1.45-2.91,2.86C565.69,55.28,567.67,63.37,577.23,65.29Zm7.38-2.47c-3.5.72-6.67,0-9.9-1.06C577.5,59.21,581.41,59.61,584.61,62.82Zm1.95-16.37a41.1,41.1,0,0,1-14.38,13.82C572.81,56.1,582.16,47.12,586.56,46.45Zm-15.91.88c2.55,3.75,2.67,6.38-.73,9.66C569.31,53.61,569,50.46,570.65,47.33ZM378.28,57.08a2.72,2.72,0,0,0,2.26.59c.47-.19.6-1.36.77-2.11.31-1.4.2-3,.87-4.18,1.95-3.42,4.64-4.14,7.23-1.07,1.07,1.28,1.18,3.36,1.72,5.07.25.8.48,1.6.72,2.41a6.92,6.92,0,0,0,2.43-.85,10.45,10.45,0,0,0,3.38-8.16,11.11,11.11,0,0,0-6.75-10.19c-4.31-2.09-8.44-1.17-12.05,1.73C373.59,44.55,373.34,53,378.28,57.08Zm3.16-14.27c3.05-2.35,6.38-2.29,9.64.17a6.68,6.68,0,0,1,2.41,8c-3.88-7.89-10.85-7.38-14.55,0A6.85,6.85,0,0,1,381.44,42.81ZM581.51,370.07a22.67,22.67,0,0,1-4.5,1.16l-2.29.59c.26.88.26,2,.81,2.6a10.16,10.16,0,0,0,8,3.33,11.56,11.56,0,0,0,11.39-10.58,11.69,11.69,0,0,0-9.12-12.07,10.55,10.55,0,0,0-10.58,3.47,2.38,2.38,0,0,0-.41,2.11c.22.47,1.25.58,2,.77.3.08.65-.1,1-.1,2.68-.05,5.52,1.83,6.23,4.11C584.34,366.76,583.27,369.21,581.51,370.07Zm-.4-11a7.3,7.3,0,0,1,8.71,2.69c2.1,2.94,2,6.09-.19,9.17a6.91,6.91,0,0,1-8.36,2.64c3.25-1.52,6-3.6,5.91-7.26C587.07,362.86,584.75,360.47,581.11,359.09ZM393.21,691a2.71,2.71,0,0,0-2.29-.41c-.4.14-.63,1.32-.59,2a6.59,6.59,0,0,1-3,6.46,3.24,3.24,0,0,1-4.19-.14,6.8,6.8,0,0,1-2.6-6.47c.06-.62-.2-1.67-.6-1.85a2.32,2.32,0,0,0-2.12.25,14,14,0,0,0-2.85,3.74A11.06,11.06,0,0,0,377.16,707a11.61,11.61,0,0,0,12.4,2.79c4.4-1.76,7.24-5.91,7.3-12A9.79,9.79,0,0,0,393.21,691Zm-2.93,14.2c-3.27,2.47-6.6,2.53-9.64.19a6.87,6.87,0,0,1-2.5-8.15c3.71,7.33,10.65,7.89,14.56,0A6.67,6.67,0,0,1,390.28,705.15ZM192.38,361.4c.58-.06,1.19.14,1.76.06s1.67-.23,1.85-.63a2.35,2.35,0,0,0-.27-2.12,13.37,13.37,0,0,0-3.56-2.76,11.1,11.1,0,0,0-12.52,2,11.66,11.66,0,0,0-2.91,12.55,11.49,11.49,0,0,0,10.63,7.27,10.39,10.39,0,0,0,8.11-3.5,2.83,2.83,0,0,0,.6-2.25c-.19-.47-1.36-.57-2.11-.79-.17,0-.38.06-.58.07-3,.19-6.31-2.25-6.58-4.89C186.58,364.25,189.38,361.73,192.38,361.4Zm-3,12.23a6.69,6.69,0,0,1-7.87-2.33c-2.43-3.15-2.63-6.32-.6-9.32a7.32,7.32,0,0,1,8.66-3C182.87,362.13,180.67,369.13,189.34,373.63ZM534.85,231.77c.29,2.08.74,4.14,1.11,6.21a50.34,50.34,0,0,0,1.87-9.21,5.2,5.2,0,0,1,3.21-4.62c1.79-.78,3.68-1.35,5.82-2.13-1.34-.33-2.44-.56-3.51-.88-3.21-1-5.48-2.6-5.63-6.45a67.29,67.29,0,0,0-1.38-8.37,32.12,32.12,0,0,0-1.57,7.06c-.61,5.32-2.19,7.12-7.43,8.23l-1.71.34a1.68,1.68,0,0,0,1,.6C533.33,224.24,533.87,224.88,534.85,231.77ZM244.32,210c-.27-3.06-.95-6.07-1.45-9.1a53.68,53.68,0,0,0-2,9.55,5.3,5.3,0,0,1-3.56,4.57c-1.63.69-3.34,1.15-5.29,1.81,1.49.44,2.76.79,4,1.2,2.77.91,4.69,2.45,5,5.69.25,3,.91,5.93,1.39,8.88l.49,0c.5-3.11,1.1-6.22,1.47-9.35a4.88,4.88,0,0,1,2.82-4.23c1.89-.87,3.89-1.52,5.82-2.25-1.54-.51-3.17-1-4.75-1.6A5.61,5.61,0,0,1,244.32,210ZM386.47,393.43a16.35,16.35,0,0,0-1-3.19l-.67,0a9.46,9.46,0,0,0-.72,1.67c-.68,2.95-1.33,5.92-1.95,8.89-.68,3.24-1.63,6.49-.33,9.77.86,2.15,1.82,4.26,2.81,6.36s3,2.21,4,.35c1.1-2.08,1.81-4.2.79-6.8a46.54,46.54,0,0,1-2.29-9.36C386.66,398.61,386.76,396,386.47,393.43ZM244.59,311.12a5.61,5.61,0,0,0,1,.48c5.28.76,8.12,3.54,8,9.12,0,1.88.67,3.76,1,5.64a62.08,62.08,0,0,0,1.68-7.86c.64-4.05,2-5.52,6-6.49.75-.19,1.48-.41,2.22-.62a15.61,15.61,0,0,0-3-1.08c-3.06-1-5.19-2.57-5.29-6.26-.06-2.61-.84-5.21-1.3-7.81a41.09,41.09,0,0,0-1.56,7.14c-.71,4.77-2.26,6.44-7,7.41ZM506.39,451a6.29,6.29,0,0,1-2.21-3.27,34,34,0,0,1-.81-5.08c-.23-1.42-.52-2.82-.78-4.22a41.25,41.25,0,0,0-1.81,8.63c-.25,3-2.13,4.23-4.52,5.12-1.18.45-2.42.74-3.94,1.2,1.61.49,2.89.82,4.13,1.27,2.35.87,4.09,2.16,4.33,5s.93,5.78,1.43,8.66a43.28,43.28,0,0,0,1.81-8.71,4.93,4.93,0,0,1,3-4.33c1.67-.76,3.45-1.3,5.09-1.9A34.66,34.66,0,0,1,506.39,451Zm10.94-136.16c1.06-3.63-.11-8,5.51-8.41a10.41,10.41,0,0,0-1.32-.64,4.18,4.18,0,0,1-3.51-4.35,26.78,26.78,0,0,0-.52-3.31c-1.2,3.18-.32,7.49-5.57,8.15C517.4,306.78,516.12,311.32,517.33,314.84ZM371.08,571.16c5.63.32,4.54,4.85,5.54,8.4,1.16-3.52,0-8.08,5.65-8.42-5.5-.48-4.54-4.94-5.71-8.66C375.74,566.32,376.52,570.64,371.08,571.16ZM286,164.49c1.14-3.09.33-7.31,5.61-7.79-5.46-.4-4.41-4.83-5.47-8-.94,3.25-.26,7.4-5.34,8,3.22.53,4.61,2.26,4.64,5.23A12,12,0,0,0,286,164.49ZM520.23,514c-.76,3.34-.36,7.27-5.46,7.95,5.49.21,4.43,4.61,5.52,8.2,1-3.67.2-8,5.59-8.26C520.6,521.42,521.25,517.15,520.23,514ZM182.65,434.62c-1.34,0-1.91.94-1.91,2.25s.79,2.34,2.14,2.19c.8-.09,1.52-.94,2-1.26C184.76,435.71,184.18,434.62,182.65,434.62Zm405.26,4.49c1.38,0,2.17-.77,2.53-2.65-.74-.62-1.43-1.68-2.25-1.79-1.48-.18-2.12,1-2.18,2.42A1.77,1.77,0,0,0,587.91,439.11Zm2.47-12.86c-.74-.54-1.45-1.47-2.23-1.53-1.56-.12-2.07,1.16-2.1,2.53s.66,1.77,1.88,1.76C589.47,429,590,428.07,590.38,426.25Zm-3.47-115.38a2.08,2.08,0,0,0,2,2.65,1.74,1.74,0,0,0,2-2c0-1.36-.49-2.31-2.7-2.41C587.84,309.52,587,310.14,586.91,310.87Zm-403.47,2.65c1.61,0,2-1.2,2.23-3.17a5.74,5.74,0,0,0-1.95-1.1c-1.5-.21-2.07.81-2.13,2.19A1.76,1.76,0,0,0,183.44,313.52Zm1.73,113.25c-.79-.71-1.48-1.82-2.39-2-1.24-.29-2.05.65-2,2.05s.67,2.4,2.16,2.16c.76-.12,1.43-.83,2.14-1.28Zm-2.43,18.12c-1.35,0-2.23.9-1.94,2.14a3.1,3.1,0,0,0,1.91,2c1.16.22,2.07-.63,2.11-2.08A1.93,1.93,0,0,0,182.74,444.89Zm403.37,2A1.68,1.68,0,0,0,588,449c.86-.06,1.65-1,2.48-1.53,0-.31,0-.62,0-.93-.79-.57-1.59-1.59-2.38-1.57S586.35,446.07,586.11,446.86ZM330.09,705c0,1.15.6,2,2,2s2-.55,2.35-2.3c-.77-.61-1.47-1.57-2.34-1.75C330.71,702.61,330,703.69,330.09,705Zm108.6-2.15a1.85,1.85,0,0,0-1.86,2.28c.14.8,1,1.46,1.54,2.19l1,0c.48-.78,1.25-1.52,1.36-2.34A1.75,1.75,0,0,0,438.69,702.81Zm.79-657.49a1.75,1.75,0,0,0,2-2.07c-.1-.83-.88-1.57-1.36-2.35l-1,0c-.54.72-1.42,1.38-1.56,2.18A1.86,1.86,0,0,0,439.48,45.32Zm-106.59-.06c.86-.19,1.55-1.17,2.31-1.8-.38-1.73-1.17-2.23-2.39-2.25s-1.91.85-1.93,2S331.55,45.55,332.89,45.26ZM182.72,647.7a2.9,2.9,0,0,0,2-1.83,1.67,1.67,0,0,0-2-2c-.82.12-1.52,1-2.27,1.54v.93C181.21,646.81,182,647.78,182.72,647.7Zm403.33-1.9a1.71,1.71,0,0,0,2,2c.83-.1,1.57-.88,2.35-1.35,0-.31,0-.63,0-.94-.73-.57-1.4-1.47-2.21-1.62C586.94,643.6,586.09,644.47,586.05,645.8ZM183.45,223.6c1.25.21,2.11-.66,2.12-2a1.71,1.71,0,0,0-2-1.92c-.83.12-1.56.9-2.34,1.38l0,.93C182,222.56,182.64,223.46,183.45,223.6Zm1.27,442.1c-.12-.84-1-1.57-1.47-2.35l-.87,0a8,8,0,0,0-1.54,2.29c-.28,1.2.56,2,1.79,2.06S184.92,667,184.72,665.7ZM589,199.85a2.91,2.91,0,0,0-2,1.77,1.66,1.66,0,0,0,1.92,2.09c.81-.09,1.54-.94,2.31-1.45l0-.93C590.44,200.79,589.65,199.79,589,199.85Zm-407.7,2.4c.77.52,1.5,1.38,2.31,1.47a1.68,1.68,0,0,0,1.93-2.1,3,3,0,0,0-2-1.77c-.69-.06-1.48.94-2.23,1.47Zm409.89-11c-.78-.47-1.53-1.25-2.36-1.35a1.7,1.7,0,0,0-1.94,1.94c0,1.34.89,2.2,2.14,2,.8-.15,1.47-1.06,2.2-1.62Zm-2.36-11.29a1.7,1.7,0,0,0-1.94,1.94,1.79,1.79,0,0,0,2.14,2c.8-.15,1.47-1.06,2.2-1.63,0-.31,0-.62,0-.93C590.37,180.8,589.62,180,588.79,179.92ZM183.6,183.83a1.66,1.66,0,0,0,1.89-2.12,2.91,2.91,0,0,0-2.06-1.74c-.69-.05-1.47,1-2.2,1.51l0,.94C182,182.91,182.78,183.75,183.6,183.83ZM588.89,170a2.92,2.92,0,0,0-2,1.84,1.67,1.67,0,0,0,2,2c.81-.12,1.51-1,2.26-1.54,0-.31,0-.62,0-.93C590.41,170.91,589.58,169.94,588.89,170ZM185.57,82.39a1.7,1.7,0,0,0-2-1.88c-.83.13-1.55.92-2.32,1.42,0,.31,0,.62,0,.93.74.55,1.44,1.43,2.25,1.56C184.75,84.62,185.58,83.72,185.57,82.39Zm-2,12a1.66,1.66,0,0,0,1.93-2.08,2.87,2.87,0,0,0-2-1.78c-.69-.07-1.48.93-2.23,1.46v.93C182,93.41,182.74,94.27,183.56,94.36Zm405.26,0c.82-.08,1.56-.92,2.34-1.42l0-.94c-.74-.54-1.51-1.55-2.21-1.5a2.91,2.91,0,0,0-2.05,1.75A1.66,1.66,0,0,0,588.82,94.36Zm-405.3,6.08c-.7-.08-1.51.89-2.28,1.4v.94c.75.53,1.46,1.41,2.27,1.52a1.67,1.67,0,0,0,2-2A2.92,2.92,0,0,0,183.52,100.44ZM589,104.3c.81-.13,1.49-1,2.23-1.6l0-.93c-.78-.48-1.51-1.26-2.34-1.38a1.71,1.71,0,0,0-2,1.92C586.86,103.65,587.72,104.51,589,104.3Zm-2,7.83a1.67,1.67,0,0,0,1.9,2.11c.81-.08,1.55-.92,2.33-1.43l0-.93c-.74-.54-1.52-1.55-2.21-1.5A2.89,2.89,0,0,0,586.93,112.13Zm-403.35,8.14c-.83.13-1.56.92-2.33,1.41,0,.31,0,.62,0,.94.74.55,1.43,1.44,2.24,1.57,1.25.19,2.1-.69,2.09-2A1.7,1.7,0,0,0,183.58,120.27ZM589,124.19c.81-.14,1.49-1,2.23-1.6l0-.94c-.78-.48-1.51-1.27-2.34-1.38a1.72,1.72,0,0,0-2,1.92C586.86,123.53,587.72,124.4,589,124.19ZM185.51,142c-.16-.81-1-1.49-1.59-2.22l-.91,0c-.48.78-1.42,1.62-1.32,2.32a2.92,2.92,0,0,0,1.87,1.94A1.67,1.67,0,0,0,185.51,142Zm-2.36,17.66c-.53.75-1.52,1.55-1.45,2.24a2.9,2.9,0,0,0,1.75,2.05,1.68,1.68,0,0,0,2.07-2c-.12-.83-1-1.55-1.46-2.32Zm2.42,12.25a1.7,1.7,0,0,0-2-1.91c-.83.11-1.56.9-2.34,1.38l0,.94c.74.55,1.42,1.46,2.23,1.59C184.7,174.1,185.56,173.24,185.57,171.89ZM586.05,457a1.71,1.71,0,0,0,2,1.92c.83-.12,1.56-.9,2.34-1.38l0-.94c-.74-.56-1.41-1.46-2.22-1.6C586.93,454.74,586.06,455.6,586.05,457ZM180.46,467.39c.77.5,1.49,1.29,2.32,1.42a1.72,1.72,0,0,0,2-1.89c0-1.34-.84-2.22-2.09-2-.81.13-1.5,1-2.25,1.57C180.45,466.77,180.45,467.08,180.46,467.39ZM588,464.89a1.67,1.67,0,0,0-1.9,2.12,2.87,2.87,0,0,0,2.06,1.74c.69.06,1.46-.95,2.2-1.49l0-.93C589.59,465.82,588.84,465,588,464.89Zm.07,13.81c.69.08,1.51-.89,2.27-1.4v-.93c-.75-.54-1.45-1.42-2.26-1.54a1.67,1.67,0,0,0-2,2A2.92,2.92,0,0,0,588.1,478.7Zm-405.32,6.08c-.82.09-1.55.94-2.32,1.45,0,.31,0,.62,0,.93.74.54,1.53,1.54,2.22,1.48a2.88,2.88,0,0,0,2-1.77A1.67,1.67,0,0,0,182.78,484.78Zm405.25,0a1.67,1.67,0,0,0-1.9,2.11,2.9,2.9,0,0,0,2.06,1.75c.69.05,1.47-1,2.2-1.5l0-.94C589.59,485.7,588.85,484.86,588,484.78ZM182.66,514.6c-.81.14-1.49,1-2.22,1.61l0,.93c.78.48,1.52,1.27,2.34,1.38a1.72,1.72,0,0,0,2-1.93C184.76,515.24,183.9,514.38,182.66,514.6Zm403.47,2.12a2.91,2.91,0,0,0,2.06,1.74c.69,0,1.46-1,2.2-1.49l0-1c-.78-.5-1.52-1.34-2.33-1.42A1.67,1.67,0,0,0,586.13,516.72Zm-403.4,11.79c1.31,0,2.26-.78,2-2.09-.17-.83-1-1.52-1.59-2.27l-.87,0a8.11,8.11,0,0,0-1.42,2.36C180.61,527.78,181.53,528.5,182.73,528.51Zm405.26,0c.83-.11,1.58-.88,2.36-1.35,0-.31,0-.62,0-.94-.73-.57-1.4-1.48-2.2-1.63-1.25-.23-2.12.62-2.15,2A1.72,1.72,0,0,0,588,528.46Zm.18,9.88c.69.06,1.47-.94,2.22-1.47l0-.93c-.77-.52-1.51-1.37-2.32-1.46a1.66,1.66,0,0,0-1.92,2.09A2.9,2.9,0,0,0,588.17,538.34Zm-405.49,6.08c-.81.13-1.5,1-2.24,1.58l0,.93c.77.49,1.5,1.28,2.32,1.41a1.72,1.72,0,0,0,2-1.9C184.78,545.1,183.93,544.22,182.68,544.42Zm403.45,2.11a2.89,2.89,0,0,0,2,1.75c.69.06,1.47-.94,2.21-1.48l0-.93c-.77-.51-1.51-1.36-2.32-1.45A1.67,1.67,0,0,0,586.13,546.53Zm0,9.86a2.9,2.9,0,0,0,2,1.84c.69.08,1.51-.89,2.27-1.39v-.93c-.75-.54-1.45-1.43-2.26-1.55A1.67,1.67,0,0,0,586.13,556.39ZM588.94,154c.81-.13,1.5-1,2.25-1.57l0-.94c-.78-.49-1.5-1.28-2.33-1.41a1.72,1.72,0,0,0-2,1.9C586.84,153.34,587.7,154.21,588.94,154ZM182.81,564.31c-.82.07-1.56.92-2.34,1.42,0,.31,0,.62,0,.93.74.55,1.51,1.56,2.21,1.51a2.93,2.93,0,0,0,2.06-1.74A1.67,1.67,0,0,0,182.81,564.31Zm405.35,0c-1.26-.21-2.1.68-2.11,2a1.71,1.71,0,0,0,2,1.91c.83-.12,1.56-.91,2.33-1.4l0-.93C589.65,565.34,589,564.44,588.16,564.3ZM182.82,588.1a1.71,1.71,0,0,0,2-1.93c0-1.34-.89-2.2-2.13-2-.81.14-1.48,1-2.22,1.61,0,.31,0,.62,0,.93C181.25,587.21,182,588,182.82,588.1Zm-.1,6c-.81.11-1.52,1-2.27,1.52v.94c.76.51,1.58,1.49,2.27,1.4a2.91,2.91,0,0,0,2-1.82A1.66,1.66,0,0,0,182.72,594.13Zm403.41,2a2.89,2.89,0,0,0,2,1.83c.69.08,1.51-.89,2.27-1.39,0-.32,0-.63,0-.94-.75-.54-1.46-1.42-2.27-1.53A1.67,1.67,0,0,0,586.13,596.16ZM182.76,607.94a2.92,2.92,0,0,0,1.94-1.88,1.66,1.66,0,0,0-2-2c-.81.13-1.5,1-2.24,1.58,0,.31,0,.62,0,.93C181.24,607.08,182.08,608,182.76,607.94Zm407.6-2.44c-.77-.51-1.51-1.35-2.33-1.43a1.67,1.67,0,0,0-1.9,2.11,2.91,2.91,0,0,0,2,1.75c.69.06,1.47-.95,2.21-1.49Zm-4.23,10.6a2.91,2.91,0,0,0,2,1.77c.69.06,1.48-.94,2.23-1.47l0-.93c-.77-.51-1.5-1.37-2.32-1.46A1.66,1.66,0,0,0,586.13,616.1Zm-400.56-315a1.7,1.7,0,0,0-2-1.87c-.83.14-1.55.93-2.31,1.44,0,.31,0,.62,0,.93.75.54,1.45,1.43,2.26,1.55C184.75,303.31,185.59,302.42,185.57,301.08Zm-2.85,203.58c-.81.11-1.52,1-2.27,1.52v.94c.76.5,1.58,1.48,2.27,1.4a2.91,2.91,0,0,0,2-1.82A1.66,1.66,0,0,0,182.72,504.66ZM588.88,283.24c.81-.1,1.53-1,2.29-1.49,0-.31,0-.63,0-.94-.76-.52-1.56-1.5-2.25-1.43a2.9,2.9,0,0,0-2,1.8A1.67,1.67,0,0,0,588.88,283.24Zm-407.62-1.43c.78.51,1.52,1.36,2.34,1.43a1.66,1.66,0,0,0,1.89-2.11,2.91,2.91,0,0,0-2.05-1.75c-.7-.05-1.47,1-2.21,1.5Zm407.65-8.51c.81-.11,1.51-1,2.27-1.53,0-.31,0-.62,0-.93-.76-.51-1.58-1.48-2.27-1.4a2.92,2.92,0,0,0-2,1.83A1.67,1.67,0,0,0,588.91,273.3Zm.08-13.8a2.91,2.91,0,0,0-2.06,1.74,1.67,1.67,0,0,0,1.89,2.12c.81-.07,1.56-.92,2.34-1.42l0-.93C590.45,260.46,589.68,259.45,589,259.5ZM182.76,624c-.81.1-1.54,1-2.3,1.48l0,.93c.75.53,1.55,1.52,2.24,1.45a2.91,2.91,0,0,0,2-1.78A1.67,1.67,0,0,0,182.76,624Zm403.29,2a1.71,1.71,0,0,0,1.94,2c.83-.11,1.58-.88,2.36-1.35,0-.31,0-.62,0-.93-.73-.57-1.4-1.49-2.2-1.64C587,623.72,586.08,624.58,586.05,625.92ZM183.59,259.45c-.83.12-1.56.91-2.34,1.4,0,.31,0,.62,0,.93.74.56,1.43,1.45,2.24,1.58,1.26.21,2.1-.67,2.1-2A1.7,1.7,0,0,0,183.59,259.45Zm405.27-6c.82-.1,1.54-1,2.31-1.48,0-.31,0-.62,0-.93-.75-.53-1.55-1.52-2.24-1.45a2.92,2.92,0,0,0-2,1.79A1.67,1.67,0,0,0,588.86,253.42Zm-405.41,0a1.67,1.67,0,0,0,2.07-2c-.12-.83-1-1.55-1.46-2.32l-.9,0c-.53.75-1.53,1.54-1.47,2.24A2.89,2.89,0,0,0,183.45,253.4Zm-.28-14.23c-.53.75-1.53,1.53-1.47,2.22a2.87,2.87,0,0,0,1.74,2.07,1.68,1.68,0,0,0,2.08-1.94c-.11-.82-.94-1.55-1.44-2.33Zm405.74-5.63c.81-.11,1.52-1,2.27-1.53,0-.31,0-.63,0-.94-.76-.5-1.47-1.31-2.3-1.45a1.71,1.71,0,0,0-2,1.86C586.82,232.83,587.66,233.71,588.91,233.54ZM588,637.81c.83-.11,1.57-.88,2.35-1.36l0-.93c-.73-.57-1.4-1.48-2.21-1.63a1.8,1.8,0,0,0-2.14,2C586,637.13,586.82,638,588,637.81ZM223.16,45.14c.7.06,1.51-.92,2.27-1.44v-.9c-.76-.52-1.47-1.36-2.29-1.48a1.65,1.65,0,0,0-2,2A2.86,2.86,0,0,0,223.16,45.14Zm10,0c.82-.18,1.49-1,2.23-1.57l0-.9c-.78-.49-1.63-1.45-2.32-1.35a2.88,2.88,0,0,0-1.92,1.89A1.62,1.62,0,0,0,233.15,45.19Zm11.75-1.76A1.63,1.63,0,0,0,243,41.32c-.84.1-1.59.91-2.37,1.4l0,.86c.73.56,1.49,1.58,2.2,1.55A2.87,2.87,0,0,0,244.9,43.43ZM589,130.27a2.92,2.92,0,0,0-2,1.76,1.67,1.67,0,0,0,1.91,2.1c.82-.09,1.55-.94,2.32-1.45,0-.31,0-.63,0-.94C590.44,131.21,589.65,130.21,589,130.27Zm0,159.06a2.9,2.9,0,0,0-2,1.75,1.66,1.66,0,0,0,1.9,2.1c.82-.08,1.55-.92,2.33-1.43l0-.94C590.45,290.28,589.67,289.28,589,289.33ZM272.35,45.59h.92c.52-.76,1.5-1.57,1.43-2.27a2.88,2.88,0,0,0-1.83-2,1.65,1.65,0,0,0-2,2C271,44.12,271.82,44.83,272.35,45.59ZM184.72,456.83c-.16-.83-1-1.52-1.59-2.27l-.86,0a7.81,7.81,0,0,0-1.43,2.36c-.23,1.23.67,2,1.89,2S185,458.14,184.72,456.83ZM292.11,45.56l.92,0c.56-.73,1.59-1.49,1.55-2.19a2.89,2.89,0,0,0-1.73-2.07,1.66,1.66,0,0,0-2.12,1.87C290.81,44,291.63,44.78,292.11,45.56Zm9.94,0,.92,0c.56-.74,1.59-1.5,1.55-2.19a2.91,2.91,0,0,0-1.73-2.07,1.66,1.66,0,0,0-2.12,1.87C300.75,44,301.57,44.78,302.05,45.56Zm10.52-.39a2.89,2.89,0,0,0,1.89-1.91c.09-.7-.86-1.54-1.35-2.32l-.89,0c-.56.75-1.46,1.43-1.6,2.25A1.62,1.62,0,0,0,312.57,45.17ZM182.74,494.72c-.81.1-1.53,1-2.29,1.5v.93c.75.52,1.56,1.51,2.25,1.44a2.94,2.94,0,0,0,2-1.81A1.67,1.67,0,0,0,182.74,494.72Zm0,119.29c-.82.1-1.54,1-2.3,1.48l0,.94c.75.52,1.55,1.51,2.24,1.44a2.9,2.9,0,0,0,2-1.79A1.67,1.67,0,0,0,182.76,614Zm0-39.76c-.82.08-1.56.93-2.33,1.43l0,.93c.74.55,1.51,1.56,2.21,1.51a2.94,2.94,0,0,0,2-1.76A1.67,1.67,0,0,0,182.8,574.25ZM588.9,243.48c.81-.11,1.52-1,2.27-1.52V241c-.76-.51-1.57-1.49-2.26-1.41a2.92,2.92,0,0,0-2,1.82A1.67,1.67,0,0,0,588.9,243.48ZM182.74,657.64a2.92,2.92,0,0,0,2-1.85,1.67,1.67,0,0,0-2-2c-.82.13-1.51,1-2.26,1.56l0,.93C181.22,656.77,182.05,657.73,182.74,657.64Zm-2.28-180.29c.78.49,1.62,1.44,2.31,1.34a2.87,2.87,0,0,0,1.93-1.87,1.67,1.67,0,0,0-2-2c-.81.14-1.49,1-2.23,1.59ZM591.15,161.41c-.77-.48-1.51-1.26-2.34-1.37a1.7,1.7,0,0,0-2,1.92c0,1.34.87,2.21,2.12,2,.81-.14,1.48-1,2.22-1.6C591.18,162,591.16,161.72,591.15,161.41ZM549.27,45.17a1.62,1.62,0,0,0,2-2c-.12-.82-1-1.52-1.54-2.27h-.9c-.51.77-1.48,1.59-1.4,2.29A2.87,2.87,0,0,0,549.27,45.17ZM185.52,231.56c-.12-.82-1-1.54-1.47-2.31l-.9,0c-.52.75-1.52,1.54-1.45,2.24a2.89,2.89,0,0,0,1.76,2.05A1.67,1.67,0,0,0,185.52,231.56Zm-2.77,406.19a2.91,2.91,0,0,0,1.95-1.85,1.67,1.67,0,0,0-2-2c-.81.13-1.5,1-2.25,1.57,0,.31,0,.62,0,.93C181.23,636.89,182.06,637.85,182.75,637.75Zm-.08-99.31c1.3,0,2.28-.7,2.05-2-.14-.84-1-1.55-1.52-2.32h-.87a7.88,7.88,0,0,0-1.49,2.32C180.58,537.64,181.46,538.41,182.67,538.44ZM185.51,152c-.15-.82-1-1.51-1.57-2.25l-.9,0c-.49.77-1.44,1.61-1.35,2.31a2.88,2.88,0,0,0,1.85,2A1.66,1.66,0,0,0,185.51,152ZM586.93,82.28a1.67,1.67,0,0,0,1.87,2.14c.82-.07,1.57-.91,2.35-1.4l0-.93c-.73-.56-1.49-1.58-2.19-1.54A3,3,0,0,0,586.93,82.28Zm2,127.52a3,3,0,0,0-2,1.78,1.66,1.66,0,0,0,1.94,2.07c.82-.09,1.54-1,2.3-1.47l0-.94C590.43,210.72,589.63,209.73,588.94,209.8ZM183.58,114.25a1.67,1.67,0,0,0,1.91-2.1,2.9,2.9,0,0,0-2-1.77c-.69-.06-1.47,1-2.22,1.48l0,.94C182,113.31,182.76,114.16,183.58,114.25Zm-.1,155.19c-.69-.07-1.49.92-2.24,1.45,0,.31,0,.62,0,.94.77.52,1.49,1.38,2.3,1.47a1.67,1.67,0,0,0,1.95-2.07A2.94,2.94,0,0,0,183.48,269.44Zm356-224.31c.71,0,1.47-1,2.21-1.53l0-.86c-.79-.5-1.53-1.31-2.37-1.42a1.63,1.63,0,0,0-1.87,2.1A2.87,2.87,0,0,0,539.52,45.13Zm-354,146.64a2.9,2.9,0,0,0-2-1.86c-.69-.09-1.52.87-2.29,1.37,0,.31,0,.62,0,.93.74.55,1.43,1.44,2.25,1.56A1.67,1.67,0,0,0,185.5,191.77ZM529.88,45.59c.53-.75,1.39-1.46,1.51-2.27a1.65,1.65,0,0,0-2-2,2.87,2.87,0,0,0-1.83,2c-.08.7.9,1.51,1.41,2.28Zm-10,0c.55-.74,1.42-1.43,1.56-2.24a1.65,1.65,0,0,0-2-2,2.87,2.87,0,0,0-1.88,1.92c-.09.7.87,1.53,1.37,2.31ZM182.77,558.22a2.87,2.87,0,0,0,1.93-1.87,1.67,1.67,0,0,0-2-2c-.81.14-1.49,1-2.23,1.59,0,.31,0,.62,0,.93C181.24,557.37,182.08,558.32,182.77,558.22ZM490.2,45.57c.5-.77,1.34-1.5,1.43-2.32a1.65,1.65,0,0,0-2.08-1.91,2.86,2.86,0,0,0-1.77,2c-.06.7,1,1.48,1.5,2.22Zm-268.39,657c-.51.76-1.36,1.48-1.46,2.3a1.66,1.66,0,0,0,2.06,1.94,2.91,2.91,0,0,0,1.79-2c.06-.69-.94-1.49-1.47-2.24Zm19.85,0c-.5.77-1.34,1.5-1.43,2.31a1.66,1.66,0,0,0,2.08,1.92,2.92,2.92,0,0,0,1.78-2c0-.7-1-1.48-1.51-2.22ZM272,703a1.62,1.62,0,0,0-1.92,2c.15.81,1.06,1.48,1.63,2.21l.89,0c.48-.78,1.43-1.64,1.33-2.34A3,3,0,0,0,272,703Zm8,1.79a1.65,1.65,0,0,0,1.92,2.07c.83-.11,1.55-.93,2.33-1.44,0-.3,0-.6,0-.89-.75-.54-1.53-1.54-2.24-1.48A2.83,2.83,0,0,0,280,704.75ZM291.9,703a2.83,2.83,0,0,0-1.94,1.85,1.65,1.65,0,0,0,2,2c.82-.15,1.5-1,2.25-1.56,0-.3,0-.6,0-.9C293.43,703.87,292.6,702.91,291.9,703Zm10,0a2.83,2.83,0,0,0-2,1.82,1.65,1.65,0,0,0,2,2c.82-.14,1.52-1,2.27-1.52v-.9C303.39,703.89,302.57,702.92,301.87,703Zm19.42-.45c-.53.75-1.4,1.44-1.53,2.25a1.66,1.66,0,0,0,2,2,2.91,2.91,0,0,0,1.85-1.95c.08-.7-.9-1.52-1.41-2.29ZM469.71,45.17a1.62,1.62,0,0,0,2-1.94c-.11-.82-1-1.53-1.51-2.3h-.89c-.52.76-1.51,1.57-1.44,2.27A2.91,2.91,0,0,0,469.71,45.17Zm-9.87,0c.7.09,1.54-.85,2.33-1.34,0-.29,0-.58,0-.87-.74-.56-1.42-1.43-2.24-1.61a1.63,1.63,0,0,0-2,1.93A2.89,2.89,0,0,0,459.84,45.14Zm-12.65,659.6a1.64,1.64,0,0,0,1.9,2.08c.83-.12,1.57-.94,2.35-1.44,0-.29,0-.58,0-.87-.74-.54-1.52-1.55-2.22-1.5A2.87,2.87,0,0,0,447.19,704.74Zm32.34-2.16-.92,0c-.57.73-1.61,1.48-1.57,2.18a2.85,2.85,0,0,0,1.72,2.07,1.66,1.66,0,0,0,2.13-1.86C480.82,704.12,480,703.36,479.53,702.58Zm17.36,2.21a1.63,1.63,0,0,0,1.95,2c.83-.14,1.54-1,2.31-1.49v-.87c-.76-.53-1.55-1.52-2.26-1.46A2.87,2.87,0,0,0,496.89,704.79Zm9.95,0a1.63,1.63,0,0,0,1.9,2.07c.84-.13,1.57-.94,2.35-1.45,0-.29,0-.58,0-.87-.75-.54-1.53-1.55-2.23-1.49A2.85,2.85,0,0,0,506.84,704.75Zm12.43-2.17-.92,0c-.56.73-1.59,1.5-1.54,2.2a2.91,2.91,0,0,0,1.73,2.06,1.66,1.66,0,0,0,2.12-1.88C520.58,704.1,519.76,703.35,519.27,702.58Zm9.91,0-.92,0c-.55.74-1.57,1.52-1.52,2.21a2.92,2.92,0,0,0,1.77,2,1.66,1.66,0,0,0,2.09-1.91C530.51,704.07,529.68,703.34,529.18,702.57ZM183.51,134.11a1.67,1.67,0,0,0,2-2c-.14-.82-1-1.52-1.53-2.27h-.92c-.5.77-1.46,1.59-1.38,2.28A2.89,2.89,0,0,0,183.51,134.11ZM479.6,45.17a1.63,1.63,0,0,0,2.09-1.88c-.1-.82-.93-1.56-1.44-2.34l-.9,0c-.54.74-1.55,1.52-1.5,2.22A2.91,2.91,0,0,0,479.6,45.17ZM588.86,223.6c.82-.1,1.54-1,2.3-1.48l0-.94c-.75-.52-1.45-1.33-2.27-1.49a1.71,1.71,0,0,0-2.06,1.81C586.79,222.85,587.61,223.75,588.86,223.6Zm-.79,275c.69.09,1.52-.86,2.29-1.34l0-.94c-.74-.55-1.43-1.44-2.24-1.57a1.66,1.66,0,0,0-2,2A2.91,2.91,0,0,0,588.07,498.57Zm.06,159.06c.69.07,1.49-.9,2.25-1.42,0-.31,0-.62,0-.94-.75-.52-1.47-1.39-2.28-1.49a1.66,1.66,0,0,0-2,2.05A2.91,2.91,0,0,0,588.13,657.63ZM252.13,703a1.62,1.62,0,0,0-2,2c.15.82,1,1.5,1.59,2.25l.9,0c.49-.77,1.44-1.61,1.35-2.31A2.87,2.87,0,0,0,252.13,703Zm9.95,0a1.63,1.63,0,0,0-2,2c.14.82,1,1.5,1.59,2.25l.9,0c.49-.77,1.45-1.61,1.35-2.31A2.91,2.91,0,0,0,262.08,703ZM591.16,300.59c-.78-.48-1.63-1.42-2.32-1.31a2.89,2.89,0,0,0-1.92,1.88,1.67,1.67,0,0,0,2,2c.81-.14,1.49-1.05,2.23-1.61ZM588,663.72c-1.26-.12-2,.81-2,2.15a1.71,1.71,0,0,0,2.12,1.75c.81-.18,1.48-1,2.22-1.56l0-.94C589.58,664.63,588.83,663.79,588,663.72Zm-404.46-454c-.83.14-1.54.93-2.3,1.44,0,.31,0,.62,0,.93.75.54,1.46,1.42,2.27,1.54,1.25.18,2.09-.71,2.06-2A1.7,1.7,0,0,0,183.55,209.75ZM588.19,504.66c-1.25-.23-2.11.63-2.14,2s.76,2.09,2,1.93c.83-.11,1.57-.87,2.35-1.35,0-.31,0-.62,0-.93C589.67,505.71,589,504.81,588.19,504.66ZM311.38,702.54c-.55.74-1.42,1.43-1.56,2.23a1.66,1.66,0,0,0,2,2,2.91,2.91,0,0,0,1.87-1.93c.09-.69-.87-1.53-1.36-2.3ZM586.05,586.3a1.71,1.71,0,0,0,2.08,1.79c.82-.16,1.51-1,2.26-1.5l0-1c-.77-.51-1.5-1.36-2.32-1.45C586.79,584.05,586,585,586.05,586.3Zm-333.24-541c1.28,0,2.17-.69,2.05-1.88-.08-.84-.88-1.61-1.36-2.42l-.91-.05c-.57.76-1.46,1.44-1.62,2.27A1.72,1.72,0,0,0,252.81,45.25Zm9.47.31.92,0c.56-.73,1.59-1.49,1.55-2.19A2.89,2.89,0,0,0,263,41.34a1.66,1.66,0,0,0-2.12,1.87C261,44,261.8,44.78,262.28,45.56Zm19.88,0,.92,0c.56-.73,1.59-1.49,1.55-2.19a2.89,2.89,0,0,0-1.72-2.07,1.66,1.66,0,0,0-2.12,1.87C280.87,44,281.68,44.78,282.16,45.56ZM459,703a2.89,2.89,0,0,0-1.79,2c-.06.69.92,1.49,1.45,2.25l.9,0c.53-.77,1.38-1.49,1.49-2.31A1.62,1.62,0,0,0,459,703ZM469,703a1.62,1.62,0,0,0-1.95,2,2.85,2.85,0,0,0,2,1.8c.71.06,1.51-.93,2.28-1.46,0-.29,0-.58,0-.87C470.57,703.91,469.86,703.08,469,703ZM588.13,578.1c.69.07,1.5-.91,2.25-1.43v-.94c-.76-.52-1.48-1.38-2.29-1.48a1.66,1.66,0,0,0-2,2.06A2.92,2.92,0,0,0,588.13,578.1ZM488.74,703a2.9,2.9,0,0,0-1.74,2c-.05.7,1,1.47,1.5,2.21l.89,0c.51-.78,1.35-1.52,1.44-2.35A1.62,1.62,0,0,0,488.74,703ZM185.57,291.16a1.7,1.7,0,0,0-2-1.88c-.83.13-1.55.92-2.32,1.41,0,.31,0,.62,0,.93.74.55,1.44,1.44,2.25,1.57C184.74,293.38,185.58,292.5,185.57,291.16ZM510.07,45.58c.5-.78,1.49-1.63,1.39-2.32a2.75,2.75,0,0,0-1.92-1.87c-.66,0-1.77,1.16-1.87,1.9s.92,1.53,1.44,2.3Zm-10.49-.39c.83-.1,1.57-.91,2.35-1.4l0-.87c-.74-.55-1.5-1.58-2.21-1.54a2.84,2.84,0,0,0-2.05,1.72A1.62,1.62,0,0,0,499.58,45.19Zm87.27,96.86c0,1.34.84,2.21,2.08,2,.81-.13,1.5-1,2.25-1.57,0-.31,0-.62,0-.93-.77-.49-1.49-1.28-2.32-1.41A1.7,1.7,0,0,0,586.85,142.05ZM539,702.55h-.92c-.51.77-1.47,1.59-1.39,2.29a2.89,2.89,0,0,0,1.84,1.95,1.65,1.65,0,0,0,2-2C540.41,704,539.54,703.29,539,702.55Zm10,0h-.93c-.51.76-1.49,1.57-1.42,2.26a2.89,2.89,0,0,0,1.82,2,1.65,1.65,0,0,0,2-2C550.36,704,549.51,703.31,549,702.55Zm-98.51-657c.48-.79,1.45-1.66,1.33-2.34a2.74,2.74,0,0,0-2-1.83c-.65,0-1.74,1.2-1.81,2s1,1.5,1.49,2.25ZM324.42,43.34a1.59,1.59,0,0,0-1.79-2,7.29,7.29,0,0,0-2.43,1.38l-.05.88c.75.56,1.53,1.59,2.24,1.55A2.91,2.91,0,0,0,324.42,43.34ZM232.28,703a2.86,2.86,0,0,0-2,1.81,1.65,1.65,0,0,0,2,2c.81-.14,1.52-1,2.27-1.52,0-.3,0-.6,0-.9C233.8,703.89,233,702.92,232.28,703Zm151.4-380c-3.69-3.27-5.76-7.21-5.23-12.42a61.77,61.77,0,0,0-9.13-40.09c-.64-1-1.86-2.24-2.92-2.35A128.89,128.89,0,0,0,350,267c-6.1.14-11.79,2.34-17.06,5.42-.62.37-.84,1.42-1.25,2.15a6.26,6.26,0,0,0,2.39.59,20,20,0,0,0,3.76-1.25,36.12,36.12,0,0,1,24.35-.65,20.69,20.69,0,0,1,5.44,2.77,6.09,6.09,0,0,1,2.36,3.22,185.4,185.4,0,0,1,4,19,39.4,39.4,0,0,1-.64,12.19c-.57,3-1.75,5.93-.22,9.17h-1.81c-2.27,0-3.49.87-3.64,2.53-.13,1.48,1,2.72,3.11,2.92.78.08,1.64-.57,2.46-.89-.6-.58-1.19-1.17-1.82-1.71a4.63,4.63,0,0,0-1.16-.44c2.38-.49,4.15-.37,5.83.95,4.23,3.34,8.82,4.36,13.83,1.75,1.41-.73,2.8-1.51,4.24-2.19a27.16,27.16,0,0,1,2.71-1c0,.1.08.21.13.32-.47.32-1.15.55-1.34,1s.07,1.13.13,1.71a13,13,0,0,0,3.76-.64,2.72,2.72,0,0,0,1.17-2.36c-.28-.89-1.33-2.11-2.13-2.17a13.63,13.63,0,0,0-5.38.69c-2.37.81-4.54,2.19-6.88,3.09A3.07,3.07,0,0,1,383.68,323Zm24.17,15.75a8.46,8.46,0,0,1-7.44.31c-4.42-1.71-8.5-.71-12.12,2.1-1.6,1.23-2.8,1.2-4.13-.18a9.22,9.22,0,0,0-7.39-2.78c-2.29.12-4.55.74-6.83,1-1.93.26-3.88.38-5.82.6-.67.07-1.33.24-2,.37.47.54.86,1.44,1.42,1.57a59.19,59.19,0,0,0,9.07,1.73c3.67.28,7.45-.58,10.94,1.15a7.23,7.23,0,0,0,5.37.31c3-.79,6.13-1.32,9.2-2l.11.52a18.35,18.35,0,0,0,10.78-2c.73-.39,1.61-1.68,1.45-2.32C410.12,337.78,408.8,338.19,407.85,338.7Zm-39.57-52.21c-.51-1.07-.77-2.38-1.55-3.18a21.88,21.88,0,0,0-14.9-6.6c-5.23-.24-9.82,1.47-12.94,5.93-.52.75-.29,2-.41,3.05a12.56,12.56,0,0,0,2.89-.17,13.2,13.2,0,0,0,2.55-1.41c2,3.9,4.83,6.11,9.14,5.67,3.31-.34,6-3,7.1-7,1.67,1,3.09,2,4.62,2.69A22.84,22.84,0,0,0,368.28,286.49Zm-15.3.14c-2.56.46-4.83-1-5.87-3.91a19.14,19.14,0,0,1,10.21-.55C357.27,284.48,355.57,286.16,353,286.63Zm53.45-3.92c.55,4.37,3.26,6.35,6.76,7,4.44.82,7.37-1.68,9.4-5.55a15.69,15.69,0,0,0,2.84,1.55,8.35,8.35,0,0,0,2.55,0c0-.91.24-2-.16-2.7a12.14,12.14,0,0,0-6.34-5.17c-6.92-2.68-17-.12-22,5.72-.67.78-.79,2-1.17,3a18.81,18.81,0,0,0,3.19-1C403.14,284.8,404.65,283.78,406.43,282.71Zm12.87,0a5,5,0,0,1-5.47,4c-2.65-.3-4.64-2.14-4.7-4.48A19,19,0,0,1,419.3,282.74Zm-24.46,67.37c-4.36.79-8.69,1.73-13.18,1-.47-.07-1.05.57-1.57.87.31.53.5,1.35,1,1.52,1.53.57,3.14.92,4.77,1.37,3.31-.63,6.58-1.15,9.79-1.92.58-.15.93-1.3,1.39-2C396.27,350.65,395.48,350,394.84,350.11ZM378,88.73l.5.52c0,5.28,0,10.57,0,15.85,0,.67-.75,1.29-.91,2-.2.85-.51,2.3-.14,2.54,1.41.93,1.19,2.23,1.32,3.52a13.35,13.35,0,0,0,.49,3.71,3.33,3.33,0,0,0,2.11,1.85c1.33.22,1.95-.92,2-2.18.05-1.45.06-2.92,0-4.37s.35-2.15,1.92-2.57c5.85-1.61,10.44-4.67,12.14-11,1.25-4.67-.39-10.51-4.05-12.56-4.82-2.69-13.8-3.38-19.18,1.07a11.88,11.88,0,0,0-2.65,4.24c-.27.57.19,1.48.31,2.21Zm12.86.9c2,1,3.22,4.8,2.56,7.6-1.13,4.75-4.76,7.9-10,8.5-.26-5.79-.51-11.55-.78-17.47A15.86,15.86,0,0,1,390.88,89.63Z"/></svg>